<svg width="440" height="340" xmlns="http://www.w3.org/2000/svg">
<path stroke-width="1" stroke="black" d="M 391 301 399 282"/>
<path stroke-width="1" stroke="black" d="M 391 301 404 320"/>
<path stroke-width="1" stroke="black" d="M 420 308 416 284"/>
<path stroke-width="1" stroke="black" d="M 420 308 404 320"/>
<path stroke-width="1" stroke="black" d="M 26 20 20 26"/>
<path stroke-width="1" stroke="black" d="M 399 282 391 301"/>
<path stroke-width="1" stroke="black" d="M 399 282 416 284"/>
<path stroke-width="1" stroke="black" d="M 416 284 420 308"/>
<path stroke-width="1" stroke="black" d="M 416 284 399 282"/>
<path stroke-width="1" stroke="black" d="M 404 320 391 301"/>
<path stroke-width="1" stroke="black" d="M 404 320 420 308"/>
<path stroke-width="1" stroke="black" d="M 20 26 26 20"/>
<circle cx="391" cy="301" r="7.0" style="fill:gray;stroke:black;stroke-width:1.0"/>
<circle cx="420" cy="308" r="7.0" style="fill:gray;stroke:black;stroke-width:1.0"/>
<circle cx="26" cy="20" r="7.0" style="fill:gray;stroke:black;stroke-width:1.0"/>
<circle cx="399" cy="282" r="7.0" style="fill:gray;stroke:black;stroke-width:1.0"/>
<circle cx="416" cy="284" r="7.0" style="fill:gray;stroke:black;stroke-width:1.0"/>
<circle cx="404" cy="320" r="7.0" style="fill:gray;stroke:black;stroke-width:1.0"/>
<circle cx="20" cy="26" r="7.0" style="fill:gray;stroke:black;stroke-width:1.0"/>
</svg>
