<svg width="440" height="340" xmlns="http://www.w3.org/2000/svg">
<path stroke-width="1" stroke="black" d="M 20 220 46 202"/>
<path stroke-width="1" stroke="black" d="M 352 43 367 20"/>
<path stroke-width="1" stroke="black" d="M 352 43 274 44"/>
<path stroke-width="1" stroke="black" d="M 262 21 274 44"/>
<path stroke-width="1" stroke="black" d="M 274 44 352 43"/>
<path stroke-width="1" stroke="black" d="M 274 44 262 21"/>
<path stroke-width="1" stroke="black" d="M 274 44 231 123"/>
<path stroke-width="1" stroke="black" d="M 207 104 231 123"/>
<path stroke-width="1" stroke="black" d="M 231 123 274 44"/>
<path stroke-width="1" stroke="black" d="M 231 123 207 104"/>
<path stroke-width="1" stroke="black" d="M 231 123 242 219"/>
<path stroke-width="1" stroke="black" d="M 231 249 242 219"/>
<path stroke-width="1" stroke="black" d="M 242 219 231 123"/>
<path stroke-width="1" stroke="black" d="M 242 219 231 249"/>
<path stroke-width="1" stroke="black" d="M 242 219 276 297"/>
<path stroke-width="1" stroke="black" d="M 290 320 276 297"/>
<path stroke-width="1" stroke="black" d="M 352 43 399 101"/>
<path stroke-width="1" stroke="black" d="M 367 20 352 43"/>
<path stroke-width="1" stroke="black" d="M 399 101 352 43"/>
<path stroke-width="1" stroke="black" d="M 399 101 420 103"/>
<path stroke-width="1" stroke="black" d="M 46 202 20 220"/>
<path stroke-width="1" stroke="black" d="M 46 202 114 165"/>
<path stroke-width="1" stroke="black" d="M 92 150 114 165"/>
<path stroke-width="1" stroke="black" d="M 114 165 46 202"/>
<path stroke-width="1" stroke="black" d="M 114 165 92 150"/>
<path stroke-width="1" stroke="black" d="M 114 165 214 160"/>
<path stroke-width="1" stroke="black" d="M 200 174 214 160"/>
<path stroke-width="1" stroke="black" d="M 276 297 242 219"/>
<path stroke-width="1" stroke="black" d="M 214 160 114 165"/>
<path stroke-width="1" stroke="black" d="M 214 160 320 141"/>
<path stroke-width="1" stroke="black" d="M 345 149 320 141"/>
<path stroke-width="1" stroke="black" d="M 320 141 214 160"/>
<path stroke-width="1" stroke="black" d="M 320 141 345 149"/>
<path stroke-width="1" stroke="black" d="M 320 141 399 101"/>
<path stroke-width="1" stroke="black" d="M 420 103 399 101"/>
<path stroke-width="1" stroke="black" d="M 399 101 320 141"/>
<path stroke-width="1" stroke="black" d="M 214 160 200 174"/>
<path stroke-width="1" stroke="black" d="M 276 297 290 320"/>
<circle cx="20" cy="220" r="7.0" style="fill:red;stroke:black;stroke-width:1.0"/>
<circle cx="46" cy="202" r="7.0" style="fill:red;stroke:black;stroke-width:1.0"/>
<circle cx="92" cy="150" r="7.0" style="fill:red;stroke:black;stroke-width:1.0"/>
<circle cx="114" cy="165" r="7.0" style="fill:red;stroke:black;stroke-width:1.0"/>
<circle cx="200" cy="174" r="7.0" style="fill:orange;stroke:black;stroke-width:1.0"/>
<circle cx="214" cy="160" r="7.0" style="fill:orange;stroke:black;stroke-width:1.0"/>
<circle cx="345" cy="149" r="7.0" style="fill:orange;stroke:black;stroke-width:1.0"/>
<circle cx="320" cy="141" r="7.0" style="fill:orange;stroke:black;stroke-width:1.0"/>
<circle cx="420" cy="103" r="7.0" style="fill:green;stroke:black;stroke-width:1.0"/>
<circle cx="399" cy="101" r="7.0" style="fill:green;stroke:black;stroke-width:1.0"/>
<circle cx="367" cy="20" r="7.0" style="fill:green;stroke:black;stroke-width:1.0"/>
<circle cx="352" cy="43" r="7.0" style="fill:green;stroke:black;stroke-width:1.0"/>
<circle cx="262" cy="21" r="7.0" style="fill:purple;stroke:black;stroke-width:1.0"/>
<circle cx="274" cy="44" r="7.0" style="fill:purple;stroke:black;stroke-width:1.0"/>
<circle cx="207" cy="104" r="7.0" style="fill:purple;stroke:black;stroke-width:1.0"/>
<circle cx="231" cy="123" r="7.0" style="fill:purple;stroke:black;stroke-width:1.0"/>
<circle cx="231" cy="249" r="7.0" style="fill:blue;stroke:black;stroke-width:1.0"/>
<circle cx="242" cy="219" r="7.0" style="fill:blue;stroke:black;stroke-width:1.0"/>
<circle cx="290" cy="320" r="7.0" style="fill:blue;stroke:black;stroke-width:1.0"/>
<circle cx="276" cy="297" r="7.0" style="fill:blue;stroke:black;stroke-width:1.0"/>
</svg>
