<svg width="440" height="340" xmlns="http://www.w3.org/2000/svg">
<path stroke-width="1" stroke="black" d="M 142 220 20 116"/>
<path stroke-width="1" stroke="black" d="M 81 276 160 20"/>
<path stroke-width="1" stroke="black" d="M 419 254 142 220"/>
<path stroke-width="1" stroke="black" d="M 419 254 20 116"/>
<path stroke-width="1" stroke="black" d="M 419 254 420 100"/>
<path stroke-width="1" stroke="black" d="M 419 254 81 276"/>
<path stroke-width="1" stroke="black" d="M 419 254 244 320"/>
<path stroke-width="1" stroke="black" d="M 419 254 160 20"/>
<path stroke-width="1" stroke="black" d="M 244 320 142 220"/>
<path stroke-width="1" stroke="black" d="M 244 320 20 116"/>
<path stroke-width="1" stroke="black" d="M 244 320 420 100"/>
<path stroke-width="1" stroke="black" d="M 244 320 81 276"/>
<path stroke-width="1" stroke="black" d="M 244 320 419 254"/>
<path stroke-width="1" stroke="black" d="M 244 320 160 20"/>
<path stroke-width="1" stroke="black" d="M 160 20 142 220"/>
<path stroke-width="1" stroke="black" d="M 160 20 20 116"/>
<path stroke-width="1" stroke="black" d="M 160 20 420 100"/>
<path stroke-width="1" stroke="black" d="M 160 20 81 276"/>
<path stroke-width="1" stroke="black" d="M 81 276 244 320"/>
<path stroke-width="1" stroke="black" d="M 81 276 419 254"/>
<path stroke-width="1" stroke="black" d="M 81 276 420 100"/>
<path stroke-width="1" stroke="black" d="M 81 276 20 116"/>
<path stroke-width="1" stroke="black" d="M 142 220 420 100"/>
<path stroke-width="1" stroke="black" d="M 142 220 81 276"/>
<path stroke-width="1" stroke="black" d="M 142 220 419 254"/>
<path stroke-width="1" stroke="black" d="M 142 220 244 320"/>
<path stroke-width="1" stroke="black" d="M 142 220 160 20"/>
<path stroke-width="1" stroke="black" d="M 20 116 142 220"/>
<path stroke-width="1" stroke="black" d="M 20 116 420 100"/>
<path stroke-width="1" stroke="black" d="M 20 116 81 276"/>
<path stroke-width="1" stroke="black" d="M 160 20 419 254"/>
<path stroke-width="1" stroke="black" d="M 20 116 419 254"/>
<path stroke-width="1" stroke="black" d="M 20 116 160 20"/>
<path stroke-width="1" stroke="black" d="M 420 100 142 220"/>
<path stroke-width="1" stroke="black" d="M 420 100 20 116"/>
<path stroke-width="1" stroke="black" d="M 420 100 81 276"/>
<path stroke-width="1" stroke="black" d="M 420 100 419 254"/>
<path stroke-width="1" stroke="black" d="M 420 100 244 320"/>
<path stroke-width="1" stroke="black" d="M 420 100 160 20"/>
<path stroke-width="1" stroke="black" d="M 81 276 142 220"/>
<path stroke-width="1" stroke="black" d="M 20 116 244 320"/>
<path stroke-width="1" stroke="black" d="M 160 20 244 320"/>
<circle cx="142" cy="220" r="7.0" style="fill:gray;stroke:black;stroke-width:1.0"/>
<circle cx="20" cy="116" r="7.0" style="fill:gray;stroke:black;stroke-width:1.0"/>
<circle cx="420" cy="100" r="7.0" style="fill:gray;stroke:black;stroke-width:1.0"/>
<circle cx="81" cy="276" r="7.0" style="fill:gray;stroke:black;stroke-width:1.0"/>
<circle cx="419" cy="254" r="7.0" style="fill:gray;stroke:black;stroke-width:1.0"/>
<circle cx="244" cy="320" r="7.0" style="fill:gray;stroke:black;stroke-width:1.0"/>
<circle cx="160" cy="20" r="7.0" style="fill:gray;stroke:black;stroke-width:1.0"/>
</svg>
