<svg width="440" height="340" xmlns="http://www.w3.org/2000/svg">
<path stroke-width="1" stroke="black" d="M 288 213 268 20"/>
<path stroke-width="1" stroke="black" d="M 39 20 420 80"/>
<path stroke-width="1" stroke="black" d="M 20 210 288 213"/>
<path stroke-width="1" stroke="black" d="M 20 210 268 20"/>
<path stroke-width="1" stroke="black" d="M 20 210 166 320"/>
<path stroke-width="1" stroke="black" d="M 20 210 39 20"/>
<path stroke-width="1" stroke="black" d="M 20 210 384 248"/>
<path stroke-width="1" stroke="black" d="M 20 210 420 80"/>
<path stroke-width="1" stroke="black" d="M 384 248 288 213"/>
<path stroke-width="1" stroke="black" d="M 384 248 268 20"/>
<path stroke-width="1" stroke="black" d="M 384 248 166 320"/>
<path stroke-width="1" stroke="black" d="M 384 248 39 20"/>
<path stroke-width="1" stroke="black" d="M 384 248 20 210"/>
<path stroke-width="1" stroke="black" d="M 384 248 420 80"/>
<path stroke-width="1" stroke="black" d="M 420 80 288 213"/>
<path stroke-width="1" stroke="black" d="M 420 80 268 20"/>
<path stroke-width="1" stroke="black" d="M 420 80 166 320"/>
<path stroke-width="1" stroke="black" d="M 420 80 39 20"/>
<path stroke-width="1" stroke="black" d="M 39 20 384 248"/>
<path stroke-width="1" stroke="black" d="M 39 20 20 210"/>
<path stroke-width="1" stroke="black" d="M 39 20 166 320"/>
<path stroke-width="1" stroke="black" d="M 39 20 268 20"/>
<path stroke-width="1" stroke="black" d="M 288 213 166 320"/>
<path stroke-width="1" stroke="black" d="M 288 213 39 20"/>
<path stroke-width="1" stroke="black" d="M 288 213 20 210"/>
<path stroke-width="1" stroke="black" d="M 288 213 384 248"/>
<path stroke-width="1" stroke="black" d="M 288 213 420 80"/>
<path stroke-width="1" stroke="black" d="M 268 20 288 213"/>
<path stroke-width="1" stroke="black" d="M 268 20 166 320"/>
<path stroke-width="1" stroke="black" d="M 268 20 39 20"/>
<path stroke-width="1" stroke="black" d="M 420 80 20 210"/>
<path stroke-width="1" stroke="black" d="M 268 20 20 210"/>
<path stroke-width="1" stroke="black" d="M 268 20 420 80"/>
<path stroke-width="1" stroke="black" d="M 166 320 288 213"/>
<path stroke-width="1" stroke="black" d="M 166 320 268 20"/>
<path stroke-width="1" stroke="black" d="M 166 320 39 20"/>
<path stroke-width="1" stroke="black" d="M 166 320 20 210"/>
<path stroke-width="1" stroke="black" d="M 166 320 384 248"/>
<path stroke-width="1" stroke="black" d="M 166 320 420 80"/>
<path stroke-width="1" stroke="black" d="M 39 20 288 213"/>
<path stroke-width="1" stroke="black" d="M 268 20 384 248"/>
<path stroke-width="1" stroke="black" d="M 420 80 384 248"/>
<circle cx="288" cy="213" r="20.0" style="fill:gray;stroke:black;stroke-width:1.0"/>
<circle cx="268" cy="20" r="20.0" style="fill:gray;stroke:black;stroke-width:1.0"/>
<circle cx="166" cy="320" r="20.0" style="fill:gray;stroke:black;stroke-width:1.0"/>
<circle cx="39" cy="20" r="20.0" style="fill:gray;stroke:black;stroke-width:1.0"/>
<circle cx="20" cy="210" r="20.0" style="fill:gray;stroke:black;stroke-width:1.0"/>
<circle cx="384" cy="248" r="20.0" style="fill:gray;stroke:black;stroke-width:1.0"/>
<circle cx="420" cy="80" r="20.0" style="fill:gray;stroke:black;stroke-width:1.0"/>
</svg>
