<svg width="440" height="340" xmlns="http://www.w3.org/2000/svg">
<path stroke-width="0.5" stroke="black" d="M 246 20 240 320"/>
<path stroke-width="1.5833333333333333" stroke="black" d="M 138 133 385 123"/>
<path stroke-width="0.7708333333333333" stroke="black" d="M 20 221 246 20"/>
<path stroke-width="0.5" stroke="black" d="M 20 221 240 320"/>
<path stroke-width="0.5" stroke="black" d="M 20 221 420 255"/>
<path stroke-width="0.5" stroke="black" d="M 20 221 138 133"/>
<path stroke-width="2.125" stroke="black" d="M 20 221 230 204"/>
<path stroke-width="0.5" stroke="black" d="M 20 221 385 123"/>
<path stroke-width="2.125" stroke="black" d="M 230 204 246 20"/>
<path stroke-width="4.833333333333333" stroke="black" d="M 230 204 240 320"/>
<path stroke-width="4.833333333333333" stroke="black" d="M 230 204 420 255"/>
<path stroke-width="4.833333333333333" stroke="black" d="M 230 204 138 133"/>
<path stroke-width="2.125" stroke="black" d="M 230 204 20 221"/>
<path stroke-width="20.0" stroke="black" d="M 230 204 385 123"/>
<path stroke-width="0.5" stroke="black" d="M 385 123 246 20"/>
<path stroke-width="1.5833333333333333" stroke="black" d="M 385 123 240 320"/>
<path stroke-width="1.5833333333333333" stroke="black" d="M 385 123 420 255"/>
<path stroke-width="1.5833333333333333" stroke="black" d="M 385 123 138 133"/>
<path stroke-width="4.833333333333333" stroke="black" d="M 138 133 230 204"/>
<path stroke-width="0.5" stroke="black" d="M 138 133 20 221"/>
<path stroke-width="1.5833333333333333" stroke="black" d="M 138 133 420 255"/>
<path stroke-width="1.5833333333333333" stroke="black" d="M 138 133 240 320"/>
<path stroke-width="0.5" stroke="black" d="M 246 20 420 255"/>
<path stroke-width="0.5" stroke="black" d="M 246 20 138 133"/>
<path stroke-width="0.7708333333333333" stroke="black" d="M 246 20 20 221"/>
<path stroke-width="2.125" stroke="black" d="M 246 20 230 204"/>
<path stroke-width="0.5" stroke="black" d="M 246 20 385 123"/>
<path stroke-width="0.5" stroke="black" d="M 240 320 246 20"/>
<path stroke-width="1.5833333333333333" stroke="black" d="M 240 320 420 255"/>
<path stroke-width="1.5833333333333333" stroke="black" d="M 240 320 138 133"/>
<path stroke-width="0.5" stroke="black" d="M 385 123 20 221"/>
<path stroke-width="0.5" stroke="black" d="M 240 320 20 221"/>
<path stroke-width="1.5833333333333333" stroke="black" d="M 240 320 385 123"/>
<path stroke-width="0.5" stroke="black" d="M 420 255 246 20"/>
<path stroke-width="1.5833333333333333" stroke="black" d="M 420 255 240 320"/>
<path stroke-width="1.5833333333333333" stroke="black" d="M 420 255 138 133"/>
<path stroke-width="0.5" stroke="black" d="M 420 255 20 221"/>
<path stroke-width="4.833333333333333" stroke="black" d="M 420 255 230 204"/>
<path stroke-width="1.5833333333333333" stroke="black" d="M 420 255 385 123"/>
<path stroke-width="0.5" stroke="black" d="M 138 133 246 20"/>
<path stroke-width="4.833333333333333" stroke="black" d="M 240 320 230 204"/>
<path stroke-width="20.0" stroke="black" d="M 385 123 230 204"/>
<circle cx="246" cy="20" r="20.0" style="fill:gray;stroke:black;stroke-width:1.0"/>
<circle cx="240" cy="320" r="20.0" style="fill:gray;stroke:black;stroke-width:1.0"/>
<circle cx="420" cy="255" r="20.0" style="fill:gray;stroke:black;stroke-width:1.0"/>
<circle cx="138" cy="133" r="20.0" style="fill:gray;stroke:black;stroke-width:1.0"/>
<circle cx="20" cy="221" r="20.0" style="fill:gray;stroke:black;stroke-width:1.0"/>
<circle cx="230" cy="204" r="20.0" style="fill:gray;stroke:black;stroke-width:1.0"/>
<circle cx="385" cy="123" r="20.0" style="fill:gray;stroke:black;stroke-width:1.0"/>
</svg>
