<svg width="440" height="340" xmlns="http://www.w3.org/2000/svg">
<path stroke-width="0.5" stroke="black" d="M 415 312 406 318"/>
<path stroke-width="0.5" stroke="black" d="M 415 312 420 320"/>
<path stroke-width="20.0" stroke="black" d="M 287 20 293 23"/>
<path stroke-width="2.6666666666666665" stroke="black" d="M 26 191 20 186"/>
<path stroke-width="0.5" stroke="black" d="M 406 318 415 312"/>
<path stroke-width="0.5" stroke="black" d="M 406 318 420 320"/>
<path stroke-width="20.0" stroke="black" d="M 293 23 287 20"/>
<path stroke-width="0.5" stroke="black" d="M 420 320 415 312"/>
<path stroke-width="0.5" stroke="black" d="M 420 320 406 318"/>
<path stroke-width="2.6666666666666665" stroke="black" d="M 20 186 26 191"/>
<circle cx="415" cy="312" r="7.0" style="fill:gray;stroke:black;stroke-width:1.0"/>
<circle cx="287" cy="20" r="7.0" style="fill:gray;stroke:black;stroke-width:1.0"/>
<circle cx="26" cy="191" r="7.0" style="fill:gray;stroke:black;stroke-width:1.0"/>
<circle cx="406" cy="318" r="7.0" style="fill:gray;stroke:black;stroke-width:1.0"/>
<circle cx="293" cy="23" r="7.0" style="fill:gray;stroke:black;stroke-width:1.0"/>
<circle cx="420" cy="320" r="7.0" style="fill:gray;stroke:black;stroke-width:1.0"/>
<circle cx="20" cy="186" r="7.0" style="fill:gray;stroke:black;stroke-width:1.0"/>
</svg>
