<svg width="440" height="340" xmlns="http://www.w3.org/2000/svg">
<path stroke-width="1" stroke="black" d="M 318 42 314 79"/>
<path stroke-width="1" stroke="black" d="M 349 138 374 137"/>
<path stroke-width="1" stroke="black" d="M 349 138 345 217"/>
<path stroke-width="1" stroke="black" d="M 349 138 360 160"/>
<path stroke-width="1" stroke="black" d="M 349 138 328 229"/>
<path stroke-width="1" stroke="black" d="M 349 138 261 155"/>
<path stroke-width="1" stroke="black" d="M 349 138 390 129"/>
<path stroke-width="1" stroke="black" d="M 349 138 347 69"/>
<path stroke-width="1" stroke="black" d="M 349 138 278 161"/>
<path stroke-width="1" stroke="black" d="M 349 138 367 182"/>
<path stroke-width="1" stroke="black" d="M 349 138 352 200"/>
<path stroke-width="1" stroke="black" d="M 349 138 317 230"/>
<path stroke-width="1" stroke="black" d="M 349 138 245 153"/>
<path stroke-width="1" stroke="black" d="M 349 138 253 105"/>
<path stroke-width="1" stroke="black" d="M 349 138 225 174"/>
<path stroke-width="1" stroke="black" d="M 383 20 347 69"/>
<path stroke-width="1" stroke="black" d="M 347 69 314 79"/>
<path stroke-width="1" stroke="black" d="M 349 138 257 190"/>
<path stroke-width="1" stroke="black" d="M 347 69 327 134"/>
<path stroke-width="1" stroke="black" d="M 349 138 367 185"/>
<path stroke-width="1" stroke="black" d="M 349 138 290 86"/>
<path stroke-width="1" stroke="black" d="M 261 155 347 69"/>
<path stroke-width="1" stroke="black" d="M 261 155 367 182"/>
<path stroke-width="1" stroke="black" d="M 261 155 257 190"/>
<path stroke-width="1" stroke="black" d="M 261 155 352 200"/>
<path stroke-width="1" stroke="black" d="M 261 155 317 230"/>
<path stroke-width="1" stroke="black" d="M 261 155 245 153"/>
<path stroke-width="1" stroke="black" d="M 261 155 253 105"/>
<path stroke-width="1" stroke="black" d="M 349 138 301 207"/>
<path stroke-width="1" stroke="black" d="M 261 155 225 174"/>
<path stroke-width="1" stroke="black" d="M 349 138 314 79"/>
<path stroke-width="1" stroke="black" d="M 349 138 327 134"/>
<path stroke-width="1" stroke="black" d="M 349 138 343 99"/>
<path stroke-width="1" stroke="black" d="M 349 138 314 154"/>
<path stroke-width="1" stroke="black" d="M 349 138 277 104"/>
<path stroke-width="1" stroke="black" d="M 349 138 299 95"/>
<path stroke-width="1" stroke="black" d="M 349 138 363 97"/>
<path stroke-width="1" stroke="black" d="M 390 129 349 138"/>
<path stroke-width="1" stroke="black" d="M 347 69 343 99"/>
<path stroke-width="1" stroke="black" d="M 347 69 314 154"/>
<path stroke-width="1" stroke="black" d="M 347 69 277 104"/>
<path stroke-width="1" stroke="black" d="M 367 182 314 79"/>
<path stroke-width="1" stroke="black" d="M 367 182 327 134"/>
<path stroke-width="1" stroke="black" d="M 367 182 343 99"/>
<path stroke-width="1" stroke="black" d="M 367 182 314 154"/>
<path stroke-width="1" stroke="black" d="M 367 182 277 104"/>
<path stroke-width="1" stroke="black" d="M 367 182 299 95"/>
<path stroke-width="1" stroke="black" d="M 367 182 363 97"/>
<path stroke-width="1" stroke="black" d="M 420 202 367 182"/>
<path stroke-width="1" stroke="black" d="M 367 182 290 86"/>
<path stroke-width="1" stroke="black" d="M 367 182 367 185"/>
<path stroke-width="1" stroke="black" d="M 367 182 278 161"/>
<path stroke-width="1" stroke="black" d="M 367 182 374 137"/>
<path stroke-width="1" stroke="black" d="M 367 182 345 217"/>
<path stroke-width="1" stroke="black" d="M 367 182 360 160"/>
<path stroke-width="1" stroke="black" d="M 367 182 328 229"/>
<path stroke-width="1" stroke="black" d="M 367 182 261 155"/>
<path stroke-width="1" stroke="black" d="M 367 182 301 207"/>
<path stroke-width="1" stroke="black" d="M 347 69 225 174"/>
<path stroke-width="1" stroke="black" d="M 347 69 253 105"/>
<path stroke-width="1" stroke="black" d="M 347 69 245 153"/>
<path stroke-width="1" stroke="black" d="M 347 69 299 95"/>
<path stroke-width="1" stroke="black" d="M 347 69 363 97"/>
<path stroke-width="1" stroke="black" d="M 347 69 290 86"/>
<path stroke-width="1" stroke="black" d="M 347 69 301 207"/>
<path stroke-width="1" stroke="black" d="M 347 69 367 185"/>
<path stroke-width="1" stroke="black" d="M 347 69 278 161"/>
<path stroke-width="1" stroke="black" d="M 347 69 374 137"/>
<path stroke-width="1" stroke="black" d="M 347 69 345 217"/>
<path stroke-width="1" stroke="black" d="M 347 69 360 160"/>
<path stroke-width="1" stroke="black" d="M 347 69 328 229"/>
<path stroke-width="1" stroke="black" d="M 347 69 261 155"/>
<path stroke-width="1" stroke="black" d="M 347 69 349 138"/>
<path stroke-width="1" stroke="black" d="M 347 69 383 20"/>
<path stroke-width="1" stroke="black" d="M 347 69 367 182"/>
<path stroke-width="1" stroke="black" d="M 347 69 257 190"/>
<path stroke-width="1" stroke="black" d="M 347 69 352 200"/>
<path stroke-width="1" stroke="black" d="M 347 69 317 230"/>
<path stroke-width="1" stroke="black" d="M 261 155 349 138"/>
<path stroke-width="1" stroke="black" d="M 367 182 349 138"/>
<path stroke-width="1" stroke="black" d="M 261 155 218 152"/>
<path stroke-width="1" stroke="black" d="M 261 155 360 160"/>
<path stroke-width="1" stroke="black" d="M 360 160 301 207"/>
<path stroke-width="1" stroke="black" d="M 360 160 367 185"/>
<path stroke-width="1" stroke="black" d="M 360 160 278 161"/>
<path stroke-width="1" stroke="black" d="M 360 160 374 137"/>
<path stroke-width="1" stroke="black" d="M 360 160 345 217"/>
<path stroke-width="1" stroke="black" d="M 360 160 399 164"/>
<path stroke-width="1" stroke="black" d="M 360 160 328 229"/>
<path stroke-width="1" stroke="black" d="M 360 160 290 86"/>
<path stroke-width="1" stroke="black" d="M 360 160 261 155"/>
<path stroke-width="1" stroke="black" d="M 360 160 347 69"/>
<path stroke-width="1" stroke="black" d="M 360 160 367 182"/>
<path stroke-width="1" stroke="black" d="M 360 160 257 190"/>
<path stroke-width="1" stroke="black" d="M 360 160 352 200"/>
<path stroke-width="1" stroke="black" d="M 360 160 317 230"/>
<path stroke-width="1" stroke="black" d="M 360 160 245 153"/>
<path stroke-width="1" stroke="black" d="M 360 160 253 105"/>
<path stroke-width="1" stroke="black" d="M 360 160 349 138"/>
<path stroke-width="1" stroke="black" d="M 360 160 225 174"/>
<path stroke-width="1" stroke="black" d="M 360 160 363 97"/>
<path stroke-width="1" stroke="black" d="M 360 160 277 104"/>
<path stroke-width="1" stroke="black" d="M 345 217 328 229"/>
<path stroke-width="1" stroke="black" d="M 345 217 261 155"/>
<path stroke-width="1" stroke="black" d="M 345 217 349 138"/>
<path stroke-width="1" stroke="black" d="M 345 217 347 69"/>
<path stroke-width="1" stroke="black" d="M 345 217 367 182"/>
<path stroke-width="1" stroke="black" d="M 345 217 257 190"/>
<path stroke-width="1" stroke="black" d="M 345 217 352 200"/>
<path stroke-width="1" stroke="black" d="M 360 160 299 95"/>
<path stroke-width="1" stroke="black" d="M 345 217 317 230"/>
<path stroke-width="1" stroke="black" d="M 345 217 253 105"/>
<path stroke-width="1" stroke="black" d="M 345 217 225 174"/>
<path stroke-width="1" stroke="black" d="M 399 164 360 160"/>
<path stroke-width="1" stroke="black" d="M 360 160 314 79"/>
<path stroke-width="1" stroke="black" d="M 360 160 327 134"/>
<path stroke-width="1" stroke="black" d="M 360 160 343 99"/>
<path stroke-width="1" stroke="black" d="M 360 160 314 154"/>
<path stroke-width="1" stroke="black" d="M 345 217 245 153"/>
<path stroke-width="1" stroke="black" d="M 344 282 328 229"/>
<path stroke-width="1" stroke="black" d="M 328 229 314 79"/>
<path stroke-width="1" stroke="black" d="M 328 229 327 134"/>
<path stroke-width="1" stroke="black" d="M 328 229 253 105"/>
<path stroke-width="1" stroke="black" d="M 328 229 225 174"/>
<path stroke-width="1" stroke="black" d="M 218 152 261 155"/>
<path stroke-width="1" stroke="black" d="M 261 155 314 79"/>
<path stroke-width="1" stroke="black" d="M 261 155 327 134"/>
<path stroke-width="1" stroke="black" d="M 261 155 343 99"/>
<path stroke-width="1" stroke="black" d="M 261 155 314 154"/>
<path stroke-width="1" stroke="black" d="M 328 229 245 153"/>
<path stroke-width="1" stroke="black" d="M 261 155 277 104"/>
<path stroke-width="1" stroke="black" d="M 261 155 363 97"/>
<path stroke-width="1" stroke="black" d="M 261 155 290 86"/>
<path stroke-width="1" stroke="black" d="M 261 155 301 207"/>
<path stroke-width="1" stroke="black" d="M 261 155 367 185"/>
<path stroke-width="1" stroke="black" d="M 261 155 278 161"/>
<path stroke-width="1" stroke="black" d="M 261 155 374 137"/>
<path stroke-width="1" stroke="black" d="M 261 155 345 217"/>
<path stroke-width="1" stroke="black" d="M 261 155 299 95"/>
<path stroke-width="1" stroke="black" d="M 328 229 317 230"/>
<path stroke-width="1" stroke="black" d="M 328 229 352 200"/>
<path stroke-width="1" stroke="black" d="M 328 229 257 190"/>
<path stroke-width="1" stroke="black" d="M 328 229 343 99"/>
<path stroke-width="1" stroke="black" d="M 328 229 314 154"/>
<path stroke-width="1" stroke="black" d="M 328 229 277 104"/>
<path stroke-width="1" stroke="black" d="M 328 229 299 95"/>
<path stroke-width="1" stroke="black" d="M 328 229 363 97"/>
<path stroke-width="1" stroke="black" d="M 328 229 290 86"/>
<path stroke-width="1" stroke="black" d="M 328 229 301 207"/>
<path stroke-width="1" stroke="black" d="M 328 229 367 185"/>
<path stroke-width="1" stroke="black" d="M 328 229 278 161"/>
<path stroke-width="1" stroke="black" d="M 328 229 374 137"/>
<path stroke-width="1" stroke="black" d="M 328 229 345 217"/>
<path stroke-width="1" stroke="black" d="M 328 229 360 160"/>
<path stroke-width="1" stroke="black" d="M 328 229 344 282"/>
<path stroke-width="1" stroke="black" d="M 328 229 261 155"/>
<path stroke-width="1" stroke="black" d="M 328 229 349 138"/>
<path stroke-width="1" stroke="black" d="M 328 229 347 69"/>
<path stroke-width="1" stroke="black" d="M 328 229 367 182"/>
<path stroke-width="1" stroke="black" d="M 261 155 328 229"/>
<path stroke-width="1" stroke="black" d="M 367 182 347 69"/>
<path stroke-width="1" stroke="black" d="M 367 182 420 202"/>
<path stroke-width="1" stroke="black" d="M 367 182 257 190"/>
<path stroke-width="1" stroke="black" d="M 245 153 367 182"/>
<path stroke-width="1" stroke="black" d="M 245 153 257 190"/>
<path stroke-width="1" stroke="black" d="M 245 153 352 200"/>
<path stroke-width="1" stroke="black" d="M 245 153 317 230"/>
<path stroke-width="1" stroke="black" d="M 245 153 161 157"/>
<path stroke-width="1" stroke="black" d="M 245 153 253 105"/>
<path stroke-width="1" stroke="black" d="M 245 153 225 174"/>
<path stroke-width="1" stroke="black" d="M 245 153 347 69"/>
<path stroke-width="1" stroke="black" d="M 173 59 253 105"/>
<path stroke-width="1" stroke="black" d="M 253 105 327 134"/>
<path stroke-width="1" stroke="black" d="M 253 105 343 99"/>
<path stroke-width="1" stroke="black" d="M 253 105 314 154"/>
<path stroke-width="1" stroke="black" d="M 253 105 277 104"/>
<path stroke-width="1" stroke="black" d="M 253 105 299 95"/>
<path stroke-width="1" stroke="black" d="M 253 105 363 97"/>
<path stroke-width="1" stroke="black" d="M 253 105 290 86"/>
<path stroke-width="1" stroke="black" d="M 253 105 314 79"/>
<path stroke-width="1" stroke="black" d="M 253 105 301 207"/>
<path stroke-width="1" stroke="black" d="M 245 153 349 138"/>
<path stroke-width="1" stroke="black" d="M 245 153 328 229"/>
<path stroke-width="1" stroke="black" d="M 317 230 225 174"/>
<path stroke-width="1" stroke="black" d="M 161 157 245 153"/>
<path stroke-width="1" stroke="black" d="M 245 153 314 79"/>
<path stroke-width="1" stroke="black" d="M 245 153 327 134"/>
<path stroke-width="1" stroke="black" d="M 245 153 343 99"/>
<path stroke-width="1" stroke="black" d="M 245 153 314 154"/>
<path stroke-width="1" stroke="black" d="M 245 153 277 104"/>
<path stroke-width="1" stroke="black" d="M 245 153 261 155"/>
<path stroke-width="1" stroke="black" d="M 245 153 299 95"/>
<path stroke-width="1" stroke="black" d="M 245 153 290 86"/>
<path stroke-width="1" stroke="black" d="M 245 153 301 207"/>
<path stroke-width="1" stroke="black" d="M 245 153 367 185"/>
<path stroke-width="1" stroke="black" d="M 245 153 278 161"/>
<path stroke-width="1" stroke="black" d="M 245 153 374 137"/>
<path stroke-width="1" stroke="black" d="M 245 153 345 217"/>
<path stroke-width="1" stroke="black" d="M 245 153 360 160"/>
<path stroke-width="1" stroke="black" d="M 245 153 363 97"/>
<path stroke-width="1" stroke="black" d="M 253 105 367 185"/>
<path stroke-width="1" stroke="black" d="M 253 105 278 161"/>
<path stroke-width="1" stroke="black" d="M 253 105 374 137"/>
<path stroke-width="1" stroke="black" d="M 225 174 290 86"/>
<path stroke-width="1" stroke="black" d="M 225 174 301 207"/>
<path stroke-width="1" stroke="black" d="M 225 174 367 185"/>
<path stroke-width="1" stroke="black" d="M 225 174 278 161"/>
<path stroke-width="1" stroke="black" d="M 225 174 374 137"/>
<path stroke-width="1" stroke="black" d="M 225 174 345 217"/>
<path stroke-width="1" stroke="black" d="M 225 174 360 160"/>
<path stroke-width="1" stroke="black" d="M 225 174 363 97"/>
<path stroke-width="1" stroke="black" d="M 225 174 328 229"/>
<path stroke-width="1" stroke="black" d="M 225 174 349 138"/>
<path stroke-width="1" stroke="black" d="M 225 174 347 69"/>
<path stroke-width="1" stroke="black" d="M 225 174 367 182"/>
<path stroke-width="1" stroke="black" d="M 225 174 257 190"/>
<path stroke-width="1" stroke="black" d="M 225 174 352 200"/>
<path stroke-width="1" stroke="black" d="M 225 174 317 230"/>
<path stroke-width="1" stroke="black" d="M 225 174 245 153"/>
<path stroke-width="1" stroke="black" d="M 225 174 261 155"/>
<path stroke-width="1" stroke="black" d="M 225 174 299 95"/>
<path stroke-width="1" stroke="black" d="M 225 174 277 104"/>
<path stroke-width="1" stroke="black" d="M 225 174 314 154"/>
<path stroke-width="1" stroke="black" d="M 253 105 345 217"/>
<path stroke-width="1" stroke="black" d="M 253 105 360 160"/>
<path stroke-width="1" stroke="black" d="M 253 105 328 229"/>
<path stroke-width="1" stroke="black" d="M 253 105 261 155"/>
<path stroke-width="1" stroke="black" d="M 253 105 349 138"/>
<path stroke-width="1" stroke="black" d="M 253 105 347 69"/>
<path stroke-width="1" stroke="black" d="M 253 105 367 182"/>
<path stroke-width="1" stroke="black" d="M 253 105 257 190"/>
<path stroke-width="1" stroke="black" d="M 253 105 352 200"/>
<path stroke-width="1" stroke="black" d="M 253 105 317 230"/>
<path stroke-width="1" stroke="black" d="M 253 105 245 153"/>
<path stroke-width="1" stroke="black" d="M 253 105 173 59"/>
<path stroke-width="1" stroke="black" d="M 253 105 225 174"/>
<path stroke-width="1" stroke="black" d="M 20 206 225 174"/>
<path stroke-width="1" stroke="black" d="M 225 174 314 79"/>
<path stroke-width="1" stroke="black" d="M 225 174 327 134"/>
<path stroke-width="1" stroke="black" d="M 225 174 343 99"/>
<path stroke-width="1" stroke="black" d="M 317 230 253 105"/>
<path stroke-width="1" stroke="black" d="M 317 230 245 153"/>
<path stroke-width="1" stroke="black" d="M 317 230 326 320"/>
<path stroke-width="1" stroke="black" d="M 317 230 352 200"/>
<path stroke-width="1" stroke="black" d="M 257 190 261 155"/>
<path stroke-width="1" stroke="black" d="M 257 190 349 138"/>
<path stroke-width="1" stroke="black" d="M 257 190 347 69"/>
<path stroke-width="1" stroke="black" d="M 257 190 367 182"/>
<path stroke-width="1" stroke="black" d="M 257 190 202 210"/>
<path stroke-width="1" stroke="black" d="M 257 190 352 200"/>
<path stroke-width="1" stroke="black" d="M 257 190 317 230"/>
<path stroke-width="1" stroke="black" d="M 257 190 328 229"/>
<path stroke-width="1" stroke="black" d="M 257 190 245 153"/>
<path stroke-width="1" stroke="black" d="M 257 190 225 174"/>
<path stroke-width="1" stroke="black" d="M 405 237 352 200"/>
<path stroke-width="1" stroke="black" d="M 352 200 314 79"/>
<path stroke-width="1" stroke="black" d="M 352 200 327 134"/>
<path stroke-width="1" stroke="black" d="M 352 200 343 99"/>
<path stroke-width="1" stroke="black" d="M 352 200 314 154"/>
<path stroke-width="1" stroke="black" d="M 352 200 277 104"/>
<path stroke-width="1" stroke="black" d="M 257 190 253 105"/>
<path stroke-width="1" stroke="black" d="M 257 190 360 160"/>
<path stroke-width="1" stroke="black" d="M 257 190 345 217"/>
<path stroke-width="1" stroke="black" d="M 257 190 374 137"/>
<path stroke-width="1" stroke="black" d="M 367 182 352 200"/>
<path stroke-width="1" stroke="black" d="M 367 182 317 230"/>
<path stroke-width="1" stroke="black" d="M 367 182 245 153"/>
<path stroke-width="1" stroke="black" d="M 367 182 253 105"/>
<path stroke-width="1" stroke="black" d="M 367 182 225 174"/>
<path stroke-width="1" stroke="black" d="M 202 210 257 190"/>
<path stroke-width="1" stroke="black" d="M 257 190 314 79"/>
<path stroke-width="1" stroke="black" d="M 257 190 327 134"/>
<path stroke-width="1" stroke="black" d="M 257 190 343 99"/>
<path stroke-width="1" stroke="black" d="M 257 190 314 154"/>
<path stroke-width="1" stroke="black" d="M 257 190 277 104"/>
<path stroke-width="1" stroke="black" d="M 257 190 299 95"/>
<path stroke-width="1" stroke="black" d="M 257 190 363 97"/>
<path stroke-width="1" stroke="black" d="M 257 190 290 86"/>
<path stroke-width="1" stroke="black" d="M 257 190 301 207"/>
<path stroke-width="1" stroke="black" d="M 257 190 367 185"/>
<path stroke-width="1" stroke="black" d="M 257 190 278 161"/>
<path stroke-width="1" stroke="black" d="M 352 200 299 95"/>
<path stroke-width="1" stroke="black" d="M 345 217 360 160"/>
<path stroke-width="1" stroke="black" d="M 352 200 363 97"/>
<path stroke-width="1" stroke="black" d="M 352 200 301 207"/>
<path stroke-width="1" stroke="black" d="M 317 230 277 104"/>
<path stroke-width="1" stroke="black" d="M 317 230 299 95"/>
<path stroke-width="1" stroke="black" d="M 317 230 363 97"/>
<path stroke-width="1" stroke="black" d="M 317 230 290 86"/>
<path stroke-width="1" stroke="black" d="M 317 230 301 207"/>
<path stroke-width="1" stroke="black" d="M 317 230 367 185"/>
<path stroke-width="1" stroke="black" d="M 317 230 278 161"/>
<path stroke-width="1" stroke="black" d="M 317 230 314 154"/>
<path stroke-width="1" stroke="black" d="M 317 230 374 137"/>
<path stroke-width="1" stroke="black" d="M 317 230 360 160"/>
<path stroke-width="1" stroke="black" d="M 317 230 328 229"/>
<path stroke-width="1" stroke="black" d="M 317 230 261 155"/>
<path stroke-width="1" stroke="black" d="M 317 230 349 138"/>
<path stroke-width="1" stroke="black" d="M 317 230 347 69"/>
<path stroke-width="1" stroke="black" d="M 317 230 367 182"/>
<path stroke-width="1" stroke="black" d="M 317 230 257 190"/>
<path stroke-width="1" stroke="black" d="M 317 230 345 217"/>
<path stroke-width="1" stroke="black" d="M 317 230 343 99"/>
<path stroke-width="1" stroke="black" d="M 317 230 327 134"/>
<path stroke-width="1" stroke="black" d="M 317 230 314 79"/>
<path stroke-width="1" stroke="black" d="M 352 200 367 185"/>
<path stroke-width="1" stroke="black" d="M 352 200 278 161"/>
<path stroke-width="1" stroke="black" d="M 352 200 374 137"/>
<path stroke-width="1" stroke="black" d="M 352 200 345 217"/>
<path stroke-width="1" stroke="black" d="M 352 200 360 160"/>
<path stroke-width="1" stroke="black" d="M 352 200 328 229"/>
<path stroke-width="1" stroke="black" d="M 352 200 261 155"/>
<path stroke-width="1" stroke="black" d="M 352 200 349 138"/>
<path stroke-width="1" stroke="black" d="M 352 200 347 69"/>
<path stroke-width="1" stroke="black" d="M 352 200 367 182"/>
<path stroke-width="1" stroke="black" d="M 352 200 257 190"/>
<path stroke-width="1" stroke="black" d="M 352 200 405 237"/>
<path stroke-width="1" stroke="black" d="M 352 200 317 230"/>
<path stroke-width="1" stroke="black" d="M 352 200 245 153"/>
<path stroke-width="1" stroke="black" d="M 352 200 253 105"/>
<path stroke-width="1" stroke="black" d="M 352 200 225 174"/>
<path stroke-width="1" stroke="black" d="M 326 320 317 230"/>
<path stroke-width="1" stroke="black" d="M 352 200 290 86"/>
<path stroke-width="1" stroke="black" d="M 345 217 371 256"/>
<path stroke-width="1" stroke="black" d="M 345 217 374 137"/>
<path stroke-width="1" stroke="black" d="M 345 217 278 161"/>
<path stroke-width="1" stroke="black" d="M 314 154 225 174"/>
<path stroke-width="1" stroke="black" d="M 256 75 277 104"/>
<path stroke-width="1" stroke="black" d="M 277 104 314 79"/>
<path stroke-width="1" stroke="black" d="M 277 104 327 134"/>
<path stroke-width="1" stroke="black" d="M 277 104 343 99"/>
<path stroke-width="1" stroke="black" d="M 277 104 314 154"/>
<path stroke-width="1" stroke="black" d="M 277 104 256 75"/>
<path stroke-width="1" stroke="black" d="M 314 154 253 105"/>
<path stroke-width="1" stroke="black" d="M 277 104 299 95"/>
<path stroke-width="1" stroke="black" d="M 277 104 290 86"/>
<path stroke-width="1" stroke="black" d="M 277 104 301 207"/>
<path stroke-width="1" stroke="black" d="M 277 104 367 185"/>
<path stroke-width="1" stroke="black" d="M 277 104 278 161"/>
<path stroke-width="1" stroke="black" d="M 277 104 374 137"/>
<path stroke-width="1" stroke="black" d="M 277 104 345 217"/>
<path stroke-width="1" stroke="black" d="M 277 104 360 160"/>
<path stroke-width="1" stroke="black" d="M 277 104 363 97"/>
<path stroke-width="1" stroke="black" d="M 277 104 328 229"/>
<path stroke-width="1" stroke="black" d="M 314 154 245 153"/>
<path stroke-width="1" stroke="black" d="M 314 154 352 200"/>
<path stroke-width="1" stroke="black" d="M 314 154 277 104"/>
<path stroke-width="1" stroke="black" d="M 314 154 299 95"/>
<path stroke-width="1" stroke="black" d="M 314 154 363 97"/>
<path stroke-width="1" stroke="black" d="M 314 154 290 86"/>
<path stroke-width="1" stroke="black" d="M 314 154 301 207"/>
<path stroke-width="1" stroke="black" d="M 314 154 367 185"/>
<path stroke-width="1" stroke="black" d="M 314 154 278 161"/>
<path stroke-width="1" stroke="black" d="M 314 154 317 230"/>
<path stroke-width="1" stroke="black" d="M 314 154 374 137"/>
<path stroke-width="1" stroke="black" d="M 314 154 360 160"/>
<path stroke-width="1" stroke="black" d="M 314 154 328 229"/>
<path stroke-width="1" stroke="black" d="M 314 154 261 155"/>
<path stroke-width="1" stroke="black" d="M 314 154 349 138"/>
<path stroke-width="1" stroke="black" d="M 314 154 347 69"/>
<path stroke-width="1" stroke="black" d="M 314 154 367 182"/>
<path stroke-width="1" stroke="black" d="M 314 154 257 190"/>
<path stroke-width="1" stroke="black" d="M 314 154 345 217"/>
<path stroke-width="1" stroke="black" d="M 277 104 261 155"/>
<path stroke-width="1" stroke="black" d="M 277 104 349 138"/>
<path stroke-width="1" stroke="black" d="M 277 104 347 69"/>
<path stroke-width="1" stroke="black" d="M 299 95 360 160"/>
<path stroke-width="1" stroke="black" d="M 299 95 328 229"/>
<path stroke-width="1" stroke="black" d="M 299 95 261 155"/>
<path stroke-width="1" stroke="black" d="M 299 95 349 138"/>
<path stroke-width="1" stroke="black" d="M 299 95 347 69"/>
<path stroke-width="1" stroke="black" d="M 299 95 367 182"/>
<path stroke-width="1" stroke="black" d="M 299 95 257 190"/>
<path stroke-width="1" stroke="black" d="M 299 95 345 217"/>
<path stroke-width="1" stroke="black" d="M 299 95 352 200"/>
<path stroke-width="1" stroke="black" d="M 299 95 245 153"/>
<path stroke-width="1" stroke="black" d="M 299 95 253 105"/>
<path stroke-width="1" stroke="black" d="M 299 95 225 174"/>
<path stroke-width="1" stroke="black" d="M 392 74 363 97"/>
<path stroke-width="1" stroke="black" d="M 363 97 314 79"/>
<path stroke-width="1" stroke="black" d="M 363 97 327 134"/>
<path stroke-width="1" stroke="black" d="M 363 97 343 99"/>
<path stroke-width="1" stroke="black" d="M 299 95 317 230"/>
<path stroke-width="1" stroke="black" d="M 299 95 374 137"/>
<path stroke-width="1" stroke="black" d="M 299 95 278 161"/>
<path stroke-width="1" stroke="black" d="M 299 95 367 185"/>
<path stroke-width="1" stroke="black" d="M 277 104 367 182"/>
<path stroke-width="1" stroke="black" d="M 277 104 257 190"/>
<path stroke-width="1" stroke="black" d="M 277 104 352 200"/>
<path stroke-width="1" stroke="black" d="M 277 104 317 230"/>
<path stroke-width="1" stroke="black" d="M 277 104 245 153"/>
<path stroke-width="1" stroke="black" d="M 277 104 253 105"/>
<path stroke-width="1" stroke="black" d="M 277 104 225 174"/>
<path stroke-width="1" stroke="black" d="M 287 57 299 95"/>
<path stroke-width="1" stroke="black" d="M 299 95 314 79"/>
<path stroke-width="1" stroke="black" d="M 299 95 327 134"/>
<path stroke-width="1" stroke="black" d="M 299 95 343 99"/>
<path stroke-width="1" stroke="black" d="M 299 95 314 154"/>
<path stroke-width="1" stroke="black" d="M 299 95 277 104"/>
<path stroke-width="1" stroke="black" d="M 299 95 287 57"/>
<path stroke-width="1" stroke="black" d="M 299 95 363 97"/>
<path stroke-width="1" stroke="black" d="M 299 95 290 86"/>
<path stroke-width="1" stroke="black" d="M 299 95 301 207"/>
<path stroke-width="1" stroke="black" d="M 314 154 297 158"/>
<path stroke-width="1" stroke="black" d="M 314 154 343 99"/>
<path stroke-width="1" stroke="black" d="M 314 154 327 134"/>
<path stroke-width="1" stroke="black" d="M 314 154 314 79"/>
<path stroke-width="1" stroke="black" d="M 314 79 317 230"/>
<path stroke-width="1" stroke="black" d="M 314 79 245 153"/>
<path stroke-width="1" stroke="black" d="M 314 79 253 105"/>
<path stroke-width="1" stroke="black" d="M 314 79 225 174"/>
<path stroke-width="1" stroke="black" d="M 344 121 327 134"/>
<path stroke-width="1" stroke="black" d="M 327 134 314 79"/>
<path stroke-width="1" stroke="black" d="M 327 134 344 121"/>
<path stroke-width="1" stroke="black" d="M 314 79 352 200"/>
<path stroke-width="1" stroke="black" d="M 327 134 343 99"/>
<path stroke-width="1" stroke="black" d="M 327 134 277 104"/>
<path stroke-width="1" stroke="black" d="M 327 134 299 95"/>
<path stroke-width="1" stroke="black" d="M 327 134 363 97"/>
<path stroke-width="1" stroke="black" d="M 327 134 290 86"/>
<path stroke-width="1" stroke="black" d="M 327 134 301 207"/>
<path stroke-width="1" stroke="black" d="M 327 134 367 185"/>
<path stroke-width="1" stroke="black" d="M 327 134 278 161"/>
<path stroke-width="1" stroke="black" d="M 327 134 314 154"/>
<path stroke-width="1" stroke="black" d="M 314 79 257 190"/>
<path stroke-width="1" stroke="black" d="M 314 79 367 182"/>
<path stroke-width="1" stroke="black" d="M 314 79 347 69"/>
<path stroke-width="1" stroke="black" d="M 314 79 318 42"/>
<path stroke-width="1" stroke="black" d="M 314 79 327 134"/>
<path stroke-width="1" stroke="black" d="M 314 79 343 99"/>
<path stroke-width="1" stroke="black" d="M 314 79 314 154"/>
<path stroke-width="1" stroke="black" d="M 314 79 277 104"/>
<path stroke-width="1" stroke="black" d="M 314 79 299 95"/>
<path stroke-width="1" stroke="black" d="M 314 79 363 97"/>
<path stroke-width="1" stroke="black" d="M 314 79 290 86"/>
<path stroke-width="1" stroke="black" d="M 314 79 301 207"/>
<path stroke-width="1" stroke="black" d="M 314 79 367 185"/>
<path stroke-width="1" stroke="black" d="M 314 79 278 161"/>
<path stroke-width="1" stroke="black" d="M 314 79 374 137"/>
<path stroke-width="1" stroke="black" d="M 314 79 345 217"/>
<path stroke-width="1" stroke="black" d="M 314 79 360 160"/>
<path stroke-width="1" stroke="black" d="M 314 79 328 229"/>
<path stroke-width="1" stroke="black" d="M 314 79 261 155"/>
<path stroke-width="1" stroke="black" d="M 314 79 349 138"/>
<path stroke-width="1" stroke="black" d="M 327 134 374 137"/>
<path stroke-width="1" stroke="black" d="M 363 97 314 154"/>
<path stroke-width="1" stroke="black" d="M 327 134 345 217"/>
<path stroke-width="1" stroke="black" d="M 327 134 328 229"/>
<path stroke-width="1" stroke="black" d="M 343 99 278 161"/>
<path stroke-width="1" stroke="black" d="M 343 99 374 137"/>
<path stroke-width="1" stroke="black" d="M 343 99 345 217"/>
<path stroke-width="1" stroke="black" d="M 343 99 360 160"/>
<path stroke-width="1" stroke="black" d="M 343 99 328 229"/>
<path stroke-width="1" stroke="black" d="M 343 99 261 155"/>
<path stroke-width="1" stroke="black" d="M 343 99 349 138"/>
<path stroke-width="1" stroke="black" d="M 343 99 367 185"/>
<path stroke-width="1" stroke="black" d="M 343 99 347 69"/>
<path stroke-width="1" stroke="black" d="M 343 99 257 190"/>
<path stroke-width="1" stroke="black" d="M 343 99 352 200"/>
<path stroke-width="1" stroke="black" d="M 343 99 317 230"/>
<path stroke-width="1" stroke="black" d="M 343 99 245 153"/>
<path stroke-width="1" stroke="black" d="M 343 99 253 105"/>
<path stroke-width="1" stroke="black" d="M 343 99 225 174"/>
<path stroke-width="1" stroke="black" d="M 297 158 314 154"/>
<path stroke-width="1" stroke="black" d="M 343 99 367 182"/>
<path stroke-width="1" stroke="black" d="M 343 99 301 207"/>
<path stroke-width="1" stroke="black" d="M 343 99 290 86"/>
<path stroke-width="1" stroke="black" d="M 343 99 363 97"/>
<path stroke-width="1" stroke="black" d="M 327 134 261 155"/>
<path stroke-width="1" stroke="black" d="M 327 134 349 138"/>
<path stroke-width="1" stroke="black" d="M 327 134 347 69"/>
<path stroke-width="1" stroke="black" d="M 327 134 367 182"/>
<path stroke-width="1" stroke="black" d="M 327 134 257 190"/>
<path stroke-width="1" stroke="black" d="M 327 134 352 200"/>
<path stroke-width="1" stroke="black" d="M 327 134 317 230"/>
<path stroke-width="1" stroke="black" d="M 327 134 245 153"/>
<path stroke-width="1" stroke="black" d="M 327 134 253 105"/>
<path stroke-width="1" stroke="black" d="M 327 134 225 174"/>
<path stroke-width="1" stroke="black" d="M 365 73 343 99"/>
<path stroke-width="1" stroke="black" d="M 343 99 314 79"/>
<path stroke-width="1" stroke="black" d="M 343 99 327 134"/>
<path stroke-width="1" stroke="black" d="M 343 99 365 73"/>
<path stroke-width="1" stroke="black" d="M 343 99 314 154"/>
<path stroke-width="1" stroke="black" d="M 343 99 277 104"/>
<path stroke-width="1" stroke="black" d="M 343 99 299 95"/>
<path stroke-width="1" stroke="black" d="M 327 134 360 160"/>
<path stroke-width="1" stroke="black" d="M 225 174 253 105"/>
<path stroke-width="1" stroke="black" d="M 363 97 277 104"/>
<path stroke-width="1" stroke="black" d="M 363 97 392 74"/>
<path stroke-width="1" stroke="black" d="M 278 161 299 95"/>
<path stroke-width="1" stroke="black" d="M 278 161 363 97"/>
<path stroke-width="1" stroke="black" d="M 278 161 290 86"/>
<path stroke-width="1" stroke="black" d="M 278 161 301 207"/>
<path stroke-width="1" stroke="black" d="M 278 161 367 185"/>
<path stroke-width="1" stroke="black" d="M 278 161 248 162"/>
<path stroke-width="1" stroke="black" d="M 278 161 374 137"/>
<path stroke-width="1" stroke="black" d="M 278 161 277 104"/>
<path stroke-width="1" stroke="black" d="M 278 161 345 217"/>
<path stroke-width="1" stroke="black" d="M 278 161 328 229"/>
<path stroke-width="1" stroke="black" d="M 278 161 261 155"/>
<path stroke-width="1" stroke="black" d="M 278 161 349 138"/>
<path stroke-width="1" stroke="black" d="M 278 161 347 69"/>
<path stroke-width="1" stroke="black" d="M 278 161 367 182"/>
<path stroke-width="1" stroke="black" d="M 278 161 257 190"/>
<path stroke-width="1" stroke="black" d="M 278 161 352 200"/>
<path stroke-width="1" stroke="black" d="M 278 161 360 160"/>
<path stroke-width="1" stroke="black" d="M 278 161 317 230"/>
<path stroke-width="1" stroke="black" d="M 278 161 314 154"/>
<path stroke-width="1" stroke="black" d="M 278 161 327 134"/>
<path stroke-width="1" stroke="black" d="M 367 185 374 137"/>
<path stroke-width="1" stroke="black" d="M 367 185 345 217"/>
<path stroke-width="1" stroke="black" d="M 367 185 360 160"/>
<path stroke-width="1" stroke="black" d="M 367 185 328 229"/>
<path stroke-width="1" stroke="black" d="M 367 185 261 155"/>
<path stroke-width="1" stroke="black" d="M 367 185 349 138"/>
<path stroke-width="1" stroke="black" d="M 367 185 347 69"/>
<path stroke-width="1" stroke="black" d="M 278 161 343 99"/>
<path stroke-width="1" stroke="black" d="M 367 185 367 182"/>
<path stroke-width="1" stroke="black" d="M 367 185 352 200"/>
<path stroke-width="1" stroke="black" d="M 367 185 317 230"/>
<path stroke-width="1" stroke="black" d="M 367 185 245 153"/>
<path stroke-width="1" stroke="black" d="M 367 185 253 105"/>
<path stroke-width="1" stroke="black" d="M 367 185 225 174"/>
<path stroke-width="1" stroke="black" d="M 248 162 278 161"/>
<path stroke-width="1" stroke="black" d="M 278 161 314 79"/>
<path stroke-width="1" stroke="black" d="M 367 185 257 190"/>
<path stroke-width="1" stroke="black" d="M 278 161 245 153"/>
<path stroke-width="1" stroke="black" d="M 278 161 253 105"/>
<path stroke-width="1" stroke="black" d="M 278 161 225 174"/>
<path stroke-width="1" stroke="black" d="M 374 137 352 200"/>
<path stroke-width="1" stroke="black" d="M 374 137 317 230"/>
<path stroke-width="1" stroke="black" d="M 374 137 245 153"/>
<path stroke-width="1" stroke="black" d="M 374 137 253 105"/>
<path stroke-width="1" stroke="black" d="M 374 137 225 174"/>
<path stroke-width="1" stroke="black" d="M 371 256 345 217"/>
<path stroke-width="1" stroke="black" d="M 345 217 314 79"/>
<path stroke-width="1" stroke="black" d="M 374 137 257 190"/>
<path stroke-width="1" stroke="black" d="M 345 217 327 134"/>
<path stroke-width="1" stroke="black" d="M 345 217 314 154"/>
<path stroke-width="1" stroke="black" d="M 345 217 277 104"/>
<path stroke-width="1" stroke="black" d="M 345 217 299 95"/>
<path stroke-width="1" stroke="black" d="M 345 217 363 97"/>
<path stroke-width="1" stroke="black" d="M 345 217 290 86"/>
<path stroke-width="1" stroke="black" d="M 345 217 301 207"/>
<path stroke-width="1" stroke="black" d="M 345 217 367 185"/>
<path stroke-width="1" stroke="black" d="M 345 217 343 99"/>
<path stroke-width="1" stroke="black" d="M 374 137 367 182"/>
<path stroke-width="1" stroke="black" d="M 374 137 347 69"/>
<path stroke-width="1" stroke="black" d="M 374 137 349 138"/>
<path stroke-width="1" stroke="black" d="M 413 130 374 137"/>
<path stroke-width="1" stroke="black" d="M 374 137 314 79"/>
<path stroke-width="1" stroke="black" d="M 374 137 327 134"/>
<path stroke-width="1" stroke="black" d="M 374 137 343 99"/>
<path stroke-width="1" stroke="black" d="M 374 137 314 154"/>
<path stroke-width="1" stroke="black" d="M 374 137 277 104"/>
<path stroke-width="1" stroke="black" d="M 374 137 299 95"/>
<path stroke-width="1" stroke="black" d="M 374 137 363 97"/>
<path stroke-width="1" stroke="black" d="M 374 137 290 86"/>
<path stroke-width="1" stroke="black" d="M 374 137 301 207"/>
<path stroke-width="1" stroke="black" d="M 374 137 367 185"/>
<path stroke-width="1" stroke="black" d="M 374 137 278 161"/>
<path stroke-width="1" stroke="black" d="M 374 137 413 130"/>
<path stroke-width="1" stroke="black" d="M 374 137 345 217"/>
<path stroke-width="1" stroke="black" d="M 374 137 360 160"/>
<path stroke-width="1" stroke="black" d="M 374 137 328 229"/>
<path stroke-width="1" stroke="black" d="M 374 137 261 155"/>
<path stroke-width="1" stroke="black" d="M 367 185 278 161"/>
<path stroke-width="1" stroke="black" d="M 367 185 401 199"/>
<path stroke-width="1" stroke="black" d="M 367 185 301 207"/>
<path stroke-width="1" stroke="black" d="M 367 185 290 86"/>
<path stroke-width="1" stroke="black" d="M 290 86 343 99"/>
<path stroke-width="1" stroke="black" d="M 290 86 314 154"/>
<path stroke-width="1" stroke="black" d="M 290 86 277 104"/>
<path stroke-width="1" stroke="black" d="M 290 86 299 95"/>
<path stroke-width="1" stroke="black" d="M 290 86 363 97"/>
<path stroke-width="1" stroke="black" d="M 290 86 273 46"/>
<path stroke-width="1" stroke="black" d="M 290 86 301 207"/>
<path stroke-width="1" stroke="black" d="M 290 86 327 134"/>
<path stroke-width="1" stroke="black" d="M 290 86 367 185"/>
<path stroke-width="1" stroke="black" d="M 290 86 374 137"/>
<path stroke-width="1" stroke="black" d="M 290 86 345 217"/>
<path stroke-width="1" stroke="black" d="M 290 86 360 160"/>
<path stroke-width="1" stroke="black" d="M 290 86 328 229"/>
<path stroke-width="1" stroke="black" d="M 290 86 261 155"/>
<path stroke-width="1" stroke="black" d="M 290 86 349 138"/>
<path stroke-width="1" stroke="black" d="M 290 86 347 69"/>
<path stroke-width="1" stroke="black" d="M 290 86 278 161"/>
<path stroke-width="1" stroke="black" d="M 290 86 314 79"/>
<path stroke-width="1" stroke="black" d="M 273 46 290 86"/>
<path stroke-width="1" stroke="black" d="M 363 97 225 174"/>
<path stroke-width="1" stroke="black" d="M 363 97 290 86"/>
<path stroke-width="1" stroke="black" d="M 363 97 301 207"/>
<path stroke-width="1" stroke="black" d="M 363 97 367 185"/>
<path stroke-width="1" stroke="black" d="M 363 97 278 161"/>
<path stroke-width="1" stroke="black" d="M 363 97 374 137"/>
<path stroke-width="1" stroke="black" d="M 363 97 345 217"/>
<path stroke-width="1" stroke="black" d="M 363 97 360 160"/>
<path stroke-width="1" stroke="black" d="M 363 97 328 229"/>
<path stroke-width="1" stroke="black" d="M 363 97 261 155"/>
<path stroke-width="1" stroke="black" d="M 363 97 349 138"/>
<path stroke-width="1" stroke="black" d="M 363 97 347 69"/>
<path stroke-width="1" stroke="black" d="M 363 97 367 182"/>
<path stroke-width="1" stroke="black" d="M 363 97 257 190"/>
<path stroke-width="1" stroke="black" d="M 363 97 352 200"/>
<path stroke-width="1" stroke="black" d="M 363 97 317 230"/>
<path stroke-width="1" stroke="black" d="M 363 97 245 153"/>
<path stroke-width="1" stroke="black" d="M 363 97 253 105"/>
<path stroke-width="1" stroke="black" d="M 290 86 367 182"/>
<path stroke-width="1" stroke="black" d="M 363 97 299 95"/>
<path stroke-width="1" stroke="black" d="M 290 86 257 190"/>
<path stroke-width="1" stroke="black" d="M 290 86 317 230"/>
<path stroke-width="1" stroke="black" d="M 301 207 347 69"/>
<path stroke-width="1" stroke="black" d="M 301 207 367 182"/>
<path stroke-width="1" stroke="black" d="M 301 207 257 190"/>
<path stroke-width="1" stroke="black" d="M 301 207 352 200"/>
<path stroke-width="1" stroke="black" d="M 301 207 317 230"/>
<path stroke-width="1" stroke="black" d="M 301 207 245 153"/>
<path stroke-width="1" stroke="black" d="M 301 207 253 105"/>
<path stroke-width="1" stroke="black" d="M 301 207 349 138"/>
<path stroke-width="1" stroke="black" d="M 301 207 225 174"/>
<path stroke-width="1" stroke="black" d="M 367 185 314 79"/>
<path stroke-width="1" stroke="black" d="M 367 185 327 134"/>
<path stroke-width="1" stroke="black" d="M 367 185 343 99"/>
<path stroke-width="1" stroke="black" d="M 367 185 314 154"/>
<path stroke-width="1" stroke="black" d="M 367 185 277 104"/>
<path stroke-width="1" stroke="black" d="M 367 185 299 95"/>
<path stroke-width="1" stroke="black" d="M 367 185 363 97"/>
<path stroke-width="1" stroke="black" d="M 401 199 367 185"/>
<path stroke-width="1" stroke="black" d="M 301 207 261 155"/>
<path stroke-width="1" stroke="black" d="M 301 207 328 229"/>
<path stroke-width="1" stroke="black" d="M 301 207 360 160"/>
<path stroke-width="1" stroke="black" d="M 290 86 245 153"/>
<path stroke-width="1" stroke="black" d="M 290 86 253 105"/>
<path stroke-width="1" stroke="black" d="M 290 86 225 174"/>
<path stroke-width="1" stroke="black" d="M 294 248 301 207"/>
<path stroke-width="1" stroke="black" d="M 301 207 314 79"/>
<path stroke-width="1" stroke="black" d="M 301 207 327 134"/>
<path stroke-width="1" stroke="black" d="M 301 207 343 99"/>
<path stroke-width="1" stroke="black" d="M 301 207 314 154"/>
<path stroke-width="1" stroke="black" d="M 301 207 277 104"/>
<path stroke-width="1" stroke="black" d="M 301 207 299 95"/>
<path stroke-width="1" stroke="black" d="M 301 207 363 97"/>
<path stroke-width="1" stroke="black" d="M 301 207 290 86"/>
<path stroke-width="1" stroke="black" d="M 301 207 294 248"/>
<path stroke-width="1" stroke="black" d="M 301 207 367 185"/>
<path stroke-width="1" stroke="black" d="M 301 207 278 161"/>
<path stroke-width="1" stroke="black" d="M 301 207 374 137"/>
<path stroke-width="1" stroke="black" d="M 301 207 345 217"/>
<path stroke-width="1" stroke="black" d="M 290 86 352 200"/>
<path stroke-width="1" stroke="black" d="M 225 174 20 206"/>
<circle cx="318" cy="42" r="7.0" style="fill:gray;stroke:black;stroke-width:1.0"/>
<circle cx="314" cy="79" r="7.0" style="fill:gray;stroke:black;stroke-width:1.0"/>
<circle cx="344" cy="121" r="7.0" style="fill:gray;stroke:black;stroke-width:1.0"/>
<circle cx="327" cy="134" r="7.0" style="fill:gray;stroke:black;stroke-width:1.0"/>
<circle cx="365" cy="73" r="7.0" style="fill:gray;stroke:black;stroke-width:1.0"/>
<circle cx="343" cy="99" r="7.0" style="fill:gray;stroke:black;stroke-width:1.0"/>
<circle cx="297" cy="158" r="7.0" style="fill:gray;stroke:black;stroke-width:1.0"/>
<circle cx="314" cy="154" r="7.0" style="fill:gray;stroke:black;stroke-width:1.0"/>
<circle cx="256" cy="75" r="7.0" style="fill:gray;stroke:black;stroke-width:1.0"/>
<circle cx="277" cy="104" r="7.0" style="fill:gray;stroke:black;stroke-width:1.0"/>
<circle cx="287" cy="57" r="7.0" style="fill:gray;stroke:black;stroke-width:1.0"/>
<circle cx="299" cy="95" r="7.0" style="fill:gray;stroke:black;stroke-width:1.0"/>
<circle cx="392" cy="74" r="7.0" style="fill:gray;stroke:black;stroke-width:1.0"/>
<circle cx="363" cy="97" r="7.0" style="fill:gray;stroke:black;stroke-width:1.0"/>
<circle cx="273" cy="46" r="7.0" style="fill:gray;stroke:black;stroke-width:1.0"/>
<circle cx="290" cy="86" r="7.0" style="fill:gray;stroke:black;stroke-width:1.0"/>
<circle cx="294" cy="248" r="7.0" style="fill:gray;stroke:black;stroke-width:1.0"/>
<circle cx="301" cy="207" r="7.0" style="fill:gray;stroke:black;stroke-width:1.0"/>
<circle cx="401" cy="199" r="7.0" style="fill:gray;stroke:black;stroke-width:1.0"/>
<circle cx="367" cy="185" r="7.0" style="fill:gray;stroke:black;stroke-width:1.0"/>
<circle cx="248" cy="162" r="7.0" style="fill:gray;stroke:black;stroke-width:1.0"/>
<circle cx="278" cy="161" r="7.0" style="fill:gray;stroke:black;stroke-width:1.0"/>
<circle cx="413" cy="130" r="7.0" style="fill:gray;stroke:black;stroke-width:1.0"/>
<circle cx="374" cy="137" r="7.0" style="fill:gray;stroke:black;stroke-width:1.0"/>
<circle cx="371" cy="256" r="7.0" style="fill:gray;stroke:black;stroke-width:1.0"/>
<circle cx="345" cy="217" r="7.0" style="fill:gray;stroke:black;stroke-width:1.0"/>
<circle cx="399" cy="164" r="7.0" style="fill:gray;stroke:black;stroke-width:1.0"/>
<circle cx="360" cy="160" r="7.0" style="fill:gray;stroke:black;stroke-width:1.0"/>
<circle cx="344" cy="282" r="7.0" style="fill:gray;stroke:black;stroke-width:1.0"/>
<circle cx="328" cy="229" r="7.0" style="fill:gray;stroke:black;stroke-width:1.0"/>
<circle cx="218" cy="152" r="7.0" style="fill:gray;stroke:black;stroke-width:1.0"/>
<circle cx="261" cy="155" r="7.0" style="fill:gray;stroke:black;stroke-width:1.0"/>
<circle cx="390" cy="129" r="7.0" style="fill:gray;stroke:black;stroke-width:1.0"/>
<circle cx="349" cy="138" r="7.0" style="fill:gray;stroke:black;stroke-width:1.0"/>
<circle cx="383" cy="20" r="7.0" style="fill:gray;stroke:black;stroke-width:1.0"/>
<circle cx="347" cy="69" r="7.0" style="fill:gray;stroke:black;stroke-width:1.0"/>
<circle cx="420" cy="202" r="7.0" style="fill:gray;stroke:black;stroke-width:1.0"/>
<circle cx="367" cy="182" r="7.0" style="fill:gray;stroke:black;stroke-width:1.0"/>
<circle cx="202" cy="210" r="7.0" style="fill:gray;stroke:black;stroke-width:1.0"/>
<circle cx="257" cy="190" r="7.0" style="fill:gray;stroke:black;stroke-width:1.0"/>
<circle cx="405" cy="237" r="7.0" style="fill:gray;stroke:black;stroke-width:1.0"/>
<circle cx="352" cy="200" r="7.0" style="fill:gray;stroke:black;stroke-width:1.0"/>
<circle cx="326" cy="320" r="7.0" style="fill:gray;stroke:black;stroke-width:1.0"/>
<circle cx="317" cy="230" r="7.0" style="fill:gray;stroke:black;stroke-width:1.0"/>
<circle cx="161" cy="157" r="7.0" style="fill:gray;stroke:black;stroke-width:1.0"/>
<circle cx="245" cy="153" r="7.0" style="fill:gray;stroke:black;stroke-width:1.0"/>
<circle cx="173" cy="59" r="7.0" style="fill:gray;stroke:black;stroke-width:1.0"/>
<circle cx="253" cy="105" r="7.0" style="fill:gray;stroke:black;stroke-width:1.0"/>
<circle cx="20" cy="206" r="7.0" style="fill:gray;stroke:black;stroke-width:1.0"/>
<circle cx="225" cy="174" r="7.0" style="fill:gray;stroke:black;stroke-width:1.0"/>
</svg>
