<svg width="440" height="340" xmlns="http://www.w3.org/2000/svg">
<path stroke-width="1" stroke="black" d="M 219 242 215 231"/>
<path stroke-width="1" stroke="black" d="M 357 234 316 223"/>
<path stroke-width="1" stroke="black" d="M 357 234 364 236"/>
<path stroke-width="1" stroke="black" d="M 357 234 385 237"/>
<path stroke-width="1" stroke="black" d="M 364 236 357 234"/>
<path stroke-width="1" stroke="black" d="M 385 237 357 234"/>
<path stroke-width="1" stroke="black" d="M 385 237 392 233"/>
<path stroke-width="1" stroke="black" d="M 385 237 383 264"/>
<path stroke-width="1" stroke="black" d="M 392 233 385 237"/>
<path stroke-width="1" stroke="black" d="M 383 264 385 237"/>
<path stroke-width="1" stroke="black" d="M 323 231 316 223"/>
<path stroke-width="1" stroke="black" d="M 383 264 388 263"/>
<path stroke-width="1" stroke="black" d="M 388 263 383 264"/>
<path stroke-width="1" stroke="black" d="M 376 290 383 264"/>
<path stroke-width="1" stroke="black" d="M 376 290 370 291"/>
<path stroke-width="1" stroke="black" d="M 376 290 387 313"/>
<path stroke-width="1" stroke="black" d="M 370 291 376 290"/>
<path stroke-width="1" stroke="black" d="M 387 313 376 290"/>
<path stroke-width="1" stroke="black" d="M 387 313 383 320"/>
<path stroke-width="1" stroke="black" d="M 387 313 408 311"/>
<path stroke-width="1" stroke="black" d="M 383 320 387 313"/>
<path stroke-width="1" stroke="black" d="M 383 264 376 290"/>
<path stroke-width="1" stroke="black" d="M 316 223 357 234"/>
<path stroke-width="1" stroke="black" d="M 316 223 323 231"/>
<path stroke-width="1" stroke="black" d="M 316 223 269 200"/>
<path stroke-width="1" stroke="black" d="M 20 20 30 27"/>
<path stroke-width="1" stroke="black" d="M 64 54 30 27"/>
<path stroke-width="1" stroke="black" d="M 64 54 56 47"/>
<path stroke-width="1" stroke="black" d="M 64 54 109 87"/>
<path stroke-width="1" stroke="black" d="M 56 47 64 54"/>
<path stroke-width="1" stroke="black" d="M 109 87 64 54"/>
<path stroke-width="1" stroke="black" d="M 109 87 102 84"/>
<path stroke-width="1" stroke="black" d="M 109 87 162 125"/>
<path stroke-width="1" stroke="black" d="M 102 84 109 87"/>
<path stroke-width="1" stroke="black" d="M 162 125 109 87"/>
<path stroke-width="1" stroke="black" d="M 162 125 157 121"/>
<path stroke-width="1" stroke="black" d="M 162 125 216 162"/>
<path stroke-width="1" stroke="black" d="M 157 121 162 125"/>
<path stroke-width="1" stroke="black" d="M 216 162 162 125"/>
<path stroke-width="1" stroke="black" d="M 216 162 221 168"/>
<path stroke-width="1" stroke="black" d="M 216 162 269 200"/>
<path stroke-width="1" stroke="black" d="M 221 168 216 162"/>
<path stroke-width="1" stroke="black" d="M 269 200 216 162"/>
<path stroke-width="1" stroke="black" d="M 269 200 274 206"/>
<path stroke-width="1" stroke="black" d="M 269 200 316 223"/>
<path stroke-width="1" stroke="black" d="M 274 206 269 200"/>
<path stroke-width="1" stroke="black" d="M 408 311 387 313"/>
<path stroke-width="1" stroke="black" d="M 408 311 412 319"/>
<path stroke-width="1" stroke="black" d="M 408 311 411 279"/>
<path stroke-width="1" stroke="black" d="M 412 319 408 311"/>
<path stroke-width="1" stroke="black" d="M 163 181 155 181"/>
<path stroke-width="1" stroke="black" d="M 163 181 167 159"/>
<path stroke-width="1" stroke="black" d="M 155 181 163 181"/>
<path stroke-width="1" stroke="black" d="M 167 159 163 181"/>
<path stroke-width="1" stroke="black" d="M 167 159 168 154"/>
<path stroke-width="1" stroke="black" d="M 167 159 178 147"/>
<path stroke-width="1" stroke="black" d="M 168 154 167 159"/>
<path stroke-width="1" stroke="black" d="M 178 147 167 159"/>
<path stroke-width="1" stroke="black" d="M 178 147 177 138"/>
<path stroke-width="1" stroke="black" d="M 178 147 192 169"/>
<path stroke-width="1" stroke="black" d="M 177 138 178 147"/>
<path stroke-width="1" stroke="black" d="M 192 169 178 147"/>
<path stroke-width="1" stroke="black" d="M 192 169 192 162"/>
<path stroke-width="1" stroke="black" d="M 192 169 203 203"/>
<path stroke-width="1" stroke="black" d="M 192 162 192 169"/>
<path stroke-width="1" stroke="black" d="M 203 203 192 169"/>
<path stroke-width="1" stroke="black" d="M 203 203 202 208"/>
<path stroke-width="1" stroke="black" d="M 203 203 215 231"/>
<path stroke-width="1" stroke="black" d="M 202 208 203 203"/>
<path stroke-width="1" stroke="black" d="M 215 231 203 203"/>
<path stroke-width="1" stroke="black" d="M 215 231 219 242"/>
<path stroke-width="1" stroke="black" d="M 163 181 193 194"/>
<path stroke-width="1" stroke="black" d="M 30 27 64 54"/>
<path stroke-width="1" stroke="black" d="M 185 196 193 194"/>
<path stroke-width="1" stroke="black" d="M 193 194 185 196"/>
<path stroke-width="1" stroke="black" d="M 411 279 408 311"/>
<path stroke-width="1" stroke="black" d="M 411 279 420 282"/>
<path stroke-width="1" stroke="black" d="M 411 279 381 246"/>
<path stroke-width="1" stroke="black" d="M 420 282 411 279"/>
<path stroke-width="1" stroke="black" d="M 381 246 411 279"/>
<path stroke-width="1" stroke="black" d="M 381 246 390 246"/>
<path stroke-width="1" stroke="black" d="M 381 246 337 223"/>
<path stroke-width="1" stroke="black" d="M 390 246 381 246"/>
<path stroke-width="1" stroke="black" d="M 337 223 381 246"/>
<path stroke-width="1" stroke="black" d="M 337 223 341 218"/>
<path stroke-width="1" stroke="black" d="M 337 223 288 206"/>
<path stroke-width="1" stroke="black" d="M 341 218 337 223"/>
<path stroke-width="1" stroke="black" d="M 288 206 337 223"/>
<path stroke-width="1" stroke="black" d="M 288 206 286 199"/>
<path stroke-width="1" stroke="black" d="M 288 206 238 199"/>
<path stroke-width="1" stroke="black" d="M 286 199 288 206"/>
<path stroke-width="1" stroke="black" d="M 238 199 288 206"/>
<path stroke-width="1" stroke="black" d="M 238 199 232 197"/>
<path stroke-width="1" stroke="black" d="M 238 199 193 194"/>
<path stroke-width="1" stroke="black" d="M 232 197 238 199"/>
<path stroke-width="1" stroke="black" d="M 193 194 238 199"/>
<path stroke-width="1" stroke="black" d="M 193 194 163 181"/>
<path stroke-width="1" stroke="black" d="M 30 27 20 20"/>
<circle cx="219" cy="242" r="7.0" style="fill:gray;stroke:black;stroke-width:1.0"/>
<circle cx="215" cy="231" r="7.0" style="fill:gray;stroke:black;stroke-width:1.0"/>
<circle cx="202" cy="208" r="7.0" style="fill:gray;stroke:black;stroke-width:1.0"/>
<circle cx="203" cy="203" r="7.0" style="fill:gray;stroke:black;stroke-width:1.0"/>
<circle cx="192" cy="162" r="7.0" style="fill:gray;stroke:black;stroke-width:1.0"/>
<circle cx="192" cy="169" r="7.0" style="fill:gray;stroke:black;stroke-width:1.0"/>
<circle cx="177" cy="138" r="7.0" style="fill:gray;stroke:black;stroke-width:1.0"/>
<circle cx="178" cy="147" r="7.0" style="fill:gray;stroke:black;stroke-width:1.0"/>
<circle cx="168" cy="154" r="7.0" style="fill:gray;stroke:black;stroke-width:1.0"/>
<circle cx="167" cy="159" r="7.0" style="fill:gray;stroke:black;stroke-width:1.0"/>
<circle cx="155" cy="181" r="7.0" style="fill:gray;stroke:black;stroke-width:1.0"/>
<circle cx="163" cy="181" r="7.0" style="fill:gray;stroke:black;stroke-width:1.0"/>
<circle cx="185" cy="196" r="7.0" style="fill:gray;stroke:black;stroke-width:1.0"/>
<circle cx="193" cy="194" r="7.0" style="fill:gray;stroke:black;stroke-width:1.0"/>
<circle cx="232" cy="197" r="7.0" style="fill:gray;stroke:black;stroke-width:1.0"/>
<circle cx="238" cy="199" r="7.0" style="fill:gray;stroke:black;stroke-width:1.0"/>
<circle cx="286" cy="199" r="7.0" style="fill:gray;stroke:black;stroke-width:1.0"/>
<circle cx="288" cy="206" r="7.0" style="fill:gray;stroke:black;stroke-width:1.0"/>
<circle cx="341" cy="218" r="7.0" style="fill:gray;stroke:black;stroke-width:1.0"/>
<circle cx="337" cy="223" r="7.0" style="fill:gray;stroke:black;stroke-width:1.0"/>
<circle cx="390" cy="246" r="7.0" style="fill:gray;stroke:black;stroke-width:1.0"/>
<circle cx="381" cy="246" r="7.0" style="fill:gray;stroke:black;stroke-width:1.0"/>
<circle cx="420" cy="282" r="7.0" style="fill:gray;stroke:black;stroke-width:1.0"/>
<circle cx="411" cy="279" r="7.0" style="fill:gray;stroke:black;stroke-width:1.0"/>
<circle cx="412" cy="319" r="7.0" style="fill:gray;stroke:black;stroke-width:1.0"/>
<circle cx="408" cy="311" r="7.0" style="fill:gray;stroke:black;stroke-width:1.0"/>
<circle cx="383" cy="320" r="7.0" style="fill:gray;stroke:black;stroke-width:1.0"/>
<circle cx="387" cy="313" r="7.0" style="fill:gray;stroke:black;stroke-width:1.0"/>
<circle cx="370" cy="291" r="7.0" style="fill:gray;stroke:black;stroke-width:1.0"/>
<circle cx="376" cy="290" r="7.0" style="fill:gray;stroke:black;stroke-width:1.0"/>
<circle cx="388" cy="263" r="7.0" style="fill:gray;stroke:black;stroke-width:1.0"/>
<circle cx="383" cy="264" r="7.0" style="fill:gray;stroke:black;stroke-width:1.0"/>
<circle cx="392" cy="233" r="7.0" style="fill:gray;stroke:black;stroke-width:1.0"/>
<circle cx="385" cy="237" r="7.0" style="fill:gray;stroke:black;stroke-width:1.0"/>
<circle cx="364" cy="236" r="7.0" style="fill:gray;stroke:black;stroke-width:1.0"/>
<circle cx="357" cy="234" r="7.0" style="fill:gray;stroke:black;stroke-width:1.0"/>
<circle cx="323" cy="231" r="7.0" style="fill:gray;stroke:black;stroke-width:1.0"/>
<circle cx="316" cy="223" r="7.0" style="fill:gray;stroke:black;stroke-width:1.0"/>
<circle cx="274" cy="206" r="7.0" style="fill:gray;stroke:black;stroke-width:1.0"/>
<circle cx="269" cy="200" r="7.0" style="fill:gray;stroke:black;stroke-width:1.0"/>
<circle cx="221" cy="168" r="7.0" style="fill:gray;stroke:black;stroke-width:1.0"/>
<circle cx="216" cy="162" r="7.0" style="fill:gray;stroke:black;stroke-width:1.0"/>
<circle cx="157" cy="121" r="7.0" style="fill:gray;stroke:black;stroke-width:1.0"/>
<circle cx="162" cy="125" r="7.0" style="fill:gray;stroke:black;stroke-width:1.0"/>
<circle cx="102" cy="84" r="7.0" style="fill:gray;stroke:black;stroke-width:1.0"/>
<circle cx="109" cy="87" r="7.0" style="fill:gray;stroke:black;stroke-width:1.0"/>
<circle cx="56" cy="47" r="7.0" style="fill:gray;stroke:black;stroke-width:1.0"/>
<circle cx="64" cy="54" r="7.0" style="fill:gray;stroke:black;stroke-width:1.0"/>
<circle cx="20" cy="20" r="7.0" style="fill:gray;stroke:black;stroke-width:1.0"/>
<circle cx="30" cy="27" r="7.0" style="fill:gray;stroke:black;stroke-width:1.0"/>
</svg>
