<svg width="440" height="340" xmlns="http://www.w3.org/2000/svg">
<path stroke-width="8.857142857142858" stroke="black" d="M 20 244 31 238"/>
<path stroke-width="0.5" stroke="black" d="M 212 27 168 35"/>
<path stroke-width="20.0" stroke="black" d="M 212 27 217 20"/>
<path stroke-width="0.5" stroke="black" d="M 212 27 246 45"/>
<path stroke-width="20.0" stroke="black" d="M 217 20 212 27"/>
<path stroke-width="0.5" stroke="black" d="M 246 45 212 27"/>
<path stroke-width="20.0" stroke="black" d="M 246 45 250 40"/>
<path stroke-width="0.5" stroke="black" d="M 246 45 270 74"/>
<path stroke-width="20.0" stroke="black" d="M 250 40 246 45"/>
<path stroke-width="0.5" stroke="black" d="M 270 74 246 45"/>
<path stroke-width="20.0" stroke="black" d="M 167 26 168 35"/>
<path stroke-width="20.0" stroke="black" d="M 270 74 264 77"/>
<path stroke-width="20.0" stroke="black" d="M 264 77 270 74"/>
<path stroke-width="0.5" stroke="black" d="M 298 102 270 74"/>
<path stroke-width="20.0" stroke="black" d="M 298 102 291 106"/>
<path stroke-width="0.5" stroke="black" d="M 298 102 338 123"/>
<path stroke-width="20.0" stroke="black" d="M 291 106 298 102"/>
<path stroke-width="0.5" stroke="black" d="M 338 123 298 102"/>
<path stroke-width="20.0" stroke="black" d="M 338 123 338 130"/>
<path stroke-width="0.5" stroke="black" d="M 338 123 380 125"/>
<path stroke-width="20.0" stroke="black" d="M 338 130 338 123"/>
<path stroke-width="0.5" stroke="black" d="M 270 74 298 102"/>
<path stroke-width="0.5" stroke="black" d="M 168 35 212 27"/>
<path stroke-width="20.0" stroke="black" d="M 168 35 167 26"/>
<path stroke-width="0.5" stroke="black" d="M 168 35 138 69"/>
<path stroke-width="14.428571428571429" stroke="black" d="M 268 320 259 309"/>
<path stroke-width="0.5" stroke="black" d="M 226 273 259 309"/>
<path stroke-width="20.0" stroke="black" d="M 226 273 231 282"/>
<path stroke-width="0.5" stroke="black" d="M 226 273 191 227"/>
<path stroke-width="20.0" stroke="black" d="M 231 282 226 273"/>
<path stroke-width="0.5" stroke="black" d="M 191 227 226 273"/>
<path stroke-width="20.0" stroke="black" d="M 191 227 187 232"/>
<path stroke-width="0.5" stroke="black" d="M 191 227 156 171"/>
<path stroke-width="20.0" stroke="black" d="M 187 232 191 227"/>
<path stroke-width="0.5" stroke="black" d="M 156 171 191 227"/>
<path stroke-width="20.0" stroke="black" d="M 156 171 149 171"/>
<path stroke-width="0.5" stroke="black" d="M 156 171 138 118"/>
<path stroke-width="20.0" stroke="black" d="M 149 171 156 171"/>
<path stroke-width="0.5" stroke="black" d="M 138 118 156 171"/>
<path stroke-width="20.0" stroke="black" d="M 138 118 126 113"/>
<path stroke-width="0.5" stroke="black" d="M 138 118 138 69"/>
<path stroke-width="20.0" stroke="black" d="M 126 113 138 118"/>
<path stroke-width="0.5" stroke="black" d="M 138 69 138 118"/>
<path stroke-width="20.0" stroke="black" d="M 138 69 131 61"/>
<path stroke-width="0.5" stroke="black" d="M 138 69 168 35"/>
<path stroke-width="20.0" stroke="black" d="M 131 61 138 69"/>
<path stroke-width="0.5" stroke="black" d="M 380 125 338 123"/>
<path stroke-width="20.0" stroke="black" d="M 380 125 387 130"/>
<path stroke-width="0.5" stroke="black" d="M 380 125 409 110"/>
<path stroke-width="20.0" stroke="black" d="M 387 130 380 125"/>
<path stroke-width="20.0" stroke="black" d="M 224 154 221 149"/>
<path stroke-width="0.5" stroke="black" d="M 224 154 189 173"/>
<path stroke-width="20.0" stroke="black" d="M 221 149 224 154"/>
<path stroke-width="0.5" stroke="black" d="M 189 173 224 154"/>
<path stroke-width="20.0" stroke="black" d="M 189 173 196 171"/>
<path stroke-width="0.5" stroke="black" d="M 189 173 148 191"/>
<path stroke-width="20.0" stroke="black" d="M 196 171 189 173"/>
<path stroke-width="0.5" stroke="black" d="M 148 191 189 173"/>
<path stroke-width="20.0" stroke="black" d="M 148 191 154 193"/>
<path stroke-width="0.5" stroke="black" d="M 148 191 104 206"/>
<path stroke-width="20.0" stroke="black" d="M 154 193 148 191"/>
<path stroke-width="0.5" stroke="black" d="M 104 206 148 191"/>
<path stroke-width="20.0" stroke="black" d="M 104 206 106 210"/>
<path stroke-width="0.5" stroke="black" d="M 104 206 62 221"/>
<path stroke-width="20.0" stroke="black" d="M 106 210 104 206"/>
<path stroke-width="0.5" stroke="black" d="M 62 221 104 206"/>
<path stroke-width="20.0" stroke="black" d="M 62 221 53 222"/>
<path stroke-width="0.5" stroke="black" d="M 62 221 31 238"/>
<path stroke-width="20.0" stroke="black" d="M 53 222 62 221"/>
<path stroke-width="0.5" stroke="black" d="M 31 238 62 221"/>
<path stroke-width="8.857142857142858" stroke="black" d="M 31 238 20 244"/>
<path stroke-width="0.5" stroke="black" d="M 224 154 262 140"/>
<path stroke-width="0.5" stroke="black" d="M 259 309 226 273"/>
<path stroke-width="20.0" stroke="black" d="M 266 145 262 140"/>
<path stroke-width="20.0" stroke="black" d="M 262 140 266 145"/>
<path stroke-width="0.5" stroke="black" d="M 409 110 380 125"/>
<path stroke-width="20.0" stroke="black" d="M 409 110 420 109"/>
<path stroke-width="0.5" stroke="black" d="M 409 110 394 91"/>
<path stroke-width="20.0" stroke="black" d="M 420 109 409 110"/>
<path stroke-width="0.5" stroke="black" d="M 394 91 409 110"/>
<path stroke-width="20.0" stroke="black" d="M 394 91 402 87"/>
<path stroke-width="0.5" stroke="black" d="M 394 91 359 91"/>
<path stroke-width="20.0" stroke="black" d="M 402 87 394 91"/>
<path stroke-width="0.5" stroke="black" d="M 359 91 394 91"/>
<path stroke-width="20.0" stroke="black" d="M 359 91 354 88"/>
<path stroke-width="0.5" stroke="black" d="M 359 91 321 97"/>
<path stroke-width="20.0" stroke="black" d="M 354 88 359 91"/>
<path stroke-width="0.5" stroke="black" d="M 321 97 359 91"/>
<path stroke-width="20.0" stroke="black" d="M 321 97 317 91"/>
<path stroke-width="0.5" stroke="black" d="M 321 97 294 120"/>
<path stroke-width="20.0" stroke="black" d="M 317 91 321 97"/>
<path stroke-width="0.5" stroke="black" d="M 294 120 321 97"/>
<path stroke-width="20.0" stroke="black" d="M 294 120 301 120"/>
<path stroke-width="0.5" stroke="black" d="M 294 120 262 140"/>
<path stroke-width="20.0" stroke="black" d="M 301 120 294 120"/>
<path stroke-width="0.5" stroke="black" d="M 262 140 294 120"/>
<path stroke-width="0.5" stroke="black" d="M 262 140 224 154"/>
<path stroke-width="14.428571428571429" stroke="black" d="M 259 309 268 320"/>
<circle cx="20" cy="244" r="7.0" style="fill:blue;stroke:black;stroke-width:1.0"/>
<circle cx="31" cy="238" r="7.0" style="fill:blue;stroke:black;stroke-width:1.0"/>
<circle cx="53" cy="222" r="7.0" style="fill:blue;stroke:black;stroke-width:1.0"/>
<circle cx="62" cy="221" r="7.0" style="fill:blue;stroke:black;stroke-width:1.0"/>
<circle cx="106" cy="210" r="7.0" style="fill:red;stroke:black;stroke-width:1.0"/>
<circle cx="104" cy="206" r="7.0" style="fill:red;stroke:black;stroke-width:1.0"/>
<circle cx="154" cy="193" r="7.0" style="fill:red;stroke:black;stroke-width:1.0"/>
<circle cx="148" cy="191" r="7.0" style="fill:red;stroke:black;stroke-width:1.0"/>
<circle cx="196" cy="171" r="7.0" style="fill:green;stroke:black;stroke-width:1.0"/>
<circle cx="189" cy="173" r="7.0" style="fill:green;stroke:black;stroke-width:1.0"/>
<circle cx="221" cy="149" r="7.0" style="fill:green;stroke:black;stroke-width:1.0"/>
<circle cx="224" cy="154" r="7.0" style="fill:green;stroke:black;stroke-width:1.0"/>
<circle cx="266" cy="145" r="7.0" style="fill:orange;stroke:black;stroke-width:1.0"/>
<circle cx="262" cy="140" r="7.0" style="fill:orange;stroke:black;stroke-width:1.0"/>
<circle cx="301" cy="120" r="7.0" style="fill:orange;stroke:black;stroke-width:1.0"/>
<circle cx="294" cy="120" r="7.0" style="fill:orange;stroke:black;stroke-width:1.0"/>
<circle cx="317" cy="91" r="7.0" style="fill:purple;stroke:black;stroke-width:1.0"/>
<circle cx="321" cy="97" r="7.0" style="fill:purple;stroke:black;stroke-width:1.0"/>
<circle cx="354" cy="88" r="7.0" style="fill:purple;stroke:black;stroke-width:1.0"/>
<circle cx="359" cy="91" r="7.0" style="fill:purple;stroke:black;stroke-width:1.0"/>
<circle cx="402" cy="87" r="7.0" style="fill:yellow;stroke:black;stroke-width:1.0"/>
<circle cx="394" cy="91" r="7.0" style="fill:yellow;stroke:black;stroke-width:1.0"/>
<circle cx="420" cy="109" r="7.0" style="fill:yellow;stroke:black;stroke-width:1.0"/>
<circle cx="409" cy="110" r="7.0" style="fill:yellow;stroke:black;stroke-width:1.0"/>
<circle cx="387" cy="130" r="7.0" style="fill:fuchsia;stroke:black;stroke-width:1.0"/>
<circle cx="380" cy="125" r="7.0" style="fill:fuchsia;stroke:black;stroke-width:1.0"/>
<circle cx="338" cy="130" r="7.0" style="fill:fuchsia;stroke:black;stroke-width:1.0"/>
<circle cx="338" cy="123" r="7.0" style="fill:fuchsia;stroke:black;stroke-width:1.0"/>
<circle cx="291" cy="106" r="7.0" style="fill:olive;stroke:black;stroke-width:1.0"/>
<circle cx="298" cy="102" r="7.0" style="fill:olive;stroke:black;stroke-width:1.0"/>
<circle cx="264" cy="77" r="7.0" style="fill:olive;stroke:black;stroke-width:1.0"/>
<circle cx="270" cy="74" r="7.0" style="fill:olive;stroke:black;stroke-width:1.0"/>
<circle cx="250" cy="40" r="7.0" style="fill:aqua;stroke:black;stroke-width:1.0"/>
<circle cx="246" cy="45" r="7.0" style="fill:aqua;stroke:black;stroke-width:1.0"/>
<circle cx="217" cy="20" r="7.0" style="fill:aqua;stroke:black;stroke-width:1.0"/>
<circle cx="212" cy="27" r="7.0" style="fill:aqua;stroke:black;stroke-width:1.0"/>
<circle cx="167" cy="26" r="7.0" style="fill:brown;stroke:black;stroke-width:1.0"/>
<circle cx="168" cy="35" r="7.0" style="fill:brown;stroke:black;stroke-width:1.0"/>
<circle cx="131" cy="61" r="7.0" style="fill:brown;stroke:black;stroke-width:1.0"/>
<circle cx="138" cy="69" r="7.0" style="fill:brown;stroke:black;stroke-width:1.0"/>
<circle cx="126" cy="113" r="7.0" style="fill:blue;stroke:black;stroke-width:1.0"/>
<circle cx="138" cy="118" r="7.0" style="fill:blue;stroke:black;stroke-width:1.0"/>
<circle cx="149" cy="171" r="7.0" style="fill:blue;stroke:black;stroke-width:1.0"/>
<circle cx="156" cy="171" r="7.0" style="fill:blue;stroke:black;stroke-width:1.0"/>
<circle cx="187" cy="232" r="7.0" style="fill:green;stroke:black;stroke-width:1.0"/>
<circle cx="191" cy="227" r="7.0" style="fill:green;stroke:black;stroke-width:1.0"/>
<circle cx="231" cy="282" r="7.0" style="fill:red;stroke:black;stroke-width:1.0"/>
<circle cx="226" cy="273" r="7.0" style="fill:red;stroke:black;stroke-width:1.0"/>
<circle cx="268" cy="320" r="7.0" style="fill:red;stroke:black;stroke-width:1.0"/>
<circle cx="259" cy="309" r="7.0" style="fill:red;stroke:black;stroke-width:1.0"/>
</svg>
