<svg width="440" height="340" xmlns="http://www.w3.org/2000/svg">
<path stroke-width="1" stroke="black" d="M 155 151 151 158"/>
<path stroke-width="1" stroke="black" d="M 275 33 238 28"/>
<path stroke-width="1" stroke="black" d="M 275 33 286 28"/>
<path stroke-width="1" stroke="black" d="M 275 33 252 67"/>
<path stroke-width="1" stroke="black" d="M 286 28 275 33"/>
<path stroke-width="1" stroke="black" d="M 252 67 275 33"/>
<path stroke-width="1" stroke="black" d="M 252 67 258 55"/>
<path stroke-width="1" stroke="black" d="M 252 67 218 122"/>
<path stroke-width="1" stroke="black" d="M 258 55 252 67"/>
<path stroke-width="1" stroke="black" d="M 218 122 252 67"/>
<path stroke-width="1" stroke="black" d="M 248 29 238 28"/>
<path stroke-width="1" stroke="black" d="M 218 122 219 111"/>
<path stroke-width="1" stroke="black" d="M 219 111 218 122"/>
<path stroke-width="1" stroke="black" d="M 186 193 218 122"/>
<path stroke-width="1" stroke="black" d="M 186 193 181 195"/>
<path stroke-width="1" stroke="black" d="M 186 193 158 259"/>
<path stroke-width="1" stroke="black" d="M 181 195 186 193"/>
<path stroke-width="1" stroke="black" d="M 158 259 186 193"/>
<path stroke-width="1" stroke="black" d="M 158 259 154 274"/>
<path stroke-width="1" stroke="black" d="M 158 259 133 306"/>
<path stroke-width="1" stroke="black" d="M 154 274 158 259"/>
<path stroke-width="1" stroke="black" d="M 218 122 186 193"/>
<path stroke-width="1" stroke="black" d="M 238 28 275 33"/>
<path stroke-width="1" stroke="black" d="M 238 28 248 29"/>
<path stroke-width="1" stroke="black" d="M 238 28 186 25"/>
<path stroke-width="1" stroke="black" d="M 46 113 41 104"/>
<path stroke-width="1" stroke="black" d="M 26 75 41 104"/>
<path stroke-width="1" stroke="black" d="M 26 75 20 75"/>
<path stroke-width="1" stroke="black" d="M 26 75 31 41"/>
<path stroke-width="1" stroke="black" d="M 20 75 26 75"/>
<path stroke-width="1" stroke="black" d="M 31 41 26 75"/>
<path stroke-width="1" stroke="black" d="M 31 41 20 38"/>
<path stroke-width="1" stroke="black" d="M 31 41 74 29"/>
<path stroke-width="1" stroke="black" d="M 20 38 31 41"/>
<path stroke-width="1" stroke="black" d="M 74 29 31 41"/>
<path stroke-width="1" stroke="black" d="M 74 29 64 27"/>
<path stroke-width="1" stroke="black" d="M 74 29 129 25"/>
<path stroke-width="1" stroke="black" d="M 64 27 74 29"/>
<path stroke-width="1" stroke="black" d="M 129 25 74 29"/>
<path stroke-width="1" stroke="black" d="M 129 25 124 20"/>
<path stroke-width="1" stroke="black" d="M 129 25 186 25"/>
<path stroke-width="1" stroke="black" d="M 124 20 129 25"/>
<path stroke-width="1" stroke="black" d="M 186 25 129 25"/>
<path stroke-width="1" stroke="black" d="M 186 25 194 24"/>
<path stroke-width="1" stroke="black" d="M 186 25 238 28"/>
<path stroke-width="1" stroke="black" d="M 194 24 186 25"/>
<path stroke-width="1" stroke="black" d="M 133 306 158 259"/>
<path stroke-width="1" stroke="black" d="M 133 306 126 320"/>
<path stroke-width="1" stroke="black" d="M 133 306 146 272"/>
<path stroke-width="1" stroke="black" d="M 126 320 133 306"/>
<path stroke-width="1" stroke="black" d="M 377 69 388 63"/>
<path stroke-width="1" stroke="black" d="M 377 69 326 96"/>
<path stroke-width="1" stroke="black" d="M 388 63 377 69"/>
<path stroke-width="1" stroke="black" d="M 326 96 377 69"/>
<path stroke-width="1" stroke="black" d="M 326 96 334 94"/>
<path stroke-width="1" stroke="black" d="M 326 96 267 125"/>
<path stroke-width="1" stroke="black" d="M 334 94 326 96"/>
<path stroke-width="1" stroke="black" d="M 267 125 326 96"/>
<path stroke-width="1" stroke="black" d="M 267 125 262 130"/>
<path stroke-width="1" stroke="black" d="M 267 125 209 149"/>
<path stroke-width="1" stroke="black" d="M 262 130 267 125"/>
<path stroke-width="1" stroke="black" d="M 209 149 267 125"/>
<path stroke-width="1" stroke="black" d="M 209 149 200 153"/>
<path stroke-width="1" stroke="black" d="M 209 149 164 167"/>
<path stroke-width="1" stroke="black" d="M 200 153 209 149"/>
<path stroke-width="1" stroke="black" d="M 164 167 209 149"/>
<path stroke-width="1" stroke="black" d="M 164 167 152 172"/>
<path stroke-width="1" stroke="black" d="M 164 167 151 158"/>
<path stroke-width="1" stroke="black" d="M 152 172 164 167"/>
<path stroke-width="1" stroke="black" d="M 151 158 164 167"/>
<path stroke-width="1" stroke="black" d="M 151 158 155 151"/>
<path stroke-width="1" stroke="black" d="M 377 69 406 59"/>
<path stroke-width="1" stroke="black" d="M 41 104 26 75"/>
<path stroke-width="1" stroke="black" d="M 420 51 406 59"/>
<path stroke-width="1" stroke="black" d="M 406 59 420 51"/>
<path stroke-width="1" stroke="black" d="M 146 272 133 306"/>
<path stroke-width="1" stroke="black" d="M 146 272 135 282"/>
<path stroke-width="1" stroke="black" d="M 146 272 188 224"/>
<path stroke-width="1" stroke="black" d="M 135 282 146 272"/>
<path stroke-width="1" stroke="black" d="M 188 224 146 272"/>
<path stroke-width="1" stroke="black" d="M 188 224 178 226"/>
<path stroke-width="1" stroke="black" d="M 188 224 246 172"/>
<path stroke-width="1" stroke="black" d="M 178 226 188 224"/>
<path stroke-width="1" stroke="black" d="M 246 172 188 224"/>
<path stroke-width="1" stroke="black" d="M 246 172 240 170"/>
<path stroke-width="1" stroke="black" d="M 246 172 307 127"/>
<path stroke-width="1" stroke="black" d="M 240 170 246 172"/>
<path stroke-width="1" stroke="black" d="M 307 127 246 172"/>
<path stroke-width="1" stroke="black" d="M 307 127 313 119"/>
<path stroke-width="1" stroke="black" d="M 307 127 366 87"/>
<path stroke-width="1" stroke="black" d="M 313 119 307 127"/>
<path stroke-width="1" stroke="black" d="M 366 87 307 127"/>
<path stroke-width="1" stroke="black" d="M 366 87 377 83"/>
<path stroke-width="1" stroke="black" d="M 366 87 406 59"/>
<path stroke-width="1" stroke="black" d="M 377 83 366 87"/>
<path stroke-width="1" stroke="black" d="M 406 59 366 87"/>
<path stroke-width="1" stroke="black" d="M 406 59 377 69"/>
<path stroke-width="1" stroke="black" d="M 41 104 46 113"/>
<circle cx="155" cy="151" r="7.0" style="fill:blue;stroke:black;stroke-width:1.0"/>
<circle cx="151" cy="158" r="7.0" style="fill:blue;stroke:black;stroke-width:1.0"/>
<circle cx="152" cy="172" r="7.0" style="fill:blue;stroke:black;stroke-width:1.0"/>
<circle cx="164" cy="167" r="7.0" style="fill:blue;stroke:black;stroke-width:1.0"/>
<circle cx="200" cy="153" r="7.0" style="fill:red;stroke:black;stroke-width:1.0"/>
<circle cx="209" cy="149" r="7.0" style="fill:red;stroke:black;stroke-width:1.0"/>
<circle cx="262" cy="130" r="7.0" style="fill:red;stroke:black;stroke-width:1.0"/>
<circle cx="267" cy="125" r="7.0" style="fill:red;stroke:black;stroke-width:1.0"/>
<circle cx="334" cy="94" r="7.0" style="fill:green;stroke:black;stroke-width:1.0"/>
<circle cx="326" cy="96" r="7.0" style="fill:green;stroke:black;stroke-width:1.0"/>
<circle cx="388" cy="63" r="7.0" style="fill:green;stroke:black;stroke-width:1.0"/>
<circle cx="377" cy="69" r="7.0" style="fill:green;stroke:black;stroke-width:1.0"/>
<circle cx="420" cy="51" r="7.0" style="fill:orange;stroke:black;stroke-width:1.0"/>
<circle cx="406" cy="59" r="7.0" style="fill:orange;stroke:black;stroke-width:1.0"/>
<circle cx="377" cy="83" r="7.0" style="fill:orange;stroke:black;stroke-width:1.0"/>
<circle cx="366" cy="87" r="7.0" style="fill:orange;stroke:black;stroke-width:1.0"/>
<circle cx="313" cy="119" r="7.0" style="fill:purple;stroke:black;stroke-width:1.0"/>
<circle cx="307" cy="127" r="7.0" style="fill:purple;stroke:black;stroke-width:1.0"/>
<circle cx="240" cy="170" r="7.0" style="fill:purple;stroke:black;stroke-width:1.0"/>
<circle cx="246" cy="172" r="7.0" style="fill:purple;stroke:black;stroke-width:1.0"/>
<circle cx="178" cy="226" r="7.0" style="fill:yellow;stroke:black;stroke-width:1.0"/>
<circle cx="188" cy="224" r="7.0" style="fill:yellow;stroke:black;stroke-width:1.0"/>
<circle cx="135" cy="282" r="7.0" style="fill:yellow;stroke:black;stroke-width:1.0"/>
<circle cx="146" cy="272" r="7.0" style="fill:yellow;stroke:black;stroke-width:1.0"/>
<circle cx="126" cy="320" r="7.0" style="fill:fuchsia;stroke:black;stroke-width:1.0"/>
<circle cx="133" cy="306" r="7.0" style="fill:fuchsia;stroke:black;stroke-width:1.0"/>
<circle cx="154" cy="274" r="7.0" style="fill:fuchsia;stroke:black;stroke-width:1.0"/>
<circle cx="158" cy="259" r="7.0" style="fill:fuchsia;stroke:black;stroke-width:1.0"/>
<circle cx="181" cy="195" r="7.0" style="fill:olive;stroke:black;stroke-width:1.0"/>
<circle cx="186" cy="193" r="7.0" style="fill:olive;stroke:black;stroke-width:1.0"/>
<circle cx="219" cy="111" r="7.0" style="fill:olive;stroke:black;stroke-width:1.0"/>
<circle cx="218" cy="122" r="7.0" style="fill:olive;stroke:black;stroke-width:1.0"/>
<circle cx="258" cy="55" r="7.0" style="fill:aqua;stroke:black;stroke-width:1.0"/>
<circle cx="252" cy="67" r="7.0" style="fill:aqua;stroke:black;stroke-width:1.0"/>
<circle cx="286" cy="28" r="7.0" style="fill:aqua;stroke:black;stroke-width:1.0"/>
<circle cx="275" cy="33" r="7.0" style="fill:aqua;stroke:black;stroke-width:1.0"/>
<circle cx="248" cy="29" r="7.0" style="fill:brown;stroke:black;stroke-width:1.0"/>
<circle cx="238" cy="28" r="7.0" style="fill:brown;stroke:black;stroke-width:1.0"/>
<circle cx="194" cy="24" r="7.0" style="fill:brown;stroke:black;stroke-width:1.0"/>
<circle cx="186" cy="25" r="7.0" style="fill:brown;stroke:black;stroke-width:1.0"/>
<circle cx="124" cy="20" r="7.0" style="fill:blue;stroke:black;stroke-width:1.0"/>
<circle cx="129" cy="25" r="7.0" style="fill:blue;stroke:black;stroke-width:1.0"/>
<circle cx="64" cy="27" r="7.0" style="fill:blue;stroke:black;stroke-width:1.0"/>
<circle cx="74" cy="29" r="7.0" style="fill:blue;stroke:black;stroke-width:1.0"/>
<circle cx="20" cy="38" r="7.0" style="fill:green;stroke:black;stroke-width:1.0"/>
<circle cx="31" cy="41" r="7.0" style="fill:green;stroke:black;stroke-width:1.0"/>
<circle cx="20" cy="75" r="7.0" style="fill:red;stroke:black;stroke-width:1.0"/>
<circle cx="26" cy="75" r="7.0" style="fill:red;stroke:black;stroke-width:1.0"/>
<circle cx="46" cy="113" r="7.0" style="fill:red;stroke:black;stroke-width:1.0"/>
<circle cx="41" cy="104" r="7.0" style="fill:red;stroke:black;stroke-width:1.0"/>
</svg>
