<svg width="440" height="340" xmlns="http://www.w3.org/2000/svg">
<path stroke-width="1" stroke="black" d="M 254 43 241 37"/>
<path stroke-width="1" stroke="black" d="M 75 303 141 286"/>
<path stroke-width="1" stroke="black" d="M 75 303 61 307"/>
<path stroke-width="1" stroke="black" d="M 75 303 34 308"/>
<path stroke-width="1" stroke="black" d="M 61 307 75 303"/>
<path stroke-width="1" stroke="black" d="M 34 308 75 303"/>
<path stroke-width="1" stroke="black" d="M 34 308 20 308"/>
<path stroke-width="1" stroke="black" d="M 34 308 71 313"/>
<path stroke-width="1" stroke="black" d="M 20 308 34 308"/>
<path stroke-width="1" stroke="black" d="M 71 313 34 308"/>
<path stroke-width="1" stroke="black" d="M 137 293 141 286"/>
<path stroke-width="1" stroke="black" d="M 71 313 75 320"/>
<path stroke-width="1" stroke="black" d="M 75 320 71 313"/>
<path stroke-width="1" stroke="black" d="M 98 299 71 313"/>
<path stroke-width="1" stroke="black" d="M 98 299 106 295"/>
<path stroke-width="1" stroke="black" d="M 98 299 103 286"/>
<path stroke-width="1" stroke="black" d="M 106 295 98 299"/>
<path stroke-width="1" stroke="black" d="M 103 286 98 299"/>
<path stroke-width="1" stroke="black" d="M 103 286 94 286"/>
<path stroke-width="1" stroke="black" d="M 103 286 158 277"/>
<path stroke-width="1" stroke="black" d="M 94 286 103 286"/>
<path stroke-width="1" stroke="black" d="M 71 313 98 299"/>
<path stroke-width="1" stroke="black" d="M 141 286 75 303"/>
<path stroke-width="1" stroke="black" d="M 141 286 137 293"/>
<path stroke-width="1" stroke="black" d="M 141 286 207 262"/>
<path stroke-width="1" stroke="black" d="M 412 177 420 179"/>
<path stroke-width="1" stroke="black" d="M 407 169 420 179"/>
<path stroke-width="1" stroke="black" d="M 407 169 417 164"/>
<path stroke-width="1" stroke="black" d="M 407 169 372 185"/>
<path stroke-width="1" stroke="black" d="M 417 164 407 169"/>
<path stroke-width="1" stroke="black" d="M 372 185 407 169"/>
<path stroke-width="1" stroke="black" d="M 372 185 372 178"/>
<path stroke-width="1" stroke="black" d="M 372 185 340 214"/>
<path stroke-width="1" stroke="black" d="M 372 178 372 185"/>
<path stroke-width="1" stroke="black" d="M 340 214 372 185"/>
<path stroke-width="1" stroke="black" d="M 340 214 355 214"/>
<path stroke-width="1" stroke="black" d="M 340 214 282 242"/>
<path stroke-width="1" stroke="black" d="M 355 214 340 214"/>
<path stroke-width="1" stroke="black" d="M 282 242 340 214"/>
<path stroke-width="1" stroke="black" d="M 282 242 293 245"/>
<path stroke-width="1" stroke="black" d="M 282 242 207 262"/>
<path stroke-width="1" stroke="black" d="M 293 245 282 242"/>
<path stroke-width="1" stroke="black" d="M 207 262 282 242"/>
<path stroke-width="1" stroke="black" d="M 207 262 200 257"/>
<path stroke-width="1" stroke="black" d="M 207 262 141 286"/>
<path stroke-width="1" stroke="black" d="M 200 257 207 262"/>
<path stroke-width="1" stroke="black" d="M 158 277 103 286"/>
<path stroke-width="1" stroke="black" d="M 158 277 156 278"/>
<path stroke-width="1" stroke="black" d="M 158 277 216 272"/>
<path stroke-width="1" stroke="black" d="M 156 278 158 277"/>
<path stroke-width="1" stroke="black" d="M 224 140 234 138"/>
<path stroke-width="1" stroke="black" d="M 224 140 189 100"/>
<path stroke-width="1" stroke="black" d="M 234 138 224 140"/>
<path stroke-width="1" stroke="black" d="M 189 100 224 140"/>
<path stroke-width="1" stroke="black" d="M 189 100 185 94"/>
<path stroke-width="1" stroke="black" d="M 189 100 158 64"/>
<path stroke-width="1" stroke="black" d="M 185 94 189 100"/>
<path stroke-width="1" stroke="black" d="M 158 64 189 100"/>
<path stroke-width="1" stroke="black" d="M 158 64 145 60"/>
<path stroke-width="1" stroke="black" d="M 158 64 161 32"/>
<path stroke-width="1" stroke="black" d="M 145 60 158 64"/>
<path stroke-width="1" stroke="black" d="M 161 32 158 64"/>
<path stroke-width="1" stroke="black" d="M 161 32 152 25"/>
<path stroke-width="1" stroke="black" d="M 161 32 205 26"/>
<path stroke-width="1" stroke="black" d="M 152 25 161 32"/>
<path stroke-width="1" stroke="black" d="M 205 26 161 32"/>
<path stroke-width="1" stroke="black" d="M 205 26 211 20"/>
<path stroke-width="1" stroke="black" d="M 205 26 241 37"/>
<path stroke-width="1" stroke="black" d="M 211 20 205 26"/>
<path stroke-width="1" stroke="black" d="M 241 37 205 26"/>
<path stroke-width="1" stroke="black" d="M 241 37 254 43"/>
<path stroke-width="1" stroke="black" d="M 224 140 248 180"/>
<path stroke-width="1" stroke="black" d="M 420 179 407 169"/>
<path stroke-width="1" stroke="black" d="M 257 186 248 180"/>
<path stroke-width="1" stroke="black" d="M 248 180 257 186"/>
<path stroke-width="1" stroke="black" d="M 216 272 158 277"/>
<path stroke-width="1" stroke="black" d="M 216 272 215 277"/>
<path stroke-width="1" stroke="black" d="M 216 272 277 261"/>
<path stroke-width="1" stroke="black" d="M 215 277 216 272"/>
<path stroke-width="1" stroke="black" d="M 277 261 216 272"/>
<path stroke-width="1" stroke="black" d="M 277 261 286 263"/>
<path stroke-width="1" stroke="black" d="M 277 261 304 238"/>
<path stroke-width="1" stroke="black" d="M 286 263 277 261"/>
<path stroke-width="1" stroke="black" d="M 304 238 277 261"/>
<path stroke-width="1" stroke="black" d="M 304 238 316 232"/>
<path stroke-width="1" stroke="black" d="M 304 238 279 226"/>
<path stroke-width="1" stroke="black" d="M 316 232 304 238"/>
<path stroke-width="1" stroke="black" d="M 279 226 304 238"/>
<path stroke-width="1" stroke="black" d="M 279 226 269 224"/>
<path stroke-width="1" stroke="black" d="M 279 226 257 216"/>
<path stroke-width="1" stroke="black" d="M 269 224 279 226"/>
<path stroke-width="1" stroke="black" d="M 257 216 279 226"/>
<path stroke-width="1" stroke="black" d="M 257 216 258 226"/>
<path stroke-width="1" stroke="black" d="M 257 216 248 180"/>
<path stroke-width="1" stroke="black" d="M 258 226 257 216"/>
<path stroke-width="1" stroke="black" d="M 248 180 257 216"/>
<path stroke-width="1" stroke="black" d="M 248 180 224 140"/>
<path stroke-width="1" stroke="black" d="M 420 179 412 177"/>
<circle cx="254" cy="43" r="7.0" style="fill:gray;stroke:black;stroke-width:1.0"/>
<circle cx="241" cy="37" r="7.0" style="fill:gray;stroke:black;stroke-width:1.0"/>
<circle cx="211" cy="20" r="7.0" style="fill:gray;stroke:black;stroke-width:1.0"/>
<circle cx="205" cy="26" r="7.0" style="fill:gray;stroke:black;stroke-width:1.0"/>
<circle cx="152" cy="25" r="7.0" style="fill:gray;stroke:black;stroke-width:1.0"/>
<circle cx="161" cy="32" r="7.0" style="fill:gray;stroke:black;stroke-width:1.0"/>
<circle cx="145" cy="60" r="7.0" style="fill:gray;stroke:black;stroke-width:1.0"/>
<circle cx="158" cy="64" r="7.0" style="fill:gray;stroke:black;stroke-width:1.0"/>
<circle cx="185" cy="94" r="7.0" style="fill:gray;stroke:black;stroke-width:1.0"/>
<circle cx="189" cy="100" r="7.0" style="fill:gray;stroke:black;stroke-width:1.0"/>
<circle cx="234" cy="138" r="7.0" style="fill:gray;stroke:black;stroke-width:1.0"/>
<circle cx="224" cy="140" r="7.0" style="fill:gray;stroke:black;stroke-width:1.0"/>
<circle cx="257" cy="186" r="7.0" style="fill:gray;stroke:black;stroke-width:1.0"/>
<circle cx="248" cy="180" r="7.0" style="fill:gray;stroke:black;stroke-width:1.0"/>
<circle cx="258" cy="226" r="7.0" style="fill:gray;stroke:black;stroke-width:1.0"/>
<circle cx="257" cy="216" r="7.0" style="fill:gray;stroke:black;stroke-width:1.0"/>
<circle cx="269" cy="224" r="7.0" style="fill:gray;stroke:black;stroke-width:1.0"/>
<circle cx="279" cy="226" r="7.0" style="fill:gray;stroke:black;stroke-width:1.0"/>
<circle cx="316" cy="232" r="7.0" style="fill:gray;stroke:black;stroke-width:1.0"/>
<circle cx="304" cy="238" r="7.0" style="fill:gray;stroke:black;stroke-width:1.0"/>
<circle cx="286" cy="263" r="7.0" style="fill:gray;stroke:black;stroke-width:1.0"/>
<circle cx="277" cy="261" r="7.0" style="fill:gray;stroke:black;stroke-width:1.0"/>
<circle cx="215" cy="277" r="7.0" style="fill:gray;stroke:black;stroke-width:1.0"/>
<circle cx="216" cy="272" r="7.0" style="fill:gray;stroke:black;stroke-width:1.0"/>
<circle cx="156" cy="278" r="7.0" style="fill:gray;stroke:black;stroke-width:1.0"/>
<circle cx="158" cy="277" r="7.0" style="fill:gray;stroke:black;stroke-width:1.0"/>
<circle cx="94" cy="286" r="7.0" style="fill:gray;stroke:black;stroke-width:1.0"/>
<circle cx="103" cy="286" r="7.0" style="fill:gray;stroke:black;stroke-width:1.0"/>
<circle cx="106" cy="295" r="7.0" style="fill:gray;stroke:black;stroke-width:1.0"/>
<circle cx="98" cy="299" r="7.0" style="fill:gray;stroke:black;stroke-width:1.0"/>
<circle cx="75" cy="320" r="7.0" style="fill:gray;stroke:black;stroke-width:1.0"/>
<circle cx="71" cy="313" r="7.0" style="fill:gray;stroke:black;stroke-width:1.0"/>
<circle cx="20" cy="308" r="7.0" style="fill:gray;stroke:black;stroke-width:1.0"/>
<circle cx="34" cy="308" r="7.0" style="fill:gray;stroke:black;stroke-width:1.0"/>
<circle cx="61" cy="307" r="7.0" style="fill:gray;stroke:black;stroke-width:1.0"/>
<circle cx="75" cy="303" r="7.0" style="fill:gray;stroke:black;stroke-width:1.0"/>
<circle cx="137" cy="293" r="7.0" style="fill:gray;stroke:black;stroke-width:1.0"/>
<circle cx="141" cy="286" r="7.0" style="fill:gray;stroke:black;stroke-width:1.0"/>
<circle cx="200" cy="257" r="7.0" style="fill:gray;stroke:black;stroke-width:1.0"/>
<circle cx="207" cy="262" r="7.0" style="fill:gray;stroke:black;stroke-width:1.0"/>
<circle cx="293" cy="245" r="7.0" style="fill:gray;stroke:black;stroke-width:1.0"/>
<circle cx="282" cy="242" r="7.0" style="fill:gray;stroke:black;stroke-width:1.0"/>
<circle cx="355" cy="214" r="7.0" style="fill:gray;stroke:black;stroke-width:1.0"/>
<circle cx="340" cy="214" r="7.0" style="fill:gray;stroke:black;stroke-width:1.0"/>
<circle cx="372" cy="178" r="7.0" style="fill:gray;stroke:black;stroke-width:1.0"/>
<circle cx="372" cy="185" r="7.0" style="fill:gray;stroke:black;stroke-width:1.0"/>
<circle cx="417" cy="164" r="7.0" style="fill:gray;stroke:black;stroke-width:1.0"/>
<circle cx="407" cy="169" r="7.0" style="fill:gray;stroke:black;stroke-width:1.0"/>
<circle cx="412" cy="177" r="7.0" style="fill:gray;stroke:black;stroke-width:1.0"/>
<circle cx="420" cy="179" r="7.0" style="fill:gray;stroke:black;stroke-width:1.0"/>
</svg>
