<svg width="440" height="340" xmlns="http://www.w3.org/2000/svg">
<path stroke-width="8.857142857142858" stroke="black" d="M 339 218 332 231"/>
<path stroke-width="0.5" stroke="black" d="M 117 119 104 146"/>
<path stroke-width="20.0" stroke="black" d="M 117 119 113 126"/>
<path stroke-width="0.5" stroke="black" d="M 117 119 137 88"/>
<path stroke-width="20.0" stroke="black" d="M 113 126 117 119"/>
<path stroke-width="0.5" stroke="black" d="M 137 88 117 119"/>
<path stroke-width="20.0" stroke="black" d="M 137 88 127 83"/>
<path stroke-width="0.5" stroke="black" d="M 137 88 186 77"/>
<path stroke-width="20.0" stroke="black" d="M 127 83 137 88"/>
<path stroke-width="0.5" stroke="black" d="M 186 77 137 88"/>
<path stroke-width="20.0" stroke="black" d="M 105 156 104 146"/>
<path stroke-width="20.0" stroke="black" d="M 186 77 183 67"/>
<path stroke-width="20.0" stroke="black" d="M 183 67 186 77"/>
<path stroke-width="0.5" stroke="black" d="M 242 87 186 77"/>
<path stroke-width="20.0" stroke="black" d="M 242 87 244 81"/>
<path stroke-width="0.5" stroke="black" d="M 242 87 298 110"/>
<path stroke-width="20.0" stroke="black" d="M 244 81 242 87"/>
<path stroke-width="0.5" stroke="black" d="M 298 110 242 87"/>
<path stroke-width="20.0" stroke="black" d="M 298 110 291 112"/>
<path stroke-width="0.5" stroke="black" d="M 298 110 351 135"/>
<path stroke-width="20.0" stroke="black" d="M 291 112 298 110"/>
<path stroke-width="0.5" stroke="black" d="M 186 77 242 87"/>
<path stroke-width="0.5" stroke="black" d="M 104 146 117 119"/>
<path stroke-width="20.0" stroke="black" d="M 104 146 105 156"/>
<path stroke-width="0.5" stroke="black" d="M 104 146 84 132"/>
<path stroke-width="14.428571428571429" stroke="black" d="M 20 20 24 29"/>
<path stroke-width="0.5" stroke="black" d="M 34 58 24 29"/>
<path stroke-width="20.0" stroke="black" d="M 34 58 38 50"/>
<path stroke-width="0.5" stroke="black" d="M 34 58 33 96"/>
<path stroke-width="20.0" stroke="black" d="M 38 50 34 58"/>
<path stroke-width="0.5" stroke="black" d="M 33 96 34 58"/>
<path stroke-width="20.0" stroke="black" d="M 33 96 38 100"/>
<path stroke-width="0.5" stroke="black" d="M 33 96 32 133"/>
<path stroke-width="20.0" stroke="black" d="M 38 100 33 96"/>
<path stroke-width="0.5" stroke="black" d="M 32 133 33 96"/>
<path stroke-width="20.0" stroke="black" d="M 32 133 30 144"/>
<path stroke-width="0.5" stroke="black" d="M 32 133 57 139"/>
<path stroke-width="20.0" stroke="black" d="M 30 144 32 133"/>
<path stroke-width="0.5" stroke="black" d="M 57 139 32 133"/>
<path stroke-width="20.0" stroke="black" d="M 57 139 50 142"/>
<path stroke-width="0.5" stroke="black" d="M 57 139 84 132"/>
<path stroke-width="20.0" stroke="black" d="M 50 142 57 139"/>
<path stroke-width="0.5" stroke="black" d="M 84 132 57 139"/>
<path stroke-width="20.0" stroke="black" d="M 84 132 86 124"/>
<path stroke-width="0.5" stroke="black" d="M 84 132 104 146"/>
<path stroke-width="20.0" stroke="black" d="M 86 124 84 132"/>
<path stroke-width="0.5" stroke="black" d="M 351 135 298 110"/>
<path stroke-width="20.0" stroke="black" d="M 351 135 357 144"/>
<path stroke-width="0.5" stroke="black" d="M 351 135 401 149"/>
<path stroke-width="20.0" stroke="black" d="M 357 144 351 135"/>
<path stroke-width="20.0" stroke="black" d="M 212 236 202 233"/>
<path stroke-width="0.5" stroke="black" d="M 212 236 211 279"/>
<path stroke-width="20.0" stroke="black" d="M 202 233 212 236"/>
<path stroke-width="0.5" stroke="black" d="M 211 279 212 236"/>
<path stroke-width="20.0" stroke="black" d="M 211 279 204 287"/>
<path stroke-width="0.5" stroke="black" d="M 211 279 236 309"/>
<path stroke-width="20.0" stroke="black" d="M 204 287 211 279"/>
<path stroke-width="0.5" stroke="black" d="M 236 309 211 279"/>
<path stroke-width="20.0" stroke="black" d="M 236 309 231 320"/>
<path stroke-width="0.5" stroke="black" d="M 236 309 278 297"/>
<path stroke-width="20.0" stroke="black" d="M 231 320 236 309"/>
<path stroke-width="0.5" stroke="black" d="M 278 297 236 309"/>
<path stroke-width="20.0" stroke="black" d="M 278 297 280 306"/>
<path stroke-width="0.5" stroke="black" d="M 278 297 311 265"/>
<path stroke-width="20.0" stroke="black" d="M 280 306 278 297"/>
<path stroke-width="0.5" stroke="black" d="M 311 265 278 297"/>
<path stroke-width="20.0" stroke="black" d="M 311 265 321 264"/>
<path stroke-width="0.5" stroke="black" d="M 311 265 332 231"/>
<path stroke-width="20.0" stroke="black" d="M 321 264 311 265"/>
<path stroke-width="0.5" stroke="black" d="M 332 231 311 265"/>
<path stroke-width="8.857142857142858" stroke="black" d="M 332 231 339 218"/>
<path stroke-width="0.5" stroke="black" d="M 212 236 229 193"/>
<path stroke-width="0.5" stroke="black" d="M 24 29 34 58"/>
<path stroke-width="20.0" stroke="black" d="M 221 186 229 193"/>
<path stroke-width="20.0" stroke="black" d="M 229 193 221 186"/>
<path stroke-width="0.5" stroke="black" d="M 401 149 351 135"/>
<path stroke-width="20.0" stroke="black" d="M 401 149 411 154"/>
<path stroke-width="0.5" stroke="black" d="M 401 149 407 128"/>
<path stroke-width="20.0" stroke="black" d="M 411 154 401 149"/>
<path stroke-width="0.5" stroke="black" d="M 407 128 401 149"/>
<path stroke-width="20.0" stroke="black" d="M 407 128 420 125"/>
<path stroke-width="0.5" stroke="black" d="M 407 128 366 125"/>
<path stroke-width="20.0" stroke="black" d="M 420 125 407 128"/>
<path stroke-width="0.5" stroke="black" d="M 366 125 407 128"/>
<path stroke-width="20.0" stroke="black" d="M 366 125 371 117"/>
<path stroke-width="0.5" stroke="black" d="M 366 125 316 144"/>
<path stroke-width="20.0" stroke="black" d="M 371 117 366 125"/>
<path stroke-width="0.5" stroke="black" d="M 316 144 366 125"/>
<path stroke-width="20.0" stroke="black" d="M 316 144 317 149"/>
<path stroke-width="0.5" stroke="black" d="M 316 144 267 164"/>
<path stroke-width="20.0" stroke="black" d="M 317 149 316 144"/>
<path stroke-width="0.5" stroke="black" d="M 267 164 316 144"/>
<path stroke-width="20.0" stroke="black" d="M 267 164 259 159"/>
<path stroke-width="0.5" stroke="black" d="M 267 164 229 193"/>
<path stroke-width="20.0" stroke="black" d="M 259 159 267 164"/>
<path stroke-width="0.5" stroke="black" d="M 229 193 267 164"/>
<path stroke-width="0.5" stroke="black" d="M 229 193 212 236"/>
<path stroke-width="14.428571428571429" stroke="black" d="M 24 29 20 20"/>
<circle cx="339" cy="218" r="7.0" style="fill:gray;stroke:black;stroke-width:1.0"/>
<circle cx="332" cy="231" r="7.0" style="fill:gray;stroke:black;stroke-width:1.0"/>
<circle cx="321" cy="264" r="7.0" style="fill:gray;stroke:black;stroke-width:1.0"/>
<circle cx="311" cy="265" r="7.0" style="fill:gray;stroke:black;stroke-width:1.0"/>
<circle cx="280" cy="306" r="7.0" style="fill:gray;stroke:black;stroke-width:1.0"/>
<circle cx="278" cy="297" r="7.0" style="fill:gray;stroke:black;stroke-width:1.0"/>
<circle cx="231" cy="320" r="7.0" style="fill:gray;stroke:black;stroke-width:1.0"/>
<circle cx="236" cy="309" r="7.0" style="fill:gray;stroke:black;stroke-width:1.0"/>
<circle cx="204" cy="287" r="7.0" style="fill:gray;stroke:black;stroke-width:1.0"/>
<circle cx="211" cy="279" r="7.0" style="fill:gray;stroke:black;stroke-width:1.0"/>
<circle cx="202" cy="233" r="7.0" style="fill:gray;stroke:black;stroke-width:1.0"/>
<circle cx="212" cy="236" r="7.0" style="fill:gray;stroke:black;stroke-width:1.0"/>
<circle cx="221" cy="186" r="7.0" style="fill:gray;stroke:black;stroke-width:1.0"/>
<circle cx="229" cy="193" r="7.0" style="fill:gray;stroke:black;stroke-width:1.0"/>
<circle cx="259" cy="159" r="7.0" style="fill:gray;stroke:black;stroke-width:1.0"/>
<circle cx="267" cy="164" r="7.0" style="fill:gray;stroke:black;stroke-width:1.0"/>
<circle cx="317" cy="149" r="7.0" style="fill:gray;stroke:black;stroke-width:1.0"/>
<circle cx="316" cy="144" r="7.0" style="fill:gray;stroke:black;stroke-width:1.0"/>
<circle cx="371" cy="117" r="7.0" style="fill:gray;stroke:black;stroke-width:1.0"/>
<circle cx="366" cy="125" r="7.0" style="fill:gray;stroke:black;stroke-width:1.0"/>
<circle cx="420" cy="125" r="7.0" style="fill:gray;stroke:black;stroke-width:1.0"/>
<circle cx="407" cy="128" r="7.0" style="fill:gray;stroke:black;stroke-width:1.0"/>
<circle cx="411" cy="154" r="7.0" style="fill:gray;stroke:black;stroke-width:1.0"/>
<circle cx="401" cy="149" r="7.0" style="fill:gray;stroke:black;stroke-width:1.0"/>
<circle cx="357" cy="144" r="7.0" style="fill:gray;stroke:black;stroke-width:1.0"/>
<circle cx="351" cy="135" r="7.0" style="fill:gray;stroke:black;stroke-width:1.0"/>
<circle cx="291" cy="112" r="7.0" style="fill:gray;stroke:black;stroke-width:1.0"/>
<circle cx="298" cy="110" r="7.0" style="fill:gray;stroke:black;stroke-width:1.0"/>
<circle cx="244" cy="81" r="7.0" style="fill:gray;stroke:black;stroke-width:1.0"/>
<circle cx="242" cy="87" r="7.0" style="fill:gray;stroke:black;stroke-width:1.0"/>
<circle cx="183" cy="67" r="7.0" style="fill:gray;stroke:black;stroke-width:1.0"/>
<circle cx="186" cy="77" r="7.0" style="fill:gray;stroke:black;stroke-width:1.0"/>
<circle cx="127" cy="83" r="7.0" style="fill:gray;stroke:black;stroke-width:1.0"/>
<circle cx="137" cy="88" r="7.0" style="fill:gray;stroke:black;stroke-width:1.0"/>
<circle cx="113" cy="126" r="7.0" style="fill:gray;stroke:black;stroke-width:1.0"/>
<circle cx="117" cy="119" r="7.0" style="fill:gray;stroke:black;stroke-width:1.0"/>
<circle cx="105" cy="156" r="7.0" style="fill:gray;stroke:black;stroke-width:1.0"/>
<circle cx="104" cy="146" r="7.0" style="fill:gray;stroke:black;stroke-width:1.0"/>
<circle cx="86" cy="124" r="7.0" style="fill:gray;stroke:black;stroke-width:1.0"/>
<circle cx="84" cy="132" r="7.0" style="fill:gray;stroke:black;stroke-width:1.0"/>
<circle cx="50" cy="142" r="7.0" style="fill:gray;stroke:black;stroke-width:1.0"/>
<circle cx="57" cy="139" r="7.0" style="fill:gray;stroke:black;stroke-width:1.0"/>
<circle cx="30" cy="144" r="7.0" style="fill:gray;stroke:black;stroke-width:1.0"/>
<circle cx="32" cy="133" r="7.0" style="fill:gray;stroke:black;stroke-width:1.0"/>
<circle cx="38" cy="100" r="7.0" style="fill:gray;stroke:black;stroke-width:1.0"/>
<circle cx="33" cy="96" r="7.0" style="fill:gray;stroke:black;stroke-width:1.0"/>
<circle cx="38" cy="50" r="7.0" style="fill:gray;stroke:black;stroke-width:1.0"/>
<circle cx="34" cy="58" r="7.0" style="fill:gray;stroke:black;stroke-width:1.0"/>
<circle cx="20" cy="20" r="7.0" style="fill:gray;stroke:black;stroke-width:1.0"/>
<circle cx="24" cy="29" r="7.0" style="fill:gray;stroke:black;stroke-width:1.0"/>
</svg>
