<svg width="440" height="340" xmlns="http://www.w3.org/2000/svg">
<path stroke-width="8.857142857142858" stroke="black" d="M 309 195 316 200"/>
<path stroke-width="0.5" stroke="black" d="M 388 305 398 267"/>
<path stroke-width="20.0" stroke="black" d="M 388 305 397 314"/>
<path stroke-width="0.5" stroke="black" d="M 388 305 315 308"/>
<path stroke-width="20.0" stroke="black" d="M 397 314 388 305"/>
<path stroke-width="0.5" stroke="black" d="M 315 308 388 305"/>
<path stroke-width="20.0" stroke="black" d="M 315 308 322 320"/>
<path stroke-width="0.5" stroke="black" d="M 315 308 261 268"/>
<path stroke-width="20.0" stroke="black" d="M 322 320 315 308"/>
<path stroke-width="0.5" stroke="black" d="M 261 268 315 308"/>
<path stroke-width="20.0" stroke="black" d="M 408 274 398 267"/>
<path stroke-width="20.0" stroke="black" d="M 261 268 258 277"/>
<path stroke-width="20.0" stroke="black" d="M 258 277 261 268"/>
<path stroke-width="0.5" stroke="black" d="M 207 211 261 268"/>
<path stroke-width="20.0" stroke="black" d="M 207 211 205 217"/>
<path stroke-width="0.5" stroke="black" d="M 207 211 167 151"/>
<path stroke-width="20.0" stroke="black" d="M 205 217 207 211"/>
<path stroke-width="0.5" stroke="black" d="M 167 151 207 211"/>
<path stroke-width="20.0" stroke="black" d="M 167 151 165 146"/>
<path stroke-width="0.5" stroke="black" d="M 167 151 125 92"/>
<path stroke-width="20.0" stroke="black" d="M 165 146 167 151"/>
<path stroke-width="0.5" stroke="black" d="M 261 268 207 211"/>
<path stroke-width="0.5" stroke="black" d="M 398 267 388 305"/>
<path stroke-width="20.0" stroke="black" d="M 398 267 408 274"/>
<path stroke-width="0.5" stroke="black" d="M 398 267 385 221"/>
<path stroke-width="14.428571428571429" stroke="black" d="M 73 89 94 93"/>
<path stroke-width="0.5" stroke="black" d="M 162 105 94 93"/>
<path stroke-width="20.0" stroke="black" d="M 162 105 148 106"/>
<path stroke-width="0.5" stroke="black" d="M 162 105 244 118"/>
<path stroke-width="20.0" stroke="black" d="M 148 106 162 105"/>
<path stroke-width="0.5" stroke="black" d="M 244 118 162 105"/>
<path stroke-width="20.0" stroke="black" d="M 244 118 255 116"/>
<path stroke-width="0.5" stroke="black" d="M 244 118 317 139"/>
<path stroke-width="20.0" stroke="black" d="M 255 116 244 118"/>
<path stroke-width="0.5" stroke="black" d="M 317 139 244 118"/>
<path stroke-width="20.0" stroke="black" d="M 317 139 326 131"/>
<path stroke-width="0.5" stroke="black" d="M 317 139 357 176"/>
<path stroke-width="20.0" stroke="black" d="M 326 131 317 139"/>
<path stroke-width="0.5" stroke="black" d="M 357 176 317 139"/>
<path stroke-width="20.0" stroke="black" d="M 357 176 359 169"/>
<path stroke-width="0.5" stroke="black" d="M 357 176 385 221"/>
<path stroke-width="20.0" stroke="black" d="M 359 169 357 176"/>
<path stroke-width="0.5" stroke="black" d="M 385 221 357 176"/>
<path stroke-width="20.0" stroke="black" d="M 385 221 397 218"/>
<path stroke-width="0.5" stroke="black" d="M 385 221 398 267"/>
<path stroke-width="20.0" stroke="black" d="M 397 218 385 221"/>
<path stroke-width="0.5" stroke="black" d="M 125 92 167 151"/>
<path stroke-width="20.0" stroke="black" d="M 125 92 126 83"/>
<path stroke-width="0.5" stroke="black" d="M 125 92 86 45"/>
<path stroke-width="20.0" stroke="black" d="M 126 83 125 92"/>
<path stroke-width="20.0" stroke="black" d="M 358 76 367 71"/>
<path stroke-width="0.5" stroke="black" d="M 358 76 402 102"/>
<path stroke-width="20.0" stroke="black" d="M 367 71 358 76"/>
<path stroke-width="0.5" stroke="black" d="M 402 102 358 76"/>
<path stroke-width="20.0" stroke="black" d="M 402 102 416 98"/>
<path stroke-width="0.5" stroke="black" d="M 402 102 404 136"/>
<path stroke-width="20.0" stroke="black" d="M 416 98 402 102"/>
<path stroke-width="0.5" stroke="black" d="M 404 136 402 102"/>
<path stroke-width="20.0" stroke="black" d="M 404 136 420 136"/>
<path stroke-width="0.5" stroke="black" d="M 404 136 381 170"/>
<path stroke-width="20.0" stroke="black" d="M 420 136 404 136"/>
<path stroke-width="0.5" stroke="black" d="M 381 170 404 136"/>
<path stroke-width="20.0" stroke="black" d="M 381 170 379 175"/>
<path stroke-width="0.5" stroke="black" d="M 381 170 350 197"/>
<path stroke-width="20.0" stroke="black" d="M 379 175 381 170"/>
<path stroke-width="0.5" stroke="black" d="M 350 197 381 170"/>
<path stroke-width="20.0" stroke="black" d="M 350 197 344 204"/>
<path stroke-width="0.5" stroke="black" d="M 350 197 316 200"/>
<path stroke-width="20.0" stroke="black" d="M 344 204 350 197"/>
<path stroke-width="0.5" stroke="black" d="M 316 200 350 197"/>
<path stroke-width="8.857142857142858" stroke="black" d="M 316 200 309 195"/>
<path stroke-width="0.5" stroke="black" d="M 358 76 289 62"/>
<path stroke-width="0.5" stroke="black" d="M 94 93 162 105"/>
<path stroke-width="20.0" stroke="black" d="M 301 62 289 62"/>
<path stroke-width="20.0" stroke="black" d="M 289 62 301 62"/>
<path stroke-width="0.5" stroke="black" d="M 86 45 125 92"/>
<path stroke-width="20.0" stroke="black" d="M 86 45 81 34"/>
<path stroke-width="0.5" stroke="black" d="M 86 45 34 25"/>
<path stroke-width="20.0" stroke="black" d="M 81 34 86 45"/>
<path stroke-width="0.5" stroke="black" d="M 34 25 86 45"/>
<path stroke-width="20.0" stroke="black" d="M 34 25 20 20"/>
<path stroke-width="0.5" stroke="black" d="M 34 25 60 40"/>
<path stroke-width="20.0" stroke="black" d="M 20 20 34 25"/>
<path stroke-width="0.5" stroke="black" d="M 60 40 34 25"/>
<path stroke-width="20.0" stroke="black" d="M 60 40 43 42"/>
<path stroke-width="0.5" stroke="black" d="M 60 40 134 45"/>
<path stroke-width="20.0" stroke="black" d="M 43 42 60 40"/>
<path stroke-width="0.5" stroke="black" d="M 134 45 60 40"/>
<path stroke-width="20.0" stroke="black" d="M 134 45 124 42"/>
<path stroke-width="0.5" stroke="black" d="M 134 45 214 51"/>
<path stroke-width="20.0" stroke="black" d="M 124 42 134 45"/>
<path stroke-width="0.5" stroke="black" d="M 214 51 134 45"/>
<path stroke-width="20.0" stroke="black" d="M 214 51 224 49"/>
<path stroke-width="0.5" stroke="black" d="M 214 51 289 62"/>
<path stroke-width="20.0" stroke="black" d="M 224 49 214 51"/>
<path stroke-width="0.5" stroke="black" d="M 289 62 214 51"/>
<path stroke-width="0.5" stroke="black" d="M 289 62 358 76"/>
<path stroke-width="14.428571428571429" stroke="black" d="M 94 93 73 89"/>
<circle cx="309" cy="195" r="7.0" style="fill:blue;stroke:black;stroke-width:1.0"/>
<circle cx="316" cy="200" r="7.0" style="fill:blue;stroke:black;stroke-width:1.0"/>
<circle cx="344" cy="204" r="7.0" style="fill:blue;stroke:black;stroke-width:1.0"/>
<circle cx="350" cy="197" r="7.0" style="fill:blue;stroke:black;stroke-width:1.0"/>
<circle cx="379" cy="175" r="7.0" style="fill:red;stroke:black;stroke-width:1.0"/>
<circle cx="381" cy="170" r="7.0" style="fill:red;stroke:black;stroke-width:1.0"/>
<circle cx="420" cy="136" r="7.0" style="fill:red;stroke:black;stroke-width:1.0"/>
<circle cx="404" cy="136" r="7.0" style="fill:red;stroke:black;stroke-width:1.0"/>
<circle cx="416" cy="98" r="7.0" style="fill:green;stroke:black;stroke-width:1.0"/>
<circle cx="402" cy="102" r="7.0" style="fill:green;stroke:black;stroke-width:1.0"/>
<circle cx="367" cy="71" r="7.0" style="fill:green;stroke:black;stroke-width:1.0"/>
<circle cx="358" cy="76" r="7.0" style="fill:green;stroke:black;stroke-width:1.0"/>
<circle cx="301" cy="62" r="7.0" style="fill:orange;stroke:black;stroke-width:1.0"/>
<circle cx="289" cy="62" r="7.0" style="fill:orange;stroke:black;stroke-width:1.0"/>
<circle cx="224" cy="49" r="7.0" style="fill:orange;stroke:black;stroke-width:1.0"/>
<circle cx="214" cy="51" r="7.0" style="fill:orange;stroke:black;stroke-width:1.0"/>
<circle cx="124" cy="42" r="7.0" style="fill:purple;stroke:black;stroke-width:1.0"/>
<circle cx="134" cy="45" r="7.0" style="fill:purple;stroke:black;stroke-width:1.0"/>
<circle cx="43" cy="42" r="7.0" style="fill:purple;stroke:black;stroke-width:1.0"/>
<circle cx="60" cy="40" r="7.0" style="fill:purple;stroke:black;stroke-width:1.0"/>
<circle cx="20" cy="20" r="7.0" style="fill:yellow;stroke:black;stroke-width:1.0"/>
<circle cx="34" cy="25" r="7.0" style="fill:yellow;stroke:black;stroke-width:1.0"/>
<circle cx="81" cy="34" r="7.0" style="fill:yellow;stroke:black;stroke-width:1.0"/>
<circle cx="86" cy="45" r="7.0" style="fill:yellow;stroke:black;stroke-width:1.0"/>
<circle cx="126" cy="83" r="7.0" style="fill:fuchsia;stroke:black;stroke-width:1.0"/>
<circle cx="125" cy="92" r="7.0" style="fill:fuchsia;stroke:black;stroke-width:1.0"/>
<circle cx="165" cy="146" r="7.0" style="fill:fuchsia;stroke:black;stroke-width:1.0"/>
<circle cx="167" cy="151" r="7.0" style="fill:fuchsia;stroke:black;stroke-width:1.0"/>
<circle cx="205" cy="217" r="7.0" style="fill:olive;stroke:black;stroke-width:1.0"/>
<circle cx="207" cy="211" r="7.0" style="fill:olive;stroke:black;stroke-width:1.0"/>
<circle cx="258" cy="277" r="7.0" style="fill:olive;stroke:black;stroke-width:1.0"/>
<circle cx="261" cy="268" r="7.0" style="fill:olive;stroke:black;stroke-width:1.0"/>
<circle cx="322" cy="320" r="7.0" style="fill:aqua;stroke:black;stroke-width:1.0"/>
<circle cx="315" cy="308" r="7.0" style="fill:aqua;stroke:black;stroke-width:1.0"/>
<circle cx="397" cy="314" r="7.0" style="fill:aqua;stroke:black;stroke-width:1.0"/>
<circle cx="388" cy="305" r="7.0" style="fill:aqua;stroke:black;stroke-width:1.0"/>
<circle cx="408" cy="274" r="7.0" style="fill:brown;stroke:black;stroke-width:1.0"/>
<circle cx="398" cy="267" r="7.0" style="fill:brown;stroke:black;stroke-width:1.0"/>
<circle cx="397" cy="218" r="7.0" style="fill:brown;stroke:black;stroke-width:1.0"/>
<circle cx="385" cy="221" r="7.0" style="fill:brown;stroke:black;stroke-width:1.0"/>
<circle cx="359" cy="169" r="7.0" style="fill:blue;stroke:black;stroke-width:1.0"/>
<circle cx="357" cy="176" r="7.0" style="fill:blue;stroke:black;stroke-width:1.0"/>
<circle cx="326" cy="131" r="7.0" style="fill:blue;stroke:black;stroke-width:1.0"/>
<circle cx="317" cy="139" r="7.0" style="fill:blue;stroke:black;stroke-width:1.0"/>
<circle cx="255" cy="116" r="7.0" style="fill:green;stroke:black;stroke-width:1.0"/>
<circle cx="244" cy="118" r="7.0" style="fill:green;stroke:black;stroke-width:1.0"/>
<circle cx="148" cy="106" r="7.0" style="fill:red;stroke:black;stroke-width:1.0"/>
<circle cx="162" cy="105" r="7.0" style="fill:red;stroke:black;stroke-width:1.0"/>
<circle cx="73" cy="89" r="7.0" style="fill:red;stroke:black;stroke-width:1.0"/>
<circle cx="94" cy="93" r="7.0" style="fill:red;stroke:black;stroke-width:1.0"/>
</svg>
