<svg width="440" height="340" xmlns="http://www.w3.org/2000/svg">
<path stroke-width="1" stroke="black" d="M 378 256 386 262"/>
<path stroke-width="1" stroke="black" d="M 218 30 255 63"/>
<path stroke-width="1" stroke="black" d="M 218 30 218 21"/>
<path stroke-width="1" stroke="black" d="M 218 30 180 30"/>
<path stroke-width="1" stroke="black" d="M 218 21 218 30"/>
<path stroke-width="1" stroke="black" d="M 180 30 218 30"/>
<path stroke-width="1" stroke="black" d="M 180 30 175 20"/>
<path stroke-width="1" stroke="black" d="M 180 30 157 63"/>
<path stroke-width="1" stroke="black" d="M 175 20 180 30"/>
<path stroke-width="1" stroke="black" d="M 157 63 180 30"/>
<path stroke-width="1" stroke="black" d="M 257 52 255 63"/>
<path stroke-width="1" stroke="black" d="M 157 63 150 58"/>
<path stroke-width="1" stroke="black" d="M 150 58 157 63"/>
<path stroke-width="1" stroke="black" d="M 153 109 157 63"/>
<path stroke-width="1" stroke="black" d="M 153 109 158 106"/>
<path stroke-width="1" stroke="black" d="M 153 109 147 156"/>
<path stroke-width="1" stroke="black" d="M 158 106 153 109"/>
<path stroke-width="1" stroke="black" d="M 147 156 153 109"/>
<path stroke-width="1" stroke="black" d="M 147 156 153 162"/>
<path stroke-width="1" stroke="black" d="M 147 156 125 195"/>
<path stroke-width="1" stroke="black" d="M 153 162 147 156"/>
<path stroke-width="1" stroke="black" d="M 157 63 153 109"/>
<path stroke-width="1" stroke="black" d="M 255 63 218 30"/>
<path stroke-width="1" stroke="black" d="M 255 63 257 52"/>
<path stroke-width="1" stroke="black" d="M 255 63 281 110"/>
<path stroke-width="1" stroke="black" d="M 203 296 214 297"/>
<path stroke-width="1" stroke="black" d="M 246 295 214 297"/>
<path stroke-width="1" stroke="black" d="M 246 295 243 304"/>
<path stroke-width="1" stroke="black" d="M 246 295 280 272"/>
<path stroke-width="1" stroke="black" d="M 243 304 246 295"/>
<path stroke-width="1" stroke="black" d="M 280 272 246 295"/>
<path stroke-width="1" stroke="black" d="M 280 272 285 280"/>
<path stroke-width="1" stroke="black" d="M 280 272 296 224"/>
<path stroke-width="1" stroke="black" d="M 285 280 280 272"/>
<path stroke-width="1" stroke="black" d="M 296 224 280 272"/>
<path stroke-width="1" stroke="black" d="M 296 224 303 232"/>
<path stroke-width="1" stroke="black" d="M 296 224 295 170"/>
<path stroke-width="1" stroke="black" d="M 303 232 296 224"/>
<path stroke-width="1" stroke="black" d="M 295 170 296 224"/>
<path stroke-width="1" stroke="black" d="M 295 170 301 171"/>
<path stroke-width="1" stroke="black" d="M 295 170 281 110"/>
<path stroke-width="1" stroke="black" d="M 301 171 295 170"/>
<path stroke-width="1" stroke="black" d="M 281 110 295 170"/>
<path stroke-width="1" stroke="black" d="M 281 110 287 106"/>
<path stroke-width="1" stroke="black" d="M 281 110 255 63"/>
<path stroke-width="1" stroke="black" d="M 287 106 281 110"/>
<path stroke-width="1" stroke="black" d="M 125 195 147 156"/>
<path stroke-width="1" stroke="black" d="M 125 195 131 203"/>
<path stroke-width="1" stroke="black" d="M 125 195 86 208"/>
<path stroke-width="1" stroke="black" d="M 131 203 125 195"/>
<path stroke-width="1" stroke="black" d="M 268 295 276 301"/>
<path stroke-width="1" stroke="black" d="M 268 295 328 312"/>
<path stroke-width="1" stroke="black" d="M 276 301 268 295"/>
<path stroke-width="1" stroke="black" d="M 328 312 268 295"/>
<path stroke-width="1" stroke="black" d="M 328 312 337 320"/>
<path stroke-width="1" stroke="black" d="M 328 312 378 312"/>
<path stroke-width="1" stroke="black" d="M 337 320 328 312"/>
<path stroke-width="1" stroke="black" d="M 378 312 328 312"/>
<path stroke-width="1" stroke="black" d="M 378 312 387 315"/>
<path stroke-width="1" stroke="black" d="M 378 312 410 298"/>
<path stroke-width="1" stroke="black" d="M 387 315 378 312"/>
<path stroke-width="1" stroke="black" d="M 410 298 378 312"/>
<path stroke-width="1" stroke="black" d="M 410 298 420 297"/>
<path stroke-width="1" stroke="black" d="M 410 298 405 277"/>
<path stroke-width="1" stroke="black" d="M 420 297 410 298"/>
<path stroke-width="1" stroke="black" d="M 405 277 410 298"/>
<path stroke-width="1" stroke="black" d="M 405 277 411 276"/>
<path stroke-width="1" stroke="black" d="M 405 277 386 262"/>
<path stroke-width="1" stroke="black" d="M 411 276 405 277"/>
<path stroke-width="1" stroke="black" d="M 386 262 405 277"/>
<path stroke-width="1" stroke="black" d="M 386 262 378 256"/>
<path stroke-width="1" stroke="black" d="M 268 295 202 269"/>
<path stroke-width="1" stroke="black" d="M 214 297 246 295"/>
<path stroke-width="1" stroke="black" d="M 207 270 202 269"/>
<path stroke-width="1" stroke="black" d="M 202 269 207 270"/>
<path stroke-width="1" stroke="black" d="M 86 208 125 195"/>
<path stroke-width="1" stroke="black" d="M 86 208 86 217"/>
<path stroke-width="1" stroke="black" d="M 86 208 47 204"/>
<path stroke-width="1" stroke="black" d="M 86 217 86 208"/>
<path stroke-width="1" stroke="black" d="M 47 204 86 208"/>
<path stroke-width="1" stroke="black" d="M 47 204 37 204"/>
<path stroke-width="1" stroke="black" d="M 47 204 32 197"/>
<path stroke-width="1" stroke="black" d="M 37 204 47 204"/>
<path stroke-width="1" stroke="black" d="M 32 197 47 204"/>
<path stroke-width="1" stroke="black" d="M 32 197 20 192"/>
<path stroke-width="1" stroke="black" d="M 32 197 76 216"/>
<path stroke-width="1" stroke="black" d="M 20 192 32 197"/>
<path stroke-width="1" stroke="black" d="M 76 216 32 197"/>
<path stroke-width="1" stroke="black" d="M 76 216 66 211"/>
<path stroke-width="1" stroke="black" d="M 76 216 135 242"/>
<path stroke-width="1" stroke="black" d="M 66 211 76 216"/>
<path stroke-width="1" stroke="black" d="M 135 242 76 216"/>
<path stroke-width="1" stroke="black" d="M 135 242 127 241"/>
<path stroke-width="1" stroke="black" d="M 135 242 202 269"/>
<path stroke-width="1" stroke="black" d="M 127 241 135 242"/>
<path stroke-width="1" stroke="black" d="M 202 269 135 242"/>
<path stroke-width="1" stroke="black" d="M 202 269 268 295"/>
<path stroke-width="1" stroke="black" d="M 214 297 203 296"/>
<circle cx="378" cy="256" r="7.0" style="fill:gray;stroke:black;stroke-width:1.0"/>
<circle cx="386" cy="262" r="7.0" style="fill:gray;stroke:black;stroke-width:1.0"/>
<circle cx="411" cy="276" r="7.0" style="fill:gray;stroke:black;stroke-width:1.0"/>
<circle cx="405" cy="277" r="7.0" style="fill:gray;stroke:black;stroke-width:1.0"/>
<circle cx="420" cy="297" r="7.0" style="fill:gray;stroke:black;stroke-width:1.0"/>
<circle cx="410" cy="298" r="7.0" style="fill:gray;stroke:black;stroke-width:1.0"/>
<circle cx="387" cy="315" r="7.0" style="fill:gray;stroke:black;stroke-width:1.0"/>
<circle cx="378" cy="312" r="7.0" style="fill:gray;stroke:black;stroke-width:1.0"/>
<circle cx="337" cy="320" r="7.0" style="fill:gray;stroke:black;stroke-width:1.0"/>
<circle cx="328" cy="312" r="7.0" style="fill:gray;stroke:black;stroke-width:1.0"/>
<circle cx="276" cy="301" r="7.0" style="fill:gray;stroke:black;stroke-width:1.0"/>
<circle cx="268" cy="295" r="7.0" style="fill:gray;stroke:black;stroke-width:1.0"/>
<circle cx="207" cy="270" r="7.0" style="fill:gray;stroke:black;stroke-width:1.0"/>
<circle cx="202" cy="269" r="7.0" style="fill:gray;stroke:black;stroke-width:1.0"/>
<circle cx="127" cy="241" r="7.0" style="fill:gray;stroke:black;stroke-width:1.0"/>
<circle cx="135" cy="242" r="7.0" style="fill:gray;stroke:black;stroke-width:1.0"/>
<circle cx="66" cy="211" r="7.0" style="fill:gray;stroke:black;stroke-width:1.0"/>
<circle cx="76" cy="216" r="7.0" style="fill:gray;stroke:black;stroke-width:1.0"/>
<circle cx="20" cy="192" r="7.0" style="fill:gray;stroke:black;stroke-width:1.0"/>
<circle cx="32" cy="197" r="7.0" style="fill:gray;stroke:black;stroke-width:1.0"/>
<circle cx="37" cy="204" r="7.0" style="fill:gray;stroke:black;stroke-width:1.0"/>
<circle cx="47" cy="204" r="7.0" style="fill:gray;stroke:black;stroke-width:1.0"/>
<circle cx="86" cy="217" r="7.0" style="fill:gray;stroke:black;stroke-width:1.0"/>
<circle cx="86" cy="208" r="7.0" style="fill:gray;stroke:black;stroke-width:1.0"/>
<circle cx="131" cy="203" r="7.0" style="fill:gray;stroke:black;stroke-width:1.0"/>
<circle cx="125" cy="195" r="7.0" style="fill:gray;stroke:black;stroke-width:1.0"/>
<circle cx="153" cy="162" r="7.0" style="fill:gray;stroke:black;stroke-width:1.0"/>
<circle cx="147" cy="156" r="7.0" style="fill:gray;stroke:black;stroke-width:1.0"/>
<circle cx="158" cy="106" r="7.0" style="fill:gray;stroke:black;stroke-width:1.0"/>
<circle cx="153" cy="109" r="7.0" style="fill:gray;stroke:black;stroke-width:1.0"/>
<circle cx="150" cy="58" r="7.0" style="fill:gray;stroke:black;stroke-width:1.0"/>
<circle cx="157" cy="63" r="7.0" style="fill:gray;stroke:black;stroke-width:1.0"/>
<circle cx="175" cy="20" r="7.0" style="fill:gray;stroke:black;stroke-width:1.0"/>
<circle cx="180" cy="30" r="7.0" style="fill:gray;stroke:black;stroke-width:1.0"/>
<circle cx="218" cy="21" r="7.0" style="fill:gray;stroke:black;stroke-width:1.0"/>
<circle cx="218" cy="30" r="7.0" style="fill:gray;stroke:black;stroke-width:1.0"/>
<circle cx="257" cy="52" r="7.0" style="fill:gray;stroke:black;stroke-width:1.0"/>
<circle cx="255" cy="63" r="7.0" style="fill:gray;stroke:black;stroke-width:1.0"/>
<circle cx="287" cy="106" r="7.0" style="fill:gray;stroke:black;stroke-width:1.0"/>
<circle cx="281" cy="110" r="7.0" style="fill:gray;stroke:black;stroke-width:1.0"/>
<circle cx="301" cy="171" r="7.0" style="fill:gray;stroke:black;stroke-width:1.0"/>
<circle cx="295" cy="170" r="7.0" style="fill:gray;stroke:black;stroke-width:1.0"/>
<circle cx="303" cy="232" r="7.0" style="fill:gray;stroke:black;stroke-width:1.0"/>
<circle cx="296" cy="224" r="7.0" style="fill:gray;stroke:black;stroke-width:1.0"/>
<circle cx="285" cy="280" r="7.0" style="fill:gray;stroke:black;stroke-width:1.0"/>
<circle cx="280" cy="272" r="7.0" style="fill:gray;stroke:black;stroke-width:1.0"/>
<circle cx="243" cy="304" r="7.0" style="fill:gray;stroke:black;stroke-width:1.0"/>
<circle cx="246" cy="295" r="7.0" style="fill:gray;stroke:black;stroke-width:1.0"/>
<circle cx="203" cy="296" r="7.0" style="fill:gray;stroke:black;stroke-width:1.0"/>
<circle cx="214" cy="297" r="7.0" style="fill:gray;stroke:black;stroke-width:1.0"/>
</svg>
