<svg width="440" height="340" xmlns="http://www.w3.org/2000/svg">
<path stroke-width="0.5" stroke="black" d="M 52 109 27 105"/>
<path stroke-width="0.5" stroke="black" d="M 52 109 61 52"/>
<path stroke-width="0.5" stroke="black" d="M 41 20 20 52"/>
<path stroke-width="0.5" stroke="black" d="M 41 20 61 52"/>
<path stroke-width="20.0" stroke="black" d="M 420 283 418 320"/>
<path stroke-width="0.5" stroke="black" d="M 27 105 52 109"/>
<path stroke-width="0.5" stroke="black" d="M 27 105 20 52"/>
<path stroke-width="0.5" stroke="black" d="M 20 52 41 20"/>
<path stroke-width="0.5" stroke="black" d="M 20 52 27 105"/>
<path stroke-width="0.5" stroke="black" d="M 61 52 52 109"/>
<path stroke-width="0.5" stroke="black" d="M 61 52 41 20"/>
<path stroke-width="20.0" stroke="black" d="M 418 320 420 283"/>
<circle cx="52" cy="109" r="7.0" style="fill:gray;stroke:black;stroke-width:1.0"/>
<circle cx="41" cy="20" r="7.0" style="fill:gray;stroke:black;stroke-width:1.0"/>
<circle cx="420" cy="283" r="7.0" style="fill:gray;stroke:black;stroke-width:1.0"/>
<circle cx="27" cy="105" r="7.0" style="fill:gray;stroke:black;stroke-width:1.0"/>
<circle cx="20" cy="52" r="7.0" style="fill:gray;stroke:black;stroke-width:1.0"/>
<circle cx="61" cy="52" r="7.0" style="fill:gray;stroke:black;stroke-width:1.0"/>
<circle cx="418" cy="320" r="7.0" style="fill:gray;stroke:black;stroke-width:1.0"/>
</svg>
