<svg width="440" height="340" xmlns="http://www.w3.org/2000/svg">
<path stroke-width="0.5" stroke="black" d="M 409 20 420 32"/>
<path stroke-width="0.5" stroke="black" d="M 409 20 389 26"/>
<path stroke-width="0.5" stroke="black" d="M 393 45 409 51"/>
<path stroke-width="0.5" stroke="black" d="M 393 45 389 26"/>
<path stroke-width="20.0" stroke="black" d="M 20 320 22 305"/>
<path stroke-width="0.5" stroke="black" d="M 420 32 409 20"/>
<path stroke-width="0.5" stroke="black" d="M 420 32 409 51"/>
<path stroke-width="0.5" stroke="black" d="M 409 51 393 45"/>
<path stroke-width="0.5" stroke="black" d="M 409 51 420 32"/>
<path stroke-width="0.5" stroke="black" d="M 389 26 409 20"/>
<path stroke-width="0.5" stroke="black" d="M 389 26 393 45"/>
<path stroke-width="20.0" stroke="black" d="M 22 305 20 320"/>
<circle cx="409" cy="20" r="7.0" style="fill:gray;stroke:black;stroke-width:1.0"/>
<circle cx="393" cy="45" r="7.0" style="fill:gray;stroke:black;stroke-width:1.0"/>
<circle cx="20" cy="320" r="7.0" style="fill:gray;stroke:black;stroke-width:1.0"/>
<circle cx="420" cy="32" r="7.0" style="fill:gray;stroke:black;stroke-width:1.0"/>
<circle cx="409" cy="51" r="7.0" style="fill:gray;stroke:black;stroke-width:1.0"/>
<circle cx="389" cy="26" r="7.0" style="fill:gray;stroke:black;stroke-width:1.0"/>
<circle cx="22" cy="305" r="7.0" style="fill:gray;stroke:black;stroke-width:1.0"/>
</svg>
