<svg width="440" height="340" xmlns="http://www.w3.org/2000/svg">
<path stroke-width="1" stroke="black" d="M 20 41 37 48"/>
<path stroke-width="1" stroke="black" d="M 20 41 21 24"/>
<path stroke-width="1" stroke="black" d="M 40 20 50 35"/>
<path stroke-width="1" stroke="black" d="M 40 20 21 24"/>
<path stroke-width="1" stroke="black" d="M 407 320 420 319"/>
<path stroke-width="1" stroke="black" d="M 37 48 20 41"/>
<path stroke-width="1" stroke="black" d="M 37 48 50 35"/>
<path stroke-width="1" stroke="black" d="M 50 35 40 20"/>
<path stroke-width="1" stroke="black" d="M 50 35 37 48"/>
<path stroke-width="1" stroke="black" d="M 21 24 20 41"/>
<path stroke-width="1" stroke="black" d="M 21 24 40 20"/>
<path stroke-width="1" stroke="black" d="M 420 319 407 320"/>
<circle cx="20" cy="41" r="20.0" style="fill:gray;stroke:black;stroke-width:1.0"/>
<circle cx="40" cy="20" r="20.0" style="fill:gray;stroke:black;stroke-width:1.0"/>
<circle cx="407" cy="320" r="20.0" style="fill:gray;stroke:black;stroke-width:1.0"/>
<circle cx="37" cy="48" r="20.0" style="fill:gray;stroke:black;stroke-width:1.0"/>
<circle cx="50" cy="35" r="20.0" style="fill:gray;stroke:black;stroke-width:1.0"/>
<circle cx="21" cy="24" r="20.0" style="fill:gray;stroke:black;stroke-width:1.0"/>
<circle cx="420" cy="319" r="20.0" style="fill:gray;stroke:black;stroke-width:1.0"/>
</svg>
