<svg width="440" height="340" xmlns="http://www.w3.org/2000/svg">
<path stroke-width="0.5" stroke="black" d="M 21 115 43 123"/>
<path stroke-width="0.5" stroke="black" d="M 21 115 20 45"/>
<path stroke-width="0.5" stroke="black" d="M 40 20 54 77"/>
<path stroke-width="0.5" stroke="black" d="M 40 20 20 45"/>
<path stroke-width="20.0" stroke="black" d="M 420 298 411 320"/>
<path stroke-width="0.5" stroke="black" d="M 43 123 21 115"/>
<path stroke-width="0.5" stroke="black" d="M 43 123 54 77"/>
<path stroke-width="0.5" stroke="black" d="M 54 77 40 20"/>
<path stroke-width="0.5" stroke="black" d="M 54 77 43 123"/>
<path stroke-width="0.5" stroke="black" d="M 20 45 21 115"/>
<path stroke-width="0.5" stroke="black" d="M 20 45 40 20"/>
<path stroke-width="20.0" stroke="black" d="M 411 320 420 298"/>
<circle cx="21" cy="115" r="20.0" style="fill:gray;stroke:black;stroke-width:1.0"/>
<circle cx="40" cy="20" r="20.0" style="fill:gray;stroke:black;stroke-width:1.0"/>
<circle cx="420" cy="298" r="20.0" style="fill:gray;stroke:black;stroke-width:1.0"/>
<circle cx="43" cy="123" r="20.0" style="fill:gray;stroke:black;stroke-width:1.0"/>
<circle cx="54" cy="77" r="20.0" style="fill:gray;stroke:black;stroke-width:1.0"/>
<circle cx="20" cy="45" r="20.0" style="fill:gray;stroke:black;stroke-width:1.0"/>
<circle cx="411" cy="320" r="20.0" style="fill:gray;stroke:black;stroke-width:1.0"/>
</svg>
