<svg width="440" height="340" xmlns="http://www.w3.org/2000/svg">
<path stroke-width="1" stroke="black" d="M 127 176 126 172"/>
<path stroke-width="1" stroke="black" d="M 104 186 124 184"/>
<path stroke-width="1" stroke="black" d="M 104 186 55 135"/>
<path stroke-width="1" stroke="black" d="M 150 20 128 143"/>
<path stroke-width="1" stroke="black" d="M 128 143 126 172"/>
<path stroke-width="1" stroke="black" d="M 128 143 121 173"/>
<path stroke-width="1" stroke="black" d="M 128 143 93 179"/>
<path stroke-width="1" stroke="black" d="M 104 186 128 143"/>
<path stroke-width="1" stroke="black" d="M 128 143 119 228"/>
<path stroke-width="1" stroke="black" d="M 128 143 167 115"/>
<path stroke-width="1" stroke="black" d="M 128 143 93 151"/>
<path stroke-width="1" stroke="black" d="M 128 143 104 186"/>
<path stroke-width="1" stroke="black" d="M 128 143 150 20"/>
<path stroke-width="1" stroke="black" d="M 128 143 124 184"/>
<path stroke-width="1" stroke="black" d="M 128 143 55 135"/>
<path stroke-width="1" stroke="black" d="M 128 143 184 196"/>
<path stroke-width="1" stroke="black" d="M 122 186 124 184"/>
<path stroke-width="1" stroke="black" d="M 104 186 55 181"/>
<path stroke-width="1" stroke="black" d="M 104 186 167 115"/>
<path stroke-width="1" stroke="black" d="M 93 151 119 228"/>
<path stroke-width="1" stroke="black" d="M 93 151 184 196"/>
<path stroke-width="1" stroke="black" d="M 93 151 167 115"/>
<path stroke-width="1" stroke="black" d="M 93 151 70 104"/>
<path stroke-width="1" stroke="black" d="M 93 151 104 186"/>
<path stroke-width="1" stroke="black" d="M 93 151 128 143"/>
<path stroke-width="1" stroke="black" d="M 104 186 93 151"/>
<path stroke-width="1" stroke="black" d="M 93 151 124 184"/>
<path stroke-width="1" stroke="black" d="M 55 181 104 186"/>
<path stroke-width="1" stroke="black" d="M 104 186 126 172"/>
<path stroke-width="1" stroke="black" d="M 104 186 121 173"/>
<path stroke-width="1" stroke="black" d="M 104 186 93 179"/>
<path stroke-width="1" stroke="black" d="M 104 186 119 228"/>
<path stroke-width="1" stroke="black" d="M 104 186 184 196"/>
<path stroke-width="1" stroke="black" d="M 93 151 55 135"/>
<path stroke-width="1" stroke="black" d="M 93 151 93 179"/>
<path stroke-width="1" stroke="black" d="M 124 184 126 172"/>
<path stroke-width="1" stroke="black" d="M 124 184 93 179"/>
<path stroke-width="1" stroke="black" d="M 151 320 226 292"/>
<path stroke-width="1" stroke="black" d="M 226 292 184 196"/>
<path stroke-width="1" stroke="black" d="M 226 292 337 203"/>
<path stroke-width="1" stroke="black" d="M 226 292 151 320"/>
<path stroke-width="1" stroke="black" d="M 226 292 214 151"/>
<path stroke-width="1" stroke="black" d="M 174 132 214 151"/>
<path stroke-width="1" stroke="black" d="M 337 203 226 292"/>
<path stroke-width="1" stroke="black" d="M 214 151 167 115"/>
<path stroke-width="1" stroke="black" d="M 214 151 174 132"/>
<path stroke-width="1" stroke="black" d="M 214 151 55 135"/>
<path stroke-width="1" stroke="black" d="M 20 172 55 135"/>
<path stroke-width="1" stroke="black" d="M 55 135 93 151"/>
<path stroke-width="1" stroke="black" d="M 55 135 104 186"/>
<path stroke-width="1" stroke="black" d="M 55 135 128 143"/>
<path stroke-width="1" stroke="black" d="M 214 151 226 292"/>
<path stroke-width="1" stroke="black" d="M 124 184 121 173"/>
<path stroke-width="1" stroke="black" d="M 337 203 420 169"/>
<path stroke-width="1" stroke="black" d="M 337 203 119 228"/>
<path stroke-width="1" stroke="black" d="M 124 184 119 228"/>
<path stroke-width="1" stroke="black" d="M 124 184 184 196"/>
<path stroke-width="1" stroke="black" d="M 124 184 167 115"/>
<path stroke-width="1" stroke="black" d="M 124 184 93 151"/>
<path stroke-width="1" stroke="black" d="M 124 184 104 186"/>
<path stroke-width="1" stroke="black" d="M 124 184 128 143"/>
<path stroke-width="1" stroke="black" d="M 337 203 133 229"/>
<path stroke-width="1" stroke="black" d="M 124 184 122 186"/>
<path stroke-width="1" stroke="black" d="M 100 287 133 229"/>
<path stroke-width="1" stroke="black" d="M 133 229 93 179"/>
<path stroke-width="1" stroke="black" d="M 133 229 124 184"/>
<path stroke-width="1" stroke="black" d="M 133 229 100 287"/>
<path stroke-width="1" stroke="black" d="M 133 229 337 203"/>
<path stroke-width="1" stroke="black" d="M 420 169 337 203"/>
<path stroke-width="1" stroke="black" d="M 124 184 133 229"/>
<path stroke-width="1" stroke="black" d="M 93 151 121 173"/>
<path stroke-width="1" stroke="black" d="M 93 151 126 172"/>
<path stroke-width="1" stroke="black" d="M 70 104 93 151"/>
<path stroke-width="1" stroke="black" d="M 121 173 104 186"/>
<path stroke-width="1" stroke="black" d="M 121 173 128 143"/>
<path stroke-width="1" stroke="black" d="M 121 173 124 184"/>
<path stroke-width="1" stroke="black" d="M 76 183 93 179"/>
<path stroke-width="1" stroke="black" d="M 93 179 126 172"/>
<path stroke-width="1" stroke="black" d="M 93 179 121 173"/>
<path stroke-width="1" stroke="black" d="M 121 173 93 151"/>
<path stroke-width="1" stroke="black" d="M 93 179 76 183"/>
<path stroke-width="1" stroke="black" d="M 93 179 184 196"/>
<path stroke-width="1" stroke="black" d="M 93 179 167 115"/>
<path stroke-width="1" stroke="black" d="M 93 179 93 151"/>
<path stroke-width="1" stroke="black" d="M 93 179 104 186"/>
<path stroke-width="1" stroke="black" d="M 93 179 128 143"/>
<path stroke-width="1" stroke="black" d="M 93 179 124 184"/>
<path stroke-width="1" stroke="black" d="M 93 179 119 228"/>
<path stroke-width="1" stroke="black" d="M 93 179 133 229"/>
<path stroke-width="1" stroke="black" d="M 121 173 167 115"/>
<path stroke-width="1" stroke="black" d="M 121 173 119 228"/>
<path stroke-width="1" stroke="black" d="M 126 172 127 176"/>
<path stroke-width="1" stroke="black" d="M 126 172 121 173"/>
<path stroke-width="1" stroke="black" d="M 126 172 93 179"/>
<path stroke-width="1" stroke="black" d="M 126 172 119 228"/>
<path stroke-width="1" stroke="black" d="M 126 172 184 196"/>
<path stroke-width="1" stroke="black" d="M 126 172 167 115"/>
<path stroke-width="1" stroke="black" d="M 121 173 184 196"/>
<path stroke-width="1" stroke="black" d="M 126 172 93 151"/>
<path stroke-width="1" stroke="black" d="M 126 172 128 143"/>
<path stroke-width="1" stroke="black" d="M 126 172 124 184"/>
<path stroke-width="1" stroke="black" d="M 118 179 121 173"/>
<path stroke-width="1" stroke="black" d="M 121 173 126 172"/>
<path stroke-width="1" stroke="black" d="M 121 173 118 179"/>
<path stroke-width="1" stroke="black" d="M 121 173 93 179"/>
<path stroke-width="1" stroke="black" d="M 126 172 104 186"/>
<path stroke-width="1" stroke="black" d="M 112 256 119 228"/>
<path stroke-width="1" stroke="black" d="M 119 228 126 172"/>
<path stroke-width="1" stroke="black" d="M 119 228 121 173"/>
<path stroke-width="1" stroke="black" d="M 184 196 124 184"/>
<path stroke-width="1" stroke="black" d="M 184 196 226 292"/>
<path stroke-width="1" stroke="black" d="M 199 67 167 115"/>
<path stroke-width="1" stroke="black" d="M 167 115 126 172"/>
<path stroke-width="1" stroke="black" d="M 167 115 121 173"/>
<path stroke-width="1" stroke="black" d="M 167 115 93 179"/>
<path stroke-width="1" stroke="black" d="M 184 196 128 143"/>
<path stroke-width="1" stroke="black" d="M 167 115 119 228"/>
<path stroke-width="1" stroke="black" d="M 167 115 199 67"/>
<path stroke-width="1" stroke="black" d="M 167 115 93 151"/>
<path stroke-width="1" stroke="black" d="M 167 115 104 186"/>
<path stroke-width="1" stroke="black" d="M 167 115 128 143"/>
<path stroke-width="1" stroke="black" d="M 167 115 124 184"/>
<path stroke-width="1" stroke="black" d="M 167 115 214 151"/>
<path stroke-width="1" stroke="black" d="M 167 115 184 196"/>
<path stroke-width="1" stroke="black" d="M 184 196 104 186"/>
<path stroke-width="1" stroke="black" d="M 184 196 93 151"/>
<path stroke-width="1" stroke="black" d="M 184 196 167 115"/>
<path stroke-width="1" stroke="black" d="M 119 228 93 179"/>
<path stroke-width="1" stroke="black" d="M 119 228 112 256"/>
<path stroke-width="1" stroke="black" d="M 119 228 184 196"/>
<path stroke-width="1" stroke="black" d="M 119 228 167 115"/>
<path stroke-width="1" stroke="black" d="M 119 228 93 151"/>
<path stroke-width="1" stroke="black" d="M 119 228 104 186"/>
<path stroke-width="1" stroke="black" d="M 119 228 128 143"/>
<path stroke-width="1" stroke="black" d="M 119 228 124 184"/>
<path stroke-width="1" stroke="black" d="M 119 228 337 203"/>
<path stroke-width="1" stroke="black" d="M 221 201 184 196"/>
<path stroke-width="1" stroke="black" d="M 184 196 126 172"/>
<path stroke-width="1" stroke="black" d="M 184 196 121 173"/>
<path stroke-width="1" stroke="black" d="M 184 196 93 179"/>
<path stroke-width="1" stroke="black" d="M 184 196 119 228"/>
<path stroke-width="1" stroke="black" d="M 184 196 221 201"/>
<path stroke-width="1" stroke="black" d="M 55 135 214 151"/>
<path stroke-width="1" stroke="black" d="M 55 135 20 172"/>
<circle cx="127" cy="176" r="7.0" style="fill:gray;stroke:black;stroke-width:1.0"/>
<circle cx="126" cy="172" r="7.0" style="fill:gray;stroke:black;stroke-width:1.0"/>
<circle cx="118" cy="179" r="7.0" style="fill:gray;stroke:black;stroke-width:1.0"/>
<circle cx="121" cy="173" r="7.0" style="fill:gray;stroke:black;stroke-width:1.0"/>
<circle cx="76" cy="183" r="7.0" style="fill:gray;stroke:black;stroke-width:1.0"/>
<circle cx="93" cy="179" r="7.0" style="fill:gray;stroke:black;stroke-width:1.0"/>
<circle cx="112" cy="256" r="7.0" style="fill:gray;stroke:black;stroke-width:1.0"/>
<circle cx="119" cy="228" r="7.0" style="fill:gray;stroke:black;stroke-width:1.0"/>
<circle cx="221" cy="201" r="7.0" style="fill:gray;stroke:black;stroke-width:1.0"/>
<circle cx="184" cy="196" r="7.0" style="fill:gray;stroke:black;stroke-width:1.0"/>
<circle cx="199" cy="67" r="7.0" style="fill:gray;stroke:black;stroke-width:1.0"/>
<circle cx="167" cy="115" r="7.0" style="fill:gray;stroke:black;stroke-width:1.0"/>
<circle cx="70" cy="104" r="7.0" style="fill:gray;stroke:black;stroke-width:1.0"/>
<circle cx="93" cy="151" r="7.0" style="fill:gray;stroke:black;stroke-width:1.0"/>
<circle cx="55" cy="181" r="7.0" style="fill:gray;stroke:black;stroke-width:1.0"/>
<circle cx="104" cy="186" r="7.0" style="fill:gray;stroke:black;stroke-width:1.0"/>
<circle cx="150" cy="20" r="7.0" style="fill:gray;stroke:black;stroke-width:1.0"/>
<circle cx="128" cy="143" r="7.0" style="fill:gray;stroke:black;stroke-width:1.0"/>
<circle cx="122" cy="186" r="7.0" style="fill:gray;stroke:black;stroke-width:1.0"/>
<circle cx="124" cy="184" r="7.0" style="fill:gray;stroke:black;stroke-width:1.0"/>
<circle cx="100" cy="287" r="7.0" style="fill:gray;stroke:black;stroke-width:1.0"/>
<circle cx="133" cy="229" r="7.0" style="fill:gray;stroke:black;stroke-width:1.0"/>
<circle cx="420" cy="169" r="7.0" style="fill:gray;stroke:black;stroke-width:1.0"/>
<circle cx="337" cy="203" r="7.0" style="fill:gray;stroke:black;stroke-width:1.0"/>
<circle cx="151" cy="320" r="7.0" style="fill:gray;stroke:black;stroke-width:1.0"/>
<circle cx="226" cy="292" r="7.0" style="fill:gray;stroke:black;stroke-width:1.0"/>
<circle cx="174" cy="132" r="7.0" style="fill:gray;stroke:black;stroke-width:1.0"/>
<circle cx="214" cy="151" r="7.0" style="fill:gray;stroke:black;stroke-width:1.0"/>
<circle cx="20" cy="172" r="7.0" style="fill:gray;stroke:black;stroke-width:1.0"/>
<circle cx="55" cy="135" r="7.0" style="fill:gray;stroke:black;stroke-width:1.0"/>
</svg>
