<svg width="440" height="340" xmlns="http://www.w3.org/2000/svg">
<path stroke-width="1" stroke="black" d="M 309 203 312 198"/>
<path stroke-width="1" stroke="black" d="M 307 160 309 207"/>
<path stroke-width="1" stroke="black" d="M 307 160 107 225"/>
<path stroke-width="1" stroke="black" d="M 291 82 299 177"/>
<path stroke-width="1" stroke="black" d="M 299 177 312 198"/>
<path stroke-width="1" stroke="black" d="M 299 177 298 199"/>
<path stroke-width="1" stroke="black" d="M 299 177 283 204"/>
<path stroke-width="1" stroke="black" d="M 307 160 299 177"/>
<path stroke-width="1" stroke="black" d="M 299 177 318 180"/>
<path stroke-width="1" stroke="black" d="M 299 177 373 137"/>
<path stroke-width="1" stroke="black" d="M 299 177 310 252"/>
<path stroke-width="1" stroke="black" d="M 299 177 307 160"/>
<path stroke-width="1" stroke="black" d="M 299 177 291 82"/>
<path stroke-width="1" stroke="black" d="M 299 177 309 207"/>
<path stroke-width="1" stroke="black" d="M 299 177 107 225"/>
<path stroke-width="1" stroke="black" d="M 299 177 371 252"/>
<path stroke-width="1" stroke="black" d="M 308 209 309 207"/>
<path stroke-width="1" stroke="black" d="M 307 160 334 64"/>
<path stroke-width="1" stroke="black" d="M 307 160 373 137"/>
<path stroke-width="1" stroke="black" d="M 310 252 318 180"/>
<path stroke-width="1" stroke="black" d="M 310 252 371 252"/>
<path stroke-width="1" stroke="black" d="M 310 252 373 137"/>
<path stroke-width="1" stroke="black" d="M 310 252 331 320"/>
<path stroke-width="1" stroke="black" d="M 310 252 307 160"/>
<path stroke-width="1" stroke="black" d="M 310 252 299 177"/>
<path stroke-width="1" stroke="black" d="M 307 160 310 252"/>
<path stroke-width="1" stroke="black" d="M 310 252 309 207"/>
<path stroke-width="1" stroke="black" d="M 334 64 307 160"/>
<path stroke-width="1" stroke="black" d="M 307 160 312 198"/>
<path stroke-width="1" stroke="black" d="M 307 160 298 199"/>
<path stroke-width="1" stroke="black" d="M 307 160 283 204"/>
<path stroke-width="1" stroke="black" d="M 307 160 318 180"/>
<path stroke-width="1" stroke="black" d="M 307 160 371 252"/>
<path stroke-width="1" stroke="black" d="M 310 252 107 225"/>
<path stroke-width="1" stroke="black" d="M 310 252 283 204"/>
<path stroke-width="1" stroke="black" d="M 309 207 312 198"/>
<path stroke-width="1" stroke="black" d="M 309 207 283 204"/>
<path stroke-width="1" stroke="black" d="M 383 20 413 80"/>
<path stroke-width="1" stroke="black" d="M 413 80 371 252"/>
<path stroke-width="1" stroke="black" d="M 413 80 310 200"/>
<path stroke-width="1" stroke="black" d="M 413 80 383 20"/>
<path stroke-width="1" stroke="black" d="M 413 80 365 155"/>
<path stroke-width="1" stroke="black" d="M 419 199 365 155"/>
<path stroke-width="1" stroke="black" d="M 310 200 413 80"/>
<path stroke-width="1" stroke="black" d="M 365 155 373 137"/>
<path stroke-width="1" stroke="black" d="M 365 155 419 199"/>
<path stroke-width="1" stroke="black" d="M 365 155 107 225"/>
<path stroke-width="1" stroke="black" d="M 20 264 107 225"/>
<path stroke-width="1" stroke="black" d="M 107 225 310 252"/>
<path stroke-width="1" stroke="black" d="M 107 225 307 160"/>
<path stroke-width="1" stroke="black" d="M 107 225 299 177"/>
<path stroke-width="1" stroke="black" d="M 365 155 413 80"/>
<path stroke-width="1" stroke="black" d="M 309 207 298 199"/>
<path stroke-width="1" stroke="black" d="M 310 200 290 240"/>
<path stroke-width="1" stroke="black" d="M 310 200 318 180"/>
<path stroke-width="1" stroke="black" d="M 309 207 318 180"/>
<path stroke-width="1" stroke="black" d="M 309 207 371 252"/>
<path stroke-width="1" stroke="black" d="M 309 207 373 137"/>
<path stroke-width="1" stroke="black" d="M 309 207 310 252"/>
<path stroke-width="1" stroke="black" d="M 309 207 307 160"/>
<path stroke-width="1" stroke="black" d="M 309 207 299 177"/>
<path stroke-width="1" stroke="black" d="M 310 200 137 280"/>
<path stroke-width="1" stroke="black" d="M 309 207 308 209"/>
<path stroke-width="1" stroke="black" d="M 47 274 137 280"/>
<path stroke-width="1" stroke="black" d="M 137 280 283 204"/>
<path stroke-width="1" stroke="black" d="M 137 280 309 207"/>
<path stroke-width="1" stroke="black" d="M 137 280 47 274"/>
<path stroke-width="1" stroke="black" d="M 137 280 310 200"/>
<path stroke-width="1" stroke="black" d="M 290 240 310 200"/>
<path stroke-width="1" stroke="black" d="M 309 207 137 280"/>
<path stroke-width="1" stroke="black" d="M 310 252 298 199"/>
<path stroke-width="1" stroke="black" d="M 310 252 312 198"/>
<path stroke-width="1" stroke="black" d="M 331 320 310 252"/>
<path stroke-width="1" stroke="black" d="M 298 199 307 160"/>
<path stroke-width="1" stroke="black" d="M 298 199 299 177"/>
<path stroke-width="1" stroke="black" d="M 298 199 309 207"/>
<path stroke-width="1" stroke="black" d="M 270 206 283 204"/>
<path stroke-width="1" stroke="black" d="M 283 204 312 198"/>
<path stroke-width="1" stroke="black" d="M 283 204 298 199"/>
<path stroke-width="1" stroke="black" d="M 298 199 310 252"/>
<path stroke-width="1" stroke="black" d="M 283 204 270 206"/>
<path stroke-width="1" stroke="black" d="M 283 204 371 252"/>
<path stroke-width="1" stroke="black" d="M 283 204 373 137"/>
<path stroke-width="1" stroke="black" d="M 283 204 310 252"/>
<path stroke-width="1" stroke="black" d="M 283 204 307 160"/>
<path stroke-width="1" stroke="black" d="M 283 204 299 177"/>
<path stroke-width="1" stroke="black" d="M 283 204 309 207"/>
<path stroke-width="1" stroke="black" d="M 283 204 318 180"/>
<path stroke-width="1" stroke="black" d="M 283 204 137 280"/>
<path stroke-width="1" stroke="black" d="M 298 199 373 137"/>
<path stroke-width="1" stroke="black" d="M 298 199 318 180"/>
<path stroke-width="1" stroke="black" d="M 312 198 309 203"/>
<path stroke-width="1" stroke="black" d="M 312 198 298 199"/>
<path stroke-width="1" stroke="black" d="M 312 198 283 204"/>
<path stroke-width="1" stroke="black" d="M 312 198 318 180"/>
<path stroke-width="1" stroke="black" d="M 312 198 371 252"/>
<path stroke-width="1" stroke="black" d="M 312 198 373 137"/>
<path stroke-width="1" stroke="black" d="M 298 199 371 252"/>
<path stroke-width="1" stroke="black" d="M 312 198 310 252"/>
<path stroke-width="1" stroke="black" d="M 312 198 299 177"/>
<path stroke-width="1" stroke="black" d="M 312 198 309 207"/>
<path stroke-width="1" stroke="black" d="M 289 202 298 199"/>
<path stroke-width="1" stroke="black" d="M 298 199 312 198"/>
<path stroke-width="1" stroke="black" d="M 298 199 289 202"/>
<path stroke-width="1" stroke="black" d="M 298 199 283 204"/>
<path stroke-width="1" stroke="black" d="M 312 198 307 160"/>
<path stroke-width="1" stroke="black" d="M 320 166 318 180"/>
<path stroke-width="1" stroke="black" d="M 318 180 312 198"/>
<path stroke-width="1" stroke="black" d="M 318 180 298 199"/>
<path stroke-width="1" stroke="black" d="M 371 252 309 207"/>
<path stroke-width="1" stroke="black" d="M 371 252 413 80"/>
<path stroke-width="1" stroke="black" d="M 420 87 373 137"/>
<path stroke-width="1" stroke="black" d="M 373 137 312 198"/>
<path stroke-width="1" stroke="black" d="M 373 137 298 199"/>
<path stroke-width="1" stroke="black" d="M 373 137 283 204"/>
<path stroke-width="1" stroke="black" d="M 371 252 299 177"/>
<path stroke-width="1" stroke="black" d="M 373 137 318 180"/>
<path stroke-width="1" stroke="black" d="M 373 137 420 87"/>
<path stroke-width="1" stroke="black" d="M 373 137 310 252"/>
<path stroke-width="1" stroke="black" d="M 373 137 307 160"/>
<path stroke-width="1" stroke="black" d="M 373 137 299 177"/>
<path stroke-width="1" stroke="black" d="M 373 137 309 207"/>
<path stroke-width="1" stroke="black" d="M 373 137 365 155"/>
<path stroke-width="1" stroke="black" d="M 373 137 371 252"/>
<path stroke-width="1" stroke="black" d="M 371 252 307 160"/>
<path stroke-width="1" stroke="black" d="M 371 252 310 252"/>
<path stroke-width="1" stroke="black" d="M 371 252 373 137"/>
<path stroke-width="1" stroke="black" d="M 318 180 283 204"/>
<path stroke-width="1" stroke="black" d="M 318 180 320 166"/>
<path stroke-width="1" stroke="black" d="M 318 180 371 252"/>
<path stroke-width="1" stroke="black" d="M 318 180 373 137"/>
<path stroke-width="1" stroke="black" d="M 318 180 310 252"/>
<path stroke-width="1" stroke="black" d="M 318 180 307 160"/>
<path stroke-width="1" stroke="black" d="M 318 180 299 177"/>
<path stroke-width="1" stroke="black" d="M 318 180 309 207"/>
<path stroke-width="1" stroke="black" d="M 318 180 310 200"/>
<path stroke-width="1" stroke="black" d="M 403 288 371 252"/>
<path stroke-width="1" stroke="black" d="M 371 252 312 198"/>
<path stroke-width="1" stroke="black" d="M 371 252 298 199"/>
<path stroke-width="1" stroke="black" d="M 371 252 283 204"/>
<path stroke-width="1" stroke="black" d="M 371 252 318 180"/>
<path stroke-width="1" stroke="black" d="M 371 252 403 288"/>
<path stroke-width="1" stroke="black" d="M 107 225 365 155"/>
<path stroke-width="1" stroke="black" d="M 107 225 20 264"/>
<circle cx="309" cy="203" r="7.0" style="fill:gray;stroke:black;stroke-width:1.0"/>
<circle cx="312" cy="198" r="7.0" style="fill:gray;stroke:black;stroke-width:1.0"/>
<circle cx="289" cy="202" r="7.0" style="fill:gray;stroke:black;stroke-width:1.0"/>
<circle cx="298" cy="199" r="7.0" style="fill:gray;stroke:black;stroke-width:1.0"/>
<circle cx="270" cy="206" r="7.0" style="fill:gray;stroke:black;stroke-width:1.0"/>
<circle cx="283" cy="204" r="7.0" style="fill:gray;stroke:black;stroke-width:1.0"/>
<circle cx="320" cy="166" r="7.0" style="fill:gray;stroke:black;stroke-width:1.0"/>
<circle cx="318" cy="180" r="7.0" style="fill:gray;stroke:black;stroke-width:1.0"/>
<circle cx="403" cy="288" r="7.0" style="fill:gray;stroke:black;stroke-width:1.0"/>
<circle cx="371" cy="252" r="7.0" style="fill:gray;stroke:black;stroke-width:1.0"/>
<circle cx="420" cy="87" r="7.0" style="fill:gray;stroke:black;stroke-width:1.0"/>
<circle cx="373" cy="137" r="7.0" style="fill:gray;stroke:black;stroke-width:1.0"/>
<circle cx="331" cy="320" r="7.0" style="fill:gray;stroke:black;stroke-width:1.0"/>
<circle cx="310" cy="252" r="7.0" style="fill:gray;stroke:black;stroke-width:1.0"/>
<circle cx="334" cy="64" r="7.0" style="fill:gray;stroke:black;stroke-width:1.0"/>
<circle cx="307" cy="160" r="7.0" style="fill:gray;stroke:black;stroke-width:1.0"/>
<circle cx="291" cy="82" r="7.0" style="fill:gray;stroke:black;stroke-width:1.0"/>
<circle cx="299" cy="177" r="7.0" style="fill:gray;stroke:black;stroke-width:1.0"/>
<circle cx="308" cy="209" r="7.0" style="fill:gray;stroke:black;stroke-width:1.0"/>
<circle cx="309" cy="207" r="7.0" style="fill:gray;stroke:black;stroke-width:1.0"/>
<circle cx="47" cy="274" r="7.0" style="fill:gray;stroke:black;stroke-width:1.0"/>
<circle cx="137" cy="280" r="7.0" style="fill:gray;stroke:black;stroke-width:1.0"/>
<circle cx="290" cy="240" r="7.0" style="fill:gray;stroke:black;stroke-width:1.0"/>
<circle cx="310" cy="200" r="7.0" style="fill:gray;stroke:black;stroke-width:1.0"/>
<circle cx="383" cy="20" r="7.0" style="fill:gray;stroke:black;stroke-width:1.0"/>
<circle cx="413" cy="80" r="7.0" style="fill:gray;stroke:black;stroke-width:1.0"/>
<circle cx="419" cy="199" r="7.0" style="fill:gray;stroke:black;stroke-width:1.0"/>
<circle cx="365" cy="155" r="7.0" style="fill:gray;stroke:black;stroke-width:1.0"/>
<circle cx="20" cy="264" r="7.0" style="fill:gray;stroke:black;stroke-width:1.0"/>
<circle cx="107" cy="225" r="7.0" style="fill:gray;stroke:black;stroke-width:1.0"/>
</svg>
