<svg width="440" height="340" xmlns="http://www.w3.org/2000/svg">
<path stroke-width="1" stroke="black" d="M 299 191 297 193"/>
<path stroke-width="1" stroke="black" d="M 265 218 295 196"/>
<path stroke-width="1" stroke="black" d="M 265 218 200 35"/>
<path stroke-width="1" stroke="black" d="M 340 126 301 179"/>
<path stroke-width="1" stroke="black" d="M 301 179 297 193"/>
<path stroke-width="1" stroke="black" d="M 301 179 299 190"/>
<path stroke-width="1" stroke="black" d="M 301 179 277 197"/>
<path stroke-width="1" stroke="black" d="M 265 218 301 179"/>
<path stroke-width="1" stroke="black" d="M 301 179 268 203"/>
<path stroke-width="1" stroke="black" d="M 301 179 366 130"/>
<path stroke-width="1" stroke="black" d="M 301 179 255 200"/>
<path stroke-width="1" stroke="black" d="M 301 179 265 218"/>
<path stroke-width="1" stroke="black" d="M 301 179 340 126"/>
<path stroke-width="1" stroke="black" d="M 301 179 295 196"/>
<path stroke-width="1" stroke="black" d="M 301 179 200 35"/>
<path stroke-width="1" stroke="black" d="M 301 179 309 273"/>
<path stroke-width="1" stroke="black" d="M 297 195 295 196"/>
<path stroke-width="1" stroke="black" d="M 265 218 201 285"/>
<path stroke-width="1" stroke="black" d="M 265 218 366 130"/>
<path stroke-width="1" stroke="black" d="M 255 200 268 203"/>
<path stroke-width="1" stroke="black" d="M 255 200 309 273"/>
<path stroke-width="1" stroke="black" d="M 255 200 366 130"/>
<path stroke-width="1" stroke="black" d="M 255 200 207 235"/>
<path stroke-width="1" stroke="black" d="M 255 200 265 218"/>
<path stroke-width="1" stroke="black" d="M 255 200 301 179"/>
<path stroke-width="1" stroke="black" d="M 265 218 255 200"/>
<path stroke-width="1" stroke="black" d="M 255 200 295 196"/>
<path stroke-width="1" stroke="black" d="M 201 285 265 218"/>
<path stroke-width="1" stroke="black" d="M 265 218 297 193"/>
<path stroke-width="1" stroke="black" d="M 265 218 299 190"/>
<path stroke-width="1" stroke="black" d="M 265 218 277 197"/>
<path stroke-width="1" stroke="black" d="M 265 218 268 203"/>
<path stroke-width="1" stroke="black" d="M 265 218 309 273"/>
<path stroke-width="1" stroke="black" d="M 255 200 200 35"/>
<path stroke-width="1" stroke="black" d="M 255 200 277 197"/>
<path stroke-width="1" stroke="black" d="M 295 196 297 193"/>
<path stroke-width="1" stroke="black" d="M 295 196 277 197"/>
<path stroke-width="1" stroke="black" d="M 281 298 254 237"/>
<path stroke-width="1" stroke="black" d="M 254 237 309 273"/>
<path stroke-width="1" stroke="black" d="M 254 237 90 179"/>
<path stroke-width="1" stroke="black" d="M 254 237 281 298"/>
<path stroke-width="1" stroke="black" d="M 254 237 330 90"/>
<path stroke-width="1" stroke="black" d="M 309 107 330 90"/>
<path stroke-width="1" stroke="black" d="M 90 179 254 237"/>
<path stroke-width="1" stroke="black" d="M 330 90 366 130"/>
<path stroke-width="1" stroke="black" d="M 330 90 309 107"/>
<path stroke-width="1" stroke="black" d="M 330 90 200 35"/>
<path stroke-width="1" stroke="black" d="M 149 20 200 35"/>
<path stroke-width="1" stroke="black" d="M 200 35 255 200"/>
<path stroke-width="1" stroke="black" d="M 200 35 265 218"/>
<path stroke-width="1" stroke="black" d="M 200 35 301 179"/>
<path stroke-width="1" stroke="black" d="M 330 90 254 237"/>
<path stroke-width="1" stroke="black" d="M 295 196 299 190"/>
<path stroke-width="1" stroke="black" d="M 90 179 20 183"/>
<path stroke-width="1" stroke="black" d="M 90 179 268 203"/>
<path stroke-width="1" stroke="black" d="M 295 196 268 203"/>
<path stroke-width="1" stroke="black" d="M 295 196 309 273"/>
<path stroke-width="1" stroke="black" d="M 295 196 366 130"/>
<path stroke-width="1" stroke="black" d="M 295 196 255 200"/>
<path stroke-width="1" stroke="black" d="M 295 196 265 218"/>
<path stroke-width="1" stroke="black" d="M 295 196 301 179"/>
<path stroke-width="1" stroke="black" d="M 90 179 197 89"/>
<path stroke-width="1" stroke="black" d="M 295 196 297 195"/>
<path stroke-width="1" stroke="black" d="M 231 65 197 89"/>
<path stroke-width="1" stroke="black" d="M 197 89 277 197"/>
<path stroke-width="1" stroke="black" d="M 197 89 295 196"/>
<path stroke-width="1" stroke="black" d="M 197 89 231 65"/>
<path stroke-width="1" stroke="black" d="M 197 89 90 179"/>
<path stroke-width="1" stroke="black" d="M 20 183 90 179"/>
<path stroke-width="1" stroke="black" d="M 295 196 197 89"/>
<path stroke-width="1" stroke="black" d="M 255 200 299 190"/>
<path stroke-width="1" stroke="black" d="M 255 200 297 193"/>
<path stroke-width="1" stroke="black" d="M 207 235 255 200"/>
<path stroke-width="1" stroke="black" d="M 299 190 265 218"/>
<path stroke-width="1" stroke="black" d="M 299 190 301 179"/>
<path stroke-width="1" stroke="black" d="M 299 190 295 196"/>
<path stroke-width="1" stroke="black" d="M 267 203 277 197"/>
<path stroke-width="1" stroke="black" d="M 277 197 297 193"/>
<path stroke-width="1" stroke="black" d="M 277 197 299 190"/>
<path stroke-width="1" stroke="black" d="M 299 190 255 200"/>
<path stroke-width="1" stroke="black" d="M 277 197 267 203"/>
<path stroke-width="1" stroke="black" d="M 277 197 309 273"/>
<path stroke-width="1" stroke="black" d="M 277 197 366 130"/>
<path stroke-width="1" stroke="black" d="M 277 197 255 200"/>
<path stroke-width="1" stroke="black" d="M 277 197 265 218"/>
<path stroke-width="1" stroke="black" d="M 277 197 301 179"/>
<path stroke-width="1" stroke="black" d="M 277 197 295 196"/>
<path stroke-width="1" stroke="black" d="M 277 197 268 203"/>
<path stroke-width="1" stroke="black" d="M 277 197 197 89"/>
<path stroke-width="1" stroke="black" d="M 299 190 366 130"/>
<path stroke-width="1" stroke="black" d="M 299 190 268 203"/>
<path stroke-width="1" stroke="black" d="M 297 193 299 191"/>
<path stroke-width="1" stroke="black" d="M 297 193 299 190"/>
<path stroke-width="1" stroke="black" d="M 297 193 277 197"/>
<path stroke-width="1" stroke="black" d="M 297 193 268 203"/>
<path stroke-width="1" stroke="black" d="M 297 193 309 273"/>
<path stroke-width="1" stroke="black" d="M 297 193 366 130"/>
<path stroke-width="1" stroke="black" d="M 299 190 309 273"/>
<path stroke-width="1" stroke="black" d="M 297 193 255 200"/>
<path stroke-width="1" stroke="black" d="M 297 193 301 179"/>
<path stroke-width="1" stroke="black" d="M 297 193 295 196"/>
<path stroke-width="1" stroke="black" d="M 302 185 299 190"/>
<path stroke-width="1" stroke="black" d="M 299 190 297 193"/>
<path stroke-width="1" stroke="black" d="M 299 190 302 185"/>
<path stroke-width="1" stroke="black" d="M 299 190 277 197"/>
<path stroke-width="1" stroke="black" d="M 297 193 265 218"/>
<path stroke-width="1" stroke="black" d="M 259 213 268 203"/>
<path stroke-width="1" stroke="black" d="M 268 203 297 193"/>
<path stroke-width="1" stroke="black" d="M 268 203 299 190"/>
<path stroke-width="1" stroke="black" d="M 309 273 295 196"/>
<path stroke-width="1" stroke="black" d="M 309 273 254 237"/>
<path stroke-width="1" stroke="black" d="M 420 81 366 130"/>
<path stroke-width="1" stroke="black" d="M 366 130 297 193"/>
<path stroke-width="1" stroke="black" d="M 366 130 299 190"/>
<path stroke-width="1" stroke="black" d="M 366 130 277 197"/>
<path stroke-width="1" stroke="black" d="M 309 273 301 179"/>
<path stroke-width="1" stroke="black" d="M 366 130 268 203"/>
<path stroke-width="1" stroke="black" d="M 366 130 420 81"/>
<path stroke-width="1" stroke="black" d="M 366 130 255 200"/>
<path stroke-width="1" stroke="black" d="M 366 130 265 218"/>
<path stroke-width="1" stroke="black" d="M 366 130 301 179"/>
<path stroke-width="1" stroke="black" d="M 366 130 295 196"/>
<path stroke-width="1" stroke="black" d="M 366 130 330 90"/>
<path stroke-width="1" stroke="black" d="M 366 130 309 273"/>
<path stroke-width="1" stroke="black" d="M 309 273 265 218"/>
<path stroke-width="1" stroke="black" d="M 309 273 255 200"/>
<path stroke-width="1" stroke="black" d="M 309 273 366 130"/>
<path stroke-width="1" stroke="black" d="M 268 203 277 197"/>
<path stroke-width="1" stroke="black" d="M 268 203 259 213"/>
<path stroke-width="1" stroke="black" d="M 268 203 309 273"/>
<path stroke-width="1" stroke="black" d="M 268 203 366 130"/>
<path stroke-width="1" stroke="black" d="M 268 203 255 200"/>
<path stroke-width="1" stroke="black" d="M 268 203 265 218"/>
<path stroke-width="1" stroke="black" d="M 268 203 301 179"/>
<path stroke-width="1" stroke="black" d="M 268 203 295 196"/>
<path stroke-width="1" stroke="black" d="M 268 203 90 179"/>
<path stroke-width="1" stroke="black" d="M 316 320 309 273"/>
<path stroke-width="1" stroke="black" d="M 309 273 297 193"/>
<path stroke-width="1" stroke="black" d="M 309 273 299 190"/>
<path stroke-width="1" stroke="black" d="M 309 273 277 197"/>
<path stroke-width="1" stroke="black" d="M 309 273 268 203"/>
<path stroke-width="1" stroke="black" d="M 309 273 316 320"/>
<path stroke-width="1" stroke="black" d="M 200 35 330 90"/>
<path stroke-width="1" stroke="black" d="M 200 35 149 20"/>
<circle cx="299" cy="191" r="20.0" style="fill:gray;stroke:black;stroke-width:1.0"/>
<circle cx="297" cy="193" r="20.0" style="fill:gray;stroke:black;stroke-width:1.0"/>
<circle cx="302" cy="185" r="20.0" style="fill:gray;stroke:black;stroke-width:1.0"/>
<circle cx="299" cy="190" r="20.0" style="fill:gray;stroke:black;stroke-width:1.0"/>
<circle cx="267" cy="203" r="20.0" style="fill:gray;stroke:black;stroke-width:1.0"/>
<circle cx="277" cy="197" r="20.0" style="fill:gray;stroke:black;stroke-width:1.0"/>
<circle cx="259" cy="213" r="20.0" style="fill:gray;stroke:black;stroke-width:1.0"/>
<circle cx="268" cy="203" r="20.0" style="fill:gray;stroke:black;stroke-width:1.0"/>
<circle cx="316" cy="320" r="20.0" style="fill:gray;stroke:black;stroke-width:1.0"/>
<circle cx="309" cy="273" r="20.0" style="fill:gray;stroke:black;stroke-width:1.0"/>
<circle cx="420" cy="81" r="20.0" style="fill:gray;stroke:black;stroke-width:1.0"/>
<circle cx="366" cy="130" r="20.0" style="fill:gray;stroke:black;stroke-width:1.0"/>
<circle cx="207" cy="235" r="20.0" style="fill:gray;stroke:black;stroke-width:1.0"/>
<circle cx="255" cy="200" r="20.0" style="fill:gray;stroke:black;stroke-width:1.0"/>
<circle cx="201" cy="285" r="20.0" style="fill:gray;stroke:black;stroke-width:1.0"/>
<circle cx="265" cy="218" r="20.0" style="fill:gray;stroke:black;stroke-width:1.0"/>
<circle cx="340" cy="126" r="20.0" style="fill:gray;stroke:black;stroke-width:1.0"/>
<circle cx="301" cy="179" r="20.0" style="fill:gray;stroke:black;stroke-width:1.0"/>
<circle cx="297" cy="195" r="20.0" style="fill:gray;stroke:black;stroke-width:1.0"/>
<circle cx="295" cy="196" r="20.0" style="fill:gray;stroke:black;stroke-width:1.0"/>
<circle cx="231" cy="65" r="20.0" style="fill:gray;stroke:black;stroke-width:1.0"/>
<circle cx="197" cy="89" r="20.0" style="fill:gray;stroke:black;stroke-width:1.0"/>
<circle cx="20" cy="183" r="20.0" style="fill:gray;stroke:black;stroke-width:1.0"/>
<circle cx="90" cy="179" r="20.0" style="fill:gray;stroke:black;stroke-width:1.0"/>
<circle cx="281" cy="298" r="20.0" style="fill:gray;stroke:black;stroke-width:1.0"/>
<circle cx="254" cy="237" r="20.0" style="fill:gray;stroke:black;stroke-width:1.0"/>
<circle cx="309" cy="107" r="20.0" style="fill:gray;stroke:black;stroke-width:1.0"/>
<circle cx="330" cy="90" r="20.0" style="fill:gray;stroke:black;stroke-width:1.0"/>
<circle cx="149" cy="20" r="20.0" style="fill:gray;stroke:black;stroke-width:1.0"/>
<circle cx="200" cy="35" r="20.0" style="fill:gray;stroke:black;stroke-width:1.0"/>
</svg>
