<svg width="440" height="340" xmlns="http://www.w3.org/2000/svg">
<path stroke-width="1" stroke="black" d="M 420 146 271 320"/>
<path stroke-width="1" stroke="black" d="M 403 237 271 320"/>
<path stroke-width="1" stroke="black" d="M 403 237 420 146"/>
<path stroke-width="1" stroke="black" d="M 130 315 351 58"/>
<path stroke-width="1" stroke="black" d="M 130 315 217 20"/>
<path stroke-width="1" stroke="black" d="M 130 315 403 237"/>
<path stroke-width="1" stroke="black" d="M 130 315 61 92"/>
<path stroke-width="1" stroke="black" d="M 130 315 160 224"/>
<path stroke-width="1" stroke="black" d="M 130 315 285 135"/>
<path stroke-width="1" stroke="black" d="M 403 237 20 186"/>
<path stroke-width="1" stroke="black" d="M 130 315 20 186"/>
<path stroke-width="1" stroke="black" d="M 130 315 420 146"/>
<path stroke-width="1" stroke="black" d="M 61 92 351 58"/>
<path stroke-width="1" stroke="black" d="M 61 92 217 20"/>
<path stroke-width="1" stroke="black" d="M 61 92 403 237"/>
<path stroke-width="1" stroke="black" d="M 61 92 130 315"/>
<path stroke-width="1" stroke="black" d="M 61 92 160 224"/>
<path stroke-width="1" stroke="black" d="M 61 92 285 135"/>
<path stroke-width="1" stroke="black" d="M 61 92 20 186"/>
<path stroke-width="1" stroke="black" d="M 130 315 271 320"/>
<path stroke-width="1" stroke="black" d="M 403 237 285 135"/>
<path stroke-width="1" stroke="black" d="M 403 237 160 224"/>
<path stroke-width="1" stroke="black" d="M 403 237 61 92"/>
<path stroke-width="1" stroke="black" d="M 351 58 130 315"/>
<path stroke-width="1" stroke="black" d="M 351 58 61 92"/>
<path stroke-width="1" stroke="black" d="M 351 58 160 224"/>
<path stroke-width="1" stroke="black" d="M 351 58 285 135"/>
<path stroke-width="1" stroke="black" d="M 351 58 20 186"/>
<path stroke-width="1" stroke="black" d="M 351 58 271 320"/>
<path stroke-width="1" stroke="black" d="M 351 58 420 146"/>
<path stroke-width="1" stroke="black" d="M 217 20 351 58"/>
<path stroke-width="1" stroke="black" d="M 217 20 403 237"/>
<path stroke-width="1" stroke="black" d="M 217 20 130 315"/>
<path stroke-width="1" stroke="black" d="M 217 20 61 92"/>
<path stroke-width="1" stroke="black" d="M 217 20 160 224"/>
<path stroke-width="1" stroke="black" d="M 217 20 285 135"/>
<path stroke-width="1" stroke="black" d="M 217 20 20 186"/>
<path stroke-width="1" stroke="black" d="M 217 20 271 320"/>
<path stroke-width="1" stroke="black" d="M 217 20 420 146"/>
<path stroke-width="1" stroke="black" d="M 403 237 351 58"/>
<path stroke-width="1" stroke="black" d="M 403 237 217 20"/>
<path stroke-width="1" stroke="black" d="M 403 237 130 315"/>
<path stroke-width="1" stroke="black" d="M 61 92 271 320"/>
<path stroke-width="1" stroke="black" d="M 61 92 420 146"/>
<path stroke-width="1" stroke="black" d="M 160 224 351 58"/>
<path stroke-width="1" stroke="black" d="M 160 224 217 20"/>
<path stroke-width="1" stroke="black" d="M 20 186 271 320"/>
<path stroke-width="1" stroke="black" d="M 20 186 420 146"/>
<path stroke-width="1" stroke="black" d="M 271 320 351 58"/>
<path stroke-width="1" stroke="black" d="M 271 320 217 20"/>
<path stroke-width="1" stroke="black" d="M 271 320 403 237"/>
<path stroke-width="1" stroke="black" d="M 271 320 130 315"/>
<path stroke-width="1" stroke="black" d="M 271 320 61 92"/>
<path stroke-width="1" stroke="black" d="M 271 320 160 224"/>
<path stroke-width="1" stroke="black" d="M 271 320 285 135"/>
<path stroke-width="1" stroke="black" d="M 271 320 20 186"/>
<path stroke-width="1" stroke="black" d="M 271 320 420 146"/>
<path stroke-width="1" stroke="black" d="M 420 146 351 58"/>
<path stroke-width="1" stroke="black" d="M 420 146 217 20"/>
<path stroke-width="1" stroke="black" d="M 420 146 403 237"/>
<path stroke-width="1" stroke="black" d="M 420 146 130 315"/>
<path stroke-width="1" stroke="black" d="M 420 146 61 92"/>
<path stroke-width="1" stroke="black" d="M 420 146 160 224"/>
<path stroke-width="1" stroke="black" d="M 420 146 285 135"/>
<path stroke-width="1" stroke="black" d="M 420 146 20 186"/>
<path stroke-width="1" stroke="black" d="M 20 186 285 135"/>
<path stroke-width="1" stroke="black" d="M 351 58 403 237"/>
<path stroke-width="1" stroke="black" d="M 20 186 160 224"/>
<path stroke-width="1" stroke="black" d="M 20 186 130 315"/>
<path stroke-width="1" stroke="black" d="M 160 224 403 237"/>
<path stroke-width="1" stroke="black" d="M 160 224 130 315"/>
<path stroke-width="1" stroke="black" d="M 160 224 61 92"/>
<path stroke-width="1" stroke="black" d="M 160 224 285 135"/>
<path stroke-width="1" stroke="black" d="M 160 224 20 186"/>
<path stroke-width="1" stroke="black" d="M 160 224 271 320"/>
<path stroke-width="1" stroke="black" d="M 160 224 420 146"/>
<path stroke-width="1" stroke="black" d="M 285 135 351 58"/>
<path stroke-width="1" stroke="black" d="M 285 135 217 20"/>
<path stroke-width="1" stroke="black" d="M 285 135 403 237"/>
<path stroke-width="1" stroke="black" d="M 285 135 130 315"/>
<path stroke-width="1" stroke="black" d="M 285 135 61 92"/>
<path stroke-width="1" stroke="black" d="M 285 135 160 224"/>
<path stroke-width="1" stroke="black" d="M 285 135 20 186"/>
<path stroke-width="1" stroke="black" d="M 285 135 271 320"/>
<path stroke-width="1" stroke="black" d="M 285 135 420 146"/>
<path stroke-width="1" stroke="black" d="M 20 186 351 58"/>
<path stroke-width="1" stroke="black" d="M 20 186 217 20"/>
<path stroke-width="1" stroke="black" d="M 20 186 403 237"/>
<path stroke-width="1" stroke="black" d="M 20 186 61 92"/>
<path stroke-width="1" stroke="black" d="M 351 58 217 20"/>
<circle cx="420" cy="146" r="7.0" style="fill:gray;stroke:black;stroke-width:1.0"/>
<circle cx="271" cy="320" r="7.0" style="fill:gray;stroke:black;stroke-width:1.0"/>
<circle cx="20" cy="186" r="7.0" style="fill:gray;stroke:black;stroke-width:1.0"/>
<circle cx="285" cy="135" r="7.0" style="fill:gray;stroke:black;stroke-width:1.0"/>
<circle cx="160" cy="224" r="7.0" style="fill:gray;stroke:black;stroke-width:1.0"/>
<circle cx="61" cy="92" r="7.0" style="fill:gray;stroke:black;stroke-width:1.0"/>
<circle cx="130" cy="315" r="7.0" style="fill:gray;stroke:black;stroke-width:1.0"/>
<circle cx="403" cy="237" r="7.0" style="fill:gray;stroke:black;stroke-width:1.0"/>
<circle cx="217" cy="20" r="7.0" style="fill:gray;stroke:black;stroke-width:1.0"/>
<circle cx="351" cy="58" r="7.0" style="fill:gray;stroke:black;stroke-width:1.0"/>
</svg>
