<svg width="440" height="340" xmlns="http://www.w3.org/2000/svg">
<path stroke-width="20.0" stroke="black" d="M 197 219 313 267"/>
<path stroke-width="0.5" stroke="black" d="M 400 105 24 203"/>
<path stroke-width="0.5" stroke="black" d="M 400 105 420 225"/>
<path stroke-width="0.5" stroke="black" d="M 400 105 264 99"/>
<path stroke-width="0.5" stroke="black" d="M 400 105 25 209"/>
<path stroke-width="0.5" stroke="black" d="M 400 105 362 289"/>
<path stroke-width="0.5" stroke="black" d="M 400 105 313 267"/>
<path stroke-width="20.0" stroke="black" d="M 400 105 197 219"/>
<path stroke-width="0.5" stroke="black" d="M 246 320 185 295"/>
<path stroke-width="0.5" stroke="black" d="M 246 320 62 270"/>
<path stroke-width="0.5" stroke="black" d="M 246 320 154 253"/>
<path stroke-width="0.5" stroke="black" d="M 400 105 151 56"/>
<path stroke-width="0.5" stroke="black" d="M 246 320 346 50"/>
<path stroke-width="0.5" stroke="black" d="M 246 320 151 51"/>
<path stroke-width="0.5" stroke="black" d="M 246 320 400 105"/>
<path stroke-width="0.5" stroke="black" d="M 246 320 395 179"/>
<path stroke-width="0.5" stroke="black" d="M 246 320 258 20"/>
<path stroke-width="0.5" stroke="black" d="M 246 320 145 171"/>
<path stroke-width="0.5" stroke="black" d="M 246 320 256 213"/>
<path stroke-width="0.5" stroke="black" d="M 246 320 20 137"/>
<path stroke-width="0.5" stroke="black" d="M 246 320 151 56"/>
<path stroke-width="0.5" stroke="black" d="M 246 320 24 203"/>
<path stroke-width="0.5" stroke="black" d="M 246 320 420 225"/>
<path stroke-width="0.5" stroke="black" d="M 246 320 70 98"/>
<path stroke-width="0.5" stroke="black" d="M 246 320 264 99"/>
<path stroke-width="0.5" stroke="black" d="M 400 105 20 137"/>
<path stroke-width="0.5" stroke="black" d="M 400 105 145 171"/>
<path stroke-width="0.5" stroke="black" d="M 151 51 395 179"/>
<path stroke-width="0.5" stroke="black" d="M 151 51 258 20"/>
<path stroke-width="0.5" stroke="black" d="M 151 51 145 171"/>
<path stroke-width="0.5" stroke="black" d="M 151 51 256 213"/>
<path stroke-width="0.5" stroke="black" d="M 151 51 20 137"/>
<path stroke-width="0.5" stroke="black" d="M 151 51 151 56"/>
<path stroke-width="0.5" stroke="black" d="M 151 51 24 203"/>
<path stroke-width="0.5" stroke="black" d="M 151 51 420 225"/>
<path stroke-width="0.5" stroke="black" d="M 151 51 264 99"/>
<path stroke-width="0.5" stroke="black" d="M 151 51 25 209"/>
<path stroke-width="0.5" stroke="black" d="M 400 105 256 213"/>
<path stroke-width="0.5" stroke="black" d="M 151 51 362 289"/>
<path stroke-width="20.0" stroke="black" d="M 151 51 197 219"/>
<path stroke-width="0.5" stroke="black" d="M 400 105 185 295"/>
<path stroke-width="0.5" stroke="black" d="M 400 105 62 270"/>
<path stroke-width="0.5" stroke="black" d="M 400 105 154 253"/>
<path stroke-width="0.5" stroke="black" d="M 400 105 346 50"/>
<path stroke-width="0.5" stroke="black" d="M 400 105 70 98"/>
<path stroke-width="0.5" stroke="black" d="M 400 105 151 51"/>
<path stroke-width="0.5" stroke="black" d="M 400 105 246 320"/>
<path stroke-width="0.5" stroke="black" d="M 400 105 395 179"/>
<path stroke-width="0.5" stroke="black" d="M 400 105 258 20"/>
<path stroke-width="0.5" stroke="black" d="M 151 51 313 267"/>
<path stroke-width="0.5" stroke="black" d="M 246 320 25 209"/>
<path stroke-width="0.5" stroke="black" d="M 246 320 362 289"/>
<path stroke-width="0.5" stroke="black" d="M 246 320 313 267"/>
<path stroke-width="0.5" stroke="black" d="M 258 20 400 105"/>
<path stroke-width="0.5" stroke="black" d="M 258 20 246 320"/>
<path stroke-width="0.5" stroke="black" d="M 258 20 395 179"/>
<path stroke-width="0.5" stroke="black" d="M 258 20 145 171"/>
<path stroke-width="0.5" stroke="black" d="M 258 20 256 213"/>
<path stroke-width="0.5" stroke="black" d="M 258 20 20 137"/>
<path stroke-width="0.5" stroke="black" d="M 258 20 151 56"/>
<path stroke-width="0.5" stroke="black" d="M 258 20 24 203"/>
<path stroke-width="0.5" stroke="black" d="M 258 20 420 225"/>
<path stroke-width="0.5" stroke="black" d="M 258 20 264 99"/>
<path stroke-width="0.5" stroke="black" d="M 258 20 151 51"/>
<path stroke-width="0.5" stroke="black" d="M 258 20 25 209"/>
<path stroke-width="0.5" stroke="black" d="M 258 20 313 267"/>
<path stroke-width="20.0" stroke="black" d="M 258 20 197 219"/>
<path stroke-width="0.5" stroke="black" d="M 145 171 185 295"/>
<path stroke-width="0.5" stroke="black" d="M 145 171 62 270"/>
<path stroke-width="0.5" stroke="black" d="M 145 171 154 253"/>
<path stroke-width="0.5" stroke="black" d="M 145 171 346 50"/>
<path stroke-width="0.5" stroke="black" d="M 145 171 70 98"/>
<path stroke-width="0.5" stroke="black" d="M 145 171 151 51"/>
<path stroke-width="0.5" stroke="black" d="M 145 171 400 105"/>
<path stroke-width="0.5" stroke="black" d="M 145 171 246 320"/>
<path stroke-width="0.5" stroke="black" d="M 258 20 362 289"/>
<path stroke-width="0.5" stroke="black" d="M 258 20 70 98"/>
<path stroke-width="0.5" stroke="black" d="M 258 20 346 50"/>
<path stroke-width="0.5" stroke="black" d="M 258 20 154 253"/>
<path stroke-width="20.0" stroke="black" d="M 246 320 197 219"/>
<path stroke-width="0.5" stroke="black" d="M 395 179 185 295"/>
<path stroke-width="0.5" stroke="black" d="M 395 179 62 270"/>
<path stroke-width="0.5" stroke="black" d="M 395 179 154 253"/>
<path stroke-width="0.5" stroke="black" d="M 395 179 346 50"/>
<path stroke-width="0.5" stroke="black" d="M 395 179 70 98"/>
<path stroke-width="0.5" stroke="black" d="M 395 179 151 51"/>
<path stroke-width="0.5" stroke="black" d="M 395 179 400 105"/>
<path stroke-width="0.5" stroke="black" d="M 395 179 246 320"/>
<path stroke-width="0.5" stroke="black" d="M 395 179 258 20"/>
<path stroke-width="0.5" stroke="black" d="M 395 179 145 171"/>
<path stroke-width="0.5" stroke="black" d="M 395 179 256 213"/>
<path stroke-width="0.5" stroke="black" d="M 395 179 20 137"/>
<path stroke-width="0.5" stroke="black" d="M 395 179 151 56"/>
<path stroke-width="0.5" stroke="black" d="M 395 179 24 203"/>
<path stroke-width="0.5" stroke="black" d="M 395 179 420 225"/>
<path stroke-width="0.5" stroke="black" d="M 395 179 264 99"/>
<path stroke-width="0.5" stroke="black" d="M 395 179 25 209"/>
<path stroke-width="0.5" stroke="black" d="M 395 179 362 289"/>
<path stroke-width="0.5" stroke="black" d="M 395 179 313 267"/>
<path stroke-width="20.0" stroke="black" d="M 395 179 197 219"/>
<path stroke-width="0.5" stroke="black" d="M 258 20 185 295"/>
<path stroke-width="0.5" stroke="black" d="M 258 20 62 270"/>
<path stroke-width="0.5" stroke="black" d="M 151 51 246 320"/>
<path stroke-width="0.5" stroke="black" d="M 145 171 395 179"/>
<path stroke-width="0.5" stroke="black" d="M 151 51 400 105"/>
<path stroke-width="0.5" stroke="black" d="M 151 51 346 50"/>
<path stroke-width="0.5" stroke="black" d="M 62 270 258 20"/>
<path stroke-width="0.5" stroke="black" d="M 62 270 145 171"/>
<path stroke-width="0.5" stroke="black" d="M 62 270 256 213"/>
<path stroke-width="0.5" stroke="black" d="M 62 270 20 137"/>
<path stroke-width="0.5" stroke="black" d="M 62 270 151 56"/>
<path stroke-width="0.5" stroke="black" d="M 62 270 24 203"/>
<path stroke-width="0.5" stroke="black" d="M 62 270 420 225"/>
<path stroke-width="0.5" stroke="black" d="M 62 270 264 99"/>
<path stroke-width="0.5" stroke="black" d="M 62 270 25 209"/>
<path stroke-width="0.5" stroke="black" d="M 62 270 362 289"/>
<path stroke-width="0.5" stroke="black" d="M 62 270 395 179"/>
<path stroke-width="0.5" stroke="black" d="M 62 270 313 267"/>
<path stroke-width="0.5" stroke="black" d="M 154 253 185 295"/>
<path stroke-width="0.5" stroke="black" d="M 154 253 62 270"/>
<path stroke-width="0.5" stroke="black" d="M 154 253 346 50"/>
<path stroke-width="0.5" stroke="black" d="M 154 253 70 98"/>
<path stroke-width="0.5" stroke="black" d="M 154 253 151 51"/>
<path stroke-width="0.5" stroke="black" d="M 154 253 400 105"/>
<path stroke-width="0.5" stroke="black" d="M 154 253 246 320"/>
<path stroke-width="0.5" stroke="black" d="M 154 253 395 179"/>
<path stroke-width="0.5" stroke="black" d="M 154 253 258 20"/>
<path stroke-width="0.5" stroke="black" d="M 154 253 145 171"/>
<path stroke-width="20.0" stroke="black" d="M 62 270 197 219"/>
<path stroke-width="0.5" stroke="black" d="M 154 253 256 213"/>
<path stroke-width="0.5" stroke="black" d="M 62 270 246 320"/>
<path stroke-width="0.5" stroke="black" d="M 62 270 151 51"/>
<path stroke-width="0.5" stroke="black" d="M 185 295 346 50"/>
<path stroke-width="0.5" stroke="black" d="M 185 295 70 98"/>
<path stroke-width="0.5" stroke="black" d="M 185 295 151 51"/>
<path stroke-width="0.5" stroke="black" d="M 185 295 400 105"/>
<path stroke-width="0.5" stroke="black" d="M 185 295 246 320"/>
<path stroke-width="0.5" stroke="black" d="M 185 295 395 179"/>
<path stroke-width="0.5" stroke="black" d="M 185 295 258 20"/>
<path stroke-width="0.5" stroke="black" d="M 185 295 145 171"/>
<path stroke-width="0.5" stroke="black" d="M 185 295 256 213"/>
<path stroke-width="0.5" stroke="black" d="M 185 295 20 137"/>
<path stroke-width="0.5" stroke="black" d="M 62 270 400 105"/>
<path stroke-width="0.5" stroke="black" d="M 185 295 151 56"/>
<path stroke-width="0.5" stroke="black" d="M 185 295 420 225"/>
<path stroke-width="0.5" stroke="black" d="M 185 295 264 99"/>
<path stroke-width="0.5" stroke="black" d="M 185 295 25 209"/>
<path stroke-width="0.5" stroke="black" d="M 185 295 362 289"/>
<path stroke-width="0.5" stroke="black" d="M 185 295 313 267"/>
<path stroke-width="20.0" stroke="black" d="M 185 295 197 219"/>
<path stroke-width="0.5" stroke="black" d="M 62 270 185 295"/>
<path stroke-width="0.5" stroke="black" d="M 62 270 154 253"/>
<path stroke-width="0.5" stroke="black" d="M 62 270 346 50"/>
<path stroke-width="0.5" stroke="black" d="M 62 270 70 98"/>
<path stroke-width="0.5" stroke="black" d="M 185 295 24 203"/>
<path stroke-width="0.5" stroke="black" d="M 154 253 20 137"/>
<path stroke-width="0.5" stroke="black" d="M 154 253 151 56"/>
<path stroke-width="0.5" stroke="black" d="M 154 253 24 203"/>
<path stroke-width="0.5" stroke="black" d="M 70 98 62 270"/>
<path stroke-width="0.5" stroke="black" d="M 70 98 154 253"/>
<path stroke-width="0.5" stroke="black" d="M 70 98 346 50"/>
<path stroke-width="0.5" stroke="black" d="M 70 98 151 51"/>
<path stroke-width="0.5" stroke="black" d="M 70 98 400 105"/>
<path stroke-width="0.5" stroke="black" d="M 70 98 246 320"/>
<path stroke-width="0.5" stroke="black" d="M 70 98 395 179"/>
<path stroke-width="0.5" stroke="black" d="M 70 98 258 20"/>
<path stroke-width="0.5" stroke="black" d="M 70 98 145 171"/>
<path stroke-width="0.5" stroke="black" d="M 70 98 256 213"/>
<path stroke-width="0.5" stroke="black" d="M 70 98 185 295"/>
<path stroke-width="0.5" stroke="black" d="M 70 98 20 137"/>
<path stroke-width="0.5" stroke="black" d="M 70 98 24 203"/>
<path stroke-width="0.5" stroke="black" d="M 70 98 420 225"/>
<path stroke-width="0.5" stroke="black" d="M 70 98 264 99"/>
<path stroke-width="0.5" stroke="black" d="M 70 98 25 209"/>
<path stroke-width="0.5" stroke="black" d="M 70 98 362 289"/>
<path stroke-width="0.5" stroke="black" d="M 70 98 313 267"/>
<path stroke-width="20.0" stroke="black" d="M 70 98 197 219"/>
<path stroke-width="0.5" stroke="black" d="M 151 51 185 295"/>
<path stroke-width="0.5" stroke="black" d="M 151 51 62 270"/>
<path stroke-width="0.5" stroke="black" d="M 151 51 154 253"/>
<path stroke-width="0.5" stroke="black" d="M 70 98 151 56"/>
<path stroke-width="20.0" stroke="black" d="M 346 50 197 219"/>
<path stroke-width="0.5" stroke="black" d="M 346 50 313 267"/>
<path stroke-width="0.5" stroke="black" d="M 346 50 362 289"/>
<path stroke-width="0.5" stroke="black" d="M 154 253 420 225"/>
<path stroke-width="0.5" stroke="black" d="M 154 253 264 99"/>
<path stroke-width="0.5" stroke="black" d="M 154 253 25 209"/>
<path stroke-width="0.5" stroke="black" d="M 154 253 362 289"/>
<path stroke-width="0.5" stroke="black" d="M 154 253 313 267"/>
<path stroke-width="20.0" stroke="black" d="M 154 253 197 219"/>
<path stroke-width="0.5" stroke="black" d="M 346 50 185 295"/>
<path stroke-width="0.5" stroke="black" d="M 346 50 62 270"/>
<path stroke-width="0.5" stroke="black" d="M 346 50 154 253"/>
<path stroke-width="0.5" stroke="black" d="M 346 50 70 98"/>
<path stroke-width="0.5" stroke="black" d="M 346 50 151 51"/>
<path stroke-width="0.5" stroke="black" d="M 346 50 400 105"/>
<path stroke-width="0.5" stroke="black" d="M 346 50 246 320"/>
<path stroke-width="0.5" stroke="black" d="M 346 50 395 179"/>
<path stroke-width="0.5" stroke="black" d="M 346 50 258 20"/>
<path stroke-width="0.5" stroke="black" d="M 346 50 145 171"/>
<path stroke-width="0.5" stroke="black" d="M 346 50 256 213"/>
<path stroke-width="0.5" stroke="black" d="M 346 50 20 137"/>
<path stroke-width="0.5" stroke="black" d="M 346 50 151 56"/>
<path stroke-width="0.5" stroke="black" d="M 346 50 24 203"/>
<path stroke-width="0.5" stroke="black" d="M 346 50 420 225"/>
<path stroke-width="0.5" stroke="black" d="M 346 50 264 99"/>
<path stroke-width="0.5" stroke="black" d="M 346 50 25 209"/>
<path stroke-width="0.5" stroke="black" d="M 151 51 70 98"/>
<path stroke-width="0.5" stroke="black" d="M 145 171 258 20"/>
<path stroke-width="0.5" stroke="black" d="M 145 171 256 213"/>
<path stroke-width="0.5" stroke="black" d="M 145 171 20 137"/>
<path stroke-width="0.5" stroke="black" d="M 25 209 70 98"/>
<path stroke-width="0.5" stroke="black" d="M 25 209 151 51"/>
<path stroke-width="0.5" stroke="black" d="M 25 209 400 105"/>
<path stroke-width="0.5" stroke="black" d="M 25 209 246 320"/>
<path stroke-width="0.5" stroke="black" d="M 25 209 395 179"/>
<path stroke-width="0.5" stroke="black" d="M 25 209 258 20"/>
<path stroke-width="0.5" stroke="black" d="M 25 209 145 171"/>
<path stroke-width="0.5" stroke="black" d="M 25 209 256 213"/>
<path stroke-width="0.5" stroke="black" d="M 25 209 20 137"/>
<path stroke-width="0.5" stroke="black" d="M 25 209 151 56"/>
<path stroke-width="0.5" stroke="black" d="M 25 209 346 50"/>
<path stroke-width="0.5" stroke="black" d="M 25 209 24 203"/>
<path stroke-width="0.5" stroke="black" d="M 25 209 264 99"/>
<path stroke-width="0.5" stroke="black" d="M 25 209 362 289"/>
<path stroke-width="0.5" stroke="black" d="M 25 209 313 267"/>
<path stroke-width="20.0" stroke="black" d="M 25 209 197 219"/>
<path stroke-width="0.5" stroke="black" d="M 362 289 185 295"/>
<path stroke-width="0.5" stroke="black" d="M 362 289 62 270"/>
<path stroke-width="0.5" stroke="black" d="M 362 289 154 253"/>
<path stroke-width="0.5" stroke="black" d="M 362 289 346 50"/>
<path stroke-width="0.5" stroke="black" d="M 362 289 70 98"/>
<path stroke-width="0.5" stroke="black" d="M 362 289 151 51"/>
<path stroke-width="0.5" stroke="black" d="M 25 209 420 225"/>
<path stroke-width="0.5" stroke="black" d="M 362 289 400 105"/>
<path stroke-width="0.5" stroke="black" d="M 25 209 154 253"/>
<path stroke-width="0.5" stroke="black" d="M 25 209 185 295"/>
<path stroke-width="0.5" stroke="black" d="M 420 225 313 267"/>
<path stroke-width="20.0" stroke="black" d="M 420 225 197 219"/>
<path stroke-width="0.5" stroke="black" d="M 264 99 185 295"/>
<path stroke-width="0.5" stroke="black" d="M 264 99 62 270"/>
<path stroke-width="0.5" stroke="black" d="M 264 99 154 253"/>
<path stroke-width="0.5" stroke="black" d="M 264 99 346 50"/>
<path stroke-width="0.5" stroke="black" d="M 264 99 70 98"/>
<path stroke-width="0.5" stroke="black" d="M 264 99 151 51"/>
<path stroke-width="0.5" stroke="black" d="M 264 99 400 105"/>
<path stroke-width="0.5" stroke="black" d="M 264 99 246 320"/>
<path stroke-width="0.5" stroke="black" d="M 25 209 62 270"/>
<path stroke-width="0.5" stroke="black" d="M 264 99 395 179"/>
<path stroke-width="0.5" stroke="black" d="M 264 99 145 171"/>
<path stroke-width="0.5" stroke="black" d="M 264 99 256 213"/>
<path stroke-width="0.5" stroke="black" d="M 264 99 20 137"/>
<path stroke-width="0.5" stroke="black" d="M 264 99 151 56"/>
<path stroke-width="0.5" stroke="black" d="M 264 99 24 203"/>
<path stroke-width="0.5" stroke="black" d="M 264 99 420 225"/>
<path stroke-width="0.5" stroke="black" d="M 264 99 25 209"/>
<path stroke-width="0.5" stroke="black" d="M 264 99 362 289"/>
<path stroke-width="0.5" stroke="black" d="M 264 99 313 267"/>
<path stroke-width="20.0" stroke="black" d="M 264 99 197 219"/>
<path stroke-width="0.5" stroke="black" d="M 264 99 258 20"/>
<path stroke-width="0.5" stroke="black" d="M 362 289 246 320"/>
<path stroke-width="0.5" stroke="black" d="M 362 289 395 179"/>
<path stroke-width="0.5" stroke="black" d="M 362 289 258 20"/>
<path stroke-width="0.5" stroke="black" d="M 313 267 25 209"/>
<path stroke-width="0.5" stroke="black" d="M 313 267 362 289"/>
<path stroke-width="20.0" stroke="black" d="M 313 267 197 219"/>
<path stroke-width="20.0" stroke="black" d="M 197 219 185 295"/>
<path stroke-width="20.0" stroke="black" d="M 197 219 62 270"/>
<path stroke-width="20.0" stroke="black" d="M 197 219 154 253"/>
<path stroke-width="20.0" stroke="black" d="M 197 219 346 50"/>
<path stroke-width="20.0" stroke="black" d="M 197 219 70 98"/>
<path stroke-width="20.0" stroke="black" d="M 197 219 151 51"/>
<path stroke-width="20.0" stroke="black" d="M 197 219 400 105"/>
<path stroke-width="0.5" stroke="black" d="M 313 267 264 99"/>
<path stroke-width="20.0" stroke="black" d="M 197 219 246 320"/>
<path stroke-width="20.0" stroke="black" d="M 197 219 258 20"/>
<path stroke-width="20.0" stroke="black" d="M 197 219 145 171"/>
<path stroke-width="20.0" stroke="black" d="M 197 219 256 213"/>
<path stroke-width="20.0" stroke="black" d="M 197 219 20 137"/>
<path stroke-width="20.0" stroke="black" d="M 197 219 151 56"/>
<path stroke-width="20.0" stroke="black" d="M 197 219 24 203"/>
<path stroke-width="20.0" stroke="black" d="M 197 219 420 225"/>
<path stroke-width="20.0" stroke="black" d="M 197 219 264 99"/>
<path stroke-width="20.0" stroke="black" d="M 197 219 25 209"/>
<path stroke-width="20.0" stroke="black" d="M 197 219 362 289"/>
<path stroke-width="20.0" stroke="black" d="M 197 219 395 179"/>
<path stroke-width="0.5" stroke="black" d="M 313 267 420 225"/>
<path stroke-width="0.5" stroke="black" d="M 313 267 24 203"/>
<path stroke-width="0.5" stroke="black" d="M 313 267 151 56"/>
<path stroke-width="0.5" stroke="black" d="M 362 289 145 171"/>
<path stroke-width="0.5" stroke="black" d="M 362 289 256 213"/>
<path stroke-width="0.5" stroke="black" d="M 362 289 20 137"/>
<path stroke-width="0.5" stroke="black" d="M 362 289 151 56"/>
<path stroke-width="0.5" stroke="black" d="M 362 289 24 203"/>
<path stroke-width="0.5" stroke="black" d="M 362 289 420 225"/>
<path stroke-width="0.5" stroke="black" d="M 362 289 264 99"/>
<path stroke-width="0.5" stroke="black" d="M 362 289 25 209"/>
<path stroke-width="0.5" stroke="black" d="M 362 289 313 267"/>
<path stroke-width="20.0" stroke="black" d="M 362 289 197 219"/>
<path stroke-width="0.5" stroke="black" d="M 313 267 185 295"/>
<path stroke-width="0.5" stroke="black" d="M 313 267 62 270"/>
<path stroke-width="0.5" stroke="black" d="M 313 267 154 253"/>
<path stroke-width="0.5" stroke="black" d="M 313 267 346 50"/>
<path stroke-width="0.5" stroke="black" d="M 313 267 70 98"/>
<path stroke-width="0.5" stroke="black" d="M 313 267 151 51"/>
<path stroke-width="0.5" stroke="black" d="M 313 267 400 105"/>
<path stroke-width="0.5" stroke="black" d="M 313 267 246 320"/>
<path stroke-width="0.5" stroke="black" d="M 313 267 395 179"/>
<path stroke-width="0.5" stroke="black" d="M 313 267 258 20"/>
<path stroke-width="0.5" stroke="black" d="M 313 267 145 171"/>
<path stroke-width="0.5" stroke="black" d="M 313 267 256 213"/>
<path stroke-width="0.5" stroke="black" d="M 313 267 20 137"/>
<path stroke-width="0.5" stroke="black" d="M 420 225 362 289"/>
<path stroke-width="0.5" stroke="black" d="M 420 225 25 209"/>
<path stroke-width="0.5" stroke="black" d="M 420 225 264 99"/>
<path stroke-width="0.5" stroke="black" d="M 420 225 24 203"/>
<path stroke-width="20.0" stroke="black" d="M 256 213 197 219"/>
<path stroke-width="0.5" stroke="black" d="M 20 137 185 295"/>
<path stroke-width="0.5" stroke="black" d="M 20 137 62 270"/>
<path stroke-width="0.5" stroke="black" d="M 20 137 154 253"/>
<path stroke-width="0.5" stroke="black" d="M 20 137 346 50"/>
<path stroke-width="0.5" stroke="black" d="M 20 137 70 98"/>
<path stroke-width="0.5" stroke="black" d="M 20 137 151 51"/>
<path stroke-width="0.5" stroke="black" d="M 20 137 400 105"/>
<path stroke-width="0.5" stroke="black" d="M 20 137 246 320"/>
<path stroke-width="0.5" stroke="black" d="M 20 137 395 179"/>
<path stroke-width="0.5" stroke="black" d="M 256 213 313 267"/>
<path stroke-width="0.5" stroke="black" d="M 20 137 258 20"/>
<path stroke-width="0.5" stroke="black" d="M 20 137 256 213"/>
<path stroke-width="0.5" stroke="black" d="M 20 137 151 56"/>
<path stroke-width="0.5" stroke="black" d="M 20 137 24 203"/>
<path stroke-width="0.5" stroke="black" d="M 20 137 420 225"/>
<path stroke-width="0.5" stroke="black" d="M 20 137 264 99"/>
<path stroke-width="0.5" stroke="black" d="M 20 137 25 209"/>
<path stroke-width="0.5" stroke="black" d="M 20 137 362 289"/>
<path stroke-width="0.5" stroke="black" d="M 20 137 313 267"/>
<path stroke-width="20.0" stroke="black" d="M 20 137 197 219"/>
<path stroke-width="0.5" stroke="black" d="M 151 56 185 295"/>
<path stroke-width="0.5" stroke="black" d="M 20 137 145 171"/>
<path stroke-width="0.5" stroke="black" d="M 256 213 362 289"/>
<path stroke-width="0.5" stroke="black" d="M 256 213 25 209"/>
<path stroke-width="0.5" stroke="black" d="M 256 213 264 99"/>
<path stroke-width="0.5" stroke="black" d="M 145 171 151 56"/>
<path stroke-width="0.5" stroke="black" d="M 145 171 24 203"/>
<path stroke-width="0.5" stroke="black" d="M 145 171 420 225"/>
<path stroke-width="0.5" stroke="black" d="M 145 171 264 99"/>
<path stroke-width="0.5" stroke="black" d="M 145 171 25 209"/>
<path stroke-width="0.5" stroke="black" d="M 145 171 362 289"/>
<path stroke-width="0.5" stroke="black" d="M 145 171 313 267"/>
<path stroke-width="20.0" stroke="black" d="M 145 171 197 219"/>
<path stroke-width="0.5" stroke="black" d="M 256 213 185 295"/>
<path stroke-width="0.5" stroke="black" d="M 256 213 62 270"/>
<path stroke-width="0.5" stroke="black" d="M 256 213 154 253"/>
<path stroke-width="0.5" stroke="black" d="M 256 213 346 50"/>
<path stroke-width="0.5" stroke="black" d="M 256 213 70 98"/>
<path stroke-width="0.5" stroke="black" d="M 256 213 151 51"/>
<path stroke-width="0.5" stroke="black" d="M 256 213 400 105"/>
<path stroke-width="0.5" stroke="black" d="M 256 213 246 320"/>
<path stroke-width="0.5" stroke="black" d="M 256 213 395 179"/>
<path stroke-width="0.5" stroke="black" d="M 256 213 258 20"/>
<path stroke-width="0.5" stroke="black" d="M 256 213 145 171"/>
<path stroke-width="0.5" stroke="black" d="M 256 213 20 137"/>
<path stroke-width="0.5" stroke="black" d="M 256 213 151 56"/>
<path stroke-width="0.5" stroke="black" d="M 256 213 24 203"/>
<path stroke-width="0.5" stroke="black" d="M 256 213 420 225"/>
<path stroke-width="0.5" stroke="black" d="M 151 56 62 270"/>
<path stroke-width="0.5" stroke="black" d="M 185 295 154 253"/>
<path stroke-width="0.5" stroke="black" d="M 151 56 154 253"/>
<path stroke-width="0.5" stroke="black" d="M 151 56 70 98"/>
<path stroke-width="0.5" stroke="black" d="M 24 203 20 137"/>
<path stroke-width="0.5" stroke="black" d="M 24 203 151 56"/>
<path stroke-width="0.5" stroke="black" d="M 24 203 420 225"/>
<path stroke-width="0.5" stroke="black" d="M 24 203 264 99"/>
<path stroke-width="0.5" stroke="black" d="M 24 203 25 209"/>
<path stroke-width="0.5" stroke="black" d="M 24 203 362 289"/>
<path stroke-width="0.5" stroke="black" d="M 24 203 313 267"/>
<path stroke-width="20.0" stroke="black" d="M 24 203 197 219"/>
<path stroke-width="0.5" stroke="black" d="M 420 225 185 295"/>
<path stroke-width="0.5" stroke="black" d="M 420 225 62 270"/>
<path stroke-width="0.5" stroke="black" d="M 24 203 256 213"/>
<path stroke-width="0.5" stroke="black" d="M 420 225 154 253"/>
<path stroke-width="0.5" stroke="black" d="M 420 225 70 98"/>
<path stroke-width="0.5" stroke="black" d="M 420 225 151 51"/>
<path stroke-width="0.5" stroke="black" d="M 420 225 400 105"/>
<path stroke-width="0.5" stroke="black" d="M 420 225 246 320"/>
<path stroke-width="0.5" stroke="black" d="M 420 225 395 179"/>
<path stroke-width="0.5" stroke="black" d="M 420 225 258 20"/>
<path stroke-width="0.5" stroke="black" d="M 420 225 145 171"/>
<path stroke-width="0.5" stroke="black" d="M 420 225 256 213"/>
<path stroke-width="0.5" stroke="black" d="M 420 225 20 137"/>
<path stroke-width="0.5" stroke="black" d="M 420 225 151 56"/>
<path stroke-width="0.5" stroke="black" d="M 420 225 346 50"/>
<path stroke-width="0.5" stroke="black" d="M 24 203 145 171"/>
<path stroke-width="0.5" stroke="black" d="M 24 203 258 20"/>
<path stroke-width="0.5" stroke="black" d="M 24 203 395 179"/>
<path stroke-width="0.5" stroke="black" d="M 151 56 151 51"/>
<path stroke-width="0.5" stroke="black" d="M 151 56 400 105"/>
<path stroke-width="0.5" stroke="black" d="M 151 56 246 320"/>
<path stroke-width="0.5" stroke="black" d="M 151 56 395 179"/>
<path stroke-width="0.5" stroke="black" d="M 151 56 258 20"/>
<path stroke-width="0.5" stroke="black" d="M 151 56 145 171"/>
<path stroke-width="0.5" stroke="black" d="M 151 56 256 213"/>
<path stroke-width="0.5" stroke="black" d="M 151 56 20 137"/>
<path stroke-width="0.5" stroke="black" d="M 151 56 24 203"/>
<path stroke-width="0.5" stroke="black" d="M 151 56 420 225"/>
<path stroke-width="0.5" stroke="black" d="M 151 56 264 99"/>
<path stroke-width="0.5" stroke="black" d="M 151 56 25 209"/>
<path stroke-width="0.5" stroke="black" d="M 151 56 362 289"/>
<path stroke-width="0.5" stroke="black" d="M 151 56 313 267"/>
<path stroke-width="20.0" stroke="black" d="M 151 56 197 219"/>
<path stroke-width="0.5" stroke="black" d="M 24 203 185 295"/>
<path stroke-width="0.5" stroke="black" d="M 24 203 62 270"/>
<path stroke-width="0.5" stroke="black" d="M 24 203 154 253"/>
<path stroke-width="0.5" stroke="black" d="M 24 203 346 50"/>
<path stroke-width="0.5" stroke="black" d="M 24 203 70 98"/>
<path stroke-width="0.5" stroke="black" d="M 24 203 151 51"/>
<path stroke-width="0.5" stroke="black" d="M 24 203 400 105"/>
<path stroke-width="0.5" stroke="black" d="M 24 203 246 320"/>
<path stroke-width="0.5" stroke="black" d="M 151 56 346 50"/>
<path stroke-width="0.5" stroke="black" d="M 185 295 62 270"/>
<circle cx="197" cy="219" r="20.0" style="fill:gray;stroke:black;stroke-width:1.0"/>
<circle cx="313" cy="267" r="20.0" style="fill:gray;stroke:black;stroke-width:1.0"/>
<circle cx="362" cy="289" r="20.0" style="fill:gray;stroke:black;stroke-width:1.0"/>
<circle cx="25" cy="209" r="20.0" style="fill:gray;stroke:black;stroke-width:1.0"/>
<circle cx="264" cy="99" r="20.0" style="fill:gray;stroke:black;stroke-width:1.0"/>
<circle cx="420" cy="225" r="20.0" style="fill:gray;stroke:black;stroke-width:1.0"/>
<circle cx="24" cy="203" r="20.0" style="fill:gray;stroke:black;stroke-width:1.0"/>
<circle cx="151" cy="56" r="20.0" style="fill:gray;stroke:black;stroke-width:1.0"/>
<circle cx="20" cy="137" r="20.0" style="fill:gray;stroke:black;stroke-width:1.0"/>
<circle cx="256" cy="213" r="20.0" style="fill:gray;stroke:black;stroke-width:1.0"/>
<circle cx="145" cy="171" r="20.0" style="fill:gray;stroke:black;stroke-width:1.0"/>
<circle cx="258" cy="20" r="20.0" style="fill:gray;stroke:black;stroke-width:1.0"/>
<circle cx="395" cy="179" r="20.0" style="fill:gray;stroke:black;stroke-width:1.0"/>
<circle cx="246" cy="320" r="20.0" style="fill:gray;stroke:black;stroke-width:1.0"/>
<circle cx="400" cy="105" r="20.0" style="fill:gray;stroke:black;stroke-width:1.0"/>
<circle cx="151" cy="51" r="20.0" style="fill:gray;stroke:black;stroke-width:1.0"/>
<circle cx="70" cy="98" r="20.0" style="fill:gray;stroke:black;stroke-width:1.0"/>
<circle cx="346" cy="50" r="20.0" style="fill:gray;stroke:black;stroke-width:1.0"/>
<circle cx="154" cy="253" r="20.0" style="fill:gray;stroke:black;stroke-width:1.0"/>
<circle cx="62" cy="270" r="20.0" style="fill:gray;stroke:black;stroke-width:1.0"/>
<circle cx="185" cy="295" r="20.0" style="fill:gray;stroke:black;stroke-width:1.0"/>
</svg>
