<svg width="440" height="340" xmlns="http://www.w3.org/2000/svg">
<path stroke-width="20.0" stroke="black" d="M 172 199 285 208"/>
<path stroke-width="0.5" stroke="black" d="M 59 212 104 297"/>
<path stroke-width="0.5" stroke="black" d="M 59 212 134 88"/>
<path stroke-width="0.5" stroke="black" d="M 59 212 177 20"/>
<path stroke-width="0.5" stroke="black" d="M 59 212 306 37"/>
<path stroke-width="0.5" stroke="black" d="M 59 212 170 221"/>
<path stroke-width="0.5" stroke="black" d="M 59 212 285 208"/>
<path stroke-width="20.0" stroke="black" d="M 59 212 172 199"/>
<path stroke-width="0.5" stroke="black" d="M 20 149 406 202"/>
<path stroke-width="0.5" stroke="black" d="M 20 149 359 68"/>
<path stroke-width="0.5" stroke="black" d="M 20 149 420 134"/>
<path stroke-width="0.5" stroke="black" d="M 59 212 256 105"/>
<path stroke-width="0.5" stroke="black" d="M 20 149 342 293"/>
<path stroke-width="0.5" stroke="black" d="M 20 149 88 158"/>
<path stroke-width="0.5" stroke="black" d="M 20 149 59 212"/>
<path stroke-width="0.5" stroke="black" d="M 20 149 24 86"/>
<path stroke-width="0.5" stroke="black" d="M 20 149 250 312"/>
<path stroke-width="0.5" stroke="black" d="M 20 149 197 320"/>
<path stroke-width="0.5" stroke="black" d="M 20 149 62 273"/>
<path stroke-width="0.5" stroke="black" d="M 20 149 130 28"/>
<path stroke-width="0.5" stroke="black" d="M 20 149 256 105"/>
<path stroke-width="0.5" stroke="black" d="M 20 149 104 297"/>
<path stroke-width="0.5" stroke="black" d="M 20 149 134 88"/>
<path stroke-width="0.5" stroke="black" d="M 20 149 370 246"/>
<path stroke-width="0.5" stroke="black" d="M 20 149 177 20"/>
<path stroke-width="0.5" stroke="black" d="M 59 212 130 28"/>
<path stroke-width="0.5" stroke="black" d="M 59 212 197 320"/>
<path stroke-width="0.5" stroke="black" d="M 88 158 24 86"/>
<path stroke-width="0.5" stroke="black" d="M 88 158 250 312"/>
<path stroke-width="0.5" stroke="black" d="M 88 158 197 320"/>
<path stroke-width="0.5" stroke="black" d="M 88 158 62 273"/>
<path stroke-width="0.5" stroke="black" d="M 88 158 130 28"/>
<path stroke-width="0.5" stroke="black" d="M 88 158 256 105"/>
<path stroke-width="0.5" stroke="black" d="M 88 158 104 297"/>
<path stroke-width="0.5" stroke="black" d="M 88 158 134 88"/>
<path stroke-width="0.5" stroke="black" d="M 88 158 177 20"/>
<path stroke-width="0.5" stroke="black" d="M 88 158 306 37"/>
<path stroke-width="0.5" stroke="black" d="M 59 212 62 273"/>
<path stroke-width="0.5" stroke="black" d="M 88 158 170 221"/>
<path stroke-width="20.0" stroke="black" d="M 88 158 172 199"/>
<path stroke-width="0.5" stroke="black" d="M 59 212 406 202"/>
<path stroke-width="0.5" stroke="black" d="M 59 212 359 68"/>
<path stroke-width="0.5" stroke="black" d="M 59 212 420 134"/>
<path stroke-width="0.5" stroke="black" d="M 59 212 342 293"/>
<path stroke-width="0.5" stroke="black" d="M 59 212 370 246"/>
<path stroke-width="0.5" stroke="black" d="M 59 212 88 158"/>
<path stroke-width="0.5" stroke="black" d="M 59 212 20 149"/>
<path stroke-width="0.5" stroke="black" d="M 59 212 24 86"/>
<path stroke-width="0.5" stroke="black" d="M 59 212 250 312"/>
<path stroke-width="0.5" stroke="black" d="M 88 158 285 208"/>
<path stroke-width="0.5" stroke="black" d="M 20 149 306 37"/>
<path stroke-width="0.5" stroke="black" d="M 20 149 170 221"/>
<path stroke-width="0.5" stroke="black" d="M 20 149 285 208"/>
<path stroke-width="0.5" stroke="black" d="M 250 312 59 212"/>
<path stroke-width="0.5" stroke="black" d="M 250 312 20 149"/>
<path stroke-width="0.5" stroke="black" d="M 250 312 24 86"/>
<path stroke-width="0.5" stroke="black" d="M 250 312 197 320"/>
<path stroke-width="0.5" stroke="black" d="M 250 312 62 273"/>
<path stroke-width="0.5" stroke="black" d="M 250 312 130 28"/>
<path stroke-width="0.5" stroke="black" d="M 250 312 256 105"/>
<path stroke-width="0.5" stroke="black" d="M 250 312 104 297"/>
<path stroke-width="0.5" stroke="black" d="M 250 312 134 88"/>
<path stroke-width="0.5" stroke="black" d="M 250 312 177 20"/>
<path stroke-width="0.5" stroke="black" d="M 250 312 88 158"/>
<path stroke-width="0.5" stroke="black" d="M 250 312 306 37"/>
<path stroke-width="0.5" stroke="black" d="M 250 312 285 208"/>
<path stroke-width="20.0" stroke="black" d="M 250 312 172 199"/>
<path stroke-width="0.5" stroke="black" d="M 197 320 406 202"/>
<path stroke-width="0.5" stroke="black" d="M 197 320 359 68"/>
<path stroke-width="0.5" stroke="black" d="M 197 320 420 134"/>
<path stroke-width="0.5" stroke="black" d="M 197 320 342 293"/>
<path stroke-width="0.5" stroke="black" d="M 197 320 370 246"/>
<path stroke-width="0.5" stroke="black" d="M 197 320 88 158"/>
<path stroke-width="0.5" stroke="black" d="M 197 320 59 212"/>
<path stroke-width="0.5" stroke="black" d="M 197 320 20 149"/>
<path stroke-width="0.5" stroke="black" d="M 250 312 170 221"/>
<path stroke-width="0.5" stroke="black" d="M 250 312 370 246"/>
<path stroke-width="0.5" stroke="black" d="M 250 312 342 293"/>
<path stroke-width="0.5" stroke="black" d="M 250 312 420 134"/>
<path stroke-width="20.0" stroke="black" d="M 20 149 172 199"/>
<path stroke-width="0.5" stroke="black" d="M 24 86 406 202"/>
<path stroke-width="0.5" stroke="black" d="M 24 86 359 68"/>
<path stroke-width="0.5" stroke="black" d="M 24 86 420 134"/>
<path stroke-width="0.5" stroke="black" d="M 24 86 342 293"/>
<path stroke-width="0.5" stroke="black" d="M 24 86 370 246"/>
<path stroke-width="0.5" stroke="black" d="M 24 86 88 158"/>
<path stroke-width="0.5" stroke="black" d="M 24 86 59 212"/>
<path stroke-width="0.5" stroke="black" d="M 24 86 20 149"/>
<path stroke-width="0.5" stroke="black" d="M 24 86 250 312"/>
<path stroke-width="0.5" stroke="black" d="M 24 86 197 320"/>
<path stroke-width="0.5" stroke="black" d="M 24 86 62 273"/>
<path stroke-width="0.5" stroke="black" d="M 24 86 130 28"/>
<path stroke-width="0.5" stroke="black" d="M 24 86 256 105"/>
<path stroke-width="0.5" stroke="black" d="M 24 86 104 297"/>
<path stroke-width="0.5" stroke="black" d="M 24 86 134 88"/>
<path stroke-width="0.5" stroke="black" d="M 24 86 177 20"/>
<path stroke-width="0.5" stroke="black" d="M 24 86 306 37"/>
<path stroke-width="0.5" stroke="black" d="M 24 86 170 221"/>
<path stroke-width="0.5" stroke="black" d="M 24 86 285 208"/>
<path stroke-width="20.0" stroke="black" d="M 24 86 172 199"/>
<path stroke-width="0.5" stroke="black" d="M 250 312 406 202"/>
<path stroke-width="0.5" stroke="black" d="M 250 312 359 68"/>
<path stroke-width="0.5" stroke="black" d="M 88 158 20 149"/>
<path stroke-width="0.5" stroke="black" d="M 197 320 24 86"/>
<path stroke-width="0.5" stroke="black" d="M 88 158 59 212"/>
<path stroke-width="0.5" stroke="black" d="M 88 158 342 293"/>
<path stroke-width="0.5" stroke="black" d="M 359 68 250 312"/>
<path stroke-width="0.5" stroke="black" d="M 359 68 197 320"/>
<path stroke-width="0.5" stroke="black" d="M 359 68 62 273"/>
<path stroke-width="0.5" stroke="black" d="M 359 68 130 28"/>
<path stroke-width="0.5" stroke="black" d="M 359 68 256 105"/>
<path stroke-width="0.5" stroke="black" d="M 359 68 104 297"/>
<path stroke-width="0.5" stroke="black" d="M 359 68 134 88"/>
<path stroke-width="0.5" stroke="black" d="M 359 68 177 20"/>
<path stroke-width="0.5" stroke="black" d="M 359 68 306 37"/>
<path stroke-width="0.5" stroke="black" d="M 359 68 170 221"/>
<path stroke-width="0.5" stroke="black" d="M 359 68 24 86"/>
<path stroke-width="0.5" stroke="black" d="M 359 68 285 208"/>
<path stroke-width="0.5" stroke="black" d="M 420 134 406 202"/>
<path stroke-width="0.5" stroke="black" d="M 420 134 359 68"/>
<path stroke-width="0.5" stroke="black" d="M 420 134 342 293"/>
<path stroke-width="0.5" stroke="black" d="M 420 134 370 246"/>
<path stroke-width="0.5" stroke="black" d="M 420 134 88 158"/>
<path stroke-width="0.5" stroke="black" d="M 420 134 59 212"/>
<path stroke-width="0.5" stroke="black" d="M 420 134 20 149"/>
<path stroke-width="0.5" stroke="black" d="M 420 134 24 86"/>
<path stroke-width="0.5" stroke="black" d="M 420 134 250 312"/>
<path stroke-width="0.5" stroke="black" d="M 420 134 197 320"/>
<path stroke-width="20.0" stroke="black" d="M 359 68 172 199"/>
<path stroke-width="0.5" stroke="black" d="M 420 134 62 273"/>
<path stroke-width="0.5" stroke="black" d="M 359 68 20 149"/>
<path stroke-width="0.5" stroke="black" d="M 359 68 88 158"/>
<path stroke-width="0.5" stroke="black" d="M 406 202 342 293"/>
<path stroke-width="0.5" stroke="black" d="M 406 202 370 246"/>
<path stroke-width="0.5" stroke="black" d="M 406 202 88 158"/>
<path stroke-width="0.5" stroke="black" d="M 406 202 59 212"/>
<path stroke-width="0.5" stroke="black" d="M 406 202 20 149"/>
<path stroke-width="0.5" stroke="black" d="M 406 202 24 86"/>
<path stroke-width="0.5" stroke="black" d="M 406 202 250 312"/>
<path stroke-width="0.5" stroke="black" d="M 406 202 197 320"/>
<path stroke-width="0.5" stroke="black" d="M 406 202 62 273"/>
<path stroke-width="0.5" stroke="black" d="M 406 202 130 28"/>
<path stroke-width="0.5" stroke="black" d="M 359 68 59 212"/>
<path stroke-width="0.5" stroke="black" d="M 406 202 256 105"/>
<path stroke-width="0.5" stroke="black" d="M 406 202 134 88"/>
<path stroke-width="0.5" stroke="black" d="M 406 202 177 20"/>
<path stroke-width="0.5" stroke="black" d="M 406 202 306 37"/>
<path stroke-width="0.5" stroke="black" d="M 406 202 170 221"/>
<path stroke-width="0.5" stroke="black" d="M 406 202 285 208"/>
<path stroke-width="20.0" stroke="black" d="M 406 202 172 199"/>
<path stroke-width="0.5" stroke="black" d="M 359 68 406 202"/>
<path stroke-width="0.5" stroke="black" d="M 359 68 420 134"/>
<path stroke-width="0.5" stroke="black" d="M 359 68 342 293"/>
<path stroke-width="0.5" stroke="black" d="M 359 68 370 246"/>
<path stroke-width="0.5" stroke="black" d="M 406 202 104 297"/>
<path stroke-width="0.5" stroke="black" d="M 420 134 130 28"/>
<path stroke-width="0.5" stroke="black" d="M 420 134 256 105"/>
<path stroke-width="0.5" stroke="black" d="M 420 134 104 297"/>
<path stroke-width="0.5" stroke="black" d="M 370 246 359 68"/>
<path stroke-width="0.5" stroke="black" d="M 370 246 420 134"/>
<path stroke-width="0.5" stroke="black" d="M 370 246 342 293"/>
<path stroke-width="0.5" stroke="black" d="M 370 246 88 158"/>
<path stroke-width="0.5" stroke="black" d="M 370 246 59 212"/>
<path stroke-width="0.5" stroke="black" d="M 370 246 20 149"/>
<path stroke-width="0.5" stroke="black" d="M 370 246 24 86"/>
<path stroke-width="0.5" stroke="black" d="M 370 246 250 312"/>
<path stroke-width="0.5" stroke="black" d="M 370 246 197 320"/>
<path stroke-width="0.5" stroke="black" d="M 370 246 62 273"/>
<path stroke-width="0.5" stroke="black" d="M 370 246 406 202"/>
<path stroke-width="0.5" stroke="black" d="M 370 246 130 28"/>
<path stroke-width="0.5" stroke="black" d="M 370 246 104 297"/>
<path stroke-width="0.5" stroke="black" d="M 370 246 134 88"/>
<path stroke-width="0.5" stroke="black" d="M 370 246 177 20"/>
<path stroke-width="0.5" stroke="black" d="M 370 246 306 37"/>
<path stroke-width="0.5" stroke="black" d="M 370 246 170 221"/>
<path stroke-width="0.5" stroke="black" d="M 370 246 285 208"/>
<path stroke-width="20.0" stroke="black" d="M 370 246 172 199"/>
<path stroke-width="0.5" stroke="black" d="M 88 158 406 202"/>
<path stroke-width="0.5" stroke="black" d="M 88 158 359 68"/>
<path stroke-width="0.5" stroke="black" d="M 88 158 420 134"/>
<path stroke-width="0.5" stroke="black" d="M 370 246 256 105"/>
<path stroke-width="20.0" stroke="black" d="M 342 293 172 199"/>
<path stroke-width="0.5" stroke="black" d="M 342 293 285 208"/>
<path stroke-width="0.5" stroke="black" d="M 342 293 170 221"/>
<path stroke-width="0.5" stroke="black" d="M 420 134 134 88"/>
<path stroke-width="0.5" stroke="black" d="M 420 134 177 20"/>
<path stroke-width="0.5" stroke="black" d="M 420 134 306 37"/>
<path stroke-width="0.5" stroke="black" d="M 420 134 170 221"/>
<path stroke-width="0.5" stroke="black" d="M 420 134 285 208"/>
<path stroke-width="20.0" stroke="black" d="M 420 134 172 199"/>
<path stroke-width="0.5" stroke="black" d="M 342 293 406 202"/>
<path stroke-width="0.5" stroke="black" d="M 342 293 359 68"/>
<path stroke-width="0.5" stroke="black" d="M 342 293 420 134"/>
<path stroke-width="0.5" stroke="black" d="M 342 293 370 246"/>
<path stroke-width="0.5" stroke="black" d="M 342 293 88 158"/>
<path stroke-width="0.5" stroke="black" d="M 342 293 59 212"/>
<path stroke-width="0.5" stroke="black" d="M 342 293 20 149"/>
<path stroke-width="0.5" stroke="black" d="M 342 293 24 86"/>
<path stroke-width="0.5" stroke="black" d="M 342 293 250 312"/>
<path stroke-width="0.5" stroke="black" d="M 342 293 197 320"/>
<path stroke-width="0.5" stroke="black" d="M 342 293 62 273"/>
<path stroke-width="0.5" stroke="black" d="M 342 293 130 28"/>
<path stroke-width="0.5" stroke="black" d="M 342 293 256 105"/>
<path stroke-width="0.5" stroke="black" d="M 342 293 104 297"/>
<path stroke-width="0.5" stroke="black" d="M 342 293 134 88"/>
<path stroke-width="0.5" stroke="black" d="M 342 293 177 20"/>
<path stroke-width="0.5" stroke="black" d="M 342 293 306 37"/>
<path stroke-width="0.5" stroke="black" d="M 88 158 370 246"/>
<path stroke-width="0.5" stroke="black" d="M 197 320 250 312"/>
<path stroke-width="0.5" stroke="black" d="M 197 320 62 273"/>
<path stroke-width="0.5" stroke="black" d="M 197 320 130 28"/>
<path stroke-width="0.5" stroke="black" d="M 306 37 370 246"/>
<path stroke-width="0.5" stroke="black" d="M 306 37 88 158"/>
<path stroke-width="0.5" stroke="black" d="M 306 37 59 212"/>
<path stroke-width="0.5" stroke="black" d="M 306 37 20 149"/>
<path stroke-width="0.5" stroke="black" d="M 306 37 24 86"/>
<path stroke-width="0.5" stroke="black" d="M 306 37 250 312"/>
<path stroke-width="0.5" stroke="black" d="M 306 37 197 320"/>
<path stroke-width="0.5" stroke="black" d="M 306 37 62 273"/>
<path stroke-width="0.5" stroke="black" d="M 306 37 130 28"/>
<path stroke-width="0.5" stroke="black" d="M 306 37 256 105"/>
<path stroke-width="0.5" stroke="black" d="M 306 37 342 293"/>
<path stroke-width="0.5" stroke="black" d="M 306 37 104 297"/>
<path stroke-width="0.5" stroke="black" d="M 306 37 177 20"/>
<path stroke-width="0.5" stroke="black" d="M 306 37 170 221"/>
<path stroke-width="0.5" stroke="black" d="M 306 37 285 208"/>
<path stroke-width="20.0" stroke="black" d="M 306 37 172 199"/>
<path stroke-width="0.5" stroke="black" d="M 170 221 406 202"/>
<path stroke-width="0.5" stroke="black" d="M 170 221 359 68"/>
<path stroke-width="0.5" stroke="black" d="M 170 221 420 134"/>
<path stroke-width="0.5" stroke="black" d="M 170 221 342 293"/>
<path stroke-width="0.5" stroke="black" d="M 170 221 370 246"/>
<path stroke-width="0.5" stroke="black" d="M 170 221 88 158"/>
<path stroke-width="0.5" stroke="black" d="M 306 37 134 88"/>
<path stroke-width="0.5" stroke="black" d="M 170 221 59 212"/>
<path stroke-width="0.5" stroke="black" d="M 306 37 420 134"/>
<path stroke-width="0.5" stroke="black" d="M 306 37 406 202"/>
<path stroke-width="0.5" stroke="black" d="M 134 88 285 208"/>
<path stroke-width="20.0" stroke="black" d="M 134 88 172 199"/>
<path stroke-width="0.5" stroke="black" d="M 177 20 406 202"/>
<path stroke-width="0.5" stroke="black" d="M 177 20 359 68"/>
<path stroke-width="0.5" stroke="black" d="M 177 20 420 134"/>
<path stroke-width="0.5" stroke="black" d="M 177 20 342 293"/>
<path stroke-width="0.5" stroke="black" d="M 177 20 370 246"/>
<path stroke-width="0.5" stroke="black" d="M 177 20 88 158"/>
<path stroke-width="0.5" stroke="black" d="M 177 20 59 212"/>
<path stroke-width="0.5" stroke="black" d="M 177 20 20 149"/>
<path stroke-width="0.5" stroke="black" d="M 306 37 359 68"/>
<path stroke-width="0.5" stroke="black" d="M 177 20 24 86"/>
<path stroke-width="0.5" stroke="black" d="M 177 20 197 320"/>
<path stroke-width="0.5" stroke="black" d="M 177 20 62 273"/>
<path stroke-width="0.5" stroke="black" d="M 177 20 130 28"/>
<path stroke-width="0.5" stroke="black" d="M 177 20 256 105"/>
<path stroke-width="0.5" stroke="black" d="M 177 20 104 297"/>
<path stroke-width="0.5" stroke="black" d="M 177 20 134 88"/>
<path stroke-width="0.5" stroke="black" d="M 177 20 306 37"/>
<path stroke-width="0.5" stroke="black" d="M 177 20 170 221"/>
<path stroke-width="0.5" stroke="black" d="M 177 20 285 208"/>
<path stroke-width="20.0" stroke="black" d="M 177 20 172 199"/>
<path stroke-width="0.5" stroke="black" d="M 177 20 250 312"/>
<path stroke-width="0.5" stroke="black" d="M 170 221 20 149"/>
<path stroke-width="0.5" stroke="black" d="M 170 221 24 86"/>
<path stroke-width="0.5" stroke="black" d="M 170 221 250 312"/>
<path stroke-width="0.5" stroke="black" d="M 285 208 306 37"/>
<path stroke-width="0.5" stroke="black" d="M 285 208 170 221"/>
<path stroke-width="20.0" stroke="black" d="M 285 208 172 199"/>
<path stroke-width="20.0" stroke="black" d="M 172 199 406 202"/>
<path stroke-width="20.0" stroke="black" d="M 172 199 359 68"/>
<path stroke-width="20.0" stroke="black" d="M 172 199 420 134"/>
<path stroke-width="20.0" stroke="black" d="M 172 199 342 293"/>
<path stroke-width="20.0" stroke="black" d="M 172 199 370 246"/>
<path stroke-width="20.0" stroke="black" d="M 172 199 88 158"/>
<path stroke-width="20.0" stroke="black" d="M 172 199 59 212"/>
<path stroke-width="0.5" stroke="black" d="M 285 208 177 20"/>
<path stroke-width="20.0" stroke="black" d="M 172 199 20 149"/>
<path stroke-width="20.0" stroke="black" d="M 172 199 250 312"/>
<path stroke-width="20.0" stroke="black" d="M 172 199 197 320"/>
<path stroke-width="20.0" stroke="black" d="M 172 199 62 273"/>
<path stroke-width="20.0" stroke="black" d="M 172 199 130 28"/>
<path stroke-width="20.0" stroke="black" d="M 172 199 256 105"/>
<path stroke-width="20.0" stroke="black" d="M 172 199 104 297"/>
<path stroke-width="20.0" stroke="black" d="M 172 199 134 88"/>
<path stroke-width="20.0" stroke="black" d="M 172 199 177 20"/>
<path stroke-width="20.0" stroke="black" d="M 172 199 306 37"/>
<path stroke-width="20.0" stroke="black" d="M 172 199 170 221"/>
<path stroke-width="20.0" stroke="black" d="M 172 199 24 86"/>
<path stroke-width="0.5" stroke="black" d="M 285 208 134 88"/>
<path stroke-width="0.5" stroke="black" d="M 285 208 104 297"/>
<path stroke-width="0.5" stroke="black" d="M 285 208 256 105"/>
<path stroke-width="0.5" stroke="black" d="M 170 221 197 320"/>
<path stroke-width="0.5" stroke="black" d="M 170 221 62 273"/>
<path stroke-width="0.5" stroke="black" d="M 170 221 130 28"/>
<path stroke-width="0.5" stroke="black" d="M 170 221 256 105"/>
<path stroke-width="0.5" stroke="black" d="M 170 221 104 297"/>
<path stroke-width="0.5" stroke="black" d="M 170 221 134 88"/>
<path stroke-width="0.5" stroke="black" d="M 170 221 177 20"/>
<path stroke-width="0.5" stroke="black" d="M 170 221 306 37"/>
<path stroke-width="0.5" stroke="black" d="M 170 221 285 208"/>
<path stroke-width="20.0" stroke="black" d="M 170 221 172 199"/>
<path stroke-width="0.5" stroke="black" d="M 285 208 406 202"/>
<path stroke-width="0.5" stroke="black" d="M 285 208 359 68"/>
<path stroke-width="0.5" stroke="black" d="M 285 208 420 134"/>
<path stroke-width="0.5" stroke="black" d="M 285 208 342 293"/>
<path stroke-width="0.5" stroke="black" d="M 285 208 370 246"/>
<path stroke-width="0.5" stroke="black" d="M 285 208 88 158"/>
<path stroke-width="0.5" stroke="black" d="M 285 208 59 212"/>
<path stroke-width="0.5" stroke="black" d="M 285 208 20 149"/>
<path stroke-width="0.5" stroke="black" d="M 285 208 24 86"/>
<path stroke-width="0.5" stroke="black" d="M 285 208 250 312"/>
<path stroke-width="0.5" stroke="black" d="M 285 208 197 320"/>
<path stroke-width="0.5" stroke="black" d="M 285 208 62 273"/>
<path stroke-width="0.5" stroke="black" d="M 285 208 130 28"/>
<path stroke-width="0.5" stroke="black" d="M 134 88 170 221"/>
<path stroke-width="0.5" stroke="black" d="M 134 88 306 37"/>
<path stroke-width="0.5" stroke="black" d="M 134 88 177 20"/>
<path stroke-width="0.5" stroke="black" d="M 134 88 104 297"/>
<path stroke-width="20.0" stroke="black" d="M 62 273 172 199"/>
<path stroke-width="0.5" stroke="black" d="M 130 28 406 202"/>
<path stroke-width="0.5" stroke="black" d="M 130 28 359 68"/>
<path stroke-width="0.5" stroke="black" d="M 130 28 420 134"/>
<path stroke-width="0.5" stroke="black" d="M 130 28 342 293"/>
<path stroke-width="0.5" stroke="black" d="M 130 28 370 246"/>
<path stroke-width="0.5" stroke="black" d="M 130 28 88 158"/>
<path stroke-width="0.5" stroke="black" d="M 130 28 59 212"/>
<path stroke-width="0.5" stroke="black" d="M 130 28 20 149"/>
<path stroke-width="0.5" stroke="black" d="M 130 28 24 86"/>
<path stroke-width="0.5" stroke="black" d="M 62 273 285 208"/>
<path stroke-width="0.5" stroke="black" d="M 130 28 250 312"/>
<path stroke-width="0.5" stroke="black" d="M 130 28 62 273"/>
<path stroke-width="0.5" stroke="black" d="M 130 28 256 105"/>
<path stroke-width="0.5" stroke="black" d="M 130 28 104 297"/>
<path stroke-width="0.5" stroke="black" d="M 130 28 134 88"/>
<path stroke-width="0.5" stroke="black" d="M 130 28 177 20"/>
<path stroke-width="0.5" stroke="black" d="M 130 28 306 37"/>
<path stroke-width="0.5" stroke="black" d="M 130 28 170 221"/>
<path stroke-width="0.5" stroke="black" d="M 130 28 285 208"/>
<path stroke-width="20.0" stroke="black" d="M 130 28 172 199"/>
<path stroke-width="0.5" stroke="black" d="M 256 105 406 202"/>
<path stroke-width="0.5" stroke="black" d="M 130 28 197 320"/>
<path stroke-width="0.5" stroke="black" d="M 62 273 170 221"/>
<path stroke-width="0.5" stroke="black" d="M 62 273 306 37"/>
<path stroke-width="0.5" stroke="black" d="M 62 273 177 20"/>
<path stroke-width="0.5" stroke="black" d="M 197 320 256 105"/>
<path stroke-width="0.5" stroke="black" d="M 197 320 104 297"/>
<path stroke-width="0.5" stroke="black" d="M 197 320 134 88"/>
<path stroke-width="0.5" stroke="black" d="M 197 320 177 20"/>
<path stroke-width="0.5" stroke="black" d="M 197 320 306 37"/>
<path stroke-width="0.5" stroke="black" d="M 197 320 170 221"/>
<path stroke-width="0.5" stroke="black" d="M 197 320 285 208"/>
<path stroke-width="20.0" stroke="black" d="M 197 320 172 199"/>
<path stroke-width="0.5" stroke="black" d="M 62 273 406 202"/>
<path stroke-width="0.5" stroke="black" d="M 62 273 359 68"/>
<path stroke-width="0.5" stroke="black" d="M 62 273 420 134"/>
<path stroke-width="0.5" stroke="black" d="M 62 273 342 293"/>
<path stroke-width="0.5" stroke="black" d="M 62 273 370 246"/>
<path stroke-width="0.5" stroke="black" d="M 62 273 88 158"/>
<path stroke-width="0.5" stroke="black" d="M 62 273 59 212"/>
<path stroke-width="0.5" stroke="black" d="M 62 273 20 149"/>
<path stroke-width="0.5" stroke="black" d="M 62 273 24 86"/>
<path stroke-width="0.5" stroke="black" d="M 62 273 250 312"/>
<path stroke-width="0.5" stroke="black" d="M 62 273 197 320"/>
<path stroke-width="0.5" stroke="black" d="M 62 273 130 28"/>
<path stroke-width="0.5" stroke="black" d="M 62 273 256 105"/>
<path stroke-width="0.5" stroke="black" d="M 62 273 104 297"/>
<path stroke-width="0.5" stroke="black" d="M 62 273 134 88"/>
<path stroke-width="0.5" stroke="black" d="M 256 105 359 68"/>
<path stroke-width="0.5" stroke="black" d="M 406 202 420 134"/>
<path stroke-width="0.5" stroke="black" d="M 256 105 420 134"/>
<path stroke-width="0.5" stroke="black" d="M 256 105 370 246"/>
<path stroke-width="0.5" stroke="black" d="M 104 297 130 28"/>
<path stroke-width="0.5" stroke="black" d="M 104 297 256 105"/>
<path stroke-width="0.5" stroke="black" d="M 104 297 134 88"/>
<path stroke-width="0.5" stroke="black" d="M 104 297 177 20"/>
<path stroke-width="0.5" stroke="black" d="M 104 297 306 37"/>
<path stroke-width="0.5" stroke="black" d="M 104 297 170 221"/>
<path stroke-width="0.5" stroke="black" d="M 104 297 285 208"/>
<path stroke-width="20.0" stroke="black" d="M 104 297 172 199"/>
<path stroke-width="0.5" stroke="black" d="M 134 88 406 202"/>
<path stroke-width="0.5" stroke="black" d="M 134 88 359 68"/>
<path stroke-width="0.5" stroke="black" d="M 104 297 62 273"/>
<path stroke-width="0.5" stroke="black" d="M 134 88 420 134"/>
<path stroke-width="0.5" stroke="black" d="M 134 88 370 246"/>
<path stroke-width="0.5" stroke="black" d="M 134 88 88 158"/>
<path stroke-width="0.5" stroke="black" d="M 134 88 59 212"/>
<path stroke-width="0.5" stroke="black" d="M 134 88 20 149"/>
<path stroke-width="0.5" stroke="black" d="M 134 88 24 86"/>
<path stroke-width="0.5" stroke="black" d="M 134 88 250 312"/>
<path stroke-width="0.5" stroke="black" d="M 134 88 197 320"/>
<path stroke-width="0.5" stroke="black" d="M 134 88 62 273"/>
<path stroke-width="0.5" stroke="black" d="M 134 88 130 28"/>
<path stroke-width="0.5" stroke="black" d="M 134 88 256 105"/>
<path stroke-width="0.5" stroke="black" d="M 134 88 342 293"/>
<path stroke-width="0.5" stroke="black" d="M 104 297 197 320"/>
<path stroke-width="0.5" stroke="black" d="M 104 297 250 312"/>
<path stroke-width="0.5" stroke="black" d="M 104 297 24 86"/>
<path stroke-width="0.5" stroke="black" d="M 256 105 88 158"/>
<path stroke-width="0.5" stroke="black" d="M 256 105 59 212"/>
<path stroke-width="0.5" stroke="black" d="M 256 105 20 149"/>
<path stroke-width="0.5" stroke="black" d="M 256 105 24 86"/>
<path stroke-width="0.5" stroke="black" d="M 256 105 250 312"/>
<path stroke-width="0.5" stroke="black" d="M 256 105 197 320"/>
<path stroke-width="0.5" stroke="black" d="M 256 105 62 273"/>
<path stroke-width="0.5" stroke="black" d="M 256 105 130 28"/>
<path stroke-width="0.5" stroke="black" d="M 256 105 104 297"/>
<path stroke-width="0.5" stroke="black" d="M 256 105 134 88"/>
<path stroke-width="0.5" stroke="black" d="M 256 105 177 20"/>
<path stroke-width="0.5" stroke="black" d="M 256 105 306 37"/>
<path stroke-width="0.5" stroke="black" d="M 256 105 170 221"/>
<path stroke-width="0.5" stroke="black" d="M 256 105 285 208"/>
<path stroke-width="20.0" stroke="black" d="M 256 105 172 199"/>
<path stroke-width="0.5" stroke="black" d="M 104 297 406 202"/>
<path stroke-width="0.5" stroke="black" d="M 104 297 359 68"/>
<path stroke-width="0.5" stroke="black" d="M 104 297 420 134"/>
<path stroke-width="0.5" stroke="black" d="M 104 297 342 293"/>
<path stroke-width="0.5" stroke="black" d="M 104 297 370 246"/>
<path stroke-width="0.5" stroke="black" d="M 104 297 88 158"/>
<path stroke-width="0.5" stroke="black" d="M 104 297 59 212"/>
<path stroke-width="0.5" stroke="black" d="M 104 297 20 149"/>
<path stroke-width="0.5" stroke="black" d="M 256 105 342 293"/>
<path stroke-width="0.5" stroke="black" d="M 406 202 359 68"/>
<circle cx="172" cy="199" r="7.0" style="fill:gray;stroke:black;stroke-width:1.0"/>
<circle cx="285" cy="208" r="7.0" style="fill:gray;stroke:black;stroke-width:1.0"/>
<circle cx="170" cy="221" r="7.0" style="fill:gray;stroke:black;stroke-width:1.0"/>
<circle cx="306" cy="37" r="7.0" style="fill:gray;stroke:black;stroke-width:1.0"/>
<circle cx="177" cy="20" r="7.0" style="fill:gray;stroke:black;stroke-width:1.0"/>
<circle cx="134" cy="88" r="7.0" style="fill:gray;stroke:black;stroke-width:1.0"/>
<circle cx="104" cy="297" r="7.0" style="fill:gray;stroke:black;stroke-width:1.0"/>
<circle cx="256" cy="105" r="7.0" style="fill:gray;stroke:black;stroke-width:1.0"/>
<circle cx="130" cy="28" r="7.0" style="fill:gray;stroke:black;stroke-width:1.0"/>
<circle cx="62" cy="273" r="7.0" style="fill:gray;stroke:black;stroke-width:1.0"/>
<circle cx="197" cy="320" r="7.0" style="fill:gray;stroke:black;stroke-width:1.0"/>
<circle cx="250" cy="312" r="7.0" style="fill:gray;stroke:black;stroke-width:1.0"/>
<circle cx="24" cy="86" r="7.0" style="fill:gray;stroke:black;stroke-width:1.0"/>
<circle cx="20" cy="149" r="7.0" style="fill:gray;stroke:black;stroke-width:1.0"/>
<circle cx="59" cy="212" r="7.0" style="fill:gray;stroke:black;stroke-width:1.0"/>
<circle cx="88" cy="158" r="7.0" style="fill:gray;stroke:black;stroke-width:1.0"/>
<circle cx="370" cy="246" r="7.0" style="fill:gray;stroke:black;stroke-width:1.0"/>
<circle cx="342" cy="293" r="7.0" style="fill:gray;stroke:black;stroke-width:1.0"/>
<circle cx="420" cy="134" r="7.0" style="fill:gray;stroke:black;stroke-width:1.0"/>
<circle cx="359" cy="68" r="7.0" style="fill:gray;stroke:black;stroke-width:1.0"/>
<circle cx="406" cy="202" r="7.0" style="fill:gray;stroke:black;stroke-width:1.0"/>
</svg>
