<svg width="440" height="340" xmlns="http://www.w3.org/2000/svg">
<path stroke-width="1" stroke="black" d="M 136 92 56 31"/>
<path stroke-width="1" stroke="black" d="M 136 92 196 156"/>
<path stroke-width="1" stroke="black" d="M 420 320 350 273"/>
<path stroke-width="1" stroke="black" d="M 20 20 56 31"/>
<path stroke-width="1" stroke="black" d="M 290 213 350 273"/>
<path stroke-width="1" stroke="black" d="M 290 213 196 156"/>
<path stroke-width="1" stroke="black" d="M 350 273 420 320"/>
<path stroke-width="1" stroke="black" d="M 350 273 290 213"/>
<path stroke-width="1" stroke="black" d="M 56 31 136 92"/>
<path stroke-width="1" stroke="black" d="M 56 31 20 20"/>
<path stroke-width="1" stroke="black" d="M 196 156 136 92"/>
<path stroke-width="1" stroke="black" d="M 196 156 290 213"/>
<circle cx="136" cy="92" r="7.0" style="fill:gray;stroke:black;stroke-width:1.0"/>
<circle cx="420" cy="320" r="7.0" style="fill:gray;stroke:black;stroke-width:1.0"/>
<circle cx="20" cy="20" r="7.0" style="fill:gray;stroke:black;stroke-width:1.0"/>
<circle cx="290" cy="213" r="7.0" style="fill:gray;stroke:black;stroke-width:1.0"/>
<circle cx="350" cy="273" r="7.0" style="fill:gray;stroke:black;stroke-width:1.0"/>
<circle cx="56" cy="31" r="7.0" style="fill:gray;stroke:black;stroke-width:1.0"/>
<circle cx="196" cy="156" r="7.0" style="fill:gray;stroke:black;stroke-width:1.0"/>
</svg>
