<svg width="440" height="340" xmlns="http://www.w3.org/2000/svg">
<path stroke-width="0.5" stroke="black" d="M 129 91 58 42"/>
<path stroke-width="0.5" stroke="black" d="M 129 91 209 150"/>
<path stroke-width="0.5" stroke="black" d="M 420 320 359 271"/>
<path stroke-width="20.0" stroke="black" d="M 20 20 58 42"/>
<path stroke-width="0.5" stroke="black" d="M 286 213 359 271"/>
<path stroke-width="0.5" stroke="black" d="M 286 213 209 150"/>
<path stroke-width="0.5" stroke="black" d="M 359 271 420 320"/>
<path stroke-width="0.5" stroke="black" d="M 359 271 286 213"/>
<path stroke-width="0.5" stroke="black" d="M 58 42 129 91"/>
<path stroke-width="20.0" stroke="black" d="M 58 42 20 20"/>
<path stroke-width="0.5" stroke="black" d="M 209 150 129 91"/>
<path stroke-width="0.5" stroke="black" d="M 209 150 286 213"/>
<circle cx="129" cy="91" r="7.0" style="fill:gray;stroke:black;stroke-width:1.0"/>
<circle cx="420" cy="320" r="7.0" style="fill:gray;stroke:black;stroke-width:1.0"/>
<circle cx="20" cy="20" r="7.0" style="fill:gray;stroke:black;stroke-width:1.0"/>
<circle cx="286" cy="213" r="7.0" style="fill:gray;stroke:black;stroke-width:1.0"/>
<circle cx="359" cy="271" r="7.0" style="fill:gray;stroke:black;stroke-width:1.0"/>
<circle cx="58" cy="42" r="7.0" style="fill:gray;stroke:black;stroke-width:1.0"/>
<circle cx="209" cy="150" r="7.0" style="fill:gray;stroke:black;stroke-width:1.0"/>
</svg>
