<svg width="440" height="340" xmlns="http://www.w3.org/2000/svg">
<path stroke-width="1" stroke="black" d="M 420 314 370 318"/>
<path stroke-width="1" stroke="black" d="M 310 320 370 318"/>
<path stroke-width="1" stroke="black" d="M 310 320 245 316"/>
<path stroke-width="1" stroke="black" d="M 245 316 310 320"/>
<path stroke-width="1" stroke="black" d="M 245 316 179 305"/>
<path stroke-width="1" stroke="black" d="M 179 305 245 316"/>
<path stroke-width="1" stroke="black" d="M 179 305 116 285"/>
<path stroke-width="1" stroke="black" d="M 116 285 179 305"/>
<path stroke-width="1" stroke="black" d="M 116 285 63 255"/>
<path stroke-width="1" stroke="black" d="M 63 255 116 285"/>
<path stroke-width="1" stroke="black" d="M 63 255 28 216"/>
<path stroke-width="1" stroke="black" d="M 28 216 63 255"/>
<path stroke-width="1" stroke="black" d="M 28 216 20 169"/>
<path stroke-width="1" stroke="black" d="M 20 169 28 216"/>
<path stroke-width="1" stroke="black" d="M 20 169 39 127"/>
<path stroke-width="1" stroke="black" d="M 39 127 20 169"/>
<path stroke-width="1" stroke="black" d="M 39 127 82 90"/>
<path stroke-width="1" stroke="black" d="M 82 90 39 127"/>
<path stroke-width="1" stroke="black" d="M 82 90 133 65"/>
<path stroke-width="1" stroke="black" d="M 133 65 82 90"/>
<path stroke-width="1" stroke="black" d="M 133 65 193 44"/>
<path stroke-width="1" stroke="black" d="M 193 44 133 65"/>
<path stroke-width="1" stroke="black" d="M 193 44 247 30"/>
<path stroke-width="1" stroke="black" d="M 247 30 193 44"/>
<path stroke-width="1" stroke="black" d="M 247 30 295 20"/>
<path stroke-width="1" stroke="black" d="M 295 20 247 30"/>
<path stroke-width="1" stroke="black" d="M 370 318 420 314"/>
<path stroke-width="1" stroke="black" d="M 370 318 310 320"/>
<circle cx="420" cy="314" r="20.0" style="fill:gray;stroke:black;stroke-width:1.0"/>
<circle cx="295" cy="20" r="20.0" style="fill:gray;stroke:black;stroke-width:1.0"/>
<circle cx="247" cy="30" r="20.0" style="fill:gray;stroke:black;stroke-width:1.0"/>
<circle cx="193" cy="44" r="20.0" style="fill:gray;stroke:black;stroke-width:1.0"/>
<circle cx="133" cy="65" r="20.0" style="fill:gray;stroke:black;stroke-width:1.0"/>
<circle cx="82" cy="90" r="20.0" style="fill:gray;stroke:black;stroke-width:1.0"/>
<circle cx="39" cy="127" r="20.0" style="fill:gray;stroke:black;stroke-width:1.0"/>
<circle cx="20" cy="169" r="20.0" style="fill:gray;stroke:black;stroke-width:1.0"/>
<circle cx="28" cy="216" r="20.0" style="fill:gray;stroke:black;stroke-width:1.0"/>
<circle cx="63" cy="255" r="20.0" style="fill:gray;stroke:black;stroke-width:1.0"/>
<circle cx="116" cy="285" r="20.0" style="fill:gray;stroke:black;stroke-width:1.0"/>
<circle cx="179" cy="305" r="20.0" style="fill:gray;stroke:black;stroke-width:1.0"/>
<circle cx="245" cy="316" r="20.0" style="fill:gray;stroke:black;stroke-width:1.0"/>
<circle cx="310" cy="320" r="20.0" style="fill:gray;stroke:black;stroke-width:1.0"/>
<circle cx="370" cy="318" r="20.0" style="fill:gray;stroke:black;stroke-width:1.0"/>
</svg>
