<svg width="440" height="340" xmlns="http://www.w3.org/2000/svg">
<path stroke-width="1" stroke="black" d="M 20 43 75 33"/>
<path stroke-width="1" stroke="black" d="M 145 23 75 33"/>
<path stroke-width="1" stroke="black" d="M 145 23 218 20"/>
<path stroke-width="1" stroke="black" d="M 218 20 145 23"/>
<path stroke-width="1" stroke="black" d="M 218 20 296 26"/>
<path stroke-width="1" stroke="black" d="M 296 26 218 20"/>
<path stroke-width="1" stroke="black" d="M 296 26 361 43"/>
<path stroke-width="1" stroke="black" d="M 361 43 296 26"/>
<path stroke-width="1" stroke="black" d="M 361 43 404 76"/>
<path stroke-width="1" stroke="black" d="M 404 76 361 43"/>
<path stroke-width="1" stroke="black" d="M 404 76 420 111"/>
<path stroke-width="1" stroke="black" d="M 420 111 404 76"/>
<path stroke-width="1" stroke="black" d="M 420 111 411 152"/>
<path stroke-width="1" stroke="black" d="M 411 152 420 111"/>
<path stroke-width="1" stroke="black" d="M 411 152 384 188"/>
<path stroke-width="1" stroke="black" d="M 384 188 411 152"/>
<path stroke-width="1" stroke="black" d="M 384 188 344 224"/>
<path stroke-width="1" stroke="black" d="M 344 224 384 188"/>
<path stroke-width="1" stroke="black" d="M 344 224 296 255"/>
<path stroke-width="1" stroke="black" d="M 296 255 344 224"/>
<path stroke-width="1" stroke="black" d="M 296 255 241 282"/>
<path stroke-width="1" stroke="black" d="M 241 282 296 255"/>
<path stroke-width="1" stroke="black" d="M 241 282 186 304"/>
<path stroke-width="1" stroke="black" d="M 186 304 241 282"/>
<path stroke-width="1" stroke="black" d="M 186 304 137 320"/>
<path stroke-width="1" stroke="black" d="M 137 320 186 304"/>
<path stroke-width="1" stroke="black" d="M 75 33 20 43"/>
<path stroke-width="1" stroke="black" d="M 75 33 145 23"/>
<circle cx="20" cy="43" r="7.0" style="fill:gray;stroke:black;stroke-width:1.0"/>
<circle cx="137" cy="320" r="7.0" style="fill:gray;stroke:black;stroke-width:1.0"/>
<circle cx="186" cy="304" r="7.0" style="fill:gray;stroke:black;stroke-width:1.0"/>
<circle cx="241" cy="282" r="7.0" style="fill:gray;stroke:black;stroke-width:1.0"/>
<circle cx="296" cy="255" r="7.0" style="fill:gray;stroke:black;stroke-width:1.0"/>
<circle cx="344" cy="224" r="7.0" style="fill:gray;stroke:black;stroke-width:1.0"/>
<circle cx="384" cy="188" r="7.0" style="fill:gray;stroke:black;stroke-width:1.0"/>
<circle cx="411" cy="152" r="7.0" style="fill:gray;stroke:black;stroke-width:1.0"/>
<circle cx="420" cy="111" r="7.0" style="fill:gray;stroke:black;stroke-width:1.0"/>
<circle cx="404" cy="76" r="7.0" style="fill:gray;stroke:black;stroke-width:1.0"/>
<circle cx="361" cy="43" r="7.0" style="fill:gray;stroke:black;stroke-width:1.0"/>
<circle cx="296" cy="26" r="7.0" style="fill:gray;stroke:black;stroke-width:1.0"/>
<circle cx="218" cy="20" r="7.0" style="fill:gray;stroke:black;stroke-width:1.0"/>
<circle cx="145" cy="23" r="7.0" style="fill:gray;stroke:black;stroke-width:1.0"/>
<circle cx="75" cy="33" r="7.0" style="fill:gray;stroke:black;stroke-width:1.0"/>
</svg>
