<svg width="440" height="340" xmlns="http://www.w3.org/2000/svg">
<path stroke-width="1" stroke="black" d="M 20 24 47 23"/>
<path stroke-width="1" stroke="black" d="M 79 21 47 23"/>
<path stroke-width="1" stroke="black" d="M 79 21 115 20"/>
<path stroke-width="1" stroke="black" d="M 115 20 79 21"/>
<path stroke-width="1" stroke="black" d="M 115 20 151 21"/>
<path stroke-width="1" stroke="black" d="M 151 21 115 20"/>
<path stroke-width="1" stroke="black" d="M 151 21 189 26"/>
<path stroke-width="1" stroke="black" d="M 189 26 151 21"/>
<path stroke-width="1" stroke="black" d="M 189 26 226 36"/>
<path stroke-width="1" stroke="black" d="M 226 36 189 26"/>
<path stroke-width="1" stroke="black" d="M 226 36 264 54"/>
<path stroke-width="1" stroke="black" d="M 264 54 226 36"/>
<path stroke-width="1" stroke="black" d="M 264 54 298 76"/>
<path stroke-width="1" stroke="black" d="M 298 76 264 54"/>
<path stroke-width="1" stroke="black" d="M 298 76 330 110"/>
<path stroke-width="1" stroke="black" d="M 330 110 298 76"/>
<path stroke-width="1" stroke="black" d="M 330 110 358 143"/>
<path stroke-width="1" stroke="black" d="M 358 143 330 110"/>
<path stroke-width="1" stroke="black" d="M 358 143 382 190"/>
<path stroke-width="1" stroke="black" d="M 382 190 358 143"/>
<path stroke-width="1" stroke="black" d="M 382 190 400 233"/>
<path stroke-width="1" stroke="black" d="M 400 233 382 190"/>
<path stroke-width="1" stroke="black" d="M 400 233 412 280"/>
<path stroke-width="1" stroke="black" d="M 412 280 400 233"/>
<path stroke-width="1" stroke="black" d="M 412 280 420 320"/>
<path stroke-width="1" stroke="black" d="M 420 320 412 280"/>
<path stroke-width="1" stroke="black" d="M 47 23 20 24"/>
<path stroke-width="1" stroke="black" d="M 47 23 79 21"/>
<circle cx="20" cy="24" r="20.0" style="fill:orange;stroke:black;stroke-width:1.0"/>
<circle cx="420" cy="320" r="20.0" style="fill:blue;stroke:black;stroke-width:1.0"/>
<circle cx="412" cy="280" r="20.0" style="fill:blue;stroke:black;stroke-width:1.0"/>
<circle cx="400" cy="233" r="20.0" style="fill:blue;stroke:black;stroke-width:1.0"/>
<circle cx="382" cy="190" r="20.0" style="fill:blue;stroke:black;stroke-width:1.0"/>
<circle cx="358" cy="143" r="20.0" style="fill:red;stroke:black;stroke-width:1.0"/>
<circle cx="330" cy="110" r="20.0" style="fill:red;stroke:black;stroke-width:1.0"/>
<circle cx="298" cy="76" r="20.0" style="fill:red;stroke:black;stroke-width:1.0"/>
<circle cx="264" cy="54" r="20.0" style="fill:red;stroke:black;stroke-width:1.0"/>
<circle cx="226" cy="36" r="20.0" style="fill:green;stroke:black;stroke-width:1.0"/>
<circle cx="189" cy="26" r="20.0" style="fill:green;stroke:black;stroke-width:1.0"/>
<circle cx="151" cy="21" r="20.0" style="fill:green;stroke:black;stroke-width:1.0"/>
<circle cx="115" cy="20" r="20.0" style="fill:green;stroke:black;stroke-width:1.0"/>
<circle cx="79" cy="21" r="20.0" style="fill:orange;stroke:black;stroke-width:1.0"/>
<circle cx="47" cy="23" r="20.0" style="fill:orange;stroke:black;stroke-width:1.0"/>
</svg>
