<svg width="440" height="340" xmlns="http://www.w3.org/2000/svg">
<path stroke-width="1" stroke="black" d="M 24 320 20 269"/>
<path stroke-width="1" stroke="black" d="M 20 209 20 269"/>
<path stroke-width="1" stroke="black" d="M 20 209 29 149"/>
<path stroke-width="1" stroke="black" d="M 29 149 20 209"/>
<path stroke-width="1" stroke="black" d="M 29 149 57 98"/>
<path stroke-width="1" stroke="black" d="M 57 98 29 149"/>
<path stroke-width="1" stroke="black" d="M 57 98 87 54"/>
<path stroke-width="1" stroke="black" d="M 87 54 57 98"/>
<path stroke-width="1" stroke="black" d="M 87 54 130 31"/>
<path stroke-width="1" stroke="black" d="M 130 31 87 54"/>
<path stroke-width="1" stroke="black" d="M 130 31 172 20"/>
<path stroke-width="1" stroke="black" d="M 172 20 130 31"/>
<path stroke-width="1" stroke="black" d="M 172 20 218 24"/>
<path stroke-width="1" stroke="black" d="M 218 24 172 20"/>
<path stroke-width="1" stroke="black" d="M 218 24 259 43"/>
<path stroke-width="1" stroke="black" d="M 259 43 218 24"/>
<path stroke-width="1" stroke="black" d="M 259 43 302 71"/>
<path stroke-width="1" stroke="black" d="M 302 71 259 43"/>
<path stroke-width="1" stroke="black" d="M 302 71 336 110"/>
<path stroke-width="1" stroke="black" d="M 336 110 302 71"/>
<path stroke-width="1" stroke="black" d="M 336 110 370 151"/>
<path stroke-width="1" stroke="black" d="M 370 151 336 110"/>
<path stroke-width="1" stroke="black" d="M 370 151 397 194"/>
<path stroke-width="1" stroke="black" d="M 397 194 370 151"/>
<path stroke-width="1" stroke="black" d="M 397 194 420 231"/>
<path stroke-width="1" stroke="black" d="M 420 231 397 194"/>
<path stroke-width="1" stroke="black" d="M 20 269 24 320"/>
<path stroke-width="1" stroke="black" d="M 20 269 20 209"/>
<circle cx="24" cy="320" r="7.0" style="fill:orange;stroke:black;stroke-width:1.0"/>
<circle cx="420" cy="231" r="7.0" style="fill:blue;stroke:black;stroke-width:1.0"/>
<circle cx="397" cy="194" r="7.0" style="fill:blue;stroke:black;stroke-width:1.0"/>
<circle cx="370" cy="151" r="7.0" style="fill:blue;stroke:black;stroke-width:1.0"/>
<circle cx="336" cy="110" r="7.0" style="fill:blue;stroke:black;stroke-width:1.0"/>
<circle cx="302" cy="71" r="7.0" style="fill:red;stroke:black;stroke-width:1.0"/>
<circle cx="259" cy="43" r="7.0" style="fill:red;stroke:black;stroke-width:1.0"/>
<circle cx="218" cy="24" r="7.0" style="fill:red;stroke:black;stroke-width:1.0"/>
<circle cx="172" cy="20" r="7.0" style="fill:red;stroke:black;stroke-width:1.0"/>
<circle cx="130" cy="31" r="7.0" style="fill:green;stroke:black;stroke-width:1.0"/>
<circle cx="87" cy="54" r="7.0" style="fill:green;stroke:black;stroke-width:1.0"/>
<circle cx="57" cy="98" r="7.0" style="fill:green;stroke:black;stroke-width:1.0"/>
<circle cx="29" cy="149" r="7.0" style="fill:green;stroke:black;stroke-width:1.0"/>
<circle cx="20" cy="209" r="7.0" style="fill:orange;stroke:black;stroke-width:1.0"/>
<circle cx="20" cy="269" r="7.0" style="fill:orange;stroke:black;stroke-width:1.0"/>
</svg>
