<svg width="440" height="340" xmlns="http://www.w3.org/2000/svg">
<path stroke-width="20.0" stroke="black" d="M 287 305 285 291"/>
<path stroke-width="0.5" stroke="black" d="M 109 112 93 68"/>
<path stroke-width="0.5" stroke="black" d="M 109 112 143 160"/>
<path stroke-width="20.0" stroke="black" d="M 101 104 109 112"/>
<path stroke-width="20.0" stroke="black" d="M 85 43 100 35"/>
<path stroke-width="0.5" stroke="black" d="M 85 43 88 33"/>
<path stroke-width="0.5" stroke="black" d="M 85 43 57 70"/>
<path stroke-width="20.0" stroke="black" d="M 100 35 85 43"/>
<path stroke-width="0.5" stroke="black" d="M 333 168 310 152"/>
<path stroke-width="20.0" stroke="black" d="M 333 168 352 166"/>
<path stroke-width="0.5" stroke="black" d="M 333 168 297 185"/>
<path stroke-width="20.0" stroke="black" d="M 352 166 333 168"/>
<path stroke-width="0.5" stroke="black" d="M 297 185 333 168"/>
<path stroke-width="20.0" stroke="black" d="M 297 185 314 187"/>
<path stroke-width="0.5" stroke="black" d="M 297 185 240 196"/>
<path stroke-width="20.0" stroke="black" d="M 314 187 297 185"/>
<path stroke-width="20.0" stroke="black" d="M 117 228 129 240"/>
<path stroke-width="0.5" stroke="black" d="M 117 228 87 203"/>
<path stroke-width="0.5" stroke="black" d="M 117 228 140 228"/>
<path stroke-width="20.0" stroke="black" d="M 129 240 117 228"/>
<path stroke-width="0.5" stroke="black" d="M 272 285 265 255"/>
<path stroke-width="20.0" stroke="black" d="M 272 285 262 296"/>
<path stroke-width="0.5" stroke="black" d="M 272 285 314 293"/>
<path stroke-width="20.0" stroke="black" d="M 262 296 272 285"/>
<path stroke-width="0.5" stroke="black" d="M 314 293 346 278"/>
<path stroke-width="0.5" stroke="black" d="M 314 293 272 285"/>
<path stroke-width="20.0" stroke="black" d="M 314 293 318 303"/>
<path stroke-width="20.0" stroke="black" d="M 318 303 314 293"/>
<path stroke-width="20.0" stroke="black" d="M 109 112 101 104"/>
<path stroke-width="0.5" stroke="black" d="M 93 68 109 112"/>
<path stroke-width="20.0" stroke="black" d="M 260 146 269 156"/>
<path stroke-width="20.0" stroke="black" d="M 269 156 260 146"/>
<path stroke-width="0.5" stroke="black" d="M 405 277 376 264"/>
<path stroke-width="20.0" stroke="black" d="M 417 270 405 277"/>
<path stroke-width="0.5" stroke="black" d="M 401 301 405 277"/>
<path stroke-width="20.0" stroke="black" d="M 401 301 420 305"/>
<path stroke-width="0.5" stroke="black" d="M 401 301 352 308"/>
<path stroke-width="20.0" stroke="black" d="M 420 305 401 301"/>
<path stroke-width="20.0" stroke="black" d="M 265 255 267 263"/>
<path stroke-width="0.5" stroke="black" d="M 265 255 272 285"/>
<path stroke-width="0.5" stroke="black" d="M 265 255 258 219"/>
<path stroke-width="20.0" stroke="black" d="M 267 263 265 255"/>
<path stroke-width="0.5" stroke="black" d="M 352 308 401 301"/>
<path stroke-width="20.0" stroke="black" d="M 352 308 363 320"/>
<path stroke-width="0.5" stroke="black" d="M 352 308 285 291"/>
<path stroke-width="20.0" stroke="black" d="M 363 320 352 308"/>
<path stroke-width="20.0" stroke="black" d="M 310 152 320 145"/>
<path stroke-width="0.5" stroke="black" d="M 310 152 269 156"/>
<path stroke-width="0.5" stroke="black" d="M 310 152 333 168"/>
<path stroke-width="20.0" stroke="black" d="M 320 145 310 152"/>
<path stroke-width="20.0" stroke="black" d="M 346 278 353 272"/>
<path stroke-width="0.5" stroke="black" d="M 346 278 376 264"/>
<path stroke-width="0.5" stroke="black" d="M 346 278 314 293"/>
<path stroke-width="20.0" stroke="black" d="M 353 272 346 278"/>
<path stroke-width="0.5" stroke="black" d="M 376 264 405 277"/>
<path stroke-width="0.5" stroke="black" d="M 376 264 346 278"/>
<path stroke-width="20.0" stroke="black" d="M 376 264 375 254"/>
<path stroke-width="20.0" stroke="black" d="M 375 254 376 264"/>
<path stroke-width="0.5" stroke="black" d="M 269 156 310 152"/>
<path stroke-width="0.5" stroke="black" d="M 269 156 252 182"/>
<path stroke-width="20.0" stroke="black" d="M 93 68 81 58"/>
<path stroke-width="0.5" stroke="black" d="M 93 68 88 33"/>
<path stroke-width="20.0" stroke="black" d="M 81 58 93 68"/>
<path stroke-width="0.5" stroke="black" d="M 140 228 117 228"/>
<path stroke-width="20.0" stroke="black" d="M 140 228 123 236"/>
<path stroke-width="0.5" stroke="black" d="M 140 228 184 208"/>
<path stroke-width="20.0" stroke="black" d="M 123 236 140 228"/>
<path stroke-width="0.5" stroke="black" d="M 143 160 109 112"/>
<path stroke-width="20.0" stroke="black" d="M 143 160 128 155"/>
<path stroke-width="0.5" stroke="black" d="M 143 160 176 210"/>
<path stroke-width="20.0" stroke="black" d="M 128 155 143 160"/>
<path stroke-width="0.5" stroke="black" d="M 176 210 143 160"/>
<path stroke-width="20.0" stroke="black" d="M 176 210 166 218"/>
<path stroke-width="0.5" stroke="black" d="M 176 210 231 253"/>
<path stroke-width="20.0" stroke="black" d="M 166 218 176 210"/>
<path stroke-width="0.5" stroke="black" d="M 184 208 140 228"/>
<path stroke-width="20.0" stroke="black" d="M 184 208 171 202"/>
<path stroke-width="0.5" stroke="black" d="M 184 208 240 196"/>
<path stroke-width="20.0" stroke="black" d="M 171 202 184 208"/>
<path stroke-width="0.5" stroke="black" d="M 240 196 297 185"/>
<path stroke-width="0.5" stroke="black" d="M 240 196 184 208"/>
<path stroke-width="20.0" stroke="black" d="M 240 196 229 193"/>
<path stroke-width="20.0" stroke="black" d="M 229 193 240 196"/>
<path stroke-width="0.5" stroke="black" d="M 231 253 176 210"/>
<path stroke-width="20.0" stroke="black" d="M 231 253 224 261"/>
<path stroke-width="0.5" stroke="black" d="M 231 253 285 291"/>
<path stroke-width="20.0" stroke="black" d="M 224 261 231 253"/>
<path stroke-width="0.5" stroke="black" d="M 285 291 352 308"/>
<path stroke-width="0.5" stroke="black" d="M 285 291 231 253"/>
<path stroke-width="20.0" stroke="black" d="M 285 291 287 305"/>
<path stroke-width="20.0" stroke="black" d="M 24 138 40 137"/>
<path stroke-width="20.0" stroke="black" d="M 40 137 24 138"/>
<path stroke-width="0.5" stroke="black" d="M 40 137 62 171"/>
<path stroke-width="0.5" stroke="black" d="M 40 137 36 101"/>
<path stroke-width="0.5" stroke="black" d="M 88 33 85 43"/>
<path stroke-width="0.5" stroke="black" d="M 88 33 93 68"/>
<path stroke-width="20.0" stroke="black" d="M 88 33 90 20"/>
<path stroke-width="20.0" stroke="black" d="M 90 20 88 33"/>
<path stroke-width="0.5" stroke="black" d="M 252 182 269 156"/>
<path stroke-width="20.0" stroke="black" d="M 252 182 240 174"/>
<path stroke-width="0.5" stroke="black" d="M 252 182 258 219"/>
<path stroke-width="20.0" stroke="black" d="M 240 174 252 182"/>
<path stroke-width="0.5" stroke="black" d="M 258 219 265 255"/>
<path stroke-width="0.5" stroke="black" d="M 258 219 252 182"/>
<path stroke-width="20.0" stroke="black" d="M 258 219 267 215"/>
<path stroke-width="20.0" stroke="black" d="M 267 215 258 219"/>
<path stroke-width="0.5" stroke="black" d="M 57 70 85 43"/>
<path stroke-width="0.5" stroke="black" d="M 405 277 401 301"/>
<path stroke-width="20.0" stroke="black" d="M 57 70 57 61"/>
<path stroke-width="20.0" stroke="black" d="M 57 61 57 70"/>
<path stroke-width="0.5" stroke="black" d="M 36 101 57 70"/>
<path stroke-width="20.0" stroke="black" d="M 36 101 20 98"/>
<path stroke-width="0.5" stroke="black" d="M 36 101 40 137"/>
<path stroke-width="20.0" stroke="black" d="M 20 98 36 101"/>
<path stroke-width="0.5" stroke="black" d="M 87 203 117 228"/>
<path stroke-width="20.0" stroke="black" d="M 87 203 87 212"/>
<path stroke-width="0.5" stroke="black" d="M 87 203 62 171"/>
<path stroke-width="20.0" stroke="black" d="M 87 212 87 203"/>
<path stroke-width="0.5" stroke="black" d="M 62 171 87 203"/>
<path stroke-width="20.0" stroke="black" d="M 62 171 69 176"/>
<path stroke-width="0.5" stroke="black" d="M 62 171 40 137"/>
<path stroke-width="20.0" stroke="black" d="M 69 176 62 171"/>
<path stroke-width="0.5" stroke="black" d="M 57 70 36 101"/>
<path stroke-width="20.0" stroke="black" d="M 405 277 417 270"/>
<circle cx="287" cy="305" r="20.0" style="fill:gray;stroke:black;stroke-width:1.0"/>
<circle cx="285" cy="291" r="20.0" style="fill:gray;stroke:black;stroke-width:1.0"/>
<circle cx="224" cy="261" r="20.0" style="fill:gray;stroke:black;stroke-width:1.0"/>
<circle cx="231" cy="253" r="20.0" style="fill:gray;stroke:black;stroke-width:1.0"/>
<circle cx="229" cy="193" r="20.0" style="fill:gray;stroke:black;stroke-width:1.0"/>
<circle cx="240" cy="196" r="20.0" style="fill:gray;stroke:black;stroke-width:1.0"/>
<circle cx="171" cy="202" r="20.0" style="fill:gray;stroke:black;stroke-width:1.0"/>
<circle cx="184" cy="208" r="20.0" style="fill:gray;stroke:black;stroke-width:1.0"/>
<circle cx="166" cy="218" r="20.0" style="fill:gray;stroke:black;stroke-width:1.0"/>
<circle cx="176" cy="210" r="20.0" style="fill:gray;stroke:black;stroke-width:1.0"/>
<circle cx="128" cy="155" r="20.0" style="fill:gray;stroke:black;stroke-width:1.0"/>
<circle cx="143" cy="160" r="20.0" style="fill:gray;stroke:black;stroke-width:1.0"/>
<circle cx="123" cy="236" r="20.0" style="fill:gray;stroke:black;stroke-width:1.0"/>
<circle cx="140" cy="228" r="20.0" style="fill:gray;stroke:black;stroke-width:1.0"/>
<circle cx="24" cy="138" r="20.0" style="fill:gray;stroke:black;stroke-width:1.0"/>
<circle cx="40" cy="137" r="20.0" style="fill:gray;stroke:black;stroke-width:1.0"/>
<circle cx="69" cy="176" r="20.0" style="fill:gray;stroke:black;stroke-width:1.0"/>
<circle cx="62" cy="171" r="20.0" style="fill:gray;stroke:black;stroke-width:1.0"/>
<circle cx="87" cy="212" r="20.0" style="fill:gray;stroke:black;stroke-width:1.0"/>
<circle cx="87" cy="203" r="20.0" style="fill:gray;stroke:black;stroke-width:1.0"/>
<circle cx="20" cy="98" r="20.0" style="fill:gray;stroke:black;stroke-width:1.0"/>
<circle cx="36" cy="101" r="20.0" style="fill:gray;stroke:black;stroke-width:1.0"/>
<circle cx="57" cy="61" r="20.0" style="fill:gray;stroke:black;stroke-width:1.0"/>
<circle cx="57" cy="70" r="20.0" style="fill:gray;stroke:black;stroke-width:1.0"/>
<circle cx="267" cy="215" r="20.0" style="fill:gray;stroke:black;stroke-width:1.0"/>
<circle cx="258" cy="219" r="20.0" style="fill:gray;stroke:black;stroke-width:1.0"/>
<circle cx="240" cy="174" r="20.0" style="fill:gray;stroke:black;stroke-width:1.0"/>
<circle cx="252" cy="182" r="20.0" style="fill:gray;stroke:black;stroke-width:1.0"/>
<circle cx="90" cy="20" r="20.0" style="fill:gray;stroke:black;stroke-width:1.0"/>
<circle cx="88" cy="33" r="20.0" style="fill:gray;stroke:black;stroke-width:1.0"/>
<circle cx="81" cy="58" r="20.0" style="fill:gray;stroke:black;stroke-width:1.0"/>
<circle cx="93" cy="68" r="20.0" style="fill:gray;stroke:black;stroke-width:1.0"/>
<circle cx="318" cy="303" r="20.0" style="fill:gray;stroke:black;stroke-width:1.0"/>
<circle cx="314" cy="293" r="20.0" style="fill:gray;stroke:black;stroke-width:1.0"/>
<circle cx="262" cy="296" r="20.0" style="fill:gray;stroke:black;stroke-width:1.0"/>
<circle cx="272" cy="285" r="20.0" style="fill:gray;stroke:black;stroke-width:1.0"/>
<circle cx="129" cy="240" r="20.0" style="fill:gray;stroke:black;stroke-width:1.0"/>
<circle cx="117" cy="228" r="20.0" style="fill:gray;stroke:black;stroke-width:1.0"/>
<circle cx="314" cy="187" r="20.0" style="fill:gray;stroke:black;stroke-width:1.0"/>
<circle cx="297" cy="185" r="20.0" style="fill:gray;stroke:black;stroke-width:1.0"/>
<circle cx="352" cy="166" r="20.0" style="fill:gray;stroke:black;stroke-width:1.0"/>
<circle cx="333" cy="168" r="20.0" style="fill:gray;stroke:black;stroke-width:1.0"/>
<circle cx="100" cy="35" r="20.0" style="fill:gray;stroke:black;stroke-width:1.0"/>
<circle cx="85" cy="43" r="20.0" style="fill:gray;stroke:black;stroke-width:1.0"/>
<circle cx="101" cy="104" r="20.0" style="fill:gray;stroke:black;stroke-width:1.0"/>
<circle cx="109" cy="112" r="20.0" style="fill:gray;stroke:black;stroke-width:1.0"/>
<circle cx="260" cy="146" r="20.0" style="fill:gray;stroke:black;stroke-width:1.0"/>
<circle cx="269" cy="156" r="20.0" style="fill:gray;stroke:black;stroke-width:1.0"/>
<circle cx="375" cy="254" r="20.0" style="fill:gray;stroke:black;stroke-width:1.0"/>
<circle cx="376" cy="264" r="20.0" style="fill:gray;stroke:black;stroke-width:1.0"/>
<circle cx="353" cy="272" r="20.0" style="fill:gray;stroke:black;stroke-width:1.0"/>
<circle cx="346" cy="278" r="20.0" style="fill:gray;stroke:black;stroke-width:1.0"/>
<circle cx="320" cy="145" r="20.0" style="fill:gray;stroke:black;stroke-width:1.0"/>
<circle cx="310" cy="152" r="20.0" style="fill:gray;stroke:black;stroke-width:1.0"/>
<circle cx="363" cy="320" r="20.0" style="fill:gray;stroke:black;stroke-width:1.0"/>
<circle cx="352" cy="308" r="20.0" style="fill:gray;stroke:black;stroke-width:1.0"/>
<circle cx="267" cy="263" r="20.0" style="fill:gray;stroke:black;stroke-width:1.0"/>
<circle cx="265" cy="255" r="20.0" style="fill:gray;stroke:black;stroke-width:1.0"/>
<circle cx="420" cy="305" r="20.0" style="fill:gray;stroke:black;stroke-width:1.0"/>
<circle cx="401" cy="301" r="20.0" style="fill:gray;stroke:black;stroke-width:1.0"/>
<circle cx="417" cy="270" r="20.0" style="fill:gray;stroke:black;stroke-width:1.0"/>
<circle cx="405" cy="277" r="20.0" style="fill:gray;stroke:black;stroke-width:1.0"/>
</svg>
