<svg width="440" height="340" xmlns="http://www.w3.org/2000/svg">
<path stroke-width="1" stroke="black" d="M 138 198 159 193"/>
<path stroke-width="1" stroke="black" d="M 224 224 195 195"/>
<path stroke-width="1" stroke="black" d="M 224 224 272 244"/>
<path stroke-width="1" stroke="black" d="M 208 224 224 224"/>
<path stroke-width="1" stroke="black" d="M 266 168 251 164"/>
<path stroke-width="1" stroke="black" d="M 266 168 200 171"/>
<path stroke-width="1" stroke="black" d="M 266 168 338 172"/>
<path stroke-width="1" stroke="black" d="M 251 164 266 168"/>
<path stroke-width="1" stroke="black" d="M 286 280 358 241"/>
<path stroke-width="1" stroke="black" d="M 286 280 294 294"/>
<path stroke-width="1" stroke="black" d="M 286 280 195 302"/>
<path stroke-width="1" stroke="black" d="M 294 294 286 280"/>
<path stroke-width="1" stroke="black" d="M 195 302 286 280"/>
<path stroke-width="1" stroke="black" d="M 195 302 182 311"/>
<path stroke-width="1" stroke="black" d="M 195 302 112 311"/>
<path stroke-width="1" stroke="black" d="M 182 311 195 302"/>
<path stroke-width="1" stroke="black" d="M 119 261 104 267"/>
<path stroke-width="1" stroke="black" d="M 119 261 197 245"/>
<path stroke-width="1" stroke="black" d="M 119 261 52 275"/>
<path stroke-width="1" stroke="black" d="M 104 267 119 261"/>
<path stroke-width="1" stroke="black" d="M 86 70 155 91"/>
<path stroke-width="1" stroke="black" d="M 86 70 59 70"/>
<path stroke-width="1" stroke="black" d="M 86 70 94 39"/>
<path stroke-width="1" stroke="black" d="M 59 70 86 70"/>
<path stroke-width="1" stroke="black" d="M 94 39 150 31"/>
<path stroke-width="1" stroke="black" d="M 94 39 86 70"/>
<path stroke-width="1" stroke="black" d="M 94 39 73 33"/>
<path stroke-width="1" stroke="black" d="M 73 33 94 39"/>
<path stroke-width="1" stroke="black" d="M 224 224 208 224"/>
<path stroke-width="1" stroke="black" d="M 195 195 224 224"/>
<path stroke-width="1" stroke="black" d="M 404 177 374 182"/>
<path stroke-width="1" stroke="black" d="M 374 182 404 177"/>
<path stroke-width="1" stroke="black" d="M 188 78 201 43"/>
<path stroke-width="1" stroke="black" d="M 209 73 188 78"/>
<path stroke-width="1" stroke="black" d="M 144 115 188 78"/>
<path stroke-width="1" stroke="black" d="M 144 115 126 115"/>
<path stroke-width="1" stroke="black" d="M 144 115 120 155"/>
<path stroke-width="1" stroke="black" d="M 126 115 144 115"/>
<path stroke-width="1" stroke="black" d="M 155 91 131 88"/>
<path stroke-width="1" stroke="black" d="M 155 91 86 70"/>
<path stroke-width="1" stroke="black" d="M 155 91 237 112"/>
<path stroke-width="1" stroke="black" d="M 131 88 155 91"/>
<path stroke-width="1" stroke="black" d="M 120 155 144 115"/>
<path stroke-width="1" stroke="black" d="M 120 155 94 156"/>
<path stroke-width="1" stroke="black" d="M 120 155 159 193"/>
<path stroke-width="1" stroke="black" d="M 94 156 120 155"/>
<path stroke-width="1" stroke="black" d="M 358 241 385 245"/>
<path stroke-width="1" stroke="black" d="M 358 241 374 182"/>
<path stroke-width="1" stroke="black" d="M 358 241 286 280"/>
<path stroke-width="1" stroke="black" d="M 385 245 358 241"/>
<path stroke-width="1" stroke="black" d="M 150 31 158 20"/>
<path stroke-width="1" stroke="black" d="M 150 31 201 43"/>
<path stroke-width="1" stroke="black" d="M 150 31 94 39"/>
<path stroke-width="1" stroke="black" d="M 158 20 150 31"/>
<path stroke-width="1" stroke="black" d="M 201 43 188 78"/>
<path stroke-width="1" stroke="black" d="M 201 43 150 31"/>
<path stroke-width="1" stroke="black" d="M 201 43 224 36"/>
<path stroke-width="1" stroke="black" d="M 224 36 201 43"/>
<path stroke-width="1" stroke="black" d="M 374 182 358 241"/>
<path stroke-width="1" stroke="black" d="M 374 182 322 138"/>
<path stroke-width="1" stroke="black" d="M 195 195 181 189"/>
<path stroke-width="1" stroke="black" d="M 195 195 200 171"/>
<path stroke-width="1" stroke="black" d="M 181 189 195 195"/>
<path stroke-width="1" stroke="black" d="M 52 275 119 261"/>
<path stroke-width="1" stroke="black" d="M 52 275 27 273"/>
<path stroke-width="1" stroke="black" d="M 52 275 45 304"/>
<path stroke-width="1" stroke="black" d="M 27 273 52 275"/>
<path stroke-width="1" stroke="black" d="M 272 244 224 224"/>
<path stroke-width="1" stroke="black" d="M 272 244 287 255"/>
<path stroke-width="1" stroke="black" d="M 272 244 295 235"/>
<path stroke-width="1" stroke="black" d="M 287 255 272 244"/>
<path stroke-width="1" stroke="black" d="M 295 235 272 244"/>
<path stroke-width="1" stroke="black" d="M 295 235 320 242"/>
<path stroke-width="1" stroke="black" d="M 295 235 234 215"/>
<path stroke-width="1" stroke="black" d="M 320 242 295 235"/>
<path stroke-width="1" stroke="black" d="M 45 304 52 275"/>
<path stroke-width="1" stroke="black" d="M 45 304 20 307"/>
<path stroke-width="1" stroke="black" d="M 45 304 112 311"/>
<path stroke-width="1" stroke="black" d="M 20 307 45 304"/>
<path stroke-width="1" stroke="black" d="M 112 311 195 302"/>
<path stroke-width="1" stroke="black" d="M 112 311 45 304"/>
<path stroke-width="1" stroke="black" d="M 112 311 94 320"/>
<path stroke-width="1" stroke="black" d="M 94 320 112 311"/>
<path stroke-width="1" stroke="black" d="M 234 215 295 235"/>
<path stroke-width="1" stroke="black" d="M 234 215 250 221"/>
<path stroke-width="1" stroke="black" d="M 234 215 159 193"/>
<path stroke-width="1" stroke="black" d="M 250 221 234 215"/>
<path stroke-width="1" stroke="black" d="M 159 193 120 155"/>
<path stroke-width="1" stroke="black" d="M 159 193 234 215"/>
<path stroke-width="1" stroke="black" d="M 159 193 138 198"/>
<path stroke-width="1" stroke="black" d="M 365 200 345 203"/>
<path stroke-width="1" stroke="black" d="M 345 203 365 200"/>
<path stroke-width="1" stroke="black" d="M 345 203 276 219"/>
<path stroke-width="1" stroke="black" d="M 345 203 392 189"/>
<path stroke-width="1" stroke="black" d="M 200 171 266 168"/>
<path stroke-width="1" stroke="black" d="M 200 171 195 195"/>
<path stroke-width="1" stroke="black" d="M 200 171 174 168"/>
<path stroke-width="1" stroke="black" d="M 174 168 200 171"/>
<path stroke-width="1" stroke="black" d="M 322 138 374 182"/>
<path stroke-width="1" stroke="black" d="M 322 138 340 128"/>
<path stroke-width="1" stroke="black" d="M 322 138 237 112"/>
<path stroke-width="1" stroke="black" d="M 340 128 322 138"/>
<path stroke-width="1" stroke="black" d="M 237 112 155 91"/>
<path stroke-width="1" stroke="black" d="M 237 112 322 138"/>
<path stroke-width="1" stroke="black" d="M 237 112 244 105"/>
<path stroke-width="1" stroke="black" d="M 244 105 237 112"/>
<path stroke-width="1" stroke="black" d="M 338 172 266 168"/>
<path stroke-width="1" stroke="black" d="M 188 78 144 115"/>
<path stroke-width="1" stroke="black" d="M 338 172 357 166"/>
<path stroke-width="1" stroke="black" d="M 357 166 338 172"/>
<path stroke-width="1" stroke="black" d="M 392 189 338 172"/>
<path stroke-width="1" stroke="black" d="M 392 189 420 190"/>
<path stroke-width="1" stroke="black" d="M 392 189 345 203"/>
<path stroke-width="1" stroke="black" d="M 420 190 392 189"/>
<path stroke-width="1" stroke="black" d="M 197 245 119 261"/>
<path stroke-width="1" stroke="black" d="M 197 245 203 256"/>
<path stroke-width="1" stroke="black" d="M 197 245 276 219"/>
<path stroke-width="1" stroke="black" d="M 203 256 197 245"/>
<path stroke-width="1" stroke="black" d="M 276 219 197 245"/>
<path stroke-width="1" stroke="black" d="M 276 219 289 209"/>
<path stroke-width="1" stroke="black" d="M 276 219 345 203"/>
<path stroke-width="1" stroke="black" d="M 289 209 276 219"/>
<path stroke-width="1" stroke="black" d="M 338 172 392 189"/>
<path stroke-width="1" stroke="black" d="M 188 78 209 73"/>
<circle cx="138" cy="198" r="20.0" style="fill:red;stroke:black;stroke-width:1.0"/>
<circle cx="159" cy="193" r="20.0" style="fill:red;stroke:black;stroke-width:1.0"/>
<circle cx="250" cy="221" r="20.0" style="fill:orange;stroke:black;stroke-width:1.0"/>
<circle cx="234" cy="215" r="20.0" style="fill:orange;stroke:black;stroke-width:1.0"/>
<circle cx="94" cy="320" r="20.0" style="fill:green;stroke:black;stroke-width:1.0"/>
<circle cx="112" cy="311" r="20.0" style="fill:green;stroke:black;stroke-width:1.0"/>
<circle cx="20" cy="307" r="20.0" style="fill:purple;stroke:black;stroke-width:1.0"/>
<circle cx="45" cy="304" r="20.0" style="fill:purple;stroke:black;stroke-width:1.0"/>
<circle cx="320" cy="242" r="20.0" style="fill:orange;stroke:black;stroke-width:1.0"/>
<circle cx="295" cy="235" r="20.0" style="fill:orange;stroke:black;stroke-width:1.0"/>
<circle cx="287" cy="255" r="20.0" style="fill:orange;stroke:black;stroke-width:1.0"/>
<circle cx="272" cy="244" r="20.0" style="fill:purple;stroke:black;stroke-width:1.0"/>
<circle cx="27" cy="273" r="20.0" style="fill:purple;stroke:black;stroke-width:1.0"/>
<circle cx="52" cy="275" r="20.0" style="fill:purple;stroke:black;stroke-width:1.0"/>
<circle cx="365" cy="200" r="20.0" style="fill:green;stroke:black;stroke-width:1.0"/>
<circle cx="345" cy="203" r="20.0" style="fill:green;stroke:black;stroke-width:1.0"/>
<circle cx="289" cy="209" r="20.0" style="fill:fuchsia;stroke:black;stroke-width:1.0"/>
<circle cx="276" cy="219" r="20.0" style="fill:fuchsia;stroke:black;stroke-width:1.0"/>
<circle cx="203" cy="256" r="20.0" style="fill:fuchsia;stroke:black;stroke-width:1.0"/>
<circle cx="197" cy="245" r="20.0" style="fill:fuchsia;stroke:black;stroke-width:1.0"/>
<circle cx="420" cy="190" r="20.0" style="fill:green;stroke:black;stroke-width:1.0"/>
<circle cx="392" cy="189" r="20.0" style="fill:green;stroke:black;stroke-width:1.0"/>
<circle cx="357" cy="166" r="20.0" style="fill:olive;stroke:black;stroke-width:1.0"/>
<circle cx="338" cy="172" r="20.0" style="fill:olive;stroke:black;stroke-width:1.0"/>
<circle cx="244" cy="105" r="20.0" style="fill:red;stroke:black;stroke-width:1.0"/>
<circle cx="237" cy="112" r="20.0" style="fill:orange;stroke:black;stroke-width:1.0"/>
<circle cx="340" cy="128" r="20.0" style="fill:red;stroke:black;stroke-width:1.0"/>
<circle cx="322" cy="138" r="20.0" style="fill:red;stroke:black;stroke-width:1.0"/>
<circle cx="174" cy="168" r="20.0" style="fill:aqua;stroke:black;stroke-width:1.0"/>
<circle cx="200" cy="171" r="20.0" style="fill:aqua;stroke:black;stroke-width:1.0"/>
<circle cx="181" cy="189" r="20.0" style="fill:aqua;stroke:black;stroke-width:1.0"/>
<circle cx="195" cy="195" r="20.0" style="fill:aqua;stroke:black;stroke-width:1.0"/>
<circle cx="73" cy="33" r="20.0" style="fill:orange;stroke:black;stroke-width:1.0"/>
<circle cx="94" cy="39" r="20.0" style="fill:orange;stroke:black;stroke-width:1.0"/>
<circle cx="59" cy="70" r="20.0" style="fill:orange;stroke:black;stroke-width:1.0"/>
<circle cx="86" cy="70" r="20.0" style="fill:orange;stroke:black;stroke-width:1.0"/>
<circle cx="104" cy="267" r="20.0" style="fill:fuchsia;stroke:black;stroke-width:1.0"/>
<circle cx="119" cy="261" r="20.0" style="fill:fuchsia;stroke:black;stroke-width:1.0"/>
<circle cx="182" cy="311" r="20.0" style="fill:blue;stroke:black;stroke-width:1.0"/>
<circle cx="195" cy="302" r="20.0" style="fill:blue;stroke:black;stroke-width:1.0"/>
<circle cx="294" cy="294" r="20.0" style="fill:blue;stroke:black;stroke-width:1.0"/>
<circle cx="286" cy="280" r="20.0" style="fill:brown;stroke:black;stroke-width:1.0"/>
<circle cx="251" cy="164" r="20.0" style="fill:olive;stroke:black;stroke-width:1.0"/>
<circle cx="266" cy="168" r="20.0" style="fill:olive;stroke:black;stroke-width:1.0"/>
<circle cx="208" cy="224" r="20.0" style="fill:purple;stroke:black;stroke-width:1.0"/>
<circle cx="224" cy="224" r="20.0" style="fill:purple;stroke:black;stroke-width:1.0"/>
<circle cx="404" cy="177" r="20.0" style="fill:red;stroke:black;stroke-width:1.0"/>
<circle cx="374" cy="182" r="20.0" style="fill:brown;stroke:black;stroke-width:1.0"/>
<circle cx="224" cy="36" r="20.0" style="fill:yellow;stroke:black;stroke-width:1.0"/>
<circle cx="201" cy="43" r="20.0" style="fill:yellow;stroke:black;stroke-width:1.0"/>
<circle cx="158" cy="20" r="20.0" style="fill:yellow;stroke:black;stroke-width:1.0"/>
<circle cx="150" cy="31" r="20.0" style="fill:yellow;stroke:black;stroke-width:1.0"/>
<circle cx="385" cy="245" r="20.0" style="fill:brown;stroke:black;stroke-width:1.0"/>
<circle cx="358" cy="241" r="20.0" style="fill:brown;stroke:black;stroke-width:1.0"/>
<circle cx="94" cy="156" r="20.0" style="fill:red;stroke:black;stroke-width:1.0"/>
<circle cx="120" cy="155" r="20.0" style="fill:red;stroke:black;stroke-width:1.0"/>
<circle cx="131" cy="88" r="20.0" style="fill:orange;stroke:black;stroke-width:1.0"/>
<circle cx="155" cy="91" r="20.0" style="fill:orange;stroke:black;stroke-width:1.0"/>
<circle cx="126" cy="115" r="20.0" style="fill:blue;stroke:black;stroke-width:1.0"/>
<circle cx="144" cy="115" r="20.0" style="fill:blue;stroke:black;stroke-width:1.0"/>
<circle cx="209" cy="73" r="20.0" style="fill:blue;stroke:black;stroke-width:1.0"/>
<circle cx="188" cy="78" r="20.0" style="fill:blue;stroke:black;stroke-width:1.0"/>
</svg>
