<svg width="440" height="340" xmlns="http://www.w3.org/2000/svg">
<path stroke-width="1" stroke="black" d="M 264 187 258 179"/>
<path stroke-width="1" stroke="black" d="M 322 47 362 29"/>
<path stroke-width="1" stroke="black" d="M 322 47 297 77"/>
<path stroke-width="1" stroke="black" d="M 317 39 322 47"/>
<path stroke-width="1" stroke="black" d="M 408 66 420 58"/>
<path stroke-width="1" stroke="black" d="M 408 66 402 36"/>
<path stroke-width="1" stroke="black" d="M 408 66 395 102"/>
<path stroke-width="1" stroke="black" d="M 420 58 408 66"/>
<path stroke-width="1" stroke="black" d="M 260 268 215 247"/>
<path stroke-width="1" stroke="black" d="M 260 268 264 276"/>
<path stroke-width="1" stroke="black" d="M 260 268 303 283"/>
<path stroke-width="1" stroke="black" d="M 264 276 260 268"/>
<path stroke-width="1" stroke="black" d="M 303 283 260 268"/>
<path stroke-width="1" stroke="black" d="M 303 283 323 289"/>
<path stroke-width="1" stroke="black" d="M 303 283 283 283"/>
<path stroke-width="1" stroke="black" d="M 323 289 303 283"/>
<path stroke-width="1" stroke="black" d="M 278 306 274 317"/>
<path stroke-width="1" stroke="black" d="M 278 306 315 273"/>
<path stroke-width="1" stroke="black" d="M 278 306 239 313"/>
<path stroke-width="1" stroke="black" d="M 274 317 278 306"/>
<path stroke-width="1" stroke="black" d="M 27 188 36 170"/>
<path stroke-width="1" stroke="black" d="M 27 188 20 182"/>
<path stroke-width="1" stroke="black" d="M 27 188 35 208"/>
<path stroke-width="1" stroke="black" d="M 20 182 27 188"/>
<path stroke-width="1" stroke="black" d="M 35 208 65 220"/>
<path stroke-width="1" stroke="black" d="M 35 208 27 188"/>
<path stroke-width="1" stroke="black" d="M 35 208 23 213"/>
<path stroke-width="1" stroke="black" d="M 23 213 35 208"/>
<path stroke-width="1" stroke="black" d="M 322 47 317 39"/>
<path stroke-width="1" stroke="black" d="M 362 29 322 47"/>
<path stroke-width="1" stroke="black" d="M 161 224 170 220"/>
<path stroke-width="1" stroke="black" d="M 170 220 161 224"/>
<path stroke-width="1" stroke="black" d="M 150 208 108 218"/>
<path stroke-width="1" stroke="black" d="M 161 206 150 208"/>
<path stroke-width="1" stroke="black" d="M 188 200 150 208"/>
<path stroke-width="1" stroke="black" d="M 188 200 180 195"/>
<path stroke-width="1" stroke="black" d="M 188 200 228 200"/>
<path stroke-width="1" stroke="black" d="M 180 195 188 200"/>
<path stroke-width="1" stroke="black" d="M 36 170 20 166"/>
<path stroke-width="1" stroke="black" d="M 36 170 27 188"/>
<path stroke-width="1" stroke="black" d="M 36 170 81 171"/>
<path stroke-width="1" stroke="black" d="M 20 166 36 170"/>
<path stroke-width="1" stroke="black" d="M 228 200 188 200"/>
<path stroke-width="1" stroke="black" d="M 228 200 228 210"/>
<path stroke-width="1" stroke="black" d="M 228 200 258 179"/>
<path stroke-width="1" stroke="black" d="M 228 210 228 200"/>
<path stroke-width="1" stroke="black" d="M 215 247 218 255"/>
<path stroke-width="1" stroke="black" d="M 215 247 170 220"/>
<path stroke-width="1" stroke="black" d="M 215 247 260 268"/>
<path stroke-width="1" stroke="black" d="M 218 255 215 247"/>
<path stroke-width="1" stroke="black" d="M 65 220 57 227"/>
<path stroke-width="1" stroke="black" d="M 65 220 108 218"/>
<path stroke-width="1" stroke="black" d="M 65 220 35 208"/>
<path stroke-width="1" stroke="black" d="M 57 227 65 220"/>
<path stroke-width="1" stroke="black" d="M 108 218 150 208"/>
<path stroke-width="1" stroke="black" d="M 108 218 65 220"/>
<path stroke-width="1" stroke="black" d="M 108 218 108 226"/>
<path stroke-width="1" stroke="black" d="M 108 226 108 218"/>
<path stroke-width="1" stroke="black" d="M 170 220 215 247"/>
<path stroke-width="1" stroke="black" d="M 170 220 127 190"/>
<path stroke-width="1" stroke="black" d="M 362 29 365 20"/>
<path stroke-width="1" stroke="black" d="M 362 29 402 36"/>
<path stroke-width="1" stroke="black" d="M 365 20 362 29"/>
<path stroke-width="1" stroke="black" d="M 239 313 278 306"/>
<path stroke-width="1" stroke="black" d="M 239 313 223 320"/>
<path stroke-width="1" stroke="black" d="M 239 313 249 296"/>
<path stroke-width="1" stroke="black" d="M 223 320 239 313"/>
<path stroke-width="1" stroke="black" d="M 297 77 322 47"/>
<path stroke-width="1" stroke="black" d="M 297 77 286 72"/>
<path stroke-width="1" stroke="black" d="M 297 77 283 112"/>
<path stroke-width="1" stroke="black" d="M 286 72 297 77"/>
<path stroke-width="1" stroke="black" d="M 283 112 297 77"/>
<path stroke-width="1" stroke="black" d="M 283 112 271 113"/>
<path stroke-width="1" stroke="black" d="M 283 112 274 147"/>
<path stroke-width="1" stroke="black" d="M 271 113 283 112"/>
<path stroke-width="1" stroke="black" d="M 249 296 239 313"/>
<path stroke-width="1" stroke="black" d="M 249 296 235 295"/>
<path stroke-width="1" stroke="black" d="M 249 296 283 283"/>
<path stroke-width="1" stroke="black" d="M 235 295 249 296"/>
<path stroke-width="1" stroke="black" d="M 283 283 303 283"/>
<path stroke-width="1" stroke="black" d="M 283 283 249 296"/>
<path stroke-width="1" stroke="black" d="M 283 283 293 275"/>
<path stroke-width="1" stroke="black" d="M 293 275 283 283"/>
<path stroke-width="1" stroke="black" d="M 274 147 283 112"/>
<path stroke-width="1" stroke="black" d="M 274 147 282 153"/>
<path stroke-width="1" stroke="black" d="M 274 147 258 179"/>
<path stroke-width="1" stroke="black" d="M 282 153 274 147"/>
<path stroke-width="1" stroke="black" d="M 258 179 228 200"/>
<path stroke-width="1" stroke="black" d="M 258 179 274 147"/>
<path stroke-width="1" stroke="black" d="M 258 179 264 187"/>
<path stroke-width="1" stroke="black" d="M 362 186 358 187"/>
<path stroke-width="1" stroke="black" d="M 358 187 362 186"/>
<path stroke-width="1" stroke="black" d="M 358 187 337 231"/>
<path stroke-width="1" stroke="black" d="M 358 187 377 144"/>
<path stroke-width="1" stroke="black" d="M 402 36 408 66"/>
<path stroke-width="1" stroke="black" d="M 402 36 362 29"/>
<path stroke-width="1" stroke="black" d="M 402 36 412 27"/>
<path stroke-width="1" stroke="black" d="M 412 27 402 36"/>
<path stroke-width="1" stroke="black" d="M 127 190 170 220"/>
<path stroke-width="1" stroke="black" d="M 127 190 126 181"/>
<path stroke-width="1" stroke="black" d="M 127 190 81 171"/>
<path stroke-width="1" stroke="black" d="M 126 181 127 190"/>
<path stroke-width="1" stroke="black" d="M 81 171 36 170"/>
<path stroke-width="1" stroke="black" d="M 81 171 127 190"/>
<path stroke-width="1" stroke="black" d="M 81 171 75 162"/>
<path stroke-width="1" stroke="black" d="M 75 162 81 171"/>
<path stroke-width="1" stroke="black" d="M 395 102 408 66"/>
<path stroke-width="1" stroke="black" d="M 150 208 188 200"/>
<path stroke-width="1" stroke="black" d="M 395 102 397 94"/>
<path stroke-width="1" stroke="black" d="M 397 94 395 102"/>
<path stroke-width="1" stroke="black" d="M 377 144 395 102"/>
<path stroke-width="1" stroke="black" d="M 377 144 375 137"/>
<path stroke-width="1" stroke="black" d="M 377 144 358 187"/>
<path stroke-width="1" stroke="black" d="M 375 137 377 144"/>
<path stroke-width="1" stroke="black" d="M 315 273 278 306"/>
<path stroke-width="1" stroke="black" d="M 315 273 317 284"/>
<path stroke-width="1" stroke="black" d="M 315 273 337 231"/>
<path stroke-width="1" stroke="black" d="M 317 284 315 273"/>
<path stroke-width="1" stroke="black" d="M 337 231 315 273"/>
<path stroke-width="1" stroke="black" d="M 337 231 345 235"/>
<path stroke-width="1" stroke="black" d="M 337 231 358 187"/>
<path stroke-width="1" stroke="black" d="M 345 235 337 231"/>
<path stroke-width="1" stroke="black" d="M 395 102 377 144"/>
<path stroke-width="1" stroke="black" d="M 150 208 161 206"/>
<circle cx="264" cy="187" r="7.0" style="fill:green;stroke:black;stroke-width:1.0"/>
<circle cx="258" cy="179" r="7.0" style="fill:green;stroke:black;stroke-width:1.0"/>
<circle cx="282" cy="153" r="7.0" style="fill:green;stroke:black;stroke-width:1.0"/>
<circle cx="274" cy="147" r="7.0" style="fill:green;stroke:black;stroke-width:1.0"/>
<circle cx="293" cy="275" r="7.0" style="fill:olive;stroke:black;stroke-width:1.0"/>
<circle cx="283" cy="283" r="7.0" style="fill:olive;stroke:black;stroke-width:1.0"/>
<circle cx="235" cy="295" r="7.0" style="fill:purple;stroke:black;stroke-width:1.0"/>
<circle cx="249" cy="296" r="7.0" style="fill:purple;stroke:black;stroke-width:1.0"/>
<circle cx="271" cy="113" r="7.0" style="fill:blue;stroke:black;stroke-width:1.0"/>
<circle cx="283" cy="112" r="7.0" style="fill:blue;stroke:black;stroke-width:1.0"/>
<circle cx="286" cy="72" r="7.0" style="fill:blue;stroke:black;stroke-width:1.0"/>
<circle cx="297" cy="77" r="7.0" style="fill:blue;stroke:black;stroke-width:1.0"/>
<circle cx="223" cy="320" r="7.0" style="fill:green;stroke:black;stroke-width:1.0"/>
<circle cx="239" cy="313" r="7.0" style="fill:green;stroke:black;stroke-width:1.0"/>
<circle cx="362" cy="186" r="7.0" style="fill:red;stroke:black;stroke-width:1.0"/>
<circle cx="358" cy="187" r="7.0" style="fill:red;stroke:black;stroke-width:1.0"/>
<circle cx="345" cy="235" r="7.0" style="fill:red;stroke:black;stroke-width:1.0"/>
<circle cx="337" cy="231" r="7.0" style="fill:red;stroke:black;stroke-width:1.0"/>
<circle cx="317" cy="284" r="7.0" style="fill:aqua;stroke:black;stroke-width:1.0"/>
<circle cx="315" cy="273" r="7.0" style="fill:aqua;stroke:black;stroke-width:1.0"/>
<circle cx="375" cy="137" r="7.0" style="fill:red;stroke:black;stroke-width:1.0"/>
<circle cx="377" cy="144" r="7.0" style="fill:red;stroke:black;stroke-width:1.0"/>
<circle cx="397" cy="94" r="7.0" style="fill:yellow;stroke:black;stroke-width:1.0"/>
<circle cx="395" cy="102" r="7.0" style="fill:yellow;stroke:black;stroke-width:1.0"/>
<circle cx="75" cy="162" r="7.0" style="fill:brown;stroke:black;stroke-width:1.0"/>
<circle cx="81" cy="171" r="7.0" style="fill:brown;stroke:black;stroke-width:1.0"/>
<circle cx="126" cy="181" r="7.0" style="fill:brown;stroke:black;stroke-width:1.0"/>
<circle cx="127" cy="190" r="7.0" style="fill:brown;stroke:black;stroke-width:1.0"/>
<circle cx="412" cy="27" r="7.0" style="fill:red;stroke:black;stroke-width:1.0"/>
<circle cx="402" cy="36" r="7.0" style="fill:red;stroke:black;stroke-width:1.0"/>
<circle cx="365" cy="20" r="7.0" style="fill:purple;stroke:black;stroke-width:1.0"/>
<circle cx="362" cy="29" r="7.0" style="fill:purple;stroke:black;stroke-width:1.0"/>
<circle cx="23" cy="213" r="7.0" style="fill:blue;stroke:black;stroke-width:1.0"/>
<circle cx="35" cy="208" r="7.0" style="fill:blue;stroke:black;stroke-width:1.0"/>
<circle cx="20" cy="182" r="7.0" style="fill:blue;stroke:black;stroke-width:1.0"/>
<circle cx="27" cy="188" r="7.0" style="fill:blue;stroke:black;stroke-width:1.0"/>
<circle cx="274" cy="317" r="7.0" style="fill:aqua;stroke:black;stroke-width:1.0"/>
<circle cx="278" cy="306" r="7.0" style="fill:aqua;stroke:black;stroke-width:1.0"/>
<circle cx="323" cy="289" r="7.0" style="fill:orange;stroke:black;stroke-width:1.0"/>
<circle cx="303" cy="283" r="7.0" style="fill:olive;stroke:black;stroke-width:1.0"/>
<circle cx="264" cy="276" r="7.0" style="fill:orange;stroke:black;stroke-width:1.0"/>
<circle cx="260" cy="268" r="7.0" style="fill:orange;stroke:black;stroke-width:1.0"/>
<circle cx="420" cy="58" r="7.0" style="fill:yellow;stroke:black;stroke-width:1.0"/>
<circle cx="408" cy="66" r="7.0" style="fill:yellow;stroke:black;stroke-width:1.0"/>
<circle cx="317" cy="39" r="7.0" style="fill:blue;stroke:black;stroke-width:1.0"/>
<circle cx="322" cy="47" r="7.0" style="fill:purple;stroke:black;stroke-width:1.0"/>
<circle cx="161" cy="224" r="7.0" style="fill:brown;stroke:black;stroke-width:1.0"/>
<circle cx="170" cy="220" r="7.0" style="fill:orange;stroke:black;stroke-width:1.0"/>
<circle cx="108" cy="226" r="7.0" style="fill:orange;stroke:black;stroke-width:1.0"/>
<circle cx="108" cy="218" r="7.0" style="fill:orange;stroke:black;stroke-width:1.0"/>
<circle cx="57" cy="227" r="7.0" style="fill:blue;stroke:black;stroke-width:1.0"/>
<circle cx="65" cy="220" r="7.0" style="fill:orange;stroke:black;stroke-width:1.0"/>
<circle cx="218" cy="255" r="7.0" style="fill:orange;stroke:black;stroke-width:1.0"/>
<circle cx="215" cy="247" r="7.0" style="fill:orange;stroke:black;stroke-width:1.0"/>
<circle cx="228" cy="210" r="7.0" style="fill:green;stroke:black;stroke-width:1.0"/>
<circle cx="228" cy="200" r="7.0" style="fill:green;stroke:black;stroke-width:1.0"/>
<circle cx="20" cy="166" r="7.0" style="fill:brown;stroke:black;stroke-width:1.0"/>
<circle cx="36" cy="170" r="7.0" style="fill:brown;stroke:black;stroke-width:1.0"/>
<circle cx="180" cy="195" r="7.0" style="fill:fuchsia;stroke:black;stroke-width:1.0"/>
<circle cx="188" cy="200" r="7.0" style="fill:fuchsia;stroke:black;stroke-width:1.0"/>
<circle cx="161" cy="206" r="7.0" style="fill:fuchsia;stroke:black;stroke-width:1.0"/>
<circle cx="150" cy="208" r="7.0" style="fill:fuchsia;stroke:black;stroke-width:1.0"/>
</svg>
