<svg width="440" height="340" xmlns="http://www.w3.org/2000/svg">
<path stroke-width="20.0" stroke="black" d="M 194 152 175 154"/>
<path stroke-width="0.5" stroke="black" d="M 83 64 130 51"/>
<path stroke-width="0.5" stroke="black" d="M 83 64 73 94"/>
<path stroke-width="20.0" stroke="black" d="M 68 56 83 64"/>
<path stroke-width="20.0" stroke="black" d="M 249 37 261 40"/>
<path stroke-width="0.5" stroke="black" d="M 249 37 190 45"/>
<path stroke-width="0.5" stroke="black" d="M 249 37 306 29"/>
<path stroke-width="20.0" stroke="black" d="M 261 40 249 37"/>
<path stroke-width="0.5" stroke="black" d="M 358 262 398 274"/>
<path stroke-width="20.0" stroke="black" d="M 358 262 372 258"/>
<path stroke-width="0.5" stroke="black" d="M 358 262 304 255"/>
<path stroke-width="20.0" stroke="black" d="M 372 258 358 262"/>
<path stroke-width="0.5" stroke="black" d="M 304 255 358 262"/>
<path stroke-width="20.0" stroke="black" d="M 304 255 305 245"/>
<path stroke-width="0.5" stroke="black" d="M 304 255 250 263"/>
<path stroke-width="20.0" stroke="black" d="M 305 245 304 255"/>
<path stroke-width="20.0" stroke="black" d="M 263 224 262 233"/>
<path stroke-width="0.5" stroke="black" d="M 263 224 294 177"/>
<path stroke-width="0.5" stroke="black" d="M 263 224 236 263"/>
<path stroke-width="20.0" stroke="black" d="M 262 233 263 224"/>
<path stroke-width="0.5" stroke="black" d="M 146 311 218 298"/>
<path stroke-width="20.0" stroke="black" d="M 146 311 136 320"/>
<path stroke-width="0.5" stroke="black" d="M 146 311 82 311"/>
<path stroke-width="20.0" stroke="black" d="M 136 320 146 311"/>
<path stroke-width="0.5" stroke="black" d="M 82 311 40 295"/>
<path stroke-width="0.5" stroke="black" d="M 82 311 146 311"/>
<path stroke-width="20.0" stroke="black" d="M 82 311 65 316"/>
<path stroke-width="20.0" stroke="black" d="M 65 316 82 311"/>
<path stroke-width="20.0" stroke="black" d="M 83 64 68 56"/>
<path stroke-width="0.5" stroke="black" d="M 130 51 83 64"/>
<path stroke-width="20.0" stroke="black" d="M 420 259 399 259"/>
<path stroke-width="20.0" stroke="black" d="M 399 259 420 259"/>
<path stroke-width="0.5" stroke="black" d="M 90 237 57 268"/>
<path stroke-width="20.0" stroke="black" d="M 87 244 90 237"/>
<path stroke-width="0.5" stroke="black" d="M 126 204 90 237"/>
<path stroke-width="20.0" stroke="black" d="M 126 204 134 197"/>
<path stroke-width="0.5" stroke="black" d="M 126 204 157 174"/>
<path stroke-width="20.0" stroke="black" d="M 134 197 126 204"/>
<path stroke-width="20.0" stroke="black" d="M 218 298 221 307"/>
<path stroke-width="0.5" stroke="black" d="M 218 298 146 311"/>
<path stroke-width="0.5" stroke="black" d="M 218 298 285 277"/>
<path stroke-width="20.0" stroke="black" d="M 221 307 218 298"/>
<path stroke-width="0.5" stroke="black" d="M 157 174 126 204"/>
<path stroke-width="20.0" stroke="black" d="M 157 174 166 164"/>
<path stroke-width="0.5" stroke="black" d="M 157 174 175 154"/>
<path stroke-width="20.0" stroke="black" d="M 166 164 157 174"/>
<path stroke-width="20.0" stroke="black" d="M 398 274 412 281"/>
<path stroke-width="0.5" stroke="black" d="M 398 274 399 259"/>
<path stroke-width="0.5" stroke="black" d="M 398 274 358 262"/>
<path stroke-width="20.0" stroke="black" d="M 412 281 398 274"/>
<path stroke-width="20.0" stroke="black" d="M 40 295 20 299"/>
<path stroke-width="0.5" stroke="black" d="M 40 295 57 268"/>
<path stroke-width="0.5" stroke="black" d="M 40 295 82 311"/>
<path stroke-width="20.0" stroke="black" d="M 20 299 40 295"/>
<path stroke-width="0.5" stroke="black" d="M 57 268 90 237"/>
<path stroke-width="0.5" stroke="black" d="M 57 268 40 295"/>
<path stroke-width="20.0" stroke="black" d="M 57 268 45 275"/>
<path stroke-width="20.0" stroke="black" d="M 45 275 57 268"/>
<path stroke-width="0.5" stroke="black" d="M 399 259 398 274"/>
<path stroke-width="0.5" stroke="black" d="M 399 259 348 257"/>
<path stroke-width="20.0" stroke="black" d="M 130 51 116 48"/>
<path stroke-width="0.5" stroke="black" d="M 130 51 190 45"/>
<path stroke-width="20.0" stroke="black" d="M 116 48 130 51"/>
<path stroke-width="0.5" stroke="black" d="M 236 263 263 224"/>
<path stroke-width="20.0" stroke="black" d="M 236 263 231 278"/>
<path stroke-width="0.5" stroke="black" d="M 236 263 210 279"/>
<path stroke-width="20.0" stroke="black" d="M 231 278 236 263"/>
<path stroke-width="0.5" stroke="black" d="M 73 94 83 64"/>
<path stroke-width="20.0" stroke="black" d="M 73 94 57 92"/>
<path stroke-width="0.5" stroke="black" d="M 73 94 94 125"/>
<path stroke-width="20.0" stroke="black" d="M 57 92 73 94"/>
<path stroke-width="0.5" stroke="black" d="M 94 125 73 94"/>
<path stroke-width="20.0" stroke="black" d="M 94 125 83 132"/>
<path stroke-width="0.5" stroke="black" d="M 94 125 133 145"/>
<path stroke-width="20.0" stroke="black" d="M 83 132 94 125"/>
<path stroke-width="0.5" stroke="black" d="M 210 279 236 263"/>
<path stroke-width="20.0" stroke="black" d="M 210 279 195 287"/>
<path stroke-width="0.5" stroke="black" d="M 210 279 250 263"/>
<path stroke-width="20.0" stroke="black" d="M 195 287 210 279"/>
<path stroke-width="0.5" stroke="black" d="M 250 263 304 255"/>
<path stroke-width="0.5" stroke="black" d="M 250 263 210 279"/>
<path stroke-width="20.0" stroke="black" d="M 250 263 233 258"/>
<path stroke-width="20.0" stroke="black" d="M 233 258 250 263"/>
<path stroke-width="0.5" stroke="black" d="M 133 145 94 125"/>
<path stroke-width="20.0" stroke="black" d="M 133 145 134 154"/>
<path stroke-width="0.5" stroke="black" d="M 133 145 175 154"/>
<path stroke-width="20.0" stroke="black" d="M 134 154 133 145"/>
<path stroke-width="0.5" stroke="black" d="M 175 154 157 174"/>
<path stroke-width="0.5" stroke="black" d="M 175 154 133 145"/>
<path stroke-width="20.0" stroke="black" d="M 175 154 194 152"/>
<path stroke-width="20.0" stroke="black" d="M 353 77 344 85"/>
<path stroke-width="20.0" stroke="black" d="M 344 85 353 77"/>
<path stroke-width="0.5" stroke="black" d="M 344 85 320 132"/>
<path stroke-width="0.5" stroke="black" d="M 344 85 346 46"/>
<path stroke-width="0.5" stroke="black" d="M 190 45 249 37"/>
<path stroke-width="0.5" stroke="black" d="M 190 45 130 51"/>
<path stroke-width="20.0" stroke="black" d="M 190 45 185 52"/>
<path stroke-width="20.0" stroke="black" d="M 185 52 190 45"/>
<path stroke-width="0.5" stroke="black" d="M 348 257 399 259"/>
<path stroke-width="20.0" stroke="black" d="M 348 257 360 246"/>
<path stroke-width="0.5" stroke="black" d="M 348 257 285 277"/>
<path stroke-width="20.0" stroke="black" d="M 360 246 348 257"/>
<path stroke-width="0.5" stroke="black" d="M 285 277 218 298"/>
<path stroke-width="0.5" stroke="black" d="M 285 277 348 257"/>
<path stroke-width="20.0" stroke="black" d="M 285 277 297 271"/>
<path stroke-width="20.0" stroke="black" d="M 297 271 285 277"/>
<path stroke-width="0.5" stroke="black" d="M 306 29 249 37"/>
<path stroke-width="0.5" stroke="black" d="M 90 237 126 204"/>
<path stroke-width="20.0" stroke="black" d="M 306 29 316 20"/>
<path stroke-width="20.0" stroke="black" d="M 316 20 306 29"/>
<path stroke-width="0.5" stroke="black" d="M 346 46 306 29"/>
<path stroke-width="20.0" stroke="black" d="M 346 46 360 35"/>
<path stroke-width="0.5" stroke="black" d="M 346 46 344 85"/>
<path stroke-width="20.0" stroke="black" d="M 360 35 346 46"/>
<path stroke-width="0.5" stroke="black" d="M 294 177 263 224"/>
<path stroke-width="20.0" stroke="black" d="M 294 177 300 182"/>
<path stroke-width="0.5" stroke="black" d="M 294 177 320 132"/>
<path stroke-width="20.0" stroke="black" d="M 300 182 294 177"/>
<path stroke-width="0.5" stroke="black" d="M 320 132 294 177"/>
<path stroke-width="20.0" stroke="black" d="M 320 132 329 127"/>
<path stroke-width="0.5" stroke="black" d="M 320 132 344 85"/>
<path stroke-width="20.0" stroke="black" d="M 329 127 320 132"/>
<path stroke-width="0.5" stroke="black" d="M 306 29 346 46"/>
<path stroke-width="20.0" stroke="black" d="M 90 237 87 244"/>
<circle cx="194" cy="152" r="20.0" style="fill:yellow;stroke:black;stroke-width:1.0"/>
<circle cx="175" cy="154" r="20.0" style="fill:yellow;stroke:black;stroke-width:1.0"/>
<circle cx="134" cy="154" r="20.0" style="fill:yellow;stroke:black;stroke-width:1.0"/>
<circle cx="133" cy="145" r="20.0" style="fill:yellow;stroke:black;stroke-width:1.0"/>
<circle cx="233" cy="258" r="20.0" style="fill:fuchsia;stroke:black;stroke-width:1.0"/>
<circle cx="250" cy="263" r="20.0" style="fill:fuchsia;stroke:black;stroke-width:1.0"/>
<circle cx="195" cy="287" r="20.0" style="fill:fuchsia;stroke:black;stroke-width:1.0"/>
<circle cx="210" cy="279" r="20.0" style="fill:fuchsia;stroke:black;stroke-width:1.0"/>
<circle cx="83" cy="132" r="20.0" style="fill:blue;stroke:black;stroke-width:1.0"/>
<circle cx="94" cy="125" r="20.0" style="fill:blue;stroke:black;stroke-width:1.0"/>
<circle cx="57" cy="92" r="20.0" style="fill:blue;stroke:black;stroke-width:1.0"/>
<circle cx="73" cy="94" r="20.0" style="fill:blue;stroke:black;stroke-width:1.0"/>
<circle cx="231" cy="278" r="20.0" style="fill:brown;stroke:black;stroke-width:1.0"/>
<circle cx="236" cy="263" r="20.0" style="fill:brown;stroke:black;stroke-width:1.0"/>
<circle cx="353" cy="77" r="20.0" style="fill:red;stroke:black;stroke-width:1.0"/>
<circle cx="344" cy="85" r="20.0" style="fill:red;stroke:black;stroke-width:1.0"/>
<circle cx="329" cy="127" r="20.0" style="fill:red;stroke:black;stroke-width:1.0"/>
<circle cx="320" cy="132" r="20.0" style="fill:red;stroke:black;stroke-width:1.0"/>
<circle cx="300" cy="182" r="20.0" style="fill:red;stroke:black;stroke-width:1.0"/>
<circle cx="294" cy="177" r="20.0" style="fill:red;stroke:black;stroke-width:1.0"/>
<circle cx="360" cy="35" r="20.0" style="fill:green;stroke:black;stroke-width:1.0"/>
<circle cx="346" cy="46" r="20.0" style="fill:green;stroke:black;stroke-width:1.0"/>
<circle cx="316" cy="20" r="20.0" style="fill:green;stroke:black;stroke-width:1.0"/>
<circle cx="306" cy="29" r="20.0" style="fill:green;stroke:black;stroke-width:1.0"/>
<circle cx="297" cy="271" r="20.0" style="fill:orange;stroke:black;stroke-width:1.0"/>
<circle cx="285" cy="277" r="20.0" style="fill:orange;stroke:black;stroke-width:1.0"/>
<circle cx="360" cy="246" r="20.0" style="fill:orange;stroke:black;stroke-width:1.0"/>
<circle cx="348" cy="257" r="20.0" style="fill:orange;stroke:black;stroke-width:1.0"/>
<circle cx="185" cy="52" r="20.0" style="fill:olive;stroke:black;stroke-width:1.0"/>
<circle cx="190" cy="45" r="20.0" style="fill:olive;stroke:black;stroke-width:1.0"/>
<circle cx="116" cy="48" r="20.0" style="fill:olive;stroke:black;stroke-width:1.0"/>
<circle cx="130" cy="51" r="20.0" style="fill:olive;stroke:black;stroke-width:1.0"/>
<circle cx="65" cy="316" r="20.0" style="fill:aqua;stroke:black;stroke-width:1.0"/>
<circle cx="82" cy="311" r="20.0" style="fill:aqua;stroke:black;stroke-width:1.0"/>
<circle cx="136" cy="320" r="20.0" style="fill:aqua;stroke:black;stroke-width:1.0"/>
<circle cx="146" cy="311" r="20.0" style="fill:aqua;stroke:black;stroke-width:1.0"/>
<circle cx="262" cy="233" r="20.0" style="fill:brown;stroke:black;stroke-width:1.0"/>
<circle cx="263" cy="224" r="20.0" style="fill:brown;stroke:black;stroke-width:1.0"/>
<circle cx="305" cy="245" r="20.0" style="fill:blue;stroke:black;stroke-width:1.0"/>
<circle cx="304" cy="255" r="20.0" style="fill:blue;stroke:black;stroke-width:1.0"/>
<circle cx="372" cy="258" r="20.0" style="fill:blue;stroke:black;stroke-width:1.0"/>
<circle cx="358" cy="262" r="20.0" style="fill:blue;stroke:black;stroke-width:1.0"/>
<circle cx="261" cy="40" r="20.0" style="fill:green;stroke:black;stroke-width:1.0"/>
<circle cx="249" cy="37" r="20.0" style="fill:green;stroke:black;stroke-width:1.0"/>
<circle cx="68" cy="56" r="20.0" style="fill:blue;stroke:black;stroke-width:1.0"/>
<circle cx="83" cy="64" r="20.0" style="fill:blue;stroke:black;stroke-width:1.0"/>
<circle cx="420" cy="259" r="20.0" style="fill:red;stroke:black;stroke-width:1.0"/>
<circle cx="399" cy="259" r="20.0" style="fill:red;stroke:black;stroke-width:1.0"/>
<circle cx="45" cy="275" r="20.0" style="fill:purple;stroke:black;stroke-width:1.0"/>
<circle cx="57" cy="268" r="20.0" style="fill:purple;stroke:black;stroke-width:1.0"/>
<circle cx="20" cy="299" r="20.0" style="fill:purple;stroke:black;stroke-width:1.0"/>
<circle cx="40" cy="295" r="20.0" style="fill:purple;stroke:black;stroke-width:1.0"/>
<circle cx="412" cy="281" r="20.0" style="fill:red;stroke:black;stroke-width:1.0"/>
<circle cx="398" cy="274" r="20.0" style="fill:red;stroke:black;stroke-width:1.0"/>
<circle cx="166" cy="164" r="20.0" style="fill:green;stroke:black;stroke-width:1.0"/>
<circle cx="157" cy="174" r="20.0" style="fill:green;stroke:black;stroke-width:1.0"/>
<circle cx="221" cy="307" r="20.0" style="fill:orange;stroke:black;stroke-width:1.0"/>
<circle cx="218" cy="298" r="20.0" style="fill:orange;stroke:black;stroke-width:1.0"/>
<circle cx="134" cy="197" r="20.0" style="fill:green;stroke:black;stroke-width:1.0"/>
<circle cx="126" cy="204" r="20.0" style="fill:green;stroke:black;stroke-width:1.0"/>
<circle cx="87" cy="244" r="20.0" style="fill:purple;stroke:black;stroke-width:1.0"/>
<circle cx="90" cy="237" r="20.0" style="fill:purple;stroke:black;stroke-width:1.0"/>
</svg>
