<svg width="440" height="340" xmlns="http://www.w3.org/2000/svg">
<path stroke-width="1" stroke="black" d="M 127 271 139 262"/>
<path stroke-width="1" stroke="black" d="M 407 226 391 216"/>
<path stroke-width="1" stroke="black" d="M 407 226 376 249"/>
<path stroke-width="1" stroke="black" d="M 420 217 407 226"/>
<path stroke-width="1" stroke="black" d="M 349 270 367 272"/>
<path stroke-width="1" stroke="black" d="M 349 270 382 241"/>
<path stroke-width="1" stroke="black" d="M 349 270 291 292"/>
<path stroke-width="1" stroke="black" d="M 367 272 349 270"/>
<path stroke-width="1" stroke="black" d="M 200 32 169 52"/>
<path stroke-width="1" stroke="black" d="M 200 32 197 23"/>
<path stroke-width="1" stroke="black" d="M 200 32 241 32"/>
<path stroke-width="1" stroke="black" d="M 197 23 200 32"/>
<path stroke-width="1" stroke="black" d="M 241 32 200 32"/>
<path stroke-width="1" stroke="black" d="M 241 32 252 20"/>
<path stroke-width="1" stroke="black" d="M 241 32 236 65"/>
<path stroke-width="1" stroke="black" d="M 252 20 241 32"/>
<path stroke-width="1" stroke="black" d="M 146 197 135 201"/>
<path stroke-width="1" stroke="black" d="M 146 197 121 240"/>
<path stroke-width="1" stroke="black" d="M 146 197 178 152"/>
<path stroke-width="1" stroke="black" d="M 135 201 146 197"/>
<path stroke-width="1" stroke="black" d="M 359 62 329 49"/>
<path stroke-width="1" stroke="black" d="M 359 62 383 55"/>
<path stroke-width="1" stroke="black" d="M 359 62 308 84"/>
<path stroke-width="1" stroke="black" d="M 383 55 359 62"/>
<path stroke-width="1" stroke="black" d="M 308 84 229 107"/>
<path stroke-width="1" stroke="black" d="M 308 84 359 62"/>
<path stroke-width="1" stroke="black" d="M 308 84 328 81"/>
<path stroke-width="1" stroke="black" d="M 328 81 308 84"/>
<path stroke-width="1" stroke="black" d="M 407 226 420 217"/>
<path stroke-width="1" stroke="black" d="M 391 216 407 226"/>
<path stroke-width="1" stroke="black" d="M 127 63 148 59"/>
<path stroke-width="1" stroke="black" d="M 148 59 127 63"/>
<path stroke-width="1" stroke="black" d="M 79 165 148 131"/>
<path stroke-width="1" stroke="black" d="M 58 162 79 165"/>
<path stroke-width="1" stroke="black" d="M 45 203 79 165"/>
<path stroke-width="1" stroke="black" d="M 45 203 20 206"/>
<path stroke-width="1" stroke="black" d="M 45 203 67 242"/>
<path stroke-width="1" stroke="black" d="M 20 206 45 203"/>
<path stroke-width="1" stroke="black" d="M 329 49 348 46"/>
<path stroke-width="1" stroke="black" d="M 329 49 359 62"/>
<path stroke-width="1" stroke="black" d="M 329 49 268 50"/>
<path stroke-width="1" stroke="black" d="M 348 46 329 49"/>
<path stroke-width="1" stroke="black" d="M 67 242 45 203"/>
<path stroke-width="1" stroke="black" d="M 67 242 44 249"/>
<path stroke-width="1" stroke="black" d="M 67 242 139 262"/>
<path stroke-width="1" stroke="black" d="M 44 249 67 242"/>
<path stroke-width="1" stroke="black" d="M 169 52 164 61"/>
<path stroke-width="1" stroke="black" d="M 169 52 148 59"/>
<path stroke-width="1" stroke="black" d="M 169 52 200 32"/>
<path stroke-width="1" stroke="black" d="M 164 61 169 52"/>
<path stroke-width="1" stroke="black" d="M 229 107 240 99"/>
<path stroke-width="1" stroke="black" d="M 229 107 148 131"/>
<path stroke-width="1" stroke="black" d="M 229 107 308 84"/>
<path stroke-width="1" stroke="black" d="M 240 99 229 107"/>
<path stroke-width="1" stroke="black" d="M 148 131 79 165"/>
<path stroke-width="1" stroke="black" d="M 148 131 229 107"/>
<path stroke-width="1" stroke="black" d="M 148 131 131 126"/>
<path stroke-width="1" stroke="black" d="M 131 126 148 131"/>
<path stroke-width="1" stroke="black" d="M 148 59 169 52"/>
<path stroke-width="1" stroke="black" d="M 148 59 201 51"/>
<path stroke-width="1" stroke="black" d="M 391 216 392 206"/>
<path stroke-width="1" stroke="black" d="M 391 216 382 241"/>
<path stroke-width="1" stroke="black" d="M 392 206 391 216"/>
<path stroke-width="1" stroke="black" d="M 178 152 146 197"/>
<path stroke-width="1" stroke="black" d="M 178 152 190 151"/>
<path stroke-width="1" stroke="black" d="M 178 152 209 108"/>
<path stroke-width="1" stroke="black" d="M 190 151 178 152"/>
<path stroke-width="1" stroke="black" d="M 376 249 407 226"/>
<path stroke-width="1" stroke="black" d="M 376 249 401 250"/>
<path stroke-width="1" stroke="black" d="M 376 249 307 262"/>
<path stroke-width="1" stroke="black" d="M 401 250 376 249"/>
<path stroke-width="1" stroke="black" d="M 307 262 376 249"/>
<path stroke-width="1" stroke="black" d="M 307 262 323 268"/>
<path stroke-width="1" stroke="black" d="M 307 262 224 267"/>
<path stroke-width="1" stroke="black" d="M 323 268 307 262"/>
<path stroke-width="1" stroke="black" d="M 209 108 178 152"/>
<path stroke-width="1" stroke="black" d="M 209 108 218 101"/>
<path stroke-width="1" stroke="black" d="M 209 108 236 65"/>
<path stroke-width="1" stroke="black" d="M 218 101 209 108"/>
<path stroke-width="1" stroke="black" d="M 236 65 241 32"/>
<path stroke-width="1" stroke="black" d="M 236 65 209 108"/>
<path stroke-width="1" stroke="black" d="M 236 65 248 55"/>
<path stroke-width="1" stroke="black" d="M 248 55 236 65"/>
<path stroke-width="1" stroke="black" d="M 224 267 307 262"/>
<path stroke-width="1" stroke="black" d="M 224 267 231 276"/>
<path stroke-width="1" stroke="black" d="M 224 267 139 262"/>
<path stroke-width="1" stroke="black" d="M 231 276 224 267"/>
<path stroke-width="1" stroke="black" d="M 139 262 67 242"/>
<path stroke-width="1" stroke="black" d="M 139 262 224 267"/>
<path stroke-width="1" stroke="black" d="M 139 262 127 271"/>
<path stroke-width="1" stroke="black" d="M 153 320 163 308"/>
<path stroke-width="1" stroke="black" d="M 163 308 153 320"/>
<path stroke-width="1" stroke="black" d="M 163 308 120 282"/>
<path stroke-width="1" stroke="black" d="M 163 308 228 309"/>
<path stroke-width="1" stroke="black" d="M 382 241 349 270"/>
<path stroke-width="1" stroke="black" d="M 382 241 391 216"/>
<path stroke-width="1" stroke="black" d="M 382 241 399 238"/>
<path stroke-width="1" stroke="black" d="M 399 238 382 241"/>
<path stroke-width="1" stroke="black" d="M 201 51 148 59"/>
<path stroke-width="1" stroke="black" d="M 201 51 184 47"/>
<path stroke-width="1" stroke="black" d="M 201 51 268 50"/>
<path stroke-width="1" stroke="black" d="M 184 47 201 51"/>
<path stroke-width="1" stroke="black" d="M 268 50 329 49"/>
<path stroke-width="1" stroke="black" d="M 268 50 201 51"/>
<path stroke-width="1" stroke="black" d="M 268 50 268 56"/>
<path stroke-width="1" stroke="black" d="M 268 56 268 50"/>
<path stroke-width="1" stroke="black" d="M 291 292 349 270"/>
<path stroke-width="1" stroke="black" d="M 79 165 45 203"/>
<path stroke-width="1" stroke="black" d="M 291 292 286 298"/>
<path stroke-width="1" stroke="black" d="M 286 298 291 292"/>
<path stroke-width="1" stroke="black" d="M 228 309 291 292"/>
<path stroke-width="1" stroke="black" d="M 228 309 227 319"/>
<path stroke-width="1" stroke="black" d="M 228 309 163 308"/>
<path stroke-width="1" stroke="black" d="M 227 319 228 309"/>
<path stroke-width="1" stroke="black" d="M 121 240 146 197"/>
<path stroke-width="1" stroke="black" d="M 121 240 103 244"/>
<path stroke-width="1" stroke="black" d="M 121 240 120 282"/>
<path stroke-width="1" stroke="black" d="M 103 244 121 240"/>
<path stroke-width="1" stroke="black" d="M 120 282 121 240"/>
<path stroke-width="1" stroke="black" d="M 120 282 103 291"/>
<path stroke-width="1" stroke="black" d="M 120 282 163 308"/>
<path stroke-width="1" stroke="black" d="M 103 291 120 282"/>
<path stroke-width="1" stroke="black" d="M 291 292 228 309"/>
<path stroke-width="1" stroke="black" d="M 79 165 58 162"/>
<circle cx="127" cy="271" r="7.0" style="fill:gray;stroke:black;stroke-width:1.0"/>
<circle cx="139" cy="262" r="7.0" style="fill:gray;stroke:black;stroke-width:1.0"/>
<circle cx="231" cy="276" r="7.0" style="fill:gray;stroke:black;stroke-width:1.0"/>
<circle cx="224" cy="267" r="7.0" style="fill:gray;stroke:black;stroke-width:1.0"/>
<circle cx="248" cy="55" r="7.0" style="fill:gray;stroke:black;stroke-width:1.0"/>
<circle cx="236" cy="65" r="7.0" style="fill:gray;stroke:black;stroke-width:1.0"/>
<circle cx="218" cy="101" r="7.0" style="fill:gray;stroke:black;stroke-width:1.0"/>
<circle cx="209" cy="108" r="7.0" style="fill:gray;stroke:black;stroke-width:1.0"/>
<circle cx="323" cy="268" r="7.0" style="fill:gray;stroke:black;stroke-width:1.0"/>
<circle cx="307" cy="262" r="7.0" style="fill:gray;stroke:black;stroke-width:1.0"/>
<circle cx="401" cy="250" r="7.0" style="fill:gray;stroke:black;stroke-width:1.0"/>
<circle cx="376" cy="249" r="7.0" style="fill:gray;stroke:black;stroke-width:1.0"/>
<circle cx="190" cy="151" r="7.0" style="fill:gray;stroke:black;stroke-width:1.0"/>
<circle cx="178" cy="152" r="7.0" style="fill:gray;stroke:black;stroke-width:1.0"/>
<circle cx="153" cy="320" r="7.0" style="fill:gray;stroke:black;stroke-width:1.0"/>
<circle cx="163" cy="308" r="7.0" style="fill:gray;stroke:black;stroke-width:1.0"/>
<circle cx="103" cy="291" r="7.0" style="fill:gray;stroke:black;stroke-width:1.0"/>
<circle cx="120" cy="282" r="7.0" style="fill:gray;stroke:black;stroke-width:1.0"/>
<circle cx="103" cy="244" r="7.0" style="fill:gray;stroke:black;stroke-width:1.0"/>
<circle cx="121" cy="240" r="7.0" style="fill:gray;stroke:black;stroke-width:1.0"/>
<circle cx="227" cy="319" r="7.0" style="fill:gray;stroke:black;stroke-width:1.0"/>
<circle cx="228" cy="309" r="7.0" style="fill:gray;stroke:black;stroke-width:1.0"/>
<circle cx="286" cy="298" r="7.0" style="fill:gray;stroke:black;stroke-width:1.0"/>
<circle cx="291" cy="292" r="7.0" style="fill:gray;stroke:black;stroke-width:1.0"/>
<circle cx="268" cy="56" r="7.0" style="fill:gray;stroke:black;stroke-width:1.0"/>
<circle cx="268" cy="50" r="7.0" style="fill:gray;stroke:black;stroke-width:1.0"/>
<circle cx="184" cy="47" r="7.0" style="fill:gray;stroke:black;stroke-width:1.0"/>
<circle cx="201" cy="51" r="7.0" style="fill:gray;stroke:black;stroke-width:1.0"/>
<circle cx="399" cy="238" r="7.0" style="fill:gray;stroke:black;stroke-width:1.0"/>
<circle cx="382" cy="241" r="7.0" style="fill:gray;stroke:black;stroke-width:1.0"/>
<circle cx="392" cy="206" r="7.0" style="fill:gray;stroke:black;stroke-width:1.0"/>
<circle cx="391" cy="216" r="7.0" style="fill:gray;stroke:black;stroke-width:1.0"/>
<circle cx="328" cy="81" r="7.0" style="fill:gray;stroke:black;stroke-width:1.0"/>
<circle cx="308" cy="84" r="7.0" style="fill:gray;stroke:black;stroke-width:1.0"/>
<circle cx="383" cy="55" r="7.0" style="fill:gray;stroke:black;stroke-width:1.0"/>
<circle cx="359" cy="62" r="7.0" style="fill:gray;stroke:black;stroke-width:1.0"/>
<circle cx="135" cy="201" r="7.0" style="fill:gray;stroke:black;stroke-width:1.0"/>
<circle cx="146" cy="197" r="7.0" style="fill:gray;stroke:black;stroke-width:1.0"/>
<circle cx="252" cy="20" r="7.0" style="fill:gray;stroke:black;stroke-width:1.0"/>
<circle cx="241" cy="32" r="7.0" style="fill:gray;stroke:black;stroke-width:1.0"/>
<circle cx="197" cy="23" r="7.0" style="fill:gray;stroke:black;stroke-width:1.0"/>
<circle cx="200" cy="32" r="7.0" style="fill:gray;stroke:black;stroke-width:1.0"/>
<circle cx="367" cy="272" r="7.0" style="fill:gray;stroke:black;stroke-width:1.0"/>
<circle cx="349" cy="270" r="7.0" style="fill:gray;stroke:black;stroke-width:1.0"/>
<circle cx="420" cy="217" r="7.0" style="fill:gray;stroke:black;stroke-width:1.0"/>
<circle cx="407" cy="226" r="7.0" style="fill:gray;stroke:black;stroke-width:1.0"/>
<circle cx="127" cy="63" r="7.0" style="fill:gray;stroke:black;stroke-width:1.0"/>
<circle cx="148" cy="59" r="7.0" style="fill:gray;stroke:black;stroke-width:1.0"/>
<circle cx="131" cy="126" r="7.0" style="fill:gray;stroke:black;stroke-width:1.0"/>
<circle cx="148" cy="131" r="7.0" style="fill:gray;stroke:black;stroke-width:1.0"/>
<circle cx="240" cy="99" r="7.0" style="fill:gray;stroke:black;stroke-width:1.0"/>
<circle cx="229" cy="107" r="7.0" style="fill:gray;stroke:black;stroke-width:1.0"/>
<circle cx="164" cy="61" r="7.0" style="fill:gray;stroke:black;stroke-width:1.0"/>
<circle cx="169" cy="52" r="7.0" style="fill:gray;stroke:black;stroke-width:1.0"/>
<circle cx="44" cy="249" r="7.0" style="fill:gray;stroke:black;stroke-width:1.0"/>
<circle cx="67" cy="242" r="7.0" style="fill:gray;stroke:black;stroke-width:1.0"/>
<circle cx="348" cy="46" r="7.0" style="fill:gray;stroke:black;stroke-width:1.0"/>
<circle cx="329" cy="49" r="7.0" style="fill:gray;stroke:black;stroke-width:1.0"/>
<circle cx="20" cy="206" r="7.0" style="fill:gray;stroke:black;stroke-width:1.0"/>
<circle cx="45" cy="203" r="7.0" style="fill:gray;stroke:black;stroke-width:1.0"/>
<circle cx="58" cy="162" r="7.0" style="fill:gray;stroke:black;stroke-width:1.0"/>
<circle cx="79" cy="165" r="7.0" style="fill:gray;stroke:black;stroke-width:1.0"/>
</svg>
