<svg width="440" height="340" xmlns="http://www.w3.org/2000/svg">
<path stroke-width="1" stroke="black" d="M 211 94 230 97"/>
<path stroke-width="1" stroke="black" d="M 335 233 372 261"/>
<path stroke-width="1" stroke="black" d="M 335 233 295 198"/>
<path stroke-width="1" stroke="black" d="M 342 243 335 233"/>
<path stroke-width="1" stroke="black" d="M 398 228 410 221"/>
<path stroke-width="1" stroke="black" d="M 398 228 406 252"/>
<path stroke-width="1" stroke="black" d="M 398 228 357 220"/>
<path stroke-width="1" stroke="black" d="M 410 221 398 228"/>
<path stroke-width="1" stroke="black" d="M 42 216 36 186"/>
<path stroke-width="1" stroke="black" d="M 42 216 25 213"/>
<path stroke-width="1" stroke="black" d="M 42 216 71 247"/>
<path stroke-width="1" stroke="black" d="M 25 213 42 216"/>
<path stroke-width="1" stroke="black" d="M 71 247 42 216"/>
<path stroke-width="1" stroke="black" d="M 71 247 73 240"/>
<path stroke-width="1" stroke="black" d="M 71 247 101 278"/>
<path stroke-width="1" stroke="black" d="M 73 240 71 247"/>
<path stroke-width="1" stroke="black" d="M 199 292 194 282"/>
<path stroke-width="1" stroke="black" d="M 199 292 236 297"/>
<path stroke-width="1" stroke="black" d="M 199 292 180 311"/>
<path stroke-width="1" stroke="black" d="M 194 282 199 292"/>
<path stroke-width="1" stroke="black" d="M 359 114 293 143"/>
<path stroke-width="1" stroke="black" d="M 359 114 376 118"/>
<path stroke-width="1" stroke="black" d="M 359 114 396 81"/>
<path stroke-width="1" stroke="black" d="M 376 118 359 114"/>
<path stroke-width="1" stroke="black" d="M 396 81 406 47"/>
<path stroke-width="1" stroke="black" d="M 396 81 359 114"/>
<path stroke-width="1" stroke="black" d="M 396 81 417 78"/>
<path stroke-width="1" stroke="black" d="M 417 78 396 81"/>
<path stroke-width="1" stroke="black" d="M 335 233 342 243"/>
<path stroke-width="1" stroke="black" d="M 372 261 335 233"/>
<path stroke-width="1" stroke="black" d="M 60 165 77 170"/>
<path stroke-width="1" stroke="black" d="M 77 170 60 165"/>
<path stroke-width="1" stroke="black" d="M 334 46 372 31"/>
<path stroke-width="1" stroke="black" d="M 347 50 334 46"/>
<path stroke-width="1" stroke="black" d="M 295 64 334 46"/>
<path stroke-width="1" stroke="black" d="M 295 64 301 72"/>
<path stroke-width="1" stroke="black" d="M 295 64 248 74"/>
<path stroke-width="1" stroke="black" d="M 301 72 295 64"/>
<path stroke-width="1" stroke="black" d="M 293 143 310 150"/>
<path stroke-width="1" stroke="black" d="M 293 143 359 114"/>
<path stroke-width="1" stroke="black" d="M 293 143 216 160"/>
<path stroke-width="1" stroke="black" d="M 310 150 293 143"/>
<path stroke-width="1" stroke="black" d="M 248 74 295 64"/>
<path stroke-width="1" stroke="black" d="M 248 74 231 69"/>
<path stroke-width="1" stroke="black" d="M 248 74 230 97"/>
<path stroke-width="1" stroke="black" d="M 231 69 248 74"/>
<path stroke-width="1" stroke="black" d="M 36 186 20 178"/>
<path stroke-width="1" stroke="black" d="M 36 186 77 170"/>
<path stroke-width="1" stroke="black" d="M 36 186 42 216"/>
<path stroke-width="1" stroke="black" d="M 20 178 36 186"/>
<path stroke-width="1" stroke="black" d="M 406 47 420 37"/>
<path stroke-width="1" stroke="black" d="M 406 47 372 31"/>
<path stroke-width="1" stroke="black" d="M 406 47 396 81"/>
<path stroke-width="1" stroke="black" d="M 420 37 406 47"/>
<path stroke-width="1" stroke="black" d="M 372 31 334 46"/>
<path stroke-width="1" stroke="black" d="M 372 31 406 47"/>
<path stroke-width="1" stroke="black" d="M 372 31 372 20"/>
<path stroke-width="1" stroke="black" d="M 372 20 372 31"/>
<path stroke-width="1" stroke="black" d="M 77 170 36 186"/>
<path stroke-width="1" stroke="black" d="M 77 170 138 166"/>
<path stroke-width="1" stroke="black" d="M 372 261 378 273"/>
<path stroke-width="1" stroke="black" d="M 372 261 406 252"/>
<path stroke-width="1" stroke="black" d="M 378 273 372 261"/>
<path stroke-width="1" stroke="black" d="M 180 311 199 292"/>
<path stroke-width="1" stroke="black" d="M 180 311 191 320"/>
<path stroke-width="1" stroke="black" d="M 180 311 136 305"/>
<path stroke-width="1" stroke="black" d="M 191 320 180 311"/>
<path stroke-width="1" stroke="black" d="M 295 198 335 233"/>
<path stroke-width="1" stroke="black" d="M 295 198 279 202"/>
<path stroke-width="1" stroke="black" d="M 295 198 267 160"/>
<path stroke-width="1" stroke="black" d="M 279 202 295 198"/>
<path stroke-width="1" stroke="black" d="M 267 160 295 198"/>
<path stroke-width="1" stroke="black" d="M 267 160 255 154"/>
<path stroke-width="1" stroke="black" d="M 267 160 249 125"/>
<path stroke-width="1" stroke="black" d="M 255 154 267 160"/>
<path stroke-width="1" stroke="black" d="M 136 305 180 311"/>
<path stroke-width="1" stroke="black" d="M 136 305 139 316"/>
<path stroke-width="1" stroke="black" d="M 136 305 101 278"/>
<path stroke-width="1" stroke="black" d="M 139 316 136 305"/>
<path stroke-width="1" stroke="black" d="M 101 278 71 247"/>
<path stroke-width="1" stroke="black" d="M 101 278 136 305"/>
<path stroke-width="1" stroke="black" d="M 101 278 100 287"/>
<path stroke-width="1" stroke="black" d="M 100 287 101 278"/>
<path stroke-width="1" stroke="black" d="M 249 125 267 160"/>
<path stroke-width="1" stroke="black" d="M 249 125 251 115"/>
<path stroke-width="1" stroke="black" d="M 249 125 230 97"/>
<path stroke-width="1" stroke="black" d="M 251 115 249 125"/>
<path stroke-width="1" stroke="black" d="M 230 97 248 74"/>
<path stroke-width="1" stroke="black" d="M 230 97 249 125"/>
<path stroke-width="1" stroke="black" d="M 230 97 211 94"/>
<path stroke-width="1" stroke="black" d="M 308 281 302 273"/>
<path stroke-width="1" stroke="black" d="M 302 273 308 281"/>
<path stroke-width="1" stroke="black" d="M 302 273 278 297"/>
<path stroke-width="1" stroke="black" d="M 302 273 318 243"/>
<path stroke-width="1" stroke="black" d="M 406 252 398 228"/>
<path stroke-width="1" stroke="black" d="M 406 252 372 261"/>
<path stroke-width="1" stroke="black" d="M 406 252 419 259"/>
<path stroke-width="1" stroke="black" d="M 419 259 406 252"/>
<path stroke-width="1" stroke="black" d="M 138 166 77 170"/>
<path stroke-width="1" stroke="black" d="M 138 166 121 167"/>
<path stroke-width="1" stroke="black" d="M 138 166 216 160"/>
<path stroke-width="1" stroke="black" d="M 121 167 138 166"/>
<path stroke-width="1" stroke="black" d="M 216 160 293 143"/>
<path stroke-width="1" stroke="black" d="M 216 160 138 166"/>
<path stroke-width="1" stroke="black" d="M 216 160 204 170"/>
<path stroke-width="1" stroke="black" d="M 204 170 216 160"/>
<path stroke-width="1" stroke="black" d="M 357 220 398 228"/>
<path stroke-width="1" stroke="black" d="M 334 46 295 64"/>
<path stroke-width="1" stroke="black" d="M 357 220 360 209"/>
<path stroke-width="1" stroke="black" d="M 360 209 357 220"/>
<path stroke-width="1" stroke="black" d="M 318 243 357 220"/>
<path stroke-width="1" stroke="black" d="M 318 243 308 235"/>
<path stroke-width="1" stroke="black" d="M 318 243 302 273"/>
<path stroke-width="1" stroke="black" d="M 308 235 318 243"/>
<path stroke-width="1" stroke="black" d="M 236 297 199 292"/>
<path stroke-width="1" stroke="black" d="M 236 297 223 300"/>
<path stroke-width="1" stroke="black" d="M 236 297 278 297"/>
<path stroke-width="1" stroke="black" d="M 223 300 236 297"/>
<path stroke-width="1" stroke="black" d="M 278 297 236 297"/>
<path stroke-width="1" stroke="black" d="M 278 297 283 308"/>
<path stroke-width="1" stroke="black" d="M 278 297 302 273"/>
<path stroke-width="1" stroke="black" d="M 283 308 278 297"/>
<path stroke-width="1" stroke="black" d="M 357 220 318 243"/>
<path stroke-width="1" stroke="black" d="M 334 46 347 50"/>
<circle cx="211" cy="94" r="7.0" style="fill:yellow;stroke:black;stroke-width:1.0"/>
<circle cx="230" cy="97" r="7.0" style="fill:yellow;stroke:black;stroke-width:1.0"/>
<circle cx="251" cy="115" r="7.0" style="fill:yellow;stroke:black;stroke-width:1.0"/>
<circle cx="249" cy="125" r="7.0" style="fill:yellow;stroke:black;stroke-width:1.0"/>
<circle cx="100" cy="287" r="7.0" style="fill:fuchsia;stroke:black;stroke-width:1.0"/>
<circle cx="101" cy="278" r="7.0" style="fill:fuchsia;stroke:black;stroke-width:1.0"/>
<circle cx="139" cy="316" r="7.0" style="fill:fuchsia;stroke:black;stroke-width:1.0"/>
<circle cx="136" cy="305" r="7.0" style="fill:fuchsia;stroke:black;stroke-width:1.0"/>
<circle cx="255" cy="154" r="7.0" style="fill:blue;stroke:black;stroke-width:1.0"/>
<circle cx="267" cy="160" r="7.0" style="fill:blue;stroke:black;stroke-width:1.0"/>
<circle cx="279" cy="202" r="7.0" style="fill:blue;stroke:black;stroke-width:1.0"/>
<circle cx="295" cy="198" r="7.0" style="fill:blue;stroke:black;stroke-width:1.0"/>
<circle cx="191" cy="320" r="7.0" style="fill:brown;stroke:black;stroke-width:1.0"/>
<circle cx="180" cy="311" r="7.0" style="fill:brown;stroke:black;stroke-width:1.0"/>
<circle cx="308" cy="281" r="7.0" style="fill:red;stroke:black;stroke-width:1.0"/>
<circle cx="302" cy="273" r="7.0" style="fill:red;stroke:black;stroke-width:1.0"/>
<circle cx="283" cy="308" r="7.0" style="fill:red;stroke:black;stroke-width:1.0"/>
<circle cx="278" cy="297" r="7.0" style="fill:red;stroke:black;stroke-width:1.0"/>
<circle cx="223" cy="300" r="7.0" style="fill:red;stroke:black;stroke-width:1.0"/>
<circle cx="236" cy="297" r="7.0" style="fill:red;stroke:black;stroke-width:1.0"/>
<circle cx="308" cy="235" r="7.0" style="fill:green;stroke:black;stroke-width:1.0"/>
<circle cx="318" cy="243" r="7.0" style="fill:green;stroke:black;stroke-width:1.0"/>
<circle cx="360" cy="209" r="7.0" style="fill:green;stroke:black;stroke-width:1.0"/>
<circle cx="357" cy="220" r="7.0" style="fill:green;stroke:black;stroke-width:1.0"/>
<circle cx="204" cy="170" r="7.0" style="fill:orange;stroke:black;stroke-width:1.0"/>
<circle cx="216" cy="160" r="7.0" style="fill:orange;stroke:black;stroke-width:1.0"/>
<circle cx="121" cy="167" r="7.0" style="fill:orange;stroke:black;stroke-width:1.0"/>
<circle cx="138" cy="166" r="7.0" style="fill:orange;stroke:black;stroke-width:1.0"/>
<circle cx="419" cy="259" r="7.0" style="fill:olive;stroke:black;stroke-width:1.0"/>
<circle cx="406" cy="252" r="7.0" style="fill:olive;stroke:black;stroke-width:1.0"/>
<circle cx="378" cy="273" r="7.0" style="fill:olive;stroke:black;stroke-width:1.0"/>
<circle cx="372" cy="261" r="7.0" style="fill:olive;stroke:black;stroke-width:1.0"/>
<circle cx="417" cy="78" r="7.0" style="fill:aqua;stroke:black;stroke-width:1.0"/>
<circle cx="396" cy="81" r="7.0" style="fill:aqua;stroke:black;stroke-width:1.0"/>
<circle cx="376" cy="118" r="7.0" style="fill:aqua;stroke:black;stroke-width:1.0"/>
<circle cx="359" cy="114" r="7.0" style="fill:aqua;stroke:black;stroke-width:1.0"/>
<circle cx="194" cy="282" r="7.0" style="fill:brown;stroke:black;stroke-width:1.0"/>
<circle cx="199" cy="292" r="7.0" style="fill:brown;stroke:black;stroke-width:1.0"/>
<circle cx="73" cy="240" r="7.0" style="fill:blue;stroke:black;stroke-width:1.0"/>
<circle cx="71" cy="247" r="7.0" style="fill:blue;stroke:black;stroke-width:1.0"/>
<circle cx="25" cy="213" r="7.0" style="fill:blue;stroke:black;stroke-width:1.0"/>
<circle cx="42" cy="216" r="7.0" style="fill:blue;stroke:black;stroke-width:1.0"/>
<circle cx="410" cy="221" r="7.0" style="fill:green;stroke:black;stroke-width:1.0"/>
<circle cx="398" cy="228" r="7.0" style="fill:green;stroke:black;stroke-width:1.0"/>
<circle cx="342" cy="243" r="7.0" style="fill:blue;stroke:black;stroke-width:1.0"/>
<circle cx="335" cy="233" r="7.0" style="fill:blue;stroke:black;stroke-width:1.0"/>
<circle cx="60" cy="165" r="7.0" style="fill:red;stroke:black;stroke-width:1.0"/>
<circle cx="77" cy="170" r="7.0" style="fill:red;stroke:black;stroke-width:1.0"/>
<circle cx="372" cy="20" r="7.0" style="fill:purple;stroke:black;stroke-width:1.0"/>
<circle cx="372" cy="31" r="7.0" style="fill:purple;stroke:black;stroke-width:1.0"/>
<circle cx="420" cy="37" r="7.0" style="fill:purple;stroke:black;stroke-width:1.0"/>
<circle cx="406" cy="47" r="7.0" style="fill:purple;stroke:black;stroke-width:1.0"/>
<circle cx="20" cy="178" r="7.0" style="fill:red;stroke:black;stroke-width:1.0"/>
<circle cx="36" cy="186" r="7.0" style="fill:red;stroke:black;stroke-width:1.0"/>
<circle cx="231" cy="69" r="7.0" style="fill:green;stroke:black;stroke-width:1.0"/>
<circle cx="248" cy="74" r="7.0" style="fill:green;stroke:black;stroke-width:1.0"/>
<circle cx="310" cy="150" r="7.0" style="fill:orange;stroke:black;stroke-width:1.0"/>
<circle cx="293" cy="143" r="7.0" style="fill:orange;stroke:black;stroke-width:1.0"/>
<circle cx="301" cy="72" r="7.0" style="fill:green;stroke:black;stroke-width:1.0"/>
<circle cx="295" cy="64" r="7.0" style="fill:green;stroke:black;stroke-width:1.0"/>
<circle cx="347" cy="50" r="7.0" style="fill:purple;stroke:black;stroke-width:1.0"/>
<circle cx="334" cy="46" r="7.0" style="fill:purple;stroke:black;stroke-width:1.0"/>
</svg>
