<svg width="440" height="340" xmlns="http://www.w3.org/2000/svg">
<path stroke-width="20.0" stroke="black" d="M 215 258 194 247"/>
<path stroke-width="0.5" stroke="black" d="M 222 236 191 195"/>
<path stroke-width="0.5" stroke="black" d="M 222 236 250 276"/>
<path stroke-width="20.0" stroke="black" d="M 239 234 222 236"/>
<path stroke-width="20.0" stroke="black" d="M 157 126 146 114"/>
<path stroke-width="0.5" stroke="black" d="M 157 126 175 156"/>
<path stroke-width="0.5" stroke="black" d="M 157 126 172 135"/>
<path stroke-width="20.0" stroke="black" d="M 146 114 157 126"/>
<path stroke-width="0.5" stroke="black" d="M 217 253 136 268"/>
<path stroke-width="20.0" stroke="black" d="M 217 253 201 262"/>
<path stroke-width="0.5" stroke="black" d="M 217 253 300 225"/>
<path stroke-width="20.0" stroke="black" d="M 201 262 217 253"/>
<path stroke-width="0.5" stroke="black" d="M 300 225 217 253"/>
<path stroke-width="20.0" stroke="black" d="M 300 225 319 232"/>
<path stroke-width="0.5" stroke="black" d="M 300 225 355 188"/>
<path stroke-width="20.0" stroke="black" d="M 319 232 300 225"/>
<path stroke-width="20.0" stroke="black" d="M 383 131 370 123"/>
<path stroke-width="0.5" stroke="black" d="M 383 131 398 157"/>
<path stroke-width="0.5" stroke="black" d="M 383 131 391 118"/>
<path stroke-width="20.0" stroke="black" d="M 370 123 383 131"/>
<path stroke-width="0.5" stroke="black" d="M 127 65 120 109"/>
<path stroke-width="20.0" stroke="black" d="M 127 65 142 55"/>
<path stroke-width="0.5" stroke="black" d="M 127 65 105 32"/>
<path stroke-width="20.0" stroke="black" d="M 142 55 127 65"/>
<path stroke-width="0.5" stroke="black" d="M 105 32 50 31"/>
<path stroke-width="0.5" stroke="black" d="M 105 32 127 65"/>
<path stroke-width="20.0" stroke="black" d="M 105 32 111 20"/>
<path stroke-width="20.0" stroke="black" d="M 111 20 105 32"/>
<path stroke-width="20.0" stroke="black" d="M 222 236 239 234"/>
<path stroke-width="0.5" stroke="black" d="M 191 195 222 236"/>
<path stroke-width="20.0" stroke="black" d="M 68 261 83 249"/>
<path stroke-width="20.0" stroke="black" d="M 83 249 68 261"/>
<path stroke-width="0.5" stroke="black" d="M 66 104 38 62"/>
<path stroke-width="20.0" stroke="black" d="M 50 94 66 104"/>
<path stroke-width="0.5" stroke="black" d="M 107 149 66 104"/>
<path stroke-width="20.0" stroke="black" d="M 107 149 107 142"/>
<path stroke-width="0.5" stroke="black" d="M 107 149 159 201"/>
<path stroke-width="20.0" stroke="black" d="M 107 142 107 149"/>
<path stroke-width="20.0" stroke="black" d="M 120 109 138 100"/>
<path stroke-width="0.5" stroke="black" d="M 120 109 127 65"/>
<path stroke-width="0.5" stroke="black" d="M 120 109 97 160"/>
<path stroke-width="20.0" stroke="black" d="M 138 100 120 109"/>
<path stroke-width="0.5" stroke="black" d="M 159 201 107 149"/>
<path stroke-width="20.0" stroke="black" d="M 159 201 178 203"/>
<path stroke-width="0.5" stroke="black" d="M 159 201 194 247"/>
<path stroke-width="20.0" stroke="black" d="M 178 203 159 201"/>
<path stroke-width="20.0" stroke="black" d="M 136 268 121 279"/>
<path stroke-width="0.5" stroke="black" d="M 136 268 83 249"/>
<path stroke-width="0.5" stroke="black" d="M 136 268 217 253"/>
<path stroke-width="20.0" stroke="black" d="M 121 279 136 268"/>
<path stroke-width="20.0" stroke="black" d="M 50 31 40 20"/>
<path stroke-width="0.5" stroke="black" d="M 50 31 38 62"/>
<path stroke-width="0.5" stroke="black" d="M 50 31 105 32"/>
<path stroke-width="20.0" stroke="black" d="M 40 20 50 31"/>
<path stroke-width="0.5" stroke="black" d="M 38 62 66 104"/>
<path stroke-width="0.5" stroke="black" d="M 38 62 50 31"/>
<path stroke-width="20.0" stroke="black" d="M 38 62 20 54"/>
<path stroke-width="20.0" stroke="black" d="M 20 54 38 62"/>
<path stroke-width="0.5" stroke="black" d="M 83 249 136 268"/>
<path stroke-width="0.5" stroke="black" d="M 83 249 83 208"/>
<path stroke-width="20.0" stroke="black" d="M 191 195 169 191"/>
<path stroke-width="0.5" stroke="black" d="M 191 195 175 156"/>
<path stroke-width="20.0" stroke="black" d="M 169 191 191 195"/>
<path stroke-width="0.5" stroke="black" d="M 391 118 383 131"/>
<path stroke-width="20.0" stroke="black" d="M 391 118 392 105"/>
<path stroke-width="0.5" stroke="black" d="M 391 118 385 148"/>
<path stroke-width="20.0" stroke="black" d="M 392 105 391 118"/>
<path stroke-width="0.5" stroke="black" d="M 250 276 222 236"/>
<path stroke-width="20.0" stroke="black" d="M 250 276 267 286"/>
<path stroke-width="0.5" stroke="black" d="M 250 276 250 306"/>
<path stroke-width="20.0" stroke="black" d="M 267 286 250 276"/>
<path stroke-width="0.5" stroke="black" d="M 250 306 250 276"/>
<path stroke-width="20.0" stroke="black" d="M 250 306 256 320"/>
<path stroke-width="0.5" stroke="black" d="M 250 306 217 288"/>
<path stroke-width="20.0" stroke="black" d="M 256 320 250 306"/>
<path stroke-width="0.5" stroke="black" d="M 385 148 391 118"/>
<path stroke-width="20.0" stroke="black" d="M 385 148 402 139"/>
<path stroke-width="0.5" stroke="black" d="M 385 148 355 188"/>
<path stroke-width="20.0" stroke="black" d="M 402 139 385 148"/>
<path stroke-width="0.5" stroke="black" d="M 355 188 300 225"/>
<path stroke-width="0.5" stroke="black" d="M 355 188 385 148"/>
<path stroke-width="20.0" stroke="black" d="M 355 188 379 187"/>
<path stroke-width="20.0" stroke="black" d="M 379 187 355 188"/>
<path stroke-width="0.5" stroke="black" d="M 217 288 250 306"/>
<path stroke-width="20.0" stroke="black" d="M 217 288 216 301"/>
<path stroke-width="0.5" stroke="black" d="M 217 288 194 247"/>
<path stroke-width="20.0" stroke="black" d="M 216 301 217 288"/>
<path stroke-width="0.5" stroke="black" d="M 194 247 159 201"/>
<path stroke-width="0.5" stroke="black" d="M 194 247 217 288"/>
<path stroke-width="20.0" stroke="black" d="M 194 247 215 258"/>
<path stroke-width="20.0" stroke="black" d="M 304 183 301 174"/>
<path stroke-width="20.0" stroke="black" d="M 301 174 304 183"/>
<path stroke-width="0.5" stroke="black" d="M 301 174 373 178"/>
<path stroke-width="0.5" stroke="black" d="M 301 174 235 155"/>
<path stroke-width="0.5" stroke="black" d="M 175 156 157 126"/>
<path stroke-width="0.5" stroke="black" d="M 175 156 191 195"/>
<path stroke-width="20.0" stroke="black" d="M 175 156 180 146"/>
<path stroke-width="20.0" stroke="black" d="M 180 146 175 156"/>
<path stroke-width="0.5" stroke="black" d="M 83 208 83 249"/>
<path stroke-width="20.0" stroke="black" d="M 83 208 78 219"/>
<path stroke-width="0.5" stroke="black" d="M 83 208 97 160"/>
<path stroke-width="20.0" stroke="black" d="M 78 219 83 208"/>
<path stroke-width="0.5" stroke="black" d="M 97 160 120 109"/>
<path stroke-width="0.5" stroke="black" d="M 97 160 83 208"/>
<path stroke-width="20.0" stroke="black" d="M 97 160 101 166"/>
<path stroke-width="20.0" stroke="black" d="M 101 166 97 160"/>
<path stroke-width="0.5" stroke="black" d="M 172 135 157 126"/>
<path stroke-width="0.5" stroke="black" d="M 66 104 107 149"/>
<path stroke-width="20.0" stroke="black" d="M 172 135 145 130"/>
<path stroke-width="20.0" stroke="black" d="M 145 130 172 135"/>
<path stroke-width="0.5" stroke="black" d="M 235 155 172 135"/>
<path stroke-width="20.0" stroke="black" d="M 235 155 219 157"/>
<path stroke-width="0.5" stroke="black" d="M 235 155 301 174"/>
<path stroke-width="20.0" stroke="black" d="M 219 157 235 155"/>
<path stroke-width="0.5" stroke="black" d="M 398 157 383 131"/>
<path stroke-width="20.0" stroke="black" d="M 398 157 420 160"/>
<path stroke-width="0.5" stroke="black" d="M 398 157 373 178"/>
<path stroke-width="20.0" stroke="black" d="M 420 160 398 157"/>
<path stroke-width="0.5" stroke="black" d="M 373 178 398 157"/>
<path stroke-width="20.0" stroke="black" d="M 373 178 396 188"/>
<path stroke-width="0.5" stroke="black" d="M 373 178 301 174"/>
<path stroke-width="20.0" stroke="black" d="M 396 188 373 178"/>
<path stroke-width="0.5" stroke="black" d="M 172 135 235 155"/>
<path stroke-width="20.0" stroke="black" d="M 66 104 50 94"/>
<circle cx="215" cy="258" r="7.0" style="fill:yellow;stroke:black;stroke-width:1.0"/>
<circle cx="194" cy="247" r="7.0" style="fill:yellow;stroke:black;stroke-width:1.0"/>
<circle cx="216" cy="301" r="7.0" style="fill:yellow;stroke:black;stroke-width:1.0"/>
<circle cx="217" cy="288" r="7.0" style="fill:yellow;stroke:black;stroke-width:1.0"/>
<circle cx="379" cy="187" r="7.0" style="fill:fuchsia;stroke:black;stroke-width:1.0"/>
<circle cx="355" cy="188" r="7.0" style="fill:fuchsia;stroke:black;stroke-width:1.0"/>
<circle cx="402" cy="139" r="7.0" style="fill:fuchsia;stroke:black;stroke-width:1.0"/>
<circle cx="385" cy="148" r="7.0" style="fill:fuchsia;stroke:black;stroke-width:1.0"/>
<circle cx="256" cy="320" r="7.0" style="fill:blue;stroke:black;stroke-width:1.0"/>
<circle cx="250" cy="306" r="7.0" style="fill:blue;stroke:black;stroke-width:1.0"/>
<circle cx="267" cy="286" r="7.0" style="fill:blue;stroke:black;stroke-width:1.0"/>
<circle cx="250" cy="276" r="7.0" style="fill:blue;stroke:black;stroke-width:1.0"/>
<circle cx="392" cy="105" r="7.0" style="fill:brown;stroke:black;stroke-width:1.0"/>
<circle cx="391" cy="118" r="7.0" style="fill:brown;stroke:black;stroke-width:1.0"/>
<circle cx="304" cy="183" r="7.0" style="fill:red;stroke:black;stroke-width:1.0"/>
<circle cx="301" cy="174" r="7.0" style="fill:red;stroke:black;stroke-width:1.0"/>
<circle cx="396" cy="188" r="7.0" style="fill:red;stroke:black;stroke-width:1.0"/>
<circle cx="373" cy="178" r="7.0" style="fill:red;stroke:black;stroke-width:1.0"/>
<circle cx="420" cy="160" r="7.0" style="fill:red;stroke:black;stroke-width:1.0"/>
<circle cx="398" cy="157" r="7.0" style="fill:red;stroke:black;stroke-width:1.0"/>
<circle cx="219" cy="157" r="7.0" style="fill:green;stroke:black;stroke-width:1.0"/>
<circle cx="235" cy="155" r="7.0" style="fill:green;stroke:black;stroke-width:1.0"/>
<circle cx="145" cy="130" r="7.0" style="fill:green;stroke:black;stroke-width:1.0"/>
<circle cx="172" cy="135" r="7.0" style="fill:green;stroke:black;stroke-width:1.0"/>
<circle cx="101" cy="166" r="7.0" style="fill:orange;stroke:black;stroke-width:1.0"/>
<circle cx="97" cy="160" r="7.0" style="fill:orange;stroke:black;stroke-width:1.0"/>
<circle cx="78" cy="219" r="7.0" style="fill:orange;stroke:black;stroke-width:1.0"/>
<circle cx="83" cy="208" r="7.0" style="fill:orange;stroke:black;stroke-width:1.0"/>
<circle cx="180" cy="146" r="7.0" style="fill:olive;stroke:black;stroke-width:1.0"/>
<circle cx="175" cy="156" r="7.0" style="fill:olive;stroke:black;stroke-width:1.0"/>
<circle cx="169" cy="191" r="7.0" style="fill:olive;stroke:black;stroke-width:1.0"/>
<circle cx="191" cy="195" r="7.0" style="fill:olive;stroke:black;stroke-width:1.0"/>
<circle cx="111" cy="20" r="7.0" style="fill:aqua;stroke:black;stroke-width:1.0"/>
<circle cx="105" cy="32" r="7.0" style="fill:aqua;stroke:black;stroke-width:1.0"/>
<circle cx="142" cy="55" r="7.0" style="fill:aqua;stroke:black;stroke-width:1.0"/>
<circle cx="127" cy="65" r="7.0" style="fill:aqua;stroke:black;stroke-width:1.0"/>
<circle cx="370" cy="123" r="7.0" style="fill:brown;stroke:black;stroke-width:1.0"/>
<circle cx="383" cy="131" r="7.0" style="fill:brown;stroke:black;stroke-width:1.0"/>
<circle cx="319" cy="232" r="7.0" style="fill:blue;stroke:black;stroke-width:1.0"/>
<circle cx="300" cy="225" r="7.0" style="fill:blue;stroke:black;stroke-width:1.0"/>
<circle cx="201" cy="262" r="7.0" style="fill:blue;stroke:black;stroke-width:1.0"/>
<circle cx="217" cy="253" r="7.0" style="fill:blue;stroke:black;stroke-width:1.0"/>
<circle cx="146" cy="114" r="7.0" style="fill:green;stroke:black;stroke-width:1.0"/>
<circle cx="157" cy="126" r="7.0" style="fill:green;stroke:black;stroke-width:1.0"/>
<circle cx="239" cy="234" r="7.0" style="fill:blue;stroke:black;stroke-width:1.0"/>
<circle cx="222" cy="236" r="7.0" style="fill:blue;stroke:black;stroke-width:1.0"/>
<circle cx="68" cy="261" r="7.0" style="fill:red;stroke:black;stroke-width:1.0"/>
<circle cx="83" cy="249" r="7.0" style="fill:red;stroke:black;stroke-width:1.0"/>
<circle cx="20" cy="54" r="7.0" style="fill:purple;stroke:black;stroke-width:1.0"/>
<circle cx="38" cy="62" r="7.0" style="fill:purple;stroke:black;stroke-width:1.0"/>
<circle cx="40" cy="20" r="7.0" style="fill:purple;stroke:black;stroke-width:1.0"/>
<circle cx="50" cy="31" r="7.0" style="fill:purple;stroke:black;stroke-width:1.0"/>
<circle cx="121" cy="279" r="7.0" style="fill:red;stroke:black;stroke-width:1.0"/>
<circle cx="136" cy="268" r="7.0" style="fill:red;stroke:black;stroke-width:1.0"/>
<circle cx="178" cy="203" r="7.0" style="fill:green;stroke:black;stroke-width:1.0"/>
<circle cx="159" cy="201" r="7.0" style="fill:green;stroke:black;stroke-width:1.0"/>
<circle cx="138" cy="100" r="7.0" style="fill:orange;stroke:black;stroke-width:1.0"/>
<circle cx="120" cy="109" r="7.0" style="fill:orange;stroke:black;stroke-width:1.0"/>
<circle cx="107" cy="142" r="7.0" style="fill:green;stroke:black;stroke-width:1.0"/>
<circle cx="107" cy="149" r="7.0" style="fill:green;stroke:black;stroke-width:1.0"/>
<circle cx="50" cy="94" r="7.0" style="fill:purple;stroke:black;stroke-width:1.0"/>
<circle cx="66" cy="104" r="7.0" style="fill:purple;stroke:black;stroke-width:1.0"/>
</svg>
