<svg width="440" height="340" xmlns="http://www.w3.org/2000/svg">
<path stroke-width="1" stroke="black" d="M 20 221 32 220"/>
<path stroke-width="1" stroke="black" d="M 135 301 171 291"/>
<path stroke-width="1" stroke="black" d="M 135 301 102 307"/>
<path stroke-width="1" stroke="black" d="M 126 303 135 301"/>
<path stroke-width="1" stroke="black" d="M 261 275 267 281"/>
<path stroke-width="1" stroke="black" d="M 261 275 214 283"/>
<path stroke-width="1" stroke="black" d="M 261 275 308 265"/>
<path stroke-width="1" stroke="black" d="M 267 281 261 275"/>
<path stroke-width="1" stroke="black" d="M 323 84 369 94"/>
<path stroke-width="1" stroke="black" d="M 323 84 329 87"/>
<path stroke-width="1" stroke="black" d="M 323 84 272 75"/>
<path stroke-width="1" stroke="black" d="M 329 87 323 84"/>
<path stroke-width="1" stroke="black" d="M 272 75 323 84"/>
<path stroke-width="1" stroke="black" d="M 272 75 262 74"/>
<path stroke-width="1" stroke="black" d="M 272 75 231 68"/>
<path stroke-width="1" stroke="black" d="M 262 74 272 75"/>
<path stroke-width="1" stroke="black" d="M 271 129 266 129"/>
<path stroke-width="1" stroke="black" d="M 271 129 313 156"/>
<path stroke-width="1" stroke="black" d="M 271 129 232 109"/>
<path stroke-width="1" stroke="black" d="M 266 129 271 129"/>
<path stroke-width="1" stroke="black" d="M 270 52 308 84"/>
<path stroke-width="1" stroke="black" d="M 270 52 270 40"/>
<path stroke-width="1" stroke="black" d="M 270 52 229 33"/>
<path stroke-width="1" stroke="black" d="M 270 40 270 52"/>
<path stroke-width="1" stroke="black" d="M 229 33 183 36"/>
<path stroke-width="1" stroke="black" d="M 229 33 270 52"/>
<path stroke-width="1" stroke="black" d="M 229 33 235 20"/>
<path stroke-width="1" stroke="black" d="M 235 20 229 33"/>
<path stroke-width="1" stroke="black" d="M 135 301 126 303"/>
<path stroke-width="1" stroke="black" d="M 171 291 135 301"/>
<path stroke-width="1" stroke="black" d="M 420 115 405 111"/>
<path stroke-width="1" stroke="black" d="M 405 111 420 115"/>
<path stroke-width="1" stroke="black" d="M 104 94 140 59"/>
<path stroke-width="1" stroke="black" d="M 95 89 104 94"/>
<path stroke-width="1" stroke="black" d="M 74 134 104 94"/>
<path stroke-width="1" stroke="black" d="M 74 134 77 142"/>
<path stroke-width="1" stroke="black" d="M 74 134 46 175"/>
<path stroke-width="1" stroke="black" d="M 77 142 74 134"/>
<path stroke-width="1" stroke="black" d="M 308 84 301 92"/>
<path stroke-width="1" stroke="black" d="M 308 84 270 52"/>
<path stroke-width="1" stroke="black" d="M 308 84 348 110"/>
<path stroke-width="1" stroke="black" d="M 301 92 308 84"/>
<path stroke-width="1" stroke="black" d="M 46 175 74 134"/>
<path stroke-width="1" stroke="black" d="M 46 175 36 175"/>
<path stroke-width="1" stroke="black" d="M 46 175 32 220"/>
<path stroke-width="1" stroke="black" d="M 36 175 46 175"/>
<path stroke-width="1" stroke="black" d="M 369 94 382 93"/>
<path stroke-width="1" stroke="black" d="M 369 94 405 111"/>
<path stroke-width="1" stroke="black" d="M 369 94 323 84"/>
<path stroke-width="1" stroke="black" d="M 382 93 369 94"/>
<path stroke-width="1" stroke="black" d="M 183 36 184 22"/>
<path stroke-width="1" stroke="black" d="M 183 36 140 59"/>
<path stroke-width="1" stroke="black" d="M 183 36 229 33"/>
<path stroke-width="1" stroke="black" d="M 184 22 183 36"/>
<path stroke-width="1" stroke="black" d="M 140 59 104 94"/>
<path stroke-width="1" stroke="black" d="M 140 59 183 36"/>
<path stroke-width="1" stroke="black" d="M 140 59 133 50"/>
<path stroke-width="1" stroke="black" d="M 133 50 140 59"/>
<path stroke-width="1" stroke="black" d="M 405 111 369 94"/>
<path stroke-width="1" stroke="black" d="M 405 111 386 123"/>
<path stroke-width="1" stroke="black" d="M 171 291 162 288"/>
<path stroke-width="1" stroke="black" d="M 171 291 214 283"/>
<path stroke-width="1" stroke="black" d="M 162 288 171 291"/>
<path stroke-width="1" stroke="black" d="M 232 109 271 129"/>
<path stroke-width="1" stroke="black" d="M 232 109 220 110"/>
<path stroke-width="1" stroke="black" d="M 232 109 205 81"/>
<path stroke-width="1" stroke="black" d="M 220 110 232 109"/>
<path stroke-width="1" stroke="black" d="M 102 307 135 301"/>
<path stroke-width="1" stroke="black" d="M 102 307 106 320"/>
<path stroke-width="1" stroke="black" d="M 102 307 69 293"/>
<path stroke-width="1" stroke="black" d="M 106 320 102 307"/>
<path stroke-width="1" stroke="black" d="M 69 293 102 307"/>
<path stroke-width="1" stroke="black" d="M 69 293 68 305"/>
<path stroke-width="1" stroke="black" d="M 69 293 41 263"/>
<path stroke-width="1" stroke="black" d="M 68 305 69 293"/>
<path stroke-width="1" stroke="black" d="M 205 81 232 109"/>
<path stroke-width="1" stroke="black" d="M 205 81 191 77"/>
<path stroke-width="1" stroke="black" d="M 205 81 231 68"/>
<path stroke-width="1" stroke="black" d="M 191 77 205 81"/>
<path stroke-width="1" stroke="black" d="M 231 68 272 75"/>
<path stroke-width="1" stroke="black" d="M 231 68 205 81"/>
<path stroke-width="1" stroke="black" d="M 231 68 217 61"/>
<path stroke-width="1" stroke="black" d="M 217 61 231 68"/>
<path stroke-width="1" stroke="black" d="M 41 263 69 293"/>
<path stroke-width="1" stroke="black" d="M 41 263 31 269"/>
<path stroke-width="1" stroke="black" d="M 41 263 32 220"/>
<path stroke-width="1" stroke="black" d="M 31 269 41 263"/>
<path stroke-width="1" stroke="black" d="M 32 220 46 175"/>
<path stroke-width="1" stroke="black" d="M 32 220 41 263"/>
<path stroke-width="1" stroke="black" d="M 32 220 20 221"/>
<path stroke-width="1" stroke="black" d="M 386 218 372 218"/>
<path stroke-width="1" stroke="black" d="M 372 218 386 218"/>
<path stroke-width="1" stroke="black" d="M 372 218 351 179"/>
<path stroke-width="1" stroke="black" d="M 372 218 349 249"/>
<path stroke-width="1" stroke="black" d="M 214 283 261 275"/>
<path stroke-width="1" stroke="black" d="M 214 283 171 291"/>
<path stroke-width="1" stroke="black" d="M 214 283 205 284"/>
<path stroke-width="1" stroke="black" d="M 205 284 214 283"/>
<path stroke-width="1" stroke="black" d="M 386 123 405 111"/>
<path stroke-width="1" stroke="black" d="M 386 123 398 131"/>
<path stroke-width="1" stroke="black" d="M 386 123 348 110"/>
<path stroke-width="1" stroke="black" d="M 398 131 386 123"/>
<path stroke-width="1" stroke="black" d="M 348 110 308 84"/>
<path stroke-width="1" stroke="black" d="M 348 110 386 123"/>
<path stroke-width="1" stroke="black" d="M 348 110 351 122"/>
<path stroke-width="1" stroke="black" d="M 351 122 348 110"/>
<path stroke-width="1" stroke="black" d="M 308 265 261 275"/>
<path stroke-width="1" stroke="black" d="M 104 94 74 134"/>
<path stroke-width="1" stroke="black" d="M 308 265 317 267"/>
<path stroke-width="1" stroke="black" d="M 317 267 308 265"/>
<path stroke-width="1" stroke="black" d="M 349 249 308 265"/>
<path stroke-width="1" stroke="black" d="M 349 249 361 256"/>
<path stroke-width="1" stroke="black" d="M 349 249 372 218"/>
<path stroke-width="1" stroke="black" d="M 361 256 349 249"/>
<path stroke-width="1" stroke="black" d="M 313 156 271 129"/>
<path stroke-width="1" stroke="black" d="M 313 156 318 150"/>
<path stroke-width="1" stroke="black" d="M 313 156 351 179"/>
<path stroke-width="1" stroke="black" d="M 318 150 313 156"/>
<path stroke-width="1" stroke="black" d="M 351 179 313 156"/>
<path stroke-width="1" stroke="black" d="M 351 179 364 176"/>
<path stroke-width="1" stroke="black" d="M 351 179 372 218"/>
<path stroke-width="1" stroke="black" d="M 364 176 351 179"/>
<path stroke-width="1" stroke="black" d="M 308 265 349 249"/>
<path stroke-width="1" stroke="black" d="M 104 94 95 89"/>
<circle cx="20" cy="221" r="7.0" style="fill:yellow;stroke:black;stroke-width:1.0"/>
<circle cx="32" cy="220" r="7.0" style="fill:yellow;stroke:black;stroke-width:1.0"/>
<circle cx="31" cy="269" r="7.0" style="fill:yellow;stroke:black;stroke-width:1.0"/>
<circle cx="41" cy="263" r="7.0" style="fill:yellow;stroke:black;stroke-width:1.0"/>
<circle cx="217" cy="61" r="7.0" style="fill:fuchsia;stroke:black;stroke-width:1.0"/>
<circle cx="231" cy="68" r="7.0" style="fill:fuchsia;stroke:black;stroke-width:1.0"/>
<circle cx="191" cy="77" r="7.0" style="fill:fuchsia;stroke:black;stroke-width:1.0"/>
<circle cx="205" cy="81" r="7.0" style="fill:fuchsia;stroke:black;stroke-width:1.0"/>
<circle cx="68" cy="305" r="7.0" style="fill:blue;stroke:black;stroke-width:1.0"/>
<circle cx="69" cy="293" r="7.0" style="fill:blue;stroke:black;stroke-width:1.0"/>
<circle cx="106" cy="320" r="7.0" style="fill:blue;stroke:black;stroke-width:1.0"/>
<circle cx="102" cy="307" r="7.0" style="fill:blue;stroke:black;stroke-width:1.0"/>
<circle cx="220" cy="110" r="7.0" style="fill:brown;stroke:black;stroke-width:1.0"/>
<circle cx="232" cy="109" r="7.0" style="fill:brown;stroke:black;stroke-width:1.0"/>
<circle cx="386" cy="218" r="7.0" style="fill:red;stroke:black;stroke-width:1.0"/>
<circle cx="372" cy="218" r="7.0" style="fill:red;stroke:black;stroke-width:1.0"/>
<circle cx="364" cy="176" r="7.0" style="fill:red;stroke:black;stroke-width:1.0"/>
<circle cx="351" cy="179" r="7.0" style="fill:red;stroke:black;stroke-width:1.0"/>
<circle cx="318" cy="150" r="7.0" style="fill:red;stroke:black;stroke-width:1.0"/>
<circle cx="313" cy="156" r="7.0" style="fill:red;stroke:black;stroke-width:1.0"/>
<circle cx="361" cy="256" r="7.0" style="fill:green;stroke:black;stroke-width:1.0"/>
<circle cx="349" cy="249" r="7.0" style="fill:green;stroke:black;stroke-width:1.0"/>
<circle cx="317" cy="267" r="7.0" style="fill:green;stroke:black;stroke-width:1.0"/>
<circle cx="308" cy="265" r="7.0" style="fill:green;stroke:black;stroke-width:1.0"/>
<circle cx="351" cy="122" r="7.0" style="fill:orange;stroke:black;stroke-width:1.0"/>
<circle cx="348" cy="110" r="7.0" style="fill:orange;stroke:black;stroke-width:1.0"/>
<circle cx="398" cy="131" r="7.0" style="fill:orange;stroke:black;stroke-width:1.0"/>
<circle cx="386" cy="123" r="7.0" style="fill:orange;stroke:black;stroke-width:1.0"/>
<circle cx="205" cy="284" r="7.0" style="fill:olive;stroke:black;stroke-width:1.0"/>
<circle cx="214" cy="283" r="7.0" style="fill:olive;stroke:black;stroke-width:1.0"/>
<circle cx="162" cy="288" r="7.0" style="fill:olive;stroke:black;stroke-width:1.0"/>
<circle cx="171" cy="291" r="7.0" style="fill:olive;stroke:black;stroke-width:1.0"/>
<circle cx="235" cy="20" r="7.0" style="fill:aqua;stroke:black;stroke-width:1.0"/>
<circle cx="229" cy="33" r="7.0" style="fill:aqua;stroke:black;stroke-width:1.0"/>
<circle cx="270" cy="40" r="7.0" style="fill:aqua;stroke:black;stroke-width:1.0"/>
<circle cx="270" cy="52" r="7.0" style="fill:aqua;stroke:black;stroke-width:1.0"/>
<circle cx="266" cy="129" r="7.0" style="fill:brown;stroke:black;stroke-width:1.0"/>
<circle cx="271" cy="129" r="7.0" style="fill:brown;stroke:black;stroke-width:1.0"/>
<circle cx="262" cy="74" r="7.0" style="fill:blue;stroke:black;stroke-width:1.0"/>
<circle cx="272" cy="75" r="7.0" style="fill:blue;stroke:black;stroke-width:1.0"/>
<circle cx="329" cy="87" r="7.0" style="fill:blue;stroke:black;stroke-width:1.0"/>
<circle cx="323" cy="84" r="7.0" style="fill:blue;stroke:black;stroke-width:1.0"/>
<circle cx="267" cy="281" r="7.0" style="fill:green;stroke:black;stroke-width:1.0"/>
<circle cx="261" cy="275" r="7.0" style="fill:green;stroke:black;stroke-width:1.0"/>
<circle cx="126" cy="303" r="7.0" style="fill:blue;stroke:black;stroke-width:1.0"/>
<circle cx="135" cy="301" r="7.0" style="fill:blue;stroke:black;stroke-width:1.0"/>
<circle cx="420" cy="115" r="7.0" style="fill:red;stroke:black;stroke-width:1.0"/>
<circle cx="405" cy="111" r="7.0" style="fill:red;stroke:black;stroke-width:1.0"/>
<circle cx="133" cy="50" r="7.0" style="fill:purple;stroke:black;stroke-width:1.0"/>
<circle cx="140" cy="59" r="7.0" style="fill:purple;stroke:black;stroke-width:1.0"/>
<circle cx="184" cy="22" r="7.0" style="fill:purple;stroke:black;stroke-width:1.0"/>
<circle cx="183" cy="36" r="7.0" style="fill:purple;stroke:black;stroke-width:1.0"/>
<circle cx="382" cy="93" r="7.0" style="fill:red;stroke:black;stroke-width:1.0"/>
<circle cx="369" cy="94" r="7.0" style="fill:red;stroke:black;stroke-width:1.0"/>
<circle cx="36" cy="175" r="7.0" style="fill:green;stroke:black;stroke-width:1.0"/>
<circle cx="46" cy="175" r="7.0" style="fill:green;stroke:black;stroke-width:1.0"/>
<circle cx="301" cy="92" r="7.0" style="fill:orange;stroke:black;stroke-width:1.0"/>
<circle cx="308" cy="84" r="7.0" style="fill:orange;stroke:black;stroke-width:1.0"/>
<circle cx="77" cy="142" r="7.0" style="fill:green;stroke:black;stroke-width:1.0"/>
<circle cx="74" cy="134" r="7.0" style="fill:green;stroke:black;stroke-width:1.0"/>
<circle cx="95" cy="89" r="7.0" style="fill:purple;stroke:black;stroke-width:1.0"/>
<circle cx="104" cy="94" r="7.0" style="fill:purple;stroke:black;stroke-width:1.0"/>
</svg>
