<svg width="440" height="340" xmlns="http://www.w3.org/2000/svg">
<path stroke-width="1" stroke="black" d="M 130 233 131 227"/>
<path stroke-width="1" stroke="black" d="M 204 128 234 112"/>
<path stroke-width="1" stroke="black" d="M 204 128 168 136"/>
<path stroke-width="1" stroke="black" d="M 211 135 204 128"/>
<path stroke-width="1" stroke="black" d="M 250 56 241 52"/>
<path stroke-width="1" stroke="black" d="M 250 56 245 85"/>
<path stroke-width="1" stroke="black" d="M 250 56 265 32"/>
<path stroke-width="1" stroke="black" d="M 241 52 250 56"/>
<path stroke-width="1" stroke="black" d="M 308 267 262 259"/>
<path stroke-width="1" stroke="black" d="M 308 267 314 276"/>
<path stroke-width="1" stroke="black" d="M 308 267 353 266"/>
<path stroke-width="1" stroke="black" d="M 314 276 308 267"/>
<path stroke-width="1" stroke="black" d="M 353 266 308 267"/>
<path stroke-width="1" stroke="black" d="M 353 266 361 273"/>
<path stroke-width="1" stroke="black" d="M 353 266 386 252"/>
<path stroke-width="1" stroke="black" d="M 361 273 353 266"/>
<path stroke-width="1" stroke="black" d="M 384 164 382 173"/>
<path stroke-width="1" stroke="black" d="M 384 164 368 128"/>
<path stroke-width="1" stroke="black" d="M 384 164 400 199"/>
<path stroke-width="1" stroke="black" d="M 382 173 384 164"/>
<path stroke-width="1" stroke="black" d="M 43 228 71 212"/>
<path stroke-width="1" stroke="black" d="M 43 228 34 229"/>
<path stroke-width="1" stroke="black" d="M 43 228 33 252"/>
<path stroke-width="1" stroke="black" d="M 34 229 43 228"/>
<path stroke-width="1" stroke="black" d="M 33 252 50 278"/>
<path stroke-width="1" stroke="black" d="M 33 252 43 228"/>
<path stroke-width="1" stroke="black" d="M 33 252 20 251"/>
<path stroke-width="1" stroke="black" d="M 20 251 33 252"/>
<path stroke-width="1" stroke="black" d="M 204 128 211 135"/>
<path stroke-width="1" stroke="black" d="M 234 112 204 128"/>
<path stroke-width="1" stroke="black" d="M 215 252 213 245"/>
<path stroke-width="1" stroke="black" d="M 213 245 215 252"/>
<path stroke-width="1" stroke="black" d="M 112 310 78 299"/>
<path stroke-width="1" stroke="black" d="M 118 320 112 310"/>
<path stroke-width="1" stroke="black" d="M 137 297 112 310"/>
<path stroke-width="1" stroke="black" d="M 137 297 146 306"/>
<path stroke-width="1" stroke="black" d="M 137 297 135 264"/>
<path stroke-width="1" stroke="black" d="M 146 306 137 297"/>
<path stroke-width="1" stroke="black" d="M 71 212 60 203"/>
<path stroke-width="1" stroke="black" d="M 71 212 43 228"/>
<path stroke-width="1" stroke="black" d="M 71 212 113 218"/>
<path stroke-width="1" stroke="black" d="M 60 203 71 212"/>
<path stroke-width="1" stroke="black" d="M 135 264 137 297"/>
<path stroke-width="1" stroke="black" d="M 135 264 137 273"/>
<path stroke-width="1" stroke="black" d="M 135 264 131 227"/>
<path stroke-width="1" stroke="black" d="M 137 273 135 264"/>
<path stroke-width="1" stroke="black" d="M 262 259 263 267"/>
<path stroke-width="1" stroke="black" d="M 262 259 213 245"/>
<path stroke-width="1" stroke="black" d="M 262 259 308 267"/>
<path stroke-width="1" stroke="black" d="M 263 267 262 259"/>
<path stroke-width="1" stroke="black" d="M 50 278 39 281"/>
<path stroke-width="1" stroke="black" d="M 50 278 78 299"/>
<path stroke-width="1" stroke="black" d="M 50 278 33 252"/>
<path stroke-width="1" stroke="black" d="M 39 281 50 278"/>
<path stroke-width="1" stroke="black" d="M 78 299 112 310"/>
<path stroke-width="1" stroke="black" d="M 78 299 50 278"/>
<path stroke-width="1" stroke="black" d="M 78 299 77 308"/>
<path stroke-width="1" stroke="black" d="M 77 308 78 299"/>
<path stroke-width="1" stroke="black" d="M 213 245 262 259"/>
<path stroke-width="1" stroke="black" d="M 213 245 165 232"/>
<path stroke-width="1" stroke="black" d="M 234 112 243 118"/>
<path stroke-width="1" stroke="black" d="M 234 112 245 85"/>
<path stroke-width="1" stroke="black" d="M 243 118 234 112"/>
<path stroke-width="1" stroke="black" d="M 400 199 384 164"/>
<path stroke-width="1" stroke="black" d="M 400 199 406 205"/>
<path stroke-width="1" stroke="black" d="M 400 199 407 229"/>
<path stroke-width="1" stroke="black" d="M 406 205 400 199"/>
<path stroke-width="1" stroke="black" d="M 168 136 204 128"/>
<path stroke-width="1" stroke="black" d="M 168 136 164 128"/>
<path stroke-width="1" stroke="black" d="M 168 136 138 155"/>
<path stroke-width="1" stroke="black" d="M 164 128 168 136"/>
<path stroke-width="1" stroke="black" d="M 138 155 168 136"/>
<path stroke-width="1" stroke="black" d="M 138 155 129 146"/>
<path stroke-width="1" stroke="black" d="M 138 155 128 187"/>
<path stroke-width="1" stroke="black" d="M 129 146 138 155"/>
<path stroke-width="1" stroke="black" d="M 407 229 400 199"/>
<path stroke-width="1" stroke="black" d="M 407 229 420 234"/>
<path stroke-width="1" stroke="black" d="M 407 229 386 252"/>
<path stroke-width="1" stroke="black" d="M 420 234 407 229"/>
<path stroke-width="1" stroke="black" d="M 386 252 353 266"/>
<path stroke-width="1" stroke="black" d="M 386 252 407 229"/>
<path stroke-width="1" stroke="black" d="M 386 252 382 251"/>
<path stroke-width="1" stroke="black" d="M 382 251 386 252"/>
<path stroke-width="1" stroke="black" d="M 128 187 138 155"/>
<path stroke-width="1" stroke="black" d="M 128 187 118 181"/>
<path stroke-width="1" stroke="black" d="M 128 187 131 227"/>
<path stroke-width="1" stroke="black" d="M 118 181 128 187"/>
<path stroke-width="1" stroke="black" d="M 131 227 135 264"/>
<path stroke-width="1" stroke="black" d="M 131 227 128 187"/>
<path stroke-width="1" stroke="black" d="M 131 227 130 233"/>
<path stroke-width="1" stroke="black" d="M 332 45 329 55"/>
<path stroke-width="1" stroke="black" d="M 329 55 332 45"/>
<path stroke-width="1" stroke="black" d="M 329 55 350 89"/>
<path stroke-width="1" stroke="black" d="M 329 55 299 31"/>
<path stroke-width="1" stroke="black" d="M 245 85 250 56"/>
<path stroke-width="1" stroke="black" d="M 245 85 234 112"/>
<path stroke-width="1" stroke="black" d="M 245 85 252 89"/>
<path stroke-width="1" stroke="black" d="M 252 89 245 85"/>
<path stroke-width="1" stroke="black" d="M 165 232 213 245"/>
<path stroke-width="1" stroke="black" d="M 165 232 168 227"/>
<path stroke-width="1" stroke="black" d="M 165 232 113 218"/>
<path stroke-width="1" stroke="black" d="M 168 227 165 232"/>
<path stroke-width="1" stroke="black" d="M 113 218 71 212"/>
<path stroke-width="1" stroke="black" d="M 113 218 165 232"/>
<path stroke-width="1" stroke="black" d="M 113 218 106 212"/>
<path stroke-width="1" stroke="black" d="M 106 212 113 218"/>
<path stroke-width="1" stroke="black" d="M 265 32 250 56"/>
<path stroke-width="1" stroke="black" d="M 112 310 137 297"/>
<path stroke-width="1" stroke="black" d="M 265 32 258 23"/>
<path stroke-width="1" stroke="black" d="M 258 23 265 32"/>
<path stroke-width="1" stroke="black" d="M 299 31 265 32"/>
<path stroke-width="1" stroke="black" d="M 299 31 297 20"/>
<path stroke-width="1" stroke="black" d="M 299 31 329 55"/>
<path stroke-width="1" stroke="black" d="M 297 20 299 31"/>
<path stroke-width="1" stroke="black" d="M 368 128 384 164"/>
<path stroke-width="1" stroke="black" d="M 368 128 362 132"/>
<path stroke-width="1" stroke="black" d="M 368 128 350 89"/>
<path stroke-width="1" stroke="black" d="M 362 132 368 128"/>
<path stroke-width="1" stroke="black" d="M 350 89 368 128"/>
<path stroke-width="1" stroke="black" d="M 350 89 358 84"/>
<path stroke-width="1" stroke="black" d="M 350 89 329 55"/>
<path stroke-width="1" stroke="black" d="M 358 84 350 89"/>
<path stroke-width="1" stroke="black" d="M 265 32 299 31"/>
<path stroke-width="1" stroke="black" d="M 112 310 118 320"/>
<circle cx="130" cy="233" r="7.0" style="fill:gray;stroke:black;stroke-width:1.0"/>
<circle cx="131" cy="227" r="7.0" style="fill:gray;stroke:black;stroke-width:1.0"/>
<circle cx="118" cy="181" r="7.0" style="fill:gray;stroke:black;stroke-width:1.0"/>
<circle cx="128" cy="187" r="7.0" style="fill:gray;stroke:black;stroke-width:1.0"/>
<circle cx="382" cy="251" r="7.0" style="fill:gray;stroke:black;stroke-width:1.0"/>
<circle cx="386" cy="252" r="7.0" style="fill:gray;stroke:black;stroke-width:1.0"/>
<circle cx="420" cy="234" r="7.0" style="fill:gray;stroke:black;stroke-width:1.0"/>
<circle cx="407" cy="229" r="7.0" style="fill:gray;stroke:black;stroke-width:1.0"/>
<circle cx="129" cy="146" r="7.0" style="fill:gray;stroke:black;stroke-width:1.0"/>
<circle cx="138" cy="155" r="7.0" style="fill:gray;stroke:black;stroke-width:1.0"/>
<circle cx="164" cy="128" r="7.0" style="fill:gray;stroke:black;stroke-width:1.0"/>
<circle cx="168" cy="136" r="7.0" style="fill:gray;stroke:black;stroke-width:1.0"/>
<circle cx="406" cy="205" r="7.0" style="fill:gray;stroke:black;stroke-width:1.0"/>
<circle cx="400" cy="199" r="7.0" style="fill:gray;stroke:black;stroke-width:1.0"/>
<circle cx="332" cy="45" r="7.0" style="fill:gray;stroke:black;stroke-width:1.0"/>
<circle cx="329" cy="55" r="7.0" style="fill:gray;stroke:black;stroke-width:1.0"/>
<circle cx="358" cy="84" r="7.0" style="fill:gray;stroke:black;stroke-width:1.0"/>
<circle cx="350" cy="89" r="7.0" style="fill:gray;stroke:black;stroke-width:1.0"/>
<circle cx="362" cy="132" r="7.0" style="fill:gray;stroke:black;stroke-width:1.0"/>
<circle cx="368" cy="128" r="7.0" style="fill:gray;stroke:black;stroke-width:1.0"/>
<circle cx="297" cy="20" r="7.0" style="fill:gray;stroke:black;stroke-width:1.0"/>
<circle cx="299" cy="31" r="7.0" style="fill:gray;stroke:black;stroke-width:1.0"/>
<circle cx="258" cy="23" r="7.0" style="fill:gray;stroke:black;stroke-width:1.0"/>
<circle cx="265" cy="32" r="7.0" style="fill:gray;stroke:black;stroke-width:1.0"/>
<circle cx="106" cy="212" r="7.0" style="fill:gray;stroke:black;stroke-width:1.0"/>
<circle cx="113" cy="218" r="7.0" style="fill:gray;stroke:black;stroke-width:1.0"/>
<circle cx="168" cy="227" r="7.0" style="fill:gray;stroke:black;stroke-width:1.0"/>
<circle cx="165" cy="232" r="7.0" style="fill:gray;stroke:black;stroke-width:1.0"/>
<circle cx="252" cy="89" r="7.0" style="fill:gray;stroke:black;stroke-width:1.0"/>
<circle cx="245" cy="85" r="7.0" style="fill:gray;stroke:black;stroke-width:1.0"/>
<circle cx="243" cy="118" r="7.0" style="fill:gray;stroke:black;stroke-width:1.0"/>
<circle cx="234" cy="112" r="7.0" style="fill:gray;stroke:black;stroke-width:1.0"/>
<circle cx="20" cy="251" r="7.0" style="fill:gray;stroke:black;stroke-width:1.0"/>
<circle cx="33" cy="252" r="7.0" style="fill:gray;stroke:black;stroke-width:1.0"/>
<circle cx="34" cy="229" r="7.0" style="fill:gray;stroke:black;stroke-width:1.0"/>
<circle cx="43" cy="228" r="7.0" style="fill:gray;stroke:black;stroke-width:1.0"/>
<circle cx="382" cy="173" r="7.0" style="fill:gray;stroke:black;stroke-width:1.0"/>
<circle cx="384" cy="164" r="7.0" style="fill:gray;stroke:black;stroke-width:1.0"/>
<circle cx="361" cy="273" r="7.0" style="fill:gray;stroke:black;stroke-width:1.0"/>
<circle cx="353" cy="266" r="7.0" style="fill:gray;stroke:black;stroke-width:1.0"/>
<circle cx="314" cy="276" r="7.0" style="fill:gray;stroke:black;stroke-width:1.0"/>
<circle cx="308" cy="267" r="7.0" style="fill:gray;stroke:black;stroke-width:1.0"/>
<circle cx="241" cy="52" r="7.0" style="fill:gray;stroke:black;stroke-width:1.0"/>
<circle cx="250" cy="56" r="7.0" style="fill:gray;stroke:black;stroke-width:1.0"/>
<circle cx="211" cy="135" r="7.0" style="fill:gray;stroke:black;stroke-width:1.0"/>
<circle cx="204" cy="128" r="7.0" style="fill:gray;stroke:black;stroke-width:1.0"/>
<circle cx="215" cy="252" r="7.0" style="fill:gray;stroke:black;stroke-width:1.0"/>
<circle cx="213" cy="245" r="7.0" style="fill:gray;stroke:black;stroke-width:1.0"/>
<circle cx="77" cy="308" r="7.0" style="fill:gray;stroke:black;stroke-width:1.0"/>
<circle cx="78" cy="299" r="7.0" style="fill:gray;stroke:black;stroke-width:1.0"/>
<circle cx="39" cy="281" r="7.0" style="fill:gray;stroke:black;stroke-width:1.0"/>
<circle cx="50" cy="278" r="7.0" style="fill:gray;stroke:black;stroke-width:1.0"/>
<circle cx="263" cy="267" r="7.0" style="fill:gray;stroke:black;stroke-width:1.0"/>
<circle cx="262" cy="259" r="7.0" style="fill:gray;stroke:black;stroke-width:1.0"/>
<circle cx="137" cy="273" r="7.0" style="fill:gray;stroke:black;stroke-width:1.0"/>
<circle cx="135" cy="264" r="7.0" style="fill:gray;stroke:black;stroke-width:1.0"/>
<circle cx="60" cy="203" r="7.0" style="fill:gray;stroke:black;stroke-width:1.0"/>
<circle cx="71" cy="212" r="7.0" style="fill:gray;stroke:black;stroke-width:1.0"/>
<circle cx="146" cy="306" r="7.0" style="fill:gray;stroke:black;stroke-width:1.0"/>
<circle cx="137" cy="297" r="7.0" style="fill:gray;stroke:black;stroke-width:1.0"/>
<circle cx="118" cy="320" r="7.0" style="fill:gray;stroke:black;stroke-width:1.0"/>
<circle cx="112" cy="310" r="7.0" style="fill:gray;stroke:black;stroke-width:1.0"/>
</svg>
