<svg width="440" height="340" xmlns="http://www.w3.org/2000/svg">
<path stroke-width="20.0" stroke="black" d="M 79 20 82 29"/>
<path stroke-width="0.5" stroke="black" d="M 45 49 42 77"/>
<path stroke-width="20.0" stroke="black" d="M 45 49 29 42"/>
<path stroke-width="20.0" stroke="black" d="M 160 69 140 67"/>
<path stroke-width="0.5" stroke="black" d="M 140 67 125 40"/>
<path stroke-width="0.5" stroke="black" d="M 140 67 116 93"/>
<path stroke-width="20.0" stroke="black" d="M 140 67 160 69"/>
<path stroke-width="20.0" stroke="black" d="M 420 283 405 290"/>
<path stroke-width="0.5" stroke="black" d="M 45 49 82 29"/>
<path stroke-width="20.0" stroke="black" d="M 405 290 420 283"/>
<path stroke-width="0.5" stroke="black" d="M 405 290 393 308"/>
<path stroke-width="20.0" stroke="black" d="M 357 289 374 293"/>
<path stroke-width="0.5" stroke="black" d="M 374 293 405 290"/>
<path stroke-width="20.0" stroke="black" d="M 374 293 357 289"/>
<path stroke-width="0.5" stroke="black" d="M 374 293 393 308"/>
<path stroke-width="20.0" stroke="black" d="M 396 320 393 308"/>
<path stroke-width="0.5" stroke="black" d="M 393 308 405 290"/>
<path stroke-width="0.5" stroke="black" d="M 405 290 374 293"/>
<path stroke-width="20.0" stroke="black" d="M 29 42 45 49"/>
<path stroke-width="0.5" stroke="black" d="M 42 77 45 49"/>
<path stroke-width="20.0" stroke="black" d="M 42 77 20 82"/>
<path stroke-width="20.0" stroke="black" d="M 82 29 79 20"/>
<path stroke-width="0.5" stroke="black" d="M 82 29 125 40"/>
<path stroke-width="0.5" stroke="black" d="M 82 29 45 49"/>
<path stroke-width="20.0" stroke="black" d="M 138 29 125 40"/>
<path stroke-width="0.5" stroke="black" d="M 125 40 82 29"/>
<path stroke-width="20.0" stroke="black" d="M 125 40 138 29"/>
<path stroke-width="0.5" stroke="black" d="M 125 40 140 67"/>
<path stroke-width="20.0" stroke="black" d="M 127 103 116 93"/>
<path stroke-width="20.0" stroke="black" d="M 116 93 127 103"/>
<path stroke-width="0.5" stroke="black" d="M 116 93 70 99"/>
<path stroke-width="0.5" stroke="black" d="M 116 93 140 67"/>
<path stroke-width="20.0" stroke="black" d="M 65 111 70 99"/>
<path stroke-width="0.5" stroke="black" d="M 70 99 116 93"/>
<path stroke-width="20.0" stroke="black" d="M 70 99 65 111"/>
<path stroke-width="0.5" stroke="black" d="M 70 99 42 77"/>
<path stroke-width="20.0" stroke="black" d="M 20 82 42 77"/>
<path stroke-width="0.5" stroke="black" d="M 42 77 70 99"/>
<path stroke-width="0.5" stroke="black" d="M 393 308 374 293"/>
<path stroke-width="20.0" stroke="black" d="M 393 308 396 320"/>
<circle cx="79" cy="20" r="7.0" style="fill:blue;stroke:black;stroke-width:1.0"/>
<circle cx="82" cy="29" r="7.0" style="fill:blue;stroke:black;stroke-width:1.0"/>
<circle cx="138" cy="29" r="7.0" style="fill:red;stroke:black;stroke-width:1.0"/>
<circle cx="125" cy="40" r="7.0" style="fill:red;stroke:black;stroke-width:1.0"/>
<circle cx="127" cy="103" r="7.0" style="fill:green;stroke:black;stroke-width:1.0"/>
<circle cx="116" cy="93" r="7.0" style="fill:green;stroke:black;stroke-width:1.0"/>
<circle cx="65" cy="111" r="7.0" style="fill:orange;stroke:black;stroke-width:1.0"/>
<circle cx="70" cy="99" r="7.0" style="fill:orange;stroke:black;stroke-width:1.0"/>
<circle cx="20" cy="82" r="7.0" style="fill:purple;stroke:black;stroke-width:1.0"/>
<circle cx="42" cy="77" r="7.0" style="fill:purple;stroke:black;stroke-width:1.0"/>
<circle cx="29" cy="42" r="7.0" style="fill:yellow;stroke:black;stroke-width:1.0"/>
<circle cx="45" cy="49" r="7.0" style="fill:yellow;stroke:black;stroke-width:1.0"/>
<circle cx="160" cy="69" r="7.0" style="fill:fuchsia;stroke:black;stroke-width:1.0"/>
<circle cx="140" cy="67" r="7.0" style="fill:fuchsia;stroke:black;stroke-width:1.0"/>
<circle cx="420" cy="283" r="7.0" style="fill:olive;stroke:black;stroke-width:1.0"/>
<circle cx="405" cy="290" r="7.0" style="fill:olive;stroke:black;stroke-width:1.0"/>
<circle cx="357" cy="289" r="7.0" style="fill:aqua;stroke:black;stroke-width:1.0"/>
<circle cx="374" cy="293" r="7.0" style="fill:aqua;stroke:black;stroke-width:1.0"/>
<circle cx="396" cy="320" r="7.0" style="fill:brown;stroke:black;stroke-width:1.0"/>
<circle cx="393" cy="308" r="7.0" style="fill:brown;stroke:black;stroke-width:1.0"/>
</svg>
