<svg width="440" height="340" xmlns="http://www.w3.org/2000/svg">
<path stroke-width="1" stroke="black" d="M 120 318 112 281"/>
<path stroke-width="1" stroke="black" d="M 138 200 131 103"/>
<path stroke-width="1" stroke="black" d="M 138 200 158 208"/>
<path stroke-width="1" stroke="black" d="M 20 216 39 205"/>
<path stroke-width="1" stroke="black" d="M 39 205 65 283"/>
<path stroke-width="1" stroke="black" d="M 39 205 48 109"/>
<path stroke-width="1" stroke="black" d="M 39 205 20 216"/>
<path stroke-width="1" stroke="black" d="M 391 168 390 211"/>
<path stroke-width="1" stroke="black" d="M 138 200 112 281"/>
<path stroke-width="1" stroke="black" d="M 390 211 391 168"/>
<path stroke-width="1" stroke="black" d="M 390 211 375 260"/>
<path stroke-width="1" stroke="black" d="M 420 287 404 259"/>
<path stroke-width="1" stroke="black" d="M 404 259 390 211"/>
<path stroke-width="1" stroke="black" d="M 404 259 420 287"/>
<path stroke-width="1" stroke="black" d="M 404 259 375 260"/>
<path stroke-width="1" stroke="black" d="M 360 288 375 260"/>
<path stroke-width="1" stroke="black" d="M 375 260 390 211"/>
<path stroke-width="1" stroke="black" d="M 390 211 404 259"/>
<path stroke-width="1" stroke="black" d="M 158 208 138 200"/>
<path stroke-width="1" stroke="black" d="M 131 103 138 200"/>
<path stroke-width="1" stroke="black" d="M 131 103 147 79"/>
<path stroke-width="1" stroke="black" d="M 112 281 120 318"/>
<path stroke-width="1" stroke="black" d="M 112 281 65 283"/>
<path stroke-width="1" stroke="black" d="M 112 281 138 200"/>
<path stroke-width="1" stroke="black" d="M 56 320 65 283"/>
<path stroke-width="1" stroke="black" d="M 65 283 112 281"/>
<path stroke-width="1" stroke="black" d="M 65 283 56 320"/>
<path stroke-width="1" stroke="black" d="M 65 283 39 205"/>
<path stroke-width="1" stroke="black" d="M 32 89 48 109"/>
<path stroke-width="1" stroke="black" d="M 48 109 32 89"/>
<path stroke-width="1" stroke="black" d="M 48 109 89 64"/>
<path stroke-width="1" stroke="black" d="M 48 109 39 205"/>
<path stroke-width="1" stroke="black" d="M 89 20 89 64"/>
<path stroke-width="1" stroke="black" d="M 89 64 48 109"/>
<path stroke-width="1" stroke="black" d="M 89 64 89 20"/>
<path stroke-width="1" stroke="black" d="M 89 64 131 103"/>
<path stroke-width="1" stroke="black" d="M 147 79 131 103"/>
<path stroke-width="1" stroke="black" d="M 131 103 89 64"/>
<path stroke-width="1" stroke="black" d="M 375 260 404 259"/>
<path stroke-width="1" stroke="black" d="M 375 260 360 288"/>
<circle cx="120" cy="318" r="7.0" style="fill:gray;stroke:black;stroke-width:1.0"/>
<circle cx="112" cy="281" r="7.0" style="fill:gray;stroke:black;stroke-width:1.0"/>
<circle cx="56" cy="320" r="7.0" style="fill:gray;stroke:black;stroke-width:1.0"/>
<circle cx="65" cy="283" r="7.0" style="fill:gray;stroke:black;stroke-width:1.0"/>
<circle cx="32" cy="89" r="7.0" style="fill:gray;stroke:black;stroke-width:1.0"/>
<circle cx="48" cy="109" r="7.0" style="fill:gray;stroke:black;stroke-width:1.0"/>
<circle cx="89" cy="20" r="7.0" style="fill:gray;stroke:black;stroke-width:1.0"/>
<circle cx="89" cy="64" r="7.0" style="fill:gray;stroke:black;stroke-width:1.0"/>
<circle cx="147" cy="79" r="7.0" style="fill:gray;stroke:black;stroke-width:1.0"/>
<circle cx="131" cy="103" r="7.0" style="fill:gray;stroke:black;stroke-width:1.0"/>
<circle cx="158" cy="208" r="7.0" style="fill:gray;stroke:black;stroke-width:1.0"/>
<circle cx="138" cy="200" r="7.0" style="fill:gray;stroke:black;stroke-width:1.0"/>
<circle cx="20" cy="216" r="7.0" style="fill:gray;stroke:black;stroke-width:1.0"/>
<circle cx="39" cy="205" r="7.0" style="fill:gray;stroke:black;stroke-width:1.0"/>
<circle cx="391" cy="168" r="7.0" style="fill:gray;stroke:black;stroke-width:1.0"/>
<circle cx="390" cy="211" r="7.0" style="fill:gray;stroke:black;stroke-width:1.0"/>
<circle cx="420" cy="287" r="7.0" style="fill:gray;stroke:black;stroke-width:1.0"/>
<circle cx="404" cy="259" r="7.0" style="fill:gray;stroke:black;stroke-width:1.0"/>
<circle cx="360" cy="288" r="7.0" style="fill:gray;stroke:black;stroke-width:1.0"/>
<circle cx="375" cy="260" r="7.0" style="fill:gray;stroke:black;stroke-width:1.0"/>
</svg>
