<svg width="440" height="340" xmlns="http://www.w3.org/2000/svg">
<path stroke-width="20.0" stroke="black" d="M 138 66 121 70"/>
<path stroke-width="0.5" stroke="black" d="M 116 113 80 134"/>
<path stroke-width="20.0" stroke="black" d="M 116 113 128 125"/>
<path stroke-width="20.0" stroke="black" d="M 45 22 56 37"/>
<path stroke-width="0.5" stroke="black" d="M 56 37 96 36"/>
<path stroke-width="0.5" stroke="black" d="M 56 37 33 73"/>
<path stroke-width="20.0" stroke="black" d="M 56 37 45 22"/>
<path stroke-width="20.0" stroke="black" d="M 393 320 393 303"/>
<path stroke-width="0.5" stroke="black" d="M 116 113 121 70"/>
<path stroke-width="20.0" stroke="black" d="M 393 303 393 320"/>
<path stroke-width="0.5" stroke="black" d="M 393 303 406 279"/>
<path stroke-width="20.0" stroke="black" d="M 364 273 379 280"/>
<path stroke-width="0.5" stroke="black" d="M 379 280 393 303"/>
<path stroke-width="20.0" stroke="black" d="M 379 280 364 273"/>
<path stroke-width="0.5" stroke="black" d="M 379 280 406 279"/>
<path stroke-width="20.0" stroke="black" d="M 420 270 406 279"/>
<path stroke-width="0.5" stroke="black" d="M 406 279 393 303"/>
<path stroke-width="0.5" stroke="black" d="M 393 303 379 280"/>
<path stroke-width="20.0" stroke="black" d="M 128 125 116 113"/>
<path stroke-width="0.5" stroke="black" d="M 80 134 116 113"/>
<path stroke-width="20.0" stroke="black" d="M 80 134 80 152"/>
<path stroke-width="20.0" stroke="black" d="M 121 70 138 66"/>
<path stroke-width="0.5" stroke="black" d="M 121 70 96 36"/>
<path stroke-width="0.5" stroke="black" d="M 121 70 116 113"/>
<path stroke-width="20.0" stroke="black" d="M 102 20 96 36"/>
<path stroke-width="0.5" stroke="black" d="M 96 36 121 70"/>
<path stroke-width="20.0" stroke="black" d="M 96 36 102 20"/>
<path stroke-width="0.5" stroke="black" d="M 96 36 56 37"/>
<path stroke-width="20.0" stroke="black" d="M 20 69 33 73"/>
<path stroke-width="20.0" stroke="black" d="M 33 73 20 69"/>
<path stroke-width="0.5" stroke="black" d="M 33 73 46 114"/>
<path stroke-width="0.5" stroke="black" d="M 33 73 56 37"/>
<path stroke-width="20.0" stroke="black" d="M 35 126 46 114"/>
<path stroke-width="0.5" stroke="black" d="M 46 114 33 73"/>
<path stroke-width="20.0" stroke="black" d="M 46 114 35 126"/>
<path stroke-width="0.5" stroke="black" d="M 46 114 80 134"/>
<path stroke-width="20.0" stroke="black" d="M 80 152 80 134"/>
<path stroke-width="0.5" stroke="black" d="M 80 134 46 114"/>
<path stroke-width="0.5" stroke="black" d="M 406 279 379 280"/>
<path stroke-width="20.0" stroke="black" d="M 406 279 420 270"/>
<circle cx="138" cy="66" r="7.0" style="fill:blue;stroke:black;stroke-width:1.0"/>
<circle cx="121" cy="70" r="7.0" style="fill:blue;stroke:black;stroke-width:1.0"/>
<circle cx="102" cy="20" r="7.0" style="fill:red;stroke:black;stroke-width:1.0"/>
<circle cx="96" cy="36" r="7.0" style="fill:red;stroke:black;stroke-width:1.0"/>
<circle cx="20" cy="69" r="7.0" style="fill:green;stroke:black;stroke-width:1.0"/>
<circle cx="33" cy="73" r="7.0" style="fill:green;stroke:black;stroke-width:1.0"/>
<circle cx="35" cy="126" r="7.0" style="fill:orange;stroke:black;stroke-width:1.0"/>
<circle cx="46" cy="114" r="7.0" style="fill:orange;stroke:black;stroke-width:1.0"/>
<circle cx="80" cy="152" r="7.0" style="fill:purple;stroke:black;stroke-width:1.0"/>
<circle cx="80" cy="134" r="7.0" style="fill:purple;stroke:black;stroke-width:1.0"/>
<circle cx="128" cy="125" r="7.0" style="fill:yellow;stroke:black;stroke-width:1.0"/>
<circle cx="116" cy="113" r="7.0" style="fill:yellow;stroke:black;stroke-width:1.0"/>
<circle cx="45" cy="22" r="7.0" style="fill:fuchsia;stroke:black;stroke-width:1.0"/>
<circle cx="56" cy="37" r="7.0" style="fill:fuchsia;stroke:black;stroke-width:1.0"/>
<circle cx="393" cy="320" r="7.0" style="fill:olive;stroke:black;stroke-width:1.0"/>
<circle cx="393" cy="303" r="7.0" style="fill:olive;stroke:black;stroke-width:1.0"/>
<circle cx="364" cy="273" r="7.0" style="fill:aqua;stroke:black;stroke-width:1.0"/>
<circle cx="379" cy="280" r="7.0" style="fill:aqua;stroke:black;stroke-width:1.0"/>
<circle cx="420" cy="270" r="7.0" style="fill:brown;stroke:black;stroke-width:1.0"/>
<circle cx="406" cy="279" r="7.0" style="fill:brown;stroke:black;stroke-width:1.0"/>
</svg>
