<svg width="440" height="340" xmlns="http://www.w3.org/2000/svg">
<path stroke-width="1" stroke="black" d="M 374 190 303 170"/>
<path stroke-width="1" stroke="black" d="M 134 179 236 127"/>
<path stroke-width="1" stroke="black" d="M 134 179 303 170"/>
<path stroke-width="1" stroke="black" d="M 66 222 134 179"/>
<path stroke-width="1" stroke="black" d="M 333 122 258 213"/>
<path stroke-width="1" stroke="black" d="M 333 122 118 145"/>
<path stroke-width="1" stroke="black" d="M 333 122 134 179"/>
<path stroke-width="1" stroke="black" d="M 333 122 420 113"/>
<path stroke-width="1" stroke="black" d="M 333 122 115 80"/>
<path stroke-width="1" stroke="black" d="M 333 122 199 62"/>
<path stroke-width="1" stroke="black" d="M 333 122 291 67"/>
<path stroke-width="1" stroke="black" d="M 333 122 224 176"/>
<path stroke-width="1" stroke="black" d="M 333 122 236 127"/>
<path stroke-width="1" stroke="black" d="M 333 122 303 170"/>
<path stroke-width="1" stroke="black" d="M 420 113 333 122"/>
<path stroke-width="1" stroke="black" d="M 115 80 258 213"/>
<path stroke-width="1" stroke="black" d="M 115 80 118 145"/>
<path stroke-width="1" stroke="black" d="M 115 80 134 179"/>
<path stroke-width="1" stroke="black" d="M 115 80 333 122"/>
<path stroke-width="1" stroke="black" d="M 115 80 95 47"/>
<path stroke-width="1" stroke="black" d="M 115 80 199 62"/>
<path stroke-width="1" stroke="black" d="M 115 80 291 67"/>
<path stroke-width="1" stroke="black" d="M 115 80 224 176"/>
<path stroke-width="1" stroke="black" d="M 115 80 236 127"/>
<path stroke-width="1" stroke="black" d="M 134 179 224 176"/>
<path stroke-width="1" stroke="black" d="M 134 179 291 67"/>
<path stroke-width="1" stroke="black" d="M 134 179 199 62"/>
<path stroke-width="1" stroke="black" d="M 134 179 115 80"/>
<path stroke-width="1" stroke="black" d="M 258 213 134 179"/>
<path stroke-width="1" stroke="black" d="M 258 213 333 122"/>
<path stroke-width="1" stroke="black" d="M 258 213 115 80"/>
<path stroke-width="1" stroke="black" d="M 258 213 199 62"/>
<path stroke-width="1" stroke="black" d="M 258 213 291 67"/>
<path stroke-width="1" stroke="black" d="M 258 213 224 176"/>
<path stroke-width="1" stroke="black" d="M 258 213 236 127"/>
<path stroke-width="1" stroke="black" d="M 258 213 303 170"/>
<path stroke-width="1" stroke="black" d="M 266 320 258 213"/>
<path stroke-width="1" stroke="black" d="M 118 145 258 213"/>
<path stroke-width="1" stroke="black" d="M 118 145 20 157"/>
<path stroke-width="1" stroke="black" d="M 115 80 303 170"/>
<path stroke-width="1" stroke="black" d="M 118 145 134 179"/>
<path stroke-width="1" stroke="black" d="M 118 145 115 80"/>
<path stroke-width="1" stroke="black" d="M 118 145 199 62"/>
<path stroke-width="1" stroke="black" d="M 118 145 291 67"/>
<path stroke-width="1" stroke="black" d="M 118 145 224 176"/>
<path stroke-width="1" stroke="black" d="M 118 145 236 127"/>
<path stroke-width="1" stroke="black" d="M 118 145 303 170"/>
<path stroke-width="1" stroke="black" d="M 20 157 118 145"/>
<path stroke-width="1" stroke="black" d="M 134 179 258 213"/>
<path stroke-width="1" stroke="black" d="M 134 179 118 145"/>
<path stroke-width="1" stroke="black" d="M 134 179 66 222"/>
<path stroke-width="1" stroke="black" d="M 134 179 333 122"/>
<path stroke-width="1" stroke="black" d="M 118 145 333 122"/>
<path stroke-width="1" stroke="black" d="M 95 47 115 80"/>
<path stroke-width="1" stroke="black" d="M 199 62 258 213"/>
<path stroke-width="1" stroke="black" d="M 199 62 118 145"/>
<path stroke-width="1" stroke="black" d="M 224 176 236 127"/>
<path stroke-width="1" stroke="black" d="M 224 176 303 170"/>
<path stroke-width="1" stroke="black" d="M 191 212 224 176"/>
<path stroke-width="1" stroke="black" d="M 236 127 258 213"/>
<path stroke-width="1" stroke="black" d="M 236 127 118 145"/>
<path stroke-width="1" stroke="black" d="M 236 127 134 179"/>
<path stroke-width="1" stroke="black" d="M 236 127 333 122"/>
<path stroke-width="1" stroke="black" d="M 236 127 115 80"/>
<path stroke-width="1" stroke="black" d="M 236 127 199 62"/>
<path stroke-width="1" stroke="black" d="M 236 127 291 67"/>
<path stroke-width="1" stroke="black" d="M 236 127 224 176"/>
<path stroke-width="1" stroke="black" d="M 224 176 191 212"/>
<path stroke-width="1" stroke="black" d="M 236 127 233 126"/>
<path stroke-width="1" stroke="black" d="M 233 126 236 127"/>
<path stroke-width="1" stroke="black" d="M 303 170 258 213"/>
<path stroke-width="1" stroke="black" d="M 303 170 118 145"/>
<path stroke-width="1" stroke="black" d="M 303 170 134 179"/>
<path stroke-width="1" stroke="black" d="M 303 170 333 122"/>
<path stroke-width="1" stroke="black" d="M 303 170 115 80"/>
<path stroke-width="1" stroke="black" d="M 303 170 199 62"/>
<path stroke-width="1" stroke="black" d="M 303 170 291 67"/>
<path stroke-width="1" stroke="black" d="M 303 170 224 176"/>
<path stroke-width="1" stroke="black" d="M 303 170 236 127"/>
<path stroke-width="1" stroke="black" d="M 303 170 374 190"/>
<path stroke-width="1" stroke="black" d="M 236 127 303 170"/>
<path stroke-width="1" stroke="black" d="M 258 213 118 145"/>
<path stroke-width="1" stroke="black" d="M 224 176 291 67"/>
<path stroke-width="1" stroke="black" d="M 224 176 115 80"/>
<path stroke-width="1" stroke="black" d="M 199 62 134 179"/>
<path stroke-width="1" stroke="black" d="M 199 62 333 122"/>
<path stroke-width="1" stroke="black" d="M 199 62 115 80"/>
<path stroke-width="1" stroke="black" d="M 199 62 191 20"/>
<path stroke-width="1" stroke="black" d="M 199 62 291 67"/>
<path stroke-width="1" stroke="black" d="M 199 62 224 176"/>
<path stroke-width="1" stroke="black" d="M 199 62 236 127"/>
<path stroke-width="1" stroke="black" d="M 199 62 303 170"/>
<path stroke-width="1" stroke="black" d="M 191 20 199 62"/>
<path stroke-width="1" stroke="black" d="M 291 67 258 213"/>
<path stroke-width="1" stroke="black" d="M 291 67 118 145"/>
<path stroke-width="1" stroke="black" d="M 224 176 199 62"/>
<path stroke-width="1" stroke="black" d="M 291 67 134 179"/>
<path stroke-width="1" stroke="black" d="M 291 67 115 80"/>
<path stroke-width="1" stroke="black" d="M 291 67 199 62"/>
<path stroke-width="1" stroke="black" d="M 291 67 310 32"/>
<path stroke-width="1" stroke="black" d="M 291 67 224 176"/>
<path stroke-width="1" stroke="black" d="M 291 67 236 127"/>
<path stroke-width="1" stroke="black" d="M 291 67 303 170"/>
<path stroke-width="1" stroke="black" d="M 310 32 291 67"/>
<path stroke-width="1" stroke="black" d="M 224 176 258 213"/>
<path stroke-width="1" stroke="black" d="M 224 176 118 145"/>
<path stroke-width="1" stroke="black" d="M 224 176 134 179"/>
<path stroke-width="1" stroke="black" d="M 224 176 333 122"/>
<path stroke-width="1" stroke="black" d="M 291 67 333 122"/>
<path stroke-width="1" stroke="black" d="M 258 213 266 320"/>
<circle cx="374" cy="190" r="7.0" style="fill:gray;stroke:black;stroke-width:1.0"/>
<circle cx="303" cy="170" r="7.0" style="fill:gray;stroke:black;stroke-width:1.0"/>
<circle cx="233" cy="126" r="7.0" style="fill:gray;stroke:black;stroke-width:1.0"/>
<circle cx="236" cy="127" r="7.0" style="fill:gray;stroke:black;stroke-width:1.0"/>
<circle cx="191" cy="212" r="7.0" style="fill:gray;stroke:black;stroke-width:1.0"/>
<circle cx="224" cy="176" r="7.0" style="fill:gray;stroke:black;stroke-width:1.0"/>
<circle cx="310" cy="32" r="7.0" style="fill:gray;stroke:black;stroke-width:1.0"/>
<circle cx="291" cy="67" r="7.0" style="fill:gray;stroke:black;stroke-width:1.0"/>
<circle cx="191" cy="20" r="7.0" style="fill:gray;stroke:black;stroke-width:1.0"/>
<circle cx="199" cy="62" r="7.0" style="fill:gray;stroke:black;stroke-width:1.0"/>
<circle cx="95" cy="47" r="7.0" style="fill:gray;stroke:black;stroke-width:1.0"/>
<circle cx="115" cy="80" r="7.0" style="fill:gray;stroke:black;stroke-width:1.0"/>
<circle cx="420" cy="113" r="7.0" style="fill:gray;stroke:black;stroke-width:1.0"/>
<circle cx="333" cy="122" r="7.0" style="fill:gray;stroke:black;stroke-width:1.0"/>
<circle cx="66" cy="222" r="7.0" style="fill:gray;stroke:black;stroke-width:1.0"/>
<circle cx="134" cy="179" r="7.0" style="fill:gray;stroke:black;stroke-width:1.0"/>
<circle cx="20" cy="157" r="7.0" style="fill:gray;stroke:black;stroke-width:1.0"/>
<circle cx="118" cy="145" r="7.0" style="fill:gray;stroke:black;stroke-width:1.0"/>
<circle cx="266" cy="320" r="7.0" style="fill:gray;stroke:black;stroke-width:1.0"/>
<circle cx="258" cy="213" r="7.0" style="fill:gray;stroke:black;stroke-width:1.0"/>
</svg>
