<svg width="440" height="340" xmlns="http://www.w3.org/2000/svg">
<path stroke-width="20.0" stroke="black" d="M 193 22 194 67"/>
<path stroke-width="1.25" stroke="black" d="M 156 252 206 182"/>
<path stroke-width="0.5" stroke="black" d="M 156 252 194 67"/>
<path stroke-width="8.0" stroke="black" d="M 131 320 156 252"/>
<path stroke-width="0.5" stroke="black" d="M 243 241 281 93"/>
<path stroke-width="0.5" stroke="black" d="M 243 241 274 129"/>
<path stroke-width="0.5" stroke="black" d="M 243 241 156 252"/>
<path stroke-width="10.0" stroke="black" d="M 243 241 271 306"/>
<path stroke-width="0.5" stroke="black" d="M 243 241 293 197"/>
<path stroke-width="0.5" stroke="black" d="M 243 241 76 207"/>
<path stroke-width="0.5" stroke="black" d="M 243 241 95 157"/>
<path stroke-width="1.25" stroke="black" d="M 243 241 119 109"/>
<path stroke-width="0.5" stroke="black" d="M 243 241 206 182"/>
<path stroke-width="0.5" stroke="black" d="M 243 241 194 67"/>
<path stroke-width="10.0" stroke="black" d="M 271 306 243 241"/>
<path stroke-width="0.5" stroke="black" d="M 293 197 281 93"/>
<path stroke-width="0.5" stroke="black" d="M 293 197 274 129"/>
<path stroke-width="0.5" stroke="black" d="M 293 197 156 252"/>
<path stroke-width="0.5" stroke="black" d="M 293 197 243 241"/>
<path stroke-width="12.0" stroke="black" d="M 293 197 343 236"/>
<path stroke-width="0.5" stroke="black" d="M 293 197 76 207"/>
<path stroke-width="1.25" stroke="black" d="M 293 197 95 157"/>
<path stroke-width="0.5" stroke="black" d="M 293 197 119 109"/>
<path stroke-width="0.5" stroke="black" d="M 293 197 206 182"/>
<path stroke-width="0.5" stroke="black" d="M 156 252 119 109"/>
<path stroke-width="0.5" stroke="black" d="M 156 252 95 157"/>
<path stroke-width="0.5" stroke="black" d="M 156 252 76 207"/>
<path stroke-width="0.5" stroke="black" d="M 156 252 293 197"/>
<path stroke-width="0.5" stroke="black" d="M 281 93 156 252"/>
<path stroke-width="0.5" stroke="black" d="M 281 93 243 241"/>
<path stroke-width="0.5" stroke="black" d="M 281 93 293 197"/>
<path stroke-width="0.5" stroke="black" d="M 281 93 76 207"/>
<path stroke-width="0.5" stroke="black" d="M 281 93 95 157"/>
<path stroke-width="0.5" stroke="black" d="M 281 93 119 109"/>
<path stroke-width="0.5" stroke="black" d="M 281 93 206 182"/>
<path stroke-width="0.5" stroke="black" d="M 281 93 194 67"/>
<path stroke-width="2.0" stroke="black" d="M 420 20 281 93"/>
<path stroke-width="0.5" stroke="black" d="M 274 129 281 93"/>
<path stroke-width="7.0" stroke="black" d="M 274 129 348 88"/>
<path stroke-width="0.5" stroke="black" d="M 293 197 194 67"/>
<path stroke-width="0.5" stroke="black" d="M 274 129 156 252"/>
<path stroke-width="0.5" stroke="black" d="M 274 129 293 197"/>
<path stroke-width="0.5" stroke="black" d="M 274 129 76 207"/>
<path stroke-width="0.5" stroke="black" d="M 274 129 95 157"/>
<path stroke-width="0.5" stroke="black" d="M 274 129 119 109"/>
<path stroke-width="0.5" stroke="black" d="M 274 129 206 182"/>
<path stroke-width="1.25" stroke="black" d="M 274 129 194 67"/>
<path stroke-width="7.0" stroke="black" d="M 348 88 274 129"/>
<path stroke-width="0.5" stroke="black" d="M 156 252 281 93"/>
<path stroke-width="0.5" stroke="black" d="M 156 252 274 129"/>
<path stroke-width="8.0" stroke="black" d="M 156 252 131 320"/>
<path stroke-width="0.5" stroke="black" d="M 156 252 243 241"/>
<path stroke-width="0.5" stroke="black" d="M 274 129 243 241"/>
<path stroke-width="12.0" stroke="black" d="M 343 236 293 197"/>
<path stroke-width="0.5" stroke="black" d="M 76 207 281 93"/>
<path stroke-width="0.5" stroke="black" d="M 76 207 274 129"/>
<path stroke-width="0.5" stroke="black" d="M 119 109 206 182"/>
<path stroke-width="0.5" stroke="black" d="M 119 109 194 67"/>
<path stroke-width="17.0" stroke="black" d="M 105 63 119 109"/>
<path stroke-width="0.5" stroke="black" d="M 206 182 281 93"/>
<path stroke-width="0.5" stroke="black" d="M 206 182 274 129"/>
<path stroke-width="1.25" stroke="black" d="M 206 182 156 252"/>
<path stroke-width="0.5" stroke="black" d="M 206 182 243 241"/>
<path stroke-width="0.5" stroke="black" d="M 206 182 293 197"/>
<path stroke-width="0.5" stroke="black" d="M 206 182 76 207"/>
<path stroke-width="0.5" stroke="black" d="M 206 182 95 157"/>
<path stroke-width="0.5" stroke="black" d="M 206 182 119 109"/>
<path stroke-width="17.0" stroke="black" d="M 119 109 105 63"/>
<path stroke-width="19.0" stroke="black" d="M 206 182 191 203"/>
<path stroke-width="19.0" stroke="black" d="M 191 203 206 182"/>
<path stroke-width="0.5" stroke="black" d="M 194 67 281 93"/>
<path stroke-width="1.25" stroke="black" d="M 194 67 274 129"/>
<path stroke-width="0.5" stroke="black" d="M 194 67 156 252"/>
<path stroke-width="0.5" stroke="black" d="M 194 67 243 241"/>
<path stroke-width="0.5" stroke="black" d="M 194 67 293 197"/>
<path stroke-width="0.5" stroke="black" d="M 194 67 76 207"/>
<path stroke-width="0.5" stroke="black" d="M 194 67 95 157"/>
<path stroke-width="0.5" stroke="black" d="M 194 67 119 109"/>
<path stroke-width="0.5" stroke="black" d="M 194 67 206 182"/>
<path stroke-width="20.0" stroke="black" d="M 194 67 193 22"/>
<path stroke-width="0.5" stroke="black" d="M 206 182 194 67"/>
<path stroke-width="0.5" stroke="black" d="M 281 93 274 129"/>
<path stroke-width="0.5" stroke="black" d="M 119 109 95 157"/>
<path stroke-width="0.5" stroke="black" d="M 119 109 293 197"/>
<path stroke-width="0.5" stroke="black" d="M 76 207 156 252"/>
<path stroke-width="0.5" stroke="black" d="M 76 207 243 241"/>
<path stroke-width="0.5" stroke="black" d="M 76 207 293 197"/>
<path stroke-width="11.0" stroke="black" d="M 76 207 20 249"/>
<path stroke-width="0.5" stroke="black" d="M 76 207 95 157"/>
<path stroke-width="0.5" stroke="black" d="M 76 207 119 109"/>
<path stroke-width="0.5" stroke="black" d="M 76 207 206 182"/>
<path stroke-width="0.5" stroke="black" d="M 76 207 194 67"/>
<path stroke-width="11.0" stroke="black" d="M 20 249 76 207"/>
<path stroke-width="0.5" stroke="black" d="M 95 157 281 93"/>
<path stroke-width="0.5" stroke="black" d="M 95 157 274 129"/>
<path stroke-width="0.5" stroke="black" d="M 119 109 76 207"/>
<path stroke-width="0.5" stroke="black" d="M 95 157 156 252"/>
<path stroke-width="1.25" stroke="black" d="M 95 157 293 197"/>
<path stroke-width="0.5" stroke="black" d="M 95 157 76 207"/>
<path stroke-width="15.0" stroke="black" d="M 95 157 48 137"/>
<path stroke-width="0.5" stroke="black" d="M 95 157 119 109"/>
<path stroke-width="0.5" stroke="black" d="M 95 157 206 182"/>
<path stroke-width="0.5" stroke="black" d="M 95 157 194 67"/>
<path stroke-width="15.0" stroke="black" d="M 48 137 95 157"/>
<path stroke-width="0.5" stroke="black" d="M 119 109 281 93"/>
<path stroke-width="0.5" stroke="black" d="M 119 109 274 129"/>
<path stroke-width="0.5" stroke="black" d="M 119 109 156 252"/>
<path stroke-width="1.25" stroke="black" d="M 119 109 243 241"/>
<path stroke-width="0.5" stroke="black" d="M 95 157 243 241"/>
<path stroke-width="2.0" stroke="black" d="M 281 93 420 20"/>
<circle cx="193" cy="22" r="7.0" style="fill:gray;stroke:black;stroke-width:1.0"/>
<circle cx="194" cy="67" r="7.0" style="fill:gray;stroke:black;stroke-width:1.0"/>
<circle cx="191" cy="203" r="7.0" style="fill:gray;stroke:black;stroke-width:1.0"/>
<circle cx="206" cy="182" r="7.0" style="fill:gray;stroke:black;stroke-width:1.0"/>
<circle cx="105" cy="63" r="7.0" style="fill:gray;stroke:black;stroke-width:1.0"/>
<circle cx="119" cy="109" r="7.0" style="fill:gray;stroke:black;stroke-width:1.0"/>
<circle cx="48" cy="137" r="7.0" style="fill:gray;stroke:black;stroke-width:1.0"/>
<circle cx="95" cy="157" r="7.0" style="fill:gray;stroke:black;stroke-width:1.0"/>
<circle cx="20" cy="249" r="7.0" style="fill:gray;stroke:black;stroke-width:1.0"/>
<circle cx="76" cy="207" r="7.0" style="fill:gray;stroke:black;stroke-width:1.0"/>
<circle cx="343" cy="236" r="7.0" style="fill:gray;stroke:black;stroke-width:1.0"/>
<circle cx="293" cy="197" r="7.0" style="fill:gray;stroke:black;stroke-width:1.0"/>
<circle cx="271" cy="306" r="7.0" style="fill:gray;stroke:black;stroke-width:1.0"/>
<circle cx="243" cy="241" r="7.0" style="fill:gray;stroke:black;stroke-width:1.0"/>
<circle cx="131" cy="320" r="7.0" style="fill:gray;stroke:black;stroke-width:1.0"/>
<circle cx="156" cy="252" r="7.0" style="fill:gray;stroke:black;stroke-width:1.0"/>
<circle cx="348" cy="88" r="7.0" style="fill:gray;stroke:black;stroke-width:1.0"/>
<circle cx="274" cy="129" r="7.0" style="fill:gray;stroke:black;stroke-width:1.0"/>
<circle cx="420" cy="20" r="7.0" style="fill:gray;stroke:black;stroke-width:1.0"/>
<circle cx="281" cy="93" r="7.0" style="fill:gray;stroke:black;stroke-width:1.0"/>
</svg>
