<svg width="440" height="340" xmlns="http://www.w3.org/2000/svg">
<path stroke-width="1" stroke="black" d="M 112 271 234 275"/>
<path stroke-width="1" stroke="black" d="M 322 20 420 20"/>
<path stroke-width="1" stroke="black" d="M 322 20 370 31"/>
<path stroke-width="1" stroke="black" d="M 370 31 420 20"/>
<path stroke-width="1" stroke="black" d="M 370 31 322 20"/>
<path stroke-width="1" stroke="black" d="M 297 293 250 313"/>
<path stroke-width="1" stroke="black" d="M 297 293 234 275"/>
<path stroke-width="1" stroke="black" d="M 20 286 30 307"/>
<path stroke-width="1" stroke="black" d="M 20 286 112 271"/>
<path stroke-width="1" stroke="black" d="M 30 307 20 286"/>
<path stroke-width="1" stroke="black" d="M 30 307 131 320"/>
<path stroke-width="1" stroke="black" d="M 131 320 30 307"/>
<path stroke-width="1" stroke="black" d="M 131 320 250 313"/>
<path stroke-width="1" stroke="black" d="M 250 313 297 293"/>
<path stroke-width="1" stroke="black" d="M 250 313 131 320"/>
<path stroke-width="1" stroke="black" d="M 234 275 297 293"/>
<path stroke-width="1" stroke="black" d="M 234 275 112 271"/>
<path stroke-width="1" stroke="black" d="M 112 271 20 286"/>
<path stroke-width="1" stroke="black" d="M 420 20 370 31"/>
<path stroke-width="1" stroke="black" d="M 420 20 322 20"/>
<circle cx="112" cy="271" r="20.0" style="fill:gray;stroke:black;stroke-width:1.0"/>
<circle cx="234" cy="275" r="20.0" style="fill:gray;stroke:black;stroke-width:1.0"/>
<circle cx="250" cy="313" r="20.0" style="fill:gray;stroke:black;stroke-width:1.0"/>
<circle cx="131" cy="320" r="20.0" style="fill:gray;stroke:black;stroke-width:1.0"/>
<circle cx="30" cy="307" r="20.0" style="fill:gray;stroke:black;stroke-width:1.0"/>
<circle cx="20" cy="286" r="20.0" style="fill:gray;stroke:black;stroke-width:1.0"/>
<circle cx="297" cy="293" r="20.0" style="fill:gray;stroke:black;stroke-width:1.0"/>
<circle cx="370" cy="31" r="20.0" style="fill:gray;stroke:black;stroke-width:1.0"/>
<circle cx="322" cy="20" r="20.0" style="fill:gray;stroke:black;stroke-width:1.0"/>
<circle cx="420" cy="20" r="20.0" style="fill:gray;stroke:black;stroke-width:1.0"/>
</svg>
