<svg width="440" height="340" xmlns="http://www.w3.org/2000/svg">
<path stroke-width="1" stroke="black" d="M 420 241 293 212"/>
<path stroke-width="1" stroke="black" d="M 143 210 231 103"/>
<path stroke-width="1" stroke="black" d="M 143 210 165 126"/>
<path stroke-width="1" stroke="black" d="M 143 210 52 226"/>
<path stroke-width="1" stroke="black" d="M 143 210 288 140"/>
<path stroke-width="1" stroke="black" d="M 143 210 136 143"/>
<path stroke-width="1" stroke="black" d="M 143 210 235 258"/>
<path stroke-width="1" stroke="black" d="M 143 210 260 108"/>
<path stroke-width="1" stroke="black" d="M 143 210 181 101"/>
<path stroke-width="1" stroke="black" d="M 383 121 288 140"/>
<path stroke-width="1" stroke="black" d="M 288 140 293 212"/>
<path stroke-width="1" stroke="black" d="M 288 140 275 175"/>
<path stroke-width="1" stroke="black" d="M 288 140 153 244"/>
<path stroke-width="1" stroke="black" d="M 143 210 216 178"/>
<path stroke-width="1" stroke="black" d="M 288 140 267 236"/>
<path stroke-width="1" stroke="black" d="M 288 140 187 266"/>
<path stroke-width="1" stroke="black" d="M 288 140 216 178"/>
<path stroke-width="1" stroke="black" d="M 288 140 231 103"/>
<path stroke-width="1" stroke="black" d="M 288 140 165 126"/>
<path stroke-width="1" stroke="black" d="M 288 140 143 210"/>
<path stroke-width="1" stroke="black" d="M 288 140 383 121"/>
<path stroke-width="1" stroke="black" d="M 288 140 136 143"/>
<path stroke-width="1" stroke="black" d="M 288 140 235 258"/>
<path stroke-width="1" stroke="black" d="M 288 140 260 108"/>
<path stroke-width="1" stroke="black" d="M 288 140 181 101"/>
<path stroke-width="1" stroke="black" d="M 47 116 136 143"/>
<path stroke-width="1" stroke="black" d="M 136 143 293 212"/>
<path stroke-width="1" stroke="black" d="M 288 140 121 185"/>
<path stroke-width="1" stroke="black" d="M 136 143 275 175"/>
<path stroke-width="1" stroke="black" d="M 143 210 187 266"/>
<path stroke-width="1" stroke="black" d="M 143 210 267 236"/>
<path stroke-width="1" stroke="black" d="M 231 103 143 210"/>
<path stroke-width="1" stroke="black" d="M 231 103 288 140"/>
<path stroke-width="1" stroke="black" d="M 231 103 136 143"/>
<path stroke-width="1" stroke="black" d="M 231 103 235 258"/>
<path stroke-width="1" stroke="black" d="M 231 103 260 108"/>
<path stroke-width="1" stroke="black" d="M 231 103 181 101"/>
<path stroke-width="1" stroke="black" d="M 90 83 165 126"/>
<path stroke-width="1" stroke="black" d="M 165 126 293 212"/>
<path stroke-width="1" stroke="black" d="M 165 126 275 175"/>
<path stroke-width="1" stroke="black" d="M 165 126 153 244"/>
<path stroke-width="1" stroke="black" d="M 165 126 267 236"/>
<path stroke-width="1" stroke="black" d="M 165 126 121 185"/>
<path stroke-width="1" stroke="black" d="M 143 210 121 185"/>
<path stroke-width="1" stroke="black" d="M 165 126 187 266"/>
<path stroke-width="1" stroke="black" d="M 165 126 231 103"/>
<path stroke-width="1" stroke="black" d="M 165 126 90 83"/>
<path stroke-width="1" stroke="black" d="M 165 126 143 210"/>
<path stroke-width="1" stroke="black" d="M 165 126 288 140"/>
<path stroke-width="1" stroke="black" d="M 165 126 136 143"/>
<path stroke-width="1" stroke="black" d="M 165 126 235 258"/>
<path stroke-width="1" stroke="black" d="M 165 126 260 108"/>
<path stroke-width="1" stroke="black" d="M 165 126 181 101"/>
<path stroke-width="1" stroke="black" d="M 52 226 143 210"/>
<path stroke-width="1" stroke="black" d="M 143 210 293 212"/>
<path stroke-width="1" stroke="black" d="M 143 210 275 175"/>
<path stroke-width="1" stroke="black" d="M 143 210 153 244"/>
<path stroke-width="1" stroke="black" d="M 165 126 216 178"/>
<path stroke-width="1" stroke="black" d="M 231 103 165 126"/>
<path stroke-width="1" stroke="black" d="M 136 143 153 244"/>
<path stroke-width="1" stroke="black" d="M 136 143 121 185"/>
<path stroke-width="1" stroke="black" d="M 260 108 267 236"/>
<path stroke-width="1" stroke="black" d="M 260 108 121 185"/>
<path stroke-width="1" stroke="black" d="M 260 108 187 266"/>
<path stroke-width="1" stroke="black" d="M 260 108 216 178"/>
<path stroke-width="1" stroke="black" d="M 260 108 231 103"/>
<path stroke-width="1" stroke="black" d="M 260 108 165 126"/>
<path stroke-width="1" stroke="black" d="M 260 108 143 210"/>
<path stroke-width="1" stroke="black" d="M 260 108 288 140"/>
<path stroke-width="1" stroke="black" d="M 260 108 136 143"/>
<path stroke-width="1" stroke="black" d="M 260 108 235 258"/>
<path stroke-width="1" stroke="black" d="M 260 108 327 67"/>
<path stroke-width="1" stroke="black" d="M 260 108 181 101"/>
<path stroke-width="1" stroke="black" d="M 260 108 153 244"/>
<path stroke-width="1" stroke="black" d="M 140 20 181 101"/>
<path stroke-width="1" stroke="black" d="M 181 101 275 175"/>
<path stroke-width="1" stroke="black" d="M 181 101 153 244"/>
<path stroke-width="1" stroke="black" d="M 181 101 267 236"/>
<path stroke-width="1" stroke="black" d="M 181 101 121 185"/>
<path stroke-width="1" stroke="black" d="M 181 101 187 266"/>
<path stroke-width="1" stroke="black" d="M 181 101 216 178"/>
<path stroke-width="1" stroke="black" d="M 181 101 231 103"/>
<path stroke-width="1" stroke="black" d="M 181 101 165 126"/>
<path stroke-width="1" stroke="black" d="M 181 101 143 210"/>
<path stroke-width="1" stroke="black" d="M 181 101 288 140"/>
<path stroke-width="1" stroke="black" d="M 181 101 136 143"/>
<path stroke-width="1" stroke="black" d="M 181 101 235 258"/>
<path stroke-width="1" stroke="black" d="M 181 101 293 212"/>
<path stroke-width="1" stroke="black" d="M 136 143 267 236"/>
<path stroke-width="1" stroke="black" d="M 260 108 275 175"/>
<path stroke-width="1" stroke="black" d="M 327 67 260 108"/>
<path stroke-width="1" stroke="black" d="M 136 143 187 266"/>
<path stroke-width="1" stroke="black" d="M 136 143 216 178"/>
<path stroke-width="1" stroke="black" d="M 136 143 231 103"/>
<path stroke-width="1" stroke="black" d="M 136 143 165 126"/>
<path stroke-width="1" stroke="black" d="M 136 143 143 210"/>
<path stroke-width="1" stroke="black" d="M 136 143 288 140"/>
<path stroke-width="1" stroke="black" d="M 136 143 47 116"/>
<path stroke-width="1" stroke="black" d="M 136 143 235 258"/>
<path stroke-width="1" stroke="black" d="M 136 143 260 108"/>
<path stroke-width="1" stroke="black" d="M 136 143 181 101"/>
<path stroke-width="1" stroke="black" d="M 277 315 235 258"/>
<path stroke-width="1" stroke="black" d="M 235 258 293 212"/>
<path stroke-width="1" stroke="black" d="M 260 108 293 212"/>
<path stroke-width="1" stroke="black" d="M 235 258 275 175"/>
<path stroke-width="1" stroke="black" d="M 235 258 267 236"/>
<path stroke-width="1" stroke="black" d="M 235 258 121 185"/>
<path stroke-width="1" stroke="black" d="M 235 258 187 266"/>
<path stroke-width="1" stroke="black" d="M 235 258 216 178"/>
<path stroke-width="1" stroke="black" d="M 235 258 231 103"/>
<path stroke-width="1" stroke="black" d="M 235 258 165 126"/>
<path stroke-width="1" stroke="black" d="M 235 258 143 210"/>
<path stroke-width="1" stroke="black" d="M 235 258 288 140"/>
<path stroke-width="1" stroke="black" d="M 235 258 136 143"/>
<path stroke-width="1" stroke="black" d="M 235 258 277 315"/>
<path stroke-width="1" stroke="black" d="M 235 258 260 108"/>
<path stroke-width="1" stroke="black" d="M 235 258 181 101"/>
<path stroke-width="1" stroke="black" d="M 235 258 153 244"/>
<path stroke-width="1" stroke="black" d="M 231 103 255 44"/>
<path stroke-width="1" stroke="black" d="M 231 103 216 178"/>
<path stroke-width="1" stroke="black" d="M 231 103 187 266"/>
<path stroke-width="1" stroke="black" d="M 275 175 181 101"/>
<path stroke-width="1" stroke="black" d="M 71 278 153 244"/>
<path stroke-width="1" stroke="black" d="M 153 244 293 212"/>
<path stroke-width="1" stroke="black" d="M 153 244 275 175"/>
<path stroke-width="1" stroke="black" d="M 153 244 71 278"/>
<path stroke-width="1" stroke="black" d="M 153 244 267 236"/>
<path stroke-width="1" stroke="black" d="M 153 244 121 185"/>
<path stroke-width="1" stroke="black" d="M 153 244 187 266"/>
<path stroke-width="1" stroke="black" d="M 153 244 216 178"/>
<path stroke-width="1" stroke="black" d="M 153 244 231 103"/>
<path stroke-width="1" stroke="black" d="M 153 244 165 126"/>
<path stroke-width="1" stroke="black" d="M 153 244 143 210"/>
<path stroke-width="1" stroke="black" d="M 275 175 260 108"/>
<path stroke-width="1" stroke="black" d="M 153 244 288 140"/>
<path stroke-width="1" stroke="black" d="M 153 244 235 258"/>
<path stroke-width="1" stroke="black" d="M 153 244 260 108"/>
<path stroke-width="1" stroke="black" d="M 153 244 181 101"/>
<path stroke-width="1" stroke="black" d="M 348 274 267 236"/>
<path stroke-width="1" stroke="black" d="M 267 236 293 212"/>
<path stroke-width="1" stroke="black" d="M 267 236 275 175"/>
<path stroke-width="1" stroke="black" d="M 267 236 153 244"/>
<path stroke-width="1" stroke="black" d="M 267 236 348 274"/>
<path stroke-width="1" stroke="black" d="M 267 236 121 185"/>
<path stroke-width="1" stroke="black" d="M 267 236 187 266"/>
<path stroke-width="1" stroke="black" d="M 267 236 216 178"/>
<path stroke-width="1" stroke="black" d="M 267 236 231 103"/>
<path stroke-width="1" stroke="black" d="M 153 244 136 143"/>
<path stroke-width="1" stroke="black" d="M 267 236 165 126"/>
<path stroke-width="1" stroke="black" d="M 275 175 235 258"/>
<path stroke-width="1" stroke="black" d="M 275 175 288 140"/>
<path stroke-width="1" stroke="black" d="M 293 212 420 241"/>
<path stroke-width="1" stroke="black" d="M 293 212 275 175"/>
<path stroke-width="1" stroke="black" d="M 293 212 153 244"/>
<path stroke-width="1" stroke="black" d="M 293 212 267 236"/>
<path stroke-width="1" stroke="black" d="M 293 212 121 185"/>
<path stroke-width="1" stroke="black" d="M 293 212 187 266"/>
<path stroke-width="1" stroke="black" d="M 293 212 216 178"/>
<path stroke-width="1" stroke="black" d="M 293 212 231 103"/>
<path stroke-width="1" stroke="black" d="M 293 212 165 126"/>
<path stroke-width="1" stroke="black" d="M 293 212 143 210"/>
<path stroke-width="1" stroke="black" d="M 293 212 288 140"/>
<path stroke-width="1" stroke="black" d="M 293 212 136 143"/>
<path stroke-width="1" stroke="black" d="M 275 175 136 143"/>
<path stroke-width="1" stroke="black" d="M 293 212 235 258"/>
<path stroke-width="1" stroke="black" d="M 293 212 181 101"/>
<path stroke-width="1" stroke="black" d="M 361 165 275 175"/>
<path stroke-width="1" stroke="black" d="M 275 175 293 212"/>
<path stroke-width="1" stroke="black" d="M 275 175 361 165"/>
<path stroke-width="1" stroke="black" d="M 275 175 153 244"/>
<path stroke-width="1" stroke="black" d="M 275 175 267 236"/>
<path stroke-width="1" stroke="black" d="M 275 175 121 185"/>
<path stroke-width="1" stroke="black" d="M 275 175 187 266"/>
<path stroke-width="1" stroke="black" d="M 275 175 216 178"/>
<path stroke-width="1" stroke="black" d="M 275 175 231 103"/>
<path stroke-width="1" stroke="black" d="M 275 175 165 126"/>
<path stroke-width="1" stroke="black" d="M 275 175 143 210"/>
<path stroke-width="1" stroke="black" d="M 293 212 260 108"/>
<path stroke-width="1" stroke="black" d="M 267 236 143 210"/>
<path stroke-width="1" stroke="black" d="M 267 236 288 140"/>
<path stroke-width="1" stroke="black" d="M 267 236 136 143"/>
<path stroke-width="1" stroke="black" d="M 187 266 136 143"/>
<path stroke-width="1" stroke="black" d="M 187 266 235 258"/>
<path stroke-width="1" stroke="black" d="M 187 266 260 108"/>
<path stroke-width="1" stroke="black" d="M 187 266 181 101"/>
<path stroke-width="1" stroke="black" d="M 193 192 216 178"/>
<path stroke-width="1" stroke="black" d="M 216 178 293 212"/>
<path stroke-width="1" stroke="black" d="M 216 178 275 175"/>
<path stroke-width="1" stroke="black" d="M 216 178 153 244"/>
<path stroke-width="1" stroke="black" d="M 216 178 267 236"/>
<path stroke-width="1" stroke="black" d="M 216 178 121 185"/>
<path stroke-width="1" stroke="black" d="M 216 178 187 266"/>
<path stroke-width="1" stroke="black" d="M 216 178 193 192"/>
<path stroke-width="1" stroke="black" d="M 187 266 288 140"/>
<path stroke-width="1" stroke="black" d="M 216 178 231 103"/>
<path stroke-width="1" stroke="black" d="M 216 178 143 210"/>
<path stroke-width="1" stroke="black" d="M 216 178 288 140"/>
<path stroke-width="1" stroke="black" d="M 216 178 136 143"/>
<path stroke-width="1" stroke="black" d="M 216 178 235 258"/>
<path stroke-width="1" stroke="black" d="M 216 178 260 108"/>
<path stroke-width="1" stroke="black" d="M 216 178 181 101"/>
<path stroke-width="1" stroke="black" d="M 255 44 231 103"/>
<path stroke-width="1" stroke="black" d="M 231 103 293 212"/>
<path stroke-width="1" stroke="black" d="M 231 103 275 175"/>
<path stroke-width="1" stroke="black" d="M 231 103 153 244"/>
<path stroke-width="1" stroke="black" d="M 231 103 267 236"/>
<path stroke-width="1" stroke="black" d="M 231 103 121 185"/>
<path stroke-width="1" stroke="black" d="M 216 178 165 126"/>
<path stroke-width="1" stroke="black" d="M 187 266 143 210"/>
<path stroke-width="1" stroke="black" d="M 187 266 165 126"/>
<path stroke-width="1" stroke="black" d="M 187 266 231 103"/>
<path stroke-width="1" stroke="black" d="M 267 236 235 258"/>
<path stroke-width="1" stroke="black" d="M 267 236 260 108"/>
<path stroke-width="1" stroke="black" d="M 267 236 181 101"/>
<path stroke-width="1" stroke="black" d="M 20 188 121 185"/>
<path stroke-width="1" stroke="black" d="M 121 185 293 212"/>
<path stroke-width="1" stroke="black" d="M 121 185 275 175"/>
<path stroke-width="1" stroke="black" d="M 121 185 153 244"/>
<path stroke-width="1" stroke="black" d="M 121 185 267 236"/>
<path stroke-width="1" stroke="black" d="M 121 185 20 188"/>
<path stroke-width="1" stroke="black" d="M 121 185 187 266"/>
<path stroke-width="1" stroke="black" d="M 121 185 216 178"/>
<path stroke-width="1" stroke="black" d="M 121 185 231 103"/>
<path stroke-width="1" stroke="black" d="M 121 185 165 126"/>
<path stroke-width="1" stroke="black" d="M 121 185 143 210"/>
<path stroke-width="1" stroke="black" d="M 121 185 288 140"/>
<path stroke-width="1" stroke="black" d="M 121 185 136 143"/>
<path stroke-width="1" stroke="black" d="M 121 185 235 258"/>
<path stroke-width="1" stroke="black" d="M 121 185 260 108"/>
<path stroke-width="1" stroke="black" d="M 121 185 181 101"/>
<path stroke-width="1" stroke="black" d="M 145 320 187 266"/>
<path stroke-width="1" stroke="black" d="M 187 266 293 212"/>
<path stroke-width="1" stroke="black" d="M 187 266 275 175"/>
<path stroke-width="1" stroke="black" d="M 187 266 153 244"/>
<path stroke-width="1" stroke="black" d="M 187 266 267 236"/>
<path stroke-width="1" stroke="black" d="M 187 266 121 185"/>
<path stroke-width="1" stroke="black" d="M 187 266 145 320"/>
<path stroke-width="1" stroke="black" d="M 187 266 216 178"/>
<path stroke-width="1" stroke="black" d="M 181 101 260 108"/>
<path stroke-width="1" stroke="black" d="M 181 101 140 20"/>
<circle cx="420" cy="241" r="7.0" style="fill:gray;stroke:black;stroke-width:1.0"/>
<circle cx="293" cy="212" r="7.0" style="fill:gray;stroke:black;stroke-width:1.0"/>
<circle cx="361" cy="165" r="7.0" style="fill:gray;stroke:black;stroke-width:1.0"/>
<circle cx="275" cy="175" r="7.0" style="fill:gray;stroke:black;stroke-width:1.0"/>
<circle cx="71" cy="278" r="7.0" style="fill:gray;stroke:black;stroke-width:1.0"/>
<circle cx="153" cy="244" r="7.0" style="fill:gray;stroke:black;stroke-width:1.0"/>
<circle cx="348" cy="274" r="7.0" style="fill:gray;stroke:black;stroke-width:1.0"/>
<circle cx="267" cy="236" r="7.0" style="fill:gray;stroke:black;stroke-width:1.0"/>
<circle cx="20" cy="188" r="7.0" style="fill:gray;stroke:black;stroke-width:1.0"/>
<circle cx="121" cy="185" r="7.0" style="fill:gray;stroke:black;stroke-width:1.0"/>
<circle cx="145" cy="320" r="7.0" style="fill:gray;stroke:black;stroke-width:1.0"/>
<circle cx="187" cy="266" r="7.0" style="fill:gray;stroke:black;stroke-width:1.0"/>
<circle cx="193" cy="192" r="7.0" style="fill:gray;stroke:black;stroke-width:1.0"/>
<circle cx="216" cy="178" r="7.0" style="fill:gray;stroke:black;stroke-width:1.0"/>
<circle cx="255" cy="44" r="7.0" style="fill:gray;stroke:black;stroke-width:1.0"/>
<circle cx="231" cy="103" r="7.0" style="fill:gray;stroke:black;stroke-width:1.0"/>
<circle cx="90" cy="83" r="7.0" style="fill:gray;stroke:black;stroke-width:1.0"/>
<circle cx="165" cy="126" r="7.0" style="fill:gray;stroke:black;stroke-width:1.0"/>
<circle cx="52" cy="226" r="7.0" style="fill:gray;stroke:black;stroke-width:1.0"/>
<circle cx="143" cy="210" r="7.0" style="fill:gray;stroke:black;stroke-width:1.0"/>
<circle cx="383" cy="121" r="7.0" style="fill:gray;stroke:black;stroke-width:1.0"/>
<circle cx="288" cy="140" r="7.0" style="fill:gray;stroke:black;stroke-width:1.0"/>
<circle cx="47" cy="116" r="7.0" style="fill:gray;stroke:black;stroke-width:1.0"/>
<circle cx="136" cy="143" r="7.0" style="fill:gray;stroke:black;stroke-width:1.0"/>
<circle cx="277" cy="315" r="7.0" style="fill:gray;stroke:black;stroke-width:1.0"/>
<circle cx="235" cy="258" r="7.0" style="fill:gray;stroke:black;stroke-width:1.0"/>
<circle cx="327" cy="67" r="7.0" style="fill:gray;stroke:black;stroke-width:1.0"/>
<circle cx="260" cy="108" r="7.0" style="fill:gray;stroke:black;stroke-width:1.0"/>
<circle cx="140" cy="20" r="7.0" style="fill:gray;stroke:black;stroke-width:1.0"/>
<circle cx="181" cy="101" r="7.0" style="fill:gray;stroke:black;stroke-width:1.0"/>
</svg>
