<svg width="440" height="340" xmlns="http://www.w3.org/2000/svg">
<path stroke-width="1" stroke="black" d="M 420 198 313 176"/>
<path stroke-width="1" stroke="black" d="M 232 236 163 227"/>
<path stroke-width="1" stroke="black" d="M 232 236 277 226"/>
<path stroke-width="1" stroke="black" d="M 232 236 255 310"/>
<path stroke-width="1" stroke="black" d="M 232 236 299 132"/>
<path stroke-width="1" stroke="black" d="M 232 236 113 139"/>
<path stroke-width="1" stroke="black" d="M 232 236 288 188"/>
<path stroke-width="1" stroke="black" d="M 232 236 205 166"/>
<path stroke-width="1" stroke="black" d="M 232 236 121 206"/>
<path stroke-width="1" stroke="black" d="M 356 86 299 132"/>
<path stroke-width="1" stroke="black" d="M 299 132 313 176"/>
<path stroke-width="1" stroke="black" d="M 299 132 259 112"/>
<path stroke-width="1" stroke="black" d="M 299 132 96 175"/>
<path stroke-width="1" stroke="black" d="M 232 236 148 128"/>
<path stroke-width="1" stroke="black" d="M 299 132 173 101"/>
<path stroke-width="1" stroke="black" d="M 299 132 213 98"/>
<path stroke-width="1" stroke="black" d="M 299 132 148 128"/>
<path stroke-width="1" stroke="black" d="M 299 132 163 227"/>
<path stroke-width="1" stroke="black" d="M 299 132 277 226"/>
<path stroke-width="1" stroke="black" d="M 299 132 232 236"/>
<path stroke-width="1" stroke="black" d="M 299 132 356 86"/>
<path stroke-width="1" stroke="black" d="M 299 132 113 139"/>
<path stroke-width="1" stroke="black" d="M 299 132 288 188"/>
<path stroke-width="1" stroke="black" d="M 299 132 205 166"/>
<path stroke-width="1" stroke="black" d="M 299 132 121 206"/>
<path stroke-width="1" stroke="black" d="M 37 96 113 139"/>
<path stroke-width="1" stroke="black" d="M 113 139 313 176"/>
<path stroke-width="1" stroke="black" d="M 299 132 177 243"/>
<path stroke-width="1" stroke="black" d="M 113 139 259 112"/>
<path stroke-width="1" stroke="black" d="M 232 236 213 98"/>
<path stroke-width="1" stroke="black" d="M 232 236 173 101"/>
<path stroke-width="1" stroke="black" d="M 163 227 232 236"/>
<path stroke-width="1" stroke="black" d="M 163 227 299 132"/>
<path stroke-width="1" stroke="black" d="M 163 227 113 139"/>
<path stroke-width="1" stroke="black" d="M 163 227 288 188"/>
<path stroke-width="1" stroke="black" d="M 163 227 205 166"/>
<path stroke-width="1" stroke="black" d="M 163 227 121 206"/>
<path stroke-width="1" stroke="black" d="M 321 291 277 226"/>
<path stroke-width="1" stroke="black" d="M 277 226 313 176"/>
<path stroke-width="1" stroke="black" d="M 277 226 259 112"/>
<path stroke-width="1" stroke="black" d="M 277 226 96 175"/>
<path stroke-width="1" stroke="black" d="M 277 226 173 101"/>
<path stroke-width="1" stroke="black" d="M 277 226 177 243"/>
<path stroke-width="1" stroke="black" d="M 232 236 177 243"/>
<path stroke-width="1" stroke="black" d="M 277 226 213 98"/>
<path stroke-width="1" stroke="black" d="M 277 226 163 227"/>
<path stroke-width="1" stroke="black" d="M 277 226 321 291"/>
<path stroke-width="1" stroke="black" d="M 277 226 232 236"/>
<path stroke-width="1" stroke="black" d="M 277 226 299 132"/>
<path stroke-width="1" stroke="black" d="M 277 226 113 139"/>
<path stroke-width="1" stroke="black" d="M 277 226 288 188"/>
<path stroke-width="1" stroke="black" d="M 277 226 205 166"/>
<path stroke-width="1" stroke="black" d="M 277 226 121 206"/>
<path stroke-width="1" stroke="black" d="M 255 310 232 236"/>
<path stroke-width="1" stroke="black" d="M 232 236 313 176"/>
<path stroke-width="1" stroke="black" d="M 232 236 259 112"/>
<path stroke-width="1" stroke="black" d="M 232 236 96 175"/>
<path stroke-width="1" stroke="black" d="M 277 226 148 128"/>
<path stroke-width="1" stroke="black" d="M 163 227 277 226"/>
<path stroke-width="1" stroke="black" d="M 113 139 96 175"/>
<path stroke-width="1" stroke="black" d="M 113 139 177 243"/>
<path stroke-width="1" stroke="black" d="M 205 166 173 101"/>
<path stroke-width="1" stroke="black" d="M 205 166 177 243"/>
<path stroke-width="1" stroke="black" d="M 205 166 213 98"/>
<path stroke-width="1" stroke="black" d="M 205 166 148 128"/>
<path stroke-width="1" stroke="black" d="M 205 166 163 227"/>
<path stroke-width="1" stroke="black" d="M 205 166 277 226"/>
<path stroke-width="1" stroke="black" d="M 205 166 232 236"/>
<path stroke-width="1" stroke="black" d="M 205 166 299 132"/>
<path stroke-width="1" stroke="black" d="M 205 166 113 139"/>
<path stroke-width="1" stroke="black" d="M 205 166 288 188"/>
<path stroke-width="1" stroke="black" d="M 205 166 200 200"/>
<path stroke-width="1" stroke="black" d="M 205 166 121 206"/>
<path stroke-width="1" stroke="black" d="M 205 166 96 175"/>
<path stroke-width="1" stroke="black" d="M 34 267 121 206"/>
<path stroke-width="1" stroke="black" d="M 121 206 259 112"/>
<path stroke-width="1" stroke="black" d="M 121 206 96 175"/>
<path stroke-width="1" stroke="black" d="M 121 206 173 101"/>
<path stroke-width="1" stroke="black" d="M 121 206 177 243"/>
<path stroke-width="1" stroke="black" d="M 121 206 213 98"/>
<path stroke-width="1" stroke="black" d="M 121 206 148 128"/>
<path stroke-width="1" stroke="black" d="M 121 206 163 227"/>
<path stroke-width="1" stroke="black" d="M 121 206 277 226"/>
<path stroke-width="1" stroke="black" d="M 121 206 232 236"/>
<path stroke-width="1" stroke="black" d="M 121 206 299 132"/>
<path stroke-width="1" stroke="black" d="M 121 206 113 139"/>
<path stroke-width="1" stroke="black" d="M 121 206 288 188"/>
<path stroke-width="1" stroke="black" d="M 121 206 313 176"/>
<path stroke-width="1" stroke="black" d="M 113 139 173 101"/>
<path stroke-width="1" stroke="black" d="M 205 166 259 112"/>
<path stroke-width="1" stroke="black" d="M 200 200 205 166"/>
<path stroke-width="1" stroke="black" d="M 113 139 213 98"/>
<path stroke-width="1" stroke="black" d="M 113 139 148 128"/>
<path stroke-width="1" stroke="black" d="M 113 139 163 227"/>
<path stroke-width="1" stroke="black" d="M 113 139 277 226"/>
<path stroke-width="1" stroke="black" d="M 113 139 232 236"/>
<path stroke-width="1" stroke="black" d="M 113 139 299 132"/>
<path stroke-width="1" stroke="black" d="M 113 139 37 96"/>
<path stroke-width="1" stroke="black" d="M 113 139 288 188"/>
<path stroke-width="1" stroke="black" d="M 113 139 205 166"/>
<path stroke-width="1" stroke="black" d="M 113 139 121 206"/>
<path stroke-width="1" stroke="black" d="M 356 218 288 188"/>
<path stroke-width="1" stroke="black" d="M 288 188 313 176"/>
<path stroke-width="1" stroke="black" d="M 205 166 313 176"/>
<path stroke-width="1" stroke="black" d="M 288 188 259 112"/>
<path stroke-width="1" stroke="black" d="M 288 188 173 101"/>
<path stroke-width="1" stroke="black" d="M 288 188 177 243"/>
<path stroke-width="1" stroke="black" d="M 288 188 213 98"/>
<path stroke-width="1" stroke="black" d="M 288 188 148 128"/>
<path stroke-width="1" stroke="black" d="M 288 188 163 227"/>
<path stroke-width="1" stroke="black" d="M 288 188 277 226"/>
<path stroke-width="1" stroke="black" d="M 288 188 232 236"/>
<path stroke-width="1" stroke="black" d="M 288 188 299 132"/>
<path stroke-width="1" stroke="black" d="M 288 188 113 139"/>
<path stroke-width="1" stroke="black" d="M 288 188 356 218"/>
<path stroke-width="1" stroke="black" d="M 288 188 205 166"/>
<path stroke-width="1" stroke="black" d="M 288 188 121 206"/>
<path stroke-width="1" stroke="black" d="M 288 188 96 175"/>
<path stroke-width="1" stroke="black" d="M 163 227 104 299"/>
<path stroke-width="1" stroke="black" d="M 163 227 148 128"/>
<path stroke-width="1" stroke="black" d="M 163 227 213 98"/>
<path stroke-width="1" stroke="black" d="M 259 112 121 206"/>
<path stroke-width="1" stroke="black" d="M 20 177 96 175"/>
<path stroke-width="1" stroke="black" d="M 96 175 313 176"/>
<path stroke-width="1" stroke="black" d="M 96 175 259 112"/>
<path stroke-width="1" stroke="black" d="M 96 175 20 177"/>
<path stroke-width="1" stroke="black" d="M 96 175 173 101"/>
<path stroke-width="1" stroke="black" d="M 96 175 177 243"/>
<path stroke-width="1" stroke="black" d="M 96 175 213 98"/>
<path stroke-width="1" stroke="black" d="M 96 175 148 128"/>
<path stroke-width="1" stroke="black" d="M 96 175 163 227"/>
<path stroke-width="1" stroke="black" d="M 96 175 277 226"/>
<path stroke-width="1" stroke="black" d="M 96 175 232 236"/>
<path stroke-width="1" stroke="black" d="M 259 112 205 166"/>
<path stroke-width="1" stroke="black" d="M 96 175 299 132"/>
<path stroke-width="1" stroke="black" d="M 96 175 288 188"/>
<path stroke-width="1" stroke="black" d="M 96 175 205 166"/>
<path stroke-width="1" stroke="black" d="M 96 175 121 206"/>
<path stroke-width="1" stroke="black" d="M 150 25 173 101"/>
<path stroke-width="1" stroke="black" d="M 173 101 313 176"/>
<path stroke-width="1" stroke="black" d="M 173 101 259 112"/>
<path stroke-width="1" stroke="black" d="M 173 101 96 175"/>
<path stroke-width="1" stroke="black" d="M 173 101 150 25"/>
<path stroke-width="1" stroke="black" d="M 173 101 177 243"/>
<path stroke-width="1" stroke="black" d="M 173 101 213 98"/>
<path stroke-width="1" stroke="black" d="M 173 101 148 128"/>
<path stroke-width="1" stroke="black" d="M 173 101 163 227"/>
<path stroke-width="1" stroke="black" d="M 96 175 113 139"/>
<path stroke-width="1" stroke="black" d="M 173 101 277 226"/>
<path stroke-width="1" stroke="black" d="M 259 112 288 188"/>
<path stroke-width="1" stroke="black" d="M 259 112 299 132"/>
<path stroke-width="1" stroke="black" d="M 313 176 420 198"/>
<path stroke-width="1" stroke="black" d="M 313 176 259 112"/>
<path stroke-width="1" stroke="black" d="M 313 176 96 175"/>
<path stroke-width="1" stroke="black" d="M 313 176 173 101"/>
<path stroke-width="1" stroke="black" d="M 313 176 177 243"/>
<path stroke-width="1" stroke="black" d="M 313 176 213 98"/>
<path stroke-width="1" stroke="black" d="M 313 176 148 128"/>
<path stroke-width="1" stroke="black" d="M 313 176 163 227"/>
<path stroke-width="1" stroke="black" d="M 313 176 277 226"/>
<path stroke-width="1" stroke="black" d="M 313 176 232 236"/>
<path stroke-width="1" stroke="black" d="M 313 176 299 132"/>
<path stroke-width="1" stroke="black" d="M 313 176 113 139"/>
<path stroke-width="1" stroke="black" d="M 259 112 113 139"/>
<path stroke-width="1" stroke="black" d="M 313 176 288 188"/>
<path stroke-width="1" stroke="black" d="M 313 176 121 206"/>
<path stroke-width="1" stroke="black" d="M 298 44 259 112"/>
<path stroke-width="1" stroke="black" d="M 259 112 313 176"/>
<path stroke-width="1" stroke="black" d="M 259 112 298 44"/>
<path stroke-width="1" stroke="black" d="M 259 112 96 175"/>
<path stroke-width="1" stroke="black" d="M 259 112 173 101"/>
<path stroke-width="1" stroke="black" d="M 259 112 177 243"/>
<path stroke-width="1" stroke="black" d="M 259 112 213 98"/>
<path stroke-width="1" stroke="black" d="M 259 112 148 128"/>
<path stroke-width="1" stroke="black" d="M 259 112 163 227"/>
<path stroke-width="1" stroke="black" d="M 259 112 277 226"/>
<path stroke-width="1" stroke="black" d="M 259 112 232 236"/>
<path stroke-width="1" stroke="black" d="M 313 176 205 166"/>
<path stroke-width="1" stroke="black" d="M 173 101 232 236"/>
<path stroke-width="1" stroke="black" d="M 173 101 299 132"/>
<path stroke-width="1" stroke="black" d="M 173 101 113 139"/>
<path stroke-width="1" stroke="black" d="M 213 98 113 139"/>
<path stroke-width="1" stroke="black" d="M 213 98 288 188"/>
<path stroke-width="1" stroke="black" d="M 213 98 205 166"/>
<path stroke-width="1" stroke="black" d="M 213 98 121 206"/>
<path stroke-width="1" stroke="black" d="M 96 65 148 128"/>
<path stroke-width="1" stroke="black" d="M 148 128 313 176"/>
<path stroke-width="1" stroke="black" d="M 148 128 259 112"/>
<path stroke-width="1" stroke="black" d="M 148 128 96 175"/>
<path stroke-width="1" stroke="black" d="M 148 128 173 101"/>
<path stroke-width="1" stroke="black" d="M 148 128 177 243"/>
<path stroke-width="1" stroke="black" d="M 148 128 213 98"/>
<path stroke-width="1" stroke="black" d="M 148 128 96 65"/>
<path stroke-width="1" stroke="black" d="M 213 98 299 132"/>
<path stroke-width="1" stroke="black" d="M 148 128 163 227"/>
<path stroke-width="1" stroke="black" d="M 148 128 232 236"/>
<path stroke-width="1" stroke="black" d="M 148 128 299 132"/>
<path stroke-width="1" stroke="black" d="M 148 128 113 139"/>
<path stroke-width="1" stroke="black" d="M 148 128 288 188"/>
<path stroke-width="1" stroke="black" d="M 148 128 205 166"/>
<path stroke-width="1" stroke="black" d="M 148 128 121 206"/>
<path stroke-width="1" stroke="black" d="M 104 299 163 227"/>
<path stroke-width="1" stroke="black" d="M 163 227 313 176"/>
<path stroke-width="1" stroke="black" d="M 163 227 259 112"/>
<path stroke-width="1" stroke="black" d="M 163 227 96 175"/>
<path stroke-width="1" stroke="black" d="M 163 227 173 101"/>
<path stroke-width="1" stroke="black" d="M 163 227 177 243"/>
<path stroke-width="1" stroke="black" d="M 148 128 277 226"/>
<path stroke-width="1" stroke="black" d="M 213 98 232 236"/>
<path stroke-width="1" stroke="black" d="M 213 98 277 226"/>
<path stroke-width="1" stroke="black" d="M 213 98 163 227"/>
<path stroke-width="1" stroke="black" d="M 173 101 288 188"/>
<path stroke-width="1" stroke="black" d="M 173 101 205 166"/>
<path stroke-width="1" stroke="black" d="M 173 101 121 206"/>
<path stroke-width="1" stroke="black" d="M 178 320 177 243"/>
<path stroke-width="1" stroke="black" d="M 177 243 313 176"/>
<path stroke-width="1" stroke="black" d="M 177 243 259 112"/>
<path stroke-width="1" stroke="black" d="M 177 243 96 175"/>
<path stroke-width="1" stroke="black" d="M 177 243 173 101"/>
<path stroke-width="1" stroke="black" d="M 177 243 178 320"/>
<path stroke-width="1" stroke="black" d="M 177 243 213 98"/>
<path stroke-width="1" stroke="black" d="M 177 243 148 128"/>
<path stroke-width="1" stroke="black" d="M 177 243 163 227"/>
<path stroke-width="1" stroke="black" d="M 177 243 277 226"/>
<path stroke-width="1" stroke="black" d="M 177 243 232 236"/>
<path stroke-width="1" stroke="black" d="M 177 243 299 132"/>
<path stroke-width="1" stroke="black" d="M 177 243 113 139"/>
<path stroke-width="1" stroke="black" d="M 177 243 288 188"/>
<path stroke-width="1" stroke="black" d="M 177 243 205 166"/>
<path stroke-width="1" stroke="black" d="M 177 243 121 206"/>
<path stroke-width="1" stroke="black" d="M 226 20 213 98"/>
<path stroke-width="1" stroke="black" d="M 213 98 313 176"/>
<path stroke-width="1" stroke="black" d="M 213 98 259 112"/>
<path stroke-width="1" stroke="black" d="M 213 98 96 175"/>
<path stroke-width="1" stroke="black" d="M 213 98 173 101"/>
<path stroke-width="1" stroke="black" d="M 213 98 177 243"/>
<path stroke-width="1" stroke="black" d="M 213 98 226 20"/>
<path stroke-width="1" stroke="black" d="M 213 98 148 128"/>
<path stroke-width="1" stroke="black" d="M 121 206 205 166"/>
<path stroke-width="1" stroke="black" d="M 121 206 34 267"/>
<circle cx="420" cy="198" r="7.0" style="fill:gray;stroke:black;stroke-width:1.0"/>
<circle cx="313" cy="176" r="7.0" style="fill:gray;stroke:black;stroke-width:1.0"/>
<circle cx="298" cy="44" r="7.0" style="fill:gray;stroke:black;stroke-width:1.0"/>
<circle cx="259" cy="112" r="7.0" style="fill:gray;stroke:black;stroke-width:1.0"/>
<circle cx="20" cy="177" r="7.0" style="fill:gray;stroke:black;stroke-width:1.0"/>
<circle cx="96" cy="175" r="7.0" style="fill:gray;stroke:black;stroke-width:1.0"/>
<circle cx="150" cy="25" r="7.0" style="fill:gray;stroke:black;stroke-width:1.0"/>
<circle cx="173" cy="101" r="7.0" style="fill:gray;stroke:black;stroke-width:1.0"/>
<circle cx="178" cy="320" r="7.0" style="fill:gray;stroke:black;stroke-width:1.0"/>
<circle cx="177" cy="243" r="7.0" style="fill:gray;stroke:black;stroke-width:1.0"/>
<circle cx="226" cy="20" r="7.0" style="fill:gray;stroke:black;stroke-width:1.0"/>
<circle cx="213" cy="98" r="7.0" style="fill:gray;stroke:black;stroke-width:1.0"/>
<circle cx="96" cy="65" r="7.0" style="fill:gray;stroke:black;stroke-width:1.0"/>
<circle cx="148" cy="128" r="7.0" style="fill:gray;stroke:black;stroke-width:1.0"/>
<circle cx="104" cy="299" r="7.0" style="fill:gray;stroke:black;stroke-width:1.0"/>
<circle cx="163" cy="227" r="7.0" style="fill:gray;stroke:black;stroke-width:1.0"/>
<circle cx="321" cy="291" r="7.0" style="fill:gray;stroke:black;stroke-width:1.0"/>
<circle cx="277" cy="226" r="7.0" style="fill:gray;stroke:black;stroke-width:1.0"/>
<circle cx="255" cy="310" r="7.0" style="fill:gray;stroke:black;stroke-width:1.0"/>
<circle cx="232" cy="236" r="7.0" style="fill:gray;stroke:black;stroke-width:1.0"/>
<circle cx="356" cy="86" r="7.0" style="fill:gray;stroke:black;stroke-width:1.0"/>
<circle cx="299" cy="132" r="7.0" style="fill:gray;stroke:black;stroke-width:1.0"/>
<circle cx="37" cy="96" r="7.0" style="fill:gray;stroke:black;stroke-width:1.0"/>
<circle cx="113" cy="139" r="7.0" style="fill:gray;stroke:black;stroke-width:1.0"/>
<circle cx="356" cy="218" r="7.0" style="fill:gray;stroke:black;stroke-width:1.0"/>
<circle cx="288" cy="188" r="7.0" style="fill:gray;stroke:black;stroke-width:1.0"/>
<circle cx="200" cy="200" r="7.0" style="fill:gray;stroke:black;stroke-width:1.0"/>
<circle cx="205" cy="166" r="7.0" style="fill:gray;stroke:black;stroke-width:1.0"/>
<circle cx="34" cy="267" r="7.0" style="fill:gray;stroke:black;stroke-width:1.0"/>
<circle cx="121" cy="206" r="7.0" style="fill:gray;stroke:black;stroke-width:1.0"/>
</svg>
