<svg width="440" height="340" xmlns="http://www.w3.org/2000/svg">
<path stroke-width="1" stroke="black" d="M 246 20 242 123"/>
<path stroke-width="1" stroke="black" d="M 160 164 207 134"/>
<path stroke-width="1" stroke="black" d="M 160 164 236 175"/>
<path stroke-width="1" stroke="black" d="M 160 164 72 130"/>
<path stroke-width="1" stroke="black" d="M 160 164 276 134"/>
<path stroke-width="1" stroke="black" d="M 160 164 318 193"/>
<path stroke-width="1" stroke="black" d="M 160 164 303 215"/>
<path stroke-width="1" stroke="black" d="M 160 164 309 147"/>
<path stroke-width="1" stroke="black" d="M 160 164 142 184"/>
<path stroke-width="1" stroke="black" d="M 313 56 276 134"/>
<path stroke-width="1" stroke="black" d="M 276 134 242 123"/>
<path stroke-width="1" stroke="black" d="M 276 134 171 137"/>
<path stroke-width="1" stroke="black" d="M 276 134 327 170"/>
<path stroke-width="1" stroke="black" d="M 160 164 188 223"/>
<path stroke-width="1" stroke="black" d="M 276 134 274 227"/>
<path stroke-width="1" stroke="black" d="M 276 134 159 207"/>
<path stroke-width="1" stroke="black" d="M 276 134 188 223"/>
<path stroke-width="1" stroke="black" d="M 276 134 207 134"/>
<path stroke-width="1" stroke="black" d="M 276 134 236 175"/>
<path stroke-width="1" stroke="black" d="M 276 134 160 164"/>
<path stroke-width="1" stroke="black" d="M 276 134 313 56"/>
<path stroke-width="1" stroke="black" d="M 276 134 318 193"/>
<path stroke-width="1" stroke="black" d="M 276 134 303 215"/>
<path stroke-width="1" stroke="black" d="M 276 134 309 147"/>
<path stroke-width="1" stroke="black" d="M 276 134 142 184"/>
<path stroke-width="1" stroke="black" d="M 408 226 318 193"/>
<path stroke-width="1" stroke="black" d="M 318 193 242 123"/>
<path stroke-width="1" stroke="black" d="M 276 134 222 232"/>
<path stroke-width="1" stroke="black" d="M 318 193 171 137"/>
<path stroke-width="1" stroke="black" d="M 160 164 159 207"/>
<path stroke-width="1" stroke="black" d="M 160 164 274 227"/>
<path stroke-width="1" stroke="black" d="M 207 134 160 164"/>
<path stroke-width="1" stroke="black" d="M 207 134 276 134"/>
<path stroke-width="1" stroke="black" d="M 207 134 318 193"/>
<path stroke-width="1" stroke="black" d="M 207 134 303 215"/>
<path stroke-width="1" stroke="black" d="M 207 134 309 147"/>
<path stroke-width="1" stroke="black" d="M 207 134 142 184"/>
<path stroke-width="1" stroke="black" d="M 245 202 236 175"/>
<path stroke-width="1" stroke="black" d="M 236 175 242 123"/>
<path stroke-width="1" stroke="black" d="M 236 175 171 137"/>
<path stroke-width="1" stroke="black" d="M 236 175 327 170"/>
<path stroke-width="1" stroke="black" d="M 236 175 274 227"/>
<path stroke-width="1" stroke="black" d="M 236 175 222 232"/>
<path stroke-width="1" stroke="black" d="M 160 164 222 232"/>
<path stroke-width="1" stroke="black" d="M 236 175 159 207"/>
<path stroke-width="1" stroke="black" d="M 236 175 207 134"/>
<path stroke-width="1" stroke="black" d="M 236 175 245 202"/>
<path stroke-width="1" stroke="black" d="M 236 175 160 164"/>
<path stroke-width="1" stroke="black" d="M 236 175 276 134"/>
<path stroke-width="1" stroke="black" d="M 236 175 318 193"/>
<path stroke-width="1" stroke="black" d="M 236 175 303 215"/>
<path stroke-width="1" stroke="black" d="M 236 175 309 147"/>
<path stroke-width="1" stroke="black" d="M 236 175 142 184"/>
<path stroke-width="1" stroke="black" d="M 72 130 160 164"/>
<path stroke-width="1" stroke="black" d="M 160 164 242 123"/>
<path stroke-width="1" stroke="black" d="M 160 164 171 137"/>
<path stroke-width="1" stroke="black" d="M 160 164 327 170"/>
<path stroke-width="1" stroke="black" d="M 236 175 188 223"/>
<path stroke-width="1" stroke="black" d="M 207 134 236 175"/>
<path stroke-width="1" stroke="black" d="M 318 193 327 170"/>
<path stroke-width="1" stroke="black" d="M 318 193 222 232"/>
<path stroke-width="1" stroke="black" d="M 309 147 274 227"/>
<path stroke-width="1" stroke="black" d="M 309 147 222 232"/>
<path stroke-width="1" stroke="black" d="M 309 147 159 207"/>
<path stroke-width="1" stroke="black" d="M 309 147 188 223"/>
<path stroke-width="1" stroke="black" d="M 309 147 207 134"/>
<path stroke-width="1" stroke="black" d="M 309 147 236 175"/>
<path stroke-width="1" stroke="black" d="M 309 147 160 164"/>
<path stroke-width="1" stroke="black" d="M 309 147 276 134"/>
<path stroke-width="1" stroke="black" d="M 309 147 318 193"/>
<path stroke-width="1" stroke="black" d="M 309 147 303 215"/>
<path stroke-width="1" stroke="black" d="M 309 147 377 88"/>
<path stroke-width="1" stroke="black" d="M 309 147 142 184"/>
<path stroke-width="1" stroke="black" d="M 309 147 327 170"/>
<path stroke-width="1" stroke="black" d="M 20 188 142 184"/>
<path stroke-width="1" stroke="black" d="M 142 184 171 137"/>
<path stroke-width="1" stroke="black" d="M 142 184 327 170"/>
<path stroke-width="1" stroke="black" d="M 142 184 274 227"/>
<path stroke-width="1" stroke="black" d="M 142 184 222 232"/>
<path stroke-width="1" stroke="black" d="M 142 184 159 207"/>
<path stroke-width="1" stroke="black" d="M 142 184 188 223"/>
<path stroke-width="1" stroke="black" d="M 142 184 207 134"/>
<path stroke-width="1" stroke="black" d="M 142 184 236 175"/>
<path stroke-width="1" stroke="black" d="M 142 184 160 164"/>
<path stroke-width="1" stroke="black" d="M 142 184 276 134"/>
<path stroke-width="1" stroke="black" d="M 142 184 318 193"/>
<path stroke-width="1" stroke="black" d="M 142 184 303 215"/>
<path stroke-width="1" stroke="black" d="M 142 184 242 123"/>
<path stroke-width="1" stroke="black" d="M 318 193 274 227"/>
<path stroke-width="1" stroke="black" d="M 309 147 171 137"/>
<path stroke-width="1" stroke="black" d="M 377 88 309 147"/>
<path stroke-width="1" stroke="black" d="M 318 193 159 207"/>
<path stroke-width="1" stroke="black" d="M 318 193 188 223"/>
<path stroke-width="1" stroke="black" d="M 318 193 207 134"/>
<path stroke-width="1" stroke="black" d="M 318 193 236 175"/>
<path stroke-width="1" stroke="black" d="M 318 193 160 164"/>
<path stroke-width="1" stroke="black" d="M 318 193 276 134"/>
<path stroke-width="1" stroke="black" d="M 318 193 408 226"/>
<path stroke-width="1" stroke="black" d="M 318 193 303 215"/>
<path stroke-width="1" stroke="black" d="M 318 193 309 147"/>
<path stroke-width="1" stroke="black" d="M 318 193 142 184"/>
<path stroke-width="1" stroke="black" d="M 363 282 303 215"/>
<path stroke-width="1" stroke="black" d="M 303 215 242 123"/>
<path stroke-width="1" stroke="black" d="M 309 147 242 123"/>
<path stroke-width="1" stroke="black" d="M 303 215 171 137"/>
<path stroke-width="1" stroke="black" d="M 303 215 274 227"/>
<path stroke-width="1" stroke="black" d="M 303 215 222 232"/>
<path stroke-width="1" stroke="black" d="M 303 215 159 207"/>
<path stroke-width="1" stroke="black" d="M 303 215 188 223"/>
<path stroke-width="1" stroke="black" d="M 303 215 207 134"/>
<path stroke-width="1" stroke="black" d="M 303 215 236 175"/>
<path stroke-width="1" stroke="black" d="M 303 215 160 164"/>
<path stroke-width="1" stroke="black" d="M 303 215 276 134"/>
<path stroke-width="1" stroke="black" d="M 303 215 318 193"/>
<path stroke-width="1" stroke="black" d="M 303 215 363 282"/>
<path stroke-width="1" stroke="black" d="M 303 215 309 147"/>
<path stroke-width="1" stroke="black" d="M 303 215 142 184"/>
<path stroke-width="1" stroke="black" d="M 303 215 327 170"/>
<path stroke-width="1" stroke="black" d="M 207 134 177 57"/>
<path stroke-width="1" stroke="black" d="M 207 134 188 223"/>
<path stroke-width="1" stroke="black" d="M 207 134 159 207"/>
<path stroke-width="1" stroke="black" d="M 171 137 142 184"/>
<path stroke-width="1" stroke="black" d="M 420 148 327 170"/>
<path stroke-width="1" stroke="black" d="M 327 170 242 123"/>
<path stroke-width="1" stroke="black" d="M 327 170 171 137"/>
<path stroke-width="1" stroke="black" d="M 327 170 420 148"/>
<path stroke-width="1" stroke="black" d="M 327 170 274 227"/>
<path stroke-width="1" stroke="black" d="M 327 170 222 232"/>
<path stroke-width="1" stroke="black" d="M 327 170 159 207"/>
<path stroke-width="1" stroke="black" d="M 327 170 188 223"/>
<path stroke-width="1" stroke="black" d="M 327 170 207 134"/>
<path stroke-width="1" stroke="black" d="M 327 170 236 175"/>
<path stroke-width="1" stroke="black" d="M 327 170 160 164"/>
<path stroke-width="1" stroke="black" d="M 171 137 309 147"/>
<path stroke-width="1" stroke="black" d="M 327 170 276 134"/>
<path stroke-width="1" stroke="black" d="M 327 170 303 215"/>
<path stroke-width="1" stroke="black" d="M 327 170 309 147"/>
<path stroke-width="1" stroke="black" d="M 327 170 142 184"/>
<path stroke-width="1" stroke="black" d="M 304 311 274 227"/>
<path stroke-width="1" stroke="black" d="M 274 227 242 123"/>
<path stroke-width="1" stroke="black" d="M 274 227 171 137"/>
<path stroke-width="1" stroke="black" d="M 274 227 327 170"/>
<path stroke-width="1" stroke="black" d="M 274 227 304 311"/>
<path stroke-width="1" stroke="black" d="M 274 227 222 232"/>
<path stroke-width="1" stroke="black" d="M 274 227 159 207"/>
<path stroke-width="1" stroke="black" d="M 274 227 188 223"/>
<path stroke-width="1" stroke="black" d="M 274 227 207 134"/>
<path stroke-width="1" stroke="black" d="M 327 170 318 193"/>
<path stroke-width="1" stroke="black" d="M 274 227 236 175"/>
<path stroke-width="1" stroke="black" d="M 171 137 303 215"/>
<path stroke-width="1" stroke="black" d="M 171 137 276 134"/>
<path stroke-width="1" stroke="black" d="M 242 123 246 20"/>
<path stroke-width="1" stroke="black" d="M 242 123 171 137"/>
<path stroke-width="1" stroke="black" d="M 242 123 327 170"/>
<path stroke-width="1" stroke="black" d="M 242 123 274 227"/>
<path stroke-width="1" stroke="black" d="M 242 123 222 232"/>
<path stroke-width="1" stroke="black" d="M 242 123 159 207"/>
<path stroke-width="1" stroke="black" d="M 242 123 188 223"/>
<path stroke-width="1" stroke="black" d="M 242 123 207 134"/>
<path stroke-width="1" stroke="black" d="M 242 123 236 175"/>
<path stroke-width="1" stroke="black" d="M 242 123 160 164"/>
<path stroke-width="1" stroke="black" d="M 242 123 276 134"/>
<path stroke-width="1" stroke="black" d="M 242 123 318 193"/>
<path stroke-width="1" stroke="black" d="M 171 137 318 193"/>
<path stroke-width="1" stroke="black" d="M 242 123 303 215"/>
<path stroke-width="1" stroke="black" d="M 242 123 142 184"/>
<path stroke-width="1" stroke="black" d="M 118 66 171 137"/>
<path stroke-width="1" stroke="black" d="M 171 137 242 123"/>
<path stroke-width="1" stroke="black" d="M 171 137 118 66"/>
<path stroke-width="1" stroke="black" d="M 171 137 327 170"/>
<path stroke-width="1" stroke="black" d="M 171 137 274 227"/>
<path stroke-width="1" stroke="black" d="M 171 137 222 232"/>
<path stroke-width="1" stroke="black" d="M 171 137 159 207"/>
<path stroke-width="1" stroke="black" d="M 171 137 188 223"/>
<path stroke-width="1" stroke="black" d="M 171 137 207 134"/>
<path stroke-width="1" stroke="black" d="M 171 137 236 175"/>
<path stroke-width="1" stroke="black" d="M 171 137 160 164"/>
<path stroke-width="1" stroke="black" d="M 242 123 309 147"/>
<path stroke-width="1" stroke="black" d="M 274 227 160 164"/>
<path stroke-width="1" stroke="black" d="M 274 227 276 134"/>
<path stroke-width="1" stroke="black" d="M 274 227 318 193"/>
<path stroke-width="1" stroke="black" d="M 159 207 318 193"/>
<path stroke-width="1" stroke="black" d="M 159 207 303 215"/>
<path stroke-width="1" stroke="black" d="M 159 207 309 147"/>
<path stroke-width="1" stroke="black" d="M 159 207 142 184"/>
<path stroke-width="1" stroke="black" d="M 146 301 188 223"/>
<path stroke-width="1" stroke="black" d="M 188 223 242 123"/>
<path stroke-width="1" stroke="black" d="M 188 223 171 137"/>
<path stroke-width="1" stroke="black" d="M 188 223 327 170"/>
<path stroke-width="1" stroke="black" d="M 188 223 274 227"/>
<path stroke-width="1" stroke="black" d="M 188 223 222 232"/>
<path stroke-width="1" stroke="black" d="M 188 223 159 207"/>
<path stroke-width="1" stroke="black" d="M 188 223 146 301"/>
<path stroke-width="1" stroke="black" d="M 159 207 276 134"/>
<path stroke-width="1" stroke="black" d="M 188 223 207 134"/>
<path stroke-width="1" stroke="black" d="M 188 223 160 164"/>
<path stroke-width="1" stroke="black" d="M 188 223 276 134"/>
<path stroke-width="1" stroke="black" d="M 188 223 318 193"/>
<path stroke-width="1" stroke="black" d="M 188 223 303 215"/>
<path stroke-width="1" stroke="black" d="M 188 223 309 147"/>
<path stroke-width="1" stroke="black" d="M 188 223 142 184"/>
<path stroke-width="1" stroke="black" d="M 177 57 207 134"/>
<path stroke-width="1" stroke="black" d="M 207 134 242 123"/>
<path stroke-width="1" stroke="black" d="M 207 134 171 137"/>
<path stroke-width="1" stroke="black" d="M 207 134 327 170"/>
<path stroke-width="1" stroke="black" d="M 207 134 274 227"/>
<path stroke-width="1" stroke="black" d="M 207 134 222 232"/>
<path stroke-width="1" stroke="black" d="M 188 223 236 175"/>
<path stroke-width="1" stroke="black" d="M 159 207 160 164"/>
<path stroke-width="1" stroke="black" d="M 159 207 236 175"/>
<path stroke-width="1" stroke="black" d="M 159 207 207 134"/>
<path stroke-width="1" stroke="black" d="M 274 227 303 215"/>
<path stroke-width="1" stroke="black" d="M 274 227 309 147"/>
<path stroke-width="1" stroke="black" d="M 274 227 142 184"/>
<path stroke-width="1" stroke="black" d="M 212 320 222 232"/>
<path stroke-width="1" stroke="black" d="M 222 232 242 123"/>
<path stroke-width="1" stroke="black" d="M 222 232 171 137"/>
<path stroke-width="1" stroke="black" d="M 222 232 327 170"/>
<path stroke-width="1" stroke="black" d="M 222 232 274 227"/>
<path stroke-width="1" stroke="black" d="M 222 232 212 320"/>
<path stroke-width="1" stroke="black" d="M 222 232 159 207"/>
<path stroke-width="1" stroke="black" d="M 222 232 188 223"/>
<path stroke-width="1" stroke="black" d="M 222 232 207 134"/>
<path stroke-width="1" stroke="black" d="M 222 232 236 175"/>
<path stroke-width="1" stroke="black" d="M 222 232 160 164"/>
<path stroke-width="1" stroke="black" d="M 222 232 276 134"/>
<path stroke-width="1" stroke="black" d="M 222 232 318 193"/>
<path stroke-width="1" stroke="black" d="M 222 232 303 215"/>
<path stroke-width="1" stroke="black" d="M 222 232 309 147"/>
<path stroke-width="1" stroke="black" d="M 222 232 142 184"/>
<path stroke-width="1" stroke="black" d="M 84 263 159 207"/>
<path stroke-width="1" stroke="black" d="M 159 207 242 123"/>
<path stroke-width="1" stroke="black" d="M 159 207 171 137"/>
<path stroke-width="1" stroke="black" d="M 159 207 327 170"/>
<path stroke-width="1" stroke="black" d="M 159 207 274 227"/>
<path stroke-width="1" stroke="black" d="M 159 207 222 232"/>
<path stroke-width="1" stroke="black" d="M 159 207 84 263"/>
<path stroke-width="1" stroke="black" d="M 159 207 188 223"/>
<path stroke-width="1" stroke="black" d="M 142 184 309 147"/>
<path stroke-width="1" stroke="black" d="M 142 184 20 188"/>
<circle cx="246" cy="20" r="20.0" style="fill:gray;stroke:black;stroke-width:1.0"/>
<circle cx="242" cy="123" r="20.0" style="fill:gray;stroke:black;stroke-width:1.0"/>
<circle cx="118" cy="66" r="20.0" style="fill:gray;stroke:black;stroke-width:1.0"/>
<circle cx="171" cy="137" r="20.0" style="fill:gray;stroke:black;stroke-width:1.0"/>
<circle cx="420" cy="148" r="20.0" style="fill:gray;stroke:black;stroke-width:1.0"/>
<circle cx="327" cy="170" r="20.0" style="fill:gray;stroke:black;stroke-width:1.0"/>
<circle cx="304" cy="311" r="20.0" style="fill:gray;stroke:black;stroke-width:1.0"/>
<circle cx="274" cy="227" r="20.0" style="fill:gray;stroke:black;stroke-width:1.0"/>
<circle cx="212" cy="320" r="20.0" style="fill:gray;stroke:black;stroke-width:1.0"/>
<circle cx="222" cy="232" r="20.0" style="fill:gray;stroke:black;stroke-width:1.0"/>
<circle cx="84" cy="263" r="20.0" style="fill:gray;stroke:black;stroke-width:1.0"/>
<circle cx="159" cy="207" r="20.0" style="fill:gray;stroke:black;stroke-width:1.0"/>
<circle cx="146" cy="301" r="20.0" style="fill:gray;stroke:black;stroke-width:1.0"/>
<circle cx="188" cy="223" r="20.0" style="fill:gray;stroke:black;stroke-width:1.0"/>
<circle cx="177" cy="57" r="20.0" style="fill:gray;stroke:black;stroke-width:1.0"/>
<circle cx="207" cy="134" r="20.0" style="fill:gray;stroke:black;stroke-width:1.0"/>
<circle cx="245" cy="202" r="20.0" style="fill:gray;stroke:black;stroke-width:1.0"/>
<circle cx="236" cy="175" r="20.0" style="fill:gray;stroke:black;stroke-width:1.0"/>
<circle cx="72" cy="130" r="20.0" style="fill:gray;stroke:black;stroke-width:1.0"/>
<circle cx="160" cy="164" r="20.0" style="fill:gray;stroke:black;stroke-width:1.0"/>
<circle cx="313" cy="56" r="20.0" style="fill:gray;stroke:black;stroke-width:1.0"/>
<circle cx="276" cy="134" r="20.0" style="fill:gray;stroke:black;stroke-width:1.0"/>
<circle cx="408" cy="226" r="20.0" style="fill:gray;stroke:black;stroke-width:1.0"/>
<circle cx="318" cy="193" r="20.0" style="fill:gray;stroke:black;stroke-width:1.0"/>
<circle cx="363" cy="282" r="20.0" style="fill:gray;stroke:black;stroke-width:1.0"/>
<circle cx="303" cy="215" r="20.0" style="fill:gray;stroke:black;stroke-width:1.0"/>
<circle cx="377" cy="88" r="20.0" style="fill:gray;stroke:black;stroke-width:1.0"/>
<circle cx="309" cy="147" r="20.0" style="fill:gray;stroke:black;stroke-width:1.0"/>
<circle cx="20" cy="188" r="20.0" style="fill:gray;stroke:black;stroke-width:1.0"/>
<circle cx="142" cy="184" r="20.0" style="fill:gray;stroke:black;stroke-width:1.0"/>
</svg>
