<svg width="440" height="340" xmlns="http://www.w3.org/2000/svg">
<path stroke-width="11.333333333333334" stroke="black" d="M 317 320 269 225"/>
<path stroke-width="0.5" stroke="black" d="M 206 120 154 204"/>
<path stroke-width="0.5" stroke="black" d="M 206 120 334 163"/>
<path stroke-width="20.0" stroke="black" d="M 206 120 194 45"/>
<path stroke-width="0.5" stroke="black" d="M 206 120 309 136"/>
<path stroke-width="0.5" stroke="black" d="M 206 120 138 127"/>
<path stroke-width="0.5" stroke="black" d="M 206 120 239 100"/>
<path stroke-width="0.5" stroke="black" d="M 206 120 170 104"/>
<path stroke-width="0.5" stroke="black" d="M 206 120 124 191"/>
<path stroke-width="20.0" stroke="black" d="M 377 91 309 136"/>
<path stroke-width="0.5" stroke="black" d="M 309 136 269 225"/>
<path stroke-width="0.5" stroke="black" d="M 309 136 276 183"/>
<path stroke-width="0.5" stroke="black" d="M 309 136 222 230"/>
<path stroke-width="0.5" stroke="black" d="M 206 120 281 108"/>
<path stroke-width="0.5" stroke="black" d="M 309 136 186 222"/>
<path stroke-width="0.5" stroke="black" d="M 309 136 114 156"/>
<path stroke-width="0.5" stroke="black" d="M 309 136 281 108"/>
<path stroke-width="0.5" stroke="black" d="M 309 136 154 204"/>
<path stroke-width="0.5" stroke="black" d="M 309 136 334 163"/>
<path stroke-width="0.5" stroke="black" d="M 309 136 206 120"/>
<path stroke-width="20.0" stroke="black" d="M 309 136 377 91"/>
<path stroke-width="0.5" stroke="black" d="M 309 136 138 127"/>
<path stroke-width="0.5" stroke="black" d="M 309 136 239 100"/>
<path stroke-width="0.5" stroke="black" d="M 309 136 170 104"/>
<path stroke-width="0.5" stroke="black" d="M 309 136 124 191"/>
<path stroke-width="20.0" stroke="black" d="M 75 70 138 127"/>
<path stroke-width="0.5" stroke="black" d="M 138 127 269 225"/>
<path stroke-width="0.5" stroke="black" d="M 309 136 319 199"/>
<path stroke-width="0.5" stroke="black" d="M 138 127 276 183"/>
<path stroke-width="0.5" stroke="black" d="M 206 120 114 156"/>
<path stroke-width="0.5" stroke="black" d="M 206 120 186 222"/>
<path stroke-width="0.5" stroke="black" d="M 154 204 206 120"/>
<path stroke-width="0.5" stroke="black" d="M 154 204 309 136"/>
<path stroke-width="0.5" stroke="black" d="M 154 204 138 127"/>
<path stroke-width="0.5" stroke="black" d="M 154 204 239 100"/>
<path stroke-width="0.5" stroke="black" d="M 154 204 170 104"/>
<path stroke-width="0.5" stroke="black" d="M 154 204 124 191"/>
<path stroke-width="20.0" stroke="black" d="M 420 167 334 163"/>
<path stroke-width="0.5" stroke="black" d="M 334 163 269 225"/>
<path stroke-width="0.5" stroke="black" d="M 334 163 276 183"/>
<path stroke-width="0.5" stroke="black" d="M 334 163 222 230"/>
<path stroke-width="0.5" stroke="black" d="M 334 163 186 222"/>
<path stroke-width="0.5" stroke="black" d="M 334 163 319 199"/>
<path stroke-width="0.5" stroke="black" d="M 206 120 319 199"/>
<path stroke-width="0.5" stroke="black" d="M 334 163 114 156"/>
<path stroke-width="0.5" stroke="black" d="M 334 163 154 204"/>
<path stroke-width="20.0" stroke="black" d="M 334 163 420 167"/>
<path stroke-width="0.5" stroke="black" d="M 334 163 206 120"/>
<path stroke-width="0.5" stroke="black" d="M 334 163 309 136"/>
<path stroke-width="0.5" stroke="black" d="M 334 163 138 127"/>
<path stroke-width="0.5" stroke="black" d="M 334 163 239 100"/>
<path stroke-width="0.5" stroke="black" d="M 334 163 170 104"/>
<path stroke-width="0.5" stroke="black" d="M 334 163 124 191"/>
<path stroke-width="20.0" stroke="black" d="M 194 45 206 120"/>
<path stroke-width="0.5" stroke="black" d="M 206 120 269 225"/>
<path stroke-width="0.5" stroke="black" d="M 206 120 276 183"/>
<path stroke-width="0.5" stroke="black" d="M 206 120 222 230"/>
<path stroke-width="0.5" stroke="black" d="M 334 163 281 108"/>
<path stroke-width="0.5" stroke="black" d="M 154 204 334 163"/>
<path stroke-width="0.5" stroke="black" d="M 138 127 222 230"/>
<path stroke-width="0.5" stroke="black" d="M 138 127 319 199"/>
<path stroke-width="0.5" stroke="black" d="M 170 104 186 222"/>
<path stroke-width="0.5" stroke="black" d="M 170 104 319 199"/>
<path stroke-width="0.5" stroke="black" d="M 170 104 114 156"/>
<path stroke-width="0.5" stroke="black" d="M 170 104 281 108"/>
<path stroke-width="0.5" stroke="black" d="M 170 104 154 204"/>
<path stroke-width="0.5" stroke="black" d="M 170 104 334 163"/>
<path stroke-width="0.5" stroke="black" d="M 170 104 206 120"/>
<path stroke-width="0.5" stroke="black" d="M 170 104 309 136"/>
<path stroke-width="0.5" stroke="black" d="M 170 104 138 127"/>
<path stroke-width="0.5" stroke="black" d="M 170 104 239 100"/>
<path stroke-width="20.0" stroke="black" d="M 170 104 137 26"/>
<path stroke-width="0.5" stroke="black" d="M 170 104 124 191"/>
<path stroke-width="0.5" stroke="black" d="M 170 104 222 230"/>
<path stroke-width="11.333333333333334" stroke="black" d="M 20 241 124 191"/>
<path stroke-width="0.5" stroke="black" d="M 124 191 276 183"/>
<path stroke-width="0.5" stroke="black" d="M 124 191 222 230"/>
<path stroke-width="0.5" stroke="black" d="M 124 191 186 222"/>
<path stroke-width="0.5" stroke="black" d="M 124 191 319 199"/>
<path stroke-width="0.5" stroke="black" d="M 124 191 114 156"/>
<path stroke-width="0.5" stroke="black" d="M 124 191 281 108"/>
<path stroke-width="0.5" stroke="black" d="M 124 191 154 204"/>
<path stroke-width="0.5" stroke="black" d="M 124 191 334 163"/>
<path stroke-width="0.5" stroke="black" d="M 124 191 206 120"/>
<path stroke-width="0.5" stroke="black" d="M 124 191 309 136"/>
<path stroke-width="0.5" stroke="black" d="M 124 191 138 127"/>
<path stroke-width="0.5" stroke="black" d="M 124 191 239 100"/>
<path stroke-width="0.5" stroke="black" d="M 124 191 269 225"/>
<path stroke-width="0.5" stroke="black" d="M 138 127 186 222"/>
<path stroke-width="0.5" stroke="black" d="M 170 104 276 183"/>
<path stroke-width="20.0" stroke="black" d="M 137 26 170 104"/>
<path stroke-width="0.5" stroke="black" d="M 138 127 114 156"/>
<path stroke-width="0.5" stroke="black" d="M 138 127 281 108"/>
<path stroke-width="0.5" stroke="black" d="M 138 127 154 204"/>
<path stroke-width="0.5" stroke="black" d="M 138 127 334 163"/>
<path stroke-width="0.5" stroke="black" d="M 138 127 206 120"/>
<path stroke-width="0.5" stroke="black" d="M 138 127 309 136"/>
<path stroke-width="20.0" stroke="black" d="M 138 127 75 70"/>
<path stroke-width="0.5" stroke="black" d="M 138 127 239 100"/>
<path stroke-width="0.5" stroke="black" d="M 138 127 170 104"/>
<path stroke-width="0.5" stroke="black" d="M 138 127 124 191"/>
<path stroke-width="20.0" stroke="black" d="M 254 20 239 100"/>
<path stroke-width="0.5" stroke="black" d="M 239 100 269 225"/>
<path stroke-width="0.5" stroke="black" d="M 170 104 269 225"/>
<path stroke-width="0.5" stroke="black" d="M 239 100 276 183"/>
<path stroke-width="0.5" stroke="black" d="M 239 100 186 222"/>
<path stroke-width="0.5" stroke="black" d="M 239 100 319 199"/>
<path stroke-width="0.5" stroke="black" d="M 239 100 114 156"/>
<path stroke-width="0.5" stroke="black" d="M 239 100 281 108"/>
<path stroke-width="0.5" stroke="black" d="M 239 100 154 204"/>
<path stroke-width="0.5" stroke="black" d="M 239 100 334 163"/>
<path stroke-width="0.5" stroke="black" d="M 239 100 206 120"/>
<path stroke-width="0.5" stroke="black" d="M 239 100 309 136"/>
<path stroke-width="0.5" stroke="black" d="M 239 100 138 127"/>
<path stroke-width="20.0" stroke="black" d="M 239 100 254 20"/>
<path stroke-width="0.5" stroke="black" d="M 239 100 170 104"/>
<path stroke-width="0.5" stroke="black" d="M 239 100 124 191"/>
<path stroke-width="0.5" stroke="black" d="M 239 100 222 230"/>
<path stroke-width="20.0" stroke="black" d="M 154 204 99 266"/>
<path stroke-width="0.5" stroke="black" d="M 154 204 281 108"/>
<path stroke-width="0.5" stroke="black" d="M 154 204 114 156"/>
<path stroke-width="0.5" stroke="black" d="M 276 183 124 191"/>
<path stroke-width="20.0" stroke="black" d="M 230 310 222 230"/>
<path stroke-width="0.5" stroke="black" d="M 222 230 269 225"/>
<path stroke-width="0.5" stroke="black" d="M 222 230 276 183"/>
<path stroke-width="20.0" stroke="black" d="M 222 230 230 310"/>
<path stroke-width="0.5" stroke="black" d="M 222 230 186 222"/>
<path stroke-width="0.5" stroke="black" d="M 222 230 319 199"/>
<path stroke-width="0.5" stroke="black" d="M 222 230 114 156"/>
<path stroke-width="0.5" stroke="black" d="M 222 230 281 108"/>
<path stroke-width="0.5" stroke="black" d="M 222 230 154 204"/>
<path stroke-width="0.5" stroke="black" d="M 222 230 334 163"/>
<path stroke-width="0.5" stroke="black" d="M 222 230 206 120"/>
<path stroke-width="0.5" stroke="black" d="M 276 183 170 104"/>
<path stroke-width="0.5" stroke="black" d="M 222 230 309 136"/>
<path stroke-width="0.5" stroke="black" d="M 222 230 239 100"/>
<path stroke-width="0.5" stroke="black" d="M 222 230 170 104"/>
<path stroke-width="0.5" stroke="black" d="M 222 230 124 191"/>
<path stroke-width="20.0" stroke="black" d="M 161 298 186 222"/>
<path stroke-width="0.5" stroke="black" d="M 186 222 269 225"/>
<path stroke-width="0.5" stroke="black" d="M 186 222 276 183"/>
<path stroke-width="0.5" stroke="black" d="M 186 222 222 230"/>
<path stroke-width="20.0" stroke="black" d="M 186 222 161 298"/>
<path stroke-width="0.5" stroke="black" d="M 186 222 319 199"/>
<path stroke-width="0.5" stroke="black" d="M 186 222 114 156"/>
<path stroke-width="0.5" stroke="black" d="M 186 222 281 108"/>
<path stroke-width="0.5" stroke="black" d="M 186 222 154 204"/>
<path stroke-width="0.5" stroke="black" d="M 222 230 138 127"/>
<path stroke-width="0.5" stroke="black" d="M 186 222 334 163"/>
<path stroke-width="0.5" stroke="black" d="M 276 183 239 100"/>
<path stroke-width="0.5" stroke="black" d="M 276 183 309 136"/>
<path stroke-width="11.333333333333334" stroke="black" d="M 269 225 317 320"/>
<path stroke-width="0.5" stroke="black" d="M 269 225 276 183"/>
<path stroke-width="0.5" stroke="black" d="M 269 225 222 230"/>
<path stroke-width="0.5" stroke="black" d="M 269 225 186 222"/>
<path stroke-width="0.5" stroke="black" d="M 269 225 319 199"/>
<path stroke-width="0.5" stroke="black" d="M 269 225 114 156"/>
<path stroke-width="0.5" stroke="black" d="M 269 225 281 108"/>
<path stroke-width="0.5" stroke="black" d="M 269 225 154 204"/>
<path stroke-width="0.5" stroke="black" d="M 269 225 334 163"/>
<path stroke-width="0.5" stroke="black" d="M 269 225 206 120"/>
<path stroke-width="0.5" stroke="black" d="M 269 225 309 136"/>
<path stroke-width="0.5" stroke="black" d="M 269 225 138 127"/>
<path stroke-width="0.5" stroke="black" d="M 276 183 138 127"/>
<path stroke-width="0.5" stroke="black" d="M 269 225 239 100"/>
<path stroke-width="0.5" stroke="black" d="M 269 225 124 191"/>
<path stroke-width="20.0" stroke="black" d="M 348 221 276 183"/>
<path stroke-width="0.5" stroke="black" d="M 276 183 269 225"/>
<path stroke-width="20.0" stroke="black" d="M 276 183 348 221"/>
<path stroke-width="0.5" stroke="black" d="M 276 183 222 230"/>
<path stroke-width="0.5" stroke="black" d="M 276 183 186 222"/>
<path stroke-width="0.5" stroke="black" d="M 276 183 319 199"/>
<path stroke-width="0.5" stroke="black" d="M 276 183 114 156"/>
<path stroke-width="0.5" stroke="black" d="M 276 183 281 108"/>
<path stroke-width="0.5" stroke="black" d="M 276 183 154 204"/>
<path stroke-width="0.5" stroke="black" d="M 276 183 334 163"/>
<path stroke-width="0.5" stroke="black" d="M 276 183 206 120"/>
<path stroke-width="0.5" stroke="black" d="M 269 225 170 104"/>
<path stroke-width="0.5" stroke="black" d="M 186 222 206 120"/>
<path stroke-width="0.5" stroke="black" d="M 186 222 309 136"/>
<path stroke-width="0.5" stroke="black" d="M 186 222 138 127"/>
<path stroke-width="0.5" stroke="black" d="M 114 156 138 127"/>
<path stroke-width="0.5" stroke="black" d="M 114 156 239 100"/>
<path stroke-width="0.5" stroke="black" d="M 114 156 170 104"/>
<path stroke-width="0.5" stroke="black" d="M 114 156 124 191"/>
<path stroke-width="20.0" stroke="black" d="M 325 38 281 108"/>
<path stroke-width="0.5" stroke="black" d="M 281 108 269 225"/>
<path stroke-width="0.5" stroke="black" d="M 281 108 276 183"/>
<path stroke-width="0.5" stroke="black" d="M 281 108 222 230"/>
<path stroke-width="0.5" stroke="black" d="M 281 108 186 222"/>
<path stroke-width="0.5" stroke="black" d="M 281 108 319 199"/>
<path stroke-width="0.5" stroke="black" d="M 281 108 114 156"/>
<path stroke-width="20.0" stroke="black" d="M 281 108 325 38"/>
<path stroke-width="0.5" stroke="black" d="M 114 156 309 136"/>
<path stroke-width="0.5" stroke="black" d="M 281 108 154 204"/>
<path stroke-width="0.5" stroke="black" d="M 281 108 206 120"/>
<path stroke-width="0.5" stroke="black" d="M 281 108 309 136"/>
<path stroke-width="0.5" stroke="black" d="M 281 108 138 127"/>
<path stroke-width="0.5" stroke="black" d="M 281 108 239 100"/>
<path stroke-width="0.5" stroke="black" d="M 281 108 170 104"/>
<path stroke-width="0.5" stroke="black" d="M 281 108 124 191"/>
<path stroke-width="20.0" stroke="black" d="M 99 266 154 204"/>
<path stroke-width="0.5" stroke="black" d="M 154 204 269 225"/>
<path stroke-width="0.5" stroke="black" d="M 154 204 276 183"/>
<path stroke-width="0.5" stroke="black" d="M 154 204 222 230"/>
<path stroke-width="0.5" stroke="black" d="M 154 204 186 222"/>
<path stroke-width="0.5" stroke="black" d="M 154 204 319 199"/>
<path stroke-width="0.5" stroke="black" d="M 281 108 334 163"/>
<path stroke-width="0.5" stroke="black" d="M 114 156 206 120"/>
<path stroke-width="0.5" stroke="black" d="M 114 156 334 163"/>
<path stroke-width="0.5" stroke="black" d="M 114 156 154 204"/>
<path stroke-width="0.5" stroke="black" d="M 186 222 239 100"/>
<path stroke-width="0.5" stroke="black" d="M 186 222 170 104"/>
<path stroke-width="0.5" stroke="black" d="M 186 222 124 191"/>
<path stroke-width="20.0" stroke="black" d="M 366 255 319 199"/>
<path stroke-width="0.5" stroke="black" d="M 319 199 269 225"/>
<path stroke-width="0.5" stroke="black" d="M 319 199 276 183"/>
<path stroke-width="0.5" stroke="black" d="M 319 199 222 230"/>
<path stroke-width="0.5" stroke="black" d="M 319 199 186 222"/>
<path stroke-width="20.0" stroke="black" d="M 319 199 366 255"/>
<path stroke-width="0.5" stroke="black" d="M 319 199 114 156"/>
<path stroke-width="0.5" stroke="black" d="M 319 199 281 108"/>
<path stroke-width="0.5" stroke="black" d="M 319 199 154 204"/>
<path stroke-width="0.5" stroke="black" d="M 319 199 334 163"/>
<path stroke-width="0.5" stroke="black" d="M 319 199 206 120"/>
<path stroke-width="0.5" stroke="black" d="M 319 199 309 136"/>
<path stroke-width="0.5" stroke="black" d="M 319 199 138 127"/>
<path stroke-width="0.5" stroke="black" d="M 319 199 239 100"/>
<path stroke-width="0.5" stroke="black" d="M 319 199 170 104"/>
<path stroke-width="0.5" stroke="black" d="M 319 199 124 191"/>
<path stroke-width="20.0" stroke="black" d="M 29 140 114 156"/>
<path stroke-width="0.5" stroke="black" d="M 114 156 269 225"/>
<path stroke-width="0.5" stroke="black" d="M 114 156 276 183"/>
<path stroke-width="0.5" stroke="black" d="M 114 156 222 230"/>
<path stroke-width="0.5" stroke="black" d="M 114 156 186 222"/>
<path stroke-width="0.5" stroke="black" d="M 114 156 319 199"/>
<path stroke-width="20.0" stroke="black" d="M 114 156 29 140"/>
<path stroke-width="0.5" stroke="black" d="M 114 156 281 108"/>
<path stroke-width="0.5" stroke="black" d="M 124 191 170 104"/>
<path stroke-width="11.333333333333334" stroke="black" d="M 124 191 20 241"/>
<circle cx="317" cy="320" r="20.0" style="fill:gray;stroke:black;stroke-width:1.0"/>
<circle cx="269" cy="225" r="20.0" style="fill:gray;stroke:black;stroke-width:1.0"/>
<circle cx="348" cy="221" r="20.0" style="fill:gray;stroke:black;stroke-width:1.0"/>
<circle cx="276" cy="183" r="20.0" style="fill:gray;stroke:black;stroke-width:1.0"/>
<circle cx="230" cy="310" r="20.0" style="fill:gray;stroke:black;stroke-width:1.0"/>
<circle cx="222" cy="230" r="20.0" style="fill:gray;stroke:black;stroke-width:1.0"/>
<circle cx="161" cy="298" r="20.0" style="fill:gray;stroke:black;stroke-width:1.0"/>
<circle cx="186" cy="222" r="20.0" style="fill:gray;stroke:black;stroke-width:1.0"/>
<circle cx="366" cy="255" r="20.0" style="fill:gray;stroke:black;stroke-width:1.0"/>
<circle cx="319" cy="199" r="20.0" style="fill:gray;stroke:black;stroke-width:1.0"/>
<circle cx="29" cy="140" r="20.0" style="fill:gray;stroke:black;stroke-width:1.0"/>
<circle cx="114" cy="156" r="20.0" style="fill:gray;stroke:black;stroke-width:1.0"/>
<circle cx="325" cy="38" r="20.0" style="fill:gray;stroke:black;stroke-width:1.0"/>
<circle cx="281" cy="108" r="20.0" style="fill:gray;stroke:black;stroke-width:1.0"/>
<circle cx="99" cy="266" r="20.0" style="fill:gray;stroke:black;stroke-width:1.0"/>
<circle cx="154" cy="204" r="20.0" style="fill:gray;stroke:black;stroke-width:1.0"/>
<circle cx="420" cy="167" r="20.0" style="fill:gray;stroke:black;stroke-width:1.0"/>
<circle cx="334" cy="163" r="20.0" style="fill:gray;stroke:black;stroke-width:1.0"/>
<circle cx="194" cy="45" r="20.0" style="fill:gray;stroke:black;stroke-width:1.0"/>
<circle cx="206" cy="120" r="20.0" style="fill:gray;stroke:black;stroke-width:1.0"/>
<circle cx="377" cy="91" r="20.0" style="fill:gray;stroke:black;stroke-width:1.0"/>
<circle cx="309" cy="136" r="20.0" style="fill:gray;stroke:black;stroke-width:1.0"/>
<circle cx="75" cy="70" r="20.0" style="fill:gray;stroke:black;stroke-width:1.0"/>
<circle cx="138" cy="127" r="20.0" style="fill:gray;stroke:black;stroke-width:1.0"/>
<circle cx="254" cy="20" r="20.0" style="fill:gray;stroke:black;stroke-width:1.0"/>
<circle cx="239" cy="100" r="20.0" style="fill:gray;stroke:black;stroke-width:1.0"/>
<circle cx="137" cy="26" r="20.0" style="fill:gray;stroke:black;stroke-width:1.0"/>
<circle cx="170" cy="104" r="20.0" style="fill:gray;stroke:black;stroke-width:1.0"/>
<circle cx="20" cy="241" r="20.0" style="fill:gray;stroke:black;stroke-width:1.0"/>
<circle cx="124" cy="191" r="20.0" style="fill:gray;stroke:black;stroke-width:1.0"/>
</svg>
