<svg width="440" height="340" xmlns="http://www.w3.org/2000/svg">
<path stroke-width="1" stroke="black" d="M 210 166 285 106"/>
<path stroke-width="1" stroke="black" d="M 265 320 301 43"/>
<path stroke-width="1" stroke="black" d="M 352 249 210 166"/>
<path stroke-width="1" stroke="black" d="M 352 249 285 106"/>
<path stroke-width="1" stroke="black" d="M 352 249 181 83"/>
<path stroke-width="1" stroke="black" d="M 352 249 197 20"/>
<path stroke-width="1" stroke="black" d="M 352 249 119 195"/>
<path stroke-width="1" stroke="black" d="M 352 249 20 162"/>
<path stroke-width="1" stroke="black" d="M 352 249 181 307"/>
<path stroke-width="1" stroke="black" d="M 265 320 420 164"/>
<path stroke-width="1" stroke="black" d="M 352 249 246 239"/>
<path stroke-width="1" stroke="black" d="M 352 249 82 259"/>
<path stroke-width="1" stroke="black" d="M 352 249 76 75"/>
<path stroke-width="1" stroke="black" d="M 352 249 420 164"/>
<path stroke-width="1" stroke="black" d="M 352 249 301 43"/>
<path stroke-width="1" stroke="black" d="M 82 259 210 166"/>
<path stroke-width="1" stroke="black" d="M 82 259 285 106"/>
<path stroke-width="1" stroke="black" d="M 82 259 181 83"/>
<path stroke-width="1" stroke="black" d="M 82 259 197 20"/>
<path stroke-width="1" stroke="black" d="M 352 249 265 320"/>
<path stroke-width="1" stroke="black" d="M 265 320 76 75"/>
<path stroke-width="1" stroke="black" d="M 265 320 82 259"/>
<path stroke-width="1" stroke="black" d="M 265 320 352 249"/>
<path stroke-width="1" stroke="black" d="M 246 239 181 83"/>
<path stroke-width="1" stroke="black" d="M 246 239 197 20"/>
<path stroke-width="1" stroke="black" d="M 246 239 119 195"/>
<path stroke-width="1" stroke="black" d="M 246 239 20 162"/>
<path stroke-width="1" stroke="black" d="M 246 239 181 307"/>
<path stroke-width="1" stroke="black" d="M 246 239 265 320"/>
<path stroke-width="1" stroke="black" d="M 246 239 352 249"/>
<path stroke-width="1" stroke="black" d="M 246 239 82 259"/>
<path stroke-width="1" stroke="black" d="M 246 239 76 75"/>
<path stroke-width="1" stroke="black" d="M 246 239 420 164"/>
<path stroke-width="1" stroke="black" d="M 246 239 301 43"/>
<path stroke-width="1" stroke="black" d="M 265 320 210 166"/>
<path stroke-width="1" stroke="black" d="M 265 320 285 106"/>
<path stroke-width="1" stroke="black" d="M 265 320 181 83"/>
<path stroke-width="1" stroke="black" d="M 265 320 197 20"/>
<path stroke-width="1" stroke="black" d="M 265 320 119 195"/>
<path stroke-width="1" stroke="black" d="M 265 320 20 162"/>
<path stroke-width="1" stroke="black" d="M 265 320 181 307"/>
<path stroke-width="1" stroke="black" d="M 265 320 246 239"/>
<path stroke-width="1" stroke="black" d="M 82 259 119 195"/>
<path stroke-width="1" stroke="black" d="M 82 259 20 162"/>
<path stroke-width="1" stroke="black" d="M 82 259 181 307"/>
<path stroke-width="1" stroke="black" d="M 82 259 246 239"/>
<path stroke-width="1" stroke="black" d="M 420 164 20 162"/>
<path stroke-width="1" stroke="black" d="M 420 164 181 307"/>
<path stroke-width="1" stroke="black" d="M 420 164 246 239"/>
<path stroke-width="1" stroke="black" d="M 420 164 265 320"/>
<path stroke-width="1" stroke="black" d="M 420 164 352 249"/>
<path stroke-width="1" stroke="black" d="M 420 164 82 259"/>
<path stroke-width="1" stroke="black" d="M 420 164 76 75"/>
<path stroke-width="1" stroke="black" d="M 420 164 301 43"/>
<path stroke-width="1" stroke="black" d="M 301 43 210 166"/>
<path stroke-width="1" stroke="black" d="M 301 43 285 106"/>
<path stroke-width="1" stroke="black" d="M 301 43 181 83"/>
<path stroke-width="1" stroke="black" d="M 301 43 197 20"/>
<path stroke-width="1" stroke="black" d="M 301 43 119 195"/>
<path stroke-width="1" stroke="black" d="M 301 43 20 162"/>
<path stroke-width="1" stroke="black" d="M 301 43 181 307"/>
<path stroke-width="1" stroke="black" d="M 301 43 246 239"/>
<path stroke-width="1" stroke="black" d="M 301 43 265 320"/>
<path stroke-width="1" stroke="black" d="M 301 43 352 249"/>
<path stroke-width="1" stroke="black" d="M 301 43 82 259"/>
<path stroke-width="1" stroke="black" d="M 420 164 119 195"/>
<path stroke-width="1" stroke="black" d="M 246 239 285 106"/>
<path stroke-width="1" stroke="black" d="M 420 164 197 20"/>
<path stroke-width="1" stroke="black" d="M 420 164 285 106"/>
<path stroke-width="1" stroke="black" d="M 82 259 265 320"/>
<path stroke-width="1" stroke="black" d="M 82 259 352 249"/>
<path stroke-width="1" stroke="black" d="M 82 259 76 75"/>
<path stroke-width="1" stroke="black" d="M 82 259 420 164"/>
<path stroke-width="1" stroke="black" d="M 82 259 301 43"/>
<path stroke-width="1" stroke="black" d="M 76 75 210 166"/>
<path stroke-width="1" stroke="black" d="M 76 75 285 106"/>
<path stroke-width="1" stroke="black" d="M 76 75 181 83"/>
<path stroke-width="1" stroke="black" d="M 76 75 197 20"/>
<path stroke-width="1" stroke="black" d="M 76 75 119 195"/>
<path stroke-width="1" stroke="black" d="M 76 75 20 162"/>
<path stroke-width="1" stroke="black" d="M 76 75 181 307"/>
<path stroke-width="1" stroke="black" d="M 76 75 246 239"/>
<path stroke-width="1" stroke="black" d="M 76 75 265 320"/>
<path stroke-width="1" stroke="black" d="M 76 75 352 249"/>
<path stroke-width="1" stroke="black" d="M 76 75 82 259"/>
<path stroke-width="1" stroke="black" d="M 76 75 420 164"/>
<path stroke-width="1" stroke="black" d="M 76 75 301 43"/>
<path stroke-width="1" stroke="black" d="M 420 164 210 166"/>
<path stroke-width="1" stroke="black" d="M 420 164 181 83"/>
<path stroke-width="1" stroke="black" d="M 246 239 210 166"/>
<path stroke-width="1" stroke="black" d="M 181 307 301 43"/>
<path stroke-width="1" stroke="black" d="M 181 307 420 164"/>
<path stroke-width="1" stroke="black" d="M 285 106 420 164"/>
<path stroke-width="1" stroke="black" d="M 285 106 301 43"/>
<path stroke-width="1" stroke="black" d="M 181 83 210 166"/>
<path stroke-width="1" stroke="black" d="M 181 83 285 106"/>
<path stroke-width="1" stroke="black" d="M 181 83 197 20"/>
<path stroke-width="1" stroke="black" d="M 181 83 119 195"/>
<path stroke-width="1" stroke="black" d="M 181 83 20 162"/>
<path stroke-width="1" stroke="black" d="M 181 83 181 307"/>
<path stroke-width="1" stroke="black" d="M 181 83 246 239"/>
<path stroke-width="1" stroke="black" d="M 181 83 265 320"/>
<path stroke-width="1" stroke="black" d="M 181 83 352 249"/>
<path stroke-width="1" stroke="black" d="M 181 83 82 259"/>
<path stroke-width="1" stroke="black" d="M 181 83 76 75"/>
<path stroke-width="1" stroke="black" d="M 181 83 420 164"/>
<path stroke-width="1" stroke="black" d="M 181 83 301 43"/>
<path stroke-width="1" stroke="black" d="M 197 20 210 166"/>
<path stroke-width="1" stroke="black" d="M 197 20 285 106"/>
<path stroke-width="1" stroke="black" d="M 197 20 181 83"/>
<path stroke-width="1" stroke="black" d="M 197 20 119 195"/>
<path stroke-width="1" stroke="black" d="M 285 106 76 75"/>
<path stroke-width="1" stroke="black" d="M 197 20 20 162"/>
<path stroke-width="1" stroke="black" d="M 285 106 82 259"/>
<path stroke-width="1" stroke="black" d="M 285 106 265 320"/>
<path stroke-width="1" stroke="black" d="M 210 166 181 83"/>
<path stroke-width="1" stroke="black" d="M 210 166 197 20"/>
<path stroke-width="1" stroke="black" d="M 210 166 119 195"/>
<path stroke-width="1" stroke="black" d="M 210 166 20 162"/>
<path stroke-width="1" stroke="black" d="M 210 166 181 307"/>
<path stroke-width="1" stroke="black" d="M 210 166 246 239"/>
<path stroke-width="1" stroke="black" d="M 210 166 265 320"/>
<path stroke-width="1" stroke="black" d="M 210 166 352 249"/>
<path stroke-width="1" stroke="black" d="M 210 166 82 259"/>
<path stroke-width="1" stroke="black" d="M 210 166 76 75"/>
<path stroke-width="1" stroke="black" d="M 210 166 420 164"/>
<path stroke-width="1" stroke="black" d="M 210 166 301 43"/>
<path stroke-width="1" stroke="black" d="M 285 106 210 166"/>
<path stroke-width="1" stroke="black" d="M 285 106 181 83"/>
<path stroke-width="1" stroke="black" d="M 285 106 197 20"/>
<path stroke-width="1" stroke="black" d="M 285 106 119 195"/>
<path stroke-width="1" stroke="black" d="M 285 106 20 162"/>
<path stroke-width="1" stroke="black" d="M 285 106 181 307"/>
<path stroke-width="1" stroke="black" d="M 285 106 246 239"/>
<path stroke-width="1" stroke="black" d="M 285 106 352 249"/>
<path stroke-width="1" stroke="black" d="M 301 43 76 75"/>
<path stroke-width="1" stroke="black" d="M 197 20 181 307"/>
<path stroke-width="1" stroke="black" d="M 197 20 265 320"/>
<path stroke-width="1" stroke="black" d="M 20 162 181 307"/>
<path stroke-width="1" stroke="black" d="M 20 162 246 239"/>
<path stroke-width="1" stroke="black" d="M 20 162 265 320"/>
<path stroke-width="1" stroke="black" d="M 20 162 352 249"/>
<path stroke-width="1" stroke="black" d="M 20 162 82 259"/>
<path stroke-width="1" stroke="black" d="M 20 162 76 75"/>
<path stroke-width="1" stroke="black" d="M 20 162 420 164"/>
<path stroke-width="1" stroke="black" d="M 20 162 301 43"/>
<path stroke-width="1" stroke="black" d="M 181 307 210 166"/>
<path stroke-width="1" stroke="black" d="M 181 307 285 106"/>
<path stroke-width="1" stroke="black" d="M 181 307 181 83"/>
<path stroke-width="1" stroke="black" d="M 181 307 197 20"/>
<path stroke-width="1" stroke="black" d="M 181 307 119 195"/>
<path stroke-width="1" stroke="black" d="M 181 307 20 162"/>
<path stroke-width="1" stroke="black" d="M 181 307 246 239"/>
<path stroke-width="1" stroke="black" d="M 181 307 265 320"/>
<path stroke-width="1" stroke="black" d="M 181 307 352 249"/>
<path stroke-width="1" stroke="black" d="M 181 307 82 259"/>
<path stroke-width="1" stroke="black" d="M 181 307 76 75"/>
<path stroke-width="1" stroke="black" d="M 20 162 119 195"/>
<path stroke-width="1" stroke="black" d="M 197 20 246 239"/>
<path stroke-width="1" stroke="black" d="M 20 162 197 20"/>
<path stroke-width="1" stroke="black" d="M 20 162 285 106"/>
<path stroke-width="1" stroke="black" d="M 197 20 352 249"/>
<path stroke-width="1" stroke="black" d="M 197 20 82 259"/>
<path stroke-width="1" stroke="black" d="M 197 20 76 75"/>
<path stroke-width="1" stroke="black" d="M 197 20 420 164"/>
<path stroke-width="1" stroke="black" d="M 197 20 301 43"/>
<path stroke-width="1" stroke="black" d="M 119 195 210 166"/>
<path stroke-width="1" stroke="black" d="M 119 195 285 106"/>
<path stroke-width="1" stroke="black" d="M 119 195 181 83"/>
<path stroke-width="1" stroke="black" d="M 119 195 197 20"/>
<path stroke-width="1" stroke="black" d="M 119 195 20 162"/>
<path stroke-width="1" stroke="black" d="M 119 195 181 307"/>
<path stroke-width="1" stroke="black" d="M 119 195 246 239"/>
<path stroke-width="1" stroke="black" d="M 119 195 265 320"/>
<path stroke-width="1" stroke="black" d="M 119 195 352 249"/>
<path stroke-width="1" stroke="black" d="M 119 195 82 259"/>
<path stroke-width="1" stroke="black" d="M 119 195 76 75"/>
<path stroke-width="1" stroke="black" d="M 119 195 420 164"/>
<path stroke-width="1" stroke="black" d="M 119 195 301 43"/>
<path stroke-width="1" stroke="black" d="M 20 162 210 166"/>
<path stroke-width="1" stroke="black" d="M 20 162 181 83"/>
<path stroke-width="1" stroke="black" d="M 301 43 420 164"/>
<circle cx="210" cy="166" r="7.0" style="fill:blue;stroke:black;stroke-width:1.0"/>
<circle cx="285" cy="106" r="7.0" style="fill:orange;stroke:black;stroke-width:1.0"/>
<circle cx="181" cy="83" r="7.0" style="fill:blue;stroke:black;stroke-width:1.0"/>
<circle cx="197" cy="20" r="7.0" style="fill:purple;stroke:black;stroke-width:1.0"/>
<circle cx="119" cy="195" r="7.0" style="fill:green;stroke:black;stroke-width:1.0"/>
<circle cx="20" cy="162" r="7.0" style="fill:red;stroke:black;stroke-width:1.0"/>
<circle cx="181" cy="307" r="7.0" style="fill:blue;stroke:black;stroke-width:1.0"/>
<circle cx="246" cy="239" r="7.0" style="fill:blue;stroke:black;stroke-width:1.0"/>
<circle cx="265" cy="320" r="7.0" style="fill:blue;stroke:black;stroke-width:1.0"/>
<circle cx="352" cy="249" r="7.0" style="fill:blue;stroke:black;stroke-width:1.0"/>
<circle cx="82" cy="259" r="7.0" style="fill:red;stroke:black;stroke-width:1.0"/>
<circle cx="76" cy="75" r="7.0" style="fill:green;stroke:black;stroke-width:1.0"/>
<circle cx="420" cy="164" r="7.0" style="fill:orange;stroke:black;stroke-width:1.0"/>
<circle cx="301" cy="43" r="7.0" style="fill:purple;stroke:black;stroke-width:1.0"/>
</svg>
