<svg width="440" height="340" xmlns="http://www.w3.org/2000/svg">
<path stroke-width="1" stroke="black" d="M 199 176 22 214"/>
<path stroke-width="1" stroke="black" d="M 111 92 97 260"/>
<path stroke-width="1" stroke="black" d="M 144 20 199 176"/>
<path stroke-width="1" stroke="black" d="M 144 20 22 214"/>
<path stroke-width="1" stroke="black" d="M 144 20 338 289"/>
<path stroke-width="1" stroke="black" d="M 144 20 249 266"/>
<path stroke-width="1" stroke="black" d="M 144 20 266 21"/>
<path stroke-width="1" stroke="black" d="M 144 20 403 207"/>
<path stroke-width="1" stroke="black" d="M 144 20 20 108"/>
<path stroke-width="1" stroke="black" d="M 111 92 162 320"/>
<path stroke-width="1" stroke="black" d="M 144 20 274 131"/>
<path stroke-width="1" stroke="black" d="M 144 20 354 70"/>
<path stroke-width="1" stroke="black" d="M 144 20 420 121"/>
<path stroke-width="1" stroke="black" d="M 144 20 162 320"/>
<path stroke-width="1" stroke="black" d="M 144 20 97 260"/>
<path stroke-width="1" stroke="black" d="M 354 70 199 176"/>
<path stroke-width="1" stroke="black" d="M 354 70 22 214"/>
<path stroke-width="1" stroke="black" d="M 354 70 338 289"/>
<path stroke-width="1" stroke="black" d="M 354 70 249 266"/>
<path stroke-width="1" stroke="black" d="M 144 20 111 92"/>
<path stroke-width="1" stroke="black" d="M 111 92 420 121"/>
<path stroke-width="1" stroke="black" d="M 111 92 354 70"/>
<path stroke-width="1" stroke="black" d="M 111 92 144 20"/>
<path stroke-width="1" stroke="black" d="M 274 131 338 289"/>
<path stroke-width="1" stroke="black" d="M 274 131 249 266"/>
<path stroke-width="1" stroke="black" d="M 274 131 266 21"/>
<path stroke-width="1" stroke="black" d="M 274 131 403 207"/>
<path stroke-width="1" stroke="black" d="M 274 131 20 108"/>
<path stroke-width="1" stroke="black" d="M 274 131 111 92"/>
<path stroke-width="1" stroke="black" d="M 274 131 144 20"/>
<path stroke-width="1" stroke="black" d="M 274 131 354 70"/>
<path stroke-width="1" stroke="black" d="M 274 131 420 121"/>
<path stroke-width="1" stroke="black" d="M 274 131 162 320"/>
<path stroke-width="1" stroke="black" d="M 274 131 97 260"/>
<path stroke-width="1" stroke="black" d="M 111 92 199 176"/>
<path stroke-width="1" stroke="black" d="M 111 92 22 214"/>
<path stroke-width="1" stroke="black" d="M 111 92 338 289"/>
<path stroke-width="1" stroke="black" d="M 111 92 249 266"/>
<path stroke-width="1" stroke="black" d="M 111 92 266 21"/>
<path stroke-width="1" stroke="black" d="M 111 92 403 207"/>
<path stroke-width="1" stroke="black" d="M 111 92 20 108"/>
<path stroke-width="1" stroke="black" d="M 111 92 274 131"/>
<path stroke-width="1" stroke="black" d="M 354 70 266 21"/>
<path stroke-width="1" stroke="black" d="M 354 70 403 207"/>
<path stroke-width="1" stroke="black" d="M 354 70 20 108"/>
<path stroke-width="1" stroke="black" d="M 354 70 274 131"/>
<path stroke-width="1" stroke="black" d="M 162 320 403 207"/>
<path stroke-width="1" stroke="black" d="M 162 320 20 108"/>
<path stroke-width="1" stroke="black" d="M 162 320 274 131"/>
<path stroke-width="1" stroke="black" d="M 162 320 111 92"/>
<path stroke-width="1" stroke="black" d="M 162 320 144 20"/>
<path stroke-width="1" stroke="black" d="M 162 320 354 70"/>
<path stroke-width="1" stroke="black" d="M 162 320 420 121"/>
<path stroke-width="1" stroke="black" d="M 162 320 97 260"/>
<path stroke-width="1" stroke="black" d="M 97 260 199 176"/>
<path stroke-width="1" stroke="black" d="M 97 260 22 214"/>
<path stroke-width="1" stroke="black" d="M 97 260 338 289"/>
<path stroke-width="1" stroke="black" d="M 97 260 249 266"/>
<path stroke-width="1" stroke="black" d="M 97 260 266 21"/>
<path stroke-width="1" stroke="black" d="M 97 260 403 207"/>
<path stroke-width="1" stroke="black" d="M 97 260 20 108"/>
<path stroke-width="1" stroke="black" d="M 97 260 274 131"/>
<path stroke-width="1" stroke="black" d="M 97 260 111 92"/>
<path stroke-width="1" stroke="black" d="M 97 260 144 20"/>
<path stroke-width="1" stroke="black" d="M 97 260 354 70"/>
<path stroke-width="1" stroke="black" d="M 162 320 266 21"/>
<path stroke-width="1" stroke="black" d="M 274 131 22 214"/>
<path stroke-width="1" stroke="black" d="M 162 320 249 266"/>
<path stroke-width="1" stroke="black" d="M 162 320 22 214"/>
<path stroke-width="1" stroke="black" d="M 354 70 111 92"/>
<path stroke-width="1" stroke="black" d="M 354 70 144 20"/>
<path stroke-width="1" stroke="black" d="M 354 70 420 121"/>
<path stroke-width="1" stroke="black" d="M 354 70 162 320"/>
<path stroke-width="1" stroke="black" d="M 354 70 97 260"/>
<path stroke-width="1" stroke="black" d="M 420 121 199 176"/>
<path stroke-width="1" stroke="black" d="M 420 121 22 214"/>
<path stroke-width="1" stroke="black" d="M 420 121 338 289"/>
<path stroke-width="1" stroke="black" d="M 420 121 249 266"/>
<path stroke-width="1" stroke="black" d="M 420 121 266 21"/>
<path stroke-width="1" stroke="black" d="M 420 121 403 207"/>
<path stroke-width="1" stroke="black" d="M 420 121 20 108"/>
<path stroke-width="1" stroke="black" d="M 420 121 274 131"/>
<path stroke-width="1" stroke="black" d="M 420 121 111 92"/>
<path stroke-width="1" stroke="black" d="M 420 121 144 20"/>
<path stroke-width="1" stroke="black" d="M 420 121 354 70"/>
<path stroke-width="1" stroke="black" d="M 420 121 162 320"/>
<path stroke-width="1" stroke="black" d="M 420 121 97 260"/>
<path stroke-width="1" stroke="black" d="M 162 320 199 176"/>
<path stroke-width="1" stroke="black" d="M 162 320 338 289"/>
<path stroke-width="1" stroke="black" d="M 274 131 199 176"/>
<path stroke-width="1" stroke="black" d="M 20 108 97 260"/>
<path stroke-width="1" stroke="black" d="M 20 108 162 320"/>
<path stroke-width="1" stroke="black" d="M 22 214 162 320"/>
<path stroke-width="1" stroke="black" d="M 22 214 97 260"/>
<path stroke-width="1" stroke="black" d="M 338 289 199 176"/>
<path stroke-width="1" stroke="black" d="M 338 289 22 214"/>
<path stroke-width="1" stroke="black" d="M 338 289 249 266"/>
<path stroke-width="1" stroke="black" d="M 338 289 266 21"/>
<path stroke-width="1" stroke="black" d="M 338 289 403 207"/>
<path stroke-width="1" stroke="black" d="M 338 289 20 108"/>
<path stroke-width="1" stroke="black" d="M 338 289 274 131"/>
<path stroke-width="1" stroke="black" d="M 338 289 111 92"/>
<path stroke-width="1" stroke="black" d="M 338 289 144 20"/>
<path stroke-width="1" stroke="black" d="M 338 289 354 70"/>
<path stroke-width="1" stroke="black" d="M 338 289 420 121"/>
<path stroke-width="1" stroke="black" d="M 338 289 162 320"/>
<path stroke-width="1" stroke="black" d="M 338 289 97 260"/>
<path stroke-width="1" stroke="black" d="M 249 266 199 176"/>
<path stroke-width="1" stroke="black" d="M 249 266 22 214"/>
<path stroke-width="1" stroke="black" d="M 249 266 338 289"/>
<path stroke-width="1" stroke="black" d="M 249 266 266 21"/>
<path stroke-width="1" stroke="black" d="M 22 214 420 121"/>
<path stroke-width="1" stroke="black" d="M 249 266 403 207"/>
<path stroke-width="1" stroke="black" d="M 22 214 354 70"/>
<path stroke-width="1" stroke="black" d="M 22 214 111 92"/>
<path stroke-width="1" stroke="black" d="M 199 176 338 289"/>
<path stroke-width="1" stroke="black" d="M 199 176 249 266"/>
<path stroke-width="1" stroke="black" d="M 199 176 266 21"/>
<path stroke-width="1" stroke="black" d="M 199 176 403 207"/>
<path stroke-width="1" stroke="black" d="M 199 176 20 108"/>
<path stroke-width="1" stroke="black" d="M 199 176 274 131"/>
<path stroke-width="1" stroke="black" d="M 199 176 111 92"/>
<path stroke-width="1" stroke="black" d="M 199 176 144 20"/>
<path stroke-width="1" stroke="black" d="M 199 176 354 70"/>
<path stroke-width="1" stroke="black" d="M 199 176 420 121"/>
<path stroke-width="1" stroke="black" d="M 199 176 162 320"/>
<path stroke-width="1" stroke="black" d="M 199 176 97 260"/>
<path stroke-width="1" stroke="black" d="M 22 214 199 176"/>
<path stroke-width="1" stroke="black" d="M 22 214 338 289"/>
<path stroke-width="1" stroke="black" d="M 22 214 249 266"/>
<path stroke-width="1" stroke="black" d="M 22 214 266 21"/>
<path stroke-width="1" stroke="black" d="M 22 214 403 207"/>
<path stroke-width="1" stroke="black" d="M 22 214 20 108"/>
<path stroke-width="1" stroke="black" d="M 22 214 274 131"/>
<path stroke-width="1" stroke="black" d="M 22 214 144 20"/>
<path stroke-width="1" stroke="black" d="M 97 260 420 121"/>
<path stroke-width="1" stroke="black" d="M 249 266 20 108"/>
<path stroke-width="1" stroke="black" d="M 249 266 111 92"/>
<path stroke-width="1" stroke="black" d="M 403 207 20 108"/>
<path stroke-width="1" stroke="black" d="M 403 207 274 131"/>
<path stroke-width="1" stroke="black" d="M 403 207 111 92"/>
<path stroke-width="1" stroke="black" d="M 403 207 144 20"/>
<path stroke-width="1" stroke="black" d="M 403 207 354 70"/>
<path stroke-width="1" stroke="black" d="M 403 207 420 121"/>
<path stroke-width="1" stroke="black" d="M 403 207 162 320"/>
<path stroke-width="1" stroke="black" d="M 403 207 97 260"/>
<path stroke-width="1" stroke="black" d="M 20 108 199 176"/>
<path stroke-width="1" stroke="black" d="M 20 108 22 214"/>
<path stroke-width="1" stroke="black" d="M 20 108 338 289"/>
<path stroke-width="1" stroke="black" d="M 20 108 249 266"/>
<path stroke-width="1" stroke="black" d="M 20 108 266 21"/>
<path stroke-width="1" stroke="black" d="M 20 108 403 207"/>
<path stroke-width="1" stroke="black" d="M 20 108 274 131"/>
<path stroke-width="1" stroke="black" d="M 20 108 111 92"/>
<path stroke-width="1" stroke="black" d="M 20 108 144 20"/>
<path stroke-width="1" stroke="black" d="M 20 108 354 70"/>
<path stroke-width="1" stroke="black" d="M 20 108 420 121"/>
<path stroke-width="1" stroke="black" d="M 403 207 266 21"/>
<path stroke-width="1" stroke="black" d="M 249 266 274 131"/>
<path stroke-width="1" stroke="black" d="M 403 207 249 266"/>
<path stroke-width="1" stroke="black" d="M 403 207 22 214"/>
<path stroke-width="1" stroke="black" d="M 249 266 144 20"/>
<path stroke-width="1" stroke="black" d="M 249 266 354 70"/>
<path stroke-width="1" stroke="black" d="M 249 266 420 121"/>
<path stroke-width="1" stroke="black" d="M 249 266 162 320"/>
<path stroke-width="1" stroke="black" d="M 249 266 97 260"/>
<path stroke-width="1" stroke="black" d="M 266 21 199 176"/>
<path stroke-width="1" stroke="black" d="M 266 21 22 214"/>
<path stroke-width="1" stroke="black" d="M 266 21 338 289"/>
<path stroke-width="1" stroke="black" d="M 266 21 249 266"/>
<path stroke-width="1" stroke="black" d="M 266 21 403 207"/>
<path stroke-width="1" stroke="black" d="M 266 21 20 108"/>
<path stroke-width="1" stroke="black" d="M 266 21 274 131"/>
<path stroke-width="1" stroke="black" d="M 266 21 111 92"/>
<path stroke-width="1" stroke="black" d="M 266 21 144 20"/>
<path stroke-width="1" stroke="black" d="M 266 21 354 70"/>
<path stroke-width="1" stroke="black" d="M 266 21 420 121"/>
<path stroke-width="1" stroke="black" d="M 266 21 162 320"/>
<path stroke-width="1" stroke="black" d="M 266 21 97 260"/>
<path stroke-width="1" stroke="black" d="M 403 207 199 176"/>
<path stroke-width="1" stroke="black" d="M 403 207 338 289"/>
<path stroke-width="1" stroke="black" d="M 97 260 162 320"/>
<circle cx="199" cy="176" r="7.0" style="fill:blue;stroke:black;stroke-width:1.0"/>
<circle cx="22" cy="214" r="7.0" style="fill:orange;stroke:black;stroke-width:1.0"/>
<circle cx="338" cy="289" r="7.0" style="fill:blue;stroke:black;stroke-width:1.0"/>
<circle cx="249" cy="266" r="7.0" style="fill:purple;stroke:black;stroke-width:1.0"/>
<circle cx="266" cy="21" r="7.0" style="fill:green;stroke:black;stroke-width:1.0"/>
<circle cx="403" cy="207" r="7.0" style="fill:red;stroke:black;stroke-width:1.0"/>
<circle cx="20" cy="108" r="7.0" style="fill:blue;stroke:black;stroke-width:1.0"/>
<circle cx="274" cy="131" r="7.0" style="fill:blue;stroke:black;stroke-width:1.0"/>
<circle cx="111" cy="92" r="7.0" style="fill:blue;stroke:black;stroke-width:1.0"/>
<circle cx="144" cy="20" r="7.0" style="fill:blue;stroke:black;stroke-width:1.0"/>
<circle cx="354" cy="70" r="7.0" style="fill:red;stroke:black;stroke-width:1.0"/>
<circle cx="420" cy="121" r="7.0" style="fill:green;stroke:black;stroke-width:1.0"/>
<circle cx="162" cy="320" r="7.0" style="fill:orange;stroke:black;stroke-width:1.0"/>
<circle cx="97" cy="260" r="7.0" style="fill:purple;stroke:black;stroke-width:1.0"/>
</svg>
