<svg width="440" height="340" xmlns="http://www.w3.org/2000/svg">
<path stroke-width="1" stroke="black" d="M 217 161 101 191"/>
<path stroke-width="1" stroke="black" d="M 26 120 420 203"/>
<path stroke-width="1" stroke="black" d="M 231 20 217 161"/>
<path stroke-width="1" stroke="black" d="M 231 20 101 191"/>
<path stroke-width="1" stroke="black" d="M 231 20 311 89"/>
<path stroke-width="1" stroke="black" d="M 231 20 384 124"/>
<path stroke-width="1" stroke="black" d="M 231 20 290 218"/>
<path stroke-width="1" stroke="black" d="M 231 20 275 308"/>
<path stroke-width="1" stroke="black" d="M 231 20 123 24"/>
<path stroke-width="1" stroke="black" d="M 26 120 20 218"/>
<path stroke-width="1" stroke="black" d="M 231 20 137 104"/>
<path stroke-width="1" stroke="black" d="M 231 20 145 320"/>
<path stroke-width="1" stroke="black" d="M 231 20 268 290"/>
<path stroke-width="1" stroke="black" d="M 231 20 20 218"/>
<path stroke-width="1" stroke="black" d="M 231 20 420 203"/>
<path stroke-width="1" stroke="black" d="M 145 320 217 161"/>
<path stroke-width="1" stroke="black" d="M 145 320 101 191"/>
<path stroke-width="1" stroke="black" d="M 145 320 311 89"/>
<path stroke-width="1" stroke="black" d="M 145 320 384 124"/>
<path stroke-width="1" stroke="black" d="M 231 20 26 120"/>
<path stroke-width="1" stroke="black" d="M 26 120 268 290"/>
<path stroke-width="1" stroke="black" d="M 26 120 145 320"/>
<path stroke-width="1" stroke="black" d="M 26 120 231 20"/>
<path stroke-width="1" stroke="black" d="M 137 104 311 89"/>
<path stroke-width="1" stroke="black" d="M 137 104 384 124"/>
<path stroke-width="1" stroke="black" d="M 137 104 290 218"/>
<path stroke-width="1" stroke="black" d="M 137 104 275 308"/>
<path stroke-width="1" stroke="black" d="M 137 104 123 24"/>
<path stroke-width="1" stroke="black" d="M 137 104 26 120"/>
<path stroke-width="1" stroke="black" d="M 137 104 231 20"/>
<path stroke-width="1" stroke="black" d="M 137 104 145 320"/>
<path stroke-width="1" stroke="black" d="M 137 104 268 290"/>
<path stroke-width="1" stroke="black" d="M 137 104 20 218"/>
<path stroke-width="1" stroke="black" d="M 137 104 420 203"/>
<path stroke-width="1" stroke="black" d="M 26 120 217 161"/>
<path stroke-width="1" stroke="black" d="M 26 120 101 191"/>
<path stroke-width="1" stroke="black" d="M 26 120 311 89"/>
<path stroke-width="1" stroke="black" d="M 26 120 384 124"/>
<path stroke-width="1" stroke="black" d="M 26 120 290 218"/>
<path stroke-width="1" stroke="black" d="M 26 120 275 308"/>
<path stroke-width="1" stroke="black" d="M 26 120 123 24"/>
<path stroke-width="1" stroke="black" d="M 26 120 137 104"/>
<path stroke-width="1" stroke="black" d="M 145 320 290 218"/>
<path stroke-width="1" stroke="black" d="M 145 320 275 308"/>
<path stroke-width="1" stroke="black" d="M 145 320 123 24"/>
<path stroke-width="1" stroke="black" d="M 145 320 137 104"/>
<path stroke-width="1" stroke="black" d="M 20 218 275 308"/>
<path stroke-width="1" stroke="black" d="M 20 218 123 24"/>
<path stroke-width="1" stroke="black" d="M 20 218 137 104"/>
<path stroke-width="1" stroke="black" d="M 20 218 26 120"/>
<path stroke-width="1" stroke="black" d="M 20 218 231 20"/>
<path stroke-width="1" stroke="black" d="M 20 218 145 320"/>
<path stroke-width="1" stroke="black" d="M 20 218 268 290"/>
<path stroke-width="1" stroke="black" d="M 20 218 420 203"/>
<path stroke-width="1" stroke="black" d="M 420 203 217 161"/>
<path stroke-width="1" stroke="black" d="M 420 203 101 191"/>
<path stroke-width="1" stroke="black" d="M 420 203 311 89"/>
<path stroke-width="1" stroke="black" d="M 420 203 384 124"/>
<path stroke-width="1" stroke="black" d="M 420 203 290 218"/>
<path stroke-width="1" stroke="black" d="M 420 203 275 308"/>
<path stroke-width="1" stroke="black" d="M 420 203 123 24"/>
<path stroke-width="1" stroke="black" d="M 420 203 137 104"/>
<path stroke-width="1" stroke="black" d="M 420 203 26 120"/>
<path stroke-width="1" stroke="black" d="M 420 203 231 20"/>
<path stroke-width="1" stroke="black" d="M 420 203 145 320"/>
<path stroke-width="1" stroke="black" d="M 20 218 290 218"/>
<path stroke-width="1" stroke="black" d="M 137 104 101 191"/>
<path stroke-width="1" stroke="black" d="M 20 218 384 124"/>
<path stroke-width="1" stroke="black" d="M 20 218 101 191"/>
<path stroke-width="1" stroke="black" d="M 145 320 26 120"/>
<path stroke-width="1" stroke="black" d="M 145 320 231 20"/>
<path stroke-width="1" stroke="black" d="M 145 320 268 290"/>
<path stroke-width="1" stroke="black" d="M 145 320 20 218"/>
<path stroke-width="1" stroke="black" d="M 145 320 420 203"/>
<path stroke-width="1" stroke="black" d="M 268 290 217 161"/>
<path stroke-width="1" stroke="black" d="M 268 290 101 191"/>
<path stroke-width="1" stroke="black" d="M 268 290 311 89"/>
<path stroke-width="1" stroke="black" d="M 268 290 384 124"/>
<path stroke-width="1" stroke="black" d="M 268 290 290 218"/>
<path stroke-width="1" stroke="black" d="M 268 290 275 308"/>
<path stroke-width="1" stroke="black" d="M 268 290 123 24"/>
<path stroke-width="1" stroke="black" d="M 268 290 137 104"/>
<path stroke-width="1" stroke="black" d="M 268 290 26 120"/>
<path stroke-width="1" stroke="black" d="M 268 290 231 20"/>
<path stroke-width="1" stroke="black" d="M 268 290 145 320"/>
<path stroke-width="1" stroke="black" d="M 268 290 20 218"/>
<path stroke-width="1" stroke="black" d="M 268 290 420 203"/>
<path stroke-width="1" stroke="black" d="M 20 218 217 161"/>
<path stroke-width="1" stroke="black" d="M 20 218 311 89"/>
<path stroke-width="1" stroke="black" d="M 137 104 217 161"/>
<path stroke-width="1" stroke="black" d="M 123 24 420 203"/>
<path stroke-width="1" stroke="black" d="M 123 24 20 218"/>
<path stroke-width="1" stroke="black" d="M 101 191 20 218"/>
<path stroke-width="1" stroke="black" d="M 101 191 420 203"/>
<path stroke-width="1" stroke="black" d="M 311 89 217 161"/>
<path stroke-width="1" stroke="black" d="M 311 89 101 191"/>
<path stroke-width="1" stroke="black" d="M 311 89 384 124"/>
<path stroke-width="1" stroke="black" d="M 311 89 290 218"/>
<path stroke-width="1" stroke="black" d="M 311 89 275 308"/>
<path stroke-width="1" stroke="black" d="M 311 89 123 24"/>
<path stroke-width="1" stroke="black" d="M 311 89 137 104"/>
<path stroke-width="1" stroke="black" d="M 311 89 26 120"/>
<path stroke-width="1" stroke="black" d="M 311 89 231 20"/>
<path stroke-width="1" stroke="black" d="M 311 89 145 320"/>
<path stroke-width="1" stroke="black" d="M 311 89 268 290"/>
<path stroke-width="1" stroke="black" d="M 311 89 20 218"/>
<path stroke-width="1" stroke="black" d="M 311 89 420 203"/>
<path stroke-width="1" stroke="black" d="M 384 124 217 161"/>
<path stroke-width="1" stroke="black" d="M 384 124 101 191"/>
<path stroke-width="1" stroke="black" d="M 384 124 311 89"/>
<path stroke-width="1" stroke="black" d="M 384 124 290 218"/>
<path stroke-width="1" stroke="black" d="M 101 191 268 290"/>
<path stroke-width="1" stroke="black" d="M 384 124 275 308"/>
<path stroke-width="1" stroke="black" d="M 101 191 145 320"/>
<path stroke-width="1" stroke="black" d="M 101 191 26 120"/>
<path stroke-width="1" stroke="black" d="M 217 161 311 89"/>
<path stroke-width="1" stroke="black" d="M 217 161 384 124"/>
<path stroke-width="1" stroke="black" d="M 217 161 290 218"/>
<path stroke-width="1" stroke="black" d="M 217 161 275 308"/>
<path stroke-width="1" stroke="black" d="M 217 161 123 24"/>
<path stroke-width="1" stroke="black" d="M 217 161 137 104"/>
<path stroke-width="1" stroke="black" d="M 217 161 26 120"/>
<path stroke-width="1" stroke="black" d="M 217 161 231 20"/>
<path stroke-width="1" stroke="black" d="M 217 161 145 320"/>
<path stroke-width="1" stroke="black" d="M 217 161 268 290"/>
<path stroke-width="1" stroke="black" d="M 217 161 20 218"/>
<path stroke-width="1" stroke="black" d="M 217 161 420 203"/>
<path stroke-width="1" stroke="black" d="M 101 191 217 161"/>
<path stroke-width="1" stroke="black" d="M 101 191 311 89"/>
<path stroke-width="1" stroke="black" d="M 101 191 384 124"/>
<path stroke-width="1" stroke="black" d="M 101 191 290 218"/>
<path stroke-width="1" stroke="black" d="M 101 191 275 308"/>
<path stroke-width="1" stroke="black" d="M 101 191 123 24"/>
<path stroke-width="1" stroke="black" d="M 101 191 137 104"/>
<path stroke-width="1" stroke="black" d="M 101 191 231 20"/>
<path stroke-width="1" stroke="black" d="M 420 203 268 290"/>
<path stroke-width="1" stroke="black" d="M 384 124 123 24"/>
<path stroke-width="1" stroke="black" d="M 384 124 26 120"/>
<path stroke-width="1" stroke="black" d="M 275 308 123 24"/>
<path stroke-width="1" stroke="black" d="M 275 308 137 104"/>
<path stroke-width="1" stroke="black" d="M 275 308 26 120"/>
<path stroke-width="1" stroke="black" d="M 275 308 231 20"/>
<path stroke-width="1" stroke="black" d="M 275 308 145 320"/>
<path stroke-width="1" stroke="black" d="M 275 308 268 290"/>
<path stroke-width="1" stroke="black" d="M 275 308 20 218"/>
<path stroke-width="1" stroke="black" d="M 275 308 420 203"/>
<path stroke-width="1" stroke="black" d="M 123 24 217 161"/>
<path stroke-width="1" stroke="black" d="M 123 24 101 191"/>
<path stroke-width="1" stroke="black" d="M 123 24 311 89"/>
<path stroke-width="1" stroke="black" d="M 123 24 384 124"/>
<path stroke-width="1" stroke="black" d="M 123 24 290 218"/>
<path stroke-width="1" stroke="black" d="M 123 24 275 308"/>
<path stroke-width="1" stroke="black" d="M 123 24 137 104"/>
<path stroke-width="1" stroke="black" d="M 123 24 26 120"/>
<path stroke-width="1" stroke="black" d="M 123 24 231 20"/>
<path stroke-width="1" stroke="black" d="M 123 24 145 320"/>
<path stroke-width="1" stroke="black" d="M 123 24 268 290"/>
<path stroke-width="1" stroke="black" d="M 275 308 290 218"/>
<path stroke-width="1" stroke="black" d="M 384 124 137 104"/>
<path stroke-width="1" stroke="black" d="M 275 308 384 124"/>
<path stroke-width="1" stroke="black" d="M 275 308 101 191"/>
<path stroke-width="1" stroke="black" d="M 384 124 231 20"/>
<path stroke-width="1" stroke="black" d="M 384 124 145 320"/>
<path stroke-width="1" stroke="black" d="M 384 124 268 290"/>
<path stroke-width="1" stroke="black" d="M 384 124 20 218"/>
<path stroke-width="1" stroke="black" d="M 384 124 420 203"/>
<path stroke-width="1" stroke="black" d="M 290 218 217 161"/>
<path stroke-width="1" stroke="black" d="M 290 218 101 191"/>
<path stroke-width="1" stroke="black" d="M 290 218 311 89"/>
<path stroke-width="1" stroke="black" d="M 290 218 384 124"/>
<path stroke-width="1" stroke="black" d="M 290 218 275 308"/>
<path stroke-width="1" stroke="black" d="M 290 218 123 24"/>
<path stroke-width="1" stroke="black" d="M 290 218 137 104"/>
<path stroke-width="1" stroke="black" d="M 290 218 26 120"/>
<path stroke-width="1" stroke="black" d="M 290 218 231 20"/>
<path stroke-width="1" stroke="black" d="M 290 218 145 320"/>
<path stroke-width="1" stroke="black" d="M 290 218 268 290"/>
<path stroke-width="1" stroke="black" d="M 290 218 20 218"/>
<path stroke-width="1" stroke="black" d="M 290 218 420 203"/>
<path stroke-width="1" stroke="black" d="M 275 308 217 161"/>
<path stroke-width="1" stroke="black" d="M 275 308 311 89"/>
<path stroke-width="1" stroke="black" d="M 420 203 20 218"/>
<circle cx="217" cy="161" r="7.0" style="fill:gray;stroke:black;stroke-width:1.0"/>
<circle cx="101" cy="191" r="7.0" style="fill:gray;stroke:black;stroke-width:1.0"/>
<circle cx="311" cy="89" r="7.0" style="fill:gray;stroke:black;stroke-width:1.0"/>
<circle cx="384" cy="124" r="7.0" style="fill:gray;stroke:black;stroke-width:1.0"/>
<circle cx="290" cy="218" r="7.0" style="fill:gray;stroke:black;stroke-width:1.0"/>
<circle cx="275" cy="308" r="7.0" style="fill:gray;stroke:black;stroke-width:1.0"/>
<circle cx="123" cy="24" r="7.0" style="fill:gray;stroke:black;stroke-width:1.0"/>
<circle cx="137" cy="104" r="7.0" style="fill:gray;stroke:black;stroke-width:1.0"/>
<circle cx="26" cy="120" r="7.0" style="fill:gray;stroke:black;stroke-width:1.0"/>
<circle cx="231" cy="20" r="7.0" style="fill:gray;stroke:black;stroke-width:1.0"/>
<circle cx="145" cy="320" r="7.0" style="fill:gray;stroke:black;stroke-width:1.0"/>
<circle cx="268" cy="290" r="7.0" style="fill:gray;stroke:black;stroke-width:1.0"/>
<circle cx="20" cy="218" r="7.0" style="fill:gray;stroke:black;stroke-width:1.0"/>
<circle cx="420" cy="203" r="7.0" style="fill:gray;stroke:black;stroke-width:1.0"/>
</svg>
