<svg width="440" height="340" xmlns="http://www.w3.org/2000/svg">
<path stroke-width="8.3" stroke="black" d="M 210 186 192 320"/>
<path stroke-width="0.5" stroke="black" d="M 271 105 28 215"/>
<path stroke-width="8.3" stroke="black" d="M 20 104 210 186"/>
<path stroke-width="0.5" stroke="black" d="M 20 104 192 320"/>
<path stroke-width="0.5" stroke="black" d="M 20 104 316 222"/>
<path stroke-width="0.5" stroke="black" d="M 20 104 132 119"/>
<path stroke-width="0.5" stroke="black" d="M 20 104 396 81"/>
<path stroke-width="0.5" stroke="black" d="M 20 104 419 163"/>
<path stroke-width="12.2" stroke="black" d="M 20 104 264 20"/>
<path stroke-width="0.5" stroke="black" d="M 271 105 99 280"/>
<path stroke-width="0.5" stroke="black" d="M 20 104 162 39"/>
<path stroke-width="0.5" stroke="black" d="M 20 104 322 311"/>
<path stroke-width="0.5" stroke="black" d="M 20 104 420 243"/>
<path stroke-width="0.5" stroke="black" d="M 20 104 99 280"/>
<path stroke-width="0.5" stroke="black" d="M 20 104 28 215"/>
<path stroke-width="8.3" stroke="black" d="M 322 311 210 186"/>
<path stroke-width="0.5" stroke="black" d="M 322 311 192 320"/>
<path stroke-width="0.5" stroke="black" d="M 322 311 316 222"/>
<path stroke-width="0.5" stroke="black" d="M 322 311 132 119"/>
<path stroke-width="0.5" stroke="black" d="M 20 104 271 105"/>
<path stroke-width="0.5" stroke="black" d="M 271 105 420 243"/>
<path stroke-width="0.5" stroke="black" d="M 271 105 322 311"/>
<path stroke-width="0.5" stroke="black" d="M 271 105 20 104"/>
<path stroke-width="0.5" stroke="black" d="M 162 39 316 222"/>
<path stroke-width="0.5" stroke="black" d="M 162 39 132 119"/>
<path stroke-width="0.5" stroke="black" d="M 162 39 396 81"/>
<path stroke-width="0.5" stroke="black" d="M 162 39 419 163"/>
<path stroke-width="0.5" stroke="black" d="M 162 39 264 20"/>
<path stroke-width="12.2" stroke="black" d="M 162 39 271 105"/>
<path stroke-width="0.5" stroke="black" d="M 162 39 20 104"/>
<path stroke-width="0.5" stroke="black" d="M 162 39 322 311"/>
<path stroke-width="0.5" stroke="black" d="M 162 39 420 243"/>
<path stroke-width="0.5" stroke="black" d="M 162 39 99 280"/>
<path stroke-width="0.5" stroke="black" d="M 162 39 28 215"/>
<path stroke-width="8.3" stroke="black" d="M 271 105 210 186"/>
<path stroke-width="0.5" stroke="black" d="M 271 105 192 320"/>
<path stroke-width="0.5" stroke="black" d="M 271 105 316 222"/>
<path stroke-width="0.5" stroke="black" d="M 271 105 132 119"/>
<path stroke-width="0.5" stroke="black" d="M 271 105 396 81"/>
<path stroke-width="0.5" stroke="black" d="M 271 105 419 163"/>
<path stroke-width="0.5" stroke="black" d="M 271 105 264 20"/>
<path stroke-width="12.2" stroke="black" d="M 271 105 162 39"/>
<path stroke-width="0.5" stroke="black" d="M 322 311 396 81"/>
<path stroke-width="12.2" stroke="black" d="M 322 311 419 163"/>
<path stroke-width="0.5" stroke="black" d="M 322 311 264 20"/>
<path stroke-width="0.5" stroke="black" d="M 322 311 162 39"/>
<path stroke-width="0.5" stroke="black" d="M 99 280 419 163"/>
<path stroke-width="0.5" stroke="black" d="M 99 280 264 20"/>
<path stroke-width="0.5" stroke="black" d="M 99 280 162 39"/>
<path stroke-width="0.5" stroke="black" d="M 99 280 271 105"/>
<path stroke-width="0.5" stroke="black" d="M 99 280 20 104"/>
<path stroke-width="0.5" stroke="black" d="M 99 280 322 311"/>
<path stroke-width="0.5" stroke="black" d="M 99 280 420 243"/>
<path stroke-width="0.5" stroke="black" d="M 99 280 28 215"/>
<path stroke-width="8.3" stroke="black" d="M 28 215 210 186"/>
<path stroke-width="0.5" stroke="black" d="M 28 215 192 320"/>
<path stroke-width="0.5" stroke="black" d="M 28 215 316 222"/>
<path stroke-width="12.2" stroke="black" d="M 28 215 132 119"/>
<path stroke-width="0.5" stroke="black" d="M 28 215 396 81"/>
<path stroke-width="0.5" stroke="black" d="M 28 215 419 163"/>
<path stroke-width="0.5" stroke="black" d="M 28 215 264 20"/>
<path stroke-width="0.5" stroke="black" d="M 28 215 162 39"/>
<path stroke-width="0.5" stroke="black" d="M 28 215 271 105"/>
<path stroke-width="0.5" stroke="black" d="M 28 215 20 104"/>
<path stroke-width="0.5" stroke="black" d="M 28 215 322 311"/>
<path stroke-width="0.5" stroke="black" d="M 99 280 396 81"/>
<path stroke-width="0.5" stroke="black" d="M 162 39 192 320"/>
<path stroke-width="0.5" stroke="black" d="M 99 280 132 119"/>
<path stroke-width="12.2" stroke="black" d="M 99 280 192 320"/>
<path stroke-width="0.5" stroke="black" d="M 322 311 271 105"/>
<path stroke-width="0.5" stroke="black" d="M 322 311 20 104"/>
<path stroke-width="0.5" stroke="black" d="M 322 311 420 243"/>
<path stroke-width="0.5" stroke="black" d="M 322 311 99 280"/>
<path stroke-width="0.5" stroke="black" d="M 322 311 28 215"/>
<path stroke-width="8.3" stroke="black" d="M 420 243 210 186"/>
<path stroke-width="0.5" stroke="black" d="M 420 243 192 320"/>
<path stroke-width="0.5" stroke="black" d="M 420 243 316 222"/>
<path stroke-width="0.5" stroke="black" d="M 420 243 132 119"/>
<path stroke-width="12.2" stroke="black" d="M 420 243 396 81"/>
<path stroke-width="0.5" stroke="black" d="M 420 243 419 163"/>
<path stroke-width="0.5" stroke="black" d="M 420 243 264 20"/>
<path stroke-width="0.5" stroke="black" d="M 420 243 162 39"/>
<path stroke-width="0.5" stroke="black" d="M 420 243 271 105"/>
<path stroke-width="0.5" stroke="black" d="M 420 243 20 104"/>
<path stroke-width="0.5" stroke="black" d="M 420 243 322 311"/>
<path stroke-width="0.5" stroke="black" d="M 420 243 99 280"/>
<path stroke-width="0.5" stroke="black" d="M 420 243 28 215"/>
<path stroke-width="4.4" stroke="black" d="M 99 280 210 186"/>
<path stroke-width="0.5" stroke="black" d="M 99 280 316 222"/>
<path stroke-width="8.3" stroke="black" d="M 162 39 210 186"/>
<path stroke-width="0.5" stroke="black" d="M 264 20 28 215"/>
<path stroke-width="0.5" stroke="black" d="M 264 20 99 280"/>
<path stroke-width="12.2" stroke="black" d="M 192 320 99 280"/>
<path stroke-width="0.5" stroke="black" d="M 192 320 28 215"/>
<path stroke-width="20.0" stroke="black" d="M 316 222 210 186"/>
<path stroke-width="0.5" stroke="black" d="M 316 222 192 320"/>
<path stroke-width="0.5" stroke="black" d="M 316 222 132 119"/>
<path stroke-width="0.5" stroke="black" d="M 316 222 396 81"/>
<path stroke-width="0.5" stroke="black" d="M 316 222 419 163"/>
<path stroke-width="0.5" stroke="black" d="M 316 222 264 20"/>
<path stroke-width="0.5" stroke="black" d="M 316 222 162 39"/>
<path stroke-width="0.5" stroke="black" d="M 316 222 271 105"/>
<path stroke-width="0.5" stroke="black" d="M 316 222 20 104"/>
<path stroke-width="0.5" stroke="black" d="M 316 222 322 311"/>
<path stroke-width="0.5" stroke="black" d="M 316 222 420 243"/>
<path stroke-width="0.5" stroke="black" d="M 316 222 99 280"/>
<path stroke-width="0.5" stroke="black" d="M 316 222 28 215"/>
<path stroke-width="8.3" stroke="black" d="M 132 119 210 186"/>
<path stroke-width="0.5" stroke="black" d="M 132 119 192 320"/>
<path stroke-width="0.5" stroke="black" d="M 132 119 316 222"/>
<path stroke-width="0.5" stroke="black" d="M 132 119 396 81"/>
<path stroke-width="0.5" stroke="black" d="M 192 320 420 243"/>
<path stroke-width="0.5" stroke="black" d="M 132 119 419 163"/>
<path stroke-width="0.5" stroke="black" d="M 192 320 322 311"/>
<path stroke-width="0.5" stroke="black" d="M 192 320 271 105"/>
<path stroke-width="20.0" stroke="black" d="M 210 186 316 222"/>
<path stroke-width="8.3" stroke="black" d="M 210 186 132 119"/>
<path stroke-width="8.3" stroke="black" d="M 210 186 396 81"/>
<path stroke-width="8.3" stroke="black" d="M 210 186 419 163"/>
<path stroke-width="8.3" stroke="black" d="M 210 186 264 20"/>
<path stroke-width="8.3" stroke="black" d="M 210 186 162 39"/>
<path stroke-width="8.3" stroke="black" d="M 210 186 271 105"/>
<path stroke-width="8.3" stroke="black" d="M 210 186 20 104"/>
<path stroke-width="8.3" stroke="black" d="M 210 186 322 311"/>
<path stroke-width="8.3" stroke="black" d="M 210 186 420 243"/>
<path stroke-width="4.4" stroke="black" d="M 210 186 99 280"/>
<path stroke-width="8.3" stroke="black" d="M 210 186 28 215"/>
<path stroke-width="8.3" stroke="black" d="M 192 320 210 186"/>
<path stroke-width="0.5" stroke="black" d="M 192 320 316 222"/>
<path stroke-width="0.5" stroke="black" d="M 192 320 132 119"/>
<path stroke-width="0.5" stroke="black" d="M 192 320 396 81"/>
<path stroke-width="0.5" stroke="black" d="M 192 320 419 163"/>
<path stroke-width="0.5" stroke="black" d="M 192 320 264 20"/>
<path stroke-width="0.5" stroke="black" d="M 192 320 162 39"/>
<path stroke-width="0.5" stroke="black" d="M 192 320 20 104"/>
<path stroke-width="0.5" stroke="black" d="M 28 215 420 243"/>
<path stroke-width="0.5" stroke="black" d="M 132 119 264 20"/>
<path stroke-width="0.5" stroke="black" d="M 132 119 271 105"/>
<path stroke-width="0.5" stroke="black" d="M 419 163 264 20"/>
<path stroke-width="0.5" stroke="black" d="M 419 163 162 39"/>
<path stroke-width="0.5" stroke="black" d="M 419 163 271 105"/>
<path stroke-width="0.5" stroke="black" d="M 419 163 20 104"/>
<path stroke-width="12.2" stroke="black" d="M 419 163 322 311"/>
<path stroke-width="0.5" stroke="black" d="M 419 163 420 243"/>
<path stroke-width="0.5" stroke="black" d="M 419 163 99 280"/>
<path stroke-width="0.5" stroke="black" d="M 419 163 28 215"/>
<path stroke-width="8.3" stroke="black" d="M 264 20 210 186"/>
<path stroke-width="0.5" stroke="black" d="M 264 20 192 320"/>
<path stroke-width="0.5" stroke="black" d="M 264 20 316 222"/>
<path stroke-width="0.5" stroke="black" d="M 264 20 132 119"/>
<path stroke-width="0.5" stroke="black" d="M 264 20 396 81"/>
<path stroke-width="0.5" stroke="black" d="M 264 20 419 163"/>
<path stroke-width="0.5" stroke="black" d="M 264 20 162 39"/>
<path stroke-width="0.5" stroke="black" d="M 264 20 271 105"/>
<path stroke-width="12.2" stroke="black" d="M 264 20 20 104"/>
<path stroke-width="0.5" stroke="black" d="M 264 20 322 311"/>
<path stroke-width="0.5" stroke="black" d="M 264 20 420 243"/>
<path stroke-width="0.5" stroke="black" d="M 419 163 396 81"/>
<path stroke-width="0.5" stroke="black" d="M 132 119 162 39"/>
<path stroke-width="0.5" stroke="black" d="M 419 163 132 119"/>
<path stroke-width="0.5" stroke="black" d="M 419 163 192 320"/>
<path stroke-width="0.5" stroke="black" d="M 132 119 20 104"/>
<path stroke-width="0.5" stroke="black" d="M 132 119 322 311"/>
<path stroke-width="0.5" stroke="black" d="M 132 119 420 243"/>
<path stroke-width="0.5" stroke="black" d="M 132 119 99 280"/>
<path stroke-width="12.2" stroke="black" d="M 132 119 28 215"/>
<path stroke-width="8.3" stroke="black" d="M 396 81 210 186"/>
<path stroke-width="0.5" stroke="black" d="M 396 81 192 320"/>
<path stroke-width="0.5" stroke="black" d="M 396 81 316 222"/>
<path stroke-width="0.5" stroke="black" d="M 396 81 132 119"/>
<path stroke-width="0.5" stroke="black" d="M 396 81 419 163"/>
<path stroke-width="0.5" stroke="black" d="M 396 81 264 20"/>
<path stroke-width="0.5" stroke="black" d="M 396 81 162 39"/>
<path stroke-width="0.5" stroke="black" d="M 396 81 271 105"/>
<path stroke-width="0.5" stroke="black" d="M 396 81 20 104"/>
<path stroke-width="0.5" stroke="black" d="M 396 81 322 311"/>
<path stroke-width="12.2" stroke="black" d="M 396 81 420 243"/>
<path stroke-width="0.5" stroke="black" d="M 396 81 99 280"/>
<path stroke-width="0.5" stroke="black" d="M 396 81 28 215"/>
<path stroke-width="8.3" stroke="black" d="M 419 163 210 186"/>
<path stroke-width="0.5" stroke="black" d="M 419 163 316 222"/>
<path stroke-width="0.5" stroke="black" d="M 28 215 99 280"/>
<circle cx="210" cy="186" r="7.0" style="fill:blue;stroke:black;stroke-width:1.0"/>
<circle cx="192" cy="320" r="7.0" style="fill:orange;stroke:black;stroke-width:1.0"/>
<circle cx="316" cy="222" r="7.0" style="fill:blue;stroke:black;stroke-width:1.0"/>
<circle cx="132" cy="119" r="7.0" style="fill:purple;stroke:black;stroke-width:1.0"/>
<circle cx="396" cy="81" r="7.0" style="fill:green;stroke:black;stroke-width:1.0"/>
<circle cx="419" cy="163" r="7.0" style="fill:red;stroke:black;stroke-width:1.0"/>
<circle cx="264" cy="20" r="7.0" style="fill:blue;stroke:black;stroke-width:1.0"/>
<circle cx="162" cy="39" r="7.0" style="fill:blue;stroke:black;stroke-width:1.0"/>
<circle cx="271" cy="105" r="7.0" style="fill:blue;stroke:black;stroke-width:1.0"/>
<circle cx="20" cy="104" r="7.0" style="fill:blue;stroke:black;stroke-width:1.0"/>
<circle cx="322" cy="311" r="7.0" style="fill:red;stroke:black;stroke-width:1.0"/>
<circle cx="420" cy="243" r="7.0" style="fill:green;stroke:black;stroke-width:1.0"/>
<circle cx="99" cy="280" r="7.0" style="fill:orange;stroke:black;stroke-width:1.0"/>
<circle cx="28" cy="215" r="7.0" style="fill:purple;stroke:black;stroke-width:1.0"/>
</svg>
