<svg width="440" height="340" xmlns="http://www.w3.org/2000/svg">
<path stroke-width="8.3" stroke="black" d="M 226 172 20 189"/>
<path stroke-width="0.5" stroke="black" d="M 152 22 323 20"/>
<path stroke-width="8.3" stroke="black" d="M 350 265 226 172"/>
<path stroke-width="0.5" stroke="black" d="M 350 265 20 189"/>
<path stroke-width="0.5" stroke="black" d="M 350 265 324 141"/>
<path stroke-width="0.5" stroke="black" d="M 350 265 411 96"/>
<path stroke-width="0.5" stroke="black" d="M 350 265 271 320"/>
<path stroke-width="0.5" stroke="black" d="M 350 265 71 86"/>
<path stroke-width="12.2" stroke="black" d="M 350 265 420 205"/>
<path stroke-width="0.5" stroke="black" d="M 152 22 99 264"/>
<path stroke-width="0.5" stroke="black" d="M 350 265 232 48"/>
<path stroke-width="0.5" stroke="black" d="M 350 265 116 146"/>
<path stroke-width="0.5" stroke="black" d="M 350 265 182 308"/>
<path stroke-width="0.5" stroke="black" d="M 350 265 99 264"/>
<path stroke-width="0.5" stroke="black" d="M 350 265 323 20"/>
<path stroke-width="8.3" stroke="black" d="M 116 146 226 172"/>
<path stroke-width="0.5" stroke="black" d="M 116 146 20 189"/>
<path stroke-width="0.5" stroke="black" d="M 116 146 324 141"/>
<path stroke-width="0.5" stroke="black" d="M 116 146 411 96"/>
<path stroke-width="0.5" stroke="black" d="M 350 265 152 22"/>
<path stroke-width="0.5" stroke="black" d="M 152 22 182 308"/>
<path stroke-width="0.5" stroke="black" d="M 152 22 116 146"/>
<path stroke-width="0.5" stroke="black" d="M 152 22 350 265"/>
<path stroke-width="0.5" stroke="black" d="M 232 48 324 141"/>
<path stroke-width="0.5" stroke="black" d="M 232 48 411 96"/>
<path stroke-width="0.5" stroke="black" d="M 232 48 271 320"/>
<path stroke-width="0.5" stroke="black" d="M 232 48 71 86"/>
<path stroke-width="0.5" stroke="black" d="M 232 48 420 205"/>
<path stroke-width="12.2" stroke="black" d="M 232 48 152 22"/>
<path stroke-width="0.5" stroke="black" d="M 232 48 350 265"/>
<path stroke-width="0.5" stroke="black" d="M 232 48 116 146"/>
<path stroke-width="0.5" stroke="black" d="M 232 48 182 308"/>
<path stroke-width="0.5" stroke="black" d="M 232 48 99 264"/>
<path stroke-width="0.5" stroke="black" d="M 232 48 323 20"/>
<path stroke-width="8.3" stroke="black" d="M 152 22 226 172"/>
<path stroke-width="0.5" stroke="black" d="M 152 22 20 189"/>
<path stroke-width="0.5" stroke="black" d="M 152 22 324 141"/>
<path stroke-width="0.5" stroke="black" d="M 152 22 411 96"/>
<path stroke-width="0.5" stroke="black" d="M 152 22 271 320"/>
<path stroke-width="0.5" stroke="black" d="M 152 22 71 86"/>
<path stroke-width="0.5" stroke="black" d="M 152 22 420 205"/>
<path stroke-width="12.2" stroke="black" d="M 152 22 232 48"/>
<path stroke-width="0.5" stroke="black" d="M 116 146 271 320"/>
<path stroke-width="12.2" stroke="black" d="M 116 146 71 86"/>
<path stroke-width="0.5" stroke="black" d="M 116 146 420 205"/>
<path stroke-width="0.5" stroke="black" d="M 116 146 232 48"/>
<path stroke-width="0.5" stroke="black" d="M 99 264 71 86"/>
<path stroke-width="0.5" stroke="black" d="M 99 264 420 205"/>
<path stroke-width="0.5" stroke="black" d="M 99 264 232 48"/>
<path stroke-width="0.5" stroke="black" d="M 99 264 152 22"/>
<path stroke-width="0.5" stroke="black" d="M 99 264 350 265"/>
<path stroke-width="0.5" stroke="black" d="M 99 264 116 146"/>
<path stroke-width="0.5" stroke="black" d="M 99 264 182 308"/>
<path stroke-width="0.5" stroke="black" d="M 99 264 323 20"/>
<path stroke-width="8.3" stroke="black" d="M 323 20 226 172"/>
<path stroke-width="0.5" stroke="black" d="M 323 20 20 189"/>
<path stroke-width="0.5" stroke="black" d="M 323 20 324 141"/>
<path stroke-width="12.2" stroke="black" d="M 323 20 411 96"/>
<path stroke-width="0.5" stroke="black" d="M 323 20 271 320"/>
<path stroke-width="0.5" stroke="black" d="M 323 20 71 86"/>
<path stroke-width="0.5" stroke="black" d="M 323 20 420 205"/>
<path stroke-width="0.5" stroke="black" d="M 323 20 232 48"/>
<path stroke-width="0.5" stroke="black" d="M 323 20 152 22"/>
<path stroke-width="0.5" stroke="black" d="M 323 20 350 265"/>
<path stroke-width="0.5" stroke="black" d="M 323 20 116 146"/>
<path stroke-width="0.5" stroke="black" d="M 99 264 271 320"/>
<path stroke-width="0.5" stroke="black" d="M 232 48 20 189"/>
<path stroke-width="0.5" stroke="black" d="M 99 264 411 96"/>
<path stroke-width="12.2" stroke="black" d="M 99 264 20 189"/>
<path stroke-width="0.5" stroke="black" d="M 116 146 152 22"/>
<path stroke-width="0.5" stroke="black" d="M 116 146 350 265"/>
<path stroke-width="0.5" stroke="black" d="M 116 146 182 308"/>
<path stroke-width="0.5" stroke="black" d="M 116 146 99 264"/>
<path stroke-width="0.5" stroke="black" d="M 116 146 323 20"/>
<path stroke-width="8.3" stroke="black" d="M 182 308 226 172"/>
<path stroke-width="0.5" stroke="black" d="M 182 308 20 189"/>
<path stroke-width="0.5" stroke="black" d="M 182 308 324 141"/>
<path stroke-width="0.5" stroke="black" d="M 182 308 411 96"/>
<path stroke-width="12.2" stroke="black" d="M 182 308 271 320"/>
<path stroke-width="0.5" stroke="black" d="M 182 308 71 86"/>
<path stroke-width="0.5" stroke="black" d="M 182 308 420 205"/>
<path stroke-width="0.5" stroke="black" d="M 182 308 232 48"/>
<path stroke-width="0.5" stroke="black" d="M 182 308 152 22"/>
<path stroke-width="0.5" stroke="black" d="M 182 308 350 265"/>
<path stroke-width="0.5" stroke="black" d="M 182 308 116 146"/>
<path stroke-width="0.5" stroke="black" d="M 182 308 99 264"/>
<path stroke-width="0.5" stroke="black" d="M 182 308 323 20"/>
<path stroke-width="4.4" stroke="black" d="M 99 264 226 172"/>
<path stroke-width="0.5" stroke="black" d="M 99 264 324 141"/>
<path stroke-width="8.3" stroke="black" d="M 232 48 226 172"/>
<path stroke-width="0.5" stroke="black" d="M 420 205 323 20"/>
<path stroke-width="0.5" stroke="black" d="M 420 205 99 264"/>
<path stroke-width="12.2" stroke="black" d="M 20 189 99 264"/>
<path stroke-width="0.5" stroke="black" d="M 20 189 323 20"/>
<path stroke-width="20.0" stroke="black" d="M 324 141 226 172"/>
<path stroke-width="0.5" stroke="black" d="M 324 141 20 189"/>
<path stroke-width="0.5" stroke="black" d="M 324 141 411 96"/>
<path stroke-width="0.5" stroke="black" d="M 324 141 271 320"/>
<path stroke-width="0.5" stroke="black" d="M 324 141 71 86"/>
<path stroke-width="0.5" stroke="black" d="M 324 141 420 205"/>
<path stroke-width="0.5" stroke="black" d="M 324 141 232 48"/>
<path stroke-width="0.5" stroke="black" d="M 324 141 152 22"/>
<path stroke-width="0.5" stroke="black" d="M 324 141 350 265"/>
<path stroke-width="0.5" stroke="black" d="M 324 141 116 146"/>
<path stroke-width="0.5" stroke="black" d="M 324 141 182 308"/>
<path stroke-width="0.5" stroke="black" d="M 324 141 99 264"/>
<path stroke-width="0.5" stroke="black" d="M 324 141 323 20"/>
<path stroke-width="8.3" stroke="black" d="M 411 96 226 172"/>
<path stroke-width="0.5" stroke="black" d="M 411 96 20 189"/>
<path stroke-width="0.5" stroke="black" d="M 411 96 324 141"/>
<path stroke-width="0.5" stroke="black" d="M 411 96 271 320"/>
<path stroke-width="0.5" stroke="black" d="M 20 189 182 308"/>
<path stroke-width="0.5" stroke="black" d="M 411 96 71 86"/>
<path stroke-width="0.5" stroke="black" d="M 20 189 116 146"/>
<path stroke-width="0.5" stroke="black" d="M 20 189 152 22"/>
<path stroke-width="20.0" stroke="black" d="M 226 172 324 141"/>
<path stroke-width="8.3" stroke="black" d="M 226 172 411 96"/>
<path stroke-width="8.3" stroke="black" d="M 226 172 271 320"/>
<path stroke-width="8.3" stroke="black" d="M 226 172 71 86"/>
<path stroke-width="8.3" stroke="black" d="M 226 172 420 205"/>
<path stroke-width="8.3" stroke="black" d="M 226 172 232 48"/>
<path stroke-width="8.3" stroke="black" d="M 226 172 152 22"/>
<path stroke-width="8.3" stroke="black" d="M 226 172 350 265"/>
<path stroke-width="8.3" stroke="black" d="M 226 172 116 146"/>
<path stroke-width="8.3" stroke="black" d="M 226 172 182 308"/>
<path stroke-width="4.4" stroke="black" d="M 226 172 99 264"/>
<path stroke-width="8.3" stroke="black" d="M 226 172 323 20"/>
<path stroke-width="8.3" stroke="black" d="M 20 189 226 172"/>
<path stroke-width="0.5" stroke="black" d="M 20 189 324 141"/>
<path stroke-width="0.5" stroke="black" d="M 20 189 411 96"/>
<path stroke-width="0.5" stroke="black" d="M 20 189 271 320"/>
<path stroke-width="0.5" stroke="black" d="M 20 189 71 86"/>
<path stroke-width="0.5" stroke="black" d="M 20 189 420 205"/>
<path stroke-width="0.5" stroke="black" d="M 20 189 232 48"/>
<path stroke-width="0.5" stroke="black" d="M 20 189 350 265"/>
<path stroke-width="0.5" stroke="black" d="M 323 20 182 308"/>
<path stroke-width="0.5" stroke="black" d="M 411 96 420 205"/>
<path stroke-width="0.5" stroke="black" d="M 411 96 152 22"/>
<path stroke-width="0.5" stroke="black" d="M 71 86 420 205"/>
<path stroke-width="0.5" stroke="black" d="M 71 86 232 48"/>
<path stroke-width="0.5" stroke="black" d="M 71 86 152 22"/>
<path stroke-width="0.5" stroke="black" d="M 71 86 350 265"/>
<path stroke-width="12.2" stroke="black" d="M 71 86 116 146"/>
<path stroke-width="0.5" stroke="black" d="M 71 86 182 308"/>
<path stroke-width="0.5" stroke="black" d="M 71 86 99 264"/>
<path stroke-width="0.5" stroke="black" d="M 71 86 323 20"/>
<path stroke-width="8.3" stroke="black" d="M 420 205 226 172"/>
<path stroke-width="0.5" stroke="black" d="M 420 205 20 189"/>
<path stroke-width="0.5" stroke="black" d="M 420 205 324 141"/>
<path stroke-width="0.5" stroke="black" d="M 420 205 411 96"/>
<path stroke-width="0.5" stroke="black" d="M 420 205 271 320"/>
<path stroke-width="0.5" stroke="black" d="M 420 205 71 86"/>
<path stroke-width="0.5" stroke="black" d="M 420 205 232 48"/>
<path stroke-width="0.5" stroke="black" d="M 420 205 152 22"/>
<path stroke-width="12.2" stroke="black" d="M 420 205 350 265"/>
<path stroke-width="0.5" stroke="black" d="M 420 205 116 146"/>
<path stroke-width="0.5" stroke="black" d="M 420 205 182 308"/>
<path stroke-width="0.5" stroke="black" d="M 71 86 271 320"/>
<path stroke-width="0.5" stroke="black" d="M 411 96 232 48"/>
<path stroke-width="0.5" stroke="black" d="M 71 86 411 96"/>
<path stroke-width="0.5" stroke="black" d="M 71 86 20 189"/>
<path stroke-width="0.5" stroke="black" d="M 411 96 350 265"/>
<path stroke-width="0.5" stroke="black" d="M 411 96 116 146"/>
<path stroke-width="0.5" stroke="black" d="M 411 96 182 308"/>
<path stroke-width="0.5" stroke="black" d="M 411 96 99 264"/>
<path stroke-width="12.2" stroke="black" d="M 411 96 323 20"/>
<path stroke-width="8.3" stroke="black" d="M 271 320 226 172"/>
<path stroke-width="0.5" stroke="black" d="M 271 320 20 189"/>
<path stroke-width="0.5" stroke="black" d="M 271 320 324 141"/>
<path stroke-width="0.5" stroke="black" d="M 271 320 411 96"/>
<path stroke-width="0.5" stroke="black" d="M 271 320 71 86"/>
<path stroke-width="0.5" stroke="black" d="M 271 320 420 205"/>
<path stroke-width="0.5" stroke="black" d="M 271 320 232 48"/>
<path stroke-width="0.5" stroke="black" d="M 271 320 152 22"/>
<path stroke-width="0.5" stroke="black" d="M 271 320 350 265"/>
<path stroke-width="0.5" stroke="black" d="M 271 320 116 146"/>
<path stroke-width="12.2" stroke="black" d="M 271 320 182 308"/>
<path stroke-width="0.5" stroke="black" d="M 271 320 99 264"/>
<path stroke-width="0.5" stroke="black" d="M 271 320 323 20"/>
<path stroke-width="8.3" stroke="black" d="M 71 86 226 172"/>
<path stroke-width="0.5" stroke="black" d="M 71 86 324 141"/>
<path stroke-width="0.5" stroke="black" d="M 323 20 99 264"/>
<circle cx="226" cy="172" r="20.0" style="fill:gray;stroke:black;stroke-width:1.0"/>
<circle cx="20" cy="189" r="20.0" style="fill:gray;stroke:black;stroke-width:1.0"/>
<circle cx="324" cy="141" r="20.0" style="fill:gray;stroke:black;stroke-width:1.0"/>
<circle cx="411" cy="96" r="20.0" style="fill:gray;stroke:black;stroke-width:1.0"/>
<circle cx="271" cy="320" r="20.0" style="fill:gray;stroke:black;stroke-width:1.0"/>
<circle cx="71" cy="86" r="20.0" style="fill:gray;stroke:black;stroke-width:1.0"/>
<circle cx="420" cy="205" r="20.0" style="fill:gray;stroke:black;stroke-width:1.0"/>
<circle cx="232" cy="48" r="20.0" style="fill:gray;stroke:black;stroke-width:1.0"/>
<circle cx="152" cy="22" r="20.0" style="fill:gray;stroke:black;stroke-width:1.0"/>
<circle cx="350" cy="265" r="20.0" style="fill:gray;stroke:black;stroke-width:1.0"/>
<circle cx="116" cy="146" r="20.0" style="fill:gray;stroke:black;stroke-width:1.0"/>
<circle cx="182" cy="308" r="20.0" style="fill:gray;stroke:black;stroke-width:1.0"/>
<circle cx="99" cy="264" r="20.0" style="fill:gray;stroke:black;stroke-width:1.0"/>
<circle cx="323" cy="20" r="20.0" style="fill:gray;stroke:black;stroke-width:1.0"/>
</svg>
