<svg width="440" height="340" xmlns="http://www.w3.org/2000/svg">
<path stroke-width="1" stroke="black" d="M 237 20 420 183"/>
<path stroke-width="1" stroke="black" d="M 20 205 420 183"/>
<path stroke-width="1" stroke="black" d="M 20 205 237 20"/>
<path stroke-width="1" stroke="black" d="M 295 320 20 205"/>
<path stroke-width="1" stroke="black" d="M 295 320 159 165"/>
<path stroke-width="1" stroke="black" d="M 295 320 420 183"/>
<path stroke-width="1" stroke="black" d="M 295 320 237 20"/>
<path stroke-width="1" stroke="black" d="M 159 165 20 205"/>
<path stroke-width="1" stroke="black" d="M 159 165 295 320"/>
<path stroke-width="1" stroke="black" d="M 159 165 420 183"/>
<path stroke-width="1" stroke="black" d="M 159 165 237 20"/>
<path stroke-width="1" stroke="black" d="M 420 183 20 205"/>
<path stroke-width="1" stroke="black" d="M 420 183 295 320"/>
<path stroke-width="1" stroke="black" d="M 420 183 159 165"/>
<path stroke-width="1" stroke="black" d="M 420 183 237 20"/>
<path stroke-width="1" stroke="black" d="M 237 20 20 205"/>
<path stroke-width="1" stroke="black" d="M 237 20 295 320"/>
<path stroke-width="1" stroke="black" d="M 237 20 159 165"/>
<path stroke-width="1" stroke="black" d="M 20 205 159 165"/>
<path stroke-width="1" stroke="black" d="M 20 205 295 320"/>
<circle cx="237" cy="20" r="20.0" style="fill:gray;stroke:black;stroke-width:1.0"/>
<circle cx="420" cy="183" r="20.0" style="fill:gray;stroke:black;stroke-width:1.0"/>
<circle cx="159" cy="165" r="20.0" style="fill:gray;stroke:black;stroke-width:1.0"/>
<circle cx="295" cy="320" r="20.0" style="fill:gray;stroke:black;stroke-width:1.0"/>
<circle cx="20" cy="205" r="20.0" style="fill:gray;stroke:black;stroke-width:1.0"/>
</svg>
