<svg width="440" height="340" xmlns="http://www.w3.org/2000/svg">
<path stroke-width="1" stroke="black" d="M 100 237 291 20"/>
<path stroke-width="1" stroke="black" d="M 149 122 291 20"/>
<path stroke-width="1" stroke="black" d="M 149 122 100 237"/>
<path stroke-width="1" stroke="black" d="M 20 148 385 271"/>
<path stroke-width="1" stroke="black" d="M 20 148 176 320"/>
<path stroke-width="1" stroke="black" d="M 20 148 149 122"/>
<path stroke-width="1" stroke="black" d="M 20 148 420 169"/>
<path stroke-width="1" stroke="black" d="M 20 148 153 25"/>
<path stroke-width="1" stroke="black" d="M 20 148 269 254"/>
<path stroke-width="1" stroke="black" d="M 149 122 373 84"/>
<path stroke-width="1" stroke="black" d="M 20 148 373 84"/>
<path stroke-width="1" stroke="black" d="M 20 148 100 237"/>
<path stroke-width="1" stroke="black" d="M 420 169 385 271"/>
<path stroke-width="1" stroke="black" d="M 420 169 176 320"/>
<path stroke-width="1" stroke="black" d="M 420 169 149 122"/>
<path stroke-width="1" stroke="black" d="M 420 169 20 148"/>
<path stroke-width="1" stroke="black" d="M 420 169 153 25"/>
<path stroke-width="1" stroke="black" d="M 420 169 269 254"/>
<path stroke-width="1" stroke="black" d="M 420 169 373 84"/>
<path stroke-width="1" stroke="black" d="M 20 148 291 20"/>
<path stroke-width="1" stroke="black" d="M 149 122 269 254"/>
<path stroke-width="1" stroke="black" d="M 149 122 153 25"/>
<path stroke-width="1" stroke="black" d="M 149 122 420 169"/>
<path stroke-width="1" stroke="black" d="M 385 271 20 148"/>
<path stroke-width="1" stroke="black" d="M 385 271 420 169"/>
<path stroke-width="1" stroke="black" d="M 385 271 153 25"/>
<path stroke-width="1" stroke="black" d="M 385 271 269 254"/>
<path stroke-width="1" stroke="black" d="M 385 271 373 84"/>
<path stroke-width="1" stroke="black" d="M 385 271 291 20"/>
<path stroke-width="1" stroke="black" d="M 385 271 100 237"/>
<path stroke-width="1" stroke="black" d="M 176 320 385 271"/>
<path stroke-width="1" stroke="black" d="M 176 320 149 122"/>
<path stroke-width="1" stroke="black" d="M 176 320 20 148"/>
<path stroke-width="1" stroke="black" d="M 176 320 420 169"/>
<path stroke-width="1" stroke="black" d="M 176 320 153 25"/>
<path stroke-width="1" stroke="black" d="M 176 320 269 254"/>
<path stroke-width="1" stroke="black" d="M 176 320 373 84"/>
<path stroke-width="1" stroke="black" d="M 176 320 291 20"/>
<path stroke-width="1" stroke="black" d="M 176 320 100 237"/>
<path stroke-width="1" stroke="black" d="M 149 122 385 271"/>
<path stroke-width="1" stroke="black" d="M 149 122 176 320"/>
<path stroke-width="1" stroke="black" d="M 149 122 20 148"/>
<path stroke-width="1" stroke="black" d="M 420 169 291 20"/>
<path stroke-width="1" stroke="black" d="M 420 169 100 237"/>
<path stroke-width="1" stroke="black" d="M 153 25 385 271"/>
<path stroke-width="1" stroke="black" d="M 153 25 176 320"/>
<path stroke-width="1" stroke="black" d="M 373 84 291 20"/>
<path stroke-width="1" stroke="black" d="M 373 84 100 237"/>
<path stroke-width="1" stroke="black" d="M 291 20 385 271"/>
<path stroke-width="1" stroke="black" d="M 291 20 176 320"/>
<path stroke-width="1" stroke="black" d="M 291 20 149 122"/>
<path stroke-width="1" stroke="black" d="M 291 20 20 148"/>
<path stroke-width="1" stroke="black" d="M 291 20 420 169"/>
<path stroke-width="1" stroke="black" d="M 291 20 153 25"/>
<path stroke-width="1" stroke="black" d="M 291 20 269 254"/>
<path stroke-width="1" stroke="black" d="M 291 20 373 84"/>
<path stroke-width="1" stroke="black" d="M 291 20 100 237"/>
<path stroke-width="1" stroke="black" d="M 100 237 385 271"/>
<path stroke-width="1" stroke="black" d="M 100 237 176 320"/>
<path stroke-width="1" stroke="black" d="M 100 237 149 122"/>
<path stroke-width="1" stroke="black" d="M 100 237 20 148"/>
<path stroke-width="1" stroke="black" d="M 100 237 420 169"/>
<path stroke-width="1" stroke="black" d="M 100 237 153 25"/>
<path stroke-width="1" stroke="black" d="M 100 237 269 254"/>
<path stroke-width="1" stroke="black" d="M 100 237 373 84"/>
<path stroke-width="1" stroke="black" d="M 373 84 269 254"/>
<path stroke-width="1" stroke="black" d="M 385 271 149 122"/>
<path stroke-width="1" stroke="black" d="M 373 84 153 25"/>
<path stroke-width="1" stroke="black" d="M 373 84 20 148"/>
<path stroke-width="1" stroke="black" d="M 153 25 149 122"/>
<path stroke-width="1" stroke="black" d="M 153 25 20 148"/>
<path stroke-width="1" stroke="black" d="M 153 25 420 169"/>
<path stroke-width="1" stroke="black" d="M 153 25 269 254"/>
<path stroke-width="1" stroke="black" d="M 153 25 373 84"/>
<path stroke-width="1" stroke="black" d="M 153 25 291 20"/>
<path stroke-width="1" stroke="black" d="M 153 25 100 237"/>
<path stroke-width="1" stroke="black" d="M 269 254 385 271"/>
<path stroke-width="1" stroke="black" d="M 269 254 176 320"/>
<path stroke-width="1" stroke="black" d="M 269 254 149 122"/>
<path stroke-width="1" stroke="black" d="M 269 254 20 148"/>
<path stroke-width="1" stroke="black" d="M 269 254 420 169"/>
<path stroke-width="1" stroke="black" d="M 269 254 153 25"/>
<path stroke-width="1" stroke="black" d="M 269 254 373 84"/>
<path stroke-width="1" stroke="black" d="M 269 254 291 20"/>
<path stroke-width="1" stroke="black" d="M 269 254 100 237"/>
<path stroke-width="1" stroke="black" d="M 373 84 385 271"/>
<path stroke-width="1" stroke="black" d="M 373 84 176 320"/>
<path stroke-width="1" stroke="black" d="M 373 84 149 122"/>
<path stroke-width="1" stroke="black" d="M 373 84 420 169"/>
<path stroke-width="1" stroke="black" d="M 385 271 176 320"/>
<circle cx="100" cy="237" r="7.0" style="fill:gray;stroke:black;stroke-width:1.0"/>
<circle cx="291" cy="20" r="7.0" style="fill:gray;stroke:black;stroke-width:1.0"/>
<circle cx="373" cy="84" r="7.0" style="fill:gray;stroke:black;stroke-width:1.0"/>
<circle cx="269" cy="254" r="7.0" style="fill:gray;stroke:black;stroke-width:1.0"/>
<circle cx="153" cy="25" r="7.0" style="fill:gray;stroke:black;stroke-width:1.0"/>
<circle cx="420" cy="169" r="7.0" style="fill:gray;stroke:black;stroke-width:1.0"/>
<circle cx="20" cy="148" r="7.0" style="fill:gray;stroke:black;stroke-width:1.0"/>
<circle cx="149" cy="122" r="7.0" style="fill:gray;stroke:black;stroke-width:1.0"/>
<circle cx="176" cy="320" r="7.0" style="fill:gray;stroke:black;stroke-width:1.0"/>
<circle cx="385" cy="271" r="7.0" style="fill:gray;stroke:black;stroke-width:1.0"/>
</svg>
