<svg width="440" height="340" xmlns="http://www.w3.org/2000/svg">
<path stroke-width="1" stroke="black" d="M 193 267 400 254"/>
<path stroke-width="1" stroke="black" d="M 76 209 400 254"/>
<path stroke-width="1" stroke="black" d="M 76 209 193 267"/>
<path stroke-width="1" stroke="black" d="M 20 149 241 320"/>
<path stroke-width="1" stroke="black" d="M 20 149 322 40"/>
<path stroke-width="1" stroke="black" d="M 20 149 76 209"/>
<path stroke-width="1" stroke="black" d="M 20 149 171 110"/>
<path stroke-width="1" stroke="black" d="M 20 149 152 20"/>
<path stroke-width="1" stroke="black" d="M 20 149 317 180"/>
<path stroke-width="1" stroke="black" d="M 76 209 420 120"/>
<path stroke-width="1" stroke="black" d="M 20 149 420 120"/>
<path stroke-width="1" stroke="black" d="M 20 149 193 267"/>
<path stroke-width="1" stroke="black" d="M 171 110 241 320"/>
<path stroke-width="1" stroke="black" d="M 171 110 322 40"/>
<path stroke-width="1" stroke="black" d="M 171 110 76 209"/>
<path stroke-width="1" stroke="black" d="M 171 110 20 149"/>
<path stroke-width="1" stroke="black" d="M 171 110 152 20"/>
<path stroke-width="1" stroke="black" d="M 171 110 317 180"/>
<path stroke-width="1" stroke="black" d="M 171 110 420 120"/>
<path stroke-width="1" stroke="black" d="M 20 149 400 254"/>
<path stroke-width="1" stroke="black" d="M 76 209 317 180"/>
<path stroke-width="1" stroke="black" d="M 76 209 152 20"/>
<path stroke-width="1" stroke="black" d="M 76 209 171 110"/>
<path stroke-width="1" stroke="black" d="M 241 320 20 149"/>
<path stroke-width="1" stroke="black" d="M 241 320 171 110"/>
<path stroke-width="1" stroke="black" d="M 241 320 152 20"/>
<path stroke-width="1" stroke="black" d="M 241 320 317 180"/>
<path stroke-width="1" stroke="black" d="M 241 320 420 120"/>
<path stroke-width="1" stroke="black" d="M 241 320 400 254"/>
<path stroke-width="1" stroke="black" d="M 241 320 193 267"/>
<path stroke-width="1" stroke="black" d="M 322 40 241 320"/>
<path stroke-width="1" stroke="black" d="M 322 40 76 209"/>
<path stroke-width="1" stroke="black" d="M 322 40 20 149"/>
<path stroke-width="1" stroke="black" d="M 322 40 171 110"/>
<path stroke-width="1" stroke="black" d="M 322 40 152 20"/>
<path stroke-width="1" stroke="black" d="M 322 40 317 180"/>
<path stroke-width="1" stroke="black" d="M 322 40 420 120"/>
<path stroke-width="1" stroke="black" d="M 322 40 400 254"/>
<path stroke-width="1" stroke="black" d="M 322 40 193 267"/>
<path stroke-width="1" stroke="black" d="M 76 209 241 320"/>
<path stroke-width="1" stroke="black" d="M 76 209 322 40"/>
<path stroke-width="1" stroke="black" d="M 76 209 20 149"/>
<path stroke-width="1" stroke="black" d="M 171 110 400 254"/>
<path stroke-width="1" stroke="black" d="M 171 110 193 267"/>
<path stroke-width="1" stroke="black" d="M 152 20 241 320"/>
<path stroke-width="1" stroke="black" d="M 152 20 322 40"/>
<path stroke-width="1" stroke="black" d="M 420 120 400 254"/>
<path stroke-width="1" stroke="black" d="M 420 120 193 267"/>
<path stroke-width="1" stroke="black" d="M 400 254 241 320"/>
<path stroke-width="1" stroke="black" d="M 400 254 322 40"/>
<path stroke-width="1" stroke="black" d="M 400 254 76 209"/>
<path stroke-width="1" stroke="black" d="M 400 254 20 149"/>
<path stroke-width="1" stroke="black" d="M 400 254 171 110"/>
<path stroke-width="1" stroke="black" d="M 400 254 152 20"/>
<path stroke-width="1" stroke="black" d="M 400 254 317 180"/>
<path stroke-width="1" stroke="black" d="M 400 254 420 120"/>
<path stroke-width="1" stroke="black" d="M 400 254 193 267"/>
<path stroke-width="1" stroke="black" d="M 193 267 241 320"/>
<path stroke-width="1" stroke="black" d="M 193 267 322 40"/>
<path stroke-width="1" stroke="black" d="M 193 267 76 209"/>
<path stroke-width="1" stroke="black" d="M 193 267 20 149"/>
<path stroke-width="1" stroke="black" d="M 193 267 171 110"/>
<path stroke-width="1" stroke="black" d="M 193 267 152 20"/>
<path stroke-width="1" stroke="black" d="M 193 267 317 180"/>
<path stroke-width="1" stroke="black" d="M 193 267 420 120"/>
<path stroke-width="1" stroke="black" d="M 420 120 317 180"/>
<path stroke-width="1" stroke="black" d="M 241 320 76 209"/>
<path stroke-width="1" stroke="black" d="M 420 120 152 20"/>
<path stroke-width="1" stroke="black" d="M 420 120 20 149"/>
<path stroke-width="1" stroke="black" d="M 152 20 76 209"/>
<path stroke-width="1" stroke="black" d="M 152 20 20 149"/>
<path stroke-width="1" stroke="black" d="M 152 20 171 110"/>
<path stroke-width="1" stroke="black" d="M 152 20 317 180"/>
<path stroke-width="1" stroke="black" d="M 152 20 420 120"/>
<path stroke-width="1" stroke="black" d="M 152 20 400 254"/>
<path stroke-width="1" stroke="black" d="M 152 20 193 267"/>
<path stroke-width="1" stroke="black" d="M 317 180 241 320"/>
<path stroke-width="1" stroke="black" d="M 317 180 322 40"/>
<path stroke-width="1" stroke="black" d="M 317 180 76 209"/>
<path stroke-width="1" stroke="black" d="M 317 180 20 149"/>
<path stroke-width="1" stroke="black" d="M 317 180 171 110"/>
<path stroke-width="1" stroke="black" d="M 317 180 152 20"/>
<path stroke-width="1" stroke="black" d="M 317 180 420 120"/>
<path stroke-width="1" stroke="black" d="M 317 180 400 254"/>
<path stroke-width="1" stroke="black" d="M 317 180 193 267"/>
<path stroke-width="1" stroke="black" d="M 420 120 241 320"/>
<path stroke-width="1" stroke="black" d="M 420 120 322 40"/>
<path stroke-width="1" stroke="black" d="M 420 120 76 209"/>
<path stroke-width="1" stroke="black" d="M 420 120 171 110"/>
<path stroke-width="1" stroke="black" d="M 241 320 322 40"/>
<circle cx="193" cy="267" r="7.0" style="fill:gray;stroke:black;stroke-width:1.0"/>
<circle cx="400" cy="254" r="7.0" style="fill:gray;stroke:black;stroke-width:1.0"/>
<circle cx="420" cy="120" r="7.0" style="fill:gray;stroke:black;stroke-width:1.0"/>
<circle cx="317" cy="180" r="7.0" style="fill:gray;stroke:black;stroke-width:1.0"/>
<circle cx="152" cy="20" r="7.0" style="fill:gray;stroke:black;stroke-width:1.0"/>
<circle cx="171" cy="110" r="7.0" style="fill:gray;stroke:black;stroke-width:1.0"/>
<circle cx="20" cy="149" r="7.0" style="fill:gray;stroke:black;stroke-width:1.0"/>
<circle cx="76" cy="209" r="7.0" style="fill:gray;stroke:black;stroke-width:1.0"/>
<circle cx="322" cy="40" r="7.0" style="fill:gray;stroke:black;stroke-width:1.0"/>
<circle cx="241" cy="320" r="7.0" style="fill:gray;stroke:black;stroke-width:1.0"/>
</svg>
