<svg width="440" height="340" xmlns="http://www.w3.org/2000/svg">
<path stroke-width="1" stroke="black" d="M 29 87 351 315"/>
<path stroke-width="1" stroke="black" d="M 322 39 351 315"/>
<path stroke-width="1" stroke="black" d="M 322 39 29 87"/>
<path stroke-width="1" stroke="black" d="M 20 221 77 270"/>
<path stroke-width="1" stroke="black" d="M 20 221 186 159"/>
<path stroke-width="1" stroke="black" d="M 20 221 322 39"/>
<path stroke-width="1" stroke="black" d="M 20 221 420 122"/>
<path stroke-width="1" stroke="black" d="M 20 221 161 20"/>
<path stroke-width="1" stroke="black" d="M 20 221 331 205"/>
<path stroke-width="1" stroke="black" d="M 322 39 184 320"/>
<path stroke-width="1" stroke="black" d="M 20 221 184 320"/>
<path stroke-width="1" stroke="black" d="M 20 221 29 87"/>
<path stroke-width="1" stroke="black" d="M 420 122 77 270"/>
<path stroke-width="1" stroke="black" d="M 420 122 186 159"/>
<path stroke-width="1" stroke="black" d="M 420 122 322 39"/>
<path stroke-width="1" stroke="black" d="M 420 122 20 221"/>
<path stroke-width="1" stroke="black" d="M 420 122 161 20"/>
<path stroke-width="1" stroke="black" d="M 420 122 331 205"/>
<path stroke-width="1" stroke="black" d="M 420 122 184 320"/>
<path stroke-width="1" stroke="black" d="M 20 221 351 315"/>
<path stroke-width="1" stroke="black" d="M 322 39 331 205"/>
<path stroke-width="1" stroke="black" d="M 322 39 161 20"/>
<path stroke-width="1" stroke="black" d="M 322 39 420 122"/>
<path stroke-width="1" stroke="black" d="M 77 270 20 221"/>
<path stroke-width="1" stroke="black" d="M 77 270 420 122"/>
<path stroke-width="1" stroke="black" d="M 77 270 161 20"/>
<path stroke-width="1" stroke="black" d="M 77 270 331 205"/>
<path stroke-width="1" stroke="black" d="M 77 270 184 320"/>
<path stroke-width="1" stroke="black" d="M 77 270 351 315"/>
<path stroke-width="1" stroke="black" d="M 77 270 29 87"/>
<path stroke-width="1" stroke="black" d="M 186 159 77 270"/>
<path stroke-width="1" stroke="black" d="M 186 159 322 39"/>
<path stroke-width="1" stroke="black" d="M 186 159 20 221"/>
<path stroke-width="1" stroke="black" d="M 186 159 420 122"/>
<path stroke-width="1" stroke="black" d="M 186 159 161 20"/>
<path stroke-width="1" stroke="black" d="M 186 159 331 205"/>
<path stroke-width="1" stroke="black" d="M 186 159 184 320"/>
<path stroke-width="1" stroke="black" d="M 186 159 351 315"/>
<path stroke-width="1" stroke="black" d="M 186 159 29 87"/>
<path stroke-width="1" stroke="black" d="M 322 39 77 270"/>
<path stroke-width="1" stroke="black" d="M 322 39 186 159"/>
<path stroke-width="1" stroke="black" d="M 322 39 20 221"/>
<path stroke-width="1" stroke="black" d="M 420 122 351 315"/>
<path stroke-width="1" stroke="black" d="M 420 122 29 87"/>
<path stroke-width="1" stroke="black" d="M 161 20 77 270"/>
<path stroke-width="1" stroke="black" d="M 161 20 186 159"/>
<path stroke-width="1" stroke="black" d="M 184 320 351 315"/>
<path stroke-width="1" stroke="black" d="M 184 320 29 87"/>
<path stroke-width="1" stroke="black" d="M 351 315 77 270"/>
<path stroke-width="1" stroke="black" d="M 351 315 186 159"/>
<path stroke-width="1" stroke="black" d="M 351 315 322 39"/>
<path stroke-width="1" stroke="black" d="M 351 315 20 221"/>
<path stroke-width="1" stroke="black" d="M 351 315 420 122"/>
<path stroke-width="1" stroke="black" d="M 351 315 161 20"/>
<path stroke-width="1" stroke="black" d="M 351 315 331 205"/>
<path stroke-width="1" stroke="black" d="M 351 315 184 320"/>
<path stroke-width="1" stroke="black" d="M 351 315 29 87"/>
<path stroke-width="1" stroke="black" d="M 29 87 77 270"/>
<path stroke-width="1" stroke="black" d="M 29 87 186 159"/>
<path stroke-width="1" stroke="black" d="M 29 87 322 39"/>
<path stroke-width="1" stroke="black" d="M 29 87 20 221"/>
<path stroke-width="1" stroke="black" d="M 29 87 420 122"/>
<path stroke-width="1" stroke="black" d="M 29 87 161 20"/>
<path stroke-width="1" stroke="black" d="M 29 87 331 205"/>
<path stroke-width="1" stroke="black" d="M 29 87 184 320"/>
<path stroke-width="1" stroke="black" d="M 184 320 331 205"/>
<path stroke-width="1" stroke="black" d="M 77 270 322 39"/>
<path stroke-width="1" stroke="black" d="M 184 320 161 20"/>
<path stroke-width="1" stroke="black" d="M 184 320 20 221"/>
<path stroke-width="1" stroke="black" d="M 161 20 322 39"/>
<path stroke-width="1" stroke="black" d="M 161 20 20 221"/>
<path stroke-width="1" stroke="black" d="M 161 20 420 122"/>
<path stroke-width="1" stroke="black" d="M 161 20 331 205"/>
<path stroke-width="1" stroke="black" d="M 161 20 184 320"/>
<path stroke-width="1" stroke="black" d="M 161 20 351 315"/>
<path stroke-width="1" stroke="black" d="M 161 20 29 87"/>
<path stroke-width="1" stroke="black" d="M 331 205 77 270"/>
<path stroke-width="1" stroke="black" d="M 331 205 186 159"/>
<path stroke-width="1" stroke="black" d="M 331 205 322 39"/>
<path stroke-width="1" stroke="black" d="M 331 205 20 221"/>
<path stroke-width="1" stroke="black" d="M 331 205 420 122"/>
<path stroke-width="1" stroke="black" d="M 331 205 161 20"/>
<path stroke-width="1" stroke="black" d="M 331 205 184 320"/>
<path stroke-width="1" stroke="black" d="M 331 205 351 315"/>
<path stroke-width="1" stroke="black" d="M 331 205 29 87"/>
<path stroke-width="1" stroke="black" d="M 184 320 77 270"/>
<path stroke-width="1" stroke="black" d="M 184 320 186 159"/>
<path stroke-width="1" stroke="black" d="M 184 320 322 39"/>
<path stroke-width="1" stroke="black" d="M 184 320 420 122"/>
<path stroke-width="1" stroke="black" d="M 77 270 186 159"/>
<circle cx="29" cy="87" r="7.0" style="fill:gray;stroke:black;stroke-width:1.0"/>
<circle cx="351" cy="315" r="7.0" style="fill:gray;stroke:black;stroke-width:1.0"/>
<circle cx="184" cy="320" r="7.0" style="fill:gray;stroke:black;stroke-width:1.0"/>
<circle cx="331" cy="205" r="7.0" style="fill:gray;stroke:black;stroke-width:1.0"/>
<circle cx="161" cy="20" r="7.0" style="fill:gray;stroke:black;stroke-width:1.0"/>
<circle cx="420" cy="122" r="7.0" style="fill:gray;stroke:black;stroke-width:1.0"/>
<circle cx="20" cy="221" r="7.0" style="fill:gray;stroke:black;stroke-width:1.0"/>
<circle cx="322" cy="39" r="7.0" style="fill:gray;stroke:black;stroke-width:1.0"/>
<circle cx="186" cy="159" r="7.0" style="fill:gray;stroke:black;stroke-width:1.0"/>
<circle cx="77" cy="270" r="7.0" style="fill:gray;stroke:black;stroke-width:1.0"/>
</svg>
