<svg width="440" height="340" xmlns="http://www.w3.org/2000/svg">
<path stroke-width="1" stroke="black" d="M 20 192 83 279"/>
<path stroke-width="1" stroke="black" d="M 402 238 420 139"/>
<path stroke-width="1" stroke="black" d="M 402 238 321 304"/>
<path stroke-width="1" stroke="black" d="M 126 36 33 107"/>
<path stroke-width="1" stroke="black" d="M 126 36 246 20"/>
<path stroke-width="1" stroke="black" d="M 33 107 126 36"/>
<path stroke-width="1" stroke="black" d="M 33 107 20 192"/>
<path stroke-width="1" stroke="black" d="M 83 279 196 320"/>
<path stroke-width="1" stroke="black" d="M 83 279 20 192"/>
<path stroke-width="1" stroke="black" d="M 246 20 126 36"/>
<path stroke-width="1" stroke="black" d="M 246 20 364 61"/>
<path stroke-width="1" stroke="black" d="M 321 304 402 238"/>
<path stroke-width="1" stroke="black" d="M 321 304 196 320"/>
<path stroke-width="1" stroke="black" d="M 364 61 420 139"/>
<path stroke-width="1" stroke="black" d="M 364 61 246 20"/>
<path stroke-width="1" stroke="black" d="M 196 320 83 279"/>
<path stroke-width="1" stroke="black" d="M 196 320 321 304"/>
<path stroke-width="1" stroke="black" d="M 20 192 33 107"/>
<path stroke-width="1" stroke="black" d="M 420 139 364 61"/>
<path stroke-width="1" stroke="black" d="M 420 139 402 238"/>
<circle cx="20" cy="192" r="7.0" style="fill:gray;stroke:black;stroke-width:1.0"/>
<circle cx="196" cy="320" r="7.0" style="fill:gray;stroke:black;stroke-width:1.0"/>
<circle cx="364" cy="61" r="7.0" style="fill:gray;stroke:black;stroke-width:1.0"/>
<circle cx="321" cy="304" r="7.0" style="fill:gray;stroke:black;stroke-width:1.0"/>
<circle cx="246" cy="20" r="7.0" style="fill:gray;stroke:black;stroke-width:1.0"/>
<circle cx="83" cy="279" r="7.0" style="fill:gray;stroke:black;stroke-width:1.0"/>
<circle cx="33" cy="107" r="7.0" style="fill:gray;stroke:black;stroke-width:1.0"/>
<circle cx="126" cy="36" r="7.0" style="fill:gray;stroke:black;stroke-width:1.0"/>
<circle cx="402" cy="238" r="7.0" style="fill:gray;stroke:black;stroke-width:1.0"/>
<circle cx="420" cy="139" r="7.0" style="fill:gray;stroke:black;stroke-width:1.0"/>
</svg>
