<svg width="440" height="340" xmlns="http://www.w3.org/2000/svg">
<path stroke-width="1" stroke="black" d="M 92 43 20 112"/>
<path stroke-width="1" stroke="black" d="M 227 320 348 299"/>
<path stroke-width="1" stroke="black" d="M 227 320 103 280"/>
<path stroke-width="1" stroke="black" d="M 338 50 222 20"/>
<path stroke-width="1" stroke="black" d="M 338 50 413 135"/>
<path stroke-width="1" stroke="black" d="M 222 20 338 50"/>
<path stroke-width="1" stroke="black" d="M 222 20 92 43"/>
<path stroke-width="1" stroke="black" d="M 20 112 27 208"/>
<path stroke-width="1" stroke="black" d="M 20 112 92 43"/>
<path stroke-width="1" stroke="black" d="M 413 135 338 50"/>
<path stroke-width="1" stroke="black" d="M 413 135 420 219"/>
<path stroke-width="1" stroke="black" d="M 103 280 227 320"/>
<path stroke-width="1" stroke="black" d="M 103 280 27 208"/>
<path stroke-width="1" stroke="black" d="M 420 219 348 299"/>
<path stroke-width="1" stroke="black" d="M 420 219 413 135"/>
<path stroke-width="1" stroke="black" d="M 27 208 20 112"/>
<path stroke-width="1" stroke="black" d="M 27 208 103 280"/>
<path stroke-width="1" stroke="black" d="M 92 43 222 20"/>
<path stroke-width="1" stroke="black" d="M 348 299 420 219"/>
<path stroke-width="1" stroke="black" d="M 348 299 227 320"/>
<circle cx="92" cy="43" r="7.0" style="fill:blue;stroke:black;stroke-width:1.0"/>
<circle cx="27" cy="208" r="7.0" style="fill:blue;stroke:black;stroke-width:1.0"/>
<circle cx="420" cy="219" r="7.0" style="fill:red;stroke:black;stroke-width:1.0"/>
<circle cx="103" cy="280" r="7.0" style="fill:blue;stroke:black;stroke-width:1.0"/>
<circle cx="413" cy="135" r="7.0" style="fill:red;stroke:black;stroke-width:1.0"/>
<circle cx="20" cy="112" r="7.0" style="fill:blue;stroke:black;stroke-width:1.0"/>
<circle cx="222" cy="20" r="7.0" style="fill:red;stroke:black;stroke-width:1.0"/>
<circle cx="338" cy="50" r="7.0" style="fill:red;stroke:black;stroke-width:1.0"/>
<circle cx="227" cy="320" r="7.0" style="fill:green;stroke:black;stroke-width:1.0"/>
<circle cx="348" cy="299" r="7.0" style="fill:green;stroke:black;stroke-width:1.0"/>
</svg>
