<svg width="440" height="340" xmlns="http://www.w3.org/2000/svg">
<path stroke-width="1" stroke="black" d="M 166 28 271 20"/>
<path stroke-width="1" stroke="black" d="M 375 254 286 311"/>
<path stroke-width="1" stroke="black" d="M 375 254 420 167"/>
<path stroke-width="1" stroke="black" d="M 20 187 59 87"/>
<path stroke-width="1" stroke="black" d="M 20 187 59 270"/>
<path stroke-width="1" stroke="black" d="M 59 87 20 187"/>
<path stroke-width="1" stroke="black" d="M 59 87 166 28"/>
<path stroke-width="1" stroke="black" d="M 271 20 376 71"/>
<path stroke-width="1" stroke="black" d="M 271 20 166 28"/>
<path stroke-width="1" stroke="black" d="M 59 270 20 187"/>
<path stroke-width="1" stroke="black" d="M 59 270 150 320"/>
<path stroke-width="1" stroke="black" d="M 420 167 375 254"/>
<path stroke-width="1" stroke="black" d="M 420 167 376 71"/>
<path stroke-width="1" stroke="black" d="M 150 320 286 311"/>
<path stroke-width="1" stroke="black" d="M 150 320 59 270"/>
<path stroke-width="1" stroke="black" d="M 376 71 271 20"/>
<path stroke-width="1" stroke="black" d="M 376 71 420 167"/>
<path stroke-width="1" stroke="black" d="M 166 28 59 87"/>
<path stroke-width="1" stroke="black" d="M 286 311 150 320"/>
<path stroke-width="1" stroke="black" d="M 286 311 375 254"/>
<circle cx="166" cy="28" r="7.0" style="fill:blue;stroke:black;stroke-width:1.0"/>
<circle cx="376" cy="71" r="7.0" style="fill:blue;stroke:black;stroke-width:1.0"/>
<circle cx="150" cy="320" r="7.0" style="fill:red;stroke:black;stroke-width:1.0"/>
<circle cx="420" cy="167" r="7.0" style="fill:blue;stroke:black;stroke-width:1.0"/>
<circle cx="59" cy="270" r="7.0" style="fill:red;stroke:black;stroke-width:1.0"/>
<circle cx="271" cy="20" r="7.0" style="fill:blue;stroke:black;stroke-width:1.0"/>
<circle cx="59" cy="87" r="7.0" style="fill:red;stroke:black;stroke-width:1.0"/>
<circle cx="20" cy="187" r="7.0" style="fill:red;stroke:black;stroke-width:1.0"/>
<circle cx="375" cy="254" r="7.0" style="fill:green;stroke:black;stroke-width:1.0"/>
<circle cx="286" cy="311" r="7.0" style="fill:green;stroke:black;stroke-width:1.0"/>
</svg>
