<svg width="440" height="340" xmlns="http://www.w3.org/2000/svg">
<path stroke-width="20.0" stroke="black" d="M 185 192 178 181"/>
<path stroke-width="20.0" stroke="black" d="M 53 28 54 48"/>
<path stroke-width="20.0" stroke="black" d="M 42 134 35 142"/>
<path stroke-width="0.5" stroke="black" d="M 42 134 27 85"/>
<path stroke-width="0.5" stroke="black" d="M 42 134 67 160"/>
<path stroke-width="20.0" stroke="black" d="M 35 142 42 134"/>
<path stroke-width="0.5" stroke="black" d="M 27 85 34 39"/>
<path stroke-width="0.5" stroke="black" d="M 27 85 42 134"/>
<path stroke-width="20.0" stroke="black" d="M 27 85 20 80"/>
<path stroke-width="20.0" stroke="black" d="M 20 80 27 85"/>
<path stroke-width="0.5" stroke="black" d="M 150 295 159 240"/>
<path stroke-width="20.0" stroke="black" d="M 150 295 150 320"/>
<path stroke-width="0.5" stroke="black" d="M 150 295 139 281"/>
<path stroke-width="20.0" stroke="black" d="M 150 320 150 295"/>
<path stroke-width="20.0" stroke="black" d="M 406 114 400 116"/>
<path stroke-width="0.5" stroke="black" d="M 406 114 413 93"/>
<path stroke-width="0.5" stroke="black" d="M 406 114 415 124"/>
<path stroke-width="20.0" stroke="black" d="M 400 116 406 114"/>
<path stroke-width="0.5" stroke="black" d="M 67 160 42 134"/>
<path stroke-width="20.0" stroke="black" d="M 67 160 63 180"/>
<path stroke-width="0.5" stroke="black" d="M 67 160 96 149"/>
<path stroke-width="20.0" stroke="black" d="M 63 180 67 160"/>
<path stroke-width="0.5" stroke="black" d="M 54 48 76 96"/>
<path stroke-width="0.5" stroke="black" d="M 96 149 125 104"/>
<path stroke-width="20.0" stroke="black" d="M 54 48 53 28"/>
<path stroke-width="20.0" stroke="black" d="M 28 20 34 39"/>
<path stroke-width="0.5" stroke="black" d="M 125 104 96 149"/>
<path stroke-width="20.0" stroke="black" d="M 130 107 125 104"/>
<path stroke-width="20.0" stroke="black" d="M 123 203 118 223"/>
<path stroke-width="0.5" stroke="black" d="M 123 203 98 145"/>
<path stroke-width="0.5" stroke="black" d="M 123 203 151 214"/>
<path stroke-width="20.0" stroke="black" d="M 118 223 123 203"/>
<path stroke-width="20.0" stroke="black" d="M 179 56 185 35"/>
<path stroke-width="0.5" stroke="black" d="M 179 56 154 61"/>
<path stroke-width="0.5" stroke="black" d="M 179 56 189 113"/>
<path stroke-width="20.0" stroke="black" d="M 185 35 179 56"/>
<path stroke-width="0.5" stroke="black" d="M 154 61 125 104"/>
<path stroke-width="0.5" stroke="black" d="M 154 61 179 56"/>
<path stroke-width="20.0" stroke="black" d="M 154 61 159 41"/>
<path stroke-width="20.0" stroke="black" d="M 159 41 154 61"/>
<path stroke-width="20.0" stroke="black" d="M 159 240 163 248"/>
<path stroke-width="0.5" stroke="black" d="M 159 240 150 295"/>
<path stroke-width="0.5" stroke="black" d="M 159 240 161 177"/>
<path stroke-width="20.0" stroke="black" d="M 163 248 159 240"/>
<path stroke-width="20.0" stroke="black" d="M 34 39 28 20"/>
<path stroke-width="0.5" stroke="black" d="M 34 39 54 48"/>
<path stroke-width="0.5" stroke="black" d="M 34 39 27 85"/>
<path stroke-width="0.5" stroke="black" d="M 54 48 34 39"/>
<path stroke-width="0.5" stroke="black" d="M 96 149 67 160"/>
<path stroke-width="20.0" stroke="black" d="M 96 149 95 175"/>
<path stroke-width="20.0" stroke="black" d="M 95 175 96 149"/>
<path stroke-width="20.0" stroke="black" d="M 415 124 420 137"/>
<path stroke-width="20.0" stroke="black" d="M 420 137 415 124"/>
<path stroke-width="0.5" stroke="black" d="M 151 214 123 203"/>
<path stroke-width="20.0" stroke="black" d="M 151 214 153 244"/>
<path stroke-width="0.5" stroke="black" d="M 151 214 178 181"/>
<path stroke-width="20.0" stroke="black" d="M 153 244 151 214"/>
<path stroke-width="0.5" stroke="black" d="M 149 153 142 216"/>
<path stroke-width="20.0" stroke="black" d="M 149 153 148 130"/>
<path stroke-width="0.5" stroke="black" d="M 149 153 162 129"/>
<path stroke-width="20.0" stroke="black" d="M 148 130 149 153"/>
<path stroke-width="0.5" stroke="black" d="M 162 129 161 177"/>
<path stroke-width="0.5" stroke="black" d="M 162 129 149 153"/>
<path stroke-width="20.0" stroke="black" d="M 162 129 167 110"/>
<path stroke-width="20.0" stroke="black" d="M 167 110 162 129"/>
<path stroke-width="0.5" stroke="black" d="M 189 113 179 56"/>
<path stroke-width="20.0" stroke="black" d="M 189 113 197 104"/>
<path stroke-width="0.5" stroke="black" d="M 189 113 178 181"/>
<path stroke-width="20.0" stroke="black" d="M 197 104 189 113"/>
<path stroke-width="0.5" stroke="black" d="M 178 181 151 214"/>
<path stroke-width="0.5" stroke="black" d="M 178 181 189 113"/>
<path stroke-width="20.0" stroke="black" d="M 178 181 185 192"/>
<path stroke-width="0.5" stroke="black" d="M 415 124 413 93"/>
<path stroke-width="0.5" stroke="black" d="M 415 124 406 114"/>
<path stroke-width="20.0" stroke="black" d="M 415 75 413 93"/>
<path stroke-width="0.5" stroke="black" d="M 413 93 415 124"/>
<path stroke-width="0.5" stroke="black" d="M 98 145 123 203"/>
<path stroke-width="20.0" stroke="black" d="M 98 145 93 151"/>
<path stroke-width="0.5" stroke="black" d="M 98 145 76 96"/>
<path stroke-width="20.0" stroke="black" d="M 93 151 98 145"/>
<path stroke-width="0.5" stroke="black" d="M 76 96 54 48"/>
<path stroke-width="0.5" stroke="black" d="M 76 96 98 145"/>
<path stroke-width="20.0" stroke="black" d="M 76 96 76 78"/>
<path stroke-width="20.0" stroke="black" d="M 76 78 76 96"/>
<path stroke-width="0.5" stroke="black" d="M 161 177 159 240"/>
<path stroke-width="20.0" stroke="black" d="M 161 177 160 158"/>
<path stroke-width="0.5" stroke="black" d="M 125 104 154 61"/>
<path stroke-width="0.5" stroke="black" d="M 161 177 162 129"/>
<path stroke-width="0.5" stroke="black" d="M 139 281 150 295"/>
<path stroke-width="20.0" stroke="black" d="M 139 281 136 304"/>
<path stroke-width="0.5" stroke="black" d="M 139 281 142 216"/>
<path stroke-width="20.0" stroke="black" d="M 136 304 139 281"/>
<path stroke-width="0.5" stroke="black" d="M 142 216 139 281"/>
<path stroke-width="20.0" stroke="black" d="M 142 216 137 211"/>
<path stroke-width="0.5" stroke="black" d="M 142 216 149 153"/>
<path stroke-width="20.0" stroke="black" d="M 137 211 142 216"/>
<path stroke-width="0.5" stroke="black" d="M 413 93 406 114"/>
<path stroke-width="20.0" stroke="black" d="M 413 93 415 75"/>
<path stroke-width="20.0" stroke="black" d="M 160 158 161 177"/>
<path stroke-width="20.0" stroke="black" d="M 125 104 130 107"/>
<circle cx="185" cy="192" r="7.0" style="fill:orange;stroke:black;stroke-width:1.0"/>
<circle cx="178" cy="181" r="7.0" style="fill:orange;stroke:black;stroke-width:1.0"/>
<circle cx="197" cy="104" r="7.0" style="fill:red;stroke:black;stroke-width:1.0"/>
<circle cx="189" cy="113" r="7.0" style="fill:red;stroke:black;stroke-width:1.0"/>
<circle cx="167" cy="110" r="7.0" style="fill:blue;stroke:black;stroke-width:1.0"/>
<circle cx="162" cy="129" r="7.0" style="fill:blue;stroke:black;stroke-width:1.0"/>
<circle cx="148" cy="130" r="7.0" style="fill:fuchsia;stroke:black;stroke-width:1.0"/>
<circle cx="149" cy="153" r="7.0" style="fill:fuchsia;stroke:black;stroke-width:1.0"/>
<circle cx="153" cy="244" r="7.0" style="fill:orange;stroke:black;stroke-width:1.0"/>
<circle cx="151" cy="214" r="7.0" style="fill:orange;stroke:black;stroke-width:1.0"/>
<circle cx="420" cy="137" r="7.0" style="fill:green;stroke:black;stroke-width:1.0"/>
<circle cx="415" cy="124" r="7.0" style="fill:green;stroke:black;stroke-width:1.0"/>
<circle cx="415" cy="75" r="7.0" style="fill:olive;stroke:black;stroke-width:1.0"/>
<circle cx="413" cy="93" r="7.0" style="fill:olive;stroke:black;stroke-width:1.0"/>
<circle cx="137" cy="211" r="7.0" style="fill:fuchsia;stroke:black;stroke-width:1.0"/>
<circle cx="142" cy="216" r="7.0" style="fill:fuchsia;stroke:black;stroke-width:1.0"/>
<circle cx="136" cy="304" r="7.0" style="fill:fuchsia;stroke:black;stroke-width:1.0"/>
<circle cx="139" cy="281" r="7.0" style="fill:fuchsia;stroke:black;stroke-width:1.0"/>
<circle cx="160" cy="158" r="7.0" style="fill:blue;stroke:black;stroke-width:1.0"/>
<circle cx="161" cy="177" r="7.0" style="fill:blue;stroke:black;stroke-width:1.0"/>
<circle cx="76" cy="78" r="7.0" style="fill:yellow;stroke:black;stroke-width:1.0"/>
<circle cx="76" cy="96" r="7.0" style="fill:yellow;stroke:black;stroke-width:1.0"/>
<circle cx="93" cy="151" r="7.0" style="fill:yellow;stroke:black;stroke-width:1.0"/>
<circle cx="98" cy="145" r="7.0" style="fill:brown;stroke:black;stroke-width:1.0"/>
<circle cx="95" cy="175" r="7.0" style="fill:purple;stroke:black;stroke-width:1.0"/>
<circle cx="96" cy="149" r="7.0" style="fill:blue;stroke:black;stroke-width:1.0"/>
<circle cx="63" cy="180" r="7.0" style="fill:blue;stroke:black;stroke-width:1.0"/>
<circle cx="67" cy="160" r="7.0" style="fill:blue;stroke:black;stroke-width:1.0"/>
<circle cx="400" cy="116" r="7.0" style="fill:aqua;stroke:black;stroke-width:1.0"/>
<circle cx="406" cy="114" r="7.0" style="fill:aqua;stroke:black;stroke-width:1.0"/>
<circle cx="150" cy="320" r="7.0" style="fill:red;stroke:black;stroke-width:1.0"/>
<circle cx="150" cy="295" r="7.0" style="fill:red;stroke:black;stroke-width:1.0"/>
<circle cx="20" cy="80" r="7.0" style="fill:blue;stroke:black;stroke-width:1.0"/>
<circle cx="27" cy="85" r="7.0" style="fill:blue;stroke:black;stroke-width:1.0"/>
<circle cx="35" cy="142" r="7.0" style="fill:blue;stroke:black;stroke-width:1.0"/>
<circle cx="42" cy="134" r="7.0" style="fill:blue;stroke:black;stroke-width:1.0"/>
<circle cx="53" cy="28" r="7.0" style="fill:yellow;stroke:black;stroke-width:1.0"/>
<circle cx="54" cy="48" r="7.0" style="fill:yellow;stroke:black;stroke-width:1.0"/>
<circle cx="28" cy="20" r="7.0" style="fill:yellow;stroke:black;stroke-width:1.0"/>
<circle cx="34" cy="39" r="7.0" style="fill:yellow;stroke:black;stroke-width:1.0"/>
<circle cx="163" cy="248" r="7.0" style="fill:red;stroke:black;stroke-width:1.0"/>
<circle cx="159" cy="240" r="7.0" style="fill:red;stroke:black;stroke-width:1.0"/>
<circle cx="159" cy="41" r="7.0" style="fill:purple;stroke:black;stroke-width:1.0"/>
<circle cx="154" cy="61" r="7.0" style="fill:purple;stroke:black;stroke-width:1.0"/>
<circle cx="185" cy="35" r="7.0" style="fill:red;stroke:black;stroke-width:1.0"/>
<circle cx="179" cy="56" r="7.0" style="fill:red;stroke:black;stroke-width:1.0"/>
<circle cx="118" cy="223" r="7.0" style="fill:brown;stroke:black;stroke-width:1.0"/>
<circle cx="123" cy="203" r="7.0" style="fill:brown;stroke:black;stroke-width:1.0"/>
<circle cx="130" cy="107" r="7.0" style="fill:purple;stroke:black;stroke-width:1.0"/>
<circle cx="125" cy="104" r="7.0" style="fill:purple;stroke:black;stroke-width:1.0"/>
</svg>
