<svg width="440" height="340" xmlns="http://www.w3.org/2000/svg">
<path stroke-width="1" stroke="black" d="M 324 288 311 266"/>
<path stroke-width="1" stroke="black" d="M 20 276 37 278"/>
<path stroke-width="1" stroke="black" d="M 37 278 90 271"/>
<path stroke-width="1" stroke="black" d="M 37 278 20 276"/>
<path stroke-width="1" stroke="black" d="M 37 278 60 304"/>
<path stroke-width="1" stroke="black" d="M 418 139 403 142"/>
<path stroke-width="1" stroke="black" d="M 403 142 403 73"/>
<path stroke-width="1" stroke="black" d="M 403 142 372 213"/>
<path stroke-width="1" stroke="black" d="M 403 142 418 139"/>
<path stroke-width="1" stroke="black" d="M 45 311 60 304"/>
<path stroke-width="1" stroke="black" d="M 60 304 115 298"/>
<path stroke-width="1" stroke="black" d="M 60 304 37 278"/>
<path stroke-width="1" stroke="black" d="M 60 304 45 311"/>
<path stroke-width="1" stroke="black" d="M 315 72 314 50"/>
<path stroke-width="1" stroke="black" d="M 237 302 238 285"/>
<path stroke-width="1" stroke="black" d="M 238 285 237 302"/>
<path stroke-width="1" stroke="black" d="M 238 285 156 280"/>
<path stroke-width="1" stroke="black" d="M 179 279 177 261"/>
<path stroke-width="1" stroke="black" d="M 177 261 115 298"/>
<path stroke-width="1" stroke="black" d="M 177 261 179 279"/>
<path stroke-width="1" stroke="black" d="M 177 261 231 204"/>
<path stroke-width="1" stroke="black" d="M 148 279 156 280"/>
<path stroke-width="1" stroke="black" d="M 156 280 90 271"/>
<path stroke-width="1" stroke="black" d="M 156 280 238 285"/>
<path stroke-width="1" stroke="black" d="M 156 280 148 279"/>
<path stroke-width="1" stroke="black" d="M 241 213 231 204"/>
<path stroke-width="1" stroke="black" d="M 231 204 277 134"/>
<path stroke-width="1" stroke="black" d="M 238 285 311 266"/>
<path stroke-width="1" stroke="black" d="M 315 72 277 134"/>
<path stroke-width="1" stroke="black" d="M 315 72 364 36"/>
<path stroke-width="1" stroke="black" d="M 314 50 315 72"/>
<path stroke-width="1" stroke="black" d="M 311 266 324 288"/>
<path stroke-width="1" stroke="black" d="M 311 266 372 213"/>
<path stroke-width="1" stroke="black" d="M 311 266 238 285"/>
<path stroke-width="1" stroke="black" d="M 420 53 403 73"/>
<path stroke-width="1" stroke="black" d="M 403 73 420 53"/>
<path stroke-width="1" stroke="black" d="M 403 73 364 36"/>
<path stroke-width="1" stroke="black" d="M 403 73 403 142"/>
<path stroke-width="1" stroke="black" d="M 69 260 90 271"/>
<path stroke-width="1" stroke="black" d="M 90 271 69 260"/>
<path stroke-width="1" stroke="black" d="M 90 271 37 278"/>
<path stroke-width="1" stroke="black" d="M 90 271 156 280"/>
<path stroke-width="1" stroke="black" d="M 386 218 372 213"/>
<path stroke-width="1" stroke="black" d="M 372 213 311 266"/>
<path stroke-width="1" stroke="black" d="M 372 213 386 218"/>
<path stroke-width="1" stroke="black" d="M 372 213 403 142"/>
<path stroke-width="1" stroke="black" d="M 103 320 115 298"/>
<path stroke-width="1" stroke="black" d="M 115 298 103 320"/>
<path stroke-width="1" stroke="black" d="M 115 298 60 304"/>
<path stroke-width="1" stroke="black" d="M 115 298 177 261"/>
<path stroke-width="1" stroke="black" d="M 367 20 364 36"/>
<path stroke-width="1" stroke="black" d="M 364 36 403 73"/>
<path stroke-width="1" stroke="black" d="M 364 36 367 20"/>
<path stroke-width="1" stroke="black" d="M 364 36 315 72"/>
<path stroke-width="1" stroke="black" d="M 291 131 277 134"/>
<path stroke-width="1" stroke="black" d="M 277 134 291 131"/>
<path stroke-width="1" stroke="black" d="M 277 134 315 72"/>
<path stroke-width="1" stroke="black" d="M 277 134 231 204"/>
<path stroke-width="1" stroke="black" d="M 231 204 177 261"/>
<path stroke-width="1" stroke="black" d="M 231 204 241 213"/>
<circle cx="324" cy="288" r="7.0" style="fill:gray;stroke:black;stroke-width:1.0"/>
<circle cx="311" cy="266" r="7.0" style="fill:gray;stroke:black;stroke-width:1.0"/>
<circle cx="420" cy="53" r="7.0" style="fill:gray;stroke:black;stroke-width:1.0"/>
<circle cx="403" cy="73" r="7.0" style="fill:gray;stroke:black;stroke-width:1.0"/>
<circle cx="69" cy="260" r="7.0" style="fill:gray;stroke:black;stroke-width:1.0"/>
<circle cx="90" cy="271" r="7.0" style="fill:gray;stroke:black;stroke-width:1.0"/>
<circle cx="386" cy="218" r="7.0" style="fill:gray;stroke:black;stroke-width:1.0"/>
<circle cx="372" cy="213" r="7.0" style="fill:gray;stroke:black;stroke-width:1.0"/>
<circle cx="103" cy="320" r="7.0" style="fill:gray;stroke:black;stroke-width:1.0"/>
<circle cx="115" cy="298" r="7.0" style="fill:gray;stroke:black;stroke-width:1.0"/>
<circle cx="367" cy="20" r="7.0" style="fill:gray;stroke:black;stroke-width:1.0"/>
<circle cx="364" cy="36" r="7.0" style="fill:gray;stroke:black;stroke-width:1.0"/>
<circle cx="291" cy="131" r="7.0" style="fill:gray;stroke:black;stroke-width:1.0"/>
<circle cx="277" cy="134" r="7.0" style="fill:gray;stroke:black;stroke-width:1.0"/>
<circle cx="314" cy="50" r="7.0" style="fill:gray;stroke:black;stroke-width:1.0"/>
<circle cx="315" cy="72" r="7.0" style="fill:gray;stroke:black;stroke-width:1.0"/>
<circle cx="20" cy="276" r="7.0" style="fill:gray;stroke:black;stroke-width:1.0"/>
<circle cx="37" cy="278" r="7.0" style="fill:gray;stroke:black;stroke-width:1.0"/>
<circle cx="418" cy="139" r="7.0" style="fill:gray;stroke:black;stroke-width:1.0"/>
<circle cx="403" cy="142" r="7.0" style="fill:gray;stroke:black;stroke-width:1.0"/>
<circle cx="45" cy="311" r="7.0" style="fill:gray;stroke:black;stroke-width:1.0"/>
<circle cx="60" cy="304" r="7.0" style="fill:gray;stroke:black;stroke-width:1.0"/>
<circle cx="237" cy="302" r="7.0" style="fill:gray;stroke:black;stroke-width:1.0"/>
<circle cx="238" cy="285" r="7.0" style="fill:gray;stroke:black;stroke-width:1.0"/>
<circle cx="179" cy="279" r="7.0" style="fill:gray;stroke:black;stroke-width:1.0"/>
<circle cx="177" cy="261" r="7.0" style="fill:gray;stroke:black;stroke-width:1.0"/>
<circle cx="148" cy="279" r="7.0" style="fill:gray;stroke:black;stroke-width:1.0"/>
<circle cx="156" cy="280" r="7.0" style="fill:gray;stroke:black;stroke-width:1.0"/>
<circle cx="241" cy="213" r="7.0" style="fill:gray;stroke:black;stroke-width:1.0"/>
<circle cx="231" cy="204" r="7.0" style="fill:gray;stroke:black;stroke-width:1.0"/>
</svg>
