<svg width="440" height="340" xmlns="http://www.w3.org/2000/svg">
<path stroke-width="8.3" stroke="black" d="M 35 146 69 138"/>
<path stroke-width="20.0" stroke="black" d="M 332 39 311 46"/>
<path stroke-width="0.5" stroke="black" d="M 311 46 217 39"/>
<path stroke-width="20.0" stroke="black" d="M 311 46 332 39"/>
<path stroke-width="0.5" stroke="black" d="M 311 46 378 78"/>
<path stroke-width="20.0" stroke="black" d="M 260 198 248 203"/>
<path stroke-width="0.5" stroke="black" d="M 248 203 343 232"/>
<path stroke-width="0.5" stroke="black" d="M 248 203 153 179"/>
<path stroke-width="20.0" stroke="black" d="M 248 203 260 198"/>
<path stroke-width="20.0" stroke="black" d="M 404 79 378 78"/>
<path stroke-width="0.5" stroke="black" d="M 378 78 341 124"/>
<path stroke-width="0.5" stroke="black" d="M 378 78 311 46"/>
<path stroke-width="20.0" stroke="black" d="M 378 78 404 79"/>
<path stroke-width="20.0" stroke="black" d="M 346 305 357 320"/>
<path stroke-width="20.0" stroke="black" d="M 20 73 47 81"/>
<path stroke-width="20.0" stroke="black" d="M 47 81 20 73"/>
<path stroke-width="0.5" stroke="black" d="M 47 81 120 45"/>
<path stroke-width="20.0" stroke="black" d="M 267 154 281 166"/>
<path stroke-width="0.5" stroke="black" d="M 281 166 341 124"/>
<path stroke-width="20.0" stroke="black" d="M 281 166 267 154"/>
<path stroke-width="0.5" stroke="black" d="M 281 166 243 233"/>
<path stroke-width="20.0" stroke="black" d="M 101 39 120 45"/>
<path stroke-width="0.5" stroke="black" d="M 120 45 217 39"/>
<path stroke-width="0.5" stroke="black" d="M 120 45 47 81"/>
<path stroke-width="20.0" stroke="black" d="M 120 45 101 39"/>
<path stroke-width="20.0" stroke="black" d="M 221 237 243 233"/>
<path stroke-width="0.5" stroke="black" d="M 243 233 279 288"/>
<path stroke-width="0.5" stroke="black" d="M 47 81 69 138"/>
<path stroke-width="0.5" stroke="black" d="M 346 305 279 288"/>
<path stroke-width="0.5" stroke="black" d="M 346 305 394 274"/>
<path stroke-width="20.0" stroke="black" d="M 357 320 346 305"/>
<path stroke-width="8.3" stroke="black" d="M 69 138 35 146"/>
<path stroke-width="0.5" stroke="black" d="M 69 138 153 179"/>
<path stroke-width="0.5" stroke="black" d="M 69 138 47 81"/>
<path stroke-width="8.3" stroke="black" d="M 375 225 343 232"/>
<path stroke-width="8.3" stroke="black" d="M 343 232 375 225"/>
<path stroke-width="0.5" stroke="black" d="M 343 232 394 274"/>
<path stroke-width="0.5" stroke="black" d="M 343 232 248 203"/>
<path stroke-width="8.3" stroke="black" d="M 231 20 217 39"/>
<path stroke-width="8.3" stroke="black" d="M 217 39 231 20"/>
<path stroke-width="0.5" stroke="black" d="M 217 39 311 46"/>
<path stroke-width="0.5" stroke="black" d="M 217 39 120 45"/>
<path stroke-width="20.0" stroke="black" d="M 137 185 153 179"/>
<path stroke-width="0.5" stroke="black" d="M 153 179 69 138"/>
<path stroke-width="20.0" stroke="black" d="M 153 179 137 185"/>
<path stroke-width="0.5" stroke="black" d="M 153 179 248 203"/>
<path stroke-width="8.3" stroke="black" d="M 363 119 341 124"/>
<path stroke-width="8.3" stroke="black" d="M 341 124 363 119"/>
<path stroke-width="0.5" stroke="black" d="M 341 124 378 78"/>
<path stroke-width="0.5" stroke="black" d="M 341 124 281 166"/>
<path stroke-width="20.0" stroke="black" d="M 420 281 394 274"/>
<path stroke-width="0.5" stroke="black" d="M 394 274 343 232"/>
<path stroke-width="20.0" stroke="black" d="M 394 274 420 281"/>
<path stroke-width="0.5" stroke="black" d="M 394 274 346 305"/>
<path stroke-width="8.3" stroke="black" d="M 257 307 279 288"/>
<path stroke-width="8.3" stroke="black" d="M 279 288 257 307"/>
<path stroke-width="0.5" stroke="black" d="M 279 288 346 305"/>
<path stroke-width="0.5" stroke="black" d="M 279 288 243 233"/>
<path stroke-width="0.5" stroke="black" d="M 243 233 281 166"/>
<path stroke-width="20.0" stroke="black" d="M 243 233 221 237"/>
<circle cx="35" cy="146" r="7.0" style="fill:red;stroke:black;stroke-width:1.0"/>
<circle cx="69" cy="138" r="7.0" style="fill:red;stroke:black;stroke-width:1.0"/>
<circle cx="375" cy="225" r="7.0" style="fill:blue;stroke:black;stroke-width:1.0"/>
<circle cx="343" cy="232" r="7.0" style="fill:blue;stroke:black;stroke-width:1.0"/>
<circle cx="231" cy="20" r="7.0" style="fill:orange;stroke:black;stroke-width:1.0"/>
<circle cx="217" cy="39" r="7.0" style="fill:orange;stroke:black;stroke-width:1.0"/>
<circle cx="137" cy="185" r="7.0" style="fill:yellow;stroke:black;stroke-width:1.0"/>
<circle cx="153" cy="179" r="7.0" style="fill:yellow;stroke:black;stroke-width:1.0"/>
<circle cx="363" cy="119" r="7.0" style="fill:green;stroke:black;stroke-width:1.0"/>
<circle cx="341" cy="124" r="7.0" style="fill:green;stroke:black;stroke-width:1.0"/>
<circle cx="420" cy="281" r="7.0" style="fill:fuchsia;stroke:black;stroke-width:1.0"/>
<circle cx="394" cy="274" r="7.0" style="fill:fuchsia;stroke:black;stroke-width:1.0"/>
<circle cx="257" cy="307" r="7.0" style="fill:purple;stroke:black;stroke-width:1.0"/>
<circle cx="279" cy="288" r="7.0" style="fill:purple;stroke:black;stroke-width:1.0"/>
<circle cx="357" cy="320" r="7.0" style="fill:olive;stroke:black;stroke-width:1.0"/>
<circle cx="346" cy="305" r="7.0" style="fill:olive;stroke:black;stroke-width:1.0"/>
<circle cx="332" cy="39" r="7.0" style="fill:aqua;stroke:black;stroke-width:1.0"/>
<circle cx="311" cy="46" r="7.0" style="fill:aqua;stroke:black;stroke-width:1.0"/>
<circle cx="260" cy="198" r="7.0" style="fill:blue;stroke:black;stroke-width:1.0"/>
<circle cx="248" cy="203" r="7.0" style="fill:blue;stroke:black;stroke-width:1.0"/>
<circle cx="404" cy="79" r="7.0" style="fill:brown;stroke:black;stroke-width:1.0"/>
<circle cx="378" cy="78" r="7.0" style="fill:brown;stroke:black;stroke-width:1.0"/>
<circle cx="20" cy="73" r="7.0" style="fill:red;stroke:black;stroke-width:1.0"/>
<circle cx="47" cy="81" r="7.0" style="fill:red;stroke:black;stroke-width:1.0"/>
<circle cx="267" cy="154" r="7.0" style="fill:green;stroke:black;stroke-width:1.0"/>
<circle cx="281" cy="166" r="7.0" style="fill:green;stroke:black;stroke-width:1.0"/>
<circle cx="101" cy="39" r="7.0" style="fill:orange;stroke:black;stroke-width:1.0"/>
<circle cx="120" cy="45" r="7.0" style="fill:orange;stroke:black;stroke-width:1.0"/>
<circle cx="221" cy="237" r="7.0" style="fill:purple;stroke:black;stroke-width:1.0"/>
<circle cx="243" cy="233" r="7.0" style="fill:purple;stroke:black;stroke-width:1.0"/>
</svg>
