<svg width="440" height="340" xmlns="http://www.w3.org/2000/svg">
<path stroke-width="1" stroke="black" d="M 409 68 417 41"/>
<path stroke-width="1" stroke="black" d="M 401 80 393 91"/>
<path stroke-width="1" stroke="black" d="M 401 80 409 68"/>
<path stroke-width="1" stroke="black" d="M 145 263 215 225"/>
<path stroke-width="1" stroke="black" d="M 145 263 76 295"/>
<path stroke-width="1" stroke="black" d="M 215 225 145 263"/>
<path stroke-width="1" stroke="black" d="M 215 225 282 184"/>
<path stroke-width="1" stroke="black" d="M 356 129 340 144"/>
<path stroke-width="1" stroke="black" d="M 356 129 393 91"/>
<path stroke-width="1" stroke="black" d="M 393 91 401 80"/>
<path stroke-width="1" stroke="black" d="M 393 91 356 129"/>
<path stroke-width="1" stroke="black" d="M 417 41 420 20"/>
<path stroke-width="1" stroke="black" d="M 417 41 409 68"/>
<path stroke-width="1" stroke="black" d="M 76 295 145 263"/>
<path stroke-width="1" stroke="black" d="M 76 295 20 320"/>
<path stroke-width="1" stroke="black" d="M 420 20 417 41"/>
<path stroke-width="1" stroke="black" d="M 282 184 340 144"/>
<path stroke-width="1" stroke="black" d="M 282 184 215 225"/>
<path stroke-width="1" stroke="black" d="M 20 320 76 295"/>
<path stroke-width="1" stroke="black" d="M 409 68 401 80"/>
<path stroke-width="1" stroke="black" d="M 340 144 282 184"/>
<path stroke-width="1" stroke="black" d="M 340 144 356 129"/>
<circle cx="409" cy="68" r="20.0" style="fill:gray;stroke:black;stroke-width:1.0"/>
<circle cx="20" cy="320" r="20.0" style="fill:gray;stroke:black;stroke-width:1.0"/>
<circle cx="282" cy="184" r="20.0" style="fill:gray;stroke:black;stroke-width:1.0"/>
<circle cx="420" cy="20" r="20.0" style="fill:gray;stroke:black;stroke-width:1.0"/>
<circle cx="76" cy="295" r="20.0" style="fill:gray;stroke:black;stroke-width:1.0"/>
<circle cx="417" cy="41" r="20.0" style="fill:gray;stroke:black;stroke-width:1.0"/>
<circle cx="393" cy="91" r="20.0" style="fill:gray;stroke:black;stroke-width:1.0"/>
<circle cx="356" cy="129" r="20.0" style="fill:gray;stroke:black;stroke-width:1.0"/>
<circle cx="215" cy="225" r="20.0" style="fill:gray;stroke:black;stroke-width:1.0"/>
<circle cx="145" cy="263" r="20.0" style="fill:gray;stroke:black;stroke-width:1.0"/>
<circle cx="401" cy="80" r="20.0" style="fill:gray;stroke:black;stroke-width:1.0"/>
<circle cx="340" cy="144" r="20.0" style="fill:gray;stroke:black;stroke-width:1.0"/>
</svg>
