<svg width="440" height="340" xmlns="http://www.w3.org/2000/svg">
<path stroke-width="1" stroke="black" d="M 381 226 399 249"/>
<path stroke-width="1" stroke="black" d="M 327 149 306 135"/>
<path stroke-width="1" stroke="black" d="M 327 149 381 226"/>
<path stroke-width="1" stroke="black" d="M 213 55 138 25"/>
<path stroke-width="1" stroke="black" d="M 213 55 239 66"/>
<path stroke-width="1" stroke="black" d="M 399 249 420 320"/>
<path stroke-width="1" stroke="black" d="M 399 249 381 226"/>
<path stroke-width="1" stroke="black" d="M 20 109 41 33"/>
<path stroke-width="1" stroke="black" d="M 20 109 36 177"/>
<path stroke-width="1" stroke="black" d="M 306 135 327 149"/>
<path stroke-width="1" stroke="black" d="M 306 135 239 66"/>
<path stroke-width="1" stroke="black" d="M 138 25 213 55"/>
<path stroke-width="1" stroke="black" d="M 138 25 65 20"/>
<path stroke-width="1" stroke="black" d="M 420 320 399 249"/>
<path stroke-width="1" stroke="black" d="M 239 66 213 55"/>
<path stroke-width="1" stroke="black" d="M 239 66 306 135"/>
<path stroke-width="1" stroke="black" d="M 36 177 20 109"/>
<path stroke-width="1" stroke="black" d="M 65 20 41 33"/>
<path stroke-width="1" stroke="black" d="M 65 20 138 25"/>
<path stroke-width="1" stroke="black" d="M 381 226 327 149"/>
<path stroke-width="1" stroke="black" d="M 41 33 65 20"/>
<path stroke-width="1" stroke="black" d="M 41 33 20 109"/>
<circle cx="381" cy="226" r="7.0" style="fill:gray;stroke:black;stroke-width:1.0"/>
<circle cx="65" cy="20" r="7.0" style="fill:gray;stroke:black;stroke-width:1.0"/>
<circle cx="36" cy="177" r="7.0" style="fill:gray;stroke:black;stroke-width:1.0"/>
<circle cx="239" cy="66" r="7.0" style="fill:gray;stroke:black;stroke-width:1.0"/>
<circle cx="420" cy="320" r="7.0" style="fill:gray;stroke:black;stroke-width:1.0"/>
<circle cx="138" cy="25" r="7.0" style="fill:gray;stroke:black;stroke-width:1.0"/>
<circle cx="306" cy="135" r="7.0" style="fill:gray;stroke:black;stroke-width:1.0"/>
<circle cx="20" cy="109" r="7.0" style="fill:gray;stroke:black;stroke-width:1.0"/>
<circle cx="399" cy="249" r="7.0" style="fill:gray;stroke:black;stroke-width:1.0"/>
<circle cx="213" cy="55" r="7.0" style="fill:gray;stroke:black;stroke-width:1.0"/>
<circle cx="327" cy="149" r="7.0" style="fill:gray;stroke:black;stroke-width:1.0"/>
<circle cx="41" cy="33" r="7.0" style="fill:gray;stroke:black;stroke-width:1.0"/>
</svg>
