<svg width="440" height="340" xmlns="http://www.w3.org/2000/svg">
<path stroke-width="0.5" stroke="black" d="M 209 320 260 244"/>
<path stroke-width="0.5" stroke="black" d="M 20 165 344 305"/>
<path stroke-width="0.5" stroke="black" d="M 20 165 420 218"/>
<path stroke-width="0.5" stroke="black" d="M 20 165 391 87"/>
<path stroke-width="0.5" stroke="black" d="M 20 165 71 93"/>
<path stroke-width="0.5" stroke="black" d="M 20 165 167 38"/>
<path stroke-width="20.0" stroke="black" d="M 20 165 185 211"/>
<path stroke-width="0.5" stroke="black" d="M 20 165 65 258"/>
<path stroke-width="0.5" stroke="black" d="M 20 165 260 244"/>
<path stroke-width="0.5" stroke="black" d="M 20 165 209 320"/>
<path stroke-width="0.5" stroke="black" d="M 420 218 287 20"/>
<path stroke-width="0.5" stroke="black" d="M 420 218 172 147"/>
<path stroke-width="0.5" stroke="black" d="M 420 218 344 305"/>
<path stroke-width="0.5" stroke="black" d="M 420 218 20 165"/>
<path stroke-width="0.5" stroke="black" d="M 420 218 391 87"/>
<path stroke-width="0.5" stroke="black" d="M 420 218 71 93"/>
<path stroke-width="0.5" stroke="black" d="M 420 218 167 38"/>
<path stroke-width="20.0" stroke="black" d="M 420 218 185 211"/>
<path stroke-width="0.5" stroke="black" d="M 420 218 65 258"/>
<path stroke-width="0.5" stroke="black" d="M 420 218 260 244"/>
<path stroke-width="0.5" stroke="black" d="M 420 218 209 320"/>
<path stroke-width="0.5" stroke="black" d="M 391 87 287 20"/>
<path stroke-width="0.5" stroke="black" d="M 391 87 172 147"/>
<path stroke-width="0.5" stroke="black" d="M 391 87 344 305"/>
<path stroke-width="0.5" stroke="black" d="M 391 87 20 165"/>
<path stroke-width="0.5" stroke="black" d="M 391 87 420 218"/>
<path stroke-width="0.5" stroke="black" d="M 391 87 71 93"/>
<path stroke-width="0.5" stroke="black" d="M 391 87 167 38"/>
<path stroke-width="20.0" stroke="black" d="M 391 87 185 211"/>
<path stroke-width="0.5" stroke="black" d="M 391 87 65 258"/>
<path stroke-width="0.5" stroke="black" d="M 20 165 172 147"/>
<path stroke-width="0.5" stroke="black" d="M 391 87 260 244"/>
<path stroke-width="0.5" stroke="black" d="M 20 165 287 20"/>
<path stroke-width="0.5" stroke="black" d="M 344 305 260 244"/>
<path stroke-width="0.5" stroke="black" d="M 287 20 20 165"/>
<path stroke-width="0.5" stroke="black" d="M 287 20 420 218"/>
<path stroke-width="0.5" stroke="black" d="M 287 20 391 87"/>
<path stroke-width="0.5" stroke="black" d="M 287 20 71 93"/>
<path stroke-width="0.5" stroke="black" d="M 287 20 167 38"/>
<path stroke-width="20.0" stroke="black" d="M 287 20 185 211"/>
<path stroke-width="0.5" stroke="black" d="M 287 20 65 258"/>
<path stroke-width="0.5" stroke="black" d="M 287 20 260 244"/>
<path stroke-width="0.5" stroke="black" d="M 287 20 209 320"/>
<path stroke-width="0.5" stroke="black" d="M 172 147 287 20"/>
<path stroke-width="0.5" stroke="black" d="M 172 147 344 305"/>
<path stroke-width="0.5" stroke="black" d="M 172 147 20 165"/>
<path stroke-width="0.5" stroke="black" d="M 172 147 420 218"/>
<path stroke-width="0.5" stroke="black" d="M 172 147 391 87"/>
<path stroke-width="0.5" stroke="black" d="M 172 147 71 93"/>
<path stroke-width="0.5" stroke="black" d="M 172 147 167 38"/>
<path stroke-width="20.0" stroke="black" d="M 172 147 185 211"/>
<path stroke-width="0.5" stroke="black" d="M 172 147 65 258"/>
<path stroke-width="0.5" stroke="black" d="M 172 147 260 244"/>
<path stroke-width="0.5" stroke="black" d="M 172 147 209 320"/>
<path stroke-width="0.5" stroke="black" d="M 344 305 287 20"/>
<path stroke-width="0.5" stroke="black" d="M 344 305 172 147"/>
<path stroke-width="0.5" stroke="black" d="M 344 305 20 165"/>
<path stroke-width="0.5" stroke="black" d="M 344 305 420 218"/>
<path stroke-width="0.5" stroke="black" d="M 344 305 391 87"/>
<path stroke-width="0.5" stroke="black" d="M 344 305 71 93"/>
<path stroke-width="0.5" stroke="black" d="M 344 305 167 38"/>
<path stroke-width="20.0" stroke="black" d="M 344 305 185 211"/>
<path stroke-width="0.5" stroke="black" d="M 344 305 65 258"/>
<path stroke-width="0.5" stroke="black" d="M 344 305 209 320"/>
<path stroke-width="0.5" stroke="black" d="M 391 87 209 320"/>
<path stroke-width="0.5" stroke="black" d="M 71 93 287 20"/>
<path stroke-width="0.5" stroke="black" d="M 71 93 172 147"/>
<path stroke-width="0.5" stroke="black" d="M 65 258 20 165"/>
<path stroke-width="0.5" stroke="black" d="M 65 258 420 218"/>
<path stroke-width="0.5" stroke="black" d="M 65 258 391 87"/>
<path stroke-width="0.5" stroke="black" d="M 65 258 71 93"/>
<path stroke-width="0.5" stroke="black" d="M 65 258 167 38"/>
<path stroke-width="20.0" stroke="black" d="M 65 258 185 211"/>
<path stroke-width="0.5" stroke="black" d="M 65 258 260 244"/>
<path stroke-width="0.5" stroke="black" d="M 65 258 209 320"/>
<path stroke-width="0.5" stroke="black" d="M 260 244 287 20"/>
<path stroke-width="0.5" stroke="black" d="M 260 244 172 147"/>
<path stroke-width="0.5" stroke="black" d="M 260 244 344 305"/>
<path stroke-width="0.5" stroke="black" d="M 260 244 20 165"/>
<path stroke-width="0.5" stroke="black" d="M 260 244 420 218"/>
<path stroke-width="0.5" stroke="black" d="M 260 244 391 87"/>
<path stroke-width="0.5" stroke="black" d="M 260 244 71 93"/>
<path stroke-width="0.5" stroke="black" d="M 260 244 167 38"/>
<path stroke-width="20.0" stroke="black" d="M 260 244 185 211"/>
<path stroke-width="0.5" stroke="black" d="M 260 244 65 258"/>
<path stroke-width="0.5" stroke="black" d="M 260 244 209 320"/>
<path stroke-width="0.5" stroke="black" d="M 209 320 287 20"/>
<path stroke-width="0.5" stroke="black" d="M 209 320 172 147"/>
<path stroke-width="0.5" stroke="black" d="M 209 320 344 305"/>
<path stroke-width="0.5" stroke="black" d="M 209 320 20 165"/>
<path stroke-width="0.5" stroke="black" d="M 209 320 420 218"/>
<path stroke-width="0.5" stroke="black" d="M 209 320 391 87"/>
<path stroke-width="0.5" stroke="black" d="M 209 320 71 93"/>
<path stroke-width="0.5" stroke="black" d="M 209 320 167 38"/>
<path stroke-width="20.0" stroke="black" d="M 209 320 185 211"/>
<path stroke-width="0.5" stroke="black" d="M 209 320 65 258"/>
<path stroke-width="0.5" stroke="black" d="M 65 258 344 305"/>
<path stroke-width="0.5" stroke="black" d="M 65 258 172 147"/>
<path stroke-width="0.5" stroke="black" d="M 65 258 287 20"/>
<path stroke-width="20.0" stroke="black" d="M 185 211 209 320"/>
<path stroke-width="0.5" stroke="black" d="M 71 93 344 305"/>
<path stroke-width="0.5" stroke="black" d="M 71 93 20 165"/>
<path stroke-width="0.5" stroke="black" d="M 71 93 420 218"/>
<path stroke-width="0.5" stroke="black" d="M 71 93 391 87"/>
<path stroke-width="0.5" stroke="black" d="M 71 93 167 38"/>
<path stroke-width="20.0" stroke="black" d="M 71 93 185 211"/>
<path stroke-width="0.5" stroke="black" d="M 71 93 65 258"/>
<path stroke-width="0.5" stroke="black" d="M 71 93 260 244"/>
<path stroke-width="0.5" stroke="black" d="M 71 93 209 320"/>
<path stroke-width="0.5" stroke="black" d="M 167 38 287 20"/>
<path stroke-width="0.5" stroke="black" d="M 167 38 172 147"/>
<path stroke-width="0.5" stroke="black" d="M 167 38 344 305"/>
<path stroke-width="0.5" stroke="black" d="M 167 38 20 165"/>
<path stroke-width="0.5" stroke="black" d="M 167 38 420 218"/>
<path stroke-width="0.5" stroke="black" d="M 287 20 344 305"/>
<path stroke-width="0.5" stroke="black" d="M 167 38 391 87"/>
<path stroke-width="20.0" stroke="black" d="M 167 38 185 211"/>
<path stroke-width="0.5" stroke="black" d="M 167 38 65 258"/>
<path stroke-width="0.5" stroke="black" d="M 167 38 260 244"/>
<path stroke-width="0.5" stroke="black" d="M 167 38 209 320"/>
<path stroke-width="20.0" stroke="black" d="M 185 211 287 20"/>
<path stroke-width="20.0" stroke="black" d="M 185 211 172 147"/>
<path stroke-width="20.0" stroke="black" d="M 185 211 344 305"/>
<path stroke-width="20.0" stroke="black" d="M 185 211 20 165"/>
<path stroke-width="20.0" stroke="black" d="M 185 211 420 218"/>
<path stroke-width="20.0" stroke="black" d="M 185 211 391 87"/>
<path stroke-width="20.0" stroke="black" d="M 185 211 71 93"/>
<path stroke-width="20.0" stroke="black" d="M 185 211 167 38"/>
<path stroke-width="20.0" stroke="black" d="M 185 211 65 258"/>
<path stroke-width="20.0" stroke="black" d="M 185 211 260 244"/>
<path stroke-width="0.5" stroke="black" d="M 167 38 71 93"/>
<path stroke-width="0.5" stroke="black" d="M 287 20 172 147"/>
<circle cx="209" cy="320" r="7.0" style="fill:gray;stroke:black;stroke-width:1.0"/>
<circle cx="260" cy="244" r="7.0" style="fill:gray;stroke:black;stroke-width:1.0"/>
<circle cx="65" cy="258" r="7.0" style="fill:gray;stroke:black;stroke-width:1.0"/>
<circle cx="185" cy="211" r="7.0" style="fill:gray;stroke:black;stroke-width:1.0"/>
<circle cx="167" cy="38" r="7.0" style="fill:gray;stroke:black;stroke-width:1.0"/>
<circle cx="71" cy="93" r="7.0" style="fill:gray;stroke:black;stroke-width:1.0"/>
<circle cx="391" cy="87" r="7.0" style="fill:gray;stroke:black;stroke-width:1.0"/>
<circle cx="420" cy="218" r="7.0" style="fill:gray;stroke:black;stroke-width:1.0"/>
<circle cx="20" cy="165" r="7.0" style="fill:gray;stroke:black;stroke-width:1.0"/>
<circle cx="344" cy="305" r="7.0" style="fill:gray;stroke:black;stroke-width:1.0"/>
<circle cx="172" cy="147" r="7.0" style="fill:gray;stroke:black;stroke-width:1.0"/>
<circle cx="287" cy="20" r="7.0" style="fill:gray;stroke:black;stroke-width:1.0"/>
</svg>
