<svg width="440" height="340" xmlns="http://www.w3.org/2000/svg">
<path stroke-width="1" stroke="black" d="M 328 49 317 140"/>
<path stroke-width="1" stroke="black" d="M 249 320 20 203"/>
<path stroke-width="1" stroke="black" d="M 249 320 143 84"/>
<path stroke-width="1" stroke="black" d="M 249 320 192 20"/>
<path stroke-width="1" stroke="black" d="M 249 320 32 93"/>
<path stroke-width="1" stroke="black" d="M 249 320 71 294"/>
<path stroke-width="1" stroke="black" d="M 249 320 233 195"/>
<path stroke-width="1" stroke="black" d="M 249 320 398 243"/>
<path stroke-width="1" stroke="black" d="M 249 320 317 140"/>
<path stroke-width="1" stroke="black" d="M 249 320 328 49"/>
<path stroke-width="1" stroke="black" d="M 143 84 420 142"/>
<path stroke-width="1" stroke="black" d="M 143 84 182 275"/>
<path stroke-width="1" stroke="black" d="M 143 84 20 203"/>
<path stroke-width="1" stroke="black" d="M 143 84 249 320"/>
<path stroke-width="1" stroke="black" d="M 143 84 192 20"/>
<path stroke-width="1" stroke="black" d="M 143 84 32 93"/>
<path stroke-width="1" stroke="black" d="M 143 84 71 294"/>
<path stroke-width="1" stroke="black" d="M 143 84 233 195"/>
<path stroke-width="1" stroke="black" d="M 143 84 398 243"/>
<path stroke-width="1" stroke="black" d="M 143 84 317 140"/>
<path stroke-width="1" stroke="black" d="M 143 84 328 49"/>
<path stroke-width="1" stroke="black" d="M 192 20 420 142"/>
<path stroke-width="1" stroke="black" d="M 192 20 182 275"/>
<path stroke-width="1" stroke="black" d="M 192 20 20 203"/>
<path stroke-width="1" stroke="black" d="M 192 20 249 320"/>
<path stroke-width="1" stroke="black" d="M 192 20 143 84"/>
<path stroke-width="1" stroke="black" d="M 192 20 32 93"/>
<path stroke-width="1" stroke="black" d="M 192 20 71 294"/>
<path stroke-width="1" stroke="black" d="M 192 20 233 195"/>
<path stroke-width="1" stroke="black" d="M 192 20 398 243"/>
<path stroke-width="1" stroke="black" d="M 249 320 182 275"/>
<path stroke-width="1" stroke="black" d="M 192 20 317 140"/>
<path stroke-width="1" stroke="black" d="M 249 320 420 142"/>
<path stroke-width="1" stroke="black" d="M 20 203 317 140"/>
<path stroke-width="1" stroke="black" d="M 420 142 249 320"/>
<path stroke-width="1" stroke="black" d="M 420 142 143 84"/>
<path stroke-width="1" stroke="black" d="M 420 142 192 20"/>
<path stroke-width="1" stroke="black" d="M 420 142 32 93"/>
<path stroke-width="1" stroke="black" d="M 420 142 71 294"/>
<path stroke-width="1" stroke="black" d="M 420 142 233 195"/>
<path stroke-width="1" stroke="black" d="M 420 142 398 243"/>
<path stroke-width="1" stroke="black" d="M 420 142 317 140"/>
<path stroke-width="1" stroke="black" d="M 420 142 328 49"/>
<path stroke-width="1" stroke="black" d="M 182 275 420 142"/>
<path stroke-width="1" stroke="black" d="M 182 275 20 203"/>
<path stroke-width="1" stroke="black" d="M 182 275 249 320"/>
<path stroke-width="1" stroke="black" d="M 182 275 143 84"/>
<path stroke-width="1" stroke="black" d="M 182 275 192 20"/>
<path stroke-width="1" stroke="black" d="M 182 275 32 93"/>
<path stroke-width="1" stroke="black" d="M 182 275 71 294"/>
<path stroke-width="1" stroke="black" d="M 182 275 233 195"/>
<path stroke-width="1" stroke="black" d="M 182 275 398 243"/>
<path stroke-width="1" stroke="black" d="M 182 275 317 140"/>
<path stroke-width="1" stroke="black" d="M 182 275 328 49"/>
<path stroke-width="1" stroke="black" d="M 20 203 420 142"/>
<path stroke-width="1" stroke="black" d="M 20 203 182 275"/>
<path stroke-width="1" stroke="black" d="M 20 203 249 320"/>
<path stroke-width="1" stroke="black" d="M 20 203 143 84"/>
<path stroke-width="1" stroke="black" d="M 20 203 192 20"/>
<path stroke-width="1" stroke="black" d="M 20 203 32 93"/>
<path stroke-width="1" stroke="black" d="M 20 203 71 294"/>
<path stroke-width="1" stroke="black" d="M 20 203 233 195"/>
<path stroke-width="1" stroke="black" d="M 20 203 398 243"/>
<path stroke-width="1" stroke="black" d="M 20 203 328 49"/>
<path stroke-width="1" stroke="black" d="M 192 20 328 49"/>
<path stroke-width="1" stroke="black" d="M 32 93 420 142"/>
<path stroke-width="1" stroke="black" d="M 32 93 182 275"/>
<path stroke-width="1" stroke="black" d="M 398 243 249 320"/>
<path stroke-width="1" stroke="black" d="M 398 243 143 84"/>
<path stroke-width="1" stroke="black" d="M 398 243 192 20"/>
<path stroke-width="1" stroke="black" d="M 398 243 32 93"/>
<path stroke-width="1" stroke="black" d="M 398 243 71 294"/>
<path stroke-width="1" stroke="black" d="M 398 243 233 195"/>
<path stroke-width="1" stroke="black" d="M 398 243 317 140"/>
<path stroke-width="1" stroke="black" d="M 398 243 328 49"/>
<path stroke-width="1" stroke="black" d="M 317 140 420 142"/>
<path stroke-width="1" stroke="black" d="M 317 140 182 275"/>
<path stroke-width="1" stroke="black" d="M 317 140 20 203"/>
<path stroke-width="1" stroke="black" d="M 317 140 249 320"/>
<path stroke-width="1" stroke="black" d="M 317 140 143 84"/>
<path stroke-width="1" stroke="black" d="M 317 140 192 20"/>
<path stroke-width="1" stroke="black" d="M 317 140 32 93"/>
<path stroke-width="1" stroke="black" d="M 317 140 71 294"/>
<path stroke-width="1" stroke="black" d="M 317 140 233 195"/>
<path stroke-width="1" stroke="black" d="M 317 140 398 243"/>
<path stroke-width="1" stroke="black" d="M 317 140 328 49"/>
<path stroke-width="1" stroke="black" d="M 328 49 420 142"/>
<path stroke-width="1" stroke="black" d="M 328 49 182 275"/>
<path stroke-width="1" stroke="black" d="M 328 49 20 203"/>
<path stroke-width="1" stroke="black" d="M 328 49 249 320"/>
<path stroke-width="1" stroke="black" d="M 328 49 143 84"/>
<path stroke-width="1" stroke="black" d="M 328 49 192 20"/>
<path stroke-width="1" stroke="black" d="M 328 49 32 93"/>
<path stroke-width="1" stroke="black" d="M 328 49 71 294"/>
<path stroke-width="1" stroke="black" d="M 328 49 233 195"/>
<path stroke-width="1" stroke="black" d="M 328 49 398 243"/>
<path stroke-width="1" stroke="black" d="M 398 243 20 203"/>
<path stroke-width="1" stroke="black" d="M 398 243 182 275"/>
<path stroke-width="1" stroke="black" d="M 398 243 420 142"/>
<path stroke-width="1" stroke="black" d="M 233 195 328 49"/>
<path stroke-width="1" stroke="black" d="M 32 93 20 203"/>
<path stroke-width="1" stroke="black" d="M 32 93 249 320"/>
<path stroke-width="1" stroke="black" d="M 32 93 143 84"/>
<path stroke-width="1" stroke="black" d="M 32 93 192 20"/>
<path stroke-width="1" stroke="black" d="M 32 93 71 294"/>
<path stroke-width="1" stroke="black" d="M 32 93 233 195"/>
<path stroke-width="1" stroke="black" d="M 32 93 398 243"/>
<path stroke-width="1" stroke="black" d="M 32 93 317 140"/>
<path stroke-width="1" stroke="black" d="M 32 93 328 49"/>
<path stroke-width="1" stroke="black" d="M 71 294 420 142"/>
<path stroke-width="1" stroke="black" d="M 71 294 182 275"/>
<path stroke-width="1" stroke="black" d="M 71 294 20 203"/>
<path stroke-width="1" stroke="black" d="M 71 294 249 320"/>
<path stroke-width="1" stroke="black" d="M 71 294 143 84"/>
<path stroke-width="1" stroke="black" d="M 420 142 20 203"/>
<path stroke-width="1" stroke="black" d="M 71 294 192 20"/>
<path stroke-width="1" stroke="black" d="M 71 294 233 195"/>
<path stroke-width="1" stroke="black" d="M 71 294 398 243"/>
<path stroke-width="1" stroke="black" d="M 71 294 317 140"/>
<path stroke-width="1" stroke="black" d="M 71 294 328 49"/>
<path stroke-width="1" stroke="black" d="M 233 195 420 142"/>
<path stroke-width="1" stroke="black" d="M 233 195 182 275"/>
<path stroke-width="1" stroke="black" d="M 233 195 20 203"/>
<path stroke-width="1" stroke="black" d="M 233 195 249 320"/>
<path stroke-width="1" stroke="black" d="M 233 195 143 84"/>
<path stroke-width="1" stroke="black" d="M 233 195 192 20"/>
<path stroke-width="1" stroke="black" d="M 233 195 32 93"/>
<path stroke-width="1" stroke="black" d="M 233 195 71 294"/>
<path stroke-width="1" stroke="black" d="M 233 195 398 243"/>
<path stroke-width="1" stroke="black" d="M 233 195 317 140"/>
<path stroke-width="1" stroke="black" d="M 71 294 32 93"/>
<path stroke-width="1" stroke="black" d="M 420 142 182 275"/>
<circle cx="328" cy="49" r="7.0" style="fill:gray;stroke:black;stroke-width:1.0"/>
<circle cx="317" cy="140" r="7.0" style="fill:gray;stroke:black;stroke-width:1.0"/>
<circle cx="398" cy="243" r="7.0" style="fill:gray;stroke:black;stroke-width:1.0"/>
<circle cx="233" cy="195" r="7.0" style="fill:gray;stroke:black;stroke-width:1.0"/>
<circle cx="71" cy="294" r="7.0" style="fill:gray;stroke:black;stroke-width:1.0"/>
<circle cx="32" cy="93" r="7.0" style="fill:gray;stroke:black;stroke-width:1.0"/>
<circle cx="192" cy="20" r="7.0" style="fill:gray;stroke:black;stroke-width:1.0"/>
<circle cx="143" cy="84" r="7.0" style="fill:gray;stroke:black;stroke-width:1.0"/>
<circle cx="249" cy="320" r="7.0" style="fill:gray;stroke:black;stroke-width:1.0"/>
<circle cx="20" cy="203" r="7.0" style="fill:gray;stroke:black;stroke-width:1.0"/>
<circle cx="182" cy="275" r="7.0" style="fill:gray;stroke:black;stroke-width:1.0"/>
<circle cx="420" cy="142" r="7.0" style="fill:gray;stroke:black;stroke-width:1.0"/>
</svg>
