<svg width="440" height="340" xmlns="http://www.w3.org/2000/svg">
<path stroke-width="1" stroke="black" d="M 192 320 193 142"/>
<path stroke-width="1" stroke="black" d="M 155 20 76 270"/>
<path stroke-width="1" stroke="black" d="M 155 20 257 232"/>
<path stroke-width="1" stroke="black" d="M 155 20 338 127"/>
<path stroke-width="1" stroke="black" d="M 155 20 222 126"/>
<path stroke-width="1" stroke="black" d="M 155 20 420 125"/>
<path stroke-width="1" stroke="black" d="M 155 20 321 35"/>
<path stroke-width="1" stroke="black" d="M 155 20 20 173"/>
<path stroke-width="1" stroke="black" d="M 155 20 193 142"/>
<path stroke-width="1" stroke="black" d="M 155 20 192 320"/>
<path stroke-width="1" stroke="black" d="M 257 232 325 285"/>
<path stroke-width="1" stroke="black" d="M 257 232 39 71"/>
<path stroke-width="1" stroke="black" d="M 257 232 76 270"/>
<path stroke-width="1" stroke="black" d="M 257 232 155 20"/>
<path stroke-width="1" stroke="black" d="M 257 232 338 127"/>
<path stroke-width="1" stroke="black" d="M 257 232 222 126"/>
<path stroke-width="1" stroke="black" d="M 257 232 420 125"/>
<path stroke-width="1" stroke="black" d="M 257 232 321 35"/>
<path stroke-width="1" stroke="black" d="M 257 232 20 173"/>
<path stroke-width="1" stroke="black" d="M 257 232 193 142"/>
<path stroke-width="1" stroke="black" d="M 257 232 192 320"/>
<path stroke-width="1" stroke="black" d="M 338 127 325 285"/>
<path stroke-width="1" stroke="black" d="M 338 127 39 71"/>
<path stroke-width="1" stroke="black" d="M 338 127 76 270"/>
<path stroke-width="1" stroke="black" d="M 338 127 155 20"/>
<path stroke-width="1" stroke="black" d="M 338 127 257 232"/>
<path stroke-width="1" stroke="black" d="M 338 127 222 126"/>
<path stroke-width="1" stroke="black" d="M 338 127 420 125"/>
<path stroke-width="1" stroke="black" d="M 338 127 321 35"/>
<path stroke-width="1" stroke="black" d="M 338 127 20 173"/>
<path stroke-width="1" stroke="black" d="M 155 20 39 71"/>
<path stroke-width="1" stroke="black" d="M 338 127 193 142"/>
<path stroke-width="1" stroke="black" d="M 155 20 325 285"/>
<path stroke-width="1" stroke="black" d="M 76 270 193 142"/>
<path stroke-width="1" stroke="black" d="M 325 285 155 20"/>
<path stroke-width="1" stroke="black" d="M 325 285 257 232"/>
<path stroke-width="1" stroke="black" d="M 325 285 338 127"/>
<path stroke-width="1" stroke="black" d="M 325 285 222 126"/>
<path stroke-width="1" stroke="black" d="M 325 285 420 125"/>
<path stroke-width="1" stroke="black" d="M 325 285 321 35"/>
<path stroke-width="1" stroke="black" d="M 325 285 20 173"/>
<path stroke-width="1" stroke="black" d="M 325 285 193 142"/>
<path stroke-width="1" stroke="black" d="M 325 285 192 320"/>
<path stroke-width="1" stroke="black" d="M 39 71 325 285"/>
<path stroke-width="1" stroke="black" d="M 39 71 76 270"/>
<path stroke-width="1" stroke="black" d="M 39 71 155 20"/>
<path stroke-width="1" stroke="black" d="M 39 71 257 232"/>
<path stroke-width="1" stroke="black" d="M 39 71 338 127"/>
<path stroke-width="1" stroke="black" d="M 39 71 222 126"/>
<path stroke-width="1" stroke="black" d="M 39 71 420 125"/>
<path stroke-width="1" stroke="black" d="M 39 71 321 35"/>
<path stroke-width="1" stroke="black" d="M 39 71 20 173"/>
<path stroke-width="1" stroke="black" d="M 39 71 193 142"/>
<path stroke-width="1" stroke="black" d="M 39 71 192 320"/>
<path stroke-width="1" stroke="black" d="M 76 270 325 285"/>
<path stroke-width="1" stroke="black" d="M 76 270 39 71"/>
<path stroke-width="1" stroke="black" d="M 76 270 155 20"/>
<path stroke-width="1" stroke="black" d="M 76 270 257 232"/>
<path stroke-width="1" stroke="black" d="M 76 270 338 127"/>
<path stroke-width="1" stroke="black" d="M 76 270 222 126"/>
<path stroke-width="1" stroke="black" d="M 76 270 420 125"/>
<path stroke-width="1" stroke="black" d="M 76 270 321 35"/>
<path stroke-width="1" stroke="black" d="M 76 270 20 173"/>
<path stroke-width="1" stroke="black" d="M 76 270 192 320"/>
<path stroke-width="1" stroke="black" d="M 338 127 192 320"/>
<path stroke-width="1" stroke="black" d="M 222 126 325 285"/>
<path stroke-width="1" stroke="black" d="M 222 126 39 71"/>
<path stroke-width="1" stroke="black" d="M 20 173 155 20"/>
<path stroke-width="1" stroke="black" d="M 20 173 257 232"/>
<path stroke-width="1" stroke="black" d="M 20 173 338 127"/>
<path stroke-width="1" stroke="black" d="M 20 173 222 126"/>
<path stroke-width="1" stroke="black" d="M 20 173 420 125"/>
<path stroke-width="1" stroke="black" d="M 20 173 321 35"/>
<path stroke-width="1" stroke="black" d="M 20 173 193 142"/>
<path stroke-width="1" stroke="black" d="M 20 173 192 320"/>
<path stroke-width="1" stroke="black" d="M 193 142 325 285"/>
<path stroke-width="1" stroke="black" d="M 193 142 39 71"/>
<path stroke-width="1" stroke="black" d="M 193 142 76 270"/>
<path stroke-width="1" stroke="black" d="M 193 142 155 20"/>
<path stroke-width="1" stroke="black" d="M 193 142 257 232"/>
<path stroke-width="1" stroke="black" d="M 193 142 338 127"/>
<path stroke-width="1" stroke="black" d="M 193 142 222 126"/>
<path stroke-width="1" stroke="black" d="M 193 142 420 125"/>
<path stroke-width="1" stroke="black" d="M 193 142 321 35"/>
<path stroke-width="1" stroke="black" d="M 193 142 20 173"/>
<path stroke-width="1" stroke="black" d="M 193 142 192 320"/>
<path stroke-width="1" stroke="black" d="M 192 320 325 285"/>
<path stroke-width="1" stroke="black" d="M 192 320 39 71"/>
<path stroke-width="1" stroke="black" d="M 192 320 76 270"/>
<path stroke-width="1" stroke="black" d="M 192 320 155 20"/>
<path stroke-width="1" stroke="black" d="M 192 320 257 232"/>
<path stroke-width="1" stroke="black" d="M 192 320 338 127"/>
<path stroke-width="1" stroke="black" d="M 192 320 222 126"/>
<path stroke-width="1" stroke="black" d="M 192 320 420 125"/>
<path stroke-width="1" stroke="black" d="M 192 320 321 35"/>
<path stroke-width="1" stroke="black" d="M 192 320 20 173"/>
<path stroke-width="1" stroke="black" d="M 20 173 76 270"/>
<path stroke-width="1" stroke="black" d="M 20 173 39 71"/>
<path stroke-width="1" stroke="black" d="M 20 173 325 285"/>
<path stroke-width="1" stroke="black" d="M 321 35 192 320"/>
<path stroke-width="1" stroke="black" d="M 222 126 76 270"/>
<path stroke-width="1" stroke="black" d="M 222 126 155 20"/>
<path stroke-width="1" stroke="black" d="M 222 126 257 232"/>
<path stroke-width="1" stroke="black" d="M 222 126 338 127"/>
<path stroke-width="1" stroke="black" d="M 222 126 420 125"/>
<path stroke-width="1" stroke="black" d="M 222 126 321 35"/>
<path stroke-width="1" stroke="black" d="M 222 126 20 173"/>
<path stroke-width="1" stroke="black" d="M 222 126 193 142"/>
<path stroke-width="1" stroke="black" d="M 222 126 192 320"/>
<path stroke-width="1" stroke="black" d="M 420 125 325 285"/>
<path stroke-width="1" stroke="black" d="M 420 125 39 71"/>
<path stroke-width="1" stroke="black" d="M 420 125 76 270"/>
<path stroke-width="1" stroke="black" d="M 420 125 155 20"/>
<path stroke-width="1" stroke="black" d="M 420 125 257 232"/>
<path stroke-width="1" stroke="black" d="M 325 285 76 270"/>
<path stroke-width="1" stroke="black" d="M 420 125 338 127"/>
<path stroke-width="1" stroke="black" d="M 420 125 321 35"/>
<path stroke-width="1" stroke="black" d="M 420 125 20 173"/>
<path stroke-width="1" stroke="black" d="M 420 125 193 142"/>
<path stroke-width="1" stroke="black" d="M 420 125 192 320"/>
<path stroke-width="1" stroke="black" d="M 321 35 325 285"/>
<path stroke-width="1" stroke="black" d="M 321 35 39 71"/>
<path stroke-width="1" stroke="black" d="M 321 35 76 270"/>
<path stroke-width="1" stroke="black" d="M 321 35 155 20"/>
<path stroke-width="1" stroke="black" d="M 321 35 257 232"/>
<path stroke-width="1" stroke="black" d="M 321 35 338 127"/>
<path stroke-width="1" stroke="black" d="M 321 35 222 126"/>
<path stroke-width="1" stroke="black" d="M 321 35 420 125"/>
<path stroke-width="1" stroke="black" d="M 321 35 20 173"/>
<path stroke-width="1" stroke="black" d="M 321 35 193 142"/>
<path stroke-width="1" stroke="black" d="M 420 125 222 126"/>
<path stroke-width="1" stroke="black" d="M 325 285 39 71"/>
<circle cx="192" cy="320" r="7.0" style="fill:gray;stroke:black;stroke-width:1.0"/>
<circle cx="193" cy="142" r="7.0" style="fill:gray;stroke:black;stroke-width:1.0"/>
<circle cx="20" cy="173" r="7.0" style="fill:gray;stroke:black;stroke-width:1.0"/>
<circle cx="321" cy="35" r="7.0" style="fill:gray;stroke:black;stroke-width:1.0"/>
<circle cx="420" cy="125" r="7.0" style="fill:gray;stroke:black;stroke-width:1.0"/>
<circle cx="222" cy="126" r="7.0" style="fill:gray;stroke:black;stroke-width:1.0"/>
<circle cx="338" cy="127" r="7.0" style="fill:gray;stroke:black;stroke-width:1.0"/>
<circle cx="257" cy="232" r="7.0" style="fill:gray;stroke:black;stroke-width:1.0"/>
<circle cx="155" cy="20" r="7.0" style="fill:gray;stroke:black;stroke-width:1.0"/>
<circle cx="76" cy="270" r="7.0" style="fill:gray;stroke:black;stroke-width:1.0"/>
<circle cx="39" cy="71" r="7.0" style="fill:gray;stroke:black;stroke-width:1.0"/>
<circle cx="325" cy="285" r="7.0" style="fill:gray;stroke:black;stroke-width:1.0"/>
</svg>
