<svg width="440" height="340" xmlns="http://www.w3.org/2000/svg">
<path stroke-width="1" stroke="black" d="M 116 227 318 269"/>
<path stroke-width="1" stroke="black" d="M 280 53 267 193"/>
<path stroke-width="1" stroke="black" d="M 280 53 416 227"/>
<path stroke-width="1" stroke="black" d="M 280 53 137 20"/>
<path stroke-width="1" stroke="black" d="M 280 53 219 126"/>
<path stroke-width="1" stroke="black" d="M 280 53 20 160"/>
<path stroke-width="1" stroke="black" d="M 280 53 225 320"/>
<path stroke-width="1" stroke="black" d="M 280 53 96 300"/>
<path stroke-width="1" stroke="black" d="M 280 53 318 269"/>
<path stroke-width="1" stroke="black" d="M 280 53 116 227"/>
<path stroke-width="1" stroke="black" d="M 416 227 420 128"/>
<path stroke-width="1" stroke="black" d="M 416 227 354 20"/>
<path stroke-width="1" stroke="black" d="M 416 227 267 193"/>
<path stroke-width="1" stroke="black" d="M 416 227 280 53"/>
<path stroke-width="1" stroke="black" d="M 416 227 137 20"/>
<path stroke-width="1" stroke="black" d="M 416 227 219 126"/>
<path stroke-width="1" stroke="black" d="M 416 227 20 160"/>
<path stroke-width="1" stroke="black" d="M 416 227 225 320"/>
<path stroke-width="1" stroke="black" d="M 416 227 96 300"/>
<path stroke-width="1" stroke="black" d="M 416 227 318 269"/>
<path stroke-width="1" stroke="black" d="M 416 227 116 227"/>
<path stroke-width="1" stroke="black" d="M 137 20 420 128"/>
<path stroke-width="1" stroke="black" d="M 137 20 354 20"/>
<path stroke-width="1" stroke="black" d="M 137 20 267 193"/>
<path stroke-width="1" stroke="black" d="M 137 20 280 53"/>
<path stroke-width="1" stroke="black" d="M 137 20 416 227"/>
<path stroke-width="1" stroke="black" d="M 137 20 219 126"/>
<path stroke-width="1" stroke="black" d="M 137 20 20 160"/>
<path stroke-width="1" stroke="black" d="M 137 20 225 320"/>
<path stroke-width="1" stroke="black" d="M 137 20 96 300"/>
<path stroke-width="1" stroke="black" d="M 280 53 354 20"/>
<path stroke-width="1" stroke="black" d="M 137 20 318 269"/>
<path stroke-width="1" stroke="black" d="M 280 53 420 128"/>
<path stroke-width="1" stroke="black" d="M 267 193 318 269"/>
<path stroke-width="1" stroke="black" d="M 420 128 280 53"/>
<path stroke-width="1" stroke="black" d="M 420 128 416 227"/>
<path stroke-width="1" stroke="black" d="M 420 128 137 20"/>
<path stroke-width="1" stroke="black" d="M 420 128 219 126"/>
<path stroke-width="1" stroke="black" d="M 420 128 20 160"/>
<path stroke-width="1" stroke="black" d="M 420 128 225 320"/>
<path stroke-width="1" stroke="black" d="M 420 128 96 300"/>
<path stroke-width="1" stroke="black" d="M 420 128 318 269"/>
<path stroke-width="1" stroke="black" d="M 420 128 116 227"/>
<path stroke-width="1" stroke="black" d="M 354 20 420 128"/>
<path stroke-width="1" stroke="black" d="M 354 20 267 193"/>
<path stroke-width="1" stroke="black" d="M 354 20 280 53"/>
<path stroke-width="1" stroke="black" d="M 354 20 416 227"/>
<path stroke-width="1" stroke="black" d="M 354 20 137 20"/>
<path stroke-width="1" stroke="black" d="M 354 20 219 126"/>
<path stroke-width="1" stroke="black" d="M 354 20 20 160"/>
<path stroke-width="1" stroke="black" d="M 354 20 225 320"/>
<path stroke-width="1" stroke="black" d="M 354 20 96 300"/>
<path stroke-width="1" stroke="black" d="M 354 20 318 269"/>
<path stroke-width="1" stroke="black" d="M 354 20 116 227"/>
<path stroke-width="1" stroke="black" d="M 267 193 420 128"/>
<path stroke-width="1" stroke="black" d="M 267 193 354 20"/>
<path stroke-width="1" stroke="black" d="M 267 193 280 53"/>
<path stroke-width="1" stroke="black" d="M 267 193 416 227"/>
<path stroke-width="1" stroke="black" d="M 267 193 137 20"/>
<path stroke-width="1" stroke="black" d="M 267 193 219 126"/>
<path stroke-width="1" stroke="black" d="M 267 193 20 160"/>
<path stroke-width="1" stroke="black" d="M 267 193 225 320"/>
<path stroke-width="1" stroke="black" d="M 267 193 96 300"/>
<path stroke-width="1" stroke="black" d="M 267 193 116 227"/>
<path stroke-width="1" stroke="black" d="M 137 20 116 227"/>
<path stroke-width="1" stroke="black" d="M 219 126 420 128"/>
<path stroke-width="1" stroke="black" d="M 219 126 354 20"/>
<path stroke-width="1" stroke="black" d="M 96 300 280 53"/>
<path stroke-width="1" stroke="black" d="M 96 300 416 227"/>
<path stroke-width="1" stroke="black" d="M 96 300 137 20"/>
<path stroke-width="1" stroke="black" d="M 96 300 219 126"/>
<path stroke-width="1" stroke="black" d="M 96 300 20 160"/>
<path stroke-width="1" stroke="black" d="M 96 300 225 320"/>
<path stroke-width="1" stroke="black" d="M 96 300 318 269"/>
<path stroke-width="1" stroke="black" d="M 96 300 116 227"/>
<path stroke-width="1" stroke="black" d="M 318 269 420 128"/>
<path stroke-width="1" stroke="black" d="M 318 269 354 20"/>
<path stroke-width="1" stroke="black" d="M 318 269 267 193"/>
<path stroke-width="1" stroke="black" d="M 318 269 280 53"/>
<path stroke-width="1" stroke="black" d="M 318 269 416 227"/>
<path stroke-width="1" stroke="black" d="M 318 269 137 20"/>
<path stroke-width="1" stroke="black" d="M 318 269 219 126"/>
<path stroke-width="1" stroke="black" d="M 318 269 20 160"/>
<path stroke-width="1" stroke="black" d="M 318 269 225 320"/>
<path stroke-width="1" stroke="black" d="M 318 269 96 300"/>
<path stroke-width="1" stroke="black" d="M 318 269 116 227"/>
<path stroke-width="1" stroke="black" d="M 116 227 420 128"/>
<path stroke-width="1" stroke="black" d="M 116 227 354 20"/>
<path stroke-width="1" stroke="black" d="M 116 227 267 193"/>
<path stroke-width="1" stroke="black" d="M 116 227 280 53"/>
<path stroke-width="1" stroke="black" d="M 116 227 416 227"/>
<path stroke-width="1" stroke="black" d="M 116 227 137 20"/>
<path stroke-width="1" stroke="black" d="M 116 227 219 126"/>
<path stroke-width="1" stroke="black" d="M 116 227 20 160"/>
<path stroke-width="1" stroke="black" d="M 116 227 225 320"/>
<path stroke-width="1" stroke="black" d="M 116 227 96 300"/>
<path stroke-width="1" stroke="black" d="M 96 300 267 193"/>
<path stroke-width="1" stroke="black" d="M 96 300 354 20"/>
<path stroke-width="1" stroke="black" d="M 96 300 420 128"/>
<path stroke-width="1" stroke="black" d="M 225 320 116 227"/>
<path stroke-width="1" stroke="black" d="M 219 126 267 193"/>
<path stroke-width="1" stroke="black" d="M 219 126 280 53"/>
<path stroke-width="1" stroke="black" d="M 219 126 416 227"/>
<path stroke-width="1" stroke="black" d="M 219 126 137 20"/>
<path stroke-width="1" stroke="black" d="M 219 126 20 160"/>
<path stroke-width="1" stroke="black" d="M 219 126 225 320"/>
<path stroke-width="1" stroke="black" d="M 219 126 96 300"/>
<path stroke-width="1" stroke="black" d="M 219 126 318 269"/>
<path stroke-width="1" stroke="black" d="M 219 126 116 227"/>
<path stroke-width="1" stroke="black" d="M 20 160 420 128"/>
<path stroke-width="1" stroke="black" d="M 20 160 354 20"/>
<path stroke-width="1" stroke="black" d="M 20 160 267 193"/>
<path stroke-width="1" stroke="black" d="M 20 160 280 53"/>
<path stroke-width="1" stroke="black" d="M 20 160 416 227"/>
<path stroke-width="1" stroke="black" d="M 420 128 267 193"/>
<path stroke-width="1" stroke="black" d="M 20 160 137 20"/>
<path stroke-width="1" stroke="black" d="M 20 160 225 320"/>
<path stroke-width="1" stroke="black" d="M 20 160 96 300"/>
<path stroke-width="1" stroke="black" d="M 20 160 318 269"/>
<path stroke-width="1" stroke="black" d="M 20 160 116 227"/>
<path stroke-width="1" stroke="black" d="M 225 320 420 128"/>
<path stroke-width="1" stroke="black" d="M 225 320 354 20"/>
<path stroke-width="1" stroke="black" d="M 225 320 267 193"/>
<path stroke-width="1" stroke="black" d="M 225 320 280 53"/>
<path stroke-width="1" stroke="black" d="M 225 320 416 227"/>
<path stroke-width="1" stroke="black" d="M 225 320 137 20"/>
<path stroke-width="1" stroke="black" d="M 225 320 219 126"/>
<path stroke-width="1" stroke="black" d="M 225 320 20 160"/>
<path stroke-width="1" stroke="black" d="M 225 320 96 300"/>
<path stroke-width="1" stroke="black" d="M 225 320 318 269"/>
<path stroke-width="1" stroke="black" d="M 20 160 219 126"/>
<path stroke-width="1" stroke="black" d="M 420 128 354 20"/>
<circle cx="116" cy="227" r="7.0" style="fill:gray;stroke:black;stroke-width:1.0"/>
<circle cx="318" cy="269" r="7.0" style="fill:gray;stroke:black;stroke-width:1.0"/>
<circle cx="96" cy="300" r="7.0" style="fill:gray;stroke:black;stroke-width:1.0"/>
<circle cx="225" cy="320" r="7.0" style="fill:gray;stroke:black;stroke-width:1.0"/>
<circle cx="20" cy="160" r="7.0" style="fill:gray;stroke:black;stroke-width:1.0"/>
<circle cx="219" cy="126" r="7.0" style="fill:gray;stroke:black;stroke-width:1.0"/>
<circle cx="137" cy="20" r="7.0" style="fill:gray;stroke:black;stroke-width:1.0"/>
<circle cx="416" cy="227" r="7.0" style="fill:gray;stroke:black;stroke-width:1.0"/>
<circle cx="280" cy="53" r="7.0" style="fill:gray;stroke:black;stroke-width:1.0"/>
<circle cx="267" cy="193" r="7.0" style="fill:gray;stroke:black;stroke-width:1.0"/>
<circle cx="354" cy="20" r="7.0" style="fill:gray;stroke:black;stroke-width:1.0"/>
<circle cx="420" cy="128" r="7.0" style="fill:gray;stroke:black;stroke-width:1.0"/>
</svg>
