<svg width="440" height="340" xmlns="http://www.w3.org/2000/svg">
<path stroke-width="1" stroke="black" d="M 270 320 244 316"/>
<path stroke-width="1" stroke="black" d="M 144 159 125 153"/>
<path stroke-width="1" stroke="black" d="M 144 159 234 126"/>
<path stroke-width="1" stroke="black" d="M 225 119 234 126"/>
<path stroke-width="1" stroke="black" d="M 234 126 144 159"/>
<path stroke-width="1" stroke="black" d="M 234 126 225 119"/>
<path stroke-width="1" stroke="black" d="M 234 126 327 100"/>
<path stroke-width="1" stroke="black" d="M 351 103 327 100"/>
<path stroke-width="1" stroke="black" d="M 327 100 234 126"/>
<path stroke-width="1" stroke="black" d="M 327 100 351 103"/>
<path stroke-width="1" stroke="black" d="M 327 100 393 68"/>
<path stroke-width="1" stroke="black" d="M 420 66 393 68"/>
<path stroke-width="1" stroke="black" d="M 393 68 327 100"/>
<path stroke-width="1" stroke="black" d="M 393 68 420 66"/>
<path stroke-width="1" stroke="black" d="M 393 68 392 34"/>
<path stroke-width="1" stroke="black" d="M 386 20 392 34"/>
<path stroke-width="1" stroke="black" d="M 144 159 72 197"/>
<path stroke-width="1" stroke="black" d="M 125 153 144 159"/>
<path stroke-width="1" stroke="black" d="M 72 197 144 159"/>
<path stroke-width="1" stroke="black" d="M 72 197 45 195"/>
<path stroke-width="1" stroke="black" d="M 244 316 270 320"/>
<path stroke-width="1" stroke="black" d="M 244 316 165 305"/>
<path stroke-width="1" stroke="black" d="M 179 312 165 305"/>
<path stroke-width="1" stroke="black" d="M 165 305 244 316"/>
<path stroke-width="1" stroke="black" d="M 165 305 179 312"/>
<path stroke-width="1" stroke="black" d="M 165 305 88 282"/>
<path stroke-width="1" stroke="black" d="M 68 292 88 282"/>
<path stroke-width="1" stroke="black" d="M 392 34 393 68"/>
<path stroke-width="1" stroke="black" d="M 88 282 165 305"/>
<path stroke-width="1" stroke="black" d="M 88 282 42 244"/>
<path stroke-width="1" stroke="black" d="M 20 245 42 244"/>
<path stroke-width="1" stroke="black" d="M 42 244 88 282"/>
<path stroke-width="1" stroke="black" d="M 42 244 20 245"/>
<path stroke-width="1" stroke="black" d="M 42 244 72 197"/>
<path stroke-width="1" stroke="black" d="M 45 195 72 197"/>
<path stroke-width="1" stroke="black" d="M 72 197 42 244"/>
<path stroke-width="1" stroke="black" d="M 88 282 68 292"/>
<path stroke-width="1" stroke="black" d="M 392 34 386 20"/>
<circle cx="270" cy="320" r="7.0" style="fill:gray;stroke:black;stroke-width:1.0"/>
<circle cx="244" cy="316" r="7.0" style="fill:gray;stroke:black;stroke-width:1.0"/>
<circle cx="179" cy="312" r="7.0" style="fill:gray;stroke:black;stroke-width:1.0"/>
<circle cx="165" cy="305" r="7.0" style="fill:gray;stroke:black;stroke-width:1.0"/>
<circle cx="68" cy="292" r="7.0" style="fill:gray;stroke:black;stroke-width:1.0"/>
<circle cx="88" cy="282" r="7.0" style="fill:gray;stroke:black;stroke-width:1.0"/>
<circle cx="20" cy="245" r="7.0" style="fill:gray;stroke:black;stroke-width:1.0"/>
<circle cx="42" cy="244" r="7.0" style="fill:gray;stroke:black;stroke-width:1.0"/>
<circle cx="45" cy="195" r="7.0" style="fill:gray;stroke:black;stroke-width:1.0"/>
<circle cx="72" cy="197" r="7.0" style="fill:gray;stroke:black;stroke-width:1.0"/>
<circle cx="125" cy="153" r="7.0" style="fill:gray;stroke:black;stroke-width:1.0"/>
<circle cx="144" cy="159" r="7.0" style="fill:gray;stroke:black;stroke-width:1.0"/>
<circle cx="225" cy="119" r="7.0" style="fill:gray;stroke:black;stroke-width:1.0"/>
<circle cx="234" cy="126" r="7.0" style="fill:gray;stroke:black;stroke-width:1.0"/>
<circle cx="351" cy="103" r="7.0" style="fill:gray;stroke:black;stroke-width:1.0"/>
<circle cx="327" cy="100" r="7.0" style="fill:gray;stroke:black;stroke-width:1.0"/>
<circle cx="420" cy="66" r="7.0" style="fill:gray;stroke:black;stroke-width:1.0"/>
<circle cx="393" cy="68" r="7.0" style="fill:gray;stroke:black;stroke-width:1.0"/>
<circle cx="386" cy="20" r="7.0" style="fill:gray;stroke:black;stroke-width:1.0"/>
<circle cx="392" cy="34" r="7.0" style="fill:gray;stroke:black;stroke-width:1.0"/>
</svg>
