<svg width="440" height="340" xmlns="http://www.w3.org/2000/svg">
<path stroke-width="20.0" stroke="black" d="M 20 320 32 310"/>
<path stroke-width="20.0" stroke="black" d="M 230 171 215 171"/>
<path stroke-width="0.5" stroke="black" d="M 230 171 264 121"/>
<path stroke-width="20.0" stroke="black" d="M 254 110 264 121"/>
<path stroke-width="0.5" stroke="black" d="M 264 121 230 171"/>
<path stroke-width="20.0" stroke="black" d="M 264 121 254 110"/>
<path stroke-width="0.5" stroke="black" d="M 264 121 305 77"/>
<path stroke-width="20.0" stroke="black" d="M 298 65 305 77"/>
<path stroke-width="0.5" stroke="black" d="M 305 77 264 121"/>
<path stroke-width="20.0" stroke="black" d="M 305 77 298 65"/>
<path stroke-width="0.5" stroke="black" d="M 305 77 352 44"/>
<path stroke-width="20.0" stroke="black" d="M 348 31 352 44"/>
<path stroke-width="0.5" stroke="black" d="M 352 44 305 77"/>
<path stroke-width="20.0" stroke="black" d="M 352 44 348 31"/>
<path stroke-width="0.5" stroke="black" d="M 352 44 399 26"/>
<path stroke-width="8.857142857142858" stroke="black" d="M 420 20 399 26"/>
<path stroke-width="0.5" stroke="black" d="M 230 171 209 224"/>
<path stroke-width="20.0" stroke="black" d="M 215 171 230 171"/>
<path stroke-width="0.5" stroke="black" d="M 209 224 230 171"/>
<path stroke-width="20.0" stroke="black" d="M 209 224 207 235"/>
<path stroke-width="20.0" stroke="black" d="M 32 310 20 320"/>
<path stroke-width="0.5" stroke="black" d="M 32 310 71 284"/>
<path stroke-width="20.0" stroke="black" d="M 60 275 71 284"/>
<path stroke-width="0.5" stroke="black" d="M 71 284 32 310"/>
<path stroke-width="20.0" stroke="black" d="M 71 284 60 275"/>
<path stroke-width="0.5" stroke="black" d="M 71 284 126 274"/>
<path stroke-width="20.0" stroke="black" d="M 122 261 126 274"/>
<path stroke-width="0.5" stroke="black" d="M 399 26 352 44"/>
<path stroke-width="0.5" stroke="black" d="M 126 274 71 284"/>
<path stroke-width="0.5" stroke="black" d="M 126 274 180 268"/>
<path stroke-width="20.0" stroke="black" d="M 193 283 180 268"/>
<path stroke-width="0.5" stroke="black" d="M 180 268 126 274"/>
<path stroke-width="20.0" stroke="black" d="M 180 268 193 283"/>
<path stroke-width="0.5" stroke="black" d="M 180 268 209 224"/>
<path stroke-width="20.0" stroke="black" d="M 207 235 209 224"/>
<path stroke-width="0.5" stroke="black" d="M 209 224 180 268"/>
<path stroke-width="20.0" stroke="black" d="M 126 274 122 261"/>
<path stroke-width="8.857142857142858" stroke="black" d="M 399 26 420 20"/>
<circle cx="20" cy="320" r="20.0" style="fill:gray;stroke:black;stroke-width:1.0"/>
<circle cx="32" cy="310" r="20.0" style="fill:gray;stroke:black;stroke-width:1.0"/>
<circle cx="60" cy="275" r="20.0" style="fill:gray;stroke:black;stroke-width:1.0"/>
<circle cx="71" cy="284" r="20.0" style="fill:gray;stroke:black;stroke-width:1.0"/>
<circle cx="122" cy="261" r="20.0" style="fill:gray;stroke:black;stroke-width:1.0"/>
<circle cx="126" cy="274" r="20.0" style="fill:gray;stroke:black;stroke-width:1.0"/>
<circle cx="193" cy="283" r="20.0" style="fill:gray;stroke:black;stroke-width:1.0"/>
<circle cx="180" cy="268" r="20.0" style="fill:gray;stroke:black;stroke-width:1.0"/>
<circle cx="207" cy="235" r="20.0" style="fill:gray;stroke:black;stroke-width:1.0"/>
<circle cx="209" cy="224" r="20.0" style="fill:gray;stroke:black;stroke-width:1.0"/>
<circle cx="215" cy="171" r="20.0" style="fill:gray;stroke:black;stroke-width:1.0"/>
<circle cx="230" cy="171" r="20.0" style="fill:gray;stroke:black;stroke-width:1.0"/>
<circle cx="254" cy="110" r="20.0" style="fill:gray;stroke:black;stroke-width:1.0"/>
<circle cx="264" cy="121" r="20.0" style="fill:gray;stroke:black;stroke-width:1.0"/>
<circle cx="298" cy="65" r="20.0" style="fill:gray;stroke:black;stroke-width:1.0"/>
<circle cx="305" cy="77" r="20.0" style="fill:gray;stroke:black;stroke-width:1.0"/>
<circle cx="348" cy="31" r="20.0" style="fill:gray;stroke:black;stroke-width:1.0"/>
<circle cx="352" cy="44" r="20.0" style="fill:gray;stroke:black;stroke-width:1.0"/>
<circle cx="420" cy="20" r="20.0" style="fill:gray;stroke:black;stroke-width:1.0"/>
<circle cx="399" cy="26" r="20.0" style="fill:gray;stroke:black;stroke-width:1.0"/>
</svg>
