<svg width="440" height="340" xmlns="http://www.w3.org/2000/svg">
<path stroke-width="1" stroke="black" d="M 20 20 38 32"/>
<path stroke-width="1" stroke="black" d="M 290 303 293 320"/>
<path stroke-width="1" stroke="black" d="M 290 303 251 291"/>
<path stroke-width="1" stroke="black" d="M 233 290 251 291"/>
<path stroke-width="1" stroke="black" d="M 251 291 290 303"/>
<path stroke-width="1" stroke="black" d="M 251 291 233 290"/>
<path stroke-width="1" stroke="black" d="M 251 291 273 247"/>
<path stroke-width="1" stroke="black" d="M 257 238 273 247"/>
<path stroke-width="1" stroke="black" d="M 273 247 251 291"/>
<path stroke-width="1" stroke="black" d="M 273 247 257 238"/>
<path stroke-width="1" stroke="black" d="M 273 247 356 239"/>
<path stroke-width="1" stroke="black" d="M 369 228 356 239"/>
<path stroke-width="1" stroke="black" d="M 356 239 273 247"/>
<path stroke-width="1" stroke="black" d="M 356 239 369 228"/>
<path stroke-width="1" stroke="black" d="M 356 239 402 272"/>
<path stroke-width="1" stroke="black" d="M 420 291 402 272"/>
<path stroke-width="1" stroke="black" d="M 290 303 290 231"/>
<path stroke-width="1" stroke="black" d="M 293 320 290 303"/>
<path stroke-width="1" stroke="black" d="M 290 231 290 303"/>
<path stroke-width="1" stroke="black" d="M 290 231 309 242"/>
<path stroke-width="1" stroke="black" d="M 38 32 20 20"/>
<path stroke-width="1" stroke="black" d="M 38 32 94 71"/>
<path stroke-width="1" stroke="black" d="M 78 66 94 71"/>
<path stroke-width="1" stroke="black" d="M 94 71 38 32"/>
<path stroke-width="1" stroke="black" d="M 94 71 78 66"/>
<path stroke-width="1" stroke="black" d="M 94 71 169 114"/>
<path stroke-width="1" stroke="black" d="M 175 100 169 114"/>
<path stroke-width="1" stroke="black" d="M 402 272 356 239"/>
<path stroke-width="1" stroke="black" d="M 169 114 94 71"/>
<path stroke-width="1" stroke="black" d="M 169 114 240 164"/>
<path stroke-width="1" stroke="black" d="M 255 153 240 164"/>
<path stroke-width="1" stroke="black" d="M 240 164 169 114"/>
<path stroke-width="1" stroke="black" d="M 240 164 255 153"/>
<path stroke-width="1" stroke="black" d="M 240 164 290 231"/>
<path stroke-width="1" stroke="black" d="M 309 242 290 231"/>
<path stroke-width="1" stroke="black" d="M 290 231 240 164"/>
<path stroke-width="1" stroke="black" d="M 169 114 175 100"/>
<path stroke-width="1" stroke="black" d="M 402 272 420 291"/>
<circle cx="20" cy="20" r="7.0" style="fill:gray;stroke:black;stroke-width:1.0"/>
<circle cx="38" cy="32" r="7.0" style="fill:gray;stroke:black;stroke-width:1.0"/>
<circle cx="78" cy="66" r="7.0" style="fill:gray;stroke:black;stroke-width:1.0"/>
<circle cx="94" cy="71" r="7.0" style="fill:gray;stroke:black;stroke-width:1.0"/>
<circle cx="175" cy="100" r="7.0" style="fill:gray;stroke:black;stroke-width:1.0"/>
<circle cx="169" cy="114" r="7.0" style="fill:gray;stroke:black;stroke-width:1.0"/>
<circle cx="255" cy="153" r="7.0" style="fill:gray;stroke:black;stroke-width:1.0"/>
<circle cx="240" cy="164" r="7.0" style="fill:gray;stroke:black;stroke-width:1.0"/>
<circle cx="309" cy="242" r="7.0" style="fill:gray;stroke:black;stroke-width:1.0"/>
<circle cx="290" cy="231" r="7.0" style="fill:gray;stroke:black;stroke-width:1.0"/>
<circle cx="293" cy="320" r="7.0" style="fill:gray;stroke:black;stroke-width:1.0"/>
<circle cx="290" cy="303" r="7.0" style="fill:gray;stroke:black;stroke-width:1.0"/>
<circle cx="233" cy="290" r="7.0" style="fill:gray;stroke:black;stroke-width:1.0"/>
<circle cx="251" cy="291" r="7.0" style="fill:gray;stroke:black;stroke-width:1.0"/>
<circle cx="257" cy="238" r="7.0" style="fill:gray;stroke:black;stroke-width:1.0"/>
<circle cx="273" cy="247" r="7.0" style="fill:gray;stroke:black;stroke-width:1.0"/>
<circle cx="369" cy="228" r="7.0" style="fill:gray;stroke:black;stroke-width:1.0"/>
<circle cx="356" cy="239" r="7.0" style="fill:gray;stroke:black;stroke-width:1.0"/>
<circle cx="420" cy="291" r="7.0" style="fill:gray;stroke:black;stroke-width:1.0"/>
<circle cx="402" cy="272" r="7.0" style="fill:gray;stroke:black;stroke-width:1.0"/>
</svg>
