<svg width="440" height="340" xmlns="http://www.w3.org/2000/svg">
<path stroke-width="20.0" stroke="black" d="M 229 240 20 263"/>
<path stroke-width="20.0" stroke="black" d="M 229 240 264 20"/>
<path stroke-width="20.0" stroke="black" d="M 229 240 420 320"/>
<path stroke-width="20.0" stroke="black" d="M 20 263 229 240"/>
<path stroke-width="0.5" stroke="black" d="M 20 263 264 20"/>
<path stroke-width="0.5" stroke="black" d="M 20 263 420 320"/>
<path stroke-width="20.0" stroke="black" d="M 264 20 229 240"/>
<path stroke-width="0.5" stroke="black" d="M 264 20 20 263"/>
<path stroke-width="0.5" stroke="black" d="M 264 20 420 320"/>
<path stroke-width="20.0" stroke="black" d="M 420 320 229 240"/>
<path stroke-width="0.5" stroke="black" d="M 420 320 20 263"/>
<path stroke-width="0.5" stroke="black" d="M 420 320 264 20"/>
<circle cx="229" cy="240" r="7.0" style="fill:gray;stroke:black;stroke-width:1.0"/>
<circle cx="20" cy="263" r="7.0" style="fill:gray;stroke:black;stroke-width:1.0"/>
<circle cx="264" cy="20" r="7.0" style="fill:gray;stroke:black;stroke-width:1.0"/>
<circle cx="420" cy="320" r="7.0" style="fill:gray;stroke:black;stroke-width:1.0"/>
</svg>
