<svg width="440" height="340" xmlns="http://www.w3.org/2000/svg">
<path stroke-width="1" stroke="black" d="M 55 224 20 178"/>
<path stroke-width="1" stroke="black" d="M 359 58 384 48"/>
<path stroke-width="1" stroke="black" d="M 359 58 345 68"/>
<path stroke-width="1" stroke="black" d="M 133 106 55 133"/>
<path stroke-width="1" stroke="black" d="M 133 106 224 88"/>
<path stroke-width="1" stroke="black" d="M 121 256 197 280"/>
<path stroke-width="1" stroke="black" d="M 121 256 55 224"/>
<path stroke-width="1" stroke="black" d="M 384 48 359 58"/>
<path stroke-width="1" stroke="black" d="M 384 48 420 20"/>
<path stroke-width="1" stroke="black" d="M 348 311 275 299"/>
<path stroke-width="1" stroke="black" d="M 348 311 406 320"/>
<path stroke-width="1" stroke="black" d="M 20 178 55 133"/>
<path stroke-width="1" stroke="black" d="M 20 178 55 224"/>
<path stroke-width="1" stroke="black" d="M 313 73 345 68"/>
<path stroke-width="1" stroke="black" d="M 313 73 224 88"/>
<path stroke-width="1" stroke="black" d="M 345 68 359 58"/>
<path stroke-width="1" stroke="black" d="M 345 68 313 73"/>
<path stroke-width="1" stroke="black" d="M 275 299 197 280"/>
<path stroke-width="1" stroke="black" d="M 275 299 348 311"/>
<path stroke-width="1" stroke="black" d="M 55 133 133 106"/>
<path stroke-width="1" stroke="black" d="M 55 133 20 178"/>
<path stroke-width="1" stroke="black" d="M 224 88 133 106"/>
<path stroke-width="1" stroke="black" d="M 224 88 313 73"/>
<path stroke-width="1" stroke="black" d="M 406 320 348 311"/>
<path stroke-width="1" stroke="black" d="M 420 20 384 48"/>
<path stroke-width="1" stroke="black" d="M 55 224 121 256"/>
<path stroke-width="1" stroke="black" d="M 197 280 275 299"/>
<path stroke-width="1" stroke="black" d="M 197 280 121 256"/>
<circle cx="55" cy="224" r="7.0" style="fill:gray;stroke:black;stroke-width:1.0"/>
<circle cx="420" cy="20" r="7.0" style="fill:gray;stroke:black;stroke-width:1.0"/>
<circle cx="406" cy="320" r="7.0" style="fill:gray;stroke:black;stroke-width:1.0"/>
<circle cx="224" cy="88" r="7.0" style="fill:gray;stroke:black;stroke-width:1.0"/>
<circle cx="55" cy="133" r="7.0" style="fill:gray;stroke:black;stroke-width:1.0"/>
<circle cx="275" cy="299" r="7.0" style="fill:gray;stroke:black;stroke-width:1.0"/>
<circle cx="345" cy="68" r="7.0" style="fill:gray;stroke:black;stroke-width:1.0"/>
<circle cx="313" cy="73" r="7.0" style="fill:gray;stroke:black;stroke-width:1.0"/>
<circle cx="20" cy="178" r="7.0" style="fill:gray;stroke:black;stroke-width:1.0"/>
<circle cx="348" cy="311" r="7.0" style="fill:gray;stroke:black;stroke-width:1.0"/>
<circle cx="384" cy="48" r="7.0" style="fill:gray;stroke:black;stroke-width:1.0"/>
<circle cx="121" cy="256" r="7.0" style="fill:gray;stroke:black;stroke-width:1.0"/>
<circle cx="133" cy="106" r="7.0" style="fill:gray;stroke:black;stroke-width:1.0"/>
<circle cx="359" cy="58" r="7.0" style="fill:gray;stroke:black;stroke-width:1.0"/>
<circle cx="197" cy="280" r="7.0" style="fill:gray;stroke:black;stroke-width:1.0"/>
</svg>
