<svg width="440" height="340" xmlns="http://www.w3.org/2000/svg">
<path stroke-width="1" stroke="black" d="M 59 218 31 161"/>
<path stroke-width="1" stroke="black" d="M 407 110 383 70"/>
<path stroke-width="1" stroke="black" d="M 407 110 420 145"/>
<path stroke-width="1" stroke="black" d="M 383 70 407 110"/>
<path stroke-width="1" stroke="black" d="M 383 70 337 34"/>
<path stroke-width="1" stroke="black" d="M 20 109 31 161"/>
<path stroke-width="1" stroke="black" d="M 20 109 32 92"/>
<path stroke-width="1" stroke="black" d="M 53 77 32 92"/>
<path stroke-width="1" stroke="black" d="M 53 77 124 58"/>
<path stroke-width="1" stroke="black" d="M 337 34 383 70"/>
<path stroke-width="1" stroke="black" d="M 337 34 263 20"/>
<path stroke-width="1" stroke="black" d="M 31 161 20 109"/>
<path stroke-width="1" stroke="black" d="M 31 161 59 218"/>
<path stroke-width="1" stroke="black" d="M 88 282 57 232"/>
<path stroke-width="1" stroke="black" d="M 88 282 110 320"/>
<path stroke-width="1" stroke="black" d="M 193 37 263 20"/>
<path stroke-width="1" stroke="black" d="M 193 37 124 58"/>
<path stroke-width="1" stroke="black" d="M 32 92 20 109"/>
<path stroke-width="1" stroke="black" d="M 32 92 53 77"/>
<path stroke-width="1" stroke="black" d="M 263 20 337 34"/>
<path stroke-width="1" stroke="black" d="M 263 20 193 37"/>
<path stroke-width="1" stroke="black" d="M 110 320 88 282"/>
<path stroke-width="1" stroke="black" d="M 124 58 53 77"/>
<path stroke-width="1" stroke="black" d="M 124 58 193 37"/>
<path stroke-width="1" stroke="black" d="M 420 145 407 110"/>
<path stroke-width="1" stroke="black" d="M 59 218 57 232"/>
<path stroke-width="1" stroke="black" d="M 57 232 59 218"/>
<path stroke-width="1" stroke="black" d="M 57 232 88 282"/>
<circle cx="59" cy="218" r="7.0" style="fill:gray;stroke:black;stroke-width:1.0"/>
<circle cx="420" cy="145" r="7.0" style="fill:gray;stroke:black;stroke-width:1.0"/>
<circle cx="124" cy="58" r="7.0" style="fill:gray;stroke:black;stroke-width:1.0"/>
<circle cx="110" cy="320" r="7.0" style="fill:gray;stroke:black;stroke-width:1.0"/>
<circle cx="263" cy="20" r="7.0" style="fill:gray;stroke:black;stroke-width:1.0"/>
<circle cx="32" cy="92" r="7.0" style="fill:gray;stroke:black;stroke-width:1.0"/>
<circle cx="193" cy="37" r="7.0" style="fill:gray;stroke:black;stroke-width:1.0"/>
<circle cx="88" cy="282" r="7.0" style="fill:gray;stroke:black;stroke-width:1.0"/>
<circle cx="31" cy="161" r="7.0" style="fill:gray;stroke:black;stroke-width:1.0"/>
<circle cx="337" cy="34" r="7.0" style="fill:gray;stroke:black;stroke-width:1.0"/>
<circle cx="53" cy="77" r="7.0" style="fill:gray;stroke:black;stroke-width:1.0"/>
<circle cx="20" cy="109" r="7.0" style="fill:gray;stroke:black;stroke-width:1.0"/>
<circle cx="383" cy="70" r="7.0" style="fill:gray;stroke:black;stroke-width:1.0"/>
<circle cx="407" cy="110" r="7.0" style="fill:gray;stroke:black;stroke-width:1.0"/>
<circle cx="57" cy="232" r="7.0" style="fill:gray;stroke:black;stroke-width:1.0"/>
</svg>
