<svg width="440" height="340" xmlns="http://www.w3.org/2000/svg">
<path stroke-width="1" stroke="black" d="M 20 149 42 112"/>
<path stroke-width="1" stroke="black" d="M 420 320 418 275"/>
<path stroke-width="1" stroke="black" d="M 411 229 418 275"/>
<path stroke-width="1" stroke="black" d="M 411 229 400 170"/>
<path stroke-width="1" stroke="black" d="M 400 170 411 229"/>
<path stroke-width="1" stroke="black" d="M 400 170 374 125"/>
<path stroke-width="1" stroke="black" d="M 374 125 400 170"/>
<path stroke-width="1" stroke="black" d="M 374 125 341 73"/>
<path stroke-width="1" stroke="black" d="M 341 73 374 125"/>
<path stroke-width="1" stroke="black" d="M 341 73 293 38"/>
<path stroke-width="1" stroke="black" d="M 293 38 341 73"/>
<path stroke-width="1" stroke="black" d="M 293 38 237 20"/>
<path stroke-width="1" stroke="black" d="M 237 20 293 38"/>
<path stroke-width="1" stroke="black" d="M 237 20 175 21"/>
<path stroke-width="1" stroke="black" d="M 175 21 237 20"/>
<path stroke-width="1" stroke="black" d="M 175 21 121 37"/>
<path stroke-width="1" stroke="black" d="M 121 37 175 21"/>
<path stroke-width="1" stroke="black" d="M 121 37 78 76"/>
<path stroke-width="1" stroke="black" d="M 78 76 121 37"/>
<path stroke-width="1" stroke="black" d="M 78 76 42 112"/>
<path stroke-width="1" stroke="black" d="M 42 112 78 76"/>
<path stroke-width="1" stroke="black" d="M 42 112 20 149"/>
<path stroke-width="1" stroke="black" d="M 418 275 411 229"/>
<path stroke-width="1" stroke="black" d="M 418 275 420 320"/>
<circle cx="20" cy="149" r="7.0" style="fill:red;stroke:black;stroke-width:1.0"/>
<circle cx="42" cy="112" r="7.0" style="fill:red;stroke:black;stroke-width:1.0"/>
<circle cx="78" cy="76" r="7.0" style="fill:red;stroke:black;stroke-width:1.0"/>
<circle cx="121" cy="37" r="7.0" style="fill:red;stroke:black;stroke-width:1.0"/>
<circle cx="175" cy="21" r="7.0" style="fill:green;stroke:black;stroke-width:1.0"/>
<circle cx="237" cy="20" r="7.0" style="fill:green;stroke:black;stroke-width:1.0"/>
<circle cx="293" cy="38" r="7.0" style="fill:green;stroke:black;stroke-width:1.0"/>
<circle cx="341" cy="73" r="7.0" style="fill:green;stroke:black;stroke-width:1.0"/>
<circle cx="374" cy="125" r="7.0" style="fill:blue;stroke:black;stroke-width:1.0"/>
<circle cx="400" cy="170" r="7.0" style="fill:blue;stroke:black;stroke-width:1.0"/>
<circle cx="411" cy="229" r="7.0" style="fill:blue;stroke:black;stroke-width:1.0"/>
<circle cx="420" cy="320" r="7.0" style="fill:blue;stroke:black;stroke-width:1.0"/>
<circle cx="418" cy="275" r="7.0" style="fill:blue;stroke:black;stroke-width:1.0"/>
</svg>
