<svg width="440" height="340" xmlns="http://www.w3.org/2000/svg">
<path stroke-width="1" stroke="black" d="M 20 20 88 20"/>
<path stroke-width="1" stroke="black" d="M 419 320 420 295"/>
<path stroke-width="1" stroke="black" d="M 419 266 420 295"/>
<path stroke-width="1" stroke="black" d="M 419 266 416 233"/>
<path stroke-width="1" stroke="black" d="M 416 233 419 266"/>
<path stroke-width="1" stroke="black" d="M 416 233 411 200"/>
<path stroke-width="1" stroke="black" d="M 411 200 416 233"/>
<path stroke-width="1" stroke="black" d="M 411 200 394 165"/>
<path stroke-width="1" stroke="black" d="M 394 165 411 200"/>
<path stroke-width="1" stroke="black" d="M 394 165 378 134"/>
<path stroke-width="1" stroke="black" d="M 378 134 394 165"/>
<path stroke-width="1" stroke="black" d="M 378 134 338 100"/>
<path stroke-width="1" stroke="black" d="M 338 100 378 134"/>
<path stroke-width="1" stroke="black" d="M 338 100 300 72"/>
<path stroke-width="1" stroke="black" d="M 300 72 338 100"/>
<path stroke-width="1" stroke="black" d="M 300 72 227 48"/>
<path stroke-width="1" stroke="black" d="M 227 48 300 72"/>
<path stroke-width="1" stroke="black" d="M 227 48 173 29"/>
<path stroke-width="1" stroke="black" d="M 173 29 227 48"/>
<path stroke-width="1" stroke="black" d="M 173 29 88 20"/>
<path stroke-width="1" stroke="black" d="M 88 20 173 29"/>
<path stroke-width="1" stroke="black" d="M 88 20 20 20"/>
<path stroke-width="1" stroke="black" d="M 420 295 419 266"/>
<path stroke-width="1" stroke="black" d="M 420 295 419 320"/>
<circle cx="20" cy="20" r="7.0" style="fill:gray;stroke:black;stroke-width:1.0"/>
<circle cx="88" cy="20" r="7.0" style="fill:gray;stroke:black;stroke-width:1.0"/>
<circle cx="173" cy="29" r="7.0" style="fill:gray;stroke:black;stroke-width:1.0"/>
<circle cx="227" cy="48" r="7.0" style="fill:gray;stroke:black;stroke-width:1.0"/>
<circle cx="300" cy="72" r="7.0" style="fill:gray;stroke:black;stroke-width:1.0"/>
<circle cx="338" cy="100" r="7.0" style="fill:gray;stroke:black;stroke-width:1.0"/>
<circle cx="378" cy="134" r="7.0" style="fill:gray;stroke:black;stroke-width:1.0"/>
<circle cx="394" cy="165" r="7.0" style="fill:gray;stroke:black;stroke-width:1.0"/>
<circle cx="411" cy="200" r="7.0" style="fill:gray;stroke:black;stroke-width:1.0"/>
<circle cx="416" cy="233" r="7.0" style="fill:gray;stroke:black;stroke-width:1.0"/>
<circle cx="419" cy="266" r="7.0" style="fill:gray;stroke:black;stroke-width:1.0"/>
<circle cx="419" cy="320" r="7.0" style="fill:gray;stroke:black;stroke-width:1.0"/>
<circle cx="420" cy="295" r="7.0" style="fill:gray;stroke:black;stroke-width:1.0"/>
</svg>
