<svg width="440" height="340" xmlns="http://www.w3.org/2000/svg">
<path stroke-width="1" stroke="black" d="M 420 171 402 210"/>
<path stroke-width="1" stroke="black" d="M 20 20 25 61"/>
<path stroke-width="1" stroke="black" d="M 33 109 25 61"/>
<path stroke-width="1" stroke="black" d="M 33 109 50 163"/>
<path stroke-width="1" stroke="black" d="M 50 163 33 109"/>
<path stroke-width="1" stroke="black" d="M 50 163 68 213"/>
<path stroke-width="1" stroke="black" d="M 68 213 50 163"/>
<path stroke-width="1" stroke="black" d="M 68 213 108 261"/>
<path stroke-width="1" stroke="black" d="M 108 261 68 213"/>
<path stroke-width="1" stroke="black" d="M 108 261 147 301"/>
<path stroke-width="1" stroke="black" d="M 147 301 108 261"/>
<path stroke-width="1" stroke="black" d="M 147 301 211 320"/>
<path stroke-width="1" stroke="black" d="M 211 320 147 301"/>
<path stroke-width="1" stroke="black" d="M 211 320 271 315"/>
<path stroke-width="1" stroke="black" d="M 271 315 211 320"/>
<path stroke-width="1" stroke="black" d="M 271 315 331 292"/>
<path stroke-width="1" stroke="black" d="M 331 292 271 315"/>
<path stroke-width="1" stroke="black" d="M 331 292 372 253"/>
<path stroke-width="1" stroke="black" d="M 372 253 331 292"/>
<path stroke-width="1" stroke="black" d="M 372 253 402 210"/>
<path stroke-width="1" stroke="black" d="M 402 210 372 253"/>
<path stroke-width="1" stroke="black" d="M 402 210 420 171"/>
<path stroke-width="1" stroke="black" d="M 25 61 33 109"/>
<path stroke-width="1" stroke="black" d="M 25 61 20 20"/>
<circle cx="420" cy="171" r="7.0" style="fill:red;stroke:black;stroke-width:1.0"/>
<circle cx="402" cy="210" r="7.0" style="fill:red;stroke:black;stroke-width:1.0"/>
<circle cx="372" cy="253" r="7.0" style="fill:red;stroke:black;stroke-width:1.0"/>
<circle cx="331" cy="292" r="7.0" style="fill:red;stroke:black;stroke-width:1.0"/>
<circle cx="271" cy="315" r="7.0" style="fill:green;stroke:black;stroke-width:1.0"/>
<circle cx="211" cy="320" r="7.0" style="fill:green;stroke:black;stroke-width:1.0"/>
<circle cx="147" cy="301" r="7.0" style="fill:green;stroke:black;stroke-width:1.0"/>
<circle cx="108" cy="261" r="7.0" style="fill:green;stroke:black;stroke-width:1.0"/>
<circle cx="68" cy="213" r="7.0" style="fill:blue;stroke:black;stroke-width:1.0"/>
<circle cx="50" cy="163" r="7.0" style="fill:blue;stroke:black;stroke-width:1.0"/>
<circle cx="33" cy="109" r="7.0" style="fill:blue;stroke:black;stroke-width:1.0"/>
<circle cx="20" cy="20" r="7.0" style="fill:blue;stroke:black;stroke-width:1.0"/>
<circle cx="25" cy="61" r="7.0" style="fill:blue;stroke:black;stroke-width:1.0"/>
</svg>
