<svg width="440" height="340" xmlns="http://www.w3.org/2000/svg">
<path stroke-width="1" stroke="black" d="M 200 85 182 110"/>
<path stroke-width="1" stroke="black" d="M 203 155 186 188"/>
<path stroke-width="1" stroke="black" d="M 203 155 125 115"/>
<path stroke-width="1" stroke="black" d="M 203 155 135 96"/>
<path stroke-width="1" stroke="black" d="M 203 155 108 181"/>
<path stroke-width="1" stroke="black" d="M 203 155 131 194"/>
<path stroke-width="1" stroke="black" d="M 203 155 103 104"/>
<path stroke-width="1" stroke="black" d="M 203 155 186 107"/>
<path stroke-width="1" stroke="black" d="M 203 155 196 150"/>
<path stroke-width="1" stroke="black" d="M 203 155 90 146"/>
<path stroke-width="1" stroke="black" d="M 203 155 157 86"/>
<path stroke-width="1" stroke="black" d="M 203 155 250 165"/>
<path stroke-width="1" stroke="black" d="M 203 155 133 210"/>
<path stroke-width="1" stroke="black" d="M 203 155 151 78"/>
<path stroke-width="1" stroke="black" d="M 203 155 205 181"/>
<path stroke-width="1" stroke="black" d="M 203 155 84 185"/>
<path stroke-width="1" stroke="black" d="M 203 155 216 117"/>
<path stroke-width="1" stroke="black" d="M 203 155 102 94"/>
<path stroke-width="1" stroke="black" d="M 203 155 213 127"/>
<path stroke-width="1" stroke="black" d="M 203 155 112 165"/>
<path stroke-width="1" stroke="black" d="M 203 155 168 194"/>
<path stroke-width="1" stroke="black" d="M 157 86 186 107"/>
<path stroke-width="1" stroke="black" d="M 157 86 90 146"/>
<path stroke-width="1" stroke="black" d="M 157 86 102 94"/>
<path stroke-width="1" stroke="black" d="M 157 86 157 41"/>
<path stroke-width="1" stroke="black" d="M 157 86 203 155"/>
<path stroke-width="1" stroke="black" d="M 157 86 133 210"/>
<path stroke-width="1" stroke="black" d="M 157 86 151 78"/>
<path stroke-width="1" stroke="black" d="M 203 155 97 131"/>
<path stroke-width="1" stroke="black" d="M 157 86 205 181"/>
<path stroke-width="1" stroke="black" d="M 157 86 216 117"/>
<path stroke-width="1" stroke="black" d="M 157 86 213 127"/>
<path stroke-width="1" stroke="black" d="M 157 86 171 220"/>
<path stroke-width="1" stroke="black" d="M 157 86 244 113"/>
<path stroke-width="1" stroke="black" d="M 250 165 203 155"/>
<path stroke-width="1" stroke="black" d="M 203 155 182 110"/>
<path stroke-width="1" stroke="black" d="M 203 155 191 148"/>
<path stroke-width="1" stroke="black" d="M 157 86 84 185"/>
<path stroke-width="1" stroke="black" d="M 157 86 103 104"/>
<path stroke-width="1" stroke="black" d="M 203 155 171 220"/>
<path stroke-width="1" stroke="black" d="M 116 262 133 210"/>
<path stroke-width="1" stroke="black" d="M 133 210 84 185"/>
<path stroke-width="1" stroke="black" d="M 133 210 216 117"/>
<path stroke-width="1" stroke="black" d="M 133 210 213 127"/>
<path stroke-width="1" stroke="black" d="M 133 210 171 220"/>
<path stroke-width="1" stroke="black" d="M 133 210 244 113"/>
<path stroke-width="1" stroke="black" d="M 142 20 151 78"/>
<path stroke-width="1" stroke="black" d="M 151 78 182 110"/>
<path stroke-width="1" stroke="black" d="M 133 210 205 181"/>
<path stroke-width="1" stroke="black" d="M 151 78 191 148"/>
<path stroke-width="1" stroke="black" d="M 151 78 97 131"/>
<path stroke-width="1" stroke="black" d="M 151 78 112 165"/>
<path stroke-width="1" stroke="black" d="M 151 78 196 150"/>
<path stroke-width="1" stroke="black" d="M 151 78 186 188"/>
<path stroke-width="1" stroke="black" d="M 151 78 125 115"/>
<path stroke-width="1" stroke="black" d="M 151 78 135 96"/>
<path stroke-width="1" stroke="black" d="M 151 78 108 181"/>
<path stroke-width="1" stroke="black" d="M 151 78 168 194"/>
<path stroke-width="1" stroke="black" d="M 203 155 244 113"/>
<path stroke-width="1" stroke="black" d="M 133 210 151 78"/>
<path stroke-width="1" stroke="black" d="M 133 210 203 155"/>
<path stroke-width="1" stroke="black" d="M 133 210 182 110"/>
<path stroke-width="1" stroke="black" d="M 133 210 191 148"/>
<path stroke-width="1" stroke="black" d="M 133 210 168 194"/>
<path stroke-width="1" stroke="black" d="M 133 210 97 131"/>
<path stroke-width="1" stroke="black" d="M 133 210 112 165"/>
<path stroke-width="1" stroke="black" d="M 133 210 196 150"/>
<path stroke-width="1" stroke="black" d="M 133 210 186 188"/>
<path stroke-width="1" stroke="black" d="M 133 210 116 262"/>
<path stroke-width="1" stroke="black" d="M 133 210 125 115"/>
<path stroke-width="1" stroke="black" d="M 133 210 108 181"/>
<path stroke-width="1" stroke="black" d="M 133 210 131 194"/>
<path stroke-width="1" stroke="black" d="M 133 210 103 104"/>
<path stroke-width="1" stroke="black" d="M 133 210 186 107"/>
<path stroke-width="1" stroke="black" d="M 133 210 90 146"/>
<path stroke-width="1" stroke="black" d="M 133 210 102 94"/>
<path stroke-width="1" stroke="black" d="M 133 210 157 86"/>
<path stroke-width="1" stroke="black" d="M 133 210 135 96"/>
<path stroke-width="1" stroke="black" d="M 151 78 131 194"/>
<path stroke-width="1" stroke="black" d="M 157 86 131 194"/>
<path stroke-width="1" stroke="black" d="M 157 86 135 96"/>
<path stroke-width="1" stroke="black" d="M 90 146 112 165"/>
<path stroke-width="1" stroke="black" d="M 90 146 196 150"/>
<path stroke-width="1" stroke="black" d="M 90 146 186 188"/>
<path stroke-width="1" stroke="black" d="M 90 146 125 115"/>
<path stroke-width="1" stroke="black" d="M 90 146 135 96"/>
<path stroke-width="1" stroke="black" d="M 90 146 108 181"/>
<path stroke-width="1" stroke="black" d="M 90 146 131 194"/>
<path stroke-width="1" stroke="black" d="M 90 146 97 131"/>
<path stroke-width="1" stroke="black" d="M 90 146 103 104"/>
<path stroke-width="1" stroke="black" d="M 90 146 44 145"/>
<path stroke-width="1" stroke="black" d="M 90 146 102 94"/>
<path stroke-width="1" stroke="black" d="M 90 146 157 86"/>
<path stroke-width="1" stroke="black" d="M 90 146 203 155"/>
<path stroke-width="1" stroke="black" d="M 90 146 133 210"/>
<path stroke-width="1" stroke="black" d="M 90 146 151 78"/>
<path stroke-width="1" stroke="black" d="M 90 146 205 181"/>
<path stroke-width="1" stroke="black" d="M 90 146 186 107"/>
<path stroke-width="1" stroke="black" d="M 90 146 84 185"/>
<path stroke-width="1" stroke="black" d="M 90 146 168 194"/>
<path stroke-width="1" stroke="black" d="M 90 146 182 110"/>
<path stroke-width="1" stroke="black" d="M 186 107 131 194"/>
<path stroke-width="1" stroke="black" d="M 186 107 103 104"/>
<path stroke-width="1" stroke="black" d="M 186 107 216 77"/>
<path stroke-width="1" stroke="black" d="M 186 107 90 146"/>
<path stroke-width="1" stroke="black" d="M 186 107 102 94"/>
<path stroke-width="1" stroke="black" d="M 186 107 157 86"/>
<path stroke-width="1" stroke="black" d="M 186 107 203 155"/>
<path stroke-width="1" stroke="black" d="M 90 146 191 148"/>
<path stroke-width="1" stroke="black" d="M 186 107 133 210"/>
<path stroke-width="1" stroke="black" d="M 186 107 205 181"/>
<path stroke-width="1" stroke="black" d="M 186 107 84 185"/>
<path stroke-width="1" stroke="black" d="M 186 107 216 117"/>
<path stroke-width="1" stroke="black" d="M 186 107 213 127"/>
<path stroke-width="1" stroke="black" d="M 186 107 171 220"/>
<path stroke-width="1" stroke="black" d="M 186 107 244 113"/>
<path stroke-width="1" stroke="black" d="M 44 145 90 146"/>
<path stroke-width="1" stroke="black" d="M 186 107 151 78"/>
<path stroke-width="1" stroke="black" d="M 157 86 108 181"/>
<path stroke-width="1" stroke="black" d="M 90 146 216 117"/>
<path stroke-width="1" stroke="black" d="M 90 146 171 220"/>
<path stroke-width="1" stroke="black" d="M 102 94 151 78"/>
<path stroke-width="1" stroke="black" d="M 102 94 205 181"/>
<path stroke-width="1" stroke="black" d="M 102 94 84 185"/>
<path stroke-width="1" stroke="black" d="M 102 94 216 117"/>
<path stroke-width="1" stroke="black" d="M 102 94 213 127"/>
<path stroke-width="1" stroke="black" d="M 102 94 171 220"/>
<path stroke-width="1" stroke="black" d="M 102 94 244 113"/>
<path stroke-width="1" stroke="black" d="M 102 94 133 210"/>
<path stroke-width="1" stroke="black" d="M 157 41 157 86"/>
<path stroke-width="1" stroke="black" d="M 157 86 191 148"/>
<path stroke-width="1" stroke="black" d="M 157 86 168 194"/>
<path stroke-width="1" stroke="black" d="M 157 86 97 131"/>
<path stroke-width="1" stroke="black" d="M 157 86 112 165"/>
<path stroke-width="1" stroke="black" d="M 157 86 196 150"/>
<path stroke-width="1" stroke="black" d="M 157 86 186 188"/>
<path stroke-width="1" stroke="black" d="M 157 86 125 115"/>
<path stroke-width="1" stroke="black" d="M 157 86 182 110"/>
<path stroke-width="1" stroke="black" d="M 90 146 213 127"/>
<path stroke-width="1" stroke="black" d="M 102 94 203 155"/>
<path stroke-width="1" stroke="black" d="M 102 94 69 60"/>
<path stroke-width="1" stroke="black" d="M 90 146 244 113"/>
<path stroke-width="1" stroke="black" d="M 69 60 102 94"/>
<path stroke-width="1" stroke="black" d="M 102 94 182 110"/>
<path stroke-width="1" stroke="black" d="M 102 94 191 148"/>
<path stroke-width="1" stroke="black" d="M 102 94 168 194"/>
<path stroke-width="1" stroke="black" d="M 102 94 97 131"/>
<path stroke-width="1" stroke="black" d="M 102 94 112 165"/>
<path stroke-width="1" stroke="black" d="M 102 94 157 86"/>
<path stroke-width="1" stroke="black" d="M 102 94 196 150"/>
<path stroke-width="1" stroke="black" d="M 102 94 125 115"/>
<path stroke-width="1" stroke="black" d="M 102 94 135 96"/>
<path stroke-width="1" stroke="black" d="M 102 94 108 181"/>
<path stroke-width="1" stroke="black" d="M 102 94 131 194"/>
<path stroke-width="1" stroke="black" d="M 102 94 103 104"/>
<path stroke-width="1" stroke="black" d="M 102 94 186 107"/>
<path stroke-width="1" stroke="black" d="M 102 94 90 146"/>
<path stroke-width="1" stroke="black" d="M 102 94 186 188"/>
<path stroke-width="1" stroke="black" d="M 151 78 103 104"/>
<path stroke-width="1" stroke="black" d="M 151 78 186 107"/>
<path stroke-width="1" stroke="black" d="M 151 78 90 146"/>
<path stroke-width="1" stroke="black" d="M 213 127 90 146"/>
<path stroke-width="1" stroke="black" d="M 213 127 102 94"/>
<path stroke-width="1" stroke="black" d="M 213 127 157 86"/>
<path stroke-width="1" stroke="black" d="M 213 127 203 155"/>
<path stroke-width="1" stroke="black" d="M 213 127 133 210"/>
<path stroke-width="1" stroke="black" d="M 213 127 151 78"/>
<path stroke-width="1" stroke="black" d="M 213 127 205 181"/>
<path stroke-width="1" stroke="black" d="M 213 127 186 107"/>
<path stroke-width="1" stroke="black" d="M 213 127 84 185"/>
<path stroke-width="1" stroke="black" d="M 213 127 300 113"/>
<path stroke-width="1" stroke="black" d="M 213 127 171 220"/>
<path stroke-width="1" stroke="black" d="M 201 320 171 220"/>
<path stroke-width="1" stroke="black" d="M 171 220 182 110"/>
<path stroke-width="1" stroke="black" d="M 171 220 191 148"/>
<path stroke-width="1" stroke="black" d="M 171 220 168 194"/>
<path stroke-width="1" stroke="black" d="M 171 220 97 131"/>
<path stroke-width="1" stroke="black" d="M 213 127 216 117"/>
<path stroke-width="1" stroke="black" d="M 171 220 112 165"/>
<path stroke-width="1" stroke="black" d="M 213 127 103 104"/>
<path stroke-width="1" stroke="black" d="M 213 127 108 181"/>
<path stroke-width="1" stroke="black" d="M 216 117 151 78"/>
<path stroke-width="1" stroke="black" d="M 216 117 205 181"/>
<path stroke-width="1" stroke="black" d="M 216 117 84 185"/>
<path stroke-width="1" stroke="black" d="M 216 117 287 82"/>
<path stroke-width="1" stroke="black" d="M 216 117 213 127"/>
<path stroke-width="1" stroke="black" d="M 216 117 171 220"/>
<path stroke-width="1" stroke="black" d="M 300 113 213 127"/>
<path stroke-width="1" stroke="black" d="M 213 127 131 194"/>
<path stroke-width="1" stroke="black" d="M 213 127 182 110"/>
<path stroke-width="1" stroke="black" d="M 213 127 168 194"/>
<path stroke-width="1" stroke="black" d="M 213 127 97 131"/>
<path stroke-width="1" stroke="black" d="M 213 127 112 165"/>
<path stroke-width="1" stroke="black" d="M 213 127 196 150"/>
<path stroke-width="1" stroke="black" d="M 213 127 186 188"/>
<path stroke-width="1" stroke="black" d="M 213 127 125 115"/>
<path stroke-width="1" stroke="black" d="M 213 127 135 96"/>
<path stroke-width="1" stroke="black" d="M 213 127 191 148"/>
<path stroke-width="1" stroke="black" d="M 216 117 133 210"/>
<path stroke-width="1" stroke="black" d="M 171 220 196 150"/>
<path stroke-width="1" stroke="black" d="M 171 220 125 115"/>
<path stroke-width="1" stroke="black" d="M 244 113 97 131"/>
<path stroke-width="1" stroke="black" d="M 244 113 112 165"/>
<path stroke-width="1" stroke="black" d="M 244 113 196 150"/>
<path stroke-width="1" stroke="black" d="M 244 113 186 188"/>
<path stroke-width="1" stroke="black" d="M 244 113 125 115"/>
<path stroke-width="1" stroke="black" d="M 244 113 135 96"/>
<path stroke-width="1" stroke="black" d="M 244 113 108 181"/>
<path stroke-width="1" stroke="black" d="M 244 113 168 194"/>
<path stroke-width="1" stroke="black" d="M 244 113 131 194"/>
<path stroke-width="1" stroke="black" d="M 244 113 186 107"/>
<path stroke-width="1" stroke="black" d="M 244 113 90 146"/>
<path stroke-width="1" stroke="black" d="M 244 113 102 94"/>
<path stroke-width="1" stroke="black" d="M 244 113 157 86"/>
<path stroke-width="1" stroke="black" d="M 244 113 203 155"/>
<path stroke-width="1" stroke="black" d="M 244 113 133 210"/>
<path stroke-width="1" stroke="black" d="M 244 113 151 78"/>
<path stroke-width="1" stroke="black" d="M 244 113 103 104"/>
<path stroke-width="1" stroke="black" d="M 171 220 186 188"/>
<path stroke-width="1" stroke="black" d="M 244 113 191 148"/>
<path stroke-width="1" stroke="black" d="M 420 79 244 113"/>
<path stroke-width="1" stroke="black" d="M 171 220 135 96"/>
<path stroke-width="1" stroke="black" d="M 171 220 108 181"/>
<path stroke-width="1" stroke="black" d="M 171 220 131 194"/>
<path stroke-width="1" stroke="black" d="M 171 220 103 104"/>
<path stroke-width="1" stroke="black" d="M 171 220 186 107"/>
<path stroke-width="1" stroke="black" d="M 171 220 90 146"/>
<path stroke-width="1" stroke="black" d="M 171 220 102 94"/>
<path stroke-width="1" stroke="black" d="M 244 113 182 110"/>
<path stroke-width="1" stroke="black" d="M 171 220 157 86"/>
<path stroke-width="1" stroke="black" d="M 171 220 133 210"/>
<path stroke-width="1" stroke="black" d="M 171 220 151 78"/>
<path stroke-width="1" stroke="black" d="M 171 220 205 181"/>
<path stroke-width="1" stroke="black" d="M 171 220 84 185"/>
<path stroke-width="1" stroke="black" d="M 171 220 216 117"/>
<path stroke-width="1" stroke="black" d="M 171 220 213 127"/>
<path stroke-width="1" stroke="black" d="M 171 220 201 320"/>
<path stroke-width="1" stroke="black" d="M 171 220 203 155"/>
<path stroke-width="1" stroke="black" d="M 216 117 203 155"/>
<path stroke-width="1" stroke="black" d="M 216 117 157 86"/>
<path stroke-width="1" stroke="black" d="M 216 117 102 94"/>
<path stroke-width="1" stroke="black" d="M 205 181 135 96"/>
<path stroke-width="1" stroke="black" d="M 205 181 108 181"/>
<path stroke-width="1" stroke="black" d="M 205 181 131 194"/>
<path stroke-width="1" stroke="black" d="M 205 181 103 104"/>
<path stroke-width="1" stroke="black" d="M 205 181 186 107"/>
<path stroke-width="1" stroke="black" d="M 205 181 90 146"/>
<path stroke-width="1" stroke="black" d="M 205 181 102 94"/>
<path stroke-width="1" stroke="black" d="M 205 181 125 115"/>
<path stroke-width="1" stroke="black" d="M 205 181 157 86"/>
<path stroke-width="1" stroke="black" d="M 205 181 133 210"/>
<path stroke-width="1" stroke="black" d="M 205 181 151 78"/>
<path stroke-width="1" stroke="black" d="M 205 181 257 206"/>
<path stroke-width="1" stroke="black" d="M 205 181 84 185"/>
<path stroke-width="1" stroke="black" d="M 205 181 216 117"/>
<path stroke-width="1" stroke="black" d="M 205 181 213 127"/>
<path stroke-width="1" stroke="black" d="M 205 181 171 220"/>
<path stroke-width="1" stroke="black" d="M 205 181 203 155"/>
<path stroke-width="1" stroke="black" d="M 205 181 244 113"/>
<path stroke-width="1" stroke="black" d="M 205 181 186 188"/>
<path stroke-width="1" stroke="black" d="M 205 181 112 165"/>
<path stroke-width="1" stroke="black" d="M 151 78 102 94"/>
<path stroke-width="1" stroke="black" d="M 151 78 157 86"/>
<path stroke-width="1" stroke="black" d="M 151 78 203 155"/>
<path stroke-width="1" stroke="black" d="M 151 78 133 210"/>
<path stroke-width="1" stroke="black" d="M 151 78 142 20"/>
<path stroke-width="1" stroke="black" d="M 151 78 205 181"/>
<path stroke-width="1" stroke="black" d="M 151 78 84 185"/>
<path stroke-width="1" stroke="black" d="M 205 181 196 150"/>
<path stroke-width="1" stroke="black" d="M 151 78 216 117"/>
<path stroke-width="1" stroke="black" d="M 151 78 171 220"/>
<path stroke-width="1" stroke="black" d="M 151 78 244 113"/>
<path stroke-width="1" stroke="black" d="M 257 206 205 181"/>
<path stroke-width="1" stroke="black" d="M 205 181 182 110"/>
<path stroke-width="1" stroke="black" d="M 205 181 191 148"/>
<path stroke-width="1" stroke="black" d="M 205 181 168 194"/>
<path stroke-width="1" stroke="black" d="M 205 181 97 131"/>
<path stroke-width="1" stroke="black" d="M 151 78 213 127"/>
<path stroke-width="1" stroke="black" d="M 20 216 84 185"/>
<path stroke-width="1" stroke="black" d="M 84 185 182 110"/>
<path stroke-width="1" stroke="black" d="M 84 185 191 148"/>
<path stroke-width="1" stroke="black" d="M 84 185 171 220"/>
<path stroke-width="1" stroke="black" d="M 287 82 216 117"/>
<path stroke-width="1" stroke="black" d="M 216 117 182 110"/>
<path stroke-width="1" stroke="black" d="M 216 117 191 148"/>
<path stroke-width="1" stroke="black" d="M 216 117 168 194"/>
<path stroke-width="1" stroke="black" d="M 216 117 97 131"/>
<path stroke-width="1" stroke="black" d="M 216 117 112 165"/>
<path stroke-width="1" stroke="black" d="M 84 185 213 127"/>
<path stroke-width="1" stroke="black" d="M 216 117 196 150"/>
<path stroke-width="1" stroke="black" d="M 216 117 125 115"/>
<path stroke-width="1" stroke="black" d="M 216 117 135 96"/>
<path stroke-width="1" stroke="black" d="M 216 117 108 181"/>
<path stroke-width="1" stroke="black" d="M 216 117 131 194"/>
<path stroke-width="1" stroke="black" d="M 216 117 103 104"/>
<path stroke-width="1" stroke="black" d="M 216 117 186 107"/>
<path stroke-width="1" stroke="black" d="M 216 117 90 146"/>
<path stroke-width="1" stroke="black" d="M 216 117 186 188"/>
<path stroke-width="1" stroke="black" d="M 84 185 216 117"/>
<path stroke-width="1" stroke="black" d="M 84 185 20 216"/>
<path stroke-width="1" stroke="black" d="M 84 185 205 181"/>
<path stroke-width="1" stroke="black" d="M 84 185 168 194"/>
<path stroke-width="1" stroke="black" d="M 84 185 97 131"/>
<path stroke-width="1" stroke="black" d="M 84 185 112 165"/>
<path stroke-width="1" stroke="black" d="M 84 185 196 150"/>
<path stroke-width="1" stroke="black" d="M 84 185 186 188"/>
<path stroke-width="1" stroke="black" d="M 84 185 125 115"/>
<path stroke-width="1" stroke="black" d="M 84 185 135 96"/>
<path stroke-width="1" stroke="black" d="M 84 185 108 181"/>
<path stroke-width="1" stroke="black" d="M 84 185 131 194"/>
<path stroke-width="1" stroke="black" d="M 84 185 103 104"/>
<path stroke-width="1" stroke="black" d="M 84 185 186 107"/>
<path stroke-width="1" stroke="black" d="M 84 185 90 146"/>
<path stroke-width="1" stroke="black" d="M 84 185 102 94"/>
<path stroke-width="1" stroke="black" d="M 84 185 157 86"/>
<path stroke-width="1" stroke="black" d="M 84 185 203 155"/>
<path stroke-width="1" stroke="black" d="M 84 185 133 210"/>
<path stroke-width="1" stroke="black" d="M 84 185 151 78"/>
<path stroke-width="1" stroke="black" d="M 186 107 108 181"/>
<path stroke-width="1" stroke="black" d="M 186 107 135 96"/>
<path stroke-width="1" stroke="black" d="M 186 107 125 115"/>
<path stroke-width="1" stroke="black" d="M 186 107 186 188"/>
<path stroke-width="1" stroke="black" d="M 97 131 171 220"/>
<path stroke-width="1" stroke="black" d="M 97 131 244 113"/>
<path stroke-width="1" stroke="black" d="M 81 174 112 165"/>
<path stroke-width="1" stroke="black" d="M 112 165 182 110"/>
<path stroke-width="1" stroke="black" d="M 112 165 191 148"/>
<path stroke-width="1" stroke="black" d="M 112 165 168 194"/>
<path stroke-width="1" stroke="black" d="M 112 165 97 131"/>
<path stroke-width="1" stroke="black" d="M 97 131 213 127"/>
<path stroke-width="1" stroke="black" d="M 112 165 81 174"/>
<path stroke-width="1" stroke="black" d="M 112 165 186 188"/>
<path stroke-width="1" stroke="black" d="M 112 165 125 115"/>
<path stroke-width="1" stroke="black" d="M 112 165 135 96"/>
<path stroke-width="1" stroke="black" d="M 112 165 108 181"/>
<path stroke-width="1" stroke="black" d="M 112 165 131 194"/>
<path stroke-width="1" stroke="black" d="M 112 165 103 104"/>
<path stroke-width="1" stroke="black" d="M 112 165 186 107"/>
<path stroke-width="1" stroke="black" d="M 112 165 196 150"/>
<path stroke-width="1" stroke="black" d="M 112 165 90 146"/>
<path stroke-width="1" stroke="black" d="M 97 131 216 117"/>
<path stroke-width="1" stroke="black" d="M 97 131 205 181"/>
<path stroke-width="1" stroke="black" d="M 97 131 67 121"/>
<path stroke-width="1" stroke="black" d="M 97 131 112 165"/>
<path stroke-width="1" stroke="black" d="M 97 131 196 150"/>
<path stroke-width="1" stroke="black" d="M 97 131 186 188"/>
<path stroke-width="1" stroke="black" d="M 97 131 125 115"/>
<path stroke-width="1" stroke="black" d="M 97 131 135 96"/>
<path stroke-width="1" stroke="black" d="M 97 131 108 181"/>
<path stroke-width="1" stroke="black" d="M 97 131 84 185"/>
<path stroke-width="1" stroke="black" d="M 97 131 131 194"/>
<path stroke-width="1" stroke="black" d="M 97 131 186 107"/>
<path stroke-width="1" stroke="black" d="M 97 131 90 146"/>
<path stroke-width="1" stroke="black" d="M 97 131 102 94"/>
<path stroke-width="1" stroke="black" d="M 97 131 157 86"/>
<path stroke-width="1" stroke="black" d="M 97 131 203 155"/>
<path stroke-width="1" stroke="black" d="M 97 131 133 210"/>
<path stroke-width="1" stroke="black" d="M 97 131 151 78"/>
<path stroke-width="1" stroke="black" d="M 97 131 103 104"/>
<path stroke-width="1" stroke="black" d="M 97 131 168 194"/>
<path stroke-width="1" stroke="black" d="M 112 165 102 94"/>
<path stroke-width="1" stroke="black" d="M 112 165 203 155"/>
<path stroke-width="1" stroke="black" d="M 196 150 103 104"/>
<path stroke-width="1" stroke="black" d="M 196 150 186 107"/>
<path stroke-width="1" stroke="black" d="M 196 150 90 146"/>
<path stroke-width="1" stroke="black" d="M 196 150 102 94"/>
<path stroke-width="1" stroke="black" d="M 196 150 157 86"/>
<path stroke-width="1" stroke="black" d="M 196 150 203 155"/>
<path stroke-width="1" stroke="black" d="M 196 150 133 210"/>
<path stroke-width="1" stroke="black" d="M 196 150 131 194"/>
<path stroke-width="1" stroke="black" d="M 196 150 151 78"/>
<path stroke-width="1" stroke="black" d="M 196 150 84 185"/>
<path stroke-width="1" stroke="black" d="M 196 150 216 117"/>
<path stroke-width="1" stroke="black" d="M 196 150 213 127"/>
<path stroke-width="1" stroke="black" d="M 196 150 171 220"/>
<path stroke-width="1" stroke="black" d="M 196 150 244 113"/>
<path stroke-width="1" stroke="black" d="M 207 216 186 188"/>
<path stroke-width="1" stroke="black" d="M 186 188 182 110"/>
<path stroke-width="1" stroke="black" d="M 196 150 205 181"/>
<path stroke-width="1" stroke="black" d="M 112 165 157 86"/>
<path stroke-width="1" stroke="black" d="M 196 150 108 181"/>
<path stroke-width="1" stroke="black" d="M 196 150 125 115"/>
<path stroke-width="1" stroke="black" d="M 112 165 133 210"/>
<path stroke-width="1" stroke="black" d="M 112 165 151 78"/>
<path stroke-width="1" stroke="black" d="M 112 165 205 181"/>
<path stroke-width="1" stroke="black" d="M 112 165 84 185"/>
<path stroke-width="1" stroke="black" d="M 112 165 216 117"/>
<path stroke-width="1" stroke="black" d="M 112 165 213 127"/>
<path stroke-width="1" stroke="black" d="M 112 165 171 220"/>
<path stroke-width="1" stroke="black" d="M 196 150 135 96"/>
<path stroke-width="1" stroke="black" d="M 112 165 244 113"/>
<path stroke-width="1" stroke="black" d="M 196 150 182 110"/>
<path stroke-width="1" stroke="black" d="M 196 150 191 148"/>
<path stroke-width="1" stroke="black" d="M 196 150 168 194"/>
<path stroke-width="1" stroke="black" d="M 196 150 97 131"/>
<path stroke-width="1" stroke="black" d="M 196 150 112 165"/>
<path stroke-width="1" stroke="black" d="M 196 150 226 156"/>
<path stroke-width="1" stroke="black" d="M 196 150 186 188"/>
<path stroke-width="1" stroke="black" d="M 226 156 196 150"/>
<path stroke-width="1" stroke="black" d="M 97 131 191 148"/>
<path stroke-width="1" stroke="black" d="M 97 131 182 110"/>
<path stroke-width="1" stroke="black" d="M 67 121 97 131"/>
<path stroke-width="1" stroke="black" d="M 182 110 84 185"/>
<path stroke-width="1" stroke="black" d="M 182 110 216 117"/>
<path stroke-width="1" stroke="black" d="M 182 110 213 127"/>
<path stroke-width="1" stroke="black" d="M 182 110 171 220"/>
<path stroke-width="1" stroke="black" d="M 182 110 244 113"/>
<path stroke-width="1" stroke="black" d="M 129 168 191 148"/>
<path stroke-width="1" stroke="black" d="M 191 148 182 110"/>
<path stroke-width="1" stroke="black" d="M 182 110 205 181"/>
<path stroke-width="1" stroke="black" d="M 191 148 129 168"/>
<path stroke-width="1" stroke="black" d="M 191 148 97 131"/>
<path stroke-width="1" stroke="black" d="M 191 148 112 165"/>
<path stroke-width="1" stroke="black" d="M 191 148 196 150"/>
<path stroke-width="1" stroke="black" d="M 191 148 186 188"/>
<path stroke-width="1" stroke="black" d="M 191 148 125 115"/>
<path stroke-width="1" stroke="black" d="M 191 148 135 96"/>
<path stroke-width="1" stroke="black" d="M 191 148 108 181"/>
<path stroke-width="1" stroke="black" d="M 191 148 168 194"/>
<path stroke-width="1" stroke="black" d="M 191 148 131 194"/>
<path stroke-width="1" stroke="black" d="M 182 110 151 78"/>
<path stroke-width="1" stroke="black" d="M 182 110 203 155"/>
<path stroke-width="1" stroke="black" d="M 182 110 200 85"/>
<path stroke-width="1" stroke="black" d="M 182 110 191 148"/>
<path stroke-width="1" stroke="black" d="M 182 110 168 194"/>
<path stroke-width="1" stroke="black" d="M 182 110 97 131"/>
<path stroke-width="1" stroke="black" d="M 182 110 112 165"/>
<path stroke-width="1" stroke="black" d="M 182 110 196 150"/>
<path stroke-width="1" stroke="black" d="M 182 110 186 188"/>
<path stroke-width="1" stroke="black" d="M 182 110 133 210"/>
<path stroke-width="1" stroke="black" d="M 182 110 125 115"/>
<path stroke-width="1" stroke="black" d="M 182 110 108 181"/>
<path stroke-width="1" stroke="black" d="M 182 110 131 194"/>
<path stroke-width="1" stroke="black" d="M 182 110 103 104"/>
<path stroke-width="1" stroke="black" d="M 182 110 186 107"/>
<path stroke-width="1" stroke="black" d="M 182 110 90 146"/>
<path stroke-width="1" stroke="black" d="M 182 110 102 94"/>
<path stroke-width="1" stroke="black" d="M 182 110 157 86"/>
<path stroke-width="1" stroke="black" d="M 182 110 135 96"/>
<path stroke-width="1" stroke="black" d="M 191 148 103 104"/>
<path stroke-width="1" stroke="black" d="M 191 148 186 107"/>
<path stroke-width="1" stroke="black" d="M 191 148 90 146"/>
<path stroke-width="1" stroke="black" d="M 168 194 108 181"/>
<path stroke-width="1" stroke="black" d="M 168 194 131 194"/>
<path stroke-width="1" stroke="black" d="M 168 194 103 104"/>
<path stroke-width="1" stroke="black" d="M 168 194 186 107"/>
<path stroke-width="1" stroke="black" d="M 168 194 90 146"/>
<path stroke-width="1" stroke="black" d="M 168 194 102 94"/>
<path stroke-width="1" stroke="black" d="M 168 194 157 86"/>
<path stroke-width="1" stroke="black" d="M 168 194 135 96"/>
<path stroke-width="1" stroke="black" d="M 168 194 203 155"/>
<path stroke-width="1" stroke="black" d="M 168 194 151 78"/>
<path stroke-width="1" stroke="black" d="M 168 194 205 181"/>
<path stroke-width="1" stroke="black" d="M 168 194 84 185"/>
<path stroke-width="1" stroke="black" d="M 168 194 216 117"/>
<path stroke-width="1" stroke="black" d="M 168 194 213 127"/>
<path stroke-width="1" stroke="black" d="M 168 194 171 220"/>
<path stroke-width="1" stroke="black" d="M 168 194 244 113"/>
<path stroke-width="1" stroke="black" d="M 168 194 133 210"/>
<path stroke-width="1" stroke="black" d="M 168 194 125 115"/>
<path stroke-width="1" stroke="black" d="M 168 194 186 188"/>
<path stroke-width="1" stroke="black" d="M 168 194 196 150"/>
<path stroke-width="1" stroke="black" d="M 191 148 102 94"/>
<path stroke-width="1" stroke="black" d="M 191 148 157 86"/>
<path stroke-width="1" stroke="black" d="M 191 148 203 155"/>
<path stroke-width="1" stroke="black" d="M 191 148 133 210"/>
<path stroke-width="1" stroke="black" d="M 191 148 151 78"/>
<path stroke-width="1" stroke="black" d="M 191 148 205 181"/>
<path stroke-width="1" stroke="black" d="M 191 148 84 185"/>
<path stroke-width="1" stroke="black" d="M 191 148 216 117"/>
<path stroke-width="1" stroke="black" d="M 191 148 213 127"/>
<path stroke-width="1" stroke="black" d="M 191 148 171 220"/>
<path stroke-width="1" stroke="black" d="M 191 148 244 113"/>
<path stroke-width="1" stroke="black" d="M 173 227 168 194"/>
<path stroke-width="1" stroke="black" d="M 168 194 182 110"/>
<path stroke-width="1" stroke="black" d="M 168 194 191 148"/>
<path stroke-width="1" stroke="black" d="M 168 194 173 227"/>
<path stroke-width="1" stroke="black" d="M 168 194 97 131"/>
<path stroke-width="1" stroke="black" d="M 168 194 112 165"/>
<path stroke-width="1" stroke="black" d="M 186 188 191 148"/>
<path stroke-width="1" stroke="black" d="M 244 113 205 181"/>
<path stroke-width="1" stroke="black" d="M 186 188 168 194"/>
<path stroke-width="1" stroke="black" d="M 186 188 112 165"/>
<path stroke-width="1" stroke="black" d="M 131 194 168 194"/>
<path stroke-width="1" stroke="black" d="M 131 194 97 131"/>
<path stroke-width="1" stroke="black" d="M 131 194 112 165"/>
<path stroke-width="1" stroke="black" d="M 131 194 196 150"/>
<path stroke-width="1" stroke="black" d="M 131 194 186 188"/>
<path stroke-width="1" stroke="black" d="M 131 194 125 115"/>
<path stroke-width="1" stroke="black" d="M 131 194 135 96"/>
<path stroke-width="1" stroke="black" d="M 131 194 191 148"/>
<path stroke-width="1" stroke="black" d="M 131 194 108 181"/>
<path stroke-width="1" stroke="black" d="M 131 194 103 104"/>
<path stroke-width="1" stroke="black" d="M 131 194 186 107"/>
<path stroke-width="1" stroke="black" d="M 131 194 90 146"/>
<path stroke-width="1" stroke="black" d="M 131 194 102 94"/>
<path stroke-width="1" stroke="black" d="M 131 194 157 86"/>
<path stroke-width="1" stroke="black" d="M 131 194 203 155"/>
<path stroke-width="1" stroke="black" d="M 131 194 133 210"/>
<path stroke-width="1" stroke="black" d="M 131 194 116 229"/>
<path stroke-width="1" stroke="black" d="M 131 194 151 78"/>
<path stroke-width="1" stroke="black" d="M 131 194 182 110"/>
<path stroke-width="1" stroke="black" d="M 108 181 244 113"/>
<path stroke-width="1" stroke="black" d="M 108 181 135 96"/>
<path stroke-width="1" stroke="black" d="M 108 181 75 204"/>
<path stroke-width="1" stroke="black" d="M 108 181 131 194"/>
<path stroke-width="1" stroke="black" d="M 108 181 103 104"/>
<path stroke-width="1" stroke="black" d="M 108 181 186 107"/>
<path stroke-width="1" stroke="black" d="M 108 181 90 146"/>
<path stroke-width="1" stroke="black" d="M 108 181 102 94"/>
<path stroke-width="1" stroke="black" d="M 116 229 131 194"/>
<path stroke-width="1" stroke="black" d="M 108 181 157 86"/>
<path stroke-width="1" stroke="black" d="M 108 181 133 210"/>
<path stroke-width="1" stroke="black" d="M 108 181 151 78"/>
<path stroke-width="1" stroke="black" d="M 108 181 205 181"/>
<path stroke-width="1" stroke="black" d="M 108 181 84 185"/>
<path stroke-width="1" stroke="black" d="M 108 181 216 117"/>
<path stroke-width="1" stroke="black" d="M 108 181 213 127"/>
<path stroke-width="1" stroke="black" d="M 108 181 171 220"/>
<path stroke-width="1" stroke="black" d="M 108 181 203 155"/>
<path stroke-width="1" stroke="black" d="M 108 181 125 115"/>
<path stroke-width="1" stroke="black" d="M 131 194 205 181"/>
<path stroke-width="1" stroke="black" d="M 131 194 216 117"/>
<path stroke-width="1" stroke="black" d="M 103 104 203 155"/>
<path stroke-width="1" stroke="black" d="M 103 104 133 210"/>
<path stroke-width="1" stroke="black" d="M 103 104 151 78"/>
<path stroke-width="1" stroke="black" d="M 103 104 205 181"/>
<path stroke-width="1" stroke="black" d="M 103 104 84 185"/>
<path stroke-width="1" stroke="black" d="M 103 104 216 117"/>
<path stroke-width="1" stroke="black" d="M 103 104 213 127"/>
<path stroke-width="1" stroke="black" d="M 103 104 157 86"/>
<path stroke-width="1" stroke="black" d="M 103 104 171 220"/>
<path stroke-width="1" stroke="black" d="M 216 77 186 107"/>
<path stroke-width="1" stroke="black" d="M 186 107 182 110"/>
<path stroke-width="1" stroke="black" d="M 186 107 191 148"/>
<path stroke-width="1" stroke="black" d="M 186 107 168 194"/>
<path stroke-width="1" stroke="black" d="M 186 107 97 131"/>
<path stroke-width="1" stroke="black" d="M 186 107 112 165"/>
<path stroke-width="1" stroke="black" d="M 186 107 196 150"/>
<path stroke-width="1" stroke="black" d="M 103 104 244 113"/>
<path stroke-width="1" stroke="black" d="M 131 194 84 185"/>
<path stroke-width="1" stroke="black" d="M 103 104 102 94"/>
<path stroke-width="1" stroke="black" d="M 103 104 186 107"/>
<path stroke-width="1" stroke="black" d="M 131 194 213 127"/>
<path stroke-width="1" stroke="black" d="M 131 194 171 220"/>
<path stroke-width="1" stroke="black" d="M 131 194 244 113"/>
<path stroke-width="1" stroke="black" d="M 68 81 103 104"/>
<path stroke-width="1" stroke="black" d="M 103 104 182 110"/>
<path stroke-width="1" stroke="black" d="M 103 104 191 148"/>
<path stroke-width="1" stroke="black" d="M 103 104 168 194"/>
<path stroke-width="1" stroke="black" d="M 103 104 90 146"/>
<path stroke-width="1" stroke="black" d="M 103 104 97 131"/>
<path stroke-width="1" stroke="black" d="M 103 104 196 150"/>
<path stroke-width="1" stroke="black" d="M 103 104 186 188"/>
<path stroke-width="1" stroke="black" d="M 103 104 125 115"/>
<path stroke-width="1" stroke="black" d="M 103 104 135 96"/>
<path stroke-width="1" stroke="black" d="M 103 104 108 181"/>
<path stroke-width="1" stroke="black" d="M 103 104 131 194"/>
<path stroke-width="1" stroke="black" d="M 103 104 68 81"/>
<path stroke-width="1" stroke="black" d="M 103 104 112 165"/>
<path stroke-width="1" stroke="black" d="M 108 181 186 188"/>
<path stroke-width="1" stroke="black" d="M 108 181 196 150"/>
<path stroke-width="1" stroke="black" d="M 108 181 112 165"/>
<path stroke-width="1" stroke="black" d="M 102 91 125 115"/>
<path stroke-width="1" stroke="black" d="M 125 115 182 110"/>
<path stroke-width="1" stroke="black" d="M 125 115 191 148"/>
<path stroke-width="1" stroke="black" d="M 125 115 168 194"/>
<path stroke-width="1" stroke="black" d="M 125 115 97 131"/>
<path stroke-width="1" stroke="black" d="M 125 115 112 165"/>
<path stroke-width="1" stroke="black" d="M 125 115 196 150"/>
<path stroke-width="1" stroke="black" d="M 186 188 244 113"/>
<path stroke-width="1" stroke="black" d="M 125 115 186 188"/>
<path stroke-width="1" stroke="black" d="M 125 115 135 96"/>
<path stroke-width="1" stroke="black" d="M 125 115 108 181"/>
<path stroke-width="1" stroke="black" d="M 125 115 131 194"/>
<path stroke-width="1" stroke="black" d="M 125 115 103 104"/>
<path stroke-width="1" stroke="black" d="M 125 115 186 107"/>
<path stroke-width="1" stroke="black" d="M 125 115 90 146"/>
<path stroke-width="1" stroke="black" d="M 125 115 102 94"/>
<path stroke-width="1" stroke="black" d="M 125 115 102 91"/>
<path stroke-width="1" stroke="black" d="M 125 115 157 86"/>
<path stroke-width="1" stroke="black" d="M 186 188 171 220"/>
<path stroke-width="1" stroke="black" d="M 186 188 216 117"/>
<path stroke-width="1" stroke="black" d="M 186 188 196 150"/>
<path stroke-width="1" stroke="black" d="M 186 188 207 216"/>
<path stroke-width="1" stroke="black" d="M 186 188 125 115"/>
<path stroke-width="1" stroke="black" d="M 186 188 135 96"/>
<path stroke-width="1" stroke="black" d="M 186 188 108 181"/>
<path stroke-width="1" stroke="black" d="M 186 188 131 194"/>
<path stroke-width="1" stroke="black" d="M 186 188 103 104"/>
<path stroke-width="1" stroke="black" d="M 186 188 213 127"/>
<path stroke-width="1" stroke="black" d="M 186 188 186 107"/>
<path stroke-width="1" stroke="black" d="M 186 188 102 94"/>
<path stroke-width="1" stroke="black" d="M 186 188 157 86"/>
<path stroke-width="1" stroke="black" d="M 186 188 203 155"/>
<path stroke-width="1" stroke="black" d="M 186 188 133 210"/>
<path stroke-width="1" stroke="black" d="M 186 188 151 78"/>
<path stroke-width="1" stroke="black" d="M 186 188 205 181"/>
<path stroke-width="1" stroke="black" d="M 186 188 84 185"/>
<path stroke-width="1" stroke="black" d="M 186 188 90 146"/>
<path stroke-width="1" stroke="black" d="M 125 115 203 155"/>
<path stroke-width="1" stroke="black" d="M 125 115 133 210"/>
<path stroke-width="1" stroke="black" d="M 125 115 151 78"/>
<path stroke-width="1" stroke="black" d="M 135 96 102 94"/>
<path stroke-width="1" stroke="black" d="M 135 96 157 86"/>
<path stroke-width="1" stroke="black" d="M 135 96 203 155"/>
<path stroke-width="1" stroke="black" d="M 135 96 133 210"/>
<path stroke-width="1" stroke="black" d="M 135 96 151 78"/>
<path stroke-width="1" stroke="black" d="M 135 96 205 181"/>
<path stroke-width="1" stroke="black" d="M 135 96 84 185"/>
<path stroke-width="1" stroke="black" d="M 135 96 90 146"/>
<path stroke-width="1" stroke="black" d="M 135 96 216 117"/>
<path stroke-width="1" stroke="black" d="M 135 96 171 220"/>
<path stroke-width="1" stroke="black" d="M 135 96 244 113"/>
<path stroke-width="1" stroke="black" d="M 75 204 108 181"/>
<path stroke-width="1" stroke="black" d="M 108 181 182 110"/>
<path stroke-width="1" stroke="black" d="M 108 181 191 148"/>
<path stroke-width="1" stroke="black" d="M 108 181 168 194"/>
<path stroke-width="1" stroke="black" d="M 108 181 97 131"/>
<path stroke-width="1" stroke="black" d="M 135 96 213 127"/>
<path stroke-width="1" stroke="black" d="M 135 96 186 107"/>
<path stroke-width="1" stroke="black" d="M 135 96 103 104"/>
<path stroke-width="1" stroke="black" d="M 135 96 131 194"/>
<path stroke-width="1" stroke="black" d="M 125 115 205 181"/>
<path stroke-width="1" stroke="black" d="M 125 115 84 185"/>
<path stroke-width="1" stroke="black" d="M 125 115 216 117"/>
<path stroke-width="1" stroke="black" d="M 125 115 213 127"/>
<path stroke-width="1" stroke="black" d="M 125 115 171 220"/>
<path stroke-width="1" stroke="black" d="M 125 115 244 113"/>
<path stroke-width="1" stroke="black" d="M 121 63 135 96"/>
<path stroke-width="1" stroke="black" d="M 135 96 182 110"/>
<path stroke-width="1" stroke="black" d="M 135 96 191 148"/>
<path stroke-width="1" stroke="black" d="M 135 96 168 194"/>
<path stroke-width="1" stroke="black" d="M 135 96 97 131"/>
<path stroke-width="1" stroke="black" d="M 135 96 112 165"/>
<path stroke-width="1" stroke="black" d="M 135 96 196 150"/>
<path stroke-width="1" stroke="black" d="M 135 96 186 188"/>
<path stroke-width="1" stroke="black" d="M 135 96 125 115"/>
<path stroke-width="1" stroke="black" d="M 135 96 121 63"/>
<path stroke-width="1" stroke="black" d="M 135 96 108 181"/>
<path stroke-width="1" stroke="black" d="M 186 188 97 131"/>
<path stroke-width="1" stroke="black" d="M 244 113 420 79"/>
<circle cx="200" cy="85" r="7.0" style="fill:gray;stroke:black;stroke-width:1.0"/>
<circle cx="182" cy="110" r="7.0" style="fill:gray;stroke:black;stroke-width:1.0"/>
<circle cx="129" cy="168" r="7.0" style="fill:gray;stroke:black;stroke-width:1.0"/>
<circle cx="191" cy="148" r="7.0" style="fill:gray;stroke:black;stroke-width:1.0"/>
<circle cx="173" cy="227" r="7.0" style="fill:gray;stroke:black;stroke-width:1.0"/>
<circle cx="168" cy="194" r="7.0" style="fill:gray;stroke:black;stroke-width:1.0"/>
<circle cx="67" cy="121" r="7.0" style="fill:gray;stroke:black;stroke-width:1.0"/>
<circle cx="97" cy="131" r="7.0" style="fill:gray;stroke:black;stroke-width:1.0"/>
<circle cx="81" cy="174" r="7.0" style="fill:gray;stroke:black;stroke-width:1.0"/>
<circle cx="112" cy="165" r="7.0" style="fill:gray;stroke:black;stroke-width:1.0"/>
<circle cx="226" cy="156" r="7.0" style="fill:gray;stroke:black;stroke-width:1.0"/>
<circle cx="196" cy="150" r="7.0" style="fill:gray;stroke:black;stroke-width:1.0"/>
<circle cx="207" cy="216" r="7.0" style="fill:gray;stroke:black;stroke-width:1.0"/>
<circle cx="186" cy="188" r="7.0" style="fill:gray;stroke:black;stroke-width:1.0"/>
<circle cx="102" cy="91" r="7.0" style="fill:gray;stroke:black;stroke-width:1.0"/>
<circle cx="125" cy="115" r="7.0" style="fill:gray;stroke:black;stroke-width:1.0"/>
<circle cx="121" cy="63" r="7.0" style="fill:gray;stroke:black;stroke-width:1.0"/>
<circle cx="135" cy="96" r="7.0" style="fill:gray;stroke:black;stroke-width:1.0"/>
<circle cx="75" cy="204" r="7.0" style="fill:gray;stroke:black;stroke-width:1.0"/>
<circle cx="108" cy="181" r="7.0" style="fill:gray;stroke:black;stroke-width:1.0"/>
<circle cx="116" cy="229" r="7.0" style="fill:gray;stroke:black;stroke-width:1.0"/>
<circle cx="131" cy="194" r="7.0" style="fill:gray;stroke:black;stroke-width:1.0"/>
<circle cx="68" cy="81" r="7.0" style="fill:gray;stroke:black;stroke-width:1.0"/>
<circle cx="103" cy="104" r="7.0" style="fill:gray;stroke:black;stroke-width:1.0"/>
<circle cx="216" cy="77" r="7.0" style="fill:gray;stroke:black;stroke-width:1.0"/>
<circle cx="186" cy="107" r="7.0" style="fill:gray;stroke:black;stroke-width:1.0"/>
<circle cx="44" cy="145" r="7.0" style="fill:gray;stroke:black;stroke-width:1.0"/>
<circle cx="90" cy="146" r="7.0" style="fill:gray;stroke:black;stroke-width:1.0"/>
<circle cx="69" cy="60" r="7.0" style="fill:gray;stroke:black;stroke-width:1.0"/>
<circle cx="102" cy="94" r="7.0" style="fill:gray;stroke:black;stroke-width:1.0"/>
<circle cx="157" cy="41" r="7.0" style="fill:gray;stroke:black;stroke-width:1.0"/>
<circle cx="157" cy="86" r="7.0" style="fill:gray;stroke:black;stroke-width:1.0"/>
<circle cx="250" cy="165" r="7.0" style="fill:gray;stroke:black;stroke-width:1.0"/>
<circle cx="203" cy="155" r="7.0" style="fill:gray;stroke:black;stroke-width:1.0"/>
<circle cx="116" cy="262" r="7.0" style="fill:gray;stroke:black;stroke-width:1.0"/>
<circle cx="133" cy="210" r="7.0" style="fill:gray;stroke:black;stroke-width:1.0"/>
<circle cx="142" cy="20" r="7.0" style="fill:gray;stroke:black;stroke-width:1.0"/>
<circle cx="151" cy="78" r="7.0" style="fill:gray;stroke:black;stroke-width:1.0"/>
<circle cx="257" cy="206" r="7.0" style="fill:gray;stroke:black;stroke-width:1.0"/>
<circle cx="205" cy="181" r="7.0" style="fill:gray;stroke:black;stroke-width:1.0"/>
<circle cx="20" cy="216" r="7.0" style="fill:gray;stroke:black;stroke-width:1.0"/>
<circle cx="84" cy="185" r="7.0" style="fill:gray;stroke:black;stroke-width:1.0"/>
<circle cx="287" cy="82" r="7.0" style="fill:gray;stroke:black;stroke-width:1.0"/>
<circle cx="216" cy="117" r="7.0" style="fill:gray;stroke:black;stroke-width:1.0"/>
<circle cx="300" cy="113" r="7.0" style="fill:gray;stroke:black;stroke-width:1.0"/>
<circle cx="213" cy="127" r="7.0" style="fill:gray;stroke:black;stroke-width:1.0"/>
<circle cx="201" cy="320" r="7.0" style="fill:gray;stroke:black;stroke-width:1.0"/>
<circle cx="171" cy="220" r="7.0" style="fill:gray;stroke:black;stroke-width:1.0"/>
<circle cx="420" cy="79" r="7.0" style="fill:gray;stroke:black;stroke-width:1.0"/>
<circle cx="244" cy="113" r="7.0" style="fill:gray;stroke:black;stroke-width:1.0"/>
</svg>
