<svg width="440" height="340" xmlns="http://www.w3.org/2000/svg">
<path stroke-width="1" stroke="black" d="M 248 203 250 184"/>
<path stroke-width="1" stroke="black" d="M 316 204 242 110"/>
<path stroke-width="1" stroke="black" d="M 316 204 292 182"/>
<path stroke-width="1" stroke="black" d="M 316 204 241 207"/>
<path stroke-width="1" stroke="black" d="M 316 204 308 199"/>
<path stroke-width="1" stroke="black" d="M 316 204 193 186"/>
<path stroke-width="1" stroke="black" d="M 316 204 206 197"/>
<path stroke-width="1" stroke="black" d="M 316 204 218 117"/>
<path stroke-width="1" stroke="black" d="M 316 204 173 163"/>
<path stroke-width="1" stroke="black" d="M 316 204 262 106"/>
<path stroke-width="1" stroke="black" d="M 316 204 241 150"/>
<path stroke-width="1" stroke="black" d="M 316 204 351 241"/>
<path stroke-width="1" stroke="black" d="M 316 204 342 122"/>
<path stroke-width="1" stroke="black" d="M 316 204 307 111"/>
<path stroke-width="1" stroke="black" d="M 316 204 352 187"/>
<path stroke-width="1" stroke="black" d="M 316 204 164 129"/>
<path stroke-width="1" stroke="black" d="M 316 204 182 133"/>
<path stroke-width="1" stroke="black" d="M 316 204 344 140"/>
<path stroke-width="1" stroke="black" d="M 316 204 199 98"/>
<path stroke-width="1" stroke="black" d="M 316 204 355 165"/>
<path stroke-width="1" stroke="black" d="M 316 204 271 131"/>
<path stroke-width="1" stroke="black" d="M 241 150 218 117"/>
<path stroke-width="1" stroke="black" d="M 241 150 262 106"/>
<path stroke-width="1" stroke="black" d="M 241 150 344 140"/>
<path stroke-width="1" stroke="black" d="M 241 150 205 135"/>
<path stroke-width="1" stroke="black" d="M 241 150 316 204"/>
<path stroke-width="1" stroke="black" d="M 241 150 342 122"/>
<path stroke-width="1" stroke="black" d="M 241 150 307 111"/>
<path stroke-width="1" stroke="black" d="M 316 204 253 156"/>
<path stroke-width="1" stroke="black" d="M 241 150 352 187"/>
<path stroke-width="1" stroke="black" d="M 241 150 182 133"/>
<path stroke-width="1" stroke="black" d="M 241 150 199 98"/>
<path stroke-width="1" stroke="black" d="M 241 150 216 224"/>
<path stroke-width="1" stroke="black" d="M 241 150 201 161"/>
<path stroke-width="1" stroke="black" d="M 351 241 316 204"/>
<path stroke-width="1" stroke="black" d="M 316 204 250 184"/>
<path stroke-width="1" stroke="black" d="M 316 204 304 115"/>
<path stroke-width="1" stroke="black" d="M 241 150 164 129"/>
<path stroke-width="1" stroke="black" d="M 241 150 206 197"/>
<path stroke-width="1" stroke="black" d="M 316 204 216 224"/>
<path stroke-width="1" stroke="black" d="M 395 90 342 122"/>
<path stroke-width="1" stroke="black" d="M 342 122 164 129"/>
<path stroke-width="1" stroke="black" d="M 342 122 182 133"/>
<path stroke-width="1" stroke="black" d="M 342 122 199 98"/>
<path stroke-width="1" stroke="black" d="M 342 122 216 224"/>
<path stroke-width="1" stroke="black" d="M 342 122 201 161"/>
<path stroke-width="1" stroke="black" d="M 338 67 307 111"/>
<path stroke-width="1" stroke="black" d="M 307 111 250 184"/>
<path stroke-width="1" stroke="black" d="M 342 122 352 187"/>
<path stroke-width="1" stroke="black" d="M 307 111 304 115"/>
<path stroke-width="1" stroke="black" d="M 307 111 253 156"/>
<path stroke-width="1" stroke="black" d="M 307 111 355 165"/>
<path stroke-width="1" stroke="black" d="M 307 111 173 163"/>
<path stroke-width="1" stroke="black" d="M 307 111 242 110"/>
<path stroke-width="1" stroke="black" d="M 307 111 292 182"/>
<path stroke-width="1" stroke="black" d="M 307 111 241 207"/>
<path stroke-width="1" stroke="black" d="M 307 111 308 199"/>
<path stroke-width="1" stroke="black" d="M 307 111 271 131"/>
<path stroke-width="1" stroke="black" d="M 316 204 201 161"/>
<path stroke-width="1" stroke="black" d="M 342 122 307 111"/>
<path stroke-width="1" stroke="black" d="M 342 122 316 204"/>
<path stroke-width="1" stroke="black" d="M 342 122 250 184"/>
<path stroke-width="1" stroke="black" d="M 342 122 304 115"/>
<path stroke-width="1" stroke="black" d="M 342 122 271 131"/>
<path stroke-width="1" stroke="black" d="M 342 122 253 156"/>
<path stroke-width="1" stroke="black" d="M 342 122 355 165"/>
<path stroke-width="1" stroke="black" d="M 342 122 173 163"/>
<path stroke-width="1" stroke="black" d="M 342 122 242 110"/>
<path stroke-width="1" stroke="black" d="M 342 122 395 90"/>
<path stroke-width="1" stroke="black" d="M 342 122 292 182"/>
<path stroke-width="1" stroke="black" d="M 342 122 308 199"/>
<path stroke-width="1" stroke="black" d="M 342 122 193 186"/>
<path stroke-width="1" stroke="black" d="M 342 122 206 197"/>
<path stroke-width="1" stroke="black" d="M 342 122 218 117"/>
<path stroke-width="1" stroke="black" d="M 342 122 262 106"/>
<path stroke-width="1" stroke="black" d="M 342 122 344 140"/>
<path stroke-width="1" stroke="black" d="M 342 122 241 150"/>
<path stroke-width="1" stroke="black" d="M 342 122 241 207"/>
<path stroke-width="1" stroke="black" d="M 307 111 193 186"/>
<path stroke-width="1" stroke="black" d="M 241 150 193 186"/>
<path stroke-width="1" stroke="black" d="M 241 150 241 207"/>
<path stroke-width="1" stroke="black" d="M 262 106 355 165"/>
<path stroke-width="1" stroke="black" d="M 262 106 173 163"/>
<path stroke-width="1" stroke="black" d="M 262 106 242 110"/>
<path stroke-width="1" stroke="black" d="M 262 106 292 182"/>
<path stroke-width="1" stroke="black" d="M 262 106 241 207"/>
<path stroke-width="1" stroke="black" d="M 262 106 308 199"/>
<path stroke-width="1" stroke="black" d="M 262 106 193 186"/>
<path stroke-width="1" stroke="black" d="M 262 106 253 156"/>
<path stroke-width="1" stroke="black" d="M 262 106 206 197"/>
<path stroke-width="1" stroke="black" d="M 262 106 268 68"/>
<path stroke-width="1" stroke="black" d="M 262 106 344 140"/>
<path stroke-width="1" stroke="black" d="M 262 106 241 150"/>
<path stroke-width="1" stroke="black" d="M 262 106 316 204"/>
<path stroke-width="1" stroke="black" d="M 262 106 342 122"/>
<path stroke-width="1" stroke="black" d="M 262 106 307 111"/>
<path stroke-width="1" stroke="black" d="M 262 106 352 187"/>
<path stroke-width="1" stroke="black" d="M 262 106 218 117"/>
<path stroke-width="1" stroke="black" d="M 262 106 164 129"/>
<path stroke-width="1" stroke="black" d="M 262 106 271 131"/>
<path stroke-width="1" stroke="black" d="M 262 106 250 184"/>
<path stroke-width="1" stroke="black" d="M 218 117 193 186"/>
<path stroke-width="1" stroke="black" d="M 218 117 206 197"/>
<path stroke-width="1" stroke="black" d="M 218 117 201 84"/>
<path stroke-width="1" stroke="black" d="M 218 117 262 106"/>
<path stroke-width="1" stroke="black" d="M 218 117 344 140"/>
<path stroke-width="1" stroke="black" d="M 218 117 241 150"/>
<path stroke-width="1" stroke="black" d="M 218 117 316 204"/>
<path stroke-width="1" stroke="black" d="M 262 106 304 115"/>
<path stroke-width="1" stroke="black" d="M 218 117 342 122"/>
<path stroke-width="1" stroke="black" d="M 218 117 352 187"/>
<path stroke-width="1" stroke="black" d="M 218 117 164 129"/>
<path stroke-width="1" stroke="black" d="M 218 117 182 133"/>
<path stroke-width="1" stroke="black" d="M 218 117 199 98"/>
<path stroke-width="1" stroke="black" d="M 218 117 216 224"/>
<path stroke-width="1" stroke="black" d="M 218 117 201 161"/>
<path stroke-width="1" stroke="black" d="M 268 68 262 106"/>
<path stroke-width="1" stroke="black" d="M 218 117 307 111"/>
<path stroke-width="1" stroke="black" d="M 241 150 308 199"/>
<path stroke-width="1" stroke="black" d="M 262 106 182 133"/>
<path stroke-width="1" stroke="black" d="M 262 106 216 224"/>
<path stroke-width="1" stroke="black" d="M 344 140 307 111"/>
<path stroke-width="1" stroke="black" d="M 344 140 352 187"/>
<path stroke-width="1" stroke="black" d="M 344 140 164 129"/>
<path stroke-width="1" stroke="black" d="M 344 140 182 133"/>
<path stroke-width="1" stroke="black" d="M 344 140 199 98"/>
<path stroke-width="1" stroke="black" d="M 344 140 216 224"/>
<path stroke-width="1" stroke="black" d="M 344 140 201 161"/>
<path stroke-width="1" stroke="black" d="M 344 140 342 122"/>
<path stroke-width="1" stroke="black" d="M 205 135 241 150"/>
<path stroke-width="1" stroke="black" d="M 241 150 304 115"/>
<path stroke-width="1" stroke="black" d="M 241 150 271 131"/>
<path stroke-width="1" stroke="black" d="M 241 150 253 156"/>
<path stroke-width="1" stroke="black" d="M 241 150 355 165"/>
<path stroke-width="1" stroke="black" d="M 241 150 173 163"/>
<path stroke-width="1" stroke="black" d="M 241 150 242 110"/>
<path stroke-width="1" stroke="black" d="M 241 150 292 182"/>
<path stroke-width="1" stroke="black" d="M 241 150 250 184"/>
<path stroke-width="1" stroke="black" d="M 262 106 199 98"/>
<path stroke-width="1" stroke="black" d="M 344 140 316 204"/>
<path stroke-width="1" stroke="black" d="M 344 140 399 121"/>
<path stroke-width="1" stroke="black" d="M 262 106 201 161"/>
<path stroke-width="1" stroke="black" d="M 399 121 344 140"/>
<path stroke-width="1" stroke="black" d="M 344 140 250 184"/>
<path stroke-width="1" stroke="black" d="M 344 140 304 115"/>
<path stroke-width="1" stroke="black" d="M 344 140 271 131"/>
<path stroke-width="1" stroke="black" d="M 344 140 253 156"/>
<path stroke-width="1" stroke="black" d="M 344 140 355 165"/>
<path stroke-width="1" stroke="black" d="M 344 140 241 150"/>
<path stroke-width="1" stroke="black" d="M 344 140 173 163"/>
<path stroke-width="1" stroke="black" d="M 344 140 292 182"/>
<path stroke-width="1" stroke="black" d="M 344 140 241 207"/>
<path stroke-width="1" stroke="black" d="M 344 140 308 199"/>
<path stroke-width="1" stroke="black" d="M 344 140 193 186"/>
<path stroke-width="1" stroke="black" d="M 344 140 206 197"/>
<path stroke-width="1" stroke="black" d="M 344 140 218 117"/>
<path stroke-width="1" stroke="black" d="M 344 140 262 106"/>
<path stroke-width="1" stroke="black" d="M 344 140 242 110"/>
<path stroke-width="1" stroke="black" d="M 307 111 206 197"/>
<path stroke-width="1" stroke="black" d="M 307 111 218 117"/>
<path stroke-width="1" stroke="black" d="M 307 111 262 106"/>
<path stroke-width="1" stroke="black" d="M 199 98 262 106"/>
<path stroke-width="1" stroke="black" d="M 199 98 344 140"/>
<path stroke-width="1" stroke="black" d="M 199 98 241 150"/>
<path stroke-width="1" stroke="black" d="M 199 98 316 204"/>
<path stroke-width="1" stroke="black" d="M 199 98 342 122"/>
<path stroke-width="1" stroke="black" d="M 199 98 307 111"/>
<path stroke-width="1" stroke="black" d="M 199 98 352 187"/>
<path stroke-width="1" stroke="black" d="M 199 98 218 117"/>
<path stroke-width="1" stroke="black" d="M 199 98 164 129"/>
<path stroke-width="1" stroke="black" d="M 199 98 146 20"/>
<path stroke-width="1" stroke="black" d="M 199 98 216 224"/>
<path stroke-width="1" stroke="black" d="M 169 320 216 224"/>
<path stroke-width="1" stroke="black" d="M 216 224 250 184"/>
<path stroke-width="1" stroke="black" d="M 216 224 304 115"/>
<path stroke-width="1" stroke="black" d="M 216 224 271 131"/>
<path stroke-width="1" stroke="black" d="M 216 224 253 156"/>
<path stroke-width="1" stroke="black" d="M 199 98 182 133"/>
<path stroke-width="1" stroke="black" d="M 216 224 355 165"/>
<path stroke-width="1" stroke="black" d="M 199 98 206 197"/>
<path stroke-width="1" stroke="black" d="M 199 98 308 199"/>
<path stroke-width="1" stroke="black" d="M 182 133 307 111"/>
<path stroke-width="1" stroke="black" d="M 182 133 352 187"/>
<path stroke-width="1" stroke="black" d="M 182 133 164 129"/>
<path stroke-width="1" stroke="black" d="M 182 133 112 91"/>
<path stroke-width="1" stroke="black" d="M 182 133 199 98"/>
<path stroke-width="1" stroke="black" d="M 182 133 216 224"/>
<path stroke-width="1" stroke="black" d="M 146 20 199 98"/>
<path stroke-width="1" stroke="black" d="M 199 98 193 186"/>
<path stroke-width="1" stroke="black" d="M 199 98 250 184"/>
<path stroke-width="1" stroke="black" d="M 199 98 271 131"/>
<path stroke-width="1" stroke="black" d="M 199 98 253 156"/>
<path stroke-width="1" stroke="black" d="M 199 98 355 165"/>
<path stroke-width="1" stroke="black" d="M 199 98 173 163"/>
<path stroke-width="1" stroke="black" d="M 199 98 242 110"/>
<path stroke-width="1" stroke="black" d="M 199 98 292 182"/>
<path stroke-width="1" stroke="black" d="M 199 98 241 207"/>
<path stroke-width="1" stroke="black" d="M 199 98 304 115"/>
<path stroke-width="1" stroke="black" d="M 182 133 342 122"/>
<path stroke-width="1" stroke="black" d="M 216 224 173 163"/>
<path stroke-width="1" stroke="black" d="M 216 224 292 182"/>
<path stroke-width="1" stroke="black" d="M 201 161 253 156"/>
<path stroke-width="1" stroke="black" d="M 201 161 355 165"/>
<path stroke-width="1" stroke="black" d="M 201 161 173 163"/>
<path stroke-width="1" stroke="black" d="M 201 161 242 110"/>
<path stroke-width="1" stroke="black" d="M 201 161 292 182"/>
<path stroke-width="1" stroke="black" d="M 201 161 241 207"/>
<path stroke-width="1" stroke="black" d="M 201 161 308 199"/>
<path stroke-width="1" stroke="black" d="M 201 161 271 131"/>
<path stroke-width="1" stroke="black" d="M 201 161 193 186"/>
<path stroke-width="1" stroke="black" d="M 201 161 218 117"/>
<path stroke-width="1" stroke="black" d="M 201 161 262 106"/>
<path stroke-width="1" stroke="black" d="M 201 161 344 140"/>
<path stroke-width="1" stroke="black" d="M 201 161 241 150"/>
<path stroke-width="1" stroke="black" d="M 201 161 316 204"/>
<path stroke-width="1" stroke="black" d="M 201 161 342 122"/>
<path stroke-width="1" stroke="black" d="M 201 161 307 111"/>
<path stroke-width="1" stroke="black" d="M 201 161 206 197"/>
<path stroke-width="1" stroke="black" d="M 216 224 242 110"/>
<path stroke-width="1" stroke="black" d="M 201 161 304 115"/>
<path stroke-width="1" stroke="black" d="M 20 162 201 161"/>
<path stroke-width="1" stroke="black" d="M 216 224 241 207"/>
<path stroke-width="1" stroke="black" d="M 216 224 308 199"/>
<path stroke-width="1" stroke="black" d="M 216 224 193 186"/>
<path stroke-width="1" stroke="black" d="M 216 224 206 197"/>
<path stroke-width="1" stroke="black" d="M 216 224 218 117"/>
<path stroke-width="1" stroke="black" d="M 216 224 262 106"/>
<path stroke-width="1" stroke="black" d="M 216 224 344 140"/>
<path stroke-width="1" stroke="black" d="M 201 161 250 184"/>
<path stroke-width="1" stroke="black" d="M 216 224 241 150"/>
<path stroke-width="1" stroke="black" d="M 216 224 342 122"/>
<path stroke-width="1" stroke="black" d="M 216 224 307 111"/>
<path stroke-width="1" stroke="black" d="M 216 224 352 187"/>
<path stroke-width="1" stroke="black" d="M 216 224 164 129"/>
<path stroke-width="1" stroke="black" d="M 216 224 182 133"/>
<path stroke-width="1" stroke="black" d="M 216 224 199 98"/>
<path stroke-width="1" stroke="black" d="M 216 224 169 320"/>
<path stroke-width="1" stroke="black" d="M 216 224 316 204"/>
<path stroke-width="1" stroke="black" d="M 182 133 316 204"/>
<path stroke-width="1" stroke="black" d="M 182 133 241 150"/>
<path stroke-width="1" stroke="black" d="M 182 133 344 140"/>
<path stroke-width="1" stroke="black" d="M 352 187 241 207"/>
<path stroke-width="1" stroke="black" d="M 352 187 308 199"/>
<path stroke-width="1" stroke="black" d="M 352 187 193 186"/>
<path stroke-width="1" stroke="black" d="M 352 187 206 197"/>
<path stroke-width="1" stroke="black" d="M 352 187 218 117"/>
<path stroke-width="1" stroke="black" d="M 352 187 262 106"/>
<path stroke-width="1" stroke="black" d="M 352 187 344 140"/>
<path stroke-width="1" stroke="black" d="M 352 187 292 182"/>
<path stroke-width="1" stroke="black" d="M 352 187 241 150"/>
<path stroke-width="1" stroke="black" d="M 352 187 342 122"/>
<path stroke-width="1" stroke="black" d="M 352 187 307 111"/>
<path stroke-width="1" stroke="black" d="M 352 187 420 220"/>
<path stroke-width="1" stroke="black" d="M 352 187 164 129"/>
<path stroke-width="1" stroke="black" d="M 352 187 182 133"/>
<path stroke-width="1" stroke="black" d="M 352 187 199 98"/>
<path stroke-width="1" stroke="black" d="M 352 187 216 224"/>
<path stroke-width="1" stroke="black" d="M 352 187 316 204"/>
<path stroke-width="1" stroke="black" d="M 352 187 201 161"/>
<path stroke-width="1" stroke="black" d="M 352 187 242 110"/>
<path stroke-width="1" stroke="black" d="M 352 187 355 165"/>
<path stroke-width="1" stroke="black" d="M 307 111 344 140"/>
<path stroke-width="1" stroke="black" d="M 307 111 241 150"/>
<path stroke-width="1" stroke="black" d="M 307 111 316 204"/>
<path stroke-width="1" stroke="black" d="M 307 111 342 122"/>
<path stroke-width="1" stroke="black" d="M 307 111 338 67"/>
<path stroke-width="1" stroke="black" d="M 307 111 352 187"/>
<path stroke-width="1" stroke="black" d="M 307 111 164 129"/>
<path stroke-width="1" stroke="black" d="M 352 187 173 163"/>
<path stroke-width="1" stroke="black" d="M 307 111 182 133"/>
<path stroke-width="1" stroke="black" d="M 307 111 216 224"/>
<path stroke-width="1" stroke="black" d="M 307 111 201 161"/>
<path stroke-width="1" stroke="black" d="M 420 220 352 187"/>
<path stroke-width="1" stroke="black" d="M 352 187 250 184"/>
<path stroke-width="1" stroke="black" d="M 352 187 304 115"/>
<path stroke-width="1" stroke="black" d="M 352 187 271 131"/>
<path stroke-width="1" stroke="black" d="M 352 187 253 156"/>
<path stroke-width="1" stroke="black" d="M 307 111 199 98"/>
<path stroke-width="1" stroke="black" d="M 84 89 164 129"/>
<path stroke-width="1" stroke="black" d="M 164 129 250 184"/>
<path stroke-width="1" stroke="black" d="M 164 129 304 115"/>
<path stroke-width="1" stroke="black" d="M 164 129 216 224"/>
<path stroke-width="1" stroke="black" d="M 112 91 182 133"/>
<path stroke-width="1" stroke="black" d="M 182 133 250 184"/>
<path stroke-width="1" stroke="black" d="M 182 133 304 115"/>
<path stroke-width="1" stroke="black" d="M 182 133 271 131"/>
<path stroke-width="1" stroke="black" d="M 182 133 253 156"/>
<path stroke-width="1" stroke="black" d="M 182 133 355 165"/>
<path stroke-width="1" stroke="black" d="M 164 129 199 98"/>
<path stroke-width="1" stroke="black" d="M 182 133 173 163"/>
<path stroke-width="1" stroke="black" d="M 182 133 292 182"/>
<path stroke-width="1" stroke="black" d="M 182 133 241 207"/>
<path stroke-width="1" stroke="black" d="M 182 133 308 199"/>
<path stroke-width="1" stroke="black" d="M 182 133 193 186"/>
<path stroke-width="1" stroke="black" d="M 182 133 206 197"/>
<path stroke-width="1" stroke="black" d="M 182 133 218 117"/>
<path stroke-width="1" stroke="black" d="M 182 133 262 106"/>
<path stroke-width="1" stroke="black" d="M 182 133 242 110"/>
<path stroke-width="1" stroke="black" d="M 164 129 182 133"/>
<path stroke-width="1" stroke="black" d="M 164 129 84 89"/>
<path stroke-width="1" stroke="black" d="M 164 129 352 187"/>
<path stroke-width="1" stroke="black" d="M 164 129 271 131"/>
<path stroke-width="1" stroke="black" d="M 164 129 253 156"/>
<path stroke-width="1" stroke="black" d="M 164 129 355 165"/>
<path stroke-width="1" stroke="black" d="M 164 129 173 163"/>
<path stroke-width="1" stroke="black" d="M 164 129 242 110"/>
<path stroke-width="1" stroke="black" d="M 164 129 292 182"/>
<path stroke-width="1" stroke="black" d="M 164 129 241 207"/>
<path stroke-width="1" stroke="black" d="M 164 129 308 199"/>
<path stroke-width="1" stroke="black" d="M 164 129 193 186"/>
<path stroke-width="1" stroke="black" d="M 164 129 206 197"/>
<path stroke-width="1" stroke="black" d="M 164 129 218 117"/>
<path stroke-width="1" stroke="black" d="M 164 129 262 106"/>
<path stroke-width="1" stroke="black" d="M 164 129 344 140"/>
<path stroke-width="1" stroke="black" d="M 164 129 241 150"/>
<path stroke-width="1" stroke="black" d="M 164 129 316 204"/>
<path stroke-width="1" stroke="black" d="M 164 129 342 122"/>
<path stroke-width="1" stroke="black" d="M 164 129 307 111"/>
<path stroke-width="1" stroke="black" d="M 218 117 308 199"/>
<path stroke-width="1" stroke="black" d="M 218 117 241 207"/>
<path stroke-width="1" stroke="black" d="M 218 117 292 182"/>
<path stroke-width="1" stroke="black" d="M 218 117 242 110"/>
<path stroke-width="1" stroke="black" d="M 253 156 216 224"/>
<path stroke-width="1" stroke="black" d="M 253 156 201 161"/>
<path stroke-width="1" stroke="black" d="M 403 174 355 165"/>
<path stroke-width="1" stroke="black" d="M 355 165 250 184"/>
<path stroke-width="1" stroke="black" d="M 355 165 304 115"/>
<path stroke-width="1" stroke="black" d="M 355 165 271 131"/>
<path stroke-width="1" stroke="black" d="M 355 165 253 156"/>
<path stroke-width="1" stroke="black" d="M 253 156 199 98"/>
<path stroke-width="1" stroke="black" d="M 355 165 403 174"/>
<path stroke-width="1" stroke="black" d="M 355 165 242 110"/>
<path stroke-width="1" stroke="black" d="M 355 165 292 182"/>
<path stroke-width="1" stroke="black" d="M 355 165 241 207"/>
<path stroke-width="1" stroke="black" d="M 355 165 308 199"/>
<path stroke-width="1" stroke="black" d="M 355 165 193 186"/>
<path stroke-width="1" stroke="black" d="M 355 165 206 197"/>
<path stroke-width="1" stroke="black" d="M 355 165 218 117"/>
<path stroke-width="1" stroke="black" d="M 355 165 173 163"/>
<path stroke-width="1" stroke="black" d="M 355 165 262 106"/>
<path stroke-width="1" stroke="black" d="M 253 156 182 133"/>
<path stroke-width="1" stroke="black" d="M 253 156 352 187"/>
<path stroke-width="1" stroke="black" d="M 253 156 256 174"/>
<path stroke-width="1" stroke="black" d="M 253 156 355 165"/>
<path stroke-width="1" stroke="black" d="M 253 156 173 163"/>
<path stroke-width="1" stroke="black" d="M 253 156 242 110"/>
<path stroke-width="1" stroke="black" d="M 253 156 292 182"/>
<path stroke-width="1" stroke="black" d="M 253 156 241 207"/>
<path stroke-width="1" stroke="black" d="M 253 156 308 199"/>
<path stroke-width="1" stroke="black" d="M 253 156 164 129"/>
<path stroke-width="1" stroke="black" d="M 253 156 193 186"/>
<path stroke-width="1" stroke="black" d="M 253 156 218 117"/>
<path stroke-width="1" stroke="black" d="M 253 156 262 106"/>
<path stroke-width="1" stroke="black" d="M 253 156 344 140"/>
<path stroke-width="1" stroke="black" d="M 253 156 241 150"/>
<path stroke-width="1" stroke="black" d="M 253 156 316 204"/>
<path stroke-width="1" stroke="black" d="M 253 156 342 122"/>
<path stroke-width="1" stroke="black" d="M 253 156 307 111"/>
<path stroke-width="1" stroke="black" d="M 253 156 206 197"/>
<path stroke-width="1" stroke="black" d="M 253 156 271 131"/>
<path stroke-width="1" stroke="black" d="M 355 165 344 140"/>
<path stroke-width="1" stroke="black" d="M 355 165 316 204"/>
<path stroke-width="1" stroke="black" d="M 173 163 206 197"/>
<path stroke-width="1" stroke="black" d="M 173 163 218 117"/>
<path stroke-width="1" stroke="black" d="M 173 163 262 106"/>
<path stroke-width="1" stroke="black" d="M 173 163 344 140"/>
<path stroke-width="1" stroke="black" d="M 173 163 241 150"/>
<path stroke-width="1" stroke="black" d="M 173 163 316 204"/>
<path stroke-width="1" stroke="black" d="M 173 163 342 122"/>
<path stroke-width="1" stroke="black" d="M 173 163 193 186"/>
<path stroke-width="1" stroke="black" d="M 173 163 307 111"/>
<path stroke-width="1" stroke="black" d="M 173 163 164 129"/>
<path stroke-width="1" stroke="black" d="M 173 163 182 133"/>
<path stroke-width="1" stroke="black" d="M 173 163 199 98"/>
<path stroke-width="1" stroke="black" d="M 173 163 216 224"/>
<path stroke-width="1" stroke="black" d="M 173 163 201 161"/>
<path stroke-width="1" stroke="black" d="M 235 82 242 110"/>
<path stroke-width="1" stroke="black" d="M 242 110 250 184"/>
<path stroke-width="1" stroke="black" d="M 173 163 352 187"/>
<path stroke-width="1" stroke="black" d="M 355 165 241 150"/>
<path stroke-width="1" stroke="black" d="M 173 163 308 199"/>
<path stroke-width="1" stroke="black" d="M 173 163 292 182"/>
<path stroke-width="1" stroke="black" d="M 355 165 342 122"/>
<path stroke-width="1" stroke="black" d="M 355 165 307 111"/>
<path stroke-width="1" stroke="black" d="M 355 165 352 187"/>
<path stroke-width="1" stroke="black" d="M 355 165 164 129"/>
<path stroke-width="1" stroke="black" d="M 355 165 182 133"/>
<path stroke-width="1" stroke="black" d="M 355 165 199 98"/>
<path stroke-width="1" stroke="black" d="M 355 165 216 224"/>
<path stroke-width="1" stroke="black" d="M 173 163 241 207"/>
<path stroke-width="1" stroke="black" d="M 355 165 201 161"/>
<path stroke-width="1" stroke="black" d="M 173 163 250 184"/>
<path stroke-width="1" stroke="black" d="M 173 163 304 115"/>
<path stroke-width="1" stroke="black" d="M 173 163 271 131"/>
<path stroke-width="1" stroke="black" d="M 173 163 253 156"/>
<path stroke-width="1" stroke="black" d="M 173 163 355 165"/>
<path stroke-width="1" stroke="black" d="M 173 163 125 170"/>
<path stroke-width="1" stroke="black" d="M 173 163 242 110"/>
<path stroke-width="1" stroke="black" d="M 125 170 173 163"/>
<path stroke-width="1" stroke="black" d="M 253 156 304 115"/>
<path stroke-width="1" stroke="black" d="M 253 156 250 184"/>
<path stroke-width="1" stroke="black" d="M 256 174 253 156"/>
<path stroke-width="1" stroke="black" d="M 250 184 164 129"/>
<path stroke-width="1" stroke="black" d="M 250 184 182 133"/>
<path stroke-width="1" stroke="black" d="M 250 184 199 98"/>
<path stroke-width="1" stroke="black" d="M 250 184 216 224"/>
<path stroke-width="1" stroke="black" d="M 250 184 201 161"/>
<path stroke-width="1" stroke="black" d="M 323 93 304 115"/>
<path stroke-width="1" stroke="black" d="M 304 115 250 184"/>
<path stroke-width="1" stroke="black" d="M 250 184 352 187"/>
<path stroke-width="1" stroke="black" d="M 304 115 323 93"/>
<path stroke-width="1" stroke="black" d="M 304 115 253 156"/>
<path stroke-width="1" stroke="black" d="M 304 115 355 165"/>
<path stroke-width="1" stroke="black" d="M 304 115 173 163"/>
<path stroke-width="1" stroke="black" d="M 304 115 242 110"/>
<path stroke-width="1" stroke="black" d="M 304 115 292 182"/>
<path stroke-width="1" stroke="black" d="M 304 115 241 207"/>
<path stroke-width="1" stroke="black" d="M 304 115 308 199"/>
<path stroke-width="1" stroke="black" d="M 304 115 271 131"/>
<path stroke-width="1" stroke="black" d="M 304 115 193 186"/>
<path stroke-width="1" stroke="black" d="M 250 184 307 111"/>
<path stroke-width="1" stroke="black" d="M 250 184 316 204"/>
<path stroke-width="1" stroke="black" d="M 250 184 248 203"/>
<path stroke-width="1" stroke="black" d="M 250 184 304 115"/>
<path stroke-width="1" stroke="black" d="M 250 184 271 131"/>
<path stroke-width="1" stroke="black" d="M 250 184 253 156"/>
<path stroke-width="1" stroke="black" d="M 250 184 355 165"/>
<path stroke-width="1" stroke="black" d="M 250 184 173 163"/>
<path stroke-width="1" stroke="black" d="M 250 184 242 110"/>
<path stroke-width="1" stroke="black" d="M 250 184 342 122"/>
<path stroke-width="1" stroke="black" d="M 250 184 292 182"/>
<path stroke-width="1" stroke="black" d="M 250 184 308 199"/>
<path stroke-width="1" stroke="black" d="M 250 184 193 186"/>
<path stroke-width="1" stroke="black" d="M 250 184 206 197"/>
<path stroke-width="1" stroke="black" d="M 250 184 218 117"/>
<path stroke-width="1" stroke="black" d="M 250 184 262 106"/>
<path stroke-width="1" stroke="black" d="M 250 184 344 140"/>
<path stroke-width="1" stroke="black" d="M 250 184 241 150"/>
<path stroke-width="1" stroke="black" d="M 250 184 241 207"/>
<path stroke-width="1" stroke="black" d="M 304 115 206 197"/>
<path stroke-width="1" stroke="black" d="M 304 115 218 117"/>
<path stroke-width="1" stroke="black" d="M 304 115 262 106"/>
<path stroke-width="1" stroke="black" d="M 271 131 308 199"/>
<path stroke-width="1" stroke="black" d="M 271 131 193 186"/>
<path stroke-width="1" stroke="black" d="M 271 131 206 197"/>
<path stroke-width="1" stroke="black" d="M 271 131 218 117"/>
<path stroke-width="1" stroke="black" d="M 271 131 262 106"/>
<path stroke-width="1" stroke="black" d="M 271 131 344 140"/>
<path stroke-width="1" stroke="black" d="M 271 131 241 150"/>
<path stroke-width="1" stroke="black" d="M 271 131 241 207"/>
<path stroke-width="1" stroke="black" d="M 271 131 316 204"/>
<path stroke-width="1" stroke="black" d="M 271 131 307 111"/>
<path stroke-width="1" stroke="black" d="M 271 131 352 187"/>
<path stroke-width="1" stroke="black" d="M 271 131 164 129"/>
<path stroke-width="1" stroke="black" d="M 271 131 182 133"/>
<path stroke-width="1" stroke="black" d="M 271 131 199 98"/>
<path stroke-width="1" stroke="black" d="M 271 131 216 224"/>
<path stroke-width="1" stroke="black" d="M 271 131 201 161"/>
<path stroke-width="1" stroke="black" d="M 271 131 342 122"/>
<path stroke-width="1" stroke="black" d="M 271 131 292 182"/>
<path stroke-width="1" stroke="black" d="M 271 131 242 110"/>
<path stroke-width="1" stroke="black" d="M 271 131 173 163"/>
<path stroke-width="1" stroke="black" d="M 304 115 344 140"/>
<path stroke-width="1" stroke="black" d="M 304 115 241 150"/>
<path stroke-width="1" stroke="black" d="M 304 115 316 204"/>
<path stroke-width="1" stroke="black" d="M 304 115 342 122"/>
<path stroke-width="1" stroke="black" d="M 304 115 307 111"/>
<path stroke-width="1" stroke="black" d="M 304 115 352 187"/>
<path stroke-width="1" stroke="black" d="M 304 115 164 129"/>
<path stroke-width="1" stroke="black" d="M 304 115 182 133"/>
<path stroke-width="1" stroke="black" d="M 304 115 199 98"/>
<path stroke-width="1" stroke="black" d="M 304 115 216 224"/>
<path stroke-width="1" stroke="black" d="M 304 115 201 161"/>
<path stroke-width="1" stroke="black" d="M 276 111 271 131"/>
<path stroke-width="1" stroke="black" d="M 271 131 250 184"/>
<path stroke-width="1" stroke="black" d="M 271 131 304 115"/>
<path stroke-width="1" stroke="black" d="M 271 131 276 111"/>
<path stroke-width="1" stroke="black" d="M 271 131 253 156"/>
<path stroke-width="1" stroke="black" d="M 271 131 355 165"/>
<path stroke-width="1" stroke="black" d="M 242 110 304 115"/>
<path stroke-width="1" stroke="black" d="M 201 161 352 187"/>
<path stroke-width="1" stroke="black" d="M 242 110 271 131"/>
<path stroke-width="1" stroke="black" d="M 242 110 355 165"/>
<path stroke-width="1" stroke="black" d="M 193 186 271 131"/>
<path stroke-width="1" stroke="black" d="M 193 186 253 156"/>
<path stroke-width="1" stroke="black" d="M 193 186 355 165"/>
<path stroke-width="1" stroke="black" d="M 193 186 173 163"/>
<path stroke-width="1" stroke="black" d="M 193 186 242 110"/>
<path stroke-width="1" stroke="black" d="M 193 186 292 182"/>
<path stroke-width="1" stroke="black" d="M 193 186 241 207"/>
<path stroke-width="1" stroke="black" d="M 193 186 304 115"/>
<path stroke-width="1" stroke="black" d="M 193 186 308 199"/>
<path stroke-width="1" stroke="black" d="M 193 186 206 197"/>
<path stroke-width="1" stroke="black" d="M 193 186 218 117"/>
<path stroke-width="1" stroke="black" d="M 193 186 262 106"/>
<path stroke-width="1" stroke="black" d="M 193 186 344 140"/>
<path stroke-width="1" stroke="black" d="M 193 186 241 150"/>
<path stroke-width="1" stroke="black" d="M 193 186 316 204"/>
<path stroke-width="1" stroke="black" d="M 193 186 342 122"/>
<path stroke-width="1" stroke="black" d="M 193 186 157 211"/>
<path stroke-width="1" stroke="black" d="M 193 186 307 111"/>
<path stroke-width="1" stroke="black" d="M 193 186 250 184"/>
<path stroke-width="1" stroke="black" d="M 308 199 201 161"/>
<path stroke-width="1" stroke="black" d="M 308 199 241 207"/>
<path stroke-width="1" stroke="black" d="M 308 199 329 228"/>
<path stroke-width="1" stroke="black" d="M 308 199 193 186"/>
<path stroke-width="1" stroke="black" d="M 308 199 206 197"/>
<path stroke-width="1" stroke="black" d="M 308 199 218 117"/>
<path stroke-width="1" stroke="black" d="M 308 199 262 106"/>
<path stroke-width="1" stroke="black" d="M 308 199 344 140"/>
<path stroke-width="1" stroke="black" d="M 157 211 193 186"/>
<path stroke-width="1" stroke="black" d="M 308 199 241 150"/>
<path stroke-width="1" stroke="black" d="M 308 199 342 122"/>
<path stroke-width="1" stroke="black" d="M 308 199 307 111"/>
<path stroke-width="1" stroke="black" d="M 308 199 352 187"/>
<path stroke-width="1" stroke="black" d="M 308 199 164 129"/>
<path stroke-width="1" stroke="black" d="M 308 199 182 133"/>
<path stroke-width="1" stroke="black" d="M 308 199 199 98"/>
<path stroke-width="1" stroke="black" d="M 308 199 216 224"/>
<path stroke-width="1" stroke="black" d="M 308 199 316 204"/>
<path stroke-width="1" stroke="black" d="M 308 199 292 182"/>
<path stroke-width="1" stroke="black" d="M 193 186 352 187"/>
<path stroke-width="1" stroke="black" d="M 193 186 182 133"/>
<path stroke-width="1" stroke="black" d="M 206 197 316 204"/>
<path stroke-width="1" stroke="black" d="M 206 197 342 122"/>
<path stroke-width="1" stroke="black" d="M 206 197 307 111"/>
<path stroke-width="1" stroke="black" d="M 206 197 352 187"/>
<path stroke-width="1" stroke="black" d="M 206 197 164 129"/>
<path stroke-width="1" stroke="black" d="M 206 197 182 133"/>
<path stroke-width="1" stroke="black" d="M 206 197 199 98"/>
<path stroke-width="1" stroke="black" d="M 206 197 241 150"/>
<path stroke-width="1" stroke="black" d="M 206 197 216 224"/>
<path stroke-width="1" stroke="black" d="M 201 84 218 117"/>
<path stroke-width="1" stroke="black" d="M 218 117 250 184"/>
<path stroke-width="1" stroke="black" d="M 218 117 304 115"/>
<path stroke-width="1" stroke="black" d="M 218 117 271 131"/>
<path stroke-width="1" stroke="black" d="M 218 117 253 156"/>
<path stroke-width="1" stroke="black" d="M 218 117 355 165"/>
<path stroke-width="1" stroke="black" d="M 218 117 173 163"/>
<path stroke-width="1" stroke="black" d="M 206 197 201 161"/>
<path stroke-width="1" stroke="black" d="M 193 186 164 129"/>
<path stroke-width="1" stroke="black" d="M 206 197 344 140"/>
<path stroke-width="1" stroke="black" d="M 206 197 218 117"/>
<path stroke-width="1" stroke="black" d="M 193 186 199 98"/>
<path stroke-width="1" stroke="black" d="M 193 186 216 224"/>
<path stroke-width="1" stroke="black" d="M 193 186 201 161"/>
<path stroke-width="1" stroke="black" d="M 183 229 206 197"/>
<path stroke-width="1" stroke="black" d="M 206 197 250 184"/>
<path stroke-width="1" stroke="black" d="M 206 197 304 115"/>
<path stroke-width="1" stroke="black" d="M 206 197 271 131"/>
<path stroke-width="1" stroke="black" d="M 206 197 262 106"/>
<path stroke-width="1" stroke="black" d="M 206 197 253 156"/>
<path stroke-width="1" stroke="black" d="M 206 197 173 163"/>
<path stroke-width="1" stroke="black" d="M 206 197 242 110"/>
<path stroke-width="1" stroke="black" d="M 206 197 292 182"/>
<path stroke-width="1" stroke="black" d="M 206 197 241 207"/>
<path stroke-width="1" stroke="black" d="M 206 197 308 199"/>
<path stroke-width="1" stroke="black" d="M 206 197 193 186"/>
<path stroke-width="1" stroke="black" d="M 206 197 183 229"/>
<path stroke-width="1" stroke="black" d="M 206 197 355 165"/>
<path stroke-width="1" stroke="black" d="M 308 199 242 110"/>
<path stroke-width="1" stroke="black" d="M 308 199 173 163"/>
<path stroke-width="1" stroke="black" d="M 308 199 355 165"/>
<path stroke-width="1" stroke="black" d="M 309 204 292 182"/>
<path stroke-width="1" stroke="black" d="M 292 182 250 184"/>
<path stroke-width="1" stroke="black" d="M 292 182 304 115"/>
<path stroke-width="1" stroke="black" d="M 292 182 271 131"/>
<path stroke-width="1" stroke="black" d="M 292 182 253 156"/>
<path stroke-width="1" stroke="black" d="M 292 182 355 165"/>
<path stroke-width="1" stroke="black" d="M 292 182 173 163"/>
<path stroke-width="1" stroke="black" d="M 242 110 201 161"/>
<path stroke-width="1" stroke="black" d="M 292 182 242 110"/>
<path stroke-width="1" stroke="black" d="M 292 182 241 207"/>
<path stroke-width="1" stroke="black" d="M 292 182 308 199"/>
<path stroke-width="1" stroke="black" d="M 292 182 193 186"/>
<path stroke-width="1" stroke="black" d="M 292 182 206 197"/>
<path stroke-width="1" stroke="black" d="M 292 182 218 117"/>
<path stroke-width="1" stroke="black" d="M 292 182 262 106"/>
<path stroke-width="1" stroke="black" d="M 292 182 344 140"/>
<path stroke-width="1" stroke="black" d="M 292 182 309 204"/>
<path stroke-width="1" stroke="black" d="M 292 182 241 150"/>
<path stroke-width="1" stroke="black" d="M 242 110 216 224"/>
<path stroke-width="1" stroke="black" d="M 242 110 182 133"/>
<path stroke-width="1" stroke="black" d="M 242 110 173 163"/>
<path stroke-width="1" stroke="black" d="M 242 110 235 82"/>
<path stroke-width="1" stroke="black" d="M 242 110 292 182"/>
<path stroke-width="1" stroke="black" d="M 242 110 241 207"/>
<path stroke-width="1" stroke="black" d="M 242 110 308 199"/>
<path stroke-width="1" stroke="black" d="M 242 110 193 186"/>
<path stroke-width="1" stroke="black" d="M 242 110 206 197"/>
<path stroke-width="1" stroke="black" d="M 242 110 199 98"/>
<path stroke-width="1" stroke="black" d="M 242 110 218 117"/>
<path stroke-width="1" stroke="black" d="M 242 110 344 140"/>
<path stroke-width="1" stroke="black" d="M 242 110 241 150"/>
<path stroke-width="1" stroke="black" d="M 242 110 316 204"/>
<path stroke-width="1" stroke="black" d="M 242 110 342 122"/>
<path stroke-width="1" stroke="black" d="M 242 110 307 111"/>
<path stroke-width="1" stroke="black" d="M 242 110 352 187"/>
<path stroke-width="1" stroke="black" d="M 242 110 164 129"/>
<path stroke-width="1" stroke="black" d="M 242 110 262 106"/>
<path stroke-width="1" stroke="black" d="M 292 182 316 204"/>
<path stroke-width="1" stroke="black" d="M 292 182 342 122"/>
<path stroke-width="1" stroke="black" d="M 292 182 307 111"/>
<path stroke-width="1" stroke="black" d="M 241 207 344 140"/>
<path stroke-width="1" stroke="black" d="M 241 207 241 150"/>
<path stroke-width="1" stroke="black" d="M 241 207 316 204"/>
<path stroke-width="1" stroke="black" d="M 241 207 342 122"/>
<path stroke-width="1" stroke="black" d="M 241 207 307 111"/>
<path stroke-width="1" stroke="black" d="M 241 207 352 187"/>
<path stroke-width="1" stroke="black" d="M 241 207 164 129"/>
<path stroke-width="1" stroke="black" d="M 241 207 262 106"/>
<path stroke-width="1" stroke="black" d="M 241 207 182 133"/>
<path stroke-width="1" stroke="black" d="M 241 207 216 224"/>
<path stroke-width="1" stroke="black" d="M 241 207 201 161"/>
<path stroke-width="1" stroke="black" d="M 329 228 308 199"/>
<path stroke-width="1" stroke="black" d="M 308 199 250 184"/>
<path stroke-width="1" stroke="black" d="M 308 199 304 115"/>
<path stroke-width="1" stroke="black" d="M 308 199 271 131"/>
<path stroke-width="1" stroke="black" d="M 308 199 253 156"/>
<path stroke-width="1" stroke="black" d="M 241 207 199 98"/>
<path stroke-width="1" stroke="black" d="M 241 207 218 117"/>
<path stroke-width="1" stroke="black" d="M 241 207 206 197"/>
<path stroke-width="1" stroke="black" d="M 241 207 193 186"/>
<path stroke-width="1" stroke="black" d="M 292 182 352 187"/>
<path stroke-width="1" stroke="black" d="M 292 182 164 129"/>
<path stroke-width="1" stroke="black" d="M 292 182 182 133"/>
<path stroke-width="1" stroke="black" d="M 292 182 199 98"/>
<path stroke-width="1" stroke="black" d="M 292 182 216 224"/>
<path stroke-width="1" stroke="black" d="M 292 182 201 161"/>
<path stroke-width="1" stroke="black" d="M 235 238 241 207"/>
<path stroke-width="1" stroke="black" d="M 241 207 250 184"/>
<path stroke-width="1" stroke="black" d="M 241 207 304 115"/>
<path stroke-width="1" stroke="black" d="M 241 207 271 131"/>
<path stroke-width="1" stroke="black" d="M 241 207 253 156"/>
<path stroke-width="1" stroke="black" d="M 241 207 355 165"/>
<path stroke-width="1" stroke="black" d="M 241 207 173 163"/>
<path stroke-width="1" stroke="black" d="M 241 207 242 110"/>
<path stroke-width="1" stroke="black" d="M 241 207 292 182"/>
<path stroke-width="1" stroke="black" d="M 241 207 235 238"/>
<path stroke-width="1" stroke="black" d="M 241 207 308 199"/>
<path stroke-width="1" stroke="black" d="M 242 110 253 156"/>
<path stroke-width="1" stroke="black" d="M 201 161 20 162"/>
<circle cx="248" cy="203" r="7.0" style="fill:green;stroke:black;stroke-width:1.0"/>
<circle cx="250" cy="184" r="7.0" style="fill:green;stroke:black;stroke-width:1.0"/>
<circle cx="323" cy="93" r="7.0" style="fill:brown;stroke:black;stroke-width:1.0"/>
<circle cx="304" cy="115" r="7.0" style="fill:brown;stroke:black;stroke-width:1.0"/>
<circle cx="276" cy="111" r="7.0" style="fill:aqua;stroke:black;stroke-width:1.0"/>
<circle cx="271" cy="131" r="7.0" style="fill:aqua;stroke:black;stroke-width:1.0"/>
<circle cx="256" cy="174" r="7.0" style="fill:olive;stroke:black;stroke-width:1.0"/>
<circle cx="253" cy="156" r="7.0" style="fill:olive;stroke:black;stroke-width:1.0"/>
<circle cx="403" cy="174" r="7.0" style="fill:fuchsia;stroke:black;stroke-width:1.0"/>
<circle cx="355" cy="165" r="7.0" style="fill:fuchsia;stroke:black;stroke-width:1.0"/>
<circle cx="125" cy="170" r="7.0" style="fill:yellow;stroke:black;stroke-width:1.0"/>
<circle cx="173" cy="163" r="7.0" style="fill:yellow;stroke:black;stroke-width:1.0"/>
<circle cx="235" cy="82" r="7.0" style="fill:purple;stroke:black;stroke-width:1.0"/>
<circle cx="242" cy="110" r="7.0" style="fill:purple;stroke:black;stroke-width:1.0"/>
<circle cx="309" cy="204" r="7.0" style="fill:orange;stroke:black;stroke-width:1.0"/>
<circle cx="292" cy="182" r="7.0" style="fill:orange;stroke:black;stroke-width:1.0"/>
<circle cx="235" cy="238" r="7.0" style="fill:green;stroke:black;stroke-width:1.0"/>
<circle cx="241" cy="207" r="7.0" style="fill:green;stroke:black;stroke-width:1.0"/>
<circle cx="329" cy="228" r="7.0" style="fill:blue;stroke:black;stroke-width:1.0"/>
<circle cx="308" cy="199" r="7.0" style="fill:blue;stroke:black;stroke-width:1.0"/>
<circle cx="157" cy="211" r="7.0" style="fill:red;stroke:black;stroke-width:1.0"/>
<circle cx="193" cy="186" r="7.0" style="fill:red;stroke:black;stroke-width:1.0"/>
<circle cx="183" cy="229" r="7.0" style="fill:blue;stroke:black;stroke-width:1.0"/>
<circle cx="206" cy="197" r="7.0" style="fill:blue;stroke:black;stroke-width:1.0"/>
<circle cx="201" cy="84" r="7.0" style="fill:brown;stroke:black;stroke-width:1.0"/>
<circle cx="218" cy="117" r="7.0" style="fill:brown;stroke:black;stroke-width:1.0"/>
<circle cx="268" cy="68" r="7.0" style="fill:aqua;stroke:black;stroke-width:1.0"/>
<circle cx="262" cy="106" r="7.0" style="fill:aqua;stroke:black;stroke-width:1.0"/>
<circle cx="399" cy="121" r="7.0" style="fill:olive;stroke:black;stroke-width:1.0"/>
<circle cx="344" cy="140" r="7.0" style="fill:olive;stroke:black;stroke-width:1.0"/>
<circle cx="205" cy="135" r="7.0" style="fill:red;stroke:black;stroke-width:1.0"/>
<circle cx="241" cy="150" r="7.0" style="fill:red;stroke:black;stroke-width:1.0"/>
<circle cx="351" cy="241" r="7.0" style="fill:fuchsia;stroke:black;stroke-width:1.0"/>
<circle cx="316" cy="204" r="7.0" style="fill:fuchsia;stroke:black;stroke-width:1.0"/>
<circle cx="395" cy="90" r="7.0" style="fill:yellow;stroke:black;stroke-width:1.0"/>
<circle cx="342" cy="122" r="7.0" style="fill:yellow;stroke:black;stroke-width:1.0"/>
<circle cx="338" cy="67" r="7.0" style="fill:red;stroke:black;stroke-width:1.0"/>
<circle cx="307" cy="111" r="7.0" style="fill:red;stroke:black;stroke-width:1.0"/>
<circle cx="420" cy="220" r="7.0" style="fill:purple;stroke:black;stroke-width:1.0"/>
<circle cx="352" cy="187" r="7.0" style="fill:purple;stroke:black;stroke-width:1.0"/>
<circle cx="84" cy="89" r="7.0" style="fill:blue;stroke:black;stroke-width:1.0"/>
<circle cx="164" cy="129" r="7.0" style="fill:blue;stroke:black;stroke-width:1.0"/>
<circle cx="112" cy="91" r="7.0" style="fill:orange;stroke:black;stroke-width:1.0"/>
<circle cx="182" cy="133" r="7.0" style="fill:orange;stroke:black;stroke-width:1.0"/>
<circle cx="146" cy="20" r="7.0" style="fill:blue;stroke:black;stroke-width:1.0"/>
<circle cx="199" cy="98" r="7.0" style="fill:blue;stroke:black;stroke-width:1.0"/>
<circle cx="169" cy="320" r="7.0" style="fill:blue;stroke:black;stroke-width:1.0"/>
<circle cx="216" cy="224" r="7.0" style="fill:blue;stroke:black;stroke-width:1.0"/>
<circle cx="20" cy="162" r="7.0" style="fill:red;stroke:black;stroke-width:1.0"/>
<circle cx="201" cy="161" r="7.0" style="fill:red;stroke:black;stroke-width:1.0"/>
</svg>
