<svg width="440" height="340" xmlns="http://www.w3.org/2000/svg">
<path stroke-width="1" stroke="black" d="M 286 182 275 162"/>
<path stroke-width="1" stroke="black" d="M 366 157 253 127"/>
<path stroke-width="1" stroke="black" d="M 366 157 264 192"/>
<path stroke-width="1" stroke="black" d="M 366 157 363 130"/>
<path stroke-width="1" stroke="black" d="M 366 157 270 108"/>
<path stroke-width="1" stroke="black" d="M 366 157 329 184"/>
<path stroke-width="1" stroke="black" d="M 366 157 295 101"/>
<path stroke-width="1" stroke="black" d="M 366 157 242 140"/>
<path stroke-width="1" stroke="black" d="M 366 157 306 129"/>
<path stroke-width="1" stroke="black" d="M 366 157 371 137"/>
<path stroke-width="1" stroke="black" d="M 366 157 344 192"/>
<path stroke-width="1" stroke="black" d="M 366 157 420 161"/>
<path stroke-width="1" stroke="black" d="M 366 157 252 190"/>
<path stroke-width="1" stroke="black" d="M 366 157 276 95"/>
<path stroke-width="1" stroke="black" d="M 366 157 335 91"/>
<path stroke-width="1" stroke="black" d="M 366 157 328 87"/>
<path stroke-width="1" stroke="black" d="M 366 157 345 205"/>
<path stroke-width="1" stroke="black" d="M 366 157 316 91"/>
<path stroke-width="1" stroke="black" d="M 366 157 315 221"/>
<path stroke-width="1" stroke="black" d="M 366 157 289 165"/>
<path stroke-width="1" stroke="black" d="M 366 157 345 112"/>
<path stroke-width="1" stroke="black" d="M 344 192 242 140"/>
<path stroke-width="1" stroke="black" d="M 344 192 371 137"/>
<path stroke-width="1" stroke="black" d="M 344 192 316 91"/>
<path stroke-width="1" stroke="black" d="M 344 192 363 232"/>
<path stroke-width="1" stroke="black" d="M 344 192 366 157"/>
<path stroke-width="1" stroke="black" d="M 344 192 252 190"/>
<path stroke-width="1" stroke="black" d="M 344 192 276 95"/>
<path stroke-width="1" stroke="black" d="M 366 157 279 175"/>
<path stroke-width="1" stroke="black" d="M 344 192 335 91"/>
<path stroke-width="1" stroke="black" d="M 344 192 345 205"/>
<path stroke-width="1" stroke="black" d="M 344 192 315 221"/>
<path stroke-width="1" stroke="black" d="M 344 192 312 222"/>
<path stroke-width="1" stroke="black" d="M 344 192 195 103"/>
<path stroke-width="1" stroke="black" d="M 420 161 366 157"/>
<path stroke-width="1" stroke="black" d="M 366 157 275 162"/>
<path stroke-width="1" stroke="black" d="M 366 157 339 154"/>
<path stroke-width="1" stroke="black" d="M 344 192 328 87"/>
<path stroke-width="1" stroke="black" d="M 344 192 295 101"/>
<path stroke-width="1" stroke="black" d="M 366 157 312 222"/>
<path stroke-width="1" stroke="black" d="M 232 232 252 190"/>
<path stroke-width="1" stroke="black" d="M 252 190 328 87"/>
<path stroke-width="1" stroke="black" d="M 252 190 345 205"/>
<path stroke-width="1" stroke="black" d="M 252 190 315 221"/>
<path stroke-width="1" stroke="black" d="M 252 190 312 222"/>
<path stroke-width="1" stroke="black" d="M 252 190 195 103"/>
<path stroke-width="1" stroke="black" d="M 263 45 276 95"/>
<path stroke-width="1" stroke="black" d="M 276 95 275 162"/>
<path stroke-width="1" stroke="black" d="M 252 190 335 91"/>
<path stroke-width="1" stroke="black" d="M 276 95 339 154"/>
<path stroke-width="1" stroke="black" d="M 276 95 279 175"/>
<path stroke-width="1" stroke="black" d="M 276 95 289 165"/>
<path stroke-width="1" stroke="black" d="M 276 95 306 129"/>
<path stroke-width="1" stroke="black" d="M 276 95 253 127"/>
<path stroke-width="1" stroke="black" d="M 276 95 264 192"/>
<path stroke-width="1" stroke="black" d="M 276 95 363 130"/>
<path stroke-width="1" stroke="black" d="M 276 95 270 108"/>
<path stroke-width="1" stroke="black" d="M 276 95 345 112"/>
<path stroke-width="1" stroke="black" d="M 366 157 195 103"/>
<path stroke-width="1" stroke="black" d="M 252 190 276 95"/>
<path stroke-width="1" stroke="black" d="M 252 190 366 157"/>
<path stroke-width="1" stroke="black" d="M 252 190 275 162"/>
<path stroke-width="1" stroke="black" d="M 252 190 339 154"/>
<path stroke-width="1" stroke="black" d="M 252 190 345 112"/>
<path stroke-width="1" stroke="black" d="M 252 190 279 175"/>
<path stroke-width="1" stroke="black" d="M 252 190 289 165"/>
<path stroke-width="1" stroke="black" d="M 252 190 306 129"/>
<path stroke-width="1" stroke="black" d="M 252 190 253 127"/>
<path stroke-width="1" stroke="black" d="M 252 190 232 232"/>
<path stroke-width="1" stroke="black" d="M 252 190 264 192"/>
<path stroke-width="1" stroke="black" d="M 252 190 270 108"/>
<path stroke-width="1" stroke="black" d="M 252 190 329 184"/>
<path stroke-width="1" stroke="black" d="M 252 190 295 101"/>
<path stroke-width="1" stroke="black" d="M 252 190 242 140"/>
<path stroke-width="1" stroke="black" d="M 252 190 371 137"/>
<path stroke-width="1" stroke="black" d="M 252 190 316 91"/>
<path stroke-width="1" stroke="black" d="M 252 190 344 192"/>
<path stroke-width="1" stroke="black" d="M 252 190 363 130"/>
<path stroke-width="1" stroke="black" d="M 276 95 329 184"/>
<path stroke-width="1" stroke="black" d="M 344 192 329 184"/>
<path stroke-width="1" stroke="black" d="M 344 192 363 130"/>
<path stroke-width="1" stroke="black" d="M 371 137 289 165"/>
<path stroke-width="1" stroke="black" d="M 371 137 306 129"/>
<path stroke-width="1" stroke="black" d="M 371 137 253 127"/>
<path stroke-width="1" stroke="black" d="M 371 137 264 192"/>
<path stroke-width="1" stroke="black" d="M 371 137 363 130"/>
<path stroke-width="1" stroke="black" d="M 371 137 270 108"/>
<path stroke-width="1" stroke="black" d="M 371 137 329 184"/>
<path stroke-width="1" stroke="black" d="M 371 137 279 175"/>
<path stroke-width="1" stroke="black" d="M 371 137 295 101"/>
<path stroke-width="1" stroke="black" d="M 371 137 417 127"/>
<path stroke-width="1" stroke="black" d="M 371 137 316 91"/>
<path stroke-width="1" stroke="black" d="M 371 137 344 192"/>
<path stroke-width="1" stroke="black" d="M 371 137 366 157"/>
<path stroke-width="1" stroke="black" d="M 371 137 252 190"/>
<path stroke-width="1" stroke="black" d="M 371 137 276 95"/>
<path stroke-width="1" stroke="black" d="M 371 137 335 91"/>
<path stroke-width="1" stroke="black" d="M 371 137 242 140"/>
<path stroke-width="1" stroke="black" d="M 371 137 328 87"/>
<path stroke-width="1" stroke="black" d="M 371 137 345 112"/>
<path stroke-width="1" stroke="black" d="M 371 137 275 162"/>
<path stroke-width="1" stroke="black" d="M 242 140 329 184"/>
<path stroke-width="1" stroke="black" d="M 242 140 295 101"/>
<path stroke-width="1" stroke="black" d="M 242 140 200 132"/>
<path stroke-width="1" stroke="black" d="M 242 140 371 137"/>
<path stroke-width="1" stroke="black" d="M 242 140 316 91"/>
<path stroke-width="1" stroke="black" d="M 242 140 344 192"/>
<path stroke-width="1" stroke="black" d="M 242 140 366 157"/>
<path stroke-width="1" stroke="black" d="M 371 137 339 154"/>
<path stroke-width="1" stroke="black" d="M 242 140 252 190"/>
<path stroke-width="1" stroke="black" d="M 242 140 335 91"/>
<path stroke-width="1" stroke="black" d="M 242 140 328 87"/>
<path stroke-width="1" stroke="black" d="M 242 140 345 205"/>
<path stroke-width="1" stroke="black" d="M 242 140 315 221"/>
<path stroke-width="1" stroke="black" d="M 242 140 312 222"/>
<path stroke-width="1" stroke="black" d="M 242 140 195 103"/>
<path stroke-width="1" stroke="black" d="M 417 127 371 137"/>
<path stroke-width="1" stroke="black" d="M 242 140 276 95"/>
<path stroke-width="1" stroke="black" d="M 344 192 270 108"/>
<path stroke-width="1" stroke="black" d="M 371 137 345 205"/>
<path stroke-width="1" stroke="black" d="M 371 137 312 222"/>
<path stroke-width="1" stroke="black" d="M 316 91 276 95"/>
<path stroke-width="1" stroke="black" d="M 316 91 335 91"/>
<path stroke-width="1" stroke="black" d="M 316 91 328 87"/>
<path stroke-width="1" stroke="black" d="M 316 91 345 205"/>
<path stroke-width="1" stroke="black" d="M 316 91 315 221"/>
<path stroke-width="1" stroke="black" d="M 316 91 312 222"/>
<path stroke-width="1" stroke="black" d="M 316 91 195 103"/>
<path stroke-width="1" stroke="black" d="M 316 91 252 190"/>
<path stroke-width="1" stroke="black" d="M 363 232 344 192"/>
<path stroke-width="1" stroke="black" d="M 344 192 339 154"/>
<path stroke-width="1" stroke="black" d="M 344 192 345 112"/>
<path stroke-width="1" stroke="black" d="M 344 192 279 175"/>
<path stroke-width="1" stroke="black" d="M 344 192 289 165"/>
<path stroke-width="1" stroke="black" d="M 344 192 306 129"/>
<path stroke-width="1" stroke="black" d="M 344 192 253 127"/>
<path stroke-width="1" stroke="black" d="M 344 192 264 192"/>
<path stroke-width="1" stroke="black" d="M 344 192 275 162"/>
<path stroke-width="1" stroke="black" d="M 371 137 315 221"/>
<path stroke-width="1" stroke="black" d="M 316 91 366 157"/>
<path stroke-width="1" stroke="black" d="M 316 91 322 50"/>
<path stroke-width="1" stroke="black" d="M 371 137 195 103"/>
<path stroke-width="1" stroke="black" d="M 322 50 316 91"/>
<path stroke-width="1" stroke="black" d="M 316 91 275 162"/>
<path stroke-width="1" stroke="black" d="M 316 91 339 154"/>
<path stroke-width="1" stroke="black" d="M 316 91 345 112"/>
<path stroke-width="1" stroke="black" d="M 316 91 279 175"/>
<path stroke-width="1" stroke="black" d="M 316 91 289 165"/>
<path stroke-width="1" stroke="black" d="M 316 91 344 192"/>
<path stroke-width="1" stroke="black" d="M 316 91 306 129"/>
<path stroke-width="1" stroke="black" d="M 316 91 264 192"/>
<path stroke-width="1" stroke="black" d="M 316 91 363 130"/>
<path stroke-width="1" stroke="black" d="M 316 91 270 108"/>
<path stroke-width="1" stroke="black" d="M 316 91 329 184"/>
<path stroke-width="1" stroke="black" d="M 316 91 295 101"/>
<path stroke-width="1" stroke="black" d="M 316 91 242 140"/>
<path stroke-width="1" stroke="black" d="M 316 91 371 137"/>
<path stroke-width="1" stroke="black" d="M 316 91 253 127"/>
<path stroke-width="1" stroke="black" d="M 276 95 295 101"/>
<path stroke-width="1" stroke="black" d="M 276 95 242 140"/>
<path stroke-width="1" stroke="black" d="M 276 95 371 137"/>
<path stroke-width="1" stroke="black" d="M 315 221 371 137"/>
<path stroke-width="1" stroke="black" d="M 315 221 316 91"/>
<path stroke-width="1" stroke="black" d="M 315 221 344 192"/>
<path stroke-width="1" stroke="black" d="M 315 221 366 157"/>
<path stroke-width="1" stroke="black" d="M 315 221 252 190"/>
<path stroke-width="1" stroke="black" d="M 315 221 276 95"/>
<path stroke-width="1" stroke="black" d="M 315 221 335 91"/>
<path stroke-width="1" stroke="black" d="M 315 221 242 140"/>
<path stroke-width="1" stroke="black" d="M 315 221 328 87"/>
<path stroke-width="1" stroke="black" d="M 315 221 321 310"/>
<path stroke-width="1" stroke="black" d="M 315 221 312 222"/>
<path stroke-width="1" stroke="black" d="M 320 320 312 222"/>
<path stroke-width="1" stroke="black" d="M 312 222 275 162"/>
<path stroke-width="1" stroke="black" d="M 312 222 339 154"/>
<path stroke-width="1" stroke="black" d="M 312 222 345 112"/>
<path stroke-width="1" stroke="black" d="M 312 222 279 175"/>
<path stroke-width="1" stroke="black" d="M 315 221 345 205"/>
<path stroke-width="1" stroke="black" d="M 312 222 289 165"/>
<path stroke-width="1" stroke="black" d="M 315 221 295 101"/>
<path stroke-width="1" stroke="black" d="M 315 221 270 108"/>
<path stroke-width="1" stroke="black" d="M 345 205 276 95"/>
<path stroke-width="1" stroke="black" d="M 345 205 335 91"/>
<path stroke-width="1" stroke="black" d="M 345 205 328 87"/>
<path stroke-width="1" stroke="black" d="M 345 205 356 275"/>
<path stroke-width="1" stroke="black" d="M 345 205 315 221"/>
<path stroke-width="1" stroke="black" d="M 345 205 312 222"/>
<path stroke-width="1" stroke="black" d="M 321 310 315 221"/>
<path stroke-width="1" stroke="black" d="M 315 221 329 184"/>
<path stroke-width="1" stroke="black" d="M 315 221 275 162"/>
<path stroke-width="1" stroke="black" d="M 315 221 345 112"/>
<path stroke-width="1" stroke="black" d="M 315 221 279 175"/>
<path stroke-width="1" stroke="black" d="M 315 221 289 165"/>
<path stroke-width="1" stroke="black" d="M 315 221 306 129"/>
<path stroke-width="1" stroke="black" d="M 315 221 253 127"/>
<path stroke-width="1" stroke="black" d="M 315 221 264 192"/>
<path stroke-width="1" stroke="black" d="M 315 221 363 130"/>
<path stroke-width="1" stroke="black" d="M 315 221 339 154"/>
<path stroke-width="1" stroke="black" d="M 345 205 252 190"/>
<path stroke-width="1" stroke="black" d="M 312 222 306 129"/>
<path stroke-width="1" stroke="black" d="M 312 222 264 192"/>
<path stroke-width="1" stroke="black" d="M 195 103 279 175"/>
<path stroke-width="1" stroke="black" d="M 195 103 289 165"/>
<path stroke-width="1" stroke="black" d="M 195 103 306 129"/>
<path stroke-width="1" stroke="black" d="M 195 103 253 127"/>
<path stroke-width="1" stroke="black" d="M 195 103 264 192"/>
<path stroke-width="1" stroke="black" d="M 195 103 363 130"/>
<path stroke-width="1" stroke="black" d="M 195 103 270 108"/>
<path stroke-width="1" stroke="black" d="M 195 103 345 112"/>
<path stroke-width="1" stroke="black" d="M 195 103 329 184"/>
<path stroke-width="1" stroke="black" d="M 195 103 242 140"/>
<path stroke-width="1" stroke="black" d="M 195 103 371 137"/>
<path stroke-width="1" stroke="black" d="M 195 103 316 91"/>
<path stroke-width="1" stroke="black" d="M 195 103 344 192"/>
<path stroke-width="1" stroke="black" d="M 195 103 366 157"/>
<path stroke-width="1" stroke="black" d="M 195 103 252 190"/>
<path stroke-width="1" stroke="black" d="M 195 103 276 95"/>
<path stroke-width="1" stroke="black" d="M 195 103 295 101"/>
<path stroke-width="1" stroke="black" d="M 312 222 253 127"/>
<path stroke-width="1" stroke="black" d="M 195 103 339 154"/>
<path stroke-width="1" stroke="black" d="M 20 20 195 103"/>
<path stroke-width="1" stroke="black" d="M 312 222 363 130"/>
<path stroke-width="1" stroke="black" d="M 312 222 270 108"/>
<path stroke-width="1" stroke="black" d="M 312 222 329 184"/>
<path stroke-width="1" stroke="black" d="M 312 222 295 101"/>
<path stroke-width="1" stroke="black" d="M 312 222 242 140"/>
<path stroke-width="1" stroke="black" d="M 312 222 371 137"/>
<path stroke-width="1" stroke="black" d="M 312 222 316 91"/>
<path stroke-width="1" stroke="black" d="M 195 103 275 162"/>
<path stroke-width="1" stroke="black" d="M 312 222 344 192"/>
<path stroke-width="1" stroke="black" d="M 312 222 252 190"/>
<path stroke-width="1" stroke="black" d="M 312 222 276 95"/>
<path stroke-width="1" stroke="black" d="M 312 222 335 91"/>
<path stroke-width="1" stroke="black" d="M 312 222 328 87"/>
<path stroke-width="1" stroke="black" d="M 312 222 345 205"/>
<path stroke-width="1" stroke="black" d="M 312 222 315 221"/>
<path stroke-width="1" stroke="black" d="M 312 222 320 320"/>
<path stroke-width="1" stroke="black" d="M 312 222 366 157"/>
<path stroke-width="1" stroke="black" d="M 345 205 366 157"/>
<path stroke-width="1" stroke="black" d="M 345 205 344 192"/>
<path stroke-width="1" stroke="black" d="M 345 205 316 91"/>
<path stroke-width="1" stroke="black" d="M 335 91 363 130"/>
<path stroke-width="1" stroke="black" d="M 335 91 270 108"/>
<path stroke-width="1" stroke="black" d="M 335 91 329 184"/>
<path stroke-width="1" stroke="black" d="M 335 91 295 101"/>
<path stroke-width="1" stroke="black" d="M 335 91 242 140"/>
<path stroke-width="1" stroke="black" d="M 335 91 371 137"/>
<path stroke-width="1" stroke="black" d="M 335 91 316 91"/>
<path stroke-width="1" stroke="black" d="M 335 91 264 192"/>
<path stroke-width="1" stroke="black" d="M 335 91 344 192"/>
<path stroke-width="1" stroke="black" d="M 335 91 252 190"/>
<path stroke-width="1" stroke="black" d="M 335 91 276 95"/>
<path stroke-width="1" stroke="black" d="M 335 91 351 36"/>
<path stroke-width="1" stroke="black" d="M 335 91 328 87"/>
<path stroke-width="1" stroke="black" d="M 335 91 345 205"/>
<path stroke-width="1" stroke="black" d="M 335 91 315 221"/>
<path stroke-width="1" stroke="black" d="M 335 91 312 222"/>
<path stroke-width="1" stroke="black" d="M 335 91 366 157"/>
<path stroke-width="1" stroke="black" d="M 335 91 195 103"/>
<path stroke-width="1" stroke="black" d="M 335 91 253 127"/>
<path stroke-width="1" stroke="black" d="M 335 91 289 165"/>
<path stroke-width="1" stroke="black" d="M 276 95 316 91"/>
<path stroke-width="1" stroke="black" d="M 276 95 344 192"/>
<path stroke-width="1" stroke="black" d="M 276 95 366 157"/>
<path stroke-width="1" stroke="black" d="M 276 95 252 190"/>
<path stroke-width="1" stroke="black" d="M 276 95 263 45"/>
<path stroke-width="1" stroke="black" d="M 276 95 335 91"/>
<path stroke-width="1" stroke="black" d="M 276 95 328 87"/>
<path stroke-width="1" stroke="black" d="M 335 91 306 129"/>
<path stroke-width="1" stroke="black" d="M 276 95 345 205"/>
<path stroke-width="1" stroke="black" d="M 276 95 312 222"/>
<path stroke-width="1" stroke="black" d="M 276 95 195 103"/>
<path stroke-width="1" stroke="black" d="M 351 36 335 91"/>
<path stroke-width="1" stroke="black" d="M 335 91 275 162"/>
<path stroke-width="1" stroke="black" d="M 335 91 339 154"/>
<path stroke-width="1" stroke="black" d="M 335 91 345 112"/>
<path stroke-width="1" stroke="black" d="M 335 91 279 175"/>
<path stroke-width="1" stroke="black" d="M 276 95 315 221"/>
<path stroke-width="1" stroke="black" d="M 336 20 328 87"/>
<path stroke-width="1" stroke="black" d="M 328 87 275 162"/>
<path stroke-width="1" stroke="black" d="M 328 87 339 154"/>
<path stroke-width="1" stroke="black" d="M 328 87 312 222"/>
<path stroke-width="1" stroke="black" d="M 356 275 345 205"/>
<path stroke-width="1" stroke="black" d="M 345 205 275 162"/>
<path stroke-width="1" stroke="black" d="M 345 205 339 154"/>
<path stroke-width="1" stroke="black" d="M 345 205 345 112"/>
<path stroke-width="1" stroke="black" d="M 345 205 279 175"/>
<path stroke-width="1" stroke="black" d="M 345 205 289 165"/>
<path stroke-width="1" stroke="black" d="M 328 87 315 221"/>
<path stroke-width="1" stroke="black" d="M 345 205 306 129"/>
<path stroke-width="1" stroke="black" d="M 345 205 264 192"/>
<path stroke-width="1" stroke="black" d="M 345 205 363 130"/>
<path stroke-width="1" stroke="black" d="M 345 205 270 108"/>
<path stroke-width="1" stroke="black" d="M 345 205 329 184"/>
<path stroke-width="1" stroke="black" d="M 345 205 295 101"/>
<path stroke-width="1" stroke="black" d="M 345 205 242 140"/>
<path stroke-width="1" stroke="black" d="M 345 205 371 137"/>
<path stroke-width="1" stroke="black" d="M 345 205 253 127"/>
<path stroke-width="1" stroke="black" d="M 328 87 345 205"/>
<path stroke-width="1" stroke="black" d="M 328 87 336 20"/>
<path stroke-width="1" stroke="black" d="M 328 87 335 91"/>
<path stroke-width="1" stroke="black" d="M 328 87 345 112"/>
<path stroke-width="1" stroke="black" d="M 328 87 279 175"/>
<path stroke-width="1" stroke="black" d="M 328 87 289 165"/>
<path stroke-width="1" stroke="black" d="M 328 87 306 129"/>
<path stroke-width="1" stroke="black" d="M 328 87 253 127"/>
<path stroke-width="1" stroke="black" d="M 328 87 264 192"/>
<path stroke-width="1" stroke="black" d="M 328 87 363 130"/>
<path stroke-width="1" stroke="black" d="M 328 87 270 108"/>
<path stroke-width="1" stroke="black" d="M 328 87 329 184"/>
<path stroke-width="1" stroke="black" d="M 328 87 295 101"/>
<path stroke-width="1" stroke="black" d="M 328 87 242 140"/>
<path stroke-width="1" stroke="black" d="M 328 87 371 137"/>
<path stroke-width="1" stroke="black" d="M 328 87 316 91"/>
<path stroke-width="1" stroke="black" d="M 328 87 344 192"/>
<path stroke-width="1" stroke="black" d="M 328 87 366 157"/>
<path stroke-width="1" stroke="black" d="M 328 87 252 190"/>
<path stroke-width="1" stroke="black" d="M 328 87 276 95"/>
<path stroke-width="1" stroke="black" d="M 242 140 270 108"/>
<path stroke-width="1" stroke="black" d="M 242 140 363 130"/>
<path stroke-width="1" stroke="black" d="M 242 140 264 192"/>
<path stroke-width="1" stroke="black" d="M 242 140 253 127"/>
<path stroke-width="1" stroke="black" d="M 279 175 312 222"/>
<path stroke-width="1" stroke="black" d="M 279 175 195 103"/>
<path stroke-width="1" stroke="black" d="M 279 187 289 165"/>
<path stroke-width="1" stroke="black" d="M 289 165 275 162"/>
<path stroke-width="1" stroke="black" d="M 289 165 339 154"/>
<path stroke-width="1" stroke="black" d="M 289 165 345 112"/>
<path stroke-width="1" stroke="black" d="M 289 165 279 175"/>
<path stroke-width="1" stroke="black" d="M 279 175 315 221"/>
<path stroke-width="1" stroke="black" d="M 289 165 279 187"/>
<path stroke-width="1" stroke="black" d="M 289 165 253 127"/>
<path stroke-width="1" stroke="black" d="M 289 165 264 192"/>
<path stroke-width="1" stroke="black" d="M 289 165 363 130"/>
<path stroke-width="1" stroke="black" d="M 289 165 270 108"/>
<path stroke-width="1" stroke="black" d="M 289 165 329 184"/>
<path stroke-width="1" stroke="black" d="M 289 165 295 101"/>
<path stroke-width="1" stroke="black" d="M 289 165 242 140"/>
<path stroke-width="1" stroke="black" d="M 289 165 306 129"/>
<path stroke-width="1" stroke="black" d="M 289 165 371 137"/>
<path stroke-width="1" stroke="black" d="M 279 175 345 205"/>
<path stroke-width="1" stroke="black" d="M 279 175 335 91"/>
<path stroke-width="1" stroke="black" d="M 279 175 267 200"/>
<path stroke-width="1" stroke="black" d="M 279 175 289 165"/>
<path stroke-width="1" stroke="black" d="M 279 175 306 129"/>
<path stroke-width="1" stroke="black" d="M 279 175 253 127"/>
<path stroke-width="1" stroke="black" d="M 279 175 264 192"/>
<path stroke-width="1" stroke="black" d="M 279 175 363 130"/>
<path stroke-width="1" stroke="black" d="M 279 175 270 108"/>
<path stroke-width="1" stroke="black" d="M 279 175 328 87"/>
<path stroke-width="1" stroke="black" d="M 279 175 329 184"/>
<path stroke-width="1" stroke="black" d="M 279 175 242 140"/>
<path stroke-width="1" stroke="black" d="M 279 175 371 137"/>
<path stroke-width="1" stroke="black" d="M 279 175 316 91"/>
<path stroke-width="1" stroke="black" d="M 279 175 344 192"/>
<path stroke-width="1" stroke="black" d="M 279 175 366 157"/>
<path stroke-width="1" stroke="black" d="M 279 175 252 190"/>
<path stroke-width="1" stroke="black" d="M 279 175 276 95"/>
<path stroke-width="1" stroke="black" d="M 279 175 295 101"/>
<path stroke-width="1" stroke="black" d="M 279 175 345 112"/>
<path stroke-width="1" stroke="black" d="M 289 165 316 91"/>
<path stroke-width="1" stroke="black" d="M 289 165 366 157"/>
<path stroke-width="1" stroke="black" d="M 306 129 295 101"/>
<path stroke-width="1" stroke="black" d="M 306 129 242 140"/>
<path stroke-width="1" stroke="black" d="M 306 129 371 137"/>
<path stroke-width="1" stroke="black" d="M 306 129 316 91"/>
<path stroke-width="1" stroke="black" d="M 306 129 344 192"/>
<path stroke-width="1" stroke="black" d="M 306 129 366 157"/>
<path stroke-width="1" stroke="black" d="M 306 129 252 190"/>
<path stroke-width="1" stroke="black" d="M 306 129 329 184"/>
<path stroke-width="1" stroke="black" d="M 306 129 276 95"/>
<path stroke-width="1" stroke="black" d="M 306 129 328 87"/>
<path stroke-width="1" stroke="black" d="M 306 129 345 205"/>
<path stroke-width="1" stroke="black" d="M 306 129 315 221"/>
<path stroke-width="1" stroke="black" d="M 306 129 312 222"/>
<path stroke-width="1" stroke="black" d="M 306 129 195 103"/>
<path stroke-width="1" stroke="black" d="M 227 107 253 127"/>
<path stroke-width="1" stroke="black" d="M 253 127 275 162"/>
<path stroke-width="1" stroke="black" d="M 306 129 335 91"/>
<path stroke-width="1" stroke="black" d="M 289 165 344 192"/>
<path stroke-width="1" stroke="black" d="M 306 129 270 108"/>
<path stroke-width="1" stroke="black" d="M 306 129 264 192"/>
<path stroke-width="1" stroke="black" d="M 289 165 252 190"/>
<path stroke-width="1" stroke="black" d="M 289 165 276 95"/>
<path stroke-width="1" stroke="black" d="M 289 165 335 91"/>
<path stroke-width="1" stroke="black" d="M 289 165 328 87"/>
<path stroke-width="1" stroke="black" d="M 289 165 345 205"/>
<path stroke-width="1" stroke="black" d="M 289 165 315 221"/>
<path stroke-width="1" stroke="black" d="M 289 165 312 222"/>
<path stroke-width="1" stroke="black" d="M 306 129 363 130"/>
<path stroke-width="1" stroke="black" d="M 289 165 195 103"/>
<path stroke-width="1" stroke="black" d="M 306 129 275 162"/>
<path stroke-width="1" stroke="black" d="M 306 129 339 154"/>
<path stroke-width="1" stroke="black" d="M 306 129 345 112"/>
<path stroke-width="1" stroke="black" d="M 306 129 279 175"/>
<path stroke-width="1" stroke="black" d="M 306 129 289 165"/>
<path stroke-width="1" stroke="black" d="M 306 129 311 111"/>
<path stroke-width="1" stroke="black" d="M 306 129 253 127"/>
<path stroke-width="1" stroke="black" d="M 311 111 306 129"/>
<path stroke-width="1" stroke="black" d="M 279 175 339 154"/>
<path stroke-width="1" stroke="black" d="M 279 175 275 162"/>
<path stroke-width="1" stroke="black" d="M 267 200 279 175"/>
<path stroke-width="1" stroke="black" d="M 275 162 328 87"/>
<path stroke-width="1" stroke="black" d="M 275 162 345 205"/>
<path stroke-width="1" stroke="black" d="M 275 162 315 221"/>
<path stroke-width="1" stroke="black" d="M 275 162 312 222"/>
<path stroke-width="1" stroke="black" d="M 275 162 195 103"/>
<path stroke-width="1" stroke="black" d="M 367 157 339 154"/>
<path stroke-width="1" stroke="black" d="M 339 154 275 162"/>
<path stroke-width="1" stroke="black" d="M 275 162 335 91"/>
<path stroke-width="1" stroke="black" d="M 339 154 367 157"/>
<path stroke-width="1" stroke="black" d="M 339 154 279 175"/>
<path stroke-width="1" stroke="black" d="M 339 154 289 165"/>
<path stroke-width="1" stroke="black" d="M 339 154 306 129"/>
<path stroke-width="1" stroke="black" d="M 339 154 253 127"/>
<path stroke-width="1" stroke="black" d="M 339 154 264 192"/>
<path stroke-width="1" stroke="black" d="M 339 154 363 130"/>
<path stroke-width="1" stroke="black" d="M 339 154 270 108"/>
<path stroke-width="1" stroke="black" d="M 339 154 345 112"/>
<path stroke-width="1" stroke="black" d="M 339 154 329 184"/>
<path stroke-width="1" stroke="black" d="M 275 162 276 95"/>
<path stroke-width="1" stroke="black" d="M 275 162 366 157"/>
<path stroke-width="1" stroke="black" d="M 275 162 286 182"/>
<path stroke-width="1" stroke="black" d="M 275 162 339 154"/>
<path stroke-width="1" stroke="black" d="M 275 162 345 112"/>
<path stroke-width="1" stroke="black" d="M 275 162 279 175"/>
<path stroke-width="1" stroke="black" d="M 275 162 289 165"/>
<path stroke-width="1" stroke="black" d="M 275 162 306 129"/>
<path stroke-width="1" stroke="black" d="M 275 162 253 127"/>
<path stroke-width="1" stroke="black" d="M 275 162 252 190"/>
<path stroke-width="1" stroke="black" d="M 275 162 264 192"/>
<path stroke-width="1" stroke="black" d="M 275 162 270 108"/>
<path stroke-width="1" stroke="black" d="M 275 162 329 184"/>
<path stroke-width="1" stroke="black" d="M 275 162 295 101"/>
<path stroke-width="1" stroke="black" d="M 275 162 242 140"/>
<path stroke-width="1" stroke="black" d="M 275 162 371 137"/>
<path stroke-width="1" stroke="black" d="M 275 162 316 91"/>
<path stroke-width="1" stroke="black" d="M 275 162 344 192"/>
<path stroke-width="1" stroke="black" d="M 275 162 363 130"/>
<path stroke-width="1" stroke="black" d="M 339 154 295 101"/>
<path stroke-width="1" stroke="black" d="M 339 154 242 140"/>
<path stroke-width="1" stroke="black" d="M 339 154 371 137"/>
<path stroke-width="1" stroke="black" d="M 345 112 270 108"/>
<path stroke-width="1" stroke="black" d="M 345 112 329 184"/>
<path stroke-width="1" stroke="black" d="M 345 112 295 101"/>
<path stroke-width="1" stroke="black" d="M 345 112 242 140"/>
<path stroke-width="1" stroke="black" d="M 345 112 371 137"/>
<path stroke-width="1" stroke="black" d="M 345 112 316 91"/>
<path stroke-width="1" stroke="black" d="M 345 112 344 192"/>
<path stroke-width="1" stroke="black" d="M 345 112 363 130"/>
<path stroke-width="1" stroke="black" d="M 345 112 366 157"/>
<path stroke-width="1" stroke="black" d="M 345 112 276 95"/>
<path stroke-width="1" stroke="black" d="M 345 112 335 91"/>
<path stroke-width="1" stroke="black" d="M 345 112 328 87"/>
<path stroke-width="1" stroke="black" d="M 345 112 345 205"/>
<path stroke-width="1" stroke="black" d="M 345 112 315 221"/>
<path stroke-width="1" stroke="black" d="M 345 112 312 222"/>
<path stroke-width="1" stroke="black" d="M 345 112 195 103"/>
<path stroke-width="1" stroke="black" d="M 345 112 252 190"/>
<path stroke-width="1" stroke="black" d="M 345 112 264 192"/>
<path stroke-width="1" stroke="black" d="M 345 112 253 127"/>
<path stroke-width="1" stroke="black" d="M 345 112 306 129"/>
<path stroke-width="1" stroke="black" d="M 339 154 316 91"/>
<path stroke-width="1" stroke="black" d="M 339 154 344 192"/>
<path stroke-width="1" stroke="black" d="M 339 154 366 157"/>
<path stroke-width="1" stroke="black" d="M 339 154 252 190"/>
<path stroke-width="1" stroke="black" d="M 339 154 276 95"/>
<path stroke-width="1" stroke="black" d="M 339 154 335 91"/>
<path stroke-width="1" stroke="black" d="M 339 154 328 87"/>
<path stroke-width="1" stroke="black" d="M 339 154 345 205"/>
<path stroke-width="1" stroke="black" d="M 339 154 315 221"/>
<path stroke-width="1" stroke="black" d="M 339 154 312 222"/>
<path stroke-width="1" stroke="black" d="M 339 154 195 103"/>
<path stroke-width="1" stroke="black" d="M 362 87 345 112"/>
<path stroke-width="1" stroke="black" d="M 345 112 275 162"/>
<path stroke-width="1" stroke="black" d="M 345 112 339 154"/>
<path stroke-width="1" stroke="black" d="M 345 112 362 87"/>
<path stroke-width="1" stroke="black" d="M 345 112 279 175"/>
<path stroke-width="1" stroke="black" d="M 345 112 289 165"/>
<path stroke-width="1" stroke="black" d="M 253 127 339 154"/>
<path stroke-width="1" stroke="black" d="M 195 103 335 91"/>
<path stroke-width="1" stroke="black" d="M 253 127 345 112"/>
<path stroke-width="1" stroke="black" d="M 253 127 289 165"/>
<path stroke-width="1" stroke="black" d="M 329 184 345 112"/>
<path stroke-width="1" stroke="black" d="M 329 184 279 175"/>
<path stroke-width="1" stroke="black" d="M 329 184 289 165"/>
<path stroke-width="1" stroke="black" d="M 329 184 306 129"/>
<path stroke-width="1" stroke="black" d="M 329 184 253 127"/>
<path stroke-width="1" stroke="black" d="M 329 184 264 192"/>
<path stroke-width="1" stroke="black" d="M 329 184 363 130"/>
<path stroke-width="1" stroke="black" d="M 329 184 339 154"/>
<path stroke-width="1" stroke="black" d="M 329 184 270 108"/>
<path stroke-width="1" stroke="black" d="M 329 184 295 101"/>
<path stroke-width="1" stroke="black" d="M 329 184 242 140"/>
<path stroke-width="1" stroke="black" d="M 329 184 371 137"/>
<path stroke-width="1" stroke="black" d="M 329 184 316 91"/>
<path stroke-width="1" stroke="black" d="M 329 184 344 192"/>
<path stroke-width="1" stroke="black" d="M 329 184 366 157"/>
<path stroke-width="1" stroke="black" d="M 329 184 252 190"/>
<path stroke-width="1" stroke="black" d="M 329 184 341 214"/>
<path stroke-width="1" stroke="black" d="M 329 184 276 95"/>
<path stroke-width="1" stroke="black" d="M 329 184 275 162"/>
<path stroke-width="1" stroke="black" d="M 270 108 195 103"/>
<path stroke-width="1" stroke="black" d="M 270 108 363 130"/>
<path stroke-width="1" stroke="black" d="M 270 108 252 78"/>
<path stroke-width="1" stroke="black" d="M 270 108 329 184"/>
<path stroke-width="1" stroke="black" d="M 270 108 295 101"/>
<path stroke-width="1" stroke="black" d="M 270 108 242 140"/>
<path stroke-width="1" stroke="black" d="M 270 108 371 137"/>
<path stroke-width="1" stroke="black" d="M 270 108 316 91"/>
<path stroke-width="1" stroke="black" d="M 341 214 329 184"/>
<path stroke-width="1" stroke="black" d="M 270 108 344 192"/>
<path stroke-width="1" stroke="black" d="M 270 108 252 190"/>
<path stroke-width="1" stroke="black" d="M 270 108 276 95"/>
<path stroke-width="1" stroke="black" d="M 270 108 335 91"/>
<path stroke-width="1" stroke="black" d="M 270 108 328 87"/>
<path stroke-width="1" stroke="black" d="M 270 108 345 205"/>
<path stroke-width="1" stroke="black" d="M 270 108 315 221"/>
<path stroke-width="1" stroke="black" d="M 270 108 312 222"/>
<path stroke-width="1" stroke="black" d="M 270 108 366 157"/>
<path stroke-width="1" stroke="black" d="M 270 108 264 192"/>
<path stroke-width="1" stroke="black" d="M 329 184 335 91"/>
<path stroke-width="1" stroke="black" d="M 329 184 345 205"/>
<path stroke-width="1" stroke="black" d="M 295 101 366 157"/>
<path stroke-width="1" stroke="black" d="M 295 101 252 190"/>
<path stroke-width="1" stroke="black" d="M 295 101 276 95"/>
<path stroke-width="1" stroke="black" d="M 295 101 335 91"/>
<path stroke-width="1" stroke="black" d="M 295 101 328 87"/>
<path stroke-width="1" stroke="black" d="M 295 101 345 205"/>
<path stroke-width="1" stroke="black" d="M 295 101 315 221"/>
<path stroke-width="1" stroke="black" d="M 295 101 344 192"/>
<path stroke-width="1" stroke="black" d="M 295 101 312 222"/>
<path stroke-width="1" stroke="black" d="M 200 132 242 140"/>
<path stroke-width="1" stroke="black" d="M 242 140 275 162"/>
<path stroke-width="1" stroke="black" d="M 242 140 339 154"/>
<path stroke-width="1" stroke="black" d="M 242 140 345 112"/>
<path stroke-width="1" stroke="black" d="M 242 140 279 175"/>
<path stroke-width="1" stroke="black" d="M 242 140 289 165"/>
<path stroke-width="1" stroke="black" d="M 242 140 306 129"/>
<path stroke-width="1" stroke="black" d="M 295 101 195 103"/>
<path stroke-width="1" stroke="black" d="M 329 184 328 87"/>
<path stroke-width="1" stroke="black" d="M 295 101 316 91"/>
<path stroke-width="1" stroke="black" d="M 295 101 242 140"/>
<path stroke-width="1" stroke="black" d="M 329 184 315 221"/>
<path stroke-width="1" stroke="black" d="M 329 184 312 222"/>
<path stroke-width="1" stroke="black" d="M 329 184 195 103"/>
<path stroke-width="1" stroke="black" d="M 294 65 295 101"/>
<path stroke-width="1" stroke="black" d="M 295 101 275 162"/>
<path stroke-width="1" stroke="black" d="M 295 101 339 154"/>
<path stroke-width="1" stroke="black" d="M 295 101 345 112"/>
<path stroke-width="1" stroke="black" d="M 295 101 371 137"/>
<path stroke-width="1" stroke="black" d="M 295 101 279 175"/>
<path stroke-width="1" stroke="black" d="M 295 101 306 129"/>
<path stroke-width="1" stroke="black" d="M 295 101 253 127"/>
<path stroke-width="1" stroke="black" d="M 295 101 264 192"/>
<path stroke-width="1" stroke="black" d="M 295 101 363 130"/>
<path stroke-width="1" stroke="black" d="M 295 101 270 108"/>
<path stroke-width="1" stroke="black" d="M 295 101 329 184"/>
<path stroke-width="1" stroke="black" d="M 295 101 294 65"/>
<path stroke-width="1" stroke="black" d="M 295 101 289 165"/>
<path stroke-width="1" stroke="black" d="M 270 108 253 127"/>
<path stroke-width="1" stroke="black" d="M 270 108 306 129"/>
<path stroke-width="1" stroke="black" d="M 270 108 289 165"/>
<path stroke-width="1" stroke="black" d="M 248 220 264 192"/>
<path stroke-width="1" stroke="black" d="M 264 192 275 162"/>
<path stroke-width="1" stroke="black" d="M 264 192 339 154"/>
<path stroke-width="1" stroke="black" d="M 264 192 345 112"/>
<path stroke-width="1" stroke="black" d="M 264 192 279 175"/>
<path stroke-width="1" stroke="black" d="M 264 192 289 165"/>
<path stroke-width="1" stroke="black" d="M 264 192 306 129"/>
<path stroke-width="1" stroke="black" d="M 253 127 195 103"/>
<path stroke-width="1" stroke="black" d="M 264 192 253 127"/>
<path stroke-width="1" stroke="black" d="M 264 192 363 130"/>
<path stroke-width="1" stroke="black" d="M 264 192 270 108"/>
<path stroke-width="1" stroke="black" d="M 264 192 329 184"/>
<path stroke-width="1" stroke="black" d="M 264 192 295 101"/>
<path stroke-width="1" stroke="black" d="M 264 192 242 140"/>
<path stroke-width="1" stroke="black" d="M 264 192 371 137"/>
<path stroke-width="1" stroke="black" d="M 264 192 316 91"/>
<path stroke-width="1" stroke="black" d="M 264 192 248 220"/>
<path stroke-width="1" stroke="black" d="M 264 192 344 192"/>
<path stroke-width="1" stroke="black" d="M 253 127 312 222"/>
<path stroke-width="1" stroke="black" d="M 253 127 345 205"/>
<path stroke-width="1" stroke="black" d="M 253 127 306 129"/>
<path stroke-width="1" stroke="black" d="M 253 127 227 107"/>
<path stroke-width="1" stroke="black" d="M 253 127 264 192"/>
<path stroke-width="1" stroke="black" d="M 253 127 363 130"/>
<path stroke-width="1" stroke="black" d="M 253 127 270 108"/>
<path stroke-width="1" stroke="black" d="M 253 127 329 184"/>
<path stroke-width="1" stroke="black" d="M 253 127 295 101"/>
<path stroke-width="1" stroke="black" d="M 253 127 315 221"/>
<path stroke-width="1" stroke="black" d="M 253 127 242 140"/>
<path stroke-width="1" stroke="black" d="M 253 127 316 91"/>
<path stroke-width="1" stroke="black" d="M 253 127 344 192"/>
<path stroke-width="1" stroke="black" d="M 253 127 366 157"/>
<path stroke-width="1" stroke="black" d="M 253 127 252 190"/>
<path stroke-width="1" stroke="black" d="M 253 127 276 95"/>
<path stroke-width="1" stroke="black" d="M 253 127 335 91"/>
<path stroke-width="1" stroke="black" d="M 253 127 328 87"/>
<path stroke-width="1" stroke="black" d="M 253 127 371 137"/>
<path stroke-width="1" stroke="black" d="M 264 192 366 157"/>
<path stroke-width="1" stroke="black" d="M 264 192 252 190"/>
<path stroke-width="1" stroke="black" d="M 264 192 276 95"/>
<path stroke-width="1" stroke="black" d="M 363 130 316 91"/>
<path stroke-width="1" stroke="black" d="M 363 130 344 192"/>
<path stroke-width="1" stroke="black" d="M 363 130 366 157"/>
<path stroke-width="1" stroke="black" d="M 363 130 252 190"/>
<path stroke-width="1" stroke="black" d="M 363 130 276 95"/>
<path stroke-width="1" stroke="black" d="M 363 130 335 91"/>
<path stroke-width="1" stroke="black" d="M 363 130 328 87"/>
<path stroke-width="1" stroke="black" d="M 363 130 371 137"/>
<path stroke-width="1" stroke="black" d="M 363 130 345 205"/>
<path stroke-width="1" stroke="black" d="M 363 130 312 222"/>
<path stroke-width="1" stroke="black" d="M 363 130 195 103"/>
<path stroke-width="1" stroke="black" d="M 252 78 270 108"/>
<path stroke-width="1" stroke="black" d="M 270 108 275 162"/>
<path stroke-width="1" stroke="black" d="M 270 108 339 154"/>
<path stroke-width="1" stroke="black" d="M 270 108 345 112"/>
<path stroke-width="1" stroke="black" d="M 270 108 279 175"/>
<path stroke-width="1" stroke="black" d="M 363 130 315 221"/>
<path stroke-width="1" stroke="black" d="M 363 130 242 140"/>
<path stroke-width="1" stroke="black" d="M 363 130 295 101"/>
<path stroke-width="1" stroke="black" d="M 363 130 329 184"/>
<path stroke-width="1" stroke="black" d="M 264 192 335 91"/>
<path stroke-width="1" stroke="black" d="M 264 192 328 87"/>
<path stroke-width="1" stroke="black" d="M 264 192 345 205"/>
<path stroke-width="1" stroke="black" d="M 264 192 315 221"/>
<path stroke-width="1" stroke="black" d="M 264 192 312 222"/>
<path stroke-width="1" stroke="black" d="M 264 192 195 103"/>
<path stroke-width="1" stroke="black" d="M 398 114 363 130"/>
<path stroke-width="1" stroke="black" d="M 363 130 275 162"/>
<path stroke-width="1" stroke="black" d="M 363 130 339 154"/>
<path stroke-width="1" stroke="black" d="M 363 130 345 112"/>
<path stroke-width="1" stroke="black" d="M 363 130 279 175"/>
<path stroke-width="1" stroke="black" d="M 363 130 289 165"/>
<path stroke-width="1" stroke="black" d="M 363 130 306 129"/>
<path stroke-width="1" stroke="black" d="M 363 130 253 127"/>
<path stroke-width="1" stroke="black" d="M 363 130 264 192"/>
<path stroke-width="1" stroke="black" d="M 363 130 398 114"/>
<path stroke-width="1" stroke="black" d="M 363 130 270 108"/>
<path stroke-width="1" stroke="black" d="M 253 127 279 175"/>
<path stroke-width="1" stroke="black" d="M 195 103 20 20"/>
<circle cx="286" cy="182" r="7.0" style="fill:green;stroke:black;stroke-width:1.0"/>
<circle cx="275" cy="162" r="7.0" style="fill:green;stroke:black;stroke-width:1.0"/>
<circle cx="367" cy="157" r="7.0" style="fill:brown;stroke:black;stroke-width:1.0"/>
<circle cx="339" cy="154" r="7.0" style="fill:brown;stroke:black;stroke-width:1.0"/>
<circle cx="362" cy="87" r="7.0" style="fill:aqua;stroke:black;stroke-width:1.0"/>
<circle cx="345" cy="112" r="7.0" style="fill:aqua;stroke:black;stroke-width:1.0"/>
<circle cx="267" cy="200" r="7.0" style="fill:olive;stroke:black;stroke-width:1.0"/>
<circle cx="279" cy="175" r="7.0" style="fill:olive;stroke:black;stroke-width:1.0"/>
<circle cx="279" cy="187" r="7.0" style="fill:fuchsia;stroke:black;stroke-width:1.0"/>
<circle cx="289" cy="165" r="7.0" style="fill:fuchsia;stroke:black;stroke-width:1.0"/>
<circle cx="311" cy="111" r="7.0" style="fill:yellow;stroke:black;stroke-width:1.0"/>
<circle cx="306" cy="129" r="7.0" style="fill:yellow;stroke:black;stroke-width:1.0"/>
<circle cx="227" cy="107" r="7.0" style="fill:purple;stroke:black;stroke-width:1.0"/>
<circle cx="253" cy="127" r="7.0" style="fill:purple;stroke:black;stroke-width:1.0"/>
<circle cx="248" cy="220" r="7.0" style="fill:orange;stroke:black;stroke-width:1.0"/>
<circle cx="264" cy="192" r="7.0" style="fill:orange;stroke:black;stroke-width:1.0"/>
<circle cx="398" cy="114" r="7.0" style="fill:green;stroke:black;stroke-width:1.0"/>
<circle cx="363" cy="130" r="7.0" style="fill:green;stroke:black;stroke-width:1.0"/>
<circle cx="252" cy="78" r="7.0" style="fill:blue;stroke:black;stroke-width:1.0"/>
<circle cx="270" cy="108" r="7.0" style="fill:blue;stroke:black;stroke-width:1.0"/>
<circle cx="341" cy="214" r="7.0" style="fill:red;stroke:black;stroke-width:1.0"/>
<circle cx="329" cy="184" r="7.0" style="fill:red;stroke:black;stroke-width:1.0"/>
<circle cx="294" cy="65" r="7.0" style="fill:blue;stroke:black;stroke-width:1.0"/>
<circle cx="295" cy="101" r="7.0" style="fill:blue;stroke:black;stroke-width:1.0"/>
<circle cx="200" cy="132" r="7.0" style="fill:brown;stroke:black;stroke-width:1.0"/>
<circle cx="242" cy="140" r="7.0" style="fill:brown;stroke:black;stroke-width:1.0"/>
<circle cx="417" cy="127" r="7.0" style="fill:aqua;stroke:black;stroke-width:1.0"/>
<circle cx="371" cy="137" r="7.0" style="fill:aqua;stroke:black;stroke-width:1.0"/>
<circle cx="322" cy="50" r="7.0" style="fill:olive;stroke:black;stroke-width:1.0"/>
<circle cx="316" cy="91" r="7.0" style="fill:olive;stroke:black;stroke-width:1.0"/>
<circle cx="363" cy="232" r="7.0" style="fill:red;stroke:black;stroke-width:1.0"/>
<circle cx="344" cy="192" r="7.0" style="fill:red;stroke:black;stroke-width:1.0"/>
<circle cx="420" cy="161" r="7.0" style="fill:fuchsia;stroke:black;stroke-width:1.0"/>
<circle cx="366" cy="157" r="7.0" style="fill:fuchsia;stroke:black;stroke-width:1.0"/>
<circle cx="232" cy="232" r="7.0" style="fill:yellow;stroke:black;stroke-width:1.0"/>
<circle cx="252" cy="190" r="7.0" style="fill:yellow;stroke:black;stroke-width:1.0"/>
<circle cx="263" cy="45" r="7.0" style="fill:red;stroke:black;stroke-width:1.0"/>
<circle cx="276" cy="95" r="7.0" style="fill:red;stroke:black;stroke-width:1.0"/>
<circle cx="351" cy="36" r="7.0" style="fill:purple;stroke:black;stroke-width:1.0"/>
<circle cx="335" cy="91" r="7.0" style="fill:purple;stroke:black;stroke-width:1.0"/>
<circle cx="336" cy="20" r="7.0" style="fill:blue;stroke:black;stroke-width:1.0"/>
<circle cx="328" cy="87" r="7.0" style="fill:blue;stroke:black;stroke-width:1.0"/>
<circle cx="356" cy="275" r="7.0" style="fill:orange;stroke:black;stroke-width:1.0"/>
<circle cx="345" cy="205" r="7.0" style="fill:orange;stroke:black;stroke-width:1.0"/>
<circle cx="321" cy="310" r="7.0" style="fill:blue;stroke:black;stroke-width:1.0"/>
<circle cx="315" cy="221" r="7.0" style="fill:blue;stroke:black;stroke-width:1.0"/>
<circle cx="320" cy="320" r="7.0" style="fill:blue;stroke:black;stroke-width:1.0"/>
<circle cx="312" cy="222" r="7.0" style="fill:blue;stroke:black;stroke-width:1.0"/>
<circle cx="20" cy="20" r="7.0" style="fill:red;stroke:black;stroke-width:1.0"/>
<circle cx="195" cy="103" r="7.0" style="fill:red;stroke:black;stroke-width:1.0"/>
</svg>
