<svg width="440" height="340" xmlns="http://www.w3.org/2000/svg">
<path stroke-width="1" stroke="black" d="M 184 320 203 236"/>
<path stroke-width="1" stroke="black" d="M 190 181 240 94"/>
<path stroke-width="1" stroke="black" d="M 190 181 203 236"/>
<path stroke-width="1" stroke="black" d="M 169 200 190 181"/>
<path stroke-width="1" stroke="black" d="M 172 105 293 227"/>
<path stroke-width="1" stroke="black" d="M 172 105 208 160"/>
<path stroke-width="1" stroke="black" d="M 172 105 190 181"/>
<path stroke-width="1" stroke="black" d="M 172 105 141 65"/>
<path stroke-width="1" stroke="black" d="M 172 105 348 164"/>
<path stroke-width="1" stroke="black" d="M 172 105 116 209"/>
<path stroke-width="1" stroke="black" d="M 172 105 107 133"/>
<path stroke-width="1" stroke="black" d="M 172 105 303 116"/>
<path stroke-width="1" stroke="black" d="M 172 105 240 94"/>
<path stroke-width="1" stroke="black" d="M 172 105 203 236"/>
<path stroke-width="1" stroke="black" d="M 141 65 172 105"/>
<path stroke-width="1" stroke="black" d="M 348 164 293 227"/>
<path stroke-width="1" stroke="black" d="M 348 164 208 160"/>
<path stroke-width="1" stroke="black" d="M 348 164 190 181"/>
<path stroke-width="1" stroke="black" d="M 348 164 172 105"/>
<path stroke-width="1" stroke="black" d="M 348 164 420 163"/>
<path stroke-width="1" stroke="black" d="M 348 164 116 209"/>
<path stroke-width="1" stroke="black" d="M 348 164 107 133"/>
<path stroke-width="1" stroke="black" d="M 348 164 303 116"/>
<path stroke-width="1" stroke="black" d="M 348 164 240 94"/>
<path stroke-width="1" stroke="black" d="M 190 181 303 116"/>
<path stroke-width="1" stroke="black" d="M 190 181 107 133"/>
<path stroke-width="1" stroke="black" d="M 190 181 116 209"/>
<path stroke-width="1" stroke="black" d="M 190 181 348 164"/>
<path stroke-width="1" stroke="black" d="M 293 227 190 181"/>
<path stroke-width="1" stroke="black" d="M 293 227 172 105"/>
<path stroke-width="1" stroke="black" d="M 293 227 348 164"/>
<path stroke-width="1" stroke="black" d="M 293 227 116 209"/>
<path stroke-width="1" stroke="black" d="M 293 227 107 133"/>
<path stroke-width="1" stroke="black" d="M 293 227 303 116"/>
<path stroke-width="1" stroke="black" d="M 293 227 240 94"/>
<path stroke-width="1" stroke="black" d="M 293 227 203 236"/>
<path stroke-width="1" stroke="black" d="M 316 250 293 227"/>
<path stroke-width="1" stroke="black" d="M 208 160 293 227"/>
<path stroke-width="1" stroke="black" d="M 208 160 246 175"/>
<path stroke-width="1" stroke="black" d="M 348 164 203 236"/>
<path stroke-width="1" stroke="black" d="M 208 160 190 181"/>
<path stroke-width="1" stroke="black" d="M 208 160 348 164"/>
<path stroke-width="1" stroke="black" d="M 208 160 116 209"/>
<path stroke-width="1" stroke="black" d="M 208 160 107 133"/>
<path stroke-width="1" stroke="black" d="M 208 160 303 116"/>
<path stroke-width="1" stroke="black" d="M 208 160 240 94"/>
<path stroke-width="1" stroke="black" d="M 208 160 203 236"/>
<path stroke-width="1" stroke="black" d="M 246 175 208 160"/>
<path stroke-width="1" stroke="black" d="M 190 181 293 227"/>
<path stroke-width="1" stroke="black" d="M 190 181 208 160"/>
<path stroke-width="1" stroke="black" d="M 190 181 169 200"/>
<path stroke-width="1" stroke="black" d="M 190 181 172 105"/>
<path stroke-width="1" stroke="black" d="M 208 160 172 105"/>
<path stroke-width="1" stroke="black" d="M 420 163 348 164"/>
<path stroke-width="1" stroke="black" d="M 116 209 293 227"/>
<path stroke-width="1" stroke="black" d="M 116 209 208 160"/>
<path stroke-width="1" stroke="black" d="M 303 116 240 94"/>
<path stroke-width="1" stroke="black" d="M 303 116 203 236"/>
<path stroke-width="1" stroke="black" d="M 370 69 303 116"/>
<path stroke-width="1" stroke="black" d="M 240 94 293 227"/>
<path stroke-width="1" stroke="black" d="M 240 94 208 160"/>
<path stroke-width="1" stroke="black" d="M 240 94 190 181"/>
<path stroke-width="1" stroke="black" d="M 240 94 172 105"/>
<path stroke-width="1" stroke="black" d="M 240 94 348 164"/>
<path stroke-width="1" stroke="black" d="M 240 94 116 209"/>
<path stroke-width="1" stroke="black" d="M 240 94 107 133"/>
<path stroke-width="1" stroke="black" d="M 240 94 303 116"/>
<path stroke-width="1" stroke="black" d="M 303 116 370 69"/>
<path stroke-width="1" stroke="black" d="M 240 94 253 20"/>
<path stroke-width="1" stroke="black" d="M 253 20 240 94"/>
<path stroke-width="1" stroke="black" d="M 203 236 293 227"/>
<path stroke-width="1" stroke="black" d="M 203 236 208 160"/>
<path stroke-width="1" stroke="black" d="M 203 236 190 181"/>
<path stroke-width="1" stroke="black" d="M 203 236 172 105"/>
<path stroke-width="1" stroke="black" d="M 203 236 348 164"/>
<path stroke-width="1" stroke="black" d="M 203 236 116 209"/>
<path stroke-width="1" stroke="black" d="M 203 236 107 133"/>
<path stroke-width="1" stroke="black" d="M 203 236 303 116"/>
<path stroke-width="1" stroke="black" d="M 203 236 240 94"/>
<path stroke-width="1" stroke="black" d="M 203 236 184 320"/>
<path stroke-width="1" stroke="black" d="M 240 94 203 236"/>
<path stroke-width="1" stroke="black" d="M 293 227 208 160"/>
<path stroke-width="1" stroke="black" d="M 303 116 107 133"/>
<path stroke-width="1" stroke="black" d="M 303 116 348 164"/>
<path stroke-width="1" stroke="black" d="M 116 209 190 181"/>
<path stroke-width="1" stroke="black" d="M 116 209 172 105"/>
<path stroke-width="1" stroke="black" d="M 116 209 348 164"/>
<path stroke-width="1" stroke="black" d="M 116 209 47 243"/>
<path stroke-width="1" stroke="black" d="M 116 209 107 133"/>
<path stroke-width="1" stroke="black" d="M 116 209 303 116"/>
<path stroke-width="1" stroke="black" d="M 116 209 240 94"/>
<path stroke-width="1" stroke="black" d="M 116 209 203 236"/>
<path stroke-width="1" stroke="black" d="M 47 243 116 209"/>
<path stroke-width="1" stroke="black" d="M 107 133 293 227"/>
<path stroke-width="1" stroke="black" d="M 107 133 208 160"/>
<path stroke-width="1" stroke="black" d="M 303 116 116 209"/>
<path stroke-width="1" stroke="black" d="M 107 133 190 181"/>
<path stroke-width="1" stroke="black" d="M 107 133 348 164"/>
<path stroke-width="1" stroke="black" d="M 107 133 116 209"/>
<path stroke-width="1" stroke="black" d="M 107 133 20 107"/>
<path stroke-width="1" stroke="black" d="M 107 133 303 116"/>
<path stroke-width="1" stroke="black" d="M 107 133 240 94"/>
<path stroke-width="1" stroke="black" d="M 107 133 203 236"/>
<path stroke-width="1" stroke="black" d="M 20 107 107 133"/>
<path stroke-width="1" stroke="black" d="M 303 116 293 227"/>
<path stroke-width="1" stroke="black" d="M 303 116 208 160"/>
<path stroke-width="1" stroke="black" d="M 303 116 190 181"/>
<path stroke-width="1" stroke="black" d="M 303 116 172 105"/>
<path stroke-width="1" stroke="black" d="M 107 133 172 105"/>
<path stroke-width="1" stroke="black" d="M 293 227 316 250"/>
<circle cx="184" cy="320" r="7.0" style="fill:orange;stroke:black;stroke-width:1.0"/>
<circle cx="203" cy="236" r="7.0" style="fill:orange;stroke:black;stroke-width:1.0"/>
<circle cx="253" cy="20" r="7.0" style="fill:orange;stroke:black;stroke-width:1.0"/>
<circle cx="240" cy="94" r="7.0" style="fill:orange;stroke:black;stroke-width:1.0"/>
<circle cx="370" cy="69" r="7.0" style="fill:orange;stroke:black;stroke-width:1.0"/>
<circle cx="303" cy="116" r="7.0" style="fill:orange;stroke:black;stroke-width:1.0"/>
<circle cx="20" cy="107" r="7.0" style="fill:green;stroke:black;stroke-width:1.0"/>
<circle cx="107" cy="133" r="7.0" style="fill:green;stroke:black;stroke-width:1.0"/>
<circle cx="47" cy="243" r="7.0" style="fill:orange;stroke:black;stroke-width:1.0"/>
<circle cx="116" cy="209" r="7.0" style="fill:orange;stroke:black;stroke-width:1.0"/>
<circle cx="420" cy="163" r="7.0" style="fill:purple;stroke:black;stroke-width:1.0"/>
<circle cx="348" cy="164" r="7.0" style="fill:purple;stroke:black;stroke-width:1.0"/>
<circle cx="141" cy="65" r="7.0" style="fill:orange;stroke:black;stroke-width:1.0"/>
<circle cx="172" cy="105" r="7.0" style="fill:orange;stroke:black;stroke-width:1.0"/>
<circle cx="169" cy="200" r="7.0" style="fill:red;stroke:black;stroke-width:1.0"/>
<circle cx="190" cy="181" r="7.0" style="fill:red;stroke:black;stroke-width:1.0"/>
<circle cx="246" cy="175" r="7.0" style="fill:orange;stroke:black;stroke-width:1.0"/>
<circle cx="208" cy="160" r="7.0" style="fill:orange;stroke:black;stroke-width:1.0"/>
<circle cx="316" cy="250" r="7.0" style="fill:blue;stroke:black;stroke-width:1.0"/>
<circle cx="293" cy="227" r="7.0" style="fill:blue;stroke:black;stroke-width:1.0"/>
</svg>
