<svg width="440" height="340" xmlns="http://www.w3.org/2000/svg">
<path stroke-width="1" stroke="black" d="M 420 160 300 174"/>
<path stroke-width="1" stroke="black" d="M 150 93 124 250"/>
<path stroke-width="1" stroke="black" d="M 150 93 300 174"/>
<path stroke-width="1" stroke="black" d="M 131 49 150 93"/>
<path stroke-width="1" stroke="black" d="M 278 225 194 188"/>
<path stroke-width="1" stroke="black" d="M 278 225 207 276"/>
<path stroke-width="1" stroke="black" d="M 278 225 150 93"/>
<path stroke-width="1" stroke="black" d="M 278 225 337 246"/>
<path stroke-width="1" stroke="black" d="M 278 225 99 133"/>
<path stroke-width="1" stroke="black" d="M 278 225 92 198"/>
<path stroke-width="1" stroke="black" d="M 278 225 215 84"/>
<path stroke-width="1" stroke="black" d="M 278 225 274 111"/>
<path stroke-width="1" stroke="black" d="M 278 225 124 250"/>
<path stroke-width="1" stroke="black" d="M 278 225 300 174"/>
<path stroke-width="1" stroke="black" d="M 337 246 278 225"/>
<path stroke-width="1" stroke="black" d="M 99 133 194 188"/>
<path stroke-width="1" stroke="black" d="M 99 133 207 276"/>
<path stroke-width="1" stroke="black" d="M 99 133 150 93"/>
<path stroke-width="1" stroke="black" d="M 99 133 278 225"/>
<path stroke-width="1" stroke="black" d="M 99 133 41 105"/>
<path stroke-width="1" stroke="black" d="M 99 133 92 198"/>
<path stroke-width="1" stroke="black" d="M 99 133 215 84"/>
<path stroke-width="1" stroke="black" d="M 99 133 274 111"/>
<path stroke-width="1" stroke="black" d="M 99 133 124 250"/>
<path stroke-width="1" stroke="black" d="M 150 93 274 111"/>
<path stroke-width="1" stroke="black" d="M 150 93 215 84"/>
<path stroke-width="1" stroke="black" d="M 150 93 92 198"/>
<path stroke-width="1" stroke="black" d="M 150 93 99 133"/>
<path stroke-width="1" stroke="black" d="M 194 188 150 93"/>
<path stroke-width="1" stroke="black" d="M 194 188 278 225"/>
<path stroke-width="1" stroke="black" d="M 194 188 99 133"/>
<path stroke-width="1" stroke="black" d="M 194 188 92 198"/>
<path stroke-width="1" stroke="black" d="M 194 188 215 84"/>
<path stroke-width="1" stroke="black" d="M 194 188 274 111"/>
<path stroke-width="1" stroke="black" d="M 194 188 124 250"/>
<path stroke-width="1" stroke="black" d="M 194 188 300 174"/>
<path stroke-width="1" stroke="black" d="M 200 222 194 188"/>
<path stroke-width="1" stroke="black" d="M 207 276 194 188"/>
<path stroke-width="1" stroke="black" d="M 207 276 217 310"/>
<path stroke-width="1" stroke="black" d="M 99 133 300 174"/>
<path stroke-width="1" stroke="black" d="M 207 276 150 93"/>
<path stroke-width="1" stroke="black" d="M 207 276 99 133"/>
<path stroke-width="1" stroke="black" d="M 207 276 92 198"/>
<path stroke-width="1" stroke="black" d="M 207 276 215 84"/>
<path stroke-width="1" stroke="black" d="M 207 276 274 111"/>
<path stroke-width="1" stroke="black" d="M 207 276 124 250"/>
<path stroke-width="1" stroke="black" d="M 207 276 300 174"/>
<path stroke-width="1" stroke="black" d="M 217 310 207 276"/>
<path stroke-width="1" stroke="black" d="M 150 93 194 188"/>
<path stroke-width="1" stroke="black" d="M 150 93 207 276"/>
<path stroke-width="1" stroke="black" d="M 150 93 131 49"/>
<path stroke-width="1" stroke="black" d="M 150 93 278 225"/>
<path stroke-width="1" stroke="black" d="M 207 276 278 225"/>
<path stroke-width="1" stroke="black" d="M 41 105 99 133"/>
<path stroke-width="1" stroke="black" d="M 92 198 194 188"/>
<path stroke-width="1" stroke="black" d="M 92 198 207 276"/>
<path stroke-width="1" stroke="black" d="M 274 111 124 250"/>
<path stroke-width="1" stroke="black" d="M 274 111 300 174"/>
<path stroke-width="1" stroke="black" d="M 343 66 274 111"/>
<path stroke-width="1" stroke="black" d="M 124 250 194 188"/>
<path stroke-width="1" stroke="black" d="M 124 250 207 276"/>
<path stroke-width="1" stroke="black" d="M 124 250 150 93"/>
<path stroke-width="1" stroke="black" d="M 124 250 278 225"/>
<path stroke-width="1" stroke="black" d="M 124 250 99 133"/>
<path stroke-width="1" stroke="black" d="M 124 250 92 198"/>
<path stroke-width="1" stroke="black" d="M 124 250 215 84"/>
<path stroke-width="1" stroke="black" d="M 124 250 274 111"/>
<path stroke-width="1" stroke="black" d="M 274 111 343 66"/>
<path stroke-width="1" stroke="black" d="M 124 250 53 320"/>
<path stroke-width="1" stroke="black" d="M 53 320 124 250"/>
<path stroke-width="1" stroke="black" d="M 300 174 194 188"/>
<path stroke-width="1" stroke="black" d="M 300 174 207 276"/>
<path stroke-width="1" stroke="black" d="M 300 174 150 93"/>
<path stroke-width="1" stroke="black" d="M 300 174 278 225"/>
<path stroke-width="1" stroke="black" d="M 300 174 99 133"/>
<path stroke-width="1" stroke="black" d="M 300 174 92 198"/>
<path stroke-width="1" stroke="black" d="M 300 174 215 84"/>
<path stroke-width="1" stroke="black" d="M 300 174 274 111"/>
<path stroke-width="1" stroke="black" d="M 300 174 124 250"/>
<path stroke-width="1" stroke="black" d="M 300 174 420 160"/>
<path stroke-width="1" stroke="black" d="M 124 250 300 174"/>
<path stroke-width="1" stroke="black" d="M 194 188 207 276"/>
<path stroke-width="1" stroke="black" d="M 274 111 215 84"/>
<path stroke-width="1" stroke="black" d="M 274 111 99 133"/>
<path stroke-width="1" stroke="black" d="M 92 198 150 93"/>
<path stroke-width="1" stroke="black" d="M 92 198 278 225"/>
<path stroke-width="1" stroke="black" d="M 92 198 99 133"/>
<path stroke-width="1" stroke="black" d="M 92 198 20 204"/>
<path stroke-width="1" stroke="black" d="M 92 198 215 84"/>
<path stroke-width="1" stroke="black" d="M 92 198 274 111"/>
<path stroke-width="1" stroke="black" d="M 92 198 124 250"/>
<path stroke-width="1" stroke="black" d="M 92 198 300 174"/>
<path stroke-width="1" stroke="black" d="M 20 204 92 198"/>
<path stroke-width="1" stroke="black" d="M 215 84 194 188"/>
<path stroke-width="1" stroke="black" d="M 215 84 207 276"/>
<path stroke-width="1" stroke="black" d="M 274 111 92 198"/>
<path stroke-width="1" stroke="black" d="M 215 84 150 93"/>
<path stroke-width="1" stroke="black" d="M 215 84 99 133"/>
<path stroke-width="1" stroke="black" d="M 215 84 92 198"/>
<path stroke-width="1" stroke="black" d="M 215 84 236 20"/>
<path stroke-width="1" stroke="black" d="M 215 84 274 111"/>
<path stroke-width="1" stroke="black" d="M 215 84 124 250"/>
<path stroke-width="1" stroke="black" d="M 215 84 300 174"/>
<path stroke-width="1" stroke="black" d="M 236 20 215 84"/>
<path stroke-width="1" stroke="black" d="M 274 111 194 188"/>
<path stroke-width="1" stroke="black" d="M 274 111 207 276"/>
<path stroke-width="1" stroke="black" d="M 274 111 150 93"/>
<path stroke-width="1" stroke="black" d="M 274 111 278 225"/>
<path stroke-width="1" stroke="black" d="M 215 84 278 225"/>
<path stroke-width="1" stroke="black" d="M 194 188 200 222"/>
<circle cx="420" cy="160" r="20.0" style="fill:gray;stroke:black;stroke-width:1.0"/>
<circle cx="300" cy="174" r="20.0" style="fill:gray;stroke:black;stroke-width:1.0"/>
<circle cx="53" cy="320" r="20.0" style="fill:gray;stroke:black;stroke-width:1.0"/>
<circle cx="124" cy="250" r="20.0" style="fill:gray;stroke:black;stroke-width:1.0"/>
<circle cx="343" cy="66" r="20.0" style="fill:gray;stroke:black;stroke-width:1.0"/>
<circle cx="274" cy="111" r="20.0" style="fill:gray;stroke:black;stroke-width:1.0"/>
<circle cx="236" cy="20" r="20.0" style="fill:gray;stroke:black;stroke-width:1.0"/>
<circle cx="215" cy="84" r="20.0" style="fill:gray;stroke:black;stroke-width:1.0"/>
<circle cx="20" cy="204" r="20.0" style="fill:gray;stroke:black;stroke-width:1.0"/>
<circle cx="92" cy="198" r="20.0" style="fill:gray;stroke:black;stroke-width:1.0"/>
<circle cx="41" cy="105" r="20.0" style="fill:gray;stroke:black;stroke-width:1.0"/>
<circle cx="99" cy="133" r="20.0" style="fill:gray;stroke:black;stroke-width:1.0"/>
<circle cx="337" cy="246" r="20.0" style="fill:gray;stroke:black;stroke-width:1.0"/>
<circle cx="278" cy="225" r="20.0" style="fill:gray;stroke:black;stroke-width:1.0"/>
<circle cx="131" cy="49" r="20.0" style="fill:gray;stroke:black;stroke-width:1.0"/>
<circle cx="150" cy="93" r="20.0" style="fill:gray;stroke:black;stroke-width:1.0"/>
<circle cx="217" cy="310" r="20.0" style="fill:gray;stroke:black;stroke-width:1.0"/>
<circle cx="207" cy="276" r="20.0" style="fill:gray;stroke:black;stroke-width:1.0"/>
<circle cx="200" cy="222" r="20.0" style="fill:gray;stroke:black;stroke-width:1.0"/>
<circle cx="194" cy="188" r="20.0" style="fill:gray;stroke:black;stroke-width:1.0"/>
</svg>
