<svg width="440" height="340" xmlns="http://www.w3.org/2000/svg">
<path stroke-width="1" stroke="black" d="M 420 226 309 203"/>
<path stroke-width="1" stroke="black" d="M 140 111 119 172"/>
<path stroke-width="1" stroke="black" d="M 140 111 309 203"/>
<path stroke-width="1" stroke="black" d="M 116 94 140 111"/>
<path stroke-width="1" stroke="black" d="M 139 227 271 248"/>
<path stroke-width="1" stroke="black" d="M 139 227 257 113"/>
<path stroke-width="1" stroke="black" d="M 139 227 140 111"/>
<path stroke-width="1" stroke="black" d="M 139 227 94 256"/>
<path stroke-width="1" stroke="black" d="M 139 227 197 265"/>
<path stroke-width="1" stroke="black" d="M 139 227 212 185"/>
<path stroke-width="1" stroke="black" d="M 139 227 199 87"/>
<path stroke-width="1" stroke="black" d="M 139 227 296 157"/>
<path stroke-width="1" stroke="black" d="M 139 227 119 172"/>
<path stroke-width="1" stroke="black" d="M 139 227 309 203"/>
<path stroke-width="1" stroke="black" d="M 94 256 139 227"/>
<path stroke-width="1" stroke="black" d="M 197 265 271 248"/>
<path stroke-width="1" stroke="black" d="M 197 265 257 113"/>
<path stroke-width="1" stroke="black" d="M 197 265 140 111"/>
<path stroke-width="1" stroke="black" d="M 197 265 139 227"/>
<path stroke-width="1" stroke="black" d="M 197 265 190 320"/>
<path stroke-width="1" stroke="black" d="M 197 265 212 185"/>
<path stroke-width="1" stroke="black" d="M 197 265 199 87"/>
<path stroke-width="1" stroke="black" d="M 197 265 296 157"/>
<path stroke-width="1" stroke="black" d="M 197 265 119 172"/>
<path stroke-width="1" stroke="black" d="M 140 111 296 157"/>
<path stroke-width="1" stroke="black" d="M 140 111 199 87"/>
<path stroke-width="1" stroke="black" d="M 140 111 212 185"/>
<path stroke-width="1" stroke="black" d="M 140 111 197 265"/>
<path stroke-width="1" stroke="black" d="M 271 248 140 111"/>
<path stroke-width="1" stroke="black" d="M 271 248 139 227"/>
<path stroke-width="1" stroke="black" d="M 271 248 197 265"/>
<path stroke-width="1" stroke="black" d="M 271 248 212 185"/>
<path stroke-width="1" stroke="black" d="M 271 248 199 87"/>
<path stroke-width="1" stroke="black" d="M 271 248 296 157"/>
<path stroke-width="1" stroke="black" d="M 271 248 119 172"/>
<path stroke-width="1" stroke="black" d="M 271 248 309 203"/>
<path stroke-width="1" stroke="black" d="M 287 289 271 248"/>
<path stroke-width="1" stroke="black" d="M 257 113 271 248"/>
<path stroke-width="1" stroke="black" d="M 257 113 282 76"/>
<path stroke-width="1" stroke="black" d="M 197 265 309 203"/>
<path stroke-width="1" stroke="black" d="M 257 113 140 111"/>
<path stroke-width="1" stroke="black" d="M 257 113 197 265"/>
<path stroke-width="1" stroke="black" d="M 257 113 212 185"/>
<path stroke-width="1" stroke="black" d="M 257 113 199 87"/>
<path stroke-width="1" stroke="black" d="M 257 113 296 157"/>
<path stroke-width="1" stroke="black" d="M 257 113 119 172"/>
<path stroke-width="1" stroke="black" d="M 257 113 309 203"/>
<path stroke-width="1" stroke="black" d="M 282 76 257 113"/>
<path stroke-width="1" stroke="black" d="M 140 111 271 248"/>
<path stroke-width="1" stroke="black" d="M 140 111 257 113"/>
<path stroke-width="1" stroke="black" d="M 140 111 116 94"/>
<path stroke-width="1" stroke="black" d="M 140 111 139 227"/>
<path stroke-width="1" stroke="black" d="M 257 113 139 227"/>
<path stroke-width="1" stroke="black" d="M 190 320 197 265"/>
<path stroke-width="1" stroke="black" d="M 212 185 271 248"/>
<path stroke-width="1" stroke="black" d="M 212 185 257 113"/>
<path stroke-width="1" stroke="black" d="M 296 157 119 172"/>
<path stroke-width="1" stroke="black" d="M 296 157 309 203"/>
<path stroke-width="1" stroke="black" d="M 374 141 296 157"/>
<path stroke-width="1" stroke="black" d="M 119 172 271 248"/>
<path stroke-width="1" stroke="black" d="M 119 172 257 113"/>
<path stroke-width="1" stroke="black" d="M 119 172 140 111"/>
<path stroke-width="1" stroke="black" d="M 119 172 139 227"/>
<path stroke-width="1" stroke="black" d="M 119 172 197 265"/>
<path stroke-width="1" stroke="black" d="M 119 172 212 185"/>
<path stroke-width="1" stroke="black" d="M 119 172 199 87"/>
<path stroke-width="1" stroke="black" d="M 119 172 296 157"/>
<path stroke-width="1" stroke="black" d="M 296 157 374 141"/>
<path stroke-width="1" stroke="black" d="M 119 172 20 167"/>
<path stroke-width="1" stroke="black" d="M 20 167 119 172"/>
<path stroke-width="1" stroke="black" d="M 309 203 271 248"/>
<path stroke-width="1" stroke="black" d="M 309 203 257 113"/>
<path stroke-width="1" stroke="black" d="M 309 203 140 111"/>
<path stroke-width="1" stroke="black" d="M 309 203 139 227"/>
<path stroke-width="1" stroke="black" d="M 309 203 197 265"/>
<path stroke-width="1" stroke="black" d="M 309 203 212 185"/>
<path stroke-width="1" stroke="black" d="M 309 203 199 87"/>
<path stroke-width="1" stroke="black" d="M 309 203 296 157"/>
<path stroke-width="1" stroke="black" d="M 309 203 119 172"/>
<path stroke-width="1" stroke="black" d="M 309 203 420 226"/>
<path stroke-width="1" stroke="black" d="M 119 172 309 203"/>
<path stroke-width="1" stroke="black" d="M 271 248 257 113"/>
<path stroke-width="1" stroke="black" d="M 296 157 199 87"/>
<path stroke-width="1" stroke="black" d="M 296 157 197 265"/>
<path stroke-width="1" stroke="black" d="M 212 185 140 111"/>
<path stroke-width="1" stroke="black" d="M 212 185 139 227"/>
<path stroke-width="1" stroke="black" d="M 212 185 197 265"/>
<path stroke-width="1" stroke="black" d="M 212 185 220 154"/>
<path stroke-width="1" stroke="black" d="M 212 185 199 87"/>
<path stroke-width="1" stroke="black" d="M 212 185 296 157"/>
<path stroke-width="1" stroke="black" d="M 212 185 119 172"/>
<path stroke-width="1" stroke="black" d="M 212 185 309 203"/>
<path stroke-width="1" stroke="black" d="M 220 154 212 185"/>
<path stroke-width="1" stroke="black" d="M 199 87 271 248"/>
<path stroke-width="1" stroke="black" d="M 199 87 257 113"/>
<path stroke-width="1" stroke="black" d="M 296 157 212 185"/>
<path stroke-width="1" stroke="black" d="M 199 87 140 111"/>
<path stroke-width="1" stroke="black" d="M 199 87 197 265"/>
<path stroke-width="1" stroke="black" d="M 199 87 212 185"/>
<path stroke-width="1" stroke="black" d="M 199 87 192 20"/>
<path stroke-width="1" stroke="black" d="M 199 87 296 157"/>
<path stroke-width="1" stroke="black" d="M 199 87 119 172"/>
<path stroke-width="1" stroke="black" d="M 199 87 309 203"/>
<path stroke-width="1" stroke="black" d="M 192 20 199 87"/>
<path stroke-width="1" stroke="black" d="M 296 157 271 248"/>
<path stroke-width="1" stroke="black" d="M 296 157 257 113"/>
<path stroke-width="1" stroke="black" d="M 296 157 140 111"/>
<path stroke-width="1" stroke="black" d="M 296 157 139 227"/>
<path stroke-width="1" stroke="black" d="M 199 87 139 227"/>
<path stroke-width="1" stroke="black" d="M 271 248 287 289"/>
<circle cx="420" cy="226" r="7.0" style="fill:blue;stroke:black;stroke-width:1.0"/>
<circle cx="309" cy="203" r="7.0" style="fill:blue;stroke:black;stroke-width:1.0"/>
<circle cx="20" cy="167" r="7.0" style="fill:blue;stroke:black;stroke-width:1.0"/>
<circle cx="119" cy="172" r="7.0" style="fill:blue;stroke:black;stroke-width:1.0"/>
<circle cx="374" cy="141" r="7.0" style="fill:red;stroke:black;stroke-width:1.0"/>
<circle cx="296" cy="157" r="7.0" style="fill:red;stroke:black;stroke-width:1.0"/>
<circle cx="192" cy="20" r="7.0" style="fill:blue;stroke:black;stroke-width:1.0"/>
<circle cx="199" cy="87" r="7.0" style="fill:blue;stroke:black;stroke-width:1.0"/>
<circle cx="220" cy="154" r="7.0" style="fill:purple;stroke:black;stroke-width:1.0"/>
<circle cx="212" cy="185" r="7.0" style="fill:purple;stroke:black;stroke-width:1.0"/>
<circle cx="190" cy="320" r="7.0" style="fill:blue;stroke:black;stroke-width:1.0"/>
<circle cx="197" cy="265" r="7.0" style="fill:blue;stroke:black;stroke-width:1.0"/>
<circle cx="94" cy="256" r="7.0" style="fill:blue;stroke:black;stroke-width:1.0"/>
<circle cx="139" cy="227" r="7.0" style="fill:blue;stroke:black;stroke-width:1.0"/>
<circle cx="116" cy="94" r="7.0" style="fill:blue;stroke:black;stroke-width:1.0"/>
<circle cx="140" cy="111" r="7.0" style="fill:blue;stroke:black;stroke-width:1.0"/>
<circle cx="282" cy="76" r="7.0" style="fill:orange;stroke:black;stroke-width:1.0"/>
<circle cx="257" cy="113" r="7.0" style="fill:orange;stroke:black;stroke-width:1.0"/>
<circle cx="287" cy="289" r="7.0" style="fill:green;stroke:black;stroke-width:1.0"/>
<circle cx="271" cy="248" r="7.0" style="fill:green;stroke:black;stroke-width:1.0"/>
</svg>
