<svg width="440" height="340" xmlns="http://www.w3.org/2000/svg">
<path stroke-width="3.135135135135135" stroke="black" d="M 420 47 321 122"/>
<path stroke-width="0.5" stroke="black" d="M 327 232 188 102"/>
<path stroke-width="0.5" stroke="black" d="M 327 232 321 122"/>
<path stroke-width="16.83783783783784" stroke="black" d="M 377 261 327 232"/>
<path stroke-width="0.5" stroke="black" d="M 249 260 336 172"/>
<path stroke-width="0.5" stroke="black" d="M 249 260 154 257"/>
<path stroke-width="0.5" stroke="black" d="M 249 260 327 232"/>
<path stroke-width="14.72972972972973" stroke="black" d="M 249 260 280 320"/>
<path stroke-width="0.5" stroke="black" d="M 249 260 241 186"/>
<path stroke-width="0.5" stroke="black" d="M 249 260 134 139"/>
<path stroke-width="0.5" stroke="black" d="M 249 260 263 96"/>
<path stroke-width="0.5" stroke="black" d="M 249 260 124 195"/>
<path stroke-width="0.5" stroke="black" d="M 249 260 188 102"/>
<path stroke-width="0.5" stroke="black" d="M 249 260 321 122"/>
<path stroke-width="14.72972972972973" stroke="black" d="M 280 320 249 260"/>
<path stroke-width="0.5" stroke="black" d="M 241 186 336 172"/>
<path stroke-width="0.5" stroke="black" d="M 241 186 154 257"/>
<path stroke-width="0.5" stroke="black" d="M 241 186 327 232"/>
<path stroke-width="0.5" stroke="black" d="M 241 186 249 260"/>
<path stroke-width="12.621621621621621" stroke="black" d="M 241 186 203 208"/>
<path stroke-width="0.5" stroke="black" d="M 241 186 134 139"/>
<path stroke-width="0.5" stroke="black" d="M 241 186 263 96"/>
<path stroke-width="0.5" stroke="black" d="M 241 186 124 195"/>
<path stroke-width="0.5" stroke="black" d="M 241 186 188 102"/>
<path stroke-width="0.5" stroke="black" d="M 327 232 124 195"/>
<path stroke-width="0.5" stroke="black" d="M 327 232 263 96"/>
<path stroke-width="0.5" stroke="black" d="M 327 232 134 139"/>
<path stroke-width="0.5" stroke="black" d="M 327 232 241 186"/>
<path stroke-width="0.5" stroke="black" d="M 336 172 327 232"/>
<path stroke-width="0.5" stroke="black" d="M 336 172 249 260"/>
<path stroke-width="0.5" stroke="black" d="M 336 172 241 186"/>
<path stroke-width="0.5" stroke="black" d="M 336 172 134 139"/>
<path stroke-width="0.5" stroke="black" d="M 336 172 263 96"/>
<path stroke-width="0.5" stroke="black" d="M 336 172 124 195"/>
<path stroke-width="0.5" stroke="black" d="M 336 172 188 102"/>
<path stroke-width="0.5" stroke="black" d="M 336 172 321 122"/>
<path stroke-width="20.0" stroke="black" d="M 407 178 336 172"/>
<path stroke-width="0.5" stroke="black" d="M 154 257 336 172"/>
<path stroke-width="17.89189189189189" stroke="black" d="M 154 257 133 281"/>
<path stroke-width="0.5" stroke="black" d="M 241 186 321 122"/>
<path stroke-width="0.5" stroke="black" d="M 154 257 327 232"/>
<path stroke-width="0.5" stroke="black" d="M 154 257 241 186"/>
<path stroke-width="0.5" stroke="black" d="M 154 257 134 139"/>
<path stroke-width="0.5" stroke="black" d="M 154 257 263 96"/>
<path stroke-width="0.5" stroke="black" d="M 154 257 124 195"/>
<path stroke-width="0.5" stroke="black" d="M 154 257 188 102"/>
<path stroke-width="0.5" stroke="black" d="M 154 257 321 122"/>
<path stroke-width="17.89189189189189" stroke="black" d="M 133 281 154 257"/>
<path stroke-width="0.5" stroke="black" d="M 327 232 336 172"/>
<path stroke-width="0.5" stroke="black" d="M 327 232 154 257"/>
<path stroke-width="16.83783783783784" stroke="black" d="M 327 232 377 261"/>
<path stroke-width="0.5" stroke="black" d="M 327 232 249 260"/>
<path stroke-width="0.5" stroke="black" d="M 154 257 249 260"/>
<path stroke-width="12.621621621621621" stroke="black" d="M 203 208 241 186"/>
<path stroke-width="0.5" stroke="black" d="M 134 139 336 172"/>
<path stroke-width="0.5" stroke="black" d="M 134 139 154 257"/>
<path stroke-width="0.5" stroke="black" d="M 124 195 188 102"/>
<path stroke-width="0.5" stroke="black" d="M 124 195 321 122"/>
<path stroke-width="6.297297297297297" stroke="black" d="M 20 211 124 195"/>
<path stroke-width="0.5" stroke="black" d="M 188 102 336 172"/>
<path stroke-width="0.5" stroke="black" d="M 188 102 154 257"/>
<path stroke-width="0.5" stroke="black" d="M 188 102 327 232"/>
<path stroke-width="0.5" stroke="black" d="M 188 102 249 260"/>
<path stroke-width="0.5" stroke="black" d="M 188 102 241 186"/>
<path stroke-width="0.5" stroke="black" d="M 188 102 134 139"/>
<path stroke-width="0.5" stroke="black" d="M 188 102 263 96"/>
<path stroke-width="0.5" stroke="black" d="M 188 102 124 195"/>
<path stroke-width="6.297297297297297" stroke="black" d="M 124 195 20 211"/>
<path stroke-width="4.1891891891891895" stroke="black" d="M 188 102 128 20"/>
<path stroke-width="4.1891891891891895" stroke="black" d="M 128 20 188 102"/>
<path stroke-width="0.5" stroke="black" d="M 321 122 336 172"/>
<path stroke-width="0.5" stroke="black" d="M 321 122 154 257"/>
<path stroke-width="0.5" stroke="black" d="M 321 122 327 232"/>
<path stroke-width="0.5" stroke="black" d="M 321 122 249 260"/>
<path stroke-width="0.5" stroke="black" d="M 321 122 241 186"/>
<path stroke-width="0.5" stroke="black" d="M 321 122 134 139"/>
<path stroke-width="0.5" stroke="black" d="M 321 122 263 96"/>
<path stroke-width="0.5" stroke="black" d="M 321 122 124 195"/>
<path stroke-width="0.5" stroke="black" d="M 321 122 188 102"/>
<path stroke-width="3.135135135135135" stroke="black" d="M 321 122 420 47"/>
<path stroke-width="0.5" stroke="black" d="M 188 102 321 122"/>
<path stroke-width="0.5" stroke="black" d="M 336 172 154 257"/>
<path stroke-width="0.5" stroke="black" d="M 124 195 263 96"/>
<path stroke-width="0.5" stroke="black" d="M 124 195 241 186"/>
<path stroke-width="0.5" stroke="black" d="M 134 139 327 232"/>
<path stroke-width="0.5" stroke="black" d="M 134 139 249 260"/>
<path stroke-width="0.5" stroke="black" d="M 134 139 241 186"/>
<path stroke-width="10.513513513513514" stroke="black" d="M 134 139 57 111"/>
<path stroke-width="0.5" stroke="black" d="M 134 139 263 96"/>
<path stroke-width="0.5" stroke="black" d="M 134 139 124 195"/>
<path stroke-width="0.5" stroke="black" d="M 134 139 188 102"/>
<path stroke-width="0.5" stroke="black" d="M 134 139 321 122"/>
<path stroke-width="10.513513513513514" stroke="black" d="M 57 111 134 139"/>
<path stroke-width="0.5" stroke="black" d="M 263 96 336 172"/>
<path stroke-width="0.5" stroke="black" d="M 263 96 154 257"/>
<path stroke-width="0.5" stroke="black" d="M 124 195 134 139"/>
<path stroke-width="0.5" stroke="black" d="M 263 96 327 232"/>
<path stroke-width="0.5" stroke="black" d="M 263 96 241 186"/>
<path stroke-width="0.5" stroke="black" d="M 263 96 134 139"/>
<path stroke-width="8.405405405405405" stroke="black" d="M 263 96 283 34"/>
<path stroke-width="0.5" stroke="black" d="M 263 96 124 195"/>
<path stroke-width="0.5" stroke="black" d="M 263 96 188 102"/>
<path stroke-width="0.5" stroke="black" d="M 263 96 321 122"/>
<path stroke-width="8.405405405405405" stroke="black" d="M 283 34 263 96"/>
<path stroke-width="0.5" stroke="black" d="M 124 195 336 172"/>
<path stroke-width="0.5" stroke="black" d="M 124 195 154 257"/>
<path stroke-width="0.5" stroke="black" d="M 124 195 327 232"/>
<path stroke-width="0.5" stroke="black" d="M 124 195 249 260"/>
<path stroke-width="0.5" stroke="black" d="M 263 96 249 260"/>
<path stroke-width="20.0" stroke="black" d="M 336 172 407 178"/>
<circle cx="420" cy="47" r="20.0" style="fill:orange;stroke:black;stroke-width:1.0"/>
<circle cx="321" cy="122" r="20.0" style="fill:orange;stroke:black;stroke-width:1.0"/>
<circle cx="128" cy="20" r="20.0" style="fill:orange;stroke:black;stroke-width:1.0"/>
<circle cx="188" cy="102" r="20.0" style="fill:orange;stroke:black;stroke-width:1.0"/>
<circle cx="20" cy="211" r="20.0" style="fill:orange;stroke:black;stroke-width:1.0"/>
<circle cx="124" cy="195" r="20.0" style="fill:orange;stroke:black;stroke-width:1.0"/>
<circle cx="283" cy="34" r="20.0" style="fill:purple;stroke:black;stroke-width:1.0"/>
<circle cx="263" cy="96" r="20.0" style="fill:purple;stroke:black;stroke-width:1.0"/>
<circle cx="57" cy="111" r="20.0" style="fill:red;stroke:black;stroke-width:1.0"/>
<circle cx="134" cy="139" r="20.0" style="fill:red;stroke:black;stroke-width:1.0"/>
<circle cx="203" cy="208" r="20.0" style="fill:orange;stroke:black;stroke-width:1.0"/>
<circle cx="241" cy="186" r="20.0" style="fill:orange;stroke:black;stroke-width:1.0"/>
<circle cx="280" cy="320" r="20.0" style="fill:blue;stroke:black;stroke-width:1.0"/>
<circle cx="249" cy="260" r="20.0" style="fill:blue;stroke:black;stroke-width:1.0"/>
<circle cx="377" cy="261" r="20.0" style="fill:green;stroke:black;stroke-width:1.0"/>
<circle cx="327" cy="232" r="20.0" style="fill:green;stroke:black;stroke-width:1.0"/>
<circle cx="133" cy="281" r="20.0" style="fill:orange;stroke:black;stroke-width:1.0"/>
<circle cx="154" cy="257" r="20.0" style="fill:orange;stroke:black;stroke-width:1.0"/>
<circle cx="407" cy="178" r="20.0" style="fill:orange;stroke:black;stroke-width:1.0"/>
<circle cx="336" cy="172" r="20.0" style="fill:orange;stroke:black;stroke-width:1.0"/>
</svg>
