<svg width="440" height="340" xmlns="http://www.w3.org/2000/svg">
<path stroke-width="8.857142857142858" stroke="black" d="M 267 29 294 27"/>
<path stroke-width="20.0" stroke="black" d="M 20 157 35 160"/>
<path stroke-width="0.5" stroke="black" d="M 35 160 90 132"/>
<path stroke-width="20.0" stroke="black" d="M 35 160 20 157"/>
<path stroke-width="0.5" stroke="black" d="M 35 160 54 198"/>
<path stroke-width="20.0" stroke="black" d="M 33 201 54 198"/>
<path stroke-width="0.5" stroke="black" d="M 54 198 35 160"/>
<path stroke-width="20.0" stroke="black" d="M 54 198 33 201"/>
<path stroke-width="0.5" stroke="black" d="M 54 198 94 235"/>
<path stroke-width="20.0" stroke="black" d="M 96 238 94 235"/>
<path stroke-width="0.5" stroke="black" d="M 94 235 54 198"/>
<path stroke-width="20.0" stroke="black" d="M 94 235 96 238"/>
<path stroke-width="0.5" stroke="black" d="M 94 235 127 274"/>
<path stroke-width="20.0" stroke="black" d="M 142 274 127 274"/>
<path stroke-width="0.5" stroke="black" d="M 127 274 94 235"/>
<path stroke-width="20.0" stroke="black" d="M 127 274 142 274"/>
<path stroke-width="0.5" stroke="black" d="M 127 274 156 307"/>
<path stroke-width="20.0" stroke="black" d="M 160 320 156 307"/>
<path stroke-width="0.5" stroke="black" d="M 156 307 127 274"/>
<path stroke-width="20.0" stroke="black" d="M 156 307 160 320"/>
<path stroke-width="0.5" stroke="black" d="M 156 307 205 303"/>
<path stroke-width="20.0" stroke="black" d="M 194 307 205 303"/>
<path stroke-width="0.5" stroke="black" d="M 205 303 156 307"/>
<path stroke-width="20.0" stroke="black" d="M 205 303 194 307"/>
<path stroke-width="0.5" stroke="black" d="M 205 303 244 287"/>
<path stroke-width="14.428571428571429" stroke="black" d="M 258 280 244 287"/>
<path stroke-width="0.5" stroke="black" d="M 90 132 35 160"/>
<path stroke-width="20.0" stroke="black" d="M 90 132 73 125"/>
<path stroke-width="0.5" stroke="black" d="M 90 132 177 120"/>
<path stroke-width="20.0" stroke="black" d="M 73 125 90 132"/>
<path stroke-width="8.857142857142858" stroke="black" d="M 294 27 267 29"/>
<path stroke-width="0.5" stroke="black" d="M 294 27 352 24"/>
<path stroke-width="20.0" stroke="black" d="M 368 23 352 24"/>
<path stroke-width="0.5" stroke="black" d="M 352 24 294 27"/>
<path stroke-width="20.0" stroke="black" d="M 352 24 368 23"/>
<path stroke-width="0.5" stroke="black" d="M 352 24 407 28"/>
<path stroke-width="20.0" stroke="black" d="M 420 20 407 28"/>
<path stroke-width="0.5" stroke="black" d="M 407 28 352 24"/>
<path stroke-width="20.0" stroke="black" d="M 407 28 420 20"/>
<path stroke-width="0.5" stroke="black" d="M 407 28 387 59"/>
<path stroke-width="20.0" stroke="black" d="M 377 55 387 59"/>
<path stroke-width="0.5" stroke="black" d="M 387 59 407 28"/>
<path stroke-width="0.5" stroke="black" d="M 244 287 205 303"/>
<path stroke-width="20.0" stroke="black" d="M 387 59 377 55"/>
<path stroke-width="20.0" stroke="black" d="M 364 93 345 89"/>
<path stroke-width="0.5" stroke="black" d="M 345 89 387 59"/>
<path stroke-width="20.0" stroke="black" d="M 345 89 364 93"/>
<path stroke-width="0.5" stroke="black" d="M 345 89 268 109"/>
<path stroke-width="20.0" stroke="black" d="M 277 115 268 109"/>
<path stroke-width="0.5" stroke="black" d="M 268 109 345 89"/>
<path stroke-width="20.0" stroke="black" d="M 268 109 277 115"/>
<path stroke-width="0.5" stroke="black" d="M 268 109 177 120"/>
<path stroke-width="20.0" stroke="black" d="M 187 126 177 120"/>
<path stroke-width="0.5" stroke="black" d="M 177 120 268 109"/>
<path stroke-width="20.0" stroke="black" d="M 177 120 187 126"/>
<path stroke-width="0.5" stroke="black" d="M 177 120 90 132"/>
<path stroke-width="0.5" stroke="black" d="M 387 59 345 89"/>
<path stroke-width="14.428571428571429" stroke="black" d="M 244 287 258 280"/>
<circle cx="267" cy="29" r="7.0" style="fill:blue;stroke:black;stroke-width:1.0"/>
<circle cx="294" cy="27" r="7.0" style="fill:blue;stroke:black;stroke-width:1.0"/>
<circle cx="368" cy="23" r="7.0" style="fill:blue;stroke:black;stroke-width:1.0"/>
<circle cx="352" cy="24" r="7.0" style="fill:blue;stroke:black;stroke-width:1.0"/>
<circle cx="420" cy="20" r="7.0" style="fill:green;stroke:black;stroke-width:1.0"/>
<circle cx="407" cy="28" r="7.0" style="fill:green;stroke:black;stroke-width:1.0"/>
<circle cx="377" cy="55" r="7.0" style="fill:orange;stroke:black;stroke-width:1.0"/>
<circle cx="387" cy="59" r="7.0" style="fill:orange;stroke:black;stroke-width:1.0"/>
<circle cx="364" cy="93" r="7.0" style="fill:purple;stroke:black;stroke-width:1.0"/>
<circle cx="345" cy="89" r="7.0" style="fill:purple;stroke:black;stroke-width:1.0"/>
<circle cx="277" cy="115" r="7.0" style="fill:yellow;stroke:black;stroke-width:1.0"/>
<circle cx="268" cy="109" r="7.0" style="fill:yellow;stroke:black;stroke-width:1.0"/>
<circle cx="187" cy="126" r="7.0" style="fill:fuchsia;stroke:black;stroke-width:1.0"/>
<circle cx="177" cy="120" r="7.0" style="fill:fuchsia;stroke:black;stroke-width:1.0"/>
<circle cx="73" cy="125" r="7.0" style="fill:olive;stroke:black;stroke-width:1.0"/>
<circle cx="90" cy="132" r="7.0" style="fill:olive;stroke:black;stroke-width:1.0"/>
<circle cx="20" cy="157" r="7.0" style="fill:aqua;stroke:black;stroke-width:1.0"/>
<circle cx="35" cy="160" r="7.0" style="fill:aqua;stroke:black;stroke-width:1.0"/>
<circle cx="33" cy="201" r="7.0" style="fill:brown;stroke:black;stroke-width:1.0"/>
<circle cx="54" cy="198" r="7.0" style="fill:brown;stroke:black;stroke-width:1.0"/>
<circle cx="96" cy="238" r="7.0" style="fill:blue;stroke:black;stroke-width:1.0"/>
<circle cx="94" cy="235" r="7.0" style="fill:blue;stroke:black;stroke-width:1.0"/>
<circle cx="142" cy="274" r="7.0" style="fill:red;stroke:black;stroke-width:1.0"/>
<circle cx="127" cy="274" r="7.0" style="fill:red;stroke:black;stroke-width:1.0"/>
<circle cx="160" cy="320" r="7.0" style="fill:green;stroke:black;stroke-width:1.0"/>
<circle cx="156" cy="307" r="7.0" style="fill:green;stroke:black;stroke-width:1.0"/>
<circle cx="194" cy="307" r="7.0" style="fill:red;stroke:black;stroke-width:1.0"/>
<circle cx="205" cy="303" r="7.0" style="fill:red;stroke:black;stroke-width:1.0"/>
<circle cx="258" cy="280" r="7.0" style="fill:red;stroke:black;stroke-width:1.0"/>
<circle cx="244" cy="287" r="7.0" style="fill:red;stroke:black;stroke-width:1.0"/>
</svg>
