<svg width="440" height="340" xmlns="http://www.w3.org/2000/svg">
<path stroke-width="8.857142857142858" stroke="black" d="M 281 267 316 273"/>
<path stroke-width="20.0" stroke="black" d="M 361 189 324 188"/>
<path stroke-width="0.5" stroke="black" d="M 324 188 333 218"/>
<path stroke-width="20.0" stroke="black" d="M 324 188 361 189"/>
<path stroke-width="0.5" stroke="black" d="M 324 188 275 158"/>
<path stroke-width="20.0" stroke="black" d="M 249 160 275 158"/>
<path stroke-width="0.5" stroke="black" d="M 275 158 324 188"/>
<path stroke-width="20.0" stroke="black" d="M 275 158 249 160"/>
<path stroke-width="0.5" stroke="black" d="M 275 158 224 129"/>
<path stroke-width="20.0" stroke="black" d="M 250 127 224 129"/>
<path stroke-width="0.5" stroke="black" d="M 224 129 275 158"/>
<path stroke-width="20.0" stroke="black" d="M 224 129 250 127"/>
<path stroke-width="0.5" stroke="black" d="M 224 129 165 100"/>
<path stroke-width="20.0" stroke="black" d="M 190 97 165 100"/>
<path stroke-width="0.5" stroke="black" d="M 165 100 224 129"/>
<path stroke-width="20.0" stroke="black" d="M 165 100 190 97"/>
<path stroke-width="0.5" stroke="black" d="M 165 100 96 72"/>
<path stroke-width="20.0" stroke="black" d="M 69 69 96 72"/>
<path stroke-width="0.5" stroke="black" d="M 96 72 165 100"/>
<path stroke-width="20.0" stroke="black" d="M 96 72 69 69"/>
<path stroke-width="0.5" stroke="black" d="M 96 72 46 47"/>
<path stroke-width="20.0" stroke="black" d="M 26 42 46 47"/>
<path stroke-width="0.5" stroke="black" d="M 46 47 96 72"/>
<path stroke-width="20.0" stroke="black" d="M 46 47 26 42"/>
<path stroke-width="0.5" stroke="black" d="M 46 47 25 26"/>
<path stroke-width="14.428571428571429" stroke="black" d="M 20 20 25 26"/>
<path stroke-width="0.5" stroke="black" d="M 333 218 324 188"/>
<path stroke-width="20.0" stroke="black" d="M 333 218 375 218"/>
<path stroke-width="0.5" stroke="black" d="M 333 218 292 246"/>
<path stroke-width="20.0" stroke="black" d="M 375 218 333 218"/>
<path stroke-width="8.857142857142858" stroke="black" d="M 316 273 281 267"/>
<path stroke-width="0.5" stroke="black" d="M 316 273 383 288"/>
<path stroke-width="20.0" stroke="black" d="M 410 288 383 288"/>
<path stroke-width="0.5" stroke="black" d="M 383 288 316 273"/>
<path stroke-width="20.0" stroke="black" d="M 383 288 410 288"/>
<path stroke-width="0.5" stroke="black" d="M 383 288 400 304"/>
<path stroke-width="20.0" stroke="black" d="M 420 308 400 304"/>
<path stroke-width="0.5" stroke="black" d="M 400 304 383 288"/>
<path stroke-width="20.0" stroke="black" d="M 400 304 420 308"/>
<path stroke-width="0.5" stroke="black" d="M 400 304 319 314"/>
<path stroke-width="20.0" stroke="black" d="M 329 320 319 314"/>
<path stroke-width="0.5" stroke="black" d="M 319 314 400 304"/>
<path stroke-width="0.5" stroke="black" d="M 25 26 46 47"/>
<path stroke-width="20.0" stroke="black" d="M 319 314 329 320"/>
<path stroke-width="20.0" stroke="black" d="M 194 304 227 299"/>
<path stroke-width="0.5" stroke="black" d="M 227 299 319 314"/>
<path stroke-width="20.0" stroke="black" d="M 227 299 194 304"/>
<path stroke-width="0.5" stroke="black" d="M 227 299 217 275"/>
<path stroke-width="20.0" stroke="black" d="M 198 277 217 275"/>
<path stroke-width="0.5" stroke="black" d="M 217 275 227 299"/>
<path stroke-width="20.0" stroke="black" d="M 217 275 198 277"/>
<path stroke-width="0.5" stroke="black" d="M 217 275 292 246"/>
<path stroke-width="20.0" stroke="black" d="M 313 244 292 246"/>
<path stroke-width="0.5" stroke="black" d="M 292 246 217 275"/>
<path stroke-width="20.0" stroke="black" d="M 292 246 313 244"/>
<path stroke-width="0.5" stroke="black" d="M 292 246 333 218"/>
<path stroke-width="0.5" stroke="black" d="M 319 314 227 299"/>
<path stroke-width="14.428571428571429" stroke="black" d="M 25 26 20 20"/>
<circle cx="281" cy="267" r="7.0" style="fill:blue;stroke:black;stroke-width:1.0"/>
<circle cx="316" cy="273" r="7.0" style="fill:blue;stroke:black;stroke-width:1.0"/>
<circle cx="410" cy="288" r="7.0" style="fill:blue;stroke:black;stroke-width:1.0"/>
<circle cx="383" cy="288" r="7.0" style="fill:blue;stroke:black;stroke-width:1.0"/>
<circle cx="420" cy="308" r="7.0" style="fill:green;stroke:black;stroke-width:1.0"/>
<circle cx="400" cy="304" r="7.0" style="fill:green;stroke:black;stroke-width:1.0"/>
<circle cx="329" cy="320" r="7.0" style="fill:orange;stroke:black;stroke-width:1.0"/>
<circle cx="319" cy="314" r="7.0" style="fill:orange;stroke:black;stroke-width:1.0"/>
<circle cx="194" cy="304" r="7.0" style="fill:purple;stroke:black;stroke-width:1.0"/>
<circle cx="227" cy="299" r="7.0" style="fill:purple;stroke:black;stroke-width:1.0"/>
<circle cx="198" cy="277" r="7.0" style="fill:yellow;stroke:black;stroke-width:1.0"/>
<circle cx="217" cy="275" r="7.0" style="fill:yellow;stroke:black;stroke-width:1.0"/>
<circle cx="313" cy="244" r="7.0" style="fill:fuchsia;stroke:black;stroke-width:1.0"/>
<circle cx="292" cy="246" r="7.0" style="fill:fuchsia;stroke:black;stroke-width:1.0"/>
<circle cx="375" cy="218" r="7.0" style="fill:olive;stroke:black;stroke-width:1.0"/>
<circle cx="333" cy="218" r="7.0" style="fill:olive;stroke:black;stroke-width:1.0"/>
<circle cx="361" cy="189" r="7.0" style="fill:aqua;stroke:black;stroke-width:1.0"/>
<circle cx="324" cy="188" r="7.0" style="fill:aqua;stroke:black;stroke-width:1.0"/>
<circle cx="249" cy="160" r="7.0" style="fill:brown;stroke:black;stroke-width:1.0"/>
<circle cx="275" cy="158" r="7.0" style="fill:brown;stroke:black;stroke-width:1.0"/>
<circle cx="250" cy="127" r="7.0" style="fill:blue;stroke:black;stroke-width:1.0"/>
<circle cx="224" cy="129" r="7.0" style="fill:blue;stroke:black;stroke-width:1.0"/>
<circle cx="190" cy="97" r="7.0" style="fill:red;stroke:black;stroke-width:1.0"/>
<circle cx="165" cy="100" r="7.0" style="fill:red;stroke:black;stroke-width:1.0"/>
<circle cx="69" cy="69" r="7.0" style="fill:green;stroke:black;stroke-width:1.0"/>
<circle cx="96" cy="72" r="7.0" style="fill:green;stroke:black;stroke-width:1.0"/>
<circle cx="26" cy="42" r="7.0" style="fill:red;stroke:black;stroke-width:1.0"/>
<circle cx="46" cy="47" r="7.0" style="fill:red;stroke:black;stroke-width:1.0"/>
<circle cx="20" cy="20" r="7.0" style="fill:red;stroke:black;stroke-width:1.0"/>
<circle cx="25" cy="26" r="7.0" style="fill:red;stroke:black;stroke-width:1.0"/>
</svg>
