<svg width="440" height="340" xmlns="http://www.w3.org/2000/svg">
<path stroke-width="1" stroke="black" d="M 241 273 216 254"/>
<path stroke-width="1" stroke="black" d="M 206 170 98 224"/>
<path stroke-width="1" stroke="black" d="M 206 170 197 270"/>
<path stroke-width="1" stroke="black" d="M 206 170 124 170"/>
<path stroke-width="1" stroke="black" d="M 206 170 230 178"/>
<path stroke-width="1" stroke="black" d="M 206 170 131 277"/>
<path stroke-width="1" stroke="black" d="M 206 170 113 241"/>
<path stroke-width="1" stroke="black" d="M 206 170 125 166"/>
<path stroke-width="1" stroke="black" d="M 206 170 103 200"/>
<path stroke-width="1" stroke="black" d="M 206 170 221 261"/>
<path stroke-width="1" stroke="black" d="M 206 170 177 271"/>
<path stroke-width="1" stroke="black" d="M 206 170 247 128"/>
<path stroke-width="1" stroke="black" d="M 206 170 95 246"/>
<path stroke-width="1" stroke="black" d="M 206 170 90 205"/>
<path stroke-width="1" stroke="black" d="M 206 170 114 265"/>
<path stroke-width="1" stroke="black" d="M 206 170 116 175"/>
<path stroke-width="1" stroke="black" d="M 206 170 256 236"/>
<path stroke-width="1" stroke="black" d="M 206 170 245 204"/>
<path stroke-width="1" stroke="black" d="M 206 170 254 199"/>
<path stroke-width="1" stroke="black" d="M 206 170 215 219"/>
<path stroke-width="1" stroke="black" d="M 206 170 171 199"/>
<path stroke-width="1" stroke="black" d="M 177 271 125 166"/>
<path stroke-width="1" stroke="black" d="M 177 271 221 261"/>
<path stroke-width="1" stroke="black" d="M 177 271 245 204"/>
<path stroke-width="1" stroke="black" d="M 177 271 191 320"/>
<path stroke-width="1" stroke="black" d="M 177 271 206 170"/>
<path stroke-width="1" stroke="black" d="M 177 271 95 246"/>
<path stroke-width="1" stroke="black" d="M 177 271 90 205"/>
<path stroke-width="1" stroke="black" d="M 206 170 158 196"/>
<path stroke-width="1" stroke="black" d="M 177 271 114 265"/>
<path stroke-width="1" stroke="black" d="M 177 271 256 236"/>
<path stroke-width="1" stroke="black" d="M 177 271 254 199"/>
<path stroke-width="1" stroke="black" d="M 177 271 275 228"/>
<path stroke-width="1" stroke="black" d="M 177 271 137 141"/>
<path stroke-width="1" stroke="black" d="M 247 128 206 170"/>
<path stroke-width="1" stroke="black" d="M 206 170 216 254"/>
<path stroke-width="1" stroke="black" d="M 206 170 194 160"/>
<path stroke-width="1" stroke="black" d="M 177 271 116 175"/>
<path stroke-width="1" stroke="black" d="M 177 271 113 241"/>
<path stroke-width="1" stroke="black" d="M 206 170 275 228"/>
<path stroke-width="1" stroke="black" d="M 29 263 95 246"/>
<path stroke-width="1" stroke="black" d="M 95 246 116 175"/>
<path stroke-width="1" stroke="black" d="M 95 246 256 236"/>
<path stroke-width="1" stroke="black" d="M 95 246 254 199"/>
<path stroke-width="1" stroke="black" d="M 95 246 275 228"/>
<path stroke-width="1" stroke="black" d="M 95 246 137 141"/>
<path stroke-width="1" stroke="black" d="M 20 202 90 205"/>
<path stroke-width="1" stroke="black" d="M 90 205 216 254"/>
<path stroke-width="1" stroke="black" d="M 95 246 114 265"/>
<path stroke-width="1" stroke="black" d="M 90 205 194 160"/>
<path stroke-width="1" stroke="black" d="M 90 205 158 196"/>
<path stroke-width="1" stroke="black" d="M 90 205 215 219"/>
<path stroke-width="1" stroke="black" d="M 90 205 103 200"/>
<path stroke-width="1" stroke="black" d="M 90 205 98 224"/>
<path stroke-width="1" stroke="black" d="M 90 205 197 270"/>
<path stroke-width="1" stroke="black" d="M 90 205 124 170"/>
<path stroke-width="1" stroke="black" d="M 90 205 230 178"/>
<path stroke-width="1" stroke="black" d="M 90 205 171 199"/>
<path stroke-width="1" stroke="black" d="M 206 170 137 141"/>
<path stroke-width="1" stroke="black" d="M 95 246 90 205"/>
<path stroke-width="1" stroke="black" d="M 95 246 206 170"/>
<path stroke-width="1" stroke="black" d="M 95 246 216 254"/>
<path stroke-width="1" stroke="black" d="M 95 246 194 160"/>
<path stroke-width="1" stroke="black" d="M 95 246 171 199"/>
<path stroke-width="1" stroke="black" d="M 95 246 158 196"/>
<path stroke-width="1" stroke="black" d="M 95 246 215 219"/>
<path stroke-width="1" stroke="black" d="M 95 246 103 200"/>
<path stroke-width="1" stroke="black" d="M 95 246 98 224"/>
<path stroke-width="1" stroke="black" d="M 95 246 29 263"/>
<path stroke-width="1" stroke="black" d="M 95 246 197 270"/>
<path stroke-width="1" stroke="black" d="M 95 246 230 178"/>
<path stroke-width="1" stroke="black" d="M 95 246 131 277"/>
<path stroke-width="1" stroke="black" d="M 95 246 113 241"/>
<path stroke-width="1" stroke="black" d="M 95 246 125 166"/>
<path stroke-width="1" stroke="black" d="M 95 246 221 261"/>
<path stroke-width="1" stroke="black" d="M 95 246 245 204"/>
<path stroke-width="1" stroke="black" d="M 95 246 177 271"/>
<path stroke-width="1" stroke="black" d="M 95 246 124 170"/>
<path stroke-width="1" stroke="black" d="M 90 205 131 277"/>
<path stroke-width="1" stroke="black" d="M 177 271 131 277"/>
<path stroke-width="1" stroke="black" d="M 177 271 124 170"/>
<path stroke-width="1" stroke="black" d="M 221 261 215 219"/>
<path stroke-width="1" stroke="black" d="M 221 261 103 200"/>
<path stroke-width="1" stroke="black" d="M 221 261 98 224"/>
<path stroke-width="1" stroke="black" d="M 221 261 197 270"/>
<path stroke-width="1" stroke="black" d="M 221 261 124 170"/>
<path stroke-width="1" stroke="black" d="M 221 261 230 178"/>
<path stroke-width="1" stroke="black" d="M 221 261 131 277"/>
<path stroke-width="1" stroke="black" d="M 221 261 158 196"/>
<path stroke-width="1" stroke="black" d="M 221 261 113 241"/>
<path stroke-width="1" stroke="black" d="M 221 261 263 288"/>
<path stroke-width="1" stroke="black" d="M 221 261 245 204"/>
<path stroke-width="1" stroke="black" d="M 221 261 177 271"/>
<path stroke-width="1" stroke="black" d="M 221 261 206 170"/>
<path stroke-width="1" stroke="black" d="M 221 261 95 246"/>
<path stroke-width="1" stroke="black" d="M 221 261 90 205"/>
<path stroke-width="1" stroke="black" d="M 221 261 114 265"/>
<path stroke-width="1" stroke="black" d="M 221 261 125 166"/>
<path stroke-width="1" stroke="black" d="M 221 261 116 175"/>
<path stroke-width="1" stroke="black" d="M 221 261 171 199"/>
<path stroke-width="1" stroke="black" d="M 221 261 216 254"/>
<path stroke-width="1" stroke="black" d="M 125 166 131 277"/>
<path stroke-width="1" stroke="black" d="M 125 166 113 241"/>
<path stroke-width="1" stroke="black" d="M 125 166 93 141"/>
<path stroke-width="1" stroke="black" d="M 125 166 221 261"/>
<path stroke-width="1" stroke="black" d="M 125 166 245 204"/>
<path stroke-width="1" stroke="black" d="M 125 166 177 271"/>
<path stroke-width="1" stroke="black" d="M 125 166 206 170"/>
<path stroke-width="1" stroke="black" d="M 221 261 194 160"/>
<path stroke-width="1" stroke="black" d="M 125 166 95 246"/>
<path stroke-width="1" stroke="black" d="M 125 166 114 265"/>
<path stroke-width="1" stroke="black" d="M 125 166 116 175"/>
<path stroke-width="1" stroke="black" d="M 125 166 256 236"/>
<path stroke-width="1" stroke="black" d="M 125 166 254 199"/>
<path stroke-width="1" stroke="black" d="M 125 166 275 228"/>
<path stroke-width="1" stroke="black" d="M 125 166 137 141"/>
<path stroke-width="1" stroke="black" d="M 263 288 221 261"/>
<path stroke-width="1" stroke="black" d="M 125 166 90 205"/>
<path stroke-width="1" stroke="black" d="M 177 271 230 178"/>
<path stroke-width="1" stroke="black" d="M 221 261 256 236"/>
<path stroke-width="1" stroke="black" d="M 221 261 275 228"/>
<path stroke-width="1" stroke="black" d="M 245 204 90 205"/>
<path stroke-width="1" stroke="black" d="M 245 204 114 265"/>
<path stroke-width="1" stroke="black" d="M 245 204 116 175"/>
<path stroke-width="1" stroke="black" d="M 245 204 256 236"/>
<path stroke-width="1" stroke="black" d="M 245 204 254 199"/>
<path stroke-width="1" stroke="black" d="M 245 204 275 228"/>
<path stroke-width="1" stroke="black" d="M 245 204 137 141"/>
<path stroke-width="1" stroke="black" d="M 245 204 95 246"/>
<path stroke-width="1" stroke="black" d="M 191 320 177 271"/>
<path stroke-width="1" stroke="black" d="M 177 271 194 160"/>
<path stroke-width="1" stroke="black" d="M 177 271 171 199"/>
<path stroke-width="1" stroke="black" d="M 177 271 158 196"/>
<path stroke-width="1" stroke="black" d="M 177 271 215 219"/>
<path stroke-width="1" stroke="black" d="M 177 271 103 200"/>
<path stroke-width="1" stroke="black" d="M 177 271 98 224"/>
<path stroke-width="1" stroke="black" d="M 177 271 197 270"/>
<path stroke-width="1" stroke="black" d="M 177 271 216 254"/>
<path stroke-width="1" stroke="black" d="M 221 261 254 199"/>
<path stroke-width="1" stroke="black" d="M 245 204 206 170"/>
<path stroke-width="1" stroke="black" d="M 245 204 300 198"/>
<path stroke-width="1" stroke="black" d="M 221 261 137 141"/>
<path stroke-width="1" stroke="black" d="M 300 198 245 204"/>
<path stroke-width="1" stroke="black" d="M 245 204 216 254"/>
<path stroke-width="1" stroke="black" d="M 245 204 194 160"/>
<path stroke-width="1" stroke="black" d="M 245 204 171 199"/>
<path stroke-width="1" stroke="black" d="M 245 204 158 196"/>
<path stroke-width="1" stroke="black" d="M 245 204 215 219"/>
<path stroke-width="1" stroke="black" d="M 245 204 177 271"/>
<path stroke-width="1" stroke="black" d="M 245 204 103 200"/>
<path stroke-width="1" stroke="black" d="M 245 204 197 270"/>
<path stroke-width="1" stroke="black" d="M 245 204 124 170"/>
<path stroke-width="1" stroke="black" d="M 245 204 230 178"/>
<path stroke-width="1" stroke="black" d="M 245 204 131 277"/>
<path stroke-width="1" stroke="black" d="M 245 204 113 241"/>
<path stroke-width="1" stroke="black" d="M 245 204 125 166"/>
<path stroke-width="1" stroke="black" d="M 245 204 221 261"/>
<path stroke-width="1" stroke="black" d="M 245 204 98 224"/>
<path stroke-width="1" stroke="black" d="M 90 205 113 241"/>
<path stroke-width="1" stroke="black" d="M 90 205 125 166"/>
<path stroke-width="1" stroke="black" d="M 90 205 221 261"/>
<path stroke-width="1" stroke="black" d="M 254 199 221 261"/>
<path stroke-width="1" stroke="black" d="M 254 199 245 204"/>
<path stroke-width="1" stroke="black" d="M 254 199 177 271"/>
<path stroke-width="1" stroke="black" d="M 254 199 206 170"/>
<path stroke-width="1" stroke="black" d="M 254 199 95 246"/>
<path stroke-width="1" stroke="black" d="M 254 199 90 205"/>
<path stroke-width="1" stroke="black" d="M 254 199 114 265"/>
<path stroke-width="1" stroke="black" d="M 254 199 125 166"/>
<path stroke-width="1" stroke="black" d="M 254 199 116 175"/>
<path stroke-width="1" stroke="black" d="M 254 199 370 186"/>
<path stroke-width="1" stroke="black" d="M 254 199 275 228"/>
<path stroke-width="1" stroke="black" d="M 420 231 275 228"/>
<path stroke-width="1" stroke="black" d="M 275 228 216 254"/>
<path stroke-width="1" stroke="black" d="M 275 228 194 160"/>
<path stroke-width="1" stroke="black" d="M 275 228 171 199"/>
<path stroke-width="1" stroke="black" d="M 275 228 158 196"/>
<path stroke-width="1" stroke="black" d="M 254 199 256 236"/>
<path stroke-width="1" stroke="black" d="M 275 228 215 219"/>
<path stroke-width="1" stroke="black" d="M 254 199 113 241"/>
<path stroke-width="1" stroke="black" d="M 254 199 230 178"/>
<path stroke-width="1" stroke="black" d="M 256 236 90 205"/>
<path stroke-width="1" stroke="black" d="M 256 236 114 265"/>
<path stroke-width="1" stroke="black" d="M 256 236 116 175"/>
<path stroke-width="1" stroke="black" d="M 256 236 357 245"/>
<path stroke-width="1" stroke="black" d="M 256 236 254 199"/>
<path stroke-width="1" stroke="black" d="M 256 236 275 228"/>
<path stroke-width="1" stroke="black" d="M 370 186 254 199"/>
<path stroke-width="1" stroke="black" d="M 254 199 131 277"/>
<path stroke-width="1" stroke="black" d="M 254 199 216 254"/>
<path stroke-width="1" stroke="black" d="M 254 199 171 199"/>
<path stroke-width="1" stroke="black" d="M 254 199 158 196"/>
<path stroke-width="1" stroke="black" d="M 254 199 215 219"/>
<path stroke-width="1" stroke="black" d="M 254 199 103 200"/>
<path stroke-width="1" stroke="black" d="M 254 199 98 224"/>
<path stroke-width="1" stroke="black" d="M 254 199 197 270"/>
<path stroke-width="1" stroke="black" d="M 254 199 124 170"/>
<path stroke-width="1" stroke="black" d="M 254 199 194 160"/>
<path stroke-width="1" stroke="black" d="M 256 236 95 246"/>
<path stroke-width="1" stroke="black" d="M 275 228 103 200"/>
<path stroke-width="1" stroke="black" d="M 275 228 197 270"/>
<path stroke-width="1" stroke="black" d="M 137 141 158 196"/>
<path stroke-width="1" stroke="black" d="M 137 141 215 219"/>
<path stroke-width="1" stroke="black" d="M 137 141 103 200"/>
<path stroke-width="1" stroke="black" d="M 137 141 98 224"/>
<path stroke-width="1" stroke="black" d="M 137 141 197 270"/>
<path stroke-width="1" stroke="black" d="M 137 141 124 170"/>
<path stroke-width="1" stroke="black" d="M 137 141 230 178"/>
<path stroke-width="1" stroke="black" d="M 137 141 171 199"/>
<path stroke-width="1" stroke="black" d="M 137 141 131 277"/>
<path stroke-width="1" stroke="black" d="M 137 141 125 166"/>
<path stroke-width="1" stroke="black" d="M 137 141 221 261"/>
<path stroke-width="1" stroke="black" d="M 137 141 245 204"/>
<path stroke-width="1" stroke="black" d="M 137 141 177 271"/>
<path stroke-width="1" stroke="black" d="M 137 141 206 170"/>
<path stroke-width="1" stroke="black" d="M 137 141 95 246"/>
<path stroke-width="1" stroke="black" d="M 137 141 90 205"/>
<path stroke-width="1" stroke="black" d="M 137 141 113 241"/>
<path stroke-width="1" stroke="black" d="M 275 228 98 224"/>
<path stroke-width="1" stroke="black" d="M 137 141 194 160"/>
<path stroke-width="1" stroke="black" d="M 69 20 137 141"/>
<path stroke-width="1" stroke="black" d="M 275 228 124 170"/>
<path stroke-width="1" stroke="black" d="M 275 228 230 178"/>
<path stroke-width="1" stroke="black" d="M 275 228 131 277"/>
<path stroke-width="1" stroke="black" d="M 275 228 113 241"/>
<path stroke-width="1" stroke="black" d="M 275 228 125 166"/>
<path stroke-width="1" stroke="black" d="M 275 228 221 261"/>
<path stroke-width="1" stroke="black" d="M 275 228 245 204"/>
<path stroke-width="1" stroke="black" d="M 137 141 216 254"/>
<path stroke-width="1" stroke="black" d="M 275 228 177 271"/>
<path stroke-width="1" stroke="black" d="M 275 228 95 246"/>
<path stroke-width="1" stroke="black" d="M 275 228 90 205"/>
<path stroke-width="1" stroke="black" d="M 275 228 114 265"/>
<path stroke-width="1" stroke="black" d="M 275 228 116 175"/>
<path stroke-width="1" stroke="black" d="M 275 228 256 236"/>
<path stroke-width="1" stroke="black" d="M 275 228 254 199"/>
<path stroke-width="1" stroke="black" d="M 275 228 420 231"/>
<path stroke-width="1" stroke="black" d="M 275 228 206 170"/>
<path stroke-width="1" stroke="black" d="M 256 236 206 170"/>
<path stroke-width="1" stroke="black" d="M 256 236 177 271"/>
<path stroke-width="1" stroke="black" d="M 256 236 245 204"/>
<path stroke-width="1" stroke="black" d="M 114 265 124 170"/>
<path stroke-width="1" stroke="black" d="M 114 265 230 178"/>
<path stroke-width="1" stroke="black" d="M 114 265 131 277"/>
<path stroke-width="1" stroke="black" d="M 114 265 113 241"/>
<path stroke-width="1" stroke="black" d="M 114 265 125 166"/>
<path stroke-width="1" stroke="black" d="M 114 265 221 261"/>
<path stroke-width="1" stroke="black" d="M 114 265 245 204"/>
<path stroke-width="1" stroke="black" d="M 114 265 197 270"/>
<path stroke-width="1" stroke="black" d="M 114 265 177 271"/>
<path stroke-width="1" stroke="black" d="M 114 265 95 246"/>
<path stroke-width="1" stroke="black" d="M 114 265 90 205"/>
<path stroke-width="1" stroke="black" d="M 114 265 46 296"/>
<path stroke-width="1" stroke="black" d="M 114 265 116 175"/>
<path stroke-width="1" stroke="black" d="M 114 265 256 236"/>
<path stroke-width="1" stroke="black" d="M 114 265 254 199"/>
<path stroke-width="1" stroke="black" d="M 114 265 275 228"/>
<path stroke-width="1" stroke="black" d="M 114 265 206 170"/>
<path stroke-width="1" stroke="black" d="M 114 265 137 141"/>
<path stroke-width="1" stroke="black" d="M 114 265 98 224"/>
<path stroke-width="1" stroke="black" d="M 114 265 215 219"/>
<path stroke-width="1" stroke="black" d="M 90 205 245 204"/>
<path stroke-width="1" stroke="black" d="M 90 205 177 271"/>
<path stroke-width="1" stroke="black" d="M 90 205 206 170"/>
<path stroke-width="1" stroke="black" d="M 90 205 95 246"/>
<path stroke-width="1" stroke="black" d="M 90 205 20 202"/>
<path stroke-width="1" stroke="black" d="M 90 205 114 265"/>
<path stroke-width="1" stroke="black" d="M 90 205 116 175"/>
<path stroke-width="1" stroke="black" d="M 114 265 103 200"/>
<path stroke-width="1" stroke="black" d="M 90 205 256 236"/>
<path stroke-width="1" stroke="black" d="M 90 205 275 228"/>
<path stroke-width="1" stroke="black" d="M 90 205 137 141"/>
<path stroke-width="1" stroke="black" d="M 46 296 114 265"/>
<path stroke-width="1" stroke="black" d="M 114 265 216 254"/>
<path stroke-width="1" stroke="black" d="M 114 265 194 160"/>
<path stroke-width="1" stroke="black" d="M 114 265 171 199"/>
<path stroke-width="1" stroke="black" d="M 114 265 158 196"/>
<path stroke-width="1" stroke="black" d="M 90 205 254 199"/>
<path stroke-width="1" stroke="black" d="M 40 140 116 175"/>
<path stroke-width="1" stroke="black" d="M 116 175 216 254"/>
<path stroke-width="1" stroke="black" d="M 116 175 194 160"/>
<path stroke-width="1" stroke="black" d="M 116 175 275 228"/>
<path stroke-width="1" stroke="black" d="M 357 245 256 236"/>
<path stroke-width="1" stroke="black" d="M 256 236 216 254"/>
<path stroke-width="1" stroke="black" d="M 256 236 194 160"/>
<path stroke-width="1" stroke="black" d="M 256 236 171 199"/>
<path stroke-width="1" stroke="black" d="M 256 236 158 196"/>
<path stroke-width="1" stroke="black" d="M 256 236 215 219"/>
<path stroke-width="1" stroke="black" d="M 116 175 254 199"/>
<path stroke-width="1" stroke="black" d="M 256 236 103 200"/>
<path stroke-width="1" stroke="black" d="M 256 236 197 270"/>
<path stroke-width="1" stroke="black" d="M 256 236 124 170"/>
<path stroke-width="1" stroke="black" d="M 256 236 230 178"/>
<path stroke-width="1" stroke="black" d="M 256 236 131 277"/>
<path stroke-width="1" stroke="black" d="M 256 236 113 241"/>
<path stroke-width="1" stroke="black" d="M 256 236 125 166"/>
<path stroke-width="1" stroke="black" d="M 256 236 221 261"/>
<path stroke-width="1" stroke="black" d="M 256 236 98 224"/>
<path stroke-width="1" stroke="black" d="M 116 175 256 236"/>
<path stroke-width="1" stroke="black" d="M 116 175 40 140"/>
<path stroke-width="1" stroke="black" d="M 116 175 114 265"/>
<path stroke-width="1" stroke="black" d="M 116 175 171 199"/>
<path stroke-width="1" stroke="black" d="M 116 175 158 196"/>
<path stroke-width="1" stroke="black" d="M 116 175 215 219"/>
<path stroke-width="1" stroke="black" d="M 116 175 103 200"/>
<path stroke-width="1" stroke="black" d="M 116 175 98 224"/>
<path stroke-width="1" stroke="black" d="M 116 175 197 270"/>
<path stroke-width="1" stroke="black" d="M 116 175 124 170"/>
<path stroke-width="1" stroke="black" d="M 116 175 230 178"/>
<path stroke-width="1" stroke="black" d="M 116 175 131 277"/>
<path stroke-width="1" stroke="black" d="M 116 175 113 241"/>
<path stroke-width="1" stroke="black" d="M 116 175 125 166"/>
<path stroke-width="1" stroke="black" d="M 116 175 221 261"/>
<path stroke-width="1" stroke="black" d="M 116 175 245 204"/>
<path stroke-width="1" stroke="black" d="M 116 175 177 271"/>
<path stroke-width="1" stroke="black" d="M 116 175 206 170"/>
<path stroke-width="1" stroke="black" d="M 116 175 95 246"/>
<path stroke-width="1" stroke="black" d="M 116 175 90 205"/>
<path stroke-width="1" stroke="black" d="M 125 166 230 178"/>
<path stroke-width="1" stroke="black" d="M 125 166 124 170"/>
<path stroke-width="1" stroke="black" d="M 125 166 197 270"/>
<path stroke-width="1" stroke="black" d="M 125 166 98 224"/>
<path stroke-width="1" stroke="black" d="M 158 196 275 228"/>
<path stroke-width="1" stroke="black" d="M 158 196 137 141"/>
<path stroke-width="1" stroke="black" d="M 248 221 215 219"/>
<path stroke-width="1" stroke="black" d="M 215 219 216 254"/>
<path stroke-width="1" stroke="black" d="M 215 219 194 160"/>
<path stroke-width="1" stroke="black" d="M 215 219 171 199"/>
<path stroke-width="1" stroke="black" d="M 215 219 158 196"/>
<path stroke-width="1" stroke="black" d="M 158 196 254 199"/>
<path stroke-width="1" stroke="black" d="M 215 219 248 221"/>
<path stroke-width="1" stroke="black" d="M 215 219 98 224"/>
<path stroke-width="1" stroke="black" d="M 215 219 197 270"/>
<path stroke-width="1" stroke="black" d="M 215 219 124 170"/>
<path stroke-width="1" stroke="black" d="M 215 219 230 178"/>
<path stroke-width="1" stroke="black" d="M 215 219 131 277"/>
<path stroke-width="1" stroke="black" d="M 215 219 113 241"/>
<path stroke-width="1" stroke="black" d="M 215 219 125 166"/>
<path stroke-width="1" stroke="black" d="M 215 219 103 200"/>
<path stroke-width="1" stroke="black" d="M 215 219 221 261"/>
<path stroke-width="1" stroke="black" d="M 158 196 256 236"/>
<path stroke-width="1" stroke="black" d="M 158 196 114 265"/>
<path stroke-width="1" stroke="black" d="M 158 196 156 211"/>
<path stroke-width="1" stroke="black" d="M 158 196 215 219"/>
<path stroke-width="1" stroke="black" d="M 158 196 103 200"/>
<path stroke-width="1" stroke="black" d="M 158 196 98 224"/>
<path stroke-width="1" stroke="black" d="M 158 196 197 270"/>
<path stroke-width="1" stroke="black" d="M 158 196 124 170"/>
<path stroke-width="1" stroke="black" d="M 158 196 230 178"/>
<path stroke-width="1" stroke="black" d="M 158 196 116 175"/>
<path stroke-width="1" stroke="black" d="M 158 196 131 277"/>
<path stroke-width="1" stroke="black" d="M 158 196 125 166"/>
<path stroke-width="1" stroke="black" d="M 158 196 221 261"/>
<path stroke-width="1" stroke="black" d="M 158 196 245 204"/>
<path stroke-width="1" stroke="black" d="M 158 196 177 271"/>
<path stroke-width="1" stroke="black" d="M 158 196 206 170"/>
<path stroke-width="1" stroke="black" d="M 158 196 95 246"/>
<path stroke-width="1" stroke="black" d="M 158 196 90 205"/>
<path stroke-width="1" stroke="black" d="M 158 196 113 241"/>
<path stroke-width="1" stroke="black" d="M 158 196 171 199"/>
<path stroke-width="1" stroke="black" d="M 215 219 245 204"/>
<path stroke-width="1" stroke="black" d="M 215 219 206 170"/>
<path stroke-width="1" stroke="black" d="M 103 200 113 241"/>
<path stroke-width="1" stroke="black" d="M 103 200 125 166"/>
<path stroke-width="1" stroke="black" d="M 103 200 221 261"/>
<path stroke-width="1" stroke="black" d="M 103 200 245 204"/>
<path stroke-width="1" stroke="black" d="M 103 200 177 271"/>
<path stroke-width="1" stroke="black" d="M 103 200 206 170"/>
<path stroke-width="1" stroke="black" d="M 103 200 95 246"/>
<path stroke-width="1" stroke="black" d="M 103 200 131 277"/>
<path stroke-width="1" stroke="black" d="M 103 200 90 205"/>
<path stroke-width="1" stroke="black" d="M 103 200 116 175"/>
<path stroke-width="1" stroke="black" d="M 103 200 256 236"/>
<path stroke-width="1" stroke="black" d="M 103 200 254 199"/>
<path stroke-width="1" stroke="black" d="M 103 200 275 228"/>
<path stroke-width="1" stroke="black" d="M 103 200 137 141"/>
<path stroke-width="1" stroke="black" d="M 54 233 98 224"/>
<path stroke-width="1" stroke="black" d="M 98 224 216 254"/>
<path stroke-width="1" stroke="black" d="M 103 200 114 265"/>
<path stroke-width="1" stroke="black" d="M 215 219 177 271"/>
<path stroke-width="1" stroke="black" d="M 103 200 230 178"/>
<path stroke-width="1" stroke="black" d="M 103 200 197 270"/>
<path stroke-width="1" stroke="black" d="M 215 219 95 246"/>
<path stroke-width="1" stroke="black" d="M 215 219 90 205"/>
<path stroke-width="1" stroke="black" d="M 215 219 114 265"/>
<path stroke-width="1" stroke="black" d="M 215 219 116 175"/>
<path stroke-width="1" stroke="black" d="M 215 219 256 236"/>
<path stroke-width="1" stroke="black" d="M 215 219 254 199"/>
<path stroke-width="1" stroke="black" d="M 215 219 275 228"/>
<path stroke-width="1" stroke="black" d="M 103 200 124 170"/>
<path stroke-width="1" stroke="black" d="M 215 219 137 141"/>
<path stroke-width="1" stroke="black" d="M 103 200 216 254"/>
<path stroke-width="1" stroke="black" d="M 103 200 194 160"/>
<path stroke-width="1" stroke="black" d="M 103 200 171 199"/>
<path stroke-width="1" stroke="black" d="M 103 200 158 196"/>
<path stroke-width="1" stroke="black" d="M 103 200 215 219"/>
<path stroke-width="1" stroke="black" d="M 103 200 66 201"/>
<path stroke-width="1" stroke="black" d="M 103 200 98 224"/>
<path stroke-width="1" stroke="black" d="M 66 201 103 200"/>
<path stroke-width="1" stroke="black" d="M 158 196 194 160"/>
<path stroke-width="1" stroke="black" d="M 158 196 216 254"/>
<path stroke-width="1" stroke="black" d="M 156 211 158 196"/>
<path stroke-width="1" stroke="black" d="M 216 254 116 175"/>
<path stroke-width="1" stroke="black" d="M 216 254 256 236"/>
<path stroke-width="1" stroke="black" d="M 216 254 254 199"/>
<path stroke-width="1" stroke="black" d="M 216 254 275 228"/>
<path stroke-width="1" stroke="black" d="M 216 254 137 141"/>
<path stroke-width="1" stroke="black" d="M 211 120 194 160"/>
<path stroke-width="1" stroke="black" d="M 194 160 216 254"/>
<path stroke-width="1" stroke="black" d="M 216 254 114 265"/>
<path stroke-width="1" stroke="black" d="M 194 160 211 120"/>
<path stroke-width="1" stroke="black" d="M 194 160 158 196"/>
<path stroke-width="1" stroke="black" d="M 194 160 215 219"/>
<path stroke-width="1" stroke="black" d="M 194 160 103 200"/>
<path stroke-width="1" stroke="black" d="M 194 160 98 224"/>
<path stroke-width="1" stroke="black" d="M 194 160 197 270"/>
<path stroke-width="1" stroke="black" d="M 194 160 124 170"/>
<path stroke-width="1" stroke="black" d="M 194 160 230 178"/>
<path stroke-width="1" stroke="black" d="M 194 160 171 199"/>
<path stroke-width="1" stroke="black" d="M 194 160 131 277"/>
<path stroke-width="1" stroke="black" d="M 216 254 90 205"/>
<path stroke-width="1" stroke="black" d="M 216 254 206 170"/>
<path stroke-width="1" stroke="black" d="M 216 254 241 273"/>
<path stroke-width="1" stroke="black" d="M 216 254 194 160"/>
<path stroke-width="1" stroke="black" d="M 216 254 171 199"/>
<path stroke-width="1" stroke="black" d="M 216 254 158 196"/>
<path stroke-width="1" stroke="black" d="M 216 254 215 219"/>
<path stroke-width="1" stroke="black" d="M 216 254 103 200"/>
<path stroke-width="1" stroke="black" d="M 216 254 98 224"/>
<path stroke-width="1" stroke="black" d="M 216 254 95 246"/>
<path stroke-width="1" stroke="black" d="M 216 254 197 270"/>
<path stroke-width="1" stroke="black" d="M 216 254 230 178"/>
<path stroke-width="1" stroke="black" d="M 216 254 131 277"/>
<path stroke-width="1" stroke="black" d="M 216 254 113 241"/>
<path stroke-width="1" stroke="black" d="M 216 254 125 166"/>
<path stroke-width="1" stroke="black" d="M 216 254 221 261"/>
<path stroke-width="1" stroke="black" d="M 216 254 245 204"/>
<path stroke-width="1" stroke="black" d="M 216 254 177 271"/>
<path stroke-width="1" stroke="black" d="M 216 254 124 170"/>
<path stroke-width="1" stroke="black" d="M 194 160 113 241"/>
<path stroke-width="1" stroke="black" d="M 194 160 125 166"/>
<path stroke-width="1" stroke="black" d="M 194 160 221 261"/>
<path stroke-width="1" stroke="black" d="M 171 199 230 178"/>
<path stroke-width="1" stroke="black" d="M 171 199 131 277"/>
<path stroke-width="1" stroke="black" d="M 171 199 113 241"/>
<path stroke-width="1" stroke="black" d="M 171 199 125 166"/>
<path stroke-width="1" stroke="black" d="M 171 199 221 261"/>
<path stroke-width="1" stroke="black" d="M 171 199 245 204"/>
<path stroke-width="1" stroke="black" d="M 171 199 177 271"/>
<path stroke-width="1" stroke="black" d="M 171 199 124 170"/>
<path stroke-width="1" stroke="black" d="M 171 199 206 170"/>
<path stroke-width="1" stroke="black" d="M 171 199 90 205"/>
<path stroke-width="1" stroke="black" d="M 171 199 114 265"/>
<path stroke-width="1" stroke="black" d="M 171 199 116 175"/>
<path stroke-width="1" stroke="black" d="M 171 199 256 236"/>
<path stroke-width="1" stroke="black" d="M 171 199 254 199"/>
<path stroke-width="1" stroke="black" d="M 171 199 275 228"/>
<path stroke-width="1" stroke="black" d="M 171 199 137 141"/>
<path stroke-width="1" stroke="black" d="M 171 199 95 246"/>
<path stroke-width="1" stroke="black" d="M 171 199 197 270"/>
<path stroke-width="1" stroke="black" d="M 171 199 98 224"/>
<path stroke-width="1" stroke="black" d="M 171 199 103 200"/>
<path stroke-width="1" stroke="black" d="M 194 160 245 204"/>
<path stroke-width="1" stroke="black" d="M 194 160 177 271"/>
<path stroke-width="1" stroke="black" d="M 194 160 206 170"/>
<path stroke-width="1" stroke="black" d="M 194 160 95 246"/>
<path stroke-width="1" stroke="black" d="M 194 160 90 205"/>
<path stroke-width="1" stroke="black" d="M 194 160 114 265"/>
<path stroke-width="1" stroke="black" d="M 194 160 116 175"/>
<path stroke-width="1" stroke="black" d="M 194 160 256 236"/>
<path stroke-width="1" stroke="black" d="M 194 160 254 199"/>
<path stroke-width="1" stroke="black" d="M 194 160 275 228"/>
<path stroke-width="1" stroke="black" d="M 194 160 137 141"/>
<path stroke-width="1" stroke="black" d="M 162 180 171 199"/>
<path stroke-width="1" stroke="black" d="M 171 199 216 254"/>
<path stroke-width="1" stroke="black" d="M 171 199 194 160"/>
<path stroke-width="1" stroke="black" d="M 171 199 162 180"/>
<path stroke-width="1" stroke="black" d="M 171 199 158 196"/>
<path stroke-width="1" stroke="black" d="M 171 199 215 219"/>
<path stroke-width="1" stroke="black" d="M 98 224 194 160"/>
<path stroke-width="1" stroke="black" d="M 137 141 114 265"/>
<path stroke-width="1" stroke="black" d="M 98 224 171 199"/>
<path stroke-width="1" stroke="black" d="M 98 224 215 219"/>
<path stroke-width="1" stroke="black" d="M 131 277 171 199"/>
<path stroke-width="1" stroke="black" d="M 131 277 158 196"/>
<path stroke-width="1" stroke="black" d="M 131 277 215 219"/>
<path stroke-width="1" stroke="black" d="M 131 277 103 200"/>
<path stroke-width="1" stroke="black" d="M 131 277 98 224"/>
<path stroke-width="1" stroke="black" d="M 131 277 197 270"/>
<path stroke-width="1" stroke="black" d="M 131 277 124 170"/>
<path stroke-width="1" stroke="black" d="M 131 277 194 160"/>
<path stroke-width="1" stroke="black" d="M 131 277 230 178"/>
<path stroke-width="1" stroke="black" d="M 131 277 113 241"/>
<path stroke-width="1" stroke="black" d="M 131 277 125 166"/>
<path stroke-width="1" stroke="black" d="M 131 277 221 261"/>
<path stroke-width="1" stroke="black" d="M 131 277 245 204"/>
<path stroke-width="1" stroke="black" d="M 131 277 177 271"/>
<path stroke-width="1" stroke="black" d="M 131 277 206 170"/>
<path stroke-width="1" stroke="black" d="M 131 277 95 246"/>
<path stroke-width="1" stroke="black" d="M 131 277 99 305"/>
<path stroke-width="1" stroke="black" d="M 131 277 90 205"/>
<path stroke-width="1" stroke="black" d="M 131 277 216 254"/>
<path stroke-width="1" stroke="black" d="M 230 178 137 141"/>
<path stroke-width="1" stroke="black" d="M 230 178 124 170"/>
<path stroke-width="1" stroke="black" d="M 230 178 271 156"/>
<path stroke-width="1" stroke="black" d="M 230 178 131 277"/>
<path stroke-width="1" stroke="black" d="M 230 178 113 241"/>
<path stroke-width="1" stroke="black" d="M 230 178 125 166"/>
<path stroke-width="1" stroke="black" d="M 230 178 221 261"/>
<path stroke-width="1" stroke="black" d="M 230 178 245 204"/>
<path stroke-width="1" stroke="black" d="M 99 305 131 277"/>
<path stroke-width="1" stroke="black" d="M 230 178 177 271"/>
<path stroke-width="1" stroke="black" d="M 230 178 95 246"/>
<path stroke-width="1" stroke="black" d="M 230 178 90 205"/>
<path stroke-width="1" stroke="black" d="M 230 178 114 265"/>
<path stroke-width="1" stroke="black" d="M 230 178 116 175"/>
<path stroke-width="1" stroke="black" d="M 230 178 256 236"/>
<path stroke-width="1" stroke="black" d="M 230 178 254 199"/>
<path stroke-width="1" stroke="black" d="M 230 178 275 228"/>
<path stroke-width="1" stroke="black" d="M 230 178 206 170"/>
<path stroke-width="1" stroke="black" d="M 230 178 197 270"/>
<path stroke-width="1" stroke="black" d="M 131 277 114 265"/>
<path stroke-width="1" stroke="black" d="M 131 277 256 236"/>
<path stroke-width="1" stroke="black" d="M 113 241 206 170"/>
<path stroke-width="1" stroke="black" d="M 113 241 95 246"/>
<path stroke-width="1" stroke="black" d="M 113 241 90 205"/>
<path stroke-width="1" stroke="black" d="M 113 241 114 265"/>
<path stroke-width="1" stroke="black" d="M 113 241 116 175"/>
<path stroke-width="1" stroke="black" d="M 113 241 256 236"/>
<path stroke-width="1" stroke="black" d="M 113 241 254 199"/>
<path stroke-width="1" stroke="black" d="M 113 241 177 271"/>
<path stroke-width="1" stroke="black" d="M 113 241 275 228"/>
<path stroke-width="1" stroke="black" d="M 93 141 125 166"/>
<path stroke-width="1" stroke="black" d="M 125 166 216 254"/>
<path stroke-width="1" stroke="black" d="M 125 166 194 160"/>
<path stroke-width="1" stroke="black" d="M 125 166 171 199"/>
<path stroke-width="1" stroke="black" d="M 125 166 158 196"/>
<path stroke-width="1" stroke="black" d="M 125 166 215 219"/>
<path stroke-width="1" stroke="black" d="M 125 166 103 200"/>
<path stroke-width="1" stroke="black" d="M 113 241 137 141"/>
<path stroke-width="1" stroke="black" d="M 131 277 116 175"/>
<path stroke-width="1" stroke="black" d="M 113 241 245 204"/>
<path stroke-width="1" stroke="black" d="M 113 241 125 166"/>
<path stroke-width="1" stroke="black" d="M 131 277 254 199"/>
<path stroke-width="1" stroke="black" d="M 131 277 275 228"/>
<path stroke-width="1" stroke="black" d="M 131 277 137 141"/>
<path stroke-width="1" stroke="black" d="M 66 257 113 241"/>
<path stroke-width="1" stroke="black" d="M 113 241 216 254"/>
<path stroke-width="1" stroke="black" d="M 113 241 194 160"/>
<path stroke-width="1" stroke="black" d="M 113 241 171 199"/>
<path stroke-width="1" stroke="black" d="M 113 241 221 261"/>
<path stroke-width="1" stroke="black" d="M 113 241 158 196"/>
<path stroke-width="1" stroke="black" d="M 113 241 103 200"/>
<path stroke-width="1" stroke="black" d="M 113 241 98 224"/>
<path stroke-width="1" stroke="black" d="M 113 241 197 270"/>
<path stroke-width="1" stroke="black" d="M 113 241 124 170"/>
<path stroke-width="1" stroke="black" d="M 113 241 230 178"/>
<path stroke-width="1" stroke="black" d="M 113 241 131 277"/>
<path stroke-width="1" stroke="black" d="M 113 241 66 257"/>
<path stroke-width="1" stroke="black" d="M 113 241 215 219"/>
<path stroke-width="1" stroke="black" d="M 230 178 98 224"/>
<path stroke-width="1" stroke="black" d="M 230 178 103 200"/>
<path stroke-width="1" stroke="black" d="M 230 178 215 219"/>
<path stroke-width="1" stroke="black" d="M 217 301 197 270"/>
<path stroke-width="1" stroke="black" d="M 197 270 216 254"/>
<path stroke-width="1" stroke="black" d="M 197 270 194 160"/>
<path stroke-width="1" stroke="black" d="M 197 270 171 199"/>
<path stroke-width="1" stroke="black" d="M 197 270 158 196"/>
<path stroke-width="1" stroke="black" d="M 197 270 215 219"/>
<path stroke-width="1" stroke="black" d="M 197 270 103 200"/>
<path stroke-width="1" stroke="black" d="M 98 224 137 141"/>
<path stroke-width="1" stroke="black" d="M 197 270 98 224"/>
<path stroke-width="1" stroke="black" d="M 197 270 124 170"/>
<path stroke-width="1" stroke="black" d="M 197 270 230 178"/>
<path stroke-width="1" stroke="black" d="M 197 270 131 277"/>
<path stroke-width="1" stroke="black" d="M 197 270 113 241"/>
<path stroke-width="1" stroke="black" d="M 197 270 125 166"/>
<path stroke-width="1" stroke="black" d="M 197 270 221 261"/>
<path stroke-width="1" stroke="black" d="M 197 270 245 204"/>
<path stroke-width="1" stroke="black" d="M 197 270 217 301"/>
<path stroke-width="1" stroke="black" d="M 197 270 177 271"/>
<path stroke-width="1" stroke="black" d="M 98 224 275 228"/>
<path stroke-width="1" stroke="black" d="M 98 224 256 236"/>
<path stroke-width="1" stroke="black" d="M 98 224 103 200"/>
<path stroke-width="1" stroke="black" d="M 98 224 54 233"/>
<path stroke-width="1" stroke="black" d="M 98 224 197 270"/>
<path stroke-width="1" stroke="black" d="M 98 224 124 170"/>
<path stroke-width="1" stroke="black" d="M 98 224 230 178"/>
<path stroke-width="1" stroke="black" d="M 98 224 131 277"/>
<path stroke-width="1" stroke="black" d="M 98 224 113 241"/>
<path stroke-width="1" stroke="black" d="M 98 224 254 199"/>
<path stroke-width="1" stroke="black" d="M 98 224 125 166"/>
<path stroke-width="1" stroke="black" d="M 98 224 245 204"/>
<path stroke-width="1" stroke="black" d="M 98 224 177 271"/>
<path stroke-width="1" stroke="black" d="M 98 224 206 170"/>
<path stroke-width="1" stroke="black" d="M 98 224 95 246"/>
<path stroke-width="1" stroke="black" d="M 98 224 90 205"/>
<path stroke-width="1" stroke="black" d="M 98 224 114 265"/>
<path stroke-width="1" stroke="black" d="M 98 224 116 175"/>
<path stroke-width="1" stroke="black" d="M 98 224 221 261"/>
<path stroke-width="1" stroke="black" d="M 197 270 206 170"/>
<path stroke-width="1" stroke="black" d="M 197 270 95 246"/>
<path stroke-width="1" stroke="black" d="M 197 270 90 205"/>
<path stroke-width="1" stroke="black" d="M 124 170 245 204"/>
<path stroke-width="1" stroke="black" d="M 124 170 177 271"/>
<path stroke-width="1" stroke="black" d="M 124 170 206 170"/>
<path stroke-width="1" stroke="black" d="M 124 170 95 246"/>
<path stroke-width="1" stroke="black" d="M 124 170 90 205"/>
<path stroke-width="1" stroke="black" d="M 124 170 114 265"/>
<path stroke-width="1" stroke="black" d="M 124 170 116 175"/>
<path stroke-width="1" stroke="black" d="M 124 170 221 261"/>
<path stroke-width="1" stroke="black" d="M 124 170 256 236"/>
<path stroke-width="1" stroke="black" d="M 124 170 275 228"/>
<path stroke-width="1" stroke="black" d="M 124 170 137 141"/>
<path stroke-width="1" stroke="black" d="M 271 156 230 178"/>
<path stroke-width="1" stroke="black" d="M 230 178 216 254"/>
<path stroke-width="1" stroke="black" d="M 230 178 194 160"/>
<path stroke-width="1" stroke="black" d="M 230 178 171 199"/>
<path stroke-width="1" stroke="black" d="M 230 178 158 196"/>
<path stroke-width="1" stroke="black" d="M 124 170 254 199"/>
<path stroke-width="1" stroke="black" d="M 124 170 125 166"/>
<path stroke-width="1" stroke="black" d="M 124 170 113 241"/>
<path stroke-width="1" stroke="black" d="M 124 170 131 277"/>
<path stroke-width="1" stroke="black" d="M 197 270 114 265"/>
<path stroke-width="1" stroke="black" d="M 197 270 116 175"/>
<path stroke-width="1" stroke="black" d="M 197 270 256 236"/>
<path stroke-width="1" stroke="black" d="M 197 270 254 199"/>
<path stroke-width="1" stroke="black" d="M 197 270 275 228"/>
<path stroke-width="1" stroke="black" d="M 197 270 137 141"/>
<path stroke-width="1" stroke="black" d="M 97 150 124 170"/>
<path stroke-width="1" stroke="black" d="M 124 170 216 254"/>
<path stroke-width="1" stroke="black" d="M 124 170 194 160"/>
<path stroke-width="1" stroke="black" d="M 124 170 171 199"/>
<path stroke-width="1" stroke="black" d="M 124 170 158 196"/>
<path stroke-width="1" stroke="black" d="M 124 170 215 219"/>
<path stroke-width="1" stroke="black" d="M 124 170 103 200"/>
<path stroke-width="1" stroke="black" d="M 124 170 98 224"/>
<path stroke-width="1" stroke="black" d="M 124 170 197 270"/>
<path stroke-width="1" stroke="black" d="M 124 170 97 150"/>
<path stroke-width="1" stroke="black" d="M 124 170 230 178"/>
<path stroke-width="1" stroke="black" d="M 98 224 158 196"/>
<path stroke-width="1" stroke="black" d="M 137 141 69 20"/>
<circle cx="241" cy="273" r="7.0" style="fill:gray;stroke:black;stroke-width:1.0"/>
<circle cx="216" cy="254" r="7.0" style="fill:gray;stroke:black;stroke-width:1.0"/>
<circle cx="211" cy="120" r="7.0" style="fill:gray;stroke:black;stroke-width:1.0"/>
<circle cx="194" cy="160" r="7.0" style="fill:gray;stroke:black;stroke-width:1.0"/>
<circle cx="162" cy="180" r="7.0" style="fill:gray;stroke:black;stroke-width:1.0"/>
<circle cx="171" cy="199" r="7.0" style="fill:gray;stroke:black;stroke-width:1.0"/>
<circle cx="156" cy="211" r="7.0" style="fill:gray;stroke:black;stroke-width:1.0"/>
<circle cx="158" cy="196" r="7.0" style="fill:gray;stroke:black;stroke-width:1.0"/>
<circle cx="248" cy="221" r="7.0" style="fill:gray;stroke:black;stroke-width:1.0"/>
<circle cx="215" cy="219" r="7.0" style="fill:gray;stroke:black;stroke-width:1.0"/>
<circle cx="66" cy="201" r="7.0" style="fill:gray;stroke:black;stroke-width:1.0"/>
<circle cx="103" cy="200" r="7.0" style="fill:gray;stroke:black;stroke-width:1.0"/>
<circle cx="54" cy="233" r="7.0" style="fill:gray;stroke:black;stroke-width:1.0"/>
<circle cx="98" cy="224" r="7.0" style="fill:gray;stroke:black;stroke-width:1.0"/>
<circle cx="217" cy="301" r="7.0" style="fill:gray;stroke:black;stroke-width:1.0"/>
<circle cx="197" cy="270" r="7.0" style="fill:gray;stroke:black;stroke-width:1.0"/>
<circle cx="97" cy="150" r="7.0" style="fill:gray;stroke:black;stroke-width:1.0"/>
<circle cx="124" cy="170" r="7.0" style="fill:gray;stroke:black;stroke-width:1.0"/>
<circle cx="271" cy="156" r="7.0" style="fill:gray;stroke:black;stroke-width:1.0"/>
<circle cx="230" cy="178" r="7.0" style="fill:gray;stroke:black;stroke-width:1.0"/>
<circle cx="99" cy="305" r="7.0" style="fill:gray;stroke:black;stroke-width:1.0"/>
<circle cx="131" cy="277" r="7.0" style="fill:gray;stroke:black;stroke-width:1.0"/>
<circle cx="66" cy="257" r="7.0" style="fill:gray;stroke:black;stroke-width:1.0"/>
<circle cx="113" cy="241" r="7.0" style="fill:gray;stroke:black;stroke-width:1.0"/>
<circle cx="93" cy="141" r="7.0" style="fill:gray;stroke:black;stroke-width:1.0"/>
<circle cx="125" cy="166" r="7.0" style="fill:gray;stroke:black;stroke-width:1.0"/>
<circle cx="263" cy="288" r="7.0" style="fill:gray;stroke:black;stroke-width:1.0"/>
<circle cx="221" cy="261" r="7.0" style="fill:gray;stroke:black;stroke-width:1.0"/>
<circle cx="300" cy="198" r="7.0" style="fill:gray;stroke:black;stroke-width:1.0"/>
<circle cx="245" cy="204" r="7.0" style="fill:gray;stroke:black;stroke-width:1.0"/>
<circle cx="191" cy="320" r="7.0" style="fill:gray;stroke:black;stroke-width:1.0"/>
<circle cx="177" cy="271" r="7.0" style="fill:gray;stroke:black;stroke-width:1.0"/>
<circle cx="247" cy="128" r="7.0" style="fill:gray;stroke:black;stroke-width:1.0"/>
<circle cx="206" cy="170" r="7.0" style="fill:gray;stroke:black;stroke-width:1.0"/>
<circle cx="29" cy="263" r="7.0" style="fill:gray;stroke:black;stroke-width:1.0"/>
<circle cx="95" cy="246" r="7.0" style="fill:gray;stroke:black;stroke-width:1.0"/>
<circle cx="20" cy="202" r="7.0" style="fill:gray;stroke:black;stroke-width:1.0"/>
<circle cx="90" cy="205" r="7.0" style="fill:gray;stroke:black;stroke-width:1.0"/>
<circle cx="46" cy="296" r="7.0" style="fill:gray;stroke:black;stroke-width:1.0"/>
<circle cx="114" cy="265" r="7.0" style="fill:gray;stroke:black;stroke-width:1.0"/>
<circle cx="40" cy="140" r="7.0" style="fill:gray;stroke:black;stroke-width:1.0"/>
<circle cx="116" cy="175" r="7.0" style="fill:gray;stroke:black;stroke-width:1.0"/>
<circle cx="357" cy="245" r="7.0" style="fill:gray;stroke:black;stroke-width:1.0"/>
<circle cx="256" cy="236" r="7.0" style="fill:gray;stroke:black;stroke-width:1.0"/>
<circle cx="370" cy="186" r="7.0" style="fill:gray;stroke:black;stroke-width:1.0"/>
<circle cx="254" cy="199" r="7.0" style="fill:gray;stroke:black;stroke-width:1.0"/>
<circle cx="420" cy="231" r="7.0" style="fill:gray;stroke:black;stroke-width:1.0"/>
<circle cx="275" cy="228" r="7.0" style="fill:gray;stroke:black;stroke-width:1.0"/>
<circle cx="69" cy="20" r="7.0" style="fill:gray;stroke:black;stroke-width:1.0"/>
<circle cx="137" cy="141" r="7.0" style="fill:gray;stroke:black;stroke-width:1.0"/>
</svg>
