<svg width="440" height="340" xmlns="http://www.w3.org/2000/svg">
<path stroke-width="1" stroke="black" d="M 188 200 171 187"/>
<path stroke-width="1" stroke="black" d="M 162 110 115 115"/>
<path stroke-width="1" stroke="black" d="M 162 110 115 115"/>
<path stroke-width="1" stroke="black" d="M 162 110 177 119"/>
<path stroke-width="1" stroke="black" d="M 162 110 168 231"/>
<path stroke-width="1" stroke="black" d="M 162 110 187 215"/>
<path stroke-width="1" stroke="black" d="M 162 110 121 223"/>
<path stroke-width="1" stroke="black" d="M 162 110 148 237"/>
<path stroke-width="1" stroke="black" d="M 162 110 131 97"/>
<path stroke-width="1" stroke="black" d="M 162 110 146 202"/>
<path stroke-width="1" stroke="black" d="M 162 110 192 175"/>
<path stroke-width="1" stroke="black" d="M 162 110 177 66"/>
<path stroke-width="1" stroke="black" d="M 162 110 102 176"/>
<path stroke-width="1" stroke="black" d="M 162 110 190 146"/>
<path stroke-width="1" stroke="black" d="M 162 110 164 97"/>
<path stroke-width="1" stroke="black" d="M 162 110 140 83"/>
<path stroke-width="1" stroke="black" d="M 162 110 134 241"/>
<path stroke-width="1" stroke="black" d="M 162 110 109 177"/>
<path stroke-width="1" stroke="black" d="M 162 110 202 146"/>
<path stroke-width="1" stroke="black" d="M 162 110 115 158"/>
<path stroke-width="1" stroke="black" d="M 162 110 111 210"/>
<path stroke-width="1" stroke="black" d="M 192 175 148 237"/>
<path stroke-width="1" stroke="black" d="M 192 175 146 202"/>
<path stroke-width="1" stroke="black" d="M 192 175 109 177"/>
<path stroke-width="1" stroke="black" d="M 192 175 224 184"/>
<path stroke-width="1" stroke="black" d="M 192 175 162 110"/>
<path stroke-width="1" stroke="black" d="M 192 175 102 176"/>
<path stroke-width="1" stroke="black" d="M 192 175 190 146"/>
<path stroke-width="1" stroke="black" d="M 162 110 141 166"/>
<path stroke-width="1" stroke="black" d="M 192 175 164 97"/>
<path stroke-width="1" stroke="black" d="M 192 175 134 241"/>
<path stroke-width="1" stroke="black" d="M 192 175 202 146"/>
<path stroke-width="1" stroke="black" d="M 192 175 96 176"/>
<path stroke-width="1" stroke="black" d="M 192 175 241 167"/>
<path stroke-width="1" stroke="black" d="M 177 66 162 110"/>
<path stroke-width="1" stroke="black" d="M 162 110 171 187"/>
<path stroke-width="1" stroke="black" d="M 162 110 182 179"/>
<path stroke-width="1" stroke="black" d="M 192 175 140 83"/>
<path stroke-width="1" stroke="black" d="M 192 175 121 223"/>
<path stroke-width="1" stroke="black" d="M 162 110 96 176"/>
<path stroke-width="1" stroke="black" d="M 61 180 102 176"/>
<path stroke-width="1" stroke="black" d="M 102 176 140 83"/>
<path stroke-width="1" stroke="black" d="M 102 176 134 241"/>
<path stroke-width="1" stroke="black" d="M 102 176 202 146"/>
<path stroke-width="1" stroke="black" d="M 102 176 96 176"/>
<path stroke-width="1" stroke="black" d="M 102 176 241 167"/>
<path stroke-width="1" stroke="black" d="M 229 139 190 146"/>
<path stroke-width="1" stroke="black" d="M 190 146 171 187"/>
<path stroke-width="1" stroke="black" d="M 102 176 164 97"/>
<path stroke-width="1" stroke="black" d="M 190 146 182 179"/>
<path stroke-width="1" stroke="black" d="M 190 146 141 166"/>
<path stroke-width="1" stroke="black" d="M 190 146 115 158"/>
<path stroke-width="1" stroke="black" d="M 190 146 131 97"/>
<path stroke-width="1" stroke="black" d="M 190 146 115 115"/>
<path stroke-width="1" stroke="black" d="M 190 146 115 115"/>
<path stroke-width="1" stroke="black" d="M 190 146 177 119"/>
<path stroke-width="1" stroke="black" d="M 190 146 168 231"/>
<path stroke-width="1" stroke="black" d="M 190 146 111 210"/>
<path stroke-width="1" stroke="black" d="M 162 110 241 167"/>
<path stroke-width="1" stroke="black" d="M 102 176 190 146"/>
<path stroke-width="1" stroke="black" d="M 102 176 162 110"/>
<path stroke-width="1" stroke="black" d="M 102 176 171 187"/>
<path stroke-width="1" stroke="black" d="M 102 176 182 179"/>
<path stroke-width="1" stroke="black" d="M 102 176 111 210"/>
<path stroke-width="1" stroke="black" d="M 102 176 141 166"/>
<path stroke-width="1" stroke="black" d="M 102 176 115 158"/>
<path stroke-width="1" stroke="black" d="M 102 176 131 97"/>
<path stroke-width="1" stroke="black" d="M 102 176 115 115"/>
<path stroke-width="1" stroke="black" d="M 102 176 61 180"/>
<path stroke-width="1" stroke="black" d="M 102 176 115 115"/>
<path stroke-width="1" stroke="black" d="M 102 176 168 231"/>
<path stroke-width="1" stroke="black" d="M 102 176 187 215"/>
<path stroke-width="1" stroke="black" d="M 102 176 121 223"/>
<path stroke-width="1" stroke="black" d="M 102 176 148 237"/>
<path stroke-width="1" stroke="black" d="M 102 176 146 202"/>
<path stroke-width="1" stroke="black" d="M 102 176 109 177"/>
<path stroke-width="1" stroke="black" d="M 102 176 192 175"/>
<path stroke-width="1" stroke="black" d="M 102 176 177 119"/>
<path stroke-width="1" stroke="black" d="M 190 146 187 215"/>
<path stroke-width="1" stroke="black" d="M 192 175 187 215"/>
<path stroke-width="1" stroke="black" d="M 192 175 177 119"/>
<path stroke-width="1" stroke="black" d="M 146 202 115 158"/>
<path stroke-width="1" stroke="black" d="M 146 202 131 97"/>
<path stroke-width="1" stroke="black" d="M 146 202 115 115"/>
<path stroke-width="1" stroke="black" d="M 146 202 115 115"/>
<path stroke-width="1" stroke="black" d="M 146 202 177 119"/>
<path stroke-width="1" stroke="black" d="M 146 202 168 231"/>
<path stroke-width="1" stroke="black" d="M 146 202 187 215"/>
<path stroke-width="1" stroke="black" d="M 146 202 141 166"/>
<path stroke-width="1" stroke="black" d="M 146 202 121 223"/>
<path stroke-width="1" stroke="black" d="M 146 202 134 234"/>
<path stroke-width="1" stroke="black" d="M 146 202 109 177"/>
<path stroke-width="1" stroke="black" d="M 146 202 192 175"/>
<path stroke-width="1" stroke="black" d="M 146 202 162 110"/>
<path stroke-width="1" stroke="black" d="M 146 202 102 176"/>
<path stroke-width="1" stroke="black" d="M 146 202 190 146"/>
<path stroke-width="1" stroke="black" d="M 146 202 164 97"/>
<path stroke-width="1" stroke="black" d="M 146 202 148 237"/>
<path stroke-width="1" stroke="black" d="M 146 202 140 83"/>
<path stroke-width="1" stroke="black" d="M 146 202 111 210"/>
<path stroke-width="1" stroke="black" d="M 146 202 171 187"/>
<path stroke-width="1" stroke="black" d="M 148 237 187 215"/>
<path stroke-width="1" stroke="black" d="M 148 237 121 223"/>
<path stroke-width="1" stroke="black" d="M 148 237 142 284"/>
<path stroke-width="1" stroke="black" d="M 148 237 146 202"/>
<path stroke-width="1" stroke="black" d="M 148 237 109 177"/>
<path stroke-width="1" stroke="black" d="M 148 237 192 175"/>
<path stroke-width="1" stroke="black" d="M 148 237 162 110"/>
<path stroke-width="1" stroke="black" d="M 146 202 182 179"/>
<path stroke-width="1" stroke="black" d="M 148 237 102 176"/>
<path stroke-width="1" stroke="black" d="M 148 237 164 97"/>
<path stroke-width="1" stroke="black" d="M 148 237 140 83"/>
<path stroke-width="1" stroke="black" d="M 148 237 134 241"/>
<path stroke-width="1" stroke="black" d="M 148 237 202 146"/>
<path stroke-width="1" stroke="black" d="M 148 237 96 176"/>
<path stroke-width="1" stroke="black" d="M 148 237 241 167"/>
<path stroke-width="1" stroke="black" d="M 134 234 146 202"/>
<path stroke-width="1" stroke="black" d="M 148 237 190 146"/>
<path stroke-width="1" stroke="black" d="M 192 175 168 231"/>
<path stroke-width="1" stroke="black" d="M 146 202 134 241"/>
<path stroke-width="1" stroke="black" d="M 146 202 96 176"/>
<path stroke-width="1" stroke="black" d="M 109 177 190 146"/>
<path stroke-width="1" stroke="black" d="M 109 177 164 97"/>
<path stroke-width="1" stroke="black" d="M 109 177 140 83"/>
<path stroke-width="1" stroke="black" d="M 109 177 134 241"/>
<path stroke-width="1" stroke="black" d="M 109 177 202 146"/>
<path stroke-width="1" stroke="black" d="M 109 177 96 176"/>
<path stroke-width="1" stroke="black" d="M 109 177 241 167"/>
<path stroke-width="1" stroke="black" d="M 109 177 102 176"/>
<path stroke-width="1" stroke="black" d="M 224 184 192 175"/>
<path stroke-width="1" stroke="black" d="M 192 175 182 179"/>
<path stroke-width="1" stroke="black" d="M 192 175 111 210"/>
<path stroke-width="1" stroke="black" d="M 192 175 141 166"/>
<path stroke-width="1" stroke="black" d="M 192 175 115 158"/>
<path stroke-width="1" stroke="black" d="M 192 175 131 97"/>
<path stroke-width="1" stroke="black" d="M 192 175 115 115"/>
<path stroke-width="1" stroke="black" d="M 192 175 115 115"/>
<path stroke-width="1" stroke="black" d="M 192 175 171 187"/>
<path stroke-width="1" stroke="black" d="M 146 202 202 146"/>
<path stroke-width="1" stroke="black" d="M 109 177 162 110"/>
<path stroke-width="1" stroke="black" d="M 109 177 75 176"/>
<path stroke-width="1" stroke="black" d="M 146 202 241 167"/>
<path stroke-width="1" stroke="black" d="M 75 176 109 177"/>
<path stroke-width="1" stroke="black" d="M 109 177 171 187"/>
<path stroke-width="1" stroke="black" d="M 109 177 182 179"/>
<path stroke-width="1" stroke="black" d="M 109 177 111 210"/>
<path stroke-width="1" stroke="black" d="M 109 177 141 166"/>
<path stroke-width="1" stroke="black" d="M 109 177 115 158"/>
<path stroke-width="1" stroke="black" d="M 109 177 192 175"/>
<path stroke-width="1" stroke="black" d="M 109 177 131 97"/>
<path stroke-width="1" stroke="black" d="M 109 177 115 115"/>
<path stroke-width="1" stroke="black" d="M 109 177 177 119"/>
<path stroke-width="1" stroke="black" d="M 109 177 168 231"/>
<path stroke-width="1" stroke="black" d="M 109 177 187 215"/>
<path stroke-width="1" stroke="black" d="M 109 177 121 223"/>
<path stroke-width="1" stroke="black" d="M 109 177 148 237"/>
<path stroke-width="1" stroke="black" d="M 109 177 146 202"/>
<path stroke-width="1" stroke="black" d="M 109 177 115 115"/>
<path stroke-width="1" stroke="black" d="M 190 146 121 223"/>
<path stroke-width="1" stroke="black" d="M 190 146 148 237"/>
<path stroke-width="1" stroke="black" d="M 190 146 146 202"/>
<path stroke-width="1" stroke="black" d="M 202 146 146 202"/>
<path stroke-width="1" stroke="black" d="M 202 146 109 177"/>
<path stroke-width="1" stroke="black" d="M 202 146 192 175"/>
<path stroke-width="1" stroke="black" d="M 202 146 162 110"/>
<path stroke-width="1" stroke="black" d="M 202 146 102 176"/>
<path stroke-width="1" stroke="black" d="M 202 146 190 146"/>
<path stroke-width="1" stroke="black" d="M 202 146 164 97"/>
<path stroke-width="1" stroke="black" d="M 202 146 148 237"/>
<path stroke-width="1" stroke="black" d="M 202 146 140 83"/>
<path stroke-width="1" stroke="black" d="M 202 146 274 141"/>
<path stroke-width="1" stroke="black" d="M 202 146 96 176"/>
<path stroke-width="1" stroke="black" d="M 20 182 96 176"/>
<path stroke-width="1" stroke="black" d="M 96 176 171 187"/>
<path stroke-width="1" stroke="black" d="M 96 176 182 179"/>
<path stroke-width="1" stroke="black" d="M 96 176 111 210"/>
<path stroke-width="1" stroke="black" d="M 96 176 141 166"/>
<path stroke-width="1" stroke="black" d="M 202 146 134 241"/>
<path stroke-width="1" stroke="black" d="M 96 176 115 158"/>
<path stroke-width="1" stroke="black" d="M 202 146 121 223"/>
<path stroke-width="1" stroke="black" d="M 202 146 168 231"/>
<path stroke-width="1" stroke="black" d="M 134 241 190 146"/>
<path stroke-width="1" stroke="black" d="M 134 241 164 97"/>
<path stroke-width="1" stroke="black" d="M 134 241 140 83"/>
<path stroke-width="1" stroke="black" d="M 134 241 115 320"/>
<path stroke-width="1" stroke="black" d="M 134 241 202 146"/>
<path stroke-width="1" stroke="black" d="M 134 241 96 176"/>
<path stroke-width="1" stroke="black" d="M 274 141 202 146"/>
<path stroke-width="1" stroke="black" d="M 202 146 187 215"/>
<path stroke-width="1" stroke="black" d="M 202 146 171 187"/>
<path stroke-width="1" stroke="black" d="M 202 146 111 210"/>
<path stroke-width="1" stroke="black" d="M 202 146 141 166"/>
<path stroke-width="1" stroke="black" d="M 202 146 115 158"/>
<path stroke-width="1" stroke="black" d="M 202 146 131 97"/>
<path stroke-width="1" stroke="black" d="M 202 146 115 115"/>
<path stroke-width="1" stroke="black" d="M 202 146 115 115"/>
<path stroke-width="1" stroke="black" d="M 202 146 177 119"/>
<path stroke-width="1" stroke="black" d="M 202 146 182 179"/>
<path stroke-width="1" stroke="black" d="M 134 241 102 176"/>
<path stroke-width="1" stroke="black" d="M 96 176 131 97"/>
<path stroke-width="1" stroke="black" d="M 96 176 115 115"/>
<path stroke-width="1" stroke="black" d="M 241 167 141 166"/>
<path stroke-width="1" stroke="black" d="M 241 167 115 158"/>
<path stroke-width="1" stroke="black" d="M 241 167 131 97"/>
<path stroke-width="1" stroke="black" d="M 241 167 115 115"/>
<path stroke-width="1" stroke="black" d="M 241 167 115 115"/>
<path stroke-width="1" stroke="black" d="M 241 167 177 119"/>
<path stroke-width="1" stroke="black" d="M 241 167 168 231"/>
<path stroke-width="1" stroke="black" d="M 241 167 111 210"/>
<path stroke-width="1" stroke="black" d="M 241 167 187 215"/>
<path stroke-width="1" stroke="black" d="M 241 167 148 237"/>
<path stroke-width="1" stroke="black" d="M 241 167 146 202"/>
<path stroke-width="1" stroke="black" d="M 241 167 109 177"/>
<path stroke-width="1" stroke="black" d="M 241 167 192 175"/>
<path stroke-width="1" stroke="black" d="M 241 167 162 110"/>
<path stroke-width="1" stroke="black" d="M 241 167 102 176"/>
<path stroke-width="1" stroke="black" d="M 241 167 190 146"/>
<path stroke-width="1" stroke="black" d="M 241 167 121 223"/>
<path stroke-width="1" stroke="black" d="M 96 176 115 115"/>
<path stroke-width="1" stroke="black" d="M 241 167 182 179"/>
<path stroke-width="1" stroke="black" d="M 420 167 241 167"/>
<path stroke-width="1" stroke="black" d="M 96 176 177 119"/>
<path stroke-width="1" stroke="black" d="M 96 176 168 231"/>
<path stroke-width="1" stroke="black" d="M 96 176 187 215"/>
<path stroke-width="1" stroke="black" d="M 96 176 121 223"/>
<path stroke-width="1" stroke="black" d="M 96 176 148 237"/>
<path stroke-width="1" stroke="black" d="M 96 176 146 202"/>
<path stroke-width="1" stroke="black" d="M 96 176 109 177"/>
<path stroke-width="1" stroke="black" d="M 241 167 171 187"/>
<path stroke-width="1" stroke="black" d="M 96 176 192 175"/>
<path stroke-width="1" stroke="black" d="M 96 176 102 176"/>
<path stroke-width="1" stroke="black" d="M 96 176 190 146"/>
<path stroke-width="1" stroke="black" d="M 96 176 164 97"/>
<path stroke-width="1" stroke="black" d="M 96 176 140 83"/>
<path stroke-width="1" stroke="black" d="M 96 176 134 241"/>
<path stroke-width="1" stroke="black" d="M 96 176 202 146"/>
<path stroke-width="1" stroke="black" d="M 96 176 20 182"/>
<path stroke-width="1" stroke="black" d="M 96 176 162 110"/>
<path stroke-width="1" stroke="black" d="M 134 241 162 110"/>
<path stroke-width="1" stroke="black" d="M 134 241 192 175"/>
<path stroke-width="1" stroke="black" d="M 134 241 109 177"/>
<path stroke-width="1" stroke="black" d="M 164 97 177 119"/>
<path stroke-width="1" stroke="black" d="M 164 97 168 231"/>
<path stroke-width="1" stroke="black" d="M 164 97 187 215"/>
<path stroke-width="1" stroke="black" d="M 164 97 121 223"/>
<path stroke-width="1" stroke="black" d="M 164 97 148 237"/>
<path stroke-width="1" stroke="black" d="M 164 97 146 202"/>
<path stroke-width="1" stroke="black" d="M 164 97 109 177"/>
<path stroke-width="1" stroke="black" d="M 164 97 115 115"/>
<path stroke-width="1" stroke="black" d="M 164 97 192 175"/>
<path stroke-width="1" stroke="black" d="M 164 97 102 176"/>
<path stroke-width="1" stroke="black" d="M 164 97 190 146"/>
<path stroke-width="1" stroke="black" d="M 164 97 187 44"/>
<path stroke-width="1" stroke="black" d="M 164 97 140 83"/>
<path stroke-width="1" stroke="black" d="M 164 97 134 241"/>
<path stroke-width="1" stroke="black" d="M 164 97 202 146"/>
<path stroke-width="1" stroke="black" d="M 164 97 96 176"/>
<path stroke-width="1" stroke="black" d="M 164 97 162 110"/>
<path stroke-width="1" stroke="black" d="M 164 97 241 167"/>
<path stroke-width="1" stroke="black" d="M 164 97 115 115"/>
<path stroke-width="1" stroke="black" d="M 164 97 115 158"/>
<path stroke-width="1" stroke="black" d="M 190 146 109 177"/>
<path stroke-width="1" stroke="black" d="M 190 146 192 175"/>
<path stroke-width="1" stroke="black" d="M 190 146 162 110"/>
<path stroke-width="1" stroke="black" d="M 190 146 102 176"/>
<path stroke-width="1" stroke="black" d="M 190 146 229 139"/>
<path stroke-width="1" stroke="black" d="M 190 146 164 97"/>
<path stroke-width="1" stroke="black" d="M 190 146 140 83"/>
<path stroke-width="1" stroke="black" d="M 164 97 131 97"/>
<path stroke-width="1" stroke="black" d="M 190 146 134 241"/>
<path stroke-width="1" stroke="black" d="M 190 146 96 176"/>
<path stroke-width="1" stroke="black" d="M 190 146 241 167"/>
<path stroke-width="1" stroke="black" d="M 187 44 164 97"/>
<path stroke-width="1" stroke="black" d="M 164 97 171 187"/>
<path stroke-width="1" stroke="black" d="M 164 97 182 179"/>
<path stroke-width="1" stroke="black" d="M 164 97 111 210"/>
<path stroke-width="1" stroke="black" d="M 164 97 141 166"/>
<path stroke-width="1" stroke="black" d="M 190 146 202 146"/>
<path stroke-width="1" stroke="black" d="M 129 20 140 83"/>
<path stroke-width="1" stroke="black" d="M 140 83 171 187"/>
<path stroke-width="1" stroke="black" d="M 140 83 182 179"/>
<path stroke-width="1" stroke="black" d="M 140 83 96 176"/>
<path stroke-width="1" stroke="black" d="M 115 320 134 241"/>
<path stroke-width="1" stroke="black" d="M 134 241 171 187"/>
<path stroke-width="1" stroke="black" d="M 134 241 182 179"/>
<path stroke-width="1" stroke="black" d="M 134 241 111 210"/>
<path stroke-width="1" stroke="black" d="M 134 241 141 166"/>
<path stroke-width="1" stroke="black" d="M 134 241 115 158"/>
<path stroke-width="1" stroke="black" d="M 140 83 202 146"/>
<path stroke-width="1" stroke="black" d="M 134 241 131 97"/>
<path stroke-width="1" stroke="black" d="M 134 241 115 115"/>
<path stroke-width="1" stroke="black" d="M 134 241 177 119"/>
<path stroke-width="1" stroke="black" d="M 134 241 168 231"/>
<path stroke-width="1" stroke="black" d="M 134 241 187 215"/>
<path stroke-width="1" stroke="black" d="M 134 241 121 223"/>
<path stroke-width="1" stroke="black" d="M 134 241 148 237"/>
<path stroke-width="1" stroke="black" d="M 134 241 146 202"/>
<path stroke-width="1" stroke="black" d="M 134 241 115 115"/>
<path stroke-width="1" stroke="black" d="M 140 83 134 241"/>
<path stroke-width="1" stroke="black" d="M 140 83 129 20"/>
<path stroke-width="1" stroke="black" d="M 140 83 164 97"/>
<path stroke-width="1" stroke="black" d="M 140 83 111 210"/>
<path stroke-width="1" stroke="black" d="M 140 83 141 166"/>
<path stroke-width="1" stroke="black" d="M 140 83 115 158"/>
<path stroke-width="1" stroke="black" d="M 140 83 131 97"/>
<path stroke-width="1" stroke="black" d="M 140 83 115 115"/>
<path stroke-width="1" stroke="black" d="M 140 83 115 115"/>
<path stroke-width="1" stroke="black" d="M 140 83 177 119"/>
<path stroke-width="1" stroke="black" d="M 140 83 168 231"/>
<path stroke-width="1" stroke="black" d="M 140 83 187 215"/>
<path stroke-width="1" stroke="black" d="M 140 83 121 223"/>
<path stroke-width="1" stroke="black" d="M 140 83 148 237"/>
<path stroke-width="1" stroke="black" d="M 140 83 146 202"/>
<path stroke-width="1" stroke="black" d="M 140 83 109 177"/>
<path stroke-width="1" stroke="black" d="M 140 83 192 175"/>
<path stroke-width="1" stroke="black" d="M 140 83 162 110"/>
<path stroke-width="1" stroke="black" d="M 140 83 102 176"/>
<path stroke-width="1" stroke="black" d="M 140 83 190 146"/>
<path stroke-width="1" stroke="black" d="M 148 237 168 231"/>
<path stroke-width="1" stroke="black" d="M 148 237 177 119"/>
<path stroke-width="1" stroke="black" d="M 148 237 115 115"/>
<path stroke-width="1" stroke="black" d="M 148 237 115 115"/>
<path stroke-width="1" stroke="black" d="M 141 166 96 176"/>
<path stroke-width="1" stroke="black" d="M 141 166 241 167"/>
<path stroke-width="1" stroke="black" d="M 92 145 115 158"/>
<path stroke-width="1" stroke="black" d="M 115 158 171 187"/>
<path stroke-width="1" stroke="black" d="M 115 158 182 179"/>
<path stroke-width="1" stroke="black" d="M 115 158 111 210"/>
<path stroke-width="1" stroke="black" d="M 115 158 141 166"/>
<path stroke-width="1" stroke="black" d="M 141 166 202 146"/>
<path stroke-width="1" stroke="black" d="M 115 158 92 145"/>
<path stroke-width="1" stroke="black" d="M 115 158 115 115"/>
<path stroke-width="1" stroke="black" d="M 115 158 115 115"/>
<path stroke-width="1" stroke="black" d="M 115 158 177 119"/>
<path stroke-width="1" stroke="black" d="M 115 158 168 231"/>
<path stroke-width="1" stroke="black" d="M 115 158 187 215"/>
<path stroke-width="1" stroke="black" d="M 115 158 121 223"/>
<path stroke-width="1" stroke="black" d="M 115 158 148 237"/>
<path stroke-width="1" stroke="black" d="M 115 158 131 97"/>
<path stroke-width="1" stroke="black" d="M 115 158 146 202"/>
<path stroke-width="1" stroke="black" d="M 141 166 134 241"/>
<path stroke-width="1" stroke="black" d="M 141 166 164 97"/>
<path stroke-width="1" stroke="black" d="M 141 166 131 123"/>
<path stroke-width="1" stroke="black" d="M 141 166 115 158"/>
<path stroke-width="1" stroke="black" d="M 141 166 131 97"/>
<path stroke-width="1" stroke="black" d="M 141 166 115 115"/>
<path stroke-width="1" stroke="black" d="M 141 166 115 115"/>
<path stroke-width="1" stroke="black" d="M 141 166 177 119"/>
<path stroke-width="1" stroke="black" d="M 141 166 168 231"/>
<path stroke-width="1" stroke="black" d="M 141 166 140 83"/>
<path stroke-width="1" stroke="black" d="M 141 166 187 215"/>
<path stroke-width="1" stroke="black" d="M 141 166 148 237"/>
<path stroke-width="1" stroke="black" d="M 141 166 146 202"/>
<path stroke-width="1" stroke="black" d="M 141 166 109 177"/>
<path stroke-width="1" stroke="black" d="M 141 166 192 175"/>
<path stroke-width="1" stroke="black" d="M 141 166 162 110"/>
<path stroke-width="1" stroke="black" d="M 141 166 102 176"/>
<path stroke-width="1" stroke="black" d="M 141 166 190 146"/>
<path stroke-width="1" stroke="black" d="M 141 166 121 223"/>
<path stroke-width="1" stroke="black" d="M 141 166 111 210"/>
<path stroke-width="1" stroke="black" d="M 115 158 109 177"/>
<path stroke-width="1" stroke="black" d="M 115 158 162 110"/>
<path stroke-width="1" stroke="black" d="M 131 97 121 223"/>
<path stroke-width="1" stroke="black" d="M 131 97 148 237"/>
<path stroke-width="1" stroke="black" d="M 131 97 146 202"/>
<path stroke-width="1" stroke="black" d="M 131 97 109 177"/>
<path stroke-width="1" stroke="black" d="M 131 97 192 175"/>
<path stroke-width="1" stroke="black" d="M 131 97 162 110"/>
<path stroke-width="1" stroke="black" d="M 131 97 102 176"/>
<path stroke-width="1" stroke="black" d="M 131 97 187 215"/>
<path stroke-width="1" stroke="black" d="M 131 97 190 146"/>
<path stroke-width="1" stroke="black" d="M 131 97 140 83"/>
<path stroke-width="1" stroke="black" d="M 131 97 134 241"/>
<path stroke-width="1" stroke="black" d="M 131 97 202 146"/>
<path stroke-width="1" stroke="black" d="M 131 97 96 176"/>
<path stroke-width="1" stroke="black" d="M 131 97 241 167"/>
<path stroke-width="1" stroke="black" d="M 93 98 115 115"/>
<path stroke-width="1" stroke="black" d="M 115 115 171 187"/>
<path stroke-width="1" stroke="black" d="M 131 97 164 97"/>
<path stroke-width="1" stroke="black" d="M 115 158 192 175"/>
<path stroke-width="1" stroke="black" d="M 131 97 168 231"/>
<path stroke-width="1" stroke="black" d="M 131 97 115 115"/>
<path stroke-width="1" stroke="black" d="M 115 158 102 176"/>
<path stroke-width="1" stroke="black" d="M 115 158 190 146"/>
<path stroke-width="1" stroke="black" d="M 115 158 164 97"/>
<path stroke-width="1" stroke="black" d="M 115 158 140 83"/>
<path stroke-width="1" stroke="black" d="M 115 158 134 241"/>
<path stroke-width="1" stroke="black" d="M 115 158 202 146"/>
<path stroke-width="1" stroke="black" d="M 115 158 96 176"/>
<path stroke-width="1" stroke="black" d="M 131 97 177 119"/>
<path stroke-width="1" stroke="black" d="M 115 158 241 167"/>
<path stroke-width="1" stroke="black" d="M 131 97 171 187"/>
<path stroke-width="1" stroke="black" d="M 131 97 182 179"/>
<path stroke-width="1" stroke="black" d="M 131 97 111 210"/>
<path stroke-width="1" stroke="black" d="M 131 97 141 166"/>
<path stroke-width="1" stroke="black" d="M 131 97 115 158"/>
<path stroke-width="1" stroke="black" d="M 131 97 114 74"/>
<path stroke-width="1" stroke="black" d="M 131 97 115 115"/>
<path stroke-width="1" stroke="black" d="M 114 74 131 97"/>
<path stroke-width="1" stroke="black" d="M 141 166 182 179"/>
<path stroke-width="1" stroke="black" d="M 141 166 171 187"/>
<path stroke-width="1" stroke="black" d="M 131 123 141 166"/>
<path stroke-width="1" stroke="black" d="M 171 187 140 83"/>
<path stroke-width="1" stroke="black" d="M 171 187 134 241"/>
<path stroke-width="1" stroke="black" d="M 171 187 202 146"/>
<path stroke-width="1" stroke="black" d="M 171 187 96 176"/>
<path stroke-width="1" stroke="black" d="M 171 187 241 167"/>
<path stroke-width="1" stroke="black" d="M 202 187 182 179"/>
<path stroke-width="1" stroke="black" d="M 182 179 171 187"/>
<path stroke-width="1" stroke="black" d="M 171 187 164 97"/>
<path stroke-width="1" stroke="black" d="M 182 179 202 187"/>
<path stroke-width="1" stroke="black" d="M 182 179 141 166"/>
<path stroke-width="1" stroke="black" d="M 182 179 115 158"/>
<path stroke-width="1" stroke="black" d="M 182 179 131 97"/>
<path stroke-width="1" stroke="black" d="M 182 179 115 115"/>
<path stroke-width="1" stroke="black" d="M 182 179 115 115"/>
<path stroke-width="1" stroke="black" d="M 182 179 177 119"/>
<path stroke-width="1" stroke="black" d="M 182 179 168 231"/>
<path stroke-width="1" stroke="black" d="M 182 179 111 210"/>
<path stroke-width="1" stroke="black" d="M 182 179 187 215"/>
<path stroke-width="1" stroke="black" d="M 171 187 190 146"/>
<path stroke-width="1" stroke="black" d="M 171 187 162 110"/>
<path stroke-width="1" stroke="black" d="M 171 187 188 200"/>
<path stroke-width="1" stroke="black" d="M 171 187 182 179"/>
<path stroke-width="1" stroke="black" d="M 171 187 111 210"/>
<path stroke-width="1" stroke="black" d="M 171 187 141 166"/>
<path stroke-width="1" stroke="black" d="M 171 187 115 158"/>
<path stroke-width="1" stroke="black" d="M 171 187 131 97"/>
<path stroke-width="1" stroke="black" d="M 171 187 115 115"/>
<path stroke-width="1" stroke="black" d="M 171 187 102 176"/>
<path stroke-width="1" stroke="black" d="M 171 187 115 115"/>
<path stroke-width="1" stroke="black" d="M 171 187 168 231"/>
<path stroke-width="1" stroke="black" d="M 171 187 187 215"/>
<path stroke-width="1" stroke="black" d="M 171 187 121 223"/>
<path stroke-width="1" stroke="black" d="M 171 187 148 237"/>
<path stroke-width="1" stroke="black" d="M 171 187 146 202"/>
<path stroke-width="1" stroke="black" d="M 171 187 109 177"/>
<path stroke-width="1" stroke="black" d="M 171 187 192 175"/>
<path stroke-width="1" stroke="black" d="M 171 187 177 119"/>
<path stroke-width="1" stroke="black" d="M 182 179 121 223"/>
<path stroke-width="1" stroke="black" d="M 182 179 148 237"/>
<path stroke-width="1" stroke="black" d="M 182 179 146 202"/>
<path stroke-width="1" stroke="black" d="M 111 210 168 231"/>
<path stroke-width="1" stroke="black" d="M 111 210 187 215"/>
<path stroke-width="1" stroke="black" d="M 111 210 121 223"/>
<path stroke-width="1" stroke="black" d="M 111 210 148 237"/>
<path stroke-width="1" stroke="black" d="M 111 210 146 202"/>
<path stroke-width="1" stroke="black" d="M 111 210 109 177"/>
<path stroke-width="1" stroke="black" d="M 111 210 192 175"/>
<path stroke-width="1" stroke="black" d="M 111 210 177 119"/>
<path stroke-width="1" stroke="black" d="M 111 210 162 110"/>
<path stroke-width="1" stroke="black" d="M 111 210 190 146"/>
<path stroke-width="1" stroke="black" d="M 111 210 164 97"/>
<path stroke-width="1" stroke="black" d="M 111 210 140 83"/>
<path stroke-width="1" stroke="black" d="M 111 210 134 241"/>
<path stroke-width="1" stroke="black" d="M 111 210 202 146"/>
<path stroke-width="1" stroke="black" d="M 111 210 96 176"/>
<path stroke-width="1" stroke="black" d="M 111 210 241 167"/>
<path stroke-width="1" stroke="black" d="M 111 210 102 176"/>
<path stroke-width="1" stroke="black" d="M 111 210 115 115"/>
<path stroke-width="1" stroke="black" d="M 111 210 115 115"/>
<path stroke-width="1" stroke="black" d="M 111 210 131 97"/>
<path stroke-width="1" stroke="black" d="M 182 179 109 177"/>
<path stroke-width="1" stroke="black" d="M 182 179 192 175"/>
<path stroke-width="1" stroke="black" d="M 182 179 162 110"/>
<path stroke-width="1" stroke="black" d="M 182 179 102 176"/>
<path stroke-width="1" stroke="black" d="M 182 179 190 146"/>
<path stroke-width="1" stroke="black" d="M 182 179 164 97"/>
<path stroke-width="1" stroke="black" d="M 182 179 140 83"/>
<path stroke-width="1" stroke="black" d="M 182 179 134 241"/>
<path stroke-width="1" stroke="black" d="M 182 179 202 146"/>
<path stroke-width="1" stroke="black" d="M 182 179 96 176"/>
<path stroke-width="1" stroke="black" d="M 182 179 241 167"/>
<path stroke-width="1" stroke="black" d="M 88 230 111 210"/>
<path stroke-width="1" stroke="black" d="M 111 210 171 187"/>
<path stroke-width="1" stroke="black" d="M 111 210 182 179"/>
<path stroke-width="1" stroke="black" d="M 111 210 88 230"/>
<path stroke-width="1" stroke="black" d="M 111 210 141 166"/>
<path stroke-width="1" stroke="black" d="M 111 210 115 158"/>
<path stroke-width="1" stroke="black" d="M 115 115 182 179"/>
<path stroke-width="1" stroke="black" d="M 241 167 164 97"/>
<path stroke-width="1" stroke="black" d="M 115 115 111 210"/>
<path stroke-width="1" stroke="black" d="M 115 115 115 158"/>
<path stroke-width="1" stroke="black" d="M 187 215 111 210"/>
<path stroke-width="1" stroke="black" d="M 187 215 141 166"/>
<path stroke-width="1" stroke="black" d="M 187 215 115 158"/>
<path stroke-width="1" stroke="black" d="M 187 215 131 97"/>
<path stroke-width="1" stroke="black" d="M 187 215 115 115"/>
<path stroke-width="1" stroke="black" d="M 187 215 115 115"/>
<path stroke-width="1" stroke="black" d="M 187 215 177 119"/>
<path stroke-width="1" stroke="black" d="M 187 215 182 179"/>
<path stroke-width="1" stroke="black" d="M 187 215 168 231"/>
<path stroke-width="1" stroke="black" d="M 187 215 121 223"/>
<path stroke-width="1" stroke="black" d="M 187 215 148 237"/>
<path stroke-width="1" stroke="black" d="M 187 215 146 202"/>
<path stroke-width="1" stroke="black" d="M 187 215 109 177"/>
<path stroke-width="1" stroke="black" d="M 187 215 192 175"/>
<path stroke-width="1" stroke="black" d="M 187 215 162 110"/>
<path stroke-width="1" stroke="black" d="M 187 215 102 176"/>
<path stroke-width="1" stroke="black" d="M 187 215 212 236"/>
<path stroke-width="1" stroke="black" d="M 187 215 190 146"/>
<path stroke-width="1" stroke="black" d="M 187 215 171 187"/>
<path stroke-width="1" stroke="black" d="M 168 231 241 167"/>
<path stroke-width="1" stroke="black" d="M 168 231 177 119"/>
<path stroke-width="1" stroke="black" d="M 168 231 182 269"/>
<path stroke-width="1" stroke="black" d="M 168 231 187 215"/>
<path stroke-width="1" stroke="black" d="M 168 231 121 223"/>
<path stroke-width="1" stroke="black" d="M 168 231 148 237"/>
<path stroke-width="1" stroke="black" d="M 168 231 146 202"/>
<path stroke-width="1" stroke="black" d="M 168 231 109 177"/>
<path stroke-width="1" stroke="black" d="M 212 236 187 215"/>
<path stroke-width="1" stroke="black" d="M 168 231 192 175"/>
<path stroke-width="1" stroke="black" d="M 168 231 102 176"/>
<path stroke-width="1" stroke="black" d="M 168 231 190 146"/>
<path stroke-width="1" stroke="black" d="M 168 231 164 97"/>
<path stroke-width="1" stroke="black" d="M 168 231 140 83"/>
<path stroke-width="1" stroke="black" d="M 168 231 134 241"/>
<path stroke-width="1" stroke="black" d="M 168 231 202 146"/>
<path stroke-width="1" stroke="black" d="M 168 231 96 176"/>
<path stroke-width="1" stroke="black" d="M 168 231 162 110"/>
<path stroke-width="1" stroke="black" d="M 168 231 115 115"/>
<path stroke-width="1" stroke="black" d="M 187 215 164 97"/>
<path stroke-width="1" stroke="black" d="M 187 215 134 241"/>
<path stroke-width="1" stroke="black" d="M 121 223 162 110"/>
<path stroke-width="1" stroke="black" d="M 121 223 102 176"/>
<path stroke-width="1" stroke="black" d="M 121 223 190 146"/>
<path stroke-width="1" stroke="black" d="M 121 223 164 97"/>
<path stroke-width="1" stroke="black" d="M 121 223 140 83"/>
<path stroke-width="1" stroke="black" d="M 121 223 134 241"/>
<path stroke-width="1" stroke="black" d="M 121 223 202 146"/>
<path stroke-width="1" stroke="black" d="M 121 223 192 175"/>
<path stroke-width="1" stroke="black" d="M 121 223 96 176"/>
<path stroke-width="1" stroke="black" d="M 142 284 148 237"/>
<path stroke-width="1" stroke="black" d="M 148 237 171 187"/>
<path stroke-width="1" stroke="black" d="M 148 237 182 179"/>
<path stroke-width="1" stroke="black" d="M 148 237 111 210"/>
<path stroke-width="1" stroke="black" d="M 148 237 141 166"/>
<path stroke-width="1" stroke="black" d="M 148 237 115 158"/>
<path stroke-width="1" stroke="black" d="M 148 237 131 97"/>
<path stroke-width="1" stroke="black" d="M 121 223 241 167"/>
<path stroke-width="1" stroke="black" d="M 187 215 140 83"/>
<path stroke-width="1" stroke="black" d="M 121 223 109 177"/>
<path stroke-width="1" stroke="black" d="M 121 223 148 237"/>
<path stroke-width="1" stroke="black" d="M 187 215 202 146"/>
<path stroke-width="1" stroke="black" d="M 187 215 96 176"/>
<path stroke-width="1" stroke="black" d="M 187 215 241 167"/>
<path stroke-width="1" stroke="black" d="M 98 260 121 223"/>
<path stroke-width="1" stroke="black" d="M 121 223 171 187"/>
<path stroke-width="1" stroke="black" d="M 121 223 182 179"/>
<path stroke-width="1" stroke="black" d="M 121 223 111 210"/>
<path stroke-width="1" stroke="black" d="M 121 223 146 202"/>
<path stroke-width="1" stroke="black" d="M 121 223 141 166"/>
<path stroke-width="1" stroke="black" d="M 121 223 131 97"/>
<path stroke-width="1" stroke="black" d="M 121 223 115 115"/>
<path stroke-width="1" stroke="black" d="M 121 223 115 115"/>
<path stroke-width="1" stroke="black" d="M 121 223 177 119"/>
<path stroke-width="1" stroke="black" d="M 121 223 168 231"/>
<path stroke-width="1" stroke="black" d="M 121 223 187 215"/>
<path stroke-width="1" stroke="black" d="M 121 223 98 260"/>
<path stroke-width="1" stroke="black" d="M 121 223 115 158"/>
<path stroke-width="1" stroke="black" d="M 168 231 115 115"/>
<path stroke-width="1" stroke="black" d="M 168 231 131 97"/>
<path stroke-width="1" stroke="black" d="M 168 231 115 158"/>
<path stroke-width="1" stroke="black" d="M 93 98 115 115"/>
<path stroke-width="1" stroke="black" d="M 115 115 171 187"/>
<path stroke-width="1" stroke="black" d="M 115 115 182 179"/>
<path stroke-width="1" stroke="black" d="M 115 115 111 210"/>
<path stroke-width="1" stroke="black" d="M 115 115 141 166"/>
<path stroke-width="1" stroke="black" d="M 115 115 115 158"/>
<path stroke-width="1" stroke="black" d="M 115 115 131 97"/>
<path stroke-width="1" stroke="black" d="M 115 115 241 167"/>
<path stroke-width="1" stroke="black" d="M 115 115 115 115"/>
<path stroke-width="1" stroke="black" d="M 115 115 177 119"/>
<path stroke-width="1" stroke="black" d="M 115 115 168 231"/>
<path stroke-width="1" stroke="black" d="M 115 115 187 215"/>
<path stroke-width="1" stroke="black" d="M 115 115 121 223"/>
<path stroke-width="1" stroke="black" d="M 115 115 148 237"/>
<path stroke-width="1" stroke="black" d="M 115 115 146 202"/>
<path stroke-width="1" stroke="black" d="M 115 115 109 177"/>
<path stroke-width="1" stroke="black" d="M 115 115 93 98"/>
<path stroke-width="1" stroke="black" d="M 115 115 192 175"/>
<path stroke-width="1" stroke="black" d="M 115 115 96 176"/>
<path stroke-width="1" stroke="black" d="M 115 115 134 241"/>
<path stroke-width="1" stroke="black" d="M 115 115 131 97"/>
<path stroke-width="1" stroke="black" d="M 115 115 93 98"/>
<path stroke-width="1" stroke="black" d="M 115 115 115 115"/>
<path stroke-width="1" stroke="black" d="M 115 115 177 119"/>
<path stroke-width="1" stroke="black" d="M 115 115 168 231"/>
<path stroke-width="1" stroke="black" d="M 115 115 187 215"/>
<path stroke-width="1" stroke="black" d="M 115 115 121 223"/>
<path stroke-width="1" stroke="black" d="M 115 115 202 146"/>
<path stroke-width="1" stroke="black" d="M 115 115 148 237"/>
<path stroke-width="1" stroke="black" d="M 115 115 109 177"/>
<path stroke-width="1" stroke="black" d="M 115 115 192 175"/>
<path stroke-width="1" stroke="black" d="M 115 115 162 110"/>
<path stroke-width="1" stroke="black" d="M 115 115 102 176"/>
<path stroke-width="1" stroke="black" d="M 115 115 190 146"/>
<path stroke-width="1" stroke="black" d="M 115 115 164 97"/>
<path stroke-width="1" stroke="black" d="M 115 115 140 83"/>
<path stroke-width="1" stroke="black" d="M 115 115 146 202"/>
<path stroke-width="1" stroke="black" d="M 115 115 162 110"/>
<path stroke-width="1" stroke="black" d="M 115 115 102 176"/>
<path stroke-width="1" stroke="black" d="M 115 115 190 146"/>
<path stroke-width="1" stroke="black" d="M 177 119 109 177"/>
<path stroke-width="1" stroke="black" d="M 177 119 192 175"/>
<path stroke-width="1" stroke="black" d="M 177 119 162 110"/>
<path stroke-width="1" stroke="black" d="M 177 119 102 176"/>
<path stroke-width="1" stroke="black" d="M 177 119 190 146"/>
<path stroke-width="1" stroke="black" d="M 177 119 164 97"/>
<path stroke-width="1" stroke="black" d="M 177 119 140 83"/>
<path stroke-width="1" stroke="black" d="M 177 119 146 202"/>
<path stroke-width="1" stroke="black" d="M 177 119 134 241"/>
<path stroke-width="1" stroke="black" d="M 177 119 96 176"/>
<path stroke-width="1" stroke="black" d="M 177 119 241 167"/>
<path stroke-width="1" stroke="black" d="M 182 269 168 231"/>
<path stroke-width="1" stroke="black" d="M 168 231 171 187"/>
<path stroke-width="1" stroke="black" d="M 168 231 182 179"/>
<path stroke-width="1" stroke="black" d="M 168 231 111 210"/>
<path stroke-width="1" stroke="black" d="M 168 231 141 166"/>
<path stroke-width="1" stroke="black" d="M 177 119 202 146"/>
<path stroke-width="1" stroke="black" d="M 177 119 148 237"/>
<path stroke-width="1" stroke="black" d="M 177 119 121 223"/>
<path stroke-width="1" stroke="black" d="M 177 119 187 215"/>
<path stroke-width="1" stroke="black" d="M 115 115 164 97"/>
<path stroke-width="1" stroke="black" d="M 115 115 140 83"/>
<path stroke-width="1" stroke="black" d="M 115 115 134 241"/>
<path stroke-width="1" stroke="black" d="M 115 115 202 146"/>
<path stroke-width="1" stroke="black" d="M 115 115 96 176"/>
<path stroke-width="1" stroke="black" d="M 115 115 241 167"/>
<path stroke-width="1" stroke="black" d="M 195 95 177 119"/>
<path stroke-width="1" stroke="black" d="M 177 119 171 187"/>
<path stroke-width="1" stroke="black" d="M 177 119 182 179"/>
<path stroke-width="1" stroke="black" d="M 177 119 111 210"/>
<path stroke-width="1" stroke="black" d="M 177 119 141 166"/>
<path stroke-width="1" stroke="black" d="M 177 119 115 158"/>
<path stroke-width="1" stroke="black" d="M 177 119 131 97"/>
<path stroke-width="1" stroke="black" d="M 177 119 115 115"/>
<path stroke-width="1" stroke="black" d="M 177 119 115 115"/>
<path stroke-width="1" stroke="black" d="M 177 119 195 95"/>
<path stroke-width="1" stroke="black" d="M 177 119 168 231"/>
<path stroke-width="1" stroke="black" d="M 115 115 141 166"/>
<path stroke-width="1" stroke="black" d="M 241 167 420 167"/>
<circle cx="188" cy="200" r="7.0" style="fill:fuchsia;stroke:black;stroke-width:1.0"/>
<circle cx="171" cy="187" r="7.0" style="fill:fuchsia;stroke:black;stroke-width:1.0"/>
<circle cx="202" cy="187" r="7.0" style="fill:red;stroke:black;stroke-width:1.0"/>
<circle cx="182" cy="179" r="7.0" style="fill:red;stroke:black;stroke-width:1.0"/>
<circle cx="88" cy="230" r="7.0" style="fill:blue;stroke:black;stroke-width:1.0"/>
<circle cx="111" cy="210" r="7.0" style="fill:blue;stroke:black;stroke-width:1.0"/>
<circle cx="131" cy="123" r="7.0" style="fill:red;stroke:black;stroke-width:1.0"/>
<circle cx="141" cy="166" r="7.0" style="fill:red;stroke:black;stroke-width:1.0"/>
<circle cx="92" cy="145" r="7.0" style="fill:orange;stroke:black;stroke-width:1.0"/>
<circle cx="115" cy="158" r="7.0" style="fill:orange;stroke:black;stroke-width:1.0"/>
<circle cx="114" cy="74" r="7.0" style="fill:olive;stroke:black;stroke-width:1.0"/>
<circle cx="131" cy="97" r="7.0" style="fill:olive;stroke:black;stroke-width:1.0"/>
<circle cx="93" cy="98" r="7.0" style="fill:red;stroke:black;stroke-width:1.0"/>
<circle cx="115" cy="115" r="7.0" style="fill:red;stroke:black;stroke-width:1.0"/>
<circle cx="93" cy="98" r="7.0" style="fill:red;stroke:black;stroke-width:1.0"/>
<circle cx="115" cy="115" r="7.0" style="fill:red;stroke:black;stroke-width:1.0"/>
<circle cx="195" cy="95" r="7.0" style="fill:blue;stroke:black;stroke-width:1.0"/>
<circle cx="177" cy="119" r="7.0" style="fill:blue;stroke:black;stroke-width:1.0"/>
<circle cx="182" cy="269" r="7.0" style="fill:brown;stroke:black;stroke-width:1.0"/>
<circle cx="168" cy="231" r="7.0" style="fill:brown;stroke:black;stroke-width:1.0"/>
<circle cx="212" cy="236" r="7.0" style="fill:red;stroke:black;stroke-width:1.0"/>
<circle cx="187" cy="215" r="7.0" style="fill:red;stroke:black;stroke-width:1.0"/>
<circle cx="98" cy="260" r="7.0" style="fill:yellow;stroke:black;stroke-width:1.0"/>
<circle cx="121" cy="223" r="7.0" style="fill:yellow;stroke:black;stroke-width:1.0"/>
<circle cx="142" cy="284" r="7.0" style="fill:purple;stroke:black;stroke-width:1.0"/>
<circle cx="148" cy="237" r="7.0" style="fill:purple;stroke:black;stroke-width:1.0"/>
<circle cx="134" cy="234" r="7.0" style="fill:red;stroke:black;stroke-width:1.0"/>
<circle cx="146" cy="202" r="7.0" style="fill:red;stroke:black;stroke-width:1.0"/>
<circle cx="75" cy="176" r="7.0" style="fill:red;stroke:black;stroke-width:1.0"/>
<circle cx="109" cy="177" r="7.0" style="fill:brown;stroke:black;stroke-width:1.0"/>
<circle cx="224" cy="184" r="7.0" style="fill:blue;stroke:black;stroke-width:1.0"/>
<circle cx="192" cy="175" r="7.0" style="fill:red;stroke:black;stroke-width:1.0"/>
<circle cx="177" cy="66" r="7.0" style="fill:red;stroke:black;stroke-width:1.0"/>
<circle cx="162" cy="110" r="7.0" style="fill:red;stroke:black;stroke-width:1.0"/>
<circle cx="61" cy="180" r="7.0" style="fill:red;stroke:black;stroke-width:1.0"/>
<circle cx="102" cy="176" r="7.0" style="fill:red;stroke:black;stroke-width:1.0"/>
<circle cx="229" cy="139" r="7.0" style="fill:aqua;stroke:black;stroke-width:1.0"/>
<circle cx="190" cy="146" r="7.0" style="fill:aqua;stroke:black;stroke-width:1.0"/>
<circle cx="187" cy="44" r="7.0" style="fill:green;stroke:black;stroke-width:1.0"/>
<circle cx="164" cy="97" r="7.0" style="fill:green;stroke:black;stroke-width:1.0"/>
<circle cx="129" cy="20" r="7.0" style="fill:fuchsia;stroke:black;stroke-width:1.0"/>
<circle cx="140" cy="83" r="7.0" style="fill:fuchsia;stroke:black;stroke-width:1.0"/>
<circle cx="115" cy="320" r="7.0" style="fill:fuchsia;stroke:black;stroke-width:1.0"/>
<circle cx="134" cy="241" r="7.0" style="fill:blue;stroke:black;stroke-width:1.0"/>
<circle cx="274" cy="141" r="7.0" style="fill:fuchsia;stroke:black;stroke-width:1.0"/>
<circle cx="202" cy="146" r="7.0" style="fill:fuchsia;stroke:black;stroke-width:1.0"/>
<circle cx="20" cy="182" r="7.0" style="fill:fuchsia;stroke:black;stroke-width:1.0"/>
<circle cx="96" cy="176" r="7.0" style="fill:fuchsia;stroke:black;stroke-width:1.0"/>
<circle cx="420" cy="167" r="7.0" style="fill:red;stroke:black;stroke-width:1.0"/>
<circle cx="241" cy="167" r="7.0" style="fill:red;stroke:black;stroke-width:1.0"/>
</svg>
