<svg width="440" height="340" xmlns="http://www.w3.org/2000/svg">
<path stroke-width="1" stroke="black" d="M 232 177 420 94"/>
<path stroke-width="1" stroke="black" d="M 377 320 420 94"/>
<path stroke-width="1" stroke="black" d="M 377 320 232 177"/>
<path stroke-width="1" stroke="black" d="M 162 20 377 320"/>
<path stroke-width="1" stroke="black" d="M 162 20 20 280"/>
<path stroke-width="1" stroke="black" d="M 162 20 420 94"/>
<path stroke-width="1" stroke="black" d="M 162 20 232 177"/>
<path stroke-width="1" stroke="black" d="M 20 280 377 320"/>
<path stroke-width="1" stroke="black" d="M 20 280 162 20"/>
<path stroke-width="1" stroke="black" d="M 20 280 420 94"/>
<path stroke-width="1" stroke="black" d="M 20 280 232 177"/>
<path stroke-width="1" stroke="black" d="M 420 94 377 320"/>
<path stroke-width="1" stroke="black" d="M 420 94 162 20"/>
<path stroke-width="1" stroke="black" d="M 420 94 20 280"/>
<path stroke-width="1" stroke="black" d="M 420 94 232 177"/>
<path stroke-width="1" stroke="black" d="M 232 177 377 320"/>
<path stroke-width="1" stroke="black" d="M 232 177 162 20"/>
<path stroke-width="1" stroke="black" d="M 232 177 20 280"/>
<path stroke-width="1" stroke="black" d="M 377 320 20 280"/>
<path stroke-width="1" stroke="black" d="M 377 320 162 20"/>
<circle cx="232" cy="177" r="20.0" style="fill:gray;stroke:black;stroke-width:1.0"/>
<circle cx="420" cy="94" r="20.0" style="fill:gray;stroke:black;stroke-width:1.0"/>
<circle cx="20" cy="280" r="20.0" style="fill:gray;stroke:black;stroke-width:1.0"/>
<circle cx="162" cy="20" r="20.0" style="fill:gray;stroke:black;stroke-width:1.0"/>
<circle cx="377" cy="320" r="20.0" style="fill:gray;stroke:black;stroke-width:1.0"/>
</svg>
