<svg width="440" height="340" xmlns="http://www.w3.org/2000/svg">
<path stroke-width="1" stroke="black" d="M 204 107 420 218"/>
<path stroke-width="1" stroke="black" d="M 280 20 420 218"/>
<path stroke-width="1" stroke="black" d="M 280 20 204 107"/>
<path stroke-width="1" stroke="black" d="M 168 320 280 20"/>
<path stroke-width="1" stroke="black" d="M 168 320 20 72"/>
<path stroke-width="1" stroke="black" d="M 168 320 420 218"/>
<path stroke-width="1" stroke="black" d="M 168 320 204 107"/>
<path stroke-width="1" stroke="black" d="M 20 72 280 20"/>
<path stroke-width="1" stroke="black" d="M 20 72 168 320"/>
<path stroke-width="1" stroke="black" d="M 20 72 420 218"/>
<path stroke-width="1" stroke="black" d="M 20 72 204 107"/>
<path stroke-width="1" stroke="black" d="M 420 218 280 20"/>
<path stroke-width="1" stroke="black" d="M 420 218 168 320"/>
<path stroke-width="1" stroke="black" d="M 420 218 20 72"/>
<path stroke-width="1" stroke="black" d="M 420 218 204 107"/>
<path stroke-width="1" stroke="black" d="M 204 107 280 20"/>
<path stroke-width="1" stroke="black" d="M 204 107 168 320"/>
<path stroke-width="1" stroke="black" d="M 204 107 20 72"/>
<path stroke-width="1" stroke="black" d="M 280 20 20 72"/>
<path stroke-width="1" stroke="black" d="M 280 20 168 320"/>
<circle cx="204" cy="107" r="7.0" style="fill:gray;stroke:black;stroke-width:1.0"/>
<circle cx="420" cy="218" r="7.0" style="fill:gray;stroke:black;stroke-width:1.0"/>
<circle cx="20" cy="72" r="7.0" style="fill:gray;stroke:black;stroke-width:1.0"/>
<circle cx="168" cy="320" r="7.0" style="fill:gray;stroke:black;stroke-width:1.0"/>
<circle cx="280" cy="20" r="7.0" style="fill:gray;stroke:black;stroke-width:1.0"/>
</svg>
