<svg width="440" height="340" xmlns="http://www.w3.org/2000/svg">
<path stroke-width="20.0" stroke="black" d="M 264 142 20 158"/>
<path stroke-width="0.5" stroke="black" d="M 387 20 20 158"/>
<path stroke-width="20.0" stroke="black" d="M 387 20 264 142"/>
<path stroke-width="0.5" stroke="black" d="M 276 320 387 20"/>
<path stroke-width="0.5" stroke="black" d="M 276 320 420 195"/>
<path stroke-width="0.5" stroke="black" d="M 276 320 20 158"/>
<path stroke-width="19.025" stroke="black" d="M 276 320 264 142"/>
<path stroke-width="0.5" stroke="black" d="M 420 195 387 20"/>
<path stroke-width="0.5" stroke="black" d="M 420 195 276 320"/>
<path stroke-width="0.5" stroke="black" d="M 420 195 20 158"/>
<path stroke-width="20.0" stroke="black" d="M 420 195 264 142"/>
<path stroke-width="0.5" stroke="black" d="M 20 158 387 20"/>
<path stroke-width="0.5" stroke="black" d="M 20 158 276 320"/>
<path stroke-width="0.5" stroke="black" d="M 20 158 420 195"/>
<path stroke-width="20.0" stroke="black" d="M 20 158 264 142"/>
<path stroke-width="20.0" stroke="black" d="M 264 142 387 20"/>
<path stroke-width="19.025" stroke="black" d="M 264 142 276 320"/>
<path stroke-width="20.0" stroke="black" d="M 264 142 420 195"/>
<path stroke-width="0.5" stroke="black" d="M 387 20 420 195"/>
<path stroke-width="0.5" stroke="black" d="M 387 20 276 320"/>
<circle cx="264" cy="142" r="7.0" style="fill:gray;stroke:black;stroke-width:1.0"/>
<circle cx="20" cy="158" r="7.0" style="fill:gray;stroke:black;stroke-width:1.0"/>
<circle cx="420" cy="195" r="7.0" style="fill:gray;stroke:black;stroke-width:1.0"/>
<circle cx="276" cy="320" r="7.0" style="fill:gray;stroke:black;stroke-width:1.0"/>
<circle cx="387" cy="20" r="7.0" style="fill:gray;stroke:black;stroke-width:1.0"/>
</svg>
