<svg width="440" height="340" xmlns="http://www.w3.org/2000/svg">
<path stroke-width="20.0" stroke="black" d="M 221 187 20 113"/>
<path stroke-width="0.5" stroke="black" d="M 110 320 20 113"/>
<path stroke-width="20.0" stroke="black" d="M 110 320 221 187"/>
<path stroke-width="0.5" stroke="black" d="M 295 20 110 320"/>
<path stroke-width="0.5" stroke="black" d="M 295 20 420 255"/>
<path stroke-width="0.5" stroke="black" d="M 295 20 20 113"/>
<path stroke-width="19.025" stroke="black" d="M 295 20 221 187"/>
<path stroke-width="0.5" stroke="black" d="M 420 255 110 320"/>
<path stroke-width="0.5" stroke="black" d="M 420 255 295 20"/>
<path stroke-width="0.5" stroke="black" d="M 420 255 20 113"/>
<path stroke-width="20.0" stroke="black" d="M 420 255 221 187"/>
<path stroke-width="0.5" stroke="black" d="M 20 113 110 320"/>
<path stroke-width="0.5" stroke="black" d="M 20 113 295 20"/>
<path stroke-width="0.5" stroke="black" d="M 20 113 420 255"/>
<path stroke-width="20.0" stroke="black" d="M 20 113 221 187"/>
<path stroke-width="20.0" stroke="black" d="M 221 187 110 320"/>
<path stroke-width="19.025" stroke="black" d="M 221 187 295 20"/>
<path stroke-width="20.0" stroke="black" d="M 221 187 420 255"/>
<path stroke-width="0.5" stroke="black" d="M 110 320 420 255"/>
<path stroke-width="0.5" stroke="black" d="M 110 320 295 20"/>
<circle cx="221" cy="187" r="7.0" style="fill:gray;stroke:black;stroke-width:1.0"/>
<circle cx="20" cy="113" r="7.0" style="fill:gray;stroke:black;stroke-width:1.0"/>
<circle cx="420" cy="255" r="7.0" style="fill:gray;stroke:black;stroke-width:1.0"/>
<circle cx="295" cy="20" r="7.0" style="fill:gray;stroke:black;stroke-width:1.0"/>
<circle cx="110" cy="320" r="7.0" style="fill:gray;stroke:black;stroke-width:1.0"/>
</svg>
