<svg width="440" height="340" xmlns="http://www.w3.org/2000/svg">
<path stroke-width="1" stroke="black" d="M 244 219 250 218"/>
<path stroke-width="1" stroke="black" d="M 209 230 239 218"/>
<path stroke-width="1" stroke="black" d="M 209 230 250 218"/>
<path stroke-width="1" stroke="black" d="M 20 259 209 230"/>
<path stroke-width="1" stroke="black" d="M 221 139 268 221"/>
<path stroke-width="1" stroke="black" d="M 221 139 267 224"/>
<path stroke-width="1" stroke="black" d="M 221 139 209 230"/>
<path stroke-width="1" stroke="black" d="M 221 139 155 20"/>
<path stroke-width="1" stroke="black" d="M 221 139 273 275"/>
<path stroke-width="1" stroke="black" d="M 221 139 359 268"/>
<path stroke-width="1" stroke="black" d="M 221 139 326 217"/>
<path stroke-width="1" stroke="black" d="M 221 139 280 201"/>
<path stroke-width="1" stroke="black" d="M 221 139 239 218"/>
<path stroke-width="1" stroke="black" d="M 221 139 250 218"/>
<path stroke-width="1" stroke="black" d="M 155 20 221 139"/>
<path stroke-width="1" stroke="black" d="M 273 275 268 221"/>
<path stroke-width="1" stroke="black" d="M 273 275 267 224"/>
<path stroke-width="1" stroke="black" d="M 273 275 209 230"/>
<path stroke-width="1" stroke="black" d="M 273 275 221 139"/>
<path stroke-width="1" stroke="black" d="M 273 275 302 320"/>
<path stroke-width="1" stroke="black" d="M 273 275 359 268"/>
<path stroke-width="1" stroke="black" d="M 273 275 326 217"/>
<path stroke-width="1" stroke="black" d="M 273 275 280 201"/>
<path stroke-width="1" stroke="black" d="M 273 275 239 218"/>
<path stroke-width="1" stroke="black" d="M 209 230 280 201"/>
<path stroke-width="1" stroke="black" d="M 209 230 326 217"/>
<path stroke-width="1" stroke="black" d="M 209 230 359 268"/>
<path stroke-width="1" stroke="black" d="M 209 230 273 275"/>
<path stroke-width="1" stroke="black" d="M 268 221 209 230"/>
<path stroke-width="1" stroke="black" d="M 268 221 221 139"/>
<path stroke-width="1" stroke="black" d="M 268 221 273 275"/>
<path stroke-width="1" stroke="black" d="M 268 221 359 268"/>
<path stroke-width="1" stroke="black" d="M 268 221 326 217"/>
<path stroke-width="1" stroke="black" d="M 268 221 280 201"/>
<path stroke-width="1" stroke="black" d="M 268 221 239 218"/>
<path stroke-width="1" stroke="black" d="M 268 221 250 218"/>
<path stroke-width="1" stroke="black" d="M 266 220 268 221"/>
<path stroke-width="1" stroke="black" d="M 267 224 268 221"/>
<path stroke-width="1" stroke="black" d="M 267 224 261 226"/>
<path stroke-width="1" stroke="black" d="M 273 275 250 218"/>
<path stroke-width="1" stroke="black" d="M 267 224 209 230"/>
<path stroke-width="1" stroke="black" d="M 267 224 273 275"/>
<path stroke-width="1" stroke="black" d="M 267 224 359 268"/>
<path stroke-width="1" stroke="black" d="M 267 224 326 217"/>
<path stroke-width="1" stroke="black" d="M 267 224 280 201"/>
<path stroke-width="1" stroke="black" d="M 267 224 239 218"/>
<path stroke-width="1" stroke="black" d="M 267 224 250 218"/>
<path stroke-width="1" stroke="black" d="M 261 226 267 224"/>
<path stroke-width="1" stroke="black" d="M 209 230 268 221"/>
<path stroke-width="1" stroke="black" d="M 209 230 267 224"/>
<path stroke-width="1" stroke="black" d="M 209 230 20 259"/>
<path stroke-width="1" stroke="black" d="M 209 230 221 139"/>
<path stroke-width="1" stroke="black" d="M 267 224 221 139"/>
<path stroke-width="1" stroke="black" d="M 302 320 273 275"/>
<path stroke-width="1" stroke="black" d="M 359 268 268 221"/>
<path stroke-width="1" stroke="black" d="M 359 268 267 224"/>
<path stroke-width="1" stroke="black" d="M 280 201 239 218"/>
<path stroke-width="1" stroke="black" d="M 280 201 250 218"/>
<path stroke-width="1" stroke="black" d="M 294 194 280 201"/>
<path stroke-width="1" stroke="black" d="M 239 218 268 221"/>
<path stroke-width="1" stroke="black" d="M 239 218 267 224"/>
<path stroke-width="1" stroke="black" d="M 239 218 209 230"/>
<path stroke-width="1" stroke="black" d="M 239 218 221 139"/>
<path stroke-width="1" stroke="black" d="M 239 218 273 275"/>
<path stroke-width="1" stroke="black" d="M 239 218 359 268"/>
<path stroke-width="1" stroke="black" d="M 239 218 326 217"/>
<path stroke-width="1" stroke="black" d="M 239 218 280 201"/>
<path stroke-width="1" stroke="black" d="M 280 201 294 194"/>
<path stroke-width="1" stroke="black" d="M 239 218 226 217"/>
<path stroke-width="1" stroke="black" d="M 226 217 239 218"/>
<path stroke-width="1" stroke="black" d="M 250 218 268 221"/>
<path stroke-width="1" stroke="black" d="M 250 218 267 224"/>
<path stroke-width="1" stroke="black" d="M 250 218 209 230"/>
<path stroke-width="1" stroke="black" d="M 250 218 221 139"/>
<path stroke-width="1" stroke="black" d="M 250 218 273 275"/>
<path stroke-width="1" stroke="black" d="M 250 218 359 268"/>
<path stroke-width="1" stroke="black" d="M 250 218 326 217"/>
<path stroke-width="1" stroke="black" d="M 250 218 280 201"/>
<path stroke-width="1" stroke="black" d="M 250 218 239 218"/>
<path stroke-width="1" stroke="black" d="M 250 218 244 219"/>
<path stroke-width="1" stroke="black" d="M 239 218 250 218"/>
<path stroke-width="1" stroke="black" d="M 268 221 267 224"/>
<path stroke-width="1" stroke="black" d="M 280 201 326 217"/>
<path stroke-width="1" stroke="black" d="M 280 201 273 275"/>
<path stroke-width="1" stroke="black" d="M 359 268 209 230"/>
<path stroke-width="1" stroke="black" d="M 359 268 221 139"/>
<path stroke-width="1" stroke="black" d="M 359 268 273 275"/>
<path stroke-width="1" stroke="black" d="M 359 268 420 296"/>
<path stroke-width="1" stroke="black" d="M 359 268 326 217"/>
<path stroke-width="1" stroke="black" d="M 359 268 280 201"/>
<path stroke-width="1" stroke="black" d="M 359 268 239 218"/>
<path stroke-width="1" stroke="black" d="M 359 268 250 218"/>
<path stroke-width="1" stroke="black" d="M 420 296 359 268"/>
<path stroke-width="1" stroke="black" d="M 326 217 268 221"/>
<path stroke-width="1" stroke="black" d="M 326 217 267 224"/>
<path stroke-width="1" stroke="black" d="M 280 201 359 268"/>
<path stroke-width="1" stroke="black" d="M 326 217 209 230"/>
<path stroke-width="1" stroke="black" d="M 326 217 273 275"/>
<path stroke-width="1" stroke="black" d="M 326 217 359 268"/>
<path stroke-width="1" stroke="black" d="M 326 217 361 217"/>
<path stroke-width="1" stroke="black" d="M 326 217 280 201"/>
<path stroke-width="1" stroke="black" d="M 326 217 239 218"/>
<path stroke-width="1" stroke="black" d="M 326 217 250 218"/>
<path stroke-width="1" stroke="black" d="M 361 217 326 217"/>
<path stroke-width="1" stroke="black" d="M 280 201 268 221"/>
<path stroke-width="1" stroke="black" d="M 280 201 267 224"/>
<path stroke-width="1" stroke="black" d="M 280 201 209 230"/>
<path stroke-width="1" stroke="black" d="M 280 201 221 139"/>
<path stroke-width="1" stroke="black" d="M 326 217 221 139"/>
<path stroke-width="1" stroke="black" d="M 268 221 266 220"/>
<circle cx="244" cy="219" r="20.0" style="fill:gray;stroke:black;stroke-width:1.0"/>
<circle cx="250" cy="218" r="20.0" style="fill:gray;stroke:black;stroke-width:1.0"/>
<circle cx="226" cy="217" r="20.0" style="fill:gray;stroke:black;stroke-width:1.0"/>
<circle cx="239" cy="218" r="20.0" style="fill:gray;stroke:black;stroke-width:1.0"/>
<circle cx="294" cy="194" r="20.0" style="fill:gray;stroke:black;stroke-width:1.0"/>
<circle cx="280" cy="201" r="20.0" style="fill:gray;stroke:black;stroke-width:1.0"/>
<circle cx="361" cy="217" r="20.0" style="fill:gray;stroke:black;stroke-width:1.0"/>
<circle cx="326" cy="217" r="20.0" style="fill:gray;stroke:black;stroke-width:1.0"/>
<circle cx="420" cy="296" r="20.0" style="fill:gray;stroke:black;stroke-width:1.0"/>
<circle cx="359" cy="268" r="20.0" style="fill:gray;stroke:black;stroke-width:1.0"/>
<circle cx="302" cy="320" r="20.0" style="fill:gray;stroke:black;stroke-width:1.0"/>
<circle cx="273" cy="275" r="20.0" style="fill:gray;stroke:black;stroke-width:1.0"/>
<circle cx="155" cy="20" r="20.0" style="fill:gray;stroke:black;stroke-width:1.0"/>
<circle cx="221" cy="139" r="20.0" style="fill:gray;stroke:black;stroke-width:1.0"/>
<circle cx="20" cy="259" r="20.0" style="fill:gray;stroke:black;stroke-width:1.0"/>
<circle cx="209" cy="230" r="20.0" style="fill:gray;stroke:black;stroke-width:1.0"/>
<circle cx="261" cy="226" r="20.0" style="fill:gray;stroke:black;stroke-width:1.0"/>
<circle cx="267" cy="224" r="20.0" style="fill:gray;stroke:black;stroke-width:1.0"/>
<circle cx="266" cy="220" r="20.0" style="fill:gray;stroke:black;stroke-width:1.0"/>
<circle cx="268" cy="221" r="20.0" style="fill:gray;stroke:black;stroke-width:1.0"/>
</svg>
