<svg width="440" height="340" xmlns="http://www.w3.org/2000/svg">
<path stroke-width="1" stroke="black" d="M 237 219 235 214"/>
<path stroke-width="1" stroke="black" d="M 190 226 228 214"/>
<path stroke-width="1" stroke="black" d="M 190 226 235 214"/>
<path stroke-width="1" stroke="black" d="M 20 216 190 226"/>
<path stroke-width="1" stroke="black" d="M 184 144 241 228"/>
<path stroke-width="1" stroke="black" d="M 184 144 244 234"/>
<path stroke-width="1" stroke="black" d="M 184 144 190 226"/>
<path stroke-width="1" stroke="black" d="M 184 144 102 20"/>
<path stroke-width="1" stroke="black" d="M 184 144 334 207"/>
<path stroke-width="1" stroke="black" d="M 184 144 225 130"/>
<path stroke-width="1" stroke="black" d="M 184 144 282 286"/>
<path stroke-width="1" stroke="black" d="M 184 144 218 261"/>
<path stroke-width="1" stroke="black" d="M 184 144 228 214"/>
<path stroke-width="1" stroke="black" d="M 184 144 235 214"/>
<path stroke-width="1" stroke="black" d="M 102 20 184 144"/>
<path stroke-width="1" stroke="black" d="M 334 207 241 228"/>
<path stroke-width="1" stroke="black" d="M 334 207 244 234"/>
<path stroke-width="1" stroke="black" d="M 334 207 190 226"/>
<path stroke-width="1" stroke="black" d="M 334 207 184 144"/>
<path stroke-width="1" stroke="black" d="M 334 207 420 198"/>
<path stroke-width="1" stroke="black" d="M 334 207 225 130"/>
<path stroke-width="1" stroke="black" d="M 334 207 282 286"/>
<path stroke-width="1" stroke="black" d="M 334 207 218 261"/>
<path stroke-width="1" stroke="black" d="M 334 207 228 214"/>
<path stroke-width="1" stroke="black" d="M 190 226 218 261"/>
<path stroke-width="1" stroke="black" d="M 190 226 282 286"/>
<path stroke-width="1" stroke="black" d="M 190 226 225 130"/>
<path stroke-width="1" stroke="black" d="M 190 226 334 207"/>
<path stroke-width="1" stroke="black" d="M 241 228 190 226"/>
<path stroke-width="1" stroke="black" d="M 241 228 184 144"/>
<path stroke-width="1" stroke="black" d="M 241 228 334 207"/>
<path stroke-width="1" stroke="black" d="M 241 228 225 130"/>
<path stroke-width="1" stroke="black" d="M 241 228 282 286"/>
<path stroke-width="1" stroke="black" d="M 241 228 218 261"/>
<path stroke-width="1" stroke="black" d="M 241 228 228 214"/>
<path stroke-width="1" stroke="black" d="M 241 228 235 214"/>
<path stroke-width="1" stroke="black" d="M 240 231 241 228"/>
<path stroke-width="1" stroke="black" d="M 244 234 241 228"/>
<path stroke-width="1" stroke="black" d="M 244 234 248 243"/>
<path stroke-width="1" stroke="black" d="M 334 207 235 214"/>
<path stroke-width="1" stroke="black" d="M 244 234 190 226"/>
<path stroke-width="1" stroke="black" d="M 244 234 334 207"/>
<path stroke-width="1" stroke="black" d="M 244 234 225 130"/>
<path stroke-width="1" stroke="black" d="M 244 234 282 286"/>
<path stroke-width="1" stroke="black" d="M 244 234 218 261"/>
<path stroke-width="1" stroke="black" d="M 244 234 228 214"/>
<path stroke-width="1" stroke="black" d="M 244 234 235 214"/>
<path stroke-width="1" stroke="black" d="M 248 243 244 234"/>
<path stroke-width="1" stroke="black" d="M 190 226 241 228"/>
<path stroke-width="1" stroke="black" d="M 190 226 244 234"/>
<path stroke-width="1" stroke="black" d="M 190 226 20 216"/>
<path stroke-width="1" stroke="black" d="M 190 226 184 144"/>
<path stroke-width="1" stroke="black" d="M 244 234 184 144"/>
<path stroke-width="1" stroke="black" d="M 420 198 334 207"/>
<path stroke-width="1" stroke="black" d="M 225 130 241 228"/>
<path stroke-width="1" stroke="black" d="M 225 130 244 234"/>
<path stroke-width="1" stroke="black" d="M 218 261 228 214"/>
<path stroke-width="1" stroke="black" d="M 218 261 235 214"/>
<path stroke-width="1" stroke="black" d="M 209 284 218 261"/>
<path stroke-width="1" stroke="black" d="M 228 214 241 228"/>
<path stroke-width="1" stroke="black" d="M 228 214 244 234"/>
<path stroke-width="1" stroke="black" d="M 228 214 190 226"/>
<path stroke-width="1" stroke="black" d="M 228 214 184 144"/>
<path stroke-width="1" stroke="black" d="M 228 214 334 207"/>
<path stroke-width="1" stroke="black" d="M 228 214 225 130"/>
<path stroke-width="1" stroke="black" d="M 228 214 282 286"/>
<path stroke-width="1" stroke="black" d="M 228 214 218 261"/>
<path stroke-width="1" stroke="black" d="M 218 261 209 284"/>
<path stroke-width="1" stroke="black" d="M 228 214 221 213"/>
<path stroke-width="1" stroke="black" d="M 221 213 228 214"/>
<path stroke-width="1" stroke="black" d="M 235 214 241 228"/>
<path stroke-width="1" stroke="black" d="M 235 214 244 234"/>
<path stroke-width="1" stroke="black" d="M 235 214 190 226"/>
<path stroke-width="1" stroke="black" d="M 235 214 184 144"/>
<path stroke-width="1" stroke="black" d="M 235 214 334 207"/>
<path stroke-width="1" stroke="black" d="M 235 214 225 130"/>
<path stroke-width="1" stroke="black" d="M 235 214 282 286"/>
<path stroke-width="1" stroke="black" d="M 235 214 218 261"/>
<path stroke-width="1" stroke="black" d="M 235 214 228 214"/>
<path stroke-width="1" stroke="black" d="M 235 214 237 219"/>
<path stroke-width="1" stroke="black" d="M 228 214 235 214"/>
<path stroke-width="1" stroke="black" d="M 241 228 244 234"/>
<path stroke-width="1" stroke="black" d="M 218 261 282 286"/>
<path stroke-width="1" stroke="black" d="M 218 261 334 207"/>
<path stroke-width="1" stroke="black" d="M 225 130 190 226"/>
<path stroke-width="1" stroke="black" d="M 225 130 184 144"/>
<path stroke-width="1" stroke="black" d="M 225 130 334 207"/>
<path stroke-width="1" stroke="black" d="M 225 130 214 71"/>
<path stroke-width="1" stroke="black" d="M 225 130 282 286"/>
<path stroke-width="1" stroke="black" d="M 225 130 218 261"/>
<path stroke-width="1" stroke="black" d="M 225 130 228 214"/>
<path stroke-width="1" stroke="black" d="M 225 130 235 214"/>
<path stroke-width="1" stroke="black" d="M 214 71 225 130"/>
<path stroke-width="1" stroke="black" d="M 282 286 241 228"/>
<path stroke-width="1" stroke="black" d="M 282 286 244 234"/>
<path stroke-width="1" stroke="black" d="M 218 261 225 130"/>
<path stroke-width="1" stroke="black" d="M 282 286 190 226"/>
<path stroke-width="1" stroke="black" d="M 282 286 334 207"/>
<path stroke-width="1" stroke="black" d="M 282 286 225 130"/>
<path stroke-width="1" stroke="black" d="M 282 286 308 320"/>
<path stroke-width="1" stroke="black" d="M 282 286 218 261"/>
<path stroke-width="1" stroke="black" d="M 282 286 228 214"/>
<path stroke-width="1" stroke="black" d="M 282 286 235 214"/>
<path stroke-width="1" stroke="black" d="M 308 320 282 286"/>
<path stroke-width="1" stroke="black" d="M 218 261 241 228"/>
<path stroke-width="1" stroke="black" d="M 218 261 244 234"/>
<path stroke-width="1" stroke="black" d="M 218 261 190 226"/>
<path stroke-width="1" stroke="black" d="M 218 261 184 144"/>
<path stroke-width="1" stroke="black" d="M 282 286 184 144"/>
<path stroke-width="1" stroke="black" d="M 241 228 240 231"/>
<circle cx="237" cy="219" r="7.0" style="fill:green;stroke:black;stroke-width:1.0"/>
<circle cx="235" cy="214" r="7.0" style="fill:green;stroke:black;stroke-width:1.0"/>
<circle cx="221" cy="213" r="7.0" style="fill:green;stroke:black;stroke-width:1.0"/>
<circle cx="228" cy="214" r="7.0" style="fill:green;stroke:black;stroke-width:1.0"/>
<circle cx="209" cy="284" r="7.0" style="fill:green;stroke:black;stroke-width:1.0"/>
<circle cx="218" cy="261" r="7.0" style="fill:green;stroke:black;stroke-width:1.0"/>
<circle cx="308" cy="320" r="7.0" style="fill:green;stroke:black;stroke-width:1.0"/>
<circle cx="282" cy="286" r="7.0" style="fill:green;stroke:black;stroke-width:1.0"/>
<circle cx="214" cy="71" r="7.0" style="fill:orange;stroke:black;stroke-width:1.0"/>
<circle cx="225" cy="130" r="7.0" style="fill:orange;stroke:black;stroke-width:1.0"/>
<circle cx="420" cy="198" r="7.0" style="fill:red;stroke:black;stroke-width:1.0"/>
<circle cx="334" cy="207" r="7.0" style="fill:red;stroke:black;stroke-width:1.0"/>
<circle cx="102" cy="20" r="7.0" style="fill:purple;stroke:black;stroke-width:1.0"/>
<circle cx="184" cy="144" r="7.0" style="fill:purple;stroke:black;stroke-width:1.0"/>
<circle cx="20" cy="216" r="7.0" style="fill:green;stroke:black;stroke-width:1.0"/>
<circle cx="190" cy="226" r="7.0" style="fill:green;stroke:black;stroke-width:1.0"/>
<circle cx="248" cy="243" r="7.0" style="fill:blue;stroke:black;stroke-width:1.0"/>
<circle cx="244" cy="234" r="7.0" style="fill:blue;stroke:black;stroke-width:1.0"/>
<circle cx="240" cy="231" r="7.0" style="fill:green;stroke:black;stroke-width:1.0"/>
<circle cx="241" cy="228" r="7.0" style="fill:orange;stroke:black;stroke-width:1.0"/>
</svg>
