<svg width="440" height="340" xmlns="http://www.w3.org/2000/svg">
<path stroke-width="1" stroke="black" d="M 220 199 212 197"/>
<path stroke-width="1" stroke="black" d="M 199 160 220 207"/>
<path stroke-width="1" stroke="black" d="M 199 160 212 197"/>
<path stroke-width="1" stroke="black" d="M 118 20 199 160"/>
<path stroke-width="1" stroke="black" d="M 299 225 213 192"/>
<path stroke-width="1" stroke="black" d="M 299 225 218 192"/>
<path stroke-width="1" stroke="black" d="M 299 225 199 160"/>
<path stroke-width="1" stroke="black" d="M 299 225 420 278"/>
<path stroke-width="1" stroke="black" d="M 299 225 110 262"/>
<path stroke-width="1" stroke="black" d="M 299 225 108 133"/>
<path stroke-width="1" stroke="black" d="M 299 225 259 150"/>
<path stroke-width="1" stroke="black" d="M 299 225 249 206"/>
<path stroke-width="1" stroke="black" d="M 299 225 220 207"/>
<path stroke-width="1" stroke="black" d="M 299 225 212 197"/>
<path stroke-width="1" stroke="black" d="M 420 278 299 225"/>
<path stroke-width="1" stroke="black" d="M 110 262 213 192"/>
<path stroke-width="1" stroke="black" d="M 110 262 218 192"/>
<path stroke-width="1" stroke="black" d="M 110 262 199 160"/>
<path stroke-width="1" stroke="black" d="M 110 262 299 225"/>
<path stroke-width="1" stroke="black" d="M 110 262 20 320"/>
<path stroke-width="1" stroke="black" d="M 110 262 108 133"/>
<path stroke-width="1" stroke="black" d="M 110 262 259 150"/>
<path stroke-width="1" stroke="black" d="M 110 262 249 206"/>
<path stroke-width="1" stroke="black" d="M 110 262 220 207"/>
<path stroke-width="1" stroke="black" d="M 199 160 249 206"/>
<path stroke-width="1" stroke="black" d="M 199 160 259 150"/>
<path stroke-width="1" stroke="black" d="M 199 160 108 133"/>
<path stroke-width="1" stroke="black" d="M 199 160 110 262"/>
<path stroke-width="1" stroke="black" d="M 213 192 199 160"/>
<path stroke-width="1" stroke="black" d="M 213 192 299 225"/>
<path stroke-width="1" stroke="black" d="M 213 192 110 262"/>
<path stroke-width="1" stroke="black" d="M 213 192 108 133"/>
<path stroke-width="1" stroke="black" d="M 213 192 259 150"/>
<path stroke-width="1" stroke="black" d="M 213 192 249 206"/>
<path stroke-width="1" stroke="black" d="M 213 192 220 207"/>
<path stroke-width="1" stroke="black" d="M 213 192 212 197"/>
<path stroke-width="1" stroke="black" d="M 217 194 213 192"/>
<path stroke-width="1" stroke="black" d="M 218 192 213 192"/>
<path stroke-width="1" stroke="black" d="M 218 192 227 194"/>
<path stroke-width="1" stroke="black" d="M 110 262 212 197"/>
<path stroke-width="1" stroke="black" d="M 218 192 199 160"/>
<path stroke-width="1" stroke="black" d="M 218 192 110 262"/>
<path stroke-width="1" stroke="black" d="M 218 192 108 133"/>
<path stroke-width="1" stroke="black" d="M 218 192 259 150"/>
<path stroke-width="1" stroke="black" d="M 218 192 249 206"/>
<path stroke-width="1" stroke="black" d="M 218 192 220 207"/>
<path stroke-width="1" stroke="black" d="M 218 192 212 197"/>
<path stroke-width="1" stroke="black" d="M 227 194 218 192"/>
<path stroke-width="1" stroke="black" d="M 199 160 213 192"/>
<path stroke-width="1" stroke="black" d="M 199 160 218 192"/>
<path stroke-width="1" stroke="black" d="M 199 160 118 20"/>
<path stroke-width="1" stroke="black" d="M 199 160 299 225"/>
<path stroke-width="1" stroke="black" d="M 218 192 299 225"/>
<path stroke-width="1" stroke="black" d="M 20 320 110 262"/>
<path stroke-width="1" stroke="black" d="M 108 133 213 192"/>
<path stroke-width="1" stroke="black" d="M 108 133 218 192"/>
<path stroke-width="1" stroke="black" d="M 249 206 220 207"/>
<path stroke-width="1" stroke="black" d="M 249 206 212 197"/>
<path stroke-width="1" stroke="black" d="M 271 214 249 206"/>
<path stroke-width="1" stroke="black" d="M 220 207 213 192"/>
<path stroke-width="1" stroke="black" d="M 220 207 218 192"/>
<path stroke-width="1" stroke="black" d="M 220 207 199 160"/>
<path stroke-width="1" stroke="black" d="M 220 207 299 225"/>
<path stroke-width="1" stroke="black" d="M 220 207 110 262"/>
<path stroke-width="1" stroke="black" d="M 220 207 108 133"/>
<path stroke-width="1" stroke="black" d="M 220 207 259 150"/>
<path stroke-width="1" stroke="black" d="M 220 207 249 206"/>
<path stroke-width="1" stroke="black" d="M 249 206 271 214"/>
<path stroke-width="1" stroke="black" d="M 220 207 227 216"/>
<path stroke-width="1" stroke="black" d="M 227 216 220 207"/>
<path stroke-width="1" stroke="black" d="M 212 197 213 192"/>
<path stroke-width="1" stroke="black" d="M 212 197 218 192"/>
<path stroke-width="1" stroke="black" d="M 212 197 199 160"/>
<path stroke-width="1" stroke="black" d="M 212 197 299 225"/>
<path stroke-width="1" stroke="black" d="M 212 197 110 262"/>
<path stroke-width="1" stroke="black" d="M 212 197 108 133"/>
<path stroke-width="1" stroke="black" d="M 212 197 259 150"/>
<path stroke-width="1" stroke="black" d="M 212 197 249 206"/>
<path stroke-width="1" stroke="black" d="M 212 197 220 207"/>
<path stroke-width="1" stroke="black" d="M 212 197 220 199"/>
<path stroke-width="1" stroke="black" d="M 220 207 212 197"/>
<path stroke-width="1" stroke="black" d="M 213 192 218 192"/>
<path stroke-width="1" stroke="black" d="M 249 206 259 150"/>
<path stroke-width="1" stroke="black" d="M 249 206 110 262"/>
<path stroke-width="1" stroke="black" d="M 108 133 199 160"/>
<path stroke-width="1" stroke="black" d="M 108 133 299 225"/>
<path stroke-width="1" stroke="black" d="M 108 133 110 262"/>
<path stroke-width="1" stroke="black" d="M 108 133 44 95"/>
<path stroke-width="1" stroke="black" d="M 108 133 259 150"/>
<path stroke-width="1" stroke="black" d="M 108 133 249 206"/>
<path stroke-width="1" stroke="black" d="M 108 133 220 207"/>
<path stroke-width="1" stroke="black" d="M 108 133 212 197"/>
<path stroke-width="1" stroke="black" d="M 44 95 108 133"/>
<path stroke-width="1" stroke="black" d="M 259 150 213 192"/>
<path stroke-width="1" stroke="black" d="M 259 150 218 192"/>
<path stroke-width="1" stroke="black" d="M 249 206 108 133"/>
<path stroke-width="1" stroke="black" d="M 259 150 199 160"/>
<path stroke-width="1" stroke="black" d="M 259 150 110 262"/>
<path stroke-width="1" stroke="black" d="M 259 150 108 133"/>
<path stroke-width="1" stroke="black" d="M 259 150 281 126"/>
<path stroke-width="1" stroke="black" d="M 259 150 249 206"/>
<path stroke-width="1" stroke="black" d="M 259 150 220 207"/>
<path stroke-width="1" stroke="black" d="M 259 150 212 197"/>
<path stroke-width="1" stroke="black" d="M 281 126 259 150"/>
<path stroke-width="1" stroke="black" d="M 249 206 213 192"/>
<path stroke-width="1" stroke="black" d="M 249 206 218 192"/>
<path stroke-width="1" stroke="black" d="M 249 206 199 160"/>
<path stroke-width="1" stroke="black" d="M 249 206 299 225"/>
<path stroke-width="1" stroke="black" d="M 259 150 299 225"/>
<path stroke-width="1" stroke="black" d="M 213 192 217 194"/>
<circle cx="220" cy="199" r="7.0" style="fill:orange;stroke:black;stroke-width:1.0"/>
<circle cx="212" cy="197" r="7.0" style="fill:orange;stroke:black;stroke-width:1.0"/>
<circle cx="227" cy="216" r="7.0" style="fill:blue;stroke:black;stroke-width:1.0"/>
<circle cx="220" cy="207" r="7.0" style="fill:blue;stroke:black;stroke-width:1.0"/>
<circle cx="271" cy="214" r="7.0" style="fill:purple;stroke:black;stroke-width:1.0"/>
<circle cx="249" cy="206" r="7.0" style="fill:purple;stroke:black;stroke-width:1.0"/>
<circle cx="281" cy="126" r="7.0" style="fill:orange;stroke:black;stroke-width:1.0"/>
<circle cx="259" cy="150" r="7.0" style="fill:orange;stroke:black;stroke-width:1.0"/>
<circle cx="44" cy="95" r="7.0" style="fill:red;stroke:black;stroke-width:1.0"/>
<circle cx="108" cy="133" r="7.0" style="fill:red;stroke:black;stroke-width:1.0"/>
<circle cx="20" cy="320" r="7.0" style="fill:red;stroke:black;stroke-width:1.0"/>
<circle cx="110" cy="262" r="7.0" style="fill:green;stroke:black;stroke-width:1.0"/>
<circle cx="420" cy="278" r="7.0" style="fill:green;stroke:black;stroke-width:1.0"/>
<circle cx="299" cy="225" r="7.0" style="fill:green;stroke:black;stroke-width:1.0"/>
<circle cx="118" cy="20" r="7.0" style="fill:orange;stroke:black;stroke-width:1.0"/>
<circle cx="199" cy="160" r="7.0" style="fill:orange;stroke:black;stroke-width:1.0"/>
<circle cx="227" cy="194" r="7.0" style="fill:blue;stroke:black;stroke-width:1.0"/>
<circle cx="218" cy="192" r="7.0" style="fill:purple;stroke:black;stroke-width:1.0"/>
<circle cx="217" cy="194" r="7.0" style="fill:blue;stroke:black;stroke-width:1.0"/>
<circle cx="213" cy="192" r="7.0" style="fill:purple;stroke:black;stroke-width:1.0"/>
</svg>
