<svg width="440" height="340" xmlns="http://www.w3.org/2000/svg">
<path stroke-width="15.150404514438717" stroke="black" d="M 193 254 196 249"/>
<path stroke-width="0.7958713615293813" stroke="black" d="M 236 206 197 267"/>
<path stroke-width="1.1012869605274522" stroke="black" d="M 236 206 196 249"/>
<path stroke-width="0.5858981372182075" stroke="black" d="M 420 20 236 206"/>
<path stroke-width="0.5286327124060691" stroke="black" d="M 251 262 173 257"/>
<path stroke-width="0.5190884749373794" stroke="black" d="M 251 262 171 261"/>
<path stroke-width="0.5095442374686897" stroke="black" d="M 251 262 236 206"/>
<path stroke-width="0.7195174617798635" stroke="black" d="M 251 262 368 273"/>
<path stroke-width="0.5095442374686897" stroke="black" d="M 251 262 300 206"/>
<path stroke-width="0.5095442374686897" stroke="black" d="M 251 262 84 255"/>
<path stroke-width="0.5286327124060691" stroke="black" d="M 251 262 136 189"/>
<path stroke-width="0.5668096622808281" stroke="black" d="M 251 262 177 296"/>
<path stroke-width="0.6431635620303457" stroke="black" d="M 251 262 197 267"/>
<path stroke-width="0.7958713615293813" stroke="black" d="M 251 262 196 249"/>
<path stroke-width="0.7195174617798635" stroke="black" d="M 368 273 251 262"/>
<path stroke-width="0.5668096622808281" stroke="black" d="M 300 206 173 257"/>
<path stroke-width="0.5477211873434485" stroke="black" d="M 300 206 171 261"/>
<path stroke-width="0.5095442374686897" stroke="black" d="M 300 206 236 206"/>
<path stroke-width="0.5095442374686897" stroke="black" d="M 300 206 251 262"/>
<path stroke-width="0.9485791610284168" stroke="black" d="M 300 206 399 161"/>
<path stroke-width="0.5095442374686897" stroke="black" d="M 300 206 84 255"/>
<path stroke-width="0.5095442374686897" stroke="black" d="M 300 206 136 189"/>
<path stroke-width="0.5286327124060691" stroke="black" d="M 300 206 177 296"/>
<path stroke-width="0.5668096622808281" stroke="black" d="M 300 206 197 267"/>
<path stroke-width="0.6431635620303457" stroke="black" d="M 236 206 177 296"/>
<path stroke-width="0.5668096622808281" stroke="black" d="M 236 206 136 189"/>
<path stroke-width="0.5286327124060691" stroke="black" d="M 236 206 84 255"/>
<path stroke-width="0.5095442374686897" stroke="black" d="M 236 206 300 206"/>
<path stroke-width="0.5095442374686897" stroke="black" d="M 173 257 236 206"/>
<path stroke-width="0.5286327124060691" stroke="black" d="M 173 257 251 262"/>
<path stroke-width="0.5668096622808281" stroke="black" d="M 173 257 300 206"/>
<path stroke-width="0.6431635620303457" stroke="black" d="M 173 257 84 255"/>
<path stroke-width="0.7958713615293813" stroke="black" d="M 173 257 136 189"/>
<path stroke-width="1.1012869605274522" stroke="black" d="M 173 257 177 296"/>
<path stroke-width="1.7121181585235943" stroke="black" d="M 173 257 197 267"/>
<path stroke-width="2.933780554515878" stroke="black" d="M 173 257 196 249"/>
<path stroke-width="20.0" stroke="black" d="M 169 261 173 257"/>
<path stroke-width="0.5" stroke="black" d="M 171 261 173 257"/>
<path stroke-width="10.245789306999107" stroke="black" d="M 171 261 165 270"/>
<path stroke-width="0.6431635620303457" stroke="black" d="M 300 206 196 249"/>
<path stroke-width="0.5095442374686897" stroke="black" d="M 171 261 236 206"/>
<path stroke-width="0.5477211873434485" stroke="black" d="M 171 261 300 206"/>
<path stroke-width="0.6049866121555869" stroke="black" d="M 171 261 84 255"/>
<path stroke-width="0.7195174617798635" stroke="black" d="M 171 261 136 189"/>
<path stroke-width="0.9485791610284168" stroke="black" d="M 171 261 177 296"/>
<path stroke-width="1.4067025595255234" stroke="black" d="M 171 261 197 267"/>
<path stroke-width="2.3229493565197363" stroke="black" d="M 171 261 196 249"/>
<path stroke-width="10.245789306999107" stroke="black" d="M 165 270 171 261"/>
<path stroke-width="0.5095442374686897" stroke="black" d="M 236 206 173 257"/>
<path stroke-width="0.5095442374686897" stroke="black" d="M 236 206 171 261"/>
<path stroke-width="0.5858981372182075" stroke="black" d="M 236 206 420 20"/>
<path stroke-width="0.5095442374686897" stroke="black" d="M 236 206 251 262"/>
<path stroke-width="0.5190884749373794" stroke="black" d="M 171 261 251 262"/>
<path stroke-width="0.9485791610284168" stroke="black" d="M 399 161 300 206"/>
<path stroke-width="0.6431635620303457" stroke="black" d="M 84 255 173 257"/>
<path stroke-width="0.6049866121555869" stroke="black" d="M 84 255 171 261"/>
<path stroke-width="0.5095442374686897" stroke="black" d="M 177 296 197 267"/>
<path stroke-width="0.5095442374686897" stroke="black" d="M 177 296 196 249"/>
<path stroke-width="4.155442950508162" stroke="black" d="M 167 320 177 296"/>
<path stroke-width="1.7121181585235943" stroke="black" d="M 197 267 173 257"/>
<path stroke-width="1.4067025595255234" stroke="black" d="M 197 267 171 261"/>
<path stroke-width="0.7958713615293813" stroke="black" d="M 197 267 236 206"/>
<path stroke-width="0.6431635620303457" stroke="black" d="M 197 267 251 262"/>
<path stroke-width="0.5668096622808281" stroke="black" d="M 197 267 300 206"/>
<path stroke-width="0.5286327124060691" stroke="black" d="M 197 267 84 255"/>
<path stroke-width="0.5095442374686897" stroke="black" d="M 197 267 136 189"/>
<path stroke-width="0.5095442374686897" stroke="black" d="M 197 267 177 296"/>
<path stroke-width="4.155442950508162" stroke="black" d="M 177 296 167 320"/>
<path stroke-width="7.820430138485015" stroke="black" d="M 197 267 196 281"/>
<path stroke-width="7.820430138485015" stroke="black" d="M 196 281 197 267"/>
<path stroke-width="2.933780554515878" stroke="black" d="M 196 249 173 257"/>
<path stroke-width="2.3229493565197363" stroke="black" d="M 196 249 171 261"/>
<path stroke-width="1.1012869605274522" stroke="black" d="M 196 249 236 206"/>
<path stroke-width="0.7958713615293813" stroke="black" d="M 196 249 251 262"/>
<path stroke-width="0.6431635620303457" stroke="black" d="M 196 249 300 206"/>
<path stroke-width="0.5668096622808281" stroke="black" d="M 196 249 84 255"/>
<path stroke-width="0.5286327124060691" stroke="black" d="M 196 249 136 189"/>
<path stroke-width="0.5095442374686897" stroke="black" d="M 196 249 177 296"/>
<path stroke-width="0.5095442374686897" stroke="black" d="M 196 249 197 267"/>
<path stroke-width="15.150404514438717" stroke="black" d="M 196 249 193 254"/>
<path stroke-width="0.5095442374686897" stroke="black" d="M 197 267 196 249"/>
<path stroke-width="0.5" stroke="black" d="M 173 257 171 261"/>
<path stroke-width="0.5095442374686897" stroke="black" d="M 177 296 136 189"/>
<path stroke-width="0.5286327124060691" stroke="black" d="M 177 296 300 206"/>
<path stroke-width="0.5286327124060691" stroke="black" d="M 84 255 236 206"/>
<path stroke-width="0.5095442374686897" stroke="black" d="M 84 255 251 262"/>
<path stroke-width="0.5095442374686897" stroke="black" d="M 84 255 300 206"/>
<path stroke-width="1.4067025595255234" stroke="black" d="M 84 255 20 256"/>
<path stroke-width="0.5095442374686897" stroke="black" d="M 84 255 136 189"/>
<path stroke-width="0.5095442374686897" stroke="black" d="M 84 255 177 296"/>
<path stroke-width="0.5286327124060691" stroke="black" d="M 84 255 197 267"/>
<path stroke-width="0.5668096622808281" stroke="black" d="M 84 255 196 249"/>
<path stroke-width="1.4067025595255234" stroke="black" d="M 20 256 84 255"/>
<path stroke-width="0.7958713615293813" stroke="black" d="M 136 189 173 257"/>
<path stroke-width="0.7195174617798635" stroke="black" d="M 136 189 171 261"/>
<path stroke-width="0.5095442374686897" stroke="black" d="M 177 296 84 255"/>
<path stroke-width="0.5668096622808281" stroke="black" d="M 136 189 236 206"/>
<path stroke-width="0.5095442374686897" stroke="black" d="M 136 189 300 206"/>
<path stroke-width="0.5095442374686897" stroke="black" d="M 136 189 84 255"/>
<path stroke-width="2.3229493565197363" stroke="black" d="M 136 189 111 154"/>
<path stroke-width="0.5095442374686897" stroke="black" d="M 136 189 177 296"/>
<path stroke-width="0.5095442374686897" stroke="black" d="M 136 189 197 267"/>
<path stroke-width="0.5286327124060691" stroke="black" d="M 136 189 196 249"/>
<path stroke-width="2.3229493565197363" stroke="black" d="M 111 154 136 189"/>
<path stroke-width="1.1012869605274522" stroke="black" d="M 177 296 173 257"/>
<path stroke-width="0.9485791610284168" stroke="black" d="M 177 296 171 261"/>
<path stroke-width="0.6431635620303457" stroke="black" d="M 177 296 236 206"/>
<path stroke-width="0.5668096622808281" stroke="black" d="M 177 296 251 262"/>
<path stroke-width="0.5286327124060691" stroke="black" d="M 136 189 251 262"/>
<path stroke-width="20.0" stroke="black" d="M 173 257 169 261"/>
<circle cx="193" cy="254" r="20.0" style="fill:gray;stroke:black;stroke-width:1.0"/>
<circle cx="196" cy="249" r="20.0" style="fill:gray;stroke:black;stroke-width:1.0"/>
<circle cx="196" cy="281" r="20.0" style="fill:gray;stroke:black;stroke-width:1.0"/>
<circle cx="197" cy="267" r="20.0" style="fill:gray;stroke:black;stroke-width:1.0"/>
<circle cx="167" cy="320" r="20.0" style="fill:gray;stroke:black;stroke-width:1.0"/>
<circle cx="177" cy="296" r="20.0" style="fill:gray;stroke:black;stroke-width:1.0"/>
<circle cx="111" cy="154" r="20.0" style="fill:gray;stroke:black;stroke-width:1.0"/>
<circle cx="136" cy="189" r="20.0" style="fill:gray;stroke:black;stroke-width:1.0"/>
<circle cx="20" cy="256" r="20.0" style="fill:gray;stroke:black;stroke-width:1.0"/>
<circle cx="84" cy="255" r="20.0" style="fill:gray;stroke:black;stroke-width:1.0"/>
<circle cx="399" cy="161" r="20.0" style="fill:gray;stroke:black;stroke-width:1.0"/>
<circle cx="300" cy="206" r="20.0" style="fill:gray;stroke:black;stroke-width:1.0"/>
<circle cx="368" cy="273" r="20.0" style="fill:gray;stroke:black;stroke-width:1.0"/>
<circle cx="251" cy="262" r="20.0" style="fill:gray;stroke:black;stroke-width:1.0"/>
<circle cx="420" cy="20" r="20.0" style="fill:gray;stroke:black;stroke-width:1.0"/>
<circle cx="236" cy="206" r="20.0" style="fill:gray;stroke:black;stroke-width:1.0"/>
<circle cx="165" cy="270" r="20.0" style="fill:gray;stroke:black;stroke-width:1.0"/>
<circle cx="171" cy="261" r="20.0" style="fill:gray;stroke:black;stroke-width:1.0"/>
<circle cx="169" cy="261" r="20.0" style="fill:gray;stroke:black;stroke-width:1.0"/>
<circle cx="173" cy="257" r="20.0" style="fill:gray;stroke:black;stroke-width:1.0"/>
</svg>
