<svg width="440" height="340" xmlns="http://www.w3.org/2000/svg">
<path stroke-width="4.833333333333333" stroke="black" d="M 96 167 255 196"/>
<path stroke-width="0.8095238095238095" stroke="black" d="M 420 117 232 176"/>
<path stroke-width="0.9642857142857143" stroke="black" d="M 420 117 20 84"/>
<path stroke-width="1.4285714285714286" stroke="black" d="M 420 117 243 144"/>
<path stroke-width="0.5" stroke="black" d="M 420 117 262 320"/>
<path stroke-width="0.5" stroke="black" d="M 420 117 395 264"/>
<path stroke-width="0.5" stroke="black" d="M 420 117 329 37"/>
<path stroke-width="0.5" stroke="black" d="M 420 117 169 20"/>
<path stroke-width="2.6666666666666665" stroke="black" d="M 420 117 255 196"/>
<path stroke-width="0.8095238095238095" stroke="black" d="M 420 117 96 167"/>
<path stroke-width="0.8095238095238095" stroke="black" d="M 20 84 79 237"/>
<path stroke-width="0.5" stroke="black" d="M 20 84 184 225"/>
<path stroke-width="0.8095238095238095" stroke="black" d="M 20 84 232 176"/>
<path stroke-width="0.9642857142857143" stroke="black" d="M 20 84 420 117"/>
<path stroke-width="1.4285714285714286" stroke="black" d="M 20 84 243 144"/>
<path stroke-width="0.5" stroke="black" d="M 20 84 262 320"/>
<path stroke-width="0.5" stroke="black" d="M 20 84 395 264"/>
<path stroke-width="0.5" stroke="black" d="M 20 84 329 37"/>
<path stroke-width="0.5" stroke="black" d="M 20 84 169 20"/>
<path stroke-width="2.6666666666666665" stroke="black" d="M 20 84 255 196"/>
<path stroke-width="0.8095238095238095" stroke="black" d="M 20 84 96 167"/>
<path stroke-width="2.6666666666666665" stroke="black" d="M 243 144 79 237"/>
<path stroke-width="1.4285714285714286" stroke="black" d="M 243 144 184 225"/>
<path stroke-width="2.6666666666666665" stroke="black" d="M 243 144 232 176"/>
<path stroke-width="1.4285714285714286" stroke="black" d="M 243 144 420 117"/>
<path stroke-width="1.4285714285714286" stroke="black" d="M 243 144 20 84"/>
<path stroke-width="1.4285714285714286" stroke="black" d="M 243 144 262 320"/>
<path stroke-width="1.4285714285714286" stroke="black" d="M 243 144 395 264"/>
<path stroke-width="1.4285714285714286" stroke="black" d="M 243 144 329 37"/>
<path stroke-width="1.4285714285714286" stroke="black" d="M 243 144 169 20"/>
<path stroke-width="0.5" stroke="black" d="M 420 117 184 225"/>
<path stroke-width="10.095238095238095" stroke="black" d="M 243 144 255 196"/>
<path stroke-width="0.8095238095238095" stroke="black" d="M 420 117 79 237"/>
<path stroke-width="20.0" stroke="black" d="M 232 176 255 196"/>
<path stroke-width="0.8095238095238095" stroke="black" d="M 79 237 420 117"/>
<path stroke-width="0.8095238095238095" stroke="black" d="M 79 237 20 84"/>
<path stroke-width="2.6666666666666665" stroke="black" d="M 79 237 243 144"/>
<path stroke-width="0.8095238095238095" stroke="black" d="M 79 237 262 320"/>
<path stroke-width="0.8095238095238095" stroke="black" d="M 79 237 395 264"/>
<path stroke-width="0.8095238095238095" stroke="black" d="M 79 237 329 37"/>
<path stroke-width="0.8095238095238095" stroke="black" d="M 79 237 169 20"/>
<path stroke-width="5.142857142857143" stroke="black" d="M 79 237 255 196"/>
<path stroke-width="1.4285714285714286" stroke="black" d="M 79 237 96 167"/>
<path stroke-width="0.8095238095238095" stroke="black" d="M 184 225 79 237"/>
<path stroke-width="0.8095238095238095" stroke="black" d="M 184 225 232 176"/>
<path stroke-width="0.5" stroke="black" d="M 184 225 420 117"/>
<path stroke-width="0.5" stroke="black" d="M 184 225 20 84"/>
<path stroke-width="1.4285714285714286" stroke="black" d="M 184 225 243 144"/>
<path stroke-width="0.5" stroke="black" d="M 184 225 262 320"/>
<path stroke-width="0.5" stroke="black" d="M 184 225 395 264"/>
<path stroke-width="0.5" stroke="black" d="M 184 225 329 37"/>
<path stroke-width="0.5" stroke="black" d="M 184 225 169 20"/>
<path stroke-width="16.75" stroke="black" d="M 184 225 255 196"/>
<path stroke-width="0.8095238095238095" stroke="black" d="M 184 225 96 167"/>
<path stroke-width="1.4285714285714286" stroke="black" d="M 232 176 79 237"/>
<path stroke-width="0.8095238095238095" stroke="black" d="M 232 176 184 225"/>
<path stroke-width="0.8095238095238095" stroke="black" d="M 232 176 420 117"/>
<path stroke-width="0.8095238095238095" stroke="black" d="M 232 176 20 84"/>
<path stroke-width="2.6666666666666665" stroke="black" d="M 232 176 243 144"/>
<path stroke-width="0.8095238095238095" stroke="black" d="M 232 176 262 320"/>
<path stroke-width="0.8095238095238095" stroke="black" d="M 232 176 395 264"/>
<path stroke-width="0.8095238095238095" stroke="black" d="M 232 176 329 37"/>
<path stroke-width="0.8095238095238095" stroke="black" d="M 232 176 169 20"/>
<path stroke-width="1.4285714285714286" stroke="black" d="M 232 176 96 167"/>
<path stroke-width="7.619047619047619" stroke="black" d="M 243 144 96 167"/>
<path stroke-width="0.8095238095238095" stroke="black" d="M 262 320 79 237"/>
<path stroke-width="0.5" stroke="black" d="M 262 320 184 225"/>
<path stroke-width="0.5" stroke="black" d="M 169 20 420 117"/>
<path stroke-width="0.5" stroke="black" d="M 169 20 20 84"/>
<path stroke-width="1.4285714285714286" stroke="black" d="M 169 20 243 144"/>
<path stroke-width="0.5" stroke="black" d="M 169 20 262 320"/>
<path stroke-width="0.5" stroke="black" d="M 169 20 395 264"/>
<path stroke-width="0.9642857142857143" stroke="black" d="M 169 20 329 37"/>
<path stroke-width="2.511904761904762" stroke="black" d="M 169 20 255 196"/>
<path stroke-width="0.8095238095238095" stroke="black" d="M 169 20 96 167"/>
<path stroke-width="5.142857142857143" stroke="black" d="M 255 196 79 237"/>
<path stroke-width="16.75" stroke="black" d="M 255 196 184 225"/>
<path stroke-width="20.0" stroke="black" d="M 255 196 232 176"/>
<path stroke-width="2.6666666666666665" stroke="black" d="M 255 196 420 117"/>
<path stroke-width="2.6666666666666665" stroke="black" d="M 255 196 20 84"/>
<path stroke-width="10.095238095238095" stroke="black" d="M 255 196 243 144"/>
<path stroke-width="2.6666666666666665" stroke="black" d="M 255 196 262 320"/>
<path stroke-width="2.6666666666666665" stroke="black" d="M 255 196 395 264"/>
<path stroke-width="2.6666666666666665" stroke="black" d="M 255 196 329 37"/>
<path stroke-width="2.511904761904762" stroke="black" d="M 255 196 169 20"/>
<path stroke-width="4.833333333333333" stroke="black" d="M 255 196 96 167"/>
<path stroke-width="1.4285714285714286" stroke="black" d="M 96 167 79 237"/>
<path stroke-width="0.8095238095238095" stroke="black" d="M 96 167 184 225"/>
<path stroke-width="1.4285714285714286" stroke="black" d="M 96 167 232 176"/>
<path stroke-width="0.8095238095238095" stroke="black" d="M 96 167 420 117"/>
<path stroke-width="0.8095238095238095" stroke="black" d="M 96 167 20 84"/>
<path stroke-width="7.619047619047619" stroke="black" d="M 96 167 243 144"/>
<path stroke-width="0.8095238095238095" stroke="black" d="M 96 167 262 320"/>
<path stroke-width="0.8095238095238095" stroke="black" d="M 96 167 395 264"/>
<path stroke-width="0.8095238095238095" stroke="black" d="M 96 167 329 37"/>
<path stroke-width="0.8095238095238095" stroke="black" d="M 96 167 169 20"/>
<path stroke-width="0.8095238095238095" stroke="black" d="M 169 20 232 176"/>
<path stroke-width="0.5" stroke="black" d="M 169 20 184 225"/>
<path stroke-width="0.8095238095238095" stroke="black" d="M 169 20 79 237"/>
<path stroke-width="0.8095238095238095" stroke="black" d="M 329 37 96 167"/>
<path stroke-width="0.8095238095238095" stroke="black" d="M 262 320 232 176"/>
<path stroke-width="0.5" stroke="black" d="M 262 320 420 117"/>
<path stroke-width="0.5" stroke="black" d="M 262 320 20 84"/>
<path stroke-width="1.4285714285714286" stroke="black" d="M 262 320 243 144"/>
<path stroke-width="0.9642857142857143" stroke="black" d="M 262 320 395 264"/>
<path stroke-width="0.5" stroke="black" d="M 262 320 329 37"/>
<path stroke-width="0.5" stroke="black" d="M 262 320 169 20"/>
<path stroke-width="2.6666666666666665" stroke="black" d="M 262 320 255 196"/>
<path stroke-width="0.8095238095238095" stroke="black" d="M 262 320 96 167"/>
<path stroke-width="0.8095238095238095" stroke="black" d="M 395 264 79 237"/>
<path stroke-width="0.5" stroke="black" d="M 395 264 184 225"/>
<path stroke-width="0.8095238095238095" stroke="black" d="M 395 264 232 176"/>
<path stroke-width="0.5" stroke="black" d="M 395 264 420 117"/>
<path stroke-width="0.5" stroke="black" d="M 395 264 20 84"/>
<path stroke-width="1.4285714285714286" stroke="black" d="M 79 237 232 176"/>
<path stroke-width="1.4285714285714286" stroke="black" d="M 395 264 243 144"/>
<path stroke-width="0.5" stroke="black" d="M 395 264 329 37"/>
<path stroke-width="0.5" stroke="black" d="M 395 264 169 20"/>
<path stroke-width="2.6666666666666665" stroke="black" d="M 395 264 255 196"/>
<path stroke-width="0.8095238095238095" stroke="black" d="M 395 264 96 167"/>
<path stroke-width="0.8095238095238095" stroke="black" d="M 329 37 79 237"/>
<path stroke-width="0.5" stroke="black" d="M 329 37 184 225"/>
<path stroke-width="0.8095238095238095" stroke="black" d="M 329 37 232 176"/>
<path stroke-width="0.5" stroke="black" d="M 329 37 420 117"/>
<path stroke-width="0.5" stroke="black" d="M 329 37 20 84"/>
<path stroke-width="1.4285714285714286" stroke="black" d="M 329 37 243 144"/>
<path stroke-width="0.5" stroke="black" d="M 329 37 262 320"/>
<path stroke-width="0.5" stroke="black" d="M 329 37 395 264"/>
<path stroke-width="0.9642857142857143" stroke="black" d="M 329 37 169 20"/>
<path stroke-width="2.6666666666666665" stroke="black" d="M 329 37 255 196"/>
<path stroke-width="0.9642857142857143" stroke="black" d="M 395 264 262 320"/>
<path stroke-width="0.8095238095238095" stroke="black" d="M 79 237 184 225"/>
<circle cx="96" cy="167" r="7.0" style="fill:gray;stroke:black;stroke-width:1.0"/>
<circle cx="255" cy="196" r="7.0" style="fill:gray;stroke:black;stroke-width:1.0"/>
<circle cx="169" cy="20" r="7.0" style="fill:gray;stroke:black;stroke-width:1.0"/>
<circle cx="329" cy="37" r="7.0" style="fill:gray;stroke:black;stroke-width:1.0"/>
<circle cx="395" cy="264" r="7.0" style="fill:gray;stroke:black;stroke-width:1.0"/>
<circle cx="262" cy="320" r="7.0" style="fill:gray;stroke:black;stroke-width:1.0"/>
<circle cx="243" cy="144" r="7.0" style="fill:gray;stroke:black;stroke-width:1.0"/>
<circle cx="20" cy="84" r="7.0" style="fill:gray;stroke:black;stroke-width:1.0"/>
<circle cx="420" cy="117" r="7.0" style="fill:gray;stroke:black;stroke-width:1.0"/>
<circle cx="232" cy="176" r="7.0" style="fill:gray;stroke:black;stroke-width:1.0"/>
<circle cx="184" cy="225" r="7.0" style="fill:gray;stroke:black;stroke-width:1.0"/>
<circle cx="79" cy="237" r="7.0" style="fill:gray;stroke:black;stroke-width:1.0"/>
</svg>
