<svg width="440" height="340" xmlns="http://www.w3.org/2000/svg">
<path stroke-width="1" stroke="black" d="M 207 320 200 192"/>
<path stroke-width="1" stroke="black" d="M 76 124 213 63"/>
<path stroke-width="1" stroke="black" d="M 76 124 201 74"/>
<path stroke-width="1" stroke="black" d="M 76 124 256 146"/>
<path stroke-width="1" stroke="black" d="M 76 124 276 118"/>
<path stroke-width="1" stroke="black" d="M 76 124 132 84"/>
<path stroke-width="1" stroke="black" d="M 76 124 20 126"/>
<path stroke-width="1" stroke="black" d="M 76 124 101 97"/>
<path stroke-width="1" stroke="black" d="M 76 124 257 82"/>
<path stroke-width="1" stroke="black" d="M 76 124 118 144"/>
<path stroke-width="1" stroke="black" d="M 76 124 282 97"/>
<path stroke-width="1" stroke="black" d="M 76 124 176 92"/>
<path stroke-width="1" stroke="black" d="M 76 124 244 77"/>
<path stroke-width="1" stroke="black" d="M 76 124 111 132"/>
<path stroke-width="1" stroke="black" d="M 76 124 238 160"/>
<path stroke-width="1" stroke="black" d="M 44 80 101 97"/>
<path stroke-width="1" stroke="black" d="M 101 97 200 192"/>
<path stroke-width="1" stroke="black" d="M 76 124 120 126"/>
<path stroke-width="1" stroke="black" d="M 101 97 273 131"/>
<path stroke-width="1" stroke="black" d="M 76 124 164 173"/>
<path stroke-width="1" stroke="black" d="M 76 124 200 163"/>
<path stroke-width="1" stroke="black" d="M 132 84 101 97"/>
<path stroke-width="1" stroke="black" d="M 132 84 118 144"/>
<path stroke-width="1" stroke="black" d="M 132 84 120 126"/>
<path stroke-width="1" stroke="black" d="M 132 84 282 97"/>
<path stroke-width="1" stroke="black" d="M 132 84 176 92"/>
<path stroke-width="1" stroke="black" d="M 132 84 244 77"/>
<path stroke-width="1" stroke="black" d="M 132 84 111 132"/>
<path stroke-width="1" stroke="black" d="M 76 124 162 67"/>
<path stroke-width="1" stroke="black" d="M 132 84 238 160"/>
<path stroke-width="1" stroke="black" d="M 76 124 200 192"/>
<path stroke-width="1" stroke="black" d="M 76 124 273 131"/>
<path stroke-width="1" stroke="black" d="M 76 124 181 171"/>
<path stroke-width="1" stroke="black" d="M 76 124 123 90"/>
<path stroke-width="1" stroke="black" d="M 76 124 154 176"/>
<path stroke-width="1" stroke="black" d="M 76 124 288 117"/>
<path stroke-width="1" stroke="black" d="M 76 124 271 142"/>
<path stroke-width="1" stroke="black" d="M 20 126 76 124"/>
<path stroke-width="1" stroke="black" d="M 101 97 181 171"/>
<path stroke-width="1" stroke="black" d="M 101 97 123 90"/>
<path stroke-width="1" stroke="black" d="M 101 97 154 176"/>
<path stroke-width="1" stroke="black" d="M 118 144 200 192"/>
<path stroke-width="1" stroke="black" d="M 118 144 273 131"/>
<path stroke-width="1" stroke="black" d="M 118 144 181 171"/>
<path stroke-width="1" stroke="black" d="M 118 144 123 90"/>
<path stroke-width="1" stroke="black" d="M 118 144 154 176"/>
<path stroke-width="1" stroke="black" d="M 118 144 288 117"/>
<path stroke-width="1" stroke="black" d="M 118 144 271 142"/>
<path stroke-width="1" stroke="black" d="M 49 160 118 144"/>
<path stroke-width="1" stroke="black" d="M 118 144 200 163"/>
<path stroke-width="1" stroke="black" d="M 118 144 164 173"/>
<path stroke-width="1" stroke="black" d="M 118 144 257 82"/>
<path stroke-width="1" stroke="black" d="M 118 144 213 63"/>
<path stroke-width="1" stroke="black" d="M 118 144 201 74"/>
<path stroke-width="1" stroke="black" d="M 118 144 256 146"/>
<path stroke-width="1" stroke="black" d="M 118 144 276 118"/>
<path stroke-width="1" stroke="black" d="M 118 144 132 84"/>
<path stroke-width="1" stroke="black" d="M 118 144 162 67"/>
<path stroke-width="1" stroke="black" d="M 101 97 238 160"/>
<path stroke-width="1" stroke="black" d="M 101 97 111 132"/>
<path stroke-width="1" stroke="black" d="M 101 97 244 77"/>
<path stroke-width="1" stroke="black" d="M 101 97 288 117"/>
<path stroke-width="1" stroke="black" d="M 101 97 271 142"/>
<path stroke-width="1" stroke="black" d="M 101 97 200 163"/>
<path stroke-width="1" stroke="black" d="M 101 97 162 67"/>
<path stroke-width="1" stroke="black" d="M 101 97 164 173"/>
<path stroke-width="1" stroke="black" d="M 101 97 257 82"/>
<path stroke-width="1" stroke="black" d="M 101 97 213 63"/>
<path stroke-width="1" stroke="black" d="M 101 97 201 74"/>
<path stroke-width="1" stroke="black" d="M 101 97 256 146"/>
<path stroke-width="1" stroke="black" d="M 101 97 276 118"/>
<path stroke-width="1" stroke="black" d="M 101 97 132 84"/>
<path stroke-width="1" stroke="black" d="M 101 97 76 124"/>
<path stroke-width="1" stroke="black" d="M 101 97 44 80"/>
<path stroke-width="1" stroke="black" d="M 101 97 118 144"/>
<path stroke-width="1" stroke="black" d="M 101 97 120 126"/>
<path stroke-width="1" stroke="black" d="M 101 97 282 97"/>
<path stroke-width="1" stroke="black" d="M 101 97 176 92"/>
<path stroke-width="1" stroke="black" d="M 132 84 76 124"/>
<path stroke-width="1" stroke="black" d="M 118 144 76 124"/>
<path stroke-width="1" stroke="black" d="M 132 84 82 58"/>
<path stroke-width="1" stroke="black" d="M 132 84 256 146"/>
<path stroke-width="1" stroke="black" d="M 256 146 162 67"/>
<path stroke-width="1" stroke="black" d="M 256 146 164 173"/>
<path stroke-width="1" stroke="black" d="M 256 146 257 82"/>
<path stroke-width="1" stroke="black" d="M 256 146 213 63"/>
<path stroke-width="1" stroke="black" d="M 256 146 201 74"/>
<path stroke-width="1" stroke="black" d="M 256 146 293 166"/>
<path stroke-width="1" stroke="black" d="M 256 146 276 118"/>
<path stroke-width="1" stroke="black" d="M 256 146 200 163"/>
<path stroke-width="1" stroke="black" d="M 256 146 132 84"/>
<path stroke-width="1" stroke="black" d="M 256 146 101 97"/>
<path stroke-width="1" stroke="black" d="M 256 146 118 144"/>
<path stroke-width="1" stroke="black" d="M 256 146 120 126"/>
<path stroke-width="1" stroke="black" d="M 256 146 282 97"/>
<path stroke-width="1" stroke="black" d="M 256 146 176 92"/>
<path stroke-width="1" stroke="black" d="M 256 146 244 77"/>
<path stroke-width="1" stroke="black" d="M 256 146 111 132"/>
<path stroke-width="1" stroke="black" d="M 256 146 76 124"/>
<path stroke-width="1" stroke="black" d="M 256 146 238 160"/>
<path stroke-width="1" stroke="black" d="M 256 146 271 142"/>
<path stroke-width="1" stroke="black" d="M 256 146 154 176"/>
<path stroke-width="1" stroke="black" d="M 201 74 276 118"/>
<path stroke-width="1" stroke="black" d="M 201 74 132 84"/>
<path stroke-width="1" stroke="black" d="M 201 74 76 124"/>
<path stroke-width="1" stroke="black" d="M 201 74 101 97"/>
<path stroke-width="1" stroke="black" d="M 201 74 118 144"/>
<path stroke-width="1" stroke="black" d="M 201 74 120 126"/>
<path stroke-width="1" stroke="black" d="M 201 74 282 97"/>
<path stroke-width="1" stroke="black" d="M 256 146 288 117"/>
<path stroke-width="1" stroke="black" d="M 201 74 176 92"/>
<path stroke-width="1" stroke="black" d="M 201 74 111 132"/>
<path stroke-width="1" stroke="black" d="M 201 74 238 160"/>
<path stroke-width="1" stroke="black" d="M 293 166 256 146"/>
<path stroke-width="1" stroke="black" d="M 256 146 200 192"/>
<path stroke-width="1" stroke="black" d="M 256 146 273 131"/>
<path stroke-width="1" stroke="black" d="M 256 146 181 171"/>
<path stroke-width="1" stroke="black" d="M 256 146 123 90"/>
<path stroke-width="1" stroke="black" d="M 201 74 244 77"/>
<path stroke-width="1" stroke="black" d="M 335 118 276 118"/>
<path stroke-width="1" stroke="black" d="M 276 118 200 192"/>
<path stroke-width="1" stroke="black" d="M 276 118 273 131"/>
<path stroke-width="1" stroke="black" d="M 276 118 111 132"/>
<path stroke-width="1" stroke="black" d="M 276 118 238 160"/>
<path stroke-width="1" stroke="black" d="M 82 58 132 84"/>
<path stroke-width="1" stroke="black" d="M 132 84 200 192"/>
<path stroke-width="1" stroke="black" d="M 132 84 273 131"/>
<path stroke-width="1" stroke="black" d="M 132 84 181 171"/>
<path stroke-width="1" stroke="black" d="M 132 84 123 90"/>
<path stroke-width="1" stroke="black" d="M 276 118 244 77"/>
<path stroke-width="1" stroke="black" d="M 132 84 154 176"/>
<path stroke-width="1" stroke="black" d="M 132 84 271 142"/>
<path stroke-width="1" stroke="black" d="M 132 84 200 163"/>
<path stroke-width="1" stroke="black" d="M 132 84 162 67"/>
<path stroke-width="1" stroke="black" d="M 132 84 164 173"/>
<path stroke-width="1" stroke="black" d="M 132 84 257 82"/>
<path stroke-width="1" stroke="black" d="M 132 84 213 63"/>
<path stroke-width="1" stroke="black" d="M 132 84 201 74"/>
<path stroke-width="1" stroke="black" d="M 132 84 288 117"/>
<path stroke-width="1" stroke="black" d="M 276 118 176 92"/>
<path stroke-width="1" stroke="black" d="M 276 118 282 97"/>
<path stroke-width="1" stroke="black" d="M 276 118 120 126"/>
<path stroke-width="1" stroke="black" d="M 276 118 181 171"/>
<path stroke-width="1" stroke="black" d="M 276 118 123 90"/>
<path stroke-width="1" stroke="black" d="M 276 118 154 176"/>
<path stroke-width="1" stroke="black" d="M 276 118 288 117"/>
<path stroke-width="1" stroke="black" d="M 276 118 271 142"/>
<path stroke-width="1" stroke="black" d="M 276 118 200 163"/>
<path stroke-width="1" stroke="black" d="M 276 118 162 67"/>
<path stroke-width="1" stroke="black" d="M 276 118 164 173"/>
<path stroke-width="1" stroke="black" d="M 276 118 257 82"/>
<path stroke-width="1" stroke="black" d="M 276 118 213 63"/>
<path stroke-width="1" stroke="black" d="M 276 118 201 74"/>
<path stroke-width="1" stroke="black" d="M 276 118 256 146"/>
<path stroke-width="1" stroke="black" d="M 276 118 335 118"/>
<path stroke-width="1" stroke="black" d="M 276 118 132 84"/>
<path stroke-width="1" stroke="black" d="M 276 118 76 124"/>
<path stroke-width="1" stroke="black" d="M 276 118 101 97"/>
<path stroke-width="1" stroke="black" d="M 276 118 118 144"/>
<path stroke-width="1" stroke="black" d="M 132 84 276 118"/>
<path stroke-width="1" stroke="black" d="M 118 144 101 97"/>
<path stroke-width="1" stroke="black" d="M 118 144 49 160"/>
<path stroke-width="1" stroke="black" d="M 118 144 120 126"/>
<path stroke-width="1" stroke="black" d="M 244 77 118 144"/>
<path stroke-width="1" stroke="black" d="M 244 77 120 126"/>
<path stroke-width="1" stroke="black" d="M 244 77 282 97"/>
<path stroke-width="1" stroke="black" d="M 244 77 176 92"/>
<path stroke-width="1" stroke="black" d="M 244 77 269 50"/>
<path stroke-width="1" stroke="black" d="M 244 77 111 132"/>
<path stroke-width="1" stroke="black" d="M 244 77 238 160"/>
<path stroke-width="1" stroke="black" d="M 244 77 101 97"/>
<path stroke-width="1" stroke="black" d="M 154 150 111 132"/>
<path stroke-width="1" stroke="black" d="M 111 132 273 131"/>
<path stroke-width="1" stroke="black" d="M 111 132 181 171"/>
<path stroke-width="1" stroke="black" d="M 111 132 123 90"/>
<path stroke-width="1" stroke="black" d="M 111 132 154 176"/>
<path stroke-width="1" stroke="black" d="M 111 132 288 117"/>
<path stroke-width="1" stroke="black" d="M 111 132 271 142"/>
<path stroke-width="1" stroke="black" d="M 111 132 200 163"/>
<path stroke-width="1" stroke="black" d="M 111 132 200 192"/>
<path stroke-width="1" stroke="black" d="M 111 132 162 67"/>
<path stroke-width="1" stroke="black" d="M 244 77 76 124"/>
<path stroke-width="1" stroke="black" d="M 244 77 276 118"/>
<path stroke-width="1" stroke="black" d="M 176 92 238 160"/>
<path stroke-width="1" stroke="black" d="M 269 50 244 77"/>
<path stroke-width="1" stroke="black" d="M 244 77 200 192"/>
<path stroke-width="1" stroke="black" d="M 244 77 273 131"/>
<path stroke-width="1" stroke="black" d="M 244 77 181 171"/>
<path stroke-width="1" stroke="black" d="M 244 77 123 90"/>
<path stroke-width="1" stroke="black" d="M 244 77 154 176"/>
<path stroke-width="1" stroke="black" d="M 244 77 132 84"/>
<path stroke-width="1" stroke="black" d="M 244 77 288 117"/>
<path stroke-width="1" stroke="black" d="M 244 77 200 163"/>
<path stroke-width="1" stroke="black" d="M 244 77 162 67"/>
<path stroke-width="1" stroke="black" d="M 244 77 164 173"/>
<path stroke-width="1" stroke="black" d="M 244 77 257 82"/>
<path stroke-width="1" stroke="black" d="M 244 77 213 63"/>
<path stroke-width="1" stroke="black" d="M 244 77 201 74"/>
<path stroke-width="1" stroke="black" d="M 244 77 256 146"/>
<path stroke-width="1" stroke="black" d="M 244 77 271 142"/>
<path stroke-width="1" stroke="black" d="M 111 132 164 173"/>
<path stroke-width="1" stroke="black" d="M 111 132 257 82"/>
<path stroke-width="1" stroke="black" d="M 111 132 213 63"/>
<path stroke-width="1" stroke="black" d="M 238 160 200 163"/>
<path stroke-width="1" stroke="black" d="M 238 160 162 67"/>
<path stroke-width="1" stroke="black" d="M 238 160 164 173"/>
<path stroke-width="1" stroke="black" d="M 238 160 257 82"/>
<path stroke-width="1" stroke="black" d="M 238 160 213 63"/>
<path stroke-width="1" stroke="black" d="M 238 160 201 74"/>
<path stroke-width="1" stroke="black" d="M 238 160 256 146"/>
<path stroke-width="1" stroke="black" d="M 238 160 271 142"/>
<path stroke-width="1" stroke="black" d="M 238 160 276 118"/>
<path stroke-width="1" stroke="black" d="M 238 160 76 124"/>
<path stroke-width="1" stroke="black" d="M 238 160 101 97"/>
<path stroke-width="1" stroke="black" d="M 238 160 118 144"/>
<path stroke-width="1" stroke="black" d="M 238 160 120 126"/>
<path stroke-width="1" stroke="black" d="M 238 160 282 97"/>
<path stroke-width="1" stroke="black" d="M 238 160 176 92"/>
<path stroke-width="1" stroke="black" d="M 238 160 244 77"/>
<path stroke-width="1" stroke="black" d="M 238 160 132 84"/>
<path stroke-width="1" stroke="black" d="M 238 160 288 117"/>
<path stroke-width="1" stroke="black" d="M 238 160 154 176"/>
<path stroke-width="1" stroke="black" d="M 238 160 123 90"/>
<path stroke-width="1" stroke="black" d="M 111 132 201 74"/>
<path stroke-width="1" stroke="black" d="M 111 132 256 146"/>
<path stroke-width="1" stroke="black" d="M 111 132 276 118"/>
<path stroke-width="1" stroke="black" d="M 111 132 132 84"/>
<path stroke-width="1" stroke="black" d="M 111 132 76 124"/>
<path stroke-width="1" stroke="black" d="M 111 132 101 97"/>
<path stroke-width="1" stroke="black" d="M 111 132 118 144"/>
<path stroke-width="1" stroke="black" d="M 111 132 120 126"/>
<path stroke-width="1" stroke="black" d="M 111 132 282 97"/>
<path stroke-width="1" stroke="black" d="M 111 132 176 92"/>
<path stroke-width="1" stroke="black" d="M 111 132 244 77"/>
<path stroke-width="1" stroke="black" d="M 111 132 154 150"/>
<path stroke-width="1" stroke="black" d="M 111 132 238 160"/>
<path stroke-width="1" stroke="black" d="M 261 180 238 160"/>
<path stroke-width="1" stroke="black" d="M 238 160 200 192"/>
<path stroke-width="1" stroke="black" d="M 238 160 273 131"/>
<path stroke-width="1" stroke="black" d="M 238 160 181 171"/>
<path stroke-width="1" stroke="black" d="M 176 92 111 132"/>
<path stroke-width="1" stroke="black" d="M 176 92 244 77"/>
<path stroke-width="1" stroke="black" d="M 176 92 149 65"/>
<path stroke-width="1" stroke="black" d="M 176 92 282 97"/>
<path stroke-width="1" stroke="black" d="M 120 126 132 84"/>
<path stroke-width="1" stroke="black" d="M 120 126 76 124"/>
<path stroke-width="1" stroke="black" d="M 120 126 101 97"/>
<path stroke-width="1" stroke="black" d="M 120 126 118 144"/>
<path stroke-width="1" stroke="black" d="M 120 126 50 130"/>
<path stroke-width="1" stroke="black" d="M 120 126 282 97"/>
<path stroke-width="1" stroke="black" d="M 120 126 176 92"/>
<path stroke-width="1" stroke="black" d="M 120 126 276 118"/>
<path stroke-width="1" stroke="black" d="M 120 126 244 77"/>
<path stroke-width="1" stroke="black" d="M 120 126 238 160"/>
<path stroke-width="1" stroke="black" d="M 322 84 282 97"/>
<path stroke-width="1" stroke="black" d="M 282 97 200 192"/>
<path stroke-width="1" stroke="black" d="M 282 97 273 131"/>
<path stroke-width="1" stroke="black" d="M 282 97 181 171"/>
<path stroke-width="1" stroke="black" d="M 282 97 123 90"/>
<path stroke-width="1" stroke="black" d="M 282 97 154 176"/>
<path stroke-width="1" stroke="black" d="M 120 126 111 132"/>
<path stroke-width="1" stroke="black" d="M 120 126 256 146"/>
<path stroke-width="1" stroke="black" d="M 120 126 201 74"/>
<path stroke-width="1" stroke="black" d="M 120 126 213 63"/>
<path stroke-width="1" stroke="black" d="M 118 144 282 97"/>
<path stroke-width="1" stroke="black" d="M 118 144 176 92"/>
<path stroke-width="1" stroke="black" d="M 118 144 244 77"/>
<path stroke-width="1" stroke="black" d="M 118 144 111 132"/>
<path stroke-width="1" stroke="black" d="M 118 144 238 160"/>
<path stroke-width="1" stroke="black" d="M 50 130 120 126"/>
<path stroke-width="1" stroke="black" d="M 120 126 200 192"/>
<path stroke-width="1" stroke="black" d="M 120 126 273 131"/>
<path stroke-width="1" stroke="black" d="M 120 126 181 171"/>
<path stroke-width="1" stroke="black" d="M 120 126 123 90"/>
<path stroke-width="1" stroke="black" d="M 120 126 154 176"/>
<path stroke-width="1" stroke="black" d="M 120 126 288 117"/>
<path stroke-width="1" stroke="black" d="M 120 126 271 142"/>
<path stroke-width="1" stroke="black" d="M 120 126 200 163"/>
<path stroke-width="1" stroke="black" d="M 120 126 162 67"/>
<path stroke-width="1" stroke="black" d="M 120 126 164 173"/>
<path stroke-width="1" stroke="black" d="M 120 126 257 82"/>
<path stroke-width="1" stroke="black" d="M 282 97 288 117"/>
<path stroke-width="1" stroke="black" d="M 201 74 256 146"/>
<path stroke-width="1" stroke="black" d="M 282 97 271 142"/>
<path stroke-width="1" stroke="black" d="M 282 97 162 67"/>
<path stroke-width="1" stroke="black" d="M 176 92 154 176"/>
<path stroke-width="1" stroke="black" d="M 176 92 288 117"/>
<path stroke-width="1" stroke="black" d="M 176 92 271 142"/>
<path stroke-width="1" stroke="black" d="M 176 92 200 163"/>
<path stroke-width="1" stroke="black" d="M 176 92 162 67"/>
<path stroke-width="1" stroke="black" d="M 176 92 164 173"/>
<path stroke-width="1" stroke="black" d="M 176 92 257 82"/>
<path stroke-width="1" stroke="black" d="M 176 92 123 90"/>
<path stroke-width="1" stroke="black" d="M 176 92 213 63"/>
<path stroke-width="1" stroke="black" d="M 176 92 256 146"/>
<path stroke-width="1" stroke="black" d="M 176 92 276 118"/>
<path stroke-width="1" stroke="black" d="M 176 92 132 84"/>
<path stroke-width="1" stroke="black" d="M 176 92 76 124"/>
<path stroke-width="1" stroke="black" d="M 176 92 101 97"/>
<path stroke-width="1" stroke="black" d="M 176 92 118 144"/>
<path stroke-width="1" stroke="black" d="M 176 92 120 126"/>
<path stroke-width="1" stroke="black" d="M 176 92 201 74"/>
<path stroke-width="1" stroke="black" d="M 176 92 181 171"/>
<path stroke-width="1" stroke="black" d="M 176 92 273 131"/>
<path stroke-width="1" stroke="black" d="M 176 92 200 192"/>
<path stroke-width="1" stroke="black" d="M 282 97 164 173"/>
<path stroke-width="1" stroke="black" d="M 282 97 257 82"/>
<path stroke-width="1" stroke="black" d="M 282 97 213 63"/>
<path stroke-width="1" stroke="black" d="M 282 97 201 74"/>
<path stroke-width="1" stroke="black" d="M 282 97 256 146"/>
<path stroke-width="1" stroke="black" d="M 282 97 276 118"/>
<path stroke-width="1" stroke="black" d="M 282 97 132 84"/>
<path stroke-width="1" stroke="black" d="M 282 97 76 124"/>
<path stroke-width="1" stroke="black" d="M 282 97 101 97"/>
<path stroke-width="1" stroke="black" d="M 282 97 118 144"/>
<path stroke-width="1" stroke="black" d="M 282 97 120 126"/>
<path stroke-width="1" stroke="black" d="M 282 97 322 84"/>
<path stroke-width="1" stroke="black" d="M 282 97 176 92"/>
<path stroke-width="1" stroke="black" d="M 282 97 244 77"/>
<path stroke-width="1" stroke="black" d="M 282 97 111 132"/>
<path stroke-width="1" stroke="black" d="M 282 97 238 160"/>
<path stroke-width="1" stroke="black" d="M 149 65 176 92"/>
<path stroke-width="1" stroke="black" d="M 282 97 200 163"/>
<path stroke-width="1" stroke="black" d="M 201 74 202 37"/>
<path stroke-width="1" stroke="black" d="M 201 74 213 63"/>
<path stroke-width="1" stroke="black" d="M 201 74 257 82"/>
<path stroke-width="1" stroke="black" d="M 123 90 238 160"/>
<path stroke-width="1" stroke="black" d="M 136 233 154 176"/>
<path stroke-width="1" stroke="black" d="M 154 176 200 192"/>
<path stroke-width="1" stroke="black" d="M 154 176 273 131"/>
<path stroke-width="1" stroke="black" d="M 154 176 181 171"/>
<path stroke-width="1" stroke="black" d="M 154 176 123 90"/>
<path stroke-width="1" stroke="black" d="M 154 176 136 233"/>
<path stroke-width="1" stroke="black" d="M 123 90 111 132"/>
<path stroke-width="1" stroke="black" d="M 154 176 288 117"/>
<path stroke-width="1" stroke="black" d="M 154 176 200 163"/>
<path stroke-width="1" stroke="black" d="M 154 176 162 67"/>
<path stroke-width="1" stroke="black" d="M 154 176 164 173"/>
<path stroke-width="1" stroke="black" d="M 154 176 257 82"/>
<path stroke-width="1" stroke="black" d="M 154 176 213 63"/>
<path stroke-width="1" stroke="black" d="M 154 176 201 74"/>
<path stroke-width="1" stroke="black" d="M 154 176 256 146"/>
<path stroke-width="1" stroke="black" d="M 154 176 271 142"/>
<path stroke-width="1" stroke="black" d="M 154 176 276 118"/>
<path stroke-width="1" stroke="black" d="M 123 90 244 77"/>
<path stroke-width="1" stroke="black" d="M 123 90 282 97"/>
<path stroke-width="1" stroke="black" d="M 123 90 154 176"/>
<path stroke-width="1" stroke="black" d="M 123 90 288 117"/>
<path stroke-width="1" stroke="black" d="M 123 90 271 142"/>
<path stroke-width="1" stroke="black" d="M 123 90 200 163"/>
<path stroke-width="1" stroke="black" d="M 123 90 162 67"/>
<path stroke-width="1" stroke="black" d="M 123 90 164 173"/>
<path stroke-width="1" stroke="black" d="M 123 90 257 82"/>
<path stroke-width="1" stroke="black" d="M 123 90 176 92"/>
<path stroke-width="1" stroke="black" d="M 123 90 213 63"/>
<path stroke-width="1" stroke="black" d="M 123 90 256 146"/>
<path stroke-width="1" stroke="black" d="M 123 90 276 118"/>
<path stroke-width="1" stroke="black" d="M 123 90 132 84"/>
<path stroke-width="1" stroke="black" d="M 123 90 76 124"/>
<path stroke-width="1" stroke="black" d="M 123 90 101 97"/>
<path stroke-width="1" stroke="black" d="M 123 90 118 144"/>
<path stroke-width="1" stroke="black" d="M 123 90 120 126"/>
<path stroke-width="1" stroke="black" d="M 123 90 201 74"/>
<path stroke-width="1" stroke="black" d="M 154 176 132 84"/>
<path stroke-width="1" stroke="black" d="M 154 176 76 124"/>
<path stroke-width="1" stroke="black" d="M 154 176 101 97"/>
<path stroke-width="1" stroke="black" d="M 288 117 256 146"/>
<path stroke-width="1" stroke="black" d="M 288 117 276 118"/>
<path stroke-width="1" stroke="black" d="M 288 117 132 84"/>
<path stroke-width="1" stroke="black" d="M 288 117 76 124"/>
<path stroke-width="1" stroke="black" d="M 288 117 101 97"/>
<path stroke-width="1" stroke="black" d="M 288 117 118 144"/>
<path stroke-width="1" stroke="black" d="M 288 117 120 126"/>
<path stroke-width="1" stroke="black" d="M 288 117 201 74"/>
<path stroke-width="1" stroke="black" d="M 288 117 282 97"/>
<path stroke-width="1" stroke="black" d="M 288 117 244 77"/>
<path stroke-width="1" stroke="black" d="M 288 117 111 132"/>
<path stroke-width="1" stroke="black" d="M 288 117 238 160"/>
<path stroke-width="1" stroke="black" d="M 337 167 271 142"/>
<path stroke-width="1" stroke="black" d="M 271 142 200 192"/>
<path stroke-width="1" stroke="black" d="M 271 142 273 131"/>
<path stroke-width="1" stroke="black" d="M 271 142 181 171"/>
<path stroke-width="1" stroke="black" d="M 288 117 176 92"/>
<path stroke-width="1" stroke="black" d="M 288 117 213 63"/>
<path stroke-width="1" stroke="black" d="M 288 117 257 82"/>
<path stroke-width="1" stroke="black" d="M 288 117 164 173"/>
<path stroke-width="1" stroke="black" d="M 154 176 118 144"/>
<path stroke-width="1" stroke="black" d="M 154 176 120 126"/>
<path stroke-width="1" stroke="black" d="M 154 176 282 97"/>
<path stroke-width="1" stroke="black" d="M 154 176 176 92"/>
<path stroke-width="1" stroke="black" d="M 154 176 244 77"/>
<path stroke-width="1" stroke="black" d="M 154 176 111 132"/>
<path stroke-width="1" stroke="black" d="M 154 176 238 160"/>
<path stroke-width="1" stroke="black" d="M 385 113 288 117"/>
<path stroke-width="1" stroke="black" d="M 288 117 200 192"/>
<path stroke-width="1" stroke="black" d="M 288 117 273 131"/>
<path stroke-width="1" stroke="black" d="M 288 117 181 171"/>
<path stroke-width="1" stroke="black" d="M 288 117 123 90"/>
<path stroke-width="1" stroke="black" d="M 288 117 154 176"/>
<path stroke-width="1" stroke="black" d="M 288 117 385 113"/>
<path stroke-width="1" stroke="black" d="M 288 117 271 142"/>
<path stroke-width="1" stroke="black" d="M 288 117 200 163"/>
<path stroke-width="1" stroke="black" d="M 288 117 162 67"/>
<path stroke-width="1" stroke="black" d="M 123 90 48 39"/>
<path stroke-width="1" stroke="black" d="M 123 90 181 171"/>
<path stroke-width="1" stroke="black" d="M 123 90 273 131"/>
<path stroke-width="1" stroke="black" d="M 123 90 200 192"/>
<path stroke-width="1" stroke="black" d="M 200 192 176 92"/>
<path stroke-width="1" stroke="black" d="M 200 192 244 77"/>
<path stroke-width="1" stroke="black" d="M 200 192 111 132"/>
<path stroke-width="1" stroke="black" d="M 200 192 238 160"/>
<path stroke-width="1" stroke="black" d="M 420 158 273 131"/>
<path stroke-width="1" stroke="black" d="M 273 131 200 192"/>
<path stroke-width="1" stroke="black" d="M 273 131 420 158"/>
<path stroke-width="1" stroke="black" d="M 200 192 282 97"/>
<path stroke-width="1" stroke="black" d="M 273 131 181 171"/>
<path stroke-width="1" stroke="black" d="M 273 131 154 176"/>
<path stroke-width="1" stroke="black" d="M 273 131 288 117"/>
<path stroke-width="1" stroke="black" d="M 273 131 271 142"/>
<path stroke-width="1" stroke="black" d="M 273 131 200 163"/>
<path stroke-width="1" stroke="black" d="M 273 131 162 67"/>
<path stroke-width="1" stroke="black" d="M 273 131 164 173"/>
<path stroke-width="1" stroke="black" d="M 273 131 257 82"/>
<path stroke-width="1" stroke="black" d="M 273 131 123 90"/>
<path stroke-width="1" stroke="black" d="M 200 192 120 126"/>
<path stroke-width="1" stroke="black" d="M 200 192 118 144"/>
<path stroke-width="1" stroke="black" d="M 200 192 101 97"/>
<path stroke-width="1" stroke="black" d="M 200 192 207 320"/>
<path stroke-width="1" stroke="black" d="M 200 192 273 131"/>
<path stroke-width="1" stroke="black" d="M 200 192 181 171"/>
<path stroke-width="1" stroke="black" d="M 200 192 123 90"/>
<path stroke-width="1" stroke="black" d="M 200 192 154 176"/>
<path stroke-width="1" stroke="black" d="M 200 192 288 117"/>
<path stroke-width="1" stroke="black" d="M 200 192 271 142"/>
<path stroke-width="1" stroke="black" d="M 200 192 200 163"/>
<path stroke-width="1" stroke="black" d="M 200 192 162 67"/>
<path stroke-width="1" stroke="black" d="M 200 192 164 173"/>
<path stroke-width="1" stroke="black" d="M 200 192 257 82"/>
<path stroke-width="1" stroke="black" d="M 200 192 213 63"/>
<path stroke-width="1" stroke="black" d="M 200 192 201 74"/>
<path stroke-width="1" stroke="black" d="M 200 192 256 146"/>
<path stroke-width="1" stroke="black" d="M 200 192 276 118"/>
<path stroke-width="1" stroke="black" d="M 200 192 132 84"/>
<path stroke-width="1" stroke="black" d="M 200 192 76 124"/>
<path stroke-width="1" stroke="black" d="M 273 131 213 63"/>
<path stroke-width="1" stroke="black" d="M 271 142 123 90"/>
<path stroke-width="1" stroke="black" d="M 273 131 201 74"/>
<path stroke-width="1" stroke="black" d="M 273 131 276 118"/>
<path stroke-width="1" stroke="black" d="M 181 171 257 82"/>
<path stroke-width="1" stroke="black" d="M 181 171 213 63"/>
<path stroke-width="1" stroke="black" d="M 181 171 201 74"/>
<path stroke-width="1" stroke="black" d="M 181 171 256 146"/>
<path stroke-width="1" stroke="black" d="M 181 171 276 118"/>
<path stroke-width="1" stroke="black" d="M 181 171 132 84"/>
<path stroke-width="1" stroke="black" d="M 181 171 76 124"/>
<path stroke-width="1" stroke="black" d="M 181 171 164 173"/>
<path stroke-width="1" stroke="black" d="M 181 171 101 97"/>
<path stroke-width="1" stroke="black" d="M 181 171 120 126"/>
<path stroke-width="1" stroke="black" d="M 181 171 282 97"/>
<path stroke-width="1" stroke="black" d="M 181 171 176 92"/>
<path stroke-width="1" stroke="black" d="M 181 171 244 77"/>
<path stroke-width="1" stroke="black" d="M 181 171 111 132"/>
<path stroke-width="1" stroke="black" d="M 181 171 238 160"/>
<path stroke-width="1" stroke="black" d="M 48 39 123 90"/>
<path stroke-width="1" stroke="black" d="M 181 171 118 144"/>
<path stroke-width="1" stroke="black" d="M 181 171 162 67"/>
<path stroke-width="1" stroke="black" d="M 181 171 200 163"/>
<path stroke-width="1" stroke="black" d="M 181 171 271 142"/>
<path stroke-width="1" stroke="black" d="M 273 131 132 84"/>
<path stroke-width="1" stroke="black" d="M 273 131 76 124"/>
<path stroke-width="1" stroke="black" d="M 273 131 101 97"/>
<path stroke-width="1" stroke="black" d="M 273 131 118 144"/>
<path stroke-width="1" stroke="black" d="M 273 131 120 126"/>
<path stroke-width="1" stroke="black" d="M 273 131 282 97"/>
<path stroke-width="1" stroke="black" d="M 273 131 176 92"/>
<path stroke-width="1" stroke="black" d="M 273 131 244 77"/>
<path stroke-width="1" stroke="black" d="M 273 131 111 132"/>
<path stroke-width="1" stroke="black" d="M 273 131 238 160"/>
<path stroke-width="1" stroke="black" d="M 185 245 181 171"/>
<path stroke-width="1" stroke="black" d="M 181 171 200 192"/>
<path stroke-width="1" stroke="black" d="M 181 171 273 131"/>
<path stroke-width="1" stroke="black" d="M 181 171 185 245"/>
<path stroke-width="1" stroke="black" d="M 181 171 123 90"/>
<path stroke-width="1" stroke="black" d="M 181 171 154 176"/>
<path stroke-width="1" stroke="black" d="M 181 171 288 117"/>
<path stroke-width="1" stroke="black" d="M 273 131 256 146"/>
<path stroke-width="1" stroke="black" d="M 238 160 111 132"/>
<path stroke-width="1" stroke="black" d="M 271 142 154 176"/>
<path stroke-width="1" stroke="black" d="M 271 142 337 167"/>
<path stroke-width="1" stroke="black" d="M 257 82 288 117"/>
<path stroke-width="1" stroke="black" d="M 257 82 271 142"/>
<path stroke-width="1" stroke="black" d="M 257 82 200 163"/>
<path stroke-width="1" stroke="black" d="M 257 82 162 67"/>
<path stroke-width="1" stroke="black" d="M 257 82 164 173"/>
<path stroke-width="1" stroke="black" d="M 257 82 304 48"/>
<path stroke-width="1" stroke="black" d="M 257 82 213 63"/>
<path stroke-width="1" stroke="black" d="M 257 82 154 176"/>
<path stroke-width="1" stroke="black" d="M 257 82 201 74"/>
<path stroke-width="1" stroke="black" d="M 257 82 276 118"/>
<path stroke-width="1" stroke="black" d="M 257 82 132 84"/>
<path stroke-width="1" stroke="black" d="M 257 82 76 124"/>
<path stroke-width="1" stroke="black" d="M 257 82 101 97"/>
<path stroke-width="1" stroke="black" d="M 257 82 118 144"/>
<path stroke-width="1" stroke="black" d="M 257 82 120 126"/>
<path stroke-width="1" stroke="black" d="M 257 82 282 97"/>
<path stroke-width="1" stroke="black" d="M 257 82 256 146"/>
<path stroke-width="1" stroke="black" d="M 257 82 176 92"/>
<path stroke-width="1" stroke="black" d="M 257 82 123 90"/>
<path stroke-width="1" stroke="black" d="M 257 82 273 131"/>
<path stroke-width="1" stroke="black" d="M 164 173 213 63"/>
<path stroke-width="1" stroke="black" d="M 164 173 201 74"/>
<path stroke-width="1" stroke="black" d="M 164 173 256 146"/>
<path stroke-width="1" stroke="black" d="M 164 173 276 118"/>
<path stroke-width="1" stroke="black" d="M 164 173 132 84"/>
<path stroke-width="1" stroke="black" d="M 164 173 76 124"/>
<path stroke-width="1" stroke="black" d="M 164 173 101 97"/>
<path stroke-width="1" stroke="black" d="M 257 82 181 171"/>
<path stroke-width="1" stroke="black" d="M 164 173 118 144"/>
<path stroke-width="1" stroke="black" d="M 164 173 282 97"/>
<path stroke-width="1" stroke="black" d="M 164 173 176 92"/>
<path stroke-width="1" stroke="black" d="M 164 173 244 77"/>
<path stroke-width="1" stroke="black" d="M 164 173 111 132"/>
<path stroke-width="1" stroke="black" d="M 164 173 238 160"/>
<path stroke-width="1" stroke="black" d="M 304 48 257 82"/>
<path stroke-width="1" stroke="black" d="M 257 82 200 192"/>
<path stroke-width="1" stroke="black" d="M 164 173 120 126"/>
<path stroke-width="1" stroke="black" d="M 257 82 244 77"/>
<path stroke-width="1" stroke="black" d="M 257 82 111 132"/>
<path stroke-width="1" stroke="black" d="M 257 82 238 160"/>
<path stroke-width="1" stroke="black" d="M 213 63 282 97"/>
<path stroke-width="1" stroke="black" d="M 213 63 176 92"/>
<path stroke-width="1" stroke="black" d="M 213 63 244 77"/>
<path stroke-width="1" stroke="black" d="M 213 63 111 132"/>
<path stroke-width="1" stroke="black" d="M 213 63 238 160"/>
<path stroke-width="1" stroke="black" d="M 202 37 201 74"/>
<path stroke-width="1" stroke="black" d="M 201 74 200 192"/>
<path stroke-width="1" stroke="black" d="M 213 63 120 126"/>
<path stroke-width="1" stroke="black" d="M 201 74 273 131"/>
<path stroke-width="1" stroke="black" d="M 201 74 123 90"/>
<path stroke-width="1" stroke="black" d="M 201 74 154 176"/>
<path stroke-width="1" stroke="black" d="M 201 74 288 117"/>
<path stroke-width="1" stroke="black" d="M 201 74 271 142"/>
<path stroke-width="1" stroke="black" d="M 201 74 200 163"/>
<path stroke-width="1" stroke="black" d="M 201 74 162 67"/>
<path stroke-width="1" stroke="black" d="M 201 74 164 173"/>
<path stroke-width="1" stroke="black" d="M 201 74 181 171"/>
<path stroke-width="1" stroke="black" d="M 213 63 118 144"/>
<path stroke-width="1" stroke="black" d="M 213 63 101 97"/>
<path stroke-width="1" stroke="black" d="M 213 63 76 124"/>
<path stroke-width="1" stroke="black" d="M 230 20 213 63"/>
<path stroke-width="1" stroke="black" d="M 213 63 200 192"/>
<path stroke-width="1" stroke="black" d="M 213 63 273 131"/>
<path stroke-width="1" stroke="black" d="M 213 63 181 171"/>
<path stroke-width="1" stroke="black" d="M 213 63 123 90"/>
<path stroke-width="1" stroke="black" d="M 213 63 154 176"/>
<path stroke-width="1" stroke="black" d="M 213 63 288 117"/>
<path stroke-width="1" stroke="black" d="M 213 63 271 142"/>
<path stroke-width="1" stroke="black" d="M 213 63 200 163"/>
<path stroke-width="1" stroke="black" d="M 213 63 162 67"/>
<path stroke-width="1" stroke="black" d="M 213 63 164 173"/>
<path stroke-width="1" stroke="black" d="M 213 63 257 82"/>
<path stroke-width="1" stroke="black" d="M 213 63 230 20"/>
<path stroke-width="1" stroke="black" d="M 213 63 201 74"/>
<path stroke-width="1" stroke="black" d="M 213 63 256 146"/>
<path stroke-width="1" stroke="black" d="M 213 63 276 118"/>
<path stroke-width="1" stroke="black" d="M 213 63 132 84"/>
<path stroke-width="1" stroke="black" d="M 164 173 257 82"/>
<path stroke-width="1" stroke="black" d="M 164 173 152 212"/>
<path stroke-width="1" stroke="black" d="M 164 173 162 67"/>
<path stroke-width="1" stroke="black" d="M 164 173 200 163"/>
<path stroke-width="1" stroke="black" d="M 200 163 181 171"/>
<path stroke-width="1" stroke="black" d="M 200 163 123 90"/>
<path stroke-width="1" stroke="black" d="M 200 163 154 176"/>
<path stroke-width="1" stroke="black" d="M 200 163 288 117"/>
<path stroke-width="1" stroke="black" d="M 200 163 271 142"/>
<path stroke-width="1" stroke="black" d="M 200 163 209 206"/>
<path stroke-width="1" stroke="black" d="M 200 163 162 67"/>
<path stroke-width="1" stroke="black" d="M 200 163 273 131"/>
<path stroke-width="1" stroke="black" d="M 200 163 164 173"/>
<path stroke-width="1" stroke="black" d="M 200 163 213 63"/>
<path stroke-width="1" stroke="black" d="M 200 163 201 74"/>
<path stroke-width="1" stroke="black" d="M 200 163 256 146"/>
<path stroke-width="1" stroke="black" d="M 200 163 276 118"/>
<path stroke-width="1" stroke="black" d="M 200 163 132 84"/>
<path stroke-width="1" stroke="black" d="M 200 163 76 124"/>
<path stroke-width="1" stroke="black" d="M 200 163 101 97"/>
<path stroke-width="1" stroke="black" d="M 200 163 257 82"/>
<path stroke-width="1" stroke="black" d="M 200 163 200 192"/>
<path stroke-width="1" stroke="black" d="M 209 206 200 163"/>
<path stroke-width="1" stroke="black" d="M 271 142 238 160"/>
<path stroke-width="1" stroke="black" d="M 271 142 200 163"/>
<path stroke-width="1" stroke="black" d="M 271 142 162 67"/>
<path stroke-width="1" stroke="black" d="M 271 142 164 173"/>
<path stroke-width="1" stroke="black" d="M 271 142 257 82"/>
<path stroke-width="1" stroke="black" d="M 271 142 213 63"/>
<path stroke-width="1" stroke="black" d="M 271 142 201 74"/>
<path stroke-width="1" stroke="black" d="M 271 142 256 146"/>
<path stroke-width="1" stroke="black" d="M 271 142 276 118"/>
<path stroke-width="1" stroke="black" d="M 271 142 132 84"/>
<path stroke-width="1" stroke="black" d="M 271 142 76 124"/>
<path stroke-width="1" stroke="black" d="M 271 142 101 97"/>
<path stroke-width="1" stroke="black" d="M 271 142 118 144"/>
<path stroke-width="1" stroke="black" d="M 271 142 120 126"/>
<path stroke-width="1" stroke="black" d="M 271 142 282 97"/>
<path stroke-width="1" stroke="black" d="M 271 142 176 92"/>
<path stroke-width="1" stroke="black" d="M 271 142 244 77"/>
<path stroke-width="1" stroke="black" d="M 271 142 111 132"/>
<path stroke-width="1" stroke="black" d="M 200 163 118 144"/>
<path stroke-width="1" stroke="black" d="M 271 142 288 117"/>
<path stroke-width="1" stroke="black" d="M 200 163 120 126"/>
<path stroke-width="1" stroke="black" d="M 200 163 176 92"/>
<path stroke-width="1" stroke="black" d="M 162 67 101 97"/>
<path stroke-width="1" stroke="black" d="M 162 67 118 144"/>
<path stroke-width="1" stroke="black" d="M 162 67 120 126"/>
<path stroke-width="1" stroke="black" d="M 162 67 282 97"/>
<path stroke-width="1" stroke="black" d="M 162 67 176 92"/>
<path stroke-width="1" stroke="black" d="M 162 67 244 77"/>
<path stroke-width="1" stroke="black" d="M 162 67 111 132"/>
<path stroke-width="1" stroke="black" d="M 162 67 76 124"/>
<path stroke-width="1" stroke="black" d="M 162 67 238 160"/>
<path stroke-width="1" stroke="black" d="M 164 173 200 192"/>
<path stroke-width="1" stroke="black" d="M 164 173 273 131"/>
<path stroke-width="1" stroke="black" d="M 164 173 181 171"/>
<path stroke-width="1" stroke="black" d="M 164 173 123 90"/>
<path stroke-width="1" stroke="black" d="M 164 173 154 176"/>
<path stroke-width="1" stroke="black" d="M 164 173 288 117"/>
<path stroke-width="1" stroke="black" d="M 164 173 271 142"/>
<path stroke-width="1" stroke="black" d="M 152 212 164 173"/>
<path stroke-width="1" stroke="black" d="M 162 67 132 84"/>
<path stroke-width="1" stroke="black" d="M 162 67 276 118"/>
<path stroke-width="1" stroke="black" d="M 162 67 256 146"/>
<path stroke-width="1" stroke="black" d="M 200 163 244 77"/>
<path stroke-width="1" stroke="black" d="M 200 163 111 132"/>
<path stroke-width="1" stroke="black" d="M 200 163 238 160"/>
<path stroke-width="1" stroke="black" d="M 144 22 162 67"/>
<path stroke-width="1" stroke="black" d="M 162 67 200 192"/>
<path stroke-width="1" stroke="black" d="M 162 67 273 131"/>
<path stroke-width="1" stroke="black" d="M 162 67 181 171"/>
<path stroke-width="1" stroke="black" d="M 162 67 123 90"/>
<path stroke-width="1" stroke="black" d="M 162 67 154 176"/>
<path stroke-width="1" stroke="black" d="M 162 67 288 117"/>
<path stroke-width="1" stroke="black" d="M 162 67 271 142"/>
<path stroke-width="1" stroke="black" d="M 162 67 200 163"/>
<path stroke-width="1" stroke="black" d="M 162 67 144 22"/>
<path stroke-width="1" stroke="black" d="M 162 67 164 173"/>
<path stroke-width="1" stroke="black" d="M 162 67 257 82"/>
<path stroke-width="1" stroke="black" d="M 162 67 213 63"/>
<path stroke-width="1" stroke="black" d="M 162 67 201 74"/>
<path stroke-width="1" stroke="black" d="M 200 163 282 97"/>
<path stroke-width="1" stroke="black" d="M 238 160 261 180"/>
<circle cx="207" cy="320" r="7.0" style="fill:orange;stroke:black;stroke-width:1.0"/>
<circle cx="200" cy="192" r="7.0" style="fill:orange;stroke:black;stroke-width:1.0"/>
<circle cx="420" cy="158" r="7.0" style="fill:red;stroke:black;stroke-width:1.0"/>
<circle cx="273" cy="131" r="7.0" style="fill:red;stroke:black;stroke-width:1.0"/>
<circle cx="185" cy="245" r="7.0" style="fill:blue;stroke:black;stroke-width:1.0"/>
<circle cx="181" cy="171" r="7.0" style="fill:blue;stroke:black;stroke-width:1.0"/>
<circle cx="48" cy="39" r="7.0" style="fill:orange;stroke:black;stroke-width:1.0"/>
<circle cx="123" cy="90" r="7.0" style="fill:orange;stroke:black;stroke-width:1.0"/>
<circle cx="136" cy="233" r="7.0" style="fill:orange;stroke:black;stroke-width:1.0"/>
<circle cx="154" cy="176" r="7.0" style="fill:orange;stroke:black;stroke-width:1.0"/>
<circle cx="385" cy="113" r="7.0" style="fill:orange;stroke:black;stroke-width:1.0"/>
<circle cx="288" cy="117" r="7.0" style="fill:orange;stroke:black;stroke-width:1.0"/>
<circle cx="337" cy="167" r="7.0" style="fill:orange;stroke:black;stroke-width:1.0"/>
<circle cx="271" cy="142" r="7.0" style="fill:orange;stroke:black;stroke-width:1.0"/>
<circle cx="209" cy="206" r="7.0" style="fill:blue;stroke:black;stroke-width:1.0"/>
<circle cx="200" cy="163" r="7.0" style="fill:blue;stroke:black;stroke-width:1.0"/>
<circle cx="144" cy="22" r="7.0" style="fill:purple;stroke:black;stroke-width:1.0"/>
<circle cx="162" cy="67" r="7.0" style="fill:purple;stroke:black;stroke-width:1.0"/>
<circle cx="152" cy="212" r="7.0" style="fill:brown;stroke:black;stroke-width:1.0"/>
<circle cx="164" cy="173" r="7.0" style="fill:brown;stroke:black;stroke-width:1.0"/>
<circle cx="304" cy="48" r="7.0" style="fill:orange;stroke:black;stroke-width:1.0"/>
<circle cx="257" cy="82" r="7.0" style="fill:orange;stroke:black;stroke-width:1.0"/>
<circle cx="230" cy="20" r="7.0" style="fill:orange;stroke:black;stroke-width:1.0"/>
<circle cx="213" cy="63" r="7.0" style="fill:orange;stroke:black;stroke-width:1.0"/>
<circle cx="202" cy="37" r="7.0" style="fill:orange;stroke:black;stroke-width:1.0"/>
<circle cx="201" cy="74" r="7.0" style="fill:orange;stroke:black;stroke-width:1.0"/>
<circle cx="293" cy="166" r="7.0" style="fill:aqua;stroke:black;stroke-width:1.0"/>
<circle cx="256" cy="146" r="7.0" style="fill:aqua;stroke:black;stroke-width:1.0"/>
<circle cx="335" cy="118" r="7.0" style="fill:orange;stroke:black;stroke-width:1.0"/>
<circle cx="276" cy="118" r="7.0" style="fill:orange;stroke:black;stroke-width:1.0"/>
<circle cx="82" cy="58" r="7.0" style="fill:orange;stroke:black;stroke-width:1.0"/>
<circle cx="132" cy="84" r="7.0" style="fill:orange;stroke:black;stroke-width:1.0"/>
<circle cx="20" cy="126" r="7.0" style="fill:orange;stroke:black;stroke-width:1.0"/>
<circle cx="76" cy="124" r="7.0" style="fill:orange;stroke:black;stroke-width:1.0"/>
<circle cx="44" cy="80" r="7.0" style="fill:orange;stroke:black;stroke-width:1.0"/>
<circle cx="101" cy="97" r="7.0" style="fill:orange;stroke:black;stroke-width:1.0"/>
<circle cx="49" cy="160" r="7.0" style="fill:yellow;stroke:black;stroke-width:1.0"/>
<circle cx="118" cy="144" r="7.0" style="fill:yellow;stroke:black;stroke-width:1.0"/>
<circle cx="50" cy="130" r="7.0" style="fill:olive;stroke:black;stroke-width:1.0"/>
<circle cx="120" cy="126" r="7.0" style="fill:olive;stroke:black;stroke-width:1.0"/>
<circle cx="322" cy="84" r="7.0" style="fill:orange;stroke:black;stroke-width:1.0"/>
<circle cx="282" cy="97" r="7.0" style="fill:orange;stroke:black;stroke-width:1.0"/>
<circle cx="149" cy="65" r="7.0" style="fill:green;stroke:black;stroke-width:1.0"/>
<circle cx="176" cy="92" r="7.0" style="fill:green;stroke:black;stroke-width:1.0"/>
<circle cx="269" cy="50" r="7.0" style="fill:red;stroke:black;stroke-width:1.0"/>
<circle cx="244" cy="77" r="7.0" style="fill:red;stroke:black;stroke-width:1.0"/>
<circle cx="154" cy="150" r="7.0" style="fill:fuchsia;stroke:black;stroke-width:1.0"/>
<circle cx="111" cy="132" r="7.0" style="fill:fuchsia;stroke:black;stroke-width:1.0"/>
<circle cx="261" cy="180" r="7.0" style="fill:orange;stroke:black;stroke-width:1.0"/>
<circle cx="238" cy="160" r="7.0" style="fill:orange;stroke:black;stroke-width:1.0"/>
</svg>
