<svg width="440" height="340" xmlns="http://www.w3.org/2000/svg">
<path stroke-width="1.5051546391752577" stroke="black" d="M 420 165 264 147"/>
<path stroke-width="0.5" stroke="black" d="M 114 93 145 212"/>
<path stroke-width="0.5" stroke="black" d="M 114 93 121 77"/>
<path stroke-width="0.5" stroke="black" d="M 114 93 101 171"/>
<path stroke-width="0.5" stroke="black" d="M 114 93 154 116"/>
<path stroke-width="0.5" stroke="black" d="M 114 93 137 207"/>
<path stroke-width="13.969072164948454" stroke="black" d="M 114 93 72 66"/>
<path stroke-width="0.5" stroke="black" d="M 114 93 150 68"/>
<path stroke-width="0.5" stroke="black" d="M 114 93 201 212"/>
<path stroke-width="0.5" stroke="black" d="M 114 93 233 182"/>
<path stroke-width="0.5" stroke="black" d="M 114 93 171 65"/>
<path stroke-width="0.5" stroke="black" d="M 114 93 200 67"/>
<path stroke-width="0.5" stroke="black" d="M 114 93 178 154"/>
<path stroke-width="0.5" stroke="black" d="M 114 93 229 122"/>
<path stroke-width="0.5" stroke="black" d="M 114 93 205 135"/>
<path stroke-width="14.77319587628866" stroke="black" d="M 131 27 150 68"/>
<path stroke-width="0.5" stroke="black" d="M 150 68 264 147"/>
<path stroke-width="0.5" stroke="black" d="M 114 93 118 183"/>
<path stroke-width="0.5" stroke="black" d="M 150 68 161 202"/>
<path stroke-width="0.5" stroke="black" d="M 114 93 95 116"/>
<path stroke-width="0.5" stroke="black" d="M 114 93 218 74"/>
<path stroke-width="0.5" stroke="black" d="M 137 207 150 68"/>
<path stroke-width="0.5" stroke="black" d="M 137 207 233 182"/>
<path stroke-width="0.5" stroke="black" d="M 137 207 118 183"/>
<path stroke-width="0.5" stroke="black" d="M 137 207 171 65"/>
<path stroke-width="0.5" stroke="black" d="M 137 207 200 67"/>
<path stroke-width="0.5" stroke="black" d="M 137 207 178 154"/>
<path stroke-width="0.5" stroke="black" d="M 137 207 229 122"/>
<path stroke-width="0.5" stroke="black" d="M 114 93 234 191"/>
<path stroke-width="0.5" stroke="black" d="M 137 207 205 135"/>
<path stroke-width="0.5" stroke="black" d="M 114 93 264 147"/>
<path stroke-width="0.5" stroke="black" d="M 114 93 161 202"/>
<path stroke-width="0.5" stroke="black" d="M 114 93 258 140"/>
<path stroke-width="0.5" stroke="black" d="M 114 93 231 86"/>
<path stroke-width="0.5" stroke="black" d="M 114 93 251 116"/>
<path stroke-width="0.5" stroke="black" d="M 114 93 204 213"/>
<path stroke-width="0.5" stroke="black" d="M 114 93 93 149"/>
<path stroke-width="13.969072164948454" stroke="black" d="M 72 66 114 93"/>
<path stroke-width="0.5" stroke="black" d="M 150 68 258 140"/>
<path stroke-width="0.5" stroke="black" d="M 150 68 231 86"/>
<path stroke-width="0.5" stroke="black" d="M 150 68 251 116"/>
<path stroke-width="0.5" stroke="black" d="M 233 182 264 147"/>
<path stroke-width="0.5" stroke="black" d="M 233 182 161 202"/>
<path stroke-width="0.5" stroke="black" d="M 233 182 258 140"/>
<path stroke-width="0.5" stroke="black" d="M 233 182 231 86"/>
<path stroke-width="0.5" stroke="black" d="M 233 182 251 116"/>
<path stroke-width="0.5" stroke="black" d="M 233 182 204 213"/>
<path stroke-width="0.5" stroke="black" d="M 233 182 93 149"/>
<path stroke-width="15.577319587628866" stroke="black" d="M 272 206 233 182"/>
<path stroke-width="0.5" stroke="black" d="M 233 182 218 74"/>
<path stroke-width="0.5" stroke="black" d="M 233 182 95 116"/>
<path stroke-width="0.5" stroke="black" d="M 233 182 201 212"/>
<path stroke-width="0.5" stroke="black" d="M 233 182 145 212"/>
<path stroke-width="0.5" stroke="black" d="M 233 182 121 77"/>
<path stroke-width="0.5" stroke="black" d="M 233 182 101 171"/>
<path stroke-width="0.5" stroke="black" d="M 233 182 154 116"/>
<path stroke-width="0.5" stroke="black" d="M 233 182 137 207"/>
<path stroke-width="0.5" stroke="black" d="M 233 182 234 191"/>
<path stroke-width="0.5" stroke="black" d="M 150 68 205 135"/>
<path stroke-width="0.5" stroke="black" d="M 150 68 229 122"/>
<path stroke-width="0.5" stroke="black" d="M 150 68 178 154"/>
<path stroke-width="0.5" stroke="black" d="M 150 68 204 213"/>
<path stroke-width="0.5" stroke="black" d="M 150 68 93 149"/>
<path stroke-width="0.5" stroke="black" d="M 150 68 218 74"/>
<path stroke-width="0.5" stroke="black" d="M 150 68 234 191"/>
<path stroke-width="0.5" stroke="black" d="M 150 68 95 116"/>
<path stroke-width="0.5" stroke="black" d="M 150 68 201 212"/>
<path stroke-width="0.5" stroke="black" d="M 150 68 145 212"/>
<path stroke-width="0.5" stroke="black" d="M 150 68 121 77"/>
<path stroke-width="0.5" stroke="black" d="M 150 68 101 171"/>
<path stroke-width="0.5" stroke="black" d="M 150 68 154 116"/>
<path stroke-width="0.5" stroke="black" d="M 150 68 137 207"/>
<path stroke-width="0.5" stroke="black" d="M 150 68 114 93"/>
<path stroke-width="14.77319587628866" stroke="black" d="M 150 68 131 27"/>
<path stroke-width="0.5" stroke="black" d="M 150 68 233 182"/>
<path stroke-width="0.5" stroke="black" d="M 150 68 118 183"/>
<path stroke-width="0.5" stroke="black" d="M 150 68 171 65"/>
<path stroke-width="0.5" stroke="black" d="M 150 68 200 67"/>
<path stroke-width="0.5" stroke="black" d="M 137 207 114 93"/>
<path stroke-width="0.5" stroke="black" d="M 233 182 114 93"/>
<path stroke-width="13.164948453608247" stroke="black" d="M 137 207 111 247"/>
<path stroke-width="0.5" stroke="black" d="M 137 207 101 171"/>
<path stroke-width="0.5" stroke="black" d="M 101 171 234 191"/>
<path stroke-width="0.5" stroke="black" d="M 101 171 95 116"/>
<path stroke-width="0.5" stroke="black" d="M 101 171 201 212"/>
<path stroke-width="0.5" stroke="black" d="M 101 171 145 212"/>
<path stroke-width="0.5" stroke="black" d="M 101 171 121 77"/>
<path stroke-width="11.556701030927835" stroke="black" d="M 101 171 52 194"/>
<path stroke-width="0.5" stroke="black" d="M 101 171 154 116"/>
<path stroke-width="0.5" stroke="black" d="M 101 171 218 74"/>
<path stroke-width="0.5" stroke="black" d="M 101 171 137 207"/>
<path stroke-width="0.5" stroke="black" d="M 101 171 150 68"/>
<path stroke-width="0.5" stroke="black" d="M 101 171 233 182"/>
<path stroke-width="0.5" stroke="black" d="M 101 171 118 183"/>
<path stroke-width="0.5" stroke="black" d="M 101 171 171 65"/>
<path stroke-width="0.5" stroke="black" d="M 101 171 200 67"/>
<path stroke-width="0.5" stroke="black" d="M 101 171 178 154"/>
<path stroke-width="0.5" stroke="black" d="M 101 171 229 122"/>
<path stroke-width="0.5" stroke="black" d="M 101 171 114 93"/>
<path stroke-width="0.5" stroke="black" d="M 101 171 205 135"/>
<path stroke-width="0.5" stroke="black" d="M 101 171 93 149"/>
<path stroke-width="0.5" stroke="black" d="M 101 171 251 116"/>
<path stroke-width="0.5" stroke="black" d="M 121 77 154 116"/>
<path stroke-width="0.5" stroke="black" d="M 121 77 137 207"/>
<path stroke-width="0.5" stroke="black" d="M 121 77 114 93"/>
<path stroke-width="0.5" stroke="black" d="M 121 77 150 68"/>
<path stroke-width="0.5" stroke="black" d="M 121 77 233 182"/>
<path stroke-width="0.5" stroke="black" d="M 121 77 118 183"/>
<path stroke-width="0.5" stroke="black" d="M 121 77 171 65"/>
<path stroke-width="0.5" stroke="black" d="M 101 171 204 213"/>
<path stroke-width="0.5" stroke="black" d="M 121 77 200 67"/>
<path stroke-width="0.5" stroke="black" d="M 121 77 229 122"/>
<path stroke-width="0.5" stroke="black" d="M 121 77 205 135"/>
<path stroke-width="11.556701030927835" stroke="black" d="M 52 194 101 171"/>
<path stroke-width="0.5" stroke="black" d="M 101 171 264 147"/>
<path stroke-width="0.5" stroke="black" d="M 101 171 161 202"/>
<path stroke-width="0.5" stroke="black" d="M 101 171 258 140"/>
<path stroke-width="0.5" stroke="black" d="M 101 171 231 86"/>
<path stroke-width="0.5" stroke="black" d="M 121 77 178 154"/>
<path stroke-width="12.360824742268042" stroke="black" d="M 123 112 154 116"/>
<path stroke-width="0.5" stroke="black" d="M 154 116 264 147"/>
<path stroke-width="0.5" stroke="black" d="M 154 116 161 202"/>
<path stroke-width="0.5" stroke="black" d="M 154 116 229 122"/>
<path stroke-width="0.5" stroke="black" d="M 154 116 205 135"/>
<path stroke-width="13.164948453608247" stroke="black" d="M 111 247 137 207"/>
<path stroke-width="0.5" stroke="black" d="M 137 207 264 147"/>
<path stroke-width="0.5" stroke="black" d="M 137 207 161 202"/>
<path stroke-width="0.5" stroke="black" d="M 137 207 258 140"/>
<path stroke-width="0.5" stroke="black" d="M 137 207 231 86"/>
<path stroke-width="0.5" stroke="black" d="M 154 116 178 154"/>
<path stroke-width="0.5" stroke="black" d="M 137 207 251 116"/>
<path stroke-width="0.5" stroke="black" d="M 137 207 93 149"/>
<path stroke-width="0.5" stroke="black" d="M 137 207 218 74"/>
<path stroke-width="0.5" stroke="black" d="M 137 207 234 191"/>
<path stroke-width="0.5" stroke="black" d="M 137 207 95 116"/>
<path stroke-width="0.5" stroke="black" d="M 137 207 201 212"/>
<path stroke-width="0.5" stroke="black" d="M 137 207 145 212"/>
<path stroke-width="0.5" stroke="black" d="M 137 207 121 77"/>
<path stroke-width="0.5" stroke="black" d="M 137 207 204 213"/>
<path stroke-width="0.5" stroke="black" d="M 154 116 200 67"/>
<path stroke-width="0.5" stroke="black" d="M 154 116 171 65"/>
<path stroke-width="0.5" stroke="black" d="M 154 116 118 183"/>
<path stroke-width="0.5" stroke="black" d="M 154 116 258 140"/>
<path stroke-width="0.5" stroke="black" d="M 154 116 231 86"/>
<path stroke-width="0.5" stroke="black" d="M 154 116 251 116"/>
<path stroke-width="0.5" stroke="black" d="M 154 116 204 213"/>
<path stroke-width="0.5" stroke="black" d="M 154 116 93 149"/>
<path stroke-width="0.5" stroke="black" d="M 154 116 218 74"/>
<path stroke-width="0.5" stroke="black" d="M 154 116 234 191"/>
<path stroke-width="0.5" stroke="black" d="M 154 116 95 116"/>
<path stroke-width="0.5" stroke="black" d="M 154 116 201 212"/>
<path stroke-width="0.5" stroke="black" d="M 154 116 145 212"/>
<path stroke-width="0.5" stroke="black" d="M 154 116 121 77"/>
<path stroke-width="0.5" stroke="black" d="M 154 116 101 171"/>
<path stroke-width="12.360824742268042" stroke="black" d="M 154 116 123 112"/>
<path stroke-width="0.5" stroke="black" d="M 154 116 137 207"/>
<path stroke-width="0.5" stroke="black" d="M 154 116 114 93"/>
<path stroke-width="0.5" stroke="black" d="M 154 116 150 68"/>
<path stroke-width="0.5" stroke="black" d="M 154 116 233 182"/>
<path stroke-width="0.5" stroke="black" d="M 137 207 154 116"/>
<path stroke-width="0.5" stroke="black" d="M 233 182 150 68"/>
<path stroke-width="15.577319587628866" stroke="black" d="M 233 182 272 206"/>
<path stroke-width="0.5" stroke="black" d="M 233 182 118 183"/>
<path stroke-width="0.5" stroke="black" d="M 178 154 233 182"/>
<path stroke-width="0.5" stroke="black" d="M 178 154 118 183"/>
<path stroke-width="0.5" stroke="black" d="M 178 154 171 65"/>
<path stroke-width="0.5" stroke="black" d="M 178 154 200 67"/>
<path stroke-width="18.79381443298969" stroke="black" d="M 178 154 179 173"/>
<path stroke-width="0.5" stroke="black" d="M 178 154 229 122"/>
<path stroke-width="0.5" stroke="black" d="M 178 154 205 135"/>
<path stroke-width="0.5" stroke="black" d="M 178 154 150 68"/>
<path stroke-width="19.195876288659793" stroke="black" d="M 260 108 229 122"/>
<path stroke-width="0.5" stroke="black" d="M 229 122 161 202"/>
<path stroke-width="0.5" stroke="black" d="M 229 122 258 140"/>
<path stroke-width="0.5" stroke="black" d="M 229 122 231 86"/>
<path stroke-width="0.5" stroke="black" d="M 229 122 251 116"/>
<path stroke-width="0.5" stroke="black" d="M 229 122 204 213"/>
<path stroke-width="0.5" stroke="black" d="M 229 122 93 149"/>
<path stroke-width="0.5" stroke="black" d="M 229 122 218 74"/>
<path stroke-width="0.5" stroke="black" d="M 229 122 264 147"/>
<path stroke-width="0.5" stroke="black" d="M 229 122 234 191"/>
<path stroke-width="0.5" stroke="black" d="M 178 154 114 93"/>
<path stroke-width="0.5" stroke="black" d="M 178 154 154 116"/>
<path stroke-width="0.5" stroke="black" d="M 200 67 205 135"/>
<path stroke-width="18.79381443298969" stroke="black" d="M 179 173 178 154"/>
<path stroke-width="0.5" stroke="black" d="M 178 154 264 147"/>
<path stroke-width="0.5" stroke="black" d="M 178 154 161 202"/>
<path stroke-width="0.5" stroke="black" d="M 178 154 258 140"/>
<path stroke-width="0.5" stroke="black" d="M 178 154 231 86"/>
<path stroke-width="0.5" stroke="black" d="M 178 154 251 116"/>
<path stroke-width="0.5" stroke="black" d="M 178 154 137 207"/>
<path stroke-width="0.5" stroke="black" d="M 178 154 204 213"/>
<path stroke-width="0.5" stroke="black" d="M 178 154 218 74"/>
<path stroke-width="0.5" stroke="black" d="M 178 154 234 191"/>
<path stroke-width="0.5" stroke="black" d="M 178 154 95 116"/>
<path stroke-width="0.5" stroke="black" d="M 178 154 201 212"/>
<path stroke-width="0.5" stroke="black" d="M 178 154 145 212"/>
<path stroke-width="0.5" stroke="black" d="M 178 154 121 77"/>
<path stroke-width="0.5" stroke="black" d="M 178 154 101 171"/>
<path stroke-width="0.5" stroke="black" d="M 178 154 93 149"/>
<path stroke-width="0.5" stroke="black" d="M 229 122 95 116"/>
<path stroke-width="0.5" stroke="black" d="M 229 122 201 212"/>
<path stroke-width="0.5" stroke="black" d="M 229 122 145 212"/>
<path stroke-width="0.5" stroke="black" d="M 205 135 218 74"/>
<path stroke-width="0.5" stroke="black" d="M 205 135 234 191"/>
<path stroke-width="0.5" stroke="black" d="M 205 135 95 116"/>
<path stroke-width="0.5" stroke="black" d="M 205 135 201 212"/>
<path stroke-width="0.5" stroke="black" d="M 205 135 145 212"/>
<path stroke-width="0.5" stroke="black" d="M 205 135 121 77"/>
<path stroke-width="0.5" stroke="black" d="M 205 135 101 171"/>
<path stroke-width="0.5" stroke="black" d="M 205 135 93 149"/>
<path stroke-width="0.5" stroke="black" d="M 205 135 154 116"/>
<path stroke-width="0.5" stroke="black" d="M 205 135 114 93"/>
<path stroke-width="0.5" stroke="black" d="M 205 135 150 68"/>
<path stroke-width="0.5" stroke="black" d="M 205 135 233 182"/>
<path stroke-width="0.5" stroke="black" d="M 205 135 118 183"/>
<path stroke-width="0.5" stroke="black" d="M 205 135 171 65"/>
<path stroke-width="0.5" stroke="black" d="M 205 135 200 67"/>
<path stroke-width="0.5" stroke="black" d="M 205 135 178 154"/>
<path stroke-width="0.5" stroke="black" d="M 205 135 137 207"/>
<path stroke-width="0.5" stroke="black" d="M 205 135 204 213"/>
<path stroke-width="0.5" stroke="black" d="M 205 135 251 116"/>
<path stroke-width="0.5" stroke="black" d="M 205 135 231 86"/>
<path stroke-width="0.5" stroke="black" d="M 229 122 121 77"/>
<path stroke-width="0.5" stroke="black" d="M 229 122 101 171"/>
<path stroke-width="0.5" stroke="black" d="M 229 122 154 116"/>
<path stroke-width="0.5" stroke="black" d="M 229 122 137 207"/>
<path stroke-width="0.5" stroke="black" d="M 229 122 114 93"/>
<path stroke-width="0.5" stroke="black" d="M 229 122 150 68"/>
<path stroke-width="0.5" stroke="black" d="M 229 122 233 182"/>
<path stroke-width="0.5" stroke="black" d="M 229 122 118 183"/>
<path stroke-width="0.5" stroke="black" d="M 229 122 171 65"/>
<path stroke-width="0.5" stroke="black" d="M 229 122 200 67"/>
<path stroke-width="0.5" stroke="black" d="M 229 122 178 154"/>
<path stroke-width="19.195876288659793" stroke="black" d="M 229 122 260 108"/>
<path stroke-width="0.5" stroke="black" d="M 229 122 205 135"/>
<path stroke-width="20.0" stroke="black" d="M 150 140 205 135"/>
<path stroke-width="0.5" stroke="black" d="M 205 135 264 147"/>
<path stroke-width="0.5" stroke="black" d="M 205 135 161 202"/>
<path stroke-width="0.5" stroke="black" d="M 205 135 258 140"/>
<path stroke-width="0.5" stroke="black" d="M 200 67 229 122"/>
<path stroke-width="0.5" stroke="black" d="M 200 67 178 154"/>
<path stroke-width="17.989690721649485" stroke="black" d="M 200 67 211 29"/>
<path stroke-width="0.5" stroke="black" d="M 200 67 171 65"/>
<path stroke-width="0.5" stroke="black" d="M 118 183 137 207"/>
<path stroke-width="0.5" stroke="black" d="M 118 183 114 93"/>
<path stroke-width="0.5" stroke="black" d="M 118 183 150 68"/>
<path stroke-width="0.5" stroke="black" d="M 118 183 233 182"/>
<path stroke-width="16.381443298969074" stroke="black" d="M 118 183 83 209"/>
<path stroke-width="0.5" stroke="black" d="M 118 183 171 65"/>
<path stroke-width="0.5" stroke="black" d="M 118 183 200 67"/>
<path stroke-width="0.5" stroke="black" d="M 118 183 154 116"/>
<path stroke-width="0.5" stroke="black" d="M 118 183 178 154"/>
<path stroke-width="0.5" stroke="black" d="M 118 183 205 135"/>
<path stroke-width="17.185567010309278" stroke="black" d="M 169 24 171 65"/>
<path stroke-width="0.5" stroke="black" d="M 171 65 264 147"/>
<path stroke-width="0.5" stroke="black" d="M 171 65 161 202"/>
<path stroke-width="0.5" stroke="black" d="M 171 65 258 140"/>
<path stroke-width="0.5" stroke="black" d="M 171 65 231 86"/>
<path stroke-width="0.5" stroke="black" d="M 171 65 251 116"/>
<path stroke-width="0.5" stroke="black" d="M 118 183 229 122"/>
<path stroke-width="0.5" stroke="black" d="M 118 183 101 171"/>
<path stroke-width="0.5" stroke="black" d="M 118 183 121 77"/>
<path stroke-width="0.5" stroke="black" d="M 118 183 145 212"/>
<path stroke-width="0.5" stroke="black" d="M 233 182 171 65"/>
<path stroke-width="0.5" stroke="black" d="M 233 182 200 67"/>
<path stroke-width="0.5" stroke="black" d="M 233 182 178 154"/>
<path stroke-width="0.5" stroke="black" d="M 233 182 229 122"/>
<path stroke-width="0.5" stroke="black" d="M 233 182 205 135"/>
<path stroke-width="16.381443298969074" stroke="black" d="M 83 209 118 183"/>
<path stroke-width="0.5" stroke="black" d="M 118 183 264 147"/>
<path stroke-width="0.5" stroke="black" d="M 118 183 161 202"/>
<path stroke-width="0.5" stroke="black" d="M 118 183 258 140"/>
<path stroke-width="0.5" stroke="black" d="M 118 183 231 86"/>
<path stroke-width="0.5" stroke="black" d="M 118 183 251 116"/>
<path stroke-width="0.5" stroke="black" d="M 118 183 204 213"/>
<path stroke-width="0.5" stroke="black" d="M 118 183 93 149"/>
<path stroke-width="0.5" stroke="black" d="M 118 183 218 74"/>
<path stroke-width="0.5" stroke="black" d="M 118 183 234 191"/>
<path stroke-width="0.5" stroke="black" d="M 118 183 95 116"/>
<path stroke-width="0.5" stroke="black" d="M 118 183 201 212"/>
<path stroke-width="0.5" stroke="black" d="M 171 65 204 213"/>
<path stroke-width="0.5" stroke="black" d="M 121 77 101 171"/>
<path stroke-width="0.5" stroke="black" d="M 171 65 93 149"/>
<path stroke-width="0.5" stroke="black" d="M 171 65 234 191"/>
<path stroke-width="0.5" stroke="black" d="M 200 67 251 116"/>
<path stroke-width="0.5" stroke="black" d="M 200 67 204 213"/>
<path stroke-width="0.5" stroke="black" d="M 200 67 93 149"/>
<path stroke-width="0.5" stroke="black" d="M 200 67 218 74"/>
<path stroke-width="0.5" stroke="black" d="M 200 67 234 191"/>
<path stroke-width="0.5" stroke="black" d="M 200 67 95 116"/>
<path stroke-width="0.5" stroke="black" d="M 200 67 201 212"/>
<path stroke-width="0.5" stroke="black" d="M 200 67 231 86"/>
<path stroke-width="0.5" stroke="black" d="M 200 67 145 212"/>
<path stroke-width="0.5" stroke="black" d="M 200 67 101 171"/>
<path stroke-width="0.5" stroke="black" d="M 200 67 154 116"/>
<path stroke-width="0.5" stroke="black" d="M 200 67 137 207"/>
<path stroke-width="0.5" stroke="black" d="M 200 67 114 93"/>
<path stroke-width="0.5" stroke="black" d="M 200 67 150 68"/>
<path stroke-width="0.5" stroke="black" d="M 200 67 233 182"/>
<path stroke-width="0.5" stroke="black" d="M 200 67 118 183"/>
<path stroke-width="0.5" stroke="black" d="M 200 67 121 77"/>
<path stroke-width="0.5" stroke="black" d="M 200 67 258 140"/>
<path stroke-width="0.5" stroke="black" d="M 200 67 161 202"/>
<path stroke-width="0.5" stroke="black" d="M 200 67 264 147"/>
<path stroke-width="0.5" stroke="black" d="M 171 65 95 116"/>
<path stroke-width="0.5" stroke="black" d="M 171 65 201 212"/>
<path stroke-width="0.5" stroke="black" d="M 171 65 145 212"/>
<path stroke-width="0.5" stroke="black" d="M 171 65 121 77"/>
<path stroke-width="0.5" stroke="black" d="M 171 65 101 171"/>
<path stroke-width="0.5" stroke="black" d="M 171 65 154 116"/>
<path stroke-width="0.5" stroke="black" d="M 171 65 137 207"/>
<path stroke-width="0.5" stroke="black" d="M 171 65 114 93"/>
<path stroke-width="0.5" stroke="black" d="M 171 65 150 68"/>
<path stroke-width="0.5" stroke="black" d="M 171 65 233 182"/>
<path stroke-width="0.5" stroke="black" d="M 171 65 118 183"/>
<path stroke-width="17.185567010309278" stroke="black" d="M 171 65 169 24"/>
<path stroke-width="0.5" stroke="black" d="M 171 65 200 67"/>
<path stroke-width="0.5" stroke="black" d="M 171 65 178 154"/>
<path stroke-width="0.5" stroke="black" d="M 171 65 229 122"/>
<path stroke-width="0.5" stroke="black" d="M 171 65 205 135"/>
<path stroke-width="17.989690721649485" stroke="black" d="M 211 29 200 67"/>
<path stroke-width="0.5" stroke="black" d="M 171 65 218 74"/>
<path stroke-width="10.75257731958763" stroke="black" d="M 121 77 81 36"/>
<path stroke-width="0.5" stroke="black" d="M 121 77 145 212"/>
<path stroke-width="0.5" stroke="black" d="M 121 77 201 212"/>
<path stroke-width="0.5" stroke="black" d="M 231 86 205 135"/>
<path stroke-width="4.31958762886598" stroke="black" d="M 330 93 251 116"/>
<path stroke-width="0.5" stroke="black" d="M 251 116 264 147"/>
<path stroke-width="0.5" stroke="black" d="M 251 116 161 202"/>
<path stroke-width="0.5" stroke="black" d="M 251 116 258 140"/>
<path stroke-width="0.5" stroke="black" d="M 251 116 231 86"/>
<path stroke-width="4.31958762886598" stroke="black" d="M 251 116 330 93"/>
<path stroke-width="0.5" stroke="black" d="M 231 86 229 122"/>
<path stroke-width="0.5" stroke="black" d="M 251 116 204 213"/>
<path stroke-width="0.5" stroke="black" d="M 251 116 218 74"/>
<path stroke-width="0.5" stroke="black" d="M 251 116 234 191"/>
<path stroke-width="0.5" stroke="black" d="M 251 116 95 116"/>
<path stroke-width="0.5" stroke="black" d="M 251 116 201 212"/>
<path stroke-width="0.5" stroke="black" d="M 251 116 145 212"/>
<path stroke-width="0.5" stroke="black" d="M 251 116 121 77"/>
<path stroke-width="0.5" stroke="black" d="M 251 116 101 171"/>
<path stroke-width="0.5" stroke="black" d="M 251 116 93 149"/>
<path stroke-width="0.5" stroke="black" d="M 251 116 154 116"/>
<path stroke-width="0.5" stroke="black" d="M 231 86 178 154"/>
<path stroke-width="0.5" stroke="black" d="M 231 86 171 65"/>
<path stroke-width="0.5" stroke="black" d="M 231 86 251 116"/>
<path stroke-width="0.5" stroke="black" d="M 231 86 204 213"/>
<path stroke-width="0.5" stroke="black" d="M 231 86 93 149"/>
<path stroke-width="0.5" stroke="black" d="M 231 86 218 74"/>
<path stroke-width="0.5" stroke="black" d="M 231 86 234 191"/>
<path stroke-width="0.5" stroke="black" d="M 231 86 95 116"/>
<path stroke-width="0.5" stroke="black" d="M 231 86 201 212"/>
<path stroke-width="0.5" stroke="black" d="M 231 86 200 67"/>
<path stroke-width="0.5" stroke="black" d="M 231 86 145 212"/>
<path stroke-width="0.5" stroke="black" d="M 231 86 101 171"/>
<path stroke-width="0.5" stroke="black" d="M 231 86 154 116"/>
<path stroke-width="0.5" stroke="black" d="M 231 86 137 207"/>
<path stroke-width="0.5" stroke="black" d="M 231 86 114 93"/>
<path stroke-width="0.5" stroke="black" d="M 231 86 150 68"/>
<path stroke-width="0.5" stroke="black" d="M 231 86 233 182"/>
<path stroke-width="0.5" stroke="black" d="M 231 86 118 183"/>
<path stroke-width="0.5" stroke="black" d="M 231 86 121 77"/>
<path stroke-width="0.5" stroke="black" d="M 251 116 137 207"/>
<path stroke-width="0.5" stroke="black" d="M 251 116 114 93"/>
<path stroke-width="0.5" stroke="black" d="M 251 116 150 68"/>
<path stroke-width="0.5" stroke="black" d="M 204 213 101 171"/>
<path stroke-width="0.5" stroke="black" d="M 204 213 154 116"/>
<path stroke-width="0.5" stroke="black" d="M 204 213 137 207"/>
<path stroke-width="0.5" stroke="black" d="M 204 213 114 93"/>
<path stroke-width="0.5" stroke="black" d="M 204 213 150 68"/>
<path stroke-width="0.5" stroke="black" d="M 204 213 233 182"/>
<path stroke-width="0.5" stroke="black" d="M 204 213 118 183"/>
<path stroke-width="0.5" stroke="black" d="M 204 213 121 77"/>
<path stroke-width="0.5" stroke="black" d="M 204 213 171 65"/>
<path stroke-width="0.5" stroke="black" d="M 204 213 178 154"/>
<path stroke-width="0.5" stroke="black" d="M 204 213 229 122"/>
<path stroke-width="0.5" stroke="black" d="M 204 213 205 135"/>
<path stroke-width="5.927835051546392" stroke="black" d="M 20 160 93 149"/>
<path stroke-width="0.5" stroke="black" d="M 93 149 264 147"/>
<path stroke-width="0.5" stroke="black" d="M 93 149 161 202"/>
<path stroke-width="0.5" stroke="black" d="M 93 149 258 140"/>
<path stroke-width="0.5" stroke="black" d="M 204 213 200 67"/>
<path stroke-width="0.5" stroke="black" d="M 204 213 145 212"/>
<path stroke-width="0.5" stroke="black" d="M 204 213 201 212"/>
<path stroke-width="0.5" stroke="black" d="M 204 213 95 116"/>
<path stroke-width="0.5" stroke="black" d="M 251 116 233 182"/>
<path stroke-width="0.5" stroke="black" d="M 251 116 118 183"/>
<path stroke-width="0.5" stroke="black" d="M 251 116 171 65"/>
<path stroke-width="0.5" stroke="black" d="M 251 116 200 67"/>
<path stroke-width="0.5" stroke="black" d="M 251 116 178 154"/>
<path stroke-width="0.5" stroke="black" d="M 251 116 229 122"/>
<path stroke-width="0.5" stroke="black" d="M 251 116 205 135"/>
<path stroke-width="5.123711340206185" stroke="black" d="M 230 285 204 213"/>
<path stroke-width="0.5" stroke="black" d="M 204 213 264 147"/>
<path stroke-width="0.5" stroke="black" d="M 204 213 161 202"/>
<path stroke-width="0.5" stroke="black" d="M 204 213 258 140"/>
<path stroke-width="0.5" stroke="black" d="M 204 213 231 86"/>
<path stroke-width="0.5" stroke="black" d="M 204 213 251 116"/>
<path stroke-width="5.123711340206185" stroke="black" d="M 204 213 230 285"/>
<path stroke-width="0.5" stroke="black" d="M 204 213 93 149"/>
<path stroke-width="0.5" stroke="black" d="M 204 213 218 74"/>
<path stroke-width="0.5" stroke="black" d="M 204 213 234 191"/>
<path stroke-width="3.515463917525773" stroke="black" d="M 231 86 300 29"/>
<path stroke-width="0.5" stroke="black" d="M 231 86 258 140"/>
<path stroke-width="0.5" stroke="black" d="M 231 86 161 202"/>
<path stroke-width="0.5" stroke="black" d="M 231 86 264 147"/>
<path stroke-width="0.5" stroke="black" d="M 264 147 200 67"/>
<path stroke-width="0.5" stroke="black" d="M 264 147 178 154"/>
<path stroke-width="0.5" stroke="black" d="M 264 147 229 122"/>
<path stroke-width="0.5" stroke="black" d="M 264 147 205 135"/>
<path stroke-width="1.907216494845361" stroke="black" d="M 128 320 161 202"/>
<path stroke-width="0.5" stroke="black" d="M 161 202 264 147"/>
<path stroke-width="1.907216494845361" stroke="black" d="M 161 202 128 320"/>
<path stroke-width="0.5" stroke="black" d="M 264 147 171 65"/>
<path stroke-width="0.5" stroke="black" d="M 161 202 258 140"/>
<path stroke-width="0.5" stroke="black" d="M 161 202 251 116"/>
<path stroke-width="0.5" stroke="black" d="M 161 202 204 213"/>
<path stroke-width="0.5" stroke="black" d="M 161 202 93 149"/>
<path stroke-width="0.5" stroke="black" d="M 161 202 218 74"/>
<path stroke-width="0.5" stroke="black" d="M 161 202 234 191"/>
<path stroke-width="0.5" stroke="black" d="M 161 202 95 116"/>
<path stroke-width="0.5" stroke="black" d="M 161 202 201 212"/>
<path stroke-width="0.5" stroke="black" d="M 161 202 231 86"/>
<path stroke-width="0.5" stroke="black" d="M 264 147 118 183"/>
<path stroke-width="0.5" stroke="black" d="M 264 147 233 182"/>
<path stroke-width="0.5" stroke="black" d="M 264 147 150 68"/>
<path stroke-width="1.5051546391752577" stroke="black" d="M 264 147 420 165"/>
<path stroke-width="0.5" stroke="black" d="M 264 147 161 202"/>
<path stroke-width="0.5" stroke="black" d="M 264 147 258 140"/>
<path stroke-width="0.5" stroke="black" d="M 264 147 231 86"/>
<path stroke-width="0.5" stroke="black" d="M 264 147 251 116"/>
<path stroke-width="0.5" stroke="black" d="M 264 147 204 213"/>
<path stroke-width="0.5" stroke="black" d="M 264 147 93 149"/>
<path stroke-width="0.5" stroke="black" d="M 264 147 218 74"/>
<path stroke-width="0.5" stroke="black" d="M 264 147 234 191"/>
<path stroke-width="0.5" stroke="black" d="M 264 147 95 116"/>
<path stroke-width="0.5" stroke="black" d="M 264 147 201 212"/>
<path stroke-width="0.5" stroke="black" d="M 264 147 145 212"/>
<path stroke-width="0.5" stroke="black" d="M 264 147 121 77"/>
<path stroke-width="0.5" stroke="black" d="M 264 147 101 171"/>
<path stroke-width="0.5" stroke="black" d="M 264 147 154 116"/>
<path stroke-width="0.5" stroke="black" d="M 264 147 137 207"/>
<path stroke-width="0.5" stroke="black" d="M 264 147 114 93"/>
<path stroke-width="0.5" stroke="black" d="M 161 202 145 212"/>
<path stroke-width="0.5" stroke="black" d="M 93 149 231 86"/>
<path stroke-width="0.5" stroke="black" d="M 161 202 121 77"/>
<path stroke-width="0.5" stroke="black" d="M 161 202 154 116"/>
<path stroke-width="0.5" stroke="black" d="M 258 140 201 212"/>
<path stroke-width="0.5" stroke="black" d="M 258 140 145 212"/>
<path stroke-width="0.5" stroke="black" d="M 258 140 121 77"/>
<path stroke-width="0.5" stroke="black" d="M 258 140 101 171"/>
<path stroke-width="0.5" stroke="black" d="M 258 140 154 116"/>
<path stroke-width="0.5" stroke="black" d="M 258 140 137 207"/>
<path stroke-width="0.5" stroke="black" d="M 258 140 114 93"/>
<path stroke-width="0.5" stroke="black" d="M 258 140 95 116"/>
<path stroke-width="0.5" stroke="black" d="M 258 140 150 68"/>
<path stroke-width="0.5" stroke="black" d="M 258 140 118 183"/>
<path stroke-width="0.5" stroke="black" d="M 258 140 171 65"/>
<path stroke-width="0.5" stroke="black" d="M 258 140 200 67"/>
<path stroke-width="0.5" stroke="black" d="M 258 140 178 154"/>
<path stroke-width="0.5" stroke="black" d="M 258 140 229 122"/>
<path stroke-width="0.5" stroke="black" d="M 258 140 205 135"/>
<path stroke-width="3.515463917525773" stroke="black" d="M 300 29 231 86"/>
<path stroke-width="0.5" stroke="black" d="M 258 140 233 182"/>
<path stroke-width="0.5" stroke="black" d="M 258 140 234 191"/>
<path stroke-width="0.5" stroke="black" d="M 258 140 218 74"/>
<path stroke-width="0.5" stroke="black" d="M 258 140 93 149"/>
<path stroke-width="0.5" stroke="black" d="M 161 202 137 207"/>
<path stroke-width="0.5" stroke="black" d="M 161 202 114 93"/>
<path stroke-width="0.5" stroke="black" d="M 161 202 150 68"/>
<path stroke-width="0.5" stroke="black" d="M 161 202 233 182"/>
<path stroke-width="0.5" stroke="black" d="M 161 202 118 183"/>
<path stroke-width="0.5" stroke="black" d="M 161 202 171 65"/>
<path stroke-width="0.5" stroke="black" d="M 161 202 200 67"/>
<path stroke-width="0.5" stroke="black" d="M 161 202 178 154"/>
<path stroke-width="0.5" stroke="black" d="M 161 202 229 122"/>
<path stroke-width="0.5" stroke="black" d="M 161 202 205 135"/>
<path stroke-width="2.711340206185567" stroke="black" d="M 364 134 258 140"/>
<path stroke-width="0.5" stroke="black" d="M 258 140 264 147"/>
<path stroke-width="0.5" stroke="black" d="M 258 140 161 202"/>
<path stroke-width="2.711340206185567" stroke="black" d="M 258 140 364 134"/>
<path stroke-width="0.5" stroke="black" d="M 258 140 231 86"/>
<path stroke-width="0.5" stroke="black" d="M 258 140 251 116"/>
<path stroke-width="0.5" stroke="black" d="M 258 140 204 213"/>
<path stroke-width="0.5" stroke="black" d="M 161 202 101 171"/>
<path stroke-width="0.5" stroke="black" d="M 205 135 229 122"/>
<path stroke-width="0.5" stroke="black" d="M 93 149 251 116"/>
<path stroke-width="5.927835051546392" stroke="black" d="M 93 149 20 160"/>
<path stroke-width="0.5" stroke="black" d="M 201 212 204 213"/>
<path stroke-width="0.5" stroke="black" d="M 201 212 93 149"/>
<path stroke-width="0.5" stroke="black" d="M 201 212 218 74"/>
<path stroke-width="0.5" stroke="black" d="M 201 212 234 191"/>
<path stroke-width="0.5" stroke="black" d="M 201 212 95 116"/>
<path stroke-width="9.144329896907216" stroke="black" d="M 201 212 217 264"/>
<path stroke-width="0.5" stroke="black" d="M 201 212 145 212"/>
<path stroke-width="0.5" stroke="black" d="M 201 212 251 116"/>
<path stroke-width="0.5" stroke="black" d="M 201 212 121 77"/>
<path stroke-width="0.5" stroke="black" d="M 201 212 154 116"/>
<path stroke-width="0.5" stroke="black" d="M 201 212 137 207"/>
<path stroke-width="0.5" stroke="black" d="M 201 212 114 93"/>
<path stroke-width="0.5" stroke="black" d="M 201 212 150 68"/>
<path stroke-width="0.5" stroke="black" d="M 201 212 233 182"/>
<path stroke-width="0.5" stroke="black" d="M 201 212 118 183"/>
<path stroke-width="0.5" stroke="black" d="M 201 212 171 65"/>
<path stroke-width="0.5" stroke="black" d="M 201 212 101 171"/>
<path stroke-width="0.5" stroke="black" d="M 201 212 200 67"/>
<path stroke-width="0.5" stroke="black" d="M 201 212 231 86"/>
<path stroke-width="0.5" stroke="black" d="M 201 212 161 202"/>
<path stroke-width="0.5" stroke="black" d="M 95 116 145 212"/>
<path stroke-width="0.5" stroke="black" d="M 95 116 121 77"/>
<path stroke-width="0.5" stroke="black" d="M 95 116 101 171"/>
<path stroke-width="0.5" stroke="black" d="M 95 116 154 116"/>
<path stroke-width="0.5" stroke="black" d="M 95 116 137 207"/>
<path stroke-width="0.5" stroke="black" d="M 95 116 114 93"/>
<path stroke-width="0.5" stroke="black" d="M 95 116 150 68"/>
<path stroke-width="0.5" stroke="black" d="M 201 212 258 140"/>
<path stroke-width="0.5" stroke="black" d="M 95 116 233 182"/>
<path stroke-width="0.5" stroke="black" d="M 95 116 171 65"/>
<path stroke-width="0.5" stroke="black" d="M 95 116 200 67"/>
<path stroke-width="0.5" stroke="black" d="M 95 116 178 154"/>
<path stroke-width="0.5" stroke="black" d="M 95 116 229 122"/>
<path stroke-width="0.5" stroke="black" d="M 95 116 205 135"/>
<path stroke-width="9.144329896907216" stroke="black" d="M 217 264 201 212"/>
<path stroke-width="0.5" stroke="black" d="M 201 212 264 147"/>
<path stroke-width="0.5" stroke="black" d="M 95 116 118 183"/>
<path stroke-width="0.5" stroke="black" d="M 201 212 178 154"/>
<path stroke-width="0.5" stroke="black" d="M 201 212 229 122"/>
<path stroke-width="0.5" stroke="black" d="M 201 212 205 135"/>
<path stroke-width="0.5" stroke="black" d="M 145 212 171 65"/>
<path stroke-width="0.5" stroke="black" d="M 145 212 200 67"/>
<path stroke-width="0.5" stroke="black" d="M 145 212 178 154"/>
<path stroke-width="0.5" stroke="black" d="M 145 212 229 122"/>
<path stroke-width="0.5" stroke="black" d="M 145 212 205 135"/>
<path stroke-width="10.75257731958763" stroke="black" d="M 81 36 121 77"/>
<path stroke-width="0.5" stroke="black" d="M 121 77 264 147"/>
<path stroke-width="0.5" stroke="black" d="M 145 212 118 183"/>
<path stroke-width="0.5" stroke="black" d="M 121 77 161 202"/>
<path stroke-width="0.5" stroke="black" d="M 121 77 231 86"/>
<path stroke-width="0.5" stroke="black" d="M 121 77 251 116"/>
<path stroke-width="0.5" stroke="black" d="M 121 77 204 213"/>
<path stroke-width="0.5" stroke="black" d="M 121 77 93 149"/>
<path stroke-width="0.5" stroke="black" d="M 121 77 218 74"/>
<path stroke-width="0.5" stroke="black" d="M 121 77 234 191"/>
<path stroke-width="0.5" stroke="black" d="M 121 77 95 116"/>
<path stroke-width="0.5" stroke="black" d="M 121 77 258 140"/>
<path stroke-width="0.5" stroke="black" d="M 145 212 233 182"/>
<path stroke-width="0.5" stroke="black" d="M 145 212 150 68"/>
<path stroke-width="0.5" stroke="black" d="M 145 212 114 93"/>
<path stroke-width="9.948453608247423" stroke="black" d="M 122 261 145 212"/>
<path stroke-width="0.5" stroke="black" d="M 145 212 264 147"/>
<path stroke-width="0.5" stroke="black" d="M 145 212 161 202"/>
<path stroke-width="0.5" stroke="black" d="M 145 212 258 140"/>
<path stroke-width="0.5" stroke="black" d="M 145 212 231 86"/>
<path stroke-width="0.5" stroke="black" d="M 145 212 251 116"/>
<path stroke-width="0.5" stroke="black" d="M 145 212 204 213"/>
<path stroke-width="0.5" stroke="black" d="M 145 212 93 149"/>
<path stroke-width="0.5" stroke="black" d="M 145 212 218 74"/>
<path stroke-width="0.5" stroke="black" d="M 145 212 234 191"/>
<path stroke-width="0.5" stroke="black" d="M 145 212 95 116"/>
<path stroke-width="0.5" stroke="black" d="M 145 212 201 212"/>
<path stroke-width="9.948453608247423" stroke="black" d="M 145 212 122 261"/>
<path stroke-width="0.5" stroke="black" d="M 145 212 121 77"/>
<path stroke-width="0.5" stroke="black" d="M 145 212 101 171"/>
<path stroke-width="0.5" stroke="black" d="M 145 212 154 116"/>
<path stroke-width="0.5" stroke="black" d="M 145 212 137 207"/>
<path stroke-width="0.5" stroke="black" d="M 95 116 201 212"/>
<path stroke-width="8.340206185567009" stroke="black" d="M 95 116 37 99"/>
<path stroke-width="0.5" stroke="black" d="M 95 116 234 191"/>
<path stroke-width="0.5" stroke="black" d="M 95 116 218 74"/>
<path stroke-width="0.5" stroke="black" d="M 218 74 258 140"/>
<path stroke-width="0.5" stroke="black" d="M 218 74 231 86"/>
<path stroke-width="0.5" stroke="black" d="M 218 74 251 116"/>
<path stroke-width="0.5" stroke="black" d="M 218 74 204 213"/>
<path stroke-width="0.5" stroke="black" d="M 218 74 93 149"/>
<path stroke-width="6.731958762886598" stroke="black" d="M 218 74 252 20"/>
<path stroke-width="0.5" stroke="black" d="M 218 74 234 191"/>
<path stroke-width="0.5" stroke="black" d="M 218 74 161 202"/>
<path stroke-width="0.5" stroke="black" d="M 218 74 95 116"/>
<path stroke-width="0.5" stroke="black" d="M 218 74 145 212"/>
<path stroke-width="0.5" stroke="black" d="M 218 74 121 77"/>
<path stroke-width="0.5" stroke="black" d="M 218 74 101 171"/>
<path stroke-width="0.5" stroke="black" d="M 218 74 154 116"/>
<path stroke-width="0.5" stroke="black" d="M 218 74 137 207"/>
<path stroke-width="0.5" stroke="black" d="M 218 74 114 93"/>
<path stroke-width="0.5" stroke="black" d="M 218 74 150 68"/>
<path stroke-width="0.5" stroke="black" d="M 218 74 201 212"/>
<path stroke-width="0.5" stroke="black" d="M 218 74 264 147"/>
<path stroke-width="6.731958762886598" stroke="black" d="M 252 20 218 74"/>
<path stroke-width="0.5" stroke="black" d="M 93 149 205 135"/>
<path stroke-width="0.5" stroke="black" d="M 93 149 218 74"/>
<path stroke-width="0.5" stroke="black" d="M 93 149 234 191"/>
<path stroke-width="0.5" stroke="black" d="M 93 149 95 116"/>
<path stroke-width="0.5" stroke="black" d="M 93 149 201 212"/>
<path stroke-width="0.5" stroke="black" d="M 93 149 145 212"/>
<path stroke-width="0.5" stroke="black" d="M 93 149 121 77"/>
<path stroke-width="0.5" stroke="black" d="M 93 149 101 171"/>
<path stroke-width="0.5" stroke="black" d="M 93 149 154 116"/>
<path stroke-width="0.5" stroke="black" d="M 93 149 137 207"/>
<path stroke-width="0.5" stroke="black" d="M 93 149 114 93"/>
<path stroke-width="0.5" stroke="black" d="M 93 149 150 68"/>
<path stroke-width="0.5" stroke="black" d="M 93 149 233 182"/>
<path stroke-width="0.5" stroke="black" d="M 93 149 118 183"/>
<path stroke-width="0.5" stroke="black" d="M 93 149 171 65"/>
<path stroke-width="0.5" stroke="black" d="M 93 149 200 67"/>
<path stroke-width="0.5" stroke="black" d="M 93 149 178 154"/>
<path stroke-width="0.5" stroke="black" d="M 93 149 229 122"/>
<path stroke-width="0.5" stroke="black" d="M 218 74 233 182"/>
<path stroke-width="0.5" stroke="black" d="M 93 149 204 213"/>
<path stroke-width="0.5" stroke="black" d="M 218 74 118 183"/>
<path stroke-width="0.5" stroke="black" d="M 218 74 200 67"/>
<path stroke-width="0.5" stroke="black" d="M 234 191 150 68"/>
<path stroke-width="0.5" stroke="black" d="M 234 191 233 182"/>
<path stroke-width="0.5" stroke="black" d="M 234 191 118 183"/>
<path stroke-width="0.5" stroke="black" d="M 234 191 171 65"/>
<path stroke-width="0.5" stroke="black" d="M 234 191 200 67"/>
<path stroke-width="0.5" stroke="black" d="M 234 191 178 154"/>
<path stroke-width="0.5" stroke="black" d="M 234 191 229 122"/>
<path stroke-width="0.5" stroke="black" d="M 234 191 114 93"/>
<path stroke-width="0.5" stroke="black" d="M 234 191 205 135"/>
<path stroke-width="0.5" stroke="black" d="M 95 116 264 147"/>
<path stroke-width="0.5" stroke="black" d="M 95 116 161 202"/>
<path stroke-width="0.5" stroke="black" d="M 95 116 258 140"/>
<path stroke-width="0.5" stroke="black" d="M 95 116 231 86"/>
<path stroke-width="0.5" stroke="black" d="M 95 116 251 116"/>
<path stroke-width="0.5" stroke="black" d="M 95 116 204 213"/>
<path stroke-width="0.5" stroke="black" d="M 95 116 93 149"/>
<path stroke-width="8.340206185567009" stroke="black" d="M 37 99 95 116"/>
<path stroke-width="0.5" stroke="black" d="M 234 191 137 207"/>
<path stroke-width="0.5" stroke="black" d="M 234 191 154 116"/>
<path stroke-width="0.5" stroke="black" d="M 234 191 101 171"/>
<path stroke-width="0.5" stroke="black" d="M 218 74 178 154"/>
<path stroke-width="0.5" stroke="black" d="M 218 74 229 122"/>
<path stroke-width="0.5" stroke="black" d="M 218 74 205 135"/>
<path stroke-width="7.536082474226804" stroke="black" d="M 284 236 234 191"/>
<path stroke-width="0.5" stroke="black" d="M 234 191 264 147"/>
<path stroke-width="0.5" stroke="black" d="M 234 191 161 202"/>
<path stroke-width="0.5" stroke="black" d="M 234 191 258 140"/>
<path stroke-width="0.5" stroke="black" d="M 234 191 231 86"/>
<path stroke-width="0.5" stroke="black" d="M 234 191 251 116"/>
<path stroke-width="0.5" stroke="black" d="M 234 191 204 213"/>
<path stroke-width="0.5" stroke="black" d="M 234 191 93 149"/>
<path stroke-width="0.5" stroke="black" d="M 234 191 218 74"/>
<path stroke-width="7.536082474226804" stroke="black" d="M 234 191 284 236"/>
<path stroke-width="0.5" stroke="black" d="M 234 191 95 116"/>
<path stroke-width="0.5" stroke="black" d="M 234 191 201 212"/>
<path stroke-width="0.5" stroke="black" d="M 234 191 145 212"/>
<path stroke-width="0.5" stroke="black" d="M 234 191 121 77"/>
<path stroke-width="0.5" stroke="black" d="M 218 74 171 65"/>
<path stroke-width="20.0" stroke="black" d="M 205 135 150 140"/>
<circle cx="420" cy="165" r="20.0" style="fill:gray;stroke:black;stroke-width:1.0"/>
<circle cx="264" cy="147" r="20.0" style="fill:gray;stroke:black;stroke-width:1.0"/>
<circle cx="128" cy="320" r="20.0" style="fill:gray;stroke:black;stroke-width:1.0"/>
<circle cx="161" cy="202" r="20.0" style="fill:gray;stroke:black;stroke-width:1.0"/>
<circle cx="364" cy="134" r="20.0" style="fill:gray;stroke:black;stroke-width:1.0"/>
<circle cx="258" cy="140" r="20.0" style="fill:gray;stroke:black;stroke-width:1.0"/>
<circle cx="300" cy="29" r="20.0" style="fill:gray;stroke:black;stroke-width:1.0"/>
<circle cx="231" cy="86" r="20.0" style="fill:gray;stroke:black;stroke-width:1.0"/>
<circle cx="330" cy="93" r="20.0" style="fill:gray;stroke:black;stroke-width:1.0"/>
<circle cx="251" cy="116" r="20.0" style="fill:gray;stroke:black;stroke-width:1.0"/>
<circle cx="230" cy="285" r="20.0" style="fill:gray;stroke:black;stroke-width:1.0"/>
<circle cx="204" cy="213" r="20.0" style="fill:gray;stroke:black;stroke-width:1.0"/>
<circle cx="20" cy="160" r="20.0" style="fill:gray;stroke:black;stroke-width:1.0"/>
<circle cx="93" cy="149" r="20.0" style="fill:gray;stroke:black;stroke-width:1.0"/>
<circle cx="252" cy="20" r="20.0" style="fill:gray;stroke:black;stroke-width:1.0"/>
<circle cx="218" cy="74" r="20.0" style="fill:gray;stroke:black;stroke-width:1.0"/>
<circle cx="284" cy="236" r="20.0" style="fill:gray;stroke:black;stroke-width:1.0"/>
<circle cx="234" cy="191" r="20.0" style="fill:gray;stroke:black;stroke-width:1.0"/>
<circle cx="37" cy="99" r="20.0" style="fill:gray;stroke:black;stroke-width:1.0"/>
<circle cx="95" cy="116" r="20.0" style="fill:gray;stroke:black;stroke-width:1.0"/>
<circle cx="217" cy="264" r="20.0" style="fill:gray;stroke:black;stroke-width:1.0"/>
<circle cx="201" cy="212" r="20.0" style="fill:gray;stroke:black;stroke-width:1.0"/>
<circle cx="122" cy="261" r="20.0" style="fill:gray;stroke:black;stroke-width:1.0"/>
<circle cx="145" cy="212" r="20.0" style="fill:gray;stroke:black;stroke-width:1.0"/>
<circle cx="81" cy="36" r="20.0" style="fill:gray;stroke:black;stroke-width:1.0"/>
<circle cx="121" cy="77" r="20.0" style="fill:gray;stroke:black;stroke-width:1.0"/>
<circle cx="52" cy="194" r="20.0" style="fill:gray;stroke:black;stroke-width:1.0"/>
<circle cx="101" cy="171" r="20.0" style="fill:gray;stroke:black;stroke-width:1.0"/>
<circle cx="123" cy="112" r="20.0" style="fill:gray;stroke:black;stroke-width:1.0"/>
<circle cx="154" cy="116" r="20.0" style="fill:gray;stroke:black;stroke-width:1.0"/>
<circle cx="111" cy="247" r="20.0" style="fill:gray;stroke:black;stroke-width:1.0"/>
<circle cx="137" cy="207" r="20.0" style="fill:gray;stroke:black;stroke-width:1.0"/>
<circle cx="72" cy="66" r="20.0" style="fill:gray;stroke:black;stroke-width:1.0"/>
<circle cx="114" cy="93" r="20.0" style="fill:gray;stroke:black;stroke-width:1.0"/>
<circle cx="131" cy="27" r="20.0" style="fill:gray;stroke:black;stroke-width:1.0"/>
<circle cx="150" cy="68" r="20.0" style="fill:gray;stroke:black;stroke-width:1.0"/>
<circle cx="272" cy="206" r="20.0" style="fill:gray;stroke:black;stroke-width:1.0"/>
<circle cx="233" cy="182" r="20.0" style="fill:gray;stroke:black;stroke-width:1.0"/>
<circle cx="83" cy="209" r="20.0" style="fill:gray;stroke:black;stroke-width:1.0"/>
<circle cx="118" cy="183" r="20.0" style="fill:gray;stroke:black;stroke-width:1.0"/>
<circle cx="169" cy="24" r="20.0" style="fill:gray;stroke:black;stroke-width:1.0"/>
<circle cx="171" cy="65" r="20.0" style="fill:gray;stroke:black;stroke-width:1.0"/>
<circle cx="211" cy="29" r="20.0" style="fill:gray;stroke:black;stroke-width:1.0"/>
<circle cx="200" cy="67" r="20.0" style="fill:gray;stroke:black;stroke-width:1.0"/>
<circle cx="179" cy="173" r="20.0" style="fill:gray;stroke:black;stroke-width:1.0"/>
<circle cx="178" cy="154" r="20.0" style="fill:gray;stroke:black;stroke-width:1.0"/>
<circle cx="260" cy="108" r="20.0" style="fill:gray;stroke:black;stroke-width:1.0"/>
<circle cx="229" cy="122" r="20.0" style="fill:gray;stroke:black;stroke-width:1.0"/>
<circle cx="150" cy="140" r="20.0" style="fill:gray;stroke:black;stroke-width:1.0"/>
<circle cx="205" cy="135" r="20.0" style="fill:gray;stroke:black;stroke-width:1.0"/>
</svg>
