<svg width="440" height="340" xmlns="http://www.w3.org/2000/svg">
<path stroke-width="20.0" stroke="black" d="M 136 295 160 272"/>
<path stroke-width="1.25" stroke="black" d="M 217 80 111 213"/>
<path stroke-width="0.5" stroke="black" d="M 217 80 160 272"/>
<path stroke-width="8.0" stroke="black" d="M 244 22 217 80"/>
<path stroke-width="0.5" stroke="black" d="M 155 77 291 106"/>
<path stroke-width="0.5" stroke="black" d="M 155 77 101 118"/>
<path stroke-width="0.5" stroke="black" d="M 155 77 217 80"/>
<path stroke-width="10.0" stroke="black" d="M 155 77 131 21"/>
<path stroke-width="0.5" stroke="black" d="M 155 77 225 177"/>
<path stroke-width="0.5" stroke="black" d="M 155 77 251 281"/>
<path stroke-width="0.5" stroke="black" d="M 155 77 306 199"/>
<path stroke-width="1.25" stroke="black" d="M 155 77 92 168"/>
<path stroke-width="0.5" stroke="black" d="M 155 77 111 213"/>
<path stroke-width="0.5" stroke="black" d="M 155 77 160 272"/>
<path stroke-width="10.0" stroke="black" d="M 131 21 155 77"/>
<path stroke-width="0.5" stroke="black" d="M 225 177 291 106"/>
<path stroke-width="0.5" stroke="black" d="M 225 177 101 118"/>
<path stroke-width="0.5" stroke="black" d="M 225 177 217 80"/>
<path stroke-width="0.5" stroke="black" d="M 225 177 155 77"/>
<path stroke-width="12.0" stroke="black" d="M 225 177 262 194"/>
<path stroke-width="0.5" stroke="black" d="M 225 177 251 281"/>
<path stroke-width="1.25" stroke="black" d="M 225 177 306 199"/>
<path stroke-width="0.5" stroke="black" d="M 225 177 92 168"/>
<path stroke-width="0.5" stroke="black" d="M 225 177 111 213"/>
<path stroke-width="0.5" stroke="black" d="M 217 80 92 168"/>
<path stroke-width="0.5" stroke="black" d="M 217 80 306 199"/>
<path stroke-width="0.5" stroke="black" d="M 217 80 251 281"/>
<path stroke-width="0.5" stroke="black" d="M 217 80 225 177"/>
<path stroke-width="0.5" stroke="black" d="M 291 106 217 80"/>
<path stroke-width="0.5" stroke="black" d="M 291 106 155 77"/>
<path stroke-width="0.5" stroke="black" d="M 291 106 225 177"/>
<path stroke-width="0.5" stroke="black" d="M 291 106 251 281"/>
<path stroke-width="0.5" stroke="black" d="M 291 106 306 199"/>
<path stroke-width="0.5" stroke="black" d="M 291 106 92 168"/>
<path stroke-width="0.5" stroke="black" d="M 291 106 111 213"/>
<path stroke-width="0.5" stroke="black" d="M 291 106 160 272"/>
<path stroke-width="2.0" stroke="black" d="M 420 20 291 106"/>
<path stroke-width="0.5" stroke="black" d="M 101 118 291 106"/>
<path stroke-width="7.0" stroke="black" d="M 101 118 20 74"/>
<path stroke-width="0.5" stroke="black" d="M 225 177 160 272"/>
<path stroke-width="0.5" stroke="black" d="M 101 118 217 80"/>
<path stroke-width="0.5" stroke="black" d="M 101 118 225 177"/>
<path stroke-width="0.5" stroke="black" d="M 101 118 251 281"/>
<path stroke-width="0.5" stroke="black" d="M 101 118 306 199"/>
<path stroke-width="0.5" stroke="black" d="M 101 118 92 168"/>
<path stroke-width="0.5" stroke="black" d="M 101 118 111 213"/>
<path stroke-width="1.25" stroke="black" d="M 101 118 160 272"/>
<path stroke-width="7.0" stroke="black" d="M 20 74 101 118"/>
<path stroke-width="0.5" stroke="black" d="M 217 80 291 106"/>
<path stroke-width="0.5" stroke="black" d="M 217 80 101 118"/>
<path stroke-width="8.0" stroke="black" d="M 217 80 244 22"/>
<path stroke-width="0.5" stroke="black" d="M 217 80 155 77"/>
<path stroke-width="0.5" stroke="black" d="M 101 118 155 77"/>
<path stroke-width="12.0" stroke="black" d="M 262 194 225 177"/>
<path stroke-width="0.5" stroke="black" d="M 251 281 291 106"/>
<path stroke-width="0.5" stroke="black" d="M 251 281 101 118"/>
<path stroke-width="0.5" stroke="black" d="M 92 168 111 213"/>
<path stroke-width="0.5" stroke="black" d="M 92 168 160 272"/>
<path stroke-width="17.0" stroke="black" d="M 33 164 92 168"/>
<path stroke-width="0.5" stroke="black" d="M 111 213 291 106"/>
<path stroke-width="0.5" stroke="black" d="M 111 213 101 118"/>
<path stroke-width="1.25" stroke="black" d="M 111 213 217 80"/>
<path stroke-width="0.5" stroke="black" d="M 111 213 155 77"/>
<path stroke-width="0.5" stroke="black" d="M 111 213 225 177"/>
<path stroke-width="0.5" stroke="black" d="M 111 213 251 281"/>
<path stroke-width="0.5" stroke="black" d="M 111 213 306 199"/>
<path stroke-width="0.5" stroke="black" d="M 111 213 92 168"/>
<path stroke-width="17.0" stroke="black" d="M 92 168 33 164"/>
<path stroke-width="19.0" stroke="black" d="M 111 213 71 238"/>
<path stroke-width="19.0" stroke="black" d="M 71 238 111 213"/>
<path stroke-width="0.5" stroke="black" d="M 160 272 291 106"/>
<path stroke-width="1.25" stroke="black" d="M 160 272 101 118"/>
<path stroke-width="0.5" stroke="black" d="M 160 272 217 80"/>
<path stroke-width="0.5" stroke="black" d="M 160 272 155 77"/>
<path stroke-width="0.5" stroke="black" d="M 160 272 225 177"/>
<path stroke-width="0.5" stroke="black" d="M 160 272 251 281"/>
<path stroke-width="0.5" stroke="black" d="M 160 272 306 199"/>
<path stroke-width="0.5" stroke="black" d="M 160 272 92 168"/>
<path stroke-width="0.5" stroke="black" d="M 160 272 111 213"/>
<path stroke-width="20.0" stroke="black" d="M 160 272 136 295"/>
<path stroke-width="0.5" stroke="black" d="M 111 213 160 272"/>
<path stroke-width="0.5" stroke="black" d="M 291 106 101 118"/>
<path stroke-width="0.5" stroke="black" d="M 92 168 306 199"/>
<path stroke-width="0.5" stroke="black" d="M 92 168 225 177"/>
<path stroke-width="0.5" stroke="black" d="M 251 281 217 80"/>
<path stroke-width="0.5" stroke="black" d="M 251 281 155 77"/>
<path stroke-width="0.5" stroke="black" d="M 251 281 225 177"/>
<path stroke-width="11.0" stroke="black" d="M 251 281 294 320"/>
<path stroke-width="0.5" stroke="black" d="M 251 281 306 199"/>
<path stroke-width="0.5" stroke="black" d="M 251 281 92 168"/>
<path stroke-width="0.5" stroke="black" d="M 251 281 111 213"/>
<path stroke-width="0.5" stroke="black" d="M 251 281 160 272"/>
<path stroke-width="11.0" stroke="black" d="M 294 320 251 281"/>
<path stroke-width="0.5" stroke="black" d="M 306 199 291 106"/>
<path stroke-width="0.5" stroke="black" d="M 306 199 101 118"/>
<path stroke-width="0.5" stroke="black" d="M 92 168 251 281"/>
<path stroke-width="0.5" stroke="black" d="M 306 199 217 80"/>
<path stroke-width="1.25" stroke="black" d="M 306 199 225 177"/>
<path stroke-width="0.5" stroke="black" d="M 306 199 251 281"/>
<path stroke-width="15.0" stroke="black" d="M 306 199 364 237"/>
<path stroke-width="0.5" stroke="black" d="M 306 199 92 168"/>
<path stroke-width="0.5" stroke="black" d="M 306 199 111 213"/>
<path stroke-width="0.5" stroke="black" d="M 306 199 160 272"/>
<path stroke-width="15.0" stroke="black" d="M 364 237 306 199"/>
<path stroke-width="0.5" stroke="black" d="M 92 168 291 106"/>
<path stroke-width="0.5" stroke="black" d="M 92 168 101 118"/>
<path stroke-width="0.5" stroke="black" d="M 92 168 217 80"/>
<path stroke-width="1.25" stroke="black" d="M 92 168 155 77"/>
<path stroke-width="0.5" stroke="black" d="M 306 199 155 77"/>
<path stroke-width="2.0" stroke="black" d="M 291 106 420 20"/>
<circle cx="136" cy="295" r="20.0" style="fill:blue;stroke:black;stroke-width:1.0"/>
<circle cx="160" cy="272" r="20.0" style="fill:blue;stroke:black;stroke-width:1.0"/>
<circle cx="71" cy="238" r="20.0" style="fill:green;stroke:black;stroke-width:1.0"/>
<circle cx="111" cy="213" r="20.0" style="fill:green;stroke:black;stroke-width:1.0"/>
<circle cx="33" cy="164" r="20.0" style="fill:red;stroke:black;stroke-width:1.0"/>
<circle cx="92" cy="168" r="20.0" style="fill:red;stroke:black;stroke-width:1.0"/>
<circle cx="364" cy="237" r="20.0" style="fill:orange;stroke:black;stroke-width:1.0"/>
<circle cx="306" cy="199" r="20.0" style="fill:orange;stroke:black;stroke-width:1.0"/>
<circle cx="294" cy="320" r="20.0" style="fill:purple;stroke:black;stroke-width:1.0"/>
<circle cx="251" cy="281" r="20.0" style="fill:purple;stroke:black;stroke-width:1.0"/>
<circle cx="262" cy="194" r="20.0" style="fill:orange;stroke:black;stroke-width:1.0"/>
<circle cx="225" cy="177" r="20.0" style="fill:orange;stroke:black;stroke-width:1.0"/>
<circle cx="131" cy="21" r="20.0" style="fill:red;stroke:black;stroke-width:1.0"/>
<circle cx="155" cy="77" r="20.0" style="fill:red;stroke:black;stroke-width:1.0"/>
<circle cx="244" cy="22" r="20.0" style="fill:green;stroke:black;stroke-width:1.0"/>
<circle cx="217" cy="80" r="20.0" style="fill:green;stroke:black;stroke-width:1.0"/>
<circle cx="20" cy="74" r="20.0" style="fill:blue;stroke:black;stroke-width:1.0"/>
<circle cx="101" cy="118" r="20.0" style="fill:blue;stroke:black;stroke-width:1.0"/>
<circle cx="420" cy="20" r="20.0" style="fill:orange;stroke:black;stroke-width:1.0"/>
<circle cx="291" cy="106" r="20.0" style="fill:orange;stroke:black;stroke-width:1.0"/>
</svg>
