<svg width="440" height="340" xmlns="http://www.w3.org/2000/svg">
<path stroke-width="20.0" stroke="black" d="M 48 107 79 120"/>
<path stroke-width="1.25" stroke="black" d="M 261 119 204 169"/>
<path stroke-width="0.5" stroke="black" d="M 261 119 79 120"/>
<path stroke-width="8.0" stroke="black" d="M 321 92 261 119"/>
<path stroke-width="0.5" stroke="black" d="M 200 88 279 193"/>
<path stroke-width="0.5" stroke="black" d="M 200 88 127 79"/>
<path stroke-width="0.5" stroke="black" d="M 200 88 261 119"/>
<path stroke-width="10.0" stroke="black" d="M 200 88 221 44"/>
<path stroke-width="0.5" stroke="black" d="M 200 88 82 220"/>
<path stroke-width="0.5" stroke="black" d="M 200 88 143 272"/>
<path stroke-width="0.5" stroke="black" d="M 200 88 130 181"/>
<path stroke-width="1.25" stroke="black" d="M 200 88 226 252"/>
<path stroke-width="0.5" stroke="black" d="M 200 88 204 169"/>
<path stroke-width="0.5" stroke="black" d="M 200 88 79 120"/>
<path stroke-width="10.0" stroke="black" d="M 221 44 200 88"/>
<path stroke-width="0.5" stroke="black" d="M 82 220 279 193"/>
<path stroke-width="0.5" stroke="black" d="M 82 220 127 79"/>
<path stroke-width="0.5" stroke="black" d="M 82 220 261 119"/>
<path stroke-width="0.5" stroke="black" d="M 82 220 200 88"/>
<path stroke-width="12.0" stroke="black" d="M 82 220 20 256"/>
<path stroke-width="0.5" stroke="black" d="M 82 220 143 272"/>
<path stroke-width="1.25" stroke="black" d="M 82 220 130 181"/>
<path stroke-width="0.5" stroke="black" d="M 82 220 226 252"/>
<path stroke-width="0.5" stroke="black" d="M 82 220 204 169"/>
<path stroke-width="0.5" stroke="black" d="M 261 119 226 252"/>
<path stroke-width="0.5" stroke="black" d="M 261 119 130 181"/>
<path stroke-width="0.5" stroke="black" d="M 261 119 143 272"/>
<path stroke-width="0.5" stroke="black" d="M 261 119 82 220"/>
<path stroke-width="0.5" stroke="black" d="M 279 193 261 119"/>
<path stroke-width="0.5" stroke="black" d="M 279 193 200 88"/>
<path stroke-width="0.5" stroke="black" d="M 279 193 82 220"/>
<path stroke-width="0.5" stroke="black" d="M 279 193 143 272"/>
<path stroke-width="0.5" stroke="black" d="M 279 193 130 181"/>
<path stroke-width="0.5" stroke="black" d="M 279 193 226 252"/>
<path stroke-width="0.5" stroke="black" d="M 279 193 204 169"/>
<path stroke-width="0.5" stroke="black" d="M 279 193 79 120"/>
<path stroke-width="2.0" stroke="black" d="M 420 203 279 193"/>
<path stroke-width="0.5" stroke="black" d="M 127 79 279 193"/>
<path stroke-width="7.0" stroke="black" d="M 127 79 95 20"/>
<path stroke-width="0.5" stroke="black" d="M 82 220 79 120"/>
<path stroke-width="0.5" stroke="black" d="M 127 79 261 119"/>
<path stroke-width="0.5" stroke="black" d="M 127 79 82 220"/>
<path stroke-width="0.5" stroke="black" d="M 127 79 143 272"/>
<path stroke-width="0.5" stroke="black" d="M 127 79 130 181"/>
<path stroke-width="0.5" stroke="black" d="M 127 79 226 252"/>
<path stroke-width="0.5" stroke="black" d="M 127 79 204 169"/>
<path stroke-width="1.25" stroke="black" d="M 127 79 79 120"/>
<path stroke-width="7.0" stroke="black" d="M 95 20 127 79"/>
<path stroke-width="0.5" stroke="black" d="M 261 119 279 193"/>
<path stroke-width="0.5" stroke="black" d="M 261 119 127 79"/>
<path stroke-width="8.0" stroke="black" d="M 261 119 321 92"/>
<path stroke-width="0.5" stroke="black" d="M 261 119 200 88"/>
<path stroke-width="0.5" stroke="black" d="M 127 79 200 88"/>
<path stroke-width="12.0" stroke="black" d="M 20 256 82 220"/>
<path stroke-width="0.5" stroke="black" d="M 143 272 279 193"/>
<path stroke-width="0.5" stroke="black" d="M 143 272 127 79"/>
<path stroke-width="0.5" stroke="black" d="M 226 252 204 169"/>
<path stroke-width="0.5" stroke="black" d="M 226 252 79 120"/>
<path stroke-width="17.0" stroke="black" d="M 238 262 226 252"/>
<path stroke-width="0.5" stroke="black" d="M 204 169 279 193"/>
<path stroke-width="0.5" stroke="black" d="M 204 169 127 79"/>
<path stroke-width="1.25" stroke="black" d="M 204 169 261 119"/>
<path stroke-width="0.5" stroke="black" d="M 204 169 200 88"/>
<path stroke-width="0.5" stroke="black" d="M 204 169 82 220"/>
<path stroke-width="0.5" stroke="black" d="M 204 169 143 272"/>
<path stroke-width="0.5" stroke="black" d="M 204 169 130 181"/>
<path stroke-width="0.5" stroke="black" d="M 204 169 226 252"/>
<path stroke-width="17.0" stroke="black" d="M 226 252 238 262"/>
<path stroke-width="19.0" stroke="black" d="M 204 169 232 171"/>
<path stroke-width="19.0" stroke="black" d="M 232 171 204 169"/>
<path stroke-width="0.5" stroke="black" d="M 79 120 279 193"/>
<path stroke-width="1.25" stroke="black" d="M 79 120 127 79"/>
<path stroke-width="0.5" stroke="black" d="M 79 120 261 119"/>
<path stroke-width="0.5" stroke="black" d="M 79 120 200 88"/>
<path stroke-width="0.5" stroke="black" d="M 79 120 82 220"/>
<path stroke-width="0.5" stroke="black" d="M 79 120 143 272"/>
<path stroke-width="0.5" stroke="black" d="M 79 120 130 181"/>
<path stroke-width="0.5" stroke="black" d="M 79 120 226 252"/>
<path stroke-width="0.5" stroke="black" d="M 79 120 204 169"/>
<path stroke-width="20.0" stroke="black" d="M 79 120 48 107"/>
<path stroke-width="0.5" stroke="black" d="M 204 169 79 120"/>
<path stroke-width="0.5" stroke="black" d="M 279 193 127 79"/>
<path stroke-width="0.5" stroke="black" d="M 226 252 130 181"/>
<path stroke-width="0.5" stroke="black" d="M 226 252 82 220"/>
<path stroke-width="0.5" stroke="black" d="M 143 272 261 119"/>
<path stroke-width="0.5" stroke="black" d="M 143 272 200 88"/>
<path stroke-width="0.5" stroke="black" d="M 143 272 82 220"/>
<path stroke-width="11.0" stroke="black" d="M 143 272 124 320"/>
<path stroke-width="0.5" stroke="black" d="M 143 272 130 181"/>
<path stroke-width="0.5" stroke="black" d="M 143 272 226 252"/>
<path stroke-width="0.5" stroke="black" d="M 143 272 204 169"/>
<path stroke-width="0.5" stroke="black" d="M 143 272 79 120"/>
<path stroke-width="11.0" stroke="black" d="M 124 320 143 272"/>
<path stroke-width="0.5" stroke="black" d="M 130 181 279 193"/>
<path stroke-width="0.5" stroke="black" d="M 130 181 127 79"/>
<path stroke-width="0.5" stroke="black" d="M 226 252 143 272"/>
<path stroke-width="0.5" stroke="black" d="M 130 181 261 119"/>
<path stroke-width="1.25" stroke="black" d="M 130 181 82 220"/>
<path stroke-width="0.5" stroke="black" d="M 130 181 143 272"/>
<path stroke-width="15.0" stroke="black" d="M 130 181 76 193"/>
<path stroke-width="0.5" stroke="black" d="M 130 181 226 252"/>
<path stroke-width="0.5" stroke="black" d="M 130 181 204 169"/>
<path stroke-width="0.5" stroke="black" d="M 130 181 79 120"/>
<path stroke-width="15.0" stroke="black" d="M 76 193 130 181"/>
<path stroke-width="0.5" stroke="black" d="M 226 252 279 193"/>
<path stroke-width="0.5" stroke="black" d="M 226 252 127 79"/>
<path stroke-width="0.5" stroke="black" d="M 226 252 261 119"/>
<path stroke-width="1.25" stroke="black" d="M 226 252 200 88"/>
<path stroke-width="0.5" stroke="black" d="M 130 181 200 88"/>
<path stroke-width="2.0" stroke="black" d="M 279 193 420 203"/>
<circle cx="48" cy="107" r="7.0" style="fill:purple;stroke:black;stroke-width:1.0"/>
<circle cx="79" cy="120" r="7.0" style="fill:purple;stroke:black;stroke-width:1.0"/>
<circle cx="232" cy="171" r="7.0" style="fill:blue;stroke:black;stroke-width:1.0"/>
<circle cx="204" cy="169" r="7.0" style="fill:blue;stroke:black;stroke-width:1.0"/>
<circle cx="238" cy="262" r="7.0" style="fill:green;stroke:black;stroke-width:1.0"/>
<circle cx="226" cy="252" r="7.0" style="fill:green;stroke:black;stroke-width:1.0"/>
<circle cx="76" cy="193" r="7.0" style="fill:orange;stroke:black;stroke-width:1.0"/>
<circle cx="130" cy="181" r="7.0" style="fill:orange;stroke:black;stroke-width:1.0"/>
<circle cx="124" cy="320" r="7.0" style="fill:red;stroke:black;stroke-width:1.0"/>
<circle cx="143" cy="272" r="7.0" style="fill:purple;stroke:black;stroke-width:1.0"/>
<circle cx="20" cy="256" r="7.0" style="fill:red;stroke:black;stroke-width:1.0"/>
<circle cx="82" cy="220" r="7.0" style="fill:red;stroke:black;stroke-width:1.0"/>
<circle cx="221" cy="44" r="7.0" style="fill:green;stroke:black;stroke-width:1.0"/>
<circle cx="200" cy="88" r="7.0" style="fill:green;stroke:black;stroke-width:1.0"/>
<circle cx="321" cy="92" r="7.0" style="fill:blue;stroke:black;stroke-width:1.0"/>
<circle cx="261" cy="119" r="7.0" style="fill:blue;stroke:black;stroke-width:1.0"/>
<circle cx="95" cy="20" r="7.0" style="fill:purple;stroke:black;stroke-width:1.0"/>
<circle cx="127" cy="79" r="7.0" style="fill:purple;stroke:black;stroke-width:1.0"/>
<circle cx="420" cy="203" r="7.0" style="fill:red;stroke:black;stroke-width:1.0"/>
<circle cx="279" cy="193" r="7.0" style="fill:purple;stroke:black;stroke-width:1.0"/>
</svg>
