<svg width="440" height="340" xmlns="http://www.w3.org/2000/svg">
<path stroke-width="1" stroke="black" d="M 138 122 254 20"/>
<path stroke-width="1" stroke="black" d="M 48 320 254 20"/>
<path stroke-width="1" stroke="black" d="M 48 320 138 122"/>
<path stroke-width="1" stroke="black" d="M 420 164 48 320"/>
<path stroke-width="1" stroke="black" d="M 420 164 20 25"/>
<path stroke-width="1" stroke="black" d="M 420 164 254 20"/>
<path stroke-width="1" stroke="black" d="M 420 164 138 122"/>
<path stroke-width="1" stroke="black" d="M 20 25 48 320"/>
<path stroke-width="1" stroke="black" d="M 20 25 420 164"/>
<path stroke-width="1" stroke="black" d="M 20 25 254 20"/>
<path stroke-width="1" stroke="black" d="M 20 25 138 122"/>
<path stroke-width="1" stroke="black" d="M 254 20 48 320"/>
<path stroke-width="1" stroke="black" d="M 254 20 420 164"/>
<path stroke-width="1" stroke="black" d="M 254 20 20 25"/>
<path stroke-width="1" stroke="black" d="M 254 20 138 122"/>
<path stroke-width="1" stroke="black" d="M 138 122 48 320"/>
<path stroke-width="1" stroke="black" d="M 138 122 420 164"/>
<path stroke-width="1" stroke="black" d="M 138 122 20 25"/>
<path stroke-width="1" stroke="black" d="M 48 320 20 25"/>
<path stroke-width="1" stroke="black" d="M 48 320 420 164"/>
<circle cx="138" cy="122" r="7.0" style="fill:gray;stroke:black;stroke-width:1.0"/>
<circle cx="254" cy="20" r="7.0" style="fill:gray;stroke:black;stroke-width:1.0"/>
<circle cx="20" cy="25" r="7.0" style="fill:gray;stroke:black;stroke-width:1.0"/>
<circle cx="420" cy="164" r="7.0" style="fill:gray;stroke:black;stroke-width:1.0"/>
<circle cx="48" cy="320" r="7.0" style="fill:gray;stroke:black;stroke-width:1.0"/>
</svg>
