<svg width="440" height="340" xmlns="http://www.w3.org/2000/svg">
<path stroke-width="1" stroke="black" d="M 209 135 200 122"/>
<path stroke-width="1" stroke="black" d="M 95 157 164 176"/>
<path stroke-width="1" stroke="black" d="M 95 157 200 122"/>
<path stroke-width="1" stroke="black" d="M 20 179 95 157"/>
<path stroke-width="1" stroke="black" d="M 301 164 225 209"/>
<path stroke-width="1" stroke="black" d="M 301 164 94 107"/>
<path stroke-width="1" stroke="black" d="M 301 164 95 157"/>
<path stroke-width="1" stroke="black" d="M 301 164 385 192"/>
<path stroke-width="1" stroke="black" d="M 301 164 146 45"/>
<path stroke-width="1" stroke="black" d="M 301 164 337 111"/>
<path stroke-width="1" stroke="black" d="M 301 164 285 44"/>
<path stroke-width="1" stroke="black" d="M 301 164 266 104"/>
<path stroke-width="1" stroke="black" d="M 301 164 164 176"/>
<path stroke-width="1" stroke="black" d="M 301 164 200 122"/>
<path stroke-width="1" stroke="black" d="M 385 192 301 164"/>
<path stroke-width="1" stroke="black" d="M 146 45 225 209"/>
<path stroke-width="1" stroke="black" d="M 146 45 94 107"/>
<path stroke-width="1" stroke="black" d="M 146 45 95 157"/>
<path stroke-width="1" stroke="black" d="M 146 45 301 164"/>
<path stroke-width="1" stroke="black" d="M 146 45 139 21"/>
<path stroke-width="1" stroke="black" d="M 146 45 337 111"/>
<path stroke-width="1" stroke="black" d="M 146 45 285 44"/>
<path stroke-width="1" stroke="black" d="M 146 45 266 104"/>
<path stroke-width="1" stroke="black" d="M 146 45 164 176"/>
<path stroke-width="1" stroke="black" d="M 95 157 266 104"/>
<path stroke-width="1" stroke="black" d="M 95 157 285 44"/>
<path stroke-width="1" stroke="black" d="M 95 157 337 111"/>
<path stroke-width="1" stroke="black" d="M 95 157 146 45"/>
<path stroke-width="1" stroke="black" d="M 225 209 95 157"/>
<path stroke-width="1" stroke="black" d="M 225 209 301 164"/>
<path stroke-width="1" stroke="black" d="M 225 209 146 45"/>
<path stroke-width="1" stroke="black" d="M 225 209 337 111"/>
<path stroke-width="1" stroke="black" d="M 225 209 285 44"/>
<path stroke-width="1" stroke="black" d="M 225 209 266 104"/>
<path stroke-width="1" stroke="black" d="M 225 209 164 176"/>
<path stroke-width="1" stroke="black" d="M 225 209 200 122"/>
<path stroke-width="1" stroke="black" d="M 211 320 225 209"/>
<path stroke-width="1" stroke="black" d="M 94 107 225 209"/>
<path stroke-width="1" stroke="black" d="M 94 107 20 98"/>
<path stroke-width="1" stroke="black" d="M 146 45 200 122"/>
<path stroke-width="1" stroke="black" d="M 94 107 95 157"/>
<path stroke-width="1" stroke="black" d="M 94 107 146 45"/>
<path stroke-width="1" stroke="black" d="M 94 107 337 111"/>
<path stroke-width="1" stroke="black" d="M 94 107 285 44"/>
<path stroke-width="1" stroke="black" d="M 94 107 266 104"/>
<path stroke-width="1" stroke="black" d="M 94 107 164 176"/>
<path stroke-width="1" stroke="black" d="M 94 107 200 122"/>
<path stroke-width="1" stroke="black" d="M 20 98 94 107"/>
<path stroke-width="1" stroke="black" d="M 95 157 225 209"/>
<path stroke-width="1" stroke="black" d="M 95 157 94 107"/>
<path stroke-width="1" stroke="black" d="M 95 157 20 179"/>
<path stroke-width="1" stroke="black" d="M 95 157 301 164"/>
<path stroke-width="1" stroke="black" d="M 94 107 301 164"/>
<path stroke-width="1" stroke="black" d="M 139 21 146 45"/>
<path stroke-width="1" stroke="black" d="M 337 111 225 209"/>
<path stroke-width="1" stroke="black" d="M 337 111 94 107"/>
<path stroke-width="1" stroke="black" d="M 266 104 164 176"/>
<path stroke-width="1" stroke="black" d="M 266 104 200 122"/>
<path stroke-width="1" stroke="black" d="M 287 81 266 104"/>
<path stroke-width="1" stroke="black" d="M 164 176 225 209"/>
<path stroke-width="1" stroke="black" d="M 164 176 94 107"/>
<path stroke-width="1" stroke="black" d="M 164 176 95 157"/>
<path stroke-width="1" stroke="black" d="M 164 176 301 164"/>
<path stroke-width="1" stroke="black" d="M 164 176 146 45"/>
<path stroke-width="1" stroke="black" d="M 164 176 337 111"/>
<path stroke-width="1" stroke="black" d="M 164 176 285 44"/>
<path stroke-width="1" stroke="black" d="M 164 176 266 104"/>
<path stroke-width="1" stroke="black" d="M 266 104 287 81"/>
<path stroke-width="1" stroke="black" d="M 164 176 139 202"/>
<path stroke-width="1" stroke="black" d="M 139 202 164 176"/>
<path stroke-width="1" stroke="black" d="M 200 122 225 209"/>
<path stroke-width="1" stroke="black" d="M 200 122 94 107"/>
<path stroke-width="1" stroke="black" d="M 200 122 95 157"/>
<path stroke-width="1" stroke="black" d="M 200 122 301 164"/>
<path stroke-width="1" stroke="black" d="M 200 122 146 45"/>
<path stroke-width="1" stroke="black" d="M 200 122 337 111"/>
<path stroke-width="1" stroke="black" d="M 200 122 285 44"/>
<path stroke-width="1" stroke="black" d="M 200 122 266 104"/>
<path stroke-width="1" stroke="black" d="M 200 122 164 176"/>
<path stroke-width="1" stroke="black" d="M 200 122 209 135"/>
<path stroke-width="1" stroke="black" d="M 164 176 200 122"/>
<path stroke-width="1" stroke="black" d="M 225 209 94 107"/>
<path stroke-width="1" stroke="black" d="M 266 104 285 44"/>
<path stroke-width="1" stroke="black" d="M 266 104 146 45"/>
<path stroke-width="1" stroke="black" d="M 337 111 95 157"/>
<path stroke-width="1" stroke="black" d="M 337 111 301 164"/>
<path stroke-width="1" stroke="black" d="M 337 111 146 45"/>
<path stroke-width="1" stroke="black" d="M 337 111 420 97"/>
<path stroke-width="1" stroke="black" d="M 337 111 285 44"/>
<path stroke-width="1" stroke="black" d="M 337 111 266 104"/>
<path stroke-width="1" stroke="black" d="M 337 111 164 176"/>
<path stroke-width="1" stroke="black" d="M 337 111 200 122"/>
<path stroke-width="1" stroke="black" d="M 420 97 337 111"/>
<path stroke-width="1" stroke="black" d="M 285 44 225 209"/>
<path stroke-width="1" stroke="black" d="M 285 44 94 107"/>
<path stroke-width="1" stroke="black" d="M 266 104 337 111"/>
<path stroke-width="1" stroke="black" d="M 285 44 95 157"/>
<path stroke-width="1" stroke="black" d="M 285 44 146 45"/>
<path stroke-width="1" stroke="black" d="M 285 44 337 111"/>
<path stroke-width="1" stroke="black" d="M 285 44 306 20"/>
<path stroke-width="1" stroke="black" d="M 285 44 266 104"/>
<path stroke-width="1" stroke="black" d="M 285 44 164 176"/>
<path stroke-width="1" stroke="black" d="M 285 44 200 122"/>
<path stroke-width="1" stroke="black" d="M 306 20 285 44"/>
<path stroke-width="1" stroke="black" d="M 266 104 225 209"/>
<path stroke-width="1" stroke="black" d="M 266 104 94 107"/>
<path stroke-width="1" stroke="black" d="M 266 104 95 157"/>
<path stroke-width="1" stroke="black" d="M 266 104 301 164"/>
<path stroke-width="1" stroke="black" d="M 285 44 301 164"/>
<path stroke-width="1" stroke="black" d="M 225 209 211 320"/>
<circle cx="209" cy="135" r="7.0" style="fill:blue;stroke:black;stroke-width:1.0"/>
<circle cx="200" cy="122" r="7.0" style="fill:blue;stroke:black;stroke-width:1.0"/>
<circle cx="139" cy="202" r="7.0" style="fill:red;stroke:black;stroke-width:1.0"/>
<circle cx="164" cy="176" r="7.0" style="fill:red;stroke:black;stroke-width:1.0"/>
<circle cx="287" cy="81" r="7.0" style="fill:green;stroke:black;stroke-width:1.0"/>
<circle cx="266" cy="104" r="7.0" style="fill:green;stroke:black;stroke-width:1.0"/>
<circle cx="306" cy="20" r="7.0" style="fill:orange;stroke:black;stroke-width:1.0"/>
<circle cx="285" cy="44" r="7.0" style="fill:orange;stroke:black;stroke-width:1.0"/>
<circle cx="420" cy="97" r="7.0" style="fill:purple;stroke:black;stroke-width:1.0"/>
<circle cx="337" cy="111" r="7.0" style="fill:purple;stroke:black;stroke-width:1.0"/>
<circle cx="139" cy="21" r="7.0" style="fill:yellow;stroke:black;stroke-width:1.0"/>
<circle cx="146" cy="45" r="7.0" style="fill:yellow;stroke:black;stroke-width:1.0"/>
<circle cx="385" cy="192" r="7.0" style="fill:fuchsia;stroke:black;stroke-width:1.0"/>
<circle cx="301" cy="164" r="7.0" style="fill:fuchsia;stroke:black;stroke-width:1.0"/>
<circle cx="20" cy="179" r="7.0" style="fill:olive;stroke:black;stroke-width:1.0"/>
<circle cx="95" cy="157" r="7.0" style="fill:olive;stroke:black;stroke-width:1.0"/>
<circle cx="20" cy="98" r="7.0" style="fill:aqua;stroke:black;stroke-width:1.0"/>
<circle cx="94" cy="107" r="7.0" style="fill:aqua;stroke:black;stroke-width:1.0"/>
<circle cx="211" cy="320" r="7.0" style="fill:brown;stroke:black;stroke-width:1.0"/>
<circle cx="225" cy="209" r="7.0" style="fill:brown;stroke:black;stroke-width:1.0"/>
</svg>
