<svg width="440" height="340" xmlns="http://www.w3.org/2000/svg">
<path stroke-width="1" stroke="black" d="M 199 320 201 274"/>
<path stroke-width="1" stroke="black" d="M 189 89 147 107"/>
<path stroke-width="1" stroke="black" d="M 189 89 201 274"/>
<path stroke-width="1" stroke="black" d="M 146 20 189 89"/>
<path stroke-width="1" stroke="black" d="M 306 164 289 117"/>
<path stroke-width="1" stroke="black" d="M 306 164 111 199"/>
<path stroke-width="1" stroke="black" d="M 306 164 189 89"/>
<path stroke-width="1" stroke="black" d="M 306 164 382 152"/>
<path stroke-width="1" stroke="black" d="M 306 164 277 210"/>
<path stroke-width="1" stroke="black" d="M 306 164 191 175"/>
<path stroke-width="1" stroke="black" d="M 306 164 159 241"/>
<path stroke-width="1" stroke="black" d="M 306 164 279 252"/>
<path stroke-width="1" stroke="black" d="M 306 164 147 107"/>
<path stroke-width="1" stroke="black" d="M 306 164 201 274"/>
<path stroke-width="1" stroke="black" d="M 382 152 306 164"/>
<path stroke-width="1" stroke="black" d="M 277 210 289 117"/>
<path stroke-width="1" stroke="black" d="M 277 210 111 199"/>
<path stroke-width="1" stroke="black" d="M 277 210 189 89"/>
<path stroke-width="1" stroke="black" d="M 277 210 306 164"/>
<path stroke-width="1" stroke="black" d="M 277 210 348 228"/>
<path stroke-width="1" stroke="black" d="M 277 210 191 175"/>
<path stroke-width="1" stroke="black" d="M 277 210 159 241"/>
<path stroke-width="1" stroke="black" d="M 277 210 279 252"/>
<path stroke-width="1" stroke="black" d="M 277 210 147 107"/>
<path stroke-width="1" stroke="black" d="M 189 89 279 252"/>
<path stroke-width="1" stroke="black" d="M 189 89 159 241"/>
<path stroke-width="1" stroke="black" d="M 189 89 191 175"/>
<path stroke-width="1" stroke="black" d="M 189 89 277 210"/>
<path stroke-width="1" stroke="black" d="M 289 117 189 89"/>
<path stroke-width="1" stroke="black" d="M 289 117 306 164"/>
<path stroke-width="1" stroke="black" d="M 289 117 277 210"/>
<path stroke-width="1" stroke="black" d="M 289 117 191 175"/>
<path stroke-width="1" stroke="black" d="M 289 117 159 241"/>
<path stroke-width="1" stroke="black" d="M 289 117 279 252"/>
<path stroke-width="1" stroke="black" d="M 289 117 147 107"/>
<path stroke-width="1" stroke="black" d="M 289 117 201 274"/>
<path stroke-width="1" stroke="black" d="M 420 46 289 117"/>
<path stroke-width="1" stroke="black" d="M 111 199 289 117"/>
<path stroke-width="1" stroke="black" d="M 111 199 20 208"/>
<path stroke-width="1" stroke="black" d="M 277 210 201 274"/>
<path stroke-width="1" stroke="black" d="M 111 199 189 89"/>
<path stroke-width="1" stroke="black" d="M 111 199 277 210"/>
<path stroke-width="1" stroke="black" d="M 111 199 191 175"/>
<path stroke-width="1" stroke="black" d="M 111 199 159 241"/>
<path stroke-width="1" stroke="black" d="M 111 199 279 252"/>
<path stroke-width="1" stroke="black" d="M 111 199 147 107"/>
<path stroke-width="1" stroke="black" d="M 111 199 201 274"/>
<path stroke-width="1" stroke="black" d="M 20 208 111 199"/>
<path stroke-width="1" stroke="black" d="M 189 89 289 117"/>
<path stroke-width="1" stroke="black" d="M 189 89 111 199"/>
<path stroke-width="1" stroke="black" d="M 189 89 146 20"/>
<path stroke-width="1" stroke="black" d="M 189 89 306 164"/>
<path stroke-width="1" stroke="black" d="M 111 199 306 164"/>
<path stroke-width="1" stroke="black" d="M 348 228 277 210"/>
<path stroke-width="1" stroke="black" d="M 191 175 289 117"/>
<path stroke-width="1" stroke="black" d="M 191 175 111 199"/>
<path stroke-width="1" stroke="black" d="M 279 252 147 107"/>
<path stroke-width="1" stroke="black" d="M 279 252 201 274"/>
<path stroke-width="1" stroke="black" d="M 319 300 279 252"/>
<path stroke-width="1" stroke="black" d="M 147 107 289 117"/>
<path stroke-width="1" stroke="black" d="M 147 107 111 199"/>
<path stroke-width="1" stroke="black" d="M 147 107 189 89"/>
<path stroke-width="1" stroke="black" d="M 147 107 306 164"/>
<path stroke-width="1" stroke="black" d="M 147 107 277 210"/>
<path stroke-width="1" stroke="black" d="M 147 107 191 175"/>
<path stroke-width="1" stroke="black" d="M 147 107 159 241"/>
<path stroke-width="1" stroke="black" d="M 147 107 279 252"/>
<path stroke-width="1" stroke="black" d="M 279 252 319 300"/>
<path stroke-width="1" stroke="black" d="M 147 107 110 100"/>
<path stroke-width="1" stroke="black" d="M 110 100 147 107"/>
<path stroke-width="1" stroke="black" d="M 201 274 289 117"/>
<path stroke-width="1" stroke="black" d="M 201 274 111 199"/>
<path stroke-width="1" stroke="black" d="M 201 274 189 89"/>
<path stroke-width="1" stroke="black" d="M 201 274 306 164"/>
<path stroke-width="1" stroke="black" d="M 201 274 277 210"/>
<path stroke-width="1" stroke="black" d="M 201 274 191 175"/>
<path stroke-width="1" stroke="black" d="M 201 274 159 241"/>
<path stroke-width="1" stroke="black" d="M 201 274 279 252"/>
<path stroke-width="1" stroke="black" d="M 201 274 147 107"/>
<path stroke-width="1" stroke="black" d="M 201 274 199 320"/>
<path stroke-width="1" stroke="black" d="M 147 107 201 274"/>
<path stroke-width="1" stroke="black" d="M 289 117 111 199"/>
<path stroke-width="1" stroke="black" d="M 279 252 159 241"/>
<path stroke-width="1" stroke="black" d="M 279 252 277 210"/>
<path stroke-width="1" stroke="black" d="M 191 175 189 89"/>
<path stroke-width="1" stroke="black" d="M 191 175 306 164"/>
<path stroke-width="1" stroke="black" d="M 191 175 277 210"/>
<path stroke-width="1" stroke="black" d="M 191 175 153 155"/>
<path stroke-width="1" stroke="black" d="M 191 175 159 241"/>
<path stroke-width="1" stroke="black" d="M 191 175 279 252"/>
<path stroke-width="1" stroke="black" d="M 191 175 147 107"/>
<path stroke-width="1" stroke="black" d="M 191 175 201 274"/>
<path stroke-width="1" stroke="black" d="M 153 155 191 175"/>
<path stroke-width="1" stroke="black" d="M 159 241 289 117"/>
<path stroke-width="1" stroke="black" d="M 159 241 111 199"/>
<path stroke-width="1" stroke="black" d="M 279 252 191 175"/>
<path stroke-width="1" stroke="black" d="M 159 241 189 89"/>
<path stroke-width="1" stroke="black" d="M 159 241 277 210"/>
<path stroke-width="1" stroke="black" d="M 159 241 191 175"/>
<path stroke-width="1" stroke="black" d="M 159 241 108 287"/>
<path stroke-width="1" stroke="black" d="M 159 241 279 252"/>
<path stroke-width="1" stroke="black" d="M 159 241 147 107"/>
<path stroke-width="1" stroke="black" d="M 159 241 201 274"/>
<path stroke-width="1" stroke="black" d="M 108 287 159 241"/>
<path stroke-width="1" stroke="black" d="M 279 252 289 117"/>
<path stroke-width="1" stroke="black" d="M 279 252 111 199"/>
<path stroke-width="1" stroke="black" d="M 279 252 189 89"/>
<path stroke-width="1" stroke="black" d="M 279 252 306 164"/>
<path stroke-width="1" stroke="black" d="M 159 241 306 164"/>
<path stroke-width="1" stroke="black" d="M 289 117 420 46"/>
<circle cx="199" cy="320" r="20.0" style="fill:blue;stroke:black;stroke-width:1.0"/>
<circle cx="201" cy="274" r="20.0" style="fill:blue;stroke:black;stroke-width:1.0"/>
<circle cx="110" cy="100" r="20.0" style="fill:red;stroke:black;stroke-width:1.0"/>
<circle cx="147" cy="107" r="20.0" style="fill:red;stroke:black;stroke-width:1.0"/>
<circle cx="319" cy="300" r="20.0" style="fill:green;stroke:black;stroke-width:1.0"/>
<circle cx="279" cy="252" r="20.0" style="fill:green;stroke:black;stroke-width:1.0"/>
<circle cx="108" cy="287" r="20.0" style="fill:orange;stroke:black;stroke-width:1.0"/>
<circle cx="159" cy="241" r="20.0" style="fill:orange;stroke:black;stroke-width:1.0"/>
<circle cx="153" cy="155" r="20.0" style="fill:purple;stroke:black;stroke-width:1.0"/>
<circle cx="191" cy="175" r="20.0" style="fill:purple;stroke:black;stroke-width:1.0"/>
<circle cx="348" cy="228" r="20.0" style="fill:yellow;stroke:black;stroke-width:1.0"/>
<circle cx="277" cy="210" r="20.0" style="fill:yellow;stroke:black;stroke-width:1.0"/>
<circle cx="382" cy="152" r="20.0" style="fill:fuchsia;stroke:black;stroke-width:1.0"/>
<circle cx="306" cy="164" r="20.0" style="fill:fuchsia;stroke:black;stroke-width:1.0"/>
<circle cx="146" cy="20" r="20.0" style="fill:olive;stroke:black;stroke-width:1.0"/>
<circle cx="189" cy="89" r="20.0" style="fill:olive;stroke:black;stroke-width:1.0"/>
<circle cx="20" cy="208" r="20.0" style="fill:aqua;stroke:black;stroke-width:1.0"/>
<circle cx="111" cy="199" r="20.0" style="fill:aqua;stroke:black;stroke-width:1.0"/>
<circle cx="420" cy="46" r="20.0" style="fill:brown;stroke:black;stroke-width:1.0"/>
<circle cx="289" cy="117" r="20.0" style="fill:brown;stroke:black;stroke-width:1.0"/>
</svg>
