<svg width="440" height="340" xmlns="http://www.w3.org/2000/svg">
<path stroke-width="1" stroke="black" d="M 381 161 355 164"/>
<path stroke-width="1" stroke="black" d="M 103 186 128 147"/>
<path stroke-width="1" stroke="black" d="M 103 186 355 164"/>
<path stroke-width="1" stroke="black" d="M 20 176 103 186"/>
<path stroke-width="1" stroke="black" d="M 192 259 210 122"/>
<path stroke-width="1" stroke="black" d="M 192 259 289 138"/>
<path stroke-width="1" stroke="black" d="M 192 259 103 186"/>
<path stroke-width="1" stroke="black" d="M 192 259 141 320"/>
<path stroke-width="1" stroke="black" d="M 192 259 279 249"/>
<path stroke-width="1" stroke="black" d="M 192 259 361 225"/>
<path stroke-width="1" stroke="black" d="M 192 259 223 215"/>
<path stroke-width="1" stroke="black" d="M 192 259 135 232"/>
<path stroke-width="1" stroke="black" d="M 192 259 128 147"/>
<path stroke-width="1" stroke="black" d="M 192 259 355 164"/>
<path stroke-width="1" stroke="black" d="M 141 320 192 259"/>
<path stroke-width="1" stroke="black" d="M 279 249 210 122"/>
<path stroke-width="1" stroke="black" d="M 279 249 289 138"/>
<path stroke-width="1" stroke="black" d="M 279 249 103 186"/>
<path stroke-width="1" stroke="black" d="M 279 249 192 259"/>
<path stroke-width="1" stroke="black" d="M 279 249 341 292"/>
<path stroke-width="1" stroke="black" d="M 279 249 361 225"/>
<path stroke-width="1" stroke="black" d="M 279 249 223 215"/>
<path stroke-width="1" stroke="black" d="M 279 249 135 232"/>
<path stroke-width="1" stroke="black" d="M 279 249 128 147"/>
<path stroke-width="1" stroke="black" d="M 103 186 135 232"/>
<path stroke-width="1" stroke="black" d="M 103 186 223 215"/>
<path stroke-width="1" stroke="black" d="M 103 186 361 225"/>
<path stroke-width="1" stroke="black" d="M 103 186 279 249"/>
<path stroke-width="1" stroke="black" d="M 210 122 103 186"/>
<path stroke-width="1" stroke="black" d="M 210 122 192 259"/>
<path stroke-width="1" stroke="black" d="M 210 122 279 249"/>
<path stroke-width="1" stroke="black" d="M 210 122 361 225"/>
<path stroke-width="1" stroke="black" d="M 210 122 223 215"/>
<path stroke-width="1" stroke="black" d="M 210 122 135 232"/>
<path stroke-width="1" stroke="black" d="M 210 122 128 147"/>
<path stroke-width="1" stroke="black" d="M 210 122 355 164"/>
<path stroke-width="1" stroke="black" d="M 169 20 210 122"/>
<path stroke-width="1" stroke="black" d="M 289 138 210 122"/>
<path stroke-width="1" stroke="black" d="M 289 138 316 92"/>
<path stroke-width="1" stroke="black" d="M 279 249 355 164"/>
<path stroke-width="1" stroke="black" d="M 289 138 103 186"/>
<path stroke-width="1" stroke="black" d="M 289 138 279 249"/>
<path stroke-width="1" stroke="black" d="M 289 138 361 225"/>
<path stroke-width="1" stroke="black" d="M 289 138 223 215"/>
<path stroke-width="1" stroke="black" d="M 289 138 135 232"/>
<path stroke-width="1" stroke="black" d="M 289 138 128 147"/>
<path stroke-width="1" stroke="black" d="M 289 138 355 164"/>
<path stroke-width="1" stroke="black" d="M 316 92 289 138"/>
<path stroke-width="1" stroke="black" d="M 103 186 210 122"/>
<path stroke-width="1" stroke="black" d="M 103 186 289 138"/>
<path stroke-width="1" stroke="black" d="M 103 186 20 176"/>
<path stroke-width="1" stroke="black" d="M 103 186 192 259"/>
<path stroke-width="1" stroke="black" d="M 289 138 192 259"/>
<path stroke-width="1" stroke="black" d="M 341 292 279 249"/>
<path stroke-width="1" stroke="black" d="M 361 225 210 122"/>
<path stroke-width="1" stroke="black" d="M 361 225 289 138"/>
<path stroke-width="1" stroke="black" d="M 135 232 128 147"/>
<path stroke-width="1" stroke="black" d="M 135 232 355 164"/>
<path stroke-width="1" stroke="black" d="M 60 247 135 232"/>
<path stroke-width="1" stroke="black" d="M 128 147 210 122"/>
<path stroke-width="1" stroke="black" d="M 128 147 289 138"/>
<path stroke-width="1" stroke="black" d="M 128 147 103 186"/>
<path stroke-width="1" stroke="black" d="M 128 147 192 259"/>
<path stroke-width="1" stroke="black" d="M 128 147 279 249"/>
<path stroke-width="1" stroke="black" d="M 128 147 361 225"/>
<path stroke-width="1" stroke="black" d="M 128 147 223 215"/>
<path stroke-width="1" stroke="black" d="M 128 147 135 232"/>
<path stroke-width="1" stroke="black" d="M 135 232 60 247"/>
<path stroke-width="1" stroke="black" d="M 128 147 123 128"/>
<path stroke-width="1" stroke="black" d="M 123 128 128 147"/>
<path stroke-width="1" stroke="black" d="M 355 164 210 122"/>
<path stroke-width="1" stroke="black" d="M 355 164 289 138"/>
<path stroke-width="1" stroke="black" d="M 355 164 103 186"/>
<path stroke-width="1" stroke="black" d="M 355 164 192 259"/>
<path stroke-width="1" stroke="black" d="M 355 164 279 249"/>
<path stroke-width="1" stroke="black" d="M 355 164 361 225"/>
<path stroke-width="1" stroke="black" d="M 355 164 223 215"/>
<path stroke-width="1" stroke="black" d="M 355 164 135 232"/>
<path stroke-width="1" stroke="black" d="M 355 164 128 147"/>
<path stroke-width="1" stroke="black" d="M 355 164 381 161"/>
<path stroke-width="1" stroke="black" d="M 128 147 355 164"/>
<path stroke-width="1" stroke="black" d="M 210 122 289 138"/>
<path stroke-width="1" stroke="black" d="M 135 232 223 215"/>
<path stroke-width="1" stroke="black" d="M 135 232 279 249"/>
<path stroke-width="1" stroke="black" d="M 361 225 103 186"/>
<path stroke-width="1" stroke="black" d="M 361 225 192 259"/>
<path stroke-width="1" stroke="black" d="M 361 225 279 249"/>
<path stroke-width="1" stroke="black" d="M 361 225 420 243"/>
<path stroke-width="1" stroke="black" d="M 361 225 223 215"/>
<path stroke-width="1" stroke="black" d="M 361 225 135 232"/>
<path stroke-width="1" stroke="black" d="M 361 225 128 147"/>
<path stroke-width="1" stroke="black" d="M 361 225 355 164"/>
<path stroke-width="1" stroke="black" d="M 420 243 361 225"/>
<path stroke-width="1" stroke="black" d="M 223 215 210 122"/>
<path stroke-width="1" stroke="black" d="M 223 215 289 138"/>
<path stroke-width="1" stroke="black" d="M 135 232 361 225"/>
<path stroke-width="1" stroke="black" d="M 223 215 103 186"/>
<path stroke-width="1" stroke="black" d="M 223 215 279 249"/>
<path stroke-width="1" stroke="black" d="M 223 215 361 225"/>
<path stroke-width="1" stroke="black" d="M 223 215 239 226"/>
<path stroke-width="1" stroke="black" d="M 223 215 135 232"/>
<path stroke-width="1" stroke="black" d="M 223 215 128 147"/>
<path stroke-width="1" stroke="black" d="M 223 215 355 164"/>
<path stroke-width="1" stroke="black" d="M 239 226 223 215"/>
<path stroke-width="1" stroke="black" d="M 135 232 210 122"/>
<path stroke-width="1" stroke="black" d="M 135 232 289 138"/>
<path stroke-width="1" stroke="black" d="M 135 232 103 186"/>
<path stroke-width="1" stroke="black" d="M 135 232 192 259"/>
<path stroke-width="1" stroke="black" d="M 223 215 192 259"/>
<path stroke-width="1" stroke="black" d="M 210 122 169 20"/>
<circle cx="381" cy="161" r="7.0" style="fill:blue;stroke:black;stroke-width:1.0"/>
<circle cx="355" cy="164" r="7.0" style="fill:blue;stroke:black;stroke-width:1.0"/>
<circle cx="123" cy="128" r="7.0" style="fill:red;stroke:black;stroke-width:1.0"/>
<circle cx="128" cy="147" r="7.0" style="fill:red;stroke:black;stroke-width:1.0"/>
<circle cx="60" cy="247" r="7.0" style="fill:green;stroke:black;stroke-width:1.0"/>
<circle cx="135" cy="232" r="7.0" style="fill:green;stroke:black;stroke-width:1.0"/>
<circle cx="239" cy="226" r="7.0" style="fill:orange;stroke:black;stroke-width:1.0"/>
<circle cx="223" cy="215" r="7.0" style="fill:orange;stroke:black;stroke-width:1.0"/>
<circle cx="420" cy="243" r="7.0" style="fill:purple;stroke:black;stroke-width:1.0"/>
<circle cx="361" cy="225" r="7.0" style="fill:purple;stroke:black;stroke-width:1.0"/>
<circle cx="341" cy="292" r="7.0" style="fill:yellow;stroke:black;stroke-width:1.0"/>
<circle cx="279" cy="249" r="7.0" style="fill:yellow;stroke:black;stroke-width:1.0"/>
<circle cx="141" cy="320" r="7.0" style="fill:fuchsia;stroke:black;stroke-width:1.0"/>
<circle cx="192" cy="259" r="7.0" style="fill:fuchsia;stroke:black;stroke-width:1.0"/>
<circle cx="20" cy="176" r="7.0" style="fill:olive;stroke:black;stroke-width:1.0"/>
<circle cx="103" cy="186" r="7.0" style="fill:olive;stroke:black;stroke-width:1.0"/>
<circle cx="316" cy="92" r="7.0" style="fill:aqua;stroke:black;stroke-width:1.0"/>
<circle cx="289" cy="138" r="7.0" style="fill:aqua;stroke:black;stroke-width:1.0"/>
<circle cx="169" cy="20" r="7.0" style="fill:brown;stroke:black;stroke-width:1.0"/>
<circle cx="210" cy="122" r="7.0" style="fill:brown;stroke:black;stroke-width:1.0"/>
</svg>
