<svg width="440" height="340" xmlns="http://www.w3.org/2000/svg">
<path stroke-width="1" stroke="black" d="M 68 276 131 237"/>
<path stroke-width="1" stroke="black" d="M 273 270 199 228"/>
<path stroke-width="1" stroke="black" d="M 273 270 131 237"/>
<path stroke-width="1" stroke="black" d="M 306 320 273 270"/>
<path stroke-width="1" stroke="black" d="M 343 154 271 122"/>
<path stroke-width="1" stroke="black" d="M 343 154 285 227"/>
<path stroke-width="1" stroke="black" d="M 343 154 273 270"/>
<path stroke-width="1" stroke="black" d="M 343 154 418 131"/>
<path stroke-width="1" stroke="black" d="M 343 154 115 141"/>
<path stroke-width="1" stroke="black" d="M 343 154 201 128"/>
<path stroke-width="1" stroke="black" d="M 343 154 74 187"/>
<path stroke-width="1" stroke="black" d="M 343 154 359 200"/>
<path stroke-width="1" stroke="black" d="M 343 154 199 228"/>
<path stroke-width="1" stroke="black" d="M 343 154 131 237"/>
<path stroke-width="1" stroke="black" d="M 418 131 343 154"/>
<path stroke-width="1" stroke="black" d="M 115 141 271 122"/>
<path stroke-width="1" stroke="black" d="M 115 141 285 227"/>
<path stroke-width="1" stroke="black" d="M 115 141 273 270"/>
<path stroke-width="1" stroke="black" d="M 115 141 343 154"/>
<path stroke-width="1" stroke="black" d="M 115 141 63 112"/>
<path stroke-width="1" stroke="black" d="M 115 141 201 128"/>
<path stroke-width="1" stroke="black" d="M 115 141 74 187"/>
<path stroke-width="1" stroke="black" d="M 115 141 359 200"/>
<path stroke-width="1" stroke="black" d="M 115 141 199 228"/>
<path stroke-width="1" stroke="black" d="M 273 270 359 200"/>
<path stroke-width="1" stroke="black" d="M 273 270 74 187"/>
<path stroke-width="1" stroke="black" d="M 273 270 201 128"/>
<path stroke-width="1" stroke="black" d="M 273 270 115 141"/>
<path stroke-width="1" stroke="black" d="M 271 122 273 270"/>
<path stroke-width="1" stroke="black" d="M 271 122 343 154"/>
<path stroke-width="1" stroke="black" d="M 271 122 115 141"/>
<path stroke-width="1" stroke="black" d="M 271 122 201 128"/>
<path stroke-width="1" stroke="black" d="M 271 122 74 187"/>
<path stroke-width="1" stroke="black" d="M 271 122 359 200"/>
<path stroke-width="1" stroke="black" d="M 271 122 199 228"/>
<path stroke-width="1" stroke="black" d="M 271 122 131 237"/>
<path stroke-width="1" stroke="black" d="M 328 20 271 122"/>
<path stroke-width="1" stroke="black" d="M 285 227 271 122"/>
<path stroke-width="1" stroke="black" d="M 285 227 359 265"/>
<path stroke-width="1" stroke="black" d="M 115 141 131 237"/>
<path stroke-width="1" stroke="black" d="M 285 227 273 270"/>
<path stroke-width="1" stroke="black" d="M 285 227 115 141"/>
<path stroke-width="1" stroke="black" d="M 285 227 201 128"/>
<path stroke-width="1" stroke="black" d="M 285 227 74 187"/>
<path stroke-width="1" stroke="black" d="M 285 227 359 200"/>
<path stroke-width="1" stroke="black" d="M 285 227 199 228"/>
<path stroke-width="1" stroke="black" d="M 285 227 131 237"/>
<path stroke-width="1" stroke="black" d="M 359 265 285 227"/>
<path stroke-width="1" stroke="black" d="M 273 270 271 122"/>
<path stroke-width="1" stroke="black" d="M 273 270 285 227"/>
<path stroke-width="1" stroke="black" d="M 273 270 306 320"/>
<path stroke-width="1" stroke="black" d="M 273 270 343 154"/>
<path stroke-width="1" stroke="black" d="M 285 227 343 154"/>
<path stroke-width="1" stroke="black" d="M 63 112 115 141"/>
<path stroke-width="1" stroke="black" d="M 201 128 271 122"/>
<path stroke-width="1" stroke="black" d="M 201 128 285 227"/>
<path stroke-width="1" stroke="black" d="M 359 200 199 228"/>
<path stroke-width="1" stroke="black" d="M 359 200 131 237"/>
<path stroke-width="1" stroke="black" d="M 420 205 359 200"/>
<path stroke-width="1" stroke="black" d="M 199 228 271 122"/>
<path stroke-width="1" stroke="black" d="M 199 228 285 227"/>
<path stroke-width="1" stroke="black" d="M 199 228 273 270"/>
<path stroke-width="1" stroke="black" d="M 199 228 343 154"/>
<path stroke-width="1" stroke="black" d="M 199 228 115 141"/>
<path stroke-width="1" stroke="black" d="M 199 228 201 128"/>
<path stroke-width="1" stroke="black" d="M 199 228 74 187"/>
<path stroke-width="1" stroke="black" d="M 199 228 359 200"/>
<path stroke-width="1" stroke="black" d="M 359 200 420 205"/>
<path stroke-width="1" stroke="black" d="M 199 228 182 273"/>
<path stroke-width="1" stroke="black" d="M 182 273 199 228"/>
<path stroke-width="1" stroke="black" d="M 131 237 271 122"/>
<path stroke-width="1" stroke="black" d="M 131 237 285 227"/>
<path stroke-width="1" stroke="black" d="M 131 237 273 270"/>
<path stroke-width="1" stroke="black" d="M 131 237 343 154"/>
<path stroke-width="1" stroke="black" d="M 131 237 115 141"/>
<path stroke-width="1" stroke="black" d="M 131 237 201 128"/>
<path stroke-width="1" stroke="black" d="M 131 237 74 187"/>
<path stroke-width="1" stroke="black" d="M 131 237 359 200"/>
<path stroke-width="1" stroke="black" d="M 131 237 199 228"/>
<path stroke-width="1" stroke="black" d="M 131 237 68 276"/>
<path stroke-width="1" stroke="black" d="M 199 228 131 237"/>
<path stroke-width="1" stroke="black" d="M 271 122 285 227"/>
<path stroke-width="1" stroke="black" d="M 359 200 74 187"/>
<path stroke-width="1" stroke="black" d="M 359 200 115 141"/>
<path stroke-width="1" stroke="black" d="M 201 128 273 270"/>
<path stroke-width="1" stroke="black" d="M 201 128 343 154"/>
<path stroke-width="1" stroke="black" d="M 201 128 115 141"/>
<path stroke-width="1" stroke="black" d="M 201 128 188 84"/>
<path stroke-width="1" stroke="black" d="M 201 128 74 187"/>
<path stroke-width="1" stroke="black" d="M 201 128 359 200"/>
<path stroke-width="1" stroke="black" d="M 201 128 199 228"/>
<path stroke-width="1" stroke="black" d="M 201 128 131 237"/>
<path stroke-width="1" stroke="black" d="M 188 84 201 128"/>
<path stroke-width="1" stroke="black" d="M 74 187 271 122"/>
<path stroke-width="1" stroke="black" d="M 74 187 285 227"/>
<path stroke-width="1" stroke="black" d="M 359 200 201 128"/>
<path stroke-width="1" stroke="black" d="M 74 187 273 270"/>
<path stroke-width="1" stroke="black" d="M 74 187 115 141"/>
<path stroke-width="1" stroke="black" d="M 74 187 201 128"/>
<path stroke-width="1" stroke="black" d="M 74 187 20 187"/>
<path stroke-width="1" stroke="black" d="M 74 187 359 200"/>
<path stroke-width="1" stroke="black" d="M 74 187 199 228"/>
<path stroke-width="1" stroke="black" d="M 74 187 131 237"/>
<path stroke-width="1" stroke="black" d="M 20 187 74 187"/>
<path stroke-width="1" stroke="black" d="M 359 200 271 122"/>
<path stroke-width="1" stroke="black" d="M 359 200 285 227"/>
<path stroke-width="1" stroke="black" d="M 359 200 273 270"/>
<path stroke-width="1" stroke="black" d="M 359 200 343 154"/>
<path stroke-width="1" stroke="black" d="M 74 187 343 154"/>
<path stroke-width="1" stroke="black" d="M 271 122 328 20"/>
<circle cx="68" cy="276" r="7.0" style="fill:gray;stroke:black;stroke-width:1.0"/>
<circle cx="131" cy="237" r="7.0" style="fill:gray;stroke:black;stroke-width:1.0"/>
<circle cx="182" cy="273" r="7.0" style="fill:gray;stroke:black;stroke-width:1.0"/>
<circle cx="199" cy="228" r="7.0" style="fill:gray;stroke:black;stroke-width:1.0"/>
<circle cx="420" cy="205" r="7.0" style="fill:gray;stroke:black;stroke-width:1.0"/>
<circle cx="359" cy="200" r="7.0" style="fill:gray;stroke:black;stroke-width:1.0"/>
<circle cx="20" cy="187" r="7.0" style="fill:gray;stroke:black;stroke-width:1.0"/>
<circle cx="74" cy="187" r="7.0" style="fill:gray;stroke:black;stroke-width:1.0"/>
<circle cx="188" cy="84" r="7.0" style="fill:gray;stroke:black;stroke-width:1.0"/>
<circle cx="201" cy="128" r="7.0" style="fill:gray;stroke:black;stroke-width:1.0"/>
<circle cx="63" cy="112" r="7.0" style="fill:gray;stroke:black;stroke-width:1.0"/>
<circle cx="115" cy="141" r="7.0" style="fill:gray;stroke:black;stroke-width:1.0"/>
<circle cx="418" cy="131" r="7.0" style="fill:gray;stroke:black;stroke-width:1.0"/>
<circle cx="343" cy="154" r="7.0" style="fill:gray;stroke:black;stroke-width:1.0"/>
<circle cx="306" cy="320" r="7.0" style="fill:gray;stroke:black;stroke-width:1.0"/>
<circle cx="273" cy="270" r="7.0" style="fill:gray;stroke:black;stroke-width:1.0"/>
<circle cx="359" cy="265" r="7.0" style="fill:gray;stroke:black;stroke-width:1.0"/>
<circle cx="285" cy="227" r="7.0" style="fill:gray;stroke:black;stroke-width:1.0"/>
<circle cx="328" cy="20" r="7.0" style="fill:gray;stroke:black;stroke-width:1.0"/>
<circle cx="271" cy="122" r="7.0" style="fill:gray;stroke:black;stroke-width:1.0"/>
</svg>
