<svg width="440" height="340" xmlns="http://www.w3.org/2000/svg">
<path stroke-width="20.0" stroke="black" d="M 241 249 206 220"/>
<path stroke-width="0.5" stroke="black" d="M 73 203 113 135"/>
<path stroke-width="0.5" stroke="black" d="M 73 203 218 142"/>
<path stroke-width="9.423728813559322" stroke="black" d="M 73 203 20 227"/>
<path stroke-width="0.5" stroke="black" d="M 73 203 125 254"/>
<path stroke-width="0.5" stroke="black" d="M 73 203 95 98"/>
<path stroke-width="0.5" stroke="black" d="M 73 203 210 120"/>
<path stroke-width="0.5" stroke="black" d="M 73 203 233 188"/>
<path stroke-width="0.5" stroke="black" d="M 73 203 253 166"/>
<path stroke-width="8.101694915254237" stroke="black" d="M 90 314 125 254"/>
<path stroke-width="0.5" stroke="black" d="M 125 254 206 220"/>
<path stroke-width="0.5" stroke="black" d="M 125 254 117 212"/>
<path stroke-width="0.5" stroke="black" d="M 125 254 157 179"/>
<path stroke-width="0.5" stroke="black" d="M 73 203 129 65"/>
<path stroke-width="0.9957627118644068" stroke="black" d="M 125 254 159 262"/>
<path stroke-width="0.5" stroke="black" d="M 125 254 176 83"/>
<path stroke-width="0.5" stroke="black" d="M 125 254 129 65"/>
<path stroke-width="0.5" stroke="black" d="M 125 254 113 135"/>
<path stroke-width="0.5" stroke="black" d="M 125 254 218 142"/>
<path stroke-width="0.5" stroke="black" d="M 125 254 73 203"/>
<path stroke-width="8.101694915254237" stroke="black" d="M 125 254 90 314"/>
<path stroke-width="0.5" stroke="black" d="M 125 254 95 98"/>
<path stroke-width="0.5" stroke="black" d="M 125 254 210 120"/>
<path stroke-width="0.5" stroke="black" d="M 125 254 233 188"/>
<path stroke-width="0.5" stroke="black" d="M 125 254 253 166"/>
<path stroke-width="6.779661016949152" stroke="black" d="M 39 66 95 98"/>
<path stroke-width="0.5" stroke="black" d="M 95 98 206 220"/>
<path stroke-width="0.5" stroke="black" d="M 125 254 65 159"/>
<path stroke-width="0.5" stroke="black" d="M 95 98 117 212"/>
<path stroke-width="0.5" stroke="black" d="M 73 203 176 83"/>
<path stroke-width="0.5" stroke="black" d="M 73 203 159 262"/>
<path stroke-width="0.5" stroke="black" d="M 113 135 73 203"/>
<path stroke-width="0.5" stroke="black" d="M 113 135 125 254"/>
<path stroke-width="0.5" stroke="black" d="M 113 135 95 98"/>
<path stroke-width="0.5" stroke="black" d="M 113 135 210 120"/>
<path stroke-width="0.5" stroke="black" d="M 113 135 233 188"/>
<path stroke-width="0.5" stroke="black" d="M 113 135 253 166"/>
<path stroke-width="10.745762711864407" stroke="black" d="M 269 126 218 142"/>
<path stroke-width="0.5" stroke="black" d="M 218 142 206 220"/>
<path stroke-width="0.5" stroke="black" d="M 218 142 117 212"/>
<path stroke-width="0.5" stroke="black" d="M 218 142 157 179"/>
<path stroke-width="0.5" stroke="black" d="M 218 142 159 262"/>
<path stroke-width="0.5" stroke="black" d="M 218 142 65 159"/>
<path stroke-width="0.9957627118644068" stroke="black" d="M 73 203 65 159"/>
<path stroke-width="0.9957627118644068" stroke="black" d="M 218 142 176 83"/>
<path stroke-width="0.5" stroke="black" d="M 218 142 113 135"/>
<path stroke-width="10.745762711864407" stroke="black" d="M 218 142 269 126"/>
<path stroke-width="0.5" stroke="black" d="M 218 142 73 203"/>
<path stroke-width="0.5" stroke="black" d="M 218 142 125 254"/>
<path stroke-width="0.5" stroke="black" d="M 218 142 95 98"/>
<path stroke-width="0.5" stroke="black" d="M 218 142 210 120"/>
<path stroke-width="0.5" stroke="black" d="M 218 142 233 188"/>
<path stroke-width="0.5" stroke="black" d="M 218 142 253 166"/>
<path stroke-width="9.423728813559322" stroke="black" d="M 20 227 73 203"/>
<path stroke-width="0.5" stroke="black" d="M 73 203 206 220"/>
<path stroke-width="0.5" stroke="black" d="M 73 203 117 212"/>
<path stroke-width="0.5" stroke="black" d="M 73 203 157 179"/>
<path stroke-width="0.5" stroke="black" d="M 218 142 129 65"/>
<path stroke-width="0.5" stroke="black" d="M 113 135 218 142"/>
<path stroke-width="0.9957627118644068" stroke="black" d="M 95 98 157 179"/>
<path stroke-width="0.5" stroke="black" d="M 95 98 65 159"/>
<path stroke-width="0.5" stroke="black" d="M 233 188 159 262"/>
<path stroke-width="0.5" stroke="black" d="M 233 188 65 159"/>
<path stroke-width="0.5" stroke="black" d="M 233 188 176 83"/>
<path stroke-width="0.5" stroke="black" d="M 233 188 129 65"/>
<path stroke-width="0.5" stroke="black" d="M 233 188 113 135"/>
<path stroke-width="0.5" stroke="black" d="M 233 188 218 142"/>
<path stroke-width="0.5" stroke="black" d="M 233 188 73 203"/>
<path stroke-width="0.5" stroke="black" d="M 233 188 125 254"/>
<path stroke-width="0.5" stroke="black" d="M 233 188 95 98"/>
<path stroke-width="0.5" stroke="black" d="M 233 188 210 120"/>
<path stroke-width="4.796610169491525" stroke="black" d="M 233 188 316 195"/>
<path stroke-width="0.5" stroke="black" d="M 233 188 253 166"/>
<path stroke-width="0.5" stroke="black" d="M 233 188 157 179"/>
<path stroke-width="1.4915254237288136" stroke="black" d="M 420 151 253 166"/>
<path stroke-width="0.5" stroke="black" d="M 253 166 117 212"/>
<path stroke-width="0.5" stroke="black" d="M 253 166 157 179"/>
<path stroke-width="0.5" stroke="black" d="M 253 166 159 262"/>
<path stroke-width="0.5" stroke="black" d="M 253 166 65 159"/>
<path stroke-width="0.5" stroke="black" d="M 253 166 176 83"/>
<path stroke-width="0.5" stroke="black" d="M 253 166 129 65"/>
<path stroke-width="0.5" stroke="black" d="M 253 166 113 135"/>
<path stroke-width="0.5" stroke="black" d="M 253 166 218 142"/>
<path stroke-width="0.5" stroke="black" d="M 253 166 73 203"/>
<path stroke-width="0.5" stroke="black" d="M 253 166 125 254"/>
<path stroke-width="0.5" stroke="black" d="M 253 166 95 98"/>
<path stroke-width="0.5" stroke="black" d="M 253 166 210 120"/>
<path stroke-width="0.5" stroke="black" d="M 253 166 206 220"/>
<path stroke-width="0.5" stroke="black" d="M 95 98 159 262"/>
<path stroke-width="0.5" stroke="black" d="M 233 188 117 212"/>
<path stroke-width="4.796610169491525" stroke="black" d="M 316 195 233 188"/>
<path stroke-width="0.5" stroke="black" d="M 95 98 176 83"/>
<path stroke-width="0.5" stroke="black" d="M 95 98 129 65"/>
<path stroke-width="0.5" stroke="black" d="M 95 98 113 135"/>
<path stroke-width="0.5" stroke="black" d="M 95 98 218 142"/>
<path stroke-width="0.5" stroke="black" d="M 95 98 73 203"/>
<path stroke-width="0.5" stroke="black" d="M 95 98 125 254"/>
<path stroke-width="6.779661016949152" stroke="black" d="M 95 98 39 66"/>
<path stroke-width="0.5" stroke="black" d="M 95 98 210 120"/>
<path stroke-width="0.5" stroke="black" d="M 95 98 233 188"/>
<path stroke-width="0.5" stroke="black" d="M 95 98 253 166"/>
<path stroke-width="5.4576271186440675" stroke="black" d="M 279 81 210 120"/>
<path stroke-width="0.5" stroke="black" d="M 210 120 206 220"/>
<path stroke-width="0.9957627118644068" stroke="black" d="M 233 188 206 220"/>
<path stroke-width="0.9957627118644068" stroke="black" d="M 210 120 117 212"/>
<path stroke-width="0.5" stroke="black" d="M 210 120 159 262"/>
<path stroke-width="0.5" stroke="black" d="M 210 120 65 159"/>
<path stroke-width="0.5" stroke="black" d="M 210 120 176 83"/>
<path stroke-width="0.5" stroke="black" d="M 210 120 129 65"/>
<path stroke-width="0.5" stroke="black" d="M 210 120 113 135"/>
<path stroke-width="0.5" stroke="black" d="M 210 120 218 142"/>
<path stroke-width="0.5" stroke="black" d="M 210 120 73 203"/>
<path stroke-width="0.5" stroke="black" d="M 210 120 125 254"/>
<path stroke-width="0.5" stroke="black" d="M 210 120 95 98"/>
<path stroke-width="5.4576271186440675" stroke="black" d="M 210 120 279 81"/>
<path stroke-width="0.5" stroke="black" d="M 210 120 233 188"/>
<path stroke-width="0.5" stroke="black" d="M 210 120 253 166"/>
<path stroke-width="0.5" stroke="black" d="M 210 120 157 179"/>
<path stroke-width="12.067796610169491" stroke="black" d="M 113 135 71 115"/>
<path stroke-width="0.9957627118644068" stroke="black" d="M 113 135 129 65"/>
<path stroke-width="0.5" stroke="black" d="M 113 135 176 83"/>
<path stroke-width="0.5" stroke="black" d="M 117 212 253 166"/>
<path stroke-width="18.016949152542374" stroke="black" d="M 145 161 157 179"/>
<path stroke-width="0.5" stroke="black" d="M 157 179 206 220"/>
<path stroke-width="0.5" stroke="black" d="M 157 179 117 212"/>
<path stroke-width="18.016949152542374" stroke="black" d="M 157 179 145 161"/>
<path stroke-width="0.5" stroke="black" d="M 157 179 159 262"/>
<path stroke-width="0.5" stroke="black" d="M 157 179 65 159"/>
<path stroke-width="0.5" stroke="black" d="M 157 179 176 83"/>
<path stroke-width="0.5" stroke="black" d="M 157 179 129 65"/>
<path stroke-width="0.5" stroke="black" d="M 157 179 113 135"/>
<path stroke-width="0.5" stroke="black" d="M 157 179 218 142"/>
<path stroke-width="0.5" stroke="black" d="M 157 179 73 203"/>
<path stroke-width="0.5" stroke="black" d="M 117 212 233 188"/>
<path stroke-width="0.5" stroke="black" d="M 157 179 125 254"/>
<path stroke-width="0.5" stroke="black" d="M 157 179 210 120"/>
<path stroke-width="0.5" stroke="black" d="M 157 179 233 188"/>
<path stroke-width="0.5" stroke="black" d="M 157 179 253 166"/>
<path stroke-width="16.694915254237287" stroke="black" d="M 156 320 159 262"/>
<path stroke-width="0.5" stroke="black" d="M 159 262 206 220"/>
<path stroke-width="0.5" stroke="black" d="M 159 262 117 212"/>
<path stroke-width="0.5" stroke="black" d="M 159 262 157 179"/>
<path stroke-width="16.694915254237287" stroke="black" d="M 159 262 156 320"/>
<path stroke-width="0.5" stroke="black" d="M 159 262 65 159"/>
<path stroke-width="0.5" stroke="black" d="M 159 262 176 83"/>
<path stroke-width="0.5" stroke="black" d="M 159 262 129 65"/>
<path stroke-width="0.5" stroke="black" d="M 159 262 113 135"/>
<path stroke-width="0.9957627118644068" stroke="black" d="M 157 179 95 98"/>
<path stroke-width="0.5" stroke="black" d="M 159 262 218 142"/>
<path stroke-width="0.9957627118644068" stroke="black" d="M 117 212 210 120"/>
<path stroke-width="0.5" stroke="black" d="M 117 212 125 254"/>
<path stroke-width="20.0" stroke="black" d="M 206 220 241 249"/>
<path stroke-width="0.5" stroke="black" d="M 206 220 117 212"/>
<path stroke-width="0.5" stroke="black" d="M 206 220 157 179"/>
<path stroke-width="0.5" stroke="black" d="M 206 220 159 262"/>
<path stroke-width="0.5" stroke="black" d="M 206 220 65 159"/>
<path stroke-width="0.5" stroke="black" d="M 206 220 176 83"/>
<path stroke-width="0.5" stroke="black" d="M 206 220 129 65"/>
<path stroke-width="0.5" stroke="black" d="M 206 220 113 135"/>
<path stroke-width="0.5" stroke="black" d="M 206 220 218 142"/>
<path stroke-width="0.5" stroke="black" d="M 206 220 73 203"/>
<path stroke-width="0.5" stroke="black" d="M 206 220 125 254"/>
<path stroke-width="0.5" stroke="black" d="M 206 220 95 98"/>
<path stroke-width="0.5" stroke="black" d="M 117 212 95 98"/>
<path stroke-width="0.5" stroke="black" d="M 206 220 210 120"/>
<path stroke-width="0.5" stroke="black" d="M 206 220 253 166"/>
<path stroke-width="19.338983050847457" stroke="black" d="M 87 240 117 212"/>
<path stroke-width="0.5" stroke="black" d="M 117 212 206 220"/>
<path stroke-width="19.338983050847457" stroke="black" d="M 117 212 87 240"/>
<path stroke-width="0.5" stroke="black" d="M 117 212 157 179"/>
<path stroke-width="0.5" stroke="black" d="M 117 212 159 262"/>
<path stroke-width="0.5" stroke="black" d="M 117 212 65 159"/>
<path stroke-width="0.5" stroke="black" d="M 117 212 176 83"/>
<path stroke-width="0.5" stroke="black" d="M 117 212 129 65"/>
<path stroke-width="0.5" stroke="black" d="M 117 212 113 135"/>
<path stroke-width="0.5" stroke="black" d="M 117 212 218 142"/>
<path stroke-width="0.5" stroke="black" d="M 117 212 73 203"/>
<path stroke-width="0.9957627118644068" stroke="black" d="M 206 220 233 188"/>
<path stroke-width="0.5" stroke="black" d="M 159 262 73 203"/>
<path stroke-width="0.9957627118644068" stroke="black" d="M 159 262 125 254"/>
<path stroke-width="0.5" stroke="black" d="M 159 262 95 98"/>
<path stroke-width="0.5" stroke="black" d="M 176 83 95 98"/>
<path stroke-width="0.5" stroke="black" d="M 176 83 210 120"/>
<path stroke-width="0.5" stroke="black" d="M 176 83 233 188"/>
<path stroke-width="0.5" stroke="black" d="M 176 83 253 166"/>
<path stroke-width="12.728813559322035" stroke="black" d="M 110 20 129 65"/>
<path stroke-width="0.5" stroke="black" d="M 129 65 206 220"/>
<path stroke-width="0.5" stroke="black" d="M 129 65 117 212"/>
<path stroke-width="0.5" stroke="black" d="M 129 65 157 179"/>
<path stroke-width="0.5" stroke="black" d="M 129 65 159 262"/>
<path stroke-width="0.5" stroke="black" d="M 129 65 65 159"/>
<path stroke-width="0.5" stroke="black" d="M 129 65 176 83"/>
<path stroke-width="12.728813559322035" stroke="black" d="M 129 65 110 20"/>
<path stroke-width="0.5" stroke="black" d="M 176 83 125 254"/>
<path stroke-width="0.9957627118644068" stroke="black" d="M 129 65 113 135"/>
<path stroke-width="0.5" stroke="black" d="M 129 65 73 203"/>
<path stroke-width="0.5" stroke="black" d="M 129 65 125 254"/>
<path stroke-width="0.5" stroke="black" d="M 129 65 95 98"/>
<path stroke-width="0.5" stroke="black" d="M 129 65 210 120"/>
<path stroke-width="0.5" stroke="black" d="M 129 65 233 188"/>
<path stroke-width="0.5" stroke="black" d="M 129 65 253 166"/>
<path stroke-width="12.067796610169491" stroke="black" d="M 71 115 113 135"/>
<path stroke-width="0.5" stroke="black" d="M 113 135 206 220"/>
<path stroke-width="0.5" stroke="black" d="M 113 135 117 212"/>
<path stroke-width="0.5" stroke="black" d="M 113 135 157 179"/>
<path stroke-width="0.5" stroke="black" d="M 113 135 159 262"/>
<path stroke-width="0.5" stroke="black" d="M 113 135 65 159"/>
<path stroke-width="0.5" stroke="black" d="M 129 65 218 142"/>
<path stroke-width="0.5" stroke="black" d="M 176 83 73 203"/>
<path stroke-width="0.9957627118644068" stroke="black" d="M 176 83 218 142"/>
<path stroke-width="0.5" stroke="black" d="M 176 83 113 135"/>
<path stroke-width="0.5" stroke="black" d="M 159 262 210 120"/>
<path stroke-width="0.5" stroke="black" d="M 159 262 233 188"/>
<path stroke-width="0.5" stroke="black" d="M 159 262 253 166"/>
<path stroke-width="15.372881355932204" stroke="black" d="M 25 156 65 159"/>
<path stroke-width="0.5" stroke="black" d="M 65 159 206 220"/>
<path stroke-width="0.5" stroke="black" d="M 65 159 117 212"/>
<path stroke-width="0.5" stroke="black" d="M 65 159 157 179"/>
<path stroke-width="0.5" stroke="black" d="M 65 159 159 262"/>
<path stroke-width="15.372881355932204" stroke="black" d="M 65 159 25 156"/>
<path stroke-width="0.5" stroke="black" d="M 65 159 176 83"/>
<path stroke-width="0.5" stroke="black" d="M 65 159 129 65"/>
<path stroke-width="0.5" stroke="black" d="M 65 159 113 135"/>
<path stroke-width="0.5" stroke="black" d="M 65 159 218 142"/>
<path stroke-width="0.9957627118644068" stroke="black" d="M 65 159 73 203"/>
<path stroke-width="0.5" stroke="black" d="M 65 159 125 254"/>
<path stroke-width="0.5" stroke="black" d="M 65 159 95 98"/>
<path stroke-width="0.5" stroke="black" d="M 65 159 210 120"/>
<path stroke-width="0.5" stroke="black" d="M 65 159 233 188"/>
<path stroke-width="0.5" stroke="black" d="M 65 159 253 166"/>
<path stroke-width="14.05084745762712" stroke="black" d="M 186 36 176 83"/>
<path stroke-width="0.5" stroke="black" d="M 176 83 206 220"/>
<path stroke-width="0.5" stroke="black" d="M 176 83 117 212"/>
<path stroke-width="0.5" stroke="black" d="M 176 83 157 179"/>
<path stroke-width="0.5" stroke="black" d="M 176 83 159 262"/>
<path stroke-width="0.5" stroke="black" d="M 176 83 65 159"/>
<path stroke-width="14.05084745762712" stroke="black" d="M 176 83 186 36"/>
<path stroke-width="0.5" stroke="black" d="M 176 83 129 65"/>
<path stroke-width="0.5" stroke="black" d="M 253 166 233 188"/>
<path stroke-width="1.4915254237288136" stroke="black" d="M 253 166 420 151"/>
<circle cx="241" cy="249" r="7.0" style="fill:purple;stroke:black;stroke-width:1.0"/>
<circle cx="206" cy="220" r="7.0" style="fill:purple;stroke:black;stroke-width:1.0"/>
<circle cx="87" cy="240" r="7.0" style="fill:fuchsia;stroke:black;stroke-width:1.0"/>
<circle cx="117" cy="212" r="7.0" style="fill:fuchsia;stroke:black;stroke-width:1.0"/>
<circle cx="145" cy="161" r="7.0" style="fill:green;stroke:black;stroke-width:1.0"/>
<circle cx="157" cy="179" r="7.0" style="fill:green;stroke:black;stroke-width:1.0"/>
<circle cx="156" cy="320" r="7.0" style="fill:yellow;stroke:black;stroke-width:1.0"/>
<circle cx="159" cy="262" r="7.0" style="fill:yellow;stroke:black;stroke-width:1.0"/>
<circle cx="25" cy="156" r="7.0" style="fill:red;stroke:black;stroke-width:1.0"/>
<circle cx="65" cy="159" r="7.0" style="fill:red;stroke:black;stroke-width:1.0"/>
<circle cx="186" cy="36" r="7.0" style="fill:blue;stroke:black;stroke-width:1.0"/>
<circle cx="176" cy="83" r="7.0" style="fill:blue;stroke:black;stroke-width:1.0"/>
<circle cx="110" cy="20" r="7.0" style="fill:orange;stroke:black;stroke-width:1.0"/>
<circle cx="129" cy="65" r="7.0" style="fill:orange;stroke:black;stroke-width:1.0"/>
<circle cx="71" cy="115" r="7.0" style="fill:orange;stroke:black;stroke-width:1.0"/>
<circle cx="113" cy="135" r="7.0" style="fill:orange;stroke:black;stroke-width:1.0"/>
<circle cx="269" cy="126" r="7.0" style="fill:yellow;stroke:black;stroke-width:1.0"/>
<circle cx="218" cy="142" r="7.0" style="fill:blue;stroke:black;stroke-width:1.0"/>
<circle cx="20" cy="227" r="7.0" style="fill:red;stroke:black;stroke-width:1.0"/>
<circle cx="73" cy="203" r="7.0" style="fill:red;stroke:black;stroke-width:1.0"/>
<circle cx="90" cy="314" r="7.0" style="fill:yellow;stroke:black;stroke-width:1.0"/>
<circle cx="125" cy="254" r="7.0" style="fill:yellow;stroke:black;stroke-width:1.0"/>
<circle cx="39" cy="66" r="7.0" style="fill:green;stroke:black;stroke-width:1.0"/>
<circle cx="95" cy="98" r="7.0" style="fill:green;stroke:black;stroke-width:1.0"/>
<circle cx="279" cy="81" r="7.0" style="fill:yellow;stroke:black;stroke-width:1.0"/>
<circle cx="210" cy="120" r="7.0" style="fill:yellow;stroke:black;stroke-width:1.0"/>
<circle cx="316" cy="195" r="7.0" style="fill:yellow;stroke:black;stroke-width:1.0"/>
<circle cx="233" cy="188" r="7.0" style="fill:yellow;stroke:black;stroke-width:1.0"/>
<circle cx="420" cy="151" r="7.0" style="fill:yellow;stroke:black;stroke-width:1.0"/>
<circle cx="253" cy="166" r="7.0" style="fill:yellow;stroke:black;stroke-width:1.0"/>
</svg>
