<svg width="440" height="340" xmlns="http://www.w3.org/2000/svg">
<path stroke-width="1" stroke="black" d="M 113 39 150 103"/>
<path stroke-width="1" stroke="black" d="M 176 239 101 164"/>
<path stroke-width="1" stroke="black" d="M 176 239 269 219"/>
<path stroke-width="1" stroke="black" d="M 176 239 166 302"/>
<path stroke-width="1" stroke="black" d="M 176 239 186 124"/>
<path stroke-width="1" stroke="black" d="M 176 239 219 256"/>
<path stroke-width="1" stroke="black" d="M 176 239 111 217"/>
<path stroke-width="1" stroke="black" d="M 176 239 241 154"/>
<path stroke-width="1" stroke="black" d="M 176 239 274 115"/>
<path stroke-width="1" stroke="black" d="M 196 73 186 124"/>
<path stroke-width="1" stroke="black" d="M 186 124 150 103"/>
<path stroke-width="1" stroke="black" d="M 186 124 117 152"/>
<path stroke-width="1" stroke="black" d="M 186 124 130 227"/>
<path stroke-width="1" stroke="black" d="M 176 239 160 169"/>
<path stroke-width="1" stroke="black" d="M 186 124 228 117"/>
<path stroke-width="1" stroke="black" d="M 186 124 287 180"/>
<path stroke-width="1" stroke="black" d="M 186 124 160 169"/>
<path stroke-width="1" stroke="black" d="M 186 124 101 164"/>
<path stroke-width="1" stroke="black" d="M 186 124 269 219"/>
<path stroke-width="1" stroke="black" d="M 186 124 176 239"/>
<path stroke-width="1" stroke="black" d="M 186 124 196 73"/>
<path stroke-width="1" stroke="black" d="M 186 124 219 256"/>
<path stroke-width="1" stroke="black" d="M 186 124 111 217"/>
<path stroke-width="1" stroke="black" d="M 186 124 241 154"/>
<path stroke-width="1" stroke="black" d="M 186 124 274 115"/>
<path stroke-width="1" stroke="black" d="M 248 320 219 256"/>
<path stroke-width="1" stroke="black" d="M 219 256 150 103"/>
<path stroke-width="1" stroke="black" d="M 186 124 189 91"/>
<path stroke-width="1" stroke="black" d="M 219 256 117 152"/>
<path stroke-width="1" stroke="black" d="M 176 239 287 180"/>
<path stroke-width="1" stroke="black" d="M 176 239 228 117"/>
<path stroke-width="1" stroke="black" d="M 101 164 176 239"/>
<path stroke-width="1" stroke="black" d="M 101 164 186 124"/>
<path stroke-width="1" stroke="black" d="M 101 164 219 256"/>
<path stroke-width="1" stroke="black" d="M 101 164 111 217"/>
<path stroke-width="1" stroke="black" d="M 101 164 241 154"/>
<path stroke-width="1" stroke="black" d="M 101 164 274 115"/>
<path stroke-width="1" stroke="black" d="M 314 240 269 219"/>
<path stroke-width="1" stroke="black" d="M 269 219 150 103"/>
<path stroke-width="1" stroke="black" d="M 269 219 117 152"/>
<path stroke-width="1" stroke="black" d="M 269 219 130 227"/>
<path stroke-width="1" stroke="black" d="M 269 219 228 117"/>
<path stroke-width="1" stroke="black" d="M 269 219 189 91"/>
<path stroke-width="1" stroke="black" d="M 176 239 189 91"/>
<path stroke-width="1" stroke="black" d="M 269 219 287 180"/>
<path stroke-width="1" stroke="black" d="M 269 219 101 164"/>
<path stroke-width="1" stroke="black" d="M 269 219 314 240"/>
<path stroke-width="1" stroke="black" d="M 269 219 176 239"/>
<path stroke-width="1" stroke="black" d="M 269 219 186 124"/>
<path stroke-width="1" stroke="black" d="M 269 219 219 256"/>
<path stroke-width="1" stroke="black" d="M 269 219 111 217"/>
<path stroke-width="1" stroke="black" d="M 269 219 241 154"/>
<path stroke-width="1" stroke="black" d="M 269 219 274 115"/>
<path stroke-width="1" stroke="black" d="M 166 302 176 239"/>
<path stroke-width="1" stroke="black" d="M 176 239 150 103"/>
<path stroke-width="1" stroke="black" d="M 176 239 117 152"/>
<path stroke-width="1" stroke="black" d="M 176 239 130 227"/>
<path stroke-width="1" stroke="black" d="M 269 219 160 169"/>
<path stroke-width="1" stroke="black" d="M 101 164 269 219"/>
<path stroke-width="1" stroke="black" d="M 219 256 130 227"/>
<path stroke-width="1" stroke="black" d="M 219 256 189 91"/>
<path stroke-width="1" stroke="black" d="M 241 154 228 117"/>
<path stroke-width="1" stroke="black" d="M 241 154 189 91"/>
<path stroke-width="1" stroke="black" d="M 241 154 287 180"/>
<path stroke-width="1" stroke="black" d="M 241 154 160 169"/>
<path stroke-width="1" stroke="black" d="M 241 154 101 164"/>
<path stroke-width="1" stroke="black" d="M 241 154 269 219"/>
<path stroke-width="1" stroke="black" d="M 241 154 176 239"/>
<path stroke-width="1" stroke="black" d="M 241 154 186 124"/>
<path stroke-width="1" stroke="black" d="M 241 154 219 256"/>
<path stroke-width="1" stroke="black" d="M 241 154 111 217"/>
<path stroke-width="1" stroke="black" d="M 241 154 325 132"/>
<path stroke-width="1" stroke="black" d="M 241 154 274 115"/>
<path stroke-width="1" stroke="black" d="M 241 154 130 227"/>
<path stroke-width="1" stroke="black" d="M 420 32 274 115"/>
<path stroke-width="1" stroke="black" d="M 274 115 117 152"/>
<path stroke-width="1" stroke="black" d="M 274 115 130 227"/>
<path stroke-width="1" stroke="black" d="M 274 115 228 117"/>
<path stroke-width="1" stroke="black" d="M 274 115 189 91"/>
<path stroke-width="1" stroke="black" d="M 274 115 287 180"/>
<path stroke-width="1" stroke="black" d="M 274 115 160 169"/>
<path stroke-width="1" stroke="black" d="M 274 115 101 164"/>
<path stroke-width="1" stroke="black" d="M 274 115 269 219"/>
<path stroke-width="1" stroke="black" d="M 274 115 176 239"/>
<path stroke-width="1" stroke="black" d="M 274 115 186 124"/>
<path stroke-width="1" stroke="black" d="M 274 115 219 256"/>
<path stroke-width="1" stroke="black" d="M 274 115 111 217"/>
<path stroke-width="1" stroke="black" d="M 274 115 150 103"/>
<path stroke-width="1" stroke="black" d="M 219 256 228 117"/>
<path stroke-width="1" stroke="black" d="M 241 154 117 152"/>
<path stroke-width="1" stroke="black" d="M 325 132 241 154"/>
<path stroke-width="1" stroke="black" d="M 219 256 287 180"/>
<path stroke-width="1" stroke="black" d="M 219 256 160 169"/>
<path stroke-width="1" stroke="black" d="M 219 256 101 164"/>
<path stroke-width="1" stroke="black" d="M 219 256 269 219"/>
<path stroke-width="1" stroke="black" d="M 219 256 176 239"/>
<path stroke-width="1" stroke="black" d="M 219 256 186 124"/>
<path stroke-width="1" stroke="black" d="M 219 256 248 320"/>
<path stroke-width="1" stroke="black" d="M 219 256 111 217"/>
<path stroke-width="1" stroke="black" d="M 219 256 241 154"/>
<path stroke-width="1" stroke="black" d="M 219 256 274 115"/>
<path stroke-width="1" stroke="black" d="M 37 267 111 217"/>
<path stroke-width="1" stroke="black" d="M 111 217 150 103"/>
<path stroke-width="1" stroke="black" d="M 241 154 150 103"/>
<path stroke-width="1" stroke="black" d="M 111 217 117 152"/>
<path stroke-width="1" stroke="black" d="M 111 217 228 117"/>
<path stroke-width="1" stroke="black" d="M 111 217 189 91"/>
<path stroke-width="1" stroke="black" d="M 111 217 287 180"/>
<path stroke-width="1" stroke="black" d="M 111 217 160 169"/>
<path stroke-width="1" stroke="black" d="M 111 217 101 164"/>
<path stroke-width="1" stroke="black" d="M 111 217 269 219"/>
<path stroke-width="1" stroke="black" d="M 111 217 176 239"/>
<path stroke-width="1" stroke="black" d="M 111 217 186 124"/>
<path stroke-width="1" stroke="black" d="M 111 217 219 256"/>
<path stroke-width="1" stroke="black" d="M 111 217 37 267"/>
<path stroke-width="1" stroke="black" d="M 111 217 241 154"/>
<path stroke-width="1" stroke="black" d="M 111 217 274 115"/>
<path stroke-width="1" stroke="black" d="M 111 217 130 227"/>
<path stroke-width="1" stroke="black" d="M 101 164 20 158"/>
<path stroke-width="1" stroke="black" d="M 101 164 160 169"/>
<path stroke-width="1" stroke="black" d="M 101 164 287 180"/>
<path stroke-width="1" stroke="black" d="M 117 152 274 115"/>
<path stroke-width="1" stroke="black" d="M 87 260 130 227"/>
<path stroke-width="1" stroke="black" d="M 130 227 150 103"/>
<path stroke-width="1" stroke="black" d="M 130 227 117 152"/>
<path stroke-width="1" stroke="black" d="M 130 227 87 260"/>
<path stroke-width="1" stroke="black" d="M 130 227 228 117"/>
<path stroke-width="1" stroke="black" d="M 130 227 189 91"/>
<path stroke-width="1" stroke="black" d="M 130 227 287 180"/>
<path stroke-width="1" stroke="black" d="M 130 227 160 169"/>
<path stroke-width="1" stroke="black" d="M 130 227 101 164"/>
<path stroke-width="1" stroke="black" d="M 130 227 269 219"/>
<path stroke-width="1" stroke="black" d="M 130 227 176 239"/>
<path stroke-width="1" stroke="black" d="M 117 152 241 154"/>
<path stroke-width="1" stroke="black" d="M 130 227 186 124"/>
<path stroke-width="1" stroke="black" d="M 130 227 111 217"/>
<path stroke-width="1" stroke="black" d="M 130 227 241 154"/>
<path stroke-width="1" stroke="black" d="M 130 227 274 115"/>
<path stroke-width="1" stroke="black" d="M 257 82 228 117"/>
<path stroke-width="1" stroke="black" d="M 228 117 150 103"/>
<path stroke-width="1" stroke="black" d="M 228 117 117 152"/>
<path stroke-width="1" stroke="black" d="M 228 117 130 227"/>
<path stroke-width="1" stroke="black" d="M 228 117 257 82"/>
<path stroke-width="1" stroke="black" d="M 228 117 189 91"/>
<path stroke-width="1" stroke="black" d="M 228 117 287 180"/>
<path stroke-width="1" stroke="black" d="M 228 117 160 169"/>
<path stroke-width="1" stroke="black" d="M 228 117 101 164"/>
<path stroke-width="1" stroke="black" d="M 130 227 219 256"/>
<path stroke-width="1" stroke="black" d="M 228 117 269 219"/>
<path stroke-width="1" stroke="black" d="M 117 152 111 217"/>
<path stroke-width="1" stroke="black" d="M 117 152 186 124"/>
<path stroke-width="1" stroke="black" d="M 150 103 113 39"/>
<path stroke-width="1" stroke="black" d="M 150 103 117 152"/>
<path stroke-width="1" stroke="black" d="M 150 103 130 227"/>
<path stroke-width="1" stroke="black" d="M 150 103 228 117"/>
<path stroke-width="1" stroke="black" d="M 150 103 189 91"/>
<path stroke-width="1" stroke="black" d="M 150 103 287 180"/>
<path stroke-width="1" stroke="black" d="M 150 103 160 169"/>
<path stroke-width="1" stroke="black" d="M 150 103 101 164"/>
<path stroke-width="1" stroke="black" d="M 150 103 269 219"/>
<path stroke-width="1" stroke="black" d="M 150 103 176 239"/>
<path stroke-width="1" stroke="black" d="M 150 103 186 124"/>
<path stroke-width="1" stroke="black" d="M 150 103 219 256"/>
<path stroke-width="1" stroke="black" d="M 117 152 219 256"/>
<path stroke-width="1" stroke="black" d="M 150 103 111 217"/>
<path stroke-width="1" stroke="black" d="M 150 103 274 115"/>
<path stroke-width="1" stroke="black" d="M 57 137 117 152"/>
<path stroke-width="1" stroke="black" d="M 117 152 150 103"/>
<path stroke-width="1" stroke="black" d="M 117 152 57 137"/>
<path stroke-width="1" stroke="black" d="M 117 152 130 227"/>
<path stroke-width="1" stroke="black" d="M 117 152 228 117"/>
<path stroke-width="1" stroke="black" d="M 117 152 189 91"/>
<path stroke-width="1" stroke="black" d="M 117 152 287 180"/>
<path stroke-width="1" stroke="black" d="M 117 152 160 169"/>
<path stroke-width="1" stroke="black" d="M 117 152 101 164"/>
<path stroke-width="1" stroke="black" d="M 117 152 269 219"/>
<path stroke-width="1" stroke="black" d="M 117 152 176 239"/>
<path stroke-width="1" stroke="black" d="M 150 103 241 154"/>
<path stroke-width="1" stroke="black" d="M 228 117 176 239"/>
<path stroke-width="1" stroke="black" d="M 228 117 186 124"/>
<path stroke-width="1" stroke="black" d="M 228 117 219 256"/>
<path stroke-width="1" stroke="black" d="M 287 180 219 256"/>
<path stroke-width="1" stroke="black" d="M 287 180 111 217"/>
<path stroke-width="1" stroke="black" d="M 287 180 241 154"/>
<path stroke-width="1" stroke="black" d="M 287 180 274 115"/>
<path stroke-width="1" stroke="black" d="M 152 168 160 169"/>
<path stroke-width="1" stroke="black" d="M 160 169 150 103"/>
<path stroke-width="1" stroke="black" d="M 160 169 117 152"/>
<path stroke-width="1" stroke="black" d="M 160 169 130 227"/>
<path stroke-width="1" stroke="black" d="M 160 169 228 117"/>
<path stroke-width="1" stroke="black" d="M 160 169 189 91"/>
<path stroke-width="1" stroke="black" d="M 160 169 287 180"/>
<path stroke-width="1" stroke="black" d="M 160 169 152 168"/>
<path stroke-width="1" stroke="black" d="M 287 180 186 124"/>
<path stroke-width="1" stroke="black" d="M 160 169 101 164"/>
<path stroke-width="1" stroke="black" d="M 160 169 176 239"/>
<path stroke-width="1" stroke="black" d="M 160 169 186 124"/>
<path stroke-width="1" stroke="black" d="M 160 169 219 256"/>
<path stroke-width="1" stroke="black" d="M 160 169 111 217"/>
<path stroke-width="1" stroke="black" d="M 160 169 241 154"/>
<path stroke-width="1" stroke="black" d="M 160 169 274 115"/>
<path stroke-width="1" stroke="black" d="M 20 158 101 164"/>
<path stroke-width="1" stroke="black" d="M 101 164 150 103"/>
<path stroke-width="1" stroke="black" d="M 101 164 117 152"/>
<path stroke-width="1" stroke="black" d="M 101 164 130 227"/>
<path stroke-width="1" stroke="black" d="M 101 164 228 117"/>
<path stroke-width="1" stroke="black" d="M 101 164 189 91"/>
<path stroke-width="1" stroke="black" d="M 160 169 269 219"/>
<path stroke-width="1" stroke="black" d="M 287 180 176 239"/>
<path stroke-width="1" stroke="black" d="M 287 180 269 219"/>
<path stroke-width="1" stroke="black" d="M 287 180 101 164"/>
<path stroke-width="1" stroke="black" d="M 228 117 111 217"/>
<path stroke-width="1" stroke="black" d="M 228 117 241 154"/>
<path stroke-width="1" stroke="black" d="M 228 117 274 115"/>
<path stroke-width="1" stroke="black" d="M 198 20 189 91"/>
<path stroke-width="1" stroke="black" d="M 189 91 150 103"/>
<path stroke-width="1" stroke="black" d="M 189 91 117 152"/>
<path stroke-width="1" stroke="black" d="M 189 91 130 227"/>
<path stroke-width="1" stroke="black" d="M 189 91 228 117"/>
<path stroke-width="1" stroke="black" d="M 189 91 198 20"/>
<path stroke-width="1" stroke="black" d="M 189 91 287 180"/>
<path stroke-width="1" stroke="black" d="M 189 91 160 169"/>
<path stroke-width="1" stroke="black" d="M 189 91 101 164"/>
<path stroke-width="1" stroke="black" d="M 189 91 269 219"/>
<path stroke-width="1" stroke="black" d="M 189 91 176 239"/>
<path stroke-width="1" stroke="black" d="M 189 91 186 124"/>
<path stroke-width="1" stroke="black" d="M 189 91 219 256"/>
<path stroke-width="1" stroke="black" d="M 189 91 111 217"/>
<path stroke-width="1" stroke="black" d="M 189 91 241 154"/>
<path stroke-width="1" stroke="black" d="M 189 91 274 115"/>
<path stroke-width="1" stroke="black" d="M 322 182 287 180"/>
<path stroke-width="1" stroke="black" d="M 287 180 150 103"/>
<path stroke-width="1" stroke="black" d="M 287 180 117 152"/>
<path stroke-width="1" stroke="black" d="M 287 180 130 227"/>
<path stroke-width="1" stroke="black" d="M 287 180 228 117"/>
<path stroke-width="1" stroke="black" d="M 287 180 189 91"/>
<path stroke-width="1" stroke="black" d="M 287 180 322 182"/>
<path stroke-width="1" stroke="black" d="M 287 180 160 169"/>
<path stroke-width="1" stroke="black" d="M 274 115 241 154"/>
<path stroke-width="1" stroke="black" d="M 274 115 420 32"/>
<circle cx="113" cy="39" r="7.0" style="fill:yellow;stroke:black;stroke-width:1.0"/>
<circle cx="150" cy="103" r="7.0" style="fill:yellow;stroke:black;stroke-width:1.0"/>
<circle cx="57" cy="137" r="7.0" style="fill:green;stroke:black;stroke-width:1.0"/>
<circle cx="117" cy="152" r="7.0" style="fill:green;stroke:black;stroke-width:1.0"/>
<circle cx="87" cy="260" r="7.0" style="fill:red;stroke:black;stroke-width:1.0"/>
<circle cx="130" cy="227" r="7.0" style="fill:red;stroke:black;stroke-width:1.0"/>
<circle cx="257" cy="82" r="7.0" style="fill:yellow;stroke:black;stroke-width:1.0"/>
<circle cx="228" cy="117" r="7.0" style="fill:yellow;stroke:black;stroke-width:1.0"/>
<circle cx="198" cy="20" r="7.0" style="fill:purple;stroke:black;stroke-width:1.0"/>
<circle cx="189" cy="91" r="7.0" style="fill:purple;stroke:black;stroke-width:1.0"/>
<circle cx="322" cy="182" r="7.0" style="fill:blue;stroke:black;stroke-width:1.0"/>
<circle cx="287" cy="180" r="7.0" style="fill:blue;stroke:black;stroke-width:1.0"/>
<circle cx="152" cy="168" r="7.0" style="fill:orange;stroke:black;stroke-width:1.0"/>
<circle cx="160" cy="169" r="7.0" style="fill:orange;stroke:black;stroke-width:1.0"/>
<circle cx="20" cy="158" r="7.0" style="fill:orange;stroke:black;stroke-width:1.0"/>
<circle cx="101" cy="164" r="7.0" style="fill:orange;stroke:black;stroke-width:1.0"/>
<circle cx="314" cy="240" r="7.0" style="fill:blue;stroke:black;stroke-width:1.0"/>
<circle cx="269" cy="219" r="7.0" style="fill:blue;stroke:black;stroke-width:1.0"/>
<circle cx="166" cy="302" r="7.0" style="fill:fuchsia;stroke:black;stroke-width:1.0"/>
<circle cx="176" cy="239" r="7.0" style="fill:fuchsia;stroke:black;stroke-width:1.0"/>
<circle cx="196" cy="73" r="7.0" style="fill:yellow;stroke:black;stroke-width:1.0"/>
<circle cx="186" cy="124" r="7.0" style="fill:yellow;stroke:black;stroke-width:1.0"/>
<circle cx="248" cy="320" r="7.0" style="fill:red;stroke:black;stroke-width:1.0"/>
<circle cx="219" cy="256" r="7.0" style="fill:red;stroke:black;stroke-width:1.0"/>
<circle cx="37" cy="267" r="7.0" style="fill:green;stroke:black;stroke-width:1.0"/>
<circle cx="111" cy="217" r="7.0" style="fill:green;stroke:black;stroke-width:1.0"/>
<circle cx="325" cy="132" r="7.0" style="fill:yellow;stroke:black;stroke-width:1.0"/>
<circle cx="241" cy="154" r="7.0" style="fill:yellow;stroke:black;stroke-width:1.0"/>
<circle cx="420" cy="32" r="7.0" style="fill:yellow;stroke:black;stroke-width:1.0"/>
<circle cx="274" cy="115" r="7.0" style="fill:yellow;stroke:black;stroke-width:1.0"/>
</svg>
