<svg width="440" height="340" xmlns="http://www.w3.org/2000/svg">
<path stroke-width="1" stroke="black" d="M 111 263 134 229"/>
<path stroke-width="1" stroke="black" d="M 164 78 218 200"/>
<path stroke-width="1" stroke="black" d="M 164 78 251 129"/>
<path stroke-width="1" stroke="black" d="M 164 78 140 20"/>
<path stroke-width="1" stroke="black" d="M 164 78 120 195"/>
<path stroke-width="1" stroke="black" d="M 164 78 254 182"/>
<path stroke-width="1" stroke="black" d="M 164 78 169 241"/>
<path stroke-width="1" stroke="black" d="M 164 78 105 166"/>
<path stroke-width="1" stroke="black" d="M 164 78 273 191"/>
<path stroke-width="1" stroke="black" d="M 61 217 120 195"/>
<path stroke-width="1" stroke="black" d="M 120 195 134 229"/>
<path stroke-width="1" stroke="black" d="M 120 195 218 124"/>
<path stroke-width="1" stroke="black" d="M 120 195 202 238"/>
<path stroke-width="1" stroke="black" d="M 164 78 123 132"/>
<path stroke-width="1" stroke="black" d="M 120 195 159 171"/>
<path stroke-width="1" stroke="black" d="M 120 195 165 115"/>
<path stroke-width="1" stroke="black" d="M 120 195 123 132"/>
<path stroke-width="1" stroke="black" d="M 120 195 218 200"/>
<path stroke-width="1" stroke="black" d="M 120 195 251 129"/>
<path stroke-width="1" stroke="black" d="M 120 195 164 78"/>
<path stroke-width="1" stroke="black" d="M 120 195 61 217"/>
<path stroke-width="1" stroke="black" d="M 120 195 254 182"/>
<path stroke-width="1" stroke="black" d="M 120 195 169 241"/>
<path stroke-width="1" stroke="black" d="M 120 195 105 166"/>
<path stroke-width="1" stroke="black" d="M 120 195 273 191"/>
<path stroke-width="1" stroke="black" d="M 320 197 254 182"/>
<path stroke-width="1" stroke="black" d="M 254 182 134 229"/>
<path stroke-width="1" stroke="black" d="M 120 195 202 81"/>
<path stroke-width="1" stroke="black" d="M 254 182 218 124"/>
<path stroke-width="1" stroke="black" d="M 164 78 165 115"/>
<path stroke-width="1" stroke="black" d="M 164 78 159 171"/>
<path stroke-width="1" stroke="black" d="M 218 200 164 78"/>
<path stroke-width="1" stroke="black" d="M 218 200 120 195"/>
<path stroke-width="1" stroke="black" d="M 218 200 254 182"/>
<path stroke-width="1" stroke="black" d="M 218 200 169 241"/>
<path stroke-width="1" stroke="black" d="M 218 200 105 166"/>
<path stroke-width="1" stroke="black" d="M 218 200 273 191"/>
<path stroke-width="1" stroke="black" d="M 297 103 251 129"/>
<path stroke-width="1" stroke="black" d="M 251 129 134 229"/>
<path stroke-width="1" stroke="black" d="M 251 129 218 124"/>
<path stroke-width="1" stroke="black" d="M 251 129 202 238"/>
<path stroke-width="1" stroke="black" d="M 251 129 159 171"/>
<path stroke-width="1" stroke="black" d="M 251 129 202 81"/>
<path stroke-width="1" stroke="black" d="M 164 78 202 81"/>
<path stroke-width="1" stroke="black" d="M 251 129 165 115"/>
<path stroke-width="1" stroke="black" d="M 251 129 218 200"/>
<path stroke-width="1" stroke="black" d="M 251 129 297 103"/>
<path stroke-width="1" stroke="black" d="M 251 129 164 78"/>
<path stroke-width="1" stroke="black" d="M 251 129 120 195"/>
<path stroke-width="1" stroke="black" d="M 251 129 254 182"/>
<path stroke-width="1" stroke="black" d="M 251 129 169 241"/>
<path stroke-width="1" stroke="black" d="M 251 129 105 166"/>
<path stroke-width="1" stroke="black" d="M 251 129 273 191"/>
<path stroke-width="1" stroke="black" d="M 140 20 164 78"/>
<path stroke-width="1" stroke="black" d="M 164 78 134 229"/>
<path stroke-width="1" stroke="black" d="M 164 78 218 124"/>
<path stroke-width="1" stroke="black" d="M 164 78 202 238"/>
<path stroke-width="1" stroke="black" d="M 251 129 123 132"/>
<path stroke-width="1" stroke="black" d="M 218 200 251 129"/>
<path stroke-width="1" stroke="black" d="M 254 182 202 238"/>
<path stroke-width="1" stroke="black" d="M 254 182 202 81"/>
<path stroke-width="1" stroke="black" d="M 105 166 159 171"/>
<path stroke-width="1" stroke="black" d="M 105 166 202 81"/>
<path stroke-width="1" stroke="black" d="M 105 166 165 115"/>
<path stroke-width="1" stroke="black" d="M 105 166 123 132"/>
<path stroke-width="1" stroke="black" d="M 105 166 218 200"/>
<path stroke-width="1" stroke="black" d="M 105 166 251 129"/>
<path stroke-width="1" stroke="black" d="M 105 166 164 78"/>
<path stroke-width="1" stroke="black" d="M 105 166 120 195"/>
<path stroke-width="1" stroke="black" d="M 105 166 254 182"/>
<path stroke-width="1" stroke="black" d="M 105 166 169 241"/>
<path stroke-width="1" stroke="black" d="M 105 166 20 169"/>
<path stroke-width="1" stroke="black" d="M 105 166 273 191"/>
<path stroke-width="1" stroke="black" d="M 105 166 202 238"/>
<path stroke-width="1" stroke="black" d="M 420 228 273 191"/>
<path stroke-width="1" stroke="black" d="M 273 191 218 124"/>
<path stroke-width="1" stroke="black" d="M 273 191 202 238"/>
<path stroke-width="1" stroke="black" d="M 273 191 159 171"/>
<path stroke-width="1" stroke="black" d="M 273 191 202 81"/>
<path stroke-width="1" stroke="black" d="M 273 191 165 115"/>
<path stroke-width="1" stroke="black" d="M 273 191 123 132"/>
<path stroke-width="1" stroke="black" d="M 273 191 218 200"/>
<path stroke-width="1" stroke="black" d="M 273 191 251 129"/>
<path stroke-width="1" stroke="black" d="M 273 191 164 78"/>
<path stroke-width="1" stroke="black" d="M 273 191 120 195"/>
<path stroke-width="1" stroke="black" d="M 273 191 254 182"/>
<path stroke-width="1" stroke="black" d="M 273 191 169 241"/>
<path stroke-width="1" stroke="black" d="M 273 191 134 229"/>
<path stroke-width="1" stroke="black" d="M 254 182 159 171"/>
<path stroke-width="1" stroke="black" d="M 105 166 218 124"/>
<path stroke-width="1" stroke="black" d="M 20 169 105 166"/>
<path stroke-width="1" stroke="black" d="M 254 182 165 115"/>
<path stroke-width="1" stroke="black" d="M 254 182 123 132"/>
<path stroke-width="1" stroke="black" d="M 254 182 218 200"/>
<path stroke-width="1" stroke="black" d="M 254 182 251 129"/>
<path stroke-width="1" stroke="black" d="M 254 182 164 78"/>
<path stroke-width="1" stroke="black" d="M 254 182 120 195"/>
<path stroke-width="1" stroke="black" d="M 254 182 320 197"/>
<path stroke-width="1" stroke="black" d="M 254 182 169 241"/>
<path stroke-width="1" stroke="black" d="M 254 182 105 166"/>
<path stroke-width="1" stroke="black" d="M 254 182 273 191"/>
<path stroke-width="1" stroke="black" d="M 150 320 169 241"/>
<path stroke-width="1" stroke="black" d="M 169 241 134 229"/>
<path stroke-width="1" stroke="black" d="M 105 166 134 229"/>
<path stroke-width="1" stroke="black" d="M 169 241 218 124"/>
<path stroke-width="1" stroke="black" d="M 169 241 159 171"/>
<path stroke-width="1" stroke="black" d="M 169 241 202 81"/>
<path stroke-width="1" stroke="black" d="M 169 241 165 115"/>
<path stroke-width="1" stroke="black" d="M 169 241 123 132"/>
<path stroke-width="1" stroke="black" d="M 169 241 218 200"/>
<path stroke-width="1" stroke="black" d="M 169 241 251 129"/>
<path stroke-width="1" stroke="black" d="M 169 241 164 78"/>
<path stroke-width="1" stroke="black" d="M 169 241 120 195"/>
<path stroke-width="1" stroke="black" d="M 169 241 254 182"/>
<path stroke-width="1" stroke="black" d="M 169 241 150 320"/>
<path stroke-width="1" stroke="black" d="M 169 241 105 166"/>
<path stroke-width="1" stroke="black" d="M 169 241 273 191"/>
<path stroke-width="1" stroke="black" d="M 169 241 202 238"/>
<path stroke-width="1" stroke="black" d="M 218 200 253 235"/>
<path stroke-width="1" stroke="black" d="M 218 200 123 132"/>
<path stroke-width="1" stroke="black" d="M 218 200 165 115"/>
<path stroke-width="1" stroke="black" d="M 218 124 273 191"/>
<path stroke-width="1" stroke="black" d="M 219 284 202 238"/>
<path stroke-width="1" stroke="black" d="M 202 238 134 229"/>
<path stroke-width="1" stroke="black" d="M 202 238 218 124"/>
<path stroke-width="1" stroke="black" d="M 202 238 219 284"/>
<path stroke-width="1" stroke="black" d="M 202 238 159 171"/>
<path stroke-width="1" stroke="black" d="M 202 238 202 81"/>
<path stroke-width="1" stroke="black" d="M 202 238 165 115"/>
<path stroke-width="1" stroke="black" d="M 202 238 123 132"/>
<path stroke-width="1" stroke="black" d="M 202 238 218 200"/>
<path stroke-width="1" stroke="black" d="M 202 238 251 129"/>
<path stroke-width="1" stroke="black" d="M 202 238 164 78"/>
<path stroke-width="1" stroke="black" d="M 218 124 105 166"/>
<path stroke-width="1" stroke="black" d="M 202 238 120 195"/>
<path stroke-width="1" stroke="black" d="M 202 238 169 241"/>
<path stroke-width="1" stroke="black" d="M 202 238 105 166"/>
<path stroke-width="1" stroke="black" d="M 202 238 273 191"/>
<path stroke-width="1" stroke="black" d="M 179 173 159 171"/>
<path stroke-width="1" stroke="black" d="M 159 171 134 229"/>
<path stroke-width="1" stroke="black" d="M 159 171 218 124"/>
<path stroke-width="1" stroke="black" d="M 159 171 202 238"/>
<path stroke-width="1" stroke="black" d="M 159 171 179 173"/>
<path stroke-width="1" stroke="black" d="M 159 171 202 81"/>
<path stroke-width="1" stroke="black" d="M 159 171 165 115"/>
<path stroke-width="1" stroke="black" d="M 159 171 123 132"/>
<path stroke-width="1" stroke="black" d="M 159 171 218 200"/>
<path stroke-width="1" stroke="black" d="M 202 238 254 182"/>
<path stroke-width="1" stroke="black" d="M 159 171 251 129"/>
<path stroke-width="1" stroke="black" d="M 218 124 169 241"/>
<path stroke-width="1" stroke="black" d="M 218 124 120 195"/>
<path stroke-width="1" stroke="black" d="M 134 229 111 263"/>
<path stroke-width="1" stroke="black" d="M 134 229 218 124"/>
<path stroke-width="1" stroke="black" d="M 134 229 202 238"/>
<path stroke-width="1" stroke="black" d="M 134 229 159 171"/>
<path stroke-width="1" stroke="black" d="M 134 229 202 81"/>
<path stroke-width="1" stroke="black" d="M 134 229 165 115"/>
<path stroke-width="1" stroke="black" d="M 134 229 123 132"/>
<path stroke-width="1" stroke="black" d="M 134 229 218 200"/>
<path stroke-width="1" stroke="black" d="M 134 229 251 129"/>
<path stroke-width="1" stroke="black" d="M 134 229 164 78"/>
<path stroke-width="1" stroke="black" d="M 134 229 120 195"/>
<path stroke-width="1" stroke="black" d="M 134 229 254 182"/>
<path stroke-width="1" stroke="black" d="M 218 124 254 182"/>
<path stroke-width="1" stroke="black" d="M 134 229 169 241"/>
<path stroke-width="1" stroke="black" d="M 134 229 273 191"/>
<path stroke-width="1" stroke="black" d="M 243 91 218 124"/>
<path stroke-width="1" stroke="black" d="M 218 124 134 229"/>
<path stroke-width="1" stroke="black" d="M 218 124 243 91"/>
<path stroke-width="1" stroke="black" d="M 218 124 202 238"/>
<path stroke-width="1" stroke="black" d="M 218 124 159 171"/>
<path stroke-width="1" stroke="black" d="M 218 124 202 81"/>
<path stroke-width="1" stroke="black" d="M 218 124 165 115"/>
<path stroke-width="1" stroke="black" d="M 218 124 123 132"/>
<path stroke-width="1" stroke="black" d="M 218 124 218 200"/>
<path stroke-width="1" stroke="black" d="M 218 124 251 129"/>
<path stroke-width="1" stroke="black" d="M 218 124 164 78"/>
<path stroke-width="1" stroke="black" d="M 134 229 105 166"/>
<path stroke-width="1" stroke="black" d="M 159 171 164 78"/>
<path stroke-width="1" stroke="black" d="M 159 171 120 195"/>
<path stroke-width="1" stroke="black" d="M 159 171 254 182"/>
<path stroke-width="1" stroke="black" d="M 165 115 254 182"/>
<path stroke-width="1" stroke="black" d="M 165 115 169 241"/>
<path stroke-width="1" stroke="black" d="M 165 115 105 166"/>
<path stroke-width="1" stroke="black" d="M 165 115 273 191"/>
<path stroke-width="1" stroke="black" d="M 80 107 123 132"/>
<path stroke-width="1" stroke="black" d="M 123 132 134 229"/>
<path stroke-width="1" stroke="black" d="M 123 132 218 124"/>
<path stroke-width="1" stroke="black" d="M 123 132 202 238"/>
<path stroke-width="1" stroke="black" d="M 123 132 159 171"/>
<path stroke-width="1" stroke="black" d="M 123 132 202 81"/>
<path stroke-width="1" stroke="black" d="M 123 132 165 115"/>
<path stroke-width="1" stroke="black" d="M 123 132 80 107"/>
<path stroke-width="1" stroke="black" d="M 165 115 120 195"/>
<path stroke-width="1" stroke="black" d="M 123 132 218 200"/>
<path stroke-width="1" stroke="black" d="M 123 132 164 78"/>
<path stroke-width="1" stroke="black" d="M 123 132 120 195"/>
<path stroke-width="1" stroke="black" d="M 123 132 254 182"/>
<path stroke-width="1" stroke="black" d="M 123 132 169 241"/>
<path stroke-width="1" stroke="black" d="M 123 132 105 166"/>
<path stroke-width="1" stroke="black" d="M 123 132 273 191"/>
<path stroke-width="1" stroke="black" d="M 253 235 218 200"/>
<path stroke-width="1" stroke="black" d="M 218 200 134 229"/>
<path stroke-width="1" stroke="black" d="M 218 200 218 124"/>
<path stroke-width="1" stroke="black" d="M 218 200 202 238"/>
<path stroke-width="1" stroke="black" d="M 218 200 159 171"/>
<path stroke-width="1" stroke="black" d="M 218 200 202 81"/>
<path stroke-width="1" stroke="black" d="M 123 132 251 129"/>
<path stroke-width="1" stroke="black" d="M 165 115 164 78"/>
<path stroke-width="1" stroke="black" d="M 165 115 251 129"/>
<path stroke-width="1" stroke="black" d="M 165 115 218 200"/>
<path stroke-width="1" stroke="black" d="M 159 171 169 241"/>
<path stroke-width="1" stroke="black" d="M 159 171 105 166"/>
<path stroke-width="1" stroke="black" d="M 159 171 273 191"/>
<path stroke-width="1" stroke="black" d="M 214 29 202 81"/>
<path stroke-width="1" stroke="black" d="M 202 81 134 229"/>
<path stroke-width="1" stroke="black" d="M 202 81 218 124"/>
<path stroke-width="1" stroke="black" d="M 202 81 202 238"/>
<path stroke-width="1" stroke="black" d="M 202 81 159 171"/>
<path stroke-width="1" stroke="black" d="M 202 81 214 29"/>
<path stroke-width="1" stroke="black" d="M 202 81 165 115"/>
<path stroke-width="1" stroke="black" d="M 202 81 123 132"/>
<path stroke-width="1" stroke="black" d="M 202 81 218 200"/>
<path stroke-width="1" stroke="black" d="M 202 81 251 129"/>
<path stroke-width="1" stroke="black" d="M 202 81 164 78"/>
<path stroke-width="1" stroke="black" d="M 202 81 120 195"/>
<path stroke-width="1" stroke="black" d="M 202 81 254 182"/>
<path stroke-width="1" stroke="black" d="M 202 81 169 241"/>
<path stroke-width="1" stroke="black" d="M 202 81 105 166"/>
<path stroke-width="1" stroke="black" d="M 202 81 273 191"/>
<path stroke-width="1" stroke="black" d="M 129 79 165 115"/>
<path stroke-width="1" stroke="black" d="M 165 115 134 229"/>
<path stroke-width="1" stroke="black" d="M 165 115 218 124"/>
<path stroke-width="1" stroke="black" d="M 165 115 202 238"/>
<path stroke-width="1" stroke="black" d="M 165 115 159 171"/>
<path stroke-width="1" stroke="black" d="M 165 115 202 81"/>
<path stroke-width="1" stroke="black" d="M 165 115 129 79"/>
<path stroke-width="1" stroke="black" d="M 165 115 123 132"/>
<path stroke-width="1" stroke="black" d="M 273 191 105 166"/>
<path stroke-width="1" stroke="black" d="M 273 191 420 228"/>
<circle cx="111" cy="263" r="7.0" style="fill:purple;stroke:black;stroke-width:1.0"/>
<circle cx="134" cy="229" r="7.0" style="fill:purple;stroke:black;stroke-width:1.0"/>
<circle cx="243" cy="91" r="7.0" style="fill:fuchsia;stroke:black;stroke-width:1.0"/>
<circle cx="218" cy="124" r="7.0" style="fill:fuchsia;stroke:black;stroke-width:1.0"/>
<circle cx="219" cy="284" r="7.0" style="fill:green;stroke:black;stroke-width:1.0"/>
<circle cx="202" cy="238" r="7.0" style="fill:green;stroke:black;stroke-width:1.0"/>
<circle cx="179" cy="173" r="7.0" style="fill:yellow;stroke:black;stroke-width:1.0"/>
<circle cx="159" cy="171" r="7.0" style="fill:yellow;stroke:black;stroke-width:1.0"/>
<circle cx="214" cy="29" r="7.0" style="fill:red;stroke:black;stroke-width:1.0"/>
<circle cx="202" cy="81" r="7.0" style="fill:red;stroke:black;stroke-width:1.0"/>
<circle cx="129" cy="79" r="7.0" style="fill:blue;stroke:black;stroke-width:1.0"/>
<circle cx="165" cy="115" r="7.0" style="fill:blue;stroke:black;stroke-width:1.0"/>
<circle cx="80" cy="107" r="7.0" style="fill:orange;stroke:black;stroke-width:1.0"/>
<circle cx="123" cy="132" r="7.0" style="fill:orange;stroke:black;stroke-width:1.0"/>
<circle cx="253" cy="235" r="7.0" style="fill:orange;stroke:black;stroke-width:1.0"/>
<circle cx="218" cy="200" r="7.0" style="fill:orange;stroke:black;stroke-width:1.0"/>
<circle cx="297" cy="103" r="7.0" style="fill:yellow;stroke:black;stroke-width:1.0"/>
<circle cx="251" cy="129" r="7.0" style="fill:blue;stroke:black;stroke-width:1.0"/>
<circle cx="140" cy="20" r="7.0" style="fill:red;stroke:black;stroke-width:1.0"/>
<circle cx="164" cy="78" r="7.0" style="fill:red;stroke:black;stroke-width:1.0"/>
<circle cx="61" cy="217" r="7.0" style="fill:yellow;stroke:black;stroke-width:1.0"/>
<circle cx="120" cy="195" r="7.0" style="fill:yellow;stroke:black;stroke-width:1.0"/>
<circle cx="320" cy="197" r="7.0" style="fill:green;stroke:black;stroke-width:1.0"/>
<circle cx="254" cy="182" r="7.0" style="fill:green;stroke:black;stroke-width:1.0"/>
<circle cx="150" cy="320" r="7.0" style="fill:yellow;stroke:black;stroke-width:1.0"/>
<circle cx="169" cy="241" r="7.0" style="fill:yellow;stroke:black;stroke-width:1.0"/>
<circle cx="20" cy="169" r="7.0" style="fill:yellow;stroke:black;stroke-width:1.0"/>
<circle cx="105" cy="166" r="7.0" style="fill:yellow;stroke:black;stroke-width:1.0"/>
<circle cx="420" cy="228" r="7.0" style="fill:yellow;stroke:black;stroke-width:1.0"/>
<circle cx="273" cy="191" r="7.0" style="fill:yellow;stroke:black;stroke-width:1.0"/>
</svg>
