<svg width="440" height="340" xmlns="http://www.w3.org/2000/svg">
<path stroke-width="1" stroke="black" d="M 420 320 413 268"/>
<path stroke-width="1" stroke="black" d="M 68 156 40 208"/>
<path stroke-width="1" stroke="black" d="M 68 156 103 100"/>
<path stroke-width="1" stroke="black" d="M 103 100 68 156"/>
<path stroke-width="1" stroke="black" d="M 103 100 147 58"/>
<path stroke-width="1" stroke="black" d="M 147 58 103 100"/>
<path stroke-width="1" stroke="black" d="M 147 58 198 25"/>
<path stroke-width="1" stroke="black" d="M 198 25 147 58"/>
<path stroke-width="1" stroke="black" d="M 198 25 253 20"/>
<path stroke-width="1" stroke="black" d="M 253 20 198 25"/>
<path stroke-width="1" stroke="black" d="M 253 20 306 43"/>
<path stroke-width="1" stroke="black" d="M 306 43 253 20"/>
<path stroke-width="1" stroke="black" d="M 306 43 350 82"/>
<path stroke-width="1" stroke="black" d="M 350 82 306 43"/>
<path stroke-width="1" stroke="black" d="M 350 82 380 144"/>
<path stroke-width="1" stroke="black" d="M 380 144 350 82"/>
<path stroke-width="1" stroke="black" d="M 380 144 401 203"/>
<path stroke-width="1" stroke="black" d="M 401 203 380 144"/>
<path stroke-width="1" stroke="black" d="M 401 203 413 268"/>
<path stroke-width="1" stroke="black" d="M 413 268 401 203"/>
<path stroke-width="1" stroke="black" d="M 413 268 420 320"/>
<path stroke-width="1" stroke="black" d="M 20 256 40 208"/>
<path stroke-width="1" stroke="black" d="M 40 208 20 256"/>
<path stroke-width="1" stroke="black" d="M 40 208 68 156"/>
<circle cx="420" cy="320" r="7.0" style="fill:gray;stroke:black;stroke-width:1.0"/>
<circle cx="20" cy="256" r="7.0" style="fill:gray;stroke:black;stroke-width:1.0"/>
<circle cx="413" cy="268" r="7.0" style="fill:gray;stroke:black;stroke-width:1.0"/>
<circle cx="401" cy="203" r="7.0" style="fill:gray;stroke:black;stroke-width:1.0"/>
<circle cx="380" cy="144" r="7.0" style="fill:gray;stroke:black;stroke-width:1.0"/>
<circle cx="350" cy="82" r="7.0" style="fill:gray;stroke:black;stroke-width:1.0"/>
<circle cx="306" cy="43" r="7.0" style="fill:gray;stroke:black;stroke-width:1.0"/>
<circle cx="253" cy="20" r="7.0" style="fill:gray;stroke:black;stroke-width:1.0"/>
<circle cx="198" cy="25" r="7.0" style="fill:gray;stroke:black;stroke-width:1.0"/>
<circle cx="147" cy="58" r="7.0" style="fill:gray;stroke:black;stroke-width:1.0"/>
<circle cx="103" cy="100" r="7.0" style="fill:gray;stroke:black;stroke-width:1.0"/>
<circle cx="68" cy="156" r="7.0" style="fill:gray;stroke:black;stroke-width:1.0"/>
<circle cx="40" cy="208" r="7.0" style="fill:gray;stroke:black;stroke-width:1.0"/>
</svg>
