<svg width="440" height="340" xmlns="http://www.w3.org/2000/svg">
<path stroke-width="1" stroke="black" d="M 20 209 51 239"/>
<path stroke-width="1" stroke="black" d="M 420 99 419 56"/>
<path stroke-width="1" stroke="black" d="M 420 99 416 149"/>
<path stroke-width="1" stroke="black" d="M 416 149 420 99"/>
<path stroke-width="1" stroke="black" d="M 416 149 405 194"/>
<path stroke-width="1" stroke="black" d="M 405 194 416 149"/>
<path stroke-width="1" stroke="black" d="M 405 194 384 245"/>
<path stroke-width="1" stroke="black" d="M 384 245 405 194"/>
<path stroke-width="1" stroke="black" d="M 384 245 343 282"/>
<path stroke-width="1" stroke="black" d="M 343 282 384 245"/>
<path stroke-width="1" stroke="black" d="M 343 282 286 315"/>
<path stroke-width="1" stroke="black" d="M 286 315 343 282"/>
<path stroke-width="1" stroke="black" d="M 286 315 217 320"/>
<path stroke-width="1" stroke="black" d="M 217 320 286 315"/>
<path stroke-width="1" stroke="black" d="M 217 320 148 301"/>
<path stroke-width="1" stroke="black" d="M 148 301 217 320"/>
<path stroke-width="1" stroke="black" d="M 148 301 92 274"/>
<path stroke-width="1" stroke="black" d="M 92 274 148 301"/>
<path stroke-width="1" stroke="black" d="M 92 274 51 239"/>
<path stroke-width="1" stroke="black" d="M 51 239 92 274"/>
<path stroke-width="1" stroke="black" d="M 51 239 20 209"/>
<path stroke-width="1" stroke="black" d="M 417 20 419 56"/>
<path stroke-width="1" stroke="black" d="M 419 56 417 20"/>
<path stroke-width="1" stroke="black" d="M 419 56 420 99"/>
<circle cx="20" cy="209" r="20.0" style="fill:gray;stroke:black;stroke-width:1.0"/>
<circle cx="417" cy="20" r="20.0" style="fill:gray;stroke:black;stroke-width:1.0"/>
<circle cx="51" cy="239" r="20.0" style="fill:gray;stroke:black;stroke-width:1.0"/>
<circle cx="92" cy="274" r="20.0" style="fill:gray;stroke:black;stroke-width:1.0"/>
<circle cx="148" cy="301" r="20.0" style="fill:gray;stroke:black;stroke-width:1.0"/>
<circle cx="217" cy="320" r="20.0" style="fill:gray;stroke:black;stroke-width:1.0"/>
<circle cx="286" cy="315" r="20.0" style="fill:gray;stroke:black;stroke-width:1.0"/>
<circle cx="343" cy="282" r="20.0" style="fill:gray;stroke:black;stroke-width:1.0"/>
<circle cx="384" cy="245" r="20.0" style="fill:gray;stroke:black;stroke-width:1.0"/>
<circle cx="405" cy="194" r="20.0" style="fill:gray;stroke:black;stroke-width:1.0"/>
<circle cx="416" cy="149" r="20.0" style="fill:gray;stroke:black;stroke-width:1.0"/>
<circle cx="420" cy="99" r="20.0" style="fill:gray;stroke:black;stroke-width:1.0"/>
<circle cx="419" cy="56" r="20.0" style="fill:gray;stroke:black;stroke-width:1.0"/>
</svg>
