<svg width="440" height="340" xmlns="http://www.w3.org/2000/svg">
<path stroke-width="1" stroke="black" d="M 247 320 403 300"/>
<path stroke-width="1" stroke="black" d="M 20 62 96 39"/>
<path stroke-width="1" stroke="black" d="M 20 62 68 88"/>
<path stroke-width="1" stroke="black" d="M 68 88 20 62"/>
<path stroke-width="1" stroke="black" d="M 68 88 51 114"/>
<path stroke-width="1" stroke="black" d="M 51 114 68 88"/>
<path stroke-width="1" stroke="black" d="M 51 114 121 142"/>
<path stroke-width="1" stroke="black" d="M 121 142 51 114"/>
<path stroke-width="1" stroke="black" d="M 121 142 151 168"/>
<path stroke-width="1" stroke="black" d="M 151 168 121 142"/>
<path stroke-width="1" stroke="black" d="M 151 168 352 197"/>
<path stroke-width="1" stroke="black" d="M 352 197 151 168"/>
<path stroke-width="1" stroke="black" d="M 352 197 420 223"/>
<path stroke-width="1" stroke="black" d="M 420 223 352 197"/>
<path stroke-width="1" stroke="black" d="M 420 223 383 251"/>
<path stroke-width="1" stroke="black" d="M 383 251 420 223"/>
<path stroke-width="1" stroke="black" d="M 383 251 325 276"/>
<path stroke-width="1" stroke="black" d="M 325 276 383 251"/>
<path stroke-width="1" stroke="black" d="M 325 276 403 300"/>
<path stroke-width="1" stroke="black" d="M 403 300 325 276"/>
<path stroke-width="1" stroke="black" d="M 403 300 247 320"/>
<path stroke-width="1" stroke="black" d="M 168 20 96 39"/>
<path stroke-width="1" stroke="black" d="M 96 39 168 20"/>
<path stroke-width="1" stroke="black" d="M 96 39 20 62"/>
<circle cx="247" cy="320" r="7.0" style="fill:red;stroke:black;stroke-width:1.0"/>
<circle cx="168" cy="20" r="7.0" style="fill:blue;stroke:black;stroke-width:1.0"/>
<circle cx="403" cy="300" r="7.0" style="fill:red;stroke:black;stroke-width:1.0"/>
<circle cx="325" cy="276" r="7.0" style="fill:red;stroke:black;stroke-width:1.0"/>
<circle cx="383" cy="251" r="7.0" style="fill:red;stroke:black;stroke-width:1.0"/>
<circle cx="420" cy="223" r="7.0" style="fill:green;stroke:black;stroke-width:1.0"/>
<circle cx="352" cy="197" r="7.0" style="fill:green;stroke:black;stroke-width:1.0"/>
<circle cx="151" cy="168" r="7.0" style="fill:green;stroke:black;stroke-width:1.0"/>
<circle cx="121" cy="142" r="7.0" style="fill:green;stroke:black;stroke-width:1.0"/>
<circle cx="51" cy="114" r="7.0" style="fill:blue;stroke:black;stroke-width:1.0"/>
<circle cx="68" cy="88" r="7.0" style="fill:blue;stroke:black;stroke-width:1.0"/>
<circle cx="20" cy="62" r="7.0" style="fill:blue;stroke:black;stroke-width:1.0"/>
<circle cx="96" cy="39" r="7.0" style="fill:blue;stroke:black;stroke-width:1.0"/>
</svg>
