<svg width="440" height="340" xmlns="http://www.w3.org/2000/svg">
<path stroke-width="1" stroke="black" d="M 20 20 80 38"/>
<path stroke-width="1" stroke="black" d="M 341 279 285 302"/>
<path stroke-width="1" stroke="black" d="M 341 279 387 252"/>
<path stroke-width="1" stroke="black" d="M 387 252 341 279"/>
<path stroke-width="1" stroke="black" d="M 387 252 414 223"/>
<path stroke-width="1" stroke="black" d="M 414 223 387 252"/>
<path stroke-width="1" stroke="black" d="M 414 223 420 192"/>
<path stroke-width="1" stroke="black" d="M 420 192 414 223"/>
<path stroke-width="1" stroke="black" d="M 420 192 405 162"/>
<path stroke-width="1" stroke="black" d="M 405 162 420 192"/>
<path stroke-width="1" stroke="black" d="M 405 162 360 132"/>
<path stroke-width="1" stroke="black" d="M 360 132 405 162"/>
<path stroke-width="1" stroke="black" d="M 360 132 300 105"/>
<path stroke-width="1" stroke="black" d="M 300 105 360 132"/>
<path stroke-width="1" stroke="black" d="M 300 105 226 82"/>
<path stroke-width="1" stroke="black" d="M 226 82 300 105"/>
<path stroke-width="1" stroke="black" d="M 226 82 156 58"/>
<path stroke-width="1" stroke="black" d="M 156 58 226 82"/>
<path stroke-width="1" stroke="black" d="M 156 58 80 38"/>
<path stroke-width="1" stroke="black" d="M 80 38 156 58"/>
<path stroke-width="1" stroke="black" d="M 80 38 20 20"/>
<path stroke-width="1" stroke="black" d="M 229 320 285 302"/>
<path stroke-width="1" stroke="black" d="M 285 302 229 320"/>
<path stroke-width="1" stroke="black" d="M 285 302 341 279"/>
<circle cx="20" cy="20" r="7.0" style="fill:red;stroke:black;stroke-width:1.0"/>
<circle cx="229" cy="320" r="7.0" style="fill:blue;stroke:black;stroke-width:1.0"/>
<circle cx="80" cy="38" r="7.0" style="fill:red;stroke:black;stroke-width:1.0"/>
<circle cx="156" cy="58" r="7.0" style="fill:red;stroke:black;stroke-width:1.0"/>
<circle cx="226" cy="82" r="7.0" style="fill:red;stroke:black;stroke-width:1.0"/>
<circle cx="300" cy="105" r="7.0" style="fill:green;stroke:black;stroke-width:1.0"/>
<circle cx="360" cy="132" r="7.0" style="fill:green;stroke:black;stroke-width:1.0"/>
<circle cx="405" cy="162" r="7.0" style="fill:green;stroke:black;stroke-width:1.0"/>
<circle cx="420" cy="192" r="7.0" style="fill:green;stroke:black;stroke-width:1.0"/>
<circle cx="414" cy="223" r="7.0" style="fill:blue;stroke:black;stroke-width:1.0"/>
<circle cx="387" cy="252" r="7.0" style="fill:blue;stroke:black;stroke-width:1.0"/>
<circle cx="341" cy="279" r="7.0" style="fill:blue;stroke:black;stroke-width:1.0"/>
<circle cx="285" cy="302" r="7.0" style="fill:blue;stroke:black;stroke-width:1.0"/>
</svg>
