<svg width="440" height="340" xmlns="http://www.w3.org/2000/svg">
<path stroke-width="1" stroke="black" d="M 420 320 413 299"/>
<path stroke-width="1" stroke="black" d="M 204 53 132 30"/>
<path stroke-width="1" stroke="black" d="M 204 53 273 73"/>
<path stroke-width="1" stroke="black" d="M 273 73 204 53"/>
<path stroke-width="1" stroke="black" d="M 273 73 314 103"/>
<path stroke-width="1" stroke="black" d="M 314 103 273 73"/>
<path stroke-width="1" stroke="black" d="M 314 103 345 128"/>
<path stroke-width="1" stroke="black" d="M 345 128 314 103"/>
<path stroke-width="1" stroke="black" d="M 345 128 365 160"/>
<path stroke-width="1" stroke="black" d="M 365 160 345 128"/>
<path stroke-width="1" stroke="black" d="M 365 160 378 187"/>
<path stroke-width="1" stroke="black" d="M 378 187 365 160"/>
<path stroke-width="1" stroke="black" d="M 378 187 388 218"/>
<path stroke-width="1" stroke="black" d="M 388 218 378 187"/>
<path stroke-width="1" stroke="black" d="M 388 218 397 246"/>
<path stroke-width="1" stroke="black" d="M 397 246 388 218"/>
<path stroke-width="1" stroke="black" d="M 397 246 405 274"/>
<path stroke-width="1" stroke="black" d="M 405 274 397 246"/>
<path stroke-width="1" stroke="black" d="M 405 274 413 299"/>
<path stroke-width="1" stroke="black" d="M 413 299 405 274"/>
<path stroke-width="1" stroke="black" d="M 413 299 420 320"/>
<path stroke-width="1" stroke="black" d="M 20 20 132 30"/>
<path stroke-width="1" stroke="black" d="M 132 30 20 20"/>
<path stroke-width="1" stroke="black" d="M 132 30 204 53"/>
<circle cx="420" cy="320" r="20.0" style="fill:red;stroke:black;stroke-width:1.0"/>
<circle cx="20" cy="20" r="20.0" style="fill:blue;stroke:black;stroke-width:1.0"/>
<circle cx="413" cy="299" r="20.0" style="fill:red;stroke:black;stroke-width:1.0"/>
<circle cx="405" cy="274" r="20.0" style="fill:red;stroke:black;stroke-width:1.0"/>
<circle cx="397" cy="246" r="20.0" style="fill:red;stroke:black;stroke-width:1.0"/>
<circle cx="388" cy="218" r="20.0" style="fill:green;stroke:black;stroke-width:1.0"/>
<circle cx="378" cy="187" r="20.0" style="fill:green;stroke:black;stroke-width:1.0"/>
<circle cx="365" cy="160" r="20.0" style="fill:green;stroke:black;stroke-width:1.0"/>
<circle cx="345" cy="128" r="20.0" style="fill:green;stroke:black;stroke-width:1.0"/>
<circle cx="314" cy="103" r="20.0" style="fill:blue;stroke:black;stroke-width:1.0"/>
<circle cx="273" cy="73" r="20.0" style="fill:blue;stroke:black;stroke-width:1.0"/>
<circle cx="204" cy="53" r="20.0" style="fill:blue;stroke:black;stroke-width:1.0"/>
<circle cx="132" cy="30" r="20.0" style="fill:blue;stroke:black;stroke-width:1.0"/>
</svg>
