<svg width="440" height="340" xmlns="http://www.w3.org/2000/svg">
<path stroke-width="1" stroke="black" d="M 81 58 279 20"/>
<path stroke-width="1" stroke="black" d="M 81 58 20 180"/>
<path stroke-width="1" stroke="black" d="M 282 320 118 299"/>
<path stroke-width="1" stroke="black" d="M 282 320 420 237"/>
<path stroke-width="1" stroke="black" d="M 279 20 81 58"/>
<path stroke-width="1" stroke="black" d="M 279 20 393 95"/>
<path stroke-width="1" stroke="black" d="M 393 95 279 20"/>
<path stroke-width="1" stroke="black" d="M 393 95 420 237"/>
<path stroke-width="1" stroke="black" d="M 20 180 81 58"/>
<path stroke-width="1" stroke="black" d="M 20 180 118 299"/>
<path stroke-width="1" stroke="black" d="M 118 299 282 320"/>
<path stroke-width="1" stroke="black" d="M 118 299 20 180"/>
<path stroke-width="1" stroke="black" d="M 420 237 282 320"/>
<path stroke-width="1" stroke="black" d="M 420 237 393 95"/>
<circle cx="81" cy="58" r="7.0" style="fill:gray;stroke:black;stroke-width:1.0"/>
<circle cx="282" cy="320" r="7.0" style="fill:gray;stroke:black;stroke-width:1.0"/>
<circle cx="279" cy="20" r="7.0" style="fill:gray;stroke:black;stroke-width:1.0"/>
<circle cx="393" cy="95" r="7.0" style="fill:gray;stroke:black;stroke-width:1.0"/>
<circle cx="20" cy="180" r="7.0" style="fill:gray;stroke:black;stroke-width:1.0"/>
<circle cx="118" cy="299" r="7.0" style="fill:gray;stroke:black;stroke-width:1.0"/>
<circle cx="420" cy="237" r="7.0" style="fill:gray;stroke:black;stroke-width:1.0"/>
</svg>
