<svg width="440" height="340" xmlns="http://www.w3.org/2000/svg">
<path stroke-width="1" stroke="black" d="M 388 320 381 311"/>
<path stroke-width="1" stroke="black" d="M 31 171 69 155"/>
<path stroke-width="1" stroke="black" d="M 20 172 31 171"/>
<path stroke-width="1" stroke="black" d="M 69 155 31 171"/>
<path stroke-width="1" stroke="black" d="M 69 155 58 158"/>
<path stroke-width="1" stroke="black" d="M 69 155 126 137"/>
<path stroke-width="1" stroke="black" d="M 58 158 69 155"/>
<path stroke-width="1" stroke="black" d="M 126 137 69 155"/>
<path stroke-width="1" stroke="black" d="M 126 137 119 142"/>
<path stroke-width="1" stroke="black" d="M 126 137 189 114"/>
<path stroke-width="1" stroke="black" d="M 119 142 126 137"/>
<path stroke-width="1" stroke="black" d="M 189 114 126 137"/>
<path stroke-width="1" stroke="black" d="M 189 114 188 118"/>
<path stroke-width="1" stroke="black" d="M 31 171 20 172"/>
<path stroke-width="1" stroke="black" d="M 189 114 254 87"/>
<path stroke-width="1" stroke="black" d="M 254 87 189 114"/>
<path stroke-width="1" stroke="black" d="M 254 87 258 86"/>
<path stroke-width="1" stroke="black" d="M 254 87 316 61"/>
<path stroke-width="1" stroke="black" d="M 258 86 254 87"/>
<path stroke-width="1" stroke="black" d="M 316 61 254 87"/>
<path stroke-width="1" stroke="black" d="M 316 61 323 56"/>
<path stroke-width="1" stroke="black" d="M 316 61 370 38"/>
<path stroke-width="1" stroke="black" d="M 323 56 316 61"/>
<path stroke-width="1" stroke="black" d="M 370 38 316 61"/>
<path stroke-width="1" stroke="black" d="M 370 38 380 34"/>
<path stroke-width="1" stroke="black" d="M 370 38 407 23"/>
<path stroke-width="1" stroke="black" d="M 380 34 370 38"/>
<path stroke-width="1" stroke="black" d="M 188 118 189 114"/>
<path stroke-width="1" stroke="black" d="M 31 171 42 189"/>
<path stroke-width="1" stroke="black" d="M 34 186 42 189"/>
<path stroke-width="1" stroke="black" d="M 42 189 31 171"/>
<path stroke-width="1" stroke="black" d="M 206 192 210 197"/>
<path stroke-width="1" stroke="black" d="M 220 213 210 197"/>
<path stroke-width="1" stroke="black" d="M 220 213 216 211"/>
<path stroke-width="1" stroke="black" d="M 220 213 228 232"/>
<path stroke-width="1" stroke="black" d="M 216 211 220 213"/>
<path stroke-width="1" stroke="black" d="M 228 232 220 213"/>
<path stroke-width="1" stroke="black" d="M 228 232 237 232"/>
<path stroke-width="1" stroke="black" d="M 228 232 200 242"/>
<path stroke-width="1" stroke="black" d="M 237 232 228 232"/>
<path stroke-width="1" stroke="black" d="M 200 242 228 232"/>
<path stroke-width="1" stroke="black" d="M 200 242 207 246"/>
<path stroke-width="1" stroke="black" d="M 200 242 157 238"/>
<path stroke-width="1" stroke="black" d="M 207 246 200 242"/>
<path stroke-width="1" stroke="black" d="M 157 238 200 242"/>
<path stroke-width="1" stroke="black" d="M 157 238 159 243"/>
<path stroke-width="1" stroke="black" d="M 157 238 113 226"/>
<path stroke-width="1" stroke="black" d="M 159 243 157 238"/>
<path stroke-width="1" stroke="black" d="M 113 226 157 238"/>
<path stroke-width="1" stroke="black" d="M 113 226 110 230"/>
<path stroke-width="1" stroke="black" d="M 113 226 75 208"/>
<path stroke-width="1" stroke="black" d="M 110 230 113 226"/>
<path stroke-width="1" stroke="black" d="M 75 208 113 226"/>
<path stroke-width="1" stroke="black" d="M 75 208 71 205"/>
<path stroke-width="1" stroke="black" d="M 75 208 42 189"/>
<path stroke-width="1" stroke="black" d="M 71 205 75 208"/>
<path stroke-width="1" stroke="black" d="M 42 189 75 208"/>
<path stroke-width="1" stroke="black" d="M 42 189 34 186"/>
<path stroke-width="1" stroke="black" d="M 407 23 370 38"/>
<path stroke-width="1" stroke="black" d="M 407 23 420 20"/>
<path stroke-width="1" stroke="black" d="M 407 23 378 22"/>
<path stroke-width="1" stroke="black" d="M 420 20 407 23"/>
<path stroke-width="1" stroke="black" d="M 207 208 208 202"/>
<path stroke-width="1" stroke="black" d="M 208 227 208 202"/>
<path stroke-width="1" stroke="black" d="M 208 227 206 233"/>
<path stroke-width="1" stroke="black" d="M 208 227 230 227"/>
<path stroke-width="1" stroke="black" d="M 206 233 208 227"/>
<path stroke-width="1" stroke="black" d="M 230 227 208 227"/>
<path stroke-width="1" stroke="black" d="M 230 227 226 225"/>
<path stroke-width="1" stroke="black" d="M 230 227 258 228"/>
<path stroke-width="1" stroke="black" d="M 226 225 230 227"/>
<path stroke-width="1" stroke="black" d="M 258 228 230 227"/>
<path stroke-width="1" stroke="black" d="M 258 228 252 224"/>
<path stroke-width="1" stroke="black" d="M 258 228 294 242"/>
<path stroke-width="1" stroke="black" d="M 252 224 258 228"/>
<path stroke-width="1" stroke="black" d="M 294 242 258 228"/>
<path stroke-width="1" stroke="black" d="M 294 242 292 237"/>
<path stroke-width="1" stroke="black" d="M 294 242 330 264"/>
<path stroke-width="1" stroke="black" d="M 292 237 294 242"/>
<path stroke-width="1" stroke="black" d="M 330 264 294 242"/>
<path stroke-width="1" stroke="black" d="M 330 264 335 262"/>
<path stroke-width="1" stroke="black" d="M 330 264 359 290"/>
<path stroke-width="1" stroke="black" d="M 335 262 330 264"/>
<path stroke-width="1" stroke="black" d="M 359 290 330 264"/>
<path stroke-width="1" stroke="black" d="M 359 290 365 293"/>
<path stroke-width="1" stroke="black" d="M 359 290 381 311"/>
<path stroke-width="1" stroke="black" d="M 365 293 359 290"/>
<path stroke-width="1" stroke="black" d="M 381 311 359 290"/>
<path stroke-width="1" stroke="black" d="M 381 311 388 320"/>
<path stroke-width="1" stroke="black" d="M 208 202 208 227"/>
<path stroke-width="1" stroke="black" d="M 210 197 220 213"/>
<path stroke-width="1" stroke="black" d="M 208 202 207 208"/>
<path stroke-width="1" stroke="black" d="M 209 173 210 168"/>
<path stroke-width="1" stroke="black" d="M 378 22 407 23"/>
<path stroke-width="1" stroke="black" d="M 378 22 388 21"/>
<path stroke-width="1" stroke="black" d="M 378 22 329 28"/>
<path stroke-width="1" stroke="black" d="M 388 21 378 22"/>
<path stroke-width="1" stroke="black" d="M 329 28 378 22"/>
<path stroke-width="1" stroke="black" d="M 329 28 330 25"/>
<path stroke-width="1" stroke="black" d="M 329 28 278 38"/>
<path stroke-width="1" stroke="black" d="M 330 25 329 28"/>
<path stroke-width="1" stroke="black" d="M 278 38 329 28"/>
<path stroke-width="1" stroke="black" d="M 278 38 273 33"/>
<path stroke-width="1" stroke="black" d="M 278 38 237 59"/>
<path stroke-width="1" stroke="black" d="M 273 33 278 38"/>
<path stroke-width="1" stroke="black" d="M 237 59 278 38"/>
<path stroke-width="1" stroke="black" d="M 237 59 229 55"/>
<path stroke-width="1" stroke="black" d="M 237 59 218 93"/>
<path stroke-width="1" stroke="black" d="M 229 55 237 59"/>
<path stroke-width="1" stroke="black" d="M 218 93 237 59"/>
<path stroke-width="1" stroke="black" d="M 218 93 213 89"/>
<path stroke-width="1" stroke="black" d="M 218 93 212 131"/>
<path stroke-width="1" stroke="black" d="M 213 89 218 93"/>
<path stroke-width="1" stroke="black" d="M 212 131 218 93"/>
<path stroke-width="1" stroke="black" d="M 212 131 215 130"/>
<path stroke-width="1" stroke="black" d="M 212 131 210 168"/>
<path stroke-width="1" stroke="black" d="M 215 130 212 131"/>
<path stroke-width="1" stroke="black" d="M 210 168 212 131"/>
<path stroke-width="1" stroke="black" d="M 210 168 209 173"/>
<path stroke-width="1" stroke="black" d="M 210 168 208 202"/>
<path stroke-width="1" stroke="black" d="M 208 202 210 168"/>
<path stroke-width="1" stroke="black" d="M 210 197 206 192"/>
<circle cx="388" cy="320" r="7.0" style="fill:gray;stroke:black;stroke-width:1.0"/>
<circle cx="381" cy="311" r="7.0" style="fill:gray;stroke:black;stroke-width:1.0"/>
<circle cx="365" cy="293" r="7.0" style="fill:gray;stroke:black;stroke-width:1.0"/>
<circle cx="359" cy="290" r="7.0" style="fill:gray;stroke:black;stroke-width:1.0"/>
<circle cx="335" cy="262" r="7.0" style="fill:gray;stroke:black;stroke-width:1.0"/>
<circle cx="330" cy="264" r="7.0" style="fill:gray;stroke:black;stroke-width:1.0"/>
<circle cx="292" cy="237" r="7.0" style="fill:gray;stroke:black;stroke-width:1.0"/>
<circle cx="294" cy="242" r="7.0" style="fill:gray;stroke:black;stroke-width:1.0"/>
<circle cx="252" cy="224" r="7.0" style="fill:gray;stroke:black;stroke-width:1.0"/>
<circle cx="258" cy="228" r="7.0" style="fill:gray;stroke:black;stroke-width:1.0"/>
<circle cx="226" cy="225" r="7.0" style="fill:gray;stroke:black;stroke-width:1.0"/>
<circle cx="230" cy="227" r="7.0" style="fill:gray;stroke:black;stroke-width:1.0"/>
<circle cx="206" cy="233" r="7.0" style="fill:gray;stroke:black;stroke-width:1.0"/>
<circle cx="208" cy="227" r="7.0" style="fill:gray;stroke:black;stroke-width:1.0"/>
<circle cx="207" cy="208" r="7.0" style="fill:gray;stroke:black;stroke-width:1.0"/>
<circle cx="208" cy="202" r="7.0" style="fill:gray;stroke:black;stroke-width:1.0"/>
<circle cx="209" cy="173" r="7.0" style="fill:gray;stroke:black;stroke-width:1.0"/>
<circle cx="210" cy="168" r="7.0" style="fill:gray;stroke:black;stroke-width:1.0"/>
<circle cx="215" cy="130" r="7.0" style="fill:gray;stroke:black;stroke-width:1.0"/>
<circle cx="212" cy="131" r="7.0" style="fill:gray;stroke:black;stroke-width:1.0"/>
<circle cx="213" cy="89" r="7.0" style="fill:gray;stroke:black;stroke-width:1.0"/>
<circle cx="218" cy="93" r="7.0" style="fill:gray;stroke:black;stroke-width:1.0"/>
<circle cx="229" cy="55" r="7.0" style="fill:gray;stroke:black;stroke-width:1.0"/>
<circle cx="237" cy="59" r="7.0" style="fill:gray;stroke:black;stroke-width:1.0"/>
<circle cx="273" cy="33" r="7.0" style="fill:gray;stroke:black;stroke-width:1.0"/>
<circle cx="278" cy="38" r="7.0" style="fill:gray;stroke:black;stroke-width:1.0"/>
<circle cx="330" cy="25" r="7.0" style="fill:gray;stroke:black;stroke-width:1.0"/>
<circle cx="329" cy="28" r="7.0" style="fill:gray;stroke:black;stroke-width:1.0"/>
<circle cx="388" cy="21" r="7.0" style="fill:gray;stroke:black;stroke-width:1.0"/>
<circle cx="378" cy="22" r="7.0" style="fill:gray;stroke:black;stroke-width:1.0"/>
<circle cx="420" cy="20" r="7.0" style="fill:gray;stroke:black;stroke-width:1.0"/>
<circle cx="407" cy="23" r="7.0" style="fill:gray;stroke:black;stroke-width:1.0"/>
<circle cx="380" cy="34" r="7.0" style="fill:gray;stroke:black;stroke-width:1.0"/>
<circle cx="370" cy="38" r="7.0" style="fill:gray;stroke:black;stroke-width:1.0"/>
<circle cx="323" cy="56" r="7.0" style="fill:gray;stroke:black;stroke-width:1.0"/>
<circle cx="316" cy="61" r="7.0" style="fill:gray;stroke:black;stroke-width:1.0"/>
<circle cx="258" cy="86" r="7.0" style="fill:gray;stroke:black;stroke-width:1.0"/>
<circle cx="254" cy="87" r="7.0" style="fill:gray;stroke:black;stroke-width:1.0"/>
<circle cx="188" cy="118" r="7.0" style="fill:gray;stroke:black;stroke-width:1.0"/>
<circle cx="189" cy="114" r="7.0" style="fill:gray;stroke:black;stroke-width:1.0"/>
<circle cx="119" cy="142" r="7.0" style="fill:gray;stroke:black;stroke-width:1.0"/>
<circle cx="126" cy="137" r="7.0" style="fill:gray;stroke:black;stroke-width:1.0"/>
<circle cx="58" cy="158" r="7.0" style="fill:gray;stroke:black;stroke-width:1.0"/>
<circle cx="69" cy="155" r="7.0" style="fill:gray;stroke:black;stroke-width:1.0"/>
<circle cx="20" cy="172" r="7.0" style="fill:gray;stroke:black;stroke-width:1.0"/>
<circle cx="31" cy="171" r="7.0" style="fill:gray;stroke:black;stroke-width:1.0"/>
<circle cx="34" cy="186" r="7.0" style="fill:gray;stroke:black;stroke-width:1.0"/>
<circle cx="42" cy="189" r="7.0" style="fill:gray;stroke:black;stroke-width:1.0"/>
<circle cx="71" cy="205" r="7.0" style="fill:gray;stroke:black;stroke-width:1.0"/>
<circle cx="75" cy="208" r="7.0" style="fill:gray;stroke:black;stroke-width:1.0"/>
<circle cx="110" cy="230" r="7.0" style="fill:gray;stroke:black;stroke-width:1.0"/>
<circle cx="113" cy="226" r="7.0" style="fill:gray;stroke:black;stroke-width:1.0"/>
<circle cx="159" cy="243" r="7.0" style="fill:gray;stroke:black;stroke-width:1.0"/>
<circle cx="157" cy="238" r="7.0" style="fill:gray;stroke:black;stroke-width:1.0"/>
<circle cx="207" cy="246" r="7.0" style="fill:gray;stroke:black;stroke-width:1.0"/>
<circle cx="200" cy="242" r="7.0" style="fill:gray;stroke:black;stroke-width:1.0"/>
<circle cx="237" cy="232" r="7.0" style="fill:gray;stroke:black;stroke-width:1.0"/>
<circle cx="228" cy="232" r="7.0" style="fill:gray;stroke:black;stroke-width:1.0"/>
<circle cx="216" cy="211" r="7.0" style="fill:gray;stroke:black;stroke-width:1.0"/>
<circle cx="220" cy="213" r="7.0" style="fill:gray;stroke:black;stroke-width:1.0"/>
<circle cx="206" cy="192" r="7.0" style="fill:gray;stroke:black;stroke-width:1.0"/>
<circle cx="210" cy="197" r="7.0" style="fill:gray;stroke:black;stroke-width:1.0"/>
</svg>
