<svg width="440" height="340" xmlns="http://www.w3.org/2000/svg">
<path stroke-width="1" stroke="black" d="M 125 294 134 281"/>
<path stroke-width="1" stroke="black" d="M 229 290 179 251"/>
<path stroke-width="1" stroke="black" d="M 228 300 229 290"/>
<path stroke-width="1" stroke="black" d="M 179 251 229 290"/>
<path stroke-width="1" stroke="black" d="M 179 251 182 254"/>
<path stroke-width="1" stroke="black" d="M 179 251 129 208"/>
<path stroke-width="1" stroke="black" d="M 182 254 179 251"/>
<path stroke-width="1" stroke="black" d="M 129 208 179 251"/>
<path stroke-width="1" stroke="black" d="M 129 208 116 204"/>
<path stroke-width="1" stroke="black" d="M 129 208 91 167"/>
<path stroke-width="1" stroke="black" d="M 116 204 129 208"/>
<path stroke-width="1" stroke="black" d="M 91 167 129 208"/>
<path stroke-width="1" stroke="black" d="M 91 167 85 158"/>
<path stroke-width="1" stroke="black" d="M 229 290 228 300"/>
<path stroke-width="1" stroke="black" d="M 91 167 54 140"/>
<path stroke-width="1" stroke="black" d="M 54 140 91 167"/>
<path stroke-width="1" stroke="black" d="M 54 140 53 129"/>
<path stroke-width="1" stroke="black" d="M 54 140 32 169"/>
<path stroke-width="1" stroke="black" d="M 53 129 54 140"/>
<path stroke-width="1" stroke="black" d="M 32 169 54 140"/>
<path stroke-width="1" stroke="black" d="M 32 169 23 160"/>
<path stroke-width="1" stroke="black" d="M 32 169 43 212"/>
<path stroke-width="1" stroke="black" d="M 23 160 32 169"/>
<path stroke-width="1" stroke="black" d="M 43 212 32 169"/>
<path stroke-width="1" stroke="black" d="M 43 212 28 212"/>
<path stroke-width="1" stroke="black" d="M 43 212 88 254"/>
<path stroke-width="1" stroke="black" d="M 28 212 43 212"/>
<path stroke-width="1" stroke="black" d="M 85 158 91 167"/>
<path stroke-width="1" stroke="black" d="M 229 290 294 309"/>
<path stroke-width="1" stroke="black" d="M 297 320 294 309"/>
<path stroke-width="1" stroke="black" d="M 294 309 229 290"/>
<path stroke-width="1" stroke="black" d="M 20 20 40 21"/>
<path stroke-width="1" stroke="black" d="M 106 29 40 21"/>
<path stroke-width="1" stroke="black" d="M 106 29 96 21"/>
<path stroke-width="1" stroke="black" d="M 106 29 180 57"/>
<path stroke-width="1" stroke="black" d="M 96 21 106 29"/>
<path stroke-width="1" stroke="black" d="M 180 57 106 29"/>
<path stroke-width="1" stroke="black" d="M 180 57 180 47"/>
<path stroke-width="1" stroke="black" d="M 180 57 245 105"/>
<path stroke-width="1" stroke="black" d="M 180 47 180 57"/>
<path stroke-width="1" stroke="black" d="M 245 105 180 57"/>
<path stroke-width="1" stroke="black" d="M 245 105 249 96"/>
<path stroke-width="1" stroke="black" d="M 245 105 295 161"/>
<path stroke-width="1" stroke="black" d="M 249 96 245 105"/>
<path stroke-width="1" stroke="black" d="M 295 161 245 105"/>
<path stroke-width="1" stroke="black" d="M 295 161 310 159"/>
<path stroke-width="1" stroke="black" d="M 295 161 331 222"/>
<path stroke-width="1" stroke="black" d="M 310 159 295 161"/>
<path stroke-width="1" stroke="black" d="M 331 222 295 161"/>
<path stroke-width="1" stroke="black" d="M 331 222 341 227"/>
<path stroke-width="1" stroke="black" d="M 331 222 334 274"/>
<path stroke-width="1" stroke="black" d="M 341 227 331 222"/>
<path stroke-width="1" stroke="black" d="M 334 274 331 222"/>
<path stroke-width="1" stroke="black" d="M 334 274 351 285"/>
<path stroke-width="1" stroke="black" d="M 334 274 294 309"/>
<path stroke-width="1" stroke="black" d="M 351 285 334 274"/>
<path stroke-width="1" stroke="black" d="M 294 309 334 274"/>
<path stroke-width="1" stroke="black" d="M 294 309 297 320"/>
<path stroke-width="1" stroke="black" d="M 88 254 43 212"/>
<path stroke-width="1" stroke="black" d="M 88 254 74 260"/>
<path stroke-width="1" stroke="black" d="M 88 254 166 282"/>
<path stroke-width="1" stroke="black" d="M 74 260 88 254"/>
<path stroke-width="1" stroke="black" d="M 381 86 375 94"/>
<path stroke-width="1" stroke="black" d="M 334 71 375 94"/>
<path stroke-width="1" stroke="black" d="M 334 71 333 61"/>
<path stroke-width="1" stroke="black" d="M 334 71 293 91"/>
<path stroke-width="1" stroke="black" d="M 333 61 334 71"/>
<path stroke-width="1" stroke="black" d="M 293 91 334 71"/>
<path stroke-width="1" stroke="black" d="M 293 91 295 82"/>
<path stroke-width="1" stroke="black" d="M 293 91 258 128"/>
<path stroke-width="1" stroke="black" d="M 295 82 293 91"/>
<path stroke-width="1" stroke="black" d="M 258 128 293 91"/>
<path stroke-width="1" stroke="black" d="M 258 128 268 126"/>
<path stroke-width="1" stroke="black" d="M 258 128 226 168"/>
<path stroke-width="1" stroke="black" d="M 268 126 258 128"/>
<path stroke-width="1" stroke="black" d="M 226 168 258 128"/>
<path stroke-width="1" stroke="black" d="M 226 168 215 169"/>
<path stroke-width="1" stroke="black" d="M 226 168 198 209"/>
<path stroke-width="1" stroke="black" d="M 215 169 226 168"/>
<path stroke-width="1" stroke="black" d="M 198 209 226 168"/>
<path stroke-width="1" stroke="black" d="M 198 209 209 212"/>
<path stroke-width="1" stroke="black" d="M 198 209 159 247"/>
<path stroke-width="1" stroke="black" d="M 209 212 198 209"/>
<path stroke-width="1" stroke="black" d="M 159 247 198 209"/>
<path stroke-width="1" stroke="black" d="M 159 247 150 252"/>
<path stroke-width="1" stroke="black" d="M 159 247 134 281"/>
<path stroke-width="1" stroke="black" d="M 150 252 159 247"/>
<path stroke-width="1" stroke="black" d="M 134 281 159 247"/>
<path stroke-width="1" stroke="black" d="M 134 281 125 294"/>
<path stroke-width="1" stroke="black" d="M 375 94 334 71"/>
<path stroke-width="1" stroke="black" d="M 40 21 106 29"/>
<path stroke-width="1" stroke="black" d="M 375 94 381 86"/>
<path stroke-width="1" stroke="black" d="M 402 130 391 133"/>
<path stroke-width="1" stroke="black" d="M 166 282 88 254"/>
<path stroke-width="1" stroke="black" d="M 166 282 163 291"/>
<path stroke-width="1" stroke="black" d="M 166 282 253 291"/>
<path stroke-width="1" stroke="black" d="M 163 291 166 282"/>
<path stroke-width="1" stroke="black" d="M 253 291 166 282"/>
<path stroke-width="1" stroke="black" d="M 253 291 264 295"/>
<path stroke-width="1" stroke="black" d="M 253 291 333 289"/>
<path stroke-width="1" stroke="black" d="M 264 295 253 291"/>
<path stroke-width="1" stroke="black" d="M 333 289 253 291"/>
<path stroke-width="1" stroke="black" d="M 333 289 342 298"/>
<path stroke-width="1" stroke="black" d="M 333 289 390 260"/>
<path stroke-width="1" stroke="black" d="M 342 298 333 289"/>
<path stroke-width="1" stroke="black" d="M 390 260 333 289"/>
<path stroke-width="1" stroke="black" d="M 390 260 404 266"/>
<path stroke-width="1" stroke="black" d="M 390 260 406 218"/>
<path stroke-width="1" stroke="black" d="M 404 266 390 260"/>
<path stroke-width="1" stroke="black" d="M 406 218 390 260"/>
<path stroke-width="1" stroke="black" d="M 406 218 420 217"/>
<path stroke-width="1" stroke="black" d="M 406 218 399 175"/>
<path stroke-width="1" stroke="black" d="M 420 217 406 218"/>
<path stroke-width="1" stroke="black" d="M 399 175 406 218"/>
<path stroke-width="1" stroke="black" d="M 399 175 389 175"/>
<path stroke-width="1" stroke="black" d="M 399 175 391 133"/>
<path stroke-width="1" stroke="black" d="M 389 175 399 175"/>
<path stroke-width="1" stroke="black" d="M 391 133 399 175"/>
<path stroke-width="1" stroke="black" d="M 391 133 402 130"/>
<path stroke-width="1" stroke="black" d="M 391 133 375 94"/>
<path stroke-width="1" stroke="black" d="M 375 94 391 133"/>
<path stroke-width="1" stroke="black" d="M 40 21 20 20"/>
<circle cx="125" cy="294" r="7.0" style="fill:gray;stroke:black;stroke-width:1.0"/>
<circle cx="134" cy="281" r="7.0" style="fill:gray;stroke:black;stroke-width:1.0"/>
<circle cx="150" cy="252" r="7.0" style="fill:gray;stroke:black;stroke-width:1.0"/>
<circle cx="159" cy="247" r="7.0" style="fill:gray;stroke:black;stroke-width:1.0"/>
<circle cx="209" cy="212" r="7.0" style="fill:gray;stroke:black;stroke-width:1.0"/>
<circle cx="198" cy="209" r="7.0" style="fill:gray;stroke:black;stroke-width:1.0"/>
<circle cx="215" cy="169" r="7.0" style="fill:gray;stroke:black;stroke-width:1.0"/>
<circle cx="226" cy="168" r="7.0" style="fill:gray;stroke:black;stroke-width:1.0"/>
<circle cx="268" cy="126" r="7.0" style="fill:gray;stroke:black;stroke-width:1.0"/>
<circle cx="258" cy="128" r="7.0" style="fill:gray;stroke:black;stroke-width:1.0"/>
<circle cx="295" cy="82" r="7.0" style="fill:gray;stroke:black;stroke-width:1.0"/>
<circle cx="293" cy="91" r="7.0" style="fill:gray;stroke:black;stroke-width:1.0"/>
<circle cx="333" cy="61" r="7.0" style="fill:gray;stroke:black;stroke-width:1.0"/>
<circle cx="334" cy="71" r="7.0" style="fill:gray;stroke:black;stroke-width:1.0"/>
<circle cx="381" cy="86" r="7.0" style="fill:gray;stroke:black;stroke-width:1.0"/>
<circle cx="375" cy="94" r="7.0" style="fill:gray;stroke:black;stroke-width:1.0"/>
<circle cx="402" cy="130" r="7.0" style="fill:gray;stroke:black;stroke-width:1.0"/>
<circle cx="391" cy="133" r="7.0" style="fill:gray;stroke:black;stroke-width:1.0"/>
<circle cx="389" cy="175" r="7.0" style="fill:gray;stroke:black;stroke-width:1.0"/>
<circle cx="399" cy="175" r="7.0" style="fill:gray;stroke:black;stroke-width:1.0"/>
<circle cx="420" cy="217" r="7.0" style="fill:gray;stroke:black;stroke-width:1.0"/>
<circle cx="406" cy="218" r="7.0" style="fill:gray;stroke:black;stroke-width:1.0"/>
<circle cx="404" cy="266" r="7.0" style="fill:gray;stroke:black;stroke-width:1.0"/>
<circle cx="390" cy="260" r="7.0" style="fill:gray;stroke:black;stroke-width:1.0"/>
<circle cx="342" cy="298" r="7.0" style="fill:gray;stroke:black;stroke-width:1.0"/>
<circle cx="333" cy="289" r="7.0" style="fill:gray;stroke:black;stroke-width:1.0"/>
<circle cx="264" cy="295" r="7.0" style="fill:gray;stroke:black;stroke-width:1.0"/>
<circle cx="253" cy="291" r="7.0" style="fill:gray;stroke:black;stroke-width:1.0"/>
<circle cx="163" cy="291" r="7.0" style="fill:gray;stroke:black;stroke-width:1.0"/>
<circle cx="166" cy="282" r="7.0" style="fill:gray;stroke:black;stroke-width:1.0"/>
<circle cx="74" cy="260" r="7.0" style="fill:gray;stroke:black;stroke-width:1.0"/>
<circle cx="88" cy="254" r="7.0" style="fill:gray;stroke:black;stroke-width:1.0"/>
<circle cx="28" cy="212" r="7.0" style="fill:gray;stroke:black;stroke-width:1.0"/>
<circle cx="43" cy="212" r="7.0" style="fill:gray;stroke:black;stroke-width:1.0"/>
<circle cx="23" cy="160" r="7.0" style="fill:gray;stroke:black;stroke-width:1.0"/>
<circle cx="32" cy="169" r="7.0" style="fill:gray;stroke:black;stroke-width:1.0"/>
<circle cx="53" cy="129" r="7.0" style="fill:gray;stroke:black;stroke-width:1.0"/>
<circle cx="54" cy="140" r="7.0" style="fill:gray;stroke:black;stroke-width:1.0"/>
<circle cx="85" cy="158" r="7.0" style="fill:gray;stroke:black;stroke-width:1.0"/>
<circle cx="91" cy="167" r="7.0" style="fill:gray;stroke:black;stroke-width:1.0"/>
<circle cx="116" cy="204" r="7.0" style="fill:gray;stroke:black;stroke-width:1.0"/>
<circle cx="129" cy="208" r="7.0" style="fill:gray;stroke:black;stroke-width:1.0"/>
<circle cx="182" cy="254" r="7.0" style="fill:gray;stroke:black;stroke-width:1.0"/>
<circle cx="179" cy="251" r="7.0" style="fill:gray;stroke:black;stroke-width:1.0"/>
<circle cx="228" cy="300" r="7.0" style="fill:gray;stroke:black;stroke-width:1.0"/>
<circle cx="229" cy="290" r="7.0" style="fill:gray;stroke:black;stroke-width:1.0"/>
<circle cx="297" cy="320" r="7.0" style="fill:gray;stroke:black;stroke-width:1.0"/>
<circle cx="294" cy="309" r="7.0" style="fill:gray;stroke:black;stroke-width:1.0"/>
<circle cx="351" cy="285" r="7.0" style="fill:gray;stroke:black;stroke-width:1.0"/>
<circle cx="334" cy="274" r="7.0" style="fill:gray;stroke:black;stroke-width:1.0"/>
<circle cx="341" cy="227" r="7.0" style="fill:gray;stroke:black;stroke-width:1.0"/>
<circle cx="331" cy="222" r="7.0" style="fill:gray;stroke:black;stroke-width:1.0"/>
<circle cx="310" cy="159" r="7.0" style="fill:gray;stroke:black;stroke-width:1.0"/>
<circle cx="295" cy="161" r="7.0" style="fill:gray;stroke:black;stroke-width:1.0"/>
<circle cx="249" cy="96" r="7.0" style="fill:gray;stroke:black;stroke-width:1.0"/>
<circle cx="245" cy="105" r="7.0" style="fill:gray;stroke:black;stroke-width:1.0"/>
<circle cx="180" cy="47" r="7.0" style="fill:gray;stroke:black;stroke-width:1.0"/>
<circle cx="180" cy="57" r="7.0" style="fill:gray;stroke:black;stroke-width:1.0"/>
<circle cx="96" cy="21" r="7.0" style="fill:gray;stroke:black;stroke-width:1.0"/>
<circle cx="106" cy="29" r="7.0" style="fill:gray;stroke:black;stroke-width:1.0"/>
<circle cx="20" cy="20" r="7.0" style="fill:gray;stroke:black;stroke-width:1.0"/>
<circle cx="40" cy="21" r="7.0" style="fill:gray;stroke:black;stroke-width:1.0"/>
</svg>
