<svg width="440" height="340" xmlns="http://www.w3.org/2000/svg">
<path stroke-width="8.857142857142858" stroke="black" d="M 409 183 399 175"/>
<path stroke-width="0.5" stroke="black" d="M 84 31 103 71"/>
<path stroke-width="20.0" stroke="black" d="M 87 20 84 31"/>
<path stroke-width="0.5" stroke="black" d="M 103 71 84 31"/>
<path stroke-width="20.0" stroke="black" d="M 103 71 110 61"/>
<path stroke-width="0.5" stroke="black" d="M 103 71 101 128"/>
<path stroke-width="20.0" stroke="black" d="M 110 61 103 71"/>
<path stroke-width="0.5" stroke="black" d="M 101 128 103 71"/>
<path stroke-width="20.0" stroke="black" d="M 101 128 104 120"/>
<path stroke-width="0.5" stroke="black" d="M 101 128 98 194"/>
<path stroke-width="20.0" stroke="black" d="M 104 120 101 128"/>
<path stroke-width="0.5" stroke="black" d="M 98 194 101 128"/>
<path stroke-width="20.0" stroke="black" d="M 98 194 89 197"/>
<path stroke-width="20.0" stroke="black" d="M 84 31 87 20"/>
<path stroke-width="0.5" stroke="black" d="M 98 194 113 253"/>
<path stroke-width="0.5" stroke="black" d="M 113 253 98 194"/>
<path stroke-width="20.0" stroke="black" d="M 113 253 102 261"/>
<path stroke-width="0.5" stroke="black" d="M 113 253 157 295"/>
<path stroke-width="20.0" stroke="black" d="M 102 261 113 253"/>
<path stroke-width="0.5" stroke="black" d="M 157 295 113 253"/>
<path stroke-width="20.0" stroke="black" d="M 157 295 150 305"/>
<path stroke-width="0.5" stroke="black" d="M 157 295 219 308"/>
<path stroke-width="20.0" stroke="black" d="M 150 305 157 295"/>
<path stroke-width="0.5" stroke="black" d="M 219 308 157 295"/>
<path stroke-width="20.0" stroke="black" d="M 219 308 221 320"/>
<path stroke-width="0.5" stroke="black" d="M 219 308 278 287"/>
<path stroke-width="20.0" stroke="black" d="M 221 320 219 308"/>
<path stroke-width="20.0" stroke="black" d="M 89 197 98 194"/>
<path stroke-width="0.5" stroke="black" d="M 84 31 47 44"/>
<path stroke-width="20.0" stroke="black" d="M 43 34 47 44"/>
<path stroke-width="0.5" stroke="black" d="M 47 44 84 31"/>
<path stroke-width="14.428571428571429" stroke="black" d="M 420 80 402 85"/>
<path stroke-width="0.5" stroke="black" d="M 348 101 402 85"/>
<path stroke-width="20.0" stroke="black" d="M 348 101 359 99"/>
<path stroke-width="0.5" stroke="black" d="M 348 101 272 120"/>
<path stroke-width="20.0" stroke="black" d="M 359 99 348 101"/>
<path stroke-width="0.5" stroke="black" d="M 272 120 348 101"/>
<path stroke-width="20.0" stroke="black" d="M 272 120 282 121"/>
<path stroke-width="0.5" stroke="black" d="M 272 120 194 135"/>
<path stroke-width="20.0" stroke="black" d="M 282 121 272 120"/>
<path stroke-width="0.5" stroke="black" d="M 194 135 272 120"/>
<path stroke-width="20.0" stroke="black" d="M 194 135 186 143"/>
<path stroke-width="0.5" stroke="black" d="M 194 135 116 142"/>
<path stroke-width="20.0" stroke="black" d="M 186 143 194 135"/>
<path stroke-width="0.5" stroke="black" d="M 116 142 194 135"/>
<path stroke-width="20.0" stroke="black" d="M 116 142 107 149"/>
<path stroke-width="0.5" stroke="black" d="M 116 142 56 126"/>
<path stroke-width="20.0" stroke="black" d="M 107 149 116 142"/>
<path stroke-width="0.5" stroke="black" d="M 56 126 116 142"/>
<path stroke-width="20.0" stroke="black" d="M 56 126 42 131"/>
<path stroke-width="0.5" stroke="black" d="M 56 126 31 84"/>
<path stroke-width="20.0" stroke="black" d="M 42 131 56 126"/>
<path stroke-width="0.5" stroke="black" d="M 31 84 56 126"/>
<path stroke-width="20.0" stroke="black" d="M 31 84 20 83"/>
<path stroke-width="0.5" stroke="black" d="M 31 84 47 44"/>
<path stroke-width="20.0" stroke="black" d="M 20 83 31 84"/>
<path stroke-width="0.5" stroke="black" d="M 47 44 31 84"/>
<path stroke-width="20.0" stroke="black" d="M 47 44 43 34"/>
<path stroke-width="0.5" stroke="black" d="M 278 287 219 308"/>
<path stroke-width="20.0" stroke="black" d="M 278 287 289 289"/>
<path stroke-width="0.5" stroke="black" d="M 278 287 308 248"/>
<path stroke-width="20.0" stroke="black" d="M 289 289 278 287"/>
<path stroke-width="20.0" stroke="black" d="M 233 296 240 293"/>
<path stroke-width="0.5" stroke="black" d="M 221 289 240 293"/>
<path stroke-width="20.0" stroke="black" d="M 221 289 216 300"/>
<path stroke-width="0.5" stroke="black" d="M 221 289 233 248"/>
<path stroke-width="20.0" stroke="black" d="M 216 300 221 289"/>
<path stroke-width="0.5" stroke="black" d="M 233 248 221 289"/>
<path stroke-width="20.0" stroke="black" d="M 233 248 232 256"/>
<path stroke-width="0.5" stroke="black" d="M 233 248 247 200"/>
<path stroke-width="20.0" stroke="black" d="M 232 256 233 248"/>
<path stroke-width="0.5" stroke="black" d="M 247 200 233 248"/>
<path stroke-width="20.0" stroke="black" d="M 247 200 239 195"/>
<path stroke-width="0.5" stroke="black" d="M 247 200 279 163"/>
<path stroke-width="20.0" stroke="black" d="M 239 195 247 200"/>
<path stroke-width="0.5" stroke="black" d="M 279 163 247 200"/>
<path stroke-width="20.0" stroke="black" d="M 279 163 273 154"/>
<path stroke-width="0.5" stroke="black" d="M 279 163 326 148"/>
<path stroke-width="20.0" stroke="black" d="M 273 154 279 163"/>
<path stroke-width="0.5" stroke="black" d="M 326 148 279 163"/>
<path stroke-width="20.0" stroke="black" d="M 326 148 328 139"/>
<path stroke-width="0.5" stroke="black" d="M 326 148 371 156"/>
<path stroke-width="20.0" stroke="black" d="M 328 139 326 148"/>
<path stroke-width="0.5" stroke="black" d="M 371 156 326 148"/>
<path stroke-width="20.0" stroke="black" d="M 371 156 380 153"/>
<path stroke-width="0.5" stroke="black" d="M 371 156 399 175"/>
<path stroke-width="20.0" stroke="black" d="M 380 153 371 156"/>
<path stroke-width="0.5" stroke="black" d="M 399 175 371 156"/>
<path stroke-width="8.857142857142858" stroke="black" d="M 399 175 409 183"/>
<path stroke-width="0.5" stroke="black" d="M 240 293 221 289"/>
<path stroke-width="0.5" stroke="black" d="M 402 85 348 101"/>
<path stroke-width="20.0" stroke="black" d="M 240 293 233 296"/>
<path stroke-width="20.0" stroke="black" d="M 270 276 263 280"/>
<path stroke-width="0.5" stroke="black" d="M 308 248 278 287"/>
<path stroke-width="20.0" stroke="black" d="M 308 248 319 244"/>
<path stroke-width="0.5" stroke="black" d="M 308 248 298 216"/>
<path stroke-width="20.0" stroke="black" d="M 319 244 308 248"/>
<path stroke-width="0.5" stroke="black" d="M 298 216 308 248"/>
<path stroke-width="20.0" stroke="black" d="M 298 216 302 206"/>
<path stroke-width="0.5" stroke="black" d="M 298 216 266 222"/>
<path stroke-width="20.0" stroke="black" d="M 302 206 298 216"/>
<path stroke-width="0.5" stroke="black" d="M 266 222 298 216"/>
<path stroke-width="20.0" stroke="black" d="M 266 222 264 215"/>
<path stroke-width="0.5" stroke="black" d="M 266 222 237 242"/>
<path stroke-width="20.0" stroke="black" d="M 264 215 266 222"/>
<path stroke-width="0.5" stroke="black" d="M 237 242 266 222"/>
<path stroke-width="20.0" stroke="black" d="M 237 242 227 240"/>
<path stroke-width="0.5" stroke="black" d="M 237 242 231 274"/>
<path stroke-width="20.0" stroke="black" d="M 227 240 237 242"/>
<path stroke-width="0.5" stroke="black" d="M 231 274 237 242"/>
<path stroke-width="20.0" stroke="black" d="M 231 274 222 279"/>
<path stroke-width="0.5" stroke="black" d="M 231 274 257 291"/>
<path stroke-width="20.0" stroke="black" d="M 222 279 231 274"/>
<path stroke-width="0.5" stroke="black" d="M 257 291 231 274"/>
<path stroke-width="20.0" stroke="black" d="M 257 291 264 296"/>
<path stroke-width="0.5" stroke="black" d="M 257 291 263 280"/>
<path stroke-width="20.0" stroke="black" d="M 264 296 257 291"/>
<path stroke-width="0.5" stroke="black" d="M 263 280 257 291"/>
<path stroke-width="20.0" stroke="black" d="M 263 280 270 276"/>
<path stroke-width="0.5" stroke="black" d="M 263 280 240 293"/>
<path stroke-width="0.5" stroke="black" d="M 240 293 263 280"/>
<path stroke-width="14.428571428571429" stroke="black" d="M 402 85 420 80"/>
<circle cx="409" cy="183" r="7.0" style="fill:blue;stroke:black;stroke-width:1.0"/>
<circle cx="399" cy="175" r="7.0" style="fill:blue;stroke:black;stroke-width:1.0"/>
<circle cx="380" cy="153" r="7.0" style="fill:blue;stroke:black;stroke-width:1.0"/>
<circle cx="371" cy="156" r="7.0" style="fill:blue;stroke:black;stroke-width:1.0"/>
<circle cx="328" cy="139" r="7.0" style="fill:blue;stroke:black;stroke-width:1.0"/>
<circle cx="326" cy="148" r="7.0" style="fill:blue;stroke:black;stroke-width:1.0"/>
<circle cx="273" cy="154" r="7.0" style="fill:red;stroke:black;stroke-width:1.0"/>
<circle cx="279" cy="163" r="7.0" style="fill:red;stroke:black;stroke-width:1.0"/>
<circle cx="239" cy="195" r="7.0" style="fill:red;stroke:black;stroke-width:1.0"/>
<circle cx="247" cy="200" r="7.0" style="fill:red;stroke:black;stroke-width:1.0"/>
<circle cx="232" cy="256" r="7.0" style="fill:green;stroke:black;stroke-width:1.0"/>
<circle cx="233" cy="248" r="7.0" style="fill:green;stroke:black;stroke-width:1.0"/>
<circle cx="216" cy="300" r="7.0" style="fill:green;stroke:black;stroke-width:1.0"/>
<circle cx="221" cy="289" r="7.0" style="fill:green;stroke:black;stroke-width:1.0"/>
<circle cx="233" cy="296" r="7.0" style="fill:orange;stroke:black;stroke-width:1.0"/>
<circle cx="240" cy="293" r="7.0" style="fill:orange;stroke:black;stroke-width:1.0"/>
<circle cx="270" cy="276" r="7.0" style="fill:orange;stroke:black;stroke-width:1.0"/>
<circle cx="263" cy="280" r="7.0" style="fill:orange;stroke:black;stroke-width:1.0"/>
<circle cx="264" cy="296" r="7.0" style="fill:purple;stroke:black;stroke-width:1.0"/>
<circle cx="257" cy="291" r="7.0" style="fill:purple;stroke:black;stroke-width:1.0"/>
<circle cx="222" cy="279" r="7.0" style="fill:purple;stroke:black;stroke-width:1.0"/>
<circle cx="231" cy="274" r="7.0" style="fill:purple;stroke:black;stroke-width:1.0"/>
<circle cx="227" cy="240" r="7.0" style="fill:yellow;stroke:black;stroke-width:1.0"/>
<circle cx="237" cy="242" r="7.0" style="fill:yellow;stroke:black;stroke-width:1.0"/>
<circle cx="264" cy="215" r="7.0" style="fill:yellow;stroke:black;stroke-width:1.0"/>
<circle cx="266" cy="222" r="7.0" style="fill:yellow;stroke:black;stroke-width:1.0"/>
<circle cx="302" cy="206" r="7.0" style="fill:fuchsia;stroke:black;stroke-width:1.0"/>
<circle cx="298" cy="216" r="7.0" style="fill:fuchsia;stroke:black;stroke-width:1.0"/>
<circle cx="319" cy="244" r="7.0" style="fill:fuchsia;stroke:black;stroke-width:1.0"/>
<circle cx="308" cy="248" r="7.0" style="fill:fuchsia;stroke:black;stroke-width:1.0"/>
<circle cx="289" cy="289" r="7.0" style="fill:olive;stroke:black;stroke-width:1.0"/>
<circle cx="278" cy="287" r="7.0" style="fill:olive;stroke:black;stroke-width:1.0"/>
<circle cx="221" cy="320" r="7.0" style="fill:olive;stroke:black;stroke-width:1.0"/>
<circle cx="219" cy="308" r="7.0" style="fill:olive;stroke:black;stroke-width:1.0"/>
<circle cx="150" cy="305" r="7.0" style="fill:aqua;stroke:black;stroke-width:1.0"/>
<circle cx="157" cy="295" r="7.0" style="fill:aqua;stroke:black;stroke-width:1.0"/>
<circle cx="102" cy="261" r="7.0" style="fill:aqua;stroke:black;stroke-width:1.0"/>
<circle cx="113" cy="253" r="7.0" style="fill:aqua;stroke:black;stroke-width:1.0"/>
<circle cx="89" cy="197" r="7.0" style="fill:brown;stroke:black;stroke-width:1.0"/>
<circle cx="98" cy="194" r="7.0" style="fill:brown;stroke:black;stroke-width:1.0"/>
<circle cx="104" cy="120" r="7.0" style="fill:brown;stroke:black;stroke-width:1.0"/>
<circle cx="101" cy="128" r="7.0" style="fill:brown;stroke:black;stroke-width:1.0"/>
<circle cx="110" cy="61" r="7.0" style="fill:blue;stroke:black;stroke-width:1.0"/>
<circle cx="103" cy="71" r="7.0" style="fill:blue;stroke:black;stroke-width:1.0"/>
<circle cx="87" cy="20" r="7.0" style="fill:blue;stroke:black;stroke-width:1.0"/>
<circle cx="84" cy="31" r="7.0" style="fill:blue;stroke:black;stroke-width:1.0"/>
<circle cx="43" cy="34" r="7.0" style="fill:red;stroke:black;stroke-width:1.0"/>
<circle cx="47" cy="44" r="7.0" style="fill:red;stroke:black;stroke-width:1.0"/>
<circle cx="20" cy="83" r="7.0" style="fill:red;stroke:black;stroke-width:1.0"/>
<circle cx="31" cy="84" r="7.0" style="fill:red;stroke:black;stroke-width:1.0"/>
<circle cx="42" cy="131" r="7.0" style="fill:green;stroke:black;stroke-width:1.0"/>
<circle cx="56" cy="126" r="7.0" style="fill:green;stroke:black;stroke-width:1.0"/>
<circle cx="107" cy="149" r="7.0" style="fill:green;stroke:black;stroke-width:1.0"/>
<circle cx="116" cy="142" r="7.0" style="fill:green;stroke:black;stroke-width:1.0"/>
<circle cx="186" cy="143" r="7.0" style="fill:orange;stroke:black;stroke-width:1.0"/>
<circle cx="194" cy="135" r="7.0" style="fill:orange;stroke:black;stroke-width:1.0"/>
<circle cx="282" cy="121" r="7.0" style="fill:orange;stroke:black;stroke-width:1.0"/>
<circle cx="272" cy="120" r="7.0" style="fill:orange;stroke:black;stroke-width:1.0"/>
<circle cx="359" cy="99" r="7.0" style="fill:purple;stroke:black;stroke-width:1.0"/>
<circle cx="348" cy="101" r="7.0" style="fill:purple;stroke:black;stroke-width:1.0"/>
<circle cx="420" cy="80" r="7.0" style="fill:purple;stroke:black;stroke-width:1.0"/>
<circle cx="402" cy="85" r="7.0" style="fill:purple;stroke:black;stroke-width:1.0"/>
</svg>
