<svg width="440" height="340" xmlns="http://www.w3.org/2000/svg">
<path stroke-width="1" stroke="black" d="M 397 62 403 66"/>
<path stroke-width="1" stroke="black" d="M 194 282 191 236"/>
<path stroke-width="1" stroke="black" d="M 198 291 194 282"/>
<path stroke-width="1" stroke="black" d="M 191 236 194 282"/>
<path stroke-width="1" stroke="black" d="M 191 236 199 241"/>
<path stroke-width="1" stroke="black" d="M 191 236 170 184"/>
<path stroke-width="1" stroke="black" d="M 199 241 191 236"/>
<path stroke-width="1" stroke="black" d="M 170 184 191 236"/>
<path stroke-width="1" stroke="black" d="M 170 184 177 184"/>
<path stroke-width="1" stroke="black" d="M 170 184 137 136"/>
<path stroke-width="1" stroke="black" d="M 177 184 170 184"/>
<path stroke-width="1" stroke="black" d="M 137 136 170 184"/>
<path stroke-width="1" stroke="black" d="M 137 136 141 129"/>
<path stroke-width="1" stroke="black" d="M 194 282 198 291"/>
<path stroke-width="1" stroke="black" d="M 137 136 98 93"/>
<path stroke-width="1" stroke="black" d="M 98 93 137 136"/>
<path stroke-width="1" stroke="black" d="M 98 93 97 86"/>
<path stroke-width="1" stroke="black" d="M 98 93 60 65"/>
<path stroke-width="1" stroke="black" d="M 97 86 98 93"/>
<path stroke-width="1" stroke="black" d="M 60 65 98 93"/>
<path stroke-width="1" stroke="black" d="M 60 65 53 58"/>
<path stroke-width="1" stroke="black" d="M 60 65 30 55"/>
<path stroke-width="1" stroke="black" d="M 53 58 60 65"/>
<path stroke-width="1" stroke="black" d="M 30 55 60 65"/>
<path stroke-width="1" stroke="black" d="M 30 55 20 51"/>
<path stroke-width="1" stroke="black" d="M 30 55 57 69"/>
<path stroke-width="1" stroke="black" d="M 20 51 30 55"/>
<path stroke-width="1" stroke="black" d="M 141 129 137 136"/>
<path stroke-width="1" stroke="black" d="M 194 282 179 312"/>
<path stroke-width="1" stroke="black" d="M 179 320 179 312"/>
<path stroke-width="1" stroke="black" d="M 179 312 194 282"/>
<path stroke-width="1" stroke="black" d="M 362 121 350 126"/>
<path stroke-width="1" stroke="black" d="M 312 144 350 126"/>
<path stroke-width="1" stroke="black" d="M 312 144 318 138"/>
<path stroke-width="1" stroke="black" d="M 312 144 267 172"/>
<path stroke-width="1" stroke="black" d="M 318 138 312 144"/>
<path stroke-width="1" stroke="black" d="M 267 172 312 144"/>
<path stroke-width="1" stroke="black" d="M 267 172 264 166"/>
<path stroke-width="1" stroke="black" d="M 267 172 226 210"/>
<path stroke-width="1" stroke="black" d="M 264 166 267 172"/>
<path stroke-width="1" stroke="black" d="M 226 210 267 172"/>
<path stroke-width="1" stroke="black" d="M 226 210 219 208"/>
<path stroke-width="1" stroke="black" d="M 226 210 194 251"/>
<path stroke-width="1" stroke="black" d="M 219 208 226 210"/>
<path stroke-width="1" stroke="black" d="M 194 251 226 210"/>
<path stroke-width="1" stroke="black" d="M 194 251 189 257"/>
<path stroke-width="1" stroke="black" d="M 194 251 170 288"/>
<path stroke-width="1" stroke="black" d="M 189 257 194 251"/>
<path stroke-width="1" stroke="black" d="M 170 288 194 251"/>
<path stroke-width="1" stroke="black" d="M 170 288 165 296"/>
<path stroke-width="1" stroke="black" d="M 170 288 157 314"/>
<path stroke-width="1" stroke="black" d="M 165 296 170 288"/>
<path stroke-width="1" stroke="black" d="M 157 314 170 288"/>
<path stroke-width="1" stroke="black" d="M 157 314 150 319"/>
<path stroke-width="1" stroke="black" d="M 157 314 179 312"/>
<path stroke-width="1" stroke="black" d="M 150 319 157 314"/>
<path stroke-width="1" stroke="black" d="M 179 312 157 314"/>
<path stroke-width="1" stroke="black" d="M 179 312 179 320"/>
<path stroke-width="1" stroke="black" d="M 57 69 30 55"/>
<path stroke-width="1" stroke="black" d="M 57 69 46 69"/>
<path stroke-width="1" stroke="black" d="M 57 69 108 76"/>
<path stroke-width="1" stroke="black" d="M 46 69 57 69"/>
<path stroke-width="1" stroke="black" d="M 286 47 286 53"/>
<path stroke-width="1" stroke="black" d="M 290 87 286 53"/>
<path stroke-width="1" stroke="black" d="M 290 87 284 87"/>
<path stroke-width="1" stroke="black" d="M 290 87 308 118"/>
<path stroke-width="1" stroke="black" d="M 284 87 290 87"/>
<path stroke-width="1" stroke="black" d="M 308 118 290 87"/>
<path stroke-width="1" stroke="black" d="M 308 118 304 124"/>
<path stroke-width="1" stroke="black" d="M 308 118 339 132"/>
<path stroke-width="1" stroke="black" d="M 304 124 308 118"/>
<path stroke-width="1" stroke="black" d="M 339 132 308 118"/>
<path stroke-width="1" stroke="black" d="M 339 132 339 141"/>
<path stroke-width="1" stroke="black" d="M 339 132 371 122"/>
<path stroke-width="1" stroke="black" d="M 339 141 339 132"/>
<path stroke-width="1" stroke="black" d="M 371 122 339 132"/>
<path stroke-width="1" stroke="black" d="M 371 122 376 126"/>
<path stroke-width="1" stroke="black" d="M 371 122 395 100"/>
<path stroke-width="1" stroke="black" d="M 376 126 371 122"/>
<path stroke-width="1" stroke="black" d="M 395 100 371 122"/>
<path stroke-width="1" stroke="black" d="M 395 100 400 96"/>
<path stroke-width="1" stroke="black" d="M 395 100 413 81"/>
<path stroke-width="1" stroke="black" d="M 400 96 395 100"/>
<path stroke-width="1" stroke="black" d="M 413 81 395 100"/>
<path stroke-width="1" stroke="black" d="M 413 81 420 79"/>
<path stroke-width="1" stroke="black" d="M 413 81 403 66"/>
<path stroke-width="1" stroke="black" d="M 420 79 413 81"/>
<path stroke-width="1" stroke="black" d="M 403 66 413 81"/>
<path stroke-width="1" stroke="black" d="M 403 66 397 62"/>
<path stroke-width="1" stroke="black" d="M 286 53 290 87"/>
<path stroke-width="1" stroke="black" d="M 350 126 312 144"/>
<path stroke-width="1" stroke="black" d="M 286 53 286 47"/>
<path stroke-width="1" stroke="black" d="M 281 20 285 26"/>
<path stroke-width="1" stroke="black" d="M 108 76 57 69"/>
<path stroke-width="1" stroke="black" d="M 108 76 100 77"/>
<path stroke-width="1" stroke="black" d="M 108 76 168 81"/>
<path stroke-width="1" stroke="black" d="M 100 77 108 76"/>
<path stroke-width="1" stroke="black" d="M 168 81 108 76"/>
<path stroke-width="1" stroke="black" d="M 168 81 170 86"/>
<path stroke-width="1" stroke="black" d="M 168 81 228 81"/>
<path stroke-width="1" stroke="black" d="M 170 86 168 81"/>
<path stroke-width="1" stroke="black" d="M 228 81 168 81"/>
<path stroke-width="1" stroke="black" d="M 228 81 236 84"/>
<path stroke-width="1" stroke="black" d="M 228 81 280 74"/>
<path stroke-width="1" stroke="black" d="M 236 84 228 81"/>
<path stroke-width="1" stroke="black" d="M 280 74 228 81"/>
<path stroke-width="1" stroke="black" d="M 280 74 291 76"/>
<path stroke-width="1" stroke="black" d="M 280 74 311 54"/>
<path stroke-width="1" stroke="black" d="M 291 76 280 74"/>
<path stroke-width="1" stroke="black" d="M 311 54 280 74"/>
<path stroke-width="1" stroke="black" d="M 311 54 320 53"/>
<path stroke-width="1" stroke="black" d="M 311 54 305 29"/>
<path stroke-width="1" stroke="black" d="M 320 53 311 54"/>
<path stroke-width="1" stroke="black" d="M 305 29 311 54"/>
<path stroke-width="1" stroke="black" d="M 305 29 307 22"/>
<path stroke-width="1" stroke="black" d="M 305 29 285 26"/>
<path stroke-width="1" stroke="black" d="M 307 22 305 29"/>
<path stroke-width="1" stroke="black" d="M 285 26 305 29"/>
<path stroke-width="1" stroke="black" d="M 285 26 281 20"/>
<path stroke-width="1" stroke="black" d="M 285 26 286 53"/>
<path stroke-width="1" stroke="black" d="M 286 53 285 26"/>
<path stroke-width="1" stroke="black" d="M 350 126 362 121"/>
<circle cx="397" cy="62" r="20.0" style="fill:gray;stroke:black;stroke-width:1.0"/>
<circle cx="403" cy="66" r="20.0" style="fill:gray;stroke:black;stroke-width:1.0"/>
<circle cx="420" cy="79" r="20.0" style="fill:gray;stroke:black;stroke-width:1.0"/>
<circle cx="413" cy="81" r="20.0" style="fill:gray;stroke:black;stroke-width:1.0"/>
<circle cx="400" cy="96" r="20.0" style="fill:gray;stroke:black;stroke-width:1.0"/>
<circle cx="395" cy="100" r="20.0" style="fill:gray;stroke:black;stroke-width:1.0"/>
<circle cx="376" cy="126" r="20.0" style="fill:gray;stroke:black;stroke-width:1.0"/>
<circle cx="371" cy="122" r="20.0" style="fill:gray;stroke:black;stroke-width:1.0"/>
<circle cx="339" cy="141" r="20.0" style="fill:gray;stroke:black;stroke-width:1.0"/>
<circle cx="339" cy="132" r="20.0" style="fill:gray;stroke:black;stroke-width:1.0"/>
<circle cx="304" cy="124" r="20.0" style="fill:gray;stroke:black;stroke-width:1.0"/>
<circle cx="308" cy="118" r="20.0" style="fill:gray;stroke:black;stroke-width:1.0"/>
<circle cx="284" cy="87" r="20.0" style="fill:gray;stroke:black;stroke-width:1.0"/>
<circle cx="290" cy="87" r="20.0" style="fill:gray;stroke:black;stroke-width:1.0"/>
<circle cx="286" cy="47" r="20.0" style="fill:gray;stroke:black;stroke-width:1.0"/>
<circle cx="286" cy="53" r="20.0" style="fill:gray;stroke:black;stroke-width:1.0"/>
<circle cx="281" cy="20" r="20.0" style="fill:gray;stroke:black;stroke-width:1.0"/>
<circle cx="285" cy="26" r="20.0" style="fill:gray;stroke:black;stroke-width:1.0"/>
<circle cx="307" cy="22" r="20.0" style="fill:gray;stroke:black;stroke-width:1.0"/>
<circle cx="305" cy="29" r="20.0" style="fill:gray;stroke:black;stroke-width:1.0"/>
<circle cx="320" cy="53" r="20.0" style="fill:gray;stroke:black;stroke-width:1.0"/>
<circle cx="311" cy="54" r="20.0" style="fill:gray;stroke:black;stroke-width:1.0"/>
<circle cx="291" cy="76" r="20.0" style="fill:gray;stroke:black;stroke-width:1.0"/>
<circle cx="280" cy="74" r="20.0" style="fill:gray;stroke:black;stroke-width:1.0"/>
<circle cx="236" cy="84" r="20.0" style="fill:gray;stroke:black;stroke-width:1.0"/>
<circle cx="228" cy="81" r="20.0" style="fill:gray;stroke:black;stroke-width:1.0"/>
<circle cx="170" cy="86" r="20.0" style="fill:gray;stroke:black;stroke-width:1.0"/>
<circle cx="168" cy="81" r="20.0" style="fill:gray;stroke:black;stroke-width:1.0"/>
<circle cx="100" cy="77" r="20.0" style="fill:gray;stroke:black;stroke-width:1.0"/>
<circle cx="108" cy="76" r="20.0" style="fill:gray;stroke:black;stroke-width:1.0"/>
<circle cx="46" cy="69" r="20.0" style="fill:gray;stroke:black;stroke-width:1.0"/>
<circle cx="57" cy="69" r="20.0" style="fill:gray;stroke:black;stroke-width:1.0"/>
<circle cx="20" cy="51" r="20.0" style="fill:gray;stroke:black;stroke-width:1.0"/>
<circle cx="30" cy="55" r="20.0" style="fill:gray;stroke:black;stroke-width:1.0"/>
<circle cx="53" cy="58" r="20.0" style="fill:gray;stroke:black;stroke-width:1.0"/>
<circle cx="60" cy="65" r="20.0" style="fill:gray;stroke:black;stroke-width:1.0"/>
<circle cx="97" cy="86" r="20.0" style="fill:gray;stroke:black;stroke-width:1.0"/>
<circle cx="98" cy="93" r="20.0" style="fill:gray;stroke:black;stroke-width:1.0"/>
<circle cx="141" cy="129" r="20.0" style="fill:gray;stroke:black;stroke-width:1.0"/>
<circle cx="137" cy="136" r="20.0" style="fill:gray;stroke:black;stroke-width:1.0"/>
<circle cx="177" cy="184" r="20.0" style="fill:gray;stroke:black;stroke-width:1.0"/>
<circle cx="170" cy="184" r="20.0" style="fill:gray;stroke:black;stroke-width:1.0"/>
<circle cx="199" cy="241" r="20.0" style="fill:gray;stroke:black;stroke-width:1.0"/>
<circle cx="191" cy="236" r="20.0" style="fill:gray;stroke:black;stroke-width:1.0"/>
<circle cx="198" cy="291" r="20.0" style="fill:gray;stroke:black;stroke-width:1.0"/>
<circle cx="194" cy="282" r="20.0" style="fill:gray;stroke:black;stroke-width:1.0"/>
<circle cx="179" cy="320" r="20.0" style="fill:gray;stroke:black;stroke-width:1.0"/>
<circle cx="179" cy="312" r="20.0" style="fill:gray;stroke:black;stroke-width:1.0"/>
<circle cx="150" cy="319" r="20.0" style="fill:gray;stroke:black;stroke-width:1.0"/>
<circle cx="157" cy="314" r="20.0" style="fill:gray;stroke:black;stroke-width:1.0"/>
<circle cx="165" cy="296" r="20.0" style="fill:gray;stroke:black;stroke-width:1.0"/>
<circle cx="170" cy="288" r="20.0" style="fill:gray;stroke:black;stroke-width:1.0"/>
<circle cx="189" cy="257" r="20.0" style="fill:gray;stroke:black;stroke-width:1.0"/>
<circle cx="194" cy="251" r="20.0" style="fill:gray;stroke:black;stroke-width:1.0"/>
<circle cx="219" cy="208" r="20.0" style="fill:gray;stroke:black;stroke-width:1.0"/>
<circle cx="226" cy="210" r="20.0" style="fill:gray;stroke:black;stroke-width:1.0"/>
<circle cx="264" cy="166" r="20.0" style="fill:gray;stroke:black;stroke-width:1.0"/>
<circle cx="267" cy="172" r="20.0" style="fill:gray;stroke:black;stroke-width:1.0"/>
<circle cx="318" cy="138" r="20.0" style="fill:gray;stroke:black;stroke-width:1.0"/>
<circle cx="312" cy="144" r="20.0" style="fill:gray;stroke:black;stroke-width:1.0"/>
<circle cx="362" cy="121" r="20.0" style="fill:gray;stroke:black;stroke-width:1.0"/>
<circle cx="350" cy="126" r="20.0" style="fill:gray;stroke:black;stroke-width:1.0"/>
</svg>
