<svg width="440" height="340" xmlns="http://www.w3.org/2000/svg">
<path stroke-width="20.0" stroke="black" d="M 263 320 284 313"/>
<path stroke-width="20.0" stroke="black" d="M 208 78 185 78"/>
<path stroke-width="0.5" stroke="black" d="M 185 78 149 118"/>
<path stroke-width="20.0" stroke="black" d="M 185 78 208 78"/>
<path stroke-width="0.5" stroke="black" d="M 185 78 176 39"/>
<path stroke-width="20.0" stroke="black" d="M 197 30 176 39"/>
<path stroke-width="0.5" stroke="black" d="M 176 39 185 78"/>
<path stroke-width="20.0" stroke="black" d="M 176 39 197 30"/>
<path stroke-width="0.5" stroke="black" d="M 176 39 101 30"/>
<path stroke-width="20.0" stroke="black" d="M 98 20 101 30"/>
<path stroke-width="0.5" stroke="black" d="M 101 30 176 39"/>
<path stroke-width="20.0" stroke="black" d="M 101 30 98 20"/>
<path stroke-width="0.5" stroke="black" d="M 101 30 45 68"/>
<path stroke-width="20.0" stroke="black" d="M 25 59 45 68"/>
<path stroke-width="0.5" stroke="black" d="M 45 68 101 30"/>
<path stroke-width="20.0" stroke="black" d="M 45 68 25 59"/>
<path stroke-width="0.5" stroke="black" d="M 45 68 44 120"/>
<path stroke-width="20.0" stroke="black" d="M 20 118 44 120"/>
<path stroke-width="0.5" stroke="black" d="M 44 120 45 68"/>
<path stroke-width="20.0" stroke="black" d="M 44 120 20 118"/>
<path stroke-width="0.5" stroke="black" d="M 44 120 88 174"/>
<path stroke-width="20.0" stroke="black" d="M 83 185 88 174"/>
<path stroke-width="0.5" stroke="black" d="M 88 174 44 120"/>
<path stroke-width="20.0" stroke="black" d="M 88 174 83 185"/>
<path stroke-width="0.5" stroke="black" d="M 88 174 151 211"/>
<path stroke-width="8.857142857142858" stroke="black" d="M 178 224 151 211"/>
<path stroke-width="0.5" stroke="black" d="M 149 118 185 78"/>
<path stroke-width="20.0" stroke="black" d="M 149 118 162 123"/>
<path stroke-width="0.5" stroke="black" d="M 149 118 119 158"/>
<path stroke-width="20.0" stroke="black" d="M 162 123 149 118"/>
<path stroke-width="20.0" stroke="black" d="M 284 313 263 320"/>
<path stroke-width="0.5" stroke="black" d="M 284 313 348 292"/>
<path stroke-width="20.0" stroke="black" d="M 359 300 348 292"/>
<path stroke-width="0.5" stroke="black" d="M 348 292 284 313"/>
<path stroke-width="20.0" stroke="black" d="M 348 292 359 300"/>
<path stroke-width="0.5" stroke="black" d="M 348 292 396 257"/>
<path stroke-width="20.0" stroke="black" d="M 420 258 396 257"/>
<path stroke-width="0.5" stroke="black" d="M 396 257 348 292"/>
<path stroke-width="20.0" stroke="black" d="M 396 257 420 258"/>
<path stroke-width="0.5" stroke="black" d="M 396 257 374 219"/>
<path stroke-width="20.0" stroke="black" d="M 399 213 374 219"/>
<path stroke-width="0.5" stroke="black" d="M 374 219 396 257"/>
<path stroke-width="0.5" stroke="black" d="M 151 211 88 174"/>
<path stroke-width="20.0" stroke="black" d="M 374 219 399 213"/>
<path stroke-width="20.0" stroke="black" d="M 301 207 286 204"/>
<path stroke-width="0.5" stroke="black" d="M 286 204 374 219"/>
<path stroke-width="20.0" stroke="black" d="M 286 204 301 207"/>
<path stroke-width="0.5" stroke="black" d="M 286 204 190 188"/>
<path stroke-width="20.0" stroke="black" d="M 172 194 190 188"/>
<path stroke-width="0.5" stroke="black" d="M 190 188 286 204"/>
<path stroke-width="20.0" stroke="black" d="M 190 188 172 194"/>
<path stroke-width="0.5" stroke="black" d="M 190 188 119 158"/>
<path stroke-width="20.0" stroke="black" d="M 88 160 119 158"/>
<path stroke-width="0.5" stroke="black" d="M 119 158 190 188"/>
<path stroke-width="20.0" stroke="black" d="M 119 158 88 160"/>
<path stroke-width="0.5" stroke="black" d="M 119 158 149 118"/>
<path stroke-width="0.5" stroke="black" d="M 374 219 286 204"/>
<path stroke-width="8.857142857142858" stroke="black" d="M 151 211 178 224"/>
<circle cx="263" cy="320" r="7.0" style="fill:gray;stroke:black;stroke-width:1.0"/>
<circle cx="284" cy="313" r="7.0" style="fill:gray;stroke:black;stroke-width:1.0"/>
<circle cx="359" cy="300" r="7.0" style="fill:gray;stroke:black;stroke-width:1.0"/>
<circle cx="348" cy="292" r="7.0" style="fill:gray;stroke:black;stroke-width:1.0"/>
<circle cx="420" cy="258" r="7.0" style="fill:gray;stroke:black;stroke-width:1.0"/>
<circle cx="396" cy="257" r="7.0" style="fill:gray;stroke:black;stroke-width:1.0"/>
<circle cx="399" cy="213" r="7.0" style="fill:gray;stroke:black;stroke-width:1.0"/>
<circle cx="374" cy="219" r="7.0" style="fill:gray;stroke:black;stroke-width:1.0"/>
<circle cx="301" cy="207" r="7.0" style="fill:gray;stroke:black;stroke-width:1.0"/>
<circle cx="286" cy="204" r="7.0" style="fill:gray;stroke:black;stroke-width:1.0"/>
<circle cx="172" cy="194" r="7.0" style="fill:gray;stroke:black;stroke-width:1.0"/>
<circle cx="190" cy="188" r="7.0" style="fill:gray;stroke:black;stroke-width:1.0"/>
<circle cx="88" cy="160" r="7.0" style="fill:gray;stroke:black;stroke-width:1.0"/>
<circle cx="119" cy="158" r="7.0" style="fill:gray;stroke:black;stroke-width:1.0"/>
<circle cx="162" cy="123" r="7.0" style="fill:gray;stroke:black;stroke-width:1.0"/>
<circle cx="149" cy="118" r="7.0" style="fill:gray;stroke:black;stroke-width:1.0"/>
<circle cx="208" cy="78" r="7.0" style="fill:gray;stroke:black;stroke-width:1.0"/>
<circle cx="185" cy="78" r="7.0" style="fill:gray;stroke:black;stroke-width:1.0"/>
<circle cx="197" cy="30" r="7.0" style="fill:gray;stroke:black;stroke-width:1.0"/>
<circle cx="176" cy="39" r="7.0" style="fill:gray;stroke:black;stroke-width:1.0"/>
<circle cx="98" cy="20" r="7.0" style="fill:gray;stroke:black;stroke-width:1.0"/>
<circle cx="101" cy="30" r="7.0" style="fill:gray;stroke:black;stroke-width:1.0"/>
<circle cx="25" cy="59" r="7.0" style="fill:gray;stroke:black;stroke-width:1.0"/>
<circle cx="45" cy="68" r="7.0" style="fill:gray;stroke:black;stroke-width:1.0"/>
<circle cx="20" cy="118" r="7.0" style="fill:gray;stroke:black;stroke-width:1.0"/>
<circle cx="44" cy="120" r="7.0" style="fill:gray;stroke:black;stroke-width:1.0"/>
<circle cx="83" cy="185" r="7.0" style="fill:gray;stroke:black;stroke-width:1.0"/>
<circle cx="88" cy="174" r="7.0" style="fill:gray;stroke:black;stroke-width:1.0"/>
<circle cx="178" cy="224" r="7.0" style="fill:gray;stroke:black;stroke-width:1.0"/>
<circle cx="151" cy="211" r="7.0" style="fill:gray;stroke:black;stroke-width:1.0"/>
</svg>
