<svg width="440" height="340" xmlns="http://www.w3.org/2000/svg">
<path stroke-width="20.0" stroke="black" d="M 20 320 32 314"/>
<path stroke-width="20.0" stroke="black" d="M 374 37 381 34"/>
<path stroke-width="0.5" stroke="black" d="M 381 34 363 27"/>
<path stroke-width="20.0" stroke="black" d="M 381 34 374 37"/>
<path stroke-width="0.5" stroke="black" d="M 381 34 407 36"/>
<path stroke-width="20.0" stroke="black" d="M 410 26 407 36"/>
<path stroke-width="0.5" stroke="black" d="M 407 36 381 34"/>
<path stroke-width="20.0" stroke="black" d="M 407 36 410 26"/>
<path stroke-width="0.5" stroke="black" d="M 407 36 409 80"/>
<path stroke-width="20.0" stroke="black" d="M 420 75 409 80"/>
<path stroke-width="0.5" stroke="black" d="M 409 80 407 36"/>
<path stroke-width="20.0" stroke="black" d="M 409 80 420 75"/>
<path stroke-width="0.5" stroke="black" d="M 409 80 387 127"/>
<path stroke-width="20.0" stroke="black" d="M 395 130 387 127"/>
<path stroke-width="0.5" stroke="black" d="M 387 127 409 80"/>
<path stroke-width="20.0" stroke="black" d="M 387 127 395 130"/>
<path stroke-width="0.5" stroke="black" d="M 387 127 355 174"/>
<path stroke-width="20.0" stroke="black" d="M 352 178 355 174"/>
<path stroke-width="0.5" stroke="black" d="M 355 174 387 127"/>
<path stroke-width="20.0" stroke="black" d="M 355 174 352 178"/>
<path stroke-width="0.5" stroke="black" d="M 355 174 323 219"/>
<path stroke-width="20.0" stroke="black" d="M 314 224 323 219"/>
<path stroke-width="0.5" stroke="black" d="M 323 219 355 174"/>
<path stroke-width="20.0" stroke="black" d="M 323 219 314 224"/>
<path stroke-width="0.5" stroke="black" d="M 323 219 297 260"/>
<path stroke-width="8.857142857142858" stroke="black" d="M 287 275 297 260"/>
<path stroke-width="0.5" stroke="black" d="M 363 27 381 34"/>
<path stroke-width="20.0" stroke="black" d="M 363 27 373 20"/>
<path stroke-width="0.5" stroke="black" d="M 363 27 326 51"/>
<path stroke-width="20.0" stroke="black" d="M 373 20 363 27"/>
<path stroke-width="20.0" stroke="black" d="M 32 314 20 320"/>
<path stroke-width="0.5" stroke="black" d="M 32 314 76 291"/>
<path stroke-width="20.0" stroke="black" d="M 68 299 76 291"/>
<path stroke-width="0.5" stroke="black" d="M 76 291 32 314"/>
<path stroke-width="20.0" stroke="black" d="M 76 291 68 299"/>
<path stroke-width="0.5" stroke="black" d="M 76 291 131 254"/>
<path stroke-width="20.0" stroke="black" d="M 128 265 131 254"/>
<path stroke-width="0.5" stroke="black" d="M 131 254 76 291"/>
<path stroke-width="20.0" stroke="black" d="M 131 254 128 265"/>
<path stroke-width="0.5" stroke="black" d="M 131 254 186 206"/>
<path stroke-width="20.0" stroke="black" d="M 192 213 186 206"/>
<path stroke-width="0.5" stroke="black" d="M 186 206 131 254"/>
<path stroke-width="0.5" stroke="black" d="M 297 260 323 219"/>
<path stroke-width="20.0" stroke="black" d="M 186 206 192 213"/>
<path stroke-width="20.0" stroke="black" d="M 246 148 238 150"/>
<path stroke-width="0.5" stroke="black" d="M 238 150 186 206"/>
<path stroke-width="20.0" stroke="black" d="M 238 150 246 148"/>
<path stroke-width="0.5" stroke="black" d="M 238 150 284 96"/>
<path stroke-width="20.0" stroke="black" d="M 289 86 284 96"/>
<path stroke-width="0.5" stroke="black" d="M 284 96 238 150"/>
<path stroke-width="20.0" stroke="black" d="M 284 96 289 86"/>
<path stroke-width="0.5" stroke="black" d="M 284 96 326 51"/>
<path stroke-width="20.0" stroke="black" d="M 330 40 326 51"/>
<path stroke-width="0.5" stroke="black" d="M 326 51 284 96"/>
<path stroke-width="20.0" stroke="black" d="M 326 51 330 40"/>
<path stroke-width="0.5" stroke="black" d="M 326 51 363 27"/>
<path stroke-width="0.5" stroke="black" d="M 186 206 238 150"/>
<path stroke-width="8.857142857142858" stroke="black" d="M 297 260 287 275"/>
<circle cx="20" cy="320" r="20.0" style="fill:red;stroke:black;stroke-width:1.0"/>
<circle cx="32" cy="314" r="20.0" style="fill:red;stroke:black;stroke-width:1.0"/>
<circle cx="68" cy="299" r="20.0" style="fill:green;stroke:black;stroke-width:1.0"/>
<circle cx="76" cy="291" r="20.0" style="fill:green;stroke:black;stroke-width:1.0"/>
<circle cx="128" cy="265" r="20.0" style="fill:orange;stroke:black;stroke-width:1.0"/>
<circle cx="131" cy="254" r="20.0" style="fill:orange;stroke:black;stroke-width:1.0"/>
<circle cx="192" cy="213" r="20.0" style="fill:purple;stroke:black;stroke-width:1.0"/>
<circle cx="186" cy="206" r="20.0" style="fill:purple;stroke:black;stroke-width:1.0"/>
<circle cx="246" cy="148" r="20.0" style="fill:yellow;stroke:black;stroke-width:1.0"/>
<circle cx="238" cy="150" r="20.0" style="fill:yellow;stroke:black;stroke-width:1.0"/>
<circle cx="289" cy="86" r="20.0" style="fill:fuchsia;stroke:black;stroke-width:1.0"/>
<circle cx="284" cy="96" r="20.0" style="fill:fuchsia;stroke:black;stroke-width:1.0"/>
<circle cx="330" cy="40" r="20.0" style="fill:olive;stroke:black;stroke-width:1.0"/>
<circle cx="326" cy="51" r="20.0" style="fill:olive;stroke:black;stroke-width:1.0"/>
<circle cx="373" cy="20" r="20.0" style="fill:aqua;stroke:black;stroke-width:1.0"/>
<circle cx="363" cy="27" r="20.0" style="fill:aqua;stroke:black;stroke-width:1.0"/>
<circle cx="374" cy="37" r="20.0" style="fill:brown;stroke:black;stroke-width:1.0"/>
<circle cx="381" cy="34" r="20.0" style="fill:brown;stroke:black;stroke-width:1.0"/>
<circle cx="410" cy="26" r="20.0" style="fill:blue;stroke:black;stroke-width:1.0"/>
<circle cx="407" cy="36" r="20.0" style="fill:blue;stroke:black;stroke-width:1.0"/>
<circle cx="420" cy="75" r="20.0" style="fill:red;stroke:black;stroke-width:1.0"/>
<circle cx="409" cy="80" r="20.0" style="fill:red;stroke:black;stroke-width:1.0"/>
<circle cx="395" cy="130" r="20.0" style="fill:green;stroke:black;stroke-width:1.0"/>
<circle cx="387" cy="127" r="20.0" style="fill:green;stroke:black;stroke-width:1.0"/>
<circle cx="352" cy="178" r="20.0" style="fill:orange;stroke:black;stroke-width:1.0"/>
<circle cx="355" cy="174" r="20.0" style="fill:orange;stroke:black;stroke-width:1.0"/>
<circle cx="314" cy="224" r="20.0" style="fill:blue;stroke:black;stroke-width:1.0"/>
<circle cx="323" cy="219" r="20.0" style="fill:blue;stroke:black;stroke-width:1.0"/>
<circle cx="287" cy="275" r="20.0" style="fill:blue;stroke:black;stroke-width:1.0"/>
<circle cx="297" cy="260" r="20.0" style="fill:blue;stroke:black;stroke-width:1.0"/>
</svg>
