<svg width="440" height="340" xmlns="http://www.w3.org/2000/svg">
<path stroke-width="20.0" stroke="black" d="M 343 20 335 28"/>
<path stroke-width="20.0" stroke="black" d="M 49 254 50 264"/>
<path stroke-width="0.5" stroke="black" d="M 50 264 52 295"/>
<path stroke-width="20.0" stroke="black" d="M 50 264 49 254"/>
<path stroke-width="0.5" stroke="black" d="M 50 264 33 257"/>
<path stroke-width="20.0" stroke="black" d="M 20 264 33 257"/>
<path stroke-width="0.5" stroke="black" d="M 33 257 50 264"/>
<path stroke-width="20.0" stroke="black" d="M 33 257 20 264"/>
<path stroke-width="0.5" stroke="black" d="M 33 257 91 240"/>
<path stroke-width="20.0" stroke="black" d="M 77 232 91 240"/>
<path stroke-width="0.5" stroke="black" d="M 91 240 33 257"/>
<path stroke-width="20.0" stroke="black" d="M 91 240 77 232"/>
<path stroke-width="0.5" stroke="black" d="M 91 240 170 252"/>
<path stroke-width="20.0" stroke="black" d="M 157 250 170 252"/>
<path stroke-width="0.5" stroke="black" d="M 170 252 91 240"/>
<path stroke-width="20.0" stroke="black" d="M 170 252 157 250"/>
<path stroke-width="0.5" stroke="black" d="M 170 252 257 268"/>
<path stroke-width="20.0" stroke="black" d="M 267 263 257 268"/>
<path stroke-width="0.5" stroke="black" d="M 257 268 170 252"/>
<path stroke-width="20.0" stroke="black" d="M 257 268 267 263"/>
<path stroke-width="0.5" stroke="black" d="M 257 268 332 288"/>
<path stroke-width="20.0" stroke="black" d="M 346 293 332 288"/>
<path stroke-width="0.5" stroke="black" d="M 332 288 257 268"/>
<path stroke-width="20.0" stroke="black" d="M 332 288 346 293"/>
<path stroke-width="0.5" stroke="black" d="M 332 288 395 302"/>
<path stroke-width="8.857142857142858" stroke="black" d="M 420 308 395 302"/>
<path stroke-width="0.5" stroke="black" d="M 52 295 50 264"/>
<path stroke-width="20.0" stroke="black" d="M 52 295 39 300"/>
<path stroke-width="0.5" stroke="black" d="M 52 295 112 306"/>
<path stroke-width="20.0" stroke="black" d="M 39 300 52 295"/>
<path stroke-width="20.0" stroke="black" d="M 335 28 343 20"/>
<path stroke-width="0.5" stroke="black" d="M 335 28 298 56"/>
<path stroke-width="20.0" stroke="black" d="M 298 45 298 56"/>
<path stroke-width="0.5" stroke="black" d="M 298 56 335 28"/>
<path stroke-width="20.0" stroke="black" d="M 298 56 298 45"/>
<path stroke-width="0.5" stroke="black" d="M 298 56 267 99"/>
<path stroke-width="20.0" stroke="black" d="M 265 91 267 99"/>
<path stroke-width="0.5" stroke="black" d="M 267 99 298 56"/>
<path stroke-width="20.0" stroke="black" d="M 267 99 265 91"/>
<path stroke-width="0.5" stroke="black" d="M 267 99 236 156"/>
<path stroke-width="20.0" stroke="black" d="M 237 147 236 156"/>
<path stroke-width="0.5" stroke="black" d="M 236 156 267 99"/>
<path stroke-width="0.5" stroke="black" d="M 395 302 332 288"/>
<path stroke-width="20.0" stroke="black" d="M 236 156 237 147"/>
<path stroke-width="20.0" stroke="black" d="M 218 218 204 213"/>
<path stroke-width="0.5" stroke="black" d="M 204 213 236 156"/>
<path stroke-width="20.0" stroke="black" d="M 204 213 218 218"/>
<path stroke-width="0.5" stroke="black" d="M 204 213 164 272"/>
<path stroke-width="20.0" stroke="black" d="M 169 282 164 272"/>
<path stroke-width="0.5" stroke="black" d="M 164 272 204 213"/>
<path stroke-width="20.0" stroke="black" d="M 164 272 169 282"/>
<path stroke-width="0.5" stroke="black" d="M 164 272 112 306"/>
<path stroke-width="20.0" stroke="black" d="M 104 320 112 306"/>
<path stroke-width="0.5" stroke="black" d="M 112 306 164 272"/>
<path stroke-width="20.0" stroke="black" d="M 112 306 104 320"/>
<path stroke-width="0.5" stroke="black" d="M 112 306 52 295"/>
<path stroke-width="0.5" stroke="black" d="M 236 156 204 213"/>
<path stroke-width="8.857142857142858" stroke="black" d="M 395 302 420 308"/>
<circle cx="343" cy="20" r="7.0" style="fill:gray;stroke:black;stroke-width:1.0"/>
<circle cx="335" cy="28" r="7.0" style="fill:gray;stroke:black;stroke-width:1.0"/>
<circle cx="298" cy="45" r="7.0" style="fill:gray;stroke:black;stroke-width:1.0"/>
<circle cx="298" cy="56" r="7.0" style="fill:gray;stroke:black;stroke-width:1.0"/>
<circle cx="265" cy="91" r="7.0" style="fill:gray;stroke:black;stroke-width:1.0"/>
<circle cx="267" cy="99" r="7.0" style="fill:gray;stroke:black;stroke-width:1.0"/>
<circle cx="237" cy="147" r="7.0" style="fill:gray;stroke:black;stroke-width:1.0"/>
<circle cx="236" cy="156" r="7.0" style="fill:gray;stroke:black;stroke-width:1.0"/>
<circle cx="218" cy="218" r="7.0" style="fill:gray;stroke:black;stroke-width:1.0"/>
<circle cx="204" cy="213" r="7.0" style="fill:gray;stroke:black;stroke-width:1.0"/>
<circle cx="169" cy="282" r="7.0" style="fill:gray;stroke:black;stroke-width:1.0"/>
<circle cx="164" cy="272" r="7.0" style="fill:gray;stroke:black;stroke-width:1.0"/>
<circle cx="104" cy="320" r="7.0" style="fill:gray;stroke:black;stroke-width:1.0"/>
<circle cx="112" cy="306" r="7.0" style="fill:gray;stroke:black;stroke-width:1.0"/>
<circle cx="39" cy="300" r="7.0" style="fill:gray;stroke:black;stroke-width:1.0"/>
<circle cx="52" cy="295" r="7.0" style="fill:gray;stroke:black;stroke-width:1.0"/>
<circle cx="49" cy="254" r="7.0" style="fill:gray;stroke:black;stroke-width:1.0"/>
<circle cx="50" cy="264" r="7.0" style="fill:gray;stroke:black;stroke-width:1.0"/>
<circle cx="20" cy="264" r="7.0" style="fill:gray;stroke:black;stroke-width:1.0"/>
<circle cx="33" cy="257" r="7.0" style="fill:gray;stroke:black;stroke-width:1.0"/>
<circle cx="77" cy="232" r="7.0" style="fill:gray;stroke:black;stroke-width:1.0"/>
<circle cx="91" cy="240" r="7.0" style="fill:gray;stroke:black;stroke-width:1.0"/>
<circle cx="157" cy="250" r="7.0" style="fill:gray;stroke:black;stroke-width:1.0"/>
<circle cx="170" cy="252" r="7.0" style="fill:gray;stroke:black;stroke-width:1.0"/>
<circle cx="267" cy="263" r="7.0" style="fill:gray;stroke:black;stroke-width:1.0"/>
<circle cx="257" cy="268" r="7.0" style="fill:gray;stroke:black;stroke-width:1.0"/>
<circle cx="346" cy="293" r="7.0" style="fill:gray;stroke:black;stroke-width:1.0"/>
<circle cx="332" cy="288" r="7.0" style="fill:gray;stroke:black;stroke-width:1.0"/>
<circle cx="420" cy="308" r="7.0" style="fill:gray;stroke:black;stroke-width:1.0"/>
<circle cx="395" cy="302" r="7.0" style="fill:gray;stroke:black;stroke-width:1.0"/>
</svg>
