<svg width="440" height="340" xmlns="http://www.w3.org/2000/svg">
<path stroke-width="1" stroke="black" d="M 164 279 172 285"/>
<path stroke-width="1" stroke="black" d="M 420 270 408 260"/>
<path stroke-width="1" stroke="black" d="M 408 260 373 261"/>
<path stroke-width="1" stroke="black" d="M 408 260 420 270"/>
<path stroke-width="1" stroke="black" d="M 408 260 373 214"/>
<path stroke-width="1" stroke="black" d="M 388 223 373 214"/>
<path stroke-width="1" stroke="black" d="M 373 214 408 260"/>
<path stroke-width="1" stroke="black" d="M 373 214 388 223"/>
<path stroke-width="1" stroke="black" d="M 373 214 318 168"/>
<path stroke-width="1" stroke="black" d="M 328 166 318 168"/>
<path stroke-width="1" stroke="black" d="M 318 168 373 214"/>
<path stroke-width="1" stroke="black" d="M 318 168 328 166"/>
<path stroke-width="1" stroke="black" d="M 318 168 242 124"/>
<path stroke-width="1" stroke="black" d="M 251 119 242 124"/>
<path stroke-width="1" stroke="black" d="M 242 124 318 168"/>
<path stroke-width="1" stroke="black" d="M 242 124 251 119"/>
<path stroke-width="1" stroke="black" d="M 242 124 170 87"/>
<path stroke-width="1" stroke="black" d="M 163 74 170 87"/>
<path stroke-width="1" stroke="black" d="M 170 87 242 124"/>
<path stroke-width="1" stroke="black" d="M 170 87 163 74"/>
<path stroke-width="1" stroke="black" d="M 170 87 96 52"/>
<path stroke-width="1" stroke="black" d="M 86 46 96 52"/>
<path stroke-width="1" stroke="black" d="M 96 52 170 87"/>
<path stroke-width="1" stroke="black" d="M 96 52 86 46"/>
<path stroke-width="1" stroke="black" d="M 96 52 41 29"/>
<path stroke-width="1" stroke="black" d="M 20 20 41 29"/>
<path stroke-width="1" stroke="black" d="M 373 261 408 260"/>
<path stroke-width="1" stroke="black" d="M 373 261 375 273"/>
<path stroke-width="1" stroke="black" d="M 373 261 338 234"/>
<path stroke-width="1" stroke="black" d="M 375 273 373 261"/>
<path stroke-width="1" stroke="black" d="M 172 285 164 279"/>
<path stroke-width="1" stroke="black" d="M 172 285 201 295"/>
<path stroke-width="1" stroke="black" d="M 190 299 201 295"/>
<path stroke-width="1" stroke="black" d="M 201 295 172 285"/>
<path stroke-width="1" stroke="black" d="M 201 295 190 299"/>
<path stroke-width="1" stroke="black" d="M 201 295 236 308"/>
<path stroke-width="1" stroke="black" d="M 244 316 236 308"/>
<path stroke-width="1" stroke="black" d="M 236 308 201 295"/>
<path stroke-width="1" stroke="black" d="M 236 308 244 316"/>
<path stroke-width="1" stroke="black" d="M 236 308 277 308"/>
<path stroke-width="1" stroke="black" d="M 283 320 277 308"/>
<path stroke-width="1" stroke="black" d="M 277 308 236 308"/>
<path stroke-width="1" stroke="black" d="M 41 29 96 52"/>
<path stroke-width="1" stroke="black" d="M 277 308 283 320"/>
<path stroke-width="1" stroke="black" d="M 302 272 293 265"/>
<path stroke-width="1" stroke="black" d="M 293 265 277 308"/>
<path stroke-width="1" stroke="black" d="M 293 265 302 272"/>
<path stroke-width="1" stroke="black" d="M 293 265 303 221"/>
<path stroke-width="1" stroke="black" d="M 299 206 303 221"/>
<path stroke-width="1" stroke="black" d="M 303 221 293 265"/>
<path stroke-width="1" stroke="black" d="M 303 221 299 206"/>
<path stroke-width="1" stroke="black" d="M 303 221 338 234"/>
<path stroke-width="1" stroke="black" d="M 330 226 338 234"/>
<path stroke-width="1" stroke="black" d="M 338 234 303 221"/>
<path stroke-width="1" stroke="black" d="M 338 234 330 226"/>
<path stroke-width="1" stroke="black" d="M 338 234 373 261"/>
<path stroke-width="1" stroke="black" d="M 277 308 293 265"/>
<path stroke-width="1" stroke="black" d="M 41 29 20 20"/>
<circle cx="164" cy="279" r="20.0" style="fill:red;stroke:black;stroke-width:1.0"/>
<circle cx="172" cy="285" r="20.0" style="fill:red;stroke:black;stroke-width:1.0"/>
<circle cx="190" cy="299" r="20.0" style="fill:green;stroke:black;stroke-width:1.0"/>
<circle cx="201" cy="295" r="20.0" style="fill:green;stroke:black;stroke-width:1.0"/>
<circle cx="244" cy="316" r="20.0" style="fill:orange;stroke:black;stroke-width:1.0"/>
<circle cx="236" cy="308" r="20.0" style="fill:orange;stroke:black;stroke-width:1.0"/>
<circle cx="283" cy="320" r="20.0" style="fill:purple;stroke:black;stroke-width:1.0"/>
<circle cx="277" cy="308" r="20.0" style="fill:purple;stroke:black;stroke-width:1.0"/>
<circle cx="302" cy="272" r="20.0" style="fill:yellow;stroke:black;stroke-width:1.0"/>
<circle cx="293" cy="265" r="20.0" style="fill:yellow;stroke:black;stroke-width:1.0"/>
<circle cx="299" cy="206" r="20.0" style="fill:fuchsia;stroke:black;stroke-width:1.0"/>
<circle cx="303" cy="221" r="20.0" style="fill:fuchsia;stroke:black;stroke-width:1.0"/>
<circle cx="330" cy="226" r="20.0" style="fill:olive;stroke:black;stroke-width:1.0"/>
<circle cx="338" cy="234" r="20.0" style="fill:olive;stroke:black;stroke-width:1.0"/>
<circle cx="375" cy="273" r="20.0" style="fill:aqua;stroke:black;stroke-width:1.0"/>
<circle cx="373" cy="261" r="20.0" style="fill:aqua;stroke:black;stroke-width:1.0"/>
<circle cx="420" cy="270" r="20.0" style="fill:brown;stroke:black;stroke-width:1.0"/>
<circle cx="408" cy="260" r="20.0" style="fill:brown;stroke:black;stroke-width:1.0"/>
<circle cx="388" cy="223" r="20.0" style="fill:blue;stroke:black;stroke-width:1.0"/>
<circle cx="373" cy="214" r="20.0" style="fill:blue;stroke:black;stroke-width:1.0"/>
<circle cx="328" cy="166" r="20.0" style="fill:red;stroke:black;stroke-width:1.0"/>
<circle cx="318" cy="168" r="20.0" style="fill:red;stroke:black;stroke-width:1.0"/>
<circle cx="251" cy="119" r="20.0" style="fill:green;stroke:black;stroke-width:1.0"/>
<circle cx="242" cy="124" r="20.0" style="fill:green;stroke:black;stroke-width:1.0"/>
<circle cx="163" cy="74" r="20.0" style="fill:orange;stroke:black;stroke-width:1.0"/>
<circle cx="170" cy="87" r="20.0" style="fill:orange;stroke:black;stroke-width:1.0"/>
<circle cx="86" cy="46" r="20.0" style="fill:blue;stroke:black;stroke-width:1.0"/>
<circle cx="96" cy="52" r="20.0" style="fill:blue;stroke:black;stroke-width:1.0"/>
<circle cx="20" cy="20" r="20.0" style="fill:blue;stroke:black;stroke-width:1.0"/>
<circle cx="41" cy="29" r="20.0" style="fill:blue;stroke:black;stroke-width:1.0"/>
</svg>
