<svg width="440" height="340" xmlns="http://www.w3.org/2000/svg">
<path stroke-width="1" stroke="black" d="M 208 140 279 86"/>
<path stroke-width="1" stroke="black" d="M 120 39 377 80"/>
<path stroke-width="1" stroke="black" d="M 251 283 208 140"/>
<path stroke-width="1" stroke="black" d="M 251 283 279 86"/>
<path stroke-width="1" stroke="black" d="M 251 283 322 188"/>
<path stroke-width="1" stroke="black" d="M 251 283 420 176"/>
<path stroke-width="1" stroke="black" d="M 251 283 171 225"/>
<path stroke-width="1" stroke="black" d="M 251 283 138 320"/>
<path stroke-width="1" stroke="black" d="M 251 283 345 274"/>
<path stroke-width="1" stroke="black" d="M 120 39 238 20"/>
<path stroke-width="1" stroke="black" d="M 251 283 82 127"/>
<path stroke-width="1" stroke="black" d="M 251 283 55 250"/>
<path stroke-width="1" stroke="black" d="M 251 283 20 147"/>
<path stroke-width="1" stroke="black" d="M 251 283 238 20"/>
<path stroke-width="1" stroke="black" d="M 251 283 377 80"/>
<path stroke-width="1" stroke="black" d="M 55 250 208 140"/>
<path stroke-width="1" stroke="black" d="M 55 250 279 86"/>
<path stroke-width="1" stroke="black" d="M 55 250 322 188"/>
<path stroke-width="1" stroke="black" d="M 55 250 420 176"/>
<path stroke-width="1" stroke="black" d="M 251 283 120 39"/>
<path stroke-width="1" stroke="black" d="M 120 39 20 147"/>
<path stroke-width="1" stroke="black" d="M 120 39 55 250"/>
<path stroke-width="1" stroke="black" d="M 120 39 251 283"/>
<path stroke-width="1" stroke="black" d="M 82 127 322 188"/>
<path stroke-width="1" stroke="black" d="M 82 127 420 176"/>
<path stroke-width="1" stroke="black" d="M 82 127 171 225"/>
<path stroke-width="1" stroke="black" d="M 82 127 138 320"/>
<path stroke-width="1" stroke="black" d="M 82 127 345 274"/>
<path stroke-width="1" stroke="black" d="M 82 127 120 39"/>
<path stroke-width="1" stroke="black" d="M 82 127 251 283"/>
<path stroke-width="1" stroke="black" d="M 82 127 55 250"/>
<path stroke-width="1" stroke="black" d="M 82 127 20 147"/>
<path stroke-width="1" stroke="black" d="M 82 127 238 20"/>
<path stroke-width="1" stroke="black" d="M 82 127 377 80"/>
<path stroke-width="1" stroke="black" d="M 120 39 208 140"/>
<path stroke-width="1" stroke="black" d="M 120 39 279 86"/>
<path stroke-width="1" stroke="black" d="M 120 39 322 188"/>
<path stroke-width="1" stroke="black" d="M 120 39 420 176"/>
<path stroke-width="1" stroke="black" d="M 120 39 171 225"/>
<path stroke-width="1" stroke="black" d="M 120 39 138 320"/>
<path stroke-width="1" stroke="black" d="M 120 39 345 274"/>
<path stroke-width="1" stroke="black" d="M 120 39 82 127"/>
<path stroke-width="1" stroke="black" d="M 55 250 171 225"/>
<path stroke-width="1" stroke="black" d="M 55 250 138 320"/>
<path stroke-width="1" stroke="black" d="M 55 250 345 274"/>
<path stroke-width="1" stroke="black" d="M 55 250 82 127"/>
<path stroke-width="1" stroke="black" d="M 238 20 138 320"/>
<path stroke-width="1" stroke="black" d="M 238 20 345 274"/>
<path stroke-width="1" stroke="black" d="M 238 20 82 127"/>
<path stroke-width="1" stroke="black" d="M 238 20 120 39"/>
<path stroke-width="1" stroke="black" d="M 238 20 251 283"/>
<path stroke-width="1" stroke="black" d="M 238 20 55 250"/>
<path stroke-width="1" stroke="black" d="M 238 20 20 147"/>
<path stroke-width="1" stroke="black" d="M 238 20 377 80"/>
<path stroke-width="1" stroke="black" d="M 377 80 208 140"/>
<path stroke-width="1" stroke="black" d="M 377 80 279 86"/>
<path stroke-width="1" stroke="black" d="M 377 80 322 188"/>
<path stroke-width="1" stroke="black" d="M 377 80 420 176"/>
<path stroke-width="1" stroke="black" d="M 377 80 171 225"/>
<path stroke-width="1" stroke="black" d="M 377 80 138 320"/>
<path stroke-width="1" stroke="black" d="M 377 80 345 274"/>
<path stroke-width="1" stroke="black" d="M 377 80 82 127"/>
<path stroke-width="1" stroke="black" d="M 377 80 120 39"/>
<path stroke-width="1" stroke="black" d="M 377 80 251 283"/>
<path stroke-width="1" stroke="black" d="M 377 80 55 250"/>
<path stroke-width="1" stroke="black" d="M 238 20 171 225"/>
<path stroke-width="1" stroke="black" d="M 82 127 279 86"/>
<path stroke-width="1" stroke="black" d="M 238 20 420 176"/>
<path stroke-width="1" stroke="black" d="M 238 20 279 86"/>
<path stroke-width="1" stroke="black" d="M 55 250 120 39"/>
<path stroke-width="1" stroke="black" d="M 55 250 251 283"/>
<path stroke-width="1" stroke="black" d="M 55 250 20 147"/>
<path stroke-width="1" stroke="black" d="M 55 250 238 20"/>
<path stroke-width="1" stroke="black" d="M 55 250 377 80"/>
<path stroke-width="1" stroke="black" d="M 20 147 208 140"/>
<path stroke-width="1" stroke="black" d="M 20 147 279 86"/>
<path stroke-width="1" stroke="black" d="M 20 147 322 188"/>
<path stroke-width="1" stroke="black" d="M 20 147 420 176"/>
<path stroke-width="1" stroke="black" d="M 20 147 171 225"/>
<path stroke-width="1" stroke="black" d="M 20 147 138 320"/>
<path stroke-width="1" stroke="black" d="M 20 147 345 274"/>
<path stroke-width="1" stroke="black" d="M 20 147 82 127"/>
<path stroke-width="1" stroke="black" d="M 20 147 120 39"/>
<path stroke-width="1" stroke="black" d="M 20 147 251 283"/>
<path stroke-width="1" stroke="black" d="M 20 147 55 250"/>
<path stroke-width="1" stroke="black" d="M 20 147 238 20"/>
<path stroke-width="1" stroke="black" d="M 20 147 377 80"/>
<path stroke-width="1" stroke="black" d="M 238 20 208 140"/>
<path stroke-width="1" stroke="black" d="M 238 20 322 188"/>
<path stroke-width="1" stroke="black" d="M 82 127 208 140"/>
<path stroke-width="1" stroke="black" d="M 345 274 377 80"/>
<path stroke-width="1" stroke="black" d="M 345 274 238 20"/>
<path stroke-width="1" stroke="black" d="M 279 86 238 20"/>
<path stroke-width="1" stroke="black" d="M 279 86 377 80"/>
<path stroke-width="1" stroke="black" d="M 322 188 208 140"/>
<path stroke-width="1" stroke="black" d="M 322 188 279 86"/>
<path stroke-width="1" stroke="black" d="M 322 188 420 176"/>
<path stroke-width="1" stroke="black" d="M 322 188 171 225"/>
<path stroke-width="1" stroke="black" d="M 322 188 138 320"/>
<path stroke-width="1" stroke="black" d="M 322 188 345 274"/>
<path stroke-width="1" stroke="black" d="M 322 188 82 127"/>
<path stroke-width="1" stroke="black" d="M 322 188 120 39"/>
<path stroke-width="1" stroke="black" d="M 322 188 251 283"/>
<path stroke-width="1" stroke="black" d="M 322 188 55 250"/>
<path stroke-width="1" stroke="black" d="M 322 188 20 147"/>
<path stroke-width="1" stroke="black" d="M 322 188 238 20"/>
<path stroke-width="1" stroke="black" d="M 322 188 377 80"/>
<path stroke-width="1" stroke="black" d="M 420 176 208 140"/>
<path stroke-width="1" stroke="black" d="M 420 176 279 86"/>
<path stroke-width="1" stroke="black" d="M 420 176 322 188"/>
<path stroke-width="1" stroke="black" d="M 420 176 171 225"/>
<path stroke-width="1" stroke="black" d="M 279 86 20 147"/>
<path stroke-width="1" stroke="black" d="M 420 176 138 320"/>
<path stroke-width="1" stroke="black" d="M 279 86 55 250"/>
<path stroke-width="1" stroke="black" d="M 279 86 120 39"/>
<path stroke-width="1" stroke="black" d="M 208 140 322 188"/>
<path stroke-width="1" stroke="black" d="M 208 140 420 176"/>
<path stroke-width="1" stroke="black" d="M 208 140 171 225"/>
<path stroke-width="1" stroke="black" d="M 208 140 138 320"/>
<path stroke-width="1" stroke="black" d="M 208 140 345 274"/>
<path stroke-width="1" stroke="black" d="M 208 140 82 127"/>
<path stroke-width="1" stroke="black" d="M 208 140 120 39"/>
<path stroke-width="1" stroke="black" d="M 208 140 251 283"/>
<path stroke-width="1" stroke="black" d="M 208 140 55 250"/>
<path stroke-width="1" stroke="black" d="M 208 140 20 147"/>
<path stroke-width="1" stroke="black" d="M 208 140 238 20"/>
<path stroke-width="1" stroke="black" d="M 208 140 377 80"/>
<path stroke-width="1" stroke="black" d="M 279 86 208 140"/>
<path stroke-width="1" stroke="black" d="M 279 86 322 188"/>
<path stroke-width="1" stroke="black" d="M 279 86 420 176"/>
<path stroke-width="1" stroke="black" d="M 279 86 171 225"/>
<path stroke-width="1" stroke="black" d="M 279 86 138 320"/>
<path stroke-width="1" stroke="black" d="M 279 86 345 274"/>
<path stroke-width="1" stroke="black" d="M 279 86 82 127"/>
<path stroke-width="1" stroke="black" d="M 279 86 251 283"/>
<path stroke-width="1" stroke="black" d="M 377 80 20 147"/>
<path stroke-width="1" stroke="black" d="M 420 176 345 274"/>
<path stroke-width="1" stroke="black" d="M 420 176 120 39"/>
<path stroke-width="1" stroke="black" d="M 138 320 345 274"/>
<path stroke-width="1" stroke="black" d="M 138 320 82 127"/>
<path stroke-width="1" stroke="black" d="M 138 320 120 39"/>
<path stroke-width="1" stroke="black" d="M 138 320 251 283"/>
<path stroke-width="1" stroke="black" d="M 138 320 55 250"/>
<path stroke-width="1" stroke="black" d="M 138 320 20 147"/>
<path stroke-width="1" stroke="black" d="M 138 320 238 20"/>
<path stroke-width="1" stroke="black" d="M 138 320 377 80"/>
<path stroke-width="1" stroke="black" d="M 345 274 208 140"/>
<path stroke-width="1" stroke="black" d="M 345 274 279 86"/>
<path stroke-width="1" stroke="black" d="M 345 274 322 188"/>
<path stroke-width="1" stroke="black" d="M 345 274 420 176"/>
<path stroke-width="1" stroke="black" d="M 345 274 171 225"/>
<path stroke-width="1" stroke="black" d="M 345 274 138 320"/>
<path stroke-width="1" stroke="black" d="M 345 274 82 127"/>
<path stroke-width="1" stroke="black" d="M 345 274 120 39"/>
<path stroke-width="1" stroke="black" d="M 345 274 251 283"/>
<path stroke-width="1" stroke="black" d="M 345 274 55 250"/>
<path stroke-width="1" stroke="black" d="M 345 274 20 147"/>
<path stroke-width="1" stroke="black" d="M 138 320 171 225"/>
<path stroke-width="1" stroke="black" d="M 420 176 82 127"/>
<path stroke-width="1" stroke="black" d="M 138 320 420 176"/>
<path stroke-width="1" stroke="black" d="M 138 320 279 86"/>
<path stroke-width="1" stroke="black" d="M 420 176 251 283"/>
<path stroke-width="1" stroke="black" d="M 420 176 55 250"/>
<path stroke-width="1" stroke="black" d="M 420 176 20 147"/>
<path stroke-width="1" stroke="black" d="M 420 176 238 20"/>
<path stroke-width="1" stroke="black" d="M 420 176 377 80"/>
<path stroke-width="1" stroke="black" d="M 171 225 208 140"/>
<path stroke-width="1" stroke="black" d="M 171 225 279 86"/>
<path stroke-width="1" stroke="black" d="M 171 225 322 188"/>
<path stroke-width="1" stroke="black" d="M 171 225 420 176"/>
<path stroke-width="1" stroke="black" d="M 171 225 138 320"/>
<path stroke-width="1" stroke="black" d="M 171 225 345 274"/>
<path stroke-width="1" stroke="black" d="M 171 225 82 127"/>
<path stroke-width="1" stroke="black" d="M 171 225 120 39"/>
<path stroke-width="1" stroke="black" d="M 171 225 251 283"/>
<path stroke-width="1" stroke="black" d="M 171 225 55 250"/>
<path stroke-width="1" stroke="black" d="M 171 225 20 147"/>
<path stroke-width="1" stroke="black" d="M 171 225 238 20"/>
<path stroke-width="1" stroke="black" d="M 171 225 377 80"/>
<path stroke-width="1" stroke="black" d="M 138 320 208 140"/>
<path stroke-width="1" stroke="black" d="M 138 320 322 188"/>
<path stroke-width="1" stroke="black" d="M 377 80 238 20"/>
<circle cx="208" cy="140" r="7.0" style="fill:gray;stroke:black;stroke-width:1.0"/>
<circle cx="279" cy="86" r="7.0" style="fill:gray;stroke:black;stroke-width:1.0"/>
<circle cx="322" cy="188" r="7.0" style="fill:gray;stroke:black;stroke-width:1.0"/>
<circle cx="420" cy="176" r="7.0" style="fill:gray;stroke:black;stroke-width:1.0"/>
<circle cx="171" cy="225" r="7.0" style="fill:gray;stroke:black;stroke-width:1.0"/>
<circle cx="138" cy="320" r="7.0" style="fill:gray;stroke:black;stroke-width:1.0"/>
<circle cx="345" cy="274" r="7.0" style="fill:gray;stroke:black;stroke-width:1.0"/>
<circle cx="82" cy="127" r="7.0" style="fill:gray;stroke:black;stroke-width:1.0"/>
<circle cx="120" cy="39" r="7.0" style="fill:gray;stroke:black;stroke-width:1.0"/>
<circle cx="251" cy="283" r="7.0" style="fill:gray;stroke:black;stroke-width:1.0"/>
<circle cx="55" cy="250" r="7.0" style="fill:gray;stroke:black;stroke-width:1.0"/>
<circle cx="20" cy="147" r="7.0" style="fill:gray;stroke:black;stroke-width:1.0"/>
<circle cx="238" cy="20" r="7.0" style="fill:gray;stroke:black;stroke-width:1.0"/>
<circle cx="377" cy="80" r="7.0" style="fill:gray;stroke:black;stroke-width:1.0"/>
</svg>
