<svg width="440" height="340" xmlns="http://www.w3.org/2000/svg">
<path stroke-width="1" stroke="black" d="M 247 157 342 49"/>
<path stroke-width="1" stroke="black" d="M 233 20 293 320"/>
<path stroke-width="1" stroke="black" d="M 404 233 247 157"/>
<path stroke-width="1" stroke="black" d="M 404 233 342 49"/>
<path stroke-width="1" stroke="black" d="M 404 233 20 148"/>
<path stroke-width="1" stroke="black" d="M 404 233 115 291"/>
<path stroke-width="1" stroke="black" d="M 404 233 246 230"/>
<path stroke-width="1" stroke="black" d="M 404 233 327 127"/>
<path stroke-width="1" stroke="black" d="M 404 233 272 292"/>
<path stroke-width="1" stroke="black" d="M 233 20 102 46"/>
<path stroke-width="1" stroke="black" d="M 404 233 142 100"/>
<path stroke-width="1" stroke="black" d="M 404 233 99 204"/>
<path stroke-width="1" stroke="black" d="M 404 233 420 134"/>
<path stroke-width="1" stroke="black" d="M 404 233 102 46"/>
<path stroke-width="1" stroke="black" d="M 404 233 293 320"/>
<path stroke-width="1" stroke="black" d="M 99 204 247 157"/>
<path stroke-width="1" stroke="black" d="M 99 204 342 49"/>
<path stroke-width="1" stroke="black" d="M 99 204 20 148"/>
<path stroke-width="1" stroke="black" d="M 99 204 115 291"/>
<path stroke-width="1" stroke="black" d="M 404 233 233 20"/>
<path stroke-width="1" stroke="black" d="M 233 20 420 134"/>
<path stroke-width="1" stroke="black" d="M 233 20 99 204"/>
<path stroke-width="1" stroke="black" d="M 233 20 404 233"/>
<path stroke-width="1" stroke="black" d="M 142 100 20 148"/>
<path stroke-width="1" stroke="black" d="M 142 100 115 291"/>
<path stroke-width="1" stroke="black" d="M 142 100 246 230"/>
<path stroke-width="1" stroke="black" d="M 142 100 327 127"/>
<path stroke-width="1" stroke="black" d="M 142 100 272 292"/>
<path stroke-width="1" stroke="black" d="M 142 100 233 20"/>
<path stroke-width="1" stroke="black" d="M 142 100 404 233"/>
<path stroke-width="1" stroke="black" d="M 142 100 99 204"/>
<path stroke-width="1" stroke="black" d="M 142 100 420 134"/>
<path stroke-width="1" stroke="black" d="M 142 100 102 46"/>
<path stroke-width="1" stroke="black" d="M 142 100 293 320"/>
<path stroke-width="1" stroke="black" d="M 233 20 247 157"/>
<path stroke-width="1" stroke="black" d="M 233 20 342 49"/>
<path stroke-width="1" stroke="black" d="M 233 20 20 148"/>
<path stroke-width="1" stroke="black" d="M 233 20 115 291"/>
<path stroke-width="1" stroke="black" d="M 233 20 246 230"/>
<path stroke-width="1" stroke="black" d="M 233 20 327 127"/>
<path stroke-width="1" stroke="black" d="M 233 20 272 292"/>
<path stroke-width="1" stroke="black" d="M 233 20 142 100"/>
<path stroke-width="1" stroke="black" d="M 99 204 246 230"/>
<path stroke-width="1" stroke="black" d="M 99 204 327 127"/>
<path stroke-width="1" stroke="black" d="M 99 204 272 292"/>
<path stroke-width="1" stroke="black" d="M 99 204 142 100"/>
<path stroke-width="1" stroke="black" d="M 102 46 327 127"/>
<path stroke-width="1" stroke="black" d="M 102 46 272 292"/>
<path stroke-width="1" stroke="black" d="M 102 46 142 100"/>
<path stroke-width="1" stroke="black" d="M 102 46 233 20"/>
<path stroke-width="1" stroke="black" d="M 102 46 404 233"/>
<path stroke-width="1" stroke="black" d="M 102 46 99 204"/>
<path stroke-width="1" stroke="black" d="M 102 46 420 134"/>
<path stroke-width="1" stroke="black" d="M 102 46 293 320"/>
<path stroke-width="1" stroke="black" d="M 293 320 247 157"/>
<path stroke-width="1" stroke="black" d="M 293 320 342 49"/>
<path stroke-width="1" stroke="black" d="M 293 320 20 148"/>
<path stroke-width="1" stroke="black" d="M 293 320 115 291"/>
<path stroke-width="1" stroke="black" d="M 293 320 246 230"/>
<path stroke-width="1" stroke="black" d="M 293 320 327 127"/>
<path stroke-width="1" stroke="black" d="M 293 320 272 292"/>
<path stroke-width="1" stroke="black" d="M 293 320 142 100"/>
<path stroke-width="1" stroke="black" d="M 293 320 233 20"/>
<path stroke-width="1" stroke="black" d="M 293 320 404 233"/>
<path stroke-width="1" stroke="black" d="M 293 320 99 204"/>
<path stroke-width="1" stroke="black" d="M 102 46 246 230"/>
<path stroke-width="1" stroke="black" d="M 142 100 342 49"/>
<path stroke-width="1" stroke="black" d="M 102 46 115 291"/>
<path stroke-width="1" stroke="black" d="M 102 46 342 49"/>
<path stroke-width="1" stroke="black" d="M 99 204 233 20"/>
<path stroke-width="1" stroke="black" d="M 99 204 404 233"/>
<path stroke-width="1" stroke="black" d="M 99 204 420 134"/>
<path stroke-width="1" stroke="black" d="M 99 204 102 46"/>
<path stroke-width="1" stroke="black" d="M 99 204 293 320"/>
<path stroke-width="1" stroke="black" d="M 420 134 247 157"/>
<path stroke-width="1" stroke="black" d="M 420 134 342 49"/>
<path stroke-width="1" stroke="black" d="M 420 134 20 148"/>
<path stroke-width="1" stroke="black" d="M 420 134 115 291"/>
<path stroke-width="1" stroke="black" d="M 420 134 246 230"/>
<path stroke-width="1" stroke="black" d="M 420 134 327 127"/>
<path stroke-width="1" stroke="black" d="M 420 134 272 292"/>
<path stroke-width="1" stroke="black" d="M 420 134 142 100"/>
<path stroke-width="1" stroke="black" d="M 420 134 233 20"/>
<path stroke-width="1" stroke="black" d="M 420 134 404 233"/>
<path stroke-width="1" stroke="black" d="M 420 134 99 204"/>
<path stroke-width="1" stroke="black" d="M 420 134 102 46"/>
<path stroke-width="1" stroke="black" d="M 420 134 293 320"/>
<path stroke-width="1" stroke="black" d="M 102 46 247 157"/>
<path stroke-width="1" stroke="black" d="M 102 46 20 148"/>
<path stroke-width="1" stroke="black" d="M 142 100 247 157"/>
<path stroke-width="1" stroke="black" d="M 272 292 293 320"/>
<path stroke-width="1" stroke="black" d="M 272 292 102 46"/>
<path stroke-width="1" stroke="black" d="M 342 49 102 46"/>
<path stroke-width="1" stroke="black" d="M 342 49 293 320"/>
<path stroke-width="1" stroke="black" d="M 20 148 247 157"/>
<path stroke-width="1" stroke="black" d="M 20 148 342 49"/>
<path stroke-width="1" stroke="black" d="M 20 148 115 291"/>
<path stroke-width="1" stroke="black" d="M 20 148 246 230"/>
<path stroke-width="1" stroke="black" d="M 20 148 327 127"/>
<path stroke-width="1" stroke="black" d="M 20 148 272 292"/>
<path stroke-width="1" stroke="black" d="M 20 148 142 100"/>
<path stroke-width="1" stroke="black" d="M 20 148 233 20"/>
<path stroke-width="1" stroke="black" d="M 20 148 404 233"/>
<path stroke-width="1" stroke="black" d="M 20 148 99 204"/>
<path stroke-width="1" stroke="black" d="M 20 148 420 134"/>
<path stroke-width="1" stroke="black" d="M 20 148 102 46"/>
<path stroke-width="1" stroke="black" d="M 20 148 293 320"/>
<path stroke-width="1" stroke="black" d="M 115 291 247 157"/>
<path stroke-width="1" stroke="black" d="M 115 291 342 49"/>
<path stroke-width="1" stroke="black" d="M 115 291 20 148"/>
<path stroke-width="1" stroke="black" d="M 115 291 246 230"/>
<path stroke-width="1" stroke="black" d="M 342 49 420 134"/>
<path stroke-width="1" stroke="black" d="M 115 291 327 127"/>
<path stroke-width="1" stroke="black" d="M 342 49 99 204"/>
<path stroke-width="1" stroke="black" d="M 342 49 233 20"/>
<path stroke-width="1" stroke="black" d="M 247 157 20 148"/>
<path stroke-width="1" stroke="black" d="M 247 157 115 291"/>
<path stroke-width="1" stroke="black" d="M 247 157 246 230"/>
<path stroke-width="1" stroke="black" d="M 247 157 327 127"/>
<path stroke-width="1" stroke="black" d="M 247 157 272 292"/>
<path stroke-width="1" stroke="black" d="M 247 157 142 100"/>
<path stroke-width="1" stroke="black" d="M 247 157 233 20"/>
<path stroke-width="1" stroke="black" d="M 247 157 404 233"/>
<path stroke-width="1" stroke="black" d="M 247 157 99 204"/>
<path stroke-width="1" stroke="black" d="M 247 157 420 134"/>
<path stroke-width="1" stroke="black" d="M 247 157 102 46"/>
<path stroke-width="1" stroke="black" d="M 247 157 293 320"/>
<path stroke-width="1" stroke="black" d="M 342 49 247 157"/>
<path stroke-width="1" stroke="black" d="M 342 49 20 148"/>
<path stroke-width="1" stroke="black" d="M 342 49 115 291"/>
<path stroke-width="1" stroke="black" d="M 342 49 246 230"/>
<path stroke-width="1" stroke="black" d="M 342 49 327 127"/>
<path stroke-width="1" stroke="black" d="M 342 49 272 292"/>
<path stroke-width="1" stroke="black" d="M 342 49 142 100"/>
<path stroke-width="1" stroke="black" d="M 342 49 404 233"/>
<path stroke-width="1" stroke="black" d="M 293 320 420 134"/>
<path stroke-width="1" stroke="black" d="M 115 291 272 292"/>
<path stroke-width="1" stroke="black" d="M 115 291 233 20"/>
<path stroke-width="1" stroke="black" d="M 327 127 272 292"/>
<path stroke-width="1" stroke="black" d="M 327 127 142 100"/>
<path stroke-width="1" stroke="black" d="M 327 127 233 20"/>
<path stroke-width="1" stroke="black" d="M 327 127 404 233"/>
<path stroke-width="1" stroke="black" d="M 327 127 99 204"/>
<path stroke-width="1" stroke="black" d="M 327 127 420 134"/>
<path stroke-width="1" stroke="black" d="M 327 127 102 46"/>
<path stroke-width="1" stroke="black" d="M 327 127 293 320"/>
<path stroke-width="1" stroke="black" d="M 272 292 247 157"/>
<path stroke-width="1" stroke="black" d="M 272 292 342 49"/>
<path stroke-width="1" stroke="black" d="M 272 292 20 148"/>
<path stroke-width="1" stroke="black" d="M 272 292 115 291"/>
<path stroke-width="1" stroke="black" d="M 272 292 246 230"/>
<path stroke-width="1" stroke="black" d="M 272 292 327 127"/>
<path stroke-width="1" stroke="black" d="M 272 292 142 100"/>
<path stroke-width="1" stroke="black" d="M 272 292 233 20"/>
<path stroke-width="1" stroke="black" d="M 272 292 404 233"/>
<path stroke-width="1" stroke="black" d="M 272 292 99 204"/>
<path stroke-width="1" stroke="black" d="M 272 292 420 134"/>
<path stroke-width="1" stroke="black" d="M 327 127 246 230"/>
<path stroke-width="1" stroke="black" d="M 115 291 142 100"/>
<path stroke-width="1" stroke="black" d="M 327 127 115 291"/>
<path stroke-width="1" stroke="black" d="M 327 127 342 49"/>
<path stroke-width="1" stroke="black" d="M 115 291 404 233"/>
<path stroke-width="1" stroke="black" d="M 115 291 99 204"/>
<path stroke-width="1" stroke="black" d="M 115 291 420 134"/>
<path stroke-width="1" stroke="black" d="M 115 291 102 46"/>
<path stroke-width="1" stroke="black" d="M 115 291 293 320"/>
<path stroke-width="1" stroke="black" d="M 246 230 247 157"/>
<path stroke-width="1" stroke="black" d="M 246 230 342 49"/>
<path stroke-width="1" stroke="black" d="M 246 230 20 148"/>
<path stroke-width="1" stroke="black" d="M 246 230 115 291"/>
<path stroke-width="1" stroke="black" d="M 246 230 327 127"/>
<path stroke-width="1" stroke="black" d="M 246 230 272 292"/>
<path stroke-width="1" stroke="black" d="M 246 230 142 100"/>
<path stroke-width="1" stroke="black" d="M 246 230 233 20"/>
<path stroke-width="1" stroke="black" d="M 246 230 404 233"/>
<path stroke-width="1" stroke="black" d="M 246 230 99 204"/>
<path stroke-width="1" stroke="black" d="M 246 230 420 134"/>
<path stroke-width="1" stroke="black" d="M 246 230 102 46"/>
<path stroke-width="1" stroke="black" d="M 246 230 293 320"/>
<path stroke-width="1" stroke="black" d="M 327 127 247 157"/>
<path stroke-width="1" stroke="black" d="M 327 127 20 148"/>
<path stroke-width="1" stroke="black" d="M 293 320 102 46"/>
<circle cx="247" cy="157" r="7.0" style="fill:gray;stroke:black;stroke-width:1.0"/>
<circle cx="342" cy="49" r="7.0" style="fill:gray;stroke:black;stroke-width:1.0"/>
<circle cx="20" cy="148" r="7.0" style="fill:gray;stroke:black;stroke-width:1.0"/>
<circle cx="115" cy="291" r="7.0" style="fill:gray;stroke:black;stroke-width:1.0"/>
<circle cx="246" cy="230" r="7.0" style="fill:gray;stroke:black;stroke-width:1.0"/>
<circle cx="327" cy="127" r="7.0" style="fill:gray;stroke:black;stroke-width:1.0"/>
<circle cx="272" cy="292" r="7.0" style="fill:gray;stroke:black;stroke-width:1.0"/>
<circle cx="142" cy="100" r="7.0" style="fill:gray;stroke:black;stroke-width:1.0"/>
<circle cx="233" cy="20" r="7.0" style="fill:gray;stroke:black;stroke-width:1.0"/>
<circle cx="404" cy="233" r="7.0" style="fill:gray;stroke:black;stroke-width:1.0"/>
<circle cx="99" cy="204" r="7.0" style="fill:gray;stroke:black;stroke-width:1.0"/>
<circle cx="420" cy="134" r="7.0" style="fill:gray;stroke:black;stroke-width:1.0"/>
<circle cx="102" cy="46" r="7.0" style="fill:gray;stroke:black;stroke-width:1.0"/>
<circle cx="293" cy="320" r="7.0" style="fill:gray;stroke:black;stroke-width:1.0"/>
</svg>
