<svg width="440" height="340" xmlns="http://www.w3.org/2000/svg">
<path stroke-width="1" stroke="black" d="M 219 181 331 265"/>
<path stroke-width="1" stroke="black" d="M 101 112 116 228"/>
<path stroke-width="1" stroke="black" d="M 309 149 219 181"/>
<path stroke-width="1" stroke="black" d="M 309 149 331 265"/>
<path stroke-width="1" stroke="black" d="M 309 149 263 27"/>
<path stroke-width="1" stroke="black" d="M 309 149 413 117"/>
<path stroke-width="1" stroke="black" d="M 309 149 151 305"/>
<path stroke-width="1" stroke="black" d="M 309 149 149 20"/>
<path stroke-width="1" stroke="black" d="M 309 149 420 208"/>
<path stroke-width="1" stroke="black" d="M 101 112 90 52"/>
<path stroke-width="1" stroke="black" d="M 309 149 20 176"/>
<path stroke-width="1" stroke="black" d="M 309 149 357 31"/>
<path stroke-width="1" stroke="black" d="M 309 149 255 320"/>
<path stroke-width="1" stroke="black" d="M 309 149 90 52"/>
<path stroke-width="1" stroke="black" d="M 309 149 116 228"/>
<path stroke-width="1" stroke="black" d="M 357 31 219 181"/>
<path stroke-width="1" stroke="black" d="M 357 31 331 265"/>
<path stroke-width="1" stroke="black" d="M 357 31 263 27"/>
<path stroke-width="1" stroke="black" d="M 357 31 413 117"/>
<path stroke-width="1" stroke="black" d="M 309 149 101 112"/>
<path stroke-width="1" stroke="black" d="M 101 112 255 320"/>
<path stroke-width="1" stroke="black" d="M 101 112 357 31"/>
<path stroke-width="1" stroke="black" d="M 101 112 309 149"/>
<path stroke-width="1" stroke="black" d="M 20 176 263 27"/>
<path stroke-width="1" stroke="black" d="M 20 176 413 117"/>
<path stroke-width="1" stroke="black" d="M 20 176 151 305"/>
<path stroke-width="1" stroke="black" d="M 20 176 149 20"/>
<path stroke-width="1" stroke="black" d="M 20 176 420 208"/>
<path stroke-width="1" stroke="black" d="M 20 176 101 112"/>
<path stroke-width="1" stroke="black" d="M 20 176 309 149"/>
<path stroke-width="1" stroke="black" d="M 20 176 357 31"/>
<path stroke-width="1" stroke="black" d="M 20 176 255 320"/>
<path stroke-width="1" stroke="black" d="M 20 176 90 52"/>
<path stroke-width="1" stroke="black" d="M 20 176 116 228"/>
<path stroke-width="1" stroke="black" d="M 101 112 219 181"/>
<path stroke-width="1" stroke="black" d="M 101 112 331 265"/>
<path stroke-width="1" stroke="black" d="M 101 112 263 27"/>
<path stroke-width="1" stroke="black" d="M 101 112 413 117"/>
<path stroke-width="1" stroke="black" d="M 101 112 151 305"/>
<path stroke-width="1" stroke="black" d="M 101 112 149 20"/>
<path stroke-width="1" stroke="black" d="M 101 112 420 208"/>
<path stroke-width="1" stroke="black" d="M 101 112 20 176"/>
<path stroke-width="1" stroke="black" d="M 357 31 151 305"/>
<path stroke-width="1" stroke="black" d="M 357 31 149 20"/>
<path stroke-width="1" stroke="black" d="M 357 31 420 208"/>
<path stroke-width="1" stroke="black" d="M 357 31 20 176"/>
<path stroke-width="1" stroke="black" d="M 90 52 149 20"/>
<path stroke-width="1" stroke="black" d="M 90 52 420 208"/>
<path stroke-width="1" stroke="black" d="M 90 52 20 176"/>
<path stroke-width="1" stroke="black" d="M 90 52 101 112"/>
<path stroke-width="1" stroke="black" d="M 90 52 309 149"/>
<path stroke-width="1" stroke="black" d="M 90 52 357 31"/>
<path stroke-width="1" stroke="black" d="M 90 52 255 320"/>
<path stroke-width="1" stroke="black" d="M 90 52 116 228"/>
<path stroke-width="1" stroke="black" d="M 116 228 219 181"/>
<path stroke-width="1" stroke="black" d="M 116 228 331 265"/>
<path stroke-width="1" stroke="black" d="M 116 228 263 27"/>
<path stroke-width="1" stroke="black" d="M 116 228 413 117"/>
<path stroke-width="1" stroke="black" d="M 116 228 151 305"/>
<path stroke-width="1" stroke="black" d="M 116 228 149 20"/>
<path stroke-width="1" stroke="black" d="M 116 228 420 208"/>
<path stroke-width="1" stroke="black" d="M 116 228 20 176"/>
<path stroke-width="1" stroke="black" d="M 116 228 101 112"/>
<path stroke-width="1" stroke="black" d="M 116 228 309 149"/>
<path stroke-width="1" stroke="black" d="M 116 228 357 31"/>
<path stroke-width="1" stroke="black" d="M 90 52 151 305"/>
<path stroke-width="1" stroke="black" d="M 20 176 331 265"/>
<path stroke-width="1" stroke="black" d="M 90 52 413 117"/>
<path stroke-width="1" stroke="black" d="M 90 52 331 265"/>
<path stroke-width="1" stroke="black" d="M 357 31 101 112"/>
<path stroke-width="1" stroke="black" d="M 357 31 309 149"/>
<path stroke-width="1" stroke="black" d="M 357 31 255 320"/>
<path stroke-width="1" stroke="black" d="M 357 31 90 52"/>
<path stroke-width="1" stroke="black" d="M 357 31 116 228"/>
<path stroke-width="1" stroke="black" d="M 255 320 219 181"/>
<path stroke-width="1" stroke="black" d="M 255 320 331 265"/>
<path stroke-width="1" stroke="black" d="M 255 320 263 27"/>
<path stroke-width="1" stroke="black" d="M 255 320 413 117"/>
<path stroke-width="1" stroke="black" d="M 255 320 151 305"/>
<path stroke-width="1" stroke="black" d="M 255 320 149 20"/>
<path stroke-width="1" stroke="black" d="M 255 320 420 208"/>
<path stroke-width="1" stroke="black" d="M 255 320 20 176"/>
<path stroke-width="1" stroke="black" d="M 255 320 101 112"/>
<path stroke-width="1" stroke="black" d="M 255 320 309 149"/>
<path stroke-width="1" stroke="black" d="M 255 320 357 31"/>
<path stroke-width="1" stroke="black" d="M 255 320 90 52"/>
<path stroke-width="1" stroke="black" d="M 255 320 116 228"/>
<path stroke-width="1" stroke="black" d="M 90 52 219 181"/>
<path stroke-width="1" stroke="black" d="M 90 52 263 27"/>
<path stroke-width="1" stroke="black" d="M 20 176 219 181"/>
<path stroke-width="1" stroke="black" d="M 420 208 116 228"/>
<path stroke-width="1" stroke="black" d="M 420 208 90 52"/>
<path stroke-width="1" stroke="black" d="M 331 265 90 52"/>
<path stroke-width="1" stroke="black" d="M 331 265 116 228"/>
<path stroke-width="1" stroke="black" d="M 263 27 219 181"/>
<path stroke-width="1" stroke="black" d="M 263 27 331 265"/>
<path stroke-width="1" stroke="black" d="M 263 27 413 117"/>
<path stroke-width="1" stroke="black" d="M 263 27 151 305"/>
<path stroke-width="1" stroke="black" d="M 263 27 149 20"/>
<path stroke-width="1" stroke="black" d="M 263 27 420 208"/>
<path stroke-width="1" stroke="black" d="M 263 27 20 176"/>
<path stroke-width="1" stroke="black" d="M 263 27 101 112"/>
<path stroke-width="1" stroke="black" d="M 263 27 309 149"/>
<path stroke-width="1" stroke="black" d="M 263 27 357 31"/>
<path stroke-width="1" stroke="black" d="M 263 27 255 320"/>
<path stroke-width="1" stroke="black" d="M 263 27 90 52"/>
<path stroke-width="1" stroke="black" d="M 263 27 116 228"/>
<path stroke-width="1" stroke="black" d="M 413 117 219 181"/>
<path stroke-width="1" stroke="black" d="M 413 117 331 265"/>
<path stroke-width="1" stroke="black" d="M 413 117 263 27"/>
<path stroke-width="1" stroke="black" d="M 413 117 151 305"/>
<path stroke-width="1" stroke="black" d="M 331 265 255 320"/>
<path stroke-width="1" stroke="black" d="M 413 117 149 20"/>
<path stroke-width="1" stroke="black" d="M 331 265 357 31"/>
<path stroke-width="1" stroke="black" d="M 331 265 101 112"/>
<path stroke-width="1" stroke="black" d="M 219 181 263 27"/>
<path stroke-width="1" stroke="black" d="M 219 181 413 117"/>
<path stroke-width="1" stroke="black" d="M 219 181 151 305"/>
<path stroke-width="1" stroke="black" d="M 219 181 149 20"/>
<path stroke-width="1" stroke="black" d="M 219 181 420 208"/>
<path stroke-width="1" stroke="black" d="M 219 181 20 176"/>
<path stroke-width="1" stroke="black" d="M 219 181 101 112"/>
<path stroke-width="1" stroke="black" d="M 219 181 309 149"/>
<path stroke-width="1" stroke="black" d="M 219 181 357 31"/>
<path stroke-width="1" stroke="black" d="M 219 181 255 320"/>
<path stroke-width="1" stroke="black" d="M 219 181 90 52"/>
<path stroke-width="1" stroke="black" d="M 219 181 116 228"/>
<path stroke-width="1" stroke="black" d="M 331 265 219 181"/>
<path stroke-width="1" stroke="black" d="M 331 265 263 27"/>
<path stroke-width="1" stroke="black" d="M 331 265 413 117"/>
<path stroke-width="1" stroke="black" d="M 331 265 151 305"/>
<path stroke-width="1" stroke="black" d="M 331 265 149 20"/>
<path stroke-width="1" stroke="black" d="M 331 265 420 208"/>
<path stroke-width="1" stroke="black" d="M 331 265 20 176"/>
<path stroke-width="1" stroke="black" d="M 331 265 309 149"/>
<path stroke-width="1" stroke="black" d="M 116 228 255 320"/>
<path stroke-width="1" stroke="black" d="M 413 117 420 208"/>
<path stroke-width="1" stroke="black" d="M 413 117 101 112"/>
<path stroke-width="1" stroke="black" d="M 149 20 420 208"/>
<path stroke-width="1" stroke="black" d="M 149 20 20 176"/>
<path stroke-width="1" stroke="black" d="M 149 20 101 112"/>
<path stroke-width="1" stroke="black" d="M 149 20 309 149"/>
<path stroke-width="1" stroke="black" d="M 149 20 357 31"/>
<path stroke-width="1" stroke="black" d="M 149 20 255 320"/>
<path stroke-width="1" stroke="black" d="M 149 20 90 52"/>
<path stroke-width="1" stroke="black" d="M 149 20 116 228"/>
<path stroke-width="1" stroke="black" d="M 420 208 219 181"/>
<path stroke-width="1" stroke="black" d="M 420 208 331 265"/>
<path stroke-width="1" stroke="black" d="M 420 208 263 27"/>
<path stroke-width="1" stroke="black" d="M 420 208 413 117"/>
<path stroke-width="1" stroke="black" d="M 420 208 151 305"/>
<path stroke-width="1" stroke="black" d="M 420 208 149 20"/>
<path stroke-width="1" stroke="black" d="M 420 208 20 176"/>
<path stroke-width="1" stroke="black" d="M 420 208 101 112"/>
<path stroke-width="1" stroke="black" d="M 420 208 309 149"/>
<path stroke-width="1" stroke="black" d="M 420 208 357 31"/>
<path stroke-width="1" stroke="black" d="M 420 208 255 320"/>
<path stroke-width="1" stroke="black" d="M 149 20 151 305"/>
<path stroke-width="1" stroke="black" d="M 413 117 20 176"/>
<path stroke-width="1" stroke="black" d="M 149 20 413 117"/>
<path stroke-width="1" stroke="black" d="M 149 20 331 265"/>
<path stroke-width="1" stroke="black" d="M 413 117 309 149"/>
<path stroke-width="1" stroke="black" d="M 413 117 357 31"/>
<path stroke-width="1" stroke="black" d="M 413 117 255 320"/>
<path stroke-width="1" stroke="black" d="M 413 117 90 52"/>
<path stroke-width="1" stroke="black" d="M 413 117 116 228"/>
<path stroke-width="1" stroke="black" d="M 151 305 219 181"/>
<path stroke-width="1" stroke="black" d="M 151 305 331 265"/>
<path stroke-width="1" stroke="black" d="M 151 305 263 27"/>
<path stroke-width="1" stroke="black" d="M 151 305 413 117"/>
<path stroke-width="1" stroke="black" d="M 151 305 149 20"/>
<path stroke-width="1" stroke="black" d="M 151 305 420 208"/>
<path stroke-width="1" stroke="black" d="M 151 305 20 176"/>
<path stroke-width="1" stroke="black" d="M 151 305 101 112"/>
<path stroke-width="1" stroke="black" d="M 151 305 309 149"/>
<path stroke-width="1" stroke="black" d="M 151 305 357 31"/>
<path stroke-width="1" stroke="black" d="M 151 305 255 320"/>
<path stroke-width="1" stroke="black" d="M 151 305 90 52"/>
<path stroke-width="1" stroke="black" d="M 151 305 116 228"/>
<path stroke-width="1" stroke="black" d="M 149 20 219 181"/>
<path stroke-width="1" stroke="black" d="M 149 20 263 27"/>
<path stroke-width="1" stroke="black" d="M 116 228 90 52"/>
<circle cx="219" cy="181" r="7.0" style="fill:blue;stroke:black;stroke-width:1.0"/>
<circle cx="331" cy="265" r="7.0" style="fill:blue;stroke:black;stroke-width:1.0"/>
<circle cx="263" cy="27" r="7.0" style="fill:purple;stroke:black;stroke-width:1.0"/>
<circle cx="413" cy="117" r="7.0" style="fill:yellow;stroke:black;stroke-width:1.0"/>
<circle cx="151" cy="305" r="7.0" style="fill:orange;stroke:black;stroke-width:1.0"/>
<circle cx="149" cy="20" r="7.0" style="fill:green;stroke:black;stroke-width:1.0"/>
<circle cx="420" cy="208" r="7.0" style="fill:red;stroke:black;stroke-width:1.0"/>
<circle cx="20" cy="176" r="7.0" style="fill:blue;stroke:black;stroke-width:1.0"/>
<circle cx="101" cy="112" r="7.0" style="fill:blue;stroke:black;stroke-width:1.0"/>
<circle cx="309" cy="149" r="7.0" style="fill:red;stroke:black;stroke-width:1.0"/>
<circle cx="357" cy="31" r="7.0" style="fill:green;stroke:black;stroke-width:1.0"/>
<circle cx="255" cy="320" r="7.0" style="fill:orange;stroke:black;stroke-width:1.0"/>
<circle cx="90" cy="52" r="7.0" style="fill:purple;stroke:black;stroke-width:1.0"/>
<circle cx="116" cy="228" r="7.0" style="fill:yellow;stroke:black;stroke-width:1.0"/>
</svg>
