<svg width="440" height="340" xmlns="http://www.w3.org/2000/svg">
<path stroke-width="20.0" stroke="black" d="M 203 160 297 158"/>
<path stroke-width="0.5" stroke="black" d="M 86 41 20 201"/>
<path stroke-width="8.3" stroke="black" d="M 397 54 203 160"/>
<path stroke-width="0.5" stroke="black" d="M 397 54 297 158"/>
<path stroke-width="0.5" stroke="black" d="M 397 54 183 77"/>
<path stroke-width="0.5" stroke="black" d="M 397 54 88 298"/>
<path stroke-width="0.5" stroke="black" d="M 397 54 272 20"/>
<path stroke-width="0.5" stroke="black" d="M 397 54 254 320"/>
<path stroke-width="12.2" stroke="black" d="M 397 54 420 198"/>
<path stroke-width="0.5" stroke="black" d="M 86 41 177 249"/>
<path stroke-width="0.5" stroke="black" d="M 397 54 43 111"/>
<path stroke-width="0.5" stroke="black" d="M 397 54 357 268"/>
<path stroke-width="0.5" stroke="black" d="M 397 54 383 146"/>
<path stroke-width="0.5" stroke="black" d="M 397 54 177 249"/>
<path stroke-width="0.5" stroke="black" d="M 397 54 20 201"/>
<path stroke-width="8.3" stroke="black" d="M 357 268 203 160"/>
<path stroke-width="0.5" stroke="black" d="M 357 268 297 158"/>
<path stroke-width="0.5" stroke="black" d="M 357 268 183 77"/>
<path stroke-width="0.5" stroke="black" d="M 357 268 88 298"/>
<path stroke-width="0.5" stroke="black" d="M 397 54 86 41"/>
<path stroke-width="0.5" stroke="black" d="M 86 41 383 146"/>
<path stroke-width="0.5" stroke="black" d="M 86 41 357 268"/>
<path stroke-width="0.5" stroke="black" d="M 86 41 397 54"/>
<path stroke-width="0.5" stroke="black" d="M 43 111 183 77"/>
<path stroke-width="0.5" stroke="black" d="M 43 111 88 298"/>
<path stroke-width="0.5" stroke="black" d="M 43 111 272 20"/>
<path stroke-width="0.5" stroke="black" d="M 43 111 254 320"/>
<path stroke-width="0.5" stroke="black" d="M 43 111 420 198"/>
<path stroke-width="12.2" stroke="black" d="M 43 111 86 41"/>
<path stroke-width="0.5" stroke="black" d="M 43 111 397 54"/>
<path stroke-width="0.5" stroke="black" d="M 43 111 357 268"/>
<path stroke-width="0.5" stroke="black" d="M 43 111 383 146"/>
<path stroke-width="0.5" stroke="black" d="M 43 111 177 249"/>
<path stroke-width="0.5" stroke="black" d="M 43 111 20 201"/>
<path stroke-width="8.3" stroke="black" d="M 86 41 203 160"/>
<path stroke-width="0.5" stroke="black" d="M 86 41 297 158"/>
<path stroke-width="0.5" stroke="black" d="M 86 41 183 77"/>
<path stroke-width="0.5" stroke="black" d="M 86 41 88 298"/>
<path stroke-width="0.5" stroke="black" d="M 86 41 272 20"/>
<path stroke-width="0.5" stroke="black" d="M 86 41 254 320"/>
<path stroke-width="0.5" stroke="black" d="M 86 41 420 198"/>
<path stroke-width="12.2" stroke="black" d="M 86 41 43 111"/>
<path stroke-width="0.5" stroke="black" d="M 357 268 272 20"/>
<path stroke-width="12.2" stroke="black" d="M 357 268 254 320"/>
<path stroke-width="0.5" stroke="black" d="M 357 268 420 198"/>
<path stroke-width="0.5" stroke="black" d="M 357 268 43 111"/>
<path stroke-width="0.5" stroke="black" d="M 177 249 254 320"/>
<path stroke-width="0.5" stroke="black" d="M 177 249 420 198"/>
<path stroke-width="0.5" stroke="black" d="M 177 249 43 111"/>
<path stroke-width="0.5" stroke="black" d="M 177 249 86 41"/>
<path stroke-width="0.5" stroke="black" d="M 177 249 397 54"/>
<path stroke-width="0.5" stroke="black" d="M 177 249 357 268"/>
<path stroke-width="0.5" stroke="black" d="M 177 249 383 146"/>
<path stroke-width="0.5" stroke="black" d="M 177 249 20 201"/>
<path stroke-width="8.3" stroke="black" d="M 20 201 203 160"/>
<path stroke-width="0.5" stroke="black" d="M 20 201 297 158"/>
<path stroke-width="0.5" stroke="black" d="M 20 201 183 77"/>
<path stroke-width="12.2" stroke="black" d="M 20 201 88 298"/>
<path stroke-width="0.5" stroke="black" d="M 20 201 272 20"/>
<path stroke-width="0.5" stroke="black" d="M 20 201 254 320"/>
<path stroke-width="0.5" stroke="black" d="M 20 201 420 198"/>
<path stroke-width="0.5" stroke="black" d="M 20 201 43 111"/>
<path stroke-width="0.5" stroke="black" d="M 20 201 86 41"/>
<path stroke-width="0.5" stroke="black" d="M 20 201 397 54"/>
<path stroke-width="0.5" stroke="black" d="M 20 201 357 268"/>
<path stroke-width="0.5" stroke="black" d="M 177 249 272 20"/>
<path stroke-width="0.5" stroke="black" d="M 43 111 297 158"/>
<path stroke-width="0.5" stroke="black" d="M 177 249 88 298"/>
<path stroke-width="0.5" stroke="black" d="M 177 249 297 158"/>
<path stroke-width="0.5" stroke="black" d="M 357 268 86 41"/>
<path stroke-width="0.5" stroke="black" d="M 357 268 397 54"/>
<path stroke-width="0.5" stroke="black" d="M 357 268 383 146"/>
<path stroke-width="0.5" stroke="black" d="M 357 268 177 249"/>
<path stroke-width="0.5" stroke="black" d="M 357 268 20 201"/>
<path stroke-width="8.3" stroke="black" d="M 383 146 203 160"/>
<path stroke-width="0.5" stroke="black" d="M 383 146 297 158"/>
<path stroke-width="0.5" stroke="black" d="M 383 146 183 77"/>
<path stroke-width="0.5" stroke="black" d="M 383 146 88 298"/>
<path stroke-width="12.2" stroke="black" d="M 383 146 272 20"/>
<path stroke-width="0.5" stroke="black" d="M 383 146 254 320"/>
<path stroke-width="0.5" stroke="black" d="M 383 146 420 198"/>
<path stroke-width="0.5" stroke="black" d="M 383 146 43 111"/>
<path stroke-width="0.5" stroke="black" d="M 383 146 86 41"/>
<path stroke-width="0.5" stroke="black" d="M 383 146 397 54"/>
<path stroke-width="0.5" stroke="black" d="M 383 146 357 268"/>
<path stroke-width="0.5" stroke="black" d="M 383 146 177 249"/>
<path stroke-width="0.5" stroke="black" d="M 383 146 20 201"/>
<path stroke-width="8.3" stroke="black" d="M 177 249 203 160"/>
<path stroke-width="12.2" stroke="black" d="M 177 249 183 77"/>
<path stroke-width="8.3" stroke="black" d="M 43 111 203 160"/>
<path stroke-width="0.5" stroke="black" d="M 420 198 20 201"/>
<path stroke-width="0.5" stroke="black" d="M 420 198 177 249"/>
<path stroke-width="0.5" stroke="black" d="M 297 158 177 249"/>
<path stroke-width="0.5" stroke="black" d="M 297 158 20 201"/>
<path stroke-width="8.3" stroke="black" d="M 183 77 203 160"/>
<path stroke-width="0.5" stroke="black" d="M 183 77 297 158"/>
<path stroke-width="0.5" stroke="black" d="M 183 77 88 298"/>
<path stroke-width="0.5" stroke="black" d="M 183 77 272 20"/>
<path stroke-width="0.5" stroke="black" d="M 183 77 254 320"/>
<path stroke-width="0.5" stroke="black" d="M 183 77 420 198"/>
<path stroke-width="0.5" stroke="black" d="M 183 77 43 111"/>
<path stroke-width="0.5" stroke="black" d="M 183 77 86 41"/>
<path stroke-width="0.5" stroke="black" d="M 183 77 397 54"/>
<path stroke-width="0.5" stroke="black" d="M 183 77 357 268"/>
<path stroke-width="0.5" stroke="black" d="M 183 77 383 146"/>
<path stroke-width="12.2" stroke="black" d="M 183 77 177 249"/>
<path stroke-width="0.5" stroke="black" d="M 183 77 20 201"/>
<path stroke-width="8.3" stroke="black" d="M 88 298 203 160"/>
<path stroke-width="0.5" stroke="black" d="M 88 298 297 158"/>
<path stroke-width="0.5" stroke="black" d="M 88 298 183 77"/>
<path stroke-width="0.5" stroke="black" d="M 88 298 272 20"/>
<path stroke-width="0.5" stroke="black" d="M 297 158 383 146"/>
<path stroke-width="0.5" stroke="black" d="M 88 298 254 320"/>
<path stroke-width="0.5" stroke="black" d="M 297 158 357 268"/>
<path stroke-width="0.5" stroke="black" d="M 297 158 86 41"/>
<path stroke-width="8.3" stroke="black" d="M 203 160 183 77"/>
<path stroke-width="8.3" stroke="black" d="M 203 160 88 298"/>
<path stroke-width="8.3" stroke="black" d="M 203 160 272 20"/>
<path stroke-width="8.3" stroke="black" d="M 203 160 254 320"/>
<path stroke-width="8.3" stroke="black" d="M 203 160 420 198"/>
<path stroke-width="8.3" stroke="black" d="M 203 160 43 111"/>
<path stroke-width="8.3" stroke="black" d="M 203 160 86 41"/>
<path stroke-width="8.3" stroke="black" d="M 203 160 397 54"/>
<path stroke-width="8.3" stroke="black" d="M 203 160 357 268"/>
<path stroke-width="8.3" stroke="black" d="M 203 160 383 146"/>
<path stroke-width="8.3" stroke="black" d="M 203 160 177 249"/>
<path stroke-width="8.3" stroke="black" d="M 203 160 20 201"/>
<path stroke-width="20.0" stroke="black" d="M 297 158 203 160"/>
<path stroke-width="0.5" stroke="black" d="M 297 158 183 77"/>
<path stroke-width="0.5" stroke="black" d="M 297 158 88 298"/>
<path stroke-width="0.5" stroke="black" d="M 297 158 272 20"/>
<path stroke-width="0.5" stroke="black" d="M 297 158 254 320"/>
<path stroke-width="0.5" stroke="black" d="M 297 158 420 198"/>
<path stroke-width="0.5" stroke="black" d="M 297 158 43 111"/>
<path stroke-width="0.5" stroke="black" d="M 297 158 397 54"/>
<path stroke-width="0.5" stroke="black" d="M 20 201 383 146"/>
<path stroke-width="0.5" stroke="black" d="M 88 298 420 198"/>
<path stroke-width="0.5" stroke="black" d="M 88 298 86 41"/>
<path stroke-width="0.5" stroke="black" d="M 254 320 420 198"/>
<path stroke-width="0.5" stroke="black" d="M 254 320 43 111"/>
<path stroke-width="0.5" stroke="black" d="M 254 320 86 41"/>
<path stroke-width="0.5" stroke="black" d="M 254 320 397 54"/>
<path stroke-width="12.2" stroke="black" d="M 254 320 357 268"/>
<path stroke-width="0.5" stroke="black" d="M 254 320 383 146"/>
<path stroke-width="0.5" stroke="black" d="M 254 320 177 249"/>
<path stroke-width="0.5" stroke="black" d="M 254 320 20 201"/>
<path stroke-width="8.3" stroke="black" d="M 420 198 203 160"/>
<path stroke-width="0.5" stroke="black" d="M 420 198 297 158"/>
<path stroke-width="0.5" stroke="black" d="M 420 198 183 77"/>
<path stroke-width="0.5" stroke="black" d="M 420 198 88 298"/>
<path stroke-width="0.5" stroke="black" d="M 420 198 272 20"/>
<path stroke-width="0.5" stroke="black" d="M 420 198 254 320"/>
<path stroke-width="0.5" stroke="black" d="M 420 198 43 111"/>
<path stroke-width="0.5" stroke="black" d="M 420 198 86 41"/>
<path stroke-width="12.2" stroke="black" d="M 420 198 397 54"/>
<path stroke-width="0.5" stroke="black" d="M 420 198 357 268"/>
<path stroke-width="0.5" stroke="black" d="M 420 198 383 146"/>
<path stroke-width="0.5" stroke="black" d="M 254 320 272 20"/>
<path stroke-width="0.5" stroke="black" d="M 88 298 43 111"/>
<path stroke-width="0.5" stroke="black" d="M 254 320 88 298"/>
<path stroke-width="0.5" stroke="black" d="M 254 320 297 158"/>
<path stroke-width="0.5" stroke="black" d="M 88 298 397 54"/>
<path stroke-width="0.5" stroke="black" d="M 88 298 357 268"/>
<path stroke-width="0.5" stroke="black" d="M 88 298 383 146"/>
<path stroke-width="0.5" stroke="black" d="M 88 298 177 249"/>
<path stroke-width="12.2" stroke="black" d="M 88 298 20 201"/>
<path stroke-width="8.3" stroke="black" d="M 272 20 203 160"/>
<path stroke-width="0.5" stroke="black" d="M 272 20 297 158"/>
<path stroke-width="0.5" stroke="black" d="M 272 20 183 77"/>
<path stroke-width="0.5" stroke="black" d="M 272 20 88 298"/>
<path stroke-width="0.5" stroke="black" d="M 272 20 254 320"/>
<path stroke-width="0.5" stroke="black" d="M 272 20 420 198"/>
<path stroke-width="0.5" stroke="black" d="M 272 20 43 111"/>
<path stroke-width="0.5" stroke="black" d="M 272 20 86 41"/>
<path stroke-width="0.5" stroke="black" d="M 272 20 397 54"/>
<path stroke-width="0.5" stroke="black" d="M 272 20 357 268"/>
<path stroke-width="12.2" stroke="black" d="M 272 20 383 146"/>
<path stroke-width="0.5" stroke="black" d="M 272 20 177 249"/>
<path stroke-width="0.5" stroke="black" d="M 272 20 20 201"/>
<path stroke-width="8.3" stroke="black" d="M 254 320 203 160"/>
<path stroke-width="0.5" stroke="black" d="M 254 320 183 77"/>
<path stroke-width="0.5" stroke="black" d="M 20 201 177 249"/>
<circle cx="203" cy="160" r="7.0" style="fill:blue;stroke:black;stroke-width:1.0"/>
<circle cx="297" cy="158" r="7.0" style="fill:blue;stroke:black;stroke-width:1.0"/>
<circle cx="183" cy="77" r="7.0" style="fill:purple;stroke:black;stroke-width:1.0"/>
<circle cx="88" cy="298" r="7.0" style="fill:yellow;stroke:black;stroke-width:1.0"/>
<circle cx="272" cy="20" r="7.0" style="fill:orange;stroke:black;stroke-width:1.0"/>
<circle cx="254" cy="320" r="7.0" style="fill:green;stroke:black;stroke-width:1.0"/>
<circle cx="420" cy="198" r="7.0" style="fill:red;stroke:black;stroke-width:1.0"/>
<circle cx="43" cy="111" r="7.0" style="fill:blue;stroke:black;stroke-width:1.0"/>
<circle cx="86" cy="41" r="7.0" style="fill:blue;stroke:black;stroke-width:1.0"/>
<circle cx="397" cy="54" r="7.0" style="fill:red;stroke:black;stroke-width:1.0"/>
<circle cx="357" cy="268" r="7.0" style="fill:green;stroke:black;stroke-width:1.0"/>
<circle cx="383" cy="146" r="7.0" style="fill:orange;stroke:black;stroke-width:1.0"/>
<circle cx="177" cy="249" r="7.0" style="fill:purple;stroke:black;stroke-width:1.0"/>
<circle cx="20" cy="201" r="7.0" style="fill:yellow;stroke:black;stroke-width:1.0"/>
</svg>
