<svg width="440" height="340" xmlns="http://www.w3.org/2000/svg">
<path stroke-width="20.0" stroke="black" d="M 232 185 420 125"/>
<path stroke-width="0.5" stroke="black" d="M 390 293 177 54"/>
<path stroke-width="8.3" stroke="black" d="M 43 255 232 185"/>
<path stroke-width="0.5" stroke="black" d="M 43 255 420 125"/>
<path stroke-width="0.5" stroke="black" d="M 43 255 274 20"/>
<path stroke-width="0.5" stroke="black" d="M 43 255 125 166"/>
<path stroke-width="0.5" stroke="black" d="M 43 255 390 206"/>
<path stroke-width="0.5" stroke="black" d="M 43 255 20 168"/>
<path stroke-width="12.2" stroke="black" d="M 43 255 113 310"/>
<path stroke-width="0.5" stroke="black" d="M 390 293 80 61"/>
<path stroke-width="0.5" stroke="black" d="M 43 255 281 299"/>
<path stroke-width="0.5" stroke="black" d="M 43 255 203 320"/>
<path stroke-width="0.5" stroke="black" d="M 43 255 326 96"/>
<path stroke-width="0.5" stroke="black" d="M 43 255 80 61"/>
<path stroke-width="0.5" stroke="black" d="M 43 255 177 54"/>
<path stroke-width="8.3" stroke="black" d="M 203 320 232 185"/>
<path stroke-width="0.5" stroke="black" d="M 203 320 420 125"/>
<path stroke-width="0.5" stroke="black" d="M 203 320 274 20"/>
<path stroke-width="0.5" stroke="black" d="M 203 320 125 166"/>
<path stroke-width="0.5" stroke="black" d="M 43 255 390 293"/>
<path stroke-width="0.5" stroke="black" d="M 390 293 326 96"/>
<path stroke-width="0.5" stroke="black" d="M 390 293 203 320"/>
<path stroke-width="0.5" stroke="black" d="M 390 293 43 255"/>
<path stroke-width="0.5" stroke="black" d="M 281 299 274 20"/>
<path stroke-width="0.5" stroke="black" d="M 281 299 125 166"/>
<path stroke-width="0.5" stroke="black" d="M 281 299 390 206"/>
<path stroke-width="0.5" stroke="black" d="M 281 299 20 168"/>
<path stroke-width="0.5" stroke="black" d="M 281 299 113 310"/>
<path stroke-width="12.2" stroke="black" d="M 281 299 390 293"/>
<path stroke-width="0.5" stroke="black" d="M 281 299 43 255"/>
<path stroke-width="0.5" stroke="black" d="M 281 299 203 320"/>
<path stroke-width="0.5" stroke="black" d="M 281 299 326 96"/>
<path stroke-width="0.5" stroke="black" d="M 281 299 80 61"/>
<path stroke-width="0.5" stroke="black" d="M 281 299 177 54"/>
<path stroke-width="8.3" stroke="black" d="M 390 293 232 185"/>
<path stroke-width="0.5" stroke="black" d="M 390 293 420 125"/>
<path stroke-width="0.5" stroke="black" d="M 390 293 274 20"/>
<path stroke-width="0.5" stroke="black" d="M 390 293 125 166"/>
<path stroke-width="0.5" stroke="black" d="M 390 293 390 206"/>
<path stroke-width="0.5" stroke="black" d="M 390 293 20 168"/>
<path stroke-width="0.5" stroke="black" d="M 390 293 113 310"/>
<path stroke-width="12.2" stroke="black" d="M 390 293 281 299"/>
<path stroke-width="0.5" stroke="black" d="M 203 320 390 206"/>
<path stroke-width="12.2" stroke="black" d="M 203 320 20 168"/>
<path stroke-width="0.5" stroke="black" d="M 203 320 113 310"/>
<path stroke-width="0.5" stroke="black" d="M 203 320 281 299"/>
<path stroke-width="0.5" stroke="black" d="M 80 61 20 168"/>
<path stroke-width="0.5" stroke="black" d="M 80 61 113 310"/>
<path stroke-width="0.5" stroke="black" d="M 80 61 281 299"/>
<path stroke-width="0.5" stroke="black" d="M 80 61 390 293"/>
<path stroke-width="0.5" stroke="black" d="M 80 61 43 255"/>
<path stroke-width="0.5" stroke="black" d="M 80 61 203 320"/>
<path stroke-width="0.5" stroke="black" d="M 80 61 326 96"/>
<path stroke-width="0.5" stroke="black" d="M 80 61 177 54"/>
<path stroke-width="8.3" stroke="black" d="M 177 54 232 185"/>
<path stroke-width="0.5" stroke="black" d="M 177 54 420 125"/>
<path stroke-width="0.5" stroke="black" d="M 177 54 274 20"/>
<path stroke-width="12.2" stroke="black" d="M 177 54 125 166"/>
<path stroke-width="0.5" stroke="black" d="M 177 54 390 206"/>
<path stroke-width="0.5" stroke="black" d="M 177 54 20 168"/>
<path stroke-width="0.5" stroke="black" d="M 177 54 113 310"/>
<path stroke-width="0.5" stroke="black" d="M 177 54 281 299"/>
<path stroke-width="0.5" stroke="black" d="M 177 54 390 293"/>
<path stroke-width="0.5" stroke="black" d="M 177 54 43 255"/>
<path stroke-width="0.5" stroke="black" d="M 177 54 203 320"/>
<path stroke-width="0.5" stroke="black" d="M 80 61 390 206"/>
<path stroke-width="0.5" stroke="black" d="M 281 299 420 125"/>
<path stroke-width="0.5" stroke="black" d="M 80 61 125 166"/>
<path stroke-width="0.5" stroke="black" d="M 80 61 420 125"/>
<path stroke-width="0.5" stroke="black" d="M 203 320 390 293"/>
<path stroke-width="0.5" stroke="black" d="M 203 320 43 255"/>
<path stroke-width="0.5" stroke="black" d="M 203 320 326 96"/>
<path stroke-width="0.5" stroke="black" d="M 203 320 80 61"/>
<path stroke-width="0.5" stroke="black" d="M 203 320 177 54"/>
<path stroke-width="8.3" stroke="black" d="M 326 96 232 185"/>
<path stroke-width="0.5" stroke="black" d="M 326 96 420 125"/>
<path stroke-width="0.5" stroke="black" d="M 326 96 274 20"/>
<path stroke-width="0.5" stroke="black" d="M 326 96 125 166"/>
<path stroke-width="12.2" stroke="black" d="M 326 96 390 206"/>
<path stroke-width="0.5" stroke="black" d="M 326 96 20 168"/>
<path stroke-width="0.5" stroke="black" d="M 326 96 113 310"/>
<path stroke-width="0.5" stroke="black" d="M 326 96 281 299"/>
<path stroke-width="0.5" stroke="black" d="M 326 96 390 293"/>
<path stroke-width="0.5" stroke="black" d="M 326 96 43 255"/>
<path stroke-width="0.5" stroke="black" d="M 326 96 203 320"/>
<path stroke-width="0.5" stroke="black" d="M 326 96 80 61"/>
<path stroke-width="0.5" stroke="black" d="M 326 96 177 54"/>
<path stroke-width="8.3" stroke="black" d="M 80 61 232 185"/>
<path stroke-width="12.2" stroke="black" d="M 80 61 274 20"/>
<path stroke-width="8.3" stroke="black" d="M 281 299 232 185"/>
<path stroke-width="0.5" stroke="black" d="M 113 310 177 54"/>
<path stroke-width="0.5" stroke="black" d="M 113 310 80 61"/>
<path stroke-width="0.5" stroke="black" d="M 420 125 80 61"/>
<path stroke-width="0.5" stroke="black" d="M 420 125 177 54"/>
<path stroke-width="8.3" stroke="black" d="M 274 20 232 185"/>
<path stroke-width="0.5" stroke="black" d="M 274 20 420 125"/>
<path stroke-width="0.5" stroke="black" d="M 274 20 125 166"/>
<path stroke-width="0.5" stroke="black" d="M 274 20 390 206"/>
<path stroke-width="0.5" stroke="black" d="M 274 20 20 168"/>
<path stroke-width="0.5" stroke="black" d="M 274 20 113 310"/>
<path stroke-width="0.5" stroke="black" d="M 274 20 281 299"/>
<path stroke-width="0.5" stroke="black" d="M 274 20 390 293"/>
<path stroke-width="0.5" stroke="black" d="M 274 20 43 255"/>
<path stroke-width="0.5" stroke="black" d="M 274 20 203 320"/>
<path stroke-width="0.5" stroke="black" d="M 274 20 326 96"/>
<path stroke-width="12.2" stroke="black" d="M 274 20 80 61"/>
<path stroke-width="0.5" stroke="black" d="M 274 20 177 54"/>
<path stroke-width="8.3" stroke="black" d="M 125 166 232 185"/>
<path stroke-width="0.5" stroke="black" d="M 125 166 420 125"/>
<path stroke-width="0.5" stroke="black" d="M 125 166 274 20"/>
<path stroke-width="0.5" stroke="black" d="M 125 166 390 206"/>
<path stroke-width="0.5" stroke="black" d="M 420 125 326 96"/>
<path stroke-width="0.5" stroke="black" d="M 125 166 20 168"/>
<path stroke-width="0.5" stroke="black" d="M 420 125 203 320"/>
<path stroke-width="0.5" stroke="black" d="M 420 125 390 293"/>
<path stroke-width="8.3" stroke="black" d="M 232 185 274 20"/>
<path stroke-width="8.3" stroke="black" d="M 232 185 125 166"/>
<path stroke-width="8.3" stroke="black" d="M 232 185 390 206"/>
<path stroke-width="8.3" stroke="black" d="M 232 185 20 168"/>
<path stroke-width="8.3" stroke="black" d="M 232 185 113 310"/>
<path stroke-width="8.3" stroke="black" d="M 232 185 281 299"/>
<path stroke-width="8.3" stroke="black" d="M 232 185 390 293"/>
<path stroke-width="8.3" stroke="black" d="M 232 185 43 255"/>
<path stroke-width="8.3" stroke="black" d="M 232 185 203 320"/>
<path stroke-width="8.3" stroke="black" d="M 232 185 326 96"/>
<path stroke-width="8.3" stroke="black" d="M 232 185 80 61"/>
<path stroke-width="8.3" stroke="black" d="M 232 185 177 54"/>
<path stroke-width="20.0" stroke="black" d="M 420 125 232 185"/>
<path stroke-width="0.5" stroke="black" d="M 420 125 274 20"/>
<path stroke-width="0.5" stroke="black" d="M 420 125 125 166"/>
<path stroke-width="0.5" stroke="black" d="M 420 125 390 206"/>
<path stroke-width="0.5" stroke="black" d="M 420 125 20 168"/>
<path stroke-width="0.5" stroke="black" d="M 420 125 113 310"/>
<path stroke-width="0.5" stroke="black" d="M 420 125 281 299"/>
<path stroke-width="0.5" stroke="black" d="M 420 125 43 255"/>
<path stroke-width="0.5" stroke="black" d="M 177 54 326 96"/>
<path stroke-width="0.5" stroke="black" d="M 125 166 113 310"/>
<path stroke-width="0.5" stroke="black" d="M 125 166 390 293"/>
<path stroke-width="0.5" stroke="black" d="M 20 168 113 310"/>
<path stroke-width="0.5" stroke="black" d="M 20 168 281 299"/>
<path stroke-width="0.5" stroke="black" d="M 20 168 390 293"/>
<path stroke-width="0.5" stroke="black" d="M 20 168 43 255"/>
<path stroke-width="12.2" stroke="black" d="M 20 168 203 320"/>
<path stroke-width="0.5" stroke="black" d="M 20 168 326 96"/>
<path stroke-width="0.5" stroke="black" d="M 20 168 80 61"/>
<path stroke-width="0.5" stroke="black" d="M 20 168 177 54"/>
<path stroke-width="8.3" stroke="black" d="M 113 310 232 185"/>
<path stroke-width="0.5" stroke="black" d="M 113 310 420 125"/>
<path stroke-width="0.5" stroke="black" d="M 113 310 274 20"/>
<path stroke-width="0.5" stroke="black" d="M 113 310 125 166"/>
<path stroke-width="0.5" stroke="black" d="M 113 310 390 206"/>
<path stroke-width="0.5" stroke="black" d="M 113 310 20 168"/>
<path stroke-width="0.5" stroke="black" d="M 113 310 281 299"/>
<path stroke-width="0.5" stroke="black" d="M 113 310 390 293"/>
<path stroke-width="12.2" stroke="black" d="M 113 310 43 255"/>
<path stroke-width="0.5" stroke="black" d="M 113 310 203 320"/>
<path stroke-width="0.5" stroke="black" d="M 113 310 326 96"/>
<path stroke-width="0.5" stroke="black" d="M 20 168 390 206"/>
<path stroke-width="0.5" stroke="black" d="M 125 166 281 299"/>
<path stroke-width="0.5" stroke="black" d="M 20 168 125 166"/>
<path stroke-width="0.5" stroke="black" d="M 20 168 420 125"/>
<path stroke-width="0.5" stroke="black" d="M 125 166 43 255"/>
<path stroke-width="0.5" stroke="black" d="M 125 166 203 320"/>
<path stroke-width="0.5" stroke="black" d="M 125 166 326 96"/>
<path stroke-width="0.5" stroke="black" d="M 125 166 80 61"/>
<path stroke-width="12.2" stroke="black" d="M 125 166 177 54"/>
<path stroke-width="8.3" stroke="black" d="M 390 206 232 185"/>
<path stroke-width="0.5" stroke="black" d="M 390 206 420 125"/>
<path stroke-width="0.5" stroke="black" d="M 390 206 274 20"/>
<path stroke-width="0.5" stroke="black" d="M 390 206 125 166"/>
<path stroke-width="0.5" stroke="black" d="M 390 206 20 168"/>
<path stroke-width="0.5" stroke="black" d="M 390 206 113 310"/>
<path stroke-width="0.5" stroke="black" d="M 390 206 281 299"/>
<path stroke-width="0.5" stroke="black" d="M 390 206 390 293"/>
<path stroke-width="0.5" stroke="black" d="M 390 206 43 255"/>
<path stroke-width="0.5" stroke="black" d="M 390 206 203 320"/>
<path stroke-width="12.2" stroke="black" d="M 390 206 326 96"/>
<path stroke-width="0.5" stroke="black" d="M 390 206 80 61"/>
<path stroke-width="0.5" stroke="black" d="M 390 206 177 54"/>
<path stroke-width="8.3" stroke="black" d="M 20 168 232 185"/>
<path stroke-width="0.5" stroke="black" d="M 20 168 274 20"/>
<path stroke-width="0.5" stroke="black" d="M 177 54 80 61"/>
<circle cx="232" cy="185" r="20.0" style="fill:gray;stroke:black;stroke-width:1.0"/>
<circle cx="420" cy="125" r="20.0" style="fill:gray;stroke:black;stroke-width:1.0"/>
<circle cx="274" cy="20" r="20.0" style="fill:gray;stroke:black;stroke-width:1.0"/>
<circle cx="125" cy="166" r="20.0" style="fill:gray;stroke:black;stroke-width:1.0"/>
<circle cx="390" cy="206" r="20.0" style="fill:gray;stroke:black;stroke-width:1.0"/>
<circle cx="20" cy="168" r="20.0" style="fill:gray;stroke:black;stroke-width:1.0"/>
<circle cx="113" cy="310" r="20.0" style="fill:gray;stroke:black;stroke-width:1.0"/>
<circle cx="281" cy="299" r="20.0" style="fill:gray;stroke:black;stroke-width:1.0"/>
<circle cx="390" cy="293" r="20.0" style="fill:gray;stroke:black;stroke-width:1.0"/>
<circle cx="43" cy="255" r="20.0" style="fill:gray;stroke:black;stroke-width:1.0"/>
<circle cx="203" cy="320" r="20.0" style="fill:gray;stroke:black;stroke-width:1.0"/>
<circle cx="326" cy="96" r="20.0" style="fill:gray;stroke:black;stroke-width:1.0"/>
<circle cx="80" cy="61" r="20.0" style="fill:gray;stroke:black;stroke-width:1.0"/>
<circle cx="177" cy="54" r="20.0" style="fill:gray;stroke:black;stroke-width:1.0"/>
</svg>
