<svg width="440" height="340" xmlns="http://www.w3.org/2000/svg">
<path stroke-width="1" stroke="black" d="M 221 186 212 320"/>
<path stroke-width="1" stroke="black" d="M 420 115 20 175"/>
<path stroke-width="1" stroke="black" d="M 304 127 221 186"/>
<path stroke-width="1" stroke="black" d="M 304 127 212 320"/>
<path stroke-width="1" stroke="black" d="M 304 127 176 101"/>
<path stroke-width="1" stroke="black" d="M 304 127 74 268"/>
<path stroke-width="1" stroke="black" d="M 304 127 273 280"/>
<path stroke-width="1" stroke="black" d="M 304 127 58 82"/>
<path stroke-width="1" stroke="black" d="M 304 127 389 272"/>
<path stroke-width="1" stroke="black" d="M 420 115 403 159"/>
<path stroke-width="1" stroke="black" d="M 304 127 331 40"/>
<path stroke-width="1" stroke="black" d="M 304 127 185 20"/>
<path stroke-width="1" stroke="black" d="M 304 127 108 226"/>
<path stroke-width="1" stroke="black" d="M 304 127 403 159"/>
<path stroke-width="1" stroke="black" d="M 304 127 20 175"/>
<path stroke-width="1" stroke="black" d="M 185 20 221 186"/>
<path stroke-width="1" stroke="black" d="M 185 20 212 320"/>
<path stroke-width="1" stroke="black" d="M 185 20 176 101"/>
<path stroke-width="1" stroke="black" d="M 185 20 74 268"/>
<path stroke-width="1" stroke="black" d="M 304 127 420 115"/>
<path stroke-width="1" stroke="black" d="M 420 115 108 226"/>
<path stroke-width="1" stroke="black" d="M 420 115 185 20"/>
<path stroke-width="1" stroke="black" d="M 420 115 304 127"/>
<path stroke-width="1" stroke="black" d="M 331 40 176 101"/>
<path stroke-width="1" stroke="black" d="M 331 40 74 268"/>
<path stroke-width="1" stroke="black" d="M 331 40 273 280"/>
<path stroke-width="1" stroke="black" d="M 331 40 58 82"/>
<path stroke-width="1" stroke="black" d="M 331 40 389 272"/>
<path stroke-width="1" stroke="black" d="M 331 40 420 115"/>
<path stroke-width="1" stroke="black" d="M 331 40 304 127"/>
<path stroke-width="1" stroke="black" d="M 331 40 185 20"/>
<path stroke-width="1" stroke="black" d="M 331 40 108 226"/>
<path stroke-width="1" stroke="black" d="M 331 40 403 159"/>
<path stroke-width="1" stroke="black" d="M 331 40 20 175"/>
<path stroke-width="1" stroke="black" d="M 420 115 221 186"/>
<path stroke-width="1" stroke="black" d="M 420 115 212 320"/>
<path stroke-width="1" stroke="black" d="M 420 115 176 101"/>
<path stroke-width="1" stroke="black" d="M 420 115 74 268"/>
<path stroke-width="1" stroke="black" d="M 420 115 273 280"/>
<path stroke-width="1" stroke="black" d="M 420 115 58 82"/>
<path stroke-width="1" stroke="black" d="M 420 115 389 272"/>
<path stroke-width="1" stroke="black" d="M 420 115 331 40"/>
<path stroke-width="1" stroke="black" d="M 185 20 273 280"/>
<path stroke-width="1" stroke="black" d="M 185 20 58 82"/>
<path stroke-width="1" stroke="black" d="M 185 20 389 272"/>
<path stroke-width="1" stroke="black" d="M 185 20 331 40"/>
<path stroke-width="1" stroke="black" d="M 403 159 58 82"/>
<path stroke-width="1" stroke="black" d="M 403 159 389 272"/>
<path stroke-width="1" stroke="black" d="M 403 159 331 40"/>
<path stroke-width="1" stroke="black" d="M 403 159 420 115"/>
<path stroke-width="1" stroke="black" d="M 403 159 304 127"/>
<path stroke-width="1" stroke="black" d="M 403 159 185 20"/>
<path stroke-width="1" stroke="black" d="M 403 159 108 226"/>
<path stroke-width="1" stroke="black" d="M 403 159 20 175"/>
<path stroke-width="1" stroke="black" d="M 20 175 221 186"/>
<path stroke-width="1" stroke="black" d="M 20 175 212 320"/>
<path stroke-width="1" stroke="black" d="M 20 175 176 101"/>
<path stroke-width="1" stroke="black" d="M 20 175 74 268"/>
<path stroke-width="1" stroke="black" d="M 20 175 273 280"/>
<path stroke-width="1" stroke="black" d="M 20 175 58 82"/>
<path stroke-width="1" stroke="black" d="M 20 175 389 272"/>
<path stroke-width="1" stroke="black" d="M 20 175 331 40"/>
<path stroke-width="1" stroke="black" d="M 20 175 420 115"/>
<path stroke-width="1" stroke="black" d="M 20 175 304 127"/>
<path stroke-width="1" stroke="black" d="M 20 175 185 20"/>
<path stroke-width="1" stroke="black" d="M 403 159 273 280"/>
<path stroke-width="1" stroke="black" d="M 331 40 212 320"/>
<path stroke-width="1" stroke="black" d="M 403 159 74 268"/>
<path stroke-width="1" stroke="black" d="M 403 159 212 320"/>
<path stroke-width="1" stroke="black" d="M 185 20 420 115"/>
<path stroke-width="1" stroke="black" d="M 185 20 304 127"/>
<path stroke-width="1" stroke="black" d="M 185 20 108 226"/>
<path stroke-width="1" stroke="black" d="M 185 20 403 159"/>
<path stroke-width="1" stroke="black" d="M 185 20 20 175"/>
<path stroke-width="1" stroke="black" d="M 108 226 221 186"/>
<path stroke-width="1" stroke="black" d="M 108 226 212 320"/>
<path stroke-width="1" stroke="black" d="M 108 226 176 101"/>
<path stroke-width="1" stroke="black" d="M 108 226 74 268"/>
<path stroke-width="1" stroke="black" d="M 108 226 273 280"/>
<path stroke-width="1" stroke="black" d="M 108 226 58 82"/>
<path stroke-width="1" stroke="black" d="M 108 226 389 272"/>
<path stroke-width="1" stroke="black" d="M 108 226 331 40"/>
<path stroke-width="1" stroke="black" d="M 108 226 420 115"/>
<path stroke-width="1" stroke="black" d="M 108 226 304 127"/>
<path stroke-width="1" stroke="black" d="M 108 226 185 20"/>
<path stroke-width="1" stroke="black" d="M 108 226 403 159"/>
<path stroke-width="1" stroke="black" d="M 108 226 20 175"/>
<path stroke-width="1" stroke="black" d="M 403 159 221 186"/>
<path stroke-width="1" stroke="black" d="M 403 159 176 101"/>
<path stroke-width="1" stroke="black" d="M 331 40 221 186"/>
<path stroke-width="1" stroke="black" d="M 389 272 20 175"/>
<path stroke-width="1" stroke="black" d="M 389 272 403 159"/>
<path stroke-width="1" stroke="black" d="M 212 320 403 159"/>
<path stroke-width="1" stroke="black" d="M 212 320 20 175"/>
<path stroke-width="1" stroke="black" d="M 176 101 221 186"/>
<path stroke-width="1" stroke="black" d="M 176 101 212 320"/>
<path stroke-width="1" stroke="black" d="M 176 101 74 268"/>
<path stroke-width="1" stroke="black" d="M 176 101 273 280"/>
<path stroke-width="1" stroke="black" d="M 176 101 58 82"/>
<path stroke-width="1" stroke="black" d="M 176 101 389 272"/>
<path stroke-width="1" stroke="black" d="M 176 101 331 40"/>
<path stroke-width="1" stroke="black" d="M 176 101 420 115"/>
<path stroke-width="1" stroke="black" d="M 176 101 304 127"/>
<path stroke-width="1" stroke="black" d="M 176 101 185 20"/>
<path stroke-width="1" stroke="black" d="M 176 101 108 226"/>
<path stroke-width="1" stroke="black" d="M 176 101 403 159"/>
<path stroke-width="1" stroke="black" d="M 176 101 20 175"/>
<path stroke-width="1" stroke="black" d="M 74 268 221 186"/>
<path stroke-width="1" stroke="black" d="M 74 268 212 320"/>
<path stroke-width="1" stroke="black" d="M 74 268 176 101"/>
<path stroke-width="1" stroke="black" d="M 74 268 273 280"/>
<path stroke-width="1" stroke="black" d="M 212 320 108 226"/>
<path stroke-width="1" stroke="black" d="M 74 268 58 82"/>
<path stroke-width="1" stroke="black" d="M 212 320 185 20"/>
<path stroke-width="1" stroke="black" d="M 212 320 420 115"/>
<path stroke-width="1" stroke="black" d="M 221 186 176 101"/>
<path stroke-width="1" stroke="black" d="M 221 186 74 268"/>
<path stroke-width="1" stroke="black" d="M 221 186 273 280"/>
<path stroke-width="1" stroke="black" d="M 221 186 58 82"/>
<path stroke-width="1" stroke="black" d="M 221 186 389 272"/>
<path stroke-width="1" stroke="black" d="M 221 186 331 40"/>
<path stroke-width="1" stroke="black" d="M 221 186 420 115"/>
<path stroke-width="1" stroke="black" d="M 221 186 304 127"/>
<path stroke-width="1" stroke="black" d="M 221 186 185 20"/>
<path stroke-width="1" stroke="black" d="M 221 186 108 226"/>
<path stroke-width="1" stroke="black" d="M 221 186 403 159"/>
<path stroke-width="1" stroke="black" d="M 221 186 20 175"/>
<path stroke-width="1" stroke="black" d="M 212 320 221 186"/>
<path stroke-width="1" stroke="black" d="M 212 320 176 101"/>
<path stroke-width="1" stroke="black" d="M 212 320 74 268"/>
<path stroke-width="1" stroke="black" d="M 212 320 273 280"/>
<path stroke-width="1" stroke="black" d="M 212 320 58 82"/>
<path stroke-width="1" stroke="black" d="M 212 320 389 272"/>
<path stroke-width="1" stroke="black" d="M 212 320 331 40"/>
<path stroke-width="1" stroke="black" d="M 212 320 304 127"/>
<path stroke-width="1" stroke="black" d="M 20 175 108 226"/>
<path stroke-width="1" stroke="black" d="M 74 268 389 272"/>
<path stroke-width="1" stroke="black" d="M 74 268 420 115"/>
<path stroke-width="1" stroke="black" d="M 58 82 389 272"/>
<path stroke-width="1" stroke="black" d="M 58 82 331 40"/>
<path stroke-width="1" stroke="black" d="M 58 82 420 115"/>
<path stroke-width="1" stroke="black" d="M 58 82 304 127"/>
<path stroke-width="1" stroke="black" d="M 58 82 185 20"/>
<path stroke-width="1" stroke="black" d="M 58 82 108 226"/>
<path stroke-width="1" stroke="black" d="M 58 82 403 159"/>
<path stroke-width="1" stroke="black" d="M 58 82 20 175"/>
<path stroke-width="1" stroke="black" d="M 389 272 221 186"/>
<path stroke-width="1" stroke="black" d="M 389 272 212 320"/>
<path stroke-width="1" stroke="black" d="M 389 272 176 101"/>
<path stroke-width="1" stroke="black" d="M 389 272 74 268"/>
<path stroke-width="1" stroke="black" d="M 389 272 273 280"/>
<path stroke-width="1" stroke="black" d="M 389 272 58 82"/>
<path stroke-width="1" stroke="black" d="M 389 272 331 40"/>
<path stroke-width="1" stroke="black" d="M 389 272 420 115"/>
<path stroke-width="1" stroke="black" d="M 389 272 304 127"/>
<path stroke-width="1" stroke="black" d="M 389 272 185 20"/>
<path stroke-width="1" stroke="black" d="M 389 272 108 226"/>
<path stroke-width="1" stroke="black" d="M 58 82 273 280"/>
<path stroke-width="1" stroke="black" d="M 74 268 331 40"/>
<path stroke-width="1" stroke="black" d="M 58 82 74 268"/>
<path stroke-width="1" stroke="black" d="M 58 82 212 320"/>
<path stroke-width="1" stroke="black" d="M 74 268 304 127"/>
<path stroke-width="1" stroke="black" d="M 74 268 185 20"/>
<path stroke-width="1" stroke="black" d="M 74 268 108 226"/>
<path stroke-width="1" stroke="black" d="M 74 268 403 159"/>
<path stroke-width="1" stroke="black" d="M 74 268 20 175"/>
<path stroke-width="1" stroke="black" d="M 273 280 221 186"/>
<path stroke-width="1" stroke="black" d="M 273 280 212 320"/>
<path stroke-width="1" stroke="black" d="M 273 280 176 101"/>
<path stroke-width="1" stroke="black" d="M 273 280 74 268"/>
<path stroke-width="1" stroke="black" d="M 273 280 58 82"/>
<path stroke-width="1" stroke="black" d="M 273 280 389 272"/>
<path stroke-width="1" stroke="black" d="M 273 280 331 40"/>
<path stroke-width="1" stroke="black" d="M 273 280 420 115"/>
<path stroke-width="1" stroke="black" d="M 273 280 304 127"/>
<path stroke-width="1" stroke="black" d="M 273 280 185 20"/>
<path stroke-width="1" stroke="black" d="M 273 280 108 226"/>
<path stroke-width="1" stroke="black" d="M 273 280 403 159"/>
<path stroke-width="1" stroke="black" d="M 273 280 20 175"/>
<path stroke-width="1" stroke="black" d="M 58 82 221 186"/>
<path stroke-width="1" stroke="black" d="M 58 82 176 101"/>
<path stroke-width="1" stroke="black" d="M 20 175 403 159"/>
<circle cx="221" cy="186" r="7.0" style="fill:blue;stroke:black;stroke-width:1.0"/>
<circle cx="212" cy="320" r="7.0" style="fill:blue;stroke:black;stroke-width:1.0"/>
<circle cx="176" cy="101" r="7.0" style="fill:purple;stroke:black;stroke-width:1.0"/>
<circle cx="74" cy="268" r="7.0" style="fill:yellow;stroke:black;stroke-width:1.0"/>
<circle cx="273" cy="280" r="7.0" style="fill:orange;stroke:black;stroke-width:1.0"/>
<circle cx="58" cy="82" r="7.0" style="fill:green;stroke:black;stroke-width:1.0"/>
<circle cx="389" cy="272" r="7.0" style="fill:red;stroke:black;stroke-width:1.0"/>
<circle cx="331" cy="40" r="7.0" style="fill:blue;stroke:black;stroke-width:1.0"/>
<circle cx="420" cy="115" r="7.0" style="fill:blue;stroke:black;stroke-width:1.0"/>
<circle cx="304" cy="127" r="7.0" style="fill:red;stroke:black;stroke-width:1.0"/>
<circle cx="185" cy="20" r="7.0" style="fill:green;stroke:black;stroke-width:1.0"/>
<circle cx="108" cy="226" r="7.0" style="fill:orange;stroke:black;stroke-width:1.0"/>
<circle cx="403" cy="159" r="7.0" style="fill:purple;stroke:black;stroke-width:1.0"/>
<circle cx="20" cy="175" r="7.0" style="fill:yellow;stroke:black;stroke-width:1.0"/>
</svg>
