<svg width="440" height="340" xmlns="http://www.w3.org/2000/svg">
<path stroke-width="20.0" stroke="black" d="M 194 136 305 287"/>
<path stroke-width="0.5" stroke="black" d="M 20 128 352 84"/>
<path stroke-width="8.3" stroke="black" d="M 316 217 194 136"/>
<path stroke-width="0.5" stroke="black" d="M 316 217 305 287"/>
<path stroke-width="0.5" stroke="black" d="M 316 217 185 23"/>
<path stroke-width="0.5" stroke="black" d="M 316 217 420 151"/>
<path stroke-width="0.5" stroke="black" d="M 316 217 375 236"/>
<path stroke-width="0.5" stroke="black" d="M 316 217 36 219"/>
<path stroke-width="12.2" stroke="black" d="M 316 217 191 320"/>
<path stroke-width="0.5" stroke="black" d="M 20 128 281 20"/>
<path stroke-width="0.5" stroke="black" d="M 316 217 103 131"/>
<path stroke-width="0.5" stroke="black" d="M 316 217 81 56"/>
<path stroke-width="0.5" stroke="black" d="M 316 217 124 256"/>
<path stroke-width="0.5" stroke="black" d="M 316 217 281 20"/>
<path stroke-width="0.5" stroke="black" d="M 316 217 352 84"/>
<path stroke-width="8.3" stroke="black" d="M 81 56 194 136"/>
<path stroke-width="0.5" stroke="black" d="M 81 56 305 287"/>
<path stroke-width="0.5" stroke="black" d="M 81 56 185 23"/>
<path stroke-width="0.5" stroke="black" d="M 81 56 420 151"/>
<path stroke-width="0.5" stroke="black" d="M 316 217 20 128"/>
<path stroke-width="0.5" stroke="black" d="M 20 128 124 256"/>
<path stroke-width="0.5" stroke="black" d="M 20 128 81 56"/>
<path stroke-width="0.5" stroke="black" d="M 20 128 316 217"/>
<path stroke-width="0.5" stroke="black" d="M 103 131 185 23"/>
<path stroke-width="0.5" stroke="black" d="M 103 131 420 151"/>
<path stroke-width="0.5" stroke="black" d="M 103 131 375 236"/>
<path stroke-width="0.5" stroke="black" d="M 103 131 36 219"/>
<path stroke-width="0.5" stroke="black" d="M 103 131 191 320"/>
<path stroke-width="12.2" stroke="black" d="M 103 131 20 128"/>
<path stroke-width="0.5" stroke="black" d="M 103 131 316 217"/>
<path stroke-width="0.5" stroke="black" d="M 103 131 81 56"/>
<path stroke-width="0.5" stroke="black" d="M 103 131 124 256"/>
<path stroke-width="0.5" stroke="black" d="M 103 131 281 20"/>
<path stroke-width="0.5" stroke="black" d="M 103 131 352 84"/>
<path stroke-width="8.3" stroke="black" d="M 20 128 194 136"/>
<path stroke-width="0.5" stroke="black" d="M 20 128 305 287"/>
<path stroke-width="0.5" stroke="black" d="M 20 128 185 23"/>
<path stroke-width="0.5" stroke="black" d="M 20 128 420 151"/>
<path stroke-width="0.5" stroke="black" d="M 20 128 375 236"/>
<path stroke-width="0.5" stroke="black" d="M 20 128 36 219"/>
<path stroke-width="0.5" stroke="black" d="M 20 128 191 320"/>
<path stroke-width="12.2" stroke="black" d="M 20 128 103 131"/>
<path stroke-width="0.5" stroke="black" d="M 81 56 375 236"/>
<path stroke-width="12.2" stroke="black" d="M 81 56 36 219"/>
<path stroke-width="0.5" stroke="black" d="M 81 56 191 320"/>
<path stroke-width="0.5" stroke="black" d="M 81 56 103 131"/>
<path stroke-width="0.5" stroke="black" d="M 281 20 36 219"/>
<path stroke-width="0.5" stroke="black" d="M 281 20 191 320"/>
<path stroke-width="0.5" stroke="black" d="M 281 20 103 131"/>
<path stroke-width="0.5" stroke="black" d="M 281 20 20 128"/>
<path stroke-width="0.5" stroke="black" d="M 281 20 316 217"/>
<path stroke-width="0.5" stroke="black" d="M 281 20 81 56"/>
<path stroke-width="0.5" stroke="black" d="M 281 20 124 256"/>
<path stroke-width="0.5" stroke="black" d="M 281 20 352 84"/>
<path stroke-width="8.3" stroke="black" d="M 352 84 194 136"/>
<path stroke-width="0.5" stroke="black" d="M 352 84 305 287"/>
<path stroke-width="0.5" stroke="black" d="M 352 84 185 23"/>
<path stroke-width="12.2" stroke="black" d="M 352 84 420 151"/>
<path stroke-width="0.5" stroke="black" d="M 352 84 375 236"/>
<path stroke-width="0.5" stroke="black" d="M 352 84 36 219"/>
<path stroke-width="0.5" stroke="black" d="M 352 84 191 320"/>
<path stroke-width="0.5" stroke="black" d="M 352 84 103 131"/>
<path stroke-width="0.5" stroke="black" d="M 352 84 20 128"/>
<path stroke-width="0.5" stroke="black" d="M 352 84 316 217"/>
<path stroke-width="0.5" stroke="black" d="M 352 84 81 56"/>
<path stroke-width="0.5" stroke="black" d="M 281 20 375 236"/>
<path stroke-width="0.5" stroke="black" d="M 103 131 305 287"/>
<path stroke-width="0.5" stroke="black" d="M 281 20 420 151"/>
<path stroke-width="0.5" stroke="black" d="M 281 20 305 287"/>
<path stroke-width="0.5" stroke="black" d="M 81 56 20 128"/>
<path stroke-width="0.5" stroke="black" d="M 81 56 316 217"/>
<path stroke-width="0.5" stroke="black" d="M 81 56 124 256"/>
<path stroke-width="0.5" stroke="black" d="M 81 56 281 20"/>
<path stroke-width="0.5" stroke="black" d="M 81 56 352 84"/>
<path stroke-width="8.3" stroke="black" d="M 124 256 194 136"/>
<path stroke-width="0.5" stroke="black" d="M 124 256 305 287"/>
<path stroke-width="0.5" stroke="black" d="M 124 256 185 23"/>
<path stroke-width="0.5" stroke="black" d="M 124 256 420 151"/>
<path stroke-width="12.2" stroke="black" d="M 124 256 375 236"/>
<path stroke-width="0.5" stroke="black" d="M 124 256 36 219"/>
<path stroke-width="0.5" stroke="black" d="M 124 256 191 320"/>
<path stroke-width="0.5" stroke="black" d="M 124 256 103 131"/>
<path stroke-width="0.5" stroke="black" d="M 124 256 20 128"/>
<path stroke-width="0.5" stroke="black" d="M 124 256 316 217"/>
<path stroke-width="0.5" stroke="black" d="M 124 256 81 56"/>
<path stroke-width="0.5" stroke="black" d="M 124 256 281 20"/>
<path stroke-width="0.5" stroke="black" d="M 124 256 352 84"/>
<path stroke-width="8.3" stroke="black" d="M 281 20 194 136"/>
<path stroke-width="12.2" stroke="black" d="M 281 20 185 23"/>
<path stroke-width="8.3" stroke="black" d="M 103 131 194 136"/>
<path stroke-width="0.5" stroke="black" d="M 191 320 352 84"/>
<path stroke-width="0.5" stroke="black" d="M 191 320 281 20"/>
<path stroke-width="0.5" stroke="black" d="M 305 287 281 20"/>
<path stroke-width="0.5" stroke="black" d="M 305 287 352 84"/>
<path stroke-width="8.3" stroke="black" d="M 185 23 194 136"/>
<path stroke-width="0.5" stroke="black" d="M 185 23 305 287"/>
<path stroke-width="0.5" stroke="black" d="M 185 23 420 151"/>
<path stroke-width="0.5" stroke="black" d="M 185 23 375 236"/>
<path stroke-width="0.5" stroke="black" d="M 185 23 36 219"/>
<path stroke-width="0.5" stroke="black" d="M 185 23 191 320"/>
<path stroke-width="0.5" stroke="black" d="M 185 23 103 131"/>
<path stroke-width="0.5" stroke="black" d="M 185 23 20 128"/>
<path stroke-width="0.5" stroke="black" d="M 185 23 316 217"/>
<path stroke-width="0.5" stroke="black" d="M 185 23 81 56"/>
<path stroke-width="0.5" stroke="black" d="M 185 23 124 256"/>
<path stroke-width="12.2" stroke="black" d="M 185 23 281 20"/>
<path stroke-width="0.5" stroke="black" d="M 185 23 352 84"/>
<path stroke-width="8.3" stroke="black" d="M 420 151 194 136"/>
<path stroke-width="0.5" stroke="black" d="M 420 151 305 287"/>
<path stroke-width="0.5" stroke="black" d="M 420 151 185 23"/>
<path stroke-width="0.5" stroke="black" d="M 420 151 375 236"/>
<path stroke-width="0.5" stroke="black" d="M 305 287 124 256"/>
<path stroke-width="0.5" stroke="black" d="M 420 151 36 219"/>
<path stroke-width="0.5" stroke="black" d="M 305 287 81 56"/>
<path stroke-width="0.5" stroke="black" d="M 305 287 20 128"/>
<path stroke-width="8.3" stroke="black" d="M 194 136 185 23"/>
<path stroke-width="8.3" stroke="black" d="M 194 136 420 151"/>
<path stroke-width="8.3" stroke="black" d="M 194 136 375 236"/>
<path stroke-width="8.3" stroke="black" d="M 194 136 36 219"/>
<path stroke-width="8.3" stroke="black" d="M 194 136 191 320"/>
<path stroke-width="8.3" stroke="black" d="M 194 136 103 131"/>
<path stroke-width="8.3" stroke="black" d="M 194 136 20 128"/>
<path stroke-width="8.3" stroke="black" d="M 194 136 316 217"/>
<path stroke-width="8.3" stroke="black" d="M 194 136 81 56"/>
<path stroke-width="8.3" stroke="black" d="M 194 136 124 256"/>
<path stroke-width="8.3" stroke="black" d="M 194 136 281 20"/>
<path stroke-width="8.3" stroke="black" d="M 194 136 352 84"/>
<path stroke-width="20.0" stroke="black" d="M 305 287 194 136"/>
<path stroke-width="0.5" stroke="black" d="M 305 287 185 23"/>
<path stroke-width="0.5" stroke="black" d="M 305 287 420 151"/>
<path stroke-width="0.5" stroke="black" d="M 305 287 375 236"/>
<path stroke-width="0.5" stroke="black" d="M 305 287 36 219"/>
<path stroke-width="0.5" stroke="black" d="M 305 287 191 320"/>
<path stroke-width="0.5" stroke="black" d="M 305 287 103 131"/>
<path stroke-width="0.5" stroke="black" d="M 305 287 316 217"/>
<path stroke-width="0.5" stroke="black" d="M 352 84 124 256"/>
<path stroke-width="0.5" stroke="black" d="M 420 151 191 320"/>
<path stroke-width="0.5" stroke="black" d="M 420 151 20 128"/>
<path stroke-width="0.5" stroke="black" d="M 36 219 191 320"/>
<path stroke-width="0.5" stroke="black" d="M 36 219 103 131"/>
<path stroke-width="0.5" stroke="black" d="M 36 219 20 128"/>
<path stroke-width="0.5" stroke="black" d="M 36 219 316 217"/>
<path stroke-width="12.2" stroke="black" d="M 36 219 81 56"/>
<path stroke-width="0.5" stroke="black" d="M 36 219 124 256"/>
<path stroke-width="0.5" stroke="black" d="M 36 219 281 20"/>
<path stroke-width="0.5" stroke="black" d="M 36 219 352 84"/>
<path stroke-width="8.3" stroke="black" d="M 191 320 194 136"/>
<path stroke-width="0.5" stroke="black" d="M 191 320 305 287"/>
<path stroke-width="0.5" stroke="black" d="M 191 320 185 23"/>
<path stroke-width="0.5" stroke="black" d="M 191 320 420 151"/>
<path stroke-width="0.5" stroke="black" d="M 191 320 375 236"/>
<path stroke-width="0.5" stroke="black" d="M 191 320 36 219"/>
<path stroke-width="0.5" stroke="black" d="M 191 320 103 131"/>
<path stroke-width="0.5" stroke="black" d="M 191 320 20 128"/>
<path stroke-width="12.2" stroke="black" d="M 191 320 316 217"/>
<path stroke-width="0.5" stroke="black" d="M 191 320 81 56"/>
<path stroke-width="0.5" stroke="black" d="M 191 320 124 256"/>
<path stroke-width="0.5" stroke="black" d="M 36 219 375 236"/>
<path stroke-width="0.5" stroke="black" d="M 420 151 103 131"/>
<path stroke-width="0.5" stroke="black" d="M 36 219 420 151"/>
<path stroke-width="0.5" stroke="black" d="M 36 219 305 287"/>
<path stroke-width="0.5" stroke="black" d="M 420 151 316 217"/>
<path stroke-width="0.5" stroke="black" d="M 420 151 81 56"/>
<path stroke-width="0.5" stroke="black" d="M 420 151 124 256"/>
<path stroke-width="0.5" stroke="black" d="M 420 151 281 20"/>
<path stroke-width="12.2" stroke="black" d="M 420 151 352 84"/>
<path stroke-width="8.3" stroke="black" d="M 375 236 194 136"/>
<path stroke-width="0.5" stroke="black" d="M 375 236 305 287"/>
<path stroke-width="0.5" stroke="black" d="M 375 236 185 23"/>
<path stroke-width="0.5" stroke="black" d="M 375 236 420 151"/>
<path stroke-width="0.5" stroke="black" d="M 375 236 36 219"/>
<path stroke-width="0.5" stroke="black" d="M 375 236 191 320"/>
<path stroke-width="0.5" stroke="black" d="M 375 236 103 131"/>
<path stroke-width="0.5" stroke="black" d="M 375 236 20 128"/>
<path stroke-width="0.5" stroke="black" d="M 375 236 316 217"/>
<path stroke-width="0.5" stroke="black" d="M 375 236 81 56"/>
<path stroke-width="12.2" stroke="black" d="M 375 236 124 256"/>
<path stroke-width="0.5" stroke="black" d="M 375 236 281 20"/>
<path stroke-width="0.5" stroke="black" d="M 375 236 352 84"/>
<path stroke-width="8.3" stroke="black" d="M 36 219 194 136"/>
<path stroke-width="0.5" stroke="black" d="M 36 219 185 23"/>
<path stroke-width="0.5" stroke="black" d="M 352 84 281 20"/>
<circle cx="194" cy="136" r="7.0" style="fill:blue;stroke:black;stroke-width:1.0"/>
<circle cx="305" cy="287" r="7.0" style="fill:blue;stroke:black;stroke-width:1.0"/>
<circle cx="185" cy="23" r="7.0" style="fill:purple;stroke:black;stroke-width:1.0"/>
<circle cx="420" cy="151" r="7.0" style="fill:yellow;stroke:black;stroke-width:1.0"/>
<circle cx="375" cy="236" r="7.0" style="fill:orange;stroke:black;stroke-width:1.0"/>
<circle cx="36" cy="219" r="7.0" style="fill:green;stroke:black;stroke-width:1.0"/>
<circle cx="191" cy="320" r="7.0" style="fill:red;stroke:black;stroke-width:1.0"/>
<circle cx="103" cy="131" r="7.0" style="fill:blue;stroke:black;stroke-width:1.0"/>
<circle cx="20" cy="128" r="7.0" style="fill:blue;stroke:black;stroke-width:1.0"/>
<circle cx="316" cy="217" r="7.0" style="fill:red;stroke:black;stroke-width:1.0"/>
<circle cx="81" cy="56" r="7.0" style="fill:green;stroke:black;stroke-width:1.0"/>
<circle cx="124" cy="256" r="7.0" style="fill:orange;stroke:black;stroke-width:1.0"/>
<circle cx="281" cy="20" r="7.0" style="fill:purple;stroke:black;stroke-width:1.0"/>
<circle cx="352" cy="84" r="7.0" style="fill:yellow;stroke:black;stroke-width:1.0"/>
</svg>
