<svg width="440" height="340" xmlns="http://www.w3.org/2000/svg">
<path stroke-width="4.1609195402298855" stroke="black" d="M 420 231 83 173"/>
<path stroke-width="0.5747126436781609" stroke="black" d="M 51 20 70 195"/>
<path stroke-width="0.5747126436781609" stroke="black" d="M 51 20 212 275"/>
<path stroke-width="0.5747126436781609" stroke="black" d="M 51 20 112 320"/>
<path stroke-width="1.3218390804597702" stroke="black" d="M 51 20 52 155"/>
<path stroke-width="1.6206896551724137" stroke="black" d="M 51 20 20 153"/>
<path stroke-width="1.9195402298850575" stroke="black" d="M 112 320 420 231"/>
<path stroke-width="1.0229885057471264" stroke="black" d="M 112 320 83 173"/>
<path stroke-width="0.7241379310344828" stroke="black" d="M 112 320 70 195"/>
<path stroke-width="0.5747126436781609" stroke="black" d="M 112 320 212 275"/>
<path stroke-width="0.5747126436781609" stroke="black" d="M 112 320 51 20"/>
<path stroke-width="0.8735632183908046" stroke="black" d="M 112 320 52 155"/>
<path stroke-width="0.7241379310344828" stroke="black" d="M 51 20 83 173"/>
<path stroke-width="1.0229885057471264" stroke="black" d="M 112 320 20 153"/>
<path stroke-width="7.597701149425287" stroke="black" d="M 52 155 83 173"/>
<path stroke-width="4.011494252873563" stroke="black" d="M 52 155 70 195"/>
<path stroke-width="2.218390804597701" stroke="black" d="M 52 155 212 275"/>
<path stroke-width="1.3218390804597702" stroke="black" d="M 52 155 51 20"/>
<path stroke-width="0.8735632183908046" stroke="black" d="M 52 155 112 320"/>
<path stroke-width="0.5" stroke="black" d="M 52 155 20 153"/>
<path stroke-width="20.0" stroke="black" d="M 20 153 420 231"/>
<path stroke-width="9.988505747126437" stroke="black" d="M 20 153 83 173"/>
<path stroke-width="5.206896551724138" stroke="black" d="M 20 153 70 195"/>
<path stroke-width="2.8160919540229883" stroke="black" d="M 20 153 212 275"/>
<path stroke-width="1.6206896551724137" stroke="black" d="M 20 153 51 20"/>
<path stroke-width="15.14367816091954" stroke="black" d="M 52 155 420 231"/>
<path stroke-width="1.471264367816092" stroke="black" d="M 51 20 420 231"/>
<path stroke-width="2.8160919540229883" stroke="black" d="M 212 275 20 153"/>
<path stroke-width="2.218390804597701" stroke="black" d="M 212 275 52 155"/>
<path stroke-width="2.367816091954023" stroke="black" d="M 420 231 70 195"/>
<path stroke-width="1.6206896551724137" stroke="black" d="M 420 231 212 275"/>
<path stroke-width="1.471264367816092" stroke="black" d="M 420 231 51 20"/>
<path stroke-width="1.9195402298850575" stroke="black" d="M 420 231 112 320"/>
<path stroke-width="15.14367816091954" stroke="black" d="M 420 231 52 155"/>
<path stroke-width="20.0" stroke="black" d="M 420 231 20 153"/>
<path stroke-width="4.1609195402298855" stroke="black" d="M 83 173 420 231"/>
<path stroke-width="0.5747126436781609" stroke="black" d="M 83 173 70 195"/>
<path stroke-width="0.5747126436781609" stroke="black" d="M 83 173 212 275"/>
<path stroke-width="0.7241379310344828" stroke="black" d="M 83 173 51 20"/>
<path stroke-width="1.0229885057471264" stroke="black" d="M 83 173 112 320"/>
<path stroke-width="7.597701149425287" stroke="black" d="M 83 173 52 155"/>
<path stroke-width="9.988505747126437" stroke="black" d="M 83 173 20 153"/>
<path stroke-width="2.367816091954023" stroke="black" d="M 70 195 420 231"/>
<path stroke-width="0.5747126436781609" stroke="black" d="M 70 195 83 173"/>
<path stroke-width="0.5747126436781609" stroke="black" d="M 70 195 212 275"/>
<path stroke-width="0.5747126436781609" stroke="black" d="M 70 195 51 20"/>
<path stroke-width="0.7241379310344828" stroke="black" d="M 70 195 112 320"/>
<path stroke-width="4.011494252873563" stroke="black" d="M 70 195 52 155"/>
<path stroke-width="5.206896551724138" stroke="black" d="M 70 195 20 153"/>
<path stroke-width="1.6206896551724137" stroke="black" d="M 212 275 420 231"/>
<path stroke-width="0.5747126436781609" stroke="black" d="M 212 275 83 173"/>
<path stroke-width="0.5747126436781609" stroke="black" d="M 212 275 70 195"/>
<path stroke-width="0.5747126436781609" stroke="black" d="M 212 275 51 20"/>
<path stroke-width="0.5747126436781609" stroke="black" d="M 212 275 112 320"/>
<path stroke-width="1.0229885057471264" stroke="black" d="M 20 153 112 320"/>
<path stroke-width="0.5" stroke="black" d="M 20 153 52 155"/>
<circle cx="420" cy="231" r="20.0" style="fill:gray;stroke:black;stroke-width:1.0"/>
<circle cx="83" cy="173" r="20.0" style="fill:gray;stroke:black;stroke-width:1.0"/>
<circle cx="70" cy="195" r="20.0" style="fill:gray;stroke:black;stroke-width:1.0"/>
<circle cx="212" cy="275" r="20.0" style="fill:gray;stroke:black;stroke-width:1.0"/>
<circle cx="51" cy="20" r="20.0" style="fill:gray;stroke:black;stroke-width:1.0"/>
<circle cx="112" cy="320" r="20.0" style="fill:gray;stroke:black;stroke-width:1.0"/>
<circle cx="52" cy="155" r="20.0" style="fill:gray;stroke:black;stroke-width:1.0"/>
<circle cx="20" cy="153" r="20.0" style="fill:gray;stroke:black;stroke-width:1.0"/>
</svg>
