<svg width="440" height="340" xmlns="http://www.w3.org/2000/svg">
<path stroke-width="1" stroke="black" d="M 420 320 402 292"/>
<path stroke-width="1" stroke="black" d="M 41 28 69 38"/>
<path stroke-width="1" stroke="black" d="M 69 38 41 28"/>
<path stroke-width="1" stroke="black" d="M 69 38 99 51"/>
<path stroke-width="1" stroke="black" d="M 99 51 69 38"/>
<path stroke-width="1" stroke="black" d="M 99 51 132 63"/>
<path stroke-width="1" stroke="black" d="M 132 63 99 51"/>
<path stroke-width="1" stroke="black" d="M 132 63 165 81"/>
<path stroke-width="1" stroke="black" d="M 165 81 132 63"/>
<path stroke-width="1" stroke="black" d="M 165 81 199 94"/>
<path stroke-width="1" stroke="black" d="M 199 94 165 81"/>
<path stroke-width="1" stroke="black" d="M 199 94 232 120"/>
<path stroke-width="1" stroke="black" d="M 232 120 199 94"/>
<path stroke-width="1" stroke="black" d="M 232 120 266 133"/>
<path stroke-width="1" stroke="black" d="M 266 133 232 120"/>
<path stroke-width="1" stroke="black" d="M 266 133 296 169"/>
<path stroke-width="1" stroke="black" d="M 296 169 266 133"/>
<path stroke-width="1" stroke="black" d="M 296 169 328 187"/>
<path stroke-width="1" stroke="black" d="M 328 187 296 169"/>
<path stroke-width="1" stroke="black" d="M 328 187 354 228"/>
<path stroke-width="1" stroke="black" d="M 354 228 328 187"/>
<path stroke-width="1" stroke="black" d="M 354 228 381 256"/>
<path stroke-width="1" stroke="black" d="M 381 256 354 228"/>
<path stroke-width="1" stroke="black" d="M 381 256 402 292"/>
<path stroke-width="1" stroke="black" d="M 402 292 381 256"/>
<path stroke-width="1" stroke="black" d="M 402 292 420 320"/>
<path stroke-width="1" stroke="black" d="M 41 28 20 20"/>
<path stroke-width="1" stroke="black" d="M 20 20 41 28"/>
<circle cx="420" cy="320" r="7.0" style="fill:blue;stroke:black;stroke-width:1.0"/>
<circle cx="402" cy="292" r="7.0" style="fill:blue;stroke:black;stroke-width:1.0"/>
<circle cx="381" cy="256" r="7.0" style="fill:blue;stroke:black;stroke-width:1.0"/>
<circle cx="354" cy="228" r="7.0" style="fill:blue;stroke:black;stroke-width:1.0"/>
<circle cx="328" cy="187" r="7.0" style="fill:red;stroke:black;stroke-width:1.0"/>
<circle cx="296" cy="169" r="7.0" style="fill:red;stroke:black;stroke-width:1.0"/>
<circle cx="266" cy="133" r="7.0" style="fill:red;stroke:black;stroke-width:1.0"/>
<circle cx="232" cy="120" r="7.0" style="fill:red;stroke:black;stroke-width:1.0"/>
<circle cx="199" cy="94" r="7.0" style="fill:green;stroke:black;stroke-width:1.0"/>
<circle cx="165" cy="81" r="7.0" style="fill:green;stroke:black;stroke-width:1.0"/>
<circle cx="132" cy="63" r="7.0" style="fill:green;stroke:black;stroke-width:1.0"/>
<circle cx="99" cy="51" r="7.0" style="fill:green;stroke:black;stroke-width:1.0"/>
<circle cx="69" cy="38" r="7.0" style="fill:orange;stroke:black;stroke-width:1.0"/>
<circle cx="41" cy="28" r="7.0" style="fill:orange;stroke:black;stroke-width:1.0"/>
<circle cx="20" cy="20" r="7.0" style="fill:orange;stroke:black;stroke-width:1.0"/>
</svg>
