<svg width="440" height="340" xmlns="http://www.w3.org/2000/svg">
<path stroke-width="1" stroke="black" d="M 168 20 248 36"/>
<path stroke-width="1" stroke="black" d="M 43 303 59 283"/>
<path stroke-width="1" stroke="black" d="M 59 283 43 303"/>
<path stroke-width="1" stroke="black" d="M 59 283 82 261"/>
<path stroke-width="1" stroke="black" d="M 82 261 59 283"/>
<path stroke-width="1" stroke="black" d="M 82 261 91 240"/>
<path stroke-width="1" stroke="black" d="M 91 240 82 261"/>
<path stroke-width="1" stroke="black" d="M 91 240 120 215"/>
<path stroke-width="1" stroke="black" d="M 120 215 91 240"/>
<path stroke-width="1" stroke="black" d="M 120 215 168 193"/>
<path stroke-width="1" stroke="black" d="M 168 193 120 215"/>
<path stroke-width="1" stroke="black" d="M 168 193 198 169"/>
<path stroke-width="1" stroke="black" d="M 198 169 168 193"/>
<path stroke-width="1" stroke="black" d="M 198 169 321 146"/>
<path stroke-width="1" stroke="black" d="M 321 146 198 169"/>
<path stroke-width="1" stroke="black" d="M 321 146 300 122"/>
<path stroke-width="1" stroke="black" d="M 300 122 321 146"/>
<path stroke-width="1" stroke="black" d="M 300 122 420 100"/>
<path stroke-width="1" stroke="black" d="M 420 100 300 122"/>
<path stroke-width="1" stroke="black" d="M 420 100 343 77"/>
<path stroke-width="1" stroke="black" d="M 343 77 420 100"/>
<path stroke-width="1" stroke="black" d="M 343 77 351 56"/>
<path stroke-width="1" stroke="black" d="M 351 56 343 77"/>
<path stroke-width="1" stroke="black" d="M 351 56 248 36"/>
<path stroke-width="1" stroke="black" d="M 248 36 351 56"/>
<path stroke-width="1" stroke="black" d="M 248 36 168 20"/>
<path stroke-width="1" stroke="black" d="M 43 303 20 320"/>
<path stroke-width="1" stroke="black" d="M 20 320 43 303"/>
<circle cx="168" cy="20" r="20.0" style="fill:blue;stroke:black;stroke-width:1.0"/>
<circle cx="248" cy="36" r="20.0" style="fill:blue;stroke:black;stroke-width:1.0"/>
<circle cx="351" cy="56" r="20.0" style="fill:blue;stroke:black;stroke-width:1.0"/>
<circle cx="343" cy="77" r="20.0" style="fill:blue;stroke:black;stroke-width:1.0"/>
<circle cx="420" cy="100" r="20.0" style="fill:red;stroke:black;stroke-width:1.0"/>
<circle cx="300" cy="122" r="20.0" style="fill:red;stroke:black;stroke-width:1.0"/>
<circle cx="321" cy="146" r="20.0" style="fill:red;stroke:black;stroke-width:1.0"/>
<circle cx="198" cy="169" r="20.0" style="fill:red;stroke:black;stroke-width:1.0"/>
<circle cx="168" cy="193" r="20.0" style="fill:green;stroke:black;stroke-width:1.0"/>
<circle cx="120" cy="215" r="20.0" style="fill:green;stroke:black;stroke-width:1.0"/>
<circle cx="91" cy="240" r="20.0" style="fill:green;stroke:black;stroke-width:1.0"/>
<circle cx="82" cy="261" r="20.0" style="fill:green;stroke:black;stroke-width:1.0"/>
<circle cx="59" cy="283" r="20.0" style="fill:orange;stroke:black;stroke-width:1.0"/>
<circle cx="43" cy="303" r="20.0" style="fill:orange;stroke:black;stroke-width:1.0"/>
<circle cx="20" cy="320" r="20.0" style="fill:orange;stroke:black;stroke-width:1.0"/>
</svg>
