<svg width="440" height="340" xmlns="http://www.w3.org/2000/svg">
<path stroke-width="1" stroke="black" d="M 420 20 377 50"/>
<path stroke-width="1" stroke="black" d="M 20 320 61 287"/>
<path stroke-width="1" stroke="black" d="M 61 287 20 320"/>
<path stroke-width="1" stroke="black" d="M 61 287 111 248"/>
<path stroke-width="1" stroke="black" d="M 111 248 61 287"/>
<path stroke-width="1" stroke="black" d="M 111 248 165 210"/>
<path stroke-width="1" stroke="black" d="M 165 210 111 248"/>
<path stroke-width="1" stroke="black" d="M 165 210 219 166"/>
<path stroke-width="1" stroke="black" d="M 219 166 165 210"/>
<path stroke-width="1" stroke="black" d="M 219 166 274 126"/>
<path stroke-width="1" stroke="black" d="M 274 126 219 166"/>
<path stroke-width="1" stroke="black" d="M 274 126 328 86"/>
<path stroke-width="1" stroke="black" d="M 328 86 274 126"/>
<path stroke-width="1" stroke="black" d="M 328 86 377 50"/>
<path stroke-width="1" stroke="black" d="M 377 50 420 20"/>
<path stroke-width="1" stroke="black" d="M 377 50 328 86"/>
<circle cx="420" cy="20" r="7.0" style="fill:gray;stroke:black;stroke-width:1.0"/>
<circle cx="20" cy="320" r="7.0" style="fill:gray;stroke:black;stroke-width:1.0"/>
<circle cx="61" cy="287" r="7.0" style="fill:gray;stroke:black;stroke-width:1.0"/>
<circle cx="111" cy="248" r="7.0" style="fill:gray;stroke:black;stroke-width:1.0"/>
<circle cx="165" cy="210" r="7.0" style="fill:gray;stroke:black;stroke-width:1.0"/>
<circle cx="219" cy="166" r="7.0" style="fill:gray;stroke:black;stroke-width:1.0"/>
<circle cx="274" cy="126" r="7.0" style="fill:gray;stroke:black;stroke-width:1.0"/>
<circle cx="328" cy="86" r="7.0" style="fill:gray;stroke:black;stroke-width:1.0"/>
<circle cx="377" cy="50" r="7.0" style="fill:gray;stroke:black;stroke-width:1.0"/>
</svg>
