<svg width="440" height="340" xmlns="http://www.w3.org/2000/svg">
<path stroke-width="1" stroke="black" d="M 232 170 21 215"/>
<path stroke-width="1" stroke="black" d="M 319 320 168 20"/>
<path stroke-width="1" stroke="black" d="M 319 320 20 134"/>
<path stroke-width="1" stroke="black" d="M 319 320 21 215"/>
<path stroke-width="1" stroke="black" d="M 319 320 232 170"/>
<path stroke-width="1" stroke="black" d="M 186 310 419 238"/>
<path stroke-width="1" stroke="black" d="M 186 310 305 31"/>
<path stroke-width="1" stroke="black" d="M 319 320 420 101"/>
<path stroke-width="1" stroke="black" d="M 186 310 319 320"/>
<path stroke-width="1" stroke="black" d="M 186 310 168 20"/>
<path stroke-width="1" stroke="black" d="M 186 310 20 134"/>
<path stroke-width="1" stroke="black" d="M 186 310 21 215"/>
<path stroke-width="1" stroke="black" d="M 186 310 232 170"/>
<path stroke-width="1" stroke="black" d="M 420 101 419 238"/>
<path stroke-width="1" stroke="black" d="M 420 101 305 31"/>
<path stroke-width="1" stroke="black" d="M 186 310 420 101"/>
<path stroke-width="1" stroke="black" d="M 420 101 319 320"/>
<path stroke-width="1" stroke="black" d="M 319 320 186 310"/>
<path stroke-width="1" stroke="black" d="M 319 320 419 238"/>
<path stroke-width="1" stroke="black" d="M 419 238 186 310"/>
<path stroke-width="1" stroke="black" d="M 419 238 420 101"/>
<path stroke-width="1" stroke="black" d="M 419 238 168 20"/>
<path stroke-width="1" stroke="black" d="M 419 238 20 134"/>
<path stroke-width="1" stroke="black" d="M 419 238 21 215"/>
<path stroke-width="1" stroke="black" d="M 419 238 232 170"/>
<path stroke-width="1" stroke="black" d="M 319 320 305 31"/>
<path stroke-width="1" stroke="black" d="M 305 31 419 238"/>
<path stroke-width="1" stroke="black" d="M 305 31 186 310"/>
<path stroke-width="1" stroke="black" d="M 305 31 420 101"/>
<path stroke-width="1" stroke="black" d="M 305 31 168 20"/>
<path stroke-width="1" stroke="black" d="M 305 31 20 134"/>
<path stroke-width="1" stroke="black" d="M 305 31 21 215"/>
<path stroke-width="1" stroke="black" d="M 305 31 232 170"/>
<path stroke-width="1" stroke="black" d="M 305 31 319 320"/>
<path stroke-width="1" stroke="black" d="M 420 101 186 310"/>
<path stroke-width="1" stroke="black" d="M 420 101 168 20"/>
<path stroke-width="1" stroke="black" d="M 420 101 20 134"/>
<path stroke-width="1" stroke="black" d="M 21 215 305 31"/>
<path stroke-width="1" stroke="black" d="M 21 215 319 320"/>
<path stroke-width="1" stroke="black" d="M 21 215 186 310"/>
<path stroke-width="1" stroke="black" d="M 21 215 420 101"/>
<path stroke-width="1" stroke="black" d="M 21 215 168 20"/>
<path stroke-width="1" stroke="black" d="M 21 215 20 134"/>
<path stroke-width="1" stroke="black" d="M 21 215 419 238"/>
<path stroke-width="1" stroke="black" d="M 21 215 232 170"/>
<path stroke-width="1" stroke="black" d="M 232 170 305 31"/>
<path stroke-width="1" stroke="black" d="M 232 170 319 320"/>
<path stroke-width="1" stroke="black" d="M 232 170 186 310"/>
<path stroke-width="1" stroke="black" d="M 232 170 420 101"/>
<path stroke-width="1" stroke="black" d="M 232 170 168 20"/>
<path stroke-width="1" stroke="black" d="M 232 170 20 134"/>
<path stroke-width="1" stroke="black" d="M 232 170 419 238"/>
<path stroke-width="1" stroke="black" d="M 20 134 232 170"/>
<path stroke-width="1" stroke="black" d="M 20 134 21 215"/>
<path stroke-width="1" stroke="black" d="M 20 134 168 20"/>
<path stroke-width="1" stroke="black" d="M 420 101 21 215"/>
<path stroke-width="1" stroke="black" d="M 420 101 232 170"/>
<path stroke-width="1" stroke="black" d="M 168 20 419 238"/>
<path stroke-width="1" stroke="black" d="M 168 20 305 31"/>
<path stroke-width="1" stroke="black" d="M 168 20 319 320"/>
<path stroke-width="1" stroke="black" d="M 168 20 186 310"/>
<path stroke-width="1" stroke="black" d="M 168 20 420 101"/>
<path stroke-width="1" stroke="black" d="M 168 20 20 134"/>
<path stroke-width="1" stroke="black" d="M 168 20 21 215"/>
<path stroke-width="1" stroke="black" d="M 168 20 232 170"/>
<path stroke-width="1" stroke="black" d="M 20 134 419 238"/>
<path stroke-width="1" stroke="black" d="M 20 134 305 31"/>
<path stroke-width="1" stroke="black" d="M 20 134 319 320"/>
<path stroke-width="1" stroke="black" d="M 20 134 186 310"/>
<path stroke-width="1" stroke="black" d="M 20 134 420 101"/>
<path stroke-width="1" stroke="black" d="M 419 238 319 320"/>
<path stroke-width="1" stroke="black" d="M 419 238 305 31"/>
<circle cx="232" cy="170" r="7.0" style="fill:gray;stroke:black;stroke-width:1.0"/>
<circle cx="21" cy="215" r="7.0" style="fill:gray;stroke:black;stroke-width:1.0"/>
<circle cx="20" cy="134" r="7.0" style="fill:gray;stroke:black;stroke-width:1.0"/>
<circle cx="168" cy="20" r="7.0" style="fill:gray;stroke:black;stroke-width:1.0"/>
<circle cx="420" cy="101" r="7.0" style="fill:gray;stroke:black;stroke-width:1.0"/>
<circle cx="186" cy="310" r="7.0" style="fill:gray;stroke:black;stroke-width:1.0"/>
<circle cx="319" cy="320" r="7.0" style="fill:gray;stroke:black;stroke-width:1.0"/>
<circle cx="305" cy="31" r="7.0" style="fill:gray;stroke:black;stroke-width:1.0"/>
<circle cx="419" cy="238" r="7.0" style="fill:gray;stroke:black;stroke-width:1.0"/>
</svg>
