<svg width="440" height="340" xmlns="http://www.w3.org/2000/svg">
<path stroke-width="20.0" stroke="black" d="M 222 186 420 125"/>
<path stroke-width="0.5" stroke="black" d="M 267 320 106 300"/>
<path stroke-width="0.5" stroke="black" d="M 267 320 288 70"/>
<path stroke-width="0.5" stroke="black" d="M 267 320 420 125"/>
<path stroke-width="20.0" stroke="black" d="M 267 320 222 186"/>
<path stroke-width="0.5" stroke="black" d="M 398 247 174 20"/>
<path stroke-width="0.5" stroke="black" d="M 398 247 41 101"/>
<path stroke-width="0.5" stroke="black" d="M 267 320 20 209"/>
<path stroke-width="0.5" stroke="black" d="M 398 247 267 320"/>
<path stroke-width="0.5" stroke="black" d="M 398 247 106 300"/>
<path stroke-width="0.5" stroke="black" d="M 398 247 288 70"/>
<path stroke-width="0.5" stroke="black" d="M 398 247 420 125"/>
<path stroke-width="20.0" stroke="black" d="M 398 247 222 186"/>
<path stroke-width="0.5" stroke="black" d="M 20 209 174 20"/>
<path stroke-width="0.5" stroke="black" d="M 20 209 41 101"/>
<path stroke-width="0.5" stroke="black" d="M 398 247 20 209"/>
<path stroke-width="0.5" stroke="black" d="M 20 209 267 320"/>
<path stroke-width="0.5" stroke="black" d="M 267 320 398 247"/>
<path stroke-width="0.5" stroke="black" d="M 267 320 174 20"/>
<path stroke-width="0.5" stroke="black" d="M 174 20 398 247"/>
<path stroke-width="0.5" stroke="black" d="M 174 20 20 209"/>
<path stroke-width="0.5" stroke="black" d="M 174 20 106 300"/>
<path stroke-width="0.5" stroke="black" d="M 174 20 288 70"/>
<path stroke-width="0.5" stroke="black" d="M 174 20 420 125"/>
<path stroke-width="20.0" stroke="black" d="M 174 20 222 186"/>
<path stroke-width="0.5" stroke="black" d="M 267 320 41 101"/>
<path stroke-width="0.5" stroke="black" d="M 41 101 174 20"/>
<path stroke-width="0.5" stroke="black" d="M 41 101 398 247"/>
<path stroke-width="0.5" stroke="black" d="M 41 101 20 209"/>
<path stroke-width="0.5" stroke="black" d="M 41 101 106 300"/>
<path stroke-width="0.5" stroke="black" d="M 41 101 288 70"/>
<path stroke-width="0.5" stroke="black" d="M 41 101 420 125"/>
<path stroke-width="20.0" stroke="black" d="M 41 101 222 186"/>
<path stroke-width="0.5" stroke="black" d="M 41 101 267 320"/>
<path stroke-width="0.5" stroke="black" d="M 20 209 398 247"/>
<path stroke-width="0.5" stroke="black" d="M 20 209 106 300"/>
<path stroke-width="0.5" stroke="black" d="M 20 209 288 70"/>
<path stroke-width="0.5" stroke="black" d="M 420 125 41 101"/>
<path stroke-width="0.5" stroke="black" d="M 420 125 267 320"/>
<path stroke-width="0.5" stroke="black" d="M 420 125 398 247"/>
<path stroke-width="0.5" stroke="black" d="M 420 125 20 209"/>
<path stroke-width="0.5" stroke="black" d="M 420 125 106 300"/>
<path stroke-width="0.5" stroke="black" d="M 420 125 288 70"/>
<path stroke-width="0.5" stroke="black" d="M 420 125 174 20"/>
<path stroke-width="20.0" stroke="black" d="M 420 125 222 186"/>
<path stroke-width="20.0" stroke="black" d="M 222 186 41 101"/>
<path stroke-width="20.0" stroke="black" d="M 222 186 267 320"/>
<path stroke-width="20.0" stroke="black" d="M 222 186 398 247"/>
<path stroke-width="20.0" stroke="black" d="M 222 186 20 209"/>
<path stroke-width="20.0" stroke="black" d="M 222 186 106 300"/>
<path stroke-width="20.0" stroke="black" d="M 222 186 288 70"/>
<path stroke-width="20.0" stroke="black" d="M 222 186 174 20"/>
<path stroke-width="20.0" stroke="black" d="M 288 70 222 186"/>
<path stroke-width="0.5" stroke="black" d="M 288 70 420 125"/>
<path stroke-width="0.5" stroke="black" d="M 288 70 106 300"/>
<path stroke-width="0.5" stroke="black" d="M 20 209 420 125"/>
<path stroke-width="20.0" stroke="black" d="M 20 209 222 186"/>
<path stroke-width="0.5" stroke="black" d="M 106 300 174 20"/>
<path stroke-width="0.5" stroke="black" d="M 106 300 41 101"/>
<path stroke-width="0.5" stroke="black" d="M 106 300 267 320"/>
<path stroke-width="0.5" stroke="black" d="M 106 300 398 247"/>
<path stroke-width="0.5" stroke="black" d="M 106 300 20 209"/>
<path stroke-width="0.5" stroke="black" d="M 106 300 288 70"/>
<path stroke-width="0.5" stroke="black" d="M 106 300 420 125"/>
<path stroke-width="20.0" stroke="black" d="M 106 300 222 186"/>
<path stroke-width="0.5" stroke="black" d="M 288 70 174 20"/>
<path stroke-width="0.5" stroke="black" d="M 288 70 41 101"/>
<path stroke-width="0.5" stroke="black" d="M 288 70 267 320"/>
<path stroke-width="0.5" stroke="black" d="M 288 70 398 247"/>
<path stroke-width="0.5" stroke="black" d="M 288 70 20 209"/>
<path stroke-width="0.5" stroke="black" d="M 174 20 267 320"/>
<path stroke-width="0.5" stroke="black" d="M 174 20 41 101"/>
<circle cx="222" cy="186" r="7.0" style="fill:gray;stroke:black;stroke-width:1.0"/>
<circle cx="420" cy="125" r="7.0" style="fill:gray;stroke:black;stroke-width:1.0"/>
<circle cx="288" cy="70" r="7.0" style="fill:gray;stroke:black;stroke-width:1.0"/>
<circle cx="106" cy="300" r="7.0" style="fill:gray;stroke:black;stroke-width:1.0"/>
<circle cx="20" cy="209" r="7.0" style="fill:gray;stroke:black;stroke-width:1.0"/>
<circle cx="398" cy="247" r="7.0" style="fill:gray;stroke:black;stroke-width:1.0"/>
<circle cx="267" cy="320" r="7.0" style="fill:gray;stroke:black;stroke-width:1.0"/>
<circle cx="41" cy="101" r="7.0" style="fill:gray;stroke:black;stroke-width:1.0"/>
<circle cx="174" cy="20" r="7.0" style="fill:gray;stroke:black;stroke-width:1.0"/>
</svg>
