<svg width="440" height="340" xmlns="http://www.w3.org/2000/svg">
<path stroke-width="20.0" stroke="black" d="M 222 168 20 166"/>
<path stroke-width="0.5" stroke="black" d="M 66 74 237 320"/>
<path stroke-width="0.5" stroke="black" d="M 66 74 349 56"/>
<path stroke-width="0.5" stroke="black" d="M 66 74 20 166"/>
<path stroke-width="20.0" stroke="black" d="M 66 74 222 168"/>
<path stroke-width="0.5" stroke="black" d="M 370 256 103 275"/>
<path stroke-width="0.5" stroke="black" d="M 370 256 420 139"/>
<path stroke-width="0.5" stroke="black" d="M 66 74 205 20"/>
<path stroke-width="0.5" stroke="black" d="M 370 256 66 74"/>
<path stroke-width="0.5" stroke="black" d="M 370 256 237 320"/>
<path stroke-width="0.5" stroke="black" d="M 370 256 349 56"/>
<path stroke-width="0.5" stroke="black" d="M 370 256 20 166"/>
<path stroke-width="20.0" stroke="black" d="M 370 256 222 168"/>
<path stroke-width="0.5" stroke="black" d="M 205 20 103 275"/>
<path stroke-width="0.5" stroke="black" d="M 205 20 420 139"/>
<path stroke-width="0.5" stroke="black" d="M 370 256 205 20"/>
<path stroke-width="0.5" stroke="black" d="M 205 20 66 74"/>
<path stroke-width="0.5" stroke="black" d="M 66 74 370 256"/>
<path stroke-width="0.5" stroke="black" d="M 66 74 103 275"/>
<path stroke-width="0.5" stroke="black" d="M 103 275 370 256"/>
<path stroke-width="0.5" stroke="black" d="M 103 275 205 20"/>
<path stroke-width="0.5" stroke="black" d="M 103 275 237 320"/>
<path stroke-width="0.5" stroke="black" d="M 103 275 349 56"/>
<path stroke-width="0.5" stroke="black" d="M 103 275 20 166"/>
<path stroke-width="20.0" stroke="black" d="M 103 275 222 168"/>
<path stroke-width="0.5" stroke="black" d="M 66 74 420 139"/>
<path stroke-width="0.5" stroke="black" d="M 420 139 103 275"/>
<path stroke-width="0.5" stroke="black" d="M 420 139 370 256"/>
<path stroke-width="0.5" stroke="black" d="M 420 139 205 20"/>
<path stroke-width="0.5" stroke="black" d="M 420 139 237 320"/>
<path stroke-width="0.5" stroke="black" d="M 420 139 349 56"/>
<path stroke-width="0.5" stroke="black" d="M 420 139 20 166"/>
<path stroke-width="20.0" stroke="black" d="M 420 139 222 168"/>
<path stroke-width="0.5" stroke="black" d="M 420 139 66 74"/>
<path stroke-width="0.5" stroke="black" d="M 205 20 370 256"/>
<path stroke-width="0.5" stroke="black" d="M 205 20 237 320"/>
<path stroke-width="0.5" stroke="black" d="M 205 20 349 56"/>
<path stroke-width="0.5" stroke="black" d="M 20 166 420 139"/>
<path stroke-width="0.5" stroke="black" d="M 20 166 66 74"/>
<path stroke-width="0.5" stroke="black" d="M 20 166 370 256"/>
<path stroke-width="0.5" stroke="black" d="M 20 166 205 20"/>
<path stroke-width="0.5" stroke="black" d="M 20 166 237 320"/>
<path stroke-width="0.5" stroke="black" d="M 20 166 349 56"/>
<path stroke-width="0.5" stroke="black" d="M 20 166 103 275"/>
<path stroke-width="20.0" stroke="black" d="M 20 166 222 168"/>
<path stroke-width="20.0" stroke="black" d="M 222 168 420 139"/>
<path stroke-width="20.0" stroke="black" d="M 222 168 66 74"/>
<path stroke-width="20.0" stroke="black" d="M 222 168 370 256"/>
<path stroke-width="20.0" stroke="black" d="M 222 168 205 20"/>
<path stroke-width="20.0" stroke="black" d="M 222 168 237 320"/>
<path stroke-width="20.0" stroke="black" d="M 222 168 349 56"/>
<path stroke-width="20.0" stroke="black" d="M 222 168 103 275"/>
<path stroke-width="20.0" stroke="black" d="M 349 56 222 168"/>
<path stroke-width="0.5" stroke="black" d="M 349 56 20 166"/>
<path stroke-width="0.5" stroke="black" d="M 349 56 237 320"/>
<path stroke-width="0.5" stroke="black" d="M 205 20 20 166"/>
<path stroke-width="20.0" stroke="black" d="M 205 20 222 168"/>
<path stroke-width="0.5" stroke="black" d="M 237 320 103 275"/>
<path stroke-width="0.5" stroke="black" d="M 237 320 420 139"/>
<path stroke-width="0.5" stroke="black" d="M 237 320 66 74"/>
<path stroke-width="0.5" stroke="black" d="M 237 320 370 256"/>
<path stroke-width="0.5" stroke="black" d="M 237 320 205 20"/>
<path stroke-width="0.5" stroke="black" d="M 237 320 349 56"/>
<path stroke-width="0.5" stroke="black" d="M 237 320 20 166"/>
<path stroke-width="20.0" stroke="black" d="M 237 320 222 168"/>
<path stroke-width="0.5" stroke="black" d="M 349 56 103 275"/>
<path stroke-width="0.5" stroke="black" d="M 349 56 420 139"/>
<path stroke-width="0.5" stroke="black" d="M 349 56 66 74"/>
<path stroke-width="0.5" stroke="black" d="M 349 56 370 256"/>
<path stroke-width="0.5" stroke="black" d="M 349 56 205 20"/>
<path stroke-width="0.5" stroke="black" d="M 103 275 66 74"/>
<path stroke-width="0.5" stroke="black" d="M 103 275 420 139"/>
<circle cx="222" cy="168" r="20.0" style="fill:gray;stroke:black;stroke-width:1.0"/>
<circle cx="20" cy="166" r="20.0" style="fill:gray;stroke:black;stroke-width:1.0"/>
<circle cx="349" cy="56" r="20.0" style="fill:gray;stroke:black;stroke-width:1.0"/>
<circle cx="237" cy="320" r="20.0" style="fill:gray;stroke:black;stroke-width:1.0"/>
<circle cx="205" cy="20" r="20.0" style="fill:gray;stroke:black;stroke-width:1.0"/>
<circle cx="370" cy="256" r="20.0" style="fill:gray;stroke:black;stroke-width:1.0"/>
<circle cx="66" cy="74" r="20.0" style="fill:gray;stroke:black;stroke-width:1.0"/>
<circle cx="420" cy="139" r="20.0" style="fill:gray;stroke:black;stroke-width:1.0"/>
<circle cx="103" cy="275" r="20.0" style="fill:gray;stroke:black;stroke-width:1.0"/>
</svg>
