<svg width="440" height="340" xmlns="http://www.w3.org/2000/svg">
<path stroke-width="1" stroke="black" d="M 250 191 420 211"/>
<path stroke-width="1" stroke="black" d="M 119 61 87 124"/>
<path stroke-width="1" stroke="black" d="M 119 61 238 48"/>
<path stroke-width="1" stroke="black" d="M 119 61 123 141"/>
<path stroke-width="1" stroke="black" d="M 119 61 366 160"/>
<path stroke-width="1" stroke="black" d="M 119 61 244 33"/>
<path stroke-width="1" stroke="black" d="M 119 61 356 276"/>
<path stroke-width="1" stroke="black" d="M 119 61 20 195"/>
<path stroke-width="1" stroke="black" d="M 119 61 69 63"/>
<path stroke-width="1" stroke="black" d="M 119 61 105 296"/>
<path stroke-width="1" stroke="black" d="M 119 61 108 302"/>
<path stroke-width="1" stroke="black" d="M 119 61 229 115"/>
<path stroke-width="1" stroke="black" d="M 119 61 271 210"/>
<path stroke-width="1" stroke="black" d="M 119 61 375 170"/>
<path stroke-width="1" stroke="black" d="M 119 61 344 84"/>
<path stroke-width="1" stroke="black" d="M 119 61 223 319"/>
<path stroke-width="1" stroke="black" d="M 119 61 171 232"/>
<path stroke-width="1" stroke="black" d="M 119 61 74 274"/>
<path stroke-width="1" stroke="black" d="M 119 61 349 280"/>
<path stroke-width="1" stroke="black" d="M 119 61 420 211"/>
<path stroke-width="1" stroke="black" d="M 344 84 340 83"/>
<path stroke-width="1" stroke="black" d="M 344 84 356 276"/>
<path stroke-width="1" stroke="black" d="M 344 84 20 195"/>
<path stroke-width="1" stroke="black" d="M 344 84 105 296"/>
<path stroke-width="1" stroke="black" d="M 344 84 74 274"/>
<path stroke-width="1" stroke="black" d="M 344 84 108 302"/>
<path stroke-width="1" stroke="black" d="M 344 84 229 115"/>
<path stroke-width="1" stroke="black" d="M 344 84 271 210"/>
<path stroke-width="1" stroke="black" d="M 119 61 250 191"/>
<path stroke-width="1" stroke="black" d="M 344 84 375 170"/>
<path stroke-width="1" stroke="black" d="M 344 84 223 319"/>
<path stroke-width="1" stroke="black" d="M 344 84 171 232"/>
<path stroke-width="1" stroke="black" d="M 344 84 349 280"/>
<path stroke-width="1" stroke="black" d="M 344 84 252 311"/>
<path stroke-width="1" stroke="black" d="M 344 84 274 206"/>
<path stroke-width="1" stroke="black" d="M 344 84 223 320"/>
<path stroke-width="1" stroke="black" d="M 344 84 160 20"/>
<path stroke-width="1" stroke="black" d="M 344 84 119 61"/>
<path stroke-width="1" stroke="black" d="M 119 61 252 311"/>
<path stroke-width="1" stroke="black" d="M 119 61 274 206"/>
<path stroke-width="1" stroke="black" d="M 119 61 223 320"/>
<path stroke-width="1" stroke="black" d="M 223 319 349 280"/>
<path stroke-width="1" stroke="black" d="M 223 319 252 311"/>
<path stroke-width="1" stroke="black" d="M 223 319 274 206"/>
<path stroke-width="1" stroke="black" d="M 223 319 223 320"/>
<path stroke-width="1" stroke="black" d="M 223 319 160 20"/>
<path stroke-width="1" stroke="black" d="M 223 319 340 83"/>
<path stroke-width="1" stroke="black" d="M 171 232 250 191"/>
<path stroke-width="1" stroke="black" d="M 223 319 171 232"/>
<path stroke-width="1" stroke="black" d="M 171 232 420 211"/>
<path stroke-width="1" stroke="black" d="M 171 232 87 124"/>
<path stroke-width="1" stroke="black" d="M 171 232 238 48"/>
<path stroke-width="1" stroke="black" d="M 171 232 123 141"/>
<path stroke-width="1" stroke="black" d="M 171 232 366 160"/>
<path stroke-width="1" stroke="black" d="M 171 232 244 33"/>
<path stroke-width="1" stroke="black" d="M 171 232 356 276"/>
<path stroke-width="1" stroke="black" d="M 171 232 20 195"/>
<path stroke-width="1" stroke="black" d="M 171 232 69 63"/>
<path stroke-width="1" stroke="black" d="M 223 319 119 61"/>
<path stroke-width="1" stroke="black" d="M 223 319 344 84"/>
<path stroke-width="1" stroke="black" d="M 223 319 375 170"/>
<path stroke-width="1" stroke="black" d="M 119 61 160 20"/>
<path stroke-width="1" stroke="black" d="M 119 61 340 83"/>
<path stroke-width="1" stroke="black" d="M 223 319 250 191"/>
<path stroke-width="1" stroke="black" d="M 223 319 420 211"/>
<path stroke-width="1" stroke="black" d="M 223 319 69 63"/>
<path stroke-width="1" stroke="black" d="M 223 319 87 124"/>
<path stroke-width="1" stroke="black" d="M 223 319 238 48"/>
<path stroke-width="1" stroke="black" d="M 223 319 123 141"/>
<path stroke-width="1" stroke="black" d="M 223 319 366 160"/>
<path stroke-width="1" stroke="black" d="M 223 319 244 33"/>
<path stroke-width="1" stroke="black" d="M 223 319 356 276"/>
<path stroke-width="1" stroke="black" d="M 223 319 20 195"/>
<path stroke-width="1" stroke="black" d="M 223 319 105 296"/>
<path stroke-width="1" stroke="black" d="M 223 319 74 274"/>
<path stroke-width="1" stroke="black" d="M 223 319 108 302"/>
<path stroke-width="1" stroke="black" d="M 223 319 229 115"/>
<path stroke-width="1" stroke="black" d="M 223 319 271 210"/>
<path stroke-width="1" stroke="black" d="M 344 84 244 33"/>
<path stroke-width="1" stroke="black" d="M 171 232 105 296"/>
<path stroke-width="1" stroke="black" d="M 344 84 366 160"/>
<path stroke-width="1" stroke="black" d="M 344 84 238 48"/>
<path stroke-width="1" stroke="black" d="M 229 115 223 320"/>
<path stroke-width="1" stroke="black" d="M 229 115 160 20"/>
<path stroke-width="1" stroke="black" d="M 229 115 340 83"/>
<path stroke-width="1" stroke="black" d="M 271 210 250 191"/>
<path stroke-width="1" stroke="black" d="M 271 210 420 211"/>
<path stroke-width="1" stroke="black" d="M 271 210 69 63"/>
<path stroke-width="1" stroke="black" d="M 271 210 87 124"/>
<path stroke-width="1" stroke="black" d="M 229 115 274 206"/>
<path stroke-width="1" stroke="black" d="M 271 210 238 48"/>
<path stroke-width="1" stroke="black" d="M 271 210 366 160"/>
<path stroke-width="1" stroke="black" d="M 271 210 244 33"/>
<path stroke-width="1" stroke="black" d="M 271 210 356 276"/>
<path stroke-width="1" stroke="black" d="M 271 210 20 195"/>
<path stroke-width="1" stroke="black" d="M 271 210 105 296"/>
<path stroke-width="1" stroke="black" d="M 271 210 74 274"/>
<path stroke-width="1" stroke="black" d="M 271 210 108 302"/>
<path stroke-width="1" stroke="black" d="M 271 210 123 141"/>
<path stroke-width="1" stroke="black" d="M 271 210 229 115"/>
<path stroke-width="1" stroke="black" d="M 229 115 252 311"/>
<path stroke-width="1" stroke="black" d="M 229 115 171 232"/>
<path stroke-width="1" stroke="black" d="M 229 115 69 63"/>
<path stroke-width="1" stroke="black" d="M 229 115 87 124"/>
<path stroke-width="1" stroke="black" d="M 229 115 238 48"/>
<path stroke-width="1" stroke="black" d="M 229 115 123 141"/>
<path stroke-width="1" stroke="black" d="M 229 115 366 160"/>
<path stroke-width="1" stroke="black" d="M 229 115 244 33"/>
<path stroke-width="1" stroke="black" d="M 229 115 356 276"/>
<path stroke-width="1" stroke="black" d="M 229 115 349 280"/>
<path stroke-width="1" stroke="black" d="M 229 115 20 195"/>
<path stroke-width="1" stroke="black" d="M 229 115 74 274"/>
<path stroke-width="1" stroke="black" d="M 229 115 108 302"/>
<path stroke-width="1" stroke="black" d="M 229 115 271 210"/>
<path stroke-width="1" stroke="black" d="M 229 115 375 170"/>
<path stroke-width="1" stroke="black" d="M 229 115 344 84"/>
<path stroke-width="1" stroke="black" d="M 229 115 119 61"/>
<path stroke-width="1" stroke="black" d="M 229 115 223 319"/>
<path stroke-width="1" stroke="black" d="M 229 115 105 296"/>
<path stroke-width="1" stroke="black" d="M 271 210 375 170"/>
<path stroke-width="1" stroke="black" d="M 271 210 344 84"/>
<path stroke-width="1" stroke="black" d="M 271 210 119 61"/>
<path stroke-width="1" stroke="black" d="M 375 170 229 115"/>
<path stroke-width="1" stroke="black" d="M 375 170 271 210"/>
<path stroke-width="1" stroke="black" d="M 375 170 344 84"/>
<path stroke-width="1" stroke="black" d="M 375 170 119 61"/>
<path stroke-width="1" stroke="black" d="M 375 170 223 319"/>
<path stroke-width="1" stroke="black" d="M 375 170 171 232"/>
<path stroke-width="1" stroke="black" d="M 375 170 349 280"/>
<path stroke-width="1" stroke="black" d="M 375 170 108 302"/>
<path stroke-width="1" stroke="black" d="M 375 170 252 311"/>
<path stroke-width="1" stroke="black" d="M 375 170 223 320"/>
<path stroke-width="1" stroke="black" d="M 375 170 160 20"/>
<path stroke-width="1" stroke="black" d="M 375 170 340 83"/>
<path stroke-width="1" stroke="black" d="M 344 84 250 191"/>
<path stroke-width="1" stroke="black" d="M 344 84 420 211"/>
<path stroke-width="1" stroke="black" d="M 344 84 69 63"/>
<path stroke-width="1" stroke="black" d="M 344 84 87 124"/>
<path stroke-width="1" stroke="black" d="M 375 170 274 206"/>
<path stroke-width="1" stroke="black" d="M 375 170 74 274"/>
<path stroke-width="1" stroke="black" d="M 375 170 105 296"/>
<path stroke-width="1" stroke="black" d="M 375 170 20 195"/>
<path stroke-width="1" stroke="black" d="M 271 210 223 319"/>
<path stroke-width="1" stroke="black" d="M 271 210 171 232"/>
<path stroke-width="1" stroke="black" d="M 271 210 349 280"/>
<path stroke-width="1" stroke="black" d="M 271 210 252 311"/>
<path stroke-width="1" stroke="black" d="M 271 210 274 206"/>
<path stroke-width="1" stroke="black" d="M 271 210 223 320"/>
<path stroke-width="1" stroke="black" d="M 271 210 160 20"/>
<path stroke-width="1" stroke="black" d="M 271 210 340 83"/>
<path stroke-width="1" stroke="black" d="M 375 170 250 191"/>
<path stroke-width="1" stroke="black" d="M 375 170 420 211"/>
<path stroke-width="1" stroke="black" d="M 375 170 69 63"/>
<path stroke-width="1" stroke="black" d="M 375 170 87 124"/>
<path stroke-width="1" stroke="black" d="M 375 170 238 48"/>
<path stroke-width="1" stroke="black" d="M 375 170 123 141"/>
<path stroke-width="1" stroke="black" d="M 375 170 366 160"/>
<path stroke-width="1" stroke="black" d="M 375 170 244 33"/>
<path stroke-width="1" stroke="black" d="M 375 170 356 276"/>
<path stroke-width="1" stroke="black" d="M 344 84 123 141"/>
<path stroke-width="1" stroke="black" d="M 171 232 74 274"/>
<path stroke-width="1" stroke="black" d="M 171 232 108 302"/>
<path stroke-width="1" stroke="black" d="M 171 232 229 115"/>
<path stroke-width="1" stroke="black" d="M 223 320 344 84"/>
<path stroke-width="1" stroke="black" d="M 223 320 119 61"/>
<path stroke-width="1" stroke="black" d="M 223 320 223 319"/>
<path stroke-width="1" stroke="black" d="M 223 320 171 232"/>
<path stroke-width="1" stroke="black" d="M 223 320 349 280"/>
<path stroke-width="1" stroke="black" d="M 223 320 252 311"/>
<path stroke-width="1" stroke="black" d="M 223 320 274 206"/>
<path stroke-width="1" stroke="black" d="M 223 320 375 170"/>
<path stroke-width="1" stroke="black" d="M 223 320 160 20"/>
<path stroke-width="1" stroke="black" d="M 160 20 250 191"/>
<path stroke-width="1" stroke="black" d="M 160 20 420 211"/>
<path stroke-width="1" stroke="black" d="M 160 20 69 63"/>
<path stroke-width="1" stroke="black" d="M 160 20 87 124"/>
<path stroke-width="1" stroke="black" d="M 160 20 238 48"/>
<path stroke-width="1" stroke="black" d="M 160 20 123 141"/>
<path stroke-width="1" stroke="black" d="M 160 20 366 160"/>
<path stroke-width="1" stroke="black" d="M 223 320 340 83"/>
<path stroke-width="1" stroke="black" d="M 160 20 244 33"/>
<path stroke-width="1" stroke="black" d="M 223 320 271 210"/>
<path stroke-width="1" stroke="black" d="M 223 320 108 302"/>
<path stroke-width="1" stroke="black" d="M 274 206 252 311"/>
<path stroke-width="1" stroke="black" d="M 274 206 223 320"/>
<path stroke-width="1" stroke="black" d="M 274 206 160 20"/>
<path stroke-width="1" stroke="black" d="M 274 206 340 83"/>
<path stroke-width="1" stroke="black" d="M 223 320 250 191"/>
<path stroke-width="1" stroke="black" d="M 223 320 420 211"/>
<path stroke-width="1" stroke="black" d="M 223 320 69 63"/>
<path stroke-width="1" stroke="black" d="M 223 320 229 115"/>
<path stroke-width="1" stroke="black" d="M 223 320 87 124"/>
<path stroke-width="1" stroke="black" d="M 223 320 123 141"/>
<path stroke-width="1" stroke="black" d="M 223 320 366 160"/>
<path stroke-width="1" stroke="black" d="M 223 320 244 33"/>
<path stroke-width="1" stroke="black" d="M 223 320 356 276"/>
<path stroke-width="1" stroke="black" d="M 223 320 20 195"/>
<path stroke-width="1" stroke="black" d="M 223 320 105 296"/>
<path stroke-width="1" stroke="black" d="M 223 320 74 274"/>
<path stroke-width="1" stroke="black" d="M 223 320 238 48"/>
<path stroke-width="1" stroke="black" d="M 160 20 356 276"/>
<path stroke-width="1" stroke="black" d="M 160 20 20 195"/>
<path stroke-width="1" stroke="black" d="M 160 20 105 296"/>
<path stroke-width="1" stroke="black" d="M 340 83 244 33"/>
<path stroke-width="1" stroke="black" d="M 340 83 356 276"/>
<path stroke-width="1" stroke="black" d="M 340 83 20 195"/>
<path stroke-width="1" stroke="black" d="M 340 83 105 296"/>
<path stroke-width="1" stroke="black" d="M 340 83 74 274"/>
<path stroke-width="1" stroke="black" d="M 340 83 108 302"/>
<path stroke-width="1" stroke="black" d="M 340 83 229 115"/>
<path stroke-width="1" stroke="black" d="M 340 83 366 160"/>
<path stroke-width="1" stroke="black" d="M 340 83 271 210"/>
<path stroke-width="1" stroke="black" d="M 340 83 344 84"/>
<path stroke-width="1" stroke="black" d="M 340 83 119 61"/>
<path stroke-width="1" stroke="black" d="M 340 83 223 319"/>
<path stroke-width="1" stroke="black" d="M 340 83 171 232"/>
<path stroke-width="1" stroke="black" d="M 340 83 349 280"/>
<path stroke-width="1" stroke="black" d="M 340 83 252 311"/>
<path stroke-width="1" stroke="black" d="M 340 83 274 206"/>
<path stroke-width="1" stroke="black" d="M 340 83 375 170"/>
<path stroke-width="1" stroke="black" d="M 340 83 123 141"/>
<path stroke-width="1" stroke="black" d="M 340 83 238 48"/>
<path stroke-width="1" stroke="black" d="M 340 83 87 124"/>
<path stroke-width="1" stroke="black" d="M 160 20 74 274"/>
<path stroke-width="1" stroke="black" d="M 160 20 108 302"/>
<path stroke-width="1" stroke="black" d="M 160 20 229 115"/>
<path stroke-width="1" stroke="black" d="M 160 20 271 210"/>
<path stroke-width="1" stroke="black" d="M 160 20 375 170"/>
<path stroke-width="1" stroke="black" d="M 160 20 344 84"/>
<path stroke-width="1" stroke="black" d="M 160 20 119 61"/>
<path stroke-width="1" stroke="black" d="M 160 20 223 319"/>
<path stroke-width="1" stroke="black" d="M 160 20 171 232"/>
<path stroke-width="1" stroke="black" d="M 160 20 349 280"/>
<path stroke-width="1" stroke="black" d="M 160 20 252 311"/>
<path stroke-width="1" stroke="black" d="M 160 20 274 206"/>
<path stroke-width="1" stroke="black" d="M 160 20 223 320"/>
<path stroke-width="1" stroke="black" d="M 160 20 340 83"/>
<path stroke-width="1" stroke="black" d="M 340 83 250 191"/>
<path stroke-width="1" stroke="black" d="M 340 83 420 211"/>
<path stroke-width="1" stroke="black" d="M 340 83 69 63"/>
<path stroke-width="1" stroke="black" d="M 274 206 349 280"/>
<path stroke-width="1" stroke="black" d="M 274 206 171 232"/>
<path stroke-width="1" stroke="black" d="M 274 206 223 319"/>
<path stroke-width="1" stroke="black" d="M 274 206 119 61"/>
<path stroke-width="1" stroke="black" d="M 349 280 105 296"/>
<path stroke-width="1" stroke="black" d="M 349 280 74 274"/>
<path stroke-width="1" stroke="black" d="M 349 280 108 302"/>
<path stroke-width="1" stroke="black" d="M 349 280 229 115"/>
<path stroke-width="1" stroke="black" d="M 349 280 271 210"/>
<path stroke-width="1" stroke="black" d="M 349 280 375 170"/>
<path stroke-width="1" stroke="black" d="M 349 280 344 84"/>
<path stroke-width="1" stroke="black" d="M 349 280 20 195"/>
<path stroke-width="1" stroke="black" d="M 349 280 119 61"/>
<path stroke-width="1" stroke="black" d="M 349 280 171 232"/>
<path stroke-width="1" stroke="black" d="M 349 280 252 311"/>
<path stroke-width="1" stroke="black" d="M 349 280 274 206"/>
<path stroke-width="1" stroke="black" d="M 349 280 223 320"/>
<path stroke-width="1" stroke="black" d="M 349 280 160 20"/>
<path stroke-width="1" stroke="black" d="M 349 280 340 83"/>
<path stroke-width="1" stroke="black" d="M 252 311 250 191"/>
<path stroke-width="1" stroke="black" d="M 349 280 223 319"/>
<path stroke-width="1" stroke="black" d="M 349 280 356 276"/>
<path stroke-width="1" stroke="black" d="M 349 280 244 33"/>
<path stroke-width="1" stroke="black" d="M 349 280 366 160"/>
<path stroke-width="1" stroke="black" d="M 171 232 271 210"/>
<path stroke-width="1" stroke="black" d="M 171 232 375 170"/>
<path stroke-width="1" stroke="black" d="M 171 232 344 84"/>
<path stroke-width="1" stroke="black" d="M 171 232 119 61"/>
<path stroke-width="1" stroke="black" d="M 171 232 223 319"/>
<path stroke-width="1" stroke="black" d="M 171 232 349 280"/>
<path stroke-width="1" stroke="black" d="M 171 232 252 311"/>
<path stroke-width="1" stroke="black" d="M 171 232 274 206"/>
<path stroke-width="1" stroke="black" d="M 171 232 223 320"/>
<path stroke-width="1" stroke="black" d="M 171 232 160 20"/>
<path stroke-width="1" stroke="black" d="M 171 232 340 83"/>
<path stroke-width="1" stroke="black" d="M 349 280 250 191"/>
<path stroke-width="1" stroke="black" d="M 349 280 420 211"/>
<path stroke-width="1" stroke="black" d="M 349 280 69 63"/>
<path stroke-width="1" stroke="black" d="M 349 280 87 124"/>
<path stroke-width="1" stroke="black" d="M 349 280 238 48"/>
<path stroke-width="1" stroke="black" d="M 349 280 123 141"/>
<path stroke-width="1" stroke="black" d="M 252 311 420 211"/>
<path stroke-width="1" stroke="black" d="M 229 115 420 211"/>
<path stroke-width="1" stroke="black" d="M 252 311 69 63"/>
<path stroke-width="1" stroke="black" d="M 252 311 238 48"/>
<path stroke-width="1" stroke="black" d="M 274 206 420 211"/>
<path stroke-width="1" stroke="black" d="M 274 206 69 63"/>
<path stroke-width="1" stroke="black" d="M 274 206 87 124"/>
<path stroke-width="1" stroke="black" d="M 274 206 238 48"/>
<path stroke-width="1" stroke="black" d="M 274 206 123 141"/>
<path stroke-width="1" stroke="black" d="M 274 206 366 160"/>
<path stroke-width="1" stroke="black" d="M 274 206 244 33"/>
<path stroke-width="1" stroke="black" d="M 274 206 250 191"/>
<path stroke-width="1" stroke="black" d="M 274 206 356 276"/>
<path stroke-width="1" stroke="black" d="M 274 206 105 296"/>
<path stroke-width="1" stroke="black" d="M 274 206 74 274"/>
<path stroke-width="1" stroke="black" d="M 274 206 108 302"/>
<path stroke-width="1" stroke="black" d="M 274 206 229 115"/>
<path stroke-width="1" stroke="black" d="M 274 206 271 210"/>
<path stroke-width="1" stroke="black" d="M 274 206 375 170"/>
<path stroke-width="1" stroke="black" d="M 274 206 344 84"/>
<path stroke-width="1" stroke="black" d="M 274 206 20 195"/>
<path stroke-width="1" stroke="black" d="M 252 311 340 83"/>
<path stroke-width="1" stroke="black" d="M 252 311 160 20"/>
<path stroke-width="1" stroke="black" d="M 252 311 223 320"/>
<path stroke-width="1" stroke="black" d="M 252 311 123 141"/>
<path stroke-width="1" stroke="black" d="M 252 311 366 160"/>
<path stroke-width="1" stroke="black" d="M 252 311 244 33"/>
<path stroke-width="1" stroke="black" d="M 252 311 356 276"/>
<path stroke-width="1" stroke="black" d="M 252 311 20 195"/>
<path stroke-width="1" stroke="black" d="M 252 311 105 296"/>
<path stroke-width="1" stroke="black" d="M 252 311 74 274"/>
<path stroke-width="1" stroke="black" d="M 252 311 108 302"/>
<path stroke-width="1" stroke="black" d="M 252 311 229 115"/>
<path stroke-width="1" stroke="black" d="M 252 311 271 210"/>
<path stroke-width="1" stroke="black" d="M 252 311 375 170"/>
<path stroke-width="1" stroke="black" d="M 252 311 344 84"/>
<path stroke-width="1" stroke="black" d="M 252 311 119 61"/>
<path stroke-width="1" stroke="black" d="M 252 311 223 319"/>
<path stroke-width="1" stroke="black" d="M 252 311 171 232"/>
<path stroke-width="1" stroke="black" d="M 252 311 349 280"/>
<path stroke-width="1" stroke="black" d="M 252 311 274 206"/>
<path stroke-width="1" stroke="black" d="M 252 311 87 124"/>
<path stroke-width="1" stroke="black" d="M 229 115 250 191"/>
<path stroke-width="1" stroke="black" d="M 108 302 340 83"/>
<path stroke-width="1" stroke="black" d="M 108 302 160 20"/>
<path stroke-width="1" stroke="black" d="M 238 48 87 124"/>
<path stroke-width="1" stroke="black" d="M 238 48 123 141"/>
<path stroke-width="1" stroke="black" d="M 238 48 366 160"/>
<path stroke-width="1" stroke="black" d="M 238 48 244 33"/>
<path stroke-width="1" stroke="black" d="M 238 48 356 276"/>
<path stroke-width="1" stroke="black" d="M 238 48 20 195"/>
<path stroke-width="1" stroke="black" d="M 238 48 105 296"/>
<path stroke-width="1" stroke="black" d="M 238 48 69 63"/>
<path stroke-width="1" stroke="black" d="M 238 48 74 274"/>
<path stroke-width="1" stroke="black" d="M 238 48 229 115"/>
<path stroke-width="1" stroke="black" d="M 238 48 271 210"/>
<path stroke-width="1" stroke="black" d="M 238 48 375 170"/>
<path stroke-width="1" stroke="black" d="M 238 48 344 84"/>
<path stroke-width="1" stroke="black" d="M 238 48 119 61"/>
<path stroke-width="1" stroke="black" d="M 238 48 223 319"/>
<path stroke-width="1" stroke="black" d="M 238 48 171 232"/>
<path stroke-width="1" stroke="black" d="M 238 48 108 302"/>
<path stroke-width="1" stroke="black" d="M 238 48 349 280"/>
<path stroke-width="1" stroke="black" d="M 238 48 420 211"/>
<path stroke-width="1" stroke="black" d="M 87 124 340 83"/>
<path stroke-width="1" stroke="black" d="M 87 124 20 195"/>
<path stroke-width="1" stroke="black" d="M 87 124 105 296"/>
<path stroke-width="1" stroke="black" d="M 87 124 74 274"/>
<path stroke-width="1" stroke="black" d="M 87 124 108 302"/>
<path stroke-width="1" stroke="black" d="M 87 124 229 115"/>
<path stroke-width="1" stroke="black" d="M 87 124 271 210"/>
<path stroke-width="1" stroke="black" d="M 87 124 375 170"/>
<path stroke-width="1" stroke="black" d="M 238 48 250 191"/>
<path stroke-width="1" stroke="black" d="M 87 124 344 84"/>
<path stroke-width="1" stroke="black" d="M 87 124 223 319"/>
<path stroke-width="1" stroke="black" d="M 87 124 171 232"/>
<path stroke-width="1" stroke="black" d="M 87 124 349 280"/>
<path stroke-width="1" stroke="black" d="M 87 124 252 311"/>
<path stroke-width="1" stroke="black" d="M 87 124 274 206"/>
<path stroke-width="1" stroke="black" d="M 87 124 223 320"/>
<path stroke-width="1" stroke="black" d="M 87 124 160 20"/>
<path stroke-width="1" stroke="black" d="M 87 124 119 61"/>
<path stroke-width="1" stroke="black" d="M 238 48 252 311"/>
<path stroke-width="1" stroke="black" d="M 238 48 274 206"/>
<path stroke-width="1" stroke="black" d="M 238 48 223 320"/>
<path stroke-width="1" stroke="black" d="M 123 141 349 280"/>
<path stroke-width="1" stroke="black" d="M 123 141 252 311"/>
<path stroke-width="1" stroke="black" d="M 123 141 274 206"/>
<path stroke-width="1" stroke="black" d="M 123 141 223 320"/>
<path stroke-width="1" stroke="black" d="M 123 141 160 20"/>
<path stroke-width="1" stroke="black" d="M 123 141 340 83"/>
<path stroke-width="1" stroke="black" d="M 366 160 250 191"/>
<path stroke-width="1" stroke="black" d="M 123 141 171 232"/>
<path stroke-width="1" stroke="black" d="M 366 160 420 211"/>
<path stroke-width="1" stroke="black" d="M 366 160 87 124"/>
<path stroke-width="1" stroke="black" d="M 366 160 238 48"/>
<path stroke-width="1" stroke="black" d="M 366 160 123 141"/>
<path stroke-width="1" stroke="black" d="M 366 160 244 33"/>
<path stroke-width="1" stroke="black" d="M 366 160 356 276"/>
<path stroke-width="1" stroke="black" d="M 366 160 20 195"/>
<path stroke-width="1" stroke="black" d="M 366 160 105 296"/>
<path stroke-width="1" stroke="black" d="M 366 160 69 63"/>
<path stroke-width="1" stroke="black" d="M 123 141 223 319"/>
<path stroke-width="1" stroke="black" d="M 123 141 119 61"/>
<path stroke-width="1" stroke="black" d="M 123 141 344 84"/>
<path stroke-width="1" stroke="black" d="M 238 48 160 20"/>
<path stroke-width="1" stroke="black" d="M 238 48 340 83"/>
<path stroke-width="1" stroke="black" d="M 123 141 250 191"/>
<path stroke-width="1" stroke="black" d="M 123 141 420 211"/>
<path stroke-width="1" stroke="black" d="M 123 141 69 63"/>
<path stroke-width="1" stroke="black" d="M 123 141 87 124"/>
<path stroke-width="1" stroke="black" d="M 123 141 238 48"/>
<path stroke-width="1" stroke="black" d="M 123 141 366 160"/>
<path stroke-width="1" stroke="black" d="M 123 141 244 33"/>
<path stroke-width="1" stroke="black" d="M 123 141 356 276"/>
<path stroke-width="1" stroke="black" d="M 123 141 20 195"/>
<path stroke-width="1" stroke="black" d="M 123 141 105 296"/>
<path stroke-width="1" stroke="black" d="M 123 141 74 274"/>
<path stroke-width="1" stroke="black" d="M 123 141 108 302"/>
<path stroke-width="1" stroke="black" d="M 123 141 229 115"/>
<path stroke-width="1" stroke="black" d="M 123 141 271 210"/>
<path stroke-width="1" stroke="black" d="M 123 141 375 170"/>
<path stroke-width="1" stroke="black" d="M 87 124 356 276"/>
<path stroke-width="1" stroke="black" d="M 87 124 244 33"/>
<path stroke-width="1" stroke="black" d="M 87 124 366 160"/>
<path stroke-width="1" stroke="black" d="M 87 124 123 141"/>
<path stroke-width="1" stroke="black" d="M 250 191 223 320"/>
<path stroke-width="1" stroke="black" d="M 250 191 160 20"/>
<path stroke-width="1" stroke="black" d="M 250 191 340 83"/>
<path stroke-width="1" stroke="black" d="M 420 211 250 191"/>
<path stroke-width="1" stroke="black" d="M 420 211 69 63"/>
<path stroke-width="1" stroke="black" d="M 420 211 87 124"/>
<path stroke-width="1" stroke="black" d="M 420 211 238 48"/>
<path stroke-width="1" stroke="black" d="M 250 191 274 206"/>
<path stroke-width="1" stroke="black" d="M 420 211 123 141"/>
<path stroke-width="1" stroke="black" d="M 420 211 244 33"/>
<path stroke-width="1" stroke="black" d="M 420 211 356 276"/>
<path stroke-width="1" stroke="black" d="M 420 211 20 195"/>
<path stroke-width="1" stroke="black" d="M 420 211 105 296"/>
<path stroke-width="1" stroke="black" d="M 420 211 74 274"/>
<path stroke-width="1" stroke="black" d="M 420 211 108 302"/>
<path stroke-width="1" stroke="black" d="M 420 211 229 115"/>
<path stroke-width="1" stroke="black" d="M 420 211 366 160"/>
<path stroke-width="1" stroke="black" d="M 250 191 252 311"/>
<path stroke-width="1" stroke="black" d="M 250 191 349 280"/>
<path stroke-width="1" stroke="black" d="M 250 191 171 232"/>
<path stroke-width="1" stroke="black" d="M 250 191 69 63"/>
<path stroke-width="1" stroke="black" d="M 250 191 87 124"/>
<path stroke-width="1" stroke="black" d="M 250 191 238 48"/>
<path stroke-width="1" stroke="black" d="M 250 191 123 141"/>
<path stroke-width="1" stroke="black" d="M 250 191 366 160"/>
<path stroke-width="1" stroke="black" d="M 250 191 244 33"/>
<path stroke-width="1" stroke="black" d="M 250 191 356 276"/>
<path stroke-width="1" stroke="black" d="M 250 191 20 195"/>
<path stroke-width="1" stroke="black" d="M 250 191 105 296"/>
<path stroke-width="1" stroke="black" d="M 250 191 74 274"/>
<path stroke-width="1" stroke="black" d="M 250 191 108 302"/>
<path stroke-width="1" stroke="black" d="M 250 191 229 115"/>
<path stroke-width="1" stroke="black" d="M 250 191 271 210"/>
<path stroke-width="1" stroke="black" d="M 250 191 375 170"/>
<path stroke-width="1" stroke="black" d="M 250 191 344 84"/>
<path stroke-width="1" stroke="black" d="M 250 191 119 61"/>
<path stroke-width="1" stroke="black" d="M 250 191 223 319"/>
<path stroke-width="1" stroke="black" d="M 420 211 271 210"/>
<path stroke-width="1" stroke="black" d="M 366 160 74 274"/>
<path stroke-width="1" stroke="black" d="M 420 211 375 170"/>
<path stroke-width="1" stroke="black" d="M 420 211 119 61"/>
<path stroke-width="1" stroke="black" d="M 69 63 271 210"/>
<path stroke-width="1" stroke="black" d="M 69 63 375 170"/>
<path stroke-width="1" stroke="black" d="M 69 63 344 84"/>
<path stroke-width="1" stroke="black" d="M 69 63 119 61"/>
<path stroke-width="1" stroke="black" d="M 69 63 223 319"/>
<path stroke-width="1" stroke="black" d="M 69 63 171 232"/>
<path stroke-width="1" stroke="black" d="M 69 63 349 280"/>
<path stroke-width="1" stroke="black" d="M 69 63 229 115"/>
<path stroke-width="1" stroke="black" d="M 69 63 252 311"/>
<path stroke-width="1" stroke="black" d="M 69 63 223 320"/>
<path stroke-width="1" stroke="black" d="M 69 63 160 20"/>
<path stroke-width="1" stroke="black" d="M 69 63 340 83"/>
<path stroke-width="1" stroke="black" d="M 87 124 250 191"/>
<path stroke-width="1" stroke="black" d="M 87 124 420 211"/>
<path stroke-width="1" stroke="black" d="M 87 124 69 63"/>
<path stroke-width="1" stroke="black" d="M 87 124 238 48"/>
<path stroke-width="1" stroke="black" d="M 69 63 274 206"/>
<path stroke-width="1" stroke="black" d="M 69 63 108 302"/>
<path stroke-width="1" stroke="black" d="M 69 63 74 274"/>
<path stroke-width="1" stroke="black" d="M 69 63 105 296"/>
<path stroke-width="1" stroke="black" d="M 420 211 223 319"/>
<path stroke-width="1" stroke="black" d="M 420 211 171 232"/>
<path stroke-width="1" stroke="black" d="M 420 211 349 280"/>
<path stroke-width="1" stroke="black" d="M 420 211 252 311"/>
<path stroke-width="1" stroke="black" d="M 420 211 274 206"/>
<path stroke-width="1" stroke="black" d="M 420 211 223 320"/>
<path stroke-width="1" stroke="black" d="M 420 211 160 20"/>
<path stroke-width="1" stroke="black" d="M 420 211 340 83"/>
<path stroke-width="1" stroke="black" d="M 69 63 250 191"/>
<path stroke-width="1" stroke="black" d="M 69 63 420 211"/>
<path stroke-width="1" stroke="black" d="M 69 63 87 124"/>
<path stroke-width="1" stroke="black" d="M 69 63 238 48"/>
<path stroke-width="1" stroke="black" d="M 69 63 123 141"/>
<path stroke-width="1" stroke="black" d="M 69 63 366 160"/>
<path stroke-width="1" stroke="black" d="M 69 63 244 33"/>
<path stroke-width="1" stroke="black" d="M 69 63 356 276"/>
<path stroke-width="1" stroke="black" d="M 69 63 20 195"/>
<path stroke-width="1" stroke="black" d="M 420 211 344 84"/>
<path stroke-width="1" stroke="black" d="M 340 83 223 320"/>
<path stroke-width="1" stroke="black" d="M 366 160 108 302"/>
<path stroke-width="1" stroke="black" d="M 366 160 271 210"/>
<path stroke-width="1" stroke="black" d="M 105 296 119 61"/>
<path stroke-width="1" stroke="black" d="M 105 296 223 319"/>
<path stroke-width="1" stroke="black" d="M 105 296 171 232"/>
<path stroke-width="1" stroke="black" d="M 105 296 349 280"/>
<path stroke-width="1" stroke="black" d="M 105 296 252 311"/>
<path stroke-width="1" stroke="black" d="M 105 296 274 206"/>
<path stroke-width="1" stroke="black" d="M 105 296 223 320"/>
<path stroke-width="1" stroke="black" d="M 105 296 344 84"/>
<path stroke-width="1" stroke="black" d="M 105 296 160 20"/>
<path stroke-width="1" stroke="black" d="M 74 274 250 191"/>
<path stroke-width="1" stroke="black" d="M 74 274 420 211"/>
<path stroke-width="1" stroke="black" d="M 74 274 69 63"/>
<path stroke-width="1" stroke="black" d="M 74 274 87 124"/>
<path stroke-width="1" stroke="black" d="M 74 274 238 48"/>
<path stroke-width="1" stroke="black" d="M 74 274 123 141"/>
<path stroke-width="1" stroke="black" d="M 74 274 366 160"/>
<path stroke-width="1" stroke="black" d="M 105 296 340 83"/>
<path stroke-width="1" stroke="black" d="M 74 274 244 33"/>
<path stroke-width="1" stroke="black" d="M 105 296 375 170"/>
<path stroke-width="1" stroke="black" d="M 105 296 229 115"/>
<path stroke-width="1" stroke="black" d="M 20 195 274 206"/>
<path stroke-width="1" stroke="black" d="M 20 195 223 320"/>
<path stroke-width="1" stroke="black" d="M 20 195 160 20"/>
<path stroke-width="1" stroke="black" d="M 20 195 340 83"/>
<path stroke-width="1" stroke="black" d="M 105 296 250 191"/>
<path stroke-width="1" stroke="black" d="M 105 296 420 211"/>
<path stroke-width="1" stroke="black" d="M 105 296 69 63"/>
<path stroke-width="1" stroke="black" d="M 105 296 271 210"/>
<path stroke-width="1" stroke="black" d="M 105 296 87 124"/>
<path stroke-width="1" stroke="black" d="M 105 296 123 141"/>
<path stroke-width="1" stroke="black" d="M 105 296 366 160"/>
<path stroke-width="1" stroke="black" d="M 105 296 244 33"/>
<path stroke-width="1" stroke="black" d="M 105 296 356 276"/>
<path stroke-width="1" stroke="black" d="M 105 296 20 195"/>
<path stroke-width="1" stroke="black" d="M 105 296 74 274"/>
<path stroke-width="1" stroke="black" d="M 105 296 108 302"/>
<path stroke-width="1" stroke="black" d="M 105 296 238 48"/>
<path stroke-width="1" stroke="black" d="M 74 274 356 276"/>
<path stroke-width="1" stroke="black" d="M 74 274 20 195"/>
<path stroke-width="1" stroke="black" d="M 74 274 105 296"/>
<path stroke-width="1" stroke="black" d="M 108 302 244 33"/>
<path stroke-width="1" stroke="black" d="M 108 302 356 276"/>
<path stroke-width="1" stroke="black" d="M 108 302 20 195"/>
<path stroke-width="1" stroke="black" d="M 108 302 105 296"/>
<path stroke-width="1" stroke="black" d="M 108 302 74 274"/>
<path stroke-width="1" stroke="black" d="M 108 302 229 115"/>
<path stroke-width="1" stroke="black" d="M 108 302 271 210"/>
<path stroke-width="1" stroke="black" d="M 108 302 366 160"/>
<path stroke-width="1" stroke="black" d="M 108 302 375 170"/>
<path stroke-width="1" stroke="black" d="M 108 302 119 61"/>
<path stroke-width="1" stroke="black" d="M 108 302 223 319"/>
<path stroke-width="1" stroke="black" d="M 108 302 171 232"/>
<path stroke-width="1" stroke="black" d="M 108 302 349 280"/>
<path stroke-width="1" stroke="black" d="M 108 302 252 311"/>
<path stroke-width="1" stroke="black" d="M 108 302 274 206"/>
<path stroke-width="1" stroke="black" d="M 108 302 223 320"/>
<path stroke-width="1" stroke="black" d="M 108 302 344 84"/>
<path stroke-width="1" stroke="black" d="M 108 302 123 141"/>
<path stroke-width="1" stroke="black" d="M 108 302 238 48"/>
<path stroke-width="1" stroke="black" d="M 108 302 87 124"/>
<path stroke-width="1" stroke="black" d="M 74 274 108 302"/>
<path stroke-width="1" stroke="black" d="M 74 274 229 115"/>
<path stroke-width="1" stroke="black" d="M 74 274 271 210"/>
<path stroke-width="1" stroke="black" d="M 74 274 375 170"/>
<path stroke-width="1" stroke="black" d="M 74 274 344 84"/>
<path stroke-width="1" stroke="black" d="M 74 274 119 61"/>
<path stroke-width="1" stroke="black" d="M 74 274 223 319"/>
<path stroke-width="1" stroke="black" d="M 74 274 171 232"/>
<path stroke-width="1" stroke="black" d="M 74 274 349 280"/>
<path stroke-width="1" stroke="black" d="M 74 274 252 311"/>
<path stroke-width="1" stroke="black" d="M 74 274 274 206"/>
<path stroke-width="1" stroke="black" d="M 74 274 223 320"/>
<path stroke-width="1" stroke="black" d="M 74 274 160 20"/>
<path stroke-width="1" stroke="black" d="M 74 274 340 83"/>
<path stroke-width="1" stroke="black" d="M 108 302 250 191"/>
<path stroke-width="1" stroke="black" d="M 108 302 420 211"/>
<path stroke-width="1" stroke="black" d="M 108 302 69 63"/>
<path stroke-width="1" stroke="black" d="M 20 195 252 311"/>
<path stroke-width="1" stroke="black" d="M 20 195 349 280"/>
<path stroke-width="1" stroke="black" d="M 20 195 171 232"/>
<path stroke-width="1" stroke="black" d="M 20 195 223 319"/>
<path stroke-width="1" stroke="black" d="M 244 33 74 274"/>
<path stroke-width="1" stroke="black" d="M 244 33 108 302"/>
<path stroke-width="1" stroke="black" d="M 244 33 229 115"/>
<path stroke-width="1" stroke="black" d="M 244 33 271 210"/>
<path stroke-width="1" stroke="black" d="M 244 33 375 170"/>
<path stroke-width="1" stroke="black" d="M 244 33 344 84"/>
<path stroke-width="1" stroke="black" d="M 244 33 119 61"/>
<path stroke-width="1" stroke="black" d="M 244 33 105 296"/>
<path stroke-width="1" stroke="black" d="M 244 33 223 319"/>
<path stroke-width="1" stroke="black" d="M 244 33 349 280"/>
<path stroke-width="1" stroke="black" d="M 244 33 252 311"/>
<path stroke-width="1" stroke="black" d="M 244 33 274 206"/>
<path stroke-width="1" stroke="black" d="M 244 33 223 320"/>
<path stroke-width="1" stroke="black" d="M 244 33 160 20"/>
<path stroke-width="1" stroke="black" d="M 244 33 340 83"/>
<path stroke-width="1" stroke="black" d="M 356 276 250 191"/>
<path stroke-width="1" stroke="black" d="M 244 33 171 232"/>
<path stroke-width="1" stroke="black" d="M 244 33 20 195"/>
<path stroke-width="1" stroke="black" d="M 244 33 356 276"/>
<path stroke-width="1" stroke="black" d="M 244 33 366 160"/>
<path stroke-width="1" stroke="black" d="M 366 160 375 170"/>
<path stroke-width="1" stroke="black" d="M 366 160 344 84"/>
<path stroke-width="1" stroke="black" d="M 366 160 119 61"/>
<path stroke-width="1" stroke="black" d="M 366 160 223 319"/>
<path stroke-width="1" stroke="black" d="M 366 160 171 232"/>
<path stroke-width="1" stroke="black" d="M 366 160 349 280"/>
<path stroke-width="1" stroke="black" d="M 366 160 252 311"/>
<path stroke-width="1" stroke="black" d="M 366 160 274 206"/>
<path stroke-width="1" stroke="black" d="M 366 160 223 320"/>
<path stroke-width="1" stroke="black" d="M 366 160 160 20"/>
<path stroke-width="1" stroke="black" d="M 366 160 340 83"/>
<path stroke-width="1" stroke="black" d="M 244 33 250 191"/>
<path stroke-width="1" stroke="black" d="M 244 33 420 211"/>
<path stroke-width="1" stroke="black" d="M 244 33 69 63"/>
<path stroke-width="1" stroke="black" d="M 244 33 87 124"/>
<path stroke-width="1" stroke="black" d="M 244 33 238 48"/>
<path stroke-width="1" stroke="black" d="M 244 33 123 141"/>
<path stroke-width="1" stroke="black" d="M 356 276 420 211"/>
<path stroke-width="1" stroke="black" d="M 366 160 229 115"/>
<path stroke-width="1" stroke="black" d="M 356 276 69 63"/>
<path stroke-width="1" stroke="black" d="M 356 276 238 48"/>
<path stroke-width="1" stroke="black" d="M 20 195 420 211"/>
<path stroke-width="1" stroke="black" d="M 20 195 69 63"/>
<path stroke-width="1" stroke="black" d="M 20 195 87 124"/>
<path stroke-width="1" stroke="black" d="M 20 195 238 48"/>
<path stroke-width="1" stroke="black" d="M 20 195 123 141"/>
<path stroke-width="1" stroke="black" d="M 20 195 366 160"/>
<path stroke-width="1" stroke="black" d="M 20 195 244 33"/>
<path stroke-width="1" stroke="black" d="M 20 195 250 191"/>
<path stroke-width="1" stroke="black" d="M 20 195 356 276"/>
<path stroke-width="1" stroke="black" d="M 20 195 74 274"/>
<path stroke-width="1" stroke="black" d="M 20 195 108 302"/>
<path stroke-width="1" stroke="black" d="M 20 195 229 115"/>
<path stroke-width="1" stroke="black" d="M 20 195 271 210"/>
<path stroke-width="1" stroke="black" d="M 20 195 375 170"/>
<path stroke-width="1" stroke="black" d="M 20 195 344 84"/>
<path stroke-width="1" stroke="black" d="M 20 195 119 61"/>
<path stroke-width="1" stroke="black" d="M 20 195 105 296"/>
<path stroke-width="1" stroke="black" d="M 356 276 340 83"/>
<path stroke-width="1" stroke="black" d="M 356 276 160 20"/>
<path stroke-width="1" stroke="black" d="M 356 276 223 320"/>
<path stroke-width="1" stroke="black" d="M 356 276 123 141"/>
<path stroke-width="1" stroke="black" d="M 356 276 366 160"/>
<path stroke-width="1" stroke="black" d="M 356 276 244 33"/>
<path stroke-width="1" stroke="black" d="M 356 276 20 195"/>
<path stroke-width="1" stroke="black" d="M 356 276 105 296"/>
<path stroke-width="1" stroke="black" d="M 356 276 74 274"/>
<path stroke-width="1" stroke="black" d="M 356 276 108 302"/>
<path stroke-width="1" stroke="black" d="M 356 276 229 115"/>
<path stroke-width="1" stroke="black" d="M 356 276 271 210"/>
<path stroke-width="1" stroke="black" d="M 356 276 375 170"/>
<path stroke-width="1" stroke="black" d="M 356 276 344 84"/>
<path stroke-width="1" stroke="black" d="M 356 276 119 61"/>
<path stroke-width="1" stroke="black" d="M 356 276 223 319"/>
<path stroke-width="1" stroke="black" d="M 356 276 171 232"/>
<path stroke-width="1" stroke="black" d="M 356 276 349 280"/>
<path stroke-width="1" stroke="black" d="M 356 276 252 311"/>
<path stroke-width="1" stroke="black" d="M 356 276 274 206"/>
<path stroke-width="1" stroke="black" d="M 356 276 87 124"/>
<path stroke-width="1" stroke="black" d="M 340 83 160 20"/>
<circle cx="250" cy="191" r="7.0" style="fill:gray;stroke:black;stroke-width:1.0"/>
<circle cx="420" cy="211" r="7.0" style="fill:gray;stroke:black;stroke-width:1.0"/>
<circle cx="69" cy="63" r="7.0" style="fill:gray;stroke:black;stroke-width:1.0"/>
<circle cx="87" cy="124" r="7.0" style="fill:gray;stroke:black;stroke-width:1.0"/>
<circle cx="238" cy="48" r="7.0" style="fill:gray;stroke:black;stroke-width:1.0"/>
<circle cx="123" cy="141" r="7.0" style="fill:gray;stroke:black;stroke-width:1.0"/>
<circle cx="366" cy="160" r="7.0" style="fill:gray;stroke:black;stroke-width:1.0"/>
<circle cx="244" cy="33" r="7.0" style="fill:gray;stroke:black;stroke-width:1.0"/>
<circle cx="356" cy="276" r="7.0" style="fill:gray;stroke:black;stroke-width:1.0"/>
<circle cx="20" cy="195" r="7.0" style="fill:gray;stroke:black;stroke-width:1.0"/>
<circle cx="105" cy="296" r="7.0" style="fill:gray;stroke:black;stroke-width:1.0"/>
<circle cx="74" cy="274" r="7.0" style="fill:gray;stroke:black;stroke-width:1.0"/>
<circle cx="108" cy="302" r="7.0" style="fill:gray;stroke:black;stroke-width:1.0"/>
<circle cx="229" cy="115" r="7.0" style="fill:gray;stroke:black;stroke-width:1.0"/>
<circle cx="271" cy="210" r="7.0" style="fill:gray;stroke:black;stroke-width:1.0"/>
<circle cx="375" cy="170" r="7.0" style="fill:gray;stroke:black;stroke-width:1.0"/>
<circle cx="344" cy="84" r="7.0" style="fill:gray;stroke:black;stroke-width:1.0"/>
<circle cx="119" cy="61" r="7.0" style="fill:gray;stroke:black;stroke-width:1.0"/>
<circle cx="223" cy="319" r="7.0" style="fill:gray;stroke:black;stroke-width:1.0"/>
<circle cx="171" cy="232" r="7.0" style="fill:gray;stroke:black;stroke-width:1.0"/>
<circle cx="349" cy="280" r="7.0" style="fill:gray;stroke:black;stroke-width:1.0"/>
<circle cx="252" cy="311" r="7.0" style="fill:gray;stroke:black;stroke-width:1.0"/>
<circle cx="274" cy="206" r="7.0" style="fill:gray;stroke:black;stroke-width:1.0"/>
<circle cx="223" cy="320" r="7.0" style="fill:gray;stroke:black;stroke-width:1.0"/>
<circle cx="160" cy="20" r="7.0" style="fill:gray;stroke:black;stroke-width:1.0"/>
<circle cx="340" cy="83" r="7.0" style="fill:gray;stroke:black;stroke-width:1.0"/>
</svg>
