<svg width="440" height="340" xmlns="http://www.w3.org/2000/svg">
<path stroke-width="1" stroke="black" d="M 270 97 257 20"/>
<path stroke-width="1" stroke="black" d="M 20 192 149 129"/>
<path stroke-width="1" stroke="black" d="M 20 192 29 97"/>
<path stroke-width="1" stroke="black" d="M 20 192 354 82"/>
<path stroke-width="1" stroke="black" d="M 20 192 280 147"/>
<path stroke-width="1" stroke="black" d="M 20 192 412 157"/>
<path stroke-width="1" stroke="black" d="M 20 192 148 288"/>
<path stroke-width="1" stroke="black" d="M 20 192 344 265"/>
<path stroke-width="1" stroke="black" d="M 20 192 420 229"/>
<path stroke-width="1" stroke="black" d="M 20 192 287 166"/>
<path stroke-width="1" stroke="black" d="M 20 192 72 44"/>
<path stroke-width="1" stroke="black" d="M 20 192 348 76"/>
<path stroke-width="1" stroke="black" d="M 20 192 144 161"/>
<path stroke-width="1" stroke="black" d="M 20 192 24 104"/>
<path stroke-width="1" stroke="black" d="M 20 192 168 76"/>
<path stroke-width="1" stroke="black" d="M 20 192 411 155"/>
<path stroke-width="1" stroke="black" d="M 20 192 83 284"/>
<path stroke-width="1" stroke="black" d="M 20 192 263 320"/>
<path stroke-width="1" stroke="black" d="M 20 192 23 217"/>
<path stroke-width="1" stroke="black" d="M 20 192 257 20"/>
<path stroke-width="1" stroke="black" d="M 168 76 289 245"/>
<path stroke-width="1" stroke="black" d="M 168 76 148 288"/>
<path stroke-width="1" stroke="black" d="M 168 76 344 265"/>
<path stroke-width="1" stroke="black" d="M 168 76 287 166"/>
<path stroke-width="1" stroke="black" d="M 168 76 263 320"/>
<path stroke-width="1" stroke="black" d="M 168 76 72 44"/>
<path stroke-width="1" stroke="black" d="M 168 76 348 76"/>
<path stroke-width="1" stroke="black" d="M 168 76 144 161"/>
<path stroke-width="1" stroke="black" d="M 20 192 270 97"/>
<path stroke-width="1" stroke="black" d="M 168 76 24 104"/>
<path stroke-width="1" stroke="black" d="M 168 76 411 155"/>
<path stroke-width="1" stroke="black" d="M 168 76 83 284"/>
<path stroke-width="1" stroke="black" d="M 168 76 23 217"/>
<path stroke-width="1" stroke="black" d="M 168 76 279 255"/>
<path stroke-width="1" stroke="black" d="M 168 76 255 42"/>
<path stroke-width="1" stroke="black" d="M 168 76 154 21"/>
<path stroke-width="1" stroke="black" d="M 168 76 148 290"/>
<path stroke-width="1" stroke="black" d="M 168 76 20 192"/>
<path stroke-width="1" stroke="black" d="M 20 192 279 255"/>
<path stroke-width="1" stroke="black" d="M 20 192 255 42"/>
<path stroke-width="1" stroke="black" d="M 20 192 154 21"/>
<path stroke-width="1" stroke="black" d="M 411 155 23 217"/>
<path stroke-width="1" stroke="black" d="M 411 155 279 255"/>
<path stroke-width="1" stroke="black" d="M 411 155 255 42"/>
<path stroke-width="1" stroke="black" d="M 411 155 154 21"/>
<path stroke-width="1" stroke="black" d="M 411 155 148 290"/>
<path stroke-width="1" stroke="black" d="M 411 155 289 245"/>
<path stroke-width="1" stroke="black" d="M 83 284 270 97"/>
<path stroke-width="1" stroke="black" d="M 411 155 83 284"/>
<path stroke-width="1" stroke="black" d="M 83 284 257 20"/>
<path stroke-width="1" stroke="black" d="M 83 284 149 129"/>
<path stroke-width="1" stroke="black" d="M 83 284 29 97"/>
<path stroke-width="1" stroke="black" d="M 83 284 354 82"/>
<path stroke-width="1" stroke="black" d="M 83 284 280 147"/>
<path stroke-width="1" stroke="black" d="M 83 284 412 157"/>
<path stroke-width="1" stroke="black" d="M 83 284 148 288"/>
<path stroke-width="1" stroke="black" d="M 83 284 344 265"/>
<path stroke-width="1" stroke="black" d="M 83 284 420 229"/>
<path stroke-width="1" stroke="black" d="M 411 155 20 192"/>
<path stroke-width="1" stroke="black" d="M 411 155 168 76"/>
<path stroke-width="1" stroke="black" d="M 411 155 24 104"/>
<path stroke-width="1" stroke="black" d="M 20 192 148 290"/>
<path stroke-width="1" stroke="black" d="M 20 192 289 245"/>
<path stroke-width="1" stroke="black" d="M 411 155 270 97"/>
<path stroke-width="1" stroke="black" d="M 411 155 257 20"/>
<path stroke-width="1" stroke="black" d="M 411 155 420 229"/>
<path stroke-width="1" stroke="black" d="M 411 155 149 129"/>
<path stroke-width="1" stroke="black" d="M 411 155 29 97"/>
<path stroke-width="1" stroke="black" d="M 411 155 354 82"/>
<path stroke-width="1" stroke="black" d="M 411 155 280 147"/>
<path stroke-width="1" stroke="black" d="M 411 155 412 157"/>
<path stroke-width="1" stroke="black" d="M 411 155 148 288"/>
<path stroke-width="1" stroke="black" d="M 411 155 344 265"/>
<path stroke-width="1" stroke="black" d="M 411 155 287 166"/>
<path stroke-width="1" stroke="black" d="M 411 155 263 320"/>
<path stroke-width="1" stroke="black" d="M 411 155 72 44"/>
<path stroke-width="1" stroke="black" d="M 411 155 348 76"/>
<path stroke-width="1" stroke="black" d="M 411 155 144 161"/>
<path stroke-width="1" stroke="black" d="M 168 76 412 157"/>
<path stroke-width="1" stroke="black" d="M 83 284 287 166"/>
<path stroke-width="1" stroke="black" d="M 168 76 280 147"/>
<path stroke-width="1" stroke="black" d="M 168 76 29 97"/>
<path stroke-width="1" stroke="black" d="M 348 76 154 21"/>
<path stroke-width="1" stroke="black" d="M 348 76 148 290"/>
<path stroke-width="1" stroke="black" d="M 348 76 289 245"/>
<path stroke-width="1" stroke="black" d="M 144 161 270 97"/>
<path stroke-width="1" stroke="black" d="M 144 161 257 20"/>
<path stroke-width="1" stroke="black" d="M 144 161 420 229"/>
<path stroke-width="1" stroke="black" d="M 144 161 149 129"/>
<path stroke-width="1" stroke="black" d="M 348 76 255 42"/>
<path stroke-width="1" stroke="black" d="M 144 161 29 97"/>
<path stroke-width="1" stroke="black" d="M 144 161 280 147"/>
<path stroke-width="1" stroke="black" d="M 144 161 412 157"/>
<path stroke-width="1" stroke="black" d="M 144 161 148 288"/>
<path stroke-width="1" stroke="black" d="M 144 161 344 265"/>
<path stroke-width="1" stroke="black" d="M 144 161 287 166"/>
<path stroke-width="1" stroke="black" d="M 144 161 263 320"/>
<path stroke-width="1" stroke="black" d="M 144 161 72 44"/>
<path stroke-width="1" stroke="black" d="M 144 161 354 82"/>
<path stroke-width="1" stroke="black" d="M 144 161 348 76"/>
<path stroke-width="1" stroke="black" d="M 348 76 279 255"/>
<path stroke-width="1" stroke="black" d="M 348 76 83 284"/>
<path stroke-width="1" stroke="black" d="M 348 76 420 229"/>
<path stroke-width="1" stroke="black" d="M 348 76 149 129"/>
<path stroke-width="1" stroke="black" d="M 348 76 29 97"/>
<path stroke-width="1" stroke="black" d="M 348 76 354 82"/>
<path stroke-width="1" stroke="black" d="M 348 76 280 147"/>
<path stroke-width="1" stroke="black" d="M 348 76 412 157"/>
<path stroke-width="1" stroke="black" d="M 348 76 148 288"/>
<path stroke-width="1" stroke="black" d="M 348 76 23 217"/>
<path stroke-width="1" stroke="black" d="M 348 76 344 265"/>
<path stroke-width="1" stroke="black" d="M 348 76 263 320"/>
<path stroke-width="1" stroke="black" d="M 348 76 72 44"/>
<path stroke-width="1" stroke="black" d="M 348 76 144 161"/>
<path stroke-width="1" stroke="black" d="M 348 76 24 104"/>
<path stroke-width="1" stroke="black" d="M 348 76 168 76"/>
<path stroke-width="1" stroke="black" d="M 348 76 20 192"/>
<path stroke-width="1" stroke="black" d="M 348 76 411 155"/>
<path stroke-width="1" stroke="black" d="M 348 76 287 166"/>
<path stroke-width="1" stroke="black" d="M 144 161 24 104"/>
<path stroke-width="1" stroke="black" d="M 144 161 168 76"/>
<path stroke-width="1" stroke="black" d="M 144 161 20 192"/>
<path stroke-width="1" stroke="black" d="M 24 104 348 76"/>
<path stroke-width="1" stroke="black" d="M 24 104 144 161"/>
<path stroke-width="1" stroke="black" d="M 24 104 168 76"/>
<path stroke-width="1" stroke="black" d="M 24 104 20 192"/>
<path stroke-width="1" stroke="black" d="M 24 104 411 155"/>
<path stroke-width="1" stroke="black" d="M 24 104 83 284"/>
<path stroke-width="1" stroke="black" d="M 24 104 23 217"/>
<path stroke-width="1" stroke="black" d="M 24 104 72 44"/>
<path stroke-width="1" stroke="black" d="M 24 104 279 255"/>
<path stroke-width="1" stroke="black" d="M 24 104 154 21"/>
<path stroke-width="1" stroke="black" d="M 24 104 148 290"/>
<path stroke-width="1" stroke="black" d="M 24 104 289 245"/>
<path stroke-width="1" stroke="black" d="M 168 76 270 97"/>
<path stroke-width="1" stroke="black" d="M 168 76 257 20"/>
<path stroke-width="1" stroke="black" d="M 168 76 420 229"/>
<path stroke-width="1" stroke="black" d="M 168 76 149 129"/>
<path stroke-width="1" stroke="black" d="M 24 104 255 42"/>
<path stroke-width="1" stroke="black" d="M 24 104 263 320"/>
<path stroke-width="1" stroke="black" d="M 24 104 287 166"/>
<path stroke-width="1" stroke="black" d="M 24 104 344 265"/>
<path stroke-width="1" stroke="black" d="M 144 161 411 155"/>
<path stroke-width="1" stroke="black" d="M 144 161 83 284"/>
<path stroke-width="1" stroke="black" d="M 144 161 23 217"/>
<path stroke-width="1" stroke="black" d="M 144 161 279 255"/>
<path stroke-width="1" stroke="black" d="M 144 161 255 42"/>
<path stroke-width="1" stroke="black" d="M 144 161 154 21"/>
<path stroke-width="1" stroke="black" d="M 144 161 148 290"/>
<path stroke-width="1" stroke="black" d="M 144 161 289 245"/>
<path stroke-width="1" stroke="black" d="M 24 104 270 97"/>
<path stroke-width="1" stroke="black" d="M 24 104 257 20"/>
<path stroke-width="1" stroke="black" d="M 24 104 420 229"/>
<path stroke-width="1" stroke="black" d="M 24 104 149 129"/>
<path stroke-width="1" stroke="black" d="M 24 104 29 97"/>
<path stroke-width="1" stroke="black" d="M 24 104 354 82"/>
<path stroke-width="1" stroke="black" d="M 24 104 280 147"/>
<path stroke-width="1" stroke="black" d="M 24 104 412 157"/>
<path stroke-width="1" stroke="black" d="M 24 104 148 288"/>
<path stroke-width="1" stroke="black" d="M 168 76 354 82"/>
<path stroke-width="1" stroke="black" d="M 83 284 263 320"/>
<path stroke-width="1" stroke="black" d="M 83 284 72 44"/>
<path stroke-width="1" stroke="black" d="M 83 284 348 76"/>
<path stroke-width="1" stroke="black" d="M 154 21 168 76"/>
<path stroke-width="1" stroke="black" d="M 154 21 20 192"/>
<path stroke-width="1" stroke="black" d="M 154 21 411 155"/>
<path stroke-width="1" stroke="black" d="M 154 21 83 284"/>
<path stroke-width="1" stroke="black" d="M 154 21 23 217"/>
<path stroke-width="1" stroke="black" d="M 154 21 279 255"/>
<path stroke-width="1" stroke="black" d="M 154 21 255 42"/>
<path stroke-width="1" stroke="black" d="M 154 21 24 104"/>
<path stroke-width="1" stroke="black" d="M 154 21 148 290"/>
<path stroke-width="1" stroke="black" d="M 148 290 270 97"/>
<path stroke-width="1" stroke="black" d="M 148 290 257 20"/>
<path stroke-width="1" stroke="black" d="M 148 290 420 229"/>
<path stroke-width="1" stroke="black" d="M 148 290 149 129"/>
<path stroke-width="1" stroke="black" d="M 148 290 29 97"/>
<path stroke-width="1" stroke="black" d="M 148 290 354 82"/>
<path stroke-width="1" stroke="black" d="M 148 290 280 147"/>
<path stroke-width="1" stroke="black" d="M 154 21 289 245"/>
<path stroke-width="1" stroke="black" d="M 148 290 412 157"/>
<path stroke-width="1" stroke="black" d="M 154 21 144 161"/>
<path stroke-width="1" stroke="black" d="M 154 21 72 44"/>
<path stroke-width="1" stroke="black" d="M 255 42 279 255"/>
<path stroke-width="1" stroke="black" d="M 255 42 154 21"/>
<path stroke-width="1" stroke="black" d="M 255 42 148 290"/>
<path stroke-width="1" stroke="black" d="M 255 42 289 245"/>
<path stroke-width="1" stroke="black" d="M 154 21 270 97"/>
<path stroke-width="1" stroke="black" d="M 154 21 257 20"/>
<path stroke-width="1" stroke="black" d="M 154 21 420 229"/>
<path stroke-width="1" stroke="black" d="M 154 21 348 76"/>
<path stroke-width="1" stroke="black" d="M 154 21 149 129"/>
<path stroke-width="1" stroke="black" d="M 154 21 354 82"/>
<path stroke-width="1" stroke="black" d="M 154 21 280 147"/>
<path stroke-width="1" stroke="black" d="M 154 21 412 157"/>
<path stroke-width="1" stroke="black" d="M 154 21 148 288"/>
<path stroke-width="1" stroke="black" d="M 154 21 344 265"/>
<path stroke-width="1" stroke="black" d="M 154 21 287 166"/>
<path stroke-width="1" stroke="black" d="M 154 21 263 320"/>
<path stroke-width="1" stroke="black" d="M 154 21 29 97"/>
<path stroke-width="1" stroke="black" d="M 148 290 148 288"/>
<path stroke-width="1" stroke="black" d="M 148 290 344 265"/>
<path stroke-width="1" stroke="black" d="M 148 290 287 166"/>
<path stroke-width="1" stroke="black" d="M 289 245 412 157"/>
<path stroke-width="1" stroke="black" d="M 289 245 148 288"/>
<path stroke-width="1" stroke="black" d="M 289 245 344 265"/>
<path stroke-width="1" stroke="black" d="M 289 245 287 166"/>
<path stroke-width="1" stroke="black" d="M 289 245 263 320"/>
<path stroke-width="1" stroke="black" d="M 289 245 72 44"/>
<path stroke-width="1" stroke="black" d="M 289 245 348 76"/>
<path stroke-width="1" stroke="black" d="M 289 245 280 147"/>
<path stroke-width="1" stroke="black" d="M 289 245 144 161"/>
<path stroke-width="1" stroke="black" d="M 289 245 168 76"/>
<path stroke-width="1" stroke="black" d="M 289 245 20 192"/>
<path stroke-width="1" stroke="black" d="M 289 245 411 155"/>
<path stroke-width="1" stroke="black" d="M 289 245 83 284"/>
<path stroke-width="1" stroke="black" d="M 289 245 23 217"/>
<path stroke-width="1" stroke="black" d="M 289 245 279 255"/>
<path stroke-width="1" stroke="black" d="M 289 245 255 42"/>
<path stroke-width="1" stroke="black" d="M 289 245 24 104"/>
<path stroke-width="1" stroke="black" d="M 289 245 354 82"/>
<path stroke-width="1" stroke="black" d="M 289 245 29 97"/>
<path stroke-width="1" stroke="black" d="M 289 245 149 129"/>
<path stroke-width="1" stroke="black" d="M 148 290 263 320"/>
<path stroke-width="1" stroke="black" d="M 148 290 72 44"/>
<path stroke-width="1" stroke="black" d="M 148 290 348 76"/>
<path stroke-width="1" stroke="black" d="M 148 290 144 161"/>
<path stroke-width="1" stroke="black" d="M 148 290 24 104"/>
<path stroke-width="1" stroke="black" d="M 148 290 168 76"/>
<path stroke-width="1" stroke="black" d="M 148 290 20 192"/>
<path stroke-width="1" stroke="black" d="M 148 290 411 155"/>
<path stroke-width="1" stroke="black" d="M 148 290 83 284"/>
<path stroke-width="1" stroke="black" d="M 148 290 23 217"/>
<path stroke-width="1" stroke="black" d="M 148 290 279 255"/>
<path stroke-width="1" stroke="black" d="M 148 290 255 42"/>
<path stroke-width="1" stroke="black" d="M 148 290 154 21"/>
<path stroke-width="1" stroke="black" d="M 148 290 289 245"/>
<path stroke-width="1" stroke="black" d="M 289 245 270 97"/>
<path stroke-width="1" stroke="black" d="M 289 245 257 20"/>
<path stroke-width="1" stroke="black" d="M 289 245 420 229"/>
<path stroke-width="1" stroke="black" d="M 255 42 23 217"/>
<path stroke-width="1" stroke="black" d="M 255 42 83 284"/>
<path stroke-width="1" stroke="black" d="M 255 42 411 155"/>
<path stroke-width="1" stroke="black" d="M 255 42 20 192"/>
<path stroke-width="1" stroke="black" d="M 23 217 287 166"/>
<path stroke-width="1" stroke="black" d="M 23 217 263 320"/>
<path stroke-width="1" stroke="black" d="M 23 217 72 44"/>
<path stroke-width="1" stroke="black" d="M 23 217 348 76"/>
<path stroke-width="1" stroke="black" d="M 23 217 144 161"/>
<path stroke-width="1" stroke="black" d="M 23 217 24 104"/>
<path stroke-width="1" stroke="black" d="M 23 217 168 76"/>
<path stroke-width="1" stroke="black" d="M 23 217 344 265"/>
<path stroke-width="1" stroke="black" d="M 23 217 20 192"/>
<path stroke-width="1" stroke="black" d="M 23 217 83 284"/>
<path stroke-width="1" stroke="black" d="M 23 217 279 255"/>
<path stroke-width="1" stroke="black" d="M 23 217 255 42"/>
<path stroke-width="1" stroke="black" d="M 23 217 154 21"/>
<path stroke-width="1" stroke="black" d="M 23 217 148 290"/>
<path stroke-width="1" stroke="black" d="M 23 217 289 245"/>
<path stroke-width="1" stroke="black" d="M 279 255 270 97"/>
<path stroke-width="1" stroke="black" d="M 23 217 411 155"/>
<path stroke-width="1" stroke="black" d="M 23 217 148 288"/>
<path stroke-width="1" stroke="black" d="M 23 217 412 157"/>
<path stroke-width="1" stroke="black" d="M 23 217 280 147"/>
<path stroke-width="1" stroke="black" d="M 83 284 144 161"/>
<path stroke-width="1" stroke="black" d="M 83 284 24 104"/>
<path stroke-width="1" stroke="black" d="M 83 284 168 76"/>
<path stroke-width="1" stroke="black" d="M 83 284 20 192"/>
<path stroke-width="1" stroke="black" d="M 83 284 411 155"/>
<path stroke-width="1" stroke="black" d="M 83 284 23 217"/>
<path stroke-width="1" stroke="black" d="M 83 284 279 255"/>
<path stroke-width="1" stroke="black" d="M 83 284 255 42"/>
<path stroke-width="1" stroke="black" d="M 83 284 154 21"/>
<path stroke-width="1" stroke="black" d="M 83 284 148 290"/>
<path stroke-width="1" stroke="black" d="M 83 284 289 245"/>
<path stroke-width="1" stroke="black" d="M 23 217 270 97"/>
<path stroke-width="1" stroke="black" d="M 23 217 257 20"/>
<path stroke-width="1" stroke="black" d="M 23 217 420 229"/>
<path stroke-width="1" stroke="black" d="M 23 217 149 129"/>
<path stroke-width="1" stroke="black" d="M 23 217 29 97"/>
<path stroke-width="1" stroke="black" d="M 23 217 354 82"/>
<path stroke-width="1" stroke="black" d="M 279 255 257 20"/>
<path stroke-width="1" stroke="black" d="M 348 76 257 20"/>
<path stroke-width="1" stroke="black" d="M 279 255 420 229"/>
<path stroke-width="1" stroke="black" d="M 279 255 29 97"/>
<path stroke-width="1" stroke="black" d="M 255 42 257 20"/>
<path stroke-width="1" stroke="black" d="M 255 42 420 229"/>
<path stroke-width="1" stroke="black" d="M 255 42 149 129"/>
<path stroke-width="1" stroke="black" d="M 255 42 29 97"/>
<path stroke-width="1" stroke="black" d="M 255 42 354 82"/>
<path stroke-width="1" stroke="black" d="M 255 42 280 147"/>
<path stroke-width="1" stroke="black" d="M 255 42 412 157"/>
<path stroke-width="1" stroke="black" d="M 255 42 270 97"/>
<path stroke-width="1" stroke="black" d="M 255 42 148 288"/>
<path stroke-width="1" stroke="black" d="M 255 42 287 166"/>
<path stroke-width="1" stroke="black" d="M 255 42 263 320"/>
<path stroke-width="1" stroke="black" d="M 255 42 72 44"/>
<path stroke-width="1" stroke="black" d="M 255 42 348 76"/>
<path stroke-width="1" stroke="black" d="M 255 42 144 161"/>
<path stroke-width="1" stroke="black" d="M 255 42 24 104"/>
<path stroke-width="1" stroke="black" d="M 255 42 168 76"/>
<path stroke-width="1" stroke="black" d="M 255 42 344 265"/>
<path stroke-width="1" stroke="black" d="M 279 255 289 245"/>
<path stroke-width="1" stroke="black" d="M 279 255 148 290"/>
<path stroke-width="1" stroke="black" d="M 279 255 154 21"/>
<path stroke-width="1" stroke="black" d="M 279 255 354 82"/>
<path stroke-width="1" stroke="black" d="M 279 255 280 147"/>
<path stroke-width="1" stroke="black" d="M 279 255 412 157"/>
<path stroke-width="1" stroke="black" d="M 279 255 148 288"/>
<path stroke-width="1" stroke="black" d="M 279 255 344 265"/>
<path stroke-width="1" stroke="black" d="M 279 255 287 166"/>
<path stroke-width="1" stroke="black" d="M 279 255 263 320"/>
<path stroke-width="1" stroke="black" d="M 279 255 72 44"/>
<path stroke-width="1" stroke="black" d="M 279 255 348 76"/>
<path stroke-width="1" stroke="black" d="M 279 255 144 161"/>
<path stroke-width="1" stroke="black" d="M 279 255 24 104"/>
<path stroke-width="1" stroke="black" d="M 279 255 168 76"/>
<path stroke-width="1" stroke="black" d="M 279 255 20 192"/>
<path stroke-width="1" stroke="black" d="M 279 255 411 155"/>
<path stroke-width="1" stroke="black" d="M 279 255 83 284"/>
<path stroke-width="1" stroke="black" d="M 279 255 23 217"/>
<path stroke-width="1" stroke="black" d="M 279 255 255 42"/>
<path stroke-width="1" stroke="black" d="M 279 255 149 129"/>
<path stroke-width="1" stroke="black" d="M 348 76 270 97"/>
<path stroke-width="1" stroke="black" d="M 72 44 289 245"/>
<path stroke-width="1" stroke="black" d="M 72 44 148 290"/>
<path stroke-width="1" stroke="black" d="M 29 97 149 129"/>
<path stroke-width="1" stroke="black" d="M 29 97 354 82"/>
<path stroke-width="1" stroke="black" d="M 29 97 280 147"/>
<path stroke-width="1" stroke="black" d="M 29 97 412 157"/>
<path stroke-width="1" stroke="black" d="M 29 97 148 288"/>
<path stroke-width="1" stroke="black" d="M 29 97 344 265"/>
<path stroke-width="1" stroke="black" d="M 29 97 287 166"/>
<path stroke-width="1" stroke="black" d="M 29 97 420 229"/>
<path stroke-width="1" stroke="black" d="M 29 97 263 320"/>
<path stroke-width="1" stroke="black" d="M 29 97 348 76"/>
<path stroke-width="1" stroke="black" d="M 29 97 144 161"/>
<path stroke-width="1" stroke="black" d="M 29 97 24 104"/>
<path stroke-width="1" stroke="black" d="M 29 97 168 76"/>
<path stroke-width="1" stroke="black" d="M 29 97 20 192"/>
<path stroke-width="1" stroke="black" d="M 29 97 411 155"/>
<path stroke-width="1" stroke="black" d="M 29 97 83 284"/>
<path stroke-width="1" stroke="black" d="M 29 97 72 44"/>
<path stroke-width="1" stroke="black" d="M 29 97 23 217"/>
<path stroke-width="1" stroke="black" d="M 29 97 257 20"/>
<path stroke-width="1" stroke="black" d="M 149 129 289 245"/>
<path stroke-width="1" stroke="black" d="M 149 129 344 265"/>
<path stroke-width="1" stroke="black" d="M 149 129 287 166"/>
<path stroke-width="1" stroke="black" d="M 149 129 263 320"/>
<path stroke-width="1" stroke="black" d="M 149 129 72 44"/>
<path stroke-width="1" stroke="black" d="M 149 129 348 76"/>
<path stroke-width="1" stroke="black" d="M 149 129 144 161"/>
<path stroke-width="1" stroke="black" d="M 149 129 24 104"/>
<path stroke-width="1" stroke="black" d="M 29 97 270 97"/>
<path stroke-width="1" stroke="black" d="M 149 129 168 76"/>
<path stroke-width="1" stroke="black" d="M 149 129 411 155"/>
<path stroke-width="1" stroke="black" d="M 149 129 83 284"/>
<path stroke-width="1" stroke="black" d="M 149 129 23 217"/>
<path stroke-width="1" stroke="black" d="M 149 129 279 255"/>
<path stroke-width="1" stroke="black" d="M 149 129 255 42"/>
<path stroke-width="1" stroke="black" d="M 149 129 154 21"/>
<path stroke-width="1" stroke="black" d="M 149 129 148 290"/>
<path stroke-width="1" stroke="black" d="M 149 129 20 192"/>
<path stroke-width="1" stroke="black" d="M 29 97 279 255"/>
<path stroke-width="1" stroke="black" d="M 29 97 255 42"/>
<path stroke-width="1" stroke="black" d="M 29 97 154 21"/>
<path stroke-width="1" stroke="black" d="M 354 82 23 217"/>
<path stroke-width="1" stroke="black" d="M 354 82 279 255"/>
<path stroke-width="1" stroke="black" d="M 354 82 255 42"/>
<path stroke-width="1" stroke="black" d="M 354 82 154 21"/>
<path stroke-width="1" stroke="black" d="M 354 82 148 290"/>
<path stroke-width="1" stroke="black" d="M 354 82 289 245"/>
<path stroke-width="1" stroke="black" d="M 280 147 270 97"/>
<path stroke-width="1" stroke="black" d="M 354 82 83 284"/>
<path stroke-width="1" stroke="black" d="M 280 147 257 20"/>
<path stroke-width="1" stroke="black" d="M 280 147 149 129"/>
<path stroke-width="1" stroke="black" d="M 280 147 29 97"/>
<path stroke-width="1" stroke="black" d="M 280 147 354 82"/>
<path stroke-width="1" stroke="black" d="M 280 147 412 157"/>
<path stroke-width="1" stroke="black" d="M 280 147 148 288"/>
<path stroke-width="1" stroke="black" d="M 280 147 344 265"/>
<path stroke-width="1" stroke="black" d="M 280 147 287 166"/>
<path stroke-width="1" stroke="black" d="M 280 147 420 229"/>
<path stroke-width="1" stroke="black" d="M 354 82 411 155"/>
<path stroke-width="1" stroke="black" d="M 354 82 20 192"/>
<path stroke-width="1" stroke="black" d="M 354 82 168 76"/>
<path stroke-width="1" stroke="black" d="M 29 97 148 290"/>
<path stroke-width="1" stroke="black" d="M 29 97 289 245"/>
<path stroke-width="1" stroke="black" d="M 354 82 270 97"/>
<path stroke-width="1" stroke="black" d="M 354 82 257 20"/>
<path stroke-width="1" stroke="black" d="M 354 82 420 229"/>
<path stroke-width="1" stroke="black" d="M 354 82 149 129"/>
<path stroke-width="1" stroke="black" d="M 354 82 29 97"/>
<path stroke-width="1" stroke="black" d="M 354 82 280 147"/>
<path stroke-width="1" stroke="black" d="M 354 82 412 157"/>
<path stroke-width="1" stroke="black" d="M 354 82 148 288"/>
<path stroke-width="1" stroke="black" d="M 354 82 344 265"/>
<path stroke-width="1" stroke="black" d="M 354 82 287 166"/>
<path stroke-width="1" stroke="black" d="M 354 82 263 320"/>
<path stroke-width="1" stroke="black" d="M 354 82 72 44"/>
<path stroke-width="1" stroke="black" d="M 354 82 348 76"/>
<path stroke-width="1" stroke="black" d="M 354 82 144 161"/>
<path stroke-width="1" stroke="black" d="M 354 82 24 104"/>
<path stroke-width="1" stroke="black" d="M 149 129 148 288"/>
<path stroke-width="1" stroke="black" d="M 149 129 412 157"/>
<path stroke-width="1" stroke="black" d="M 149 129 280 147"/>
<path stroke-width="1" stroke="black" d="M 149 129 354 82"/>
<path stroke-width="1" stroke="black" d="M 270 97 154 21"/>
<path stroke-width="1" stroke="black" d="M 270 97 148 290"/>
<path stroke-width="1" stroke="black" d="M 270 97 289 245"/>
<path stroke-width="1" stroke="black" d="M 257 20 270 97"/>
<path stroke-width="1" stroke="black" d="M 257 20 420 229"/>
<path stroke-width="1" stroke="black" d="M 257 20 149 129"/>
<path stroke-width="1" stroke="black" d="M 257 20 29 97"/>
<path stroke-width="1" stroke="black" d="M 270 97 255 42"/>
<path stroke-width="1" stroke="black" d="M 257 20 354 82"/>
<path stroke-width="1" stroke="black" d="M 257 20 412 157"/>
<path stroke-width="1" stroke="black" d="M 257 20 148 288"/>
<path stroke-width="1" stroke="black" d="M 257 20 344 265"/>
<path stroke-width="1" stroke="black" d="M 257 20 287 166"/>
<path stroke-width="1" stroke="black" d="M 257 20 263 320"/>
<path stroke-width="1" stroke="black" d="M 257 20 72 44"/>
<path stroke-width="1" stroke="black" d="M 257 20 348 76"/>
<path stroke-width="1" stroke="black" d="M 257 20 280 147"/>
<path stroke-width="1" stroke="black" d="M 270 97 279 255"/>
<path stroke-width="1" stroke="black" d="M 270 97 23 217"/>
<path stroke-width="1" stroke="black" d="M 270 97 83 284"/>
<path stroke-width="1" stroke="black" d="M 270 97 420 229"/>
<path stroke-width="1" stroke="black" d="M 270 97 149 129"/>
<path stroke-width="1" stroke="black" d="M 270 97 29 97"/>
<path stroke-width="1" stroke="black" d="M 270 97 354 82"/>
<path stroke-width="1" stroke="black" d="M 270 97 280 147"/>
<path stroke-width="1" stroke="black" d="M 270 97 412 157"/>
<path stroke-width="1" stroke="black" d="M 270 97 148 288"/>
<path stroke-width="1" stroke="black" d="M 270 97 344 265"/>
<path stroke-width="1" stroke="black" d="M 270 97 287 166"/>
<path stroke-width="1" stroke="black" d="M 270 97 263 320"/>
<path stroke-width="1" stroke="black" d="M 270 97 72 44"/>
<path stroke-width="1" stroke="black" d="M 270 97 348 76"/>
<path stroke-width="1" stroke="black" d="M 270 97 144 161"/>
<path stroke-width="1" stroke="black" d="M 270 97 24 104"/>
<path stroke-width="1" stroke="black" d="M 270 97 168 76"/>
<path stroke-width="1" stroke="black" d="M 270 97 20 192"/>
<path stroke-width="1" stroke="black" d="M 270 97 411 155"/>
<path stroke-width="1" stroke="black" d="M 257 20 144 161"/>
<path stroke-width="1" stroke="black" d="M 280 147 263 320"/>
<path stroke-width="1" stroke="black" d="M 257 20 24 104"/>
<path stroke-width="1" stroke="black" d="M 257 20 20 192"/>
<path stroke-width="1" stroke="black" d="M 420 229 144 161"/>
<path stroke-width="1" stroke="black" d="M 420 229 24 104"/>
<path stroke-width="1" stroke="black" d="M 420 229 168 76"/>
<path stroke-width="1" stroke="black" d="M 420 229 20 192"/>
<path stroke-width="1" stroke="black" d="M 420 229 411 155"/>
<path stroke-width="1" stroke="black" d="M 420 229 83 284"/>
<path stroke-width="1" stroke="black" d="M 420 229 23 217"/>
<path stroke-width="1" stroke="black" d="M 420 229 348 76"/>
<path stroke-width="1" stroke="black" d="M 420 229 279 255"/>
<path stroke-width="1" stroke="black" d="M 420 229 154 21"/>
<path stroke-width="1" stroke="black" d="M 420 229 148 290"/>
<path stroke-width="1" stroke="black" d="M 420 229 289 245"/>
<path stroke-width="1" stroke="black" d="M 149 129 270 97"/>
<path stroke-width="1" stroke="black" d="M 149 129 257 20"/>
<path stroke-width="1" stroke="black" d="M 149 129 420 229"/>
<path stroke-width="1" stroke="black" d="M 149 129 29 97"/>
<path stroke-width="1" stroke="black" d="M 420 229 255 42"/>
<path stroke-width="1" stroke="black" d="M 420 229 72 44"/>
<path stroke-width="1" stroke="black" d="M 420 229 263 320"/>
<path stroke-width="1" stroke="black" d="M 420 229 287 166"/>
<path stroke-width="1" stroke="black" d="M 257 20 411 155"/>
<path stroke-width="1" stroke="black" d="M 257 20 83 284"/>
<path stroke-width="1" stroke="black" d="M 257 20 23 217"/>
<path stroke-width="1" stroke="black" d="M 257 20 279 255"/>
<path stroke-width="1" stroke="black" d="M 257 20 255 42"/>
<path stroke-width="1" stroke="black" d="M 257 20 154 21"/>
<path stroke-width="1" stroke="black" d="M 257 20 148 290"/>
<path stroke-width="1" stroke="black" d="M 257 20 289 245"/>
<path stroke-width="1" stroke="black" d="M 420 229 270 97"/>
<path stroke-width="1" stroke="black" d="M 420 229 257 20"/>
<path stroke-width="1" stroke="black" d="M 420 229 149 129"/>
<path stroke-width="1" stroke="black" d="M 420 229 29 97"/>
<path stroke-width="1" stroke="black" d="M 420 229 354 82"/>
<path stroke-width="1" stroke="black" d="M 420 229 280 147"/>
<path stroke-width="1" stroke="black" d="M 420 229 412 157"/>
<path stroke-width="1" stroke="black" d="M 420 229 148 288"/>
<path stroke-width="1" stroke="black" d="M 420 229 344 265"/>
<path stroke-width="1" stroke="black" d="M 257 20 168 76"/>
<path stroke-width="1" stroke="black" d="M 289 245 154 21"/>
<path stroke-width="1" stroke="black" d="M 280 147 72 44"/>
<path stroke-width="1" stroke="black" d="M 280 147 144 161"/>
<path stroke-width="1" stroke="black" d="M 287 166 20 192"/>
<path stroke-width="1" stroke="black" d="M 287 166 411 155"/>
<path stroke-width="1" stroke="black" d="M 287 166 83 284"/>
<path stroke-width="1" stroke="black" d="M 287 166 23 217"/>
<path stroke-width="1" stroke="black" d="M 287 166 279 255"/>
<path stroke-width="1" stroke="black" d="M 287 166 255 42"/>
<path stroke-width="1" stroke="black" d="M 287 166 154 21"/>
<path stroke-width="1" stroke="black" d="M 287 166 168 76"/>
<path stroke-width="1" stroke="black" d="M 287 166 148 290"/>
<path stroke-width="1" stroke="black" d="M 263 320 270 97"/>
<path stroke-width="1" stroke="black" d="M 263 320 257 20"/>
<path stroke-width="1" stroke="black" d="M 263 320 420 229"/>
<path stroke-width="1" stroke="black" d="M 263 320 149 129"/>
<path stroke-width="1" stroke="black" d="M 263 320 29 97"/>
<path stroke-width="1" stroke="black" d="M 263 320 354 82"/>
<path stroke-width="1" stroke="black" d="M 263 320 280 147"/>
<path stroke-width="1" stroke="black" d="M 287 166 289 245"/>
<path stroke-width="1" stroke="black" d="M 263 320 412 157"/>
<path stroke-width="1" stroke="black" d="M 287 166 24 104"/>
<path stroke-width="1" stroke="black" d="M 287 166 348 76"/>
<path stroke-width="1" stroke="black" d="M 344 265 255 42"/>
<path stroke-width="1" stroke="black" d="M 344 265 154 21"/>
<path stroke-width="1" stroke="black" d="M 344 265 148 290"/>
<path stroke-width="1" stroke="black" d="M 344 265 289 245"/>
<path stroke-width="1" stroke="black" d="M 287 166 270 97"/>
<path stroke-width="1" stroke="black" d="M 287 166 257 20"/>
<path stroke-width="1" stroke="black" d="M 287 166 420 229"/>
<path stroke-width="1" stroke="black" d="M 287 166 144 161"/>
<path stroke-width="1" stroke="black" d="M 287 166 149 129"/>
<path stroke-width="1" stroke="black" d="M 287 166 354 82"/>
<path stroke-width="1" stroke="black" d="M 287 166 280 147"/>
<path stroke-width="1" stroke="black" d="M 287 166 412 157"/>
<path stroke-width="1" stroke="black" d="M 287 166 148 288"/>
<path stroke-width="1" stroke="black" d="M 287 166 344 265"/>
<path stroke-width="1" stroke="black" d="M 287 166 263 320"/>
<path stroke-width="1" stroke="black" d="M 287 166 72 44"/>
<path stroke-width="1" stroke="black" d="M 287 166 29 97"/>
<path stroke-width="1" stroke="black" d="M 263 320 148 288"/>
<path stroke-width="1" stroke="black" d="M 263 320 344 265"/>
<path stroke-width="1" stroke="black" d="M 263 320 287 166"/>
<path stroke-width="1" stroke="black" d="M 72 44 412 157"/>
<path stroke-width="1" stroke="black" d="M 72 44 148 288"/>
<path stroke-width="1" stroke="black" d="M 72 44 344 265"/>
<path stroke-width="1" stroke="black" d="M 72 44 287 166"/>
<path stroke-width="1" stroke="black" d="M 72 44 263 320"/>
<path stroke-width="1" stroke="black" d="M 72 44 348 76"/>
<path stroke-width="1" stroke="black" d="M 72 44 144 161"/>
<path stroke-width="1" stroke="black" d="M 72 44 280 147"/>
<path stroke-width="1" stroke="black" d="M 72 44 24 104"/>
<path stroke-width="1" stroke="black" d="M 72 44 20 192"/>
<path stroke-width="1" stroke="black" d="M 72 44 411 155"/>
<path stroke-width="1" stroke="black" d="M 72 44 83 284"/>
<path stroke-width="1" stroke="black" d="M 72 44 23 217"/>
<path stroke-width="1" stroke="black" d="M 72 44 279 255"/>
<path stroke-width="1" stroke="black" d="M 72 44 255 42"/>
<path stroke-width="1" stroke="black" d="M 72 44 154 21"/>
<path stroke-width="1" stroke="black" d="M 72 44 168 76"/>
<path stroke-width="1" stroke="black" d="M 72 44 354 82"/>
<path stroke-width="1" stroke="black" d="M 72 44 29 97"/>
<path stroke-width="1" stroke="black" d="M 72 44 149 129"/>
<path stroke-width="1" stroke="black" d="M 263 320 72 44"/>
<path stroke-width="1" stroke="black" d="M 263 320 348 76"/>
<path stroke-width="1" stroke="black" d="M 263 320 144 161"/>
<path stroke-width="1" stroke="black" d="M 263 320 24 104"/>
<path stroke-width="1" stroke="black" d="M 263 320 168 76"/>
<path stroke-width="1" stroke="black" d="M 263 320 20 192"/>
<path stroke-width="1" stroke="black" d="M 263 320 411 155"/>
<path stroke-width="1" stroke="black" d="M 263 320 83 284"/>
<path stroke-width="1" stroke="black" d="M 263 320 23 217"/>
<path stroke-width="1" stroke="black" d="M 263 320 279 255"/>
<path stroke-width="1" stroke="black" d="M 263 320 255 42"/>
<path stroke-width="1" stroke="black" d="M 263 320 154 21"/>
<path stroke-width="1" stroke="black" d="M 263 320 148 290"/>
<path stroke-width="1" stroke="black" d="M 263 320 289 245"/>
<path stroke-width="1" stroke="black" d="M 72 44 270 97"/>
<path stroke-width="1" stroke="black" d="M 72 44 257 20"/>
<path stroke-width="1" stroke="black" d="M 72 44 420 229"/>
<path stroke-width="1" stroke="black" d="M 344 265 279 255"/>
<path stroke-width="1" stroke="black" d="M 344 265 23 217"/>
<path stroke-width="1" stroke="black" d="M 344 265 83 284"/>
<path stroke-width="1" stroke="black" d="M 344 265 411 155"/>
<path stroke-width="1" stroke="black" d="M 412 157 263 320"/>
<path stroke-width="1" stroke="black" d="M 412 157 72 44"/>
<path stroke-width="1" stroke="black" d="M 412 157 348 76"/>
<path stroke-width="1" stroke="black" d="M 412 157 144 161"/>
<path stroke-width="1" stroke="black" d="M 412 157 24 104"/>
<path stroke-width="1" stroke="black" d="M 412 157 168 76"/>
<path stroke-width="1" stroke="black" d="M 412 157 20 192"/>
<path stroke-width="1" stroke="black" d="M 412 157 287 166"/>
<path stroke-width="1" stroke="black" d="M 412 157 411 155"/>
<path stroke-width="1" stroke="black" d="M 412 157 23 217"/>
<path stroke-width="1" stroke="black" d="M 412 157 279 255"/>
<path stroke-width="1" stroke="black" d="M 412 157 255 42"/>
<path stroke-width="1" stroke="black" d="M 412 157 154 21"/>
<path stroke-width="1" stroke="black" d="M 412 157 148 290"/>
<path stroke-width="1" stroke="black" d="M 412 157 289 245"/>
<path stroke-width="1" stroke="black" d="M 148 288 270 97"/>
<path stroke-width="1" stroke="black" d="M 412 157 83 284"/>
<path stroke-width="1" stroke="black" d="M 412 157 344 265"/>
<path stroke-width="1" stroke="black" d="M 412 157 148 288"/>
<path stroke-width="1" stroke="black" d="M 412 157 280 147"/>
<path stroke-width="1" stroke="black" d="M 280 147 24 104"/>
<path stroke-width="1" stroke="black" d="M 280 147 168 76"/>
<path stroke-width="1" stroke="black" d="M 280 147 20 192"/>
<path stroke-width="1" stroke="black" d="M 280 147 411 155"/>
<path stroke-width="1" stroke="black" d="M 280 147 83 284"/>
<path stroke-width="1" stroke="black" d="M 280 147 23 217"/>
<path stroke-width="1" stroke="black" d="M 280 147 279 255"/>
<path stroke-width="1" stroke="black" d="M 280 147 255 42"/>
<path stroke-width="1" stroke="black" d="M 280 147 154 21"/>
<path stroke-width="1" stroke="black" d="M 280 147 148 290"/>
<path stroke-width="1" stroke="black" d="M 280 147 289 245"/>
<path stroke-width="1" stroke="black" d="M 412 157 270 97"/>
<path stroke-width="1" stroke="black" d="M 412 157 257 20"/>
<path stroke-width="1" stroke="black" d="M 412 157 420 229"/>
<path stroke-width="1" stroke="black" d="M 412 157 149 129"/>
<path stroke-width="1" stroke="black" d="M 412 157 29 97"/>
<path stroke-width="1" stroke="black" d="M 412 157 354 82"/>
<path stroke-width="1" stroke="black" d="M 148 288 257 20"/>
<path stroke-width="1" stroke="black" d="M 280 147 348 76"/>
<path stroke-width="1" stroke="black" d="M 148 288 420 229"/>
<path stroke-width="1" stroke="black" d="M 148 288 29 97"/>
<path stroke-width="1" stroke="black" d="M 344 265 257 20"/>
<path stroke-width="1" stroke="black" d="M 344 265 420 229"/>
<path stroke-width="1" stroke="black" d="M 344 265 149 129"/>
<path stroke-width="1" stroke="black" d="M 344 265 29 97"/>
<path stroke-width="1" stroke="black" d="M 344 265 354 82"/>
<path stroke-width="1" stroke="black" d="M 344 265 280 147"/>
<path stroke-width="1" stroke="black" d="M 344 265 412 157"/>
<path stroke-width="1" stroke="black" d="M 344 265 270 97"/>
<path stroke-width="1" stroke="black" d="M 344 265 148 288"/>
<path stroke-width="1" stroke="black" d="M 344 265 263 320"/>
<path stroke-width="1" stroke="black" d="M 344 265 72 44"/>
<path stroke-width="1" stroke="black" d="M 344 265 348 76"/>
<path stroke-width="1" stroke="black" d="M 344 265 144 161"/>
<path stroke-width="1" stroke="black" d="M 344 265 24 104"/>
<path stroke-width="1" stroke="black" d="M 344 265 168 76"/>
<path stroke-width="1" stroke="black" d="M 344 265 20 192"/>
<path stroke-width="1" stroke="black" d="M 344 265 287 166"/>
<path stroke-width="1" stroke="black" d="M 148 288 289 245"/>
<path stroke-width="1" stroke="black" d="M 148 288 148 290"/>
<path stroke-width="1" stroke="black" d="M 148 288 154 21"/>
<path stroke-width="1" stroke="black" d="M 148 288 354 82"/>
<path stroke-width="1" stroke="black" d="M 148 288 280 147"/>
<path stroke-width="1" stroke="black" d="M 148 288 412 157"/>
<path stroke-width="1" stroke="black" d="M 148 288 344 265"/>
<path stroke-width="1" stroke="black" d="M 148 288 287 166"/>
<path stroke-width="1" stroke="black" d="M 148 288 263 320"/>
<path stroke-width="1" stroke="black" d="M 148 288 72 44"/>
<path stroke-width="1" stroke="black" d="M 148 288 348 76"/>
<path stroke-width="1" stroke="black" d="M 148 288 144 161"/>
<path stroke-width="1" stroke="black" d="M 148 288 24 104"/>
<path stroke-width="1" stroke="black" d="M 148 288 168 76"/>
<path stroke-width="1" stroke="black" d="M 148 288 20 192"/>
<path stroke-width="1" stroke="black" d="M 148 288 411 155"/>
<path stroke-width="1" stroke="black" d="M 148 288 83 284"/>
<path stroke-width="1" stroke="black" d="M 148 288 23 217"/>
<path stroke-width="1" stroke="black" d="M 148 288 279 255"/>
<path stroke-width="1" stroke="black" d="M 148 288 255 42"/>
<path stroke-width="1" stroke="black" d="M 148 288 149 129"/>
<path stroke-width="1" stroke="black" d="M 289 245 148 290"/>
<circle cx="270" cy="97" r="20.0" style="fill:gray;stroke:black;stroke-width:1.0"/>
<circle cx="257" cy="20" r="20.0" style="fill:gray;stroke:black;stroke-width:1.0"/>
<circle cx="420" cy="229" r="20.0" style="fill:gray;stroke:black;stroke-width:1.0"/>
<circle cx="149" cy="129" r="20.0" style="fill:gray;stroke:black;stroke-width:1.0"/>
<circle cx="29" cy="97" r="20.0" style="fill:gray;stroke:black;stroke-width:1.0"/>
<circle cx="354" cy="82" r="20.0" style="fill:gray;stroke:black;stroke-width:1.0"/>
<circle cx="280" cy="147" r="20.0" style="fill:gray;stroke:black;stroke-width:1.0"/>
<circle cx="412" cy="157" r="20.0" style="fill:gray;stroke:black;stroke-width:1.0"/>
<circle cx="148" cy="288" r="20.0" style="fill:gray;stroke:black;stroke-width:1.0"/>
<circle cx="344" cy="265" r="20.0" style="fill:gray;stroke:black;stroke-width:1.0"/>
<circle cx="287" cy="166" r="20.0" style="fill:gray;stroke:black;stroke-width:1.0"/>
<circle cx="263" cy="320" r="20.0" style="fill:gray;stroke:black;stroke-width:1.0"/>
<circle cx="72" cy="44" r="20.0" style="fill:gray;stroke:black;stroke-width:1.0"/>
<circle cx="348" cy="76" r="20.0" style="fill:gray;stroke:black;stroke-width:1.0"/>
<circle cx="144" cy="161" r="20.0" style="fill:gray;stroke:black;stroke-width:1.0"/>
<circle cx="24" cy="104" r="20.0" style="fill:gray;stroke:black;stroke-width:1.0"/>
<circle cx="168" cy="76" r="20.0" style="fill:gray;stroke:black;stroke-width:1.0"/>
<circle cx="20" cy="192" r="20.0" style="fill:gray;stroke:black;stroke-width:1.0"/>
<circle cx="411" cy="155" r="20.0" style="fill:gray;stroke:black;stroke-width:1.0"/>
<circle cx="83" cy="284" r="20.0" style="fill:gray;stroke:black;stroke-width:1.0"/>
<circle cx="23" cy="217" r="20.0" style="fill:gray;stroke:black;stroke-width:1.0"/>
<circle cx="279" cy="255" r="20.0" style="fill:gray;stroke:black;stroke-width:1.0"/>
<circle cx="255" cy="42" r="20.0" style="fill:gray;stroke:black;stroke-width:1.0"/>
<circle cx="154" cy="21" r="20.0" style="fill:gray;stroke:black;stroke-width:1.0"/>
<circle cx="148" cy="290" r="20.0" style="fill:gray;stroke:black;stroke-width:1.0"/>
<circle cx="289" cy="245" r="20.0" style="fill:gray;stroke:black;stroke-width:1.0"/>
</svg>
