<svg width="440" height="340" xmlns="http://www.w3.org/2000/svg">
<path stroke-width="5.375" stroke="black" d="M 133 128 228 159"/>
<path stroke-width="5.375" stroke="black" d="M 156 320 20 130"/>
<path stroke-width="5.375" stroke="black" d="M 156 320 136 20"/>
<path stroke-width="5.375" stroke="black" d="M 156 320 335 149"/>
<path stroke-width="5.375" stroke="black" d="M 156 320 281 44"/>
<path stroke-width="5.375" stroke="black" d="M 156 320 274 274"/>
<path stroke-width="20.0" stroke="black" d="M 156 320 101 247"/>
<path stroke-width="5.375" stroke="black" d="M 156 320 228 159"/>
<path stroke-width="5.375" stroke="black" d="M 156 320 133 128"/>
<path stroke-width="5.375" stroke="black" d="M 335 149 420 258"/>
<path stroke-width="5.375" stroke="black" d="M 335 149 20 130"/>
<path stroke-width="5.375" stroke="black" d="M 335 149 136 20"/>
<path stroke-width="5.375" stroke="black" d="M 335 149 156 320"/>
<path stroke-width="5.375" stroke="black" d="M 335 149 281 44"/>
<path stroke-width="20.0" stroke="black" d="M 335 149 274 274"/>
<path stroke-width="5.375" stroke="black" d="M 335 149 101 247"/>
<path stroke-width="5.375" stroke="black" d="M 335 149 228 159"/>
<path stroke-width="5.375" stroke="black" d="M 335 149 133 128"/>
<path stroke-width="0.5" stroke="black" d="M 156 320 420 258"/>
<path stroke-width="5.375" stroke="black" d="M 136 20 133 128"/>
<path stroke-width="20.0" stroke="black" d="M 136 20 228 159"/>
<path stroke-width="5.375" stroke="black" d="M 136 20 101 247"/>
<path stroke-width="5.375" stroke="black" d="M 420 258 281 44"/>
<path stroke-width="5.375" stroke="black" d="M 420 258 274 274"/>
<path stroke-width="5.375" stroke="black" d="M 420 258 101 247"/>
<path stroke-width="5.375" stroke="black" d="M 420 258 228 159"/>
<path stroke-width="5.375" stroke="black" d="M 420 258 133 128"/>
<path stroke-width="5.375" stroke="black" d="M 20 130 136 20"/>
<path stroke-width="5.375" stroke="black" d="M 20 130 156 320"/>
<path stroke-width="5.375" stroke="black" d="M 20 130 335 149"/>
<path stroke-width="5.375" stroke="black" d="M 281 44 420 258"/>
<path stroke-width="5.375" stroke="black" d="M 20 130 281 44"/>
<path stroke-width="5.375" stroke="black" d="M 20 130 101 247"/>
<path stroke-width="5.375" stroke="black" d="M 20 130 228 159"/>
<path stroke-width="20.0" stroke="black" d="M 20 130 133 128"/>
<path stroke-width="5.375" stroke="black" d="M 136 20 20 130"/>
<path stroke-width="5.375" stroke="black" d="M 136 20 156 320"/>
<path stroke-width="5.375" stroke="black" d="M 136 20 335 149"/>
<path stroke-width="5.375" stroke="black" d="M 136 20 281 44"/>
<path stroke-width="5.375" stroke="black" d="M 136 20 274 274"/>
<path stroke-width="5.375" stroke="black" d="M 20 130 274 274"/>
<path stroke-width="5.375" stroke="black" d="M 281 44 20 130"/>
<path stroke-width="5.375" stroke="black" d="M 281 44 136 20"/>
<path stroke-width="5.375" stroke="black" d="M 281 44 156 320"/>
<path stroke-width="5.375" stroke="black" d="M 101 247 133 128"/>
<path stroke-width="5.375" stroke="black" d="M 228 159 420 258"/>
<path stroke-width="5.375" stroke="black" d="M 228 159 20 130"/>
<path stroke-width="20.0" stroke="black" d="M 228 159 136 20"/>
<path stroke-width="5.375" stroke="black" d="M 228 159 156 320"/>
<path stroke-width="5.375" stroke="black" d="M 228 159 335 149"/>
<path stroke-width="5.375" stroke="black" d="M 228 159 281 44"/>
<path stroke-width="5.375" stroke="black" d="M 228 159 274 274"/>
<path stroke-width="5.375" stroke="black" d="M 101 247 228 159"/>
<path stroke-width="5.375" stroke="black" d="M 228 159 101 247"/>
<path stroke-width="5.375" stroke="black" d="M 133 128 420 258"/>
<path stroke-width="20.0" stroke="black" d="M 133 128 20 130"/>
<path stroke-width="5.375" stroke="black" d="M 133 128 136 20"/>
<path stroke-width="5.375" stroke="black" d="M 133 128 156 320"/>
<path stroke-width="5.375" stroke="black" d="M 133 128 335 149"/>
<path stroke-width="5.375" stroke="black" d="M 133 128 281 44"/>
<path stroke-width="5.375" stroke="black" d="M 133 128 274 274"/>
<path stroke-width="5.375" stroke="black" d="M 133 128 101 247"/>
<path stroke-width="5.375" stroke="black" d="M 228 159 133 128"/>
<path stroke-width="5.375" stroke="black" d="M 420 258 335 149"/>
<path stroke-width="5.375" stroke="black" d="M 101 247 274 274"/>
<path stroke-width="5.375" stroke="black" d="M 101 247 335 149"/>
<path stroke-width="5.375" stroke="black" d="M 281 44 335 149"/>
<path stroke-width="5.375" stroke="black" d="M 281 44 274 274"/>
<path stroke-width="5.375" stroke="black" d="M 281 44 101 247"/>
<path stroke-width="5.375" stroke="black" d="M 281 44 228 159"/>
<path stroke-width="5.375" stroke="black" d="M 281 44 133 128"/>
<path stroke-width="5.375" stroke="black" d="M 274 274 420 258"/>
<path stroke-width="5.375" stroke="black" d="M 274 274 20 130"/>
<path stroke-width="5.375" stroke="black" d="M 274 274 136 20"/>
<path stroke-width="5.375" stroke="black" d="M 101 247 281 44"/>
<path stroke-width="5.375" stroke="black" d="M 274 274 156 320"/>
<path stroke-width="5.375" stroke="black" d="M 274 274 281 44"/>
<path stroke-width="5.375" stroke="black" d="M 274 274 101 247"/>
<path stroke-width="5.375" stroke="black" d="M 274 274 228 159"/>
<path stroke-width="5.375" stroke="black" d="M 274 274 133 128"/>
<path stroke-width="5.375" stroke="black" d="M 101 247 420 258"/>
<path stroke-width="5.375" stroke="black" d="M 101 247 20 130"/>
<path stroke-width="5.375" stroke="black" d="M 101 247 136 20"/>
<path stroke-width="20.0" stroke="black" d="M 101 247 156 320"/>
<path stroke-width="20.0" stroke="black" d="M 274 274 335 149"/>
<path stroke-width="0.5" stroke="black" d="M 420 258 156 320"/>
<circle cx="133" cy="128" r="7.0" style="fill:orange;stroke:black;stroke-width:1.0"/>
<circle cx="228" cy="159" r="7.0" style="fill:green;stroke:black;stroke-width:1.0"/>
<circle cx="101" cy="247" r="7.0" style="fill:red;stroke:black;stroke-width:1.0"/>
<circle cx="274" cy="274" r="7.0" style="fill:blue;stroke:black;stroke-width:1.0"/>
<circle cx="281" cy="44" r="7.0" style="fill:blue;stroke:black;stroke-width:1.0"/>
<circle cx="335" cy="149" r="7.0" style="fill:blue;stroke:black;stroke-width:1.0"/>
<circle cx="156" cy="320" r="7.0" style="fill:red;stroke:black;stroke-width:1.0"/>
<circle cx="136" cy="20" r="7.0" style="fill:green;stroke:black;stroke-width:1.0"/>
<circle cx="20" cy="130" r="7.0" style="fill:orange;stroke:black;stroke-width:1.0"/>
<circle cx="420" cy="258" r="7.0" style="fill:blue;stroke:black;stroke-width:1.0"/>
</svg>
