<svg width="440" height="340" xmlns="http://www.w3.org/2000/svg">
<path stroke-width="1" stroke="black" d="M 170 56 291 144"/>
<path stroke-width="1" stroke="black" d="M 308 320 299 20"/>
<path stroke-width="1" stroke="black" d="M 308 320 420 123"/>
<path stroke-width="1" stroke="black" d="M 308 320 75 149"/>
<path stroke-width="1" stroke="black" d="M 308 320 185 191"/>
<path stroke-width="1" stroke="black" d="M 308 320 166 285"/>
<path stroke-width="1" stroke="black" d="M 308 320 365 248"/>
<path stroke-width="1" stroke="black" d="M 308 320 291 144"/>
<path stroke-width="1" stroke="black" d="M 308 320 170 56"/>
<path stroke-width="1" stroke="black" d="M 75 149 20 296"/>
<path stroke-width="1" stroke="black" d="M 75 149 299 20"/>
<path stroke-width="1" stroke="black" d="M 75 149 420 123"/>
<path stroke-width="1" stroke="black" d="M 75 149 308 320"/>
<path stroke-width="1" stroke="black" d="M 75 149 185 191"/>
<path stroke-width="1" stroke="black" d="M 75 149 166 285"/>
<path stroke-width="1" stroke="black" d="M 75 149 365 248"/>
<path stroke-width="1" stroke="black" d="M 75 149 291 144"/>
<path stroke-width="1" stroke="black" d="M 75 149 170 56"/>
<path stroke-width="1" stroke="black" d="M 308 320 20 296"/>
<path stroke-width="1" stroke="black" d="M 420 123 170 56"/>
<path stroke-width="1" stroke="black" d="M 420 123 291 144"/>
<path stroke-width="1" stroke="black" d="M 420 123 365 248"/>
<path stroke-width="1" stroke="black" d="M 20 296 185 191"/>
<path stroke-width="1" stroke="black" d="M 20 296 166 285"/>
<path stroke-width="1" stroke="black" d="M 20 296 365 248"/>
<path stroke-width="1" stroke="black" d="M 20 296 291 144"/>
<path stroke-width="1" stroke="black" d="M 20 296 170 56"/>
<path stroke-width="1" stroke="black" d="M 299 20 420 123"/>
<path stroke-width="1" stroke="black" d="M 299 20 308 320"/>
<path stroke-width="1" stroke="black" d="M 299 20 75 149"/>
<path stroke-width="1" stroke="black" d="M 185 191 20 296"/>
<path stroke-width="1" stroke="black" d="M 299 20 185 191"/>
<path stroke-width="1" stroke="black" d="M 299 20 365 248"/>
<path stroke-width="1" stroke="black" d="M 299 20 291 144"/>
<path stroke-width="1" stroke="black" d="M 299 20 170 56"/>
<path stroke-width="1" stroke="black" d="M 420 123 299 20"/>
<path stroke-width="1" stroke="black" d="M 420 123 308 320"/>
<path stroke-width="1" stroke="black" d="M 420 123 75 149"/>
<path stroke-width="1" stroke="black" d="M 420 123 185 191"/>
<path stroke-width="1" stroke="black" d="M 420 123 166 285"/>
<path stroke-width="1" stroke="black" d="M 299 20 166 285"/>
<path stroke-width="1" stroke="black" d="M 185 191 299 20"/>
<path stroke-width="1" stroke="black" d="M 185 191 420 123"/>
<path stroke-width="1" stroke="black" d="M 185 191 308 320"/>
<path stroke-width="1" stroke="black" d="M 365 248 170 56"/>
<path stroke-width="1" stroke="black" d="M 291 144 20 296"/>
<path stroke-width="1" stroke="black" d="M 291 144 299 20"/>
<path stroke-width="1" stroke="black" d="M 291 144 420 123"/>
<path stroke-width="1" stroke="black" d="M 291 144 308 320"/>
<path stroke-width="1" stroke="black" d="M 291 144 75 149"/>
<path stroke-width="1" stroke="black" d="M 291 144 185 191"/>
<path stroke-width="1" stroke="black" d="M 291 144 166 285"/>
<path stroke-width="1" stroke="black" d="M 365 248 291 144"/>
<path stroke-width="1" stroke="black" d="M 291 144 365 248"/>
<path stroke-width="1" stroke="black" d="M 170 56 20 296"/>
<path stroke-width="1" stroke="black" d="M 170 56 299 20"/>
<path stroke-width="1" stroke="black" d="M 170 56 420 123"/>
<path stroke-width="1" stroke="black" d="M 170 56 308 320"/>
<path stroke-width="1" stroke="black" d="M 170 56 75 149"/>
<path stroke-width="1" stroke="black" d="M 170 56 185 191"/>
<path stroke-width="1" stroke="black" d="M 170 56 166 285"/>
<path stroke-width="1" stroke="black" d="M 170 56 365 248"/>
<path stroke-width="1" stroke="black" d="M 291 144 170 56"/>
<path stroke-width="1" stroke="black" d="M 20 296 75 149"/>
<path stroke-width="1" stroke="black" d="M 365 248 166 285"/>
<path stroke-width="1" stroke="black" d="M 365 248 75 149"/>
<path stroke-width="1" stroke="black" d="M 185 191 75 149"/>
<path stroke-width="1" stroke="black" d="M 185 191 166 285"/>
<path stroke-width="1" stroke="black" d="M 185 191 365 248"/>
<path stroke-width="1" stroke="black" d="M 185 191 291 144"/>
<path stroke-width="1" stroke="black" d="M 185 191 170 56"/>
<path stroke-width="1" stroke="black" d="M 166 285 20 296"/>
<path stroke-width="1" stroke="black" d="M 166 285 299 20"/>
<path stroke-width="1" stroke="black" d="M 166 285 420 123"/>
<path stroke-width="1" stroke="black" d="M 365 248 185 191"/>
<path stroke-width="1" stroke="black" d="M 166 285 308 320"/>
<path stroke-width="1" stroke="black" d="M 166 285 185 191"/>
<path stroke-width="1" stroke="black" d="M 166 285 365 248"/>
<path stroke-width="1" stroke="black" d="M 166 285 291 144"/>
<path stroke-width="1" stroke="black" d="M 166 285 170 56"/>
<path stroke-width="1" stroke="black" d="M 365 248 20 296"/>
<path stroke-width="1" stroke="black" d="M 365 248 299 20"/>
<path stroke-width="1" stroke="black" d="M 365 248 420 123"/>
<path stroke-width="1" stroke="black" d="M 365 248 308 320"/>
<path stroke-width="1" stroke="black" d="M 166 285 75 149"/>
<path stroke-width="1" stroke="black" d="M 20 296 308 320"/>
<circle cx="170" cy="56" r="7.0" style="fill:gray;stroke:black;stroke-width:1.0"/>
<circle cx="291" cy="144" r="7.0" style="fill:gray;stroke:black;stroke-width:1.0"/>
<circle cx="365" cy="248" r="7.0" style="fill:gray;stroke:black;stroke-width:1.0"/>
<circle cx="166" cy="285" r="7.0" style="fill:gray;stroke:black;stroke-width:1.0"/>
<circle cx="185" cy="191" r="7.0" style="fill:gray;stroke:black;stroke-width:1.0"/>
<circle cx="75" cy="149" r="7.0" style="fill:gray;stroke:black;stroke-width:1.0"/>
<circle cx="308" cy="320" r="7.0" style="fill:gray;stroke:black;stroke-width:1.0"/>
<circle cx="420" cy="123" r="7.0" style="fill:gray;stroke:black;stroke-width:1.0"/>
<circle cx="299" cy="20" r="7.0" style="fill:gray;stroke:black;stroke-width:1.0"/>
<circle cx="20" cy="296" r="7.0" style="fill:gray;stroke:black;stroke-width:1.0"/>
</svg>
