<svg width="440" height="340" xmlns="http://www.w3.org/2000/svg">
<path stroke-width="0.5" stroke="black" d="M 25 291 20 312"/>
<path stroke-width="0.5" stroke="black" d="M 25 291 40 299"/>
<path stroke-width="0.5" stroke="black" d="M 35 320 20 312"/>
<path stroke-width="0.5" stroke="black" d="M 35 320 40 299"/>
<path stroke-width="0.5" stroke="black" d="M 20 312 25 291"/>
<path stroke-width="0.5" stroke="black" d="M 20 312 35 320"/>
<path stroke-width="20.0" stroke="black" d="M 84 20 97 20"/>
<path stroke-width="20.0" stroke="black" d="M 97 20 84 20"/>
<path stroke-width="0.5" stroke="black" d="M 40 299 25 291"/>
<path stroke-width="0.5" stroke="black" d="M 40 299 35 320"/>
<circle cx="420" cy="107" r="20.0" style="fill:gray;stroke:black;stroke-width:1.0"/>
<circle cx="25" cy="291" r="20.0" style="fill:gray;stroke:black;stroke-width:1.0"/>
<circle cx="35" cy="320" r="20.0" style="fill:gray;stroke:black;stroke-width:1.0"/>
<circle cx="20" cy="312" r="20.0" style="fill:gray;stroke:black;stroke-width:1.0"/>
<circle cx="84" cy="20" r="20.0" style="fill:gray;stroke:black;stroke-width:1.0"/>
<circle cx="97" cy="20" r="20.0" style="fill:gray;stroke:black;stroke-width:1.0"/>
<circle cx="40" cy="299" r="20.0" style="fill:gray;stroke:black;stroke-width:1.0"/>
</svg>
