<svg width="440" height="340" xmlns="http://www.w3.org/2000/svg">
<path stroke-width="1" stroke="black" d="M 20 20 64 50"/>
<path stroke-width="1" stroke="black" d="M 64 50 20 20"/>
<path stroke-width="1" stroke="black" d="M 64 50 140 89"/>
<path stroke-width="1" stroke="black" d="M 140 89 64 50"/>
<path stroke-width="1" stroke="black" d="M 140 89 182 127"/>
<path stroke-width="1" stroke="black" d="M 182 127 140 89"/>
<path stroke-width="1" stroke="black" d="M 182 127 234 170"/>
<path stroke-width="1" stroke="black" d="M 234 170 182 127"/>
<path stroke-width="1" stroke="black" d="M 234 170 234 209"/>
<path stroke-width="1" stroke="black" d="M 234 209 234 170"/>
<path stroke-width="1" stroke="black" d="M 234 209 284 251"/>
<path stroke-width="1" stroke="black" d="M 284 251 234 209"/>
<path stroke-width="1" stroke="black" d="M 284 251 341 288"/>
<path stroke-width="1" stroke="black" d="M 341 288 284 251"/>
<path stroke-width="1" stroke="black" d="M 341 288 420 320"/>
<path stroke-width="1" stroke="black" d="M 420 320 341 288"/>
<circle cx="20" cy="20" r="7.0" style="fill:gray;stroke:black;stroke-width:1.0"/>
<circle cx="64" cy="50" r="7.0" style="fill:gray;stroke:black;stroke-width:1.0"/>
<circle cx="140" cy="89" r="7.0" style="fill:gray;stroke:black;stroke-width:1.0"/>
<circle cx="182" cy="127" r="7.0" style="fill:gray;stroke:black;stroke-width:1.0"/>
<circle cx="234" cy="170" r="7.0" style="fill:gray;stroke:black;stroke-width:1.0"/>
<circle cx="234" cy="209" r="7.0" style="fill:gray;stroke:black;stroke-width:1.0"/>
<circle cx="284" cy="251" r="7.0" style="fill:gray;stroke:black;stroke-width:1.0"/>
<circle cx="341" cy="288" r="7.0" style="fill:gray;stroke:black;stroke-width:1.0"/>
<circle cx="420" cy="320" r="7.0" style="fill:gray;stroke:black;stroke-width:1.0"/>
</svg>
