<svg width="440" height="340" xmlns="http://www.w3.org/2000/svg">
<path stroke-width="1" stroke="black" d="M 20 20 60 58"/>
<path stroke-width="1" stroke="black" d="M 60 58 20 20"/>
<path stroke-width="1" stroke="black" d="M 60 58 104 98"/>
<path stroke-width="1" stroke="black" d="M 104 98 60 58"/>
<path stroke-width="1" stroke="black" d="M 104 98 154 144"/>
<path stroke-width="1" stroke="black" d="M 154 144 104 98"/>
<path stroke-width="1" stroke="black" d="M 154 144 212 186"/>
<path stroke-width="1" stroke="black" d="M 212 186 154 144"/>
<path stroke-width="1" stroke="black" d="M 212 186 259 229"/>
<path stroke-width="1" stroke="black" d="M 259 229 212 186"/>
<path stroke-width="1" stroke="black" d="M 259 229 322 264"/>
<path stroke-width="1" stroke="black" d="M 322 264 259 229"/>
<path stroke-width="1" stroke="black" d="M 322 264 370 297"/>
<path stroke-width="1" stroke="black" d="M 370 297 322 264"/>
<path stroke-width="1" stroke="black" d="M 370 297 420 320"/>
<path stroke-width="1" stroke="black" d="M 420 320 370 297"/>
<circle cx="20" cy="20" r="20.0" style="fill:gray;stroke:black;stroke-width:1.0"/>
<circle cx="60" cy="58" r="20.0" style="fill:gray;stroke:black;stroke-width:1.0"/>
<circle cx="104" cy="98" r="20.0" style="fill:gray;stroke:black;stroke-width:1.0"/>
<circle cx="154" cy="144" r="20.0" style="fill:gray;stroke:black;stroke-width:1.0"/>
<circle cx="212" cy="186" r="20.0" style="fill:gray;stroke:black;stroke-width:1.0"/>
<circle cx="259" cy="229" r="20.0" style="fill:gray;stroke:black;stroke-width:1.0"/>
<circle cx="322" cy="264" r="20.0" style="fill:gray;stroke:black;stroke-width:1.0"/>
<circle cx="370" cy="297" r="20.0" style="fill:gray;stroke:black;stroke-width:1.0"/>
<circle cx="420" cy="320" r="20.0" style="fill:gray;stroke:black;stroke-width:1.0"/>
</svg>
