<svg width="440" height="340" xmlns="http://www.w3.org/2000/svg">
<path stroke-width="1" stroke="black" d="M 420 320 389 281"/>
<path stroke-width="1" stroke="black" d="M 389 281 420 320"/>
<path stroke-width="1" stroke="black" d="M 389 281 350 233"/>
<path stroke-width="1" stroke="black" d="M 350 233 389 281"/>
<path stroke-width="1" stroke="black" d="M 350 233 314 186"/>
<path stroke-width="1" stroke="black" d="M 314 186 350 233"/>
<path stroke-width="1" stroke="black" d="M 314 186 262 134"/>
<path stroke-width="1" stroke="black" d="M 262 134 314 186"/>
<path stroke-width="1" stroke="black" d="M 262 134 213 94"/>
<path stroke-width="1" stroke="black" d="M 213 94 262 134"/>
<path stroke-width="1" stroke="black" d="M 213 94 144 58"/>
<path stroke-width="1" stroke="black" d="M 144 58 213 94"/>
<path stroke-width="1" stroke="black" d="M 144 58 82 34"/>
<path stroke-width="1" stroke="black" d="M 82 34 144 58"/>
<path stroke-width="1" stroke="black" d="M 82 34 20 20"/>
<path stroke-width="1" stroke="black" d="M 20 20 82 34"/>
<circle cx="420" cy="320" r="7.0" style="fill:gray;stroke:black;stroke-width:1.0"/>
<circle cx="389" cy="281" r="7.0" style="fill:gray;stroke:black;stroke-width:1.0"/>
<circle cx="350" cy="233" r="7.0" style="fill:gray;stroke:black;stroke-width:1.0"/>
<circle cx="314" cy="186" r="7.0" style="fill:gray;stroke:black;stroke-width:1.0"/>
<circle cx="262" cy="134" r="7.0" style="fill:gray;stroke:black;stroke-width:1.0"/>
<circle cx="213" cy="94" r="7.0" style="fill:gray;stroke:black;stroke-width:1.0"/>
<circle cx="144" cy="58" r="7.0" style="fill:gray;stroke:black;stroke-width:1.0"/>
<circle cx="82" cy="34" r="7.0" style="fill:gray;stroke:black;stroke-width:1.0"/>
<circle cx="20" cy="20" r="7.0" style="fill:gray;stroke:black;stroke-width:1.0"/>
</svg>
