<svg width="440" height="340" xmlns="http://www.w3.org/2000/svg">
<path stroke-width="20.0" stroke="black" d="M 392 320 389 310"/>
<path stroke-width="0.5" stroke="black" d="M 361 120 401 84"/>
<path stroke-width="20.0" stroke="black" d="M 375 122 361 120"/>
<path stroke-width="0.5" stroke="black" d="M 401 84 361 120"/>
<path stroke-width="20.0" stroke="black" d="M 401 84 416 82"/>
<path stroke-width="0.5" stroke="black" d="M 401 84 409 50"/>
<path stroke-width="20.0" stroke="black" d="M 416 82 401 84"/>
<path stroke-width="0.5" stroke="black" d="M 409 50 401 84"/>
<path stroke-width="20.0" stroke="black" d="M 409 50 420 44"/>
<path stroke-width="0.5" stroke="black" d="M 409 50 378 27"/>
<path stroke-width="20.0" stroke="black" d="M 420 44 409 50"/>
<path stroke-width="0.5" stroke="black" d="M 378 27 409 50"/>
<path stroke-width="20.0" stroke="black" d="M 378 27 383 20"/>
<path stroke-width="20.0" stroke="black" d="M 361 120 375 122"/>
<path stroke-width="0.5" stroke="black" d="M 378 27 322 35"/>
<path stroke-width="0.5" stroke="black" d="M 322 35 378 27"/>
<path stroke-width="20.0" stroke="black" d="M 322 35 322 28"/>
<path stroke-width="0.5" stroke="black" d="M 322 35 282 64"/>
<path stroke-width="20.0" stroke="black" d="M 322 28 322 35"/>
<path stroke-width="0.5" stroke="black" d="M 282 64 322 35"/>
<path stroke-width="20.0" stroke="black" d="M 282 64 281 58"/>
<path stroke-width="0.5" stroke="black" d="M 282 64 246 98"/>
<path stroke-width="20.0" stroke="black" d="M 281 58 282 64"/>
<path stroke-width="0.5" stroke="black" d="M 246 98 282 64"/>
<path stroke-width="20.0" stroke="black" d="M 246 98 241 103"/>
<path stroke-width="0.5" stroke="black" d="M 246 98 217 128"/>
<path stroke-width="20.0" stroke="black" d="M 241 103 246 98"/>
<path stroke-width="20.0" stroke="black" d="M 383 20 378 27"/>
<path stroke-width="0.5" stroke="black" d="M 361 120 297 150"/>
<path stroke-width="20.0" stroke="black" d="M 298 157 297 150"/>
<path stroke-width="0.5" stroke="black" d="M 297 150 361 120"/>
<path stroke-width="8.857142857142858" stroke="black" d="M 20 202 24 193"/>
<path stroke-width="0.5" stroke="black" d="M 37 171 24 193"/>
<path stroke-width="20.0" stroke="black" d="M 37 171 29 169"/>
<path stroke-width="0.5" stroke="black" d="M 37 171 59 149"/>
<path stroke-width="20.0" stroke="black" d="M 29 169 37 171"/>
<path stroke-width="0.5" stroke="black" d="M 59 149 37 171"/>
<path stroke-width="20.0" stroke="black" d="M 59 149 64 143"/>
<path stroke-width="0.5" stroke="black" d="M 59 149 52 149"/>
<path stroke-width="20.0" stroke="black" d="M 64 143 59 149"/>
<path stroke-width="0.5" stroke="black" d="M 52 149 59 149"/>
<path stroke-width="20.0" stroke="black" d="M 52 149 47 144"/>
<path stroke-width="0.5" stroke="black" d="M 52 149 84 165"/>
<path stroke-width="20.0" stroke="black" d="M 47 144 52 149"/>
<path stroke-width="0.5" stroke="black" d="M 84 165 52 149"/>
<path stroke-width="20.0" stroke="black" d="M 84 165 71 166"/>
<path stroke-width="0.5" stroke="black" d="M 84 165 144 172"/>
<path stroke-width="20.0" stroke="black" d="M 71 166 84 165"/>
<path stroke-width="0.5" stroke="black" d="M 144 172 84 165"/>
<path stroke-width="20.0" stroke="black" d="M 144 172 132 176"/>
<path stroke-width="0.5" stroke="black" d="M 144 172 219 168"/>
<path stroke-width="20.0" stroke="black" d="M 132 176 144 172"/>
<path stroke-width="0.5" stroke="black" d="M 219 168 144 172"/>
<path stroke-width="20.0" stroke="black" d="M 219 168 214 174"/>
<path stroke-width="0.5" stroke="black" d="M 219 168 297 150"/>
<path stroke-width="20.0" stroke="black" d="M 214 174 219 168"/>
<path stroke-width="0.5" stroke="black" d="M 297 150 219 168"/>
<path stroke-width="20.0" stroke="black" d="M 297 150 298 157"/>
<path stroke-width="0.5" stroke="black" d="M 217 128 246 98"/>
<path stroke-width="20.0" stroke="black" d="M 217 128 216 136"/>
<path stroke-width="0.5" stroke="black" d="M 217 128 177 138"/>
<path stroke-width="20.0" stroke="black" d="M 216 136 217 128"/>
<path stroke-width="20.0" stroke="black" d="M 327 136 326 129"/>
<path stroke-width="0.5" stroke="black" d="M 376 141 326 129"/>
<path stroke-width="20.0" stroke="black" d="M 376 141 387 146"/>
<path stroke-width="0.5" stroke="black" d="M 376 141 382 129"/>
<path stroke-width="20.0" stroke="black" d="M 387 146 376 141"/>
<path stroke-width="0.5" stroke="black" d="M 382 129 376 141"/>
<path stroke-width="20.0" stroke="black" d="M 382 129 388 123"/>
<path stroke-width="0.5" stroke="black" d="M 382 129 365 150"/>
<path stroke-width="20.0" stroke="black" d="M 388 123 382 129"/>
<path stroke-width="0.5" stroke="black" d="M 365 150 382 129"/>
<path stroke-width="20.0" stroke="black" d="M 365 150 361 142"/>
<path stroke-width="0.5" stroke="black" d="M 365 150 367 189"/>
<path stroke-width="20.0" stroke="black" d="M 361 142 365 150"/>
<path stroke-width="0.5" stroke="black" d="M 367 189 365 150"/>
<path stroke-width="20.0" stroke="black" d="M 367 189 364 183"/>
<path stroke-width="0.5" stroke="black" d="M 367 189 373 232"/>
<path stroke-width="20.0" stroke="black" d="M 364 183 367 189"/>
<path stroke-width="0.5" stroke="black" d="M 373 232 367 189"/>
<path stroke-width="20.0" stroke="black" d="M 373 232 366 233"/>
<path stroke-width="0.5" stroke="black" d="M 373 232 380 275"/>
<path stroke-width="20.0" stroke="black" d="M 366 233 373 232"/>
<path stroke-width="0.5" stroke="black" d="M 380 275 373 232"/>
<path stroke-width="20.0" stroke="black" d="M 380 275 379 282"/>
<path stroke-width="0.5" stroke="black" d="M 380 275 389 310"/>
<path stroke-width="20.0" stroke="black" d="M 379 282 380 275"/>
<path stroke-width="0.5" stroke="black" d="M 389 310 380 275"/>
<path stroke-width="20.0" stroke="black" d="M 389 310 392 320"/>
<path stroke-width="0.5" stroke="black" d="M 326 129 376 141"/>
<path stroke-width="0.5" stroke="black" d="M 24 193 37 171"/>
<path stroke-width="20.0" stroke="black" d="M 326 129 327 136"/>
<path stroke-width="20.0" stroke="black" d="M 288 105 288 101"/>
<path stroke-width="0.5" stroke="black" d="M 177 138 217 128"/>
<path stroke-width="20.0" stroke="black" d="M 177 138 174 146"/>
<path stroke-width="0.5" stroke="black" d="M 177 138 165 112"/>
<path stroke-width="20.0" stroke="black" d="M 174 146 177 138"/>
<path stroke-width="0.5" stroke="black" d="M 165 112 177 138"/>
<path stroke-width="20.0" stroke="black" d="M 165 112 159 117"/>
<path stroke-width="0.5" stroke="black" d="M 165 112 165 82"/>
<path stroke-width="20.0" stroke="black" d="M 159 117 165 112"/>
<path stroke-width="0.5" stroke="black" d="M 165 82 165 112"/>
<path stroke-width="20.0" stroke="black" d="M 165 82 161 77"/>
<path stroke-width="0.5" stroke="black" d="M 165 82 175 54"/>
<path stroke-width="20.0" stroke="black" d="M 161 77 165 82"/>
<path stroke-width="0.5" stroke="black" d="M 175 54 165 82"/>
<path stroke-width="20.0" stroke="black" d="M 175 54 170 47"/>
<path stroke-width="0.5" stroke="black" d="M 175 54 215 45"/>
<path stroke-width="20.0" stroke="black" d="M 170 47 175 54"/>
<path stroke-width="0.5" stroke="black" d="M 215 45 175 54"/>
<path stroke-width="20.0" stroke="black" d="M 215 45 213 37"/>
<path stroke-width="0.5" stroke="black" d="M 215 45 250 70"/>
<path stroke-width="20.0" stroke="black" d="M 213 37 215 45"/>
<path stroke-width="0.5" stroke="black" d="M 250 70 215 45"/>
<path stroke-width="20.0" stroke="black" d="M 250 70 244 65"/>
<path stroke-width="0.5" stroke="black" d="M 250 70 288 101"/>
<path stroke-width="20.0" stroke="black" d="M 244 65 250 70"/>
<path stroke-width="0.5" stroke="black" d="M 288 101 250 70"/>
<path stroke-width="20.0" stroke="black" d="M 288 101 288 105"/>
<path stroke-width="0.5" stroke="black" d="M 288 101 326 129"/>
<path stroke-width="0.5" stroke="black" d="M 326 129 288 101"/>
<path stroke-width="8.857142857142858" stroke="black" d="M 24 193 20 202"/>
<circle cx="392" cy="320" r="7.0" style="fill:gray;stroke:black;stroke-width:1.0"/>
<circle cx="389" cy="310" r="7.0" style="fill:gray;stroke:black;stroke-width:1.0"/>
<circle cx="379" cy="282" r="7.0" style="fill:gray;stroke:black;stroke-width:1.0"/>
<circle cx="380" cy="275" r="7.0" style="fill:gray;stroke:black;stroke-width:1.0"/>
<circle cx="366" cy="233" r="7.0" style="fill:gray;stroke:black;stroke-width:1.0"/>
<circle cx="373" cy="232" r="7.0" style="fill:gray;stroke:black;stroke-width:1.0"/>
<circle cx="364" cy="183" r="7.0" style="fill:gray;stroke:black;stroke-width:1.0"/>
<circle cx="367" cy="189" r="7.0" style="fill:gray;stroke:black;stroke-width:1.0"/>
<circle cx="361" cy="142" r="7.0" style="fill:gray;stroke:black;stroke-width:1.0"/>
<circle cx="365" cy="150" r="7.0" style="fill:gray;stroke:black;stroke-width:1.0"/>
<circle cx="388" cy="123" r="7.0" style="fill:gray;stroke:black;stroke-width:1.0"/>
<circle cx="382" cy="129" r="7.0" style="fill:gray;stroke:black;stroke-width:1.0"/>
<circle cx="387" cy="146" r="7.0" style="fill:gray;stroke:black;stroke-width:1.0"/>
<circle cx="376" cy="141" r="7.0" style="fill:gray;stroke:black;stroke-width:1.0"/>
<circle cx="327" cy="136" r="7.0" style="fill:gray;stroke:black;stroke-width:1.0"/>
<circle cx="326" cy="129" r="7.0" style="fill:gray;stroke:black;stroke-width:1.0"/>
<circle cx="288" cy="105" r="7.0" style="fill:gray;stroke:black;stroke-width:1.0"/>
<circle cx="288" cy="101" r="7.0" style="fill:gray;stroke:black;stroke-width:1.0"/>
<circle cx="244" cy="65" r="7.0" style="fill:gray;stroke:black;stroke-width:1.0"/>
<circle cx="250" cy="70" r="7.0" style="fill:gray;stroke:black;stroke-width:1.0"/>
<circle cx="213" cy="37" r="7.0" style="fill:gray;stroke:black;stroke-width:1.0"/>
<circle cx="215" cy="45" r="7.0" style="fill:gray;stroke:black;stroke-width:1.0"/>
<circle cx="170" cy="47" r="7.0" style="fill:gray;stroke:black;stroke-width:1.0"/>
<circle cx="175" cy="54" r="7.0" style="fill:gray;stroke:black;stroke-width:1.0"/>
<circle cx="161" cy="77" r="7.0" style="fill:gray;stroke:black;stroke-width:1.0"/>
<circle cx="165" cy="82" r="7.0" style="fill:gray;stroke:black;stroke-width:1.0"/>
<circle cx="159" cy="117" r="7.0" style="fill:gray;stroke:black;stroke-width:1.0"/>
<circle cx="165" cy="112" r="7.0" style="fill:gray;stroke:black;stroke-width:1.0"/>
<circle cx="174" cy="146" r="7.0" style="fill:gray;stroke:black;stroke-width:1.0"/>
<circle cx="177" cy="138" r="7.0" style="fill:gray;stroke:black;stroke-width:1.0"/>
<circle cx="216" cy="136" r="7.0" style="fill:gray;stroke:black;stroke-width:1.0"/>
<circle cx="217" cy="128" r="7.0" style="fill:gray;stroke:black;stroke-width:1.0"/>
<circle cx="241" cy="103" r="7.0" style="fill:gray;stroke:black;stroke-width:1.0"/>
<circle cx="246" cy="98" r="7.0" style="fill:gray;stroke:black;stroke-width:1.0"/>
<circle cx="281" cy="58" r="7.0" style="fill:gray;stroke:black;stroke-width:1.0"/>
<circle cx="282" cy="64" r="7.0" style="fill:gray;stroke:black;stroke-width:1.0"/>
<circle cx="322" cy="28" r="7.0" style="fill:gray;stroke:black;stroke-width:1.0"/>
<circle cx="322" cy="35" r="7.0" style="fill:gray;stroke:black;stroke-width:1.0"/>
<circle cx="383" cy="20" r="7.0" style="fill:gray;stroke:black;stroke-width:1.0"/>
<circle cx="378" cy="27" r="7.0" style="fill:gray;stroke:black;stroke-width:1.0"/>
<circle cx="420" cy="44" r="7.0" style="fill:gray;stroke:black;stroke-width:1.0"/>
<circle cx="409" cy="50" r="7.0" style="fill:gray;stroke:black;stroke-width:1.0"/>
<circle cx="416" cy="82" r="7.0" style="fill:gray;stroke:black;stroke-width:1.0"/>
<circle cx="401" cy="84" r="7.0" style="fill:gray;stroke:black;stroke-width:1.0"/>
<circle cx="375" cy="122" r="7.0" style="fill:gray;stroke:black;stroke-width:1.0"/>
<circle cx="361" cy="120" r="7.0" style="fill:gray;stroke:black;stroke-width:1.0"/>
<circle cx="298" cy="157" r="7.0" style="fill:gray;stroke:black;stroke-width:1.0"/>
<circle cx="297" cy="150" r="7.0" style="fill:gray;stroke:black;stroke-width:1.0"/>
<circle cx="214" cy="174" r="7.0" style="fill:gray;stroke:black;stroke-width:1.0"/>
<circle cx="219" cy="168" r="7.0" style="fill:gray;stroke:black;stroke-width:1.0"/>
<circle cx="132" cy="176" r="7.0" style="fill:gray;stroke:black;stroke-width:1.0"/>
<circle cx="144" cy="172" r="7.0" style="fill:gray;stroke:black;stroke-width:1.0"/>
<circle cx="71" cy="166" r="7.0" style="fill:gray;stroke:black;stroke-width:1.0"/>
<circle cx="84" cy="165" r="7.0" style="fill:gray;stroke:black;stroke-width:1.0"/>
<circle cx="47" cy="144" r="7.0" style="fill:gray;stroke:black;stroke-width:1.0"/>
<circle cx="52" cy="149" r="7.0" style="fill:gray;stroke:black;stroke-width:1.0"/>
<circle cx="64" cy="143" r="7.0" style="fill:gray;stroke:black;stroke-width:1.0"/>
<circle cx="59" cy="149" r="7.0" style="fill:gray;stroke:black;stroke-width:1.0"/>
<circle cx="29" cy="169" r="7.0" style="fill:gray;stroke:black;stroke-width:1.0"/>
<circle cx="37" cy="171" r="7.0" style="fill:gray;stroke:black;stroke-width:1.0"/>
<circle cx="20" cy="202" r="7.0" style="fill:gray;stroke:black;stroke-width:1.0"/>
<circle cx="24" cy="193" r="7.0" style="fill:gray;stroke:black;stroke-width:1.0"/>
</svg>
