<svg width="440" height="340" xmlns="http://www.w3.org/2000/svg">
<path stroke-width="1" stroke="black" d="M 260 320 260 134"/>
<path stroke-width="1" stroke="black" d="M 385 109 420 158"/>
<path stroke-width="1" stroke="black" d="M 385 109 366 113"/>
<path stroke-width="1" stroke="black" d="M 385 109 400 104"/>
<path stroke-width="1" stroke="black" d="M 385 109 20 20"/>
<path stroke-width="1" stroke="black" d="M 385 109 64 162"/>
<path stroke-width="1" stroke="black" d="M 400 104 260 320"/>
<path stroke-width="1" stroke="black" d="M 400 104 260 134"/>
<path stroke-width="1" stroke="black" d="M 400 104 420 158"/>
<path stroke-width="1" stroke="black" d="M 400 104 366 113"/>
<path stroke-width="1" stroke="black" d="M 400 104 385 109"/>
<path stroke-width="1" stroke="black" d="M 400 104 20 20"/>
<path stroke-width="1" stroke="black" d="M 385 109 260 134"/>
<path stroke-width="1" stroke="black" d="M 400 104 64 162"/>
<path stroke-width="1" stroke="black" d="M 20 20 260 134"/>
<path stroke-width="1" stroke="black" d="M 20 20 420 158"/>
<path stroke-width="1" stroke="black" d="M 20 20 366 113"/>
<path stroke-width="1" stroke="black" d="M 20 20 385 109"/>
<path stroke-width="1" stroke="black" d="M 20 20 400 104"/>
<path stroke-width="1" stroke="black" d="M 20 20 64 162"/>
<path stroke-width="1" stroke="black" d="M 64 162 260 320"/>
<path stroke-width="1" stroke="black" d="M 64 162 260 134"/>
<path stroke-width="1" stroke="black" d="M 64 162 420 158"/>
<path stroke-width="1" stroke="black" d="M 64 162 366 113"/>
<path stroke-width="1" stroke="black" d="M 64 162 385 109"/>
<path stroke-width="1" stroke="black" d="M 20 20 260 320"/>
<path stroke-width="1" stroke="black" d="M 385 109 260 320"/>
<path stroke-width="1" stroke="black" d="M 366 113 64 162"/>
<path stroke-width="1" stroke="black" d="M 366 113 20 20"/>
<path stroke-width="1" stroke="black" d="M 260 320 420 158"/>
<path stroke-width="1" stroke="black" d="M 260 320 366 113"/>
<path stroke-width="1" stroke="black" d="M 260 320 385 109"/>
<path stroke-width="1" stroke="black" d="M 260 320 400 104"/>
<path stroke-width="1" stroke="black" d="M 260 320 20 20"/>
<path stroke-width="1" stroke="black" d="M 260 320 64 162"/>
<path stroke-width="1" stroke="black" d="M 260 134 260 320"/>
<path stroke-width="1" stroke="black" d="M 260 134 420 158"/>
<path stroke-width="1" stroke="black" d="M 260 134 366 113"/>
<path stroke-width="1" stroke="black" d="M 260 134 385 109"/>
<path stroke-width="1" stroke="black" d="M 260 134 400 104"/>
<path stroke-width="1" stroke="black" d="M 260 134 20 20"/>
<path stroke-width="1" stroke="black" d="M 260 134 64 162"/>
<path stroke-width="1" stroke="black" d="M 420 158 260 320"/>
<path stroke-width="1" stroke="black" d="M 420 158 260 134"/>
<path stroke-width="1" stroke="black" d="M 420 158 366 113"/>
<path stroke-width="1" stroke="black" d="M 420 158 385 109"/>
<path stroke-width="1" stroke="black" d="M 420 158 400 104"/>
<path stroke-width="1" stroke="black" d="M 420 158 20 20"/>
<path stroke-width="1" stroke="black" d="M 420 158 64 162"/>
<path stroke-width="1" stroke="black" d="M 366 113 260 320"/>
<path stroke-width="1" stroke="black" d="M 366 113 260 134"/>
<path stroke-width="1" stroke="black" d="M 366 113 420 158"/>
<path stroke-width="1" stroke="black" d="M 366 113 385 109"/>
<path stroke-width="1" stroke="black" d="M 366 113 400 104"/>
<path stroke-width="1" stroke="black" d="M 64 162 400 104"/>
<path stroke-width="1" stroke="black" d="M 64 162 20 20"/>
<circle cx="260" cy="320" r="7.0" style="fill:gray;stroke:black;stroke-width:1.0"/>
<circle cx="260" cy="134" r="7.0" style="fill:gray;stroke:black;stroke-width:1.0"/>
<circle cx="420" cy="158" r="7.0" style="fill:gray;stroke:black;stroke-width:1.0"/>
<circle cx="366" cy="113" r="7.0" style="fill:gray;stroke:black;stroke-width:1.0"/>
<circle cx="385" cy="109" r="7.0" style="fill:gray;stroke:black;stroke-width:1.0"/>
<circle cx="400" cy="104" r="7.0" style="fill:gray;stroke:black;stroke-width:1.0"/>
<circle cx="20" cy="20" r="7.0" style="fill:gray;stroke:black;stroke-width:1.0"/>
<circle cx="64" cy="162" r="7.0" style="fill:gray;stroke:black;stroke-width:1.0"/>
</svg>
