<svg width="440" height="340" xmlns="http://www.w3.org/2000/svg">
<path stroke-width="1.4034749034749034" stroke="black" d="M 364 282 20 52"/>
<path stroke-width="0.5752895752895753" stroke="black" d="M 170 160 177 150"/>
<path stroke-width="0.5" stroke="black" d="M 170 160 158 153"/>
<path stroke-width="5.243243243243243" stroke="black" d="M 170 160 420 320"/>
<path stroke-width="0.5" stroke="black" d="M 170 160 133 295"/>
<path stroke-width="0.7258687258687259" stroke="black" d="M 170 160 227 20"/>
<path stroke-width="1.027027027027027" stroke="black" d="M 420 320 364 282"/>
<path stroke-width="20.0" stroke="black" d="M 420 320 20 52"/>
<path stroke-width="2.9845559845559846" stroke="black" d="M 420 320 177 150"/>
<path stroke-width="10.212355212355213" stroke="black" d="M 420 320 158 153"/>
<path stroke-width="5.243243243243243" stroke="black" d="M 420 320 170 160"/>
<path stroke-width="1.6293436293436294" stroke="black" d="M 420 320 133 295"/>
<path stroke-width="2.306949806949807" stroke="black" d="M 170 160 20 52"/>
<path stroke-width="0.7258687258687259" stroke="black" d="M 420 320 227 20"/>
<path stroke-width="1.1776061776061777" stroke="black" d="M 133 295 20 52"/>
<path stroke-width="0.5" stroke="black" d="M 133 295 177 150"/>
<path stroke-width="0.5752895752895753" stroke="black" d="M 133 295 158 153"/>
<path stroke-width="0.5" stroke="black" d="M 133 295 170 160"/>
<path stroke-width="1.6293436293436294" stroke="black" d="M 133 295 420 320"/>
<path stroke-width="0.5" stroke="black" d="M 133 295 227 20"/>
<path stroke-width="0.5752895752895753" stroke="black" d="M 227 20 364 282"/>
<path stroke-width="1.77992277992278" stroke="black" d="M 227 20 20 52"/>
<path stroke-width="0.5752895752895753" stroke="black" d="M 227 20 177 150"/>
<path stroke-width="1.027027027027027" stroke="black" d="M 227 20 158 153"/>
<path stroke-width="0.7258687258687259" stroke="black" d="M 227 20 170 160"/>
<path stroke-width="0.5752895752895753" stroke="black" d="M 133 295 364 282"/>
<path stroke-width="0.5752895752895753" stroke="black" d="M 170 160 364 282"/>
<path stroke-width="1.027027027027027" stroke="black" d="M 158 153 227 20"/>
<path stroke-width="0.5752895752895753" stroke="black" d="M 158 153 133 295"/>
<path stroke-width="0.6505791505791506" stroke="black" d="M 364 282 177 150"/>
<path stroke-width="0.7258687258687259" stroke="black" d="M 364 282 158 153"/>
<path stroke-width="0.5752895752895753" stroke="black" d="M 364 282 170 160"/>
<path stroke-width="1.027027027027027" stroke="black" d="M 364 282 420 320"/>
<path stroke-width="0.5752895752895753" stroke="black" d="M 364 282 133 295"/>
<path stroke-width="0.5752895752895753" stroke="black" d="M 364 282 227 20"/>
<path stroke-width="1.4034749034749034" stroke="black" d="M 20 52 364 282"/>
<path stroke-width="1.4787644787644787" stroke="black" d="M 20 52 177 150"/>
<path stroke-width="4.113899613899614" stroke="black" d="M 20 52 158 153"/>
<path stroke-width="2.306949806949807" stroke="black" d="M 20 52 170 160"/>
<path stroke-width="20.0" stroke="black" d="M 20 52 420 320"/>
<path stroke-width="1.1776061776061777" stroke="black" d="M 20 52 133 295"/>
<path stroke-width="1.77992277992278" stroke="black" d="M 20 52 227 20"/>
<path stroke-width="0.6505791505791506" stroke="black" d="M 177 150 364 282"/>
<path stroke-width="1.4787644787644787" stroke="black" d="M 177 150 20 52"/>
<path stroke-width="0.5" stroke="black" d="M 177 150 158 153"/>
<path stroke-width="0.5752895752895753" stroke="black" d="M 177 150 170 160"/>
<path stroke-width="2.9845559845559846" stroke="black" d="M 177 150 420 320"/>
<path stroke-width="0.5" stroke="black" d="M 177 150 133 295"/>
<path stroke-width="0.5752895752895753" stroke="black" d="M 177 150 227 20"/>
<path stroke-width="0.7258687258687259" stroke="black" d="M 158 153 364 282"/>
<path stroke-width="4.113899613899614" stroke="black" d="M 158 153 20 52"/>
<path stroke-width="0.5" stroke="black" d="M 158 153 177 150"/>
<path stroke-width="0.5" stroke="black" d="M 158 153 170 160"/>
<path stroke-width="10.212355212355213" stroke="black" d="M 158 153 420 320"/>
<path stroke-width="0.7258687258687259" stroke="black" d="M 227 20 420 320"/>
<path stroke-width="0.5" stroke="black" d="M 227 20 133 295"/>
<circle cx="364" cy="282" r="20.0" style="fill:gray;stroke:black;stroke-width:1.0"/>
<circle cx="20" cy="52" r="20.0" style="fill:gray;stroke:black;stroke-width:1.0"/>
<circle cx="177" cy="150" r="20.0" style="fill:gray;stroke:black;stroke-width:1.0"/>
<circle cx="158" cy="153" r="20.0" style="fill:gray;stroke:black;stroke-width:1.0"/>
<circle cx="170" cy="160" r="20.0" style="fill:gray;stroke:black;stroke-width:1.0"/>
<circle cx="420" cy="320" r="20.0" style="fill:gray;stroke:black;stroke-width:1.0"/>
<circle cx="133" cy="295" r="20.0" style="fill:gray;stroke:black;stroke-width:1.0"/>
<circle cx="227" cy="20" r="20.0" style="fill:gray;stroke:black;stroke-width:1.0"/>
</svg>
