<svg width="440" height="340" xmlns="http://www.w3.org/2000/svg">
<path stroke-width="1" stroke="black" d="M 108 20 115 22"/>
<path stroke-width="1" stroke="black" d="M 183 136 250 138"/>
<path stroke-width="1" stroke="black" d="M 176 140 183 136"/>
<path stroke-width="1" stroke="black" d="M 250 138 183 136"/>
<path stroke-width="1" stroke="black" d="M 250 138 252 142"/>
<path stroke-width="1" stroke="black" d="M 250 138 315 140"/>
<path stroke-width="1" stroke="black" d="M 252 142 250 138"/>
<path stroke-width="1" stroke="black" d="M 315 140 250 138"/>
<path stroke-width="1" stroke="black" d="M 315 140 323 137"/>
<path stroke-width="1" stroke="black" d="M 315 140 372 149"/>
<path stroke-width="1" stroke="black" d="M 323 137 315 140"/>
<path stroke-width="1" stroke="black" d="M 372 149 315 140"/>
<path stroke-width="1" stroke="black" d="M 372 149 381 143"/>
<path stroke-width="1" stroke="black" d="M 183 136 176 140"/>
<path stroke-width="1" stroke="black" d="M 372 149 409 177"/>
<path stroke-width="1" stroke="black" d="M 409 177 372 149"/>
<path stroke-width="1" stroke="black" d="M 409 177 420 174"/>
<path stroke-width="1" stroke="black" d="M 409 177 405 225"/>
<path stroke-width="1" stroke="black" d="M 420 174 409 177"/>
<path stroke-width="1" stroke="black" d="M 405 225 409 177"/>
<path stroke-width="1" stroke="black" d="M 405 225 415 224"/>
<path stroke-width="1" stroke="black" d="M 405 225 376 264"/>
<path stroke-width="1" stroke="black" d="M 415 224 405 225"/>
<path stroke-width="1" stroke="black" d="M 376 264 405 225"/>
<path stroke-width="1" stroke="black" d="M 376 264 382 271"/>
<path stroke-width="1" stroke="black" d="M 376 264 334 297"/>
<path stroke-width="1" stroke="black" d="M 382 271 376 264"/>
<path stroke-width="1" stroke="black" d="M 381 143 372 149"/>
<path stroke-width="1" stroke="black" d="M 183 136 120 129"/>
<path stroke-width="1" stroke="black" d="M 112 127 120 129"/>
<path stroke-width="1" stroke="black" d="M 120 129 183 136"/>
<path stroke-width="1" stroke="black" d="M 266 193 256 190"/>
<path stroke-width="1" stroke="black" d="M 222 179 256 190"/>
<path stroke-width="1" stroke="black" d="M 222 179 233 181"/>
<path stroke-width="1" stroke="black" d="M 222 179 172 167"/>
<path stroke-width="1" stroke="black" d="M 233 181 222 179"/>
<path stroke-width="1" stroke="black" d="M 172 167 222 179"/>
<path stroke-width="1" stroke="black" d="M 172 167 180 167"/>
<path stroke-width="1" stroke="black" d="M 172 167 116 155"/>
<path stroke-width="1" stroke="black" d="M 180 167 172 167"/>
<path stroke-width="1" stroke="black" d="M 116 155 172 167"/>
<path stroke-width="1" stroke="black" d="M 116 155 109 156"/>
<path stroke-width="1" stroke="black" d="M 116 155 64 142"/>
<path stroke-width="1" stroke="black" d="M 109 156 116 155"/>
<path stroke-width="1" stroke="black" d="M 64 142 116 155"/>
<path stroke-width="1" stroke="black" d="M 64 142 54 141"/>
<path stroke-width="1" stroke="black" d="M 64 142 32 126"/>
<path stroke-width="1" stroke="black" d="M 54 141 64 142"/>
<path stroke-width="1" stroke="black" d="M 32 126 64 142"/>
<path stroke-width="1" stroke="black" d="M 32 126 20 123"/>
<path stroke-width="1" stroke="black" d="M 32 126 66 123"/>
<path stroke-width="1" stroke="black" d="M 20 123 32 126"/>
<path stroke-width="1" stroke="black" d="M 66 123 32 126"/>
<path stroke-width="1" stroke="black" d="M 66 123 55 120"/>
<path stroke-width="1" stroke="black" d="M 66 123 120 129"/>
<path stroke-width="1" stroke="black" d="M 55 120 66 123"/>
<path stroke-width="1" stroke="black" d="M 120 129 66 123"/>
<path stroke-width="1" stroke="black" d="M 120 129 112 127"/>
<path stroke-width="1" stroke="black" d="M 334 297 376 264"/>
<path stroke-width="1" stroke="black" d="M 334 297 336 303"/>
<path stroke-width="1" stroke="black" d="M 334 297 287 312"/>
<path stroke-width="1" stroke="black" d="M 336 303 334 297"/>
<path stroke-width="1" stroke="black" d="M 271 212 266 205"/>
<path stroke-width="1" stroke="black" d="M 230 167 266 205"/>
<path stroke-width="1" stroke="black" d="M 230 167 229 172"/>
<path stroke-width="1" stroke="black" d="M 230 167 195 128"/>
<path stroke-width="1" stroke="black" d="M 229 172 230 167"/>
<path stroke-width="1" stroke="black" d="M 195 128 230 167"/>
<path stroke-width="1" stroke="black" d="M 195 128 194 121"/>
<path stroke-width="1" stroke="black" d="M 195 128 158 97"/>
<path stroke-width="1" stroke="black" d="M 194 121 195 128"/>
<path stroke-width="1" stroke="black" d="M 158 97 195 128"/>
<path stroke-width="1" stroke="black" d="M 158 97 153 90"/>
<path stroke-width="1" stroke="black" d="M 158 97 125 76"/>
<path stroke-width="1" stroke="black" d="M 153 90 158 97"/>
<path stroke-width="1" stroke="black" d="M 125 76 158 97"/>
<path stroke-width="1" stroke="black" d="M 125 76 116 76"/>
<path stroke-width="1" stroke="black" d="M 125 76 118 51"/>
<path stroke-width="1" stroke="black" d="M 116 76 125 76"/>
<path stroke-width="1" stroke="black" d="M 118 51 125 76"/>
<path stroke-width="1" stroke="black" d="M 118 51 111 48"/>
<path stroke-width="1" stroke="black" d="M 118 51 130 31"/>
<path stroke-width="1" stroke="black" d="M 111 48 118 51"/>
<path stroke-width="1" stroke="black" d="M 130 31 118 51"/>
<path stroke-width="1" stroke="black" d="M 130 31 137 27"/>
<path stroke-width="1" stroke="black" d="M 130 31 115 22"/>
<path stroke-width="1" stroke="black" d="M 137 27 130 31"/>
<path stroke-width="1" stroke="black" d="M 115 22 130 31"/>
<path stroke-width="1" stroke="black" d="M 115 22 108 20"/>
<path stroke-width="1" stroke="black" d="M 266 205 230 167"/>
<path stroke-width="1" stroke="black" d="M 256 190 222 179"/>
<path stroke-width="1" stroke="black" d="M 266 205 271 212"/>
<path stroke-width="1" stroke="black" d="M 307 236 299 235"/>
<path stroke-width="1" stroke="black" d="M 287 312 334 297"/>
<path stroke-width="1" stroke="black" d="M 287 312 283 320"/>
<path stroke-width="1" stroke="black" d="M 287 312 243 313"/>
<path stroke-width="1" stroke="black" d="M 283 320 287 312"/>
<path stroke-width="1" stroke="black" d="M 243 313 287 312"/>
<path stroke-width="1" stroke="black" d="M 243 313 234 313"/>
<path stroke-width="1" stroke="black" d="M 243 313 221 310"/>
<path stroke-width="1" stroke="black" d="M 234 313 243 313"/>
<path stroke-width="1" stroke="black" d="M 221 310 243 313"/>
<path stroke-width="1" stroke="black" d="M 221 310 210 311"/>
<path stroke-width="1" stroke="black" d="M 221 310 255 304"/>
<path stroke-width="1" stroke="black" d="M 210 311 221 310"/>
<path stroke-width="1" stroke="black" d="M 255 304 221 310"/>
<path stroke-width="1" stroke="black" d="M 255 304 250 309"/>
<path stroke-width="1" stroke="black" d="M 255 304 292 290"/>
<path stroke-width="1" stroke="black" d="M 250 309 255 304"/>
<path stroke-width="1" stroke="black" d="M 292 290 255 304"/>
<path stroke-width="1" stroke="black" d="M 292 290 299 294"/>
<path stroke-width="1" stroke="black" d="M 292 290 316 265"/>
<path stroke-width="1" stroke="black" d="M 299 294 292 290"/>
<path stroke-width="1" stroke="black" d="M 316 265 292 290"/>
<path stroke-width="1" stroke="black" d="M 316 265 326 265"/>
<path stroke-width="1" stroke="black" d="M 316 265 299 235"/>
<path stroke-width="1" stroke="black" d="M 326 265 316 265"/>
<path stroke-width="1" stroke="black" d="M 299 235 316 265"/>
<path stroke-width="1" stroke="black" d="M 299 235 307 236"/>
<path stroke-width="1" stroke="black" d="M 299 235 266 205"/>
<path stroke-width="1" stroke="black" d="M 266 205 299 235"/>
<path stroke-width="1" stroke="black" d="M 256 190 266 193"/>
<circle cx="108" cy="20" r="7.0" style="fill:blue;stroke:black;stroke-width:1.0"/>
<circle cx="115" cy="22" r="7.0" style="fill:blue;stroke:black;stroke-width:1.0"/>
<circle cx="137" cy="27" r="7.0" style="fill:blue;stroke:black;stroke-width:1.0"/>
<circle cx="130" cy="31" r="7.0" style="fill:blue;stroke:black;stroke-width:1.0"/>
<circle cx="111" cy="48" r="7.0" style="fill:blue;stroke:black;stroke-width:1.0"/>
<circle cx="118" cy="51" r="7.0" style="fill:blue;stroke:black;stroke-width:1.0"/>
<circle cx="116" cy="76" r="7.0" style="fill:red;stroke:black;stroke-width:1.0"/>
<circle cx="125" cy="76" r="7.0" style="fill:red;stroke:black;stroke-width:1.0"/>
<circle cx="153" cy="90" r="7.0" style="fill:red;stroke:black;stroke-width:1.0"/>
<circle cx="158" cy="97" r="7.0" style="fill:red;stroke:black;stroke-width:1.0"/>
<circle cx="194" cy="121" r="7.0" style="fill:green;stroke:black;stroke-width:1.0"/>
<circle cx="195" cy="128" r="7.0" style="fill:green;stroke:black;stroke-width:1.0"/>
<circle cx="229" cy="172" r="7.0" style="fill:green;stroke:black;stroke-width:1.0"/>
<circle cx="230" cy="167" r="7.0" style="fill:green;stroke:black;stroke-width:1.0"/>
<circle cx="271" cy="212" r="7.0" style="fill:orange;stroke:black;stroke-width:1.0"/>
<circle cx="266" cy="205" r="7.0" style="fill:orange;stroke:black;stroke-width:1.0"/>
<circle cx="307" cy="236" r="7.0" style="fill:orange;stroke:black;stroke-width:1.0"/>
<circle cx="299" cy="235" r="7.0" style="fill:orange;stroke:black;stroke-width:1.0"/>
<circle cx="326" cy="265" r="7.0" style="fill:purple;stroke:black;stroke-width:1.0"/>
<circle cx="316" cy="265" r="7.0" style="fill:purple;stroke:black;stroke-width:1.0"/>
<circle cx="299" cy="294" r="7.0" style="fill:purple;stroke:black;stroke-width:1.0"/>
<circle cx="292" cy="290" r="7.0" style="fill:purple;stroke:black;stroke-width:1.0"/>
<circle cx="250" cy="309" r="7.0" style="fill:yellow;stroke:black;stroke-width:1.0"/>
<circle cx="255" cy="304" r="7.0" style="fill:yellow;stroke:black;stroke-width:1.0"/>
<circle cx="210" cy="311" r="7.0" style="fill:yellow;stroke:black;stroke-width:1.0"/>
<circle cx="221" cy="310" r="7.0" style="fill:yellow;stroke:black;stroke-width:1.0"/>
<circle cx="234" cy="313" r="7.0" style="fill:fuchsia;stroke:black;stroke-width:1.0"/>
<circle cx="243" cy="313" r="7.0" style="fill:fuchsia;stroke:black;stroke-width:1.0"/>
<circle cx="283" cy="320" r="7.0" style="fill:fuchsia;stroke:black;stroke-width:1.0"/>
<circle cx="287" cy="312" r="7.0" style="fill:fuchsia;stroke:black;stroke-width:1.0"/>
<circle cx="336" cy="303" r="7.0" style="fill:olive;stroke:black;stroke-width:1.0"/>
<circle cx="334" cy="297" r="7.0" style="fill:olive;stroke:black;stroke-width:1.0"/>
<circle cx="382" cy="271" r="7.0" style="fill:olive;stroke:black;stroke-width:1.0"/>
<circle cx="376" cy="264" r="7.0" style="fill:olive;stroke:black;stroke-width:1.0"/>
<circle cx="415" cy="224" r="7.0" style="fill:aqua;stroke:black;stroke-width:1.0"/>
<circle cx="405" cy="225" r="7.0" style="fill:aqua;stroke:black;stroke-width:1.0"/>
<circle cx="420" cy="174" r="7.0" style="fill:aqua;stroke:black;stroke-width:1.0"/>
<circle cx="409" cy="177" r="7.0" style="fill:aqua;stroke:black;stroke-width:1.0"/>
<circle cx="381" cy="143" r="7.0" style="fill:brown;stroke:black;stroke-width:1.0"/>
<circle cx="372" cy="149" r="7.0" style="fill:brown;stroke:black;stroke-width:1.0"/>
<circle cx="323" cy="137" r="7.0" style="fill:brown;stroke:black;stroke-width:1.0"/>
<circle cx="315" cy="140" r="7.0" style="fill:brown;stroke:black;stroke-width:1.0"/>
<circle cx="252" cy="142" r="7.0" style="fill:blue;stroke:black;stroke-width:1.0"/>
<circle cx="250" cy="138" r="7.0" style="fill:blue;stroke:black;stroke-width:1.0"/>
<circle cx="176" cy="140" r="7.0" style="fill:blue;stroke:black;stroke-width:1.0"/>
<circle cx="183" cy="136" r="7.0" style="fill:blue;stroke:black;stroke-width:1.0"/>
<circle cx="112" cy="127" r="7.0" style="fill:red;stroke:black;stroke-width:1.0"/>
<circle cx="120" cy="129" r="7.0" style="fill:red;stroke:black;stroke-width:1.0"/>
<circle cx="55" cy="120" r="7.0" style="fill:red;stroke:black;stroke-width:1.0"/>
<circle cx="66" cy="123" r="7.0" style="fill:red;stroke:black;stroke-width:1.0"/>
<circle cx="20" cy="123" r="7.0" style="fill:green;stroke:black;stroke-width:1.0"/>
<circle cx="32" cy="126" r="7.0" style="fill:green;stroke:black;stroke-width:1.0"/>
<circle cx="54" cy="141" r="7.0" style="fill:green;stroke:black;stroke-width:1.0"/>
<circle cx="64" cy="142" r="7.0" style="fill:green;stroke:black;stroke-width:1.0"/>
<circle cx="109" cy="156" r="7.0" style="fill:orange;stroke:black;stroke-width:1.0"/>
<circle cx="116" cy="155" r="7.0" style="fill:orange;stroke:black;stroke-width:1.0"/>
<circle cx="180" cy="167" r="7.0" style="fill:orange;stroke:black;stroke-width:1.0"/>
<circle cx="172" cy="167" r="7.0" style="fill:orange;stroke:black;stroke-width:1.0"/>
<circle cx="233" cy="181" r="7.0" style="fill:purple;stroke:black;stroke-width:1.0"/>
<circle cx="222" cy="179" r="7.0" style="fill:purple;stroke:black;stroke-width:1.0"/>
<circle cx="266" cy="193" r="7.0" style="fill:purple;stroke:black;stroke-width:1.0"/>
<circle cx="256" cy="190" r="7.0" style="fill:purple;stroke:black;stroke-width:1.0"/>
</svg>
