<svg width="440" height="340" xmlns="http://www.w3.org/2000/svg">
<path stroke-width="1" stroke="black" d="M 304 20 297 31"/>
<path stroke-width="1" stroke="black" d="M 284 114 330 89"/>
<path stroke-width="1" stroke="black" d="M 276 112 284 114"/>
<path stroke-width="1" stroke="black" d="M 330 89 284 114"/>
<path stroke-width="1" stroke="black" d="M 330 89 333 81"/>
<path stroke-width="1" stroke="black" d="M 330 89 376 83"/>
<path stroke-width="1" stroke="black" d="M 333 81 330 89"/>
<path stroke-width="1" stroke="black" d="M 376 83 330 89"/>
<path stroke-width="1" stroke="black" d="M 376 83 381 73"/>
<path stroke-width="1" stroke="black" d="M 376 83 405 115"/>
<path stroke-width="1" stroke="black" d="M 381 73 376 83"/>
<path stroke-width="1" stroke="black" d="M 405 115 376 83"/>
<path stroke-width="1" stroke="black" d="M 405 115 414 108"/>
<path stroke-width="1" stroke="black" d="M 284 114 276 112"/>
<path stroke-width="1" stroke="black" d="M 405 115 409 161"/>
<path stroke-width="1" stroke="black" d="M 409 161 405 115"/>
<path stroke-width="1" stroke="black" d="M 409 161 416 164"/>
<path stroke-width="1" stroke="black" d="M 409 161 397 203"/>
<path stroke-width="1" stroke="black" d="M 416 164 409 161"/>
<path stroke-width="1" stroke="black" d="M 397 203 409 161"/>
<path stroke-width="1" stroke="black" d="M 397 203 396 212"/>
<path stroke-width="1" stroke="black" d="M 397 203 385 233"/>
<path stroke-width="1" stroke="black" d="M 396 212 397 203"/>
<path stroke-width="1" stroke="black" d="M 385 233 397 203"/>
<path stroke-width="1" stroke="black" d="M 385 233 379 240"/>
<path stroke-width="1" stroke="black" d="M 385 233 407 232"/>
<path stroke-width="1" stroke="black" d="M 379 240 385 233"/>
<path stroke-width="1" stroke="black" d="M 414 108 405 115"/>
<path stroke-width="1" stroke="black" d="M 284 114 248 148"/>
<path stroke-width="1" stroke="black" d="M 239 150 248 148"/>
<path stroke-width="1" stroke="black" d="M 248 148 284 114"/>
<path stroke-width="1" stroke="black" d="M 175 68 171 78"/>
<path stroke-width="1" stroke="black" d="M 159 109 171 78"/>
<path stroke-width="1" stroke="black" d="M 159 109 152 105"/>
<path stroke-width="1" stroke="black" d="M 159 109 165 147"/>
<path stroke-width="1" stroke="black" d="M 152 105 159 109"/>
<path stroke-width="1" stroke="black" d="M 165 147 159 109"/>
<path stroke-width="1" stroke="black" d="M 165 147 159 150"/>
<path stroke-width="1" stroke="black" d="M 165 147 179 182"/>
<path stroke-width="1" stroke="black" d="M 159 150 165 147"/>
<path stroke-width="1" stroke="black" d="M 179 182 165 147"/>
<path stroke-width="1" stroke="black" d="M 179 182 184 186"/>
<path stroke-width="1" stroke="black" d="M 179 182 193 212"/>
<path stroke-width="1" stroke="black" d="M 184 186 179 182"/>
<path stroke-width="1" stroke="black" d="M 193 212 179 182"/>
<path stroke-width="1" stroke="black" d="M 193 212 190 220"/>
<path stroke-width="1" stroke="black" d="M 193 212 220 214"/>
<path stroke-width="1" stroke="black" d="M 190 220 193 212"/>
<path stroke-width="1" stroke="black" d="M 220 214 193 212"/>
<path stroke-width="1" stroke="black" d="M 220 214 224 222"/>
<path stroke-width="1" stroke="black" d="M 220 214 229 183"/>
<path stroke-width="1" stroke="black" d="M 224 222 220 214"/>
<path stroke-width="1" stroke="black" d="M 229 183 220 214"/>
<path stroke-width="1" stroke="black" d="M 229 183 222 187"/>
<path stroke-width="1" stroke="black" d="M 229 183 248 148"/>
<path stroke-width="1" stroke="black" d="M 222 187 229 183"/>
<path stroke-width="1" stroke="black" d="M 248 148 229 183"/>
<path stroke-width="1" stroke="black" d="M 248 148 239 150"/>
<path stroke-width="1" stroke="black" d="M 407 232 385 233"/>
<path stroke-width="1" stroke="black" d="M 407 232 414 233"/>
<path stroke-width="1" stroke="black" d="M 407 232 409 225"/>
<path stroke-width="1" stroke="black" d="M 414 233 407 232"/>
<path stroke-width="1" stroke="black" d="M 41 186 44 192"/>
<path stroke-width="1" stroke="black" d="M 29 139 44 192"/>
<path stroke-width="1" stroke="black" d="M 29 139 20 134"/>
<path stroke-width="1" stroke="black" d="M 29 139 48 99"/>
<path stroke-width="1" stroke="black" d="M 20 134 29 139"/>
<path stroke-width="1" stroke="black" d="M 48 99 29 139"/>
<path stroke-width="1" stroke="black" d="M 48 99 37 94"/>
<path stroke-width="1" stroke="black" d="M 48 99 95 81"/>
<path stroke-width="1" stroke="black" d="M 37 94 48 99"/>
<path stroke-width="1" stroke="black" d="M 95 81 48 99"/>
<path stroke-width="1" stroke="black" d="M 95 81 87 77"/>
<path stroke-width="1" stroke="black" d="M 95 81 158 77"/>
<path stroke-width="1" stroke="black" d="M 87 77 95 81"/>
<path stroke-width="1" stroke="black" d="M 158 77 95 81"/>
<path stroke-width="1" stroke="black" d="M 158 77 157 81"/>
<path stroke-width="1" stroke="black" d="M 158 77 220 72"/>
<path stroke-width="1" stroke="black" d="M 157 81 158 77"/>
<path stroke-width="1" stroke="black" d="M 220 72 158 77"/>
<path stroke-width="1" stroke="black" d="M 220 72 229 77"/>
<path stroke-width="1" stroke="black" d="M 220 72 273 57"/>
<path stroke-width="1" stroke="black" d="M 229 77 220 72"/>
<path stroke-width="1" stroke="black" d="M 273 57 220 72"/>
<path stroke-width="1" stroke="black" d="M 273 57 284 58"/>
<path stroke-width="1" stroke="black" d="M 273 57 297 31"/>
<path stroke-width="1" stroke="black" d="M 284 58 273 57"/>
<path stroke-width="1" stroke="black" d="M 297 31 273 57"/>
<path stroke-width="1" stroke="black" d="M 297 31 304 20"/>
<path stroke-width="1" stroke="black" d="M 44 192 29 139"/>
<path stroke-width="1" stroke="black" d="M 171 78 159 109"/>
<path stroke-width="1" stroke="black" d="M 44 192 41 186"/>
<path stroke-width="1" stroke="black" d="M 62 252 68 245"/>
<path stroke-width="1" stroke="black" d="M 409 225 407 232"/>
<path stroke-width="1" stroke="black" d="M 409 225 420 217"/>
<path stroke-width="1" stroke="black" d="M 409 225 369 254"/>
<path stroke-width="1" stroke="black" d="M 420 217 409 225"/>
<path stroke-width="1" stroke="black" d="M 369 254 409 225"/>
<path stroke-width="1" stroke="black" d="M 369 254 381 252"/>
<path stroke-width="1" stroke="black" d="M 369 254 311 281"/>
<path stroke-width="1" stroke="black" d="M 381 252 369 254"/>
<path stroke-width="1" stroke="black" d="M 311 281 369 254"/>
<path stroke-width="1" stroke="black" d="M 311 281 320 281"/>
<path stroke-width="1" stroke="black" d="M 311 281 243 303"/>
<path stroke-width="1" stroke="black" d="M 320 281 311 281"/>
<path stroke-width="1" stroke="black" d="M 243 303 311 281"/>
<path stroke-width="1" stroke="black" d="M 243 303 245 312"/>
<path stroke-width="1" stroke="black" d="M 243 303 172 309"/>
<path stroke-width="1" stroke="black" d="M 245 312 243 303"/>
<path stroke-width="1" stroke="black" d="M 172 309 243 303"/>
<path stroke-width="1" stroke="black" d="M 172 309 166 320"/>
<path stroke-width="1" stroke="black" d="M 172 309 109 291"/>
<path stroke-width="1" stroke="black" d="M 166 320 172 309"/>
<path stroke-width="1" stroke="black" d="M 109 291 172 309"/>
<path stroke-width="1" stroke="black" d="M 109 291 100 299"/>
<path stroke-width="1" stroke="black" d="M 109 291 68 245"/>
<path stroke-width="1" stroke="black" d="M 100 299 109 291"/>
<path stroke-width="1" stroke="black" d="M 68 245 109 291"/>
<path stroke-width="1" stroke="black" d="M 68 245 62 252"/>
<path stroke-width="1" stroke="black" d="M 68 245 44 192"/>
<path stroke-width="1" stroke="black" d="M 44 192 68 245"/>
<path stroke-width="1" stroke="black" d="M 171 78 175 68"/>
<circle cx="304" cy="20" r="20.0" style="fill:blue;stroke:black;stroke-width:1.0"/>
<circle cx="297" cy="31" r="20.0" style="fill:blue;stroke:black;stroke-width:1.0"/>
<circle cx="284" cy="58" r="20.0" style="fill:blue;stroke:black;stroke-width:1.0"/>
<circle cx="273" cy="57" r="20.0" style="fill:blue;stroke:black;stroke-width:1.0"/>
<circle cx="229" cy="77" r="20.0" style="fill:blue;stroke:black;stroke-width:1.0"/>
<circle cx="220" cy="72" r="20.0" style="fill:blue;stroke:black;stroke-width:1.0"/>
<circle cx="157" cy="81" r="20.0" style="fill:red;stroke:black;stroke-width:1.0"/>
<circle cx="158" cy="77" r="20.0" style="fill:red;stroke:black;stroke-width:1.0"/>
<circle cx="87" cy="77" r="20.0" style="fill:red;stroke:black;stroke-width:1.0"/>
<circle cx="95" cy="81" r="20.0" style="fill:red;stroke:black;stroke-width:1.0"/>
<circle cx="37" cy="94" r="20.0" style="fill:green;stroke:black;stroke-width:1.0"/>
<circle cx="48" cy="99" r="20.0" style="fill:green;stroke:black;stroke-width:1.0"/>
<circle cx="20" cy="134" r="20.0" style="fill:green;stroke:black;stroke-width:1.0"/>
<circle cx="29" cy="139" r="20.0" style="fill:green;stroke:black;stroke-width:1.0"/>
<circle cx="41" cy="186" r="20.0" style="fill:orange;stroke:black;stroke-width:1.0"/>
<circle cx="44" cy="192" r="20.0" style="fill:orange;stroke:black;stroke-width:1.0"/>
<circle cx="62" cy="252" r="20.0" style="fill:orange;stroke:black;stroke-width:1.0"/>
<circle cx="68" cy="245" r="20.0" style="fill:orange;stroke:black;stroke-width:1.0"/>
<circle cx="100" cy="299" r="20.0" style="fill:purple;stroke:black;stroke-width:1.0"/>
<circle cx="109" cy="291" r="20.0" style="fill:purple;stroke:black;stroke-width:1.0"/>
<circle cx="166" cy="320" r="20.0" style="fill:purple;stroke:black;stroke-width:1.0"/>
<circle cx="172" cy="309" r="20.0" style="fill:purple;stroke:black;stroke-width:1.0"/>
<circle cx="245" cy="312" r="20.0" style="fill:yellow;stroke:black;stroke-width:1.0"/>
<circle cx="243" cy="303" r="20.0" style="fill:yellow;stroke:black;stroke-width:1.0"/>
<circle cx="320" cy="281" r="20.0" style="fill:yellow;stroke:black;stroke-width:1.0"/>
<circle cx="311" cy="281" r="20.0" style="fill:yellow;stroke:black;stroke-width:1.0"/>
<circle cx="381" cy="252" r="20.0" style="fill:fuchsia;stroke:black;stroke-width:1.0"/>
<circle cx="369" cy="254" r="20.0" style="fill:fuchsia;stroke:black;stroke-width:1.0"/>
<circle cx="420" cy="217" r="20.0" style="fill:fuchsia;stroke:black;stroke-width:1.0"/>
<circle cx="409" cy="225" r="20.0" style="fill:fuchsia;stroke:black;stroke-width:1.0"/>
<circle cx="414" cy="233" r="20.0" style="fill:olive;stroke:black;stroke-width:1.0"/>
<circle cx="407" cy="232" r="20.0" style="fill:olive;stroke:black;stroke-width:1.0"/>
<circle cx="379" cy="240" r="20.0" style="fill:olive;stroke:black;stroke-width:1.0"/>
<circle cx="385" cy="233" r="20.0" style="fill:olive;stroke:black;stroke-width:1.0"/>
<circle cx="396" cy="212" r="20.0" style="fill:aqua;stroke:black;stroke-width:1.0"/>
<circle cx="397" cy="203" r="20.0" style="fill:aqua;stroke:black;stroke-width:1.0"/>
<circle cx="416" cy="164" r="20.0" style="fill:aqua;stroke:black;stroke-width:1.0"/>
<circle cx="409" cy="161" r="20.0" style="fill:aqua;stroke:black;stroke-width:1.0"/>
<circle cx="414" cy="108" r="20.0" style="fill:brown;stroke:black;stroke-width:1.0"/>
<circle cx="405" cy="115" r="20.0" style="fill:brown;stroke:black;stroke-width:1.0"/>
<circle cx="381" cy="73" r="20.0" style="fill:brown;stroke:black;stroke-width:1.0"/>
<circle cx="376" cy="83" r="20.0" style="fill:brown;stroke:black;stroke-width:1.0"/>
<circle cx="333" cy="81" r="20.0" style="fill:blue;stroke:black;stroke-width:1.0"/>
<circle cx="330" cy="89" r="20.0" style="fill:blue;stroke:black;stroke-width:1.0"/>
<circle cx="276" cy="112" r="20.0" style="fill:blue;stroke:black;stroke-width:1.0"/>
<circle cx="284" cy="114" r="20.0" style="fill:blue;stroke:black;stroke-width:1.0"/>
<circle cx="239" cy="150" r="20.0" style="fill:red;stroke:black;stroke-width:1.0"/>
<circle cx="248" cy="148" r="20.0" style="fill:red;stroke:black;stroke-width:1.0"/>
<circle cx="222" cy="187" r="20.0" style="fill:red;stroke:black;stroke-width:1.0"/>
<circle cx="229" cy="183" r="20.0" style="fill:red;stroke:black;stroke-width:1.0"/>
<circle cx="224" cy="222" r="20.0" style="fill:green;stroke:black;stroke-width:1.0"/>
<circle cx="220" cy="214" r="20.0" style="fill:green;stroke:black;stroke-width:1.0"/>
<circle cx="190" cy="220" r="20.0" style="fill:green;stroke:black;stroke-width:1.0"/>
<circle cx="193" cy="212" r="20.0" style="fill:green;stroke:black;stroke-width:1.0"/>
<circle cx="184" cy="186" r="20.0" style="fill:orange;stroke:black;stroke-width:1.0"/>
<circle cx="179" cy="182" r="20.0" style="fill:orange;stroke:black;stroke-width:1.0"/>
<circle cx="159" cy="150" r="20.0" style="fill:orange;stroke:black;stroke-width:1.0"/>
<circle cx="165" cy="147" r="20.0" style="fill:orange;stroke:black;stroke-width:1.0"/>
<circle cx="152" cy="105" r="20.0" style="fill:purple;stroke:black;stroke-width:1.0"/>
<circle cx="159" cy="109" r="20.0" style="fill:purple;stroke:black;stroke-width:1.0"/>
<circle cx="175" cy="68" r="20.0" style="fill:purple;stroke:black;stroke-width:1.0"/>
<circle cx="171" cy="78" r="20.0" style="fill:purple;stroke:black;stroke-width:1.0"/>
</svg>
