<svg width="440" height="340" xmlns="http://www.w3.org/2000/svg">
<path stroke-width="8.857142857142858" stroke="black" d="M 420 184 402 181"/>
<path stroke-width="0.5" stroke="black" d="M 189 96 203 130"/>
<path stroke-width="20.0" stroke="black" d="M 201 95 189 96"/>
<path stroke-width="0.5" stroke="black" d="M 203 130 189 96"/>
<path stroke-width="20.0" stroke="black" d="M 203 130 212 136"/>
<path stroke-width="0.5" stroke="black" d="M 203 130 183 154"/>
<path stroke-width="20.0" stroke="black" d="M 212 136 203 130"/>
<path stroke-width="0.5" stroke="black" d="M 183 154 203 130"/>
<path stroke-width="20.0" stroke="black" d="M 183 154 177 161"/>
<path stroke-width="0.5" stroke="black" d="M 183 154 194 143"/>
<path stroke-width="20.0" stroke="black" d="M 177 161 183 154"/>
<path stroke-width="0.5" stroke="black" d="M 194 143 183 154"/>
<path stroke-width="20.0" stroke="black" d="M 194 143 182 142"/>
<path stroke-width="20.0" stroke="black" d="M 189 96 201 95"/>
<path stroke-width="0.5" stroke="black" d="M 194 143 237 137"/>
<path stroke-width="0.5" stroke="black" d="M 237 137 194 143"/>
<path stroke-width="20.0" stroke="black" d="M 237 137 244 132"/>
<path stroke-width="0.5" stroke="black" d="M 237 137 261 149"/>
<path stroke-width="20.0" stroke="black" d="M 244 132 237 137"/>
<path stroke-width="0.5" stroke="black" d="M 261 149 237 137"/>
<path stroke-width="20.0" stroke="black" d="M 261 149 276 146"/>
<path stroke-width="0.5" stroke="black" d="M 261 149 210 174"/>
<path stroke-width="20.0" stroke="black" d="M 276 146 261 149"/>
<path stroke-width="0.5" stroke="black" d="M 210 174 261 149"/>
<path stroke-width="20.0" stroke="black" d="M 210 174 222 173"/>
<path stroke-width="0.5" stroke="black" d="M 210 174 143 196"/>
<path stroke-width="20.0" stroke="black" d="M 222 173 210 174"/>
<path stroke-width="20.0" stroke="black" d="M 182 142 194 143"/>
<path stroke-width="0.5" stroke="black" d="M 189 96 152 65"/>
<path stroke-width="20.0" stroke="black" d="M 146 60 152 65"/>
<path stroke-width="0.5" stroke="black" d="M 152 65 189 96"/>
<path stroke-width="14.428571428571429" stroke="black" d="M 329 194 328 184"/>
<path stroke-width="0.5" stroke="black" d="M 322 150 328 184"/>
<path stroke-width="20.0" stroke="black" d="M 322 150 334 155"/>
<path stroke-width="0.5" stroke="black" d="M 322 150 284 114"/>
<path stroke-width="20.0" stroke="black" d="M 334 155 322 150"/>
<path stroke-width="0.5" stroke="black" d="M 284 114 322 150"/>
<path stroke-width="20.0" stroke="black" d="M 284 114 289 118"/>
<path stroke-width="0.5" stroke="black" d="M 284 114 239 77"/>
<path stroke-width="20.0" stroke="black" d="M 289 118 284 114"/>
<path stroke-width="0.5" stroke="black" d="M 239 77 284 114"/>
<path stroke-width="20.0" stroke="black" d="M 239 77 236 71"/>
<path stroke-width="0.5" stroke="black" d="M 239 77 191 45"/>
<path stroke-width="20.0" stroke="black" d="M 236 71 239 77"/>
<path stroke-width="0.5" stroke="black" d="M 191 45 239 77"/>
<path stroke-width="20.0" stroke="black" d="M 191 45 190 37"/>
<path stroke-width="0.5" stroke="black" d="M 191 45 143 26"/>
<path stroke-width="20.0" stroke="black" d="M 190 37 191 45"/>
<path stroke-width="0.5" stroke="black" d="M 143 26 191 45"/>
<path stroke-width="20.0" stroke="black" d="M 143 26 132 20"/>
<path stroke-width="0.5" stroke="black" d="M 143 26 118 38"/>
<path stroke-width="20.0" stroke="black" d="M 132 20 143 26"/>
<path stroke-width="0.5" stroke="black" d="M 118 38 143 26"/>
<path stroke-width="20.0" stroke="black" d="M 118 38 106 33"/>
<path stroke-width="0.5" stroke="black" d="M 118 38 152 65"/>
<path stroke-width="20.0" stroke="black" d="M 106 33 118 38"/>
<path stroke-width="0.5" stroke="black" d="M 152 65 118 38"/>
<path stroke-width="20.0" stroke="black" d="M 152 65 146 60"/>
<path stroke-width="0.5" stroke="black" d="M 143 196 210 174"/>
<path stroke-width="20.0" stroke="black" d="M 143 196 137 194"/>
<path stroke-width="0.5" stroke="black" d="M 143 196 77 222"/>
<path stroke-width="20.0" stroke="black" d="M 137 194 143 196"/>
<path stroke-width="20.0" stroke="black" d="M 167 238 179 237"/>
<path stroke-width="0.5" stroke="black" d="M 255 213 179 237"/>
<path stroke-width="20.0" stroke="black" d="M 255 213 265 213"/>
<path stroke-width="0.5" stroke="black" d="M 255 213 325 187"/>
<path stroke-width="20.0" stroke="black" d="M 265 213 255 213"/>
<path stroke-width="0.5" stroke="black" d="M 325 187 255 213"/>
<path stroke-width="20.0" stroke="black" d="M 325 187 341 186"/>
<path stroke-width="0.5" stroke="black" d="M 325 187 364 157"/>
<path stroke-width="20.0" stroke="black" d="M 341 186 325 187"/>
<path stroke-width="0.5" stroke="black" d="M 364 157 325 187"/>
<path stroke-width="20.0" stroke="black" d="M 364 157 377 150"/>
<path stroke-width="0.5" stroke="black" d="M 364 157 338 144"/>
<path stroke-width="20.0" stroke="black" d="M 377 150 364 157"/>
<path stroke-width="0.5" stroke="black" d="M 338 144 364 157"/>
<path stroke-width="20.0" stroke="black" d="M 338 144 336 137"/>
<path stroke-width="0.5" stroke="black" d="M 338 144 316 160"/>
<path stroke-width="20.0" stroke="black" d="M 336 137 338 144"/>
<path stroke-width="0.5" stroke="black" d="M 316 160 338 144"/>
<path stroke-width="20.0" stroke="black" d="M 316 160 302 159"/>
<path stroke-width="0.5" stroke="black" d="M 316 160 356 173"/>
<path stroke-width="20.0" stroke="black" d="M 302 159 316 160"/>
<path stroke-width="0.5" stroke="black" d="M 356 173 316 160"/>
<path stroke-width="20.0" stroke="black" d="M 356 173 349 175"/>
<path stroke-width="0.5" stroke="black" d="M 356 173 402 181"/>
<path stroke-width="20.0" stroke="black" d="M 349 175 356 173"/>
<path stroke-width="0.5" stroke="black" d="M 402 181 356 173"/>
<path stroke-width="8.857142857142858" stroke="black" d="M 402 181 420 184"/>
<path stroke-width="0.5" stroke="black" d="M 179 237 255 213"/>
<path stroke-width="0.5" stroke="black" d="M 328 184 322 150"/>
<path stroke-width="20.0" stroke="black" d="M 179 237 167 238"/>
<path stroke-width="20.0" stroke="black" d="M 99 263 115 262"/>
<path stroke-width="0.5" stroke="black" d="M 77 222 143 196"/>
<path stroke-width="20.0" stroke="black" d="M 77 222 65 219"/>
<path stroke-width="0.5" stroke="black" d="M 77 222 35 254"/>
<path stroke-width="20.0" stroke="black" d="M 65 219 77 222"/>
<path stroke-width="0.5" stroke="black" d="M 35 254 77 222"/>
<path stroke-width="20.0" stroke="black" d="M 35 254 20 255"/>
<path stroke-width="0.5" stroke="black" d="M 35 254 44 290"/>
<path stroke-width="20.0" stroke="black" d="M 20 255 35 254"/>
<path stroke-width="0.5" stroke="black" d="M 44 290 35 254"/>
<path stroke-width="20.0" stroke="black" d="M 44 290 38 296"/>
<path stroke-width="0.5" stroke="black" d="M 44 290 78 313"/>
<path stroke-width="20.0" stroke="black" d="M 38 296 44 290"/>
<path stroke-width="0.5" stroke="black" d="M 78 313 44 290"/>
<path stroke-width="20.0" stroke="black" d="M 78 313 85 320"/>
<path stroke-width="0.5" stroke="black" d="M 78 313 106 312"/>
<path stroke-width="20.0" stroke="black" d="M 85 320 78 313"/>
<path stroke-width="0.5" stroke="black" d="M 106 312 78 313"/>
<path stroke-width="20.0" stroke="black" d="M 106 312 116 316"/>
<path stroke-width="0.5" stroke="black" d="M 106 312 89 292"/>
<path stroke-width="20.0" stroke="black" d="M 116 316 106 312"/>
<path stroke-width="0.5" stroke="black" d="M 89 292 106 312"/>
<path stroke-width="20.0" stroke="black" d="M 89 292 78 297"/>
<path stroke-width="0.5" stroke="black" d="M 89 292 115 262"/>
<path stroke-width="20.0" stroke="black" d="M 78 297 89 292"/>
<path stroke-width="0.5" stroke="black" d="M 115 262 89 292"/>
<path stroke-width="20.0" stroke="black" d="M 115 262 99 263"/>
<path stroke-width="0.5" stroke="black" d="M 115 262 179 237"/>
<path stroke-width="0.5" stroke="black" d="M 179 237 115 262"/>
<path stroke-width="14.428571428571429" stroke="black" d="M 328 184 329 194"/>
<circle cx="420" cy="184" r="7.0" style="fill:blue;stroke:black;stroke-width:1.0"/>
<circle cx="402" cy="181" r="7.0" style="fill:blue;stroke:black;stroke-width:1.0"/>
<circle cx="349" cy="175" r="7.0" style="fill:blue;stroke:black;stroke-width:1.0"/>
<circle cx="356" cy="173" r="7.0" style="fill:blue;stroke:black;stroke-width:1.0"/>
<circle cx="302" cy="159" r="7.0" style="fill:blue;stroke:black;stroke-width:1.0"/>
<circle cx="316" cy="160" r="7.0" style="fill:blue;stroke:black;stroke-width:1.0"/>
<circle cx="336" cy="137" r="7.0" style="fill:red;stroke:black;stroke-width:1.0"/>
<circle cx="338" cy="144" r="7.0" style="fill:red;stroke:black;stroke-width:1.0"/>
<circle cx="377" cy="150" r="7.0" style="fill:red;stroke:black;stroke-width:1.0"/>
<circle cx="364" cy="157" r="7.0" style="fill:red;stroke:black;stroke-width:1.0"/>
<circle cx="341" cy="186" r="7.0" style="fill:green;stroke:black;stroke-width:1.0"/>
<circle cx="325" cy="187" r="7.0" style="fill:green;stroke:black;stroke-width:1.0"/>
<circle cx="265" cy="213" r="7.0" style="fill:green;stroke:black;stroke-width:1.0"/>
<circle cx="255" cy="213" r="7.0" style="fill:green;stroke:black;stroke-width:1.0"/>
<circle cx="167" cy="238" r="7.0" style="fill:orange;stroke:black;stroke-width:1.0"/>
<circle cx="179" cy="237" r="7.0" style="fill:orange;stroke:black;stroke-width:1.0"/>
<circle cx="99" cy="263" r="7.0" style="fill:orange;stroke:black;stroke-width:1.0"/>
<circle cx="115" cy="262" r="7.0" style="fill:orange;stroke:black;stroke-width:1.0"/>
<circle cx="78" cy="297" r="7.0" style="fill:purple;stroke:black;stroke-width:1.0"/>
<circle cx="89" cy="292" r="7.0" style="fill:purple;stroke:black;stroke-width:1.0"/>
<circle cx="116" cy="316" r="7.0" style="fill:purple;stroke:black;stroke-width:1.0"/>
<circle cx="106" cy="312" r="7.0" style="fill:purple;stroke:black;stroke-width:1.0"/>
<circle cx="85" cy="320" r="7.0" style="fill:yellow;stroke:black;stroke-width:1.0"/>
<circle cx="78" cy="313" r="7.0" style="fill:yellow;stroke:black;stroke-width:1.0"/>
<circle cx="38" cy="296" r="7.0" style="fill:yellow;stroke:black;stroke-width:1.0"/>
<circle cx="44" cy="290" r="7.0" style="fill:yellow;stroke:black;stroke-width:1.0"/>
<circle cx="20" cy="255" r="7.0" style="fill:fuchsia;stroke:black;stroke-width:1.0"/>
<circle cx="35" cy="254" r="7.0" style="fill:fuchsia;stroke:black;stroke-width:1.0"/>
<circle cx="65" cy="219" r="7.0" style="fill:fuchsia;stroke:black;stroke-width:1.0"/>
<circle cx="77" cy="222" r="7.0" style="fill:fuchsia;stroke:black;stroke-width:1.0"/>
<circle cx="137" cy="194" r="7.0" style="fill:olive;stroke:black;stroke-width:1.0"/>
<circle cx="143" cy="196" r="7.0" style="fill:olive;stroke:black;stroke-width:1.0"/>
<circle cx="222" cy="173" r="7.0" style="fill:olive;stroke:black;stroke-width:1.0"/>
<circle cx="210" cy="174" r="7.0" style="fill:olive;stroke:black;stroke-width:1.0"/>
<circle cx="276" cy="146" r="7.0" style="fill:aqua;stroke:black;stroke-width:1.0"/>
<circle cx="261" cy="149" r="7.0" style="fill:aqua;stroke:black;stroke-width:1.0"/>
<circle cx="244" cy="132" r="7.0" style="fill:aqua;stroke:black;stroke-width:1.0"/>
<circle cx="237" cy="137" r="7.0" style="fill:aqua;stroke:black;stroke-width:1.0"/>
<circle cx="182" cy="142" r="7.0" style="fill:brown;stroke:black;stroke-width:1.0"/>
<circle cx="194" cy="143" r="7.0" style="fill:brown;stroke:black;stroke-width:1.0"/>
<circle cx="177" cy="161" r="7.0" style="fill:brown;stroke:black;stroke-width:1.0"/>
<circle cx="183" cy="154" r="7.0" style="fill:brown;stroke:black;stroke-width:1.0"/>
<circle cx="212" cy="136" r="7.0" style="fill:blue;stroke:black;stroke-width:1.0"/>
<circle cx="203" cy="130" r="7.0" style="fill:blue;stroke:black;stroke-width:1.0"/>
<circle cx="201" cy="95" r="7.0" style="fill:blue;stroke:black;stroke-width:1.0"/>
<circle cx="189" cy="96" r="7.0" style="fill:blue;stroke:black;stroke-width:1.0"/>
<circle cx="146" cy="60" r="7.0" style="fill:red;stroke:black;stroke-width:1.0"/>
<circle cx="152" cy="65" r="7.0" style="fill:red;stroke:black;stroke-width:1.0"/>
<circle cx="106" cy="33" r="7.0" style="fill:red;stroke:black;stroke-width:1.0"/>
<circle cx="118" cy="38" r="7.0" style="fill:red;stroke:black;stroke-width:1.0"/>
<circle cx="132" cy="20" r="7.0" style="fill:green;stroke:black;stroke-width:1.0"/>
<circle cx="143" cy="26" r="7.0" style="fill:green;stroke:black;stroke-width:1.0"/>
<circle cx="190" cy="37" r="7.0" style="fill:green;stroke:black;stroke-width:1.0"/>
<circle cx="191" cy="45" r="7.0" style="fill:green;stroke:black;stroke-width:1.0"/>
<circle cx="236" cy="71" r="7.0" style="fill:orange;stroke:black;stroke-width:1.0"/>
<circle cx="239" cy="77" r="7.0" style="fill:orange;stroke:black;stroke-width:1.0"/>
<circle cx="289" cy="118" r="7.0" style="fill:orange;stroke:black;stroke-width:1.0"/>
<circle cx="284" cy="114" r="7.0" style="fill:orange;stroke:black;stroke-width:1.0"/>
<circle cx="334" cy="155" r="7.0" style="fill:purple;stroke:black;stroke-width:1.0"/>
<circle cx="322" cy="150" r="7.0" style="fill:purple;stroke:black;stroke-width:1.0"/>
<circle cx="329" cy="194" r="7.0" style="fill:purple;stroke:black;stroke-width:1.0"/>
<circle cx="328" cy="184" r="7.0" style="fill:purple;stroke:black;stroke-width:1.0"/>
</svg>
