<svg width="440" height="340" xmlns="http://www.w3.org/2000/svg">
<path stroke-width="8.857142857142858" stroke="black" d="M 76 320 70 311"/>
<path stroke-width="0.5" stroke="black" d="M 411 173 384 182"/>
<path stroke-width="20.0" stroke="black" d="M 420 175 411 173"/>
<path stroke-width="0.5" stroke="black" d="M 384 182 411 173"/>
<path stroke-width="20.0" stroke="black" d="M 384 182 388 187"/>
<path stroke-width="0.5" stroke="black" d="M 384 182 342 167"/>
<path stroke-width="20.0" stroke="black" d="M 388 187 384 182"/>
<path stroke-width="0.5" stroke="black" d="M 342 167 384 182"/>
<path stroke-width="20.0" stroke="black" d="M 342 167 346 172"/>
<path stroke-width="0.5" stroke="black" d="M 342 167 305 144"/>
<path stroke-width="20.0" stroke="black" d="M 346 172 342 167"/>
<path stroke-width="0.5" stroke="black" d="M 305 144 342 167"/>
<path stroke-width="20.0" stroke="black" d="M 305 144 300 148"/>
<path stroke-width="20.0" stroke="black" d="M 411 173 420 175"/>
<path stroke-width="0.5" stroke="black" d="M 305 144 271 114"/>
<path stroke-width="0.5" stroke="black" d="M 271 114 305 144"/>
<path stroke-width="20.0" stroke="black" d="M 271 114 264 116"/>
<path stroke-width="0.5" stroke="black" d="M 271 114 254 83"/>
<path stroke-width="20.0" stroke="black" d="M 264 116 271 114"/>
<path stroke-width="0.5" stroke="black" d="M 254 83 271 114"/>
<path stroke-width="20.0" stroke="black" d="M 254 83 245 80"/>
<path stroke-width="0.5" stroke="black" d="M 254 83 247 53"/>
<path stroke-width="20.0" stroke="black" d="M 245 80 254 83"/>
<path stroke-width="0.5" stroke="black" d="M 247 53 254 83"/>
<path stroke-width="20.0" stroke="black" d="M 247 53 242 49"/>
<path stroke-width="0.5" stroke="black" d="M 247 53 254 30"/>
<path stroke-width="20.0" stroke="black" d="M 242 49 247 53"/>
<path stroke-width="20.0" stroke="black" d="M 300 148 305 144"/>
<path stroke-width="0.5" stroke="black" d="M 411 173 409 156"/>
<path stroke-width="20.0" stroke="black" d="M 413 152 409 156"/>
<path stroke-width="0.5" stroke="black" d="M 409 156 411 173"/>
<path stroke-width="14.428571428571429" stroke="black" d="M 261 169 269 171"/>
<path stroke-width="0.5" stroke="black" d="M 294 178 269 171"/>
<path stroke-width="20.0" stroke="black" d="M 294 178 289 177"/>
<path stroke-width="0.5" stroke="black" d="M 294 178 322 185"/>
<path stroke-width="20.0" stroke="black" d="M 289 177 294 178"/>
<path stroke-width="0.5" stroke="black" d="M 322 185 294 178"/>
<path stroke-width="20.0" stroke="black" d="M 322 185 327 184"/>
<path stroke-width="0.5" stroke="black" d="M 322 185 347 193"/>
<path stroke-width="20.0" stroke="black" d="M 327 184 322 185"/>
<path stroke-width="0.5" stroke="black" d="M 347 193 322 185"/>
<path stroke-width="20.0" stroke="black" d="M 347 193 351 197"/>
<path stroke-width="0.5" stroke="black" d="M 347 193 360 180"/>
<path stroke-width="20.0" stroke="black" d="M 351 197 347 193"/>
<path stroke-width="0.5" stroke="black" d="M 360 180 347 193"/>
<path stroke-width="20.0" stroke="black" d="M 360 180 358 184"/>
<path stroke-width="0.5" stroke="black" d="M 360 180 371 161"/>
<path stroke-width="20.0" stroke="black" d="M 358 184 360 180"/>
<path stroke-width="0.5" stroke="black" d="M 371 161 360 180"/>
<path stroke-width="20.0" stroke="black" d="M 371 161 370 158"/>
<path stroke-width="0.5" stroke="black" d="M 371 161 388 148"/>
<path stroke-width="20.0" stroke="black" d="M 370 158 371 161"/>
<path stroke-width="0.5" stroke="black" d="M 388 148 371 161"/>
<path stroke-width="20.0" stroke="black" d="M 388 148 387 142"/>
<path stroke-width="0.5" stroke="black" d="M 388 148 409 156"/>
<path stroke-width="20.0" stroke="black" d="M 387 142 388 148"/>
<path stroke-width="0.5" stroke="black" d="M 409 156 388 148"/>
<path stroke-width="20.0" stroke="black" d="M 409 156 413 152"/>
<path stroke-width="0.5" stroke="black" d="M 254 30 247 53"/>
<path stroke-width="20.0" stroke="black" d="M 254 30 250 24"/>
<path stroke-width="0.5" stroke="black" d="M 254 30 281 26"/>
<path stroke-width="20.0" stroke="black" d="M 250 24 254 30"/>
<path stroke-width="20.0" stroke="black" d="M 129 163 135 166"/>
<path stroke-width="0.5" stroke="black" d="M 98 182 135 166"/>
<path stroke-width="20.0" stroke="black" d="M 98 182 96 185"/>
<path stroke-width="0.5" stroke="black" d="M 98 182 63 195"/>
<path stroke-width="20.0" stroke="black" d="M 96 185 98 182"/>
<path stroke-width="0.5" stroke="black" d="M 63 195 98 182"/>
<path stroke-width="20.0" stroke="black" d="M 63 195 59 199"/>
<path stroke-width="0.5" stroke="black" d="M 63 195 31 207"/>
<path stroke-width="20.0" stroke="black" d="M 59 199 63 195"/>
<path stroke-width="0.5" stroke="black" d="M 31 207 63 195"/>
<path stroke-width="20.0" stroke="black" d="M 31 207 25 202"/>
<path stroke-width="0.5" stroke="black" d="M 31 207 26 230"/>
<path stroke-width="20.0" stroke="black" d="M 25 202 31 207"/>
<path stroke-width="0.5" stroke="black" d="M 26 230 31 207"/>
<path stroke-width="20.0" stroke="black" d="M 26 230 20 226"/>
<path stroke-width="0.5" stroke="black" d="M 26 230 37 258"/>
<path stroke-width="20.0" stroke="black" d="M 20 226 26 230"/>
<path stroke-width="0.5" stroke="black" d="M 37 258 26 230"/>
<path stroke-width="20.0" stroke="black" d="M 37 258 32 256"/>
<path stroke-width="0.5" stroke="black" d="M 37 258 54 287"/>
<path stroke-width="20.0" stroke="black" d="M 32 256 37 258"/>
<path stroke-width="0.5" stroke="black" d="M 54 287 37 258"/>
<path stroke-width="20.0" stroke="black" d="M 54 287 56 292"/>
<path stroke-width="0.5" stroke="black" d="M 54 287 70 311"/>
<path stroke-width="20.0" stroke="black" d="M 56 292 54 287"/>
<path stroke-width="0.5" stroke="black" d="M 70 311 54 287"/>
<path stroke-width="8.857142857142858" stroke="black" d="M 70 311 76 320"/>
<path stroke-width="0.5" stroke="black" d="M 135 166 98 182"/>
<path stroke-width="0.5" stroke="black" d="M 269 171 294 178"/>
<path stroke-width="20.0" stroke="black" d="M 135 166 129 163"/>
<path stroke-width="20.0" stroke="black" d="M 175 151 179 154"/>
<path stroke-width="0.5" stroke="black" d="M 281 26 254 30"/>
<path stroke-width="20.0" stroke="black" d="M 281 26 281 20"/>
<path stroke-width="0.5" stroke="black" d="M 281 26 301 47"/>
<path stroke-width="20.0" stroke="black" d="M 281 20 281 26"/>
<path stroke-width="0.5" stroke="black" d="M 301 47 281 26"/>
<path stroke-width="20.0" stroke="black" d="M 301 47 304 42"/>
<path stroke-width="0.5" stroke="black" d="M 301 47 309 75"/>
<path stroke-width="20.0" stroke="black" d="M 304 42 301 47"/>
<path stroke-width="0.5" stroke="black" d="M 309 75 301 47"/>
<path stroke-width="20.0" stroke="black" d="M 309 75 317 74"/>
<path stroke-width="0.5" stroke="black" d="M 309 75 301 105"/>
<path stroke-width="20.0" stroke="black" d="M 317 74 309 75"/>
<path stroke-width="0.5" stroke="black" d="M 301 105 309 75"/>
<path stroke-width="20.0" stroke="black" d="M 301 105 310 107"/>
<path stroke-width="0.5" stroke="black" d="M 301 105 272 129"/>
<path stroke-width="20.0" stroke="black" d="M 310 107 301 105"/>
<path stroke-width="0.5" stroke="black" d="M 272 129 301 105"/>
<path stroke-width="20.0" stroke="black" d="M 272 129 278 133"/>
<path stroke-width="0.5" stroke="black" d="M 272 129 227 145"/>
<path stroke-width="20.0" stroke="black" d="M 278 133 272 129"/>
<path stroke-width="0.5" stroke="black" d="M 227 145 272 129"/>
<path stroke-width="20.0" stroke="black" d="M 227 145 228 149"/>
<path stroke-width="0.5" stroke="black" d="M 227 145 179 154"/>
<path stroke-width="20.0" stroke="black" d="M 228 149 227 145"/>
<path stroke-width="0.5" stroke="black" d="M 179 154 227 145"/>
<path stroke-width="20.0" stroke="black" d="M 179 154 175 151"/>
<path stroke-width="0.5" stroke="black" d="M 179 154 135 166"/>
<path stroke-width="0.5" stroke="black" d="M 135 166 179 154"/>
<path stroke-width="14.428571428571429" stroke="black" d="M 269 171 261 169"/>
<circle cx="76" cy="320" r="20.0" style="fill:gray;stroke:black;stroke-width:1.0"/>
<circle cx="70" cy="311" r="20.0" style="fill:gray;stroke:black;stroke-width:1.0"/>
<circle cx="56" cy="292" r="20.0" style="fill:gray;stroke:black;stroke-width:1.0"/>
<circle cx="54" cy="287" r="20.0" style="fill:gray;stroke:black;stroke-width:1.0"/>
<circle cx="32" cy="256" r="20.0" style="fill:gray;stroke:black;stroke-width:1.0"/>
<circle cx="37" cy="258" r="20.0" style="fill:gray;stroke:black;stroke-width:1.0"/>
<circle cx="20" cy="226" r="20.0" style="fill:gray;stroke:black;stroke-width:1.0"/>
<circle cx="26" cy="230" r="20.0" style="fill:gray;stroke:black;stroke-width:1.0"/>
<circle cx="25" cy="202" r="20.0" style="fill:gray;stroke:black;stroke-width:1.0"/>
<circle cx="31" cy="207" r="20.0" style="fill:gray;stroke:black;stroke-width:1.0"/>
<circle cx="59" cy="199" r="20.0" style="fill:gray;stroke:black;stroke-width:1.0"/>
<circle cx="63" cy="195" r="20.0" style="fill:gray;stroke:black;stroke-width:1.0"/>
<circle cx="96" cy="185" r="20.0" style="fill:gray;stroke:black;stroke-width:1.0"/>
<circle cx="98" cy="182" r="20.0" style="fill:gray;stroke:black;stroke-width:1.0"/>
<circle cx="129" cy="163" r="20.0" style="fill:gray;stroke:black;stroke-width:1.0"/>
<circle cx="135" cy="166" r="20.0" style="fill:gray;stroke:black;stroke-width:1.0"/>
<circle cx="175" cy="151" r="20.0" style="fill:gray;stroke:black;stroke-width:1.0"/>
<circle cx="179" cy="154" r="20.0" style="fill:gray;stroke:black;stroke-width:1.0"/>
<circle cx="228" cy="149" r="20.0" style="fill:gray;stroke:black;stroke-width:1.0"/>
<circle cx="227" cy="145" r="20.0" style="fill:gray;stroke:black;stroke-width:1.0"/>
<circle cx="278" cy="133" r="20.0" style="fill:gray;stroke:black;stroke-width:1.0"/>
<circle cx="272" cy="129" r="20.0" style="fill:gray;stroke:black;stroke-width:1.0"/>
<circle cx="310" cy="107" r="20.0" style="fill:gray;stroke:black;stroke-width:1.0"/>
<circle cx="301" cy="105" r="20.0" style="fill:gray;stroke:black;stroke-width:1.0"/>
<circle cx="317" cy="74" r="20.0" style="fill:gray;stroke:black;stroke-width:1.0"/>
<circle cx="309" cy="75" r="20.0" style="fill:gray;stroke:black;stroke-width:1.0"/>
<circle cx="304" cy="42" r="20.0" style="fill:gray;stroke:black;stroke-width:1.0"/>
<circle cx="301" cy="47" r="20.0" style="fill:gray;stroke:black;stroke-width:1.0"/>
<circle cx="281" cy="20" r="20.0" style="fill:gray;stroke:black;stroke-width:1.0"/>
<circle cx="281" cy="26" r="20.0" style="fill:gray;stroke:black;stroke-width:1.0"/>
<circle cx="250" cy="24" r="20.0" style="fill:gray;stroke:black;stroke-width:1.0"/>
<circle cx="254" cy="30" r="20.0" style="fill:gray;stroke:black;stroke-width:1.0"/>
<circle cx="242" cy="49" r="20.0" style="fill:gray;stroke:black;stroke-width:1.0"/>
<circle cx="247" cy="53" r="20.0" style="fill:gray;stroke:black;stroke-width:1.0"/>
<circle cx="245" cy="80" r="20.0" style="fill:gray;stroke:black;stroke-width:1.0"/>
<circle cx="254" cy="83" r="20.0" style="fill:gray;stroke:black;stroke-width:1.0"/>
<circle cx="264" cy="116" r="20.0" style="fill:gray;stroke:black;stroke-width:1.0"/>
<circle cx="271" cy="114" r="20.0" style="fill:gray;stroke:black;stroke-width:1.0"/>
<circle cx="300" cy="148" r="20.0" style="fill:gray;stroke:black;stroke-width:1.0"/>
<circle cx="305" cy="144" r="20.0" style="fill:gray;stroke:black;stroke-width:1.0"/>
<circle cx="346" cy="172" r="20.0" style="fill:gray;stroke:black;stroke-width:1.0"/>
<circle cx="342" cy="167" r="20.0" style="fill:gray;stroke:black;stroke-width:1.0"/>
<circle cx="388" cy="187" r="20.0" style="fill:gray;stroke:black;stroke-width:1.0"/>
<circle cx="384" cy="182" r="20.0" style="fill:gray;stroke:black;stroke-width:1.0"/>
<circle cx="420" cy="175" r="20.0" style="fill:gray;stroke:black;stroke-width:1.0"/>
<circle cx="411" cy="173" r="20.0" style="fill:gray;stroke:black;stroke-width:1.0"/>
<circle cx="413" cy="152" r="20.0" style="fill:gray;stroke:black;stroke-width:1.0"/>
<circle cx="409" cy="156" r="20.0" style="fill:gray;stroke:black;stroke-width:1.0"/>
<circle cx="387" cy="142" r="20.0" style="fill:gray;stroke:black;stroke-width:1.0"/>
<circle cx="388" cy="148" r="20.0" style="fill:gray;stroke:black;stroke-width:1.0"/>
<circle cx="370" cy="158" r="20.0" style="fill:gray;stroke:black;stroke-width:1.0"/>
<circle cx="371" cy="161" r="20.0" style="fill:gray;stroke:black;stroke-width:1.0"/>
<circle cx="358" cy="184" r="20.0" style="fill:gray;stroke:black;stroke-width:1.0"/>
<circle cx="360" cy="180" r="20.0" style="fill:gray;stroke:black;stroke-width:1.0"/>
<circle cx="351" cy="197" r="20.0" style="fill:gray;stroke:black;stroke-width:1.0"/>
<circle cx="347" cy="193" r="20.0" style="fill:gray;stroke:black;stroke-width:1.0"/>
<circle cx="327" cy="184" r="20.0" style="fill:gray;stroke:black;stroke-width:1.0"/>
<circle cx="322" cy="185" r="20.0" style="fill:gray;stroke:black;stroke-width:1.0"/>
<circle cx="289" cy="177" r="20.0" style="fill:gray;stroke:black;stroke-width:1.0"/>
<circle cx="294" cy="178" r="20.0" style="fill:gray;stroke:black;stroke-width:1.0"/>
<circle cx="261" cy="169" r="20.0" style="fill:gray;stroke:black;stroke-width:1.0"/>
<circle cx="269" cy="171" r="20.0" style="fill:gray;stroke:black;stroke-width:1.0"/>
</svg>
