<svg width="440" height="340" xmlns="http://www.w3.org/2000/svg">
<path stroke-width="8.857142857142858" stroke="black" d="M 269 88 278 105"/>
<path stroke-width="0.5" stroke="black" d="M 261 191 298 242"/>
<path stroke-width="20.0" stroke="black" d="M 268 199 261 191"/>
<path stroke-width="0.5" stroke="black" d="M 298 242 261 191"/>
<path stroke-width="20.0" stroke="black" d="M 298 242 313 250"/>
<path stroke-width="0.5" stroke="black" d="M 298 242 295 282"/>
<path stroke-width="20.0" stroke="black" d="M 313 250 298 242"/>
<path stroke-width="0.5" stroke="black" d="M 295 282 298 242"/>
<path stroke-width="20.0" stroke="black" d="M 295 282 306 292"/>
<path stroke-width="0.5" stroke="black" d="M 295 282 229 277"/>
<path stroke-width="20.0" stroke="black" d="M 306 292 295 282"/>
<path stroke-width="0.5" stroke="black" d="M 229 277 295 282"/>
<path stroke-width="20.0" stroke="black" d="M 229 277 232 286"/>
<path stroke-width="20.0" stroke="black" d="M 261 191 268 199"/>
<path stroke-width="0.5" stroke="black" d="M 229 277 170 246"/>
<path stroke-width="0.5" stroke="black" d="M 170 246 229 277"/>
<path stroke-width="20.0" stroke="black" d="M 170 246 177 242"/>
<path stroke-width="0.5" stroke="black" d="M 170 246 107 218"/>
<path stroke-width="20.0" stroke="black" d="M 177 242 170 246"/>
<path stroke-width="0.5" stroke="black" d="M 107 218 170 246"/>
<path stroke-width="20.0" stroke="black" d="M 107 218 103 211"/>
<path stroke-width="0.5" stroke="black" d="M 107 218 44 207"/>
<path stroke-width="20.0" stroke="black" d="M 103 211 107 218"/>
<path stroke-width="0.5" stroke="black" d="M 44 207 107 218"/>
<path stroke-width="20.0" stroke="black" d="M 44 207 25 204"/>
<path stroke-width="0.5" stroke="black" d="M 44 207 40 211"/>
<path stroke-width="20.0" stroke="black" d="M 25 204 44 207"/>
<path stroke-width="20.0" stroke="black" d="M 232 286 229 277"/>
<path stroke-width="0.5" stroke="black" d="M 261 191 215 133"/>
<path stroke-width="20.0" stroke="black" d="M 212 137 215 133"/>
<path stroke-width="0.5" stroke="black" d="M 215 133 261 191"/>
<path stroke-width="14.428571428571429" stroke="black" d="M 265 288 251 274"/>
<path stroke-width="0.5" stroke="black" d="M 197 230 251 274"/>
<path stroke-width="20.0" stroke="black" d="M 197 230 201 240"/>
<path stroke-width="0.5" stroke="black" d="M 197 230 151 171"/>
<path stroke-width="20.0" stroke="black" d="M 201 240 197 230"/>
<path stroke-width="0.5" stroke="black" d="M 151 171 197 230"/>
<path stroke-width="20.0" stroke="black" d="M 151 171 139 173"/>
<path stroke-width="0.5" stroke="black" d="M 151 171 109 110"/>
<path stroke-width="20.0" stroke="black" d="M 139 173 151 171"/>
<path stroke-width="0.5" stroke="black" d="M 109 110 151 171"/>
<path stroke-width="20.0" stroke="black" d="M 109 110 100 103"/>
<path stroke-width="0.5" stroke="black" d="M 109 110 93 56"/>
<path stroke-width="20.0" stroke="black" d="M 100 103 109 110"/>
<path stroke-width="0.5" stroke="black" d="M 93 56 109 110"/>
<path stroke-width="20.0" stroke="black" d="M 93 56 81 44"/>
<path stroke-width="0.5" stroke="black" d="M 93 56 125 33"/>
<path stroke-width="20.0" stroke="black" d="M 81 44 93 56"/>
<path stroke-width="0.5" stroke="black" d="M 125 33 93 56"/>
<path stroke-width="20.0" stroke="black" d="M 125 33 119 20"/>
<path stroke-width="0.5" stroke="black" d="M 125 33 170 75"/>
<path stroke-width="20.0" stroke="black" d="M 119 20 125 33"/>
<path stroke-width="0.5" stroke="black" d="M 170 75 125 33"/>
<path stroke-width="20.0" stroke="black" d="M 170 75 165 65"/>
<path stroke-width="0.5" stroke="black" d="M 170 75 215 133"/>
<path stroke-width="20.0" stroke="black" d="M 165 65 170 75"/>
<path stroke-width="0.5" stroke="black" d="M 215 133 170 75"/>
<path stroke-width="20.0" stroke="black" d="M 215 133 212 137"/>
<path stroke-width="0.5" stroke="black" d="M 40 211 44 207"/>
<path stroke-width="20.0" stroke="black" d="M 40 211 20 214"/>
<path stroke-width="0.5" stroke="black" d="M 40 211 116 201"/>
<path stroke-width="20.0" stroke="black" d="M 20 214 40 211"/>
<path stroke-width="20.0" stroke="black" d="M 181 199 195 206"/>
<path stroke-width="0.5" stroke="black" d="M 175 259 195 206"/>
<path stroke-width="20.0" stroke="black" d="M 175 259 159 265"/>
<path stroke-width="0.5" stroke="black" d="M 175 259 198 303"/>
<path stroke-width="20.0" stroke="black" d="M 159 265 175 259"/>
<path stroke-width="0.5" stroke="black" d="M 198 303 175 259"/>
<path stroke-width="20.0" stroke="black" d="M 198 303 191 314"/>
<path stroke-width="0.5" stroke="black" d="M 198 303 271 307"/>
<path stroke-width="20.0" stroke="black" d="M 191 314 198 303"/>
<path stroke-width="0.5" stroke="black" d="M 271 307 198 303"/>
<path stroke-width="20.0" stroke="black" d="M 271 307 273 320"/>
<path stroke-width="0.5" stroke="black" d="M 271 307 314 264"/>
<path stroke-width="20.0" stroke="black" d="M 273 320 271 307"/>
<path stroke-width="0.5" stroke="black" d="M 314 264 271 307"/>
<path stroke-width="20.0" stroke="black" d="M 314 264 326 273"/>
<path stroke-width="0.5" stroke="black" d="M 314 264 319 206"/>
<path stroke-width="20.0" stroke="black" d="M 326 273 314 264"/>
<path stroke-width="0.5" stroke="black" d="M 319 206 314 264"/>
<path stroke-width="20.0" stroke="black" d="M 319 206 335 205"/>
<path stroke-width="0.5" stroke="black" d="M 319 206 301 149"/>
<path stroke-width="20.0" stroke="black" d="M 335 205 319 206"/>
<path stroke-width="0.5" stroke="black" d="M 301 149 319 206"/>
<path stroke-width="20.0" stroke="black" d="M 301 149 301 140"/>
<path stroke-width="0.5" stroke="black" d="M 301 149 278 105"/>
<path stroke-width="20.0" stroke="black" d="M 301 140 301 149"/>
<path stroke-width="0.5" stroke="black" d="M 278 105 301 149"/>
<path stroke-width="8.857142857142858" stroke="black" d="M 278 105 269 88"/>
<path stroke-width="0.5" stroke="black" d="M 195 206 175 259"/>
<path stroke-width="0.5" stroke="black" d="M 251 274 197 230"/>
<path stroke-width="20.0" stroke="black" d="M 195 206 181 199"/>
<path stroke-width="20.0" stroke="black" d="M 248 153 252 164"/>
<path stroke-width="0.5" stroke="black" d="M 116 201 40 211"/>
<path stroke-width="20.0" stroke="black" d="M 116 201 101 195"/>
<path stroke-width="0.5" stroke="black" d="M 116 201 216 206"/>
<path stroke-width="20.0" stroke="black" d="M 101 195 116 201"/>
<path stroke-width="0.5" stroke="black" d="M 216 206 116 201"/>
<path stroke-width="20.0" stroke="black" d="M 216 206 217 201"/>
<path stroke-width="0.5" stroke="black" d="M 216 206 315 212"/>
<path stroke-width="20.0" stroke="black" d="M 217 201 216 206"/>
<path stroke-width="0.5" stroke="black" d="M 315 212 216 206"/>
<path stroke-width="20.0" stroke="black" d="M 315 212 328 219"/>
<path stroke-width="0.5" stroke="black" d="M 315 212 393 197"/>
<path stroke-width="20.0" stroke="black" d="M 328 219 315 212"/>
<path stroke-width="0.5" stroke="black" d="M 393 197 315 212"/>
<path stroke-width="20.0" stroke="black" d="M 393 197 413 200"/>
<path stroke-width="0.5" stroke="black" d="M 393 197 401 167"/>
<path stroke-width="20.0" stroke="black" d="M 413 200 393 197"/>
<path stroke-width="0.5" stroke="black" d="M 401 167 393 197"/>
<path stroke-width="20.0" stroke="black" d="M 401 167 420 163"/>
<path stroke-width="0.5" stroke="black" d="M 401 167 337 151"/>
<path stroke-width="20.0" stroke="black" d="M 420 163 401 167"/>
<path stroke-width="0.5" stroke="black" d="M 337 151 401 167"/>
<path stroke-width="20.0" stroke="black" d="M 337 151 347 143"/>
<path stroke-width="0.5" stroke="black" d="M 337 151 252 164"/>
<path stroke-width="20.0" stroke="black" d="M 347 143 337 151"/>
<path stroke-width="0.5" stroke="black" d="M 252 164 337 151"/>
<path stroke-width="20.0" stroke="black" d="M 252 164 248 153"/>
<path stroke-width="0.5" stroke="black" d="M 252 164 195 206"/>
<path stroke-width="0.5" stroke="black" d="M 195 206 252 164"/>
<path stroke-width="14.428571428571429" stroke="black" d="M 251 274 265 288"/>
<circle cx="269" cy="88" r="7.0" style="fill:gray;stroke:black;stroke-width:1.0"/>
<circle cx="278" cy="105" r="7.0" style="fill:gray;stroke:black;stroke-width:1.0"/>
<circle cx="301" cy="140" r="7.0" style="fill:gray;stroke:black;stroke-width:1.0"/>
<circle cx="301" cy="149" r="7.0" style="fill:gray;stroke:black;stroke-width:1.0"/>
<circle cx="335" cy="205" r="7.0" style="fill:gray;stroke:black;stroke-width:1.0"/>
<circle cx="319" cy="206" r="7.0" style="fill:gray;stroke:black;stroke-width:1.0"/>
<circle cx="326" cy="273" r="7.0" style="fill:gray;stroke:black;stroke-width:1.0"/>
<circle cx="314" cy="264" r="7.0" style="fill:gray;stroke:black;stroke-width:1.0"/>
<circle cx="273" cy="320" r="7.0" style="fill:gray;stroke:black;stroke-width:1.0"/>
<circle cx="271" cy="307" r="7.0" style="fill:gray;stroke:black;stroke-width:1.0"/>
<circle cx="191" cy="314" r="7.0" style="fill:gray;stroke:black;stroke-width:1.0"/>
<circle cx="198" cy="303" r="7.0" style="fill:gray;stroke:black;stroke-width:1.0"/>
<circle cx="159" cy="265" r="7.0" style="fill:gray;stroke:black;stroke-width:1.0"/>
<circle cx="175" cy="259" r="7.0" style="fill:gray;stroke:black;stroke-width:1.0"/>
<circle cx="181" cy="199" r="7.0" style="fill:gray;stroke:black;stroke-width:1.0"/>
<circle cx="195" cy="206" r="7.0" style="fill:gray;stroke:black;stroke-width:1.0"/>
<circle cx="248" cy="153" r="7.0" style="fill:gray;stroke:black;stroke-width:1.0"/>
<circle cx="252" cy="164" r="7.0" style="fill:gray;stroke:black;stroke-width:1.0"/>
<circle cx="347" cy="143" r="7.0" style="fill:gray;stroke:black;stroke-width:1.0"/>
<circle cx="337" cy="151" r="7.0" style="fill:gray;stroke:black;stroke-width:1.0"/>
<circle cx="420" cy="163" r="7.0" style="fill:gray;stroke:black;stroke-width:1.0"/>
<circle cx="401" cy="167" r="7.0" style="fill:gray;stroke:black;stroke-width:1.0"/>
<circle cx="413" cy="200" r="7.0" style="fill:gray;stroke:black;stroke-width:1.0"/>
<circle cx="393" cy="197" r="7.0" style="fill:gray;stroke:black;stroke-width:1.0"/>
<circle cx="328" cy="219" r="7.0" style="fill:gray;stroke:black;stroke-width:1.0"/>
<circle cx="315" cy="212" r="7.0" style="fill:gray;stroke:black;stroke-width:1.0"/>
<circle cx="217" cy="201" r="7.0" style="fill:gray;stroke:black;stroke-width:1.0"/>
<circle cx="216" cy="206" r="7.0" style="fill:gray;stroke:black;stroke-width:1.0"/>
<circle cx="101" cy="195" r="7.0" style="fill:gray;stroke:black;stroke-width:1.0"/>
<circle cx="116" cy="201" r="7.0" style="fill:gray;stroke:black;stroke-width:1.0"/>
<circle cx="20" cy="214" r="7.0" style="fill:gray;stroke:black;stroke-width:1.0"/>
<circle cx="40" cy="211" r="7.0" style="fill:gray;stroke:black;stroke-width:1.0"/>
<circle cx="25" cy="204" r="7.0" style="fill:gray;stroke:black;stroke-width:1.0"/>
<circle cx="44" cy="207" r="7.0" style="fill:gray;stroke:black;stroke-width:1.0"/>
<circle cx="103" cy="211" r="7.0" style="fill:gray;stroke:black;stroke-width:1.0"/>
<circle cx="107" cy="218" r="7.0" style="fill:gray;stroke:black;stroke-width:1.0"/>
<circle cx="177" cy="242" r="7.0" style="fill:gray;stroke:black;stroke-width:1.0"/>
<circle cx="170" cy="246" r="7.0" style="fill:gray;stroke:black;stroke-width:1.0"/>
<circle cx="232" cy="286" r="7.0" style="fill:gray;stroke:black;stroke-width:1.0"/>
<circle cx="229" cy="277" r="7.0" style="fill:gray;stroke:black;stroke-width:1.0"/>
<circle cx="306" cy="292" r="7.0" style="fill:gray;stroke:black;stroke-width:1.0"/>
<circle cx="295" cy="282" r="7.0" style="fill:gray;stroke:black;stroke-width:1.0"/>
<circle cx="313" cy="250" r="7.0" style="fill:gray;stroke:black;stroke-width:1.0"/>
<circle cx="298" cy="242" r="7.0" style="fill:gray;stroke:black;stroke-width:1.0"/>
<circle cx="268" cy="199" r="7.0" style="fill:gray;stroke:black;stroke-width:1.0"/>
<circle cx="261" cy="191" r="7.0" style="fill:gray;stroke:black;stroke-width:1.0"/>
<circle cx="212" cy="137" r="7.0" style="fill:gray;stroke:black;stroke-width:1.0"/>
<circle cx="215" cy="133" r="7.0" style="fill:gray;stroke:black;stroke-width:1.0"/>
<circle cx="165" cy="65" r="7.0" style="fill:gray;stroke:black;stroke-width:1.0"/>
<circle cx="170" cy="75" r="7.0" style="fill:gray;stroke:black;stroke-width:1.0"/>
<circle cx="119" cy="20" r="7.0" style="fill:gray;stroke:black;stroke-width:1.0"/>
<circle cx="125" cy="33" r="7.0" style="fill:gray;stroke:black;stroke-width:1.0"/>
<circle cx="81" cy="44" r="7.0" style="fill:gray;stroke:black;stroke-width:1.0"/>
<circle cx="93" cy="56" r="7.0" style="fill:gray;stroke:black;stroke-width:1.0"/>
<circle cx="100" cy="103" r="7.0" style="fill:gray;stroke:black;stroke-width:1.0"/>
<circle cx="109" cy="110" r="7.0" style="fill:gray;stroke:black;stroke-width:1.0"/>
<circle cx="139" cy="173" r="7.0" style="fill:gray;stroke:black;stroke-width:1.0"/>
<circle cx="151" cy="171" r="7.0" style="fill:gray;stroke:black;stroke-width:1.0"/>
<circle cx="201" cy="240" r="7.0" style="fill:gray;stroke:black;stroke-width:1.0"/>
<circle cx="197" cy="230" r="7.0" style="fill:gray;stroke:black;stroke-width:1.0"/>
<circle cx="265" cy="288" r="7.0" style="fill:gray;stroke:black;stroke-width:1.0"/>
<circle cx="251" cy="274" r="7.0" style="fill:gray;stroke:black;stroke-width:1.0"/>
</svg>
