<svg width="440" height="340" xmlns="http://www.w3.org/2000/svg">
<path stroke-width="1" stroke="black" d="M 259 230 277 226"/>
<path stroke-width="1" stroke="black" d="M 245 157 192 145"/>
<path stroke-width="1" stroke="black" d="M 254 155 245 157"/>
<path stroke-width="1" stroke="black" d="M 192 145 245 157"/>
<path stroke-width="1" stroke="black" d="M 192 145 199 141"/>
<path stroke-width="1" stroke="black" d="M 192 145 131 142"/>
<path stroke-width="1" stroke="black" d="M 199 141 192 145"/>
<path stroke-width="1" stroke="black" d="M 131 142 192 145"/>
<path stroke-width="1" stroke="black" d="M 131 142 126 138"/>
<path stroke-width="1" stroke="black" d="M 131 142 72 141"/>
<path stroke-width="1" stroke="black" d="M 126 138 131 142"/>
<path stroke-width="1" stroke="black" d="M 72 141 131 142"/>
<path stroke-width="1" stroke="black" d="M 72 141 62 143"/>
<path stroke-width="1" stroke="black" d="M 245 157 254 155"/>
<path stroke-width="1" stroke="black" d="M 72 141 34 133"/>
<path stroke-width="1" stroke="black" d="M 34 133 72 141"/>
<path stroke-width="1" stroke="black" d="M 34 133 20 137"/>
<path stroke-width="1" stroke="black" d="M 34 133 57 113"/>
<path stroke-width="1" stroke="black" d="M 20 137 34 133"/>
<path stroke-width="1" stroke="black" d="M 57 113 34 133"/>
<path stroke-width="1" stroke="black" d="M 57 113 48 116"/>
<path stroke-width="1" stroke="black" d="M 57 113 99 89"/>
<path stroke-width="1" stroke="black" d="M 48 116 57 113"/>
<path stroke-width="1" stroke="black" d="M 99 89 57 113"/>
<path stroke-width="1" stroke="black" d="M 99 89 91 91"/>
<path stroke-width="1" stroke="black" d="M 99 89 144 65"/>
<path stroke-width="1" stroke="black" d="M 91 91 99 89"/>
<path stroke-width="1" stroke="black" d="M 62 143 72 141"/>
<path stroke-width="1" stroke="black" d="M 245 157 277 179"/>
<path stroke-width="1" stroke="black" d="M 288 177 277 179"/>
<path stroke-width="1" stroke="black" d="M 277 179 245 157"/>
<path stroke-width="1" stroke="black" d="M 142 304 152 307"/>
<path stroke-width="1" stroke="black" d="M 183 316 152 307"/>
<path stroke-width="1" stroke="black" d="M 183 316 176 319"/>
<path stroke-width="1" stroke="black" d="M 183 316 226 314"/>
<path stroke-width="1" stroke="black" d="M 176 319 183 316"/>
<path stroke-width="1" stroke="black" d="M 226 314 183 316"/>
<path stroke-width="1" stroke="black" d="M 226 314 229 320"/>
<path stroke-width="1" stroke="black" d="M 226 314 261 297"/>
<path stroke-width="1" stroke="black" d="M 229 320 226 314"/>
<path stroke-width="1" stroke="black" d="M 261 297 226 314"/>
<path stroke-width="1" stroke="black" d="M 261 297 269 301"/>
<path stroke-width="1" stroke="black" d="M 261 297 270 269"/>
<path stroke-width="1" stroke="black" d="M 269 301 261 297"/>
<path stroke-width="1" stroke="black" d="M 270 269 261 297"/>
<path stroke-width="1" stroke="black" d="M 270 269 274 273"/>
<path stroke-width="1" stroke="black" d="M 270 269 273 239"/>
<path stroke-width="1" stroke="black" d="M 274 273 270 269"/>
<path stroke-width="1" stroke="black" d="M 273 239 270 269"/>
<path stroke-width="1" stroke="black" d="M 273 239 267 238"/>
<path stroke-width="1" stroke="black" d="M 273 239 275 206"/>
<path stroke-width="1" stroke="black" d="M 267 238 273 239"/>
<path stroke-width="1" stroke="black" d="M 275 206 273 239"/>
<path stroke-width="1" stroke="black" d="M 275 206 271 204"/>
<path stroke-width="1" stroke="black" d="M 275 206 277 179"/>
<path stroke-width="1" stroke="black" d="M 271 204 275 206"/>
<path stroke-width="1" stroke="black" d="M 277 179 275 206"/>
<path stroke-width="1" stroke="black" d="M 277 179 288 177"/>
<path stroke-width="1" stroke="black" d="M 144 65 99 89"/>
<path stroke-width="1" stroke="black" d="M 144 65 150 61"/>
<path stroke-width="1" stroke="black" d="M 144 65 183 43"/>
<path stroke-width="1" stroke="black" d="M 150 61 144 65"/>
<path stroke-width="1" stroke="black" d="M 239 113 233 113"/>
<path stroke-width="1" stroke="black" d="M 297 126 233 113"/>
<path stroke-width="1" stroke="black" d="M 297 126 306 128"/>
<path stroke-width="1" stroke="black" d="M 297 126 355 140"/>
<path stroke-width="1" stroke="black" d="M 306 128 297 126"/>
<path stroke-width="1" stroke="black" d="M 355 140 297 126"/>
<path stroke-width="1" stroke="black" d="M 355 140 364 140"/>
<path stroke-width="1" stroke="black" d="M 355 140 400 155"/>
<path stroke-width="1" stroke="black" d="M 364 140 355 140"/>
<path stroke-width="1" stroke="black" d="M 400 155 355 140"/>
<path stroke-width="1" stroke="black" d="M 400 155 412 153"/>
<path stroke-width="1" stroke="black" d="M 400 155 407 178"/>
<path stroke-width="1" stroke="black" d="M 412 153 400 155"/>
<path stroke-width="1" stroke="black" d="M 407 178 400 155"/>
<path stroke-width="1" stroke="black" d="M 407 178 420 178"/>
<path stroke-width="1" stroke="black" d="M 407 178 372 200"/>
<path stroke-width="1" stroke="black" d="M 420 178 407 178"/>
<path stroke-width="1" stroke="black" d="M 372 200 407 178"/>
<path stroke-width="1" stroke="black" d="M 372 200 381 201"/>
<path stroke-width="1" stroke="black" d="M 372 200 324 216"/>
<path stroke-width="1" stroke="black" d="M 381 201 372 200"/>
<path stroke-width="1" stroke="black" d="M 324 216 372 200"/>
<path stroke-width="1" stroke="black" d="M 324 216 320 221"/>
<path stroke-width="1" stroke="black" d="M 324 216 277 226"/>
<path stroke-width="1" stroke="black" d="M 320 221 324 216"/>
<path stroke-width="1" stroke="black" d="M 277 226 324 216"/>
<path stroke-width="1" stroke="black" d="M 277 226 259 230"/>
<path stroke-width="1" stroke="black" d="M 233 113 297 126"/>
<path stroke-width="1" stroke="black" d="M 152 307 183 316"/>
<path stroke-width="1" stroke="black" d="M 233 113 239 113"/>
<path stroke-width="1" stroke="black" d="M 160 102 169 100"/>
<path stroke-width="1" stroke="black" d="M 183 43 144 65"/>
<path stroke-width="1" stroke="black" d="M 183 43 194 41"/>
<path stroke-width="1" stroke="black" d="M 183 43 188 24"/>
<path stroke-width="1" stroke="black" d="M 194 41 183 43"/>
<path stroke-width="1" stroke="black" d="M 188 24 183 43"/>
<path stroke-width="1" stroke="black" d="M 188 24 198 20"/>
<path stroke-width="1" stroke="black" d="M 188 24 148 25"/>
<path stroke-width="1" stroke="black" d="M 198 20 188 24"/>
<path stroke-width="1" stroke="black" d="M 148 25 188 24"/>
<path stroke-width="1" stroke="black" d="M 148 25 153 21"/>
<path stroke-width="1" stroke="black" d="M 148 25 106 37"/>
<path stroke-width="1" stroke="black" d="M 153 21 148 25"/>
<path stroke-width="1" stroke="black" d="M 106 37 148 25"/>
<path stroke-width="1" stroke="black" d="M 106 37 97 34"/>
<path stroke-width="1" stroke="black" d="M 106 37 87 59"/>
<path stroke-width="1" stroke="black" d="M 97 34 106 37"/>
<path stroke-width="1" stroke="black" d="M 87 59 106 37"/>
<path stroke-width="1" stroke="black" d="M 87 59 74 59"/>
<path stroke-width="1" stroke="black" d="M 87 59 115 82"/>
<path stroke-width="1" stroke="black" d="M 74 59 87 59"/>
<path stroke-width="1" stroke="black" d="M 115 82 87 59"/>
<path stroke-width="1" stroke="black" d="M 115 82 103 81"/>
<path stroke-width="1" stroke="black" d="M 115 82 169 100"/>
<path stroke-width="1" stroke="black" d="M 103 81 115 82"/>
<path stroke-width="1" stroke="black" d="M 169 100 115 82"/>
<path stroke-width="1" stroke="black" d="M 169 100 160 102"/>
<path stroke-width="1" stroke="black" d="M 169 100 233 113"/>
<path stroke-width="1" stroke="black" d="M 233 113 169 100"/>
<path stroke-width="1" stroke="black" d="M 152 307 142 304"/>
<circle cx="259" cy="230" r="7.0" style="fill:gray;stroke:black;stroke-width:1.0"/>
<circle cx="277" cy="226" r="7.0" style="fill:gray;stroke:black;stroke-width:1.0"/>
<circle cx="320" cy="221" r="7.0" style="fill:gray;stroke:black;stroke-width:1.0"/>
<circle cx="324" cy="216" r="7.0" style="fill:gray;stroke:black;stroke-width:1.0"/>
<circle cx="381" cy="201" r="7.0" style="fill:gray;stroke:black;stroke-width:1.0"/>
<circle cx="372" cy="200" r="7.0" style="fill:gray;stroke:black;stroke-width:1.0"/>
<circle cx="420" cy="178" r="7.0" style="fill:gray;stroke:black;stroke-width:1.0"/>
<circle cx="407" cy="178" r="7.0" style="fill:gray;stroke:black;stroke-width:1.0"/>
<circle cx="412" cy="153" r="7.0" style="fill:gray;stroke:black;stroke-width:1.0"/>
<circle cx="400" cy="155" r="7.0" style="fill:gray;stroke:black;stroke-width:1.0"/>
<circle cx="364" cy="140" r="7.0" style="fill:gray;stroke:black;stroke-width:1.0"/>
<circle cx="355" cy="140" r="7.0" style="fill:gray;stroke:black;stroke-width:1.0"/>
<circle cx="306" cy="128" r="7.0" style="fill:gray;stroke:black;stroke-width:1.0"/>
<circle cx="297" cy="126" r="7.0" style="fill:gray;stroke:black;stroke-width:1.0"/>
<circle cx="239" cy="113" r="7.0" style="fill:gray;stroke:black;stroke-width:1.0"/>
<circle cx="233" cy="113" r="7.0" style="fill:gray;stroke:black;stroke-width:1.0"/>
<circle cx="160" cy="102" r="7.0" style="fill:gray;stroke:black;stroke-width:1.0"/>
<circle cx="169" cy="100" r="7.0" style="fill:gray;stroke:black;stroke-width:1.0"/>
<circle cx="103" cy="81" r="7.0" style="fill:gray;stroke:black;stroke-width:1.0"/>
<circle cx="115" cy="82" r="7.0" style="fill:gray;stroke:black;stroke-width:1.0"/>
<circle cx="74" cy="59" r="7.0" style="fill:gray;stroke:black;stroke-width:1.0"/>
<circle cx="87" cy="59" r="7.0" style="fill:gray;stroke:black;stroke-width:1.0"/>
<circle cx="97" cy="34" r="7.0" style="fill:gray;stroke:black;stroke-width:1.0"/>
<circle cx="106" cy="37" r="7.0" style="fill:gray;stroke:black;stroke-width:1.0"/>
<circle cx="153" cy="21" r="7.0" style="fill:gray;stroke:black;stroke-width:1.0"/>
<circle cx="148" cy="25" r="7.0" style="fill:gray;stroke:black;stroke-width:1.0"/>
<circle cx="198" cy="20" r="7.0" style="fill:gray;stroke:black;stroke-width:1.0"/>
<circle cx="188" cy="24" r="7.0" style="fill:gray;stroke:black;stroke-width:1.0"/>
<circle cx="194" cy="41" r="7.0" style="fill:gray;stroke:black;stroke-width:1.0"/>
<circle cx="183" cy="43" r="7.0" style="fill:gray;stroke:black;stroke-width:1.0"/>
<circle cx="150" cy="61" r="7.0" style="fill:gray;stroke:black;stroke-width:1.0"/>
<circle cx="144" cy="65" r="7.0" style="fill:gray;stroke:black;stroke-width:1.0"/>
<circle cx="91" cy="91" r="7.0" style="fill:gray;stroke:black;stroke-width:1.0"/>
<circle cx="99" cy="89" r="7.0" style="fill:gray;stroke:black;stroke-width:1.0"/>
<circle cx="48" cy="116" r="7.0" style="fill:gray;stroke:black;stroke-width:1.0"/>
<circle cx="57" cy="113" r="7.0" style="fill:gray;stroke:black;stroke-width:1.0"/>
<circle cx="20" cy="137" r="7.0" style="fill:gray;stroke:black;stroke-width:1.0"/>
<circle cx="34" cy="133" r="7.0" style="fill:gray;stroke:black;stroke-width:1.0"/>
<circle cx="62" cy="143" r="7.0" style="fill:gray;stroke:black;stroke-width:1.0"/>
<circle cx="72" cy="141" r="7.0" style="fill:gray;stroke:black;stroke-width:1.0"/>
<circle cx="126" cy="138" r="7.0" style="fill:gray;stroke:black;stroke-width:1.0"/>
<circle cx="131" cy="142" r="7.0" style="fill:gray;stroke:black;stroke-width:1.0"/>
<circle cx="199" cy="141" r="7.0" style="fill:gray;stroke:black;stroke-width:1.0"/>
<circle cx="192" cy="145" r="7.0" style="fill:gray;stroke:black;stroke-width:1.0"/>
<circle cx="254" cy="155" r="7.0" style="fill:gray;stroke:black;stroke-width:1.0"/>
<circle cx="245" cy="157" r="7.0" style="fill:gray;stroke:black;stroke-width:1.0"/>
<circle cx="288" cy="177" r="7.0" style="fill:gray;stroke:black;stroke-width:1.0"/>
<circle cx="277" cy="179" r="7.0" style="fill:gray;stroke:black;stroke-width:1.0"/>
<circle cx="271" cy="204" r="7.0" style="fill:gray;stroke:black;stroke-width:1.0"/>
<circle cx="275" cy="206" r="7.0" style="fill:gray;stroke:black;stroke-width:1.0"/>
<circle cx="267" cy="238" r="7.0" style="fill:gray;stroke:black;stroke-width:1.0"/>
<circle cx="273" cy="239" r="7.0" style="fill:gray;stroke:black;stroke-width:1.0"/>
<circle cx="274" cy="273" r="7.0" style="fill:gray;stroke:black;stroke-width:1.0"/>
<circle cx="270" cy="269" r="7.0" style="fill:gray;stroke:black;stroke-width:1.0"/>
<circle cx="269" cy="301" r="7.0" style="fill:gray;stroke:black;stroke-width:1.0"/>
<circle cx="261" cy="297" r="7.0" style="fill:gray;stroke:black;stroke-width:1.0"/>
<circle cx="229" cy="320" r="7.0" style="fill:gray;stroke:black;stroke-width:1.0"/>
<circle cx="226" cy="314" r="7.0" style="fill:gray;stroke:black;stroke-width:1.0"/>
<circle cx="176" cy="319" r="7.0" style="fill:gray;stroke:black;stroke-width:1.0"/>
<circle cx="183" cy="316" r="7.0" style="fill:gray;stroke:black;stroke-width:1.0"/>
<circle cx="142" cy="304" r="7.0" style="fill:gray;stroke:black;stroke-width:1.0"/>
<circle cx="152" cy="307" r="7.0" style="fill:gray;stroke:black;stroke-width:1.0"/>
</svg>
