<svg width="440" height="340" xmlns="http://www.w3.org/2000/svg">
<path stroke-width="1" stroke="black" d="M 255 164 389 254"/>
<path stroke-width="1" stroke="black" d="M 420 138 161 20"/>
<path stroke-width="1" stroke="black" d="M 420 138 88 125"/>
<path stroke-width="1" stroke="black" d="M 420 138 130 281"/>
<path stroke-width="1" stroke="black" d="M 420 138 251 177"/>
<path stroke-width="1" stroke="black" d="M 420 138 265 287"/>
<path stroke-width="1" stroke="black" d="M 420 138 194 162"/>
<path stroke-width="1" stroke="black" d="M 420 138 172 97"/>
<path stroke-width="1" stroke="black" d="M 130 281 255 164"/>
<path stroke-width="1" stroke="black" d="M 130 281 389 254"/>
<path stroke-width="1" stroke="black" d="M 130 281 48 320"/>
<path stroke-width="1" stroke="black" d="M 420 138 302 122"/>
<path stroke-width="1" stroke="black" d="M 130 281 20 192"/>
<path stroke-width="1" stroke="black" d="M 130 281 196 193"/>
<path stroke-width="1" stroke="black" d="M 130 281 302 122"/>
<path stroke-width="1" stroke="black" d="M 130 281 161 20"/>
<path stroke-width="1" stroke="black" d="M 130 281 88 125"/>
<path stroke-width="1" stroke="black" d="M 130 281 420 138"/>
<path stroke-width="1" stroke="black" d="M 130 281 251 177"/>
<path stroke-width="1" stroke="black" d="M 130 281 265 287"/>
<path stroke-width="1" stroke="black" d="M 130 281 194 162"/>
<path stroke-width="1" stroke="black" d="M 130 281 172 97"/>
<path stroke-width="1" stroke="black" d="M 251 177 255 164"/>
<path stroke-width="1" stroke="black" d="M 130 281 119 219"/>
<path stroke-width="1" stroke="black" d="M 251 177 389 254"/>
<path stroke-width="1" stroke="black" d="M 420 138 196 193"/>
<path stroke-width="1" stroke="black" d="M 420 138 20 192"/>
<path stroke-width="1" stroke="black" d="M 161 20 130 281"/>
<path stroke-width="1" stroke="black" d="M 161 20 251 177"/>
<path stroke-width="1" stroke="black" d="M 161 20 265 287"/>
<path stroke-width="1" stroke="black" d="M 161 20 194 162"/>
<path stroke-width="1" stroke="black" d="M 161 20 172 97"/>
<path stroke-width="1" stroke="black" d="M 88 125 255 164"/>
<path stroke-width="1" stroke="black" d="M 88 125 389 254"/>
<path stroke-width="1" stroke="black" d="M 88 125 48 320"/>
<path stroke-width="1" stroke="black" d="M 88 125 20 192"/>
<path stroke-width="1" stroke="black" d="M 88 125 119 219"/>
<path stroke-width="1" stroke="black" d="M 420 138 119 219"/>
<path stroke-width="1" stroke="black" d="M 88 125 196 193"/>
<path stroke-width="1" stroke="black" d="M 88 125 161 20"/>
<path stroke-width="1" stroke="black" d="M 88 125 420 138"/>
<path stroke-width="1" stroke="black" d="M 88 125 130 281"/>
<path stroke-width="1" stroke="black" d="M 88 125 251 177"/>
<path stroke-width="1" stroke="black" d="M 88 125 265 287"/>
<path stroke-width="1" stroke="black" d="M 88 125 194 162"/>
<path stroke-width="1" stroke="black" d="M 88 125 172 97"/>
<path stroke-width="1" stroke="black" d="M 420 138 255 164"/>
<path stroke-width="1" stroke="black" d="M 420 138 389 254"/>
<path stroke-width="1" stroke="black" d="M 420 138 48 320"/>
<path stroke-width="1" stroke="black" d="M 88 125 302 122"/>
<path stroke-width="1" stroke="black" d="M 251 177 48 320"/>
<path stroke-width="1" stroke="black" d="M 251 177 20 192"/>
<path stroke-width="1" stroke="black" d="M 251 177 119 219"/>
<path stroke-width="1" stroke="black" d="M 194 162 119 219"/>
<path stroke-width="1" stroke="black" d="M 194 162 196 193"/>
<path stroke-width="1" stroke="black" d="M 194 162 302 122"/>
<path stroke-width="1" stroke="black" d="M 194 162 161 20"/>
<path stroke-width="1" stroke="black" d="M 194 162 88 125"/>
<path stroke-width="1" stroke="black" d="M 194 162 420 138"/>
<path stroke-width="1" stroke="black" d="M 194 162 130 281"/>
<path stroke-width="1" stroke="black" d="M 194 162 251 177"/>
<path stroke-width="1" stroke="black" d="M 194 162 265 287"/>
<path stroke-width="1" stroke="black" d="M 194 162 172 97"/>
<path stroke-width="1" stroke="black" d="M 194 162 20 192"/>
<path stroke-width="1" stroke="black" d="M 172 97 255 164"/>
<path stroke-width="1" stroke="black" d="M 172 97 48 320"/>
<path stroke-width="1" stroke="black" d="M 172 97 20 192"/>
<path stroke-width="1" stroke="black" d="M 172 97 119 219"/>
<path stroke-width="1" stroke="black" d="M 172 97 196 193"/>
<path stroke-width="1" stroke="black" d="M 172 97 302 122"/>
<path stroke-width="1" stroke="black" d="M 172 97 161 20"/>
<path stroke-width="1" stroke="black" d="M 172 97 88 125"/>
<path stroke-width="1" stroke="black" d="M 172 97 420 138"/>
<path stroke-width="1" stroke="black" d="M 172 97 130 281"/>
<path stroke-width="1" stroke="black" d="M 172 97 251 177"/>
<path stroke-width="1" stroke="black" d="M 172 97 389 254"/>
<path stroke-width="1" stroke="black" d="M 194 162 48 320"/>
<path stroke-width="1" stroke="black" d="M 194 162 389 254"/>
<path stroke-width="1" stroke="black" d="M 194 162 255 164"/>
<path stroke-width="1" stroke="black" d="M 251 177 196 193"/>
<path stroke-width="1" stroke="black" d="M 251 177 302 122"/>
<path stroke-width="1" stroke="black" d="M 251 177 161 20"/>
<path stroke-width="1" stroke="black" d="M 251 177 88 125"/>
<path stroke-width="1" stroke="black" d="M 251 177 420 138"/>
<path stroke-width="1" stroke="black" d="M 251 177 130 281"/>
<path stroke-width="1" stroke="black" d="M 251 177 265 287"/>
<path stroke-width="1" stroke="black" d="M 251 177 194 162"/>
<path stroke-width="1" stroke="black" d="M 251 177 172 97"/>
<path stroke-width="1" stroke="black" d="M 265 287 255 164"/>
<path stroke-width="1" stroke="black" d="M 265 287 389 254"/>
<path stroke-width="1" stroke="black" d="M 265 287 48 320"/>
<path stroke-width="1" stroke="black" d="M 265 287 20 192"/>
<path stroke-width="1" stroke="black" d="M 265 287 119 219"/>
<path stroke-width="1" stroke="black" d="M 265 287 196 193"/>
<path stroke-width="1" stroke="black" d="M 265 287 302 122"/>
<path stroke-width="1" stroke="black" d="M 265 287 161 20"/>
<path stroke-width="1" stroke="black" d="M 265 287 88 125"/>
<path stroke-width="1" stroke="black" d="M 265 287 420 138"/>
<path stroke-width="1" stroke="black" d="M 265 287 130 281"/>
<path stroke-width="1" stroke="black" d="M 265 287 251 177"/>
<path stroke-width="1" stroke="black" d="M 265 287 194 162"/>
<path stroke-width="1" stroke="black" d="M 265 287 172 97"/>
<path stroke-width="1" stroke="black" d="M 161 20 420 138"/>
<path stroke-width="1" stroke="black" d="M 161 20 88 125"/>
<path stroke-width="1" stroke="black" d="M 161 20 302 122"/>
<path stroke-width="1" stroke="black" d="M 161 20 196 193"/>
<path stroke-width="1" stroke="black" d="M 48 320 255 164"/>
<path stroke-width="1" stroke="black" d="M 48 320 389 254"/>
<path stroke-width="1" stroke="black" d="M 48 320 20 192"/>
<path stroke-width="1" stroke="black" d="M 48 320 119 219"/>
<path stroke-width="1" stroke="black" d="M 48 320 196 193"/>
<path stroke-width="1" stroke="black" d="M 48 320 302 122"/>
<path stroke-width="1" stroke="black" d="M 48 320 161 20"/>
<path stroke-width="1" stroke="black" d="M 48 320 88 125"/>
<path stroke-width="1" stroke="black" d="M 48 320 420 138"/>
<path stroke-width="1" stroke="black" d="M 48 320 130 281"/>
<path stroke-width="1" stroke="black" d="M 389 254 172 97"/>
<path stroke-width="1" stroke="black" d="M 48 320 251 177"/>
<path stroke-width="1" stroke="black" d="M 48 320 194 162"/>
<path stroke-width="1" stroke="black" d="M 48 320 172 97"/>
<path stroke-width="1" stroke="black" d="M 20 192 255 164"/>
<path stroke-width="1" stroke="black" d="M 20 192 389 254"/>
<path stroke-width="1" stroke="black" d="M 20 192 48 320"/>
<path stroke-width="1" stroke="black" d="M 20 192 119 219"/>
<path stroke-width="1" stroke="black" d="M 20 192 196 193"/>
<path stroke-width="1" stroke="black" d="M 20 192 302 122"/>
<path stroke-width="1" stroke="black" d="M 20 192 161 20"/>
<path stroke-width="1" stroke="black" d="M 20 192 88 125"/>
<path stroke-width="1" stroke="black" d="M 48 320 265 287"/>
<path stroke-width="1" stroke="black" d="M 389 254 194 162"/>
<path stroke-width="1" stroke="black" d="M 389 254 265 287"/>
<path stroke-width="1" stroke="black" d="M 389 254 251 177"/>
<path stroke-width="1" stroke="black" d="M 255 164 48 320"/>
<path stroke-width="1" stroke="black" d="M 255 164 20 192"/>
<path stroke-width="1" stroke="black" d="M 255 164 119 219"/>
<path stroke-width="1" stroke="black" d="M 255 164 196 193"/>
<path stroke-width="1" stroke="black" d="M 255 164 302 122"/>
<path stroke-width="1" stroke="black" d="M 255 164 161 20"/>
<path stroke-width="1" stroke="black" d="M 255 164 88 125"/>
<path stroke-width="1" stroke="black" d="M 255 164 420 138"/>
<path stroke-width="1" stroke="black" d="M 255 164 130 281"/>
<path stroke-width="1" stroke="black" d="M 255 164 251 177"/>
<path stroke-width="1" stroke="black" d="M 255 164 265 287"/>
<path stroke-width="1" stroke="black" d="M 255 164 194 162"/>
<path stroke-width="1" stroke="black" d="M 255 164 172 97"/>
<path stroke-width="1" stroke="black" d="M 389 254 255 164"/>
<path stroke-width="1" stroke="black" d="M 389 254 48 320"/>
<path stroke-width="1" stroke="black" d="M 389 254 20 192"/>
<path stroke-width="1" stroke="black" d="M 389 254 119 219"/>
<path stroke-width="1" stroke="black" d="M 389 254 196 193"/>
<path stroke-width="1" stroke="black" d="M 389 254 302 122"/>
<path stroke-width="1" stroke="black" d="M 389 254 161 20"/>
<path stroke-width="1" stroke="black" d="M 389 254 88 125"/>
<path stroke-width="1" stroke="black" d="M 389 254 420 138"/>
<path stroke-width="1" stroke="black" d="M 389 254 130 281"/>
<path stroke-width="1" stroke="black" d="M 20 192 420 138"/>
<path stroke-width="1" stroke="black" d="M 172 97 265 287"/>
<path stroke-width="1" stroke="black" d="M 20 192 130 281"/>
<path stroke-width="1" stroke="black" d="M 20 192 265 287"/>
<path stroke-width="1" stroke="black" d="M 196 193 265 287"/>
<path stroke-width="1" stroke="black" d="M 196 193 194 162"/>
<path stroke-width="1" stroke="black" d="M 196 193 172 97"/>
<path stroke-width="1" stroke="black" d="M 302 122 255 164"/>
<path stroke-width="1" stroke="black" d="M 302 122 389 254"/>
<path stroke-width="1" stroke="black" d="M 302 122 48 320"/>
<path stroke-width="1" stroke="black" d="M 302 122 20 192"/>
<path stroke-width="1" stroke="black" d="M 302 122 119 219"/>
<path stroke-width="1" stroke="black" d="M 302 122 196 193"/>
<path stroke-width="1" stroke="black" d="M 302 122 161 20"/>
<path stroke-width="1" stroke="black" d="M 196 193 251 177"/>
<path stroke-width="1" stroke="black" d="M 302 122 88 125"/>
<path stroke-width="1" stroke="black" d="M 302 122 130 281"/>
<path stroke-width="1" stroke="black" d="M 302 122 251 177"/>
<path stroke-width="1" stroke="black" d="M 302 122 265 287"/>
<path stroke-width="1" stroke="black" d="M 302 122 194 162"/>
<path stroke-width="1" stroke="black" d="M 302 122 172 97"/>
<path stroke-width="1" stroke="black" d="M 161 20 255 164"/>
<path stroke-width="1" stroke="black" d="M 161 20 389 254"/>
<path stroke-width="1" stroke="black" d="M 161 20 48 320"/>
<path stroke-width="1" stroke="black" d="M 161 20 20 192"/>
<path stroke-width="1" stroke="black" d="M 161 20 119 219"/>
<path stroke-width="1" stroke="black" d="M 302 122 420 138"/>
<path stroke-width="1" stroke="black" d="M 196 193 130 281"/>
<path stroke-width="1" stroke="black" d="M 196 193 420 138"/>
<path stroke-width="1" stroke="black" d="M 196 193 88 125"/>
<path stroke-width="1" stroke="black" d="M 20 192 194 162"/>
<path stroke-width="1" stroke="black" d="M 20 192 172 97"/>
<path stroke-width="1" stroke="black" d="M 119 219 255 164"/>
<path stroke-width="1" stroke="black" d="M 119 219 389 254"/>
<path stroke-width="1" stroke="black" d="M 119 219 48 320"/>
<path stroke-width="1" stroke="black" d="M 119 219 20 192"/>
<path stroke-width="1" stroke="black" d="M 119 219 196 193"/>
<path stroke-width="1" stroke="black" d="M 119 219 302 122"/>
<path stroke-width="1" stroke="black" d="M 119 219 161 20"/>
<path stroke-width="1" stroke="black" d="M 119 219 88 125"/>
<path stroke-width="1" stroke="black" d="M 119 219 420 138"/>
<path stroke-width="1" stroke="black" d="M 119 219 130 281"/>
<path stroke-width="1" stroke="black" d="M 119 219 251 177"/>
<path stroke-width="1" stroke="black" d="M 119 219 265 287"/>
<path stroke-width="1" stroke="black" d="M 119 219 194 162"/>
<path stroke-width="1" stroke="black" d="M 119 219 172 97"/>
<path stroke-width="1" stroke="black" d="M 196 193 255 164"/>
<path stroke-width="1" stroke="black" d="M 196 193 389 254"/>
<path stroke-width="1" stroke="black" d="M 196 193 48 320"/>
<path stroke-width="1" stroke="black" d="M 196 193 20 192"/>
<path stroke-width="1" stroke="black" d="M 196 193 119 219"/>
<path stroke-width="1" stroke="black" d="M 196 193 302 122"/>
<path stroke-width="1" stroke="black" d="M 196 193 161 20"/>
<path stroke-width="1" stroke="black" d="M 20 192 251 177"/>
<path stroke-width="1" stroke="black" d="M 172 97 194 162"/>
<circle cx="255" cy="164" r="7.0" style="fill:gray;stroke:black;stroke-width:1.0"/>
<circle cx="389" cy="254" r="7.0" style="fill:gray;stroke:black;stroke-width:1.0"/>
<circle cx="48" cy="320" r="7.0" style="fill:gray;stroke:black;stroke-width:1.0"/>
<circle cx="20" cy="192" r="7.0" style="fill:gray;stroke:black;stroke-width:1.0"/>
<circle cx="119" cy="219" r="7.0" style="fill:gray;stroke:black;stroke-width:1.0"/>
<circle cx="196" cy="193" r="7.0" style="fill:gray;stroke:black;stroke-width:1.0"/>
<circle cx="302" cy="122" r="7.0" style="fill:gray;stroke:black;stroke-width:1.0"/>
<circle cx="161" cy="20" r="7.0" style="fill:gray;stroke:black;stroke-width:1.0"/>
<circle cx="88" cy="125" r="7.0" style="fill:gray;stroke:black;stroke-width:1.0"/>
<circle cx="420" cy="138" r="7.0" style="fill:gray;stroke:black;stroke-width:1.0"/>
<circle cx="130" cy="281" r="7.0" style="fill:gray;stroke:black;stroke-width:1.0"/>
<circle cx="251" cy="177" r="7.0" style="fill:gray;stroke:black;stroke-width:1.0"/>
<circle cx="265" cy="287" r="7.0" style="fill:gray;stroke:black;stroke-width:1.0"/>
<circle cx="194" cy="162" r="7.0" style="fill:gray;stroke:black;stroke-width:1.0"/>
<circle cx="172" cy="97" r="7.0" style="fill:gray;stroke:black;stroke-width:1.0"/>
</svg>
