<svg width="440" height="340" xmlns="http://www.w3.org/2000/svg">
<path stroke-width="0.7349397590361446" stroke="black" d="M 228 60 74 320"/>
<path stroke-width="0.5" stroke="black" d="M 20 138 411 222"/>
<path stroke-width="0.7349397590361446" stroke="black" d="M 20 138 352 141"/>
<path stroke-width="0.5" stroke="black" d="M 20 138 144 23"/>
<path stroke-width="0.7349397590361446" stroke="black" d="M 20 138 223 54"/>
<path stroke-width="0.7349397590361446" stroke="black" d="M 20 138 307 29"/>
<path stroke-width="2.144578313253012" stroke="black" d="M 20 138 147 37"/>
<path stroke-width="0.7349397590361446" stroke="black" d="M 20 138 194 252"/>
<path stroke-width="1.2048192771084336" stroke="black" d="M 144 23 228 60"/>
<path stroke-width="0.7349397590361446" stroke="black" d="M 144 23 74 320"/>
<path stroke-width="0.5" stroke="black" d="M 144 23 420 20"/>
<path stroke-width="0.7349397590361446" stroke="black" d="M 20 138 43 83"/>
<path stroke-width="0.5" stroke="black" d="M 144 23 253 205"/>
<path stroke-width="1.2048192771084336" stroke="black" d="M 144 23 160 131"/>
<path stroke-width="1.2048192771084336" stroke="black" d="M 144 23 43 83"/>
<path stroke-width="0.7349397590361446" stroke="black" d="M 144 23 411 222"/>
<path stroke-width="1.2048192771084336" stroke="black" d="M 144 23 352 141"/>
<path stroke-width="0.5" stroke="black" d="M 144 23 20 138"/>
<path stroke-width="1.2048192771084336" stroke="black" d="M 144 23 223 54"/>
<path stroke-width="1.2048192771084336" stroke="black" d="M 144 23 307 29"/>
<path stroke-width="3.789156626506024" stroke="black" d="M 144 23 147 37"/>
<path stroke-width="1.2048192771084336" stroke="black" d="M 144 23 194 252"/>
<path stroke-width="1.2048192771084336" stroke="black" d="M 223 54 228 60"/>
<path stroke-width="1.2048192771084336" stroke="black" d="M 144 23 246 115"/>
<path stroke-width="0.7349397590361446" stroke="black" d="M 223 54 74 320"/>
<path stroke-width="0.7349397590361446" stroke="black" d="M 20 138 160 131"/>
<path stroke-width="0.5" stroke="black" d="M 20 138 253 205"/>
<path stroke-width="0.7349397590361446" stroke="black" d="M 411 222 144 23"/>
<path stroke-width="0.7349397590361446" stroke="black" d="M 411 222 223 54"/>
<path stroke-width="0.7349397590361446" stroke="black" d="M 411 222 307 29"/>
<path stroke-width="2.144578313253012" stroke="black" d="M 411 222 147 37"/>
<path stroke-width="0.7349397590361446" stroke="black" d="M 411 222 194 252"/>
<path stroke-width="1.2048192771084336" stroke="black" d="M 352 141 228 60"/>
<path stroke-width="0.7349397590361446" stroke="black" d="M 352 141 74 320"/>
<path stroke-width="0.7349397590361446" stroke="black" d="M 352 141 420 20"/>
<path stroke-width="0.7349397590361446" stroke="black" d="M 352 141 253 205"/>
<path stroke-width="1.2048192771084336" stroke="black" d="M 352 141 246 115"/>
<path stroke-width="0.7349397590361446" stroke="black" d="M 20 138 246 115"/>
<path stroke-width="1.2048192771084336" stroke="black" d="M 352 141 160 131"/>
<path stroke-width="0.7349397590361446" stroke="black" d="M 352 141 411 222"/>
<path stroke-width="0.7349397590361446" stroke="black" d="M 352 141 20 138"/>
<path stroke-width="1.2048192771084336" stroke="black" d="M 352 141 144 23"/>
<path stroke-width="1.2048192771084336" stroke="black" d="M 352 141 223 54"/>
<path stroke-width="1.2048192771084336" stroke="black" d="M 352 141 307 29"/>
<path stroke-width="4.024096385542169" stroke="black" d="M 352 141 147 37"/>
<path stroke-width="1.2048192771084336" stroke="black" d="M 352 141 194 252"/>
<path stroke-width="0.7349397590361446" stroke="black" d="M 20 138 228 60"/>
<path stroke-width="0.5" stroke="black" d="M 20 138 74 320"/>
<path stroke-width="0.6174698795180723" stroke="black" d="M 20 138 420 20"/>
<path stroke-width="1.2048192771084336" stroke="black" d="M 352 141 43 83"/>
<path stroke-width="0.7349397590361446" stroke="black" d="M 223 54 420 20"/>
<path stroke-width="0.7349397590361446" stroke="black" d="M 223 54 253 205"/>
<path stroke-width="1.2048192771084336" stroke="black" d="M 223 54 246 115"/>
<path stroke-width="20.0" stroke="black" d="M 147 37 246 115"/>
<path stroke-width="15.301204819277109" stroke="black" d="M 147 37 160 131"/>
<path stroke-width="4.024096385542169" stroke="black" d="M 147 37 43 83"/>
<path stroke-width="2.144578313253012" stroke="black" d="M 147 37 411 222"/>
<path stroke-width="4.024096385542169" stroke="black" d="M 147 37 352 141"/>
<path stroke-width="2.144578313253012" stroke="black" d="M 147 37 20 138"/>
<path stroke-width="3.789156626506024" stroke="black" d="M 147 37 144 23"/>
<path stroke-width="12.481927710843374" stroke="black" d="M 147 37 223 54"/>
<path stroke-width="4.024096385542169" stroke="black" d="M 147 37 307 29"/>
<path stroke-width="4.024096385542169" stroke="black" d="M 147 37 194 252"/>
<path stroke-width="7.195783132530121" stroke="black" d="M 147 37 253 205"/>
<path stroke-width="1.2048192771084336" stroke="black" d="M 194 252 228 60"/>
<path stroke-width="0.7349397590361446" stroke="black" d="M 194 252 420 20"/>
<path stroke-width="0.7349397590361446" stroke="black" d="M 194 252 253 205"/>
<path stroke-width="1.2048192771084336" stroke="black" d="M 194 252 246 115"/>
<path stroke-width="1.2048192771084336" stroke="black" d="M 194 252 160 131"/>
<path stroke-width="1.2048192771084336" stroke="black" d="M 194 252 43 83"/>
<path stroke-width="0.7349397590361446" stroke="black" d="M 194 252 411 222"/>
<path stroke-width="1.2048192771084336" stroke="black" d="M 194 252 352 141"/>
<path stroke-width="0.7349397590361446" stroke="black" d="M 194 252 20 138"/>
<path stroke-width="1.2048192771084336" stroke="black" d="M 194 252 144 23"/>
<path stroke-width="1.2048192771084336" stroke="black" d="M 194 252 223 54"/>
<path stroke-width="0.7349397590361446" stroke="black" d="M 194 252 74 320"/>
<path stroke-width="2.144578313253012" stroke="black" d="M 147 37 420 20"/>
<path stroke-width="2.144578313253012" stroke="black" d="M 147 37 74 320"/>
<path stroke-width="13.421686746987952" stroke="black" d="M 147 37 228 60"/>
<path stroke-width="1.2048192771084336" stroke="black" d="M 223 54 160 131"/>
<path stroke-width="1.2048192771084336" stroke="black" d="M 223 54 43 83"/>
<path stroke-width="0.7349397590361446" stroke="black" d="M 223 54 411 222"/>
<path stroke-width="1.2048192771084336" stroke="black" d="M 223 54 352 141"/>
<path stroke-width="0.7349397590361446" stroke="black" d="M 223 54 20 138"/>
<path stroke-width="1.2048192771084336" stroke="black" d="M 223 54 144 23"/>
<path stroke-width="1.2048192771084336" stroke="black" d="M 223 54 307 29"/>
<path stroke-width="12.481927710843374" stroke="black" d="M 223 54 147 37"/>
<path stroke-width="1.2048192771084336" stroke="black" d="M 223 54 194 252"/>
<path stroke-width="1.2048192771084336" stroke="black" d="M 307 29 228 60"/>
<path stroke-width="0.7349397590361446" stroke="black" d="M 307 29 74 320"/>
<path stroke-width="0.7349397590361446" stroke="black" d="M 307 29 420 20"/>
<path stroke-width="0.7349397590361446" stroke="black" d="M 307 29 253 205"/>
<path stroke-width="1.2048192771084336" stroke="black" d="M 307 29 246 115"/>
<path stroke-width="1.2048192771084336" stroke="black" d="M 307 29 160 131"/>
<path stroke-width="1.2048192771084336" stroke="black" d="M 307 29 43 83"/>
<path stroke-width="0.7349397590361446" stroke="black" d="M 307 29 411 222"/>
<path stroke-width="1.2048192771084336" stroke="black" d="M 307 29 352 141"/>
<path stroke-width="0.7349397590361446" stroke="black" d="M 307 29 20 138"/>
<path stroke-width="1.2048192771084336" stroke="black" d="M 307 29 144 23"/>
<path stroke-width="1.2048192771084336" stroke="black" d="M 307 29 223 54"/>
<path stroke-width="4.024096385542169" stroke="black" d="M 307 29 147 37"/>
<path stroke-width="1.2048192771084336" stroke="black" d="M 307 29 194 252"/>
<path stroke-width="0.5" stroke="black" d="M 411 222 20 138"/>
<path stroke-width="0.7349397590361446" stroke="black" d="M 411 222 352 141"/>
<path stroke-width="0.7349397590361446" stroke="black" d="M 411 222 43 83"/>
<path stroke-width="0.7349397590361446" stroke="black" d="M 411 222 160 131"/>
<path stroke-width="0.7349397590361446" stroke="black" d="M 420 20 228 60"/>
<path stroke-width="0.5" stroke="black" d="M 420 20 74 320"/>
<path stroke-width="0.5" stroke="black" d="M 420 20 253 205"/>
<path stroke-width="0.7349397590361446" stroke="black" d="M 420 20 246 115"/>
<path stroke-width="0.7349397590361446" stroke="black" d="M 420 20 160 131"/>
<path stroke-width="0.7349397590361446" stroke="black" d="M 420 20 43 83"/>
<path stroke-width="0.5" stroke="black" d="M 420 20 411 222"/>
<path stroke-width="0.7349397590361446" stroke="black" d="M 420 20 352 141"/>
<path stroke-width="0.6174698795180723" stroke="black" d="M 420 20 20 138"/>
<path stroke-width="0.5" stroke="black" d="M 420 20 144 23"/>
<path stroke-width="0.7349397590361446" stroke="black" d="M 74 320 194 252"/>
<path stroke-width="0.7349397590361446" stroke="black" d="M 420 20 223 54"/>
<path stroke-width="2.144578313253012" stroke="black" d="M 420 20 147 37"/>
<path stroke-width="0.7349397590361446" stroke="black" d="M 420 20 194 252"/>
<path stroke-width="0.7349397590361446" stroke="black" d="M 253 205 228 60"/>
<path stroke-width="0.5" stroke="black" d="M 253 205 74 320"/>
<path stroke-width="0.5" stroke="black" d="M 253 205 420 20"/>
<path stroke-width="0.7349397590361446" stroke="black" d="M 253 205 246 115"/>
<path stroke-width="0.7349397590361446" stroke="black" d="M 253 205 160 131"/>
<path stroke-width="0.7349397590361446" stroke="black" d="M 253 205 43 83"/>
<path stroke-width="0.5" stroke="black" d="M 253 205 411 222"/>
<path stroke-width="0.7349397590361446" stroke="black" d="M 253 205 352 141"/>
<path stroke-width="0.7349397590361446" stroke="black" d="M 420 20 307 29"/>
<path stroke-width="2.144578313253012" stroke="black" d="M 74 320 147 37"/>
<path stroke-width="0.7349397590361446" stroke="black" d="M 74 320 307 29"/>
<path stroke-width="0.7349397590361446" stroke="black" d="M 74 320 223 54"/>
<path stroke-width="0.7349397590361446" stroke="black" d="M 228 60 420 20"/>
<path stroke-width="0.7349397590361446" stroke="black" d="M 228 60 253 205"/>
<path stroke-width="1.2048192771084336" stroke="black" d="M 228 60 246 115"/>
<path stroke-width="1.2048192771084336" stroke="black" d="M 228 60 160 131"/>
<path stroke-width="1.2048192771084336" stroke="black" d="M 228 60 43 83"/>
<path stroke-width="0.7349397590361446" stroke="black" d="M 228 60 411 222"/>
<path stroke-width="1.2048192771084336" stroke="black" d="M 228 60 352 141"/>
<path stroke-width="0.7349397590361446" stroke="black" d="M 228 60 20 138"/>
<path stroke-width="1.2048192771084336" stroke="black" d="M 228 60 144 23"/>
<path stroke-width="1.2048192771084336" stroke="black" d="M 228 60 223 54"/>
<path stroke-width="1.2048192771084336" stroke="black" d="M 228 60 307 29"/>
<path stroke-width="13.421686746987952" stroke="black" d="M 228 60 147 37"/>
<path stroke-width="1.2048192771084336" stroke="black" d="M 228 60 194 252"/>
<path stroke-width="0.7349397590361446" stroke="black" d="M 74 320 228 60"/>
<path stroke-width="0.5" stroke="black" d="M 74 320 420 20"/>
<path stroke-width="0.5" stroke="black" d="M 74 320 253 205"/>
<path stroke-width="0.7349397590361446" stroke="black" d="M 74 320 246 115"/>
<path stroke-width="0.7349397590361446" stroke="black" d="M 74 320 160 131"/>
<path stroke-width="0.7349397590361446" stroke="black" d="M 74 320 43 83"/>
<path stroke-width="0.8524096385542168" stroke="black" d="M 74 320 411 222"/>
<path stroke-width="0.7349397590361446" stroke="black" d="M 74 320 352 141"/>
<path stroke-width="0.5" stroke="black" d="M 74 320 20 138"/>
<path stroke-width="0.7349397590361446" stroke="black" d="M 74 320 144 23"/>
<path stroke-width="0.5" stroke="black" d="M 253 205 20 138"/>
<path stroke-width="1.2048192771084336" stroke="black" d="M 194 252 307 29"/>
<path stroke-width="0.5" stroke="black" d="M 253 205 144 23"/>
<path stroke-width="0.7349397590361446" stroke="black" d="M 253 205 307 29"/>
<path stroke-width="1.2048192771084336" stroke="black" d="M 160 131 307 29"/>
<path stroke-width="15.301204819277109" stroke="black" d="M 160 131 147 37"/>
<path stroke-width="1.2048192771084336" stroke="black" d="M 160 131 194 252"/>
<path stroke-width="1.2048192771084336" stroke="black" d="M 43 83 228 60"/>
<path stroke-width="0.7349397590361446" stroke="black" d="M 43 83 74 320"/>
<path stroke-width="0.7349397590361446" stroke="black" d="M 43 83 420 20"/>
<path stroke-width="0.7349397590361446" stroke="black" d="M 43 83 253 205"/>
<path stroke-width="1.2048192771084336" stroke="black" d="M 43 83 246 115"/>
<path stroke-width="1.2048192771084336" stroke="black" d="M 43 83 160 131"/>
<path stroke-width="0.7349397590361446" stroke="black" d="M 43 83 411 222"/>
<path stroke-width="1.2048192771084336" stroke="black" d="M 160 131 223 54"/>
<path stroke-width="1.2048192771084336" stroke="black" d="M 43 83 352 141"/>
<path stroke-width="1.2048192771084336" stroke="black" d="M 43 83 144 23"/>
<path stroke-width="1.2048192771084336" stroke="black" d="M 43 83 223 54"/>
<path stroke-width="1.2048192771084336" stroke="black" d="M 43 83 307 29"/>
<path stroke-width="4.024096385542169" stroke="black" d="M 43 83 147 37"/>
<path stroke-width="1.2048192771084336" stroke="black" d="M 43 83 194 252"/>
<path stroke-width="0.7349397590361446" stroke="black" d="M 411 222 228 60"/>
<path stroke-width="0.8524096385542168" stroke="black" d="M 411 222 74 320"/>
<path stroke-width="0.5" stroke="black" d="M 411 222 420 20"/>
<path stroke-width="0.5" stroke="black" d="M 411 222 253 205"/>
<path stroke-width="0.7349397590361446" stroke="black" d="M 411 222 246 115"/>
<path stroke-width="0.7349397590361446" stroke="black" d="M 43 83 20 138"/>
<path stroke-width="1.2048192771084336" stroke="black" d="M 160 131 144 23"/>
<path stroke-width="0.7349397590361446" stroke="black" d="M 160 131 20 138"/>
<path stroke-width="1.2048192771084336" stroke="black" d="M 160 131 352 141"/>
<path stroke-width="7.195783132530121" stroke="black" d="M 253 205 147 37"/>
<path stroke-width="0.7349397590361446" stroke="black" d="M 253 205 194 252"/>
<path stroke-width="1.2048192771084336" stroke="black" d="M 246 115 228 60"/>
<path stroke-width="0.7349397590361446" stroke="black" d="M 246 115 74 320"/>
<path stroke-width="0.7349397590361446" stroke="black" d="M 246 115 420 20"/>
<path stroke-width="0.7349397590361446" stroke="black" d="M 246 115 253 205"/>
<path stroke-width="1.2048192771084336" stroke="black" d="M 246 115 160 131"/>
<path stroke-width="1.2048192771084336" stroke="black" d="M 246 115 43 83"/>
<path stroke-width="0.7349397590361446" stroke="black" d="M 246 115 411 222"/>
<path stroke-width="1.2048192771084336" stroke="black" d="M 246 115 352 141"/>
<path stroke-width="0.7349397590361446" stroke="black" d="M 246 115 20 138"/>
<path stroke-width="1.2048192771084336" stroke="black" d="M 246 115 144 23"/>
<path stroke-width="1.2048192771084336" stroke="black" d="M 246 115 223 54"/>
<path stroke-width="1.2048192771084336" stroke="black" d="M 246 115 307 29"/>
<path stroke-width="20.0" stroke="black" d="M 246 115 147 37"/>
<path stroke-width="1.2048192771084336" stroke="black" d="M 246 115 194 252"/>
<path stroke-width="1.2048192771084336" stroke="black" d="M 160 131 228 60"/>
<path stroke-width="0.7349397590361446" stroke="black" d="M 160 131 74 320"/>
<path stroke-width="0.7349397590361446" stroke="black" d="M 160 131 420 20"/>
<path stroke-width="0.7349397590361446" stroke="black" d="M 160 131 253 205"/>
<path stroke-width="1.2048192771084336" stroke="black" d="M 160 131 246 115"/>
<path stroke-width="1.2048192771084336" stroke="black" d="M 160 131 43 83"/>
<path stroke-width="0.7349397590361446" stroke="black" d="M 160 131 411 222"/>
<path stroke-width="0.7349397590361446" stroke="black" d="M 253 205 223 54"/>
<path stroke-width="4.024096385542169" stroke="black" d="M 194 252 147 37"/>
<circle cx="228" cy="60" r="7.0" style="fill:gray;stroke:black;stroke-width:1.0"/>
<circle cx="74" cy="320" r="7.0" style="fill:gray;stroke:black;stroke-width:1.0"/>
<circle cx="420" cy="20" r="7.0" style="fill:gray;stroke:black;stroke-width:1.0"/>
<circle cx="253" cy="205" r="7.0" style="fill:gray;stroke:black;stroke-width:1.0"/>
<circle cx="246" cy="115" r="7.0" style="fill:gray;stroke:black;stroke-width:1.0"/>
<circle cx="160" cy="131" r="7.0" style="fill:gray;stroke:black;stroke-width:1.0"/>
<circle cx="43" cy="83" r="7.0" style="fill:gray;stroke:black;stroke-width:1.0"/>
<circle cx="411" cy="222" r="7.0" style="fill:gray;stroke:black;stroke-width:1.0"/>
<circle cx="352" cy="141" r="7.0" style="fill:gray;stroke:black;stroke-width:1.0"/>
<circle cx="20" cy="138" r="7.0" style="fill:gray;stroke:black;stroke-width:1.0"/>
<circle cx="144" cy="23" r="7.0" style="fill:gray;stroke:black;stroke-width:1.0"/>
<circle cx="223" cy="54" r="7.0" style="fill:gray;stroke:black;stroke-width:1.0"/>
<circle cx="307" cy="29" r="7.0" style="fill:gray;stroke:black;stroke-width:1.0"/>
<circle cx="147" cy="37" r="7.0" style="fill:gray;stroke:black;stroke-width:1.0"/>
<circle cx="194" cy="252" r="7.0" style="fill:gray;stroke:black;stroke-width:1.0"/>
</svg>
