<svg width="440" height="340" xmlns="http://www.w3.org/2000/svg">
<path stroke-width="1" stroke="black" d="M 234 159 249 164"/>
<path stroke-width="1" stroke="black" d="M 308 275 227 223"/>
<path stroke-width="1" stroke="black" d="M 308 275 202 320"/>
<path stroke-width="1" stroke="black" d="M 308 275 323 156"/>
<path stroke-width="1" stroke="black" d="M 308 275 324 84"/>
<path stroke-width="1" stroke="black" d="M 308 275 343 52"/>
<path stroke-width="1" stroke="black" d="M 308 275 107 283"/>
<path stroke-width="1" stroke="black" d="M 308 275 223 74"/>
<path stroke-width="1" stroke="black" d="M 308 275 141 139"/>
<path stroke-width="1" stroke="black" d="M 308 275 99 256"/>
<path stroke-width="1" stroke="black" d="M 308 275 403 123"/>
<path stroke-width="1" stroke="black" d="M 308 275 266 22"/>
<path stroke-width="1" stroke="black" d="M 308 275 411 202"/>
<path stroke-width="1" stroke="black" d="M 308 275 405 207"/>
<path stroke-width="1" stroke="black" d="M 308 275 192 298"/>
<path stroke-width="1" stroke="black" d="M 107 283 234 159"/>
<path stroke-width="1" stroke="black" d="M 107 283 249 164"/>
<path stroke-width="1" stroke="black" d="M 107 283 420 115"/>
<path stroke-width="1" stroke="black" d="M 107 283 155 23"/>
<path stroke-width="1" stroke="black" d="M 107 283 107 151"/>
<path stroke-width="1" stroke="black" d="M 308 275 54 86"/>
<path stroke-width="1" stroke="black" d="M 308 275 322 286"/>
<path stroke-width="1" stroke="black" d="M 308 275 338 276"/>
<path stroke-width="1" stroke="black" d="M 308 275 46 97"/>
<path stroke-width="1" stroke="black" d="M 343 52 324 84"/>
<path stroke-width="1" stroke="black" d="M 343 52 308 275"/>
<path stroke-width="1" stroke="black" d="M 343 52 107 283"/>
<path stroke-width="1" stroke="black" d="M 343 52 223 74"/>
<path stroke-width="1" stroke="black" d="M 343 52 141 139"/>
<path stroke-width="1" stroke="black" d="M 343 52 99 256"/>
<path stroke-width="1" stroke="black" d="M 343 52 403 123"/>
<path stroke-width="1" stroke="black" d="M 343 52 266 22"/>
<path stroke-width="1" stroke="black" d="M 343 52 411 202"/>
<path stroke-width="1" stroke="black" d="M 107 283 20 205"/>
<path stroke-width="1" stroke="black" d="M 343 52 405 207"/>
<path stroke-width="1" stroke="black" d="M 308 275 234 159"/>
<path stroke-width="1" stroke="black" d="M 308 275 249 164"/>
<path stroke-width="1" stroke="black" d="M 308 275 420 115"/>
<path stroke-width="1" stroke="black" d="M 308 275 155 23"/>
<path stroke-width="1" stroke="black" d="M 308 275 107 151"/>
<path stroke-width="1" stroke="black" d="M 308 275 20 205"/>
<path stroke-width="1" stroke="black" d="M 308 275 68 77"/>
<path stroke-width="1" stroke="black" d="M 308 275 49 228"/>
<path stroke-width="1" stroke="black" d="M 308 275 206 20"/>
<path stroke-width="1" stroke="black" d="M 343 52 192 298"/>
<path stroke-width="1" stroke="black" d="M 343 52 323 156"/>
<path stroke-width="1" stroke="black" d="M 107 283 68 77"/>
<path stroke-width="1" stroke="black" d="M 107 283 206 20"/>
<path stroke-width="1" stroke="black" d="M 223 74 68 77"/>
<path stroke-width="1" stroke="black" d="M 223 74 49 228"/>
<path stroke-width="1" stroke="black" d="M 223 74 206 20"/>
<path stroke-width="1" stroke="black" d="M 223 74 46 97"/>
<path stroke-width="1" stroke="black" d="M 223 74 338 276"/>
<path stroke-width="1" stroke="black" d="M 223 74 322 286"/>
<path stroke-width="1" stroke="black" d="M 223 74 54 86"/>
<path stroke-width="1" stroke="black" d="M 223 74 227 223"/>
<path stroke-width="1" stroke="black" d="M 223 74 202 320"/>
<path stroke-width="1" stroke="black" d="M 223 74 323 156"/>
<path stroke-width="1" stroke="black" d="M 223 74 324 84"/>
<path stroke-width="1" stroke="black" d="M 223 74 343 52"/>
<path stroke-width="1" stroke="black" d="M 223 74 308 275"/>
<path stroke-width="1" stroke="black" d="M 223 74 107 283"/>
<path stroke-width="1" stroke="black" d="M 223 74 141 139"/>
<path stroke-width="1" stroke="black" d="M 223 74 99 256"/>
<path stroke-width="1" stroke="black" d="M 223 74 403 123"/>
<path stroke-width="1" stroke="black" d="M 223 74 266 22"/>
<path stroke-width="1" stroke="black" d="M 223 74 411 202"/>
<path stroke-width="1" stroke="black" d="M 223 74 20 205"/>
<path stroke-width="1" stroke="black" d="M 223 74 107 151"/>
<path stroke-width="1" stroke="black" d="M 223 74 155 23"/>
<path stroke-width="1" stroke="black" d="M 223 74 420 115"/>
<path stroke-width="1" stroke="black" d="M 107 283 46 97"/>
<path stroke-width="1" stroke="black" d="M 107 283 338 276"/>
<path stroke-width="1" stroke="black" d="M 107 283 322 286"/>
<path stroke-width="1" stroke="black" d="M 107 283 54 86"/>
<path stroke-width="1" stroke="black" d="M 107 283 227 223"/>
<path stroke-width="1" stroke="black" d="M 107 283 202 320"/>
<path stroke-width="1" stroke="black" d="M 107 283 323 156"/>
<path stroke-width="1" stroke="black" d="M 107 283 324 84"/>
<path stroke-width="1" stroke="black" d="M 107 283 343 52"/>
<path stroke-width="1" stroke="black" d="M 107 283 49 228"/>
<path stroke-width="1" stroke="black" d="M 107 283 308 275"/>
<path stroke-width="1" stroke="black" d="M 107 283 141 139"/>
<path stroke-width="1" stroke="black" d="M 107 283 99 256"/>
<path stroke-width="1" stroke="black" d="M 107 283 403 123"/>
<path stroke-width="1" stroke="black" d="M 107 283 266 22"/>
<path stroke-width="1" stroke="black" d="M 107 283 411 202"/>
<path stroke-width="1" stroke="black" d="M 107 283 405 207"/>
<path stroke-width="1" stroke="black" d="M 107 283 192 298"/>
<path stroke-width="1" stroke="black" d="M 223 74 234 159"/>
<path stroke-width="1" stroke="black" d="M 223 74 249 164"/>
<path stroke-width="1" stroke="black" d="M 107 283 223 74"/>
<path stroke-width="1" stroke="black" d="M 223 74 405 207"/>
<path stroke-width="1" stroke="black" d="M 343 52 202 320"/>
<path stroke-width="1" stroke="black" d="M 343 52 54 86"/>
<path stroke-width="1" stroke="black" d="M 323 156 234 159"/>
<path stroke-width="1" stroke="black" d="M 323 156 249 164"/>
<path stroke-width="1" stroke="black" d="M 323 156 420 115"/>
<path stroke-width="1" stroke="black" d="M 323 156 155 23"/>
<path stroke-width="1" stroke="black" d="M 323 156 107 151"/>
<path stroke-width="1" stroke="black" d="M 323 156 20 205"/>
<path stroke-width="1" stroke="black" d="M 323 156 68 77"/>
<path stroke-width="1" stroke="black" d="M 323 156 49 228"/>
<path stroke-width="1" stroke="black" d="M 323 156 206 20"/>
<path stroke-width="1" stroke="black" d="M 323 156 46 97"/>
<path stroke-width="1" stroke="black" d="M 323 156 338 276"/>
<path stroke-width="1" stroke="black" d="M 323 156 322 286"/>
<path stroke-width="1" stroke="black" d="M 323 156 54 86"/>
<path stroke-width="1" stroke="black" d="M 323 156 227 223"/>
<path stroke-width="1" stroke="black" d="M 323 156 202 320"/>
<path stroke-width="1" stroke="black" d="M 323 156 324 84"/>
<path stroke-width="1" stroke="black" d="M 323 156 343 52"/>
<path stroke-width="1" stroke="black" d="M 323 156 308 275"/>
<path stroke-width="1" stroke="black" d="M 323 156 107 283"/>
<path stroke-width="1" stroke="black" d="M 202 320 192 298"/>
<path stroke-width="1" stroke="black" d="M 202 320 405 207"/>
<path stroke-width="1" stroke="black" d="M 202 320 411 202"/>
<path stroke-width="1" stroke="black" d="M 202 320 266 22"/>
<path stroke-width="1" stroke="black" d="M 202 320 155 23"/>
<path stroke-width="1" stroke="black" d="M 202 320 107 151"/>
<path stroke-width="1" stroke="black" d="M 202 320 20 205"/>
<path stroke-width="1" stroke="black" d="M 202 320 68 77"/>
<path stroke-width="1" stroke="black" d="M 202 320 49 228"/>
<path stroke-width="1" stroke="black" d="M 202 320 206 20"/>
<path stroke-width="1" stroke="black" d="M 202 320 46 97"/>
<path stroke-width="1" stroke="black" d="M 202 320 338 276"/>
<path stroke-width="1" stroke="black" d="M 202 320 322 286"/>
<path stroke-width="1" stroke="black" d="M 323 156 223 74"/>
<path stroke-width="1" stroke="black" d="M 202 320 54 86"/>
<path stroke-width="1" stroke="black" d="M 202 320 323 156"/>
<path stroke-width="1" stroke="black" d="M 202 320 324 84"/>
<path stroke-width="1" stroke="black" d="M 202 320 343 52"/>
<path stroke-width="1" stroke="black" d="M 202 320 308 275"/>
<path stroke-width="1" stroke="black" d="M 202 320 107 283"/>
<path stroke-width="1" stroke="black" d="M 202 320 223 74"/>
<path stroke-width="1" stroke="black" d="M 202 320 141 139"/>
<path stroke-width="1" stroke="black" d="M 202 320 99 256"/>
<path stroke-width="1" stroke="black" d="M 202 320 403 123"/>
<path stroke-width="1" stroke="black" d="M 202 320 227 223"/>
<path stroke-width="1" stroke="black" d="M 343 52 227 223"/>
<path stroke-width="1" stroke="black" d="M 323 156 141 139"/>
<path stroke-width="1" stroke="black" d="M 323 156 403 123"/>
<path stroke-width="1" stroke="black" d="M 324 84 141 139"/>
<path stroke-width="1" stroke="black" d="M 324 84 99 256"/>
<path stroke-width="1" stroke="black" d="M 324 84 403 123"/>
<path stroke-width="1" stroke="black" d="M 324 84 266 22"/>
<path stroke-width="1" stroke="black" d="M 324 84 411 202"/>
<path stroke-width="1" stroke="black" d="M 324 84 405 207"/>
<path stroke-width="1" stroke="black" d="M 324 84 192 298"/>
<path stroke-width="1" stroke="black" d="M 343 52 234 159"/>
<path stroke-width="1" stroke="black" d="M 343 52 249 164"/>
<path stroke-width="1" stroke="black" d="M 343 52 420 115"/>
<path stroke-width="1" stroke="black" d="M 343 52 155 23"/>
<path stroke-width="1" stroke="black" d="M 343 52 107 151"/>
<path stroke-width="1" stroke="black" d="M 343 52 20 205"/>
<path stroke-width="1" stroke="black" d="M 343 52 68 77"/>
<path stroke-width="1" stroke="black" d="M 343 52 49 228"/>
<path stroke-width="1" stroke="black" d="M 343 52 206 20"/>
<path stroke-width="1" stroke="black" d="M 343 52 46 97"/>
<path stroke-width="1" stroke="black" d="M 343 52 338 276"/>
<path stroke-width="1" stroke="black" d="M 343 52 322 286"/>
<path stroke-width="1" stroke="black" d="M 324 84 223 74"/>
<path stroke-width="1" stroke="black" d="M 324 84 107 283"/>
<path stroke-width="1" stroke="black" d="M 324 84 308 275"/>
<path stroke-width="1" stroke="black" d="M 324 84 343 52"/>
<path stroke-width="1" stroke="black" d="M 323 156 266 22"/>
<path stroke-width="1" stroke="black" d="M 323 156 411 202"/>
<path stroke-width="1" stroke="black" d="M 323 156 405 207"/>
<path stroke-width="1" stroke="black" d="M 323 156 192 298"/>
<path stroke-width="1" stroke="black" d="M 324 84 234 159"/>
<path stroke-width="1" stroke="black" d="M 324 84 249 164"/>
<path stroke-width="1" stroke="black" d="M 324 84 420 115"/>
<path stroke-width="1" stroke="black" d="M 324 84 155 23"/>
<path stroke-width="1" stroke="black" d="M 324 84 107 151"/>
<path stroke-width="1" stroke="black" d="M 323 156 99 256"/>
<path stroke-width="1" stroke="black" d="M 324 84 20 205"/>
<path stroke-width="1" stroke="black" d="M 324 84 49 228"/>
<path stroke-width="1" stroke="black" d="M 324 84 206 20"/>
<path stroke-width="1" stroke="black" d="M 324 84 46 97"/>
<path stroke-width="1" stroke="black" d="M 324 84 338 276"/>
<path stroke-width="1" stroke="black" d="M 324 84 322 286"/>
<path stroke-width="1" stroke="black" d="M 324 84 54 86"/>
<path stroke-width="1" stroke="black" d="M 324 84 227 223"/>
<path stroke-width="1" stroke="black" d="M 324 84 202 320"/>
<path stroke-width="1" stroke="black" d="M 324 84 323 156"/>
<path stroke-width="1" stroke="black" d="M 324 84 68 77"/>
<path stroke-width="1" stroke="black" d="M 223 74 192 298"/>
<path stroke-width="1" stroke="black" d="M 141 139 234 159"/>
<path stroke-width="1" stroke="black" d="M 141 139 249 164"/>
<path stroke-width="1" stroke="black" d="M 411 202 227 223"/>
<path stroke-width="1" stroke="black" d="M 411 202 202 320"/>
<path stroke-width="1" stroke="black" d="M 411 202 323 156"/>
<path stroke-width="1" stroke="black" d="M 411 202 324 84"/>
<path stroke-width="1" stroke="black" d="M 411 202 343 52"/>
<path stroke-width="1" stroke="black" d="M 411 202 308 275"/>
<path stroke-width="1" stroke="black" d="M 411 202 107 283"/>
<path stroke-width="1" stroke="black" d="M 411 202 223 74"/>
<path stroke-width="1" stroke="black" d="M 411 202 141 139"/>
<path stroke-width="1" stroke="black" d="M 411 202 99 256"/>
<path stroke-width="1" stroke="black" d="M 411 202 403 123"/>
<path stroke-width="1" stroke="black" d="M 411 202 266 22"/>
<path stroke-width="1" stroke="black" d="M 411 202 405 207"/>
<path stroke-width="1" stroke="black" d="M 411 202 192 298"/>
<path stroke-width="1" stroke="black" d="M 405 207 234 159"/>
<path stroke-width="1" stroke="black" d="M 405 207 249 164"/>
<path stroke-width="1" stroke="black" d="M 405 207 420 115"/>
<path stroke-width="1" stroke="black" d="M 405 207 155 23"/>
<path stroke-width="1" stroke="black" d="M 405 207 107 151"/>
<path stroke-width="1" stroke="black" d="M 411 202 54 86"/>
<path stroke-width="1" stroke="black" d="M 411 202 322 286"/>
<path stroke-width="1" stroke="black" d="M 411 202 338 276"/>
<path stroke-width="1" stroke="black" d="M 411 202 46 97"/>
<path stroke-width="1" stroke="black" d="M 266 22 324 84"/>
<path stroke-width="1" stroke="black" d="M 266 22 343 52"/>
<path stroke-width="1" stroke="black" d="M 266 22 308 275"/>
<path stroke-width="1" stroke="black" d="M 266 22 107 283"/>
<path stroke-width="1" stroke="black" d="M 266 22 223 74"/>
<path stroke-width="1" stroke="black" d="M 266 22 141 139"/>
<path stroke-width="1" stroke="black" d="M 266 22 99 256"/>
<path stroke-width="1" stroke="black" d="M 266 22 403 123"/>
<path stroke-width="1" stroke="black" d="M 266 22 411 202"/>
<path stroke-width="1" stroke="black" d="M 405 207 20 205"/>
<path stroke-width="1" stroke="black" d="M 266 22 405 207"/>
<path stroke-width="1" stroke="black" d="M 411 202 234 159"/>
<path stroke-width="1" stroke="black" d="M 411 202 249 164"/>
<path stroke-width="1" stroke="black" d="M 411 202 420 115"/>
<path stroke-width="1" stroke="black" d="M 411 202 155 23"/>
<path stroke-width="1" stroke="black" d="M 411 202 107 151"/>
<path stroke-width="1" stroke="black" d="M 411 202 20 205"/>
<path stroke-width="1" stroke="black" d="M 411 202 68 77"/>
<path stroke-width="1" stroke="black" d="M 411 202 49 228"/>
<path stroke-width="1" stroke="black" d="M 411 202 206 20"/>
<path stroke-width="1" stroke="black" d="M 266 22 192 298"/>
<path stroke-width="1" stroke="black" d="M 266 22 323 156"/>
<path stroke-width="1" stroke="black" d="M 405 207 68 77"/>
<path stroke-width="1" stroke="black" d="M 405 207 206 20"/>
<path stroke-width="1" stroke="black" d="M 192 298 68 77"/>
<path stroke-width="1" stroke="black" d="M 192 298 49 228"/>
<path stroke-width="1" stroke="black" d="M 192 298 206 20"/>
<path stroke-width="1" stroke="black" d="M 192 298 46 97"/>
<path stroke-width="1" stroke="black" d="M 192 298 338 276"/>
<path stroke-width="1" stroke="black" d="M 192 298 322 286"/>
<path stroke-width="1" stroke="black" d="M 192 298 54 86"/>
<path stroke-width="1" stroke="black" d="M 192 298 227 223"/>
<path stroke-width="1" stroke="black" d="M 192 298 202 320"/>
<path stroke-width="1" stroke="black" d="M 192 298 323 156"/>
<path stroke-width="1" stroke="black" d="M 192 298 324 84"/>
<path stroke-width="1" stroke="black" d="M 192 298 343 52"/>
<path stroke-width="1" stroke="black" d="M 192 298 308 275"/>
<path stroke-width="1" stroke="black" d="M 192 298 107 283"/>
<path stroke-width="1" stroke="black" d="M 192 298 223 74"/>
<path stroke-width="1" stroke="black" d="M 192 298 141 139"/>
<path stroke-width="1" stroke="black" d="M 192 298 99 256"/>
<path stroke-width="1" stroke="black" d="M 192 298 403 123"/>
<path stroke-width="1" stroke="black" d="M 192 298 266 22"/>
<path stroke-width="1" stroke="black" d="M 192 298 20 205"/>
<path stroke-width="1" stroke="black" d="M 192 298 107 151"/>
<path stroke-width="1" stroke="black" d="M 192 298 155 23"/>
<path stroke-width="1" stroke="black" d="M 192 298 420 115"/>
<path stroke-width="1" stroke="black" d="M 405 207 46 97"/>
<path stroke-width="1" stroke="black" d="M 405 207 338 276"/>
<path stroke-width="1" stroke="black" d="M 405 207 322 286"/>
<path stroke-width="1" stroke="black" d="M 405 207 54 86"/>
<path stroke-width="1" stroke="black" d="M 405 207 227 223"/>
<path stroke-width="1" stroke="black" d="M 405 207 202 320"/>
<path stroke-width="1" stroke="black" d="M 405 207 323 156"/>
<path stroke-width="1" stroke="black" d="M 405 207 324 84"/>
<path stroke-width="1" stroke="black" d="M 405 207 343 52"/>
<path stroke-width="1" stroke="black" d="M 405 207 49 228"/>
<path stroke-width="1" stroke="black" d="M 405 207 308 275"/>
<path stroke-width="1" stroke="black" d="M 405 207 223 74"/>
<path stroke-width="1" stroke="black" d="M 405 207 141 139"/>
<path stroke-width="1" stroke="black" d="M 405 207 99 256"/>
<path stroke-width="1" stroke="black" d="M 405 207 403 123"/>
<path stroke-width="1" stroke="black" d="M 405 207 266 22"/>
<path stroke-width="1" stroke="black" d="M 405 207 411 202"/>
<path stroke-width="1" stroke="black" d="M 405 207 192 298"/>
<path stroke-width="1" stroke="black" d="M 192 298 234 159"/>
<path stroke-width="1" stroke="black" d="M 192 298 249 164"/>
<path stroke-width="1" stroke="black" d="M 405 207 107 283"/>
<path stroke-width="1" stroke="black" d="M 266 22 202 320"/>
<path stroke-width="1" stroke="black" d="M 266 22 227 223"/>
<path stroke-width="1" stroke="black" d="M 266 22 54 86"/>
<path stroke-width="1" stroke="black" d="M 141 139 192 298"/>
<path stroke-width="1" stroke="black" d="M 99 256 234 159"/>
<path stroke-width="1" stroke="black" d="M 99 256 249 164"/>
<path stroke-width="1" stroke="black" d="M 99 256 420 115"/>
<path stroke-width="1" stroke="black" d="M 99 256 155 23"/>
<path stroke-width="1" stroke="black" d="M 99 256 107 151"/>
<path stroke-width="1" stroke="black" d="M 99 256 20 205"/>
<path stroke-width="1" stroke="black" d="M 99 256 68 77"/>
<path stroke-width="1" stroke="black" d="M 99 256 49 228"/>
<path stroke-width="1" stroke="black" d="M 99 256 206 20"/>
<path stroke-width="1" stroke="black" d="M 99 256 46 97"/>
<path stroke-width="1" stroke="black" d="M 99 256 338 276"/>
<path stroke-width="1" stroke="black" d="M 99 256 322 286"/>
<path stroke-width="1" stroke="black" d="M 99 256 54 86"/>
<path stroke-width="1" stroke="black" d="M 99 256 227 223"/>
<path stroke-width="1" stroke="black" d="M 99 256 202 320"/>
<path stroke-width="1" stroke="black" d="M 99 256 323 156"/>
<path stroke-width="1" stroke="black" d="M 99 256 324 84"/>
<path stroke-width="1" stroke="black" d="M 99 256 343 52"/>
<path stroke-width="1" stroke="black" d="M 141 139 405 207"/>
<path stroke-width="1" stroke="black" d="M 141 139 411 202"/>
<path stroke-width="1" stroke="black" d="M 141 139 266 22"/>
<path stroke-width="1" stroke="black" d="M 141 139 403 123"/>
<path stroke-width="1" stroke="black" d="M 141 139 420 115"/>
<path stroke-width="1" stroke="black" d="M 141 139 155 23"/>
<path stroke-width="1" stroke="black" d="M 141 139 107 151"/>
<path stroke-width="1" stroke="black" d="M 141 139 20 205"/>
<path stroke-width="1" stroke="black" d="M 141 139 68 77"/>
<path stroke-width="1" stroke="black" d="M 141 139 49 228"/>
<path stroke-width="1" stroke="black" d="M 141 139 206 20"/>
<path stroke-width="1" stroke="black" d="M 141 139 46 97"/>
<path stroke-width="1" stroke="black" d="M 141 139 338 276"/>
<path stroke-width="1" stroke="black" d="M 99 256 308 275"/>
<path stroke-width="1" stroke="black" d="M 141 139 322 286"/>
<path stroke-width="1" stroke="black" d="M 141 139 227 223"/>
<path stroke-width="1" stroke="black" d="M 141 139 202 320"/>
<path stroke-width="1" stroke="black" d="M 141 139 323 156"/>
<path stroke-width="1" stroke="black" d="M 141 139 324 84"/>
<path stroke-width="1" stroke="black" d="M 141 139 343 52"/>
<path stroke-width="1" stroke="black" d="M 141 139 308 275"/>
<path stroke-width="1" stroke="black" d="M 141 139 107 283"/>
<path stroke-width="1" stroke="black" d="M 141 139 223 74"/>
<path stroke-width="1" stroke="black" d="M 141 139 99 256"/>
<path stroke-width="1" stroke="black" d="M 141 139 54 86"/>
<path stroke-width="1" stroke="black" d="M 99 256 107 283"/>
<path stroke-width="1" stroke="black" d="M 99 256 223 74"/>
<path stroke-width="1" stroke="black" d="M 99 256 141 139"/>
<path stroke-width="1" stroke="black" d="M 403 123 107 283"/>
<path stroke-width="1" stroke="black" d="M 403 123 223 74"/>
<path stroke-width="1" stroke="black" d="M 403 123 141 139"/>
<path stroke-width="1" stroke="black" d="M 403 123 99 256"/>
<path stroke-width="1" stroke="black" d="M 403 123 266 22"/>
<path stroke-width="1" stroke="black" d="M 403 123 411 202"/>
<path stroke-width="1" stroke="black" d="M 403 123 405 207"/>
<path stroke-width="1" stroke="black" d="M 403 123 192 298"/>
<path stroke-width="1" stroke="black" d="M 266 22 234 159"/>
<path stroke-width="1" stroke="black" d="M 403 123 308 275"/>
<path stroke-width="1" stroke="black" d="M 266 22 249 164"/>
<path stroke-width="1" stroke="black" d="M 266 22 155 23"/>
<path stroke-width="1" stroke="black" d="M 266 22 107 151"/>
<path stroke-width="1" stroke="black" d="M 266 22 20 205"/>
<path stroke-width="1" stroke="black" d="M 266 22 68 77"/>
<path stroke-width="1" stroke="black" d="M 266 22 49 228"/>
<path stroke-width="1" stroke="black" d="M 266 22 206 20"/>
<path stroke-width="1" stroke="black" d="M 266 22 46 97"/>
<path stroke-width="1" stroke="black" d="M 266 22 338 276"/>
<path stroke-width="1" stroke="black" d="M 266 22 322 286"/>
<path stroke-width="1" stroke="black" d="M 266 22 420 115"/>
<path stroke-width="1" stroke="black" d="M 202 320 420 115"/>
<path stroke-width="1" stroke="black" d="M 403 123 343 52"/>
<path stroke-width="1" stroke="black" d="M 403 123 323 156"/>
<path stroke-width="1" stroke="black" d="M 99 256 403 123"/>
<path stroke-width="1" stroke="black" d="M 99 256 266 22"/>
<path stroke-width="1" stroke="black" d="M 99 256 411 202"/>
<path stroke-width="1" stroke="black" d="M 99 256 405 207"/>
<path stroke-width="1" stroke="black" d="M 99 256 192 298"/>
<path stroke-width="1" stroke="black" d="M 403 123 234 159"/>
<path stroke-width="1" stroke="black" d="M 403 123 249 164"/>
<path stroke-width="1" stroke="black" d="M 403 123 420 115"/>
<path stroke-width="1" stroke="black" d="M 403 123 155 23"/>
<path stroke-width="1" stroke="black" d="M 403 123 324 84"/>
<path stroke-width="1" stroke="black" d="M 403 123 107 151"/>
<path stroke-width="1" stroke="black" d="M 403 123 68 77"/>
<path stroke-width="1" stroke="black" d="M 403 123 49 228"/>
<path stroke-width="1" stroke="black" d="M 403 123 206 20"/>
<path stroke-width="1" stroke="black" d="M 403 123 46 97"/>
<path stroke-width="1" stroke="black" d="M 403 123 338 276"/>
<path stroke-width="1" stroke="black" d="M 403 123 322 286"/>
<path stroke-width="1" stroke="black" d="M 403 123 54 86"/>
<path stroke-width="1" stroke="black" d="M 403 123 227 223"/>
<path stroke-width="1" stroke="black" d="M 403 123 202 320"/>
<path stroke-width="1" stroke="black" d="M 403 123 20 205"/>
<path stroke-width="1" stroke="black" d="M 202 320 249 164"/>
<path stroke-width="1" stroke="black" d="M 202 320 234 159"/>
<path stroke-width="1" stroke="black" d="M 227 223 192 298"/>
<path stroke-width="1" stroke="black" d="M 107 151 323 156"/>
<path stroke-width="1" stroke="black" d="M 107 151 324 84"/>
<path stroke-width="1" stroke="black" d="M 107 151 343 52"/>
<path stroke-width="1" stroke="black" d="M 107 151 308 275"/>
<path stroke-width="1" stroke="black" d="M 107 151 107 283"/>
<path stroke-width="1" stroke="black" d="M 107 151 223 74"/>
<path stroke-width="1" stroke="black" d="M 107 151 141 139"/>
<path stroke-width="1" stroke="black" d="M 107 151 99 256"/>
<path stroke-width="1" stroke="black" d="M 107 151 403 123"/>
<path stroke-width="1" stroke="black" d="M 107 151 266 22"/>
<path stroke-width="1" stroke="black" d="M 107 151 411 202"/>
<path stroke-width="1" stroke="black" d="M 107 151 405 207"/>
<path stroke-width="1" stroke="black" d="M 107 151 192 298"/>
<path stroke-width="1" stroke="black" d="M 20 205 234 159"/>
<path stroke-width="1" stroke="black" d="M 20 205 249 164"/>
<path stroke-width="1" stroke="black" d="M 20 205 420 115"/>
<path stroke-width="1" stroke="black" d="M 20 205 155 23"/>
<path stroke-width="1" stroke="black" d="M 20 205 107 151"/>
<path stroke-width="1" stroke="black" d="M 20 205 68 77"/>
<path stroke-width="1" stroke="black" d="M 107 151 202 320"/>
<path stroke-width="1" stroke="black" d="M 107 151 227 223"/>
<path stroke-width="1" stroke="black" d="M 107 151 54 86"/>
<path stroke-width="1" stroke="black" d="M 107 151 322 286"/>
<path stroke-width="1" stroke="black" d="M 155 23 343 52"/>
<path stroke-width="1" stroke="black" d="M 155 23 308 275"/>
<path stroke-width="1" stroke="black" d="M 155 23 107 283"/>
<path stroke-width="1" stroke="black" d="M 155 23 223 74"/>
<path stroke-width="1" stroke="black" d="M 155 23 141 139"/>
<path stroke-width="1" stroke="black" d="M 155 23 99 256"/>
<path stroke-width="1" stroke="black" d="M 155 23 403 123"/>
<path stroke-width="1" stroke="black" d="M 155 23 266 22"/>
<path stroke-width="1" stroke="black" d="M 155 23 411 202"/>
<path stroke-width="1" stroke="black" d="M 20 205 49 228"/>
<path stroke-width="1" stroke="black" d="M 155 23 405 207"/>
<path stroke-width="1" stroke="black" d="M 107 151 234 159"/>
<path stroke-width="1" stroke="black" d="M 107 151 249 164"/>
<path stroke-width="1" stroke="black" d="M 107 151 155 23"/>
<path stroke-width="1" stroke="black" d="M 107 151 20 205"/>
<path stroke-width="1" stroke="black" d="M 107 151 68 77"/>
<path stroke-width="1" stroke="black" d="M 107 151 49 228"/>
<path stroke-width="1" stroke="black" d="M 107 151 206 20"/>
<path stroke-width="1" stroke="black" d="M 107 151 46 97"/>
<path stroke-width="1" stroke="black" d="M 107 151 338 276"/>
<path stroke-width="1" stroke="black" d="M 155 23 192 298"/>
<path stroke-width="1" stroke="black" d="M 155 23 324 84"/>
<path stroke-width="1" stroke="black" d="M 20 205 206 20"/>
<path stroke-width="1" stroke="black" d="M 20 205 338 276"/>
<path stroke-width="1" stroke="black" d="M 68 77 206 20"/>
<path stroke-width="1" stroke="black" d="M 68 77 46 97"/>
<path stroke-width="1" stroke="black" d="M 68 77 338 276"/>
<path stroke-width="1" stroke="black" d="M 68 77 322 286"/>
<path stroke-width="1" stroke="black" d="M 68 77 54 86"/>
<path stroke-width="1" stroke="black" d="M 68 77 227 223"/>
<path stroke-width="1" stroke="black" d="M 68 77 202 320"/>
<path stroke-width="1" stroke="black" d="M 68 77 323 156"/>
<path stroke-width="1" stroke="black" d="M 68 77 324 84"/>
<path stroke-width="1" stroke="black" d="M 68 77 343 52"/>
<path stroke-width="1" stroke="black" d="M 68 77 308 275"/>
<path stroke-width="1" stroke="black" d="M 68 77 107 283"/>
<path stroke-width="1" stroke="black" d="M 68 77 223 74"/>
<path stroke-width="1" stroke="black" d="M 68 77 141 139"/>
<path stroke-width="1" stroke="black" d="M 68 77 99 256"/>
<path stroke-width="1" stroke="black" d="M 68 77 403 123"/>
<path stroke-width="1" stroke="black" d="M 68 77 266 22"/>
<path stroke-width="1" stroke="black" d="M 68 77 411 202"/>
<path stroke-width="1" stroke="black" d="M 68 77 405 207"/>
<path stroke-width="1" stroke="black" d="M 68 77 49 228"/>
<path stroke-width="1" stroke="black" d="M 68 77 20 205"/>
<path stroke-width="1" stroke="black" d="M 68 77 107 151"/>
<path stroke-width="1" stroke="black" d="M 68 77 155 23"/>
<path stroke-width="1" stroke="black" d="M 20 205 322 286"/>
<path stroke-width="1" stroke="black" d="M 20 205 54 86"/>
<path stroke-width="1" stroke="black" d="M 20 205 227 223"/>
<path stroke-width="1" stroke="black" d="M 20 205 202 320"/>
<path stroke-width="1" stroke="black" d="M 20 205 323 156"/>
<path stroke-width="1" stroke="black" d="M 20 205 324 84"/>
<path stroke-width="1" stroke="black" d="M 20 205 343 52"/>
<path stroke-width="1" stroke="black" d="M 20 205 308 275"/>
<path stroke-width="1" stroke="black" d="M 20 205 107 283"/>
<path stroke-width="1" stroke="black" d="M 20 205 46 97"/>
<path stroke-width="1" stroke="black" d="M 20 205 223 74"/>
<path stroke-width="1" stroke="black" d="M 20 205 99 256"/>
<path stroke-width="1" stroke="black" d="M 20 205 403 123"/>
<path stroke-width="1" stroke="black" d="M 20 205 266 22"/>
<path stroke-width="1" stroke="black" d="M 20 205 411 202"/>
<path stroke-width="1" stroke="black" d="M 20 205 405 207"/>
<path stroke-width="1" stroke="black" d="M 20 205 192 298"/>
<path stroke-width="1" stroke="black" d="M 68 77 234 159"/>
<path stroke-width="1" stroke="black" d="M 68 77 249 164"/>
<path stroke-width="1" stroke="black" d="M 68 77 420 115"/>
<path stroke-width="1" stroke="black" d="M 20 205 141 139"/>
<path stroke-width="1" stroke="black" d="M 155 23 323 156"/>
<path stroke-width="1" stroke="black" d="M 155 23 202 320"/>
<path stroke-width="1" stroke="black" d="M 155 23 227 223"/>
<path stroke-width="1" stroke="black" d="M 234 159 405 207"/>
<path stroke-width="1" stroke="black" d="M 234 159 192 298"/>
<path stroke-width="1" stroke="black" d="M 249 164 234 159"/>
<path stroke-width="1" stroke="black" d="M 249 164 420 115"/>
<path stroke-width="1" stroke="black" d="M 249 164 155 23"/>
<path stroke-width="1" stroke="black" d="M 249 164 107 151"/>
<path stroke-width="1" stroke="black" d="M 249 164 20 205"/>
<path stroke-width="1" stroke="black" d="M 249 164 68 77"/>
<path stroke-width="1" stroke="black" d="M 249 164 49 228"/>
<path stroke-width="1" stroke="black" d="M 249 164 206 20"/>
<path stroke-width="1" stroke="black" d="M 249 164 46 97"/>
<path stroke-width="1" stroke="black" d="M 249 164 338 276"/>
<path stroke-width="1" stroke="black" d="M 249 164 322 286"/>
<path stroke-width="1" stroke="black" d="M 249 164 54 86"/>
<path stroke-width="1" stroke="black" d="M 249 164 227 223"/>
<path stroke-width="1" stroke="black" d="M 249 164 202 320"/>
<path stroke-width="1" stroke="black" d="M 249 164 323 156"/>
<path stroke-width="1" stroke="black" d="M 249 164 324 84"/>
<path stroke-width="1" stroke="black" d="M 249 164 343 52"/>
<path stroke-width="1" stroke="black" d="M 234 159 411 202"/>
<path stroke-width="1" stroke="black" d="M 234 159 266 22"/>
<path stroke-width="1" stroke="black" d="M 234 159 403 123"/>
<path stroke-width="1" stroke="black" d="M 234 159 99 256"/>
<path stroke-width="1" stroke="black" d="M 234 159 420 115"/>
<path stroke-width="1" stroke="black" d="M 234 159 155 23"/>
<path stroke-width="1" stroke="black" d="M 234 159 107 151"/>
<path stroke-width="1" stroke="black" d="M 234 159 20 205"/>
<path stroke-width="1" stroke="black" d="M 234 159 68 77"/>
<path stroke-width="1" stroke="black" d="M 234 159 49 228"/>
<path stroke-width="1" stroke="black" d="M 234 159 206 20"/>
<path stroke-width="1" stroke="black" d="M 234 159 46 97"/>
<path stroke-width="1" stroke="black" d="M 234 159 338 276"/>
<path stroke-width="1" stroke="black" d="M 249 164 308 275"/>
<path stroke-width="1" stroke="black" d="M 234 159 322 286"/>
<path stroke-width="1" stroke="black" d="M 234 159 227 223"/>
<path stroke-width="1" stroke="black" d="M 234 159 202 320"/>
<path stroke-width="1" stroke="black" d="M 234 159 323 156"/>
<path stroke-width="1" stroke="black" d="M 234 159 324 84"/>
<path stroke-width="1" stroke="black" d="M 234 159 343 52"/>
<path stroke-width="1" stroke="black" d="M 234 159 308 275"/>
<path stroke-width="1" stroke="black" d="M 234 159 107 283"/>
<path stroke-width="1" stroke="black" d="M 234 159 223 74"/>
<path stroke-width="1" stroke="black" d="M 234 159 141 139"/>
<path stroke-width="1" stroke="black" d="M 234 159 54 86"/>
<path stroke-width="1" stroke="black" d="M 249 164 107 283"/>
<path stroke-width="1" stroke="black" d="M 249 164 223 74"/>
<path stroke-width="1" stroke="black" d="M 249 164 141 139"/>
<path stroke-width="1" stroke="black" d="M 420 115 223 74"/>
<path stroke-width="1" stroke="black" d="M 420 115 141 139"/>
<path stroke-width="1" stroke="black" d="M 420 115 99 256"/>
<path stroke-width="1" stroke="black" d="M 420 115 403 123"/>
<path stroke-width="1" stroke="black" d="M 420 115 266 22"/>
<path stroke-width="1" stroke="black" d="M 420 115 411 202"/>
<path stroke-width="1" stroke="black" d="M 420 115 405 207"/>
<path stroke-width="1" stroke="black" d="M 420 115 192 298"/>
<path stroke-width="1" stroke="black" d="M 155 23 234 159"/>
<path stroke-width="1" stroke="black" d="M 420 115 107 283"/>
<path stroke-width="1" stroke="black" d="M 155 23 249 164"/>
<path stroke-width="1" stroke="black" d="M 155 23 107 151"/>
<path stroke-width="1" stroke="black" d="M 155 23 20 205"/>
<path stroke-width="1" stroke="black" d="M 155 23 68 77"/>
<path stroke-width="1" stroke="black" d="M 155 23 49 228"/>
<path stroke-width="1" stroke="black" d="M 155 23 206 20"/>
<path stroke-width="1" stroke="black" d="M 155 23 46 97"/>
<path stroke-width="1" stroke="black" d="M 155 23 338 276"/>
<path stroke-width="1" stroke="black" d="M 155 23 322 286"/>
<path stroke-width="1" stroke="black" d="M 155 23 54 86"/>
<path stroke-width="1" stroke="black" d="M 155 23 420 115"/>
<path stroke-width="1" stroke="black" d="M 68 77 192 298"/>
<path stroke-width="1" stroke="black" d="M 420 115 308 275"/>
<path stroke-width="1" stroke="black" d="M 420 115 324 84"/>
<path stroke-width="1" stroke="black" d="M 249 164 99 256"/>
<path stroke-width="1" stroke="black" d="M 249 164 403 123"/>
<path stroke-width="1" stroke="black" d="M 249 164 266 22"/>
<path stroke-width="1" stroke="black" d="M 249 164 411 202"/>
<path stroke-width="1" stroke="black" d="M 249 164 405 207"/>
<path stroke-width="1" stroke="black" d="M 249 164 192 298"/>
<path stroke-width="1" stroke="black" d="M 420 115 234 159"/>
<path stroke-width="1" stroke="black" d="M 420 115 249 164"/>
<path stroke-width="1" stroke="black" d="M 420 115 155 23"/>
<path stroke-width="1" stroke="black" d="M 420 115 343 52"/>
<path stroke-width="1" stroke="black" d="M 420 115 20 205"/>
<path stroke-width="1" stroke="black" d="M 420 115 49 228"/>
<path stroke-width="1" stroke="black" d="M 420 115 206 20"/>
<path stroke-width="1" stroke="black" d="M 420 115 46 97"/>
<path stroke-width="1" stroke="black" d="M 420 115 338 276"/>
<path stroke-width="1" stroke="black" d="M 420 115 322 286"/>
<path stroke-width="1" stroke="black" d="M 420 115 54 86"/>
<path stroke-width="1" stroke="black" d="M 420 115 227 223"/>
<path stroke-width="1" stroke="black" d="M 420 115 202 320"/>
<path stroke-width="1" stroke="black" d="M 420 115 323 156"/>
<path stroke-width="1" stroke="black" d="M 420 115 68 77"/>
<path stroke-width="1" stroke="black" d="M 192 298 411 202"/>
<path stroke-width="1" stroke="black" d="M 49 228 234 159"/>
<path stroke-width="1" stroke="black" d="M 49 228 420 115"/>
<path stroke-width="1" stroke="black" d="M 322 286 323 156"/>
<path stroke-width="1" stroke="black" d="M 322 286 324 84"/>
<path stroke-width="1" stroke="black" d="M 322 286 343 52"/>
<path stroke-width="1" stroke="black" d="M 322 286 308 275"/>
<path stroke-width="1" stroke="black" d="M 322 286 107 283"/>
<path stroke-width="1" stroke="black" d="M 322 286 223 74"/>
<path stroke-width="1" stroke="black" d="M 322 286 141 139"/>
<path stroke-width="1" stroke="black" d="M 322 286 99 256"/>
<path stroke-width="1" stroke="black" d="M 322 286 403 123"/>
<path stroke-width="1" stroke="black" d="M 322 286 266 22"/>
<path stroke-width="1" stroke="black" d="M 322 286 411 202"/>
<path stroke-width="1" stroke="black" d="M 322 286 405 207"/>
<path stroke-width="1" stroke="black" d="M 322 286 192 298"/>
<path stroke-width="1" stroke="black" d="M 54 86 234 159"/>
<path stroke-width="1" stroke="black" d="M 54 86 249 164"/>
<path stroke-width="1" stroke="black" d="M 54 86 420 115"/>
<path stroke-width="1" stroke="black" d="M 54 86 155 23"/>
<path stroke-width="1" stroke="black" d="M 54 86 107 151"/>
<path stroke-width="1" stroke="black" d="M 54 86 20 205"/>
<path stroke-width="1" stroke="black" d="M 322 286 202 320"/>
<path stroke-width="1" stroke="black" d="M 322 286 227 223"/>
<path stroke-width="1" stroke="black" d="M 322 286 54 86"/>
<path stroke-width="1" stroke="black" d="M 322 286 338 276"/>
<path stroke-width="1" stroke="black" d="M 338 276 308 275"/>
<path stroke-width="1" stroke="black" d="M 338 276 107 283"/>
<path stroke-width="1" stroke="black" d="M 338 276 223 74"/>
<path stroke-width="1" stroke="black" d="M 338 276 141 139"/>
<path stroke-width="1" stroke="black" d="M 338 276 99 256"/>
<path stroke-width="1" stroke="black" d="M 338 276 403 123"/>
<path stroke-width="1" stroke="black" d="M 338 276 266 22"/>
<path stroke-width="1" stroke="black" d="M 338 276 411 202"/>
<path stroke-width="1" stroke="black" d="M 338 276 405 207"/>
<path stroke-width="1" stroke="black" d="M 54 86 68 77"/>
<path stroke-width="1" stroke="black" d="M 338 276 192 298"/>
<path stroke-width="1" stroke="black" d="M 322 286 249 164"/>
<path stroke-width="1" stroke="black" d="M 322 286 420 115"/>
<path stroke-width="1" stroke="black" d="M 322 286 155 23"/>
<path stroke-width="1" stroke="black" d="M 322 286 107 151"/>
<path stroke-width="1" stroke="black" d="M 322 286 20 205"/>
<path stroke-width="1" stroke="black" d="M 322 286 68 77"/>
<path stroke-width="1" stroke="black" d="M 322 286 49 228"/>
<path stroke-width="1" stroke="black" d="M 322 286 206 20"/>
<path stroke-width="1" stroke="black" d="M 322 286 46 97"/>
<path stroke-width="1" stroke="black" d="M 322 286 234 159"/>
<path stroke-width="1" stroke="black" d="M 338 276 343 52"/>
<path stroke-width="1" stroke="black" d="M 54 86 49 228"/>
<path stroke-width="1" stroke="black" d="M 54 86 46 97"/>
<path stroke-width="1" stroke="black" d="M 227 223 49 228"/>
<path stroke-width="1" stroke="black" d="M 227 223 206 20"/>
<path stroke-width="1" stroke="black" d="M 227 223 46 97"/>
<path stroke-width="1" stroke="black" d="M 227 223 338 276"/>
<path stroke-width="1" stroke="black" d="M 227 223 322 286"/>
<path stroke-width="1" stroke="black" d="M 227 223 54 86"/>
<path stroke-width="1" stroke="black" d="M 227 223 202 320"/>
<path stroke-width="1" stroke="black" d="M 227 223 323 156"/>
<path stroke-width="1" stroke="black" d="M 227 223 324 84"/>
<path stroke-width="1" stroke="black" d="M 227 223 343 52"/>
<path stroke-width="1" stroke="black" d="M 227 223 308 275"/>
<path stroke-width="1" stroke="black" d="M 227 223 107 283"/>
<path stroke-width="1" stroke="black" d="M 227 223 223 74"/>
<path stroke-width="1" stroke="black" d="M 227 223 141 139"/>
<path stroke-width="1" stroke="black" d="M 227 223 99 256"/>
<path stroke-width="1" stroke="black" d="M 227 223 403 123"/>
<path stroke-width="1" stroke="black" d="M 227 223 266 22"/>
<path stroke-width="1" stroke="black" d="M 227 223 411 202"/>
<path stroke-width="1" stroke="black" d="M 227 223 405 207"/>
<path stroke-width="1" stroke="black" d="M 227 223 68 77"/>
<path stroke-width="1" stroke="black" d="M 227 223 20 205"/>
<path stroke-width="1" stroke="black" d="M 227 223 107 151"/>
<path stroke-width="1" stroke="black" d="M 227 223 155 23"/>
<path stroke-width="1" stroke="black" d="M 54 86 338 276"/>
<path stroke-width="1" stroke="black" d="M 54 86 322 286"/>
<path stroke-width="1" stroke="black" d="M 54 86 227 223"/>
<path stroke-width="1" stroke="black" d="M 54 86 202 320"/>
<path stroke-width="1" stroke="black" d="M 54 86 323 156"/>
<path stroke-width="1" stroke="black" d="M 54 86 324 84"/>
<path stroke-width="1" stroke="black" d="M 54 86 343 52"/>
<path stroke-width="1" stroke="black" d="M 54 86 308 275"/>
<path stroke-width="1" stroke="black" d="M 54 86 107 283"/>
<path stroke-width="1" stroke="black" d="M 54 86 206 20"/>
<path stroke-width="1" stroke="black" d="M 54 86 223 74"/>
<path stroke-width="1" stroke="black" d="M 54 86 99 256"/>
<path stroke-width="1" stroke="black" d="M 54 86 403 123"/>
<path stroke-width="1" stroke="black" d="M 54 86 266 22"/>
<path stroke-width="1" stroke="black" d="M 54 86 411 202"/>
<path stroke-width="1" stroke="black" d="M 54 86 405 207"/>
<path stroke-width="1" stroke="black" d="M 54 86 192 298"/>
<path stroke-width="1" stroke="black" d="M 227 223 234 159"/>
<path stroke-width="1" stroke="black" d="M 227 223 249 164"/>
<path stroke-width="1" stroke="black" d="M 227 223 420 115"/>
<path stroke-width="1" stroke="black" d="M 54 86 141 139"/>
<path stroke-width="1" stroke="black" d="M 338 276 324 84"/>
<path stroke-width="1" stroke="black" d="M 338 276 323 156"/>
<path stroke-width="1" stroke="black" d="M 338 276 202 320"/>
<path stroke-width="1" stroke="black" d="M 206 20 234 159"/>
<path stroke-width="1" stroke="black" d="M 206 20 249 164"/>
<path stroke-width="1" stroke="black" d="M 206 20 420 115"/>
<path stroke-width="1" stroke="black" d="M 206 20 155 23"/>
<path stroke-width="1" stroke="black" d="M 206 20 107 151"/>
<path stroke-width="1" stroke="black" d="M 206 20 20 205"/>
<path stroke-width="1" stroke="black" d="M 206 20 68 77"/>
<path stroke-width="1" stroke="black" d="M 206 20 49 228"/>
<path stroke-width="1" stroke="black" d="M 206 20 46 97"/>
<path stroke-width="1" stroke="black" d="M 206 20 338 276"/>
<path stroke-width="1" stroke="black" d="M 206 20 322 286"/>
<path stroke-width="1" stroke="black" d="M 206 20 54 86"/>
<path stroke-width="1" stroke="black" d="M 206 20 227 223"/>
<path stroke-width="1" stroke="black" d="M 206 20 202 320"/>
<path stroke-width="1" stroke="black" d="M 206 20 323 156"/>
<path stroke-width="1" stroke="black" d="M 206 20 324 84"/>
<path stroke-width="1" stroke="black" d="M 206 20 343 52"/>
<path stroke-width="1" stroke="black" d="M 206 20 308 275"/>
<path stroke-width="1" stroke="black" d="M 206 20 107 283"/>
<path stroke-width="1" stroke="black" d="M 49 228 192 298"/>
<path stroke-width="1" stroke="black" d="M 49 228 405 207"/>
<path stroke-width="1" stroke="black" d="M 49 228 411 202"/>
<path stroke-width="1" stroke="black" d="M 49 228 266 22"/>
<path stroke-width="1" stroke="black" d="M 49 228 155 23"/>
<path stroke-width="1" stroke="black" d="M 49 228 107 151"/>
<path stroke-width="1" stroke="black" d="M 49 228 20 205"/>
<path stroke-width="1" stroke="black" d="M 49 228 68 77"/>
<path stroke-width="1" stroke="black" d="M 49 228 206 20"/>
<path stroke-width="1" stroke="black" d="M 49 228 46 97"/>
<path stroke-width="1" stroke="black" d="M 49 228 338 276"/>
<path stroke-width="1" stroke="black" d="M 49 228 322 286"/>
<path stroke-width="1" stroke="black" d="M 49 228 54 86"/>
<path stroke-width="1" stroke="black" d="M 206 20 223 74"/>
<path stroke-width="1" stroke="black" d="M 49 228 227 223"/>
<path stroke-width="1" stroke="black" d="M 49 228 323 156"/>
<path stroke-width="1" stroke="black" d="M 49 228 324 84"/>
<path stroke-width="1" stroke="black" d="M 49 228 343 52"/>
<path stroke-width="1" stroke="black" d="M 49 228 308 275"/>
<path stroke-width="1" stroke="black" d="M 49 228 107 283"/>
<path stroke-width="1" stroke="black" d="M 49 228 223 74"/>
<path stroke-width="1" stroke="black" d="M 49 228 141 139"/>
<path stroke-width="1" stroke="black" d="M 49 228 99 256"/>
<path stroke-width="1" stroke="black" d="M 49 228 403 123"/>
<path stroke-width="1" stroke="black" d="M 49 228 202 320"/>
<path stroke-width="1" stroke="black" d="M 206 20 141 139"/>
<path stroke-width="1" stroke="black" d="M 206 20 99 256"/>
<path stroke-width="1" stroke="black" d="M 206 20 403 123"/>
<path stroke-width="1" stroke="black" d="M 46 97 141 139"/>
<path stroke-width="1" stroke="black" d="M 46 97 99 256"/>
<path stroke-width="1" stroke="black" d="M 46 97 403 123"/>
<path stroke-width="1" stroke="black" d="M 46 97 266 22"/>
<path stroke-width="1" stroke="black" d="M 46 97 411 202"/>
<path stroke-width="1" stroke="black" d="M 46 97 405 207"/>
<path stroke-width="1" stroke="black" d="M 46 97 192 298"/>
<path stroke-width="1" stroke="black" d="M 338 276 234 159"/>
<path stroke-width="1" stroke="black" d="M 338 276 249 164"/>
<path stroke-width="1" stroke="black" d="M 46 97 223 74"/>
<path stroke-width="1" stroke="black" d="M 338 276 420 115"/>
<path stroke-width="1" stroke="black" d="M 338 276 107 151"/>
<path stroke-width="1" stroke="black" d="M 338 276 20 205"/>
<path stroke-width="1" stroke="black" d="M 338 276 68 77"/>
<path stroke-width="1" stroke="black" d="M 338 276 49 228"/>
<path stroke-width="1" stroke="black" d="M 338 276 206 20"/>
<path stroke-width="1" stroke="black" d="M 338 276 46 97"/>
<path stroke-width="1" stroke="black" d="M 338 276 322 286"/>
<path stroke-width="1" stroke="black" d="M 338 276 54 86"/>
<path stroke-width="1" stroke="black" d="M 338 276 227 223"/>
<path stroke-width="1" stroke="black" d="M 338 276 155 23"/>
<path stroke-width="1" stroke="black" d="M 49 228 249 164"/>
<path stroke-width="1" stroke="black" d="M 46 97 107 283"/>
<path stroke-width="1" stroke="black" d="M 46 97 343 52"/>
<path stroke-width="1" stroke="black" d="M 206 20 266 22"/>
<path stroke-width="1" stroke="black" d="M 206 20 411 202"/>
<path stroke-width="1" stroke="black" d="M 206 20 405 207"/>
<path stroke-width="1" stroke="black" d="M 206 20 192 298"/>
<path stroke-width="1" stroke="black" d="M 46 97 234 159"/>
<path stroke-width="1" stroke="black" d="M 46 97 249 164"/>
<path stroke-width="1" stroke="black" d="M 46 97 420 115"/>
<path stroke-width="1" stroke="black" d="M 46 97 155 23"/>
<path stroke-width="1" stroke="black" d="M 46 97 107 151"/>
<path stroke-width="1" stroke="black" d="M 46 97 308 275"/>
<path stroke-width="1" stroke="black" d="M 46 97 20 205"/>
<path stroke-width="1" stroke="black" d="M 46 97 49 228"/>
<path stroke-width="1" stroke="black" d="M 46 97 206 20"/>
<path stroke-width="1" stroke="black" d="M 46 97 338 276"/>
<path stroke-width="1" stroke="black" d="M 46 97 322 286"/>
<path stroke-width="1" stroke="black" d="M 46 97 54 86"/>
<path stroke-width="1" stroke="black" d="M 46 97 227 223"/>
<path stroke-width="1" stroke="black" d="M 46 97 202 320"/>
<path stroke-width="1" stroke="black" d="M 46 97 323 156"/>
<path stroke-width="1" stroke="black" d="M 46 97 324 84"/>
<path stroke-width="1" stroke="black" d="M 46 97 68 77"/>
<path stroke-width="1" stroke="black" d="M 192 298 405 207"/>
<circle cx="234" cy="159" r="7.0" style="fill:blue;stroke:black;stroke-width:1.0"/>
<circle cx="249" cy="164" r="7.0" style="fill:blue;stroke:black;stroke-width:1.0"/>
<circle cx="420" cy="115" r="7.0" style="fill:blue;stroke:black;stroke-width:1.0"/>
<circle cx="155" cy="23" r="7.0" style="fill:green;stroke:black;stroke-width:1.0"/>
<circle cx="107" cy="151" r="7.0" style="fill:purple;stroke:black;stroke-width:1.0"/>
<circle cx="20" cy="205" r="7.0" style="fill:orange;stroke:black;stroke-width:1.0"/>
<circle cx="68" cy="77" r="7.0" style="fill:red;stroke:black;stroke-width:1.0"/>
<circle cx="49" cy="228" r="7.0" style="fill:blue;stroke:black;stroke-width:1.0"/>
<circle cx="206" cy="20" r="7.0" style="fill:blue;stroke:black;stroke-width:1.0"/>
<circle cx="46" cy="97" r="7.0" style="fill:blue;stroke:black;stroke-width:1.0"/>
<circle cx="338" cy="276" r="7.0" style="fill:yellow;stroke:black;stroke-width:1.0"/>
<circle cx="322" cy="286" r="7.0" style="fill:blue;stroke:black;stroke-width:1.0"/>
<circle cx="54" cy="86" r="7.0" style="fill:blue;stroke:black;stroke-width:1.0"/>
<circle cx="227" cy="223" r="7.0" style="fill:blue;stroke:black;stroke-width:1.0"/>
<circle cx="202" cy="320" r="7.0" style="fill:blue;stroke:black;stroke-width:1.0"/>
<circle cx="323" cy="156" r="7.0" style="fill:blue;stroke:black;stroke-width:1.0"/>
<circle cx="324" cy="84" r="7.0" style="fill:fuchsia;stroke:black;stroke-width:1.0"/>
<circle cx="343" cy="52" r="7.0" style="fill:blue;stroke:black;stroke-width:1.0"/>
<circle cx="308" cy="275" r="7.0" style="fill:blue;stroke:black;stroke-width:1.0"/>
<circle cx="107" cy="283" r="7.0" style="fill:red;stroke:black;stroke-width:1.0"/>
<circle cx="223" cy="74" r="7.0" style="fill:blue;stroke:black;stroke-width:1.0"/>
<circle cx="141" cy="139" r="7.0" style="fill:green;stroke:black;stroke-width:1.0"/>
<circle cx="99" cy="256" r="7.0" style="fill:orange;stroke:black;stroke-width:1.0"/>
<circle cx="403" cy="123" r="7.0" style="fill:blue;stroke:black;stroke-width:1.0"/>
<circle cx="266" cy="22" r="7.0" style="fill:purple;stroke:black;stroke-width:1.0"/>
<circle cx="411" cy="202" r="7.0" style="fill:blue;stroke:black;stroke-width:1.0"/>
<circle cx="405" cy="207" r="7.0" style="fill:yellow;stroke:black;stroke-width:1.0"/>
<circle cx="192" cy="298" r="7.0" style="fill:fuchsia;stroke:black;stroke-width:1.0"/>
</svg>
