<svg width="440" height="340" xmlns="http://www.w3.org/2000/svg">
<path stroke-width="1" stroke="black" d="M 212 183 235 214"/>
<path stroke-width="1" stroke="black" d="M 313 298 241 176"/>
<path stroke-width="1" stroke="black" d="M 313 298 177 20"/>
<path stroke-width="1" stroke="black" d="M 313 298 178 35"/>
<path stroke-width="1" stroke="black" d="M 313 298 138 309"/>
<path stroke-width="1" stroke="black" d="M 313 298 419 144"/>
<path stroke-width="1" stroke="black" d="M 313 298 49 129"/>
<path stroke-width="1" stroke="black" d="M 313 298 195 284"/>
<path stroke-width="1" stroke="black" d="M 313 298 66 229"/>
<path stroke-width="1" stroke="black" d="M 313 298 42 235"/>
<path stroke-width="1" stroke="black" d="M 313 298 378 260"/>
<path stroke-width="1" stroke="black" d="M 313 298 71 258"/>
<path stroke-width="1" stroke="black" d="M 313 298 420 146"/>
<path stroke-width="1" stroke="black" d="M 313 298 101 68"/>
<path stroke-width="1" stroke="black" d="M 313 298 248 320"/>
<path stroke-width="1" stroke="black" d="M 49 129 212 183"/>
<path stroke-width="1" stroke="black" d="M 49 129 235 214"/>
<path stroke-width="1" stroke="black" d="M 49 129 411 67"/>
<path stroke-width="1" stroke="black" d="M 49 129 190 29"/>
<path stroke-width="1" stroke="black" d="M 49 129 308 96"/>
<path stroke-width="1" stroke="black" d="M 313 298 241 175"/>
<path stroke-width="1" stroke="black" d="M 313 298 28 125"/>
<path stroke-width="1" stroke="black" d="M 313 298 323 51"/>
<path stroke-width="1" stroke="black" d="M 313 298 20 158"/>
<path stroke-width="1" stroke="black" d="M 419 144 138 309"/>
<path stroke-width="1" stroke="black" d="M 419 144 313 298"/>
<path stroke-width="1" stroke="black" d="M 419 144 49 129"/>
<path stroke-width="1" stroke="black" d="M 419 144 195 284"/>
<path stroke-width="1" stroke="black" d="M 419 144 66 229"/>
<path stroke-width="1" stroke="black" d="M 419 144 42 235"/>
<path stroke-width="1" stroke="black" d="M 419 144 378 260"/>
<path stroke-width="1" stroke="black" d="M 419 144 71 258"/>
<path stroke-width="1" stroke="black" d="M 419 144 420 146"/>
<path stroke-width="1" stroke="black" d="M 49 129 81 102"/>
<path stroke-width="1" stroke="black" d="M 419 144 101 68"/>
<path stroke-width="1" stroke="black" d="M 313 298 212 183"/>
<path stroke-width="1" stroke="black" d="M 313 298 235 214"/>
<path stroke-width="1" stroke="black" d="M 313 298 411 67"/>
<path stroke-width="1" stroke="black" d="M 313 298 190 29"/>
<path stroke-width="1" stroke="black" d="M 313 298 308 96"/>
<path stroke-width="1" stroke="black" d="M 313 298 81 102"/>
<path stroke-width="1" stroke="black" d="M 313 298 302 28"/>
<path stroke-width="1" stroke="black" d="M 313 298 403 209"/>
<path stroke-width="1" stroke="black" d="M 313 298 387 253"/>
<path stroke-width="1" stroke="black" d="M 419 144 248 320"/>
<path stroke-width="1" stroke="black" d="M 419 144 178 35"/>
<path stroke-width="1" stroke="black" d="M 49 129 302 28"/>
<path stroke-width="1" stroke="black" d="M 49 129 387 253"/>
<path stroke-width="1" stroke="black" d="M 195 284 302 28"/>
<path stroke-width="1" stroke="black" d="M 195 284 403 209"/>
<path stroke-width="1" stroke="black" d="M 195 284 387 253"/>
<path stroke-width="1" stroke="black" d="M 195 284 20 158"/>
<path stroke-width="1" stroke="black" d="M 195 284 323 51"/>
<path stroke-width="1" stroke="black" d="M 195 284 28 125"/>
<path stroke-width="1" stroke="black" d="M 195 284 241 175"/>
<path stroke-width="1" stroke="black" d="M 195 284 241 176"/>
<path stroke-width="1" stroke="black" d="M 195 284 177 20"/>
<path stroke-width="1" stroke="black" d="M 195 284 178 35"/>
<path stroke-width="1" stroke="black" d="M 195 284 138 309"/>
<path stroke-width="1" stroke="black" d="M 195 284 419 144"/>
<path stroke-width="1" stroke="black" d="M 195 284 313 298"/>
<path stroke-width="1" stroke="black" d="M 195 284 49 129"/>
<path stroke-width="1" stroke="black" d="M 195 284 66 229"/>
<path stroke-width="1" stroke="black" d="M 195 284 42 235"/>
<path stroke-width="1" stroke="black" d="M 195 284 378 260"/>
<path stroke-width="1" stroke="black" d="M 195 284 71 258"/>
<path stroke-width="1" stroke="black" d="M 195 284 420 146"/>
<path stroke-width="1" stroke="black" d="M 195 284 81 102"/>
<path stroke-width="1" stroke="black" d="M 195 284 308 96"/>
<path stroke-width="1" stroke="black" d="M 195 284 190 29"/>
<path stroke-width="1" stroke="black" d="M 195 284 411 67"/>
<path stroke-width="1" stroke="black" d="M 49 129 20 158"/>
<path stroke-width="1" stroke="black" d="M 49 129 323 51"/>
<path stroke-width="1" stroke="black" d="M 49 129 28 125"/>
<path stroke-width="1" stroke="black" d="M 49 129 241 175"/>
<path stroke-width="1" stroke="black" d="M 49 129 241 176"/>
<path stroke-width="1" stroke="black" d="M 49 129 177 20"/>
<path stroke-width="1" stroke="black" d="M 49 129 178 35"/>
<path stroke-width="1" stroke="black" d="M 49 129 138 309"/>
<path stroke-width="1" stroke="black" d="M 49 129 419 144"/>
<path stroke-width="1" stroke="black" d="M 49 129 403 209"/>
<path stroke-width="1" stroke="black" d="M 49 129 313 298"/>
<path stroke-width="1" stroke="black" d="M 49 129 66 229"/>
<path stroke-width="1" stroke="black" d="M 49 129 42 235"/>
<path stroke-width="1" stroke="black" d="M 49 129 378 260"/>
<path stroke-width="1" stroke="black" d="M 49 129 71 258"/>
<path stroke-width="1" stroke="black" d="M 49 129 420 146"/>
<path stroke-width="1" stroke="black" d="M 49 129 101 68"/>
<path stroke-width="1" stroke="black" d="M 49 129 248 320"/>
<path stroke-width="1" stroke="black" d="M 195 284 212 183"/>
<path stroke-width="1" stroke="black" d="M 195 284 235 214"/>
<path stroke-width="1" stroke="black" d="M 49 129 195 284"/>
<path stroke-width="1" stroke="black" d="M 195 284 101 68"/>
<path stroke-width="1" stroke="black" d="M 419 144 177 20"/>
<path stroke-width="1" stroke="black" d="M 419 144 241 175"/>
<path stroke-width="1" stroke="black" d="M 178 35 212 183"/>
<path stroke-width="1" stroke="black" d="M 178 35 235 214"/>
<path stroke-width="1" stroke="black" d="M 178 35 411 67"/>
<path stroke-width="1" stroke="black" d="M 178 35 190 29"/>
<path stroke-width="1" stroke="black" d="M 178 35 308 96"/>
<path stroke-width="1" stroke="black" d="M 178 35 81 102"/>
<path stroke-width="1" stroke="black" d="M 178 35 302 28"/>
<path stroke-width="1" stroke="black" d="M 178 35 403 209"/>
<path stroke-width="1" stroke="black" d="M 178 35 387 253"/>
<path stroke-width="1" stroke="black" d="M 178 35 20 158"/>
<path stroke-width="1" stroke="black" d="M 178 35 323 51"/>
<path stroke-width="1" stroke="black" d="M 178 35 28 125"/>
<path stroke-width="1" stroke="black" d="M 178 35 241 175"/>
<path stroke-width="1" stroke="black" d="M 178 35 241 176"/>
<path stroke-width="1" stroke="black" d="M 178 35 177 20"/>
<path stroke-width="1" stroke="black" d="M 178 35 138 309"/>
<path stroke-width="1" stroke="black" d="M 178 35 419 144"/>
<path stroke-width="1" stroke="black" d="M 178 35 313 298"/>
<path stroke-width="1" stroke="black" d="M 178 35 49 129"/>
<path stroke-width="1" stroke="black" d="M 177 20 248 320"/>
<path stroke-width="1" stroke="black" d="M 177 20 101 68"/>
<path stroke-width="1" stroke="black" d="M 177 20 420 146"/>
<path stroke-width="1" stroke="black" d="M 177 20 71 258"/>
<path stroke-width="1" stroke="black" d="M 177 20 190 29"/>
<path stroke-width="1" stroke="black" d="M 177 20 308 96"/>
<path stroke-width="1" stroke="black" d="M 177 20 81 102"/>
<path stroke-width="1" stroke="black" d="M 177 20 302 28"/>
<path stroke-width="1" stroke="black" d="M 177 20 403 209"/>
<path stroke-width="1" stroke="black" d="M 177 20 387 253"/>
<path stroke-width="1" stroke="black" d="M 177 20 20 158"/>
<path stroke-width="1" stroke="black" d="M 177 20 323 51"/>
<path stroke-width="1" stroke="black" d="M 177 20 28 125"/>
<path stroke-width="1" stroke="black" d="M 178 35 195 284"/>
<path stroke-width="1" stroke="black" d="M 177 20 241 175"/>
<path stroke-width="1" stroke="black" d="M 177 20 178 35"/>
<path stroke-width="1" stroke="black" d="M 177 20 138 309"/>
<path stroke-width="1" stroke="black" d="M 177 20 419 144"/>
<path stroke-width="1" stroke="black" d="M 177 20 313 298"/>
<path stroke-width="1" stroke="black" d="M 177 20 49 129"/>
<path stroke-width="1" stroke="black" d="M 177 20 195 284"/>
<path stroke-width="1" stroke="black" d="M 177 20 66 229"/>
<path stroke-width="1" stroke="black" d="M 177 20 42 235"/>
<path stroke-width="1" stroke="black" d="M 177 20 378 260"/>
<path stroke-width="1" stroke="black" d="M 177 20 241 176"/>
<path stroke-width="1" stroke="black" d="M 419 144 241 176"/>
<path stroke-width="1" stroke="black" d="M 178 35 66 229"/>
<path stroke-width="1" stroke="black" d="M 178 35 378 260"/>
<path stroke-width="1" stroke="black" d="M 138 309 66 229"/>
<path stroke-width="1" stroke="black" d="M 138 309 42 235"/>
<path stroke-width="1" stroke="black" d="M 138 309 378 260"/>
<path stroke-width="1" stroke="black" d="M 138 309 71 258"/>
<path stroke-width="1" stroke="black" d="M 138 309 420 146"/>
<path stroke-width="1" stroke="black" d="M 138 309 101 68"/>
<path stroke-width="1" stroke="black" d="M 138 309 248 320"/>
<path stroke-width="1" stroke="black" d="M 419 144 212 183"/>
<path stroke-width="1" stroke="black" d="M 419 144 235 214"/>
<path stroke-width="1" stroke="black" d="M 419 144 411 67"/>
<path stroke-width="1" stroke="black" d="M 419 144 190 29"/>
<path stroke-width="1" stroke="black" d="M 419 144 308 96"/>
<path stroke-width="1" stroke="black" d="M 419 144 81 102"/>
<path stroke-width="1" stroke="black" d="M 419 144 302 28"/>
<path stroke-width="1" stroke="black" d="M 419 144 403 209"/>
<path stroke-width="1" stroke="black" d="M 419 144 387 253"/>
<path stroke-width="1" stroke="black" d="M 419 144 20 158"/>
<path stroke-width="1" stroke="black" d="M 419 144 323 51"/>
<path stroke-width="1" stroke="black" d="M 419 144 28 125"/>
<path stroke-width="1" stroke="black" d="M 138 309 195 284"/>
<path stroke-width="1" stroke="black" d="M 138 309 49 129"/>
<path stroke-width="1" stroke="black" d="M 138 309 313 298"/>
<path stroke-width="1" stroke="black" d="M 138 309 419 144"/>
<path stroke-width="1" stroke="black" d="M 178 35 71 258"/>
<path stroke-width="1" stroke="black" d="M 178 35 420 146"/>
<path stroke-width="1" stroke="black" d="M 178 35 101 68"/>
<path stroke-width="1" stroke="black" d="M 178 35 248 320"/>
<path stroke-width="1" stroke="black" d="M 138 309 212 183"/>
<path stroke-width="1" stroke="black" d="M 138 309 235 214"/>
<path stroke-width="1" stroke="black" d="M 138 309 411 67"/>
<path stroke-width="1" stroke="black" d="M 138 309 190 29"/>
<path stroke-width="1" stroke="black" d="M 138 309 308 96"/>
<path stroke-width="1" stroke="black" d="M 178 35 42 235"/>
<path stroke-width="1" stroke="black" d="M 138 309 81 102"/>
<path stroke-width="1" stroke="black" d="M 138 309 403 209"/>
<path stroke-width="1" stroke="black" d="M 138 309 387 253"/>
<path stroke-width="1" stroke="black" d="M 138 309 20 158"/>
<path stroke-width="1" stroke="black" d="M 138 309 323 51"/>
<path stroke-width="1" stroke="black" d="M 138 309 28 125"/>
<path stroke-width="1" stroke="black" d="M 138 309 241 175"/>
<path stroke-width="1" stroke="black" d="M 138 309 241 176"/>
<path stroke-width="1" stroke="black" d="M 138 309 177 20"/>
<path stroke-width="1" stroke="black" d="M 138 309 178 35"/>
<path stroke-width="1" stroke="black" d="M 138 309 302 28"/>
<path stroke-width="1" stroke="black" d="M 195 284 248 320"/>
<path stroke-width="1" stroke="black" d="M 66 229 212 183"/>
<path stroke-width="1" stroke="black" d="M 66 229 235 214"/>
<path stroke-width="1" stroke="black" d="M 420 146 241 176"/>
<path stroke-width="1" stroke="black" d="M 420 146 177 20"/>
<path stroke-width="1" stroke="black" d="M 420 146 178 35"/>
<path stroke-width="1" stroke="black" d="M 420 146 138 309"/>
<path stroke-width="1" stroke="black" d="M 420 146 419 144"/>
<path stroke-width="1" stroke="black" d="M 420 146 313 298"/>
<path stroke-width="1" stroke="black" d="M 420 146 49 129"/>
<path stroke-width="1" stroke="black" d="M 420 146 195 284"/>
<path stroke-width="1" stroke="black" d="M 420 146 66 229"/>
<path stroke-width="1" stroke="black" d="M 420 146 42 235"/>
<path stroke-width="1" stroke="black" d="M 420 146 378 260"/>
<path stroke-width="1" stroke="black" d="M 420 146 71 258"/>
<path stroke-width="1" stroke="black" d="M 420 146 101 68"/>
<path stroke-width="1" stroke="black" d="M 420 146 248 320"/>
<path stroke-width="1" stroke="black" d="M 101 68 212 183"/>
<path stroke-width="1" stroke="black" d="M 101 68 235 214"/>
<path stroke-width="1" stroke="black" d="M 101 68 411 67"/>
<path stroke-width="1" stroke="black" d="M 101 68 190 29"/>
<path stroke-width="1" stroke="black" d="M 101 68 308 96"/>
<path stroke-width="1" stroke="black" d="M 420 146 241 175"/>
<path stroke-width="1" stroke="black" d="M 420 146 28 125"/>
<path stroke-width="1" stroke="black" d="M 420 146 323 51"/>
<path stroke-width="1" stroke="black" d="M 420 146 20 158"/>
<path stroke-width="1" stroke="black" d="M 71 258 138 309"/>
<path stroke-width="1" stroke="black" d="M 71 258 419 144"/>
<path stroke-width="1" stroke="black" d="M 71 258 313 298"/>
<path stroke-width="1" stroke="black" d="M 71 258 49 129"/>
<path stroke-width="1" stroke="black" d="M 71 258 195 284"/>
<path stroke-width="1" stroke="black" d="M 71 258 66 229"/>
<path stroke-width="1" stroke="black" d="M 71 258 42 235"/>
<path stroke-width="1" stroke="black" d="M 71 258 378 260"/>
<path stroke-width="1" stroke="black" d="M 71 258 420 146"/>
<path stroke-width="1" stroke="black" d="M 101 68 81 102"/>
<path stroke-width="1" stroke="black" d="M 71 258 101 68"/>
<path stroke-width="1" stroke="black" d="M 420 146 212 183"/>
<path stroke-width="1" stroke="black" d="M 420 146 235 214"/>
<path stroke-width="1" stroke="black" d="M 420 146 411 67"/>
<path stroke-width="1" stroke="black" d="M 420 146 190 29"/>
<path stroke-width="1" stroke="black" d="M 420 146 308 96"/>
<path stroke-width="1" stroke="black" d="M 420 146 81 102"/>
<path stroke-width="1" stroke="black" d="M 420 146 302 28"/>
<path stroke-width="1" stroke="black" d="M 420 146 403 209"/>
<path stroke-width="1" stroke="black" d="M 420 146 387 253"/>
<path stroke-width="1" stroke="black" d="M 71 258 248 320"/>
<path stroke-width="1" stroke="black" d="M 71 258 178 35"/>
<path stroke-width="1" stroke="black" d="M 101 68 302 28"/>
<path stroke-width="1" stroke="black" d="M 101 68 387 253"/>
<path stroke-width="1" stroke="black" d="M 248 320 302 28"/>
<path stroke-width="1" stroke="black" d="M 248 320 403 209"/>
<path stroke-width="1" stroke="black" d="M 248 320 387 253"/>
<path stroke-width="1" stroke="black" d="M 248 320 20 158"/>
<path stroke-width="1" stroke="black" d="M 248 320 323 51"/>
<path stroke-width="1" stroke="black" d="M 248 320 28 125"/>
<path stroke-width="1" stroke="black" d="M 248 320 241 175"/>
<path stroke-width="1" stroke="black" d="M 248 320 241 176"/>
<path stroke-width="1" stroke="black" d="M 248 320 177 20"/>
<path stroke-width="1" stroke="black" d="M 248 320 178 35"/>
<path stroke-width="1" stroke="black" d="M 248 320 138 309"/>
<path stroke-width="1" stroke="black" d="M 248 320 419 144"/>
<path stroke-width="1" stroke="black" d="M 248 320 313 298"/>
<path stroke-width="1" stroke="black" d="M 248 320 49 129"/>
<path stroke-width="1" stroke="black" d="M 248 320 195 284"/>
<path stroke-width="1" stroke="black" d="M 248 320 66 229"/>
<path stroke-width="1" stroke="black" d="M 248 320 42 235"/>
<path stroke-width="1" stroke="black" d="M 248 320 378 260"/>
<path stroke-width="1" stroke="black" d="M 248 320 71 258"/>
<path stroke-width="1" stroke="black" d="M 248 320 81 102"/>
<path stroke-width="1" stroke="black" d="M 248 320 308 96"/>
<path stroke-width="1" stroke="black" d="M 248 320 190 29"/>
<path stroke-width="1" stroke="black" d="M 248 320 411 67"/>
<path stroke-width="1" stroke="black" d="M 101 68 20 158"/>
<path stroke-width="1" stroke="black" d="M 101 68 323 51"/>
<path stroke-width="1" stroke="black" d="M 101 68 28 125"/>
<path stroke-width="1" stroke="black" d="M 101 68 241 175"/>
<path stroke-width="1" stroke="black" d="M 101 68 241 176"/>
<path stroke-width="1" stroke="black" d="M 101 68 177 20"/>
<path stroke-width="1" stroke="black" d="M 101 68 178 35"/>
<path stroke-width="1" stroke="black" d="M 101 68 138 309"/>
<path stroke-width="1" stroke="black" d="M 101 68 419 144"/>
<path stroke-width="1" stroke="black" d="M 101 68 403 209"/>
<path stroke-width="1" stroke="black" d="M 101 68 313 298"/>
<path stroke-width="1" stroke="black" d="M 101 68 195 284"/>
<path stroke-width="1" stroke="black" d="M 101 68 66 229"/>
<path stroke-width="1" stroke="black" d="M 101 68 42 235"/>
<path stroke-width="1" stroke="black" d="M 101 68 378 260"/>
<path stroke-width="1" stroke="black" d="M 101 68 71 258"/>
<path stroke-width="1" stroke="black" d="M 101 68 420 146"/>
<path stroke-width="1" stroke="black" d="M 101 68 248 320"/>
<path stroke-width="1" stroke="black" d="M 248 320 212 183"/>
<path stroke-width="1" stroke="black" d="M 248 320 235 214"/>
<path stroke-width="1" stroke="black" d="M 101 68 49 129"/>
<path stroke-width="1" stroke="black" d="M 71 258 177 20"/>
<path stroke-width="1" stroke="black" d="M 71 258 241 176"/>
<path stroke-width="1" stroke="black" d="M 71 258 241 175"/>
<path stroke-width="1" stroke="black" d="M 66 229 248 320"/>
<path stroke-width="1" stroke="black" d="M 42 235 212 183"/>
<path stroke-width="1" stroke="black" d="M 42 235 235 214"/>
<path stroke-width="1" stroke="black" d="M 42 235 411 67"/>
<path stroke-width="1" stroke="black" d="M 42 235 190 29"/>
<path stroke-width="1" stroke="black" d="M 42 235 308 96"/>
<path stroke-width="1" stroke="black" d="M 42 235 81 102"/>
<path stroke-width="1" stroke="black" d="M 42 235 302 28"/>
<path stroke-width="1" stroke="black" d="M 42 235 403 209"/>
<path stroke-width="1" stroke="black" d="M 42 235 387 253"/>
<path stroke-width="1" stroke="black" d="M 42 235 20 158"/>
<path stroke-width="1" stroke="black" d="M 42 235 323 51"/>
<path stroke-width="1" stroke="black" d="M 42 235 28 125"/>
<path stroke-width="1" stroke="black" d="M 42 235 241 175"/>
<path stroke-width="1" stroke="black" d="M 42 235 241 176"/>
<path stroke-width="1" stroke="black" d="M 42 235 177 20"/>
<path stroke-width="1" stroke="black" d="M 42 235 178 35"/>
<path stroke-width="1" stroke="black" d="M 42 235 138 309"/>
<path stroke-width="1" stroke="black" d="M 42 235 419 144"/>
<path stroke-width="1" stroke="black" d="M 66 229 101 68"/>
<path stroke-width="1" stroke="black" d="M 66 229 420 146"/>
<path stroke-width="1" stroke="black" d="M 66 229 71 258"/>
<path stroke-width="1" stroke="black" d="M 66 229 378 260"/>
<path stroke-width="1" stroke="black" d="M 66 229 411 67"/>
<path stroke-width="1" stroke="black" d="M 66 229 190 29"/>
<path stroke-width="1" stroke="black" d="M 66 229 308 96"/>
<path stroke-width="1" stroke="black" d="M 66 229 81 102"/>
<path stroke-width="1" stroke="black" d="M 66 229 302 28"/>
<path stroke-width="1" stroke="black" d="M 66 229 403 209"/>
<path stroke-width="1" stroke="black" d="M 66 229 387 253"/>
<path stroke-width="1" stroke="black" d="M 66 229 20 158"/>
<path stroke-width="1" stroke="black" d="M 66 229 323 51"/>
<path stroke-width="1" stroke="black" d="M 42 235 313 298"/>
<path stroke-width="1" stroke="black" d="M 66 229 28 125"/>
<path stroke-width="1" stroke="black" d="M 66 229 241 176"/>
<path stroke-width="1" stroke="black" d="M 66 229 177 20"/>
<path stroke-width="1" stroke="black" d="M 66 229 178 35"/>
<path stroke-width="1" stroke="black" d="M 66 229 138 309"/>
<path stroke-width="1" stroke="black" d="M 66 229 419 144"/>
<path stroke-width="1" stroke="black" d="M 66 229 313 298"/>
<path stroke-width="1" stroke="black" d="M 66 229 49 129"/>
<path stroke-width="1" stroke="black" d="M 66 229 195 284"/>
<path stroke-width="1" stroke="black" d="M 66 229 42 235"/>
<path stroke-width="1" stroke="black" d="M 66 229 241 175"/>
<path stroke-width="1" stroke="black" d="M 42 235 49 129"/>
<path stroke-width="1" stroke="black" d="M 42 235 195 284"/>
<path stroke-width="1" stroke="black" d="M 42 235 66 229"/>
<path stroke-width="1" stroke="black" d="M 378 260 49 129"/>
<path stroke-width="1" stroke="black" d="M 378 260 195 284"/>
<path stroke-width="1" stroke="black" d="M 378 260 66 229"/>
<path stroke-width="1" stroke="black" d="M 378 260 42 235"/>
<path stroke-width="1" stroke="black" d="M 378 260 71 258"/>
<path stroke-width="1" stroke="black" d="M 378 260 420 146"/>
<path stroke-width="1" stroke="black" d="M 378 260 101 68"/>
<path stroke-width="1" stroke="black" d="M 378 260 248 320"/>
<path stroke-width="1" stroke="black" d="M 71 258 212 183"/>
<path stroke-width="1" stroke="black" d="M 378 260 313 298"/>
<path stroke-width="1" stroke="black" d="M 71 258 235 214"/>
<path stroke-width="1" stroke="black" d="M 71 258 190 29"/>
<path stroke-width="1" stroke="black" d="M 71 258 308 96"/>
<path stroke-width="1" stroke="black" d="M 71 258 81 102"/>
<path stroke-width="1" stroke="black" d="M 71 258 302 28"/>
<path stroke-width="1" stroke="black" d="M 71 258 403 209"/>
<path stroke-width="1" stroke="black" d="M 71 258 387 253"/>
<path stroke-width="1" stroke="black" d="M 71 258 20 158"/>
<path stroke-width="1" stroke="black" d="M 71 258 323 51"/>
<path stroke-width="1" stroke="black" d="M 71 258 28 125"/>
<path stroke-width="1" stroke="black" d="M 71 258 411 67"/>
<path stroke-width="1" stroke="black" d="M 177 20 411 67"/>
<path stroke-width="1" stroke="black" d="M 378 260 419 144"/>
<path stroke-width="1" stroke="black" d="M 378 260 178 35"/>
<path stroke-width="1" stroke="black" d="M 42 235 378 260"/>
<path stroke-width="1" stroke="black" d="M 42 235 71 258"/>
<path stroke-width="1" stroke="black" d="M 42 235 420 146"/>
<path stroke-width="1" stroke="black" d="M 42 235 101 68"/>
<path stroke-width="1" stroke="black" d="M 42 235 248 320"/>
<path stroke-width="1" stroke="black" d="M 378 260 212 183"/>
<path stroke-width="1" stroke="black" d="M 378 260 235 214"/>
<path stroke-width="1" stroke="black" d="M 378 260 411 67"/>
<path stroke-width="1" stroke="black" d="M 378 260 190 29"/>
<path stroke-width="1" stroke="black" d="M 378 260 138 309"/>
<path stroke-width="1" stroke="black" d="M 378 260 308 96"/>
<path stroke-width="1" stroke="black" d="M 378 260 302 28"/>
<path stroke-width="1" stroke="black" d="M 378 260 403 209"/>
<path stroke-width="1" stroke="black" d="M 378 260 387 253"/>
<path stroke-width="1" stroke="black" d="M 378 260 20 158"/>
<path stroke-width="1" stroke="black" d="M 378 260 323 51"/>
<path stroke-width="1" stroke="black" d="M 378 260 28 125"/>
<path stroke-width="1" stroke="black" d="M 378 260 241 175"/>
<path stroke-width="1" stroke="black" d="M 378 260 241 176"/>
<path stroke-width="1" stroke="black" d="M 378 260 177 20"/>
<path stroke-width="1" stroke="black" d="M 378 260 81 102"/>
<path stroke-width="1" stroke="black" d="M 177 20 235 214"/>
<path stroke-width="1" stroke="black" d="M 177 20 212 183"/>
<path stroke-width="1" stroke="black" d="M 241 176 248 320"/>
<path stroke-width="1" stroke="black" d="M 308 96 178 35"/>
<path stroke-width="1" stroke="black" d="M 308 96 138 309"/>
<path stroke-width="1" stroke="black" d="M 308 96 419 144"/>
<path stroke-width="1" stroke="black" d="M 308 96 313 298"/>
<path stroke-width="1" stroke="black" d="M 308 96 49 129"/>
<path stroke-width="1" stroke="black" d="M 308 96 195 284"/>
<path stroke-width="1" stroke="black" d="M 308 96 66 229"/>
<path stroke-width="1" stroke="black" d="M 308 96 42 235"/>
<path stroke-width="1" stroke="black" d="M 308 96 378 260"/>
<path stroke-width="1" stroke="black" d="M 308 96 71 258"/>
<path stroke-width="1" stroke="black" d="M 308 96 420 146"/>
<path stroke-width="1" stroke="black" d="M 308 96 101 68"/>
<path stroke-width="1" stroke="black" d="M 308 96 248 320"/>
<path stroke-width="1" stroke="black" d="M 81 102 212 183"/>
<path stroke-width="1" stroke="black" d="M 81 102 235 214"/>
<path stroke-width="1" stroke="black" d="M 81 102 411 67"/>
<path stroke-width="1" stroke="black" d="M 81 102 190 29"/>
<path stroke-width="1" stroke="black" d="M 81 102 308 96"/>
<path stroke-width="1" stroke="black" d="M 81 102 302 28"/>
<path stroke-width="1" stroke="black" d="M 308 96 177 20"/>
<path stroke-width="1" stroke="black" d="M 308 96 241 176"/>
<path stroke-width="1" stroke="black" d="M 308 96 241 175"/>
<path stroke-width="1" stroke="black" d="M 308 96 28 125"/>
<path stroke-width="1" stroke="black" d="M 190 29 419 144"/>
<path stroke-width="1" stroke="black" d="M 190 29 313 298"/>
<path stroke-width="1" stroke="black" d="M 190 29 49 129"/>
<path stroke-width="1" stroke="black" d="M 190 29 195 284"/>
<path stroke-width="1" stroke="black" d="M 190 29 66 229"/>
<path stroke-width="1" stroke="black" d="M 190 29 42 235"/>
<path stroke-width="1" stroke="black" d="M 190 29 378 260"/>
<path stroke-width="1" stroke="black" d="M 190 29 71 258"/>
<path stroke-width="1" stroke="black" d="M 190 29 420 146"/>
<path stroke-width="1" stroke="black" d="M 81 102 403 209"/>
<path stroke-width="1" stroke="black" d="M 190 29 101 68"/>
<path stroke-width="1" stroke="black" d="M 308 96 212 183"/>
<path stroke-width="1" stroke="black" d="M 308 96 235 214"/>
<path stroke-width="1" stroke="black" d="M 308 96 190 29"/>
<path stroke-width="1" stroke="black" d="M 308 96 81 102"/>
<path stroke-width="1" stroke="black" d="M 308 96 302 28"/>
<path stroke-width="1" stroke="black" d="M 308 96 403 209"/>
<path stroke-width="1" stroke="black" d="M 308 96 387 253"/>
<path stroke-width="1" stroke="black" d="M 308 96 20 158"/>
<path stroke-width="1" stroke="black" d="M 308 96 323 51"/>
<path stroke-width="1" stroke="black" d="M 190 29 248 320"/>
<path stroke-width="1" stroke="black" d="M 190 29 138 309"/>
<path stroke-width="1" stroke="black" d="M 81 102 387 253"/>
<path stroke-width="1" stroke="black" d="M 81 102 323 51"/>
<path stroke-width="1" stroke="black" d="M 302 28 387 253"/>
<path stroke-width="1" stroke="black" d="M 302 28 20 158"/>
<path stroke-width="1" stroke="black" d="M 302 28 323 51"/>
<path stroke-width="1" stroke="black" d="M 302 28 28 125"/>
<path stroke-width="1" stroke="black" d="M 302 28 241 175"/>
<path stroke-width="1" stroke="black" d="M 302 28 241 176"/>
<path stroke-width="1" stroke="black" d="M 302 28 177 20"/>
<path stroke-width="1" stroke="black" d="M 302 28 178 35"/>
<path stroke-width="1" stroke="black" d="M 302 28 138 309"/>
<path stroke-width="1" stroke="black" d="M 302 28 419 144"/>
<path stroke-width="1" stroke="black" d="M 302 28 313 298"/>
<path stroke-width="1" stroke="black" d="M 302 28 49 129"/>
<path stroke-width="1" stroke="black" d="M 302 28 195 284"/>
<path stroke-width="1" stroke="black" d="M 302 28 66 229"/>
<path stroke-width="1" stroke="black" d="M 302 28 42 235"/>
<path stroke-width="1" stroke="black" d="M 302 28 378 260"/>
<path stroke-width="1" stroke="black" d="M 302 28 71 258"/>
<path stroke-width="1" stroke="black" d="M 302 28 420 146"/>
<path stroke-width="1" stroke="black" d="M 302 28 101 68"/>
<path stroke-width="1" stroke="black" d="M 302 28 403 209"/>
<path stroke-width="1" stroke="black" d="M 302 28 81 102"/>
<path stroke-width="1" stroke="black" d="M 302 28 308 96"/>
<path stroke-width="1" stroke="black" d="M 302 28 190 29"/>
<path stroke-width="1" stroke="black" d="M 81 102 28 125"/>
<path stroke-width="1" stroke="black" d="M 81 102 241 175"/>
<path stroke-width="1" stroke="black" d="M 81 102 241 176"/>
<path stroke-width="1" stroke="black" d="M 81 102 177 20"/>
<path stroke-width="1" stroke="black" d="M 81 102 178 35"/>
<path stroke-width="1" stroke="black" d="M 81 102 138 309"/>
<path stroke-width="1" stroke="black" d="M 81 102 419 144"/>
<path stroke-width="1" stroke="black" d="M 81 102 313 298"/>
<path stroke-width="1" stroke="black" d="M 81 102 49 129"/>
<path stroke-width="1" stroke="black" d="M 81 102 20 158"/>
<path stroke-width="1" stroke="black" d="M 81 102 195 284"/>
<path stroke-width="1" stroke="black" d="M 81 102 42 235"/>
<path stroke-width="1" stroke="black" d="M 81 102 378 260"/>
<path stroke-width="1" stroke="black" d="M 81 102 71 258"/>
<path stroke-width="1" stroke="black" d="M 81 102 420 146"/>
<path stroke-width="1" stroke="black" d="M 81 102 101 68"/>
<path stroke-width="1" stroke="black" d="M 81 102 248 320"/>
<path stroke-width="1" stroke="black" d="M 302 28 212 183"/>
<path stroke-width="1" stroke="black" d="M 302 28 235 214"/>
<path stroke-width="1" stroke="black" d="M 302 28 411 67"/>
<path stroke-width="1" stroke="black" d="M 81 102 66 229"/>
<path stroke-width="1" stroke="black" d="M 190 29 178 35"/>
<path stroke-width="1" stroke="black" d="M 190 29 177 20"/>
<path stroke-width="1" stroke="black" d="M 190 29 241 176"/>
<path stroke-width="1" stroke="black" d="M 212 183 101 68"/>
<path stroke-width="1" stroke="black" d="M 212 183 248 320"/>
<path stroke-width="1" stroke="black" d="M 235 214 212 183"/>
<path stroke-width="1" stroke="black" d="M 235 214 411 67"/>
<path stroke-width="1" stroke="black" d="M 235 214 190 29"/>
<path stroke-width="1" stroke="black" d="M 235 214 308 96"/>
<path stroke-width="1" stroke="black" d="M 235 214 81 102"/>
<path stroke-width="1" stroke="black" d="M 235 214 302 28"/>
<path stroke-width="1" stroke="black" d="M 235 214 403 209"/>
<path stroke-width="1" stroke="black" d="M 235 214 387 253"/>
<path stroke-width="1" stroke="black" d="M 235 214 20 158"/>
<path stroke-width="1" stroke="black" d="M 235 214 323 51"/>
<path stroke-width="1" stroke="black" d="M 235 214 28 125"/>
<path stroke-width="1" stroke="black" d="M 235 214 241 175"/>
<path stroke-width="1" stroke="black" d="M 235 214 241 176"/>
<path stroke-width="1" stroke="black" d="M 235 214 177 20"/>
<path stroke-width="1" stroke="black" d="M 235 214 178 35"/>
<path stroke-width="1" stroke="black" d="M 235 214 138 309"/>
<path stroke-width="1" stroke="black" d="M 235 214 419 144"/>
<path stroke-width="1" stroke="black" d="M 212 183 420 146"/>
<path stroke-width="1" stroke="black" d="M 212 183 71 258"/>
<path stroke-width="1" stroke="black" d="M 212 183 378 260"/>
<path stroke-width="1" stroke="black" d="M 212 183 42 235"/>
<path stroke-width="1" stroke="black" d="M 212 183 411 67"/>
<path stroke-width="1" stroke="black" d="M 212 183 190 29"/>
<path stroke-width="1" stroke="black" d="M 212 183 308 96"/>
<path stroke-width="1" stroke="black" d="M 212 183 81 102"/>
<path stroke-width="1" stroke="black" d="M 212 183 302 28"/>
<path stroke-width="1" stroke="black" d="M 212 183 403 209"/>
<path stroke-width="1" stroke="black" d="M 212 183 387 253"/>
<path stroke-width="1" stroke="black" d="M 212 183 20 158"/>
<path stroke-width="1" stroke="black" d="M 212 183 323 51"/>
<path stroke-width="1" stroke="black" d="M 235 214 313 298"/>
<path stroke-width="1" stroke="black" d="M 212 183 28 125"/>
<path stroke-width="1" stroke="black" d="M 212 183 241 176"/>
<path stroke-width="1" stroke="black" d="M 212 183 177 20"/>
<path stroke-width="1" stroke="black" d="M 212 183 178 35"/>
<path stroke-width="1" stroke="black" d="M 212 183 138 309"/>
<path stroke-width="1" stroke="black" d="M 212 183 419 144"/>
<path stroke-width="1" stroke="black" d="M 212 183 313 298"/>
<path stroke-width="1" stroke="black" d="M 212 183 49 129"/>
<path stroke-width="1" stroke="black" d="M 212 183 195 284"/>
<path stroke-width="1" stroke="black" d="M 212 183 66 229"/>
<path stroke-width="1" stroke="black" d="M 212 183 241 175"/>
<path stroke-width="1" stroke="black" d="M 235 214 49 129"/>
<path stroke-width="1" stroke="black" d="M 235 214 195 284"/>
<path stroke-width="1" stroke="black" d="M 235 214 66 229"/>
<path stroke-width="1" stroke="black" d="M 411 67 195 284"/>
<path stroke-width="1" stroke="black" d="M 411 67 66 229"/>
<path stroke-width="1" stroke="black" d="M 411 67 42 235"/>
<path stroke-width="1" stroke="black" d="M 411 67 378 260"/>
<path stroke-width="1" stroke="black" d="M 411 67 71 258"/>
<path stroke-width="1" stroke="black" d="M 411 67 420 146"/>
<path stroke-width="1" stroke="black" d="M 411 67 101 68"/>
<path stroke-width="1" stroke="black" d="M 411 67 248 320"/>
<path stroke-width="1" stroke="black" d="M 190 29 212 183"/>
<path stroke-width="1" stroke="black" d="M 411 67 49 129"/>
<path stroke-width="1" stroke="black" d="M 190 29 235 214"/>
<path stroke-width="1" stroke="black" d="M 190 29 308 96"/>
<path stroke-width="1" stroke="black" d="M 190 29 81 102"/>
<path stroke-width="1" stroke="black" d="M 190 29 302 28"/>
<path stroke-width="1" stroke="black" d="M 190 29 403 209"/>
<path stroke-width="1" stroke="black" d="M 190 29 387 253"/>
<path stroke-width="1" stroke="black" d="M 190 29 20 158"/>
<path stroke-width="1" stroke="black" d="M 190 29 323 51"/>
<path stroke-width="1" stroke="black" d="M 190 29 28 125"/>
<path stroke-width="1" stroke="black" d="M 190 29 241 175"/>
<path stroke-width="1" stroke="black" d="M 190 29 411 67"/>
<path stroke-width="1" stroke="black" d="M 302 28 248 320"/>
<path stroke-width="1" stroke="black" d="M 411 67 313 298"/>
<path stroke-width="1" stroke="black" d="M 411 67 138 309"/>
<path stroke-width="1" stroke="black" d="M 235 214 42 235"/>
<path stroke-width="1" stroke="black" d="M 235 214 378 260"/>
<path stroke-width="1" stroke="black" d="M 235 214 71 258"/>
<path stroke-width="1" stroke="black" d="M 235 214 420 146"/>
<path stroke-width="1" stroke="black" d="M 235 214 101 68"/>
<path stroke-width="1" stroke="black" d="M 235 214 248 320"/>
<path stroke-width="1" stroke="black" d="M 411 67 212 183"/>
<path stroke-width="1" stroke="black" d="M 411 67 235 214"/>
<path stroke-width="1" stroke="black" d="M 411 67 190 29"/>
<path stroke-width="1" stroke="black" d="M 411 67 419 144"/>
<path stroke-width="1" stroke="black" d="M 411 67 81 102"/>
<path stroke-width="1" stroke="black" d="M 411 67 403 209"/>
<path stroke-width="1" stroke="black" d="M 411 67 387 253"/>
<path stroke-width="1" stroke="black" d="M 411 67 20 158"/>
<path stroke-width="1" stroke="black" d="M 411 67 323 51"/>
<path stroke-width="1" stroke="black" d="M 411 67 28 125"/>
<path stroke-width="1" stroke="black" d="M 411 67 241 175"/>
<path stroke-width="1" stroke="black" d="M 411 67 241 176"/>
<path stroke-width="1" stroke="black" d="M 411 67 177 20"/>
<path stroke-width="1" stroke="black" d="M 411 67 178 35"/>
<path stroke-width="1" stroke="black" d="M 411 67 302 28"/>
<path stroke-width="1" stroke="black" d="M 248 320 420 146"/>
<path stroke-width="1" stroke="black" d="M 403 209 212 183"/>
<path stroke-width="1" stroke="black" d="M 403 209 411 67"/>
<path stroke-width="1" stroke="black" d="M 28 125 178 35"/>
<path stroke-width="1" stroke="black" d="M 28 125 138 309"/>
<path stroke-width="1" stroke="black" d="M 28 125 419 144"/>
<path stroke-width="1" stroke="black" d="M 28 125 313 298"/>
<path stroke-width="1" stroke="black" d="M 28 125 49 129"/>
<path stroke-width="1" stroke="black" d="M 28 125 195 284"/>
<path stroke-width="1" stroke="black" d="M 28 125 66 229"/>
<path stroke-width="1" stroke="black" d="M 28 125 42 235"/>
<path stroke-width="1" stroke="black" d="M 28 125 378 260"/>
<path stroke-width="1" stroke="black" d="M 28 125 71 258"/>
<path stroke-width="1" stroke="black" d="M 28 125 420 146"/>
<path stroke-width="1" stroke="black" d="M 28 125 101 68"/>
<path stroke-width="1" stroke="black" d="M 28 125 248 320"/>
<path stroke-width="1" stroke="black" d="M 241 175 212 183"/>
<path stroke-width="1" stroke="black" d="M 241 175 235 214"/>
<path stroke-width="1" stroke="black" d="M 241 175 411 67"/>
<path stroke-width="1" stroke="black" d="M 241 175 190 29"/>
<path stroke-width="1" stroke="black" d="M 241 175 308 96"/>
<path stroke-width="1" stroke="black" d="M 241 175 81 102"/>
<path stroke-width="1" stroke="black" d="M 28 125 177 20"/>
<path stroke-width="1" stroke="black" d="M 28 125 241 176"/>
<path stroke-width="1" stroke="black" d="M 28 125 241 175"/>
<path stroke-width="1" stroke="black" d="M 28 125 323 51"/>
<path stroke-width="1" stroke="black" d="M 323 51 313 298"/>
<path stroke-width="1" stroke="black" d="M 323 51 49 129"/>
<path stroke-width="1" stroke="black" d="M 323 51 195 284"/>
<path stroke-width="1" stroke="black" d="M 323 51 66 229"/>
<path stroke-width="1" stroke="black" d="M 323 51 42 235"/>
<path stroke-width="1" stroke="black" d="M 323 51 378 260"/>
<path stroke-width="1" stroke="black" d="M 323 51 71 258"/>
<path stroke-width="1" stroke="black" d="M 323 51 420 146"/>
<path stroke-width="1" stroke="black" d="M 323 51 101 68"/>
<path stroke-width="1" stroke="black" d="M 241 175 302 28"/>
<path stroke-width="1" stroke="black" d="M 323 51 248 320"/>
<path stroke-width="1" stroke="black" d="M 28 125 235 214"/>
<path stroke-width="1" stroke="black" d="M 28 125 411 67"/>
<path stroke-width="1" stroke="black" d="M 28 125 190 29"/>
<path stroke-width="1" stroke="black" d="M 28 125 308 96"/>
<path stroke-width="1" stroke="black" d="M 28 125 81 102"/>
<path stroke-width="1" stroke="black" d="M 28 125 302 28"/>
<path stroke-width="1" stroke="black" d="M 28 125 403 209"/>
<path stroke-width="1" stroke="black" d="M 28 125 387 253"/>
<path stroke-width="1" stroke="black" d="M 28 125 20 158"/>
<path stroke-width="1" stroke="black" d="M 28 125 212 183"/>
<path stroke-width="1" stroke="black" d="M 323 51 419 144"/>
<path stroke-width="1" stroke="black" d="M 241 175 403 209"/>
<path stroke-width="1" stroke="black" d="M 241 175 20 158"/>
<path stroke-width="1" stroke="black" d="M 241 176 403 209"/>
<path stroke-width="1" stroke="black" d="M 241 176 387 253"/>
<path stroke-width="1" stroke="black" d="M 241 176 20 158"/>
<path stroke-width="1" stroke="black" d="M 241 176 323 51"/>
<path stroke-width="1" stroke="black" d="M 241 176 28 125"/>
<path stroke-width="1" stroke="black" d="M 241 176 241 175"/>
<path stroke-width="1" stroke="black" d="M 241 176 177 20"/>
<path stroke-width="1" stroke="black" d="M 241 176 178 35"/>
<path stroke-width="1" stroke="black" d="M 241 176 138 309"/>
<path stroke-width="1" stroke="black" d="M 241 176 419 144"/>
<path stroke-width="1" stroke="black" d="M 241 176 313 298"/>
<path stroke-width="1" stroke="black" d="M 241 176 49 129"/>
<path stroke-width="1" stroke="black" d="M 241 176 195 284"/>
<path stroke-width="1" stroke="black" d="M 241 176 66 229"/>
<path stroke-width="1" stroke="black" d="M 241 176 42 235"/>
<path stroke-width="1" stroke="black" d="M 241 176 378 260"/>
<path stroke-width="1" stroke="black" d="M 241 176 71 258"/>
<path stroke-width="1" stroke="black" d="M 241 176 420 146"/>
<path stroke-width="1" stroke="black" d="M 241 176 101 68"/>
<path stroke-width="1" stroke="black" d="M 241 176 302 28"/>
<path stroke-width="1" stroke="black" d="M 241 176 81 102"/>
<path stroke-width="1" stroke="black" d="M 241 176 308 96"/>
<path stroke-width="1" stroke="black" d="M 241 176 190 29"/>
<path stroke-width="1" stroke="black" d="M 241 175 323 51"/>
<path stroke-width="1" stroke="black" d="M 241 175 28 125"/>
<path stroke-width="1" stroke="black" d="M 241 175 241 176"/>
<path stroke-width="1" stroke="black" d="M 241 175 177 20"/>
<path stroke-width="1" stroke="black" d="M 241 175 178 35"/>
<path stroke-width="1" stroke="black" d="M 241 175 138 309"/>
<path stroke-width="1" stroke="black" d="M 241 175 419 144"/>
<path stroke-width="1" stroke="black" d="M 241 175 313 298"/>
<path stroke-width="1" stroke="black" d="M 241 175 49 129"/>
<path stroke-width="1" stroke="black" d="M 241 175 387 253"/>
<path stroke-width="1" stroke="black" d="M 241 175 195 284"/>
<path stroke-width="1" stroke="black" d="M 241 175 42 235"/>
<path stroke-width="1" stroke="black" d="M 241 175 378 260"/>
<path stroke-width="1" stroke="black" d="M 241 175 71 258"/>
<path stroke-width="1" stroke="black" d="M 241 175 420 146"/>
<path stroke-width="1" stroke="black" d="M 241 175 101 68"/>
<path stroke-width="1" stroke="black" d="M 241 175 248 320"/>
<path stroke-width="1" stroke="black" d="M 241 176 212 183"/>
<path stroke-width="1" stroke="black" d="M 241 176 235 214"/>
<path stroke-width="1" stroke="black" d="M 241 176 411 67"/>
<path stroke-width="1" stroke="black" d="M 241 175 66 229"/>
<path stroke-width="1" stroke="black" d="M 323 51 138 309"/>
<path stroke-width="1" stroke="black" d="M 323 51 178 35"/>
<path stroke-width="1" stroke="black" d="M 323 51 177 20"/>
<path stroke-width="1" stroke="black" d="M 387 253 212 183"/>
<path stroke-width="1" stroke="black" d="M 387 253 235 214"/>
<path stroke-width="1" stroke="black" d="M 387 253 411 67"/>
<path stroke-width="1" stroke="black" d="M 387 253 190 29"/>
<path stroke-width="1" stroke="black" d="M 387 253 308 96"/>
<path stroke-width="1" stroke="black" d="M 387 253 81 102"/>
<path stroke-width="1" stroke="black" d="M 387 253 302 28"/>
<path stroke-width="1" stroke="black" d="M 387 253 403 209"/>
<path stroke-width="1" stroke="black" d="M 387 253 20 158"/>
<path stroke-width="1" stroke="black" d="M 387 253 323 51"/>
<path stroke-width="1" stroke="black" d="M 387 253 28 125"/>
<path stroke-width="1" stroke="black" d="M 387 253 241 175"/>
<path stroke-width="1" stroke="black" d="M 387 253 241 176"/>
<path stroke-width="1" stroke="black" d="M 387 253 177 20"/>
<path stroke-width="1" stroke="black" d="M 387 253 178 35"/>
<path stroke-width="1" stroke="black" d="M 387 253 138 309"/>
<path stroke-width="1" stroke="black" d="M 387 253 419 144"/>
<path stroke-width="1" stroke="black" d="M 387 253 313 298"/>
<path stroke-width="1" stroke="black" d="M 387 253 49 129"/>
<path stroke-width="1" stroke="black" d="M 403 209 248 320"/>
<path stroke-width="1" stroke="black" d="M 403 209 101 68"/>
<path stroke-width="1" stroke="black" d="M 403 209 420 146"/>
<path stroke-width="1" stroke="black" d="M 403 209 71 258"/>
<path stroke-width="1" stroke="black" d="M 403 209 190 29"/>
<path stroke-width="1" stroke="black" d="M 403 209 308 96"/>
<path stroke-width="1" stroke="black" d="M 403 209 81 102"/>
<path stroke-width="1" stroke="black" d="M 403 209 302 28"/>
<path stroke-width="1" stroke="black" d="M 403 209 387 253"/>
<path stroke-width="1" stroke="black" d="M 403 209 20 158"/>
<path stroke-width="1" stroke="black" d="M 403 209 323 51"/>
<path stroke-width="1" stroke="black" d="M 403 209 28 125"/>
<path stroke-width="1" stroke="black" d="M 403 209 241 175"/>
<path stroke-width="1" stroke="black" d="M 387 253 195 284"/>
<path stroke-width="1" stroke="black" d="M 403 209 241 176"/>
<path stroke-width="1" stroke="black" d="M 403 209 178 35"/>
<path stroke-width="1" stroke="black" d="M 403 209 138 309"/>
<path stroke-width="1" stroke="black" d="M 403 209 419 144"/>
<path stroke-width="1" stroke="black" d="M 403 209 313 298"/>
<path stroke-width="1" stroke="black" d="M 403 209 49 129"/>
<path stroke-width="1" stroke="black" d="M 403 209 195 284"/>
<path stroke-width="1" stroke="black" d="M 403 209 66 229"/>
<path stroke-width="1" stroke="black" d="M 403 209 42 235"/>
<path stroke-width="1" stroke="black" d="M 403 209 378 260"/>
<path stroke-width="1" stroke="black" d="M 403 209 177 20"/>
<path stroke-width="1" stroke="black" d="M 387 253 66 229"/>
<path stroke-width="1" stroke="black" d="M 387 253 42 235"/>
<path stroke-width="1" stroke="black" d="M 387 253 378 260"/>
<path stroke-width="1" stroke="black" d="M 20 158 66 229"/>
<path stroke-width="1" stroke="black" d="M 20 158 42 235"/>
<path stroke-width="1" stroke="black" d="M 20 158 378 260"/>
<path stroke-width="1" stroke="black" d="M 20 158 71 258"/>
<path stroke-width="1" stroke="black" d="M 20 158 420 146"/>
<path stroke-width="1" stroke="black" d="M 20 158 101 68"/>
<path stroke-width="1" stroke="black" d="M 20 158 248 320"/>
<path stroke-width="1" stroke="black" d="M 323 51 212 183"/>
<path stroke-width="1" stroke="black" d="M 323 51 235 214"/>
<path stroke-width="1" stroke="black" d="M 20 158 195 284"/>
<path stroke-width="1" stroke="black" d="M 323 51 411 67"/>
<path stroke-width="1" stroke="black" d="M 323 51 308 96"/>
<path stroke-width="1" stroke="black" d="M 323 51 81 102"/>
<path stroke-width="1" stroke="black" d="M 323 51 302 28"/>
<path stroke-width="1" stroke="black" d="M 323 51 403 209"/>
<path stroke-width="1" stroke="black" d="M 323 51 387 253"/>
<path stroke-width="1" stroke="black" d="M 323 51 20 158"/>
<path stroke-width="1" stroke="black" d="M 323 51 28 125"/>
<path stroke-width="1" stroke="black" d="M 323 51 241 175"/>
<path stroke-width="1" stroke="black" d="M 323 51 241 176"/>
<path stroke-width="1" stroke="black" d="M 323 51 190 29"/>
<path stroke-width="1" stroke="black" d="M 403 209 235 214"/>
<path stroke-width="1" stroke="black" d="M 20 158 49 129"/>
<path stroke-width="1" stroke="black" d="M 20 158 419 144"/>
<path stroke-width="1" stroke="black" d="M 387 253 71 258"/>
<path stroke-width="1" stroke="black" d="M 387 253 420 146"/>
<path stroke-width="1" stroke="black" d="M 387 253 101 68"/>
<path stroke-width="1" stroke="black" d="M 387 253 248 320"/>
<path stroke-width="1" stroke="black" d="M 20 158 212 183"/>
<path stroke-width="1" stroke="black" d="M 20 158 235 214"/>
<path stroke-width="1" stroke="black" d="M 20 158 411 67"/>
<path stroke-width="1" stroke="black" d="M 20 158 190 29"/>
<path stroke-width="1" stroke="black" d="M 20 158 308 96"/>
<path stroke-width="1" stroke="black" d="M 20 158 313 298"/>
<path stroke-width="1" stroke="black" d="M 20 158 81 102"/>
<path stroke-width="1" stroke="black" d="M 20 158 403 209"/>
<path stroke-width="1" stroke="black" d="M 20 158 387 253"/>
<path stroke-width="1" stroke="black" d="M 20 158 323 51"/>
<path stroke-width="1" stroke="black" d="M 20 158 28 125"/>
<path stroke-width="1" stroke="black" d="M 20 158 241 175"/>
<path stroke-width="1" stroke="black" d="M 20 158 241 176"/>
<path stroke-width="1" stroke="black" d="M 20 158 177 20"/>
<path stroke-width="1" stroke="black" d="M 20 158 178 35"/>
<path stroke-width="1" stroke="black" d="M 20 158 138 309"/>
<path stroke-width="1" stroke="black" d="M 20 158 302 28"/>
<path stroke-width="1" stroke="black" d="M 248 320 101 68"/>
<circle cx="212" cy="183" r="7.0" style="fill:gray;stroke:black;stroke-width:1.0"/>
<circle cx="235" cy="214" r="7.0" style="fill:gray;stroke:black;stroke-width:1.0"/>
<circle cx="411" cy="67" r="7.0" style="fill:gray;stroke:black;stroke-width:1.0"/>
<circle cx="190" cy="29" r="7.0" style="fill:gray;stroke:black;stroke-width:1.0"/>
<circle cx="308" cy="96" r="7.0" style="fill:gray;stroke:black;stroke-width:1.0"/>
<circle cx="81" cy="102" r="7.0" style="fill:gray;stroke:black;stroke-width:1.0"/>
<circle cx="302" cy="28" r="7.0" style="fill:gray;stroke:black;stroke-width:1.0"/>
<circle cx="403" cy="209" r="7.0" style="fill:gray;stroke:black;stroke-width:1.0"/>
<circle cx="387" cy="253" r="7.0" style="fill:gray;stroke:black;stroke-width:1.0"/>
<circle cx="20" cy="158" r="7.0" style="fill:gray;stroke:black;stroke-width:1.0"/>
<circle cx="323" cy="51" r="7.0" style="fill:gray;stroke:black;stroke-width:1.0"/>
<circle cx="28" cy="125" r="7.0" style="fill:gray;stroke:black;stroke-width:1.0"/>
<circle cx="241" cy="175" r="7.0" style="fill:gray;stroke:black;stroke-width:1.0"/>
<circle cx="241" cy="176" r="7.0" style="fill:gray;stroke:black;stroke-width:1.0"/>
<circle cx="177" cy="20" r="7.0" style="fill:gray;stroke:black;stroke-width:1.0"/>
<circle cx="178" cy="35" r="7.0" style="fill:gray;stroke:black;stroke-width:1.0"/>
<circle cx="138" cy="309" r="7.0" style="fill:gray;stroke:black;stroke-width:1.0"/>
<circle cx="419" cy="144" r="7.0" style="fill:gray;stroke:black;stroke-width:1.0"/>
<circle cx="313" cy="298" r="7.0" style="fill:gray;stroke:black;stroke-width:1.0"/>
<circle cx="49" cy="129" r="7.0" style="fill:gray;stroke:black;stroke-width:1.0"/>
<circle cx="195" cy="284" r="7.0" style="fill:gray;stroke:black;stroke-width:1.0"/>
<circle cx="66" cy="229" r="7.0" style="fill:gray;stroke:black;stroke-width:1.0"/>
<circle cx="42" cy="235" r="7.0" style="fill:gray;stroke:black;stroke-width:1.0"/>
<circle cx="378" cy="260" r="7.0" style="fill:gray;stroke:black;stroke-width:1.0"/>
<circle cx="71" cy="258" r="7.0" style="fill:gray;stroke:black;stroke-width:1.0"/>
<circle cx="420" cy="146" r="7.0" style="fill:gray;stroke:black;stroke-width:1.0"/>
<circle cx="101" cy="68" r="7.0" style="fill:gray;stroke:black;stroke-width:1.0"/>
<circle cx="248" cy="320" r="7.0" style="fill:gray;stroke:black;stroke-width:1.0"/>
</svg>
