<svg width="440" height="340" xmlns="http://www.w3.org/2000/svg">
<path stroke-width="20.0" stroke="black" d="M 358 260 290 237"/>
<path stroke-width="0.5" stroke="black" d="M 106 220 223 204"/>
<path stroke-width="0.5" stroke="black" d="M 106 220 162 268"/>
<path stroke-width="9.423728813559322" stroke="black" d="M 106 220 20 235"/>
<path stroke-width="0.5" stroke="black" d="M 106 220 302 143"/>
<path stroke-width="0.5" stroke="black" d="M 106 220 319 216"/>
<path stroke-width="0.5" stroke="black" d="M 106 220 313 174"/>
<path stroke-width="0.5" stroke="black" d="M 106 220 214 143"/>
<path stroke-width="0.5" stroke="black" d="M 106 220 165 134"/>
<path stroke-width="8.101694915254237" stroke="black" d="M 370 101 302 143"/>
<path stroke-width="0.5" stroke="black" d="M 302 143 290 237"/>
<path stroke-width="0.5" stroke="black" d="M 302 143 151 153"/>
<path stroke-width="0.5" stroke="black" d="M 302 143 154 242"/>
<path stroke-width="0.5" stroke="black" d="M 106 220 268 268"/>
<path stroke-width="0.9957627118644068" stroke="black" d="M 302 143 249 127"/>
<path stroke-width="0.5" stroke="black" d="M 302 143 100 187"/>
<path stroke-width="0.5" stroke="black" d="M 302 143 268 268"/>
<path stroke-width="0.5" stroke="black" d="M 302 143 223 204"/>
<path stroke-width="0.5" stroke="black" d="M 302 143 162 268"/>
<path stroke-width="0.5" stroke="black" d="M 302 143 106 220"/>
<path stroke-width="8.101694915254237" stroke="black" d="M 302 143 370 101"/>
<path stroke-width="0.5" stroke="black" d="M 302 143 319 216"/>
<path stroke-width="0.5" stroke="black" d="M 302 143 313 174"/>
<path stroke-width="0.5" stroke="black" d="M 302 143 214 143"/>
<path stroke-width="0.5" stroke="black" d="M 302 143 165 134"/>
<path stroke-width="6.779661016949152" stroke="black" d="M 420 232 319 216"/>
<path stroke-width="0.5" stroke="black" d="M 319 216 290 237"/>
<path stroke-width="0.5" stroke="black" d="M 302 143 214 276"/>
<path stroke-width="0.5" stroke="black" d="M 319 216 151 153"/>
<path stroke-width="0.5" stroke="black" d="M 106 220 100 187"/>
<path stroke-width="0.5" stroke="black" d="M 106 220 249 127"/>
<path stroke-width="0.5" stroke="black" d="M 223 204 106 220"/>
<path stroke-width="0.5" stroke="black" d="M 223 204 302 143"/>
<path stroke-width="0.5" stroke="black" d="M 223 204 319 216"/>
<path stroke-width="0.5" stroke="black" d="M 223 204 313 174"/>
<path stroke-width="0.5" stroke="black" d="M 223 204 214 143"/>
<path stroke-width="0.5" stroke="black" d="M 223 204 165 134"/>
<path stroke-width="10.745762711864407" stroke="black" d="M 126 318 162 268"/>
<path stroke-width="0.5" stroke="black" d="M 162 268 290 237"/>
<path stroke-width="0.5" stroke="black" d="M 162 268 151 153"/>
<path stroke-width="0.5" stroke="black" d="M 162 268 154 242"/>
<path stroke-width="0.5" stroke="black" d="M 162 268 249 127"/>
<path stroke-width="0.5" stroke="black" d="M 162 268 214 276"/>
<path stroke-width="0.9957627118644068" stroke="black" d="M 106 220 214 276"/>
<path stroke-width="0.9957627118644068" stroke="black" d="M 162 268 100 187"/>
<path stroke-width="0.5" stroke="black" d="M 162 268 223 204"/>
<path stroke-width="10.745762711864407" stroke="black" d="M 162 268 126 318"/>
<path stroke-width="0.5" stroke="black" d="M 162 268 106 220"/>
<path stroke-width="0.5" stroke="black" d="M 162 268 302 143"/>
<path stroke-width="0.5" stroke="black" d="M 162 268 319 216"/>
<path stroke-width="0.5" stroke="black" d="M 162 268 313 174"/>
<path stroke-width="0.5" stroke="black" d="M 162 268 214 143"/>
<path stroke-width="0.5" stroke="black" d="M 162 268 165 134"/>
<path stroke-width="9.423728813559322" stroke="black" d="M 20 235 106 220"/>
<path stroke-width="0.5" stroke="black" d="M 106 220 290 237"/>
<path stroke-width="0.5" stroke="black" d="M 106 220 151 153"/>
<path stroke-width="0.5" stroke="black" d="M 106 220 154 242"/>
<path stroke-width="0.5" stroke="black" d="M 162 268 268 268"/>
<path stroke-width="0.5" stroke="black" d="M 223 204 162 268"/>
<path stroke-width="0.9957627118644068" stroke="black" d="M 319 216 154 242"/>
<path stroke-width="0.5" stroke="black" d="M 319 216 214 276"/>
<path stroke-width="0.5" stroke="black" d="M 214 143 249 127"/>
<path stroke-width="0.5" stroke="black" d="M 214 143 214 276"/>
<path stroke-width="0.5" stroke="black" d="M 214 143 100 187"/>
<path stroke-width="0.5" stroke="black" d="M 214 143 268 268"/>
<path stroke-width="0.5" stroke="black" d="M 214 143 223 204"/>
<path stroke-width="0.5" stroke="black" d="M 214 143 162 268"/>
<path stroke-width="0.5" stroke="black" d="M 214 143 106 220"/>
<path stroke-width="0.5" stroke="black" d="M 214 143 302 143"/>
<path stroke-width="0.5" stroke="black" d="M 214 143 319 216"/>
<path stroke-width="0.5" stroke="black" d="M 214 143 313 174"/>
<path stroke-width="4.796610169491525" stroke="black" d="M 214 143 197 67"/>
<path stroke-width="0.5" stroke="black" d="M 214 143 165 134"/>
<path stroke-width="0.5" stroke="black" d="M 214 143 154 242"/>
<path stroke-width="1.4915254237288136" stroke="black" d="M 72 20 165 134"/>
<path stroke-width="0.5" stroke="black" d="M 165 134 151 153"/>
<path stroke-width="0.5" stroke="black" d="M 165 134 154 242"/>
<path stroke-width="0.5" stroke="black" d="M 165 134 249 127"/>
<path stroke-width="0.5" stroke="black" d="M 165 134 214 276"/>
<path stroke-width="0.5" stroke="black" d="M 165 134 100 187"/>
<path stroke-width="0.5" stroke="black" d="M 165 134 268 268"/>
<path stroke-width="0.5" stroke="black" d="M 165 134 223 204"/>
<path stroke-width="0.5" stroke="black" d="M 165 134 162 268"/>
<path stroke-width="0.5" stroke="black" d="M 165 134 106 220"/>
<path stroke-width="0.5" stroke="black" d="M 165 134 302 143"/>
<path stroke-width="0.5" stroke="black" d="M 165 134 319 216"/>
<path stroke-width="0.5" stroke="black" d="M 165 134 313 174"/>
<path stroke-width="0.5" stroke="black" d="M 165 134 290 237"/>
<path stroke-width="0.5" stroke="black" d="M 319 216 249 127"/>
<path stroke-width="0.5" stroke="black" d="M 214 143 151 153"/>
<path stroke-width="4.796610169491525" stroke="black" d="M 197 67 214 143"/>
<path stroke-width="0.5" stroke="black" d="M 319 216 100 187"/>
<path stroke-width="0.5" stroke="black" d="M 319 216 268 268"/>
<path stroke-width="0.5" stroke="black" d="M 319 216 223 204"/>
<path stroke-width="0.5" stroke="black" d="M 319 216 162 268"/>
<path stroke-width="0.5" stroke="black" d="M 319 216 106 220"/>
<path stroke-width="0.5" stroke="black" d="M 319 216 302 143"/>
<path stroke-width="6.779661016949152" stroke="black" d="M 319 216 420 232"/>
<path stroke-width="0.5" stroke="black" d="M 319 216 313 174"/>
<path stroke-width="0.5" stroke="black" d="M 319 216 214 143"/>
<path stroke-width="0.5" stroke="black" d="M 319 216 165 134"/>
<path stroke-width="5.4576271186440675" stroke="black" d="M 419 152 313 174"/>
<path stroke-width="0.5" stroke="black" d="M 313 174 290 237"/>
<path stroke-width="0.9957627118644068" stroke="black" d="M 214 143 290 237"/>
<path stroke-width="0.9957627118644068" stroke="black" d="M 313 174 151 153"/>
<path stroke-width="0.5" stroke="black" d="M 313 174 249 127"/>
<path stroke-width="0.5" stroke="black" d="M 313 174 214 276"/>
<path stroke-width="0.5" stroke="black" d="M 313 174 100 187"/>
<path stroke-width="0.5" stroke="black" d="M 313 174 268 268"/>
<path stroke-width="0.5" stroke="black" d="M 313 174 223 204"/>
<path stroke-width="0.5" stroke="black" d="M 313 174 162 268"/>
<path stroke-width="0.5" stroke="black" d="M 313 174 106 220"/>
<path stroke-width="0.5" stroke="black" d="M 313 174 302 143"/>
<path stroke-width="0.5" stroke="black" d="M 313 174 319 216"/>
<path stroke-width="5.4576271186440675" stroke="black" d="M 313 174 419 152"/>
<path stroke-width="0.5" stroke="black" d="M 313 174 214 143"/>
<path stroke-width="0.5" stroke="black" d="M 313 174 165 134"/>
<path stroke-width="0.5" stroke="black" d="M 313 174 154 242"/>
<path stroke-width="12.067796610169491" stroke="black" d="M 223 204 234 205"/>
<path stroke-width="0.9957627118644068" stroke="black" d="M 223 204 268 268"/>
<path stroke-width="0.5" stroke="black" d="M 223 204 100 187"/>
<path stroke-width="0.5" stroke="black" d="M 151 153 165 134"/>
<path stroke-width="18.016949152542374" stroke="black" d="M 82 262 154 242"/>
<path stroke-width="0.5" stroke="black" d="M 154 242 290 237"/>
<path stroke-width="0.5" stroke="black" d="M 154 242 151 153"/>
<path stroke-width="18.016949152542374" stroke="black" d="M 154 242 82 262"/>
<path stroke-width="0.5" stroke="black" d="M 154 242 249 127"/>
<path stroke-width="0.5" stroke="black" d="M 154 242 214 276"/>
<path stroke-width="0.5" stroke="black" d="M 154 242 100 187"/>
<path stroke-width="0.5" stroke="black" d="M 154 242 268 268"/>
<path stroke-width="0.5" stroke="black" d="M 154 242 223 204"/>
<path stroke-width="0.5" stroke="black" d="M 154 242 162 268"/>
<path stroke-width="0.5" stroke="black" d="M 154 242 106 220"/>
<path stroke-width="0.5" stroke="black" d="M 151 153 214 143"/>
<path stroke-width="0.5" stroke="black" d="M 154 242 302 143"/>
<path stroke-width="0.5" stroke="black" d="M 154 242 313 174"/>
<path stroke-width="0.5" stroke="black" d="M 154 242 214 143"/>
<path stroke-width="0.5" stroke="black" d="M 154 242 165 134"/>
<path stroke-width="16.694915254237287" stroke="black" d="M 275 82 249 127"/>
<path stroke-width="0.5" stroke="black" d="M 249 127 290 237"/>
<path stroke-width="0.5" stroke="black" d="M 249 127 151 153"/>
<path stroke-width="0.5" stroke="black" d="M 249 127 154 242"/>
<path stroke-width="16.694915254237287" stroke="black" d="M 249 127 275 82"/>
<path stroke-width="0.5" stroke="black" d="M 249 127 214 276"/>
<path stroke-width="0.5" stroke="black" d="M 249 127 100 187"/>
<path stroke-width="0.5" stroke="black" d="M 249 127 268 268"/>
<path stroke-width="0.5" stroke="black" d="M 249 127 223 204"/>
<path stroke-width="0.9957627118644068" stroke="black" d="M 154 242 319 216"/>
<path stroke-width="0.5" stroke="black" d="M 249 127 162 268"/>
<path stroke-width="0.9957627118644068" stroke="black" d="M 151 153 313 174"/>
<path stroke-width="0.5" stroke="black" d="M 151 153 302 143"/>
<path stroke-width="20.0" stroke="black" d="M 290 237 358 260"/>
<path stroke-width="0.5" stroke="black" d="M 290 237 151 153"/>
<path stroke-width="0.5" stroke="black" d="M 290 237 154 242"/>
<path stroke-width="0.5" stroke="black" d="M 290 237 249 127"/>
<path stroke-width="0.5" stroke="black" d="M 290 237 214 276"/>
<path stroke-width="0.5" stroke="black" d="M 290 237 100 187"/>
<path stroke-width="0.5" stroke="black" d="M 290 237 268 268"/>
<path stroke-width="0.5" stroke="black" d="M 290 237 223 204"/>
<path stroke-width="0.5" stroke="black" d="M 290 237 162 268"/>
<path stroke-width="0.5" stroke="black" d="M 290 237 106 220"/>
<path stroke-width="0.5" stroke="black" d="M 290 237 302 143"/>
<path stroke-width="0.5" stroke="black" d="M 290 237 319 216"/>
<path stroke-width="0.5" stroke="black" d="M 151 153 319 216"/>
<path stroke-width="0.5" stroke="black" d="M 290 237 313 174"/>
<path stroke-width="0.5" stroke="black" d="M 290 237 165 134"/>
<path stroke-width="19.338983050847457" stroke="black" d="M 85 131 151 153"/>
<path stroke-width="0.5" stroke="black" d="M 151 153 290 237"/>
<path stroke-width="19.338983050847457" stroke="black" d="M 151 153 85 131"/>
<path stroke-width="0.5" stroke="black" d="M 151 153 154 242"/>
<path stroke-width="0.5" stroke="black" d="M 151 153 249 127"/>
<path stroke-width="0.5" stroke="black" d="M 151 153 214 276"/>
<path stroke-width="0.5" stroke="black" d="M 151 153 100 187"/>
<path stroke-width="0.5" stroke="black" d="M 151 153 268 268"/>
<path stroke-width="0.5" stroke="black" d="M 151 153 223 204"/>
<path stroke-width="0.5" stroke="black" d="M 151 153 162 268"/>
<path stroke-width="0.5" stroke="black" d="M 151 153 106 220"/>
<path stroke-width="0.9957627118644068" stroke="black" d="M 290 237 214 143"/>
<path stroke-width="0.5" stroke="black" d="M 249 127 106 220"/>
<path stroke-width="0.9957627118644068" stroke="black" d="M 249 127 302 143"/>
<path stroke-width="0.5" stroke="black" d="M 249 127 319 216"/>
<path stroke-width="0.5" stroke="black" d="M 100 187 319 216"/>
<path stroke-width="0.5" stroke="black" d="M 100 187 313 174"/>
<path stroke-width="0.5" stroke="black" d="M 100 187 214 143"/>
<path stroke-width="0.5" stroke="black" d="M 100 187 165 134"/>
<path stroke-width="12.728813559322035" stroke="black" d="M 307 312 268 268"/>
<path stroke-width="0.5" stroke="black" d="M 268 268 290 237"/>
<path stroke-width="0.5" stroke="black" d="M 268 268 151 153"/>
<path stroke-width="0.5" stroke="black" d="M 268 268 154 242"/>
<path stroke-width="0.5" stroke="black" d="M 268 268 249 127"/>
<path stroke-width="0.5" stroke="black" d="M 268 268 214 276"/>
<path stroke-width="0.5" stroke="black" d="M 268 268 100 187"/>
<path stroke-width="12.728813559322035" stroke="black" d="M 268 268 307 312"/>
<path stroke-width="0.5" stroke="black" d="M 100 187 302 143"/>
<path stroke-width="0.9957627118644068" stroke="black" d="M 268 268 223 204"/>
<path stroke-width="0.5" stroke="black" d="M 268 268 106 220"/>
<path stroke-width="0.5" stroke="black" d="M 268 268 302 143"/>
<path stroke-width="0.5" stroke="black" d="M 268 268 319 216"/>
<path stroke-width="0.5" stroke="black" d="M 268 268 313 174"/>
<path stroke-width="0.5" stroke="black" d="M 268 268 214 143"/>
<path stroke-width="0.5" stroke="black" d="M 268 268 165 134"/>
<path stroke-width="12.067796610169491" stroke="black" d="M 234 205 223 204"/>
<path stroke-width="0.5" stroke="black" d="M 223 204 290 237"/>
<path stroke-width="0.5" stroke="black" d="M 223 204 151 153"/>
<path stroke-width="0.5" stroke="black" d="M 223 204 154 242"/>
<path stroke-width="0.5" stroke="black" d="M 223 204 249 127"/>
<path stroke-width="0.5" stroke="black" d="M 223 204 214 276"/>
<path stroke-width="0.5" stroke="black" d="M 268 268 162 268"/>
<path stroke-width="0.5" stroke="black" d="M 100 187 106 220"/>
<path stroke-width="0.9957627118644068" stroke="black" d="M 100 187 162 268"/>
<path stroke-width="0.5" stroke="black" d="M 100 187 223 204"/>
<path stroke-width="0.5" stroke="black" d="M 249 127 313 174"/>
<path stroke-width="0.5" stroke="black" d="M 249 127 214 143"/>
<path stroke-width="0.5" stroke="black" d="M 249 127 165 134"/>
<path stroke-width="15.372881355932204" stroke="black" d="M 216 320 214 276"/>
<path stroke-width="0.5" stroke="black" d="M 214 276 290 237"/>
<path stroke-width="0.5" stroke="black" d="M 214 276 151 153"/>
<path stroke-width="0.5" stroke="black" d="M 214 276 154 242"/>
<path stroke-width="0.5" stroke="black" d="M 214 276 249 127"/>
<path stroke-width="15.372881355932204" stroke="black" d="M 214 276 216 320"/>
<path stroke-width="0.5" stroke="black" d="M 214 276 100 187"/>
<path stroke-width="0.5" stroke="black" d="M 214 276 268 268"/>
<path stroke-width="0.5" stroke="black" d="M 214 276 223 204"/>
<path stroke-width="0.5" stroke="black" d="M 214 276 162 268"/>
<path stroke-width="0.9957627118644068" stroke="black" d="M 214 276 106 220"/>
<path stroke-width="0.5" stroke="black" d="M 214 276 302 143"/>
<path stroke-width="0.5" stroke="black" d="M 214 276 319 216"/>
<path stroke-width="0.5" stroke="black" d="M 214 276 313 174"/>
<path stroke-width="0.5" stroke="black" d="M 214 276 214 143"/>
<path stroke-width="0.5" stroke="black" d="M 214 276 165 134"/>
<path stroke-width="14.05084745762712" stroke="black" d="M 28 176 100 187"/>
<path stroke-width="0.5" stroke="black" d="M 100 187 290 237"/>
<path stroke-width="0.5" stroke="black" d="M 100 187 151 153"/>
<path stroke-width="0.5" stroke="black" d="M 100 187 154 242"/>
<path stroke-width="0.5" stroke="black" d="M 100 187 249 127"/>
<path stroke-width="0.5" stroke="black" d="M 100 187 214 276"/>
<path stroke-width="14.05084745762712" stroke="black" d="M 100 187 28 176"/>
<path stroke-width="0.5" stroke="black" d="M 100 187 268 268"/>
<path stroke-width="0.5" stroke="black" d="M 165 134 214 143"/>
<path stroke-width="1.4915254237288136" stroke="black" d="M 165 134 72 20"/>
<circle cx="358" cy="260" r="7.0" style="fill:gray;stroke:black;stroke-width:1.0"/>
<circle cx="290" cy="237" r="7.0" style="fill:gray;stroke:black;stroke-width:1.0"/>
<circle cx="85" cy="131" r="7.0" style="fill:gray;stroke:black;stroke-width:1.0"/>
<circle cx="151" cy="153" r="7.0" style="fill:gray;stroke:black;stroke-width:1.0"/>
<circle cx="82" cy="262" r="7.0" style="fill:gray;stroke:black;stroke-width:1.0"/>
<circle cx="154" cy="242" r="7.0" style="fill:gray;stroke:black;stroke-width:1.0"/>
<circle cx="275" cy="82" r="7.0" style="fill:gray;stroke:black;stroke-width:1.0"/>
<circle cx="249" cy="127" r="7.0" style="fill:gray;stroke:black;stroke-width:1.0"/>
<circle cx="216" cy="320" r="7.0" style="fill:gray;stroke:black;stroke-width:1.0"/>
<circle cx="214" cy="276" r="7.0" style="fill:gray;stroke:black;stroke-width:1.0"/>
<circle cx="28" cy="176" r="7.0" style="fill:gray;stroke:black;stroke-width:1.0"/>
<circle cx="100" cy="187" r="7.0" style="fill:gray;stroke:black;stroke-width:1.0"/>
<circle cx="307" cy="312" r="7.0" style="fill:gray;stroke:black;stroke-width:1.0"/>
<circle cx="268" cy="268" r="7.0" style="fill:gray;stroke:black;stroke-width:1.0"/>
<circle cx="234" cy="205" r="7.0" style="fill:gray;stroke:black;stroke-width:1.0"/>
<circle cx="223" cy="204" r="7.0" style="fill:gray;stroke:black;stroke-width:1.0"/>
<circle cx="126" cy="318" r="7.0" style="fill:gray;stroke:black;stroke-width:1.0"/>
<circle cx="162" cy="268" r="7.0" style="fill:gray;stroke:black;stroke-width:1.0"/>
<circle cx="20" cy="235" r="7.0" style="fill:gray;stroke:black;stroke-width:1.0"/>
<circle cx="106" cy="220" r="7.0" style="fill:gray;stroke:black;stroke-width:1.0"/>
<circle cx="370" cy="101" r="7.0" style="fill:gray;stroke:black;stroke-width:1.0"/>
<circle cx="302" cy="143" r="7.0" style="fill:gray;stroke:black;stroke-width:1.0"/>
<circle cx="420" cy="232" r="7.0" style="fill:gray;stroke:black;stroke-width:1.0"/>
<circle cx="319" cy="216" r="7.0" style="fill:gray;stroke:black;stroke-width:1.0"/>
<circle cx="419" cy="152" r="7.0" style="fill:gray;stroke:black;stroke-width:1.0"/>
<circle cx="313" cy="174" r="7.0" style="fill:gray;stroke:black;stroke-width:1.0"/>
<circle cx="197" cy="67" r="7.0" style="fill:gray;stroke:black;stroke-width:1.0"/>
<circle cx="214" cy="143" r="7.0" style="fill:gray;stroke:black;stroke-width:1.0"/>
<circle cx="72" cy="20" r="7.0" style="fill:gray;stroke:black;stroke-width:1.0"/>
<circle cx="165" cy="134" r="7.0" style="fill:gray;stroke:black;stroke-width:1.0"/>
</svg>
