<svg width="440" height="340" xmlns="http://www.w3.org/2000/svg">
<path stroke-width="20.0" stroke="black" d="M 75 150 112 160"/>
<path stroke-width="0.5" stroke="black" d="M 273 149 205 179"/>
<path stroke-width="0.5" stroke="black" d="M 273 149 227 136"/>
<path stroke-width="9.423728813559322" stroke="black" d="M 273 149 332 121"/>
<path stroke-width="0.5" stroke="black" d="M 273 149 203 257"/>
<path stroke-width="0.5" stroke="black" d="M 273 149 253 244"/>
<path stroke-width="0.5" stroke="black" d="M 273 149 174 94"/>
<path stroke-width="0.5" stroke="black" d="M 273 149 106 195"/>
<path stroke-width="0.5" stroke="black" d="M 273 149 279 135"/>
<path stroke-width="8.101694915254237" stroke="black" d="M 208 320 203 257"/>
<path stroke-width="0.5" stroke="black" d="M 203 257 112 160"/>
<path stroke-width="0.5" stroke="black" d="M 203 257 146 122"/>
<path stroke-width="0.5" stroke="black" d="M 203 257 168 256"/>
<path stroke-width="0.5" stroke="black" d="M 273 149 141 220"/>
<path stroke-width="0.9957627118644068" stroke="black" d="M 203 257 203 215"/>
<path stroke-width="0.5" stroke="black" d="M 203 257 209 99"/>
<path stroke-width="0.5" stroke="black" d="M 203 257 141 220"/>
<path stroke-width="0.5" stroke="black" d="M 203 257 205 179"/>
<path stroke-width="0.5" stroke="black" d="M 203 257 227 136"/>
<path stroke-width="0.5" stroke="black" d="M 203 257 273 149"/>
<path stroke-width="8.101694915254237" stroke="black" d="M 203 257 208 320"/>
<path stroke-width="0.5" stroke="black" d="M 203 257 253 244"/>
<path stroke-width="0.5" stroke="black" d="M 203 257 174 94"/>
<path stroke-width="0.5" stroke="black" d="M 203 257 106 195"/>
<path stroke-width="0.5" stroke="black" d="M 203 257 279 135"/>
<path stroke-width="6.779661016949152" stroke="black" d="M 298 300 253 244"/>
<path stroke-width="0.5" stroke="black" d="M 253 244 112 160"/>
<path stroke-width="0.5" stroke="black" d="M 203 257 269 197"/>
<path stroke-width="0.5" stroke="black" d="M 253 244 146 122"/>
<path stroke-width="0.5" stroke="black" d="M 273 149 209 99"/>
<path stroke-width="0.5" stroke="black" d="M 273 149 203 215"/>
<path stroke-width="0.5" stroke="black" d="M 205 179 273 149"/>
<path stroke-width="0.5" stroke="black" d="M 205 179 203 257"/>
<path stroke-width="0.5" stroke="black" d="M 205 179 253 244"/>
<path stroke-width="0.5" stroke="black" d="M 205 179 174 94"/>
<path stroke-width="0.5" stroke="black" d="M 205 179 106 195"/>
<path stroke-width="0.5" stroke="black" d="M 205 179 279 135"/>
<path stroke-width="10.745762711864407" stroke="black" d="M 256 96 227 136"/>
<path stroke-width="0.5" stroke="black" d="M 227 136 112 160"/>
<path stroke-width="0.5" stroke="black" d="M 227 136 146 122"/>
<path stroke-width="0.5" stroke="black" d="M 227 136 168 256"/>
<path stroke-width="0.5" stroke="black" d="M 227 136 203 215"/>
<path stroke-width="0.5" stroke="black" d="M 227 136 269 197"/>
<path stroke-width="0.9957627118644068" stroke="black" d="M 273 149 269 197"/>
<path stroke-width="0.9957627118644068" stroke="black" d="M 227 136 209 99"/>
<path stroke-width="0.5" stroke="black" d="M 227 136 205 179"/>
<path stroke-width="10.745762711864407" stroke="black" d="M 227 136 256 96"/>
<path stroke-width="0.5" stroke="black" d="M 227 136 273 149"/>
<path stroke-width="0.5" stroke="black" d="M 227 136 203 257"/>
<path stroke-width="0.5" stroke="black" d="M 227 136 253 244"/>
<path stroke-width="0.5" stroke="black" d="M 227 136 174 94"/>
<path stroke-width="0.5" stroke="black" d="M 227 136 106 195"/>
<path stroke-width="0.5" stroke="black" d="M 227 136 279 135"/>
<path stroke-width="9.423728813559322" stroke="black" d="M 332 121 273 149"/>
<path stroke-width="0.5" stroke="black" d="M 273 149 112 160"/>
<path stroke-width="0.5" stroke="black" d="M 273 149 146 122"/>
<path stroke-width="0.5" stroke="black" d="M 273 149 168 256"/>
<path stroke-width="0.5" stroke="black" d="M 227 136 141 220"/>
<path stroke-width="0.5" stroke="black" d="M 205 179 227 136"/>
<path stroke-width="0.9957627118644068" stroke="black" d="M 253 244 168 256"/>
<path stroke-width="0.5" stroke="black" d="M 253 244 269 197"/>
<path stroke-width="0.5" stroke="black" d="M 106 195 203 215"/>
<path stroke-width="0.5" stroke="black" d="M 106 195 269 197"/>
<path stroke-width="0.5" stroke="black" d="M 106 195 209 99"/>
<path stroke-width="0.5" stroke="black" d="M 106 195 141 220"/>
<path stroke-width="0.5" stroke="black" d="M 106 195 205 179"/>
<path stroke-width="0.5" stroke="black" d="M 106 195 227 136"/>
<path stroke-width="0.5" stroke="black" d="M 106 195 273 149"/>
<path stroke-width="0.5" stroke="black" d="M 106 195 203 257"/>
<path stroke-width="0.5" stroke="black" d="M 106 195 253 244"/>
<path stroke-width="0.5" stroke="black" d="M 106 195 174 94"/>
<path stroke-width="4.796610169491525" stroke="black" d="M 106 195 20 213"/>
<path stroke-width="0.5" stroke="black" d="M 106 195 279 135"/>
<path stroke-width="0.5" stroke="black" d="M 106 195 168 256"/>
<path stroke-width="1.4915254237288136" stroke="black" d="M 420 59 279 135"/>
<path stroke-width="0.5" stroke="black" d="M 279 135 146 122"/>
<path stroke-width="0.5" stroke="black" d="M 279 135 168 256"/>
<path stroke-width="0.5" stroke="black" d="M 279 135 203 215"/>
<path stroke-width="0.5" stroke="black" d="M 279 135 269 197"/>
<path stroke-width="0.5" stroke="black" d="M 279 135 209 99"/>
<path stroke-width="0.5" stroke="black" d="M 279 135 141 220"/>
<path stroke-width="0.5" stroke="black" d="M 279 135 205 179"/>
<path stroke-width="0.5" stroke="black" d="M 279 135 227 136"/>
<path stroke-width="0.5" stroke="black" d="M 279 135 273 149"/>
<path stroke-width="0.5" stroke="black" d="M 279 135 203 257"/>
<path stroke-width="0.5" stroke="black" d="M 279 135 253 244"/>
<path stroke-width="0.5" stroke="black" d="M 279 135 174 94"/>
<path stroke-width="0.5" stroke="black" d="M 279 135 112 160"/>
<path stroke-width="0.5" stroke="black" d="M 253 244 203 215"/>
<path stroke-width="0.5" stroke="black" d="M 106 195 146 122"/>
<path stroke-width="4.796610169491525" stroke="black" d="M 20 213 106 195"/>
<path stroke-width="0.5" stroke="black" d="M 253 244 209 99"/>
<path stroke-width="0.5" stroke="black" d="M 253 244 141 220"/>
<path stroke-width="0.5" stroke="black" d="M 253 244 205 179"/>
<path stroke-width="0.5" stroke="black" d="M 253 244 227 136"/>
<path stroke-width="0.5" stroke="black" d="M 253 244 273 149"/>
<path stroke-width="0.5" stroke="black" d="M 253 244 203 257"/>
<path stroke-width="6.779661016949152" stroke="black" d="M 253 244 298 300"/>
<path stroke-width="0.5" stroke="black" d="M 253 244 174 94"/>
<path stroke-width="0.5" stroke="black" d="M 253 244 106 195"/>
<path stroke-width="0.5" stroke="black" d="M 253 244 279 135"/>
<path stroke-width="5.4576271186440675" stroke="black" d="M 156 20 174 94"/>
<path stroke-width="0.5" stroke="black" d="M 174 94 112 160"/>
<path stroke-width="0.9957627118644068" stroke="black" d="M 106 195 112 160"/>
<path stroke-width="0.9957627118644068" stroke="black" d="M 174 94 146 122"/>
<path stroke-width="0.5" stroke="black" d="M 174 94 203 215"/>
<path stroke-width="0.5" stroke="black" d="M 174 94 269 197"/>
<path stroke-width="0.5" stroke="black" d="M 174 94 209 99"/>
<path stroke-width="0.5" stroke="black" d="M 174 94 141 220"/>
<path stroke-width="0.5" stroke="black" d="M 174 94 205 179"/>
<path stroke-width="0.5" stroke="black" d="M 174 94 227 136"/>
<path stroke-width="0.5" stroke="black" d="M 174 94 273 149"/>
<path stroke-width="0.5" stroke="black" d="M 174 94 203 257"/>
<path stroke-width="0.5" stroke="black" d="M 174 94 253 244"/>
<path stroke-width="5.4576271186440675" stroke="black" d="M 174 94 156 20"/>
<path stroke-width="0.5" stroke="black" d="M 174 94 106 195"/>
<path stroke-width="0.5" stroke="black" d="M 174 94 279 135"/>
<path stroke-width="0.5" stroke="black" d="M 174 94 168 256"/>
<path stroke-width="12.067796610169491" stroke="black" d="M 205 179 181 175"/>
<path stroke-width="0.9957627118644068" stroke="black" d="M 205 179 141 220"/>
<path stroke-width="0.5" stroke="black" d="M 205 179 209 99"/>
<path stroke-width="0.5" stroke="black" d="M 146 122 279 135"/>
<path stroke-width="18.016949152542374" stroke="black" d="M 146 302 168 256"/>
<path stroke-width="0.5" stroke="black" d="M 168 256 112 160"/>
<path stroke-width="0.5" stroke="black" d="M 168 256 146 122"/>
<path stroke-width="18.016949152542374" stroke="black" d="M 168 256 146 302"/>
<path stroke-width="0.5" stroke="black" d="M 168 256 203 215"/>
<path stroke-width="0.5" stroke="black" d="M 168 256 269 197"/>
<path stroke-width="0.5" stroke="black" d="M 168 256 209 99"/>
<path stroke-width="0.5" stroke="black" d="M 168 256 141 220"/>
<path stroke-width="0.5" stroke="black" d="M 168 256 205 179"/>
<path stroke-width="0.5" stroke="black" d="M 168 256 227 136"/>
<path stroke-width="0.5" stroke="black" d="M 168 256 273 149"/>
<path stroke-width="0.5" stroke="black" d="M 146 122 106 195"/>
<path stroke-width="0.5" stroke="black" d="M 168 256 203 257"/>
<path stroke-width="0.5" stroke="black" d="M 168 256 174 94"/>
<path stroke-width="0.5" stroke="black" d="M 168 256 106 195"/>
<path stroke-width="0.5" stroke="black" d="M 168 256 279 135"/>
<path stroke-width="16.694915254237287" stroke="black" d="M 218 248 203 215"/>
<path stroke-width="0.5" stroke="black" d="M 203 215 112 160"/>
<path stroke-width="0.5" stroke="black" d="M 203 215 146 122"/>
<path stroke-width="0.5" stroke="black" d="M 203 215 168 256"/>
<path stroke-width="16.694915254237287" stroke="black" d="M 203 215 218 248"/>
<path stroke-width="0.5" stroke="black" d="M 203 215 269 197"/>
<path stroke-width="0.5" stroke="black" d="M 203 215 209 99"/>
<path stroke-width="0.5" stroke="black" d="M 203 215 141 220"/>
<path stroke-width="0.5" stroke="black" d="M 203 215 205 179"/>
<path stroke-width="0.9957627118644068" stroke="black" d="M 168 256 253 244"/>
<path stroke-width="0.5" stroke="black" d="M 203 215 227 136"/>
<path stroke-width="0.9957627118644068" stroke="black" d="M 146 122 174 94"/>
<path stroke-width="0.5" stroke="black" d="M 146 122 203 257"/>
<path stroke-width="20.0" stroke="black" d="M 112 160 75 150"/>
<path stroke-width="0.5" stroke="black" d="M 112 160 146 122"/>
<path stroke-width="0.5" stroke="black" d="M 112 160 168 256"/>
<path stroke-width="0.5" stroke="black" d="M 112 160 203 215"/>
<path stroke-width="0.5" stroke="black" d="M 112 160 269 197"/>
<path stroke-width="0.5" stroke="black" d="M 112 160 209 99"/>
<path stroke-width="0.5" stroke="black" d="M 112 160 141 220"/>
<path stroke-width="0.5" stroke="black" d="M 112 160 205 179"/>
<path stroke-width="0.5" stroke="black" d="M 112 160 227 136"/>
<path stroke-width="0.5" stroke="black" d="M 112 160 273 149"/>
<path stroke-width="0.5" stroke="black" d="M 112 160 203 257"/>
<path stroke-width="0.5" stroke="black" d="M 112 160 253 244"/>
<path stroke-width="0.5" stroke="black" d="M 146 122 253 244"/>
<path stroke-width="0.5" stroke="black" d="M 112 160 174 94"/>
<path stroke-width="0.5" stroke="black" d="M 112 160 279 135"/>
<path stroke-width="19.338983050847457" stroke="black" d="M 113 92 146 122"/>
<path stroke-width="0.5" stroke="black" d="M 146 122 112 160"/>
<path stroke-width="19.338983050847457" stroke="black" d="M 146 122 113 92"/>
<path stroke-width="0.5" stroke="black" d="M 146 122 168 256"/>
<path stroke-width="0.5" stroke="black" d="M 146 122 203 215"/>
<path stroke-width="0.5" stroke="black" d="M 146 122 269 197"/>
<path stroke-width="0.5" stroke="black" d="M 146 122 209 99"/>
<path stroke-width="0.5" stroke="black" d="M 146 122 141 220"/>
<path stroke-width="0.5" stroke="black" d="M 146 122 205 179"/>
<path stroke-width="0.5" stroke="black" d="M 146 122 227 136"/>
<path stroke-width="0.5" stroke="black" d="M 146 122 273 149"/>
<path stroke-width="0.9957627118644068" stroke="black" d="M 112 160 106 195"/>
<path stroke-width="0.5" stroke="black" d="M 203 215 273 149"/>
<path stroke-width="0.9957627118644068" stroke="black" d="M 203 215 203 257"/>
<path stroke-width="0.5" stroke="black" d="M 203 215 253 244"/>
<path stroke-width="0.5" stroke="black" d="M 209 99 253 244"/>
<path stroke-width="0.5" stroke="black" d="M 209 99 174 94"/>
<path stroke-width="0.5" stroke="black" d="M 209 99 106 195"/>
<path stroke-width="0.5" stroke="black" d="M 209 99 279 135"/>
<path stroke-width="12.728813559322035" stroke="black" d="M 101 253 141 220"/>
<path stroke-width="0.5" stroke="black" d="M 141 220 112 160"/>
<path stroke-width="0.5" stroke="black" d="M 141 220 146 122"/>
<path stroke-width="0.5" stroke="black" d="M 141 220 168 256"/>
<path stroke-width="0.5" stroke="black" d="M 141 220 203 215"/>
<path stroke-width="0.5" stroke="black" d="M 141 220 269 197"/>
<path stroke-width="0.5" stroke="black" d="M 141 220 209 99"/>
<path stroke-width="12.728813559322035" stroke="black" d="M 141 220 101 253"/>
<path stroke-width="0.5" stroke="black" d="M 209 99 203 257"/>
<path stroke-width="0.9957627118644068" stroke="black" d="M 141 220 205 179"/>
<path stroke-width="0.5" stroke="black" d="M 141 220 273 149"/>
<path stroke-width="0.5" stroke="black" d="M 141 220 203 257"/>
<path stroke-width="0.5" stroke="black" d="M 141 220 253 244"/>
<path stroke-width="0.5" stroke="black" d="M 141 220 174 94"/>
<path stroke-width="0.5" stroke="black" d="M 141 220 106 195"/>
<path stroke-width="0.5" stroke="black" d="M 141 220 279 135"/>
<path stroke-width="12.067796610169491" stroke="black" d="M 181 175 205 179"/>
<path stroke-width="0.5" stroke="black" d="M 205 179 112 160"/>
<path stroke-width="0.5" stroke="black" d="M 205 179 146 122"/>
<path stroke-width="0.5" stroke="black" d="M 205 179 168 256"/>
<path stroke-width="0.5" stroke="black" d="M 205 179 203 215"/>
<path stroke-width="0.5" stroke="black" d="M 205 179 269 197"/>
<path stroke-width="0.5" stroke="black" d="M 141 220 227 136"/>
<path stroke-width="0.5" stroke="black" d="M 209 99 273 149"/>
<path stroke-width="0.9957627118644068" stroke="black" d="M 209 99 227 136"/>
<path stroke-width="0.5" stroke="black" d="M 209 99 205 179"/>
<path stroke-width="0.5" stroke="black" d="M 203 215 174 94"/>
<path stroke-width="0.5" stroke="black" d="M 203 215 106 195"/>
<path stroke-width="0.5" stroke="black" d="M 203 215 279 135"/>
<path stroke-width="15.372881355932204" stroke="black" d="M 323 210 269 197"/>
<path stroke-width="0.5" stroke="black" d="M 269 197 112 160"/>
<path stroke-width="0.5" stroke="black" d="M 269 197 146 122"/>
<path stroke-width="0.5" stroke="black" d="M 269 197 168 256"/>
<path stroke-width="0.5" stroke="black" d="M 269 197 203 215"/>
<path stroke-width="15.372881355932204" stroke="black" d="M 269 197 323 210"/>
<path stroke-width="0.5" stroke="black" d="M 269 197 209 99"/>
<path stroke-width="0.5" stroke="black" d="M 269 197 141 220"/>
<path stroke-width="0.5" stroke="black" d="M 269 197 205 179"/>
<path stroke-width="0.5" stroke="black" d="M 269 197 227 136"/>
<path stroke-width="0.9957627118644068" stroke="black" d="M 269 197 273 149"/>
<path stroke-width="0.5" stroke="black" d="M 269 197 203 257"/>
<path stroke-width="0.5" stroke="black" d="M 269 197 253 244"/>
<path stroke-width="0.5" stroke="black" d="M 269 197 174 94"/>
<path stroke-width="0.5" stroke="black" d="M 269 197 106 195"/>
<path stroke-width="0.5" stroke="black" d="M 269 197 279 135"/>
<path stroke-width="14.05084745762712" stroke="black" d="M 215 51 209 99"/>
<path stroke-width="0.5" stroke="black" d="M 209 99 112 160"/>
<path stroke-width="0.5" stroke="black" d="M 209 99 146 122"/>
<path stroke-width="0.5" stroke="black" d="M 209 99 168 256"/>
<path stroke-width="0.5" stroke="black" d="M 209 99 203 215"/>
<path stroke-width="0.5" stroke="black" d="M 209 99 269 197"/>
<path stroke-width="14.05084745762712" stroke="black" d="M 209 99 215 51"/>
<path stroke-width="0.5" stroke="black" d="M 209 99 141 220"/>
<path stroke-width="0.5" stroke="black" d="M 279 135 106 195"/>
<path stroke-width="1.4915254237288136" stroke="black" d="M 279 135 420 59"/>
<circle cx="75" cy="150" r="20.0" style="fill:gray;stroke:black;stroke-width:1.0"/>
<circle cx="112" cy="160" r="20.0" style="fill:gray;stroke:black;stroke-width:1.0"/>
<circle cx="113" cy="92" r="20.0" style="fill:gray;stroke:black;stroke-width:1.0"/>
<circle cx="146" cy="122" r="20.0" style="fill:gray;stroke:black;stroke-width:1.0"/>
<circle cx="146" cy="302" r="20.0" style="fill:gray;stroke:black;stroke-width:1.0"/>
<circle cx="168" cy="256" r="20.0" style="fill:gray;stroke:black;stroke-width:1.0"/>
<circle cx="218" cy="248" r="20.0" style="fill:gray;stroke:black;stroke-width:1.0"/>
<circle cx="203" cy="215" r="20.0" style="fill:gray;stroke:black;stroke-width:1.0"/>
<circle cx="323" cy="210" r="20.0" style="fill:gray;stroke:black;stroke-width:1.0"/>
<circle cx="269" cy="197" r="20.0" style="fill:gray;stroke:black;stroke-width:1.0"/>
<circle cx="215" cy="51" r="20.0" style="fill:gray;stroke:black;stroke-width:1.0"/>
<circle cx="209" cy="99" r="20.0" style="fill:gray;stroke:black;stroke-width:1.0"/>
<circle cx="101" cy="253" r="20.0" style="fill:gray;stroke:black;stroke-width:1.0"/>
<circle cx="141" cy="220" r="20.0" style="fill:gray;stroke:black;stroke-width:1.0"/>
<circle cx="181" cy="175" r="20.0" style="fill:gray;stroke:black;stroke-width:1.0"/>
<circle cx="205" cy="179" r="20.0" style="fill:gray;stroke:black;stroke-width:1.0"/>
<circle cx="256" cy="96" r="20.0" style="fill:gray;stroke:black;stroke-width:1.0"/>
<circle cx="227" cy="136" r="20.0" style="fill:gray;stroke:black;stroke-width:1.0"/>
<circle cx="332" cy="121" r="20.0" style="fill:gray;stroke:black;stroke-width:1.0"/>
<circle cx="273" cy="149" r="20.0" style="fill:gray;stroke:black;stroke-width:1.0"/>
<circle cx="208" cy="320" r="20.0" style="fill:gray;stroke:black;stroke-width:1.0"/>
<circle cx="203" cy="257" r="20.0" style="fill:gray;stroke:black;stroke-width:1.0"/>
<circle cx="298" cy="300" r="20.0" style="fill:gray;stroke:black;stroke-width:1.0"/>
<circle cx="253" cy="244" r="20.0" style="fill:gray;stroke:black;stroke-width:1.0"/>
<circle cx="156" cy="20" r="20.0" style="fill:gray;stroke:black;stroke-width:1.0"/>
<circle cx="174" cy="94" r="20.0" style="fill:gray;stroke:black;stroke-width:1.0"/>
<circle cx="20" cy="213" r="20.0" style="fill:gray;stroke:black;stroke-width:1.0"/>
<circle cx="106" cy="195" r="20.0" style="fill:gray;stroke:black;stroke-width:1.0"/>
<circle cx="420" cy="59" r="20.0" style="fill:gray;stroke:black;stroke-width:1.0"/>
<circle cx="279" cy="135" r="20.0" style="fill:gray;stroke:black;stroke-width:1.0"/>
</svg>
