<svg width="440" height="340" xmlns="http://www.w3.org/2000/svg">
<path stroke-width="1" stroke="black" d="M 266 108 228 140"/>
<path stroke-width="1" stroke="black" d="M 172 260 222 226"/>
<path stroke-width="1" stroke="black" d="M 172 260 181 86"/>
<path stroke-width="1" stroke="black" d="M 172 260 166 320"/>
<path stroke-width="1" stroke="black" d="M 172 260 89 185"/>
<path stroke-width="1" stroke="black" d="M 172 260 212 257"/>
<path stroke-width="1" stroke="black" d="M 172 260 125 92"/>
<path stroke-width="1" stroke="black" d="M 172 260 147 231"/>
<path stroke-width="1" stroke="black" d="M 172 260 269 153"/>
<path stroke-width="1" stroke="black" d="M 20 202 89 185"/>
<path stroke-width="1" stroke="black" d="M 89 185 228 140"/>
<path stroke-width="1" stroke="black" d="M 89 185 126 87"/>
<path stroke-width="1" stroke="black" d="M 89 185 182 164"/>
<path stroke-width="1" stroke="black" d="M 172 260 117 222"/>
<path stroke-width="1" stroke="black" d="M 89 185 101 150"/>
<path stroke-width="1" stroke="black" d="M 89 185 224 92"/>
<path stroke-width="1" stroke="black" d="M 89 185 117 222"/>
<path stroke-width="1" stroke="black" d="M 89 185 222 226"/>
<path stroke-width="1" stroke="black" d="M 89 185 181 86"/>
<path stroke-width="1" stroke="black" d="M 89 185 172 260"/>
<path stroke-width="1" stroke="black" d="M 89 185 20 202"/>
<path stroke-width="1" stroke="black" d="M 89 185 212 257"/>
<path stroke-width="1" stroke="black" d="M 89 185 125 92"/>
<path stroke-width="1" stroke="black" d="M 89 185 147 231"/>
<path stroke-width="1" stroke="black" d="M 89 185 269 153"/>
<path stroke-width="1" stroke="black" d="M 249 319 212 257"/>
<path stroke-width="1" stroke="black" d="M 212 257 228 140"/>
<path stroke-width="1" stroke="black" d="M 89 185 252 202"/>
<path stroke-width="1" stroke="black" d="M 212 257 126 87"/>
<path stroke-width="1" stroke="black" d="M 172 260 224 92"/>
<path stroke-width="1" stroke="black" d="M 172 260 101 150"/>
<path stroke-width="1" stroke="black" d="M 222 226 172 260"/>
<path stroke-width="1" stroke="black" d="M 222 226 89 185"/>
<path stroke-width="1" stroke="black" d="M 222 226 212 257"/>
<path stroke-width="1" stroke="black" d="M 222 226 125 92"/>
<path stroke-width="1" stroke="black" d="M 222 226 147 231"/>
<path stroke-width="1" stroke="black" d="M 222 226 269 153"/>
<path stroke-width="1" stroke="black" d="M 182 20 181 86"/>
<path stroke-width="1" stroke="black" d="M 181 86 228 140"/>
<path stroke-width="1" stroke="black" d="M 181 86 126 87"/>
<path stroke-width="1" stroke="black" d="M 181 86 182 164"/>
<path stroke-width="1" stroke="black" d="M 181 86 101 150"/>
<path stroke-width="1" stroke="black" d="M 181 86 252 202"/>
<path stroke-width="1" stroke="black" d="M 172 260 252 202"/>
<path stroke-width="1" stroke="black" d="M 181 86 224 92"/>
<path stroke-width="1" stroke="black" d="M 181 86 222 226"/>
<path stroke-width="1" stroke="black" d="M 181 86 182 20"/>
<path stroke-width="1" stroke="black" d="M 181 86 172 260"/>
<path stroke-width="1" stroke="black" d="M 181 86 89 185"/>
<path stroke-width="1" stroke="black" d="M 181 86 212 257"/>
<path stroke-width="1" stroke="black" d="M 181 86 125 92"/>
<path stroke-width="1" stroke="black" d="M 181 86 147 231"/>
<path stroke-width="1" stroke="black" d="M 181 86 269 153"/>
<path stroke-width="1" stroke="black" d="M 166 320 172 260"/>
<path stroke-width="1" stroke="black" d="M 172 260 228 140"/>
<path stroke-width="1" stroke="black" d="M 172 260 126 87"/>
<path stroke-width="1" stroke="black" d="M 172 260 182 164"/>
<path stroke-width="1" stroke="black" d="M 181 86 117 222"/>
<path stroke-width="1" stroke="black" d="M 222 226 181 86"/>
<path stroke-width="1" stroke="black" d="M 212 257 182 164"/>
<path stroke-width="1" stroke="black" d="M 212 257 252 202"/>
<path stroke-width="1" stroke="black" d="M 147 231 101 150"/>
<path stroke-width="1" stroke="black" d="M 147 231 252 202"/>
<path stroke-width="1" stroke="black" d="M 147 231 224 92"/>
<path stroke-width="1" stroke="black" d="M 147 231 117 222"/>
<path stroke-width="1" stroke="black" d="M 147 231 222 226"/>
<path stroke-width="1" stroke="black" d="M 147 231 181 86"/>
<path stroke-width="1" stroke="black" d="M 147 231 172 260"/>
<path stroke-width="1" stroke="black" d="M 147 231 89 185"/>
<path stroke-width="1" stroke="black" d="M 147 231 212 257"/>
<path stroke-width="1" stroke="black" d="M 147 231 125 92"/>
<path stroke-width="1" stroke="black" d="M 147 231 105 308"/>
<path stroke-width="1" stroke="black" d="M 147 231 269 153"/>
<path stroke-width="1" stroke="black" d="M 147 231 182 164"/>
<path stroke-width="1" stroke="black" d="M 420 107 269 153"/>
<path stroke-width="1" stroke="black" d="M 269 153 126 87"/>
<path stroke-width="1" stroke="black" d="M 269 153 182 164"/>
<path stroke-width="1" stroke="black" d="M 269 153 101 150"/>
<path stroke-width="1" stroke="black" d="M 269 153 252 202"/>
<path stroke-width="1" stroke="black" d="M 269 153 224 92"/>
<path stroke-width="1" stroke="black" d="M 269 153 117 222"/>
<path stroke-width="1" stroke="black" d="M 269 153 222 226"/>
<path stroke-width="1" stroke="black" d="M 269 153 181 86"/>
<path stroke-width="1" stroke="black" d="M 269 153 172 260"/>
<path stroke-width="1" stroke="black" d="M 269 153 89 185"/>
<path stroke-width="1" stroke="black" d="M 269 153 212 257"/>
<path stroke-width="1" stroke="black" d="M 269 153 125 92"/>
<path stroke-width="1" stroke="black" d="M 269 153 228 140"/>
<path stroke-width="1" stroke="black" d="M 212 257 101 150"/>
<path stroke-width="1" stroke="black" d="M 147 231 126 87"/>
<path stroke-width="1" stroke="black" d="M 105 308 147 231"/>
<path stroke-width="1" stroke="black" d="M 212 257 224 92"/>
<path stroke-width="1" stroke="black" d="M 212 257 117 222"/>
<path stroke-width="1" stroke="black" d="M 212 257 222 226"/>
<path stroke-width="1" stroke="black" d="M 212 257 181 86"/>
<path stroke-width="1" stroke="black" d="M 212 257 172 260"/>
<path stroke-width="1" stroke="black" d="M 212 257 89 185"/>
<path stroke-width="1" stroke="black" d="M 212 257 249 319"/>
<path stroke-width="1" stroke="black" d="M 212 257 125 92"/>
<path stroke-width="1" stroke="black" d="M 212 257 147 231"/>
<path stroke-width="1" stroke="black" d="M 212 257 269 153"/>
<path stroke-width="1" stroke="black" d="M 71 35 125 92"/>
<path stroke-width="1" stroke="black" d="M 125 92 228 140"/>
<path stroke-width="1" stroke="black" d="M 147 231 228 140"/>
<path stroke-width="1" stroke="black" d="M 125 92 126 87"/>
<path stroke-width="1" stroke="black" d="M 125 92 101 150"/>
<path stroke-width="1" stroke="black" d="M 125 92 252 202"/>
<path stroke-width="1" stroke="black" d="M 125 92 224 92"/>
<path stroke-width="1" stroke="black" d="M 125 92 117 222"/>
<path stroke-width="1" stroke="black" d="M 125 92 222 226"/>
<path stroke-width="1" stroke="black" d="M 125 92 181 86"/>
<path stroke-width="1" stroke="black" d="M 125 92 172 260"/>
<path stroke-width="1" stroke="black" d="M 125 92 89 185"/>
<path stroke-width="1" stroke="black" d="M 125 92 212 257"/>
<path stroke-width="1" stroke="black" d="M 125 92 71 35"/>
<path stroke-width="1" stroke="black" d="M 125 92 147 231"/>
<path stroke-width="1" stroke="black" d="M 125 92 269 153"/>
<path stroke-width="1" stroke="black" d="M 125 92 182 164"/>
<path stroke-width="1" stroke="black" d="M 222 226 261 266"/>
<path stroke-width="1" stroke="black" d="M 222 226 117 222"/>
<path stroke-width="1" stroke="black" d="M 222 226 224 92"/>
<path stroke-width="1" stroke="black" d="M 126 87 269 153"/>
<path stroke-width="1" stroke="black" d="M 183 175 182 164"/>
<path stroke-width="1" stroke="black" d="M 182 164 228 140"/>
<path stroke-width="1" stroke="black" d="M 182 164 126 87"/>
<path stroke-width="1" stroke="black" d="M 182 164 183 175"/>
<path stroke-width="1" stroke="black" d="M 182 164 101 150"/>
<path stroke-width="1" stroke="black" d="M 182 164 252 202"/>
<path stroke-width="1" stroke="black" d="M 182 164 224 92"/>
<path stroke-width="1" stroke="black" d="M 182 164 117 222"/>
<path stroke-width="1" stroke="black" d="M 182 164 222 226"/>
<path stroke-width="1" stroke="black" d="M 182 164 181 86"/>
<path stroke-width="1" stroke="black" d="M 182 164 172 260"/>
<path stroke-width="1" stroke="black" d="M 126 87 147 231"/>
<path stroke-width="1" stroke="black" d="M 182 164 89 185"/>
<path stroke-width="1" stroke="black" d="M 182 164 125 92"/>
<path stroke-width="1" stroke="black" d="M 182 164 147 231"/>
<path stroke-width="1" stroke="black" d="M 182 164 269 153"/>
<path stroke-width="1" stroke="black" d="M 50 129 101 150"/>
<path stroke-width="1" stroke="black" d="M 101 150 228 140"/>
<path stroke-width="1" stroke="black" d="M 101 150 126 87"/>
<path stroke-width="1" stroke="black" d="M 101 150 182 164"/>
<path stroke-width="1" stroke="black" d="M 101 150 50 129"/>
<path stroke-width="1" stroke="black" d="M 101 150 252 202"/>
<path stroke-width="1" stroke="black" d="M 101 150 224 92"/>
<path stroke-width="1" stroke="black" d="M 101 150 117 222"/>
<path stroke-width="1" stroke="black" d="M 101 150 222 226"/>
<path stroke-width="1" stroke="black" d="M 182 164 212 257"/>
<path stroke-width="1" stroke="black" d="M 101 150 181 86"/>
<path stroke-width="1" stroke="black" d="M 126 87 125 92"/>
<path stroke-width="1" stroke="black" d="M 126 87 89 185"/>
<path stroke-width="1" stroke="black" d="M 228 140 266 108"/>
<path stroke-width="1" stroke="black" d="M 228 140 126 87"/>
<path stroke-width="1" stroke="black" d="M 228 140 182 164"/>
<path stroke-width="1" stroke="black" d="M 228 140 101 150"/>
<path stroke-width="1" stroke="black" d="M 228 140 252 202"/>
<path stroke-width="1" stroke="black" d="M 228 140 224 92"/>
<path stroke-width="1" stroke="black" d="M 228 140 117 222"/>
<path stroke-width="1" stroke="black" d="M 228 140 222 226"/>
<path stroke-width="1" stroke="black" d="M 228 140 181 86"/>
<path stroke-width="1" stroke="black" d="M 228 140 172 260"/>
<path stroke-width="1" stroke="black" d="M 228 140 89 185"/>
<path stroke-width="1" stroke="black" d="M 228 140 212 257"/>
<path stroke-width="1" stroke="black" d="M 126 87 212 257"/>
<path stroke-width="1" stroke="black" d="M 228 140 125 92"/>
<path stroke-width="1" stroke="black" d="M 228 140 269 153"/>
<path stroke-width="1" stroke="black" d="M 103 100 126 87"/>
<path stroke-width="1" stroke="black" d="M 126 87 228 140"/>
<path stroke-width="1" stroke="black" d="M 126 87 103 100"/>
<path stroke-width="1" stroke="black" d="M 126 87 182 164"/>
<path stroke-width="1" stroke="black" d="M 126 87 101 150"/>
<path stroke-width="1" stroke="black" d="M 126 87 252 202"/>
<path stroke-width="1" stroke="black" d="M 126 87 224 92"/>
<path stroke-width="1" stroke="black" d="M 126 87 117 222"/>
<path stroke-width="1" stroke="black" d="M 126 87 222 226"/>
<path stroke-width="1" stroke="black" d="M 126 87 181 86"/>
<path stroke-width="1" stroke="black" d="M 126 87 172 260"/>
<path stroke-width="1" stroke="black" d="M 228 140 147 231"/>
<path stroke-width="1" stroke="black" d="M 101 150 172 260"/>
<path stroke-width="1" stroke="black" d="M 101 150 89 185"/>
<path stroke-width="1" stroke="black" d="M 101 150 212 257"/>
<path stroke-width="1" stroke="black" d="M 224 92 212 257"/>
<path stroke-width="1" stroke="black" d="M 224 92 125 92"/>
<path stroke-width="1" stroke="black" d="M 224 92 147 231"/>
<path stroke-width="1" stroke="black" d="M 224 92 269 153"/>
<path stroke-width="1" stroke="black" d="M 73 260 117 222"/>
<path stroke-width="1" stroke="black" d="M 117 222 228 140"/>
<path stroke-width="1" stroke="black" d="M 117 222 126 87"/>
<path stroke-width="1" stroke="black" d="M 117 222 182 164"/>
<path stroke-width="1" stroke="black" d="M 117 222 101 150"/>
<path stroke-width="1" stroke="black" d="M 117 222 252 202"/>
<path stroke-width="1" stroke="black" d="M 117 222 224 92"/>
<path stroke-width="1" stroke="black" d="M 117 222 73 260"/>
<path stroke-width="1" stroke="black" d="M 224 92 89 185"/>
<path stroke-width="1" stroke="black" d="M 117 222 222 226"/>
<path stroke-width="1" stroke="black" d="M 117 222 172 260"/>
<path stroke-width="1" stroke="black" d="M 117 222 89 185"/>
<path stroke-width="1" stroke="black" d="M 117 222 212 257"/>
<path stroke-width="1" stroke="black" d="M 117 222 125 92"/>
<path stroke-width="1" stroke="black" d="M 117 222 147 231"/>
<path stroke-width="1" stroke="black" d="M 117 222 269 153"/>
<path stroke-width="1" stroke="black" d="M 261 266 222 226"/>
<path stroke-width="1" stroke="black" d="M 222 226 228 140"/>
<path stroke-width="1" stroke="black" d="M 222 226 126 87"/>
<path stroke-width="1" stroke="black" d="M 222 226 182 164"/>
<path stroke-width="1" stroke="black" d="M 222 226 101 150"/>
<path stroke-width="1" stroke="black" d="M 222 226 252 202"/>
<path stroke-width="1" stroke="black" d="M 117 222 181 86"/>
<path stroke-width="1" stroke="black" d="M 224 92 172 260"/>
<path stroke-width="1" stroke="black" d="M 224 92 181 86"/>
<path stroke-width="1" stroke="black" d="M 224 92 222 226"/>
<path stroke-width="1" stroke="black" d="M 101 150 125 92"/>
<path stroke-width="1" stroke="black" d="M 101 150 147 231"/>
<path stroke-width="1" stroke="black" d="M 101 150 269 153"/>
<path stroke-width="1" stroke="black" d="M 298 214 252 202"/>
<path stroke-width="1" stroke="black" d="M 252 202 228 140"/>
<path stroke-width="1" stroke="black" d="M 252 202 126 87"/>
<path stroke-width="1" stroke="black" d="M 252 202 182 164"/>
<path stroke-width="1" stroke="black" d="M 252 202 101 150"/>
<path stroke-width="1" stroke="black" d="M 252 202 298 214"/>
<path stroke-width="1" stroke="black" d="M 252 202 224 92"/>
<path stroke-width="1" stroke="black" d="M 252 202 117 222"/>
<path stroke-width="1" stroke="black" d="M 252 202 222 226"/>
<path stroke-width="1" stroke="black" d="M 252 202 181 86"/>
<path stroke-width="1" stroke="black" d="M 252 202 172 260"/>
<path stroke-width="1" stroke="black" d="M 252 202 89 185"/>
<path stroke-width="1" stroke="black" d="M 252 202 212 257"/>
<path stroke-width="1" stroke="black" d="M 252 202 125 92"/>
<path stroke-width="1" stroke="black" d="M 252 202 147 231"/>
<path stroke-width="1" stroke="black" d="M 252 202 269 153"/>
<path stroke-width="1" stroke="black" d="M 255 41 224 92"/>
<path stroke-width="1" stroke="black" d="M 224 92 228 140"/>
<path stroke-width="1" stroke="black" d="M 224 92 126 87"/>
<path stroke-width="1" stroke="black" d="M 224 92 182 164"/>
<path stroke-width="1" stroke="black" d="M 224 92 101 150"/>
<path stroke-width="1" stroke="black" d="M 224 92 252 202"/>
<path stroke-width="1" stroke="black" d="M 224 92 255 41"/>
<path stroke-width="1" stroke="black" d="M 224 92 117 222"/>
<path stroke-width="1" stroke="black" d="M 269 153 147 231"/>
<path stroke-width="1" stroke="black" d="M 269 153 420 107"/>
<circle cx="266" cy="108" r="7.0" style="fill:gray;stroke:black;stroke-width:1.0"/>
<circle cx="228" cy="140" r="7.0" style="fill:gray;stroke:black;stroke-width:1.0"/>
<circle cx="103" cy="100" r="7.0" style="fill:gray;stroke:black;stroke-width:1.0"/>
<circle cx="126" cy="87" r="7.0" style="fill:gray;stroke:black;stroke-width:1.0"/>
<circle cx="183" cy="175" r="7.0" style="fill:gray;stroke:black;stroke-width:1.0"/>
<circle cx="182" cy="164" r="7.0" style="fill:gray;stroke:black;stroke-width:1.0"/>
<circle cx="50" cy="129" r="7.0" style="fill:gray;stroke:black;stroke-width:1.0"/>
<circle cx="101" cy="150" r="7.0" style="fill:gray;stroke:black;stroke-width:1.0"/>
<circle cx="298" cy="214" r="7.0" style="fill:gray;stroke:black;stroke-width:1.0"/>
<circle cx="252" cy="202" r="7.0" style="fill:gray;stroke:black;stroke-width:1.0"/>
<circle cx="255" cy="41" r="7.0" style="fill:gray;stroke:black;stroke-width:1.0"/>
<circle cx="224" cy="92" r="7.0" style="fill:gray;stroke:black;stroke-width:1.0"/>
<circle cx="73" cy="260" r="7.0" style="fill:gray;stroke:black;stroke-width:1.0"/>
<circle cx="117" cy="222" r="7.0" style="fill:gray;stroke:black;stroke-width:1.0"/>
<circle cx="261" cy="266" r="7.0" style="fill:gray;stroke:black;stroke-width:1.0"/>
<circle cx="222" cy="226" r="7.0" style="fill:gray;stroke:black;stroke-width:1.0"/>
<circle cx="182" cy="20" r="7.0" style="fill:gray;stroke:black;stroke-width:1.0"/>
<circle cx="181" cy="86" r="7.0" style="fill:gray;stroke:black;stroke-width:1.0"/>
<circle cx="166" cy="320" r="7.0" style="fill:gray;stroke:black;stroke-width:1.0"/>
<circle cx="172" cy="260" r="7.0" style="fill:gray;stroke:black;stroke-width:1.0"/>
<circle cx="20" cy="202" r="7.0" style="fill:gray;stroke:black;stroke-width:1.0"/>
<circle cx="89" cy="185" r="7.0" style="fill:gray;stroke:black;stroke-width:1.0"/>
<circle cx="249" cy="319" r="7.0" style="fill:gray;stroke:black;stroke-width:1.0"/>
<circle cx="212" cy="257" r="7.0" style="fill:gray;stroke:black;stroke-width:1.0"/>
<circle cx="71" cy="35" r="7.0" style="fill:gray;stroke:black;stroke-width:1.0"/>
<circle cx="125" cy="92" r="7.0" style="fill:gray;stroke:black;stroke-width:1.0"/>
<circle cx="105" cy="308" r="7.0" style="fill:gray;stroke:black;stroke-width:1.0"/>
<circle cx="147" cy="231" r="7.0" style="fill:gray;stroke:black;stroke-width:1.0"/>
<circle cx="420" cy="107" r="7.0" style="fill:gray;stroke:black;stroke-width:1.0"/>
<circle cx="269" cy="153" r="7.0" style="fill:gray;stroke:black;stroke-width:1.0"/>
</svg>
