<svg width="440" height="340" xmlns="http://www.w3.org/2000/svg">
<path stroke-width="1" stroke="black" d="M 228 171 125 117"/>
<path stroke-width="1" stroke="black" d="M 286 186 96 94"/>
<path stroke-width="1" stroke="black" d="M 286 186 254 112"/>
<path stroke-width="1" stroke="black" d="M 286 186 214 20"/>
<path stroke-width="1" stroke="black" d="M 286 186 20 94"/>
<path stroke-width="1" stroke="black" d="M 286 186 221 25"/>
<path stroke-width="1" stroke="black" d="M 286 186 243 243"/>
<path stroke-width="1" stroke="black" d="M 286 186 380 87"/>
<path stroke-width="1" stroke="black" d="M 286 186 408 209"/>
<path stroke-width="1" stroke="black" d="M 286 186 163 311"/>
<path stroke-width="1" stroke="black" d="M 286 186 292 320"/>
<path stroke-width="1" stroke="black" d="M 286 186 355 274"/>
<path stroke-width="1" stroke="black" d="M 286 186 59 282"/>
<path stroke-width="1" stroke="black" d="M 286 186 406 122"/>
<path stroke-width="1" stroke="black" d="M 286 186 125 117"/>
<path stroke-width="1" stroke="black" d="M 286 186 228 171"/>
<path stroke-width="1" stroke="black" d="M 96 94 131 26"/>
<path stroke-width="1" stroke="black" d="M 96 94 180 318"/>
<path stroke-width="1" stroke="black" d="M 96 94 30 190"/>
<path stroke-width="1" stroke="black" d="M 96 94 420 203"/>
<path stroke-width="1" stroke="black" d="M 96 94 23 209"/>
<path stroke-width="1" stroke="black" d="M 96 94 339 61"/>
<path stroke-width="1" stroke="black" d="M 96 94 134 227"/>
<path stroke-width="1" stroke="black" d="M 96 94 286 186"/>
<path stroke-width="1" stroke="black" d="M 96 94 254 112"/>
<path stroke-width="1" stroke="black" d="M 96 94 214 20"/>
<path stroke-width="1" stroke="black" d="M 96 94 20 94"/>
<path stroke-width="1" stroke="black" d="M 96 94 221 25"/>
<path stroke-width="1" stroke="black" d="M 286 186 134 227"/>
<path stroke-width="1" stroke="black" d="M 286 186 339 61"/>
<path stroke-width="1" stroke="black" d="M 286 186 23 209"/>
<path stroke-width="1" stroke="black" d="M 286 186 420 203"/>
<path stroke-width="1" stroke="black" d="M 339 61 406 122"/>
<path stroke-width="1" stroke="black" d="M 339 61 125 117"/>
<path stroke-width="1" stroke="black" d="M 339 61 228 171"/>
<path stroke-width="1" stroke="black" d="M 134 227 131 26"/>
<path stroke-width="1" stroke="black" d="M 134 227 180 318"/>
<path stroke-width="1" stroke="black" d="M 134 227 30 190"/>
<path stroke-width="1" stroke="black" d="M 134 227 420 203"/>
<path stroke-width="1" stroke="black" d="M 134 227 23 209"/>
<path stroke-width="1" stroke="black" d="M 134 227 339 61"/>
<path stroke-width="1" stroke="black" d="M 134 227 286 186"/>
<path stroke-width="1" stroke="black" d="M 134 227 96 94"/>
<path stroke-width="1" stroke="black" d="M 134 227 254 112"/>
<path stroke-width="1" stroke="black" d="M 134 227 214 20"/>
<path stroke-width="1" stroke="black" d="M 96 94 243 243"/>
<path stroke-width="1" stroke="black" d="M 134 227 20 94"/>
<path stroke-width="1" stroke="black" d="M 134 227 243 243"/>
<path stroke-width="1" stroke="black" d="M 134 227 380 87"/>
<path stroke-width="1" stroke="black" d="M 134 227 408 209"/>
<path stroke-width="1" stroke="black" d="M 134 227 163 311"/>
<path stroke-width="1" stroke="black" d="M 134 227 292 320"/>
<path stroke-width="1" stroke="black" d="M 134 227 355 274"/>
<path stroke-width="1" stroke="black" d="M 134 227 59 282"/>
<path stroke-width="1" stroke="black" d="M 134 227 406 122"/>
<path stroke-width="1" stroke="black" d="M 134 227 125 117"/>
<path stroke-width="1" stroke="black" d="M 134 227 228 171"/>
<path stroke-width="1" stroke="black" d="M 286 186 131 26"/>
<path stroke-width="1" stroke="black" d="M 286 186 180 318"/>
<path stroke-width="1" stroke="black" d="M 286 186 30 190"/>
<path stroke-width="1" stroke="black" d="M 134 227 221 25"/>
<path stroke-width="1" stroke="black" d="M 339 61 59 282"/>
<path stroke-width="1" stroke="black" d="M 96 94 380 87"/>
<path stroke-width="1" stroke="black" d="M 96 94 163 311"/>
<path stroke-width="1" stroke="black" d="M 214 20 23 209"/>
<path stroke-width="1" stroke="black" d="M 214 20 339 61"/>
<path stroke-width="1" stroke="black" d="M 214 20 134 227"/>
<path stroke-width="1" stroke="black" d="M 214 20 286 186"/>
<path stroke-width="1" stroke="black" d="M 214 20 96 94"/>
<path stroke-width="1" stroke="black" d="M 214 20 254 112"/>
<path stroke-width="1" stroke="black" d="M 214 20 20 94"/>
<path stroke-width="1" stroke="black" d="M 214 20 221 25"/>
<path stroke-width="1" stroke="black" d="M 214 20 243 243"/>
<path stroke-width="1" stroke="black" d="M 214 20 380 87"/>
<path stroke-width="1" stroke="black" d="M 214 20 408 209"/>
<path stroke-width="1" stroke="black" d="M 214 20 163 311"/>
<path stroke-width="1" stroke="black" d="M 214 20 292 320"/>
<path stroke-width="1" stroke="black" d="M 214 20 355 274"/>
<path stroke-width="1" stroke="black" d="M 214 20 59 282"/>
<path stroke-width="1" stroke="black" d="M 214 20 406 122"/>
<path stroke-width="1" stroke="black" d="M 214 20 125 117"/>
<path stroke-width="1" stroke="black" d="M 214 20 228 171"/>
<path stroke-width="1" stroke="black" d="M 20 94 131 26"/>
<path stroke-width="1" stroke="black" d="M 20 94 180 318"/>
<path stroke-width="1" stroke="black" d="M 20 94 30 190"/>
<path stroke-width="1" stroke="black" d="M 20 94 420 203"/>
<path stroke-width="1" stroke="black" d="M 20 94 23 209"/>
<path stroke-width="1" stroke="black" d="M 20 94 339 61"/>
<path stroke-width="1" stroke="black" d="M 20 94 134 227"/>
<path stroke-width="1" stroke="black" d="M 20 94 286 186"/>
<path stroke-width="1" stroke="black" d="M 20 94 96 94"/>
<path stroke-width="1" stroke="black" d="M 214 20 420 203"/>
<path stroke-width="1" stroke="black" d="M 214 20 30 190"/>
<path stroke-width="1" stroke="black" d="M 214 20 180 318"/>
<path stroke-width="1" stroke="black" d="M 214 20 131 26"/>
<path stroke-width="1" stroke="black" d="M 96 94 292 320"/>
<path stroke-width="1" stroke="black" d="M 96 94 355 274"/>
<path stroke-width="1" stroke="black" d="M 96 94 59 282"/>
<path stroke-width="1" stroke="black" d="M 96 94 406 122"/>
<path stroke-width="1" stroke="black" d="M 96 94 125 117"/>
<path stroke-width="1" stroke="black" d="M 96 94 228 171"/>
<path stroke-width="1" stroke="black" d="M 254 112 131 26"/>
<path stroke-width="1" stroke="black" d="M 254 112 180 318"/>
<path stroke-width="1" stroke="black" d="M 254 112 30 190"/>
<path stroke-width="1" stroke="black" d="M 254 112 420 203"/>
<path stroke-width="1" stroke="black" d="M 254 112 23 209"/>
<path stroke-width="1" stroke="black" d="M 254 112 339 61"/>
<path stroke-width="1" stroke="black" d="M 254 112 134 227"/>
<path stroke-width="1" stroke="black" d="M 96 94 408 209"/>
<path stroke-width="1" stroke="black" d="M 254 112 286 186"/>
<path stroke-width="1" stroke="black" d="M 254 112 214 20"/>
<path stroke-width="1" stroke="black" d="M 254 112 20 94"/>
<path stroke-width="1" stroke="black" d="M 254 112 221 25"/>
<path stroke-width="1" stroke="black" d="M 254 112 243 243"/>
<path stroke-width="1" stroke="black" d="M 254 112 380 87"/>
<path stroke-width="1" stroke="black" d="M 254 112 408 209"/>
<path stroke-width="1" stroke="black" d="M 254 112 163 311"/>
<path stroke-width="1" stroke="black" d="M 254 112 292 320"/>
<path stroke-width="1" stroke="black" d="M 254 112 355 274"/>
<path stroke-width="1" stroke="black" d="M 254 112 59 282"/>
<path stroke-width="1" stroke="black" d="M 254 112 406 122"/>
<path stroke-width="1" stroke="black" d="M 254 112 125 117"/>
<path stroke-width="1" stroke="black" d="M 254 112 228 171"/>
<path stroke-width="1" stroke="black" d="M 254 112 96 94"/>
<path stroke-width="1" stroke="black" d="M 339 61 355 274"/>
<path stroke-width="1" stroke="black" d="M 339 61 292 320"/>
<path stroke-width="1" stroke="black" d="M 339 61 163 311"/>
<path stroke-width="1" stroke="black" d="M 180 318 243 243"/>
<path stroke-width="1" stroke="black" d="M 180 318 380 87"/>
<path stroke-width="1" stroke="black" d="M 180 318 408 209"/>
<path stroke-width="1" stroke="black" d="M 180 318 163 311"/>
<path stroke-width="1" stroke="black" d="M 180 318 292 320"/>
<path stroke-width="1" stroke="black" d="M 180 318 355 274"/>
<path stroke-width="1" stroke="black" d="M 180 318 59 282"/>
<path stroke-width="1" stroke="black" d="M 180 318 406 122"/>
<path stroke-width="1" stroke="black" d="M 180 318 125 117"/>
<path stroke-width="1" stroke="black" d="M 180 318 228 171"/>
<path stroke-width="1" stroke="black" d="M 30 190 131 26"/>
<path stroke-width="1" stroke="black" d="M 30 190 180 318"/>
<path stroke-width="1" stroke="black" d="M 30 190 420 203"/>
<path stroke-width="1" stroke="black" d="M 30 190 23 209"/>
<path stroke-width="1" stroke="black" d="M 30 190 339 61"/>
<path stroke-width="1" stroke="black" d="M 30 190 134 227"/>
<path stroke-width="1" stroke="black" d="M 30 190 286 186"/>
<path stroke-width="1" stroke="black" d="M 30 190 96 94"/>
<path stroke-width="1" stroke="black" d="M 30 190 254 112"/>
<path stroke-width="1" stroke="black" d="M 30 190 214 20"/>
<path stroke-width="1" stroke="black" d="M 30 190 20 94"/>
<path stroke-width="1" stroke="black" d="M 30 190 221 25"/>
<path stroke-width="1" stroke="black" d="M 30 190 243 243"/>
<path stroke-width="1" stroke="black" d="M 30 190 380 87"/>
<path stroke-width="1" stroke="black" d="M 30 190 408 209"/>
<path stroke-width="1" stroke="black" d="M 30 190 163 311"/>
<path stroke-width="1" stroke="black" d="M 30 190 292 320"/>
<path stroke-width="1" stroke="black" d="M 180 318 221 25"/>
<path stroke-width="1" stroke="black" d="M 180 318 20 94"/>
<path stroke-width="1" stroke="black" d="M 180 318 214 20"/>
<path stroke-width="1" stroke="black" d="M 180 318 254 112"/>
<path stroke-width="1" stroke="black" d="M 131 26 420 203"/>
<path stroke-width="1" stroke="black" d="M 131 26 23 209"/>
<path stroke-width="1" stroke="black" d="M 131 26 339 61"/>
<path stroke-width="1" stroke="black" d="M 131 26 134 227"/>
<path stroke-width="1" stroke="black" d="M 131 26 286 186"/>
<path stroke-width="1" stroke="black" d="M 131 26 96 94"/>
<path stroke-width="1" stroke="black" d="M 131 26 254 112"/>
<path stroke-width="1" stroke="black" d="M 131 26 214 20"/>
<path stroke-width="1" stroke="black" d="M 131 26 20 94"/>
<path stroke-width="1" stroke="black" d="M 131 26 221 25"/>
<path stroke-width="1" stroke="black" d="M 131 26 243 243"/>
<path stroke-width="1" stroke="black" d="M 131 26 380 87"/>
<path stroke-width="1" stroke="black" d="M 131 26 408 209"/>
<path stroke-width="1" stroke="black" d="M 30 190 355 274"/>
<path stroke-width="1" stroke="black" d="M 131 26 163 311"/>
<path stroke-width="1" stroke="black" d="M 131 26 355 274"/>
<path stroke-width="1" stroke="black" d="M 131 26 59 282"/>
<path stroke-width="1" stroke="black" d="M 131 26 406 122"/>
<path stroke-width="1" stroke="black" d="M 131 26 125 117"/>
<path stroke-width="1" stroke="black" d="M 131 26 228 171"/>
<path stroke-width="1" stroke="black" d="M 180 318 131 26"/>
<path stroke-width="1" stroke="black" d="M 180 318 30 190"/>
<path stroke-width="1" stroke="black" d="M 180 318 420 203"/>
<path stroke-width="1" stroke="black" d="M 180 318 23 209"/>
<path stroke-width="1" stroke="black" d="M 180 318 339 61"/>
<path stroke-width="1" stroke="black" d="M 180 318 134 227"/>
<path stroke-width="1" stroke="black" d="M 180 318 286 186"/>
<path stroke-width="1" stroke="black" d="M 180 318 96 94"/>
<path stroke-width="1" stroke="black" d="M 131 26 292 320"/>
<path stroke-width="1" stroke="black" d="M 30 190 59 282"/>
<path stroke-width="1" stroke="black" d="M 30 190 406 122"/>
<path stroke-width="1" stroke="black" d="M 30 190 125 117"/>
<path stroke-width="1" stroke="black" d="M 23 209 214 20"/>
<path stroke-width="1" stroke="black" d="M 23 209 20 94"/>
<path stroke-width="1" stroke="black" d="M 23 209 221 25"/>
<path stroke-width="1" stroke="black" d="M 23 209 243 243"/>
<path stroke-width="1" stroke="black" d="M 23 209 380 87"/>
<path stroke-width="1" stroke="black" d="M 23 209 408 209"/>
<path stroke-width="1" stroke="black" d="M 23 209 163 311"/>
<path stroke-width="1" stroke="black" d="M 23 209 292 320"/>
<path stroke-width="1" stroke="black" d="M 23 209 355 274"/>
<path stroke-width="1" stroke="black" d="M 23 209 59 282"/>
<path stroke-width="1" stroke="black" d="M 23 209 406 122"/>
<path stroke-width="1" stroke="black" d="M 23 209 125 117"/>
<path stroke-width="1" stroke="black" d="M 23 209 228 171"/>
<path stroke-width="1" stroke="black" d="M 23 209 254 112"/>
<path stroke-width="1" stroke="black" d="M 339 61 131 26"/>
<path stroke-width="1" stroke="black" d="M 339 61 30 190"/>
<path stroke-width="1" stroke="black" d="M 339 61 420 203"/>
<path stroke-width="1" stroke="black" d="M 339 61 23 209"/>
<path stroke-width="1" stroke="black" d="M 339 61 134 227"/>
<path stroke-width="1" stroke="black" d="M 339 61 286 186"/>
<path stroke-width="1" stroke="black" d="M 339 61 96 94"/>
<path stroke-width="1" stroke="black" d="M 339 61 254 112"/>
<path stroke-width="1" stroke="black" d="M 339 61 214 20"/>
<path stroke-width="1" stroke="black" d="M 339 61 20 94"/>
<path stroke-width="1" stroke="black" d="M 339 61 221 25"/>
<path stroke-width="1" stroke="black" d="M 339 61 243 243"/>
<path stroke-width="1" stroke="black" d="M 339 61 380 87"/>
<path stroke-width="1" stroke="black" d="M 339 61 408 209"/>
<path stroke-width="1" stroke="black" d="M 339 61 180 318"/>
<path stroke-width="1" stroke="black" d="M 20 94 254 112"/>
<path stroke-width="1" stroke="black" d="M 23 209 96 94"/>
<path stroke-width="1" stroke="black" d="M 23 209 134 227"/>
<path stroke-width="1" stroke="black" d="M 30 190 228 171"/>
<path stroke-width="1" stroke="black" d="M 420 203 131 26"/>
<path stroke-width="1" stroke="black" d="M 420 203 180 318"/>
<path stroke-width="1" stroke="black" d="M 420 203 30 190"/>
<path stroke-width="1" stroke="black" d="M 420 203 23 209"/>
<path stroke-width="1" stroke="black" d="M 420 203 339 61"/>
<path stroke-width="1" stroke="black" d="M 420 203 134 227"/>
<path stroke-width="1" stroke="black" d="M 420 203 286 186"/>
<path stroke-width="1" stroke="black" d="M 420 203 96 94"/>
<path stroke-width="1" stroke="black" d="M 420 203 254 112"/>
<path stroke-width="1" stroke="black" d="M 420 203 214 20"/>
<path stroke-width="1" stroke="black" d="M 420 203 20 94"/>
<path stroke-width="1" stroke="black" d="M 420 203 221 25"/>
<path stroke-width="1" stroke="black" d="M 23 209 286 186"/>
<path stroke-width="1" stroke="black" d="M 420 203 243 243"/>
<path stroke-width="1" stroke="black" d="M 420 203 408 209"/>
<path stroke-width="1" stroke="black" d="M 420 203 163 311"/>
<path stroke-width="1" stroke="black" d="M 420 203 292 320"/>
<path stroke-width="1" stroke="black" d="M 420 203 355 274"/>
<path stroke-width="1" stroke="black" d="M 420 203 59 282"/>
<path stroke-width="1" stroke="black" d="M 420 203 406 122"/>
<path stroke-width="1" stroke="black" d="M 420 203 125 117"/>
<path stroke-width="1" stroke="black" d="M 420 203 228 171"/>
<path stroke-width="1" stroke="black" d="M 23 209 131 26"/>
<path stroke-width="1" stroke="black" d="M 23 209 180 318"/>
<path stroke-width="1" stroke="black" d="M 23 209 30 190"/>
<path stroke-width="1" stroke="black" d="M 23 209 420 203"/>
<path stroke-width="1" stroke="black" d="M 23 209 339 61"/>
<path stroke-width="1" stroke="black" d="M 420 203 380 87"/>
<path stroke-width="1" stroke="black" d="M 20 94 214 20"/>
<path stroke-width="1" stroke="black" d="M 20 94 221 25"/>
<path stroke-width="1" stroke="black" d="M 20 94 243 243"/>
<path stroke-width="1" stroke="black" d="M 355 274 59 282"/>
<path stroke-width="1" stroke="black" d="M 355 274 406 122"/>
<path stroke-width="1" stroke="black" d="M 355 274 125 117"/>
<path stroke-width="1" stroke="black" d="M 355 274 228 171"/>
<path stroke-width="1" stroke="black" d="M 59 282 131 26"/>
<path stroke-width="1" stroke="black" d="M 59 282 180 318"/>
<path stroke-width="1" stroke="black" d="M 59 282 30 190"/>
<path stroke-width="1" stroke="black" d="M 59 282 420 203"/>
<path stroke-width="1" stroke="black" d="M 59 282 23 209"/>
<path stroke-width="1" stroke="black" d="M 59 282 339 61"/>
<path stroke-width="1" stroke="black" d="M 59 282 134 227"/>
<path stroke-width="1" stroke="black" d="M 59 282 286 186"/>
<path stroke-width="1" stroke="black" d="M 59 282 96 94"/>
<path stroke-width="1" stroke="black" d="M 59 282 254 112"/>
<path stroke-width="1" stroke="black" d="M 59 282 214 20"/>
<path stroke-width="1" stroke="black" d="M 59 282 20 94"/>
<path stroke-width="1" stroke="black" d="M 59 282 221 25"/>
<path stroke-width="1" stroke="black" d="M 59 282 243 243"/>
<path stroke-width="1" stroke="black" d="M 59 282 380 87"/>
<path stroke-width="1" stroke="black" d="M 59 282 408 209"/>
<path stroke-width="1" stroke="black" d="M 59 282 163 311"/>
<path stroke-width="1" stroke="black" d="M 59 282 292 320"/>
<path stroke-width="1" stroke="black" d="M 59 282 355 274"/>
<path stroke-width="1" stroke="black" d="M 59 282 406 122"/>
<path stroke-width="1" stroke="black" d="M 59 282 125 117"/>
<path stroke-width="1" stroke="black" d="M 59 282 228 171"/>
<path stroke-width="1" stroke="black" d="M 406 122 131 26"/>
<path stroke-width="1" stroke="black" d="M 355 274 292 320"/>
<path stroke-width="1" stroke="black" d="M 355 274 163 311"/>
<path stroke-width="1" stroke="black" d="M 355 274 408 209"/>
<path stroke-width="1" stroke="black" d="M 355 274 380 87"/>
<path stroke-width="1" stroke="black" d="M 292 320 96 94"/>
<path stroke-width="1" stroke="black" d="M 292 320 254 112"/>
<path stroke-width="1" stroke="black" d="M 292 320 214 20"/>
<path stroke-width="1" stroke="black" d="M 292 320 20 94"/>
<path stroke-width="1" stroke="black" d="M 292 320 221 25"/>
<path stroke-width="1" stroke="black" d="M 292 320 243 243"/>
<path stroke-width="1" stroke="black" d="M 292 320 380 87"/>
<path stroke-width="1" stroke="black" d="M 292 320 408 209"/>
<path stroke-width="1" stroke="black" d="M 292 320 163 311"/>
<path stroke-width="1" stroke="black" d="M 292 320 355 274"/>
<path stroke-width="1" stroke="black" d="M 292 320 59 282"/>
<path stroke-width="1" stroke="black" d="M 292 320 406 122"/>
<path stroke-width="1" stroke="black" d="M 292 320 125 117"/>
<path stroke-width="1" stroke="black" d="M 406 122 180 318"/>
<path stroke-width="1" stroke="black" d="M 292 320 228 171"/>
<path stroke-width="1" stroke="black" d="M 355 274 180 318"/>
<path stroke-width="1" stroke="black" d="M 355 274 30 190"/>
<path stroke-width="1" stroke="black" d="M 355 274 420 203"/>
<path stroke-width="1" stroke="black" d="M 355 274 23 209"/>
<path stroke-width="1" stroke="black" d="M 355 274 339 61"/>
<path stroke-width="1" stroke="black" d="M 355 274 134 227"/>
<path stroke-width="1" stroke="black" d="M 355 274 286 186"/>
<path stroke-width="1" stroke="black" d="M 355 274 96 94"/>
<path stroke-width="1" stroke="black" d="M 355 274 254 112"/>
<path stroke-width="1" stroke="black" d="M 355 274 214 20"/>
<path stroke-width="1" stroke="black" d="M 355 274 20 94"/>
<path stroke-width="1" stroke="black" d="M 355 274 221 25"/>
<path stroke-width="1" stroke="black" d="M 355 274 243 243"/>
<path stroke-width="1" stroke="black" d="M 355 274 131 26"/>
<path stroke-width="1" stroke="black" d="M 406 122 30 190"/>
<path stroke-width="1" stroke="black" d="M 406 122 420 203"/>
<path stroke-width="1" stroke="black" d="M 406 122 23 209"/>
<path stroke-width="1" stroke="black" d="M 125 117 408 209"/>
<path stroke-width="1" stroke="black" d="M 125 117 163 311"/>
<path stroke-width="1" stroke="black" d="M 125 117 292 320"/>
<path stroke-width="1" stroke="black" d="M 125 117 355 274"/>
<path stroke-width="1" stroke="black" d="M 125 117 59 282"/>
<path stroke-width="1" stroke="black" d="M 125 117 406 122"/>
<path stroke-width="1" stroke="black" d="M 125 117 228 171"/>
<path stroke-width="1" stroke="black" d="M 228 171 131 26"/>
<path stroke-width="1" stroke="black" d="M 228 171 180 318"/>
<path stroke-width="1" stroke="black" d="M 228 171 30 190"/>
<path stroke-width="1" stroke="black" d="M 228 171 420 203"/>
<path stroke-width="1" stroke="black" d="M 228 171 23 209"/>
<path stroke-width="1" stroke="black" d="M 228 171 339 61"/>
<path stroke-width="1" stroke="black" d="M 125 117 380 87"/>
<path stroke-width="1" stroke="black" d="M 228 171 134 227"/>
<path stroke-width="1" stroke="black" d="M 228 171 96 94"/>
<path stroke-width="1" stroke="black" d="M 228 171 254 112"/>
<path stroke-width="1" stroke="black" d="M 228 171 214 20"/>
<path stroke-width="1" stroke="black" d="M 228 171 20 94"/>
<path stroke-width="1" stroke="black" d="M 228 171 221 25"/>
<path stroke-width="1" stroke="black" d="M 228 171 243 243"/>
<path stroke-width="1" stroke="black" d="M 228 171 380 87"/>
<path stroke-width="1" stroke="black" d="M 228 171 408 209"/>
<path stroke-width="1" stroke="black" d="M 228 171 163 311"/>
<path stroke-width="1" stroke="black" d="M 228 171 292 320"/>
<path stroke-width="1" stroke="black" d="M 228 171 355 274"/>
<path stroke-width="1" stroke="black" d="M 228 171 59 282"/>
<path stroke-width="1" stroke="black" d="M 228 171 406 122"/>
<path stroke-width="1" stroke="black" d="M 228 171 286 186"/>
<path stroke-width="1" stroke="black" d="M 292 320 286 186"/>
<path stroke-width="1" stroke="black" d="M 125 117 243 243"/>
<path stroke-width="1" stroke="black" d="M 125 117 20 94"/>
<path stroke-width="1" stroke="black" d="M 406 122 339 61"/>
<path stroke-width="1" stroke="black" d="M 406 122 134 227"/>
<path stroke-width="1" stroke="black" d="M 406 122 286 186"/>
<path stroke-width="1" stroke="black" d="M 406 122 96 94"/>
<path stroke-width="1" stroke="black" d="M 406 122 254 112"/>
<path stroke-width="1" stroke="black" d="M 406 122 214 20"/>
<path stroke-width="1" stroke="black" d="M 406 122 20 94"/>
<path stroke-width="1" stroke="black" d="M 406 122 221 25"/>
<path stroke-width="1" stroke="black" d="M 406 122 243 243"/>
<path stroke-width="1" stroke="black" d="M 406 122 380 87"/>
<path stroke-width="1" stroke="black" d="M 406 122 408 209"/>
<path stroke-width="1" stroke="black" d="M 406 122 163 311"/>
<path stroke-width="1" stroke="black" d="M 406 122 292 320"/>
<path stroke-width="1" stroke="black" d="M 125 117 221 25"/>
<path stroke-width="1" stroke="black" d="M 406 122 355 274"/>
<path stroke-width="1" stroke="black" d="M 406 122 125 117"/>
<path stroke-width="1" stroke="black" d="M 406 122 228 171"/>
<path stroke-width="1" stroke="black" d="M 125 117 131 26"/>
<path stroke-width="1" stroke="black" d="M 125 117 180 318"/>
<path stroke-width="1" stroke="black" d="M 125 117 30 190"/>
<path stroke-width="1" stroke="black" d="M 125 117 420 203"/>
<path stroke-width="1" stroke="black" d="M 125 117 23 209"/>
<path stroke-width="1" stroke="black" d="M 125 117 339 61"/>
<path stroke-width="1" stroke="black" d="M 125 117 134 227"/>
<path stroke-width="1" stroke="black" d="M 125 117 286 186"/>
<path stroke-width="1" stroke="black" d="M 125 117 96 94"/>
<path stroke-width="1" stroke="black" d="M 125 117 254 112"/>
<path stroke-width="1" stroke="black" d="M 125 117 214 20"/>
<path stroke-width="1" stroke="black" d="M 406 122 59 282"/>
<path stroke-width="1" stroke="black" d="M 131 26 30 190"/>
<path stroke-width="1" stroke="black" d="M 292 320 134 227"/>
<path stroke-width="1" stroke="black" d="M 292 320 23 209"/>
<path stroke-width="1" stroke="black" d="M 243 243 180 318"/>
<path stroke-width="1" stroke="black" d="M 243 243 30 190"/>
<path stroke-width="1" stroke="black" d="M 243 243 420 203"/>
<path stroke-width="1" stroke="black" d="M 243 243 23 209"/>
<path stroke-width="1" stroke="black" d="M 243 243 339 61"/>
<path stroke-width="1" stroke="black" d="M 243 243 134 227"/>
<path stroke-width="1" stroke="black" d="M 243 243 286 186"/>
<path stroke-width="1" stroke="black" d="M 243 243 96 94"/>
<path stroke-width="1" stroke="black" d="M 243 243 254 112"/>
<path stroke-width="1" stroke="black" d="M 243 243 214 20"/>
<path stroke-width="1" stroke="black" d="M 243 243 20 94"/>
<path stroke-width="1" stroke="black" d="M 243 243 221 25"/>
<path stroke-width="1" stroke="black" d="M 243 243 380 87"/>
<path stroke-width="1" stroke="black" d="M 243 243 408 209"/>
<path stroke-width="1" stroke="black" d="M 243 243 163 311"/>
<path stroke-width="1" stroke="black" d="M 243 243 292 320"/>
<path stroke-width="1" stroke="black" d="M 243 243 355 274"/>
<path stroke-width="1" stroke="black" d="M 243 243 59 282"/>
<path stroke-width="1" stroke="black" d="M 243 243 406 122"/>
<path stroke-width="1" stroke="black" d="M 243 243 125 117"/>
<path stroke-width="1" stroke="black" d="M 243 243 228 171"/>
<path stroke-width="1" stroke="black" d="M 380 87 131 26"/>
<path stroke-width="1" stroke="black" d="M 380 87 180 318"/>
<path stroke-width="1" stroke="black" d="M 380 87 30 190"/>
<path stroke-width="1" stroke="black" d="M 380 87 420 203"/>
<path stroke-width="1" stroke="black" d="M 380 87 23 209"/>
<path stroke-width="1" stroke="black" d="M 380 87 339 61"/>
<path stroke-width="1" stroke="black" d="M 243 243 131 26"/>
<path stroke-width="1" stroke="black" d="M 221 25 228 171"/>
<path stroke-width="1" stroke="black" d="M 221 25 125 117"/>
<path stroke-width="1" stroke="black" d="M 221 25 406 122"/>
<path stroke-width="1" stroke="black" d="M 20 94 380 87"/>
<path stroke-width="1" stroke="black" d="M 20 94 408 209"/>
<path stroke-width="1" stroke="black" d="M 20 94 163 311"/>
<path stroke-width="1" stroke="black" d="M 20 94 292 320"/>
<path stroke-width="1" stroke="black" d="M 20 94 355 274"/>
<path stroke-width="1" stroke="black" d="M 20 94 59 282"/>
<path stroke-width="1" stroke="black" d="M 20 94 406 122"/>
<path stroke-width="1" stroke="black" d="M 20 94 125 117"/>
<path stroke-width="1" stroke="black" d="M 20 94 228 171"/>
<path stroke-width="1" stroke="black" d="M 221 25 131 26"/>
<path stroke-width="1" stroke="black" d="M 221 25 180 318"/>
<path stroke-width="1" stroke="black" d="M 221 25 30 190"/>
<path stroke-width="1" stroke="black" d="M 221 25 420 203"/>
<path stroke-width="1" stroke="black" d="M 380 87 134 227"/>
<path stroke-width="1" stroke="black" d="M 221 25 23 209"/>
<path stroke-width="1" stroke="black" d="M 221 25 134 227"/>
<path stroke-width="1" stroke="black" d="M 221 25 286 186"/>
<path stroke-width="1" stroke="black" d="M 221 25 96 94"/>
<path stroke-width="1" stroke="black" d="M 221 25 254 112"/>
<path stroke-width="1" stroke="black" d="M 221 25 214 20"/>
<path stroke-width="1" stroke="black" d="M 221 25 20 94"/>
<path stroke-width="1" stroke="black" d="M 221 25 243 243"/>
<path stroke-width="1" stroke="black" d="M 221 25 380 87"/>
<path stroke-width="1" stroke="black" d="M 221 25 408 209"/>
<path stroke-width="1" stroke="black" d="M 221 25 163 311"/>
<path stroke-width="1" stroke="black" d="M 221 25 292 320"/>
<path stroke-width="1" stroke="black" d="M 221 25 355 274"/>
<path stroke-width="1" stroke="black" d="M 221 25 59 282"/>
<path stroke-width="1" stroke="black" d="M 221 25 339 61"/>
<path stroke-width="1" stroke="black" d="M 380 87 286 186"/>
<path stroke-width="1" stroke="black" d="M 380 87 96 94"/>
<path stroke-width="1" stroke="black" d="M 380 87 254 112"/>
<path stroke-width="1" stroke="black" d="M 408 209 125 117"/>
<path stroke-width="1" stroke="black" d="M 408 209 228 171"/>
<path stroke-width="1" stroke="black" d="M 163 311 131 26"/>
<path stroke-width="1" stroke="black" d="M 163 311 180 318"/>
<path stroke-width="1" stroke="black" d="M 163 311 30 190"/>
<path stroke-width="1" stroke="black" d="M 163 311 420 203"/>
<path stroke-width="1" stroke="black" d="M 163 311 23 209"/>
<path stroke-width="1" stroke="black" d="M 163 311 339 61"/>
<path stroke-width="1" stroke="black" d="M 163 311 134 227"/>
<path stroke-width="1" stroke="black" d="M 163 311 286 186"/>
<path stroke-width="1" stroke="black" d="M 163 311 96 94"/>
<path stroke-width="1" stroke="black" d="M 163 311 254 112"/>
<path stroke-width="1" stroke="black" d="M 163 311 214 20"/>
<path stroke-width="1" stroke="black" d="M 408 209 406 122"/>
<path stroke-width="1" stroke="black" d="M 163 311 20 94"/>
<path stroke-width="1" stroke="black" d="M 163 311 243 243"/>
<path stroke-width="1" stroke="black" d="M 163 311 380 87"/>
<path stroke-width="1" stroke="black" d="M 163 311 408 209"/>
<path stroke-width="1" stroke="black" d="M 163 311 292 320"/>
<path stroke-width="1" stroke="black" d="M 163 311 355 274"/>
<path stroke-width="1" stroke="black" d="M 163 311 59 282"/>
<path stroke-width="1" stroke="black" d="M 163 311 406 122"/>
<path stroke-width="1" stroke="black" d="M 163 311 125 117"/>
<path stroke-width="1" stroke="black" d="M 163 311 228 171"/>
<path stroke-width="1" stroke="black" d="M 292 320 131 26"/>
<path stroke-width="1" stroke="black" d="M 292 320 180 318"/>
<path stroke-width="1" stroke="black" d="M 292 320 30 190"/>
<path stroke-width="1" stroke="black" d="M 292 320 420 203"/>
<path stroke-width="1" stroke="black" d="M 163 311 221 25"/>
<path stroke-width="1" stroke="black" d="M 292 320 339 61"/>
<path stroke-width="1" stroke="black" d="M 408 209 59 282"/>
<path stroke-width="1" stroke="black" d="M 408 209 292 320"/>
<path stroke-width="1" stroke="black" d="M 380 87 214 20"/>
<path stroke-width="1" stroke="black" d="M 380 87 20 94"/>
<path stroke-width="1" stroke="black" d="M 380 87 221 25"/>
<path stroke-width="1" stroke="black" d="M 380 87 243 243"/>
<path stroke-width="1" stroke="black" d="M 380 87 408 209"/>
<path stroke-width="1" stroke="black" d="M 380 87 163 311"/>
<path stroke-width="1" stroke="black" d="M 380 87 292 320"/>
<path stroke-width="1" stroke="black" d="M 380 87 355 274"/>
<path stroke-width="1" stroke="black" d="M 380 87 59 282"/>
<path stroke-width="1" stroke="black" d="M 380 87 406 122"/>
<path stroke-width="1" stroke="black" d="M 380 87 125 117"/>
<path stroke-width="1" stroke="black" d="M 380 87 228 171"/>
<path stroke-width="1" stroke="black" d="M 408 209 131 26"/>
<path stroke-width="1" stroke="black" d="M 408 209 355 274"/>
<path stroke-width="1" stroke="black" d="M 408 209 180 318"/>
<path stroke-width="1" stroke="black" d="M 408 209 420 203"/>
<path stroke-width="1" stroke="black" d="M 408 209 23 209"/>
<path stroke-width="1" stroke="black" d="M 408 209 339 61"/>
<path stroke-width="1" stroke="black" d="M 408 209 134 227"/>
<path stroke-width="1" stroke="black" d="M 408 209 286 186"/>
<path stroke-width="1" stroke="black" d="M 408 209 96 94"/>
<path stroke-width="1" stroke="black" d="M 408 209 254 112"/>
<path stroke-width="1" stroke="black" d="M 408 209 214 20"/>
<path stroke-width="1" stroke="black" d="M 408 209 20 94"/>
<path stroke-width="1" stroke="black" d="M 408 209 221 25"/>
<path stroke-width="1" stroke="black" d="M 408 209 243 243"/>
<path stroke-width="1" stroke="black" d="M 408 209 380 87"/>
<path stroke-width="1" stroke="black" d="M 408 209 163 311"/>
<path stroke-width="1" stroke="black" d="M 408 209 30 190"/>
<path stroke-width="1" stroke="black" d="M 131 26 180 318"/>
<circle cx="228" cy="171" r="20.0" style="fill:gray;stroke:black;stroke-width:1.0"/>
<circle cx="125" cy="117" r="20.0" style="fill:gray;stroke:black;stroke-width:1.0"/>
<circle cx="406" cy="122" r="20.0" style="fill:gray;stroke:black;stroke-width:1.0"/>
<circle cx="59" cy="282" r="20.0" style="fill:gray;stroke:black;stroke-width:1.0"/>
<circle cx="355" cy="274" r="20.0" style="fill:gray;stroke:black;stroke-width:1.0"/>
<circle cx="292" cy="320" r="20.0" style="fill:gray;stroke:black;stroke-width:1.0"/>
<circle cx="163" cy="311" r="20.0" style="fill:gray;stroke:black;stroke-width:1.0"/>
<circle cx="408" cy="209" r="20.0" style="fill:gray;stroke:black;stroke-width:1.0"/>
<circle cx="380" cy="87" r="20.0" style="fill:gray;stroke:black;stroke-width:1.0"/>
<circle cx="243" cy="243" r="20.0" style="fill:gray;stroke:black;stroke-width:1.0"/>
<circle cx="221" cy="25" r="20.0" style="fill:gray;stroke:black;stroke-width:1.0"/>
<circle cx="20" cy="94" r="20.0" style="fill:gray;stroke:black;stroke-width:1.0"/>
<circle cx="214" cy="20" r="20.0" style="fill:gray;stroke:black;stroke-width:1.0"/>
<circle cx="254" cy="112" r="20.0" style="fill:gray;stroke:black;stroke-width:1.0"/>
<circle cx="96" cy="94" r="20.0" style="fill:gray;stroke:black;stroke-width:1.0"/>
<circle cx="286" cy="186" r="20.0" style="fill:gray;stroke:black;stroke-width:1.0"/>
<circle cx="134" cy="227" r="20.0" style="fill:gray;stroke:black;stroke-width:1.0"/>
<circle cx="339" cy="61" r="20.0" style="fill:gray;stroke:black;stroke-width:1.0"/>
<circle cx="23" cy="209" r="20.0" style="fill:gray;stroke:black;stroke-width:1.0"/>
<circle cx="420" cy="203" r="20.0" style="fill:gray;stroke:black;stroke-width:1.0"/>
<circle cx="30" cy="190" r="20.0" style="fill:gray;stroke:black;stroke-width:1.0"/>
<circle cx="180" cy="318" r="20.0" style="fill:gray;stroke:black;stroke-width:1.0"/>
<circle cx="131" cy="26" r="20.0" style="fill:gray;stroke:black;stroke-width:1.0"/>
</svg>
