<svg width="440" height="340" xmlns="http://www.w3.org/2000/svg">
<path stroke-width="20.0" stroke="black" d="M 210 173 320 306"/>
<path stroke-width="0.5" stroke="black" d="M 22 150 105 294"/>
<path stroke-width="0.5" stroke="black" d="M 22 150 20 97"/>
<path stroke-width="0.5" stroke="black" d="M 22 150 153 265"/>
<path stroke-width="0.5" stroke="black" d="M 22 150 390 262"/>
<path stroke-width="0.5" stroke="black" d="M 22 150 208 320"/>
<path stroke-width="0.5" stroke="black" d="M 22 150 292 248"/>
<path stroke-width="0.5" stroke="black" d="M 22 150 36 245"/>
<path stroke-width="0.5" stroke="black" d="M 22 150 188 42"/>
<path stroke-width="8.857142857142858" stroke="black" d="M 22 150 165 20"/>
<path stroke-width="0.5" stroke="black" d="M 22 150 341 74"/>
<path stroke-width="0.5" stroke="black" d="M 22 150 61 69"/>
<path stroke-width="0.5" stroke="black" d="M 22 150 315 176"/>
<path stroke-width="0.5" stroke="black" d="M 22 150 108 166"/>
<path stroke-width="0.5" stroke="black" d="M 22 150 320 306"/>
<path stroke-width="11.642857142857142" stroke="black" d="M 22 150 210 173"/>
<path stroke-width="8.857142857142858" stroke="black" d="M 105 294 246 117"/>
<path stroke-width="0.5" stroke="black" d="M 105 294 420 193"/>
<path stroke-width="0.5" stroke="black" d="M 105 294 407 119"/>
<path stroke-width="0.5" stroke="black" d="M 105 294 363 111"/>
<path stroke-width="0.5" stroke="black" d="M 105 294 42 235"/>
<path stroke-width="0.5" stroke="black" d="M 105 294 301 28"/>
<path stroke-width="0.5" stroke="black" d="M 105 294 164 46"/>
<path stroke-width="0.5" stroke="black" d="M 105 294 22 150"/>
<path stroke-width="0.5" stroke="black" d="M 105 294 20 97"/>
<path stroke-width="0.5" stroke="black" d="M 105 294 153 265"/>
<path stroke-width="0.5" stroke="black" d="M 105 294 390 262"/>
<path stroke-width="0.5" stroke="black" d="M 105 294 208 320"/>
<path stroke-width="0.5" stroke="black" d="M 22 150 164 46"/>
<path stroke-width="0.5" stroke="black" d="M 22 150 301 28"/>
<path stroke-width="0.5" stroke="black" d="M 22 150 42 235"/>
<path stroke-width="0.5" stroke="black" d="M 22 150 363 111"/>
<path stroke-width="0.5" stroke="black" d="M 301 28 108 166"/>
<path stroke-width="0.5" stroke="black" d="M 301 28 320 306"/>
<path stroke-width="11.642857142857142" stroke="black" d="M 301 28 210 173"/>
<path stroke-width="0.5" stroke="black" d="M 164 46 246 117"/>
<path stroke-width="0.5" stroke="black" d="M 164 46 420 193"/>
<path stroke-width="0.5" stroke="black" d="M 164 46 407 119"/>
<path stroke-width="0.5" stroke="black" d="M 164 46 363 111"/>
<path stroke-width="0.5" stroke="black" d="M 164 46 42 235"/>
<path stroke-width="0.5" stroke="black" d="M 164 46 301 28"/>
<path stroke-width="0.5" stroke="black" d="M 164 46 22 150"/>
<path stroke-width="0.5" stroke="black" d="M 164 46 105 294"/>
<path stroke-width="0.5" stroke="black" d="M 164 46 20 97"/>
<path stroke-width="0.5" stroke="black" d="M 164 46 153 265"/>
<path stroke-width="0.5" stroke="black" d="M 105 294 292 248"/>
<path stroke-width="0.5" stroke="black" d="M 164 46 390 262"/>
<path stroke-width="0.5" stroke="black" d="M 164 46 292 248"/>
<path stroke-width="0.5" stroke="black" d="M 164 46 36 245"/>
<path stroke-width="0.5" stroke="black" d="M 164 46 188 42"/>
<path stroke-width="0.5" stroke="black" d="M 164 46 165 20"/>
<path stroke-width="8.857142857142858" stroke="black" d="M 164 46 341 74"/>
<path stroke-width="0.5" stroke="black" d="M 164 46 61 69"/>
<path stroke-width="0.5" stroke="black" d="M 164 46 315 176"/>
<path stroke-width="0.5" stroke="black" d="M 164 46 108 166"/>
<path stroke-width="0.5" stroke="black" d="M 164 46 320 306"/>
<path stroke-width="11.642857142857142" stroke="black" d="M 164 46 210 173"/>
<path stroke-width="0.5" stroke="black" d="M 22 150 246 117"/>
<path stroke-width="0.5" stroke="black" d="M 22 150 420 193"/>
<path stroke-width="0.5" stroke="black" d="M 22 150 407 119"/>
<path stroke-width="0.5" stroke="black" d="M 164 46 208 320"/>
<path stroke-width="0.5" stroke="black" d="M 301 28 315 176"/>
<path stroke-width="0.5" stroke="black" d="M 105 294 36 245"/>
<path stroke-width="0.5" stroke="black" d="M 105 294 165 20"/>
<path stroke-width="0.5" stroke="black" d="M 153 265 42 235"/>
<path stroke-width="0.5" stroke="black" d="M 153 265 301 28"/>
<path stroke-width="0.5" stroke="black" d="M 153 265 164 46"/>
<path stroke-width="0.5" stroke="black" d="M 153 265 22 150"/>
<path stroke-width="0.5" stroke="black" d="M 153 265 105 294"/>
<path stroke-width="0.5" stroke="black" d="M 153 265 20 97"/>
<path stroke-width="0.5" stroke="black" d="M 153 265 390 262"/>
<path stroke-width="0.5" stroke="black" d="M 153 265 208 320"/>
<path stroke-width="0.5" stroke="black" d="M 153 265 292 248"/>
<path stroke-width="8.857142857142858" stroke="black" d="M 153 265 36 245"/>
<path stroke-width="0.5" stroke="black" d="M 153 265 188 42"/>
<path stroke-width="0.5" stroke="black" d="M 153 265 165 20"/>
<path stroke-width="0.5" stroke="black" d="M 153 265 341 74"/>
<path stroke-width="0.5" stroke="black" d="M 153 265 61 69"/>
<path stroke-width="0.5" stroke="black" d="M 153 265 315 176"/>
<path stroke-width="0.5" stroke="black" d="M 153 265 108 166"/>
<path stroke-width="0.5" stroke="black" d="M 153 265 320 306"/>
<path stroke-width="11.642857142857142" stroke="black" d="M 153 265 210 173"/>
<path stroke-width="0.5" stroke="black" d="M 390 262 246 117"/>
<path stroke-width="0.5" stroke="black" d="M 390 262 420 193"/>
<path stroke-width="0.5" stroke="black" d="M 390 262 407 119"/>
<path stroke-width="0.5" stroke="black" d="M 390 262 363 111"/>
<path stroke-width="0.5" stroke="black" d="M 390 262 42 235"/>
<path stroke-width="0.5" stroke="black" d="M 390 262 301 28"/>
<path stroke-width="0.5" stroke="black" d="M 390 262 164 46"/>
<path stroke-width="0.5" stroke="black" d="M 390 262 22 150"/>
<path stroke-width="0.5" stroke="black" d="M 390 262 105 294"/>
<path stroke-width="0.5" stroke="black" d="M 153 265 363 111"/>
<path stroke-width="0.5" stroke="black" d="M 153 265 407 119"/>
<path stroke-width="0.5" stroke="black" d="M 153 265 420 193"/>
<path stroke-width="0.5" stroke="black" d="M 153 265 246 117"/>
<path stroke-width="0.5" stroke="black" d="M 105 294 341 74"/>
<path stroke-width="0.5" stroke="black" d="M 105 294 61 69"/>
<path stroke-width="0.5" stroke="black" d="M 105 294 315 176"/>
<path stroke-width="0.5" stroke="black" d="M 105 294 108 166"/>
<path stroke-width="0.5" stroke="black" d="M 105 294 320 306"/>
<path stroke-width="11.642857142857142" stroke="black" d="M 105 294 210 173"/>
<path stroke-width="0.5" stroke="black" d="M 20 97 246 117"/>
<path stroke-width="0.5" stroke="black" d="M 20 97 420 193"/>
<path stroke-width="0.5" stroke="black" d="M 20 97 407 119"/>
<path stroke-width="0.5" stroke="black" d="M 20 97 363 111"/>
<path stroke-width="0.5" stroke="black" d="M 20 97 42 235"/>
<path stroke-width="0.5" stroke="black" d="M 20 97 301 28"/>
<path stroke-width="0.5" stroke="black" d="M 20 97 164 46"/>
<path stroke-width="0.5" stroke="black" d="M 105 294 188 42"/>
<path stroke-width="0.5" stroke="black" d="M 20 97 22 150"/>
<path stroke-width="0.5" stroke="black" d="M 20 97 153 265"/>
<path stroke-width="0.5" stroke="black" d="M 20 97 390 262"/>
<path stroke-width="0.5" stroke="black" d="M 20 97 208 320"/>
<path stroke-width="0.5" stroke="black" d="M 20 97 292 248"/>
<path stroke-width="0.5" stroke="black" d="M 20 97 36 245"/>
<path stroke-width="8.857142857142858" stroke="black" d="M 20 97 188 42"/>
<path stroke-width="0.5" stroke="black" d="M 20 97 165 20"/>
<path stroke-width="0.5" stroke="black" d="M 20 97 341 74"/>
<path stroke-width="0.5" stroke="black" d="M 20 97 61 69"/>
<path stroke-width="0.5" stroke="black" d="M 20 97 315 176"/>
<path stroke-width="0.5" stroke="black" d="M 20 97 108 166"/>
<path stroke-width="0.5" stroke="black" d="M 20 97 320 306"/>
<path stroke-width="11.642857142857142" stroke="black" d="M 20 97 210 173"/>
<path stroke-width="0.5" stroke="black" d="M 20 97 105 294"/>
<path stroke-width="8.857142857142858" stroke="black" d="M 301 28 61 69"/>
<path stroke-width="0.5" stroke="black" d="M 301 28 341 74"/>
<path stroke-width="0.5" stroke="black" d="M 301 28 165 20"/>
<path stroke-width="8.857142857142858" stroke="black" d="M 420 193 292 248"/>
<path stroke-width="0.5" stroke="black" d="M 420 193 36 245"/>
<path stroke-width="0.5" stroke="black" d="M 420 193 188 42"/>
<path stroke-width="0.5" stroke="black" d="M 420 193 165 20"/>
<path stroke-width="0.5" stroke="black" d="M 420 193 341 74"/>
<path stroke-width="0.5" stroke="black" d="M 420 193 61 69"/>
<path stroke-width="0.5" stroke="black" d="M 420 193 315 176"/>
<path stroke-width="0.5" stroke="black" d="M 420 193 108 166"/>
<path stroke-width="0.5" stroke="black" d="M 420 193 320 306"/>
<path stroke-width="11.642857142857142" stroke="black" d="M 420 193 210 173"/>
<path stroke-width="0.5" stroke="black" d="M 407 119 246 117"/>
<path stroke-width="0.5" stroke="black" d="M 407 119 420 193"/>
<path stroke-width="0.5" stroke="black" d="M 407 119 363 111"/>
<path stroke-width="0.5" stroke="black" d="M 407 119 42 235"/>
<path stroke-width="0.5" stroke="black" d="M 407 119 301 28"/>
<path stroke-width="0.5" stroke="black" d="M 407 119 164 46"/>
<path stroke-width="0.5" stroke="black" d="M 407 119 22 150"/>
<path stroke-width="0.5" stroke="black" d="M 407 119 105 294"/>
<path stroke-width="0.5" stroke="black" d="M 407 119 20 97"/>
<path stroke-width="0.5" stroke="black" d="M 407 119 153 265"/>
<path stroke-width="0.5" stroke="black" d="M 407 119 390 262"/>
<path stroke-width="0.5" stroke="black" d="M 407 119 208 320"/>
<path stroke-width="0.5" stroke="black" d="M 407 119 292 248"/>
<path stroke-width="0.5" stroke="black" d="M 407 119 36 245"/>
<path stroke-width="0.5" stroke="black" d="M 407 119 188 42"/>
<path stroke-width="0.5" stroke="black" d="M 407 119 165 20"/>
<path stroke-width="0.5" stroke="black" d="M 407 119 341 74"/>
<path stroke-width="0.5" stroke="black" d="M 420 193 208 320"/>
<path stroke-width="0.5" stroke="black" d="M 420 193 390 262"/>
<path stroke-width="0.5" stroke="black" d="M 420 193 153 265"/>
<path stroke-width="0.5" stroke="black" d="M 420 193 20 97"/>
<path stroke-width="0.5" stroke="black" d="M 246 117 363 111"/>
<path stroke-width="0.5" stroke="black" d="M 246 117 42 235"/>
<path stroke-width="0.5" stroke="black" d="M 246 117 301 28"/>
<path stroke-width="0.5" stroke="black" d="M 246 117 164 46"/>
<path stroke-width="0.5" stroke="black" d="M 246 117 22 150"/>
<path stroke-width="8.857142857142858" stroke="black" d="M 246 117 105 294"/>
<path stroke-width="0.5" stroke="black" d="M 246 117 20 97"/>
<path stroke-width="0.5" stroke="black" d="M 246 117 153 265"/>
<path stroke-width="0.5" stroke="black" d="M 246 117 390 262"/>
<path stroke-width="0.5" stroke="black" d="M 246 117 208 320"/>
<path stroke-width="0.5" stroke="black" d="M 246 117 292 248"/>
<path stroke-width="0.5" stroke="black" d="M 246 117 36 245"/>
<path stroke-width="0.5" stroke="black" d="M 246 117 188 42"/>
<path stroke-width="0.5" stroke="black" d="M 407 119 61 69"/>
<path stroke-width="0.5" stroke="black" d="M 246 117 165 20"/>
<path stroke-width="0.5" stroke="black" d="M 246 117 61 69"/>
<path stroke-width="0.5" stroke="black" d="M 246 117 315 176"/>
<path stroke-width="0.5" stroke="black" d="M 246 117 108 166"/>
<path stroke-width="0.5" stroke="black" d="M 246 117 320 306"/>
<path stroke-width="11.642857142857142" stroke="black" d="M 246 117 210 173"/>
<path stroke-width="0.5" stroke="black" d="M 420 193 246 117"/>
<path stroke-width="0.5" stroke="black" d="M 420 193 407 119"/>
<path stroke-width="0.5" stroke="black" d="M 420 193 363 111"/>
<path stroke-width="0.5" stroke="black" d="M 420 193 42 235"/>
<path stroke-width="0.5" stroke="black" d="M 420 193 301 28"/>
<path stroke-width="0.5" stroke="black" d="M 420 193 164 46"/>
<path stroke-width="0.5" stroke="black" d="M 420 193 22 150"/>
<path stroke-width="0.5" stroke="black" d="M 420 193 105 294"/>
<path stroke-width="0.5" stroke="black" d="M 246 117 341 74"/>
<path stroke-width="0.5" stroke="black" d="M 407 119 315 176"/>
<path stroke-width="0.5" stroke="black" d="M 407 119 108 166"/>
<path stroke-width="0.5" stroke="black" d="M 407 119 320 306"/>
<path stroke-width="0.5" stroke="black" d="M 42 235 153 265"/>
<path stroke-width="0.5" stroke="black" d="M 42 235 390 262"/>
<path stroke-width="0.5" stroke="black" d="M 42 235 208 320"/>
<path stroke-width="0.5" stroke="black" d="M 42 235 292 248"/>
<path stroke-width="0.5" stroke="black" d="M 42 235 36 245"/>
<path stroke-width="0.5" stroke="black" d="M 42 235 188 42"/>
<path stroke-width="0.5" stroke="black" d="M 42 235 165 20"/>
<path stroke-width="0.5" stroke="black" d="M 42 235 341 74"/>
<path stroke-width="0.5" stroke="black" d="M 42 235 61 69"/>
<path stroke-width="8.857142857142858" stroke="black" d="M 42 235 315 176"/>
<path stroke-width="0.5" stroke="black" d="M 42 235 108 166"/>
<path stroke-width="0.5" stroke="black" d="M 42 235 320 306"/>
<path stroke-width="11.642857142857142" stroke="black" d="M 42 235 210 173"/>
<path stroke-width="0.5" stroke="black" d="M 42 235 20 97"/>
<path stroke-width="0.5" stroke="black" d="M 301 28 246 117"/>
<path stroke-width="0.5" stroke="black" d="M 301 28 407 119"/>
<path stroke-width="0.5" stroke="black" d="M 301 28 363 111"/>
<path stroke-width="0.5" stroke="black" d="M 301 28 42 235"/>
<path stroke-width="0.5" stroke="black" d="M 301 28 164 46"/>
<path stroke-width="0.5" stroke="black" d="M 301 28 22 150"/>
<path stroke-width="0.5" stroke="black" d="M 301 28 105 294"/>
<path stroke-width="0.5" stroke="black" d="M 301 28 20 97"/>
<path stroke-width="0.5" stroke="black" d="M 301 28 153 265"/>
<path stroke-width="0.5" stroke="black" d="M 301 28 390 262"/>
<path stroke-width="0.5" stroke="black" d="M 301 28 208 320"/>
<path stroke-width="0.5" stroke="black" d="M 301 28 292 248"/>
<path stroke-width="0.5" stroke="black" d="M 301 28 36 245"/>
<path stroke-width="0.5" stroke="black" d="M 301 28 188 42"/>
<path stroke-width="0.5" stroke="black" d="M 301 28 420 193"/>
<path stroke-width="0.5" stroke="black" d="M 390 262 20 97"/>
<path stroke-width="0.5" stroke="black" d="M 42 235 105 294"/>
<path stroke-width="0.5" stroke="black" d="M 42 235 164 46"/>
<path stroke-width="20.0" stroke="black" d="M 407 119 210 173"/>
<path stroke-width="0.5" stroke="black" d="M 363 111 246 117"/>
<path stroke-width="0.5" stroke="black" d="M 363 111 420 193"/>
<path stroke-width="0.5" stroke="black" d="M 363 111 407 119"/>
<path stroke-width="0.5" stroke="black" d="M 363 111 42 235"/>
<path stroke-width="0.5" stroke="black" d="M 363 111 301 28"/>
<path stroke-width="0.5" stroke="black" d="M 363 111 164 46"/>
<path stroke-width="0.5" stroke="black" d="M 363 111 22 150"/>
<path stroke-width="0.5" stroke="black" d="M 363 111 105 294"/>
<path stroke-width="0.5" stroke="black" d="M 363 111 20 97"/>
<path stroke-width="0.5" stroke="black" d="M 363 111 153 265"/>
<path stroke-width="0.5" stroke="black" d="M 363 111 390 262"/>
<path stroke-width="0.5" stroke="black" d="M 363 111 208 320"/>
<path stroke-width="0.5" stroke="black" d="M 42 235 22 150"/>
<path stroke-width="0.5" stroke="black" d="M 363 111 292 248"/>
<path stroke-width="0.5" stroke="black" d="M 363 111 188 42"/>
<path stroke-width="0.5" stroke="black" d="M 363 111 165 20"/>
<path stroke-width="0.5" stroke="black" d="M 363 111 341 74"/>
<path stroke-width="0.5" stroke="black" d="M 363 111 61 69"/>
<path stroke-width="0.5" stroke="black" d="M 363 111 315 176"/>
<path stroke-width="8.857142857142858" stroke="black" d="M 363 111 108 166"/>
<path stroke-width="0.5" stroke="black" d="M 363 111 320 306"/>
<path stroke-width="11.642857142857142" stroke="black" d="M 363 111 210 173"/>
<path stroke-width="0.5" stroke="black" d="M 42 235 246 117"/>
<path stroke-width="0.5" stroke="black" d="M 42 235 420 193"/>
<path stroke-width="0.5" stroke="black" d="M 42 235 407 119"/>
<path stroke-width="0.5" stroke="black" d="M 42 235 363 111"/>
<path stroke-width="0.5" stroke="black" d="M 42 235 301 28"/>
<path stroke-width="0.5" stroke="black" d="M 363 111 36 245"/>
<path stroke-width="0.5" stroke="black" d="M 390 262 153 265"/>
<path stroke-width="8.857142857142858" stroke="black" d="M 390 262 208 320"/>
<path stroke-width="0.5" stroke="black" d="M 390 262 292 248"/>
<path stroke-width="0.5" stroke="black" d="M 61 69 315 176"/>
<path stroke-width="0.5" stroke="black" d="M 61 69 108 166"/>
<path stroke-width="0.5" stroke="black" d="M 61 69 320 306"/>
<path stroke-width="11.642857142857142" stroke="black" d="M 61 69 210 173"/>
<path stroke-width="0.5" stroke="black" d="M 315 176 246 117"/>
<path stroke-width="0.5" stroke="black" d="M 315 176 420 193"/>
<path stroke-width="0.5" stroke="black" d="M 315 176 407 119"/>
<path stroke-width="0.5" stroke="black" d="M 315 176 363 111"/>
<path stroke-width="8.857142857142858" stroke="black" d="M 315 176 42 235"/>
<path stroke-width="0.5" stroke="black" d="M 315 176 301 28"/>
<path stroke-width="0.5" stroke="black" d="M 315 176 164 46"/>
<path stroke-width="0.5" stroke="black" d="M 315 176 22 150"/>
<path stroke-width="0.5" stroke="black" d="M 315 176 105 294"/>
<path stroke-width="0.5" stroke="black" d="M 315 176 20 97"/>
<path stroke-width="0.5" stroke="black" d="M 315 176 153 265"/>
<path stroke-width="0.5" stroke="black" d="M 315 176 390 262"/>
<path stroke-width="0.5" stroke="black" d="M 315 176 208 320"/>
<path stroke-width="0.5" stroke="black" d="M 315 176 292 248"/>
<path stroke-width="0.5" stroke="black" d="M 315 176 36 245"/>
<path stroke-width="0.5" stroke="black" d="M 315 176 188 42"/>
<path stroke-width="0.5" stroke="black" d="M 315 176 165 20"/>
<path stroke-width="0.5" stroke="black" d="M 315 176 341 74"/>
<path stroke-width="0.5" stroke="black" d="M 315 176 61 69"/>
<path stroke-width="0.5" stroke="black" d="M 315 176 108 166"/>
<path stroke-width="0.5" stroke="black" d="M 315 176 320 306"/>
<path stroke-width="11.642857142857142" stroke="black" d="M 315 176 210 173"/>
<path stroke-width="0.5" stroke="black" d="M 108 166 246 117"/>
<path stroke-width="0.5" stroke="black" d="M 61 69 341 74"/>
<path stroke-width="0.5" stroke="black" d="M 61 69 165 20"/>
<path stroke-width="0.5" stroke="black" d="M 61 69 188 42"/>
<path stroke-width="0.5" stroke="black" d="M 61 69 36 245"/>
<path stroke-width="0.5" stroke="black" d="M 341 74 105 294"/>
<path stroke-width="0.5" stroke="black" d="M 341 74 20 97"/>
<path stroke-width="0.5" stroke="black" d="M 341 74 153 265"/>
<path stroke-width="0.5" stroke="black" d="M 341 74 390 262"/>
<path stroke-width="0.5" stroke="black" d="M 341 74 208 320"/>
<path stroke-width="0.5" stroke="black" d="M 341 74 292 248"/>
<path stroke-width="0.5" stroke="black" d="M 341 74 36 245"/>
<path stroke-width="0.5" stroke="black" d="M 341 74 188 42"/>
<path stroke-width="0.5" stroke="black" d="M 341 74 165 20"/>
<path stroke-width="0.5" stroke="black" d="M 341 74 61 69"/>
<path stroke-width="0.5" stroke="black" d="M 341 74 315 176"/>
<path stroke-width="0.5" stroke="black" d="M 341 74 108 166"/>
<path stroke-width="0.5" stroke="black" d="M 341 74 320 306"/>
<path stroke-width="0.5" stroke="black" d="M 108 166 420 193"/>
<path stroke-width="11.642857142857142" stroke="black" d="M 341 74 210 173"/>
<path stroke-width="0.5" stroke="black" d="M 61 69 420 193"/>
<path stroke-width="0.5" stroke="black" d="M 61 69 407 119"/>
<path stroke-width="0.5" stroke="black" d="M 61 69 363 111"/>
<path stroke-width="0.5" stroke="black" d="M 61 69 42 235"/>
<path stroke-width="8.857142857142858" stroke="black" d="M 61 69 301 28"/>
<path stroke-width="0.5" stroke="black" d="M 61 69 164 46"/>
<path stroke-width="0.5" stroke="black" d="M 61 69 22 150"/>
<path stroke-width="0.5" stroke="black" d="M 61 69 105 294"/>
<path stroke-width="0.5" stroke="black" d="M 61 69 20 97"/>
<path stroke-width="0.5" stroke="black" d="M 61 69 153 265"/>
<path stroke-width="0.5" stroke="black" d="M 61 69 390 262"/>
<path stroke-width="0.5" stroke="black" d="M 61 69 208 320"/>
<path stroke-width="0.5" stroke="black" d="M 61 69 292 248"/>
<path stroke-width="0.5" stroke="black" d="M 61 69 246 117"/>
<path stroke-width="0.5" stroke="black" d="M 108 166 407 119"/>
<path stroke-width="8.857142857142858" stroke="black" d="M 108 166 363 111"/>
<path stroke-width="0.5" stroke="black" d="M 108 166 42 235"/>
<path stroke-width="0.5" stroke="black" d="M 320 306 188 42"/>
<path stroke-width="0.5" stroke="black" d="M 320 306 165 20"/>
<path stroke-width="0.5" stroke="black" d="M 320 306 341 74"/>
<path stroke-width="0.5" stroke="black" d="M 320 306 61 69"/>
<path stroke-width="0.5" stroke="black" d="M 320 306 315 176"/>
<path stroke-width="0.5" stroke="black" d="M 320 306 108 166"/>
<path stroke-width="20.0" stroke="black" d="M 320 306 210 173"/>
<path stroke-width="11.642857142857142" stroke="black" d="M 210 173 246 117"/>
<path stroke-width="11.642857142857142" stroke="black" d="M 210 173 420 193"/>
<path stroke-width="20.0" stroke="black" d="M 210 173 407 119"/>
<path stroke-width="11.642857142857142" stroke="black" d="M 210 173 363 111"/>
<path stroke-width="11.642857142857142" stroke="black" d="M 210 173 42 235"/>
<path stroke-width="11.642857142857142" stroke="black" d="M 210 173 301 28"/>
<path stroke-width="0.5" stroke="black" d="M 320 306 36 245"/>
<path stroke-width="11.642857142857142" stroke="black" d="M 210 173 164 46"/>
<path stroke-width="11.642857142857142" stroke="black" d="M 210 173 105 294"/>
<path stroke-width="11.642857142857142" stroke="black" d="M 210 173 20 97"/>
<path stroke-width="11.642857142857142" stroke="black" d="M 210 173 153 265"/>
<path stroke-width="11.642857142857142" stroke="black" d="M 210 173 390 262"/>
<path stroke-width="11.642857142857142" stroke="black" d="M 210 173 208 320"/>
<path stroke-width="11.642857142857142" stroke="black" d="M 210 173 292 248"/>
<path stroke-width="11.642857142857142" stroke="black" d="M 210 173 36 245"/>
<path stroke-width="11.642857142857142" stroke="black" d="M 210 173 188 42"/>
<path stroke-width="11.642857142857142" stroke="black" d="M 210 173 165 20"/>
<path stroke-width="11.642857142857142" stroke="black" d="M 210 173 341 74"/>
<path stroke-width="11.642857142857142" stroke="black" d="M 210 173 61 69"/>
<path stroke-width="11.642857142857142" stroke="black" d="M 210 173 315 176"/>
<path stroke-width="11.642857142857142" stroke="black" d="M 210 173 108 166"/>
<path stroke-width="11.642857142857142" stroke="black" d="M 210 173 22 150"/>
<path stroke-width="0.5" stroke="black" d="M 341 74 22 150"/>
<path stroke-width="0.5" stroke="black" d="M 320 306 292 248"/>
<path stroke-width="0.5" stroke="black" d="M 320 306 390 262"/>
<path stroke-width="0.5" stroke="black" d="M 108 166 301 28"/>
<path stroke-width="0.5" stroke="black" d="M 108 166 164 46"/>
<path stroke-width="0.5" stroke="black" d="M 108 166 22 150"/>
<path stroke-width="0.5" stroke="black" d="M 108 166 105 294"/>
<path stroke-width="0.5" stroke="black" d="M 108 166 20 97"/>
<path stroke-width="0.5" stroke="black" d="M 108 166 153 265"/>
<path stroke-width="0.5" stroke="black" d="M 108 166 390 262"/>
<path stroke-width="0.5" stroke="black" d="M 108 166 208 320"/>
<path stroke-width="0.5" stroke="black" d="M 108 166 292 248"/>
<path stroke-width="0.5" stroke="black" d="M 108 166 36 245"/>
<path stroke-width="0.5" stroke="black" d="M 108 166 188 42"/>
<path stroke-width="0.5" stroke="black" d="M 108 166 165 20"/>
<path stroke-width="0.5" stroke="black" d="M 108 166 341 74"/>
<path stroke-width="0.5" stroke="black" d="M 320 306 208 320"/>
<path stroke-width="0.5" stroke="black" d="M 108 166 61 69"/>
<path stroke-width="0.5" stroke="black" d="M 108 166 320 306"/>
<path stroke-width="11.642857142857142" stroke="black" d="M 108 166 210 173"/>
<path stroke-width="0.5" stroke="black" d="M 320 306 246 117"/>
<path stroke-width="0.5" stroke="black" d="M 320 306 420 193"/>
<path stroke-width="0.5" stroke="black" d="M 320 306 407 119"/>
<path stroke-width="0.5" stroke="black" d="M 320 306 363 111"/>
<path stroke-width="0.5" stroke="black" d="M 320 306 42 235"/>
<path stroke-width="0.5" stroke="black" d="M 320 306 301 28"/>
<path stroke-width="0.5" stroke="black" d="M 320 306 164 46"/>
<path stroke-width="0.5" stroke="black" d="M 320 306 22 150"/>
<path stroke-width="0.5" stroke="black" d="M 320 306 105 294"/>
<path stroke-width="0.5" stroke="black" d="M 320 306 20 97"/>
<path stroke-width="0.5" stroke="black" d="M 320 306 153 265"/>
<path stroke-width="0.5" stroke="black" d="M 108 166 315 176"/>
<path stroke-width="0.5" stroke="black" d="M 246 117 407 119"/>
<path stroke-width="8.857142857142858" stroke="black" d="M 341 74 164 46"/>
<path stroke-width="0.5" stroke="black" d="M 341 74 42 235"/>
<path stroke-width="8.857142857142858" stroke="black" d="M 292 248 420 193"/>
<path stroke-width="0.5" stroke="black" d="M 292 248 407 119"/>
<path stroke-width="0.5" stroke="black" d="M 292 248 363 111"/>
<path stroke-width="0.5" stroke="black" d="M 292 248 42 235"/>
<path stroke-width="0.5" stroke="black" d="M 292 248 301 28"/>
<path stroke-width="0.5" stroke="black" d="M 292 248 164 46"/>
<path stroke-width="0.5" stroke="black" d="M 292 248 22 150"/>
<path stroke-width="0.5" stroke="black" d="M 292 248 105 294"/>
<path stroke-width="0.5" stroke="black" d="M 292 248 20 97"/>
<path stroke-width="0.5" stroke="black" d="M 292 248 153 265"/>
<path stroke-width="0.5" stroke="black" d="M 292 248 390 262"/>
<path stroke-width="0.5" stroke="black" d="M 292 248 208 320"/>
<path stroke-width="0.5" stroke="black" d="M 292 248 36 245"/>
<path stroke-width="0.5" stroke="black" d="M 292 248 188 42"/>
<path stroke-width="0.5" stroke="black" d="M 292 248 165 20"/>
<path stroke-width="0.5" stroke="black" d="M 292 248 341 74"/>
<path stroke-width="0.5" stroke="black" d="M 292 248 61 69"/>
<path stroke-width="0.5" stroke="black" d="M 292 248 315 176"/>
<path stroke-width="0.5" stroke="black" d="M 292 248 108 166"/>
<path stroke-width="0.5" stroke="black" d="M 292 248 320 306"/>
<path stroke-width="11.642857142857142" stroke="black" d="M 292 248 210 173"/>
<path stroke-width="0.5" stroke="black" d="M 36 245 246 117"/>
<path stroke-width="0.5" stroke="black" d="M 36 245 420 193"/>
<path stroke-width="0.5" stroke="black" d="M 36 245 407 119"/>
<path stroke-width="0.5" stroke="black" d="M 36 245 363 111"/>
<path stroke-width="0.5" stroke="black" d="M 36 245 42 235"/>
<path stroke-width="0.5" stroke="black" d="M 36 245 301 28"/>
<path stroke-width="0.5" stroke="black" d="M 292 248 246 117"/>
<path stroke-width="11.642857142857142" stroke="black" d="M 208 320 210 173"/>
<path stroke-width="0.5" stroke="black" d="M 208 320 320 306"/>
<path stroke-width="0.5" stroke="black" d="M 208 320 108 166"/>
<path stroke-width="0.5" stroke="black" d="M 390 262 36 245"/>
<path stroke-width="0.5" stroke="black" d="M 390 262 188 42"/>
<path stroke-width="0.5" stroke="black" d="M 390 262 165 20"/>
<path stroke-width="0.5" stroke="black" d="M 390 262 341 74"/>
<path stroke-width="0.5" stroke="black" d="M 390 262 61 69"/>
<path stroke-width="0.5" stroke="black" d="M 390 262 315 176"/>
<path stroke-width="0.5" stroke="black" d="M 390 262 108 166"/>
<path stroke-width="0.5" stroke="black" d="M 390 262 320 306"/>
<path stroke-width="11.642857142857142" stroke="black" d="M 390 262 210 173"/>
<path stroke-width="0.5" stroke="black" d="M 208 320 246 117"/>
<path stroke-width="0.5" stroke="black" d="M 208 320 420 193"/>
<path stroke-width="0.5" stroke="black" d="M 208 320 407 119"/>
<path stroke-width="0.5" stroke="black" d="M 208 320 363 111"/>
<path stroke-width="0.5" stroke="black" d="M 36 245 164 46"/>
<path stroke-width="0.5" stroke="black" d="M 208 320 42 235"/>
<path stroke-width="0.5" stroke="black" d="M 208 320 164 46"/>
<path stroke-width="0.5" stroke="black" d="M 208 320 22 150"/>
<path stroke-width="0.5" stroke="black" d="M 208 320 105 294"/>
<path stroke-width="0.5" stroke="black" d="M 208 320 20 97"/>
<path stroke-width="0.5" stroke="black" d="M 208 320 153 265"/>
<path stroke-width="8.857142857142858" stroke="black" d="M 208 320 390 262"/>
<path stroke-width="0.5" stroke="black" d="M 208 320 292 248"/>
<path stroke-width="0.5" stroke="black" d="M 208 320 36 245"/>
<path stroke-width="0.5" stroke="black" d="M 208 320 188 42"/>
<path stroke-width="0.5" stroke="black" d="M 208 320 165 20"/>
<path stroke-width="0.5" stroke="black" d="M 208 320 341 74"/>
<path stroke-width="0.5" stroke="black" d="M 208 320 61 69"/>
<path stroke-width="0.5" stroke="black" d="M 208 320 315 176"/>
<path stroke-width="0.5" stroke="black" d="M 208 320 301 28"/>
<path stroke-width="0.5" stroke="black" d="M 36 245 22 150"/>
<path stroke-width="0.5" stroke="black" d="M 36 245 105 294"/>
<path stroke-width="0.5" stroke="black" d="M 36 245 20 97"/>
<path stroke-width="0.5" stroke="black" d="M 188 42 320 306"/>
<path stroke-width="11.642857142857142" stroke="black" d="M 188 42 210 173"/>
<path stroke-width="0.5" stroke="black" d="M 165 20 246 117"/>
<path stroke-width="0.5" stroke="black" d="M 165 20 420 193"/>
<path stroke-width="0.5" stroke="black" d="M 165 20 407 119"/>
<path stroke-width="0.5" stroke="black" d="M 165 20 363 111"/>
<path stroke-width="0.5" stroke="black" d="M 165 20 42 235"/>
<path stroke-width="0.5" stroke="black" d="M 165 20 301 28"/>
<path stroke-width="0.5" stroke="black" d="M 165 20 164 46"/>
<path stroke-width="8.857142857142858" stroke="black" d="M 165 20 22 150"/>
<path stroke-width="0.5" stroke="black" d="M 165 20 105 294"/>
<path stroke-width="0.5" stroke="black" d="M 165 20 20 97"/>
<path stroke-width="0.5" stroke="black" d="M 165 20 153 265"/>
<path stroke-width="0.5" stroke="black" d="M 188 42 108 166"/>
<path stroke-width="0.5" stroke="black" d="M 165 20 390 262"/>
<path stroke-width="0.5" stroke="black" d="M 165 20 292 248"/>
<path stroke-width="0.5" stroke="black" d="M 165 20 36 245"/>
<path stroke-width="0.5" stroke="black" d="M 165 20 188 42"/>
<path stroke-width="0.5" stroke="black" d="M 165 20 341 74"/>
<path stroke-width="0.5" stroke="black" d="M 165 20 61 69"/>
<path stroke-width="0.5" stroke="black" d="M 165 20 315 176"/>
<path stroke-width="0.5" stroke="black" d="M 165 20 108 166"/>
<path stroke-width="0.5" stroke="black" d="M 165 20 320 306"/>
<path stroke-width="11.642857142857142" stroke="black" d="M 165 20 210 173"/>
<path stroke-width="0.5" stroke="black" d="M 341 74 246 117"/>
<path stroke-width="0.5" stroke="black" d="M 341 74 420 193"/>
<path stroke-width="0.5" stroke="black" d="M 341 74 407 119"/>
<path stroke-width="0.5" stroke="black" d="M 341 74 363 111"/>
<path stroke-width="0.5" stroke="black" d="M 165 20 208 320"/>
<path stroke-width="0.5" stroke="black" d="M 341 74 301 28"/>
<path stroke-width="0.5" stroke="black" d="M 188 42 315 176"/>
<path stroke-width="0.5" stroke="black" d="M 188 42 341 74"/>
<path stroke-width="8.857142857142858" stroke="black" d="M 36 245 153 265"/>
<path stroke-width="0.5" stroke="black" d="M 36 245 390 262"/>
<path stroke-width="0.5" stroke="black" d="M 36 245 208 320"/>
<path stroke-width="0.5" stroke="black" d="M 36 245 292 248"/>
<path stroke-width="0.5" stroke="black" d="M 36 245 188 42"/>
<path stroke-width="0.5" stroke="black" d="M 36 245 165 20"/>
<path stroke-width="0.5" stroke="black" d="M 36 245 341 74"/>
<path stroke-width="0.5" stroke="black" d="M 36 245 61 69"/>
<path stroke-width="0.5" stroke="black" d="M 36 245 315 176"/>
<path stroke-width="0.5" stroke="black" d="M 36 245 108 166"/>
<path stroke-width="0.5" stroke="black" d="M 36 245 320 306"/>
<path stroke-width="11.642857142857142" stroke="black" d="M 36 245 210 173"/>
<path stroke-width="0.5" stroke="black" d="M 188 42 246 117"/>
<path stroke-width="0.5" stroke="black" d="M 188 42 61 69"/>
<path stroke-width="0.5" stroke="black" d="M 188 42 420 193"/>
<path stroke-width="0.5" stroke="black" d="M 188 42 363 111"/>
<path stroke-width="0.5" stroke="black" d="M 188 42 42 235"/>
<path stroke-width="0.5" stroke="black" d="M 188 42 301 28"/>
<path stroke-width="0.5" stroke="black" d="M 188 42 164 46"/>
<path stroke-width="0.5" stroke="black" d="M 188 42 22 150"/>
<path stroke-width="0.5" stroke="black" d="M 188 42 105 294"/>
<path stroke-width="8.857142857142858" stroke="black" d="M 188 42 20 97"/>
<path stroke-width="0.5" stroke="black" d="M 188 42 153 265"/>
<path stroke-width="0.5" stroke="black" d="M 188 42 390 262"/>
<path stroke-width="0.5" stroke="black" d="M 188 42 208 320"/>
<path stroke-width="0.5" stroke="black" d="M 188 42 292 248"/>
<path stroke-width="0.5" stroke="black" d="M 188 42 36 245"/>
<path stroke-width="0.5" stroke="black" d="M 188 42 165 20"/>
<path stroke-width="0.5" stroke="black" d="M 188 42 407 119"/>
<path stroke-width="0.5" stroke="black" d="M 246 117 420 193"/>
<circle cx="210" cy="173" r="7.0" style="fill:gray;stroke:black;stroke-width:1.0"/>
<circle cx="320" cy="306" r="7.0" style="fill:gray;stroke:black;stroke-width:1.0"/>
<circle cx="108" cy="166" r="7.0" style="fill:gray;stroke:black;stroke-width:1.0"/>
<circle cx="315" cy="176" r="7.0" style="fill:gray;stroke:black;stroke-width:1.0"/>
<circle cx="61" cy="69" r="7.0" style="fill:gray;stroke:black;stroke-width:1.0"/>
<circle cx="341" cy="74" r="7.0" style="fill:gray;stroke:black;stroke-width:1.0"/>
<circle cx="165" cy="20" r="7.0" style="fill:gray;stroke:black;stroke-width:1.0"/>
<circle cx="188" cy="42" r="7.0" style="fill:gray;stroke:black;stroke-width:1.0"/>
<circle cx="36" cy="245" r="7.0" style="fill:gray;stroke:black;stroke-width:1.0"/>
<circle cx="292" cy="248" r="7.0" style="fill:gray;stroke:black;stroke-width:1.0"/>
<circle cx="208" cy="320" r="7.0" style="fill:gray;stroke:black;stroke-width:1.0"/>
<circle cx="390" cy="262" r="7.0" style="fill:gray;stroke:black;stroke-width:1.0"/>
<circle cx="153" cy="265" r="7.0" style="fill:gray;stroke:black;stroke-width:1.0"/>
<circle cx="20" cy="97" r="7.0" style="fill:gray;stroke:black;stroke-width:1.0"/>
<circle cx="105" cy="294" r="7.0" style="fill:gray;stroke:black;stroke-width:1.0"/>
<circle cx="22" cy="150" r="7.0" style="fill:gray;stroke:black;stroke-width:1.0"/>
<circle cx="164" cy="46" r="7.0" style="fill:gray;stroke:black;stroke-width:1.0"/>
<circle cx="301" cy="28" r="7.0" style="fill:gray;stroke:black;stroke-width:1.0"/>
<circle cx="42" cy="235" r="7.0" style="fill:gray;stroke:black;stroke-width:1.0"/>
<circle cx="363" cy="111" r="7.0" style="fill:gray;stroke:black;stroke-width:1.0"/>
<circle cx="407" cy="119" r="7.0" style="fill:gray;stroke:black;stroke-width:1.0"/>
<circle cx="420" cy="193" r="7.0" style="fill:gray;stroke:black;stroke-width:1.0"/>
<circle cx="246" cy="117" r="7.0" style="fill:gray;stroke:black;stroke-width:1.0"/>
</svg>
