<svg width="440" height="340" xmlns="http://www.w3.org/2000/svg">
<path stroke-width="20.0" stroke="black" d="M 227 161 229 294"/>
<path stroke-width="0.5" stroke="black" d="M 369 61 119 243"/>
<path stroke-width="0.5" stroke="black" d="M 369 61 406 160"/>
<path stroke-width="0.5" stroke="black" d="M 369 61 20 141"/>
<path stroke-width="0.5" stroke="black" d="M 369 61 192 185"/>
<path stroke-width="0.5" stroke="black" d="M 369 61 78 68"/>
<path stroke-width="0.5" stroke="black" d="M 369 61 420 136"/>
<path stroke-width="0.5" stroke="black" d="M 369 61 84 117"/>
<path stroke-width="0.5" stroke="black" d="M 369 61 271 40"/>
<path stroke-width="8.857142857142858" stroke="black" d="M 369 61 308 183"/>
<path stroke-width="0.5" stroke="black" d="M 369 61 217 320"/>
<path stroke-width="0.5" stroke="black" d="M 369 61 271 20"/>
<path stroke-width="0.5" stroke="black" d="M 369 61 68 180"/>
<path stroke-width="0.5" stroke="black" d="M 369 61 325 272"/>
<path stroke-width="0.5" stroke="black" d="M 369 61 229 294"/>
<path stroke-width="11.642857142857142" stroke="black" d="M 369 61 227 161"/>
<path stroke-width="8.857142857142858" stroke="black" d="M 119 243 328 285"/>
<path stroke-width="0.5" stroke="black" d="M 119 243 408 236"/>
<path stroke-width="0.5" stroke="black" d="M 119 243 154 24"/>
<path stroke-width="0.5" stroke="black" d="M 119 243 317 111"/>
<path stroke-width="0.5" stroke="black" d="M 119 243 127 305"/>
<path stroke-width="0.5" stroke="black" d="M 119 243 184 61"/>
<path stroke-width="0.5" stroke="black" d="M 119 243 51 261"/>
<path stroke-width="0.5" stroke="black" d="M 119 243 369 61"/>
<path stroke-width="0.5" stroke="black" d="M 119 243 406 160"/>
<path stroke-width="0.5" stroke="black" d="M 119 243 20 141"/>
<path stroke-width="0.5" stroke="black" d="M 119 243 192 185"/>
<path stroke-width="0.5" stroke="black" d="M 119 243 78 68"/>
<path stroke-width="0.5" stroke="black" d="M 369 61 51 261"/>
<path stroke-width="0.5" stroke="black" d="M 369 61 184 61"/>
<path stroke-width="0.5" stroke="black" d="M 369 61 127 305"/>
<path stroke-width="0.5" stroke="black" d="M 369 61 317 111"/>
<path stroke-width="0.5" stroke="black" d="M 184 61 325 272"/>
<path stroke-width="0.5" stroke="black" d="M 184 61 229 294"/>
<path stroke-width="11.642857142857142" stroke="black" d="M 184 61 227 161"/>
<path stroke-width="0.5" stroke="black" d="M 51 261 328 285"/>
<path stroke-width="0.5" stroke="black" d="M 51 261 408 236"/>
<path stroke-width="0.5" stroke="black" d="M 51 261 154 24"/>
<path stroke-width="0.5" stroke="black" d="M 51 261 317 111"/>
<path stroke-width="0.5" stroke="black" d="M 51 261 127 305"/>
<path stroke-width="0.5" stroke="black" d="M 51 261 184 61"/>
<path stroke-width="0.5" stroke="black" d="M 51 261 369 61"/>
<path stroke-width="0.5" stroke="black" d="M 51 261 119 243"/>
<path stroke-width="0.5" stroke="black" d="M 51 261 406 160"/>
<path stroke-width="0.5" stroke="black" d="M 51 261 20 141"/>
<path stroke-width="0.5" stroke="black" d="M 119 243 420 136"/>
<path stroke-width="0.5" stroke="black" d="M 51 261 192 185"/>
<path stroke-width="0.5" stroke="black" d="M 51 261 420 136"/>
<path stroke-width="0.5" stroke="black" d="M 51 261 84 117"/>
<path stroke-width="0.5" stroke="black" d="M 51 261 271 40"/>
<path stroke-width="0.5" stroke="black" d="M 51 261 308 183"/>
<path stroke-width="8.857142857142858" stroke="black" d="M 51 261 217 320"/>
<path stroke-width="0.5" stroke="black" d="M 51 261 271 20"/>
<path stroke-width="0.5" stroke="black" d="M 51 261 68 180"/>
<path stroke-width="0.5" stroke="black" d="M 51 261 325 272"/>
<path stroke-width="0.5" stroke="black" d="M 51 261 229 294"/>
<path stroke-width="11.642857142857142" stroke="black" d="M 51 261 227 161"/>
<path stroke-width="0.5" stroke="black" d="M 369 61 328 285"/>
<path stroke-width="0.5" stroke="black" d="M 369 61 408 236"/>
<path stroke-width="0.5" stroke="black" d="M 369 61 154 24"/>
<path stroke-width="0.5" stroke="black" d="M 51 261 78 68"/>
<path stroke-width="0.5" stroke="black" d="M 184 61 68 180"/>
<path stroke-width="0.5" stroke="black" d="M 119 243 84 117"/>
<path stroke-width="0.5" stroke="black" d="M 119 243 308 183"/>
<path stroke-width="0.5" stroke="black" d="M 20 141 127 305"/>
<path stroke-width="0.5" stroke="black" d="M 20 141 184 61"/>
<path stroke-width="0.5" stroke="black" d="M 20 141 51 261"/>
<path stroke-width="0.5" stroke="black" d="M 20 141 369 61"/>
<path stroke-width="0.5" stroke="black" d="M 20 141 119 243"/>
<path stroke-width="0.5" stroke="black" d="M 20 141 406 160"/>
<path stroke-width="0.5" stroke="black" d="M 20 141 192 185"/>
<path stroke-width="0.5" stroke="black" d="M 20 141 78 68"/>
<path stroke-width="0.5" stroke="black" d="M 20 141 420 136"/>
<path stroke-width="8.857142857142858" stroke="black" d="M 20 141 84 117"/>
<path stroke-width="0.5" stroke="black" d="M 20 141 271 40"/>
<path stroke-width="0.5" stroke="black" d="M 20 141 308 183"/>
<path stroke-width="0.5" stroke="black" d="M 20 141 217 320"/>
<path stroke-width="0.5" stroke="black" d="M 20 141 271 20"/>
<path stroke-width="0.5" stroke="black" d="M 20 141 68 180"/>
<path stroke-width="0.5" stroke="black" d="M 20 141 325 272"/>
<path stroke-width="0.5" stroke="black" d="M 20 141 229 294"/>
<path stroke-width="11.642857142857142" stroke="black" d="M 20 141 227 161"/>
<path stroke-width="0.5" stroke="black" d="M 192 185 328 285"/>
<path stroke-width="0.5" stroke="black" d="M 192 185 408 236"/>
<path stroke-width="0.5" stroke="black" d="M 192 185 154 24"/>
<path stroke-width="0.5" stroke="black" d="M 192 185 317 111"/>
<path stroke-width="0.5" stroke="black" d="M 192 185 127 305"/>
<path stroke-width="0.5" stroke="black" d="M 192 185 184 61"/>
<path stroke-width="0.5" stroke="black" d="M 192 185 51 261"/>
<path stroke-width="0.5" stroke="black" d="M 192 185 369 61"/>
<path stroke-width="0.5" stroke="black" d="M 192 185 119 243"/>
<path stroke-width="0.5" stroke="black" d="M 20 141 317 111"/>
<path stroke-width="0.5" stroke="black" d="M 20 141 154 24"/>
<path stroke-width="0.5" stroke="black" d="M 20 141 408 236"/>
<path stroke-width="0.5" stroke="black" d="M 20 141 328 285"/>
<path stroke-width="0.5" stroke="black" d="M 119 243 217 320"/>
<path stroke-width="0.5" stroke="black" d="M 119 243 271 20"/>
<path stroke-width="0.5" stroke="black" d="M 119 243 68 180"/>
<path stroke-width="0.5" stroke="black" d="M 119 243 325 272"/>
<path stroke-width="0.5" stroke="black" d="M 119 243 229 294"/>
<path stroke-width="11.642857142857142" stroke="black" d="M 119 243 227 161"/>
<path stroke-width="0.5" stroke="black" d="M 406 160 328 285"/>
<path stroke-width="0.5" stroke="black" d="M 406 160 408 236"/>
<path stroke-width="0.5" stroke="black" d="M 406 160 154 24"/>
<path stroke-width="0.5" stroke="black" d="M 406 160 317 111"/>
<path stroke-width="0.5" stroke="black" d="M 406 160 127 305"/>
<path stroke-width="0.5" stroke="black" d="M 406 160 184 61"/>
<path stroke-width="0.5" stroke="black" d="M 406 160 51 261"/>
<path stroke-width="0.5" stroke="black" d="M 119 243 271 40"/>
<path stroke-width="0.5" stroke="black" d="M 406 160 369 61"/>
<path stroke-width="0.5" stroke="black" d="M 406 160 20 141"/>
<path stroke-width="0.5" stroke="black" d="M 406 160 192 185"/>
<path stroke-width="0.5" stroke="black" d="M 406 160 78 68"/>
<path stroke-width="0.5" stroke="black" d="M 406 160 420 136"/>
<path stroke-width="0.5" stroke="black" d="M 406 160 84 117"/>
<path stroke-width="8.857142857142858" stroke="black" d="M 406 160 271 40"/>
<path stroke-width="0.5" stroke="black" d="M 406 160 308 183"/>
<path stroke-width="0.5" stroke="black" d="M 406 160 217 320"/>
<path stroke-width="0.5" stroke="black" d="M 406 160 271 20"/>
<path stroke-width="0.5" stroke="black" d="M 406 160 68 180"/>
<path stroke-width="0.5" stroke="black" d="M 406 160 325 272"/>
<path stroke-width="0.5" stroke="black" d="M 406 160 229 294"/>
<path stroke-width="11.642857142857142" stroke="black" d="M 406 160 227 161"/>
<path stroke-width="0.5" stroke="black" d="M 406 160 119 243"/>
<path stroke-width="8.857142857142858" stroke="black" d="M 184 61 271 20"/>
<path stroke-width="0.5" stroke="black" d="M 184 61 217 320"/>
<path stroke-width="0.5" stroke="black" d="M 184 61 308 183"/>
<path stroke-width="8.857142857142858" stroke="black" d="M 408 236 420 136"/>
<path stroke-width="0.5" stroke="black" d="M 408 236 84 117"/>
<path stroke-width="0.5" stroke="black" d="M 408 236 271 40"/>
<path stroke-width="0.5" stroke="black" d="M 408 236 308 183"/>
<path stroke-width="0.5" stroke="black" d="M 408 236 217 320"/>
<path stroke-width="0.5" stroke="black" d="M 408 236 271 20"/>
<path stroke-width="0.5" stroke="black" d="M 408 236 68 180"/>
<path stroke-width="0.5" stroke="black" d="M 408 236 325 272"/>
<path stroke-width="0.5" stroke="black" d="M 408 236 229 294"/>
<path stroke-width="11.642857142857142" stroke="black" d="M 408 236 227 161"/>
<path stroke-width="0.5" stroke="black" d="M 154 24 328 285"/>
<path stroke-width="0.5" stroke="black" d="M 154 24 408 236"/>
<path stroke-width="0.5" stroke="black" d="M 154 24 317 111"/>
<path stroke-width="0.5" stroke="black" d="M 154 24 127 305"/>
<path stroke-width="0.5" stroke="black" d="M 154 24 184 61"/>
<path stroke-width="0.5" stroke="black" d="M 154 24 51 261"/>
<path stroke-width="0.5" stroke="black" d="M 154 24 369 61"/>
<path stroke-width="0.5" stroke="black" d="M 154 24 119 243"/>
<path stroke-width="0.5" stroke="black" d="M 154 24 406 160"/>
<path stroke-width="0.5" stroke="black" d="M 154 24 20 141"/>
<path stroke-width="0.5" stroke="black" d="M 154 24 192 185"/>
<path stroke-width="0.5" stroke="black" d="M 154 24 78 68"/>
<path stroke-width="0.5" stroke="black" d="M 154 24 420 136"/>
<path stroke-width="0.5" stroke="black" d="M 154 24 84 117"/>
<path stroke-width="0.5" stroke="black" d="M 154 24 271 40"/>
<path stroke-width="0.5" stroke="black" d="M 154 24 308 183"/>
<path stroke-width="0.5" stroke="black" d="M 154 24 217 320"/>
<path stroke-width="0.5" stroke="black" d="M 408 236 78 68"/>
<path stroke-width="0.5" stroke="black" d="M 408 236 192 185"/>
<path stroke-width="0.5" stroke="black" d="M 408 236 20 141"/>
<path stroke-width="0.5" stroke="black" d="M 408 236 406 160"/>
<path stroke-width="0.5" stroke="black" d="M 328 285 317 111"/>
<path stroke-width="0.5" stroke="black" d="M 328 285 127 305"/>
<path stroke-width="0.5" stroke="black" d="M 328 285 184 61"/>
<path stroke-width="0.5" stroke="black" d="M 328 285 51 261"/>
<path stroke-width="0.5" stroke="black" d="M 328 285 369 61"/>
<path stroke-width="8.857142857142858" stroke="black" d="M 328 285 119 243"/>
<path stroke-width="0.5" stroke="black" d="M 328 285 406 160"/>
<path stroke-width="0.5" stroke="black" d="M 328 285 20 141"/>
<path stroke-width="0.5" stroke="black" d="M 328 285 192 185"/>
<path stroke-width="0.5" stroke="black" d="M 328 285 78 68"/>
<path stroke-width="0.5" stroke="black" d="M 328 285 420 136"/>
<path stroke-width="0.5" stroke="black" d="M 328 285 84 117"/>
<path stroke-width="0.5" stroke="black" d="M 328 285 271 40"/>
<path stroke-width="0.5" stroke="black" d="M 154 24 271 20"/>
<path stroke-width="0.5" stroke="black" d="M 328 285 308 183"/>
<path stroke-width="0.5" stroke="black" d="M 328 285 271 20"/>
<path stroke-width="0.5" stroke="black" d="M 328 285 68 180"/>
<path stroke-width="0.5" stroke="black" d="M 328 285 325 272"/>
<path stroke-width="0.5" stroke="black" d="M 328 285 229 294"/>
<path stroke-width="11.642857142857142" stroke="black" d="M 328 285 227 161"/>
<path stroke-width="0.5" stroke="black" d="M 408 236 328 285"/>
<path stroke-width="0.5" stroke="black" d="M 408 236 154 24"/>
<path stroke-width="0.5" stroke="black" d="M 408 236 317 111"/>
<path stroke-width="0.5" stroke="black" d="M 408 236 127 305"/>
<path stroke-width="0.5" stroke="black" d="M 408 236 184 61"/>
<path stroke-width="0.5" stroke="black" d="M 408 236 51 261"/>
<path stroke-width="0.5" stroke="black" d="M 408 236 369 61"/>
<path stroke-width="0.5" stroke="black" d="M 408 236 119 243"/>
<path stroke-width="0.5" stroke="black" d="M 328 285 217 320"/>
<path stroke-width="0.5" stroke="black" d="M 154 24 68 180"/>
<path stroke-width="0.5" stroke="black" d="M 154 24 325 272"/>
<path stroke-width="0.5" stroke="black" d="M 154 24 229 294"/>
<path stroke-width="0.5" stroke="black" d="M 127 305 20 141"/>
<path stroke-width="0.5" stroke="black" d="M 127 305 192 185"/>
<path stroke-width="0.5" stroke="black" d="M 127 305 78 68"/>
<path stroke-width="0.5" stroke="black" d="M 127 305 420 136"/>
<path stroke-width="0.5" stroke="black" d="M 127 305 84 117"/>
<path stroke-width="0.5" stroke="black" d="M 127 305 271 40"/>
<path stroke-width="0.5" stroke="black" d="M 127 305 308 183"/>
<path stroke-width="0.5" stroke="black" d="M 127 305 217 320"/>
<path stroke-width="0.5" stroke="black" d="M 127 305 271 20"/>
<path stroke-width="8.857142857142858" stroke="black" d="M 127 305 68 180"/>
<path stroke-width="0.5" stroke="black" d="M 127 305 325 272"/>
<path stroke-width="0.5" stroke="black" d="M 127 305 229 294"/>
<path stroke-width="11.642857142857142" stroke="black" d="M 127 305 227 161"/>
<path stroke-width="0.5" stroke="black" d="M 127 305 406 160"/>
<path stroke-width="0.5" stroke="black" d="M 184 61 328 285"/>
<path stroke-width="0.5" stroke="black" d="M 184 61 154 24"/>
<path stroke-width="0.5" stroke="black" d="M 184 61 317 111"/>
<path stroke-width="0.5" stroke="black" d="M 184 61 127 305"/>
<path stroke-width="0.5" stroke="black" d="M 184 61 51 261"/>
<path stroke-width="0.5" stroke="black" d="M 184 61 369 61"/>
<path stroke-width="0.5" stroke="black" d="M 184 61 119 243"/>
<path stroke-width="0.5" stroke="black" d="M 184 61 406 160"/>
<path stroke-width="0.5" stroke="black" d="M 184 61 20 141"/>
<path stroke-width="0.5" stroke="black" d="M 184 61 192 185"/>
<path stroke-width="0.5" stroke="black" d="M 184 61 78 68"/>
<path stroke-width="0.5" stroke="black" d="M 184 61 420 136"/>
<path stroke-width="0.5" stroke="black" d="M 184 61 84 117"/>
<path stroke-width="0.5" stroke="black" d="M 184 61 271 40"/>
<path stroke-width="0.5" stroke="black" d="M 184 61 408 236"/>
<path stroke-width="0.5" stroke="black" d="M 192 185 406 160"/>
<path stroke-width="0.5" stroke="black" d="M 127 305 119 243"/>
<path stroke-width="0.5" stroke="black" d="M 127 305 51 261"/>
<path stroke-width="20.0" stroke="black" d="M 154 24 227 161"/>
<path stroke-width="0.5" stroke="black" d="M 317 111 328 285"/>
<path stroke-width="0.5" stroke="black" d="M 317 111 408 236"/>
<path stroke-width="0.5" stroke="black" d="M 317 111 154 24"/>
<path stroke-width="0.5" stroke="black" d="M 317 111 127 305"/>
<path stroke-width="0.5" stroke="black" d="M 317 111 184 61"/>
<path stroke-width="0.5" stroke="black" d="M 317 111 51 261"/>
<path stroke-width="0.5" stroke="black" d="M 317 111 369 61"/>
<path stroke-width="0.5" stroke="black" d="M 317 111 119 243"/>
<path stroke-width="0.5" stroke="black" d="M 317 111 406 160"/>
<path stroke-width="0.5" stroke="black" d="M 317 111 20 141"/>
<path stroke-width="0.5" stroke="black" d="M 317 111 192 185"/>
<path stroke-width="0.5" stroke="black" d="M 317 111 78 68"/>
<path stroke-width="0.5" stroke="black" d="M 127 305 369 61"/>
<path stroke-width="0.5" stroke="black" d="M 317 111 420 136"/>
<path stroke-width="0.5" stroke="black" d="M 317 111 271 40"/>
<path stroke-width="0.5" stroke="black" d="M 317 111 308 183"/>
<path stroke-width="0.5" stroke="black" d="M 317 111 217 320"/>
<path stroke-width="0.5" stroke="black" d="M 317 111 271 20"/>
<path stroke-width="0.5" stroke="black" d="M 317 111 68 180"/>
<path stroke-width="8.857142857142858" stroke="black" d="M 317 111 325 272"/>
<path stroke-width="0.5" stroke="black" d="M 317 111 229 294"/>
<path stroke-width="11.642857142857142" stroke="black" d="M 317 111 227 161"/>
<path stroke-width="0.5" stroke="black" d="M 127 305 328 285"/>
<path stroke-width="0.5" stroke="black" d="M 127 305 408 236"/>
<path stroke-width="0.5" stroke="black" d="M 127 305 154 24"/>
<path stroke-width="0.5" stroke="black" d="M 127 305 317 111"/>
<path stroke-width="0.5" stroke="black" d="M 127 305 184 61"/>
<path stroke-width="0.5" stroke="black" d="M 317 111 84 117"/>
<path stroke-width="0.5" stroke="black" d="M 192 185 20 141"/>
<path stroke-width="8.857142857142858" stroke="black" d="M 192 185 78 68"/>
<path stroke-width="0.5" stroke="black" d="M 192 185 420 136"/>
<path stroke-width="0.5" stroke="black" d="M 271 20 68 180"/>
<path stroke-width="0.5" stroke="black" d="M 271 20 325 272"/>
<path stroke-width="0.5" stroke="black" d="M 271 20 229 294"/>
<path stroke-width="11.642857142857142" stroke="black" d="M 271 20 227 161"/>
<path stroke-width="0.5" stroke="black" d="M 68 180 328 285"/>
<path stroke-width="0.5" stroke="black" d="M 68 180 408 236"/>
<path stroke-width="0.5" stroke="black" d="M 68 180 154 24"/>
<path stroke-width="0.5" stroke="black" d="M 68 180 317 111"/>
<path stroke-width="8.857142857142858" stroke="black" d="M 68 180 127 305"/>
<path stroke-width="0.5" stroke="black" d="M 68 180 184 61"/>
<path stroke-width="0.5" stroke="black" d="M 68 180 51 261"/>
<path stroke-width="0.5" stroke="black" d="M 68 180 369 61"/>
<path stroke-width="0.5" stroke="black" d="M 68 180 119 243"/>
<path stroke-width="0.5" stroke="black" d="M 68 180 406 160"/>
<path stroke-width="0.5" stroke="black" d="M 68 180 20 141"/>
<path stroke-width="0.5" stroke="black" d="M 68 180 192 185"/>
<path stroke-width="0.5" stroke="black" d="M 68 180 78 68"/>
<path stroke-width="0.5" stroke="black" d="M 68 180 420 136"/>
<path stroke-width="0.5" stroke="black" d="M 68 180 84 117"/>
<path stroke-width="0.5" stroke="black" d="M 68 180 271 40"/>
<path stroke-width="0.5" stroke="black" d="M 68 180 308 183"/>
<path stroke-width="0.5" stroke="black" d="M 68 180 217 320"/>
<path stroke-width="0.5" stroke="black" d="M 68 180 271 20"/>
<path stroke-width="0.5" stroke="black" d="M 68 180 325 272"/>
<path stroke-width="0.5" stroke="black" d="M 68 180 229 294"/>
<path stroke-width="11.642857142857142" stroke="black" d="M 68 180 227 161"/>
<path stroke-width="0.5" stroke="black" d="M 325 272 328 285"/>
<path stroke-width="0.5" stroke="black" d="M 271 20 217 320"/>
<path stroke-width="0.5" stroke="black" d="M 271 20 308 183"/>
<path stroke-width="0.5" stroke="black" d="M 271 20 271 40"/>
<path stroke-width="0.5" stroke="black" d="M 271 20 84 117"/>
<path stroke-width="0.5" stroke="black" d="M 217 320 119 243"/>
<path stroke-width="0.5" stroke="black" d="M 217 320 406 160"/>
<path stroke-width="0.5" stroke="black" d="M 217 320 20 141"/>
<path stroke-width="0.5" stroke="black" d="M 217 320 192 185"/>
<path stroke-width="0.5" stroke="black" d="M 217 320 78 68"/>
<path stroke-width="0.5" stroke="black" d="M 217 320 420 136"/>
<path stroke-width="0.5" stroke="black" d="M 217 320 84 117"/>
<path stroke-width="0.5" stroke="black" d="M 217 320 271 40"/>
<path stroke-width="0.5" stroke="black" d="M 217 320 308 183"/>
<path stroke-width="0.5" stroke="black" d="M 217 320 271 20"/>
<path stroke-width="0.5" stroke="black" d="M 217 320 68 180"/>
<path stroke-width="0.5" stroke="black" d="M 217 320 325 272"/>
<path stroke-width="0.5" stroke="black" d="M 217 320 229 294"/>
<path stroke-width="0.5" stroke="black" d="M 325 272 408 236"/>
<path stroke-width="11.642857142857142" stroke="black" d="M 217 320 227 161"/>
<path stroke-width="0.5" stroke="black" d="M 271 20 408 236"/>
<path stroke-width="0.5" stroke="black" d="M 271 20 154 24"/>
<path stroke-width="0.5" stroke="black" d="M 271 20 317 111"/>
<path stroke-width="0.5" stroke="black" d="M 271 20 127 305"/>
<path stroke-width="8.857142857142858" stroke="black" d="M 271 20 184 61"/>
<path stroke-width="0.5" stroke="black" d="M 271 20 51 261"/>
<path stroke-width="0.5" stroke="black" d="M 271 20 369 61"/>
<path stroke-width="0.5" stroke="black" d="M 271 20 119 243"/>
<path stroke-width="0.5" stroke="black" d="M 271 20 406 160"/>
<path stroke-width="0.5" stroke="black" d="M 271 20 20 141"/>
<path stroke-width="0.5" stroke="black" d="M 271 20 192 185"/>
<path stroke-width="0.5" stroke="black" d="M 271 20 78 68"/>
<path stroke-width="0.5" stroke="black" d="M 271 20 420 136"/>
<path stroke-width="0.5" stroke="black" d="M 271 20 328 285"/>
<path stroke-width="0.5" stroke="black" d="M 325 272 154 24"/>
<path stroke-width="8.857142857142858" stroke="black" d="M 325 272 317 111"/>
<path stroke-width="0.5" stroke="black" d="M 325 272 127 305"/>
<path stroke-width="0.5" stroke="black" d="M 229 294 271 40"/>
<path stroke-width="0.5" stroke="black" d="M 229 294 308 183"/>
<path stroke-width="0.5" stroke="black" d="M 229 294 217 320"/>
<path stroke-width="0.5" stroke="black" d="M 229 294 271 20"/>
<path stroke-width="0.5" stroke="black" d="M 229 294 68 180"/>
<path stroke-width="0.5" stroke="black" d="M 229 294 325 272"/>
<path stroke-width="20.0" stroke="black" d="M 229 294 227 161"/>
<path stroke-width="11.642857142857142" stroke="black" d="M 227 161 328 285"/>
<path stroke-width="11.642857142857142" stroke="black" d="M 227 161 408 236"/>
<path stroke-width="20.0" stroke="black" d="M 227 161 154 24"/>
<path stroke-width="11.642857142857142" stroke="black" d="M 227 161 317 111"/>
<path stroke-width="11.642857142857142" stroke="black" d="M 227 161 127 305"/>
<path stroke-width="11.642857142857142" stroke="black" d="M 227 161 184 61"/>
<path stroke-width="0.5" stroke="black" d="M 229 294 84 117"/>
<path stroke-width="11.642857142857142" stroke="black" d="M 227 161 51 261"/>
<path stroke-width="11.642857142857142" stroke="black" d="M 227 161 119 243"/>
<path stroke-width="11.642857142857142" stroke="black" d="M 227 161 406 160"/>
<path stroke-width="11.642857142857142" stroke="black" d="M 227 161 20 141"/>
<path stroke-width="11.642857142857142" stroke="black" d="M 227 161 192 185"/>
<path stroke-width="11.642857142857142" stroke="black" d="M 227 161 78 68"/>
<path stroke-width="11.642857142857142" stroke="black" d="M 227 161 420 136"/>
<path stroke-width="11.642857142857142" stroke="black" d="M 227 161 84 117"/>
<path stroke-width="11.642857142857142" stroke="black" d="M 227 161 271 40"/>
<path stroke-width="11.642857142857142" stroke="black" d="M 227 161 308 183"/>
<path stroke-width="11.642857142857142" stroke="black" d="M 227 161 217 320"/>
<path stroke-width="11.642857142857142" stroke="black" d="M 227 161 271 20"/>
<path stroke-width="11.642857142857142" stroke="black" d="M 227 161 68 180"/>
<path stroke-width="11.642857142857142" stroke="black" d="M 227 161 325 272"/>
<path stroke-width="11.642857142857142" stroke="black" d="M 227 161 369 61"/>
<path stroke-width="0.5" stroke="black" d="M 217 320 369 61"/>
<path stroke-width="0.5" stroke="black" d="M 229 294 420 136"/>
<path stroke-width="0.5" stroke="black" d="M 229 294 192 185"/>
<path stroke-width="0.5" stroke="black" d="M 325 272 184 61"/>
<path stroke-width="0.5" stroke="black" d="M 325 272 51 261"/>
<path stroke-width="0.5" stroke="black" d="M 325 272 369 61"/>
<path stroke-width="0.5" stroke="black" d="M 325 272 119 243"/>
<path stroke-width="0.5" stroke="black" d="M 325 272 406 160"/>
<path stroke-width="0.5" stroke="black" d="M 325 272 20 141"/>
<path stroke-width="0.5" stroke="black" d="M 325 272 192 185"/>
<path stroke-width="0.5" stroke="black" d="M 325 272 78 68"/>
<path stroke-width="0.5" stroke="black" d="M 325 272 420 136"/>
<path stroke-width="0.5" stroke="black" d="M 325 272 84 117"/>
<path stroke-width="0.5" stroke="black" d="M 325 272 271 40"/>
<path stroke-width="0.5" stroke="black" d="M 325 272 308 183"/>
<path stroke-width="0.5" stroke="black" d="M 325 272 217 320"/>
<path stroke-width="0.5" stroke="black" d="M 229 294 78 68"/>
<path stroke-width="0.5" stroke="black" d="M 325 272 271 20"/>
<path stroke-width="0.5" stroke="black" d="M 325 272 229 294"/>
<path stroke-width="11.642857142857142" stroke="black" d="M 325 272 227 161"/>
<path stroke-width="0.5" stroke="black" d="M 229 294 328 285"/>
<path stroke-width="0.5" stroke="black" d="M 229 294 408 236"/>
<path stroke-width="0.5" stroke="black" d="M 229 294 154 24"/>
<path stroke-width="0.5" stroke="black" d="M 229 294 317 111"/>
<path stroke-width="0.5" stroke="black" d="M 229 294 127 305"/>
<path stroke-width="0.5" stroke="black" d="M 229 294 184 61"/>
<path stroke-width="0.5" stroke="black" d="M 229 294 51 261"/>
<path stroke-width="0.5" stroke="black" d="M 229 294 369 61"/>
<path stroke-width="0.5" stroke="black" d="M 229 294 119 243"/>
<path stroke-width="0.5" stroke="black" d="M 229 294 406 160"/>
<path stroke-width="0.5" stroke="black" d="M 229 294 20 141"/>
<path stroke-width="0.5" stroke="black" d="M 325 272 68 180"/>
<path stroke-width="0.5" stroke="black" d="M 328 285 154 24"/>
<path stroke-width="8.857142857142858" stroke="black" d="M 217 320 51 261"/>
<path stroke-width="0.5" stroke="black" d="M 217 320 127 305"/>
<path stroke-width="8.857142857142858" stroke="black" d="M 420 136 408 236"/>
<path stroke-width="0.5" stroke="black" d="M 420 136 154 24"/>
<path stroke-width="0.5" stroke="black" d="M 420 136 317 111"/>
<path stroke-width="0.5" stroke="black" d="M 420 136 127 305"/>
<path stroke-width="0.5" stroke="black" d="M 420 136 184 61"/>
<path stroke-width="0.5" stroke="black" d="M 420 136 51 261"/>
<path stroke-width="0.5" stroke="black" d="M 420 136 369 61"/>
<path stroke-width="0.5" stroke="black" d="M 420 136 119 243"/>
<path stroke-width="0.5" stroke="black" d="M 420 136 406 160"/>
<path stroke-width="0.5" stroke="black" d="M 420 136 20 141"/>
<path stroke-width="0.5" stroke="black" d="M 420 136 192 185"/>
<path stroke-width="0.5" stroke="black" d="M 420 136 78 68"/>
<path stroke-width="0.5" stroke="black" d="M 420 136 84 117"/>
<path stroke-width="0.5" stroke="black" d="M 420 136 271 40"/>
<path stroke-width="0.5" stroke="black" d="M 420 136 308 183"/>
<path stroke-width="0.5" stroke="black" d="M 420 136 217 320"/>
<path stroke-width="0.5" stroke="black" d="M 420 136 271 20"/>
<path stroke-width="0.5" stroke="black" d="M 420 136 68 180"/>
<path stroke-width="0.5" stroke="black" d="M 420 136 325 272"/>
<path stroke-width="0.5" stroke="black" d="M 420 136 229 294"/>
<path stroke-width="11.642857142857142" stroke="black" d="M 420 136 227 161"/>
<path stroke-width="0.5" stroke="black" d="M 84 117 328 285"/>
<path stroke-width="0.5" stroke="black" d="M 84 117 408 236"/>
<path stroke-width="0.5" stroke="black" d="M 84 117 154 24"/>
<path stroke-width="0.5" stroke="black" d="M 84 117 317 111"/>
<path stroke-width="0.5" stroke="black" d="M 84 117 127 305"/>
<path stroke-width="0.5" stroke="black" d="M 84 117 184 61"/>
<path stroke-width="0.5" stroke="black" d="M 420 136 328 285"/>
<path stroke-width="11.642857142857142" stroke="black" d="M 78 68 227 161"/>
<path stroke-width="0.5" stroke="black" d="M 78 68 229 294"/>
<path stroke-width="0.5" stroke="black" d="M 78 68 325 272"/>
<path stroke-width="0.5" stroke="black" d="M 192 185 84 117"/>
<path stroke-width="0.5" stroke="black" d="M 192 185 271 40"/>
<path stroke-width="0.5" stroke="black" d="M 192 185 308 183"/>
<path stroke-width="0.5" stroke="black" d="M 192 185 217 320"/>
<path stroke-width="0.5" stroke="black" d="M 192 185 271 20"/>
<path stroke-width="0.5" stroke="black" d="M 192 185 68 180"/>
<path stroke-width="0.5" stroke="black" d="M 192 185 325 272"/>
<path stroke-width="0.5" stroke="black" d="M 192 185 229 294"/>
<path stroke-width="11.642857142857142" stroke="black" d="M 192 185 227 161"/>
<path stroke-width="0.5" stroke="black" d="M 78 68 328 285"/>
<path stroke-width="0.5" stroke="black" d="M 78 68 408 236"/>
<path stroke-width="0.5" stroke="black" d="M 78 68 154 24"/>
<path stroke-width="0.5" stroke="black" d="M 78 68 317 111"/>
<path stroke-width="0.5" stroke="black" d="M 84 117 51 261"/>
<path stroke-width="0.5" stroke="black" d="M 78 68 127 305"/>
<path stroke-width="0.5" stroke="black" d="M 78 68 51 261"/>
<path stroke-width="0.5" stroke="black" d="M 78 68 369 61"/>
<path stroke-width="0.5" stroke="black" d="M 78 68 119 243"/>
<path stroke-width="0.5" stroke="black" d="M 78 68 406 160"/>
<path stroke-width="0.5" stroke="black" d="M 78 68 20 141"/>
<path stroke-width="8.857142857142858" stroke="black" d="M 78 68 192 185"/>
<path stroke-width="0.5" stroke="black" d="M 78 68 420 136"/>
<path stroke-width="0.5" stroke="black" d="M 78 68 84 117"/>
<path stroke-width="0.5" stroke="black" d="M 78 68 271 40"/>
<path stroke-width="0.5" stroke="black" d="M 78 68 308 183"/>
<path stroke-width="0.5" stroke="black" d="M 78 68 217 320"/>
<path stroke-width="0.5" stroke="black" d="M 78 68 271 20"/>
<path stroke-width="0.5" stroke="black" d="M 78 68 68 180"/>
<path stroke-width="0.5" stroke="black" d="M 78 68 184 61"/>
<path stroke-width="0.5" stroke="black" d="M 84 117 369 61"/>
<path stroke-width="0.5" stroke="black" d="M 84 117 119 243"/>
<path stroke-width="0.5" stroke="black" d="M 84 117 406 160"/>
<path stroke-width="0.5" stroke="black" d="M 271 40 229 294"/>
<path stroke-width="11.642857142857142" stroke="black" d="M 271 40 227 161"/>
<path stroke-width="0.5" stroke="black" d="M 308 183 328 285"/>
<path stroke-width="0.5" stroke="black" d="M 308 183 408 236"/>
<path stroke-width="0.5" stroke="black" d="M 308 183 154 24"/>
<path stroke-width="0.5" stroke="black" d="M 308 183 317 111"/>
<path stroke-width="0.5" stroke="black" d="M 308 183 127 305"/>
<path stroke-width="0.5" stroke="black" d="M 308 183 184 61"/>
<path stroke-width="0.5" stroke="black" d="M 308 183 51 261"/>
<path stroke-width="8.857142857142858" stroke="black" d="M 308 183 369 61"/>
<path stroke-width="0.5" stroke="black" d="M 308 183 119 243"/>
<path stroke-width="0.5" stroke="black" d="M 308 183 406 160"/>
<path stroke-width="0.5" stroke="black" d="M 308 183 20 141"/>
<path stroke-width="0.5" stroke="black" d="M 271 40 325 272"/>
<path stroke-width="0.5" stroke="black" d="M 308 183 192 185"/>
<path stroke-width="0.5" stroke="black" d="M 308 183 420 136"/>
<path stroke-width="0.5" stroke="black" d="M 308 183 84 117"/>
<path stroke-width="0.5" stroke="black" d="M 308 183 271 40"/>
<path stroke-width="0.5" stroke="black" d="M 308 183 217 320"/>
<path stroke-width="0.5" stroke="black" d="M 308 183 271 20"/>
<path stroke-width="0.5" stroke="black" d="M 308 183 68 180"/>
<path stroke-width="0.5" stroke="black" d="M 308 183 325 272"/>
<path stroke-width="0.5" stroke="black" d="M 308 183 229 294"/>
<path stroke-width="11.642857142857142" stroke="black" d="M 308 183 227 161"/>
<path stroke-width="0.5" stroke="black" d="M 217 320 328 285"/>
<path stroke-width="0.5" stroke="black" d="M 217 320 408 236"/>
<path stroke-width="0.5" stroke="black" d="M 217 320 154 24"/>
<path stroke-width="0.5" stroke="black" d="M 217 320 317 111"/>
<path stroke-width="0.5" stroke="black" d="M 308 183 78 68"/>
<path stroke-width="0.5" stroke="black" d="M 217 320 184 61"/>
<path stroke-width="0.5" stroke="black" d="M 271 40 68 180"/>
<path stroke-width="0.5" stroke="black" d="M 271 40 217 320"/>
<path stroke-width="8.857142857142858" stroke="black" d="M 84 117 20 141"/>
<path stroke-width="0.5" stroke="black" d="M 84 117 192 185"/>
<path stroke-width="0.5" stroke="black" d="M 84 117 78 68"/>
<path stroke-width="0.5" stroke="black" d="M 84 117 420 136"/>
<path stroke-width="0.5" stroke="black" d="M 84 117 271 40"/>
<path stroke-width="0.5" stroke="black" d="M 84 117 308 183"/>
<path stroke-width="0.5" stroke="black" d="M 84 117 217 320"/>
<path stroke-width="0.5" stroke="black" d="M 84 117 271 20"/>
<path stroke-width="0.5" stroke="black" d="M 84 117 68 180"/>
<path stroke-width="0.5" stroke="black" d="M 84 117 325 272"/>
<path stroke-width="0.5" stroke="black" d="M 84 117 229 294"/>
<path stroke-width="11.642857142857142" stroke="black" d="M 84 117 227 161"/>
<path stroke-width="0.5" stroke="black" d="M 271 40 328 285"/>
<path stroke-width="0.5" stroke="black" d="M 271 40 271 20"/>
<path stroke-width="0.5" stroke="black" d="M 271 40 408 236"/>
<path stroke-width="0.5" stroke="black" d="M 271 40 317 111"/>
<path stroke-width="0.5" stroke="black" d="M 271 40 127 305"/>
<path stroke-width="0.5" stroke="black" d="M 271 40 184 61"/>
<path stroke-width="0.5" stroke="black" d="M 271 40 51 261"/>
<path stroke-width="0.5" stroke="black" d="M 271 40 369 61"/>
<path stroke-width="0.5" stroke="black" d="M 271 40 119 243"/>
<path stroke-width="8.857142857142858" stroke="black" d="M 271 40 406 160"/>
<path stroke-width="0.5" stroke="black" d="M 271 40 20 141"/>
<path stroke-width="0.5" stroke="black" d="M 271 40 192 185"/>
<path stroke-width="0.5" stroke="black" d="M 271 40 78 68"/>
<path stroke-width="0.5" stroke="black" d="M 271 40 420 136"/>
<path stroke-width="0.5" stroke="black" d="M 271 40 84 117"/>
<path stroke-width="0.5" stroke="black" d="M 271 40 308 183"/>
<path stroke-width="0.5" stroke="black" d="M 271 40 154 24"/>
<path stroke-width="0.5" stroke="black" d="M 328 285 408 236"/>
<circle cx="227" cy="161" r="7.0" style="fill:gray;stroke:black;stroke-width:1.0"/>
<circle cx="229" cy="294" r="7.0" style="fill:gray;stroke:black;stroke-width:1.0"/>
<circle cx="325" cy="272" r="7.0" style="fill:gray;stroke:black;stroke-width:1.0"/>
<circle cx="68" cy="180" r="7.0" style="fill:gray;stroke:black;stroke-width:1.0"/>
<circle cx="271" cy="20" r="7.0" style="fill:gray;stroke:black;stroke-width:1.0"/>
<circle cx="217" cy="320" r="7.0" style="fill:gray;stroke:black;stroke-width:1.0"/>
<circle cx="308" cy="183" r="7.0" style="fill:gray;stroke:black;stroke-width:1.0"/>
<circle cx="271" cy="40" r="7.0" style="fill:gray;stroke:black;stroke-width:1.0"/>
<circle cx="84" cy="117" r="7.0" style="fill:gray;stroke:black;stroke-width:1.0"/>
<circle cx="420" cy="136" r="7.0" style="fill:gray;stroke:black;stroke-width:1.0"/>
<circle cx="78" cy="68" r="7.0" style="fill:gray;stroke:black;stroke-width:1.0"/>
<circle cx="192" cy="185" r="7.0" style="fill:gray;stroke:black;stroke-width:1.0"/>
<circle cx="20" cy="141" r="7.0" style="fill:gray;stroke:black;stroke-width:1.0"/>
<circle cx="406" cy="160" r="7.0" style="fill:gray;stroke:black;stroke-width:1.0"/>
<circle cx="119" cy="243" r="7.0" style="fill:gray;stroke:black;stroke-width:1.0"/>
<circle cx="369" cy="61" r="7.0" style="fill:gray;stroke:black;stroke-width:1.0"/>
<circle cx="51" cy="261" r="7.0" style="fill:gray;stroke:black;stroke-width:1.0"/>
<circle cx="184" cy="61" r="7.0" style="fill:gray;stroke:black;stroke-width:1.0"/>
<circle cx="127" cy="305" r="7.0" style="fill:gray;stroke:black;stroke-width:1.0"/>
<circle cx="317" cy="111" r="7.0" style="fill:gray;stroke:black;stroke-width:1.0"/>
<circle cx="154" cy="24" r="7.0" style="fill:gray;stroke:black;stroke-width:1.0"/>
<circle cx="408" cy="236" r="7.0" style="fill:gray;stroke:black;stroke-width:1.0"/>
<circle cx="328" cy="285" r="7.0" style="fill:gray;stroke:black;stroke-width:1.0"/>
</svg>
