<svg width="440" height="340" xmlns="http://www.w3.org/2000/svg">
<path stroke-width="20.0" stroke="black" d="M 234 178 420 180"/>
<path stroke-width="0.5" stroke="black" d="M 294 54 362 273"/>
<path stroke-width="0.5" stroke="black" d="M 294 54 41 126"/>
<path stroke-width="0.5" stroke="black" d="M 294 54 67 251"/>
<path stroke-width="0.5" stroke="black" d="M 294 54 49 113"/>
<path stroke-width="0.5" stroke="black" d="M 294 54 103 48"/>
<path stroke-width="0.5" stroke="black" d="M 294 54 389 113"/>
<path stroke-width="0.5" stroke="black" d="M 294 54 282 139"/>
<path stroke-width="0.5" stroke="black" d="M 294 54 20 201"/>
<path stroke-width="8.857142857142858" stroke="black" d="M 294 54 125 188"/>
<path stroke-width="0.5" stroke="black" d="M 294 54 165 294"/>
<path stroke-width="0.5" stroke="black" d="M 294 54 219 20"/>
<path stroke-width="0.5" stroke="black" d="M 294 54 140 273"/>
<path stroke-width="0.5" stroke="black" d="M 294 54 270 274"/>
<path stroke-width="0.5" stroke="black" d="M 294 54 420 180"/>
<path stroke-width="11.642857142857142" stroke="black" d="M 294 54 234 178"/>
<path stroke-width="8.857142857142858" stroke="black" d="M 362 273 256 320"/>
<path stroke-width="0.5" stroke="black" d="M 362 273 167 128"/>
<path stroke-width="0.5" stroke="black" d="M 362 273 268 238"/>
<path stroke-width="0.5" stroke="black" d="M 362 273 379 247"/>
<path stroke-width="0.5" stroke="black" d="M 362 273 181 76"/>
<path stroke-width="0.5" stroke="black" d="M 362 273 348 53"/>
<path stroke-width="0.5" stroke="black" d="M 362 273 382 159"/>
<path stroke-width="0.5" stroke="black" d="M 362 273 294 54"/>
<path stroke-width="0.5" stroke="black" d="M 362 273 41 126"/>
<path stroke-width="0.5" stroke="black" d="M 362 273 67 251"/>
<path stroke-width="0.5" stroke="black" d="M 362 273 49 113"/>
<path stroke-width="0.5" stroke="black" d="M 362 273 103 48"/>
<path stroke-width="0.5" stroke="black" d="M 294 54 382 159"/>
<path stroke-width="0.5" stroke="black" d="M 294 54 348 53"/>
<path stroke-width="0.5" stroke="black" d="M 294 54 181 76"/>
<path stroke-width="0.5" stroke="black" d="M 294 54 379 247"/>
<path stroke-width="0.5" stroke="black" d="M 348 53 270 274"/>
<path stroke-width="0.5" stroke="black" d="M 348 53 420 180"/>
<path stroke-width="11.642857142857142" stroke="black" d="M 348 53 234 178"/>
<path stroke-width="0.5" stroke="black" d="M 382 159 256 320"/>
<path stroke-width="0.5" stroke="black" d="M 382 159 167 128"/>
<path stroke-width="0.5" stroke="black" d="M 382 159 268 238"/>
<path stroke-width="0.5" stroke="black" d="M 382 159 379 247"/>
<path stroke-width="0.5" stroke="black" d="M 382 159 181 76"/>
<path stroke-width="0.5" stroke="black" d="M 382 159 348 53"/>
<path stroke-width="0.5" stroke="black" d="M 382 159 294 54"/>
<path stroke-width="0.5" stroke="black" d="M 382 159 362 273"/>
<path stroke-width="0.5" stroke="black" d="M 382 159 41 126"/>
<path stroke-width="0.5" stroke="black" d="M 382 159 67 251"/>
<path stroke-width="0.5" stroke="black" d="M 362 273 389 113"/>
<path stroke-width="0.5" stroke="black" d="M 382 159 49 113"/>
<path stroke-width="0.5" stroke="black" d="M 382 159 389 113"/>
<path stroke-width="0.5" stroke="black" d="M 382 159 282 139"/>
<path stroke-width="0.5" stroke="black" d="M 382 159 20 201"/>
<path stroke-width="0.5" stroke="black" d="M 382 159 125 188"/>
<path stroke-width="8.857142857142858" stroke="black" d="M 382 159 165 294"/>
<path stroke-width="0.5" stroke="black" d="M 382 159 219 20"/>
<path stroke-width="0.5" stroke="black" d="M 382 159 140 273"/>
<path stroke-width="0.5" stroke="black" d="M 382 159 270 274"/>
<path stroke-width="0.5" stroke="black" d="M 382 159 420 180"/>
<path stroke-width="11.642857142857142" stroke="black" d="M 382 159 234 178"/>
<path stroke-width="0.5" stroke="black" d="M 294 54 256 320"/>
<path stroke-width="0.5" stroke="black" d="M 294 54 167 128"/>
<path stroke-width="0.5" stroke="black" d="M 294 54 268 238"/>
<path stroke-width="0.5" stroke="black" d="M 382 159 103 48"/>
<path stroke-width="0.5" stroke="black" d="M 348 53 140 273"/>
<path stroke-width="0.5" stroke="black" d="M 362 273 282 139"/>
<path stroke-width="0.5" stroke="black" d="M 362 273 125 188"/>
<path stroke-width="0.5" stroke="black" d="M 67 251 181 76"/>
<path stroke-width="0.5" stroke="black" d="M 67 251 348 53"/>
<path stroke-width="0.5" stroke="black" d="M 67 251 382 159"/>
<path stroke-width="0.5" stroke="black" d="M 67 251 294 54"/>
<path stroke-width="0.5" stroke="black" d="M 67 251 362 273"/>
<path stroke-width="0.5" stroke="black" d="M 67 251 41 126"/>
<path stroke-width="0.5" stroke="black" d="M 67 251 49 113"/>
<path stroke-width="0.5" stroke="black" d="M 67 251 103 48"/>
<path stroke-width="0.5" stroke="black" d="M 67 251 389 113"/>
<path stroke-width="8.857142857142858" stroke="black" d="M 67 251 282 139"/>
<path stroke-width="0.5" stroke="black" d="M 67 251 20 201"/>
<path stroke-width="0.5" stroke="black" d="M 67 251 125 188"/>
<path stroke-width="0.5" stroke="black" d="M 67 251 165 294"/>
<path stroke-width="0.5" stroke="black" d="M 67 251 219 20"/>
<path stroke-width="0.5" stroke="black" d="M 67 251 140 273"/>
<path stroke-width="0.5" stroke="black" d="M 67 251 270 274"/>
<path stroke-width="0.5" stroke="black" d="M 67 251 420 180"/>
<path stroke-width="11.642857142857142" stroke="black" d="M 67 251 234 178"/>
<path stroke-width="0.5" stroke="black" d="M 49 113 256 320"/>
<path stroke-width="0.5" stroke="black" d="M 49 113 167 128"/>
<path stroke-width="0.5" stroke="black" d="M 49 113 268 238"/>
<path stroke-width="0.5" stroke="black" d="M 49 113 379 247"/>
<path stroke-width="0.5" stroke="black" d="M 49 113 181 76"/>
<path stroke-width="0.5" stroke="black" d="M 49 113 348 53"/>
<path stroke-width="0.5" stroke="black" d="M 49 113 382 159"/>
<path stroke-width="0.5" stroke="black" d="M 49 113 294 54"/>
<path stroke-width="0.5" stroke="black" d="M 49 113 362 273"/>
<path stroke-width="0.5" stroke="black" d="M 67 251 379 247"/>
<path stroke-width="0.5" stroke="black" d="M 67 251 268 238"/>
<path stroke-width="0.5" stroke="black" d="M 67 251 167 128"/>
<path stroke-width="0.5" stroke="black" d="M 67 251 256 320"/>
<path stroke-width="0.5" stroke="black" d="M 362 273 165 294"/>
<path stroke-width="0.5" stroke="black" d="M 362 273 219 20"/>
<path stroke-width="0.5" stroke="black" d="M 362 273 140 273"/>
<path stroke-width="0.5" stroke="black" d="M 362 273 270 274"/>
<path stroke-width="0.5" stroke="black" d="M 362 273 420 180"/>
<path stroke-width="11.642857142857142" stroke="black" d="M 362 273 234 178"/>
<path stroke-width="0.5" stroke="black" d="M 41 126 256 320"/>
<path stroke-width="0.5" stroke="black" d="M 41 126 167 128"/>
<path stroke-width="0.5" stroke="black" d="M 41 126 268 238"/>
<path stroke-width="0.5" stroke="black" d="M 41 126 379 247"/>
<path stroke-width="0.5" stroke="black" d="M 41 126 181 76"/>
<path stroke-width="0.5" stroke="black" d="M 41 126 348 53"/>
<path stroke-width="0.5" stroke="black" d="M 41 126 382 159"/>
<path stroke-width="0.5" stroke="black" d="M 362 273 20 201"/>
<path stroke-width="0.5" stroke="black" d="M 41 126 294 54"/>
<path stroke-width="0.5" stroke="black" d="M 41 126 67 251"/>
<path stroke-width="0.5" stroke="black" d="M 41 126 49 113"/>
<path stroke-width="0.5" stroke="black" d="M 41 126 103 48"/>
<path stroke-width="0.5" stroke="black" d="M 41 126 389 113"/>
<path stroke-width="0.5" stroke="black" d="M 41 126 282 139"/>
<path stroke-width="8.857142857142858" stroke="black" d="M 41 126 20 201"/>
<path stroke-width="0.5" stroke="black" d="M 41 126 125 188"/>
<path stroke-width="0.5" stroke="black" d="M 41 126 165 294"/>
<path stroke-width="0.5" stroke="black" d="M 41 126 219 20"/>
<path stroke-width="0.5" stroke="black" d="M 41 126 140 273"/>
<path stroke-width="0.5" stroke="black" d="M 41 126 270 274"/>
<path stroke-width="0.5" stroke="black" d="M 41 126 420 180"/>
<path stroke-width="11.642857142857142" stroke="black" d="M 41 126 234 178"/>
<path stroke-width="0.5" stroke="black" d="M 41 126 362 273"/>
<path stroke-width="8.857142857142858" stroke="black" d="M 348 53 219 20"/>
<path stroke-width="0.5" stroke="black" d="M 348 53 165 294"/>
<path stroke-width="0.5" stroke="black" d="M 348 53 125 188"/>
<path stroke-width="8.857142857142858" stroke="black" d="M 167 128 389 113"/>
<path stroke-width="0.5" stroke="black" d="M 167 128 282 139"/>
<path stroke-width="0.5" stroke="black" d="M 167 128 20 201"/>
<path stroke-width="0.5" stroke="black" d="M 167 128 125 188"/>
<path stroke-width="0.5" stroke="black" d="M 167 128 165 294"/>
<path stroke-width="0.5" stroke="black" d="M 167 128 219 20"/>
<path stroke-width="0.5" stroke="black" d="M 167 128 140 273"/>
<path stroke-width="0.5" stroke="black" d="M 167 128 270 274"/>
<path stroke-width="0.5" stroke="black" d="M 167 128 420 180"/>
<path stroke-width="11.642857142857142" stroke="black" d="M 167 128 234 178"/>
<path stroke-width="0.5" stroke="black" d="M 268 238 256 320"/>
<path stroke-width="0.5" stroke="black" d="M 268 238 167 128"/>
<path stroke-width="0.5" stroke="black" d="M 268 238 379 247"/>
<path stroke-width="0.5" stroke="black" d="M 268 238 181 76"/>
<path stroke-width="0.5" stroke="black" d="M 268 238 348 53"/>
<path stroke-width="0.5" stroke="black" d="M 268 238 382 159"/>
<path stroke-width="0.5" stroke="black" d="M 268 238 294 54"/>
<path stroke-width="0.5" stroke="black" d="M 268 238 362 273"/>
<path stroke-width="0.5" stroke="black" d="M 268 238 41 126"/>
<path stroke-width="0.5" stroke="black" d="M 268 238 67 251"/>
<path stroke-width="0.5" stroke="black" d="M 268 238 49 113"/>
<path stroke-width="0.5" stroke="black" d="M 268 238 103 48"/>
<path stroke-width="0.5" stroke="black" d="M 268 238 389 113"/>
<path stroke-width="0.5" stroke="black" d="M 268 238 282 139"/>
<path stroke-width="0.5" stroke="black" d="M 268 238 20 201"/>
<path stroke-width="0.5" stroke="black" d="M 268 238 125 188"/>
<path stroke-width="0.5" stroke="black" d="M 268 238 165 294"/>
<path stroke-width="0.5" stroke="black" d="M 167 128 103 48"/>
<path stroke-width="0.5" stroke="black" d="M 167 128 49 113"/>
<path stroke-width="0.5" stroke="black" d="M 167 128 67 251"/>
<path stroke-width="0.5" stroke="black" d="M 167 128 41 126"/>
<path stroke-width="0.5" stroke="black" d="M 256 320 379 247"/>
<path stroke-width="0.5" stroke="black" d="M 256 320 181 76"/>
<path stroke-width="0.5" stroke="black" d="M 256 320 348 53"/>
<path stroke-width="0.5" stroke="black" d="M 256 320 382 159"/>
<path stroke-width="0.5" stroke="black" d="M 256 320 294 54"/>
<path stroke-width="8.857142857142858" stroke="black" d="M 256 320 362 273"/>
<path stroke-width="0.5" stroke="black" d="M 256 320 41 126"/>
<path stroke-width="0.5" stroke="black" d="M 256 320 67 251"/>
<path stroke-width="0.5" stroke="black" d="M 256 320 49 113"/>
<path stroke-width="0.5" stroke="black" d="M 256 320 103 48"/>
<path stroke-width="0.5" stroke="black" d="M 256 320 389 113"/>
<path stroke-width="0.5" stroke="black" d="M 256 320 282 139"/>
<path stroke-width="0.5" stroke="black" d="M 256 320 20 201"/>
<path stroke-width="0.5" stroke="black" d="M 268 238 219 20"/>
<path stroke-width="0.5" stroke="black" d="M 256 320 125 188"/>
<path stroke-width="0.5" stroke="black" d="M 256 320 219 20"/>
<path stroke-width="0.5" stroke="black" d="M 256 320 140 273"/>
<path stroke-width="0.5" stroke="black" d="M 256 320 270 274"/>
<path stroke-width="0.5" stroke="black" d="M 256 320 420 180"/>
<path stroke-width="11.642857142857142" stroke="black" d="M 256 320 234 178"/>
<path stroke-width="0.5" stroke="black" d="M 167 128 256 320"/>
<path stroke-width="0.5" stroke="black" d="M 167 128 268 238"/>
<path stroke-width="0.5" stroke="black" d="M 167 128 379 247"/>
<path stroke-width="0.5" stroke="black" d="M 167 128 181 76"/>
<path stroke-width="0.5" stroke="black" d="M 167 128 348 53"/>
<path stroke-width="0.5" stroke="black" d="M 167 128 382 159"/>
<path stroke-width="0.5" stroke="black" d="M 167 128 294 54"/>
<path stroke-width="0.5" stroke="black" d="M 167 128 362 273"/>
<path stroke-width="0.5" stroke="black" d="M 256 320 165 294"/>
<path stroke-width="0.5" stroke="black" d="M 268 238 140 273"/>
<path stroke-width="0.5" stroke="black" d="M 268 238 270 274"/>
<path stroke-width="0.5" stroke="black" d="M 268 238 420 180"/>
<path stroke-width="0.5" stroke="black" d="M 181 76 67 251"/>
<path stroke-width="0.5" stroke="black" d="M 181 76 49 113"/>
<path stroke-width="0.5" stroke="black" d="M 181 76 103 48"/>
<path stroke-width="0.5" stroke="black" d="M 181 76 389 113"/>
<path stroke-width="0.5" stroke="black" d="M 181 76 282 139"/>
<path stroke-width="0.5" stroke="black" d="M 181 76 20 201"/>
<path stroke-width="0.5" stroke="black" d="M 181 76 125 188"/>
<path stroke-width="0.5" stroke="black" d="M 181 76 165 294"/>
<path stroke-width="0.5" stroke="black" d="M 181 76 219 20"/>
<path stroke-width="8.857142857142858" stroke="black" d="M 181 76 140 273"/>
<path stroke-width="0.5" stroke="black" d="M 181 76 270 274"/>
<path stroke-width="0.5" stroke="black" d="M 181 76 420 180"/>
<path stroke-width="11.642857142857142" stroke="black" d="M 181 76 234 178"/>
<path stroke-width="0.5" stroke="black" d="M 181 76 41 126"/>
<path stroke-width="0.5" stroke="black" d="M 348 53 256 320"/>
<path stroke-width="0.5" stroke="black" d="M 348 53 268 238"/>
<path stroke-width="0.5" stroke="black" d="M 348 53 379 247"/>
<path stroke-width="0.5" stroke="black" d="M 348 53 181 76"/>
<path stroke-width="0.5" stroke="black" d="M 348 53 382 159"/>
<path stroke-width="0.5" stroke="black" d="M 348 53 294 54"/>
<path stroke-width="0.5" stroke="black" d="M 348 53 362 273"/>
<path stroke-width="0.5" stroke="black" d="M 348 53 41 126"/>
<path stroke-width="0.5" stroke="black" d="M 348 53 67 251"/>
<path stroke-width="0.5" stroke="black" d="M 348 53 49 113"/>
<path stroke-width="0.5" stroke="black" d="M 348 53 103 48"/>
<path stroke-width="0.5" stroke="black" d="M 348 53 389 113"/>
<path stroke-width="0.5" stroke="black" d="M 348 53 282 139"/>
<path stroke-width="0.5" stroke="black" d="M 348 53 20 201"/>
<path stroke-width="0.5" stroke="black" d="M 348 53 167 128"/>
<path stroke-width="0.5" stroke="black" d="M 49 113 41 126"/>
<path stroke-width="0.5" stroke="black" d="M 181 76 362 273"/>
<path stroke-width="0.5" stroke="black" d="M 181 76 382 159"/>
<path stroke-width="20.0" stroke="black" d="M 268 238 234 178"/>
<path stroke-width="0.5" stroke="black" d="M 379 247 256 320"/>
<path stroke-width="0.5" stroke="black" d="M 379 247 167 128"/>
<path stroke-width="0.5" stroke="black" d="M 379 247 268 238"/>
<path stroke-width="0.5" stroke="black" d="M 379 247 181 76"/>
<path stroke-width="0.5" stroke="black" d="M 379 247 348 53"/>
<path stroke-width="0.5" stroke="black" d="M 379 247 382 159"/>
<path stroke-width="0.5" stroke="black" d="M 379 247 294 54"/>
<path stroke-width="0.5" stroke="black" d="M 379 247 362 273"/>
<path stroke-width="0.5" stroke="black" d="M 379 247 41 126"/>
<path stroke-width="0.5" stroke="black" d="M 379 247 67 251"/>
<path stroke-width="0.5" stroke="black" d="M 379 247 49 113"/>
<path stroke-width="0.5" stroke="black" d="M 379 247 103 48"/>
<path stroke-width="0.5" stroke="black" d="M 181 76 294 54"/>
<path stroke-width="0.5" stroke="black" d="M 379 247 389 113"/>
<path stroke-width="0.5" stroke="black" d="M 379 247 20 201"/>
<path stroke-width="0.5" stroke="black" d="M 379 247 125 188"/>
<path stroke-width="0.5" stroke="black" d="M 379 247 165 294"/>
<path stroke-width="0.5" stroke="black" d="M 379 247 219 20"/>
<path stroke-width="0.5" stroke="black" d="M 379 247 140 273"/>
<path stroke-width="8.857142857142858" stroke="black" d="M 379 247 270 274"/>
<path stroke-width="0.5" stroke="black" d="M 379 247 420 180"/>
<path stroke-width="11.642857142857142" stroke="black" d="M 379 247 234 178"/>
<path stroke-width="0.5" stroke="black" d="M 181 76 256 320"/>
<path stroke-width="0.5" stroke="black" d="M 181 76 167 128"/>
<path stroke-width="0.5" stroke="black" d="M 181 76 268 238"/>
<path stroke-width="0.5" stroke="black" d="M 181 76 379 247"/>
<path stroke-width="0.5" stroke="black" d="M 181 76 348 53"/>
<path stroke-width="0.5" stroke="black" d="M 379 247 282 139"/>
<path stroke-width="0.5" stroke="black" d="M 49 113 67 251"/>
<path stroke-width="8.857142857142858" stroke="black" d="M 49 113 103 48"/>
<path stroke-width="0.5" stroke="black" d="M 49 113 389 113"/>
<path stroke-width="0.5" stroke="black" d="M 219 20 140 273"/>
<path stroke-width="0.5" stroke="black" d="M 219 20 270 274"/>
<path stroke-width="0.5" stroke="black" d="M 219 20 420 180"/>
<path stroke-width="11.642857142857142" stroke="black" d="M 219 20 234 178"/>
<path stroke-width="0.5" stroke="black" d="M 140 273 256 320"/>
<path stroke-width="0.5" stroke="black" d="M 140 273 167 128"/>
<path stroke-width="0.5" stroke="black" d="M 140 273 268 238"/>
<path stroke-width="0.5" stroke="black" d="M 140 273 379 247"/>
<path stroke-width="8.857142857142858" stroke="black" d="M 140 273 181 76"/>
<path stroke-width="0.5" stroke="black" d="M 140 273 348 53"/>
<path stroke-width="0.5" stroke="black" d="M 140 273 382 159"/>
<path stroke-width="0.5" stroke="black" d="M 140 273 294 54"/>
<path stroke-width="0.5" stroke="black" d="M 140 273 362 273"/>
<path stroke-width="0.5" stroke="black" d="M 140 273 41 126"/>
<path stroke-width="0.5" stroke="black" d="M 140 273 67 251"/>
<path stroke-width="0.5" stroke="black" d="M 140 273 49 113"/>
<path stroke-width="0.5" stroke="black" d="M 140 273 103 48"/>
<path stroke-width="0.5" stroke="black" d="M 140 273 389 113"/>
<path stroke-width="0.5" stroke="black" d="M 140 273 282 139"/>
<path stroke-width="0.5" stroke="black" d="M 140 273 20 201"/>
<path stroke-width="0.5" stroke="black" d="M 140 273 125 188"/>
<path stroke-width="0.5" stroke="black" d="M 140 273 165 294"/>
<path stroke-width="0.5" stroke="black" d="M 140 273 219 20"/>
<path stroke-width="0.5" stroke="black" d="M 140 273 270 274"/>
<path stroke-width="0.5" stroke="black" d="M 140 273 420 180"/>
<path stroke-width="11.642857142857142" stroke="black" d="M 140 273 234 178"/>
<path stroke-width="0.5" stroke="black" d="M 270 274 256 320"/>
<path stroke-width="0.5" stroke="black" d="M 219 20 165 294"/>
<path stroke-width="0.5" stroke="black" d="M 219 20 125 188"/>
<path stroke-width="0.5" stroke="black" d="M 219 20 20 201"/>
<path stroke-width="0.5" stroke="black" d="M 219 20 282 139"/>
<path stroke-width="0.5" stroke="black" d="M 165 294 362 273"/>
<path stroke-width="0.5" stroke="black" d="M 165 294 41 126"/>
<path stroke-width="0.5" stroke="black" d="M 165 294 67 251"/>
<path stroke-width="0.5" stroke="black" d="M 165 294 49 113"/>
<path stroke-width="0.5" stroke="black" d="M 165 294 103 48"/>
<path stroke-width="0.5" stroke="black" d="M 165 294 389 113"/>
<path stroke-width="0.5" stroke="black" d="M 165 294 282 139"/>
<path stroke-width="0.5" stroke="black" d="M 165 294 20 201"/>
<path stroke-width="0.5" stroke="black" d="M 165 294 125 188"/>
<path stroke-width="0.5" stroke="black" d="M 165 294 219 20"/>
<path stroke-width="0.5" stroke="black" d="M 165 294 140 273"/>
<path stroke-width="0.5" stroke="black" d="M 165 294 270 274"/>
<path stroke-width="0.5" stroke="black" d="M 165 294 420 180"/>
<path stroke-width="0.5" stroke="black" d="M 270 274 167 128"/>
<path stroke-width="11.642857142857142" stroke="black" d="M 165 294 234 178"/>
<path stroke-width="0.5" stroke="black" d="M 219 20 167 128"/>
<path stroke-width="0.5" stroke="black" d="M 219 20 268 238"/>
<path stroke-width="0.5" stroke="black" d="M 219 20 379 247"/>
<path stroke-width="0.5" stroke="black" d="M 219 20 181 76"/>
<path stroke-width="8.857142857142858" stroke="black" d="M 219 20 348 53"/>
<path stroke-width="0.5" stroke="black" d="M 219 20 382 159"/>
<path stroke-width="0.5" stroke="black" d="M 219 20 294 54"/>
<path stroke-width="0.5" stroke="black" d="M 219 20 362 273"/>
<path stroke-width="0.5" stroke="black" d="M 219 20 41 126"/>
<path stroke-width="0.5" stroke="black" d="M 219 20 67 251"/>
<path stroke-width="0.5" stroke="black" d="M 219 20 49 113"/>
<path stroke-width="0.5" stroke="black" d="M 219 20 103 48"/>
<path stroke-width="0.5" stroke="black" d="M 219 20 389 113"/>
<path stroke-width="0.5" stroke="black" d="M 219 20 256 320"/>
<path stroke-width="0.5" stroke="black" d="M 270 274 268 238"/>
<path stroke-width="8.857142857142858" stroke="black" d="M 270 274 379 247"/>
<path stroke-width="0.5" stroke="black" d="M 270 274 181 76"/>
<path stroke-width="0.5" stroke="black" d="M 420 180 20 201"/>
<path stroke-width="0.5" stroke="black" d="M 420 180 125 188"/>
<path stroke-width="0.5" stroke="black" d="M 420 180 165 294"/>
<path stroke-width="0.5" stroke="black" d="M 420 180 219 20"/>
<path stroke-width="0.5" stroke="black" d="M 420 180 140 273"/>
<path stroke-width="0.5" stroke="black" d="M 420 180 270 274"/>
<path stroke-width="20.0" stroke="black" d="M 420 180 234 178"/>
<path stroke-width="11.642857142857142" stroke="black" d="M 234 178 256 320"/>
<path stroke-width="11.642857142857142" stroke="black" d="M 234 178 167 128"/>
<path stroke-width="20.0" stroke="black" d="M 234 178 268 238"/>
<path stroke-width="11.642857142857142" stroke="black" d="M 234 178 379 247"/>
<path stroke-width="11.642857142857142" stroke="black" d="M 234 178 181 76"/>
<path stroke-width="11.642857142857142" stroke="black" d="M 234 178 348 53"/>
<path stroke-width="0.5" stroke="black" d="M 420 180 282 139"/>
<path stroke-width="11.642857142857142" stroke="black" d="M 234 178 382 159"/>
<path stroke-width="11.642857142857142" stroke="black" d="M 234 178 362 273"/>
<path stroke-width="11.642857142857142" stroke="black" d="M 234 178 41 126"/>
<path stroke-width="11.642857142857142" stroke="black" d="M 234 178 67 251"/>
<path stroke-width="11.642857142857142" stroke="black" d="M 234 178 49 113"/>
<path stroke-width="11.642857142857142" stroke="black" d="M 234 178 103 48"/>
<path stroke-width="11.642857142857142" stroke="black" d="M 234 178 389 113"/>
<path stroke-width="11.642857142857142" stroke="black" d="M 234 178 282 139"/>
<path stroke-width="11.642857142857142" stroke="black" d="M 234 178 20 201"/>
<path stroke-width="11.642857142857142" stroke="black" d="M 234 178 125 188"/>
<path stroke-width="11.642857142857142" stroke="black" d="M 234 178 165 294"/>
<path stroke-width="11.642857142857142" stroke="black" d="M 234 178 219 20"/>
<path stroke-width="11.642857142857142" stroke="black" d="M 234 178 140 273"/>
<path stroke-width="11.642857142857142" stroke="black" d="M 234 178 270 274"/>
<path stroke-width="11.642857142857142" stroke="black" d="M 234 178 294 54"/>
<path stroke-width="0.5" stroke="black" d="M 165 294 294 54"/>
<path stroke-width="0.5" stroke="black" d="M 420 180 389 113"/>
<path stroke-width="0.5" stroke="black" d="M 420 180 49 113"/>
<path stroke-width="0.5" stroke="black" d="M 270 274 348 53"/>
<path stroke-width="0.5" stroke="black" d="M 270 274 382 159"/>
<path stroke-width="0.5" stroke="black" d="M 270 274 294 54"/>
<path stroke-width="0.5" stroke="black" d="M 270 274 362 273"/>
<path stroke-width="0.5" stroke="black" d="M 270 274 41 126"/>
<path stroke-width="0.5" stroke="black" d="M 270 274 67 251"/>
<path stroke-width="0.5" stroke="black" d="M 270 274 49 113"/>
<path stroke-width="0.5" stroke="black" d="M 270 274 103 48"/>
<path stroke-width="0.5" stroke="black" d="M 270 274 389 113"/>
<path stroke-width="0.5" stroke="black" d="M 270 274 282 139"/>
<path stroke-width="0.5" stroke="black" d="M 270 274 20 201"/>
<path stroke-width="0.5" stroke="black" d="M 270 274 125 188"/>
<path stroke-width="0.5" stroke="black" d="M 270 274 165 294"/>
<path stroke-width="0.5" stroke="black" d="M 420 180 103 48"/>
<path stroke-width="0.5" stroke="black" d="M 270 274 219 20"/>
<path stroke-width="0.5" stroke="black" d="M 270 274 420 180"/>
<path stroke-width="11.642857142857142" stroke="black" d="M 270 274 234 178"/>
<path stroke-width="0.5" stroke="black" d="M 420 180 256 320"/>
<path stroke-width="0.5" stroke="black" d="M 420 180 167 128"/>
<path stroke-width="0.5" stroke="black" d="M 420 180 268 238"/>
<path stroke-width="0.5" stroke="black" d="M 420 180 379 247"/>
<path stroke-width="0.5" stroke="black" d="M 420 180 181 76"/>
<path stroke-width="0.5" stroke="black" d="M 420 180 348 53"/>
<path stroke-width="0.5" stroke="black" d="M 420 180 382 159"/>
<path stroke-width="0.5" stroke="black" d="M 420 180 294 54"/>
<path stroke-width="0.5" stroke="black" d="M 420 180 362 273"/>
<path stroke-width="0.5" stroke="black" d="M 420 180 41 126"/>
<path stroke-width="0.5" stroke="black" d="M 420 180 67 251"/>
<path stroke-width="0.5" stroke="black" d="M 270 274 140 273"/>
<path stroke-width="0.5" stroke="black" d="M 256 320 268 238"/>
<path stroke-width="8.857142857142858" stroke="black" d="M 165 294 382 159"/>
<path stroke-width="0.5" stroke="black" d="M 165 294 181 76"/>
<path stroke-width="8.857142857142858" stroke="black" d="M 389 113 167 128"/>
<path stroke-width="0.5" stroke="black" d="M 389 113 268 238"/>
<path stroke-width="0.5" stroke="black" d="M 389 113 379 247"/>
<path stroke-width="0.5" stroke="black" d="M 389 113 181 76"/>
<path stroke-width="0.5" stroke="black" d="M 389 113 348 53"/>
<path stroke-width="0.5" stroke="black" d="M 389 113 382 159"/>
<path stroke-width="0.5" stroke="black" d="M 389 113 294 54"/>
<path stroke-width="0.5" stroke="black" d="M 389 113 362 273"/>
<path stroke-width="0.5" stroke="black" d="M 389 113 41 126"/>
<path stroke-width="0.5" stroke="black" d="M 389 113 67 251"/>
<path stroke-width="0.5" stroke="black" d="M 389 113 49 113"/>
<path stroke-width="0.5" stroke="black" d="M 389 113 103 48"/>
<path stroke-width="0.5" stroke="black" d="M 389 113 282 139"/>
<path stroke-width="0.5" stroke="black" d="M 389 113 20 201"/>
<path stroke-width="0.5" stroke="black" d="M 389 113 125 188"/>
<path stroke-width="0.5" stroke="black" d="M 389 113 165 294"/>
<path stroke-width="0.5" stroke="black" d="M 389 113 219 20"/>
<path stroke-width="0.5" stroke="black" d="M 389 113 140 273"/>
<path stroke-width="0.5" stroke="black" d="M 389 113 270 274"/>
<path stroke-width="0.5" stroke="black" d="M 389 113 420 180"/>
<path stroke-width="11.642857142857142" stroke="black" d="M 389 113 234 178"/>
<path stroke-width="0.5" stroke="black" d="M 282 139 256 320"/>
<path stroke-width="0.5" stroke="black" d="M 282 139 167 128"/>
<path stroke-width="0.5" stroke="black" d="M 282 139 268 238"/>
<path stroke-width="0.5" stroke="black" d="M 282 139 379 247"/>
<path stroke-width="0.5" stroke="black" d="M 282 139 181 76"/>
<path stroke-width="0.5" stroke="black" d="M 282 139 348 53"/>
<path stroke-width="0.5" stroke="black" d="M 389 113 256 320"/>
<path stroke-width="11.642857142857142" stroke="black" d="M 103 48 234 178"/>
<path stroke-width="0.5" stroke="black" d="M 103 48 420 180"/>
<path stroke-width="0.5" stroke="black" d="M 103 48 270 274"/>
<path stroke-width="0.5" stroke="black" d="M 49 113 282 139"/>
<path stroke-width="0.5" stroke="black" d="M 49 113 20 201"/>
<path stroke-width="0.5" stroke="black" d="M 49 113 125 188"/>
<path stroke-width="0.5" stroke="black" d="M 49 113 165 294"/>
<path stroke-width="0.5" stroke="black" d="M 49 113 219 20"/>
<path stroke-width="0.5" stroke="black" d="M 49 113 140 273"/>
<path stroke-width="0.5" stroke="black" d="M 49 113 270 274"/>
<path stroke-width="0.5" stroke="black" d="M 49 113 420 180"/>
<path stroke-width="11.642857142857142" stroke="black" d="M 49 113 234 178"/>
<path stroke-width="0.5" stroke="black" d="M 103 48 256 320"/>
<path stroke-width="0.5" stroke="black" d="M 103 48 167 128"/>
<path stroke-width="0.5" stroke="black" d="M 103 48 268 238"/>
<path stroke-width="0.5" stroke="black" d="M 103 48 379 247"/>
<path stroke-width="0.5" stroke="black" d="M 282 139 382 159"/>
<path stroke-width="0.5" stroke="black" d="M 103 48 181 76"/>
<path stroke-width="0.5" stroke="black" d="M 103 48 382 159"/>
<path stroke-width="0.5" stroke="black" d="M 103 48 294 54"/>
<path stroke-width="0.5" stroke="black" d="M 103 48 362 273"/>
<path stroke-width="0.5" stroke="black" d="M 103 48 41 126"/>
<path stroke-width="0.5" stroke="black" d="M 103 48 67 251"/>
<path stroke-width="8.857142857142858" stroke="black" d="M 103 48 49 113"/>
<path stroke-width="0.5" stroke="black" d="M 103 48 389 113"/>
<path stroke-width="0.5" stroke="black" d="M 103 48 282 139"/>
<path stroke-width="0.5" stroke="black" d="M 103 48 20 201"/>
<path stroke-width="0.5" stroke="black" d="M 103 48 125 188"/>
<path stroke-width="0.5" stroke="black" d="M 103 48 165 294"/>
<path stroke-width="0.5" stroke="black" d="M 103 48 219 20"/>
<path stroke-width="0.5" stroke="black" d="M 103 48 140 273"/>
<path stroke-width="0.5" stroke="black" d="M 103 48 348 53"/>
<path stroke-width="0.5" stroke="black" d="M 282 139 294 54"/>
<path stroke-width="0.5" stroke="black" d="M 282 139 362 273"/>
<path stroke-width="0.5" stroke="black" d="M 282 139 41 126"/>
<path stroke-width="0.5" stroke="black" d="M 20 201 420 180"/>
<path stroke-width="11.642857142857142" stroke="black" d="M 20 201 234 178"/>
<path stroke-width="0.5" stroke="black" d="M 125 188 256 320"/>
<path stroke-width="0.5" stroke="black" d="M 125 188 167 128"/>
<path stroke-width="0.5" stroke="black" d="M 125 188 268 238"/>
<path stroke-width="0.5" stroke="black" d="M 125 188 379 247"/>
<path stroke-width="0.5" stroke="black" d="M 125 188 181 76"/>
<path stroke-width="0.5" stroke="black" d="M 125 188 348 53"/>
<path stroke-width="0.5" stroke="black" d="M 125 188 382 159"/>
<path stroke-width="8.857142857142858" stroke="black" d="M 125 188 294 54"/>
<path stroke-width="0.5" stroke="black" d="M 125 188 362 273"/>
<path stroke-width="0.5" stroke="black" d="M 125 188 41 126"/>
<path stroke-width="0.5" stroke="black" d="M 125 188 67 251"/>
<path stroke-width="0.5" stroke="black" d="M 20 201 270 274"/>
<path stroke-width="0.5" stroke="black" d="M 125 188 49 113"/>
<path stroke-width="0.5" stroke="black" d="M 125 188 389 113"/>
<path stroke-width="0.5" stroke="black" d="M 125 188 282 139"/>
<path stroke-width="0.5" stroke="black" d="M 125 188 20 201"/>
<path stroke-width="0.5" stroke="black" d="M 125 188 165 294"/>
<path stroke-width="0.5" stroke="black" d="M 125 188 219 20"/>
<path stroke-width="0.5" stroke="black" d="M 125 188 140 273"/>
<path stroke-width="0.5" stroke="black" d="M 125 188 270 274"/>
<path stroke-width="0.5" stroke="black" d="M 125 188 420 180"/>
<path stroke-width="11.642857142857142" stroke="black" d="M 125 188 234 178"/>
<path stroke-width="0.5" stroke="black" d="M 165 294 256 320"/>
<path stroke-width="0.5" stroke="black" d="M 165 294 167 128"/>
<path stroke-width="0.5" stroke="black" d="M 165 294 268 238"/>
<path stroke-width="0.5" stroke="black" d="M 165 294 379 247"/>
<path stroke-width="0.5" stroke="black" d="M 125 188 103 48"/>
<path stroke-width="0.5" stroke="black" d="M 165 294 348 53"/>
<path stroke-width="0.5" stroke="black" d="M 20 201 140 273"/>
<path stroke-width="0.5" stroke="black" d="M 20 201 165 294"/>
<path stroke-width="8.857142857142858" stroke="black" d="M 282 139 67 251"/>
<path stroke-width="0.5" stroke="black" d="M 282 139 49 113"/>
<path stroke-width="0.5" stroke="black" d="M 282 139 103 48"/>
<path stroke-width="0.5" stroke="black" d="M 282 139 389 113"/>
<path stroke-width="0.5" stroke="black" d="M 282 139 20 201"/>
<path stroke-width="0.5" stroke="black" d="M 282 139 125 188"/>
<path stroke-width="0.5" stroke="black" d="M 282 139 165 294"/>
<path stroke-width="0.5" stroke="black" d="M 282 139 219 20"/>
<path stroke-width="0.5" stroke="black" d="M 282 139 140 273"/>
<path stroke-width="0.5" stroke="black" d="M 282 139 270 274"/>
<path stroke-width="0.5" stroke="black" d="M 282 139 420 180"/>
<path stroke-width="11.642857142857142" stroke="black" d="M 282 139 234 178"/>
<path stroke-width="0.5" stroke="black" d="M 20 201 256 320"/>
<path stroke-width="0.5" stroke="black" d="M 20 201 219 20"/>
<path stroke-width="0.5" stroke="black" d="M 20 201 167 128"/>
<path stroke-width="0.5" stroke="black" d="M 20 201 379 247"/>
<path stroke-width="0.5" stroke="black" d="M 20 201 181 76"/>
<path stroke-width="0.5" stroke="black" d="M 20 201 348 53"/>
<path stroke-width="0.5" stroke="black" d="M 20 201 382 159"/>
<path stroke-width="0.5" stroke="black" d="M 20 201 294 54"/>
<path stroke-width="0.5" stroke="black" d="M 20 201 362 273"/>
<path stroke-width="8.857142857142858" stroke="black" d="M 20 201 41 126"/>
<path stroke-width="0.5" stroke="black" d="M 20 201 67 251"/>
<path stroke-width="0.5" stroke="black" d="M 20 201 49 113"/>
<path stroke-width="0.5" stroke="black" d="M 20 201 103 48"/>
<path stroke-width="0.5" stroke="black" d="M 20 201 389 113"/>
<path stroke-width="0.5" stroke="black" d="M 20 201 282 139"/>
<path stroke-width="0.5" stroke="black" d="M 20 201 125 188"/>
<path stroke-width="0.5" stroke="black" d="M 20 201 268 238"/>
<path stroke-width="0.5" stroke="black" d="M 256 320 167 128"/>
<circle cx="234" cy="178" r="7.0" style="fill:blue;stroke:black;stroke-width:1.0"/>
<circle cx="420" cy="180" r="7.0" style="fill:blue;stroke:black;stroke-width:1.0"/>
<circle cx="270" cy="274" r="7.0" style="fill:yellow;stroke:black;stroke-width:1.0"/>
<circle cx="140" cy="273" r="7.0" style="fill:purple;stroke:black;stroke-width:1.0"/>
<circle cx="219" cy="20" r="7.0" style="fill:orange;stroke:black;stroke-width:1.0"/>
<circle cx="165" cy="294" r="7.0" style="fill:green;stroke:black;stroke-width:1.0"/>
<circle cx="125" cy="188" r="7.0" style="fill:red;stroke:black;stroke-width:1.0"/>
<circle cx="20" cy="201" r="7.0" style="fill:blue;stroke:black;stroke-width:1.0"/>
<circle cx="282" cy="139" r="7.0" style="fill:blue;stroke:black;stroke-width:1.0"/>
<circle cx="389" cy="113" r="7.0" style="fill:fuchsia;stroke:black;stroke-width:1.0"/>
<circle cx="103" cy="48" r="7.0" style="fill:blue;stroke:black;stroke-width:1.0"/>
<circle cx="49" cy="113" r="7.0" style="fill:blue;stroke:black;stroke-width:1.0"/>
<circle cx="67" cy="251" r="7.0" style="fill:blue;stroke:black;stroke-width:1.0"/>
<circle cx="41" cy="126" r="7.0" style="fill:blue;stroke:black;stroke-width:1.0"/>
<circle cx="362" cy="273" r="7.0" style="fill:olive;stroke:black;stroke-width:1.0"/>
<circle cx="294" cy="54" r="7.0" style="fill:red;stroke:black;stroke-width:1.0"/>
<circle cx="382" cy="159" r="7.0" style="fill:green;stroke:black;stroke-width:1.0"/>
<circle cx="348" cy="53" r="7.0" style="fill:orange;stroke:black;stroke-width:1.0"/>
<circle cx="181" cy="76" r="7.0" style="fill:purple;stroke:black;stroke-width:1.0"/>
<circle cx="379" cy="247" r="7.0" style="fill:yellow;stroke:black;stroke-width:1.0"/>
<circle cx="268" cy="238" r="7.0" style="fill:blue;stroke:black;stroke-width:1.0"/>
<circle cx="167" cy="128" r="7.0" style="fill:fuchsia;stroke:black;stroke-width:1.0"/>
<circle cx="256" cy="320" r="7.0" style="fill:olive;stroke:black;stroke-width:1.0"/>
</svg>
