<svg width="440" height="340" xmlns="http://www.w3.org/2000/svg">
<path stroke-width="0.5" stroke="black" d="M 293 20 292 34"/>
<path stroke-width="0.5" stroke="black" d="M 293 20 312 26"/>
<path stroke-width="0.5" stroke="black" d="M 270 31 292 34"/>
<path stroke-width="0.5" stroke="black" d="M 270 31 312 26"/>
<path stroke-width="0.5" stroke="black" d="M 292 34 293 20"/>
<path stroke-width="0.5" stroke="black" d="M 292 34 270 31"/>
<path stroke-width="20.0" stroke="black" d="M 42 318 20 320"/>
<path stroke-width="20.0" stroke="black" d="M 20 320 42 318"/>
<path stroke-width="0.5" stroke="black" d="M 312 26 293 20"/>
<path stroke-width="0.5" stroke="black" d="M 312 26 270 31"/>
<circle cx="420" cy="194" r="7.0" style="fill:gray;stroke:black;stroke-width:1.0"/>
<circle cx="293" cy="20" r="7.0" style="fill:gray;stroke:black;stroke-width:1.0"/>
<circle cx="270" cy="31" r="7.0" style="fill:gray;stroke:black;stroke-width:1.0"/>
<circle cx="292" cy="34" r="7.0" style="fill:gray;stroke:black;stroke-width:1.0"/>
<circle cx="42" cy="318" r="7.0" style="fill:gray;stroke:black;stroke-width:1.0"/>
<circle cx="20" cy="320" r="7.0" style="fill:gray;stroke:black;stroke-width:1.0"/>
<circle cx="312" cy="26" r="7.0" style="fill:gray;stroke:black;stroke-width:1.0"/>
</svg>
