<svg width="440" height="340" xmlns="http://www.w3.org/2000/svg">
<path stroke-width="1" stroke="black" d="M 128 317 48 256"/>
<path stroke-width="1" stroke="black" d="M 183 20 291 21"/>
<path stroke-width="1" stroke="black" d="M 183 20 56 73"/>
<path stroke-width="1" stroke="black" d="M 358 264 270 320"/>
<path stroke-width="1" stroke="black" d="M 358 264 420 170"/>
<path stroke-width="1" stroke="black" d="M 270 320 358 264"/>
<path stroke-width="1" stroke="black" d="M 270 320 128 317"/>
<path stroke-width="1" stroke="black" d="M 48 256 20 156"/>
<path stroke-width="1" stroke="black" d="M 48 256 128 317"/>
<path stroke-width="1" stroke="black" d="M 420 170 358 264"/>
<path stroke-width="1" stroke="black" d="M 420 170 402 84"/>
<path stroke-width="1" stroke="black" d="M 56 73 183 20"/>
<path stroke-width="1" stroke="black" d="M 56 73 20 156"/>
<path stroke-width="1" stroke="black" d="M 402 84 291 21"/>
<path stroke-width="1" stroke="black" d="M 402 84 420 170"/>
<path stroke-width="1" stroke="black" d="M 20 156 48 256"/>
<path stroke-width="1" stroke="black" d="M 20 156 56 73"/>
<path stroke-width="1" stroke="black" d="M 128 317 270 320"/>
<path stroke-width="1" stroke="black" d="M 291 21 402 84"/>
<path stroke-width="1" stroke="black" d="M 291 21 183 20"/>
<circle cx="128" cy="317" r="7.0" style="fill:blue;stroke:black;stroke-width:1.0"/>
<circle cx="20" cy="156" r="7.0" style="fill:blue;stroke:black;stroke-width:1.0"/>
<circle cx="402" cy="84" r="7.0" style="fill:red;stroke:black;stroke-width:1.0"/>
<circle cx="56" cy="73" r="7.0" style="fill:blue;stroke:black;stroke-width:1.0"/>
<circle cx="420" cy="170" r="7.0" style="fill:red;stroke:black;stroke-width:1.0"/>
<circle cx="48" cy="256" r="7.0" style="fill:blue;stroke:black;stroke-width:1.0"/>
<circle cx="270" cy="320" r="7.0" style="fill:red;stroke:black;stroke-width:1.0"/>
<circle cx="358" cy="264" r="7.0" style="fill:red;stroke:black;stroke-width:1.0"/>
<circle cx="183" cy="20" r="7.0" style="fill:green;stroke:black;stroke-width:1.0"/>
<circle cx="291" cy="21" r="7.0" style="fill:green;stroke:black;stroke-width:1.0"/>
</svg>
