<svg width="440" height="340" xmlns="http://www.w3.org/2000/svg">
<path stroke-width="1" stroke="black" d="M 394 91 299 29"/>
<path stroke-width="1" stroke="black" d="M 20 155 47 248"/>
<path stroke-width="1" stroke="black" d="M 20 155 68 68"/>
<path stroke-width="1" stroke="black" d="M 369 271 420 183"/>
<path stroke-width="1" stroke="black" d="M 369 271 264 320"/>
<path stroke-width="1" stroke="black" d="M 420 183 369 271"/>
<path stroke-width="1" stroke="black" d="M 420 183 394 91"/>
<path stroke-width="1" stroke="black" d="M 299 29 177 20"/>
<path stroke-width="1" stroke="black" d="M 299 29 394 91"/>
<path stroke-width="1" stroke="black" d="M 264 320 369 271"/>
<path stroke-width="1" stroke="black" d="M 264 320 139 311"/>
<path stroke-width="1" stroke="black" d="M 68 68 20 155"/>
<path stroke-width="1" stroke="black" d="M 68 68 177 20"/>
<path stroke-width="1" stroke="black" d="M 139 311 47 248"/>
<path stroke-width="1" stroke="black" d="M 139 311 264 320"/>
<path stroke-width="1" stroke="black" d="M 177 20 299 29"/>
<path stroke-width="1" stroke="black" d="M 177 20 68 68"/>
<path stroke-width="1" stroke="black" d="M 394 91 420 183"/>
<path stroke-width="1" stroke="black" d="M 47 248 139 311"/>
<path stroke-width="1" stroke="black" d="M 47 248 20 155"/>
<circle cx="394" cy="91" r="20.0" style="fill:blue;stroke:black;stroke-width:1.0"/>
<circle cx="177" cy="20" r="20.0" style="fill:blue;stroke:black;stroke-width:1.0"/>
<circle cx="139" cy="311" r="20.0" style="fill:red;stroke:black;stroke-width:1.0"/>
<circle cx="68" cy="68" r="20.0" style="fill:blue;stroke:black;stroke-width:1.0"/>
<circle cx="264" cy="320" r="20.0" style="fill:red;stroke:black;stroke-width:1.0"/>
<circle cx="299" cy="29" r="20.0" style="fill:blue;stroke:black;stroke-width:1.0"/>
<circle cx="420" cy="183" r="20.0" style="fill:red;stroke:black;stroke-width:1.0"/>
<circle cx="369" cy="271" r="20.0" style="fill:red;stroke:black;stroke-width:1.0"/>
<circle cx="20" cy="155" r="20.0" style="fill:green;stroke:black;stroke-width:1.0"/>
<circle cx="47" cy="248" r="20.0" style="fill:green;stroke:black;stroke-width:1.0"/>
</svg>
