<svg width="440" height="340" xmlns="http://www.w3.org/2000/svg">
<path stroke-width="1" stroke="black" d="M 20 141 84 67"/>
<path stroke-width="1" stroke="black" d="M 410 106 420 195"/>
<path stroke-width="1" stroke="black" d="M 410 106 325 33"/>
<path stroke-width="1" stroke="black" d="M 113 301 29 241"/>
<path stroke-width="1" stroke="black" d="M 113 301 244 320"/>
<path stroke-width="1" stroke="black" d="M 29 241 113 301"/>
<path stroke-width="1" stroke="black" d="M 29 241 20 141"/>
<path stroke-width="1" stroke="black" d="M 84 67 202 20"/>
<path stroke-width="1" stroke="black" d="M 84 67 20 141"/>
<path stroke-width="1" stroke="black" d="M 244 320 113 301"/>
<path stroke-width="1" stroke="black" d="M 244 320 354 283"/>
<path stroke-width="1" stroke="black" d="M 325 33 410 106"/>
<path stroke-width="1" stroke="black" d="M 325 33 202 20"/>
<path stroke-width="1" stroke="black" d="M 354 283 420 195"/>
<path stroke-width="1" stroke="black" d="M 354 283 244 320"/>
<path stroke-width="1" stroke="black" d="M 202 20 84 67"/>
<path stroke-width="1" stroke="black" d="M 202 20 325 33"/>
<path stroke-width="1" stroke="black" d="M 20 141 29 241"/>
<path stroke-width="1" stroke="black" d="M 420 195 354 283"/>
<path stroke-width="1" stroke="black" d="M 420 195 410 106"/>
<circle cx="20" cy="141" r="7.0" style="fill:gray;stroke:black;stroke-width:1.0"/>
<circle cx="202" cy="20" r="7.0" style="fill:gray;stroke:black;stroke-width:1.0"/>
<circle cx="354" cy="283" r="7.0" style="fill:gray;stroke:black;stroke-width:1.0"/>
<circle cx="325" cy="33" r="7.0" style="fill:gray;stroke:black;stroke-width:1.0"/>
<circle cx="244" cy="320" r="7.0" style="fill:gray;stroke:black;stroke-width:1.0"/>
<circle cx="84" cy="67" r="7.0" style="fill:gray;stroke:black;stroke-width:1.0"/>
<circle cx="29" cy="241" r="7.0" style="fill:gray;stroke:black;stroke-width:1.0"/>
<circle cx="113" cy="301" r="7.0" style="fill:gray;stroke:black;stroke-width:1.0"/>
<circle cx="410" cy="106" r="7.0" style="fill:gray;stroke:black;stroke-width:1.0"/>
<circle cx="420" cy="195" r="7.0" style="fill:gray;stroke:black;stroke-width:1.0"/>
</svg>
