<svg width="440" height="340" xmlns="http://www.w3.org/2000/svg">
<path stroke-width="20.0" stroke="black" d="M 366 132 323 143"/>
<path stroke-width="0.6638655462184874" stroke="black" d="M 205 130 249 98"/>
<path stroke-width="0.6638655462184874" stroke="black" d="M 205 130 276 228"/>
<path stroke-width="9.512605042016807" stroke="black" d="M 205 130 165 96"/>
<path stroke-width="0.6638655462184874" stroke="black" d="M 205 130 312 100"/>
<path stroke-width="0.6638655462184874" stroke="black" d="M 205 130 352 171"/>
<path stroke-width="0.6638655462184874" stroke="black" d="M 205 130 248 248"/>
<path stroke-width="0.6638655462184874" stroke="black" d="M 205 130 207 203"/>
<path stroke-width="0.6638655462184874" stroke="black" d="M 205 130 165 114"/>
<path stroke-width="8.201680672268907" stroke="black" d="M 348 50 312 100"/>
<path stroke-width="0.6638655462184874" stroke="black" d="M 312 100 323 143"/>
<path stroke-width="0.6638655462184874" stroke="black" d="M 312 100 315 218"/>
<path stroke-width="0.6638655462184874" stroke="black" d="M 312 100 290 141"/>
<path stroke-width="0.6638655462184874" stroke="black" d="M 205 130 220 92"/>
<path stroke-width="1.1554621848739495" stroke="black" d="M 312 100 241 204"/>
<path stroke-width="0.6638655462184874" stroke="black" d="M 312 100 284 104"/>
<path stroke-width="0.6638655462184874" stroke="black" d="M 312 100 220 92"/>
<path stroke-width="0.6638655462184874" stroke="black" d="M 312 100 249 98"/>
<path stroke-width="0.6638655462184874" stroke="black" d="M 312 100 276 228"/>
<path stroke-width="0.6638655462184874" stroke="black" d="M 312 100 205 130"/>
<path stroke-width="8.201680672268907" stroke="black" d="M 312 100 348 50"/>
<path stroke-width="0.6638655462184874" stroke="black" d="M 312 100 352 171"/>
<path stroke-width="0.6638655462184874" stroke="black" d="M 312 100 248 248"/>
<path stroke-width="0.6638655462184874" stroke="black" d="M 312 100 207 203"/>
<path stroke-width="0.6638655462184874" stroke="black" d="M 312 100 165 114"/>
<path stroke-width="6.890756302521009" stroke="black" d="M 420 168 352 171"/>
<path stroke-width="0.6638655462184874" stroke="black" d="M 352 171 323 143"/>
<path stroke-width="0.6638655462184874" stroke="black" d="M 312 100 201 174"/>
<path stroke-width="0.6638655462184874" stroke="black" d="M 352 171 315 218"/>
<path stroke-width="0.6638655462184874" stroke="black" d="M 205 130 284 104"/>
<path stroke-width="0.6638655462184874" stroke="black" d="M 205 130 241 204"/>
<path stroke-width="0.6638655462184874" stroke="black" d="M 249 98 205 130"/>
<path stroke-width="0.6638655462184874" stroke="black" d="M 249 98 312 100"/>
<path stroke-width="0.6638655462184874" stroke="black" d="M 249 98 352 171"/>
<path stroke-width="0.6638655462184874" stroke="black" d="M 249 98 248 248"/>
<path stroke-width="0.6638655462184874" stroke="black" d="M 249 98 207 203"/>
<path stroke-width="0.6638655462184874" stroke="black" d="M 249 98 165 114"/>
<path stroke-width="10.823529411764707" stroke="black" d="M 284 275 276 228"/>
<path stroke-width="0.6638655462184874" stroke="black" d="M 276 228 323 143"/>
<path stroke-width="0.6638655462184874" stroke="black" d="M 276 228 315 218"/>
<path stroke-width="0.6638655462184874" stroke="black" d="M 276 228 290 141"/>
<path stroke-width="0.6638655462184874" stroke="black" d="M 276 228 241 204"/>
<path stroke-width="0.6638655462184874" stroke="black" d="M 276 228 201 174"/>
<path stroke-width="1.1554621848739495" stroke="black" d="M 205 130 201 174"/>
<path stroke-width="1.1554621848739495" stroke="black" d="M 276 228 284 104"/>
<path stroke-width="0.6638655462184874" stroke="black" d="M 276 228 249 98"/>
<path stroke-width="10.823529411764707" stroke="black" d="M 276 228 284 275"/>
<path stroke-width="0.6638655462184874" stroke="black" d="M 276 228 205 130"/>
<path stroke-width="0.6638655462184874" stroke="black" d="M 276 228 312 100"/>
<path stroke-width="0.6638655462184874" stroke="black" d="M 276 228 352 171"/>
<path stroke-width="0.6638655462184874" stroke="black" d="M 276 228 248 248"/>
<path stroke-width="0.6638655462184874" stroke="black" d="M 276 228 207 203"/>
<path stroke-width="0.6638655462184874" stroke="black" d="M 276 228 165 114"/>
<path stroke-width="9.512605042016807" stroke="black" d="M 165 96 205 130"/>
<path stroke-width="0.6638655462184874" stroke="black" d="M 205 130 323 143"/>
<path stroke-width="0.6638655462184874" stroke="black" d="M 205 130 315 218"/>
<path stroke-width="0.6638655462184874" stroke="black" d="M 205 130 290 141"/>
<path stroke-width="0.6638655462184874" stroke="black" d="M 276 228 220 92"/>
<path stroke-width="0.6638655462184874" stroke="black" d="M 249 98 276 228"/>
<path stroke-width="1.1554621848739495" stroke="black" d="M 352 171 290 141"/>
<path stroke-width="0.6638655462184874" stroke="black" d="M 352 171 201 174"/>
<path stroke-width="0.6638655462184874" stroke="black" d="M 207 203 241 204"/>
<path stroke-width="0.6638655462184874" stroke="black" d="M 207 203 201 174"/>
<path stroke-width="0.6638655462184874" stroke="black" d="M 207 203 284 104"/>
<path stroke-width="0.6638655462184874" stroke="black" d="M 207 203 220 92"/>
<path stroke-width="0.6638655462184874" stroke="black" d="M 207 203 249 98"/>
<path stroke-width="0.6638655462184874" stroke="black" d="M 207 203 276 228"/>
<path stroke-width="0.6638655462184874" stroke="black" d="M 207 203 205 130"/>
<path stroke-width="0.6638655462184874" stroke="black" d="M 207 203 312 100"/>
<path stroke-width="0.6638655462184874" stroke="black" d="M 207 203 352 171"/>
<path stroke-width="0.6638655462184874" stroke="black" d="M 207 203 248 248"/>
<path stroke-width="4.92436974789916" stroke="black" d="M 207 203 141 248"/>
<path stroke-width="0.5" stroke="black" d="M 207 203 165 114"/>
<path stroke-width="0.6638655462184874" stroke="black" d="M 207 203 290 141"/>
<path stroke-width="1.6470588235294117" stroke="black" d="M 20 20 165 114"/>
<path stroke-width="0.6638655462184874" stroke="black" d="M 165 114 315 218"/>
<path stroke-width="0.6638655462184874" stroke="black" d="M 165 114 290 141"/>
<path stroke-width="0.6638655462184874" stroke="black" d="M 165 114 241 204"/>
<path stroke-width="0.6638655462184874" stroke="black" d="M 165 114 201 174"/>
<path stroke-width="0.6638655462184874" stroke="black" d="M 165 114 284 104"/>
<path stroke-width="0.6638655462184874" stroke="black" d="M 165 114 220 92"/>
<path stroke-width="0.6638655462184874" stroke="black" d="M 165 114 249 98"/>
<path stroke-width="0.6638655462184874" stroke="black" d="M 165 114 276 228"/>
<path stroke-width="0.6638655462184874" stroke="black" d="M 165 114 205 130"/>
<path stroke-width="0.6638655462184874" stroke="black" d="M 165 114 312 100"/>
<path stroke-width="0.6638655462184874" stroke="black" d="M 165 114 352 171"/>
<path stroke-width="0.6638655462184874" stroke="black" d="M 165 114 248 248"/>
<path stroke-width="0.6638655462184874" stroke="black" d="M 165 114 323 143"/>
<path stroke-width="0.6638655462184874" stroke="black" d="M 352 171 241 204"/>
<path stroke-width="0.6638655462184874" stroke="black" d="M 207 203 315 218"/>
<path stroke-width="4.92436974789916" stroke="black" d="M 141 248 207 203"/>
<path stroke-width="0.6638655462184874" stroke="black" d="M 352 171 284 104"/>
<path stroke-width="0.6638655462184874" stroke="black" d="M 352 171 220 92"/>
<path stroke-width="0.6638655462184874" stroke="black" d="M 352 171 249 98"/>
<path stroke-width="0.6638655462184874" stroke="black" d="M 352 171 276 228"/>
<path stroke-width="0.6638655462184874" stroke="black" d="M 352 171 205 130"/>
<path stroke-width="0.6638655462184874" stroke="black" d="M 352 171 312 100"/>
<path stroke-width="6.890756302521009" stroke="black" d="M 352 171 420 168"/>
<path stroke-width="0.6638655462184874" stroke="black" d="M 352 171 248 248"/>
<path stroke-width="0.6638655462184874" stroke="black" d="M 352 171 207 203"/>
<path stroke-width="0.6638655462184874" stroke="black" d="M 352 171 165 114"/>
<path stroke-width="5.579831932773109" stroke="black" d="M 232 320 248 248"/>
<path stroke-width="0.6638655462184874" stroke="black" d="M 248 248 323 143"/>
<path stroke-width="1.1554621848739495" stroke="black" d="M 207 203 323 143"/>
<path stroke-width="1.1554621848739495" stroke="black" d="M 248 248 315 218"/>
<path stroke-width="0.6638655462184874" stroke="black" d="M 248 248 241 204"/>
<path stroke-width="0.6638655462184874" stroke="black" d="M 248 248 201 174"/>
<path stroke-width="0.6638655462184874" stroke="black" d="M 248 248 284 104"/>
<path stroke-width="0.6638655462184874" stroke="black" d="M 248 248 220 92"/>
<path stroke-width="0.6638655462184874" stroke="black" d="M 248 248 249 98"/>
<path stroke-width="0.6638655462184874" stroke="black" d="M 248 248 276 228"/>
<path stroke-width="0.6638655462184874" stroke="black" d="M 248 248 205 130"/>
<path stroke-width="0.6638655462184874" stroke="black" d="M 248 248 312 100"/>
<path stroke-width="0.6638655462184874" stroke="black" d="M 248 248 352 171"/>
<path stroke-width="5.579831932773109" stroke="black" d="M 248 248 232 320"/>
<path stroke-width="0.6638655462184874" stroke="black" d="M 248 248 207 203"/>
<path stroke-width="0.6638655462184874" stroke="black" d="M 248 248 165 114"/>
<path stroke-width="0.6638655462184874" stroke="black" d="M 248 248 290 141"/>
<path stroke-width="12.134453781512605" stroke="black" d="M 249 98 246 54"/>
<path stroke-width="1.1554621848739495" stroke="black" d="M 249 98 220 92"/>
<path stroke-width="0.6638655462184874" stroke="black" d="M 249 98 284 104"/>
<path stroke-width="0.6638655462184874" stroke="black" d="M 315 218 165 114"/>
<path stroke-width="18.03361344537815" stroke="black" d="M 303 170 290 141"/>
<path stroke-width="0.6638655462184874" stroke="black" d="M 290 141 323 143"/>
<path stroke-width="0.6638655462184874" stroke="black" d="M 290 141 315 218"/>
<path stroke-width="18.03361344537815" stroke="black" d="M 290 141 303 170"/>
<path stroke-width="0.6638655462184874" stroke="black" d="M 290 141 241 204"/>
<path stroke-width="0.6638655462184874" stroke="black" d="M 290 141 201 174"/>
<path stroke-width="0.6638655462184874" stroke="black" d="M 290 141 284 104"/>
<path stroke-width="0.6638655462184874" stroke="black" d="M 290 141 220 92"/>
<path stroke-width="0.6638655462184874" stroke="black" d="M 290 141 249 98"/>
<path stroke-width="0.6638655462184874" stroke="black" d="M 290 141 276 228"/>
<path stroke-width="0.6638655462184874" stroke="black" d="M 290 141 205 130"/>
<path stroke-width="0.6638655462184874" stroke="black" d="M 315 218 207 203"/>
<path stroke-width="0.6638655462184874" stroke="black" d="M 290 141 312 100"/>
<path stroke-width="0.6638655462184874" stroke="black" d="M 290 141 248 248"/>
<path stroke-width="0.6638655462184874" stroke="black" d="M 290 141 207 203"/>
<path stroke-width="0.6638655462184874" stroke="black" d="M 290 141 165 114"/>
<path stroke-width="16.722689075630253" stroke="black" d="M 221 237 241 204"/>
<path stroke-width="0.6638655462184874" stroke="black" d="M 241 204 323 143"/>
<path stroke-width="0.6638655462184874" stroke="black" d="M 241 204 315 218"/>
<path stroke-width="0.6638655462184874" stroke="black" d="M 241 204 290 141"/>
<path stroke-width="16.722689075630253" stroke="black" d="M 241 204 221 237"/>
<path stroke-width="0.6638655462184874" stroke="black" d="M 241 204 201 174"/>
<path stroke-width="0.6638655462184874" stroke="black" d="M 241 204 284 104"/>
<path stroke-width="0.6638655462184874" stroke="black" d="M 241 204 220 92"/>
<path stroke-width="0.6638655462184874" stroke="black" d="M 241 204 249 98"/>
<path stroke-width="1.1554621848739495" stroke="black" d="M 290 141 352 171"/>
<path stroke-width="0.6638655462184874" stroke="black" d="M 241 204 276 228"/>
<path stroke-width="1.1554621848739495" stroke="black" d="M 315 218 248 248"/>
<path stroke-width="0.6638655462184874" stroke="black" d="M 315 218 312 100"/>
<path stroke-width="20.0" stroke="black" d="M 323 143 366 132"/>
<path stroke-width="0.6638655462184874" stroke="black" d="M 323 143 315 218"/>
<path stroke-width="0.6638655462184874" stroke="black" d="M 323 143 290 141"/>
<path stroke-width="0.6638655462184874" stroke="black" d="M 323 143 241 204"/>
<path stroke-width="0.6638655462184874" stroke="black" d="M 323 143 201 174"/>
<path stroke-width="0.6638655462184874" stroke="black" d="M 323 143 284 104"/>
<path stroke-width="0.6638655462184874" stroke="black" d="M 323 143 220 92"/>
<path stroke-width="0.6638655462184874" stroke="black" d="M 323 143 249 98"/>
<path stroke-width="0.6638655462184874" stroke="black" d="M 323 143 276 228"/>
<path stroke-width="0.6638655462184874" stroke="black" d="M 323 143 205 130"/>
<path stroke-width="0.6638655462184874" stroke="black" d="M 323 143 312 100"/>
<path stroke-width="0.6638655462184874" stroke="black" d="M 323 143 352 171"/>
<path stroke-width="0.6638655462184874" stroke="black" d="M 315 218 352 171"/>
<path stroke-width="0.6638655462184874" stroke="black" d="M 323 143 248 248"/>
<path stroke-width="0.6638655462184874" stroke="black" d="M 323 143 165 114"/>
<path stroke-width="19.34453781512605" stroke="black" d="M 343 239 315 218"/>
<path stroke-width="0.6638655462184874" stroke="black" d="M 315 218 323 143"/>
<path stroke-width="19.34453781512605" stroke="black" d="M 315 218 343 239"/>
<path stroke-width="0.6638655462184874" stroke="black" d="M 315 218 290 141"/>
<path stroke-width="0.6638655462184874" stroke="black" d="M 315 218 241 204"/>
<path stroke-width="0.6638655462184874" stroke="black" d="M 315 218 201 174"/>
<path stroke-width="0.6638655462184874" stroke="black" d="M 315 218 284 104"/>
<path stroke-width="0.6638655462184874" stroke="black" d="M 315 218 220 92"/>
<path stroke-width="0.6638655462184874" stroke="black" d="M 315 218 249 98"/>
<path stroke-width="0.6638655462184874" stroke="black" d="M 315 218 276 228"/>
<path stroke-width="0.6638655462184874" stroke="black" d="M 315 218 205 130"/>
<path stroke-width="1.1554621848739495" stroke="black" d="M 323 143 207 203"/>
<path stroke-width="0.6638655462184874" stroke="black" d="M 241 204 205 130"/>
<path stroke-width="1.1554621848739495" stroke="black" d="M 241 204 312 100"/>
<path stroke-width="0.6638655462184874" stroke="black" d="M 241 204 352 171"/>
<path stroke-width="0.6638655462184874" stroke="black" d="M 284 104 352 171"/>
<path stroke-width="0.6638655462184874" stroke="black" d="M 284 104 248 248"/>
<path stroke-width="0.6638655462184874" stroke="black" d="M 284 104 207 203"/>
<path stroke-width="0.6638655462184874" stroke="black" d="M 284 104 165 114"/>
<path stroke-width="12.789915966386555" stroke="black" d="M 197 46 220 92"/>
<path stroke-width="0.6638655462184874" stroke="black" d="M 220 92 323 143"/>
<path stroke-width="0.6638655462184874" stroke="black" d="M 220 92 315 218"/>
<path stroke-width="0.6638655462184874" stroke="black" d="M 220 92 290 141"/>
<path stroke-width="0.6638655462184874" stroke="black" d="M 220 92 241 204"/>
<path stroke-width="0.6638655462184874" stroke="black" d="M 220 92 201 174"/>
<path stroke-width="0.6638655462184874" stroke="black" d="M 220 92 284 104"/>
<path stroke-width="12.789915966386555" stroke="black" d="M 220 92 197 46"/>
<path stroke-width="0.6638655462184874" stroke="black" d="M 284 104 312 100"/>
<path stroke-width="1.1554621848739495" stroke="black" d="M 220 92 249 98"/>
<path stroke-width="0.6638655462184874" stroke="black" d="M 220 92 205 130"/>
<path stroke-width="0.6638655462184874" stroke="black" d="M 220 92 312 100"/>
<path stroke-width="0.6638655462184874" stroke="black" d="M 220 92 352 171"/>
<path stroke-width="0.6638655462184874" stroke="black" d="M 220 92 248 248"/>
<path stroke-width="0.6638655462184874" stroke="black" d="M 220 92 207 203"/>
<path stroke-width="0.6638655462184874" stroke="black" d="M 220 92 165 114"/>
<path stroke-width="12.134453781512605" stroke="black" d="M 246 54 249 98"/>
<path stroke-width="0.6638655462184874" stroke="black" d="M 249 98 323 143"/>
<path stroke-width="0.6638655462184874" stroke="black" d="M 249 98 315 218"/>
<path stroke-width="0.6638655462184874" stroke="black" d="M 249 98 290 141"/>
<path stroke-width="0.6638655462184874" stroke="black" d="M 249 98 241 204"/>
<path stroke-width="0.6638655462184874" stroke="black" d="M 249 98 201 174"/>
<path stroke-width="0.6638655462184874" stroke="black" d="M 220 92 276 228"/>
<path stroke-width="0.6638655462184874" stroke="black" d="M 284 104 205 130"/>
<path stroke-width="1.1554621848739495" stroke="black" d="M 284 104 276 228"/>
<path stroke-width="0.6638655462184874" stroke="black" d="M 284 104 249 98"/>
<path stroke-width="0.6638655462184874" stroke="black" d="M 241 204 248 248"/>
<path stroke-width="0.6638655462184874" stroke="black" d="M 241 204 207 203"/>
<path stroke-width="0.6638655462184874" stroke="black" d="M 241 204 165 114"/>
<path stroke-width="15.411764705882353" stroke="black" d="M 163 189 201 174"/>
<path stroke-width="0.6638655462184874" stroke="black" d="M 201 174 323 143"/>
<path stroke-width="0.6638655462184874" stroke="black" d="M 201 174 315 218"/>
<path stroke-width="0.6638655462184874" stroke="black" d="M 201 174 290 141"/>
<path stroke-width="0.6638655462184874" stroke="black" d="M 201 174 241 204"/>
<path stroke-width="15.411764705882353" stroke="black" d="M 201 174 163 189"/>
<path stroke-width="0.6638655462184874" stroke="black" d="M 201 174 284 104"/>
<path stroke-width="0.6638655462184874" stroke="black" d="M 201 174 220 92"/>
<path stroke-width="0.6638655462184874" stroke="black" d="M 201 174 249 98"/>
<path stroke-width="0.6638655462184874" stroke="black" d="M 201 174 276 228"/>
<path stroke-width="1.1554621848739495" stroke="black" d="M 201 174 205 130"/>
<path stroke-width="0.6638655462184874" stroke="black" d="M 201 174 312 100"/>
<path stroke-width="0.6638655462184874" stroke="black" d="M 201 174 352 171"/>
<path stroke-width="0.6638655462184874" stroke="black" d="M 201 174 248 248"/>
<path stroke-width="0.6638655462184874" stroke="black" d="M 201 174 207 203"/>
<path stroke-width="0.6638655462184874" stroke="black" d="M 201 174 165 114"/>
<path stroke-width="14.100840336134453" stroke="black" d="M 299 74 284 104"/>
<path stroke-width="0.6638655462184874" stroke="black" d="M 284 104 323 143"/>
<path stroke-width="0.6638655462184874" stroke="black" d="M 284 104 315 218"/>
<path stroke-width="0.6638655462184874" stroke="black" d="M 284 104 290 141"/>
<path stroke-width="0.6638655462184874" stroke="black" d="M 284 104 241 204"/>
<path stroke-width="0.6638655462184874" stroke="black" d="M 284 104 201 174"/>
<path stroke-width="14.100840336134453" stroke="black" d="M 284 104 299 74"/>
<path stroke-width="0.6638655462184874" stroke="black" d="M 284 104 220 92"/>
<path stroke-width="0.5" stroke="black" d="M 165 114 207 203"/>
<path stroke-width="1.6470588235294117" stroke="black" d="M 165 114 20 20"/>
<circle cx="366" cy="132" r="20.0" style="fill:red;stroke:black;stroke-width:1.0"/>
<circle cx="323" cy="143" r="20.0" style="fill:red;stroke:black;stroke-width:1.0"/>
<circle cx="343" cy="239" r="20.0" style="fill:green;stroke:black;stroke-width:1.0"/>
<circle cx="315" cy="218" r="20.0" style="fill:green;stroke:black;stroke-width:1.0"/>
<circle cx="303" cy="170" r="20.0" style="fill:orange;stroke:black;stroke-width:1.0"/>
<circle cx="290" cy="141" r="20.0" style="fill:orange;stroke:black;stroke-width:1.0"/>
<circle cx="221" cy="237" r="20.0" style="fill:purple;stroke:black;stroke-width:1.0"/>
<circle cx="241" cy="204" r="20.0" style="fill:purple;stroke:black;stroke-width:1.0"/>
<circle cx="163" cy="189" r="20.0" style="fill:yellow;stroke:black;stroke-width:1.0"/>
<circle cx="201" cy="174" r="20.0" style="fill:yellow;stroke:black;stroke-width:1.0"/>
<circle cx="299" cy="74" r="20.0" style="fill:fuchsia;stroke:black;stroke-width:1.0"/>
<circle cx="284" cy="104" r="20.0" style="fill:fuchsia;stroke:black;stroke-width:1.0"/>
<circle cx="197" cy="46" r="20.0" style="fill:olive;stroke:black;stroke-width:1.0"/>
<circle cx="220" cy="92" r="20.0" style="fill:olive;stroke:black;stroke-width:1.0"/>
<circle cx="246" cy="54" r="20.0" style="fill:aqua;stroke:black;stroke-width:1.0"/>
<circle cx="249" cy="98" r="20.0" style="fill:aqua;stroke:black;stroke-width:1.0"/>
<circle cx="284" cy="275" r="20.0" style="fill:brown;stroke:black;stroke-width:1.0"/>
<circle cx="276" cy="228" r="20.0" style="fill:brown;stroke:black;stroke-width:1.0"/>
<circle cx="165" cy="96" r="20.0" style="fill:blue;stroke:black;stroke-width:1.0"/>
<circle cx="205" cy="130" r="20.0" style="fill:blue;stroke:black;stroke-width:1.0"/>
<circle cx="348" cy="50" r="20.0" style="fill:red;stroke:black;stroke-width:1.0"/>
<circle cx="312" cy="100" r="20.0" style="fill:red;stroke:black;stroke-width:1.0"/>
<circle cx="420" cy="168" r="20.0" style="fill:orange;stroke:black;stroke-width:1.0"/>
<circle cx="352" cy="171" r="20.0" style="fill:orange;stroke:black;stroke-width:1.0"/>
<circle cx="232" cy="320" r="20.0" style="fill:blue;stroke:black;stroke-width:1.0"/>
<circle cx="248" cy="248" r="20.0" style="fill:blue;stroke:black;stroke-width:1.0"/>
<circle cx="141" cy="248" r="20.0" style="fill:green;stroke:black;stroke-width:1.0"/>
<circle cx="207" cy="203" r="20.0" style="fill:green;stroke:black;stroke-width:1.0"/>
<circle cx="20" cy="20" r="20.0" style="fill:blue;stroke:black;stroke-width:1.0"/>
<circle cx="165" cy="114" r="20.0" style="fill:blue;stroke:black;stroke-width:1.0"/>
</svg>
