<svg width="440" height="340" xmlns="http://www.w3.org/2000/svg">
<path stroke-width="1" stroke="black" d="M 145 205 165 182"/>
<path stroke-width="1" stroke="black" d="M 111 153 298 113"/>
<path stroke-width="1" stroke="black" d="M 111 153 310 149"/>
<path stroke-width="1" stroke="black" d="M 111 153 45 167"/>
<path stroke-width="1" stroke="black" d="M 111 153 334 102"/>
<path stroke-width="1" stroke="black" d="M 111 153 113 125"/>
<path stroke-width="1" stroke="black" d="M 111 153 158 92"/>
<path stroke-width="1" stroke="black" d="M 111 153 229 192"/>
<path stroke-width="1" stroke="black" d="M 111 153 293 196"/>
<path stroke-width="1" stroke="black" d="M 420 84 334 102"/>
<path stroke-width="1" stroke="black" d="M 334 102 165 182"/>
<path stroke-width="1" stroke="black" d="M 334 102 246 105"/>
<path stroke-width="1" stroke="black" d="M 334 102 274 67"/>
<path stroke-width="1" stroke="black" d="M 111 153 180 60"/>
<path stroke-width="1" stroke="black" d="M 334 102 227 66"/>
<path stroke-width="1" stroke="black" d="M 334 102 244 181"/>
<path stroke-width="1" stroke="black" d="M 334 102 180 60"/>
<path stroke-width="1" stroke="black" d="M 334 102 298 113"/>
<path stroke-width="1" stroke="black" d="M 334 102 310 149"/>
<path stroke-width="1" stroke="black" d="M 334 102 111 153"/>
<path stroke-width="1" stroke="black" d="M 334 102 420 84"/>
<path stroke-width="1" stroke="black" d="M 334 102 113 125"/>
<path stroke-width="1" stroke="black" d="M 334 102 158 92"/>
<path stroke-width="1" stroke="black" d="M 334 102 229 192"/>
<path stroke-width="1" stroke="black" d="M 334 102 293 196"/>
<path stroke-width="1" stroke="black" d="M 20 123 113 125"/>
<path stroke-width="1" stroke="black" d="M 113 125 165 182"/>
<path stroke-width="1" stroke="black" d="M 334 102 112 98"/>
<path stroke-width="1" stroke="black" d="M 113 125 246 105"/>
<path stroke-width="1" stroke="black" d="M 111 153 244 181"/>
<path stroke-width="1" stroke="black" d="M 111 153 227 66"/>
<path stroke-width="1" stroke="black" d="M 298 113 111 153"/>
<path stroke-width="1" stroke="black" d="M 298 113 334 102"/>
<path stroke-width="1" stroke="black" d="M 298 113 113 125"/>
<path stroke-width="1" stroke="black" d="M 298 113 158 92"/>
<path stroke-width="1" stroke="black" d="M 298 113 229 192"/>
<path stroke-width="1" stroke="black" d="M 298 113 293 196"/>
<path stroke-width="1" stroke="black" d="M 374 164 310 149"/>
<path stroke-width="1" stroke="black" d="M 310 149 165 182"/>
<path stroke-width="1" stroke="black" d="M 310 149 246 105"/>
<path stroke-width="1" stroke="black" d="M 310 149 274 67"/>
<path stroke-width="1" stroke="black" d="M 310 149 227 66"/>
<path stroke-width="1" stroke="black" d="M 310 149 112 98"/>
<path stroke-width="1" stroke="black" d="M 111 153 112 98"/>
<path stroke-width="1" stroke="black" d="M 310 149 244 181"/>
<path stroke-width="1" stroke="black" d="M 310 149 298 113"/>
<path stroke-width="1" stroke="black" d="M 310 149 374 164"/>
<path stroke-width="1" stroke="black" d="M 310 149 111 153"/>
<path stroke-width="1" stroke="black" d="M 310 149 334 102"/>
<path stroke-width="1" stroke="black" d="M 310 149 113 125"/>
<path stroke-width="1" stroke="black" d="M 310 149 158 92"/>
<path stroke-width="1" stroke="black" d="M 310 149 229 192"/>
<path stroke-width="1" stroke="black" d="M 310 149 293 196"/>
<path stroke-width="1" stroke="black" d="M 45 167 111 153"/>
<path stroke-width="1" stroke="black" d="M 111 153 165 182"/>
<path stroke-width="1" stroke="black" d="M 111 153 246 105"/>
<path stroke-width="1" stroke="black" d="M 111 153 274 67"/>
<path stroke-width="1" stroke="black" d="M 310 149 180 60"/>
<path stroke-width="1" stroke="black" d="M 298 113 310 149"/>
<path stroke-width="1" stroke="black" d="M 113 125 274 67"/>
<path stroke-width="1" stroke="black" d="M 113 125 112 98"/>
<path stroke-width="1" stroke="black" d="M 229 192 227 66"/>
<path stroke-width="1" stroke="black" d="M 229 192 112 98"/>
<path stroke-width="1" stroke="black" d="M 229 192 244 181"/>
<path stroke-width="1" stroke="black" d="M 229 192 180 60"/>
<path stroke-width="1" stroke="black" d="M 229 192 298 113"/>
<path stroke-width="1" stroke="black" d="M 229 192 310 149"/>
<path stroke-width="1" stroke="black" d="M 229 192 111 153"/>
<path stroke-width="1" stroke="black" d="M 229 192 334 102"/>
<path stroke-width="1" stroke="black" d="M 229 192 113 125"/>
<path stroke-width="1" stroke="black" d="M 229 192 158 92"/>
<path stroke-width="1" stroke="black" d="M 229 192 259 254"/>
<path stroke-width="1" stroke="black" d="M 229 192 293 196"/>
<path stroke-width="1" stroke="black" d="M 229 192 274 67"/>
<path stroke-width="1" stroke="black" d="M 384 320 293 196"/>
<path stroke-width="1" stroke="black" d="M 293 196 246 105"/>
<path stroke-width="1" stroke="black" d="M 293 196 274 67"/>
<path stroke-width="1" stroke="black" d="M 293 196 227 66"/>
<path stroke-width="1" stroke="black" d="M 293 196 112 98"/>
<path stroke-width="1" stroke="black" d="M 293 196 244 181"/>
<path stroke-width="1" stroke="black" d="M 293 196 180 60"/>
<path stroke-width="1" stroke="black" d="M 293 196 298 113"/>
<path stroke-width="1" stroke="black" d="M 293 196 310 149"/>
<path stroke-width="1" stroke="black" d="M 293 196 111 153"/>
<path stroke-width="1" stroke="black" d="M 293 196 334 102"/>
<path stroke-width="1" stroke="black" d="M 293 196 113 125"/>
<path stroke-width="1" stroke="black" d="M 293 196 158 92"/>
<path stroke-width="1" stroke="black" d="M 293 196 165 182"/>
<path stroke-width="1" stroke="black" d="M 113 125 227 66"/>
<path stroke-width="1" stroke="black" d="M 229 192 246 105"/>
<path stroke-width="1" stroke="black" d="M 259 254 229 192"/>
<path stroke-width="1" stroke="black" d="M 113 125 244 181"/>
<path stroke-width="1" stroke="black" d="M 113 125 180 60"/>
<path stroke-width="1" stroke="black" d="M 113 125 298 113"/>
<path stroke-width="1" stroke="black" d="M 113 125 310 149"/>
<path stroke-width="1" stroke="black" d="M 113 125 111 153"/>
<path stroke-width="1" stroke="black" d="M 113 125 334 102"/>
<path stroke-width="1" stroke="black" d="M 113 125 20 123"/>
<path stroke-width="1" stroke="black" d="M 113 125 158 92"/>
<path stroke-width="1" stroke="black" d="M 113 125 229 192"/>
<path stroke-width="1" stroke="black" d="M 113 125 293 196"/>
<path stroke-width="1" stroke="black" d="M 97 44 158 92"/>
<path stroke-width="1" stroke="black" d="M 158 92 165 182"/>
<path stroke-width="1" stroke="black" d="M 229 192 165 182"/>
<path stroke-width="1" stroke="black" d="M 158 92 246 105"/>
<path stroke-width="1" stroke="black" d="M 158 92 227 66"/>
<path stroke-width="1" stroke="black" d="M 158 92 112 98"/>
<path stroke-width="1" stroke="black" d="M 158 92 244 181"/>
<path stroke-width="1" stroke="black" d="M 158 92 180 60"/>
<path stroke-width="1" stroke="black" d="M 158 92 298 113"/>
<path stroke-width="1" stroke="black" d="M 158 92 310 149"/>
<path stroke-width="1" stroke="black" d="M 158 92 111 153"/>
<path stroke-width="1" stroke="black" d="M 158 92 334 102"/>
<path stroke-width="1" stroke="black" d="M 158 92 113 125"/>
<path stroke-width="1" stroke="black" d="M 158 92 97 44"/>
<path stroke-width="1" stroke="black" d="M 158 92 229 192"/>
<path stroke-width="1" stroke="black" d="M 158 92 293 196"/>
<path stroke-width="1" stroke="black" d="M 158 92 274 67"/>
<path stroke-width="1" stroke="black" d="M 298 113 346 100"/>
<path stroke-width="1" stroke="black" d="M 298 113 180 60"/>
<path stroke-width="1" stroke="black" d="M 298 113 244 181"/>
<path stroke-width="1" stroke="black" d="M 246 105 293 196"/>
<path stroke-width="1" stroke="black" d="M 295 39 274 67"/>
<path stroke-width="1" stroke="black" d="M 274 67 165 182"/>
<path stroke-width="1" stroke="black" d="M 274 67 246 105"/>
<path stroke-width="1" stroke="black" d="M 274 67 295 39"/>
<path stroke-width="1" stroke="black" d="M 274 67 227 66"/>
<path stroke-width="1" stroke="black" d="M 274 67 112 98"/>
<path stroke-width="1" stroke="black" d="M 274 67 244 181"/>
<path stroke-width="1" stroke="black" d="M 274 67 180 60"/>
<path stroke-width="1" stroke="black" d="M 274 67 298 113"/>
<path stroke-width="1" stroke="black" d="M 274 67 310 149"/>
<path stroke-width="1" stroke="black" d="M 274 67 111 153"/>
<path stroke-width="1" stroke="black" d="M 246 105 229 192"/>
<path stroke-width="1" stroke="black" d="M 274 67 334 102"/>
<path stroke-width="1" stroke="black" d="M 274 67 158 92"/>
<path stroke-width="1" stroke="black" d="M 274 67 229 192"/>
<path stroke-width="1" stroke="black" d="M 274 67 293 196"/>
<path stroke-width="1" stroke="black" d="M 227 32 227 66"/>
<path stroke-width="1" stroke="black" d="M 227 66 165 182"/>
<path stroke-width="1" stroke="black" d="M 227 66 246 105"/>
<path stroke-width="1" stroke="black" d="M 227 66 274 67"/>
<path stroke-width="1" stroke="black" d="M 227 66 227 32"/>
<path stroke-width="1" stroke="black" d="M 227 66 112 98"/>
<path stroke-width="1" stroke="black" d="M 227 66 244 181"/>
<path stroke-width="1" stroke="black" d="M 227 66 180 60"/>
<path stroke-width="1" stroke="black" d="M 227 66 298 113"/>
<path stroke-width="1" stroke="black" d="M 274 67 113 125"/>
<path stroke-width="1" stroke="black" d="M 227 66 310 149"/>
<path stroke-width="1" stroke="black" d="M 246 105 158 92"/>
<path stroke-width="1" stroke="black" d="M 246 105 334 102"/>
<path stroke-width="1" stroke="black" d="M 165 182 145 205"/>
<path stroke-width="1" stroke="black" d="M 165 182 246 105"/>
<path stroke-width="1" stroke="black" d="M 165 182 274 67"/>
<path stroke-width="1" stroke="black" d="M 165 182 227 66"/>
<path stroke-width="1" stroke="black" d="M 165 182 112 98"/>
<path stroke-width="1" stroke="black" d="M 165 182 244 181"/>
<path stroke-width="1" stroke="black" d="M 165 182 180 60"/>
<path stroke-width="1" stroke="black" d="M 165 182 298 113"/>
<path stroke-width="1" stroke="black" d="M 165 182 310 149"/>
<path stroke-width="1" stroke="black" d="M 165 182 111 153"/>
<path stroke-width="1" stroke="black" d="M 165 182 334 102"/>
<path stroke-width="1" stroke="black" d="M 165 182 113 125"/>
<path stroke-width="1" stroke="black" d="M 246 105 113 125"/>
<path stroke-width="1" stroke="black" d="M 165 182 158 92"/>
<path stroke-width="1" stroke="black" d="M 165 182 293 196"/>
<path stroke-width="1" stroke="black" d="M 231 116 246 105"/>
<path stroke-width="1" stroke="black" d="M 246 105 165 182"/>
<path stroke-width="1" stroke="black" d="M 246 105 231 116"/>
<path stroke-width="1" stroke="black" d="M 246 105 274 67"/>
<path stroke-width="1" stroke="black" d="M 246 105 227 66"/>
<path stroke-width="1" stroke="black" d="M 246 105 112 98"/>
<path stroke-width="1" stroke="black" d="M 246 105 244 181"/>
<path stroke-width="1" stroke="black" d="M 246 105 180 60"/>
<path stroke-width="1" stroke="black" d="M 246 105 298 113"/>
<path stroke-width="1" stroke="black" d="M 246 105 310 149"/>
<path stroke-width="1" stroke="black" d="M 246 105 111 153"/>
<path stroke-width="1" stroke="black" d="M 165 182 229 192"/>
<path stroke-width="1" stroke="black" d="M 227 66 111 153"/>
<path stroke-width="1" stroke="black" d="M 227 66 334 102"/>
<path stroke-width="1" stroke="black" d="M 227 66 113 125"/>
<path stroke-width="1" stroke="black" d="M 244 181 113 125"/>
<path stroke-width="1" stroke="black" d="M 244 181 158 92"/>
<path stroke-width="1" stroke="black" d="M 244 181 229 192"/>
<path stroke-width="1" stroke="black" d="M 244 181 293 196"/>
<path stroke-width="1" stroke="black" d="M 159 20 180 60"/>
<path stroke-width="1" stroke="black" d="M 180 60 165 182"/>
<path stroke-width="1" stroke="black" d="M 180 60 246 105"/>
<path stroke-width="1" stroke="black" d="M 180 60 274 67"/>
<path stroke-width="1" stroke="black" d="M 180 60 227 66"/>
<path stroke-width="1" stroke="black" d="M 180 60 112 98"/>
<path stroke-width="1" stroke="black" d="M 180 60 244 181"/>
<path stroke-width="1" stroke="black" d="M 180 60 159 20"/>
<path stroke-width="1" stroke="black" d="M 244 181 334 102"/>
<path stroke-width="1" stroke="black" d="M 180 60 298 113"/>
<path stroke-width="1" stroke="black" d="M 180 60 111 153"/>
<path stroke-width="1" stroke="black" d="M 180 60 334 102"/>
<path stroke-width="1" stroke="black" d="M 180 60 113 125"/>
<path stroke-width="1" stroke="black" d="M 180 60 158 92"/>
<path stroke-width="1" stroke="black" d="M 180 60 229 192"/>
<path stroke-width="1" stroke="black" d="M 180 60 293 196"/>
<path stroke-width="1" stroke="black" d="M 346 100 298 113"/>
<path stroke-width="1" stroke="black" d="M 298 113 165 182"/>
<path stroke-width="1" stroke="black" d="M 298 113 246 105"/>
<path stroke-width="1" stroke="black" d="M 298 113 274 67"/>
<path stroke-width="1" stroke="black" d="M 298 113 227 66"/>
<path stroke-width="1" stroke="black" d="M 298 113 112 98"/>
<path stroke-width="1" stroke="black" d="M 180 60 310 149"/>
<path stroke-width="1" stroke="black" d="M 244 181 111 153"/>
<path stroke-width="1" stroke="black" d="M 244 181 310 149"/>
<path stroke-width="1" stroke="black" d="M 244 181 298 113"/>
<path stroke-width="1" stroke="black" d="M 227 66 158 92"/>
<path stroke-width="1" stroke="black" d="M 227 66 229 192"/>
<path stroke-width="1" stroke="black" d="M 227 66 293 196"/>
<path stroke-width="1" stroke="black" d="M 61 79 112 98"/>
<path stroke-width="1" stroke="black" d="M 112 98 165 182"/>
<path stroke-width="1" stroke="black" d="M 112 98 246 105"/>
<path stroke-width="1" stroke="black" d="M 112 98 274 67"/>
<path stroke-width="1" stroke="black" d="M 112 98 227 66"/>
<path stroke-width="1" stroke="black" d="M 112 98 61 79"/>
<path stroke-width="1" stroke="black" d="M 112 98 244 181"/>
<path stroke-width="1" stroke="black" d="M 112 98 180 60"/>
<path stroke-width="1" stroke="black" d="M 112 98 298 113"/>
<path stroke-width="1" stroke="black" d="M 112 98 310 149"/>
<path stroke-width="1" stroke="black" d="M 112 98 111 153"/>
<path stroke-width="1" stroke="black" d="M 112 98 334 102"/>
<path stroke-width="1" stroke="black" d="M 112 98 113 125"/>
<path stroke-width="1" stroke="black" d="M 112 98 158 92"/>
<path stroke-width="1" stroke="black" d="M 112 98 229 192"/>
<path stroke-width="1" stroke="black" d="M 112 98 293 196"/>
<path stroke-width="1" stroke="black" d="M 256 213 244 181"/>
<path stroke-width="1" stroke="black" d="M 244 181 165 182"/>
<path stroke-width="1" stroke="black" d="M 244 181 246 105"/>
<path stroke-width="1" stroke="black" d="M 244 181 274 67"/>
<path stroke-width="1" stroke="black" d="M 244 181 227 66"/>
<path stroke-width="1" stroke="black" d="M 244 181 112 98"/>
<path stroke-width="1" stroke="black" d="M 244 181 256 213"/>
<path stroke-width="1" stroke="black" d="M 244 181 180 60"/>
<path stroke-width="1" stroke="black" d="M 293 196 229 192"/>
<path stroke-width="1" stroke="black" d="M 293 196 384 320"/>
<circle cx="145" cy="205" r="7.0" style="fill:red;stroke:black;stroke-width:1.0"/>
<circle cx="165" cy="182" r="7.0" style="fill:red;stroke:black;stroke-width:1.0"/>
<circle cx="231" cy="116" r="7.0" style="fill:green;stroke:black;stroke-width:1.0"/>
<circle cx="246" cy="105" r="7.0" style="fill:green;stroke:black;stroke-width:1.0"/>
<circle cx="295" cy="39" r="7.0" style="fill:orange;stroke:black;stroke-width:1.0"/>
<circle cx="274" cy="67" r="7.0" style="fill:orange;stroke:black;stroke-width:1.0"/>
<circle cx="227" cy="32" r="7.0" style="fill:purple;stroke:black;stroke-width:1.0"/>
<circle cx="227" cy="66" r="7.0" style="fill:purple;stroke:black;stroke-width:1.0"/>
<circle cx="61" cy="79" r="7.0" style="fill:yellow;stroke:black;stroke-width:1.0"/>
<circle cx="112" cy="98" r="7.0" style="fill:yellow;stroke:black;stroke-width:1.0"/>
<circle cx="256" cy="213" r="7.0" style="fill:fuchsia;stroke:black;stroke-width:1.0"/>
<circle cx="244" cy="181" r="7.0" style="fill:fuchsia;stroke:black;stroke-width:1.0"/>
<circle cx="159" cy="20" r="7.0" style="fill:olive;stroke:black;stroke-width:1.0"/>
<circle cx="180" cy="60" r="7.0" style="fill:olive;stroke:black;stroke-width:1.0"/>
<circle cx="346" cy="100" r="7.0" style="fill:aqua;stroke:black;stroke-width:1.0"/>
<circle cx="298" cy="113" r="7.0" style="fill:aqua;stroke:black;stroke-width:1.0"/>
<circle cx="374" cy="164" r="7.0" style="fill:brown;stroke:black;stroke-width:1.0"/>
<circle cx="310" cy="149" r="7.0" style="fill:brown;stroke:black;stroke-width:1.0"/>
<circle cx="45" cy="167" r="7.0" style="fill:blue;stroke:black;stroke-width:1.0"/>
<circle cx="111" cy="153" r="7.0" style="fill:blue;stroke:black;stroke-width:1.0"/>
<circle cx="420" cy="84" r="7.0" style="fill:red;stroke:black;stroke-width:1.0"/>
<circle cx="334" cy="102" r="7.0" style="fill:red;stroke:black;stroke-width:1.0"/>
<circle cx="20" cy="123" r="7.0" style="fill:orange;stroke:black;stroke-width:1.0"/>
<circle cx="113" cy="125" r="7.0" style="fill:orange;stroke:black;stroke-width:1.0"/>
<circle cx="97" cy="44" r="7.0" style="fill:blue;stroke:black;stroke-width:1.0"/>
<circle cx="158" cy="92" r="7.0" style="fill:blue;stroke:black;stroke-width:1.0"/>
<circle cx="259" cy="254" r="7.0" style="fill:green;stroke:black;stroke-width:1.0"/>
<circle cx="229" cy="192" r="7.0" style="fill:green;stroke:black;stroke-width:1.0"/>
<circle cx="384" cy="320" r="7.0" style="fill:blue;stroke:black;stroke-width:1.0"/>
<circle cx="293" cy="196" r="7.0" style="fill:blue;stroke:black;stroke-width:1.0"/>
</svg>
