<svg width="440" height="340" xmlns="http://www.w3.org/2000/svg">
<path stroke-width="1" stroke="black" d="M 345 248 295 230"/>
<path stroke-width="1" stroke="black" d="M 101 205 161 239"/>
<path stroke-width="1" stroke="black" d="M 101 205 207 269"/>
<path stroke-width="1" stroke="black" d="M 101 205 20 203"/>
<path stroke-width="1" stroke="black" d="M 101 205 226 180"/>
<path stroke-width="1" stroke="black" d="M 101 205 331 214"/>
<path stroke-width="1" stroke="black" d="M 101 205 170 185"/>
<path stroke-width="1" stroke="black" d="M 101 205 191 153"/>
<path stroke-width="1" stroke="black" d="M 101 205 232 134"/>
<path stroke-width="1" stroke="black" d="M 251 146 226 180"/>
<path stroke-width="1" stroke="black" d="M 226 180 295 230"/>
<path stroke-width="1" stroke="black" d="M 226 180 203 221"/>
<path stroke-width="1" stroke="black" d="M 226 180 274 215"/>
<path stroke-width="1" stroke="black" d="M 101 205 283 165"/>
<path stroke-width="1" stroke="black" d="M 226 180 122 232"/>
<path stroke-width="1" stroke="black" d="M 226 180 264 261"/>
<path stroke-width="1" stroke="black" d="M 226 180 283 165"/>
<path stroke-width="1" stroke="black" d="M 226 180 161 239"/>
<path stroke-width="1" stroke="black" d="M 226 180 207 269"/>
<path stroke-width="1" stroke="black" d="M 226 180 101 205"/>
<path stroke-width="1" stroke="black" d="M 226 180 251 146"/>
<path stroke-width="1" stroke="black" d="M 226 180 331 214"/>
<path stroke-width="1" stroke="black" d="M 226 180 170 185"/>
<path stroke-width="1" stroke="black" d="M 226 180 191 153"/>
<path stroke-width="1" stroke="black" d="M 226 180 232 134"/>
<path stroke-width="1" stroke="black" d="M 420 228 331 214"/>
<path stroke-width="1" stroke="black" d="M 331 214 295 230"/>
<path stroke-width="1" stroke="black" d="M 226 180 114 177"/>
<path stroke-width="1" stroke="black" d="M 331 214 203 221"/>
<path stroke-width="1" stroke="black" d="M 101 205 264 261"/>
<path stroke-width="1" stroke="black" d="M 101 205 122 232"/>
<path stroke-width="1" stroke="black" d="M 161 239 101 205"/>
<path stroke-width="1" stroke="black" d="M 161 239 226 180"/>
<path stroke-width="1" stroke="black" d="M 161 239 331 214"/>
<path stroke-width="1" stroke="black" d="M 161 239 170 185"/>
<path stroke-width="1" stroke="black" d="M 161 239 191 153"/>
<path stroke-width="1" stroke="black" d="M 161 239 232 134"/>
<path stroke-width="1" stroke="black" d="M 206 320 207 269"/>
<path stroke-width="1" stroke="black" d="M 207 269 295 230"/>
<path stroke-width="1" stroke="black" d="M 207 269 203 221"/>
<path stroke-width="1" stroke="black" d="M 207 269 274 215"/>
<path stroke-width="1" stroke="black" d="M 207 269 122 232"/>
<path stroke-width="1" stroke="black" d="M 207 269 114 177"/>
<path stroke-width="1" stroke="black" d="M 101 205 114 177"/>
<path stroke-width="1" stroke="black" d="M 207 269 264 261"/>
<path stroke-width="1" stroke="black" d="M 207 269 161 239"/>
<path stroke-width="1" stroke="black" d="M 207 269 206 320"/>
<path stroke-width="1" stroke="black" d="M 207 269 101 205"/>
<path stroke-width="1" stroke="black" d="M 207 269 226 180"/>
<path stroke-width="1" stroke="black" d="M 207 269 331 214"/>
<path stroke-width="1" stroke="black" d="M 207 269 170 185"/>
<path stroke-width="1" stroke="black" d="M 207 269 191 153"/>
<path stroke-width="1" stroke="black" d="M 207 269 232 134"/>
<path stroke-width="1" stroke="black" d="M 20 203 101 205"/>
<path stroke-width="1" stroke="black" d="M 101 205 295 230"/>
<path stroke-width="1" stroke="black" d="M 101 205 203 221"/>
<path stroke-width="1" stroke="black" d="M 101 205 274 215"/>
<path stroke-width="1" stroke="black" d="M 207 269 283 165"/>
<path stroke-width="1" stroke="black" d="M 161 239 207 269"/>
<path stroke-width="1" stroke="black" d="M 331 214 274 215"/>
<path stroke-width="1" stroke="black" d="M 331 214 114 177"/>
<path stroke-width="1" stroke="black" d="M 191 153 122 232"/>
<path stroke-width="1" stroke="black" d="M 191 153 114 177"/>
<path stroke-width="1" stroke="black" d="M 191 153 264 261"/>
<path stroke-width="1" stroke="black" d="M 191 153 283 165"/>
<path stroke-width="1" stroke="black" d="M 191 153 161 239"/>
<path stroke-width="1" stroke="black" d="M 191 153 207 269"/>
<path stroke-width="1" stroke="black" d="M 191 153 101 205"/>
<path stroke-width="1" stroke="black" d="M 191 153 226 180"/>
<path stroke-width="1" stroke="black" d="M 191 153 331 214"/>
<path stroke-width="1" stroke="black" d="M 191 153 170 185"/>
<path stroke-width="1" stroke="black" d="M 191 153 163 93"/>
<path stroke-width="1" stroke="black" d="M 191 153 232 134"/>
<path stroke-width="1" stroke="black" d="M 191 153 274 215"/>
<path stroke-width="1" stroke="black" d="M 262 20 232 134"/>
<path stroke-width="1" stroke="black" d="M 232 134 203 221"/>
<path stroke-width="1" stroke="black" d="M 232 134 274 215"/>
<path stroke-width="1" stroke="black" d="M 232 134 122 232"/>
<path stroke-width="1" stroke="black" d="M 232 134 114 177"/>
<path stroke-width="1" stroke="black" d="M 232 134 264 261"/>
<path stroke-width="1" stroke="black" d="M 232 134 283 165"/>
<path stroke-width="1" stroke="black" d="M 232 134 161 239"/>
<path stroke-width="1" stroke="black" d="M 232 134 207 269"/>
<path stroke-width="1" stroke="black" d="M 232 134 101 205"/>
<path stroke-width="1" stroke="black" d="M 232 134 226 180"/>
<path stroke-width="1" stroke="black" d="M 232 134 331 214"/>
<path stroke-width="1" stroke="black" d="M 232 134 170 185"/>
<path stroke-width="1" stroke="black" d="M 232 134 295 230"/>
<path stroke-width="1" stroke="black" d="M 331 214 122 232"/>
<path stroke-width="1" stroke="black" d="M 191 153 203 221"/>
<path stroke-width="1" stroke="black" d="M 163 93 191 153"/>
<path stroke-width="1" stroke="black" d="M 331 214 264 261"/>
<path stroke-width="1" stroke="black" d="M 331 214 283 165"/>
<path stroke-width="1" stroke="black" d="M 331 214 161 239"/>
<path stroke-width="1" stroke="black" d="M 331 214 207 269"/>
<path stroke-width="1" stroke="black" d="M 331 214 101 205"/>
<path stroke-width="1" stroke="black" d="M 331 214 226 180"/>
<path stroke-width="1" stroke="black" d="M 331 214 420 228"/>
<path stroke-width="1" stroke="black" d="M 331 214 170 185"/>
<path stroke-width="1" stroke="black" d="M 331 214 191 153"/>
<path stroke-width="1" stroke="black" d="M 331 214 232 134"/>
<path stroke-width="1" stroke="black" d="M 124 147 170 185"/>
<path stroke-width="1" stroke="black" d="M 170 185 295 230"/>
<path stroke-width="1" stroke="black" d="M 191 153 295 230"/>
<path stroke-width="1" stroke="black" d="M 170 185 203 221"/>
<path stroke-width="1" stroke="black" d="M 170 185 122 232"/>
<path stroke-width="1" stroke="black" d="M 170 185 114 177"/>
<path stroke-width="1" stroke="black" d="M 170 185 264 261"/>
<path stroke-width="1" stroke="black" d="M 170 185 283 165"/>
<path stroke-width="1" stroke="black" d="M 170 185 161 239"/>
<path stroke-width="1" stroke="black" d="M 170 185 207 269"/>
<path stroke-width="1" stroke="black" d="M 170 185 101 205"/>
<path stroke-width="1" stroke="black" d="M 170 185 226 180"/>
<path stroke-width="1" stroke="black" d="M 170 185 331 214"/>
<path stroke-width="1" stroke="black" d="M 170 185 124 147"/>
<path stroke-width="1" stroke="black" d="M 170 185 191 153"/>
<path stroke-width="1" stroke="black" d="M 170 185 232 134"/>
<path stroke-width="1" stroke="black" d="M 170 185 274 215"/>
<path stroke-width="1" stroke="black" d="M 161 239 125 272"/>
<path stroke-width="1" stroke="black" d="M 161 239 283 165"/>
<path stroke-width="1" stroke="black" d="M 161 239 264 261"/>
<path stroke-width="1" stroke="black" d="M 203 221 232 134"/>
<path stroke-width="1" stroke="black" d="M 285 210 274 215"/>
<path stroke-width="1" stroke="black" d="M 274 215 295 230"/>
<path stroke-width="1" stroke="black" d="M 274 215 203 221"/>
<path stroke-width="1" stroke="black" d="M 274 215 285 210"/>
<path stroke-width="1" stroke="black" d="M 274 215 122 232"/>
<path stroke-width="1" stroke="black" d="M 274 215 114 177"/>
<path stroke-width="1" stroke="black" d="M 274 215 264 261"/>
<path stroke-width="1" stroke="black" d="M 274 215 283 165"/>
<path stroke-width="1" stroke="black" d="M 274 215 161 239"/>
<path stroke-width="1" stroke="black" d="M 274 215 207 269"/>
<path stroke-width="1" stroke="black" d="M 274 215 101 205"/>
<path stroke-width="1" stroke="black" d="M 203 221 191 153"/>
<path stroke-width="1" stroke="black" d="M 274 215 226 180"/>
<path stroke-width="1" stroke="black" d="M 274 215 170 185"/>
<path stroke-width="1" stroke="black" d="M 274 215 191 153"/>
<path stroke-width="1" stroke="black" d="M 274 215 232 134"/>
<path stroke-width="1" stroke="black" d="M 67 268 122 232"/>
<path stroke-width="1" stroke="black" d="M 122 232 295 230"/>
<path stroke-width="1" stroke="black" d="M 122 232 203 221"/>
<path stroke-width="1" stroke="black" d="M 122 232 274 215"/>
<path stroke-width="1" stroke="black" d="M 122 232 67 268"/>
<path stroke-width="1" stroke="black" d="M 122 232 114 177"/>
<path stroke-width="1" stroke="black" d="M 122 232 264 261"/>
<path stroke-width="1" stroke="black" d="M 122 232 283 165"/>
<path stroke-width="1" stroke="black" d="M 122 232 161 239"/>
<path stroke-width="1" stroke="black" d="M 274 215 331 214"/>
<path stroke-width="1" stroke="black" d="M 122 232 207 269"/>
<path stroke-width="1" stroke="black" d="M 203 221 170 185"/>
<path stroke-width="1" stroke="black" d="M 203 221 226 180"/>
<path stroke-width="1" stroke="black" d="M 295 230 345 248"/>
<path stroke-width="1" stroke="black" d="M 295 230 203 221"/>
<path stroke-width="1" stroke="black" d="M 295 230 274 215"/>
<path stroke-width="1" stroke="black" d="M 295 230 122 232"/>
<path stroke-width="1" stroke="black" d="M 295 230 114 177"/>
<path stroke-width="1" stroke="black" d="M 295 230 264 261"/>
<path stroke-width="1" stroke="black" d="M 295 230 283 165"/>
<path stroke-width="1" stroke="black" d="M 295 230 161 239"/>
<path stroke-width="1" stroke="black" d="M 295 230 207 269"/>
<path stroke-width="1" stroke="black" d="M 295 230 101 205"/>
<path stroke-width="1" stroke="black" d="M 295 230 226 180"/>
<path stroke-width="1" stroke="black" d="M 295 230 331 214"/>
<path stroke-width="1" stroke="black" d="M 203 221 331 214"/>
<path stroke-width="1" stroke="black" d="M 295 230 170 185"/>
<path stroke-width="1" stroke="black" d="M 295 230 232 134"/>
<path stroke-width="1" stroke="black" d="M 203 243 203 221"/>
<path stroke-width="1" stroke="black" d="M 203 221 295 230"/>
<path stroke-width="1" stroke="black" d="M 203 221 203 243"/>
<path stroke-width="1" stroke="black" d="M 203 221 274 215"/>
<path stroke-width="1" stroke="black" d="M 203 221 122 232"/>
<path stroke-width="1" stroke="black" d="M 203 221 114 177"/>
<path stroke-width="1" stroke="black" d="M 203 221 264 261"/>
<path stroke-width="1" stroke="black" d="M 203 221 283 165"/>
<path stroke-width="1" stroke="black" d="M 203 221 161 239"/>
<path stroke-width="1" stroke="black" d="M 203 221 207 269"/>
<path stroke-width="1" stroke="black" d="M 203 221 101 205"/>
<path stroke-width="1" stroke="black" d="M 295 230 191 153"/>
<path stroke-width="1" stroke="black" d="M 122 232 101 205"/>
<path stroke-width="1" stroke="black" d="M 122 232 226 180"/>
<path stroke-width="1" stroke="black" d="M 122 232 331 214"/>
<path stroke-width="1" stroke="black" d="M 264 261 331 214"/>
<path stroke-width="1" stroke="black" d="M 264 261 170 185"/>
<path stroke-width="1" stroke="black" d="M 264 261 191 153"/>
<path stroke-width="1" stroke="black" d="M 264 261 232 134"/>
<path stroke-width="1" stroke="black" d="M 325 136 283 165"/>
<path stroke-width="1" stroke="black" d="M 283 165 295 230"/>
<path stroke-width="1" stroke="black" d="M 283 165 203 221"/>
<path stroke-width="1" stroke="black" d="M 283 165 274 215"/>
<path stroke-width="1" stroke="black" d="M 283 165 122 232"/>
<path stroke-width="1" stroke="black" d="M 283 165 114 177"/>
<path stroke-width="1" stroke="black" d="M 283 165 264 261"/>
<path stroke-width="1" stroke="black" d="M 283 165 325 136"/>
<path stroke-width="1" stroke="black" d="M 264 261 226 180"/>
<path stroke-width="1" stroke="black" d="M 283 165 161 239"/>
<path stroke-width="1" stroke="black" d="M 283 165 101 205"/>
<path stroke-width="1" stroke="black" d="M 283 165 226 180"/>
<path stroke-width="1" stroke="black" d="M 283 165 331 214"/>
<path stroke-width="1" stroke="black" d="M 283 165 170 185"/>
<path stroke-width="1" stroke="black" d="M 283 165 191 153"/>
<path stroke-width="1" stroke="black" d="M 283 165 232 134"/>
<path stroke-width="1" stroke="black" d="M 125 272 161 239"/>
<path stroke-width="1" stroke="black" d="M 161 239 295 230"/>
<path stroke-width="1" stroke="black" d="M 161 239 203 221"/>
<path stroke-width="1" stroke="black" d="M 161 239 274 215"/>
<path stroke-width="1" stroke="black" d="M 161 239 122 232"/>
<path stroke-width="1" stroke="black" d="M 161 239 114 177"/>
<path stroke-width="1" stroke="black" d="M 283 165 207 269"/>
<path stroke-width="1" stroke="black" d="M 264 261 101 205"/>
<path stroke-width="1" stroke="black" d="M 264 261 207 269"/>
<path stroke-width="1" stroke="black" d="M 264 261 161 239"/>
<path stroke-width="1" stroke="black" d="M 122 232 170 185"/>
<path stroke-width="1" stroke="black" d="M 122 232 191 153"/>
<path stroke-width="1" stroke="black" d="M 122 232 232 134"/>
<path stroke-width="1" stroke="black" d="M 58 153 114 177"/>
<path stroke-width="1" stroke="black" d="M 114 177 295 230"/>
<path stroke-width="1" stroke="black" d="M 114 177 203 221"/>
<path stroke-width="1" stroke="black" d="M 114 177 274 215"/>
<path stroke-width="1" stroke="black" d="M 114 177 122 232"/>
<path stroke-width="1" stroke="black" d="M 114 177 58 153"/>
<path stroke-width="1" stroke="black" d="M 114 177 264 261"/>
<path stroke-width="1" stroke="black" d="M 114 177 283 165"/>
<path stroke-width="1" stroke="black" d="M 114 177 161 239"/>
<path stroke-width="1" stroke="black" d="M 114 177 207 269"/>
<path stroke-width="1" stroke="black" d="M 114 177 101 205"/>
<path stroke-width="1" stroke="black" d="M 114 177 226 180"/>
<path stroke-width="1" stroke="black" d="M 114 177 331 214"/>
<path stroke-width="1" stroke="black" d="M 114 177 170 185"/>
<path stroke-width="1" stroke="black" d="M 114 177 191 153"/>
<path stroke-width="1" stroke="black" d="M 114 177 232 134"/>
<path stroke-width="1" stroke="black" d="M 297 300 264 261"/>
<path stroke-width="1" stroke="black" d="M 264 261 295 230"/>
<path stroke-width="1" stroke="black" d="M 264 261 203 221"/>
<path stroke-width="1" stroke="black" d="M 264 261 274 215"/>
<path stroke-width="1" stroke="black" d="M 264 261 122 232"/>
<path stroke-width="1" stroke="black" d="M 264 261 114 177"/>
<path stroke-width="1" stroke="black" d="M 264 261 297 300"/>
<path stroke-width="1" stroke="black" d="M 264 261 283 165"/>
<path stroke-width="1" stroke="black" d="M 232 134 191 153"/>
<path stroke-width="1" stroke="black" d="M 232 134 262 20"/>
<circle cx="345" cy="248" r="7.0" style="fill:red;stroke:black;stroke-width:1.0"/>
<circle cx="295" cy="230" r="7.0" style="fill:red;stroke:black;stroke-width:1.0"/>
<circle cx="203" cy="243" r="7.0" style="fill:green;stroke:black;stroke-width:1.0"/>
<circle cx="203" cy="221" r="7.0" style="fill:green;stroke:black;stroke-width:1.0"/>
<circle cx="285" cy="210" r="7.0" style="fill:orange;stroke:black;stroke-width:1.0"/>
<circle cx="274" cy="215" r="7.0" style="fill:orange;stroke:black;stroke-width:1.0"/>
<circle cx="67" cy="268" r="7.0" style="fill:purple;stroke:black;stroke-width:1.0"/>
<circle cx="122" cy="232" r="7.0" style="fill:purple;stroke:black;stroke-width:1.0"/>
<circle cx="58" cy="153" r="7.0" style="fill:yellow;stroke:black;stroke-width:1.0"/>
<circle cx="114" cy="177" r="7.0" style="fill:yellow;stroke:black;stroke-width:1.0"/>
<circle cx="297" cy="300" r="7.0" style="fill:fuchsia;stroke:black;stroke-width:1.0"/>
<circle cx="264" cy="261" r="7.0" style="fill:fuchsia;stroke:black;stroke-width:1.0"/>
<circle cx="325" cy="136" r="7.0" style="fill:olive;stroke:black;stroke-width:1.0"/>
<circle cx="283" cy="165" r="7.0" style="fill:olive;stroke:black;stroke-width:1.0"/>
<circle cx="125" cy="272" r="7.0" style="fill:aqua;stroke:black;stroke-width:1.0"/>
<circle cx="161" cy="239" r="7.0" style="fill:aqua;stroke:black;stroke-width:1.0"/>
<circle cx="206" cy="320" r="7.0" style="fill:brown;stroke:black;stroke-width:1.0"/>
<circle cx="207" cy="269" r="7.0" style="fill:brown;stroke:black;stroke-width:1.0"/>
<circle cx="20" cy="203" r="7.0" style="fill:blue;stroke:black;stroke-width:1.0"/>
<circle cx="101" cy="205" r="7.0" style="fill:blue;stroke:black;stroke-width:1.0"/>
<circle cx="251" cy="146" r="7.0" style="fill:red;stroke:black;stroke-width:1.0"/>
<circle cx="226" cy="180" r="7.0" style="fill:red;stroke:black;stroke-width:1.0"/>
<circle cx="420" cy="228" r="7.0" style="fill:orange;stroke:black;stroke-width:1.0"/>
<circle cx="331" cy="214" r="7.0" style="fill:orange;stroke:black;stroke-width:1.0"/>
<circle cx="124" cy="147" r="7.0" style="fill:blue;stroke:black;stroke-width:1.0"/>
<circle cx="170" cy="185" r="7.0" style="fill:blue;stroke:black;stroke-width:1.0"/>
<circle cx="163" cy="93" r="7.0" style="fill:green;stroke:black;stroke-width:1.0"/>
<circle cx="191" cy="153" r="7.0" style="fill:green;stroke:black;stroke-width:1.0"/>
<circle cx="262" cy="20" r="7.0" style="fill:blue;stroke:black;stroke-width:1.0"/>
<circle cx="232" cy="134" r="7.0" style="fill:blue;stroke:black;stroke-width:1.0"/>
</svg>
