<svg width="440" height="340" xmlns="http://www.w3.org/2000/svg">
<path stroke-width="1" stroke="black" d="M 420 42 409 42"/>
<path stroke-width="1" stroke="black" d="M 81 226 100 268"/>
<path stroke-width="1" stroke="black" d="M 81 226 87 226"/>
<path stroke-width="1" stroke="black" d="M 81 226 66 181"/>
<path stroke-width="1" stroke="black" d="M 87 226 81 226"/>
<path stroke-width="1" stroke="black" d="M 66 181 81 226"/>
<path stroke-width="1" stroke="black" d="M 66 181 57 180"/>
<path stroke-width="1" stroke="black" d="M 66 181 64 136"/>
<path stroke-width="1" stroke="black" d="M 57 180 66 181"/>
<path stroke-width="1" stroke="black" d="M 64 136 66 181"/>
<path stroke-width="1" stroke="black" d="M 102 274 100 268"/>
<path stroke-width="1" stroke="black" d="M 64 136 56 130"/>
<path stroke-width="1" stroke="black" d="M 56 130 64 136"/>
<path stroke-width="1" stroke="black" d="M 81 99 64 136"/>
<path stroke-width="1" stroke="black" d="M 81 99 81 90"/>
<path stroke-width="1" stroke="black" d="M 81 99 107 86"/>
<path stroke-width="1" stroke="black" d="M 81 90 81 99"/>
<path stroke-width="1" stroke="black" d="M 107 86 81 99"/>
<path stroke-width="1" stroke="black" d="M 107 86 114 77"/>
<path stroke-width="1" stroke="black" d="M 107 86 95 116"/>
<path stroke-width="1" stroke="black" d="M 114 77 107 86"/>
<path stroke-width="1" stroke="black" d="M 64 136 81 99"/>
<path stroke-width="1" stroke="black" d="M 100 268 81 226"/>
<path stroke-width="1" stroke="black" d="M 100 268 102 274"/>
<path stroke-width="1" stroke="black" d="M 100 268 122 302"/>
<path stroke-width="1" stroke="black" d="M 358 196 344 205"/>
<path stroke-width="1" stroke="black" d="M 306 229 344 205"/>
<path stroke-width="1" stroke="black" d="M 306 229 314 223"/>
<path stroke-width="1" stroke="black" d="M 306 229 260 259"/>
<path stroke-width="1" stroke="black" d="M 314 223 306 229"/>
<path stroke-width="1" stroke="black" d="M 260 259 306 229"/>
<path stroke-width="1" stroke="black" d="M 260 259 256 263"/>
<path stroke-width="1" stroke="black" d="M 260 259 212 289"/>
<path stroke-width="1" stroke="black" d="M 256 263 260 259"/>
<path stroke-width="1" stroke="black" d="M 212 289 260 259"/>
<path stroke-width="1" stroke="black" d="M 212 289 207 295"/>
<path stroke-width="1" stroke="black" d="M 212 289 166 310"/>
<path stroke-width="1" stroke="black" d="M 207 295 212 289"/>
<path stroke-width="1" stroke="black" d="M 166 310 212 289"/>
<path stroke-width="1" stroke="black" d="M 166 310 162 320"/>
<path stroke-width="1" stroke="black" d="M 166 310 122 302"/>
<path stroke-width="1" stroke="black" d="M 162 320 166 310"/>
<path stroke-width="1" stroke="black" d="M 122 302 166 310"/>
<path stroke-width="1" stroke="black" d="M 122 302 117 311"/>
<path stroke-width="1" stroke="black" d="M 122 302 100 268"/>
<path stroke-width="1" stroke="black" d="M 117 311 122 302"/>
<path stroke-width="1" stroke="black" d="M 95 116 107 86"/>
<path stroke-width="1" stroke="black" d="M 95 116 103 110"/>
<path stroke-width="1" stroke="black" d="M 95 116 66 153"/>
<path stroke-width="1" stroke="black" d="M 103 110 95 116"/>
<path stroke-width="1" stroke="black" d="M 191 72 192 64"/>
<path stroke-width="1" stroke="black" d="M 191 72 238 38"/>
<path stroke-width="1" stroke="black" d="M 192 64 191 72"/>
<path stroke-width="1" stroke="black" d="M 238 38 191 72"/>
<path stroke-width="1" stroke="black" d="M 238 38 239 29"/>
<path stroke-width="1" stroke="black" d="M 238 38 286 27"/>
<path stroke-width="1" stroke="black" d="M 239 29 238 38"/>
<path stroke-width="1" stroke="black" d="M 286 27 238 38"/>
<path stroke-width="1" stroke="black" d="M 286 27 290 20"/>
<path stroke-width="1" stroke="black" d="M 286 27 330 36"/>
<path stroke-width="1" stroke="black" d="M 290 20 286 27"/>
<path stroke-width="1" stroke="black" d="M 330 36 286 27"/>
<path stroke-width="1" stroke="black" d="M 330 36 329 41"/>
<path stroke-width="1" stroke="black" d="M 330 36 372 40"/>
<path stroke-width="1" stroke="black" d="M 329 41 330 36"/>
<path stroke-width="1" stroke="black" d="M 372 40 330 36"/>
<path stroke-width="1" stroke="black" d="M 372 40 378 37"/>
<path stroke-width="1" stroke="black" d="M 372 40 409 42"/>
<path stroke-width="1" stroke="black" d="M 378 37 372 40"/>
<path stroke-width="1" stroke="black" d="M 409 42 372 40"/>
<path stroke-width="1" stroke="black" d="M 409 42 420 42"/>
<path stroke-width="1" stroke="black" d="M 191 72 149 114"/>
<path stroke-width="1" stroke="black" d="M 344 205 306 229"/>
<path stroke-width="1" stroke="black" d="M 148 113 149 114"/>
<path stroke-width="1" stroke="black" d="M 149 114 148 113"/>
<path stroke-width="1" stroke="black" d="M 66 153 95 116"/>
<path stroke-width="1" stroke="black" d="M 66 153 72 149"/>
<path stroke-width="1" stroke="black" d="M 66 153 37 190"/>
<path stroke-width="1" stroke="black" d="M 72 149 66 153"/>
<path stroke-width="1" stroke="black" d="M 37 190 66 153"/>
<path stroke-width="1" stroke="black" d="M 37 190 29 197"/>
<path stroke-width="1" stroke="black" d="M 37 190 27 219"/>
<path stroke-width="1" stroke="black" d="M 29 197 37 190"/>
<path stroke-width="1" stroke="black" d="M 27 219 37 190"/>
<path stroke-width="1" stroke="black" d="M 27 219 20 228"/>
<path stroke-width="1" stroke="black" d="M 27 219 62 196"/>
<path stroke-width="1" stroke="black" d="M 20 228 27 219"/>
<path stroke-width="1" stroke="black" d="M 62 196 27 219"/>
<path stroke-width="1" stroke="black" d="M 62 196 55 206"/>
<path stroke-width="1" stroke="black" d="M 62 196 103 158"/>
<path stroke-width="1" stroke="black" d="M 55 206 62 196"/>
<path stroke-width="1" stroke="black" d="M 103 158 62 196"/>
<path stroke-width="1" stroke="black" d="M 103 158 102 164"/>
<path stroke-width="1" stroke="black" d="M 103 158 149 114"/>
<path stroke-width="1" stroke="black" d="M 102 164 103 158"/>
<path stroke-width="1" stroke="black" d="M 149 114 103 158"/>
<path stroke-width="1" stroke="black" d="M 149 114 191 72"/>
<path stroke-width="1" stroke="black" d="M 344 205 358 196"/>
<circle cx="420" cy="42" r="7.0" style="fill:blue;stroke:black;stroke-width:1.0"/>
<circle cx="409" cy="42" r="7.0" style="fill:blue;stroke:black;stroke-width:1.0"/>
<circle cx="378" cy="37" r="7.0" style="fill:blue;stroke:black;stroke-width:1.0"/>
<circle cx="372" cy="40" r="7.0" style="fill:blue;stroke:black;stroke-width:1.0"/>
<circle cx="329" cy="41" r="7.0" style="fill:red;stroke:black;stroke-width:1.0"/>
<circle cx="330" cy="36" r="7.0" style="fill:red;stroke:black;stroke-width:1.0"/>
<circle cx="290" cy="20" r="7.0" style="fill:red;stroke:black;stroke-width:1.0"/>
<circle cx="286" cy="27" r="7.0" style="fill:red;stroke:black;stroke-width:1.0"/>
<circle cx="239" cy="29" r="7.0" style="fill:green;stroke:black;stroke-width:1.0"/>
<circle cx="238" cy="38" r="7.0" style="fill:green;stroke:black;stroke-width:1.0"/>
<circle cx="192" cy="64" r="7.0" style="fill:green;stroke:black;stroke-width:1.0"/>
<circle cx="191" cy="72" r="7.0" style="fill:green;stroke:black;stroke-width:1.0"/>
<circle cx="148" cy="113" r="7.0" style="fill:orange;stroke:black;stroke-width:1.0"/>
<circle cx="149" cy="114" r="7.0" style="fill:orange;stroke:black;stroke-width:1.0"/>
<circle cx="102" cy="164" r="7.0" style="fill:orange;stroke:black;stroke-width:1.0"/>
<circle cx="103" cy="158" r="7.0" style="fill:orange;stroke:black;stroke-width:1.0"/>
<circle cx="55" cy="206" r="7.0" style="fill:purple;stroke:black;stroke-width:1.0"/>
<circle cx="62" cy="196" r="7.0" style="fill:purple;stroke:black;stroke-width:1.0"/>
<circle cx="20" cy="228" r="7.0" style="fill:purple;stroke:black;stroke-width:1.0"/>
<circle cx="27" cy="219" r="7.0" style="fill:purple;stroke:black;stroke-width:1.0"/>
<circle cx="29" cy="197" r="7.0" style="fill:yellow;stroke:black;stroke-width:1.0"/>
<circle cx="37" cy="190" r="7.0" style="fill:yellow;stroke:black;stroke-width:1.0"/>
<circle cx="72" cy="149" r="7.0" style="fill:yellow;stroke:black;stroke-width:1.0"/>
<circle cx="66" cy="153" r="7.0" style="fill:yellow;stroke:black;stroke-width:1.0"/>
<circle cx="103" cy="110" r="7.0" style="fill:fuchsia;stroke:black;stroke-width:1.0"/>
<circle cx="95" cy="116" r="7.0" style="fill:fuchsia;stroke:black;stroke-width:1.0"/>
<circle cx="114" cy="77" r="7.0" style="fill:fuchsia;stroke:black;stroke-width:1.0"/>
<circle cx="107" cy="86" r="7.0" style="fill:fuchsia;stroke:black;stroke-width:1.0"/>
<circle cx="81" cy="90" r="7.0" style="fill:olive;stroke:black;stroke-width:1.0"/>
<circle cx="81" cy="99" r="7.0" style="fill:olive;stroke:black;stroke-width:1.0"/>
<circle cx="56" cy="130" r="7.0" style="fill:olive;stroke:black;stroke-width:1.0"/>
<circle cx="64" cy="136" r="7.0" style="fill:olive;stroke:black;stroke-width:1.0"/>
<circle cx="57" cy="180" r="7.0" style="fill:aqua;stroke:black;stroke-width:1.0"/>
<circle cx="66" cy="181" r="7.0" style="fill:aqua;stroke:black;stroke-width:1.0"/>
<circle cx="87" cy="226" r="7.0" style="fill:aqua;stroke:black;stroke-width:1.0"/>
<circle cx="81" cy="226" r="7.0" style="fill:aqua;stroke:black;stroke-width:1.0"/>
<circle cx="102" cy="274" r="7.0" style="fill:brown;stroke:black;stroke-width:1.0"/>
<circle cx="100" cy="268" r="7.0" style="fill:brown;stroke:black;stroke-width:1.0"/>
<circle cx="117" cy="311" r="7.0" style="fill:brown;stroke:black;stroke-width:1.0"/>
<circle cx="122" cy="302" r="7.0" style="fill:brown;stroke:black;stroke-width:1.0"/>
<circle cx="162" cy="320" r="7.0" style="fill:blue;stroke:black;stroke-width:1.0"/>
<circle cx="166" cy="310" r="7.0" style="fill:blue;stroke:black;stroke-width:1.0"/>
<circle cx="207" cy="295" r="7.0" style="fill:blue;stroke:black;stroke-width:1.0"/>
<circle cx="212" cy="289" r="7.0" style="fill:blue;stroke:black;stroke-width:1.0"/>
<circle cx="256" cy="263" r="7.0" style="fill:green;stroke:black;stroke-width:1.0"/>
<circle cx="260" cy="259" r="7.0" style="fill:green;stroke:black;stroke-width:1.0"/>
<circle cx="314" cy="223" r="7.0" style="fill:red;stroke:black;stroke-width:1.0"/>
<circle cx="306" cy="229" r="7.0" style="fill:red;stroke:black;stroke-width:1.0"/>
<circle cx="358" cy="196" r="7.0" style="fill:red;stroke:black;stroke-width:1.0"/>
<circle cx="344" cy="205" r="7.0" style="fill:red;stroke:black;stroke-width:1.0"/>
</svg>
