<svg width="440" height="340" xmlns="http://www.w3.org/2000/svg">
<path stroke-width="20.0" stroke="black" d="M 420 278 410 275"/>
<path stroke-width="0.5" stroke="black" d="M 44 106 35 79"/>
<path stroke-width="20.0" stroke="black" d="M 44 106 30 110"/>
<path stroke-width="0.5" stroke="black" d="M 44 106 105 105"/>
<path stroke-width="20.0" stroke="black" d="M 30 110 44 106"/>
<path stroke-width="0.5" stroke="black" d="M 105 105 44 106"/>
<path stroke-width="20.0" stroke="black" d="M 105 105 92 108"/>
<path stroke-width="0.5" stroke="black" d="M 105 105 178 98"/>
<path stroke-width="20.0" stroke="black" d="M 92 108 105 105"/>
<path stroke-width="0.5" stroke="black" d="M 178 98 105 105"/>
<path stroke-width="20.0" stroke="black" d="M 20 81 35 79"/>
<path stroke-width="20.0" stroke="black" d="M 178 98 170 96"/>
<path stroke-width="20.0" stroke="black" d="M 170 96 178 98"/>
<path stroke-width="0.5" stroke="black" d="M 255 88 178 98"/>
<path stroke-width="20.0" stroke="black" d="M 255 88 254 83"/>
<path stroke-width="0.5" stroke="black" d="M 255 88 330 81"/>
<path stroke-width="20.0" stroke="black" d="M 254 83 255 88"/>
<path stroke-width="0.5" stroke="black" d="M 330 81 255 88"/>
<path stroke-width="20.0" stroke="black" d="M 330 81 343 79"/>
<path stroke-width="0.5" stroke="black" d="M 330 81 391 79"/>
<path stroke-width="20.0" stroke="black" d="M 343 79 330 81"/>
<path stroke-width="0.5" stroke="black" d="M 178 98 255 88"/>
<path stroke-width="0.5" stroke="black" d="M 35 79 44 106"/>
<path stroke-width="20.0" stroke="black" d="M 35 79 20 81"/>
<path stroke-width="0.5" stroke="black" d="M 35 79 86 56"/>
<path stroke-width="8.857142857142858" stroke="black" d="M 330 53 339 46"/>
<path stroke-width="0.5" stroke="black" d="M 346 30 339 46"/>
<path stroke-width="20.0" stroke="black" d="M 346 30 360 30"/>
<path stroke-width="0.5" stroke="black" d="M 346 30 297 23"/>
<path stroke-width="20.0" stroke="black" d="M 360 30 346 30"/>
<path stroke-width="0.5" stroke="black" d="M 297 23 346 30"/>
<path stroke-width="20.0" stroke="black" d="M 297 23 309 20"/>
<path stroke-width="0.5" stroke="black" d="M 297 23 230 28"/>
<path stroke-width="20.0" stroke="black" d="M 309 20 297 23"/>
<path stroke-width="0.5" stroke="black" d="M 230 28 297 23"/>
<path stroke-width="20.0" stroke="black" d="M 230 28 239 23"/>
<path stroke-width="0.5" stroke="black" d="M 230 28 156 38"/>
<path stroke-width="20.0" stroke="black" d="M 239 23 230 28"/>
<path stroke-width="0.5" stroke="black" d="M 156 38 230 28"/>
<path stroke-width="20.0" stroke="black" d="M 156 38 152 32"/>
<path stroke-width="0.5" stroke="black" d="M 156 38 86 56"/>
<path stroke-width="20.0" stroke="black" d="M 152 32 156 38"/>
<path stroke-width="0.5" stroke="black" d="M 86 56 156 38"/>
<path stroke-width="20.0" stroke="black" d="M 86 56 73 54"/>
<path stroke-width="0.5" stroke="black" d="M 86 56 35 79"/>
<path stroke-width="20.0" stroke="black" d="M 73 54 86 56"/>
<path stroke-width="0.5" stroke="black" d="M 391 79 330 81"/>
<path stroke-width="20.0" stroke="black" d="M 391 79 406 74"/>
<path stroke-width="0.5" stroke="black" d="M 391 79 394 109"/>
<path stroke-width="20.0" stroke="black" d="M 406 74 391 79"/>
<path stroke-width="20.0" stroke="black" d="M 205 300 199 307"/>
<path stroke-width="0.5" stroke="black" d="M 205 300 258 312"/>
<path stroke-width="20.0" stroke="black" d="M 199 307 205 300"/>
<path stroke-width="0.5" stroke="black" d="M 258 312 205 300"/>
<path stroke-width="20.0" stroke="black" d="M 258 312 262 320"/>
<path stroke-width="0.5" stroke="black" d="M 258 312 309 306"/>
<path stroke-width="20.0" stroke="black" d="M 262 320 258 312"/>
<path stroke-width="0.5" stroke="black" d="M 309 306 258 312"/>
<path stroke-width="20.0" stroke="black" d="M 309 306 318 310"/>
<path stroke-width="0.5" stroke="black" d="M 309 306 344 286"/>
<path stroke-width="20.0" stroke="black" d="M 318 310 309 306"/>
<path stroke-width="0.5" stroke="black" d="M 344 286 309 306"/>
<path stroke-width="20.0" stroke="black" d="M 344 286 342 280"/>
<path stroke-width="0.5" stroke="black" d="M 344 286 380 272"/>
<path stroke-width="20.0" stroke="black" d="M 342 280 344 286"/>
<path stroke-width="0.5" stroke="black" d="M 380 272 344 286"/>
<path stroke-width="20.0" stroke="black" d="M 380 272 385 265"/>
<path stroke-width="0.5" stroke="black" d="M 380 272 410 275"/>
<path stroke-width="20.0" stroke="black" d="M 385 265 380 272"/>
<path stroke-width="0.5" stroke="black" d="M 410 275 380 272"/>
<path stroke-width="20.0" stroke="black" d="M 410 275 420 278"/>
<path stroke-width="0.5" stroke="black" d="M 205 300 168 272"/>
<path stroke-width="0.5" stroke="black" d="M 339 46 346 30"/>
<path stroke-width="20.0" stroke="black" d="M 155 275 168 272"/>
<path stroke-width="20.0" stroke="black" d="M 168 272 155 275"/>
<path stroke-width="0.5" stroke="black" d="M 394 109 391 79"/>
<path stroke-width="20.0" stroke="black" d="M 394 109 410 105"/>
<path stroke-width="0.5" stroke="black" d="M 394 109 348 138"/>
<path stroke-width="20.0" stroke="black" d="M 410 105 394 109"/>
<path stroke-width="0.5" stroke="black" d="M 348 138 394 109"/>
<path stroke-width="20.0" stroke="black" d="M 348 138 360 137"/>
<path stroke-width="0.5" stroke="black" d="M 348 138 285 168"/>
<path stroke-width="20.0" stroke="black" d="M 360 137 348 138"/>
<path stroke-width="0.5" stroke="black" d="M 285 168 348 138"/>
<path stroke-width="20.0" stroke="black" d="M 285 168 292 170"/>
<path stroke-width="0.5" stroke="black" d="M 285 168 222 198"/>
<path stroke-width="20.0" stroke="black" d="M 292 170 285 168"/>
<path stroke-width="0.5" stroke="black" d="M 222 198 285 168"/>
<path stroke-width="20.0" stroke="black" d="M 222 198 210 197"/>
<path stroke-width="0.5" stroke="black" d="M 222 198 174 232"/>
<path stroke-width="20.0" stroke="black" d="M 210 197 222 198"/>
<path stroke-width="0.5" stroke="black" d="M 174 232 222 198"/>
<path stroke-width="20.0" stroke="black" d="M 174 232 159 233"/>
<path stroke-width="0.5" stroke="black" d="M 174 232 168 272"/>
<path stroke-width="20.0" stroke="black" d="M 159 233 174 232"/>
<path stroke-width="0.5" stroke="black" d="M 168 272 174 232"/>
<path stroke-width="0.5" stroke="black" d="M 168 272 205 300"/>
<path stroke-width="8.857142857142858" stroke="black" d="M 339 46 330 53"/>
<circle cx="420" cy="278" r="7.0" style="fill:gray;stroke:black;stroke-width:1.0"/>
<circle cx="410" cy="275" r="7.0" style="fill:gray;stroke:black;stroke-width:1.0"/>
<circle cx="385" cy="265" r="7.0" style="fill:gray;stroke:black;stroke-width:1.0"/>
<circle cx="380" cy="272" r="7.0" style="fill:gray;stroke:black;stroke-width:1.0"/>
<circle cx="342" cy="280" r="7.0" style="fill:gray;stroke:black;stroke-width:1.0"/>
<circle cx="344" cy="286" r="7.0" style="fill:gray;stroke:black;stroke-width:1.0"/>
<circle cx="318" cy="310" r="7.0" style="fill:gray;stroke:black;stroke-width:1.0"/>
<circle cx="309" cy="306" r="7.0" style="fill:gray;stroke:black;stroke-width:1.0"/>
<circle cx="262" cy="320" r="7.0" style="fill:gray;stroke:black;stroke-width:1.0"/>
<circle cx="258" cy="312" r="7.0" style="fill:gray;stroke:black;stroke-width:1.0"/>
<circle cx="199" cy="307" r="7.0" style="fill:gray;stroke:black;stroke-width:1.0"/>
<circle cx="205" cy="300" r="7.0" style="fill:gray;stroke:black;stroke-width:1.0"/>
<circle cx="155" cy="275" r="7.0" style="fill:gray;stroke:black;stroke-width:1.0"/>
<circle cx="168" cy="272" r="7.0" style="fill:gray;stroke:black;stroke-width:1.0"/>
<circle cx="159" cy="233" r="7.0" style="fill:gray;stroke:black;stroke-width:1.0"/>
<circle cx="174" cy="232" r="7.0" style="fill:gray;stroke:black;stroke-width:1.0"/>
<circle cx="210" cy="197" r="7.0" style="fill:gray;stroke:black;stroke-width:1.0"/>
<circle cx="222" cy="198" r="7.0" style="fill:gray;stroke:black;stroke-width:1.0"/>
<circle cx="292" cy="170" r="7.0" style="fill:gray;stroke:black;stroke-width:1.0"/>
<circle cx="285" cy="168" r="7.0" style="fill:gray;stroke:black;stroke-width:1.0"/>
<circle cx="360" cy="137" r="7.0" style="fill:gray;stroke:black;stroke-width:1.0"/>
<circle cx="348" cy="138" r="7.0" style="fill:gray;stroke:black;stroke-width:1.0"/>
<circle cx="410" cy="105" r="7.0" style="fill:gray;stroke:black;stroke-width:1.0"/>
<circle cx="394" cy="109" r="7.0" style="fill:gray;stroke:black;stroke-width:1.0"/>
<circle cx="406" cy="74" r="7.0" style="fill:gray;stroke:black;stroke-width:1.0"/>
<circle cx="391" cy="79" r="7.0" style="fill:gray;stroke:black;stroke-width:1.0"/>
<circle cx="343" cy="79" r="7.0" style="fill:gray;stroke:black;stroke-width:1.0"/>
<circle cx="330" cy="81" r="7.0" style="fill:gray;stroke:black;stroke-width:1.0"/>
<circle cx="254" cy="83" r="7.0" style="fill:gray;stroke:black;stroke-width:1.0"/>
<circle cx="255" cy="88" r="7.0" style="fill:gray;stroke:black;stroke-width:1.0"/>
<circle cx="170" cy="96" r="7.0" style="fill:gray;stroke:black;stroke-width:1.0"/>
<circle cx="178" cy="98" r="7.0" style="fill:gray;stroke:black;stroke-width:1.0"/>
<circle cx="92" cy="108" r="7.0" style="fill:gray;stroke:black;stroke-width:1.0"/>
<circle cx="105" cy="105" r="7.0" style="fill:gray;stroke:black;stroke-width:1.0"/>
<circle cx="30" cy="110" r="7.0" style="fill:gray;stroke:black;stroke-width:1.0"/>
<circle cx="44" cy="106" r="7.0" style="fill:gray;stroke:black;stroke-width:1.0"/>
<circle cx="20" cy="81" r="7.0" style="fill:gray;stroke:black;stroke-width:1.0"/>
<circle cx="35" cy="79" r="7.0" style="fill:gray;stroke:black;stroke-width:1.0"/>
<circle cx="73" cy="54" r="7.0" style="fill:gray;stroke:black;stroke-width:1.0"/>
<circle cx="86" cy="56" r="7.0" style="fill:gray;stroke:black;stroke-width:1.0"/>
<circle cx="152" cy="32" r="7.0" style="fill:gray;stroke:black;stroke-width:1.0"/>
<circle cx="156" cy="38" r="7.0" style="fill:gray;stroke:black;stroke-width:1.0"/>
<circle cx="239" cy="23" r="7.0" style="fill:gray;stroke:black;stroke-width:1.0"/>
<circle cx="230" cy="28" r="7.0" style="fill:gray;stroke:black;stroke-width:1.0"/>
<circle cx="309" cy="20" r="7.0" style="fill:gray;stroke:black;stroke-width:1.0"/>
<circle cx="297" cy="23" r="7.0" style="fill:gray;stroke:black;stroke-width:1.0"/>
<circle cx="360" cy="30" r="7.0" style="fill:gray;stroke:black;stroke-width:1.0"/>
<circle cx="346" cy="30" r="7.0" style="fill:gray;stroke:black;stroke-width:1.0"/>
<circle cx="330" cy="53" r="7.0" style="fill:gray;stroke:black;stroke-width:1.0"/>
<circle cx="339" cy="46" r="7.0" style="fill:gray;stroke:black;stroke-width:1.0"/>
</svg>
