<svg width="440" height="340" xmlns="http://www.w3.org/2000/svg">
<path stroke-width="20.0" stroke="black" d="M 25 20 25 31"/>
<path stroke-width="0.5" stroke="black" d="M 127 204 191 170"/>
<path stroke-width="20.0" stroke="black" d="M 127 204 114 203"/>
<path stroke-width="0.5" stroke="black" d="M 127 204 77 242"/>
<path stroke-width="20.0" stroke="black" d="M 114 203 127 204"/>
<path stroke-width="0.5" stroke="black" d="M 77 242 127 204"/>
<path stroke-width="20.0" stroke="black" d="M 77 242 62 245"/>
<path stroke-width="0.5" stroke="black" d="M 77 242 64 282"/>
<path stroke-width="20.0" stroke="black" d="M 62 245 77 242"/>
<path stroke-width="0.5" stroke="black" d="M 64 282 77 242"/>
<path stroke-width="20.0" stroke="black" d="M 197 160 191 170"/>
<path stroke-width="20.0" stroke="black" d="M 64 282 49 290"/>
<path stroke-width="20.0" stroke="black" d="M 49 290 64 282"/>
<path stroke-width="0.5" stroke="black" d="M 116 288 64 282"/>
<path stroke-width="20.0" stroke="black" d="M 116 288 105 295"/>
<path stroke-width="0.5" stroke="black" d="M 116 288 181 278"/>
<path stroke-width="20.0" stroke="black" d="M 105 295 116 288"/>
<path stroke-width="0.5" stroke="black" d="M 181 278 116 288"/>
<path stroke-width="20.0" stroke="black" d="M 181 278 185 269"/>
<path stroke-width="0.5" stroke="black" d="M 181 278 246 270"/>
<path stroke-width="20.0" stroke="black" d="M 185 269 181 278"/>
<path stroke-width="0.5" stroke="black" d="M 64 282 116 288"/>
<path stroke-width="0.5" stroke="black" d="M 191 170 127 204"/>
<path stroke-width="20.0" stroke="black" d="M 191 170 197 160"/>
<path stroke-width="0.5" stroke="black" d="M 191 170 252 146"/>
<path stroke-width="8.857142857142858" stroke="black" d="M 420 187 407 175"/>
<path stroke-width="0.5" stroke="black" d="M 376 146 407 175"/>
<path stroke-width="20.0" stroke="black" d="M 376 146 377 156"/>
<path stroke-width="0.5" stroke="black" d="M 376 146 346 110"/>
<path stroke-width="20.0" stroke="black" d="M 377 156 376 146"/>
<path stroke-width="0.5" stroke="black" d="M 346 110 376 146"/>
<path stroke-width="20.0" stroke="black" d="M 346 110 344 98"/>
<path stroke-width="0.5" stroke="black" d="M 346 110 305 99"/>
<path stroke-width="20.0" stroke="black" d="M 344 98 346 110"/>
<path stroke-width="0.5" stroke="black" d="M 305 99 346 110"/>
<path stroke-width="20.0" stroke="black" d="M 305 99 293 93"/>
<path stroke-width="0.5" stroke="black" d="M 305 99 300 125"/>
<path stroke-width="20.0" stroke="black" d="M 293 93 305 99"/>
<path stroke-width="0.5" stroke="black" d="M 300 125 305 99"/>
<path stroke-width="20.0" stroke="black" d="M 300 125 315 123"/>
<path stroke-width="0.5" stroke="black" d="M 300 125 252 146"/>
<path stroke-width="20.0" stroke="black" d="M 315 123 300 125"/>
<path stroke-width="0.5" stroke="black" d="M 252 146 300 125"/>
<path stroke-width="20.0" stroke="black" d="M 252 146 264 144"/>
<path stroke-width="0.5" stroke="black" d="M 252 146 191 170"/>
<path stroke-width="20.0" stroke="black" d="M 264 144 252 146"/>
<path stroke-width="0.5" stroke="black" d="M 246 270 181 278"/>
<path stroke-width="20.0" stroke="black" d="M 246 270 258 262"/>
<path stroke-width="0.5" stroke="black" d="M 246 270 296 284"/>
<path stroke-width="20.0" stroke="black" d="M 258 262 246 270"/>
<path stroke-width="20.0" stroke="black" d="M 119 37 115 22"/>
<path stroke-width="0.5" stroke="black" d="M 119 37 125 30"/>
<path stroke-width="20.0" stroke="black" d="M 115 22 119 37"/>
<path stroke-width="0.5" stroke="black" d="M 125 30 119 37"/>
<path stroke-width="20.0" stroke="black" d="M 125 30 134 20"/>
<path stroke-width="0.5" stroke="black" d="M 125 30 88 56"/>
<path stroke-width="20.0" stroke="black" d="M 134 20 125 30"/>
<path stroke-width="0.5" stroke="black" d="M 88 56 125 30"/>
<path stroke-width="20.0" stroke="black" d="M 88 56 86 65"/>
<path stroke-width="0.5" stroke="black" d="M 88 56 53 77"/>
<path stroke-width="20.0" stroke="black" d="M 86 65 88 56"/>
<path stroke-width="0.5" stroke="black" d="M 53 77 88 56"/>
<path stroke-width="20.0" stroke="black" d="M 53 77 48 88"/>
<path stroke-width="0.5" stroke="black" d="M 53 77 26 63"/>
<path stroke-width="20.0" stroke="black" d="M 48 88 53 77"/>
<path stroke-width="0.5" stroke="black" d="M 26 63 53 77"/>
<path stroke-width="20.0" stroke="black" d="M 26 63 20 72"/>
<path stroke-width="0.5" stroke="black" d="M 26 63 25 31"/>
<path stroke-width="20.0" stroke="black" d="M 20 72 26 63"/>
<path stroke-width="0.5" stroke="black" d="M 25 31 26 63"/>
<path stroke-width="20.0" stroke="black" d="M 25 31 25 20"/>
<path stroke-width="0.5" stroke="black" d="M 119 37 132 98"/>
<path stroke-width="0.5" stroke="black" d="M 407 175 376 146"/>
<path stroke-width="20.0" stroke="black" d="M 134 86 132 98"/>
<path stroke-width="20.0" stroke="black" d="M 132 98 134 86"/>
<path stroke-width="0.5" stroke="black" d="M 296 284 246 270"/>
<path stroke-width="20.0" stroke="black" d="M 296 284 312 283"/>
<path stroke-width="0.5" stroke="black" d="M 296 284 276 310"/>
<path stroke-width="20.0" stroke="black" d="M 312 283 296 284"/>
<path stroke-width="0.5" stroke="black" d="M 276 310 296 284"/>
<path stroke-width="20.0" stroke="black" d="M 276 310 289 320"/>
<path stroke-width="0.5" stroke="black" d="M 276 310 222 288"/>
<path stroke-width="20.0" stroke="black" d="M 289 320 276 310"/>
<path stroke-width="0.5" stroke="black" d="M 222 288 276 310"/>
<path stroke-width="20.0" stroke="black" d="M 222 288 225 303"/>
<path stroke-width="0.5" stroke="black" d="M 222 288 176 234"/>
<path stroke-width="20.0" stroke="black" d="M 225 303 222 288"/>
<path stroke-width="0.5" stroke="black" d="M 176 234 222 288"/>
<path stroke-width="20.0" stroke="black" d="M 176 234 167 244"/>
<path stroke-width="0.5" stroke="black" d="M 176 234 144 165"/>
<path stroke-width="20.0" stroke="black" d="M 167 244 176 234"/>
<path stroke-width="0.5" stroke="black" d="M 144 165 176 234"/>
<path stroke-width="20.0" stroke="black" d="M 144 165 132 164"/>
<path stroke-width="0.5" stroke="black" d="M 144 165 132 98"/>
<path stroke-width="20.0" stroke="black" d="M 132 164 144 165"/>
<path stroke-width="0.5" stroke="black" d="M 132 98 144 165"/>
<path stroke-width="0.5" stroke="black" d="M 132 98 119 37"/>
<path stroke-width="8.857142857142858" stroke="black" d="M 407 175 420 187"/>
<circle cx="25" cy="20" r="20.0" style="fill:gray;stroke:black;stroke-width:1.0"/>
<circle cx="25" cy="31" r="20.0" style="fill:gray;stroke:black;stroke-width:1.0"/>
<circle cx="20" cy="72" r="20.0" style="fill:gray;stroke:black;stroke-width:1.0"/>
<circle cx="26" cy="63" r="20.0" style="fill:gray;stroke:black;stroke-width:1.0"/>
<circle cx="48" cy="88" r="20.0" style="fill:gray;stroke:black;stroke-width:1.0"/>
<circle cx="53" cy="77" r="20.0" style="fill:gray;stroke:black;stroke-width:1.0"/>
<circle cx="86" cy="65" r="20.0" style="fill:gray;stroke:black;stroke-width:1.0"/>
<circle cx="88" cy="56" r="20.0" style="fill:gray;stroke:black;stroke-width:1.0"/>
<circle cx="134" cy="20" r="20.0" style="fill:gray;stroke:black;stroke-width:1.0"/>
<circle cx="125" cy="30" r="20.0" style="fill:gray;stroke:black;stroke-width:1.0"/>
<circle cx="115" cy="22" r="20.0" style="fill:gray;stroke:black;stroke-width:1.0"/>
<circle cx="119" cy="37" r="20.0" style="fill:gray;stroke:black;stroke-width:1.0"/>
<circle cx="134" cy="86" r="20.0" style="fill:gray;stroke:black;stroke-width:1.0"/>
<circle cx="132" cy="98" r="20.0" style="fill:gray;stroke:black;stroke-width:1.0"/>
<circle cx="132" cy="164" r="20.0" style="fill:gray;stroke:black;stroke-width:1.0"/>
<circle cx="144" cy="165" r="20.0" style="fill:gray;stroke:black;stroke-width:1.0"/>
<circle cx="167" cy="244" r="20.0" style="fill:gray;stroke:black;stroke-width:1.0"/>
<circle cx="176" cy="234" r="20.0" style="fill:gray;stroke:black;stroke-width:1.0"/>
<circle cx="225" cy="303" r="20.0" style="fill:gray;stroke:black;stroke-width:1.0"/>
<circle cx="222" cy="288" r="20.0" style="fill:gray;stroke:black;stroke-width:1.0"/>
<circle cx="289" cy="320" r="20.0" style="fill:gray;stroke:black;stroke-width:1.0"/>
<circle cx="276" cy="310" r="20.0" style="fill:gray;stroke:black;stroke-width:1.0"/>
<circle cx="312" cy="283" r="20.0" style="fill:gray;stroke:black;stroke-width:1.0"/>
<circle cx="296" cy="284" r="20.0" style="fill:gray;stroke:black;stroke-width:1.0"/>
<circle cx="258" cy="262" r="20.0" style="fill:gray;stroke:black;stroke-width:1.0"/>
<circle cx="246" cy="270" r="20.0" style="fill:gray;stroke:black;stroke-width:1.0"/>
<circle cx="185" cy="269" r="20.0" style="fill:gray;stroke:black;stroke-width:1.0"/>
<circle cx="181" cy="278" r="20.0" style="fill:gray;stroke:black;stroke-width:1.0"/>
<circle cx="105" cy="295" r="20.0" style="fill:gray;stroke:black;stroke-width:1.0"/>
<circle cx="116" cy="288" r="20.0" style="fill:gray;stroke:black;stroke-width:1.0"/>
<circle cx="49" cy="290" r="20.0" style="fill:gray;stroke:black;stroke-width:1.0"/>
<circle cx="64" cy="282" r="20.0" style="fill:gray;stroke:black;stroke-width:1.0"/>
<circle cx="62" cy="245" r="20.0" style="fill:gray;stroke:black;stroke-width:1.0"/>
<circle cx="77" cy="242" r="20.0" style="fill:gray;stroke:black;stroke-width:1.0"/>
<circle cx="114" cy="203" r="20.0" style="fill:gray;stroke:black;stroke-width:1.0"/>
<circle cx="127" cy="204" r="20.0" style="fill:gray;stroke:black;stroke-width:1.0"/>
<circle cx="197" cy="160" r="20.0" style="fill:gray;stroke:black;stroke-width:1.0"/>
<circle cx="191" cy="170" r="20.0" style="fill:gray;stroke:black;stroke-width:1.0"/>
<circle cx="264" cy="144" r="20.0" style="fill:gray;stroke:black;stroke-width:1.0"/>
<circle cx="252" cy="146" r="20.0" style="fill:gray;stroke:black;stroke-width:1.0"/>
<circle cx="315" cy="123" r="20.0" style="fill:gray;stroke:black;stroke-width:1.0"/>
<circle cx="300" cy="125" r="20.0" style="fill:gray;stroke:black;stroke-width:1.0"/>
<circle cx="293" cy="93" r="20.0" style="fill:gray;stroke:black;stroke-width:1.0"/>
<circle cx="305" cy="99" r="20.0" style="fill:gray;stroke:black;stroke-width:1.0"/>
<circle cx="344" cy="98" r="20.0" style="fill:gray;stroke:black;stroke-width:1.0"/>
<circle cx="346" cy="110" r="20.0" style="fill:gray;stroke:black;stroke-width:1.0"/>
<circle cx="377" cy="156" r="20.0" style="fill:gray;stroke:black;stroke-width:1.0"/>
<circle cx="376" cy="146" r="20.0" style="fill:gray;stroke:black;stroke-width:1.0"/>
<circle cx="420" cy="187" r="20.0" style="fill:gray;stroke:black;stroke-width:1.0"/>
<circle cx="407" cy="175" r="20.0" style="fill:gray;stroke:black;stroke-width:1.0"/>
</svg>
