<svg width="440" height="340" xmlns="http://www.w3.org/2000/svg">
<path stroke-width="20.0" stroke="black" d="M 260 318 268 307"/>
<path stroke-width="0.5" stroke="black" d="M 265 151 267 91"/>
<path stroke-width="20.0" stroke="black" d="M 265 151 270 141"/>
<path stroke-width="0.5" stroke="black" d="M 265 151 258 220"/>
<path stroke-width="20.0" stroke="black" d="M 270 141 265 151"/>
<path stroke-width="0.5" stroke="black" d="M 258 220 265 151"/>
<path stroke-width="20.0" stroke="black" d="M 258 220 264 231"/>
<path stroke-width="0.5" stroke="black" d="M 258 220 239 278"/>
<path stroke-width="20.0" stroke="black" d="M 264 231 258 220"/>
<path stroke-width="0.5" stroke="black" d="M 239 278 258 220"/>
<path stroke-width="20.0" stroke="black" d="M 264 73 267 91"/>
<path stroke-width="20.0" stroke="black" d="M 239 278 236 294"/>
<path stroke-width="20.0" stroke="black" d="M 236 294 239 278"/>
<path stroke-width="0.5" stroke="black" d="M 215 303 239 278"/>
<path stroke-width="20.0" stroke="black" d="M 215 303 215 320"/>
<path stroke-width="0.5" stroke="black" d="M 215 303 195 241"/>
<path stroke-width="20.0" stroke="black" d="M 215 320 215 303"/>
<path stroke-width="0.5" stroke="black" d="M 195 241 215 303"/>
<path stroke-width="20.0" stroke="black" d="M 195 241 203 245"/>
<path stroke-width="0.5" stroke="black" d="M 195 241 171 175"/>
<path stroke-width="20.0" stroke="black" d="M 203 245 195 241"/>
<path stroke-width="0.5" stroke="black" d="M 239 278 215 303"/>
<path stroke-width="0.5" stroke="black" d="M 267 91 265 151"/>
<path stroke-width="20.0" stroke="black" d="M 267 91 264 73"/>
<path stroke-width="0.5" stroke="black" d="M 267 91 291 87"/>
<path stroke-width="8.857142857142858" stroke="black" d="M 420 139 411 120"/>
<path stroke-width="0.5" stroke="black" d="M 387 75 411 120"/>
<path stroke-width="20.0" stroke="black" d="M 387 75 395 71"/>
<path stroke-width="0.5" stroke="black" d="M 387 75 352 39"/>
<path stroke-width="20.0" stroke="black" d="M 395 71 387 75"/>
<path stroke-width="0.5" stroke="black" d="M 352 39 387 75"/>
<path stroke-width="20.0" stroke="black" d="M 352 39 352 24"/>
<path stroke-width="0.5" stroke="black" d="M 352 39 313 31"/>
<path stroke-width="20.0" stroke="black" d="M 352 24 352 39"/>
<path stroke-width="0.5" stroke="black" d="M 313 31 352 39"/>
<path stroke-width="20.0" stroke="black" d="M 313 31 306 20"/>
<path stroke-width="0.5" stroke="black" d="M 313 31 288 58"/>
<path stroke-width="20.0" stroke="black" d="M 306 20 313 31"/>
<path stroke-width="0.5" stroke="black" d="M 288 58 313 31"/>
<path stroke-width="20.0" stroke="black" d="M 288 58 280 65"/>
<path stroke-width="0.5" stroke="black" d="M 288 58 291 87"/>
<path stroke-width="20.0" stroke="black" d="M 280 65 288 58"/>
<path stroke-width="0.5" stroke="black" d="M 291 87 288 58"/>
<path stroke-width="20.0" stroke="black" d="M 291 87 299 93"/>
<path stroke-width="0.5" stroke="black" d="M 291 87 267 91"/>
<path stroke-width="20.0" stroke="black" d="M 299 93 291 87"/>
<path stroke-width="0.5" stroke="black" d="M 171 175 195 241"/>
<path stroke-width="20.0" stroke="black" d="M 171 175 178 164"/>
<path stroke-width="0.5" stroke="black" d="M 171 175 130 132"/>
<path stroke-width="20.0" stroke="black" d="M 178 164 171 175"/>
<path stroke-width="20.0" stroke="black" d="M 172 206 164 203"/>
<path stroke-width="0.5" stroke="black" d="M 172 206 229 216"/>
<path stroke-width="20.0" stroke="black" d="M 164 203 172 206"/>
<path stroke-width="0.5" stroke="black" d="M 229 216 172 206"/>
<path stroke-width="20.0" stroke="black" d="M 229 216 236 223"/>
<path stroke-width="0.5" stroke="black" d="M 229 216 283 222"/>
<path stroke-width="20.0" stroke="black" d="M 236 223 229 216"/>
<path stroke-width="0.5" stroke="black" d="M 283 222 229 216"/>
<path stroke-width="20.0" stroke="black" d="M 283 222 295 225"/>
<path stroke-width="0.5" stroke="black" d="M 283 222 313 225"/>
<path stroke-width="20.0" stroke="black" d="M 295 225 283 222"/>
<path stroke-width="0.5" stroke="black" d="M 313 225 283 222"/>
<path stroke-width="20.0" stroke="black" d="M 313 225 323 214"/>
<path stroke-width="0.5" stroke="black" d="M 313 225 292 268"/>
<path stroke-width="20.0" stroke="black" d="M 323 214 313 225"/>
<path stroke-width="0.5" stroke="black" d="M 292 268 313 225"/>
<path stroke-width="20.0" stroke="black" d="M 292 268 299 264"/>
<path stroke-width="0.5" stroke="black" d="M 292 268 268 307"/>
<path stroke-width="20.0" stroke="black" d="M 299 264 292 268"/>
<path stroke-width="0.5" stroke="black" d="M 268 307 292 268"/>
<path stroke-width="20.0" stroke="black" d="M 268 307 260 318"/>
<path stroke-width="0.5" stroke="black" d="M 172 206 116 195"/>
<path stroke-width="0.5" stroke="black" d="M 411 120 387 75"/>
<path stroke-width="20.0" stroke="black" d="M 110 185 116 195"/>
<path stroke-width="20.0" stroke="black" d="M 116 195 110 185"/>
<path stroke-width="0.5" stroke="black" d="M 130 132 171 175"/>
<path stroke-width="20.0" stroke="black" d="M 130 132 134 117"/>
<path stroke-width="0.5" stroke="black" d="M 130 132 82 128"/>
<path stroke-width="20.0" stroke="black" d="M 134 117 130 132"/>
<path stroke-width="0.5" stroke="black" d="M 82 128 130 132"/>
<path stroke-width="20.0" stroke="black" d="M 82 128 77 113"/>
<path stroke-width="0.5" stroke="black" d="M 82 128 41 154"/>
<path stroke-width="20.0" stroke="black" d="M 77 113 82 128"/>
<path stroke-width="0.5" stroke="black" d="M 41 154 82 128"/>
<path stroke-width="20.0" stroke="black" d="M 41 154 31 153"/>
<path stroke-width="0.5" stroke="black" d="M 41 154 30 199"/>
<path stroke-width="20.0" stroke="black" d="M 31 153 41 154"/>
<path stroke-width="0.5" stroke="black" d="M 30 199 41 154"/>
<path stroke-width="20.0" stroke="black" d="M 30 199 20 209"/>
<path stroke-width="0.5" stroke="black" d="M 30 199 67 198"/>
<path stroke-width="20.0" stroke="black" d="M 20 209 30 199"/>
<path stroke-width="0.5" stroke="black" d="M 67 198 30 199"/>
<path stroke-width="20.0" stroke="black" d="M 67 198 57 197"/>
<path stroke-width="0.5" stroke="black" d="M 67 198 116 195"/>
<path stroke-width="20.0" stroke="black" d="M 57 197 67 198"/>
<path stroke-width="0.5" stroke="black" d="M 116 195 67 198"/>
<path stroke-width="0.5" stroke="black" d="M 116 195 172 206"/>
<path stroke-width="8.857142857142858" stroke="black" d="M 411 120 420 139"/>
<circle cx="260" cy="318" r="7.0" style="fill:gray;stroke:black;stroke-width:1.0"/>
<circle cx="268" cy="307" r="7.0" style="fill:gray;stroke:black;stroke-width:1.0"/>
<circle cx="299" cy="264" r="7.0" style="fill:gray;stroke:black;stroke-width:1.0"/>
<circle cx="292" cy="268" r="7.0" style="fill:gray;stroke:black;stroke-width:1.0"/>
<circle cx="323" cy="214" r="7.0" style="fill:gray;stroke:black;stroke-width:1.0"/>
<circle cx="313" cy="225" r="7.0" style="fill:gray;stroke:black;stroke-width:1.0"/>
<circle cx="295" cy="225" r="7.0" style="fill:gray;stroke:black;stroke-width:1.0"/>
<circle cx="283" cy="222" r="7.0" style="fill:gray;stroke:black;stroke-width:1.0"/>
<circle cx="236" cy="223" r="7.0" style="fill:gray;stroke:black;stroke-width:1.0"/>
<circle cx="229" cy="216" r="7.0" style="fill:gray;stroke:black;stroke-width:1.0"/>
<circle cx="164" cy="203" r="7.0" style="fill:gray;stroke:black;stroke-width:1.0"/>
<circle cx="172" cy="206" r="7.0" style="fill:gray;stroke:black;stroke-width:1.0"/>
<circle cx="110" cy="185" r="7.0" style="fill:gray;stroke:black;stroke-width:1.0"/>
<circle cx="116" cy="195" r="7.0" style="fill:gray;stroke:black;stroke-width:1.0"/>
<circle cx="57" cy="197" r="7.0" style="fill:gray;stroke:black;stroke-width:1.0"/>
<circle cx="67" cy="198" r="7.0" style="fill:gray;stroke:black;stroke-width:1.0"/>
<circle cx="20" cy="209" r="7.0" style="fill:gray;stroke:black;stroke-width:1.0"/>
<circle cx="30" cy="199" r="7.0" style="fill:gray;stroke:black;stroke-width:1.0"/>
<circle cx="31" cy="153" r="7.0" style="fill:gray;stroke:black;stroke-width:1.0"/>
<circle cx="41" cy="154" r="7.0" style="fill:gray;stroke:black;stroke-width:1.0"/>
<circle cx="77" cy="113" r="7.0" style="fill:gray;stroke:black;stroke-width:1.0"/>
<circle cx="82" cy="128" r="7.0" style="fill:gray;stroke:black;stroke-width:1.0"/>
<circle cx="134" cy="117" r="7.0" style="fill:gray;stroke:black;stroke-width:1.0"/>
<circle cx="130" cy="132" r="7.0" style="fill:gray;stroke:black;stroke-width:1.0"/>
<circle cx="178" cy="164" r="7.0" style="fill:gray;stroke:black;stroke-width:1.0"/>
<circle cx="171" cy="175" r="7.0" style="fill:gray;stroke:black;stroke-width:1.0"/>
<circle cx="203" cy="245" r="7.0" style="fill:gray;stroke:black;stroke-width:1.0"/>
<circle cx="195" cy="241" r="7.0" style="fill:gray;stroke:black;stroke-width:1.0"/>
<circle cx="215" cy="320" r="7.0" style="fill:gray;stroke:black;stroke-width:1.0"/>
<circle cx="215" cy="303" r="7.0" style="fill:gray;stroke:black;stroke-width:1.0"/>
<circle cx="236" cy="294" r="7.0" style="fill:gray;stroke:black;stroke-width:1.0"/>
<circle cx="239" cy="278" r="7.0" style="fill:gray;stroke:black;stroke-width:1.0"/>
<circle cx="264" cy="231" r="7.0" style="fill:gray;stroke:black;stroke-width:1.0"/>
<circle cx="258" cy="220" r="7.0" style="fill:gray;stroke:black;stroke-width:1.0"/>
<circle cx="270" cy="141" r="7.0" style="fill:gray;stroke:black;stroke-width:1.0"/>
<circle cx="265" cy="151" r="7.0" style="fill:gray;stroke:black;stroke-width:1.0"/>
<circle cx="264" cy="73" r="7.0" style="fill:gray;stroke:black;stroke-width:1.0"/>
<circle cx="267" cy="91" r="7.0" style="fill:gray;stroke:black;stroke-width:1.0"/>
<circle cx="299" cy="93" r="7.0" style="fill:gray;stroke:black;stroke-width:1.0"/>
<circle cx="291" cy="87" r="7.0" style="fill:gray;stroke:black;stroke-width:1.0"/>
<circle cx="280" cy="65" r="7.0" style="fill:gray;stroke:black;stroke-width:1.0"/>
<circle cx="288" cy="58" r="7.0" style="fill:gray;stroke:black;stroke-width:1.0"/>
<circle cx="306" cy="20" r="7.0" style="fill:gray;stroke:black;stroke-width:1.0"/>
<circle cx="313" cy="31" r="7.0" style="fill:gray;stroke:black;stroke-width:1.0"/>
<circle cx="352" cy="24" r="7.0" style="fill:gray;stroke:black;stroke-width:1.0"/>
<circle cx="352" cy="39" r="7.0" style="fill:gray;stroke:black;stroke-width:1.0"/>
<circle cx="395" cy="71" r="7.0" style="fill:gray;stroke:black;stroke-width:1.0"/>
<circle cx="387" cy="75" r="7.0" style="fill:gray;stroke:black;stroke-width:1.0"/>
<circle cx="420" cy="139" r="7.0" style="fill:gray;stroke:black;stroke-width:1.0"/>
<circle cx="411" cy="120" r="7.0" style="fill:gray;stroke:black;stroke-width:1.0"/>
</svg>
