<svg width="440" height="340" xmlns="http://www.w3.org/2000/svg">
<path stroke-width="20.0" stroke="black" d="M 305 20 315 26"/>
<path stroke-width="0.5" stroke="black" d="M 105 290 87 310"/>
<path stroke-width="20.0" stroke="black" d="M 105 290 93 294"/>
<path stroke-width="0.5" stroke="black" d="M 105 290 144 265"/>
<path stroke-width="20.0" stroke="black" d="M 93 294 105 290"/>
<path stroke-width="0.5" stroke="black" d="M 144 265 105 290"/>
<path stroke-width="20.0" stroke="black" d="M 144 265 138 260"/>
<path stroke-width="0.5" stroke="black" d="M 144 265 188 241"/>
<path stroke-width="20.0" stroke="black" d="M 138 260 144 265"/>
<path stroke-width="0.5" stroke="black" d="M 188 241 144 265"/>
<path stroke-width="20.0" stroke="black" d="M 86 320 87 310"/>
<path stroke-width="20.0" stroke="black" d="M 188 241 197 247"/>
<path stroke-width="20.0" stroke="black" d="M 197 247 188 241"/>
<path stroke-width="0.5" stroke="black" d="M 216 207 188 241"/>
<path stroke-width="20.0" stroke="black" d="M 216 207 228 211"/>
<path stroke-width="0.5" stroke="black" d="M 216 207 213 165"/>
<path stroke-width="20.0" stroke="black" d="M 228 211 216 207"/>
<path stroke-width="0.5" stroke="black" d="M 213 165 216 207"/>
<path stroke-width="20.0" stroke="black" d="M 213 165 221 170"/>
<path stroke-width="0.5" stroke="black" d="M 213 165 199 120"/>
<path stroke-width="20.0" stroke="black" d="M 221 170 213 165"/>
<path stroke-width="0.5" stroke="black" d="M 188 241 216 207"/>
<path stroke-width="0.5" stroke="black" d="M 87 310 105 290"/>
<path stroke-width="20.0" stroke="black" d="M 87 310 86 320"/>
<path stroke-width="0.5" stroke="black" d="M 87 310 79 273"/>
<path stroke-width="8.857142857142858" stroke="black" d="M 64 102 51 101"/>
<path stroke-width="0.5" stroke="black" d="M 25 109 51 101"/>
<path stroke-width="20.0" stroke="black" d="M 25 109 20 101"/>
<path stroke-width="0.5" stroke="black" d="M 25 109 29 145"/>
<path stroke-width="20.0" stroke="black" d="M 20 101 25 109"/>
<path stroke-width="0.5" stroke="black" d="M 29 145 25 109"/>
<path stroke-width="20.0" stroke="black" d="M 29 145 23 137"/>
<path stroke-width="0.5" stroke="black" d="M 29 145 44 187"/>
<path stroke-width="20.0" stroke="black" d="M 23 137 29 145"/>
<path stroke-width="0.5" stroke="black" d="M 44 187 29 145"/>
<path stroke-width="20.0" stroke="black" d="M 44 187 39 183"/>
<path stroke-width="0.5" stroke="black" d="M 44 187 63 232"/>
<path stroke-width="20.0" stroke="black" d="M 39 183 44 187"/>
<path stroke-width="0.5" stroke="black" d="M 63 232 44 187"/>
<path stroke-width="20.0" stroke="black" d="M 63 232 58 236"/>
<path stroke-width="0.5" stroke="black" d="M 63 232 79 273"/>
<path stroke-width="20.0" stroke="black" d="M 58 236 63 232"/>
<path stroke-width="0.5" stroke="black" d="M 79 273 63 232"/>
<path stroke-width="20.0" stroke="black" d="M 79 273 85 281"/>
<path stroke-width="0.5" stroke="black" d="M 79 273 87 310"/>
<path stroke-width="20.0" stroke="black" d="M 85 281 79 273"/>
<path stroke-width="0.5" stroke="black" d="M 199 120 213 165"/>
<path stroke-width="20.0" stroke="black" d="M 199 120 205 123"/>
<path stroke-width="0.5" stroke="black" d="M 199 120 187 77"/>
<path stroke-width="20.0" stroke="black" d="M 205 123 199 120"/>
<path stroke-width="20.0" stroke="black" d="M 404 208 410 219"/>
<path stroke-width="0.5" stroke="black" d="M 404 208 414 175"/>
<path stroke-width="20.0" stroke="black" d="M 410 219 404 208"/>
<path stroke-width="0.5" stroke="black" d="M 414 175 404 208"/>
<path stroke-width="20.0" stroke="black" d="M 414 175 419 183"/>
<path stroke-width="0.5" stroke="black" d="M 414 175 408 131"/>
<path stroke-width="20.0" stroke="black" d="M 419 183 414 175"/>
<path stroke-width="0.5" stroke="black" d="M 408 131 414 175"/>
<path stroke-width="20.0" stroke="black" d="M 408 131 420 132"/>
<path stroke-width="0.5" stroke="black" d="M 408 131 385 88"/>
<path stroke-width="20.0" stroke="black" d="M 420 132 408 131"/>
<path stroke-width="0.5" stroke="black" d="M 385 88 408 131"/>
<path stroke-width="20.0" stroke="black" d="M 385 88 394 84"/>
<path stroke-width="0.5" stroke="black" d="M 385 88 351 51"/>
<path stroke-width="20.0" stroke="black" d="M 394 84 385 88"/>
<path stroke-width="0.5" stroke="black" d="M 351 51 385 88"/>
<path stroke-width="20.0" stroke="black" d="M 351 51 349 42"/>
<path stroke-width="0.5" stroke="black" d="M 351 51 315 26"/>
<path stroke-width="20.0" stroke="black" d="M 349 42 351 51"/>
<path stroke-width="0.5" stroke="black" d="M 315 26 351 51"/>
<path stroke-width="20.0" stroke="black" d="M 315 26 305 20"/>
<path stroke-width="0.5" stroke="black" d="M 404 208 367 189"/>
<path stroke-width="0.5" stroke="black" d="M 51 101 25 109"/>
<path stroke-width="20.0" stroke="black" d="M 370 200 367 189"/>
<path stroke-width="20.0" stroke="black" d="M 367 189 370 200"/>
<path stroke-width="0.5" stroke="black" d="M 187 77 199 120"/>
<path stroke-width="20.0" stroke="black" d="M 187 77 178 69"/>
<path stroke-width="0.5" stroke="black" d="M 187 77 200 45"/>
<path stroke-width="20.0" stroke="black" d="M 178 69 187 77"/>
<path stroke-width="0.5" stroke="black" d="M 200 45 187 77"/>
<path stroke-width="20.0" stroke="black" d="M 200 45 191 35"/>
<path stroke-width="0.5" stroke="black" d="M 200 45 247 62"/>
<path stroke-width="20.0" stroke="black" d="M 191 35 200 45"/>
<path stroke-width="0.5" stroke="black" d="M 247 62 200 45"/>
<path stroke-width="20.0" stroke="black" d="M 247 62 243 52"/>
<path stroke-width="0.5" stroke="black" d="M 247 62 294 101"/>
<path stroke-width="20.0" stroke="black" d="M 243 52 247 62"/>
<path stroke-width="0.5" stroke="black" d="M 294 101 247 62"/>
<path stroke-width="20.0" stroke="black" d="M 294 101 297 94"/>
<path stroke-width="0.5" stroke="black" d="M 294 101 334 147"/>
<path stroke-width="20.0" stroke="black" d="M 297 94 294 101"/>
<path stroke-width="0.5" stroke="black" d="M 334 147 294 101"/>
<path stroke-width="20.0" stroke="black" d="M 334 147 341 152"/>
<path stroke-width="0.5" stroke="black" d="M 334 147 367 189"/>
<path stroke-width="20.0" stroke="black" d="M 341 152 334 147"/>
<path stroke-width="0.5" stroke="black" d="M 367 189 334 147"/>
<path stroke-width="0.5" stroke="black" d="M 367 189 404 208"/>
<path stroke-width="8.857142857142858" stroke="black" d="M 51 101 64 102"/>
<circle cx="305" cy="20" r="7.0" style="fill:gray;stroke:black;stroke-width:1.0"/>
<circle cx="315" cy="26" r="7.0" style="fill:gray;stroke:black;stroke-width:1.0"/>
<circle cx="349" cy="42" r="7.0" style="fill:gray;stroke:black;stroke-width:1.0"/>
<circle cx="351" cy="51" r="7.0" style="fill:gray;stroke:black;stroke-width:1.0"/>
<circle cx="394" cy="84" r="7.0" style="fill:gray;stroke:black;stroke-width:1.0"/>
<circle cx="385" cy="88" r="7.0" style="fill:gray;stroke:black;stroke-width:1.0"/>
<circle cx="420" cy="132" r="7.0" style="fill:gray;stroke:black;stroke-width:1.0"/>
<circle cx="408" cy="131" r="7.0" style="fill:gray;stroke:black;stroke-width:1.0"/>
<circle cx="419" cy="183" r="7.0" style="fill:gray;stroke:black;stroke-width:1.0"/>
<circle cx="414" cy="175" r="7.0" style="fill:gray;stroke:black;stroke-width:1.0"/>
<circle cx="410" cy="219" r="7.0" style="fill:gray;stroke:black;stroke-width:1.0"/>
<circle cx="404" cy="208" r="7.0" style="fill:gray;stroke:black;stroke-width:1.0"/>
<circle cx="370" cy="200" r="7.0" style="fill:gray;stroke:black;stroke-width:1.0"/>
<circle cx="367" cy="189" r="7.0" style="fill:gray;stroke:black;stroke-width:1.0"/>
<circle cx="341" cy="152" r="7.0" style="fill:gray;stroke:black;stroke-width:1.0"/>
<circle cx="334" cy="147" r="7.0" style="fill:gray;stroke:black;stroke-width:1.0"/>
<circle cx="297" cy="94" r="7.0" style="fill:gray;stroke:black;stroke-width:1.0"/>
<circle cx="294" cy="101" r="7.0" style="fill:gray;stroke:black;stroke-width:1.0"/>
<circle cx="243" cy="52" r="7.0" style="fill:gray;stroke:black;stroke-width:1.0"/>
<circle cx="247" cy="62" r="7.0" style="fill:gray;stroke:black;stroke-width:1.0"/>
<circle cx="191" cy="35" r="7.0" style="fill:gray;stroke:black;stroke-width:1.0"/>
<circle cx="200" cy="45" r="7.0" style="fill:gray;stroke:black;stroke-width:1.0"/>
<circle cx="178" cy="69" r="7.0" style="fill:gray;stroke:black;stroke-width:1.0"/>
<circle cx="187" cy="77" r="7.0" style="fill:gray;stroke:black;stroke-width:1.0"/>
<circle cx="205" cy="123" r="7.0" style="fill:gray;stroke:black;stroke-width:1.0"/>
<circle cx="199" cy="120" r="7.0" style="fill:gray;stroke:black;stroke-width:1.0"/>
<circle cx="221" cy="170" r="7.0" style="fill:gray;stroke:black;stroke-width:1.0"/>
<circle cx="213" cy="165" r="7.0" style="fill:gray;stroke:black;stroke-width:1.0"/>
<circle cx="228" cy="211" r="7.0" style="fill:gray;stroke:black;stroke-width:1.0"/>
<circle cx="216" cy="207" r="7.0" style="fill:gray;stroke:black;stroke-width:1.0"/>
<circle cx="197" cy="247" r="7.0" style="fill:gray;stroke:black;stroke-width:1.0"/>
<circle cx="188" cy="241" r="7.0" style="fill:gray;stroke:black;stroke-width:1.0"/>
<circle cx="138" cy="260" r="7.0" style="fill:gray;stroke:black;stroke-width:1.0"/>
<circle cx="144" cy="265" r="7.0" style="fill:gray;stroke:black;stroke-width:1.0"/>
<circle cx="93" cy="294" r="7.0" style="fill:gray;stroke:black;stroke-width:1.0"/>
<circle cx="105" cy="290" r="7.0" style="fill:gray;stroke:black;stroke-width:1.0"/>
<circle cx="86" cy="320" r="7.0" style="fill:gray;stroke:black;stroke-width:1.0"/>
<circle cx="87" cy="310" r="7.0" style="fill:gray;stroke:black;stroke-width:1.0"/>
<circle cx="85" cy="281" r="7.0" style="fill:gray;stroke:black;stroke-width:1.0"/>
<circle cx="79" cy="273" r="7.0" style="fill:gray;stroke:black;stroke-width:1.0"/>
<circle cx="58" cy="236" r="7.0" style="fill:gray;stroke:black;stroke-width:1.0"/>
<circle cx="63" cy="232" r="7.0" style="fill:gray;stroke:black;stroke-width:1.0"/>
<circle cx="39" cy="183" r="7.0" style="fill:gray;stroke:black;stroke-width:1.0"/>
<circle cx="44" cy="187" r="7.0" style="fill:gray;stroke:black;stroke-width:1.0"/>
<circle cx="23" cy="137" r="7.0" style="fill:gray;stroke:black;stroke-width:1.0"/>
<circle cx="29" cy="145" r="7.0" style="fill:gray;stroke:black;stroke-width:1.0"/>
<circle cx="20" cy="101" r="7.0" style="fill:gray;stroke:black;stroke-width:1.0"/>
<circle cx="25" cy="109" r="7.0" style="fill:gray;stroke:black;stroke-width:1.0"/>
<circle cx="64" cy="102" r="7.0" style="fill:gray;stroke:black;stroke-width:1.0"/>
<circle cx="51" cy="101" r="7.0" style="fill:gray;stroke:black;stroke-width:1.0"/>
</svg>
