<svg width="440" height="340" xmlns="http://www.w3.org/2000/svg">
<path stroke-width="20.0" stroke="black" d="M 201 278 210 278"/>
<path stroke-width="0.5" stroke="black" d="M 384 135 408 103"/>
<path stroke-width="20.0" stroke="black" d="M 384 135 395 137"/>
<path stroke-width="0.5" stroke="black" d="M 384 135 339 161"/>
<path stroke-width="20.0" stroke="black" d="M 395 137 384 135"/>
<path stroke-width="0.5" stroke="black" d="M 339 161 384 135"/>
<path stroke-width="20.0" stroke="black" d="M 339 161 347 166"/>
<path stroke-width="0.5" stroke="black" d="M 339 161 284 177"/>
<path stroke-width="20.0" stroke="black" d="M 347 166 339 161"/>
<path stroke-width="0.5" stroke="black" d="M 284 177 339 161"/>
<path stroke-width="20.0" stroke="black" d="M 420 100 408 103"/>
<path stroke-width="20.0" stroke="black" d="M 284 177 283 185"/>
<path stroke-width="20.0" stroke="black" d="M 283 185 284 177"/>
<path stroke-width="0.5" stroke="black" d="M 227 180 284 177"/>
<path stroke-width="20.0" stroke="black" d="M 227 180 221 187"/>
<path stroke-width="0.5" stroke="black" d="M 227 180 179 166"/>
<path stroke-width="20.0" stroke="black" d="M 221 187 227 180"/>
<path stroke-width="0.5" stroke="black" d="M 179 166 227 180"/>
<path stroke-width="20.0" stroke="black" d="M 179 166 169 168"/>
<path stroke-width="0.5" stroke="black" d="M 179 166 142 145"/>
<path stroke-width="20.0" stroke="black" d="M 169 168 179 166"/>
<path stroke-width="0.5" stroke="black" d="M 284 177 227 180"/>
<path stroke-width="0.5" stroke="black" d="M 408 103 384 135"/>
<path stroke-width="20.0" stroke="black" d="M 408 103 420 100"/>
<path stroke-width="0.5" stroke="black" d="M 408 103 402 72"/>
<path stroke-width="8.857142857142858" stroke="black" d="M 300 20 301 30"/>
<path stroke-width="0.5" stroke="black" d="M 304 55 301 30"/>
<path stroke-width="20.0" stroke="black" d="M 304 55 312 53"/>
<path stroke-width="0.5" stroke="black" d="M 304 55 309 81"/>
<path stroke-width="20.0" stroke="black" d="M 312 53 304 55"/>
<path stroke-width="0.5" stroke="black" d="M 309 81 304 55"/>
<path stroke-width="20.0" stroke="black" d="M 309 81 309 90"/>
<path stroke-width="0.5" stroke="black" d="M 309 81 331 73"/>
<path stroke-width="20.0" stroke="black" d="M 309 90 309 81"/>
<path stroke-width="0.5" stroke="black" d="M 331 73 309 81"/>
<path stroke-width="20.0" stroke="black" d="M 331 73 321 74"/>
<path stroke-width="0.5" stroke="black" d="M 331 73 366 62"/>
<path stroke-width="20.0" stroke="black" d="M 321 74 331 73"/>
<path stroke-width="0.5" stroke="black" d="M 366 62 331 73"/>
<path stroke-width="20.0" stroke="black" d="M 366 62 365 55"/>
<path stroke-width="0.5" stroke="black" d="M 366 62 402 72"/>
<path stroke-width="20.0" stroke="black" d="M 365 55 366 62"/>
<path stroke-width="0.5" stroke="black" d="M 402 72 366 62"/>
<path stroke-width="20.0" stroke="black" d="M 402 72 409 65"/>
<path stroke-width="0.5" stroke="black" d="M 402 72 408 103"/>
<path stroke-width="20.0" stroke="black" d="M 409 65 402 72"/>
<path stroke-width="0.5" stroke="black" d="M 142 145 179 166"/>
<path stroke-width="20.0" stroke="black" d="M 142 145 138 139"/>
<path stroke-width="0.5" stroke="black" d="M 142 145 106 130"/>
<path stroke-width="20.0" stroke="black" d="M 138 139 142 145"/>
<path stroke-width="20.0" stroke="black" d="M 152 301 154 307"/>
<path stroke-width="0.5" stroke="black" d="M 152 301 202 312"/>
<path stroke-width="20.0" stroke="black" d="M 154 307 152 301"/>
<path stroke-width="0.5" stroke="black" d="M 202 312 152 301"/>
<path stroke-width="20.0" stroke="black" d="M 202 312 207 320"/>
<path stroke-width="0.5" stroke="black" d="M 202 312 248 306"/>
<path stroke-width="20.0" stroke="black" d="M 207 320 202 312"/>
<path stroke-width="0.5" stroke="black" d="M 248 306 202 312"/>
<path stroke-width="20.0" stroke="black" d="M 248 306 257 310"/>
<path stroke-width="0.5" stroke="black" d="M 248 306 264 287"/>
<path stroke-width="20.0" stroke="black" d="M 257 310 248 306"/>
<path stroke-width="0.5" stroke="black" d="M 264 287 248 306"/>
<path stroke-width="20.0" stroke="black" d="M 264 287 275 287"/>
<path stroke-width="0.5" stroke="black" d="M 264 287 242 274"/>
<path stroke-width="20.0" stroke="black" d="M 275 287 264 287"/>
<path stroke-width="0.5" stroke="black" d="M 242 274 264 287"/>
<path stroke-width="20.0" stroke="black" d="M 242 274 248 269"/>
<path stroke-width="0.5" stroke="black" d="M 242 274 210 278"/>
<path stroke-width="20.0" stroke="black" d="M 248 269 242 274"/>
<path stroke-width="0.5" stroke="black" d="M 210 278 242 274"/>
<path stroke-width="20.0" stroke="black" d="M 210 278 201 278"/>
<path stroke-width="0.5" stroke="black" d="M 152 301 100 277"/>
<path stroke-width="0.5" stroke="black" d="M 301 30 304 55"/>
<path stroke-width="20.0" stroke="black" d="M 99 284 100 277"/>
<path stroke-width="20.0" stroke="black" d="M 100 277 99 284"/>
<path stroke-width="0.5" stroke="black" d="M 106 130 142 145"/>
<path stroke-width="20.0" stroke="black" d="M 106 130 110 121"/>
<path stroke-width="0.5" stroke="black" d="M 106 130 66 143"/>
<path stroke-width="20.0" stroke="black" d="M 110 121 106 130"/>
<path stroke-width="0.5" stroke="black" d="M 66 143 106 130"/>
<path stroke-width="20.0" stroke="black" d="M 66 143 65 136"/>
<path stroke-width="0.5" stroke="black" d="M 66 143 35 172"/>
<path stroke-width="20.0" stroke="black" d="M 65 136 66 143"/>
<path stroke-width="0.5" stroke="black" d="M 35 172 66 143"/>
<path stroke-width="20.0" stroke="black" d="M 35 172 25 167"/>
<path stroke-width="0.5" stroke="black" d="M 35 172 32 209"/>
<path stroke-width="20.0" stroke="black" d="M 25 167 35 172"/>
<path stroke-width="0.5" stroke="black" d="M 32 209 35 172"/>
<path stroke-width="20.0" stroke="black" d="M 32 209 20 209"/>
<path stroke-width="0.5" stroke="black" d="M 32 209 58 247"/>
<path stroke-width="20.0" stroke="black" d="M 20 209 32 209"/>
<path stroke-width="0.5" stroke="black" d="M 58 247 32 209"/>
<path stroke-width="20.0" stroke="black" d="M 58 247 47 250"/>
<path stroke-width="0.5" stroke="black" d="M 58 247 100 277"/>
<path stroke-width="20.0" stroke="black" d="M 47 250 58 247"/>
<path stroke-width="0.5" stroke="black" d="M 100 277 58 247"/>
<path stroke-width="0.5" stroke="black" d="M 100 277 152 301"/>
<path stroke-width="8.857142857142858" stroke="black" d="M 301 30 300 20"/>
<circle cx="201" cy="278" r="20.0" style="fill:blue;stroke:black;stroke-width:1.0"/>
<circle cx="210" cy="278" r="20.0" style="fill:blue;stroke:black;stroke-width:1.0"/>
<circle cx="248" cy="269" r="20.0" style="fill:blue;stroke:black;stroke-width:1.0"/>
<circle cx="242" cy="274" r="20.0" style="fill:blue;stroke:black;stroke-width:1.0"/>
<circle cx="275" cy="287" r="20.0" style="fill:red;stroke:black;stroke-width:1.0"/>
<circle cx="264" cy="287" r="20.0" style="fill:red;stroke:black;stroke-width:1.0"/>
<circle cx="257" cy="310" r="20.0" style="fill:red;stroke:black;stroke-width:1.0"/>
<circle cx="248" cy="306" r="20.0" style="fill:red;stroke:black;stroke-width:1.0"/>
<circle cx="207" cy="320" r="20.0" style="fill:green;stroke:black;stroke-width:1.0"/>
<circle cx="202" cy="312" r="20.0" style="fill:green;stroke:black;stroke-width:1.0"/>
<circle cx="154" cy="307" r="20.0" style="fill:green;stroke:black;stroke-width:1.0"/>
<circle cx="152" cy="301" r="20.0" style="fill:green;stroke:black;stroke-width:1.0"/>
<circle cx="99" cy="284" r="20.0" style="fill:orange;stroke:black;stroke-width:1.0"/>
<circle cx="100" cy="277" r="20.0" style="fill:orange;stroke:black;stroke-width:1.0"/>
<circle cx="47" cy="250" r="20.0" style="fill:orange;stroke:black;stroke-width:1.0"/>
<circle cx="58" cy="247" r="20.0" style="fill:orange;stroke:black;stroke-width:1.0"/>
<circle cx="20" cy="209" r="20.0" style="fill:purple;stroke:black;stroke-width:1.0"/>
<circle cx="32" cy="209" r="20.0" style="fill:purple;stroke:black;stroke-width:1.0"/>
<circle cx="25" cy="167" r="20.0" style="fill:purple;stroke:black;stroke-width:1.0"/>
<circle cx="35" cy="172" r="20.0" style="fill:purple;stroke:black;stroke-width:1.0"/>
<circle cx="65" cy="136" r="20.0" style="fill:yellow;stroke:black;stroke-width:1.0"/>
<circle cx="66" cy="143" r="20.0" style="fill:yellow;stroke:black;stroke-width:1.0"/>
<circle cx="110" cy="121" r="20.0" style="fill:yellow;stroke:black;stroke-width:1.0"/>
<circle cx="106" cy="130" r="20.0" style="fill:yellow;stroke:black;stroke-width:1.0"/>
<circle cx="138" cy="139" r="20.0" style="fill:fuchsia;stroke:black;stroke-width:1.0"/>
<circle cx="142" cy="145" r="20.0" style="fill:fuchsia;stroke:black;stroke-width:1.0"/>
<circle cx="169" cy="168" r="20.0" style="fill:fuchsia;stroke:black;stroke-width:1.0"/>
<circle cx="179" cy="166" r="20.0" style="fill:fuchsia;stroke:black;stroke-width:1.0"/>
<circle cx="221" cy="187" r="20.0" style="fill:olive;stroke:black;stroke-width:1.0"/>
<circle cx="227" cy="180" r="20.0" style="fill:olive;stroke:black;stroke-width:1.0"/>
<circle cx="283" cy="185" r="20.0" style="fill:olive;stroke:black;stroke-width:1.0"/>
<circle cx="284" cy="177" r="20.0" style="fill:olive;stroke:black;stroke-width:1.0"/>
<circle cx="347" cy="166" r="20.0" style="fill:aqua;stroke:black;stroke-width:1.0"/>
<circle cx="339" cy="161" r="20.0" style="fill:aqua;stroke:black;stroke-width:1.0"/>
<circle cx="395" cy="137" r="20.0" style="fill:aqua;stroke:black;stroke-width:1.0"/>
<circle cx="384" cy="135" r="20.0" style="fill:aqua;stroke:black;stroke-width:1.0"/>
<circle cx="420" cy="100" r="20.0" style="fill:brown;stroke:black;stroke-width:1.0"/>
<circle cx="408" cy="103" r="20.0" style="fill:brown;stroke:black;stroke-width:1.0"/>
<circle cx="409" cy="65" r="20.0" style="fill:brown;stroke:black;stroke-width:1.0"/>
<circle cx="402" cy="72" r="20.0" style="fill:brown;stroke:black;stroke-width:1.0"/>
<circle cx="365" cy="55" r="20.0" style="fill:blue;stroke:black;stroke-width:1.0"/>
<circle cx="366" cy="62" r="20.0" style="fill:blue;stroke:black;stroke-width:1.0"/>
<circle cx="321" cy="74" r="20.0" style="fill:blue;stroke:black;stroke-width:1.0"/>
<circle cx="331" cy="73" r="20.0" style="fill:blue;stroke:black;stroke-width:1.0"/>
<circle cx="309" cy="90" r="20.0" style="fill:green;stroke:black;stroke-width:1.0"/>
<circle cx="309" cy="81" r="20.0" style="fill:green;stroke:black;stroke-width:1.0"/>
<circle cx="312" cy="53" r="20.0" style="fill:red;stroke:black;stroke-width:1.0"/>
<circle cx="304" cy="55" r="20.0" style="fill:red;stroke:black;stroke-width:1.0"/>
<circle cx="300" cy="20" r="20.0" style="fill:red;stroke:black;stroke-width:1.0"/>
<circle cx="301" cy="30" r="20.0" style="fill:red;stroke:black;stroke-width:1.0"/>
</svg>
