<svg width="440" height="340" xmlns="http://www.w3.org/2000/svg">
<path stroke-width="0.5" stroke="black" d="M 100 320 194 150"/>
<path stroke-width="0.5" stroke="black" d="M 225 255 201 145"/>
<path stroke-width="0.7846715328467153" stroke="black" d="M 132 182 100 320"/>
<path stroke-width="0.7846715328467153" stroke="black" d="M 132 182 194 150"/>
<path stroke-width="0.7846715328467153" stroke="black" d="M 132 182 95 31"/>
<path stroke-width="1.2116788321167884" stroke="black" d="M 132 182 110 129"/>
<path stroke-width="5.9799270072992705" stroke="black" d="M 132 182 157 96"/>
<path stroke-width="0.7846715328467153" stroke="black" d="M 132 182 35 250"/>
<path stroke-width="1.0693430656934306" stroke="black" d="M 132 182 135 250"/>
<path stroke-width="0.7846715328467153" stroke="black" d="M 132 182 247 130"/>
<path stroke-width="0.7846715328467153" stroke="black" d="M 132 182 225 255"/>
<path stroke-width="0.7846715328467153" stroke="black" d="M 132 182 20 114"/>
<path stroke-width="0.7846715328467153" stroke="black" d="M 132 182 175 20"/>
<path stroke-width="0.7846715328467153" stroke="black" d="M 132 182 45 21"/>
<path stroke-width="0.7846715328467153" stroke="black" d="M 132 182 201 145"/>
<path stroke-width="0.927007299270073" stroke="black" d="M 420 160 157 96"/>
<path stroke-width="0.5" stroke="black" d="M 20 114 100 320"/>
<path stroke-width="0.5" stroke="black" d="M 20 114 194 150"/>
<path stroke-width="0.5" stroke="black" d="M 20 114 95 31"/>
<path stroke-width="0.6423357664233577" stroke="black" d="M 20 114 110 129"/>
<path stroke-width="0.5" stroke="black" d="M 225 255 45 21"/>
<path stroke-width="2.5638686131386863" stroke="black" d="M 20 114 157 96"/>
<path stroke-width="0.7135036496350364" stroke="black" d="M 225 255 175 20"/>
<path stroke-width="0.7846715328467153" stroke="black" d="M 225 255 132 182"/>
<path stroke-width="0.5" stroke="black" d="M 247 130 95 31"/>
<path stroke-width="0.6423357664233577" stroke="black" d="M 247 130 110 129"/>
<path stroke-width="2.5638686131386863" stroke="black" d="M 247 130 157 96"/>
<path stroke-width="0.5" stroke="black" d="M 247 130 35 250"/>
<path stroke-width="0.6423357664233577" stroke="black" d="M 247 130 135 250"/>
<path stroke-width="0.5" stroke="black" d="M 247 130 225 255"/>
<path stroke-width="0.7846715328467153" stroke="black" d="M 247 130 132 182"/>
<path stroke-width="0.5" stroke="black" d="M 247 130 20 114"/>
<path stroke-width="0.5" stroke="black" d="M 247 130 175 20"/>
<path stroke-width="0.5" stroke="black" d="M 247 130 45 21"/>
<path stroke-width="0.5" stroke="black" d="M 247 130 201 145"/>
<path stroke-width="0.5" stroke="black" d="M 225 255 100 320"/>
<path stroke-width="0.5" stroke="black" d="M 225 255 194 150"/>
<path stroke-width="0.5" stroke="black" d="M 225 255 95 31"/>
<path stroke-width="0.6423357664233577" stroke="black" d="M 225 255 110 129"/>
<path stroke-width="2.3503649635036497" stroke="black" d="M 225 255 157 96"/>
<path stroke-width="0.5" stroke="black" d="M 225 255 35 250"/>
<path stroke-width="0.6423357664233577" stroke="black" d="M 225 255 135 250"/>
<path stroke-width="0.5" stroke="black" d="M 225 255 247 130"/>
<path stroke-width="0.5" stroke="black" d="M 225 255 20 114"/>
<path stroke-width="0.5" stroke="black" d="M 247 130 194 150"/>
<path stroke-width="0.5" stroke="black" d="M 20 114 35 250"/>
<path stroke-width="0.5" stroke="black" d="M 20 114 247 130"/>
<path stroke-width="0.5" stroke="black" d="M 45 21 35 250"/>
<path stroke-width="0.6423357664233577" stroke="black" d="M 45 21 135 250"/>
<path stroke-width="0.5" stroke="black" d="M 45 21 247 130"/>
<path stroke-width="0.5" stroke="black" d="M 45 21 225 255"/>
<path stroke-width="0.7846715328467153" stroke="black" d="M 45 21 132 182"/>
<path stroke-width="0.5" stroke="black" d="M 45 21 20 114"/>
<path stroke-width="0.5" stroke="black" d="M 45 21 175 20"/>
<path stroke-width="0.5" stroke="black" d="M 45 21 201 145"/>
<path stroke-width="0.5" stroke="black" d="M 201 145 100 320"/>
<path stroke-width="0.7135036496350364" stroke="black" d="M 201 145 194 150"/>
<path stroke-width="0.5" stroke="black" d="M 201 145 95 31"/>
<path stroke-width="0.6423357664233577" stroke="black" d="M 201 145 110 129"/>
<path stroke-width="2.3503649635036497" stroke="black" d="M 201 145 157 96"/>
<path stroke-width="0.5" stroke="black" d="M 201 145 35 250"/>
<path stroke-width="0.6423357664233577" stroke="black" d="M 201 145 135 250"/>
<path stroke-width="0.5" stroke="black" d="M 201 145 247 130"/>
<path stroke-width="0.5" stroke="black" d="M 201 145 225 255"/>
<path stroke-width="0.7846715328467153" stroke="black" d="M 201 145 132 182"/>
<path stroke-width="0.5" stroke="black" d="M 201 145 20 114"/>
<path stroke-width="2.5638686131386863" stroke="black" d="M 45 21 157 96"/>
<path stroke-width="0.6423357664233577" stroke="black" d="M 20 114 135 250"/>
<path stroke-width="0.6423357664233577" stroke="black" d="M 45 21 110 129"/>
<path stroke-width="0.5" stroke="black" d="M 45 21 194 150"/>
<path stroke-width="0.5" stroke="black" d="M 20 114 225 255"/>
<path stroke-width="0.7846715328467153" stroke="black" d="M 20 114 132 182"/>
<path stroke-width="0.5" stroke="black" d="M 20 114 175 20"/>
<path stroke-width="0.5" stroke="black" d="M 20 114 45 21"/>
<path stroke-width="0.5" stroke="black" d="M 20 114 201 145"/>
<path stroke-width="0.5" stroke="black" d="M 175 20 100 320"/>
<path stroke-width="0.5" stroke="black" d="M 175 20 194 150"/>
<path stroke-width="0.5" stroke="black" d="M 175 20 95 31"/>
<path stroke-width="0.6423357664233577" stroke="black" d="M 175 20 110 129"/>
<path stroke-width="2.3503649635036497" stroke="black" d="M 175 20 157 96"/>
<path stroke-width="0.5" stroke="black" d="M 175 20 35 250"/>
<path stroke-width="0.6423357664233577" stroke="black" d="M 175 20 135 250"/>
<path stroke-width="0.5" stroke="black" d="M 175 20 247 130"/>
<path stroke-width="0.7135036496350364" stroke="black" d="M 175 20 225 255"/>
<path stroke-width="0.7846715328467153" stroke="black" d="M 175 20 132 182"/>
<path stroke-width="0.5" stroke="black" d="M 175 20 20 114"/>
<path stroke-width="0.5" stroke="black" d="M 175 20 45 21"/>
<path stroke-width="0.5" stroke="black" d="M 175 20 201 145"/>
<path stroke-width="0.5" stroke="black" d="M 45 21 100 320"/>
<path stroke-width="0.5" stroke="black" d="M 45 21 95 31"/>
<path stroke-width="0.5" stroke="black" d="M 247 130 100 320"/>
<path stroke-width="0.6423357664233577" stroke="black" d="M 135 250 201 145"/>
<path stroke-width="0.6423357664233577" stroke="black" d="M 135 250 45 21"/>
<path stroke-width="0.5" stroke="black" d="M 194 150 45 21"/>
<path stroke-width="0.7135036496350364" stroke="black" d="M 194 150 201 145"/>
<path stroke-width="0.7135036496350364" stroke="black" d="M 95 31 100 320"/>
<path stroke-width="0.5" stroke="black" d="M 95 31 194 150"/>
<path stroke-width="0.6423357664233577" stroke="black" d="M 95 31 110 129"/>
<path stroke-width="2.3503649635036497" stroke="black" d="M 95 31 157 96"/>
<path stroke-width="0.5" stroke="black" d="M 95 31 35 250"/>
<path stroke-width="0.6423357664233577" stroke="black" d="M 95 31 135 250"/>
<path stroke-width="0.5" stroke="black" d="M 95 31 247 130"/>
<path stroke-width="0.5" stroke="black" d="M 95 31 225 255"/>
<path stroke-width="0.7846715328467153" stroke="black" d="M 95 31 132 182"/>
<path stroke-width="0.5" stroke="black" d="M 95 31 20 114"/>
<path stroke-width="0.5" stroke="black" d="M 95 31 175 20"/>
<path stroke-width="0.5" stroke="black" d="M 95 31 45 21"/>
<path stroke-width="0.5" stroke="black" d="M 95 31 201 145"/>
<path stroke-width="0.6423357664233577" stroke="black" d="M 110 129 100 320"/>
<path stroke-width="0.6423357664233577" stroke="black" d="M 110 129 194 150"/>
<path stroke-width="0.6423357664233577" stroke="black" d="M 110 129 95 31"/>
<path stroke-width="20.0" stroke="black" d="M 110 129 157 96"/>
<path stroke-width="0.5" stroke="black" d="M 194 150 175 20"/>
<path stroke-width="0.6423357664233577" stroke="black" d="M 110 129 35 250"/>
<path stroke-width="0.5" stroke="black" d="M 194 150 20 114"/>
<path stroke-width="0.5" stroke="black" d="M 194 150 225 255"/>
<path stroke-width="0.7135036496350364" stroke="black" d="M 100 320 95 31"/>
<path stroke-width="0.6423357664233577" stroke="black" d="M 100 320 110 129"/>
<path stroke-width="2.3503649635036497" stroke="black" d="M 100 320 157 96"/>
<path stroke-width="0.5" stroke="black" d="M 100 320 35 250"/>
<path stroke-width="0.6423357664233577" stroke="black" d="M 100 320 135 250"/>
<path stroke-width="0.5" stroke="black" d="M 100 320 247 130"/>
<path stroke-width="0.5" stroke="black" d="M 100 320 225 255"/>
<path stroke-width="0.7846715328467153" stroke="black" d="M 100 320 132 182"/>
<path stroke-width="0.5" stroke="black" d="M 100 320 20 114"/>
<path stroke-width="0.5" stroke="black" d="M 100 320 175 20"/>
<path stroke-width="0.5" stroke="black" d="M 100 320 45 21"/>
<path stroke-width="0.5" stroke="black" d="M 100 320 201 145"/>
<path stroke-width="0.5" stroke="black" d="M 194 150 100 320"/>
<path stroke-width="0.5" stroke="black" d="M 194 150 95 31"/>
<path stroke-width="0.6423357664233577" stroke="black" d="M 194 150 110 129"/>
<path stroke-width="2.3503649635036497" stroke="black" d="M 194 150 157 96"/>
<path stroke-width="0.5" stroke="black" d="M 194 150 35 250"/>
<path stroke-width="0.6423357664233577" stroke="black" d="M 194 150 135 250"/>
<path stroke-width="0.5" stroke="black" d="M 194 150 247 130"/>
<path stroke-width="0.7846715328467153" stroke="black" d="M 194 150 132 182"/>
<path stroke-width="0.927007299270073" stroke="black" d="M 110 129 135 250"/>
<path stroke-width="0.6423357664233577" stroke="black" d="M 110 129 247 130"/>
<path stroke-width="0.6423357664233577" stroke="black" d="M 110 129 225 255"/>
<path stroke-width="0.6423357664233577" stroke="black" d="M 35 250 135 250"/>
<path stroke-width="0.5" stroke="black" d="M 35 250 247 130"/>
<path stroke-width="0.5" stroke="black" d="M 35 250 225 255"/>
<path stroke-width="0.7846715328467153" stroke="black" d="M 35 250 132 182"/>
<path stroke-width="0.5" stroke="black" d="M 35 250 20 114"/>
<path stroke-width="0.5" stroke="black" d="M 35 250 175 20"/>
<path stroke-width="0.5" stroke="black" d="M 35 250 45 21"/>
<path stroke-width="0.5" stroke="black" d="M 35 250 201 145"/>
<path stroke-width="0.6423357664233577" stroke="black" d="M 135 250 100 320"/>
<path stroke-width="0.6423357664233577" stroke="black" d="M 135 250 194 150"/>
<path stroke-width="0.6423357664233577" stroke="black" d="M 135 250 95 31"/>
<path stroke-width="0.927007299270073" stroke="black" d="M 135 250 110 129"/>
<path stroke-width="4.12956204379562" stroke="black" d="M 135 250 157 96"/>
<path stroke-width="0.6423357664233577" stroke="black" d="M 135 250 35 250"/>
<path stroke-width="0.6423357664233577" stroke="black" d="M 135 250 247 130"/>
<path stroke-width="0.6423357664233577" stroke="black" d="M 135 250 225 255"/>
<path stroke-width="1.0693430656934306" stroke="black" d="M 135 250 132 182"/>
<path stroke-width="0.6423357664233577" stroke="black" d="M 135 250 20 114"/>
<path stroke-width="0.6423357664233577" stroke="black" d="M 135 250 175 20"/>
<path stroke-width="2.5638686131386863" stroke="black" d="M 35 250 157 96"/>
<path stroke-width="0.6423357664233577" stroke="black" d="M 35 250 110 129"/>
<path stroke-width="0.5" stroke="black" d="M 35 250 95 31"/>
<path stroke-width="0.5" stroke="black" d="M 35 250 194 150"/>
<path stroke-width="1.2116788321167884" stroke="black" d="M 110 129 132 182"/>
<path stroke-width="0.6423357664233577" stroke="black" d="M 110 129 20 114"/>
<path stroke-width="0.6423357664233577" stroke="black" d="M 110 129 175 20"/>
<path stroke-width="0.6423357664233577" stroke="black" d="M 110 129 45 21"/>
<path stroke-width="0.6423357664233577" stroke="black" d="M 110 129 201 145"/>
<path stroke-width="2.3503649635036497" stroke="black" d="M 157 96 100 320"/>
<path stroke-width="2.3503649635036497" stroke="black" d="M 157 96 194 150"/>
<path stroke-width="2.3503649635036497" stroke="black" d="M 157 96 95 31"/>
<path stroke-width="20.0" stroke="black" d="M 157 96 110 129"/>
<path stroke-width="0.5" stroke="black" d="M 201 145 175 20"/>
<path stroke-width="2.5638686131386863" stroke="black" d="M 157 96 35 250"/>
<path stroke-width="2.5638686131386863" stroke="black" d="M 157 96 247 130"/>
<path stroke-width="2.3503649635036497" stroke="black" d="M 157 96 225 255"/>
<path stroke-width="5.9799270072992705" stroke="black" d="M 157 96 132 182"/>
<path stroke-width="0.927007299270073" stroke="black" d="M 157 96 420 160"/>
<path stroke-width="2.5638686131386863" stroke="black" d="M 157 96 20 114"/>
<path stroke-width="2.3503649635036497" stroke="black" d="M 157 96 175 20"/>
<path stroke-width="2.5638686131386863" stroke="black" d="M 157 96 45 21"/>
<path stroke-width="2.3503649635036497" stroke="black" d="M 157 96 201 145"/>
<path stroke-width="0.5" stroke="black" d="M 35 250 100 320"/>
<path stroke-width="4.12956204379562" stroke="black" d="M 157 96 135 250"/>
<path stroke-width="0.5" stroke="black" d="M 201 145 45 21"/>
<circle cx="100" cy="320" r="7.0" style="fill:gray;stroke:black;stroke-width:1.0"/>
<circle cx="194" cy="150" r="7.0" style="fill:gray;stroke:black;stroke-width:1.0"/>
<circle cx="95" cy="31" r="7.0" style="fill:gray;stroke:black;stroke-width:1.0"/>
<circle cx="110" cy="129" r="7.0" style="fill:gray;stroke:black;stroke-width:1.0"/>
<circle cx="157" cy="96" r="7.0" style="fill:gray;stroke:black;stroke-width:1.0"/>
<circle cx="35" cy="250" r="7.0" style="fill:gray;stroke:black;stroke-width:1.0"/>
<circle cx="135" cy="250" r="7.0" style="fill:gray;stroke:black;stroke-width:1.0"/>
<circle cx="247" cy="130" r="7.0" style="fill:gray;stroke:black;stroke-width:1.0"/>
<circle cx="225" cy="255" r="7.0" style="fill:gray;stroke:black;stroke-width:1.0"/>
<circle cx="132" cy="182" r="7.0" style="fill:gray;stroke:black;stroke-width:1.0"/>
<circle cx="420" cy="160" r="7.0" style="fill:gray;stroke:black;stroke-width:1.0"/>
<circle cx="20" cy="114" r="7.0" style="fill:gray;stroke:black;stroke-width:1.0"/>
<circle cx="175" cy="20" r="7.0" style="fill:gray;stroke:black;stroke-width:1.0"/>
<circle cx="45" cy="21" r="7.0" style="fill:gray;stroke:black;stroke-width:1.0"/>
<circle cx="201" cy="145" r="7.0" style="fill:gray;stroke:black;stroke-width:1.0"/>
</svg>
