<svg width="440" height="340" xmlns="http://www.w3.org/2000/svg">
<path stroke-width="0.7294117647058823" stroke="black" d="M 312 30 207 165"/>
<path stroke-width="0.7294117647058823" stroke="black" d="M 45 204 409 210"/>
<path stroke-width="1.188235294117647" stroke="black" d="M 45 204 258 156"/>
<path stroke-width="1.188235294117647" stroke="black" d="M 45 204 59 228"/>
<path stroke-width="1.188235294117647" stroke="black" d="M 45 204 20 128"/>
<path stroke-width="0.7294117647058823" stroke="black" d="M 45 204 96 20"/>
<path stroke-width="0.7294117647058823" stroke="black" d="M 45 204 145 320"/>
<path stroke-width="0.7294117647058823" stroke="black" d="M 45 204 420 109"/>
<path stroke-width="0.7294117647058823" stroke="black" d="M 59 228 312 30"/>
<path stroke-width="1.188235294117647" stroke="black" d="M 59 228 207 165"/>
<path stroke-width="0.7294117647058823" stroke="black" d="M 59 228 315 284"/>
<path stroke-width="3.9411764705882355" stroke="black" d="M 45 204 133 186"/>
<path stroke-width="1.188235294117647" stroke="black" d="M 59 228 185 218"/>
<path stroke-width="1.6470588235294117" stroke="black" d="M 59 228 187 209"/>
<path stroke-width="3.9411764705882355" stroke="black" d="M 59 228 133 186"/>
<path stroke-width="0.7294117647058823" stroke="black" d="M 59 228 409 210"/>
<path stroke-width="1.188235294117647" stroke="black" d="M 59 228 258 156"/>
<path stroke-width="1.188235294117647" stroke="black" d="M 59 228 45 204"/>
<path stroke-width="1.188235294117647" stroke="black" d="M 59 228 20 128"/>
<path stroke-width="0.7294117647058823" stroke="black" d="M 59 228 96 20"/>
<path stroke-width="0.7294117647058823" stroke="black" d="M 59 228 145 320"/>
<path stroke-width="0.7294117647058823" stroke="black" d="M 59 228 420 109"/>
<path stroke-width="0.7294117647058823" stroke="black" d="M 20 128 312 30"/>
<path stroke-width="1.188235294117647" stroke="black" d="M 59 228 153 82"/>
<path stroke-width="1.188235294117647" stroke="black" d="M 20 128 207 165"/>
<path stroke-width="1.6470588235294117" stroke="black" d="M 45 204 187 209"/>
<path stroke-width="1.188235294117647" stroke="black" d="M 45 204 185 218"/>
<path stroke-width="0.7294117647058823" stroke="black" d="M 409 210 59 228"/>
<path stroke-width="0.7294117647058823" stroke="black" d="M 409 210 20 128"/>
<path stroke-width="0.5" stroke="black" d="M 409 210 96 20"/>
<path stroke-width="0.8441176470588235" stroke="black" d="M 409 210 145 320"/>
<path stroke-width="0.5" stroke="black" d="M 409 210 420 109"/>
<path stroke-width="0.7294117647058823" stroke="black" d="M 258 156 312 30"/>
<path stroke-width="1.188235294117647" stroke="black" d="M 258 156 207 165"/>
<path stroke-width="0.7294117647058823" stroke="black" d="M 258 156 315 284"/>
<path stroke-width="1.188235294117647" stroke="black" d="M 258 156 185 218"/>
<path stroke-width="1.188235294117647" stroke="black" d="M 258 156 153 82"/>
<path stroke-width="1.188235294117647" stroke="black" d="M 45 204 153 82"/>
<path stroke-width="1.6470588235294117" stroke="black" d="M 258 156 187 209"/>
<path stroke-width="0.7294117647058823" stroke="black" d="M 258 156 409 210"/>
<path stroke-width="1.188235294117647" stroke="black" d="M 258 156 45 204"/>
<path stroke-width="1.188235294117647" stroke="black" d="M 258 156 59 228"/>
<path stroke-width="1.188235294117647" stroke="black" d="M 258 156 20 128"/>
<path stroke-width="0.7294117647058823" stroke="black" d="M 258 156 96 20"/>
<path stroke-width="0.7294117647058823" stroke="black" d="M 258 156 145 320"/>
<path stroke-width="0.7294117647058823" stroke="black" d="M 258 156 420 109"/>
<path stroke-width="0.7294117647058823" stroke="black" d="M 45 204 312 30"/>
<path stroke-width="1.188235294117647" stroke="black" d="M 45 204 207 165"/>
<path stroke-width="0.7294117647058823" stroke="black" d="M 45 204 315 284"/>
<path stroke-width="14.952941176470588" stroke="black" d="M 258 156 133 186"/>
<path stroke-width="0.7294117647058823" stroke="black" d="M 20 128 315 284"/>
<path stroke-width="1.188235294117647" stroke="black" d="M 20 128 185 218"/>
<path stroke-width="1.188235294117647" stroke="black" d="M 20 128 153 82"/>
<path stroke-width="0.7294117647058823" stroke="black" d="M 145 320 153 82"/>
<path stroke-width="0.9588235294117646" stroke="black" d="M 145 320 187 209"/>
<path stroke-width="2.1058823529411765" stroke="black" d="M 145 320 133 186"/>
<path stroke-width="0.8441176470588235" stroke="black" d="M 145 320 409 210"/>
<path stroke-width="0.7294117647058823" stroke="black" d="M 145 320 258 156"/>
<path stroke-width="0.7294117647058823" stroke="black" d="M 145 320 45 204"/>
<path stroke-width="0.7294117647058823" stroke="black" d="M 145 320 59 228"/>
<path stroke-width="0.7294117647058823" stroke="black" d="M 145 320 20 128"/>
<path stroke-width="0.5" stroke="black" d="M 145 320 96 20"/>
<path stroke-width="0.5" stroke="black" d="M 145 320 420 109"/>
<path stroke-width="0.7294117647058823" stroke="black" d="M 145 320 185 218"/>
<path stroke-width="0.5" stroke="black" d="M 420 109 312 30"/>
<path stroke-width="0.5" stroke="black" d="M 420 109 315 284"/>
<path stroke-width="0.7294117647058823" stroke="black" d="M 420 109 185 218"/>
<path stroke-width="0.7294117647058823" stroke="black" d="M 420 109 153 82"/>
<path stroke-width="0.8441176470588235" stroke="black" d="M 420 109 187 209"/>
<path stroke-width="2.1058823529411765" stroke="black" d="M 420 109 133 186"/>
<path stroke-width="0.5" stroke="black" d="M 420 109 409 210"/>
<path stroke-width="0.7294117647058823" stroke="black" d="M 420 109 258 156"/>
<path stroke-width="0.7294117647058823" stroke="black" d="M 420 109 45 204"/>
<path stroke-width="0.7294117647058823" stroke="black" d="M 420 109 59 228"/>
<path stroke-width="0.7294117647058823" stroke="black" d="M 420 109 20 128"/>
<path stroke-width="0.7294117647058823" stroke="black" d="M 420 109 207 165"/>
<path stroke-width="0.5" stroke="black" d="M 145 320 315 284"/>
<path stroke-width="0.7294117647058823" stroke="black" d="M 145 320 207 165"/>
<path stroke-width="0.5" stroke="black" d="M 145 320 312 30"/>
<path stroke-width="1.6470588235294117" stroke="black" d="M 20 128 187 209"/>
<path stroke-width="3.9411764705882355" stroke="black" d="M 20 128 133 186"/>
<path stroke-width="0.7294117647058823" stroke="black" d="M 20 128 409 210"/>
<path stroke-width="1.188235294117647" stroke="black" d="M 20 128 258 156"/>
<path stroke-width="1.188235294117647" stroke="black" d="M 20 128 45 204"/>
<path stroke-width="1.188235294117647" stroke="black" d="M 20 128 59 228"/>
<path stroke-width="0.7294117647058823" stroke="black" d="M 20 128 96 20"/>
<path stroke-width="0.7294117647058823" stroke="black" d="M 20 128 145 320"/>
<path stroke-width="0.7294117647058823" stroke="black" d="M 20 128 420 109"/>
<path stroke-width="0.5" stroke="black" d="M 96 20 312 30"/>
<path stroke-width="0.7294117647058823" stroke="black" d="M 96 20 207 165"/>
<path stroke-width="0.8441176470588235" stroke="black" d="M 96 20 315 284"/>
<path stroke-width="0.7294117647058823" stroke="black" d="M 96 20 185 218"/>
<path stroke-width="0.7294117647058823" stroke="black" d="M 96 20 153 82"/>
<path stroke-width="0.9588235294117646" stroke="black" d="M 96 20 187 209"/>
<path stroke-width="2.1058823529411765" stroke="black" d="M 96 20 133 186"/>
<path stroke-width="0.5" stroke="black" d="M 96 20 409 210"/>
<path stroke-width="0.7294117647058823" stroke="black" d="M 96 20 258 156"/>
<path stroke-width="0.7294117647058823" stroke="black" d="M 96 20 45 204"/>
<path stroke-width="0.7294117647058823" stroke="black" d="M 96 20 59 228"/>
<path stroke-width="0.7294117647058823" stroke="black" d="M 96 20 20 128"/>
<path stroke-width="0.5" stroke="black" d="M 96 20 145 320"/>
<path stroke-width="0.5" stroke="black" d="M 96 20 420 109"/>
<path stroke-width="0.7294117647058823" stroke="black" d="M 409 210 45 204"/>
<path stroke-width="0.7294117647058823" stroke="black" d="M 409 210 258 156"/>
<path stroke-width="2.1058823529411765" stroke="black" d="M 409 210 133 186"/>
<path stroke-width="0.9588235294117646" stroke="black" d="M 409 210 187 209"/>
<path stroke-width="0.5" stroke="black" d="M 315 284 312 30"/>
<path stroke-width="0.7294117647058823" stroke="black" d="M 315 284 207 165"/>
<path stroke-width="0.7294117647058823" stroke="black" d="M 315 284 185 218"/>
<path stroke-width="0.7294117647058823" stroke="black" d="M 315 284 153 82"/>
<path stroke-width="0.9588235294117646" stroke="black" d="M 315 284 187 209"/>
<path stroke-width="2.1058823529411765" stroke="black" d="M 315 284 133 186"/>
<path stroke-width="0.5" stroke="black" d="M 315 284 409 210"/>
<path stroke-width="0.7294117647058823" stroke="black" d="M 315 284 258 156"/>
<path stroke-width="0.7294117647058823" stroke="black" d="M 315 284 45 204"/>
<path stroke-width="0.7294117647058823" stroke="black" d="M 315 284 59 228"/>
<path stroke-width="0.7294117647058823" stroke="black" d="M 207 165 420 109"/>
<path stroke-width="0.7294117647058823" stroke="black" d="M 315 284 20 128"/>
<path stroke-width="0.5" stroke="black" d="M 315 284 145 320"/>
<path stroke-width="0.5" stroke="black" d="M 315 284 420 109"/>
<path stroke-width="0.7294117647058823" stroke="black" d="M 185 218 312 30"/>
<path stroke-width="1.188235294117647" stroke="black" d="M 185 218 207 165"/>
<path stroke-width="0.7294117647058823" stroke="black" d="M 185 218 315 284"/>
<path stroke-width="1.188235294117647" stroke="black" d="M 185 218 153 82"/>
<path stroke-width="1.6470588235294117" stroke="black" d="M 185 218 187 209"/>
<path stroke-width="3.9411764705882355" stroke="black" d="M 185 218 133 186"/>
<path stroke-width="0.7294117647058823" stroke="black" d="M 185 218 409 210"/>
<path stroke-width="1.188235294117647" stroke="black" d="M 185 218 258 156"/>
<path stroke-width="0.8441176470588235" stroke="black" d="M 315 284 96 20"/>
<path stroke-width="0.7294117647058823" stroke="black" d="M 207 165 145 320"/>
<path stroke-width="0.7294117647058823" stroke="black" d="M 207 165 96 20"/>
<path stroke-width="1.188235294117647" stroke="black" d="M 207 165 20 128"/>
<path stroke-width="0.5" stroke="black" d="M 312 30 315 284"/>
<path stroke-width="0.7294117647058823" stroke="black" d="M 312 30 185 218"/>
<path stroke-width="0.7294117647058823" stroke="black" d="M 312 30 153 82"/>
<path stroke-width="1.3029411764705883" stroke="black" d="M 312 30 187 209"/>
<path stroke-width="2.1058823529411765" stroke="black" d="M 312 30 133 186"/>
<path stroke-width="0.5" stroke="black" d="M 312 30 409 210"/>
<path stroke-width="0.7294117647058823" stroke="black" d="M 312 30 258 156"/>
<path stroke-width="0.7294117647058823" stroke="black" d="M 312 30 45 204"/>
<path stroke-width="0.7294117647058823" stroke="black" d="M 312 30 59 228"/>
<path stroke-width="0.7294117647058823" stroke="black" d="M 312 30 20 128"/>
<path stroke-width="0.5" stroke="black" d="M 312 30 96 20"/>
<path stroke-width="0.5" stroke="black" d="M 312 30 145 320"/>
<path stroke-width="0.5" stroke="black" d="M 312 30 420 109"/>
<path stroke-width="0.7294117647058823" stroke="black" d="M 207 165 312 30"/>
<path stroke-width="0.7294117647058823" stroke="black" d="M 207 165 315 284"/>
<path stroke-width="1.188235294117647" stroke="black" d="M 207 165 185 218"/>
<path stroke-width="1.188235294117647" stroke="black" d="M 207 165 153 82"/>
<path stroke-width="1.6470588235294117" stroke="black" d="M 207 165 187 209"/>
<path stroke-width="20.0" stroke="black" d="M 207 165 133 186"/>
<path stroke-width="0.7294117647058823" stroke="black" d="M 207 165 409 210"/>
<path stroke-width="1.188235294117647" stroke="black" d="M 207 165 258 156"/>
<path stroke-width="1.188235294117647" stroke="black" d="M 207 165 45 204"/>
<path stroke-width="1.188235294117647" stroke="black" d="M 207 165 59 228"/>
<path stroke-width="1.188235294117647" stroke="black" d="M 185 218 45 204"/>
<path stroke-width="0.5" stroke="black" d="M 420 109 96 20"/>
<path stroke-width="1.188235294117647" stroke="black" d="M 185 218 59 228"/>
<path stroke-width="0.7294117647058823" stroke="black" d="M 185 218 96 20"/>
<path stroke-width="0.9588235294117646" stroke="black" d="M 187 209 96 20"/>
<path stroke-width="0.9588235294117646" stroke="black" d="M 187 209 145 320"/>
<path stroke-width="0.8441176470588235" stroke="black" d="M 187 209 420 109"/>
<path stroke-width="2.1058823529411765" stroke="black" d="M 133 186 312 30"/>
<path stroke-width="20.0" stroke="black" d="M 133 186 207 165"/>
<path stroke-width="2.1058823529411765" stroke="black" d="M 133 186 315 284"/>
<path stroke-width="3.9411764705882355" stroke="black" d="M 133 186 185 218"/>
<path stroke-width="3.597058823529412" stroke="black" d="M 133 186 153 82"/>
<path stroke-width="5.202941176470588" stroke="black" d="M 133 186 187 209"/>
<path stroke-width="2.1058823529411765" stroke="black" d="M 133 186 409 210"/>
<path stroke-width="1.6470588235294117" stroke="black" d="M 187 209 20 128"/>
<path stroke-width="14.952941176470588" stroke="black" d="M 133 186 258 156"/>
<path stroke-width="3.9411764705882355" stroke="black" d="M 133 186 59 228"/>
<path stroke-width="3.9411764705882355" stroke="black" d="M 133 186 20 128"/>
<path stroke-width="2.1058823529411765" stroke="black" d="M 133 186 96 20"/>
<path stroke-width="2.1058823529411765" stroke="black" d="M 133 186 145 320"/>
<path stroke-width="2.1058823529411765" stroke="black" d="M 133 186 420 109"/>
<path stroke-width="0.5" stroke="black" d="M 409 210 312 30"/>
<path stroke-width="0.7294117647058823" stroke="black" d="M 409 210 207 165"/>
<path stroke-width="0.5" stroke="black" d="M 409 210 315 284"/>
<path stroke-width="0.7294117647058823" stroke="black" d="M 409 210 185 218"/>
<path stroke-width="0.7294117647058823" stroke="black" d="M 409 210 153 82"/>
<path stroke-width="3.9411764705882355" stroke="black" d="M 133 186 45 204"/>
<path stroke-width="1.6470588235294117" stroke="black" d="M 187 209 59 228"/>
<path stroke-width="1.6470588235294117" stroke="black" d="M 187 209 45 204"/>
<path stroke-width="1.6470588235294117" stroke="black" d="M 187 209 258 156"/>
<path stroke-width="0.7294117647058823" stroke="black" d="M 185 218 145 320"/>
<path stroke-width="0.7294117647058823" stroke="black" d="M 185 218 420 109"/>
<path stroke-width="0.7294117647058823" stroke="black" d="M 153 82 312 30"/>
<path stroke-width="1.188235294117647" stroke="black" d="M 153 82 207 165"/>
<path stroke-width="0.7294117647058823" stroke="black" d="M 153 82 315 284"/>
<path stroke-width="1.188235294117647" stroke="black" d="M 153 82 185 218"/>
<path stroke-width="4.170588235294117" stroke="black" d="M 153 82 187 209"/>
<path stroke-width="3.597058823529412" stroke="black" d="M 153 82 133 186"/>
<path stroke-width="0.7294117647058823" stroke="black" d="M 153 82 409 210"/>
<path stroke-width="1.188235294117647" stroke="black" d="M 153 82 258 156"/>
<path stroke-width="1.188235294117647" stroke="black" d="M 153 82 45 204"/>
<path stroke-width="1.188235294117647" stroke="black" d="M 153 82 59 228"/>
<path stroke-width="1.188235294117647" stroke="black" d="M 153 82 20 128"/>
<path stroke-width="0.7294117647058823" stroke="black" d="M 153 82 96 20"/>
<path stroke-width="0.7294117647058823" stroke="black" d="M 153 82 145 320"/>
<path stroke-width="0.7294117647058823" stroke="black" d="M 153 82 420 109"/>
<path stroke-width="1.3029411764705883" stroke="black" d="M 187 209 312 30"/>
<path stroke-width="1.6470588235294117" stroke="black" d="M 187 209 207 165"/>
<path stroke-width="0.9588235294117646" stroke="black" d="M 187 209 315 284"/>
<path stroke-width="1.6470588235294117" stroke="black" d="M 187 209 185 218"/>
<path stroke-width="4.170588235294117" stroke="black" d="M 187 209 153 82"/>
<path stroke-width="5.202941176470588" stroke="black" d="M 187 209 133 186"/>
<path stroke-width="0.9588235294117646" stroke="black" d="M 187 209 409 210"/>
<path stroke-width="1.188235294117647" stroke="black" d="M 185 218 20 128"/>
<path stroke-width="0.5" stroke="black" d="M 420 109 145 320"/>
<circle cx="312" cy="30" r="7.0" style="fill:gray;stroke:black;stroke-width:1.0"/>
<circle cx="207" cy="165" r="7.0" style="fill:gray;stroke:black;stroke-width:1.0"/>
<circle cx="315" cy="284" r="7.0" style="fill:gray;stroke:black;stroke-width:1.0"/>
<circle cx="185" cy="218" r="7.0" style="fill:gray;stroke:black;stroke-width:1.0"/>
<circle cx="153" cy="82" r="7.0" style="fill:gray;stroke:black;stroke-width:1.0"/>
<circle cx="187" cy="209" r="7.0" style="fill:gray;stroke:black;stroke-width:1.0"/>
<circle cx="133" cy="186" r="7.0" style="fill:gray;stroke:black;stroke-width:1.0"/>
<circle cx="409" cy="210" r="7.0" style="fill:gray;stroke:black;stroke-width:1.0"/>
<circle cx="258" cy="156" r="7.0" style="fill:gray;stroke:black;stroke-width:1.0"/>
<circle cx="45" cy="204" r="7.0" style="fill:gray;stroke:black;stroke-width:1.0"/>
<circle cx="59" cy="228" r="7.0" style="fill:gray;stroke:black;stroke-width:1.0"/>
<circle cx="20" cy="128" r="7.0" style="fill:gray;stroke:black;stroke-width:1.0"/>
<circle cx="96" cy="20" r="7.0" style="fill:gray;stroke:black;stroke-width:1.0"/>
<circle cx="145" cy="320" r="7.0" style="fill:gray;stroke:black;stroke-width:1.0"/>
<circle cx="420" cy="109" r="7.0" style="fill:gray;stroke:black;stroke-width:1.0"/>
</svg>
