<svg width="440" height="340" xmlns="http://www.w3.org/2000/svg">
<path stroke-width="1" stroke="black" d="M 420 271 227 201"/>
<path stroke-width="1" stroke="black" d="M 139 201 295 319"/>
<path stroke-width="1" stroke="black" d="M 139 201 235 216"/>
<path stroke-width="1" stroke="black" d="M 139 201 341 118"/>
<path stroke-width="1" stroke="black" d="M 139 201 187 124"/>
<path stroke-width="1" stroke="black" d="M 139 201 127 47"/>
<path stroke-width="1" stroke="black" d="M 139 201 20 192"/>
<path stroke-width="1" stroke="black" d="M 139 201 162 320"/>
<path stroke-width="1" stroke="black" d="M 341 118 420 271"/>
<path stroke-width="1" stroke="black" d="M 341 118 227 201"/>
<path stroke-width="1" stroke="black" d="M 341 118 265 20"/>
<path stroke-width="1" stroke="black" d="M 139 201 298 165"/>
<path stroke-width="1" stroke="black" d="M 341 118 374 178"/>
<path stroke-width="1" stroke="black" d="M 341 118 292 222"/>
<path stroke-width="1" stroke="black" d="M 341 118 298 165"/>
<path stroke-width="1" stroke="black" d="M 341 118 295 319"/>
<path stroke-width="1" stroke="black" d="M 341 118 235 216"/>
<path stroke-width="1" stroke="black" d="M 341 118 139 201"/>
<path stroke-width="1" stroke="black" d="M 341 118 187 124"/>
<path stroke-width="1" stroke="black" d="M 341 118 127 47"/>
<path stroke-width="1" stroke="black" d="M 341 118 20 192"/>
<path stroke-width="1" stroke="black" d="M 341 118 162 320"/>
<path stroke-width="1" stroke="black" d="M 187 124 420 271"/>
<path stroke-width="1" stroke="black" d="M 341 118 271 118"/>
<path stroke-width="1" stroke="black" d="M 187 124 227 201"/>
<path stroke-width="1" stroke="black" d="M 139 201 292 222"/>
<path stroke-width="1" stroke="black" d="M 139 201 374 178"/>
<path stroke-width="1" stroke="black" d="M 295 319 341 118"/>
<path stroke-width="1" stroke="black" d="M 295 319 187 124"/>
<path stroke-width="1" stroke="black" d="M 295 319 127 47"/>
<path stroke-width="1" stroke="black" d="M 295 319 20 192"/>
<path stroke-width="1" stroke="black" d="M 295 319 162 320"/>
<path stroke-width="1" stroke="black" d="M 235 216 420 271"/>
<path stroke-width="1" stroke="black" d="M 235 216 227 201"/>
<path stroke-width="1" stroke="black" d="M 235 216 265 20"/>
<path stroke-width="1" stroke="black" d="M 235 216 374 178"/>
<path stroke-width="1" stroke="black" d="M 235 216 271 118"/>
<path stroke-width="1" stroke="black" d="M 139 201 271 118"/>
<path stroke-width="1" stroke="black" d="M 235 216 292 222"/>
<path stroke-width="1" stroke="black" d="M 235 216 295 319"/>
<path stroke-width="1" stroke="black" d="M 235 216 139 201"/>
<path stroke-width="1" stroke="black" d="M 235 216 341 118"/>
<path stroke-width="1" stroke="black" d="M 235 216 187 124"/>
<path stroke-width="1" stroke="black" d="M 235 216 127 47"/>
<path stroke-width="1" stroke="black" d="M 235 216 20 192"/>
<path stroke-width="1" stroke="black" d="M 235 216 162 320"/>
<path stroke-width="1" stroke="black" d="M 139 201 420 271"/>
<path stroke-width="1" stroke="black" d="M 139 201 227 201"/>
<path stroke-width="1" stroke="black" d="M 139 201 265 20"/>
<path stroke-width="1" stroke="black" d="M 235 216 298 165"/>
<path stroke-width="1" stroke="black" d="M 187 124 265 20"/>
<path stroke-width="1" stroke="black" d="M 187 124 374 178"/>
<path stroke-width="1" stroke="black" d="M 187 124 271 118"/>
<path stroke-width="1" stroke="black" d="M 20 192 271 118"/>
<path stroke-width="1" stroke="black" d="M 20 192 292 222"/>
<path stroke-width="1" stroke="black" d="M 20 192 298 165"/>
<path stroke-width="1" stroke="black" d="M 20 192 295 319"/>
<path stroke-width="1" stroke="black" d="M 20 192 235 216"/>
<path stroke-width="1" stroke="black" d="M 20 192 139 201"/>
<path stroke-width="1" stroke="black" d="M 20 192 341 118"/>
<path stroke-width="1" stroke="black" d="M 20 192 187 124"/>
<path stroke-width="1" stroke="black" d="M 20 192 127 47"/>
<path stroke-width="1" stroke="black" d="M 20 192 162 320"/>
<path stroke-width="1" stroke="black" d="M 20 192 374 178"/>
<path stroke-width="1" stroke="black" d="M 162 320 420 271"/>
<path stroke-width="1" stroke="black" d="M 162 320 265 20"/>
<path stroke-width="1" stroke="black" d="M 162 320 374 178"/>
<path stroke-width="1" stroke="black" d="M 162 320 271 118"/>
<path stroke-width="1" stroke="black" d="M 162 320 292 222"/>
<path stroke-width="1" stroke="black" d="M 162 320 298 165"/>
<path stroke-width="1" stroke="black" d="M 162 320 295 319"/>
<path stroke-width="1" stroke="black" d="M 162 320 235 216"/>
<path stroke-width="1" stroke="black" d="M 162 320 139 201"/>
<path stroke-width="1" stroke="black" d="M 162 320 341 118"/>
<path stroke-width="1" stroke="black" d="M 162 320 187 124"/>
<path stroke-width="1" stroke="black" d="M 162 320 227 201"/>
<path stroke-width="1" stroke="black" d="M 20 192 265 20"/>
<path stroke-width="1" stroke="black" d="M 20 192 227 201"/>
<path stroke-width="1" stroke="black" d="M 20 192 420 271"/>
<path stroke-width="1" stroke="black" d="M 187 124 292 222"/>
<path stroke-width="1" stroke="black" d="M 187 124 298 165"/>
<path stroke-width="1" stroke="black" d="M 187 124 295 319"/>
<path stroke-width="1" stroke="black" d="M 187 124 235 216"/>
<path stroke-width="1" stroke="black" d="M 187 124 139 201"/>
<path stroke-width="1" stroke="black" d="M 187 124 341 118"/>
<path stroke-width="1" stroke="black" d="M 187 124 127 47"/>
<path stroke-width="1" stroke="black" d="M 187 124 20 192"/>
<path stroke-width="1" stroke="black" d="M 187 124 162 320"/>
<path stroke-width="1" stroke="black" d="M 127 47 420 271"/>
<path stroke-width="1" stroke="black" d="M 127 47 227 201"/>
<path stroke-width="1" stroke="black" d="M 127 47 265 20"/>
<path stroke-width="1" stroke="black" d="M 127 47 374 178"/>
<path stroke-width="1" stroke="black" d="M 127 47 271 118"/>
<path stroke-width="1" stroke="black" d="M 127 47 292 222"/>
<path stroke-width="1" stroke="black" d="M 127 47 298 165"/>
<path stroke-width="1" stroke="black" d="M 127 47 295 319"/>
<path stroke-width="1" stroke="black" d="M 127 47 235 216"/>
<path stroke-width="1" stroke="black" d="M 127 47 139 201"/>
<path stroke-width="1" stroke="black" d="M 127 47 341 118"/>
<path stroke-width="1" stroke="black" d="M 127 47 187 124"/>
<path stroke-width="1" stroke="black" d="M 127 47 20 192"/>
<path stroke-width="1" stroke="black" d="M 127 47 162 320"/>
<path stroke-width="1" stroke="black" d="M 295 319 139 201"/>
<path stroke-width="1" stroke="black" d="M 295 319 235 216"/>
<path stroke-width="1" stroke="black" d="M 295 319 298 165"/>
<path stroke-width="1" stroke="black" d="M 295 319 292 222"/>
<path stroke-width="1" stroke="black" d="M 265 20 420 271"/>
<path stroke-width="1" stroke="black" d="M 265 20 227 201"/>
<path stroke-width="1" stroke="black" d="M 265 20 374 178"/>
<path stroke-width="1" stroke="black" d="M 265 20 271 118"/>
<path stroke-width="1" stroke="black" d="M 265 20 292 222"/>
<path stroke-width="1" stroke="black" d="M 265 20 298 165"/>
<path stroke-width="1" stroke="black" d="M 265 20 295 319"/>
<path stroke-width="1" stroke="black" d="M 265 20 235 216"/>
<path stroke-width="1" stroke="black" d="M 265 20 139 201"/>
<path stroke-width="1" stroke="black" d="M 265 20 341 118"/>
<path stroke-width="1" stroke="black" d="M 227 201 162 320"/>
<path stroke-width="1" stroke="black" d="M 265 20 187 124"/>
<path stroke-width="1" stroke="black" d="M 265 20 20 192"/>
<path stroke-width="1" stroke="black" d="M 265 20 162 320"/>
<path stroke-width="1" stroke="black" d="M 374 178 420 271"/>
<path stroke-width="1" stroke="black" d="M 374 178 227 201"/>
<path stroke-width="1" stroke="black" d="M 374 178 265 20"/>
<path stroke-width="1" stroke="black" d="M 374 178 271 118"/>
<path stroke-width="1" stroke="black" d="M 374 178 292 222"/>
<path stroke-width="1" stroke="black" d="M 374 178 298 165"/>
<path stroke-width="1" stroke="black" d="M 374 178 295 319"/>
<path stroke-width="1" stroke="black" d="M 374 178 235 216"/>
<path stroke-width="1" stroke="black" d="M 265 20 127 47"/>
<path stroke-width="1" stroke="black" d="M 227 201 20 192"/>
<path stroke-width="1" stroke="black" d="M 227 201 127 47"/>
<path stroke-width="1" stroke="black" d="M 227 201 187 124"/>
<path stroke-width="1" stroke="black" d="M 420 271 265 20"/>
<path stroke-width="1" stroke="black" d="M 420 271 374 178"/>
<path stroke-width="1" stroke="black" d="M 420 271 271 118"/>
<path stroke-width="1" stroke="black" d="M 420 271 292 222"/>
<path stroke-width="1" stroke="black" d="M 420 271 298 165"/>
<path stroke-width="1" stroke="black" d="M 420 271 295 319"/>
<path stroke-width="1" stroke="black" d="M 420 271 235 216"/>
<path stroke-width="1" stroke="black" d="M 420 271 139 201"/>
<path stroke-width="1" stroke="black" d="M 420 271 341 118"/>
<path stroke-width="1" stroke="black" d="M 420 271 187 124"/>
<path stroke-width="1" stroke="black" d="M 420 271 127 47"/>
<path stroke-width="1" stroke="black" d="M 420 271 20 192"/>
<path stroke-width="1" stroke="black" d="M 420 271 162 320"/>
<path stroke-width="1" stroke="black" d="M 227 201 420 271"/>
<path stroke-width="1" stroke="black" d="M 227 201 265 20"/>
<path stroke-width="1" stroke="black" d="M 227 201 374 178"/>
<path stroke-width="1" stroke="black" d="M 227 201 271 118"/>
<path stroke-width="1" stroke="black" d="M 227 201 292 222"/>
<path stroke-width="1" stroke="black" d="M 227 201 298 165"/>
<path stroke-width="1" stroke="black" d="M 227 201 295 319"/>
<path stroke-width="1" stroke="black" d="M 227 201 235 216"/>
<path stroke-width="1" stroke="black" d="M 227 201 139 201"/>
<path stroke-width="1" stroke="black" d="M 227 201 341 118"/>
<path stroke-width="1" stroke="black" d="M 374 178 139 201"/>
<path stroke-width="1" stroke="black" d="M 162 320 127 47"/>
<path stroke-width="1" stroke="black" d="M 374 178 341 118"/>
<path stroke-width="1" stroke="black" d="M 374 178 127 47"/>
<path stroke-width="1" stroke="black" d="M 292 222 127 47"/>
<path stroke-width="1" stroke="black" d="M 292 222 20 192"/>
<path stroke-width="1" stroke="black" d="M 292 222 162 320"/>
<path stroke-width="1" stroke="black" d="M 298 165 420 271"/>
<path stroke-width="1" stroke="black" d="M 298 165 227 201"/>
<path stroke-width="1" stroke="black" d="M 298 165 265 20"/>
<path stroke-width="1" stroke="black" d="M 298 165 374 178"/>
<path stroke-width="1" stroke="black" d="M 298 165 271 118"/>
<path stroke-width="1" stroke="black" d="M 298 165 292 222"/>
<path stroke-width="1" stroke="black" d="M 298 165 295 319"/>
<path stroke-width="1" stroke="black" d="M 292 222 187 124"/>
<path stroke-width="1" stroke="black" d="M 298 165 235 216"/>
<path stroke-width="1" stroke="black" d="M 298 165 341 118"/>
<path stroke-width="1" stroke="black" d="M 298 165 187 124"/>
<path stroke-width="1" stroke="black" d="M 298 165 127 47"/>
<path stroke-width="1" stroke="black" d="M 298 165 20 192"/>
<path stroke-width="1" stroke="black" d="M 298 165 162 320"/>
<path stroke-width="1" stroke="black" d="M 295 319 420 271"/>
<path stroke-width="1" stroke="black" d="M 295 319 227 201"/>
<path stroke-width="1" stroke="black" d="M 295 319 265 20"/>
<path stroke-width="1" stroke="black" d="M 295 319 374 178"/>
<path stroke-width="1" stroke="black" d="M 295 319 271 118"/>
<path stroke-width="1" stroke="black" d="M 298 165 139 201"/>
<path stroke-width="1" stroke="black" d="M 292 222 341 118"/>
<path stroke-width="1" stroke="black" d="M 292 222 139 201"/>
<path stroke-width="1" stroke="black" d="M 292 222 235 216"/>
<path stroke-width="1" stroke="black" d="M 374 178 20 192"/>
<path stroke-width="1" stroke="black" d="M 374 178 162 320"/>
<path stroke-width="1" stroke="black" d="M 271 118 420 271"/>
<path stroke-width="1" stroke="black" d="M 271 118 227 201"/>
<path stroke-width="1" stroke="black" d="M 271 118 265 20"/>
<path stroke-width="1" stroke="black" d="M 271 118 374 178"/>
<path stroke-width="1" stroke="black" d="M 271 118 292 222"/>
<path stroke-width="1" stroke="black" d="M 271 118 298 165"/>
<path stroke-width="1" stroke="black" d="M 271 118 295 319"/>
<path stroke-width="1" stroke="black" d="M 271 118 235 216"/>
<path stroke-width="1" stroke="black" d="M 271 118 139 201"/>
<path stroke-width="1" stroke="black" d="M 271 118 341 118"/>
<path stroke-width="1" stroke="black" d="M 271 118 187 124"/>
<path stroke-width="1" stroke="black" d="M 271 118 127 47"/>
<path stroke-width="1" stroke="black" d="M 271 118 20 192"/>
<path stroke-width="1" stroke="black" d="M 271 118 162 320"/>
<path stroke-width="1" stroke="black" d="M 292 222 420 271"/>
<path stroke-width="1" stroke="black" d="M 292 222 227 201"/>
<path stroke-width="1" stroke="black" d="M 292 222 265 20"/>
<path stroke-width="1" stroke="black" d="M 292 222 374 178"/>
<path stroke-width="1" stroke="black" d="M 292 222 271 118"/>
<path stroke-width="1" stroke="black" d="M 292 222 298 165"/>
<path stroke-width="1" stroke="black" d="M 292 222 295 319"/>
<path stroke-width="1" stroke="black" d="M 374 178 187 124"/>
<path stroke-width="1" stroke="black" d="M 162 320 20 192"/>
<circle cx="420" cy="271" r="7.0" style="fill:gray;stroke:black;stroke-width:1.0"/>
<circle cx="227" cy="201" r="7.0" style="fill:gray;stroke:black;stroke-width:1.0"/>
<circle cx="265" cy="20" r="7.0" style="fill:gray;stroke:black;stroke-width:1.0"/>
<circle cx="374" cy="178" r="7.0" style="fill:gray;stroke:black;stroke-width:1.0"/>
<circle cx="271" cy="118" r="7.0" style="fill:gray;stroke:black;stroke-width:1.0"/>
<circle cx="292" cy="222" r="7.0" style="fill:gray;stroke:black;stroke-width:1.0"/>
<circle cx="298" cy="165" r="7.0" style="fill:gray;stroke:black;stroke-width:1.0"/>
<circle cx="295" cy="319" r="7.0" style="fill:gray;stroke:black;stroke-width:1.0"/>
<circle cx="235" cy="216" r="7.0" style="fill:gray;stroke:black;stroke-width:1.0"/>
<circle cx="139" cy="201" r="7.0" style="fill:gray;stroke:black;stroke-width:1.0"/>
<circle cx="341" cy="118" r="7.0" style="fill:gray;stroke:black;stroke-width:1.0"/>
<circle cx="187" cy="124" r="7.0" style="fill:gray;stroke:black;stroke-width:1.0"/>
<circle cx="127" cy="47" r="7.0" style="fill:gray;stroke:black;stroke-width:1.0"/>
<circle cx="20" cy="192" r="7.0" style="fill:gray;stroke:black;stroke-width:1.0"/>
<circle cx="162" cy="320" r="7.0" style="fill:gray;stroke:black;stroke-width:1.0"/>
</svg>
