<svg width="440" height="340" xmlns="http://www.w3.org/2000/svg">
<path stroke-width="1" stroke="black" d="M 20 20 37 47"/>
<path stroke-width="1" stroke="black" d="M 55 85 37 47"/>
<path stroke-width="1" stroke="black" d="M 55 85 75 121"/>
<path stroke-width="1" stroke="black" d="M 75 121 55 85"/>
<path stroke-width="1" stroke="black" d="M 75 121 93 167"/>
<path stroke-width="1" stroke="black" d="M 93 167 75 121"/>
<path stroke-width="1" stroke="black" d="M 93 167 114 202"/>
<path stroke-width="1" stroke="black" d="M 114 202 93 167"/>
<path stroke-width="1" stroke="black" d="M 114 202 138 248"/>
<path stroke-width="1" stroke="black" d="M 138 248 114 202"/>
<path stroke-width="1" stroke="black" d="M 138 248 168 275"/>
<path stroke-width="1" stroke="black" d="M 168 275 138 248"/>
<path stroke-width="1" stroke="black" d="M 168 275 205 306"/>
<path stroke-width="1" stroke="black" d="M 205 306 168 275"/>
<path stroke-width="1" stroke="black" d="M 205 306 244 318"/>
<path stroke-width="1" stroke="black" d="M 244 318 205 306"/>
<path stroke-width="1" stroke="black" d="M 244 318 289 320"/>
<path stroke-width="1" stroke="black" d="M 289 320 244 318"/>
<path stroke-width="1" stroke="black" d="M 289 320 329 309"/>
<path stroke-width="1" stroke="black" d="M 329 309 289 320"/>
<path stroke-width="1" stroke="black" d="M 329 309 366 288"/>
<path stroke-width="1" stroke="black" d="M 366 288 329 309"/>
<path stroke-width="1" stroke="black" d="M 366 288 396 264"/>
<path stroke-width="1" stroke="black" d="M 396 264 366 288"/>
<path stroke-width="1" stroke="black" d="M 396 264 420 239"/>
<path stroke-width="1" stroke="black" d="M 420 239 396 264"/>
<path stroke-width="1" stroke="black" d="M 37 47 20 20"/>
<path stroke-width="1" stroke="black" d="M 37 47 55 85"/>
<circle cx="20" cy="20" r="7.0" style="fill:gray;stroke:black;stroke-width:1.0"/>
<circle cx="420" cy="239" r="7.0" style="fill:gray;stroke:black;stroke-width:1.0"/>
<circle cx="396" cy="264" r="7.0" style="fill:gray;stroke:black;stroke-width:1.0"/>
<circle cx="366" cy="288" r="7.0" style="fill:gray;stroke:black;stroke-width:1.0"/>
<circle cx="329" cy="309" r="7.0" style="fill:gray;stroke:black;stroke-width:1.0"/>
<circle cx="289" cy="320" r="7.0" style="fill:gray;stroke:black;stroke-width:1.0"/>
<circle cx="244" cy="318" r="7.0" style="fill:gray;stroke:black;stroke-width:1.0"/>
<circle cx="205" cy="306" r="7.0" style="fill:gray;stroke:black;stroke-width:1.0"/>
<circle cx="168" cy="275" r="7.0" style="fill:gray;stroke:black;stroke-width:1.0"/>
<circle cx="138" cy="248" r="7.0" style="fill:gray;stroke:black;stroke-width:1.0"/>
<circle cx="114" cy="202" r="7.0" style="fill:gray;stroke:black;stroke-width:1.0"/>
<circle cx="93" cy="167" r="7.0" style="fill:gray;stroke:black;stroke-width:1.0"/>
<circle cx="75" cy="121" r="7.0" style="fill:gray;stroke:black;stroke-width:1.0"/>
<circle cx="55" cy="85" r="7.0" style="fill:gray;stroke:black;stroke-width:1.0"/>
<circle cx="37" cy="47" r="7.0" style="fill:gray;stroke:black;stroke-width:1.0"/>
</svg>
