<svg width="440" height="340" xmlns="http://www.w3.org/2000/svg">
<path stroke-width="1" stroke="black" d="M 20 269 51 276"/>
<path stroke-width="1" stroke="black" d="M 89 284 51 276"/>
<path stroke-width="1" stroke="black" d="M 89 284 132 294"/>
<path stroke-width="1" stroke="black" d="M 132 294 89 284"/>
<path stroke-width="1" stroke="black" d="M 132 294 176 304"/>
<path stroke-width="1" stroke="black" d="M 176 304 132 294"/>
<path stroke-width="1" stroke="black" d="M 176 304 224 313"/>
<path stroke-width="1" stroke="black" d="M 224 313 176 304"/>
<path stroke-width="1" stroke="black" d="M 224 313 269 320"/>
<path stroke-width="1" stroke="black" d="M 269 320 224 313"/>
<path stroke-width="1" stroke="black" d="M 269 320 317 319"/>
<path stroke-width="1" stroke="black" d="M 317 319 269 320"/>
<path stroke-width="1" stroke="black" d="M 317 319 360 305"/>
<path stroke-width="1" stroke="black" d="M 360 305 317 319"/>
<path stroke-width="1" stroke="black" d="M 360 305 399 274"/>
<path stroke-width="1" stroke="black" d="M 399 274 360 305"/>
<path stroke-width="1" stroke="black" d="M 399 274 420 219"/>
<path stroke-width="1" stroke="black" d="M 420 219 399 274"/>
<path stroke-width="1" stroke="black" d="M 420 219 417 150"/>
<path stroke-width="1" stroke="black" d="M 417 150 420 219"/>
<path stroke-width="1" stroke="black" d="M 417 150 401 93"/>
<path stroke-width="1" stroke="black" d="M 401 93 417 150"/>
<path stroke-width="1" stroke="black" d="M 401 93 373 50"/>
<path stroke-width="1" stroke="black" d="M 373 50 401 93"/>
<path stroke-width="1" stroke="black" d="M 373 50 348 20"/>
<path stroke-width="1" stroke="black" d="M 348 20 373 50"/>
<path stroke-width="1" stroke="black" d="M 51 276 20 269"/>
<path stroke-width="1" stroke="black" d="M 51 276 89 284"/>
<circle cx="20" cy="269" r="20.0" style="fill:orange;stroke:black;stroke-width:1.0"/>
<circle cx="348" cy="20" r="20.0" style="fill:blue;stroke:black;stroke-width:1.0"/>
<circle cx="373" cy="50" r="20.0" style="fill:blue;stroke:black;stroke-width:1.0"/>
<circle cx="401" cy="93" r="20.0" style="fill:blue;stroke:black;stroke-width:1.0"/>
<circle cx="417" cy="150" r="20.0" style="fill:blue;stroke:black;stroke-width:1.0"/>
<circle cx="420" cy="219" r="20.0" style="fill:red;stroke:black;stroke-width:1.0"/>
<circle cx="399" cy="274" r="20.0" style="fill:red;stroke:black;stroke-width:1.0"/>
<circle cx="360" cy="305" r="20.0" style="fill:red;stroke:black;stroke-width:1.0"/>
<circle cx="317" cy="319" r="20.0" style="fill:red;stroke:black;stroke-width:1.0"/>
<circle cx="269" cy="320" r="20.0" style="fill:green;stroke:black;stroke-width:1.0"/>
<circle cx="224" cy="313" r="20.0" style="fill:green;stroke:black;stroke-width:1.0"/>
<circle cx="176" cy="304" r="20.0" style="fill:green;stroke:black;stroke-width:1.0"/>
<circle cx="132" cy="294" r="20.0" style="fill:green;stroke:black;stroke-width:1.0"/>
<circle cx="89" cy="284" r="20.0" style="fill:orange;stroke:black;stroke-width:1.0"/>
<circle cx="51" cy="276" r="20.0" style="fill:orange;stroke:black;stroke-width:1.0"/>
</svg>
