<svg width="440" height="340" xmlns="http://www.w3.org/2000/svg">
<path stroke-width="1" stroke="black" d="M 420 314 377 317"/>
<path stroke-width="1" stroke="black" d="M 327 320 377 317"/>
<path stroke-width="1" stroke="black" d="M 327 320 268 318"/>
<path stroke-width="1" stroke="black" d="M 268 318 327 320"/>
<path stroke-width="1" stroke="black" d="M 268 318 213 311"/>
<path stroke-width="1" stroke="black" d="M 213 311 268 318"/>
<path stroke-width="1" stroke="black" d="M 213 311 153 298"/>
<path stroke-width="1" stroke="black" d="M 153 298 213 311"/>
<path stroke-width="1" stroke="black" d="M 153 298 100 275"/>
<path stroke-width="1" stroke="black" d="M 100 275 153 298"/>
<path stroke-width="1" stroke="black" d="M 100 275 55 244"/>
<path stroke-width="1" stroke="black" d="M 55 244 100 275"/>
<path stroke-width="1" stroke="black" d="M 55 244 24 202"/>
<path stroke-width="1" stroke="black" d="M 24 202 55 244"/>
<path stroke-width="1" stroke="black" d="M 24 202 20 157"/>
<path stroke-width="1" stroke="black" d="M 20 157 24 202"/>
<path stroke-width="1" stroke="black" d="M 20 157 44 113"/>
<path stroke-width="1" stroke="black" d="M 44 113 20 157"/>
<path stroke-width="1" stroke="black" d="M 44 113 79 80"/>
<path stroke-width="1" stroke="black" d="M 79 80 44 113"/>
<path stroke-width="1" stroke="black" d="M 79 80 126 54"/>
<path stroke-width="1" stroke="black" d="M 126 54 79 80"/>
<path stroke-width="1" stroke="black" d="M 126 54 170 34"/>
<path stroke-width="1" stroke="black" d="M 170 34 126 54"/>
<path stroke-width="1" stroke="black" d="M 170 34 209 20"/>
<path stroke-width="1" stroke="black" d="M 209 20 170 34"/>
<path stroke-width="1" stroke="black" d="M 377 317 420 314"/>
<path stroke-width="1" stroke="black" d="M 377 317 327 320"/>
<circle cx="420" cy="314" r="20.0" style="fill:gray;stroke:black;stroke-width:1.0"/>
<circle cx="209" cy="20" r="20.0" style="fill:gray;stroke:black;stroke-width:1.0"/>
<circle cx="170" cy="34" r="20.0" style="fill:gray;stroke:black;stroke-width:1.0"/>
<circle cx="126" cy="54" r="20.0" style="fill:gray;stroke:black;stroke-width:1.0"/>
<circle cx="79" cy="80" r="20.0" style="fill:gray;stroke:black;stroke-width:1.0"/>
<circle cx="44" cy="113" r="20.0" style="fill:gray;stroke:black;stroke-width:1.0"/>
<circle cx="20" cy="157" r="20.0" style="fill:gray;stroke:black;stroke-width:1.0"/>
<circle cx="24" cy="202" r="20.0" style="fill:gray;stroke:black;stroke-width:1.0"/>
<circle cx="55" cy="244" r="20.0" style="fill:gray;stroke:black;stroke-width:1.0"/>
<circle cx="100" cy="275" r="20.0" style="fill:gray;stroke:black;stroke-width:1.0"/>
<circle cx="153" cy="298" r="20.0" style="fill:gray;stroke:black;stroke-width:1.0"/>
<circle cx="213" cy="311" r="20.0" style="fill:gray;stroke:black;stroke-width:1.0"/>
<circle cx="268" cy="318" r="20.0" style="fill:gray;stroke:black;stroke-width:1.0"/>
<circle cx="327" cy="320" r="20.0" style="fill:gray;stroke:black;stroke-width:1.0"/>
<circle cx="377" cy="317" r="20.0" style="fill:gray;stroke:black;stroke-width:1.0"/>
</svg>
