<svg width="440" height="340" xmlns="http://www.w3.org/2000/svg">
<path stroke-width="1" stroke="black" d="M 20 20 60 101"/>
<path stroke-width="1" stroke="black" d="M 60 101 20 20"/>
<path stroke-width="1" stroke="black" d="M 60 101 146 214"/>
<path stroke-width="1" stroke="black" d="M 120 320 146 214"/>
<path stroke-width="1" stroke="black" d="M 146 214 60 101"/>
<path stroke-width="1" stroke="black" d="M 146 214 120 320"/>
<path stroke-width="1" stroke="black" d="M 146 214 266 194"/>
<path stroke-width="1" stroke="black" d="M 261 301 266 194"/>
<path stroke-width="1" stroke="black" d="M 266 194 146 214"/>
<path stroke-width="1" stroke="black" d="M 266 194 261 301"/>
<path stroke-width="1" stroke="black" d="M 266 194 370 136"/>
<path stroke-width="1" stroke="black" d="M 420 86 370 136"/>
<path stroke-width="1" stroke="black" d="M 370 136 266 194"/>
<path stroke-width="1" stroke="black" d="M 370 136 420 86"/>
<circle cx="20" cy="20" r="7.0" style="fill:gray;stroke:black;stroke-width:1.0"/>
<circle cx="60" cy="101" r="7.0" style="fill:gray;stroke:black;stroke-width:1.0"/>
<circle cx="120" cy="320" r="7.0" style="fill:gray;stroke:black;stroke-width:1.0"/>
<circle cx="146" cy="214" r="7.0" style="fill:gray;stroke:black;stroke-width:1.0"/>
<circle cx="261" cy="301" r="7.0" style="fill:gray;stroke:black;stroke-width:1.0"/>
<circle cx="266" cy="194" r="7.0" style="fill:gray;stroke:black;stroke-width:1.0"/>
<circle cx="420" cy="86" r="7.0" style="fill:gray;stroke:black;stroke-width:1.0"/>
<circle cx="370" cy="136" r="7.0" style="fill:gray;stroke:black;stroke-width:1.0"/>
</svg>
