<svg width="440" height="340" xmlns="http://www.w3.org/2000/svg">
<path stroke-width="20.0" stroke="black" d="M 420 320 379 285"/>
<path stroke-width="20.0" stroke="black" d="M 379 285 420 320"/>
<path stroke-width="0.5" stroke="black" d="M 379 285 292 199"/>
<path stroke-width="20.0" stroke="black" d="M 237 211 292 199"/>
<path stroke-width="0.5" stroke="black" d="M 292 199 379 285"/>
<path stroke-width="20.0" stroke="black" d="M 292 199 237 211"/>
<path stroke-width="0.5" stroke="black" d="M 292 199 194 112"/>
<path stroke-width="20.0" stroke="black" d="M 222 74 194 112"/>
<path stroke-width="0.5" stroke="black" d="M 194 112 292 199"/>
<path stroke-width="20.0" stroke="black" d="M 194 112 222 74"/>
<path stroke-width="0.5" stroke="black" d="M 194 112 73 48"/>
<path stroke-width="20.0" stroke="black" d="M 20 20 73 48"/>
<path stroke-width="0.5" stroke="black" d="M 73 48 194 112"/>
<path stroke-width="20.0" stroke="black" d="M 73 48 20 20"/>
<circle cx="420" cy="320" r="20.0" style="fill:blue;stroke:black;stroke-width:1.0"/>
<circle cx="379" cy="285" r="20.0" style="fill:blue;stroke:black;stroke-width:1.0"/>
<circle cx="237" cy="211" r="20.0" style="fill:red;stroke:black;stroke-width:1.0"/>
<circle cx="292" cy="199" r="20.0" style="fill:red;stroke:black;stroke-width:1.0"/>
<circle cx="222" cy="74" r="20.0" style="fill:green;stroke:black;stroke-width:1.0"/>
<circle cx="194" cy="112" r="20.0" style="fill:green;stroke:black;stroke-width:1.0"/>
<circle cx="20" cy="20" r="20.0" style="fill:orange;stroke:black;stroke-width:1.0"/>
<circle cx="73" cy="48" r="20.0" style="fill:orange;stroke:black;stroke-width:1.0"/>
</svg>
