<svg width="440" height="340" xmlns="http://www.w3.org/2000/svg">
<path stroke-width="20.0" stroke="black" d="M 420 242 373 213"/>
<path stroke-width="20.0" stroke="black" d="M 373 213 420 242"/>
<path stroke-width="0.5" stroke="black" d="M 373 213 275 129"/>
<path stroke-width="20.0" stroke="black" d="M 295 20 275 129"/>
<path stroke-width="0.5" stroke="black" d="M 275 129 373 213"/>
<path stroke-width="20.0" stroke="black" d="M 275 129 295 20"/>
<path stroke-width="0.5" stroke="black" d="M 275 129 163 190"/>
<path stroke-width="20.0" stroke="black" d="M 151 320 163 190"/>
<path stroke-width="0.5" stroke="black" d="M 163 190 275 129"/>
<path stroke-width="20.0" stroke="black" d="M 163 190 151 320"/>
<path stroke-width="0.5" stroke="black" d="M 163 190 65 126"/>
<path stroke-width="20.0" stroke="black" d="M 20 97 65 126"/>
<path stroke-width="0.5" stroke="black" d="M 65 126 163 190"/>
<path stroke-width="20.0" stroke="black" d="M 65 126 20 97"/>
<circle cx="420" cy="242" r="20.0" style="fill:gray;stroke:black;stroke-width:1.0"/>
<circle cx="373" cy="213" r="20.0" style="fill:gray;stroke:black;stroke-width:1.0"/>
<circle cx="295" cy="20" r="20.0" style="fill:gray;stroke:black;stroke-width:1.0"/>
<circle cx="275" cy="129" r="20.0" style="fill:gray;stroke:black;stroke-width:1.0"/>
<circle cx="151" cy="320" r="20.0" style="fill:gray;stroke:black;stroke-width:1.0"/>
<circle cx="163" cy="190" r="20.0" style="fill:gray;stroke:black;stroke-width:1.0"/>
<circle cx="20" cy="97" r="20.0" style="fill:gray;stroke:black;stroke-width:1.0"/>
<circle cx="65" cy="126" r="20.0" style="fill:gray;stroke:black;stroke-width:1.0"/>
</svg>
