<svg width="440" height="340" xmlns="http://www.w3.org/2000/svg">
<path stroke-width="2.2105263157894735" stroke="black" d="M 175 320 205 225"/>
<path stroke-width="0.5" stroke="black" d="M 131 151 139 198"/>
<path stroke-width="0.5" stroke="black" d="M 131 151 276 218"/>
<path stroke-width="13.842105263157896" stroke="black" d="M 131 151 20 140"/>
<path stroke-width="0.5" stroke="black" d="M 131 151 352 143"/>
<path stroke-width="0.5" stroke="black" d="M 131 151 197 202"/>
<path stroke-width="0.5" stroke="black" d="M 131 151 215 172"/>
<path stroke-width="0.5" stroke="black" d="M 131 151 313 198"/>
<path stroke-width="0.5" stroke="black" d="M 131 151 333 167"/>
<path stroke-width="15.210526315789474" stroke="black" d="M 420 133 352 143"/>
<path stroke-width="0.5" stroke="black" d="M 352 143 205 225"/>
<path stroke-width="0.5" stroke="black" d="M 352 143 236 100"/>
<path stroke-width="0.5" stroke="black" d="M 352 143 276 104"/>
<path stroke-width="0.5" stroke="black" d="M 131 151 181 138"/>
<path stroke-width="0.5" stroke="black" d="M 352 143 132 129"/>
<path stroke-width="0.5" stroke="black" d="M 352 143 200 107"/>
<path stroke-width="0.5" stroke="black" d="M 352 143 181 138"/>
<path stroke-width="0.5" stroke="black" d="M 352 143 139 198"/>
<path stroke-width="0.5" stroke="black" d="M 352 143 276 218"/>
<path stroke-width="0.5" stroke="black" d="M 352 143 131 151"/>
<path stroke-width="15.210526315789474" stroke="black" d="M 352 143 420 133"/>
<path stroke-width="0.5" stroke="black" d="M 352 143 197 202"/>
<path stroke-width="0.5" stroke="black" d="M 352 143 215 172"/>
<path stroke-width="0.5" stroke="black" d="M 352 143 313 198"/>
<path stroke-width="0.5" stroke="black" d="M 352 143 333 167"/>
<path stroke-width="16.57894736842105" stroke="black" d="M 173 239 197 202"/>
<path stroke-width="0.5" stroke="black" d="M 197 202 205 225"/>
<path stroke-width="0.5" stroke="black" d="M 352 143 313 122"/>
<path stroke-width="0.5" stroke="black" d="M 197 202 236 100"/>
<path stroke-width="0.5" stroke="black" d="M 131 151 200 107"/>
<path stroke-width="0.5" stroke="black" d="M 131 151 132 129"/>
<path stroke-width="0.5" stroke="black" d="M 139 198 131 151"/>
<path stroke-width="0.5" stroke="black" d="M 139 198 352 143"/>
<path stroke-width="0.5" stroke="black" d="M 139 198 197 202"/>
<path stroke-width="0.5" stroke="black" d="M 139 198 215 172"/>
<path stroke-width="0.5" stroke="black" d="M 139 198 313 198"/>
<path stroke-width="0.5" stroke="black" d="M 139 198 333 167"/>
<path stroke-width="12.473684210526315" stroke="black" d="M 304 255 276 218"/>
<path stroke-width="0.5" stroke="black" d="M 276 218 205 225"/>
<path stroke-width="0.5" stroke="black" d="M 276 218 236 100"/>
<path stroke-width="0.5" stroke="black" d="M 276 218 276 104"/>
<path stroke-width="0.5" stroke="black" d="M 276 218 132 129"/>
<path stroke-width="0.5" stroke="black" d="M 276 218 313 122"/>
<path stroke-width="0.5" stroke="black" d="M 131 151 313 122"/>
<path stroke-width="0.5" stroke="black" d="M 276 218 200 107"/>
<path stroke-width="0.5" stroke="black" d="M 276 218 139 198"/>
<path stroke-width="12.473684210526315" stroke="black" d="M 276 218 304 255"/>
<path stroke-width="0.5" stroke="black" d="M 276 218 131 151"/>
<path stroke-width="0.5" stroke="black" d="M 276 218 352 143"/>
<path stroke-width="0.5" stroke="black" d="M 276 218 197 202"/>
<path stroke-width="0.5" stroke="black" d="M 276 218 215 172"/>
<path stroke-width="0.5" stroke="black" d="M 276 218 313 198"/>
<path stroke-width="0.5" stroke="black" d="M 276 218 333 167"/>
<path stroke-width="13.842105263157896" stroke="black" d="M 20 140 131 151"/>
<path stroke-width="0.5" stroke="black" d="M 131 151 205 225"/>
<path stroke-width="0.5" stroke="black" d="M 131 151 236 100"/>
<path stroke-width="0.5" stroke="black" d="M 131 151 276 104"/>
<path stroke-width="0.5" stroke="black" d="M 276 218 181 138"/>
<path stroke-width="0.5" stroke="black" d="M 139 198 276 218"/>
<path stroke-width="0.5" stroke="black" d="M 197 202 276 104"/>
<path stroke-width="0.5" stroke="black" d="M 197 202 313 122"/>
<path stroke-width="0.5" stroke="black" d="M 313 198 132 129"/>
<path stroke-width="0.5" stroke="black" d="M 313 198 313 122"/>
<path stroke-width="0.5" stroke="black" d="M 313 198 200 107"/>
<path stroke-width="0.5" stroke="black" d="M 313 198 181 138"/>
<path stroke-width="0.5" stroke="black" d="M 313 198 139 198"/>
<path stroke-width="0.5" stroke="black" d="M 313 198 276 218"/>
<path stroke-width="0.5" stroke="black" d="M 313 198 131 151"/>
<path stroke-width="0.5" stroke="black" d="M 313 198 352 143"/>
<path stroke-width="0.5" stroke="black" d="M 313 198 197 202"/>
<path stroke-width="0.5" stroke="black" d="M 313 198 215 172"/>
<path stroke-width="18.63157894736842" stroke="black" d="M 313 198 391 224"/>
<path stroke-width="0.5" stroke="black" d="M 313 198 333 167"/>
<path stroke-width="0.5" stroke="black" d="M 313 198 276 104"/>
<path stroke-width="20.0" stroke="black" d="M 363 171 333 167"/>
<path stroke-width="0.5" stroke="black" d="M 333 167 236 100"/>
<path stroke-width="0.5" stroke="black" d="M 333 167 276 104"/>
<path stroke-width="0.5" stroke="black" d="M 333 167 132 129"/>
<path stroke-width="0.5" stroke="black" d="M 333 167 313 122"/>
<path stroke-width="0.5" stroke="black" d="M 333 167 200 107"/>
<path stroke-width="0.5" stroke="black" d="M 333 167 181 138"/>
<path stroke-width="0.5" stroke="black" d="M 333 167 139 198"/>
<path stroke-width="0.5" stroke="black" d="M 333 167 276 218"/>
<path stroke-width="0.5" stroke="black" d="M 333 167 131 151"/>
<path stroke-width="0.5" stroke="black" d="M 333 167 352 143"/>
<path stroke-width="0.5" stroke="black" d="M 333 167 197 202"/>
<path stroke-width="0.5" stroke="black" d="M 333 167 215 172"/>
<path stroke-width="0.5" stroke="black" d="M 333 167 205 225"/>
<path stroke-width="0.5" stroke="black" d="M 197 202 132 129"/>
<path stroke-width="0.5" stroke="black" d="M 313 198 236 100"/>
<path stroke-width="18.63157894736842" stroke="black" d="M 391 224 313 198"/>
<path stroke-width="0.5" stroke="black" d="M 197 202 200 107"/>
<path stroke-width="0.5" stroke="black" d="M 197 202 181 138"/>
<path stroke-width="0.5" stroke="black" d="M 197 202 139 198"/>
<path stroke-width="0.5" stroke="black" d="M 197 202 276 218"/>
<path stroke-width="0.5" stroke="black" d="M 197 202 131 151"/>
<path stroke-width="0.5" stroke="black" d="M 197 202 352 143"/>
<path stroke-width="16.57894736842105" stroke="black" d="M 197 202 173 239"/>
<path stroke-width="0.5" stroke="black" d="M 197 202 215 172"/>
<path stroke-width="0.5" stroke="black" d="M 197 202 313 198"/>
<path stroke-width="0.5" stroke="black" d="M 197 202 333 167"/>
<path stroke-width="17.94736842105263" stroke="black" d="M 231 178 215 172"/>
<path stroke-width="0.5" stroke="black" d="M 215 172 205 225"/>
<path stroke-width="0.5" stroke="black" d="M 313 198 205 225"/>
<path stroke-width="0.5" stroke="black" d="M 215 172 236 100"/>
<path stroke-width="0.5" stroke="black" d="M 215 172 132 129"/>
<path stroke-width="0.5" stroke="black" d="M 215 172 313 122"/>
<path stroke-width="0.5" stroke="black" d="M 215 172 200 107"/>
<path stroke-width="0.5" stroke="black" d="M 215 172 181 138"/>
<path stroke-width="0.5" stroke="black" d="M 215 172 139 198"/>
<path stroke-width="0.5" stroke="black" d="M 215 172 276 218"/>
<path stroke-width="0.5" stroke="black" d="M 215 172 131 151"/>
<path stroke-width="0.5" stroke="black" d="M 215 172 352 143"/>
<path stroke-width="0.5" stroke="black" d="M 215 172 197 202"/>
<path stroke-width="17.94736842105263" stroke="black" d="M 215 172 231 178"/>
<path stroke-width="0.5" stroke="black" d="M 215 172 313 198"/>
<path stroke-width="0.5" stroke="black" d="M 215 172 333 167"/>
<path stroke-width="0.5" stroke="black" d="M 215 172 276 104"/>
<path stroke-width="11.105263157894736" stroke="black" d="M 139 198 64 230"/>
<path stroke-width="0.5" stroke="black" d="M 139 198 181 138"/>
<path stroke-width="0.5" stroke="black" d="M 139 198 200 107"/>
<path stroke-width="0.5" stroke="black" d="M 236 100 333 167"/>
<path stroke-width="4.2631578947368425" stroke="black" d="M 322 41 276 104"/>
<path stroke-width="0.5" stroke="black" d="M 276 104 205 225"/>
<path stroke-width="0.5" stroke="black" d="M 276 104 236 100"/>
<path stroke-width="4.2631578947368425" stroke="black" d="M 276 104 322 41"/>
<path stroke-width="0.5" stroke="black" d="M 276 104 132 129"/>
<path stroke-width="0.5" stroke="black" d="M 276 104 313 122"/>
<path stroke-width="0.5" stroke="black" d="M 276 104 200 107"/>
<path stroke-width="0.5" stroke="black" d="M 276 104 181 138"/>
<path stroke-width="0.5" stroke="black" d="M 276 104 139 198"/>
<path stroke-width="0.5" stroke="black" d="M 276 104 276 218"/>
<path stroke-width="0.5" stroke="black" d="M 276 104 131 151"/>
<path stroke-width="0.5" stroke="black" d="M 236 100 313 198"/>
<path stroke-width="0.5" stroke="black" d="M 276 104 352 143"/>
<path stroke-width="0.5" stroke="black" d="M 276 104 215 172"/>
<path stroke-width="0.5" stroke="black" d="M 276 104 313 198"/>
<path stroke-width="0.5" stroke="black" d="M 276 104 333 167"/>
<path stroke-width="5.631578947368421" stroke="black" d="M 26 95 132 129"/>
<path stroke-width="0.5" stroke="black" d="M 132 129 205 225"/>
<path stroke-width="0.5" stroke="black" d="M 132 129 236 100"/>
<path stroke-width="0.5" stroke="black" d="M 132 129 276 104"/>
<path stroke-width="5.631578947368421" stroke="black" d="M 132 129 26 95"/>
<path stroke-width="0.5" stroke="black" d="M 132 129 313 122"/>
<path stroke-width="0.5" stroke="black" d="M 132 129 200 107"/>
<path stroke-width="0.5" stroke="black" d="M 132 129 181 138"/>
<path stroke-width="0.5" stroke="black" d="M 132 129 139 198"/>
<path stroke-width="0.5" stroke="black" d="M 276 104 197 202"/>
<path stroke-width="0.5" stroke="black" d="M 132 129 276 218"/>
<path stroke-width="0.5" stroke="black" d="M 236 100 215 172"/>
<path stroke-width="0.5" stroke="black" d="M 236 100 352 143"/>
<path stroke-width="2.2105263157894735" stroke="black" d="M 205 225 175 320"/>
<path stroke-width="0.5" stroke="black" d="M 205 225 236 100"/>
<path stroke-width="0.5" stroke="black" d="M 205 225 276 104"/>
<path stroke-width="0.5" stroke="black" d="M 205 225 132 129"/>
<path stroke-width="0.5" stroke="black" d="M 205 225 313 122"/>
<path stroke-width="0.5" stroke="black" d="M 205 225 200 107"/>
<path stroke-width="0.5" stroke="black" d="M 205 225 181 138"/>
<path stroke-width="0.5" stroke="black" d="M 205 225 139 198"/>
<path stroke-width="0.5" stroke="black" d="M 205 225 276 218"/>
<path stroke-width="0.5" stroke="black" d="M 205 225 131 151"/>
<path stroke-width="0.5" stroke="black" d="M 205 225 352 143"/>
<path stroke-width="0.5" stroke="black" d="M 205 225 197 202"/>
<path stroke-width="0.5" stroke="black" d="M 236 100 197 202"/>
<path stroke-width="0.5" stroke="black" d="M 205 225 215 172"/>
<path stroke-width="0.5" stroke="black" d="M 205 225 333 167"/>
<path stroke-width="2.8947368421052633" stroke="black" d="M 228 20 236 100"/>
<path stroke-width="0.5" stroke="black" d="M 236 100 205 225"/>
<path stroke-width="2.8947368421052633" stroke="black" d="M 236 100 228 20"/>
<path stroke-width="0.5" stroke="black" d="M 236 100 276 104"/>
<path stroke-width="0.5" stroke="black" d="M 236 100 132 129"/>
<path stroke-width="0.5" stroke="black" d="M 236 100 313 122"/>
<path stroke-width="0.5" stroke="black" d="M 236 100 200 107"/>
<path stroke-width="0.5" stroke="black" d="M 236 100 181 138"/>
<path stroke-width="0.5" stroke="black" d="M 236 100 139 198"/>
<path stroke-width="0.5" stroke="black" d="M 236 100 276 218"/>
<path stroke-width="0.5" stroke="black" d="M 236 100 131 151"/>
<path stroke-width="0.5" stroke="black" d="M 205 225 313 198"/>
<path stroke-width="0.5" stroke="black" d="M 132 129 131 151"/>
<path stroke-width="0.5" stroke="black" d="M 132 129 352 143"/>
<path stroke-width="0.5" stroke="black" d="M 132 129 197 202"/>
<path stroke-width="0.5" stroke="black" d="M 200 107 197 202"/>
<path stroke-width="0.5" stroke="black" d="M 200 107 215 172"/>
<path stroke-width="0.5" stroke="black" d="M 200 107 313 198"/>
<path stroke-width="0.5" stroke="black" d="M 200 107 333 167"/>
<path stroke-width="9.736842105263158" stroke="black" d="M 134 109 181 138"/>
<path stroke-width="0.5" stroke="black" d="M 181 138 205 225"/>
<path stroke-width="0.5" stroke="black" d="M 181 138 236 100"/>
<path stroke-width="0.5" stroke="black" d="M 181 138 276 104"/>
<path stroke-width="0.5" stroke="black" d="M 181 138 132 129"/>
<path stroke-width="0.5" stroke="black" d="M 181 138 313 122"/>
<path stroke-width="0.5" stroke="black" d="M 181 138 200 107"/>
<path stroke-width="9.736842105263158" stroke="black" d="M 181 138 134 109"/>
<path stroke-width="0.5" stroke="black" d="M 200 107 352 143"/>
<path stroke-width="0.5" stroke="black" d="M 181 138 139 198"/>
<path stroke-width="0.5" stroke="black" d="M 181 138 131 151"/>
<path stroke-width="0.5" stroke="black" d="M 181 138 352 143"/>
<path stroke-width="0.5" stroke="black" d="M 181 138 197 202"/>
<path stroke-width="0.5" stroke="black" d="M 181 138 215 172"/>
<path stroke-width="0.5" stroke="black" d="M 181 138 313 198"/>
<path stroke-width="0.5" stroke="black" d="M 181 138 333 167"/>
<path stroke-width="11.105263157894736" stroke="black" d="M 64 230 139 198"/>
<path stroke-width="0.5" stroke="black" d="M 139 198 205 225"/>
<path stroke-width="0.5" stroke="black" d="M 139 198 236 100"/>
<path stroke-width="0.5" stroke="black" d="M 139 198 276 104"/>
<path stroke-width="0.5" stroke="black" d="M 139 198 132 129"/>
<path stroke-width="0.5" stroke="black" d="M 139 198 313 122"/>
<path stroke-width="0.5" stroke="black" d="M 181 138 276 218"/>
<path stroke-width="0.5" stroke="black" d="M 200 107 131 151"/>
<path stroke-width="0.5" stroke="black" d="M 200 107 276 218"/>
<path stroke-width="0.5" stroke="black" d="M 200 107 139 198"/>
<path stroke-width="0.5" stroke="black" d="M 132 129 215 172"/>
<path stroke-width="0.5" stroke="black" d="M 132 129 313 198"/>
<path stroke-width="0.5" stroke="black" d="M 132 129 333 167"/>
<path stroke-width="7.0" stroke="black" d="M 388 86 313 122"/>
<path stroke-width="0.5" stroke="black" d="M 313 122 205 225"/>
<path stroke-width="0.5" stroke="black" d="M 313 122 236 100"/>
<path stroke-width="0.5" stroke="black" d="M 313 122 276 104"/>
<path stroke-width="0.5" stroke="black" d="M 313 122 132 129"/>
<path stroke-width="7.0" stroke="black" d="M 313 122 388 86"/>
<path stroke-width="0.5" stroke="black" d="M 313 122 200 107"/>
<path stroke-width="0.5" stroke="black" d="M 313 122 181 138"/>
<path stroke-width="0.5" stroke="black" d="M 313 122 139 198"/>
<path stroke-width="0.5" stroke="black" d="M 313 122 276 218"/>
<path stroke-width="0.5" stroke="black" d="M 313 122 131 151"/>
<path stroke-width="0.5" stroke="black" d="M 313 122 352 143"/>
<path stroke-width="0.5" stroke="black" d="M 313 122 197 202"/>
<path stroke-width="0.5" stroke="black" d="M 313 122 215 172"/>
<path stroke-width="0.5" stroke="black" d="M 313 122 313 198"/>
<path stroke-width="0.5" stroke="black" d="M 313 122 333 167"/>
<path stroke-width="8.368421052631579" stroke="black" d="M 172 61 200 107"/>
<path stroke-width="0.5" stroke="black" d="M 200 107 205 225"/>
<path stroke-width="0.5" stroke="black" d="M 200 107 236 100"/>
<path stroke-width="0.5" stroke="black" d="M 200 107 276 104"/>
<path stroke-width="0.5" stroke="black" d="M 200 107 132 129"/>
<path stroke-width="0.5" stroke="black" d="M 200 107 313 122"/>
<path stroke-width="8.368421052631579" stroke="black" d="M 200 107 172 61"/>
<path stroke-width="0.5" stroke="black" d="M 200 107 181 138"/>
<path stroke-width="0.5" stroke="black" d="M 333 167 313 198"/>
<path stroke-width="20.0" stroke="black" d="M 333 167 363 171"/>
<circle cx="175" cy="320" r="7.0" style="fill:blue;stroke:black;stroke-width:1.0"/>
<circle cx="205" cy="225" r="7.0" style="fill:blue;stroke:black;stroke-width:1.0"/>
<circle cx="228" cy="20" r="7.0" style="fill:blue;stroke:black;stroke-width:1.0"/>
<circle cx="236" cy="100" r="7.0" style="fill:blue;stroke:black;stroke-width:1.0"/>
<circle cx="322" cy="41" r="7.0" style="fill:blue;stroke:black;stroke-width:1.0"/>
<circle cx="276" cy="104" r="7.0" style="fill:blue;stroke:black;stroke-width:1.0"/>
<circle cx="26" cy="95" r="7.0" style="fill:red;stroke:black;stroke-width:1.0"/>
<circle cx="132" cy="129" r="7.0" style="fill:red;stroke:black;stroke-width:1.0"/>
<circle cx="388" cy="86" r="7.0" style="fill:green;stroke:black;stroke-width:1.0"/>
<circle cx="313" cy="122" r="7.0" style="fill:green;stroke:black;stroke-width:1.0"/>
<circle cx="172" cy="61" r="7.0" style="fill:orange;stroke:black;stroke-width:1.0"/>
<circle cx="200" cy="107" r="7.0" style="fill:orange;stroke:black;stroke-width:1.0"/>
<circle cx="134" cy="109" r="7.0" style="fill:purple;stroke:black;stroke-width:1.0"/>
<circle cx="181" cy="138" r="7.0" style="fill:purple;stroke:black;stroke-width:1.0"/>
<circle cx="64" cy="230" r="7.0" style="fill:yellow;stroke:black;stroke-width:1.0"/>
<circle cx="139" cy="198" r="7.0" style="fill:yellow;stroke:black;stroke-width:1.0"/>
<circle cx="304" cy="255" r="7.0" style="fill:fuchsia;stroke:black;stroke-width:1.0"/>
<circle cx="276" cy="218" r="7.0" style="fill:fuchsia;stroke:black;stroke-width:1.0"/>
<circle cx="20" cy="140" r="7.0" style="fill:olive;stroke:black;stroke-width:1.0"/>
<circle cx="131" cy="151" r="7.0" style="fill:olive;stroke:black;stroke-width:1.0"/>
<circle cx="420" cy="133" r="7.0" style="fill:aqua;stroke:black;stroke-width:1.0"/>
<circle cx="352" cy="143" r="7.0" style="fill:aqua;stroke:black;stroke-width:1.0"/>
<circle cx="173" cy="239" r="7.0" style="fill:brown;stroke:black;stroke-width:1.0"/>
<circle cx="197" cy="202" r="7.0" style="fill:brown;stroke:black;stroke-width:1.0"/>
<circle cx="231" cy="178" r="7.0" style="fill:blue;stroke:black;stroke-width:1.0"/>
<circle cx="215" cy="172" r="7.0" style="fill:blue;stroke:black;stroke-width:1.0"/>
<circle cx="391" cy="224" r="7.0" style="fill:red;stroke:black;stroke-width:1.0"/>
<circle cx="313" cy="198" r="7.0" style="fill:red;stroke:black;stroke-width:1.0"/>
<circle cx="363" cy="171" r="7.0" style="fill:green;stroke:black;stroke-width:1.0"/>
<circle cx="333" cy="167" r="7.0" style="fill:green;stroke:black;stroke-width:1.0"/>
</svg>
