<svg width="440" height="340" xmlns="http://www.w3.org/2000/svg">
<path stroke-width="2.2105263157894735" stroke="black" d="M 412 316 285 225"/>
<path stroke-width="0.5" stroke="black" d="M 85 183 97 103"/>
<path stroke-width="0.5" stroke="black" d="M 85 183 102 150"/>
<path stroke-width="13.842105263157896" stroke="black" d="M 85 183 20 194"/>
<path stroke-width="0.5" stroke="black" d="M 85 183 241 172"/>
<path stroke-width="0.5" stroke="black" d="M 85 183 87 107"/>
<path stroke-width="0.5" stroke="black" d="M 85 183 314 124"/>
<path stroke-width="0.5" stroke="black" d="M 85 183 152 73"/>
<path stroke-width="0.5" stroke="black" d="M 85 183 249 124"/>
<path stroke-width="15.210526315789474" stroke="black" d="M 289 186 241 172"/>
<path stroke-width="0.5" stroke="black" d="M 241 172 285 225"/>
<path stroke-width="0.5" stroke="black" d="M 241 172 147 234"/>
<path stroke-width="0.5" stroke="black" d="M 241 172 288 81"/>
<path stroke-width="0.5" stroke="black" d="M 85 183 237 228"/>
<path stroke-width="0.5" stroke="black" d="M 241 172 120 206"/>
<path stroke-width="0.5" stroke="black" d="M 241 172 274 88"/>
<path stroke-width="0.5" stroke="black" d="M 241 172 237 228"/>
<path stroke-width="0.5" stroke="black" d="M 241 172 97 103"/>
<path stroke-width="0.5" stroke="black" d="M 241 172 102 150"/>
<path stroke-width="0.5" stroke="black" d="M 241 172 85 183"/>
<path stroke-width="15.210526315789474" stroke="black" d="M 241 172 289 186"/>
<path stroke-width="0.5" stroke="black" d="M 241 172 87 107"/>
<path stroke-width="0.5" stroke="black" d="M 241 172 314 124"/>
<path stroke-width="0.5" stroke="black" d="M 241 172 152 73"/>
<path stroke-width="0.5" stroke="black" d="M 241 172 249 124"/>
<path stroke-width="16.57894736842105" stroke="black" d="M 27 89 87 107"/>
<path stroke-width="0.5" stroke="black" d="M 87 107 285 225"/>
<path stroke-width="0.5" stroke="black" d="M 241 172 322 169"/>
<path stroke-width="0.5" stroke="black" d="M 87 107 147 234"/>
<path stroke-width="0.5" stroke="black" d="M 85 183 274 88"/>
<path stroke-width="0.5" stroke="black" d="M 85 183 120 206"/>
<path stroke-width="0.5" stroke="black" d="M 97 103 85 183"/>
<path stroke-width="0.5" stroke="black" d="M 97 103 241 172"/>
<path stroke-width="0.5" stroke="black" d="M 97 103 87 107"/>
<path stroke-width="0.5" stroke="black" d="M 97 103 314 124"/>
<path stroke-width="0.5" stroke="black" d="M 97 103 152 73"/>
<path stroke-width="0.5" stroke="black" d="M 97 103 249 124"/>
<path stroke-width="12.473684210526315" stroke="black" d="M 31 147 102 150"/>
<path stroke-width="0.5" stroke="black" d="M 102 150 285 225"/>
<path stroke-width="0.5" stroke="black" d="M 102 150 147 234"/>
<path stroke-width="0.5" stroke="black" d="M 102 150 288 81"/>
<path stroke-width="0.5" stroke="black" d="M 102 150 120 206"/>
<path stroke-width="0.5" stroke="black" d="M 102 150 322 169"/>
<path stroke-width="0.5" stroke="black" d="M 85 183 322 169"/>
<path stroke-width="0.5" stroke="black" d="M 102 150 274 88"/>
<path stroke-width="0.5" stroke="black" d="M 102 150 97 103"/>
<path stroke-width="12.473684210526315" stroke="black" d="M 102 150 31 147"/>
<path stroke-width="0.5" stroke="black" d="M 102 150 85 183"/>
<path stroke-width="0.5" stroke="black" d="M 102 150 241 172"/>
<path stroke-width="0.5" stroke="black" d="M 102 150 87 107"/>
<path stroke-width="0.5" stroke="black" d="M 102 150 314 124"/>
<path stroke-width="0.5" stroke="black" d="M 102 150 152 73"/>
<path stroke-width="0.5" stroke="black" d="M 102 150 249 124"/>
<path stroke-width="13.842105263157896" stroke="black" d="M 20 194 85 183"/>
<path stroke-width="0.5" stroke="black" d="M 85 183 285 225"/>
<path stroke-width="0.5" stroke="black" d="M 85 183 147 234"/>
<path stroke-width="0.5" stroke="black" d="M 85 183 288 81"/>
<path stroke-width="0.5" stroke="black" d="M 102 150 237 228"/>
<path stroke-width="0.5" stroke="black" d="M 97 103 102 150"/>
<path stroke-width="0.5" stroke="black" d="M 87 107 288 81"/>
<path stroke-width="0.5" stroke="black" d="M 87 107 322 169"/>
<path stroke-width="0.5" stroke="black" d="M 152 73 120 206"/>
<path stroke-width="0.5" stroke="black" d="M 152 73 322 169"/>
<path stroke-width="0.5" stroke="black" d="M 152 73 274 88"/>
<path stroke-width="0.5" stroke="black" d="M 152 73 237 228"/>
<path stroke-width="0.5" stroke="black" d="M 152 73 97 103"/>
<path stroke-width="0.5" stroke="black" d="M 152 73 102 150"/>
<path stroke-width="0.5" stroke="black" d="M 152 73 85 183"/>
<path stroke-width="0.5" stroke="black" d="M 152 73 241 172"/>
<path stroke-width="0.5" stroke="black" d="M 152 73 87 107"/>
<path stroke-width="0.5" stroke="black" d="M 152 73 314 124"/>
<path stroke-width="18.63157894736842" stroke="black" d="M 152 73 119 36"/>
<path stroke-width="0.5" stroke="black" d="M 152 73 249 124"/>
<path stroke-width="0.5" stroke="black" d="M 152 73 288 81"/>
<path stroke-width="20.0" stroke="black" d="M 229 153 249 124"/>
<path stroke-width="0.5" stroke="black" d="M 249 124 147 234"/>
<path stroke-width="0.5" stroke="black" d="M 249 124 288 81"/>
<path stroke-width="0.5" stroke="black" d="M 249 124 120 206"/>
<path stroke-width="0.5" stroke="black" d="M 249 124 322 169"/>
<path stroke-width="0.5" stroke="black" d="M 249 124 274 88"/>
<path stroke-width="0.5" stroke="black" d="M 249 124 237 228"/>
<path stroke-width="0.5" stroke="black" d="M 249 124 97 103"/>
<path stroke-width="0.5" stroke="black" d="M 249 124 102 150"/>
<path stroke-width="0.5" stroke="black" d="M 249 124 85 183"/>
<path stroke-width="0.5" stroke="black" d="M 249 124 241 172"/>
<path stroke-width="0.5" stroke="black" d="M 249 124 87 107"/>
<path stroke-width="0.5" stroke="black" d="M 249 124 314 124"/>
<path stroke-width="0.5" stroke="black" d="M 249 124 285 225"/>
<path stroke-width="0.5" stroke="black" d="M 87 107 120 206"/>
<path stroke-width="0.5" stroke="black" d="M 152 73 147 234"/>
<path stroke-width="18.63157894736842" stroke="black" d="M 119 36 152 73"/>
<path stroke-width="0.5" stroke="black" d="M 87 107 274 88"/>
<path stroke-width="0.5" stroke="black" d="M 87 107 237 228"/>
<path stroke-width="0.5" stroke="black" d="M 87 107 97 103"/>
<path stroke-width="0.5" stroke="black" d="M 87 107 102 150"/>
<path stroke-width="0.5" stroke="black" d="M 87 107 85 183"/>
<path stroke-width="0.5" stroke="black" d="M 87 107 241 172"/>
<path stroke-width="16.57894736842105" stroke="black" d="M 87 107 27 89"/>
<path stroke-width="0.5" stroke="black" d="M 87 107 314 124"/>
<path stroke-width="0.5" stroke="black" d="M 87 107 152 73"/>
<path stroke-width="0.5" stroke="black" d="M 87 107 249 124"/>
<path stroke-width="17.94736842105263" stroke="black" d="M 374 117 314 124"/>
<path stroke-width="0.5" stroke="black" d="M 314 124 285 225"/>
<path stroke-width="0.5" stroke="black" d="M 152 73 285 225"/>
<path stroke-width="0.5" stroke="black" d="M 314 124 147 234"/>
<path stroke-width="0.5" stroke="black" d="M 314 124 120 206"/>
<path stroke-width="0.5" stroke="black" d="M 314 124 322 169"/>
<path stroke-width="0.5" stroke="black" d="M 314 124 274 88"/>
<path stroke-width="0.5" stroke="black" d="M 314 124 237 228"/>
<path stroke-width="0.5" stroke="black" d="M 314 124 97 103"/>
<path stroke-width="0.5" stroke="black" d="M 314 124 102 150"/>
<path stroke-width="0.5" stroke="black" d="M 314 124 85 183"/>
<path stroke-width="0.5" stroke="black" d="M 314 124 241 172"/>
<path stroke-width="0.5" stroke="black" d="M 314 124 87 107"/>
<path stroke-width="17.94736842105263" stroke="black" d="M 314 124 374 117"/>
<path stroke-width="0.5" stroke="black" d="M 314 124 152 73"/>
<path stroke-width="0.5" stroke="black" d="M 314 124 249 124"/>
<path stroke-width="0.5" stroke="black" d="M 314 124 288 81"/>
<path stroke-width="11.105263157894736" stroke="black" d="M 97 103 22 76"/>
<path stroke-width="0.5" stroke="black" d="M 97 103 237 228"/>
<path stroke-width="0.5" stroke="black" d="M 97 103 274 88"/>
<path stroke-width="0.5" stroke="black" d="M 147 234 249 124"/>
<path stroke-width="4.2631578947368425" stroke="black" d="M 399 20 288 81"/>
<path stroke-width="0.5" stroke="black" d="M 288 81 285 225"/>
<path stroke-width="0.5" stroke="black" d="M 288 81 147 234"/>
<path stroke-width="4.2631578947368425" stroke="black" d="M 288 81 399 20"/>
<path stroke-width="0.5" stroke="black" d="M 288 81 120 206"/>
<path stroke-width="0.5" stroke="black" d="M 288 81 322 169"/>
<path stroke-width="0.5" stroke="black" d="M 288 81 274 88"/>
<path stroke-width="0.5" stroke="black" d="M 288 81 237 228"/>
<path stroke-width="0.5" stroke="black" d="M 288 81 97 103"/>
<path stroke-width="0.5" stroke="black" d="M 288 81 102 150"/>
<path stroke-width="0.5" stroke="black" d="M 288 81 85 183"/>
<path stroke-width="0.5" stroke="black" d="M 147 234 152 73"/>
<path stroke-width="0.5" stroke="black" d="M 288 81 241 172"/>
<path stroke-width="0.5" stroke="black" d="M 288 81 314 124"/>
<path stroke-width="0.5" stroke="black" d="M 288 81 152 73"/>
<path stroke-width="0.5" stroke="black" d="M 288 81 249 124"/>
<path stroke-width="5.631578947368421" stroke="black" d="M 25 245 120 206"/>
<path stroke-width="0.5" stroke="black" d="M 120 206 285 225"/>
<path stroke-width="0.5" stroke="black" d="M 120 206 147 234"/>
<path stroke-width="0.5" stroke="black" d="M 120 206 288 81"/>
<path stroke-width="5.631578947368421" stroke="black" d="M 120 206 25 245"/>
<path stroke-width="0.5" stroke="black" d="M 120 206 322 169"/>
<path stroke-width="0.5" stroke="black" d="M 120 206 274 88"/>
<path stroke-width="0.5" stroke="black" d="M 120 206 237 228"/>
<path stroke-width="0.5" stroke="black" d="M 120 206 97 103"/>
<path stroke-width="0.5" stroke="black" d="M 288 81 87 107"/>
<path stroke-width="0.5" stroke="black" d="M 120 206 102 150"/>
<path stroke-width="0.5" stroke="black" d="M 147 234 314 124"/>
<path stroke-width="0.5" stroke="black" d="M 147 234 241 172"/>
<path stroke-width="2.2105263157894735" stroke="black" d="M 285 225 412 316"/>
<path stroke-width="0.5" stroke="black" d="M 285 225 147 234"/>
<path stroke-width="0.5" stroke="black" d="M 285 225 288 81"/>
<path stroke-width="0.5" stroke="black" d="M 285 225 120 206"/>
<path stroke-width="0.5" stroke="black" d="M 285 225 322 169"/>
<path stroke-width="0.5" stroke="black" d="M 285 225 274 88"/>
<path stroke-width="0.5" stroke="black" d="M 285 225 237 228"/>
<path stroke-width="0.5" stroke="black" d="M 285 225 97 103"/>
<path stroke-width="0.5" stroke="black" d="M 285 225 102 150"/>
<path stroke-width="0.5" stroke="black" d="M 285 225 85 183"/>
<path stroke-width="0.5" stroke="black" d="M 285 225 241 172"/>
<path stroke-width="0.5" stroke="black" d="M 285 225 87 107"/>
<path stroke-width="0.5" stroke="black" d="M 147 234 87 107"/>
<path stroke-width="0.5" stroke="black" d="M 285 225 314 124"/>
<path stroke-width="0.5" stroke="black" d="M 285 225 249 124"/>
<path stroke-width="2.8947368421052633" stroke="black" d="M 62 320 147 234"/>
<path stroke-width="0.5" stroke="black" d="M 147 234 285 225"/>
<path stroke-width="2.8947368421052633" stroke="black" d="M 147 234 62 320"/>
<path stroke-width="0.5" stroke="black" d="M 147 234 288 81"/>
<path stroke-width="0.5" stroke="black" d="M 147 234 120 206"/>
<path stroke-width="0.5" stroke="black" d="M 147 234 322 169"/>
<path stroke-width="0.5" stroke="black" d="M 147 234 274 88"/>
<path stroke-width="0.5" stroke="black" d="M 147 234 237 228"/>
<path stroke-width="0.5" stroke="black" d="M 147 234 97 103"/>
<path stroke-width="0.5" stroke="black" d="M 147 234 102 150"/>
<path stroke-width="0.5" stroke="black" d="M 147 234 85 183"/>
<path stroke-width="0.5" stroke="black" d="M 285 225 152 73"/>
<path stroke-width="0.5" stroke="black" d="M 120 206 85 183"/>
<path stroke-width="0.5" stroke="black" d="M 120 206 241 172"/>
<path stroke-width="0.5" stroke="black" d="M 120 206 87 107"/>
<path stroke-width="0.5" stroke="black" d="M 274 88 87 107"/>
<path stroke-width="0.5" stroke="black" d="M 274 88 314 124"/>
<path stroke-width="0.5" stroke="black" d="M 274 88 152 73"/>
<path stroke-width="0.5" stroke="black" d="M 274 88 249 124"/>
<path stroke-width="9.736842105263158" stroke="black" d="M 277 278 237 228"/>
<path stroke-width="0.5" stroke="black" d="M 237 228 285 225"/>
<path stroke-width="0.5" stroke="black" d="M 237 228 147 234"/>
<path stroke-width="0.5" stroke="black" d="M 237 228 288 81"/>
<path stroke-width="0.5" stroke="black" d="M 237 228 120 206"/>
<path stroke-width="0.5" stroke="black" d="M 237 228 322 169"/>
<path stroke-width="0.5" stroke="black" d="M 237 228 274 88"/>
<path stroke-width="9.736842105263158" stroke="black" d="M 237 228 277 278"/>
<path stroke-width="0.5" stroke="black" d="M 274 88 241 172"/>
<path stroke-width="0.5" stroke="black" d="M 237 228 97 103"/>
<path stroke-width="0.5" stroke="black" d="M 237 228 85 183"/>
<path stroke-width="0.5" stroke="black" d="M 237 228 241 172"/>
<path stroke-width="0.5" stroke="black" d="M 237 228 87 107"/>
<path stroke-width="0.5" stroke="black" d="M 237 228 314 124"/>
<path stroke-width="0.5" stroke="black" d="M 237 228 152 73"/>
<path stroke-width="0.5" stroke="black" d="M 237 228 249 124"/>
<path stroke-width="11.105263157894736" stroke="black" d="M 22 76 97 103"/>
<path stroke-width="0.5" stroke="black" d="M 97 103 285 225"/>
<path stroke-width="0.5" stroke="black" d="M 97 103 147 234"/>
<path stroke-width="0.5" stroke="black" d="M 97 103 288 81"/>
<path stroke-width="0.5" stroke="black" d="M 97 103 120 206"/>
<path stroke-width="0.5" stroke="black" d="M 97 103 322 169"/>
<path stroke-width="0.5" stroke="black" d="M 237 228 102 150"/>
<path stroke-width="0.5" stroke="black" d="M 274 88 85 183"/>
<path stroke-width="0.5" stroke="black" d="M 274 88 102 150"/>
<path stroke-width="0.5" stroke="black" d="M 274 88 97 103"/>
<path stroke-width="0.5" stroke="black" d="M 120 206 314 124"/>
<path stroke-width="0.5" stroke="black" d="M 120 206 152 73"/>
<path stroke-width="0.5" stroke="black" d="M 120 206 249 124"/>
<path stroke-width="7.0" stroke="black" d="M 420 181 322 169"/>
<path stroke-width="0.5" stroke="black" d="M 322 169 285 225"/>
<path stroke-width="0.5" stroke="black" d="M 322 169 147 234"/>
<path stroke-width="0.5" stroke="black" d="M 322 169 288 81"/>
<path stroke-width="0.5" stroke="black" d="M 322 169 120 206"/>
<path stroke-width="7.0" stroke="black" d="M 322 169 420 181"/>
<path stroke-width="0.5" stroke="black" d="M 322 169 274 88"/>
<path stroke-width="0.5" stroke="black" d="M 322 169 237 228"/>
<path stroke-width="0.5" stroke="black" d="M 322 169 97 103"/>
<path stroke-width="0.5" stroke="black" d="M 322 169 102 150"/>
<path stroke-width="0.5" stroke="black" d="M 322 169 85 183"/>
<path stroke-width="0.5" stroke="black" d="M 322 169 241 172"/>
<path stroke-width="0.5" stroke="black" d="M 322 169 87 107"/>
<path stroke-width="0.5" stroke="black" d="M 322 169 314 124"/>
<path stroke-width="0.5" stroke="black" d="M 322 169 152 73"/>
<path stroke-width="0.5" stroke="black" d="M 322 169 249 124"/>
<path stroke-width="8.368421052631579" stroke="black" d="M 347 49 274 88"/>
<path stroke-width="0.5" stroke="black" d="M 274 88 285 225"/>
<path stroke-width="0.5" stroke="black" d="M 274 88 147 234"/>
<path stroke-width="0.5" stroke="black" d="M 274 88 288 81"/>
<path stroke-width="0.5" stroke="black" d="M 274 88 120 206"/>
<path stroke-width="0.5" stroke="black" d="M 274 88 322 169"/>
<path stroke-width="8.368421052631579" stroke="black" d="M 274 88 347 49"/>
<path stroke-width="0.5" stroke="black" d="M 274 88 237 228"/>
<path stroke-width="0.5" stroke="black" d="M 249 124 152 73"/>
<path stroke-width="20.0" stroke="black" d="M 249 124 229 153"/>
<circle cx="412" cy="316" r="7.0" style="fill:gray;stroke:black;stroke-width:1.0"/>
<circle cx="285" cy="225" r="7.0" style="fill:gray;stroke:black;stroke-width:1.0"/>
<circle cx="62" cy="320" r="7.0" style="fill:gray;stroke:black;stroke-width:1.0"/>
<circle cx="147" cy="234" r="7.0" style="fill:gray;stroke:black;stroke-width:1.0"/>
<circle cx="399" cy="20" r="7.0" style="fill:gray;stroke:black;stroke-width:1.0"/>
<circle cx="288" cy="81" r="7.0" style="fill:gray;stroke:black;stroke-width:1.0"/>
<circle cx="25" cy="245" r="7.0" style="fill:gray;stroke:black;stroke-width:1.0"/>
<circle cx="120" cy="206" r="7.0" style="fill:gray;stroke:black;stroke-width:1.0"/>
<circle cx="420" cy="181" r="7.0" style="fill:gray;stroke:black;stroke-width:1.0"/>
<circle cx="322" cy="169" r="7.0" style="fill:gray;stroke:black;stroke-width:1.0"/>
<circle cx="347" cy="49" r="7.0" style="fill:gray;stroke:black;stroke-width:1.0"/>
<circle cx="274" cy="88" r="7.0" style="fill:gray;stroke:black;stroke-width:1.0"/>
<circle cx="277" cy="278" r="7.0" style="fill:gray;stroke:black;stroke-width:1.0"/>
<circle cx="237" cy="228" r="7.0" style="fill:gray;stroke:black;stroke-width:1.0"/>
<circle cx="22" cy="76" r="7.0" style="fill:gray;stroke:black;stroke-width:1.0"/>
<circle cx="97" cy="103" r="7.0" style="fill:gray;stroke:black;stroke-width:1.0"/>
<circle cx="31" cy="147" r="7.0" style="fill:gray;stroke:black;stroke-width:1.0"/>
<circle cx="102" cy="150" r="7.0" style="fill:gray;stroke:black;stroke-width:1.0"/>
<circle cx="20" cy="194" r="7.0" style="fill:gray;stroke:black;stroke-width:1.0"/>
<circle cx="85" cy="183" r="7.0" style="fill:gray;stroke:black;stroke-width:1.0"/>
<circle cx="289" cy="186" r="7.0" style="fill:gray;stroke:black;stroke-width:1.0"/>
<circle cx="241" cy="172" r="7.0" style="fill:gray;stroke:black;stroke-width:1.0"/>
<circle cx="27" cy="89" r="7.0" style="fill:gray;stroke:black;stroke-width:1.0"/>
<circle cx="87" cy="107" r="7.0" style="fill:gray;stroke:black;stroke-width:1.0"/>
<circle cx="374" cy="117" r="7.0" style="fill:gray;stroke:black;stroke-width:1.0"/>
<circle cx="314" cy="124" r="7.0" style="fill:gray;stroke:black;stroke-width:1.0"/>
<circle cx="119" cy="36" r="7.0" style="fill:gray;stroke:black;stroke-width:1.0"/>
<circle cx="152" cy="73" r="7.0" style="fill:gray;stroke:black;stroke-width:1.0"/>
<circle cx="229" cy="153" r="7.0" style="fill:gray;stroke:black;stroke-width:1.0"/>
<circle cx="249" cy="124" r="7.0" style="fill:gray;stroke:black;stroke-width:1.0"/>
</svg>
