<svg width="440" height="340" xmlns="http://www.w3.org/2000/svg">
<path stroke-width="1" stroke="black" d="M 20 247 147 217"/>
<path stroke-width="1" stroke="black" d="M 200 173 240 76"/>
<path stroke-width="1" stroke="black" d="M 200 173 149 156"/>
<path stroke-width="1" stroke="black" d="M 200 173 222 150"/>
<path stroke-width="1" stroke="black" d="M 200 173 190 74"/>
<path stroke-width="1" stroke="black" d="M 200 173 286 130"/>
<path stroke-width="1" stroke="black" d="M 200 173 166 106"/>
<path stroke-width="1" stroke="black" d="M 200 173 162 174"/>
<path stroke-width="1" stroke="black" d="M 200 173 248 192"/>
<path stroke-width="1" stroke="black" d="M 165 33 190 74"/>
<path stroke-width="1" stroke="black" d="M 190 74 147 217"/>
<path stroke-width="1" stroke="black" d="M 190 74 315 174"/>
<path stroke-width="1" stroke="black" d="M 190 74 291 233"/>
<path stroke-width="1" stroke="black" d="M 200 173 206 189"/>
<path stroke-width="1" stroke="black" d="M 190 74 303 183"/>
<path stroke-width="1" stroke="black" d="M 190 74 293 94"/>
<path stroke-width="1" stroke="black" d="M 190 74 206 189"/>
<path stroke-width="1" stroke="black" d="M 190 74 240 76"/>
<path stroke-width="1" stroke="black" d="M 190 74 149 156"/>
<path stroke-width="1" stroke="black" d="M 190 74 200 173"/>
<path stroke-width="1" stroke="black" d="M 190 74 165 33"/>
<path stroke-width="1" stroke="black" d="M 190 74 286 130"/>
<path stroke-width="1" stroke="black" d="M 190 74 166 106"/>
<path stroke-width="1" stroke="black" d="M 190 74 162 174"/>
<path stroke-width="1" stroke="black" d="M 190 74 248 192"/>
<path stroke-width="1" stroke="black" d="M 317 117 286 130"/>
<path stroke-width="1" stroke="black" d="M 286 130 147 217"/>
<path stroke-width="1" stroke="black" d="M 190 74 237 251"/>
<path stroke-width="1" stroke="black" d="M 286 130 315 174"/>
<path stroke-width="1" stroke="black" d="M 200 173 293 94"/>
<path stroke-width="1" stroke="black" d="M 200 173 303 183"/>
<path stroke-width="1" stroke="black" d="M 240 76 200 173"/>
<path stroke-width="1" stroke="black" d="M 240 76 190 74"/>
<path stroke-width="1" stroke="black" d="M 240 76 286 130"/>
<path stroke-width="1" stroke="black" d="M 240 76 166 106"/>
<path stroke-width="1" stroke="black" d="M 240 76 162 174"/>
<path stroke-width="1" stroke="black" d="M 240 76 248 192"/>
<path stroke-width="1" stroke="black" d="M 90 158 149 156"/>
<path stroke-width="1" stroke="black" d="M 149 156 147 217"/>
<path stroke-width="1" stroke="black" d="M 149 156 315 174"/>
<path stroke-width="1" stroke="black" d="M 149 156 291 233"/>
<path stroke-width="1" stroke="black" d="M 149 156 303 183"/>
<path stroke-width="1" stroke="black" d="M 149 156 237 251"/>
<path stroke-width="1" stroke="black" d="M 200 173 237 251"/>
<path stroke-width="1" stroke="black" d="M 149 156 293 94"/>
<path stroke-width="1" stroke="black" d="M 149 156 240 76"/>
<path stroke-width="1" stroke="black" d="M 149 156 90 158"/>
<path stroke-width="1" stroke="black" d="M 149 156 200 173"/>
<path stroke-width="1" stroke="black" d="M 149 156 190 74"/>
<path stroke-width="1" stroke="black" d="M 149 156 286 130"/>
<path stroke-width="1" stroke="black" d="M 149 156 166 106"/>
<path stroke-width="1" stroke="black" d="M 149 156 162 174"/>
<path stroke-width="1" stroke="black" d="M 149 156 248 192"/>
<path stroke-width="1" stroke="black" d="M 222 150 200 173"/>
<path stroke-width="1" stroke="black" d="M 200 173 147 217"/>
<path stroke-width="1" stroke="black" d="M 200 173 315 174"/>
<path stroke-width="1" stroke="black" d="M 200 173 291 233"/>
<path stroke-width="1" stroke="black" d="M 149 156 206 189"/>
<path stroke-width="1" stroke="black" d="M 240 76 149 156"/>
<path stroke-width="1" stroke="black" d="M 286 130 291 233"/>
<path stroke-width="1" stroke="black" d="M 286 130 237 251"/>
<path stroke-width="1" stroke="black" d="M 162 174 303 183"/>
<path stroke-width="1" stroke="black" d="M 162 174 237 251"/>
<path stroke-width="1" stroke="black" d="M 162 174 293 94"/>
<path stroke-width="1" stroke="black" d="M 162 174 206 189"/>
<path stroke-width="1" stroke="black" d="M 162 174 240 76"/>
<path stroke-width="1" stroke="black" d="M 162 174 149 156"/>
<path stroke-width="1" stroke="black" d="M 162 174 200 173"/>
<path stroke-width="1" stroke="black" d="M 162 174 190 74"/>
<path stroke-width="1" stroke="black" d="M 162 174 286 130"/>
<path stroke-width="1" stroke="black" d="M 162 174 166 106"/>
<path stroke-width="1" stroke="black" d="M 162 174 118 182"/>
<path stroke-width="1" stroke="black" d="M 162 174 248 192"/>
<path stroke-width="1" stroke="black" d="M 162 174 291 233"/>
<path stroke-width="1" stroke="black" d="M 265 215 248 192"/>
<path stroke-width="1" stroke="black" d="M 248 192 315 174"/>
<path stroke-width="1" stroke="black" d="M 248 192 291 233"/>
<path stroke-width="1" stroke="black" d="M 248 192 303 183"/>
<path stroke-width="1" stroke="black" d="M 248 192 237 251"/>
<path stroke-width="1" stroke="black" d="M 248 192 293 94"/>
<path stroke-width="1" stroke="black" d="M 248 192 206 189"/>
<path stroke-width="1" stroke="black" d="M 248 192 240 76"/>
<path stroke-width="1" stroke="black" d="M 248 192 149 156"/>
<path stroke-width="1" stroke="black" d="M 248 192 200 173"/>
<path stroke-width="1" stroke="black" d="M 248 192 190 74"/>
<path stroke-width="1" stroke="black" d="M 248 192 286 130"/>
<path stroke-width="1" stroke="black" d="M 248 192 166 106"/>
<path stroke-width="1" stroke="black" d="M 248 192 147 217"/>
<path stroke-width="1" stroke="black" d="M 286 130 303 183"/>
<path stroke-width="1" stroke="black" d="M 162 174 315 174"/>
<path stroke-width="1" stroke="black" d="M 118 182 162 174"/>
<path stroke-width="1" stroke="black" d="M 286 130 293 94"/>
<path stroke-width="1" stroke="black" d="M 286 130 206 189"/>
<path stroke-width="1" stroke="black" d="M 286 130 240 76"/>
<path stroke-width="1" stroke="black" d="M 286 130 149 156"/>
<path stroke-width="1" stroke="black" d="M 286 130 200 173"/>
<path stroke-width="1" stroke="black" d="M 286 130 190 74"/>
<path stroke-width="1" stroke="black" d="M 286 130 317 117"/>
<path stroke-width="1" stroke="black" d="M 286 130 166 106"/>
<path stroke-width="1" stroke="black" d="M 286 130 162 174"/>
<path stroke-width="1" stroke="black" d="M 286 130 248 192"/>
<path stroke-width="1" stroke="black" d="M 129 81 166 106"/>
<path stroke-width="1" stroke="black" d="M 166 106 147 217"/>
<path stroke-width="1" stroke="black" d="M 162 174 147 217"/>
<path stroke-width="1" stroke="black" d="M 166 106 315 174"/>
<path stroke-width="1" stroke="black" d="M 166 106 303 183"/>
<path stroke-width="1" stroke="black" d="M 166 106 237 251"/>
<path stroke-width="1" stroke="black" d="M 166 106 293 94"/>
<path stroke-width="1" stroke="black" d="M 166 106 206 189"/>
<path stroke-width="1" stroke="black" d="M 166 106 240 76"/>
<path stroke-width="1" stroke="black" d="M 166 106 149 156"/>
<path stroke-width="1" stroke="black" d="M 166 106 200 173"/>
<path stroke-width="1" stroke="black" d="M 166 106 190 74"/>
<path stroke-width="1" stroke="black" d="M 166 106 286 130"/>
<path stroke-width="1" stroke="black" d="M 166 106 129 81"/>
<path stroke-width="1" stroke="black" d="M 166 106 162 174"/>
<path stroke-width="1" stroke="black" d="M 166 106 248 192"/>
<path stroke-width="1" stroke="black" d="M 166 106 291 233"/>
<path stroke-width="1" stroke="black" d="M 240 76 251 20"/>
<path stroke-width="1" stroke="black" d="M 240 76 206 189"/>
<path stroke-width="1" stroke="black" d="M 240 76 293 94"/>
<path stroke-width="1" stroke="black" d="M 315 174 248 192"/>
<path stroke-width="1" stroke="black" d="M 362 284 291 233"/>
<path stroke-width="1" stroke="black" d="M 291 233 147 217"/>
<path stroke-width="1" stroke="black" d="M 291 233 315 174"/>
<path stroke-width="1" stroke="black" d="M 291 233 362 284"/>
<path stroke-width="1" stroke="black" d="M 291 233 303 183"/>
<path stroke-width="1" stroke="black" d="M 291 233 237 251"/>
<path stroke-width="1" stroke="black" d="M 291 233 293 94"/>
<path stroke-width="1" stroke="black" d="M 291 233 206 189"/>
<path stroke-width="1" stroke="black" d="M 291 233 240 76"/>
<path stroke-width="1" stroke="black" d="M 291 233 149 156"/>
<path stroke-width="1" stroke="black" d="M 291 233 200 173"/>
<path stroke-width="1" stroke="black" d="M 315 174 162 174"/>
<path stroke-width="1" stroke="black" d="M 291 233 190 74"/>
<path stroke-width="1" stroke="black" d="M 291 233 166 106"/>
<path stroke-width="1" stroke="black" d="M 291 233 162 174"/>
<path stroke-width="1" stroke="black" d="M 291 233 248 192"/>
<path stroke-width="1" stroke="black" d="M 371 198 303 183"/>
<path stroke-width="1" stroke="black" d="M 303 183 147 217"/>
<path stroke-width="1" stroke="black" d="M 303 183 315 174"/>
<path stroke-width="1" stroke="black" d="M 303 183 291 233"/>
<path stroke-width="1" stroke="black" d="M 303 183 371 198"/>
<path stroke-width="1" stroke="black" d="M 303 183 237 251"/>
<path stroke-width="1" stroke="black" d="M 303 183 293 94"/>
<path stroke-width="1" stroke="black" d="M 303 183 206 189"/>
<path stroke-width="1" stroke="black" d="M 303 183 240 76"/>
<path stroke-width="1" stroke="black" d="M 291 233 286 130"/>
<path stroke-width="1" stroke="black" d="M 303 183 149 156"/>
<path stroke-width="1" stroke="black" d="M 315 174 166 106"/>
<path stroke-width="1" stroke="black" d="M 315 174 190 74"/>
<path stroke-width="1" stroke="black" d="M 147 217 20 247"/>
<path stroke-width="1" stroke="black" d="M 147 217 315 174"/>
<path stroke-width="1" stroke="black" d="M 147 217 291 233"/>
<path stroke-width="1" stroke="black" d="M 147 217 303 183"/>
<path stroke-width="1" stroke="black" d="M 147 217 237 251"/>
<path stroke-width="1" stroke="black" d="M 147 217 293 94"/>
<path stroke-width="1" stroke="black" d="M 147 217 206 189"/>
<path stroke-width="1" stroke="black" d="M 147 217 240 76"/>
<path stroke-width="1" stroke="black" d="M 147 217 149 156"/>
<path stroke-width="1" stroke="black" d="M 147 217 200 173"/>
<path stroke-width="1" stroke="black" d="M 147 217 190 74"/>
<path stroke-width="1" stroke="black" d="M 147 217 286 130"/>
<path stroke-width="1" stroke="black" d="M 315 174 286 130"/>
<path stroke-width="1" stroke="black" d="M 147 217 166 106"/>
<path stroke-width="1" stroke="black" d="M 147 217 248 192"/>
<path stroke-width="1" stroke="black" d="M 420 187 315 174"/>
<path stroke-width="1" stroke="black" d="M 315 174 147 217"/>
<path stroke-width="1" stroke="black" d="M 315 174 420 187"/>
<path stroke-width="1" stroke="black" d="M 315 174 291 233"/>
<path stroke-width="1" stroke="black" d="M 315 174 303 183"/>
<path stroke-width="1" stroke="black" d="M 315 174 237 251"/>
<path stroke-width="1" stroke="black" d="M 315 174 293 94"/>
<path stroke-width="1" stroke="black" d="M 315 174 206 189"/>
<path stroke-width="1" stroke="black" d="M 315 174 240 76"/>
<path stroke-width="1" stroke="black" d="M 315 174 149 156"/>
<path stroke-width="1" stroke="black" d="M 315 174 200 173"/>
<path stroke-width="1" stroke="black" d="M 147 217 162 174"/>
<path stroke-width="1" stroke="black" d="M 303 183 200 173"/>
<path stroke-width="1" stroke="black" d="M 303 183 190 74"/>
<path stroke-width="1" stroke="black" d="M 303 183 286 130"/>
<path stroke-width="1" stroke="black" d="M 293 94 286 130"/>
<path stroke-width="1" stroke="black" d="M 293 94 166 106"/>
<path stroke-width="1" stroke="black" d="M 293 94 162 174"/>
<path stroke-width="1" stroke="black" d="M 293 94 248 192"/>
<path stroke-width="1" stroke="black" d="M 176 228 206 189"/>
<path stroke-width="1" stroke="black" d="M 206 189 147 217"/>
<path stroke-width="1" stroke="black" d="M 206 189 315 174"/>
<path stroke-width="1" stroke="black" d="M 206 189 291 233"/>
<path stroke-width="1" stroke="black" d="M 206 189 303 183"/>
<path stroke-width="1" stroke="black" d="M 206 189 237 251"/>
<path stroke-width="1" stroke="black" d="M 206 189 293 94"/>
<path stroke-width="1" stroke="black" d="M 206 189 176 228"/>
<path stroke-width="1" stroke="black" d="M 293 94 190 74"/>
<path stroke-width="1" stroke="black" d="M 206 189 240 76"/>
<path stroke-width="1" stroke="black" d="M 206 189 200 173"/>
<path stroke-width="1" stroke="black" d="M 206 189 190 74"/>
<path stroke-width="1" stroke="black" d="M 206 189 286 130"/>
<path stroke-width="1" stroke="black" d="M 206 189 166 106"/>
<path stroke-width="1" stroke="black" d="M 206 189 162 174"/>
<path stroke-width="1" stroke="black" d="M 206 189 248 192"/>
<path stroke-width="1" stroke="black" d="M 251 20 240 76"/>
<path stroke-width="1" stroke="black" d="M 240 76 147 217"/>
<path stroke-width="1" stroke="black" d="M 240 76 315 174"/>
<path stroke-width="1" stroke="black" d="M 240 76 291 233"/>
<path stroke-width="1" stroke="black" d="M 240 76 303 183"/>
<path stroke-width="1" stroke="black" d="M 240 76 237 251"/>
<path stroke-width="1" stroke="black" d="M 206 189 149 156"/>
<path stroke-width="1" stroke="black" d="M 293 94 200 173"/>
<path stroke-width="1" stroke="black" d="M 293 94 149 156"/>
<path stroke-width="1" stroke="black" d="M 293 94 240 76"/>
<path stroke-width="1" stroke="black" d="M 303 183 166 106"/>
<path stroke-width="1" stroke="black" d="M 303 183 162 174"/>
<path stroke-width="1" stroke="black" d="M 303 183 248 192"/>
<path stroke-width="1" stroke="black" d="M 258 320 237 251"/>
<path stroke-width="1" stroke="black" d="M 237 251 147 217"/>
<path stroke-width="1" stroke="black" d="M 237 251 315 174"/>
<path stroke-width="1" stroke="black" d="M 237 251 291 233"/>
<path stroke-width="1" stroke="black" d="M 237 251 303 183"/>
<path stroke-width="1" stroke="black" d="M 237 251 258 320"/>
<path stroke-width="1" stroke="black" d="M 237 251 293 94"/>
<path stroke-width="1" stroke="black" d="M 237 251 206 189"/>
<path stroke-width="1" stroke="black" d="M 237 251 240 76"/>
<path stroke-width="1" stroke="black" d="M 237 251 149 156"/>
<path stroke-width="1" stroke="black" d="M 237 251 200 173"/>
<path stroke-width="1" stroke="black" d="M 237 251 190 74"/>
<path stroke-width="1" stroke="black" d="M 237 251 286 130"/>
<path stroke-width="1" stroke="black" d="M 237 251 166 106"/>
<path stroke-width="1" stroke="black" d="M 237 251 162 174"/>
<path stroke-width="1" stroke="black" d="M 237 251 248 192"/>
<path stroke-width="1" stroke="black" d="M 342 64 293 94"/>
<path stroke-width="1" stroke="black" d="M 293 94 147 217"/>
<path stroke-width="1" stroke="black" d="M 293 94 315 174"/>
<path stroke-width="1" stroke="black" d="M 293 94 291 233"/>
<path stroke-width="1" stroke="black" d="M 293 94 303 183"/>
<path stroke-width="1" stroke="black" d="M 293 94 237 251"/>
<path stroke-width="1" stroke="black" d="M 293 94 342 64"/>
<path stroke-width="1" stroke="black" d="M 293 94 206 189"/>
<path stroke-width="1" stroke="black" d="M 248 192 162 174"/>
<path stroke-width="1" stroke="black" d="M 248 192 265 215"/>
<circle cx="20" cy="247" r="7.0" style="fill:blue;stroke:black;stroke-width:1.0"/>
<circle cx="147" cy="217" r="7.0" style="fill:blue;stroke:black;stroke-width:1.0"/>
<circle cx="420" cy="187" r="7.0" style="fill:blue;stroke:black;stroke-width:1.0"/>
<circle cx="315" cy="174" r="7.0" style="fill:blue;stroke:black;stroke-width:1.0"/>
<circle cx="362" cy="284" r="7.0" style="fill:blue;stroke:black;stroke-width:1.0"/>
<circle cx="291" cy="233" r="7.0" style="fill:blue;stroke:black;stroke-width:1.0"/>
<circle cx="371" cy="198" r="7.0" style="fill:red;stroke:black;stroke-width:1.0"/>
<circle cx="303" cy="183" r="7.0" style="fill:red;stroke:black;stroke-width:1.0"/>
<circle cx="258" cy="320" r="7.0" style="fill:green;stroke:black;stroke-width:1.0"/>
<circle cx="237" cy="251" r="7.0" style="fill:green;stroke:black;stroke-width:1.0"/>
<circle cx="342" cy="64" r="7.0" style="fill:orange;stroke:black;stroke-width:1.0"/>
<circle cx="293" cy="94" r="7.0" style="fill:orange;stroke:black;stroke-width:1.0"/>
<circle cx="176" cy="228" r="7.0" style="fill:purple;stroke:black;stroke-width:1.0"/>
<circle cx="206" cy="189" r="7.0" style="fill:purple;stroke:black;stroke-width:1.0"/>
<circle cx="251" cy="20" r="7.0" style="fill:yellow;stroke:black;stroke-width:1.0"/>
<circle cx="240" cy="76" r="7.0" style="fill:yellow;stroke:black;stroke-width:1.0"/>
<circle cx="90" cy="158" r="7.0" style="fill:fuchsia;stroke:black;stroke-width:1.0"/>
<circle cx="149" cy="156" r="7.0" style="fill:fuchsia;stroke:black;stroke-width:1.0"/>
<circle cx="222" cy="150" r="7.0" style="fill:olive;stroke:black;stroke-width:1.0"/>
<circle cx="200" cy="173" r="7.0" style="fill:olive;stroke:black;stroke-width:1.0"/>
<circle cx="165" cy="33" r="7.0" style="fill:aqua;stroke:black;stroke-width:1.0"/>
<circle cx="190" cy="74" r="7.0" style="fill:aqua;stroke:black;stroke-width:1.0"/>
<circle cx="317" cy="117" r="7.0" style="fill:brown;stroke:black;stroke-width:1.0"/>
<circle cx="286" cy="130" r="7.0" style="fill:brown;stroke:black;stroke-width:1.0"/>
<circle cx="129" cy="81" r="7.0" style="fill:blue;stroke:black;stroke-width:1.0"/>
<circle cx="166" cy="106" r="7.0" style="fill:blue;stroke:black;stroke-width:1.0"/>
<circle cx="118" cy="182" r="7.0" style="fill:red;stroke:black;stroke-width:1.0"/>
<circle cx="162" cy="174" r="7.0" style="fill:red;stroke:black;stroke-width:1.0"/>
<circle cx="265" cy="215" r="7.0" style="fill:green;stroke:black;stroke-width:1.0"/>
<circle cx="248" cy="192" r="7.0" style="fill:green;stroke:black;stroke-width:1.0"/>
</svg>
