<svg width="440" height="340" xmlns="http://www.w3.org/2000/svg">
<path stroke-width="1" stroke="black" d="M 20 33 137 114"/>
<path stroke-width="1" stroke="black" d="M 271 220 167 173"/>
<path stroke-width="1" stroke="black" d="M 271 220 215 156"/>
<path stroke-width="1" stroke="black" d="M 271 220 316 247"/>
<path stroke-width="1" stroke="black" d="M 271 220 177 78"/>
<path stroke-width="1" stroke="black" d="M 271 220 114 109"/>
<path stroke-width="1" stroke="black" d="M 271 220 136 221"/>
<path stroke-width="1" stroke="black" d="M 271 220 82 174"/>
<path stroke-width="1" stroke="black" d="M 271 220 290 184"/>
<path stroke-width="1" stroke="black" d="M 126 41 177 78"/>
<path stroke-width="1" stroke="black" d="M 177 78 137 114"/>
<path stroke-width="1" stroke="black" d="M 177 78 297 153"/>
<path stroke-width="1" stroke="black" d="M 177 78 229 236"/>
<path stroke-width="1" stroke="black" d="M 271 220 215 79"/>
<path stroke-width="1" stroke="black" d="M 177 78 177 242"/>
<path stroke-width="1" stroke="black" d="M 177 78 294 111"/>
<path stroke-width="1" stroke="black" d="M 177 78 215 79"/>
<path stroke-width="1" stroke="black" d="M 177 78 167 173"/>
<path stroke-width="1" stroke="black" d="M 177 78 215 156"/>
<path stroke-width="1" stroke="black" d="M 177 78 271 220"/>
<path stroke-width="1" stroke="black" d="M 177 78 126 41"/>
<path stroke-width="1" stroke="black" d="M 177 78 114 109"/>
<path stroke-width="1" stroke="black" d="M 177 78 136 221"/>
<path stroke-width="1" stroke="black" d="M 177 78 82 174"/>
<path stroke-width="1" stroke="black" d="M 177 78 290 184"/>
<path stroke-width="1" stroke="black" d="M 72 100 114 109"/>
<path stroke-width="1" stroke="black" d="M 114 109 137 114"/>
<path stroke-width="1" stroke="black" d="M 177 78 253 79"/>
<path stroke-width="1" stroke="black" d="M 114 109 297 153"/>
<path stroke-width="1" stroke="black" d="M 271 220 294 111"/>
<path stroke-width="1" stroke="black" d="M 271 220 177 242"/>
<path stroke-width="1" stroke="black" d="M 167 173 271 220"/>
<path stroke-width="1" stroke="black" d="M 167 173 177 78"/>
<path stroke-width="1" stroke="black" d="M 167 173 114 109"/>
<path stroke-width="1" stroke="black" d="M 167 173 136 221"/>
<path stroke-width="1" stroke="black" d="M 167 173 82 174"/>
<path stroke-width="1" stroke="black" d="M 167 173 290 184"/>
<path stroke-width="1" stroke="black" d="M 213 155 215 156"/>
<path stroke-width="1" stroke="black" d="M 215 156 137 114"/>
<path stroke-width="1" stroke="black" d="M 215 156 297 153"/>
<path stroke-width="1" stroke="black" d="M 215 156 229 236"/>
<path stroke-width="1" stroke="black" d="M 215 156 177 242"/>
<path stroke-width="1" stroke="black" d="M 215 156 253 79"/>
<path stroke-width="1" stroke="black" d="M 271 220 253 79"/>
<path stroke-width="1" stroke="black" d="M 215 156 294 111"/>
<path stroke-width="1" stroke="black" d="M 215 156 167 173"/>
<path stroke-width="1" stroke="black" d="M 215 156 213 155"/>
<path stroke-width="1" stroke="black" d="M 215 156 271 220"/>
<path stroke-width="1" stroke="black" d="M 215 156 177 78"/>
<path stroke-width="1" stroke="black" d="M 215 156 114 109"/>
<path stroke-width="1" stroke="black" d="M 215 156 136 221"/>
<path stroke-width="1" stroke="black" d="M 215 156 82 174"/>
<path stroke-width="1" stroke="black" d="M 215 156 290 184"/>
<path stroke-width="1" stroke="black" d="M 316 247 271 220"/>
<path stroke-width="1" stroke="black" d="M 271 220 137 114"/>
<path stroke-width="1" stroke="black" d="M 271 220 297 153"/>
<path stroke-width="1" stroke="black" d="M 271 220 229 236"/>
<path stroke-width="1" stroke="black" d="M 215 156 215 79"/>
<path stroke-width="1" stroke="black" d="M 167 173 215 156"/>
<path stroke-width="1" stroke="black" d="M 114 109 229 236"/>
<path stroke-width="1" stroke="black" d="M 114 109 253 79"/>
<path stroke-width="1" stroke="black" d="M 82 174 177 242"/>
<path stroke-width="1" stroke="black" d="M 82 174 253 79"/>
<path stroke-width="1" stroke="black" d="M 82 174 294 111"/>
<path stroke-width="1" stroke="black" d="M 82 174 215 79"/>
<path stroke-width="1" stroke="black" d="M 82 174 167 173"/>
<path stroke-width="1" stroke="black" d="M 82 174 215 156"/>
<path stroke-width="1" stroke="black" d="M 82 174 271 220"/>
<path stroke-width="1" stroke="black" d="M 82 174 177 78"/>
<path stroke-width="1" stroke="black" d="M 82 174 114 109"/>
<path stroke-width="1" stroke="black" d="M 82 174 136 221"/>
<path stroke-width="1" stroke="black" d="M 82 174 74 174"/>
<path stroke-width="1" stroke="black" d="M 82 174 290 184"/>
<path stroke-width="1" stroke="black" d="M 82 174 229 236"/>
<path stroke-width="1" stroke="black" d="M 343 195 290 184"/>
<path stroke-width="1" stroke="black" d="M 290 184 297 153"/>
<path stroke-width="1" stroke="black" d="M 290 184 229 236"/>
<path stroke-width="1" stroke="black" d="M 290 184 177 242"/>
<path stroke-width="1" stroke="black" d="M 290 184 253 79"/>
<path stroke-width="1" stroke="black" d="M 290 184 294 111"/>
<path stroke-width="1" stroke="black" d="M 290 184 215 79"/>
<path stroke-width="1" stroke="black" d="M 290 184 167 173"/>
<path stroke-width="1" stroke="black" d="M 290 184 215 156"/>
<path stroke-width="1" stroke="black" d="M 290 184 271 220"/>
<path stroke-width="1" stroke="black" d="M 290 184 177 78"/>
<path stroke-width="1" stroke="black" d="M 290 184 114 109"/>
<path stroke-width="1" stroke="black" d="M 290 184 136 221"/>
<path stroke-width="1" stroke="black" d="M 290 184 137 114"/>
<path stroke-width="1" stroke="black" d="M 114 109 177 242"/>
<path stroke-width="1" stroke="black" d="M 82 174 297 153"/>
<path stroke-width="1" stroke="black" d="M 74 174 82 174"/>
<path stroke-width="1" stroke="black" d="M 114 109 294 111"/>
<path stroke-width="1" stroke="black" d="M 114 109 215 79"/>
<path stroke-width="1" stroke="black" d="M 114 109 167 173"/>
<path stroke-width="1" stroke="black" d="M 114 109 215 156"/>
<path stroke-width="1" stroke="black" d="M 114 109 271 220"/>
<path stroke-width="1" stroke="black" d="M 114 109 177 78"/>
<path stroke-width="1" stroke="black" d="M 114 109 72 100"/>
<path stroke-width="1" stroke="black" d="M 114 109 136 221"/>
<path stroke-width="1" stroke="black" d="M 114 109 82 174"/>
<path stroke-width="1" stroke="black" d="M 114 109 290 184"/>
<path stroke-width="1" stroke="black" d="M 77 250 136 221"/>
<path stroke-width="1" stroke="black" d="M 136 221 137 114"/>
<path stroke-width="1" stroke="black" d="M 82 174 137 114"/>
<path stroke-width="1" stroke="black" d="M 136 221 297 153"/>
<path stroke-width="1" stroke="black" d="M 136 221 177 242"/>
<path stroke-width="1" stroke="black" d="M 136 221 253 79"/>
<path stroke-width="1" stroke="black" d="M 136 221 294 111"/>
<path stroke-width="1" stroke="black" d="M 136 221 215 79"/>
<path stroke-width="1" stroke="black" d="M 136 221 167 173"/>
<path stroke-width="1" stroke="black" d="M 136 221 215 156"/>
<path stroke-width="1" stroke="black" d="M 136 221 271 220"/>
<path stroke-width="1" stroke="black" d="M 136 221 177 78"/>
<path stroke-width="1" stroke="black" d="M 136 221 114 109"/>
<path stroke-width="1" stroke="black" d="M 136 221 77 250"/>
<path stroke-width="1" stroke="black" d="M 136 221 82 174"/>
<path stroke-width="1" stroke="black" d="M 136 221 290 184"/>
<path stroke-width="1" stroke="black" d="M 136 221 229 236"/>
<path stroke-width="1" stroke="black" d="M 167 173 144 209"/>
<path stroke-width="1" stroke="black" d="M 167 173 215 79"/>
<path stroke-width="1" stroke="black" d="M 167 173 294 111"/>
<path stroke-width="1" stroke="black" d="M 297 153 290 184"/>
<path stroke-width="1" stroke="black" d="M 266 320 229 236"/>
<path stroke-width="1" stroke="black" d="M 229 236 137 114"/>
<path stroke-width="1" stroke="black" d="M 229 236 297 153"/>
<path stroke-width="1" stroke="black" d="M 229 236 266 320"/>
<path stroke-width="1" stroke="black" d="M 229 236 177 242"/>
<path stroke-width="1" stroke="black" d="M 229 236 253 79"/>
<path stroke-width="1" stroke="black" d="M 229 236 294 111"/>
<path stroke-width="1" stroke="black" d="M 229 236 215 79"/>
<path stroke-width="1" stroke="black" d="M 229 236 167 173"/>
<path stroke-width="1" stroke="black" d="M 229 236 215 156"/>
<path stroke-width="1" stroke="black" d="M 229 236 271 220"/>
<path stroke-width="1" stroke="black" d="M 297 153 82 174"/>
<path stroke-width="1" stroke="black" d="M 229 236 177 78"/>
<path stroke-width="1" stroke="black" d="M 229 236 136 221"/>
<path stroke-width="1" stroke="black" d="M 229 236 82 174"/>
<path stroke-width="1" stroke="black" d="M 229 236 290 184"/>
<path stroke-width="1" stroke="black" d="M 155 313 177 242"/>
<path stroke-width="1" stroke="black" d="M 177 242 137 114"/>
<path stroke-width="1" stroke="black" d="M 177 242 297 153"/>
<path stroke-width="1" stroke="black" d="M 177 242 229 236"/>
<path stroke-width="1" stroke="black" d="M 177 242 155 313"/>
<path stroke-width="1" stroke="black" d="M 177 242 253 79"/>
<path stroke-width="1" stroke="black" d="M 177 242 294 111"/>
<path stroke-width="1" stroke="black" d="M 177 242 215 79"/>
<path stroke-width="1" stroke="black" d="M 177 242 167 173"/>
<path stroke-width="1" stroke="black" d="M 229 236 114 109"/>
<path stroke-width="1" stroke="black" d="M 177 242 215 156"/>
<path stroke-width="1" stroke="black" d="M 297 153 136 221"/>
<path stroke-width="1" stroke="black" d="M 297 153 177 78"/>
<path stroke-width="1" stroke="black" d="M 137 114 20 33"/>
<path stroke-width="1" stroke="black" d="M 137 114 297 153"/>
<path stroke-width="1" stroke="black" d="M 137 114 229 236"/>
<path stroke-width="1" stroke="black" d="M 137 114 177 242"/>
<path stroke-width="1" stroke="black" d="M 137 114 253 79"/>
<path stroke-width="1" stroke="black" d="M 137 114 294 111"/>
<path stroke-width="1" stroke="black" d="M 137 114 215 79"/>
<path stroke-width="1" stroke="black" d="M 137 114 167 173"/>
<path stroke-width="1" stroke="black" d="M 137 114 215 156"/>
<path stroke-width="1" stroke="black" d="M 137 114 271 220"/>
<path stroke-width="1" stroke="black" d="M 137 114 177 78"/>
<path stroke-width="1" stroke="black" d="M 137 114 114 109"/>
<path stroke-width="1" stroke="black" d="M 297 153 114 109"/>
<path stroke-width="1" stroke="black" d="M 137 114 136 221"/>
<path stroke-width="1" stroke="black" d="M 137 114 290 184"/>
<path stroke-width="1" stroke="black" d="M 420 166 297 153"/>
<path stroke-width="1" stroke="black" d="M 297 153 137 114"/>
<path stroke-width="1" stroke="black" d="M 297 153 420 166"/>
<path stroke-width="1" stroke="black" d="M 297 153 229 236"/>
<path stroke-width="1" stroke="black" d="M 297 153 177 242"/>
<path stroke-width="1" stroke="black" d="M 297 153 253 79"/>
<path stroke-width="1" stroke="black" d="M 297 153 294 111"/>
<path stroke-width="1" stroke="black" d="M 297 153 215 79"/>
<path stroke-width="1" stroke="black" d="M 297 153 167 173"/>
<path stroke-width="1" stroke="black" d="M 297 153 215 156"/>
<path stroke-width="1" stroke="black" d="M 297 153 271 220"/>
<path stroke-width="1" stroke="black" d="M 137 114 82 174"/>
<path stroke-width="1" stroke="black" d="M 177 242 271 220"/>
<path stroke-width="1" stroke="black" d="M 177 242 177 78"/>
<path stroke-width="1" stroke="black" d="M 177 242 114 109"/>
<path stroke-width="1" stroke="black" d="M 294 111 114 109"/>
<path stroke-width="1" stroke="black" d="M 294 111 136 221"/>
<path stroke-width="1" stroke="black" d="M 294 111 82 174"/>
<path stroke-width="1" stroke="black" d="M 294 111 290 184"/>
<path stroke-width="1" stroke="black" d="M 218 20 215 79"/>
<path stroke-width="1" stroke="black" d="M 215 79 137 114"/>
<path stroke-width="1" stroke="black" d="M 215 79 297 153"/>
<path stroke-width="1" stroke="black" d="M 215 79 229 236"/>
<path stroke-width="1" stroke="black" d="M 215 79 177 242"/>
<path stroke-width="1" stroke="black" d="M 215 79 253 79"/>
<path stroke-width="1" stroke="black" d="M 215 79 294 111"/>
<path stroke-width="1" stroke="black" d="M 215 79 218 20"/>
<path stroke-width="1" stroke="black" d="M 294 111 177 78"/>
<path stroke-width="1" stroke="black" d="M 215 79 167 173"/>
<path stroke-width="1" stroke="black" d="M 215 79 271 220"/>
<path stroke-width="1" stroke="black" d="M 215 79 177 78"/>
<path stroke-width="1" stroke="black" d="M 215 79 114 109"/>
<path stroke-width="1" stroke="black" d="M 215 79 136 221"/>
<path stroke-width="1" stroke="black" d="M 215 79 82 174"/>
<path stroke-width="1" stroke="black" d="M 215 79 290 184"/>
<path stroke-width="1" stroke="black" d="M 144 209 167 173"/>
<path stroke-width="1" stroke="black" d="M 167 173 137 114"/>
<path stroke-width="1" stroke="black" d="M 167 173 297 153"/>
<path stroke-width="1" stroke="black" d="M 167 173 229 236"/>
<path stroke-width="1" stroke="black" d="M 167 173 177 242"/>
<path stroke-width="1" stroke="black" d="M 167 173 253 79"/>
<path stroke-width="1" stroke="black" d="M 215 79 215 156"/>
<path stroke-width="1" stroke="black" d="M 294 111 271 220"/>
<path stroke-width="1" stroke="black" d="M 294 111 215 156"/>
<path stroke-width="1" stroke="black" d="M 294 111 167 173"/>
<path stroke-width="1" stroke="black" d="M 177 242 136 221"/>
<path stroke-width="1" stroke="black" d="M 177 242 82 174"/>
<path stroke-width="1" stroke="black" d="M 177 242 290 184"/>
<path stroke-width="1" stroke="black" d="M 304 20 253 79"/>
<path stroke-width="1" stroke="black" d="M 253 79 137 114"/>
<path stroke-width="1" stroke="black" d="M 253 79 297 153"/>
<path stroke-width="1" stroke="black" d="M 253 79 229 236"/>
<path stroke-width="1" stroke="black" d="M 253 79 177 242"/>
<path stroke-width="1" stroke="black" d="M 253 79 304 20"/>
<path stroke-width="1" stroke="black" d="M 253 79 294 111"/>
<path stroke-width="1" stroke="black" d="M 253 79 215 79"/>
<path stroke-width="1" stroke="black" d="M 253 79 167 173"/>
<path stroke-width="1" stroke="black" d="M 253 79 215 156"/>
<path stroke-width="1" stroke="black" d="M 253 79 271 220"/>
<path stroke-width="1" stroke="black" d="M 253 79 177 78"/>
<path stroke-width="1" stroke="black" d="M 253 79 114 109"/>
<path stroke-width="1" stroke="black" d="M 253 79 136 221"/>
<path stroke-width="1" stroke="black" d="M 253 79 82 174"/>
<path stroke-width="1" stroke="black" d="M 253 79 290 184"/>
<path stroke-width="1" stroke="black" d="M 352 90 294 111"/>
<path stroke-width="1" stroke="black" d="M 294 111 137 114"/>
<path stroke-width="1" stroke="black" d="M 294 111 297 153"/>
<path stroke-width="1" stroke="black" d="M 294 111 229 236"/>
<path stroke-width="1" stroke="black" d="M 294 111 177 242"/>
<path stroke-width="1" stroke="black" d="M 294 111 253 79"/>
<path stroke-width="1" stroke="black" d="M 294 111 352 90"/>
<path stroke-width="1" stroke="black" d="M 294 111 215 79"/>
<path stroke-width="1" stroke="black" d="M 290 184 82 174"/>
<path stroke-width="1" stroke="black" d="M 290 184 343 195"/>
<circle cx="20" cy="33" r="7.0" style="fill:gray;stroke:black;stroke-width:1.0"/>
<circle cx="137" cy="114" r="7.0" style="fill:gray;stroke:black;stroke-width:1.0"/>
<circle cx="420" cy="166" r="7.0" style="fill:gray;stroke:black;stroke-width:1.0"/>
<circle cx="297" cy="153" r="7.0" style="fill:gray;stroke:black;stroke-width:1.0"/>
<circle cx="266" cy="320" r="7.0" style="fill:gray;stroke:black;stroke-width:1.0"/>
<circle cx="229" cy="236" r="7.0" style="fill:gray;stroke:black;stroke-width:1.0"/>
<circle cx="155" cy="313" r="7.0" style="fill:gray;stroke:black;stroke-width:1.0"/>
<circle cx="177" cy="242" r="7.0" style="fill:gray;stroke:black;stroke-width:1.0"/>
<circle cx="304" cy="20" r="7.0" style="fill:gray;stroke:black;stroke-width:1.0"/>
<circle cx="253" cy="79" r="7.0" style="fill:gray;stroke:black;stroke-width:1.0"/>
<circle cx="352" cy="90" r="7.0" style="fill:gray;stroke:black;stroke-width:1.0"/>
<circle cx="294" cy="111" r="7.0" style="fill:gray;stroke:black;stroke-width:1.0"/>
<circle cx="218" cy="20" r="7.0" style="fill:gray;stroke:black;stroke-width:1.0"/>
<circle cx="215" cy="79" r="7.0" style="fill:gray;stroke:black;stroke-width:1.0"/>
<circle cx="144" cy="209" r="7.0" style="fill:gray;stroke:black;stroke-width:1.0"/>
<circle cx="167" cy="173" r="7.0" style="fill:gray;stroke:black;stroke-width:1.0"/>
<circle cx="213" cy="155" r="7.0" style="fill:gray;stroke:black;stroke-width:1.0"/>
<circle cx="215" cy="156" r="7.0" style="fill:gray;stroke:black;stroke-width:1.0"/>
<circle cx="316" cy="247" r="7.0" style="fill:gray;stroke:black;stroke-width:1.0"/>
<circle cx="271" cy="220" r="7.0" style="fill:gray;stroke:black;stroke-width:1.0"/>
<circle cx="126" cy="41" r="7.0" style="fill:gray;stroke:black;stroke-width:1.0"/>
<circle cx="177" cy="78" r="7.0" style="fill:gray;stroke:black;stroke-width:1.0"/>
<circle cx="72" cy="100" r="7.0" style="fill:gray;stroke:black;stroke-width:1.0"/>
<circle cx="114" cy="109" r="7.0" style="fill:gray;stroke:black;stroke-width:1.0"/>
<circle cx="77" cy="250" r="7.0" style="fill:gray;stroke:black;stroke-width:1.0"/>
<circle cx="136" cy="221" r="7.0" style="fill:gray;stroke:black;stroke-width:1.0"/>
<circle cx="74" cy="174" r="7.0" style="fill:gray;stroke:black;stroke-width:1.0"/>
<circle cx="82" cy="174" r="7.0" style="fill:gray;stroke:black;stroke-width:1.0"/>
<circle cx="343" cy="195" r="7.0" style="fill:gray;stroke:black;stroke-width:1.0"/>
<circle cx="290" cy="184" r="7.0" style="fill:gray;stroke:black;stroke-width:1.0"/>
</svg>
