<svg width="440" height="340" xmlns="http://www.w3.org/2000/svg">
<path stroke-width="1" stroke="black" d="M 245 200 215 320"/>
<path stroke-width="1" stroke="black" d="M 20 251 244 20"/>
<path stroke-width="1" stroke="black" d="M 420 253 245 200"/>
<path stroke-width="1" stroke="black" d="M 420 253 215 320"/>
<path stroke-width="1" stroke="black" d="M 420 253 56 97"/>
<path stroke-width="1" stroke="black" d="M 420 253 20 251"/>
<path stroke-width="1" stroke="black" d="M 420 253 414 95"/>
<path stroke-width="1" stroke="black" d="M 420 253 244 20"/>
<path stroke-width="1" stroke="black" d="M 414 95 245 200"/>
<path stroke-width="1" stroke="black" d="M 414 95 215 320"/>
<path stroke-width="1" stroke="black" d="M 414 95 56 97"/>
<path stroke-width="1" stroke="black" d="M 414 95 20 251"/>
<path stroke-width="1" stroke="black" d="M 414 95 420 253"/>
<path stroke-width="1" stroke="black" d="M 414 95 244 20"/>
<path stroke-width="1" stroke="black" d="M 244 20 245 200"/>
<path stroke-width="1" stroke="black" d="M 244 20 215 320"/>
<path stroke-width="1" stroke="black" d="M 244 20 56 97"/>
<path stroke-width="1" stroke="black" d="M 244 20 20 251"/>
<path stroke-width="1" stroke="black" d="M 20 251 414 95"/>
<path stroke-width="1" stroke="black" d="M 20 251 420 253"/>
<path stroke-width="1" stroke="black" d="M 20 251 56 97"/>
<path stroke-width="1" stroke="black" d="M 20 251 215 320"/>
<path stroke-width="1" stroke="black" d="M 245 200 56 97"/>
<path stroke-width="1" stroke="black" d="M 245 200 20 251"/>
<path stroke-width="1" stroke="black" d="M 245 200 420 253"/>
<path stroke-width="1" stroke="black" d="M 245 200 414 95"/>
<path stroke-width="1" stroke="black" d="M 245 200 244 20"/>
<path stroke-width="1" stroke="black" d="M 215 320 245 200"/>
<path stroke-width="1" stroke="black" d="M 215 320 56 97"/>
<path stroke-width="1" stroke="black" d="M 215 320 20 251"/>
<path stroke-width="1" stroke="black" d="M 244 20 420 253"/>
<path stroke-width="1" stroke="black" d="M 215 320 420 253"/>
<path stroke-width="1" stroke="black" d="M 215 320 244 20"/>
<path stroke-width="1" stroke="black" d="M 56 97 245 200"/>
<path stroke-width="1" stroke="black" d="M 56 97 215 320"/>
<path stroke-width="1" stroke="black" d="M 56 97 20 251"/>
<path stroke-width="1" stroke="black" d="M 56 97 420 253"/>
<path stroke-width="1" stroke="black" d="M 56 97 414 95"/>
<path stroke-width="1" stroke="black" d="M 56 97 244 20"/>
<path stroke-width="1" stroke="black" d="M 20 251 245 200"/>
<path stroke-width="1" stroke="black" d="M 215 320 414 95"/>
<path stroke-width="1" stroke="black" d="M 244 20 414 95"/>
<circle cx="245" cy="200" r="7.0" style="fill:gray;stroke:black;stroke-width:1.0"/>
<circle cx="215" cy="320" r="7.0" style="fill:gray;stroke:black;stroke-width:1.0"/>
<circle cx="56" cy="97" r="7.0" style="fill:gray;stroke:black;stroke-width:1.0"/>
<circle cx="20" cy="251" r="7.0" style="fill:gray;stroke:black;stroke-width:1.0"/>
<circle cx="420" cy="253" r="7.0" style="fill:gray;stroke:black;stroke-width:1.0"/>
<circle cx="414" cy="95" r="7.0" style="fill:gray;stroke:black;stroke-width:1.0"/>
<circle cx="244" cy="20" r="7.0" style="fill:gray;stroke:black;stroke-width:1.0"/>
</svg>
