<svg width="440" height="340" xmlns="http://www.w3.org/2000/svg">
<path stroke-width="20.0" stroke="black" d="M 212 175 150 106"/>
<path stroke-width="0.5" stroke="black" d="M 272 20 20 207"/>
<path stroke-width="18.566176470588236" stroke="black" d="M 409 268 212 175"/>
<path stroke-width="0.5" stroke="black" d="M 409 268 150 106"/>
<path stroke-width="0.5" stroke="black" d="M 409 268 144 320"/>
<path stroke-width="0.5" stroke="black" d="M 409 268 272 20"/>
<path stroke-width="0.5" stroke="black" d="M 409 268 420 109"/>
<path stroke-width="0.5" stroke="black" d="M 409 268 20 207"/>
<path stroke-width="20.0" stroke="black" d="M 420 109 212 175"/>
<path stroke-width="0.5" stroke="black" d="M 420 109 150 106"/>
<path stroke-width="0.5" stroke="black" d="M 420 109 144 320"/>
<path stroke-width="0.5" stroke="black" d="M 420 109 272 20"/>
<path stroke-width="0.5" stroke="black" d="M 420 109 409 268"/>
<path stroke-width="0.5" stroke="black" d="M 420 109 20 207"/>
<path stroke-width="20.0" stroke="black" d="M 20 207 212 175"/>
<path stroke-width="0.5" stroke="black" d="M 20 207 150 106"/>
<path stroke-width="0.5" stroke="black" d="M 20 207 144 320"/>
<path stroke-width="0.5" stroke="black" d="M 20 207 272 20"/>
<path stroke-width="0.5" stroke="black" d="M 272 20 420 109"/>
<path stroke-width="0.5" stroke="black" d="M 272 20 409 268"/>
<path stroke-width="0.5" stroke="black" d="M 272 20 144 320"/>
<path stroke-width="0.5" stroke="black" d="M 272 20 150 106"/>
<path stroke-width="20.0" stroke="black" d="M 212 175 144 320"/>
<path stroke-width="20.0" stroke="black" d="M 212 175 272 20"/>
<path stroke-width="18.566176470588236" stroke="black" d="M 212 175 409 268"/>
<path stroke-width="20.0" stroke="black" d="M 212 175 420 109"/>
<path stroke-width="20.0" stroke="black" d="M 212 175 20 207"/>
<path stroke-width="20.0" stroke="black" d="M 150 106 212 175"/>
<path stroke-width="0.5" stroke="black" d="M 150 106 144 320"/>
<path stroke-width="0.5" stroke="black" d="M 150 106 272 20"/>
<path stroke-width="0.5" stroke="black" d="M 20 207 409 268"/>
<path stroke-width="0.5" stroke="black" d="M 150 106 409 268"/>
<path stroke-width="0.5" stroke="black" d="M 150 106 20 207"/>
<path stroke-width="20.0" stroke="black" d="M 144 320 212 175"/>
<path stroke-width="0.5" stroke="black" d="M 144 320 150 106"/>
<path stroke-width="0.5" stroke="black" d="M 144 320 272 20"/>
<path stroke-width="0.5" stroke="black" d="M 144 320 409 268"/>
<path stroke-width="0.5" stroke="black" d="M 144 320 420 109"/>
<path stroke-width="0.5" stroke="black" d="M 144 320 20 207"/>
<path stroke-width="20.0" stroke="black" d="M 272 20 212 175"/>
<path stroke-width="0.5" stroke="black" d="M 150 106 420 109"/>
<path stroke-width="0.5" stroke="black" d="M 20 207 420 109"/>
<circle cx="212" cy="175" r="7.0" style="fill:gray;stroke:black;stroke-width:1.0"/>
<circle cx="150" cy="106" r="7.0" style="fill:gray;stroke:black;stroke-width:1.0"/>
<circle cx="144" cy="320" r="7.0" style="fill:gray;stroke:black;stroke-width:1.0"/>
<circle cx="272" cy="20" r="7.0" style="fill:gray;stroke:black;stroke-width:1.0"/>
<circle cx="409" cy="268" r="7.0" style="fill:gray;stroke:black;stroke-width:1.0"/>
<circle cx="420" cy="109" r="7.0" style="fill:gray;stroke:black;stroke-width:1.0"/>
<circle cx="20" cy="207" r="7.0" style="fill:gray;stroke:black;stroke-width:1.0"/>
</svg>
