<svg width="440" height="340" xmlns="http://www.w3.org/2000/svg">
<path stroke-width="20.0" stroke="black" d="M 398 20 378 30"/>
<path stroke-width="0.5" stroke="black" d="M 387 59 320 83"/>
<path stroke-width="20.0" stroke="black" d="M 387 59 420 59"/>
<path stroke-width="20.0" stroke="black" d="M 229 55 228 46"/>
<path stroke-width="0.5" stroke="black" d="M 228 46 297 32"/>
<path stroke-width="0.5" stroke="black" d="M 228 46 173 69"/>
<path stroke-width="20.0" stroke="black" d="M 228 46 229 55"/>
<path stroke-width="20.0" stroke="black" d="M 114 277 97 288"/>
<path stroke-width="0.5" stroke="black" d="M 387 59 378 30"/>
<path stroke-width="20.0" stroke="black" d="M 97 288 114 277"/>
<path stroke-width="0.5" stroke="black" d="M 97 288 98 309"/>
<path stroke-width="20.0" stroke="black" d="M 20 298 51 298"/>
<path stroke-width="0.5" stroke="black" d="M 51 298 97 288"/>
<path stroke-width="20.0" stroke="black" d="M 51 298 20 298"/>
<path stroke-width="0.5" stroke="black" d="M 51 298 98 309"/>
<path stroke-width="20.0" stroke="black" d="M 116 320 98 309"/>
<path stroke-width="0.5" stroke="black" d="M 98 309 97 288"/>
<path stroke-width="0.5" stroke="black" d="M 97 288 51 298"/>
<path stroke-width="20.0" stroke="black" d="M 420 59 387 59"/>
<path stroke-width="0.5" stroke="black" d="M 320 83 387 59"/>
<path stroke-width="20.0" stroke="black" d="M 320 83 344 92"/>
<path stroke-width="20.0" stroke="black" d="M 378 30 398 20"/>
<path stroke-width="0.5" stroke="black" d="M 378 30 297 32"/>
<path stroke-width="0.5" stroke="black" d="M 378 30 387 59"/>
<path stroke-width="20.0" stroke="black" d="M 310 21 297 32"/>
<path stroke-width="0.5" stroke="black" d="M 297 32 378 30"/>
<path stroke-width="20.0" stroke="black" d="M 297 32 310 21"/>
<path stroke-width="0.5" stroke="black" d="M 297 32 228 46"/>
<path stroke-width="20.0" stroke="black" d="M 140 68 173 69"/>
<path stroke-width="20.0" stroke="black" d="M 173 69 140 68"/>
<path stroke-width="0.5" stroke="black" d="M 173 69 241 89"/>
<path stroke-width="0.5" stroke="black" d="M 173 69 228 46"/>
<path stroke-width="20.0" stroke="black" d="M 205 98 241 89"/>
<path stroke-width="0.5" stroke="black" d="M 241 89 173 69"/>
<path stroke-width="20.0" stroke="black" d="M 241 89 205 98"/>
<path stroke-width="0.5" stroke="black" d="M 241 89 320 83"/>
<path stroke-width="20.0" stroke="black" d="M 344 92 320 83"/>
<path stroke-width="0.5" stroke="black" d="M 320 83 241 89"/>
<path stroke-width="0.5" stroke="black" d="M 98 309 51 298"/>
<path stroke-width="20.0" stroke="black" d="M 98 309 116 320"/>
<circle cx="398" cy="20" r="7.0" style="fill:gray;stroke:black;stroke-width:1.0"/>
<circle cx="378" cy="30" r="7.0" style="fill:gray;stroke:black;stroke-width:1.0"/>
<circle cx="310" cy="21" r="7.0" style="fill:gray;stroke:black;stroke-width:1.0"/>
<circle cx="297" cy="32" r="7.0" style="fill:gray;stroke:black;stroke-width:1.0"/>
<circle cx="140" cy="68" r="7.0" style="fill:gray;stroke:black;stroke-width:1.0"/>
<circle cx="173" cy="69" r="7.0" style="fill:gray;stroke:black;stroke-width:1.0"/>
<circle cx="205" cy="98" r="7.0" style="fill:gray;stroke:black;stroke-width:1.0"/>
<circle cx="241" cy="89" r="7.0" style="fill:gray;stroke:black;stroke-width:1.0"/>
<circle cx="344" cy="92" r="7.0" style="fill:gray;stroke:black;stroke-width:1.0"/>
<circle cx="320" cy="83" r="7.0" style="fill:gray;stroke:black;stroke-width:1.0"/>
<circle cx="420" cy="59" r="7.0" style="fill:gray;stroke:black;stroke-width:1.0"/>
<circle cx="387" cy="59" r="7.0" style="fill:gray;stroke:black;stroke-width:1.0"/>
<circle cx="229" cy="55" r="7.0" style="fill:gray;stroke:black;stroke-width:1.0"/>
<circle cx="228" cy="46" r="7.0" style="fill:gray;stroke:black;stroke-width:1.0"/>
<circle cx="114" cy="277" r="7.0" style="fill:gray;stroke:black;stroke-width:1.0"/>
<circle cx="97" cy="288" r="7.0" style="fill:gray;stroke:black;stroke-width:1.0"/>
<circle cx="20" cy="298" r="7.0" style="fill:gray;stroke:black;stroke-width:1.0"/>
<circle cx="51" cy="298" r="7.0" style="fill:gray;stroke:black;stroke-width:1.0"/>
<circle cx="116" cy="320" r="7.0" style="fill:gray;stroke:black;stroke-width:1.0"/>
<circle cx="98" cy="309" r="7.0" style="fill:gray;stroke:black;stroke-width:1.0"/>
</svg>
