<svg width="440" height="340" xmlns="http://www.w3.org/2000/svg">
<path stroke-width="20.0" stroke="black" d="M 20 20 52 60"/>
<path stroke-width="20.0" stroke="black" d="M 52 60 20 20"/>
<path stroke-width="0.5" stroke="black" d="M 52 60 165 125"/>
<path stroke-width="20.0" stroke="black" d="M 171 77 165 125"/>
<path stroke-width="0.5" stroke="black" d="M 165 125 52 60"/>
<path stroke-width="20.0" stroke="black" d="M 165 125 171 77"/>
<path stroke-width="0.5" stroke="black" d="M 165 125 278 205"/>
<path stroke-width="20.0" stroke="black" d="M 317 180 278 205"/>
<path stroke-width="0.5" stroke="black" d="M 278 205 165 125"/>
<path stroke-width="20.0" stroke="black" d="M 278 205 317 180"/>
<path stroke-width="0.5" stroke="black" d="M 278 205 368 289"/>
<path stroke-width="20.0" stroke="black" d="M 420 320 368 289"/>
<path stroke-width="0.5" stroke="black" d="M 368 289 278 205"/>
<path stroke-width="20.0" stroke="black" d="M 368 289 420 320"/>
<circle cx="20" cy="20" r="20.0" style="fill:blue;stroke:black;stroke-width:1.0"/>
<circle cx="52" cy="60" r="20.0" style="fill:blue;stroke:black;stroke-width:1.0"/>
<circle cx="171" cy="77" r="20.0" style="fill:blue;stroke:black;stroke-width:1.0"/>
<circle cx="165" cy="125" r="20.0" style="fill:blue;stroke:black;stroke-width:1.0"/>
<circle cx="317" cy="180" r="20.0" style="fill:red;stroke:black;stroke-width:1.0"/>
<circle cx="278" cy="205" r="20.0" style="fill:red;stroke:black;stroke-width:1.0"/>
<circle cx="420" cy="320" r="20.0" style="fill:red;stroke:black;stroke-width:1.0"/>
<circle cx="368" cy="289" r="20.0" style="fill:red;stroke:black;stroke-width:1.0"/>
</svg>
