<svg width="440" height="340" xmlns="http://www.w3.org/2000/svg">
<path stroke-width="10.216264905207172" stroke="black" d="M 193 203 189 205"/>
<path stroke-width="0.5094792828343485" stroke="black" d="M 181 180 202 202"/>
<path stroke-width="0.5" stroke="black" d="M 181 180 89 152"/>
<path stroke-width="0.5864287552543536" stroke="black" d="M 105 320 173 230"/>
<path stroke-width="1.097194818563953" stroke="black" d="M 173 230 189 205"/>
<path stroke-width="0.7938577678648022" stroke="black" d="M 173 230 187 201"/>
<path stroke-width="0.6421892425152269" stroke="black" d="M 173 230 231 204"/>
<path stroke-width="0.5094792828343485" stroke="black" d="M 181 180 173 230"/>
<path stroke-width="0.5663549798404393" stroke="black" d="M 173 230 194 216"/>
<path stroke-width="0.5094792828343485" stroke="black" d="M 173 230 166 178"/>
<path stroke-width="0.5" stroke="black" d="M 173 230 182 189"/>
<path stroke-width="0.5094792828343485" stroke="black" d="M 173 230 181 180"/>
<path stroke-width="0.5864287552543536" stroke="black" d="M 173 230 105 320"/>
<path stroke-width="0.5" stroke="black" d="M 173 230 202 202"/>
<path stroke-width="0.5" stroke="black" d="M 173 230 89 152"/>
<path stroke-width="0.5284378485030454" stroke="black" d="M 173 230 168 220"/>
<path stroke-width="20.0" stroke="black" d="M 204 201 202 202"/>
<path stroke-width="0.6042721111778331" stroke="black" d="M 181 180 133 132"/>
<path stroke-width="0.5" stroke="black" d="M 181 180 166 178"/>
<path stroke-width="0.5094792828343485" stroke="black" d="M 182 189 194 216"/>
<path stroke-width="0.5" stroke="black" d="M 182 189 168 220"/>
<path stroke-width="0.5" stroke="black" d="M 182 189 166 178"/>
<path stroke-width="0.6611478081839238" stroke="black" d="M 182 189 211 182"/>
<path stroke-width="0.5" stroke="black" d="M 182 189 181 180"/>
<path stroke-width="0.5" stroke="black" d="M 182 189 173 230"/>
<path stroke-width="0.5" stroke="black" d="M 181 180 182 189"/>
<path stroke-width="0.5284378485030454" stroke="black" d="M 182 189 202 202"/>
<path stroke-width="0.6042721111778331" stroke="black" d="M 133 132 181 180"/>
<path stroke-width="0.7938577678648022" stroke="black" d="M 181 180 189 205"/>
<path stroke-width="0.6421892425152269" stroke="black" d="M 181 180 187 201"/>
<path stroke-width="0.5663549798404393" stroke="black" d="M 181 180 231 204"/>
<path stroke-width="0.5284378485030454" stroke="black" d="M 181 180 194 216"/>
<path stroke-width="0.5094792828343485" stroke="black" d="M 181 180 168 220"/>
<path stroke-width="0.5" stroke="black" d="M 182 189 89 152"/>
<path stroke-width="0.5284378485030454" stroke="black" d="M 182 189 231 204"/>
<path stroke-width="2.926696405593206" stroke="black" d="M 202 202 189 205"/>
<path stroke-width="1.097194818563953" stroke="black" d="M 202 202 231 204"/>
<path stroke-width="0.606502530668268" stroke="black" d="M 254 76 178 87"/>
<path stroke-width="0.5" stroke="black" d="M 178 87 168 220"/>
<path stroke-width="0.5094792828343485" stroke="black" d="M 178 87 267 63"/>
<path stroke-width="0.606502530668268" stroke="black" d="M 178 87 254 76"/>
<path stroke-width="0.5094792828343485" stroke="black" d="M 178 87 20 83"/>
<path stroke-width="0.606502530668268" stroke="black" d="M 27 41 20 83"/>
<path stroke-width="0.5094792828343485" stroke="black" d="M 267 63 178 87"/>
<path stroke-width="0.5" stroke="black" d="M 20 83 166 178"/>
<path stroke-width="0.606502530668268" stroke="black" d="M 20 83 27 41"/>
<path stroke-width="0.5094792828343485" stroke="black" d="M 20 83 89 152"/>
<path stroke-width="0.6444196620056618" stroke="black" d="M 53 130 89 152"/>
<path stroke-width="0.5" stroke="black" d="M 89 152 182 189"/>
<path stroke-width="0.5" stroke="black" d="M 89 152 181 180"/>
<path stroke-width="0.5" stroke="black" d="M 89 152 173 230"/>
<path stroke-width="0.5094792828343485" stroke="black" d="M 20 83 178 87"/>
<path stroke-width="1.7228274856309513" stroke="black" d="M 202 202 187 201"/>
<path stroke-width="0.606502530668268" stroke="black" d="M 267 63 307 20"/>
<path stroke-width="0.5" stroke="black" d="M 267 63 194 216"/>
<path stroke-width="0.7938577678648022" stroke="black" d="M 202 202 194 216"/>
<path stroke-width="0.6421892425152269" stroke="black" d="M 202 202 168 220"/>
<path stroke-width="0.5663549798404393" stroke="black" d="M 202 202 166 178"/>
<path stroke-width="0.5284378485030454" stroke="black" d="M 202 202 182 189"/>
<path stroke-width="0.5094792828343485" stroke="black" d="M 202 202 181 180"/>
<path stroke-width="0.5" stroke="black" d="M 202 202 173 230"/>
<path stroke-width="0.5094792828343485" stroke="black" d="M 267 63 338 155"/>
<path stroke-width="20.0" stroke="black" d="M 202 202 204 201"/>
<path stroke-width="0.606502530668268" stroke="black" d="M 420 168 338 155"/>
<path stroke-width="0.5" stroke="black" d="M 338 155 231 204"/>
<path stroke-width="0.5094792828343485" stroke="black" d="M 338 155 202 202"/>
<path stroke-width="0.606502530668268" stroke="black" d="M 338 155 420 168"/>
<path stroke-width="0.5094792828343485" stroke="black" d="M 338 155 267 63"/>
<path stroke-width="0.606502530668268" stroke="black" d="M 307 20 267 63"/>
<path stroke-width="0.5094792828343485" stroke="black" d="M 202 202 338 155"/>
<path stroke-width="0.5663549798404393" stroke="black" d="M 182 189 187 201"/>
<path stroke-width="0.6421892425152269" stroke="black" d="M 182 189 189 205"/>
<path stroke-width="0.6611478081839238" stroke="black" d="M 211 182 182 189"/>
<path stroke-width="0.6421892425152269" stroke="black" d="M 187 201 181 180"/>
<path stroke-width="0.7938577678648022" stroke="black" d="M 187 201 173 230"/>
<path stroke-width="1.7228274856309513" stroke="black" d="M 187 201 202 202"/>
<path stroke-width="2.936175688427554" stroke="black" d="M 250 203 231 204"/>
<path stroke-width="0.5" stroke="black" d="M 231 204 189 205"/>
<path stroke-width="0.5" stroke="black" d="M 231 204 187 201"/>
<path stroke-width="0.5663549798404393" stroke="black" d="M 187 201 182 189"/>
<path stroke-width="2.936175688427554" stroke="black" d="M 231 204 250 203"/>
<path stroke-width="0.5" stroke="black" d="M 231 204 168 220"/>
<path stroke-width="0.5094792828343485" stroke="black" d="M 231 204 166 178"/>
<path stroke-width="0.5284378485030454" stroke="black" d="M 231 204 182 189"/>
<path stroke-width="0.5663549798404393" stroke="black" d="M 231 204 181 180"/>
<path stroke-width="0.6421892425152269" stroke="black" d="M 231 204 173 230"/>
<path stroke-width="1.097194818563953" stroke="black" d="M 231 204 202 202"/>
<path stroke-width="0.5" stroke="black" d="M 231 204 194 216"/>
<path stroke-width="0.5" stroke="black" d="M 231 204 338 155"/>
<path stroke-width="0.5284378485030454" stroke="black" d="M 187 201 166 178"/>
<path stroke-width="0.5" stroke="black" d="M 187 201 194 216"/>
<path stroke-width="10.216264905207172" stroke="black" d="M 189 205 193 203"/>
<path stroke-width="0.5" stroke="black" d="M 189 205 187 201"/>
<path stroke-width="0.5" stroke="black" d="M 189 205 231 204"/>
<path stroke-width="0.5094792828343485" stroke="black" d="M 189 205 194 216"/>
<path stroke-width="0.5284378485030454" stroke="black" d="M 189 205 168 220"/>
<path stroke-width="0.5663549798404393" stroke="black" d="M 189 205 166 178"/>
<path stroke-width="0.5094792828343485" stroke="black" d="M 187 201 168 220"/>
<path stroke-width="0.6421892425152269" stroke="black" d="M 189 205 182 189"/>
<path stroke-width="1.097194818563953" stroke="black" d="M 189 205 173 230"/>
<path stroke-width="2.926696405593206" stroke="black" d="M 189 205 202 202"/>
<path stroke-width="5.36287209402076" stroke="black" d="M 187 196 187 201"/>
<path stroke-width="0.5" stroke="black" d="M 187 201 189 205"/>
<path stroke-width="5.36287209402076" stroke="black" d="M 187 201 187 196"/>
<path stroke-width="0.5" stroke="black" d="M 187 201 231 204"/>
<path stroke-width="0.7938577678648022" stroke="black" d="M 189 205 181 180"/>
<path stroke-width="1.7228274856309513" stroke="black" d="M 190 229 194 216"/>
<path stroke-width="0.5094792828343485" stroke="black" d="M 194 216 189 205"/>
<path stroke-width="0.5" stroke="black" d="M 194 216 187 201"/>
<path stroke-width="0.6421892425152269" stroke="black" d="M 168 220 202 202"/>
<path stroke-width="0.5" stroke="black" d="M 168 220 178 87"/>
<path stroke-width="0.8128163335334992" stroke="black" d="M 175 174 166 178"/>
<path stroke-width="0.5663549798404393" stroke="black" d="M 166 178 189 205"/>
<path stroke-width="0.5284378485030454" stroke="black" d="M 166 178 187 201"/>
<path stroke-width="0.5094792828343485" stroke="black" d="M 166 178 231 204"/>
<path stroke-width="0.5284378485030454" stroke="black" d="M 168 220 173 230"/>
<path stroke-width="0.5" stroke="black" d="M 166 178 194 216"/>
<path stroke-width="0.8128163335334992" stroke="black" d="M 166 178 175 174"/>
<path stroke-width="0.5" stroke="black" d="M 166 178 182 189"/>
<path stroke-width="0.5" stroke="black" d="M 166 178 181 180"/>
<path stroke-width="0.5094792828343485" stroke="black" d="M 166 178 173 230"/>
<path stroke-width="0.5663549798404393" stroke="black" d="M 166 178 202 202"/>
<path stroke-width="0.5" stroke="black" d="M 166 178 20 83"/>
<path stroke-width="0.5" stroke="black" d="M 166 178 168 220"/>
<path stroke-width="0.5094792828343485" stroke="black" d="M 168 220 181 180"/>
<path stroke-width="0.5" stroke="black" d="M 168 220 182 189"/>
<path stroke-width="0.5" stroke="black" d="M 168 220 166 178"/>
<path stroke-width="0.5" stroke="black" d="M 194 216 231 204"/>
<path stroke-width="1.7228274856309513" stroke="black" d="M 194 216 190 229"/>
<path stroke-width="0.5" stroke="black" d="M 194 216 168 220"/>
<path stroke-width="0.5" stroke="black" d="M 194 216 166 178"/>
<path stroke-width="0.5094792828343485" stroke="black" d="M 194 216 182 189"/>
<path stroke-width="0.5284378485030454" stroke="black" d="M 194 216 181 180"/>
<path stroke-width="0.5663549798404393" stroke="black" d="M 194 216 173 230"/>
<path stroke-width="0.7938577678648022" stroke="black" d="M 194 216 202 202"/>
<path stroke-width="0.5" stroke="black" d="M 194 216 267 63"/>
<path stroke-width="1.1161533842326499" stroke="black" d="M 159 238 168 220"/>
<path stroke-width="0.5284378485030454" stroke="black" d="M 168 220 189 205"/>
<path stroke-width="0.5094792828343485" stroke="black" d="M 168 220 187 201"/>
<path stroke-width="0.5" stroke="black" d="M 168 220 231 204"/>
<path stroke-width="0.5" stroke="black" d="M 168 220 194 216"/>
<path stroke-width="1.1161533842326499" stroke="black" d="M 168 220 159 238"/>
<path stroke-width="0.5094792828343485" stroke="black" d="M 89 152 20 83"/>
<path stroke-width="0.6444196620056618" stroke="black" d="M 89 152 53 130"/>
<circle cx="193" cy="203" r="7.0" style="fill:red;stroke:black;stroke-width:1.0"/>
<circle cx="189" cy="205" r="7.0" style="fill:red;stroke:black;stroke-width:1.0"/>
<circle cx="187" cy="196" r="7.0" style="fill:orange;stroke:black;stroke-width:1.0"/>
<circle cx="187" cy="201" r="7.0" style="fill:orange;stroke:black;stroke-width:1.0"/>
<circle cx="250" cy="203" r="7.0" style="fill:purple;stroke:black;stroke-width:1.0"/>
<circle cx="231" cy="204" r="7.0" style="fill:purple;stroke:black;stroke-width:1.0"/>
<circle cx="190" cy="229" r="7.0" style="fill:green;stroke:black;stroke-width:1.0"/>
<circle cx="194" cy="216" r="7.0" style="fill:green;stroke:black;stroke-width:1.0"/>
<circle cx="159" cy="238" r="7.0" style="fill:fuchsia;stroke:black;stroke-width:1.0"/>
<circle cx="168" cy="220" r="7.0" style="fill:fuchsia;stroke:black;stroke-width:1.0"/>
<circle cx="175" cy="174" r="7.0" style="fill:blue;stroke:black;stroke-width:1.0"/>
<circle cx="166" cy="178" r="7.0" style="fill:blue;stroke:black;stroke-width:1.0"/>
<circle cx="211" cy="182" r="7.0" style="fill:olive;stroke:black;stroke-width:1.0"/>
<circle cx="182" cy="189" r="7.0" style="fill:olive;stroke:black;stroke-width:1.0"/>
<circle cx="133" cy="132" r="7.0" style="fill:red;stroke:black;stroke-width:1.0"/>
<circle cx="181" cy="180" r="7.0" style="fill:red;stroke:black;stroke-width:1.0"/>
<circle cx="105" cy="320" r="7.0" style="fill:red;stroke:black;stroke-width:1.0"/>
<circle cx="173" cy="230" r="7.0" style="fill:red;stroke:black;stroke-width:1.0"/>
<circle cx="204" cy="201" r="7.0" style="fill:yellow;stroke:black;stroke-width:1.0"/>
<circle cx="202" cy="202" r="7.0" style="fill:yellow;stroke:black;stroke-width:1.0"/>
<circle cx="420" cy="168" r="7.0" style="fill:green;stroke:black;stroke-width:1.0"/>
<circle cx="338" cy="155" r="7.0" style="fill:green;stroke:black;stroke-width:1.0"/>
<circle cx="307" cy="20" r="7.0" style="fill:green;stroke:black;stroke-width:1.0"/>
<circle cx="267" cy="63" r="7.0" style="fill:green;stroke:black;stroke-width:1.0"/>
<circle cx="254" cy="76" r="7.0" style="fill:blue;stroke:black;stroke-width:1.0"/>
<circle cx="178" cy="87" r="7.0" style="fill:blue;stroke:black;stroke-width:1.0"/>
<circle cx="27" cy="41" r="7.0" style="fill:blue;stroke:black;stroke-width:1.0"/>
<circle cx="20" cy="83" r="7.0" style="fill:blue;stroke:black;stroke-width:1.0"/>
<circle cx="53" cy="130" r="7.0" style="fill:blue;stroke:black;stroke-width:1.0"/>
<circle cx="89" cy="152" r="7.0" style="fill:blue;stroke:black;stroke-width:1.0"/>
</svg>
