<svg width="440" height="340" xmlns="http://www.w3.org/2000/svg">
<path stroke-width="1" stroke="black" d="M 20 248 27 244"/>
<path stroke-width="1" stroke="black" d="M 388 282 410 241"/>
<path stroke-width="1" stroke="black" d="M 397 288 388 282"/>
<path stroke-width="1" stroke="black" d="M 410 241 388 282"/>
<path stroke-width="1" stroke="black" d="M 410 241 420 246"/>
<path stroke-width="1" stroke="black" d="M 410 241 408 193"/>
<path stroke-width="1" stroke="black" d="M 420 246 410 241"/>
<path stroke-width="1" stroke="black" d="M 408 193 410 241"/>
<path stroke-width="1" stroke="black" d="M 408 193 413 198"/>
<path stroke-width="1" stroke="black" d="M 408 193 397 143"/>
<path stroke-width="1" stroke="black" d="M 413 198 408 193"/>
<path stroke-width="1" stroke="black" d="M 397 143 408 193"/>
<path stroke-width="1" stroke="black" d="M 397 143 395 138"/>
<path stroke-width="1" stroke="black" d="M 388 282 397 288"/>
<path stroke-width="1" stroke="black" d="M 397 143 383 93"/>
<path stroke-width="1" stroke="black" d="M 383 93 397 143"/>
<path stroke-width="1" stroke="black" d="M 383 93 384 86"/>
<path stroke-width="1" stroke="black" d="M 383 93 365 52"/>
<path stroke-width="1" stroke="black" d="M 384 86 383 93"/>
<path stroke-width="1" stroke="black" d="M 365 52 383 93"/>
<path stroke-width="1" stroke="black" d="M 365 52 365 43"/>
<path stroke-width="1" stroke="black" d="M 365 52 338 28"/>
<path stroke-width="1" stroke="black" d="M 365 43 365 52"/>
<path stroke-width="1" stroke="black" d="M 338 28 365 52"/>
<path stroke-width="1" stroke="black" d="M 338 28 336 20"/>
<path stroke-width="1" stroke="black" d="M 338 28 315 44"/>
<path stroke-width="1" stroke="black" d="M 336 20 338 28"/>
<path stroke-width="1" stroke="black" d="M 395 138 397 143"/>
<path stroke-width="1" stroke="black" d="M 388 282 339 305"/>
<path stroke-width="1" stroke="black" d="M 346 311 339 305"/>
<path stroke-width="1" stroke="black" d="M 339 305 388 282"/>
<path stroke-width="1" stroke="black" d="M 112 183 120 192"/>
<path stroke-width="1" stroke="black" d="M 138 217 120 192"/>
<path stroke-width="1" stroke="black" d="M 138 217 142 212"/>
<path stroke-width="1" stroke="black" d="M 138 217 147 249"/>
<path stroke-width="1" stroke="black" d="M 142 212 138 217"/>
<path stroke-width="1" stroke="black" d="M 147 249 138 217"/>
<path stroke-width="1" stroke="black" d="M 147 249 154 250"/>
<path stroke-width="1" stroke="black" d="M 147 249 152 282"/>
<path stroke-width="1" stroke="black" d="M 154 250 147 249"/>
<path stroke-width="1" stroke="black" d="M 152 282 147 249"/>
<path stroke-width="1" stroke="black" d="M 152 282 145 285"/>
<path stroke-width="1" stroke="black" d="M 152 282 176 307"/>
<path stroke-width="1" stroke="black" d="M 145 285 152 282"/>
<path stroke-width="1" stroke="black" d="M 176 307 152 282"/>
<path stroke-width="1" stroke="black" d="M 176 307 166 311"/>
<path stroke-width="1" stroke="black" d="M 176 307 224 315"/>
<path stroke-width="1" stroke="black" d="M 166 311 176 307"/>
<path stroke-width="1" stroke="black" d="M 224 315 176 307"/>
<path stroke-width="1" stroke="black" d="M 224 315 216 319"/>
<path stroke-width="1" stroke="black" d="M 224 315 281 314"/>
<path stroke-width="1" stroke="black" d="M 216 319 224 315"/>
<path stroke-width="1" stroke="black" d="M 281 314 224 315"/>
<path stroke-width="1" stroke="black" d="M 281 314 277 320"/>
<path stroke-width="1" stroke="black" d="M 281 314 339 305"/>
<path stroke-width="1" stroke="black" d="M 277 320 281 314"/>
<path stroke-width="1" stroke="black" d="M 339 305 281 314"/>
<path stroke-width="1" stroke="black" d="M 339 305 346 311"/>
<path stroke-width="1" stroke="black" d="M 315 44 338 28"/>
<path stroke-width="1" stroke="black" d="M 315 44 318 38"/>
<path stroke-width="1" stroke="black" d="M 315 44 293 67"/>
<path stroke-width="1" stroke="black" d="M 318 38 315 44"/>
<path stroke-width="1" stroke="black" d="M 319 175 310 172"/>
<path stroke-width="1" stroke="black" d="M 271 191 310 172"/>
<path stroke-width="1" stroke="black" d="M 271 191 276 196"/>
<path stroke-width="1" stroke="black" d="M 271 191 222 201"/>
<path stroke-width="1" stroke="black" d="M 276 196 271 191"/>
<path stroke-width="1" stroke="black" d="M 222 201 271 191"/>
<path stroke-width="1" stroke="black" d="M 222 201 221 206"/>
<path stroke-width="1" stroke="black" d="M 222 201 175 204"/>
<path stroke-width="1" stroke="black" d="M 221 206 222 201"/>
<path stroke-width="1" stroke="black" d="M 175 204 222 201"/>
<path stroke-width="1" stroke="black" d="M 175 204 169 206"/>
<path stroke-width="1" stroke="black" d="M 175 204 128 206"/>
<path stroke-width="1" stroke="black" d="M 169 206 175 204"/>
<path stroke-width="1" stroke="black" d="M 128 206 175 204"/>
<path stroke-width="1" stroke="black" d="M 128 206 123 201"/>
<path stroke-width="1" stroke="black" d="M 128 206 89 216"/>
<path stroke-width="1" stroke="black" d="M 123 201 128 206"/>
<path stroke-width="1" stroke="black" d="M 89 216 128 206"/>
<path stroke-width="1" stroke="black" d="M 89 216 84 213"/>
<path stroke-width="1" stroke="black" d="M 89 216 55 230"/>
<path stroke-width="1" stroke="black" d="M 84 213 89 216"/>
<path stroke-width="1" stroke="black" d="M 55 230 89 216"/>
<path stroke-width="1" stroke="black" d="M 55 230 52 234"/>
<path stroke-width="1" stroke="black" d="M 55 230 27 244"/>
<path stroke-width="1" stroke="black" d="M 52 234 55 230"/>
<path stroke-width="1" stroke="black" d="M 27 244 55 230"/>
<path stroke-width="1" stroke="black" d="M 27 244 20 248"/>
<path stroke-width="1" stroke="black" d="M 310 172 271 191"/>
<path stroke-width="1" stroke="black" d="M 120 192 138 217"/>
<path stroke-width="1" stroke="black" d="M 310 172 319 175"/>
<path stroke-width="1" stroke="black" d="M 341 143 331 144"/>
<path stroke-width="1" stroke="black" d="M 293 67 315 44"/>
<path stroke-width="1" stroke="black" d="M 293 67 293 73"/>
<path stroke-width="1" stroke="black" d="M 293 67 267 85"/>
<path stroke-width="1" stroke="black" d="M 293 73 293 67"/>
<path stroke-width="1" stroke="black" d="M 267 85 293 67"/>
<path stroke-width="1" stroke="black" d="M 267 85 262 91"/>
<path stroke-width="1" stroke="black" d="M 267 85 254 75"/>
<path stroke-width="1" stroke="black" d="M 262 91 267 85"/>
<path stroke-width="1" stroke="black" d="M 254 75 267 85"/>
<path stroke-width="1" stroke="black" d="M 254 75 246 75"/>
<path stroke-width="1" stroke="black" d="M 254 75 278 71"/>
<path stroke-width="1" stroke="black" d="M 246 75 254 75"/>
<path stroke-width="1" stroke="black" d="M 278 71 254 75"/>
<path stroke-width="1" stroke="black" d="M 278 71 275 64"/>
<path stroke-width="1" stroke="black" d="M 278 71 307 88"/>
<path stroke-width="1" stroke="black" d="M 275 64 278 71"/>
<path stroke-width="1" stroke="black" d="M 307 88 278 71"/>
<path stroke-width="1" stroke="black" d="M 307 88 310 83"/>
<path stroke-width="1" stroke="black" d="M 307 88 328 113"/>
<path stroke-width="1" stroke="black" d="M 310 83 307 88"/>
<path stroke-width="1" stroke="black" d="M 328 113 307 88"/>
<path stroke-width="1" stroke="black" d="M 328 113 336 111"/>
<path stroke-width="1" stroke="black" d="M 328 113 331 144"/>
<path stroke-width="1" stroke="black" d="M 336 111 328 113"/>
<path stroke-width="1" stroke="black" d="M 331 144 328 113"/>
<path stroke-width="1" stroke="black" d="M 331 144 341 143"/>
<path stroke-width="1" stroke="black" d="M 331 144 310 172"/>
<path stroke-width="1" stroke="black" d="M 310 172 331 144"/>
<path stroke-width="1" stroke="black" d="M 120 192 112 183"/>
<circle cx="20" cy="248" r="7.0" style="fill:purple;stroke:black;stroke-width:1.0"/>
<circle cx="27" cy="244" r="7.0" style="fill:purple;stroke:black;stroke-width:1.0"/>
<circle cx="52" cy="234" r="7.0" style="fill:green;stroke:black;stroke-width:1.0"/>
<circle cx="55" cy="230" r="7.0" style="fill:green;stroke:black;stroke-width:1.0"/>
<circle cx="84" cy="213" r="7.0" style="fill:brown;stroke:black;stroke-width:1.0"/>
<circle cx="89" cy="216" r="7.0" style="fill:brown;stroke:black;stroke-width:1.0"/>
<circle cx="123" cy="201" r="7.0" style="fill:brown;stroke:black;stroke-width:1.0"/>
<circle cx="128" cy="206" r="7.0" style="fill:brown;stroke:black;stroke-width:1.0"/>
<circle cx="169" cy="206" r="7.0" style="fill:blue;stroke:black;stroke-width:1.0"/>
<circle cx="175" cy="204" r="7.0" style="fill:blue;stroke:black;stroke-width:1.0"/>
<circle cx="221" cy="206" r="7.0" style="fill:blue;stroke:black;stroke-width:1.0"/>
<circle cx="222" cy="201" r="7.0" style="fill:blue;stroke:black;stroke-width:1.0"/>
<circle cx="276" cy="196" r="7.0" style="fill:red;stroke:black;stroke-width:1.0"/>
<circle cx="271" cy="191" r="7.0" style="fill:blue;stroke:black;stroke-width:1.0"/>
<circle cx="319" cy="175" r="7.0" style="fill:red;stroke:black;stroke-width:1.0"/>
<circle cx="310" cy="172" r="7.0" style="fill:red;stroke:black;stroke-width:1.0"/>
<circle cx="341" cy="143" r="7.0" style="fill:yellow;stroke:black;stroke-width:1.0"/>
<circle cx="331" cy="144" r="7.0" style="fill:red;stroke:black;stroke-width:1.0"/>
<circle cx="336" cy="111" r="7.0" style="fill:yellow;stroke:black;stroke-width:1.0"/>
<circle cx="328" cy="113" r="7.0" style="fill:yellow;stroke:black;stroke-width:1.0"/>
<circle cx="310" cy="83" r="7.0" style="fill:yellow;stroke:black;stroke-width:1.0"/>
<circle cx="307" cy="88" r="7.0" style="fill:yellow;stroke:black;stroke-width:1.0"/>
<circle cx="275" cy="64" r="7.0" style="fill:aqua;stroke:black;stroke-width:1.0"/>
<circle cx="278" cy="71" r="7.0" style="fill:aqua;stroke:black;stroke-width:1.0"/>
<circle cx="246" cy="75" r="7.0" style="fill:aqua;stroke:black;stroke-width:1.0"/>
<circle cx="254" cy="75" r="7.0" style="fill:aqua;stroke:black;stroke-width:1.0"/>
<circle cx="262" cy="91" r="7.0" style="fill:aqua;stroke:black;stroke-width:1.0"/>
<circle cx="267" cy="85" r="7.0" style="fill:aqua;stroke:black;stroke-width:1.0"/>
<circle cx="293" cy="73" r="7.0" style="fill:red;stroke:black;stroke-width:1.0"/>
<circle cx="293" cy="67" r="7.0" style="fill:red;stroke:black;stroke-width:1.0"/>
<circle cx="318" cy="38" r="7.0" style="fill:red;stroke:black;stroke-width:1.0"/>
<circle cx="315" cy="44" r="7.0" style="fill:red;stroke:black;stroke-width:1.0"/>
<circle cx="336" cy="20" r="7.0" style="fill:red;stroke:black;stroke-width:1.0"/>
<circle cx="338" cy="28" r="7.0" style="fill:red;stroke:black;stroke-width:1.0"/>
<circle cx="365" cy="43" r="7.0" style="fill:olive;stroke:black;stroke-width:1.0"/>
<circle cx="365" cy="52" r="7.0" style="fill:olive;stroke:black;stroke-width:1.0"/>
<circle cx="384" cy="86" r="7.0" style="fill:olive;stroke:black;stroke-width:1.0"/>
<circle cx="383" cy="93" r="7.0" style="fill:orange;stroke:black;stroke-width:1.0"/>
<circle cx="395" cy="138" r="7.0" style="fill:orange;stroke:black;stroke-width:1.0"/>
<circle cx="397" cy="143" r="7.0" style="fill:orange;stroke:black;stroke-width:1.0"/>
<circle cx="413" cy="198" r="7.0" style="fill:purple;stroke:black;stroke-width:1.0"/>
<circle cx="408" cy="193" r="7.0" style="fill:purple;stroke:black;stroke-width:1.0"/>
<circle cx="420" cy="246" r="7.0" style="fill:orange;stroke:black;stroke-width:1.0"/>
<circle cx="410" cy="241" r="7.0" style="fill:orange;stroke:black;stroke-width:1.0"/>
<circle cx="397" cy="288" r="7.0" style="fill:orange;stroke:black;stroke-width:1.0"/>
<circle cx="388" cy="282" r="7.0" style="fill:orange;stroke:black;stroke-width:1.0"/>
<circle cx="346" cy="311" r="7.0" style="fill:blue;stroke:black;stroke-width:1.0"/>
<circle cx="339" cy="305" r="7.0" style="fill:blue;stroke:black;stroke-width:1.0"/>
<circle cx="277" cy="320" r="7.0" style="fill:blue;stroke:black;stroke-width:1.0"/>
<circle cx="281" cy="314" r="7.0" style="fill:blue;stroke:black;stroke-width:1.0"/>
<circle cx="216" cy="319" r="7.0" style="fill:blue;stroke:black;stroke-width:1.0"/>
<circle cx="224" cy="315" r="7.0" style="fill:blue;stroke:black;stroke-width:1.0"/>
<circle cx="166" cy="311" r="7.0" style="fill:green;stroke:black;stroke-width:1.0"/>
<circle cx="176" cy="307" r="7.0" style="fill:green;stroke:black;stroke-width:1.0"/>
<circle cx="145" cy="285" r="7.0" style="fill:green;stroke:black;stroke-width:1.0"/>
<circle cx="152" cy="282" r="7.0" style="fill:green;stroke:black;stroke-width:1.0"/>
<circle cx="154" cy="250" r="7.0" style="fill:green;stroke:black;stroke-width:1.0"/>
<circle cx="147" cy="249" r="7.0" style="fill:green;stroke:black;stroke-width:1.0"/>
<circle cx="142" cy="212" r="7.0" style="fill:fuchsia;stroke:black;stroke-width:1.0"/>
<circle cx="138" cy="217" r="7.0" style="fill:fuchsia;stroke:black;stroke-width:1.0"/>
<circle cx="112" cy="183" r="7.0" style="fill:fuchsia;stroke:black;stroke-width:1.0"/>
<circle cx="120" cy="192" r="7.0" style="fill:fuchsia;stroke:black;stroke-width:1.0"/>
</svg>
