<svg width="440" height="340" xmlns="http://www.w3.org/2000/svg">
<path stroke-width="20.0" stroke="black" d="M 420 20 415 28"/>
<path stroke-width="0.5" stroke="black" d="M 227 294 290 311"/>
<path stroke-width="20.0" stroke="black" d="M 232 306 227 294"/>
<path stroke-width="0.5" stroke="black" d="M 290 311 227 294"/>
<path stroke-width="20.0" stroke="black" d="M 290 311 303 320"/>
<path stroke-width="0.5" stroke="black" d="M 290 311 294 281"/>
<path stroke-width="20.0" stroke="black" d="M 303 320 290 311"/>
<path stroke-width="0.5" stroke="black" d="M 294 281 290 311"/>
<path stroke-width="20.0" stroke="black" d="M 294 281 304 288"/>
<path stroke-width="0.5" stroke="black" d="M 294 281 268 241"/>
<path stroke-width="20.0" stroke="black" d="M 304 288 294 281"/>
<path stroke-width="0.5" stroke="black" d="M 268 241 294 281"/>
<path stroke-width="20.0" stroke="black" d="M 268 241 279 238"/>
<path stroke-width="20.0" stroke="black" d="M 227 294 232 306"/>
<path stroke-width="0.5" stroke="black" d="M 268 241 227 203"/>
<path stroke-width="0.5" stroke="black" d="M 227 203 268 241"/>
<path stroke-width="20.0" stroke="black" d="M 227 203 230 194"/>
<path stroke-width="0.5" stroke="black" d="M 227 203 170 181"/>
<path stroke-width="20.0" stroke="black" d="M 230 194 227 203"/>
<path stroke-width="0.5" stroke="black" d="M 170 181 227 203"/>
<path stroke-width="20.0" stroke="black" d="M 170 181 161 174"/>
<path stroke-width="0.5" stroke="black" d="M 170 181 116 175"/>
<path stroke-width="20.0" stroke="black" d="M 161 174 170 181"/>
<path stroke-width="0.5" stroke="black" d="M 116 175 170 181"/>
<path stroke-width="20.0" stroke="black" d="M 116 175 105 167"/>
<path stroke-width="0.5" stroke="black" d="M 116 175 109 205"/>
<path stroke-width="20.0" stroke="black" d="M 105 167 116 175"/>
<path stroke-width="20.0" stroke="black" d="M 279 238 268 241"/>
<path stroke-width="0.5" stroke="black" d="M 227 294 170 250"/>
<path stroke-width="20.0" stroke="black" d="M 168 259 170 250"/>
<path stroke-width="0.5" stroke="black" d="M 170 250 227 294"/>
<path stroke-width="8.857142857142858" stroke="black" d="M 35 275 32 257"/>
<path stroke-width="0.5" stroke="black" d="M 24 208 32 257"/>
<path stroke-width="20.0" stroke="black" d="M 24 208 23 217"/>
<path stroke-width="0.5" stroke="black" d="M 24 208 22 150"/>
<path stroke-width="20.0" stroke="black" d="M 23 217 24 208"/>
<path stroke-width="0.5" stroke="black" d="M 22 150 24 208"/>
<path stroke-width="20.0" stroke="black" d="M 22 150 20 141"/>
<path stroke-width="0.5" stroke="black" d="M 22 150 27 100"/>
<path stroke-width="20.0" stroke="black" d="M 20 141 22 150"/>
<path stroke-width="0.5" stroke="black" d="M 27 100 22 150"/>
<path stroke-width="20.0" stroke="black" d="M 27 100 26 88"/>
<path stroke-width="0.5" stroke="black" d="M 27 100 50 86"/>
<path stroke-width="20.0" stroke="black" d="M 26 88 27 100"/>
<path stroke-width="0.5" stroke="black" d="M 50 86 27 100"/>
<path stroke-width="20.0" stroke="black" d="M 50 86 45 73"/>
<path stroke-width="0.5" stroke="black" d="M 50 86 79 132"/>
<path stroke-width="20.0" stroke="black" d="M 45 73 50 86"/>
<path stroke-width="0.5" stroke="black" d="M 79 132 50 86"/>
<path stroke-width="20.0" stroke="black" d="M 79 132 71 122"/>
<path stroke-width="0.5" stroke="black" d="M 79 132 117 191"/>
<path stroke-width="20.0" stroke="black" d="M 71 122 79 132"/>
<path stroke-width="0.5" stroke="black" d="M 117 191 79 132"/>
<path stroke-width="20.0" stroke="black" d="M 117 191 106 191"/>
<path stroke-width="0.5" stroke="black" d="M 117 191 170 250"/>
<path stroke-width="20.0" stroke="black" d="M 106 191 117 191"/>
<path stroke-width="0.5" stroke="black" d="M 170 250 117 191"/>
<path stroke-width="20.0" stroke="black" d="M 170 250 168 259"/>
<path stroke-width="0.5" stroke="black" d="M 109 205 116 175"/>
<path stroke-width="20.0" stroke="black" d="M 109 205 92 207"/>
<path stroke-width="0.5" stroke="black" d="M 109 205 164 223"/>
<path stroke-width="20.0" stroke="black" d="M 92 207 109 205"/>
<path stroke-width="20.0" stroke="black" d="M 123 200 134 190"/>
<path stroke-width="0.5" stroke="black" d="M 83 175 134 190"/>
<path stroke-width="20.0" stroke="black" d="M 83 175 63 180"/>
<path stroke-width="0.5" stroke="black" d="M 83 175 128 143"/>
<path stroke-width="20.0" stroke="black" d="M 63 180 83 175"/>
<path stroke-width="0.5" stroke="black" d="M 128 143 83 175"/>
<path stroke-width="20.0" stroke="black" d="M 128 143 113 142"/>
<path stroke-width="0.5" stroke="black" d="M 128 143 200 119"/>
<path stroke-width="20.0" stroke="black" d="M 113 142 128 143"/>
<path stroke-width="0.5" stroke="black" d="M 200 119 128 143"/>
<path stroke-width="20.0" stroke="black" d="M 200 119 197 111"/>
<path stroke-width="0.5" stroke="black" d="M 200 119 280 105"/>
<path stroke-width="20.0" stroke="black" d="M 197 111 200 119"/>
<path stroke-width="0.5" stroke="black" d="M 280 105 200 119"/>
<path stroke-width="20.0" stroke="black" d="M 280 105 291 106"/>
<path stroke-width="0.5" stroke="black" d="M 280 105 352 90"/>
<path stroke-width="20.0" stroke="black" d="M 291 106 280 105"/>
<path stroke-width="0.5" stroke="black" d="M 352 90 280 105"/>
<path stroke-width="20.0" stroke="black" d="M 352 90 364 95"/>
<path stroke-width="0.5" stroke="black" d="M 352 90 396 60"/>
<path stroke-width="20.0" stroke="black" d="M 364 95 352 90"/>
<path stroke-width="0.5" stroke="black" d="M 396 60 352 90"/>
<path stroke-width="20.0" stroke="black" d="M 396 60 410 60"/>
<path stroke-width="0.5" stroke="black" d="M 396 60 415 28"/>
<path stroke-width="20.0" stroke="black" d="M 410 60 396 60"/>
<path stroke-width="0.5" stroke="black" d="M 415 28 396 60"/>
<path stroke-width="20.0" stroke="black" d="M 415 28 420 20"/>
<path stroke-width="0.5" stroke="black" d="M 134 190 83 175"/>
<path stroke-width="0.5" stroke="black" d="M 32 257 24 208"/>
<path stroke-width="20.0" stroke="black" d="M 134 190 123 200"/>
<path stroke-width="20.0" stroke="black" d="M 195 165 202 170"/>
<path stroke-width="0.5" stroke="black" d="M 164 223 109 205"/>
<path stroke-width="20.0" stroke="black" d="M 164 223 155 231"/>
<path stroke-width="0.5" stroke="black" d="M 164 223 236 216"/>
<path stroke-width="20.0" stroke="black" d="M 155 231 164 223"/>
<path stroke-width="0.5" stroke="black" d="M 236 216 164 223"/>
<path stroke-width="20.0" stroke="black" d="M 236 216 236 224"/>
<path stroke-width="0.5" stroke="black" d="M 236 216 300 191"/>
<path stroke-width="20.0" stroke="black" d="M 236 224 236 216"/>
<path stroke-width="0.5" stroke="black" d="M 300 191 236 216"/>
<path stroke-width="20.0" stroke="black" d="M 300 191 311 188"/>
<path stroke-width="0.5" stroke="black" d="M 300 191 349 167"/>
<path stroke-width="20.0" stroke="black" d="M 311 188 300 191"/>
<path stroke-width="0.5" stroke="black" d="M 349 167 300 191"/>
<path stroke-width="20.0" stroke="black" d="M 349 167 365 164"/>
<path stroke-width="0.5" stroke="black" d="M 349 167 340 145"/>
<path stroke-width="20.0" stroke="black" d="M 365 164 349 167"/>
<path stroke-width="0.5" stroke="black" d="M 340 145 349 167"/>
<path stroke-width="20.0" stroke="black" d="M 340 145 355 139"/>
<path stroke-width="0.5" stroke="black" d="M 340 145 275 153"/>
<path stroke-width="20.0" stroke="black" d="M 355 139 340 145"/>
<path stroke-width="0.5" stroke="black" d="M 275 153 340 145"/>
<path stroke-width="20.0" stroke="black" d="M 275 153 285 147"/>
<path stroke-width="0.5" stroke="black" d="M 275 153 202 170"/>
<path stroke-width="20.0" stroke="black" d="M 285 147 275 153"/>
<path stroke-width="0.5" stroke="black" d="M 202 170 275 153"/>
<path stroke-width="20.0" stroke="black" d="M 202 170 195 165"/>
<path stroke-width="0.5" stroke="black" d="M 202 170 134 190"/>
<path stroke-width="0.5" stroke="black" d="M 134 190 202 170"/>
<path stroke-width="8.857142857142858" stroke="black" d="M 32 257 35 275"/>
<circle cx="420" cy="20" r="20.0" style="fill:gray;stroke:black;stroke-width:1.0"/>
<circle cx="415" cy="28" r="20.0" style="fill:gray;stroke:black;stroke-width:1.0"/>
<circle cx="410" cy="60" r="20.0" style="fill:gray;stroke:black;stroke-width:1.0"/>
<circle cx="396" cy="60" r="20.0" style="fill:gray;stroke:black;stroke-width:1.0"/>
<circle cx="364" cy="95" r="20.0" style="fill:gray;stroke:black;stroke-width:1.0"/>
<circle cx="352" cy="90" r="20.0" style="fill:gray;stroke:black;stroke-width:1.0"/>
<circle cx="291" cy="106" r="20.0" style="fill:gray;stroke:black;stroke-width:1.0"/>
<circle cx="280" cy="105" r="20.0" style="fill:gray;stroke:black;stroke-width:1.0"/>
<circle cx="197" cy="111" r="20.0" style="fill:gray;stroke:black;stroke-width:1.0"/>
<circle cx="200" cy="119" r="20.0" style="fill:gray;stroke:black;stroke-width:1.0"/>
<circle cx="113" cy="142" r="20.0" style="fill:gray;stroke:black;stroke-width:1.0"/>
<circle cx="128" cy="143" r="20.0" style="fill:gray;stroke:black;stroke-width:1.0"/>
<circle cx="63" cy="180" r="20.0" style="fill:gray;stroke:black;stroke-width:1.0"/>
<circle cx="83" cy="175" r="20.0" style="fill:gray;stroke:black;stroke-width:1.0"/>
<circle cx="123" cy="200" r="20.0" style="fill:gray;stroke:black;stroke-width:1.0"/>
<circle cx="134" cy="190" r="20.0" style="fill:gray;stroke:black;stroke-width:1.0"/>
<circle cx="195" cy="165" r="20.0" style="fill:gray;stroke:black;stroke-width:1.0"/>
<circle cx="202" cy="170" r="20.0" style="fill:gray;stroke:black;stroke-width:1.0"/>
<circle cx="285" cy="147" r="20.0" style="fill:gray;stroke:black;stroke-width:1.0"/>
<circle cx="275" cy="153" r="20.0" style="fill:gray;stroke:black;stroke-width:1.0"/>
<circle cx="355" cy="139" r="20.0" style="fill:gray;stroke:black;stroke-width:1.0"/>
<circle cx="340" cy="145" r="20.0" style="fill:gray;stroke:black;stroke-width:1.0"/>
<circle cx="365" cy="164" r="20.0" style="fill:gray;stroke:black;stroke-width:1.0"/>
<circle cx="349" cy="167" r="20.0" style="fill:gray;stroke:black;stroke-width:1.0"/>
<circle cx="311" cy="188" r="20.0" style="fill:gray;stroke:black;stroke-width:1.0"/>
<circle cx="300" cy="191" r="20.0" style="fill:gray;stroke:black;stroke-width:1.0"/>
<circle cx="236" cy="224" r="20.0" style="fill:gray;stroke:black;stroke-width:1.0"/>
<circle cx="236" cy="216" r="20.0" style="fill:gray;stroke:black;stroke-width:1.0"/>
<circle cx="155" cy="231" r="20.0" style="fill:gray;stroke:black;stroke-width:1.0"/>
<circle cx="164" cy="223" r="20.0" style="fill:gray;stroke:black;stroke-width:1.0"/>
<circle cx="92" cy="207" r="20.0" style="fill:gray;stroke:black;stroke-width:1.0"/>
<circle cx="109" cy="205" r="20.0" style="fill:gray;stroke:black;stroke-width:1.0"/>
<circle cx="105" cy="167" r="20.0" style="fill:gray;stroke:black;stroke-width:1.0"/>
<circle cx="116" cy="175" r="20.0" style="fill:gray;stroke:black;stroke-width:1.0"/>
<circle cx="161" cy="174" r="20.0" style="fill:gray;stroke:black;stroke-width:1.0"/>
<circle cx="170" cy="181" r="20.0" style="fill:gray;stroke:black;stroke-width:1.0"/>
<circle cx="230" cy="194" r="20.0" style="fill:gray;stroke:black;stroke-width:1.0"/>
<circle cx="227" cy="203" r="20.0" style="fill:gray;stroke:black;stroke-width:1.0"/>
<circle cx="279" cy="238" r="20.0" style="fill:gray;stroke:black;stroke-width:1.0"/>
<circle cx="268" cy="241" r="20.0" style="fill:gray;stroke:black;stroke-width:1.0"/>
<circle cx="304" cy="288" r="20.0" style="fill:gray;stroke:black;stroke-width:1.0"/>
<circle cx="294" cy="281" r="20.0" style="fill:gray;stroke:black;stroke-width:1.0"/>
<circle cx="303" cy="320" r="20.0" style="fill:gray;stroke:black;stroke-width:1.0"/>
<circle cx="290" cy="311" r="20.0" style="fill:gray;stroke:black;stroke-width:1.0"/>
<circle cx="232" cy="306" r="20.0" style="fill:gray;stroke:black;stroke-width:1.0"/>
<circle cx="227" cy="294" r="20.0" style="fill:gray;stroke:black;stroke-width:1.0"/>
<circle cx="168" cy="259" r="20.0" style="fill:gray;stroke:black;stroke-width:1.0"/>
<circle cx="170" cy="250" r="20.0" style="fill:gray;stroke:black;stroke-width:1.0"/>
<circle cx="106" cy="191" r="20.0" style="fill:gray;stroke:black;stroke-width:1.0"/>
<circle cx="117" cy="191" r="20.0" style="fill:gray;stroke:black;stroke-width:1.0"/>
<circle cx="71" cy="122" r="20.0" style="fill:gray;stroke:black;stroke-width:1.0"/>
<circle cx="79" cy="132" r="20.0" style="fill:gray;stroke:black;stroke-width:1.0"/>
<circle cx="45" cy="73" r="20.0" style="fill:gray;stroke:black;stroke-width:1.0"/>
<circle cx="50" cy="86" r="20.0" style="fill:gray;stroke:black;stroke-width:1.0"/>
<circle cx="26" cy="88" r="20.0" style="fill:gray;stroke:black;stroke-width:1.0"/>
<circle cx="27" cy="100" r="20.0" style="fill:gray;stroke:black;stroke-width:1.0"/>
<circle cx="20" cy="141" r="20.0" style="fill:gray;stroke:black;stroke-width:1.0"/>
<circle cx="22" cy="150" r="20.0" style="fill:gray;stroke:black;stroke-width:1.0"/>
<circle cx="23" cy="217" r="20.0" style="fill:gray;stroke:black;stroke-width:1.0"/>
<circle cx="24" cy="208" r="20.0" style="fill:gray;stroke:black;stroke-width:1.0"/>
<circle cx="35" cy="275" r="20.0" style="fill:gray;stroke:black;stroke-width:1.0"/>
<circle cx="32" cy="257" r="20.0" style="fill:gray;stroke:black;stroke-width:1.0"/>
</svg>
