<svg width="440" height="340" xmlns="http://www.w3.org/2000/svg">
<path stroke-width="1" stroke="black" d="M 20 20 39 27"/>
<path stroke-width="1" stroke="black" d="M 178 193 246 135"/>
<path stroke-width="1" stroke="black" d="M 178 188 178 193"/>
<path stroke-width="1" stroke="black" d="M 246 135 178 193"/>
<path stroke-width="1" stroke="black" d="M 246 135 257 123"/>
<path stroke-width="1" stroke="black" d="M 246 135 307 97"/>
<path stroke-width="1" stroke="black" d="M 257 123 246 135"/>
<path stroke-width="1" stroke="black" d="M 307 97 246 135"/>
<path stroke-width="1" stroke="black" d="M 307 97 323 87"/>
<path stroke-width="1" stroke="black" d="M 307 97 310 113"/>
<path stroke-width="1" stroke="black" d="M 323 87 307 97"/>
<path stroke-width="1" stroke="black" d="M 310 113 307 97"/>
<path stroke-width="1" stroke="black" d="M 310 113 328 109"/>
<path stroke-width="1" stroke="black" d="M 178 193 178 188"/>
<path stroke-width="1" stroke="black" d="M 310 113 248 133"/>
<path stroke-width="1" stroke="black" d="M 248 133 310 113"/>
<path stroke-width="1" stroke="black" d="M 248 133 256 141"/>
<path stroke-width="1" stroke="black" d="M 248 133 177 142"/>
<path stroke-width="1" stroke="black" d="M 256 141 248 133"/>
<path stroke-width="1" stroke="black" d="M 177 142 248 133"/>
<path stroke-width="1" stroke="black" d="M 177 142 161 146"/>
<path stroke-width="1" stroke="black" d="M 177 142 139 146"/>
<path stroke-width="1" stroke="black" d="M 161 146 177 142"/>
<path stroke-width="1" stroke="black" d="M 139 146 177 142"/>
<path stroke-width="1" stroke="black" d="M 139 146 118 145"/>
<path stroke-width="1" stroke="black" d="M 139 146 207 157"/>
<path stroke-width="1" stroke="black" d="M 118 145 139 146"/>
<path stroke-width="1" stroke="black" d="M 328 109 310 113"/>
<path stroke-width="1" stroke="black" d="M 178 193 115 249"/>
<path stroke-width="1" stroke="black" d="M 101 257 115 249"/>
<path stroke-width="1" stroke="black" d="M 115 249 178 193"/>
<path stroke-width="1" stroke="black" d="M 158 211 180 210"/>
<path stroke-width="1" stroke="black" d="M 229 205 180 210"/>
<path stroke-width="1" stroke="black" d="M 229 205 244 206"/>
<path stroke-width="1" stroke="black" d="M 229 205 240 198"/>
<path stroke-width="1" stroke="black" d="M 244 206 229 205"/>
<path stroke-width="1" stroke="black" d="M 240 198 229 205"/>
<path stroke-width="1" stroke="black" d="M 240 198 253 188"/>
<path stroke-width="1" stroke="black" d="M 240 198 190 234"/>
<path stroke-width="1" stroke="black" d="M 253 188 240 198"/>
<path stroke-width="1" stroke="black" d="M 190 234 240 198"/>
<path stroke-width="1" stroke="black" d="M 190 234 195 227"/>
<path stroke-width="1" stroke="black" d="M 190 234 140 274"/>
<path stroke-width="1" stroke="black" d="M 195 227 190 234"/>
<path stroke-width="1" stroke="black" d="M 140 274 190 234"/>
<path stroke-width="1" stroke="black" d="M 140 274 128 279"/>
<path stroke-width="1" stroke="black" d="M 140 274 105 308"/>
<path stroke-width="1" stroke="black" d="M 128 279 140 274"/>
<path stroke-width="1" stroke="black" d="M 105 308 140 274"/>
<path stroke-width="1" stroke="black" d="M 105 308 99 320"/>
<path stroke-width="1" stroke="black" d="M 105 308 78 296"/>
<path stroke-width="1" stroke="black" d="M 99 320 105 308"/>
<path stroke-width="1" stroke="black" d="M 78 296 105 308"/>
<path stroke-width="1" stroke="black" d="M 78 296 65 307"/>
<path stroke-width="1" stroke="black" d="M 78 296 115 249"/>
<path stroke-width="1" stroke="black" d="M 65 307 78 296"/>
<path stroke-width="1" stroke="black" d="M 115 249 78 296"/>
<path stroke-width="1" stroke="black" d="M 115 249 101 257"/>
<path stroke-width="1" stroke="black" d="M 207 157 139 146"/>
<path stroke-width="1" stroke="black" d="M 207 157 197 149"/>
<path stroke-width="1" stroke="black" d="M 207 157 286 184"/>
<path stroke-width="1" stroke="black" d="M 197 149 207 157"/>
<path stroke-width="1" stroke="black" d="M 181 179 197 186"/>
<path stroke-width="1" stroke="black" d="M 299 188 197 186"/>
<path stroke-width="1" stroke="black" d="M 299 188 316 186"/>
<path stroke-width="1" stroke="black" d="M 299 188 380 196"/>
<path stroke-width="1" stroke="black" d="M 316 186 299 188"/>
<path stroke-width="1" stroke="black" d="M 380 196 299 188"/>
<path stroke-width="1" stroke="black" d="M 380 196 400 201"/>
<path stroke-width="1" stroke="black" d="M 380 196 395 176"/>
<path stroke-width="1" stroke="black" d="M 400 201 380 196"/>
<path stroke-width="1" stroke="black" d="M 395 176 380 196"/>
<path stroke-width="1" stroke="black" d="M 395 176 420 186"/>
<path stroke-width="1" stroke="black" d="M 395 176 318 141"/>
<path stroke-width="1" stroke="black" d="M 420 186 395 176"/>
<path stroke-width="1" stroke="black" d="M 318 141 395 176"/>
<path stroke-width="1" stroke="black" d="M 318 141 333 146"/>
<path stroke-width="1" stroke="black" d="M 318 141 211 95"/>
<path stroke-width="1" stroke="black" d="M 333 146 318 141"/>
<path stroke-width="1" stroke="black" d="M 211 95 318 141"/>
<path stroke-width="1" stroke="black" d="M 211 95 202 91"/>
<path stroke-width="1" stroke="black" d="M 211 95 116 58"/>
<path stroke-width="1" stroke="black" d="M 202 91 211 95"/>
<path stroke-width="1" stroke="black" d="M 116 58 211 95"/>
<path stroke-width="1" stroke="black" d="M 116 58 98 51"/>
<path stroke-width="1" stroke="black" d="M 116 58 39 27"/>
<path stroke-width="1" stroke="black" d="M 98 51 116 58"/>
<path stroke-width="1" stroke="black" d="M 39 27 116 58"/>
<path stroke-width="1" stroke="black" d="M 39 27 20 20"/>
<path stroke-width="1" stroke="black" d="M 197 186 299 188"/>
<path stroke-width="1" stroke="black" d="M 180 210 229 205"/>
<path stroke-width="1" stroke="black" d="M 197 186 181 179"/>
<path stroke-width="1" stroke="black" d="M 91 199 114 200"/>
<path stroke-width="1" stroke="black" d="M 286 184 207 157"/>
<path stroke-width="1" stroke="black" d="M 286 184 295 192"/>
<path stroke-width="1" stroke="black" d="M 286 184 353 207"/>
<path stroke-width="1" stroke="black" d="M 295 192 286 184"/>
<path stroke-width="1" stroke="black" d="M 353 207 286 184"/>
<path stroke-width="1" stroke="black" d="M 353 207 372 210"/>
<path stroke-width="1" stroke="black" d="M 353 207 369 233"/>
<path stroke-width="1" stroke="black" d="M 372 210 353 207"/>
<path stroke-width="1" stroke="black" d="M 369 233 353 207"/>
<path stroke-width="1" stroke="black" d="M 369 233 389 235"/>
<path stroke-width="1" stroke="black" d="M 369 233 294 241"/>
<path stroke-width="1" stroke="black" d="M 389 235 369 233"/>
<path stroke-width="1" stroke="black" d="M 294 241 369 233"/>
<path stroke-width="1" stroke="black" d="M 294 241 308 244"/>
<path stroke-width="1" stroke="black" d="M 294 241 208 243"/>
<path stroke-width="1" stroke="black" d="M 308 244 294 241"/>
<path stroke-width="1" stroke="black" d="M 208 243 294 241"/>
<path stroke-width="1" stroke="black" d="M 208 243 205 252"/>
<path stroke-width="1" stroke="black" d="M 208 243 124 231"/>
<path stroke-width="1" stroke="black" d="M 205 252 208 243"/>
<path stroke-width="1" stroke="black" d="M 124 231 208 243"/>
<path stroke-width="1" stroke="black" d="M 124 231 103 233"/>
<path stroke-width="1" stroke="black" d="M 124 231 114 200"/>
<path stroke-width="1" stroke="black" d="M 103 233 124 231"/>
<path stroke-width="1" stroke="black" d="M 114 200 124 231"/>
<path stroke-width="1" stroke="black" d="M 114 200 91 199"/>
<path stroke-width="1" stroke="black" d="M 114 200 197 186"/>
<path stroke-width="1" stroke="black" d="M 197 186 114 200"/>
<path stroke-width="1" stroke="black" d="M 180 210 158 211"/>
<circle cx="20" cy="20" r="7.0" style="fill:gray;stroke:black;stroke-width:1.0"/>
<circle cx="39" cy="27" r="7.0" style="fill:gray;stroke:black;stroke-width:1.0"/>
<circle cx="98" cy="51" r="7.0" style="fill:gray;stroke:black;stroke-width:1.0"/>
<circle cx="116" cy="58" r="7.0" style="fill:gray;stroke:black;stroke-width:1.0"/>
<circle cx="202" cy="91" r="7.0" style="fill:gray;stroke:black;stroke-width:1.0"/>
<circle cx="211" cy="95" r="7.0" style="fill:gray;stroke:black;stroke-width:1.0"/>
<circle cx="333" cy="146" r="7.0" style="fill:gray;stroke:black;stroke-width:1.0"/>
<circle cx="318" cy="141" r="7.0" style="fill:gray;stroke:black;stroke-width:1.0"/>
<circle cx="420" cy="186" r="7.0" style="fill:gray;stroke:black;stroke-width:1.0"/>
<circle cx="395" cy="176" r="7.0" style="fill:gray;stroke:black;stroke-width:1.0"/>
<circle cx="400" cy="201" r="7.0" style="fill:gray;stroke:black;stroke-width:1.0"/>
<circle cx="380" cy="196" r="7.0" style="fill:gray;stroke:black;stroke-width:1.0"/>
<circle cx="316" cy="186" r="7.0" style="fill:gray;stroke:black;stroke-width:1.0"/>
<circle cx="299" cy="188" r="7.0" style="fill:gray;stroke:black;stroke-width:1.0"/>
<circle cx="181" cy="179" r="7.0" style="fill:gray;stroke:black;stroke-width:1.0"/>
<circle cx="197" cy="186" r="7.0" style="fill:gray;stroke:black;stroke-width:1.0"/>
<circle cx="91" cy="199" r="7.0" style="fill:gray;stroke:black;stroke-width:1.0"/>
<circle cx="114" cy="200" r="7.0" style="fill:gray;stroke:black;stroke-width:1.0"/>
<circle cx="103" cy="233" r="7.0" style="fill:gray;stroke:black;stroke-width:1.0"/>
<circle cx="124" cy="231" r="7.0" style="fill:gray;stroke:black;stroke-width:1.0"/>
<circle cx="205" cy="252" r="7.0" style="fill:gray;stroke:black;stroke-width:1.0"/>
<circle cx="208" cy="243" r="7.0" style="fill:gray;stroke:black;stroke-width:1.0"/>
<circle cx="308" cy="244" r="7.0" style="fill:gray;stroke:black;stroke-width:1.0"/>
<circle cx="294" cy="241" r="7.0" style="fill:gray;stroke:black;stroke-width:1.0"/>
<circle cx="389" cy="235" r="7.0" style="fill:gray;stroke:black;stroke-width:1.0"/>
<circle cx="369" cy="233" r="7.0" style="fill:gray;stroke:black;stroke-width:1.0"/>
<circle cx="372" cy="210" r="7.0" style="fill:gray;stroke:black;stroke-width:1.0"/>
<circle cx="353" cy="207" r="7.0" style="fill:gray;stroke:black;stroke-width:1.0"/>
<circle cx="295" cy="192" r="7.0" style="fill:gray;stroke:black;stroke-width:1.0"/>
<circle cx="286" cy="184" r="7.0" style="fill:gray;stroke:black;stroke-width:1.0"/>
<circle cx="197" cy="149" r="7.0" style="fill:gray;stroke:black;stroke-width:1.0"/>
<circle cx="207" cy="157" r="7.0" style="fill:gray;stroke:black;stroke-width:1.0"/>
<circle cx="118" cy="145" r="7.0" style="fill:gray;stroke:black;stroke-width:1.0"/>
<circle cx="139" cy="146" r="7.0" style="fill:gray;stroke:black;stroke-width:1.0"/>
<circle cx="161" cy="146" r="7.0" style="fill:gray;stroke:black;stroke-width:1.0"/>
<circle cx="177" cy="142" r="7.0" style="fill:gray;stroke:black;stroke-width:1.0"/>
<circle cx="256" cy="141" r="7.0" style="fill:gray;stroke:black;stroke-width:1.0"/>
<circle cx="248" cy="133" r="7.0" style="fill:gray;stroke:black;stroke-width:1.0"/>
<circle cx="328" cy="109" r="7.0" style="fill:gray;stroke:black;stroke-width:1.0"/>
<circle cx="310" cy="113" r="7.0" style="fill:gray;stroke:black;stroke-width:1.0"/>
<circle cx="323" cy="87" r="7.0" style="fill:gray;stroke:black;stroke-width:1.0"/>
<circle cx="307" cy="97" r="7.0" style="fill:gray;stroke:black;stroke-width:1.0"/>
<circle cx="257" cy="123" r="7.0" style="fill:gray;stroke:black;stroke-width:1.0"/>
<circle cx="246" cy="135" r="7.0" style="fill:gray;stroke:black;stroke-width:1.0"/>
<circle cx="178" cy="188" r="7.0" style="fill:gray;stroke:black;stroke-width:1.0"/>
<circle cx="178" cy="193" r="7.0" style="fill:gray;stroke:black;stroke-width:1.0"/>
<circle cx="101" cy="257" r="7.0" style="fill:gray;stroke:black;stroke-width:1.0"/>
<circle cx="115" cy="249" r="7.0" style="fill:gray;stroke:black;stroke-width:1.0"/>
<circle cx="65" cy="307" r="7.0" style="fill:gray;stroke:black;stroke-width:1.0"/>
<circle cx="78" cy="296" r="7.0" style="fill:gray;stroke:black;stroke-width:1.0"/>
<circle cx="99" cy="320" r="7.0" style="fill:gray;stroke:black;stroke-width:1.0"/>
<circle cx="105" cy="308" r="7.0" style="fill:gray;stroke:black;stroke-width:1.0"/>
<circle cx="128" cy="279" r="7.0" style="fill:gray;stroke:black;stroke-width:1.0"/>
<circle cx="140" cy="274" r="7.0" style="fill:gray;stroke:black;stroke-width:1.0"/>
<circle cx="195" cy="227" r="7.0" style="fill:gray;stroke:black;stroke-width:1.0"/>
<circle cx="190" cy="234" r="7.0" style="fill:gray;stroke:black;stroke-width:1.0"/>
<circle cx="253" cy="188" r="7.0" style="fill:gray;stroke:black;stroke-width:1.0"/>
<circle cx="240" cy="198" r="7.0" style="fill:gray;stroke:black;stroke-width:1.0"/>
<circle cx="244" cy="206" r="7.0" style="fill:gray;stroke:black;stroke-width:1.0"/>
<circle cx="229" cy="205" r="7.0" style="fill:gray;stroke:black;stroke-width:1.0"/>
<circle cx="158" cy="211" r="7.0" style="fill:gray;stroke:black;stroke-width:1.0"/>
<circle cx="180" cy="210" r="7.0" style="fill:gray;stroke:black;stroke-width:1.0"/>
</svg>
