<svg width="440" height="340" xmlns="http://www.w3.org/2000/svg">
<path stroke-width="1" stroke="black" d="M 51 251 57 257"/>
<path stroke-width="1" stroke="black" d="M 31 139 37 156"/>
<path stroke-width="1" stroke="black" d="M 30 133 31 139"/>
<path stroke-width="1" stroke="black" d="M 37 156 31 139"/>
<path stroke-width="1" stroke="black" d="M 37 156 45 156"/>
<path stroke-width="1" stroke="black" d="M 37 156 28 173"/>
<path stroke-width="1" stroke="black" d="M 45 156 37 156"/>
<path stroke-width="1" stroke="black" d="M 28 173 37 156"/>
<path stroke-width="1" stroke="black" d="M 28 173 26 179"/>
<path stroke-width="1" stroke="black" d="M 28 173 31 160"/>
<path stroke-width="1" stroke="black" d="M 26 179 28 173"/>
<path stroke-width="1" stroke="black" d="M 31 160 28 173"/>
<path stroke-width="1" stroke="black" d="M 31 160 20 163"/>
<path stroke-width="1" stroke="black" d="M 31 139 30 133"/>
<path stroke-width="1" stroke="black" d="M 31 160 69 144"/>
<path stroke-width="1" stroke="black" d="M 69 144 31 160"/>
<path stroke-width="1" stroke="black" d="M 69 144 61 144"/>
<path stroke-width="1" stroke="black" d="M 69 144 119 129"/>
<path stroke-width="1" stroke="black" d="M 61 144 69 144"/>
<path stroke-width="1" stroke="black" d="M 119 129 69 144"/>
<path stroke-width="1" stroke="black" d="M 119 129 115 134"/>
<path stroke-width="1" stroke="black" d="M 119 129 167 106"/>
<path stroke-width="1" stroke="black" d="M 115 134 119 129"/>
<path stroke-width="1" stroke="black" d="M 167 106 119 129"/>
<path stroke-width="1" stroke="black" d="M 167 106 168 111"/>
<path stroke-width="1" stroke="black" d="M 167 106 214 78"/>
<path stroke-width="1" stroke="black" d="M 168 111 167 106"/>
<path stroke-width="1" stroke="black" d="M 20 163 31 160"/>
<path stroke-width="1" stroke="black" d="M 31 139 34 153"/>
<path stroke-width="1" stroke="black" d="M 21 150 34 153"/>
<path stroke-width="1" stroke="black" d="M 34 153 31 139"/>
<path stroke-width="1" stroke="black" d="M 420 127 409 135"/>
<path stroke-width="1" stroke="black" d="M 379 153 409 135"/>
<path stroke-width="1" stroke="black" d="M 379 153 389 151"/>
<path stroke-width="1" stroke="black" d="M 379 153 333 171"/>
<path stroke-width="1" stroke="black" d="M 389 151 379 153"/>
<path stroke-width="1" stroke="black" d="M 333 171 379 153"/>
<path stroke-width="1" stroke="black" d="M 333 171 341 175"/>
<path stroke-width="1" stroke="black" d="M 333 171 273 182"/>
<path stroke-width="1" stroke="black" d="M 341 175 333 171"/>
<path stroke-width="1" stroke="black" d="M 273 182 333 171"/>
<path stroke-width="1" stroke="black" d="M 273 182 278 187"/>
<path stroke-width="1" stroke="black" d="M 273 182 206 183"/>
<path stroke-width="1" stroke="black" d="M 278 187 273 182"/>
<path stroke-width="1" stroke="black" d="M 206 183 273 182"/>
<path stroke-width="1" stroke="black" d="M 206 183 211 187"/>
<path stroke-width="1" stroke="black" d="M 206 183 137 180"/>
<path stroke-width="1" stroke="black" d="M 211 187 206 183"/>
<path stroke-width="1" stroke="black" d="M 137 180 206 183"/>
<path stroke-width="1" stroke="black" d="M 137 180 129 183"/>
<path stroke-width="1" stroke="black" d="M 137 180 78 170"/>
<path stroke-width="1" stroke="black" d="M 129 183 137 180"/>
<path stroke-width="1" stroke="black" d="M 78 170 137 180"/>
<path stroke-width="1" stroke="black" d="M 78 170 69 172"/>
<path stroke-width="1" stroke="black" d="M 78 170 34 153"/>
<path stroke-width="1" stroke="black" d="M 69 172 78 170"/>
<path stroke-width="1" stroke="black" d="M 34 153 78 170"/>
<path stroke-width="1" stroke="black" d="M 34 153 21 150"/>
<path stroke-width="1" stroke="black" d="M 214 78 167 106"/>
<path stroke-width="1" stroke="black" d="M 214 78 222 79"/>
<path stroke-width="1" stroke="black" d="M 214 78 249 50"/>
<path stroke-width="1" stroke="black" d="M 222 79 214 78"/>
<path stroke-width="1" stroke="black" d="M 208 217 208 212"/>
<path stroke-width="1" stroke="black" d="M 221 246 208 212"/>
<path stroke-width="1" stroke="black" d="M 221 246 229 249"/>
<path stroke-width="1" stroke="black" d="M 221 246 220 276"/>
<path stroke-width="1" stroke="black" d="M 229 249 221 246"/>
<path stroke-width="1" stroke="black" d="M 220 276 221 246"/>
<path stroke-width="1" stroke="black" d="M 220 276 230 278"/>
<path stroke-width="1" stroke="black" d="M 220 276 198 301"/>
<path stroke-width="1" stroke="black" d="M 230 278 220 276"/>
<path stroke-width="1" stroke="black" d="M 198 301 220 276"/>
<path stroke-width="1" stroke="black" d="M 198 301 205 307"/>
<path stroke-width="1" stroke="black" d="M 198 301 157 313"/>
<path stroke-width="1" stroke="black" d="M 205 307 198 301"/>
<path stroke-width="1" stroke="black" d="M 157 313 198 301"/>
<path stroke-width="1" stroke="black" d="M 157 313 158 320"/>
<path stroke-width="1" stroke="black" d="M 157 313 113 301"/>
<path stroke-width="1" stroke="black" d="M 158 320 157 313"/>
<path stroke-width="1" stroke="black" d="M 113 301 157 313"/>
<path stroke-width="1" stroke="black" d="M 113 301 109 306"/>
<path stroke-width="1" stroke="black" d="M 113 301 80 278"/>
<path stroke-width="1" stroke="black" d="M 109 306 113 301"/>
<path stroke-width="1" stroke="black" d="M 80 278 113 301"/>
<path stroke-width="1" stroke="black" d="M 80 278 72 275"/>
<path stroke-width="1" stroke="black" d="M 80 278 57 257"/>
<path stroke-width="1" stroke="black" d="M 72 275 80 278"/>
<path stroke-width="1" stroke="black" d="M 57 257 80 278"/>
<path stroke-width="1" stroke="black" d="M 57 257 51 251"/>
<path stroke-width="1" stroke="black" d="M 208 212 221 246"/>
<path stroke-width="1" stroke="black" d="M 409 135 379 153"/>
<path stroke-width="1" stroke="black" d="M 208 212 208 217"/>
<path stroke-width="1" stroke="black" d="M 188 176 197 174"/>
<path stroke-width="1" stroke="black" d="M 249 50 214 78"/>
<path stroke-width="1" stroke="black" d="M 249 50 259 46"/>
<path stroke-width="1" stroke="black" d="M 249 50 270 26"/>
<path stroke-width="1" stroke="black" d="M 259 46 249 50"/>
<path stroke-width="1" stroke="black" d="M 270 26 249 50"/>
<path stroke-width="1" stroke="black" d="M 270 26 277 20"/>
<path stroke-width="1" stroke="black" d="M 270 26 253 39"/>
<path stroke-width="1" stroke="black" d="M 277 20 270 26"/>
<path stroke-width="1" stroke="black" d="M 253 39 270 26"/>
<path stroke-width="1" stroke="black" d="M 253 39 258 33"/>
<path stroke-width="1" stroke="black" d="M 253 39 231 67"/>
<path stroke-width="1" stroke="black" d="M 258 33 253 39"/>
<path stroke-width="1" stroke="black" d="M 231 67 253 39"/>
<path stroke-width="1" stroke="black" d="M 231 67 232 61"/>
<path stroke-width="1" stroke="black" d="M 231 67 210 100"/>
<path stroke-width="1" stroke="black" d="M 232 61 231 67"/>
<path stroke-width="1" stroke="black" d="M 210 100 231 67"/>
<path stroke-width="1" stroke="black" d="M 210 100 204 97"/>
<path stroke-width="1" stroke="black" d="M 210 100 197 137"/>
<path stroke-width="1" stroke="black" d="M 204 97 210 100"/>
<path stroke-width="1" stroke="black" d="M 197 137 210 100"/>
<path stroke-width="1" stroke="black" d="M 197 137 187 136"/>
<path stroke-width="1" stroke="black" d="M 197 137 197 174"/>
<path stroke-width="1" stroke="black" d="M 187 136 197 137"/>
<path stroke-width="1" stroke="black" d="M 197 174 197 137"/>
<path stroke-width="1" stroke="black" d="M 197 174 188 176"/>
<path stroke-width="1" stroke="black" d="M 197 174 208 212"/>
<path stroke-width="1" stroke="black" d="M 208 212 197 174"/>
<path stroke-width="1" stroke="black" d="M 409 135 420 127"/>
<circle cx="51" cy="251" r="7.0" style="fill:blue;stroke:black;stroke-width:1.0"/>
<circle cx="57" cy="257" r="7.0" style="fill:blue;stroke:black;stroke-width:1.0"/>
<circle cx="72" cy="275" r="7.0" style="fill:green;stroke:black;stroke-width:1.0"/>
<circle cx="80" cy="278" r="7.0" style="fill:green;stroke:black;stroke-width:1.0"/>
<circle cx="109" cy="306" r="7.0" style="fill:orange;stroke:black;stroke-width:1.0"/>
<circle cx="113" cy="301" r="7.0" style="fill:orange;stroke:black;stroke-width:1.0"/>
<circle cx="158" cy="320" r="7.0" style="fill:red;stroke:black;stroke-width:1.0"/>
<circle cx="157" cy="313" r="7.0" style="fill:red;stroke:black;stroke-width:1.0"/>
<circle cx="205" cy="307" r="7.0" style="fill:fuchsia;stroke:black;stroke-width:1.0"/>
<circle cx="198" cy="301" r="7.0" style="fill:fuchsia;stroke:black;stroke-width:1.0"/>
<circle cx="230" cy="278" r="7.0" style="fill:fuchsia;stroke:black;stroke-width:1.0"/>
<circle cx="220" cy="276" r="7.0" style="fill:fuchsia;stroke:black;stroke-width:1.0"/>
<circle cx="229" cy="249" r="7.0" style="fill:purple;stroke:black;stroke-width:1.0"/>
<circle cx="221" cy="246" r="7.0" style="fill:purple;stroke:black;stroke-width:1.0"/>
<circle cx="208" cy="217" r="7.0" style="fill:purple;stroke:black;stroke-width:1.0"/>
<circle cx="208" cy="212" r="7.0" style="fill:purple;stroke:black;stroke-width:1.0"/>
<circle cx="188" cy="176" r="7.0" style="fill:purple;stroke:black;stroke-width:1.0"/>
<circle cx="197" cy="174" r="7.0" style="fill:purple;stroke:black;stroke-width:1.0"/>
<circle cx="187" cy="136" r="7.0" style="fill:purple;stroke:black;stroke-width:1.0"/>
<circle cx="197" cy="137" r="7.0" style="fill:aqua;stroke:black;stroke-width:1.0"/>
<circle cx="204" cy="97" r="7.0" style="fill:aqua;stroke:black;stroke-width:1.0"/>
<circle cx="210" cy="100" r="7.0" style="fill:purple;stroke:black;stroke-width:1.0"/>
<circle cx="232" cy="61" r="7.0" style="fill:purple;stroke:black;stroke-width:1.0"/>
<circle cx="231" cy="67" r="7.0" style="fill:aqua;stroke:black;stroke-width:1.0"/>
<circle cx="258" cy="33" r="7.0" style="fill:green;stroke:black;stroke-width:1.0"/>
<circle cx="253" cy="39" r="7.0" style="fill:green;stroke:black;stroke-width:1.0"/>
<circle cx="277" cy="20" r="7.0" style="fill:green;stroke:black;stroke-width:1.0"/>
<circle cx="270" cy="26" r="7.0" style="fill:green;stroke:black;stroke-width:1.0"/>
<circle cx="259" cy="46" r="7.0" style="fill:green;stroke:black;stroke-width:1.0"/>
<circle cx="249" cy="50" r="7.0" style="fill:green;stroke:black;stroke-width:1.0"/>
<circle cx="222" cy="79" r="7.0" style="fill:blue;stroke:black;stroke-width:1.0"/>
<circle cx="214" cy="78" r="7.0" style="fill:blue;stroke:black;stroke-width:1.0"/>
<circle cx="168" cy="111" r="7.0" style="fill:blue;stroke:black;stroke-width:1.0"/>
<circle cx="167" cy="106" r="7.0" style="fill:blue;stroke:black;stroke-width:1.0"/>
<circle cx="115" cy="134" r="7.0" style="fill:blue;stroke:black;stroke-width:1.0"/>
<circle cx="119" cy="129" r="7.0" style="fill:blue;stroke:black;stroke-width:1.0"/>
<circle cx="61" cy="144" r="7.0" style="fill:orange;stroke:black;stroke-width:1.0"/>
<circle cx="69" cy="144" r="7.0" style="fill:orange;stroke:black;stroke-width:1.0"/>
<circle cx="20" cy="163" r="7.0" style="fill:orange;stroke:black;stroke-width:1.0"/>
<circle cx="31" cy="160" r="7.0" style="fill:orange;stroke:black;stroke-width:1.0"/>
<circle cx="26" cy="179" r="7.0" style="fill:orange;stroke:black;stroke-width:1.0"/>
<circle cx="28" cy="173" r="7.0" style="fill:orange;stroke:black;stroke-width:1.0"/>
<circle cx="45" cy="156" r="7.0" style="fill:olive;stroke:black;stroke-width:1.0"/>
<circle cx="37" cy="156" r="7.0" style="fill:olive;stroke:black;stroke-width:1.0"/>
<circle cx="30" cy="133" r="7.0" style="fill:olive;stroke:black;stroke-width:1.0"/>
<circle cx="31" cy="139" r="7.0" style="fill:olive;stroke:black;stroke-width:1.0"/>
<circle cx="21" cy="150" r="7.0" style="fill:olive;stroke:black;stroke-width:1.0"/>
<circle cx="34" cy="153" r="7.0" style="fill:olive;stroke:black;stroke-width:1.0"/>
<circle cx="69" cy="172" r="7.0" style="fill:olive;stroke:black;stroke-width:1.0"/>
<circle cx="78" cy="170" r="7.0" style="fill:olive;stroke:black;stroke-width:1.0"/>
<circle cx="129" cy="183" r="7.0" style="fill:red;stroke:black;stroke-width:1.0"/>
<circle cx="137" cy="180" r="7.0" style="fill:red;stroke:black;stroke-width:1.0"/>
<circle cx="211" cy="187" r="7.0" style="fill:red;stroke:black;stroke-width:1.0"/>
<circle cx="206" cy="183" r="7.0" style="fill:red;stroke:black;stroke-width:1.0"/>
<circle cx="278" cy="187" r="7.0" style="fill:brown;stroke:black;stroke-width:1.0"/>
<circle cx="273" cy="182" r="7.0" style="fill:brown;stroke:black;stroke-width:1.0"/>
<circle cx="341" cy="175" r="7.0" style="fill:brown;stroke:black;stroke-width:1.0"/>
<circle cx="333" cy="171" r="7.0" style="fill:brown;stroke:black;stroke-width:1.0"/>
<circle cx="389" cy="151" r="7.0" style="fill:yellow;stroke:black;stroke-width:1.0"/>
<circle cx="379" cy="153" r="7.0" style="fill:yellow;stroke:black;stroke-width:1.0"/>
<circle cx="420" cy="127" r="7.0" style="fill:yellow;stroke:black;stroke-width:1.0"/>
<circle cx="409" cy="135" r="7.0" style="fill:yellow;stroke:black;stroke-width:1.0"/>
</svg>
