<svg width="440" height="340" xmlns="http://www.w3.org/2000/svg">
<path stroke-width="20.0" stroke="black" d="M 294 224 303 218"/>
<path stroke-width="0.5" stroke="black" d="M 117 254 154 217"/>
<path stroke-width="20.0" stroke="black" d="M 110 260 117 254"/>
<path stroke-width="0.5" stroke="black" d="M 154 217 117 254"/>
<path stroke-width="20.0" stroke="black" d="M 154 217 161 220"/>
<path stroke-width="0.5" stroke="black" d="M 154 217 191 179"/>
<path stroke-width="20.0" stroke="black" d="M 161 220 154 217"/>
<path stroke-width="0.5" stroke="black" d="M 191 179 154 217"/>
<path stroke-width="20.0" stroke="black" d="M 191 179 197 173"/>
<path stroke-width="0.5" stroke="black" d="M 191 179 222 148"/>
<path stroke-width="20.0" stroke="black" d="M 197 173 191 179"/>
<path stroke-width="0.5" stroke="black" d="M 222 148 191 179"/>
<path stroke-width="20.0" stroke="black" d="M 222 148 229 139"/>
<path stroke-width="20.0" stroke="black" d="M 117 254 110 260"/>
<path stroke-width="0.5" stroke="black" d="M 222 148 229 166"/>
<path stroke-width="0.5" stroke="black" d="M 229 166 222 148"/>
<path stroke-width="20.0" stroke="black" d="M 229 166 236 158"/>
<path stroke-width="0.5" stroke="black" d="M 229 166 208 200"/>
<path stroke-width="20.0" stroke="black" d="M 236 158 229 166"/>
<path stroke-width="0.5" stroke="black" d="M 208 200 229 166"/>
<path stroke-width="20.0" stroke="black" d="M 208 200 208 194"/>
<path stroke-width="0.5" stroke="black" d="M 208 200 189 241"/>
<path stroke-width="20.0" stroke="black" d="M 208 194 208 200"/>
<path stroke-width="0.5" stroke="black" d="M 189 241 208 200"/>
<path stroke-width="20.0" stroke="black" d="M 189 241 180 242"/>
<path stroke-width="0.5" stroke="black" d="M 189 241 174 281"/>
<path stroke-width="20.0" stroke="black" d="M 180 242 189 241"/>
<path stroke-width="20.0" stroke="black" d="M 229 139 222 148"/>
<path stroke-width="0.5" stroke="black" d="M 117 254 88 285"/>
<path stroke-width="20.0" stroke="black" d="M 82 294 88 285"/>
<path stroke-width="0.5" stroke="black" d="M 88 285 117 254"/>
<path stroke-width="8.857142857142858" stroke="black" d="M 212 20 217 31"/>
<path stroke-width="0.5" stroke="black" d="M 226 64 217 31"/>
<path stroke-width="20.0" stroke="black" d="M 226 64 231 56"/>
<path stroke-width="0.5" stroke="black" d="M 226 64 223 106"/>
<path stroke-width="20.0" stroke="black" d="M 231 56 226 64"/>
<path stroke-width="0.5" stroke="black" d="M 223 106 226 64"/>
<path stroke-width="20.0" stroke="black" d="M 223 106 234 103"/>
<path stroke-width="0.5" stroke="black" d="M 223 106 196 151"/>
<path stroke-width="20.0" stroke="black" d="M 234 103 223 106"/>
<path stroke-width="0.5" stroke="black" d="M 196 151 223 106"/>
<path stroke-width="20.0" stroke="black" d="M 196 151 206 154"/>
<path stroke-width="0.5" stroke="black" d="M 196 151 157 193"/>
<path stroke-width="20.0" stroke="black" d="M 206 154 196 151"/>
<path stroke-width="0.5" stroke="black" d="M 157 193 196 151"/>
<path stroke-width="20.0" stroke="black" d="M 157 193 149 193"/>
<path stroke-width="0.5" stroke="black" d="M 157 193 116 233"/>
<path stroke-width="20.0" stroke="black" d="M 149 193 157 193"/>
<path stroke-width="0.5" stroke="black" d="M 116 233 157 193"/>
<path stroke-width="20.0" stroke="black" d="M 116 233 107 237"/>
<path stroke-width="0.5" stroke="black" d="M 116 233 88 268"/>
<path stroke-width="20.0" stroke="black" d="M 107 237 116 233"/>
<path stroke-width="0.5" stroke="black" d="M 88 268 116 233"/>
<path stroke-width="20.0" stroke="black" d="M 88 268 80 276"/>
<path stroke-width="0.5" stroke="black" d="M 88 268 88 285"/>
<path stroke-width="20.0" stroke="black" d="M 80 276 88 268"/>
<path stroke-width="0.5" stroke="black" d="M 88 285 88 268"/>
<path stroke-width="20.0" stroke="black" d="M 88 285 82 294"/>
<path stroke-width="0.5" stroke="black" d="M 174 281 189 241"/>
<path stroke-width="20.0" stroke="black" d="M 174 281 172 288"/>
<path stroke-width="0.5" stroke="black" d="M 174 281 159 310"/>
<path stroke-width="20.0" stroke="black" d="M 172 288 174 281"/>
<path stroke-width="20.0" stroke="black" d="M 186 131 194 134"/>
<path stroke-width="0.5" stroke="black" d="M 280 139 194 134"/>
<path stroke-width="20.0" stroke="black" d="M 280 139 291 143"/>
<path stroke-width="0.5" stroke="black" d="M 280 139 354 140"/>
<path stroke-width="20.0" stroke="black" d="M 291 143 280 139"/>
<path stroke-width="0.5" stroke="black" d="M 354 140 280 139"/>
<path stroke-width="20.0" stroke="black" d="M 354 140 368 143"/>
<path stroke-width="0.5" stroke="black" d="M 354 140 405 130"/>
<path stroke-width="20.0" stroke="black" d="M 368 143 354 140"/>
<path stroke-width="0.5" stroke="black" d="M 405 130 354 140"/>
<path stroke-width="20.0" stroke="black" d="M 405 130 420 127"/>
<path stroke-width="0.5" stroke="black" d="M 405 130 386 136"/>
<path stroke-width="20.0" stroke="black" d="M 420 127 405 130"/>
<path stroke-width="0.5" stroke="black" d="M 386 136 405 130"/>
<path stroke-width="20.0" stroke="black" d="M 386 136 390 127"/>
<path stroke-width="0.5" stroke="black" d="M 386 136 362 165"/>
<path stroke-width="20.0" stroke="black" d="M 390 127 386 136"/>
<path stroke-width="0.5" stroke="black" d="M 362 165 386 136"/>
<path stroke-width="20.0" stroke="black" d="M 362 165 365 161"/>
<path stroke-width="0.5" stroke="black" d="M 362 165 334 196"/>
<path stroke-width="20.0" stroke="black" d="M 365 161 362 165"/>
<path stroke-width="0.5" stroke="black" d="M 334 196 362 165"/>
<path stroke-width="20.0" stroke="black" d="M 334 196 333 202"/>
<path stroke-width="0.5" stroke="black" d="M 334 196 303 218"/>
<path stroke-width="20.0" stroke="black" d="M 333 202 334 196"/>
<path stroke-width="0.5" stroke="black" d="M 303 218 334 196"/>
<path stroke-width="20.0" stroke="black" d="M 303 218 294 224"/>
<path stroke-width="0.5" stroke="black" d="M 194 134 280 139"/>
<path stroke-width="0.5" stroke="black" d="M 217 31 226 64"/>
<path stroke-width="20.0" stroke="black" d="M 194 134 186 131"/>
<path stroke-width="20.0" stroke="black" d="M 104 128 114 135"/>
<path stroke-width="0.5" stroke="black" d="M 159 310 174 281"/>
<path stroke-width="20.0" stroke="black" d="M 159 310 160 320"/>
<path stroke-width="0.5" stroke="black" d="M 159 310 134 292"/>
<path stroke-width="20.0" stroke="black" d="M 160 320 159 310"/>
<path stroke-width="0.5" stroke="black" d="M 134 292 159 310"/>
<path stroke-width="20.0" stroke="black" d="M 134 292 142 299"/>
<path stroke-width="0.5" stroke="black" d="M 134 292 97 262"/>
<path stroke-width="20.0" stroke="black" d="M 142 299 134 292"/>
<path stroke-width="0.5" stroke="black" d="M 97 262 134 292"/>
<path stroke-width="20.0" stroke="black" d="M 97 262 109 264"/>
<path stroke-width="0.5" stroke="black" d="M 97 262 54 231"/>
<path stroke-width="20.0" stroke="black" d="M 109 264 97 262"/>
<path stroke-width="0.5" stroke="black" d="M 54 231 97 262"/>
<path stroke-width="20.0" stroke="black" d="M 54 231 44 235"/>
<path stroke-width="0.5" stroke="black" d="M 54 231 34 193"/>
<path stroke-width="20.0" stroke="black" d="M 44 235 54 231"/>
<path stroke-width="0.5" stroke="black" d="M 34 193 54 231"/>
<path stroke-width="20.0" stroke="black" d="M 34 193 20 193"/>
<path stroke-width="0.5" stroke="black" d="M 34 193 52 156"/>
<path stroke-width="20.0" stroke="black" d="M 20 193 34 193"/>
<path stroke-width="0.5" stroke="black" d="M 52 156 34 193"/>
<path stroke-width="20.0" stroke="black" d="M 52 156 39 151"/>
<path stroke-width="0.5" stroke="black" d="M 52 156 114 135"/>
<path stroke-width="20.0" stroke="black" d="M 39 151 52 156"/>
<path stroke-width="0.5" stroke="black" d="M 114 135 52 156"/>
<path stroke-width="20.0" stroke="black" d="M 114 135 104 128"/>
<path stroke-width="0.5" stroke="black" d="M 114 135 194 134"/>
<path stroke-width="0.5" stroke="black" d="M 194 134 114 135"/>
<path stroke-width="8.857142857142858" stroke="black" d="M 217 31 212 20"/>
<circle cx="294" cy="224" r="7.0" style="fill:green;stroke:black;stroke-width:1.0"/>
<circle cx="303" cy="218" r="7.0" style="fill:green;stroke:black;stroke-width:1.0"/>
<circle cx="333" cy="202" r="7.0" style="fill:green;stroke:black;stroke-width:1.0"/>
<circle cx="334" cy="196" r="7.0" style="fill:aqua;stroke:black;stroke-width:1.0"/>
<circle cx="365" cy="161" r="7.0" style="fill:aqua;stroke:black;stroke-width:1.0"/>
<circle cx="362" cy="165" r="7.0" style="fill:aqua;stroke:black;stroke-width:1.0"/>
<circle cx="390" cy="127" r="7.0" style="fill:aqua;stroke:black;stroke-width:1.0"/>
<circle cx="386" cy="136" r="7.0" style="fill:aqua;stroke:black;stroke-width:1.0"/>
<circle cx="420" cy="127" r="7.0" style="fill:aqua;stroke:black;stroke-width:1.0"/>
<circle cx="405" cy="130" r="7.0" style="fill:aqua;stroke:black;stroke-width:1.0"/>
<circle cx="368" cy="143" r="7.0" style="fill:purple;stroke:black;stroke-width:1.0"/>
<circle cx="354" cy="140" r="7.0" style="fill:purple;stroke:black;stroke-width:1.0"/>
<circle cx="291" cy="143" r="7.0" style="fill:purple;stroke:black;stroke-width:1.0"/>
<circle cx="280" cy="139" r="7.0" style="fill:purple;stroke:black;stroke-width:1.0"/>
<circle cx="186" cy="131" r="7.0" style="fill:green;stroke:black;stroke-width:1.0"/>
<circle cx="194" cy="134" r="7.0" style="fill:purple;stroke:black;stroke-width:1.0"/>
<circle cx="104" cy="128" r="7.0" style="fill:green;stroke:black;stroke-width:1.0"/>
<circle cx="114" cy="135" r="7.0" style="fill:green;stroke:black;stroke-width:1.0"/>
<circle cx="39" cy="151" r="7.0" style="fill:orange;stroke:black;stroke-width:1.0"/>
<circle cx="52" cy="156" r="7.0" style="fill:orange;stroke:black;stroke-width:1.0"/>
<circle cx="20" cy="193" r="7.0" style="fill:orange;stroke:black;stroke-width:1.0"/>
<circle cx="34" cy="193" r="7.0" style="fill:orange;stroke:black;stroke-width:1.0"/>
<circle cx="44" cy="235" r="7.0" style="fill:blue;stroke:black;stroke-width:1.0"/>
<circle cx="54" cy="231" r="7.0" style="fill:blue;stroke:black;stroke-width:1.0"/>
<circle cx="109" cy="264" r="7.0" style="fill:blue;stroke:black;stroke-width:1.0"/>
<circle cx="97" cy="262" r="7.0" style="fill:blue;stroke:black;stroke-width:1.0"/>
<circle cx="142" cy="299" r="7.0" style="fill:olive;stroke:black;stroke-width:1.0"/>
<circle cx="134" cy="292" r="7.0" style="fill:olive;stroke:black;stroke-width:1.0"/>
<circle cx="160" cy="320" r="7.0" style="fill:olive;stroke:black;stroke-width:1.0"/>
<circle cx="159" cy="310" r="7.0" style="fill:olive;stroke:black;stroke-width:1.0"/>
<circle cx="172" cy="288" r="7.0" style="fill:purple;stroke:black;stroke-width:1.0"/>
<circle cx="174" cy="281" r="7.0" style="fill:purple;stroke:black;stroke-width:1.0"/>
<circle cx="180" cy="242" r="7.0" style="fill:red;stroke:black;stroke-width:1.0"/>
<circle cx="189" cy="241" r="7.0" style="fill:red;stroke:black;stroke-width:1.0"/>
<circle cx="208" cy="194" r="7.0" style="fill:red;stroke:black;stroke-width:1.0"/>
<circle cx="208" cy="200" r="7.0" style="fill:red;stroke:black;stroke-width:1.0"/>
<circle cx="236" cy="158" r="7.0" style="fill:red;stroke:black;stroke-width:1.0"/>
<circle cx="229" cy="166" r="7.0" style="fill:red;stroke:black;stroke-width:1.0"/>
<circle cx="229" cy="139" r="7.0" style="fill:fuchsia;stroke:black;stroke-width:1.0"/>
<circle cx="222" cy="148" r="7.0" style="fill:fuchsia;stroke:black;stroke-width:1.0"/>
<circle cx="197" cy="173" r="7.0" style="fill:fuchsia;stroke:black;stroke-width:1.0"/>
<circle cx="191" cy="179" r="7.0" style="fill:fuchsia;stroke:black;stroke-width:1.0"/>
<circle cx="161" cy="220" r="7.0" style="fill:fuchsia;stroke:black;stroke-width:1.0"/>
<circle cx="154" cy="217" r="7.0" style="fill:fuchsia;stroke:black;stroke-width:1.0"/>
<circle cx="110" cy="260" r="7.0" style="fill:red;stroke:black;stroke-width:1.0"/>
<circle cx="117" cy="254" r="7.0" style="fill:fuchsia;stroke:black;stroke-width:1.0"/>
<circle cx="82" cy="294" r="7.0" style="fill:red;stroke:black;stroke-width:1.0"/>
<circle cx="88" cy="285" r="7.0" style="fill:red;stroke:black;stroke-width:1.0"/>
<circle cx="80" cy="276" r="7.0" style="fill:red;stroke:black;stroke-width:1.0"/>
<circle cx="88" cy="268" r="7.0" style="fill:blue;stroke:black;stroke-width:1.0"/>
<circle cx="107" cy="237" r="7.0" style="fill:blue;stroke:black;stroke-width:1.0"/>
<circle cx="116" cy="233" r="7.0" style="fill:blue;stroke:black;stroke-width:1.0"/>
<circle cx="149" cy="193" r="7.0" style="fill:brown;stroke:black;stroke-width:1.0"/>
<circle cx="157" cy="193" r="7.0" style="fill:brown;stroke:black;stroke-width:1.0"/>
<circle cx="206" cy="154" r="7.0" style="fill:orange;stroke:black;stroke-width:1.0"/>
<circle cx="196" cy="151" r="7.0" style="fill:orange;stroke:black;stroke-width:1.0"/>
<circle cx="234" cy="103" r="7.0" style="fill:orange;stroke:black;stroke-width:1.0"/>
<circle cx="223" cy="106" r="7.0" style="fill:orange;stroke:black;stroke-width:1.0"/>
<circle cx="231" cy="56" r="7.0" style="fill:yellow;stroke:black;stroke-width:1.0"/>
<circle cx="226" cy="64" r="7.0" style="fill:yellow;stroke:black;stroke-width:1.0"/>
<circle cx="212" cy="20" r="7.0" style="fill:yellow;stroke:black;stroke-width:1.0"/>
<circle cx="217" cy="31" r="7.0" style="fill:yellow;stroke:black;stroke-width:1.0"/>
</svg>
