<svg width="440" height="340" xmlns="http://www.w3.org/2000/svg">
<path stroke-width="1" stroke="black" d="M 66 164 113 178"/>
<path stroke-width="1" stroke="black" d="M 142 133 314 161"/>
<path stroke-width="1" stroke="black" d="M 142 133 90 227"/>
<path stroke-width="1" stroke="black" d="M 142 133 176 96"/>
<path stroke-width="1" stroke="black" d="M 142 133 115 80"/>
<path stroke-width="1" stroke="black" d="M 142 133 202 192"/>
<path stroke-width="1" stroke="black" d="M 142 133 227 261"/>
<path stroke-width="1" stroke="black" d="M 142 133 167 240"/>
<path stroke-width="1" stroke="black" d="M 142 133 253 196"/>
<path stroke-width="1" stroke="black" d="M 142 133 239 114"/>
<path stroke-width="1" stroke="black" d="M 142 133 113 178"/>
<path stroke-width="1" stroke="black" d="M 172 20 176 96"/>
<path stroke-width="1" stroke="black" d="M 115 80 142 133"/>
<path stroke-width="1" stroke="black" d="M 202 192 90 227"/>
<path stroke-width="1" stroke="black" d="M 202 192 176 96"/>
<path stroke-width="1" stroke="black" d="M 202 192 142 133"/>
<path stroke-width="1" stroke="black" d="M 202 192 176 190"/>
<path stroke-width="1" stroke="black" d="M 202 192 227 261"/>
<path stroke-width="1" stroke="black" d="M 202 192 167 240"/>
<path stroke-width="1" stroke="black" d="M 202 192 253 196"/>
<path stroke-width="1" stroke="black" d="M 202 192 239 114"/>
<path stroke-width="1" stroke="black" d="M 202 192 113 178"/>
<path stroke-width="1" stroke="black" d="M 176 190 202 192"/>
<path stroke-width="1" stroke="black" d="M 202 192 314 161"/>
<path stroke-width="1" stroke="black" d="M 176 96 113 178"/>
<path stroke-width="1" stroke="black" d="M 176 96 239 114"/>
<path stroke-width="1" stroke="black" d="M 176 96 253 196"/>
<path stroke-width="1" stroke="black" d="M 314 161 202 192"/>
<path stroke-width="1" stroke="black" d="M 314 161 227 261"/>
<path stroke-width="1" stroke="black" d="M 314 161 167 240"/>
<path stroke-width="1" stroke="black" d="M 314 161 253 196"/>
<path stroke-width="1" stroke="black" d="M 314 161 239 114"/>
<path stroke-width="1" stroke="black" d="M 314 161 113 178"/>
<path stroke-width="1" stroke="black" d="M 420 113 314 161"/>
<path stroke-width="1" stroke="black" d="M 90 227 20 265"/>
<path stroke-width="1" stroke="black" d="M 90 227 176 96"/>
<path stroke-width="1" stroke="black" d="M 90 227 142 133"/>
<path stroke-width="1" stroke="black" d="M 90 227 202 192"/>
<path stroke-width="1" stroke="black" d="M 90 227 227 261"/>
<path stroke-width="1" stroke="black" d="M 90 227 167 240"/>
<path stroke-width="1" stroke="black" d="M 90 227 253 196"/>
<path stroke-width="1" stroke="black" d="M 90 227 239 114"/>
<path stroke-width="1" stroke="black" d="M 90 227 113 178"/>
<path stroke-width="1" stroke="black" d="M 20 265 90 227"/>
<path stroke-width="1" stroke="black" d="M 176 96 90 227"/>
<path stroke-width="1" stroke="black" d="M 176 96 172 20"/>
<path stroke-width="1" stroke="black" d="M 176 96 142 133"/>
<path stroke-width="1" stroke="black" d="M 176 96 202 192"/>
<path stroke-width="1" stroke="black" d="M 176 96 227 261"/>
<path stroke-width="1" stroke="black" d="M 176 96 167 240"/>
<path stroke-width="1" stroke="black" d="M 227 261 314 161"/>
<path stroke-width="1" stroke="black" d="M 227 261 90 227"/>
<path stroke-width="1" stroke="black" d="M 227 261 176 96"/>
<path stroke-width="1" stroke="black" d="M 227 261 142 133"/>
<path stroke-width="1" stroke="black" d="M 253 196 113 178"/>
<path stroke-width="1" stroke="black" d="M 288 234 253 196"/>
<path stroke-width="1" stroke="black" d="M 239 114 314 161"/>
<path stroke-width="1" stroke="black" d="M 239 114 90 227"/>
<path stroke-width="1" stroke="black" d="M 239 114 176 96"/>
<path stroke-width="1" stroke="black" d="M 239 114 142 133"/>
<path stroke-width="1" stroke="black" d="M 239 114 202 192"/>
<path stroke-width="1" stroke="black" d="M 239 114 227 261"/>
<path stroke-width="1" stroke="black" d="M 239 114 167 240"/>
<path stroke-width="1" stroke="black" d="M 239 114 253 196"/>
<path stroke-width="1" stroke="black" d="M 239 114 266 98"/>
<path stroke-width="1" stroke="black" d="M 239 114 113 178"/>
<path stroke-width="1" stroke="black" d="M 266 98 239 114"/>
<path stroke-width="1" stroke="black" d="M 113 178 314 161"/>
<path stroke-width="1" stroke="black" d="M 113 178 90 227"/>
<path stroke-width="1" stroke="black" d="M 113 178 176 96"/>
<path stroke-width="1" stroke="black" d="M 113 178 142 133"/>
<path stroke-width="1" stroke="black" d="M 113 178 202 192"/>
<path stroke-width="1" stroke="black" d="M 113 178 227 261"/>
<path stroke-width="1" stroke="black" d="M 113 178 167 240"/>
<path stroke-width="1" stroke="black" d="M 113 178 253 196"/>
<path stroke-width="1" stroke="black" d="M 113 178 239 114"/>
<path stroke-width="1" stroke="black" d="M 113 178 66 164"/>
<path stroke-width="1" stroke="black" d="M 253 196 239 114"/>
<path stroke-width="1" stroke="black" d="M 314 161 142 133"/>
<path stroke-width="1" stroke="black" d="M 253 196 288 234"/>
<path stroke-width="1" stroke="black" d="M 253 196 227 261"/>
<path stroke-width="1" stroke="black" d="M 227 261 202 192"/>
<path stroke-width="1" stroke="black" d="M 227 261 245 320"/>
<path stroke-width="1" stroke="black" d="M 227 261 167 240"/>
<path stroke-width="1" stroke="black" d="M 227 261 253 196"/>
<path stroke-width="1" stroke="black" d="M 227 261 239 114"/>
<path stroke-width="1" stroke="black" d="M 227 261 113 178"/>
<path stroke-width="1" stroke="black" d="M 245 320 227 261"/>
<path stroke-width="1" stroke="black" d="M 167 240 314 161"/>
<path stroke-width="1" stroke="black" d="M 167 240 90 227"/>
<path stroke-width="1" stroke="black" d="M 167 240 176 96"/>
<path stroke-width="1" stroke="black" d="M 167 240 142 133"/>
<path stroke-width="1" stroke="black" d="M 167 240 202 192"/>
<path stroke-width="1" stroke="black" d="M 167 240 227 261"/>
<path stroke-width="1" stroke="black" d="M 167 240 162 311"/>
<path stroke-width="1" stroke="black" d="M 167 240 253 196"/>
<path stroke-width="1" stroke="black" d="M 167 240 239 114"/>
<path stroke-width="1" stroke="black" d="M 167 240 113 178"/>
<path stroke-width="1" stroke="black" d="M 162 311 167 240"/>
<path stroke-width="1" stroke="black" d="M 253 196 314 161"/>
<path stroke-width="1" stroke="black" d="M 253 196 90 227"/>
<path stroke-width="1" stroke="black" d="M 253 196 176 96"/>
<path stroke-width="1" stroke="black" d="M 253 196 142 133"/>
<path stroke-width="1" stroke="black" d="M 253 196 202 192"/>
<path stroke-width="1" stroke="black" d="M 253 196 167 240"/>
<path stroke-width="1" stroke="black" d="M 314 161 420 113"/>
<circle cx="66" cy="164" r="7.0" style="fill:gray;stroke:black;stroke-width:1.0"/>
<circle cx="113" cy="178" r="7.0" style="fill:gray;stroke:black;stroke-width:1.0"/>
<circle cx="266" cy="98" r="7.0" style="fill:gray;stroke:black;stroke-width:1.0"/>
<circle cx="239" cy="114" r="7.0" style="fill:gray;stroke:black;stroke-width:1.0"/>
<circle cx="288" cy="234" r="7.0" style="fill:gray;stroke:black;stroke-width:1.0"/>
<circle cx="253" cy="196" r="7.0" style="fill:gray;stroke:black;stroke-width:1.0"/>
<circle cx="162" cy="311" r="7.0" style="fill:gray;stroke:black;stroke-width:1.0"/>
<circle cx="167" cy="240" r="7.0" style="fill:gray;stroke:black;stroke-width:1.0"/>
<circle cx="245" cy="320" r="7.0" style="fill:gray;stroke:black;stroke-width:1.0"/>
<circle cx="227" cy="261" r="7.0" style="fill:gray;stroke:black;stroke-width:1.0"/>
<circle cx="176" cy="190" r="7.0" style="fill:gray;stroke:black;stroke-width:1.0"/>
<circle cx="202" cy="192" r="7.0" style="fill:gray;stroke:black;stroke-width:1.0"/>
<circle cx="115" cy="80" r="7.0" style="fill:gray;stroke:black;stroke-width:1.0"/>
<circle cx="142" cy="133" r="7.0" style="fill:gray;stroke:black;stroke-width:1.0"/>
<circle cx="172" cy="20" r="7.0" style="fill:gray;stroke:black;stroke-width:1.0"/>
<circle cx="176" cy="96" r="7.0" style="fill:gray;stroke:black;stroke-width:1.0"/>
<circle cx="20" cy="265" r="7.0" style="fill:gray;stroke:black;stroke-width:1.0"/>
<circle cx="90" cy="227" r="7.0" style="fill:gray;stroke:black;stroke-width:1.0"/>
<circle cx="420" cy="113" r="7.0" style="fill:gray;stroke:black;stroke-width:1.0"/>
<circle cx="314" cy="161" r="7.0" style="fill:gray;stroke:black;stroke-width:1.0"/>
</svg>
