<svg width="440" height="340" xmlns="http://www.w3.org/2000/svg">
<path stroke-width="1" stroke="black" d="M 292 201 253 204"/>
<path stroke-width="1" stroke="black" d="M 171 272 106 112"/>
<path stroke-width="1" stroke="black" d="M 171 272 316 220"/>
<path stroke-width="1" stroke="black" d="M 171 272 249 258"/>
<path stroke-width="1" stroke="black" d="M 171 272 170 320"/>
<path stroke-width="1" stroke="black" d="M 171 272 177 159"/>
<path stroke-width="1" stroke="black" d="M 171 272 93 178"/>
<path stroke-width="1" stroke="black" d="M 171 272 145 225"/>
<path stroke-width="1" stroke="black" d="M 171 272 108 239"/>
<path stroke-width="1" stroke="black" d="M 171 272 205 187"/>
<path stroke-width="1" stroke="black" d="M 171 272 253 204"/>
<path stroke-width="1" stroke="black" d="M 312 300 249 258"/>
<path stroke-width="1" stroke="black" d="M 170 320 171 272"/>
<path stroke-width="1" stroke="black" d="M 177 159 316 220"/>
<path stroke-width="1" stroke="black" d="M 177 159 249 258"/>
<path stroke-width="1" stroke="black" d="M 177 159 171 272"/>
<path stroke-width="1" stroke="black" d="M 177 159 188 121"/>
<path stroke-width="1" stroke="black" d="M 177 159 93 178"/>
<path stroke-width="1" stroke="black" d="M 177 159 145 225"/>
<path stroke-width="1" stroke="black" d="M 177 159 108 239"/>
<path stroke-width="1" stroke="black" d="M 177 159 205 187"/>
<path stroke-width="1" stroke="black" d="M 177 159 253 204"/>
<path stroke-width="1" stroke="black" d="M 188 121 177 159"/>
<path stroke-width="1" stroke="black" d="M 177 159 106 112"/>
<path stroke-width="1" stroke="black" d="M 249 258 253 204"/>
<path stroke-width="1" stroke="black" d="M 249 258 205 187"/>
<path stroke-width="1" stroke="black" d="M 249 258 108 239"/>
<path stroke-width="1" stroke="black" d="M 106 112 177 159"/>
<path stroke-width="1" stroke="black" d="M 106 112 93 178"/>
<path stroke-width="1" stroke="black" d="M 106 112 145 225"/>
<path stroke-width="1" stroke="black" d="M 106 112 108 239"/>
<path stroke-width="1" stroke="black" d="M 106 112 205 187"/>
<path stroke-width="1" stroke="black" d="M 106 112 253 204"/>
<path stroke-width="1" stroke="black" d="M 74 20 106 112"/>
<path stroke-width="1" stroke="black" d="M 316 220 420 217"/>
<path stroke-width="1" stroke="black" d="M 316 220 249 258"/>
<path stroke-width="1" stroke="black" d="M 316 220 171 272"/>
<path stroke-width="1" stroke="black" d="M 316 220 177 159"/>
<path stroke-width="1" stroke="black" d="M 316 220 93 178"/>
<path stroke-width="1" stroke="black" d="M 316 220 145 225"/>
<path stroke-width="1" stroke="black" d="M 316 220 108 239"/>
<path stroke-width="1" stroke="black" d="M 316 220 205 187"/>
<path stroke-width="1" stroke="black" d="M 316 220 253 204"/>
<path stroke-width="1" stroke="black" d="M 420 217 316 220"/>
<path stroke-width="1" stroke="black" d="M 249 258 316 220"/>
<path stroke-width="1" stroke="black" d="M 249 258 312 300"/>
<path stroke-width="1" stroke="black" d="M 249 258 171 272"/>
<path stroke-width="1" stroke="black" d="M 249 258 177 159"/>
<path stroke-width="1" stroke="black" d="M 249 258 93 178"/>
<path stroke-width="1" stroke="black" d="M 249 258 145 225"/>
<path stroke-width="1" stroke="black" d="M 93 178 106 112"/>
<path stroke-width="1" stroke="black" d="M 93 178 316 220"/>
<path stroke-width="1" stroke="black" d="M 93 178 249 258"/>
<path stroke-width="1" stroke="black" d="M 93 178 171 272"/>
<path stroke-width="1" stroke="black" d="M 108 239 253 204"/>
<path stroke-width="1" stroke="black" d="M 20 262 108 239"/>
<path stroke-width="1" stroke="black" d="M 205 187 106 112"/>
<path stroke-width="1" stroke="black" d="M 205 187 316 220"/>
<path stroke-width="1" stroke="black" d="M 205 187 249 258"/>
<path stroke-width="1" stroke="black" d="M 205 187 171 272"/>
<path stroke-width="1" stroke="black" d="M 205 187 177 159"/>
<path stroke-width="1" stroke="black" d="M 205 187 93 178"/>
<path stroke-width="1" stroke="black" d="M 205 187 145 225"/>
<path stroke-width="1" stroke="black" d="M 205 187 108 239"/>
<path stroke-width="1" stroke="black" d="M 205 187 200 189"/>
<path stroke-width="1" stroke="black" d="M 205 187 253 204"/>
<path stroke-width="1" stroke="black" d="M 200 189 205 187"/>
<path stroke-width="1" stroke="black" d="M 253 204 106 112"/>
<path stroke-width="1" stroke="black" d="M 253 204 316 220"/>
<path stroke-width="1" stroke="black" d="M 253 204 249 258"/>
<path stroke-width="1" stroke="black" d="M 253 204 171 272"/>
<path stroke-width="1" stroke="black" d="M 253 204 177 159"/>
<path stroke-width="1" stroke="black" d="M 253 204 93 178"/>
<path stroke-width="1" stroke="black" d="M 253 204 145 225"/>
<path stroke-width="1" stroke="black" d="M 253 204 108 239"/>
<path stroke-width="1" stroke="black" d="M 253 204 205 187"/>
<path stroke-width="1" stroke="black" d="M 253 204 292 201"/>
<path stroke-width="1" stroke="black" d="M 108 239 205 187"/>
<path stroke-width="1" stroke="black" d="M 106 112 171 272"/>
<path stroke-width="1" stroke="black" d="M 108 239 20 262"/>
<path stroke-width="1" stroke="black" d="M 108 239 93 178"/>
<path stroke-width="1" stroke="black" d="M 93 178 177 159"/>
<path stroke-width="1" stroke="black" d="M 93 178 32 154"/>
<path stroke-width="1" stroke="black" d="M 93 178 145 225"/>
<path stroke-width="1" stroke="black" d="M 93 178 108 239"/>
<path stroke-width="1" stroke="black" d="M 93 178 205 187"/>
<path stroke-width="1" stroke="black" d="M 93 178 253 204"/>
<path stroke-width="1" stroke="black" d="M 32 154 93 178"/>
<path stroke-width="1" stroke="black" d="M 145 225 106 112"/>
<path stroke-width="1" stroke="black" d="M 145 225 316 220"/>
<path stroke-width="1" stroke="black" d="M 145 225 249 258"/>
<path stroke-width="1" stroke="black" d="M 145 225 171 272"/>
<path stroke-width="1" stroke="black" d="M 145 225 177 159"/>
<path stroke-width="1" stroke="black" d="M 145 225 93 178"/>
<path stroke-width="1" stroke="black" d="M 145 225 128 250"/>
<path stroke-width="1" stroke="black" d="M 145 225 108 239"/>
<path stroke-width="1" stroke="black" d="M 145 225 205 187"/>
<path stroke-width="1" stroke="black" d="M 145 225 253 204"/>
<path stroke-width="1" stroke="black" d="M 128 250 145 225"/>
<path stroke-width="1" stroke="black" d="M 108 239 106 112"/>
<path stroke-width="1" stroke="black" d="M 108 239 316 220"/>
<path stroke-width="1" stroke="black" d="M 108 239 249 258"/>
<path stroke-width="1" stroke="black" d="M 108 239 171 272"/>
<path stroke-width="1" stroke="black" d="M 108 239 177 159"/>
<path stroke-width="1" stroke="black" d="M 108 239 145 225"/>
<path stroke-width="1" stroke="black" d="M 106 112 74 20"/>
<circle cx="292" cy="201" r="20.0" style="fill:blue;stroke:black;stroke-width:1.0"/>
<circle cx="253" cy="204" r="20.0" style="fill:blue;stroke:black;stroke-width:1.0"/>
<circle cx="200" cy="189" r="20.0" style="fill:red;stroke:black;stroke-width:1.0"/>
<circle cx="205" cy="187" r="20.0" style="fill:red;stroke:black;stroke-width:1.0"/>
<circle cx="20" cy="262" r="20.0" style="fill:green;stroke:black;stroke-width:1.0"/>
<circle cx="108" cy="239" r="20.0" style="fill:green;stroke:black;stroke-width:1.0"/>
<circle cx="128" cy="250" r="20.0" style="fill:orange;stroke:black;stroke-width:1.0"/>
<circle cx="145" cy="225" r="20.0" style="fill:orange;stroke:black;stroke-width:1.0"/>
<circle cx="32" cy="154" r="20.0" style="fill:purple;stroke:black;stroke-width:1.0"/>
<circle cx="93" cy="178" r="20.0" style="fill:purple;stroke:black;stroke-width:1.0"/>
<circle cx="188" cy="121" r="20.0" style="fill:yellow;stroke:black;stroke-width:1.0"/>
<circle cx="177" cy="159" r="20.0" style="fill:yellow;stroke:black;stroke-width:1.0"/>
<circle cx="170" cy="320" r="20.0" style="fill:fuchsia;stroke:black;stroke-width:1.0"/>
<circle cx="171" cy="272" r="20.0" style="fill:fuchsia;stroke:black;stroke-width:1.0"/>
<circle cx="312" cy="300" r="20.0" style="fill:olive;stroke:black;stroke-width:1.0"/>
<circle cx="249" cy="258" r="20.0" style="fill:olive;stroke:black;stroke-width:1.0"/>
<circle cx="420" cy="217" r="20.0" style="fill:aqua;stroke:black;stroke-width:1.0"/>
<circle cx="316" cy="220" r="20.0" style="fill:aqua;stroke:black;stroke-width:1.0"/>
<circle cx="74" cy="20" r="20.0" style="fill:brown;stroke:black;stroke-width:1.0"/>
<circle cx="106" cy="112" r="20.0" style="fill:brown;stroke:black;stroke-width:1.0"/>
</svg>
