<svg width="440" height="340" xmlns="http://www.w3.org/2000/svg">
<path stroke-width="20.0" stroke="black" d="M 213 141 224 152"/>
<path stroke-width="0.5" stroke="black" d="M 363 169 142 239"/>
<path stroke-width="0.7468354430379747" stroke="black" d="M 363 169 328 201"/>
<path stroke-width="0.7468354430379747" stroke="black" d="M 363 169 334 62"/>
<path stroke-width="10.126582278481013" stroke="black" d="M 363 169 420 173"/>
<path stroke-width="0.7468354430379747" stroke="black" d="M 363 169 167 148"/>
<path stroke-width="0.7468354430379747" stroke="black" d="M 363 169 236 188"/>
<path stroke-width="0.7468354430379747" stroke="black" d="M 363 169 190 99"/>
<path stroke-width="1.4873417721518987" stroke="black" d="M 363 169 289 242"/>
<path stroke-width="0.7468354430379747" stroke="black" d="M 363 169 314 121"/>
<path stroke-width="0.7468354430379747" stroke="black" d="M 363 169 224 152"/>
<path stroke-width="6.177215189873418" stroke="black" d="M 378 20 334 62"/>
<path stroke-width="10.126582278481013" stroke="black" d="M 420 173 363 169"/>
<path stroke-width="0.7468354430379747" stroke="black" d="M 167 148 328 201"/>
<path stroke-width="0.7468354430379747" stroke="black" d="M 167 148 334 62"/>
<path stroke-width="0.7468354430379747" stroke="black" d="M 167 148 363 169"/>
<path stroke-width="12.10126582278481" stroke="black" d="M 167 148 101 137"/>
<path stroke-width="0.7468354430379747" stroke="black" d="M 167 148 236 188"/>
<path stroke-width="1.4873417721518987" stroke="black" d="M 167 148 190 99"/>
<path stroke-width="0.7468354430379747" stroke="black" d="M 167 148 289 242"/>
<path stroke-width="0.7468354430379747" stroke="black" d="M 167 148 314 121"/>
<path stroke-width="0.7468354430379747" stroke="black" d="M 167 148 224 152"/>
<path stroke-width="12.10126582278481" stroke="black" d="M 101 137 167 148"/>
<path stroke-width="0.7468354430379747" stroke="black" d="M 167 148 142 239"/>
<path stroke-width="0.7468354430379747" stroke="black" d="M 334 62 224 152"/>
<path stroke-width="1.4873417721518987" stroke="black" d="M 334 62 314 121"/>
<path stroke-width="0.7468354430379747" stroke="black" d="M 334 62 289 242"/>
<path stroke-width="0.7468354430379747" stroke="black" d="M 142 239 167 148"/>
<path stroke-width="0.7468354430379747" stroke="black" d="M 142 239 236 188"/>
<path stroke-width="0.7468354430379747" stroke="black" d="M 142 239 190 99"/>
<path stroke-width="0.7468354430379747" stroke="black" d="M 142 239 289 242"/>
<path stroke-width="0.7468354430379747" stroke="black" d="M 142 239 314 121"/>
<path stroke-width="0.7468354430379747" stroke="black" d="M 142 239 224 152"/>
<path stroke-width="2.227848101265823" stroke="black" d="M 20 320 142 239"/>
<path stroke-width="5.189873417721519" stroke="black" d="M 328 201 385 257"/>
<path stroke-width="0.7468354430379747" stroke="black" d="M 328 201 334 62"/>
<path stroke-width="0.7468354430379747" stroke="black" d="M 328 201 363 169"/>
<path stroke-width="0.7468354430379747" stroke="black" d="M 328 201 167 148"/>
<path stroke-width="0.7468354430379747" stroke="black" d="M 328 201 236 188"/>
<path stroke-width="0.7468354430379747" stroke="black" d="M 328 201 190 99"/>
<path stroke-width="0.7468354430379747" stroke="black" d="M 328 201 289 242"/>
<path stroke-width="0.7468354430379747" stroke="black" d="M 328 201 314 121"/>
<path stroke-width="1.4873417721518987" stroke="black" d="M 328 201 224 152"/>
<path stroke-width="5.189873417721519" stroke="black" d="M 385 257 328 201"/>
<path stroke-width="0.7468354430379747" stroke="black" d="M 334 62 328 201"/>
<path stroke-width="6.177215189873418" stroke="black" d="M 334 62 378 20"/>
<path stroke-width="0.7468354430379747" stroke="black" d="M 334 62 363 169"/>
<path stroke-width="0.7468354430379747" stroke="black" d="M 334 62 167 148"/>
<path stroke-width="0.7468354430379747" stroke="black" d="M 334 62 236 188"/>
<path stroke-width="0.7468354430379747" stroke="black" d="M 334 62 190 99"/>
<path stroke-width="0.7468354430379747" stroke="black" d="M 236 188 142 239"/>
<path stroke-width="0.7468354430379747" stroke="black" d="M 236 188 328 201"/>
<path stroke-width="0.7468354430379747" stroke="black" d="M 236 188 334 62"/>
<path stroke-width="0.7468354430379747" stroke="black" d="M 236 188 363 169"/>
<path stroke-width="0.7468354430379747" stroke="black" d="M 289 242 224 152"/>
<path stroke-width="17.037974683544302" stroke="black" d="M 294 268 289 242"/>
<path stroke-width="0.7468354430379747" stroke="black" d="M 314 121 142 239"/>
<path stroke-width="0.7468354430379747" stroke="black" d="M 314 121 328 201"/>
<path stroke-width="1.4873417721518987" stroke="black" d="M 314 121 334 62"/>
<path stroke-width="0.7468354430379747" stroke="black" d="M 314 121 363 169"/>
<path stroke-width="0.7468354430379747" stroke="black" d="M 314 121 167 148"/>
<path stroke-width="0.7468354430379747" stroke="black" d="M 314 121 236 188"/>
<path stroke-width="0.7468354430379747" stroke="black" d="M 314 121 190 99"/>
<path stroke-width="0.7468354430379747" stroke="black" d="M 314 121 289 242"/>
<path stroke-width="19.0126582278481" stroke="black" d="M 314 121 347 105"/>
<path stroke-width="0.7468354430379747" stroke="black" d="M 314 121 224 152"/>
<path stroke-width="19.0126582278481" stroke="black" d="M 347 105 314 121"/>
<path stroke-width="0.7468354430379747" stroke="black" d="M 224 152 142 239"/>
<path stroke-width="1.4873417721518987" stroke="black" d="M 224 152 328 201"/>
<path stroke-width="0.7468354430379747" stroke="black" d="M 224 152 334 62"/>
<path stroke-width="0.7468354430379747" stroke="black" d="M 224 152 363 169"/>
<path stroke-width="0.7468354430379747" stroke="black" d="M 224 152 167 148"/>
<path stroke-width="0.7468354430379747" stroke="black" d="M 224 152 236 188"/>
<path stroke-width="0.7468354430379747" stroke="black" d="M 224 152 190 99"/>
<path stroke-width="0.7468354430379747" stroke="black" d="M 224 152 289 242"/>
<path stroke-width="0.7468354430379747" stroke="black" d="M 224 152 314 121"/>
<path stroke-width="20.0" stroke="black" d="M 224 152 213 141"/>
<path stroke-width="0.7468354430379747" stroke="black" d="M 289 242 314 121"/>
<path stroke-width="0.5" stroke="black" d="M 142 239 363 169"/>
<path stroke-width="17.037974683544302" stroke="black" d="M 289 242 294 268"/>
<path stroke-width="0.7468354430379747" stroke="black" d="M 289 242 236 188"/>
<path stroke-width="0.7468354430379747" stroke="black" d="M 236 188 167 148"/>
<path stroke-width="11.113924050632912" stroke="black" d="M 236 188 264 181"/>
<path stroke-width="0.7468354430379747" stroke="black" d="M 236 188 190 99"/>
<path stroke-width="0.7468354430379747" stroke="black" d="M 236 188 289 242"/>
<path stroke-width="0.7468354430379747" stroke="black" d="M 236 188 314 121"/>
<path stroke-width="0.7468354430379747" stroke="black" d="M 236 188 224 152"/>
<path stroke-width="11.113924050632912" stroke="black" d="M 264 181 236 188"/>
<path stroke-width="0.7468354430379747" stroke="black" d="M 190 99 142 239"/>
<path stroke-width="0.7468354430379747" stroke="black" d="M 190 99 328 201"/>
<path stroke-width="0.7468354430379747" stroke="black" d="M 190 99 334 62"/>
<path stroke-width="0.7468354430379747" stroke="black" d="M 190 99 363 169"/>
<path stroke-width="1.4873417721518987" stroke="black" d="M 190 99 167 148"/>
<path stroke-width="0.7468354430379747" stroke="black" d="M 190 99 236 188"/>
<path stroke-width="15.063291139240507" stroke="black" d="M 190 99 154 65"/>
<path stroke-width="0.7468354430379747" stroke="black" d="M 190 99 289 242"/>
<path stroke-width="0.7468354430379747" stroke="black" d="M 190 99 314 121"/>
<path stroke-width="0.7468354430379747" stroke="black" d="M 190 99 224 152"/>
<path stroke-width="15.063291139240507" stroke="black" d="M 154 65 190 99"/>
<path stroke-width="0.7468354430379747" stroke="black" d="M 289 242 142 239"/>
<path stroke-width="0.7468354430379747" stroke="black" d="M 289 242 328 201"/>
<path stroke-width="0.7468354430379747" stroke="black" d="M 289 242 334 62"/>
<path stroke-width="1.4873417721518987" stroke="black" d="M 289 242 363 169"/>
<path stroke-width="0.7468354430379747" stroke="black" d="M 289 242 167 148"/>
<path stroke-width="0.7468354430379747" stroke="black" d="M 289 242 190 99"/>
<path stroke-width="2.227848101265823" stroke="black" d="M 142 239 20 320"/>
<circle cx="213" cy="141" r="20.0" style="fill:gray;stroke:black;stroke-width:1.0"/>
<circle cx="224" cy="152" r="20.0" style="fill:gray;stroke:black;stroke-width:1.0"/>
<circle cx="347" cy="105" r="20.0" style="fill:gray;stroke:black;stroke-width:1.0"/>
<circle cx="314" cy="121" r="20.0" style="fill:gray;stroke:black;stroke-width:1.0"/>
<circle cx="294" cy="268" r="20.0" style="fill:gray;stroke:black;stroke-width:1.0"/>
<circle cx="289" cy="242" r="20.0" style="fill:gray;stroke:black;stroke-width:1.0"/>
<circle cx="154" cy="65" r="20.0" style="fill:gray;stroke:black;stroke-width:1.0"/>
<circle cx="190" cy="99" r="20.0" style="fill:gray;stroke:black;stroke-width:1.0"/>
<circle cx="264" cy="181" r="20.0" style="fill:gray;stroke:black;stroke-width:1.0"/>
<circle cx="236" cy="188" r="20.0" style="fill:gray;stroke:black;stroke-width:1.0"/>
<circle cx="101" cy="137" r="20.0" style="fill:gray;stroke:black;stroke-width:1.0"/>
<circle cx="167" cy="148" r="20.0" style="fill:gray;stroke:black;stroke-width:1.0"/>
<circle cx="420" cy="173" r="20.0" style="fill:gray;stroke:black;stroke-width:1.0"/>
<circle cx="363" cy="169" r="20.0" style="fill:gray;stroke:black;stroke-width:1.0"/>
<circle cx="378" cy="20" r="20.0" style="fill:gray;stroke:black;stroke-width:1.0"/>
<circle cx="334" cy="62" r="20.0" style="fill:gray;stroke:black;stroke-width:1.0"/>
<circle cx="385" cy="257" r="20.0" style="fill:gray;stroke:black;stroke-width:1.0"/>
<circle cx="328" cy="201" r="20.0" style="fill:gray;stroke:black;stroke-width:1.0"/>
<circle cx="20" cy="320" r="20.0" style="fill:gray;stroke:black;stroke-width:1.0"/>
<circle cx="142" cy="239" r="20.0" style="fill:gray;stroke:black;stroke-width:1.0"/>
</svg>
