<svg width="440" height="340" xmlns="http://www.w3.org/2000/svg">
<path stroke-width="1" stroke="black" d="M 20 320 38 283"/>
<path stroke-width="1" stroke="black" d="M 38 283 20 320"/>
<path stroke-width="1" stroke="black" d="M 38 283 72 241"/>
<path stroke-width="1" stroke="black" d="M 72 241 38 283"/>
<path stroke-width="1" stroke="black" d="M 72 241 106 198"/>
<path stroke-width="1" stroke="black" d="M 106 198 72 241"/>
<path stroke-width="1" stroke="black" d="M 106 198 174 156"/>
<path stroke-width="1" stroke="black" d="M 174 156 106 198"/>
<path stroke-width="1" stroke="black" d="M 174 156 223 117"/>
<path stroke-width="1" stroke="black" d="M 223 117 174 156"/>
<path stroke-width="1" stroke="black" d="M 223 117 305 82"/>
<path stroke-width="1" stroke="black" d="M 305 82 223 117"/>
<path stroke-width="1" stroke="black" d="M 305 82 359 47"/>
<path stroke-width="1" stroke="black" d="M 359 47 305 82"/>
<path stroke-width="1" stroke="black" d="M 359 47 420 20"/>
<path stroke-width="1" stroke="black" d="M 420 20 359 47"/>
<circle cx="20" cy="320" r="7.0" style="fill:blue;stroke:black;stroke-width:1.0"/>
<circle cx="38" cy="283" r="7.0" style="fill:blue;stroke:black;stroke-width:1.0"/>
<circle cx="72" cy="241" r="7.0" style="fill:blue;stroke:black;stroke-width:1.0"/>
<circle cx="106" cy="198" r="7.0" style="fill:blue;stroke:black;stroke-width:1.0"/>
<circle cx="174" cy="156" r="7.0" style="fill:green;stroke:black;stroke-width:1.0"/>
<circle cx="223" cy="117" r="7.0" style="fill:green;stroke:black;stroke-width:1.0"/>
<circle cx="305" cy="82" r="7.0" style="fill:red;stroke:black;stroke-width:1.0"/>
<circle cx="359" cy="47" r="7.0" style="fill:red;stroke:black;stroke-width:1.0"/>
<circle cx="420" cy="20" r="7.0" style="fill:red;stroke:black;stroke-width:1.0"/>
</svg>
