<svg width="440" height="340" xmlns="http://www.w3.org/2000/svg">
<path stroke-width="1" stroke="black" d="M 20 20 74 44"/>
<path stroke-width="1" stroke="black" d="M 74 44 20 20"/>
<path stroke-width="1" stroke="black" d="M 74 44 131 72"/>
<path stroke-width="1" stroke="black" d="M 131 72 74 44"/>
<path stroke-width="1" stroke="black" d="M 131 72 187 117"/>
<path stroke-width="1" stroke="black" d="M 187 117 131 72"/>
<path stroke-width="1" stroke="black" d="M 187 117 241 150"/>
<path stroke-width="1" stroke="black" d="M 241 150 187 117"/>
<path stroke-width="1" stroke="black" d="M 241 150 294 201"/>
<path stroke-width="1" stroke="black" d="M 294 201 241 150"/>
<path stroke-width="1" stroke="black" d="M 294 201 345 237"/>
<path stroke-width="1" stroke="black" d="M 345 237 294 201"/>
<path stroke-width="1" stroke="black" d="M 345 237 386 284"/>
<path stroke-width="1" stroke="black" d="M 386 284 345 237"/>
<path stroke-width="1" stroke="black" d="M 386 284 420 320"/>
<path stroke-width="1" stroke="black" d="M 420 320 386 284"/>
<circle cx="20" cy="20" r="20.0" style="fill:blue;stroke:black;stroke-width:1.0"/>
<circle cx="74" cy="44" r="20.0" style="fill:blue;stroke:black;stroke-width:1.0"/>
<circle cx="131" cy="72" r="20.0" style="fill:blue;stroke:black;stroke-width:1.0"/>
<circle cx="187" cy="117" r="20.0" style="fill:blue;stroke:black;stroke-width:1.0"/>
<circle cx="241" cy="150" r="20.0" style="fill:green;stroke:black;stroke-width:1.0"/>
<circle cx="294" cy="201" r="20.0" style="fill:green;stroke:black;stroke-width:1.0"/>
<circle cx="345" cy="237" r="20.0" style="fill:red;stroke:black;stroke-width:1.0"/>
<circle cx="386" cy="284" r="20.0" style="fill:red;stroke:black;stroke-width:1.0"/>
<circle cx="420" cy="320" r="20.0" style="fill:red;stroke:black;stroke-width:1.0"/>
</svg>
