<svg width="440" height="340" xmlns="http://www.w3.org/2000/svg">
<path stroke-width="1" stroke="black" d="M 20 320 62 303"/>
<path stroke-width="1" stroke="black" d="M 62 303 20 320"/>
<path stroke-width="1" stroke="black" d="M 62 303 111 288"/>
<path stroke-width="1" stroke="black" d="M 111 288 62 303"/>
<path stroke-width="1" stroke="black" d="M 111 288 165 248"/>
<path stroke-width="1" stroke="black" d="M 165 248 111 288"/>
<path stroke-width="1" stroke="black" d="M 165 248 219 221"/>
<path stroke-width="1" stroke="black" d="M 219 221 165 248"/>
<path stroke-width="1" stroke="black" d="M 219 221 275 153"/>
<path stroke-width="1" stroke="black" d="M 275 153 219 221"/>
<path stroke-width="1" stroke="black" d="M 275 153 328 107"/>
<path stroke-width="1" stroke="black" d="M 328 107 275 153"/>
<path stroke-width="1" stroke="black" d="M 328 107 378 53"/>
<path stroke-width="1" stroke="black" d="M 378 53 328 107"/>
<path stroke-width="1" stroke="black" d="M 378 53 420 20"/>
<path stroke-width="1" stroke="black" d="M 420 20 378 53"/>
<circle cx="20" cy="320" r="20.0" style="fill:blue;stroke:black;stroke-width:1.0"/>
<circle cx="62" cy="303" r="20.0" style="fill:blue;stroke:black;stroke-width:1.0"/>
<circle cx="111" cy="288" r="20.0" style="fill:blue;stroke:black;stroke-width:1.0"/>
<circle cx="165" cy="248" r="20.0" style="fill:blue;stroke:black;stroke-width:1.0"/>
<circle cx="219" cy="221" r="20.0" style="fill:green;stroke:black;stroke-width:1.0"/>
<circle cx="275" cy="153" r="20.0" style="fill:green;stroke:black;stroke-width:1.0"/>
<circle cx="328" cy="107" r="20.0" style="fill:red;stroke:black;stroke-width:1.0"/>
<circle cx="378" cy="53" r="20.0" style="fill:red;stroke:black;stroke-width:1.0"/>
<circle cx="420" cy="20" r="20.0" style="fill:red;stroke:black;stroke-width:1.0"/>
</svg>
