<svg width="440" height="340" xmlns="http://www.w3.org/2000/svg">
<path stroke-width="1" stroke="black" d="M 420 263 378 249"/>
<path stroke-width="1" stroke="black" d="M 378 249 420 263"/>
<path stroke-width="1" stroke="black" d="M 378 249 328 82"/>
<path stroke-width="1" stroke="black" d="M 328 82 378 249"/>
<path stroke-width="1" stroke="black" d="M 328 82 275 288"/>
<path stroke-width="1" stroke="black" d="M 275 288 328 82"/>
<path stroke-width="1" stroke="black" d="M 275 288 219 28"/>
<path stroke-width="1" stroke="black" d="M 219 28 275 288"/>
<path stroke-width="1" stroke="black" d="M 219 28 165 320"/>
<path stroke-width="1" stroke="black" d="M 165 320 219 28"/>
<path stroke-width="1" stroke="black" d="M 165 320 111 81"/>
<path stroke-width="1" stroke="black" d="M 111 81 165 320"/>
<path stroke-width="1" stroke="black" d="M 111 81 61 158"/>
<path stroke-width="1" stroke="black" d="M 61 158 111 81"/>
<path stroke-width="1" stroke="black" d="M 61 158 20 20"/>
<path stroke-width="1" stroke="black" d="M 20 20 61 158"/>
<circle cx="420" cy="263" r="7.0" style="fill:blue;stroke:black;stroke-width:1.0"/>
<circle cx="378" cy="249" r="7.0" style="fill:blue;stroke:black;stroke-width:1.0"/>
<circle cx="328" cy="82" r="7.0" style="fill:blue;stroke:black;stroke-width:1.0"/>
<circle cx="275" cy="288" r="7.0" style="fill:blue;stroke:black;stroke-width:1.0"/>
<circle cx="219" cy="28" r="7.0" style="fill:green;stroke:black;stroke-width:1.0"/>
<circle cx="165" cy="320" r="7.0" style="fill:green;stroke:black;stroke-width:1.0"/>
<circle cx="111" cy="81" r="7.0" style="fill:red;stroke:black;stroke-width:1.0"/>
<circle cx="61" cy="158" r="7.0" style="fill:red;stroke:black;stroke-width:1.0"/>
<circle cx="20" cy="20" r="7.0" style="fill:red;stroke:black;stroke-width:1.0"/>
</svg>
