<svg width="440" height="340" xmlns="http://www.w3.org/2000/svg">
<path stroke-width="1" stroke="black" d="M 177 197 106 55"/>
<path stroke-width="1" stroke="black" d="M 20 222 96 67"/>
<path stroke-width="1" stroke="black" d="M 20 222 297 265"/>
<path stroke-width="1" stroke="black" d="M 20 222 207 20"/>
<path stroke-width="1" stroke="black" d="M 20 222 73 214"/>
<path stroke-width="1" stroke="black" d="M 20 222 159 320"/>
<path stroke-width="1" stroke="black" d="M 20 222 353 57"/>
<path stroke-width="1" stroke="black" d="M 20 222 392 168"/>
<path stroke-width="1" stroke="black" d="M 20 222 370 294"/>
<path stroke-width="1" stroke="black" d="M 20 222 71 281"/>
<path stroke-width="1" stroke="black" d="M 20 222 310 144"/>
<path stroke-width="1" stroke="black" d="M 20 222 420 210"/>
<path stroke-width="1" stroke="black" d="M 20 222 30 125"/>
<path stroke-width="1" stroke="black" d="M 20 222 198 97"/>
<path stroke-width="1" stroke="black" d="M 20 222 106 55"/>
<path stroke-width="1" stroke="black" d="M 20 222 177 197"/>
<path stroke-width="1" stroke="black" d="M 96 67 150 263"/>
<path stroke-width="1" stroke="black" d="M 96 67 288 23"/>
<path stroke-width="1" stroke="black" d="M 96 67 165 181"/>
<path stroke-width="1" stroke="black" d="M 96 67 244 311"/>
<path stroke-width="1" stroke="black" d="M 96 67 28 135"/>
<path stroke-width="1" stroke="black" d="M 96 67 415 111"/>
<path stroke-width="1" stroke="black" d="M 96 67 291 243"/>
<path stroke-width="1" stroke="black" d="M 96 67 20 222"/>
<path stroke-width="1" stroke="black" d="M 96 67 297 265"/>
<path stroke-width="1" stroke="black" d="M 96 67 207 20"/>
<path stroke-width="1" stroke="black" d="M 96 67 73 214"/>
<path stroke-width="1" stroke="black" d="M 96 67 159 320"/>
<path stroke-width="1" stroke="black" d="M 20 222 291 243"/>
<path stroke-width="1" stroke="black" d="M 20 222 415 111"/>
<path stroke-width="1" stroke="black" d="M 20 222 28 135"/>
<path stroke-width="1" stroke="black" d="M 20 222 244 311"/>
<path stroke-width="1" stroke="black" d="M 415 111 198 97"/>
<path stroke-width="1" stroke="black" d="M 415 111 106 55"/>
<path stroke-width="1" stroke="black" d="M 415 111 177 197"/>
<path stroke-width="1" stroke="black" d="M 291 243 150 263"/>
<path stroke-width="1" stroke="black" d="M 291 243 288 23"/>
<path stroke-width="1" stroke="black" d="M 291 243 165 181"/>
<path stroke-width="1" stroke="black" d="M 291 243 244 311"/>
<path stroke-width="1" stroke="black" d="M 291 243 28 135"/>
<path stroke-width="1" stroke="black" d="M 291 243 415 111"/>
<path stroke-width="1" stroke="black" d="M 291 243 20 222"/>
<path stroke-width="1" stroke="black" d="M 291 243 96 67"/>
<path stroke-width="1" stroke="black" d="M 291 243 297 265"/>
<path stroke-width="1" stroke="black" d="M 291 243 207 20"/>
<path stroke-width="1" stroke="black" d="M 96 67 353 57"/>
<path stroke-width="1" stroke="black" d="M 291 243 73 214"/>
<path stroke-width="1" stroke="black" d="M 291 243 353 57"/>
<path stroke-width="1" stroke="black" d="M 291 243 392 168"/>
<path stroke-width="1" stroke="black" d="M 291 243 370 294"/>
<path stroke-width="1" stroke="black" d="M 291 243 71 281"/>
<path stroke-width="1" stroke="black" d="M 291 243 310 144"/>
<path stroke-width="1" stroke="black" d="M 291 243 420 210"/>
<path stroke-width="1" stroke="black" d="M 291 243 30 125"/>
<path stroke-width="1" stroke="black" d="M 291 243 198 97"/>
<path stroke-width="1" stroke="black" d="M 291 243 106 55"/>
<path stroke-width="1" stroke="black" d="M 291 243 177 197"/>
<path stroke-width="1" stroke="black" d="M 20 222 150 263"/>
<path stroke-width="1" stroke="black" d="M 20 222 288 23"/>
<path stroke-width="1" stroke="black" d="M 20 222 165 181"/>
<path stroke-width="1" stroke="black" d="M 291 243 159 320"/>
<path stroke-width="1" stroke="black" d="M 415 111 30 125"/>
<path stroke-width="1" stroke="black" d="M 96 67 392 168"/>
<path stroke-width="1" stroke="black" d="M 96 67 71 281"/>
<path stroke-width="1" stroke="black" d="M 207 20 28 135"/>
<path stroke-width="1" stroke="black" d="M 207 20 415 111"/>
<path stroke-width="1" stroke="black" d="M 207 20 291 243"/>
<path stroke-width="1" stroke="black" d="M 207 20 20 222"/>
<path stroke-width="1" stroke="black" d="M 207 20 96 67"/>
<path stroke-width="1" stroke="black" d="M 207 20 297 265"/>
<path stroke-width="1" stroke="black" d="M 207 20 73 214"/>
<path stroke-width="1" stroke="black" d="M 207 20 159 320"/>
<path stroke-width="1" stroke="black" d="M 207 20 353 57"/>
<path stroke-width="1" stroke="black" d="M 207 20 392 168"/>
<path stroke-width="1" stroke="black" d="M 207 20 370 294"/>
<path stroke-width="1" stroke="black" d="M 207 20 71 281"/>
<path stroke-width="1" stroke="black" d="M 207 20 310 144"/>
<path stroke-width="1" stroke="black" d="M 207 20 420 210"/>
<path stroke-width="1" stroke="black" d="M 207 20 30 125"/>
<path stroke-width="1" stroke="black" d="M 207 20 198 97"/>
<path stroke-width="1" stroke="black" d="M 207 20 106 55"/>
<path stroke-width="1" stroke="black" d="M 207 20 177 197"/>
<path stroke-width="1" stroke="black" d="M 73 214 150 263"/>
<path stroke-width="1" stroke="black" d="M 73 214 288 23"/>
<path stroke-width="1" stroke="black" d="M 73 214 165 181"/>
<path stroke-width="1" stroke="black" d="M 73 214 244 311"/>
<path stroke-width="1" stroke="black" d="M 73 214 28 135"/>
<path stroke-width="1" stroke="black" d="M 73 214 415 111"/>
<path stroke-width="1" stroke="black" d="M 73 214 291 243"/>
<path stroke-width="1" stroke="black" d="M 73 214 20 222"/>
<path stroke-width="1" stroke="black" d="M 73 214 96 67"/>
<path stroke-width="1" stroke="black" d="M 207 20 244 311"/>
<path stroke-width="1" stroke="black" d="M 207 20 165 181"/>
<path stroke-width="1" stroke="black" d="M 207 20 288 23"/>
<path stroke-width="1" stroke="black" d="M 207 20 150 263"/>
<path stroke-width="1" stroke="black" d="M 96 67 310 144"/>
<path stroke-width="1" stroke="black" d="M 96 67 420 210"/>
<path stroke-width="1" stroke="black" d="M 96 67 30 125"/>
<path stroke-width="1" stroke="black" d="M 96 67 198 97"/>
<path stroke-width="1" stroke="black" d="M 96 67 106 55"/>
<path stroke-width="1" stroke="black" d="M 96 67 177 197"/>
<path stroke-width="1" stroke="black" d="M 297 265 150 263"/>
<path stroke-width="1" stroke="black" d="M 297 265 288 23"/>
<path stroke-width="1" stroke="black" d="M 297 265 165 181"/>
<path stroke-width="1" stroke="black" d="M 297 265 244 311"/>
<path stroke-width="1" stroke="black" d="M 297 265 28 135"/>
<path stroke-width="1" stroke="black" d="M 297 265 415 111"/>
<path stroke-width="1" stroke="black" d="M 297 265 291 243"/>
<path stroke-width="1" stroke="black" d="M 96 67 370 294"/>
<path stroke-width="1" stroke="black" d="M 297 265 20 222"/>
<path stroke-width="1" stroke="black" d="M 297 265 207 20"/>
<path stroke-width="1" stroke="black" d="M 297 265 73 214"/>
<path stroke-width="1" stroke="black" d="M 297 265 159 320"/>
<path stroke-width="1" stroke="black" d="M 297 265 353 57"/>
<path stroke-width="1" stroke="black" d="M 297 265 392 168"/>
<path stroke-width="1" stroke="black" d="M 297 265 370 294"/>
<path stroke-width="1" stroke="black" d="M 297 265 71 281"/>
<path stroke-width="1" stroke="black" d="M 297 265 310 144"/>
<path stroke-width="1" stroke="black" d="M 297 265 420 210"/>
<path stroke-width="1" stroke="black" d="M 297 265 30 125"/>
<path stroke-width="1" stroke="black" d="M 297 265 198 97"/>
<path stroke-width="1" stroke="black" d="M 297 265 106 55"/>
<path stroke-width="1" stroke="black" d="M 297 265 177 197"/>
<path stroke-width="1" stroke="black" d="M 297 265 96 67"/>
<path stroke-width="1" stroke="black" d="M 415 111 420 210"/>
<path stroke-width="1" stroke="black" d="M 415 111 310 144"/>
<path stroke-width="1" stroke="black" d="M 415 111 71 281"/>
<path stroke-width="1" stroke="black" d="M 288 23 353 57"/>
<path stroke-width="1" stroke="black" d="M 288 23 392 168"/>
<path stroke-width="1" stroke="black" d="M 288 23 370 294"/>
<path stroke-width="1" stroke="black" d="M 288 23 71 281"/>
<path stroke-width="1" stroke="black" d="M 288 23 310 144"/>
<path stroke-width="1" stroke="black" d="M 288 23 420 210"/>
<path stroke-width="1" stroke="black" d="M 288 23 30 125"/>
<path stroke-width="1" stroke="black" d="M 288 23 198 97"/>
<path stroke-width="1" stroke="black" d="M 288 23 106 55"/>
<path stroke-width="1" stroke="black" d="M 288 23 177 197"/>
<path stroke-width="1" stroke="black" d="M 165 181 150 263"/>
<path stroke-width="1" stroke="black" d="M 165 181 288 23"/>
<path stroke-width="1" stroke="black" d="M 165 181 244 311"/>
<path stroke-width="1" stroke="black" d="M 165 181 28 135"/>
<path stroke-width="1" stroke="black" d="M 165 181 415 111"/>
<path stroke-width="1" stroke="black" d="M 165 181 291 243"/>
<path stroke-width="1" stroke="black" d="M 165 181 20 222"/>
<path stroke-width="1" stroke="black" d="M 165 181 96 67"/>
<path stroke-width="1" stroke="black" d="M 165 181 297 265"/>
<path stroke-width="1" stroke="black" d="M 165 181 207 20"/>
<path stroke-width="1" stroke="black" d="M 165 181 73 214"/>
<path stroke-width="1" stroke="black" d="M 165 181 159 320"/>
<path stroke-width="1" stroke="black" d="M 165 181 353 57"/>
<path stroke-width="1" stroke="black" d="M 165 181 392 168"/>
<path stroke-width="1" stroke="black" d="M 165 181 370 294"/>
<path stroke-width="1" stroke="black" d="M 165 181 71 281"/>
<path stroke-width="1" stroke="black" d="M 165 181 310 144"/>
<path stroke-width="1" stroke="black" d="M 288 23 159 320"/>
<path stroke-width="1" stroke="black" d="M 288 23 73 214"/>
<path stroke-width="1" stroke="black" d="M 288 23 207 20"/>
<path stroke-width="1" stroke="black" d="M 288 23 297 265"/>
<path stroke-width="1" stroke="black" d="M 150 263 244 311"/>
<path stroke-width="1" stroke="black" d="M 150 263 28 135"/>
<path stroke-width="1" stroke="black" d="M 150 263 415 111"/>
<path stroke-width="1" stroke="black" d="M 150 263 291 243"/>
<path stroke-width="1" stroke="black" d="M 150 263 20 222"/>
<path stroke-width="1" stroke="black" d="M 150 263 96 67"/>
<path stroke-width="1" stroke="black" d="M 150 263 297 265"/>
<path stroke-width="1" stroke="black" d="M 150 263 207 20"/>
<path stroke-width="1" stroke="black" d="M 150 263 73 214"/>
<path stroke-width="1" stroke="black" d="M 150 263 159 320"/>
<path stroke-width="1" stroke="black" d="M 150 263 353 57"/>
<path stroke-width="1" stroke="black" d="M 150 263 392 168"/>
<path stroke-width="1" stroke="black" d="M 150 263 370 294"/>
<path stroke-width="1" stroke="black" d="M 165 181 420 210"/>
<path stroke-width="1" stroke="black" d="M 150 263 71 281"/>
<path stroke-width="1" stroke="black" d="M 150 263 420 210"/>
<path stroke-width="1" stroke="black" d="M 150 263 30 125"/>
<path stroke-width="1" stroke="black" d="M 150 263 198 97"/>
<path stroke-width="1" stroke="black" d="M 150 263 106 55"/>
<path stroke-width="1" stroke="black" d="M 150 263 177 197"/>
<path stroke-width="1" stroke="black" d="M 288 23 150 263"/>
<path stroke-width="1" stroke="black" d="M 288 23 165 181"/>
<path stroke-width="1" stroke="black" d="M 288 23 244 311"/>
<path stroke-width="1" stroke="black" d="M 288 23 28 135"/>
<path stroke-width="1" stroke="black" d="M 288 23 415 111"/>
<path stroke-width="1" stroke="black" d="M 288 23 291 243"/>
<path stroke-width="1" stroke="black" d="M 288 23 20 222"/>
<path stroke-width="1" stroke="black" d="M 288 23 96 67"/>
<path stroke-width="1" stroke="black" d="M 150 263 310 144"/>
<path stroke-width="1" stroke="black" d="M 165 181 30 125"/>
<path stroke-width="1" stroke="black" d="M 165 181 198 97"/>
<path stroke-width="1" stroke="black" d="M 165 181 106 55"/>
<path stroke-width="1" stroke="black" d="M 28 135 207 20"/>
<path stroke-width="1" stroke="black" d="M 28 135 73 214"/>
<path stroke-width="1" stroke="black" d="M 28 135 159 320"/>
<path stroke-width="1" stroke="black" d="M 28 135 353 57"/>
<path stroke-width="1" stroke="black" d="M 28 135 392 168"/>
<path stroke-width="1" stroke="black" d="M 28 135 370 294"/>
<path stroke-width="1" stroke="black" d="M 28 135 71 281"/>
<path stroke-width="1" stroke="black" d="M 28 135 310 144"/>
<path stroke-width="1" stroke="black" d="M 28 135 420 210"/>
<path stroke-width="1" stroke="black" d="M 28 135 30 125"/>
<path stroke-width="1" stroke="black" d="M 28 135 198 97"/>
<path stroke-width="1" stroke="black" d="M 28 135 106 55"/>
<path stroke-width="1" stroke="black" d="M 28 135 177 197"/>
<path stroke-width="1" stroke="black" d="M 28 135 297 265"/>
<path stroke-width="1" stroke="black" d="M 415 111 150 263"/>
<path stroke-width="1" stroke="black" d="M 415 111 165 181"/>
<path stroke-width="1" stroke="black" d="M 415 111 244 311"/>
<path stroke-width="1" stroke="black" d="M 415 111 28 135"/>
<path stroke-width="1" stroke="black" d="M 415 111 291 243"/>
<path stroke-width="1" stroke="black" d="M 415 111 20 222"/>
<path stroke-width="1" stroke="black" d="M 415 111 96 67"/>
<path stroke-width="1" stroke="black" d="M 415 111 297 265"/>
<path stroke-width="1" stroke="black" d="M 415 111 207 20"/>
<path stroke-width="1" stroke="black" d="M 415 111 73 214"/>
<path stroke-width="1" stroke="black" d="M 415 111 159 320"/>
<path stroke-width="1" stroke="black" d="M 415 111 353 57"/>
<path stroke-width="1" stroke="black" d="M 415 111 392 168"/>
<path stroke-width="1" stroke="black" d="M 415 111 370 294"/>
<path stroke-width="1" stroke="black" d="M 415 111 288 23"/>
<path stroke-width="1" stroke="black" d="M 73 214 297 265"/>
<path stroke-width="1" stroke="black" d="M 28 135 96 67"/>
<path stroke-width="1" stroke="black" d="M 28 135 291 243"/>
<path stroke-width="1" stroke="black" d="M 165 181 177 197"/>
<path stroke-width="1" stroke="black" d="M 244 311 150 263"/>
<path stroke-width="1" stroke="black" d="M 244 311 288 23"/>
<path stroke-width="1" stroke="black" d="M 244 311 165 181"/>
<path stroke-width="1" stroke="black" d="M 244 311 28 135"/>
<path stroke-width="1" stroke="black" d="M 244 311 415 111"/>
<path stroke-width="1" stroke="black" d="M 244 311 291 243"/>
<path stroke-width="1" stroke="black" d="M 244 311 20 222"/>
<path stroke-width="1" stroke="black" d="M 244 311 96 67"/>
<path stroke-width="1" stroke="black" d="M 244 311 297 265"/>
<path stroke-width="1" stroke="black" d="M 244 311 207 20"/>
<path stroke-width="1" stroke="black" d="M 244 311 73 214"/>
<path stroke-width="1" stroke="black" d="M 244 311 159 320"/>
<path stroke-width="1" stroke="black" d="M 28 135 20 222"/>
<path stroke-width="1" stroke="black" d="M 244 311 353 57"/>
<path stroke-width="1" stroke="black" d="M 244 311 370 294"/>
<path stroke-width="1" stroke="black" d="M 244 311 71 281"/>
<path stroke-width="1" stroke="black" d="M 244 311 310 144"/>
<path stroke-width="1" stroke="black" d="M 244 311 420 210"/>
<path stroke-width="1" stroke="black" d="M 244 311 30 125"/>
<path stroke-width="1" stroke="black" d="M 244 311 198 97"/>
<path stroke-width="1" stroke="black" d="M 244 311 106 55"/>
<path stroke-width="1" stroke="black" d="M 244 311 177 197"/>
<path stroke-width="1" stroke="black" d="M 28 135 150 263"/>
<path stroke-width="1" stroke="black" d="M 28 135 288 23"/>
<path stroke-width="1" stroke="black" d="M 28 135 165 181"/>
<path stroke-width="1" stroke="black" d="M 28 135 244 311"/>
<path stroke-width="1" stroke="black" d="M 28 135 415 111"/>
<path stroke-width="1" stroke="black" d="M 244 311 392 168"/>
<path stroke-width="1" stroke="black" d="M 73 214 207 20"/>
<path stroke-width="1" stroke="black" d="M 73 214 159 320"/>
<path stroke-width="1" stroke="black" d="M 73 214 353 57"/>
<path stroke-width="1" stroke="black" d="M 420 210 30 125"/>
<path stroke-width="1" stroke="black" d="M 420 210 198 97"/>
<path stroke-width="1" stroke="black" d="M 420 210 106 55"/>
<path stroke-width="1" stroke="black" d="M 420 210 177 197"/>
<path stroke-width="1" stroke="black" d="M 30 125 150 263"/>
<path stroke-width="1" stroke="black" d="M 30 125 288 23"/>
<path stroke-width="1" stroke="black" d="M 30 125 165 181"/>
<path stroke-width="1" stroke="black" d="M 30 125 244 311"/>
<path stroke-width="1" stroke="black" d="M 30 125 28 135"/>
<path stroke-width="1" stroke="black" d="M 30 125 415 111"/>
<path stroke-width="1" stroke="black" d="M 30 125 291 243"/>
<path stroke-width="1" stroke="black" d="M 30 125 20 222"/>
<path stroke-width="1" stroke="black" d="M 30 125 96 67"/>
<path stroke-width="1" stroke="black" d="M 30 125 297 265"/>
<path stroke-width="1" stroke="black" d="M 30 125 207 20"/>
<path stroke-width="1" stroke="black" d="M 30 125 73 214"/>
<path stroke-width="1" stroke="black" d="M 30 125 159 320"/>
<path stroke-width="1" stroke="black" d="M 30 125 353 57"/>
<path stroke-width="1" stroke="black" d="M 30 125 392 168"/>
<path stroke-width="1" stroke="black" d="M 30 125 370 294"/>
<path stroke-width="1" stroke="black" d="M 30 125 71 281"/>
<path stroke-width="1" stroke="black" d="M 30 125 310 144"/>
<path stroke-width="1" stroke="black" d="M 30 125 420 210"/>
<path stroke-width="1" stroke="black" d="M 30 125 198 97"/>
<path stroke-width="1" stroke="black" d="M 30 125 106 55"/>
<path stroke-width="1" stroke="black" d="M 30 125 177 197"/>
<path stroke-width="1" stroke="black" d="M 198 97 150 263"/>
<path stroke-width="1" stroke="black" d="M 420 210 310 144"/>
<path stroke-width="1" stroke="black" d="M 420 210 71 281"/>
<path stroke-width="1" stroke="black" d="M 420 210 370 294"/>
<path stroke-width="1" stroke="black" d="M 420 210 392 168"/>
<path stroke-width="1" stroke="black" d="M 310 144 96 67"/>
<path stroke-width="1" stroke="black" d="M 310 144 297 265"/>
<path stroke-width="1" stroke="black" d="M 310 144 207 20"/>
<path stroke-width="1" stroke="black" d="M 310 144 73 214"/>
<path stroke-width="1" stroke="black" d="M 310 144 159 320"/>
<path stroke-width="1" stroke="black" d="M 310 144 353 57"/>
<path stroke-width="1" stroke="black" d="M 310 144 392 168"/>
<path stroke-width="1" stroke="black" d="M 310 144 370 294"/>
<path stroke-width="1" stroke="black" d="M 310 144 71 281"/>
<path stroke-width="1" stroke="black" d="M 310 144 420 210"/>
<path stroke-width="1" stroke="black" d="M 310 144 30 125"/>
<path stroke-width="1" stroke="black" d="M 310 144 198 97"/>
<path stroke-width="1" stroke="black" d="M 310 144 106 55"/>
<path stroke-width="1" stroke="black" d="M 198 97 288 23"/>
<path stroke-width="1" stroke="black" d="M 310 144 177 197"/>
<path stroke-width="1" stroke="black" d="M 420 210 288 23"/>
<path stroke-width="1" stroke="black" d="M 420 210 165 181"/>
<path stroke-width="1" stroke="black" d="M 420 210 244 311"/>
<path stroke-width="1" stroke="black" d="M 420 210 28 135"/>
<path stroke-width="1" stroke="black" d="M 420 210 415 111"/>
<path stroke-width="1" stroke="black" d="M 420 210 291 243"/>
<path stroke-width="1" stroke="black" d="M 420 210 20 222"/>
<path stroke-width="1" stroke="black" d="M 420 210 96 67"/>
<path stroke-width="1" stroke="black" d="M 420 210 297 265"/>
<path stroke-width="1" stroke="black" d="M 420 210 207 20"/>
<path stroke-width="1" stroke="black" d="M 420 210 73 214"/>
<path stroke-width="1" stroke="black" d="M 420 210 159 320"/>
<path stroke-width="1" stroke="black" d="M 420 210 353 57"/>
<path stroke-width="1" stroke="black" d="M 420 210 150 263"/>
<path stroke-width="1" stroke="black" d="M 198 97 165 181"/>
<path stroke-width="1" stroke="black" d="M 198 97 244 311"/>
<path stroke-width="1" stroke="black" d="M 198 97 28 135"/>
<path stroke-width="1" stroke="black" d="M 106 55 370 294"/>
<path stroke-width="1" stroke="black" d="M 106 55 71 281"/>
<path stroke-width="1" stroke="black" d="M 106 55 310 144"/>
<path stroke-width="1" stroke="black" d="M 106 55 420 210"/>
<path stroke-width="1" stroke="black" d="M 106 55 30 125"/>
<path stroke-width="1" stroke="black" d="M 106 55 198 97"/>
<path stroke-width="1" stroke="black" d="M 106 55 177 197"/>
<path stroke-width="1" stroke="black" d="M 177 197 150 263"/>
<path stroke-width="1" stroke="black" d="M 177 197 288 23"/>
<path stroke-width="1" stroke="black" d="M 177 197 165 181"/>
<path stroke-width="1" stroke="black" d="M 177 197 244 311"/>
<path stroke-width="1" stroke="black" d="M 177 197 28 135"/>
<path stroke-width="1" stroke="black" d="M 177 197 415 111"/>
<path stroke-width="1" stroke="black" d="M 106 55 392 168"/>
<path stroke-width="1" stroke="black" d="M 177 197 291 243"/>
<path stroke-width="1" stroke="black" d="M 177 197 96 67"/>
<path stroke-width="1" stroke="black" d="M 177 197 297 265"/>
<path stroke-width="1" stroke="black" d="M 177 197 207 20"/>
<path stroke-width="1" stroke="black" d="M 177 197 73 214"/>
<path stroke-width="1" stroke="black" d="M 177 197 159 320"/>
<path stroke-width="1" stroke="black" d="M 177 197 353 57"/>
<path stroke-width="1" stroke="black" d="M 177 197 392 168"/>
<path stroke-width="1" stroke="black" d="M 177 197 370 294"/>
<path stroke-width="1" stroke="black" d="M 177 197 71 281"/>
<path stroke-width="1" stroke="black" d="M 177 197 310 144"/>
<path stroke-width="1" stroke="black" d="M 177 197 420 210"/>
<path stroke-width="1" stroke="black" d="M 177 197 30 125"/>
<path stroke-width="1" stroke="black" d="M 177 197 198 97"/>
<path stroke-width="1" stroke="black" d="M 177 197 20 222"/>
<path stroke-width="1" stroke="black" d="M 310 144 20 222"/>
<path stroke-width="1" stroke="black" d="M 106 55 353 57"/>
<path stroke-width="1" stroke="black" d="M 106 55 73 214"/>
<path stroke-width="1" stroke="black" d="M 198 97 415 111"/>
<path stroke-width="1" stroke="black" d="M 198 97 291 243"/>
<path stroke-width="1" stroke="black" d="M 198 97 20 222"/>
<path stroke-width="1" stroke="black" d="M 198 97 96 67"/>
<path stroke-width="1" stroke="black" d="M 198 97 297 265"/>
<path stroke-width="1" stroke="black" d="M 198 97 207 20"/>
<path stroke-width="1" stroke="black" d="M 198 97 73 214"/>
<path stroke-width="1" stroke="black" d="M 198 97 159 320"/>
<path stroke-width="1" stroke="black" d="M 198 97 353 57"/>
<path stroke-width="1" stroke="black" d="M 198 97 392 168"/>
<path stroke-width="1" stroke="black" d="M 198 97 370 294"/>
<path stroke-width="1" stroke="black" d="M 198 97 71 281"/>
<path stroke-width="1" stroke="black" d="M 198 97 310 144"/>
<path stroke-width="1" stroke="black" d="M 106 55 159 320"/>
<path stroke-width="1" stroke="black" d="M 198 97 420 210"/>
<path stroke-width="1" stroke="black" d="M 198 97 106 55"/>
<path stroke-width="1" stroke="black" d="M 198 97 177 197"/>
<path stroke-width="1" stroke="black" d="M 106 55 150 263"/>
<path stroke-width="1" stroke="black" d="M 106 55 288 23"/>
<path stroke-width="1" stroke="black" d="M 106 55 165 181"/>
<path stroke-width="1" stroke="black" d="M 106 55 244 311"/>
<path stroke-width="1" stroke="black" d="M 106 55 28 135"/>
<path stroke-width="1" stroke="black" d="M 106 55 415 111"/>
<path stroke-width="1" stroke="black" d="M 106 55 291 243"/>
<path stroke-width="1" stroke="black" d="M 106 55 20 222"/>
<path stroke-width="1" stroke="black" d="M 106 55 96 67"/>
<path stroke-width="1" stroke="black" d="M 106 55 297 265"/>
<path stroke-width="1" stroke="black" d="M 106 55 207 20"/>
<path stroke-width="1" stroke="black" d="M 198 97 30 125"/>
<path stroke-width="1" stroke="black" d="M 150 263 165 181"/>
<path stroke-width="1" stroke="black" d="M 310 144 291 243"/>
<path stroke-width="1" stroke="black" d="M 310 144 28 135"/>
<path stroke-width="1" stroke="black" d="M 353 57 288 23"/>
<path stroke-width="1" stroke="black" d="M 353 57 165 181"/>
<path stroke-width="1" stroke="black" d="M 353 57 244 311"/>
<path stroke-width="1" stroke="black" d="M 353 57 28 135"/>
<path stroke-width="1" stroke="black" d="M 353 57 415 111"/>
<path stroke-width="1" stroke="black" d="M 353 57 291 243"/>
<path stroke-width="1" stroke="black" d="M 353 57 20 222"/>
<path stroke-width="1" stroke="black" d="M 353 57 96 67"/>
<path stroke-width="1" stroke="black" d="M 353 57 297 265"/>
<path stroke-width="1" stroke="black" d="M 353 57 207 20"/>
<path stroke-width="1" stroke="black" d="M 353 57 73 214"/>
<path stroke-width="1" stroke="black" d="M 353 57 159 320"/>
<path stroke-width="1" stroke="black" d="M 353 57 392 168"/>
<path stroke-width="1" stroke="black" d="M 353 57 370 294"/>
<path stroke-width="1" stroke="black" d="M 353 57 71 281"/>
<path stroke-width="1" stroke="black" d="M 353 57 310 144"/>
<path stroke-width="1" stroke="black" d="M 353 57 420 210"/>
<path stroke-width="1" stroke="black" d="M 353 57 30 125"/>
<path stroke-width="1" stroke="black" d="M 353 57 198 97"/>
<path stroke-width="1" stroke="black" d="M 353 57 106 55"/>
<path stroke-width="1" stroke="black" d="M 353 57 177 197"/>
<path stroke-width="1" stroke="black" d="M 392 168 150 263"/>
<path stroke-width="1" stroke="black" d="M 392 168 288 23"/>
<path stroke-width="1" stroke="black" d="M 392 168 165 181"/>
<path stroke-width="1" stroke="black" d="M 392 168 244 311"/>
<path stroke-width="1" stroke="black" d="M 392 168 28 135"/>
<path stroke-width="1" stroke="black" d="M 392 168 415 111"/>
<path stroke-width="1" stroke="black" d="M 353 57 150 263"/>
<path stroke-width="1" stroke="black" d="M 159 320 177 197"/>
<path stroke-width="1" stroke="black" d="M 159 320 106 55"/>
<path stroke-width="1" stroke="black" d="M 159 320 198 97"/>
<path stroke-width="1" stroke="black" d="M 73 214 392 168"/>
<path stroke-width="1" stroke="black" d="M 73 214 370 294"/>
<path stroke-width="1" stroke="black" d="M 73 214 71 281"/>
<path stroke-width="1" stroke="black" d="M 73 214 310 144"/>
<path stroke-width="1" stroke="black" d="M 73 214 420 210"/>
<path stroke-width="1" stroke="black" d="M 73 214 30 125"/>
<path stroke-width="1" stroke="black" d="M 73 214 198 97"/>
<path stroke-width="1" stroke="black" d="M 73 214 106 55"/>
<path stroke-width="1" stroke="black" d="M 73 214 177 197"/>
<path stroke-width="1" stroke="black" d="M 159 320 150 263"/>
<path stroke-width="1" stroke="black" d="M 159 320 288 23"/>
<path stroke-width="1" stroke="black" d="M 159 320 165 181"/>
<path stroke-width="1" stroke="black" d="M 159 320 244 311"/>
<path stroke-width="1" stroke="black" d="M 392 168 291 243"/>
<path stroke-width="1" stroke="black" d="M 159 320 28 135"/>
<path stroke-width="1" stroke="black" d="M 159 320 291 243"/>
<path stroke-width="1" stroke="black" d="M 159 320 20 222"/>
<path stroke-width="1" stroke="black" d="M 159 320 96 67"/>
<path stroke-width="1" stroke="black" d="M 159 320 297 265"/>
<path stroke-width="1" stroke="black" d="M 159 320 207 20"/>
<path stroke-width="1" stroke="black" d="M 159 320 73 214"/>
<path stroke-width="1" stroke="black" d="M 159 320 353 57"/>
<path stroke-width="1" stroke="black" d="M 159 320 392 168"/>
<path stroke-width="1" stroke="black" d="M 159 320 370 294"/>
<path stroke-width="1" stroke="black" d="M 159 320 71 281"/>
<path stroke-width="1" stroke="black" d="M 159 320 310 144"/>
<path stroke-width="1" stroke="black" d="M 159 320 420 210"/>
<path stroke-width="1" stroke="black" d="M 159 320 30 125"/>
<path stroke-width="1" stroke="black" d="M 159 320 415 111"/>
<path stroke-width="1" stroke="black" d="M 392 168 20 222"/>
<path stroke-width="1" stroke="black" d="M 392 168 96 67"/>
<path stroke-width="1" stroke="black" d="M 392 168 297 265"/>
<path stroke-width="1" stroke="black" d="M 370 294 106 55"/>
<path stroke-width="1" stroke="black" d="M 370 294 177 197"/>
<path stroke-width="1" stroke="black" d="M 71 281 150 263"/>
<path stroke-width="1" stroke="black" d="M 71 281 288 23"/>
<path stroke-width="1" stroke="black" d="M 71 281 165 181"/>
<path stroke-width="1" stroke="black" d="M 71 281 244 311"/>
<path stroke-width="1" stroke="black" d="M 71 281 28 135"/>
<path stroke-width="1" stroke="black" d="M 71 281 415 111"/>
<path stroke-width="1" stroke="black" d="M 71 281 291 243"/>
<path stroke-width="1" stroke="black" d="M 71 281 20 222"/>
<path stroke-width="1" stroke="black" d="M 71 281 96 67"/>
<path stroke-width="1" stroke="black" d="M 71 281 297 265"/>
<path stroke-width="1" stroke="black" d="M 71 281 207 20"/>
<path stroke-width="1" stroke="black" d="M 370 294 198 97"/>
<path stroke-width="1" stroke="black" d="M 71 281 73 214"/>
<path stroke-width="1" stroke="black" d="M 71 281 353 57"/>
<path stroke-width="1" stroke="black" d="M 71 281 392 168"/>
<path stroke-width="1" stroke="black" d="M 71 281 370 294"/>
<path stroke-width="1" stroke="black" d="M 71 281 310 144"/>
<path stroke-width="1" stroke="black" d="M 71 281 420 210"/>
<path stroke-width="1" stroke="black" d="M 71 281 30 125"/>
<path stroke-width="1" stroke="black" d="M 71 281 198 97"/>
<path stroke-width="1" stroke="black" d="M 71 281 106 55"/>
<path stroke-width="1" stroke="black" d="M 71 281 177 197"/>
<path stroke-width="1" stroke="black" d="M 310 144 150 263"/>
<path stroke-width="1" stroke="black" d="M 310 144 288 23"/>
<path stroke-width="1" stroke="black" d="M 310 144 165 181"/>
<path stroke-width="1" stroke="black" d="M 310 144 244 311"/>
<path stroke-width="1" stroke="black" d="M 71 281 159 320"/>
<path stroke-width="1" stroke="black" d="M 310 144 415 111"/>
<path stroke-width="1" stroke="black" d="M 370 294 30 125"/>
<path stroke-width="1" stroke="black" d="M 370 294 310 144"/>
<path stroke-width="1" stroke="black" d="M 392 168 207 20"/>
<path stroke-width="1" stroke="black" d="M 392 168 73 214"/>
<path stroke-width="1" stroke="black" d="M 392 168 159 320"/>
<path stroke-width="1" stroke="black" d="M 392 168 353 57"/>
<path stroke-width="1" stroke="black" d="M 392 168 370 294"/>
<path stroke-width="1" stroke="black" d="M 392 168 71 281"/>
<path stroke-width="1" stroke="black" d="M 392 168 310 144"/>
<path stroke-width="1" stroke="black" d="M 392 168 420 210"/>
<path stroke-width="1" stroke="black" d="M 392 168 30 125"/>
<path stroke-width="1" stroke="black" d="M 392 168 198 97"/>
<path stroke-width="1" stroke="black" d="M 392 168 106 55"/>
<path stroke-width="1" stroke="black" d="M 392 168 177 197"/>
<path stroke-width="1" stroke="black" d="M 370 294 150 263"/>
<path stroke-width="1" stroke="black" d="M 370 294 420 210"/>
<path stroke-width="1" stroke="black" d="M 370 294 288 23"/>
<path stroke-width="1" stroke="black" d="M 370 294 244 311"/>
<path stroke-width="1" stroke="black" d="M 370 294 28 135"/>
<path stroke-width="1" stroke="black" d="M 370 294 415 111"/>
<path stroke-width="1" stroke="black" d="M 370 294 291 243"/>
<path stroke-width="1" stroke="black" d="M 370 294 20 222"/>
<path stroke-width="1" stroke="black" d="M 370 294 96 67"/>
<path stroke-width="1" stroke="black" d="M 370 294 297 265"/>
<path stroke-width="1" stroke="black" d="M 370 294 207 20"/>
<path stroke-width="1" stroke="black" d="M 370 294 73 214"/>
<path stroke-width="1" stroke="black" d="M 370 294 159 320"/>
<path stroke-width="1" stroke="black" d="M 370 294 353 57"/>
<path stroke-width="1" stroke="black" d="M 370 294 392 168"/>
<path stroke-width="1" stroke="black" d="M 370 294 71 281"/>
<path stroke-width="1" stroke="black" d="M 370 294 165 181"/>
<path stroke-width="1" stroke="black" d="M 150 263 288 23"/>
<circle cx="177" cy="197" r="20.0" style="fill:gray;stroke:black;stroke-width:1.0"/>
<circle cx="106" cy="55" r="20.0" style="fill:gray;stroke:black;stroke-width:1.0"/>
<circle cx="198" cy="97" r="20.0" style="fill:gray;stroke:black;stroke-width:1.0"/>
<circle cx="30" cy="125" r="20.0" style="fill:gray;stroke:black;stroke-width:1.0"/>
<circle cx="420" cy="210" r="20.0" style="fill:gray;stroke:black;stroke-width:1.0"/>
<circle cx="310" cy="144" r="20.0" style="fill:gray;stroke:black;stroke-width:1.0"/>
<circle cx="71" cy="281" r="20.0" style="fill:gray;stroke:black;stroke-width:1.0"/>
<circle cx="370" cy="294" r="20.0" style="fill:gray;stroke:black;stroke-width:1.0"/>
<circle cx="392" cy="168" r="20.0" style="fill:gray;stroke:black;stroke-width:1.0"/>
<circle cx="353" cy="57" r="20.0" style="fill:gray;stroke:black;stroke-width:1.0"/>
<circle cx="159" cy="320" r="20.0" style="fill:gray;stroke:black;stroke-width:1.0"/>
<circle cx="73" cy="214" r="20.0" style="fill:gray;stroke:black;stroke-width:1.0"/>
<circle cx="207" cy="20" r="20.0" style="fill:gray;stroke:black;stroke-width:1.0"/>
<circle cx="297" cy="265" r="20.0" style="fill:gray;stroke:black;stroke-width:1.0"/>
<circle cx="96" cy="67" r="20.0" style="fill:gray;stroke:black;stroke-width:1.0"/>
<circle cx="20" cy="222" r="20.0" style="fill:gray;stroke:black;stroke-width:1.0"/>
<circle cx="291" cy="243" r="20.0" style="fill:gray;stroke:black;stroke-width:1.0"/>
<circle cx="415" cy="111" r="20.0" style="fill:gray;stroke:black;stroke-width:1.0"/>
<circle cx="28" cy="135" r="20.0" style="fill:gray;stroke:black;stroke-width:1.0"/>
<circle cx="244" cy="311" r="20.0" style="fill:gray;stroke:black;stroke-width:1.0"/>
<circle cx="165" cy="181" r="20.0" style="fill:gray;stroke:black;stroke-width:1.0"/>
<circle cx="288" cy="23" r="20.0" style="fill:gray;stroke:black;stroke-width:1.0"/>
<circle cx="150" cy="263" r="20.0" style="fill:gray;stroke:black;stroke-width:1.0"/>
</svg>
