<svg width="440" height="340" xmlns="http://www.w3.org/2000/svg">
<path stroke-width="20.0" stroke="black" d="M 234 180 153 147"/>
<path stroke-width="0.5" stroke="black" d="M 361 53 284 20"/>
<path stroke-width="0.5" stroke="black" d="M 361 53 309 292"/>
<path stroke-width="0.5" stroke="black" d="M 361 53 72 60"/>
<path stroke-width="0.5" stroke="black" d="M 361 53 20 129"/>
<path stroke-width="0.5" stroke="black" d="M 361 53 134 262"/>
<path stroke-width="0.5" stroke="black" d="M 361 53 25 211"/>
<path stroke-width="0.5" stroke="black" d="M 361 53 316 153"/>
<path stroke-width="0.5" stroke="black" d="M 361 53 229 248"/>
<path stroke-width="8.857142857142858" stroke="black" d="M 361 53 185 23"/>
<path stroke-width="0.5" stroke="black" d="M 361 53 363 241"/>
<path stroke-width="0.5" stroke="black" d="M 361 53 144 119"/>
<path stroke-width="0.5" stroke="black" d="M 361 53 372 239"/>
<path stroke-width="0.5" stroke="black" d="M 361 53 51 137"/>
<path stroke-width="0.5" stroke="black" d="M 361 53 153 147"/>
<path stroke-width="11.642857142857142" stroke="black" d="M 361 53 234 180"/>
<path stroke-width="8.857142857142858" stroke="black" d="M 284 20 401 105"/>
<path stroke-width="0.5" stroke="black" d="M 284 20 43 248"/>
<path stroke-width="0.5" stroke="black" d="M 284 20 144 292"/>
<path stroke-width="0.5" stroke="black" d="M 284 20 260 94"/>
<path stroke-width="0.5" stroke="black" d="M 284 20 420 171"/>
<path stroke-width="0.5" stroke="black" d="M 284 20 170 25"/>
<path stroke-width="0.5" stroke="black" d="M 284 20 227 320"/>
<path stroke-width="0.5" stroke="black" d="M 284 20 361 53"/>
<path stroke-width="0.5" stroke="black" d="M 284 20 309 292"/>
<path stroke-width="0.5" stroke="black" d="M 284 20 72 60"/>
<path stroke-width="0.5" stroke="black" d="M 284 20 20 129"/>
<path stroke-width="0.5" stroke="black" d="M 284 20 134 262"/>
<path stroke-width="0.5" stroke="black" d="M 361 53 227 320"/>
<path stroke-width="0.5" stroke="black" d="M 361 53 170 25"/>
<path stroke-width="0.5" stroke="black" d="M 361 53 420 171"/>
<path stroke-width="0.5" stroke="black" d="M 361 53 260 94"/>
<path stroke-width="0.5" stroke="black" d="M 170 25 51 137"/>
<path stroke-width="0.5" stroke="black" d="M 170 25 153 147"/>
<path stroke-width="11.642857142857142" stroke="black" d="M 170 25 234 180"/>
<path stroke-width="0.5" stroke="black" d="M 227 320 401 105"/>
<path stroke-width="0.5" stroke="black" d="M 227 320 43 248"/>
<path stroke-width="0.5" stroke="black" d="M 227 320 144 292"/>
<path stroke-width="0.5" stroke="black" d="M 227 320 260 94"/>
<path stroke-width="0.5" stroke="black" d="M 227 320 420 171"/>
<path stroke-width="0.5" stroke="black" d="M 227 320 170 25"/>
<path stroke-width="0.5" stroke="black" d="M 227 320 361 53"/>
<path stroke-width="0.5" stroke="black" d="M 227 320 284 20"/>
<path stroke-width="0.5" stroke="black" d="M 227 320 309 292"/>
<path stroke-width="0.5" stroke="black" d="M 227 320 72 60"/>
<path stroke-width="0.5" stroke="black" d="M 284 20 25 211"/>
<path stroke-width="0.5" stroke="black" d="M 227 320 20 129"/>
<path stroke-width="0.5" stroke="black" d="M 227 320 25 211"/>
<path stroke-width="0.5" stroke="black" d="M 227 320 316 153"/>
<path stroke-width="0.5" stroke="black" d="M 227 320 229 248"/>
<path stroke-width="0.5" stroke="black" d="M 227 320 185 23"/>
<path stroke-width="8.857142857142858" stroke="black" d="M 227 320 363 241"/>
<path stroke-width="0.5" stroke="black" d="M 227 320 144 119"/>
<path stroke-width="0.5" stroke="black" d="M 227 320 372 239"/>
<path stroke-width="0.5" stroke="black" d="M 227 320 51 137"/>
<path stroke-width="0.5" stroke="black" d="M 227 320 153 147"/>
<path stroke-width="11.642857142857142" stroke="black" d="M 227 320 234 180"/>
<path stroke-width="0.5" stroke="black" d="M 361 53 401 105"/>
<path stroke-width="0.5" stroke="black" d="M 361 53 43 248"/>
<path stroke-width="0.5" stroke="black" d="M 361 53 144 292"/>
<path stroke-width="0.5" stroke="black" d="M 227 320 134 262"/>
<path stroke-width="0.5" stroke="black" d="M 170 25 372 239"/>
<path stroke-width="0.5" stroke="black" d="M 284 20 316 153"/>
<path stroke-width="0.5" stroke="black" d="M 284 20 185 23"/>
<path stroke-width="0.5" stroke="black" d="M 72 60 420 171"/>
<path stroke-width="0.5" stroke="black" d="M 72 60 170 25"/>
<path stroke-width="0.5" stroke="black" d="M 72 60 227 320"/>
<path stroke-width="0.5" stroke="black" d="M 72 60 361 53"/>
<path stroke-width="0.5" stroke="black" d="M 72 60 284 20"/>
<path stroke-width="0.5" stroke="black" d="M 72 60 309 292"/>
<path stroke-width="0.5" stroke="black" d="M 72 60 20 129"/>
<path stroke-width="0.5" stroke="black" d="M 72 60 134 262"/>
<path stroke-width="0.5" stroke="black" d="M 72 60 25 211"/>
<path stroke-width="8.857142857142858" stroke="black" d="M 72 60 316 153"/>
<path stroke-width="0.5" stroke="black" d="M 72 60 229 248"/>
<path stroke-width="0.5" stroke="black" d="M 72 60 185 23"/>
<path stroke-width="0.5" stroke="black" d="M 72 60 363 241"/>
<path stroke-width="0.5" stroke="black" d="M 72 60 144 119"/>
<path stroke-width="0.5" stroke="black" d="M 72 60 372 239"/>
<path stroke-width="0.5" stroke="black" d="M 72 60 51 137"/>
<path stroke-width="0.5" stroke="black" d="M 72 60 153 147"/>
<path stroke-width="11.642857142857142" stroke="black" d="M 72 60 234 180"/>
<path stroke-width="0.5" stroke="black" d="M 20 129 401 105"/>
<path stroke-width="0.5" stroke="black" d="M 20 129 43 248"/>
<path stroke-width="0.5" stroke="black" d="M 20 129 144 292"/>
<path stroke-width="0.5" stroke="black" d="M 20 129 260 94"/>
<path stroke-width="0.5" stroke="black" d="M 20 129 420 171"/>
<path stroke-width="0.5" stroke="black" d="M 20 129 170 25"/>
<path stroke-width="0.5" stroke="black" d="M 20 129 227 320"/>
<path stroke-width="0.5" stroke="black" d="M 20 129 361 53"/>
<path stroke-width="0.5" stroke="black" d="M 20 129 284 20"/>
<path stroke-width="0.5" stroke="black" d="M 72 60 260 94"/>
<path stroke-width="0.5" stroke="black" d="M 72 60 144 292"/>
<path stroke-width="0.5" stroke="black" d="M 72 60 43 248"/>
<path stroke-width="0.5" stroke="black" d="M 72 60 401 105"/>
<path stroke-width="0.5" stroke="black" d="M 284 20 363 241"/>
<path stroke-width="0.5" stroke="black" d="M 284 20 144 119"/>
<path stroke-width="0.5" stroke="black" d="M 284 20 372 239"/>
<path stroke-width="0.5" stroke="black" d="M 284 20 51 137"/>
<path stroke-width="0.5" stroke="black" d="M 284 20 153 147"/>
<path stroke-width="11.642857142857142" stroke="black" d="M 284 20 234 180"/>
<path stroke-width="0.5" stroke="black" d="M 309 292 401 105"/>
<path stroke-width="0.5" stroke="black" d="M 309 292 43 248"/>
<path stroke-width="0.5" stroke="black" d="M 309 292 144 292"/>
<path stroke-width="0.5" stroke="black" d="M 309 292 260 94"/>
<path stroke-width="0.5" stroke="black" d="M 309 292 420 171"/>
<path stroke-width="0.5" stroke="black" d="M 309 292 170 25"/>
<path stroke-width="0.5" stroke="black" d="M 309 292 227 320"/>
<path stroke-width="0.5" stroke="black" d="M 284 20 229 248"/>
<path stroke-width="0.5" stroke="black" d="M 309 292 361 53"/>
<path stroke-width="0.5" stroke="black" d="M 309 292 72 60"/>
<path stroke-width="0.5" stroke="black" d="M 309 292 20 129"/>
<path stroke-width="0.5" stroke="black" d="M 309 292 134 262"/>
<path stroke-width="0.5" stroke="black" d="M 309 292 25 211"/>
<path stroke-width="0.5" stroke="black" d="M 309 292 316 153"/>
<path stroke-width="8.857142857142858" stroke="black" d="M 309 292 229 248"/>
<path stroke-width="0.5" stroke="black" d="M 309 292 185 23"/>
<path stroke-width="0.5" stroke="black" d="M 309 292 363 241"/>
<path stroke-width="0.5" stroke="black" d="M 309 292 144 119"/>
<path stroke-width="0.5" stroke="black" d="M 309 292 372 239"/>
<path stroke-width="0.5" stroke="black" d="M 309 292 51 137"/>
<path stroke-width="0.5" stroke="black" d="M 309 292 153 147"/>
<path stroke-width="11.642857142857142" stroke="black" d="M 309 292 234 180"/>
<path stroke-width="0.5" stroke="black" d="M 309 292 284 20"/>
<path stroke-width="8.857142857142858" stroke="black" d="M 170 25 144 119"/>
<path stroke-width="0.5" stroke="black" d="M 170 25 363 241"/>
<path stroke-width="0.5" stroke="black" d="M 170 25 185 23"/>
<path stroke-width="8.857142857142858" stroke="black" d="M 43 248 25 211"/>
<path stroke-width="0.5" stroke="black" d="M 43 248 316 153"/>
<path stroke-width="0.5" stroke="black" d="M 43 248 229 248"/>
<path stroke-width="0.5" stroke="black" d="M 43 248 185 23"/>
<path stroke-width="0.5" stroke="black" d="M 43 248 363 241"/>
<path stroke-width="0.5" stroke="black" d="M 43 248 144 119"/>
<path stroke-width="0.5" stroke="black" d="M 43 248 372 239"/>
<path stroke-width="0.5" stroke="black" d="M 43 248 51 137"/>
<path stroke-width="0.5" stroke="black" d="M 43 248 153 147"/>
<path stroke-width="11.642857142857142" stroke="black" d="M 43 248 234 180"/>
<path stroke-width="0.5" stroke="black" d="M 144 292 401 105"/>
<path stroke-width="0.5" stroke="black" d="M 144 292 43 248"/>
<path stroke-width="0.5" stroke="black" d="M 144 292 260 94"/>
<path stroke-width="0.5" stroke="black" d="M 144 292 420 171"/>
<path stroke-width="0.5" stroke="black" d="M 144 292 170 25"/>
<path stroke-width="0.5" stroke="black" d="M 144 292 227 320"/>
<path stroke-width="0.5" stroke="black" d="M 144 292 361 53"/>
<path stroke-width="0.5" stroke="black" d="M 144 292 284 20"/>
<path stroke-width="0.5" stroke="black" d="M 144 292 309 292"/>
<path stroke-width="0.5" stroke="black" d="M 144 292 72 60"/>
<path stroke-width="0.5" stroke="black" d="M 144 292 20 129"/>
<path stroke-width="0.5" stroke="black" d="M 144 292 134 262"/>
<path stroke-width="0.5" stroke="black" d="M 144 292 25 211"/>
<path stroke-width="0.5" stroke="black" d="M 144 292 316 153"/>
<path stroke-width="0.5" stroke="black" d="M 144 292 229 248"/>
<path stroke-width="0.5" stroke="black" d="M 144 292 185 23"/>
<path stroke-width="0.5" stroke="black" d="M 144 292 363 241"/>
<path stroke-width="0.5" stroke="black" d="M 43 248 134 262"/>
<path stroke-width="0.5" stroke="black" d="M 43 248 20 129"/>
<path stroke-width="0.5" stroke="black" d="M 43 248 72 60"/>
<path stroke-width="0.5" stroke="black" d="M 43 248 309 292"/>
<path stroke-width="0.5" stroke="black" d="M 401 105 260 94"/>
<path stroke-width="0.5" stroke="black" d="M 401 105 420 171"/>
<path stroke-width="0.5" stroke="black" d="M 401 105 170 25"/>
<path stroke-width="0.5" stroke="black" d="M 401 105 227 320"/>
<path stroke-width="0.5" stroke="black" d="M 401 105 361 53"/>
<path stroke-width="8.857142857142858" stroke="black" d="M 401 105 284 20"/>
<path stroke-width="0.5" stroke="black" d="M 401 105 309 292"/>
<path stroke-width="0.5" stroke="black" d="M 401 105 72 60"/>
<path stroke-width="0.5" stroke="black" d="M 401 105 20 129"/>
<path stroke-width="0.5" stroke="black" d="M 401 105 134 262"/>
<path stroke-width="0.5" stroke="black" d="M 401 105 25 211"/>
<path stroke-width="0.5" stroke="black" d="M 401 105 316 153"/>
<path stroke-width="0.5" stroke="black" d="M 401 105 229 248"/>
<path stroke-width="0.5" stroke="black" d="M 144 292 144 119"/>
<path stroke-width="0.5" stroke="black" d="M 401 105 185 23"/>
<path stroke-width="0.5" stroke="black" d="M 401 105 144 119"/>
<path stroke-width="0.5" stroke="black" d="M 401 105 372 239"/>
<path stroke-width="0.5" stroke="black" d="M 401 105 51 137"/>
<path stroke-width="0.5" stroke="black" d="M 401 105 153 147"/>
<path stroke-width="11.642857142857142" stroke="black" d="M 401 105 234 180"/>
<path stroke-width="0.5" stroke="black" d="M 43 248 401 105"/>
<path stroke-width="0.5" stroke="black" d="M 43 248 144 292"/>
<path stroke-width="0.5" stroke="black" d="M 43 248 260 94"/>
<path stroke-width="0.5" stroke="black" d="M 43 248 420 171"/>
<path stroke-width="0.5" stroke="black" d="M 43 248 170 25"/>
<path stroke-width="0.5" stroke="black" d="M 43 248 227 320"/>
<path stroke-width="0.5" stroke="black" d="M 43 248 361 53"/>
<path stroke-width="0.5" stroke="black" d="M 43 248 284 20"/>
<path stroke-width="0.5" stroke="black" d="M 401 105 363 241"/>
<path stroke-width="0.5" stroke="black" d="M 144 292 372 239"/>
<path stroke-width="0.5" stroke="black" d="M 144 292 51 137"/>
<path stroke-width="0.5" stroke="black" d="M 144 292 153 147"/>
<path stroke-width="0.5" stroke="black" d="M 420 171 72 60"/>
<path stroke-width="0.5" stroke="black" d="M 420 171 20 129"/>
<path stroke-width="0.5" stroke="black" d="M 420 171 134 262"/>
<path stroke-width="0.5" stroke="black" d="M 420 171 25 211"/>
<path stroke-width="0.5" stroke="black" d="M 420 171 316 153"/>
<path stroke-width="0.5" stroke="black" d="M 420 171 229 248"/>
<path stroke-width="0.5" stroke="black" d="M 420 171 185 23"/>
<path stroke-width="0.5" stroke="black" d="M 420 171 363 241"/>
<path stroke-width="0.5" stroke="black" d="M 420 171 144 119"/>
<path stroke-width="8.857142857142858" stroke="black" d="M 420 171 372 239"/>
<path stroke-width="0.5" stroke="black" d="M 420 171 51 137"/>
<path stroke-width="0.5" stroke="black" d="M 420 171 153 147"/>
<path stroke-width="11.642857142857142" stroke="black" d="M 420 171 234 180"/>
<path stroke-width="0.5" stroke="black" d="M 420 171 309 292"/>
<path stroke-width="0.5" stroke="black" d="M 170 25 401 105"/>
<path stroke-width="0.5" stroke="black" d="M 170 25 144 292"/>
<path stroke-width="0.5" stroke="black" d="M 170 25 260 94"/>
<path stroke-width="0.5" stroke="black" d="M 170 25 420 171"/>
<path stroke-width="0.5" stroke="black" d="M 170 25 227 320"/>
<path stroke-width="0.5" stroke="black" d="M 170 25 361 53"/>
<path stroke-width="0.5" stroke="black" d="M 170 25 284 20"/>
<path stroke-width="0.5" stroke="black" d="M 170 25 309 292"/>
<path stroke-width="0.5" stroke="black" d="M 170 25 72 60"/>
<path stroke-width="0.5" stroke="black" d="M 170 25 20 129"/>
<path stroke-width="0.5" stroke="black" d="M 170 25 134 262"/>
<path stroke-width="0.5" stroke="black" d="M 170 25 25 211"/>
<path stroke-width="0.5" stroke="black" d="M 170 25 316 153"/>
<path stroke-width="0.5" stroke="black" d="M 170 25 229 248"/>
<path stroke-width="0.5" stroke="black" d="M 170 25 43 248"/>
<path stroke-width="0.5" stroke="black" d="M 20 129 309 292"/>
<path stroke-width="0.5" stroke="black" d="M 420 171 284 20"/>
<path stroke-width="0.5" stroke="black" d="M 420 171 227 320"/>
<path stroke-width="20.0" stroke="black" d="M 144 292 234 180"/>
<path stroke-width="0.5" stroke="black" d="M 260 94 401 105"/>
<path stroke-width="0.5" stroke="black" d="M 260 94 43 248"/>
<path stroke-width="0.5" stroke="black" d="M 260 94 144 292"/>
<path stroke-width="0.5" stroke="black" d="M 260 94 420 171"/>
<path stroke-width="0.5" stroke="black" d="M 260 94 170 25"/>
<path stroke-width="0.5" stroke="black" d="M 260 94 227 320"/>
<path stroke-width="0.5" stroke="black" d="M 260 94 361 53"/>
<path stroke-width="0.5" stroke="black" d="M 260 94 284 20"/>
<path stroke-width="0.5" stroke="black" d="M 260 94 309 292"/>
<path stroke-width="0.5" stroke="black" d="M 260 94 72 60"/>
<path stroke-width="0.5" stroke="black" d="M 260 94 20 129"/>
<path stroke-width="0.5" stroke="black" d="M 260 94 134 262"/>
<path stroke-width="0.5" stroke="black" d="M 420 171 361 53"/>
<path stroke-width="0.5" stroke="black" d="M 260 94 25 211"/>
<path stroke-width="0.5" stroke="black" d="M 260 94 229 248"/>
<path stroke-width="0.5" stroke="black" d="M 260 94 185 23"/>
<path stroke-width="0.5" stroke="black" d="M 260 94 363 241"/>
<path stroke-width="0.5" stroke="black" d="M 260 94 144 119"/>
<path stroke-width="0.5" stroke="black" d="M 260 94 372 239"/>
<path stroke-width="8.857142857142858" stroke="black" d="M 260 94 51 137"/>
<path stroke-width="0.5" stroke="black" d="M 260 94 153 147"/>
<path stroke-width="11.642857142857142" stroke="black" d="M 260 94 234 180"/>
<path stroke-width="0.5" stroke="black" d="M 420 171 401 105"/>
<path stroke-width="0.5" stroke="black" d="M 420 171 43 248"/>
<path stroke-width="0.5" stroke="black" d="M 420 171 144 292"/>
<path stroke-width="0.5" stroke="black" d="M 420 171 260 94"/>
<path stroke-width="0.5" stroke="black" d="M 420 171 170 25"/>
<path stroke-width="0.5" stroke="black" d="M 260 94 316 153"/>
<path stroke-width="0.5" stroke="black" d="M 20 129 72 60"/>
<path stroke-width="8.857142857142858" stroke="black" d="M 20 129 134 262"/>
<path stroke-width="0.5" stroke="black" d="M 20 129 25 211"/>
<path stroke-width="0.5" stroke="black" d="M 144 119 372 239"/>
<path stroke-width="0.5" stroke="black" d="M 144 119 51 137"/>
<path stroke-width="0.5" stroke="black" d="M 144 119 153 147"/>
<path stroke-width="11.642857142857142" stroke="black" d="M 144 119 234 180"/>
<path stroke-width="0.5" stroke="black" d="M 372 239 401 105"/>
<path stroke-width="0.5" stroke="black" d="M 372 239 43 248"/>
<path stroke-width="0.5" stroke="black" d="M 372 239 144 292"/>
<path stroke-width="0.5" stroke="black" d="M 372 239 260 94"/>
<path stroke-width="8.857142857142858" stroke="black" d="M 372 239 420 171"/>
<path stroke-width="0.5" stroke="black" d="M 372 239 170 25"/>
<path stroke-width="0.5" stroke="black" d="M 372 239 227 320"/>
<path stroke-width="0.5" stroke="black" d="M 372 239 361 53"/>
<path stroke-width="0.5" stroke="black" d="M 372 239 284 20"/>
<path stroke-width="0.5" stroke="black" d="M 372 239 309 292"/>
<path stroke-width="0.5" stroke="black" d="M 372 239 72 60"/>
<path stroke-width="0.5" stroke="black" d="M 372 239 20 129"/>
<path stroke-width="0.5" stroke="black" d="M 372 239 134 262"/>
<path stroke-width="0.5" stroke="black" d="M 372 239 25 211"/>
<path stroke-width="0.5" stroke="black" d="M 372 239 316 153"/>
<path stroke-width="0.5" stroke="black" d="M 372 239 229 248"/>
<path stroke-width="0.5" stroke="black" d="M 372 239 185 23"/>
<path stroke-width="0.5" stroke="black" d="M 372 239 363 241"/>
<path stroke-width="0.5" stroke="black" d="M 372 239 144 119"/>
<path stroke-width="0.5" stroke="black" d="M 372 239 51 137"/>
<path stroke-width="0.5" stroke="black" d="M 372 239 153 147"/>
<path stroke-width="11.642857142857142" stroke="black" d="M 372 239 234 180"/>
<path stroke-width="0.5" stroke="black" d="M 51 137 401 105"/>
<path stroke-width="0.5" stroke="black" d="M 144 119 363 241"/>
<path stroke-width="0.5" stroke="black" d="M 144 119 185 23"/>
<path stroke-width="0.5" stroke="black" d="M 144 119 229 248"/>
<path stroke-width="0.5" stroke="black" d="M 144 119 316 153"/>
<path stroke-width="0.5" stroke="black" d="M 363 241 284 20"/>
<path stroke-width="0.5" stroke="black" d="M 363 241 309 292"/>
<path stroke-width="0.5" stroke="black" d="M 363 241 72 60"/>
<path stroke-width="0.5" stroke="black" d="M 363 241 20 129"/>
<path stroke-width="0.5" stroke="black" d="M 363 241 134 262"/>
<path stroke-width="0.5" stroke="black" d="M 363 241 25 211"/>
<path stroke-width="0.5" stroke="black" d="M 363 241 316 153"/>
<path stroke-width="0.5" stroke="black" d="M 363 241 229 248"/>
<path stroke-width="0.5" stroke="black" d="M 363 241 185 23"/>
<path stroke-width="0.5" stroke="black" d="M 363 241 144 119"/>
<path stroke-width="0.5" stroke="black" d="M 363 241 372 239"/>
<path stroke-width="0.5" stroke="black" d="M 363 241 51 137"/>
<path stroke-width="0.5" stroke="black" d="M 363 241 153 147"/>
<path stroke-width="0.5" stroke="black" d="M 51 137 43 248"/>
<path stroke-width="11.642857142857142" stroke="black" d="M 363 241 234 180"/>
<path stroke-width="0.5" stroke="black" d="M 144 119 43 248"/>
<path stroke-width="0.5" stroke="black" d="M 144 119 144 292"/>
<path stroke-width="0.5" stroke="black" d="M 144 119 260 94"/>
<path stroke-width="0.5" stroke="black" d="M 144 119 420 171"/>
<path stroke-width="8.857142857142858" stroke="black" d="M 144 119 170 25"/>
<path stroke-width="0.5" stroke="black" d="M 144 119 227 320"/>
<path stroke-width="0.5" stroke="black" d="M 144 119 361 53"/>
<path stroke-width="0.5" stroke="black" d="M 144 119 284 20"/>
<path stroke-width="0.5" stroke="black" d="M 144 119 309 292"/>
<path stroke-width="0.5" stroke="black" d="M 144 119 72 60"/>
<path stroke-width="0.5" stroke="black" d="M 144 119 20 129"/>
<path stroke-width="0.5" stroke="black" d="M 144 119 134 262"/>
<path stroke-width="0.5" stroke="black" d="M 144 119 25 211"/>
<path stroke-width="0.5" stroke="black" d="M 144 119 401 105"/>
<path stroke-width="0.5" stroke="black" d="M 51 137 144 292"/>
<path stroke-width="8.857142857142858" stroke="black" d="M 51 137 260 94"/>
<path stroke-width="0.5" stroke="black" d="M 51 137 420 171"/>
<path stroke-width="0.5" stroke="black" d="M 153 147 229 248"/>
<path stroke-width="0.5" stroke="black" d="M 153 147 185 23"/>
<path stroke-width="0.5" stroke="black" d="M 153 147 363 241"/>
<path stroke-width="0.5" stroke="black" d="M 153 147 144 119"/>
<path stroke-width="0.5" stroke="black" d="M 153 147 372 239"/>
<path stroke-width="0.5" stroke="black" d="M 153 147 51 137"/>
<path stroke-width="20.0" stroke="black" d="M 153 147 234 180"/>
<path stroke-width="11.642857142857142" stroke="black" d="M 234 180 401 105"/>
<path stroke-width="11.642857142857142" stroke="black" d="M 234 180 43 248"/>
<path stroke-width="20.0" stroke="black" d="M 234 180 144 292"/>
<path stroke-width="11.642857142857142" stroke="black" d="M 234 180 260 94"/>
<path stroke-width="11.642857142857142" stroke="black" d="M 234 180 420 171"/>
<path stroke-width="11.642857142857142" stroke="black" d="M 234 180 170 25"/>
<path stroke-width="0.5" stroke="black" d="M 153 147 316 153"/>
<path stroke-width="11.642857142857142" stroke="black" d="M 234 180 227 320"/>
<path stroke-width="11.642857142857142" stroke="black" d="M 234 180 284 20"/>
<path stroke-width="11.642857142857142" stroke="black" d="M 234 180 309 292"/>
<path stroke-width="11.642857142857142" stroke="black" d="M 234 180 72 60"/>
<path stroke-width="11.642857142857142" stroke="black" d="M 234 180 20 129"/>
<path stroke-width="11.642857142857142" stroke="black" d="M 234 180 134 262"/>
<path stroke-width="11.642857142857142" stroke="black" d="M 234 180 25 211"/>
<path stroke-width="11.642857142857142" stroke="black" d="M 234 180 316 153"/>
<path stroke-width="11.642857142857142" stroke="black" d="M 234 180 229 248"/>
<path stroke-width="11.642857142857142" stroke="black" d="M 234 180 185 23"/>
<path stroke-width="11.642857142857142" stroke="black" d="M 234 180 363 241"/>
<path stroke-width="11.642857142857142" stroke="black" d="M 234 180 144 119"/>
<path stroke-width="11.642857142857142" stroke="black" d="M 234 180 372 239"/>
<path stroke-width="11.642857142857142" stroke="black" d="M 234 180 51 137"/>
<path stroke-width="11.642857142857142" stroke="black" d="M 234 180 361 53"/>
<path stroke-width="0.5" stroke="black" d="M 363 241 361 53"/>
<path stroke-width="0.5" stroke="black" d="M 153 147 25 211"/>
<path stroke-width="0.5" stroke="black" d="M 153 147 20 129"/>
<path stroke-width="0.5" stroke="black" d="M 51 137 170 25"/>
<path stroke-width="0.5" stroke="black" d="M 51 137 227 320"/>
<path stroke-width="0.5" stroke="black" d="M 51 137 361 53"/>
<path stroke-width="0.5" stroke="black" d="M 51 137 284 20"/>
<path stroke-width="0.5" stroke="black" d="M 51 137 309 292"/>
<path stroke-width="0.5" stroke="black" d="M 51 137 72 60"/>
<path stroke-width="0.5" stroke="black" d="M 51 137 20 129"/>
<path stroke-width="0.5" stroke="black" d="M 51 137 134 262"/>
<path stroke-width="0.5" stroke="black" d="M 51 137 25 211"/>
<path stroke-width="0.5" stroke="black" d="M 51 137 316 153"/>
<path stroke-width="0.5" stroke="black" d="M 51 137 229 248"/>
<path stroke-width="0.5" stroke="black" d="M 51 137 185 23"/>
<path stroke-width="0.5" stroke="black" d="M 51 137 363 241"/>
<path stroke-width="0.5" stroke="black" d="M 153 147 134 262"/>
<path stroke-width="0.5" stroke="black" d="M 51 137 144 119"/>
<path stroke-width="0.5" stroke="black" d="M 51 137 153 147"/>
<path stroke-width="11.642857142857142" stroke="black" d="M 51 137 234 180"/>
<path stroke-width="0.5" stroke="black" d="M 153 147 401 105"/>
<path stroke-width="0.5" stroke="black" d="M 153 147 43 248"/>
<path stroke-width="0.5" stroke="black" d="M 153 147 144 292"/>
<path stroke-width="0.5" stroke="black" d="M 153 147 260 94"/>
<path stroke-width="0.5" stroke="black" d="M 153 147 420 171"/>
<path stroke-width="0.5" stroke="black" d="M 153 147 170 25"/>
<path stroke-width="0.5" stroke="black" d="M 153 147 227 320"/>
<path stroke-width="0.5" stroke="black" d="M 153 147 361 53"/>
<path stroke-width="0.5" stroke="black" d="M 153 147 284 20"/>
<path stroke-width="0.5" stroke="black" d="M 153 147 309 292"/>
<path stroke-width="0.5" stroke="black" d="M 153 147 72 60"/>
<path stroke-width="0.5" stroke="black" d="M 51 137 372 239"/>
<path stroke-width="0.5" stroke="black" d="M 401 105 144 292"/>
<path stroke-width="8.857142857142858" stroke="black" d="M 363 241 227 320"/>
<path stroke-width="0.5" stroke="black" d="M 363 241 420 171"/>
<path stroke-width="8.857142857142858" stroke="black" d="M 25 211 43 248"/>
<path stroke-width="0.5" stroke="black" d="M 25 211 144 292"/>
<path stroke-width="0.5" stroke="black" d="M 25 211 260 94"/>
<path stroke-width="0.5" stroke="black" d="M 25 211 420 171"/>
<path stroke-width="0.5" stroke="black" d="M 25 211 170 25"/>
<path stroke-width="0.5" stroke="black" d="M 25 211 227 320"/>
<path stroke-width="0.5" stroke="black" d="M 25 211 361 53"/>
<path stroke-width="0.5" stroke="black" d="M 25 211 284 20"/>
<path stroke-width="0.5" stroke="black" d="M 25 211 309 292"/>
<path stroke-width="0.5" stroke="black" d="M 25 211 72 60"/>
<path stroke-width="0.5" stroke="black" d="M 25 211 20 129"/>
<path stroke-width="0.5" stroke="black" d="M 25 211 134 262"/>
<path stroke-width="0.5" stroke="black" d="M 25 211 316 153"/>
<path stroke-width="0.5" stroke="black" d="M 25 211 229 248"/>
<path stroke-width="0.5" stroke="black" d="M 25 211 185 23"/>
<path stroke-width="0.5" stroke="black" d="M 25 211 363 241"/>
<path stroke-width="0.5" stroke="black" d="M 25 211 144 119"/>
<path stroke-width="0.5" stroke="black" d="M 25 211 372 239"/>
<path stroke-width="0.5" stroke="black" d="M 25 211 51 137"/>
<path stroke-width="0.5" stroke="black" d="M 25 211 153 147"/>
<path stroke-width="11.642857142857142" stroke="black" d="M 25 211 234 180"/>
<path stroke-width="0.5" stroke="black" d="M 316 153 401 105"/>
<path stroke-width="0.5" stroke="black" d="M 316 153 43 248"/>
<path stroke-width="0.5" stroke="black" d="M 316 153 144 292"/>
<path stroke-width="0.5" stroke="black" d="M 316 153 260 94"/>
<path stroke-width="0.5" stroke="black" d="M 316 153 420 171"/>
<path stroke-width="0.5" stroke="black" d="M 316 153 170 25"/>
<path stroke-width="0.5" stroke="black" d="M 25 211 401 105"/>
<path stroke-width="11.642857142857142" stroke="black" d="M 134 262 234 180"/>
<path stroke-width="0.5" stroke="black" d="M 134 262 153 147"/>
<path stroke-width="0.5" stroke="black" d="M 134 262 51 137"/>
<path stroke-width="0.5" stroke="black" d="M 20 129 316 153"/>
<path stroke-width="0.5" stroke="black" d="M 20 129 229 248"/>
<path stroke-width="0.5" stroke="black" d="M 20 129 185 23"/>
<path stroke-width="0.5" stroke="black" d="M 20 129 363 241"/>
<path stroke-width="0.5" stroke="black" d="M 20 129 144 119"/>
<path stroke-width="0.5" stroke="black" d="M 20 129 372 239"/>
<path stroke-width="0.5" stroke="black" d="M 20 129 51 137"/>
<path stroke-width="0.5" stroke="black" d="M 20 129 153 147"/>
<path stroke-width="11.642857142857142" stroke="black" d="M 20 129 234 180"/>
<path stroke-width="0.5" stroke="black" d="M 134 262 401 105"/>
<path stroke-width="0.5" stroke="black" d="M 134 262 43 248"/>
<path stroke-width="0.5" stroke="black" d="M 134 262 144 292"/>
<path stroke-width="0.5" stroke="black" d="M 134 262 260 94"/>
<path stroke-width="0.5" stroke="black" d="M 316 153 227 320"/>
<path stroke-width="0.5" stroke="black" d="M 134 262 420 171"/>
<path stroke-width="0.5" stroke="black" d="M 134 262 227 320"/>
<path stroke-width="0.5" stroke="black" d="M 134 262 361 53"/>
<path stroke-width="0.5" stroke="black" d="M 134 262 284 20"/>
<path stroke-width="0.5" stroke="black" d="M 134 262 309 292"/>
<path stroke-width="0.5" stroke="black" d="M 134 262 72 60"/>
<path stroke-width="8.857142857142858" stroke="black" d="M 134 262 20 129"/>
<path stroke-width="0.5" stroke="black" d="M 134 262 25 211"/>
<path stroke-width="0.5" stroke="black" d="M 134 262 316 153"/>
<path stroke-width="0.5" stroke="black" d="M 134 262 229 248"/>
<path stroke-width="0.5" stroke="black" d="M 134 262 185 23"/>
<path stroke-width="0.5" stroke="black" d="M 134 262 363 241"/>
<path stroke-width="0.5" stroke="black" d="M 134 262 144 119"/>
<path stroke-width="0.5" stroke="black" d="M 134 262 372 239"/>
<path stroke-width="0.5" stroke="black" d="M 134 262 170 25"/>
<path stroke-width="0.5" stroke="black" d="M 316 153 361 53"/>
<path stroke-width="0.5" stroke="black" d="M 316 153 284 20"/>
<path stroke-width="0.5" stroke="black" d="M 316 153 309 292"/>
<path stroke-width="0.5" stroke="black" d="M 229 248 153 147"/>
<path stroke-width="11.642857142857142" stroke="black" d="M 229 248 234 180"/>
<path stroke-width="0.5" stroke="black" d="M 185 23 401 105"/>
<path stroke-width="0.5" stroke="black" d="M 185 23 43 248"/>
<path stroke-width="0.5" stroke="black" d="M 185 23 144 292"/>
<path stroke-width="0.5" stroke="black" d="M 185 23 260 94"/>
<path stroke-width="0.5" stroke="black" d="M 185 23 420 171"/>
<path stroke-width="0.5" stroke="black" d="M 185 23 170 25"/>
<path stroke-width="0.5" stroke="black" d="M 185 23 227 320"/>
<path stroke-width="8.857142857142858" stroke="black" d="M 185 23 361 53"/>
<path stroke-width="0.5" stroke="black" d="M 185 23 284 20"/>
<path stroke-width="0.5" stroke="black" d="M 185 23 309 292"/>
<path stroke-width="0.5" stroke="black" d="M 185 23 72 60"/>
<path stroke-width="0.5" stroke="black" d="M 229 248 51 137"/>
<path stroke-width="0.5" stroke="black" d="M 185 23 20 129"/>
<path stroke-width="0.5" stroke="black" d="M 185 23 25 211"/>
<path stroke-width="0.5" stroke="black" d="M 185 23 316 153"/>
<path stroke-width="0.5" stroke="black" d="M 185 23 229 248"/>
<path stroke-width="0.5" stroke="black" d="M 185 23 363 241"/>
<path stroke-width="0.5" stroke="black" d="M 185 23 144 119"/>
<path stroke-width="0.5" stroke="black" d="M 185 23 372 239"/>
<path stroke-width="0.5" stroke="black" d="M 185 23 51 137"/>
<path stroke-width="0.5" stroke="black" d="M 185 23 153 147"/>
<path stroke-width="11.642857142857142" stroke="black" d="M 185 23 234 180"/>
<path stroke-width="0.5" stroke="black" d="M 363 241 401 105"/>
<path stroke-width="0.5" stroke="black" d="M 363 241 43 248"/>
<path stroke-width="0.5" stroke="black" d="M 363 241 144 292"/>
<path stroke-width="0.5" stroke="black" d="M 363 241 260 94"/>
<path stroke-width="0.5" stroke="black" d="M 185 23 134 262"/>
<path stroke-width="0.5" stroke="black" d="M 363 241 170 25"/>
<path stroke-width="0.5" stroke="black" d="M 229 248 372 239"/>
<path stroke-width="0.5" stroke="black" d="M 229 248 363 241"/>
<path stroke-width="8.857142857142858" stroke="black" d="M 316 153 72 60"/>
<path stroke-width="0.5" stroke="black" d="M 316 153 20 129"/>
<path stroke-width="0.5" stroke="black" d="M 316 153 134 262"/>
<path stroke-width="0.5" stroke="black" d="M 316 153 25 211"/>
<path stroke-width="0.5" stroke="black" d="M 316 153 229 248"/>
<path stroke-width="0.5" stroke="black" d="M 316 153 185 23"/>
<path stroke-width="0.5" stroke="black" d="M 316 153 363 241"/>
<path stroke-width="0.5" stroke="black" d="M 316 153 144 119"/>
<path stroke-width="0.5" stroke="black" d="M 316 153 372 239"/>
<path stroke-width="0.5" stroke="black" d="M 316 153 51 137"/>
<path stroke-width="0.5" stroke="black" d="M 316 153 153 147"/>
<path stroke-width="11.642857142857142" stroke="black" d="M 316 153 234 180"/>
<path stroke-width="0.5" stroke="black" d="M 229 248 401 105"/>
<path stroke-width="0.5" stroke="black" d="M 229 248 144 119"/>
<path stroke-width="0.5" stroke="black" d="M 229 248 43 248"/>
<path stroke-width="0.5" stroke="black" d="M 229 248 260 94"/>
<path stroke-width="0.5" stroke="black" d="M 229 248 420 171"/>
<path stroke-width="0.5" stroke="black" d="M 229 248 170 25"/>
<path stroke-width="0.5" stroke="black" d="M 229 248 227 320"/>
<path stroke-width="0.5" stroke="black" d="M 229 248 361 53"/>
<path stroke-width="0.5" stroke="black" d="M 229 248 284 20"/>
<path stroke-width="8.857142857142858" stroke="black" d="M 229 248 309 292"/>
<path stroke-width="0.5" stroke="black" d="M 229 248 72 60"/>
<path stroke-width="0.5" stroke="black" d="M 229 248 20 129"/>
<path stroke-width="0.5" stroke="black" d="M 229 248 134 262"/>
<path stroke-width="0.5" stroke="black" d="M 229 248 25 211"/>
<path stroke-width="0.5" stroke="black" d="M 229 248 316 153"/>
<path stroke-width="0.5" stroke="black" d="M 229 248 185 23"/>
<path stroke-width="0.5" stroke="black" d="M 229 248 144 292"/>
<path stroke-width="0.5" stroke="black" d="M 401 105 43 248"/>
<circle cx="234" cy="180" r="7.0" style="fill:blue;stroke:black;stroke-width:1.0"/>
<circle cx="153" cy="147" r="7.0" style="fill:blue;stroke:black;stroke-width:1.0"/>
<circle cx="51" cy="137" r="7.0" style="fill:yellow;stroke:black;stroke-width:1.0"/>
<circle cx="372" cy="239" r="7.0" style="fill:purple;stroke:black;stroke-width:1.0"/>
<circle cx="144" cy="119" r="7.0" style="fill:orange;stroke:black;stroke-width:1.0"/>
<circle cx="363" cy="241" r="7.0" style="fill:green;stroke:black;stroke-width:1.0"/>
<circle cx="185" cy="23" r="7.0" style="fill:red;stroke:black;stroke-width:1.0"/>
<circle cx="229" cy="248" r="7.0" style="fill:blue;stroke:black;stroke-width:1.0"/>
<circle cx="316" cy="153" r="7.0" style="fill:blue;stroke:black;stroke-width:1.0"/>
<circle cx="25" cy="211" r="7.0" style="fill:fuchsia;stroke:black;stroke-width:1.0"/>
<circle cx="134" cy="262" r="7.0" style="fill:blue;stroke:black;stroke-width:1.0"/>
<circle cx="20" cy="129" r="7.0" style="fill:blue;stroke:black;stroke-width:1.0"/>
<circle cx="72" cy="60" r="7.0" style="fill:blue;stroke:black;stroke-width:1.0"/>
<circle cx="309" cy="292" r="7.0" style="fill:blue;stroke:black;stroke-width:1.0"/>
<circle cx="284" cy="20" r="7.0" style="fill:olive;stroke:black;stroke-width:1.0"/>
<circle cx="361" cy="53" r="7.0" style="fill:red;stroke:black;stroke-width:1.0"/>
<circle cx="227" cy="320" r="7.0" style="fill:green;stroke:black;stroke-width:1.0"/>
<circle cx="170" cy="25" r="7.0" style="fill:orange;stroke:black;stroke-width:1.0"/>
<circle cx="420" cy="171" r="7.0" style="fill:purple;stroke:black;stroke-width:1.0"/>
<circle cx="260" cy="94" r="7.0" style="fill:yellow;stroke:black;stroke-width:1.0"/>
<circle cx="144" cy="292" r="7.0" style="fill:blue;stroke:black;stroke-width:1.0"/>
<circle cx="43" cy="248" r="7.0" style="fill:fuchsia;stroke:black;stroke-width:1.0"/>
<circle cx="401" cy="105" r="7.0" style="fill:olive;stroke:black;stroke-width:1.0"/>
</svg>
