<svg width="440" height="340" xmlns="http://www.w3.org/2000/svg">
<path stroke-width="20.0" stroke="black" d="M 261 179 111 33"/>
<path stroke-width="0.5" stroke="black" d="M 253 320 103 278"/>
<path stroke-width="0.5" stroke="black" d="M 253 320 420 111"/>
<path stroke-width="0.5" stroke="black" d="M 253 320 394 241"/>
<path stroke-width="0.5" stroke="black" d="M 253 320 308 20"/>
<path stroke-width="0.5" stroke="black" d="M 253 320 20 165"/>
<path stroke-width="20.0" stroke="black" d="M 394 241 261 179"/>
<path stroke-width="0.5" stroke="black" d="M 394 241 111 33"/>
<path stroke-width="0.5" stroke="black" d="M 394 241 103 278"/>
<path stroke-width="0.5" stroke="black" d="M 394 241 420 111"/>
<path stroke-width="0.5" stroke="black" d="M 394 241 253 320"/>
<path stroke-width="0.5" stroke="black" d="M 394 241 308 20"/>
<path stroke-width="0.5" stroke="black" d="M 253 320 111 33"/>
<path stroke-width="0.5" stroke="black" d="M 394 241 20 165"/>
<path stroke-width="0.5" stroke="black" d="M 308 20 111 33"/>
<path stroke-width="0.5" stroke="black" d="M 308 20 103 278"/>
<path stroke-width="0.5" stroke="black" d="M 308 20 420 111"/>
<path stroke-width="0.5" stroke="black" d="M 308 20 253 320"/>
<path stroke-width="0.5" stroke="black" d="M 308 20 394 241"/>
<path stroke-width="0.5" stroke="black" d="M 308 20 20 165"/>
<path stroke-width="20.0" stroke="black" d="M 20 165 261 179"/>
<path stroke-width="0.5" stroke="black" d="M 20 165 111 33"/>
<path stroke-width="0.5" stroke="black" d="M 20 165 103 278"/>
<path stroke-width="0.5" stroke="black" d="M 20 165 420 111"/>
<path stroke-width="0.5" stroke="black" d="M 20 165 253 320"/>
<path stroke-width="20.0" stroke="black" d="M 308 20 261 179"/>
<path stroke-width="20.0" stroke="black" d="M 253 320 261 179"/>
<path stroke-width="0.5" stroke="black" d="M 420 111 20 165"/>
<path stroke-width="0.5" stroke="black" d="M 420 111 308 20"/>
<path stroke-width="20.0" stroke="black" d="M 261 179 103 278"/>
<path stroke-width="20.0" stroke="black" d="M 261 179 420 111"/>
<path stroke-width="20.0" stroke="black" d="M 261 179 253 320"/>
<path stroke-width="20.0" stroke="black" d="M 261 179 394 241"/>
<path stroke-width="20.0" stroke="black" d="M 261 179 308 20"/>
<path stroke-width="20.0" stroke="black" d="M 261 179 20 165"/>
<path stroke-width="20.0" stroke="black" d="M 111 33 261 179"/>
<path stroke-width="0.5" stroke="black" d="M 111 33 103 278"/>
<path stroke-width="0.5" stroke="black" d="M 111 33 420 111"/>
<path stroke-width="0.5" stroke="black" d="M 111 33 253 320"/>
<path stroke-width="0.5" stroke="black" d="M 111 33 394 241"/>
<path stroke-width="0.5" stroke="black" d="M 111 33 308 20"/>
<path stroke-width="0.5" stroke="black" d="M 111 33 20 165"/>
<path stroke-width="20.0" stroke="black" d="M 103 278 261 179"/>
<path stroke-width="0.5" stroke="black" d="M 103 278 111 33"/>
<path stroke-width="0.5" stroke="black" d="M 103 278 420 111"/>
<path stroke-width="0.5" stroke="black" d="M 103 278 253 320"/>
<path stroke-width="0.5" stroke="black" d="M 103 278 394 241"/>
<path stroke-width="0.5" stroke="black" d="M 103 278 308 20"/>
<path stroke-width="0.5" stroke="black" d="M 103 278 20 165"/>
<path stroke-width="20.0" stroke="black" d="M 420 111 261 179"/>
<path stroke-width="0.5" stroke="black" d="M 420 111 111 33"/>
<path stroke-width="0.5" stroke="black" d="M 420 111 103 278"/>
<path stroke-width="0.5" stroke="black" d="M 420 111 253 320"/>
<path stroke-width="0.5" stroke="black" d="M 420 111 394 241"/>
<path stroke-width="0.5" stroke="black" d="M 20 165 394 241"/>
<path stroke-width="0.5" stroke="black" d="M 20 165 308 20"/>
<circle cx="261" cy="179" r="7.0" style="fill:gray;stroke:black;stroke-width:1.0"/>
<circle cx="111" cy="33" r="7.0" style="fill:gray;stroke:black;stroke-width:1.0"/>
<circle cx="103" cy="278" r="7.0" style="fill:gray;stroke:black;stroke-width:1.0"/>
<circle cx="420" cy="111" r="7.0" style="fill:gray;stroke:black;stroke-width:1.0"/>
<circle cx="253" cy="320" r="7.0" style="fill:gray;stroke:black;stroke-width:1.0"/>
<circle cx="394" cy="241" r="7.0" style="fill:gray;stroke:black;stroke-width:1.0"/>
<circle cx="308" cy="20" r="7.0" style="fill:gray;stroke:black;stroke-width:1.0"/>
<circle cx="20" cy="165" r="7.0" style="fill:gray;stroke:black;stroke-width:1.0"/>
</svg>
