<svg width="440" height="340" xmlns="http://www.w3.org/2000/svg">
<path stroke-width="1" stroke="black" d="M 225 198 179 185"/>
<path stroke-width="1" stroke="black" d="M 284 316 358 47"/>
<path stroke-width="1" stroke="black" d="M 284 316 37 230"/>
<path stroke-width="1" stroke="black" d="M 284 316 240 309"/>
<path stroke-width="1" stroke="black" d="M 284 316 20 180"/>
<path stroke-width="1" stroke="black" d="M 284 316 275 90"/>
<path stroke-width="1" stroke="black" d="M 284 316 82 254"/>
<path stroke-width="1" stroke="black" d="M 284 316 323 255"/>
<path stroke-width="1" stroke="black" d="M 284 316 164 259"/>
<path stroke-width="1" stroke="black" d="M 284 316 254 20"/>
<path stroke-width="1" stroke="black" d="M 284 316 375 278"/>
<path stroke-width="1" stroke="black" d="M 284 316 137 320"/>
<path stroke-width="1" stroke="black" d="M 323 255 225 198"/>
<path stroke-width="1" stroke="black" d="M 284 316 139 88"/>
<path stroke-width="1" stroke="black" d="M 284 316 41 118"/>
<path stroke-width="1" stroke="black" d="M 284 316 151 39"/>
<path stroke-width="1" stroke="black" d="M 284 316 232 188"/>
<path stroke-width="1" stroke="black" d="M 284 316 368 115"/>
<path stroke-width="1" stroke="black" d="M 284 316 51 86"/>
<path stroke-width="1" stroke="black" d="M 284 316 420 176"/>
<path stroke-width="1" stroke="black" d="M 284 316 179 185"/>
<path stroke-width="1" stroke="black" d="M 284 316 225 198"/>
<path stroke-width="1" stroke="black" d="M 164 259 358 47"/>
<path stroke-width="1" stroke="black" d="M 164 259 37 230"/>
<path stroke-width="1" stroke="black" d="M 164 259 240 309"/>
<path stroke-width="1" stroke="black" d="M 284 316 416 183"/>
<path stroke-width="1" stroke="black" d="M 323 255 179 185"/>
<path stroke-width="1" stroke="black" d="M 323 255 420 176"/>
<path stroke-width="1" stroke="black" d="M 323 255 51 86"/>
<path stroke-width="1" stroke="black" d="M 82 254 41 118"/>
<path stroke-width="1" stroke="black" d="M 82 254 151 39"/>
<path stroke-width="1" stroke="black" d="M 82 254 232 188"/>
<path stroke-width="1" stroke="black" d="M 82 254 368 115"/>
<path stroke-width="1" stroke="black" d="M 82 254 51 86"/>
<path stroke-width="1" stroke="black" d="M 82 254 420 176"/>
<path stroke-width="1" stroke="black" d="M 82 254 179 185"/>
<path stroke-width="1" stroke="black" d="M 82 254 225 198"/>
<path stroke-width="1" stroke="black" d="M 323 255 358 47"/>
<path stroke-width="1" stroke="black" d="M 323 255 37 230"/>
<path stroke-width="1" stroke="black" d="M 323 255 240 309"/>
<path stroke-width="1" stroke="black" d="M 323 255 20 180"/>
<path stroke-width="1" stroke="black" d="M 323 255 275 90"/>
<path stroke-width="1" stroke="black" d="M 323 255 82 254"/>
<path stroke-width="1" stroke="black" d="M 323 255 284 316"/>
<path stroke-width="1" stroke="black" d="M 323 255 164 259"/>
<path stroke-width="1" stroke="black" d="M 323 255 254 20"/>
<path stroke-width="1" stroke="black" d="M 323 255 375 278"/>
<path stroke-width="1" stroke="black" d="M 323 255 137 320"/>
<path stroke-width="1" stroke="black" d="M 323 255 139 88"/>
<path stroke-width="1" stroke="black" d="M 323 255 416 183"/>
<path stroke-width="1" stroke="black" d="M 323 255 41 118"/>
<path stroke-width="1" stroke="black" d="M 323 255 151 39"/>
<path stroke-width="1" stroke="black" d="M 323 255 232 188"/>
<path stroke-width="1" stroke="black" d="M 323 255 368 115"/>
<path stroke-width="1" stroke="black" d="M 164 259 20 180"/>
<path stroke-width="1" stroke="black" d="M 164 259 275 90"/>
<path stroke-width="1" stroke="black" d="M 164 259 82 254"/>
<path stroke-width="1" stroke="black" d="M 164 259 323 255"/>
<path stroke-width="1" stroke="black" d="M 254 20 232 188"/>
<path stroke-width="1" stroke="black" d="M 254 20 368 115"/>
<path stroke-width="1" stroke="black" d="M 254 20 51 86"/>
<path stroke-width="1" stroke="black" d="M 254 20 420 176"/>
<path stroke-width="1" stroke="black" d="M 254 20 179 185"/>
<path stroke-width="1" stroke="black" d="M 254 20 225 198"/>
<path stroke-width="1" stroke="black" d="M 375 278 358 47"/>
<path stroke-width="1" stroke="black" d="M 375 278 37 230"/>
<path stroke-width="1" stroke="black" d="M 375 278 240 309"/>
<path stroke-width="1" stroke="black" d="M 375 278 20 180"/>
<path stroke-width="1" stroke="black" d="M 375 278 275 90"/>
<path stroke-width="1" stroke="black" d="M 375 278 82 254"/>
<path stroke-width="1" stroke="black" d="M 375 278 323 255"/>
<path stroke-width="1" stroke="black" d="M 375 278 284 316"/>
<path stroke-width="1" stroke="black" d="M 375 278 164 259"/>
<path stroke-width="1" stroke="black" d="M 375 278 254 20"/>
<path stroke-width="1" stroke="black" d="M 375 278 137 320"/>
<path stroke-width="1" stroke="black" d="M 375 278 139 88"/>
<path stroke-width="1" stroke="black" d="M 375 278 416 183"/>
<path stroke-width="1" stroke="black" d="M 375 278 41 118"/>
<path stroke-width="1" stroke="black" d="M 375 278 151 39"/>
<path stroke-width="1" stroke="black" d="M 375 278 232 188"/>
<path stroke-width="1" stroke="black" d="M 375 278 368 115"/>
<path stroke-width="1" stroke="black" d="M 375 278 51 86"/>
<path stroke-width="1" stroke="black" d="M 375 278 420 176"/>
<path stroke-width="1" stroke="black" d="M 254 20 151 39"/>
<path stroke-width="1" stroke="black" d="M 82 254 416 183"/>
<path stroke-width="1" stroke="black" d="M 254 20 41 118"/>
<path stroke-width="1" stroke="black" d="M 254 20 139 88"/>
<path stroke-width="1" stroke="black" d="M 164 259 284 316"/>
<path stroke-width="1" stroke="black" d="M 164 259 254 20"/>
<path stroke-width="1" stroke="black" d="M 164 259 375 278"/>
<path stroke-width="1" stroke="black" d="M 164 259 137 320"/>
<path stroke-width="1" stroke="black" d="M 164 259 139 88"/>
<path stroke-width="1" stroke="black" d="M 164 259 416 183"/>
<path stroke-width="1" stroke="black" d="M 164 259 41 118"/>
<path stroke-width="1" stroke="black" d="M 164 259 151 39"/>
<path stroke-width="1" stroke="black" d="M 164 259 232 188"/>
<path stroke-width="1" stroke="black" d="M 164 259 368 115"/>
<path stroke-width="1" stroke="black" d="M 164 259 51 86"/>
<path stroke-width="1" stroke="black" d="M 164 259 420 176"/>
<path stroke-width="1" stroke="black" d="M 164 259 179 185"/>
<path stroke-width="1" stroke="black" d="M 164 259 225 198"/>
<path stroke-width="1" stroke="black" d="M 254 20 358 47"/>
<path stroke-width="1" stroke="black" d="M 254 20 37 230"/>
<path stroke-width="1" stroke="black" d="M 254 20 240 309"/>
<path stroke-width="1" stroke="black" d="M 254 20 20 180"/>
<path stroke-width="1" stroke="black" d="M 254 20 275 90"/>
<path stroke-width="1" stroke="black" d="M 254 20 82 254"/>
<path stroke-width="1" stroke="black" d="M 254 20 323 255"/>
<path stroke-width="1" stroke="black" d="M 254 20 284 316"/>
<path stroke-width="1" stroke="black" d="M 254 20 164 259"/>
<path stroke-width="1" stroke="black" d="M 254 20 375 278"/>
<path stroke-width="1" stroke="black" d="M 254 20 137 320"/>
<path stroke-width="1" stroke="black" d="M 254 20 416 183"/>
<path stroke-width="1" stroke="black" d="M 82 254 139 88"/>
<path stroke-width="1" stroke="black" d="M 82 254 137 320"/>
<path stroke-width="1" stroke="black" d="M 82 254 375 278"/>
<path stroke-width="1" stroke="black" d="M 37 230 137 320"/>
<path stroke-width="1" stroke="black" d="M 37 230 139 88"/>
<path stroke-width="1" stroke="black" d="M 37 230 416 183"/>
<path stroke-width="1" stroke="black" d="M 37 230 41 118"/>
<path stroke-width="1" stroke="black" d="M 37 230 151 39"/>
<path stroke-width="1" stroke="black" d="M 37 230 232 188"/>
<path stroke-width="1" stroke="black" d="M 37 230 368 115"/>
<path stroke-width="1" stroke="black" d="M 37 230 51 86"/>
<path stroke-width="1" stroke="black" d="M 37 230 420 176"/>
<path stroke-width="1" stroke="black" d="M 37 230 179 185"/>
<path stroke-width="1" stroke="black" d="M 37 230 225 198"/>
<path stroke-width="1" stroke="black" d="M 240 309 358 47"/>
<path stroke-width="1" stroke="black" d="M 240 309 37 230"/>
<path stroke-width="1" stroke="black" d="M 240 309 20 180"/>
<path stroke-width="1" stroke="black" d="M 240 309 275 90"/>
<path stroke-width="1" stroke="black" d="M 240 309 82 254"/>
<path stroke-width="1" stroke="black" d="M 240 309 323 255"/>
<path stroke-width="1" stroke="black" d="M 240 309 284 316"/>
<path stroke-width="1" stroke="black" d="M 240 309 164 259"/>
<path stroke-width="1" stroke="black" d="M 240 309 254 20"/>
<path stroke-width="1" stroke="black" d="M 240 309 375 278"/>
<path stroke-width="1" stroke="black" d="M 240 309 137 320"/>
<path stroke-width="1" stroke="black" d="M 240 309 139 88"/>
<path stroke-width="1" stroke="black" d="M 240 309 416 183"/>
<path stroke-width="1" stroke="black" d="M 240 309 41 118"/>
<path stroke-width="1" stroke="black" d="M 37 230 375 278"/>
<path stroke-width="1" stroke="black" d="M 240 309 151 39"/>
<path stroke-width="1" stroke="black" d="M 37 230 254 20"/>
<path stroke-width="1" stroke="black" d="M 37 230 284 316"/>
<path stroke-width="1" stroke="black" d="M 358 47 20 180"/>
<path stroke-width="1" stroke="black" d="M 358 47 275 90"/>
<path stroke-width="1" stroke="black" d="M 358 47 82 254"/>
<path stroke-width="1" stroke="black" d="M 358 47 323 255"/>
<path stroke-width="1" stroke="black" d="M 358 47 284 316"/>
<path stroke-width="1" stroke="black" d="M 358 47 164 259"/>
<path stroke-width="1" stroke="black" d="M 358 47 254 20"/>
<path stroke-width="1" stroke="black" d="M 358 47 375 278"/>
<path stroke-width="1" stroke="black" d="M 358 47 137 320"/>
<path stroke-width="1" stroke="black" d="M 358 47 139 88"/>
<path stroke-width="1" stroke="black" d="M 358 47 416 183"/>
<path stroke-width="1" stroke="black" d="M 358 47 41 118"/>
<path stroke-width="1" stroke="black" d="M 358 47 151 39"/>
<path stroke-width="1" stroke="black" d="M 358 47 232 188"/>
<path stroke-width="1" stroke="black" d="M 358 47 368 115"/>
<path stroke-width="1" stroke="black" d="M 358 47 51 86"/>
<path stroke-width="1" stroke="black" d="M 358 47 420 176"/>
<path stroke-width="1" stroke="black" d="M 358 47 179 185"/>
<path stroke-width="1" stroke="black" d="M 358 47 225 198"/>
<path stroke-width="1" stroke="black" d="M 37 230 358 47"/>
<path stroke-width="1" stroke="black" d="M 37 230 240 309"/>
<path stroke-width="1" stroke="black" d="M 37 230 20 180"/>
<path stroke-width="1" stroke="black" d="M 37 230 275 90"/>
<path stroke-width="1" stroke="black" d="M 37 230 82 254"/>
<path stroke-width="1" stroke="black" d="M 37 230 323 255"/>
<path stroke-width="1" stroke="black" d="M 37 230 164 259"/>
<path stroke-width="1" stroke="black" d="M 375 278 179 185"/>
<path stroke-width="1" stroke="black" d="M 240 309 232 188"/>
<path stroke-width="1" stroke="black" d="M 240 309 51 86"/>
<path stroke-width="1" stroke="black" d="M 275 90 323 255"/>
<path stroke-width="1" stroke="black" d="M 275 90 284 316"/>
<path stroke-width="1" stroke="black" d="M 275 90 164 259"/>
<path stroke-width="1" stroke="black" d="M 275 90 254 20"/>
<path stroke-width="1" stroke="black" d="M 275 90 375 278"/>
<path stroke-width="1" stroke="black" d="M 275 90 137 320"/>
<path stroke-width="1" stroke="black" d="M 275 90 139 88"/>
<path stroke-width="1" stroke="black" d="M 275 90 416 183"/>
<path stroke-width="1" stroke="black" d="M 275 90 41 118"/>
<path stroke-width="1" stroke="black" d="M 275 90 151 39"/>
<path stroke-width="1" stroke="black" d="M 275 90 232 188"/>
<path stroke-width="1" stroke="black" d="M 275 90 368 115"/>
<path stroke-width="1" stroke="black" d="M 275 90 51 86"/>
<path stroke-width="1" stroke="black" d="M 275 90 420 176"/>
<path stroke-width="1" stroke="black" d="M 275 90 179 185"/>
<path stroke-width="1" stroke="black" d="M 275 90 225 198"/>
<path stroke-width="1" stroke="black" d="M 82 254 358 47"/>
<path stroke-width="1" stroke="black" d="M 82 254 37 230"/>
<path stroke-width="1" stroke="black" d="M 82 254 240 309"/>
<path stroke-width="1" stroke="black" d="M 82 254 20 180"/>
<path stroke-width="1" stroke="black" d="M 82 254 275 90"/>
<path stroke-width="1" stroke="black" d="M 82 254 323 255"/>
<path stroke-width="1" stroke="black" d="M 82 254 284 316"/>
<path stroke-width="1" stroke="black" d="M 82 254 164 259"/>
<path stroke-width="1" stroke="black" d="M 82 254 254 20"/>
<path stroke-width="1" stroke="black" d="M 275 90 82 254"/>
<path stroke-width="1" stroke="black" d="M 240 309 368 115"/>
<path stroke-width="1" stroke="black" d="M 275 90 20 180"/>
<path stroke-width="1" stroke="black" d="M 275 90 37 230"/>
<path stroke-width="1" stroke="black" d="M 240 309 420 176"/>
<path stroke-width="1" stroke="black" d="M 240 309 179 185"/>
<path stroke-width="1" stroke="black" d="M 240 309 225 198"/>
<path stroke-width="1" stroke="black" d="M 20 180 358 47"/>
<path stroke-width="1" stroke="black" d="M 20 180 37 230"/>
<path stroke-width="1" stroke="black" d="M 20 180 240 309"/>
<path stroke-width="1" stroke="black" d="M 20 180 275 90"/>
<path stroke-width="1" stroke="black" d="M 20 180 82 254"/>
<path stroke-width="1" stroke="black" d="M 20 180 323 255"/>
<path stroke-width="1" stroke="black" d="M 20 180 284 316"/>
<path stroke-width="1" stroke="black" d="M 20 180 164 259"/>
<path stroke-width="1" stroke="black" d="M 20 180 254 20"/>
<path stroke-width="1" stroke="black" d="M 20 180 375 278"/>
<path stroke-width="1" stroke="black" d="M 20 180 137 320"/>
<path stroke-width="1" stroke="black" d="M 20 180 139 88"/>
<path stroke-width="1" stroke="black" d="M 20 180 416 183"/>
<path stroke-width="1" stroke="black" d="M 20 180 41 118"/>
<path stroke-width="1" stroke="black" d="M 20 180 151 39"/>
<path stroke-width="1" stroke="black" d="M 20 180 232 188"/>
<path stroke-width="1" stroke="black" d="M 20 180 368 115"/>
<path stroke-width="1" stroke="black" d="M 20 180 51 86"/>
<path stroke-width="1" stroke="black" d="M 20 180 420 176"/>
<path stroke-width="1" stroke="black" d="M 20 180 179 185"/>
<path stroke-width="1" stroke="black" d="M 20 180 225 198"/>
<path stroke-width="1" stroke="black" d="M 275 90 358 47"/>
<path stroke-width="1" stroke="black" d="M 275 90 240 309"/>
<path stroke-width="1" stroke="black" d="M 375 278 225 198"/>
<path stroke-width="1" stroke="black" d="M 137 320 358 47"/>
<path stroke-width="1" stroke="black" d="M 137 320 37 230"/>
<path stroke-width="1" stroke="black" d="M 51 86 358 47"/>
<path stroke-width="1" stroke="black" d="M 51 86 37 230"/>
<path stroke-width="1" stroke="black" d="M 51 86 240 309"/>
<path stroke-width="1" stroke="black" d="M 51 86 20 180"/>
<path stroke-width="1" stroke="black" d="M 51 86 275 90"/>
<path stroke-width="1" stroke="black" d="M 51 86 82 254"/>
<path stroke-width="1" stroke="black" d="M 51 86 323 255"/>
<path stroke-width="1" stroke="black" d="M 51 86 284 316"/>
<path stroke-width="1" stroke="black" d="M 51 86 164 259"/>
<path stroke-width="1" stroke="black" d="M 51 86 254 20"/>
<path stroke-width="1" stroke="black" d="M 51 86 375 278"/>
<path stroke-width="1" stroke="black" d="M 51 86 137 320"/>
<path stroke-width="1" stroke="black" d="M 51 86 139 88"/>
<path stroke-width="1" stroke="black" d="M 51 86 416 183"/>
<path stroke-width="1" stroke="black" d="M 51 86 41 118"/>
<path stroke-width="1" stroke="black" d="M 51 86 151 39"/>
<path stroke-width="1" stroke="black" d="M 51 86 232 188"/>
<path stroke-width="1" stroke="black" d="M 51 86 368 115"/>
<path stroke-width="1" stroke="black" d="M 51 86 420 176"/>
<path stroke-width="1" stroke="black" d="M 51 86 179 185"/>
<path stroke-width="1" stroke="black" d="M 51 86 225 198"/>
<path stroke-width="1" stroke="black" d="M 420 176 358 47"/>
<path stroke-width="1" stroke="black" d="M 420 176 37 230"/>
<path stroke-width="1" stroke="black" d="M 420 176 240 309"/>
<path stroke-width="1" stroke="black" d="M 420 176 20 180"/>
<path stroke-width="1" stroke="black" d="M 368 115 225 198"/>
<path stroke-width="1" stroke="black" d="M 420 176 275 90"/>
<path stroke-width="1" stroke="black" d="M 368 115 179 185"/>
<path stroke-width="1" stroke="black" d="M 368 115 51 86"/>
<path stroke-width="1" stroke="black" d="M 232 188 416 183"/>
<path stroke-width="1" stroke="black" d="M 232 188 41 118"/>
<path stroke-width="1" stroke="black" d="M 232 188 151 39"/>
<path stroke-width="1" stroke="black" d="M 232 188 368 115"/>
<path stroke-width="1" stroke="black" d="M 232 188 51 86"/>
<path stroke-width="1" stroke="black" d="M 232 188 420 176"/>
<path stroke-width="1" stroke="black" d="M 232 188 179 185"/>
<path stroke-width="1" stroke="black" d="M 232 188 225 198"/>
<path stroke-width="1" stroke="black" d="M 368 115 358 47"/>
<path stroke-width="1" stroke="black" d="M 368 115 37 230"/>
<path stroke-width="1" stroke="black" d="M 368 115 240 309"/>
<path stroke-width="1" stroke="black" d="M 368 115 20 180"/>
<path stroke-width="1" stroke="black" d="M 368 115 275 90"/>
<path stroke-width="1" stroke="black" d="M 368 115 82 254"/>
<path stroke-width="1" stroke="black" d="M 368 115 323 255"/>
<path stroke-width="1" stroke="black" d="M 368 115 284 316"/>
<path stroke-width="1" stroke="black" d="M 368 115 164 259"/>
<path stroke-width="1" stroke="black" d="M 368 115 254 20"/>
<path stroke-width="1" stroke="black" d="M 368 115 375 278"/>
<path stroke-width="1" stroke="black" d="M 368 115 137 320"/>
<path stroke-width="1" stroke="black" d="M 368 115 139 88"/>
<path stroke-width="1" stroke="black" d="M 368 115 416 183"/>
<path stroke-width="1" stroke="black" d="M 368 115 41 118"/>
<path stroke-width="1" stroke="black" d="M 368 115 151 39"/>
<path stroke-width="1" stroke="black" d="M 368 115 232 188"/>
<path stroke-width="1" stroke="black" d="M 368 115 420 176"/>
<path stroke-width="1" stroke="black" d="M 232 188 139 88"/>
<path stroke-width="1" stroke="black" d="M 420 176 82 254"/>
<path stroke-width="1" stroke="black" d="M 420 176 284 316"/>
<path stroke-width="1" stroke="black" d="M 179 185 232 188"/>
<path stroke-width="1" stroke="black" d="M 179 185 368 115"/>
<path stroke-width="1" stroke="black" d="M 179 185 51 86"/>
<path stroke-width="1" stroke="black" d="M 179 185 420 176"/>
<path stroke-width="1" stroke="black" d="M 179 185 225 198"/>
<path stroke-width="1" stroke="black" d="M 225 198 358 47"/>
<path stroke-width="1" stroke="black" d="M 225 198 37 230"/>
<path stroke-width="1" stroke="black" d="M 225 198 240 309"/>
<path stroke-width="1" stroke="black" d="M 225 198 20 180"/>
<path stroke-width="1" stroke="black" d="M 225 198 275 90"/>
<path stroke-width="1" stroke="black" d="M 225 198 82 254"/>
<path stroke-width="1" stroke="black" d="M 225 198 323 255"/>
<path stroke-width="1" stroke="black" d="M 225 198 284 316"/>
<path stroke-width="1" stroke="black" d="M 225 198 164 259"/>
<path stroke-width="1" stroke="black" d="M 225 198 254 20"/>
<path stroke-width="1" stroke="black" d="M 225 198 375 278"/>
<path stroke-width="1" stroke="black" d="M 225 198 137 320"/>
<path stroke-width="1" stroke="black" d="M 225 198 139 88"/>
<path stroke-width="1" stroke="black" d="M 225 198 416 183"/>
<path stroke-width="1" stroke="black" d="M 225 198 41 118"/>
<path stroke-width="1" stroke="black" d="M 225 198 151 39"/>
<path stroke-width="1" stroke="black" d="M 225 198 232 188"/>
<path stroke-width="1" stroke="black" d="M 225 198 368 115"/>
<path stroke-width="1" stroke="black" d="M 225 198 51 86"/>
<path stroke-width="1" stroke="black" d="M 225 198 420 176"/>
<path stroke-width="1" stroke="black" d="M 179 185 151 39"/>
<path stroke-width="1" stroke="black" d="M 420 176 323 255"/>
<path stroke-width="1" stroke="black" d="M 179 185 41 118"/>
<path stroke-width="1" stroke="black" d="M 179 185 139 88"/>
<path stroke-width="1" stroke="black" d="M 420 176 164 259"/>
<path stroke-width="1" stroke="black" d="M 420 176 254 20"/>
<path stroke-width="1" stroke="black" d="M 420 176 375 278"/>
<path stroke-width="1" stroke="black" d="M 420 176 137 320"/>
<path stroke-width="1" stroke="black" d="M 420 176 139 88"/>
<path stroke-width="1" stroke="black" d="M 420 176 416 183"/>
<path stroke-width="1" stroke="black" d="M 420 176 41 118"/>
<path stroke-width="1" stroke="black" d="M 420 176 151 39"/>
<path stroke-width="1" stroke="black" d="M 420 176 232 188"/>
<path stroke-width="1" stroke="black" d="M 420 176 368 115"/>
<path stroke-width="1" stroke="black" d="M 420 176 51 86"/>
<path stroke-width="1" stroke="black" d="M 420 176 179 185"/>
<path stroke-width="1" stroke="black" d="M 420 176 225 198"/>
<path stroke-width="1" stroke="black" d="M 179 185 358 47"/>
<path stroke-width="1" stroke="black" d="M 179 185 37 230"/>
<path stroke-width="1" stroke="black" d="M 179 185 240 309"/>
<path stroke-width="1" stroke="black" d="M 179 185 20 180"/>
<path stroke-width="1" stroke="black" d="M 179 185 275 90"/>
<path stroke-width="1" stroke="black" d="M 179 185 82 254"/>
<path stroke-width="1" stroke="black" d="M 179 185 323 255"/>
<path stroke-width="1" stroke="black" d="M 179 185 284 316"/>
<path stroke-width="1" stroke="black" d="M 179 185 164 259"/>
<path stroke-width="1" stroke="black" d="M 179 185 254 20"/>
<path stroke-width="1" stroke="black" d="M 179 185 375 278"/>
<path stroke-width="1" stroke="black" d="M 179 185 137 320"/>
<path stroke-width="1" stroke="black" d="M 179 185 416 183"/>
<path stroke-width="1" stroke="black" d="M 358 47 240 309"/>
<path stroke-width="1" stroke="black" d="M 232 188 137 320"/>
<path stroke-width="1" stroke="black" d="M 232 188 254 20"/>
<path stroke-width="1" stroke="black" d="M 139 88 375 278"/>
<path stroke-width="1" stroke="black" d="M 139 88 137 320"/>
<path stroke-width="1" stroke="black" d="M 139 88 416 183"/>
<path stroke-width="1" stroke="black" d="M 139 88 41 118"/>
<path stroke-width="1" stroke="black" d="M 139 88 151 39"/>
<path stroke-width="1" stroke="black" d="M 139 88 232 188"/>
<path stroke-width="1" stroke="black" d="M 139 88 368 115"/>
<path stroke-width="1" stroke="black" d="M 139 88 51 86"/>
<path stroke-width="1" stroke="black" d="M 139 88 420 176"/>
<path stroke-width="1" stroke="black" d="M 139 88 179 185"/>
<path stroke-width="1" stroke="black" d="M 139 88 225 198"/>
<path stroke-width="1" stroke="black" d="M 416 183 358 47"/>
<path stroke-width="1" stroke="black" d="M 416 183 37 230"/>
<path stroke-width="1" stroke="black" d="M 416 183 240 309"/>
<path stroke-width="1" stroke="black" d="M 416 183 20 180"/>
<path stroke-width="1" stroke="black" d="M 416 183 275 90"/>
<path stroke-width="1" stroke="black" d="M 416 183 82 254"/>
<path stroke-width="1" stroke="black" d="M 416 183 323 255"/>
<path stroke-width="1" stroke="black" d="M 416 183 284 316"/>
<path stroke-width="1" stroke="black" d="M 416 183 164 259"/>
<path stroke-width="1" stroke="black" d="M 416 183 254 20"/>
<path stroke-width="1" stroke="black" d="M 416 183 375 278"/>
<path stroke-width="1" stroke="black" d="M 416 183 137 320"/>
<path stroke-width="1" stroke="black" d="M 416 183 139 88"/>
<path stroke-width="1" stroke="black" d="M 416 183 41 118"/>
<path stroke-width="1" stroke="black" d="M 139 88 254 20"/>
<path stroke-width="1" stroke="black" d="M 416 183 151 39"/>
<path stroke-width="1" stroke="black" d="M 139 88 164 259"/>
<path stroke-width="1" stroke="black" d="M 139 88 323 255"/>
<path stroke-width="1" stroke="black" d="M 137 320 240 309"/>
<path stroke-width="1" stroke="black" d="M 137 320 20 180"/>
<path stroke-width="1" stroke="black" d="M 137 320 275 90"/>
<path stroke-width="1" stroke="black" d="M 137 320 82 254"/>
<path stroke-width="1" stroke="black" d="M 137 320 323 255"/>
<path stroke-width="1" stroke="black" d="M 137 320 284 316"/>
<path stroke-width="1" stroke="black" d="M 137 320 164 259"/>
<path stroke-width="1" stroke="black" d="M 137 320 254 20"/>
<path stroke-width="1" stroke="black" d="M 137 320 375 278"/>
<path stroke-width="1" stroke="black" d="M 137 320 139 88"/>
<path stroke-width="1" stroke="black" d="M 137 320 416 183"/>
<path stroke-width="1" stroke="black" d="M 137 320 41 118"/>
<path stroke-width="1" stroke="black" d="M 137 320 151 39"/>
<path stroke-width="1" stroke="black" d="M 137 320 232 188"/>
<path stroke-width="1" stroke="black" d="M 137 320 368 115"/>
<path stroke-width="1" stroke="black" d="M 137 320 51 86"/>
<path stroke-width="1" stroke="black" d="M 137 320 420 176"/>
<path stroke-width="1" stroke="black" d="M 137 320 179 185"/>
<path stroke-width="1" stroke="black" d="M 137 320 225 198"/>
<path stroke-width="1" stroke="black" d="M 139 88 358 47"/>
<path stroke-width="1" stroke="black" d="M 139 88 37 230"/>
<path stroke-width="1" stroke="black" d="M 139 88 240 309"/>
<path stroke-width="1" stroke="black" d="M 139 88 20 180"/>
<path stroke-width="1" stroke="black" d="M 139 88 275 90"/>
<path stroke-width="1" stroke="black" d="M 139 88 82 254"/>
<path stroke-width="1" stroke="black" d="M 139 88 284 316"/>
<path stroke-width="1" stroke="black" d="M 232 188 375 278"/>
<path stroke-width="1" stroke="black" d="M 416 183 232 188"/>
<path stroke-width="1" stroke="black" d="M 416 183 51 86"/>
<path stroke-width="1" stroke="black" d="M 151 39 82 254"/>
<path stroke-width="1" stroke="black" d="M 151 39 323 255"/>
<path stroke-width="1" stroke="black" d="M 151 39 284 316"/>
<path stroke-width="1" stroke="black" d="M 151 39 164 259"/>
<path stroke-width="1" stroke="black" d="M 151 39 254 20"/>
<path stroke-width="1" stroke="black" d="M 151 39 375 278"/>
<path stroke-width="1" stroke="black" d="M 151 39 137 320"/>
<path stroke-width="1" stroke="black" d="M 151 39 139 88"/>
<path stroke-width="1" stroke="black" d="M 151 39 416 183"/>
<path stroke-width="1" stroke="black" d="M 151 39 41 118"/>
<path stroke-width="1" stroke="black" d="M 151 39 232 188"/>
<path stroke-width="1" stroke="black" d="M 151 39 368 115"/>
<path stroke-width="1" stroke="black" d="M 151 39 51 86"/>
<path stroke-width="1" stroke="black" d="M 151 39 420 176"/>
<path stroke-width="1" stroke="black" d="M 151 39 179 185"/>
<path stroke-width="1" stroke="black" d="M 151 39 225 198"/>
<path stroke-width="1" stroke="black" d="M 232 188 358 47"/>
<path stroke-width="1" stroke="black" d="M 232 188 37 230"/>
<path stroke-width="1" stroke="black" d="M 232 188 240 309"/>
<path stroke-width="1" stroke="black" d="M 232 188 20 180"/>
<path stroke-width="1" stroke="black" d="M 232 188 275 90"/>
<path stroke-width="1" stroke="black" d="M 232 188 82 254"/>
<path stroke-width="1" stroke="black" d="M 232 188 323 255"/>
<path stroke-width="1" stroke="black" d="M 232 188 284 316"/>
<path stroke-width="1" stroke="black" d="M 232 188 164 259"/>
<path stroke-width="1" stroke="black" d="M 151 39 275 90"/>
<path stroke-width="1" stroke="black" d="M 416 183 368 115"/>
<path stroke-width="1" stroke="black" d="M 151 39 20 180"/>
<path stroke-width="1" stroke="black" d="M 151 39 37 230"/>
<path stroke-width="1" stroke="black" d="M 416 183 420 176"/>
<path stroke-width="1" stroke="black" d="M 416 183 179 185"/>
<path stroke-width="1" stroke="black" d="M 416 183 225 198"/>
<path stroke-width="1" stroke="black" d="M 41 118 358 47"/>
<path stroke-width="1" stroke="black" d="M 41 118 37 230"/>
<path stroke-width="1" stroke="black" d="M 41 118 240 309"/>
<path stroke-width="1" stroke="black" d="M 41 118 20 180"/>
<path stroke-width="1" stroke="black" d="M 41 118 275 90"/>
<path stroke-width="1" stroke="black" d="M 41 118 82 254"/>
<path stroke-width="1" stroke="black" d="M 41 118 323 255"/>
<path stroke-width="1" stroke="black" d="M 41 118 284 316"/>
<path stroke-width="1" stroke="black" d="M 41 118 164 259"/>
<path stroke-width="1" stroke="black" d="M 41 118 254 20"/>
<path stroke-width="1" stroke="black" d="M 41 118 375 278"/>
<path stroke-width="1" stroke="black" d="M 41 118 137 320"/>
<path stroke-width="1" stroke="black" d="M 41 118 139 88"/>
<path stroke-width="1" stroke="black" d="M 41 118 416 183"/>
<path stroke-width="1" stroke="black" d="M 41 118 151 39"/>
<path stroke-width="1" stroke="black" d="M 41 118 232 188"/>
<path stroke-width="1" stroke="black" d="M 41 118 368 115"/>
<path stroke-width="1" stroke="black" d="M 41 118 51 86"/>
<path stroke-width="1" stroke="black" d="M 41 118 420 176"/>
<path stroke-width="1" stroke="black" d="M 41 118 179 185"/>
<path stroke-width="1" stroke="black" d="M 41 118 225 198"/>
<path stroke-width="1" stroke="black" d="M 151 39 358 47"/>
<path stroke-width="1" stroke="black" d="M 151 39 240 309"/>
<path stroke-width="1" stroke="black" d="M 358 47 37 230"/>
<circle cx="225" cy="198" r="7.0" style="fill:red;stroke:black;stroke-width:1.0"/>
<circle cx="179" cy="185" r="7.0" style="fill:blue;stroke:black;stroke-width:1.0"/>
<circle cx="420" cy="176" r="7.0" style="fill:red;stroke:black;stroke-width:1.0"/>
<circle cx="51" cy="86" r="7.0" style="fill:red;stroke:black;stroke-width:1.0"/>
<circle cx="368" cy="115" r="7.0" style="fill:red;stroke:black;stroke-width:1.0"/>
<circle cx="232" cy="188" r="7.0" style="fill:green;stroke:black;stroke-width:1.0"/>
<circle cx="151" cy="39" r="7.0" style="fill:blue;stroke:black;stroke-width:1.0"/>
<circle cx="41" cy="118" r="7.0" style="fill:orange;stroke:black;stroke-width:1.0"/>
<circle cx="416" cy="183" r="7.0" style="fill:blue;stroke:black;stroke-width:1.0"/>
<circle cx="139" cy="88" r="7.0" style="fill:blue;stroke:black;stroke-width:1.0"/>
<circle cx="137" cy="320" r="7.0" style="fill:blue;stroke:black;stroke-width:1.0"/>
<circle cx="375" cy="278" r="7.0" style="fill:blue;stroke:black;stroke-width:1.0"/>
<circle cx="254" cy="20" r="7.0" style="fill:purple;stroke:black;stroke-width:1.0"/>
<circle cx="164" cy="259" r="7.0" style="fill:blue;stroke:black;stroke-width:1.0"/>
<circle cx="284" cy="316" r="7.0" style="fill:green;stroke:black;stroke-width:1.0"/>
<circle cx="323" cy="255" r="7.0" style="fill:blue;stroke:black;stroke-width:1.0"/>
<circle cx="82" cy="254" r="7.0" style="fill:red;stroke:black;stroke-width:1.0"/>
<circle cx="275" cy="90" r="7.0" style="fill:red;stroke:black;stroke-width:1.0"/>
<circle cx="20" cy="180" r="7.0" style="fill:red;stroke:black;stroke-width:1.0"/>
<circle cx="240" cy="309" r="7.0" style="fill:red;stroke:black;stroke-width:1.0"/>
<circle cx="37" cy="230" r="7.0" style="fill:orange;stroke:black;stroke-width:1.0"/>
<circle cx="358" cy="47" r="7.0" style="fill:purple;stroke:black;stroke-width:1.0"/>
</svg>
