<svg width="440" height="340" xmlns="http://www.w3.org/2000/svg">
<path stroke-width="1" stroke="black" d="M 203 154 215 197"/>
<path stroke-width="1" stroke="black" d="M 84 97 70 73"/>
<path stroke-width="1" stroke="black" d="M 84 97 244 320"/>
<path stroke-width="1" stroke="black" d="M 84 97 334 59"/>
<path stroke-width="1" stroke="black" d="M 84 97 20 143"/>
<path stroke-width="1" stroke="black" d="M 84 97 81 254"/>
<path stroke-width="1" stroke="black" d="M 84 97 183 228"/>
<path stroke-width="1" stroke="black" d="M 84 97 315 277"/>
<path stroke-width="1" stroke="black" d="M 84 97 420 126"/>
<path stroke-width="1" stroke="black" d="M 84 97 278 133"/>
<path stroke-width="1" stroke="black" d="M 84 97 352 48"/>
<path stroke-width="1" stroke="black" d="M 84 97 377 162"/>
<path stroke-width="1" stroke="black" d="M 315 277 203 154"/>
<path stroke-width="1" stroke="black" d="M 84 97 255 22"/>
<path stroke-width="1" stroke="black" d="M 84 97 162 315"/>
<path stroke-width="1" stroke="black" d="M 84 97 363 266"/>
<path stroke-width="1" stroke="black" d="M 84 97 69 256"/>
<path stroke-width="1" stroke="black" d="M 84 97 158 20"/>
<path stroke-width="1" stroke="black" d="M 84 97 163 37"/>
<path stroke-width="1" stroke="black" d="M 84 97 27 182"/>
<path stroke-width="1" stroke="black" d="M 84 97 215 197"/>
<path stroke-width="1" stroke="black" d="M 84 97 203 154"/>
<path stroke-width="1" stroke="black" d="M 420 126 70 73"/>
<path stroke-width="1" stroke="black" d="M 420 126 244 320"/>
<path stroke-width="1" stroke="black" d="M 420 126 334 59"/>
<path stroke-width="1" stroke="black" d="M 84 97 414 206"/>
<path stroke-width="1" stroke="black" d="M 315 277 215 197"/>
<path stroke-width="1" stroke="black" d="M 315 277 27 182"/>
<path stroke-width="1" stroke="black" d="M 315 277 163 37"/>
<path stroke-width="1" stroke="black" d="M 183 228 162 315"/>
<path stroke-width="1" stroke="black" d="M 183 228 363 266"/>
<path stroke-width="1" stroke="black" d="M 183 228 69 256"/>
<path stroke-width="1" stroke="black" d="M 183 228 158 20"/>
<path stroke-width="1" stroke="black" d="M 183 228 163 37"/>
<path stroke-width="1" stroke="black" d="M 183 228 27 182"/>
<path stroke-width="1" stroke="black" d="M 183 228 215 197"/>
<path stroke-width="1" stroke="black" d="M 183 228 203 154"/>
<path stroke-width="1" stroke="black" d="M 315 277 70 73"/>
<path stroke-width="1" stroke="black" d="M 315 277 244 320"/>
<path stroke-width="1" stroke="black" d="M 315 277 334 59"/>
<path stroke-width="1" stroke="black" d="M 315 277 20 143"/>
<path stroke-width="1" stroke="black" d="M 315 277 81 254"/>
<path stroke-width="1" stroke="black" d="M 315 277 183 228"/>
<path stroke-width="1" stroke="black" d="M 315 277 84 97"/>
<path stroke-width="1" stroke="black" d="M 315 277 420 126"/>
<path stroke-width="1" stroke="black" d="M 315 277 278 133"/>
<path stroke-width="1" stroke="black" d="M 315 277 352 48"/>
<path stroke-width="1" stroke="black" d="M 315 277 377 162"/>
<path stroke-width="1" stroke="black" d="M 315 277 255 22"/>
<path stroke-width="1" stroke="black" d="M 315 277 414 206"/>
<path stroke-width="1" stroke="black" d="M 315 277 162 315"/>
<path stroke-width="1" stroke="black" d="M 315 277 363 266"/>
<path stroke-width="1" stroke="black" d="M 315 277 69 256"/>
<path stroke-width="1" stroke="black" d="M 315 277 158 20"/>
<path stroke-width="1" stroke="black" d="M 420 126 20 143"/>
<path stroke-width="1" stroke="black" d="M 420 126 81 254"/>
<path stroke-width="1" stroke="black" d="M 420 126 183 228"/>
<path stroke-width="1" stroke="black" d="M 420 126 315 277"/>
<path stroke-width="1" stroke="black" d="M 278 133 69 256"/>
<path stroke-width="1" stroke="black" d="M 278 133 158 20"/>
<path stroke-width="1" stroke="black" d="M 278 133 163 37"/>
<path stroke-width="1" stroke="black" d="M 278 133 27 182"/>
<path stroke-width="1" stroke="black" d="M 278 133 215 197"/>
<path stroke-width="1" stroke="black" d="M 278 133 203 154"/>
<path stroke-width="1" stroke="black" d="M 352 48 70 73"/>
<path stroke-width="1" stroke="black" d="M 352 48 244 320"/>
<path stroke-width="1" stroke="black" d="M 352 48 334 59"/>
<path stroke-width="1" stroke="black" d="M 352 48 20 143"/>
<path stroke-width="1" stroke="black" d="M 352 48 81 254"/>
<path stroke-width="1" stroke="black" d="M 352 48 183 228"/>
<path stroke-width="1" stroke="black" d="M 352 48 315 277"/>
<path stroke-width="1" stroke="black" d="M 352 48 84 97"/>
<path stroke-width="1" stroke="black" d="M 352 48 420 126"/>
<path stroke-width="1" stroke="black" d="M 352 48 278 133"/>
<path stroke-width="1" stroke="black" d="M 352 48 377 162"/>
<path stroke-width="1" stroke="black" d="M 352 48 255 22"/>
<path stroke-width="1" stroke="black" d="M 352 48 414 206"/>
<path stroke-width="1" stroke="black" d="M 352 48 162 315"/>
<path stroke-width="1" stroke="black" d="M 352 48 363 266"/>
<path stroke-width="1" stroke="black" d="M 352 48 69 256"/>
<path stroke-width="1" stroke="black" d="M 352 48 158 20"/>
<path stroke-width="1" stroke="black" d="M 352 48 163 37"/>
<path stroke-width="1" stroke="black" d="M 352 48 27 182"/>
<path stroke-width="1" stroke="black" d="M 278 133 363 266"/>
<path stroke-width="1" stroke="black" d="M 183 228 414 206"/>
<path stroke-width="1" stroke="black" d="M 278 133 162 315"/>
<path stroke-width="1" stroke="black" d="M 278 133 255 22"/>
<path stroke-width="1" stroke="black" d="M 420 126 84 97"/>
<path stroke-width="1" stroke="black" d="M 420 126 278 133"/>
<path stroke-width="1" stroke="black" d="M 420 126 352 48"/>
<path stroke-width="1" stroke="black" d="M 420 126 377 162"/>
<path stroke-width="1" stroke="black" d="M 420 126 255 22"/>
<path stroke-width="1" stroke="black" d="M 420 126 414 206"/>
<path stroke-width="1" stroke="black" d="M 420 126 162 315"/>
<path stroke-width="1" stroke="black" d="M 420 126 363 266"/>
<path stroke-width="1" stroke="black" d="M 420 126 69 256"/>
<path stroke-width="1" stroke="black" d="M 420 126 158 20"/>
<path stroke-width="1" stroke="black" d="M 420 126 163 37"/>
<path stroke-width="1" stroke="black" d="M 420 126 27 182"/>
<path stroke-width="1" stroke="black" d="M 420 126 215 197"/>
<path stroke-width="1" stroke="black" d="M 420 126 203 154"/>
<path stroke-width="1" stroke="black" d="M 278 133 70 73"/>
<path stroke-width="1" stroke="black" d="M 278 133 244 320"/>
<path stroke-width="1" stroke="black" d="M 278 133 334 59"/>
<path stroke-width="1" stroke="black" d="M 278 133 20 143"/>
<path stroke-width="1" stroke="black" d="M 278 133 81 254"/>
<path stroke-width="1" stroke="black" d="M 278 133 183 228"/>
<path stroke-width="1" stroke="black" d="M 278 133 315 277"/>
<path stroke-width="1" stroke="black" d="M 278 133 84 97"/>
<path stroke-width="1" stroke="black" d="M 278 133 420 126"/>
<path stroke-width="1" stroke="black" d="M 278 133 352 48"/>
<path stroke-width="1" stroke="black" d="M 278 133 377 162"/>
<path stroke-width="1" stroke="black" d="M 278 133 414 206"/>
<path stroke-width="1" stroke="black" d="M 183 228 255 22"/>
<path stroke-width="1" stroke="black" d="M 183 228 377 162"/>
<path stroke-width="1" stroke="black" d="M 183 228 352 48"/>
<path stroke-width="1" stroke="black" d="M 244 320 377 162"/>
<path stroke-width="1" stroke="black" d="M 244 320 255 22"/>
<path stroke-width="1" stroke="black" d="M 244 320 414 206"/>
<path stroke-width="1" stroke="black" d="M 244 320 162 315"/>
<path stroke-width="1" stroke="black" d="M 244 320 363 266"/>
<path stroke-width="1" stroke="black" d="M 244 320 69 256"/>
<path stroke-width="1" stroke="black" d="M 244 320 158 20"/>
<path stroke-width="1" stroke="black" d="M 244 320 163 37"/>
<path stroke-width="1" stroke="black" d="M 244 320 27 182"/>
<path stroke-width="1" stroke="black" d="M 244 320 215 197"/>
<path stroke-width="1" stroke="black" d="M 244 320 203 154"/>
<path stroke-width="1" stroke="black" d="M 334 59 70 73"/>
<path stroke-width="1" stroke="black" d="M 334 59 244 320"/>
<path stroke-width="1" stroke="black" d="M 334 59 20 143"/>
<path stroke-width="1" stroke="black" d="M 334 59 81 254"/>
<path stroke-width="1" stroke="black" d="M 334 59 183 228"/>
<path stroke-width="1" stroke="black" d="M 334 59 315 277"/>
<path stroke-width="1" stroke="black" d="M 334 59 84 97"/>
<path stroke-width="1" stroke="black" d="M 334 59 420 126"/>
<path stroke-width="1" stroke="black" d="M 334 59 278 133"/>
<path stroke-width="1" stroke="black" d="M 334 59 352 48"/>
<path stroke-width="1" stroke="black" d="M 334 59 377 162"/>
<path stroke-width="1" stroke="black" d="M 334 59 255 22"/>
<path stroke-width="1" stroke="black" d="M 334 59 414 206"/>
<path stroke-width="1" stroke="black" d="M 334 59 162 315"/>
<path stroke-width="1" stroke="black" d="M 244 320 352 48"/>
<path stroke-width="1" stroke="black" d="M 334 59 363 266"/>
<path stroke-width="1" stroke="black" d="M 244 320 278 133"/>
<path stroke-width="1" stroke="black" d="M 244 320 84 97"/>
<path stroke-width="1" stroke="black" d="M 70 73 20 143"/>
<path stroke-width="1" stroke="black" d="M 70 73 81 254"/>
<path stroke-width="1" stroke="black" d="M 70 73 183 228"/>
<path stroke-width="1" stroke="black" d="M 70 73 315 277"/>
<path stroke-width="1" stroke="black" d="M 70 73 84 97"/>
<path stroke-width="1" stroke="black" d="M 70 73 420 126"/>
<path stroke-width="1" stroke="black" d="M 70 73 278 133"/>
<path stroke-width="1" stroke="black" d="M 70 73 352 48"/>
<path stroke-width="1" stroke="black" d="M 70 73 377 162"/>
<path stroke-width="1" stroke="black" d="M 70 73 255 22"/>
<path stroke-width="1" stroke="black" d="M 70 73 414 206"/>
<path stroke-width="1" stroke="black" d="M 70 73 162 315"/>
<path stroke-width="1" stroke="black" d="M 70 73 363 266"/>
<path stroke-width="1" stroke="black" d="M 70 73 69 256"/>
<path stroke-width="1" stroke="black" d="M 70 73 158 20"/>
<path stroke-width="1" stroke="black" d="M 70 73 163 37"/>
<path stroke-width="1" stroke="black" d="M 70 73 27 182"/>
<path stroke-width="1" stroke="black" d="M 70 73 215 197"/>
<path stroke-width="1" stroke="black" d="M 70 73 203 154"/>
<path stroke-width="1" stroke="black" d="M 244 320 70 73"/>
<path stroke-width="1" stroke="black" d="M 244 320 334 59"/>
<path stroke-width="1" stroke="black" d="M 244 320 20 143"/>
<path stroke-width="1" stroke="black" d="M 244 320 81 254"/>
<path stroke-width="1" stroke="black" d="M 244 320 183 228"/>
<path stroke-width="1" stroke="black" d="M 244 320 315 277"/>
<path stroke-width="1" stroke="black" d="M 244 320 420 126"/>
<path stroke-width="1" stroke="black" d="M 352 48 215 197"/>
<path stroke-width="1" stroke="black" d="M 334 59 69 256"/>
<path stroke-width="1" stroke="black" d="M 334 59 163 37"/>
<path stroke-width="1" stroke="black" d="M 81 254 315 277"/>
<path stroke-width="1" stroke="black" d="M 81 254 84 97"/>
<path stroke-width="1" stroke="black" d="M 81 254 420 126"/>
<path stroke-width="1" stroke="black" d="M 81 254 278 133"/>
<path stroke-width="1" stroke="black" d="M 81 254 352 48"/>
<path stroke-width="1" stroke="black" d="M 81 254 377 162"/>
<path stroke-width="1" stroke="black" d="M 81 254 255 22"/>
<path stroke-width="1" stroke="black" d="M 81 254 414 206"/>
<path stroke-width="1" stroke="black" d="M 81 254 162 315"/>
<path stroke-width="1" stroke="black" d="M 81 254 363 266"/>
<path stroke-width="1" stroke="black" d="M 81 254 69 256"/>
<path stroke-width="1" stroke="black" d="M 81 254 158 20"/>
<path stroke-width="1" stroke="black" d="M 81 254 163 37"/>
<path stroke-width="1" stroke="black" d="M 81 254 27 182"/>
<path stroke-width="1" stroke="black" d="M 81 254 215 197"/>
<path stroke-width="1" stroke="black" d="M 81 254 203 154"/>
<path stroke-width="1" stroke="black" d="M 183 228 70 73"/>
<path stroke-width="1" stroke="black" d="M 183 228 244 320"/>
<path stroke-width="1" stroke="black" d="M 183 228 334 59"/>
<path stroke-width="1" stroke="black" d="M 183 228 20 143"/>
<path stroke-width="1" stroke="black" d="M 183 228 81 254"/>
<path stroke-width="1" stroke="black" d="M 183 228 315 277"/>
<path stroke-width="1" stroke="black" d="M 183 228 84 97"/>
<path stroke-width="1" stroke="black" d="M 183 228 420 126"/>
<path stroke-width="1" stroke="black" d="M 183 228 278 133"/>
<path stroke-width="1" stroke="black" d="M 81 254 183 228"/>
<path stroke-width="1" stroke="black" d="M 334 59 158 20"/>
<path stroke-width="1" stroke="black" d="M 81 254 20 143"/>
<path stroke-width="1" stroke="black" d="M 81 254 244 320"/>
<path stroke-width="1" stroke="black" d="M 334 59 27 182"/>
<path stroke-width="1" stroke="black" d="M 334 59 215 197"/>
<path stroke-width="1" stroke="black" d="M 334 59 203 154"/>
<path stroke-width="1" stroke="black" d="M 20 143 70 73"/>
<path stroke-width="1" stroke="black" d="M 20 143 244 320"/>
<path stroke-width="1" stroke="black" d="M 20 143 334 59"/>
<path stroke-width="1" stroke="black" d="M 20 143 81 254"/>
<path stroke-width="1" stroke="black" d="M 20 143 183 228"/>
<path stroke-width="1" stroke="black" d="M 20 143 315 277"/>
<path stroke-width="1" stroke="black" d="M 20 143 84 97"/>
<path stroke-width="1" stroke="black" d="M 20 143 420 126"/>
<path stroke-width="1" stroke="black" d="M 20 143 278 133"/>
<path stroke-width="1" stroke="black" d="M 20 143 352 48"/>
<path stroke-width="1" stroke="black" d="M 20 143 377 162"/>
<path stroke-width="1" stroke="black" d="M 20 143 255 22"/>
<path stroke-width="1" stroke="black" d="M 20 143 414 206"/>
<path stroke-width="1" stroke="black" d="M 20 143 162 315"/>
<path stroke-width="1" stroke="black" d="M 20 143 363 266"/>
<path stroke-width="1" stroke="black" d="M 20 143 69 256"/>
<path stroke-width="1" stroke="black" d="M 20 143 158 20"/>
<path stroke-width="1" stroke="black" d="M 20 143 163 37"/>
<path stroke-width="1" stroke="black" d="M 20 143 27 182"/>
<path stroke-width="1" stroke="black" d="M 20 143 215 197"/>
<path stroke-width="1" stroke="black" d="M 20 143 203 154"/>
<path stroke-width="1" stroke="black" d="M 81 254 70 73"/>
<path stroke-width="1" stroke="black" d="M 81 254 334 59"/>
<path stroke-width="1" stroke="black" d="M 352 48 203 154"/>
<path stroke-width="1" stroke="black" d="M 377 162 70 73"/>
<path stroke-width="1" stroke="black" d="M 377 162 244 320"/>
<path stroke-width="1" stroke="black" d="M 163 37 70 73"/>
<path stroke-width="1" stroke="black" d="M 163 37 244 320"/>
<path stroke-width="1" stroke="black" d="M 163 37 334 59"/>
<path stroke-width="1" stroke="black" d="M 163 37 20 143"/>
<path stroke-width="1" stroke="black" d="M 163 37 81 254"/>
<path stroke-width="1" stroke="black" d="M 163 37 183 228"/>
<path stroke-width="1" stroke="black" d="M 163 37 315 277"/>
<path stroke-width="1" stroke="black" d="M 163 37 84 97"/>
<path stroke-width="1" stroke="black" d="M 163 37 420 126"/>
<path stroke-width="1" stroke="black" d="M 163 37 278 133"/>
<path stroke-width="1" stroke="black" d="M 163 37 352 48"/>
<path stroke-width="1" stroke="black" d="M 163 37 377 162"/>
<path stroke-width="1" stroke="black" d="M 163 37 255 22"/>
<path stroke-width="1" stroke="black" d="M 163 37 414 206"/>
<path stroke-width="1" stroke="black" d="M 163 37 162 315"/>
<path stroke-width="1" stroke="black" d="M 163 37 363 266"/>
<path stroke-width="1" stroke="black" d="M 163 37 69 256"/>
<path stroke-width="1" stroke="black" d="M 163 37 158 20"/>
<path stroke-width="1" stroke="black" d="M 163 37 27 182"/>
<path stroke-width="1" stroke="black" d="M 163 37 215 197"/>
<path stroke-width="1" stroke="black" d="M 163 37 203 154"/>
<path stroke-width="1" stroke="black" d="M 27 182 70 73"/>
<path stroke-width="1" stroke="black" d="M 27 182 244 320"/>
<path stroke-width="1" stroke="black" d="M 27 182 334 59"/>
<path stroke-width="1" stroke="black" d="M 27 182 20 143"/>
<path stroke-width="1" stroke="black" d="M 158 20 203 154"/>
<path stroke-width="1" stroke="black" d="M 27 182 81 254"/>
<path stroke-width="1" stroke="black" d="M 158 20 215 197"/>
<path stroke-width="1" stroke="black" d="M 158 20 163 37"/>
<path stroke-width="1" stroke="black" d="M 69 256 414 206"/>
<path stroke-width="1" stroke="black" d="M 69 256 162 315"/>
<path stroke-width="1" stroke="black" d="M 69 256 363 266"/>
<path stroke-width="1" stroke="black" d="M 69 256 158 20"/>
<path stroke-width="1" stroke="black" d="M 69 256 163 37"/>
<path stroke-width="1" stroke="black" d="M 69 256 27 182"/>
<path stroke-width="1" stroke="black" d="M 69 256 215 197"/>
<path stroke-width="1" stroke="black" d="M 69 256 203 154"/>
<path stroke-width="1" stroke="black" d="M 158 20 70 73"/>
<path stroke-width="1" stroke="black" d="M 158 20 244 320"/>
<path stroke-width="1" stroke="black" d="M 158 20 334 59"/>
<path stroke-width="1" stroke="black" d="M 158 20 20 143"/>
<path stroke-width="1" stroke="black" d="M 158 20 81 254"/>
<path stroke-width="1" stroke="black" d="M 158 20 183 228"/>
<path stroke-width="1" stroke="black" d="M 158 20 315 277"/>
<path stroke-width="1" stroke="black" d="M 158 20 84 97"/>
<path stroke-width="1" stroke="black" d="M 158 20 420 126"/>
<path stroke-width="1" stroke="black" d="M 158 20 278 133"/>
<path stroke-width="1" stroke="black" d="M 158 20 352 48"/>
<path stroke-width="1" stroke="black" d="M 158 20 377 162"/>
<path stroke-width="1" stroke="black" d="M 158 20 255 22"/>
<path stroke-width="1" stroke="black" d="M 158 20 414 206"/>
<path stroke-width="1" stroke="black" d="M 158 20 162 315"/>
<path stroke-width="1" stroke="black" d="M 158 20 363 266"/>
<path stroke-width="1" stroke="black" d="M 158 20 69 256"/>
<path stroke-width="1" stroke="black" d="M 158 20 27 182"/>
<path stroke-width="1" stroke="black" d="M 69 256 255 22"/>
<path stroke-width="1" stroke="black" d="M 27 182 183 228"/>
<path stroke-width="1" stroke="black" d="M 27 182 84 97"/>
<path stroke-width="1" stroke="black" d="M 215 197 69 256"/>
<path stroke-width="1" stroke="black" d="M 215 197 158 20"/>
<path stroke-width="1" stroke="black" d="M 215 197 163 37"/>
<path stroke-width="1" stroke="black" d="M 215 197 27 182"/>
<path stroke-width="1" stroke="black" d="M 215 197 203 154"/>
<path stroke-width="1" stroke="black" d="M 203 154 70 73"/>
<path stroke-width="1" stroke="black" d="M 203 154 244 320"/>
<path stroke-width="1" stroke="black" d="M 203 154 334 59"/>
<path stroke-width="1" stroke="black" d="M 203 154 20 143"/>
<path stroke-width="1" stroke="black" d="M 203 154 81 254"/>
<path stroke-width="1" stroke="black" d="M 203 154 183 228"/>
<path stroke-width="1" stroke="black" d="M 203 154 315 277"/>
<path stroke-width="1" stroke="black" d="M 203 154 84 97"/>
<path stroke-width="1" stroke="black" d="M 203 154 420 126"/>
<path stroke-width="1" stroke="black" d="M 203 154 278 133"/>
<path stroke-width="1" stroke="black" d="M 203 154 352 48"/>
<path stroke-width="1" stroke="black" d="M 203 154 377 162"/>
<path stroke-width="1" stroke="black" d="M 203 154 255 22"/>
<path stroke-width="1" stroke="black" d="M 203 154 414 206"/>
<path stroke-width="1" stroke="black" d="M 203 154 162 315"/>
<path stroke-width="1" stroke="black" d="M 203 154 363 266"/>
<path stroke-width="1" stroke="black" d="M 203 154 69 256"/>
<path stroke-width="1" stroke="black" d="M 203 154 158 20"/>
<path stroke-width="1" stroke="black" d="M 203 154 163 37"/>
<path stroke-width="1" stroke="black" d="M 203 154 27 182"/>
<path stroke-width="1" stroke="black" d="M 215 197 363 266"/>
<path stroke-width="1" stroke="black" d="M 27 182 315 277"/>
<path stroke-width="1" stroke="black" d="M 215 197 162 315"/>
<path stroke-width="1" stroke="black" d="M 215 197 255 22"/>
<path stroke-width="1" stroke="black" d="M 27 182 420 126"/>
<path stroke-width="1" stroke="black" d="M 27 182 278 133"/>
<path stroke-width="1" stroke="black" d="M 27 182 352 48"/>
<path stroke-width="1" stroke="black" d="M 27 182 377 162"/>
<path stroke-width="1" stroke="black" d="M 27 182 255 22"/>
<path stroke-width="1" stroke="black" d="M 27 182 414 206"/>
<path stroke-width="1" stroke="black" d="M 27 182 162 315"/>
<path stroke-width="1" stroke="black" d="M 27 182 363 266"/>
<path stroke-width="1" stroke="black" d="M 27 182 69 256"/>
<path stroke-width="1" stroke="black" d="M 27 182 158 20"/>
<path stroke-width="1" stroke="black" d="M 27 182 163 37"/>
<path stroke-width="1" stroke="black" d="M 27 182 215 197"/>
<path stroke-width="1" stroke="black" d="M 27 182 203 154"/>
<path stroke-width="1" stroke="black" d="M 215 197 70 73"/>
<path stroke-width="1" stroke="black" d="M 215 197 244 320"/>
<path stroke-width="1" stroke="black" d="M 215 197 334 59"/>
<path stroke-width="1" stroke="black" d="M 215 197 20 143"/>
<path stroke-width="1" stroke="black" d="M 215 197 81 254"/>
<path stroke-width="1" stroke="black" d="M 215 197 183 228"/>
<path stroke-width="1" stroke="black" d="M 215 197 315 277"/>
<path stroke-width="1" stroke="black" d="M 215 197 84 97"/>
<path stroke-width="1" stroke="black" d="M 215 197 420 126"/>
<path stroke-width="1" stroke="black" d="M 215 197 278 133"/>
<path stroke-width="1" stroke="black" d="M 215 197 352 48"/>
<path stroke-width="1" stroke="black" d="M 215 197 377 162"/>
<path stroke-width="1" stroke="black" d="M 215 197 414 206"/>
<path stroke-width="1" stroke="black" d="M 70 73 334 59"/>
<path stroke-width="1" stroke="black" d="M 69 256 377 162"/>
<path stroke-width="1" stroke="black" d="M 69 256 278 133"/>
<path stroke-width="1" stroke="black" d="M 255 22 352 48"/>
<path stroke-width="1" stroke="black" d="M 255 22 377 162"/>
<path stroke-width="1" stroke="black" d="M 255 22 414 206"/>
<path stroke-width="1" stroke="black" d="M 255 22 162 315"/>
<path stroke-width="1" stroke="black" d="M 255 22 363 266"/>
<path stroke-width="1" stroke="black" d="M 255 22 69 256"/>
<path stroke-width="1" stroke="black" d="M 255 22 158 20"/>
<path stroke-width="1" stroke="black" d="M 255 22 163 37"/>
<path stroke-width="1" stroke="black" d="M 255 22 27 182"/>
<path stroke-width="1" stroke="black" d="M 255 22 215 197"/>
<path stroke-width="1" stroke="black" d="M 255 22 203 154"/>
<path stroke-width="1" stroke="black" d="M 414 206 70 73"/>
<path stroke-width="1" stroke="black" d="M 414 206 244 320"/>
<path stroke-width="1" stroke="black" d="M 414 206 334 59"/>
<path stroke-width="1" stroke="black" d="M 414 206 20 143"/>
<path stroke-width="1" stroke="black" d="M 414 206 81 254"/>
<path stroke-width="1" stroke="black" d="M 414 206 183 228"/>
<path stroke-width="1" stroke="black" d="M 414 206 315 277"/>
<path stroke-width="1" stroke="black" d="M 414 206 84 97"/>
<path stroke-width="1" stroke="black" d="M 414 206 420 126"/>
<path stroke-width="1" stroke="black" d="M 414 206 278 133"/>
<path stroke-width="1" stroke="black" d="M 414 206 352 48"/>
<path stroke-width="1" stroke="black" d="M 414 206 377 162"/>
<path stroke-width="1" stroke="black" d="M 414 206 255 22"/>
<path stroke-width="1" stroke="black" d="M 414 206 162 315"/>
<path stroke-width="1" stroke="black" d="M 255 22 278 133"/>
<path stroke-width="1" stroke="black" d="M 414 206 363 266"/>
<path stroke-width="1" stroke="black" d="M 255 22 420 126"/>
<path stroke-width="1" stroke="black" d="M 255 22 315 277"/>
<path stroke-width="1" stroke="black" d="M 377 162 334 59"/>
<path stroke-width="1" stroke="black" d="M 377 162 20 143"/>
<path stroke-width="1" stroke="black" d="M 377 162 81 254"/>
<path stroke-width="1" stroke="black" d="M 377 162 183 228"/>
<path stroke-width="1" stroke="black" d="M 377 162 315 277"/>
<path stroke-width="1" stroke="black" d="M 377 162 84 97"/>
<path stroke-width="1" stroke="black" d="M 377 162 420 126"/>
<path stroke-width="1" stroke="black" d="M 377 162 278 133"/>
<path stroke-width="1" stroke="black" d="M 377 162 352 48"/>
<path stroke-width="1" stroke="black" d="M 377 162 255 22"/>
<path stroke-width="1" stroke="black" d="M 377 162 414 206"/>
<path stroke-width="1" stroke="black" d="M 377 162 162 315"/>
<path stroke-width="1" stroke="black" d="M 377 162 363 266"/>
<path stroke-width="1" stroke="black" d="M 377 162 69 256"/>
<path stroke-width="1" stroke="black" d="M 377 162 158 20"/>
<path stroke-width="1" stroke="black" d="M 377 162 163 37"/>
<path stroke-width="1" stroke="black" d="M 377 162 27 182"/>
<path stroke-width="1" stroke="black" d="M 377 162 215 197"/>
<path stroke-width="1" stroke="black" d="M 377 162 203 154"/>
<path stroke-width="1" stroke="black" d="M 255 22 70 73"/>
<path stroke-width="1" stroke="black" d="M 255 22 244 320"/>
<path stroke-width="1" stroke="black" d="M 255 22 334 59"/>
<path stroke-width="1" stroke="black" d="M 255 22 20 143"/>
<path stroke-width="1" stroke="black" d="M 255 22 81 254"/>
<path stroke-width="1" stroke="black" d="M 255 22 183 228"/>
<path stroke-width="1" stroke="black" d="M 255 22 84 97"/>
<path stroke-width="1" stroke="black" d="M 69 256 352 48"/>
<path stroke-width="1" stroke="black" d="M 414 206 69 256"/>
<path stroke-width="1" stroke="black" d="M 414 206 163 37"/>
<path stroke-width="1" stroke="black" d="M 363 266 183 228"/>
<path stroke-width="1" stroke="black" d="M 363 266 315 277"/>
<path stroke-width="1" stroke="black" d="M 363 266 84 97"/>
<path stroke-width="1" stroke="black" d="M 363 266 420 126"/>
<path stroke-width="1" stroke="black" d="M 363 266 278 133"/>
<path stroke-width="1" stroke="black" d="M 363 266 352 48"/>
<path stroke-width="1" stroke="black" d="M 363 266 377 162"/>
<path stroke-width="1" stroke="black" d="M 363 266 255 22"/>
<path stroke-width="1" stroke="black" d="M 363 266 414 206"/>
<path stroke-width="1" stroke="black" d="M 363 266 162 315"/>
<path stroke-width="1" stroke="black" d="M 363 266 69 256"/>
<path stroke-width="1" stroke="black" d="M 363 266 158 20"/>
<path stroke-width="1" stroke="black" d="M 363 266 163 37"/>
<path stroke-width="1" stroke="black" d="M 363 266 27 182"/>
<path stroke-width="1" stroke="black" d="M 363 266 215 197"/>
<path stroke-width="1" stroke="black" d="M 363 266 203 154"/>
<path stroke-width="1" stroke="black" d="M 69 256 70 73"/>
<path stroke-width="1" stroke="black" d="M 69 256 244 320"/>
<path stroke-width="1" stroke="black" d="M 69 256 334 59"/>
<path stroke-width="1" stroke="black" d="M 69 256 20 143"/>
<path stroke-width="1" stroke="black" d="M 69 256 81 254"/>
<path stroke-width="1" stroke="black" d="M 69 256 183 228"/>
<path stroke-width="1" stroke="black" d="M 69 256 315 277"/>
<path stroke-width="1" stroke="black" d="M 69 256 84 97"/>
<path stroke-width="1" stroke="black" d="M 69 256 420 126"/>
<path stroke-width="1" stroke="black" d="M 363 266 81 254"/>
<path stroke-width="1" stroke="black" d="M 414 206 158 20"/>
<path stroke-width="1" stroke="black" d="M 363 266 20 143"/>
<path stroke-width="1" stroke="black" d="M 363 266 244 320"/>
<path stroke-width="1" stroke="black" d="M 414 206 27 182"/>
<path stroke-width="1" stroke="black" d="M 414 206 215 197"/>
<path stroke-width="1" stroke="black" d="M 414 206 203 154"/>
<path stroke-width="1" stroke="black" d="M 162 315 70 73"/>
<path stroke-width="1" stroke="black" d="M 162 315 244 320"/>
<path stroke-width="1" stroke="black" d="M 162 315 334 59"/>
<path stroke-width="1" stroke="black" d="M 162 315 20 143"/>
<path stroke-width="1" stroke="black" d="M 162 315 81 254"/>
<path stroke-width="1" stroke="black" d="M 162 315 183 228"/>
<path stroke-width="1" stroke="black" d="M 162 315 315 277"/>
<path stroke-width="1" stroke="black" d="M 162 315 84 97"/>
<path stroke-width="1" stroke="black" d="M 162 315 420 126"/>
<path stroke-width="1" stroke="black" d="M 162 315 278 133"/>
<path stroke-width="1" stroke="black" d="M 162 315 352 48"/>
<path stroke-width="1" stroke="black" d="M 162 315 377 162"/>
<path stroke-width="1" stroke="black" d="M 162 315 255 22"/>
<path stroke-width="1" stroke="black" d="M 162 315 414 206"/>
<path stroke-width="1" stroke="black" d="M 162 315 363 266"/>
<path stroke-width="1" stroke="black" d="M 162 315 69 256"/>
<path stroke-width="1" stroke="black" d="M 162 315 158 20"/>
<path stroke-width="1" stroke="black" d="M 162 315 163 37"/>
<path stroke-width="1" stroke="black" d="M 162 315 27 182"/>
<path stroke-width="1" stroke="black" d="M 162 315 215 197"/>
<path stroke-width="1" stroke="black" d="M 162 315 203 154"/>
<path stroke-width="1" stroke="black" d="M 363 266 70 73"/>
<path stroke-width="1" stroke="black" d="M 363 266 334 59"/>
<path stroke-width="1" stroke="black" d="M 70 73 244 320"/>
<circle cx="203" cy="154" r="20.0" style="fill:blue;stroke:black;stroke-width:1.0"/>
<circle cx="215" cy="197" r="20.0" style="fill:red;stroke:black;stroke-width:1.0"/>
<circle cx="27" cy="182" r="20.0" style="fill:blue;stroke:black;stroke-width:1.0"/>
<circle cx="163" cy="37" r="20.0" style="fill:blue;stroke:black;stroke-width:1.0"/>
<circle cx="158" cy="20" r="20.0" style="fill:blue;stroke:black;stroke-width:1.0"/>
<circle cx="69" cy="256" r="20.0" style="fill:red;stroke:black;stroke-width:1.0"/>
<circle cx="363" cy="266" r="20.0" style="fill:green;stroke:black;stroke-width:1.0"/>
<circle cx="162" cy="315" r="20.0" style="fill:orange;stroke:black;stroke-width:1.0"/>
<circle cx="414" cy="206" r="20.0" style="fill:red;stroke:black;stroke-width:1.0"/>
<circle cx="255" cy="22" r="20.0" style="fill:red;stroke:black;stroke-width:1.0"/>
<circle cx="377" cy="162" r="20.0" style="fill:red;stroke:black;stroke-width:1.0"/>
<circle cx="352" cy="48" r="20.0" style="fill:red;stroke:black;stroke-width:1.0"/>
<circle cx="278" cy="133" r="20.0" style="fill:purple;stroke:black;stroke-width:1.0"/>
<circle cx="420" cy="126" r="20.0" style="fill:green;stroke:black;stroke-width:1.0"/>
<circle cx="84" cy="97" r="20.0" style="fill:red;stroke:black;stroke-width:1.0"/>
<circle cx="315" cy="277" r="20.0" style="fill:red;stroke:black;stroke-width:1.0"/>
<circle cx="183" cy="228" r="20.0" style="fill:blue;stroke:black;stroke-width:1.0"/>
<circle cx="81" cy="254" r="20.0" style="fill:blue;stroke:black;stroke-width:1.0"/>
<circle cx="20" cy="143" r="20.0" style="fill:blue;stroke:black;stroke-width:1.0"/>
<circle cx="334" cy="59" r="20.0" style="fill:blue;stroke:black;stroke-width:1.0"/>
<circle cx="244" cy="320" r="20.0" style="fill:orange;stroke:black;stroke-width:1.0"/>
<circle cx="70" cy="73" r="20.0" style="fill:purple;stroke:black;stroke-width:1.0"/>
</svg>
