<svg width="440" height="340" xmlns="http://www.w3.org/2000/svg">
<path stroke-width="1" stroke="black" d="M 210 162 255 155"/>
<path stroke-width="1" stroke="black" d="M 343 49 314 20"/>
<path stroke-width="1" stroke="black" d="M 343 49 20 190"/>
<path stroke-width="1" stroke="black" d="M 343 49 401 252"/>
<path stroke-width="1" stroke="black" d="M 343 49 241 319"/>
<path stroke-width="1" stroke="black" d="M 343 49 325 261"/>
<path stroke-width="1" stroke="black" d="M 343 49 22 114"/>
<path stroke-width="1" stroke="black" d="M 343 49 410 120"/>
<path stroke-width="1" stroke="black" d="M 343 49 302 305"/>
<path stroke-width="1" stroke="black" d="M 343 49 201 20"/>
<path stroke-width="1" stroke="black" d="M 343 49 336 292"/>
<path stroke-width="1" stroke="black" d="M 343 49 97 54"/>
<path stroke-width="1" stroke="black" d="M 410 120 210 162"/>
<path stroke-width="1" stroke="black" d="M 343 49 295 67"/>
<path stroke-width="1" stroke="black" d="M 343 49 60 259"/>
<path stroke-width="1" stroke="black" d="M 343 49 420 182"/>
<path stroke-width="1" stroke="black" d="M 343 49 224 25"/>
<path stroke-width="1" stroke="black" d="M 343 49 98 123"/>
<path stroke-width="1" stroke="black" d="M 343 49 116 320"/>
<path stroke-width="1" stroke="black" d="M 343 49 174 287"/>
<path stroke-width="1" stroke="black" d="M 343 49 255 155"/>
<path stroke-width="1" stroke="black" d="M 343 49 210 162"/>
<path stroke-width="1" stroke="black" d="M 302 305 314 20"/>
<path stroke-width="1" stroke="black" d="M 302 305 20 190"/>
<path stroke-width="1" stroke="black" d="M 302 305 401 252"/>
<path stroke-width="1" stroke="black" d="M 343 49 118 240"/>
<path stroke-width="1" stroke="black" d="M 410 120 255 155"/>
<path stroke-width="1" stroke="black" d="M 410 120 174 287"/>
<path stroke-width="1" stroke="black" d="M 410 120 116 320"/>
<path stroke-width="1" stroke="black" d="M 22 114 60 259"/>
<path stroke-width="1" stroke="black" d="M 22 114 420 182"/>
<path stroke-width="1" stroke="black" d="M 22 114 224 25"/>
<path stroke-width="1" stroke="black" d="M 22 114 98 123"/>
<path stroke-width="1" stroke="black" d="M 22 114 116 320"/>
<path stroke-width="1" stroke="black" d="M 22 114 174 287"/>
<path stroke-width="1" stroke="black" d="M 22 114 255 155"/>
<path stroke-width="1" stroke="black" d="M 22 114 210 162"/>
<path stroke-width="1" stroke="black" d="M 410 120 314 20"/>
<path stroke-width="1" stroke="black" d="M 410 120 20 190"/>
<path stroke-width="1" stroke="black" d="M 410 120 401 252"/>
<path stroke-width="1" stroke="black" d="M 410 120 241 319"/>
<path stroke-width="1" stroke="black" d="M 410 120 325 261"/>
<path stroke-width="1" stroke="black" d="M 410 120 22 114"/>
<path stroke-width="1" stroke="black" d="M 410 120 343 49"/>
<path stroke-width="1" stroke="black" d="M 410 120 302 305"/>
<path stroke-width="1" stroke="black" d="M 410 120 201 20"/>
<path stroke-width="1" stroke="black" d="M 410 120 336 292"/>
<path stroke-width="1" stroke="black" d="M 410 120 97 54"/>
<path stroke-width="1" stroke="black" d="M 410 120 295 67"/>
<path stroke-width="1" stroke="black" d="M 410 120 118 240"/>
<path stroke-width="1" stroke="black" d="M 410 120 60 259"/>
<path stroke-width="1" stroke="black" d="M 410 120 420 182"/>
<path stroke-width="1" stroke="black" d="M 410 120 224 25"/>
<path stroke-width="1" stroke="black" d="M 410 120 98 123"/>
<path stroke-width="1" stroke="black" d="M 302 305 241 319"/>
<path stroke-width="1" stroke="black" d="M 302 305 325 261"/>
<path stroke-width="1" stroke="black" d="M 302 305 22 114"/>
<path stroke-width="1" stroke="black" d="M 302 305 410 120"/>
<path stroke-width="1" stroke="black" d="M 201 20 224 25"/>
<path stroke-width="1" stroke="black" d="M 201 20 98 123"/>
<path stroke-width="1" stroke="black" d="M 201 20 116 320"/>
<path stroke-width="1" stroke="black" d="M 201 20 174 287"/>
<path stroke-width="1" stroke="black" d="M 201 20 255 155"/>
<path stroke-width="1" stroke="black" d="M 201 20 210 162"/>
<path stroke-width="1" stroke="black" d="M 336 292 314 20"/>
<path stroke-width="1" stroke="black" d="M 336 292 20 190"/>
<path stroke-width="1" stroke="black" d="M 336 292 401 252"/>
<path stroke-width="1" stroke="black" d="M 336 292 241 319"/>
<path stroke-width="1" stroke="black" d="M 336 292 325 261"/>
<path stroke-width="1" stroke="black" d="M 336 292 22 114"/>
<path stroke-width="1" stroke="black" d="M 336 292 410 120"/>
<path stroke-width="1" stroke="black" d="M 336 292 343 49"/>
<path stroke-width="1" stroke="black" d="M 336 292 302 305"/>
<path stroke-width="1" stroke="black" d="M 336 292 201 20"/>
<path stroke-width="1" stroke="black" d="M 336 292 97 54"/>
<path stroke-width="1" stroke="black" d="M 336 292 295 67"/>
<path stroke-width="1" stroke="black" d="M 336 292 118 240"/>
<path stroke-width="1" stroke="black" d="M 336 292 60 259"/>
<path stroke-width="1" stroke="black" d="M 336 292 420 182"/>
<path stroke-width="1" stroke="black" d="M 336 292 224 25"/>
<path stroke-width="1" stroke="black" d="M 336 292 98 123"/>
<path stroke-width="1" stroke="black" d="M 336 292 116 320"/>
<path stroke-width="1" stroke="black" d="M 336 292 174 287"/>
<path stroke-width="1" stroke="black" d="M 201 20 420 182"/>
<path stroke-width="1" stroke="black" d="M 22 114 118 240"/>
<path stroke-width="1" stroke="black" d="M 201 20 60 259"/>
<path stroke-width="1" stroke="black" d="M 201 20 295 67"/>
<path stroke-width="1" stroke="black" d="M 302 305 343 49"/>
<path stroke-width="1" stroke="black" d="M 302 305 201 20"/>
<path stroke-width="1" stroke="black" d="M 302 305 336 292"/>
<path stroke-width="1" stroke="black" d="M 302 305 97 54"/>
<path stroke-width="1" stroke="black" d="M 302 305 295 67"/>
<path stroke-width="1" stroke="black" d="M 302 305 118 240"/>
<path stroke-width="1" stroke="black" d="M 302 305 60 259"/>
<path stroke-width="1" stroke="black" d="M 302 305 420 182"/>
<path stroke-width="1" stroke="black" d="M 302 305 224 25"/>
<path stroke-width="1" stroke="black" d="M 302 305 98 123"/>
<path stroke-width="1" stroke="black" d="M 302 305 116 320"/>
<path stroke-width="1" stroke="black" d="M 302 305 174 287"/>
<path stroke-width="1" stroke="black" d="M 302 305 255 155"/>
<path stroke-width="1" stroke="black" d="M 302 305 210 162"/>
<path stroke-width="1" stroke="black" d="M 201 20 314 20"/>
<path stroke-width="1" stroke="black" d="M 201 20 20 190"/>
<path stroke-width="1" stroke="black" d="M 201 20 401 252"/>
<path stroke-width="1" stroke="black" d="M 201 20 241 319"/>
<path stroke-width="1" stroke="black" d="M 201 20 325 261"/>
<path stroke-width="1" stroke="black" d="M 201 20 22 114"/>
<path stroke-width="1" stroke="black" d="M 201 20 410 120"/>
<path stroke-width="1" stroke="black" d="M 201 20 343 49"/>
<path stroke-width="1" stroke="black" d="M 201 20 302 305"/>
<path stroke-width="1" stroke="black" d="M 201 20 336 292"/>
<path stroke-width="1" stroke="black" d="M 201 20 97 54"/>
<path stroke-width="1" stroke="black" d="M 201 20 118 240"/>
<path stroke-width="1" stroke="black" d="M 22 114 295 67"/>
<path stroke-width="1" stroke="black" d="M 22 114 97 54"/>
<path stroke-width="1" stroke="black" d="M 22 114 336 292"/>
<path stroke-width="1" stroke="black" d="M 20 190 97 54"/>
<path stroke-width="1" stroke="black" d="M 20 190 295 67"/>
<path stroke-width="1" stroke="black" d="M 20 190 118 240"/>
<path stroke-width="1" stroke="black" d="M 20 190 60 259"/>
<path stroke-width="1" stroke="black" d="M 20 190 420 182"/>
<path stroke-width="1" stroke="black" d="M 20 190 224 25"/>
<path stroke-width="1" stroke="black" d="M 20 190 98 123"/>
<path stroke-width="1" stroke="black" d="M 20 190 116 320"/>
<path stroke-width="1" stroke="black" d="M 20 190 174 287"/>
<path stroke-width="1" stroke="black" d="M 20 190 255 155"/>
<path stroke-width="1" stroke="black" d="M 20 190 210 162"/>
<path stroke-width="1" stroke="black" d="M 401 252 314 20"/>
<path stroke-width="1" stroke="black" d="M 401 252 20 190"/>
<path stroke-width="1" stroke="black" d="M 401 252 241 319"/>
<path stroke-width="1" stroke="black" d="M 401 252 325 261"/>
<path stroke-width="1" stroke="black" d="M 401 252 22 114"/>
<path stroke-width="1" stroke="black" d="M 401 252 410 120"/>
<path stroke-width="1" stroke="black" d="M 401 252 343 49"/>
<path stroke-width="1" stroke="black" d="M 401 252 302 305"/>
<path stroke-width="1" stroke="black" d="M 401 252 201 20"/>
<path stroke-width="1" stroke="black" d="M 401 252 336 292"/>
<path stroke-width="1" stroke="black" d="M 401 252 97 54"/>
<path stroke-width="1" stroke="black" d="M 401 252 295 67"/>
<path stroke-width="1" stroke="black" d="M 401 252 118 240"/>
<path stroke-width="1" stroke="black" d="M 401 252 60 259"/>
<path stroke-width="1" stroke="black" d="M 20 190 336 292"/>
<path stroke-width="1" stroke="black" d="M 401 252 420 182"/>
<path stroke-width="1" stroke="black" d="M 20 190 201 20"/>
<path stroke-width="1" stroke="black" d="M 20 190 343 49"/>
<path stroke-width="1" stroke="black" d="M 314 20 241 319"/>
<path stroke-width="1" stroke="black" d="M 314 20 325 261"/>
<path stroke-width="1" stroke="black" d="M 314 20 22 114"/>
<path stroke-width="1" stroke="black" d="M 314 20 410 120"/>
<path stroke-width="1" stroke="black" d="M 314 20 343 49"/>
<path stroke-width="1" stroke="black" d="M 314 20 302 305"/>
<path stroke-width="1" stroke="black" d="M 314 20 201 20"/>
<path stroke-width="1" stroke="black" d="M 314 20 336 292"/>
<path stroke-width="1" stroke="black" d="M 314 20 97 54"/>
<path stroke-width="1" stroke="black" d="M 314 20 295 67"/>
<path stroke-width="1" stroke="black" d="M 314 20 118 240"/>
<path stroke-width="1" stroke="black" d="M 314 20 60 259"/>
<path stroke-width="1" stroke="black" d="M 314 20 420 182"/>
<path stroke-width="1" stroke="black" d="M 314 20 224 25"/>
<path stroke-width="1" stroke="black" d="M 314 20 98 123"/>
<path stroke-width="1" stroke="black" d="M 314 20 116 320"/>
<path stroke-width="1" stroke="black" d="M 314 20 174 287"/>
<path stroke-width="1" stroke="black" d="M 314 20 255 155"/>
<path stroke-width="1" stroke="black" d="M 314 20 210 162"/>
<path stroke-width="1" stroke="black" d="M 20 190 314 20"/>
<path stroke-width="1" stroke="black" d="M 20 190 401 252"/>
<path stroke-width="1" stroke="black" d="M 20 190 241 319"/>
<path stroke-width="1" stroke="black" d="M 20 190 325 261"/>
<path stroke-width="1" stroke="black" d="M 20 190 22 114"/>
<path stroke-width="1" stroke="black" d="M 20 190 410 120"/>
<path stroke-width="1" stroke="black" d="M 20 190 302 305"/>
<path stroke-width="1" stroke="black" d="M 336 292 255 155"/>
<path stroke-width="1" stroke="black" d="M 401 252 224 25"/>
<path stroke-width="1" stroke="black" d="M 401 252 116 320"/>
<path stroke-width="1" stroke="black" d="M 325 261 410 120"/>
<path stroke-width="1" stroke="black" d="M 325 261 343 49"/>
<path stroke-width="1" stroke="black" d="M 325 261 302 305"/>
<path stroke-width="1" stroke="black" d="M 325 261 201 20"/>
<path stroke-width="1" stroke="black" d="M 325 261 336 292"/>
<path stroke-width="1" stroke="black" d="M 325 261 97 54"/>
<path stroke-width="1" stroke="black" d="M 325 261 295 67"/>
<path stroke-width="1" stroke="black" d="M 325 261 118 240"/>
<path stroke-width="1" stroke="black" d="M 325 261 60 259"/>
<path stroke-width="1" stroke="black" d="M 325 261 420 182"/>
<path stroke-width="1" stroke="black" d="M 325 261 224 25"/>
<path stroke-width="1" stroke="black" d="M 325 261 98 123"/>
<path stroke-width="1" stroke="black" d="M 325 261 116 320"/>
<path stroke-width="1" stroke="black" d="M 325 261 174 287"/>
<path stroke-width="1" stroke="black" d="M 325 261 255 155"/>
<path stroke-width="1" stroke="black" d="M 325 261 210 162"/>
<path stroke-width="1" stroke="black" d="M 22 114 314 20"/>
<path stroke-width="1" stroke="black" d="M 22 114 20 190"/>
<path stroke-width="1" stroke="black" d="M 22 114 401 252"/>
<path stroke-width="1" stroke="black" d="M 22 114 241 319"/>
<path stroke-width="1" stroke="black" d="M 22 114 325 261"/>
<path stroke-width="1" stroke="black" d="M 22 114 410 120"/>
<path stroke-width="1" stroke="black" d="M 22 114 343 49"/>
<path stroke-width="1" stroke="black" d="M 22 114 302 305"/>
<path stroke-width="1" stroke="black" d="M 22 114 201 20"/>
<path stroke-width="1" stroke="black" d="M 325 261 22 114"/>
<path stroke-width="1" stroke="black" d="M 401 252 98 123"/>
<path stroke-width="1" stroke="black" d="M 325 261 241 319"/>
<path stroke-width="1" stroke="black" d="M 325 261 20 190"/>
<path stroke-width="1" stroke="black" d="M 401 252 174 287"/>
<path stroke-width="1" stroke="black" d="M 401 252 255 155"/>
<path stroke-width="1" stroke="black" d="M 401 252 210 162"/>
<path stroke-width="1" stroke="black" d="M 241 319 314 20"/>
<path stroke-width="1" stroke="black" d="M 241 319 20 190"/>
<path stroke-width="1" stroke="black" d="M 241 319 401 252"/>
<path stroke-width="1" stroke="black" d="M 241 319 325 261"/>
<path stroke-width="1" stroke="black" d="M 241 319 22 114"/>
<path stroke-width="1" stroke="black" d="M 241 319 410 120"/>
<path stroke-width="1" stroke="black" d="M 241 319 343 49"/>
<path stroke-width="1" stroke="black" d="M 241 319 302 305"/>
<path stroke-width="1" stroke="black" d="M 241 319 201 20"/>
<path stroke-width="1" stroke="black" d="M 241 319 336 292"/>
<path stroke-width="1" stroke="black" d="M 241 319 97 54"/>
<path stroke-width="1" stroke="black" d="M 241 319 295 67"/>
<path stroke-width="1" stroke="black" d="M 241 319 118 240"/>
<path stroke-width="1" stroke="black" d="M 241 319 60 259"/>
<path stroke-width="1" stroke="black" d="M 241 319 420 182"/>
<path stroke-width="1" stroke="black" d="M 241 319 224 25"/>
<path stroke-width="1" stroke="black" d="M 241 319 98 123"/>
<path stroke-width="1" stroke="black" d="M 241 319 116 320"/>
<path stroke-width="1" stroke="black" d="M 241 319 174 287"/>
<path stroke-width="1" stroke="black" d="M 241 319 255 155"/>
<path stroke-width="1" stroke="black" d="M 241 319 210 162"/>
<path stroke-width="1" stroke="black" d="M 325 261 314 20"/>
<path stroke-width="1" stroke="black" d="M 325 261 401 252"/>
<path stroke-width="1" stroke="black" d="M 336 292 210 162"/>
<path stroke-width="1" stroke="black" d="M 97 54 314 20"/>
<path stroke-width="1" stroke="black" d="M 97 54 20 190"/>
<path stroke-width="1" stroke="black" d="M 116 320 314 20"/>
<path stroke-width="1" stroke="black" d="M 116 320 20 190"/>
<path stroke-width="1" stroke="black" d="M 116 320 401 252"/>
<path stroke-width="1" stroke="black" d="M 116 320 241 319"/>
<path stroke-width="1" stroke="black" d="M 116 320 325 261"/>
<path stroke-width="1" stroke="black" d="M 116 320 22 114"/>
<path stroke-width="1" stroke="black" d="M 116 320 410 120"/>
<path stroke-width="1" stroke="black" d="M 116 320 343 49"/>
<path stroke-width="1" stroke="black" d="M 116 320 302 305"/>
<path stroke-width="1" stroke="black" d="M 116 320 201 20"/>
<path stroke-width="1" stroke="black" d="M 116 320 336 292"/>
<path stroke-width="1" stroke="black" d="M 116 320 97 54"/>
<path stroke-width="1" stroke="black" d="M 116 320 295 67"/>
<path stroke-width="1" stroke="black" d="M 116 320 118 240"/>
<path stroke-width="1" stroke="black" d="M 116 320 60 259"/>
<path stroke-width="1" stroke="black" d="M 116 320 420 182"/>
<path stroke-width="1" stroke="black" d="M 116 320 224 25"/>
<path stroke-width="1" stroke="black" d="M 116 320 98 123"/>
<path stroke-width="1" stroke="black" d="M 116 320 174 287"/>
<path stroke-width="1" stroke="black" d="M 116 320 255 155"/>
<path stroke-width="1" stroke="black" d="M 116 320 210 162"/>
<path stroke-width="1" stroke="black" d="M 174 287 314 20"/>
<path stroke-width="1" stroke="black" d="M 174 287 20 190"/>
<path stroke-width="1" stroke="black" d="M 174 287 401 252"/>
<path stroke-width="1" stroke="black" d="M 174 287 241 319"/>
<path stroke-width="1" stroke="black" d="M 98 123 210 162"/>
<path stroke-width="1" stroke="black" d="M 174 287 325 261"/>
<path stroke-width="1" stroke="black" d="M 98 123 255 155"/>
<path stroke-width="1" stroke="black" d="M 98 123 116 320"/>
<path stroke-width="1" stroke="black" d="M 224 25 118 240"/>
<path stroke-width="1" stroke="black" d="M 224 25 60 259"/>
<path stroke-width="1" stroke="black" d="M 224 25 420 182"/>
<path stroke-width="1" stroke="black" d="M 224 25 98 123"/>
<path stroke-width="1" stroke="black" d="M 224 25 116 320"/>
<path stroke-width="1" stroke="black" d="M 224 25 174 287"/>
<path stroke-width="1" stroke="black" d="M 224 25 255 155"/>
<path stroke-width="1" stroke="black" d="M 224 25 210 162"/>
<path stroke-width="1" stroke="black" d="M 98 123 314 20"/>
<path stroke-width="1" stroke="black" d="M 98 123 20 190"/>
<path stroke-width="1" stroke="black" d="M 98 123 401 252"/>
<path stroke-width="1" stroke="black" d="M 98 123 241 319"/>
<path stroke-width="1" stroke="black" d="M 98 123 325 261"/>
<path stroke-width="1" stroke="black" d="M 98 123 22 114"/>
<path stroke-width="1" stroke="black" d="M 98 123 410 120"/>
<path stroke-width="1" stroke="black" d="M 98 123 343 49"/>
<path stroke-width="1" stroke="black" d="M 98 123 302 305"/>
<path stroke-width="1" stroke="black" d="M 98 123 201 20"/>
<path stroke-width="1" stroke="black" d="M 98 123 336 292"/>
<path stroke-width="1" stroke="black" d="M 98 123 97 54"/>
<path stroke-width="1" stroke="black" d="M 98 123 295 67"/>
<path stroke-width="1" stroke="black" d="M 98 123 118 240"/>
<path stroke-width="1" stroke="black" d="M 98 123 60 259"/>
<path stroke-width="1" stroke="black" d="M 98 123 420 182"/>
<path stroke-width="1" stroke="black" d="M 98 123 224 25"/>
<path stroke-width="1" stroke="black" d="M 98 123 174 287"/>
<path stroke-width="1" stroke="black" d="M 224 25 295 67"/>
<path stroke-width="1" stroke="black" d="M 174 287 22 114"/>
<path stroke-width="1" stroke="black" d="M 174 287 343 49"/>
<path stroke-width="1" stroke="black" d="M 255 155 224 25"/>
<path stroke-width="1" stroke="black" d="M 255 155 98 123"/>
<path stroke-width="1" stroke="black" d="M 255 155 116 320"/>
<path stroke-width="1" stroke="black" d="M 255 155 174 287"/>
<path stroke-width="1" stroke="black" d="M 255 155 210 162"/>
<path stroke-width="1" stroke="black" d="M 210 162 314 20"/>
<path stroke-width="1" stroke="black" d="M 210 162 20 190"/>
<path stroke-width="1" stroke="black" d="M 210 162 401 252"/>
<path stroke-width="1" stroke="black" d="M 210 162 241 319"/>
<path stroke-width="1" stroke="black" d="M 210 162 325 261"/>
<path stroke-width="1" stroke="black" d="M 210 162 22 114"/>
<path stroke-width="1" stroke="black" d="M 210 162 410 120"/>
<path stroke-width="1" stroke="black" d="M 210 162 343 49"/>
<path stroke-width="1" stroke="black" d="M 210 162 302 305"/>
<path stroke-width="1" stroke="black" d="M 210 162 201 20"/>
<path stroke-width="1" stroke="black" d="M 210 162 336 292"/>
<path stroke-width="1" stroke="black" d="M 210 162 97 54"/>
<path stroke-width="1" stroke="black" d="M 210 162 295 67"/>
<path stroke-width="1" stroke="black" d="M 210 162 118 240"/>
<path stroke-width="1" stroke="black" d="M 210 162 60 259"/>
<path stroke-width="1" stroke="black" d="M 210 162 420 182"/>
<path stroke-width="1" stroke="black" d="M 210 162 224 25"/>
<path stroke-width="1" stroke="black" d="M 210 162 98 123"/>
<path stroke-width="1" stroke="black" d="M 210 162 116 320"/>
<path stroke-width="1" stroke="black" d="M 210 162 174 287"/>
<path stroke-width="1" stroke="black" d="M 255 155 420 182"/>
<path stroke-width="1" stroke="black" d="M 174 287 410 120"/>
<path stroke-width="1" stroke="black" d="M 255 155 60 259"/>
<path stroke-width="1" stroke="black" d="M 255 155 295 67"/>
<path stroke-width="1" stroke="black" d="M 174 287 302 305"/>
<path stroke-width="1" stroke="black" d="M 174 287 201 20"/>
<path stroke-width="1" stroke="black" d="M 174 287 336 292"/>
<path stroke-width="1" stroke="black" d="M 174 287 97 54"/>
<path stroke-width="1" stroke="black" d="M 174 287 295 67"/>
<path stroke-width="1" stroke="black" d="M 174 287 118 240"/>
<path stroke-width="1" stroke="black" d="M 174 287 60 259"/>
<path stroke-width="1" stroke="black" d="M 174 287 420 182"/>
<path stroke-width="1" stroke="black" d="M 174 287 224 25"/>
<path stroke-width="1" stroke="black" d="M 174 287 98 123"/>
<path stroke-width="1" stroke="black" d="M 174 287 116 320"/>
<path stroke-width="1" stroke="black" d="M 174 287 255 155"/>
<path stroke-width="1" stroke="black" d="M 174 287 210 162"/>
<path stroke-width="1" stroke="black" d="M 255 155 314 20"/>
<path stroke-width="1" stroke="black" d="M 255 155 20 190"/>
<path stroke-width="1" stroke="black" d="M 255 155 401 252"/>
<path stroke-width="1" stroke="black" d="M 255 155 241 319"/>
<path stroke-width="1" stroke="black" d="M 255 155 325 261"/>
<path stroke-width="1" stroke="black" d="M 255 155 22 114"/>
<path stroke-width="1" stroke="black" d="M 255 155 410 120"/>
<path stroke-width="1" stroke="black" d="M 255 155 343 49"/>
<path stroke-width="1" stroke="black" d="M 255 155 302 305"/>
<path stroke-width="1" stroke="black" d="M 255 155 201 20"/>
<path stroke-width="1" stroke="black" d="M 255 155 336 292"/>
<path stroke-width="1" stroke="black" d="M 255 155 97 54"/>
<path stroke-width="1" stroke="black" d="M 255 155 118 240"/>
<path stroke-width="1" stroke="black" d="M 314 20 401 252"/>
<path stroke-width="1" stroke="black" d="M 224 25 97 54"/>
<path stroke-width="1" stroke="black" d="M 224 25 201 20"/>
<path stroke-width="1" stroke="black" d="M 295 67 336 292"/>
<path stroke-width="1" stroke="black" d="M 295 67 97 54"/>
<path stroke-width="1" stroke="black" d="M 295 67 118 240"/>
<path stroke-width="1" stroke="black" d="M 295 67 60 259"/>
<path stroke-width="1" stroke="black" d="M 295 67 420 182"/>
<path stroke-width="1" stroke="black" d="M 295 67 224 25"/>
<path stroke-width="1" stroke="black" d="M 295 67 98 123"/>
<path stroke-width="1" stroke="black" d="M 295 67 116 320"/>
<path stroke-width="1" stroke="black" d="M 295 67 174 287"/>
<path stroke-width="1" stroke="black" d="M 295 67 255 155"/>
<path stroke-width="1" stroke="black" d="M 295 67 210 162"/>
<path stroke-width="1" stroke="black" d="M 118 240 314 20"/>
<path stroke-width="1" stroke="black" d="M 118 240 20 190"/>
<path stroke-width="1" stroke="black" d="M 118 240 401 252"/>
<path stroke-width="1" stroke="black" d="M 118 240 241 319"/>
<path stroke-width="1" stroke="black" d="M 118 240 325 261"/>
<path stroke-width="1" stroke="black" d="M 118 240 22 114"/>
<path stroke-width="1" stroke="black" d="M 118 240 410 120"/>
<path stroke-width="1" stroke="black" d="M 118 240 343 49"/>
<path stroke-width="1" stroke="black" d="M 118 240 302 305"/>
<path stroke-width="1" stroke="black" d="M 118 240 201 20"/>
<path stroke-width="1" stroke="black" d="M 118 240 336 292"/>
<path stroke-width="1" stroke="black" d="M 118 240 97 54"/>
<path stroke-width="1" stroke="black" d="M 118 240 295 67"/>
<path stroke-width="1" stroke="black" d="M 118 240 60 259"/>
<path stroke-width="1" stroke="black" d="M 295 67 201 20"/>
<path stroke-width="1" stroke="black" d="M 118 240 420 182"/>
<path stroke-width="1" stroke="black" d="M 295 67 302 305"/>
<path stroke-width="1" stroke="black" d="M 295 67 410 120"/>
<path stroke-width="1" stroke="black" d="M 97 54 401 252"/>
<path stroke-width="1" stroke="black" d="M 97 54 241 319"/>
<path stroke-width="1" stroke="black" d="M 97 54 325 261"/>
<path stroke-width="1" stroke="black" d="M 97 54 22 114"/>
<path stroke-width="1" stroke="black" d="M 97 54 410 120"/>
<path stroke-width="1" stroke="black" d="M 97 54 343 49"/>
<path stroke-width="1" stroke="black" d="M 97 54 302 305"/>
<path stroke-width="1" stroke="black" d="M 97 54 201 20"/>
<path stroke-width="1" stroke="black" d="M 97 54 336 292"/>
<path stroke-width="1" stroke="black" d="M 97 54 295 67"/>
<path stroke-width="1" stroke="black" d="M 97 54 118 240"/>
<path stroke-width="1" stroke="black" d="M 97 54 60 259"/>
<path stroke-width="1" stroke="black" d="M 97 54 420 182"/>
<path stroke-width="1" stroke="black" d="M 97 54 224 25"/>
<path stroke-width="1" stroke="black" d="M 97 54 98 123"/>
<path stroke-width="1" stroke="black" d="M 97 54 116 320"/>
<path stroke-width="1" stroke="black" d="M 97 54 174 287"/>
<path stroke-width="1" stroke="black" d="M 97 54 255 155"/>
<path stroke-width="1" stroke="black" d="M 97 54 210 162"/>
<path stroke-width="1" stroke="black" d="M 295 67 314 20"/>
<path stroke-width="1" stroke="black" d="M 295 67 20 190"/>
<path stroke-width="1" stroke="black" d="M 295 67 401 252"/>
<path stroke-width="1" stroke="black" d="M 295 67 241 319"/>
<path stroke-width="1" stroke="black" d="M 295 67 325 261"/>
<path stroke-width="1" stroke="black" d="M 295 67 22 114"/>
<path stroke-width="1" stroke="black" d="M 295 67 343 49"/>
<path stroke-width="1" stroke="black" d="M 224 25 336 292"/>
<path stroke-width="1" stroke="black" d="M 118 240 224 25"/>
<path stroke-width="1" stroke="black" d="M 118 240 116 320"/>
<path stroke-width="1" stroke="black" d="M 420 182 22 114"/>
<path stroke-width="1" stroke="black" d="M 420 182 410 120"/>
<path stroke-width="1" stroke="black" d="M 420 182 343 49"/>
<path stroke-width="1" stroke="black" d="M 420 182 302 305"/>
<path stroke-width="1" stroke="black" d="M 420 182 201 20"/>
<path stroke-width="1" stroke="black" d="M 420 182 336 292"/>
<path stroke-width="1" stroke="black" d="M 420 182 97 54"/>
<path stroke-width="1" stroke="black" d="M 420 182 295 67"/>
<path stroke-width="1" stroke="black" d="M 420 182 118 240"/>
<path stroke-width="1" stroke="black" d="M 420 182 60 259"/>
<path stroke-width="1" stroke="black" d="M 420 182 224 25"/>
<path stroke-width="1" stroke="black" d="M 420 182 98 123"/>
<path stroke-width="1" stroke="black" d="M 420 182 116 320"/>
<path stroke-width="1" stroke="black" d="M 420 182 174 287"/>
<path stroke-width="1" stroke="black" d="M 420 182 255 155"/>
<path stroke-width="1" stroke="black" d="M 420 182 210 162"/>
<path stroke-width="1" stroke="black" d="M 224 25 314 20"/>
<path stroke-width="1" stroke="black" d="M 224 25 20 190"/>
<path stroke-width="1" stroke="black" d="M 224 25 401 252"/>
<path stroke-width="1" stroke="black" d="M 224 25 241 319"/>
<path stroke-width="1" stroke="black" d="M 224 25 325 261"/>
<path stroke-width="1" stroke="black" d="M 224 25 22 114"/>
<path stroke-width="1" stroke="black" d="M 224 25 410 120"/>
<path stroke-width="1" stroke="black" d="M 224 25 343 49"/>
<path stroke-width="1" stroke="black" d="M 224 25 302 305"/>
<path stroke-width="1" stroke="black" d="M 420 182 325 261"/>
<path stroke-width="1" stroke="black" d="M 118 240 98 123"/>
<path stroke-width="1" stroke="black" d="M 420 182 241 319"/>
<path stroke-width="1" stroke="black" d="M 420 182 20 190"/>
<path stroke-width="1" stroke="black" d="M 118 240 174 287"/>
<path stroke-width="1" stroke="black" d="M 118 240 255 155"/>
<path stroke-width="1" stroke="black" d="M 118 240 210 162"/>
<path stroke-width="1" stroke="black" d="M 60 259 314 20"/>
<path stroke-width="1" stroke="black" d="M 60 259 20 190"/>
<path stroke-width="1" stroke="black" d="M 60 259 401 252"/>
<path stroke-width="1" stroke="black" d="M 60 259 241 319"/>
<path stroke-width="1" stroke="black" d="M 60 259 325 261"/>
<path stroke-width="1" stroke="black" d="M 60 259 22 114"/>
<path stroke-width="1" stroke="black" d="M 60 259 410 120"/>
<path stroke-width="1" stroke="black" d="M 60 259 343 49"/>
<path stroke-width="1" stroke="black" d="M 60 259 302 305"/>
<path stroke-width="1" stroke="black" d="M 60 259 201 20"/>
<path stroke-width="1" stroke="black" d="M 60 259 336 292"/>
<path stroke-width="1" stroke="black" d="M 60 259 97 54"/>
<path stroke-width="1" stroke="black" d="M 60 259 295 67"/>
<path stroke-width="1" stroke="black" d="M 60 259 118 240"/>
<path stroke-width="1" stroke="black" d="M 60 259 420 182"/>
<path stroke-width="1" stroke="black" d="M 60 259 224 25"/>
<path stroke-width="1" stroke="black" d="M 60 259 98 123"/>
<path stroke-width="1" stroke="black" d="M 60 259 116 320"/>
<path stroke-width="1" stroke="black" d="M 60 259 174 287"/>
<path stroke-width="1" stroke="black" d="M 60 259 255 155"/>
<path stroke-width="1" stroke="black" d="M 60 259 210 162"/>
<path stroke-width="1" stroke="black" d="M 420 182 314 20"/>
<path stroke-width="1" stroke="black" d="M 420 182 401 252"/>
<path stroke-width="1" stroke="black" d="M 314 20 20 190"/>
<circle cx="210" cy="162" r="7.0" style="fill:gray;stroke:black;stroke-width:1.0"/>
<circle cx="255" cy="155" r="7.0" style="fill:gray;stroke:black;stroke-width:1.0"/>
<circle cx="174" cy="287" r="7.0" style="fill:gray;stroke:black;stroke-width:1.0"/>
<circle cx="116" cy="320" r="7.0" style="fill:gray;stroke:black;stroke-width:1.0"/>
<circle cx="98" cy="123" r="7.0" style="fill:gray;stroke:black;stroke-width:1.0"/>
<circle cx="224" cy="25" r="7.0" style="fill:gray;stroke:black;stroke-width:1.0"/>
<circle cx="420" cy="182" r="7.0" style="fill:gray;stroke:black;stroke-width:1.0"/>
<circle cx="60" cy="259" r="7.0" style="fill:gray;stroke:black;stroke-width:1.0"/>
<circle cx="118" cy="240" r="7.0" style="fill:gray;stroke:black;stroke-width:1.0"/>
<circle cx="295" cy="67" r="7.0" style="fill:gray;stroke:black;stroke-width:1.0"/>
<circle cx="97" cy="54" r="7.0" style="fill:gray;stroke:black;stroke-width:1.0"/>
<circle cx="336" cy="292" r="7.0" style="fill:gray;stroke:black;stroke-width:1.0"/>
<circle cx="201" cy="20" r="7.0" style="fill:gray;stroke:black;stroke-width:1.0"/>
<circle cx="302" cy="305" r="7.0" style="fill:gray;stroke:black;stroke-width:1.0"/>
<circle cx="343" cy="49" r="7.0" style="fill:gray;stroke:black;stroke-width:1.0"/>
<circle cx="410" cy="120" r="7.0" style="fill:gray;stroke:black;stroke-width:1.0"/>
<circle cx="22" cy="114" r="7.0" style="fill:gray;stroke:black;stroke-width:1.0"/>
<circle cx="325" cy="261" r="7.0" style="fill:gray;stroke:black;stroke-width:1.0"/>
<circle cx="241" cy="319" r="7.0" style="fill:gray;stroke:black;stroke-width:1.0"/>
<circle cx="401" cy="252" r="7.0" style="fill:gray;stroke:black;stroke-width:1.0"/>
<circle cx="20" cy="190" r="7.0" style="fill:gray;stroke:black;stroke-width:1.0"/>
<circle cx="314" cy="20" r="7.0" style="fill:gray;stroke:black;stroke-width:1.0"/>
</svg>
