<svg width="440" height="340" xmlns="http://www.w3.org/2000/svg">
<path stroke-width="1" stroke="black" d="M 408 310 420 313"/>
<path stroke-width="1" stroke="black" d="M 59 218 59 235"/>
<path stroke-width="1" stroke="black" d="M 59 218 46 211"/>
<path stroke-width="1" stroke="black" d="M 410 320 420 313"/>
<path stroke-width="1" stroke="black" d="M 410 320 408 310"/>
<path stroke-width="1" stroke="black" d="M 20 226 27 214"/>
<path stroke-width="1" stroke="black" d="M 20 226 27 238"/>
<path stroke-width="1" stroke="black" d="M 27 214 20 226"/>
<path stroke-width="1" stroke="black" d="M 27 214 46 211"/>
<path stroke-width="1" stroke="black" d="M 27 238 45 241"/>
<path stroke-width="1" stroke="black" d="M 27 238 20 226"/>
<path stroke-width="1" stroke="black" d="M 420 313 410 320"/>
<path stroke-width="1" stroke="black" d="M 420 313 408 310"/>
<path stroke-width="1" stroke="black" d="M 59 235 45 241"/>
<path stroke-width="1" stroke="black" d="M 59 235 59 218"/>
<path stroke-width="1" stroke="black" d="M 46 211 59 218"/>
<path stroke-width="1" stroke="black" d="M 46 211 27 214"/>
<path stroke-width="1" stroke="black" d="M 408 310 410 320"/>
<path stroke-width="1" stroke="black" d="M 45 241 59 235"/>
<path stroke-width="1" stroke="black" d="M 45 241 27 238"/>
<circle cx="124" cy="20" r="7.0" style="fill:orange;stroke:black;stroke-width:1.0"/>
<circle cx="408" cy="310" r="7.0" style="fill:red;stroke:black;stroke-width:1.0"/>
<circle cx="46" cy="211" r="7.0" style="fill:blue;stroke:black;stroke-width:1.0"/>
<circle cx="59" cy="235" r="7.0" style="fill:blue;stroke:black;stroke-width:1.0"/>
<circle cx="420" cy="313" r="7.0" style="fill:red;stroke:black;stroke-width:1.0"/>
<circle cx="27" cy="238" r="7.0" style="fill:green;stroke:black;stroke-width:1.0"/>
<circle cx="27" cy="214" r="7.0" style="fill:blue;stroke:black;stroke-width:1.0"/>
<circle cx="20" cy="226" r="7.0" style="fill:green;stroke:black;stroke-width:1.0"/>
<circle cx="410" cy="320" r="7.0" style="fill:red;stroke:black;stroke-width:1.0"/>
<circle cx="59" cy="218" r="7.0" style="fill:blue;stroke:black;stroke-width:1.0"/>
<circle cx="45" cy="241" r="7.0" style="fill:green;stroke:black;stroke-width:1.0"/>
</svg>
