<svg width="440" height="340" xmlns="http://www.w3.org/2000/svg">
<path stroke-width="1" stroke="black" d="M 36 32 39 20"/>
<path stroke-width="1" stroke="black" d="M 118 279 91 278"/>
<path stroke-width="1" stroke="black" d="M 118 279 136 296"/>
<path stroke-width="1" stroke="black" d="M 20 24 39 20"/>
<path stroke-width="1" stroke="black" d="M 20 24 36 32"/>
<path stroke-width="1" stroke="black" d="M 101 320 128 311"/>
<path stroke-width="1" stroke="black" d="M 101 320 76 310"/>
<path stroke-width="1" stroke="black" d="M 128 311 101 320"/>
<path stroke-width="1" stroke="black" d="M 128 311 136 296"/>
<path stroke-width="1" stroke="black" d="M 76 310 71 294"/>
<path stroke-width="1" stroke="black" d="M 76 310 101 320"/>
<path stroke-width="1" stroke="black" d="M 39 20 20 24"/>
<path stroke-width="1" stroke="black" d="M 39 20 36 32"/>
<path stroke-width="1" stroke="black" d="M 91 278 71 294"/>
<path stroke-width="1" stroke="black" d="M 91 278 118 279"/>
<path stroke-width="1" stroke="black" d="M 136 296 118 279"/>
<path stroke-width="1" stroke="black" d="M 136 296 128 311"/>
<path stroke-width="1" stroke="black" d="M 36 32 20 24"/>
<path stroke-width="1" stroke="black" d="M 71 294 91 278"/>
<path stroke-width="1" stroke="black" d="M 71 294 76 310"/>
<circle cx="420" cy="156" r="7.0" style="fill:gray;stroke:black;stroke-width:1.0"/>
<circle cx="36" cy="32" r="7.0" style="fill:gray;stroke:black;stroke-width:1.0"/>
<circle cx="136" cy="296" r="7.0" style="fill:gray;stroke:black;stroke-width:1.0"/>
<circle cx="91" cy="278" r="7.0" style="fill:gray;stroke:black;stroke-width:1.0"/>
<circle cx="39" cy="20" r="7.0" style="fill:gray;stroke:black;stroke-width:1.0"/>
<circle cx="76" cy="310" r="7.0" style="fill:gray;stroke:black;stroke-width:1.0"/>
<circle cx="128" cy="311" r="7.0" style="fill:gray;stroke:black;stroke-width:1.0"/>
<circle cx="101" cy="320" r="7.0" style="fill:gray;stroke:black;stroke-width:1.0"/>
<circle cx="20" cy="24" r="7.0" style="fill:gray;stroke:black;stroke-width:1.0"/>
<circle cx="118" cy="279" r="7.0" style="fill:gray;stroke:black;stroke-width:1.0"/>
<circle cx="71" cy="294" r="7.0" style="fill:gray;stroke:black;stroke-width:1.0"/>
</svg>
