<svg width="440" height="340" xmlns="http://www.w3.org/2000/svg">
<path stroke-width="1" stroke="black" d="M 20 32 40 29"/>
<path stroke-width="1" stroke="black" d="M 176 198 206 195"/>
<path stroke-width="1" stroke="black" d="M 176 198 155 185"/>
<path stroke-width="1" stroke="black" d="M 26 20 40 29"/>
<path stroke-width="1" stroke="black" d="M 26 20 20 32"/>
<path stroke-width="1" stroke="black" d="M 181 154 157 165"/>
<path stroke-width="1" stroke="black" d="M 181 154 211 160"/>
<path stroke-width="1" stroke="black" d="M 157 165 181 154"/>
<path stroke-width="1" stroke="black" d="M 157 165 155 185"/>
<path stroke-width="1" stroke="black" d="M 211 160 221 178"/>
<path stroke-width="1" stroke="black" d="M 211 160 181 154"/>
<path stroke-width="1" stroke="black" d="M 40 29 26 20"/>
<path stroke-width="1" stroke="black" d="M 40 29 20 32"/>
<path stroke-width="1" stroke="black" d="M 206 195 221 178"/>
<path stroke-width="1" stroke="black" d="M 206 195 176 198"/>
<path stroke-width="1" stroke="black" d="M 155 185 176 198"/>
<path stroke-width="1" stroke="black" d="M 155 185 157 165"/>
<path stroke-width="1" stroke="black" d="M 20 32 26 20"/>
<path stroke-width="1" stroke="black" d="M 221 178 206 195"/>
<path stroke-width="1" stroke="black" d="M 221 178 211 160"/>
<circle cx="420" cy="320" r="20.0" style="fill:orange;stroke:black;stroke-width:1.0"/>
<circle cx="20" cy="32" r="20.0" style="fill:red;stroke:black;stroke-width:1.0"/>
<circle cx="155" cy="185" r="20.0" style="fill:blue;stroke:black;stroke-width:1.0"/>
<circle cx="206" cy="195" r="20.0" style="fill:blue;stroke:black;stroke-width:1.0"/>
<circle cx="40" cy="29" r="20.0" style="fill:red;stroke:black;stroke-width:1.0"/>
<circle cx="211" cy="160" r="20.0" style="fill:green;stroke:black;stroke-width:1.0"/>
<circle cx="157" cy="165" r="20.0" style="fill:blue;stroke:black;stroke-width:1.0"/>
<circle cx="181" cy="154" r="20.0" style="fill:green;stroke:black;stroke-width:1.0"/>
<circle cx="26" cy="20" r="20.0" style="fill:red;stroke:black;stroke-width:1.0"/>
<circle cx="176" cy="198" r="20.0" style="fill:blue;stroke:black;stroke-width:1.0"/>
<circle cx="221" cy="178" r="20.0" style="fill:green;stroke:black;stroke-width:1.0"/>
</svg>
