<svg width="440" height="340" xmlns="http://www.w3.org/2000/svg">
<path stroke-width="8.857142857142858" stroke="black" d="M 390 49 383 39"/>
<path stroke-width="20.0" stroke="black" d="M 302 57 298 93"/>
<path stroke-width="0.5" stroke="black" d="M 298 93 326 169"/>
<path stroke-width="20.0" stroke="black" d="M 298 93 302 57"/>
<path stroke-width="0.5" stroke="black" d="M 298 93 262 105"/>
<path stroke-width="20.0" stroke="black" d="M 267 89 262 105"/>
<path stroke-width="0.5" stroke="black" d="M 262 105 298 93"/>
<path stroke-width="20.0" stroke="black" d="M 262 105 267 89"/>
<path stroke-width="0.5" stroke="black" d="M 262 105 218 167"/>
<path stroke-width="20.0" stroke="black" d="M 225 168 218 167"/>
<path stroke-width="0.5" stroke="black" d="M 218 167 262 105"/>
<path stroke-width="20.0" stroke="black" d="M 218 167 225 168"/>
<path stroke-width="0.5" stroke="black" d="M 218 167 171 223"/>
<path stroke-width="20.0" stroke="black" d="M 175 245 171 223"/>
<path stroke-width="0.5" stroke="black" d="M 171 223 218 167"/>
<path stroke-width="20.0" stroke="black" d="M 171 223 175 245"/>
<path stroke-width="0.5" stroke="black" d="M 171 223 120 266"/>
<path stroke-width="20.0" stroke="black" d="M 120 287 120 266"/>
<path stroke-width="0.5" stroke="black" d="M 120 266 171 223"/>
<path stroke-width="20.0" stroke="black" d="M 120 266 120 287"/>
<path stroke-width="0.5" stroke="black" d="M 120 266 71 283"/>
<path stroke-width="20.0" stroke="black" d="M 63 292 71 283"/>
<path stroke-width="0.5" stroke="black" d="M 71 283 120 266"/>
<path stroke-width="20.0" stroke="black" d="M 71 283 63 292"/>
<path stroke-width="0.5" stroke="black" d="M 71 283 31 289"/>
<path stroke-width="14.428571428571429" stroke="black" d="M 20 289 31 289"/>
<path stroke-width="0.5" stroke="black" d="M 326 169 298 93"/>
<path stroke-width="20.0" stroke="black" d="M 326 169 320 166"/>
<path stroke-width="0.5" stroke="black" d="M 326 169 354 256"/>
<path stroke-width="20.0" stroke="black" d="M 320 166 326 169"/>
<path stroke-width="8.857142857142858" stroke="black" d="M 383 39 390 49"/>
<path stroke-width="0.5" stroke="black" d="M 383 39 368 44"/>
<path stroke-width="20.0" stroke="black" d="M 364 20 368 44"/>
<path stroke-width="0.5" stroke="black" d="M 368 44 383 39"/>
<path stroke-width="20.0" stroke="black" d="M 368 44 364 20"/>
<path stroke-width="0.5" stroke="black" d="M 368 44 377 131"/>
<path stroke-width="20.0" stroke="black" d="M 370 133 377 131"/>
<path stroke-width="0.5" stroke="black" d="M 377 131 368 44"/>
<path stroke-width="20.0" stroke="black" d="M 377 131 370 133"/>
<path stroke-width="0.5" stroke="black" d="M 377 131 398 196"/>
<path stroke-width="20.0" stroke="black" d="M 404 199 398 196"/>
<path stroke-width="0.5" stroke="black" d="M 398 196 377 131"/>
<path stroke-width="0.5" stroke="black" d="M 31 289 71 283"/>
<path stroke-width="20.0" stroke="black" d="M 398 196 404 199"/>
<path stroke-width="20.0" stroke="black" d="M 420 276 411 269"/>
<path stroke-width="0.5" stroke="black" d="M 411 269 398 196"/>
<path stroke-width="20.0" stroke="black" d="M 411 269 420 276"/>
<path stroke-width="0.5" stroke="black" d="M 411 269 386 296"/>
<path stroke-width="20.0" stroke="black" d="M 391 320 386 296"/>
<path stroke-width="0.5" stroke="black" d="M 386 296 411 269"/>
<path stroke-width="20.0" stroke="black" d="M 386 296 391 320"/>
<path stroke-width="0.5" stroke="black" d="M 386 296 354 256"/>
<path stroke-width="20.0" stroke="black" d="M 352 283 354 256"/>
<path stroke-width="0.5" stroke="black" d="M 354 256 386 296"/>
<path stroke-width="20.0" stroke="black" d="M 354 256 352 283"/>
<path stroke-width="0.5" stroke="black" d="M 354 256 326 169"/>
<path stroke-width="0.5" stroke="black" d="M 398 196 411 269"/>
<path stroke-width="14.428571428571429" stroke="black" d="M 31 289 20 289"/>
<circle cx="390" cy="49" r="20.0" style="fill:gray;stroke:black;stroke-width:1.0"/>
<circle cx="383" cy="39" r="20.0" style="fill:gray;stroke:black;stroke-width:1.0"/>
<circle cx="364" cy="20" r="20.0" style="fill:gray;stroke:black;stroke-width:1.0"/>
<circle cx="368" cy="44" r="20.0" style="fill:gray;stroke:black;stroke-width:1.0"/>
<circle cx="370" cy="133" r="20.0" style="fill:gray;stroke:black;stroke-width:1.0"/>
<circle cx="377" cy="131" r="20.0" style="fill:gray;stroke:black;stroke-width:1.0"/>
<circle cx="404" cy="199" r="20.0" style="fill:gray;stroke:black;stroke-width:1.0"/>
<circle cx="398" cy="196" r="20.0" style="fill:gray;stroke:black;stroke-width:1.0"/>
<circle cx="420" cy="276" r="20.0" style="fill:gray;stroke:black;stroke-width:1.0"/>
<circle cx="411" cy="269" r="20.0" style="fill:gray;stroke:black;stroke-width:1.0"/>
<circle cx="391" cy="320" r="20.0" style="fill:gray;stroke:black;stroke-width:1.0"/>
<circle cx="386" cy="296" r="20.0" style="fill:gray;stroke:black;stroke-width:1.0"/>
<circle cx="352" cy="283" r="20.0" style="fill:gray;stroke:black;stroke-width:1.0"/>
<circle cx="354" cy="256" r="20.0" style="fill:gray;stroke:black;stroke-width:1.0"/>
<circle cx="320" cy="166" r="20.0" style="fill:gray;stroke:black;stroke-width:1.0"/>
<circle cx="326" cy="169" r="20.0" style="fill:gray;stroke:black;stroke-width:1.0"/>
<circle cx="302" cy="57" r="20.0" style="fill:gray;stroke:black;stroke-width:1.0"/>
<circle cx="298" cy="93" r="20.0" style="fill:gray;stroke:black;stroke-width:1.0"/>
<circle cx="267" cy="89" r="20.0" style="fill:gray;stroke:black;stroke-width:1.0"/>
<circle cx="262" cy="105" r="20.0" style="fill:gray;stroke:black;stroke-width:1.0"/>
<circle cx="225" cy="168" r="20.0" style="fill:gray;stroke:black;stroke-width:1.0"/>
<circle cx="218" cy="167" r="20.0" style="fill:gray;stroke:black;stroke-width:1.0"/>
<circle cx="175" cy="245" r="20.0" style="fill:gray;stroke:black;stroke-width:1.0"/>
<circle cx="171" cy="223" r="20.0" style="fill:gray;stroke:black;stroke-width:1.0"/>
<circle cx="120" cy="287" r="20.0" style="fill:gray;stroke:black;stroke-width:1.0"/>
<circle cx="120" cy="266" r="20.0" style="fill:gray;stroke:black;stroke-width:1.0"/>
<circle cx="63" cy="292" r="20.0" style="fill:gray;stroke:black;stroke-width:1.0"/>
<circle cx="71" cy="283" r="20.0" style="fill:gray;stroke:black;stroke-width:1.0"/>
<circle cx="20" cy="289" r="20.0" style="fill:gray;stroke:black;stroke-width:1.0"/>
<circle cx="31" cy="289" r="20.0" style="fill:gray;stroke:black;stroke-width:1.0"/>
</svg>
