<svg width="440" height="340" xmlns="http://www.w3.org/2000/svg">
<path stroke-width="8.857142857142858" stroke="black" d="M 252 20 254 39"/>
<path stroke-width="20.0" stroke="black" d="M 222 43 230 51"/>
<path stroke-width="0.5" stroke="black" d="M 230 51 299 41"/>
<path stroke-width="20.0" stroke="black" d="M 230 51 222 43"/>
<path stroke-width="0.5" stroke="black" d="M 230 51 166 75"/>
<path stroke-width="20.0" stroke="black" d="M 158 69 166 75"/>
<path stroke-width="0.5" stroke="black" d="M 166 75 230 51"/>
<path stroke-width="20.0" stroke="black" d="M 166 75 158 69"/>
<path stroke-width="0.5" stroke="black" d="M 166 75 112 106"/>
<path stroke-width="20.0" stroke="black" d="M 105 113 112 106"/>
<path stroke-width="0.5" stroke="black" d="M 112 106 166 75"/>
<path stroke-width="20.0" stroke="black" d="M 112 106 105 113"/>
<path stroke-width="0.5" stroke="black" d="M 112 106 62 147"/>
<path stroke-width="20.0" stroke="black" d="M 52 141 62 147"/>
<path stroke-width="0.5" stroke="black" d="M 62 147 112 106"/>
<path stroke-width="20.0" stroke="black" d="M 62 147 52 141"/>
<path stroke-width="0.5" stroke="black" d="M 62 147 33 199"/>
<path stroke-width="20.0" stroke="black" d="M 21 198 33 199"/>
<path stroke-width="0.5" stroke="black" d="M 33 199 62 147"/>
<path stroke-width="20.0" stroke="black" d="M 33 199 21 198"/>
<path stroke-width="0.5" stroke="black" d="M 33 199 23 258"/>
<path stroke-width="20.0" stroke="black" d="M 20 266 23 258"/>
<path stroke-width="0.5" stroke="black" d="M 23 258 33 199"/>
<path stroke-width="20.0" stroke="black" d="M 23 258 20 266"/>
<path stroke-width="0.5" stroke="black" d="M 23 258 22 303"/>
<path stroke-width="14.428571428571429" stroke="black" d="M 21 320 22 303"/>
<path stroke-width="0.5" stroke="black" d="M 299 41 230 51"/>
<path stroke-width="20.0" stroke="black" d="M 299 41 307 29"/>
<path stroke-width="0.5" stroke="black" d="M 299 41 365 44"/>
<path stroke-width="20.0" stroke="black" d="M 307 29 299 41"/>
<path stroke-width="8.857142857142858" stroke="black" d="M 254 39 252 20"/>
<path stroke-width="0.5" stroke="black" d="M 254 39 258 86"/>
<path stroke-width="20.0" stroke="black" d="M 247 90 258 86"/>
<path stroke-width="0.5" stroke="black" d="M 258 86 254 39"/>
<path stroke-width="20.0" stroke="black" d="M 258 86 247 90"/>
<path stroke-width="0.5" stroke="black" d="M 258 86 284 125"/>
<path stroke-width="20.0" stroke="black" d="M 275 134 284 125"/>
<path stroke-width="0.5" stroke="black" d="M 284 125 258 86"/>
<path stroke-width="20.0" stroke="black" d="M 284 125 275 134"/>
<path stroke-width="0.5" stroke="black" d="M 284 125 333 131"/>
<path stroke-width="20.0" stroke="black" d="M 331 143 333 131"/>
<path stroke-width="0.5" stroke="black" d="M 333 131 284 125"/>
<path stroke-width="0.5" stroke="black" d="M 22 303 23 258"/>
<path stroke-width="20.0" stroke="black" d="M 333 131 331 143"/>
<path stroke-width="20.0" stroke="black" d="M 392 119 381 113"/>
<path stroke-width="0.5" stroke="black" d="M 381 113 333 131"/>
<path stroke-width="20.0" stroke="black" d="M 381 113 392 119"/>
<path stroke-width="0.5" stroke="black" d="M 381 113 404 74"/>
<path stroke-width="20.0" stroke="black" d="M 420 73 404 74"/>
<path stroke-width="0.5" stroke="black" d="M 404 74 381 113"/>
<path stroke-width="20.0" stroke="black" d="M 404 74 420 73"/>
<path stroke-width="0.5" stroke="black" d="M 404 74 365 44"/>
<path stroke-width="20.0" stroke="black" d="M 375 38 365 44"/>
<path stroke-width="0.5" stroke="black" d="M 365 44 404 74"/>
<path stroke-width="20.0" stroke="black" d="M 365 44 375 38"/>
<path stroke-width="0.5" stroke="black" d="M 365 44 299 41"/>
<path stroke-width="0.5" stroke="black" d="M 333 131 381 113"/>
<path stroke-width="14.428571428571429" stroke="black" d="M 22 303 21 320"/>
<circle cx="252" cy="20" r="7.0" style="fill:gray;stroke:black;stroke-width:1.0"/>
<circle cx="254" cy="39" r="7.0" style="fill:gray;stroke:black;stroke-width:1.0"/>
<circle cx="247" cy="90" r="7.0" style="fill:gray;stroke:black;stroke-width:1.0"/>
<circle cx="258" cy="86" r="7.0" style="fill:gray;stroke:black;stroke-width:1.0"/>
<circle cx="275" cy="134" r="7.0" style="fill:gray;stroke:black;stroke-width:1.0"/>
<circle cx="284" cy="125" r="7.0" style="fill:gray;stroke:black;stroke-width:1.0"/>
<circle cx="331" cy="143" r="7.0" style="fill:gray;stroke:black;stroke-width:1.0"/>
<circle cx="333" cy="131" r="7.0" style="fill:gray;stroke:black;stroke-width:1.0"/>
<circle cx="392" cy="119" r="7.0" style="fill:gray;stroke:black;stroke-width:1.0"/>
<circle cx="381" cy="113" r="7.0" style="fill:gray;stroke:black;stroke-width:1.0"/>
<circle cx="420" cy="73" r="7.0" style="fill:gray;stroke:black;stroke-width:1.0"/>
<circle cx="404" cy="74" r="7.0" style="fill:gray;stroke:black;stroke-width:1.0"/>
<circle cx="375" cy="38" r="7.0" style="fill:gray;stroke:black;stroke-width:1.0"/>
<circle cx="365" cy="44" r="7.0" style="fill:gray;stroke:black;stroke-width:1.0"/>
<circle cx="307" cy="29" r="7.0" style="fill:gray;stroke:black;stroke-width:1.0"/>
<circle cx="299" cy="41" r="7.0" style="fill:gray;stroke:black;stroke-width:1.0"/>
<circle cx="222" cy="43" r="7.0" style="fill:gray;stroke:black;stroke-width:1.0"/>
<circle cx="230" cy="51" r="7.0" style="fill:gray;stroke:black;stroke-width:1.0"/>
<circle cx="158" cy="69" r="7.0" style="fill:gray;stroke:black;stroke-width:1.0"/>
<circle cx="166" cy="75" r="7.0" style="fill:gray;stroke:black;stroke-width:1.0"/>
<circle cx="105" cy="113" r="7.0" style="fill:gray;stroke:black;stroke-width:1.0"/>
<circle cx="112" cy="106" r="7.0" style="fill:gray;stroke:black;stroke-width:1.0"/>
<circle cx="52" cy="141" r="7.0" style="fill:gray;stroke:black;stroke-width:1.0"/>
<circle cx="62" cy="147" r="7.0" style="fill:gray;stroke:black;stroke-width:1.0"/>
<circle cx="21" cy="198" r="7.0" style="fill:gray;stroke:black;stroke-width:1.0"/>
<circle cx="33" cy="199" r="7.0" style="fill:gray;stroke:black;stroke-width:1.0"/>
<circle cx="20" cy="266" r="7.0" style="fill:gray;stroke:black;stroke-width:1.0"/>
<circle cx="23" cy="258" r="7.0" style="fill:gray;stroke:black;stroke-width:1.0"/>
<circle cx="21" cy="320" r="7.0" style="fill:gray;stroke:black;stroke-width:1.0"/>
<circle cx="22" cy="303" r="7.0" style="fill:gray;stroke:black;stroke-width:1.0"/>
</svg>
