<svg width="440" height="340" xmlns="http://www.w3.org/2000/svg">
<path stroke-width="8.857142857142858" stroke="black" d="M 265 250 239 256"/>
<path stroke-width="20.0" stroke="black" d="M 209 231 204 224"/>
<path stroke-width="0.5" stroke="black" d="M 204 224 141 221"/>
<path stroke-width="20.0" stroke="black" d="M 204 224 209 231"/>
<path stroke-width="0.5" stroke="black" d="M 204 224 269 211"/>
<path stroke-width="20.0" stroke="black" d="M 280 219 269 211"/>
<path stroke-width="0.5" stroke="black" d="M 269 211 204 224"/>
<path stroke-width="20.0" stroke="black" d="M 269 211 280 219"/>
<path stroke-width="0.5" stroke="black" d="M 269 211 296 180"/>
<path stroke-width="20.0" stroke="black" d="M 299 186 296 180"/>
<path stroke-width="0.5" stroke="black" d="M 296 180 269 211"/>
<path stroke-width="20.0" stroke="black" d="M 296 180 299 186"/>
<path stroke-width="0.5" stroke="black" d="M 296 180 316 137"/>
<path stroke-width="20.0" stroke="black" d="M 304 140 316 137"/>
<path stroke-width="0.5" stroke="black" d="M 316 137 296 180"/>
<path stroke-width="20.0" stroke="black" d="M 316 137 304 140"/>
<path stroke-width="0.5" stroke="black" d="M 316 137 333 94"/>
<path stroke-width="20.0" stroke="black" d="M 322 87 333 94"/>
<path stroke-width="0.5" stroke="black" d="M 333 94 316 137"/>
<path stroke-width="20.0" stroke="black" d="M 333 94 322 87"/>
<path stroke-width="0.5" stroke="black" d="M 333 94 365 52"/>
<path stroke-width="20.0" stroke="black" d="M 361 45 365 52"/>
<path stroke-width="0.5" stroke="black" d="M 365 52 333 94"/>
<path stroke-width="20.0" stroke="black" d="M 365 52 361 45"/>
<path stroke-width="0.5" stroke="black" d="M 365 52 403 27"/>
<path stroke-width="14.428571428571429" stroke="black" d="M 420 20 403 27"/>
<path stroke-width="0.5" stroke="black" d="M 141 221 204 224"/>
<path stroke-width="20.0" stroke="black" d="M 141 221 122 217"/>
<path stroke-width="0.5" stroke="black" d="M 141 221 67 223"/>
<path stroke-width="20.0" stroke="black" d="M 122 217 141 221"/>
<path stroke-width="8.857142857142858" stroke="black" d="M 239 256 265 250"/>
<path stroke-width="0.5" stroke="black" d="M 239 256 175 271"/>
<path stroke-width="20.0" stroke="black" d="M 175 264 175 271"/>
<path stroke-width="0.5" stroke="black" d="M 175 271 239 256"/>
<path stroke-width="20.0" stroke="black" d="M 175 271 175 264"/>
<path stroke-width="0.5" stroke="black" d="M 175 271 114 293"/>
<path stroke-width="20.0" stroke="black" d="M 102 296 114 293"/>
<path stroke-width="0.5" stroke="black" d="M 114 293 175 271"/>
<path stroke-width="20.0" stroke="black" d="M 114 293 102 296"/>
<path stroke-width="0.5" stroke="black" d="M 114 293 57 311"/>
<path stroke-width="20.0" stroke="black" d="M 48 320 57 311"/>
<path stroke-width="0.5" stroke="black" d="M 57 311 114 293"/>
<path stroke-width="0.5" stroke="black" d="M 403 27 365 52"/>
<path stroke-width="20.0" stroke="black" d="M 57 311 48 320"/>
<path stroke-width="20.0" stroke="black" d="M 20 294 31 287"/>
<path stroke-width="0.5" stroke="black" d="M 31 287 57 311"/>
<path stroke-width="20.0" stroke="black" d="M 31 287 20 294"/>
<path stroke-width="0.5" stroke="black" d="M 31 287 42 254"/>
<path stroke-width="20.0" stroke="black" d="M 33 248 42 254"/>
<path stroke-width="0.5" stroke="black" d="M 42 254 31 287"/>
<path stroke-width="20.0" stroke="black" d="M 42 254 33 248"/>
<path stroke-width="0.5" stroke="black" d="M 42 254 67 223"/>
<path stroke-width="20.0" stroke="black" d="M 63 215 67 223"/>
<path stroke-width="0.5" stroke="black" d="M 67 223 42 254"/>
<path stroke-width="20.0" stroke="black" d="M 67 223 63 215"/>
<path stroke-width="0.5" stroke="black" d="M 67 223 141 221"/>
<path stroke-width="0.5" stroke="black" d="M 57 311 31 287"/>
<path stroke-width="14.428571428571429" stroke="black" d="M 403 27 420 20"/>
<circle cx="265" cy="250" r="20.0" style="fill:red;stroke:black;stroke-width:1.0"/>
<circle cx="239" cy="256" r="20.0" style="fill:red;stroke:black;stroke-width:1.0"/>
<circle cx="175" cy="264" r="20.0" style="fill:red;stroke:black;stroke-width:1.0"/>
<circle cx="175" cy="271" r="20.0" style="fill:red;stroke:black;stroke-width:1.0"/>
<circle cx="102" cy="296" r="20.0" style="fill:fuchsia;stroke:black;stroke-width:1.0"/>
<circle cx="114" cy="293" r="20.0" style="fill:fuchsia;stroke:black;stroke-width:1.0"/>
<circle cx="48" cy="320" r="20.0" style="fill:fuchsia;stroke:black;stroke-width:1.0"/>
<circle cx="57" cy="311" r="20.0" style="fill:fuchsia;stroke:black;stroke-width:1.0"/>
<circle cx="20" cy="294" r="20.0" style="fill:orange;stroke:black;stroke-width:1.0"/>
<circle cx="31" cy="287" r="20.0" style="fill:orange;stroke:black;stroke-width:1.0"/>
<circle cx="33" cy="248" r="20.0" style="fill:orange;stroke:black;stroke-width:1.0"/>
<circle cx="42" cy="254" r="20.0" style="fill:orange;stroke:black;stroke-width:1.0"/>
<circle cx="63" cy="215" r="20.0" style="fill:yellow;stroke:black;stroke-width:1.0"/>
<circle cx="67" cy="223" r="20.0" style="fill:yellow;stroke:black;stroke-width:1.0"/>
<circle cx="122" cy="217" r="20.0" style="fill:yellow;stroke:black;stroke-width:1.0"/>
<circle cx="141" cy="221" r="20.0" style="fill:blue;stroke:black;stroke-width:1.0"/>
<circle cx="209" cy="231" r="20.0" style="fill:blue;stroke:black;stroke-width:1.0"/>
<circle cx="204" cy="224" r="20.0" style="fill:blue;stroke:black;stroke-width:1.0"/>
<circle cx="280" cy="219" r="20.0" style="fill:purple;stroke:black;stroke-width:1.0"/>
<circle cx="269" cy="211" r="20.0" style="fill:blue;stroke:black;stroke-width:1.0"/>
<circle cx="299" cy="186" r="20.0" style="fill:purple;stroke:black;stroke-width:1.0"/>
<circle cx="296" cy="180" r="20.0" style="fill:purple;stroke:black;stroke-width:1.0"/>
<circle cx="304" cy="140" r="20.0" style="fill:purple;stroke:black;stroke-width:1.0"/>
<circle cx="316" cy="137" r="20.0" style="fill:purple;stroke:black;stroke-width:1.0"/>
<circle cx="322" cy="87" r="20.0" style="fill:green;stroke:black;stroke-width:1.0"/>
<circle cx="333" cy="94" r="20.0" style="fill:green;stroke:black;stroke-width:1.0"/>
<circle cx="361" cy="45" r="20.0" style="fill:green;stroke:black;stroke-width:1.0"/>
<circle cx="365" cy="52" r="20.0" style="fill:green;stroke:black;stroke-width:1.0"/>
<circle cx="420" cy="20" r="20.0" style="fill:green;stroke:black;stroke-width:1.0"/>
<circle cx="403" cy="27" r="20.0" style="fill:green;stroke:black;stroke-width:1.0"/>
</svg>
