<svg width="440" height="340" xmlns="http://www.w3.org/2000/svg">
<path stroke-width="8.857142857142858" stroke="black" d="M 20 96 39 95"/>
<path stroke-width="20.0" stroke="black" d="M 329 79 338 75"/>
<path stroke-width="0.5" stroke="black" d="M 338 75 311 31"/>
<path stroke-width="20.0" stroke="black" d="M 338 75 329 79"/>
<path stroke-width="0.5" stroke="black" d="M 338 75 381 117"/>
<path stroke-width="20.0" stroke="black" d="M 388 103 381 117"/>
<path stroke-width="0.5" stroke="black" d="M 381 117 338 75"/>
<path stroke-width="20.0" stroke="black" d="M 381 117 388 103"/>
<path stroke-width="0.5" stroke="black" d="M 381 117 408 182"/>
<path stroke-width="20.0" stroke="black" d="M 420 177 408 182"/>
<path stroke-width="0.5" stroke="black" d="M 408 182 381 117"/>
<path stroke-width="20.0" stroke="black" d="M 408 182 420 177"/>
<path stroke-width="0.5" stroke="black" d="M 408 182 405 261"/>
<path stroke-width="20.0" stroke="black" d="M 411 270 405 261"/>
<path stroke-width="0.5" stroke="black" d="M 405 261 408 182"/>
<path stroke-width="20.0" stroke="black" d="M 405 261 411 270"/>
<path stroke-width="0.5" stroke="black" d="M 405 261 371 299"/>
<path stroke-width="20.0" stroke="black" d="M 366 320 371 299"/>
<path stroke-width="0.5" stroke="black" d="M 371 299 405 261"/>
<path stroke-width="20.0" stroke="black" d="M 371 299 366 320"/>
<path stroke-width="0.5" stroke="black" d="M 371 299 344 273"/>
<path stroke-width="20.0" stroke="black" d="M 333 276 344 273"/>
<path stroke-width="0.5" stroke="black" d="M 344 273 371 299"/>
<path stroke-width="20.0" stroke="black" d="M 344 273 333 276"/>
<path stroke-width="0.5" stroke="black" d="M 344 273 360 232"/>
<path stroke-width="14.428571428571429" stroke="black" d="M 367 217 360 232"/>
<path stroke-width="0.5" stroke="black" d="M 311 31 338 75"/>
<path stroke-width="20.0" stroke="black" d="M 311 31 298 20"/>
<path stroke-width="0.5" stroke="black" d="M 311 31 332 43"/>
<path stroke-width="20.0" stroke="black" d="M 298 20 311 31"/>
<path stroke-width="8.857142857142858" stroke="black" d="M 39 95 20 96"/>
<path stroke-width="0.5" stroke="black" d="M 39 95 88 94"/>
<path stroke-width="20.0" stroke="black" d="M 77 88 88 94"/>
<path stroke-width="0.5" stroke="black" d="M 88 94 39 95"/>
<path stroke-width="20.0" stroke="black" d="M 88 94 77 88"/>
<path stroke-width="0.5" stroke="black" d="M 88 94 147 102"/>
<path stroke-width="20.0" stroke="black" d="M 151 113 147 102"/>
<path stroke-width="0.5" stroke="black" d="M 147 102 88 94"/>
<path stroke-width="20.0" stroke="black" d="M 147 102 151 113"/>
<path stroke-width="0.5" stroke="black" d="M 147 102 209 113"/>
<path stroke-width="20.0" stroke="black" d="M 216 102 209 113"/>
<path stroke-width="0.5" stroke="black" d="M 209 113 147 102"/>
<path stroke-width="0.5" stroke="black" d="M 360 232 344 273"/>
<path stroke-width="20.0" stroke="black" d="M 209 113 216 102"/>
<path stroke-width="20.0" stroke="black" d="M 276 139 268 125"/>
<path stroke-width="0.5" stroke="black" d="M 268 125 209 113"/>
<path stroke-width="20.0" stroke="black" d="M 268 125 276 139"/>
<path stroke-width="0.5" stroke="black" d="M 268 125 320 109"/>
<path stroke-width="20.0" stroke="black" d="M 333 118 320 109"/>
<path stroke-width="0.5" stroke="black" d="M 320 109 268 125"/>
<path stroke-width="20.0" stroke="black" d="M 320 109 333 118"/>
<path stroke-width="0.5" stroke="black" d="M 320 109 332 43"/>
<path stroke-width="20.0" stroke="black" d="M 340 27 332 43"/>
<path stroke-width="0.5" stroke="black" d="M 332 43 320 109"/>
<path stroke-width="20.0" stroke="black" d="M 332 43 340 27"/>
<path stroke-width="0.5" stroke="black" d="M 332 43 311 31"/>
<path stroke-width="0.5" stroke="black" d="M 209 113 268 125"/>
<path stroke-width="14.428571428571429" stroke="black" d="M 360 232 367 217"/>
<circle cx="20" cy="96" r="7.0" style="fill:red;stroke:black;stroke-width:1.0"/>
<circle cx="39" cy="95" r="7.0" style="fill:red;stroke:black;stroke-width:1.0"/>
<circle cx="77" cy="88" r="7.0" style="fill:fuchsia;stroke:black;stroke-width:1.0"/>
<circle cx="88" cy="94" r="7.0" style="fill:fuchsia;stroke:black;stroke-width:1.0"/>
<circle cx="151" cy="113" r="7.0" style="fill:fuchsia;stroke:black;stroke-width:1.0"/>
<circle cx="147" cy="102" r="7.0" style="fill:fuchsia;stroke:black;stroke-width:1.0"/>
<circle cx="216" cy="102" r="7.0" style="fill:orange;stroke:black;stroke-width:1.0"/>
<circle cx="209" cy="113" r="7.0" style="fill:orange;stroke:black;stroke-width:1.0"/>
<circle cx="276" cy="139" r="7.0" style="fill:yellow;stroke:black;stroke-width:1.0"/>
<circle cx="268" cy="125" r="7.0" style="fill:yellow;stroke:black;stroke-width:1.0"/>
<circle cx="333" cy="118" r="7.0" style="fill:yellow;stroke:black;stroke-width:1.0"/>
<circle cx="320" cy="109" r="7.0" style="fill:yellow;stroke:black;stroke-width:1.0"/>
<circle cx="340" cy="27" r="7.0" style="fill:yellow;stroke:black;stroke-width:1.0"/>
<circle cx="332" cy="43" r="7.0" style="fill:yellow;stroke:black;stroke-width:1.0"/>
<circle cx="298" cy="20" r="7.0" style="fill:blue;stroke:black;stroke-width:1.0"/>
<circle cx="311" cy="31" r="7.0" style="fill:blue;stroke:black;stroke-width:1.0"/>
<circle cx="329" cy="79" r="7.0" style="fill:blue;stroke:black;stroke-width:1.0"/>
<circle cx="338" cy="75" r="7.0" style="fill:blue;stroke:black;stroke-width:1.0"/>
<circle cx="388" cy="103" r="7.0" style="fill:blue;stroke:black;stroke-width:1.0"/>
<circle cx="381" cy="117" r="7.0" style="fill:blue;stroke:black;stroke-width:1.0"/>
<circle cx="420" cy="177" r="7.0" style="fill:purple;stroke:black;stroke-width:1.0"/>
<circle cx="408" cy="182" r="7.0" style="fill:blue;stroke:black;stroke-width:1.0"/>
<circle cx="411" cy="270" r="7.0" style="fill:purple;stroke:black;stroke-width:1.0"/>
<circle cx="405" cy="261" r="7.0" style="fill:purple;stroke:black;stroke-width:1.0"/>
<circle cx="366" cy="320" r="7.0" style="fill:purple;stroke:black;stroke-width:1.0"/>
<circle cx="371" cy="299" r="7.0" style="fill:purple;stroke:black;stroke-width:1.0"/>
<circle cx="333" cy="276" r="7.0" style="fill:green;stroke:black;stroke-width:1.0"/>
<circle cx="344" cy="273" r="7.0" style="fill:green;stroke:black;stroke-width:1.0"/>
<circle cx="367" cy="217" r="7.0" style="fill:green;stroke:black;stroke-width:1.0"/>
<circle cx="360" cy="232" r="7.0" style="fill:green;stroke:black;stroke-width:1.0"/>
</svg>
