<svg width="440" height="340" xmlns="http://www.w3.org/2000/svg">
<path stroke-width="1" stroke="black" d="M 33 20 155 105"/>
<path stroke-width="1" stroke="black" d="M 228 158 273 169"/>
<path stroke-width="1" stroke="black" d="M 228 158 144 175"/>
<path stroke-width="1" stroke="black" d="M 228 158 256 133"/>
<path stroke-width="1" stroke="black" d="M 228 158 153 158"/>
<path stroke-width="1" stroke="black" d="M 228 158 177 235"/>
<path stroke-width="1" stroke="black" d="M 228 158 254 147"/>
<path stroke-width="1" stroke="black" d="M 228 158 262 194"/>
<path stroke-width="1" stroke="black" d="M 228 158 231 247"/>
<path stroke-width="1" stroke="black" d="M 228 158 155 220"/>
<path stroke-width="1" stroke="black" d="M 228 158 235 117"/>
<path stroke-width="1" stroke="black" d="M 228 158 244 222"/>
<path stroke-width="1" stroke="black" d="M 228 158 204 178"/>
<path stroke-width="1" stroke="black" d="M 228 158 206 235"/>
<path stroke-width="1" stroke="black" d="M 228 158 166 129"/>
<path stroke-width="1" stroke="black" d="M 299 204 262 194"/>
<path stroke-width="1" stroke="black" d="M 262 194 155 105"/>
<path stroke-width="1" stroke="black" d="M 228 158 165 134"/>
<path stroke-width="1" stroke="black" d="M 262 194 290 187"/>
<path stroke-width="1" stroke="black" d="M 228 158 190 234"/>
<path stroke-width="1" stroke="black" d="M 228 158 137 192"/>
<path stroke-width="1" stroke="black" d="M 177 235 262 194"/>
<path stroke-width="1" stroke="black" d="M 177 235 155 220"/>
<path stroke-width="1" stroke="black" d="M 177 235 165 134"/>
<path stroke-width="1" stroke="black" d="M 177 235 235 117"/>
<path stroke-width="1" stroke="black" d="M 177 235 244 222"/>
<path stroke-width="1" stroke="black" d="M 177 235 204 178"/>
<path stroke-width="1" stroke="black" d="M 177 235 206 235"/>
<path stroke-width="1" stroke="black" d="M 228 158 274 199"/>
<path stroke-width="1" stroke="black" d="M 177 235 166 129"/>
<path stroke-width="1" stroke="black" d="M 228 158 155 105"/>
<path stroke-width="1" stroke="black" d="M 228 158 290 187"/>
<path stroke-width="1" stroke="black" d="M 228 158 126 177"/>
<path stroke-width="1" stroke="black" d="M 228 158 277 138"/>
<path stroke-width="1" stroke="black" d="M 228 158 233 115"/>
<path stroke-width="1" stroke="black" d="M 228 158 212 98"/>
<path stroke-width="1" stroke="black" d="M 228 158 229 253"/>
<path stroke-width="1" stroke="black" d="M 254 147 228 158"/>
<path stroke-width="1" stroke="black" d="M 262 194 126 177"/>
<path stroke-width="1" stroke="black" d="M 262 194 277 138"/>
<path stroke-width="1" stroke="black" d="M 262 194 233 115"/>
<path stroke-width="1" stroke="black" d="M 155 220 155 105"/>
<path stroke-width="1" stroke="black" d="M 155 220 290 187"/>
<path stroke-width="1" stroke="black" d="M 155 220 126 177"/>
<path stroke-width="1" stroke="black" d="M 155 220 277 138"/>
<path stroke-width="1" stroke="black" d="M 155 220 233 115"/>
<path stroke-width="1" stroke="black" d="M 155 220 212 98"/>
<path stroke-width="1" stroke="black" d="M 155 220 229 253"/>
<path stroke-width="1" stroke="black" d="M 123 241 155 220"/>
<path stroke-width="1" stroke="black" d="M 155 220 137 192"/>
<path stroke-width="1" stroke="black" d="M 155 220 190 234"/>
<path stroke-width="1" stroke="black" d="M 155 220 231 247"/>
<path stroke-width="1" stroke="black" d="M 155 220 273 169"/>
<path stroke-width="1" stroke="black" d="M 155 220 144 175"/>
<path stroke-width="1" stroke="black" d="M 155 220 256 133"/>
<path stroke-width="1" stroke="black" d="M 155 220 153 158"/>
<path stroke-width="1" stroke="black" d="M 155 220 177 235"/>
<path stroke-width="1" stroke="black" d="M 155 220 274 199"/>
<path stroke-width="1" stroke="black" d="M 262 194 166 129"/>
<path stroke-width="1" stroke="black" d="M 262 194 206 235"/>
<path stroke-width="1" stroke="black" d="M 262 194 204 178"/>
<path stroke-width="1" stroke="black" d="M 262 194 212 98"/>
<path stroke-width="1" stroke="black" d="M 262 194 229 253"/>
<path stroke-width="1" stroke="black" d="M 262 194 137 192"/>
<path stroke-width="1" stroke="black" d="M 262 194 274 199"/>
<path stroke-width="1" stroke="black" d="M 262 194 190 234"/>
<path stroke-width="1" stroke="black" d="M 262 194 231 247"/>
<path stroke-width="1" stroke="black" d="M 262 194 273 169"/>
<path stroke-width="1" stroke="black" d="M 262 194 144 175"/>
<path stroke-width="1" stroke="black" d="M 262 194 256 133"/>
<path stroke-width="1" stroke="black" d="M 262 194 153 158"/>
<path stroke-width="1" stroke="black" d="M 262 194 177 235"/>
<path stroke-width="1" stroke="black" d="M 262 194 228 158"/>
<path stroke-width="1" stroke="black" d="M 262 194 299 204"/>
<path stroke-width="1" stroke="black" d="M 262 194 155 220"/>
<path stroke-width="1" stroke="black" d="M 262 194 165 134"/>
<path stroke-width="1" stroke="black" d="M 262 194 235 117"/>
<path stroke-width="1" stroke="black" d="M 262 194 244 222"/>
<path stroke-width="1" stroke="black" d="M 177 235 228 158"/>
<path stroke-width="1" stroke="black" d="M 155 220 228 158"/>
<path stroke-width="1" stroke="black" d="M 177 235 154 268"/>
<path stroke-width="1" stroke="black" d="M 177 235 256 133"/>
<path stroke-width="1" stroke="black" d="M 256 133 274 199"/>
<path stroke-width="1" stroke="black" d="M 256 133 190 234"/>
<path stroke-width="1" stroke="black" d="M 256 133 231 247"/>
<path stroke-width="1" stroke="black" d="M 256 133 273 169"/>
<path stroke-width="1" stroke="black" d="M 256 133 144 175"/>
<path stroke-width="1" stroke="black" d="M 256 133 293 105"/>
<path stroke-width="1" stroke="black" d="M 256 133 153 158"/>
<path stroke-width="1" stroke="black" d="M 256 133 137 192"/>
<path stroke-width="1" stroke="black" d="M 256 133 177 235"/>
<path stroke-width="1" stroke="black" d="M 256 133 262 194"/>
<path stroke-width="1" stroke="black" d="M 256 133 155 220"/>
<path stroke-width="1" stroke="black" d="M 256 133 165 134"/>
<path stroke-width="1" stroke="black" d="M 256 133 235 117"/>
<path stroke-width="1" stroke="black" d="M 256 133 244 222"/>
<path stroke-width="1" stroke="black" d="M 256 133 204 178"/>
<path stroke-width="1" stroke="black" d="M 256 133 206 235"/>
<path stroke-width="1" stroke="black" d="M 256 133 228 158"/>
<path stroke-width="1" stroke="black" d="M 256 133 166 129"/>
<path stroke-width="1" stroke="black" d="M 256 133 229 253"/>
<path stroke-width="1" stroke="black" d="M 256 133 233 115"/>
<path stroke-width="1" stroke="black" d="M 144 175 153 158"/>
<path stroke-width="1" stroke="black" d="M 144 175 177 235"/>
<path stroke-width="1" stroke="black" d="M 144 175 228 158"/>
<path stroke-width="1" stroke="black" d="M 144 175 262 194"/>
<path stroke-width="1" stroke="black" d="M 144 175 155 220"/>
<path stroke-width="1" stroke="black" d="M 144 175 165 134"/>
<path stroke-width="1" stroke="black" d="M 144 175 235 117"/>
<path stroke-width="1" stroke="black" d="M 256 133 212 98"/>
<path stroke-width="1" stroke="black" d="M 144 175 244 222"/>
<path stroke-width="1" stroke="black" d="M 144 175 206 235"/>
<path stroke-width="1" stroke="black" d="M 144 175 166 129"/>
<path stroke-width="1" stroke="black" d="M 293 105 256 133"/>
<path stroke-width="1" stroke="black" d="M 256 133 155 105"/>
<path stroke-width="1" stroke="black" d="M 256 133 290 187"/>
<path stroke-width="1" stroke="black" d="M 256 133 126 177"/>
<path stroke-width="1" stroke="black" d="M 256 133 277 138"/>
<path stroke-width="1" stroke="black" d="M 144 175 204 178"/>
<path stroke-width="1" stroke="black" d="M 111 150 153 158"/>
<path stroke-width="1" stroke="black" d="M 153 158 155 105"/>
<path stroke-width="1" stroke="black" d="M 153 158 290 187"/>
<path stroke-width="1" stroke="black" d="M 153 158 206 235"/>
<path stroke-width="1" stroke="black" d="M 153 158 166 129"/>
<path stroke-width="1" stroke="black" d="M 154 268 177 235"/>
<path stroke-width="1" stroke="black" d="M 177 235 155 105"/>
<path stroke-width="1" stroke="black" d="M 177 235 290 187"/>
<path stroke-width="1" stroke="black" d="M 177 235 126 177"/>
<path stroke-width="1" stroke="black" d="M 177 235 277 138"/>
<path stroke-width="1" stroke="black" d="M 153 158 204 178"/>
<path stroke-width="1" stroke="black" d="M 177 235 233 115"/>
<path stroke-width="1" stroke="black" d="M 177 235 229 253"/>
<path stroke-width="1" stroke="black" d="M 177 235 137 192"/>
<path stroke-width="1" stroke="black" d="M 177 235 274 199"/>
<path stroke-width="1" stroke="black" d="M 177 235 190 234"/>
<path stroke-width="1" stroke="black" d="M 177 235 231 247"/>
<path stroke-width="1" stroke="black" d="M 177 235 273 169"/>
<path stroke-width="1" stroke="black" d="M 177 235 144 175"/>
<path stroke-width="1" stroke="black" d="M 177 235 212 98"/>
<path stroke-width="1" stroke="black" d="M 153 158 244 222"/>
<path stroke-width="1" stroke="black" d="M 153 158 235 117"/>
<path stroke-width="1" stroke="black" d="M 153 158 165 134"/>
<path stroke-width="1" stroke="black" d="M 153 158 126 177"/>
<path stroke-width="1" stroke="black" d="M 153 158 277 138"/>
<path stroke-width="1" stroke="black" d="M 153 158 233 115"/>
<path stroke-width="1" stroke="black" d="M 153 158 212 98"/>
<path stroke-width="1" stroke="black" d="M 153 158 229 253"/>
<path stroke-width="1" stroke="black" d="M 153 158 137 192"/>
<path stroke-width="1" stroke="black" d="M 153 158 274 199"/>
<path stroke-width="1" stroke="black" d="M 153 158 190 234"/>
<path stroke-width="1" stroke="black" d="M 153 158 231 247"/>
<path stroke-width="1" stroke="black" d="M 153 158 273 169"/>
<path stroke-width="1" stroke="black" d="M 153 158 144 175"/>
<path stroke-width="1" stroke="black" d="M 153 158 256 133"/>
<path stroke-width="1" stroke="black" d="M 153 158 111 150"/>
<path stroke-width="1" stroke="black" d="M 153 158 177 235"/>
<path stroke-width="1" stroke="black" d="M 153 158 228 158"/>
<path stroke-width="1" stroke="black" d="M 153 158 262 194"/>
<path stroke-width="1" stroke="black" d="M 153 158 155 220"/>
<path stroke-width="1" stroke="black" d="M 177 235 153 158"/>
<path stroke-width="1" stroke="black" d="M 155 220 262 194"/>
<path stroke-width="1" stroke="black" d="M 155 220 123 241"/>
<path stroke-width="1" stroke="black" d="M 155 220 165 134"/>
<path stroke-width="1" stroke="black" d="M 204 178 155 220"/>
<path stroke-width="1" stroke="black" d="M 204 178 165 134"/>
<path stroke-width="1" stroke="black" d="M 204 178 235 117"/>
<path stroke-width="1" stroke="black" d="M 204 178 244 222"/>
<path stroke-width="1" stroke="black" d="M 204 178 196 196"/>
<path stroke-width="1" stroke="black" d="M 204 178 206 235"/>
<path stroke-width="1" stroke="black" d="M 204 178 166 129"/>
<path stroke-width="1" stroke="black" d="M 204 178 262 194"/>
<path stroke-width="1" stroke="black" d="M 203 264 206 235"/>
<path stroke-width="1" stroke="black" d="M 206 235 290 187"/>
<path stroke-width="1" stroke="black" d="M 206 235 126 177"/>
<path stroke-width="1" stroke="black" d="M 206 235 277 138"/>
<path stroke-width="1" stroke="black" d="M 206 235 233 115"/>
<path stroke-width="1" stroke="black" d="M 206 235 212 98"/>
<path stroke-width="1" stroke="black" d="M 206 235 229 253"/>
<path stroke-width="1" stroke="black" d="M 206 235 137 192"/>
<path stroke-width="1" stroke="black" d="M 206 235 155 105"/>
<path stroke-width="1" stroke="black" d="M 206 235 274 199"/>
<path stroke-width="1" stroke="black" d="M 204 178 228 158"/>
<path stroke-width="1" stroke="black" d="M 204 178 153 158"/>
<path stroke-width="1" stroke="black" d="M 244 222 166 129"/>
<path stroke-width="1" stroke="black" d="M 196 196 204 178"/>
<path stroke-width="1" stroke="black" d="M 204 178 155 105"/>
<path stroke-width="1" stroke="black" d="M 204 178 290 187"/>
<path stroke-width="1" stroke="black" d="M 204 178 126 177"/>
<path stroke-width="1" stroke="black" d="M 204 178 277 138"/>
<path stroke-width="1" stroke="black" d="M 204 178 233 115"/>
<path stroke-width="1" stroke="black" d="M 204 178 177 235"/>
<path stroke-width="1" stroke="black" d="M 204 178 212 98"/>
<path stroke-width="1" stroke="black" d="M 204 178 137 192"/>
<path stroke-width="1" stroke="black" d="M 204 178 274 199"/>
<path stroke-width="1" stroke="black" d="M 204 178 190 234"/>
<path stroke-width="1" stroke="black" d="M 204 178 231 247"/>
<path stroke-width="1" stroke="black" d="M 204 178 273 169"/>
<path stroke-width="1" stroke="black" d="M 204 178 144 175"/>
<path stroke-width="1" stroke="black" d="M 204 178 256 133"/>
<path stroke-width="1" stroke="black" d="M 204 178 229 253"/>
<path stroke-width="1" stroke="black" d="M 206 235 190 234"/>
<path stroke-width="1" stroke="black" d="M 206 235 231 247"/>
<path stroke-width="1" stroke="black" d="M 206 235 273 169"/>
<path stroke-width="1" stroke="black" d="M 166 129 137 192"/>
<path stroke-width="1" stroke="black" d="M 166 129 274 199"/>
<path stroke-width="1" stroke="black" d="M 166 129 190 234"/>
<path stroke-width="1" stroke="black" d="M 166 129 231 247"/>
<path stroke-width="1" stroke="black" d="M 166 129 273 169"/>
<path stroke-width="1" stroke="black" d="M 166 129 144 175"/>
<path stroke-width="1" stroke="black" d="M 166 129 256 133"/>
<path stroke-width="1" stroke="black" d="M 166 129 229 253"/>
<path stroke-width="1" stroke="black" d="M 166 129 153 158"/>
<path stroke-width="1" stroke="black" d="M 166 129 228 158"/>
<path stroke-width="1" stroke="black" d="M 166 129 262 194"/>
<path stroke-width="1" stroke="black" d="M 166 129 155 220"/>
<path stroke-width="1" stroke="black" d="M 166 129 165 134"/>
<path stroke-width="1" stroke="black" d="M 166 129 235 117"/>
<path stroke-width="1" stroke="black" d="M 166 129 244 222"/>
<path stroke-width="1" stroke="black" d="M 166 129 204 178"/>
<path stroke-width="1" stroke="black" d="M 166 129 177 235"/>
<path stroke-width="1" stroke="black" d="M 166 129 212 98"/>
<path stroke-width="1" stroke="black" d="M 166 129 233 115"/>
<path stroke-width="1" stroke="black" d="M 166 129 277 138"/>
<path stroke-width="1" stroke="black" d="M 206 235 144 175"/>
<path stroke-width="1" stroke="black" d="M 206 235 256 133"/>
<path stroke-width="1" stroke="black" d="M 206 235 153 158"/>
<path stroke-width="1" stroke="black" d="M 206 235 177 235"/>
<path stroke-width="1" stroke="black" d="M 206 235 228 158"/>
<path stroke-width="1" stroke="black" d="M 206 235 262 194"/>
<path stroke-width="1" stroke="black" d="M 206 235 155 220"/>
<path stroke-width="1" stroke="black" d="M 206 235 165 134"/>
<path stroke-width="1" stroke="black" d="M 206 235 235 117"/>
<path stroke-width="1" stroke="black" d="M 206 235 244 222"/>
<path stroke-width="1" stroke="black" d="M 206 235 204 178"/>
<path stroke-width="1" stroke="black" d="M 206 235 203 264"/>
<path stroke-width="1" stroke="black" d="M 206 235 166 129"/>
<path stroke-width="1" stroke="black" d="M 138 107 166 129"/>
<path stroke-width="1" stroke="black" d="M 166 129 155 105"/>
<path stroke-width="1" stroke="black" d="M 166 129 290 187"/>
<path stroke-width="1" stroke="black" d="M 166 129 126 177"/>
<path stroke-width="1" stroke="black" d="M 244 222 206 235"/>
<path stroke-width="1" stroke="black" d="M 244 222 204 178"/>
<path stroke-width="1" stroke="black" d="M 244 222 267 245"/>
<path stroke-width="1" stroke="black" d="M 244 222 235 117"/>
<path stroke-width="1" stroke="black" d="M 165 134 177 235"/>
<path stroke-width="1" stroke="black" d="M 165 134 228 158"/>
<path stroke-width="1" stroke="black" d="M 165 134 262 194"/>
<path stroke-width="1" stroke="black" d="M 165 134 155 220"/>
<path stroke-width="1" stroke="black" d="M 165 134 133 113"/>
<path stroke-width="1" stroke="black" d="M 165 134 235 117"/>
<path stroke-width="1" stroke="black" d="M 165 134 244 222"/>
<path stroke-width="1" stroke="black" d="M 165 134 153 158"/>
<path stroke-width="1" stroke="black" d="M 165 134 204 178"/>
<path stroke-width="1" stroke="black" d="M 165 134 166 129"/>
<path stroke-width="1" stroke="black" d="M 257 84 235 117"/>
<path stroke-width="1" stroke="black" d="M 235 117 155 105"/>
<path stroke-width="1" stroke="black" d="M 235 117 290 187"/>
<path stroke-width="1" stroke="black" d="M 235 117 126 177"/>
<path stroke-width="1" stroke="black" d="M 235 117 277 138"/>
<path stroke-width="1" stroke="black" d="M 235 117 233 115"/>
<path stroke-width="1" stroke="black" d="M 165 134 206 235"/>
<path stroke-width="1" stroke="black" d="M 165 134 256 133"/>
<path stroke-width="1" stroke="black" d="M 165 134 144 175"/>
<path stroke-width="1" stroke="black" d="M 165 134 273 169"/>
<path stroke-width="1" stroke="black" d="M 155 220 235 117"/>
<path stroke-width="1" stroke="black" d="M 155 220 244 222"/>
<path stroke-width="1" stroke="black" d="M 155 220 204 178"/>
<path stroke-width="1" stroke="black" d="M 155 220 206 235"/>
<path stroke-width="1" stroke="black" d="M 155 220 166 129"/>
<path stroke-width="1" stroke="black" d="M 133 113 165 134"/>
<path stroke-width="1" stroke="black" d="M 165 134 155 105"/>
<path stroke-width="1" stroke="black" d="M 165 134 290 187"/>
<path stroke-width="1" stroke="black" d="M 165 134 126 177"/>
<path stroke-width="1" stroke="black" d="M 165 134 277 138"/>
<path stroke-width="1" stroke="black" d="M 165 134 233 115"/>
<path stroke-width="1" stroke="black" d="M 165 134 212 98"/>
<path stroke-width="1" stroke="black" d="M 165 134 229 253"/>
<path stroke-width="1" stroke="black" d="M 165 134 137 192"/>
<path stroke-width="1" stroke="black" d="M 165 134 274 199"/>
<path stroke-width="1" stroke="black" d="M 165 134 190 234"/>
<path stroke-width="1" stroke="black" d="M 165 134 231 247"/>
<path stroke-width="1" stroke="black" d="M 235 117 212 98"/>
<path stroke-width="1" stroke="black" d="M 144 175 256 133"/>
<path stroke-width="1" stroke="black" d="M 235 117 229 253"/>
<path stroke-width="1" stroke="black" d="M 235 117 274 199"/>
<path stroke-width="1" stroke="black" d="M 244 222 233 115"/>
<path stroke-width="1" stroke="black" d="M 244 222 212 98"/>
<path stroke-width="1" stroke="black" d="M 244 222 229 253"/>
<path stroke-width="1" stroke="black" d="M 244 222 137 192"/>
<path stroke-width="1" stroke="black" d="M 244 222 274 199"/>
<path stroke-width="1" stroke="black" d="M 244 222 190 234"/>
<path stroke-width="1" stroke="black" d="M 244 222 231 247"/>
<path stroke-width="1" stroke="black" d="M 244 222 277 138"/>
<path stroke-width="1" stroke="black" d="M 244 222 273 169"/>
<path stroke-width="1" stroke="black" d="M 244 222 256 133"/>
<path stroke-width="1" stroke="black" d="M 244 222 153 158"/>
<path stroke-width="1" stroke="black" d="M 244 222 177 235"/>
<path stroke-width="1" stroke="black" d="M 244 222 228 158"/>
<path stroke-width="1" stroke="black" d="M 244 222 262 194"/>
<path stroke-width="1" stroke="black" d="M 244 222 155 220"/>
<path stroke-width="1" stroke="black" d="M 244 222 165 134"/>
<path stroke-width="1" stroke="black" d="M 244 222 144 175"/>
<path stroke-width="1" stroke="black" d="M 244 222 126 177"/>
<path stroke-width="1" stroke="black" d="M 244 222 290 187"/>
<path stroke-width="1" stroke="black" d="M 244 222 155 105"/>
<path stroke-width="1" stroke="black" d="M 235 117 190 234"/>
<path stroke-width="1" stroke="black" d="M 235 117 231 247"/>
<path stroke-width="1" stroke="black" d="M 235 117 273 169"/>
<path stroke-width="1" stroke="black" d="M 235 117 144 175"/>
<path stroke-width="1" stroke="black" d="M 235 117 256 133"/>
<path stroke-width="1" stroke="black" d="M 235 117 153 158"/>
<path stroke-width="1" stroke="black" d="M 235 117 177 235"/>
<path stroke-width="1" stroke="black" d="M 235 117 228 158"/>
<path stroke-width="1" stroke="black" d="M 235 117 262 194"/>
<path stroke-width="1" stroke="black" d="M 235 117 155 220"/>
<path stroke-width="1" stroke="black" d="M 235 117 165 134"/>
<path stroke-width="1" stroke="black" d="M 235 117 257 84"/>
<path stroke-width="1" stroke="black" d="M 235 117 244 222"/>
<path stroke-width="1" stroke="black" d="M 235 117 204 178"/>
<path stroke-width="1" stroke="black" d="M 235 117 206 235"/>
<path stroke-width="1" stroke="black" d="M 235 117 166 129"/>
<path stroke-width="1" stroke="black" d="M 267 245 244 222"/>
<path stroke-width="1" stroke="black" d="M 235 117 137 192"/>
<path stroke-width="1" stroke="black" d="M 144 175 97 177"/>
<path stroke-width="1" stroke="black" d="M 144 175 273 169"/>
<path stroke-width="1" stroke="black" d="M 144 175 231 247"/>
<path stroke-width="1" stroke="black" d="M 277 138 166 129"/>
<path stroke-width="1" stroke="black" d="M 282 57 233 115"/>
<path stroke-width="1" stroke="black" d="M 233 115 155 105"/>
<path stroke-width="1" stroke="black" d="M 233 115 290 187"/>
<path stroke-width="1" stroke="black" d="M 233 115 126 177"/>
<path stroke-width="1" stroke="black" d="M 233 115 277 138"/>
<path stroke-width="1" stroke="black" d="M 233 115 282 57"/>
<path stroke-width="1" stroke="black" d="M 277 138 206 235"/>
<path stroke-width="1" stroke="black" d="M 233 115 212 98"/>
<path stroke-width="1" stroke="black" d="M 233 115 137 192"/>
<path stroke-width="1" stroke="black" d="M 233 115 274 199"/>
<path stroke-width="1" stroke="black" d="M 233 115 190 234"/>
<path stroke-width="1" stroke="black" d="M 233 115 231 247"/>
<path stroke-width="1" stroke="black" d="M 233 115 273 169"/>
<path stroke-width="1" stroke="black" d="M 233 115 144 175"/>
<path stroke-width="1" stroke="black" d="M 233 115 256 133"/>
<path stroke-width="1" stroke="black" d="M 233 115 229 253"/>
<path stroke-width="1" stroke="black" d="M 233 115 153 158"/>
<path stroke-width="1" stroke="black" d="M 277 138 204 178"/>
<path stroke-width="1" stroke="black" d="M 277 138 235 117"/>
<path stroke-width="1" stroke="black" d="M 277 138 233 115"/>
<path stroke-width="1" stroke="black" d="M 277 138 212 98"/>
<path stroke-width="1" stroke="black" d="M 277 138 229 253"/>
<path stroke-width="1" stroke="black" d="M 277 138 137 192"/>
<path stroke-width="1" stroke="black" d="M 277 138 274 199"/>
<path stroke-width="1" stroke="black" d="M 277 138 190 234"/>
<path stroke-width="1" stroke="black" d="M 277 138 231 247"/>
<path stroke-width="1" stroke="black" d="M 277 138 244 222"/>
<path stroke-width="1" stroke="black" d="M 277 138 273 169"/>
<path stroke-width="1" stroke="black" d="M 277 138 256 133"/>
<path stroke-width="1" stroke="black" d="M 277 138 153 158"/>
<path stroke-width="1" stroke="black" d="M 277 138 177 235"/>
<path stroke-width="1" stroke="black" d="M 277 138 228 158"/>
<path stroke-width="1" stroke="black" d="M 277 138 262 194"/>
<path stroke-width="1" stroke="black" d="M 277 138 155 220"/>
<path stroke-width="1" stroke="black" d="M 277 138 165 134"/>
<path stroke-width="1" stroke="black" d="M 277 138 144 175"/>
<path stroke-width="1" stroke="black" d="M 233 115 177 235"/>
<path stroke-width="1" stroke="black" d="M 233 115 228 158"/>
<path stroke-width="1" stroke="black" d="M 233 115 262 194"/>
<path stroke-width="1" stroke="black" d="M 212 98 256 133"/>
<path stroke-width="1" stroke="black" d="M 212 98 153 158"/>
<path stroke-width="1" stroke="black" d="M 212 98 177 235"/>
<path stroke-width="1" stroke="black" d="M 212 98 228 158"/>
<path stroke-width="1" stroke="black" d="M 212 98 262 194"/>
<path stroke-width="1" stroke="black" d="M 212 98 155 220"/>
<path stroke-width="1" stroke="black" d="M 212 98 165 134"/>
<path stroke-width="1" stroke="black" d="M 212 98 144 175"/>
<path stroke-width="1" stroke="black" d="M 212 98 235 117"/>
<path stroke-width="1" stroke="black" d="M 212 98 204 178"/>
<path stroke-width="1" stroke="black" d="M 212 98 206 235"/>
<path stroke-width="1" stroke="black" d="M 212 98 166 129"/>
<path stroke-width="1" stroke="black" d="M 246 320 229 253"/>
<path stroke-width="1" stroke="black" d="M 229 253 155 105"/>
<path stroke-width="1" stroke="black" d="M 229 253 290 187"/>
<path stroke-width="1" stroke="black" d="M 229 253 126 177"/>
<path stroke-width="1" stroke="black" d="M 212 98 244 222"/>
<path stroke-width="1" stroke="black" d="M 212 98 273 169"/>
<path stroke-width="1" stroke="black" d="M 212 98 231 247"/>
<path stroke-width="1" stroke="black" d="M 212 98 190 234"/>
<path stroke-width="1" stroke="black" d="M 233 115 155 220"/>
<path stroke-width="1" stroke="black" d="M 233 115 165 134"/>
<path stroke-width="1" stroke="black" d="M 233 115 235 117"/>
<path stroke-width="1" stroke="black" d="M 233 115 244 222"/>
<path stroke-width="1" stroke="black" d="M 233 115 204 178"/>
<path stroke-width="1" stroke="black" d="M 233 115 206 235"/>
<path stroke-width="1" stroke="black" d="M 233 115 166 129"/>
<path stroke-width="1" stroke="black" d="M 225 30 212 98"/>
<path stroke-width="1" stroke="black" d="M 212 98 155 105"/>
<path stroke-width="1" stroke="black" d="M 212 98 290 187"/>
<path stroke-width="1" stroke="black" d="M 212 98 126 177"/>
<path stroke-width="1" stroke="black" d="M 212 98 277 138"/>
<path stroke-width="1" stroke="black" d="M 212 98 233 115"/>
<path stroke-width="1" stroke="black" d="M 212 98 225 30"/>
<path stroke-width="1" stroke="black" d="M 212 98 229 253"/>
<path stroke-width="1" stroke="black" d="M 212 98 137 192"/>
<path stroke-width="1" stroke="black" d="M 212 98 274 199"/>
<path stroke-width="1" stroke="black" d="M 277 138 357 104"/>
<path stroke-width="1" stroke="black" d="M 277 138 126 177"/>
<path stroke-width="1" stroke="black" d="M 277 138 290 187"/>
<path stroke-width="1" stroke="black" d="M 277 138 155 105"/>
<path stroke-width="1" stroke="black" d="M 155 105 244 222"/>
<path stroke-width="1" stroke="black" d="M 155 105 204 178"/>
<path stroke-width="1" stroke="black" d="M 155 105 206 235"/>
<path stroke-width="1" stroke="black" d="M 155 105 166 129"/>
<path stroke-width="1" stroke="black" d="M 420 196 290 187"/>
<path stroke-width="1" stroke="black" d="M 290 187 155 105"/>
<path stroke-width="1" stroke="black" d="M 290 187 420 196"/>
<path stroke-width="1" stroke="black" d="M 155 105 235 117"/>
<path stroke-width="1" stroke="black" d="M 290 187 126 177"/>
<path stroke-width="1" stroke="black" d="M 290 187 233 115"/>
<path stroke-width="1" stroke="black" d="M 290 187 212 98"/>
<path stroke-width="1" stroke="black" d="M 290 187 229 253"/>
<path stroke-width="1" stroke="black" d="M 290 187 137 192"/>
<path stroke-width="1" stroke="black" d="M 290 187 274 199"/>
<path stroke-width="1" stroke="black" d="M 290 187 190 234"/>
<path stroke-width="1" stroke="black" d="M 290 187 231 247"/>
<path stroke-width="1" stroke="black" d="M 290 187 277 138"/>
<path stroke-width="1" stroke="black" d="M 155 105 165 134"/>
<path stroke-width="1" stroke="black" d="M 155 105 155 220"/>
<path stroke-width="1" stroke="black" d="M 155 105 262 194"/>
<path stroke-width="1" stroke="black" d="M 155 105 33 20"/>
<path stroke-width="1" stroke="black" d="M 155 105 290 187"/>
<path stroke-width="1" stroke="black" d="M 155 105 126 177"/>
<path stroke-width="1" stroke="black" d="M 155 105 277 138"/>
<path stroke-width="1" stroke="black" d="M 155 105 233 115"/>
<path stroke-width="1" stroke="black" d="M 155 105 212 98"/>
<path stroke-width="1" stroke="black" d="M 155 105 229 253"/>
<path stroke-width="1" stroke="black" d="M 155 105 137 192"/>
<path stroke-width="1" stroke="black" d="M 155 105 274 199"/>
<path stroke-width="1" stroke="black" d="M 155 105 190 234"/>
<path stroke-width="1" stroke="black" d="M 155 105 231 247"/>
<path stroke-width="1" stroke="black" d="M 155 105 273 169"/>
<path stroke-width="1" stroke="black" d="M 155 105 144 175"/>
<path stroke-width="1" stroke="black" d="M 155 105 256 133"/>
<path stroke-width="1" stroke="black" d="M 155 105 153 158"/>
<path stroke-width="1" stroke="black" d="M 155 105 177 235"/>
<path stroke-width="1" stroke="black" d="M 155 105 228 158"/>
<path stroke-width="1" stroke="black" d="M 290 187 273 169"/>
<path stroke-width="1" stroke="black" d="M 229 253 277 138"/>
<path stroke-width="1" stroke="black" d="M 290 187 144 175"/>
<path stroke-width="1" stroke="black" d="M 290 187 153 158"/>
<path stroke-width="1" stroke="black" d="M 126 177 231 247"/>
<path stroke-width="1" stroke="black" d="M 126 177 273 169"/>
<path stroke-width="1" stroke="black" d="M 126 177 144 175"/>
<path stroke-width="1" stroke="black" d="M 126 177 256 133"/>
<path stroke-width="1" stroke="black" d="M 126 177 153 158"/>
<path stroke-width="1" stroke="black" d="M 126 177 177 235"/>
<path stroke-width="1" stroke="black" d="M 126 177 228 158"/>
<path stroke-width="1" stroke="black" d="M 126 177 190 234"/>
<path stroke-width="1" stroke="black" d="M 126 177 262 194"/>
<path stroke-width="1" stroke="black" d="M 126 177 165 134"/>
<path stroke-width="1" stroke="black" d="M 126 177 235 117"/>
<path stroke-width="1" stroke="black" d="M 126 177 244 222"/>
<path stroke-width="1" stroke="black" d="M 126 177 204 178"/>
<path stroke-width="1" stroke="black" d="M 126 177 206 235"/>
<path stroke-width="1" stroke="black" d="M 126 177 166 129"/>
<path stroke-width="1" stroke="black" d="M 357 104 277 138"/>
<path stroke-width="1" stroke="black" d="M 126 177 155 220"/>
<path stroke-width="1" stroke="black" d="M 126 177 274 199"/>
<path stroke-width="1" stroke="black" d="M 126 177 137 192"/>
<path stroke-width="1" stroke="black" d="M 126 177 229 253"/>
<path stroke-width="1" stroke="black" d="M 290 187 177 235"/>
<path stroke-width="1" stroke="black" d="M 290 187 228 158"/>
<path stroke-width="1" stroke="black" d="M 290 187 262 194"/>
<path stroke-width="1" stroke="black" d="M 290 187 155 220"/>
<path stroke-width="1" stroke="black" d="M 290 187 165 134"/>
<path stroke-width="1" stroke="black" d="M 290 187 235 117"/>
<path stroke-width="1" stroke="black" d="M 290 187 244 222"/>
<path stroke-width="1" stroke="black" d="M 290 187 204 178"/>
<path stroke-width="1" stroke="black" d="M 290 187 206 235"/>
<path stroke-width="1" stroke="black" d="M 290 187 166 129"/>
<path stroke-width="1" stroke="black" d="M 20 178 126 177"/>
<path stroke-width="1" stroke="black" d="M 126 177 155 105"/>
<path stroke-width="1" stroke="black" d="M 126 177 290 187"/>
<path stroke-width="1" stroke="black" d="M 126 177 20 178"/>
<path stroke-width="1" stroke="black" d="M 126 177 277 138"/>
<path stroke-width="1" stroke="black" d="M 126 177 233 115"/>
<path stroke-width="1" stroke="black" d="M 126 177 212 98"/>
<path stroke-width="1" stroke="black" d="M 290 187 256 133"/>
<path stroke-width="1" stroke="black" d="M 166 129 206 235"/>
<path stroke-width="1" stroke="black" d="M 229 253 233 115"/>
<path stroke-width="1" stroke="black" d="M 229 253 246 320"/>
<path stroke-width="1" stroke="black" d="M 231 247 212 98"/>
<path stroke-width="1" stroke="black" d="M 231 247 229 253"/>
<path stroke-width="1" stroke="black" d="M 231 247 137 192"/>
<path stroke-width="1" stroke="black" d="M 231 247 274 199"/>
<path stroke-width="1" stroke="black" d="M 231 247 190 234"/>
<path stroke-width="1" stroke="black" d="M 231 247 247 296"/>
<path stroke-width="1" stroke="black" d="M 231 247 273 169"/>
<path stroke-width="1" stroke="black" d="M 231 247 233 115"/>
<path stroke-width="1" stroke="black" d="M 231 247 144 175"/>
<path stroke-width="1" stroke="black" d="M 231 247 153 158"/>
<path stroke-width="1" stroke="black" d="M 231 247 177 235"/>
<path stroke-width="1" stroke="black" d="M 231 247 228 158"/>
<path stroke-width="1" stroke="black" d="M 231 247 262 194"/>
<path stroke-width="1" stroke="black" d="M 231 247 155 220"/>
<path stroke-width="1" stroke="black" d="M 231 247 165 134"/>
<path stroke-width="1" stroke="black" d="M 231 247 235 117"/>
<path stroke-width="1" stroke="black" d="M 231 247 256 133"/>
<path stroke-width="1" stroke="black" d="M 231 247 244 222"/>
<path stroke-width="1" stroke="black" d="M 231 247 277 138"/>
<path stroke-width="1" stroke="black" d="M 231 247 290 187"/>
<path stroke-width="1" stroke="black" d="M 190 234 273 169"/>
<path stroke-width="1" stroke="black" d="M 190 234 144 175"/>
<path stroke-width="1" stroke="black" d="M 190 234 256 133"/>
<path stroke-width="1" stroke="black" d="M 190 234 153 158"/>
<path stroke-width="1" stroke="black" d="M 190 234 177 235"/>
<path stroke-width="1" stroke="black" d="M 190 234 228 158"/>
<path stroke-width="1" stroke="black" d="M 190 234 262 194"/>
<path stroke-width="1" stroke="black" d="M 231 247 126 177"/>
<path stroke-width="1" stroke="black" d="M 190 234 155 220"/>
<path stroke-width="1" stroke="black" d="M 190 234 235 117"/>
<path stroke-width="1" stroke="black" d="M 190 234 244 222"/>
<path stroke-width="1" stroke="black" d="M 190 234 204 178"/>
<path stroke-width="1" stroke="black" d="M 190 234 206 235"/>
<path stroke-width="1" stroke="black" d="M 190 234 166 129"/>
<path stroke-width="1" stroke="black" d="M 247 296 231 247"/>
<path stroke-width="1" stroke="black" d="M 231 247 155 105"/>
<path stroke-width="1" stroke="black" d="M 190 234 165 134"/>
<path stroke-width="1" stroke="black" d="M 231 247 204 178"/>
<path stroke-width="1" stroke="black" d="M 231 247 206 235"/>
<path stroke-width="1" stroke="black" d="M 231 247 166 129"/>
<path stroke-width="1" stroke="black" d="M 273 169 235 117"/>
<path stroke-width="1" stroke="black" d="M 273 169 244 222"/>
<path stroke-width="1" stroke="black" d="M 273 169 204 178"/>
<path stroke-width="1" stroke="black" d="M 273 169 206 235"/>
<path stroke-width="1" stroke="black" d="M 273 169 166 129"/>
<path stroke-width="1" stroke="black" d="M 97 177 144 175"/>
<path stroke-width="1" stroke="black" d="M 144 175 155 105"/>
<path stroke-width="1" stroke="black" d="M 273 169 165 134"/>
<path stroke-width="1" stroke="black" d="M 144 175 290 187"/>
<path stroke-width="1" stroke="black" d="M 144 175 277 138"/>
<path stroke-width="1" stroke="black" d="M 144 175 233 115"/>
<path stroke-width="1" stroke="black" d="M 144 175 212 98"/>
<path stroke-width="1" stroke="black" d="M 144 175 229 253"/>
<path stroke-width="1" stroke="black" d="M 144 175 137 192"/>
<path stroke-width="1" stroke="black" d="M 144 175 274 199"/>
<path stroke-width="1" stroke="black" d="M 144 175 190 234"/>
<path stroke-width="1" stroke="black" d="M 144 175 126 177"/>
<path stroke-width="1" stroke="black" d="M 273 169 155 220"/>
<path stroke-width="1" stroke="black" d="M 273 169 262 194"/>
<path stroke-width="1" stroke="black" d="M 273 169 228 158"/>
<path stroke-width="1" stroke="black" d="M 322 164 273 169"/>
<path stroke-width="1" stroke="black" d="M 273 169 155 105"/>
<path stroke-width="1" stroke="black" d="M 273 169 290 187"/>
<path stroke-width="1" stroke="black" d="M 273 169 126 177"/>
<path stroke-width="1" stroke="black" d="M 273 169 277 138"/>
<path stroke-width="1" stroke="black" d="M 273 169 233 115"/>
<path stroke-width="1" stroke="black" d="M 273 169 212 98"/>
<path stroke-width="1" stroke="black" d="M 273 169 229 253"/>
<path stroke-width="1" stroke="black" d="M 273 169 137 192"/>
<path stroke-width="1" stroke="black" d="M 273 169 274 199"/>
<path stroke-width="1" stroke="black" d="M 273 169 190 234"/>
<path stroke-width="1" stroke="black" d="M 273 169 231 247"/>
<path stroke-width="1" stroke="black" d="M 273 169 322 164"/>
<path stroke-width="1" stroke="black" d="M 273 169 144 175"/>
<path stroke-width="1" stroke="black" d="M 273 169 256 133"/>
<path stroke-width="1" stroke="black" d="M 273 169 153 158"/>
<path stroke-width="1" stroke="black" d="M 273 169 177 235"/>
<path stroke-width="1" stroke="black" d="M 190 234 231 247"/>
<path stroke-width="1" stroke="black" d="M 190 234 171 280"/>
<path stroke-width="1" stroke="black" d="M 190 234 274 199"/>
<path stroke-width="1" stroke="black" d="M 190 234 137 192"/>
<path stroke-width="1" stroke="black" d="M 137 192 126 177"/>
<path stroke-width="1" stroke="black" d="M 137 192 277 138"/>
<path stroke-width="1" stroke="black" d="M 137 192 233 115"/>
<path stroke-width="1" stroke="black" d="M 137 192 212 98"/>
<path stroke-width="1" stroke="black" d="M 137 192 229 253"/>
<path stroke-width="1" stroke="black" d="M 137 192 76 204"/>
<path stroke-width="1" stroke="black" d="M 137 192 274 199"/>
<path stroke-width="1" stroke="black" d="M 137 192 290 187"/>
<path stroke-width="1" stroke="black" d="M 137 192 190 234"/>
<path stroke-width="1" stroke="black" d="M 137 192 273 169"/>
<path stroke-width="1" stroke="black" d="M 137 192 144 175"/>
<path stroke-width="1" stroke="black" d="M 137 192 256 133"/>
<path stroke-width="1" stroke="black" d="M 137 192 153 158"/>
<path stroke-width="1" stroke="black" d="M 137 192 177 235"/>
<path stroke-width="1" stroke="black" d="M 137 192 228 158"/>
<path stroke-width="1" stroke="black" d="M 137 192 262 194"/>
<path stroke-width="1" stroke="black" d="M 137 192 231 247"/>
<path stroke-width="1" stroke="black" d="M 137 192 155 105"/>
<path stroke-width="1" stroke="black" d="M 76 204 137 192"/>
<path stroke-width="1" stroke="black" d="M 229 253 166 129"/>
<path stroke-width="1" stroke="black" d="M 229 253 137 192"/>
<path stroke-width="1" stroke="black" d="M 229 253 274 199"/>
<path stroke-width="1" stroke="black" d="M 229 253 190 234"/>
<path stroke-width="1" stroke="black" d="M 229 253 231 247"/>
<path stroke-width="1" stroke="black" d="M 229 253 273 169"/>
<path stroke-width="1" stroke="black" d="M 229 253 144 175"/>
<path stroke-width="1" stroke="black" d="M 229 253 256 133"/>
<path stroke-width="1" stroke="black" d="M 229 253 153 158"/>
<path stroke-width="1" stroke="black" d="M 229 253 177 235"/>
<path stroke-width="1" stroke="black" d="M 229 253 228 158"/>
<path stroke-width="1" stroke="black" d="M 229 253 262 194"/>
<path stroke-width="1" stroke="black" d="M 229 253 155 220"/>
<path stroke-width="1" stroke="black" d="M 229 253 165 134"/>
<path stroke-width="1" stroke="black" d="M 229 253 235 117"/>
<path stroke-width="1" stroke="black" d="M 229 253 244 222"/>
<path stroke-width="1" stroke="black" d="M 229 253 204 178"/>
<path stroke-width="1" stroke="black" d="M 229 253 206 235"/>
<path stroke-width="1" stroke="black" d="M 137 192 155 220"/>
<path stroke-width="1" stroke="black" d="M 229 253 212 98"/>
<path stroke-width="1" stroke="black" d="M 137 192 165 134"/>
<path stroke-width="1" stroke="black" d="M 137 192 244 222"/>
<path stroke-width="1" stroke="black" d="M 274 199 262 194"/>
<path stroke-width="1" stroke="black" d="M 274 199 155 220"/>
<path stroke-width="1" stroke="black" d="M 274 199 165 134"/>
<path stroke-width="1" stroke="black" d="M 274 199 235 117"/>
<path stroke-width="1" stroke="black" d="M 274 199 244 222"/>
<path stroke-width="1" stroke="black" d="M 274 199 204 178"/>
<path stroke-width="1" stroke="black" d="M 274 199 206 235"/>
<path stroke-width="1" stroke="black" d="M 274 199 228 158"/>
<path stroke-width="1" stroke="black" d="M 274 199 166 129"/>
<path stroke-width="1" stroke="black" d="M 190 234 155 105"/>
<path stroke-width="1" stroke="black" d="M 190 234 290 187"/>
<path stroke-width="1" stroke="black" d="M 190 234 126 177"/>
<path stroke-width="1" stroke="black" d="M 190 234 277 138"/>
<path stroke-width="1" stroke="black" d="M 190 234 233 115"/>
<path stroke-width="1" stroke="black" d="M 190 234 212 98"/>
<path stroke-width="1" stroke="black" d="M 190 234 229 253"/>
<path stroke-width="1" stroke="black" d="M 171 280 190 234"/>
<path stroke-width="1" stroke="black" d="M 274 199 177 235"/>
<path stroke-width="1" stroke="black" d="M 274 199 153 158"/>
<path stroke-width="1" stroke="black" d="M 274 199 256 133"/>
<path stroke-width="1" stroke="black" d="M 137 192 204 178"/>
<path stroke-width="1" stroke="black" d="M 137 192 206 235"/>
<path stroke-width="1" stroke="black" d="M 137 192 166 129"/>
<path stroke-width="1" stroke="black" d="M 331 212 274 199"/>
<path stroke-width="1" stroke="black" d="M 274 199 155 105"/>
<path stroke-width="1" stroke="black" d="M 274 199 290 187"/>
<path stroke-width="1" stroke="black" d="M 274 199 126 177"/>
<path stroke-width="1" stroke="black" d="M 274 199 277 138"/>
<path stroke-width="1" stroke="black" d="M 274 199 233 115"/>
<path stroke-width="1" stroke="black" d="M 274 199 212 98"/>
<path stroke-width="1" stroke="black" d="M 274 199 229 253"/>
<path stroke-width="1" stroke="black" d="M 274 199 137 192"/>
<path stroke-width="1" stroke="black" d="M 274 199 331 212"/>
<path stroke-width="1" stroke="black" d="M 274 199 190 234"/>
<path stroke-width="1" stroke="black" d="M 274 199 231 247"/>
<path stroke-width="1" stroke="black" d="M 274 199 273 169"/>
<path stroke-width="1" stroke="black" d="M 274 199 144 175"/>
<path stroke-width="1" stroke="black" d="M 137 192 235 117"/>
<path stroke-width="1" stroke="black" d="M 166 129 138 107"/>
<circle cx="33" cy="20" r="7.0" style="fill:blue;stroke:black;stroke-width:1.0"/>
<circle cx="155" cy="105" r="7.0" style="fill:blue;stroke:black;stroke-width:1.0"/>
<circle cx="420" cy="196" r="7.0" style="fill:blue;stroke:black;stroke-width:1.0"/>
<circle cx="290" cy="187" r="7.0" style="fill:blue;stroke:black;stroke-width:1.0"/>
<circle cx="20" cy="178" r="7.0" style="fill:blue;stroke:black;stroke-width:1.0"/>
<circle cx="126" cy="177" r="7.0" style="fill:blue;stroke:black;stroke-width:1.0"/>
<circle cx="357" cy="104" r="7.0" style="fill:blue;stroke:black;stroke-width:1.0"/>
<circle cx="277" cy="138" r="7.0" style="fill:blue;stroke:black;stroke-width:1.0"/>
<circle cx="282" cy="57" r="7.0" style="fill:blue;stroke:black;stroke-width:1.0"/>
<circle cx="233" cy="115" r="7.0" style="fill:blue;stroke:black;stroke-width:1.0"/>
<circle cx="225" cy="30" r="7.0" style="fill:aqua;stroke:black;stroke-width:1.0"/>
<circle cx="212" cy="98" r="7.0" style="fill:aqua;stroke:black;stroke-width:1.0"/>
<circle cx="246" cy="320" r="7.0" style="fill:olive;stroke:black;stroke-width:1.0"/>
<circle cx="229" cy="253" r="7.0" style="fill:olive;stroke:black;stroke-width:1.0"/>
<circle cx="76" cy="204" r="7.0" style="fill:fuchsia;stroke:black;stroke-width:1.0"/>
<circle cx="137" cy="192" r="7.0" style="fill:fuchsia;stroke:black;stroke-width:1.0"/>
<circle cx="331" cy="212" r="7.0" style="fill:yellow;stroke:black;stroke-width:1.0"/>
<circle cx="274" cy="199" r="7.0" style="fill:yellow;stroke:black;stroke-width:1.0"/>
<circle cx="171" cy="280" r="7.0" style="fill:purple;stroke:black;stroke-width:1.0"/>
<circle cx="190" cy="234" r="7.0" style="fill:purple;stroke:black;stroke-width:1.0"/>
<circle cx="247" cy="296" r="7.0" style="fill:orange;stroke:black;stroke-width:1.0"/>
<circle cx="231" cy="247" r="7.0" style="fill:orange;stroke:black;stroke-width:1.0"/>
<circle cx="322" cy="164" r="7.0" style="fill:green;stroke:black;stroke-width:1.0"/>
<circle cx="273" cy="169" r="7.0" style="fill:green;stroke:black;stroke-width:1.0"/>
<circle cx="97" cy="177" r="7.0" style="fill:red;stroke:black;stroke-width:1.0"/>
<circle cx="144" cy="175" r="7.0" style="fill:red;stroke:black;stroke-width:1.0"/>
<circle cx="293" cy="105" r="7.0" style="fill:brown;stroke:black;stroke-width:1.0"/>
<circle cx="256" cy="133" r="7.0" style="fill:brown;stroke:black;stroke-width:1.0"/>
<circle cx="111" cy="150" r="7.0" style="fill:blue;stroke:black;stroke-width:1.0"/>
<circle cx="153" cy="158" r="7.0" style="fill:blue;stroke:black;stroke-width:1.0"/>
<circle cx="154" cy="268" r="7.0" style="fill:aqua;stroke:black;stroke-width:1.0"/>
<circle cx="177" cy="235" r="7.0" style="fill:aqua;stroke:black;stroke-width:1.0"/>
<circle cx="254" cy="147" r="7.0" style="fill:olive;stroke:black;stroke-width:1.0"/>
<circle cx="228" cy="158" r="7.0" style="fill:olive;stroke:black;stroke-width:1.0"/>
<circle cx="299" cy="204" r="7.0" style="fill:fuchsia;stroke:black;stroke-width:1.0"/>
<circle cx="262" cy="194" r="7.0" style="fill:fuchsia;stroke:black;stroke-width:1.0"/>
<circle cx="123" cy="241" r="7.0" style="fill:yellow;stroke:black;stroke-width:1.0"/>
<circle cx="155" cy="220" r="7.0" style="fill:yellow;stroke:black;stroke-width:1.0"/>
<circle cx="133" cy="113" r="7.0" style="fill:purple;stroke:black;stroke-width:1.0"/>
<circle cx="165" cy="134" r="7.0" style="fill:purple;stroke:black;stroke-width:1.0"/>
<circle cx="257" cy="84" r="7.0" style="fill:orange;stroke:black;stroke-width:1.0"/>
<circle cx="235" cy="117" r="7.0" style="fill:orange;stroke:black;stroke-width:1.0"/>
<circle cx="267" cy="245" r="7.0" style="fill:green;stroke:black;stroke-width:1.0"/>
<circle cx="244" cy="222" r="7.0" style="fill:green;stroke:black;stroke-width:1.0"/>
<circle cx="196" cy="196" r="7.0" style="fill:red;stroke:black;stroke-width:1.0"/>
<circle cx="204" cy="178" r="7.0" style="fill:red;stroke:black;stroke-width:1.0"/>
<circle cx="203" cy="264" r="7.0" style="fill:brown;stroke:black;stroke-width:1.0"/>
<circle cx="206" cy="235" r="7.0" style="fill:brown;stroke:black;stroke-width:1.0"/>
<circle cx="138" cy="107" r="7.0" style="fill:blue;stroke:black;stroke-width:1.0"/>
<circle cx="166" cy="129" r="7.0" style="fill:blue;stroke:black;stroke-width:1.0"/>
</svg>
