<svg width="440" height="340" xmlns="http://www.w3.org/2000/svg">
<path stroke-width="1.5051546391752577" stroke="black" d="M 420 20 295 117"/>
<path stroke-width="0.5" stroke="black" d="M 136 192 149 136"/>
<path stroke-width="0.5" stroke="black" d="M 136 192 282 133"/>
<path stroke-width="0.5" stroke="black" d="M 136 192 179 119"/>
<path stroke-width="0.5" stroke="black" d="M 136 192 188 152"/>
<path stroke-width="0.5" stroke="black" d="M 136 192 225 207"/>
<path stroke-width="13.969072164948454" stroke="black" d="M 136 192 96 211"/>
<path stroke-width="0.5" stroke="black" d="M 136 192 238 201"/>
<path stroke-width="0.5" stroke="black" d="M 136 192 298 160"/>
<path stroke-width="0.5" stroke="black" d="M 136 192 122 136"/>
<path stroke-width="0.5" stroke="black" d="M 136 192 297 153"/>
<path stroke-width="0.5" stroke="black" d="M 136 192 298 186"/>
<path stroke-width="0.5" stroke="black" d="M 136 192 254 132"/>
<path stroke-width="0.5" stroke="black" d="M 136 192 226 125"/>
<path stroke-width="0.5" stroke="black" d="M 136 192 186 167"/>
<path stroke-width="14.77319587628866" stroke="black" d="M 255 225 238 201"/>
<path stroke-width="0.5" stroke="black" d="M 238 201 295 117"/>
<path stroke-width="0.5" stroke="black" d="M 136 192 215 202"/>
<path stroke-width="0.5" stroke="black" d="M 238 201 176 226"/>
<path stroke-width="0.5" stroke="black" d="M 136 192 178 213"/>
<path stroke-width="0.5" stroke="black" d="M 136 192 176 114"/>
<path stroke-width="0.5" stroke="black" d="M 225 207 238 201"/>
<path stroke-width="0.5" stroke="black" d="M 225 207 122 136"/>
<path stroke-width="0.5" stroke="black" d="M 225 207 215 202"/>
<path stroke-width="0.5" stroke="black" d="M 225 207 297 153"/>
<path stroke-width="0.5" stroke="black" d="M 225 207 298 186"/>
<path stroke-width="0.5" stroke="black" d="M 225 207 254 132"/>
<path stroke-width="0.5" stroke="black" d="M 225 207 226 125"/>
<path stroke-width="0.5" stroke="black" d="M 136 192 194 124"/>
<path stroke-width="0.5" stroke="black" d="M 225 207 186 167"/>
<path stroke-width="0.5" stroke="black" d="M 136 192 295 117"/>
<path stroke-width="0.5" stroke="black" d="M 136 192 176 226"/>
<path stroke-width="0.5" stroke="black" d="M 136 192 236 221"/>
<path stroke-width="0.5" stroke="black" d="M 136 192 283 208"/>
<path stroke-width="0.5" stroke="black" d="M 136 192 129 189"/>
<path stroke-width="0.5" stroke="black" d="M 136 192 113 193"/>
<path stroke-width="0.5" stroke="black" d="M 136 192 104 171"/>
<path stroke-width="13.969072164948454" stroke="black" d="M 96 211 136 192"/>
<path stroke-width="0.5" stroke="black" d="M 238 201 236 221"/>
<path stroke-width="0.5" stroke="black" d="M 238 201 283 208"/>
<path stroke-width="0.5" stroke="black" d="M 238 201 129 189"/>
<path stroke-width="0.5" stroke="black" d="M 122 136 295 117"/>
<path stroke-width="0.5" stroke="black" d="M 122 136 176 226"/>
<path stroke-width="0.5" stroke="black" d="M 122 136 236 221"/>
<path stroke-width="0.5" stroke="black" d="M 122 136 283 208"/>
<path stroke-width="0.5" stroke="black" d="M 122 136 129 189"/>
<path stroke-width="0.5" stroke="black" d="M 122 136 113 193"/>
<path stroke-width="0.5" stroke="black" d="M 122 136 104 171"/>
<path stroke-width="15.577319587628866" stroke="black" d="M 78 115 122 136"/>
<path stroke-width="0.5" stroke="black" d="M 122 136 176 114"/>
<path stroke-width="0.5" stroke="black" d="M 122 136 178 213"/>
<path stroke-width="0.5" stroke="black" d="M 122 136 298 160"/>
<path stroke-width="0.5" stroke="black" d="M 122 136 149 136"/>
<path stroke-width="0.5" stroke="black" d="M 122 136 282 133"/>
<path stroke-width="0.5" stroke="black" d="M 122 136 179 119"/>
<path stroke-width="0.5" stroke="black" d="M 122 136 188 152"/>
<path stroke-width="0.5" stroke="black" d="M 122 136 225 207"/>
<path stroke-width="0.5" stroke="black" d="M 122 136 194 124"/>
<path stroke-width="0.5" stroke="black" d="M 238 201 186 167"/>
<path stroke-width="0.5" stroke="black" d="M 238 201 226 125"/>
<path stroke-width="0.5" stroke="black" d="M 238 201 254 132"/>
<path stroke-width="0.5" stroke="black" d="M 238 201 113 193"/>
<path stroke-width="0.5" stroke="black" d="M 238 201 104 171"/>
<path stroke-width="0.5" stroke="black" d="M 238 201 176 114"/>
<path stroke-width="0.5" stroke="black" d="M 238 201 194 124"/>
<path stroke-width="0.5" stroke="black" d="M 238 201 178 213"/>
<path stroke-width="0.5" stroke="black" d="M 238 201 298 160"/>
<path stroke-width="0.5" stroke="black" d="M 238 201 149 136"/>
<path stroke-width="0.5" stroke="black" d="M 238 201 282 133"/>
<path stroke-width="0.5" stroke="black" d="M 238 201 179 119"/>
<path stroke-width="0.5" stroke="black" d="M 238 201 188 152"/>
<path stroke-width="0.5" stroke="black" d="M 238 201 225 207"/>
<path stroke-width="0.5" stroke="black" d="M 238 201 136 192"/>
<path stroke-width="14.77319587628866" stroke="black" d="M 238 201 255 225"/>
<path stroke-width="0.5" stroke="black" d="M 238 201 122 136"/>
<path stroke-width="0.5" stroke="black" d="M 238 201 215 202"/>
<path stroke-width="0.5" stroke="black" d="M 238 201 297 153"/>
<path stroke-width="0.5" stroke="black" d="M 238 201 298 186"/>
<path stroke-width="0.5" stroke="black" d="M 225 207 136 192"/>
<path stroke-width="0.5" stroke="black" d="M 122 136 136 192"/>
<path stroke-width="13.164948453608247" stroke="black" d="M 225 207 233 235"/>
<path stroke-width="0.5" stroke="black" d="M 225 207 179 119"/>
<path stroke-width="0.5" stroke="black" d="M 179 119 194 124"/>
<path stroke-width="0.5" stroke="black" d="M 179 119 178 213"/>
<path stroke-width="0.5" stroke="black" d="M 179 119 298 160"/>
<path stroke-width="0.5" stroke="black" d="M 179 119 149 136"/>
<path stroke-width="0.5" stroke="black" d="M 179 119 282 133"/>
<path stroke-width="11.556701030927835" stroke="black" d="M 179 119 169 86"/>
<path stroke-width="0.5" stroke="black" d="M 179 119 188 152"/>
<path stroke-width="0.5" stroke="black" d="M 179 119 176 114"/>
<path stroke-width="0.5" stroke="black" d="M 179 119 225 207"/>
<path stroke-width="0.5" stroke="black" d="M 179 119 238 201"/>
<path stroke-width="0.5" stroke="black" d="M 179 119 122 136"/>
<path stroke-width="0.5" stroke="black" d="M 179 119 215 202"/>
<path stroke-width="0.5" stroke="black" d="M 179 119 297 153"/>
<path stroke-width="0.5" stroke="black" d="M 179 119 298 186"/>
<path stroke-width="0.5" stroke="black" d="M 179 119 254 132"/>
<path stroke-width="0.5" stroke="black" d="M 179 119 226 125"/>
<path stroke-width="0.5" stroke="black" d="M 179 119 136 192"/>
<path stroke-width="0.5" stroke="black" d="M 179 119 186 167"/>
<path stroke-width="0.5" stroke="black" d="M 179 119 104 171"/>
<path stroke-width="0.5" stroke="black" d="M 179 119 129 189"/>
<path stroke-width="0.5" stroke="black" d="M 282 133 188 152"/>
<path stroke-width="0.5" stroke="black" d="M 282 133 225 207"/>
<path stroke-width="0.5" stroke="black" d="M 282 133 136 192"/>
<path stroke-width="0.5" stroke="black" d="M 282 133 238 201"/>
<path stroke-width="0.5" stroke="black" d="M 282 133 122 136"/>
<path stroke-width="0.5" stroke="black" d="M 282 133 215 202"/>
<path stroke-width="0.5" stroke="black" d="M 282 133 297 153"/>
<path stroke-width="0.5" stroke="black" d="M 179 119 113 193"/>
<path stroke-width="0.5" stroke="black" d="M 282 133 298 186"/>
<path stroke-width="0.5" stroke="black" d="M 282 133 226 125"/>
<path stroke-width="0.5" stroke="black" d="M 282 133 186 167"/>
<path stroke-width="11.556701030927835" stroke="black" d="M 169 86 179 119"/>
<path stroke-width="0.5" stroke="black" d="M 179 119 295 117"/>
<path stroke-width="0.5" stroke="black" d="M 179 119 176 226"/>
<path stroke-width="0.5" stroke="black" d="M 179 119 236 221"/>
<path stroke-width="0.5" stroke="black" d="M 179 119 283 208"/>
<path stroke-width="0.5" stroke="black" d="M 282 133 254 132"/>
<path stroke-width="12.360824742268042" stroke="black" d="M 244 163 188 152"/>
<path stroke-width="0.5" stroke="black" d="M 188 152 295 117"/>
<path stroke-width="0.5" stroke="black" d="M 188 152 176 226"/>
<path stroke-width="0.5" stroke="black" d="M 188 152 226 125"/>
<path stroke-width="0.5" stroke="black" d="M 188 152 186 167"/>
<path stroke-width="13.164948453608247" stroke="black" d="M 233 235 225 207"/>
<path stroke-width="0.5" stroke="black" d="M 225 207 295 117"/>
<path stroke-width="0.5" stroke="black" d="M 225 207 176 226"/>
<path stroke-width="0.5" stroke="black" d="M 225 207 236 221"/>
<path stroke-width="0.5" stroke="black" d="M 225 207 283 208"/>
<path stroke-width="0.5" stroke="black" d="M 188 152 254 132"/>
<path stroke-width="0.5" stroke="black" d="M 225 207 129 189"/>
<path stroke-width="0.5" stroke="black" d="M 225 207 104 171"/>
<path stroke-width="0.5" stroke="black" d="M 225 207 176 114"/>
<path stroke-width="0.5" stroke="black" d="M 225 207 194 124"/>
<path stroke-width="0.5" stroke="black" d="M 225 207 178 213"/>
<path stroke-width="0.5" stroke="black" d="M 225 207 298 160"/>
<path stroke-width="0.5" stroke="black" d="M 225 207 149 136"/>
<path stroke-width="0.5" stroke="black" d="M 225 207 282 133"/>
<path stroke-width="0.5" stroke="black" d="M 225 207 113 193"/>
<path stroke-width="0.5" stroke="black" d="M 188 152 298 186"/>
<path stroke-width="0.5" stroke="black" d="M 188 152 297 153"/>
<path stroke-width="0.5" stroke="black" d="M 188 152 215 202"/>
<path stroke-width="0.5" stroke="black" d="M 188 152 236 221"/>
<path stroke-width="0.5" stroke="black" d="M 188 152 283 208"/>
<path stroke-width="0.5" stroke="black" d="M 188 152 129 189"/>
<path stroke-width="0.5" stroke="black" d="M 188 152 113 193"/>
<path stroke-width="0.5" stroke="black" d="M 188 152 104 171"/>
<path stroke-width="0.5" stroke="black" d="M 188 152 176 114"/>
<path stroke-width="0.5" stroke="black" d="M 188 152 194 124"/>
<path stroke-width="0.5" stroke="black" d="M 188 152 178 213"/>
<path stroke-width="0.5" stroke="black" d="M 188 152 298 160"/>
<path stroke-width="0.5" stroke="black" d="M 188 152 149 136"/>
<path stroke-width="0.5" stroke="black" d="M 188 152 282 133"/>
<path stroke-width="0.5" stroke="black" d="M 188 152 179 119"/>
<path stroke-width="12.360824742268042" stroke="black" d="M 188 152 244 163"/>
<path stroke-width="0.5" stroke="black" d="M 188 152 225 207"/>
<path stroke-width="0.5" stroke="black" d="M 188 152 136 192"/>
<path stroke-width="0.5" stroke="black" d="M 188 152 238 201"/>
<path stroke-width="0.5" stroke="black" d="M 188 152 122 136"/>
<path stroke-width="0.5" stroke="black" d="M 225 207 188 152"/>
<path stroke-width="0.5" stroke="black" d="M 122 136 238 201"/>
<path stroke-width="15.577319587628866" stroke="black" d="M 122 136 78 115"/>
<path stroke-width="0.5" stroke="black" d="M 122 136 215 202"/>
<path stroke-width="0.5" stroke="black" d="M 254 132 122 136"/>
<path stroke-width="0.5" stroke="black" d="M 254 132 215 202"/>
<path stroke-width="0.5" stroke="black" d="M 254 132 297 153"/>
<path stroke-width="0.5" stroke="black" d="M 254 132 298 186"/>
<path stroke-width="18.79381443298969" stroke="black" d="M 254 132 275 109"/>
<path stroke-width="0.5" stroke="black" d="M 254 132 226 125"/>
<path stroke-width="0.5" stroke="black" d="M 254 132 186 167"/>
<path stroke-width="0.5" stroke="black" d="M 254 132 238 201"/>
<path stroke-width="19.195876288659793" stroke="black" d="M 235 100 226 125"/>
<path stroke-width="0.5" stroke="black" d="M 226 125 176 226"/>
<path stroke-width="0.5" stroke="black" d="M 226 125 236 221"/>
<path stroke-width="0.5" stroke="black" d="M 226 125 283 208"/>
<path stroke-width="0.5" stroke="black" d="M 226 125 129 189"/>
<path stroke-width="0.5" stroke="black" d="M 226 125 113 193"/>
<path stroke-width="0.5" stroke="black" d="M 226 125 104 171"/>
<path stroke-width="0.5" stroke="black" d="M 226 125 176 114"/>
<path stroke-width="0.5" stroke="black" d="M 226 125 295 117"/>
<path stroke-width="0.5" stroke="black" d="M 226 125 194 124"/>
<path stroke-width="0.5" stroke="black" d="M 254 132 136 192"/>
<path stroke-width="0.5" stroke="black" d="M 254 132 188 152"/>
<path stroke-width="0.5" stroke="black" d="M 298 186 186 167"/>
<path stroke-width="18.79381443298969" stroke="black" d="M 275 109 254 132"/>
<path stroke-width="0.5" stroke="black" d="M 254 132 295 117"/>
<path stroke-width="0.5" stroke="black" d="M 254 132 176 226"/>
<path stroke-width="0.5" stroke="black" d="M 254 132 236 221"/>
<path stroke-width="0.5" stroke="black" d="M 254 132 283 208"/>
<path stroke-width="0.5" stroke="black" d="M 254 132 129 189"/>
<path stroke-width="0.5" stroke="black" d="M 254 132 225 207"/>
<path stroke-width="0.5" stroke="black" d="M 254 132 113 193"/>
<path stroke-width="0.5" stroke="black" d="M 254 132 176 114"/>
<path stroke-width="0.5" stroke="black" d="M 254 132 194 124"/>
<path stroke-width="0.5" stroke="black" d="M 254 132 178 213"/>
<path stroke-width="0.5" stroke="black" d="M 254 132 298 160"/>
<path stroke-width="0.5" stroke="black" d="M 254 132 149 136"/>
<path stroke-width="0.5" stroke="black" d="M 254 132 282 133"/>
<path stroke-width="0.5" stroke="black" d="M 254 132 179 119"/>
<path stroke-width="0.5" stroke="black" d="M 254 132 104 171"/>
<path stroke-width="0.5" stroke="black" d="M 226 125 178 213"/>
<path stroke-width="0.5" stroke="black" d="M 226 125 298 160"/>
<path stroke-width="0.5" stroke="black" d="M 226 125 149 136"/>
<path stroke-width="0.5" stroke="black" d="M 186 167 176 114"/>
<path stroke-width="0.5" stroke="black" d="M 186 167 194 124"/>
<path stroke-width="0.5" stroke="black" d="M 186 167 178 213"/>
<path stroke-width="0.5" stroke="black" d="M 186 167 298 160"/>
<path stroke-width="0.5" stroke="black" d="M 186 167 149 136"/>
<path stroke-width="0.5" stroke="black" d="M 186 167 282 133"/>
<path stroke-width="0.5" stroke="black" d="M 186 167 179 119"/>
<path stroke-width="0.5" stroke="black" d="M 186 167 104 171"/>
<path stroke-width="0.5" stroke="black" d="M 186 167 188 152"/>
<path stroke-width="0.5" stroke="black" d="M 186 167 136 192"/>
<path stroke-width="0.5" stroke="black" d="M 186 167 238 201"/>
<path stroke-width="0.5" stroke="black" d="M 186 167 122 136"/>
<path stroke-width="0.5" stroke="black" d="M 186 167 215 202"/>
<path stroke-width="0.5" stroke="black" d="M 186 167 297 153"/>
<path stroke-width="0.5" stroke="black" d="M 186 167 298 186"/>
<path stroke-width="0.5" stroke="black" d="M 186 167 254 132"/>
<path stroke-width="0.5" stroke="black" d="M 186 167 225 207"/>
<path stroke-width="0.5" stroke="black" d="M 186 167 113 193"/>
<path stroke-width="0.5" stroke="black" d="M 186 167 129 189"/>
<path stroke-width="0.5" stroke="black" d="M 186 167 283 208"/>
<path stroke-width="0.5" stroke="black" d="M 226 125 282 133"/>
<path stroke-width="0.5" stroke="black" d="M 226 125 179 119"/>
<path stroke-width="0.5" stroke="black" d="M 226 125 188 152"/>
<path stroke-width="0.5" stroke="black" d="M 226 125 225 207"/>
<path stroke-width="0.5" stroke="black" d="M 226 125 136 192"/>
<path stroke-width="0.5" stroke="black" d="M 226 125 238 201"/>
<path stroke-width="0.5" stroke="black" d="M 226 125 122 136"/>
<path stroke-width="0.5" stroke="black" d="M 226 125 215 202"/>
<path stroke-width="0.5" stroke="black" d="M 226 125 297 153"/>
<path stroke-width="0.5" stroke="black" d="M 226 125 298 186"/>
<path stroke-width="0.5" stroke="black" d="M 226 125 254 132"/>
<path stroke-width="19.195876288659793" stroke="black" d="M 226 125 235 100"/>
<path stroke-width="0.5" stroke="black" d="M 226 125 186 167"/>
<path stroke-width="20.0" stroke="black" d="M 162 168 186 167"/>
<path stroke-width="0.5" stroke="black" d="M 186 167 295 117"/>
<path stroke-width="0.5" stroke="black" d="M 186 167 176 226"/>
<path stroke-width="0.5" stroke="black" d="M 186 167 236 221"/>
<path stroke-width="0.5" stroke="black" d="M 298 186 226 125"/>
<path stroke-width="0.5" stroke="black" d="M 298 186 254 132"/>
<path stroke-width="17.989690721649485" stroke="black" d="M 298 186 333 197"/>
<path stroke-width="0.5" stroke="black" d="M 298 186 297 153"/>
<path stroke-width="0.5" stroke="black" d="M 215 202 225 207"/>
<path stroke-width="0.5" stroke="black" d="M 215 202 136 192"/>
<path stroke-width="0.5" stroke="black" d="M 215 202 238 201"/>
<path stroke-width="0.5" stroke="black" d="M 215 202 122 136"/>
<path stroke-width="16.381443298969074" stroke="black" d="M 215 202 219 226"/>
<path stroke-width="0.5" stroke="black" d="M 215 202 297 153"/>
<path stroke-width="0.5" stroke="black" d="M 215 202 298 186"/>
<path stroke-width="0.5" stroke="black" d="M 215 202 188 152"/>
<path stroke-width="0.5" stroke="black" d="M 215 202 254 132"/>
<path stroke-width="0.5" stroke="black" d="M 215 202 186 167"/>
<path stroke-width="17.185567010309278" stroke="black" d="M 339 142 297 153"/>
<path stroke-width="0.5" stroke="black" d="M 297 153 295 117"/>
<path stroke-width="0.5" stroke="black" d="M 297 153 176 226"/>
<path stroke-width="0.5" stroke="black" d="M 297 153 236 221"/>
<path stroke-width="0.5" stroke="black" d="M 297 153 283 208"/>
<path stroke-width="0.5" stroke="black" d="M 297 153 129 189"/>
<path stroke-width="0.5" stroke="black" d="M 215 202 226 125"/>
<path stroke-width="0.5" stroke="black" d="M 215 202 179 119"/>
<path stroke-width="0.5" stroke="black" d="M 215 202 282 133"/>
<path stroke-width="0.5" stroke="black" d="M 215 202 149 136"/>
<path stroke-width="0.5" stroke="black" d="M 122 136 297 153"/>
<path stroke-width="0.5" stroke="black" d="M 122 136 298 186"/>
<path stroke-width="0.5" stroke="black" d="M 122 136 254 132"/>
<path stroke-width="0.5" stroke="black" d="M 122 136 226 125"/>
<path stroke-width="0.5" stroke="black" d="M 122 136 186 167"/>
<path stroke-width="16.381443298969074" stroke="black" d="M 219 226 215 202"/>
<path stroke-width="0.5" stroke="black" d="M 215 202 295 117"/>
<path stroke-width="0.5" stroke="black" d="M 215 202 176 226"/>
<path stroke-width="0.5" stroke="black" d="M 215 202 236 221"/>
<path stroke-width="0.5" stroke="black" d="M 215 202 283 208"/>
<path stroke-width="0.5" stroke="black" d="M 215 202 129 189"/>
<path stroke-width="0.5" stroke="black" d="M 215 202 113 193"/>
<path stroke-width="0.5" stroke="black" d="M 215 202 104 171"/>
<path stroke-width="0.5" stroke="black" d="M 215 202 176 114"/>
<path stroke-width="0.5" stroke="black" d="M 215 202 194 124"/>
<path stroke-width="0.5" stroke="black" d="M 215 202 178 213"/>
<path stroke-width="0.5" stroke="black" d="M 215 202 298 160"/>
<path stroke-width="0.5" stroke="black" d="M 297 153 113 193"/>
<path stroke-width="0.5" stroke="black" d="M 282 133 179 119"/>
<path stroke-width="0.5" stroke="black" d="M 297 153 104 171"/>
<path stroke-width="0.5" stroke="black" d="M 297 153 194 124"/>
<path stroke-width="0.5" stroke="black" d="M 298 186 129 189"/>
<path stroke-width="0.5" stroke="black" d="M 298 186 113 193"/>
<path stroke-width="0.5" stroke="black" d="M 298 186 104 171"/>
<path stroke-width="0.5" stroke="black" d="M 298 186 176 114"/>
<path stroke-width="0.5" stroke="black" d="M 298 186 194 124"/>
<path stroke-width="0.5" stroke="black" d="M 298 186 178 213"/>
<path stroke-width="0.5" stroke="black" d="M 298 186 298 160"/>
<path stroke-width="0.5" stroke="black" d="M 298 186 283 208"/>
<path stroke-width="0.5" stroke="black" d="M 298 186 149 136"/>
<path stroke-width="0.5" stroke="black" d="M 298 186 179 119"/>
<path stroke-width="0.5" stroke="black" d="M 298 186 188 152"/>
<path stroke-width="0.5" stroke="black" d="M 298 186 225 207"/>
<path stroke-width="0.5" stroke="black" d="M 298 186 136 192"/>
<path stroke-width="0.5" stroke="black" d="M 298 186 238 201"/>
<path stroke-width="0.5" stroke="black" d="M 298 186 122 136"/>
<path stroke-width="0.5" stroke="black" d="M 298 186 215 202"/>
<path stroke-width="0.5" stroke="black" d="M 298 186 282 133"/>
<path stroke-width="0.5" stroke="black" d="M 298 186 236 221"/>
<path stroke-width="0.5" stroke="black" d="M 298 186 176 226"/>
<path stroke-width="0.5" stroke="black" d="M 298 186 295 117"/>
<path stroke-width="0.5" stroke="black" d="M 297 153 178 213"/>
<path stroke-width="0.5" stroke="black" d="M 297 153 298 160"/>
<path stroke-width="0.5" stroke="black" d="M 297 153 149 136"/>
<path stroke-width="0.5" stroke="black" d="M 297 153 282 133"/>
<path stroke-width="0.5" stroke="black" d="M 297 153 179 119"/>
<path stroke-width="0.5" stroke="black" d="M 297 153 188 152"/>
<path stroke-width="0.5" stroke="black" d="M 297 153 225 207"/>
<path stroke-width="0.5" stroke="black" d="M 297 153 136 192"/>
<path stroke-width="0.5" stroke="black" d="M 297 153 238 201"/>
<path stroke-width="0.5" stroke="black" d="M 297 153 122 136"/>
<path stroke-width="0.5" stroke="black" d="M 297 153 215 202"/>
<path stroke-width="17.185567010309278" stroke="black" d="M 297 153 339 142"/>
<path stroke-width="0.5" stroke="black" d="M 297 153 298 186"/>
<path stroke-width="0.5" stroke="black" d="M 297 153 254 132"/>
<path stroke-width="0.5" stroke="black" d="M 297 153 226 125"/>
<path stroke-width="0.5" stroke="black" d="M 297 153 186 167"/>
<path stroke-width="17.989690721649485" stroke="black" d="M 333 197 298 186"/>
<path stroke-width="0.5" stroke="black" d="M 297 153 176 114"/>
<path stroke-width="10.75257731958763" stroke="black" d="M 282 133 326 106"/>
<path stroke-width="0.5" stroke="black" d="M 282 133 149 136"/>
<path stroke-width="0.5" stroke="black" d="M 282 133 298 160"/>
<path stroke-width="0.5" stroke="black" d="M 283 208 186 167"/>
<path stroke-width="4.31958762886598" stroke="black" d="M 51 224 129 189"/>
<path stroke-width="0.5" stroke="black" d="M 129 189 295 117"/>
<path stroke-width="0.5" stroke="black" d="M 129 189 176 226"/>
<path stroke-width="0.5" stroke="black" d="M 129 189 236 221"/>
<path stroke-width="0.5" stroke="black" d="M 129 189 283 208"/>
<path stroke-width="4.31958762886598" stroke="black" d="M 129 189 51 224"/>
<path stroke-width="0.5" stroke="black" d="M 283 208 226 125"/>
<path stroke-width="0.5" stroke="black" d="M 129 189 113 193"/>
<path stroke-width="0.5" stroke="black" d="M 129 189 176 114"/>
<path stroke-width="0.5" stroke="black" d="M 129 189 194 124"/>
<path stroke-width="0.5" stroke="black" d="M 129 189 178 213"/>
<path stroke-width="0.5" stroke="black" d="M 129 189 298 160"/>
<path stroke-width="0.5" stroke="black" d="M 129 189 149 136"/>
<path stroke-width="0.5" stroke="black" d="M 129 189 282 133"/>
<path stroke-width="0.5" stroke="black" d="M 129 189 179 119"/>
<path stroke-width="0.5" stroke="black" d="M 129 189 104 171"/>
<path stroke-width="0.5" stroke="black" d="M 129 189 188 152"/>
<path stroke-width="0.5" stroke="black" d="M 283 208 254 132"/>
<path stroke-width="0.5" stroke="black" d="M 283 208 297 153"/>
<path stroke-width="0.5" stroke="black" d="M 283 208 129 189"/>
<path stroke-width="0.5" stroke="black" d="M 283 208 113 193"/>
<path stroke-width="0.5" stroke="black" d="M 283 208 104 171"/>
<path stroke-width="0.5" stroke="black" d="M 283 208 176 114"/>
<path stroke-width="0.5" stroke="black" d="M 283 208 194 124"/>
<path stroke-width="0.5" stroke="black" d="M 283 208 178 213"/>
<path stroke-width="0.5" stroke="black" d="M 283 208 298 160"/>
<path stroke-width="0.5" stroke="black" d="M 283 208 298 186"/>
<path stroke-width="0.5" stroke="black" d="M 283 208 149 136"/>
<path stroke-width="0.5" stroke="black" d="M 283 208 179 119"/>
<path stroke-width="0.5" stroke="black" d="M 283 208 188 152"/>
<path stroke-width="0.5" stroke="black" d="M 283 208 225 207"/>
<path stroke-width="0.5" stroke="black" d="M 283 208 136 192"/>
<path stroke-width="0.5" stroke="black" d="M 283 208 238 201"/>
<path stroke-width="0.5" stroke="black" d="M 283 208 122 136"/>
<path stroke-width="0.5" stroke="black" d="M 283 208 215 202"/>
<path stroke-width="0.5" stroke="black" d="M 283 208 282 133"/>
<path stroke-width="0.5" stroke="black" d="M 129 189 225 207"/>
<path stroke-width="0.5" stroke="black" d="M 129 189 136 192"/>
<path stroke-width="0.5" stroke="black" d="M 129 189 238 201"/>
<path stroke-width="0.5" stroke="black" d="M 113 193 179 119"/>
<path stroke-width="0.5" stroke="black" d="M 113 193 188 152"/>
<path stroke-width="0.5" stroke="black" d="M 113 193 225 207"/>
<path stroke-width="0.5" stroke="black" d="M 113 193 136 192"/>
<path stroke-width="0.5" stroke="black" d="M 113 193 238 201"/>
<path stroke-width="0.5" stroke="black" d="M 113 193 122 136"/>
<path stroke-width="0.5" stroke="black" d="M 113 193 215 202"/>
<path stroke-width="0.5" stroke="black" d="M 113 193 282 133"/>
<path stroke-width="0.5" stroke="black" d="M 113 193 297 153"/>
<path stroke-width="0.5" stroke="black" d="M 113 193 254 132"/>
<path stroke-width="0.5" stroke="black" d="M 113 193 226 125"/>
<path stroke-width="0.5" stroke="black" d="M 113 193 186 167"/>
<path stroke-width="5.927835051546392" stroke="black" d="M 20 185 104 171"/>
<path stroke-width="0.5" stroke="black" d="M 104 171 295 117"/>
<path stroke-width="0.5" stroke="black" d="M 104 171 176 226"/>
<path stroke-width="0.5" stroke="black" d="M 104 171 236 221"/>
<path stroke-width="0.5" stroke="black" d="M 113 193 298 186"/>
<path stroke-width="0.5" stroke="black" d="M 113 193 149 136"/>
<path stroke-width="0.5" stroke="black" d="M 113 193 298 160"/>
<path stroke-width="0.5" stroke="black" d="M 113 193 178 213"/>
<path stroke-width="0.5" stroke="black" d="M 129 189 122 136"/>
<path stroke-width="0.5" stroke="black" d="M 129 189 215 202"/>
<path stroke-width="0.5" stroke="black" d="M 129 189 297 153"/>
<path stroke-width="0.5" stroke="black" d="M 129 189 298 186"/>
<path stroke-width="0.5" stroke="black" d="M 129 189 254 132"/>
<path stroke-width="0.5" stroke="black" d="M 129 189 226 125"/>
<path stroke-width="0.5" stroke="black" d="M 129 189 186 167"/>
<path stroke-width="5.123711340206185" stroke="black" d="M 33 225 113 193"/>
<path stroke-width="0.5" stroke="black" d="M 113 193 295 117"/>
<path stroke-width="0.5" stroke="black" d="M 113 193 176 226"/>
<path stroke-width="0.5" stroke="black" d="M 113 193 236 221"/>
<path stroke-width="0.5" stroke="black" d="M 113 193 283 208"/>
<path stroke-width="0.5" stroke="black" d="M 113 193 129 189"/>
<path stroke-width="5.123711340206185" stroke="black" d="M 113 193 33 225"/>
<path stroke-width="0.5" stroke="black" d="M 113 193 104 171"/>
<path stroke-width="0.5" stroke="black" d="M 113 193 176 114"/>
<path stroke-width="0.5" stroke="black" d="M 113 193 194 124"/>
<path stroke-width="3.515463917525773" stroke="black" d="M 283 208 332 261"/>
<path stroke-width="0.5" stroke="black" d="M 283 208 236 221"/>
<path stroke-width="0.5" stroke="black" d="M 283 208 176 226"/>
<path stroke-width="0.5" stroke="black" d="M 283 208 295 117"/>
<path stroke-width="0.5" stroke="black" d="M 295 117 298 186"/>
<path stroke-width="0.5" stroke="black" d="M 295 117 254 132"/>
<path stroke-width="0.5" stroke="black" d="M 295 117 226 125"/>
<path stroke-width="0.5" stroke="black" d="M 295 117 186 167"/>
<path stroke-width="1.907216494845361" stroke="black" d="M 157 320 176 226"/>
<path stroke-width="0.5" stroke="black" d="M 176 226 295 117"/>
<path stroke-width="1.907216494845361" stroke="black" d="M 176 226 157 320"/>
<path stroke-width="0.5" stroke="black" d="M 295 117 297 153"/>
<path stroke-width="0.5" stroke="black" d="M 176 226 236 221"/>
<path stroke-width="0.5" stroke="black" d="M 176 226 129 189"/>
<path stroke-width="0.5" stroke="black" d="M 176 226 113 193"/>
<path stroke-width="0.5" stroke="black" d="M 176 226 104 171"/>
<path stroke-width="0.5" stroke="black" d="M 176 226 176 114"/>
<path stroke-width="0.5" stroke="black" d="M 176 226 194 124"/>
<path stroke-width="0.5" stroke="black" d="M 176 226 178 213"/>
<path stroke-width="0.5" stroke="black" d="M 176 226 298 160"/>
<path stroke-width="0.5" stroke="black" d="M 176 226 283 208"/>
<path stroke-width="0.5" stroke="black" d="M 295 117 215 202"/>
<path stroke-width="0.5" stroke="black" d="M 295 117 122 136"/>
<path stroke-width="0.5" stroke="black" d="M 295 117 238 201"/>
<path stroke-width="1.5051546391752577" stroke="black" d="M 295 117 420 20"/>
<path stroke-width="0.5" stroke="black" d="M 295 117 176 226"/>
<path stroke-width="0.5" stroke="black" d="M 295 117 236 221"/>
<path stroke-width="0.5" stroke="black" d="M 295 117 283 208"/>
<path stroke-width="0.5" stroke="black" d="M 295 117 129 189"/>
<path stroke-width="0.5" stroke="black" d="M 295 117 113 193"/>
<path stroke-width="0.5" stroke="black" d="M 295 117 104 171"/>
<path stroke-width="0.5" stroke="black" d="M 295 117 176 114"/>
<path stroke-width="0.5" stroke="black" d="M 295 117 194 124"/>
<path stroke-width="0.5" stroke="black" d="M 295 117 178 213"/>
<path stroke-width="0.5" stroke="black" d="M 295 117 298 160"/>
<path stroke-width="0.5" stroke="black" d="M 295 117 149 136"/>
<path stroke-width="0.5" stroke="black" d="M 295 117 282 133"/>
<path stroke-width="0.5" stroke="black" d="M 295 117 179 119"/>
<path stroke-width="0.5" stroke="black" d="M 295 117 188 152"/>
<path stroke-width="0.5" stroke="black" d="M 295 117 225 207"/>
<path stroke-width="0.5" stroke="black" d="M 295 117 136 192"/>
<path stroke-width="0.5" stroke="black" d="M 176 226 149 136"/>
<path stroke-width="0.5" stroke="black" d="M 104 171 283 208"/>
<path stroke-width="0.5" stroke="black" d="M 176 226 282 133"/>
<path stroke-width="0.5" stroke="black" d="M 176 226 188 152"/>
<path stroke-width="0.5" stroke="black" d="M 236 221 298 160"/>
<path stroke-width="0.5" stroke="black" d="M 236 221 149 136"/>
<path stroke-width="0.5" stroke="black" d="M 236 221 282 133"/>
<path stroke-width="0.5" stroke="black" d="M 236 221 179 119"/>
<path stroke-width="0.5" stroke="black" d="M 236 221 188 152"/>
<path stroke-width="0.5" stroke="black" d="M 236 221 225 207"/>
<path stroke-width="0.5" stroke="black" d="M 236 221 136 192"/>
<path stroke-width="0.5" stroke="black" d="M 236 221 178 213"/>
<path stroke-width="0.5" stroke="black" d="M 236 221 238 201"/>
<path stroke-width="0.5" stroke="black" d="M 236 221 215 202"/>
<path stroke-width="0.5" stroke="black" d="M 236 221 297 153"/>
<path stroke-width="0.5" stroke="black" d="M 236 221 298 186"/>
<path stroke-width="0.5" stroke="black" d="M 236 221 254 132"/>
<path stroke-width="0.5" stroke="black" d="M 236 221 226 125"/>
<path stroke-width="0.5" stroke="black" d="M 236 221 186 167"/>
<path stroke-width="3.515463917525773" stroke="black" d="M 332 261 283 208"/>
<path stroke-width="0.5" stroke="black" d="M 236 221 122 136"/>
<path stroke-width="0.5" stroke="black" d="M 236 221 194 124"/>
<path stroke-width="0.5" stroke="black" d="M 236 221 176 114"/>
<path stroke-width="0.5" stroke="black" d="M 236 221 104 171"/>
<path stroke-width="0.5" stroke="black" d="M 176 226 225 207"/>
<path stroke-width="0.5" stroke="black" d="M 176 226 136 192"/>
<path stroke-width="0.5" stroke="black" d="M 176 226 238 201"/>
<path stroke-width="0.5" stroke="black" d="M 176 226 122 136"/>
<path stroke-width="0.5" stroke="black" d="M 176 226 215 202"/>
<path stroke-width="0.5" stroke="black" d="M 176 226 297 153"/>
<path stroke-width="0.5" stroke="black" d="M 176 226 298 186"/>
<path stroke-width="0.5" stroke="black" d="M 176 226 254 132"/>
<path stroke-width="0.5" stroke="black" d="M 176 226 226 125"/>
<path stroke-width="0.5" stroke="black" d="M 176 226 186 167"/>
<path stroke-width="2.711340206185567" stroke="black" d="M 246 293 236 221"/>
<path stroke-width="0.5" stroke="black" d="M 236 221 295 117"/>
<path stroke-width="0.5" stroke="black" d="M 236 221 176 226"/>
<path stroke-width="2.711340206185567" stroke="black" d="M 236 221 246 293"/>
<path stroke-width="0.5" stroke="black" d="M 236 221 283 208"/>
<path stroke-width="0.5" stroke="black" d="M 236 221 129 189"/>
<path stroke-width="0.5" stroke="black" d="M 236 221 113 193"/>
<path stroke-width="0.5" stroke="black" d="M 176 226 179 119"/>
<path stroke-width="0.5" stroke="black" d="M 186 167 226 125"/>
<path stroke-width="0.5" stroke="black" d="M 104 171 129 189"/>
<path stroke-width="5.927835051546392" stroke="black" d="M 104 171 20 185"/>
<path stroke-width="0.5" stroke="black" d="M 298 160 113 193"/>
<path stroke-width="0.5" stroke="black" d="M 298 160 104 171"/>
<path stroke-width="0.5" stroke="black" d="M 298 160 176 114"/>
<path stroke-width="0.5" stroke="black" d="M 298 160 194 124"/>
<path stroke-width="0.5" stroke="black" d="M 298 160 178 213"/>
<path stroke-width="9.144329896907216" stroke="black" d="M 298 160 361 151"/>
<path stroke-width="0.5" stroke="black" d="M 298 160 149 136"/>
<path stroke-width="0.5" stroke="black" d="M 298 160 129 189"/>
<path stroke-width="0.5" stroke="black" d="M 298 160 282 133"/>
<path stroke-width="0.5" stroke="black" d="M 298 160 188 152"/>
<path stroke-width="0.5" stroke="black" d="M 298 160 225 207"/>
<path stroke-width="0.5" stroke="black" d="M 298 160 136 192"/>
<path stroke-width="0.5" stroke="black" d="M 298 160 238 201"/>
<path stroke-width="0.5" stroke="black" d="M 298 160 122 136"/>
<path stroke-width="0.5" stroke="black" d="M 298 160 215 202"/>
<path stroke-width="0.5" stroke="black" d="M 298 160 297 153"/>
<path stroke-width="0.5" stroke="black" d="M 298 160 179 119"/>
<path stroke-width="0.5" stroke="black" d="M 298 160 298 186"/>
<path stroke-width="0.5" stroke="black" d="M 298 160 283 208"/>
<path stroke-width="0.5" stroke="black" d="M 298 160 176 226"/>
<path stroke-width="0.5" stroke="black" d="M 178 213 149 136"/>
<path stroke-width="0.5" stroke="black" d="M 178 213 282 133"/>
<path stroke-width="0.5" stroke="black" d="M 178 213 179 119"/>
<path stroke-width="0.5" stroke="black" d="M 178 213 188 152"/>
<path stroke-width="0.5" stroke="black" d="M 178 213 225 207"/>
<path stroke-width="0.5" stroke="black" d="M 178 213 136 192"/>
<path stroke-width="0.5" stroke="black" d="M 178 213 238 201"/>
<path stroke-width="0.5" stroke="black" d="M 298 160 236 221"/>
<path stroke-width="0.5" stroke="black" d="M 178 213 122 136"/>
<path stroke-width="0.5" stroke="black" d="M 178 213 297 153"/>
<path stroke-width="0.5" stroke="black" d="M 178 213 298 186"/>
<path stroke-width="0.5" stroke="black" d="M 178 213 254 132"/>
<path stroke-width="0.5" stroke="black" d="M 178 213 226 125"/>
<path stroke-width="0.5" stroke="black" d="M 178 213 186 167"/>
<path stroke-width="9.144329896907216" stroke="black" d="M 361 151 298 160"/>
<path stroke-width="0.5" stroke="black" d="M 298 160 295 117"/>
<path stroke-width="0.5" stroke="black" d="M 178 213 215 202"/>
<path stroke-width="0.5" stroke="black" d="M 298 160 254 132"/>
<path stroke-width="0.5" stroke="black" d="M 298 160 226 125"/>
<path stroke-width="0.5" stroke="black" d="M 298 160 186 167"/>
<path stroke-width="0.5" stroke="black" d="M 149 136 297 153"/>
<path stroke-width="0.5" stroke="black" d="M 149 136 298 186"/>
<path stroke-width="0.5" stroke="black" d="M 149 136 254 132"/>
<path stroke-width="0.5" stroke="black" d="M 149 136 226 125"/>
<path stroke-width="0.5" stroke="black" d="M 149 136 186 167"/>
<path stroke-width="10.75257731958763" stroke="black" d="M 326 106 282 133"/>
<path stroke-width="0.5" stroke="black" d="M 282 133 295 117"/>
<path stroke-width="0.5" stroke="black" d="M 149 136 215 202"/>
<path stroke-width="0.5" stroke="black" d="M 282 133 176 226"/>
<path stroke-width="0.5" stroke="black" d="M 282 133 283 208"/>
<path stroke-width="0.5" stroke="black" d="M 282 133 129 189"/>
<path stroke-width="0.5" stroke="black" d="M 282 133 113 193"/>
<path stroke-width="0.5" stroke="black" d="M 282 133 104 171"/>
<path stroke-width="0.5" stroke="black" d="M 282 133 176 114"/>
<path stroke-width="0.5" stroke="black" d="M 282 133 194 124"/>
<path stroke-width="0.5" stroke="black" d="M 282 133 178 213"/>
<path stroke-width="0.5" stroke="black" d="M 282 133 236 221"/>
<path stroke-width="0.5" stroke="black" d="M 149 136 122 136"/>
<path stroke-width="0.5" stroke="black" d="M 149 136 238 201"/>
<path stroke-width="0.5" stroke="black" d="M 149 136 136 192"/>
<path stroke-width="9.948453608247423" stroke="black" d="M 120 106 149 136"/>
<path stroke-width="0.5" stroke="black" d="M 149 136 295 117"/>
<path stroke-width="0.5" stroke="black" d="M 149 136 176 226"/>
<path stroke-width="0.5" stroke="black" d="M 149 136 236 221"/>
<path stroke-width="0.5" stroke="black" d="M 149 136 283 208"/>
<path stroke-width="0.5" stroke="black" d="M 149 136 129 189"/>
<path stroke-width="0.5" stroke="black" d="M 149 136 113 193"/>
<path stroke-width="0.5" stroke="black" d="M 149 136 104 171"/>
<path stroke-width="0.5" stroke="black" d="M 149 136 176 114"/>
<path stroke-width="0.5" stroke="black" d="M 149 136 194 124"/>
<path stroke-width="0.5" stroke="black" d="M 149 136 178 213"/>
<path stroke-width="0.5" stroke="black" d="M 149 136 298 160"/>
<path stroke-width="9.948453608247423" stroke="black" d="M 149 136 120 106"/>
<path stroke-width="0.5" stroke="black" d="M 149 136 282 133"/>
<path stroke-width="0.5" stroke="black" d="M 149 136 179 119"/>
<path stroke-width="0.5" stroke="black" d="M 149 136 188 152"/>
<path stroke-width="0.5" stroke="black" d="M 149 136 225 207"/>
<path stroke-width="0.5" stroke="black" d="M 178 213 298 160"/>
<path stroke-width="8.340206185567009" stroke="black" d="M 178 213 168 251"/>
<path stroke-width="0.5" stroke="black" d="M 178 213 194 124"/>
<path stroke-width="0.5" stroke="black" d="M 178 213 176 114"/>
<path stroke-width="0.5" stroke="black" d="M 176 114 236 221"/>
<path stroke-width="0.5" stroke="black" d="M 176 114 283 208"/>
<path stroke-width="0.5" stroke="black" d="M 176 114 129 189"/>
<path stroke-width="0.5" stroke="black" d="M 176 114 113 193"/>
<path stroke-width="0.5" stroke="black" d="M 176 114 104 171"/>
<path stroke-width="6.731958762886598" stroke="black" d="M 176 114 159 68"/>
<path stroke-width="0.5" stroke="black" d="M 176 114 194 124"/>
<path stroke-width="0.5" stroke="black" d="M 176 114 176 226"/>
<path stroke-width="0.5" stroke="black" d="M 176 114 178 213"/>
<path stroke-width="0.5" stroke="black" d="M 176 114 149 136"/>
<path stroke-width="0.5" stroke="black" d="M 176 114 282 133"/>
<path stroke-width="0.5" stroke="black" d="M 176 114 179 119"/>
<path stroke-width="0.5" stroke="black" d="M 176 114 188 152"/>
<path stroke-width="0.5" stroke="black" d="M 176 114 225 207"/>
<path stroke-width="0.5" stroke="black" d="M 176 114 136 192"/>
<path stroke-width="0.5" stroke="black" d="M 176 114 238 201"/>
<path stroke-width="0.5" stroke="black" d="M 176 114 298 160"/>
<path stroke-width="0.5" stroke="black" d="M 176 114 295 117"/>
<path stroke-width="6.731958762886598" stroke="black" d="M 159 68 176 114"/>
<path stroke-width="0.5" stroke="black" d="M 104 171 186 167"/>
<path stroke-width="0.5" stroke="black" d="M 104 171 176 114"/>
<path stroke-width="0.5" stroke="black" d="M 104 171 194 124"/>
<path stroke-width="0.5" stroke="black" d="M 104 171 178 213"/>
<path stroke-width="0.5" stroke="black" d="M 104 171 298 160"/>
<path stroke-width="0.5" stroke="black" d="M 104 171 149 136"/>
<path stroke-width="0.5" stroke="black" d="M 104 171 282 133"/>
<path stroke-width="0.5" stroke="black" d="M 104 171 179 119"/>
<path stroke-width="0.5" stroke="black" d="M 104 171 188 152"/>
<path stroke-width="0.5" stroke="black" d="M 104 171 225 207"/>
<path stroke-width="0.5" stroke="black" d="M 104 171 136 192"/>
<path stroke-width="0.5" stroke="black" d="M 104 171 238 201"/>
<path stroke-width="0.5" stroke="black" d="M 104 171 122 136"/>
<path stroke-width="0.5" stroke="black" d="M 104 171 215 202"/>
<path stroke-width="0.5" stroke="black" d="M 104 171 297 153"/>
<path stroke-width="0.5" stroke="black" d="M 104 171 298 186"/>
<path stroke-width="0.5" stroke="black" d="M 104 171 254 132"/>
<path stroke-width="0.5" stroke="black" d="M 104 171 226 125"/>
<path stroke-width="0.5" stroke="black" d="M 176 114 122 136"/>
<path stroke-width="0.5" stroke="black" d="M 104 171 113 193"/>
<path stroke-width="0.5" stroke="black" d="M 176 114 215 202"/>
<path stroke-width="0.5" stroke="black" d="M 176 114 298 186"/>
<path stroke-width="0.5" stroke="black" d="M 194 124 238 201"/>
<path stroke-width="0.5" stroke="black" d="M 194 124 122 136"/>
<path stroke-width="0.5" stroke="black" d="M 194 124 215 202"/>
<path stroke-width="0.5" stroke="black" d="M 194 124 297 153"/>
<path stroke-width="0.5" stroke="black" d="M 194 124 298 186"/>
<path stroke-width="0.5" stroke="black" d="M 194 124 254 132"/>
<path stroke-width="0.5" stroke="black" d="M 194 124 226 125"/>
<path stroke-width="0.5" stroke="black" d="M 194 124 136 192"/>
<path stroke-width="0.5" stroke="black" d="M 194 124 186 167"/>
<path stroke-width="0.5" stroke="black" d="M 178 213 295 117"/>
<path stroke-width="0.5" stroke="black" d="M 178 213 176 226"/>
<path stroke-width="0.5" stroke="black" d="M 178 213 236 221"/>
<path stroke-width="0.5" stroke="black" d="M 178 213 283 208"/>
<path stroke-width="0.5" stroke="black" d="M 178 213 129 189"/>
<path stroke-width="0.5" stroke="black" d="M 178 213 113 193"/>
<path stroke-width="0.5" stroke="black" d="M 178 213 104 171"/>
<path stroke-width="8.340206185567009" stroke="black" d="M 168 251 178 213"/>
<path stroke-width="0.5" stroke="black" d="M 194 124 225 207"/>
<path stroke-width="0.5" stroke="black" d="M 194 124 188 152"/>
<path stroke-width="0.5" stroke="black" d="M 194 124 179 119"/>
<path stroke-width="0.5" stroke="black" d="M 176 114 254 132"/>
<path stroke-width="0.5" stroke="black" d="M 176 114 226 125"/>
<path stroke-width="0.5" stroke="black" d="M 176 114 186 167"/>
<path stroke-width="7.536082474226804" stroke="black" d="M 190 83 194 124"/>
<path stroke-width="0.5" stroke="black" d="M 194 124 295 117"/>
<path stroke-width="0.5" stroke="black" d="M 194 124 176 226"/>
<path stroke-width="0.5" stroke="black" d="M 194 124 236 221"/>
<path stroke-width="0.5" stroke="black" d="M 194 124 283 208"/>
<path stroke-width="0.5" stroke="black" d="M 194 124 129 189"/>
<path stroke-width="0.5" stroke="black" d="M 194 124 113 193"/>
<path stroke-width="0.5" stroke="black" d="M 194 124 104 171"/>
<path stroke-width="0.5" stroke="black" d="M 194 124 176 114"/>
<path stroke-width="7.536082474226804" stroke="black" d="M 194 124 190 83"/>
<path stroke-width="0.5" stroke="black" d="M 194 124 178 213"/>
<path stroke-width="0.5" stroke="black" d="M 194 124 298 160"/>
<path stroke-width="0.5" stroke="black" d="M 194 124 149 136"/>
<path stroke-width="0.5" stroke="black" d="M 194 124 282 133"/>
<path stroke-width="0.5" stroke="black" d="M 176 114 297 153"/>
<path stroke-width="20.0" stroke="black" d="M 186 167 162 168"/>
<circle cx="420" cy="20" r="7.0" style="fill:blue;stroke:black;stroke-width:1.0"/>
<circle cx="295" cy="117" r="7.0" style="fill:blue;stroke:black;stroke-width:1.0"/>
<circle cx="157" cy="320" r="7.0" style="fill:blue;stroke:black;stroke-width:1.0"/>
<circle cx="176" cy="226" r="7.0" style="fill:blue;stroke:black;stroke-width:1.0"/>
<circle cx="246" cy="293" r="7.0" style="fill:blue;stroke:black;stroke-width:1.0"/>
<circle cx="236" cy="221" r="7.0" style="fill:blue;stroke:black;stroke-width:1.0"/>
<circle cx="332" cy="261" r="7.0" style="fill:blue;stroke:black;stroke-width:1.0"/>
<circle cx="283" cy="208" r="7.0" style="fill:blue;stroke:black;stroke-width:1.0"/>
<circle cx="51" cy="224" r="7.0" style="fill:blue;stroke:black;stroke-width:1.0"/>
<circle cx="129" cy="189" r="7.0" style="fill:blue;stroke:black;stroke-width:1.0"/>
<circle cx="33" cy="225" r="7.0" style="fill:aqua;stroke:black;stroke-width:1.0"/>
<circle cx="113" cy="193" r="7.0" style="fill:aqua;stroke:black;stroke-width:1.0"/>
<circle cx="20" cy="185" r="7.0" style="fill:olive;stroke:black;stroke-width:1.0"/>
<circle cx="104" cy="171" r="7.0" style="fill:olive;stroke:black;stroke-width:1.0"/>
<circle cx="159" cy="68" r="7.0" style="fill:fuchsia;stroke:black;stroke-width:1.0"/>
<circle cx="176" cy="114" r="7.0" style="fill:fuchsia;stroke:black;stroke-width:1.0"/>
<circle cx="190" cy="83" r="7.0" style="fill:yellow;stroke:black;stroke-width:1.0"/>
<circle cx="194" cy="124" r="7.0" style="fill:yellow;stroke:black;stroke-width:1.0"/>
<circle cx="168" cy="251" r="7.0" style="fill:purple;stroke:black;stroke-width:1.0"/>
<circle cx="178" cy="213" r="7.0" style="fill:purple;stroke:black;stroke-width:1.0"/>
<circle cx="361" cy="151" r="7.0" style="fill:orange;stroke:black;stroke-width:1.0"/>
<circle cx="298" cy="160" r="7.0" style="fill:orange;stroke:black;stroke-width:1.0"/>
<circle cx="120" cy="106" r="7.0" style="fill:green;stroke:black;stroke-width:1.0"/>
<circle cx="149" cy="136" r="7.0" style="fill:green;stroke:black;stroke-width:1.0"/>
<circle cx="326" cy="106" r="7.0" style="fill:red;stroke:black;stroke-width:1.0"/>
<circle cx="282" cy="133" r="7.0" style="fill:red;stroke:black;stroke-width:1.0"/>
<circle cx="169" cy="86" r="7.0" style="fill:brown;stroke:black;stroke-width:1.0"/>
<circle cx="179" cy="119" r="7.0" style="fill:brown;stroke:black;stroke-width:1.0"/>
<circle cx="244" cy="163" r="7.0" style="fill:blue;stroke:black;stroke-width:1.0"/>
<circle cx="188" cy="152" r="7.0" style="fill:blue;stroke:black;stroke-width:1.0"/>
<circle cx="233" cy="235" r="7.0" style="fill:aqua;stroke:black;stroke-width:1.0"/>
<circle cx="225" cy="207" r="7.0" style="fill:aqua;stroke:black;stroke-width:1.0"/>
<circle cx="96" cy="211" r="7.0" style="fill:olive;stroke:black;stroke-width:1.0"/>
<circle cx="136" cy="192" r="7.0" style="fill:olive;stroke:black;stroke-width:1.0"/>
<circle cx="255" cy="225" r="7.0" style="fill:fuchsia;stroke:black;stroke-width:1.0"/>
<circle cx="238" cy="201" r="7.0" style="fill:fuchsia;stroke:black;stroke-width:1.0"/>
<circle cx="78" cy="115" r="7.0" style="fill:yellow;stroke:black;stroke-width:1.0"/>
<circle cx="122" cy="136" r="7.0" style="fill:yellow;stroke:black;stroke-width:1.0"/>
<circle cx="219" cy="226" r="7.0" style="fill:purple;stroke:black;stroke-width:1.0"/>
<circle cx="215" cy="202" r="7.0" style="fill:purple;stroke:black;stroke-width:1.0"/>
<circle cx="339" cy="142" r="7.0" style="fill:orange;stroke:black;stroke-width:1.0"/>
<circle cx="297" cy="153" r="7.0" style="fill:orange;stroke:black;stroke-width:1.0"/>
<circle cx="333" cy="197" r="7.0" style="fill:green;stroke:black;stroke-width:1.0"/>
<circle cx="298" cy="186" r="7.0" style="fill:green;stroke:black;stroke-width:1.0"/>
<circle cx="275" cy="109" r="7.0" style="fill:red;stroke:black;stroke-width:1.0"/>
<circle cx="254" cy="132" r="7.0" style="fill:red;stroke:black;stroke-width:1.0"/>
<circle cx="235" cy="100" r="7.0" style="fill:brown;stroke:black;stroke-width:1.0"/>
<circle cx="226" cy="125" r="7.0" style="fill:brown;stroke:black;stroke-width:1.0"/>
<circle cx="162" cy="168" r="7.0" style="fill:blue;stroke:black;stroke-width:1.0"/>
<circle cx="186" cy="167" r="7.0" style="fill:blue;stroke:black;stroke-width:1.0"/>
</svg>
