<svg width="440" height="340" xmlns="http://www.w3.org/2000/svg">
<path stroke-width="1" stroke="black" d="M 142 320 202 204"/>
<path stroke-width="1" stroke="black" d="M 140 113 268 210"/>
<path stroke-width="1" stroke="black" d="M 140 113 211 81"/>
<path stroke-width="1" stroke="black" d="M 140 113 130 167"/>
<path stroke-width="1" stroke="black" d="M 140 113 128 148"/>
<path stroke-width="1" stroke="black" d="M 140 113 303 189"/>
<path stroke-width="1" stroke="black" d="M 140 113 93 88"/>
<path stroke-width="1" stroke="black" d="M 140 113 321 149"/>
<path stroke-width="1" stroke="black" d="M 140 113 260 93"/>
<path stroke-width="1" stroke="black" d="M 140 113 221 218"/>
<path stroke-width="1" stroke="black" d="M 140 113 310 139"/>
<path stroke-width="1" stroke="black" d="M 140 113 172 92"/>
<path stroke-width="1" stroke="black" d="M 140 113 156 186"/>
<path stroke-width="1" stroke="black" d="M 140 113 184 99"/>
<path stroke-width="1" stroke="black" d="M 140 113 143 130"/>
<path stroke-width="1" stroke="black" d="M 378 150 321 149"/>
<path stroke-width="1" stroke="black" d="M 321 149 202 204"/>
<path stroke-width="1" stroke="black" d="M 140 113 222 160"/>
<path stroke-width="1" stroke="black" d="M 321 149 154 178"/>
<path stroke-width="1" stroke="black" d="M 140 113 264 212"/>
<path stroke-width="1" stroke="black" d="M 140 113 308 186"/>
<path stroke-width="1" stroke="black" d="M 303 189 321 149"/>
<path stroke-width="1" stroke="black" d="M 303 189 221 218"/>
<path stroke-width="1" stroke="black" d="M 303 189 222 160"/>
<path stroke-width="1" stroke="black" d="M 303 189 310 139"/>
<path stroke-width="1" stroke="black" d="M 303 189 172 92"/>
<path stroke-width="1" stroke="black" d="M 303 189 156 186"/>
<path stroke-width="1" stroke="black" d="M 303 189 184 99"/>
<path stroke-width="1" stroke="black" d="M 140 113 238 80"/>
<path stroke-width="1" stroke="black" d="M 303 189 143 130"/>
<path stroke-width="1" stroke="black" d="M 140 113 202 204"/>
<path stroke-width="1" stroke="black" d="M 140 113 154 178"/>
<path stroke-width="1" stroke="black" d="M 140 113 185 205"/>
<path stroke-width="1" stroke="black" d="M 140 113 275 92"/>
<path stroke-width="1" stroke="black" d="M 140 113 295 109"/>
<path stroke-width="1" stroke="black" d="M 140 113 323 160"/>
<path stroke-width="1" stroke="black" d="M 140 113 312 115"/>
<path stroke-width="1" stroke="black" d="M 93 88 140 113"/>
<path stroke-width="1" stroke="black" d="M 321 149 185 205"/>
<path stroke-width="1" stroke="black" d="M 321 149 275 92"/>
<path stroke-width="1" stroke="black" d="M 321 149 295 109"/>
<path stroke-width="1" stroke="black" d="M 221 218 202 204"/>
<path stroke-width="1" stroke="black" d="M 221 218 154 178"/>
<path stroke-width="1" stroke="black" d="M 221 218 185 205"/>
<path stroke-width="1" stroke="black" d="M 221 218 275 92"/>
<path stroke-width="1" stroke="black" d="M 221 218 295 109"/>
<path stroke-width="1" stroke="black" d="M 221 218 323 160"/>
<path stroke-width="1" stroke="black" d="M 221 218 312 115"/>
<path stroke-width="1" stroke="black" d="M 215 253 221 218"/>
<path stroke-width="1" stroke="black" d="M 221 218 308 186"/>
<path stroke-width="1" stroke="black" d="M 221 218 264 212"/>
<path stroke-width="1" stroke="black" d="M 221 218 260 93"/>
<path stroke-width="1" stroke="black" d="M 221 218 268 210"/>
<path stroke-width="1" stroke="black" d="M 221 218 211 81"/>
<path stroke-width="1" stroke="black" d="M 221 218 130 167"/>
<path stroke-width="1" stroke="black" d="M 221 218 128 148"/>
<path stroke-width="1" stroke="black" d="M 221 218 303 189"/>
<path stroke-width="1" stroke="black" d="M 221 218 238 80"/>
<path stroke-width="1" stroke="black" d="M 321 149 143 130"/>
<path stroke-width="1" stroke="black" d="M 321 149 184 99"/>
<path stroke-width="1" stroke="black" d="M 321 149 156 186"/>
<path stroke-width="1" stroke="black" d="M 321 149 323 160"/>
<path stroke-width="1" stroke="black" d="M 321 149 312 115"/>
<path stroke-width="1" stroke="black" d="M 321 149 308 186"/>
<path stroke-width="1" stroke="black" d="M 321 149 238 80"/>
<path stroke-width="1" stroke="black" d="M 321 149 264 212"/>
<path stroke-width="1" stroke="black" d="M 321 149 260 93"/>
<path stroke-width="1" stroke="black" d="M 321 149 268 210"/>
<path stroke-width="1" stroke="black" d="M 321 149 211 81"/>
<path stroke-width="1" stroke="black" d="M 321 149 130 167"/>
<path stroke-width="1" stroke="black" d="M 321 149 128 148"/>
<path stroke-width="1" stroke="black" d="M 321 149 303 189"/>
<path stroke-width="1" stroke="black" d="M 321 149 140 113"/>
<path stroke-width="1" stroke="black" d="M 321 149 378 150"/>
<path stroke-width="1" stroke="black" d="M 321 149 221 218"/>
<path stroke-width="1" stroke="black" d="M 321 149 222 160"/>
<path stroke-width="1" stroke="black" d="M 321 149 310 139"/>
<path stroke-width="1" stroke="black" d="M 321 149 172 92"/>
<path stroke-width="1" stroke="black" d="M 303 189 140 113"/>
<path stroke-width="1" stroke="black" d="M 221 218 140 113"/>
<path stroke-width="1" stroke="black" d="M 303 189 346 219"/>
<path stroke-width="1" stroke="black" d="M 303 189 130 167"/>
<path stroke-width="1" stroke="black" d="M 130 167 238 80"/>
<path stroke-width="1" stroke="black" d="M 130 167 264 212"/>
<path stroke-width="1" stroke="black" d="M 130 167 260 93"/>
<path stroke-width="1" stroke="black" d="M 130 167 268 210"/>
<path stroke-width="1" stroke="black" d="M 130 167 211 81"/>
<path stroke-width="1" stroke="black" d="M 130 167 66 182"/>
<path stroke-width="1" stroke="black" d="M 130 167 128 148"/>
<path stroke-width="1" stroke="black" d="M 130 167 308 186"/>
<path stroke-width="1" stroke="black" d="M 130 167 303 189"/>
<path stroke-width="1" stroke="black" d="M 130 167 321 149"/>
<path stroke-width="1" stroke="black" d="M 130 167 221 218"/>
<path stroke-width="1" stroke="black" d="M 130 167 222 160"/>
<path stroke-width="1" stroke="black" d="M 130 167 310 139"/>
<path stroke-width="1" stroke="black" d="M 130 167 172 92"/>
<path stroke-width="1" stroke="black" d="M 130 167 156 186"/>
<path stroke-width="1" stroke="black" d="M 130 167 184 99"/>
<path stroke-width="1" stroke="black" d="M 130 167 140 113"/>
<path stroke-width="1" stroke="black" d="M 130 167 143 130"/>
<path stroke-width="1" stroke="black" d="M 130 167 312 115"/>
<path stroke-width="1" stroke="black" d="M 130 167 295 109"/>
<path stroke-width="1" stroke="black" d="M 211 81 128 148"/>
<path stroke-width="1" stroke="black" d="M 211 81 303 189"/>
<path stroke-width="1" stroke="black" d="M 211 81 140 113"/>
<path stroke-width="1" stroke="black" d="M 211 81 321 149"/>
<path stroke-width="1" stroke="black" d="M 211 81 221 218"/>
<path stroke-width="1" stroke="black" d="M 211 81 222 160"/>
<path stroke-width="1" stroke="black" d="M 211 81 310 139"/>
<path stroke-width="1" stroke="black" d="M 130 167 323 160"/>
<path stroke-width="1" stroke="black" d="M 211 81 172 92"/>
<path stroke-width="1" stroke="black" d="M 211 81 184 99"/>
<path stroke-width="1" stroke="black" d="M 211 81 143 130"/>
<path stroke-width="1" stroke="black" d="M 66 182 130 167"/>
<path stroke-width="1" stroke="black" d="M 130 167 202 204"/>
<path stroke-width="1" stroke="black" d="M 130 167 154 178"/>
<path stroke-width="1" stroke="black" d="M 130 167 185 205"/>
<path stroke-width="1" stroke="black" d="M 130 167 275 92"/>
<path stroke-width="1" stroke="black" d="M 211 81 156 186"/>
<path stroke-width="1" stroke="black" d="M 65 147 128 148"/>
<path stroke-width="1" stroke="black" d="M 128 148 202 204"/>
<path stroke-width="1" stroke="black" d="M 128 148 154 178"/>
<path stroke-width="1" stroke="black" d="M 128 148 184 99"/>
<path stroke-width="1" stroke="black" d="M 128 148 143 130"/>
<path stroke-width="1" stroke="black" d="M 346 219 303 189"/>
<path stroke-width="1" stroke="black" d="M 303 189 202 204"/>
<path stroke-width="1" stroke="black" d="M 303 189 154 178"/>
<path stroke-width="1" stroke="black" d="M 303 189 185 205"/>
<path stroke-width="1" stroke="black" d="M 303 189 275 92"/>
<path stroke-width="1" stroke="black" d="M 128 148 156 186"/>
<path stroke-width="1" stroke="black" d="M 303 189 295 109"/>
<path stroke-width="1" stroke="black" d="M 303 189 312 115"/>
<path stroke-width="1" stroke="black" d="M 303 189 308 186"/>
<path stroke-width="1" stroke="black" d="M 303 189 238 80"/>
<path stroke-width="1" stroke="black" d="M 303 189 264 212"/>
<path stroke-width="1" stroke="black" d="M 303 189 260 93"/>
<path stroke-width="1" stroke="black" d="M 303 189 268 210"/>
<path stroke-width="1" stroke="black" d="M 303 189 211 81"/>
<path stroke-width="1" stroke="black" d="M 303 189 323 160"/>
<path stroke-width="1" stroke="black" d="M 128 148 172 92"/>
<path stroke-width="1" stroke="black" d="M 128 148 310 139"/>
<path stroke-width="1" stroke="black" d="M 128 148 222 160"/>
<path stroke-width="1" stroke="black" d="M 128 148 185 205"/>
<path stroke-width="1" stroke="black" d="M 128 148 275 92"/>
<path stroke-width="1" stroke="black" d="M 128 148 295 109"/>
<path stroke-width="1" stroke="black" d="M 128 148 323 160"/>
<path stroke-width="1" stroke="black" d="M 128 148 312 115"/>
<path stroke-width="1" stroke="black" d="M 128 148 308 186"/>
<path stroke-width="1" stroke="black" d="M 128 148 238 80"/>
<path stroke-width="1" stroke="black" d="M 128 148 264 212"/>
<path stroke-width="1" stroke="black" d="M 128 148 260 93"/>
<path stroke-width="1" stroke="black" d="M 128 148 268 210"/>
<path stroke-width="1" stroke="black" d="M 128 148 211 81"/>
<path stroke-width="1" stroke="black" d="M 128 148 130 167"/>
<path stroke-width="1" stroke="black" d="M 128 148 65 147"/>
<path stroke-width="1" stroke="black" d="M 128 148 303 189"/>
<path stroke-width="1" stroke="black" d="M 128 148 140 113"/>
<path stroke-width="1" stroke="black" d="M 128 148 321 149"/>
<path stroke-width="1" stroke="black" d="M 128 148 221 218"/>
<path stroke-width="1" stroke="black" d="M 303 189 128 148"/>
<path stroke-width="1" stroke="black" d="M 221 218 321 149"/>
<path stroke-width="1" stroke="black" d="M 221 218 215 253"/>
<path stroke-width="1" stroke="black" d="M 221 218 222 160"/>
<path stroke-width="1" stroke="black" d="M 156 186 221 218"/>
<path stroke-width="1" stroke="black" d="M 156 186 222 160"/>
<path stroke-width="1" stroke="black" d="M 156 186 310 139"/>
<path stroke-width="1" stroke="black" d="M 156 186 172 92"/>
<path stroke-width="1" stroke="black" d="M 156 186 114 209"/>
<path stroke-width="1" stroke="black" d="M 156 186 184 99"/>
<path stroke-width="1" stroke="black" d="M 156 186 143 130"/>
<path stroke-width="1" stroke="black" d="M 156 186 321 149"/>
<path stroke-width="1" stroke="black" d="M 162 79 184 99"/>
<path stroke-width="1" stroke="black" d="M 184 99 154 178"/>
<path stroke-width="1" stroke="black" d="M 184 99 185 205"/>
<path stroke-width="1" stroke="black" d="M 184 99 275 92"/>
<path stroke-width="1" stroke="black" d="M 184 99 295 109"/>
<path stroke-width="1" stroke="black" d="M 184 99 323 160"/>
<path stroke-width="1" stroke="black" d="M 184 99 312 115"/>
<path stroke-width="1" stroke="black" d="M 184 99 308 186"/>
<path stroke-width="1" stroke="black" d="M 184 99 202 204"/>
<path stroke-width="1" stroke="black" d="M 184 99 238 80"/>
<path stroke-width="1" stroke="black" d="M 156 186 140 113"/>
<path stroke-width="1" stroke="black" d="M 156 186 128 148"/>
<path stroke-width="1" stroke="black" d="M 172 92 143 130"/>
<path stroke-width="1" stroke="black" d="M 114 209 156 186"/>
<path stroke-width="1" stroke="black" d="M 156 186 202 204"/>
<path stroke-width="1" stroke="black" d="M 156 186 154 178"/>
<path stroke-width="1" stroke="black" d="M 156 186 185 205"/>
<path stroke-width="1" stroke="black" d="M 156 186 275 92"/>
<path stroke-width="1" stroke="black" d="M 156 186 295 109"/>
<path stroke-width="1" stroke="black" d="M 156 186 303 189"/>
<path stroke-width="1" stroke="black" d="M 156 186 323 160"/>
<path stroke-width="1" stroke="black" d="M 156 186 308 186"/>
<path stroke-width="1" stroke="black" d="M 156 186 238 80"/>
<path stroke-width="1" stroke="black" d="M 156 186 264 212"/>
<path stroke-width="1" stroke="black" d="M 156 186 260 93"/>
<path stroke-width="1" stroke="black" d="M 156 186 268 210"/>
<path stroke-width="1" stroke="black" d="M 156 186 211 81"/>
<path stroke-width="1" stroke="black" d="M 156 186 130 167"/>
<path stroke-width="1" stroke="black" d="M 156 186 312 115"/>
<path stroke-width="1" stroke="black" d="M 184 99 264 212"/>
<path stroke-width="1" stroke="black" d="M 184 99 260 93"/>
<path stroke-width="1" stroke="black" d="M 184 99 268 210"/>
<path stroke-width="1" stroke="black" d="M 143 130 308 186"/>
<path stroke-width="1" stroke="black" d="M 143 130 238 80"/>
<path stroke-width="1" stroke="black" d="M 143 130 264 212"/>
<path stroke-width="1" stroke="black" d="M 143 130 260 93"/>
<path stroke-width="1" stroke="black" d="M 143 130 268 210"/>
<path stroke-width="1" stroke="black" d="M 143 130 211 81"/>
<path stroke-width="1" stroke="black" d="M 143 130 130 167"/>
<path stroke-width="1" stroke="black" d="M 143 130 312 115"/>
<path stroke-width="1" stroke="black" d="M 143 130 128 148"/>
<path stroke-width="1" stroke="black" d="M 143 130 140 113"/>
<path stroke-width="1" stroke="black" d="M 143 130 321 149"/>
<path stroke-width="1" stroke="black" d="M 143 130 221 218"/>
<path stroke-width="1" stroke="black" d="M 143 130 222 160"/>
<path stroke-width="1" stroke="black" d="M 143 130 310 139"/>
<path stroke-width="1" stroke="black" d="M 143 130 172 92"/>
<path stroke-width="1" stroke="black" d="M 143 130 156 186"/>
<path stroke-width="1" stroke="black" d="M 143 130 303 189"/>
<path stroke-width="1" stroke="black" d="M 143 130 323 160"/>
<path stroke-width="1" stroke="black" d="M 143 130 295 109"/>
<path stroke-width="1" stroke="black" d="M 143 130 275 92"/>
<path stroke-width="1" stroke="black" d="M 184 99 211 81"/>
<path stroke-width="1" stroke="black" d="M 184 99 130 167"/>
<path stroke-width="1" stroke="black" d="M 184 99 128 148"/>
<path stroke-width="1" stroke="black" d="M 184 99 303 189"/>
<path stroke-width="1" stroke="black" d="M 184 99 140 113"/>
<path stroke-width="1" stroke="black" d="M 184 99 321 149"/>
<path stroke-width="1" stroke="black" d="M 184 99 221 218"/>
<path stroke-width="1" stroke="black" d="M 184 99 222 160"/>
<path stroke-width="1" stroke="black" d="M 184 99 310 139"/>
<path stroke-width="1" stroke="black" d="M 184 99 172 92"/>
<path stroke-width="1" stroke="black" d="M 184 99 156 186"/>
<path stroke-width="1" stroke="black" d="M 184 99 162 79"/>
<path stroke-width="1" stroke="black" d="M 184 99 143 130"/>
<path stroke-width="1" stroke="black" d="M 93 119 143 130"/>
<path stroke-width="1" stroke="black" d="M 143 130 202 204"/>
<path stroke-width="1" stroke="black" d="M 143 130 154 178"/>
<path stroke-width="1" stroke="black" d="M 143 130 185 205"/>
<path stroke-width="1" stroke="black" d="M 172 92 184 99"/>
<path stroke-width="1" stroke="black" d="M 172 92 156 186"/>
<path stroke-width="1" stroke="black" d="M 172 92 147 59"/>
<path stroke-width="1" stroke="black" d="M 172 92 310 139"/>
<path stroke-width="1" stroke="black" d="M 222 160 303 189"/>
<path stroke-width="1" stroke="black" d="M 222 160 140 113"/>
<path stroke-width="1" stroke="black" d="M 222 160 321 149"/>
<path stroke-width="1" stroke="black" d="M 222 160 221 218"/>
<path stroke-width="1" stroke="black" d="M 222 160 207 174"/>
<path stroke-width="1" stroke="black" d="M 222 160 310 139"/>
<path stroke-width="1" stroke="black" d="M 222 160 172 92"/>
<path stroke-width="1" stroke="black" d="M 222 160 128 148"/>
<path stroke-width="1" stroke="black" d="M 222 160 156 186"/>
<path stroke-width="1" stroke="black" d="M 222 160 143 130"/>
<path stroke-width="1" stroke="black" d="M 335 127 310 139"/>
<path stroke-width="1" stroke="black" d="M 310 139 202 204"/>
<path stroke-width="1" stroke="black" d="M 310 139 154 178"/>
<path stroke-width="1" stroke="black" d="M 310 139 185 205"/>
<path stroke-width="1" stroke="black" d="M 310 139 275 92"/>
<path stroke-width="1" stroke="black" d="M 310 139 295 109"/>
<path stroke-width="1" stroke="black" d="M 222 160 184 99"/>
<path stroke-width="1" stroke="black" d="M 222 160 130 167"/>
<path stroke-width="1" stroke="black" d="M 222 160 211 81"/>
<path stroke-width="1" stroke="black" d="M 222 160 268 210"/>
<path stroke-width="1" stroke="black" d="M 221 218 310 139"/>
<path stroke-width="1" stroke="black" d="M 221 218 172 92"/>
<path stroke-width="1" stroke="black" d="M 221 218 156 186"/>
<path stroke-width="1" stroke="black" d="M 221 218 184 99"/>
<path stroke-width="1" stroke="black" d="M 221 218 143 130"/>
<path stroke-width="1" stroke="black" d="M 207 174 222 160"/>
<path stroke-width="1" stroke="black" d="M 222 160 202 204"/>
<path stroke-width="1" stroke="black" d="M 222 160 154 178"/>
<path stroke-width="1" stroke="black" d="M 222 160 185 205"/>
<path stroke-width="1" stroke="black" d="M 222 160 275 92"/>
<path stroke-width="1" stroke="black" d="M 222 160 295 109"/>
<path stroke-width="1" stroke="black" d="M 222 160 323 160"/>
<path stroke-width="1" stroke="black" d="M 222 160 312 115"/>
<path stroke-width="1" stroke="black" d="M 222 160 308 186"/>
<path stroke-width="1" stroke="black" d="M 222 160 238 80"/>
<path stroke-width="1" stroke="black" d="M 222 160 264 212"/>
<path stroke-width="1" stroke="black" d="M 222 160 260 93"/>
<path stroke-width="1" stroke="black" d="M 310 139 323 160"/>
<path stroke-width="1" stroke="black" d="M 211 81 130 167"/>
<path stroke-width="1" stroke="black" d="M 310 139 312 115"/>
<path stroke-width="1" stroke="black" d="M 310 139 238 80"/>
<path stroke-width="1" stroke="black" d="M 172 92 295 109"/>
<path stroke-width="1" stroke="black" d="M 172 92 323 160"/>
<path stroke-width="1" stroke="black" d="M 172 92 312 115"/>
<path stroke-width="1" stroke="black" d="M 172 92 308 186"/>
<path stroke-width="1" stroke="black" d="M 172 92 238 80"/>
<path stroke-width="1" stroke="black" d="M 172 92 264 212"/>
<path stroke-width="1" stroke="black" d="M 172 92 260 93"/>
<path stroke-width="1" stroke="black" d="M 172 92 275 92"/>
<path stroke-width="1" stroke="black" d="M 172 92 268 210"/>
<path stroke-width="1" stroke="black" d="M 172 92 130 167"/>
<path stroke-width="1" stroke="black" d="M 172 92 128 148"/>
<path stroke-width="1" stroke="black" d="M 172 92 303 189"/>
<path stroke-width="1" stroke="black" d="M 172 92 140 113"/>
<path stroke-width="1" stroke="black" d="M 172 92 321 149"/>
<path stroke-width="1" stroke="black" d="M 172 92 221 218"/>
<path stroke-width="1" stroke="black" d="M 172 92 222 160"/>
<path stroke-width="1" stroke="black" d="M 172 92 211 81"/>
<path stroke-width="1" stroke="black" d="M 172 92 185 205"/>
<path stroke-width="1" stroke="black" d="M 172 92 154 178"/>
<path stroke-width="1" stroke="black" d="M 172 92 202 204"/>
<path stroke-width="1" stroke="black" d="M 310 139 264 212"/>
<path stroke-width="1" stroke="black" d="M 310 139 260 93"/>
<path stroke-width="1" stroke="black" d="M 310 139 268 210"/>
<path stroke-width="1" stroke="black" d="M 310 139 211 81"/>
<path stroke-width="1" stroke="black" d="M 310 139 130 167"/>
<path stroke-width="1" stroke="black" d="M 310 139 128 148"/>
<path stroke-width="1" stroke="black" d="M 310 139 303 189"/>
<path stroke-width="1" stroke="black" d="M 310 139 140 113"/>
<path stroke-width="1" stroke="black" d="M 310 139 321 149"/>
<path stroke-width="1" stroke="black" d="M 310 139 221 218"/>
<path stroke-width="1" stroke="black" d="M 310 139 222 160"/>
<path stroke-width="1" stroke="black" d="M 310 139 335 127"/>
<path stroke-width="1" stroke="black" d="M 310 139 172 92"/>
<path stroke-width="1" stroke="black" d="M 310 139 156 186"/>
<path stroke-width="1" stroke="black" d="M 310 139 184 99"/>
<path stroke-width="1" stroke="black" d="M 310 139 143 130"/>
<path stroke-width="1" stroke="black" d="M 147 59 172 92"/>
<path stroke-width="1" stroke="black" d="M 310 139 308 186"/>
<path stroke-width="1" stroke="black" d="M 211 81 196 33"/>
<path stroke-width="1" stroke="black" d="M 211 81 268 210"/>
<path stroke-width="1" stroke="black" d="M 211 81 260 93"/>
<path stroke-width="1" stroke="black" d="M 275 92 143 130"/>
<path stroke-width="1" stroke="black" d="M 382 63 295 109"/>
<path stroke-width="1" stroke="black" d="M 295 109 202 204"/>
<path stroke-width="1" stroke="black" d="M 295 109 154 178"/>
<path stroke-width="1" stroke="black" d="M 295 109 185 205"/>
<path stroke-width="1" stroke="black" d="M 295 109 275 92"/>
<path stroke-width="1" stroke="black" d="M 295 109 382 63"/>
<path stroke-width="1" stroke="black" d="M 275 92 184 99"/>
<path stroke-width="1" stroke="black" d="M 295 109 323 160"/>
<path stroke-width="1" stroke="black" d="M 295 109 308 186"/>
<path stroke-width="1" stroke="black" d="M 295 109 238 80"/>
<path stroke-width="1" stroke="black" d="M 295 109 264 212"/>
<path stroke-width="1" stroke="black" d="M 295 109 260 93"/>
<path stroke-width="1" stroke="black" d="M 295 109 268 210"/>
<path stroke-width="1" stroke="black" d="M 295 109 211 81"/>
<path stroke-width="1" stroke="black" d="M 295 109 130 167"/>
<path stroke-width="1" stroke="black" d="M 295 109 312 115"/>
<path stroke-width="1" stroke="black" d="M 295 109 128 148"/>
<path stroke-width="1" stroke="black" d="M 275 92 156 186"/>
<path stroke-width="1" stroke="black" d="M 275 92 310 139"/>
<path stroke-width="1" stroke="black" d="M 275 92 295 109"/>
<path stroke-width="1" stroke="black" d="M 275 92 323 160"/>
<path stroke-width="1" stroke="black" d="M 275 92 312 115"/>
<path stroke-width="1" stroke="black" d="M 275 92 308 186"/>
<path stroke-width="1" stroke="black" d="M 275 92 238 80"/>
<path stroke-width="1" stroke="black" d="M 275 92 264 212"/>
<path stroke-width="1" stroke="black" d="M 275 92 260 93"/>
<path stroke-width="1" stroke="black" d="M 275 92 172 92"/>
<path stroke-width="1" stroke="black" d="M 275 92 268 210"/>
<path stroke-width="1" stroke="black" d="M 275 92 130 167"/>
<path stroke-width="1" stroke="black" d="M 275 92 128 148"/>
<path stroke-width="1" stroke="black" d="M 275 92 303 189"/>
<path stroke-width="1" stroke="black" d="M 275 92 140 113"/>
<path stroke-width="1" stroke="black" d="M 275 92 321 149"/>
<path stroke-width="1" stroke="black" d="M 275 92 221 218"/>
<path stroke-width="1" stroke="black" d="M 275 92 222 160"/>
<path stroke-width="1" stroke="black" d="M 275 92 211 81"/>
<path stroke-width="1" stroke="black" d="M 295 109 303 189"/>
<path stroke-width="1" stroke="black" d="M 295 109 140 113"/>
<path stroke-width="1" stroke="black" d="M 295 109 321 149"/>
<path stroke-width="1" stroke="black" d="M 323 160 130 167"/>
<path stroke-width="1" stroke="black" d="M 323 160 128 148"/>
<path stroke-width="1" stroke="black" d="M 323 160 303 189"/>
<path stroke-width="1" stroke="black" d="M 323 160 140 113"/>
<path stroke-width="1" stroke="black" d="M 323 160 321 149"/>
<path stroke-width="1" stroke="black" d="M 323 160 221 218"/>
<path stroke-width="1" stroke="black" d="M 323 160 222 160"/>
<path stroke-width="1" stroke="black" d="M 323 160 211 81"/>
<path stroke-width="1" stroke="black" d="M 323 160 310 139"/>
<path stroke-width="1" stroke="black" d="M 323 160 156 186"/>
<path stroke-width="1" stroke="black" d="M 323 160 184 99"/>
<path stroke-width="1" stroke="black" d="M 323 160 143 130"/>
<path stroke-width="1" stroke="black" d="M 390 84 312 115"/>
<path stroke-width="1" stroke="black" d="M 312 115 202 204"/>
<path stroke-width="1" stroke="black" d="M 312 115 154 178"/>
<path stroke-width="1" stroke="black" d="M 312 115 185 205"/>
<path stroke-width="1" stroke="black" d="M 323 160 172 92"/>
<path stroke-width="1" stroke="black" d="M 323 160 268 210"/>
<path stroke-width="1" stroke="black" d="M 323 160 260 93"/>
<path stroke-width="1" stroke="black" d="M 323 160 264 212"/>
<path stroke-width="1" stroke="black" d="M 295 109 221 218"/>
<path stroke-width="1" stroke="black" d="M 295 109 222 160"/>
<path stroke-width="1" stroke="black" d="M 295 109 310 139"/>
<path stroke-width="1" stroke="black" d="M 295 109 172 92"/>
<path stroke-width="1" stroke="black" d="M 295 109 156 186"/>
<path stroke-width="1" stroke="black" d="M 295 109 184 99"/>
<path stroke-width="1" stroke="black" d="M 295 109 143 130"/>
<path stroke-width="1" stroke="black" d="M 420 177 323 160"/>
<path stroke-width="1" stroke="black" d="M 323 160 202 204"/>
<path stroke-width="1" stroke="black" d="M 323 160 154 178"/>
<path stroke-width="1" stroke="black" d="M 323 160 185 205"/>
<path stroke-width="1" stroke="black" d="M 323 160 275 92"/>
<path stroke-width="1" stroke="black" d="M 323 160 295 109"/>
<path stroke-width="1" stroke="black" d="M 323 160 420 177"/>
<path stroke-width="1" stroke="black" d="M 323 160 312 115"/>
<path stroke-width="1" stroke="black" d="M 323 160 308 186"/>
<path stroke-width="1" stroke="black" d="M 323 160 238 80"/>
<path stroke-width="1" stroke="black" d="M 275 92 330 20"/>
<path stroke-width="1" stroke="black" d="M 275 92 185 205"/>
<path stroke-width="1" stroke="black" d="M 275 92 154 178"/>
<path stroke-width="1" stroke="black" d="M 275 92 202 204"/>
<path stroke-width="1" stroke="black" d="M 202 204 172 92"/>
<path stroke-width="1" stroke="black" d="M 202 204 156 186"/>
<path stroke-width="1" stroke="black" d="M 202 204 184 99"/>
<path stroke-width="1" stroke="black" d="M 202 204 143 130"/>
<path stroke-width="1" stroke="black" d="M 20 234 154 178"/>
<path stroke-width="1" stroke="black" d="M 154 178 202 204"/>
<path stroke-width="1" stroke="black" d="M 154 178 20 234"/>
<path stroke-width="1" stroke="black" d="M 202 204 310 139"/>
<path stroke-width="1" stroke="black" d="M 154 178 185 205"/>
<path stroke-width="1" stroke="black" d="M 154 178 295 109"/>
<path stroke-width="1" stroke="black" d="M 154 178 323 160"/>
<path stroke-width="1" stroke="black" d="M 154 178 312 115"/>
<path stroke-width="1" stroke="black" d="M 154 178 308 186"/>
<path stroke-width="1" stroke="black" d="M 154 178 238 80"/>
<path stroke-width="1" stroke="black" d="M 154 178 264 212"/>
<path stroke-width="1" stroke="black" d="M 154 178 260 93"/>
<path stroke-width="1" stroke="black" d="M 154 178 275 92"/>
<path stroke-width="1" stroke="black" d="M 202 204 222 160"/>
<path stroke-width="1" stroke="black" d="M 202 204 221 218"/>
<path stroke-width="1" stroke="black" d="M 202 204 321 149"/>
<path stroke-width="1" stroke="black" d="M 202 204 142 320"/>
<path stroke-width="1" stroke="black" d="M 202 204 154 178"/>
<path stroke-width="1" stroke="black" d="M 202 204 185 205"/>
<path stroke-width="1" stroke="black" d="M 202 204 275 92"/>
<path stroke-width="1" stroke="black" d="M 202 204 295 109"/>
<path stroke-width="1" stroke="black" d="M 202 204 323 160"/>
<path stroke-width="1" stroke="black" d="M 202 204 312 115"/>
<path stroke-width="1" stroke="black" d="M 202 204 308 186"/>
<path stroke-width="1" stroke="black" d="M 202 204 238 80"/>
<path stroke-width="1" stroke="black" d="M 202 204 264 212"/>
<path stroke-width="1" stroke="black" d="M 202 204 260 93"/>
<path stroke-width="1" stroke="black" d="M 202 204 268 210"/>
<path stroke-width="1" stroke="black" d="M 202 204 211 81"/>
<path stroke-width="1" stroke="black" d="M 202 204 130 167"/>
<path stroke-width="1" stroke="black" d="M 202 204 128 148"/>
<path stroke-width="1" stroke="black" d="M 202 204 303 189"/>
<path stroke-width="1" stroke="black" d="M 202 204 140 113"/>
<path stroke-width="1" stroke="black" d="M 154 178 268 210"/>
<path stroke-width="1" stroke="black" d="M 312 115 275 92"/>
<path stroke-width="1" stroke="black" d="M 154 178 211 81"/>
<path stroke-width="1" stroke="black" d="M 154 178 128 148"/>
<path stroke-width="1" stroke="black" d="M 185 205 260 93"/>
<path stroke-width="1" stroke="black" d="M 185 205 268 210"/>
<path stroke-width="1" stroke="black" d="M 185 205 211 81"/>
<path stroke-width="1" stroke="black" d="M 185 205 130 167"/>
<path stroke-width="1" stroke="black" d="M 185 205 128 148"/>
<path stroke-width="1" stroke="black" d="M 185 205 303 189"/>
<path stroke-width="1" stroke="black" d="M 185 205 140 113"/>
<path stroke-width="1" stroke="black" d="M 185 205 264 212"/>
<path stroke-width="1" stroke="black" d="M 185 205 321 149"/>
<path stroke-width="1" stroke="black" d="M 185 205 222 160"/>
<path stroke-width="1" stroke="black" d="M 185 205 310 139"/>
<path stroke-width="1" stroke="black" d="M 185 205 172 92"/>
<path stroke-width="1" stroke="black" d="M 185 205 156 186"/>
<path stroke-width="1" stroke="black" d="M 185 205 184 99"/>
<path stroke-width="1" stroke="black" d="M 185 205 143 130"/>
<path stroke-width="1" stroke="black" d="M 330 20 275 92"/>
<path stroke-width="1" stroke="black" d="M 185 205 221 218"/>
<path stroke-width="1" stroke="black" d="M 185 205 238 80"/>
<path stroke-width="1" stroke="black" d="M 185 205 308 186"/>
<path stroke-width="1" stroke="black" d="M 185 205 312 115"/>
<path stroke-width="1" stroke="black" d="M 154 178 303 189"/>
<path stroke-width="1" stroke="black" d="M 154 178 140 113"/>
<path stroke-width="1" stroke="black" d="M 154 178 321 149"/>
<path stroke-width="1" stroke="black" d="M 154 178 221 218"/>
<path stroke-width="1" stroke="black" d="M 154 178 222 160"/>
<path stroke-width="1" stroke="black" d="M 154 178 310 139"/>
<path stroke-width="1" stroke="black" d="M 154 178 172 92"/>
<path stroke-width="1" stroke="black" d="M 154 178 156 186"/>
<path stroke-width="1" stroke="black" d="M 154 178 184 99"/>
<path stroke-width="1" stroke="black" d="M 154 178 143 130"/>
<path stroke-width="1" stroke="black" d="M 120 279 185 205"/>
<path stroke-width="1" stroke="black" d="M 185 205 202 204"/>
<path stroke-width="1" stroke="black" d="M 185 205 154 178"/>
<path stroke-width="1" stroke="black" d="M 185 205 120 279"/>
<path stroke-width="1" stroke="black" d="M 185 205 275 92"/>
<path stroke-width="1" stroke="black" d="M 185 205 295 109"/>
<path stroke-width="1" stroke="black" d="M 185 205 323 160"/>
<path stroke-width="1" stroke="black" d="M 154 178 130 167"/>
<path stroke-width="1" stroke="black" d="M 143 130 184 99"/>
<path stroke-width="1" stroke="black" d="M 312 115 295 109"/>
<path stroke-width="1" stroke="black" d="M 312 115 390 84"/>
<path stroke-width="1" stroke="black" d="M 260 93 323 160"/>
<path stroke-width="1" stroke="black" d="M 260 93 312 115"/>
<path stroke-width="1" stroke="black" d="M 260 93 308 186"/>
<path stroke-width="1" stroke="black" d="M 260 93 238 80"/>
<path stroke-width="1" stroke="black" d="M 260 93 264 212"/>
<path stroke-width="1" stroke="black" d="M 260 93 287 47"/>
<path stroke-width="1" stroke="black" d="M 260 93 268 210"/>
<path stroke-width="1" stroke="black" d="M 260 93 295 109"/>
<path stroke-width="1" stroke="black" d="M 260 93 211 81"/>
<path stroke-width="1" stroke="black" d="M 260 93 128 148"/>
<path stroke-width="1" stroke="black" d="M 260 93 303 189"/>
<path stroke-width="1" stroke="black" d="M 260 93 140 113"/>
<path stroke-width="1" stroke="black" d="M 260 93 321 149"/>
<path stroke-width="1" stroke="black" d="M 260 93 221 218"/>
<path stroke-width="1" stroke="black" d="M 260 93 222 160"/>
<path stroke-width="1" stroke="black" d="M 260 93 310 139"/>
<path stroke-width="1" stroke="black" d="M 260 93 130 167"/>
<path stroke-width="1" stroke="black" d="M 260 93 172 92"/>
<path stroke-width="1" stroke="black" d="M 260 93 275 92"/>
<path stroke-width="1" stroke="black" d="M 260 93 154 178"/>
<path stroke-width="1" stroke="black" d="M 264 212 268 210"/>
<path stroke-width="1" stroke="black" d="M 264 212 211 81"/>
<path stroke-width="1" stroke="black" d="M 264 212 130 167"/>
<path stroke-width="1" stroke="black" d="M 264 212 128 148"/>
<path stroke-width="1" stroke="black" d="M 264 212 303 189"/>
<path stroke-width="1" stroke="black" d="M 264 212 140 113"/>
<path stroke-width="1" stroke="black" d="M 264 212 321 149"/>
<path stroke-width="1" stroke="black" d="M 260 93 185 205"/>
<path stroke-width="1" stroke="black" d="M 264 212 221 218"/>
<path stroke-width="1" stroke="black" d="M 264 212 310 139"/>
<path stroke-width="1" stroke="black" d="M 264 212 172 92"/>
<path stroke-width="1" stroke="black" d="M 264 212 156 186"/>
<path stroke-width="1" stroke="black" d="M 264 212 184 99"/>
<path stroke-width="1" stroke="black" d="M 264 212 143 130"/>
<path stroke-width="1" stroke="black" d="M 287 47 260 93"/>
<path stroke-width="1" stroke="black" d="M 260 93 202 204"/>
<path stroke-width="1" stroke="black" d="M 264 212 222 160"/>
<path stroke-width="1" stroke="black" d="M 260 93 156 186"/>
<path stroke-width="1" stroke="black" d="M 260 93 184 99"/>
<path stroke-width="1" stroke="black" d="M 260 93 143 130"/>
<path stroke-width="1" stroke="black" d="M 268 210 310 139"/>
<path stroke-width="1" stroke="black" d="M 268 210 172 92"/>
<path stroke-width="1" stroke="black" d="M 268 210 156 186"/>
<path stroke-width="1" stroke="black" d="M 268 210 184 99"/>
<path stroke-width="1" stroke="black" d="M 268 210 143 130"/>
<path stroke-width="1" stroke="black" d="M 196 33 211 81"/>
<path stroke-width="1" stroke="black" d="M 211 81 202 204"/>
<path stroke-width="1" stroke="black" d="M 268 210 222 160"/>
<path stroke-width="1" stroke="black" d="M 211 81 154 178"/>
<path stroke-width="1" stroke="black" d="M 211 81 275 92"/>
<path stroke-width="1" stroke="black" d="M 211 81 295 109"/>
<path stroke-width="1" stroke="black" d="M 211 81 323 160"/>
<path stroke-width="1" stroke="black" d="M 211 81 312 115"/>
<path stroke-width="1" stroke="black" d="M 211 81 308 186"/>
<path stroke-width="1" stroke="black" d="M 211 81 238 80"/>
<path stroke-width="1" stroke="black" d="M 211 81 264 212"/>
<path stroke-width="1" stroke="black" d="M 211 81 185 205"/>
<path stroke-width="1" stroke="black" d="M 268 210 221 218"/>
<path stroke-width="1" stroke="black" d="M 268 210 321 149"/>
<path stroke-width="1" stroke="black" d="M 268 210 140 113"/>
<path stroke-width="1" stroke="black" d="M 294 257 268 210"/>
<path stroke-width="1" stroke="black" d="M 268 210 202 204"/>
<path stroke-width="1" stroke="black" d="M 268 210 154 178"/>
<path stroke-width="1" stroke="black" d="M 268 210 185 205"/>
<path stroke-width="1" stroke="black" d="M 268 210 275 92"/>
<path stroke-width="1" stroke="black" d="M 268 210 295 109"/>
<path stroke-width="1" stroke="black" d="M 268 210 323 160"/>
<path stroke-width="1" stroke="black" d="M 268 210 312 115"/>
<path stroke-width="1" stroke="black" d="M 268 210 308 186"/>
<path stroke-width="1" stroke="black" d="M 268 210 238 80"/>
<path stroke-width="1" stroke="black" d="M 268 210 264 212"/>
<path stroke-width="1" stroke="black" d="M 268 210 260 93"/>
<path stroke-width="1" stroke="black" d="M 268 210 294 257"/>
<path stroke-width="1" stroke="black" d="M 268 210 211 81"/>
<path stroke-width="1" stroke="black" d="M 268 210 130 167"/>
<path stroke-width="1" stroke="black" d="M 268 210 128 148"/>
<path stroke-width="1" stroke="black" d="M 268 210 303 189"/>
<path stroke-width="1" stroke="black" d="M 264 212 260 93"/>
<path stroke-width="1" stroke="black" d="M 264 212 289 264"/>
<path stroke-width="1" stroke="black" d="M 264 212 238 80"/>
<path stroke-width="1" stroke="black" d="M 264 212 308 186"/>
<path stroke-width="1" stroke="black" d="M 308 186 185 205"/>
<path stroke-width="1" stroke="black" d="M 308 186 275 92"/>
<path stroke-width="1" stroke="black" d="M 308 186 295 109"/>
<path stroke-width="1" stroke="black" d="M 308 186 323 160"/>
<path stroke-width="1" stroke="black" d="M 308 186 312 115"/>
<path stroke-width="1" stroke="black" d="M 308 186 381 220"/>
<path stroke-width="1" stroke="black" d="M 308 186 238 80"/>
<path stroke-width="1" stroke="black" d="M 308 186 154 178"/>
<path stroke-width="1" stroke="black" d="M 308 186 264 212"/>
<path stroke-width="1" stroke="black" d="M 308 186 268 210"/>
<path stroke-width="1" stroke="black" d="M 308 186 211 81"/>
<path stroke-width="1" stroke="black" d="M 308 186 130 167"/>
<path stroke-width="1" stroke="black" d="M 308 186 128 148"/>
<path stroke-width="1" stroke="black" d="M 308 186 303 189"/>
<path stroke-width="1" stroke="black" d="M 308 186 140 113"/>
<path stroke-width="1" stroke="black" d="M 308 186 321 149"/>
<path stroke-width="1" stroke="black" d="M 308 186 260 93"/>
<path stroke-width="1" stroke="black" d="M 308 186 202 204"/>
<path stroke-width="1" stroke="black" d="M 381 220 308 186"/>
<path stroke-width="1" stroke="black" d="M 312 115 143 130"/>
<path stroke-width="1" stroke="black" d="M 312 115 308 186"/>
<path stroke-width="1" stroke="black" d="M 312 115 238 80"/>
<path stroke-width="1" stroke="black" d="M 312 115 264 212"/>
<path stroke-width="1" stroke="black" d="M 312 115 260 93"/>
<path stroke-width="1" stroke="black" d="M 312 115 268 210"/>
<path stroke-width="1" stroke="black" d="M 312 115 211 81"/>
<path stroke-width="1" stroke="black" d="M 312 115 130 167"/>
<path stroke-width="1" stroke="black" d="M 312 115 128 148"/>
<path stroke-width="1" stroke="black" d="M 312 115 303 189"/>
<path stroke-width="1" stroke="black" d="M 312 115 140 113"/>
<path stroke-width="1" stroke="black" d="M 312 115 321 149"/>
<path stroke-width="1" stroke="black" d="M 312 115 221 218"/>
<path stroke-width="1" stroke="black" d="M 312 115 222 160"/>
<path stroke-width="1" stroke="black" d="M 312 115 310 139"/>
<path stroke-width="1" stroke="black" d="M 312 115 172 92"/>
<path stroke-width="1" stroke="black" d="M 312 115 156 186"/>
<path stroke-width="1" stroke="black" d="M 312 115 184 99"/>
<path stroke-width="1" stroke="black" d="M 308 186 221 218"/>
<path stroke-width="1" stroke="black" d="M 312 115 323 160"/>
<path stroke-width="1" stroke="black" d="M 308 186 222 160"/>
<path stroke-width="1" stroke="black" d="M 308 186 172 92"/>
<path stroke-width="1" stroke="black" d="M 238 80 321 149"/>
<path stroke-width="1" stroke="black" d="M 238 80 221 218"/>
<path stroke-width="1" stroke="black" d="M 238 80 222 160"/>
<path stroke-width="1" stroke="black" d="M 238 80 310 139"/>
<path stroke-width="1" stroke="black" d="M 238 80 172 92"/>
<path stroke-width="1" stroke="black" d="M 238 80 156 186"/>
<path stroke-width="1" stroke="black" d="M 238 80 184 99"/>
<path stroke-width="1" stroke="black" d="M 238 80 140 113"/>
<path stroke-width="1" stroke="black" d="M 238 80 143 130"/>
<path stroke-width="1" stroke="black" d="M 264 212 202 204"/>
<path stroke-width="1" stroke="black" d="M 264 212 154 178"/>
<path stroke-width="1" stroke="black" d="M 264 212 185 205"/>
<path stroke-width="1" stroke="black" d="M 264 212 275 92"/>
<path stroke-width="1" stroke="black" d="M 264 212 295 109"/>
<path stroke-width="1" stroke="black" d="M 264 212 323 160"/>
<path stroke-width="1" stroke="black" d="M 264 212 312 115"/>
<path stroke-width="1" stroke="black" d="M 289 264 264 212"/>
<path stroke-width="1" stroke="black" d="M 238 80 303 189"/>
<path stroke-width="1" stroke="black" d="M 238 80 128 148"/>
<path stroke-width="1" stroke="black" d="M 238 80 130 167"/>
<path stroke-width="1" stroke="black" d="M 308 186 156 186"/>
<path stroke-width="1" stroke="black" d="M 308 186 184 99"/>
<path stroke-width="1" stroke="black" d="M 308 186 143 130"/>
<path stroke-width="1" stroke="black" d="M 245 23 238 80"/>
<path stroke-width="1" stroke="black" d="M 238 80 202 204"/>
<path stroke-width="1" stroke="black" d="M 238 80 154 178"/>
<path stroke-width="1" stroke="black" d="M 238 80 185 205"/>
<path stroke-width="1" stroke="black" d="M 238 80 275 92"/>
<path stroke-width="1" stroke="black" d="M 238 80 295 109"/>
<path stroke-width="1" stroke="black" d="M 238 80 323 160"/>
<path stroke-width="1" stroke="black" d="M 238 80 312 115"/>
<path stroke-width="1" stroke="black" d="M 238 80 308 186"/>
<path stroke-width="1" stroke="black" d="M 238 80 245 23"/>
<path stroke-width="1" stroke="black" d="M 238 80 264 212"/>
<path stroke-width="1" stroke="black" d="M 238 80 260 93"/>
<path stroke-width="1" stroke="black" d="M 238 80 268 210"/>
<path stroke-width="1" stroke="black" d="M 238 80 211 81"/>
<path stroke-width="1" stroke="black" d="M 308 186 310 139"/>
<path stroke-width="1" stroke="black" d="M 143 130 93 119"/>
<circle cx="142" cy="320" r="7.0" style="fill:blue;stroke:black;stroke-width:1.0"/>
<circle cx="202" cy="204" r="7.0" style="fill:blue;stroke:black;stroke-width:1.0"/>
<circle cx="20" cy="234" r="7.0" style="fill:blue;stroke:black;stroke-width:1.0"/>
<circle cx="154" cy="178" r="7.0" style="fill:blue;stroke:black;stroke-width:1.0"/>
<circle cx="120" cy="279" r="7.0" style="fill:blue;stroke:black;stroke-width:1.0"/>
<circle cx="185" cy="205" r="7.0" style="fill:blue;stroke:black;stroke-width:1.0"/>
<circle cx="330" cy="20" r="7.0" style="fill:blue;stroke:black;stroke-width:1.0"/>
<circle cx="275" cy="92" r="7.0" style="fill:blue;stroke:black;stroke-width:1.0"/>
<circle cx="382" cy="63" r="7.0" style="fill:blue;stroke:black;stroke-width:1.0"/>
<circle cx="295" cy="109" r="7.0" style="fill:blue;stroke:black;stroke-width:1.0"/>
<circle cx="420" cy="177" r="7.0" style="fill:aqua;stroke:black;stroke-width:1.0"/>
<circle cx="323" cy="160" r="7.0" style="fill:aqua;stroke:black;stroke-width:1.0"/>
<circle cx="390" cy="84" r="7.0" style="fill:olive;stroke:black;stroke-width:1.0"/>
<circle cx="312" cy="115" r="7.0" style="fill:olive;stroke:black;stroke-width:1.0"/>
<circle cx="381" cy="220" r="7.0" style="fill:fuchsia;stroke:black;stroke-width:1.0"/>
<circle cx="308" cy="186" r="7.0" style="fill:fuchsia;stroke:black;stroke-width:1.0"/>
<circle cx="245" cy="23" r="7.0" style="fill:yellow;stroke:black;stroke-width:1.0"/>
<circle cx="238" cy="80" r="7.0" style="fill:yellow;stroke:black;stroke-width:1.0"/>
<circle cx="289" cy="264" r="7.0" style="fill:purple;stroke:black;stroke-width:1.0"/>
<circle cx="264" cy="212" r="7.0" style="fill:purple;stroke:black;stroke-width:1.0"/>
<circle cx="287" cy="47" r="7.0" style="fill:orange;stroke:black;stroke-width:1.0"/>
<circle cx="260" cy="93" r="7.0" style="fill:orange;stroke:black;stroke-width:1.0"/>
<circle cx="294" cy="257" r="7.0" style="fill:green;stroke:black;stroke-width:1.0"/>
<circle cx="268" cy="210" r="7.0" style="fill:green;stroke:black;stroke-width:1.0"/>
<circle cx="196" cy="33" r="7.0" style="fill:red;stroke:black;stroke-width:1.0"/>
<circle cx="211" cy="81" r="7.0" style="fill:red;stroke:black;stroke-width:1.0"/>
<circle cx="66" cy="182" r="7.0" style="fill:brown;stroke:black;stroke-width:1.0"/>
<circle cx="130" cy="167" r="7.0" style="fill:brown;stroke:black;stroke-width:1.0"/>
<circle cx="65" cy="147" r="7.0" style="fill:blue;stroke:black;stroke-width:1.0"/>
<circle cx="128" cy="148" r="7.0" style="fill:blue;stroke:black;stroke-width:1.0"/>
<circle cx="346" cy="219" r="7.0" style="fill:aqua;stroke:black;stroke-width:1.0"/>
<circle cx="303" cy="189" r="7.0" style="fill:aqua;stroke:black;stroke-width:1.0"/>
<circle cx="93" cy="88" r="7.0" style="fill:olive;stroke:black;stroke-width:1.0"/>
<circle cx="140" cy="113" r="7.0" style="fill:olive;stroke:black;stroke-width:1.0"/>
<circle cx="378" cy="150" r="7.0" style="fill:fuchsia;stroke:black;stroke-width:1.0"/>
<circle cx="321" cy="149" r="7.0" style="fill:fuchsia;stroke:black;stroke-width:1.0"/>
<circle cx="215" cy="253" r="7.0" style="fill:yellow;stroke:black;stroke-width:1.0"/>
<circle cx="221" cy="218" r="7.0" style="fill:yellow;stroke:black;stroke-width:1.0"/>
<circle cx="207" cy="174" r="7.0" style="fill:purple;stroke:black;stroke-width:1.0"/>
<circle cx="222" cy="160" r="7.0" style="fill:purple;stroke:black;stroke-width:1.0"/>
<circle cx="335" cy="127" r="7.0" style="fill:orange;stroke:black;stroke-width:1.0"/>
<circle cx="310" cy="139" r="7.0" style="fill:orange;stroke:black;stroke-width:1.0"/>
<circle cx="147" cy="59" r="7.0" style="fill:green;stroke:black;stroke-width:1.0"/>
<circle cx="172" cy="92" r="7.0" style="fill:green;stroke:black;stroke-width:1.0"/>
<circle cx="114" cy="209" r="7.0" style="fill:red;stroke:black;stroke-width:1.0"/>
<circle cx="156" cy="186" r="7.0" style="fill:red;stroke:black;stroke-width:1.0"/>
<circle cx="162" cy="79" r="7.0" style="fill:brown;stroke:black;stroke-width:1.0"/>
<circle cx="184" cy="99" r="7.0" style="fill:brown;stroke:black;stroke-width:1.0"/>
<circle cx="93" cy="119" r="7.0" style="fill:blue;stroke:black;stroke-width:1.0"/>
<circle cx="143" cy="130" r="7.0" style="fill:blue;stroke:black;stroke-width:1.0"/>
</svg>
