<svg width="440" height="340" xmlns="http://www.w3.org/2000/svg">
<path stroke-width="1.5051546391752577" stroke="black" d="M 295 320 250 210"/>
<path stroke-width="0.5" stroke="black" d="M 212 212 296 118"/>
<path stroke-width="0.5" stroke="black" d="M 212 212 295 182"/>
<path stroke-width="0.5" stroke="black" d="M 212 212 188 105"/>
<path stroke-width="0.5" stroke="black" d="M 212 212 219 83"/>
<path stroke-width="0.5" stroke="black" d="M 212 212 276 206"/>
<path stroke-width="13.969072164948454" stroke="black" d="M 212 212 195 247"/>
<path stroke-width="0.5" stroke="black" d="M 212 212 183 126"/>
<path stroke-width="0.5" stroke="black" d="M 212 212 200 97"/>
<path stroke-width="0.5" stroke="black" d="M 212 212 193 203"/>
<path stroke-width="0.5" stroke="black" d="M 212 212 291 148"/>
<path stroke-width="0.5" stroke="black" d="M 212 212 197 161"/>
<path stroke-width="0.5" stroke="black" d="M 212 212 255 140"/>
<path stroke-width="0.5" stroke="black" d="M 212 212 264 86"/>
<path stroke-width="0.5" stroke="black" d="M 212 212 254 163"/>
<path stroke-width="14.77319587628866" stroke="black" d="M 150 116 183 126"/>
<path stroke-width="0.5" stroke="black" d="M 183 126 250 210"/>
<path stroke-width="0.5" stroke="black" d="M 212 212 285 162"/>
<path stroke-width="0.5" stroke="black" d="M 183 126 148 149"/>
<path stroke-width="0.5" stroke="black" d="M 212 212 281 101"/>
<path stroke-width="0.5" stroke="black" d="M 212 212 174 182"/>
<path stroke-width="0.5" stroke="black" d="M 276 206 183 126"/>
<path stroke-width="0.5" stroke="black" d="M 276 206 193 203"/>
<path stroke-width="0.5" stroke="black" d="M 276 206 285 162"/>
<path stroke-width="0.5" stroke="black" d="M 276 206 291 148"/>
<path stroke-width="0.5" stroke="black" d="M 276 206 197 161"/>
<path stroke-width="0.5" stroke="black" d="M 276 206 255 140"/>
<path stroke-width="0.5" stroke="black" d="M 276 206 264 86"/>
<path stroke-width="0.5" stroke="black" d="M 212 212 203 155"/>
<path stroke-width="0.5" stroke="black" d="M 276 206 254 163"/>
<path stroke-width="0.5" stroke="black" d="M 212 212 250 210"/>
<path stroke-width="0.5" stroke="black" d="M 212 212 148 149"/>
<path stroke-width="0.5" stroke="black" d="M 212 212 315 144"/>
<path stroke-width="0.5" stroke="black" d="M 212 212 209 86"/>
<path stroke-width="0.5" stroke="black" d="M 212 212 223 218"/>
<path stroke-width="0.5" stroke="black" d="M 212 212 169 147"/>
<path stroke-width="0.5" stroke="black" d="M 212 212 237 83"/>
<path stroke-width="13.969072164948454" stroke="black" d="M 195 247 212 212"/>
<path stroke-width="0.5" stroke="black" d="M 183 126 315 144"/>
<path stroke-width="0.5" stroke="black" d="M 183 126 209 86"/>
<path stroke-width="0.5" stroke="black" d="M 183 126 223 218"/>
<path stroke-width="0.5" stroke="black" d="M 193 203 250 210"/>
<path stroke-width="0.5" stroke="black" d="M 193 203 148 149"/>
<path stroke-width="0.5" stroke="black" d="M 193 203 315 144"/>
<path stroke-width="0.5" stroke="black" d="M 193 203 209 86"/>
<path stroke-width="0.5" stroke="black" d="M 193 203 223 218"/>
<path stroke-width="0.5" stroke="black" d="M 193 203 169 147"/>
<path stroke-width="0.5" stroke="black" d="M 193 203 237 83"/>
<path stroke-width="15.577319587628866" stroke="black" d="M 167 228 193 203"/>
<path stroke-width="0.5" stroke="black" d="M 193 203 174 182"/>
<path stroke-width="0.5" stroke="black" d="M 193 203 281 101"/>
<path stroke-width="0.5" stroke="black" d="M 193 203 200 97"/>
<path stroke-width="0.5" stroke="black" d="M 193 203 296 118"/>
<path stroke-width="0.5" stroke="black" d="M 193 203 295 182"/>
<path stroke-width="0.5" stroke="black" d="M 193 203 188 105"/>
<path stroke-width="0.5" stroke="black" d="M 193 203 219 83"/>
<path stroke-width="0.5" stroke="black" d="M 193 203 276 206"/>
<path stroke-width="0.5" stroke="black" d="M 193 203 203 155"/>
<path stroke-width="0.5" stroke="black" d="M 183 126 254 163"/>
<path stroke-width="0.5" stroke="black" d="M 183 126 264 86"/>
<path stroke-width="0.5" stroke="black" d="M 183 126 255 140"/>
<path stroke-width="0.5" stroke="black" d="M 183 126 169 147"/>
<path stroke-width="0.5" stroke="black" d="M 183 126 237 83"/>
<path stroke-width="0.5" stroke="black" d="M 183 126 174 182"/>
<path stroke-width="0.5" stroke="black" d="M 183 126 203 155"/>
<path stroke-width="0.5" stroke="black" d="M 183 126 281 101"/>
<path stroke-width="0.5" stroke="black" d="M 183 126 200 97"/>
<path stroke-width="0.5" stroke="black" d="M 183 126 296 118"/>
<path stroke-width="0.5" stroke="black" d="M 183 126 295 182"/>
<path stroke-width="0.5" stroke="black" d="M 183 126 188 105"/>
<path stroke-width="0.5" stroke="black" d="M 183 126 219 83"/>
<path stroke-width="0.5" stroke="black" d="M 183 126 276 206"/>
<path stroke-width="0.5" stroke="black" d="M 183 126 212 212"/>
<path stroke-width="14.77319587628866" stroke="black" d="M 183 126 150 116"/>
<path stroke-width="0.5" stroke="black" d="M 183 126 193 203"/>
<path stroke-width="0.5" stroke="black" d="M 183 126 285 162"/>
<path stroke-width="0.5" stroke="black" d="M 183 126 291 148"/>
<path stroke-width="0.5" stroke="black" d="M 183 126 197 161"/>
<path stroke-width="0.5" stroke="black" d="M 276 206 212 212"/>
<path stroke-width="0.5" stroke="black" d="M 193 203 212 212"/>
<path stroke-width="13.164948453608247" stroke="black" d="M 276 206 306 232"/>
<path stroke-width="0.5" stroke="black" d="M 276 206 188 105"/>
<path stroke-width="0.5" stroke="black" d="M 188 105 203 155"/>
<path stroke-width="0.5" stroke="black" d="M 188 105 281 101"/>
<path stroke-width="0.5" stroke="black" d="M 188 105 200 97"/>
<path stroke-width="0.5" stroke="black" d="M 188 105 296 118"/>
<path stroke-width="0.5" stroke="black" d="M 188 105 295 182"/>
<path stroke-width="11.556701030927835" stroke="black" d="M 188 105 154 82"/>
<path stroke-width="0.5" stroke="black" d="M 188 105 219 83"/>
<path stroke-width="0.5" stroke="black" d="M 188 105 174 182"/>
<path stroke-width="0.5" stroke="black" d="M 188 105 276 206"/>
<path stroke-width="0.5" stroke="black" d="M 188 105 183 126"/>
<path stroke-width="0.5" stroke="black" d="M 188 105 193 203"/>
<path stroke-width="0.5" stroke="black" d="M 188 105 285 162"/>
<path stroke-width="0.5" stroke="black" d="M 188 105 291 148"/>
<path stroke-width="0.5" stroke="black" d="M 188 105 197 161"/>
<path stroke-width="0.5" stroke="black" d="M 188 105 255 140"/>
<path stroke-width="0.5" stroke="black" d="M 188 105 264 86"/>
<path stroke-width="0.5" stroke="black" d="M 188 105 212 212"/>
<path stroke-width="0.5" stroke="black" d="M 188 105 254 163"/>
<path stroke-width="0.5" stroke="black" d="M 188 105 237 83"/>
<path stroke-width="0.5" stroke="black" d="M 188 105 223 218"/>
<path stroke-width="0.5" stroke="black" d="M 295 182 219 83"/>
<path stroke-width="0.5" stroke="black" d="M 295 182 276 206"/>
<path stroke-width="0.5" stroke="black" d="M 295 182 212 212"/>
<path stroke-width="0.5" stroke="black" d="M 295 182 183 126"/>
<path stroke-width="0.5" stroke="black" d="M 295 182 193 203"/>
<path stroke-width="0.5" stroke="black" d="M 295 182 285 162"/>
<path stroke-width="0.5" stroke="black" d="M 295 182 291 148"/>
<path stroke-width="0.5" stroke="black" d="M 188 105 169 147"/>
<path stroke-width="0.5" stroke="black" d="M 295 182 197 161"/>
<path stroke-width="0.5" stroke="black" d="M 295 182 264 86"/>
<path stroke-width="0.5" stroke="black" d="M 295 182 254 163"/>
<path stroke-width="11.556701030927835" stroke="black" d="M 154 82 188 105"/>
<path stroke-width="0.5" stroke="black" d="M 188 105 250 210"/>
<path stroke-width="0.5" stroke="black" d="M 188 105 148 149"/>
<path stroke-width="0.5" stroke="black" d="M 188 105 315 144"/>
<path stroke-width="0.5" stroke="black" d="M 188 105 209 86"/>
<path stroke-width="0.5" stroke="black" d="M 295 182 255 140"/>
<path stroke-width="12.360824742268042" stroke="black" d="M 203 42 219 83"/>
<path stroke-width="0.5" stroke="black" d="M 219 83 250 210"/>
<path stroke-width="0.5" stroke="black" d="M 219 83 148 149"/>
<path stroke-width="0.5" stroke="black" d="M 219 83 264 86"/>
<path stroke-width="0.5" stroke="black" d="M 219 83 254 163"/>
<path stroke-width="13.164948453608247" stroke="black" d="M 306 232 276 206"/>
<path stroke-width="0.5" stroke="black" d="M 276 206 250 210"/>
<path stroke-width="0.5" stroke="black" d="M 276 206 148 149"/>
<path stroke-width="0.5" stroke="black" d="M 276 206 315 144"/>
<path stroke-width="0.5" stroke="black" d="M 276 206 209 86"/>
<path stroke-width="0.5" stroke="black" d="M 219 83 255 140"/>
<path stroke-width="0.5" stroke="black" d="M 276 206 223 218"/>
<path stroke-width="0.5" stroke="black" d="M 276 206 237 83"/>
<path stroke-width="0.5" stroke="black" d="M 276 206 174 182"/>
<path stroke-width="0.5" stroke="black" d="M 276 206 203 155"/>
<path stroke-width="0.5" stroke="black" d="M 276 206 281 101"/>
<path stroke-width="0.5" stroke="black" d="M 276 206 200 97"/>
<path stroke-width="0.5" stroke="black" d="M 276 206 296 118"/>
<path stroke-width="0.5" stroke="black" d="M 276 206 295 182"/>
<path stroke-width="0.5" stroke="black" d="M 276 206 169 147"/>
<path stroke-width="0.5" stroke="black" d="M 219 83 197 161"/>
<path stroke-width="0.5" stroke="black" d="M 219 83 291 148"/>
<path stroke-width="0.5" stroke="black" d="M 219 83 285 162"/>
<path stroke-width="0.5" stroke="black" d="M 219 83 315 144"/>
<path stroke-width="0.5" stroke="black" d="M 219 83 209 86"/>
<path stroke-width="0.5" stroke="black" d="M 219 83 223 218"/>
<path stroke-width="0.5" stroke="black" d="M 219 83 169 147"/>
<path stroke-width="0.5" stroke="black" d="M 219 83 237 83"/>
<path stroke-width="0.5" stroke="black" d="M 219 83 174 182"/>
<path stroke-width="0.5" stroke="black" d="M 219 83 203 155"/>
<path stroke-width="0.5" stroke="black" d="M 219 83 281 101"/>
<path stroke-width="0.5" stroke="black" d="M 219 83 200 97"/>
<path stroke-width="0.5" stroke="black" d="M 219 83 296 118"/>
<path stroke-width="0.5" stroke="black" d="M 219 83 295 182"/>
<path stroke-width="0.5" stroke="black" d="M 219 83 188 105"/>
<path stroke-width="12.360824742268042" stroke="black" d="M 219 83 203 42"/>
<path stroke-width="0.5" stroke="black" d="M 219 83 276 206"/>
<path stroke-width="0.5" stroke="black" d="M 219 83 212 212"/>
<path stroke-width="0.5" stroke="black" d="M 219 83 183 126"/>
<path stroke-width="0.5" stroke="black" d="M 219 83 193 203"/>
<path stroke-width="0.5" stroke="black" d="M 276 206 219 83"/>
<path stroke-width="0.5" stroke="black" d="M 193 203 183 126"/>
<path stroke-width="15.577319587628866" stroke="black" d="M 193 203 167 228"/>
<path stroke-width="0.5" stroke="black" d="M 193 203 285 162"/>
<path stroke-width="0.5" stroke="black" d="M 255 140 193 203"/>
<path stroke-width="0.5" stroke="black" d="M 255 140 285 162"/>
<path stroke-width="0.5" stroke="black" d="M 255 140 291 148"/>
<path stroke-width="0.5" stroke="black" d="M 255 140 197 161"/>
<path stroke-width="18.79381443298969" stroke="black" d="M 255 140 247 146"/>
<path stroke-width="0.5" stroke="black" d="M 255 140 264 86"/>
<path stroke-width="0.5" stroke="black" d="M 255 140 254 163"/>
<path stroke-width="0.5" stroke="black" d="M 255 140 183 126"/>
<path stroke-width="19.195876288659793" stroke="black" d="M 284 58 264 86"/>
<path stroke-width="0.5" stroke="black" d="M 264 86 148 149"/>
<path stroke-width="0.5" stroke="black" d="M 264 86 315 144"/>
<path stroke-width="0.5" stroke="black" d="M 264 86 209 86"/>
<path stroke-width="0.5" stroke="black" d="M 264 86 223 218"/>
<path stroke-width="0.5" stroke="black" d="M 264 86 169 147"/>
<path stroke-width="0.5" stroke="black" d="M 264 86 237 83"/>
<path stroke-width="0.5" stroke="black" d="M 264 86 174 182"/>
<path stroke-width="0.5" stroke="black" d="M 264 86 250 210"/>
<path stroke-width="0.5" stroke="black" d="M 264 86 203 155"/>
<path stroke-width="0.5" stroke="black" d="M 255 140 212 212"/>
<path stroke-width="0.5" stroke="black" d="M 255 140 219 83"/>
<path stroke-width="0.5" stroke="black" d="M 197 161 254 163"/>
<path stroke-width="18.79381443298969" stroke="black" d="M 247 146 255 140"/>
<path stroke-width="0.5" stroke="black" d="M 255 140 250 210"/>
<path stroke-width="0.5" stroke="black" d="M 255 140 148 149"/>
<path stroke-width="0.5" stroke="black" d="M 255 140 315 144"/>
<path stroke-width="0.5" stroke="black" d="M 255 140 209 86"/>
<path stroke-width="0.5" stroke="black" d="M 255 140 223 218"/>
<path stroke-width="0.5" stroke="black" d="M 255 140 276 206"/>
<path stroke-width="0.5" stroke="black" d="M 255 140 169 147"/>
<path stroke-width="0.5" stroke="black" d="M 255 140 174 182"/>
<path stroke-width="0.5" stroke="black" d="M 255 140 203 155"/>
<path stroke-width="0.5" stroke="black" d="M 255 140 281 101"/>
<path stroke-width="0.5" stroke="black" d="M 255 140 200 97"/>
<path stroke-width="0.5" stroke="black" d="M 255 140 296 118"/>
<path stroke-width="0.5" stroke="black" d="M 255 140 295 182"/>
<path stroke-width="0.5" stroke="black" d="M 255 140 188 105"/>
<path stroke-width="0.5" stroke="black" d="M 255 140 237 83"/>
<path stroke-width="0.5" stroke="black" d="M 264 86 281 101"/>
<path stroke-width="0.5" stroke="black" d="M 264 86 200 97"/>
<path stroke-width="0.5" stroke="black" d="M 264 86 296 118"/>
<path stroke-width="0.5" stroke="black" d="M 254 163 174 182"/>
<path stroke-width="0.5" stroke="black" d="M 254 163 203 155"/>
<path stroke-width="0.5" stroke="black" d="M 254 163 281 101"/>
<path stroke-width="0.5" stroke="black" d="M 254 163 200 97"/>
<path stroke-width="0.5" stroke="black" d="M 254 163 296 118"/>
<path stroke-width="0.5" stroke="black" d="M 254 163 295 182"/>
<path stroke-width="0.5" stroke="black" d="M 254 163 188 105"/>
<path stroke-width="0.5" stroke="black" d="M 254 163 237 83"/>
<path stroke-width="0.5" stroke="black" d="M 254 163 219 83"/>
<path stroke-width="0.5" stroke="black" d="M 254 163 212 212"/>
<path stroke-width="0.5" stroke="black" d="M 254 163 183 126"/>
<path stroke-width="0.5" stroke="black" d="M 254 163 193 203"/>
<path stroke-width="0.5" stroke="black" d="M 254 163 285 162"/>
<path stroke-width="0.5" stroke="black" d="M 254 163 291 148"/>
<path stroke-width="0.5" stroke="black" d="M 254 163 197 161"/>
<path stroke-width="0.5" stroke="black" d="M 254 163 255 140"/>
<path stroke-width="0.5" stroke="black" d="M 254 163 276 206"/>
<path stroke-width="0.5" stroke="black" d="M 254 163 169 147"/>
<path stroke-width="0.5" stroke="black" d="M 254 163 223 218"/>
<path stroke-width="0.5" stroke="black" d="M 254 163 209 86"/>
<path stroke-width="0.5" stroke="black" d="M 264 86 295 182"/>
<path stroke-width="0.5" stroke="black" d="M 264 86 188 105"/>
<path stroke-width="0.5" stroke="black" d="M 264 86 219 83"/>
<path stroke-width="0.5" stroke="black" d="M 264 86 276 206"/>
<path stroke-width="0.5" stroke="black" d="M 264 86 212 212"/>
<path stroke-width="0.5" stroke="black" d="M 264 86 183 126"/>
<path stroke-width="0.5" stroke="black" d="M 264 86 193 203"/>
<path stroke-width="0.5" stroke="black" d="M 264 86 285 162"/>
<path stroke-width="0.5" stroke="black" d="M 264 86 291 148"/>
<path stroke-width="0.5" stroke="black" d="M 264 86 197 161"/>
<path stroke-width="0.5" stroke="black" d="M 264 86 255 140"/>
<path stroke-width="19.195876288659793" stroke="black" d="M 264 86 284 58"/>
<path stroke-width="0.5" stroke="black" d="M 264 86 254 163"/>
<path stroke-width="20.0" stroke="black" d="M 271 177 254 163"/>
<path stroke-width="0.5" stroke="black" d="M 254 163 250 210"/>
<path stroke-width="0.5" stroke="black" d="M 254 163 148 149"/>
<path stroke-width="0.5" stroke="black" d="M 254 163 315 144"/>
<path stroke-width="0.5" stroke="black" d="M 197 161 264 86"/>
<path stroke-width="0.5" stroke="black" d="M 197 161 255 140"/>
<path stroke-width="17.989690721649485" stroke="black" d="M 197 161 171 170"/>
<path stroke-width="0.5" stroke="black" d="M 197 161 291 148"/>
<path stroke-width="0.5" stroke="black" d="M 285 162 276 206"/>
<path stroke-width="0.5" stroke="black" d="M 285 162 212 212"/>
<path stroke-width="0.5" stroke="black" d="M 285 162 183 126"/>
<path stroke-width="0.5" stroke="black" d="M 285 162 193 203"/>
<path stroke-width="16.381443298969074" stroke="black" d="M 285 162 318 169"/>
<path stroke-width="0.5" stroke="black" d="M 285 162 291 148"/>
<path stroke-width="0.5" stroke="black" d="M 285 162 197 161"/>
<path stroke-width="0.5" stroke="black" d="M 285 162 219 83"/>
<path stroke-width="0.5" stroke="black" d="M 285 162 255 140"/>
<path stroke-width="0.5" stroke="black" d="M 285 162 254 163"/>
<path stroke-width="17.185567010309278" stroke="black" d="M 326 149 291 148"/>
<path stroke-width="0.5" stroke="black" d="M 291 148 250 210"/>
<path stroke-width="0.5" stroke="black" d="M 291 148 148 149"/>
<path stroke-width="0.5" stroke="black" d="M 291 148 315 144"/>
<path stroke-width="0.5" stroke="black" d="M 291 148 209 86"/>
<path stroke-width="0.5" stroke="black" d="M 291 148 223 218"/>
<path stroke-width="0.5" stroke="black" d="M 285 162 264 86"/>
<path stroke-width="0.5" stroke="black" d="M 285 162 188 105"/>
<path stroke-width="0.5" stroke="black" d="M 285 162 295 182"/>
<path stroke-width="0.5" stroke="black" d="M 285 162 296 118"/>
<path stroke-width="0.5" stroke="black" d="M 193 203 291 148"/>
<path stroke-width="0.5" stroke="black" d="M 193 203 197 161"/>
<path stroke-width="0.5" stroke="black" d="M 193 203 255 140"/>
<path stroke-width="0.5" stroke="black" d="M 193 203 264 86"/>
<path stroke-width="0.5" stroke="black" d="M 193 203 254 163"/>
<path stroke-width="16.381443298969074" stroke="black" d="M 318 169 285 162"/>
<path stroke-width="0.5" stroke="black" d="M 285 162 250 210"/>
<path stroke-width="0.5" stroke="black" d="M 285 162 148 149"/>
<path stroke-width="0.5" stroke="black" d="M 285 162 315 144"/>
<path stroke-width="0.5" stroke="black" d="M 285 162 209 86"/>
<path stroke-width="0.5" stroke="black" d="M 285 162 223 218"/>
<path stroke-width="0.5" stroke="black" d="M 285 162 169 147"/>
<path stroke-width="0.5" stroke="black" d="M 285 162 237 83"/>
<path stroke-width="0.5" stroke="black" d="M 285 162 174 182"/>
<path stroke-width="0.5" stroke="black" d="M 285 162 203 155"/>
<path stroke-width="0.5" stroke="black" d="M 285 162 281 101"/>
<path stroke-width="0.5" stroke="black" d="M 285 162 200 97"/>
<path stroke-width="0.5" stroke="black" d="M 291 148 169 147"/>
<path stroke-width="0.5" stroke="black" d="M 295 182 188 105"/>
<path stroke-width="0.5" stroke="black" d="M 291 148 237 83"/>
<path stroke-width="0.5" stroke="black" d="M 291 148 203 155"/>
<path stroke-width="0.5" stroke="black" d="M 197 161 223 218"/>
<path stroke-width="0.5" stroke="black" d="M 197 161 169 147"/>
<path stroke-width="0.5" stroke="black" d="M 197 161 237 83"/>
<path stroke-width="0.5" stroke="black" d="M 197 161 174 182"/>
<path stroke-width="0.5" stroke="black" d="M 197 161 203 155"/>
<path stroke-width="0.5" stroke="black" d="M 197 161 281 101"/>
<path stroke-width="0.5" stroke="black" d="M 197 161 200 97"/>
<path stroke-width="0.5" stroke="black" d="M 197 161 209 86"/>
<path stroke-width="0.5" stroke="black" d="M 197 161 296 118"/>
<path stroke-width="0.5" stroke="black" d="M 197 161 188 105"/>
<path stroke-width="0.5" stroke="black" d="M 197 161 219 83"/>
<path stroke-width="0.5" stroke="black" d="M 197 161 276 206"/>
<path stroke-width="0.5" stroke="black" d="M 197 161 212 212"/>
<path stroke-width="0.5" stroke="black" d="M 197 161 183 126"/>
<path stroke-width="0.5" stroke="black" d="M 197 161 193 203"/>
<path stroke-width="0.5" stroke="black" d="M 197 161 285 162"/>
<path stroke-width="0.5" stroke="black" d="M 197 161 295 182"/>
<path stroke-width="0.5" stroke="black" d="M 197 161 315 144"/>
<path stroke-width="0.5" stroke="black" d="M 197 161 148 149"/>
<path stroke-width="0.5" stroke="black" d="M 197 161 250 210"/>
<path stroke-width="0.5" stroke="black" d="M 291 148 281 101"/>
<path stroke-width="0.5" stroke="black" d="M 291 148 200 97"/>
<path stroke-width="0.5" stroke="black" d="M 291 148 296 118"/>
<path stroke-width="0.5" stroke="black" d="M 291 148 295 182"/>
<path stroke-width="0.5" stroke="black" d="M 291 148 188 105"/>
<path stroke-width="0.5" stroke="black" d="M 291 148 219 83"/>
<path stroke-width="0.5" stroke="black" d="M 291 148 276 206"/>
<path stroke-width="0.5" stroke="black" d="M 291 148 212 212"/>
<path stroke-width="0.5" stroke="black" d="M 291 148 183 126"/>
<path stroke-width="0.5" stroke="black" d="M 291 148 193 203"/>
<path stroke-width="0.5" stroke="black" d="M 291 148 285 162"/>
<path stroke-width="17.185567010309278" stroke="black" d="M 291 148 326 149"/>
<path stroke-width="0.5" stroke="black" d="M 291 148 197 161"/>
<path stroke-width="0.5" stroke="black" d="M 291 148 255 140"/>
<path stroke-width="0.5" stroke="black" d="M 291 148 264 86"/>
<path stroke-width="0.5" stroke="black" d="M 291 148 254 163"/>
<path stroke-width="17.989690721649485" stroke="black" d="M 171 170 197 161"/>
<path stroke-width="0.5" stroke="black" d="M 291 148 174 182"/>
<path stroke-width="10.75257731958763" stroke="black" d="M 295 182 338 196"/>
<path stroke-width="0.5" stroke="black" d="M 295 182 296 118"/>
<path stroke-width="0.5" stroke="black" d="M 295 182 200 97"/>
<path stroke-width="0.5" stroke="black" d="M 209 86 254 163"/>
<path stroke-width="4.31958762886598" stroke="black" d="M 200 288 223 218"/>
<path stroke-width="0.5" stroke="black" d="M 223 218 250 210"/>
<path stroke-width="0.5" stroke="black" d="M 223 218 148 149"/>
<path stroke-width="0.5" stroke="black" d="M 223 218 315 144"/>
<path stroke-width="0.5" stroke="black" d="M 223 218 209 86"/>
<path stroke-width="4.31958762886598" stroke="black" d="M 223 218 200 288"/>
<path stroke-width="0.5" stroke="black" d="M 209 86 264 86"/>
<path stroke-width="0.5" stroke="black" d="M 223 218 169 147"/>
<path stroke-width="0.5" stroke="black" d="M 223 218 174 182"/>
<path stroke-width="0.5" stroke="black" d="M 223 218 203 155"/>
<path stroke-width="0.5" stroke="black" d="M 223 218 281 101"/>
<path stroke-width="0.5" stroke="black" d="M 223 218 200 97"/>
<path stroke-width="0.5" stroke="black" d="M 223 218 296 118"/>
<path stroke-width="0.5" stroke="black" d="M 223 218 295 182"/>
<path stroke-width="0.5" stroke="black" d="M 223 218 188 105"/>
<path stroke-width="0.5" stroke="black" d="M 223 218 237 83"/>
<path stroke-width="0.5" stroke="black" d="M 223 218 219 83"/>
<path stroke-width="0.5" stroke="black" d="M 209 86 255 140"/>
<path stroke-width="0.5" stroke="black" d="M 209 86 291 148"/>
<path stroke-width="0.5" stroke="black" d="M 209 86 223 218"/>
<path stroke-width="0.5" stroke="black" d="M 209 86 169 147"/>
<path stroke-width="0.5" stroke="black" d="M 209 86 237 83"/>
<path stroke-width="0.5" stroke="black" d="M 209 86 174 182"/>
<path stroke-width="0.5" stroke="black" d="M 209 86 203 155"/>
<path stroke-width="0.5" stroke="black" d="M 209 86 281 101"/>
<path stroke-width="0.5" stroke="black" d="M 209 86 200 97"/>
<path stroke-width="0.5" stroke="black" d="M 209 86 197 161"/>
<path stroke-width="0.5" stroke="black" d="M 209 86 296 118"/>
<path stroke-width="0.5" stroke="black" d="M 209 86 188 105"/>
<path stroke-width="0.5" stroke="black" d="M 209 86 219 83"/>
<path stroke-width="0.5" stroke="black" d="M 209 86 276 206"/>
<path stroke-width="0.5" stroke="black" d="M 209 86 212 212"/>
<path stroke-width="0.5" stroke="black" d="M 209 86 183 126"/>
<path stroke-width="0.5" stroke="black" d="M 209 86 193 203"/>
<path stroke-width="0.5" stroke="black" d="M 209 86 285 162"/>
<path stroke-width="0.5" stroke="black" d="M 209 86 295 182"/>
<path stroke-width="0.5" stroke="black" d="M 223 218 276 206"/>
<path stroke-width="0.5" stroke="black" d="M 223 218 212 212"/>
<path stroke-width="0.5" stroke="black" d="M 223 218 183 126"/>
<path stroke-width="0.5" stroke="black" d="M 169 147 188 105"/>
<path stroke-width="0.5" stroke="black" d="M 169 147 219 83"/>
<path stroke-width="0.5" stroke="black" d="M 169 147 276 206"/>
<path stroke-width="0.5" stroke="black" d="M 169 147 212 212"/>
<path stroke-width="0.5" stroke="black" d="M 169 147 183 126"/>
<path stroke-width="0.5" stroke="black" d="M 169 147 193 203"/>
<path stroke-width="0.5" stroke="black" d="M 169 147 285 162"/>
<path stroke-width="0.5" stroke="black" d="M 169 147 295 182"/>
<path stroke-width="0.5" stroke="black" d="M 169 147 291 148"/>
<path stroke-width="0.5" stroke="black" d="M 169 147 255 140"/>
<path stroke-width="0.5" stroke="black" d="M 169 147 264 86"/>
<path stroke-width="0.5" stroke="black" d="M 169 147 254 163"/>
<path stroke-width="5.927835051546392" stroke="black" d="M 233 20 237 83"/>
<path stroke-width="0.5" stroke="black" d="M 237 83 250 210"/>
<path stroke-width="0.5" stroke="black" d="M 237 83 148 149"/>
<path stroke-width="0.5" stroke="black" d="M 237 83 315 144"/>
<path stroke-width="0.5" stroke="black" d="M 169 147 197 161"/>
<path stroke-width="0.5" stroke="black" d="M 169 147 296 118"/>
<path stroke-width="0.5" stroke="black" d="M 169 147 200 97"/>
<path stroke-width="0.5" stroke="black" d="M 169 147 281 101"/>
<path stroke-width="0.5" stroke="black" d="M 223 218 193 203"/>
<path stroke-width="0.5" stroke="black" d="M 223 218 285 162"/>
<path stroke-width="0.5" stroke="black" d="M 223 218 291 148"/>
<path stroke-width="0.5" stroke="black" d="M 223 218 197 161"/>
<path stroke-width="0.5" stroke="black" d="M 223 218 255 140"/>
<path stroke-width="0.5" stroke="black" d="M 223 218 264 86"/>
<path stroke-width="0.5" stroke="black" d="M 223 218 254 163"/>
<path stroke-width="5.123711340206185" stroke="black" d="M 105 146 169 147"/>
<path stroke-width="0.5" stroke="black" d="M 169 147 250 210"/>
<path stroke-width="0.5" stroke="black" d="M 169 147 148 149"/>
<path stroke-width="0.5" stroke="black" d="M 169 147 315 144"/>
<path stroke-width="0.5" stroke="black" d="M 169 147 209 86"/>
<path stroke-width="0.5" stroke="black" d="M 169 147 223 218"/>
<path stroke-width="5.123711340206185" stroke="black" d="M 169 147 105 146"/>
<path stroke-width="0.5" stroke="black" d="M 169 147 237 83"/>
<path stroke-width="0.5" stroke="black" d="M 169 147 174 182"/>
<path stroke-width="0.5" stroke="black" d="M 169 147 203 155"/>
<path stroke-width="3.515463917525773" stroke="black" d="M 209 86 161 21"/>
<path stroke-width="0.5" stroke="black" d="M 209 86 315 144"/>
<path stroke-width="0.5" stroke="black" d="M 209 86 148 149"/>
<path stroke-width="0.5" stroke="black" d="M 209 86 250 210"/>
<path stroke-width="0.5" stroke="black" d="M 250 210 197 161"/>
<path stroke-width="0.5" stroke="black" d="M 250 210 255 140"/>
<path stroke-width="0.5" stroke="black" d="M 250 210 264 86"/>
<path stroke-width="0.5" stroke="black" d="M 250 210 254 163"/>
<path stroke-width="1.907216494845361" stroke="black" d="M 20 150 148 149"/>
<path stroke-width="0.5" stroke="black" d="M 148 149 250 210"/>
<path stroke-width="1.907216494845361" stroke="black" d="M 148 149 20 150"/>
<path stroke-width="0.5" stroke="black" d="M 250 210 291 148"/>
<path stroke-width="0.5" stroke="black" d="M 148 149 315 144"/>
<path stroke-width="0.5" stroke="black" d="M 148 149 223 218"/>
<path stroke-width="0.5" stroke="black" d="M 148 149 169 147"/>
<path stroke-width="0.5" stroke="black" d="M 148 149 237 83"/>
<path stroke-width="0.5" stroke="black" d="M 148 149 174 182"/>
<path stroke-width="0.5" stroke="black" d="M 148 149 203 155"/>
<path stroke-width="0.5" stroke="black" d="M 148 149 281 101"/>
<path stroke-width="0.5" stroke="black" d="M 148 149 200 97"/>
<path stroke-width="0.5" stroke="black" d="M 148 149 209 86"/>
<path stroke-width="0.5" stroke="black" d="M 250 210 285 162"/>
<path stroke-width="0.5" stroke="black" d="M 250 210 193 203"/>
<path stroke-width="0.5" stroke="black" d="M 250 210 183 126"/>
<path stroke-width="1.5051546391752577" stroke="black" d="M 250 210 295 320"/>
<path stroke-width="0.5" stroke="black" d="M 250 210 148 149"/>
<path stroke-width="0.5" stroke="black" d="M 250 210 315 144"/>
<path stroke-width="0.5" stroke="black" d="M 250 210 209 86"/>
<path stroke-width="0.5" stroke="black" d="M 250 210 223 218"/>
<path stroke-width="0.5" stroke="black" d="M 250 210 169 147"/>
<path stroke-width="0.5" stroke="black" d="M 250 210 237 83"/>
<path stroke-width="0.5" stroke="black" d="M 250 210 174 182"/>
<path stroke-width="0.5" stroke="black" d="M 250 210 203 155"/>
<path stroke-width="0.5" stroke="black" d="M 250 210 281 101"/>
<path stroke-width="0.5" stroke="black" d="M 250 210 200 97"/>
<path stroke-width="0.5" stroke="black" d="M 250 210 296 118"/>
<path stroke-width="0.5" stroke="black" d="M 250 210 295 182"/>
<path stroke-width="0.5" stroke="black" d="M 250 210 188 105"/>
<path stroke-width="0.5" stroke="black" d="M 250 210 219 83"/>
<path stroke-width="0.5" stroke="black" d="M 250 210 276 206"/>
<path stroke-width="0.5" stroke="black" d="M 250 210 212 212"/>
<path stroke-width="0.5" stroke="black" d="M 148 149 296 118"/>
<path stroke-width="0.5" stroke="black" d="M 237 83 209 86"/>
<path stroke-width="0.5" stroke="black" d="M 148 149 295 182"/>
<path stroke-width="0.5" stroke="black" d="M 148 149 219 83"/>
<path stroke-width="0.5" stroke="black" d="M 315 144 200 97"/>
<path stroke-width="0.5" stroke="black" d="M 315 144 296 118"/>
<path stroke-width="0.5" stroke="black" d="M 315 144 295 182"/>
<path stroke-width="0.5" stroke="black" d="M 315 144 188 105"/>
<path stroke-width="0.5" stroke="black" d="M 315 144 219 83"/>
<path stroke-width="0.5" stroke="black" d="M 315 144 276 206"/>
<path stroke-width="0.5" stroke="black" d="M 315 144 212 212"/>
<path stroke-width="0.5" stroke="black" d="M 315 144 281 101"/>
<path stroke-width="0.5" stroke="black" d="M 315 144 183 126"/>
<path stroke-width="0.5" stroke="black" d="M 315 144 285 162"/>
<path stroke-width="0.5" stroke="black" d="M 315 144 291 148"/>
<path stroke-width="0.5" stroke="black" d="M 315 144 197 161"/>
<path stroke-width="0.5" stroke="black" d="M 315 144 255 140"/>
<path stroke-width="0.5" stroke="black" d="M 315 144 264 86"/>
<path stroke-width="0.5" stroke="black" d="M 315 144 254 163"/>
<path stroke-width="3.515463917525773" stroke="black" d="M 161 21 209 86"/>
<path stroke-width="0.5" stroke="black" d="M 315 144 193 203"/>
<path stroke-width="0.5" stroke="black" d="M 315 144 203 155"/>
<path stroke-width="0.5" stroke="black" d="M 315 144 174 182"/>
<path stroke-width="0.5" stroke="black" d="M 315 144 237 83"/>
<path stroke-width="0.5" stroke="black" d="M 148 149 276 206"/>
<path stroke-width="0.5" stroke="black" d="M 148 149 212 212"/>
<path stroke-width="0.5" stroke="black" d="M 148 149 183 126"/>
<path stroke-width="0.5" stroke="black" d="M 148 149 193 203"/>
<path stroke-width="0.5" stroke="black" d="M 148 149 285 162"/>
<path stroke-width="0.5" stroke="black" d="M 148 149 291 148"/>
<path stroke-width="0.5" stroke="black" d="M 148 149 197 161"/>
<path stroke-width="0.5" stroke="black" d="M 148 149 255 140"/>
<path stroke-width="0.5" stroke="black" d="M 148 149 264 86"/>
<path stroke-width="0.5" stroke="black" d="M 148 149 254 163"/>
<path stroke-width="2.711340206185567" stroke="black" d="M 420 143 315 144"/>
<path stroke-width="0.5" stroke="black" d="M 315 144 250 210"/>
<path stroke-width="0.5" stroke="black" d="M 315 144 148 149"/>
<path stroke-width="2.711340206185567" stroke="black" d="M 315 144 420 143"/>
<path stroke-width="0.5" stroke="black" d="M 315 144 209 86"/>
<path stroke-width="0.5" stroke="black" d="M 315 144 223 218"/>
<path stroke-width="0.5" stroke="black" d="M 315 144 169 147"/>
<path stroke-width="0.5" stroke="black" d="M 148 149 188 105"/>
<path stroke-width="0.5" stroke="black" d="M 254 163 264 86"/>
<path stroke-width="0.5" stroke="black" d="M 237 83 223 218"/>
<path stroke-width="5.927835051546392" stroke="black" d="M 237 83 233 20"/>
<path stroke-width="0.5" stroke="black" d="M 200 97 169 147"/>
<path stroke-width="0.5" stroke="black" d="M 200 97 237 83"/>
<path stroke-width="0.5" stroke="black" d="M 200 97 174 182"/>
<path stroke-width="0.5" stroke="black" d="M 200 97 203 155"/>
<path stroke-width="0.5" stroke="black" d="M 200 97 281 101"/>
<path stroke-width="9.144329896907216" stroke="black" d="M 200 97 168 63"/>
<path stroke-width="0.5" stroke="black" d="M 200 97 296 118"/>
<path stroke-width="0.5" stroke="black" d="M 200 97 223 218"/>
<path stroke-width="0.5" stroke="black" d="M 200 97 295 182"/>
<path stroke-width="0.5" stroke="black" d="M 200 97 219 83"/>
<path stroke-width="0.5" stroke="black" d="M 200 97 276 206"/>
<path stroke-width="0.5" stroke="black" d="M 200 97 212 212"/>
<path stroke-width="0.5" stroke="black" d="M 200 97 183 126"/>
<path stroke-width="0.5" stroke="black" d="M 200 97 193 203"/>
<path stroke-width="0.5" stroke="black" d="M 200 97 285 162"/>
<path stroke-width="0.5" stroke="black" d="M 200 97 291 148"/>
<path stroke-width="0.5" stroke="black" d="M 200 97 188 105"/>
<path stroke-width="0.5" stroke="black" d="M 200 97 197 161"/>
<path stroke-width="0.5" stroke="black" d="M 200 97 209 86"/>
<path stroke-width="0.5" stroke="black" d="M 200 97 148 149"/>
<path stroke-width="0.5" stroke="black" d="M 281 101 296 118"/>
<path stroke-width="0.5" stroke="black" d="M 281 101 295 182"/>
<path stroke-width="0.5" stroke="black" d="M 281 101 188 105"/>
<path stroke-width="0.5" stroke="black" d="M 281 101 219 83"/>
<path stroke-width="0.5" stroke="black" d="M 281 101 276 206"/>
<path stroke-width="0.5" stroke="black" d="M 281 101 212 212"/>
<path stroke-width="0.5" stroke="black" d="M 281 101 183 126"/>
<path stroke-width="0.5" stroke="black" d="M 200 97 315 144"/>
<path stroke-width="0.5" stroke="black" d="M 281 101 193 203"/>
<path stroke-width="0.5" stroke="black" d="M 281 101 291 148"/>
<path stroke-width="0.5" stroke="black" d="M 281 101 197 161"/>
<path stroke-width="0.5" stroke="black" d="M 281 101 255 140"/>
<path stroke-width="0.5" stroke="black" d="M 281 101 264 86"/>
<path stroke-width="0.5" stroke="black" d="M 281 101 254 163"/>
<path stroke-width="9.144329896907216" stroke="black" d="M 168 63 200 97"/>
<path stroke-width="0.5" stroke="black" d="M 200 97 250 210"/>
<path stroke-width="0.5" stroke="black" d="M 281 101 285 162"/>
<path stroke-width="0.5" stroke="black" d="M 200 97 255 140"/>
<path stroke-width="0.5" stroke="black" d="M 200 97 264 86"/>
<path stroke-width="0.5" stroke="black" d="M 200 97 254 163"/>
<path stroke-width="0.5" stroke="black" d="M 296 118 291 148"/>
<path stroke-width="0.5" stroke="black" d="M 296 118 197 161"/>
<path stroke-width="0.5" stroke="black" d="M 296 118 255 140"/>
<path stroke-width="0.5" stroke="black" d="M 296 118 264 86"/>
<path stroke-width="0.5" stroke="black" d="M 296 118 254 163"/>
<path stroke-width="10.75257731958763" stroke="black" d="M 338 196 295 182"/>
<path stroke-width="0.5" stroke="black" d="M 295 182 250 210"/>
<path stroke-width="0.5" stroke="black" d="M 296 118 285 162"/>
<path stroke-width="0.5" stroke="black" d="M 295 182 148 149"/>
<path stroke-width="0.5" stroke="black" d="M 295 182 209 86"/>
<path stroke-width="0.5" stroke="black" d="M 295 182 223 218"/>
<path stroke-width="0.5" stroke="black" d="M 295 182 169 147"/>
<path stroke-width="0.5" stroke="black" d="M 295 182 237 83"/>
<path stroke-width="0.5" stroke="black" d="M 295 182 174 182"/>
<path stroke-width="0.5" stroke="black" d="M 295 182 203 155"/>
<path stroke-width="0.5" stroke="black" d="M 295 182 281 101"/>
<path stroke-width="0.5" stroke="black" d="M 295 182 315 144"/>
<path stroke-width="0.5" stroke="black" d="M 296 118 193 203"/>
<path stroke-width="0.5" stroke="black" d="M 296 118 183 126"/>
<path stroke-width="0.5" stroke="black" d="M 296 118 212 212"/>
<path stroke-width="9.948453608247423" stroke="black" d="M 342 107 296 118"/>
<path stroke-width="0.5" stroke="black" d="M 296 118 250 210"/>
<path stroke-width="0.5" stroke="black" d="M 296 118 148 149"/>
<path stroke-width="0.5" stroke="black" d="M 296 118 315 144"/>
<path stroke-width="0.5" stroke="black" d="M 296 118 209 86"/>
<path stroke-width="0.5" stroke="black" d="M 296 118 223 218"/>
<path stroke-width="0.5" stroke="black" d="M 296 118 169 147"/>
<path stroke-width="0.5" stroke="black" d="M 296 118 237 83"/>
<path stroke-width="0.5" stroke="black" d="M 296 118 174 182"/>
<path stroke-width="0.5" stroke="black" d="M 296 118 203 155"/>
<path stroke-width="0.5" stroke="black" d="M 296 118 281 101"/>
<path stroke-width="0.5" stroke="black" d="M 296 118 200 97"/>
<path stroke-width="9.948453608247423" stroke="black" d="M 296 118 342 107"/>
<path stroke-width="0.5" stroke="black" d="M 296 118 295 182"/>
<path stroke-width="0.5" stroke="black" d="M 296 118 188 105"/>
<path stroke-width="0.5" stroke="black" d="M 296 118 219 83"/>
<path stroke-width="0.5" stroke="black" d="M 296 118 276 206"/>
<path stroke-width="0.5" stroke="black" d="M 281 101 200 97"/>
<path stroke-width="8.340206185567009" stroke="black" d="M 281 101 322 74"/>
<path stroke-width="0.5" stroke="black" d="M 281 101 203 155"/>
<path stroke-width="0.5" stroke="black" d="M 281 101 174 182"/>
<path stroke-width="0.5" stroke="black" d="M 174 182 315 144"/>
<path stroke-width="0.5" stroke="black" d="M 174 182 209 86"/>
<path stroke-width="0.5" stroke="black" d="M 174 182 223 218"/>
<path stroke-width="0.5" stroke="black" d="M 174 182 169 147"/>
<path stroke-width="0.5" stroke="black" d="M 174 182 237 83"/>
<path stroke-width="6.731958762886598" stroke="black" d="M 174 182 121 199"/>
<path stroke-width="0.5" stroke="black" d="M 174 182 203 155"/>
<path stroke-width="0.5" stroke="black" d="M 174 182 148 149"/>
<path stroke-width="0.5" stroke="black" d="M 174 182 281 101"/>
<path stroke-width="0.5" stroke="black" d="M 174 182 296 118"/>
<path stroke-width="0.5" stroke="black" d="M 174 182 295 182"/>
<path stroke-width="0.5" stroke="black" d="M 174 182 188 105"/>
<path stroke-width="0.5" stroke="black" d="M 174 182 219 83"/>
<path stroke-width="0.5" stroke="black" d="M 174 182 276 206"/>
<path stroke-width="0.5" stroke="black" d="M 174 182 212 212"/>
<path stroke-width="0.5" stroke="black" d="M 174 182 183 126"/>
<path stroke-width="0.5" stroke="black" d="M 174 182 200 97"/>
<path stroke-width="0.5" stroke="black" d="M 174 182 250 210"/>
<path stroke-width="6.731958762886598" stroke="black" d="M 121 199 174 182"/>
<path stroke-width="0.5" stroke="black" d="M 237 83 254 163"/>
<path stroke-width="0.5" stroke="black" d="M 237 83 174 182"/>
<path stroke-width="0.5" stroke="black" d="M 237 83 203 155"/>
<path stroke-width="0.5" stroke="black" d="M 237 83 281 101"/>
<path stroke-width="0.5" stroke="black" d="M 237 83 200 97"/>
<path stroke-width="0.5" stroke="black" d="M 237 83 296 118"/>
<path stroke-width="0.5" stroke="black" d="M 237 83 295 182"/>
<path stroke-width="0.5" stroke="black" d="M 237 83 188 105"/>
<path stroke-width="0.5" stroke="black" d="M 237 83 219 83"/>
<path stroke-width="0.5" stroke="black" d="M 237 83 276 206"/>
<path stroke-width="0.5" stroke="black" d="M 237 83 212 212"/>
<path stroke-width="0.5" stroke="black" d="M 237 83 183 126"/>
<path stroke-width="0.5" stroke="black" d="M 237 83 193 203"/>
<path stroke-width="0.5" stroke="black" d="M 237 83 285 162"/>
<path stroke-width="0.5" stroke="black" d="M 237 83 291 148"/>
<path stroke-width="0.5" stroke="black" d="M 237 83 197 161"/>
<path stroke-width="0.5" stroke="black" d="M 237 83 255 140"/>
<path stroke-width="0.5" stroke="black" d="M 237 83 264 86"/>
<path stroke-width="0.5" stroke="black" d="M 174 182 193 203"/>
<path stroke-width="0.5" stroke="black" d="M 237 83 169 147"/>
<path stroke-width="0.5" stroke="black" d="M 174 182 285 162"/>
<path stroke-width="0.5" stroke="black" d="M 174 182 197 161"/>
<path stroke-width="0.5" stroke="black" d="M 203 155 183 126"/>
<path stroke-width="0.5" stroke="black" d="M 203 155 193 203"/>
<path stroke-width="0.5" stroke="black" d="M 203 155 285 162"/>
<path stroke-width="0.5" stroke="black" d="M 203 155 291 148"/>
<path stroke-width="0.5" stroke="black" d="M 203 155 197 161"/>
<path stroke-width="0.5" stroke="black" d="M 203 155 255 140"/>
<path stroke-width="0.5" stroke="black" d="M 203 155 264 86"/>
<path stroke-width="0.5" stroke="black" d="M 203 155 212 212"/>
<path stroke-width="0.5" stroke="black" d="M 203 155 254 163"/>
<path stroke-width="0.5" stroke="black" d="M 281 101 250 210"/>
<path stroke-width="0.5" stroke="black" d="M 281 101 148 149"/>
<path stroke-width="0.5" stroke="black" d="M 281 101 315 144"/>
<path stroke-width="0.5" stroke="black" d="M 281 101 209 86"/>
<path stroke-width="0.5" stroke="black" d="M 281 101 223 218"/>
<path stroke-width="0.5" stroke="black" d="M 281 101 169 147"/>
<path stroke-width="0.5" stroke="black" d="M 281 101 237 83"/>
<path stroke-width="8.340206185567009" stroke="black" d="M 322 74 281 101"/>
<path stroke-width="0.5" stroke="black" d="M 203 155 276 206"/>
<path stroke-width="0.5" stroke="black" d="M 203 155 219 83"/>
<path stroke-width="0.5" stroke="black" d="M 203 155 188 105"/>
<path stroke-width="0.5" stroke="black" d="M 174 182 255 140"/>
<path stroke-width="0.5" stroke="black" d="M 174 182 264 86"/>
<path stroke-width="0.5" stroke="black" d="M 174 182 254 163"/>
<path stroke-width="7.536082474226804" stroke="black" d="M 161 162 203 155"/>
<path stroke-width="0.5" stroke="black" d="M 203 155 250 210"/>
<path stroke-width="0.5" stroke="black" d="M 203 155 148 149"/>
<path stroke-width="0.5" stroke="black" d="M 203 155 315 144"/>
<path stroke-width="0.5" stroke="black" d="M 203 155 209 86"/>
<path stroke-width="0.5" stroke="black" d="M 203 155 223 218"/>
<path stroke-width="0.5" stroke="black" d="M 203 155 169 147"/>
<path stroke-width="0.5" stroke="black" d="M 203 155 237 83"/>
<path stroke-width="0.5" stroke="black" d="M 203 155 174 182"/>
<path stroke-width="7.536082474226804" stroke="black" d="M 203 155 161 162"/>
<path stroke-width="0.5" stroke="black" d="M 203 155 281 101"/>
<path stroke-width="0.5" stroke="black" d="M 203 155 200 97"/>
<path stroke-width="0.5" stroke="black" d="M 203 155 296 118"/>
<path stroke-width="0.5" stroke="black" d="M 203 155 295 182"/>
<path stroke-width="0.5" stroke="black" d="M 174 182 291 148"/>
<path stroke-width="20.0" stroke="black" d="M 254 163 271 177"/>
<circle cx="295" cy="320" r="7.0" style="fill:gray;stroke:black;stroke-width:1.0"/>
<circle cx="250" cy="210" r="7.0" style="fill:gray;stroke:black;stroke-width:1.0"/>
<circle cx="20" cy="150" r="7.0" style="fill:gray;stroke:black;stroke-width:1.0"/>
<circle cx="148" cy="149" r="7.0" style="fill:gray;stroke:black;stroke-width:1.0"/>
<circle cx="420" cy="143" r="7.0" style="fill:gray;stroke:black;stroke-width:1.0"/>
<circle cx="315" cy="144" r="7.0" style="fill:gray;stroke:black;stroke-width:1.0"/>
<circle cx="161" cy="21" r="7.0" style="fill:gray;stroke:black;stroke-width:1.0"/>
<circle cx="209" cy="86" r="7.0" style="fill:gray;stroke:black;stroke-width:1.0"/>
<circle cx="200" cy="288" r="7.0" style="fill:gray;stroke:black;stroke-width:1.0"/>
<circle cx="223" cy="218" r="7.0" style="fill:gray;stroke:black;stroke-width:1.0"/>
<circle cx="105" cy="146" r="7.0" style="fill:gray;stroke:black;stroke-width:1.0"/>
<circle cx="169" cy="147" r="7.0" style="fill:gray;stroke:black;stroke-width:1.0"/>
<circle cx="233" cy="20" r="7.0" style="fill:gray;stroke:black;stroke-width:1.0"/>
<circle cx="237" cy="83" r="7.0" style="fill:gray;stroke:black;stroke-width:1.0"/>
<circle cx="121" cy="199" r="7.0" style="fill:gray;stroke:black;stroke-width:1.0"/>
<circle cx="174" cy="182" r="7.0" style="fill:gray;stroke:black;stroke-width:1.0"/>
<circle cx="161" cy="162" r="7.0" style="fill:gray;stroke:black;stroke-width:1.0"/>
<circle cx="203" cy="155" r="7.0" style="fill:gray;stroke:black;stroke-width:1.0"/>
<circle cx="322" cy="74" r="7.0" style="fill:gray;stroke:black;stroke-width:1.0"/>
<circle cx="281" cy="101" r="7.0" style="fill:gray;stroke:black;stroke-width:1.0"/>
<circle cx="168" cy="63" r="7.0" style="fill:gray;stroke:black;stroke-width:1.0"/>
<circle cx="200" cy="97" r="7.0" style="fill:gray;stroke:black;stroke-width:1.0"/>
<circle cx="342" cy="107" r="7.0" style="fill:gray;stroke:black;stroke-width:1.0"/>
<circle cx="296" cy="118" r="7.0" style="fill:gray;stroke:black;stroke-width:1.0"/>
<circle cx="338" cy="196" r="7.0" style="fill:gray;stroke:black;stroke-width:1.0"/>
<circle cx="295" cy="182" r="7.0" style="fill:gray;stroke:black;stroke-width:1.0"/>
<circle cx="154" cy="82" r="7.0" style="fill:gray;stroke:black;stroke-width:1.0"/>
<circle cx="188" cy="105" r="7.0" style="fill:gray;stroke:black;stroke-width:1.0"/>
<circle cx="203" cy="42" r="7.0" style="fill:gray;stroke:black;stroke-width:1.0"/>
<circle cx="219" cy="83" r="7.0" style="fill:gray;stroke:black;stroke-width:1.0"/>
<circle cx="306" cy="232" r="7.0" style="fill:gray;stroke:black;stroke-width:1.0"/>
<circle cx="276" cy="206" r="7.0" style="fill:gray;stroke:black;stroke-width:1.0"/>
<circle cx="195" cy="247" r="7.0" style="fill:gray;stroke:black;stroke-width:1.0"/>
<circle cx="212" cy="212" r="7.0" style="fill:gray;stroke:black;stroke-width:1.0"/>
<circle cx="150" cy="116" r="7.0" style="fill:gray;stroke:black;stroke-width:1.0"/>
<circle cx="183" cy="126" r="7.0" style="fill:gray;stroke:black;stroke-width:1.0"/>
<circle cx="167" cy="228" r="7.0" style="fill:gray;stroke:black;stroke-width:1.0"/>
<circle cx="193" cy="203" r="7.0" style="fill:gray;stroke:black;stroke-width:1.0"/>
<circle cx="318" cy="169" r="7.0" style="fill:gray;stroke:black;stroke-width:1.0"/>
<circle cx="285" cy="162" r="7.0" style="fill:gray;stroke:black;stroke-width:1.0"/>
<circle cx="326" cy="149" r="7.0" style="fill:gray;stroke:black;stroke-width:1.0"/>
<circle cx="291" cy="148" r="7.0" style="fill:gray;stroke:black;stroke-width:1.0"/>
<circle cx="171" cy="170" r="7.0" style="fill:gray;stroke:black;stroke-width:1.0"/>
<circle cx="197" cy="161" r="7.0" style="fill:gray;stroke:black;stroke-width:1.0"/>
<circle cx="247" cy="146" r="7.0" style="fill:gray;stroke:black;stroke-width:1.0"/>
<circle cx="255" cy="140" r="7.0" style="fill:gray;stroke:black;stroke-width:1.0"/>
<circle cx="284" cy="58" r="7.0" style="fill:gray;stroke:black;stroke-width:1.0"/>
<circle cx="264" cy="86" r="7.0" style="fill:gray;stroke:black;stroke-width:1.0"/>
<circle cx="271" cy="177" r="7.0" style="fill:gray;stroke:black;stroke-width:1.0"/>
<circle cx="254" cy="163" r="7.0" style="fill:gray;stroke:black;stroke-width:1.0"/>
</svg>
