<svg width="440" height="340" xmlns="http://www.w3.org/2000/svg">
<path stroke-width="1" stroke="black" d="M 52 320 184 238"/>
<path stroke-width="1" stroke="black" d="M 275 103 301 228"/>
<path stroke-width="1" stroke="black" d="M 275 103 154 193"/>
<path stroke-width="1" stroke="black" d="M 275 103 244 263"/>
<path stroke-width="1" stroke="black" d="M 275 103 311 139"/>
<path stroke-width="1" stroke="black" d="M 275 103 260 163"/>
<path stroke-width="1" stroke="black" d="M 275 103 293 65"/>
<path stroke-width="1" stroke="black" d="M 275 103 221 269"/>
<path stroke-width="1" stroke="black" d="M 275 103 315 195"/>
<path stroke-width="1" stroke="black" d="M 275 103 179 159"/>
<path stroke-width="1" stroke="black" d="M 275 103 194 100"/>
<path stroke-width="1" stroke="black" d="M 275 103 283 250"/>
<path stroke-width="1" stroke="black" d="M 275 103 246 209"/>
<path stroke-width="1" stroke="black" d="M 275 103 166 219"/>
<path stroke-width="1" stroke="black" d="M 275 103 212 130"/>
<path stroke-width="1" stroke="black" d="M 210 306 221 269"/>
<path stroke-width="1" stroke="black" d="M 221 269 184 238"/>
<path stroke-width="1" stroke="black" d="M 275 103 199 145"/>
<path stroke-width="1" stroke="black" d="M 221 269 159 228"/>
<path stroke-width="1" stroke="black" d="M 275 103 239 93"/>
<path stroke-width="1" stroke="black" d="M 275 103 251 90"/>
<path stroke-width="1" stroke="black" d="M 260 163 221 269"/>
<path stroke-width="1" stroke="black" d="M 260 163 179 159"/>
<path stroke-width="1" stroke="black" d="M 260 163 199 145"/>
<path stroke-width="1" stroke="black" d="M 260 163 194 100"/>
<path stroke-width="1" stroke="black" d="M 260 163 283 250"/>
<path stroke-width="1" stroke="black" d="M 260 163 246 209"/>
<path stroke-width="1" stroke="black" d="M 260 163 166 219"/>
<path stroke-width="1" stroke="black" d="M 275 103 166 174"/>
<path stroke-width="1" stroke="black" d="M 260 163 212 130"/>
<path stroke-width="1" stroke="black" d="M 275 103 184 238"/>
<path stroke-width="1" stroke="black" d="M 275 103 159 228"/>
<path stroke-width="1" stroke="black" d="M 275 103 311 230"/>
<path stroke-width="1" stroke="black" d="M 275 103 201 105"/>
<path stroke-width="1" stroke="black" d="M 275 103 329 190"/>
<path stroke-width="1" stroke="black" d="M 275 103 310 125"/>
<path stroke-width="1" stroke="black" d="M 275 103 327 161"/>
<path stroke-width="1" stroke="black" d="M 293 65 275 103"/>
<path stroke-width="1" stroke="black" d="M 221 269 311 230"/>
<path stroke-width="1" stroke="black" d="M 221 269 201 105"/>
<path stroke-width="1" stroke="black" d="M 221 269 329 190"/>
<path stroke-width="1" stroke="black" d="M 179 159 184 238"/>
<path stroke-width="1" stroke="black" d="M 179 159 159 228"/>
<path stroke-width="1" stroke="black" d="M 179 159 311 230"/>
<path stroke-width="1" stroke="black" d="M 179 159 201 105"/>
<path stroke-width="1" stroke="black" d="M 179 159 329 190"/>
<path stroke-width="1" stroke="black" d="M 179 159 310 125"/>
<path stroke-width="1" stroke="black" d="M 179 159 327 161"/>
<path stroke-width="1" stroke="black" d="M 139 146 179 159"/>
<path stroke-width="1" stroke="black" d="M 179 159 251 90"/>
<path stroke-width="1" stroke="black" d="M 179 159 239 93"/>
<path stroke-width="1" stroke="black" d="M 179 159 315 195"/>
<path stroke-width="1" stroke="black" d="M 179 159 301 228"/>
<path stroke-width="1" stroke="black" d="M 179 159 154 193"/>
<path stroke-width="1" stroke="black" d="M 179 159 244 263"/>
<path stroke-width="1" stroke="black" d="M 179 159 311 139"/>
<path stroke-width="1" stroke="black" d="M 179 159 260 163"/>
<path stroke-width="1" stroke="black" d="M 179 159 166 174"/>
<path stroke-width="1" stroke="black" d="M 221 269 212 130"/>
<path stroke-width="1" stroke="black" d="M 221 269 166 219"/>
<path stroke-width="1" stroke="black" d="M 221 269 246 209"/>
<path stroke-width="1" stroke="black" d="M 221 269 310 125"/>
<path stroke-width="1" stroke="black" d="M 221 269 327 161"/>
<path stroke-width="1" stroke="black" d="M 221 269 251 90"/>
<path stroke-width="1" stroke="black" d="M 221 269 166 174"/>
<path stroke-width="1" stroke="black" d="M 221 269 239 93"/>
<path stroke-width="1" stroke="black" d="M 221 269 315 195"/>
<path stroke-width="1" stroke="black" d="M 221 269 301 228"/>
<path stroke-width="1" stroke="black" d="M 221 269 154 193"/>
<path stroke-width="1" stroke="black" d="M 221 269 244 263"/>
<path stroke-width="1" stroke="black" d="M 221 269 311 139"/>
<path stroke-width="1" stroke="black" d="M 221 269 260 163"/>
<path stroke-width="1" stroke="black" d="M 221 269 275 103"/>
<path stroke-width="1" stroke="black" d="M 221 269 210 306"/>
<path stroke-width="1" stroke="black" d="M 221 269 179 159"/>
<path stroke-width="1" stroke="black" d="M 221 269 199 145"/>
<path stroke-width="1" stroke="black" d="M 221 269 194 100"/>
<path stroke-width="1" stroke="black" d="M 221 269 283 250"/>
<path stroke-width="1" stroke="black" d="M 260 163 275 103"/>
<path stroke-width="1" stroke="black" d="M 179 159 275 103"/>
<path stroke-width="1" stroke="black" d="M 260 163 244 192"/>
<path stroke-width="1" stroke="black" d="M 260 163 244 263"/>
<path stroke-width="1" stroke="black" d="M 244 263 166 174"/>
<path stroke-width="1" stroke="black" d="M 244 263 239 93"/>
<path stroke-width="1" stroke="black" d="M 244 263 315 195"/>
<path stroke-width="1" stroke="black" d="M 244 263 301 228"/>
<path stroke-width="1" stroke="black" d="M 244 263 154 193"/>
<path stroke-width="1" stroke="black" d="M 244 263 247 308"/>
<path stroke-width="1" stroke="black" d="M 244 263 311 139"/>
<path stroke-width="1" stroke="black" d="M 244 263 251 90"/>
<path stroke-width="1" stroke="black" d="M 244 263 260 163"/>
<path stroke-width="1" stroke="black" d="M 244 263 221 269"/>
<path stroke-width="1" stroke="black" d="M 244 263 179 159"/>
<path stroke-width="1" stroke="black" d="M 244 263 199 145"/>
<path stroke-width="1" stroke="black" d="M 244 263 194 100"/>
<path stroke-width="1" stroke="black" d="M 244 263 283 250"/>
<path stroke-width="1" stroke="black" d="M 244 263 246 209"/>
<path stroke-width="1" stroke="black" d="M 244 263 166 219"/>
<path stroke-width="1" stroke="black" d="M 244 263 275 103"/>
<path stroke-width="1" stroke="black" d="M 244 263 212 130"/>
<path stroke-width="1" stroke="black" d="M 244 263 327 161"/>
<path stroke-width="1" stroke="black" d="M 244 263 329 190"/>
<path stroke-width="1" stroke="black" d="M 154 193 311 139"/>
<path stroke-width="1" stroke="black" d="M 154 193 260 163"/>
<path stroke-width="1" stroke="black" d="M 154 193 275 103"/>
<path stroke-width="1" stroke="black" d="M 154 193 221 269"/>
<path stroke-width="1" stroke="black" d="M 154 193 179 159"/>
<path stroke-width="1" stroke="black" d="M 154 193 199 145"/>
<path stroke-width="1" stroke="black" d="M 154 193 194 100"/>
<path stroke-width="1" stroke="black" d="M 244 263 310 125"/>
<path stroke-width="1" stroke="black" d="M 154 193 283 250"/>
<path stroke-width="1" stroke="black" d="M 154 193 166 219"/>
<path stroke-width="1" stroke="black" d="M 154 193 212 130"/>
<path stroke-width="1" stroke="black" d="M 247 308 244 263"/>
<path stroke-width="1" stroke="black" d="M 244 263 184 238"/>
<path stroke-width="1" stroke="black" d="M 244 263 159 228"/>
<path stroke-width="1" stroke="black" d="M 244 263 311 230"/>
<path stroke-width="1" stroke="black" d="M 244 263 201 105"/>
<path stroke-width="1" stroke="black" d="M 154 193 246 209"/>
<path stroke-width="1" stroke="black" d="M 359 122 311 139"/>
<path stroke-width="1" stroke="black" d="M 311 139 184 238"/>
<path stroke-width="1" stroke="black" d="M 311 139 159 228"/>
<path stroke-width="1" stroke="black" d="M 311 139 166 219"/>
<path stroke-width="1" stroke="black" d="M 311 139 212 130"/>
<path stroke-width="1" stroke="black" d="M 244 192 260 163"/>
<path stroke-width="1" stroke="black" d="M 260 163 184 238"/>
<path stroke-width="1" stroke="black" d="M 260 163 159 228"/>
<path stroke-width="1" stroke="black" d="M 260 163 311 230"/>
<path stroke-width="1" stroke="black" d="M 260 163 201 105"/>
<path stroke-width="1" stroke="black" d="M 311 139 246 209"/>
<path stroke-width="1" stroke="black" d="M 260 163 329 190"/>
<path stroke-width="1" stroke="black" d="M 260 163 327 161"/>
<path stroke-width="1" stroke="black" d="M 260 163 251 90"/>
<path stroke-width="1" stroke="black" d="M 260 163 166 174"/>
<path stroke-width="1" stroke="black" d="M 260 163 239 93"/>
<path stroke-width="1" stroke="black" d="M 260 163 315 195"/>
<path stroke-width="1" stroke="black" d="M 260 163 301 228"/>
<path stroke-width="1" stroke="black" d="M 260 163 154 193"/>
<path stroke-width="1" stroke="black" d="M 260 163 310 125"/>
<path stroke-width="1" stroke="black" d="M 311 139 283 250"/>
<path stroke-width="1" stroke="black" d="M 311 139 194 100"/>
<path stroke-width="1" stroke="black" d="M 311 139 199 145"/>
<path stroke-width="1" stroke="black" d="M 311 139 311 230"/>
<path stroke-width="1" stroke="black" d="M 311 139 201 105"/>
<path stroke-width="1" stroke="black" d="M 311 139 329 190"/>
<path stroke-width="1" stroke="black" d="M 311 139 310 125"/>
<path stroke-width="1" stroke="black" d="M 311 139 327 161"/>
<path stroke-width="1" stroke="black" d="M 311 139 251 90"/>
<path stroke-width="1" stroke="black" d="M 311 139 166 174"/>
<path stroke-width="1" stroke="black" d="M 311 139 239 93"/>
<path stroke-width="1" stroke="black" d="M 311 139 315 195"/>
<path stroke-width="1" stroke="black" d="M 311 139 301 228"/>
<path stroke-width="1" stroke="black" d="M 311 139 154 193"/>
<path stroke-width="1" stroke="black" d="M 311 139 244 263"/>
<path stroke-width="1" stroke="black" d="M 311 139 359 122"/>
<path stroke-width="1" stroke="black" d="M 311 139 260 163"/>
<path stroke-width="1" stroke="black" d="M 311 139 275 103"/>
<path stroke-width="1" stroke="black" d="M 311 139 221 269"/>
<path stroke-width="1" stroke="black" d="M 311 139 179 159"/>
<path stroke-width="1" stroke="black" d="M 260 163 311 139"/>
<path stroke-width="1" stroke="black" d="M 179 159 221 269"/>
<path stroke-width="1" stroke="black" d="M 179 159 139 146"/>
<path stroke-width="1" stroke="black" d="M 179 159 199 145"/>
<path stroke-width="1" stroke="black" d="M 246 209 179 159"/>
<path stroke-width="1" stroke="black" d="M 246 209 199 145"/>
<path stroke-width="1" stroke="black" d="M 246 209 194 100"/>
<path stroke-width="1" stroke="black" d="M 246 209 283 250"/>
<path stroke-width="1" stroke="black" d="M 246 209 246 233"/>
<path stroke-width="1" stroke="black" d="M 246 209 166 219"/>
<path stroke-width="1" stroke="black" d="M 246 209 212 130"/>
<path stroke-width="1" stroke="black" d="M 246 209 221 269"/>
<path stroke-width="1" stroke="black" d="M 134 227 166 219"/>
<path stroke-width="1" stroke="black" d="M 166 219 159 228"/>
<path stroke-width="1" stroke="black" d="M 166 219 311 230"/>
<path stroke-width="1" stroke="black" d="M 166 219 201 105"/>
<path stroke-width="1" stroke="black" d="M 166 219 329 190"/>
<path stroke-width="1" stroke="black" d="M 166 219 310 125"/>
<path stroke-width="1" stroke="black" d="M 166 219 327 161"/>
<path stroke-width="1" stroke="black" d="M 166 219 251 90"/>
<path stroke-width="1" stroke="black" d="M 166 219 184 238"/>
<path stroke-width="1" stroke="black" d="M 166 219 166 174"/>
<path stroke-width="1" stroke="black" d="M 246 209 275 103"/>
<path stroke-width="1" stroke="black" d="M 246 209 311 139"/>
<path stroke-width="1" stroke="black" d="M 283 250 212 130"/>
<path stroke-width="1" stroke="black" d="M 246 233 246 209"/>
<path stroke-width="1" stroke="black" d="M 246 209 184 238"/>
<path stroke-width="1" stroke="black" d="M 246 209 159 228"/>
<path stroke-width="1" stroke="black" d="M 246 209 311 230"/>
<path stroke-width="1" stroke="black" d="M 246 209 201 105"/>
<path stroke-width="1" stroke="black" d="M 246 209 329 190"/>
<path stroke-width="1" stroke="black" d="M 246 209 260 163"/>
<path stroke-width="1" stroke="black" d="M 246 209 310 125"/>
<path stroke-width="1" stroke="black" d="M 246 209 251 90"/>
<path stroke-width="1" stroke="black" d="M 246 209 166 174"/>
<path stroke-width="1" stroke="black" d="M 246 209 239 93"/>
<path stroke-width="1" stroke="black" d="M 246 209 315 195"/>
<path stroke-width="1" stroke="black" d="M 246 209 301 228"/>
<path stroke-width="1" stroke="black" d="M 246 209 154 193"/>
<path stroke-width="1" stroke="black" d="M 246 209 244 263"/>
<path stroke-width="1" stroke="black" d="M 246 209 327 161"/>
<path stroke-width="1" stroke="black" d="M 166 219 239 93"/>
<path stroke-width="1" stroke="black" d="M 166 219 315 195"/>
<path stroke-width="1" stroke="black" d="M 166 219 301 228"/>
<path stroke-width="1" stroke="black" d="M 212 130 251 90"/>
<path stroke-width="1" stroke="black" d="M 212 130 166 174"/>
<path stroke-width="1" stroke="black" d="M 212 130 239 93"/>
<path stroke-width="1" stroke="black" d="M 212 130 315 195"/>
<path stroke-width="1" stroke="black" d="M 212 130 301 228"/>
<path stroke-width="1" stroke="black" d="M 212 130 154 193"/>
<path stroke-width="1" stroke="black" d="M 212 130 244 263"/>
<path stroke-width="1" stroke="black" d="M 212 130 327 161"/>
<path stroke-width="1" stroke="black" d="M 212 130 311 139"/>
<path stroke-width="1" stroke="black" d="M 212 130 275 103"/>
<path stroke-width="1" stroke="black" d="M 212 130 221 269"/>
<path stroke-width="1" stroke="black" d="M 212 130 179 159"/>
<path stroke-width="1" stroke="black" d="M 212 130 199 145"/>
<path stroke-width="1" stroke="black" d="M 212 130 194 100"/>
<path stroke-width="1" stroke="black" d="M 212 130 283 250"/>
<path stroke-width="1" stroke="black" d="M 212 130 246 209"/>
<path stroke-width="1" stroke="black" d="M 212 130 260 163"/>
<path stroke-width="1" stroke="black" d="M 212 130 310 125"/>
<path stroke-width="1" stroke="black" d="M 212 130 329 190"/>
<path stroke-width="1" stroke="black" d="M 212 130 201 105"/>
<path stroke-width="1" stroke="black" d="M 166 219 154 193"/>
<path stroke-width="1" stroke="black" d="M 166 219 244 263"/>
<path stroke-width="1" stroke="black" d="M 166 219 311 139"/>
<path stroke-width="1" stroke="black" d="M 166 219 260 163"/>
<path stroke-width="1" stroke="black" d="M 166 219 275 103"/>
<path stroke-width="1" stroke="black" d="M 166 219 221 269"/>
<path stroke-width="1" stroke="black" d="M 166 219 179 159"/>
<path stroke-width="1" stroke="black" d="M 166 219 199 145"/>
<path stroke-width="1" stroke="black" d="M 166 219 194 100"/>
<path stroke-width="1" stroke="black" d="M 166 219 283 250"/>
<path stroke-width="1" stroke="black" d="M 166 219 246 209"/>
<path stroke-width="1" stroke="black" d="M 166 219 134 227"/>
<path stroke-width="1" stroke="black" d="M 166 219 212 130"/>
<path stroke-width="1" stroke="black" d="M 186 104 212 130"/>
<path stroke-width="1" stroke="black" d="M 212 130 184 238"/>
<path stroke-width="1" stroke="black" d="M 212 130 159 228"/>
<path stroke-width="1" stroke="black" d="M 212 130 311 230"/>
<path stroke-width="1" stroke="black" d="M 283 250 166 219"/>
<path stroke-width="1" stroke="black" d="M 283 250 246 209"/>
<path stroke-width="1" stroke="black" d="M 283 250 308 283"/>
<path stroke-width="1" stroke="black" d="M 283 250 194 100"/>
<path stroke-width="1" stroke="black" d="M 199 145 260 163"/>
<path stroke-width="1" stroke="black" d="M 199 145 275 103"/>
<path stroke-width="1" stroke="black" d="M 199 145 221 269"/>
<path stroke-width="1" stroke="black" d="M 199 145 179 159"/>
<path stroke-width="1" stroke="black" d="M 199 145 164 127"/>
<path stroke-width="1" stroke="black" d="M 199 145 194 100"/>
<path stroke-width="1" stroke="black" d="M 199 145 283 250"/>
<path stroke-width="1" stroke="black" d="M 199 145 311 139"/>
<path stroke-width="1" stroke="black" d="M 199 145 246 209"/>
<path stroke-width="1" stroke="black" d="M 199 145 212 130"/>
<path stroke-width="1" stroke="black" d="M 165 65 194 100"/>
<path stroke-width="1" stroke="black" d="M 194 100 184 238"/>
<path stroke-width="1" stroke="black" d="M 194 100 159 228"/>
<path stroke-width="1" stroke="black" d="M 194 100 311 230"/>
<path stroke-width="1" stroke="black" d="M 194 100 201 105"/>
<path stroke-width="1" stroke="black" d="M 194 100 329 190"/>
<path stroke-width="1" stroke="black" d="M 199 145 166 219"/>
<path stroke-width="1" stroke="black" d="M 199 145 244 263"/>
<path stroke-width="1" stroke="black" d="M 199 145 154 193"/>
<path stroke-width="1" stroke="black" d="M 199 145 301 228"/>
<path stroke-width="1" stroke="black" d="M 179 159 194 100"/>
<path stroke-width="1" stroke="black" d="M 179 159 283 250"/>
<path stroke-width="1" stroke="black" d="M 179 159 246 209"/>
<path stroke-width="1" stroke="black" d="M 179 159 166 219"/>
<path stroke-width="1" stroke="black" d="M 179 159 212 130"/>
<path stroke-width="1" stroke="black" d="M 164 127 199 145"/>
<path stroke-width="1" stroke="black" d="M 199 145 184 238"/>
<path stroke-width="1" stroke="black" d="M 199 145 159 228"/>
<path stroke-width="1" stroke="black" d="M 199 145 311 230"/>
<path stroke-width="1" stroke="black" d="M 199 145 201 105"/>
<path stroke-width="1" stroke="black" d="M 199 145 329 190"/>
<path stroke-width="1" stroke="black" d="M 199 145 310 125"/>
<path stroke-width="1" stroke="black" d="M 199 145 327 161"/>
<path stroke-width="1" stroke="black" d="M 199 145 251 90"/>
<path stroke-width="1" stroke="black" d="M 199 145 166 174"/>
<path stroke-width="1" stroke="black" d="M 199 145 239 93"/>
<path stroke-width="1" stroke="black" d="M 199 145 315 195"/>
<path stroke-width="1" stroke="black" d="M 194 100 310 125"/>
<path stroke-width="1" stroke="black" d="M 154 193 244 263"/>
<path stroke-width="1" stroke="black" d="M 194 100 327 161"/>
<path stroke-width="1" stroke="black" d="M 194 100 166 174"/>
<path stroke-width="1" stroke="black" d="M 283 250 329 190"/>
<path stroke-width="1" stroke="black" d="M 283 250 310 125"/>
<path stroke-width="1" stroke="black" d="M 283 250 327 161"/>
<path stroke-width="1" stroke="black" d="M 283 250 251 90"/>
<path stroke-width="1" stroke="black" d="M 283 250 166 174"/>
<path stroke-width="1" stroke="black" d="M 283 250 239 93"/>
<path stroke-width="1" stroke="black" d="M 283 250 315 195"/>
<path stroke-width="1" stroke="black" d="M 283 250 201 105"/>
<path stroke-width="1" stroke="black" d="M 283 250 301 228"/>
<path stroke-width="1" stroke="black" d="M 283 250 244 263"/>
<path stroke-width="1" stroke="black" d="M 283 250 311 139"/>
<path stroke-width="1" stroke="black" d="M 283 250 260 163"/>
<path stroke-width="1" stroke="black" d="M 283 250 275 103"/>
<path stroke-width="1" stroke="black" d="M 283 250 221 269"/>
<path stroke-width="1" stroke="black" d="M 283 250 179 159"/>
<path stroke-width="1" stroke="black" d="M 283 250 199 145"/>
<path stroke-width="1" stroke="black" d="M 283 250 154 193"/>
<path stroke-width="1" stroke="black" d="M 283 250 311 230"/>
<path stroke-width="1" stroke="black" d="M 283 250 159 228"/>
<path stroke-width="1" stroke="black" d="M 283 250 184 238"/>
<path stroke-width="1" stroke="black" d="M 194 100 239 93"/>
<path stroke-width="1" stroke="black" d="M 194 100 315 195"/>
<path stroke-width="1" stroke="black" d="M 194 100 301 228"/>
<path stroke-width="1" stroke="black" d="M 194 100 154 193"/>
<path stroke-width="1" stroke="black" d="M 194 100 244 263"/>
<path stroke-width="1" stroke="black" d="M 194 100 311 139"/>
<path stroke-width="1" stroke="black" d="M 194 100 260 163"/>
<path stroke-width="1" stroke="black" d="M 194 100 275 103"/>
<path stroke-width="1" stroke="black" d="M 194 100 221 269"/>
<path stroke-width="1" stroke="black" d="M 194 100 179 159"/>
<path stroke-width="1" stroke="black" d="M 194 100 199 145"/>
<path stroke-width="1" stroke="black" d="M 194 100 165 65"/>
<path stroke-width="1" stroke="black" d="M 194 100 283 250"/>
<path stroke-width="1" stroke="black" d="M 194 100 246 209"/>
<path stroke-width="1" stroke="black" d="M 194 100 166 219"/>
<path stroke-width="1" stroke="black" d="M 194 100 212 130"/>
<path stroke-width="1" stroke="black" d="M 308 283 283 250"/>
<path stroke-width="1" stroke="black" d="M 194 100 251 90"/>
<path stroke-width="1" stroke="black" d="M 154 193 101 196"/>
<path stroke-width="1" stroke="black" d="M 154 193 301 228"/>
<path stroke-width="1" stroke="black" d="M 154 193 315 195"/>
<path stroke-width="1" stroke="black" d="M 201 105 212 130"/>
<path stroke-width="1" stroke="black" d="M 420 209 329 190"/>
<path stroke-width="1" stroke="black" d="M 329 190 184 238"/>
<path stroke-width="1" stroke="black" d="M 329 190 159 228"/>
<path stroke-width="1" stroke="black" d="M 329 190 311 230"/>
<path stroke-width="1" stroke="black" d="M 329 190 201 105"/>
<path stroke-width="1" stroke="black" d="M 329 190 420 209"/>
<path stroke-width="1" stroke="black" d="M 201 105 166 219"/>
<path stroke-width="1" stroke="black" d="M 329 190 310 125"/>
<path stroke-width="1" stroke="black" d="M 329 190 251 90"/>
<path stroke-width="1" stroke="black" d="M 329 190 166 174"/>
<path stroke-width="1" stroke="black" d="M 329 190 239 93"/>
<path stroke-width="1" stroke="black" d="M 329 190 315 195"/>
<path stroke-width="1" stroke="black" d="M 329 190 301 228"/>
<path stroke-width="1" stroke="black" d="M 329 190 154 193"/>
<path stroke-width="1" stroke="black" d="M 329 190 244 263"/>
<path stroke-width="1" stroke="black" d="M 329 190 327 161"/>
<path stroke-width="1" stroke="black" d="M 329 190 311 139"/>
<path stroke-width="1" stroke="black" d="M 201 105 246 209"/>
<path stroke-width="1" stroke="black" d="M 201 105 194 100"/>
<path stroke-width="1" stroke="black" d="M 201 105 329 190"/>
<path stroke-width="1" stroke="black" d="M 201 105 310 125"/>
<path stroke-width="1" stroke="black" d="M 201 105 327 161"/>
<path stroke-width="1" stroke="black" d="M 201 105 251 90"/>
<path stroke-width="1" stroke="black" d="M 201 105 166 174"/>
<path stroke-width="1" stroke="black" d="M 201 105 239 93"/>
<path stroke-width="1" stroke="black" d="M 201 105 315 195"/>
<path stroke-width="1" stroke="black" d="M 201 105 283 250"/>
<path stroke-width="1" stroke="black" d="M 201 105 301 228"/>
<path stroke-width="1" stroke="black" d="M 201 105 244 263"/>
<path stroke-width="1" stroke="black" d="M 201 105 311 139"/>
<path stroke-width="1" stroke="black" d="M 201 105 260 163"/>
<path stroke-width="1" stroke="black" d="M 201 105 275 103"/>
<path stroke-width="1" stroke="black" d="M 201 105 221 269"/>
<path stroke-width="1" stroke="black" d="M 201 105 179 159"/>
<path stroke-width="1" stroke="black" d="M 201 105 199 145"/>
<path stroke-width="1" stroke="black" d="M 201 105 154 193"/>
<path stroke-width="1" stroke="black" d="M 329 190 260 163"/>
<path stroke-width="1" stroke="black" d="M 329 190 275 103"/>
<path stroke-width="1" stroke="black" d="M 329 190 221 269"/>
<path stroke-width="1" stroke="black" d="M 310 125 244 263"/>
<path stroke-width="1" stroke="black" d="M 310 125 311 139"/>
<path stroke-width="1" stroke="black" d="M 310 125 260 163"/>
<path stroke-width="1" stroke="black" d="M 310 125 275 103"/>
<path stroke-width="1" stroke="black" d="M 310 125 221 269"/>
<path stroke-width="1" stroke="black" d="M 310 125 179 159"/>
<path stroke-width="1" stroke="black" d="M 310 125 199 145"/>
<path stroke-width="1" stroke="black" d="M 310 125 154 193"/>
<path stroke-width="1" stroke="black" d="M 310 125 194 100"/>
<path stroke-width="1" stroke="black" d="M 310 125 246 209"/>
<path stroke-width="1" stroke="black" d="M 310 125 166 219"/>
<path stroke-width="1" stroke="black" d="M 310 125 212 130"/>
<path stroke-width="1" stroke="black" d="M 404 154 327 161"/>
<path stroke-width="1" stroke="black" d="M 327 161 184 238"/>
<path stroke-width="1" stroke="black" d="M 327 161 159 228"/>
<path stroke-width="1" stroke="black" d="M 327 161 311 230"/>
<path stroke-width="1" stroke="black" d="M 310 125 283 250"/>
<path stroke-width="1" stroke="black" d="M 310 125 301 228"/>
<path stroke-width="1" stroke="black" d="M 310 125 315 195"/>
<path stroke-width="1" stroke="black" d="M 310 125 239 93"/>
<path stroke-width="1" stroke="black" d="M 329 190 179 159"/>
<path stroke-width="1" stroke="black" d="M 329 190 199 145"/>
<path stroke-width="1" stroke="black" d="M 329 190 194 100"/>
<path stroke-width="1" stroke="black" d="M 329 190 283 250"/>
<path stroke-width="1" stroke="black" d="M 329 190 246 209"/>
<path stroke-width="1" stroke="black" d="M 329 190 166 219"/>
<path stroke-width="1" stroke="black" d="M 329 190 212 130"/>
<path stroke-width="1" stroke="black" d="M 381 81 310 125"/>
<path stroke-width="1" stroke="black" d="M 310 125 184 238"/>
<path stroke-width="1" stroke="black" d="M 310 125 159 228"/>
<path stroke-width="1" stroke="black" d="M 310 125 311 230"/>
<path stroke-width="1" stroke="black" d="M 310 125 201 105"/>
<path stroke-width="1" stroke="black" d="M 310 125 329 190"/>
<path stroke-width="1" stroke="black" d="M 310 125 381 81"/>
<path stroke-width="1" stroke="black" d="M 310 125 327 161"/>
<path stroke-width="1" stroke="black" d="M 310 125 251 90"/>
<path stroke-width="1" stroke="black" d="M 310 125 166 174"/>
<path stroke-width="1" stroke="black" d="M 201 105 133 34"/>
<path stroke-width="1" stroke="black" d="M 201 105 311 230"/>
<path stroke-width="1" stroke="black" d="M 201 105 159 228"/>
<path stroke-width="1" stroke="black" d="M 201 105 184 238"/>
<path stroke-width="1" stroke="black" d="M 184 238 283 250"/>
<path stroke-width="1" stroke="black" d="M 184 238 246 209"/>
<path stroke-width="1" stroke="black" d="M 184 238 166 219"/>
<path stroke-width="1" stroke="black" d="M 184 238 212 130"/>
<path stroke-width="1" stroke="black" d="M 20 268 159 228"/>
<path stroke-width="1" stroke="black" d="M 159 228 184 238"/>
<path stroke-width="1" stroke="black" d="M 159 228 20 268"/>
<path stroke-width="1" stroke="black" d="M 184 238 194 100"/>
<path stroke-width="1" stroke="black" d="M 159 228 311 230"/>
<path stroke-width="1" stroke="black" d="M 159 228 329 190"/>
<path stroke-width="1" stroke="black" d="M 159 228 310 125"/>
<path stroke-width="1" stroke="black" d="M 159 228 327 161"/>
<path stroke-width="1" stroke="black" d="M 159 228 251 90"/>
<path stroke-width="1" stroke="black" d="M 159 228 166 174"/>
<path stroke-width="1" stroke="black" d="M 159 228 239 93"/>
<path stroke-width="1" stroke="black" d="M 159 228 315 195"/>
<path stroke-width="1" stroke="black" d="M 159 228 201 105"/>
<path stroke-width="1" stroke="black" d="M 184 238 199 145"/>
<path stroke-width="1" stroke="black" d="M 184 238 179 159"/>
<path stroke-width="1" stroke="black" d="M 184 238 221 269"/>
<path stroke-width="1" stroke="black" d="M 184 238 52 320"/>
<path stroke-width="1" stroke="black" d="M 184 238 159 228"/>
<path stroke-width="1" stroke="black" d="M 184 238 311 230"/>
<path stroke-width="1" stroke="black" d="M 184 238 201 105"/>
<path stroke-width="1" stroke="black" d="M 184 238 329 190"/>
<path stroke-width="1" stroke="black" d="M 184 238 310 125"/>
<path stroke-width="1" stroke="black" d="M 184 238 327 161"/>
<path stroke-width="1" stroke="black" d="M 184 238 251 90"/>
<path stroke-width="1" stroke="black" d="M 184 238 166 174"/>
<path stroke-width="1" stroke="black" d="M 184 238 239 93"/>
<path stroke-width="1" stroke="black" d="M 184 238 315 195"/>
<path stroke-width="1" stroke="black" d="M 184 238 301 228"/>
<path stroke-width="1" stroke="black" d="M 184 238 154 193"/>
<path stroke-width="1" stroke="black" d="M 184 238 244 263"/>
<path stroke-width="1" stroke="black" d="M 184 238 311 139"/>
<path stroke-width="1" stroke="black" d="M 184 238 260 163"/>
<path stroke-width="1" stroke="black" d="M 184 238 275 103"/>
<path stroke-width="1" stroke="black" d="M 159 228 301 228"/>
<path stroke-width="1" stroke="black" d="M 327 161 201 105"/>
<path stroke-width="1" stroke="black" d="M 159 228 154 193"/>
<path stroke-width="1" stroke="black" d="M 159 228 311 139"/>
<path stroke-width="1" stroke="black" d="M 311 230 315 195"/>
<path stroke-width="1" stroke="black" d="M 311 230 301 228"/>
<path stroke-width="1" stroke="black" d="M 311 230 154 193"/>
<path stroke-width="1" stroke="black" d="M 311 230 244 263"/>
<path stroke-width="1" stroke="black" d="M 311 230 311 139"/>
<path stroke-width="1" stroke="black" d="M 311 230 260 163"/>
<path stroke-width="1" stroke="black" d="M 311 230 275 103"/>
<path stroke-width="1" stroke="black" d="M 311 230 239 93"/>
<path stroke-width="1" stroke="black" d="M 311 230 221 269"/>
<path stroke-width="1" stroke="black" d="M 311 230 199 145"/>
<path stroke-width="1" stroke="black" d="M 311 230 194 100"/>
<path stroke-width="1" stroke="black" d="M 311 230 283 250"/>
<path stroke-width="1" stroke="black" d="M 311 230 246 209"/>
<path stroke-width="1" stroke="black" d="M 311 230 166 219"/>
<path stroke-width="1" stroke="black" d="M 311 230 212 130"/>
<path stroke-width="1" stroke="black" d="M 133 34 201 105"/>
<path stroke-width="1" stroke="black" d="M 311 230 179 159"/>
<path stroke-width="1" stroke="black" d="M 311 230 166 174"/>
<path stroke-width="1" stroke="black" d="M 311 230 251 90"/>
<path stroke-width="1" stroke="black" d="M 311 230 327 161"/>
<path stroke-width="1" stroke="black" d="M 159 228 260 163"/>
<path stroke-width="1" stroke="black" d="M 159 228 275 103"/>
<path stroke-width="1" stroke="black" d="M 159 228 221 269"/>
<path stroke-width="1" stroke="black" d="M 159 228 179 159"/>
<path stroke-width="1" stroke="black" d="M 159 228 199 145"/>
<path stroke-width="1" stroke="black" d="M 159 228 194 100"/>
<path stroke-width="1" stroke="black" d="M 159 228 283 250"/>
<path stroke-width="1" stroke="black" d="M 159 228 246 209"/>
<path stroke-width="1" stroke="black" d="M 159 228 166 219"/>
<path stroke-width="1" stroke="black" d="M 159 228 212 130"/>
<path stroke-width="1" stroke="black" d="M 412 293 311 230"/>
<path stroke-width="1" stroke="black" d="M 311 230 184 238"/>
<path stroke-width="1" stroke="black" d="M 311 230 159 228"/>
<path stroke-width="1" stroke="black" d="M 311 230 412 293"/>
<path stroke-width="1" stroke="black" d="M 311 230 201 105"/>
<path stroke-width="1" stroke="black" d="M 311 230 329 190"/>
<path stroke-width="1" stroke="black" d="M 311 230 310 125"/>
<path stroke-width="1" stroke="black" d="M 159 228 244 263"/>
<path stroke-width="1" stroke="black" d="M 212 130 166 219"/>
<path stroke-width="1" stroke="black" d="M 327 161 329 190"/>
<path stroke-width="1" stroke="black" d="M 327 161 404 154"/>
<path stroke-width="1" stroke="black" d="M 315 195 310 125"/>
<path stroke-width="1" stroke="black" d="M 315 195 327 161"/>
<path stroke-width="1" stroke="black" d="M 315 195 251 90"/>
<path stroke-width="1" stroke="black" d="M 315 195 166 174"/>
<path stroke-width="1" stroke="black" d="M 315 195 239 93"/>
<path stroke-width="1" stroke="black" d="M 315 195 372 212"/>
<path stroke-width="1" stroke="black" d="M 315 195 301 228"/>
<path stroke-width="1" stroke="black" d="M 315 195 329 190"/>
<path stroke-width="1" stroke="black" d="M 315 195 154 193"/>
<path stroke-width="1" stroke="black" d="M 315 195 311 139"/>
<path stroke-width="1" stroke="black" d="M 315 195 260 163"/>
<path stroke-width="1" stroke="black" d="M 315 195 275 103"/>
<path stroke-width="1" stroke="black" d="M 315 195 221 269"/>
<path stroke-width="1" stroke="black" d="M 315 195 179 159"/>
<path stroke-width="1" stroke="black" d="M 315 195 199 145"/>
<path stroke-width="1" stroke="black" d="M 315 195 194 100"/>
<path stroke-width="1" stroke="black" d="M 315 195 244 263"/>
<path stroke-width="1" stroke="black" d="M 315 195 283 250"/>
<path stroke-width="1" stroke="black" d="M 315 195 201 105"/>
<path stroke-width="1" stroke="black" d="M 315 195 159 228"/>
<path stroke-width="1" stroke="black" d="M 239 93 301 228"/>
<path stroke-width="1" stroke="black" d="M 239 93 154 193"/>
<path stroke-width="1" stroke="black" d="M 239 93 244 263"/>
<path stroke-width="1" stroke="black" d="M 239 93 311 139"/>
<path stroke-width="1" stroke="black" d="M 239 93 260 163"/>
<path stroke-width="1" stroke="black" d="M 239 93 275 103"/>
<path stroke-width="1" stroke="black" d="M 239 93 221 269"/>
<path stroke-width="1" stroke="black" d="M 315 195 311 230"/>
<path stroke-width="1" stroke="black" d="M 239 93 179 159"/>
<path stroke-width="1" stroke="black" d="M 239 93 194 100"/>
<path stroke-width="1" stroke="black" d="M 239 93 283 250"/>
<path stroke-width="1" stroke="black" d="M 239 93 246 209"/>
<path stroke-width="1" stroke="black" d="M 239 93 166 219"/>
<path stroke-width="1" stroke="black" d="M 239 93 212 130"/>
<path stroke-width="1" stroke="black" d="M 372 212 315 195"/>
<path stroke-width="1" stroke="black" d="M 315 195 184 238"/>
<path stroke-width="1" stroke="black" d="M 239 93 199 145"/>
<path stroke-width="1" stroke="black" d="M 315 195 246 209"/>
<path stroke-width="1" stroke="black" d="M 315 195 166 219"/>
<path stroke-width="1" stroke="black" d="M 315 195 212 130"/>
<path stroke-width="1" stroke="black" d="M 301 228 194 100"/>
<path stroke-width="1" stroke="black" d="M 301 228 283 250"/>
<path stroke-width="1" stroke="black" d="M 301 228 246 209"/>
<path stroke-width="1" stroke="black" d="M 301 228 166 219"/>
<path stroke-width="1" stroke="black" d="M 301 228 212 130"/>
<path stroke-width="1" stroke="black" d="M 101 196 154 193"/>
<path stroke-width="1" stroke="black" d="M 154 193 184 238"/>
<path stroke-width="1" stroke="black" d="M 301 228 199 145"/>
<path stroke-width="1" stroke="black" d="M 154 193 159 228"/>
<path stroke-width="1" stroke="black" d="M 154 193 201 105"/>
<path stroke-width="1" stroke="black" d="M 154 193 329 190"/>
<path stroke-width="1" stroke="black" d="M 154 193 310 125"/>
<path stroke-width="1" stroke="black" d="M 154 193 327 161"/>
<path stroke-width="1" stroke="black" d="M 154 193 251 90"/>
<path stroke-width="1" stroke="black" d="M 154 193 166 174"/>
<path stroke-width="1" stroke="black" d="M 154 193 239 93"/>
<path stroke-width="1" stroke="black" d="M 154 193 311 230"/>
<path stroke-width="1" stroke="black" d="M 301 228 179 159"/>
<path stroke-width="1" stroke="black" d="M 301 228 221 269"/>
<path stroke-width="1" stroke="black" d="M 301 228 275 103"/>
<path stroke-width="1" stroke="black" d="M 348 260 301 228"/>
<path stroke-width="1" stroke="black" d="M 301 228 184 238"/>
<path stroke-width="1" stroke="black" d="M 301 228 159 228"/>
<path stroke-width="1" stroke="black" d="M 301 228 311 230"/>
<path stroke-width="1" stroke="black" d="M 301 228 201 105"/>
<path stroke-width="1" stroke="black" d="M 301 228 329 190"/>
<path stroke-width="1" stroke="black" d="M 301 228 310 125"/>
<path stroke-width="1" stroke="black" d="M 301 228 327 161"/>
<path stroke-width="1" stroke="black" d="M 301 228 251 90"/>
<path stroke-width="1" stroke="black" d="M 301 228 166 174"/>
<path stroke-width="1" stroke="black" d="M 301 228 239 93"/>
<path stroke-width="1" stroke="black" d="M 301 228 315 195"/>
<path stroke-width="1" stroke="black" d="M 301 228 348 260"/>
<path stroke-width="1" stroke="black" d="M 301 228 154 193"/>
<path stroke-width="1" stroke="black" d="M 301 228 244 263"/>
<path stroke-width="1" stroke="black" d="M 301 228 311 139"/>
<path stroke-width="1" stroke="black" d="M 301 228 260 163"/>
<path stroke-width="1" stroke="black" d="M 239 93 315 195"/>
<path stroke-width="1" stroke="black" d="M 239 93 227 33"/>
<path stroke-width="1" stroke="black" d="M 239 93 166 174"/>
<path stroke-width="1" stroke="black" d="M 239 93 251 90"/>
<path stroke-width="1" stroke="black" d="M 251 90 311 230"/>
<path stroke-width="1" stroke="black" d="M 251 90 201 105"/>
<path stroke-width="1" stroke="black" d="M 251 90 329 190"/>
<path stroke-width="1" stroke="black" d="M 251 90 310 125"/>
<path stroke-width="1" stroke="black" d="M 251 90 327 161"/>
<path stroke-width="1" stroke="black" d="M 251 90 255 20"/>
<path stroke-width="1" stroke="black" d="M 251 90 166 174"/>
<path stroke-width="1" stroke="black" d="M 251 90 159 228"/>
<path stroke-width="1" stroke="black" d="M 251 90 239 93"/>
<path stroke-width="1" stroke="black" d="M 251 90 301 228"/>
<path stroke-width="1" stroke="black" d="M 251 90 154 193"/>
<path stroke-width="1" stroke="black" d="M 251 90 244 263"/>
<path stroke-width="1" stroke="black" d="M 251 90 311 139"/>
<path stroke-width="1" stroke="black" d="M 251 90 260 163"/>
<path stroke-width="1" stroke="black" d="M 251 90 275 103"/>
<path stroke-width="1" stroke="black" d="M 251 90 221 269"/>
<path stroke-width="1" stroke="black" d="M 251 90 315 195"/>
<path stroke-width="1" stroke="black" d="M 251 90 184 238"/>
<path stroke-width="1" stroke="black" d="M 255 20 251 90"/>
<path stroke-width="1" stroke="black" d="M 327 161 212 130"/>
<path stroke-width="1" stroke="black" d="M 327 161 251 90"/>
<path stroke-width="1" stroke="black" d="M 327 161 166 174"/>
<path stroke-width="1" stroke="black" d="M 327 161 239 93"/>
<path stroke-width="1" stroke="black" d="M 327 161 315 195"/>
<path stroke-width="1" stroke="black" d="M 327 161 301 228"/>
<path stroke-width="1" stroke="black" d="M 327 161 154 193"/>
<path stroke-width="1" stroke="black" d="M 327 161 244 263"/>
<path stroke-width="1" stroke="black" d="M 327 161 311 139"/>
<path stroke-width="1" stroke="black" d="M 327 161 260 163"/>
<path stroke-width="1" stroke="black" d="M 327 161 275 103"/>
<path stroke-width="1" stroke="black" d="M 327 161 221 269"/>
<path stroke-width="1" stroke="black" d="M 327 161 179 159"/>
<path stroke-width="1" stroke="black" d="M 327 161 199 145"/>
<path stroke-width="1" stroke="black" d="M 327 161 194 100"/>
<path stroke-width="1" stroke="black" d="M 327 161 283 250"/>
<path stroke-width="1" stroke="black" d="M 327 161 246 209"/>
<path stroke-width="1" stroke="black" d="M 327 161 166 219"/>
<path stroke-width="1" stroke="black" d="M 251 90 179 159"/>
<path stroke-width="1" stroke="black" d="M 327 161 310 125"/>
<path stroke-width="1" stroke="black" d="M 251 90 199 145"/>
<path stroke-width="1" stroke="black" d="M 251 90 283 250"/>
<path stroke-width="1" stroke="black" d="M 166 174 221 269"/>
<path stroke-width="1" stroke="black" d="M 166 174 179 159"/>
<path stroke-width="1" stroke="black" d="M 166 174 199 145"/>
<path stroke-width="1" stroke="black" d="M 166 174 194 100"/>
<path stroke-width="1" stroke="black" d="M 166 174 283 250"/>
<path stroke-width="1" stroke="black" d="M 166 174 246 209"/>
<path stroke-width="1" stroke="black" d="M 166 174 166 219"/>
<path stroke-width="1" stroke="black" d="M 166 174 275 103"/>
<path stroke-width="1" stroke="black" d="M 166 174 212 130"/>
<path stroke-width="1" stroke="black" d="M 239 93 184 238"/>
<path stroke-width="1" stroke="black" d="M 239 93 159 228"/>
<path stroke-width="1" stroke="black" d="M 239 93 311 230"/>
<path stroke-width="1" stroke="black" d="M 239 93 201 105"/>
<path stroke-width="1" stroke="black" d="M 239 93 329 190"/>
<path stroke-width="1" stroke="black" d="M 239 93 310 125"/>
<path stroke-width="1" stroke="black" d="M 239 93 327 161"/>
<path stroke-width="1" stroke="black" d="M 227 33 239 93"/>
<path stroke-width="1" stroke="black" d="M 166 174 260 163"/>
<path stroke-width="1" stroke="black" d="M 166 174 311 139"/>
<path stroke-width="1" stroke="black" d="M 166 174 244 263"/>
<path stroke-width="1" stroke="black" d="M 251 90 246 209"/>
<path stroke-width="1" stroke="black" d="M 251 90 166 219"/>
<path stroke-width="1" stroke="black" d="M 251 90 212 130"/>
<path stroke-width="1" stroke="black" d="M 103 164 166 174"/>
<path stroke-width="1" stroke="black" d="M 166 174 184 238"/>
<path stroke-width="1" stroke="black" d="M 166 174 159 228"/>
<path stroke-width="1" stroke="black" d="M 166 174 311 230"/>
<path stroke-width="1" stroke="black" d="M 166 174 201 105"/>
<path stroke-width="1" stroke="black" d="M 166 174 329 190"/>
<path stroke-width="1" stroke="black" d="M 166 174 310 125"/>
<path stroke-width="1" stroke="black" d="M 166 174 327 161"/>
<path stroke-width="1" stroke="black" d="M 166 174 251 90"/>
<path stroke-width="1" stroke="black" d="M 166 174 103 164"/>
<path stroke-width="1" stroke="black" d="M 166 174 239 93"/>
<path stroke-width="1" stroke="black" d="M 166 174 315 195"/>
<path stroke-width="1" stroke="black" d="M 166 174 301 228"/>
<path stroke-width="1" stroke="black" d="M 166 174 154 193"/>
<path stroke-width="1" stroke="black" d="M 251 90 194 100"/>
<path stroke-width="1" stroke="black" d="M 212 130 186 104"/>
<circle cx="52" cy="320" r="7.0" style="fill:gray;stroke:black;stroke-width:1.0"/>
<circle cx="184" cy="238" r="7.0" style="fill:gray;stroke:black;stroke-width:1.0"/>
<circle cx="20" cy="268" r="7.0" style="fill:gray;stroke:black;stroke-width:1.0"/>
<circle cx="159" cy="228" r="7.0" style="fill:gray;stroke:black;stroke-width:1.0"/>
<circle cx="412" cy="293" r="7.0" style="fill:gray;stroke:black;stroke-width:1.0"/>
<circle cx="311" cy="230" r="7.0" style="fill:gray;stroke:black;stroke-width:1.0"/>
<circle cx="133" cy="34" r="7.0" style="fill:gray;stroke:black;stroke-width:1.0"/>
<circle cx="201" cy="105" r="7.0" style="fill:gray;stroke:black;stroke-width:1.0"/>
<circle cx="420" cy="209" r="7.0" style="fill:gray;stroke:black;stroke-width:1.0"/>
<circle cx="329" cy="190" r="7.0" style="fill:gray;stroke:black;stroke-width:1.0"/>
<circle cx="381" cy="81" r="7.0" style="fill:gray;stroke:black;stroke-width:1.0"/>
<circle cx="310" cy="125" r="7.0" style="fill:gray;stroke:black;stroke-width:1.0"/>
<circle cx="404" cy="154" r="7.0" style="fill:gray;stroke:black;stroke-width:1.0"/>
<circle cx="327" cy="161" r="7.0" style="fill:gray;stroke:black;stroke-width:1.0"/>
<circle cx="255" cy="20" r="7.0" style="fill:gray;stroke:black;stroke-width:1.0"/>
<circle cx="251" cy="90" r="7.0" style="fill:gray;stroke:black;stroke-width:1.0"/>
<circle cx="103" cy="164" r="7.0" style="fill:gray;stroke:black;stroke-width:1.0"/>
<circle cx="166" cy="174" r="7.0" style="fill:gray;stroke:black;stroke-width:1.0"/>
<circle cx="227" cy="33" r="7.0" style="fill:gray;stroke:black;stroke-width:1.0"/>
<circle cx="239" cy="93" r="7.0" style="fill:gray;stroke:black;stroke-width:1.0"/>
<circle cx="372" cy="212" r="7.0" style="fill:gray;stroke:black;stroke-width:1.0"/>
<circle cx="315" cy="195" r="7.0" style="fill:gray;stroke:black;stroke-width:1.0"/>
<circle cx="348" cy="260" r="7.0" style="fill:gray;stroke:black;stroke-width:1.0"/>
<circle cx="301" cy="228" r="7.0" style="fill:gray;stroke:black;stroke-width:1.0"/>
<circle cx="101" cy="196" r="7.0" style="fill:gray;stroke:black;stroke-width:1.0"/>
<circle cx="154" cy="193" r="7.0" style="fill:gray;stroke:black;stroke-width:1.0"/>
<circle cx="247" cy="308" r="7.0" style="fill:gray;stroke:black;stroke-width:1.0"/>
<circle cx="244" cy="263" r="7.0" style="fill:gray;stroke:black;stroke-width:1.0"/>
<circle cx="359" cy="122" r="7.0" style="fill:gray;stroke:black;stroke-width:1.0"/>
<circle cx="311" cy="139" r="7.0" style="fill:gray;stroke:black;stroke-width:1.0"/>
<circle cx="244" cy="192" r="7.0" style="fill:gray;stroke:black;stroke-width:1.0"/>
<circle cx="260" cy="163" r="7.0" style="fill:gray;stroke:black;stroke-width:1.0"/>
<circle cx="293" cy="65" r="7.0" style="fill:gray;stroke:black;stroke-width:1.0"/>
<circle cx="275" cy="103" r="7.0" style="fill:gray;stroke:black;stroke-width:1.0"/>
<circle cx="210" cy="306" r="7.0" style="fill:gray;stroke:black;stroke-width:1.0"/>
<circle cx="221" cy="269" r="7.0" style="fill:gray;stroke:black;stroke-width:1.0"/>
<circle cx="139" cy="146" r="7.0" style="fill:gray;stroke:black;stroke-width:1.0"/>
<circle cx="179" cy="159" r="7.0" style="fill:gray;stroke:black;stroke-width:1.0"/>
<circle cx="164" cy="127" r="7.0" style="fill:gray;stroke:black;stroke-width:1.0"/>
<circle cx="199" cy="145" r="7.0" style="fill:gray;stroke:black;stroke-width:1.0"/>
<circle cx="165" cy="65" r="7.0" style="fill:gray;stroke:black;stroke-width:1.0"/>
<circle cx="194" cy="100" r="7.0" style="fill:gray;stroke:black;stroke-width:1.0"/>
<circle cx="308" cy="283" r="7.0" style="fill:gray;stroke:black;stroke-width:1.0"/>
<circle cx="283" cy="250" r="7.0" style="fill:gray;stroke:black;stroke-width:1.0"/>
<circle cx="246" cy="233" r="7.0" style="fill:gray;stroke:black;stroke-width:1.0"/>
<circle cx="246" cy="209" r="7.0" style="fill:gray;stroke:black;stroke-width:1.0"/>
<circle cx="134" cy="227" r="7.0" style="fill:gray;stroke:black;stroke-width:1.0"/>
<circle cx="166" cy="219" r="7.0" style="fill:gray;stroke:black;stroke-width:1.0"/>
<circle cx="186" cy="104" r="7.0" style="fill:gray;stroke:black;stroke-width:1.0"/>
<circle cx="212" cy="130" r="7.0" style="fill:gray;stroke:black;stroke-width:1.0"/>
</svg>
