<svg width="440" height="340" xmlns="http://www.w3.org/2000/svg">
<path stroke-width="1" stroke="black" d="M 20 320 146 215"/>
<path stroke-width="1" stroke="black" d="M 289 140 195 167"/>
<path stroke-width="1" stroke="black" d="M 289 140 194 204"/>
<path stroke-width="1" stroke="black" d="M 289 140 248 226"/>
<path stroke-width="1" stroke="black" d="M 289 140 226 109"/>
<path stroke-width="1" stroke="black" d="M 289 140 244 229"/>
<path stroke-width="1" stroke="black" d="M 289 140 319 113"/>
<path stroke-width="1" stroke="black" d="M 289 140 226 115"/>
<path stroke-width="1" stroke="black" d="M 289 140 284 222"/>
<path stroke-width="1" stroke="black" d="M 289 140 214 129"/>
<path stroke-width="1" stroke="black" d="M 289 140 166 147"/>
<path stroke-width="1" stroke="black" d="M 289 140 171 144"/>
<path stroke-width="1" stroke="black" d="M 289 140 211 216"/>
<path stroke-width="1" stroke="black" d="M 289 140 254 137"/>
<path stroke-width="1" stroke="black" d="M 289 140 221 159"/>
<path stroke-width="1" stroke="black" d="M 224 78 226 115"/>
<path stroke-width="1" stroke="black" d="M 226 115 146 215"/>
<path stroke-width="1" stroke="black" d="M 289 140 299 162"/>
<path stroke-width="1" stroke="black" d="M 226 115 317 132"/>
<path stroke-width="1" stroke="black" d="M 289 140 227 208"/>
<path stroke-width="1" stroke="black" d="M 289 140 267 154"/>
<path stroke-width="1" stroke="black" d="M 244 229 226 115"/>
<path stroke-width="1" stroke="black" d="M 244 229 214 129"/>
<path stroke-width="1" stroke="black" d="M 244 229 299 162"/>
<path stroke-width="1" stroke="black" d="M 244 229 166 147"/>
<path stroke-width="1" stroke="black" d="M 244 229 171 144"/>
<path stroke-width="1" stroke="black" d="M 244 229 211 216"/>
<path stroke-width="1" stroke="black" d="M 244 229 254 137"/>
<path stroke-width="1" stroke="black" d="M 289 140 226 104"/>
<path stroke-width="1" stroke="black" d="M 244 229 221 159"/>
<path stroke-width="1" stroke="black" d="M 289 140 146 215"/>
<path stroke-width="1" stroke="black" d="M 289 140 317 132"/>
<path stroke-width="1" stroke="black" d="M 289 140 177 228"/>
<path stroke-width="1" stroke="black" d="M 289 140 219 103"/>
<path stroke-width="1" stroke="black" d="M 289 140 274 228"/>
<path stroke-width="1" stroke="black" d="M 289 140 247 242"/>
<path stroke-width="1" stroke="black" d="M 289 140 313 171"/>
<path stroke-width="1" stroke="black" d="M 319 113 289 140"/>
<path stroke-width="1" stroke="black" d="M 226 115 177 228"/>
<path stroke-width="1" stroke="black" d="M 226 115 219 103"/>
<path stroke-width="1" stroke="black" d="M 226 115 274 228"/>
<path stroke-width="1" stroke="black" d="M 214 129 146 215"/>
<path stroke-width="1" stroke="black" d="M 214 129 317 132"/>
<path stroke-width="1" stroke="black" d="M 214 129 177 228"/>
<path stroke-width="1" stroke="black" d="M 214 129 219 103"/>
<path stroke-width="1" stroke="black" d="M 214 129 274 228"/>
<path stroke-width="1" stroke="black" d="M 214 129 247 242"/>
<path stroke-width="1" stroke="black" d="M 214 129 313 171"/>
<path stroke-width="1" stroke="black" d="M 204 99 214 129"/>
<path stroke-width="1" stroke="black" d="M 214 129 267 154"/>
<path stroke-width="1" stroke="black" d="M 214 129 227 208"/>
<path stroke-width="1" stroke="black" d="M 214 129 284 222"/>
<path stroke-width="1" stroke="black" d="M 214 129 195 167"/>
<path stroke-width="1" stroke="black" d="M 214 129 194 204"/>
<path stroke-width="1" stroke="black" d="M 214 129 248 226"/>
<path stroke-width="1" stroke="black" d="M 214 129 226 109"/>
<path stroke-width="1" stroke="black" d="M 214 129 244 229"/>
<path stroke-width="1" stroke="black" d="M 214 129 226 104"/>
<path stroke-width="1" stroke="black" d="M 226 115 221 159"/>
<path stroke-width="1" stroke="black" d="M 226 115 254 137"/>
<path stroke-width="1" stroke="black" d="M 226 115 211 216"/>
<path stroke-width="1" stroke="black" d="M 226 115 247 242"/>
<path stroke-width="1" stroke="black" d="M 226 115 313 171"/>
<path stroke-width="1" stroke="black" d="M 226 115 267 154"/>
<path stroke-width="1" stroke="black" d="M 226 115 226 104"/>
<path stroke-width="1" stroke="black" d="M 226 115 227 208"/>
<path stroke-width="1" stroke="black" d="M 226 115 284 222"/>
<path stroke-width="1" stroke="black" d="M 226 115 195 167"/>
<path stroke-width="1" stroke="black" d="M 226 115 194 204"/>
<path stroke-width="1" stroke="black" d="M 226 115 248 226"/>
<path stroke-width="1" stroke="black" d="M 226 115 226 109"/>
<path stroke-width="1" stroke="black" d="M 226 115 244 229"/>
<path stroke-width="1" stroke="black" d="M 226 115 289 140"/>
<path stroke-width="1" stroke="black" d="M 226 115 224 78"/>
<path stroke-width="1" stroke="black" d="M 226 115 214 129"/>
<path stroke-width="1" stroke="black" d="M 226 115 299 162"/>
<path stroke-width="1" stroke="black" d="M 226 115 166 147"/>
<path stroke-width="1" stroke="black" d="M 226 115 171 144"/>
<path stroke-width="1" stroke="black" d="M 244 229 289 140"/>
<path stroke-width="1" stroke="black" d="M 214 129 289 140"/>
<path stroke-width="1" stroke="black" d="M 244 229 246 266"/>
<path stroke-width="1" stroke="black" d="M 244 229 248 226"/>
<path stroke-width="1" stroke="black" d="M 248 226 226 104"/>
<path stroke-width="1" stroke="black" d="M 248 226 227 208"/>
<path stroke-width="1" stroke="black" d="M 248 226 284 222"/>
<path stroke-width="1" stroke="black" d="M 248 226 195 167"/>
<path stroke-width="1" stroke="black" d="M 248 226 194 204"/>
<path stroke-width="1" stroke="black" d="M 248 226 251 266"/>
<path stroke-width="1" stroke="black" d="M 248 226 226 109"/>
<path stroke-width="1" stroke="black" d="M 248 226 267 154"/>
<path stroke-width="1" stroke="black" d="M 248 226 244 229"/>
<path stroke-width="1" stroke="black" d="M 248 226 226 115"/>
<path stroke-width="1" stroke="black" d="M 248 226 214 129"/>
<path stroke-width="1" stroke="black" d="M 248 226 299 162"/>
<path stroke-width="1" stroke="black" d="M 248 226 166 147"/>
<path stroke-width="1" stroke="black" d="M 248 226 171 144"/>
<path stroke-width="1" stroke="black" d="M 248 226 211 216"/>
<path stroke-width="1" stroke="black" d="M 248 226 254 137"/>
<path stroke-width="1" stroke="black" d="M 248 226 289 140"/>
<path stroke-width="1" stroke="black" d="M 248 226 221 159"/>
<path stroke-width="1" stroke="black" d="M 248 226 313 171"/>
<path stroke-width="1" stroke="black" d="M 248 226 274 228"/>
<path stroke-width="1" stroke="black" d="M 194 204 226 109"/>
<path stroke-width="1" stroke="black" d="M 194 204 244 229"/>
<path stroke-width="1" stroke="black" d="M 194 204 289 140"/>
<path stroke-width="1" stroke="black" d="M 194 204 226 115"/>
<path stroke-width="1" stroke="black" d="M 194 204 214 129"/>
<path stroke-width="1" stroke="black" d="M 194 204 299 162"/>
<path stroke-width="1" stroke="black" d="M 194 204 166 147"/>
<path stroke-width="1" stroke="black" d="M 248 226 247 242"/>
<path stroke-width="1" stroke="black" d="M 194 204 171 144"/>
<path stroke-width="1" stroke="black" d="M 194 204 254 137"/>
<path stroke-width="1" stroke="black" d="M 194 204 221 159"/>
<path stroke-width="1" stroke="black" d="M 251 266 248 226"/>
<path stroke-width="1" stroke="black" d="M 248 226 146 215"/>
<path stroke-width="1" stroke="black" d="M 248 226 317 132"/>
<path stroke-width="1" stroke="black" d="M 248 226 177 228"/>
<path stroke-width="1" stroke="black" d="M 248 226 219 103"/>
<path stroke-width="1" stroke="black" d="M 194 204 211 216"/>
<path stroke-width="1" stroke="black" d="M 224 68 226 109"/>
<path stroke-width="1" stroke="black" d="M 226 109 146 215"/>
<path stroke-width="1" stroke="black" d="M 226 109 317 132"/>
<path stroke-width="1" stroke="black" d="M 226 109 254 137"/>
<path stroke-width="1" stroke="black" d="M 226 109 221 159"/>
<path stroke-width="1" stroke="black" d="M 246 266 244 229"/>
<path stroke-width="1" stroke="black" d="M 244 229 146 215"/>
<path stroke-width="1" stroke="black" d="M 244 229 317 132"/>
<path stroke-width="1" stroke="black" d="M 244 229 177 228"/>
<path stroke-width="1" stroke="black" d="M 244 229 219 103"/>
<path stroke-width="1" stroke="black" d="M 226 109 211 216"/>
<path stroke-width="1" stroke="black" d="M 244 229 274 228"/>
<path stroke-width="1" stroke="black" d="M 244 229 313 171"/>
<path stroke-width="1" stroke="black" d="M 244 229 267 154"/>
<path stroke-width="1" stroke="black" d="M 244 229 226 104"/>
<path stroke-width="1" stroke="black" d="M 244 229 227 208"/>
<path stroke-width="1" stroke="black" d="M 244 229 284 222"/>
<path stroke-width="1" stroke="black" d="M 244 229 195 167"/>
<path stroke-width="1" stroke="black" d="M 244 229 194 204"/>
<path stroke-width="1" stroke="black" d="M 244 229 247 242"/>
<path stroke-width="1" stroke="black" d="M 226 109 171 144"/>
<path stroke-width="1" stroke="black" d="M 226 109 166 147"/>
<path stroke-width="1" stroke="black" d="M 226 109 299 162"/>
<path stroke-width="1" stroke="black" d="M 226 109 177 228"/>
<path stroke-width="1" stroke="black" d="M 226 109 219 103"/>
<path stroke-width="1" stroke="black" d="M 226 109 274 228"/>
<path stroke-width="1" stroke="black" d="M 226 109 247 242"/>
<path stroke-width="1" stroke="black" d="M 226 109 313 171"/>
<path stroke-width="1" stroke="black" d="M 226 109 267 154"/>
<path stroke-width="1" stroke="black" d="M 226 109 226 104"/>
<path stroke-width="1" stroke="black" d="M 226 109 227 208"/>
<path stroke-width="1" stroke="black" d="M 226 109 284 222"/>
<path stroke-width="1" stroke="black" d="M 226 109 195 167"/>
<path stroke-width="1" stroke="black" d="M 226 109 194 204"/>
<path stroke-width="1" stroke="black" d="M 226 109 248 226"/>
<path stroke-width="1" stroke="black" d="M 226 109 224 68"/>
<path stroke-width="1" stroke="black" d="M 226 109 244 229"/>
<path stroke-width="1" stroke="black" d="M 226 109 289 140"/>
<path stroke-width="1" stroke="black" d="M 226 109 226 115"/>
<path stroke-width="1" stroke="black" d="M 226 109 214 129"/>
<path stroke-width="1" stroke="black" d="M 244 229 226 109"/>
<path stroke-width="1" stroke="black" d="M 214 129 226 115"/>
<path stroke-width="1" stroke="black" d="M 214 129 204 99"/>
<path stroke-width="1" stroke="black" d="M 214 129 299 162"/>
<path stroke-width="1" stroke="black" d="M 211 216 214 129"/>
<path stroke-width="1" stroke="black" d="M 211 216 299 162"/>
<path stroke-width="1" stroke="black" d="M 211 216 166 147"/>
<path stroke-width="1" stroke="black" d="M 211 216 171 144"/>
<path stroke-width="1" stroke="black" d="M 211 216 201 243"/>
<path stroke-width="1" stroke="black" d="M 211 216 254 137"/>
<path stroke-width="1" stroke="black" d="M 211 216 221 159"/>
<path stroke-width="1" stroke="black" d="M 211 216 226 115"/>
<path stroke-width="1" stroke="black" d="M 266 113 254 137"/>
<path stroke-width="1" stroke="black" d="M 254 137 317 132"/>
<path stroke-width="1" stroke="black" d="M 254 137 177 228"/>
<path stroke-width="1" stroke="black" d="M 254 137 219 103"/>
<path stroke-width="1" stroke="black" d="M 254 137 274 228"/>
<path stroke-width="1" stroke="black" d="M 254 137 247 242"/>
<path stroke-width="1" stroke="black" d="M 254 137 313 171"/>
<path stroke-width="1" stroke="black" d="M 254 137 267 154"/>
<path stroke-width="1" stroke="black" d="M 254 137 146 215"/>
<path stroke-width="1" stroke="black" d="M 254 137 226 104"/>
<path stroke-width="1" stroke="black" d="M 211 216 289 140"/>
<path stroke-width="1" stroke="black" d="M 211 216 226 109"/>
<path stroke-width="1" stroke="black" d="M 171 144 221 159"/>
<path stroke-width="1" stroke="black" d="M 201 243 211 216"/>
<path stroke-width="1" stroke="black" d="M 211 216 146 215"/>
<path stroke-width="1" stroke="black" d="M 211 216 317 132"/>
<path stroke-width="1" stroke="black" d="M 211 216 177 228"/>
<path stroke-width="1" stroke="black" d="M 211 216 219 103"/>
<path stroke-width="1" stroke="black" d="M 211 216 274 228"/>
<path stroke-width="1" stroke="black" d="M 211 216 244 229"/>
<path stroke-width="1" stroke="black" d="M 211 216 247 242"/>
<path stroke-width="1" stroke="black" d="M 211 216 267 154"/>
<path stroke-width="1" stroke="black" d="M 211 216 226 104"/>
<path stroke-width="1" stroke="black" d="M 211 216 227 208"/>
<path stroke-width="1" stroke="black" d="M 211 216 284 222"/>
<path stroke-width="1" stroke="black" d="M 211 216 195 167"/>
<path stroke-width="1" stroke="black" d="M 211 216 194 204"/>
<path stroke-width="1" stroke="black" d="M 211 216 248 226"/>
<path stroke-width="1" stroke="black" d="M 211 216 313 171"/>
<path stroke-width="1" stroke="black" d="M 254 137 227 208"/>
<path stroke-width="1" stroke="black" d="M 254 137 284 222"/>
<path stroke-width="1" stroke="black" d="M 254 137 195 167"/>
<path stroke-width="1" stroke="black" d="M 221 159 267 154"/>
<path stroke-width="1" stroke="black" d="M 221 159 226 104"/>
<path stroke-width="1" stroke="black" d="M 221 159 227 208"/>
<path stroke-width="1" stroke="black" d="M 221 159 284 222"/>
<path stroke-width="1" stroke="black" d="M 221 159 195 167"/>
<path stroke-width="1" stroke="black" d="M 221 159 194 204"/>
<path stroke-width="1" stroke="black" d="M 221 159 248 226"/>
<path stroke-width="1" stroke="black" d="M 221 159 313 171"/>
<path stroke-width="1" stroke="black" d="M 221 159 226 109"/>
<path stroke-width="1" stroke="black" d="M 221 159 289 140"/>
<path stroke-width="1" stroke="black" d="M 221 159 226 115"/>
<path stroke-width="1" stroke="black" d="M 221 159 214 129"/>
<path stroke-width="1" stroke="black" d="M 221 159 299 162"/>
<path stroke-width="1" stroke="black" d="M 221 159 166 147"/>
<path stroke-width="1" stroke="black" d="M 221 159 171 144"/>
<path stroke-width="1" stroke="black" d="M 221 159 211 216"/>
<path stroke-width="1" stroke="black" d="M 221 159 244 229"/>
<path stroke-width="1" stroke="black" d="M 221 159 247 242"/>
<path stroke-width="1" stroke="black" d="M 221 159 274 228"/>
<path stroke-width="1" stroke="black" d="M 221 159 219 103"/>
<path stroke-width="1" stroke="black" d="M 254 137 194 204"/>
<path stroke-width="1" stroke="black" d="M 254 137 248 226"/>
<path stroke-width="1" stroke="black" d="M 254 137 226 109"/>
<path stroke-width="1" stroke="black" d="M 254 137 244 229"/>
<path stroke-width="1" stroke="black" d="M 254 137 289 140"/>
<path stroke-width="1" stroke="black" d="M 254 137 226 115"/>
<path stroke-width="1" stroke="black" d="M 254 137 214 129"/>
<path stroke-width="1" stroke="black" d="M 254 137 299 162"/>
<path stroke-width="1" stroke="black" d="M 254 137 166 147"/>
<path stroke-width="1" stroke="black" d="M 254 137 171 144"/>
<path stroke-width="1" stroke="black" d="M 254 137 211 216"/>
<path stroke-width="1" stroke="black" d="M 254 137 266 113"/>
<path stroke-width="1" stroke="black" d="M 254 137 221 159"/>
<path stroke-width="1" stroke="black" d="M 200 160 221 159"/>
<path stroke-width="1" stroke="black" d="M 221 159 146 215"/>
<path stroke-width="1" stroke="black" d="M 221 159 317 132"/>
<path stroke-width="1" stroke="black" d="M 221 159 177 228"/>
<path stroke-width="1" stroke="black" d="M 171 144 254 137"/>
<path stroke-width="1" stroke="black" d="M 171 144 211 216"/>
<path stroke-width="1" stroke="black" d="M 171 144 140 125"/>
<path stroke-width="1" stroke="black" d="M 171 144 166 147"/>
<path stroke-width="1" stroke="black" d="M 299 162 244 229"/>
<path stroke-width="1" stroke="black" d="M 299 162 289 140"/>
<path stroke-width="1" stroke="black" d="M 299 162 226 115"/>
<path stroke-width="1" stroke="black" d="M 299 162 214 129"/>
<path stroke-width="1" stroke="black" d="M 299 162 337 148"/>
<path stroke-width="1" stroke="black" d="M 299 162 166 147"/>
<path stroke-width="1" stroke="black" d="M 299 162 171 144"/>
<path stroke-width="1" stroke="black" d="M 299 162 226 109"/>
<path stroke-width="1" stroke="black" d="M 299 162 211 216"/>
<path stroke-width="1" stroke="black" d="M 299 162 221 159"/>
<path stroke-width="1" stroke="black" d="M 133 129 166 147"/>
<path stroke-width="1" stroke="black" d="M 166 147 146 215"/>
<path stroke-width="1" stroke="black" d="M 166 147 317 132"/>
<path stroke-width="1" stroke="black" d="M 166 147 177 228"/>
<path stroke-width="1" stroke="black" d="M 166 147 219 103"/>
<path stroke-width="1" stroke="black" d="M 166 147 274 228"/>
<path stroke-width="1" stroke="black" d="M 299 162 254 137"/>
<path stroke-width="1" stroke="black" d="M 299 162 248 226"/>
<path stroke-width="1" stroke="black" d="M 299 162 194 204"/>
<path stroke-width="1" stroke="black" d="M 299 162 195 167"/>
<path stroke-width="1" stroke="black" d="M 214 129 166 147"/>
<path stroke-width="1" stroke="black" d="M 214 129 171 144"/>
<path stroke-width="1" stroke="black" d="M 214 129 211 216"/>
<path stroke-width="1" stroke="black" d="M 214 129 254 137"/>
<path stroke-width="1" stroke="black" d="M 214 129 221 159"/>
<path stroke-width="1" stroke="black" d="M 337 148 299 162"/>
<path stroke-width="1" stroke="black" d="M 299 162 146 215"/>
<path stroke-width="1" stroke="black" d="M 299 162 317 132"/>
<path stroke-width="1" stroke="black" d="M 299 162 177 228"/>
<path stroke-width="1" stroke="black" d="M 299 162 219 103"/>
<path stroke-width="1" stroke="black" d="M 299 162 274 228"/>
<path stroke-width="1" stroke="black" d="M 299 162 247 242"/>
<path stroke-width="1" stroke="black" d="M 299 162 313 171"/>
<path stroke-width="1" stroke="black" d="M 299 162 267 154"/>
<path stroke-width="1" stroke="black" d="M 299 162 226 104"/>
<path stroke-width="1" stroke="black" d="M 299 162 227 208"/>
<path stroke-width="1" stroke="black" d="M 299 162 284 222"/>
<path stroke-width="1" stroke="black" d="M 166 147 247 242"/>
<path stroke-width="1" stroke="black" d="M 194 204 248 226"/>
<path stroke-width="1" stroke="black" d="M 166 147 313 171"/>
<path stroke-width="1" stroke="black" d="M 166 147 226 104"/>
<path stroke-width="1" stroke="black" d="M 171 144 274 228"/>
<path stroke-width="1" stroke="black" d="M 171 144 247 242"/>
<path stroke-width="1" stroke="black" d="M 171 144 313 171"/>
<path stroke-width="1" stroke="black" d="M 171 144 267 154"/>
<path stroke-width="1" stroke="black" d="M 171 144 226 104"/>
<path stroke-width="1" stroke="black" d="M 171 144 227 208"/>
<path stroke-width="1" stroke="black" d="M 171 144 284 222"/>
<path stroke-width="1" stroke="black" d="M 171 144 219 103"/>
<path stroke-width="1" stroke="black" d="M 171 144 195 167"/>
<path stroke-width="1" stroke="black" d="M 171 144 248 226"/>
<path stroke-width="1" stroke="black" d="M 171 144 226 109"/>
<path stroke-width="1" stroke="black" d="M 171 144 244 229"/>
<path stroke-width="1" stroke="black" d="M 171 144 289 140"/>
<path stroke-width="1" stroke="black" d="M 171 144 226 115"/>
<path stroke-width="1" stroke="black" d="M 171 144 214 129"/>
<path stroke-width="1" stroke="black" d="M 171 144 299 162"/>
<path stroke-width="1" stroke="black" d="M 171 144 194 204"/>
<path stroke-width="1" stroke="black" d="M 171 144 177 228"/>
<path stroke-width="1" stroke="black" d="M 171 144 317 132"/>
<path stroke-width="1" stroke="black" d="M 171 144 146 215"/>
<path stroke-width="1" stroke="black" d="M 166 147 227 208"/>
<path stroke-width="1" stroke="black" d="M 166 147 284 222"/>
<path stroke-width="1" stroke="black" d="M 166 147 195 167"/>
<path stroke-width="1" stroke="black" d="M 166 147 194 204"/>
<path stroke-width="1" stroke="black" d="M 166 147 248 226"/>
<path stroke-width="1" stroke="black" d="M 166 147 226 109"/>
<path stroke-width="1" stroke="black" d="M 166 147 244 229"/>
<path stroke-width="1" stroke="black" d="M 166 147 289 140"/>
<path stroke-width="1" stroke="black" d="M 166 147 226 115"/>
<path stroke-width="1" stroke="black" d="M 166 147 214 129"/>
<path stroke-width="1" stroke="black" d="M 166 147 299 162"/>
<path stroke-width="1" stroke="black" d="M 166 147 133 129"/>
<path stroke-width="1" stroke="black" d="M 166 147 171 144"/>
<path stroke-width="1" stroke="black" d="M 166 147 211 216"/>
<path stroke-width="1" stroke="black" d="M 166 147 254 137"/>
<path stroke-width="1" stroke="black" d="M 166 147 221 159"/>
<path stroke-width="1" stroke="black" d="M 140 125 171 144"/>
<path stroke-width="1" stroke="black" d="M 166 147 267 154"/>
<path stroke-width="1" stroke="black" d="M 194 204 169 236"/>
<path stroke-width="1" stroke="black" d="M 194 204 195 167"/>
<path stroke-width="1" stroke="black" d="M 194 204 284 222"/>
<path stroke-width="1" stroke="black" d="M 219 103 221 159"/>
<path stroke-width="1" stroke="black" d="M 291 297 274 228"/>
<path stroke-width="1" stroke="black" d="M 274 228 146 215"/>
<path stroke-width="1" stroke="black" d="M 274 228 317 132"/>
<path stroke-width="1" stroke="black" d="M 274 228 177 228"/>
<path stroke-width="1" stroke="black" d="M 274 228 219 103"/>
<path stroke-width="1" stroke="black" d="M 274 228 291 297"/>
<path stroke-width="1" stroke="black" d="M 219 103 254 137"/>
<path stroke-width="1" stroke="black" d="M 274 228 247 242"/>
<path stroke-width="1" stroke="black" d="M 274 228 267 154"/>
<path stroke-width="1" stroke="black" d="M 274 228 226 104"/>
<path stroke-width="1" stroke="black" d="M 274 228 227 208"/>
<path stroke-width="1" stroke="black" d="M 274 228 284 222"/>
<path stroke-width="1" stroke="black" d="M 274 228 195 167"/>
<path stroke-width="1" stroke="black" d="M 274 228 194 204"/>
<path stroke-width="1" stroke="black" d="M 274 228 248 226"/>
<path stroke-width="1" stroke="black" d="M 274 228 313 171"/>
<path stroke-width="1" stroke="black" d="M 274 228 226 109"/>
<path stroke-width="1" stroke="black" d="M 219 103 211 216"/>
<path stroke-width="1" stroke="black" d="M 219 103 166 147"/>
<path stroke-width="1" stroke="black" d="M 219 103 274 228"/>
<path stroke-width="1" stroke="black" d="M 219 103 247 242"/>
<path stroke-width="1" stroke="black" d="M 219 103 313 171"/>
<path stroke-width="1" stroke="black" d="M 219 103 267 154"/>
<path stroke-width="1" stroke="black" d="M 219 103 226 104"/>
<path stroke-width="1" stroke="black" d="M 219 103 227 208"/>
<path stroke-width="1" stroke="black" d="M 219 103 284 222"/>
<path stroke-width="1" stroke="black" d="M 219 103 171 144"/>
<path stroke-width="1" stroke="black" d="M 219 103 195 167"/>
<path stroke-width="1" stroke="black" d="M 219 103 248 226"/>
<path stroke-width="1" stroke="black" d="M 219 103 226 109"/>
<path stroke-width="1" stroke="black" d="M 219 103 244 229"/>
<path stroke-width="1" stroke="black" d="M 219 103 289 140"/>
<path stroke-width="1" stroke="black" d="M 219 103 226 115"/>
<path stroke-width="1" stroke="black" d="M 219 103 214 129"/>
<path stroke-width="1" stroke="black" d="M 219 103 299 162"/>
<path stroke-width="1" stroke="black" d="M 219 103 194 204"/>
<path stroke-width="1" stroke="black" d="M 274 228 244 229"/>
<path stroke-width="1" stroke="black" d="M 274 228 289 140"/>
<path stroke-width="1" stroke="black" d="M 274 228 226 115"/>
<path stroke-width="1" stroke="black" d="M 247 242 248 226"/>
<path stroke-width="1" stroke="black" d="M 247 242 226 109"/>
<path stroke-width="1" stroke="black" d="M 247 242 244 229"/>
<path stroke-width="1" stroke="black" d="M 247 242 289 140"/>
<path stroke-width="1" stroke="black" d="M 247 242 226 115"/>
<path stroke-width="1" stroke="black" d="M 247 242 214 129"/>
<path stroke-width="1" stroke="black" d="M 247 242 299 162"/>
<path stroke-width="1" stroke="black" d="M 247 242 194 204"/>
<path stroke-width="1" stroke="black" d="M 247 242 166 147"/>
<path stroke-width="1" stroke="black" d="M 247 242 211 216"/>
<path stroke-width="1" stroke="black" d="M 247 242 254 137"/>
<path stroke-width="1" stroke="black" d="M 247 242 221 159"/>
<path stroke-width="1" stroke="black" d="M 383 158 313 171"/>
<path stroke-width="1" stroke="black" d="M 313 171 146 215"/>
<path stroke-width="1" stroke="black" d="M 313 171 317 132"/>
<path stroke-width="1" stroke="black" d="M 313 171 177 228"/>
<path stroke-width="1" stroke="black" d="M 247 242 171 144"/>
<path stroke-width="1" stroke="black" d="M 247 242 195 167"/>
<path stroke-width="1" stroke="black" d="M 247 242 284 222"/>
<path stroke-width="1" stroke="black" d="M 247 242 227 208"/>
<path stroke-width="1" stroke="black" d="M 274 228 214 129"/>
<path stroke-width="1" stroke="black" d="M 274 228 299 162"/>
<path stroke-width="1" stroke="black" d="M 274 228 166 147"/>
<path stroke-width="1" stroke="black" d="M 274 228 171 144"/>
<path stroke-width="1" stroke="black" d="M 274 228 211 216"/>
<path stroke-width="1" stroke="black" d="M 274 228 254 137"/>
<path stroke-width="1" stroke="black" d="M 274 228 221 159"/>
<path stroke-width="1" stroke="black" d="M 249 310 247 242"/>
<path stroke-width="1" stroke="black" d="M 247 242 146 215"/>
<path stroke-width="1" stroke="black" d="M 247 242 317 132"/>
<path stroke-width="1" stroke="black" d="M 247 242 177 228"/>
<path stroke-width="1" stroke="black" d="M 247 242 219 103"/>
<path stroke-width="1" stroke="black" d="M 247 242 274 228"/>
<path stroke-width="1" stroke="black" d="M 247 242 249 310"/>
<path stroke-width="1" stroke="black" d="M 247 242 313 171"/>
<path stroke-width="1" stroke="black" d="M 247 242 267 154"/>
<path stroke-width="1" stroke="black" d="M 247 242 226 104"/>
<path stroke-width="1" stroke="black" d="M 219 103 214 20"/>
<path stroke-width="1" stroke="black" d="M 219 103 177 228"/>
<path stroke-width="1" stroke="black" d="M 219 103 317 132"/>
<path stroke-width="1" stroke="black" d="M 219 103 146 215"/>
<path stroke-width="1" stroke="black" d="M 146 215 171 144"/>
<path stroke-width="1" stroke="black" d="M 146 215 211 216"/>
<path stroke-width="1" stroke="black" d="M 146 215 254 137"/>
<path stroke-width="1" stroke="black" d="M 146 215 221 159"/>
<path stroke-width="1" stroke="black" d="M 420 47 317 132"/>
<path stroke-width="1" stroke="black" d="M 317 132 146 215"/>
<path stroke-width="1" stroke="black" d="M 317 132 420 47"/>
<path stroke-width="1" stroke="black" d="M 146 215 166 147"/>
<path stroke-width="1" stroke="black" d="M 317 132 177 228"/>
<path stroke-width="1" stroke="black" d="M 317 132 274 228"/>
<path stroke-width="1" stroke="black" d="M 317 132 247 242"/>
<path stroke-width="1" stroke="black" d="M 317 132 313 171"/>
<path stroke-width="1" stroke="black" d="M 317 132 267 154"/>
<path stroke-width="1" stroke="black" d="M 317 132 226 104"/>
<path stroke-width="1" stroke="black" d="M 317 132 227 208"/>
<path stroke-width="1" stroke="black" d="M 317 132 284 222"/>
<path stroke-width="1" stroke="black" d="M 317 132 219 103"/>
<path stroke-width="1" stroke="black" d="M 146 215 299 162"/>
<path stroke-width="1" stroke="black" d="M 146 215 214 129"/>
<path stroke-width="1" stroke="black" d="M 146 215 226 115"/>
<path stroke-width="1" stroke="black" d="M 146 215 20 320"/>
<path stroke-width="1" stroke="black" d="M 146 215 317 132"/>
<path stroke-width="1" stroke="black" d="M 146 215 177 228"/>
<path stroke-width="1" stroke="black" d="M 146 215 219 103"/>
<path stroke-width="1" stroke="black" d="M 146 215 274 228"/>
<path stroke-width="1" stroke="black" d="M 146 215 247 242"/>
<path stroke-width="1" stroke="black" d="M 146 215 313 171"/>
<path stroke-width="1" stroke="black" d="M 146 215 267 154"/>
<path stroke-width="1" stroke="black" d="M 146 215 226 104"/>
<path stroke-width="1" stroke="black" d="M 146 215 227 208"/>
<path stroke-width="1" stroke="black" d="M 146 215 284 222"/>
<path stroke-width="1" stroke="black" d="M 146 215 195 167"/>
<path stroke-width="1" stroke="black" d="M 146 215 194 204"/>
<path stroke-width="1" stroke="black" d="M 146 215 248 226"/>
<path stroke-width="1" stroke="black" d="M 146 215 226 109"/>
<path stroke-width="1" stroke="black" d="M 146 215 244 229"/>
<path stroke-width="1" stroke="black" d="M 146 215 289 140"/>
<path stroke-width="1" stroke="black" d="M 317 132 195 167"/>
<path stroke-width="1" stroke="black" d="M 313 171 219 103"/>
<path stroke-width="1" stroke="black" d="M 317 132 194 204"/>
<path stroke-width="1" stroke="black" d="M 317 132 226 109"/>
<path stroke-width="1" stroke="black" d="M 177 228 284 222"/>
<path stroke-width="1" stroke="black" d="M 177 228 195 167"/>
<path stroke-width="1" stroke="black" d="M 177 228 194 204"/>
<path stroke-width="1" stroke="black" d="M 177 228 248 226"/>
<path stroke-width="1" stroke="black" d="M 177 228 226 109"/>
<path stroke-width="1" stroke="black" d="M 177 228 244 229"/>
<path stroke-width="1" stroke="black" d="M 177 228 289 140"/>
<path stroke-width="1" stroke="black" d="M 177 228 227 208"/>
<path stroke-width="1" stroke="black" d="M 177 228 226 115"/>
<path stroke-width="1" stroke="black" d="M 177 228 299 162"/>
<path stroke-width="1" stroke="black" d="M 177 228 166 147"/>
<path stroke-width="1" stroke="black" d="M 177 228 171 144"/>
<path stroke-width="1" stroke="black" d="M 177 228 211 216"/>
<path stroke-width="1" stroke="black" d="M 177 228 254 137"/>
<path stroke-width="1" stroke="black" d="M 177 228 221 159"/>
<path stroke-width="1" stroke="black" d="M 214 20 219 103"/>
<path stroke-width="1" stroke="black" d="M 177 228 214 129"/>
<path stroke-width="1" stroke="black" d="M 177 228 226 104"/>
<path stroke-width="1" stroke="black" d="M 177 228 267 154"/>
<path stroke-width="1" stroke="black" d="M 177 228 313 171"/>
<path stroke-width="1" stroke="black" d="M 317 132 244 229"/>
<path stroke-width="1" stroke="black" d="M 317 132 289 140"/>
<path stroke-width="1" stroke="black" d="M 317 132 226 115"/>
<path stroke-width="1" stroke="black" d="M 317 132 214 129"/>
<path stroke-width="1" stroke="black" d="M 317 132 299 162"/>
<path stroke-width="1" stroke="black" d="M 317 132 166 147"/>
<path stroke-width="1" stroke="black" d="M 317 132 171 144"/>
<path stroke-width="1" stroke="black" d="M 317 132 211 216"/>
<path stroke-width="1" stroke="black" d="M 317 132 254 137"/>
<path stroke-width="1" stroke="black" d="M 317 132 221 159"/>
<path stroke-width="1" stroke="black" d="M 129 313 177 228"/>
<path stroke-width="1" stroke="black" d="M 177 228 146 215"/>
<path stroke-width="1" stroke="black" d="M 177 228 317 132"/>
<path stroke-width="1" stroke="black" d="M 177 228 129 313"/>
<path stroke-width="1" stroke="black" d="M 177 228 219 103"/>
<path stroke-width="1" stroke="black" d="M 177 228 274 228"/>
<path stroke-width="1" stroke="black" d="M 177 228 247 242"/>
<path stroke-width="1" stroke="black" d="M 317 132 248 226"/>
<path stroke-width="1" stroke="black" d="M 221 159 254 137"/>
<path stroke-width="1" stroke="black" d="M 313 171 274 228"/>
<path stroke-width="1" stroke="black" d="M 313 171 383 158"/>
<path stroke-width="1" stroke="black" d="M 284 222 247 242"/>
<path stroke-width="1" stroke="black" d="M 284 222 313 171"/>
<path stroke-width="1" stroke="black" d="M 284 222 267 154"/>
<path stroke-width="1" stroke="black" d="M 284 222 226 104"/>
<path stroke-width="1" stroke="black" d="M 284 222 227 208"/>
<path stroke-width="1" stroke="black" d="M 284 222 305 265"/>
<path stroke-width="1" stroke="black" d="M 284 222 195 167"/>
<path stroke-width="1" stroke="black" d="M 284 222 274 228"/>
<path stroke-width="1" stroke="black" d="M 284 222 194 204"/>
<path stroke-width="1" stroke="black" d="M 284 222 226 109"/>
<path stroke-width="1" stroke="black" d="M 284 222 244 229"/>
<path stroke-width="1" stroke="black" d="M 284 222 289 140"/>
<path stroke-width="1" stroke="black" d="M 284 222 226 115"/>
<path stroke-width="1" stroke="black" d="M 284 222 214 129"/>
<path stroke-width="1" stroke="black" d="M 284 222 299 162"/>
<path stroke-width="1" stroke="black" d="M 284 222 166 147"/>
<path stroke-width="1" stroke="black" d="M 284 222 248 226"/>
<path stroke-width="1" stroke="black" d="M 284 222 171 144"/>
<path stroke-width="1" stroke="black" d="M 284 222 219 103"/>
<path stroke-width="1" stroke="black" d="M 284 222 317 132"/>
<path stroke-width="1" stroke="black" d="M 227 208 195 167"/>
<path stroke-width="1" stroke="black" d="M 227 208 194 204"/>
<path stroke-width="1" stroke="black" d="M 227 208 248 226"/>
<path stroke-width="1" stroke="black" d="M 227 208 226 109"/>
<path stroke-width="1" stroke="black" d="M 227 208 244 229"/>
<path stroke-width="1" stroke="black" d="M 227 208 289 140"/>
<path stroke-width="1" stroke="black" d="M 227 208 226 115"/>
<path stroke-width="1" stroke="black" d="M 284 222 177 228"/>
<path stroke-width="1" stroke="black" d="M 227 208 214 129"/>
<path stroke-width="1" stroke="black" d="M 227 208 166 147"/>
<path stroke-width="1" stroke="black" d="M 227 208 171 144"/>
<path stroke-width="1" stroke="black" d="M 227 208 211 216"/>
<path stroke-width="1" stroke="black" d="M 227 208 254 137"/>
<path stroke-width="1" stroke="black" d="M 227 208 221 159"/>
<path stroke-width="1" stroke="black" d="M 305 265 284 222"/>
<path stroke-width="1" stroke="black" d="M 284 222 146 215"/>
<path stroke-width="1" stroke="black" d="M 227 208 299 162"/>
<path stroke-width="1" stroke="black" d="M 284 222 211 216"/>
<path stroke-width="1" stroke="black" d="M 284 222 254 137"/>
<path stroke-width="1" stroke="black" d="M 284 222 221 159"/>
<path stroke-width="1" stroke="black" d="M 195 167 166 147"/>
<path stroke-width="1" stroke="black" d="M 195 167 171 144"/>
<path stroke-width="1" stroke="black" d="M 195 167 211 216"/>
<path stroke-width="1" stroke="black" d="M 195 167 254 137"/>
<path stroke-width="1" stroke="black" d="M 195 167 221 159"/>
<path stroke-width="1" stroke="black" d="M 169 236 194 204"/>
<path stroke-width="1" stroke="black" d="M 194 204 146 215"/>
<path stroke-width="1" stroke="black" d="M 195 167 299 162"/>
<path stroke-width="1" stroke="black" d="M 194 204 317 132"/>
<path stroke-width="1" stroke="black" d="M 194 204 219 103"/>
<path stroke-width="1" stroke="black" d="M 194 204 274 228"/>
<path stroke-width="1" stroke="black" d="M 194 204 247 242"/>
<path stroke-width="1" stroke="black" d="M 194 204 313 171"/>
<path stroke-width="1" stroke="black" d="M 194 204 267 154"/>
<path stroke-width="1" stroke="black" d="M 194 204 226 104"/>
<path stroke-width="1" stroke="black" d="M 194 204 227 208"/>
<path stroke-width="1" stroke="black" d="M 194 204 177 228"/>
<path stroke-width="1" stroke="black" d="M 195 167 214 129"/>
<path stroke-width="1" stroke="black" d="M 195 167 226 115"/>
<path stroke-width="1" stroke="black" d="M 195 167 289 140"/>
<path stroke-width="1" stroke="black" d="M 154 155 195 167"/>
<path stroke-width="1" stroke="black" d="M 195 167 146 215"/>
<path stroke-width="1" stroke="black" d="M 195 167 317 132"/>
<path stroke-width="1" stroke="black" d="M 195 167 177 228"/>
<path stroke-width="1" stroke="black" d="M 195 167 219 103"/>
<path stroke-width="1" stroke="black" d="M 195 167 274 228"/>
<path stroke-width="1" stroke="black" d="M 195 167 247 242"/>
<path stroke-width="1" stroke="black" d="M 195 167 313 171"/>
<path stroke-width="1" stroke="black" d="M 195 167 267 154"/>
<path stroke-width="1" stroke="black" d="M 195 167 226 104"/>
<path stroke-width="1" stroke="black" d="M 195 167 227 208"/>
<path stroke-width="1" stroke="black" d="M 195 167 284 222"/>
<path stroke-width="1" stroke="black" d="M 195 167 154 155"/>
<path stroke-width="1" stroke="black" d="M 195 167 194 204"/>
<path stroke-width="1" stroke="black" d="M 195 167 248 226"/>
<path stroke-width="1" stroke="black" d="M 195 167 226 109"/>
<path stroke-width="1" stroke="black" d="M 195 167 244 229"/>
<path stroke-width="1" stroke="black" d="M 227 208 284 222"/>
<path stroke-width="1" stroke="black" d="M 227 208 215 250"/>
<path stroke-width="1" stroke="black" d="M 227 208 226 104"/>
<path stroke-width="1" stroke="black" d="M 227 208 267 154"/>
<path stroke-width="1" stroke="black" d="M 267 154 177 228"/>
<path stroke-width="1" stroke="black" d="M 267 154 219 103"/>
<path stroke-width="1" stroke="black" d="M 267 154 274 228"/>
<path stroke-width="1" stroke="black" d="M 267 154 247 242"/>
<path stroke-width="1" stroke="black" d="M 267 154 313 171"/>
<path stroke-width="1" stroke="black" d="M 267 154 300 117"/>
<path stroke-width="1" stroke="black" d="M 267 154 226 104"/>
<path stroke-width="1" stroke="black" d="M 267 154 317 132"/>
<path stroke-width="1" stroke="black" d="M 267 154 227 208"/>
<path stroke-width="1" stroke="black" d="M 267 154 195 167"/>
<path stroke-width="1" stroke="black" d="M 267 154 194 204"/>
<path stroke-width="1" stroke="black" d="M 267 154 248 226"/>
<path stroke-width="1" stroke="black" d="M 267 154 226 109"/>
<path stroke-width="1" stroke="black" d="M 267 154 244 229"/>
<path stroke-width="1" stroke="black" d="M 267 154 289 140"/>
<path stroke-width="1" stroke="black" d="M 267 154 226 115"/>
<path stroke-width="1" stroke="black" d="M 267 154 284 222"/>
<path stroke-width="1" stroke="black" d="M 267 154 146 215"/>
<path stroke-width="1" stroke="black" d="M 300 117 267 154"/>
<path stroke-width="1" stroke="black" d="M 313 171 221 159"/>
<path stroke-width="1" stroke="black" d="M 313 171 267 154"/>
<path stroke-width="1" stroke="black" d="M 313 171 226 104"/>
<path stroke-width="1" stroke="black" d="M 313 171 227 208"/>
<path stroke-width="1" stroke="black" d="M 313 171 284 222"/>
<path stroke-width="1" stroke="black" d="M 313 171 195 167"/>
<path stroke-width="1" stroke="black" d="M 313 171 194 204"/>
<path stroke-width="1" stroke="black" d="M 313 171 248 226"/>
<path stroke-width="1" stroke="black" d="M 313 171 226 109"/>
<path stroke-width="1" stroke="black" d="M 313 171 244 229"/>
<path stroke-width="1" stroke="black" d="M 313 171 289 140"/>
<path stroke-width="1" stroke="black" d="M 313 171 226 115"/>
<path stroke-width="1" stroke="black" d="M 313 171 214 129"/>
<path stroke-width="1" stroke="black" d="M 313 171 299 162"/>
<path stroke-width="1" stroke="black" d="M 313 171 166 147"/>
<path stroke-width="1" stroke="black" d="M 313 171 171 144"/>
<path stroke-width="1" stroke="black" d="M 313 171 211 216"/>
<path stroke-width="1" stroke="black" d="M 313 171 254 137"/>
<path stroke-width="1" stroke="black" d="M 267 154 214 129"/>
<path stroke-width="1" stroke="black" d="M 313 171 247 242"/>
<path stroke-width="1" stroke="black" d="M 267 154 299 162"/>
<path stroke-width="1" stroke="black" d="M 267 154 171 144"/>
<path stroke-width="1" stroke="black" d="M 226 104 226 115"/>
<path stroke-width="1" stroke="black" d="M 226 104 214 129"/>
<path stroke-width="1" stroke="black" d="M 226 104 299 162"/>
<path stroke-width="1" stroke="black" d="M 226 104 166 147"/>
<path stroke-width="1" stroke="black" d="M 226 104 171 144"/>
<path stroke-width="1" stroke="black" d="M 226 104 211 216"/>
<path stroke-width="1" stroke="black" d="M 226 104 254 137"/>
<path stroke-width="1" stroke="black" d="M 226 104 289 140"/>
<path stroke-width="1" stroke="black" d="M 226 104 221 159"/>
<path stroke-width="1" stroke="black" d="M 227 208 146 215"/>
<path stroke-width="1" stroke="black" d="M 227 208 317 132"/>
<path stroke-width="1" stroke="black" d="M 227 208 177 228"/>
<path stroke-width="1" stroke="black" d="M 227 208 219 103"/>
<path stroke-width="1" stroke="black" d="M 227 208 274 228"/>
<path stroke-width="1" stroke="black" d="M 227 208 247 242"/>
<path stroke-width="1" stroke="black" d="M 227 208 313 171"/>
<path stroke-width="1" stroke="black" d="M 215 250 227 208"/>
<path stroke-width="1" stroke="black" d="M 226 104 244 229"/>
<path stroke-width="1" stroke="black" d="M 226 104 226 109"/>
<path stroke-width="1" stroke="black" d="M 226 104 248 226"/>
<path stroke-width="1" stroke="black" d="M 267 154 211 216"/>
<path stroke-width="1" stroke="black" d="M 267 154 254 137"/>
<path stroke-width="1" stroke="black" d="M 267 154 221 159"/>
<path stroke-width="1" stroke="black" d="M 223 50 226 104"/>
<path stroke-width="1" stroke="black" d="M 226 104 146 215"/>
<path stroke-width="1" stroke="black" d="M 226 104 317 132"/>
<path stroke-width="1" stroke="black" d="M 226 104 177 228"/>
<path stroke-width="1" stroke="black" d="M 226 104 219 103"/>
<path stroke-width="1" stroke="black" d="M 226 104 274 228"/>
<path stroke-width="1" stroke="black" d="M 226 104 247 242"/>
<path stroke-width="1" stroke="black" d="M 226 104 313 171"/>
<path stroke-width="1" stroke="black" d="M 226 104 267 154"/>
<path stroke-width="1" stroke="black" d="M 226 104 223 50"/>
<path stroke-width="1" stroke="black" d="M 226 104 227 208"/>
<path stroke-width="1" stroke="black" d="M 226 104 284 222"/>
<path stroke-width="1" stroke="black" d="M 226 104 195 167"/>
<path stroke-width="1" stroke="black" d="M 226 104 194 204"/>
<path stroke-width="1" stroke="black" d="M 267 154 166 147"/>
<path stroke-width="1" stroke="black" d="M 221 159 200 160"/>
<circle cx="20" cy="320" r="7.0" style="fill:gray;stroke:black;stroke-width:1.0"/>
<circle cx="146" cy="215" r="7.0" style="fill:gray;stroke:black;stroke-width:1.0"/>
<circle cx="420" cy="47" r="7.0" style="fill:gray;stroke:black;stroke-width:1.0"/>
<circle cx="317" cy="132" r="7.0" style="fill:gray;stroke:black;stroke-width:1.0"/>
<circle cx="129" cy="313" r="7.0" style="fill:gray;stroke:black;stroke-width:1.0"/>
<circle cx="177" cy="228" r="7.0" style="fill:gray;stroke:black;stroke-width:1.0"/>
<circle cx="214" cy="20" r="7.0" style="fill:gray;stroke:black;stroke-width:1.0"/>
<circle cx="219" cy="103" r="7.0" style="fill:gray;stroke:black;stroke-width:1.0"/>
<circle cx="291" cy="297" r="7.0" style="fill:gray;stroke:black;stroke-width:1.0"/>
<circle cx="274" cy="228" r="7.0" style="fill:gray;stroke:black;stroke-width:1.0"/>
<circle cx="249" cy="310" r="7.0" style="fill:gray;stroke:black;stroke-width:1.0"/>
<circle cx="247" cy="242" r="7.0" style="fill:gray;stroke:black;stroke-width:1.0"/>
<circle cx="383" cy="158" r="7.0" style="fill:gray;stroke:black;stroke-width:1.0"/>
<circle cx="313" cy="171" r="7.0" style="fill:gray;stroke:black;stroke-width:1.0"/>
<circle cx="300" cy="117" r="7.0" style="fill:gray;stroke:black;stroke-width:1.0"/>
<circle cx="267" cy="154" r="7.0" style="fill:gray;stroke:black;stroke-width:1.0"/>
<circle cx="223" cy="50" r="7.0" style="fill:gray;stroke:black;stroke-width:1.0"/>
<circle cx="226" cy="104" r="7.0" style="fill:gray;stroke:black;stroke-width:1.0"/>
<circle cx="215" cy="250" r="7.0" style="fill:gray;stroke:black;stroke-width:1.0"/>
<circle cx="227" cy="208" r="7.0" style="fill:gray;stroke:black;stroke-width:1.0"/>
<circle cx="305" cy="265" r="7.0" style="fill:gray;stroke:black;stroke-width:1.0"/>
<circle cx="284" cy="222" r="7.0" style="fill:gray;stroke:black;stroke-width:1.0"/>
<circle cx="154" cy="155" r="7.0" style="fill:gray;stroke:black;stroke-width:1.0"/>
<circle cx="195" cy="167" r="7.0" style="fill:gray;stroke:black;stroke-width:1.0"/>
<circle cx="169" cy="236" r="7.0" style="fill:gray;stroke:black;stroke-width:1.0"/>
<circle cx="194" cy="204" r="7.0" style="fill:gray;stroke:black;stroke-width:1.0"/>
<circle cx="251" cy="266" r="7.0" style="fill:gray;stroke:black;stroke-width:1.0"/>
<circle cx="248" cy="226" r="7.0" style="fill:gray;stroke:black;stroke-width:1.0"/>
<circle cx="224" cy="68" r="7.0" style="fill:gray;stroke:black;stroke-width:1.0"/>
<circle cx="226" cy="109" r="7.0" style="fill:gray;stroke:black;stroke-width:1.0"/>
<circle cx="246" cy="266" r="7.0" style="fill:gray;stroke:black;stroke-width:1.0"/>
<circle cx="244" cy="229" r="7.0" style="fill:gray;stroke:black;stroke-width:1.0"/>
<circle cx="319" cy="113" r="7.0" style="fill:gray;stroke:black;stroke-width:1.0"/>
<circle cx="289" cy="140" r="7.0" style="fill:gray;stroke:black;stroke-width:1.0"/>
<circle cx="224" cy="78" r="7.0" style="fill:gray;stroke:black;stroke-width:1.0"/>
<circle cx="226" cy="115" r="7.0" style="fill:gray;stroke:black;stroke-width:1.0"/>
<circle cx="204" cy="99" r="7.0" style="fill:gray;stroke:black;stroke-width:1.0"/>
<circle cx="214" cy="129" r="7.0" style="fill:gray;stroke:black;stroke-width:1.0"/>
<circle cx="337" cy="148" r="7.0" style="fill:gray;stroke:black;stroke-width:1.0"/>
<circle cx="299" cy="162" r="7.0" style="fill:gray;stroke:black;stroke-width:1.0"/>
<circle cx="133" cy="129" r="7.0" style="fill:gray;stroke:black;stroke-width:1.0"/>
<circle cx="166" cy="147" r="7.0" style="fill:gray;stroke:black;stroke-width:1.0"/>
<circle cx="140" cy="125" r="7.0" style="fill:gray;stroke:black;stroke-width:1.0"/>
<circle cx="171" cy="144" r="7.0" style="fill:gray;stroke:black;stroke-width:1.0"/>
<circle cx="201" cy="243" r="7.0" style="fill:gray;stroke:black;stroke-width:1.0"/>
<circle cx="211" cy="216" r="7.0" style="fill:gray;stroke:black;stroke-width:1.0"/>
<circle cx="266" cy="113" r="7.0" style="fill:gray;stroke:black;stroke-width:1.0"/>
<circle cx="254" cy="137" r="7.0" style="fill:gray;stroke:black;stroke-width:1.0"/>
<circle cx="200" cy="160" r="7.0" style="fill:gray;stroke:black;stroke-width:1.0"/>
<circle cx="221" cy="159" r="7.0" style="fill:gray;stroke:black;stroke-width:1.0"/>
</svg>
