<svg width="440" height="340" xmlns="http://www.w3.org/2000/svg">
<path stroke-width="1" stroke="black" d="M 221 157 244 160"/>
<path stroke-width="1" stroke="black" d="M 419 103 396 117"/>
<path stroke-width="1" stroke="black" d="M 396 117 397 201"/>
<path stroke-width="1" stroke="black" d="M 396 117 419 103"/>
<path stroke-width="1" stroke="black" d="M 396 117 347 68"/>
<path stroke-width="1" stroke="black" d="M 224 266 239 245"/>
<path stroke-width="1" stroke="black" d="M 239 245 244 160"/>
<path stroke-width="1" stroke="black" d="M 239 245 286 290"/>
<path stroke-width="1" stroke="black" d="M 239 245 224 266"/>
<path stroke-width="1" stroke="black" d="M 70 20 65 47"/>
<path stroke-width="1" stroke="black" d="M 65 47 70 20"/>
<path stroke-width="1" stroke="black" d="M 65 47 80 94"/>
<path stroke-width="1" stroke="black" d="M 65 47 39 88"/>
<path stroke-width="1" stroke="black" d="M 286 290 239 245"/>
<path stroke-width="1" stroke="black" d="M 99 95 80 94"/>
<path stroke-width="1" stroke="black" d="M 80 94 99 95"/>
<path stroke-width="1" stroke="black" d="M 80 94 55 135"/>
<path stroke-width="1" stroke="black" d="M 52 164 55 135"/>
<path stroke-width="1" stroke="black" d="M 55 135 80 94"/>
<path stroke-width="1" stroke="black" d="M 55 135 52 164"/>
<path stroke-width="1" stroke="black" d="M 55 135 39 88"/>
<path stroke-width="1" stroke="black" d="M 20 85 39 88"/>
<path stroke-width="1" stroke="black" d="M 39 88 65 47"/>
<path stroke-width="1" stroke="black" d="M 39 88 55 135"/>
<path stroke-width="1" stroke="black" d="M 39 88 20 85"/>
<path stroke-width="1" stroke="black" d="M 352 39 347 68"/>
<path stroke-width="1" stroke="black" d="M 347 68 283 89"/>
<path stroke-width="1" stroke="black" d="M 80 94 65 47"/>
<path stroke-width="1" stroke="black" d="M 286 290 279 320"/>
<path stroke-width="1" stroke="black" d="M 286 290 346 272"/>
<path stroke-width="1" stroke="black" d="M 279 320 286 290"/>
<path stroke-width="1" stroke="black" d="M 244 160 221 157"/>
<path stroke-width="1" stroke="black" d="M 244 160 283 89"/>
<path stroke-width="1" stroke="black" d="M 244 160 239 245"/>
<path stroke-width="1" stroke="black" d="M 273 62 283 89"/>
<path stroke-width="1" stroke="black" d="M 283 89 244 160"/>
<path stroke-width="1" stroke="black" d="M 283 89 273 62"/>
<path stroke-width="1" stroke="black" d="M 283 89 347 68"/>
<path stroke-width="1" stroke="black" d="M 420 209 397 201"/>
<path stroke-width="1" stroke="black" d="M 397 201 420 209"/>
<path stroke-width="1" stroke="black" d="M 397 201 346 272"/>
<path stroke-width="1" stroke="black" d="M 397 201 396 117"/>
<path stroke-width="1" stroke="black" d="M 350 301 346 272"/>
<path stroke-width="1" stroke="black" d="M 346 272 397 201"/>
<path stroke-width="1" stroke="black" d="M 346 272 350 301"/>
<path stroke-width="1" stroke="black" d="M 346 272 286 290"/>
<path stroke-width="1" stroke="black" d="M 303 208 323 214"/>
<path stroke-width="1" stroke="black" d="M 323 214 303 208"/>
<path stroke-width="1" stroke="black" d="M 323 214 347 190"/>
<path stroke-width="1" stroke="black" d="M 323 214 359 237"/>
<path stroke-width="1" stroke="black" d="M 349 164 347 190"/>
<path stroke-width="1" stroke="black" d="M 347 190 323 214"/>
<path stroke-width="1" stroke="black" d="M 347 190 349 164"/>
<path stroke-width="1" stroke="black" d="M 347 190 359 237"/>
<path stroke-width="1" stroke="black" d="M 373 262 359 237"/>
<path stroke-width="1" stroke="black" d="M 359 237 323 214"/>
<path stroke-width="1" stroke="black" d="M 359 237 347 190"/>
<path stroke-width="1" stroke="black" d="M 359 237 373 262"/>
<path stroke-width="1" stroke="black" d="M 347 68 396 117"/>
<path stroke-width="1" stroke="black" d="M 347 68 352 39"/>
<circle cx="221" cy="157" r="7.0" style="fill:gray;stroke:black;stroke-width:1.0"/>
<circle cx="244" cy="160" r="7.0" style="fill:gray;stroke:black;stroke-width:1.0"/>
<circle cx="273" cy="62" r="7.0" style="fill:gray;stroke:black;stroke-width:1.0"/>
<circle cx="283" cy="89" r="7.0" style="fill:gray;stroke:black;stroke-width:1.0"/>
<circle cx="420" cy="209" r="7.0" style="fill:gray;stroke:black;stroke-width:1.0"/>
<circle cx="397" cy="201" r="7.0" style="fill:gray;stroke:black;stroke-width:1.0"/>
<circle cx="350" cy="301" r="7.0" style="fill:gray;stroke:black;stroke-width:1.0"/>
<circle cx="346" cy="272" r="7.0" style="fill:gray;stroke:black;stroke-width:1.0"/>
<circle cx="303" cy="208" r="7.0" style="fill:gray;stroke:black;stroke-width:1.0"/>
<circle cx="323" cy="214" r="7.0" style="fill:gray;stroke:black;stroke-width:1.0"/>
<circle cx="349" cy="164" r="7.0" style="fill:gray;stroke:black;stroke-width:1.0"/>
<circle cx="347" cy="190" r="7.0" style="fill:gray;stroke:black;stroke-width:1.0"/>
<circle cx="373" cy="262" r="7.0" style="fill:gray;stroke:black;stroke-width:1.0"/>
<circle cx="359" cy="237" r="7.0" style="fill:gray;stroke:black;stroke-width:1.0"/>
<circle cx="279" cy="320" r="7.0" style="fill:gray;stroke:black;stroke-width:1.0"/>
<circle cx="286" cy="290" r="7.0" style="fill:gray;stroke:black;stroke-width:1.0"/>
<circle cx="419" cy="103" r="7.0" style="fill:gray;stroke:black;stroke-width:1.0"/>
<circle cx="396" cy="117" r="7.0" style="fill:gray;stroke:black;stroke-width:1.0"/>
<circle cx="224" cy="266" r="7.0" style="fill:gray;stroke:black;stroke-width:1.0"/>
<circle cx="239" cy="245" r="7.0" style="fill:gray;stroke:black;stroke-width:1.0"/>
<circle cx="70" cy="20" r="7.0" style="fill:gray;stroke:black;stroke-width:1.0"/>
<circle cx="65" cy="47" r="7.0" style="fill:gray;stroke:black;stroke-width:1.0"/>
<circle cx="99" cy="95" r="7.0" style="fill:gray;stroke:black;stroke-width:1.0"/>
<circle cx="80" cy="94" r="7.0" style="fill:gray;stroke:black;stroke-width:1.0"/>
<circle cx="52" cy="164" r="7.0" style="fill:gray;stroke:black;stroke-width:1.0"/>
<circle cx="55" cy="135" r="7.0" style="fill:gray;stroke:black;stroke-width:1.0"/>
<circle cx="20" cy="85" r="7.0" style="fill:gray;stroke:black;stroke-width:1.0"/>
<circle cx="39" cy="88" r="7.0" style="fill:gray;stroke:black;stroke-width:1.0"/>
<circle cx="352" cy="39" r="7.0" style="fill:gray;stroke:black;stroke-width:1.0"/>
<circle cx="347" cy="68" r="7.0" style="fill:gray;stroke:black;stroke-width:1.0"/>
</svg>
