<svg width="440" height="340" xmlns="http://www.w3.org/2000/svg">
<path stroke-width="20.0" stroke="black" d="M 67 247 87 254"/>
<path stroke-width="20.0" stroke="black" d="M 171 320 164 309"/>
<path stroke-width="0.5" stroke="black" d="M 164 309 201 297"/>
<path stroke-width="20.0" stroke="black" d="M 164 309 171 320"/>
<path stroke-width="0.5" stroke="black" d="M 164 309 119 300"/>
<path stroke-width="20.0" stroke="black" d="M 115 227 119 236"/>
<path stroke-width="0.5" stroke="black" d="M 119 236 87 254"/>
<path stroke-width="0.5" stroke="black" d="M 119 236 167 248"/>
<path stroke-width="20.0" stroke="black" d="M 119 236 115 227"/>
<path stroke-width="20.0" stroke="black" d="M 75 20 73 28"/>
<path stroke-width="20.0" stroke="black" d="M 73 28 75 20"/>
<path stroke-width="0.5" stroke="black" d="M 73 28 100 41"/>
<path stroke-width="0.5" stroke="black" d="M 73 28 41 38"/>
<path stroke-width="0.5" stroke="black" d="M 167 248 119 236"/>
<path stroke-width="20.0" stroke="black" d="M 121 41 100 41"/>
<path stroke-width="20.0" stroke="black" d="M 100 41 121 41"/>
<path stroke-width="0.5" stroke="black" d="M 100 41 68 51"/>
<path stroke-width="20.0" stroke="black" d="M 67 59 68 51"/>
<path stroke-width="0.5" stroke="black" d="M 68 51 100 41"/>
<path stroke-width="20.0" stroke="black" d="M 68 51 67 59"/>
<path stroke-width="0.5" stroke="black" d="M 68 51 41 38"/>
<path stroke-width="20.0" stroke="black" d="M 20 38 41 38"/>
<path stroke-width="0.5" stroke="black" d="M 41 38 73 28"/>
<path stroke-width="0.5" stroke="black" d="M 41 38 68 51"/>
<path stroke-width="20.0" stroke="black" d="M 41 38 20 38"/>
<path stroke-width="20.0" stroke="black" d="M 112 307 119 300"/>
<path stroke-width="0.5" stroke="black" d="M 119 300 89 277"/>
<path stroke-width="0.5" stroke="black" d="M 100 41 73 28"/>
<path stroke-width="20.0" stroke="black" d="M 167 248 177 239"/>
<path stroke-width="0.5" stroke="black" d="M 167 248 192 270"/>
<path stroke-width="20.0" stroke="black" d="M 177 239 167 248"/>
<path stroke-width="20.0" stroke="black" d="M 87 254 67 247"/>
<path stroke-width="0.5" stroke="black" d="M 87 254 89 277"/>
<path stroke-width="0.5" stroke="black" d="M 87 254 119 236"/>
<path stroke-width="20.0" stroke="black" d="M 72 280 89 277"/>
<path stroke-width="0.5" stroke="black" d="M 89 277 87 254"/>
<path stroke-width="20.0" stroke="black" d="M 89 277 72 280"/>
<path stroke-width="0.5" stroke="black" d="M 89 277 119 300"/>
<path stroke-width="20.0" stroke="black" d="M 215 303 201 297"/>
<path stroke-width="20.0" stroke="black" d="M 201 297 215 303"/>
<path stroke-width="0.5" stroke="black" d="M 201 297 192 270"/>
<path stroke-width="0.5" stroke="black" d="M 201 297 164 309"/>
<path stroke-width="20.0" stroke="black" d="M 212 269 192 270"/>
<path stroke-width="0.5" stroke="black" d="M 192 270 201 297"/>
<path stroke-width="20.0" stroke="black" d="M 192 270 212 269"/>
<path stroke-width="0.5" stroke="black" d="M 192 270 167 248"/>
<path stroke-width="20.0" stroke="black" d="M 371 257 377 265"/>
<path stroke-width="20.0" stroke="black" d="M 377 265 371 257"/>
<path stroke-width="0.5" stroke="black" d="M 377 265 401 276"/>
<path stroke-width="0.5" stroke="black" d="M 377 265 372 281"/>
<path stroke-width="20.0" stroke="black" d="M 420 279 401 276"/>
<path stroke-width="0.5" stroke="black" d="M 401 276 377 265"/>
<path stroke-width="20.0" stroke="black" d="M 401 276 420 279"/>
<path stroke-width="0.5" stroke="black" d="M 401 276 372 281"/>
<path stroke-width="20.0" stroke="black" d="M 363 289 372 281"/>
<path stroke-width="0.5" stroke="black" d="M 372 281 377 265"/>
<path stroke-width="0.5" stroke="black" d="M 372 281 401 276"/>
<path stroke-width="20.0" stroke="black" d="M 372 281 363 289"/>
<path stroke-width="0.5" stroke="black" d="M 119 300 164 309"/>
<path stroke-width="20.0" stroke="black" d="M 119 300 112 307"/>
<circle cx="67" cy="247" r="20.0" style="fill:red;stroke:black;stroke-width:1.0"/>
<circle cx="87" cy="254" r="20.0" style="fill:red;stroke:black;stroke-width:1.0"/>
<circle cx="72" cy="280" r="20.0" style="fill:red;stroke:black;stroke-width:1.0"/>
<circle cx="89" cy="277" r="20.0" style="fill:red;stroke:black;stroke-width:1.0"/>
<circle cx="215" cy="303" r="20.0" style="fill:green;stroke:black;stroke-width:1.0"/>
<circle cx="201" cy="297" r="20.0" style="fill:green;stroke:black;stroke-width:1.0"/>
<circle cx="212" cy="269" r="20.0" style="fill:green;stroke:black;stroke-width:1.0"/>
<circle cx="192" cy="270" r="20.0" style="fill:green;stroke:black;stroke-width:1.0"/>
<circle cx="371" cy="257" r="20.0" style="fill:blue;stroke:black;stroke-width:1.0"/>
<circle cx="377" cy="265" r="20.0" style="fill:blue;stroke:black;stroke-width:1.0"/>
<circle cx="420" cy="279" r="20.0" style="fill:blue;stroke:black;stroke-width:1.0"/>
<circle cx="401" cy="276" r="20.0" style="fill:blue;stroke:black;stroke-width:1.0"/>
<circle cx="363" cy="289" r="20.0" style="fill:blue;stroke:black;stroke-width:1.0"/>
<circle cx="372" cy="281" r="20.0" style="fill:blue;stroke:black;stroke-width:1.0"/>
<circle cx="177" cy="239" r="20.0" style="fill:orange;stroke:black;stroke-width:1.0"/>
<circle cx="167" cy="248" r="20.0" style="fill:orange;stroke:black;stroke-width:1.0"/>
<circle cx="171" cy="320" r="20.0" style="fill:fuchsia;stroke:black;stroke-width:1.0"/>
<circle cx="164" cy="309" r="20.0" style="fill:fuchsia;stroke:black;stroke-width:1.0"/>
<circle cx="115" cy="227" r="20.0" style="fill:orange;stroke:black;stroke-width:1.0"/>
<circle cx="119" cy="236" r="20.0" style="fill:orange;stroke:black;stroke-width:1.0"/>
<circle cx="75" cy="20" r="20.0" style="fill:purple;stroke:black;stroke-width:1.0"/>
<circle cx="73" cy="28" r="20.0" style="fill:purple;stroke:black;stroke-width:1.0"/>
<circle cx="121" cy="41" r="20.0" style="fill:purple;stroke:black;stroke-width:1.0"/>
<circle cx="100" cy="41" r="20.0" style="fill:purple;stroke:black;stroke-width:1.0"/>
<circle cx="67" cy="59" r="20.0" style="fill:yellow;stroke:black;stroke-width:1.0"/>
<circle cx="68" cy="51" r="20.0" style="fill:yellow;stroke:black;stroke-width:1.0"/>
<circle cx="20" cy="38" r="20.0" style="fill:yellow;stroke:black;stroke-width:1.0"/>
<circle cx="41" cy="38" r="20.0" style="fill:yellow;stroke:black;stroke-width:1.0"/>
<circle cx="112" cy="307" r="20.0" style="fill:fuchsia;stroke:black;stroke-width:1.0"/>
<circle cx="119" cy="300" r="20.0" style="fill:fuchsia;stroke:black;stroke-width:1.0"/>
</svg>
