<svg width="440" height="340" xmlns="http://www.w3.org/2000/svg">
<path stroke-width="1" stroke="black" d="M 329 168 339 168"/>
<path stroke-width="1" stroke="black" d="M 411 143 403 148"/>
<path stroke-width="1" stroke="black" d="M 403 148 410 169"/>
<path stroke-width="1" stroke="black" d="M 403 148 411 143"/>
<path stroke-width="1" stroke="black" d="M 403 148 379 142"/>
<path stroke-width="1" stroke="black" d="M 331 192 340 187"/>
<path stroke-width="1" stroke="black" d="M 340 187 339 168"/>
<path stroke-width="1" stroke="black" d="M 340 187 367 194"/>
<path stroke-width="1" stroke="black" d="M 340 187 331 192"/>
<path stroke-width="1" stroke="black" d="M 382 286 385 293"/>
<path stroke-width="1" stroke="black" d="M 385 293 382 286"/>
<path stroke-width="1" stroke="black" d="M 385 293 372 305"/>
<path stroke-width="1" stroke="black" d="M 385 293 403 300"/>
<path stroke-width="1" stroke="black" d="M 367 194 340 187"/>
<path stroke-width="1" stroke="black" d="M 362 307 372 305"/>
<path stroke-width="1" stroke="black" d="M 372 305 362 307"/>
<path stroke-width="1" stroke="black" d="M 372 305 390 312"/>
<path stroke-width="1" stroke="black" d="M 393 320 390 312"/>
<path stroke-width="1" stroke="black" d="M 390 312 372 305"/>
<path stroke-width="1" stroke="black" d="M 390 312 393 320"/>
<path stroke-width="1" stroke="black" d="M 390 312 403 300"/>
<path stroke-width="1" stroke="black" d="M 413 298 403 300"/>
<path stroke-width="1" stroke="black" d="M 403 300 385 293"/>
<path stroke-width="1" stroke="black" d="M 403 300 390 312"/>
<path stroke-width="1" stroke="black" d="M 403 300 413 298"/>
<path stroke-width="1" stroke="black" d="M 378 132 379 142"/>
<path stroke-width="1" stroke="black" d="M 379 142 353 149"/>
<path stroke-width="1" stroke="black" d="M 372 305 385 293"/>
<path stroke-width="1" stroke="black" d="M 367 194 364 202"/>
<path stroke-width="1" stroke="black" d="M 367 194 392 187"/>
<path stroke-width="1" stroke="black" d="M 364 202 367 194"/>
<path stroke-width="1" stroke="black" d="M 339 168 329 168"/>
<path stroke-width="1" stroke="black" d="M 339 168 353 149"/>
<path stroke-width="1" stroke="black" d="M 339 168 340 187"/>
<path stroke-width="1" stroke="black" d="M 347 145 353 149"/>
<path stroke-width="1" stroke="black" d="M 353 149 339 168"/>
<path stroke-width="1" stroke="black" d="M 353 149 347 145"/>
<path stroke-width="1" stroke="black" d="M 353 149 379 142"/>
<path stroke-width="1" stroke="black" d="M 420 169 410 169"/>
<path stroke-width="1" stroke="black" d="M 410 169 420 169"/>
<path stroke-width="1" stroke="black" d="M 410 169 392 187"/>
<path stroke-width="1" stroke="black" d="M 410 169 403 148"/>
<path stroke-width="1" stroke="black" d="M 401 193 392 187"/>
<path stroke-width="1" stroke="black" d="M 392 187 410 169"/>
<path stroke-width="1" stroke="black" d="M 392 187 401 193"/>
<path stroke-width="1" stroke="black" d="M 392 187 367 194"/>
<path stroke-width="1" stroke="black" d="M 36 20 36 27"/>
<path stroke-width="1" stroke="black" d="M 36 27 36 20"/>
<path stroke-width="1" stroke="black" d="M 36 27 45 38"/>
<path stroke-width="1" stroke="black" d="M 36 27 28 39"/>
<path stroke-width="1" stroke="black" d="M 53 42 45 38"/>
<path stroke-width="1" stroke="black" d="M 45 38 36 27"/>
<path stroke-width="1" stroke="black" d="M 45 38 53 42"/>
<path stroke-width="1" stroke="black" d="M 45 38 28 39"/>
<path stroke-width="1" stroke="black" d="M 20 43 28 39"/>
<path stroke-width="1" stroke="black" d="M 28 39 36 27"/>
<path stroke-width="1" stroke="black" d="M 28 39 45 38"/>
<path stroke-width="1" stroke="black" d="M 28 39 20 43"/>
<path stroke-width="1" stroke="black" d="M 379 142 403 148"/>
<path stroke-width="1" stroke="black" d="M 379 142 378 132"/>
<circle cx="329" cy="168" r="7.0" style="fill:gray;stroke:black;stroke-width:1.0"/>
<circle cx="339" cy="168" r="7.0" style="fill:gray;stroke:black;stroke-width:1.0"/>
<circle cx="347" cy="145" r="7.0" style="fill:gray;stroke:black;stroke-width:1.0"/>
<circle cx="353" cy="149" r="7.0" style="fill:gray;stroke:black;stroke-width:1.0"/>
<circle cx="420" cy="169" r="7.0" style="fill:gray;stroke:black;stroke-width:1.0"/>
<circle cx="410" cy="169" r="7.0" style="fill:gray;stroke:black;stroke-width:1.0"/>
<circle cx="401" cy="193" r="7.0" style="fill:gray;stroke:black;stroke-width:1.0"/>
<circle cx="392" cy="187" r="7.0" style="fill:gray;stroke:black;stroke-width:1.0"/>
<circle cx="36" cy="20" r="7.0" style="fill:gray;stroke:black;stroke-width:1.0"/>
<circle cx="36" cy="27" r="7.0" style="fill:gray;stroke:black;stroke-width:1.0"/>
<circle cx="53" cy="42" r="7.0" style="fill:gray;stroke:black;stroke-width:1.0"/>
<circle cx="45" cy="38" r="7.0" style="fill:gray;stroke:black;stroke-width:1.0"/>
<circle cx="20" cy="43" r="7.0" style="fill:gray;stroke:black;stroke-width:1.0"/>
<circle cx="28" cy="39" r="7.0" style="fill:gray;stroke:black;stroke-width:1.0"/>
<circle cx="364" cy="202" r="7.0" style="fill:gray;stroke:black;stroke-width:1.0"/>
<circle cx="367" cy="194" r="7.0" style="fill:gray;stroke:black;stroke-width:1.0"/>
<circle cx="411" cy="143" r="7.0" style="fill:gray;stroke:black;stroke-width:1.0"/>
<circle cx="403" cy="148" r="7.0" style="fill:gray;stroke:black;stroke-width:1.0"/>
<circle cx="331" cy="192" r="7.0" style="fill:gray;stroke:black;stroke-width:1.0"/>
<circle cx="340" cy="187" r="7.0" style="fill:gray;stroke:black;stroke-width:1.0"/>
<circle cx="382" cy="286" r="7.0" style="fill:gray;stroke:black;stroke-width:1.0"/>
<circle cx="385" cy="293" r="7.0" style="fill:gray;stroke:black;stroke-width:1.0"/>
<circle cx="362" cy="307" r="7.0" style="fill:gray;stroke:black;stroke-width:1.0"/>
<circle cx="372" cy="305" r="7.0" style="fill:gray;stroke:black;stroke-width:1.0"/>
<circle cx="393" cy="320" r="7.0" style="fill:gray;stroke:black;stroke-width:1.0"/>
<circle cx="390" cy="312" r="7.0" style="fill:gray;stroke:black;stroke-width:1.0"/>
<circle cx="413" cy="298" r="7.0" style="fill:gray;stroke:black;stroke-width:1.0"/>
<circle cx="403" cy="300" r="7.0" style="fill:gray;stroke:black;stroke-width:1.0"/>
<circle cx="378" cy="132" r="7.0" style="fill:gray;stroke:black;stroke-width:1.0"/>
<circle cx="379" cy="142" r="7.0" style="fill:gray;stroke:black;stroke-width:1.0"/>
</svg>
