<svg width="440" height="340" xmlns="http://www.w3.org/2000/svg">
<path stroke-width="20.0" stroke="black" d="M 225 160 420 233"/>
<path stroke-width="0.5" stroke="black" d="M 179 320 379 58"/>
<path stroke-width="0.5" stroke="black" d="M 179 320 420 233"/>
<path stroke-width="20.0" stroke="black" d="M 179 320 225 160"/>
<path stroke-width="0.5" stroke="black" d="M 20 188 179 320"/>
<path stroke-width="0.5" stroke="black" d="M 20 188 131 20"/>
<path stroke-width="0.5" stroke="black" d="M 20 188 379 58"/>
<path stroke-width="0.5" stroke="black" d="M 20 188 420 233"/>
<path stroke-width="20.0" stroke="black" d="M 20 188 225 160"/>
<path stroke-width="0.5" stroke="black" d="M 131 20 179 320"/>
<path stroke-width="0.5" stroke="black" d="M 131 20 20 188"/>
<path stroke-width="0.5" stroke="black" d="M 131 20 379 58"/>
<path stroke-width="0.5" stroke="black" d="M 131 20 420 233"/>
<path stroke-width="20.0" stroke="black" d="M 131 20 225 160"/>
<path stroke-width="0.5" stroke="black" d="M 379 58 179 320"/>
<path stroke-width="0.5" stroke="black" d="M 379 58 20 188"/>
<path stroke-width="0.5" stroke="black" d="M 379 58 131 20"/>
<path stroke-width="0.5" stroke="black" d="M 379 58 420 233"/>
<path stroke-width="20.0" stroke="black" d="M 379 58 225 160"/>
<path stroke-width="0.5" stroke="black" d="M 420 233 179 320"/>
<path stroke-width="0.5" stroke="black" d="M 420 233 20 188"/>
<path stroke-width="0.5" stroke="black" d="M 420 233 131 20"/>
<path stroke-width="0.5" stroke="black" d="M 420 233 379 58"/>
<path stroke-width="20.0" stroke="black" d="M 420 233 225 160"/>
<path stroke-width="20.0" stroke="black" d="M 225 160 179 320"/>
<path stroke-width="20.0" stroke="black" d="M 225 160 20 188"/>
<path stroke-width="20.0" stroke="black" d="M 225 160 131 20"/>
<path stroke-width="20.0" stroke="black" d="M 225 160 379 58"/>
<path stroke-width="0.5" stroke="black" d="M 179 320 131 20"/>
<path stroke-width="0.5" stroke="black" d="M 179 320 20 188"/>
<circle cx="225" cy="160" r="20.0" style="fill:gray;stroke:black;stroke-width:1.0"/>
<circle cx="420" cy="233" r="20.0" style="fill:gray;stroke:black;stroke-width:1.0"/>
<circle cx="379" cy="58" r="20.0" style="fill:gray;stroke:black;stroke-width:1.0"/>
<circle cx="131" cy="20" r="20.0" style="fill:gray;stroke:black;stroke-width:1.0"/>
<circle cx="20" cy="188" r="20.0" style="fill:gray;stroke:black;stroke-width:1.0"/>
<circle cx="179" cy="320" r="20.0" style="fill:gray;stroke:black;stroke-width:1.0"/>
</svg>
