<svg width="440" height="340" xmlns="http://www.w3.org/2000/svg">
<path stroke-width="20.0" stroke="black" d="M 215 167 420 130"/>
<path stroke-width="0.5" stroke="black" d="M 247 20 38 295"/>
<path stroke-width="0.5" stroke="black" d="M 247 20 420 130"/>
<path stroke-width="20.0" stroke="black" d="M 247 20 215 167"/>
<path stroke-width="0.5" stroke="black" d="M 20 107 247 20"/>
<path stroke-width="0.5" stroke="black" d="M 20 107 381 320"/>
<path stroke-width="0.5" stroke="black" d="M 20 107 38 295"/>
<path stroke-width="0.5" stroke="black" d="M 20 107 420 130"/>
<path stroke-width="20.0" stroke="black" d="M 20 107 215 167"/>
<path stroke-width="0.5" stroke="black" d="M 381 320 247 20"/>
<path stroke-width="0.5" stroke="black" d="M 381 320 20 107"/>
<path stroke-width="0.5" stroke="black" d="M 381 320 38 295"/>
<path stroke-width="0.5" stroke="black" d="M 381 320 420 130"/>
<path stroke-width="20.0" stroke="black" d="M 381 320 215 167"/>
<path stroke-width="0.5" stroke="black" d="M 38 295 247 20"/>
<path stroke-width="0.5" stroke="black" d="M 38 295 20 107"/>
<path stroke-width="0.5" stroke="black" d="M 38 295 381 320"/>
<path stroke-width="0.5" stroke="black" d="M 38 295 420 130"/>
<path stroke-width="20.0" stroke="black" d="M 38 295 215 167"/>
<path stroke-width="0.5" stroke="black" d="M 420 130 247 20"/>
<path stroke-width="0.5" stroke="black" d="M 420 130 20 107"/>
<path stroke-width="0.5" stroke="black" d="M 420 130 381 320"/>
<path stroke-width="0.5" stroke="black" d="M 420 130 38 295"/>
<path stroke-width="20.0" stroke="black" d="M 420 130 215 167"/>
<path stroke-width="20.0" stroke="black" d="M 215 167 247 20"/>
<path stroke-width="20.0" stroke="black" d="M 215 167 20 107"/>
<path stroke-width="20.0" stroke="black" d="M 215 167 381 320"/>
<path stroke-width="20.0" stroke="black" d="M 215 167 38 295"/>
<path stroke-width="0.5" stroke="black" d="M 247 20 381 320"/>
<path stroke-width="0.5" stroke="black" d="M 247 20 20 107"/>
<circle cx="215" cy="167" r="7.0" style="fill:gray;stroke:black;stroke-width:1.0"/>
<circle cx="420" cy="130" r="7.0" style="fill:gray;stroke:black;stroke-width:1.0"/>
<circle cx="38" cy="295" r="7.0" style="fill:gray;stroke:black;stroke-width:1.0"/>
<circle cx="381" cy="320" r="7.0" style="fill:gray;stroke:black;stroke-width:1.0"/>
<circle cx="20" cy="107" r="7.0" style="fill:gray;stroke:black;stroke-width:1.0"/>
<circle cx="247" cy="20" r="7.0" style="fill:gray;stroke:black;stroke-width:1.0"/>
</svg>
