<svg width="440" height="340" xmlns="http://www.w3.org/2000/svg">
<path stroke-width="1" stroke="black" d="M 180 138 271 320"/>
<path stroke-width="1" stroke="black" d="M 20 250 266 20"/>
<path stroke-width="1" stroke="black" d="M 20 250 271 320"/>
<path stroke-width="1" stroke="black" d="M 20 250 180 138"/>
<path stroke-width="1" stroke="black" d="M 420 164 20 250"/>
<path stroke-width="1" stroke="black" d="M 420 164 62 72"/>
<path stroke-width="1" stroke="black" d="M 420 164 266 20"/>
<path stroke-width="1" stroke="black" d="M 420 164 271 320"/>
<path stroke-width="1" stroke="black" d="M 420 164 180 138"/>
<path stroke-width="1" stroke="black" d="M 62 72 20 250"/>
<path stroke-width="1" stroke="black" d="M 62 72 420 164"/>
<path stroke-width="1" stroke="black" d="M 62 72 266 20"/>
<path stroke-width="1" stroke="black" d="M 62 72 271 320"/>
<path stroke-width="1" stroke="black" d="M 62 72 180 138"/>
<path stroke-width="1" stroke="black" d="M 266 20 20 250"/>
<path stroke-width="1" stroke="black" d="M 266 20 420 164"/>
<path stroke-width="1" stroke="black" d="M 266 20 62 72"/>
<path stroke-width="1" stroke="black" d="M 266 20 271 320"/>
<path stroke-width="1" stroke="black" d="M 266 20 180 138"/>
<path stroke-width="1" stroke="black" d="M 271 320 20 250"/>
<path stroke-width="1" stroke="black" d="M 271 320 420 164"/>
<path stroke-width="1" stroke="black" d="M 271 320 62 72"/>
<path stroke-width="1" stroke="black" d="M 271 320 266 20"/>
<path stroke-width="1" stroke="black" d="M 271 320 180 138"/>
<path stroke-width="1" stroke="black" d="M 180 138 20 250"/>
<path stroke-width="1" stroke="black" d="M 180 138 420 164"/>
<path stroke-width="1" stroke="black" d="M 180 138 62 72"/>
<path stroke-width="1" stroke="black" d="M 180 138 266 20"/>
<path stroke-width="1" stroke="black" d="M 20 250 62 72"/>
<path stroke-width="1" stroke="black" d="M 20 250 420 164"/>
<circle cx="180" cy="138" r="7.0" style="fill:gray;stroke:black;stroke-width:1.0"/>
<circle cx="271" cy="320" r="7.0" style="fill:gray;stroke:black;stroke-width:1.0"/>
<circle cx="266" cy="20" r="7.0" style="fill:gray;stroke:black;stroke-width:1.0"/>
<circle cx="62" cy="72" r="7.0" style="fill:gray;stroke:black;stroke-width:1.0"/>
<circle cx="420" cy="164" r="7.0" style="fill:gray;stroke:black;stroke-width:1.0"/>
<circle cx="20" cy="250" r="7.0" style="fill:gray;stroke:black;stroke-width:1.0"/>
</svg>
