<svg width="440" height="340" xmlns="http://www.w3.org/2000/svg">
<path stroke-width="1" stroke="black" d="M 20 297 47 314"/>
<path stroke-width="1" stroke="black" d="M 403 135 381 87"/>
<path stroke-width="1" stroke="black" d="M 381 87 403 135"/>
<path stroke-width="1" stroke="black" d="M 381 87 351 46"/>
<path stroke-width="1" stroke="black" d="M 351 46 381 87"/>
<path stroke-width="1" stroke="black" d="M 351 46 315 20"/>
<path stroke-width="1" stroke="black" d="M 315 20 351 46"/>
<path stroke-width="1" stroke="black" d="M 315 20 275 20"/>
<path stroke-width="1" stroke="black" d="M 275 20 315 20"/>
<path stroke-width="1" stroke="black" d="M 275 20 240 47"/>
<path stroke-width="1" stroke="black" d="M 240 47 275 20"/>
<path stroke-width="1" stroke="black" d="M 240 47 210 95"/>
<path stroke-width="1" stroke="black" d="M 210 95 240 47"/>
<path stroke-width="1" stroke="black" d="M 210 95 191 151"/>
<path stroke-width="1" stroke="black" d="M 191 151 210 95"/>
<path stroke-width="1" stroke="black" d="M 191 151 170 212"/>
<path stroke-width="1" stroke="black" d="M 170 212 191 151"/>
<path stroke-width="1" stroke="black" d="M 170 212 149 265"/>
<path stroke-width="1" stroke="black" d="M 149 265 170 212"/>
<path stroke-width="1" stroke="black" d="M 149 265 118 304"/>
<path stroke-width="1" stroke="black" d="M 118 304 149 265"/>
<path stroke-width="1" stroke="black" d="M 118 304 83 320"/>
<path stroke-width="1" stroke="black" d="M 83 320 118 304"/>
<path stroke-width="1" stroke="black" d="M 83 320 47 314"/>
<path stroke-width="1" stroke="black" d="M 47 314 83 320"/>
<path stroke-width="1" stroke="black" d="M 47 314 20 297"/>
<path stroke-width="1" stroke="black" d="M 403 135 420 178"/>
<path stroke-width="1" stroke="black" d="M 420 178 403 135"/>
<circle cx="20" cy="297" r="7.0" style="fill:gray;stroke:black;stroke-width:1.0"/>
<circle cx="47" cy="314" r="7.0" style="fill:gray;stroke:black;stroke-width:1.0"/>
<circle cx="83" cy="320" r="7.0" style="fill:gray;stroke:black;stroke-width:1.0"/>
<circle cx="118" cy="304" r="7.0" style="fill:gray;stroke:black;stroke-width:1.0"/>
<circle cx="149" cy="265" r="7.0" style="fill:gray;stroke:black;stroke-width:1.0"/>
<circle cx="170" cy="212" r="7.0" style="fill:gray;stroke:black;stroke-width:1.0"/>
<circle cx="191" cy="151" r="7.0" style="fill:gray;stroke:black;stroke-width:1.0"/>
<circle cx="210" cy="95" r="7.0" style="fill:gray;stroke:black;stroke-width:1.0"/>
<circle cx="240" cy="47" r="7.0" style="fill:gray;stroke:black;stroke-width:1.0"/>
<circle cx="275" cy="20" r="7.0" style="fill:gray;stroke:black;stroke-width:1.0"/>
<circle cx="315" cy="20" r="7.0" style="fill:gray;stroke:black;stroke-width:1.0"/>
<circle cx="351" cy="46" r="7.0" style="fill:gray;stroke:black;stroke-width:1.0"/>
<circle cx="381" cy="87" r="7.0" style="fill:gray;stroke:black;stroke-width:1.0"/>
<circle cx="403" cy="135" r="7.0" style="fill:gray;stroke:black;stroke-width:1.0"/>
<circle cx="420" cy="178" r="7.0" style="fill:gray;stroke:black;stroke-width:1.0"/>
</svg>
