<svg width="440" height="340" xmlns="http://www.w3.org/2000/svg">
<path stroke-width="1" stroke="black" d="M 20 301 72 311"/>
<path stroke-width="1" stroke="black" d="M 402 43 411 71"/>
<path stroke-width="1" stroke="black" d="M 411 71 402 43"/>
<path stroke-width="1" stroke="black" d="M 411 71 417 101"/>
<path stroke-width="1" stroke="black" d="M 417 101 411 71"/>
<path stroke-width="1" stroke="black" d="M 417 101 420 134"/>
<path stroke-width="1" stroke="black" d="M 420 134 417 101"/>
<path stroke-width="1" stroke="black" d="M 420 134 418 165"/>
<path stroke-width="1" stroke="black" d="M 418 165 420 134"/>
<path stroke-width="1" stroke="black" d="M 418 165 407 199"/>
<path stroke-width="1" stroke="black" d="M 407 199 418 165"/>
<path stroke-width="1" stroke="black" d="M 407 199 394 230"/>
<path stroke-width="1" stroke="black" d="M 394 230 407 199"/>
<path stroke-width="1" stroke="black" d="M 394 230 360 261"/>
<path stroke-width="1" stroke="black" d="M 360 261 394 230"/>
<path stroke-width="1" stroke="black" d="M 360 261 328 287"/>
<path stroke-width="1" stroke="black" d="M 328 287 360 261"/>
<path stroke-width="1" stroke="black" d="M 328 287 263 306"/>
<path stroke-width="1" stroke="black" d="M 263 306 328 287"/>
<path stroke-width="1" stroke="black" d="M 263 306 205 319"/>
<path stroke-width="1" stroke="black" d="M 205 319 263 306"/>
<path stroke-width="1" stroke="black" d="M 205 319 130 320"/>
<path stroke-width="1" stroke="black" d="M 130 320 205 319"/>
<path stroke-width="1" stroke="black" d="M 130 320 72 311"/>
<path stroke-width="1" stroke="black" d="M 72 311 130 320"/>
<path stroke-width="1" stroke="black" d="M 72 311 20 301"/>
<path stroke-width="1" stroke="black" d="M 402 43 392 20"/>
<path stroke-width="1" stroke="black" d="M 392 20 402 43"/>
<circle cx="20" cy="301" r="7.0" style="fill:gray;stroke:black;stroke-width:1.0"/>
<circle cx="72" cy="311" r="7.0" style="fill:gray;stroke:black;stroke-width:1.0"/>
<circle cx="130" cy="320" r="7.0" style="fill:gray;stroke:black;stroke-width:1.0"/>
<circle cx="205" cy="319" r="7.0" style="fill:gray;stroke:black;stroke-width:1.0"/>
<circle cx="263" cy="306" r="7.0" style="fill:gray;stroke:black;stroke-width:1.0"/>
<circle cx="328" cy="287" r="7.0" style="fill:gray;stroke:black;stroke-width:1.0"/>
<circle cx="360" cy="261" r="7.0" style="fill:gray;stroke:black;stroke-width:1.0"/>
<circle cx="394" cy="230" r="7.0" style="fill:gray;stroke:black;stroke-width:1.0"/>
<circle cx="407" cy="199" r="7.0" style="fill:gray;stroke:black;stroke-width:1.0"/>
<circle cx="418" cy="165" r="7.0" style="fill:gray;stroke:black;stroke-width:1.0"/>
<circle cx="420" cy="134" r="7.0" style="fill:gray;stroke:black;stroke-width:1.0"/>
<circle cx="417" cy="101" r="7.0" style="fill:gray;stroke:black;stroke-width:1.0"/>
<circle cx="411" cy="71" r="7.0" style="fill:gray;stroke:black;stroke-width:1.0"/>
<circle cx="402" cy="43" r="7.0" style="fill:gray;stroke:black;stroke-width:1.0"/>
<circle cx="392" cy="20" r="7.0" style="fill:gray;stroke:black;stroke-width:1.0"/>
</svg>
