<svg width="440" height="340" xmlns="http://www.w3.org/2000/svg">
<path stroke-width="20.0" stroke="black" d="M 20 110 25 117"/>
<path stroke-width="0.5" stroke="black" d="M 64 166 120 180"/>
<path stroke-width="20.0" stroke="black" d="M 45 167 64 166"/>
<path stroke-width="0.5" stroke="black" d="M 120 180 64 166"/>
<path stroke-width="20.0" stroke="black" d="M 120 180 105 181"/>
<path stroke-width="0.5" stroke="black" d="M 120 180 200 185"/>
<path stroke-width="20.0" stroke="black" d="M 105 181 120 180"/>
<path stroke-width="0.5" stroke="black" d="M 200 185 120 180"/>
<path stroke-width="20.0" stroke="black" d="M 200 185 192 187"/>
<path stroke-width="0.5" stroke="black" d="M 200 185 285 188"/>
<path stroke-width="20.0" stroke="black" d="M 192 187 200 185"/>
<path stroke-width="0.5" stroke="black" d="M 285 188 200 185"/>
<path stroke-width="20.0" stroke="black" d="M 285 188 297 188"/>
<path stroke-width="20.0" stroke="black" d="M 64 166 45 167"/>
<path stroke-width="0.5" stroke="black" d="M 285 188 357 193"/>
<path stroke-width="0.5" stroke="black" d="M 357 193 285 188"/>
<path stroke-width="20.0" stroke="black" d="M 357 193 374 192"/>
<path stroke-width="0.5" stroke="black" d="M 357 193 387 210"/>
<path stroke-width="20.0" stroke="black" d="M 374 192 357 193"/>
<path stroke-width="0.5" stroke="black" d="M 387 210 357 193"/>
<path stroke-width="20.0" stroke="black" d="M 387 210 404 210"/>
<path stroke-width="0.5" stroke="black" d="M 387 210 329 222"/>
<path stroke-width="20.0" stroke="black" d="M 404 210 387 210"/>
<path stroke-width="0.5" stroke="black" d="M 329 222 387 210"/>
<path stroke-width="20.0" stroke="black" d="M 329 222 342 221"/>
<path stroke-width="0.5" stroke="black" d="M 329 222 253 233"/>
<path stroke-width="20.0" stroke="black" d="M 342 221 329 222"/>
<path stroke-width="20.0" stroke="black" d="M 297 188 285 188"/>
<path stroke-width="0.5" stroke="black" d="M 64 166 102 146"/>
<path stroke-width="20.0" stroke="black" d="M 87 146 102 146"/>
<path stroke-width="0.5" stroke="black" d="M 102 146 64 166"/>
<path stroke-width="8.857142857142858" stroke="black" d="M 419 20 411 25"/>
<path stroke-width="0.5" stroke="black" d="M 397 40 411 25"/>
<path stroke-width="20.0" stroke="black" d="M 397 40 388 38"/>
<path stroke-width="0.5" stroke="black" d="M 397 40 410 62"/>
<path stroke-width="20.0" stroke="black" d="M 388 38 397 40"/>
<path stroke-width="0.5" stroke="black" d="M 410 62 397 40"/>
<path stroke-width="20.0" stroke="black" d="M 410 62 420 59"/>
<path stroke-width="0.5" stroke="black" d="M 410 62 391 86"/>
<path stroke-width="20.0" stroke="black" d="M 420 59 410 62"/>
<path stroke-width="0.5" stroke="black" d="M 391 86 410 62"/>
<path stroke-width="20.0" stroke="black" d="M 391 86 406 86"/>
<path stroke-width="0.5" stroke="black" d="M 391 86 330 103"/>
<path stroke-width="20.0" stroke="black" d="M 406 86 391 86"/>
<path stroke-width="0.5" stroke="black" d="M 330 103 391 86"/>
<path stroke-width="20.0" stroke="black" d="M 330 103 343 102"/>
<path stroke-width="0.5" stroke="black" d="M 330 103 254 117"/>
<path stroke-width="20.0" stroke="black" d="M 343 102 330 103"/>
<path stroke-width="0.5" stroke="black" d="M 254 117 330 103"/>
<path stroke-width="20.0" stroke="black" d="M 254 117 262 116"/>
<path stroke-width="0.5" stroke="black" d="M 254 117 174 131"/>
<path stroke-width="20.0" stroke="black" d="M 262 116 254 117"/>
<path stroke-width="0.5" stroke="black" d="M 174 131 254 117"/>
<path stroke-width="20.0" stroke="black" d="M 174 131 164 132"/>
<path stroke-width="0.5" stroke="black" d="M 174 131 102 146"/>
<path stroke-width="20.0" stroke="black" d="M 164 132 174 131"/>
<path stroke-width="0.5" stroke="black" d="M 102 146 174 131"/>
<path stroke-width="20.0" stroke="black" d="M 102 146 87 146"/>
<path stroke-width="0.5" stroke="black" d="M 253 233 329 222"/>
<path stroke-width="20.0" stroke="black" d="M 253 233 246 231"/>
<path stroke-width="0.5" stroke="black" d="M 253 233 179 246"/>
<path stroke-width="20.0" stroke="black" d="M 246 231 253 233"/>
<path stroke-width="20.0" stroke="black" d="M 351 278 339 279"/>
<path stroke-width="0.5" stroke="black" d="M 273 265 339 279"/>
<path stroke-width="20.0" stroke="black" d="M 273 265 279 266"/>
<path stroke-width="0.5" stroke="black" d="M 273 265 202 250"/>
<path stroke-width="20.0" stroke="black" d="M 279 266 273 265"/>
<path stroke-width="0.5" stroke="black" d="M 202 250 273 265"/>
<path stroke-width="20.0" stroke="black" d="M 202 250 198 253"/>
<path stroke-width="0.5" stroke="black" d="M 202 250 131 233"/>
<path stroke-width="20.0" stroke="black" d="M 198 253 202 250"/>
<path stroke-width="0.5" stroke="black" d="M 131 233 202 250"/>
<path stroke-width="20.0" stroke="black" d="M 131 233 119 235"/>
<path stroke-width="0.5" stroke="black" d="M 131 233 76 211"/>
<path stroke-width="20.0" stroke="black" d="M 119 235 131 233"/>
<path stroke-width="0.5" stroke="black" d="M 76 211 131 233"/>
<path stroke-width="20.0" stroke="black" d="M 76 211 63 211"/>
<path stroke-width="0.5" stroke="black" d="M 76 211 56 175"/>
<path stroke-width="20.0" stroke="black" d="M 63 211 76 211"/>
<path stroke-width="0.5" stroke="black" d="M 56 175 76 211"/>
<path stroke-width="20.0" stroke="black" d="M 56 175 59 179"/>
<path stroke-width="0.5" stroke="black" d="M 56 175 44 142"/>
<path stroke-width="20.0" stroke="black" d="M 59 179 56 175"/>
<path stroke-width="0.5" stroke="black" d="M 44 142 56 175"/>
<path stroke-width="20.0" stroke="black" d="M 44 142 48 135"/>
<path stroke-width="0.5" stroke="black" d="M 44 142 25 117"/>
<path stroke-width="20.0" stroke="black" d="M 48 135 44 142"/>
<path stroke-width="0.5" stroke="black" d="M 25 117 44 142"/>
<path stroke-width="20.0" stroke="black" d="M 25 117 20 110"/>
<path stroke-width="0.5" stroke="black" d="M 339 279 273 265"/>
<path stroke-width="0.5" stroke="black" d="M 411 25 397 40"/>
<path stroke-width="20.0" stroke="black" d="M 339 279 351 278"/>
<path stroke-width="20.0" stroke="black" d="M 395 300 379 298"/>
<path stroke-width="0.5" stroke="black" d="M 179 246 253 233"/>
<path stroke-width="20.0" stroke="black" d="M 179 246 166 245"/>
<path stroke-width="0.5" stroke="black" d="M 179 246 127 265"/>
<path stroke-width="20.0" stroke="black" d="M 166 245 179 246"/>
<path stroke-width="0.5" stroke="black" d="M 127 265 179 246"/>
<path stroke-width="20.0" stroke="black" d="M 127 265 111 265"/>
<path stroke-width="0.5" stroke="black" d="M 127 265 148 291"/>
<path stroke-width="20.0" stroke="black" d="M 111 265 127 265"/>
<path stroke-width="0.5" stroke="black" d="M 148 291 127 265"/>
<path stroke-width="20.0" stroke="black" d="M 148 291 135 291"/>
<path stroke-width="0.5" stroke="black" d="M 148 291 206 306"/>
<path stroke-width="20.0" stroke="black" d="M 135 291 148 291"/>
<path stroke-width="0.5" stroke="black" d="M 206 306 148 291"/>
<path stroke-width="20.0" stroke="black" d="M 206 306 196 309"/>
<path stroke-width="0.5" stroke="black" d="M 206 306 274 314"/>
<path stroke-width="20.0" stroke="black" d="M 196 309 206 306"/>
<path stroke-width="0.5" stroke="black" d="M 274 314 206 306"/>
<path stroke-width="20.0" stroke="black" d="M 274 314 277 320"/>
<path stroke-width="0.5" stroke="black" d="M 274 314 340 313"/>
<path stroke-width="20.0" stroke="black" d="M 277 320 274 314"/>
<path stroke-width="0.5" stroke="black" d="M 340 313 274 314"/>
<path stroke-width="20.0" stroke="black" d="M 340 313 353 316"/>
<path stroke-width="0.5" stroke="black" d="M 340 313 379 298"/>
<path stroke-width="20.0" stroke="black" d="M 353 316 340 313"/>
<path stroke-width="0.5" stroke="black" d="M 379 298 340 313"/>
<path stroke-width="20.0" stroke="black" d="M 379 298 395 300"/>
<path stroke-width="0.5" stroke="black" d="M 379 298 339 279"/>
<path stroke-width="0.5" stroke="black" d="M 339 279 379 298"/>
<path stroke-width="8.857142857142858" stroke="black" d="M 411 25 419 20"/>
<circle cx="20" cy="110" r="20.0" style="fill:red;stroke:black;stroke-width:1.0"/>
<circle cx="25" cy="117" r="20.0" style="fill:red;stroke:black;stroke-width:1.0"/>
<circle cx="48" cy="135" r="20.0" style="fill:red;stroke:black;stroke-width:1.0"/>
<circle cx="44" cy="142" r="20.0" style="fill:red;stroke:black;stroke-width:1.0"/>
<circle cx="59" cy="179" r="20.0" style="fill:green;stroke:black;stroke-width:1.0"/>
<circle cx="56" cy="175" r="20.0" style="fill:green;stroke:black;stroke-width:1.0"/>
<circle cx="63" cy="211" r="20.0" style="fill:green;stroke:black;stroke-width:1.0"/>
<circle cx="76" cy="211" r="20.0" style="fill:green;stroke:black;stroke-width:1.0"/>
<circle cx="119" cy="235" r="20.0" style="fill:orange;stroke:black;stroke-width:1.0"/>
<circle cx="131" cy="233" r="20.0" style="fill:orange;stroke:black;stroke-width:1.0"/>
<circle cx="198" cy="253" r="20.0" style="fill:orange;stroke:black;stroke-width:1.0"/>
<circle cx="202" cy="250" r="20.0" style="fill:orange;stroke:black;stroke-width:1.0"/>
<circle cx="279" cy="266" r="20.0" style="fill:purple;stroke:black;stroke-width:1.0"/>
<circle cx="273" cy="265" r="20.0" style="fill:purple;stroke:black;stroke-width:1.0"/>
<circle cx="351" cy="278" r="20.0" style="fill:purple;stroke:black;stroke-width:1.0"/>
<circle cx="339" cy="279" r="20.0" style="fill:purple;stroke:black;stroke-width:1.0"/>
<circle cx="395" cy="300" r="20.0" style="fill:yellow;stroke:black;stroke-width:1.0"/>
<circle cx="379" cy="298" r="20.0" style="fill:yellow;stroke:black;stroke-width:1.0"/>
<circle cx="353" cy="316" r="20.0" style="fill:yellow;stroke:black;stroke-width:1.0"/>
<circle cx="340" cy="313" r="20.0" style="fill:yellow;stroke:black;stroke-width:1.0"/>
<circle cx="277" cy="320" r="20.0" style="fill:fuchsia;stroke:black;stroke-width:1.0"/>
<circle cx="274" cy="314" r="20.0" style="fill:fuchsia;stroke:black;stroke-width:1.0"/>
<circle cx="196" cy="309" r="20.0" style="fill:fuchsia;stroke:black;stroke-width:1.0"/>
<circle cx="206" cy="306" r="20.0" style="fill:fuchsia;stroke:black;stroke-width:1.0"/>
<circle cx="135" cy="291" r="20.0" style="fill:olive;stroke:black;stroke-width:1.0"/>
<circle cx="148" cy="291" r="20.0" style="fill:olive;stroke:black;stroke-width:1.0"/>
<circle cx="111" cy="265" r="20.0" style="fill:olive;stroke:black;stroke-width:1.0"/>
<circle cx="127" cy="265" r="20.0" style="fill:olive;stroke:black;stroke-width:1.0"/>
<circle cx="166" cy="245" r="20.0" style="fill:aqua;stroke:black;stroke-width:1.0"/>
<circle cx="179" cy="246" r="20.0" style="fill:aqua;stroke:black;stroke-width:1.0"/>
<circle cx="246" cy="231" r="20.0" style="fill:aqua;stroke:black;stroke-width:1.0"/>
<circle cx="253" cy="233" r="20.0" style="fill:aqua;stroke:black;stroke-width:1.0"/>
<circle cx="342" cy="221" r="20.0" style="fill:brown;stroke:black;stroke-width:1.0"/>
<circle cx="329" cy="222" r="20.0" style="fill:brown;stroke:black;stroke-width:1.0"/>
<circle cx="404" cy="210" r="20.0" style="fill:brown;stroke:black;stroke-width:1.0"/>
<circle cx="387" cy="210" r="20.0" style="fill:brown;stroke:black;stroke-width:1.0"/>
<circle cx="374" cy="192" r="20.0" style="fill:blue;stroke:black;stroke-width:1.0"/>
<circle cx="357" cy="193" r="20.0" style="fill:blue;stroke:black;stroke-width:1.0"/>
<circle cx="297" cy="188" r="20.0" style="fill:blue;stroke:black;stroke-width:1.0"/>
<circle cx="285" cy="188" r="20.0" style="fill:blue;stroke:black;stroke-width:1.0"/>
<circle cx="192" cy="187" r="20.0" style="fill:red;stroke:black;stroke-width:1.0"/>
<circle cx="200" cy="185" r="20.0" style="fill:red;stroke:black;stroke-width:1.0"/>
<circle cx="105" cy="181" r="20.0" style="fill:red;stroke:black;stroke-width:1.0"/>
<circle cx="120" cy="180" r="20.0" style="fill:red;stroke:black;stroke-width:1.0"/>
<circle cx="45" cy="167" r="20.0" style="fill:green;stroke:black;stroke-width:1.0"/>
<circle cx="64" cy="166" r="20.0" style="fill:green;stroke:black;stroke-width:1.0"/>
<circle cx="87" cy="146" r="20.0" style="fill:green;stroke:black;stroke-width:1.0"/>
<circle cx="102" cy="146" r="20.0" style="fill:green;stroke:black;stroke-width:1.0"/>
<circle cx="164" cy="132" r="20.0" style="fill:orange;stroke:black;stroke-width:1.0"/>
<circle cx="174" cy="131" r="20.0" style="fill:orange;stroke:black;stroke-width:1.0"/>
<circle cx="262" cy="116" r="20.0" style="fill:orange;stroke:black;stroke-width:1.0"/>
<circle cx="254" cy="117" r="20.0" style="fill:orange;stroke:black;stroke-width:1.0"/>
<circle cx="343" cy="102" r="20.0" style="fill:purple;stroke:black;stroke-width:1.0"/>
<circle cx="330" cy="103" r="20.0" style="fill:purple;stroke:black;stroke-width:1.0"/>
<circle cx="406" cy="86" r="20.0" style="fill:purple;stroke:black;stroke-width:1.0"/>
<circle cx="391" cy="86" r="20.0" style="fill:purple;stroke:black;stroke-width:1.0"/>
<circle cx="420" cy="59" r="20.0" style="fill:blue;stroke:black;stroke-width:1.0"/>
<circle cx="410" cy="62" r="20.0" style="fill:blue;stroke:black;stroke-width:1.0"/>
<circle cx="388" cy="38" r="20.0" style="fill:blue;stroke:black;stroke-width:1.0"/>
<circle cx="397" cy="40" r="20.0" style="fill:blue;stroke:black;stroke-width:1.0"/>
<circle cx="419" cy="20" r="20.0" style="fill:blue;stroke:black;stroke-width:1.0"/>
<circle cx="411" cy="25" r="20.0" style="fill:blue;stroke:black;stroke-width:1.0"/>
</svg>
