<svg width="440" height="340" xmlns="http://www.w3.org/2000/svg">
<path stroke-width="1" stroke="black" d="M 45 196 53 187"/>
<path stroke-width="1" stroke="black" d="M 241 297 189 259"/>
<path stroke-width="1" stroke="black" d="M 239 312 241 297"/>
<path stroke-width="1" stroke="black" d="M 189 259 241 297"/>
<path stroke-width="1" stroke="black" d="M 189 259 183 273"/>
<path stroke-width="1" stroke="black" d="M 189 259 165 194"/>
<path stroke-width="1" stroke="black" d="M 183 273 189 259"/>
<path stroke-width="1" stroke="black" d="M 165 194 189 259"/>
<path stroke-width="1" stroke="black" d="M 165 194 156 201"/>
<path stroke-width="1" stroke="black" d="M 165 194 150 116"/>
<path stroke-width="1" stroke="black" d="M 156 201 165 194"/>
<path stroke-width="1" stroke="black" d="M 150 116 165 194"/>
<path stroke-width="1" stroke="black" d="M 150 116 143 108"/>
<path stroke-width="1" stroke="black" d="M 241 297 239 312"/>
<path stroke-width="1" stroke="black" d="M 150 116 151 52"/>
<path stroke-width="1" stroke="black" d="M 151 52 150 116"/>
<path stroke-width="1" stroke="black" d="M 151 52 148 35"/>
<path stroke-width="1" stroke="black" d="M 151 52 190 31"/>
<path stroke-width="1" stroke="black" d="M 148 35 151 52"/>
<path stroke-width="1" stroke="black" d="M 190 31 151 52"/>
<path stroke-width="1" stroke="black" d="M 190 31 194 20"/>
<path stroke-width="1" stroke="black" d="M 190 31 211 60"/>
<path stroke-width="1" stroke="black" d="M 194 20 190 31"/>
<path stroke-width="1" stroke="black" d="M 211 60 190 31"/>
<path stroke-width="1" stroke="black" d="M 211 60 226 59"/>
<path stroke-width="1" stroke="black" d="M 211 60 169 91"/>
<path stroke-width="1" stroke="black" d="M 226 59 211 60"/>
<path stroke-width="1" stroke="black" d="M 143 108 150 116"/>
<path stroke-width="1" stroke="black" d="M 241 297 298 271"/>
<path stroke-width="1" stroke="black" d="M 301 283 298 271"/>
<path stroke-width="1" stroke="black" d="M 298 271 241 297"/>
<path stroke-width="1" stroke="black" d="M 407 320 410 307"/>
<path stroke-width="1" stroke="black" d="M 411 280 410 307"/>
<path stroke-width="1" stroke="black" d="M 411 280 420 273"/>
<path stroke-width="1" stroke="black" d="M 411 280 380 271"/>
<path stroke-width="1" stroke="black" d="M 420 273 411 280"/>
<path stroke-width="1" stroke="black" d="M 380 271 411 280"/>
<path stroke-width="1" stroke="black" d="M 380 271 376 281"/>
<path stroke-width="1" stroke="black" d="M 380 271 376 232"/>
<path stroke-width="1" stroke="black" d="M 376 281 380 271"/>
<path stroke-width="1" stroke="black" d="M 376 232 380 271"/>
<path stroke-width="1" stroke="black" d="M 376 232 366 235"/>
<path stroke-width="1" stroke="black" d="M 376 232 386 192"/>
<path stroke-width="1" stroke="black" d="M 366 235 376 232"/>
<path stroke-width="1" stroke="black" d="M 386 192 376 232"/>
<path stroke-width="1" stroke="black" d="M 386 192 392 182"/>
<path stroke-width="1" stroke="black" d="M 386 192 373 174"/>
<path stroke-width="1" stroke="black" d="M 392 182 386 192"/>
<path stroke-width="1" stroke="black" d="M 373 174 386 192"/>
<path stroke-width="1" stroke="black" d="M 373 174 381 160"/>
<path stroke-width="1" stroke="black" d="M 373 174 341 220"/>
<path stroke-width="1" stroke="black" d="M 381 160 373 174"/>
<path stroke-width="1" stroke="black" d="M 341 220 373 174"/>
<path stroke-width="1" stroke="black" d="M 341 220 351 213"/>
<path stroke-width="1" stroke="black" d="M 341 220 298 271"/>
<path stroke-width="1" stroke="black" d="M 351 213 341 220"/>
<path stroke-width="1" stroke="black" d="M 298 271 341 220"/>
<path stroke-width="1" stroke="black" d="M 298 271 301 283"/>
<path stroke-width="1" stroke="black" d="M 169 91 211 60"/>
<path stroke-width="1" stroke="black" d="M 169 91 180 84"/>
<path stroke-width="1" stroke="black" d="M 169 91 114 131"/>
<path stroke-width="1" stroke="black" d="M 180 84 169 91"/>
<path stroke-width="1" stroke="black" d="M 256 134 240 130"/>
<path stroke-width="1" stroke="black" d="M 206 99 240 130"/>
<path stroke-width="1" stroke="black" d="M 206 99 212 109"/>
<path stroke-width="1" stroke="black" d="M 206 99 162 60"/>
<path stroke-width="1" stroke="black" d="M 212 109 206 99"/>
<path stroke-width="1" stroke="black" d="M 162 60 206 99"/>
<path stroke-width="1" stroke="black" d="M 162 60 159 51"/>
<path stroke-width="1" stroke="black" d="M 162 60 117 34"/>
<path stroke-width="1" stroke="black" d="M 159 51 162 60"/>
<path stroke-width="1" stroke="black" d="M 117 34 162 60"/>
<path stroke-width="1" stroke="black" d="M 117 34 109 22"/>
<path stroke-width="1" stroke="black" d="M 117 34 106 71"/>
<path stroke-width="1" stroke="black" d="M 109 22 117 34"/>
<path stroke-width="1" stroke="black" d="M 106 71 117 34"/>
<path stroke-width="1" stroke="black" d="M 106 71 97 65"/>
<path stroke-width="1" stroke="black" d="M 106 71 113 116"/>
<path stroke-width="1" stroke="black" d="M 97 65 106 71"/>
<path stroke-width="1" stroke="black" d="M 113 116 106 71"/>
<path stroke-width="1" stroke="black" d="M 113 116 126 121"/>
<path stroke-width="1" stroke="black" d="M 113 116 84 155"/>
<path stroke-width="1" stroke="black" d="M 126 121 113 116"/>
<path stroke-width="1" stroke="black" d="M 84 155 113 116"/>
<path stroke-width="1" stroke="black" d="M 84 155 92 153"/>
<path stroke-width="1" stroke="black" d="M 84 155 53 187"/>
<path stroke-width="1" stroke="black" d="M 92 153 84 155"/>
<path stroke-width="1" stroke="black" d="M 53 187 84 155"/>
<path stroke-width="1" stroke="black" d="M 53 187 45 196"/>
<path stroke-width="1" stroke="black" d="M 240 130 206 99"/>
<path stroke-width="1" stroke="black" d="M 410 307 411 280"/>
<path stroke-width="1" stroke="black" d="M 240 130 256 134"/>
<path stroke-width="1" stroke="black" d="M 215 144 203 150"/>
<path stroke-width="1" stroke="black" d="M 114 131 169 91"/>
<path stroke-width="1" stroke="black" d="M 114 131 102 124"/>
<path stroke-width="1" stroke="black" d="M 114 131 83 182"/>
<path stroke-width="1" stroke="black" d="M 102 124 114 131"/>
<path stroke-width="1" stroke="black" d="M 83 182 114 131"/>
<path stroke-width="1" stroke="black" d="M 83 182 78 190"/>
<path stroke-width="1" stroke="black" d="M 83 182 58 229"/>
<path stroke-width="1" stroke="black" d="M 78 190 83 182"/>
<path stroke-width="1" stroke="black" d="M 58 229 83 182"/>
<path stroke-width="1" stroke="black" d="M 58 229 54 242"/>
<path stroke-width="1" stroke="black" d="M 58 229 36 222"/>
<path stroke-width="1" stroke="black" d="M 54 242 58 229"/>
<path stroke-width="1" stroke="black" d="M 36 222 58 229"/>
<path stroke-width="1" stroke="black" d="M 36 222 20 224"/>
<path stroke-width="1" stroke="black" d="M 36 222 89 209"/>
<path stroke-width="1" stroke="black" d="M 20 224 36 222"/>
<path stroke-width="1" stroke="black" d="M 89 209 36 222"/>
<path stroke-width="1" stroke="black" d="M 89 209 81 218"/>
<path stroke-width="1" stroke="black" d="M 89 209 146 177"/>
<path stroke-width="1" stroke="black" d="M 81 218 89 209"/>
<path stroke-width="1" stroke="black" d="M 146 177 89 209"/>
<path stroke-width="1" stroke="black" d="M 146 177 148 169"/>
<path stroke-width="1" stroke="black" d="M 146 177 203 150"/>
<path stroke-width="1" stroke="black" d="M 148 169 146 177"/>
<path stroke-width="1" stroke="black" d="M 203 150 146 177"/>
<path stroke-width="1" stroke="black" d="M 203 150 215 144"/>
<path stroke-width="1" stroke="black" d="M 203 150 240 130"/>
<path stroke-width="1" stroke="black" d="M 240 130 203 150"/>
<path stroke-width="1" stroke="black" d="M 410 307 407 320"/>
<circle cx="45" cy="196" r="20.0" style="fill:red;stroke:black;stroke-width:1.0"/>
<circle cx="53" cy="187" r="20.0" style="fill:red;stroke:black;stroke-width:1.0"/>
<circle cx="92" cy="153" r="20.0" style="fill:red;stroke:black;stroke-width:1.0"/>
<circle cx="84" cy="155" r="20.0" style="fill:red;stroke:black;stroke-width:1.0"/>
<circle cx="126" cy="121" r="20.0" style="fill:green;stroke:black;stroke-width:1.0"/>
<circle cx="113" cy="116" r="20.0" style="fill:green;stroke:black;stroke-width:1.0"/>
<circle cx="97" cy="65" r="20.0" style="fill:green;stroke:black;stroke-width:1.0"/>
<circle cx="106" cy="71" r="20.0" style="fill:green;stroke:black;stroke-width:1.0"/>
<circle cx="109" cy="22" r="20.0" style="fill:orange;stroke:black;stroke-width:1.0"/>
<circle cx="117" cy="34" r="20.0" style="fill:orange;stroke:black;stroke-width:1.0"/>
<circle cx="159" cy="51" r="20.0" style="fill:orange;stroke:black;stroke-width:1.0"/>
<circle cx="162" cy="60" r="20.0" style="fill:orange;stroke:black;stroke-width:1.0"/>
<circle cx="212" cy="109" r="20.0" style="fill:purple;stroke:black;stroke-width:1.0"/>
<circle cx="206" cy="99" r="20.0" style="fill:purple;stroke:black;stroke-width:1.0"/>
<circle cx="256" cy="134" r="20.0" style="fill:purple;stroke:black;stroke-width:1.0"/>
<circle cx="240" cy="130" r="20.0" style="fill:purple;stroke:black;stroke-width:1.0"/>
<circle cx="215" cy="144" r="20.0" style="fill:yellow;stroke:black;stroke-width:1.0"/>
<circle cx="203" cy="150" r="20.0" style="fill:yellow;stroke:black;stroke-width:1.0"/>
<circle cx="148" cy="169" r="20.0" style="fill:yellow;stroke:black;stroke-width:1.0"/>
<circle cx="146" cy="177" r="20.0" style="fill:yellow;stroke:black;stroke-width:1.0"/>
<circle cx="81" cy="218" r="20.0" style="fill:fuchsia;stroke:black;stroke-width:1.0"/>
<circle cx="89" cy="209" r="20.0" style="fill:fuchsia;stroke:black;stroke-width:1.0"/>
<circle cx="20" cy="224" r="20.0" style="fill:fuchsia;stroke:black;stroke-width:1.0"/>
<circle cx="36" cy="222" r="20.0" style="fill:fuchsia;stroke:black;stroke-width:1.0"/>
<circle cx="54" cy="242" r="20.0" style="fill:olive;stroke:black;stroke-width:1.0"/>
<circle cx="58" cy="229" r="20.0" style="fill:olive;stroke:black;stroke-width:1.0"/>
<circle cx="78" cy="190" r="20.0" style="fill:olive;stroke:black;stroke-width:1.0"/>
<circle cx="83" cy="182" r="20.0" style="fill:olive;stroke:black;stroke-width:1.0"/>
<circle cx="102" cy="124" r="20.0" style="fill:aqua;stroke:black;stroke-width:1.0"/>
<circle cx="114" cy="131" r="20.0" style="fill:aqua;stroke:black;stroke-width:1.0"/>
<circle cx="180" cy="84" r="20.0" style="fill:aqua;stroke:black;stroke-width:1.0"/>
<circle cx="169" cy="91" r="20.0" style="fill:aqua;stroke:black;stroke-width:1.0"/>
<circle cx="226" cy="59" r="20.0" style="fill:brown;stroke:black;stroke-width:1.0"/>
<circle cx="211" cy="60" r="20.0" style="fill:brown;stroke:black;stroke-width:1.0"/>
<circle cx="194" cy="20" r="20.0" style="fill:brown;stroke:black;stroke-width:1.0"/>
<circle cx="190" cy="31" r="20.0" style="fill:brown;stroke:black;stroke-width:1.0"/>
<circle cx="148" cy="35" r="20.0" style="fill:blue;stroke:black;stroke-width:1.0"/>
<circle cx="151" cy="52" r="20.0" style="fill:blue;stroke:black;stroke-width:1.0"/>
<circle cx="143" cy="108" r="20.0" style="fill:blue;stroke:black;stroke-width:1.0"/>
<circle cx="150" cy="116" r="20.0" style="fill:blue;stroke:black;stroke-width:1.0"/>
<circle cx="156" cy="201" r="20.0" style="fill:red;stroke:black;stroke-width:1.0"/>
<circle cx="165" cy="194" r="20.0" style="fill:red;stroke:black;stroke-width:1.0"/>
<circle cx="183" cy="273" r="20.0" style="fill:red;stroke:black;stroke-width:1.0"/>
<circle cx="189" cy="259" r="20.0" style="fill:red;stroke:black;stroke-width:1.0"/>
<circle cx="239" cy="312" r="20.0" style="fill:green;stroke:black;stroke-width:1.0"/>
<circle cx="241" cy="297" r="20.0" style="fill:green;stroke:black;stroke-width:1.0"/>
<circle cx="301" cy="283" r="20.0" style="fill:green;stroke:black;stroke-width:1.0"/>
<circle cx="298" cy="271" r="20.0" style="fill:green;stroke:black;stroke-width:1.0"/>
<circle cx="351" cy="213" r="20.0" style="fill:orange;stroke:black;stroke-width:1.0"/>
<circle cx="341" cy="220" r="20.0" style="fill:orange;stroke:black;stroke-width:1.0"/>
<circle cx="381" cy="160" r="20.0" style="fill:orange;stroke:black;stroke-width:1.0"/>
<circle cx="373" cy="174" r="20.0" style="fill:orange;stroke:black;stroke-width:1.0"/>
<circle cx="392" cy="182" r="20.0" style="fill:purple;stroke:black;stroke-width:1.0"/>
<circle cx="386" cy="192" r="20.0" style="fill:purple;stroke:black;stroke-width:1.0"/>
<circle cx="366" cy="235" r="20.0" style="fill:purple;stroke:black;stroke-width:1.0"/>
<circle cx="376" cy="232" r="20.0" style="fill:purple;stroke:black;stroke-width:1.0"/>
<circle cx="376" cy="281" r="20.0" style="fill:blue;stroke:black;stroke-width:1.0"/>
<circle cx="380" cy="271" r="20.0" style="fill:blue;stroke:black;stroke-width:1.0"/>
<circle cx="420" cy="273" r="20.0" style="fill:blue;stroke:black;stroke-width:1.0"/>
<circle cx="411" cy="280" r="20.0" style="fill:blue;stroke:black;stroke-width:1.0"/>
<circle cx="407" cy="320" r="20.0" style="fill:blue;stroke:black;stroke-width:1.0"/>
<circle cx="410" cy="307" r="20.0" style="fill:blue;stroke:black;stroke-width:1.0"/>
</svg>
