<svg width="440" height="340" xmlns="http://www.w3.org/2000/svg">
<path stroke-width="20.0" stroke="black" d="M 20 201 25 194"/>
<path stroke-width="0.5" stroke="black" d="M 349 105 368 152"/>
<path stroke-width="20.0" stroke="black" d="M 349 112 349 105"/>
<path stroke-width="0.5" stroke="black" d="M 368 152 349 105"/>
<path stroke-width="20.0" stroke="black" d="M 368 152 369 161"/>
<path stroke-width="0.5" stroke="black" d="M 368 152 388 194"/>
<path stroke-width="20.0" stroke="black" d="M 369 161 368 152"/>
<path stroke-width="0.5" stroke="black" d="M 388 194 368 152"/>
<path stroke-width="20.0" stroke="black" d="M 388 194 391 199"/>
<path stroke-width="0.5" stroke="black" d="M 388 194 405 233"/>
<path stroke-width="20.0" stroke="black" d="M 391 199 388 194"/>
<path stroke-width="0.5" stroke="black" d="M 405 233 388 194"/>
<path stroke-width="20.0" stroke="black" d="M 405 233 409 230"/>
<path stroke-width="20.0" stroke="black" d="M 349 105 349 112"/>
<path stroke-width="0.5" stroke="black" d="M 405 233 415 275"/>
<path stroke-width="0.5" stroke="black" d="M 415 275 405 233"/>
<path stroke-width="20.0" stroke="black" d="M 415 275 420 281"/>
<path stroke-width="0.5" stroke="black" d="M 415 275 412 307"/>
<path stroke-width="20.0" stroke="black" d="M 420 281 415 275"/>
<path stroke-width="0.5" stroke="black" d="M 412 307 415 275"/>
<path stroke-width="20.0" stroke="black" d="M 412 307 414 320"/>
<path stroke-width="0.5" stroke="black" d="M 412 307 397 278"/>
<path stroke-width="20.0" stroke="black" d="M 414 320 412 307"/>
<path stroke-width="0.5" stroke="black" d="M 397 278 412 307"/>
<path stroke-width="20.0" stroke="black" d="M 397 278 397 290"/>
<path stroke-width="0.5" stroke="black" d="M 397 278 386 222"/>
<path stroke-width="20.0" stroke="black" d="M 397 290 397 278"/>
<path stroke-width="20.0" stroke="black" d="M 409 230 405 233"/>
<path stroke-width="0.5" stroke="black" d="M 349 105 330 59"/>
<path stroke-width="20.0" stroke="black" d="M 332 48 330 59"/>
<path stroke-width="0.5" stroke="black" d="M 330 59 349 105"/>
<path stroke-width="8.857142857142858" stroke="black" d="M 199 91 206 96"/>
<path stroke-width="0.5" stroke="black" d="M 225 107 206 96"/>
<path stroke-width="20.0" stroke="black" d="M 225 107 222 111"/>
<path stroke-width="0.5" stroke="black" d="M 225 107 247 113"/>
<path stroke-width="20.0" stroke="black" d="M 222 111 225 107"/>
<path stroke-width="0.5" stroke="black" d="M 247 113 225 107"/>
<path stroke-width="20.0" stroke="black" d="M 247 113 250 122"/>
<path stroke-width="0.5" stroke="black" d="M 247 113 267 100"/>
<path stroke-width="20.0" stroke="black" d="M 250 122 247 113"/>
<path stroke-width="0.5" stroke="black" d="M 267 100 247 113"/>
<path stroke-width="20.0" stroke="black" d="M 267 100 272 105"/>
<path stroke-width="0.5" stroke="black" d="M 267 100 274 66"/>
<path stroke-width="20.0" stroke="black" d="M 272 105 267 100"/>
<path stroke-width="0.5" stroke="black" d="M 274 66 267 100"/>
<path stroke-width="20.0" stroke="black" d="M 274 66 270 67"/>
<path stroke-width="0.5" stroke="black" d="M 274 66 286 34"/>
<path stroke-width="20.0" stroke="black" d="M 270 67 274 66"/>
<path stroke-width="0.5" stroke="black" d="M 286 34 274 66"/>
<path stroke-width="20.0" stroke="black" d="M 286 34 282 26"/>
<path stroke-width="0.5" stroke="black" d="M 286 34 308 31"/>
<path stroke-width="20.0" stroke="black" d="M 282 26 286 34"/>
<path stroke-width="0.5" stroke="black" d="M 308 31 286 34"/>
<path stroke-width="20.0" stroke="black" d="M 308 31 307 20"/>
<path stroke-width="0.5" stroke="black" d="M 308 31 330 59"/>
<path stroke-width="20.0" stroke="black" d="M 307 20 308 31"/>
<path stroke-width="0.5" stroke="black" d="M 330 59 308 31"/>
<path stroke-width="20.0" stroke="black" d="M 330 59 332 48"/>
<path stroke-width="0.5" stroke="black" d="M 386 222 397 278"/>
<path stroke-width="20.0" stroke="black" d="M 386 222 383 231"/>
<path stroke-width="0.5" stroke="black" d="M 386 222 382 156"/>
<path stroke-width="20.0" stroke="black" d="M 383 231 386 222"/>
<path stroke-width="20.0" stroke="black" d="M 176 115 181 108"/>
<path stroke-width="0.5" stroke="black" d="M 146 75 181 108"/>
<path stroke-width="20.0" stroke="black" d="M 146 75 140 72"/>
<path stroke-width="0.5" stroke="black" d="M 146 75 120 42"/>
<path stroke-width="20.0" stroke="black" d="M 140 72 146 75"/>
<path stroke-width="0.5" stroke="black" d="M 120 42 146 75"/>
<path stroke-width="20.0" stroke="black" d="M 120 42 116 30"/>
<path stroke-width="0.5" stroke="black" d="M 120 42 99 44"/>
<path stroke-width="20.0" stroke="black" d="M 116 30 120 42"/>
<path stroke-width="0.5" stroke="black" d="M 99 44 120 42"/>
<path stroke-width="20.0" stroke="black" d="M 99 44 98 32"/>
<path stroke-width="0.5" stroke="black" d="M 99 44 85 86"/>
<path stroke-width="20.0" stroke="black" d="M 98 32 99 44"/>
<path stroke-width="0.5" stroke="black" d="M 85 86 99 44"/>
<path stroke-width="20.0" stroke="black" d="M 85 86 89 82"/>
<path stroke-width="0.5" stroke="black" d="M 85 86 66 130"/>
<path stroke-width="20.0" stroke="black" d="M 89 82 85 86"/>
<path stroke-width="0.5" stroke="black" d="M 66 130 85 86"/>
<path stroke-width="20.0" stroke="black" d="M 66 130 70 133"/>
<path stroke-width="0.5" stroke="black" d="M 66 130 44 168"/>
<path stroke-width="20.0" stroke="black" d="M 70 133 66 130"/>
<path stroke-width="0.5" stroke="black" d="M 44 168 66 130"/>
<path stroke-width="20.0" stroke="black" d="M 44 168 42 176"/>
<path stroke-width="0.5" stroke="black" d="M 44 168 25 194"/>
<path stroke-width="20.0" stroke="black" d="M 42 176 44 168"/>
<path stroke-width="0.5" stroke="black" d="M 25 194 44 168"/>
<path stroke-width="20.0" stroke="black" d="M 25 194 20 201"/>
<path stroke-width="0.5" stroke="black" d="M 181 108 146 75"/>
<path stroke-width="0.5" stroke="black" d="M 206 96 225 107"/>
<path stroke-width="20.0" stroke="black" d="M 181 108 176 115"/>
<path stroke-width="20.0" stroke="black" d="M 221 138 222 126"/>
<path stroke-width="0.5" stroke="black" d="M 382 156 386 222"/>
<path stroke-width="20.0" stroke="black" d="M 382 156 379 147"/>
<path stroke-width="0.5" stroke="black" d="M 382 156 378 94"/>
<path stroke-width="20.0" stroke="black" d="M 379 147 382 156"/>
<path stroke-width="0.5" stroke="black" d="M 378 94 382 156"/>
<path stroke-width="20.0" stroke="black" d="M 378 94 379 83"/>
<path stroke-width="0.5" stroke="black" d="M 378 94 368 54"/>
<path stroke-width="20.0" stroke="black" d="M 379 83 378 94"/>
<path stroke-width="0.5" stroke="black" d="M 368 54 378 94"/>
<path stroke-width="20.0" stroke="black" d="M 368 54 374 41"/>
<path stroke-width="0.5" stroke="black" d="M 368 54 342 68"/>
<path stroke-width="20.0" stroke="black" d="M 374 41 368 54"/>
<path stroke-width="0.5" stroke="black" d="M 342 68 368 54"/>
<path stroke-width="20.0" stroke="black" d="M 342 68 347 62"/>
<path stroke-width="0.5" stroke="black" d="M 342 68 306 98"/>
<path stroke-width="20.0" stroke="black" d="M 347 62 342 68"/>
<path stroke-width="0.5" stroke="black" d="M 306 98 342 68"/>
<path stroke-width="20.0" stroke="black" d="M 306 98 312 101"/>
<path stroke-width="0.5" stroke="black" d="M 306 98 267 121"/>
<path stroke-width="20.0" stroke="black" d="M 312 101 306 98"/>
<path stroke-width="0.5" stroke="black" d="M 267 121 306 98"/>
<path stroke-width="20.0" stroke="black" d="M 267 121 270 131"/>
<path stroke-width="0.5" stroke="black" d="M 267 121 222 126"/>
<path stroke-width="20.0" stroke="black" d="M 270 131 267 121"/>
<path stroke-width="0.5" stroke="black" d="M 222 126 267 121"/>
<path stroke-width="20.0" stroke="black" d="M 222 126 221 138"/>
<path stroke-width="0.5" stroke="black" d="M 222 126 181 108"/>
<path stroke-width="0.5" stroke="black" d="M 181 108 222 126"/>
<path stroke-width="8.857142857142858" stroke="black" d="M 206 96 199 91"/>
<circle cx="20" cy="201" r="7.0" style="fill:gray;stroke:black;stroke-width:1.0"/>
<circle cx="25" cy="194" r="7.0" style="fill:gray;stroke:black;stroke-width:1.0"/>
<circle cx="42" cy="176" r="7.0" style="fill:gray;stroke:black;stroke-width:1.0"/>
<circle cx="44" cy="168" r="7.0" style="fill:gray;stroke:black;stroke-width:1.0"/>
<circle cx="70" cy="133" r="7.0" style="fill:gray;stroke:black;stroke-width:1.0"/>
<circle cx="66" cy="130" r="7.0" style="fill:gray;stroke:black;stroke-width:1.0"/>
<circle cx="89" cy="82" r="7.0" style="fill:gray;stroke:black;stroke-width:1.0"/>
<circle cx="85" cy="86" r="7.0" style="fill:gray;stroke:black;stroke-width:1.0"/>
<circle cx="98" cy="32" r="7.0" style="fill:gray;stroke:black;stroke-width:1.0"/>
<circle cx="99" cy="44" r="7.0" style="fill:gray;stroke:black;stroke-width:1.0"/>
<circle cx="116" cy="30" r="7.0" style="fill:gray;stroke:black;stroke-width:1.0"/>
<circle cx="120" cy="42" r="7.0" style="fill:gray;stroke:black;stroke-width:1.0"/>
<circle cx="140" cy="72" r="7.0" style="fill:gray;stroke:black;stroke-width:1.0"/>
<circle cx="146" cy="75" r="7.0" style="fill:gray;stroke:black;stroke-width:1.0"/>
<circle cx="176" cy="115" r="7.0" style="fill:gray;stroke:black;stroke-width:1.0"/>
<circle cx="181" cy="108" r="7.0" style="fill:gray;stroke:black;stroke-width:1.0"/>
<circle cx="221" cy="138" r="7.0" style="fill:gray;stroke:black;stroke-width:1.0"/>
<circle cx="222" cy="126" r="7.0" style="fill:gray;stroke:black;stroke-width:1.0"/>
<circle cx="270" cy="131" r="7.0" style="fill:gray;stroke:black;stroke-width:1.0"/>
<circle cx="267" cy="121" r="7.0" style="fill:gray;stroke:black;stroke-width:1.0"/>
<circle cx="312" cy="101" r="7.0" style="fill:gray;stroke:black;stroke-width:1.0"/>
<circle cx="306" cy="98" r="7.0" style="fill:gray;stroke:black;stroke-width:1.0"/>
<circle cx="347" cy="62" r="7.0" style="fill:gray;stroke:black;stroke-width:1.0"/>
<circle cx="342" cy="68" r="7.0" style="fill:gray;stroke:black;stroke-width:1.0"/>
<circle cx="374" cy="41" r="7.0" style="fill:gray;stroke:black;stroke-width:1.0"/>
<circle cx="368" cy="54" r="7.0" style="fill:gray;stroke:black;stroke-width:1.0"/>
<circle cx="379" cy="83" r="7.0" style="fill:gray;stroke:black;stroke-width:1.0"/>
<circle cx="378" cy="94" r="7.0" style="fill:gray;stroke:black;stroke-width:1.0"/>
<circle cx="379" cy="147" r="7.0" style="fill:gray;stroke:black;stroke-width:1.0"/>
<circle cx="382" cy="156" r="7.0" style="fill:gray;stroke:black;stroke-width:1.0"/>
<circle cx="383" cy="231" r="7.0" style="fill:gray;stroke:black;stroke-width:1.0"/>
<circle cx="386" cy="222" r="7.0" style="fill:gray;stroke:black;stroke-width:1.0"/>
<circle cx="397" cy="290" r="7.0" style="fill:gray;stroke:black;stroke-width:1.0"/>
<circle cx="397" cy="278" r="7.0" style="fill:gray;stroke:black;stroke-width:1.0"/>
<circle cx="414" cy="320" r="7.0" style="fill:gray;stroke:black;stroke-width:1.0"/>
<circle cx="412" cy="307" r="7.0" style="fill:gray;stroke:black;stroke-width:1.0"/>
<circle cx="420" cy="281" r="7.0" style="fill:gray;stroke:black;stroke-width:1.0"/>
<circle cx="415" cy="275" r="7.0" style="fill:gray;stroke:black;stroke-width:1.0"/>
<circle cx="409" cy="230" r="7.0" style="fill:gray;stroke:black;stroke-width:1.0"/>
<circle cx="405" cy="233" r="7.0" style="fill:gray;stroke:black;stroke-width:1.0"/>
<circle cx="391" cy="199" r="7.0" style="fill:gray;stroke:black;stroke-width:1.0"/>
<circle cx="388" cy="194" r="7.0" style="fill:gray;stroke:black;stroke-width:1.0"/>
<circle cx="369" cy="161" r="7.0" style="fill:gray;stroke:black;stroke-width:1.0"/>
<circle cx="368" cy="152" r="7.0" style="fill:gray;stroke:black;stroke-width:1.0"/>
<circle cx="349" cy="112" r="7.0" style="fill:gray;stroke:black;stroke-width:1.0"/>
<circle cx="349" cy="105" r="7.0" style="fill:gray;stroke:black;stroke-width:1.0"/>
<circle cx="332" cy="48" r="7.0" style="fill:gray;stroke:black;stroke-width:1.0"/>
<circle cx="330" cy="59" r="7.0" style="fill:gray;stroke:black;stroke-width:1.0"/>
<circle cx="307" cy="20" r="7.0" style="fill:gray;stroke:black;stroke-width:1.0"/>
<circle cx="308" cy="31" r="7.0" style="fill:gray;stroke:black;stroke-width:1.0"/>
<circle cx="282" cy="26" r="7.0" style="fill:gray;stroke:black;stroke-width:1.0"/>
<circle cx="286" cy="34" r="7.0" style="fill:gray;stroke:black;stroke-width:1.0"/>
<circle cx="270" cy="67" r="7.0" style="fill:gray;stroke:black;stroke-width:1.0"/>
<circle cx="274" cy="66" r="7.0" style="fill:gray;stroke:black;stroke-width:1.0"/>
<circle cx="272" cy="105" r="7.0" style="fill:gray;stroke:black;stroke-width:1.0"/>
<circle cx="267" cy="100" r="7.0" style="fill:gray;stroke:black;stroke-width:1.0"/>
<circle cx="250" cy="122" r="7.0" style="fill:gray;stroke:black;stroke-width:1.0"/>
<circle cx="247" cy="113" r="7.0" style="fill:gray;stroke:black;stroke-width:1.0"/>
<circle cx="222" cy="111" r="7.0" style="fill:gray;stroke:black;stroke-width:1.0"/>
<circle cx="225" cy="107" r="7.0" style="fill:gray;stroke:black;stroke-width:1.0"/>
<circle cx="199" cy="91" r="7.0" style="fill:gray;stroke:black;stroke-width:1.0"/>
<circle cx="206" cy="96" r="7.0" style="fill:gray;stroke:black;stroke-width:1.0"/>
</svg>
