<svg width="440" height="340" xmlns="http://www.w3.org/2000/svg">
<path stroke-width="1" stroke="black" d="M 46 244 20 173"/>
<path stroke-width="1" stroke="black" d="M 370 65 417 129"/>
<path stroke-width="1" stroke="black" d="M 370 65 286 26"/>
<path stroke-width="1" stroke="black" d="M 417 129 370 65"/>
<path stroke-width="1" stroke="black" d="M 417 129 420 203"/>
<path stroke-width="1" stroke="black" d="M 376 268 420 203"/>
<path stroke-width="1" stroke="black" d="M 376 268 296 309"/>
<path stroke-width="1" stroke="black" d="M 195 20 104 46"/>
<path stroke-width="1" stroke="black" d="M 195 20 286 26"/>
<path stroke-width="1" stroke="black" d="M 113 296 204 320"/>
<path stroke-width="1" stroke="black" d="M 113 296 46 244"/>
<path stroke-width="1" stroke="black" d="M 420 203 417 129"/>
<path stroke-width="1" stroke="black" d="M 420 203 376 268"/>
<path stroke-width="1" stroke="black" d="M 20 173 42 101"/>
<path stroke-width="1" stroke="black" d="M 20 173 46 244"/>
<path stroke-width="1" stroke="black" d="M 104 46 42 101"/>
<path stroke-width="1" stroke="black" d="M 104 46 195 20"/>
<path stroke-width="1" stroke="black" d="M 286 26 370 65"/>
<path stroke-width="1" stroke="black" d="M 286 26 195 20"/>
<path stroke-width="1" stroke="black" d="M 204 320 113 296"/>
<path stroke-width="1" stroke="black" d="M 204 320 296 309"/>
<path stroke-width="1" stroke="black" d="M 296 309 376 268"/>
<path stroke-width="1" stroke="black" d="M 296 309 204 320"/>
<path stroke-width="1" stroke="black" d="M 46 244 113 296"/>
<path stroke-width="1" stroke="black" d="M 42 101 104 46"/>
<path stroke-width="1" stroke="black" d="M 42 101 20 173"/>
<circle cx="46" cy="244" r="7.0" style="fill:red;stroke:black;stroke-width:1.0"/>
<circle cx="296" cy="309" r="7.0" style="fill:green;stroke:black;stroke-width:1.0"/>
<circle cx="204" cy="320" r="7.0" style="fill:red;stroke:black;stroke-width:1.0"/>
<circle cx="286" cy="26" r="7.0" style="fill:blue;stroke:black;stroke-width:1.0"/>
<circle cx="104" cy="46" r="7.0" style="fill:blue;stroke:black;stroke-width:1.0"/>
<circle cx="20" cy="173" r="7.0" style="fill:red;stroke:black;stroke-width:1.0"/>
<circle cx="420" cy="203" r="7.0" style="fill:green;stroke:black;stroke-width:1.0"/>
<circle cx="113" cy="296" r="7.0" style="fill:red;stroke:black;stroke-width:1.0"/>
<circle cx="195" cy="20" r="7.0" style="fill:blue;stroke:black;stroke-width:1.0"/>
<circle cx="376" cy="268" r="7.0" style="fill:green;stroke:black;stroke-width:1.0"/>
<circle cx="417" cy="129" r="7.0" style="fill:green;stroke:black;stroke-width:1.0"/>
<circle cx="370" cy="65" r="7.0" style="fill:blue;stroke:black;stroke-width:1.0"/>
<circle cx="42" cy="101" r="7.0" style="fill:blue;stroke:black;stroke-width:1.0"/>
</svg>
