<svg width="440" height="340" xmlns="http://www.w3.org/2000/svg">
<path stroke-width="1" stroke="black" d="M 109 292 39 239"/>
<path stroke-width="1" stroke="black" d="M 299 28 370 71"/>
<path stroke-width="1" stroke="black" d="M 299 28 193 20"/>
<path stroke-width="1" stroke="black" d="M 370 71 299 28"/>
<path stroke-width="1" stroke="black" d="M 370 71 419 134"/>
<path stroke-width="1" stroke="black" d="M 420 201 419 134"/>
<path stroke-width="1" stroke="black" d="M 420 201 370 264"/>
<path stroke-width="1" stroke="black" d="M 105 49 40 103"/>
<path stroke-width="1" stroke="black" d="M 105 49 193 20"/>
<path stroke-width="1" stroke="black" d="M 194 320 302 309"/>
<path stroke-width="1" stroke="black" d="M 194 320 109 292"/>
<path stroke-width="1" stroke="black" d="M 419 134 370 71"/>
<path stroke-width="1" stroke="black" d="M 419 134 420 201"/>
<path stroke-width="1" stroke="black" d="M 39 239 20 171"/>
<path stroke-width="1" stroke="black" d="M 39 239 109 292"/>
<path stroke-width="1" stroke="black" d="M 40 103 20 171"/>
<path stroke-width="1" stroke="black" d="M 40 103 105 49"/>
<path stroke-width="1" stroke="black" d="M 193 20 299 28"/>
<path stroke-width="1" stroke="black" d="M 193 20 105 49"/>
<path stroke-width="1" stroke="black" d="M 302 309 194 320"/>
<path stroke-width="1" stroke="black" d="M 302 309 370 264"/>
<path stroke-width="1" stroke="black" d="M 370 264 420 201"/>
<path stroke-width="1" stroke="black" d="M 370 264 302 309"/>
<path stroke-width="1" stroke="black" d="M 109 292 194 320"/>
<path stroke-width="1" stroke="black" d="M 20 171 40 103"/>
<path stroke-width="1" stroke="black" d="M 20 171 39 239"/>
<circle cx="109" cy="292" r="7.0" style="fill:gray;stroke:black;stroke-width:1.0"/>
<circle cx="370" cy="264" r="7.0" style="fill:gray;stroke:black;stroke-width:1.0"/>
<circle cx="302" cy="309" r="7.0" style="fill:gray;stroke:black;stroke-width:1.0"/>
<circle cx="193" cy="20" r="7.0" style="fill:gray;stroke:black;stroke-width:1.0"/>
<circle cx="40" cy="103" r="7.0" style="fill:gray;stroke:black;stroke-width:1.0"/>
<circle cx="39" cy="239" r="7.0" style="fill:gray;stroke:black;stroke-width:1.0"/>
<circle cx="419" cy="134" r="7.0" style="fill:gray;stroke:black;stroke-width:1.0"/>
<circle cx="194" cy="320" r="7.0" style="fill:gray;stroke:black;stroke-width:1.0"/>
<circle cx="105" cy="49" r="7.0" style="fill:gray;stroke:black;stroke-width:1.0"/>
<circle cx="420" cy="201" r="7.0" style="fill:gray;stroke:black;stroke-width:1.0"/>
<circle cx="370" cy="71" r="7.0" style="fill:gray;stroke:black;stroke-width:1.0"/>
<circle cx="299" cy="28" r="7.0" style="fill:gray;stroke:black;stroke-width:1.0"/>
<circle cx="20" cy="171" r="7.0" style="fill:gray;stroke:black;stroke-width:1.0"/>
</svg>
