<svg width="440" height="340" xmlns="http://www.w3.org/2000/svg">
<path stroke-width="1" stroke="black" d="M 78 280 163 319"/>
<path stroke-width="1" stroke="black" d="M 390 88 319 43"/>
<path stroke-width="1" stroke="black" d="M 390 88 420 158"/>
<path stroke-width="1" stroke="black" d="M 319 43 390 88"/>
<path stroke-width="1" stroke="black" d="M 319 43 222 20"/>
<path stroke-width="1" stroke="black" d="M 127 34 222 20"/>
<path stroke-width="1" stroke="black" d="M 127 34 56 88"/>
<path stroke-width="1" stroke="black" d="M 406 225 352 286"/>
<path stroke-width="1" stroke="black" d="M 406 225 420 158"/>
<path stroke-width="1" stroke="black" d="M 26 223 20 149"/>
<path stroke-width="1" stroke="black" d="M 26 223 78 280"/>
<path stroke-width="1" stroke="black" d="M 222 20 319 43"/>
<path stroke-width="1" stroke="black" d="M 222 20 127 34"/>
<path stroke-width="1" stroke="black" d="M 163 319 264 320"/>
<path stroke-width="1" stroke="black" d="M 163 319 78 280"/>
<path stroke-width="1" stroke="black" d="M 352 286 264 320"/>
<path stroke-width="1" stroke="black" d="M 352 286 406 225"/>
<path stroke-width="1" stroke="black" d="M 420 158 390 88"/>
<path stroke-width="1" stroke="black" d="M 420 158 406 225"/>
<path stroke-width="1" stroke="black" d="M 20 149 26 223"/>
<path stroke-width="1" stroke="black" d="M 20 149 56 88"/>
<path stroke-width="1" stroke="black" d="M 56 88 127 34"/>
<path stroke-width="1" stroke="black" d="M 56 88 20 149"/>
<path stroke-width="1" stroke="black" d="M 78 280 26 223"/>
<path stroke-width="1" stroke="black" d="M 264 320 352 286"/>
<path stroke-width="1" stroke="black" d="M 264 320 163 319"/>
<circle cx="78" cy="280" r="20.0" style="fill:red;stroke:black;stroke-width:1.0"/>
<circle cx="56" cy="88" r="20.0" style="fill:green;stroke:black;stroke-width:1.0"/>
<circle cx="20" cy="149" r="20.0" style="fill:red;stroke:black;stroke-width:1.0"/>
<circle cx="420" cy="158" r="20.0" style="fill:blue;stroke:black;stroke-width:1.0"/>
<circle cx="352" cy="286" r="20.0" style="fill:blue;stroke:black;stroke-width:1.0"/>
<circle cx="163" cy="319" r="20.0" style="fill:red;stroke:black;stroke-width:1.0"/>
<circle cx="222" cy="20" r="20.0" style="fill:green;stroke:black;stroke-width:1.0"/>
<circle cx="26" cy="223" r="20.0" style="fill:red;stroke:black;stroke-width:1.0"/>
<circle cx="406" cy="225" r="20.0" style="fill:blue;stroke:black;stroke-width:1.0"/>
<circle cx="127" cy="34" r="20.0" style="fill:green;stroke:black;stroke-width:1.0"/>
<circle cx="319" cy="43" r="20.0" style="fill:green;stroke:black;stroke-width:1.0"/>
<circle cx="390" cy="88" r="20.0" style="fill:blue;stroke:black;stroke-width:1.0"/>
<circle cx="264" cy="320" r="20.0" style="fill:blue;stroke:black;stroke-width:1.0"/>
</svg>
