<svg width="440" height="340" xmlns="http://www.w3.org/2000/svg">
<path stroke-width="1" stroke="black" d="M 409 111 420 186"/>
<path stroke-width="1" stroke="black" d="M 57 256 20 188"/>
<path stroke-width="1" stroke="black" d="M 57 256 126 305"/>
<path stroke-width="1" stroke="black" d="M 20 188 57 256"/>
<path stroke-width="1" stroke="black" d="M 20 188 32 113"/>
<path stroke-width="1" stroke="black" d="M 94 56 32 113"/>
<path stroke-width="1" stroke="black" d="M 94 56 174 21"/>
<path stroke-width="1" stroke="black" d="M 219 320 308 302"/>
<path stroke-width="1" stroke="black" d="M 219 320 126 305"/>
<path stroke-width="1" stroke="black" d="M 352 52 269 20"/>
<path stroke-width="1" stroke="black" d="M 352 52 409 111"/>
<path stroke-width="1" stroke="black" d="M 32 113 20 188"/>
<path stroke-width="1" stroke="black" d="M 32 113 94 56"/>
<path stroke-width="1" stroke="black" d="M 420 186 383 255"/>
<path stroke-width="1" stroke="black" d="M 420 186 409 111"/>
<path stroke-width="1" stroke="black" d="M 308 302 383 255"/>
<path stroke-width="1" stroke="black" d="M 308 302 219 320"/>
<path stroke-width="1" stroke="black" d="M 126 305 57 256"/>
<path stroke-width="1" stroke="black" d="M 126 305 219 320"/>
<path stroke-width="1" stroke="black" d="M 269 20 352 52"/>
<path stroke-width="1" stroke="black" d="M 269 20 174 21"/>
<path stroke-width="1" stroke="black" d="M 174 21 94 56"/>
<path stroke-width="1" stroke="black" d="M 174 21 269 20"/>
<path stroke-width="1" stroke="black" d="M 409 111 352 52"/>
<path stroke-width="1" stroke="black" d="M 383 255 308 302"/>
<path stroke-width="1" stroke="black" d="M 383 255 420 186"/>
<circle cx="409" cy="111" r="7.0" style="fill:gray;stroke:black;stroke-width:1.0"/>
<circle cx="174" cy="21" r="7.0" style="fill:gray;stroke:black;stroke-width:1.0"/>
<circle cx="269" cy="20" r="7.0" style="fill:gray;stroke:black;stroke-width:1.0"/>
<circle cx="126" cy="305" r="7.0" style="fill:gray;stroke:black;stroke-width:1.0"/>
<circle cx="308" cy="302" r="7.0" style="fill:gray;stroke:black;stroke-width:1.0"/>
<circle cx="420" cy="186" r="7.0" style="fill:gray;stroke:black;stroke-width:1.0"/>
<circle cx="32" cy="113" r="7.0" style="fill:gray;stroke:black;stroke-width:1.0"/>
<circle cx="352" cy="52" r="7.0" style="fill:gray;stroke:black;stroke-width:1.0"/>
<circle cx="219" cy="320" r="7.0" style="fill:gray;stroke:black;stroke-width:1.0"/>
<circle cx="94" cy="56" r="7.0" style="fill:gray;stroke:black;stroke-width:1.0"/>
<circle cx="20" cy="188" r="7.0" style="fill:gray;stroke:black;stroke-width:1.0"/>
<circle cx="57" cy="256" r="7.0" style="fill:gray;stroke:black;stroke-width:1.0"/>
<circle cx="383" cy="255" r="7.0" style="fill:gray;stroke:black;stroke-width:1.0"/>
</svg>
