<svg width="440" height="340" xmlns="http://www.w3.org/2000/svg">
<path stroke-width="20.0" stroke="black" d="M 136 237 173 225"/>
<path stroke-width="0.5" stroke="black" d="M 299 172 196 184"/>
<path stroke-width="0.5" stroke="black" d="M 299 172 268 234"/>
<path stroke-width="0.5" stroke="black" d="M 299 172 245 247"/>
<path stroke-width="0.5" stroke="black" d="M 299 172 352 219"/>
<path stroke-width="0.5" stroke="black" d="M 299 172 219 234"/>
<path stroke-width="8.181818181818182" stroke="black" d="M 299 172 344 147"/>
<path stroke-width="0.5" stroke="black" d="M 299 172 161 225"/>
<path stroke-width="0.5" stroke="black" d="M 299 172 184 235"/>
<path stroke-width="0.5" stroke="black" d="M 299 172 287 175"/>
<path stroke-width="0.5" stroke="black" d="M 299 172 147 210"/>
<path stroke-width="0.5" stroke="black" d="M 299 172 190 167"/>
<path stroke-width="0.5" stroke="black" d="M 299 172 232 155"/>
<path stroke-width="0.5" stroke="black" d="M 299 172 252 256"/>
<path stroke-width="0.5" stroke="black" d="M 299 172 169 148"/>
<path stroke-width="7.393939393939394" stroke="black" d="M 98 248 161 225"/>
<path stroke-width="0.5" stroke="black" d="M 161 225 173 225"/>
<path stroke-width="0.5" stroke="black" d="M 299 172 324 169"/>
<path stroke-width="0.5" stroke="black" d="M 161 225 291 174"/>
<path stroke-width="0.5" stroke="black" d="M 299 172 267 198"/>
<path stroke-width="0.7954545454545454" stroke="black" d="M 299 172 161 196"/>
<path stroke-width="0.5" stroke="black" d="M 219 234 161 225"/>
<path stroke-width="0.5" stroke="black" d="M 219 234 287 175"/>
<path stroke-width="0.5" stroke="black" d="M 219 234 324 169"/>
<path stroke-width="0.5" stroke="black" d="M 219 234 147 210"/>
<path stroke-width="0.5" stroke="black" d="M 219 234 190 167"/>
<path stroke-width="0.5" stroke="black" d="M 219 234 232 155"/>
<path stroke-width="0.5" stroke="black" d="M 219 234 252 256"/>
<path stroke-width="0.5" stroke="black" d="M 299 172 341 216"/>
<path stroke-width="0.5" stroke="black" d="M 219 234 169 148"/>
<path stroke-width="0.5" stroke="black" d="M 299 172 173 225"/>
<path stroke-width="0.5" stroke="black" d="M 299 172 291 174"/>
<path stroke-width="0.5" stroke="black" d="M 299 172 266 221"/>
<path stroke-width="0.5" stroke="black" d="M 299 172 243 192"/>
<path stroke-width="0.5" stroke="black" d="M 299 172 344 197"/>
<path stroke-width="0.5" stroke="black" d="M 299 172 308 231"/>
<path stroke-width="0.5" stroke="black" d="M 299 172 213 191"/>
<path stroke-width="8.181818181818182" stroke="black" d="M 344 147 299 172"/>
<path stroke-width="0.5" stroke="black" d="M 161 225 266 221"/>
<path stroke-width="0.5" stroke="black" d="M 161 225 243 192"/>
<path stroke-width="0.5" stroke="black" d="M 161 225 344 197"/>
<path stroke-width="0.5" stroke="black" d="M 287 175 173 225"/>
<path stroke-width="0.5" stroke="black" d="M 287 175 291 174"/>
<path stroke-width="0.5" stroke="black" d="M 287 175 266 221"/>
<path stroke-width="0.5" stroke="black" d="M 287 175 243 192"/>
<path stroke-width="0.5" stroke="black" d="M 287 175 344 197"/>
<path stroke-width="0.7954545454545454" stroke="black" d="M 287 175 308 231"/>
<path stroke-width="0.5" stroke="black" d="M 287 175 213 191"/>
<path stroke-width="6.606060606060606" stroke="black" d="M 319 144 287 175"/>
<path stroke-width="0.5" stroke="black" d="M 287 175 161 196"/>
<path stroke-width="0.5" stroke="black" d="M 287 175 267 198"/>
<path stroke-width="0.5" stroke="black" d="M 287 175 184 235"/>
<path stroke-width="0.5" stroke="black" d="M 287 175 196 184"/>
<path stroke-width="0.5" stroke="black" d="M 287 175 268 234"/>
<path stroke-width="0.5" stroke="black" d="M 287 175 245 247"/>
<path stroke-width="0.5" stroke="black" d="M 287 175 352 219"/>
<path stroke-width="0.5" stroke="black" d="M 287 175 219 234"/>
<path stroke-width="0.5" stroke="black" d="M 287 175 341 216"/>
<path stroke-width="0.5" stroke="black" d="M 161 225 169 148"/>
<path stroke-width="0.5" stroke="black" d="M 161 225 252 256"/>
<path stroke-width="0.5" stroke="black" d="M 161 225 232 155"/>
<path stroke-width="0.5" stroke="black" d="M 161 225 308 231"/>
<path stroke-width="0.7954545454545454" stroke="black" d="M 161 225 213 191"/>
<path stroke-width="0.5" stroke="black" d="M 161 225 161 196"/>
<path stroke-width="0.5" stroke="black" d="M 161 225 341 216"/>
<path stroke-width="0.5" stroke="black" d="M 161 225 267 198"/>
<path stroke-width="0.5" stroke="black" d="M 161 225 184 235"/>
<path stroke-width="0.5" stroke="black" d="M 161 225 196 184"/>
<path stroke-width="0.5" stroke="black" d="M 161 225 268 234"/>
<path stroke-width="0.5" stroke="black" d="M 161 225 245 247"/>
<path stroke-width="0.5" stroke="black" d="M 161 225 352 219"/>
<path stroke-width="0.5" stroke="black" d="M 161 225 219 234"/>
<path stroke-width="0.5" stroke="black" d="M 161 225 299 172"/>
<path stroke-width="7.393939393939394" stroke="black" d="M 161 225 98 248"/>
<path stroke-width="0.5" stroke="black" d="M 161 225 287 175"/>
<path stroke-width="0.5" stroke="black" d="M 161 225 324 169"/>
<path stroke-width="0.5" stroke="black" d="M 161 225 147 210"/>
<path stroke-width="0.5" stroke="black" d="M 161 225 190 167"/>
<path stroke-width="0.5" stroke="black" d="M 219 234 299 172"/>
<path stroke-width="0.5" stroke="black" d="M 287 175 299 172"/>
<path stroke-width="8.969696969696969" stroke="black" d="M 219 234 197 261"/>
<path stroke-width="0.5" stroke="black" d="M 219 234 245 247"/>
<path stroke-width="0.5" stroke="black" d="M 245 247 341 216"/>
<path stroke-width="0.5" stroke="black" d="M 245 247 267 198"/>
<path stroke-width="0.7954545454545454" stroke="black" d="M 245 247 184 235"/>
<path stroke-width="0.5" stroke="black" d="M 245 247 196 184"/>
<path stroke-width="0.5" stroke="black" d="M 245 247 268 234"/>
<path stroke-width="10.545454545454545" stroke="black" d="M 245 247 247 275"/>
<path stroke-width="0.5" stroke="black" d="M 245 247 352 219"/>
<path stroke-width="0.5" stroke="black" d="M 245 247 161 196"/>
<path stroke-width="0.5" stroke="black" d="M 245 247 219 234"/>
<path stroke-width="0.5" stroke="black" d="M 245 247 161 225"/>
<path stroke-width="0.5" stroke="black" d="M 245 247 287 175"/>
<path stroke-width="0.5" stroke="black" d="M 245 247 324 169"/>
<path stroke-width="0.5" stroke="black" d="M 245 247 147 210"/>
<path stroke-width="0.5" stroke="black" d="M 245 247 190 167"/>
<path stroke-width="0.5" stroke="black" d="M 245 247 232 155"/>
<path stroke-width="0.5" stroke="black" d="M 245 247 252 256"/>
<path stroke-width="0.5" stroke="black" d="M 245 247 299 172"/>
<path stroke-width="0.5" stroke="black" d="M 245 247 169 148"/>
<path stroke-width="0.5" stroke="black" d="M 245 247 213 191"/>
<path stroke-width="0.5" stroke="black" d="M 245 247 344 197"/>
<path stroke-width="0.5" stroke="black" d="M 268 234 352 219"/>
<path stroke-width="0.5" stroke="black" d="M 268 234 219 234"/>
<path stroke-width="0.5" stroke="black" d="M 268 234 299 172"/>
<path stroke-width="0.5" stroke="black" d="M 268 234 161 225"/>
<path stroke-width="0.5" stroke="black" d="M 268 234 287 175"/>
<path stroke-width="0.5" stroke="black" d="M 268 234 324 169"/>
<path stroke-width="0.5" stroke="black" d="M 268 234 147 210"/>
<path stroke-width="0.5" stroke="black" d="M 245 247 308 231"/>
<path stroke-width="0.5" stroke="black" d="M 268 234 190 167"/>
<path stroke-width="0.5" stroke="black" d="M 268 234 252 256"/>
<path stroke-width="0.5" stroke="black" d="M 268 234 169 148"/>
<path stroke-width="10.545454545454545" stroke="black" d="M 247 275 245 247"/>
<path stroke-width="0.5" stroke="black" d="M 245 247 173 225"/>
<path stroke-width="0.5" stroke="black" d="M 245 247 291 174"/>
<path stroke-width="0.5" stroke="black" d="M 245 247 266 221"/>
<path stroke-width="0.5" stroke="black" d="M 245 247 243 192"/>
<path stroke-width="0.5" stroke="black" d="M 268 234 232 155"/>
<path stroke-width="9.757575757575758" stroke="black" d="M 420 233 352 219"/>
<path stroke-width="0.5" stroke="black" d="M 352 219 173 225"/>
<path stroke-width="0.5" stroke="black" d="M 352 219 291 174"/>
<path stroke-width="0.5" stroke="black" d="M 352 219 252 256"/>
<path stroke-width="0.5" stroke="black" d="M 352 219 169 148"/>
<path stroke-width="8.969696969696969" stroke="black" d="M 197 261 219 234"/>
<path stroke-width="0.5" stroke="black" d="M 219 234 173 225"/>
<path stroke-width="0.5" stroke="black" d="M 219 234 291 174"/>
<path stroke-width="0.5" stroke="black" d="M 219 234 266 221"/>
<path stroke-width="0.5" stroke="black" d="M 219 234 243 192"/>
<path stroke-width="0.5" stroke="black" d="M 352 219 232 155"/>
<path stroke-width="0.5" stroke="black" d="M 219 234 344 197"/>
<path stroke-width="0.5" stroke="black" d="M 219 234 213 191"/>
<path stroke-width="0.5" stroke="black" d="M 219 234 161 196"/>
<path stroke-width="0.7954545454545454" stroke="black" d="M 219 234 341 216"/>
<path stroke-width="0.5" stroke="black" d="M 219 234 267 198"/>
<path stroke-width="0.5" stroke="black" d="M 219 234 184 235"/>
<path stroke-width="0.5" stroke="black" d="M 219 234 196 184"/>
<path stroke-width="0.5" stroke="black" d="M 219 234 268 234"/>
<path stroke-width="0.5" stroke="black" d="M 219 234 308 231"/>
<path stroke-width="0.5" stroke="black" d="M 352 219 190 167"/>
<path stroke-width="0.5" stroke="black" d="M 352 219 147 210"/>
<path stroke-width="0.5" stroke="black" d="M 352 219 324 169"/>
<path stroke-width="0.5" stroke="black" d="M 352 219 266 221"/>
<path stroke-width="0.5" stroke="black" d="M 352 219 243 192"/>
<path stroke-width="0.5" stroke="black" d="M 352 219 344 197"/>
<path stroke-width="0.5" stroke="black" d="M 352 219 308 231"/>
<path stroke-width="0.5" stroke="black" d="M 352 219 213 191"/>
<path stroke-width="0.5" stroke="black" d="M 352 219 161 196"/>
<path stroke-width="0.5" stroke="black" d="M 352 219 341 216"/>
<path stroke-width="0.7954545454545454" stroke="black" d="M 352 219 267 198"/>
<path stroke-width="0.5" stroke="black" d="M 352 219 184 235"/>
<path stroke-width="0.5" stroke="black" d="M 352 219 196 184"/>
<path stroke-width="0.5" stroke="black" d="M 352 219 268 234"/>
<path stroke-width="0.5" stroke="black" d="M 352 219 245 247"/>
<path stroke-width="9.757575757575758" stroke="black" d="M 352 219 420 233"/>
<path stroke-width="0.5" stroke="black" d="M 352 219 219 234"/>
<path stroke-width="0.5" stroke="black" d="M 352 219 299 172"/>
<path stroke-width="0.5" stroke="black" d="M 352 219 161 225"/>
<path stroke-width="0.5" stroke="black" d="M 352 219 287 175"/>
<path stroke-width="0.5" stroke="black" d="M 219 234 352 219"/>
<path stroke-width="0.5" stroke="black" d="M 287 175 161 225"/>
<path stroke-width="6.606060606060606" stroke="black" d="M 287 175 319 144"/>
<path stroke-width="0.5" stroke="black" d="M 287 175 324 169"/>
<path stroke-width="0.5" stroke="black" d="M 232 155 287 175"/>
<path stroke-width="0.5" stroke="black" d="M 232 155 324 169"/>
<path stroke-width="0.5" stroke="black" d="M 232 155 147 210"/>
<path stroke-width="0.5" stroke="black" d="M 232 155 190 167"/>
<path stroke-width="3.4545454545454546" stroke="black" d="M 232 155 218 101"/>
<path stroke-width="0.5" stroke="black" d="M 232 155 252 256"/>
<path stroke-width="0.5" stroke="black" d="M 232 155 169 148"/>
<path stroke-width="0.5" stroke="black" d="M 232 155 161 225"/>
<path stroke-width="3.0606060606060606" stroke="black" d="M 261 320 252 256"/>
<path stroke-width="0.5" stroke="black" d="M 252 256 291 174"/>
<path stroke-width="0.5" stroke="black" d="M 252 256 266 221"/>
<path stroke-width="0.5" stroke="black" d="M 252 256 243 192"/>
<path stroke-width="0.5" stroke="black" d="M 252 256 344 197"/>
<path stroke-width="0.5" stroke="black" d="M 252 256 308 231"/>
<path stroke-width="0.5" stroke="black" d="M 252 256 213 191"/>
<path stroke-width="0.5" stroke="black" d="M 252 256 161 196"/>
<path stroke-width="0.7954545454545454" stroke="black" d="M 252 256 173 225"/>
<path stroke-width="0.5" stroke="black" d="M 252 256 341 216"/>
<path stroke-width="0.5" stroke="black" d="M 232 155 299 172"/>
<path stroke-width="0.5" stroke="black" d="M 232 155 352 219"/>
<path stroke-width="0.5" stroke="black" d="M 190 167 169 148"/>
<path stroke-width="3.4545454545454546" stroke="black" d="M 218 101 232 155"/>
<path stroke-width="0.5" stroke="black" d="M 232 155 173 225"/>
<path stroke-width="0.7954545454545454" stroke="black" d="M 232 155 291 174"/>
<path stroke-width="0.5" stroke="black" d="M 232 155 266 221"/>
<path stroke-width="0.5" stroke="black" d="M 232 155 243 192"/>
<path stroke-width="0.5" stroke="black" d="M 232 155 344 197"/>
<path stroke-width="0.5" stroke="black" d="M 232 155 219 234"/>
<path stroke-width="0.5" stroke="black" d="M 232 155 308 231"/>
<path stroke-width="0.5" stroke="black" d="M 232 155 161 196"/>
<path stroke-width="0.5" stroke="black" d="M 232 155 341 216"/>
<path stroke-width="0.5" stroke="black" d="M 232 155 267 198"/>
<path stroke-width="0.5" stroke="black" d="M 232 155 184 235"/>
<path stroke-width="0.5" stroke="black" d="M 232 155 196 184"/>
<path stroke-width="0.5" stroke="black" d="M 232 155 268 234"/>
<path stroke-width="0.5" stroke="black" d="M 232 155 245 247"/>
<path stroke-width="0.5" stroke="black" d="M 232 155 213 191"/>
<path stroke-width="0.5" stroke="black" d="M 252 256 267 198"/>
<path stroke-width="0.5" stroke="black" d="M 252 256 184 235"/>
<path stroke-width="0.5" stroke="black" d="M 252 256 196 184"/>
<path stroke-width="0.5" stroke="black" d="M 169 148 161 196"/>
<path stroke-width="0.5" stroke="black" d="M 169 148 341 216"/>
<path stroke-width="0.5" stroke="black" d="M 169 148 267 198"/>
<path stroke-width="0.5" stroke="black" d="M 169 148 184 235"/>
<path stroke-width="0.5" stroke="black" d="M 169 148 196 184"/>
<path stroke-width="0.5" stroke="black" d="M 169 148 268 234"/>
<path stroke-width="0.5" stroke="black" d="M 169 148 245 247"/>
<path stroke-width="0.5" stroke="black" d="M 169 148 213 191"/>
<path stroke-width="0.5" stroke="black" d="M 169 148 352 219"/>
<path stroke-width="0.5" stroke="black" d="M 169 148 299 172"/>
<path stroke-width="0.5" stroke="black" d="M 169 148 161 225"/>
<path stroke-width="0.5" stroke="black" d="M 169 148 287 175"/>
<path stroke-width="0.5" stroke="black" d="M 169 148 324 169"/>
<path stroke-width="0.5" stroke="black" d="M 169 148 147 210"/>
<path stroke-width="0.5" stroke="black" d="M 169 148 190 167"/>
<path stroke-width="0.5" stroke="black" d="M 169 148 232 155"/>
<path stroke-width="0.5" stroke="black" d="M 169 148 219 234"/>
<path stroke-width="0.5" stroke="black" d="M 169 148 308 231"/>
<path stroke-width="0.5" stroke="black" d="M 169 148 344 197"/>
<path stroke-width="0.5" stroke="black" d="M 169 148 243 192"/>
<path stroke-width="0.5" stroke="black" d="M 252 256 268 234"/>
<path stroke-width="0.5" stroke="black" d="M 252 256 245 247"/>
<path stroke-width="0.5" stroke="black" d="M 252 256 352 219"/>
<path stroke-width="0.5" stroke="black" d="M 252 256 219 234"/>
<path stroke-width="0.5" stroke="black" d="M 252 256 299 172"/>
<path stroke-width="0.5" stroke="black" d="M 252 256 161 225"/>
<path stroke-width="0.5" stroke="black" d="M 252 256 287 175"/>
<path stroke-width="0.5" stroke="black" d="M 252 256 324 169"/>
<path stroke-width="0.5" stroke="black" d="M 252 256 147 210"/>
<path stroke-width="0.5" stroke="black" d="M 252 256 190 167"/>
<path stroke-width="0.5" stroke="black" d="M 252 256 232 155"/>
<path stroke-width="3.0606060606060606" stroke="black" d="M 252 256 261 320"/>
<path stroke-width="0.5" stroke="black" d="M 252 256 169 148"/>
<path stroke-width="1.0909090909090908" stroke="black" d="M 20 20 169 148"/>
<path stroke-width="0.5" stroke="black" d="M 169 148 173 225"/>
<path stroke-width="0.5" stroke="black" d="M 169 148 291 174"/>
<path stroke-width="0.5" stroke="black" d="M 169 148 266 221"/>
<path stroke-width="0.5" stroke="black" d="M 190 167 252 256"/>
<path stroke-width="0.5" stroke="black" d="M 190 167 232 155"/>
<path stroke-width="4.242424242424242" stroke="black" d="M 190 167 140 126"/>
<path stroke-width="0.5" stroke="black" d="M 190 167 147 210"/>
<path stroke-width="0.5" stroke="black" d="M 324 169 219 234"/>
<path stroke-width="0.5" stroke="black" d="M 324 169 299 172"/>
<path stroke-width="0.5" stroke="black" d="M 324 169 161 225"/>
<path stroke-width="0.5" stroke="black" d="M 324 169 287 175"/>
<path stroke-width="5.818181818181818" stroke="black" d="M 324 169 378 135"/>
<path stroke-width="0.5" stroke="black" d="M 324 169 147 210"/>
<path stroke-width="0.5" stroke="black" d="M 324 169 190 167"/>
<path stroke-width="0.5" stroke="black" d="M 324 169 352 219"/>
<path stroke-width="0.5" stroke="black" d="M 324 169 232 155"/>
<path stroke-width="0.5" stroke="black" d="M 324 169 169 148"/>
<path stroke-width="5.03030303030303" stroke="black" d="M 47 221 147 210"/>
<path stroke-width="0.5" stroke="black" d="M 147 210 173 225"/>
<path stroke-width="0.5" stroke="black" d="M 147 210 291 174"/>
<path stroke-width="0.5" stroke="black" d="M 147 210 266 221"/>
<path stroke-width="0.7954545454545454" stroke="black" d="M 147 210 243 192"/>
<path stroke-width="0.5" stroke="black" d="M 147 210 344 197"/>
<path stroke-width="0.5" stroke="black" d="M 324 169 252 256"/>
<path stroke-width="0.5" stroke="black" d="M 324 169 245 247"/>
<path stroke-width="0.5" stroke="black" d="M 324 169 268 234"/>
<path stroke-width="0.5" stroke="black" d="M 324 169 196 184"/>
<path stroke-width="0.5" stroke="black" d="M 287 175 147 210"/>
<path stroke-width="0.5" stroke="black" d="M 287 175 190 167"/>
<path stroke-width="0.5" stroke="black" d="M 287 175 232 155"/>
<path stroke-width="0.5" stroke="black" d="M 287 175 252 256"/>
<path stroke-width="0.5" stroke="black" d="M 287 175 169 148"/>
<path stroke-width="5.818181818181818" stroke="black" d="M 378 135 324 169"/>
<path stroke-width="0.5" stroke="black" d="M 324 169 173 225"/>
<path stroke-width="0.5" stroke="black" d="M 324 169 291 174"/>
<path stroke-width="0.5" stroke="black" d="M 324 169 266 221"/>
<path stroke-width="0.5" stroke="black" d="M 324 169 243 192"/>
<path stroke-width="0.7954545454545454" stroke="black" d="M 324 169 344 197"/>
<path stroke-width="0.5" stroke="black" d="M 324 169 308 231"/>
<path stroke-width="0.5" stroke="black" d="M 324 169 213 191"/>
<path stroke-width="0.5" stroke="black" d="M 324 169 161 196"/>
<path stroke-width="0.5" stroke="black" d="M 324 169 341 216"/>
<path stroke-width="0.5" stroke="black" d="M 324 169 267 198"/>
<path stroke-width="0.5" stroke="black" d="M 324 169 184 235"/>
<path stroke-width="0.5" stroke="black" d="M 147 210 308 231"/>
<path stroke-width="0.5" stroke="black" d="M 268 234 245 247"/>
<path stroke-width="0.5" stroke="black" d="M 147 210 213 191"/>
<path stroke-width="0.5" stroke="black" d="M 147 210 341 216"/>
<path stroke-width="0.5" stroke="black" d="M 190 167 344 197"/>
<path stroke-width="0.5" stroke="black" d="M 190 167 308 231"/>
<path stroke-width="0.5" stroke="black" d="M 190 167 213 191"/>
<path stroke-width="0.5" stroke="black" d="M 190 167 161 196"/>
<path stroke-width="0.5" stroke="black" d="M 190 167 341 216"/>
<path stroke-width="0.5" stroke="black" d="M 190 167 267 198"/>
<path stroke-width="0.5" stroke="black" d="M 190 167 184 235"/>
<path stroke-width="0.5" stroke="black" d="M 190 167 243 192"/>
<path stroke-width="0.5" stroke="black" d="M 190 167 196 184"/>
<path stroke-width="0.5" stroke="black" d="M 190 167 245 247"/>
<path stroke-width="0.5" stroke="black" d="M 190 167 352 219"/>
<path stroke-width="0.5" stroke="black" d="M 190 167 219 234"/>
<path stroke-width="0.5" stroke="black" d="M 190 167 299 172"/>
<path stroke-width="0.5" stroke="black" d="M 190 167 161 225"/>
<path stroke-width="0.5" stroke="black" d="M 190 167 287 175"/>
<path stroke-width="0.5" stroke="black" d="M 190 167 324 169"/>
<path stroke-width="0.5" stroke="black" d="M 190 167 268 234"/>
<path stroke-width="0.7954545454545454" stroke="black" d="M 190 167 266 221"/>
<path stroke-width="0.5" stroke="black" d="M 190 167 291 174"/>
<path stroke-width="0.5" stroke="black" d="M 190 167 173 225"/>
<path stroke-width="0.5" stroke="black" d="M 147 210 267 198"/>
<path stroke-width="0.5" stroke="black" d="M 147 210 184 235"/>
<path stroke-width="0.5" stroke="black" d="M 147 210 196 184"/>
<path stroke-width="0.5" stroke="black" d="M 147 210 268 234"/>
<path stroke-width="0.5" stroke="black" d="M 147 210 245 247"/>
<path stroke-width="0.5" stroke="black" d="M 147 210 352 219"/>
<path stroke-width="0.5" stroke="black" d="M 147 210 219 234"/>
<path stroke-width="0.5" stroke="black" d="M 147 210 299 172"/>
<path stroke-width="0.5" stroke="black" d="M 147 210 161 225"/>
<path stroke-width="0.5" stroke="black" d="M 147 210 287 175"/>
<path stroke-width="0.5" stroke="black" d="M 147 210 324 169"/>
<path stroke-width="5.03030303030303" stroke="black" d="M 147 210 47 221"/>
<path stroke-width="0.5" stroke="black" d="M 147 210 190 167"/>
<path stroke-width="0.5" stroke="black" d="M 147 210 232 155"/>
<path stroke-width="0.5" stroke="black" d="M 147 210 252 256"/>
<path stroke-width="0.5" stroke="black" d="M 147 210 169 148"/>
<path stroke-width="4.242424242424242" stroke="black" d="M 140 126 190 167"/>
<path stroke-width="0.5" stroke="black" d="M 147 210 161 196"/>
<path stroke-width="11.333333333333334" stroke="black" d="M 268 234 286 259"/>
<path stroke-width="0.7954545454545454" stroke="black" d="M 268 234 196 184"/>
<path stroke-width="0.5" stroke="black" d="M 268 234 184 235"/>
<path stroke-width="0.5" stroke="black" d="M 243 192 169 148"/>
<path stroke-width="17.242424242424242" stroke="black" d="M 395 195 344 197"/>
<path stroke-width="0.5" stroke="black" d="M 344 197 173 225"/>
<path stroke-width="0.5" stroke="black" d="M 344 197 291 174"/>
<path stroke-width="0.5" stroke="black" d="M 344 197 266 221"/>
<path stroke-width="0.5" stroke="black" d="M 344 197 243 192"/>
<path stroke-width="17.242424242424242" stroke="black" d="M 344 197 395 195"/>
<path stroke-width="0.5" stroke="black" d="M 243 192 252 256"/>
<path stroke-width="0.5" stroke="black" d="M 344 197 308 231"/>
<path stroke-width="0.5" stroke="black" d="M 344 197 161 196"/>
<path stroke-width="0.5" stroke="black" d="M 344 197 341 216"/>
<path stroke-width="0.5" stroke="black" d="M 344 197 267 198"/>
<path stroke-width="0.5" stroke="black" d="M 344 197 184 235"/>
<path stroke-width="0.5" stroke="black" d="M 344 197 196 184"/>
<path stroke-width="0.5" stroke="black" d="M 344 197 268 234"/>
<path stroke-width="0.5" stroke="black" d="M 344 197 245 247"/>
<path stroke-width="0.5" stroke="black" d="M 344 197 213 191"/>
<path stroke-width="0.5" stroke="black" d="M 344 197 352 219"/>
<path stroke-width="0.5" stroke="black" d="M 243 192 232 155"/>
<path stroke-width="0.7954545454545454" stroke="black" d="M 243 192 147 210"/>
<path stroke-width="0.5" stroke="black" d="M 243 192 344 197"/>
<path stroke-width="0.5" stroke="black" d="M 243 192 308 231"/>
<path stroke-width="0.5" stroke="black" d="M 243 192 213 191"/>
<path stroke-width="0.5" stroke="black" d="M 243 192 161 196"/>
<path stroke-width="0.5" stroke="black" d="M 243 192 341 216"/>
<path stroke-width="0.5" stroke="black" d="M 243 192 267 198"/>
<path stroke-width="0.5" stroke="black" d="M 243 192 184 235"/>
<path stroke-width="0.5" stroke="black" d="M 243 192 190 167"/>
<path stroke-width="0.5" stroke="black" d="M 243 192 196 184"/>
<path stroke-width="0.5" stroke="black" d="M 243 192 245 247"/>
<path stroke-width="0.5" stroke="black" d="M 243 192 352 219"/>
<path stroke-width="0.5" stroke="black" d="M 243 192 219 234"/>
<path stroke-width="0.5" stroke="black" d="M 243 192 299 172"/>
<path stroke-width="0.5" stroke="black" d="M 243 192 161 225"/>
<path stroke-width="0.5" stroke="black" d="M 243 192 287 175"/>
<path stroke-width="0.5" stroke="black" d="M 243 192 324 169"/>
<path stroke-width="0.5" stroke="black" d="M 243 192 268 234"/>
<path stroke-width="0.5" stroke="black" d="M 344 197 219 234"/>
<path stroke-width="0.5" stroke="black" d="M 344 197 299 172"/>
<path stroke-width="0.5" stroke="black" d="M 344 197 161 225"/>
<path stroke-width="0.5" stroke="black" d="M 308 231 245 247"/>
<path stroke-width="0.5" stroke="black" d="M 308 231 352 219"/>
<path stroke-width="0.5" stroke="black" d="M 308 231 219 234"/>
<path stroke-width="0.5" stroke="black" d="M 308 231 299 172"/>
<path stroke-width="0.5" stroke="black" d="M 308 231 161 225"/>
<path stroke-width="0.7954545454545454" stroke="black" d="M 308 231 287 175"/>
<path stroke-width="0.5" stroke="black" d="M 308 231 324 169"/>
<path stroke-width="0.5" stroke="black" d="M 308 231 268 234"/>
<path stroke-width="0.5" stroke="black" d="M 308 231 147 210"/>
<path stroke-width="0.5" stroke="black" d="M 308 231 232 155"/>
<path stroke-width="0.5" stroke="black" d="M 308 231 252 256"/>
<path stroke-width="0.5" stroke="black" d="M 308 231 169 148"/>
<path stroke-width="15.666666666666666" stroke="black" d="M 195 177 213 191"/>
<path stroke-width="0.5" stroke="black" d="M 213 191 173 225"/>
<path stroke-width="0.5" stroke="black" d="M 213 191 291 174"/>
<path stroke-width="0.5" stroke="black" d="M 213 191 266 221"/>
<path stroke-width="0.5" stroke="black" d="M 308 231 190 167"/>
<path stroke-width="0.5" stroke="black" d="M 308 231 196 184"/>
<path stroke-width="0.5" stroke="black" d="M 308 231 184 235"/>
<path stroke-width="0.5" stroke="black" d="M 308 231 267 198"/>
<path stroke-width="0.5" stroke="black" d="M 344 197 287 175"/>
<path stroke-width="0.7954545454545454" stroke="black" d="M 344 197 324 169"/>
<path stroke-width="0.5" stroke="black" d="M 344 197 147 210"/>
<path stroke-width="0.5" stroke="black" d="M 344 197 190 167"/>
<path stroke-width="0.5" stroke="black" d="M 344 197 232 155"/>
<path stroke-width="0.5" stroke="black" d="M 344 197 252 256"/>
<path stroke-width="0.5" stroke="black" d="M 344 197 169 148"/>
<path stroke-width="16.454545454545453" stroke="black" d="M 336 248 308 231"/>
<path stroke-width="0.5" stroke="black" d="M 308 231 173 225"/>
<path stroke-width="0.5" stroke="black" d="M 308 231 291 174"/>
<path stroke-width="0.5" stroke="black" d="M 308 231 266 221"/>
<path stroke-width="0.5" stroke="black" d="M 308 231 243 192"/>
<path stroke-width="0.5" stroke="black" d="M 308 231 344 197"/>
<path stroke-width="16.454545454545453" stroke="black" d="M 308 231 336 248"/>
<path stroke-width="0.5" stroke="black" d="M 308 231 213 191"/>
<path stroke-width="0.5" stroke="black" d="M 308 231 161 196"/>
<path stroke-width="0.5" stroke="black" d="M 308 231 341 216"/>
<path stroke-width="18.03030303030303" stroke="black" d="M 243 192 276 194"/>
<path stroke-width="0.5" stroke="black" d="M 243 192 266 221"/>
<path stroke-width="0.5" stroke="black" d="M 243 192 291 174"/>
<path stroke-width="0.5" stroke="black" d="M 243 192 173 225"/>
<path stroke-width="0.5" stroke="black" d="M 173 225 190 167"/>
<path stroke-width="0.5" stroke="black" d="M 173 225 232 155"/>
<path stroke-width="0.7954545454545454" stroke="black" d="M 173 225 252 256"/>
<path stroke-width="0.5" stroke="black" d="M 173 225 169 148"/>
<path stroke-width="19.606060606060606" stroke="black" d="M 315 158 291 174"/>
<path stroke-width="0.5" stroke="black" d="M 291 174 173 225"/>
<path stroke-width="19.606060606060606" stroke="black" d="M 291 174 315 158"/>
<path stroke-width="0.5" stroke="black" d="M 173 225 147 210"/>
<path stroke-width="0.5" stroke="black" d="M 291 174 266 221"/>
<path stroke-width="0.5" stroke="black" d="M 291 174 344 197"/>
<path stroke-width="0.5" stroke="black" d="M 291 174 308 231"/>
<path stroke-width="0.5" stroke="black" d="M 291 174 213 191"/>
<path stroke-width="0.5" stroke="black" d="M 291 174 161 196"/>
<path stroke-width="0.5" stroke="black" d="M 291 174 341 216"/>
<path stroke-width="0.5" stroke="black" d="M 291 174 267 198"/>
<path stroke-width="0.5" stroke="black" d="M 291 174 184 235"/>
<path stroke-width="0.5" stroke="black" d="M 291 174 243 192"/>
<path stroke-width="0.5" stroke="black" d="M 173 225 324 169"/>
<path stroke-width="0.5" stroke="black" d="M 173 225 287 175"/>
<path stroke-width="0.5" stroke="black" d="M 173 225 161 225"/>
<path stroke-width="20.0" stroke="black" d="M 173 225 136 237"/>
<path stroke-width="0.5" stroke="black" d="M 173 225 291 174"/>
<path stroke-width="0.5" stroke="black" d="M 173 225 266 221"/>
<path stroke-width="0.5" stroke="black" d="M 173 225 243 192"/>
<path stroke-width="0.5" stroke="black" d="M 173 225 344 197"/>
<path stroke-width="0.5" stroke="black" d="M 173 225 308 231"/>
<path stroke-width="0.5" stroke="black" d="M 173 225 213 191"/>
<path stroke-width="0.5" stroke="black" d="M 173 225 161 196"/>
<path stroke-width="0.5" stroke="black" d="M 173 225 341 216"/>
<path stroke-width="0.5" stroke="black" d="M 173 225 267 198"/>
<path stroke-width="0.5" stroke="black" d="M 173 225 184 235"/>
<path stroke-width="0.5" stroke="black" d="M 173 225 196 184"/>
<path stroke-width="0.5" stroke="black" d="M 173 225 268 234"/>
<path stroke-width="0.5" stroke="black" d="M 173 225 245 247"/>
<path stroke-width="0.5" stroke="black" d="M 173 225 352 219"/>
<path stroke-width="0.5" stroke="black" d="M 173 225 219 234"/>
<path stroke-width="0.5" stroke="black" d="M 173 225 299 172"/>
<path stroke-width="0.5" stroke="black" d="M 291 174 196 184"/>
<path stroke-width="0.5" stroke="black" d="M 213 191 243 192"/>
<path stroke-width="0.5" stroke="black" d="M 291 174 268 234"/>
<path stroke-width="0.5" stroke="black" d="M 291 174 352 219"/>
<path stroke-width="0.5" stroke="black" d="M 266 221 184 235"/>
<path stroke-width="0.5" stroke="black" d="M 266 221 196 184"/>
<path stroke-width="0.5" stroke="black" d="M 266 221 268 234"/>
<path stroke-width="0.5" stroke="black" d="M 266 221 245 247"/>
<path stroke-width="0.5" stroke="black" d="M 266 221 352 219"/>
<path stroke-width="0.5" stroke="black" d="M 266 221 219 234"/>
<path stroke-width="0.5" stroke="black" d="M 266 221 299 172"/>
<path stroke-width="0.5" stroke="black" d="M 266 221 267 198"/>
<path stroke-width="0.5" stroke="black" d="M 266 221 161 225"/>
<path stroke-width="0.5" stroke="black" d="M 266 221 324 169"/>
<path stroke-width="0.5" stroke="black" d="M 266 221 147 210"/>
<path stroke-width="0.7954545454545454" stroke="black" d="M 266 221 190 167"/>
<path stroke-width="0.5" stroke="black" d="M 266 221 232 155"/>
<path stroke-width="0.5" stroke="black" d="M 266 221 252 256"/>
<path stroke-width="0.5" stroke="black" d="M 266 221 169 148"/>
<path stroke-width="18.03030303030303" stroke="black" d="M 276 194 243 192"/>
<path stroke-width="0.5" stroke="black" d="M 266 221 287 175"/>
<path stroke-width="0.5" stroke="black" d="M 266 221 341 216"/>
<path stroke-width="0.5" stroke="black" d="M 266 221 161 196"/>
<path stroke-width="0.5" stroke="black" d="M 266 221 213 191"/>
<path stroke-width="0.5" stroke="black" d="M 291 174 219 234"/>
<path stroke-width="0.5" stroke="black" d="M 291 174 299 172"/>
<path stroke-width="0.5" stroke="black" d="M 291 174 161 225"/>
<path stroke-width="0.5" stroke="black" d="M 291 174 287 175"/>
<path stroke-width="0.5" stroke="black" d="M 291 174 324 169"/>
<path stroke-width="0.5" stroke="black" d="M 291 174 147 210"/>
<path stroke-width="0.5" stroke="black" d="M 291 174 190 167"/>
<path stroke-width="0.7954545454545454" stroke="black" d="M 291 174 232 155"/>
<path stroke-width="0.5" stroke="black" d="M 291 174 252 256"/>
<path stroke-width="0.5" stroke="black" d="M 291 174 169 148"/>
<path stroke-width="18.818181818181817" stroke="black" d="M 284 235 266 221"/>
<path stroke-width="0.5" stroke="black" d="M 266 221 173 225"/>
<path stroke-width="0.5" stroke="black" d="M 266 221 291 174"/>
<path stroke-width="18.818181818181817" stroke="black" d="M 266 221 284 235"/>
<path stroke-width="0.5" stroke="black" d="M 266 221 243 192"/>
<path stroke-width="0.5" stroke="black" d="M 266 221 344 197"/>
<path stroke-width="0.5" stroke="black" d="M 266 221 308 231"/>
<path stroke-width="0.5" stroke="black" d="M 291 174 245 247"/>
<path stroke-width="0.5" stroke="black" d="M 169 148 252 256"/>
<path stroke-width="0.5" stroke="black" d="M 213 191 344 197"/>
<path stroke-width="15.666666666666666" stroke="black" d="M 213 191 195 177"/>
<path stroke-width="0.5" stroke="black" d="M 184 235 308 231"/>
<path stroke-width="0.5" stroke="black" d="M 184 235 213 191"/>
<path stroke-width="0.5" stroke="black" d="M 184 235 161 196"/>
<path stroke-width="0.5" stroke="black" d="M 184 235 341 216"/>
<path stroke-width="0.5" stroke="black" d="M 184 235 267 198"/>
<path stroke-width="12.515151515151516" stroke="black" d="M 184 235 148 256"/>
<path stroke-width="0.5" stroke="black" d="M 184 235 196 184"/>
<path stroke-width="0.5" stroke="black" d="M 184 235 344 197"/>
<path stroke-width="0.5" stroke="black" d="M 184 235 268 234"/>
<path stroke-width="0.5" stroke="black" d="M 184 235 352 219"/>
<path stroke-width="0.5" stroke="black" d="M 184 235 219 234"/>
<path stroke-width="0.5" stroke="black" d="M 184 235 299 172"/>
<path stroke-width="0.5" stroke="black" d="M 184 235 161 225"/>
<path stroke-width="0.5" stroke="black" d="M 184 235 287 175"/>
<path stroke-width="0.5" stroke="black" d="M 184 235 324 169"/>
<path stroke-width="0.5" stroke="black" d="M 184 235 147 210"/>
<path stroke-width="0.7954545454545454" stroke="black" d="M 184 235 245 247"/>
<path stroke-width="0.5" stroke="black" d="M 184 235 190 167"/>
<path stroke-width="0.5" stroke="black" d="M 184 235 243 192"/>
<path stroke-width="0.5" stroke="black" d="M 184 235 291 174"/>
<path stroke-width="0.5" stroke="black" d="M 267 198 196 184"/>
<path stroke-width="0.5" stroke="black" d="M 267 198 268 234"/>
<path stroke-width="0.5" stroke="black" d="M 267 198 245 247"/>
<path stroke-width="0.7954545454545454" stroke="black" d="M 267 198 352 219"/>
<path stroke-width="0.5" stroke="black" d="M 267 198 219 234"/>
<path stroke-width="0.5" stroke="black" d="M 267 198 299 172"/>
<path stroke-width="0.5" stroke="black" d="M 267 198 161 225"/>
<path stroke-width="0.5" stroke="black" d="M 184 235 266 221"/>
<path stroke-width="0.5" stroke="black" d="M 267 198 287 175"/>
<path stroke-width="0.5" stroke="black" d="M 267 198 147 210"/>
<path stroke-width="0.5" stroke="black" d="M 267 198 190 167"/>
<path stroke-width="0.5" stroke="black" d="M 267 198 232 155"/>
<path stroke-width="0.5" stroke="black" d="M 267 198 252 256"/>
<path stroke-width="0.5" stroke="black" d="M 267 198 169 148"/>
<path stroke-width="12.515151515151516" stroke="black" d="M 148 256 184 235"/>
<path stroke-width="0.5" stroke="black" d="M 184 235 173 225"/>
<path stroke-width="0.5" stroke="black" d="M 267 198 324 169"/>
<path stroke-width="0.5" stroke="black" d="M 184 235 232 155"/>
<path stroke-width="0.5" stroke="black" d="M 184 235 252 256"/>
<path stroke-width="0.5" stroke="black" d="M 184 235 169 148"/>
<path stroke-width="0.5" stroke="black" d="M 196 184 147 210"/>
<path stroke-width="0.5" stroke="black" d="M 196 184 190 167"/>
<path stroke-width="0.5" stroke="black" d="M 196 184 232 155"/>
<path stroke-width="0.5" stroke="black" d="M 196 184 252 256"/>
<path stroke-width="0.5" stroke="black" d="M 196 184 169 148"/>
<path stroke-width="11.333333333333334" stroke="black" d="M 286 259 268 234"/>
<path stroke-width="0.5" stroke="black" d="M 268 234 173 225"/>
<path stroke-width="0.5" stroke="black" d="M 196 184 324 169"/>
<path stroke-width="0.5" stroke="black" d="M 268 234 291 174"/>
<path stroke-width="0.5" stroke="black" d="M 268 234 243 192"/>
<path stroke-width="0.5" stroke="black" d="M 268 234 344 197"/>
<path stroke-width="0.5" stroke="black" d="M 268 234 308 231"/>
<path stroke-width="0.5" stroke="black" d="M 268 234 213 191"/>
<path stroke-width="0.5" stroke="black" d="M 268 234 161 196"/>
<path stroke-width="0.5" stroke="black" d="M 268 234 341 216"/>
<path stroke-width="0.5" stroke="black" d="M 268 234 267 198"/>
<path stroke-width="0.5" stroke="black" d="M 268 234 266 221"/>
<path stroke-width="0.5" stroke="black" d="M 196 184 287 175"/>
<path stroke-width="0.5" stroke="black" d="M 196 184 161 225"/>
<path stroke-width="0.5" stroke="black" d="M 196 184 299 172"/>
<path stroke-width="11.727272727272727" stroke="black" d="M 162 166 196 184"/>
<path stroke-width="0.5" stroke="black" d="M 196 184 173 225"/>
<path stroke-width="0.5" stroke="black" d="M 196 184 291 174"/>
<path stroke-width="0.5" stroke="black" d="M 196 184 266 221"/>
<path stroke-width="0.5" stroke="black" d="M 196 184 243 192"/>
<path stroke-width="0.5" stroke="black" d="M 196 184 344 197"/>
<path stroke-width="0.5" stroke="black" d="M 196 184 308 231"/>
<path stroke-width="0.5" stroke="black" d="M 196 184 213 191"/>
<path stroke-width="0.5" stroke="black" d="M 196 184 161 196"/>
<path stroke-width="0.5" stroke="black" d="M 196 184 341 216"/>
<path stroke-width="0.5" stroke="black" d="M 196 184 267 198"/>
<path stroke-width="0.5" stroke="black" d="M 196 184 184 235"/>
<path stroke-width="11.727272727272727" stroke="black" d="M 196 184 162 166"/>
<path stroke-width="0.7954545454545454" stroke="black" d="M 196 184 268 234"/>
<path stroke-width="0.5" stroke="black" d="M 196 184 245 247"/>
<path stroke-width="0.5" stroke="black" d="M 196 184 352 219"/>
<path stroke-width="0.5" stroke="black" d="M 196 184 219 234"/>
<path stroke-width="0.5" stroke="black" d="M 267 198 184 235"/>
<path stroke-width="13.303030303030303" stroke="black" d="M 267 198 291 189"/>
<path stroke-width="0.5" stroke="black" d="M 267 198 341 216"/>
<path stroke-width="0.5" stroke="black" d="M 267 198 161 196"/>
<path stroke-width="0.5" stroke="black" d="M 161 196 266 221"/>
<path stroke-width="0.5" stroke="black" d="M 161 196 243 192"/>
<path stroke-width="0.5" stroke="black" d="M 161 196 344 197"/>
<path stroke-width="0.5" stroke="black" d="M 161 196 308 231"/>
<path stroke-width="0.5" stroke="black" d="M 161 196 213 191"/>
<path stroke-width="14.878787878787879" stroke="black" d="M 161 196 107 191"/>
<path stroke-width="0.5" stroke="black" d="M 161 196 341 216"/>
<path stroke-width="0.5" stroke="black" d="M 161 196 291 174"/>
<path stroke-width="0.5" stroke="black" d="M 161 196 267 198"/>
<path stroke-width="0.5" stroke="black" d="M 161 196 196 184"/>
<path stroke-width="0.5" stroke="black" d="M 161 196 268 234"/>
<path stroke-width="0.5" stroke="black" d="M 161 196 245 247"/>
<path stroke-width="0.5" stroke="black" d="M 161 196 352 219"/>
<path stroke-width="0.5" stroke="black" d="M 161 196 219 234"/>
<path stroke-width="0.7954545454545454" stroke="black" d="M 161 196 299 172"/>
<path stroke-width="0.5" stroke="black" d="M 161 196 161 225"/>
<path stroke-width="0.5" stroke="black" d="M 161 196 184 235"/>
<path stroke-width="0.5" stroke="black" d="M 161 196 173 225"/>
<path stroke-width="14.878787878787879" stroke="black" d="M 107 191 161 196"/>
<path stroke-width="0.5" stroke="black" d="M 213 191 169 148"/>
<path stroke-width="0.5" stroke="black" d="M 213 191 161 196"/>
<path stroke-width="0.5" stroke="black" d="M 213 191 341 216"/>
<path stroke-width="0.5" stroke="black" d="M 213 191 267 198"/>
<path stroke-width="0.5" stroke="black" d="M 213 191 184 235"/>
<path stroke-width="0.5" stroke="black" d="M 213 191 196 184"/>
<path stroke-width="0.5" stroke="black" d="M 213 191 268 234"/>
<path stroke-width="0.5" stroke="black" d="M 213 191 245 247"/>
<path stroke-width="0.5" stroke="black" d="M 213 191 352 219"/>
<path stroke-width="0.5" stroke="black" d="M 213 191 219 234"/>
<path stroke-width="0.5" stroke="black" d="M 213 191 299 172"/>
<path stroke-width="0.7954545454545454" stroke="black" d="M 213 191 161 225"/>
<path stroke-width="0.5" stroke="black" d="M 213 191 287 175"/>
<path stroke-width="0.5" stroke="black" d="M 213 191 324 169"/>
<path stroke-width="0.5" stroke="black" d="M 213 191 147 210"/>
<path stroke-width="0.5" stroke="black" d="M 213 191 190 167"/>
<path stroke-width="0.5" stroke="black" d="M 213 191 232 155"/>
<path stroke-width="0.5" stroke="black" d="M 213 191 252 256"/>
<path stroke-width="0.5" stroke="black" d="M 161 196 287 175"/>
<path stroke-width="0.5" stroke="black" d="M 213 191 308 231"/>
<path stroke-width="0.5" stroke="black" d="M 161 196 324 169"/>
<path stroke-width="0.5" stroke="black" d="M 161 196 190 167"/>
<path stroke-width="0.5" stroke="black" d="M 341 216 161 225"/>
<path stroke-width="0.5" stroke="black" d="M 341 216 287 175"/>
<path stroke-width="0.5" stroke="black" d="M 341 216 324 169"/>
<path stroke-width="0.5" stroke="black" d="M 341 216 147 210"/>
<path stroke-width="0.5" stroke="black" d="M 341 216 190 167"/>
<path stroke-width="0.5" stroke="black" d="M 341 216 232 155"/>
<path stroke-width="0.5" stroke="black" d="M 341 216 252 256"/>
<path stroke-width="0.5" stroke="black" d="M 341 216 299 172"/>
<path stroke-width="0.5" stroke="black" d="M 341 216 169 148"/>
<path stroke-width="0.5" stroke="black" d="M 267 198 173 225"/>
<path stroke-width="0.5" stroke="black" d="M 267 198 291 174"/>
<path stroke-width="0.5" stroke="black" d="M 267 198 266 221"/>
<path stroke-width="0.5" stroke="black" d="M 267 198 243 192"/>
<path stroke-width="0.5" stroke="black" d="M 267 198 344 197"/>
<path stroke-width="0.5" stroke="black" d="M 267 198 308 231"/>
<path stroke-width="0.5" stroke="black" d="M 267 198 213 191"/>
<path stroke-width="13.303030303030303" stroke="black" d="M 291 189 267 198"/>
<path stroke-width="0.7954545454545454" stroke="black" d="M 341 216 219 234"/>
<path stroke-width="0.5" stroke="black" d="M 341 216 352 219"/>
<path stroke-width="0.5" stroke="black" d="M 341 216 245 247"/>
<path stroke-width="0.5" stroke="black" d="M 161 196 232 155"/>
<path stroke-width="0.5" stroke="black" d="M 161 196 252 256"/>
<path stroke-width="0.5" stroke="black" d="M 161 196 169 148"/>
<path stroke-width="14.090909090909092" stroke="black" d="M 397 223 341 216"/>
<path stroke-width="0.5" stroke="black" d="M 341 216 173 225"/>
<path stroke-width="0.5" stroke="black" d="M 341 216 291 174"/>
<path stroke-width="0.5" stroke="black" d="M 341 216 266 221"/>
<path stroke-width="0.5" stroke="black" d="M 341 216 243 192"/>
<path stroke-width="0.5" stroke="black" d="M 341 216 344 197"/>
<path stroke-width="0.5" stroke="black" d="M 341 216 308 231"/>
<path stroke-width="0.5" stroke="black" d="M 341 216 213 191"/>
<path stroke-width="0.5" stroke="black" d="M 341 216 161 196"/>
<path stroke-width="14.090909090909092" stroke="black" d="M 341 216 397 223"/>
<path stroke-width="0.5" stroke="black" d="M 341 216 267 198"/>
<path stroke-width="0.5" stroke="black" d="M 341 216 184 235"/>
<path stroke-width="0.5" stroke="black" d="M 341 216 196 184"/>
<path stroke-width="0.5" stroke="black" d="M 341 216 268 234"/>
<path stroke-width="0.5" stroke="black" d="M 161 196 147 210"/>
<path stroke-width="1.0909090909090908" stroke="black" d="M 169 148 20 20"/>
<circle cx="136" cy="237" r="7.0" style="fill:gray;stroke:black;stroke-width:1.0"/>
<circle cx="173" cy="225" r="7.0" style="fill:gray;stroke:black;stroke-width:1.0"/>
<circle cx="315" cy="158" r="7.0" style="fill:gray;stroke:black;stroke-width:1.0"/>
<circle cx="291" cy="174" r="7.0" style="fill:gray;stroke:black;stroke-width:1.0"/>
<circle cx="284" cy="235" r="7.0" style="fill:gray;stroke:black;stroke-width:1.0"/>
<circle cx="266" cy="221" r="7.0" style="fill:gray;stroke:black;stroke-width:1.0"/>
<circle cx="276" cy="194" r="7.0" style="fill:gray;stroke:black;stroke-width:1.0"/>
<circle cx="243" cy="192" r="7.0" style="fill:gray;stroke:black;stroke-width:1.0"/>
<circle cx="395" cy="195" r="7.0" style="fill:gray;stroke:black;stroke-width:1.0"/>
<circle cx="344" cy="197" r="7.0" style="fill:gray;stroke:black;stroke-width:1.0"/>
<circle cx="336" cy="248" r="7.0" style="fill:gray;stroke:black;stroke-width:1.0"/>
<circle cx="308" cy="231" r="7.0" style="fill:gray;stroke:black;stroke-width:1.0"/>
<circle cx="195" cy="177" r="7.0" style="fill:gray;stroke:black;stroke-width:1.0"/>
<circle cx="213" cy="191" r="7.0" style="fill:gray;stroke:black;stroke-width:1.0"/>
<circle cx="107" cy="191" r="7.0" style="fill:gray;stroke:black;stroke-width:1.0"/>
<circle cx="161" cy="196" r="7.0" style="fill:gray;stroke:black;stroke-width:1.0"/>
<circle cx="397" cy="223" r="7.0" style="fill:gray;stroke:black;stroke-width:1.0"/>
<circle cx="341" cy="216" r="7.0" style="fill:gray;stroke:black;stroke-width:1.0"/>
<circle cx="291" cy="189" r="7.0" style="fill:gray;stroke:black;stroke-width:1.0"/>
<circle cx="267" cy="198" r="7.0" style="fill:gray;stroke:black;stroke-width:1.0"/>
<circle cx="148" cy="256" r="7.0" style="fill:gray;stroke:black;stroke-width:1.0"/>
<circle cx="184" cy="235" r="7.0" style="fill:gray;stroke:black;stroke-width:1.0"/>
<circle cx="162" cy="166" r="7.0" style="fill:gray;stroke:black;stroke-width:1.0"/>
<circle cx="196" cy="184" r="7.0" style="fill:gray;stroke:black;stroke-width:1.0"/>
<circle cx="286" cy="259" r="7.0" style="fill:gray;stroke:black;stroke-width:1.0"/>
<circle cx="268" cy="234" r="7.0" style="fill:gray;stroke:black;stroke-width:1.0"/>
<circle cx="247" cy="275" r="7.0" style="fill:gray;stroke:black;stroke-width:1.0"/>
<circle cx="245" cy="247" r="7.0" style="fill:gray;stroke:black;stroke-width:1.0"/>
<circle cx="420" cy="233" r="7.0" style="fill:gray;stroke:black;stroke-width:1.0"/>
<circle cx="352" cy="219" r="7.0" style="fill:gray;stroke:black;stroke-width:1.0"/>
<circle cx="197" cy="261" r="7.0" style="fill:gray;stroke:black;stroke-width:1.0"/>
<circle cx="219" cy="234" r="7.0" style="fill:gray;stroke:black;stroke-width:1.0"/>
<circle cx="344" cy="147" r="7.0" style="fill:gray;stroke:black;stroke-width:1.0"/>
<circle cx="299" cy="172" r="7.0" style="fill:gray;stroke:black;stroke-width:1.0"/>
<circle cx="98" cy="248" r="7.0" style="fill:gray;stroke:black;stroke-width:1.0"/>
<circle cx="161" cy="225" r="7.0" style="fill:gray;stroke:black;stroke-width:1.0"/>
<circle cx="319" cy="144" r="7.0" style="fill:gray;stroke:black;stroke-width:1.0"/>
<circle cx="287" cy="175" r="7.0" style="fill:gray;stroke:black;stroke-width:1.0"/>
<circle cx="378" cy="135" r="7.0" style="fill:gray;stroke:black;stroke-width:1.0"/>
<circle cx="324" cy="169" r="7.0" style="fill:gray;stroke:black;stroke-width:1.0"/>
<circle cx="47" cy="221" r="7.0" style="fill:gray;stroke:black;stroke-width:1.0"/>
<circle cx="147" cy="210" r="7.0" style="fill:gray;stroke:black;stroke-width:1.0"/>
<circle cx="140" cy="126" r="7.0" style="fill:gray;stroke:black;stroke-width:1.0"/>
<circle cx="190" cy="167" r="7.0" style="fill:gray;stroke:black;stroke-width:1.0"/>
<circle cx="218" cy="101" r="7.0" style="fill:gray;stroke:black;stroke-width:1.0"/>
<circle cx="232" cy="155" r="7.0" style="fill:gray;stroke:black;stroke-width:1.0"/>
<circle cx="261" cy="320" r="7.0" style="fill:gray;stroke:black;stroke-width:1.0"/>
<circle cx="252" cy="256" r="7.0" style="fill:gray;stroke:black;stroke-width:1.0"/>
<circle cx="20" cy="20" r="7.0" style="fill:gray;stroke:black;stroke-width:1.0"/>
<circle cx="169" cy="148" r="7.0" style="fill:gray;stroke:black;stroke-width:1.0"/>
</svg>
