<svg width="440" height="340" xmlns="http://www.w3.org/2000/svg">
<path stroke-width="1" stroke="black" d="M 104 47 130 84"/>
<path stroke-width="1" stroke="black" d="M 99 114 116 237"/>
<path stroke-width="1" stroke="black" d="M 99 114 173 242"/>
<path stroke-width="1" stroke="black" d="M 99 114 98 180"/>
<path stroke-width="1" stroke="black" d="M 99 114 205 116"/>
<path stroke-width="1" stroke="black" d="M 99 114 218 175"/>
<path stroke-width="1" stroke="black" d="M 99 114 56 78"/>
<path stroke-width="1" stroke="black" d="M 99 114 187 77"/>
<path stroke-width="1" stroke="black" d="M 99 114 190 225"/>
<path stroke-width="1" stroke="black" d="M 99 114 101 207"/>
<path stroke-width="1" stroke="black" d="M 99 114 183 239"/>
<path stroke-width="1" stroke="black" d="M 99 114 215 116"/>
<path stroke-width="1" stroke="black" d="M 99 114 234 160"/>
<path stroke-width="1" stroke="black" d="M 99 114 216 129"/>
<path stroke-width="1" stroke="black" d="M 99 114 241 171"/>
<path stroke-width="1" stroke="black" d="M 211 20 187 77"/>
<path stroke-width="1" stroke="black" d="M 187 77 130 84"/>
<path stroke-width="1" stroke="black" d="M 99 114 84 160"/>
<path stroke-width="1" stroke="black" d="M 187 77 177 129"/>
<path stroke-width="1" stroke="black" d="M 99 114 138 181"/>
<path stroke-width="1" stroke="black" d="M 99 114 125 150"/>
<path stroke-width="1" stroke="black" d="M 218 175 187 77"/>
<path stroke-width="1" stroke="black" d="M 218 175 101 207"/>
<path stroke-width="1" stroke="black" d="M 218 175 84 160"/>
<path stroke-width="1" stroke="black" d="M 218 175 183 239"/>
<path stroke-width="1" stroke="black" d="M 218 175 215 116"/>
<path stroke-width="1" stroke="black" d="M 218 175 234 160"/>
<path stroke-width="1" stroke="black" d="M 218 175 216 129"/>
<path stroke-width="1" stroke="black" d="M 99 114 160 73"/>
<path stroke-width="1" stroke="black" d="M 218 175 241 171"/>
<path stroke-width="1" stroke="black" d="M 99 114 130 84"/>
<path stroke-width="1" stroke="black" d="M 99 114 177 129"/>
<path stroke-width="1" stroke="black" d="M 99 114 214 205"/>
<path stroke-width="1" stroke="black" d="M 99 114 146 240"/>
<path stroke-width="1" stroke="black" d="M 99 114 120 88"/>
<path stroke-width="1" stroke="black" d="M 99 114 111 219"/>
<path stroke-width="1" stroke="black" d="M 99 114 105 121"/>
<path stroke-width="1" stroke="black" d="M 56 78 99 114"/>
<path stroke-width="1" stroke="black" d="M 187 77 214 205"/>
<path stroke-width="1" stroke="black" d="M 187 77 146 240"/>
<path stroke-width="1" stroke="black" d="M 187 77 120 88"/>
<path stroke-width="1" stroke="black" d="M 101 207 130 84"/>
<path stroke-width="1" stroke="black" d="M 101 207 177 129"/>
<path stroke-width="1" stroke="black" d="M 101 207 214 205"/>
<path stroke-width="1" stroke="black" d="M 101 207 146 240"/>
<path stroke-width="1" stroke="black" d="M 101 207 120 88"/>
<path stroke-width="1" stroke="black" d="M 101 207 111 219"/>
<path stroke-width="1" stroke="black" d="M 101 207 105 121"/>
<path stroke-width="1" stroke="black" d="M 50 244 101 207"/>
<path stroke-width="1" stroke="black" d="M 101 207 125 150"/>
<path stroke-width="1" stroke="black" d="M 101 207 138 181"/>
<path stroke-width="1" stroke="black" d="M 101 207 190 225"/>
<path stroke-width="1" stroke="black" d="M 101 207 116 237"/>
<path stroke-width="1" stroke="black" d="M 101 207 173 242"/>
<path stroke-width="1" stroke="black" d="M 101 207 98 180"/>
<path stroke-width="1" stroke="black" d="M 101 207 205 116"/>
<path stroke-width="1" stroke="black" d="M 101 207 218 175"/>
<path stroke-width="1" stroke="black" d="M 101 207 160 73"/>
<path stroke-width="1" stroke="black" d="M 187 77 241 171"/>
<path stroke-width="1" stroke="black" d="M 187 77 216 129"/>
<path stroke-width="1" stroke="black" d="M 187 77 234 160"/>
<path stroke-width="1" stroke="black" d="M 187 77 111 219"/>
<path stroke-width="1" stroke="black" d="M 187 77 105 121"/>
<path stroke-width="1" stroke="black" d="M 187 77 125 150"/>
<path stroke-width="1" stroke="black" d="M 187 77 160 73"/>
<path stroke-width="1" stroke="black" d="M 187 77 138 181"/>
<path stroke-width="1" stroke="black" d="M 187 77 190 225"/>
<path stroke-width="1" stroke="black" d="M 187 77 116 237"/>
<path stroke-width="1" stroke="black" d="M 187 77 173 242"/>
<path stroke-width="1" stroke="black" d="M 187 77 98 180"/>
<path stroke-width="1" stroke="black" d="M 187 77 205 116"/>
<path stroke-width="1" stroke="black" d="M 187 77 218 175"/>
<path stroke-width="1" stroke="black" d="M 187 77 99 114"/>
<path stroke-width="1" stroke="black" d="M 187 77 211 20"/>
<path stroke-width="1" stroke="black" d="M 187 77 101 207"/>
<path stroke-width="1" stroke="black" d="M 187 77 84 160"/>
<path stroke-width="1" stroke="black" d="M 187 77 183 239"/>
<path stroke-width="1" stroke="black" d="M 187 77 215 116"/>
<path stroke-width="1" stroke="black" d="M 218 175 99 114"/>
<path stroke-width="1" stroke="black" d="M 101 207 99 114"/>
<path stroke-width="1" stroke="black" d="M 218 175 262 191"/>
<path stroke-width="1" stroke="black" d="M 218 175 98 180"/>
<path stroke-width="1" stroke="black" d="M 98 180 160 73"/>
<path stroke-width="1" stroke="black" d="M 98 180 138 181"/>
<path stroke-width="1" stroke="black" d="M 98 180 190 225"/>
<path stroke-width="1" stroke="black" d="M 98 180 116 237"/>
<path stroke-width="1" stroke="black" d="M 98 180 173 242"/>
<path stroke-width="1" stroke="black" d="M 98 180 51 186"/>
<path stroke-width="1" stroke="black" d="M 98 180 205 116"/>
<path stroke-width="1" stroke="black" d="M 98 180 125 150"/>
<path stroke-width="1" stroke="black" d="M 98 180 218 175"/>
<path stroke-width="1" stroke="black" d="M 98 180 187 77"/>
<path stroke-width="1" stroke="black" d="M 98 180 101 207"/>
<path stroke-width="1" stroke="black" d="M 98 180 84 160"/>
<path stroke-width="1" stroke="black" d="M 98 180 183 239"/>
<path stroke-width="1" stroke="black" d="M 98 180 215 116"/>
<path stroke-width="1" stroke="black" d="M 98 180 234 160"/>
<path stroke-width="1" stroke="black" d="M 98 180 216 129"/>
<path stroke-width="1" stroke="black" d="M 98 180 99 114"/>
<path stroke-width="1" stroke="black" d="M 98 180 241 171"/>
<path stroke-width="1" stroke="black" d="M 98 180 105 121"/>
<path stroke-width="1" stroke="black" d="M 98 180 120 88"/>
<path stroke-width="1" stroke="black" d="M 173 242 205 116"/>
<path stroke-width="1" stroke="black" d="M 173 242 218 175"/>
<path stroke-width="1" stroke="black" d="M 173 242 99 114"/>
<path stroke-width="1" stroke="black" d="M 173 242 187 77"/>
<path stroke-width="1" stroke="black" d="M 173 242 101 207"/>
<path stroke-width="1" stroke="black" d="M 173 242 84 160"/>
<path stroke-width="1" stroke="black" d="M 173 242 183 239"/>
<path stroke-width="1" stroke="black" d="M 98 180 111 219"/>
<path stroke-width="1" stroke="black" d="M 173 242 215 116"/>
<path stroke-width="1" stroke="black" d="M 173 242 216 129"/>
<path stroke-width="1" stroke="black" d="M 173 242 241 171"/>
<path stroke-width="1" stroke="black" d="M 51 186 98 180"/>
<path stroke-width="1" stroke="black" d="M 98 180 130 84"/>
<path stroke-width="1" stroke="black" d="M 98 180 177 129"/>
<path stroke-width="1" stroke="black" d="M 98 180 214 205"/>
<path stroke-width="1" stroke="black" d="M 98 180 146 240"/>
<path stroke-width="1" stroke="black" d="M 173 242 234 160"/>
<path stroke-width="1" stroke="black" d="M 236 78 205 116"/>
<path stroke-width="1" stroke="black" d="M 205 116 130 84"/>
<path stroke-width="1" stroke="black" d="M 205 116 177 129"/>
<path stroke-width="1" stroke="black" d="M 205 116 216 129"/>
<path stroke-width="1" stroke="black" d="M 205 116 241 171"/>
<path stroke-width="1" stroke="black" d="M 262 191 218 175"/>
<path stroke-width="1" stroke="black" d="M 218 175 130 84"/>
<path stroke-width="1" stroke="black" d="M 218 175 177 129"/>
<path stroke-width="1" stroke="black" d="M 218 175 214 205"/>
<path stroke-width="1" stroke="black" d="M 218 175 146 240"/>
<path stroke-width="1" stroke="black" d="M 205 116 234 160"/>
<path stroke-width="1" stroke="black" d="M 218 175 120 88"/>
<path stroke-width="1" stroke="black" d="M 218 175 105 121"/>
<path stroke-width="1" stroke="black" d="M 218 175 125 150"/>
<path stroke-width="1" stroke="black" d="M 218 175 160 73"/>
<path stroke-width="1" stroke="black" d="M 218 175 138 181"/>
<path stroke-width="1" stroke="black" d="M 218 175 190 225"/>
<path stroke-width="1" stroke="black" d="M 218 175 116 237"/>
<path stroke-width="1" stroke="black" d="M 218 175 173 242"/>
<path stroke-width="1" stroke="black" d="M 218 175 111 219"/>
<path stroke-width="1" stroke="black" d="M 205 116 215 116"/>
<path stroke-width="1" stroke="black" d="M 205 116 183 239"/>
<path stroke-width="1" stroke="black" d="M 205 116 84 160"/>
<path stroke-width="1" stroke="black" d="M 205 116 214 205"/>
<path stroke-width="1" stroke="black" d="M 205 116 146 240"/>
<path stroke-width="1" stroke="black" d="M 205 116 120 88"/>
<path stroke-width="1" stroke="black" d="M 205 116 111 219"/>
<path stroke-width="1" stroke="black" d="M 205 116 105 121"/>
<path stroke-width="1" stroke="black" d="M 205 116 125 150"/>
<path stroke-width="1" stroke="black" d="M 205 116 160 73"/>
<path stroke-width="1" stroke="black" d="M 205 116 138 181"/>
<path stroke-width="1" stroke="black" d="M 205 116 190 225"/>
<path stroke-width="1" stroke="black" d="M 205 116 116 237"/>
<path stroke-width="1" stroke="black" d="M 205 116 173 242"/>
<path stroke-width="1" stroke="black" d="M 205 116 98 180"/>
<path stroke-width="1" stroke="black" d="M 205 116 236 78"/>
<path stroke-width="1" stroke="black" d="M 205 116 218 175"/>
<path stroke-width="1" stroke="black" d="M 205 116 99 114"/>
<path stroke-width="1" stroke="black" d="M 205 116 187 77"/>
<path stroke-width="1" stroke="black" d="M 205 116 101 207"/>
<path stroke-width="1" stroke="black" d="M 218 175 205 116"/>
<path stroke-width="1" stroke="black" d="M 101 207 187 77"/>
<path stroke-width="1" stroke="black" d="M 101 207 50 244"/>
<path stroke-width="1" stroke="black" d="M 101 207 84 160"/>
<path stroke-width="1" stroke="black" d="M 234 160 101 207"/>
<path stroke-width="1" stroke="black" d="M 234 160 84 160"/>
<path stroke-width="1" stroke="black" d="M 234 160 183 239"/>
<path stroke-width="1" stroke="black" d="M 234 160 215 116"/>
<path stroke-width="1" stroke="black" d="M 234 160 316 167"/>
<path stroke-width="1" stroke="black" d="M 234 160 216 129"/>
<path stroke-width="1" stroke="black" d="M 234 160 241 171"/>
<path stroke-width="1" stroke="black" d="M 234 160 187 77"/>
<path stroke-width="1" stroke="black" d="M 297 97 216 129"/>
<path stroke-width="1" stroke="black" d="M 216 129 177 129"/>
<path stroke-width="1" stroke="black" d="M 216 129 214 205"/>
<path stroke-width="1" stroke="black" d="M 216 129 146 240"/>
<path stroke-width="1" stroke="black" d="M 216 129 120 88"/>
<path stroke-width="1" stroke="black" d="M 216 129 111 219"/>
<path stroke-width="1" stroke="black" d="M 216 129 105 121"/>
<path stroke-width="1" stroke="black" d="M 216 129 125 150"/>
<path stroke-width="1" stroke="black" d="M 216 129 130 84"/>
<path stroke-width="1" stroke="black" d="M 216 129 160 73"/>
<path stroke-width="1" stroke="black" d="M 234 160 99 114"/>
<path stroke-width="1" stroke="black" d="M 234 160 205 116"/>
<path stroke-width="1" stroke="black" d="M 215 116 241 171"/>
<path stroke-width="1" stroke="black" d="M 316 167 234 160"/>
<path stroke-width="1" stroke="black" d="M 234 160 130 84"/>
<path stroke-width="1" stroke="black" d="M 234 160 177 129"/>
<path stroke-width="1" stroke="black" d="M 234 160 214 205"/>
<path stroke-width="1" stroke="black" d="M 234 160 146 240"/>
<path stroke-width="1" stroke="black" d="M 234 160 120 88"/>
<path stroke-width="1" stroke="black" d="M 234 160 218 175"/>
<path stroke-width="1" stroke="black" d="M 234 160 111 219"/>
<path stroke-width="1" stroke="black" d="M 234 160 125 150"/>
<path stroke-width="1" stroke="black" d="M 234 160 160 73"/>
<path stroke-width="1" stroke="black" d="M 234 160 138 181"/>
<path stroke-width="1" stroke="black" d="M 234 160 190 225"/>
<path stroke-width="1" stroke="black" d="M 234 160 116 237"/>
<path stroke-width="1" stroke="black" d="M 234 160 173 242"/>
<path stroke-width="1" stroke="black" d="M 234 160 98 180"/>
<path stroke-width="1" stroke="black" d="M 234 160 105 121"/>
<path stroke-width="1" stroke="black" d="M 216 129 138 181"/>
<path stroke-width="1" stroke="black" d="M 216 129 190 225"/>
<path stroke-width="1" stroke="black" d="M 216 129 116 237"/>
<path stroke-width="1" stroke="black" d="M 241 171 125 150"/>
<path stroke-width="1" stroke="black" d="M 241 171 160 73"/>
<path stroke-width="1" stroke="black" d="M 241 171 138 181"/>
<path stroke-width="1" stroke="black" d="M 241 171 190 225"/>
<path stroke-width="1" stroke="black" d="M 241 171 116 237"/>
<path stroke-width="1" stroke="black" d="M 241 171 173 242"/>
<path stroke-width="1" stroke="black" d="M 241 171 98 180"/>
<path stroke-width="1" stroke="black" d="M 241 171 105 121"/>
<path stroke-width="1" stroke="black" d="M 241 171 205 116"/>
<path stroke-width="1" stroke="black" d="M 241 171 99 114"/>
<path stroke-width="1" stroke="black" d="M 241 171 187 77"/>
<path stroke-width="1" stroke="black" d="M 241 171 101 207"/>
<path stroke-width="1" stroke="black" d="M 241 171 84 160"/>
<path stroke-width="1" stroke="black" d="M 241 171 183 239"/>
<path stroke-width="1" stroke="black" d="M 241 171 215 116"/>
<path stroke-width="1" stroke="black" d="M 241 171 234 160"/>
<path stroke-width="1" stroke="black" d="M 241 171 218 175"/>
<path stroke-width="1" stroke="black" d="M 241 171 111 219"/>
<path stroke-width="1" stroke="black" d="M 241 171 120 88"/>
<path stroke-width="1" stroke="black" d="M 241 171 146 240"/>
<path stroke-width="1" stroke="black" d="M 216 129 173 242"/>
<path stroke-width="1" stroke="black" d="M 216 129 98 180"/>
<path stroke-width="1" stroke="black" d="M 216 129 205 116"/>
<path stroke-width="1" stroke="black" d="M 216 129 218 175"/>
<path stroke-width="1" stroke="black" d="M 216 129 99 114"/>
<path stroke-width="1" stroke="black" d="M 216 129 187 77"/>
<path stroke-width="1" stroke="black" d="M 216 129 101 207"/>
<path stroke-width="1" stroke="black" d="M 216 129 84 160"/>
<path stroke-width="1" stroke="black" d="M 216 129 183 239"/>
<path stroke-width="1" stroke="black" d="M 216 129 215 116"/>
<path stroke-width="1" stroke="black" d="M 216 129 234 160"/>
<path stroke-width="1" stroke="black" d="M 216 129 297 97"/>
<path stroke-width="1" stroke="black" d="M 216 129 241 171"/>
<path stroke-width="1" stroke="black" d="M 420 186 241 171"/>
<path stroke-width="1" stroke="black" d="M 241 171 130 84"/>
<path stroke-width="1" stroke="black" d="M 241 171 177 129"/>
<path stroke-width="1" stroke="black" d="M 241 171 214 205"/>
<path stroke-width="1" stroke="black" d="M 215 116 216 129"/>
<path stroke-width="1" stroke="black" d="M 215 116 234 160"/>
<path stroke-width="1" stroke="black" d="M 215 116 272 66"/>
<path stroke-width="1" stroke="black" d="M 215 116 183 239"/>
<path stroke-width="1" stroke="black" d="M 84 160 218 175"/>
<path stroke-width="1" stroke="black" d="M 84 160 99 114"/>
<path stroke-width="1" stroke="black" d="M 84 160 187 77"/>
<path stroke-width="1" stroke="black" d="M 84 160 101 207"/>
<path stroke-width="1" stroke="black" d="M 84 160 20 149"/>
<path stroke-width="1" stroke="black" d="M 84 160 183 239"/>
<path stroke-width="1" stroke="black" d="M 84 160 215 116"/>
<path stroke-width="1" stroke="black" d="M 84 160 205 116"/>
<path stroke-width="1" stroke="black" d="M 84 160 234 160"/>
<path stroke-width="1" stroke="black" d="M 84 160 241 171"/>
<path stroke-width="1" stroke="black" d="M 205 320 183 239"/>
<path stroke-width="1" stroke="black" d="M 183 239 130 84"/>
<path stroke-width="1" stroke="black" d="M 183 239 177 129"/>
<path stroke-width="1" stroke="black" d="M 183 239 214 205"/>
<path stroke-width="1" stroke="black" d="M 183 239 146 240"/>
<path stroke-width="1" stroke="black" d="M 183 239 120 88"/>
<path stroke-width="1" stroke="black" d="M 84 160 216 129"/>
<path stroke-width="1" stroke="black" d="M 84 160 98 180"/>
<path stroke-width="1" stroke="black" d="M 84 160 173 242"/>
<path stroke-width="1" stroke="black" d="M 84 160 116 237"/>
<path stroke-width="1" stroke="black" d="M 101 207 183 239"/>
<path stroke-width="1" stroke="black" d="M 101 207 215 116"/>
<path stroke-width="1" stroke="black" d="M 101 207 234 160"/>
<path stroke-width="1" stroke="black" d="M 101 207 216 129"/>
<path stroke-width="1" stroke="black" d="M 101 207 241 171"/>
<path stroke-width="1" stroke="black" d="M 20 149 84 160"/>
<path stroke-width="1" stroke="black" d="M 84 160 130 84"/>
<path stroke-width="1" stroke="black" d="M 84 160 177 129"/>
<path stroke-width="1" stroke="black" d="M 84 160 214 205"/>
<path stroke-width="1" stroke="black" d="M 84 160 146 240"/>
<path stroke-width="1" stroke="black" d="M 84 160 120 88"/>
<path stroke-width="1" stroke="black" d="M 84 160 111 219"/>
<path stroke-width="1" stroke="black" d="M 84 160 105 121"/>
<path stroke-width="1" stroke="black" d="M 84 160 125 150"/>
<path stroke-width="1" stroke="black" d="M 84 160 160 73"/>
<path stroke-width="1" stroke="black" d="M 84 160 138 181"/>
<path stroke-width="1" stroke="black" d="M 84 160 190 225"/>
<path stroke-width="1" stroke="black" d="M 183 239 111 219"/>
<path stroke-width="1" stroke="black" d="M 173 242 98 180"/>
<path stroke-width="1" stroke="black" d="M 183 239 105 121"/>
<path stroke-width="1" stroke="black" d="M 183 239 160 73"/>
<path stroke-width="1" stroke="black" d="M 215 116 120 88"/>
<path stroke-width="1" stroke="black" d="M 215 116 111 219"/>
<path stroke-width="1" stroke="black" d="M 215 116 105 121"/>
<path stroke-width="1" stroke="black" d="M 215 116 125 150"/>
<path stroke-width="1" stroke="black" d="M 215 116 160 73"/>
<path stroke-width="1" stroke="black" d="M 215 116 138 181"/>
<path stroke-width="1" stroke="black" d="M 215 116 190 225"/>
<path stroke-width="1" stroke="black" d="M 215 116 146 240"/>
<path stroke-width="1" stroke="black" d="M 215 116 116 237"/>
<path stroke-width="1" stroke="black" d="M 215 116 98 180"/>
<path stroke-width="1" stroke="black" d="M 215 116 205 116"/>
<path stroke-width="1" stroke="black" d="M 215 116 218 175"/>
<path stroke-width="1" stroke="black" d="M 215 116 99 114"/>
<path stroke-width="1" stroke="black" d="M 215 116 187 77"/>
<path stroke-width="1" stroke="black" d="M 215 116 101 207"/>
<path stroke-width="1" stroke="black" d="M 215 116 84 160"/>
<path stroke-width="1" stroke="black" d="M 215 116 173 242"/>
<path stroke-width="1" stroke="black" d="M 215 116 214 205"/>
<path stroke-width="1" stroke="black" d="M 215 116 177 129"/>
<path stroke-width="1" stroke="black" d="M 215 116 130 84"/>
<path stroke-width="1" stroke="black" d="M 183 239 138 181"/>
<path stroke-width="1" stroke="black" d="M 183 239 190 225"/>
<path stroke-width="1" stroke="black" d="M 183 239 116 237"/>
<path stroke-width="1" stroke="black" d="M 183 239 173 242"/>
<path stroke-width="1" stroke="black" d="M 183 239 98 180"/>
<path stroke-width="1" stroke="black" d="M 183 239 205 116"/>
<path stroke-width="1" stroke="black" d="M 183 239 218 175"/>
<path stroke-width="1" stroke="black" d="M 183 239 99 114"/>
<path stroke-width="1" stroke="black" d="M 183 239 187 77"/>
<path stroke-width="1" stroke="black" d="M 183 239 101 207"/>
<path stroke-width="1" stroke="black" d="M 183 239 84 160"/>
<path stroke-width="1" stroke="black" d="M 183 239 205 320"/>
<path stroke-width="1" stroke="black" d="M 183 239 215 116"/>
<path stroke-width="1" stroke="black" d="M 183 239 234 160"/>
<path stroke-width="1" stroke="black" d="M 183 239 216 129"/>
<path stroke-width="1" stroke="black" d="M 183 239 241 171"/>
<path stroke-width="1" stroke="black" d="M 272 66 215 116"/>
<path stroke-width="1" stroke="black" d="M 183 239 125 150"/>
<path stroke-width="1" stroke="black" d="M 173 242 180 294"/>
<path stroke-width="1" stroke="black" d="M 173 242 116 237"/>
<path stroke-width="1" stroke="black" d="M 173 242 190 225"/>
<path stroke-width="1" stroke="black" d="M 146 240 241 171"/>
<path stroke-width="1" stroke="black" d="M 99 54 120 88"/>
<path stroke-width="1" stroke="black" d="M 120 88 130 84"/>
<path stroke-width="1" stroke="black" d="M 120 88 177 129"/>
<path stroke-width="1" stroke="black" d="M 120 88 214 205"/>
<path stroke-width="1" stroke="black" d="M 120 88 146 240"/>
<path stroke-width="1" stroke="black" d="M 120 88 99 54"/>
<path stroke-width="1" stroke="black" d="M 146 240 216 129"/>
<path stroke-width="1" stroke="black" d="M 120 88 111 219"/>
<path stroke-width="1" stroke="black" d="M 120 88 125 150"/>
<path stroke-width="1" stroke="black" d="M 120 88 160 73"/>
<path stroke-width="1" stroke="black" d="M 120 88 138 181"/>
<path stroke-width="1" stroke="black" d="M 120 88 190 225"/>
<path stroke-width="1" stroke="black" d="M 120 88 116 237"/>
<path stroke-width="1" stroke="black" d="M 120 88 173 242"/>
<path stroke-width="1" stroke="black" d="M 120 88 98 180"/>
<path stroke-width="1" stroke="black" d="M 120 88 105 121"/>
<path stroke-width="1" stroke="black" d="M 120 88 205 116"/>
<path stroke-width="1" stroke="black" d="M 146 240 234 160"/>
<path stroke-width="1" stroke="black" d="M 146 240 183 239"/>
<path stroke-width="1" stroke="black" d="M 146 240 120 88"/>
<path stroke-width="1" stroke="black" d="M 146 240 111 219"/>
<path stroke-width="1" stroke="black" d="M 146 240 105 121"/>
<path stroke-width="1" stroke="black" d="M 146 240 125 150"/>
<path stroke-width="1" stroke="black" d="M 146 240 160 73"/>
<path stroke-width="1" stroke="black" d="M 146 240 138 181"/>
<path stroke-width="1" stroke="black" d="M 146 240 190 225"/>
<path stroke-width="1" stroke="black" d="M 146 240 215 116"/>
<path stroke-width="1" stroke="black" d="M 146 240 116 237"/>
<path stroke-width="1" stroke="black" d="M 146 240 98 180"/>
<path stroke-width="1" stroke="black" d="M 146 240 205 116"/>
<path stroke-width="1" stroke="black" d="M 146 240 218 175"/>
<path stroke-width="1" stroke="black" d="M 146 240 99 114"/>
<path stroke-width="1" stroke="black" d="M 146 240 187 77"/>
<path stroke-width="1" stroke="black" d="M 146 240 101 207"/>
<path stroke-width="1" stroke="black" d="M 146 240 84 160"/>
<path stroke-width="1" stroke="black" d="M 146 240 173 242"/>
<path stroke-width="1" stroke="black" d="M 120 88 218 175"/>
<path stroke-width="1" stroke="black" d="M 120 88 99 114"/>
<path stroke-width="1" stroke="black" d="M 120 88 187 77"/>
<path stroke-width="1" stroke="black" d="M 111 219 98 180"/>
<path stroke-width="1" stroke="black" d="M 111 219 205 116"/>
<path stroke-width="1" stroke="black" d="M 111 219 218 175"/>
<path stroke-width="1" stroke="black" d="M 111 219 99 114"/>
<path stroke-width="1" stroke="black" d="M 111 219 187 77"/>
<path stroke-width="1" stroke="black" d="M 111 219 101 207"/>
<path stroke-width="1" stroke="black" d="M 111 219 84 160"/>
<path stroke-width="1" stroke="black" d="M 111 219 173 242"/>
<path stroke-width="1" stroke="black" d="M 111 219 183 239"/>
<path stroke-width="1" stroke="black" d="M 111 219 234 160"/>
<path stroke-width="1" stroke="black" d="M 111 219 216 129"/>
<path stroke-width="1" stroke="black" d="M 111 219 241 171"/>
<path stroke-width="1" stroke="black" d="M 70 104 105 121"/>
<path stroke-width="1" stroke="black" d="M 105 121 130 84"/>
<path stroke-width="1" stroke="black" d="M 105 121 177 129"/>
<path stroke-width="1" stroke="black" d="M 105 121 214 205"/>
<path stroke-width="1" stroke="black" d="M 111 219 215 116"/>
<path stroke-width="1" stroke="black" d="M 111 219 116 237"/>
<path stroke-width="1" stroke="black" d="M 111 219 190 225"/>
<path stroke-width="1" stroke="black" d="M 111 219 138 181"/>
<path stroke-width="1" stroke="black" d="M 120 88 101 207"/>
<path stroke-width="1" stroke="black" d="M 120 88 84 160"/>
<path stroke-width="1" stroke="black" d="M 120 88 183 239"/>
<path stroke-width="1" stroke="black" d="M 120 88 215 116"/>
<path stroke-width="1" stroke="black" d="M 120 88 234 160"/>
<path stroke-width="1" stroke="black" d="M 120 88 216 129"/>
<path stroke-width="1" stroke="black" d="M 120 88 241 171"/>
<path stroke-width="1" stroke="black" d="M 83 247 111 219"/>
<path stroke-width="1" stroke="black" d="M 111 219 130 84"/>
<path stroke-width="1" stroke="black" d="M 111 219 177 129"/>
<path stroke-width="1" stroke="black" d="M 111 219 214 205"/>
<path stroke-width="1" stroke="black" d="M 111 219 146 240"/>
<path stroke-width="1" stroke="black" d="M 111 219 120 88"/>
<path stroke-width="1" stroke="black" d="M 111 219 83 247"/>
<path stroke-width="1" stroke="black" d="M 111 219 105 121"/>
<path stroke-width="1" stroke="black" d="M 111 219 125 150"/>
<path stroke-width="1" stroke="black" d="M 111 219 160 73"/>
<path stroke-width="1" stroke="black" d="M 146 240 139 282"/>
<path stroke-width="1" stroke="black" d="M 146 240 214 205"/>
<path stroke-width="1" stroke="black" d="M 146 240 177 129"/>
<path stroke-width="1" stroke="black" d="M 146 240 130 84"/>
<path stroke-width="1" stroke="black" d="M 130 84 215 116"/>
<path stroke-width="1" stroke="black" d="M 130 84 234 160"/>
<path stroke-width="1" stroke="black" d="M 130 84 216 129"/>
<path stroke-width="1" stroke="black" d="M 130 84 241 171"/>
<path stroke-width="1" stroke="black" d="M 193 99 177 129"/>
<path stroke-width="1" stroke="black" d="M 177 129 130 84"/>
<path stroke-width="1" stroke="black" d="M 177 129 193 99"/>
<path stroke-width="1" stroke="black" d="M 130 84 183 239"/>
<path stroke-width="1" stroke="black" d="M 177 129 214 205"/>
<path stroke-width="1" stroke="black" d="M 177 129 120 88"/>
<path stroke-width="1" stroke="black" d="M 177 129 111 219"/>
<path stroke-width="1" stroke="black" d="M 177 129 105 121"/>
<path stroke-width="1" stroke="black" d="M 177 129 125 150"/>
<path stroke-width="1" stroke="black" d="M 177 129 160 73"/>
<path stroke-width="1" stroke="black" d="M 177 129 138 181"/>
<path stroke-width="1" stroke="black" d="M 177 129 190 225"/>
<path stroke-width="1" stroke="black" d="M 177 129 146 240"/>
<path stroke-width="1" stroke="black" d="M 130 84 84 160"/>
<path stroke-width="1" stroke="black" d="M 130 84 101 207"/>
<path stroke-width="1" stroke="black" d="M 130 84 187 77"/>
<path stroke-width="1" stroke="black" d="M 130 84 104 47"/>
<path stroke-width="1" stroke="black" d="M 130 84 177 129"/>
<path stroke-width="1" stroke="black" d="M 130 84 214 205"/>
<path stroke-width="1" stroke="black" d="M 130 84 146 240"/>
<path stroke-width="1" stroke="black" d="M 130 84 120 88"/>
<path stroke-width="1" stroke="black" d="M 130 84 111 219"/>
<path stroke-width="1" stroke="black" d="M 130 84 105 121"/>
<path stroke-width="1" stroke="black" d="M 130 84 125 150"/>
<path stroke-width="1" stroke="black" d="M 130 84 160 73"/>
<path stroke-width="1" stroke="black" d="M 130 84 138 181"/>
<path stroke-width="1" stroke="black" d="M 130 84 190 225"/>
<path stroke-width="1" stroke="black" d="M 130 84 116 237"/>
<path stroke-width="1" stroke="black" d="M 130 84 173 242"/>
<path stroke-width="1" stroke="black" d="M 130 84 98 180"/>
<path stroke-width="1" stroke="black" d="M 130 84 205 116"/>
<path stroke-width="1" stroke="black" d="M 130 84 218 175"/>
<path stroke-width="1" stroke="black" d="M 130 84 99 114"/>
<path stroke-width="1" stroke="black" d="M 177 129 116 237"/>
<path stroke-width="1" stroke="black" d="M 105 121 146 240"/>
<path stroke-width="1" stroke="black" d="M 177 129 173 242"/>
<path stroke-width="1" stroke="black" d="M 177 129 205 116"/>
<path stroke-width="1" stroke="black" d="M 214 205 190 225"/>
<path stroke-width="1" stroke="black" d="M 214 205 116 237"/>
<path stroke-width="1" stroke="black" d="M 214 205 173 242"/>
<path stroke-width="1" stroke="black" d="M 214 205 98 180"/>
<path stroke-width="1" stroke="black" d="M 214 205 205 116"/>
<path stroke-width="1" stroke="black" d="M 214 205 218 175"/>
<path stroke-width="1" stroke="black" d="M 214 205 99 114"/>
<path stroke-width="1" stroke="black" d="M 214 205 138 181"/>
<path stroke-width="1" stroke="black" d="M 214 205 187 77"/>
<path stroke-width="1" stroke="black" d="M 214 205 84 160"/>
<path stroke-width="1" stroke="black" d="M 214 205 183 239"/>
<path stroke-width="1" stroke="black" d="M 214 205 215 116"/>
<path stroke-width="1" stroke="black" d="M 214 205 234 160"/>
<path stroke-width="1" stroke="black" d="M 214 205 216 129"/>
<path stroke-width="1" stroke="black" d="M 214 205 241 171"/>
<path stroke-width="1" stroke="black" d="M 139 282 146 240"/>
<path stroke-width="1" stroke="black" d="M 214 205 101 207"/>
<path stroke-width="1" stroke="black" d="M 214 205 160 73"/>
<path stroke-width="1" stroke="black" d="M 214 205 125 150"/>
<path stroke-width="1" stroke="black" d="M 214 205 105 121"/>
<path stroke-width="1" stroke="black" d="M 177 129 218 175"/>
<path stroke-width="1" stroke="black" d="M 177 129 99 114"/>
<path stroke-width="1" stroke="black" d="M 177 129 187 77"/>
<path stroke-width="1" stroke="black" d="M 177 129 101 207"/>
<path stroke-width="1" stroke="black" d="M 177 129 84 160"/>
<path stroke-width="1" stroke="black" d="M 177 129 183 239"/>
<path stroke-width="1" stroke="black" d="M 177 129 215 116"/>
<path stroke-width="1" stroke="black" d="M 177 129 234 160"/>
<path stroke-width="1" stroke="black" d="M 177 129 216 129"/>
<path stroke-width="1" stroke="black" d="M 177 129 241 171"/>
<path stroke-width="1" stroke="black" d="M 238 226 214 205"/>
<path stroke-width="1" stroke="black" d="M 214 205 130 84"/>
<path stroke-width="1" stroke="black" d="M 214 205 177 129"/>
<path stroke-width="1" stroke="black" d="M 214 205 238 226"/>
<path stroke-width="1" stroke="black" d="M 214 205 146 240"/>
<path stroke-width="1" stroke="black" d="M 214 205 120 88"/>
<path stroke-width="1" stroke="black" d="M 214 205 111 219"/>
<path stroke-width="1" stroke="black" d="M 177 129 98 180"/>
<path stroke-width="1" stroke="black" d="M 241 171 216 129"/>
<path stroke-width="1" stroke="black" d="M 105 121 120 88"/>
<path stroke-width="1" stroke="black" d="M 105 121 70 104"/>
<path stroke-width="1" stroke="black" d="M 190 225 111 219"/>
<path stroke-width="1" stroke="black" d="M 190 225 105 121"/>
<path stroke-width="1" stroke="black" d="M 190 225 125 150"/>
<path stroke-width="1" stroke="black" d="M 190 225 160 73"/>
<path stroke-width="1" stroke="black" d="M 190 225 138 181"/>
<path stroke-width="1" stroke="black" d="M 190 225 217 263"/>
<path stroke-width="1" stroke="black" d="M 190 225 116 237"/>
<path stroke-width="1" stroke="black" d="M 190 225 120 88"/>
<path stroke-width="1" stroke="black" d="M 190 225 173 242"/>
<path stroke-width="1" stroke="black" d="M 190 225 205 116"/>
<path stroke-width="1" stroke="black" d="M 190 225 218 175"/>
<path stroke-width="1" stroke="black" d="M 190 225 99 114"/>
<path stroke-width="1" stroke="black" d="M 190 225 187 77"/>
<path stroke-width="1" stroke="black" d="M 190 225 101 207"/>
<path stroke-width="1" stroke="black" d="M 190 225 84 160"/>
<path stroke-width="1" stroke="black" d="M 190 225 183 239"/>
<path stroke-width="1" stroke="black" d="M 190 225 98 180"/>
<path stroke-width="1" stroke="black" d="M 190 225 215 116"/>
<path stroke-width="1" stroke="black" d="M 190 225 146 240"/>
<path stroke-width="1" stroke="black" d="M 190 225 177 129"/>
<path stroke-width="1" stroke="black" d="M 138 181 116 237"/>
<path stroke-width="1" stroke="black" d="M 138 181 173 242"/>
<path stroke-width="1" stroke="black" d="M 138 181 98 180"/>
<path stroke-width="1" stroke="black" d="M 138 181 205 116"/>
<path stroke-width="1" stroke="black" d="M 138 181 218 175"/>
<path stroke-width="1" stroke="black" d="M 138 181 99 114"/>
<path stroke-width="1" stroke="black" d="M 138 181 187 77"/>
<path stroke-width="1" stroke="black" d="M 190 225 214 205"/>
<path stroke-width="1" stroke="black" d="M 138 181 101 207"/>
<path stroke-width="1" stroke="black" d="M 138 181 183 239"/>
<path stroke-width="1" stroke="black" d="M 138 181 215 116"/>
<path stroke-width="1" stroke="black" d="M 138 181 234 160"/>
<path stroke-width="1" stroke="black" d="M 138 181 216 129"/>
<path stroke-width="1" stroke="black" d="M 138 181 241 171"/>
<path stroke-width="1" stroke="black" d="M 217 263 190 225"/>
<path stroke-width="1" stroke="black" d="M 190 225 130 84"/>
<path stroke-width="1" stroke="black" d="M 138 181 84 160"/>
<path stroke-width="1" stroke="black" d="M 190 225 234 160"/>
<path stroke-width="1" stroke="black" d="M 190 225 216 129"/>
<path stroke-width="1" stroke="black" d="M 190 225 241 171"/>
<path stroke-width="1" stroke="black" d="M 116 237 183 239"/>
<path stroke-width="1" stroke="black" d="M 116 237 215 116"/>
<path stroke-width="1" stroke="black" d="M 116 237 234 160"/>
<path stroke-width="1" stroke="black" d="M 116 237 216 129"/>
<path stroke-width="1" stroke="black" d="M 116 237 241 171"/>
<path stroke-width="1" stroke="black" d="M 180 294 173 242"/>
<path stroke-width="1" stroke="black" d="M 173 242 130 84"/>
<path stroke-width="1" stroke="black" d="M 116 237 84 160"/>
<path stroke-width="1" stroke="black" d="M 173 242 177 129"/>
<path stroke-width="1" stroke="black" d="M 173 242 146 240"/>
<path stroke-width="1" stroke="black" d="M 173 242 120 88"/>
<path stroke-width="1" stroke="black" d="M 173 242 111 219"/>
<path stroke-width="1" stroke="black" d="M 173 242 105 121"/>
<path stroke-width="1" stroke="black" d="M 173 242 125 150"/>
<path stroke-width="1" stroke="black" d="M 173 242 160 73"/>
<path stroke-width="1" stroke="black" d="M 173 242 138 181"/>
<path stroke-width="1" stroke="black" d="M 173 242 214 205"/>
<path stroke-width="1" stroke="black" d="M 116 237 101 207"/>
<path stroke-width="1" stroke="black" d="M 116 237 187 77"/>
<path stroke-width="1" stroke="black" d="M 116 237 99 114"/>
<path stroke-width="1" stroke="black" d="M 86 279 116 237"/>
<path stroke-width="1" stroke="black" d="M 116 237 130 84"/>
<path stroke-width="1" stroke="black" d="M 116 237 177 129"/>
<path stroke-width="1" stroke="black" d="M 116 237 214 205"/>
<path stroke-width="1" stroke="black" d="M 116 237 146 240"/>
<path stroke-width="1" stroke="black" d="M 116 237 120 88"/>
<path stroke-width="1" stroke="black" d="M 116 237 111 219"/>
<path stroke-width="1" stroke="black" d="M 116 237 105 121"/>
<path stroke-width="1" stroke="black" d="M 116 237 125 150"/>
<path stroke-width="1" stroke="black" d="M 116 237 160 73"/>
<path stroke-width="1" stroke="black" d="M 116 237 138 181"/>
<path stroke-width="1" stroke="black" d="M 116 237 190 225"/>
<path stroke-width="1" stroke="black" d="M 116 237 86 279"/>
<path stroke-width="1" stroke="black" d="M 116 237 173 242"/>
<path stroke-width="1" stroke="black" d="M 116 237 98 180"/>
<path stroke-width="1" stroke="black" d="M 116 237 205 116"/>
<path stroke-width="1" stroke="black" d="M 116 237 218 175"/>
<path stroke-width="1" stroke="black" d="M 138 181 190 225"/>
<path stroke-width="1" stroke="black" d="M 138 181 167 182"/>
<path stroke-width="1" stroke="black" d="M 138 181 160 73"/>
<path stroke-width="1" stroke="black" d="M 138 181 125 150"/>
<path stroke-width="1" stroke="black" d="M 125 150 214 205"/>
<path stroke-width="1" stroke="black" d="M 125 150 146 240"/>
<path stroke-width="1" stroke="black" d="M 125 150 120 88"/>
<path stroke-width="1" stroke="black" d="M 125 150 111 219"/>
<path stroke-width="1" stroke="black" d="M 125 150 105 121"/>
<path stroke-width="1" stroke="black" d="M 125 150 95 143"/>
<path stroke-width="1" stroke="black" d="M 125 150 160 73"/>
<path stroke-width="1" stroke="black" d="M 125 150 177 129"/>
<path stroke-width="1" stroke="black" d="M 125 150 138 181"/>
<path stroke-width="1" stroke="black" d="M 125 150 116 237"/>
<path stroke-width="1" stroke="black" d="M 125 150 173 242"/>
<path stroke-width="1" stroke="black" d="M 125 150 98 180"/>
<path stroke-width="1" stroke="black" d="M 125 150 205 116"/>
<path stroke-width="1" stroke="black" d="M 125 150 218 175"/>
<path stroke-width="1" stroke="black" d="M 125 150 99 114"/>
<path stroke-width="1" stroke="black" d="M 125 150 187 77"/>
<path stroke-width="1" stroke="black" d="M 125 150 190 225"/>
<path stroke-width="1" stroke="black" d="M 125 150 130 84"/>
<path stroke-width="1" stroke="black" d="M 95 143 125 150"/>
<path stroke-width="1" stroke="black" d="M 105 121 241 171"/>
<path stroke-width="1" stroke="black" d="M 105 121 125 150"/>
<path stroke-width="1" stroke="black" d="M 105 121 160 73"/>
<path stroke-width="1" stroke="black" d="M 105 121 138 181"/>
<path stroke-width="1" stroke="black" d="M 105 121 190 225"/>
<path stroke-width="1" stroke="black" d="M 105 121 116 237"/>
<path stroke-width="1" stroke="black" d="M 105 121 173 242"/>
<path stroke-width="1" stroke="black" d="M 105 121 98 180"/>
<path stroke-width="1" stroke="black" d="M 105 121 205 116"/>
<path stroke-width="1" stroke="black" d="M 105 121 218 175"/>
<path stroke-width="1" stroke="black" d="M 105 121 99 114"/>
<path stroke-width="1" stroke="black" d="M 105 121 187 77"/>
<path stroke-width="1" stroke="black" d="M 105 121 101 207"/>
<path stroke-width="1" stroke="black" d="M 105 121 84 160"/>
<path stroke-width="1" stroke="black" d="M 105 121 183 239"/>
<path stroke-width="1" stroke="black" d="M 105 121 215 116"/>
<path stroke-width="1" stroke="black" d="M 105 121 234 160"/>
<path stroke-width="1" stroke="black" d="M 105 121 216 129"/>
<path stroke-width="1" stroke="black" d="M 125 150 101 207"/>
<path stroke-width="1" stroke="black" d="M 105 121 111 219"/>
<path stroke-width="1" stroke="black" d="M 125 150 84 160"/>
<path stroke-width="1" stroke="black" d="M 125 150 215 116"/>
<path stroke-width="1" stroke="black" d="M 160 73 187 77"/>
<path stroke-width="1" stroke="black" d="M 160 73 101 207"/>
<path stroke-width="1" stroke="black" d="M 160 73 84 160"/>
<path stroke-width="1" stroke="black" d="M 160 73 183 239"/>
<path stroke-width="1" stroke="black" d="M 160 73 215 116"/>
<path stroke-width="1" stroke="black" d="M 160 73 234 160"/>
<path stroke-width="1" stroke="black" d="M 160 73 216 129"/>
<path stroke-width="1" stroke="black" d="M 160 73 99 114"/>
<path stroke-width="1" stroke="black" d="M 160 73 241 171"/>
<path stroke-width="1" stroke="black" d="M 138 181 130 84"/>
<path stroke-width="1" stroke="black" d="M 138 181 177 129"/>
<path stroke-width="1" stroke="black" d="M 138 181 214 205"/>
<path stroke-width="1" stroke="black" d="M 138 181 146 240"/>
<path stroke-width="1" stroke="black" d="M 138 181 120 88"/>
<path stroke-width="1" stroke="black" d="M 138 181 111 219"/>
<path stroke-width="1" stroke="black" d="M 138 181 105 121"/>
<path stroke-width="1" stroke="black" d="M 167 182 138 181"/>
<path stroke-width="1" stroke="black" d="M 160 73 218 175"/>
<path stroke-width="1" stroke="black" d="M 160 73 205 116"/>
<path stroke-width="1" stroke="black" d="M 160 73 98 180"/>
<path stroke-width="1" stroke="black" d="M 125 150 234 160"/>
<path stroke-width="1" stroke="black" d="M 125 150 216 129"/>
<path stroke-width="1" stroke="black" d="M 125 150 241 171"/>
<path stroke-width="1" stroke="black" d="M 162 36 160 73"/>
<path stroke-width="1" stroke="black" d="M 160 73 130 84"/>
<path stroke-width="1" stroke="black" d="M 160 73 177 129"/>
<path stroke-width="1" stroke="black" d="M 160 73 214 205"/>
<path stroke-width="1" stroke="black" d="M 160 73 146 240"/>
<path stroke-width="1" stroke="black" d="M 160 73 120 88"/>
<path stroke-width="1" stroke="black" d="M 160 73 111 219"/>
<path stroke-width="1" stroke="black" d="M 160 73 105 121"/>
<path stroke-width="1" stroke="black" d="M 160 73 125 150"/>
<path stroke-width="1" stroke="black" d="M 160 73 162 36"/>
<path stroke-width="1" stroke="black" d="M 160 73 138 181"/>
<path stroke-width="1" stroke="black" d="M 160 73 190 225"/>
<path stroke-width="1" stroke="black" d="M 160 73 116 237"/>
<path stroke-width="1" stroke="black" d="M 160 73 173 242"/>
<path stroke-width="1" stroke="black" d="M 125 150 183 239"/>
<path stroke-width="1" stroke="black" d="M 241 171 420 186"/>
<circle cx="104" cy="47" r="7.0" style="fill:gray;stroke:black;stroke-width:1.0"/>
<circle cx="130" cy="84" r="7.0" style="fill:gray;stroke:black;stroke-width:1.0"/>
<circle cx="193" cy="99" r="7.0" style="fill:gray;stroke:black;stroke-width:1.0"/>
<circle cx="177" cy="129" r="7.0" style="fill:gray;stroke:black;stroke-width:1.0"/>
<circle cx="238" cy="226" r="7.0" style="fill:gray;stroke:black;stroke-width:1.0"/>
<circle cx="214" cy="205" r="7.0" style="fill:gray;stroke:black;stroke-width:1.0"/>
<circle cx="139" cy="282" r="7.0" style="fill:gray;stroke:black;stroke-width:1.0"/>
<circle cx="146" cy="240" r="7.0" style="fill:gray;stroke:black;stroke-width:1.0"/>
<circle cx="99" cy="54" r="7.0" style="fill:gray;stroke:black;stroke-width:1.0"/>
<circle cx="120" cy="88" r="7.0" style="fill:gray;stroke:black;stroke-width:1.0"/>
<circle cx="83" cy="247" r="7.0" style="fill:gray;stroke:black;stroke-width:1.0"/>
<circle cx="111" cy="219" r="7.0" style="fill:gray;stroke:black;stroke-width:1.0"/>
<circle cx="70" cy="104" r="7.0" style="fill:gray;stroke:black;stroke-width:1.0"/>
<circle cx="105" cy="121" r="7.0" style="fill:gray;stroke:black;stroke-width:1.0"/>
<circle cx="95" cy="143" r="7.0" style="fill:gray;stroke:black;stroke-width:1.0"/>
<circle cx="125" cy="150" r="7.0" style="fill:gray;stroke:black;stroke-width:1.0"/>
<circle cx="162" cy="36" r="7.0" style="fill:gray;stroke:black;stroke-width:1.0"/>
<circle cx="160" cy="73" r="7.0" style="fill:gray;stroke:black;stroke-width:1.0"/>
<circle cx="167" cy="182" r="7.0" style="fill:gray;stroke:black;stroke-width:1.0"/>
<circle cx="138" cy="181" r="7.0" style="fill:gray;stroke:black;stroke-width:1.0"/>
<circle cx="217" cy="263" r="7.0" style="fill:gray;stroke:black;stroke-width:1.0"/>
<circle cx="190" cy="225" r="7.0" style="fill:gray;stroke:black;stroke-width:1.0"/>
<circle cx="86" cy="279" r="7.0" style="fill:gray;stroke:black;stroke-width:1.0"/>
<circle cx="116" cy="237" r="7.0" style="fill:gray;stroke:black;stroke-width:1.0"/>
<circle cx="180" cy="294" r="7.0" style="fill:gray;stroke:black;stroke-width:1.0"/>
<circle cx="173" cy="242" r="7.0" style="fill:gray;stroke:black;stroke-width:1.0"/>
<circle cx="51" cy="186" r="7.0" style="fill:gray;stroke:black;stroke-width:1.0"/>
<circle cx="98" cy="180" r="7.0" style="fill:gray;stroke:black;stroke-width:1.0"/>
<circle cx="236" cy="78" r="7.0" style="fill:gray;stroke:black;stroke-width:1.0"/>
<circle cx="205" cy="116" r="7.0" style="fill:gray;stroke:black;stroke-width:1.0"/>
<circle cx="262" cy="191" r="7.0" style="fill:gray;stroke:black;stroke-width:1.0"/>
<circle cx="218" cy="175" r="7.0" style="fill:gray;stroke:black;stroke-width:1.0"/>
<circle cx="56" cy="78" r="7.0" style="fill:gray;stroke:black;stroke-width:1.0"/>
<circle cx="99" cy="114" r="7.0" style="fill:gray;stroke:black;stroke-width:1.0"/>
<circle cx="211" cy="20" r="7.0" style="fill:gray;stroke:black;stroke-width:1.0"/>
<circle cx="187" cy="77" r="7.0" style="fill:gray;stroke:black;stroke-width:1.0"/>
<circle cx="50" cy="244" r="7.0" style="fill:gray;stroke:black;stroke-width:1.0"/>
<circle cx="101" cy="207" r="7.0" style="fill:gray;stroke:black;stroke-width:1.0"/>
<circle cx="20" cy="149" r="7.0" style="fill:gray;stroke:black;stroke-width:1.0"/>
<circle cx="84" cy="160" r="7.0" style="fill:gray;stroke:black;stroke-width:1.0"/>
<circle cx="205" cy="320" r="7.0" style="fill:gray;stroke:black;stroke-width:1.0"/>
<circle cx="183" cy="239" r="7.0" style="fill:gray;stroke:black;stroke-width:1.0"/>
<circle cx="272" cy="66" r="7.0" style="fill:gray;stroke:black;stroke-width:1.0"/>
<circle cx="215" cy="116" r="7.0" style="fill:gray;stroke:black;stroke-width:1.0"/>
<circle cx="316" cy="167" r="7.0" style="fill:gray;stroke:black;stroke-width:1.0"/>
<circle cx="234" cy="160" r="7.0" style="fill:gray;stroke:black;stroke-width:1.0"/>
<circle cx="297" cy="97" r="7.0" style="fill:gray;stroke:black;stroke-width:1.0"/>
<circle cx="216" cy="129" r="7.0" style="fill:gray;stroke:black;stroke-width:1.0"/>
<circle cx="420" cy="186" r="7.0" style="fill:gray;stroke:black;stroke-width:1.0"/>
<circle cx="241" cy="171" r="7.0" style="fill:gray;stroke:black;stroke-width:1.0"/>
</svg>
