<svg width="440" height="340" xmlns="http://www.w3.org/2000/svg">
<path stroke-width="1" stroke="black" d="M 231 76 226 107"/>
<path stroke-width="1" stroke="black" d="M 181 236 253 231"/>
<path stroke-width="1" stroke="black" d="M 181 236 317 162"/>
<path stroke-width="1" stroke="black" d="M 181 236 237 134"/>
<path stroke-width="1" stroke="black" d="M 181 236 293 204"/>
<path stroke-width="1" stroke="black" d="M 181 236 122 136"/>
<path stroke-width="1" stroke="black" d="M 181 236 152 283"/>
<path stroke-width="1" stroke="black" d="M 181 236 298 121"/>
<path stroke-width="1" stroke="black" d="M 181 236 160 105"/>
<path stroke-width="1" stroke="black" d="M 181 236 328 169"/>
<path stroke-width="1" stroke="black" d="M 181 236 299 193"/>
<path stroke-width="1" stroke="black" d="M 181 236 118 199"/>
<path stroke-width="1" stroke="black" d="M 181 236 203 240"/>
<path stroke-width="1" stroke="black" d="M 181 236 294 204"/>
<path stroke-width="1" stroke="black" d="M 181 236 166 129"/>
<path stroke-width="1" stroke="black" d="M 362 84 298 121"/>
<path stroke-width="1" stroke="black" d="M 298 121 226 107"/>
<path stroke-width="1" stroke="black" d="M 181 236 257 232"/>
<path stroke-width="1" stroke="black" d="M 298 121 146 220"/>
<path stroke-width="1" stroke="black" d="M 181 236 276 113"/>
<path stroke-width="1" stroke="black" d="M 181 236 172 206"/>
<path stroke-width="1" stroke="black" d="M 122 136 298 121"/>
<path stroke-width="1" stroke="black" d="M 122 136 328 169"/>
<path stroke-width="1" stroke="black" d="M 122 136 257 232"/>
<path stroke-width="1" stroke="black" d="M 122 136 299 193"/>
<path stroke-width="1" stroke="black" d="M 122 136 118 199"/>
<path stroke-width="1" stroke="black" d="M 122 136 203 240"/>
<path stroke-width="1" stroke="black" d="M 122 136 294 204"/>
<path stroke-width="1" stroke="black" d="M 181 236 203 198"/>
<path stroke-width="1" stroke="black" d="M 122 136 166 129"/>
<path stroke-width="1" stroke="black" d="M 181 236 226 107"/>
<path stroke-width="1" stroke="black" d="M 181 236 146 220"/>
<path stroke-width="1" stroke="black" d="M 181 236 101 166"/>
<path stroke-width="1" stroke="black" d="M 181 236 138 172"/>
<path stroke-width="1" stroke="black" d="M 181 236 163 143"/>
<path stroke-width="1" stroke="black" d="M 181 236 299 140"/>
<path stroke-width="1" stroke="black" d="M 181 236 200 98"/>
<path stroke-width="1" stroke="black" d="M 152 283 181 236"/>
<path stroke-width="1" stroke="black" d="M 298 121 101 166"/>
<path stroke-width="1" stroke="black" d="M 298 121 138 172"/>
<path stroke-width="1" stroke="black" d="M 298 121 163 143"/>
<path stroke-width="1" stroke="black" d="M 328 169 226 107"/>
<path stroke-width="1" stroke="black" d="M 328 169 146 220"/>
<path stroke-width="1" stroke="black" d="M 328 169 101 166"/>
<path stroke-width="1" stroke="black" d="M 328 169 138 172"/>
<path stroke-width="1" stroke="black" d="M 328 169 163 143"/>
<path stroke-width="1" stroke="black" d="M 328 169 299 140"/>
<path stroke-width="1" stroke="black" d="M 328 169 200 98"/>
<path stroke-width="1" stroke="black" d="M 420 169 328 169"/>
<path stroke-width="1" stroke="black" d="M 328 169 172 206"/>
<path stroke-width="1" stroke="black" d="M 328 169 276 113"/>
<path stroke-width="1" stroke="black" d="M 328 169 160 105"/>
<path stroke-width="1" stroke="black" d="M 328 169 253 231"/>
<path stroke-width="1" stroke="black" d="M 328 169 317 162"/>
<path stroke-width="1" stroke="black" d="M 328 169 237 134"/>
<path stroke-width="1" stroke="black" d="M 328 169 293 204"/>
<path stroke-width="1" stroke="black" d="M 328 169 122 136"/>
<path stroke-width="1" stroke="black" d="M 328 169 203 198"/>
<path stroke-width="1" stroke="black" d="M 298 121 166 129"/>
<path stroke-width="1" stroke="black" d="M 298 121 294 204"/>
<path stroke-width="1" stroke="black" d="M 298 121 203 240"/>
<path stroke-width="1" stroke="black" d="M 298 121 299 140"/>
<path stroke-width="1" stroke="black" d="M 298 121 200 98"/>
<path stroke-width="1" stroke="black" d="M 298 121 172 206"/>
<path stroke-width="1" stroke="black" d="M 298 121 203 198"/>
<path stroke-width="1" stroke="black" d="M 298 121 276 113"/>
<path stroke-width="1" stroke="black" d="M 298 121 160 105"/>
<path stroke-width="1" stroke="black" d="M 298 121 253 231"/>
<path stroke-width="1" stroke="black" d="M 298 121 317 162"/>
<path stroke-width="1" stroke="black" d="M 298 121 237 134"/>
<path stroke-width="1" stroke="black" d="M 298 121 293 204"/>
<path stroke-width="1" stroke="black" d="M 298 121 122 136"/>
<path stroke-width="1" stroke="black" d="M 298 121 181 236"/>
<path stroke-width="1" stroke="black" d="M 298 121 362 84"/>
<path stroke-width="1" stroke="black" d="M 298 121 328 169"/>
<path stroke-width="1" stroke="black" d="M 298 121 257 232"/>
<path stroke-width="1" stroke="black" d="M 298 121 299 193"/>
<path stroke-width="1" stroke="black" d="M 298 121 118 199"/>
<path stroke-width="1" stroke="black" d="M 122 136 181 236"/>
<path stroke-width="1" stroke="black" d="M 328 169 181 236"/>
<path stroke-width="1" stroke="black" d="M 122 136 55 111"/>
<path stroke-width="1" stroke="black" d="M 122 136 237 134"/>
<path stroke-width="1" stroke="black" d="M 237 134 203 198"/>
<path stroke-width="1" stroke="black" d="M 237 134 276 113"/>
<path stroke-width="1" stroke="black" d="M 237 134 160 105"/>
<path stroke-width="1" stroke="black" d="M 237 134 253 231"/>
<path stroke-width="1" stroke="black" d="M 237 134 317 162"/>
<path stroke-width="1" stroke="black" d="M 237 134 260 99"/>
<path stroke-width="1" stroke="black" d="M 237 134 293 204"/>
<path stroke-width="1" stroke="black" d="M 237 134 172 206"/>
<path stroke-width="1" stroke="black" d="M 237 134 122 136"/>
<path stroke-width="1" stroke="black" d="M 237 134 298 121"/>
<path stroke-width="1" stroke="black" d="M 237 134 328 169"/>
<path stroke-width="1" stroke="black" d="M 237 134 257 232"/>
<path stroke-width="1" stroke="black" d="M 237 134 299 193"/>
<path stroke-width="1" stroke="black" d="M 237 134 118 199"/>
<path stroke-width="1" stroke="black" d="M 237 134 203 240"/>
<path stroke-width="1" stroke="black" d="M 237 134 294 204"/>
<path stroke-width="1" stroke="black" d="M 237 134 181 236"/>
<path stroke-width="1" stroke="black" d="M 237 134 166 129"/>
<path stroke-width="1" stroke="black" d="M 237 134 200 98"/>
<path stroke-width="1" stroke="black" d="M 237 134 163 143"/>
<path stroke-width="1" stroke="black" d="M 317 162 293 204"/>
<path stroke-width="1" stroke="black" d="M 317 162 122 136"/>
<path stroke-width="1" stroke="black" d="M 317 162 181 236"/>
<path stroke-width="1" stroke="black" d="M 317 162 298 121"/>
<path stroke-width="1" stroke="black" d="M 317 162 328 169"/>
<path stroke-width="1" stroke="black" d="M 317 162 257 232"/>
<path stroke-width="1" stroke="black" d="M 317 162 299 193"/>
<path stroke-width="1" stroke="black" d="M 237 134 299 140"/>
<path stroke-width="1" stroke="black" d="M 317 162 118 199"/>
<path stroke-width="1" stroke="black" d="M 317 162 294 204"/>
<path stroke-width="1" stroke="black" d="M 317 162 166 129"/>
<path stroke-width="1" stroke="black" d="M 260 99 237 134"/>
<path stroke-width="1" stroke="black" d="M 237 134 226 107"/>
<path stroke-width="1" stroke="black" d="M 237 134 146 220"/>
<path stroke-width="1" stroke="black" d="M 237 134 101 166"/>
<path stroke-width="1" stroke="black" d="M 237 134 138 172"/>
<path stroke-width="1" stroke="black" d="M 317 162 203 240"/>
<path stroke-width="1" stroke="black" d="M 347 233 293 204"/>
<path stroke-width="1" stroke="black" d="M 293 204 226 107"/>
<path stroke-width="1" stroke="black" d="M 293 204 146 220"/>
<path stroke-width="1" stroke="black" d="M 293 204 294 204"/>
<path stroke-width="1" stroke="black" d="M 293 204 166 129"/>
<path stroke-width="1" stroke="black" d="M 55 111 122 136"/>
<path stroke-width="1" stroke="black" d="M 122 136 226 107"/>
<path stroke-width="1" stroke="black" d="M 122 136 146 220"/>
<path stroke-width="1" stroke="black" d="M 122 136 101 166"/>
<path stroke-width="1" stroke="black" d="M 122 136 138 172"/>
<path stroke-width="1" stroke="black" d="M 293 204 203 240"/>
<path stroke-width="1" stroke="black" d="M 122 136 163 143"/>
<path stroke-width="1" stroke="black" d="M 122 136 200 98"/>
<path stroke-width="1" stroke="black" d="M 122 136 172 206"/>
<path stroke-width="1" stroke="black" d="M 122 136 203 198"/>
<path stroke-width="1" stroke="black" d="M 122 136 276 113"/>
<path stroke-width="1" stroke="black" d="M 122 136 160 105"/>
<path stroke-width="1" stroke="black" d="M 122 136 253 231"/>
<path stroke-width="1" stroke="black" d="M 122 136 317 162"/>
<path stroke-width="1" stroke="black" d="M 122 136 299 140"/>
<path stroke-width="1" stroke="black" d="M 293 204 118 199"/>
<path stroke-width="1" stroke="black" d="M 293 204 299 193"/>
<path stroke-width="1" stroke="black" d="M 293 204 257 232"/>
<path stroke-width="1" stroke="black" d="M 293 204 101 166"/>
<path stroke-width="1" stroke="black" d="M 293 204 138 172"/>
<path stroke-width="1" stroke="black" d="M 293 204 163 143"/>
<path stroke-width="1" stroke="black" d="M 293 204 299 140"/>
<path stroke-width="1" stroke="black" d="M 293 204 200 98"/>
<path stroke-width="1" stroke="black" d="M 293 204 172 206"/>
<path stroke-width="1" stroke="black" d="M 293 204 203 198"/>
<path stroke-width="1" stroke="black" d="M 293 204 276 113"/>
<path stroke-width="1" stroke="black" d="M 293 204 160 105"/>
<path stroke-width="1" stroke="black" d="M 293 204 253 231"/>
<path stroke-width="1" stroke="black" d="M 293 204 317 162"/>
<path stroke-width="1" stroke="black" d="M 293 204 237 134"/>
<path stroke-width="1" stroke="black" d="M 293 204 347 233"/>
<path stroke-width="1" stroke="black" d="M 293 204 122 136"/>
<path stroke-width="1" stroke="black" d="M 293 204 181 236"/>
<path stroke-width="1" stroke="black" d="M 293 204 298 121"/>
<path stroke-width="1" stroke="black" d="M 293 204 328 169"/>
<path stroke-width="1" stroke="black" d="M 122 136 293 204"/>
<path stroke-width="1" stroke="black" d="M 328 169 298 121"/>
<path stroke-width="1" stroke="black" d="M 328 169 420 169"/>
<path stroke-width="1" stroke="black" d="M 328 169 257 232"/>
<path stroke-width="1" stroke="black" d="M 203 240 328 169"/>
<path stroke-width="1" stroke="black" d="M 203 240 257 232"/>
<path stroke-width="1" stroke="black" d="M 203 240 299 193"/>
<path stroke-width="1" stroke="black" d="M 203 240 118 199"/>
<path stroke-width="1" stroke="black" d="M 203 240 189 320"/>
<path stroke-width="1" stroke="black" d="M 203 240 294 204"/>
<path stroke-width="1" stroke="black" d="M 203 240 166 129"/>
<path stroke-width="1" stroke="black" d="M 203 240 298 121"/>
<path stroke-width="1" stroke="black" d="M 399 257 294 204"/>
<path stroke-width="1" stroke="black" d="M 294 204 146 220"/>
<path stroke-width="1" stroke="black" d="M 294 204 101 166"/>
<path stroke-width="1" stroke="black" d="M 294 204 138 172"/>
<path stroke-width="1" stroke="black" d="M 294 204 163 143"/>
<path stroke-width="1" stroke="black" d="M 294 204 299 140"/>
<path stroke-width="1" stroke="black" d="M 294 204 200 98"/>
<path stroke-width="1" stroke="black" d="M 294 204 172 206"/>
<path stroke-width="1" stroke="black" d="M 294 204 226 107"/>
<path stroke-width="1" stroke="black" d="M 294 204 203 198"/>
<path stroke-width="1" stroke="black" d="M 203 240 181 236"/>
<path stroke-width="1" stroke="black" d="M 203 240 293 204"/>
<path stroke-width="1" stroke="black" d="M 118 199 166 129"/>
<path stroke-width="1" stroke="black" d="M 189 320 203 240"/>
<path stroke-width="1" stroke="black" d="M 203 240 226 107"/>
<path stroke-width="1" stroke="black" d="M 203 240 146 220"/>
<path stroke-width="1" stroke="black" d="M 203 240 101 166"/>
<path stroke-width="1" stroke="black" d="M 203 240 138 172"/>
<path stroke-width="1" stroke="black" d="M 203 240 163 143"/>
<path stroke-width="1" stroke="black" d="M 203 240 122 136"/>
<path stroke-width="1" stroke="black" d="M 203 240 299 140"/>
<path stroke-width="1" stroke="black" d="M 203 240 172 206"/>
<path stroke-width="1" stroke="black" d="M 203 240 203 198"/>
<path stroke-width="1" stroke="black" d="M 203 240 276 113"/>
<path stroke-width="1" stroke="black" d="M 203 240 160 105"/>
<path stroke-width="1" stroke="black" d="M 203 240 253 231"/>
<path stroke-width="1" stroke="black" d="M 203 240 317 162"/>
<path stroke-width="1" stroke="black" d="M 203 240 237 134"/>
<path stroke-width="1" stroke="black" d="M 203 240 200 98"/>
<path stroke-width="1" stroke="black" d="M 294 204 276 113"/>
<path stroke-width="1" stroke="black" d="M 294 204 160 105"/>
<path stroke-width="1" stroke="black" d="M 294 204 253 231"/>
<path stroke-width="1" stroke="black" d="M 166 129 172 206"/>
<path stroke-width="1" stroke="black" d="M 166 129 203 198"/>
<path stroke-width="1" stroke="black" d="M 166 129 276 113"/>
<path stroke-width="1" stroke="black" d="M 166 129 160 105"/>
<path stroke-width="1" stroke="black" d="M 166 129 253 231"/>
<path stroke-width="1" stroke="black" d="M 166 129 317 162"/>
<path stroke-width="1" stroke="black" d="M 166 129 237 134"/>
<path stroke-width="1" stroke="black" d="M 166 129 200 98"/>
<path stroke-width="1" stroke="black" d="M 166 129 293 204"/>
<path stroke-width="1" stroke="black" d="M 166 129 181 236"/>
<path stroke-width="1" stroke="black" d="M 166 129 298 121"/>
<path stroke-width="1" stroke="black" d="M 166 129 328 169"/>
<path stroke-width="1" stroke="black" d="M 166 129 257 232"/>
<path stroke-width="1" stroke="black" d="M 166 129 299 193"/>
<path stroke-width="1" stroke="black" d="M 166 129 118 199"/>
<path stroke-width="1" stroke="black" d="M 166 129 203 240"/>
<path stroke-width="1" stroke="black" d="M 166 129 122 136"/>
<path stroke-width="1" stroke="black" d="M 166 129 299 140"/>
<path stroke-width="1" stroke="black" d="M 166 129 163 143"/>
<path stroke-width="1" stroke="black" d="M 166 129 138 172"/>
<path stroke-width="1" stroke="black" d="M 294 204 317 162"/>
<path stroke-width="1" stroke="black" d="M 294 204 237 134"/>
<path stroke-width="1" stroke="black" d="M 294 204 293 204"/>
<path stroke-width="1" stroke="black" d="M 294 204 122 136"/>
<path stroke-width="1" stroke="black" d="M 294 204 181 236"/>
<path stroke-width="1" stroke="black" d="M 294 204 298 121"/>
<path stroke-width="1" stroke="black" d="M 294 204 328 169"/>
<path stroke-width="1" stroke="black" d="M 294 204 257 232"/>
<path stroke-width="1" stroke="black" d="M 294 204 299 193"/>
<path stroke-width="1" stroke="black" d="M 294 204 118 199"/>
<path stroke-width="1" stroke="black" d="M 294 204 203 240"/>
<path stroke-width="1" stroke="black" d="M 294 204 399 257"/>
<path stroke-width="1" stroke="black" d="M 294 204 166 129"/>
<path stroke-width="1" stroke="black" d="M 24 20 166 129"/>
<path stroke-width="1" stroke="black" d="M 166 129 226 107"/>
<path stroke-width="1" stroke="black" d="M 166 129 146 220"/>
<path stroke-width="1" stroke="black" d="M 166 129 101 166"/>
<path stroke-width="1" stroke="black" d="M 118 199 294 204"/>
<path stroke-width="1" stroke="black" d="M 118 199 203 240"/>
<path stroke-width="1" stroke="black" d="M 118 199 20 230"/>
<path stroke-width="1" stroke="black" d="M 118 199 299 193"/>
<path stroke-width="1" stroke="black" d="M 257 232 122 136"/>
<path stroke-width="1" stroke="black" d="M 257 232 181 236"/>
<path stroke-width="1" stroke="black" d="M 257 232 298 121"/>
<path stroke-width="1" stroke="black" d="M 257 232 328 169"/>
<path stroke-width="1" stroke="black" d="M 257 232 295 290"/>
<path stroke-width="1" stroke="black" d="M 257 232 299 193"/>
<path stroke-width="1" stroke="black" d="M 257 232 118 199"/>
<path stroke-width="1" stroke="black" d="M 257 232 293 204"/>
<path stroke-width="1" stroke="black" d="M 257 232 203 240"/>
<path stroke-width="1" stroke="black" d="M 257 232 166 129"/>
<path stroke-width="1" stroke="black" d="M 396 215 299 193"/>
<path stroke-width="1" stroke="black" d="M 299 193 226 107"/>
<path stroke-width="1" stroke="black" d="M 299 193 146 220"/>
<path stroke-width="1" stroke="black" d="M 299 193 101 166"/>
<path stroke-width="1" stroke="black" d="M 299 193 138 172"/>
<path stroke-width="1" stroke="black" d="M 299 193 163 143"/>
<path stroke-width="1" stroke="black" d="M 257 232 294 204"/>
<path stroke-width="1" stroke="black" d="M 257 232 237 134"/>
<path stroke-width="1" stroke="black" d="M 257 232 317 162"/>
<path stroke-width="1" stroke="black" d="M 257 232 253 231"/>
<path stroke-width="1" stroke="black" d="M 328 169 299 193"/>
<path stroke-width="1" stroke="black" d="M 328 169 118 199"/>
<path stroke-width="1" stroke="black" d="M 328 169 203 240"/>
<path stroke-width="1" stroke="black" d="M 328 169 294 204"/>
<path stroke-width="1" stroke="black" d="M 328 169 166 129"/>
<path stroke-width="1" stroke="black" d="M 295 290 257 232"/>
<path stroke-width="1" stroke="black" d="M 257 232 226 107"/>
<path stroke-width="1" stroke="black" d="M 257 232 146 220"/>
<path stroke-width="1" stroke="black" d="M 257 232 101 166"/>
<path stroke-width="1" stroke="black" d="M 257 232 138 172"/>
<path stroke-width="1" stroke="black" d="M 257 232 163 143"/>
<path stroke-width="1" stroke="black" d="M 257 232 299 140"/>
<path stroke-width="1" stroke="black" d="M 257 232 200 98"/>
<path stroke-width="1" stroke="black" d="M 257 232 172 206"/>
<path stroke-width="1" stroke="black" d="M 257 232 203 198"/>
<path stroke-width="1" stroke="black" d="M 257 232 276 113"/>
<path stroke-width="1" stroke="black" d="M 257 232 160 105"/>
<path stroke-width="1" stroke="black" d="M 299 193 299 140"/>
<path stroke-width="1" stroke="black" d="M 317 162 237 134"/>
<path stroke-width="1" stroke="black" d="M 299 193 200 98"/>
<path stroke-width="1" stroke="black" d="M 299 193 203 198"/>
<path stroke-width="1" stroke="black" d="M 118 199 163 143"/>
<path stroke-width="1" stroke="black" d="M 118 199 299 140"/>
<path stroke-width="1" stroke="black" d="M 118 199 200 98"/>
<path stroke-width="1" stroke="black" d="M 118 199 172 206"/>
<path stroke-width="1" stroke="black" d="M 118 199 203 198"/>
<path stroke-width="1" stroke="black" d="M 118 199 276 113"/>
<path stroke-width="1" stroke="black" d="M 118 199 160 105"/>
<path stroke-width="1" stroke="black" d="M 118 199 138 172"/>
<path stroke-width="1" stroke="black" d="M 118 199 253 231"/>
<path stroke-width="1" stroke="black" d="M 118 199 237 134"/>
<path stroke-width="1" stroke="black" d="M 118 199 293 204"/>
<path stroke-width="1" stroke="black" d="M 118 199 122 136"/>
<path stroke-width="1" stroke="black" d="M 118 199 181 236"/>
<path stroke-width="1" stroke="black" d="M 118 199 298 121"/>
<path stroke-width="1" stroke="black" d="M 118 199 328 169"/>
<path stroke-width="1" stroke="black" d="M 118 199 257 232"/>
<path stroke-width="1" stroke="black" d="M 118 199 317 162"/>
<path stroke-width="1" stroke="black" d="M 118 199 101 166"/>
<path stroke-width="1" stroke="black" d="M 118 199 146 220"/>
<path stroke-width="1" stroke="black" d="M 118 199 226 107"/>
<path stroke-width="1" stroke="black" d="M 299 193 276 113"/>
<path stroke-width="1" stroke="black" d="M 299 193 160 105"/>
<path stroke-width="1" stroke="black" d="M 299 193 253 231"/>
<path stroke-width="1" stroke="black" d="M 299 193 317 162"/>
<path stroke-width="1" stroke="black" d="M 299 193 237 134"/>
<path stroke-width="1" stroke="black" d="M 299 193 293 204"/>
<path stroke-width="1" stroke="black" d="M 299 193 122 136"/>
<path stroke-width="1" stroke="black" d="M 299 193 181 236"/>
<path stroke-width="1" stroke="black" d="M 299 193 298 121"/>
<path stroke-width="1" stroke="black" d="M 299 193 328 169"/>
<path stroke-width="1" stroke="black" d="M 299 193 257 232"/>
<path stroke-width="1" stroke="black" d="M 299 193 396 215"/>
<path stroke-width="1" stroke="black" d="M 299 193 118 199"/>
<path stroke-width="1" stroke="black" d="M 299 193 203 240"/>
<path stroke-width="1" stroke="black" d="M 299 193 294 204"/>
<path stroke-width="1" stroke="black" d="M 299 193 166 129"/>
<path stroke-width="1" stroke="black" d="M 20 230 118 199"/>
<path stroke-width="1" stroke="black" d="M 299 193 172 206"/>
<path stroke-width="1" stroke="black" d="M 317 162 380 153"/>
<path stroke-width="1" stroke="black" d="M 317 162 253 231"/>
<path stroke-width="1" stroke="black" d="M 317 162 160 105"/>
<path stroke-width="1" stroke="black" d="M 138 172 166 129"/>
<path stroke-width="1" stroke="black" d="M 123 122 163 143"/>
<path stroke-width="1" stroke="black" d="M 163 143 226 107"/>
<path stroke-width="1" stroke="black" d="M 163 143 146 220"/>
<path stroke-width="1" stroke="black" d="M 163 143 101 166"/>
<path stroke-width="1" stroke="black" d="M 163 143 138 172"/>
<path stroke-width="1" stroke="black" d="M 163 143 123 122"/>
<path stroke-width="1" stroke="black" d="M 138 172 294 204"/>
<path stroke-width="1" stroke="black" d="M 163 143 299 140"/>
<path stroke-width="1" stroke="black" d="M 163 143 172 206"/>
<path stroke-width="1" stroke="black" d="M 163 143 203 198"/>
<path stroke-width="1" stroke="black" d="M 163 143 276 113"/>
<path stroke-width="1" stroke="black" d="M 163 143 160 105"/>
<path stroke-width="1" stroke="black" d="M 163 143 253 231"/>
<path stroke-width="1" stroke="black" d="M 163 143 317 162"/>
<path stroke-width="1" stroke="black" d="M 163 143 237 134"/>
<path stroke-width="1" stroke="black" d="M 163 143 200 98"/>
<path stroke-width="1" stroke="black" d="M 163 143 293 204"/>
<path stroke-width="1" stroke="black" d="M 138 172 203 240"/>
<path stroke-width="1" stroke="black" d="M 138 172 299 193"/>
<path stroke-width="1" stroke="black" d="M 138 172 163 143"/>
<path stroke-width="1" stroke="black" d="M 138 172 299 140"/>
<path stroke-width="1" stroke="black" d="M 138 172 200 98"/>
<path stroke-width="1" stroke="black" d="M 138 172 172 206"/>
<path stroke-width="1" stroke="black" d="M 138 172 203 198"/>
<path stroke-width="1" stroke="black" d="M 138 172 276 113"/>
<path stroke-width="1" stroke="black" d="M 138 172 160 105"/>
<path stroke-width="1" stroke="black" d="M 138 172 118 199"/>
<path stroke-width="1" stroke="black" d="M 138 172 253 231"/>
<path stroke-width="1" stroke="black" d="M 138 172 237 134"/>
<path stroke-width="1" stroke="black" d="M 138 172 293 204"/>
<path stroke-width="1" stroke="black" d="M 138 172 122 136"/>
<path stroke-width="1" stroke="black" d="M 138 172 181 236"/>
<path stroke-width="1" stroke="black" d="M 138 172 298 121"/>
<path stroke-width="1" stroke="black" d="M 138 172 328 169"/>
<path stroke-width="1" stroke="black" d="M 138 172 257 232"/>
<path stroke-width="1" stroke="black" d="M 138 172 317 162"/>
<path stroke-width="1" stroke="black" d="M 163 143 122 136"/>
<path stroke-width="1" stroke="black" d="M 163 143 181 236"/>
<path stroke-width="1" stroke="black" d="M 163 143 298 121"/>
<path stroke-width="1" stroke="black" d="M 299 140 237 134"/>
<path stroke-width="1" stroke="black" d="M 299 140 293 204"/>
<path stroke-width="1" stroke="black" d="M 299 140 122 136"/>
<path stroke-width="1" stroke="black" d="M 299 140 181 236"/>
<path stroke-width="1" stroke="black" d="M 299 140 298 121"/>
<path stroke-width="1" stroke="black" d="M 299 140 328 169"/>
<path stroke-width="1" stroke="black" d="M 299 140 257 232"/>
<path stroke-width="1" stroke="black" d="M 299 140 317 162"/>
<path stroke-width="1" stroke="black" d="M 299 140 299 193"/>
<path stroke-width="1" stroke="black" d="M 299 140 203 240"/>
<path stroke-width="1" stroke="black" d="M 299 140 294 204"/>
<path stroke-width="1" stroke="black" d="M 299 140 166 129"/>
<path stroke-width="1" stroke="black" d="M 190 61 200 98"/>
<path stroke-width="1" stroke="black" d="M 200 98 226 107"/>
<path stroke-width="1" stroke="black" d="M 200 98 146 220"/>
<path stroke-width="1" stroke="black" d="M 200 98 101 166"/>
<path stroke-width="1" stroke="black" d="M 299 140 118 199"/>
<path stroke-width="1" stroke="black" d="M 299 140 253 231"/>
<path stroke-width="1" stroke="black" d="M 299 140 160 105"/>
<path stroke-width="1" stroke="black" d="M 299 140 276 113"/>
<path stroke-width="1" stroke="black" d="M 163 143 328 169"/>
<path stroke-width="1" stroke="black" d="M 163 143 257 232"/>
<path stroke-width="1" stroke="black" d="M 163 143 299 193"/>
<path stroke-width="1" stroke="black" d="M 163 143 118 199"/>
<path stroke-width="1" stroke="black" d="M 163 143 203 240"/>
<path stroke-width="1" stroke="black" d="M 163 143 294 204"/>
<path stroke-width="1" stroke="black" d="M 163 143 166 129"/>
<path stroke-width="1" stroke="black" d="M 349 124 299 140"/>
<path stroke-width="1" stroke="black" d="M 299 140 226 107"/>
<path stroke-width="1" stroke="black" d="M 299 140 146 220"/>
<path stroke-width="1" stroke="black" d="M 299 140 101 166"/>
<path stroke-width="1" stroke="black" d="M 299 140 138 172"/>
<path stroke-width="1" stroke="black" d="M 299 140 163 143"/>
<path stroke-width="1" stroke="black" d="M 299 140 349 124"/>
<path stroke-width="1" stroke="black" d="M 299 140 200 98"/>
<path stroke-width="1" stroke="black" d="M 299 140 172 206"/>
<path stroke-width="1" stroke="black" d="M 299 140 203 198"/>
<path stroke-width="1" stroke="black" d="M 138 172 87 172"/>
<path stroke-width="1" stroke="black" d="M 138 172 101 166"/>
<path stroke-width="1" stroke="black" d="M 138 172 146 220"/>
<path stroke-width="1" stroke="black" d="M 138 172 226 107"/>
<path stroke-width="1" stroke="black" d="M 226 107 118 199"/>
<path stroke-width="1" stroke="black" d="M 226 107 203 240"/>
<path stroke-width="1" stroke="black" d="M 226 107 294 204"/>
<path stroke-width="1" stroke="black" d="M 226 107 166 129"/>
<path stroke-width="1" stroke="black" d="M 154 193 146 220"/>
<path stroke-width="1" stroke="black" d="M 146 220 226 107"/>
<path stroke-width="1" stroke="black" d="M 146 220 154 193"/>
<path stroke-width="1" stroke="black" d="M 226 107 299 193"/>
<path stroke-width="1" stroke="black" d="M 146 220 101 166"/>
<path stroke-width="1" stroke="black" d="M 146 220 163 143"/>
<path stroke-width="1" stroke="black" d="M 146 220 299 140"/>
<path stroke-width="1" stroke="black" d="M 146 220 200 98"/>
<path stroke-width="1" stroke="black" d="M 146 220 172 206"/>
<path stroke-width="1" stroke="black" d="M 146 220 203 198"/>
<path stroke-width="1" stroke="black" d="M 146 220 276 113"/>
<path stroke-width="1" stroke="black" d="M 146 220 160 105"/>
<path stroke-width="1" stroke="black" d="M 146 220 138 172"/>
<path stroke-width="1" stroke="black" d="M 226 107 257 232"/>
<path stroke-width="1" stroke="black" d="M 226 107 328 169"/>
<path stroke-width="1" stroke="black" d="M 226 107 298 121"/>
<path stroke-width="1" stroke="black" d="M 226 107 231 76"/>
<path stroke-width="1" stroke="black" d="M 226 107 146 220"/>
<path stroke-width="1" stroke="black" d="M 226 107 101 166"/>
<path stroke-width="1" stroke="black" d="M 226 107 138 172"/>
<path stroke-width="1" stroke="black" d="M 226 107 163 143"/>
<path stroke-width="1" stroke="black" d="M 226 107 299 140"/>
<path stroke-width="1" stroke="black" d="M 226 107 200 98"/>
<path stroke-width="1" stroke="black" d="M 226 107 172 206"/>
<path stroke-width="1" stroke="black" d="M 226 107 203 198"/>
<path stroke-width="1" stroke="black" d="M 226 107 276 113"/>
<path stroke-width="1" stroke="black" d="M 226 107 160 105"/>
<path stroke-width="1" stroke="black" d="M 226 107 253 231"/>
<path stroke-width="1" stroke="black" d="M 226 107 317 162"/>
<path stroke-width="1" stroke="black" d="M 226 107 237 134"/>
<path stroke-width="1" stroke="black" d="M 226 107 293 204"/>
<path stroke-width="1" stroke="black" d="M 226 107 122 136"/>
<path stroke-width="1" stroke="black" d="M 226 107 181 236"/>
<path stroke-width="1" stroke="black" d="M 146 220 253 231"/>
<path stroke-width="1" stroke="black" d="M 200 98 138 172"/>
<path stroke-width="1" stroke="black" d="M 146 220 317 162"/>
<path stroke-width="1" stroke="black" d="M 146 220 293 204"/>
<path stroke-width="1" stroke="black" d="M 101 166 160 105"/>
<path stroke-width="1" stroke="black" d="M 101 166 253 231"/>
<path stroke-width="1" stroke="black" d="M 101 166 317 162"/>
<path stroke-width="1" stroke="black" d="M 101 166 237 134"/>
<path stroke-width="1" stroke="black" d="M 101 166 293 204"/>
<path stroke-width="1" stroke="black" d="M 101 166 122 136"/>
<path stroke-width="1" stroke="black" d="M 101 166 181 236"/>
<path stroke-width="1" stroke="black" d="M 101 166 276 113"/>
<path stroke-width="1" stroke="black" d="M 101 166 298 121"/>
<path stroke-width="1" stroke="black" d="M 101 166 257 232"/>
<path stroke-width="1" stroke="black" d="M 101 166 299 193"/>
<path stroke-width="1" stroke="black" d="M 101 166 118 199"/>
<path stroke-width="1" stroke="black" d="M 101 166 203 240"/>
<path stroke-width="1" stroke="black" d="M 101 166 294 204"/>
<path stroke-width="1" stroke="black" d="M 101 166 166 129"/>
<path stroke-width="1" stroke="black" d="M 87 172 138 172"/>
<path stroke-width="1" stroke="black" d="M 101 166 328 169"/>
<path stroke-width="1" stroke="black" d="M 101 166 203 198"/>
<path stroke-width="1" stroke="black" d="M 101 166 172 206"/>
<path stroke-width="1" stroke="black" d="M 101 166 200 98"/>
<path stroke-width="1" stroke="black" d="M 146 220 122 136"/>
<path stroke-width="1" stroke="black" d="M 146 220 181 236"/>
<path stroke-width="1" stroke="black" d="M 146 220 298 121"/>
<path stroke-width="1" stroke="black" d="M 146 220 328 169"/>
<path stroke-width="1" stroke="black" d="M 146 220 257 232"/>
<path stroke-width="1" stroke="black" d="M 146 220 299 193"/>
<path stroke-width="1" stroke="black" d="M 146 220 118 199"/>
<path stroke-width="1" stroke="black" d="M 146 220 203 240"/>
<path stroke-width="1" stroke="black" d="M 146 220 294 204"/>
<path stroke-width="1" stroke="black" d="M 146 220 166 129"/>
<path stroke-width="1" stroke="black" d="M 46 162 101 166"/>
<path stroke-width="1" stroke="black" d="M 101 166 226 107"/>
<path stroke-width="1" stroke="black" d="M 101 166 146 220"/>
<path stroke-width="1" stroke="black" d="M 101 166 46 162"/>
<path stroke-width="1" stroke="black" d="M 101 166 138 172"/>
<path stroke-width="1" stroke="black" d="M 101 166 163 143"/>
<path stroke-width="1" stroke="black" d="M 101 166 299 140"/>
<path stroke-width="1" stroke="black" d="M 146 220 237 134"/>
<path stroke-width="1" stroke="black" d="M 166 129 294 204"/>
<path stroke-width="1" stroke="black" d="M 200 98 163 143"/>
<path stroke-width="1" stroke="black" d="M 200 98 190 61"/>
<path stroke-width="1" stroke="black" d="M 160 105 299 140"/>
<path stroke-width="1" stroke="black" d="M 160 105 200 98"/>
<path stroke-width="1" stroke="black" d="M 160 105 172 206"/>
<path stroke-width="1" stroke="black" d="M 160 105 203 198"/>
<path stroke-width="1" stroke="black" d="M 160 105 276 113"/>
<path stroke-width="1" stroke="black" d="M 160 105 126 70"/>
<path stroke-width="1" stroke="black" d="M 160 105 253 231"/>
<path stroke-width="1" stroke="black" d="M 160 105 163 143"/>
<path stroke-width="1" stroke="black" d="M 160 105 317 162"/>
<path stroke-width="1" stroke="black" d="M 160 105 293 204"/>
<path stroke-width="1" stroke="black" d="M 160 105 122 136"/>
<path stroke-width="1" stroke="black" d="M 160 105 181 236"/>
<path stroke-width="1" stroke="black" d="M 160 105 298 121"/>
<path stroke-width="1" stroke="black" d="M 160 105 328 169"/>
<path stroke-width="1" stroke="black" d="M 160 105 257 232"/>
<path stroke-width="1" stroke="black" d="M 160 105 299 193"/>
<path stroke-width="1" stroke="black" d="M 160 105 237 134"/>
<path stroke-width="1" stroke="black" d="M 160 105 118 199"/>
<path stroke-width="1" stroke="black" d="M 160 105 138 172"/>
<path stroke-width="1" stroke="black" d="M 160 105 146 220"/>
<path stroke-width="1" stroke="black" d="M 276 113 253 231"/>
<path stroke-width="1" stroke="black" d="M 276 113 317 162"/>
<path stroke-width="1" stroke="black" d="M 276 113 237 134"/>
<path stroke-width="1" stroke="black" d="M 276 113 293 204"/>
<path stroke-width="1" stroke="black" d="M 276 113 122 136"/>
<path stroke-width="1" stroke="black" d="M 276 113 181 236"/>
<path stroke-width="1" stroke="black" d="M 276 113 298 121"/>
<path stroke-width="1" stroke="black" d="M 160 105 101 166"/>
<path stroke-width="1" stroke="black" d="M 276 113 328 169"/>
<path stroke-width="1" stroke="black" d="M 276 113 299 193"/>
<path stroke-width="1" stroke="black" d="M 276 113 118 199"/>
<path stroke-width="1" stroke="black" d="M 276 113 203 240"/>
<path stroke-width="1" stroke="black" d="M 276 113 294 204"/>
<path stroke-width="1" stroke="black" d="M 276 113 166 129"/>
<path stroke-width="1" stroke="black" d="M 126 70 160 105"/>
<path stroke-width="1" stroke="black" d="M 160 105 226 107"/>
<path stroke-width="1" stroke="black" d="M 276 113 257 232"/>
<path stroke-width="1" stroke="black" d="M 160 105 203 240"/>
<path stroke-width="1" stroke="black" d="M 160 105 294 204"/>
<path stroke-width="1" stroke="black" d="M 160 105 166 129"/>
<path stroke-width="1" stroke="black" d="M 253 231 299 193"/>
<path stroke-width="1" stroke="black" d="M 253 231 118 199"/>
<path stroke-width="1" stroke="black" d="M 253 231 203 240"/>
<path stroke-width="1" stroke="black" d="M 253 231 294 204"/>
<path stroke-width="1" stroke="black" d="M 253 231 166 129"/>
<path stroke-width="1" stroke="black" d="M 380 153 317 162"/>
<path stroke-width="1" stroke="black" d="M 317 162 226 107"/>
<path stroke-width="1" stroke="black" d="M 253 231 257 232"/>
<path stroke-width="1" stroke="black" d="M 317 162 146 220"/>
<path stroke-width="1" stroke="black" d="M 317 162 138 172"/>
<path stroke-width="1" stroke="black" d="M 317 162 163 143"/>
<path stroke-width="1" stroke="black" d="M 317 162 299 140"/>
<path stroke-width="1" stroke="black" d="M 317 162 200 98"/>
<path stroke-width="1" stroke="black" d="M 317 162 172 206"/>
<path stroke-width="1" stroke="black" d="M 317 162 203 198"/>
<path stroke-width="1" stroke="black" d="M 317 162 276 113"/>
<path stroke-width="1" stroke="black" d="M 317 162 101 166"/>
<path stroke-width="1" stroke="black" d="M 253 231 328 169"/>
<path stroke-width="1" stroke="black" d="M 253 231 298 121"/>
<path stroke-width="1" stroke="black" d="M 253 231 181 236"/>
<path stroke-width="1" stroke="black" d="M 269 272 253 231"/>
<path stroke-width="1" stroke="black" d="M 253 231 226 107"/>
<path stroke-width="1" stroke="black" d="M 253 231 146 220"/>
<path stroke-width="1" stroke="black" d="M 253 231 101 166"/>
<path stroke-width="1" stroke="black" d="M 253 231 138 172"/>
<path stroke-width="1" stroke="black" d="M 253 231 163 143"/>
<path stroke-width="1" stroke="black" d="M 253 231 299 140"/>
<path stroke-width="1" stroke="black" d="M 253 231 200 98"/>
<path stroke-width="1" stroke="black" d="M 253 231 172 206"/>
<path stroke-width="1" stroke="black" d="M 253 231 203 198"/>
<path stroke-width="1" stroke="black" d="M 253 231 276 113"/>
<path stroke-width="1" stroke="black" d="M 253 231 160 105"/>
<path stroke-width="1" stroke="black" d="M 253 231 269 272"/>
<path stroke-width="1" stroke="black" d="M 253 231 317 162"/>
<path stroke-width="1" stroke="black" d="M 253 231 237 134"/>
<path stroke-width="1" stroke="black" d="M 253 231 293 204"/>
<path stroke-width="1" stroke="black" d="M 253 231 122 136"/>
<path stroke-width="1" stroke="black" d="M 276 113 160 105"/>
<path stroke-width="1" stroke="black" d="M 276 113 307 78"/>
<path stroke-width="1" stroke="black" d="M 276 113 203 198"/>
<path stroke-width="1" stroke="black" d="M 276 113 172 206"/>
<path stroke-width="1" stroke="black" d="M 172 206 101 166"/>
<path stroke-width="1" stroke="black" d="M 172 206 138 172"/>
<path stroke-width="1" stroke="black" d="M 172 206 163 143"/>
<path stroke-width="1" stroke="black" d="M 172 206 299 140"/>
<path stroke-width="1" stroke="black" d="M 172 206 200 98"/>
<path stroke-width="1" stroke="black" d="M 172 206 139 232"/>
<path stroke-width="1" stroke="black" d="M 172 206 203 198"/>
<path stroke-width="1" stroke="black" d="M 172 206 146 220"/>
<path stroke-width="1" stroke="black" d="M 172 206 276 113"/>
<path stroke-width="1" stroke="black" d="M 172 206 253 231"/>
<path stroke-width="1" stroke="black" d="M 172 206 317 162"/>
<path stroke-width="1" stroke="black" d="M 172 206 237 134"/>
<path stroke-width="1" stroke="black" d="M 172 206 293 204"/>
<path stroke-width="1" stroke="black" d="M 172 206 122 136"/>
<path stroke-width="1" stroke="black" d="M 172 206 181 236"/>
<path stroke-width="1" stroke="black" d="M 172 206 298 121"/>
<path stroke-width="1" stroke="black" d="M 172 206 160 105"/>
<path stroke-width="1" stroke="black" d="M 172 206 226 107"/>
<path stroke-width="1" stroke="black" d="M 139 232 172 206"/>
<path stroke-width="1" stroke="black" d="M 200 98 166 129"/>
<path stroke-width="1" stroke="black" d="M 200 98 172 206"/>
<path stroke-width="1" stroke="black" d="M 200 98 203 198"/>
<path stroke-width="1" stroke="black" d="M 200 98 276 113"/>
<path stroke-width="1" stroke="black" d="M 200 98 160 105"/>
<path stroke-width="1" stroke="black" d="M 200 98 253 231"/>
<path stroke-width="1" stroke="black" d="M 200 98 317 162"/>
<path stroke-width="1" stroke="black" d="M 200 98 237 134"/>
<path stroke-width="1" stroke="black" d="M 200 98 293 204"/>
<path stroke-width="1" stroke="black" d="M 200 98 122 136"/>
<path stroke-width="1" stroke="black" d="M 200 98 181 236"/>
<path stroke-width="1" stroke="black" d="M 200 98 298 121"/>
<path stroke-width="1" stroke="black" d="M 200 98 328 169"/>
<path stroke-width="1" stroke="black" d="M 200 98 257 232"/>
<path stroke-width="1" stroke="black" d="M 200 98 299 193"/>
<path stroke-width="1" stroke="black" d="M 200 98 118 199"/>
<path stroke-width="1" stroke="black" d="M 200 98 203 240"/>
<path stroke-width="1" stroke="black" d="M 200 98 294 204"/>
<path stroke-width="1" stroke="black" d="M 172 206 328 169"/>
<path stroke-width="1" stroke="black" d="M 200 98 299 140"/>
<path stroke-width="1" stroke="black" d="M 172 206 257 232"/>
<path stroke-width="1" stroke="black" d="M 172 206 118 199"/>
<path stroke-width="1" stroke="black" d="M 203 198 298 121"/>
<path stroke-width="1" stroke="black" d="M 203 198 328 169"/>
<path stroke-width="1" stroke="black" d="M 203 198 257 232"/>
<path stroke-width="1" stroke="black" d="M 203 198 299 193"/>
<path stroke-width="1" stroke="black" d="M 203 198 118 199"/>
<path stroke-width="1" stroke="black" d="M 203 198 203 240"/>
<path stroke-width="1" stroke="black" d="M 203 198 294 204"/>
<path stroke-width="1" stroke="black" d="M 203 198 181 236"/>
<path stroke-width="1" stroke="black" d="M 203 198 166 129"/>
<path stroke-width="1" stroke="black" d="M 276 113 226 107"/>
<path stroke-width="1" stroke="black" d="M 276 113 146 220"/>
<path stroke-width="1" stroke="black" d="M 276 113 101 166"/>
<path stroke-width="1" stroke="black" d="M 276 113 138 172"/>
<path stroke-width="1" stroke="black" d="M 276 113 163 143"/>
<path stroke-width="1" stroke="black" d="M 276 113 299 140"/>
<path stroke-width="1" stroke="black" d="M 276 113 200 98"/>
<path stroke-width="1" stroke="black" d="M 307 78 276 113"/>
<path stroke-width="1" stroke="black" d="M 203 198 122 136"/>
<path stroke-width="1" stroke="black" d="M 203 198 293 204"/>
<path stroke-width="1" stroke="black" d="M 203 198 237 134"/>
<path stroke-width="1" stroke="black" d="M 172 206 203 240"/>
<path stroke-width="1" stroke="black" d="M 172 206 294 204"/>
<path stroke-width="1" stroke="black" d="M 172 206 166 129"/>
<path stroke-width="1" stroke="black" d="M 190 227 203 198"/>
<path stroke-width="1" stroke="black" d="M 203 198 226 107"/>
<path stroke-width="1" stroke="black" d="M 203 198 146 220"/>
<path stroke-width="1" stroke="black" d="M 203 198 101 166"/>
<path stroke-width="1" stroke="black" d="M 203 198 138 172"/>
<path stroke-width="1" stroke="black" d="M 203 198 163 143"/>
<path stroke-width="1" stroke="black" d="M 203 198 299 140"/>
<path stroke-width="1" stroke="black" d="M 203 198 200 98"/>
<path stroke-width="1" stroke="black" d="M 203 198 172 206"/>
<path stroke-width="1" stroke="black" d="M 203 198 190 227"/>
<path stroke-width="1" stroke="black" d="M 203 198 276 113"/>
<path stroke-width="1" stroke="black" d="M 203 198 160 105"/>
<path stroke-width="1" stroke="black" d="M 203 198 253 231"/>
<path stroke-width="1" stroke="black" d="M 203 198 317 162"/>
<path stroke-width="1" stroke="black" d="M 172 206 299 193"/>
<path stroke-width="1" stroke="black" d="M 166 129 24 20"/>
<circle cx="231" cy="76" r="7.0" style="fill:red;stroke:black;stroke-width:1.0"/>
<circle cx="226" cy="107" r="7.0" style="fill:red;stroke:black;stroke-width:1.0"/>
<circle cx="154" cy="193" r="7.0" style="fill:blue;stroke:black;stroke-width:1.0"/>
<circle cx="146" cy="220" r="7.0" style="fill:blue;stroke:black;stroke-width:1.0"/>
<circle cx="46" cy="162" r="7.0" style="fill:brown;stroke:black;stroke-width:1.0"/>
<circle cx="101" cy="166" r="7.0" style="fill:brown;stroke:black;stroke-width:1.0"/>
<circle cx="87" cy="172" r="7.0" style="fill:aqua;stroke:black;stroke-width:1.0"/>
<circle cx="138" cy="172" r="7.0" style="fill:aqua;stroke:black;stroke-width:1.0"/>
<circle cx="123" cy="122" r="7.0" style="fill:olive;stroke:black;stroke-width:1.0"/>
<circle cx="163" cy="143" r="7.0" style="fill:olive;stroke:black;stroke-width:1.0"/>
<circle cx="349" cy="124" r="7.0" style="fill:fuchsia;stroke:black;stroke-width:1.0"/>
<circle cx="299" cy="140" r="7.0" style="fill:fuchsia;stroke:black;stroke-width:1.0"/>
<circle cx="190" cy="61" r="7.0" style="fill:yellow;stroke:black;stroke-width:1.0"/>
<circle cx="200" cy="98" r="7.0" style="fill:yellow;stroke:black;stroke-width:1.0"/>
<circle cx="139" cy="232" r="7.0" style="fill:purple;stroke:black;stroke-width:1.0"/>
<circle cx="172" cy="206" r="7.0" style="fill:purple;stroke:black;stroke-width:1.0"/>
<circle cx="190" cy="227" r="7.0" style="fill:orange;stroke:black;stroke-width:1.0"/>
<circle cx="203" cy="198" r="7.0" style="fill:orange;stroke:black;stroke-width:1.0"/>
<circle cx="307" cy="78" r="7.0" style="fill:green;stroke:black;stroke-width:1.0"/>
<circle cx="276" cy="113" r="7.0" style="fill:green;stroke:black;stroke-width:1.0"/>
<circle cx="126" cy="70" r="7.0" style="fill:red;stroke:black;stroke-width:1.0"/>
<circle cx="160" cy="105" r="7.0" style="fill:red;stroke:black;stroke-width:1.0"/>
<circle cx="269" cy="272" r="7.0" style="fill:red;stroke:black;stroke-width:1.0"/>
<circle cx="253" cy="231" r="7.0" style="fill:red;stroke:black;stroke-width:1.0"/>
<circle cx="380" cy="153" r="7.0" style="fill:blue;stroke:black;stroke-width:1.0"/>
<circle cx="317" cy="162" r="7.0" style="fill:blue;stroke:black;stroke-width:1.0"/>
<circle cx="260" cy="99" r="7.0" style="fill:brown;stroke:black;stroke-width:1.0"/>
<circle cx="237" cy="134" r="7.0" style="fill:brown;stroke:black;stroke-width:1.0"/>
<circle cx="347" cy="233" r="7.0" style="fill:aqua;stroke:black;stroke-width:1.0"/>
<circle cx="293" cy="204" r="7.0" style="fill:aqua;stroke:black;stroke-width:1.0"/>
<circle cx="55" cy="111" r="7.0" style="fill:olive;stroke:black;stroke-width:1.0"/>
<circle cx="122" cy="136" r="7.0" style="fill:olive;stroke:black;stroke-width:1.0"/>
<circle cx="152" cy="283" r="7.0" style="fill:green;stroke:black;stroke-width:1.0"/>
<circle cx="181" cy="236" r="7.0" style="fill:green;stroke:black;stroke-width:1.0"/>
<circle cx="362" cy="84" r="7.0" style="fill:fuchsia;stroke:black;stroke-width:1.0"/>
<circle cx="298" cy="121" r="7.0" style="fill:fuchsia;stroke:black;stroke-width:1.0"/>
<circle cx="420" cy="169" r="7.0" style="fill:yellow;stroke:black;stroke-width:1.0"/>
<circle cx="328" cy="169" r="7.0" style="fill:yellow;stroke:black;stroke-width:1.0"/>
<circle cx="295" cy="290" r="7.0" style="fill:purple;stroke:black;stroke-width:1.0"/>
<circle cx="257" cy="232" r="7.0" style="fill:purple;stroke:black;stroke-width:1.0"/>
<circle cx="396" cy="215" r="7.0" style="fill:orange;stroke:black;stroke-width:1.0"/>
<circle cx="299" cy="193" r="7.0" style="fill:orange;stroke:black;stroke-width:1.0"/>
<circle cx="20" cy="230" r="7.0" style="fill:green;stroke:black;stroke-width:1.0"/>
<circle cx="118" cy="199" r="7.0" style="fill:green;stroke:black;stroke-width:1.0"/>
<circle cx="189" cy="320" r="7.0" style="fill:blue;stroke:black;stroke-width:1.0"/>
<circle cx="203" cy="240" r="7.0" style="fill:blue;stroke:black;stroke-width:1.0"/>
<circle cx="399" cy="257" r="7.0" style="fill:blue;stroke:black;stroke-width:1.0"/>
<circle cx="294" cy="204" r="7.0" style="fill:blue;stroke:black;stroke-width:1.0"/>
<circle cx="24" cy="20" r="7.0" style="fill:blue;stroke:black;stroke-width:1.0"/>
<circle cx="166" cy="129" r="7.0" style="fill:blue;stroke:black;stroke-width:1.0"/>
</svg>
