<svg width="440" height="340" xmlns="http://www.w3.org/2000/svg">
<path stroke-width="8.3" stroke="black" d="M 274 178 205 222"/>
<path stroke-width="0.5" stroke="black" d="M 20 175 45 54"/>
<path stroke-width="8.3" stroke="black" d="M 105 235 274 178"/>
<path stroke-width="0.5" stroke="black" d="M 105 235 205 222"/>
<path stroke-width="0.5" stroke="black" d="M 105 235 259 107"/>
<path stroke-width="0.5" stroke="black" d="M 105 235 153 20"/>
<path stroke-width="0.5" stroke="black" d="M 105 235 244 320"/>
<path stroke-width="0.5" stroke="black" d="M 105 235 420 147"/>
<path stroke-width="12.2" stroke="black" d="M 105 235 371 269"/>
<path stroke-width="0.5" stroke="black" d="M 20 175 71 129"/>
<path stroke-width="0.5" stroke="black" d="M 105 235 253 36"/>
<path stroke-width="0.5" stroke="black" d="M 105 235 404 70"/>
<path stroke-width="0.5" stroke="black" d="M 105 235 92 309"/>
<path stroke-width="0.5" stroke="black" d="M 105 235 71 129"/>
<path stroke-width="0.5" stroke="black" d="M 105 235 45 54"/>
<path stroke-width="8.3" stroke="black" d="M 404 70 274 178"/>
<path stroke-width="0.5" stroke="black" d="M 404 70 205 222"/>
<path stroke-width="0.5" stroke="black" d="M 404 70 259 107"/>
<path stroke-width="0.5" stroke="black" d="M 404 70 153 20"/>
<path stroke-width="0.5" stroke="black" d="M 105 235 20 175"/>
<path stroke-width="0.5" stroke="black" d="M 20 175 92 309"/>
<path stroke-width="0.5" stroke="black" d="M 20 175 404 70"/>
<path stroke-width="0.5" stroke="black" d="M 20 175 105 235"/>
<path stroke-width="0.5" stroke="black" d="M 253 36 259 107"/>
<path stroke-width="0.5" stroke="black" d="M 253 36 153 20"/>
<path stroke-width="0.5" stroke="black" d="M 253 36 244 320"/>
<path stroke-width="0.5" stroke="black" d="M 253 36 420 147"/>
<path stroke-width="0.5" stroke="black" d="M 253 36 371 269"/>
<path stroke-width="12.2" stroke="black" d="M 253 36 20 175"/>
<path stroke-width="0.5" stroke="black" d="M 253 36 105 235"/>
<path stroke-width="0.5" stroke="black" d="M 253 36 404 70"/>
<path stroke-width="0.5" stroke="black" d="M 253 36 92 309"/>
<path stroke-width="0.5" stroke="black" d="M 253 36 71 129"/>
<path stroke-width="0.5" stroke="black" d="M 253 36 45 54"/>
<path stroke-width="8.3" stroke="black" d="M 20 175 274 178"/>
<path stroke-width="0.5" stroke="black" d="M 20 175 205 222"/>
<path stroke-width="0.5" stroke="black" d="M 20 175 259 107"/>
<path stroke-width="0.5" stroke="black" d="M 20 175 153 20"/>
<path stroke-width="0.5" stroke="black" d="M 20 175 244 320"/>
<path stroke-width="0.5" stroke="black" d="M 20 175 420 147"/>
<path stroke-width="0.5" stroke="black" d="M 20 175 371 269"/>
<path stroke-width="12.2" stroke="black" d="M 20 175 253 36"/>
<path stroke-width="0.5" stroke="black" d="M 404 70 244 320"/>
<path stroke-width="12.2" stroke="black" d="M 404 70 420 147"/>
<path stroke-width="0.5" stroke="black" d="M 404 70 371 269"/>
<path stroke-width="0.5" stroke="black" d="M 404 70 253 36"/>
<path stroke-width="0.5" stroke="black" d="M 71 129 420 147"/>
<path stroke-width="0.5" stroke="black" d="M 71 129 371 269"/>
<path stroke-width="0.5" stroke="black" d="M 71 129 253 36"/>
<path stroke-width="0.5" stroke="black" d="M 71 129 20 175"/>
<path stroke-width="0.5" stroke="black" d="M 71 129 105 235"/>
<path stroke-width="0.5" stroke="black" d="M 71 129 404 70"/>
<path stroke-width="0.5" stroke="black" d="M 71 129 92 309"/>
<path stroke-width="0.5" stroke="black" d="M 71 129 45 54"/>
<path stroke-width="8.3" stroke="black" d="M 45 54 274 178"/>
<path stroke-width="0.5" stroke="black" d="M 45 54 205 222"/>
<path stroke-width="0.5" stroke="black" d="M 45 54 259 107"/>
<path stroke-width="12.2" stroke="black" d="M 45 54 153 20"/>
<path stroke-width="0.5" stroke="black" d="M 45 54 244 320"/>
<path stroke-width="0.5" stroke="black" d="M 45 54 420 147"/>
<path stroke-width="0.5" stroke="black" d="M 45 54 371 269"/>
<path stroke-width="0.5" stroke="black" d="M 45 54 253 36"/>
<path stroke-width="0.5" stroke="black" d="M 45 54 20 175"/>
<path stroke-width="0.5" stroke="black" d="M 45 54 105 235"/>
<path stroke-width="0.5" stroke="black" d="M 45 54 404 70"/>
<path stroke-width="0.5" stroke="black" d="M 71 129 244 320"/>
<path stroke-width="0.5" stroke="black" d="M 253 36 205 222"/>
<path stroke-width="0.5" stroke="black" d="M 71 129 153 20"/>
<path stroke-width="12.2" stroke="black" d="M 71 129 205 222"/>
<path stroke-width="0.5" stroke="black" d="M 404 70 20 175"/>
<path stroke-width="0.5" stroke="black" d="M 404 70 105 235"/>
<path stroke-width="0.5" stroke="black" d="M 404 70 92 309"/>
<path stroke-width="0.5" stroke="black" d="M 404 70 71 129"/>
<path stroke-width="0.5" stroke="black" d="M 404 70 45 54"/>
<path stroke-width="8.3" stroke="black" d="M 92 309 274 178"/>
<path stroke-width="0.5" stroke="black" d="M 92 309 205 222"/>
<path stroke-width="0.5" stroke="black" d="M 92 309 259 107"/>
<path stroke-width="0.5" stroke="black" d="M 92 309 153 20"/>
<path stroke-width="12.2" stroke="black" d="M 92 309 244 320"/>
<path stroke-width="0.5" stroke="black" d="M 92 309 420 147"/>
<path stroke-width="0.5" stroke="black" d="M 92 309 371 269"/>
<path stroke-width="0.5" stroke="black" d="M 92 309 253 36"/>
<path stroke-width="0.5" stroke="black" d="M 92 309 20 175"/>
<path stroke-width="0.5" stroke="black" d="M 92 309 105 235"/>
<path stroke-width="0.5" stroke="black" d="M 92 309 404 70"/>
<path stroke-width="0.5" stroke="black" d="M 92 309 71 129"/>
<path stroke-width="0.5" stroke="black" d="M 92 309 45 54"/>
<path stroke-width="4.4" stroke="black" d="M 71 129 274 178"/>
<path stroke-width="0.5" stroke="black" d="M 71 129 259 107"/>
<path stroke-width="8.3" stroke="black" d="M 253 36 274 178"/>
<path stroke-width="0.5" stroke="black" d="M 371 269 45 54"/>
<path stroke-width="0.5" stroke="black" d="M 371 269 71 129"/>
<path stroke-width="12.2" stroke="black" d="M 205 222 71 129"/>
<path stroke-width="0.5" stroke="black" d="M 205 222 45 54"/>
<path stroke-width="20.0" stroke="black" d="M 259 107 274 178"/>
<path stroke-width="0.5" stroke="black" d="M 259 107 205 222"/>
<path stroke-width="0.5" stroke="black" d="M 259 107 153 20"/>
<path stroke-width="0.5" stroke="black" d="M 259 107 244 320"/>
<path stroke-width="0.5" stroke="black" d="M 259 107 420 147"/>
<path stroke-width="0.5" stroke="black" d="M 259 107 371 269"/>
<path stroke-width="0.5" stroke="black" d="M 259 107 253 36"/>
<path stroke-width="0.5" stroke="black" d="M 259 107 20 175"/>
<path stroke-width="0.5" stroke="black" d="M 259 107 105 235"/>
<path stroke-width="0.5" stroke="black" d="M 259 107 404 70"/>
<path stroke-width="0.5" stroke="black" d="M 259 107 92 309"/>
<path stroke-width="0.5" stroke="black" d="M 259 107 71 129"/>
<path stroke-width="0.5" stroke="black" d="M 259 107 45 54"/>
<path stroke-width="8.3" stroke="black" d="M 153 20 274 178"/>
<path stroke-width="0.5" stroke="black" d="M 153 20 205 222"/>
<path stroke-width="0.5" stroke="black" d="M 153 20 259 107"/>
<path stroke-width="0.5" stroke="black" d="M 153 20 244 320"/>
<path stroke-width="0.5" stroke="black" d="M 205 222 92 309"/>
<path stroke-width="0.5" stroke="black" d="M 153 20 420 147"/>
<path stroke-width="0.5" stroke="black" d="M 205 222 404 70"/>
<path stroke-width="0.5" stroke="black" d="M 205 222 20 175"/>
<path stroke-width="20.0" stroke="black" d="M 274 178 259 107"/>
<path stroke-width="8.3" stroke="black" d="M 274 178 153 20"/>
<path stroke-width="8.3" stroke="black" d="M 274 178 244 320"/>
<path stroke-width="8.3" stroke="black" d="M 274 178 420 147"/>
<path stroke-width="8.3" stroke="black" d="M 274 178 371 269"/>
<path stroke-width="8.3" stroke="black" d="M 274 178 253 36"/>
<path stroke-width="8.3" stroke="black" d="M 274 178 20 175"/>
<path stroke-width="8.3" stroke="black" d="M 274 178 105 235"/>
<path stroke-width="8.3" stroke="black" d="M 274 178 404 70"/>
<path stroke-width="8.3" stroke="black" d="M 274 178 92 309"/>
<path stroke-width="4.4" stroke="black" d="M 274 178 71 129"/>
<path stroke-width="8.3" stroke="black" d="M 274 178 45 54"/>
<path stroke-width="8.3" stroke="black" d="M 205 222 274 178"/>
<path stroke-width="0.5" stroke="black" d="M 205 222 259 107"/>
<path stroke-width="0.5" stroke="black" d="M 205 222 153 20"/>
<path stroke-width="0.5" stroke="black" d="M 205 222 244 320"/>
<path stroke-width="0.5" stroke="black" d="M 205 222 420 147"/>
<path stroke-width="0.5" stroke="black" d="M 205 222 371 269"/>
<path stroke-width="0.5" stroke="black" d="M 205 222 253 36"/>
<path stroke-width="0.5" stroke="black" d="M 205 222 105 235"/>
<path stroke-width="0.5" stroke="black" d="M 45 54 92 309"/>
<path stroke-width="0.5" stroke="black" d="M 153 20 371 269"/>
<path stroke-width="0.5" stroke="black" d="M 153 20 20 175"/>
<path stroke-width="0.5" stroke="black" d="M 420 147 371 269"/>
<path stroke-width="0.5" stroke="black" d="M 420 147 253 36"/>
<path stroke-width="0.5" stroke="black" d="M 420 147 20 175"/>
<path stroke-width="0.5" stroke="black" d="M 420 147 105 235"/>
<path stroke-width="12.2" stroke="black" d="M 420 147 404 70"/>
<path stroke-width="0.5" stroke="black" d="M 420 147 92 309"/>
<path stroke-width="0.5" stroke="black" d="M 420 147 71 129"/>
<path stroke-width="0.5" stroke="black" d="M 420 147 45 54"/>
<path stroke-width="8.3" stroke="black" d="M 371 269 274 178"/>
<path stroke-width="0.5" stroke="black" d="M 371 269 205 222"/>
<path stroke-width="0.5" stroke="black" d="M 371 269 259 107"/>
<path stroke-width="0.5" stroke="black" d="M 371 269 153 20"/>
<path stroke-width="0.5" stroke="black" d="M 371 269 244 320"/>
<path stroke-width="0.5" stroke="black" d="M 371 269 420 147"/>
<path stroke-width="0.5" stroke="black" d="M 371 269 253 36"/>
<path stroke-width="0.5" stroke="black" d="M 371 269 20 175"/>
<path stroke-width="12.2" stroke="black" d="M 371 269 105 235"/>
<path stroke-width="0.5" stroke="black" d="M 371 269 404 70"/>
<path stroke-width="0.5" stroke="black" d="M 371 269 92 309"/>
<path stroke-width="0.5" stroke="black" d="M 420 147 244 320"/>
<path stroke-width="0.5" stroke="black" d="M 153 20 253 36"/>
<path stroke-width="0.5" stroke="black" d="M 420 147 153 20"/>
<path stroke-width="0.5" stroke="black" d="M 420 147 205 222"/>
<path stroke-width="0.5" stroke="black" d="M 153 20 105 235"/>
<path stroke-width="0.5" stroke="black" d="M 153 20 404 70"/>
<path stroke-width="0.5" stroke="black" d="M 153 20 92 309"/>
<path stroke-width="0.5" stroke="black" d="M 153 20 71 129"/>
<path stroke-width="12.2" stroke="black" d="M 153 20 45 54"/>
<path stroke-width="8.3" stroke="black" d="M 244 320 274 178"/>
<path stroke-width="0.5" stroke="black" d="M 244 320 205 222"/>
<path stroke-width="0.5" stroke="black" d="M 244 320 259 107"/>
<path stroke-width="0.5" stroke="black" d="M 244 320 153 20"/>
<path stroke-width="0.5" stroke="black" d="M 244 320 420 147"/>
<path stroke-width="0.5" stroke="black" d="M 244 320 371 269"/>
<path stroke-width="0.5" stroke="black" d="M 244 320 253 36"/>
<path stroke-width="0.5" stroke="black" d="M 244 320 20 175"/>
<path stroke-width="0.5" stroke="black" d="M 244 320 105 235"/>
<path stroke-width="0.5" stroke="black" d="M 244 320 404 70"/>
<path stroke-width="12.2" stroke="black" d="M 244 320 92 309"/>
<path stroke-width="0.5" stroke="black" d="M 244 320 71 129"/>
<path stroke-width="0.5" stroke="black" d="M 244 320 45 54"/>
<path stroke-width="8.3" stroke="black" d="M 420 147 274 178"/>
<path stroke-width="0.5" stroke="black" d="M 420 147 259 107"/>
<path stroke-width="0.5" stroke="black" d="M 45 54 71 129"/>
<circle cx="274" cy="178" r="7.0" style="fill:blue;stroke:black;stroke-width:1.0"/>
<circle cx="205" cy="222" r="7.0" style="fill:orange;stroke:black;stroke-width:1.0"/>
<circle cx="259" cy="107" r="7.0" style="fill:blue;stroke:black;stroke-width:1.0"/>
<circle cx="153" cy="20" r="7.0" style="fill:purple;stroke:black;stroke-width:1.0"/>
<circle cx="244" cy="320" r="7.0" style="fill:green;stroke:black;stroke-width:1.0"/>
<circle cx="420" cy="147" r="7.0" style="fill:red;stroke:black;stroke-width:1.0"/>
<circle cx="371" cy="269" r="7.0" style="fill:blue;stroke:black;stroke-width:1.0"/>
<circle cx="253" cy="36" r="7.0" style="fill:blue;stroke:black;stroke-width:1.0"/>
<circle cx="20" cy="175" r="7.0" style="fill:blue;stroke:black;stroke-width:1.0"/>
<circle cx="105" cy="235" r="7.0" style="fill:blue;stroke:black;stroke-width:1.0"/>
<circle cx="404" cy="70" r="7.0" style="fill:red;stroke:black;stroke-width:1.0"/>
<circle cx="92" cy="309" r="7.0" style="fill:green;stroke:black;stroke-width:1.0"/>
<circle cx="71" cy="129" r="7.0" style="fill:orange;stroke:black;stroke-width:1.0"/>
<circle cx="45" cy="54" r="7.0" style="fill:purple;stroke:black;stroke-width:1.0"/>
</svg>
