<svg width="440" height="340" xmlns="http://www.w3.org/2000/svg">
<path stroke-width="1" stroke="black" d="M 200 157 268 75"/>
<path stroke-width="1" stroke="black" d="M 343 83 327 228"/>
<path stroke-width="1" stroke="black" d="M 195 287 200 157"/>
<path stroke-width="1" stroke="black" d="M 195 287 268 75"/>
<path stroke-width="1" stroke="black" d="M 195 287 20 170"/>
<path stroke-width="1" stroke="black" d="M 195 287 418 137"/>
<path stroke-width="1" stroke="black" d="M 195 287 75 296"/>
<path stroke-width="1" stroke="black" d="M 195 287 367 301"/>
<path stroke-width="1" stroke="black" d="M 195 287 420 222"/>
<path stroke-width="1" stroke="black" d="M 343 83 196 20"/>
<path stroke-width="1" stroke="black" d="M 195 287 101 116"/>
<path stroke-width="1" stroke="black" d="M 195 287 118 228"/>
<path stroke-width="1" stroke="black" d="M 195 287 262 320"/>
<path stroke-width="1" stroke="black" d="M 195 287 196 20"/>
<path stroke-width="1" stroke="black" d="M 195 287 327 228"/>
<path stroke-width="1" stroke="black" d="M 118 228 200 157"/>
<path stroke-width="1" stroke="black" d="M 118 228 268 75"/>
<path stroke-width="1" stroke="black" d="M 118 228 20 170"/>
<path stroke-width="1" stroke="black" d="M 118 228 418 137"/>
<path stroke-width="1" stroke="black" d="M 195 287 343 83"/>
<path stroke-width="1" stroke="black" d="M 343 83 262 320"/>
<path stroke-width="1" stroke="black" d="M 343 83 118 228"/>
<path stroke-width="1" stroke="black" d="M 343 83 195 287"/>
<path stroke-width="1" stroke="black" d="M 101 116 20 170"/>
<path stroke-width="1" stroke="black" d="M 101 116 418 137"/>
<path stroke-width="1" stroke="black" d="M 101 116 75 296"/>
<path stroke-width="1" stroke="black" d="M 101 116 367 301"/>
<path stroke-width="1" stroke="black" d="M 101 116 420 222"/>
<path stroke-width="1" stroke="black" d="M 101 116 343 83"/>
<path stroke-width="1" stroke="black" d="M 101 116 195 287"/>
<path stroke-width="1" stroke="black" d="M 101 116 118 228"/>
<path stroke-width="1" stroke="black" d="M 101 116 262 320"/>
<path stroke-width="1" stroke="black" d="M 101 116 196 20"/>
<path stroke-width="1" stroke="black" d="M 101 116 327 228"/>
<path stroke-width="1" stroke="black" d="M 343 83 200 157"/>
<path stroke-width="1" stroke="black" d="M 343 83 268 75"/>
<path stroke-width="1" stroke="black" d="M 343 83 20 170"/>
<path stroke-width="1" stroke="black" d="M 343 83 418 137"/>
<path stroke-width="1" stroke="black" d="M 343 83 75 296"/>
<path stroke-width="1" stroke="black" d="M 343 83 367 301"/>
<path stroke-width="1" stroke="black" d="M 343 83 420 222"/>
<path stroke-width="1" stroke="black" d="M 343 83 101 116"/>
<path stroke-width="1" stroke="black" d="M 118 228 75 296"/>
<path stroke-width="1" stroke="black" d="M 118 228 367 301"/>
<path stroke-width="1" stroke="black" d="M 118 228 420 222"/>
<path stroke-width="1" stroke="black" d="M 118 228 101 116"/>
<path stroke-width="1" stroke="black" d="M 196 20 367 301"/>
<path stroke-width="1" stroke="black" d="M 196 20 420 222"/>
<path stroke-width="1" stroke="black" d="M 196 20 101 116"/>
<path stroke-width="1" stroke="black" d="M 196 20 343 83"/>
<path stroke-width="1" stroke="black" d="M 196 20 195 287"/>
<path stroke-width="1" stroke="black" d="M 196 20 118 228"/>
<path stroke-width="1" stroke="black" d="M 196 20 262 320"/>
<path stroke-width="1" stroke="black" d="M 196 20 327 228"/>
<path stroke-width="1" stroke="black" d="M 327 228 200 157"/>
<path stroke-width="1" stroke="black" d="M 327 228 268 75"/>
<path stroke-width="1" stroke="black" d="M 327 228 20 170"/>
<path stroke-width="1" stroke="black" d="M 327 228 418 137"/>
<path stroke-width="1" stroke="black" d="M 327 228 75 296"/>
<path stroke-width="1" stroke="black" d="M 327 228 367 301"/>
<path stroke-width="1" stroke="black" d="M 327 228 420 222"/>
<path stroke-width="1" stroke="black" d="M 327 228 101 116"/>
<path stroke-width="1" stroke="black" d="M 327 228 343 83"/>
<path stroke-width="1" stroke="black" d="M 327 228 195 287"/>
<path stroke-width="1" stroke="black" d="M 327 228 118 228"/>
<path stroke-width="1" stroke="black" d="M 196 20 75 296"/>
<path stroke-width="1" stroke="black" d="M 101 116 268 75"/>
<path stroke-width="1" stroke="black" d="M 196 20 418 137"/>
<path stroke-width="1" stroke="black" d="M 196 20 268 75"/>
<path stroke-width="1" stroke="black" d="M 118 228 343 83"/>
<path stroke-width="1" stroke="black" d="M 118 228 195 287"/>
<path stroke-width="1" stroke="black" d="M 118 228 262 320"/>
<path stroke-width="1" stroke="black" d="M 118 228 196 20"/>
<path stroke-width="1" stroke="black" d="M 118 228 327 228"/>
<path stroke-width="1" stroke="black" d="M 262 320 200 157"/>
<path stroke-width="1" stroke="black" d="M 262 320 268 75"/>
<path stroke-width="1" stroke="black" d="M 262 320 20 170"/>
<path stroke-width="1" stroke="black" d="M 262 320 418 137"/>
<path stroke-width="1" stroke="black" d="M 262 320 75 296"/>
<path stroke-width="1" stroke="black" d="M 262 320 367 301"/>
<path stroke-width="1" stroke="black" d="M 262 320 420 222"/>
<path stroke-width="1" stroke="black" d="M 262 320 101 116"/>
<path stroke-width="1" stroke="black" d="M 262 320 343 83"/>
<path stroke-width="1" stroke="black" d="M 262 320 195 287"/>
<path stroke-width="1" stroke="black" d="M 262 320 118 228"/>
<path stroke-width="1" stroke="black" d="M 262 320 196 20"/>
<path stroke-width="1" stroke="black" d="M 262 320 327 228"/>
<path stroke-width="1" stroke="black" d="M 196 20 200 157"/>
<path stroke-width="1" stroke="black" d="M 196 20 20 170"/>
<path stroke-width="1" stroke="black" d="M 101 116 200 157"/>
<path stroke-width="1" stroke="black" d="M 420 222 327 228"/>
<path stroke-width="1" stroke="black" d="M 420 222 196 20"/>
<path stroke-width="1" stroke="black" d="M 268 75 196 20"/>
<path stroke-width="1" stroke="black" d="M 268 75 327 228"/>
<path stroke-width="1" stroke="black" d="M 20 170 200 157"/>
<path stroke-width="1" stroke="black" d="M 20 170 268 75"/>
<path stroke-width="1" stroke="black" d="M 20 170 418 137"/>
<path stroke-width="1" stroke="black" d="M 20 170 75 296"/>
<path stroke-width="1" stroke="black" d="M 20 170 367 301"/>
<path stroke-width="1" stroke="black" d="M 20 170 420 222"/>
<path stroke-width="1" stroke="black" d="M 20 170 101 116"/>
<path stroke-width="1" stroke="black" d="M 20 170 343 83"/>
<path stroke-width="1" stroke="black" d="M 20 170 195 287"/>
<path stroke-width="1" stroke="black" d="M 20 170 118 228"/>
<path stroke-width="1" stroke="black" d="M 20 170 262 320"/>
<path stroke-width="1" stroke="black" d="M 20 170 196 20"/>
<path stroke-width="1" stroke="black" d="M 20 170 327 228"/>
<path stroke-width="1" stroke="black" d="M 418 137 200 157"/>
<path stroke-width="1" stroke="black" d="M 418 137 268 75"/>
<path stroke-width="1" stroke="black" d="M 418 137 20 170"/>
<path stroke-width="1" stroke="black" d="M 418 137 75 296"/>
<path stroke-width="1" stroke="black" d="M 268 75 262 320"/>
<path stroke-width="1" stroke="black" d="M 418 137 367 301"/>
<path stroke-width="1" stroke="black" d="M 268 75 118 228"/>
<path stroke-width="1" stroke="black" d="M 268 75 343 83"/>
<path stroke-width="1" stroke="black" d="M 200 157 20 170"/>
<path stroke-width="1" stroke="black" d="M 200 157 418 137"/>
<path stroke-width="1" stroke="black" d="M 200 157 75 296"/>
<path stroke-width="1" stroke="black" d="M 200 157 367 301"/>
<path stroke-width="1" stroke="black" d="M 200 157 420 222"/>
<path stroke-width="1" stroke="black" d="M 200 157 101 116"/>
<path stroke-width="1" stroke="black" d="M 200 157 343 83"/>
<path stroke-width="1" stroke="black" d="M 200 157 195 287"/>
<path stroke-width="1" stroke="black" d="M 200 157 118 228"/>
<path stroke-width="1" stroke="black" d="M 200 157 262 320"/>
<path stroke-width="1" stroke="black" d="M 200 157 196 20"/>
<path stroke-width="1" stroke="black" d="M 200 157 327 228"/>
<path stroke-width="1" stroke="black" d="M 268 75 200 157"/>
<path stroke-width="1" stroke="black" d="M 268 75 20 170"/>
<path stroke-width="1" stroke="black" d="M 268 75 418 137"/>
<path stroke-width="1" stroke="black" d="M 268 75 75 296"/>
<path stroke-width="1" stroke="black" d="M 268 75 367 301"/>
<path stroke-width="1" stroke="black" d="M 268 75 420 222"/>
<path stroke-width="1" stroke="black" d="M 268 75 101 116"/>
<path stroke-width="1" stroke="black" d="M 268 75 195 287"/>
<path stroke-width="1" stroke="black" d="M 327 228 262 320"/>
<path stroke-width="1" stroke="black" d="M 418 137 420 222"/>
<path stroke-width="1" stroke="black" d="M 418 137 343 83"/>
<path stroke-width="1" stroke="black" d="M 367 301 420 222"/>
<path stroke-width="1" stroke="black" d="M 367 301 101 116"/>
<path stroke-width="1" stroke="black" d="M 367 301 343 83"/>
<path stroke-width="1" stroke="black" d="M 367 301 195 287"/>
<path stroke-width="1" stroke="black" d="M 367 301 118 228"/>
<path stroke-width="1" stroke="black" d="M 367 301 262 320"/>
<path stroke-width="1" stroke="black" d="M 367 301 196 20"/>
<path stroke-width="1" stroke="black" d="M 367 301 327 228"/>
<path stroke-width="1" stroke="black" d="M 420 222 200 157"/>
<path stroke-width="1" stroke="black" d="M 420 222 268 75"/>
<path stroke-width="1" stroke="black" d="M 420 222 20 170"/>
<path stroke-width="1" stroke="black" d="M 420 222 418 137"/>
<path stroke-width="1" stroke="black" d="M 420 222 75 296"/>
<path stroke-width="1" stroke="black" d="M 420 222 367 301"/>
<path stroke-width="1" stroke="black" d="M 420 222 101 116"/>
<path stroke-width="1" stroke="black" d="M 420 222 343 83"/>
<path stroke-width="1" stroke="black" d="M 420 222 195 287"/>
<path stroke-width="1" stroke="black" d="M 420 222 118 228"/>
<path stroke-width="1" stroke="black" d="M 420 222 262 320"/>
<path stroke-width="1" stroke="black" d="M 367 301 75 296"/>
<path stroke-width="1" stroke="black" d="M 418 137 101 116"/>
<path stroke-width="1" stroke="black" d="M 367 301 418 137"/>
<path stroke-width="1" stroke="black" d="M 367 301 268 75"/>
<path stroke-width="1" stroke="black" d="M 418 137 195 287"/>
<path stroke-width="1" stroke="black" d="M 418 137 118 228"/>
<path stroke-width="1" stroke="black" d="M 418 137 262 320"/>
<path stroke-width="1" stroke="black" d="M 418 137 196 20"/>
<path stroke-width="1" stroke="black" d="M 418 137 327 228"/>
<path stroke-width="1" stroke="black" d="M 75 296 200 157"/>
<path stroke-width="1" stroke="black" d="M 75 296 268 75"/>
<path stroke-width="1" stroke="black" d="M 75 296 20 170"/>
<path stroke-width="1" stroke="black" d="M 75 296 418 137"/>
<path stroke-width="1" stroke="black" d="M 75 296 367 301"/>
<path stroke-width="1" stroke="black" d="M 75 296 420 222"/>
<path stroke-width="1" stroke="black" d="M 75 296 101 116"/>
<path stroke-width="1" stroke="black" d="M 75 296 343 83"/>
<path stroke-width="1" stroke="black" d="M 75 296 195 287"/>
<path stroke-width="1" stroke="black" d="M 75 296 118 228"/>
<path stroke-width="1" stroke="black" d="M 75 296 262 320"/>
<path stroke-width="1" stroke="black" d="M 75 296 196 20"/>
<path stroke-width="1" stroke="black" d="M 75 296 327 228"/>
<path stroke-width="1" stroke="black" d="M 367 301 200 157"/>
<path stroke-width="1" stroke="black" d="M 367 301 20 170"/>
<path stroke-width="1" stroke="black" d="M 327 228 196 20"/>
<circle cx="200" cy="157" r="7.0" style="fill:blue;stroke:black;stroke-width:1.0"/>
<circle cx="268" cy="75" r="7.0" style="fill:orange;stroke:black;stroke-width:1.0"/>
<circle cx="20" cy="170" r="7.0" style="fill:blue;stroke:black;stroke-width:1.0"/>
<circle cx="418" cy="137" r="7.0" style="fill:purple;stroke:black;stroke-width:1.0"/>
<circle cx="75" cy="296" r="7.0" style="fill:green;stroke:black;stroke-width:1.0"/>
<circle cx="367" cy="301" r="7.0" style="fill:red;stroke:black;stroke-width:1.0"/>
<circle cx="420" cy="222" r="7.0" style="fill:blue;stroke:black;stroke-width:1.0"/>
<circle cx="101" cy="116" r="7.0" style="fill:blue;stroke:black;stroke-width:1.0"/>
<circle cx="343" cy="83" r="7.0" style="fill:blue;stroke:black;stroke-width:1.0"/>
<circle cx="195" cy="287" r="7.0" style="fill:blue;stroke:black;stroke-width:1.0"/>
<circle cx="118" cy="228" r="7.0" style="fill:red;stroke:black;stroke-width:1.0"/>
<circle cx="262" cy="320" r="7.0" style="fill:green;stroke:black;stroke-width:1.0"/>
<circle cx="196" cy="20" r="7.0" style="fill:orange;stroke:black;stroke-width:1.0"/>
<circle cx="327" cy="228" r="7.0" style="fill:purple;stroke:black;stroke-width:1.0"/>
</svg>
