<svg width="440" height="340" xmlns="http://www.w3.org/2000/svg">
<path stroke-width="1" stroke="black" d="M 269 159 170 318"/>
<path stroke-width="1" stroke="black" d="M 301 100 186 20"/>
<path stroke-width="1" stroke="black" d="M 364 260 269 159"/>
<path stroke-width="1" stroke="black" d="M 364 260 170 318"/>
<path stroke-width="1" stroke="black" d="M 364 260 420 190"/>
<path stroke-width="1" stroke="black" d="M 364 260 64 67"/>
<path stroke-width="1" stroke="black" d="M 364 260 418 96"/>
<path stroke-width="1" stroke="black" d="M 364 260 20 216"/>
<path stroke-width="1" stroke="black" d="M 364 260 111 224"/>
<path stroke-width="1" stroke="black" d="M 301 100 289 320"/>
<path stroke-width="1" stroke="black" d="M 364 260 206 223"/>
<path stroke-width="1" stroke="black" d="M 364 260 119 112"/>
<path stroke-width="1" stroke="black" d="M 364 260 318 21"/>
<path stroke-width="1" stroke="black" d="M 364 260 289 320"/>
<path stroke-width="1" stroke="black" d="M 364 260 186 20"/>
<path stroke-width="1" stroke="black" d="M 119 112 269 159"/>
<path stroke-width="1" stroke="black" d="M 119 112 170 318"/>
<path stroke-width="1" stroke="black" d="M 119 112 420 190"/>
<path stroke-width="1" stroke="black" d="M 119 112 64 67"/>
<path stroke-width="1" stroke="black" d="M 364 260 301 100"/>
<path stroke-width="1" stroke="black" d="M 301 100 318 21"/>
<path stroke-width="1" stroke="black" d="M 301 100 119 112"/>
<path stroke-width="1" stroke="black" d="M 301 100 364 260"/>
<path stroke-width="1" stroke="black" d="M 206 223 420 190"/>
<path stroke-width="1" stroke="black" d="M 206 223 64 67"/>
<path stroke-width="1" stroke="black" d="M 206 223 418 96"/>
<path stroke-width="1" stroke="black" d="M 206 223 20 216"/>
<path stroke-width="1" stroke="black" d="M 206 223 111 224"/>
<path stroke-width="1" stroke="black" d="M 206 223 301 100"/>
<path stroke-width="1" stroke="black" d="M 206 223 364 260"/>
<path stroke-width="1" stroke="black" d="M 206 223 119 112"/>
<path stroke-width="1" stroke="black" d="M 206 223 318 21"/>
<path stroke-width="1" stroke="black" d="M 206 223 289 320"/>
<path stroke-width="1" stroke="black" d="M 206 223 186 20"/>
<path stroke-width="1" stroke="black" d="M 301 100 269 159"/>
<path stroke-width="1" stroke="black" d="M 301 100 170 318"/>
<path stroke-width="1" stroke="black" d="M 301 100 420 190"/>
<path stroke-width="1" stroke="black" d="M 301 100 64 67"/>
<path stroke-width="1" stroke="black" d="M 301 100 418 96"/>
<path stroke-width="1" stroke="black" d="M 301 100 20 216"/>
<path stroke-width="1" stroke="black" d="M 301 100 111 224"/>
<path stroke-width="1" stroke="black" d="M 301 100 206 223"/>
<path stroke-width="1" stroke="black" d="M 119 112 418 96"/>
<path stroke-width="1" stroke="black" d="M 119 112 20 216"/>
<path stroke-width="1" stroke="black" d="M 119 112 111 224"/>
<path stroke-width="1" stroke="black" d="M 119 112 206 223"/>
<path stroke-width="1" stroke="black" d="M 289 320 20 216"/>
<path stroke-width="1" stroke="black" d="M 289 320 111 224"/>
<path stroke-width="1" stroke="black" d="M 289 320 206 223"/>
<path stroke-width="1" stroke="black" d="M 289 320 301 100"/>
<path stroke-width="1" stroke="black" d="M 289 320 364 260"/>
<path stroke-width="1" stroke="black" d="M 289 320 119 112"/>
<path stroke-width="1" stroke="black" d="M 289 320 318 21"/>
<path stroke-width="1" stroke="black" d="M 289 320 186 20"/>
<path stroke-width="1" stroke="black" d="M 186 20 269 159"/>
<path stroke-width="1" stroke="black" d="M 186 20 170 318"/>
<path stroke-width="1" stroke="black" d="M 186 20 420 190"/>
<path stroke-width="1" stroke="black" d="M 186 20 64 67"/>
<path stroke-width="1" stroke="black" d="M 186 20 418 96"/>
<path stroke-width="1" stroke="black" d="M 186 20 20 216"/>
<path stroke-width="1" stroke="black" d="M 186 20 111 224"/>
<path stroke-width="1" stroke="black" d="M 186 20 206 223"/>
<path stroke-width="1" stroke="black" d="M 186 20 301 100"/>
<path stroke-width="1" stroke="black" d="M 186 20 364 260"/>
<path stroke-width="1" stroke="black" d="M 186 20 119 112"/>
<path stroke-width="1" stroke="black" d="M 289 320 418 96"/>
<path stroke-width="1" stroke="black" d="M 206 223 170 318"/>
<path stroke-width="1" stroke="black" d="M 289 320 64 67"/>
<path stroke-width="1" stroke="black" d="M 289 320 170 318"/>
<path stroke-width="1" stroke="black" d="M 119 112 301 100"/>
<path stroke-width="1" stroke="black" d="M 119 112 364 260"/>
<path stroke-width="1" stroke="black" d="M 119 112 318 21"/>
<path stroke-width="1" stroke="black" d="M 119 112 289 320"/>
<path stroke-width="1" stroke="black" d="M 119 112 186 20"/>
<path stroke-width="1" stroke="black" d="M 318 21 269 159"/>
<path stroke-width="1" stroke="black" d="M 318 21 170 318"/>
<path stroke-width="1" stroke="black" d="M 318 21 420 190"/>
<path stroke-width="1" stroke="black" d="M 318 21 64 67"/>
<path stroke-width="1" stroke="black" d="M 318 21 418 96"/>
<path stroke-width="1" stroke="black" d="M 318 21 20 216"/>
<path stroke-width="1" stroke="black" d="M 318 21 111 224"/>
<path stroke-width="1" stroke="black" d="M 318 21 206 223"/>
<path stroke-width="1" stroke="black" d="M 318 21 301 100"/>
<path stroke-width="1" stroke="black" d="M 318 21 364 260"/>
<path stroke-width="1" stroke="black" d="M 318 21 119 112"/>
<path stroke-width="1" stroke="black" d="M 318 21 289 320"/>
<path stroke-width="1" stroke="black" d="M 318 21 186 20"/>
<path stroke-width="1" stroke="black" d="M 289 320 269 159"/>
<path stroke-width="1" stroke="black" d="M 289 320 420 190"/>
<path stroke-width="1" stroke="black" d="M 206 223 269 159"/>
<path stroke-width="1" stroke="black" d="M 111 224 186 20"/>
<path stroke-width="1" stroke="black" d="M 111 224 289 320"/>
<path stroke-width="1" stroke="black" d="M 170 318 289 320"/>
<path stroke-width="1" stroke="black" d="M 170 318 186 20"/>
<path stroke-width="1" stroke="black" d="M 420 190 269 159"/>
<path stroke-width="1" stroke="black" d="M 420 190 170 318"/>
<path stroke-width="1" stroke="black" d="M 420 190 64 67"/>
<path stroke-width="1" stroke="black" d="M 420 190 418 96"/>
<path stroke-width="1" stroke="black" d="M 420 190 20 216"/>
<path stroke-width="1" stroke="black" d="M 420 190 111 224"/>
<path stroke-width="1" stroke="black" d="M 420 190 206 223"/>
<path stroke-width="1" stroke="black" d="M 420 190 301 100"/>
<path stroke-width="1" stroke="black" d="M 420 190 364 260"/>
<path stroke-width="1" stroke="black" d="M 420 190 119 112"/>
<path stroke-width="1" stroke="black" d="M 420 190 318 21"/>
<path stroke-width="1" stroke="black" d="M 420 190 289 320"/>
<path stroke-width="1" stroke="black" d="M 420 190 186 20"/>
<path stroke-width="1" stroke="black" d="M 64 67 269 159"/>
<path stroke-width="1" stroke="black" d="M 64 67 170 318"/>
<path stroke-width="1" stroke="black" d="M 64 67 420 190"/>
<path stroke-width="1" stroke="black" d="M 64 67 418 96"/>
<path stroke-width="1" stroke="black" d="M 170 318 318 21"/>
<path stroke-width="1" stroke="black" d="M 64 67 20 216"/>
<path stroke-width="1" stroke="black" d="M 170 318 119 112"/>
<path stroke-width="1" stroke="black" d="M 170 318 301 100"/>
<path stroke-width="1" stroke="black" d="M 269 159 420 190"/>
<path stroke-width="1" stroke="black" d="M 269 159 64 67"/>
<path stroke-width="1" stroke="black" d="M 269 159 418 96"/>
<path stroke-width="1" stroke="black" d="M 269 159 20 216"/>
<path stroke-width="1" stroke="black" d="M 269 159 111 224"/>
<path stroke-width="1" stroke="black" d="M 269 159 206 223"/>
<path stroke-width="1" stroke="black" d="M 269 159 301 100"/>
<path stroke-width="1" stroke="black" d="M 269 159 364 260"/>
<path stroke-width="1" stroke="black" d="M 269 159 119 112"/>
<path stroke-width="1" stroke="black" d="M 269 159 318 21"/>
<path stroke-width="1" stroke="black" d="M 269 159 289 320"/>
<path stroke-width="1" stroke="black" d="M 269 159 186 20"/>
<path stroke-width="1" stroke="black" d="M 170 318 269 159"/>
<path stroke-width="1" stroke="black" d="M 170 318 420 190"/>
<path stroke-width="1" stroke="black" d="M 170 318 64 67"/>
<path stroke-width="1" stroke="black" d="M 170 318 418 96"/>
<path stroke-width="1" stroke="black" d="M 170 318 20 216"/>
<path stroke-width="1" stroke="black" d="M 170 318 111 224"/>
<path stroke-width="1" stroke="black" d="M 170 318 206 223"/>
<path stroke-width="1" stroke="black" d="M 170 318 364 260"/>
<path stroke-width="1" stroke="black" d="M 186 20 318 21"/>
<path stroke-width="1" stroke="black" d="M 64 67 111 224"/>
<path stroke-width="1" stroke="black" d="M 64 67 301 100"/>
<path stroke-width="1" stroke="black" d="M 20 216 111 224"/>
<path stroke-width="1" stroke="black" d="M 20 216 206 223"/>
<path stroke-width="1" stroke="black" d="M 20 216 301 100"/>
<path stroke-width="1" stroke="black" d="M 20 216 364 260"/>
<path stroke-width="1" stroke="black" d="M 20 216 119 112"/>
<path stroke-width="1" stroke="black" d="M 20 216 318 21"/>
<path stroke-width="1" stroke="black" d="M 20 216 289 320"/>
<path stroke-width="1" stroke="black" d="M 20 216 186 20"/>
<path stroke-width="1" stroke="black" d="M 111 224 269 159"/>
<path stroke-width="1" stroke="black" d="M 111 224 170 318"/>
<path stroke-width="1" stroke="black" d="M 111 224 420 190"/>
<path stroke-width="1" stroke="black" d="M 111 224 64 67"/>
<path stroke-width="1" stroke="black" d="M 111 224 418 96"/>
<path stroke-width="1" stroke="black" d="M 111 224 20 216"/>
<path stroke-width="1" stroke="black" d="M 111 224 206 223"/>
<path stroke-width="1" stroke="black" d="M 111 224 301 100"/>
<path stroke-width="1" stroke="black" d="M 111 224 364 260"/>
<path stroke-width="1" stroke="black" d="M 111 224 119 112"/>
<path stroke-width="1" stroke="black" d="M 111 224 318 21"/>
<path stroke-width="1" stroke="black" d="M 20 216 418 96"/>
<path stroke-width="1" stroke="black" d="M 64 67 206 223"/>
<path stroke-width="1" stroke="black" d="M 20 216 64 67"/>
<path stroke-width="1" stroke="black" d="M 20 216 170 318"/>
<path stroke-width="1" stroke="black" d="M 64 67 364 260"/>
<path stroke-width="1" stroke="black" d="M 64 67 119 112"/>
<path stroke-width="1" stroke="black" d="M 64 67 318 21"/>
<path stroke-width="1" stroke="black" d="M 64 67 289 320"/>
<path stroke-width="1" stroke="black" d="M 64 67 186 20"/>
<path stroke-width="1" stroke="black" d="M 418 96 269 159"/>
<path stroke-width="1" stroke="black" d="M 418 96 170 318"/>
<path stroke-width="1" stroke="black" d="M 418 96 420 190"/>
<path stroke-width="1" stroke="black" d="M 418 96 64 67"/>
<path stroke-width="1" stroke="black" d="M 418 96 20 216"/>
<path stroke-width="1" stroke="black" d="M 418 96 111 224"/>
<path stroke-width="1" stroke="black" d="M 418 96 206 223"/>
<path stroke-width="1" stroke="black" d="M 418 96 301 100"/>
<path stroke-width="1" stroke="black" d="M 418 96 364 260"/>
<path stroke-width="1" stroke="black" d="M 418 96 119 112"/>
<path stroke-width="1" stroke="black" d="M 418 96 318 21"/>
<path stroke-width="1" stroke="black" d="M 418 96 289 320"/>
<path stroke-width="1" stroke="black" d="M 418 96 186 20"/>
<path stroke-width="1" stroke="black" d="M 20 216 269 159"/>
<path stroke-width="1" stroke="black" d="M 20 216 420 190"/>
<path stroke-width="1" stroke="black" d="M 186 20 289 320"/>
<circle cx="269" cy="159" r="7.0" style="fill:gray;stroke:black;stroke-width:1.0"/>
<circle cx="170" cy="318" r="7.0" style="fill:gray;stroke:black;stroke-width:1.0"/>
<circle cx="420" cy="190" r="7.0" style="fill:gray;stroke:black;stroke-width:1.0"/>
<circle cx="64" cy="67" r="7.0" style="fill:gray;stroke:black;stroke-width:1.0"/>
<circle cx="418" cy="96" r="7.0" style="fill:gray;stroke:black;stroke-width:1.0"/>
<circle cx="20" cy="216" r="7.0" style="fill:gray;stroke:black;stroke-width:1.0"/>
<circle cx="111" cy="224" r="7.0" style="fill:gray;stroke:black;stroke-width:1.0"/>
<circle cx="206" cy="223" r="7.0" style="fill:gray;stroke:black;stroke-width:1.0"/>
<circle cx="301" cy="100" r="7.0" style="fill:gray;stroke:black;stroke-width:1.0"/>
<circle cx="364" cy="260" r="7.0" style="fill:gray;stroke:black;stroke-width:1.0"/>
<circle cx="119" cy="112" r="7.0" style="fill:gray;stroke:black;stroke-width:1.0"/>
<circle cx="318" cy="21" r="7.0" style="fill:gray;stroke:black;stroke-width:1.0"/>
<circle cx="289" cy="320" r="7.0" style="fill:gray;stroke:black;stroke-width:1.0"/>
<circle cx="186" cy="20" r="7.0" style="fill:gray;stroke:black;stroke-width:1.0"/>
</svg>
