<svg width="440" height="340" xmlns="http://www.w3.org/2000/svg">
<path stroke-width="8.3" stroke="black" d="M 211 127 255 320"/>
<path stroke-width="0.5" stroke="black" d="M 148 191 20 248"/>
<path stroke-width="8.3" stroke="black" d="M 370 103 211 127"/>
<path stroke-width="0.5" stroke="black" d="M 370 103 255 320"/>
<path stroke-width="0.5" stroke="black" d="M 370 103 210 243"/>
<path stroke-width="0.5" stroke="black" d="M 370 103 31 112"/>
<path stroke-width="0.5" stroke="black" d="M 370 103 252 20"/>
<path stroke-width="0.5" stroke="black" d="M 370 103 60 49"/>
<path stroke-width="12.2" stroke="black" d="M 370 103 330 256"/>
<path stroke-width="0.5" stroke="black" d="M 148 191 420 179"/>
<path stroke-width="0.5" stroke="black" d="M 370 103 154 302"/>
<path stroke-width="0.5" stroke="black" d="M 370 103 190 52"/>
<path stroke-width="0.5" stroke="black" d="M 370 103 324 48"/>
<path stroke-width="0.5" stroke="black" d="M 370 103 420 179"/>
<path stroke-width="0.5" stroke="black" d="M 370 103 20 248"/>
<path stroke-width="8.3" stroke="black" d="M 190 52 211 127"/>
<path stroke-width="0.5" stroke="black" d="M 190 52 255 320"/>
<path stroke-width="0.5" stroke="black" d="M 190 52 210 243"/>
<path stroke-width="0.5" stroke="black" d="M 190 52 31 112"/>
<path stroke-width="0.5" stroke="black" d="M 370 103 148 191"/>
<path stroke-width="0.5" stroke="black" d="M 148 191 324 48"/>
<path stroke-width="0.5" stroke="black" d="M 148 191 190 52"/>
<path stroke-width="0.5" stroke="black" d="M 148 191 370 103"/>
<path stroke-width="0.5" stroke="black" d="M 154 302 210 243"/>
<path stroke-width="0.5" stroke="black" d="M 154 302 31 112"/>
<path stroke-width="0.5" stroke="black" d="M 154 302 252 20"/>
<path stroke-width="0.5" stroke="black" d="M 154 302 60 49"/>
<path stroke-width="0.5" stroke="black" d="M 154 302 330 256"/>
<path stroke-width="12.2" stroke="black" d="M 154 302 148 191"/>
<path stroke-width="0.5" stroke="black" d="M 154 302 370 103"/>
<path stroke-width="0.5" stroke="black" d="M 154 302 190 52"/>
<path stroke-width="0.5" stroke="black" d="M 154 302 324 48"/>
<path stroke-width="0.5" stroke="black" d="M 154 302 420 179"/>
<path stroke-width="0.5" stroke="black" d="M 154 302 20 248"/>
<path stroke-width="8.3" stroke="black" d="M 148 191 211 127"/>
<path stroke-width="0.5" stroke="black" d="M 148 191 255 320"/>
<path stroke-width="0.5" stroke="black" d="M 148 191 210 243"/>
<path stroke-width="0.5" stroke="black" d="M 148 191 31 112"/>
<path stroke-width="0.5" stroke="black" d="M 148 191 252 20"/>
<path stroke-width="0.5" stroke="black" d="M 148 191 60 49"/>
<path stroke-width="0.5" stroke="black" d="M 148 191 330 256"/>
<path stroke-width="12.2" stroke="black" d="M 148 191 154 302"/>
<path stroke-width="0.5" stroke="black" d="M 190 52 252 20"/>
<path stroke-width="12.2" stroke="black" d="M 190 52 60 49"/>
<path stroke-width="0.5" stroke="black" d="M 190 52 330 256"/>
<path stroke-width="0.5" stroke="black" d="M 190 52 154 302"/>
<path stroke-width="0.5" stroke="black" d="M 420 179 60 49"/>
<path stroke-width="0.5" stroke="black" d="M 420 179 330 256"/>
<path stroke-width="0.5" stroke="black" d="M 420 179 154 302"/>
<path stroke-width="0.5" stroke="black" d="M 420 179 148 191"/>
<path stroke-width="0.5" stroke="black" d="M 420 179 370 103"/>
<path stroke-width="0.5" stroke="black" d="M 420 179 190 52"/>
<path stroke-width="0.5" stroke="black" d="M 420 179 324 48"/>
<path stroke-width="0.5" stroke="black" d="M 420 179 20 248"/>
<path stroke-width="8.3" stroke="black" d="M 20 248 211 127"/>
<path stroke-width="0.5" stroke="black" d="M 20 248 255 320"/>
<path stroke-width="0.5" stroke="black" d="M 20 248 210 243"/>
<path stroke-width="12.2" stroke="black" d="M 20 248 31 112"/>
<path stroke-width="0.5" stroke="black" d="M 20 248 252 20"/>
<path stroke-width="0.5" stroke="black" d="M 20 248 60 49"/>
<path stroke-width="0.5" stroke="black" d="M 20 248 330 256"/>
<path stroke-width="0.5" stroke="black" d="M 20 248 154 302"/>
<path stroke-width="0.5" stroke="black" d="M 20 248 148 191"/>
<path stroke-width="0.5" stroke="black" d="M 20 248 370 103"/>
<path stroke-width="0.5" stroke="black" d="M 20 248 190 52"/>
<path stroke-width="0.5" stroke="black" d="M 420 179 252 20"/>
<path stroke-width="0.5" stroke="black" d="M 154 302 255 320"/>
<path stroke-width="0.5" stroke="black" d="M 420 179 31 112"/>
<path stroke-width="12.2" stroke="black" d="M 420 179 255 320"/>
<path stroke-width="0.5" stroke="black" d="M 190 52 148 191"/>
<path stroke-width="0.5" stroke="black" d="M 190 52 370 103"/>
<path stroke-width="0.5" stroke="black" d="M 190 52 324 48"/>
<path stroke-width="0.5" stroke="black" d="M 190 52 420 179"/>
<path stroke-width="0.5" stroke="black" d="M 190 52 20 248"/>
<path stroke-width="8.3" stroke="black" d="M 324 48 211 127"/>
<path stroke-width="0.5" stroke="black" d="M 324 48 255 320"/>
<path stroke-width="0.5" stroke="black" d="M 324 48 210 243"/>
<path stroke-width="0.5" stroke="black" d="M 324 48 31 112"/>
<path stroke-width="12.2" stroke="black" d="M 324 48 252 20"/>
<path stroke-width="0.5" stroke="black" d="M 324 48 60 49"/>
<path stroke-width="0.5" stroke="black" d="M 324 48 330 256"/>
<path stroke-width="0.5" stroke="black" d="M 324 48 154 302"/>
<path stroke-width="0.5" stroke="black" d="M 324 48 148 191"/>
<path stroke-width="0.5" stroke="black" d="M 324 48 370 103"/>
<path stroke-width="0.5" stroke="black" d="M 324 48 190 52"/>
<path stroke-width="0.5" stroke="black" d="M 324 48 420 179"/>
<path stroke-width="0.5" stroke="black" d="M 324 48 20 248"/>
<path stroke-width="4.4" stroke="black" d="M 420 179 211 127"/>
<path stroke-width="0.5" stroke="black" d="M 420 179 210 243"/>
<path stroke-width="8.3" stroke="black" d="M 154 302 211 127"/>
<path stroke-width="0.5" stroke="black" d="M 330 256 20 248"/>
<path stroke-width="0.5" stroke="black" d="M 330 256 420 179"/>
<path stroke-width="12.2" stroke="black" d="M 255 320 420 179"/>
<path stroke-width="0.5" stroke="black" d="M 255 320 20 248"/>
<path stroke-width="20.0" stroke="black" d="M 210 243 211 127"/>
<path stroke-width="0.5" stroke="black" d="M 210 243 255 320"/>
<path stroke-width="0.5" stroke="black" d="M 210 243 31 112"/>
<path stroke-width="0.5" stroke="black" d="M 210 243 252 20"/>
<path stroke-width="0.5" stroke="black" d="M 210 243 60 49"/>
<path stroke-width="0.5" stroke="black" d="M 210 243 330 256"/>
<path stroke-width="0.5" stroke="black" d="M 210 243 154 302"/>
<path stroke-width="0.5" stroke="black" d="M 210 243 148 191"/>
<path stroke-width="0.5" stroke="black" d="M 210 243 370 103"/>
<path stroke-width="0.5" stroke="black" d="M 210 243 190 52"/>
<path stroke-width="0.5" stroke="black" d="M 210 243 324 48"/>
<path stroke-width="0.5" stroke="black" d="M 210 243 420 179"/>
<path stroke-width="0.5" stroke="black" d="M 210 243 20 248"/>
<path stroke-width="8.3" stroke="black" d="M 31 112 211 127"/>
<path stroke-width="0.5" stroke="black" d="M 31 112 255 320"/>
<path stroke-width="0.5" stroke="black" d="M 31 112 210 243"/>
<path stroke-width="0.5" stroke="black" d="M 31 112 252 20"/>
<path stroke-width="0.5" stroke="black" d="M 255 320 324 48"/>
<path stroke-width="0.5" stroke="black" d="M 31 112 60 49"/>
<path stroke-width="0.5" stroke="black" d="M 255 320 190 52"/>
<path stroke-width="0.5" stroke="black" d="M 255 320 148 191"/>
<path stroke-width="20.0" stroke="black" d="M 211 127 210 243"/>
<path stroke-width="8.3" stroke="black" d="M 211 127 31 112"/>
<path stroke-width="8.3" stroke="black" d="M 211 127 252 20"/>
<path stroke-width="8.3" stroke="black" d="M 211 127 60 49"/>
<path stroke-width="8.3" stroke="black" d="M 211 127 330 256"/>
<path stroke-width="8.3" stroke="black" d="M 211 127 154 302"/>
<path stroke-width="8.3" stroke="black" d="M 211 127 148 191"/>
<path stroke-width="8.3" stroke="black" d="M 211 127 370 103"/>
<path stroke-width="8.3" stroke="black" d="M 211 127 190 52"/>
<path stroke-width="8.3" stroke="black" d="M 211 127 324 48"/>
<path stroke-width="4.4" stroke="black" d="M 211 127 420 179"/>
<path stroke-width="8.3" stroke="black" d="M 211 127 20 248"/>
<path stroke-width="8.3" stroke="black" d="M 255 320 211 127"/>
<path stroke-width="0.5" stroke="black" d="M 255 320 210 243"/>
<path stroke-width="0.5" stroke="black" d="M 255 320 31 112"/>
<path stroke-width="0.5" stroke="black" d="M 255 320 252 20"/>
<path stroke-width="0.5" stroke="black" d="M 255 320 60 49"/>
<path stroke-width="0.5" stroke="black" d="M 255 320 330 256"/>
<path stroke-width="0.5" stroke="black" d="M 255 320 154 302"/>
<path stroke-width="0.5" stroke="black" d="M 255 320 370 103"/>
<path stroke-width="0.5" stroke="black" d="M 20 248 324 48"/>
<path stroke-width="0.5" stroke="black" d="M 31 112 330 256"/>
<path stroke-width="0.5" stroke="black" d="M 31 112 148 191"/>
<path stroke-width="0.5" stroke="black" d="M 60 49 330 256"/>
<path stroke-width="0.5" stroke="black" d="M 60 49 154 302"/>
<path stroke-width="0.5" stroke="black" d="M 60 49 148 191"/>
<path stroke-width="0.5" stroke="black" d="M 60 49 370 103"/>
<path stroke-width="12.2" stroke="black" d="M 60 49 190 52"/>
<path stroke-width="0.5" stroke="black" d="M 60 49 324 48"/>
<path stroke-width="0.5" stroke="black" d="M 60 49 420 179"/>
<path stroke-width="0.5" stroke="black" d="M 60 49 20 248"/>
<path stroke-width="8.3" stroke="black" d="M 330 256 211 127"/>
<path stroke-width="0.5" stroke="black" d="M 330 256 255 320"/>
<path stroke-width="0.5" stroke="black" d="M 330 256 210 243"/>
<path stroke-width="0.5" stroke="black" d="M 330 256 31 112"/>
<path stroke-width="0.5" stroke="black" d="M 330 256 252 20"/>
<path stroke-width="0.5" stroke="black" d="M 330 256 60 49"/>
<path stroke-width="0.5" stroke="black" d="M 330 256 154 302"/>
<path stroke-width="0.5" stroke="black" d="M 330 256 148 191"/>
<path stroke-width="12.2" stroke="black" d="M 330 256 370 103"/>
<path stroke-width="0.5" stroke="black" d="M 330 256 190 52"/>
<path stroke-width="0.5" stroke="black" d="M 330 256 324 48"/>
<path stroke-width="0.5" stroke="black" d="M 60 49 252 20"/>
<path stroke-width="0.5" stroke="black" d="M 31 112 154 302"/>
<path stroke-width="0.5" stroke="black" d="M 60 49 31 112"/>
<path stroke-width="0.5" stroke="black" d="M 60 49 255 320"/>
<path stroke-width="0.5" stroke="black" d="M 31 112 370 103"/>
<path stroke-width="0.5" stroke="black" d="M 31 112 190 52"/>
<path stroke-width="0.5" stroke="black" d="M 31 112 324 48"/>
<path stroke-width="0.5" stroke="black" d="M 31 112 420 179"/>
<path stroke-width="12.2" stroke="black" d="M 31 112 20 248"/>
<path stroke-width="8.3" stroke="black" d="M 252 20 211 127"/>
<path stroke-width="0.5" stroke="black" d="M 252 20 255 320"/>
<path stroke-width="0.5" stroke="black" d="M 252 20 210 243"/>
<path stroke-width="0.5" stroke="black" d="M 252 20 31 112"/>
<path stroke-width="0.5" stroke="black" d="M 252 20 60 49"/>
<path stroke-width="0.5" stroke="black" d="M 252 20 330 256"/>
<path stroke-width="0.5" stroke="black" d="M 252 20 154 302"/>
<path stroke-width="0.5" stroke="black" d="M 252 20 148 191"/>
<path stroke-width="0.5" stroke="black" d="M 252 20 370 103"/>
<path stroke-width="0.5" stroke="black" d="M 252 20 190 52"/>
<path stroke-width="12.2" stroke="black" d="M 252 20 324 48"/>
<path stroke-width="0.5" stroke="black" d="M 252 20 420 179"/>
<path stroke-width="0.5" stroke="black" d="M 252 20 20 248"/>
<path stroke-width="8.3" stroke="black" d="M 60 49 211 127"/>
<path stroke-width="0.5" stroke="black" d="M 60 49 210 243"/>
<path stroke-width="0.5" stroke="black" d="M 20 248 420 179"/>
<circle cx="211" cy="127" r="20.0" style="fill:gray;stroke:black;stroke-width:1.0"/>
<circle cx="255" cy="320" r="20.0" style="fill:gray;stroke:black;stroke-width:1.0"/>
<circle cx="210" cy="243" r="20.0" style="fill:gray;stroke:black;stroke-width:1.0"/>
<circle cx="31" cy="112" r="20.0" style="fill:gray;stroke:black;stroke-width:1.0"/>
<circle cx="252" cy="20" r="20.0" style="fill:gray;stroke:black;stroke-width:1.0"/>
<circle cx="60" cy="49" r="20.0" style="fill:gray;stroke:black;stroke-width:1.0"/>
<circle cx="330" cy="256" r="20.0" style="fill:gray;stroke:black;stroke-width:1.0"/>
<circle cx="154" cy="302" r="20.0" style="fill:gray;stroke:black;stroke-width:1.0"/>
<circle cx="148" cy="191" r="20.0" style="fill:gray;stroke:black;stroke-width:1.0"/>
<circle cx="370" cy="103" r="20.0" style="fill:gray;stroke:black;stroke-width:1.0"/>
<circle cx="190" cy="52" r="20.0" style="fill:gray;stroke:black;stroke-width:1.0"/>
<circle cx="324" cy="48" r="20.0" style="fill:gray;stroke:black;stroke-width:1.0"/>
<circle cx="420" cy="179" r="20.0" style="fill:gray;stroke:black;stroke-width:1.0"/>
<circle cx="20" cy="248" r="20.0" style="fill:gray;stroke:black;stroke-width:1.0"/>
</svg>
