<svg width="440" height="340" xmlns="http://www.w3.org/2000/svg">
<path stroke-width="1" stroke="black" d="M 220 172 89 268"/>
<path stroke-width="1" stroke="black" d="M 329 122 303 34"/>
<path stroke-width="1" stroke="black" d="M 203 20 220 172"/>
<path stroke-width="1" stroke="black" d="M 203 20 89 268"/>
<path stroke-width="1" stroke="black" d="M 203 20 420 146"/>
<path stroke-width="1" stroke="black" d="M 203 20 168 103"/>
<path stroke-width="1" stroke="black" d="M 203 20 307 301"/>
<path stroke-width="1" stroke="black" d="M 203 20 20 128"/>
<path stroke-width="1" stroke="black" d="M 203 20 101 46"/>
<path stroke-width="1" stroke="black" d="M 329 122 164 320"/>
<path stroke-width="1" stroke="black" d="M 203 20 388 212"/>
<path stroke-width="1" stroke="black" d="M 203 20 28 203"/>
<path stroke-width="1" stroke="black" d="M 203 20 229 260"/>
<path stroke-width="1" stroke="black" d="M 203 20 164 320"/>
<path stroke-width="1" stroke="black" d="M 203 20 303 34"/>
<path stroke-width="1" stroke="black" d="M 28 203 220 172"/>
<path stroke-width="1" stroke="black" d="M 28 203 89 268"/>
<path stroke-width="1" stroke="black" d="M 28 203 420 146"/>
<path stroke-width="1" stroke="black" d="M 28 203 168 103"/>
<path stroke-width="1" stroke="black" d="M 203 20 329 122"/>
<path stroke-width="1" stroke="black" d="M 329 122 229 260"/>
<path stroke-width="1" stroke="black" d="M 329 122 28 203"/>
<path stroke-width="1" stroke="black" d="M 329 122 203 20"/>
<path stroke-width="1" stroke="black" d="M 388 212 420 146"/>
<path stroke-width="1" stroke="black" d="M 388 212 168 103"/>
<path stroke-width="1" stroke="black" d="M 388 212 307 301"/>
<path stroke-width="1" stroke="black" d="M 388 212 20 128"/>
<path stroke-width="1" stroke="black" d="M 388 212 101 46"/>
<path stroke-width="1" stroke="black" d="M 388 212 329 122"/>
<path stroke-width="1" stroke="black" d="M 388 212 203 20"/>
<path stroke-width="1" stroke="black" d="M 388 212 28 203"/>
<path stroke-width="1" stroke="black" d="M 388 212 229 260"/>
<path stroke-width="1" stroke="black" d="M 388 212 164 320"/>
<path stroke-width="1" stroke="black" d="M 388 212 303 34"/>
<path stroke-width="1" stroke="black" d="M 329 122 220 172"/>
<path stroke-width="1" stroke="black" d="M 329 122 89 268"/>
<path stroke-width="1" stroke="black" d="M 329 122 420 146"/>
<path stroke-width="1" stroke="black" d="M 329 122 168 103"/>
<path stroke-width="1" stroke="black" d="M 329 122 307 301"/>
<path stroke-width="1" stroke="black" d="M 329 122 20 128"/>
<path stroke-width="1" stroke="black" d="M 329 122 101 46"/>
<path stroke-width="1" stroke="black" d="M 329 122 388 212"/>
<path stroke-width="1" stroke="black" d="M 28 203 307 301"/>
<path stroke-width="1" stroke="black" d="M 28 203 20 128"/>
<path stroke-width="1" stroke="black" d="M 28 203 101 46"/>
<path stroke-width="1" stroke="black" d="M 28 203 388 212"/>
<path stroke-width="1" stroke="black" d="M 164 320 20 128"/>
<path stroke-width="1" stroke="black" d="M 164 320 101 46"/>
<path stroke-width="1" stroke="black" d="M 164 320 388 212"/>
<path stroke-width="1" stroke="black" d="M 164 320 329 122"/>
<path stroke-width="1" stroke="black" d="M 164 320 203 20"/>
<path stroke-width="1" stroke="black" d="M 164 320 28 203"/>
<path stroke-width="1" stroke="black" d="M 164 320 229 260"/>
<path stroke-width="1" stroke="black" d="M 164 320 303 34"/>
<path stroke-width="1" stroke="black" d="M 303 34 220 172"/>
<path stroke-width="1" stroke="black" d="M 303 34 89 268"/>
<path stroke-width="1" stroke="black" d="M 303 34 420 146"/>
<path stroke-width="1" stroke="black" d="M 303 34 168 103"/>
<path stroke-width="1" stroke="black" d="M 303 34 307 301"/>
<path stroke-width="1" stroke="black" d="M 303 34 20 128"/>
<path stroke-width="1" stroke="black" d="M 303 34 101 46"/>
<path stroke-width="1" stroke="black" d="M 303 34 388 212"/>
<path stroke-width="1" stroke="black" d="M 303 34 329 122"/>
<path stroke-width="1" stroke="black" d="M 303 34 203 20"/>
<path stroke-width="1" stroke="black" d="M 303 34 28 203"/>
<path stroke-width="1" stroke="black" d="M 164 320 307 301"/>
<path stroke-width="1" stroke="black" d="M 388 212 89 268"/>
<path stroke-width="1" stroke="black" d="M 164 320 168 103"/>
<path stroke-width="1" stroke="black" d="M 164 320 89 268"/>
<path stroke-width="1" stroke="black" d="M 28 203 329 122"/>
<path stroke-width="1" stroke="black" d="M 28 203 203 20"/>
<path stroke-width="1" stroke="black" d="M 28 203 229 260"/>
<path stroke-width="1" stroke="black" d="M 28 203 164 320"/>
<path stroke-width="1" stroke="black" d="M 28 203 303 34"/>
<path stroke-width="1" stroke="black" d="M 229 260 220 172"/>
<path stroke-width="1" stroke="black" d="M 229 260 89 268"/>
<path stroke-width="1" stroke="black" d="M 229 260 420 146"/>
<path stroke-width="1" stroke="black" d="M 229 260 168 103"/>
<path stroke-width="1" stroke="black" d="M 229 260 307 301"/>
<path stroke-width="1" stroke="black" d="M 229 260 20 128"/>
<path stroke-width="1" stroke="black" d="M 229 260 101 46"/>
<path stroke-width="1" stroke="black" d="M 229 260 388 212"/>
<path stroke-width="1" stroke="black" d="M 229 260 329 122"/>
<path stroke-width="1" stroke="black" d="M 229 260 203 20"/>
<path stroke-width="1" stroke="black" d="M 229 260 28 203"/>
<path stroke-width="1" stroke="black" d="M 229 260 164 320"/>
<path stroke-width="1" stroke="black" d="M 229 260 303 34"/>
<path stroke-width="1" stroke="black" d="M 164 320 220 172"/>
<path stroke-width="1" stroke="black" d="M 164 320 420 146"/>
<path stroke-width="1" stroke="black" d="M 388 212 220 172"/>
<path stroke-width="1" stroke="black" d="M 101 46 303 34"/>
<path stroke-width="1" stroke="black" d="M 101 46 164 320"/>
<path stroke-width="1" stroke="black" d="M 89 268 164 320"/>
<path stroke-width="1" stroke="black" d="M 89 268 303 34"/>
<path stroke-width="1" stroke="black" d="M 420 146 220 172"/>
<path stroke-width="1" stroke="black" d="M 420 146 89 268"/>
<path stroke-width="1" stroke="black" d="M 420 146 168 103"/>
<path stroke-width="1" stroke="black" d="M 420 146 307 301"/>
<path stroke-width="1" stroke="black" d="M 420 146 20 128"/>
<path stroke-width="1" stroke="black" d="M 420 146 101 46"/>
<path stroke-width="1" stroke="black" d="M 420 146 388 212"/>
<path stroke-width="1" stroke="black" d="M 420 146 329 122"/>
<path stroke-width="1" stroke="black" d="M 420 146 203 20"/>
<path stroke-width="1" stroke="black" d="M 420 146 28 203"/>
<path stroke-width="1" stroke="black" d="M 420 146 229 260"/>
<path stroke-width="1" stroke="black" d="M 420 146 164 320"/>
<path stroke-width="1" stroke="black" d="M 420 146 303 34"/>
<path stroke-width="1" stroke="black" d="M 168 103 220 172"/>
<path stroke-width="1" stroke="black" d="M 168 103 89 268"/>
<path stroke-width="1" stroke="black" d="M 168 103 420 146"/>
<path stroke-width="1" stroke="black" d="M 168 103 307 301"/>
<path stroke-width="1" stroke="black" d="M 89 268 229 260"/>
<path stroke-width="1" stroke="black" d="M 168 103 20 128"/>
<path stroke-width="1" stroke="black" d="M 89 268 28 203"/>
<path stroke-width="1" stroke="black" d="M 89 268 329 122"/>
<path stroke-width="1" stroke="black" d="M 220 172 420 146"/>
<path stroke-width="1" stroke="black" d="M 220 172 168 103"/>
<path stroke-width="1" stroke="black" d="M 220 172 307 301"/>
<path stroke-width="1" stroke="black" d="M 220 172 20 128"/>
<path stroke-width="1" stroke="black" d="M 220 172 101 46"/>
<path stroke-width="1" stroke="black" d="M 220 172 388 212"/>
<path stroke-width="1" stroke="black" d="M 220 172 329 122"/>
<path stroke-width="1" stroke="black" d="M 220 172 203 20"/>
<path stroke-width="1" stroke="black" d="M 220 172 28 203"/>
<path stroke-width="1" stroke="black" d="M 220 172 229 260"/>
<path stroke-width="1" stroke="black" d="M 220 172 164 320"/>
<path stroke-width="1" stroke="black" d="M 220 172 303 34"/>
<path stroke-width="1" stroke="black" d="M 89 268 220 172"/>
<path stroke-width="1" stroke="black" d="M 89 268 420 146"/>
<path stroke-width="1" stroke="black" d="M 89 268 168 103"/>
<path stroke-width="1" stroke="black" d="M 89 268 307 301"/>
<path stroke-width="1" stroke="black" d="M 89 268 20 128"/>
<path stroke-width="1" stroke="black" d="M 89 268 101 46"/>
<path stroke-width="1" stroke="black" d="M 89 268 388 212"/>
<path stroke-width="1" stroke="black" d="M 89 268 203 20"/>
<path stroke-width="1" stroke="black" d="M 303 34 229 260"/>
<path stroke-width="1" stroke="black" d="M 168 103 101 46"/>
<path stroke-width="1" stroke="black" d="M 168 103 329 122"/>
<path stroke-width="1" stroke="black" d="M 20 128 101 46"/>
<path stroke-width="1" stroke="black" d="M 20 128 388 212"/>
<path stroke-width="1" stroke="black" d="M 20 128 329 122"/>
<path stroke-width="1" stroke="black" d="M 20 128 203 20"/>
<path stroke-width="1" stroke="black" d="M 20 128 28 203"/>
<path stroke-width="1" stroke="black" d="M 20 128 229 260"/>
<path stroke-width="1" stroke="black" d="M 20 128 164 320"/>
<path stroke-width="1" stroke="black" d="M 20 128 303 34"/>
<path stroke-width="1" stroke="black" d="M 101 46 220 172"/>
<path stroke-width="1" stroke="black" d="M 101 46 89 268"/>
<path stroke-width="1" stroke="black" d="M 101 46 420 146"/>
<path stroke-width="1" stroke="black" d="M 101 46 168 103"/>
<path stroke-width="1" stroke="black" d="M 101 46 307 301"/>
<path stroke-width="1" stroke="black" d="M 101 46 20 128"/>
<path stroke-width="1" stroke="black" d="M 101 46 388 212"/>
<path stroke-width="1" stroke="black" d="M 101 46 329 122"/>
<path stroke-width="1" stroke="black" d="M 101 46 203 20"/>
<path stroke-width="1" stroke="black" d="M 101 46 28 203"/>
<path stroke-width="1" stroke="black" d="M 101 46 229 260"/>
<path stroke-width="1" stroke="black" d="M 20 128 307 301"/>
<path stroke-width="1" stroke="black" d="M 168 103 388 212"/>
<path stroke-width="1" stroke="black" d="M 20 128 168 103"/>
<path stroke-width="1" stroke="black" d="M 20 128 89 268"/>
<path stroke-width="1" stroke="black" d="M 168 103 203 20"/>
<path stroke-width="1" stroke="black" d="M 168 103 28 203"/>
<path stroke-width="1" stroke="black" d="M 168 103 229 260"/>
<path stroke-width="1" stroke="black" d="M 168 103 164 320"/>
<path stroke-width="1" stroke="black" d="M 168 103 303 34"/>
<path stroke-width="1" stroke="black" d="M 307 301 220 172"/>
<path stroke-width="1" stroke="black" d="M 307 301 89 268"/>
<path stroke-width="1" stroke="black" d="M 307 301 420 146"/>
<path stroke-width="1" stroke="black" d="M 307 301 168 103"/>
<path stroke-width="1" stroke="black" d="M 307 301 20 128"/>
<path stroke-width="1" stroke="black" d="M 307 301 101 46"/>
<path stroke-width="1" stroke="black" d="M 307 301 388 212"/>
<path stroke-width="1" stroke="black" d="M 307 301 329 122"/>
<path stroke-width="1" stroke="black" d="M 307 301 203 20"/>
<path stroke-width="1" stroke="black" d="M 307 301 28 203"/>
<path stroke-width="1" stroke="black" d="M 307 301 229 260"/>
<path stroke-width="1" stroke="black" d="M 307 301 164 320"/>
<path stroke-width="1" stroke="black" d="M 307 301 303 34"/>
<path stroke-width="1" stroke="black" d="M 20 128 220 172"/>
<path stroke-width="1" stroke="black" d="M 20 128 420 146"/>
<path stroke-width="1" stroke="black" d="M 303 34 164 320"/>
<circle cx="220" cy="172" r="7.0" style="fill:gray;stroke:black;stroke-width:1.0"/>
<circle cx="89" cy="268" r="7.0" style="fill:gray;stroke:black;stroke-width:1.0"/>
<circle cx="420" cy="146" r="7.0" style="fill:gray;stroke:black;stroke-width:1.0"/>
<circle cx="168" cy="103" r="7.0" style="fill:gray;stroke:black;stroke-width:1.0"/>
<circle cx="307" cy="301" r="7.0" style="fill:gray;stroke:black;stroke-width:1.0"/>
<circle cx="20" cy="128" r="7.0" style="fill:gray;stroke:black;stroke-width:1.0"/>
<circle cx="101" cy="46" r="7.0" style="fill:gray;stroke:black;stroke-width:1.0"/>
<circle cx="388" cy="212" r="7.0" style="fill:gray;stroke:black;stroke-width:1.0"/>
<circle cx="329" cy="122" r="7.0" style="fill:gray;stroke:black;stroke-width:1.0"/>
<circle cx="203" cy="20" r="7.0" style="fill:gray;stroke:black;stroke-width:1.0"/>
<circle cx="28" cy="203" r="7.0" style="fill:gray;stroke:black;stroke-width:1.0"/>
<circle cx="229" cy="260" r="7.0" style="fill:gray;stroke:black;stroke-width:1.0"/>
<circle cx="164" cy="320" r="7.0" style="fill:gray;stroke:black;stroke-width:1.0"/>
<circle cx="303" cy="34" r="7.0" style="fill:gray;stroke:black;stroke-width:1.0"/>
</svg>
