<svg width="440" height="340" xmlns="http://www.w3.org/2000/svg">
<path stroke-width="8.3" stroke="black" d="M 201 149 416 234"/>
<path stroke-width="0.5" stroke="black" d="M 267 202 130 27"/>
<path stroke-width="8.3" stroke="black" d="M 304 20 201 149"/>
<path stroke-width="0.5" stroke="black" d="M 304 20 416 234"/>
<path stroke-width="0.5" stroke="black" d="M 304 20 20 156"/>
<path stroke-width="0.5" stroke="black" d="M 304 20 82 100"/>
<path stroke-width="0.5" stroke="black" d="M 304 20 277 93"/>
<path stroke-width="0.5" stroke="black" d="M 304 20 133 299"/>
<path stroke-width="12.2" stroke="black" d="M 304 20 420 154"/>
<path stroke-width="0.5" stroke="black" d="M 267 202 417 91"/>
<path stroke-width="0.5" stroke="black" d="M 304 20 307 320"/>
<path stroke-width="0.5" stroke="black" d="M 304 20 55 240"/>
<path stroke-width="0.5" stroke="black" d="M 304 20 254 270"/>
<path stroke-width="0.5" stroke="black" d="M 304 20 417 91"/>
<path stroke-width="0.5" stroke="black" d="M 304 20 130 27"/>
<path stroke-width="8.3" stroke="black" d="M 55 240 201 149"/>
<path stroke-width="0.5" stroke="black" d="M 55 240 416 234"/>
<path stroke-width="0.5" stroke="black" d="M 55 240 20 156"/>
<path stroke-width="0.5" stroke="black" d="M 55 240 82 100"/>
<path stroke-width="0.5" stroke="black" d="M 304 20 267 202"/>
<path stroke-width="0.5" stroke="black" d="M 267 202 254 270"/>
<path stroke-width="0.5" stroke="black" d="M 267 202 55 240"/>
<path stroke-width="0.5" stroke="black" d="M 267 202 304 20"/>
<path stroke-width="0.5" stroke="black" d="M 307 320 20 156"/>
<path stroke-width="0.5" stroke="black" d="M 307 320 82 100"/>
<path stroke-width="0.5" stroke="black" d="M 307 320 277 93"/>
<path stroke-width="0.5" stroke="black" d="M 307 320 133 299"/>
<path stroke-width="0.5" stroke="black" d="M 307 320 420 154"/>
<path stroke-width="12.2" stroke="black" d="M 307 320 267 202"/>
<path stroke-width="0.5" stroke="black" d="M 307 320 304 20"/>
<path stroke-width="0.5" stroke="black" d="M 307 320 55 240"/>
<path stroke-width="0.5" stroke="black" d="M 307 320 254 270"/>
<path stroke-width="0.5" stroke="black" d="M 307 320 417 91"/>
<path stroke-width="0.5" stroke="black" d="M 307 320 130 27"/>
<path stroke-width="8.3" stroke="black" d="M 267 202 201 149"/>
<path stroke-width="0.5" stroke="black" d="M 267 202 416 234"/>
<path stroke-width="0.5" stroke="black" d="M 267 202 20 156"/>
<path stroke-width="0.5" stroke="black" d="M 267 202 82 100"/>
<path stroke-width="0.5" stroke="black" d="M 267 202 277 93"/>
<path stroke-width="0.5" stroke="black" d="M 267 202 133 299"/>
<path stroke-width="0.5" stroke="black" d="M 267 202 420 154"/>
<path stroke-width="12.2" stroke="black" d="M 267 202 307 320"/>
<path stroke-width="0.5" stroke="black" d="M 55 240 277 93"/>
<path stroke-width="12.2" stroke="black" d="M 55 240 133 299"/>
<path stroke-width="0.5" stroke="black" d="M 55 240 420 154"/>
<path stroke-width="0.5" stroke="black" d="M 55 240 307 320"/>
<path stroke-width="0.5" stroke="black" d="M 417 91 133 299"/>
<path stroke-width="0.5" stroke="black" d="M 417 91 420 154"/>
<path stroke-width="0.5" stroke="black" d="M 417 91 307 320"/>
<path stroke-width="0.5" stroke="black" d="M 417 91 267 202"/>
<path stroke-width="0.5" stroke="black" d="M 417 91 304 20"/>
<path stroke-width="0.5" stroke="black" d="M 417 91 55 240"/>
<path stroke-width="0.5" stroke="black" d="M 417 91 254 270"/>
<path stroke-width="0.5" stroke="black" d="M 417 91 130 27"/>
<path stroke-width="8.3" stroke="black" d="M 130 27 201 149"/>
<path stroke-width="0.5" stroke="black" d="M 130 27 416 234"/>
<path stroke-width="0.5" stroke="black" d="M 130 27 20 156"/>
<path stroke-width="12.2" stroke="black" d="M 130 27 82 100"/>
<path stroke-width="0.5" stroke="black" d="M 130 27 277 93"/>
<path stroke-width="0.5" stroke="black" d="M 130 27 133 299"/>
<path stroke-width="0.5" stroke="black" d="M 130 27 420 154"/>
<path stroke-width="0.5" stroke="black" d="M 130 27 307 320"/>
<path stroke-width="0.5" stroke="black" d="M 130 27 267 202"/>
<path stroke-width="0.5" stroke="black" d="M 130 27 304 20"/>
<path stroke-width="0.5" stroke="black" d="M 130 27 55 240"/>
<path stroke-width="0.5" stroke="black" d="M 417 91 277 93"/>
<path stroke-width="0.5" stroke="black" d="M 307 320 416 234"/>
<path stroke-width="0.5" stroke="black" d="M 417 91 82 100"/>
<path stroke-width="12.2" stroke="black" d="M 417 91 416 234"/>
<path stroke-width="0.5" stroke="black" d="M 55 240 267 202"/>
<path stroke-width="0.5" stroke="black" d="M 55 240 304 20"/>
<path stroke-width="0.5" stroke="black" d="M 55 240 254 270"/>
<path stroke-width="0.5" stroke="black" d="M 55 240 417 91"/>
<path stroke-width="0.5" stroke="black" d="M 55 240 130 27"/>
<path stroke-width="8.3" stroke="black" d="M 254 270 201 149"/>
<path stroke-width="0.5" stroke="black" d="M 254 270 416 234"/>
<path stroke-width="0.5" stroke="black" d="M 254 270 20 156"/>
<path stroke-width="0.5" stroke="black" d="M 254 270 82 100"/>
<path stroke-width="12.2" stroke="black" d="M 254 270 277 93"/>
<path stroke-width="0.5" stroke="black" d="M 254 270 133 299"/>
<path stroke-width="0.5" stroke="black" d="M 254 270 420 154"/>
<path stroke-width="0.5" stroke="black" d="M 254 270 307 320"/>
<path stroke-width="0.5" stroke="black" d="M 254 270 267 202"/>
<path stroke-width="0.5" stroke="black" d="M 254 270 304 20"/>
<path stroke-width="0.5" stroke="black" d="M 254 270 55 240"/>
<path stroke-width="0.5" stroke="black" d="M 254 270 417 91"/>
<path stroke-width="0.5" stroke="black" d="M 254 270 130 27"/>
<path stroke-width="4.4" stroke="black" d="M 417 91 201 149"/>
<path stroke-width="0.5" stroke="black" d="M 417 91 20 156"/>
<path stroke-width="8.3" stroke="black" d="M 307 320 201 149"/>
<path stroke-width="0.5" stroke="black" d="M 420 154 130 27"/>
<path stroke-width="0.5" stroke="black" d="M 420 154 417 91"/>
<path stroke-width="12.2" stroke="black" d="M 416 234 417 91"/>
<path stroke-width="0.5" stroke="black" d="M 416 234 130 27"/>
<path stroke-width="20.0" stroke="black" d="M 20 156 201 149"/>
<path stroke-width="0.5" stroke="black" d="M 20 156 416 234"/>
<path stroke-width="0.5" stroke="black" d="M 20 156 82 100"/>
<path stroke-width="0.5" stroke="black" d="M 20 156 277 93"/>
<path stroke-width="0.5" stroke="black" d="M 20 156 133 299"/>
<path stroke-width="0.5" stroke="black" d="M 20 156 420 154"/>
<path stroke-width="0.5" stroke="black" d="M 20 156 307 320"/>
<path stroke-width="0.5" stroke="black" d="M 20 156 267 202"/>
<path stroke-width="0.5" stroke="black" d="M 20 156 304 20"/>
<path stroke-width="0.5" stroke="black" d="M 20 156 55 240"/>
<path stroke-width="0.5" stroke="black" d="M 20 156 254 270"/>
<path stroke-width="0.5" stroke="black" d="M 20 156 417 91"/>
<path stroke-width="0.5" stroke="black" d="M 20 156 130 27"/>
<path stroke-width="8.3" stroke="black" d="M 82 100 201 149"/>
<path stroke-width="0.5" stroke="black" d="M 82 100 416 234"/>
<path stroke-width="0.5" stroke="black" d="M 82 100 20 156"/>
<path stroke-width="0.5" stroke="black" d="M 82 100 277 93"/>
<path stroke-width="0.5" stroke="black" d="M 416 234 254 270"/>
<path stroke-width="0.5" stroke="black" d="M 82 100 133 299"/>
<path stroke-width="0.5" stroke="black" d="M 416 234 55 240"/>
<path stroke-width="0.5" stroke="black" d="M 416 234 267 202"/>
<path stroke-width="20.0" stroke="black" d="M 201 149 20 156"/>
<path stroke-width="8.3" stroke="black" d="M 201 149 82 100"/>
<path stroke-width="8.3" stroke="black" d="M 201 149 277 93"/>
<path stroke-width="8.3" stroke="black" d="M 201 149 133 299"/>
<path stroke-width="8.3" stroke="black" d="M 201 149 420 154"/>
<path stroke-width="8.3" stroke="black" d="M 201 149 307 320"/>
<path stroke-width="8.3" stroke="black" d="M 201 149 267 202"/>
<path stroke-width="8.3" stroke="black" d="M 201 149 304 20"/>
<path stroke-width="8.3" stroke="black" d="M 201 149 55 240"/>
<path stroke-width="8.3" stroke="black" d="M 201 149 254 270"/>
<path stroke-width="4.4" stroke="black" d="M 201 149 417 91"/>
<path stroke-width="8.3" stroke="black" d="M 201 149 130 27"/>
<path stroke-width="8.3" stroke="black" d="M 416 234 201 149"/>
<path stroke-width="0.5" stroke="black" d="M 416 234 20 156"/>
<path stroke-width="0.5" stroke="black" d="M 416 234 82 100"/>
<path stroke-width="0.5" stroke="black" d="M 416 234 277 93"/>
<path stroke-width="0.5" stroke="black" d="M 416 234 133 299"/>
<path stroke-width="0.5" stroke="black" d="M 416 234 420 154"/>
<path stroke-width="0.5" stroke="black" d="M 416 234 307 320"/>
<path stroke-width="0.5" stroke="black" d="M 416 234 304 20"/>
<path stroke-width="0.5" stroke="black" d="M 130 27 254 270"/>
<path stroke-width="0.5" stroke="black" d="M 82 100 420 154"/>
<path stroke-width="0.5" stroke="black" d="M 82 100 267 202"/>
<path stroke-width="0.5" stroke="black" d="M 133 299 420 154"/>
<path stroke-width="0.5" stroke="black" d="M 133 299 307 320"/>
<path stroke-width="0.5" stroke="black" d="M 133 299 267 202"/>
<path stroke-width="0.5" stroke="black" d="M 133 299 304 20"/>
<path stroke-width="12.2" stroke="black" d="M 133 299 55 240"/>
<path stroke-width="0.5" stroke="black" d="M 133 299 254 270"/>
<path stroke-width="0.5" stroke="black" d="M 133 299 417 91"/>
<path stroke-width="0.5" stroke="black" d="M 133 299 130 27"/>
<path stroke-width="8.3" stroke="black" d="M 420 154 201 149"/>
<path stroke-width="0.5" stroke="black" d="M 420 154 416 234"/>
<path stroke-width="0.5" stroke="black" d="M 420 154 20 156"/>
<path stroke-width="0.5" stroke="black" d="M 420 154 82 100"/>
<path stroke-width="0.5" stroke="black" d="M 420 154 277 93"/>
<path stroke-width="0.5" stroke="black" d="M 420 154 133 299"/>
<path stroke-width="0.5" stroke="black" d="M 420 154 307 320"/>
<path stroke-width="0.5" stroke="black" d="M 420 154 267 202"/>
<path stroke-width="12.2" stroke="black" d="M 420 154 304 20"/>
<path stroke-width="0.5" stroke="black" d="M 420 154 55 240"/>
<path stroke-width="0.5" stroke="black" d="M 420 154 254 270"/>
<path stroke-width="0.5" stroke="black" d="M 133 299 277 93"/>
<path stroke-width="0.5" stroke="black" d="M 82 100 307 320"/>
<path stroke-width="0.5" stroke="black" d="M 133 299 82 100"/>
<path stroke-width="0.5" stroke="black" d="M 133 299 416 234"/>
<path stroke-width="0.5" stroke="black" d="M 82 100 304 20"/>
<path stroke-width="0.5" stroke="black" d="M 82 100 55 240"/>
<path stroke-width="0.5" stroke="black" d="M 82 100 254 270"/>
<path stroke-width="0.5" stroke="black" d="M 82 100 417 91"/>
<path stroke-width="12.2" stroke="black" d="M 82 100 130 27"/>
<path stroke-width="8.3" stroke="black" d="M 277 93 201 149"/>
<path stroke-width="0.5" stroke="black" d="M 277 93 416 234"/>
<path stroke-width="0.5" stroke="black" d="M 277 93 20 156"/>
<path stroke-width="0.5" stroke="black" d="M 277 93 82 100"/>
<path stroke-width="0.5" stroke="black" d="M 277 93 133 299"/>
<path stroke-width="0.5" stroke="black" d="M 277 93 420 154"/>
<path stroke-width="0.5" stroke="black" d="M 277 93 307 320"/>
<path stroke-width="0.5" stroke="black" d="M 277 93 267 202"/>
<path stroke-width="0.5" stroke="black" d="M 277 93 304 20"/>
<path stroke-width="0.5" stroke="black" d="M 277 93 55 240"/>
<path stroke-width="12.2" stroke="black" d="M 277 93 254 270"/>
<path stroke-width="0.5" stroke="black" d="M 277 93 417 91"/>
<path stroke-width="0.5" stroke="black" d="M 277 93 130 27"/>
<path stroke-width="8.3" stroke="black" d="M 133 299 201 149"/>
<path stroke-width="0.5" stroke="black" d="M 133 299 20 156"/>
<path stroke-width="0.5" stroke="black" d="M 130 27 417 91"/>
<circle cx="201" cy="149" r="7.0" style="fill:gray;stroke:black;stroke-width:1.0"/>
<circle cx="416" cy="234" r="7.0" style="fill:gray;stroke:black;stroke-width:1.0"/>
<circle cx="20" cy="156" r="7.0" style="fill:gray;stroke:black;stroke-width:1.0"/>
<circle cx="82" cy="100" r="7.0" style="fill:gray;stroke:black;stroke-width:1.0"/>
<circle cx="277" cy="93" r="7.0" style="fill:gray;stroke:black;stroke-width:1.0"/>
<circle cx="133" cy="299" r="7.0" style="fill:gray;stroke:black;stroke-width:1.0"/>
<circle cx="420" cy="154" r="7.0" style="fill:gray;stroke:black;stroke-width:1.0"/>
<circle cx="307" cy="320" r="7.0" style="fill:gray;stroke:black;stroke-width:1.0"/>
<circle cx="267" cy="202" r="7.0" style="fill:gray;stroke:black;stroke-width:1.0"/>
<circle cx="304" cy="20" r="7.0" style="fill:gray;stroke:black;stroke-width:1.0"/>
<circle cx="55" cy="240" r="7.0" style="fill:gray;stroke:black;stroke-width:1.0"/>
<circle cx="254" cy="270" r="7.0" style="fill:gray;stroke:black;stroke-width:1.0"/>
<circle cx="417" cy="91" r="7.0" style="fill:gray;stroke:black;stroke-width:1.0"/>
<circle cx="130" cy="27" r="7.0" style="fill:gray;stroke:black;stroke-width:1.0"/>
</svg>
