<svg width="440" height="340" xmlns="http://www.w3.org/2000/svg">
<path stroke-width="8.3" stroke="black" d="M 420 61 401 78"/>
<path stroke-width="20.0" stroke="black" d="M 184 301 186 287"/>
<path stroke-width="0.5" stroke="black" d="M 186 287 254 245"/>
<path stroke-width="20.0" stroke="black" d="M 186 287 184 301"/>
<path stroke-width="0.5" stroke="black" d="M 186 287 119 305"/>
<path stroke-width="20.0" stroke="black" d="M 366 59 354 63"/>
<path stroke-width="0.5" stroke="black" d="M 354 63 302 96"/>
<path stroke-width="0.5" stroke="black" d="M 354 63 392 38"/>
<path stroke-width="20.0" stroke="black" d="M 354 63 366 59"/>
<path stroke-width="20.0" stroke="black" d="M 109 320 119 305"/>
<path stroke-width="0.5" stroke="black" d="M 119 305 60 293"/>
<path stroke-width="0.5" stroke="black" d="M 119 305 186 287"/>
<path stroke-width="20.0" stroke="black" d="M 119 305 109 320"/>
<path stroke-width="20.0" stroke="black" d="M 177 138 173 146"/>
<path stroke-width="20.0" stroke="black" d="M 380 129 367 135"/>
<path stroke-width="20.0" stroke="black" d="M 367 135 380 129"/>
<path stroke-width="0.5" stroke="black" d="M 367 135 315 193"/>
<path stroke-width="20.0" stroke="black" d="M 20 246 36 246"/>
<path stroke-width="0.5" stroke="black" d="M 36 246 60 293"/>
<path stroke-width="20.0" stroke="black" d="M 36 246 20 246"/>
<path stroke-width="0.5" stroke="black" d="M 36 246 60 192"/>
<path stroke-width="20.0" stroke="black" d="M 327 192 315 193"/>
<path stroke-width="0.5" stroke="black" d="M 315 193 254 245"/>
<path stroke-width="0.5" stroke="black" d="M 315 193 367 135"/>
<path stroke-width="20.0" stroke="black" d="M 315 193 327 192"/>
<path stroke-width="20.0" stroke="black" d="M 49 190 60 192"/>
<path stroke-width="0.5" stroke="black" d="M 60 192 115 162"/>
<path stroke-width="0.5" stroke="black" d="M 367 135 401 78"/>
<path stroke-width="0.5" stroke="black" d="M 177 138 115 162"/>
<path stroke-width="0.5" stroke="black" d="M 177 138 241 119"/>
<path stroke-width="20.0" stroke="black" d="M 173 146 177 138"/>
<path stroke-width="8.3" stroke="black" d="M 401 78 420 61"/>
<path stroke-width="0.5" stroke="black" d="M 401 78 392 38"/>
<path stroke-width="0.5" stroke="black" d="M 401 78 367 135"/>
<path stroke-width="8.3" stroke="black" d="M 316 108 302 96"/>
<path stroke-width="8.3" stroke="black" d="M 302 96 316 108"/>
<path stroke-width="0.5" stroke="black" d="M 302 96 241 119"/>
<path stroke-width="0.5" stroke="black" d="M 302 96 354 63"/>
<path stroke-width="8.3" stroke="black" d="M 260 264 254 245"/>
<path stroke-width="8.3" stroke="black" d="M 254 245 260 264"/>
<path stroke-width="0.5" stroke="black" d="M 254 245 186 287"/>
<path stroke-width="0.5" stroke="black" d="M 254 245 315 193"/>
<path stroke-width="20.0" stroke="black" d="M 401 20 392 38"/>
<path stroke-width="0.5" stroke="black" d="M 392 38 401 78"/>
<path stroke-width="20.0" stroke="black" d="M 392 38 401 20"/>
<path stroke-width="0.5" stroke="black" d="M 392 38 354 63"/>
<path stroke-width="8.3" stroke="black" d="M 41 308 60 293"/>
<path stroke-width="8.3" stroke="black" d="M 60 293 41 308"/>
<path stroke-width="0.5" stroke="black" d="M 60 293 119 305"/>
<path stroke-width="0.5" stroke="black" d="M 60 293 36 246"/>
<path stroke-width="20.0" stroke="black" d="M 242 128 241 119"/>
<path stroke-width="0.5" stroke="black" d="M 241 119 302 96"/>
<path stroke-width="20.0" stroke="black" d="M 241 119 242 128"/>
<path stroke-width="0.5" stroke="black" d="M 241 119 177 138"/>
<path stroke-width="8.3" stroke="black" d="M 102 150 115 162"/>
<path stroke-width="8.3" stroke="black" d="M 115 162 102 150"/>
<path stroke-width="0.5" stroke="black" d="M 115 162 177 138"/>
<path stroke-width="0.5" stroke="black" d="M 115 162 60 192"/>
<path stroke-width="0.5" stroke="black" d="M 60 192 36 246"/>
<path stroke-width="20.0" stroke="black" d="M 60 192 49 190"/>
<circle cx="420" cy="61" r="7.0" style="fill:gray;stroke:black;stroke-width:1.0"/>
<circle cx="401" cy="78" r="7.0" style="fill:gray;stroke:black;stroke-width:1.0"/>
<circle cx="316" cy="108" r="7.0" style="fill:gray;stroke:black;stroke-width:1.0"/>
<circle cx="302" cy="96" r="7.0" style="fill:gray;stroke:black;stroke-width:1.0"/>
<circle cx="260" cy="264" r="7.0" style="fill:gray;stroke:black;stroke-width:1.0"/>
<circle cx="254" cy="245" r="7.0" style="fill:gray;stroke:black;stroke-width:1.0"/>
<circle cx="401" cy="20" r="7.0" style="fill:gray;stroke:black;stroke-width:1.0"/>
<circle cx="392" cy="38" r="7.0" style="fill:gray;stroke:black;stroke-width:1.0"/>
<circle cx="41" cy="308" r="7.0" style="fill:gray;stroke:black;stroke-width:1.0"/>
<circle cx="60" cy="293" r="7.0" style="fill:gray;stroke:black;stroke-width:1.0"/>
<circle cx="242" cy="128" r="7.0" style="fill:gray;stroke:black;stroke-width:1.0"/>
<circle cx="241" cy="119" r="7.0" style="fill:gray;stroke:black;stroke-width:1.0"/>
<circle cx="102" cy="150" r="7.0" style="fill:gray;stroke:black;stroke-width:1.0"/>
<circle cx="115" cy="162" r="7.0" style="fill:gray;stroke:black;stroke-width:1.0"/>
<circle cx="173" cy="146" r="7.0" style="fill:gray;stroke:black;stroke-width:1.0"/>
<circle cx="177" cy="138" r="7.0" style="fill:gray;stroke:black;stroke-width:1.0"/>
<circle cx="184" cy="301" r="7.0" style="fill:gray;stroke:black;stroke-width:1.0"/>
<circle cx="186" cy="287" r="7.0" style="fill:gray;stroke:black;stroke-width:1.0"/>
<circle cx="366" cy="59" r="7.0" style="fill:gray;stroke:black;stroke-width:1.0"/>
<circle cx="354" cy="63" r="7.0" style="fill:gray;stroke:black;stroke-width:1.0"/>
<circle cx="109" cy="320" r="7.0" style="fill:gray;stroke:black;stroke-width:1.0"/>
<circle cx="119" cy="305" r="7.0" style="fill:gray;stroke:black;stroke-width:1.0"/>
<circle cx="380" cy="129" r="7.0" style="fill:gray;stroke:black;stroke-width:1.0"/>
<circle cx="367" cy="135" r="7.0" style="fill:gray;stroke:black;stroke-width:1.0"/>
<circle cx="20" cy="246" r="7.0" style="fill:gray;stroke:black;stroke-width:1.0"/>
<circle cx="36" cy="246" r="7.0" style="fill:gray;stroke:black;stroke-width:1.0"/>
<circle cx="327" cy="192" r="7.0" style="fill:gray;stroke:black;stroke-width:1.0"/>
<circle cx="315" cy="193" r="7.0" style="fill:gray;stroke:black;stroke-width:1.0"/>
<circle cx="49" cy="190" r="7.0" style="fill:gray;stroke:black;stroke-width:1.0"/>
<circle cx="60" cy="192" r="7.0" style="fill:gray;stroke:black;stroke-width:1.0"/>
</svg>
