<svg width="440" height="340" xmlns="http://www.w3.org/2000/svg">
<path stroke-width="8.3" stroke="black" d="M 110 91 132 79"/>
<path stroke-width="20.0" stroke="black" d="M 180 81 173 96"/>
<path stroke-width="0.5" stroke="black" d="M 173 96 110 45"/>
<path stroke-width="20.0" stroke="black" d="M 173 96 180 81"/>
<path stroke-width="0.5" stroke="black" d="M 173 96 218 169"/>
<path stroke-width="20.0" stroke="black" d="M 344 64 320 69"/>
<path stroke-width="0.5" stroke="black" d="M 320 69 388 80"/>
<path stroke-width="0.5" stroke="black" d="M 320 69 234 70"/>
<path stroke-width="20.0" stroke="black" d="M 320 69 344 64"/>
<path stroke-width="20.0" stroke="black" d="M 235 167 218 169"/>
<path stroke-width="0.5" stroke="black" d="M 218 169 247 241"/>
<path stroke-width="0.5" stroke="black" d="M 218 169 173 96"/>
<path stroke-width="20.0" stroke="black" d="M 218 169 235 167"/>
<path stroke-width="20.0" stroke="black" d="M 296 179 289 173"/>
<path stroke-width="20.0" stroke="black" d="M 28 77 53 72"/>
<path stroke-width="20.0" stroke="black" d="M 53 72 28 77"/>
<path stroke-width="0.5" stroke="black" d="M 53 72 42 38"/>
<path stroke-width="20.0" stroke="black" d="M 241 320 243 302"/>
<path stroke-width="0.5" stroke="black" d="M 243 302 247 241"/>
<path stroke-width="20.0" stroke="black" d="M 243 302 241 320"/>
<path stroke-width="0.5" stroke="black" d="M 243 302 218 285"/>
<path stroke-width="20.0" stroke="black" d="M 20 30 42 38"/>
<path stroke-width="0.5" stroke="black" d="M 42 38 110 45"/>
<path stroke-width="0.5" stroke="black" d="M 42 38 53 72"/>
<path stroke-width="20.0" stroke="black" d="M 42 38 20 30"/>
<path stroke-width="20.0" stroke="black" d="M 205 302 218 285"/>
<path stroke-width="0.5" stroke="black" d="M 218 285 237 236"/>
<path stroke-width="0.5" stroke="black" d="M 53 72 132 79"/>
<path stroke-width="0.5" stroke="black" d="M 296 179 237 236"/>
<path stroke-width="0.5" stroke="black" d="M 296 179 348 130"/>
<path stroke-width="20.0" stroke="black" d="M 289 173 296 179"/>
<path stroke-width="8.3" stroke="black" d="M 132 79 110 91"/>
<path stroke-width="0.5" stroke="black" d="M 132 79 234 70"/>
<path stroke-width="0.5" stroke="black" d="M 132 79 53 72"/>
<path stroke-width="8.3" stroke="black" d="M 420 69 388 80"/>
<path stroke-width="8.3" stroke="black" d="M 388 80 420 69"/>
<path stroke-width="0.5" stroke="black" d="M 388 80 348 130"/>
<path stroke-width="0.5" stroke="black" d="M 388 80 320 69"/>
<path stroke-width="8.3" stroke="black" d="M 102 20 110 45"/>
<path stroke-width="8.3" stroke="black" d="M 110 45 102 20"/>
<path stroke-width="0.5" stroke="black" d="M 110 45 173 96"/>
<path stroke-width="0.5" stroke="black" d="M 110 45 42 38"/>
<path stroke-width="20.0" stroke="black" d="M 245 63 234 70"/>
<path stroke-width="0.5" stroke="black" d="M 234 70 132 79"/>
<path stroke-width="20.0" stroke="black" d="M 234 70 245 63"/>
<path stroke-width="0.5" stroke="black" d="M 234 70 320 69"/>
<path stroke-width="8.3" stroke="black" d="M 270 260 247 241"/>
<path stroke-width="8.3" stroke="black" d="M 247 241 270 260"/>
<path stroke-width="0.5" stroke="black" d="M 247 241 218 169"/>
<path stroke-width="0.5" stroke="black" d="M 247 241 243 302"/>
<path stroke-width="20.0" stroke="black" d="M 360 115 348 130"/>
<path stroke-width="0.5" stroke="black" d="M 348 130 388 80"/>
<path stroke-width="20.0" stroke="black" d="M 348 130 360 115"/>
<path stroke-width="0.5" stroke="black" d="M 348 130 296 179"/>
<path stroke-width="8.3" stroke="black" d="M 212 246 237 236"/>
<path stroke-width="8.3" stroke="black" d="M 237 236 212 246"/>
<path stroke-width="0.5" stroke="black" d="M 237 236 296 179"/>
<path stroke-width="0.5" stroke="black" d="M 237 236 218 285"/>
<path stroke-width="0.5" stroke="black" d="M 218 285 243 302"/>
<path stroke-width="20.0" stroke="black" d="M 218 285 205 302"/>
<circle cx="110" cy="91" r="7.0" style="fill:red;stroke:black;stroke-width:1.0"/>
<circle cx="132" cy="79" r="7.0" style="fill:red;stroke:black;stroke-width:1.0"/>
<circle cx="420" cy="69" r="7.0" style="fill:blue;stroke:black;stroke-width:1.0"/>
<circle cx="388" cy="80" r="7.0" style="fill:blue;stroke:black;stroke-width:1.0"/>
<circle cx="102" cy="20" r="7.0" style="fill:orange;stroke:black;stroke-width:1.0"/>
<circle cx="110" cy="45" r="7.0" style="fill:orange;stroke:black;stroke-width:1.0"/>
<circle cx="245" cy="63" r="7.0" style="fill:yellow;stroke:black;stroke-width:1.0"/>
<circle cx="234" cy="70" r="7.0" style="fill:yellow;stroke:black;stroke-width:1.0"/>
<circle cx="270" cy="260" r="7.0" style="fill:green;stroke:black;stroke-width:1.0"/>
<circle cx="247" cy="241" r="7.0" style="fill:green;stroke:black;stroke-width:1.0"/>
<circle cx="360" cy="115" r="7.0" style="fill:fuchsia;stroke:black;stroke-width:1.0"/>
<circle cx="348" cy="130" r="7.0" style="fill:fuchsia;stroke:black;stroke-width:1.0"/>
<circle cx="212" cy="246" r="7.0" style="fill:purple;stroke:black;stroke-width:1.0"/>
<circle cx="237" cy="236" r="7.0" style="fill:purple;stroke:black;stroke-width:1.0"/>
<circle cx="289" cy="173" r="7.0" style="fill:olive;stroke:black;stroke-width:1.0"/>
<circle cx="296" cy="179" r="7.0" style="fill:olive;stroke:black;stroke-width:1.0"/>
<circle cx="180" cy="81" r="7.0" style="fill:aqua;stroke:black;stroke-width:1.0"/>
<circle cx="173" cy="96" r="7.0" style="fill:aqua;stroke:black;stroke-width:1.0"/>
<circle cx="344" cy="64" r="7.0" style="fill:blue;stroke:black;stroke-width:1.0"/>
<circle cx="320" cy="69" r="7.0" style="fill:blue;stroke:black;stroke-width:1.0"/>
<circle cx="235" cy="167" r="7.0" style="fill:brown;stroke:black;stroke-width:1.0"/>
<circle cx="218" cy="169" r="7.0" style="fill:brown;stroke:black;stroke-width:1.0"/>
<circle cx="28" cy="77" r="7.0" style="fill:red;stroke:black;stroke-width:1.0"/>
<circle cx="53" cy="72" r="7.0" style="fill:red;stroke:black;stroke-width:1.0"/>
<circle cx="241" cy="320" r="7.0" style="fill:green;stroke:black;stroke-width:1.0"/>
<circle cx="243" cy="302" r="7.0" style="fill:green;stroke:black;stroke-width:1.0"/>
<circle cx="20" cy="30" r="7.0" style="fill:orange;stroke:black;stroke-width:1.0"/>
<circle cx="42" cy="38" r="7.0" style="fill:orange;stroke:black;stroke-width:1.0"/>
<circle cx="205" cy="302" r="7.0" style="fill:purple;stroke:black;stroke-width:1.0"/>
<circle cx="218" cy="285" r="7.0" style="fill:purple;stroke:black;stroke-width:1.0"/>
</svg>
