<svg width="440" height="340" xmlns="http://www.w3.org/2000/svg">
<path stroke-width="1" stroke="black" d="M 335 288 321 261"/>
<path stroke-width="1" stroke="black" d="M 398 274 362 266"/>
<path stroke-width="1" stroke="black" d="M 362 266 391 233"/>
<path stroke-width="1" stroke="black" d="M 362 266 398 274"/>
<path stroke-width="1" stroke="black" d="M 362 266 266 262"/>
<path stroke-width="1" stroke="black" d="M 298 104 285 121"/>
<path stroke-width="1" stroke="black" d="M 285 121 214 94"/>
<path stroke-width="1" stroke="black" d="M 285 121 318 183"/>
<path stroke-width="1" stroke="black" d="M 285 121 298 104"/>
<path stroke-width="1" stroke="black" d="M 264 277 266 262"/>
<path stroke-width="1" stroke="black" d="M 266 262 166 231"/>
<path stroke-width="1" stroke="black" d="M 266 262 362 266"/>
<path stroke-width="1" stroke="black" d="M 266 262 264 277"/>
<path stroke-width="1" stroke="black" d="M 87 45 78 30"/>
<path stroke-width="1" stroke="black" d="M 269 320 289 299"/>
<path stroke-width="1" stroke="black" d="M 289 299 269 320"/>
<path stroke-width="1" stroke="black" d="M 289 299 324 250"/>
<path stroke-width="1" stroke="black" d="M 77 176 96 173"/>
<path stroke-width="1" stroke="black" d="M 96 173 166 231"/>
<path stroke-width="1" stroke="black" d="M 96 173 77 176"/>
<path stroke-width="1" stroke="black" d="M 96 173 45 112"/>
<path stroke-width="1" stroke="black" d="M 307 239 324 250"/>
<path stroke-width="1" stroke="black" d="M 324 250 391 233"/>
<path stroke-width="1" stroke="black" d="M 324 250 289 299"/>
<path stroke-width="1" stroke="black" d="M 324 250 307 239"/>
<path stroke-width="1" stroke="black" d="M 20 105 45 112"/>
<path stroke-width="1" stroke="black" d="M 45 112 36 46"/>
<path stroke-width="1" stroke="black" d="M 289 299 321 261"/>
<path stroke-width="1" stroke="black" d="M 87 45 36 46"/>
<path stroke-width="1" stroke="black" d="M 87 45 141 75"/>
<path stroke-width="1" stroke="black" d="M 78 30 87 45"/>
<path stroke-width="1" stroke="black" d="M 321 261 335 288"/>
<path stroke-width="1" stroke="black" d="M 321 261 318 183"/>
<path stroke-width="1" stroke="black" d="M 321 261 289 299"/>
<path stroke-width="1" stroke="black" d="M 209 110 214 94"/>
<path stroke-width="1" stroke="black" d="M 214 94 209 110"/>
<path stroke-width="1" stroke="black" d="M 214 94 141 75"/>
<path stroke-width="1" stroke="black" d="M 214 94 285 121"/>
<path stroke-width="1" stroke="black" d="M 420 216 391 233"/>
<path stroke-width="1" stroke="black" d="M 391 233 420 216"/>
<path stroke-width="1" stroke="black" d="M 391 233 362 266"/>
<path stroke-width="1" stroke="black" d="M 391 233 324 250"/>
<path stroke-width="1" stroke="black" d="M 335 170 318 183"/>
<path stroke-width="1" stroke="black" d="M 318 183 321 261"/>
<path stroke-width="1" stroke="black" d="M 318 183 335 170"/>
<path stroke-width="1" stroke="black" d="M 318 183 285 121"/>
<path stroke-width="1" stroke="black" d="M 150 251 166 231"/>
<path stroke-width="1" stroke="black" d="M 166 231 150 251"/>
<path stroke-width="1" stroke="black" d="M 166 231 266 262"/>
<path stroke-width="1" stroke="black" d="M 166 231 96 173"/>
<path stroke-width="1" stroke="black" d="M 125 85 141 75"/>
<path stroke-width="1" stroke="black" d="M 141 75 214 94"/>
<path stroke-width="1" stroke="black" d="M 141 75 125 85"/>
<path stroke-width="1" stroke="black" d="M 141 75 87 45"/>
<path stroke-width="1" stroke="black" d="M 29 20 36 46"/>
<path stroke-width="1" stroke="black" d="M 36 46 29 20"/>
<path stroke-width="1" stroke="black" d="M 36 46 87 45"/>
<path stroke-width="1" stroke="black" d="M 36 46 45 112"/>
<path stroke-width="1" stroke="black" d="M 45 112 96 173"/>
<path stroke-width="1" stroke="black" d="M 45 112 20 105"/>
<circle cx="335" cy="288" r="7.0" style="fill:gray;stroke:black;stroke-width:1.0"/>
<circle cx="321" cy="261" r="7.0" style="fill:gray;stroke:black;stroke-width:1.0"/>
<circle cx="209" cy="110" r="7.0" style="fill:gray;stroke:black;stroke-width:1.0"/>
<circle cx="214" cy="94" r="7.0" style="fill:gray;stroke:black;stroke-width:1.0"/>
<circle cx="420" cy="216" r="7.0" style="fill:gray;stroke:black;stroke-width:1.0"/>
<circle cx="391" cy="233" r="7.0" style="fill:gray;stroke:black;stroke-width:1.0"/>
<circle cx="335" cy="170" r="7.0" style="fill:gray;stroke:black;stroke-width:1.0"/>
<circle cx="318" cy="183" r="7.0" style="fill:gray;stroke:black;stroke-width:1.0"/>
<circle cx="150" cy="251" r="7.0" style="fill:gray;stroke:black;stroke-width:1.0"/>
<circle cx="166" cy="231" r="7.0" style="fill:gray;stroke:black;stroke-width:1.0"/>
<circle cx="125" cy="85" r="7.0" style="fill:gray;stroke:black;stroke-width:1.0"/>
<circle cx="141" cy="75" r="7.0" style="fill:gray;stroke:black;stroke-width:1.0"/>
<circle cx="29" cy="20" r="7.0" style="fill:gray;stroke:black;stroke-width:1.0"/>
<circle cx="36" cy="46" r="7.0" style="fill:gray;stroke:black;stroke-width:1.0"/>
<circle cx="78" cy="30" r="7.0" style="fill:gray;stroke:black;stroke-width:1.0"/>
<circle cx="87" cy="45" r="7.0" style="fill:gray;stroke:black;stroke-width:1.0"/>
<circle cx="398" cy="274" r="7.0" style="fill:gray;stroke:black;stroke-width:1.0"/>
<circle cx="362" cy="266" r="7.0" style="fill:gray;stroke:black;stroke-width:1.0"/>
<circle cx="298" cy="104" r="7.0" style="fill:gray;stroke:black;stroke-width:1.0"/>
<circle cx="285" cy="121" r="7.0" style="fill:gray;stroke:black;stroke-width:1.0"/>
<circle cx="264" cy="277" r="7.0" style="fill:gray;stroke:black;stroke-width:1.0"/>
<circle cx="266" cy="262" r="7.0" style="fill:gray;stroke:black;stroke-width:1.0"/>
<circle cx="269" cy="320" r="7.0" style="fill:gray;stroke:black;stroke-width:1.0"/>
<circle cx="289" cy="299" r="7.0" style="fill:gray;stroke:black;stroke-width:1.0"/>
<circle cx="77" cy="176" r="7.0" style="fill:gray;stroke:black;stroke-width:1.0"/>
<circle cx="96" cy="173" r="7.0" style="fill:gray;stroke:black;stroke-width:1.0"/>
<circle cx="307" cy="239" r="7.0" style="fill:gray;stroke:black;stroke-width:1.0"/>
<circle cx="324" cy="250" r="7.0" style="fill:gray;stroke:black;stroke-width:1.0"/>
<circle cx="20" cy="105" r="7.0" style="fill:gray;stroke:black;stroke-width:1.0"/>
<circle cx="45" cy="112" r="7.0" style="fill:gray;stroke:black;stroke-width:1.0"/>
</svg>
