<svg width="440" height="340" xmlns="http://www.w3.org/2000/svg">
<path stroke-width="8.3" stroke="black" d="M 322 79 294 88"/>
<path stroke-width="20.0" stroke="black" d="M 406 111 387 117"/>
<path stroke-width="0.5" stroke="black" d="M 387 117 334 62"/>
<path stroke-width="20.0" stroke="black" d="M 387 117 406 111"/>
<path stroke-width="0.5" stroke="black" d="M 387 117 395 188"/>
<path stroke-width="20.0" stroke="black" d="M 287 161 263 159"/>
<path stroke-width="0.5" stroke="black" d="M 263 159 175 187"/>
<path stroke-width="0.5" stroke="black" d="M 263 159 319 127"/>
<path stroke-width="20.0" stroke="black" d="M 263 159 287 161"/>
<path stroke-width="20.0" stroke="black" d="M 420 191 395 188"/>
<path stroke-width="0.5" stroke="black" d="M 395 188 368 246"/>
<path stroke-width="0.5" stroke="black" d="M 395 188 387 117"/>
<path stroke-width="20.0" stroke="black" d="M 395 188 420 191"/>
<path stroke-width="20.0" stroke="black" d="M 53 256 20 255"/>
<path stroke-width="20.0" stroke="black" d="M 209 55 237 58"/>
<path stroke-width="20.0" stroke="black" d="M 237 58 209 55"/>
<path stroke-width="0.5" stroke="black" d="M 237 58 254 31"/>
<path stroke-width="20.0" stroke="black" d="M 295 302 284 290"/>
<path stroke-width="0.5" stroke="black" d="M 284 290 368 246"/>
<path stroke-width="20.0" stroke="black" d="M 284 290 295 302"/>
<path stroke-width="0.5" stroke="black" d="M 284 290 186 306"/>
<path stroke-width="20.0" stroke="black" d="M 235 20 254 31"/>
<path stroke-width="0.5" stroke="black" d="M 254 31 334 62"/>
<path stroke-width="0.5" stroke="black" d="M 254 31 237 58"/>
<path stroke-width="20.0" stroke="black" d="M 254 31 235 20"/>
<path stroke-width="20.0" stroke="black" d="M 179 320 186 306"/>
<path stroke-width="0.5" stroke="black" d="M 186 306 82 294"/>
<path stroke-width="0.5" stroke="black" d="M 237 58 294 88"/>
<path stroke-width="0.5" stroke="black" d="M 53 256 82 294"/>
<path stroke-width="0.5" stroke="black" d="M 53 256 100 220"/>
<path stroke-width="20.0" stroke="black" d="M 20 255 53 256"/>
<path stroke-width="8.3" stroke="black" d="M 294 88 322 79"/>
<path stroke-width="0.5" stroke="black" d="M 294 88 319 127"/>
<path stroke-width="0.5" stroke="black" d="M 294 88 237 58"/>
<path stroke-width="8.3" stroke="black" d="M 151 178 175 187"/>
<path stroke-width="8.3" stroke="black" d="M 175 187 151 178"/>
<path stroke-width="0.5" stroke="black" d="M 175 187 100 220"/>
<path stroke-width="0.5" stroke="black" d="M 175 187 263 159"/>
<path stroke-width="8.3" stroke="black" d="M 335 40 334 62"/>
<path stroke-width="8.3" stroke="black" d="M 334 62 335 40"/>
<path stroke-width="0.5" stroke="black" d="M 334 62 387 117"/>
<path stroke-width="0.5" stroke="black" d="M 334 62 254 31"/>
<path stroke-width="20.0" stroke="black" d="M 352 130 319 127"/>
<path stroke-width="0.5" stroke="black" d="M 319 127 294 88"/>
<path stroke-width="20.0" stroke="black" d="M 319 127 352 130"/>
<path stroke-width="0.5" stroke="black" d="M 319 127 263 159"/>
<path stroke-width="8.3" stroke="black" d="M 394 264 368 246"/>
<path stroke-width="8.3" stroke="black" d="M 368 246 394 264"/>
<path stroke-width="0.5" stroke="black" d="M 368 246 395 188"/>
<path stroke-width="0.5" stroke="black" d="M 368 246 284 290"/>
<path stroke-width="20.0" stroke="black" d="M 113 215 100 220"/>
<path stroke-width="0.5" stroke="black" d="M 100 220 175 187"/>
<path stroke-width="20.0" stroke="black" d="M 100 220 113 215"/>
<path stroke-width="0.5" stroke="black" d="M 100 220 53 256"/>
<path stroke-width="8.3" stroke="black" d="M 48 304 82 294"/>
<path stroke-width="8.3" stroke="black" d="M 82 294 48 304"/>
<path stroke-width="0.5" stroke="black" d="M 82 294 53 256"/>
<path stroke-width="0.5" stroke="black" d="M 82 294 186 306"/>
<path stroke-width="0.5" stroke="black" d="M 186 306 284 290"/>
<path stroke-width="20.0" stroke="black" d="M 186 306 179 320"/>
<circle cx="322" cy="79" r="20.0" style="fill:gray;stroke:black;stroke-width:1.0"/>
<circle cx="294" cy="88" r="20.0" style="fill:gray;stroke:black;stroke-width:1.0"/>
<circle cx="151" cy="178" r="20.0" style="fill:gray;stroke:black;stroke-width:1.0"/>
<circle cx="175" cy="187" r="20.0" style="fill:gray;stroke:black;stroke-width:1.0"/>
<circle cx="335" cy="40" r="20.0" style="fill:gray;stroke:black;stroke-width:1.0"/>
<circle cx="334" cy="62" r="20.0" style="fill:gray;stroke:black;stroke-width:1.0"/>
<circle cx="352" cy="130" r="20.0" style="fill:gray;stroke:black;stroke-width:1.0"/>
<circle cx="319" cy="127" r="20.0" style="fill:gray;stroke:black;stroke-width:1.0"/>
<circle cx="394" cy="264" r="20.0" style="fill:gray;stroke:black;stroke-width:1.0"/>
<circle cx="368" cy="246" r="20.0" style="fill:gray;stroke:black;stroke-width:1.0"/>
<circle cx="113" cy="215" r="20.0" style="fill:gray;stroke:black;stroke-width:1.0"/>
<circle cx="100" cy="220" r="20.0" style="fill:gray;stroke:black;stroke-width:1.0"/>
<circle cx="48" cy="304" r="20.0" style="fill:gray;stroke:black;stroke-width:1.0"/>
<circle cx="82" cy="294" r="20.0" style="fill:gray;stroke:black;stroke-width:1.0"/>
<circle cx="20" cy="255" r="20.0" style="fill:gray;stroke:black;stroke-width:1.0"/>
<circle cx="53" cy="256" r="20.0" style="fill:gray;stroke:black;stroke-width:1.0"/>
<circle cx="406" cy="111" r="20.0" style="fill:gray;stroke:black;stroke-width:1.0"/>
<circle cx="387" cy="117" r="20.0" style="fill:gray;stroke:black;stroke-width:1.0"/>
<circle cx="287" cy="161" r="20.0" style="fill:gray;stroke:black;stroke-width:1.0"/>
<circle cx="263" cy="159" r="20.0" style="fill:gray;stroke:black;stroke-width:1.0"/>
<circle cx="420" cy="191" r="20.0" style="fill:gray;stroke:black;stroke-width:1.0"/>
<circle cx="395" cy="188" r="20.0" style="fill:gray;stroke:black;stroke-width:1.0"/>
<circle cx="209" cy="55" r="20.0" style="fill:gray;stroke:black;stroke-width:1.0"/>
<circle cx="237" cy="58" r="20.0" style="fill:gray;stroke:black;stroke-width:1.0"/>
<circle cx="295" cy="302" r="20.0" style="fill:gray;stroke:black;stroke-width:1.0"/>
<circle cx="284" cy="290" r="20.0" style="fill:gray;stroke:black;stroke-width:1.0"/>
<circle cx="235" cy="20" r="20.0" style="fill:gray;stroke:black;stroke-width:1.0"/>
<circle cx="254" cy="31" r="20.0" style="fill:gray;stroke:black;stroke-width:1.0"/>
<circle cx="179" cy="320" r="20.0" style="fill:gray;stroke:black;stroke-width:1.0"/>
<circle cx="186" cy="306" r="20.0" style="fill:gray;stroke:black;stroke-width:1.0"/>
</svg>
