<svg width="440" height="340" xmlns="http://www.w3.org/2000/svg">
<path stroke-width="1" stroke="black" d="M 200 132 160 235"/>
<path stroke-width="1" stroke="black" d="M 20 201 160 235"/>
<path stroke-width="1" stroke="black" d="M 20 201 200 132"/>
<path stroke-width="1" stroke="black" d="M 420 320 20 201"/>
<path stroke-width="1" stroke="black" d="M 420 320 385 20"/>
<path stroke-width="1" stroke="black" d="M 420 320 160 235"/>
<path stroke-width="1" stroke="black" d="M 420 320 200 132"/>
<path stroke-width="1" stroke="black" d="M 385 20 20 201"/>
<path stroke-width="1" stroke="black" d="M 385 20 420 320"/>
<path stroke-width="1" stroke="black" d="M 385 20 160 235"/>
<path stroke-width="1" stroke="black" d="M 385 20 200 132"/>
<path stroke-width="1" stroke="black" d="M 160 235 20 201"/>
<path stroke-width="1" stroke="black" d="M 160 235 420 320"/>
<path stroke-width="1" stroke="black" d="M 160 235 385 20"/>
<path stroke-width="1" stroke="black" d="M 160 235 200 132"/>
<path stroke-width="1" stroke="black" d="M 200 132 20 201"/>
<path stroke-width="1" stroke="black" d="M 200 132 420 320"/>
<path stroke-width="1" stroke="black" d="M 200 132 385 20"/>
<path stroke-width="1" stroke="black" d="M 20 201 385 20"/>
<path stroke-width="1" stroke="black" d="M 20 201 420 320"/>
<circle cx="200" cy="132" r="7.0" style="fill:gray;stroke:black;stroke-width:1.0"/>
<circle cx="160" cy="235" r="7.0" style="fill:gray;stroke:black;stroke-width:1.0"/>
<circle cx="385" cy="20" r="7.0" style="fill:gray;stroke:black;stroke-width:1.0"/>
<circle cx="420" cy="320" r="7.0" style="fill:gray;stroke:black;stroke-width:1.0"/>
<circle cx="20" cy="201" r="7.0" style="fill:gray;stroke:black;stroke-width:1.0"/>
</svg>
