<svg width="440" height="340" xmlns="http://www.w3.org/2000/svg">
<path stroke-width="20.0" stroke="black" d="M 225 129 20 141"/>
<path stroke-width="4.328220858895706" stroke="black" d="M 195 20 20 141"/>
<path stroke-width="3.8496932515337425" stroke="black" d="M 195 20 225 129"/>
<path stroke-width="0.5" stroke="black" d="M 57 320 195 20"/>
<path stroke-width="0.5" stroke="black" d="M 57 320 420 175"/>
<path stroke-width="4.328220858895706" stroke="black" d="M 57 320 20 141"/>
<path stroke-width="3.8496932515337425" stroke="black" d="M 57 320 225 129"/>
<path stroke-width="0.5" stroke="black" d="M 420 175 195 20"/>
<path stroke-width="0.5" stroke="black" d="M 420 175 57 320"/>
<path stroke-width="4.328220858895706" stroke="black" d="M 420 175 20 141"/>
<path stroke-width="3.8496932515337425" stroke="black" d="M 420 175 225 129"/>
<path stroke-width="4.328220858895706" stroke="black" d="M 20 141 195 20"/>
<path stroke-width="4.328220858895706" stroke="black" d="M 20 141 57 320"/>
<path stroke-width="4.328220858895706" stroke="black" d="M 20 141 420 175"/>
<path stroke-width="20.0" stroke="black" d="M 20 141 225 129"/>
<path stroke-width="3.8496932515337425" stroke="black" d="M 225 129 195 20"/>
<path stroke-width="3.8496932515337425" stroke="black" d="M 225 129 57 320"/>
<path stroke-width="3.8496932515337425" stroke="black" d="M 225 129 420 175"/>
<path stroke-width="0.5" stroke="black" d="M 195 20 420 175"/>
<path stroke-width="0.5" stroke="black" d="M 195 20 57 320"/>
<circle cx="225" cy="129" r="7.0" style="fill:gray;stroke:black;stroke-width:1.0"/>
<circle cx="20" cy="141" r="7.0" style="fill:gray;stroke:black;stroke-width:1.0"/>
<circle cx="420" cy="175" r="7.0" style="fill:gray;stroke:black;stroke-width:1.0"/>
<circle cx="57" cy="320" r="7.0" style="fill:gray;stroke:black;stroke-width:1.0"/>
<circle cx="195" cy="20" r="7.0" style="fill:gray;stroke:black;stroke-width:1.0"/>
</svg>
