<svg width="440" height="340" xmlns="http://www.w3.org/2000/svg">
<path stroke-width="20.0" stroke="black" d="M 138 84 168 177"/>
<path stroke-width="3.8496932515337425" stroke="black" d="M 20 320 168 177"/>
<path stroke-width="4.328220858895706" stroke="black" d="M 20 320 138 84"/>
<path stroke-width="0.5" stroke="black" d="M 420 256 20 320"/>
<path stroke-width="0.5" stroke="black" d="M 420 256 387 20"/>
<path stroke-width="3.8496932515337425" stroke="black" d="M 420 256 168 177"/>
<path stroke-width="4.328220858895706" stroke="black" d="M 420 256 138 84"/>
<path stroke-width="0.5" stroke="black" d="M 387 20 20 320"/>
<path stroke-width="0.5" stroke="black" d="M 387 20 420 256"/>
<path stroke-width="3.8496932515337425" stroke="black" d="M 387 20 168 177"/>
<path stroke-width="4.328220858895706" stroke="black" d="M 387 20 138 84"/>
<path stroke-width="3.8496932515337425" stroke="black" d="M 168 177 20 320"/>
<path stroke-width="3.8496932515337425" stroke="black" d="M 168 177 420 256"/>
<path stroke-width="3.8496932515337425" stroke="black" d="M 168 177 387 20"/>
<path stroke-width="20.0" stroke="black" d="M 168 177 138 84"/>
<path stroke-width="4.328220858895706" stroke="black" d="M 138 84 20 320"/>
<path stroke-width="4.328220858895706" stroke="black" d="M 138 84 420 256"/>
<path stroke-width="4.328220858895706" stroke="black" d="M 138 84 387 20"/>
<path stroke-width="0.5" stroke="black" d="M 20 320 387 20"/>
<path stroke-width="0.5" stroke="black" d="M 20 320 420 256"/>
<circle cx="138" cy="84" r="20.0" style="fill:gray;stroke:black;stroke-width:1.0"/>
<circle cx="168" cy="177" r="20.0" style="fill:gray;stroke:black;stroke-width:1.0"/>
<circle cx="387" cy="20" r="20.0" style="fill:gray;stroke:black;stroke-width:1.0"/>
<circle cx="420" cy="256" r="20.0" style="fill:gray;stroke:black;stroke-width:1.0"/>
<circle cx="20" cy="320" r="20.0" style="fill:gray;stroke:black;stroke-width:1.0"/>
</svg>
