<svg width="440" height="340" xmlns="http://www.w3.org/2000/svg">
<path stroke-width="20.0" stroke="black" d="M 55 102 56 110"/>
<path stroke-width="20.0" stroke="black" d="M 20 100 33 96"/>
<path stroke-width="20.0" stroke="black" d="M 121 141 134 139"/>
<path stroke-width="0.5" stroke="black" d="M 121 141 94 146"/>
<path stroke-width="0.5" stroke="black" d="M 121 141 100 143"/>
<path stroke-width="20.0" stroke="black" d="M 134 139 121 141"/>
<path stroke-width="0.5" stroke="black" d="M 94 146 62 125"/>
<path stroke-width="0.5" stroke="black" d="M 94 146 121 141"/>
<path stroke-width="20.0" stroke="black" d="M 94 146 103 157"/>
<path stroke-width="20.0" stroke="black" d="M 103 157 94 146"/>
<path stroke-width="0.5" stroke="black" d="M 268 117 263 148"/>
<path stroke-width="20.0" stroke="black" d="M 268 117 278 110"/>
<path stroke-width="0.5" stroke="black" d="M 268 117 250 95"/>
<path stroke-width="20.0" stroke="black" d="M 278 110 268 117"/>
<path stroke-width="20.0" stroke="black" d="M 409 295 420 293"/>
<path stroke-width="0.5" stroke="black" d="M 409 295 396 309"/>
<path stroke-width="0.5" stroke="black" d="M 409 295 390 291"/>
<path stroke-width="20.0" stroke="black" d="M 420 293 409 295"/>
<path stroke-width="0.5" stroke="black" d="M 100 143 121 141"/>
<path stroke-width="20.0" stroke="black" d="M 100 143 104 130"/>
<path stroke-width="0.5" stroke="black" d="M 100 143 77 175"/>
<path stroke-width="20.0" stroke="black" d="M 104 130 100 143"/>
<path stroke-width="0.5" stroke="black" d="M 33 96 31 60"/>
<path stroke-width="0.5" stroke="black" d="M 77 175 61 208"/>
<path stroke-width="20.0" stroke="black" d="M 33 96 20 100"/>
<path stroke-width="20.0" stroke="black" d="M 61 134 62 125"/>
<path stroke-width="0.5" stroke="black" d="M 61 208 77 175"/>
<path stroke-width="20.0" stroke="black" d="M 66 218 61 208"/>
<path stroke-width="20.0" stroke="black" d="M 79 33 88 22"/>
<path stroke-width="0.5" stroke="black" d="M 79 33 51 32"/>
<path stroke-width="0.5" stroke="black" d="M 79 33 73 69"/>
<path stroke-width="20.0" stroke="black" d="M 88 22 79 33"/>
<path stroke-width="20.0" stroke="black" d="M 38 204 41 218"/>
<path stroke-width="0.5" stroke="black" d="M 38 204 38 231"/>
<path stroke-width="0.5" stroke="black" d="M 38 204 40 162"/>
<path stroke-width="20.0" stroke="black" d="M 41 218 38 204"/>
<path stroke-width="0.5" stroke="black" d="M 38 231 61 208"/>
<path stroke-width="0.5" stroke="black" d="M 38 231 38 204"/>
<path stroke-width="20.0" stroke="black" d="M 38 231 31 243"/>
<path stroke-width="20.0" stroke="black" d="M 31 243 38 231"/>
<path stroke-width="20.0" stroke="black" d="M 263 148 274 151"/>
<path stroke-width="0.5" stroke="black" d="M 263 148 268 117"/>
<path stroke-width="0.5" stroke="black" d="M 263 148 243 173"/>
<path stroke-width="20.0" stroke="black" d="M 274 151 263 148"/>
<path stroke-width="20.0" stroke="black" d="M 62 125 61 134"/>
<path stroke-width="0.5" stroke="black" d="M 62 125 33 96"/>
<path stroke-width="0.5" stroke="black" d="M 62 125 94 146"/>
<path stroke-width="0.5" stroke="black" d="M 33 96 62 125"/>
<path stroke-width="0.5" stroke="black" d="M 77 175 100 143"/>
<path stroke-width="20.0" stroke="black" d="M 77 175 67 172"/>
<path stroke-width="20.0" stroke="black" d="M 67 172 77 175"/>
<path stroke-width="20.0" stroke="black" d="M 390 291 382 283"/>
<path stroke-width="20.0" stroke="black" d="M 382 283 390 291"/>
<path stroke-width="0.5" stroke="black" d="M 73 69 79 33"/>
<path stroke-width="20.0" stroke="black" d="M 73 69 83 59"/>
<path stroke-width="0.5" stroke="black" d="M 73 69 56 110"/>
<path stroke-width="20.0" stroke="black" d="M 83 59 73 69"/>
<path stroke-width="0.5" stroke="black" d="M 227 126 228 99"/>
<path stroke-width="20.0" stroke="black" d="M 227 126 217 123"/>
<path stroke-width="0.5" stroke="black" d="M 227 126 233 153"/>
<path stroke-width="20.0" stroke="black" d="M 217 123 227 126"/>
<path stroke-width="0.5" stroke="black" d="M 233 153 243 173"/>
<path stroke-width="0.5" stroke="black" d="M 233 153 227 126"/>
<path stroke-width="20.0" stroke="black" d="M 233 153 238 161"/>
<path stroke-width="20.0" stroke="black" d="M 238 161 233 153"/>
<path stroke-width="0.5" stroke="black" d="M 40 162 38 204"/>
<path stroke-width="20.0" stroke="black" d="M 40 162 32 169"/>
<path stroke-width="0.5" stroke="black" d="M 40 162 56 110"/>
<path stroke-width="20.0" stroke="black" d="M 32 169 40 162"/>
<path stroke-width="0.5" stroke="black" d="M 56 110 73 69"/>
<path stroke-width="0.5" stroke="black" d="M 56 110 40 162"/>
<path stroke-width="20.0" stroke="black" d="M 56 110 55 102"/>
<path stroke-width="0.5" stroke="black" d="M 390 291 396 309"/>
<path stroke-width="0.5" stroke="black" d="M 390 291 409 295"/>
<path stroke-width="20.0" stroke="black" d="M 395 320 396 309"/>
<path stroke-width="0.5" stroke="black" d="M 396 309 390 291"/>
<path stroke-width="0.5" stroke="black" d="M 51 32 79 33"/>
<path stroke-width="20.0" stroke="black" d="M 51 32 51 20"/>
<path stroke-width="0.5" stroke="black" d="M 51 32 31 60"/>
<path stroke-width="20.0" stroke="black" d="M 51 20 51 32"/>
<path stroke-width="0.5" stroke="black" d="M 31 60 33 96"/>
<path stroke-width="0.5" stroke="black" d="M 31 60 51 32"/>
<path stroke-width="20.0" stroke="black" d="M 31 60 20 55"/>
<path stroke-width="20.0" stroke="black" d="M 20 55 31 60"/>
<path stroke-width="0.5" stroke="black" d="M 243 173 263 148"/>
<path stroke-width="20.0" stroke="black" d="M 243 173 235 185"/>
<path stroke-width="0.5" stroke="black" d="M 61 208 38 231"/>
<path stroke-width="0.5" stroke="black" d="M 243 173 233 153"/>
<path stroke-width="0.5" stroke="black" d="M 250 95 268 117"/>
<path stroke-width="20.0" stroke="black" d="M 250 95 247 84"/>
<path stroke-width="0.5" stroke="black" d="M 250 95 228 99"/>
<path stroke-width="20.0" stroke="black" d="M 247 84 250 95"/>
<path stroke-width="0.5" stroke="black" d="M 228 99 250 95"/>
<path stroke-width="20.0" stroke="black" d="M 228 99 223 88"/>
<path stroke-width="0.5" stroke="black" d="M 228 99 227 126"/>
<path stroke-width="20.0" stroke="black" d="M 223 88 228 99"/>
<path stroke-width="0.5" stroke="black" d="M 396 309 409 295"/>
<path stroke-width="20.0" stroke="black" d="M 396 309 395 320"/>
<path stroke-width="20.0" stroke="black" d="M 235 185 243 173"/>
<path stroke-width="20.0" stroke="black" d="M 61 208 66 218"/>
<circle cx="55" cy="102" r="7.0" style="fill:orange;stroke:black;stroke-width:1.0"/>
<circle cx="56" cy="110" r="7.0" style="fill:orange;stroke:black;stroke-width:1.0"/>
<circle cx="32" cy="169" r="7.0" style="fill:orange;stroke:black;stroke-width:1.0"/>
<circle cx="40" cy="162" r="7.0" style="fill:orange;stroke:black;stroke-width:1.0"/>
<circle cx="238" cy="161" r="7.0" style="fill:purple;stroke:black;stroke-width:1.0"/>
<circle cx="233" cy="153" r="7.0" style="fill:purple;stroke:black;stroke-width:1.0"/>
<circle cx="217" cy="123" r="7.0" style="fill:purple;stroke:black;stroke-width:1.0"/>
<circle cx="227" cy="126" r="7.0" style="fill:purple;stroke:black;stroke-width:1.0"/>
<circle cx="83" cy="59" r="7.0" style="fill:blue;stroke:black;stroke-width:1.0"/>
<circle cx="73" cy="69" r="7.0" style="fill:blue;stroke:black;stroke-width:1.0"/>
<circle cx="382" cy="283" r="7.0" style="fill:blue;stroke:black;stroke-width:1.0"/>
<circle cx="390" cy="291" r="7.0" style="fill:blue;stroke:black;stroke-width:1.0"/>
<circle cx="395" cy="320" r="7.0" style="fill:blue;stroke:black;stroke-width:1.0"/>
<circle cx="396" cy="309" r="7.0" style="fill:blue;stroke:black;stroke-width:1.0"/>
<circle cx="223" cy="88" r="7.0" style="fill:red;stroke:black;stroke-width:1.0"/>
<circle cx="228" cy="99" r="7.0" style="fill:red;stroke:black;stroke-width:1.0"/>
<circle cx="247" cy="84" r="7.0" style="fill:red;stroke:black;stroke-width:1.0"/>
<circle cx="250" cy="95" r="7.0" style="fill:red;stroke:black;stroke-width:1.0"/>
<circle cx="235" cy="185" r="7.0" style="fill:aqua;stroke:black;stroke-width:1.0"/>
<circle cx="243" cy="173" r="7.0" style="fill:aqua;stroke:black;stroke-width:1.0"/>
<circle cx="20" cy="55" r="7.0" style="fill:yellow;stroke:black;stroke-width:1.0"/>
<circle cx="31" cy="60" r="7.0" style="fill:yellow;stroke:black;stroke-width:1.0"/>
<circle cx="51" cy="20" r="7.0" style="fill:yellow;stroke:black;stroke-width:1.0"/>
<circle cx="51" cy="32" r="7.0" style="fill:yellow;stroke:black;stroke-width:1.0"/>
<circle cx="67" cy="172" r="7.0" style="fill:green;stroke:black;stroke-width:1.0"/>
<circle cx="77" cy="175" r="7.0" style="fill:green;stroke:black;stroke-width:1.0"/>
<circle cx="104" cy="130" r="7.0" style="fill:green;stroke:black;stroke-width:1.0"/>
<circle cx="100" cy="143" r="7.0" style="fill:green;stroke:black;stroke-width:1.0"/>
<circle cx="420" cy="293" r="7.0" style="fill:blue;stroke:black;stroke-width:1.0"/>
<circle cx="409" cy="295" r="7.0" style="fill:blue;stroke:black;stroke-width:1.0"/>
<circle cx="278" cy="110" r="7.0" style="fill:red;stroke:black;stroke-width:1.0"/>
<circle cx="268" cy="117" r="7.0" style="fill:red;stroke:black;stroke-width:1.0"/>
<circle cx="103" cy="157" r="7.0" style="fill:fuchsia;stroke:black;stroke-width:1.0"/>
<circle cx="94" cy="146" r="7.0" style="fill:fuchsia;stroke:black;stroke-width:1.0"/>
<circle cx="134" cy="139" r="7.0" style="fill:fuchsia;stroke:black;stroke-width:1.0"/>
<circle cx="121" cy="141" r="7.0" style="fill:fuchsia;stroke:black;stroke-width:1.0"/>
<circle cx="20" cy="100" r="7.0" style="fill:olive;stroke:black;stroke-width:1.0"/>
<circle cx="33" cy="96" r="7.0" style="fill:olive;stroke:black;stroke-width:1.0"/>
<circle cx="61" cy="134" r="7.0" style="fill:olive;stroke:black;stroke-width:1.0"/>
<circle cx="62" cy="125" r="7.0" style="fill:olive;stroke:black;stroke-width:1.0"/>
<circle cx="274" cy="151" r="7.0" style="fill:aqua;stroke:black;stroke-width:1.0"/>
<circle cx="263" cy="148" r="7.0" style="fill:aqua;stroke:black;stroke-width:1.0"/>
<circle cx="31" cy="243" r="7.0" style="fill:brown;stroke:black;stroke-width:1.0"/>
<circle cx="38" cy="231" r="7.0" style="fill:brown;stroke:black;stroke-width:1.0"/>
<circle cx="41" cy="218" r="7.0" style="fill:brown;stroke:black;stroke-width:1.0"/>
<circle cx="38" cy="204" r="7.0" style="fill:brown;stroke:black;stroke-width:1.0"/>
<circle cx="88" cy="22" r="7.0" style="fill:blue;stroke:black;stroke-width:1.0"/>
<circle cx="79" cy="33" r="7.0" style="fill:blue;stroke:black;stroke-width:1.0"/>
<circle cx="66" cy="218" r="7.0" style="fill:green;stroke:black;stroke-width:1.0"/>
<circle cx="61" cy="208" r="7.0" style="fill:green;stroke:black;stroke-width:1.0"/>
</svg>
