<svg width="440" height="340" xmlns="http://www.w3.org/2000/svg">
<path stroke-width="1" stroke="black" d="M 286 111 296 116"/>
<path stroke-width="1" stroke="black" d="M 400 195 393 187"/>
<path stroke-width="1" stroke="black" d="M 389 86 394 73"/>
<path stroke-width="1" stroke="black" d="M 389 86 410 111"/>
<path stroke-width="1" stroke="black" d="M 389 86 358 86"/>
<path stroke-width="1" stroke="black" d="M 394 73 389 86"/>
<path stroke-width="1" stroke="black" d="M 410 111 407 152"/>
<path stroke-width="1" stroke="black" d="M 410 111 389 86"/>
<path stroke-width="1" stroke="black" d="M 410 111 420 105"/>
<path stroke-width="1" stroke="black" d="M 420 105 410 111"/>
<path stroke-width="1" stroke="black" d="M 121 97 106 126"/>
<path stroke-width="1" stroke="black" d="M 121 97 120 82"/>
<path stroke-width="1" stroke="black" d="M 121 97 141 108"/>
<path stroke-width="1" stroke="black" d="M 120 82 121 97"/>
<path stroke-width="1" stroke="black" d="M 24 285 20 274"/>
<path stroke-width="1" stroke="black" d="M 24 285 38 292"/>
<path stroke-width="1" stroke="black" d="M 24 285 29 307"/>
<path stroke-width="1" stroke="black" d="M 20 274 24 285"/>
<path stroke-width="1" stroke="black" d="M 358 86 389 86"/>
<path stroke-width="1" stroke="black" d="M 358 86 360 96"/>
<path stroke-width="1" stroke="black" d="M 358 86 324 83"/>
<path stroke-width="1" stroke="black" d="M 360 96 358 86"/>
<path stroke-width="1" stroke="black" d="M 393 187 369 217"/>
<path stroke-width="1" stroke="black" d="M 324 83 295 61"/>
<path stroke-width="1" stroke="black" d="M 393 187 400 195"/>
<path stroke-width="1" stroke="black" d="M 418 153 407 152"/>
<path stroke-width="1" stroke="black" d="M 295 61 324 83"/>
<path stroke-width="1" stroke="black" d="M 283 59 295 61"/>
<path stroke-width="1" stroke="black" d="M 309 201 302 211"/>
<path stroke-width="1" stroke="black" d="M 309 201 338 222"/>
<path stroke-width="1" stroke="black" d="M 309 201 296 160"/>
<path stroke-width="1" stroke="black" d="M 302 211 309 201"/>
<path stroke-width="1" stroke="black" d="M 311 34 317 20"/>
<path stroke-width="1" stroke="black" d="M 311 34 292 32"/>
<path stroke-width="1" stroke="black" d="M 311 34 308 72"/>
<path stroke-width="1" stroke="black" d="M 317 20 311 34"/>
<path stroke-width="1" stroke="black" d="M 292 32 295 61"/>
<path stroke-width="1" stroke="black" d="M 292 32 311 34"/>
<path stroke-width="1" stroke="black" d="M 292 32 285 22"/>
<path stroke-width="1" stroke="black" d="M 285 22 292 32"/>
<path stroke-width="1" stroke="black" d="M 106 126 97 124"/>
<path stroke-width="1" stroke="black" d="M 106 126 121 97"/>
<path stroke-width="1" stroke="black" d="M 106 126 100 160"/>
<path stroke-width="1" stroke="black" d="M 97 124 106 126"/>
<path stroke-width="1" stroke="black" d="M 407 152 418 153"/>
<path stroke-width="1" stroke="black" d="M 407 152 393 187"/>
<path stroke-width="1" stroke="black" d="M 407 152 410 111"/>
<path stroke-width="1" stroke="black" d="M 393 187 407 152"/>
<path stroke-width="1" stroke="black" d="M 324 83 358 86"/>
<path stroke-width="1" stroke="black" d="M 324 83 321 95"/>
<path stroke-width="1" stroke="black" d="M 321 95 324 83"/>
<path stroke-width="1" stroke="black" d="M 29 307 31 320"/>
<path stroke-width="1" stroke="black" d="M 31 320 29 307"/>
<path stroke-width="1" stroke="black" d="M 296 160 309 201"/>
<path stroke-width="1" stroke="black" d="M 296 160 285 164"/>
<path stroke-width="1" stroke="black" d="M 296 160 296 116"/>
<path stroke-width="1" stroke="black" d="M 285 164 296 160"/>
<path stroke-width="1" stroke="black" d="M 133 175 142 142"/>
<path stroke-width="1" stroke="black" d="M 133 175 137 187"/>
<path stroke-width="1" stroke="black" d="M 133 175 111 188"/>
<path stroke-width="1" stroke="black" d="M 137 187 133 175"/>
<path stroke-width="1" stroke="black" d="M 111 188 100 160"/>
<path stroke-width="1" stroke="black" d="M 111 188 133 175"/>
<path stroke-width="1" stroke="black" d="M 111 188 108 202"/>
<path stroke-width="1" stroke="black" d="M 108 202 111 188"/>
<path stroke-width="1" stroke="black" d="M 308 72 311 34"/>
<path stroke-width="1" stroke="black" d="M 308 72 316 63"/>
<path stroke-width="1" stroke="black" d="M 308 72 296 116"/>
<path stroke-width="1" stroke="black" d="M 316 63 308 72"/>
<path stroke-width="1" stroke="black" d="M 296 116 296 160"/>
<path stroke-width="1" stroke="black" d="M 296 116 308 72"/>
<path stroke-width="1" stroke="black" d="M 296 116 286 111"/>
<path stroke-width="1" stroke="black" d="M 29 307 38 292"/>
<path stroke-width="1" stroke="black" d="M 29 307 24 285"/>
<path stroke-width="1" stroke="black" d="M 46 289 38 292"/>
<path stroke-width="1" stroke="black" d="M 38 292 29 307"/>
<path stroke-width="1" stroke="black" d="M 338 222 309 201"/>
<path stroke-width="1" stroke="black" d="M 338 222 337 237"/>
<path stroke-width="1" stroke="black" d="M 338 222 369 217"/>
<path stroke-width="1" stroke="black" d="M 337 237 338 222"/>
<path stroke-width="1" stroke="black" d="M 369 217 393 187"/>
<path stroke-width="1" stroke="black" d="M 369 217 338 222"/>
<path stroke-width="1" stroke="black" d="M 369 217 374 228"/>
<path stroke-width="1" stroke="black" d="M 374 228 369 217"/>
<path stroke-width="1" stroke="black" d="M 100 160 106 126"/>
<path stroke-width="1" stroke="black" d="M 100 160 91 166"/>
<path stroke-width="1" stroke="black" d="M 295 61 292 32"/>
<path stroke-width="1" stroke="black" d="M 100 160 111 188"/>
<path stroke-width="1" stroke="black" d="M 141 108 121 97"/>
<path stroke-width="1" stroke="black" d="M 141 108 148 97"/>
<path stroke-width="1" stroke="black" d="M 141 108 142 142"/>
<path stroke-width="1" stroke="black" d="M 148 97 141 108"/>
<path stroke-width="1" stroke="black" d="M 142 142 141 108"/>
<path stroke-width="1" stroke="black" d="M 142 142 150 138"/>
<path stroke-width="1" stroke="black" d="M 142 142 133 175"/>
<path stroke-width="1" stroke="black" d="M 150 138 142 142"/>
<path stroke-width="1" stroke="black" d="M 38 292 24 285"/>
<path stroke-width="1" stroke="black" d="M 38 292 46 289"/>
<path stroke-width="1" stroke="black" d="M 91 166 100 160"/>
<path stroke-width="1" stroke="black" d="M 295 61 283 59"/>
<circle cx="286" cy="111" r="7.0" style="fill:orange;stroke:black;stroke-width:1.0"/>
<circle cx="296" cy="116" r="7.0" style="fill:orange;stroke:black;stroke-width:1.0"/>
<circle cx="316" cy="63" r="7.0" style="fill:orange;stroke:black;stroke-width:1.0"/>
<circle cx="308" cy="72" r="7.0" style="fill:orange;stroke:black;stroke-width:1.0"/>
<circle cx="108" cy="202" r="7.0" style="fill:purple;stroke:black;stroke-width:1.0"/>
<circle cx="111" cy="188" r="7.0" style="fill:purple;stroke:black;stroke-width:1.0"/>
<circle cx="137" cy="187" r="7.0" style="fill:purple;stroke:black;stroke-width:1.0"/>
<circle cx="133" cy="175" r="7.0" style="fill:purple;stroke:black;stroke-width:1.0"/>
<circle cx="285" cy="164" r="7.0" style="fill:blue;stroke:black;stroke-width:1.0"/>
<circle cx="296" cy="160" r="7.0" style="fill:blue;stroke:black;stroke-width:1.0"/>
<circle cx="31" cy="320" r="7.0" style="fill:blue;stroke:black;stroke-width:1.0"/>
<circle cx="29" cy="307" r="7.0" style="fill:blue;stroke:black;stroke-width:1.0"/>
<circle cx="46" cy="289" r="7.0" style="fill:blue;stroke:black;stroke-width:1.0"/>
<circle cx="38" cy="292" r="7.0" style="fill:blue;stroke:black;stroke-width:1.0"/>
<circle cx="150" cy="138" r="7.0" style="fill:red;stroke:black;stroke-width:1.0"/>
<circle cx="142" cy="142" r="7.0" style="fill:red;stroke:black;stroke-width:1.0"/>
<circle cx="148" cy="97" r="7.0" style="fill:red;stroke:black;stroke-width:1.0"/>
<circle cx="141" cy="108" r="7.0" style="fill:red;stroke:black;stroke-width:1.0"/>
<circle cx="91" cy="166" r="7.0" style="fill:aqua;stroke:black;stroke-width:1.0"/>
<circle cx="100" cy="160" r="7.0" style="fill:aqua;stroke:black;stroke-width:1.0"/>
<circle cx="374" cy="228" r="7.0" style="fill:yellow;stroke:black;stroke-width:1.0"/>
<circle cx="369" cy="217" r="7.0" style="fill:yellow;stroke:black;stroke-width:1.0"/>
<circle cx="337" cy="237" r="7.0" style="fill:yellow;stroke:black;stroke-width:1.0"/>
<circle cx="338" cy="222" r="7.0" style="fill:yellow;stroke:black;stroke-width:1.0"/>
<circle cx="321" cy="95" r="7.0" style="fill:green;stroke:black;stroke-width:1.0"/>
<circle cx="324" cy="83" r="7.0" style="fill:green;stroke:black;stroke-width:1.0"/>
<circle cx="360" cy="96" r="7.0" style="fill:green;stroke:black;stroke-width:1.0"/>
<circle cx="358" cy="86" r="7.0" style="fill:green;stroke:black;stroke-width:1.0"/>
<circle cx="20" cy="274" r="7.0" style="fill:blue;stroke:black;stroke-width:1.0"/>
<circle cx="24" cy="285" r="7.0" style="fill:blue;stroke:black;stroke-width:1.0"/>
<circle cx="120" cy="82" r="7.0" style="fill:red;stroke:black;stroke-width:1.0"/>
<circle cx="121" cy="97" r="7.0" style="fill:red;stroke:black;stroke-width:1.0"/>
<circle cx="420" cy="105" r="7.0" style="fill:fuchsia;stroke:black;stroke-width:1.0"/>
<circle cx="410" cy="111" r="7.0" style="fill:fuchsia;stroke:black;stroke-width:1.0"/>
<circle cx="394" cy="73" r="7.0" style="fill:fuchsia;stroke:black;stroke-width:1.0"/>
<circle cx="389" cy="86" r="7.0" style="fill:fuchsia;stroke:black;stroke-width:1.0"/>
<circle cx="400" cy="195" r="7.0" style="fill:olive;stroke:black;stroke-width:1.0"/>
<circle cx="393" cy="187" r="7.0" style="fill:olive;stroke:black;stroke-width:1.0"/>
<circle cx="418" cy="153" r="7.0" style="fill:olive;stroke:black;stroke-width:1.0"/>
<circle cx="407" cy="152" r="7.0" style="fill:olive;stroke:black;stroke-width:1.0"/>
<circle cx="97" cy="124" r="7.0" style="fill:aqua;stroke:black;stroke-width:1.0"/>
<circle cx="106" cy="126" r="7.0" style="fill:aqua;stroke:black;stroke-width:1.0"/>
<circle cx="285" cy="22" r="7.0" style="fill:brown;stroke:black;stroke-width:1.0"/>
<circle cx="292" cy="32" r="7.0" style="fill:brown;stroke:black;stroke-width:1.0"/>
<circle cx="317" cy="20" r="7.0" style="fill:brown;stroke:black;stroke-width:1.0"/>
<circle cx="311" cy="34" r="7.0" style="fill:brown;stroke:black;stroke-width:1.0"/>
<circle cx="302" cy="211" r="7.0" style="fill:blue;stroke:black;stroke-width:1.0"/>
<circle cx="309" cy="201" r="7.0" style="fill:blue;stroke:black;stroke-width:1.0"/>
<circle cx="283" cy="59" r="7.0" style="fill:green;stroke:black;stroke-width:1.0"/>
<circle cx="295" cy="61" r="7.0" style="fill:green;stroke:black;stroke-width:1.0"/>
</svg>
