<svg width="440" height="340" xmlns="http://www.w3.org/2000/svg">
<path stroke-width="1" stroke="black" d="M 58 320 39 279"/>
<path stroke-width="1" stroke="black" d="M 420 54 380 44"/>
<path stroke-width="1" stroke="black" d="M 334 32 380 44"/>
<path stroke-width="1" stroke="black" d="M 334 32 281 24"/>
<path stroke-width="1" stroke="black" d="M 281 24 334 32"/>
<path stroke-width="1" stroke="black" d="M 281 24 229 20"/>
<path stroke-width="1" stroke="black" d="M 229 20 281 24"/>
<path stroke-width="1" stroke="black" d="M 229 20 173 23"/>
<path stroke-width="1" stroke="black" d="M 173 23 229 20"/>
<path stroke-width="1" stroke="black" d="M 173 23 122 40"/>
<path stroke-width="1" stroke="black" d="M 122 40 173 23"/>
<path stroke-width="1" stroke="black" d="M 122 40 72 68"/>
<path stroke-width="1" stroke="black" d="M 72 68 122 40"/>
<path stroke-width="1" stroke="black" d="M 72 68 41 115"/>
<path stroke-width="1" stroke="black" d="M 41 115 72 68"/>
<path stroke-width="1" stroke="black" d="M 41 115 20 170"/>
<path stroke-width="1" stroke="black" d="M 20 170 41 115"/>
<path stroke-width="1" stroke="black" d="M 20 170 21 228"/>
<path stroke-width="1" stroke="black" d="M 21 228 20 170"/>
<path stroke-width="1" stroke="black" d="M 21 228 39 279"/>
<path stroke-width="1" stroke="black" d="M 39 279 21 228"/>
<path stroke-width="1" stroke="black" d="M 39 279 58 320"/>
<path stroke-width="1" stroke="black" d="M 380 44 334 32"/>
<path stroke-width="1" stroke="black" d="M 380 44 420 54"/>
<circle cx="58" cy="320" r="7.0" style="fill:red;stroke:black;stroke-width:1.0"/>
<circle cx="39" cy="279" r="7.0" style="fill:red;stroke:black;stroke-width:1.0"/>
<circle cx="21" cy="228" r="7.0" style="fill:red;stroke:black;stroke-width:1.0"/>
<circle cx="20" cy="170" r="7.0" style="fill:red;stroke:black;stroke-width:1.0"/>
<circle cx="41" cy="115" r="7.0" style="fill:green;stroke:black;stroke-width:1.0"/>
<circle cx="72" cy="68" r="7.0" style="fill:green;stroke:black;stroke-width:1.0"/>
<circle cx="122" cy="40" r="7.0" style="fill:green;stroke:black;stroke-width:1.0"/>
<circle cx="173" cy="23" r="7.0" style="fill:green;stroke:black;stroke-width:1.0"/>
<circle cx="229" cy="20" r="7.0" style="fill:blue;stroke:black;stroke-width:1.0"/>
<circle cx="281" cy="24" r="7.0" style="fill:blue;stroke:black;stroke-width:1.0"/>
<circle cx="334" cy="32" r="7.0" style="fill:blue;stroke:black;stroke-width:1.0"/>
<circle cx="420" cy="54" r="7.0" style="fill:blue;stroke:black;stroke-width:1.0"/>
<circle cx="380" cy="44" r="7.0" style="fill:blue;stroke:black;stroke-width:1.0"/>
</svg>
