<svg width="440" height="340" xmlns="http://www.w3.org/2000/svg">
<path stroke-width="1" stroke="black" d="M 20 320 45 293"/>
<path stroke-width="1" stroke="black" d="M 420 20 391 30"/>
<path stroke-width="1" stroke="black" d="M 357 45 391 30"/>
<path stroke-width="1" stroke="black" d="M 357 45 321 63"/>
<path stroke-width="1" stroke="black" d="M 321 63 357 45"/>
<path stroke-width="1" stroke="black" d="M 321 63 284 87"/>
<path stroke-width="1" stroke="black" d="M 284 87 321 63"/>
<path stroke-width="1" stroke="black" d="M 284 87 249 111"/>
<path stroke-width="1" stroke="black" d="M 249 111 284 87"/>
<path stroke-width="1" stroke="black" d="M 249 111 211 142"/>
<path stroke-width="1" stroke="black" d="M 211 142 249 111"/>
<path stroke-width="1" stroke="black" d="M 211 142 178 169"/>
<path stroke-width="1" stroke="black" d="M 178 169 211 142"/>
<path stroke-width="1" stroke="black" d="M 178 169 141 203"/>
<path stroke-width="1" stroke="black" d="M 141 203 178 169"/>
<path stroke-width="1" stroke="black" d="M 141 203 108 231"/>
<path stroke-width="1" stroke="black" d="M 108 231 141 203"/>
<path stroke-width="1" stroke="black" d="M 108 231 75 265"/>
<path stroke-width="1" stroke="black" d="M 75 265 108 231"/>
<path stroke-width="1" stroke="black" d="M 75 265 45 293"/>
<path stroke-width="1" stroke="black" d="M 45 293 75 265"/>
<path stroke-width="1" stroke="black" d="M 45 293 20 320"/>
<path stroke-width="1" stroke="black" d="M 391 30 357 45"/>
<path stroke-width="1" stroke="black" d="M 391 30 420 20"/>
<circle cx="20" cy="320" r="7.0" style="fill:red;stroke:black;stroke-width:1.0"/>
<circle cx="45" cy="293" r="7.0" style="fill:red;stroke:black;stroke-width:1.0"/>
<circle cx="75" cy="265" r="7.0" style="fill:red;stroke:black;stroke-width:1.0"/>
<circle cx="108" cy="231" r="7.0" style="fill:red;stroke:black;stroke-width:1.0"/>
<circle cx="141" cy="203" r="7.0" style="fill:green;stroke:black;stroke-width:1.0"/>
<circle cx="178" cy="169" r="7.0" style="fill:green;stroke:black;stroke-width:1.0"/>
<circle cx="211" cy="142" r="7.0" style="fill:green;stroke:black;stroke-width:1.0"/>
<circle cx="249" cy="111" r="7.0" style="fill:green;stroke:black;stroke-width:1.0"/>
<circle cx="284" cy="87" r="7.0" style="fill:blue;stroke:black;stroke-width:1.0"/>
<circle cx="321" cy="63" r="7.0" style="fill:blue;stroke:black;stroke-width:1.0"/>
<circle cx="357" cy="45" r="7.0" style="fill:blue;stroke:black;stroke-width:1.0"/>
<circle cx="420" cy="20" r="7.0" style="fill:blue;stroke:black;stroke-width:1.0"/>
<circle cx="391" cy="30" r="7.0" style="fill:blue;stroke:black;stroke-width:1.0"/>
</svg>
