<svg width="440" height="340" xmlns="http://www.w3.org/2000/svg">
<path stroke-width="1" stroke="black" d="M 20 320 49 315"/>
<path stroke-width="1" stroke="black" d="M 420 20 392 36"/>
<path stroke-width="1" stroke="black" d="M 359 61 392 36"/>
<path stroke-width="1" stroke="black" d="M 359 61 325 87"/>
<path stroke-width="1" stroke="black" d="M 325 87 359 61"/>
<path stroke-width="1" stroke="black" d="M 325 87 291 123"/>
<path stroke-width="1" stroke="black" d="M 291 123 325 87"/>
<path stroke-width="1" stroke="black" d="M 291 123 257 155"/>
<path stroke-width="1" stroke="black" d="M 257 155 291 123"/>
<path stroke-width="1" stroke="black" d="M 257 155 225 198"/>
<path stroke-width="1" stroke="black" d="M 225 198 257 155"/>
<path stroke-width="1" stroke="black" d="M 225 198 191 229"/>
<path stroke-width="1" stroke="black" d="M 191 229 225 198"/>
<path stroke-width="1" stroke="black" d="M 191 229 156 264"/>
<path stroke-width="1" stroke="black" d="M 156 264 191 229"/>
<path stroke-width="1" stroke="black" d="M 156 264 120 287"/>
<path stroke-width="1" stroke="black" d="M 120 287 156 264"/>
<path stroke-width="1" stroke="black" d="M 120 287 83 305"/>
<path stroke-width="1" stroke="black" d="M 83 305 120 287"/>
<path stroke-width="1" stroke="black" d="M 83 305 49 315"/>
<path stroke-width="1" stroke="black" d="M 49 315 83 305"/>
<path stroke-width="1" stroke="black" d="M 49 315 20 320"/>
<path stroke-width="1" stroke="black" d="M 392 36 359 61"/>
<path stroke-width="1" stroke="black" d="M 392 36 420 20"/>
<circle cx="20" cy="320" r="20.0" style="fill:gray;stroke:black;stroke-width:1.0"/>
<circle cx="49" cy="315" r="20.0" style="fill:gray;stroke:black;stroke-width:1.0"/>
<circle cx="83" cy="305" r="20.0" style="fill:gray;stroke:black;stroke-width:1.0"/>
<circle cx="120" cy="287" r="20.0" style="fill:gray;stroke:black;stroke-width:1.0"/>
<circle cx="156" cy="264" r="20.0" style="fill:gray;stroke:black;stroke-width:1.0"/>
<circle cx="191" cy="229" r="20.0" style="fill:gray;stroke:black;stroke-width:1.0"/>
<circle cx="225" cy="198" r="20.0" style="fill:gray;stroke:black;stroke-width:1.0"/>
<circle cx="257" cy="155" r="20.0" style="fill:gray;stroke:black;stroke-width:1.0"/>
<circle cx="291" cy="123" r="20.0" style="fill:gray;stroke:black;stroke-width:1.0"/>
<circle cx="325" cy="87" r="20.0" style="fill:gray;stroke:black;stroke-width:1.0"/>
<circle cx="359" cy="61" r="20.0" style="fill:gray;stroke:black;stroke-width:1.0"/>
<circle cx="420" cy="20" r="20.0" style="fill:gray;stroke:black;stroke-width:1.0"/>
<circle cx="392" cy="36" r="20.0" style="fill:gray;stroke:black;stroke-width:1.0"/>
</svg>
