<svg width="440" height="340" xmlns="http://www.w3.org/2000/svg">
<path stroke-width="1" stroke="black" d="M 420 20 348 25"/>
<path stroke-width="1" stroke="black" d="M 298 320 236 305"/>
<path stroke-width="1" stroke="black" d="M 165 284 236 305"/>
<path stroke-width="1" stroke="black" d="M 165 284 101 258"/>
<path stroke-width="1" stroke="black" d="M 101 258 165 284"/>
<path stroke-width="1" stroke="black" d="M 101 258 48 224"/>
<path stroke-width="1" stroke="black" d="M 48 224 101 258"/>
<path stroke-width="1" stroke="black" d="M 48 224 20 186"/>
<path stroke-width="1" stroke="black" d="M 20 186 48 224"/>
<path stroke-width="1" stroke="black" d="M 20 186 21 146"/>
<path stroke-width="1" stroke="black" d="M 21 146 20 186"/>
<path stroke-width="1" stroke="black" d="M 21 146 51 108"/>
<path stroke-width="1" stroke="black" d="M 51 108 21 146"/>
<path stroke-width="1" stroke="black" d="M 51 108 111 76"/>
<path stroke-width="1" stroke="black" d="M 111 76 51 108"/>
<path stroke-width="1" stroke="black" d="M 111 76 182 52"/>
<path stroke-width="1" stroke="black" d="M 182 52 111 76"/>
<path stroke-width="1" stroke="black" d="M 182 52 269 35"/>
<path stroke-width="1" stroke="black" d="M 269 35 182 52"/>
<path stroke-width="1" stroke="black" d="M 269 35 348 25"/>
<path stroke-width="1" stroke="black" d="M 348 25 269 35"/>
<path stroke-width="1" stroke="black" d="M 348 25 420 20"/>
<path stroke-width="1" stroke="black" d="M 236 305 165 284"/>
<path stroke-width="1" stroke="black" d="M 236 305 298 320"/>
<circle cx="420" cy="20" r="7.0" style="fill:red;stroke:black;stroke-width:1.0"/>
<circle cx="348" cy="25" r="7.0" style="fill:red;stroke:black;stroke-width:1.0"/>
<circle cx="269" cy="35" r="7.0" style="fill:red;stroke:black;stroke-width:1.0"/>
<circle cx="182" cy="52" r="7.0" style="fill:red;stroke:black;stroke-width:1.0"/>
<circle cx="111" cy="76" r="7.0" style="fill:green;stroke:black;stroke-width:1.0"/>
<circle cx="51" cy="108" r="7.0" style="fill:green;stroke:black;stroke-width:1.0"/>
<circle cx="21" cy="146" r="7.0" style="fill:green;stroke:black;stroke-width:1.0"/>
<circle cx="20" cy="186" r="7.0" style="fill:green;stroke:black;stroke-width:1.0"/>
<circle cx="48" cy="224" r="7.0" style="fill:blue;stroke:black;stroke-width:1.0"/>
<circle cx="101" cy="258" r="7.0" style="fill:blue;stroke:black;stroke-width:1.0"/>
<circle cx="165" cy="284" r="7.0" style="fill:blue;stroke:black;stroke-width:1.0"/>
<circle cx="298" cy="320" r="7.0" style="fill:blue;stroke:black;stroke-width:1.0"/>
<circle cx="236" cy="305" r="7.0" style="fill:blue;stroke:black;stroke-width:1.0"/>
</svg>
