<svg width="440" height="340" xmlns="http://www.w3.org/2000/svg">
<path stroke-width="1" stroke="black" d="M 420 20 362 21"/>
<path stroke-width="1" stroke="black" d="M 89 320 63 295"/>
<path stroke-width="1" stroke="black" d="M 41 265 63 295"/>
<path stroke-width="1" stroke="black" d="M 41 265 23 231"/>
<path stroke-width="1" stroke="black" d="M 23 231 41 265"/>
<path stroke-width="1" stroke="black" d="M 23 231 20 195"/>
<path stroke-width="1" stroke="black" d="M 20 195 23 231"/>
<path stroke-width="1" stroke="black" d="M 20 195 34 159"/>
<path stroke-width="1" stroke="black" d="M 34 159 20 195"/>
<path stroke-width="1" stroke="black" d="M 34 159 56 124"/>
<path stroke-width="1" stroke="black" d="M 56 124 34 159"/>
<path stroke-width="1" stroke="black" d="M 56 124 109 95"/>
<path stroke-width="1" stroke="black" d="M 109 95 56 124"/>
<path stroke-width="1" stroke="black" d="M 109 95 154 66"/>
<path stroke-width="1" stroke="black" d="M 154 66 109 95"/>
<path stroke-width="1" stroke="black" d="M 154 66 228 47"/>
<path stroke-width="1" stroke="black" d="M 228 47 154 66"/>
<path stroke-width="1" stroke="black" d="M 228 47 288 29"/>
<path stroke-width="1" stroke="black" d="M 288 29 228 47"/>
<path stroke-width="1" stroke="black" d="M 288 29 362 21"/>
<path stroke-width="1" stroke="black" d="M 362 21 288 29"/>
<path stroke-width="1" stroke="black" d="M 362 21 420 20"/>
<path stroke-width="1" stroke="black" d="M 63 295 41 265"/>
<path stroke-width="1" stroke="black" d="M 63 295 89 320"/>
<circle cx="420" cy="20" r="7.0" style="fill:gray;stroke:black;stroke-width:1.0"/>
<circle cx="362" cy="21" r="7.0" style="fill:gray;stroke:black;stroke-width:1.0"/>
<circle cx="288" cy="29" r="7.0" style="fill:gray;stroke:black;stroke-width:1.0"/>
<circle cx="228" cy="47" r="7.0" style="fill:gray;stroke:black;stroke-width:1.0"/>
<circle cx="154" cy="66" r="7.0" style="fill:gray;stroke:black;stroke-width:1.0"/>
<circle cx="109" cy="95" r="7.0" style="fill:gray;stroke:black;stroke-width:1.0"/>
<circle cx="56" cy="124" r="7.0" style="fill:gray;stroke:black;stroke-width:1.0"/>
<circle cx="34" cy="159" r="7.0" style="fill:gray;stroke:black;stroke-width:1.0"/>
<circle cx="20" cy="195" r="7.0" style="fill:gray;stroke:black;stroke-width:1.0"/>
<circle cx="23" cy="231" r="7.0" style="fill:gray;stroke:black;stroke-width:1.0"/>
<circle cx="41" cy="265" r="7.0" style="fill:gray;stroke:black;stroke-width:1.0"/>
<circle cx="89" cy="320" r="7.0" style="fill:gray;stroke:black;stroke-width:1.0"/>
<circle cx="63" cy="295" r="7.0" style="fill:gray;stroke:black;stroke-width:1.0"/>
</svg>
