<svg width="440" height="340" xmlns="http://www.w3.org/2000/svg">
<path stroke-width="0.5" stroke="black" d="M 28 75 20 182"/>
<path stroke-width="20.0" stroke="black" d="M 165 252 20 182"/>
<path stroke-width="0.5" stroke="black" d="M 165 252 28 75"/>
<path stroke-width="0.5" stroke="black" d="M 341 33 268 320"/>
<path stroke-width="0.5" stroke="black" d="M 341 33 132 20"/>
<path stroke-width="0.5" stroke="black" d="M 341 33 165 252"/>
<path stroke-width="0.5" stroke="black" d="M 341 33 420 126"/>
<path stroke-width="0.5" stroke="black" d="M 341 33 38 282"/>
<path stroke-width="0.5" stroke="black" d="M 341 33 383 243"/>
<path stroke-width="0.5" stroke="black" d="M 165 252 270 123"/>
<path stroke-width="20.0" stroke="black" d="M 341 33 270 123"/>
<path stroke-width="0.5" stroke="black" d="M 341 33 28 75"/>
<path stroke-width="0.5" stroke="black" d="M 420 126 268 320"/>
<path stroke-width="0.5" stroke="black" d="M 420 126 132 20"/>
<path stroke-width="0.5" stroke="black" d="M 420 126 165 252"/>
<path stroke-width="0.5" stroke="black" d="M 420 126 341 33"/>
<path stroke-width="0.5" stroke="black" d="M 420 126 38 282"/>
<path stroke-width="20.0" stroke="black" d="M 420 126 383 243"/>
<path stroke-width="0.5" stroke="black" d="M 420 126 270 123"/>
<path stroke-width="0.5" stroke="black" d="M 341 33 20 182"/>
<path stroke-width="0.5" stroke="black" d="M 165 252 383 243"/>
<path stroke-width="0.5" stroke="black" d="M 165 252 38 282"/>
<path stroke-width="0.5" stroke="black" d="M 165 252 420 126"/>
<path stroke-width="0.5" stroke="black" d="M 268 320 341 33"/>
<path stroke-width="0.5" stroke="black" d="M 268 320 420 126"/>
<path stroke-width="0.5" stroke="black" d="M 268 320 38 282"/>
<path stroke-width="0.5" stroke="black" d="M 268 320 383 243"/>
<path stroke-width="0.5" stroke="black" d="M 268 320 270 123"/>
<path stroke-width="0.5" stroke="black" d="M 268 320 20 182"/>
<path stroke-width="0.5" stroke="black" d="M 268 320 28 75"/>
<path stroke-width="0.5" stroke="black" d="M 132 20 268 320"/>
<path stroke-width="0.5" stroke="black" d="M 132 20 165 252"/>
<path stroke-width="0.5" stroke="black" d="M 132 20 341 33"/>
<path stroke-width="0.5" stroke="black" d="M 132 20 420 126"/>
<path stroke-width="0.5" stroke="black" d="M 132 20 38 282"/>
<path stroke-width="0.5" stroke="black" d="M 132 20 383 243"/>
<path stroke-width="0.5" stroke="black" d="M 132 20 270 123"/>
<path stroke-width="0.5" stroke="black" d="M 132 20 20 182"/>
<path stroke-width="20.0" stroke="black" d="M 132 20 28 75"/>
<path stroke-width="0.5" stroke="black" d="M 165 252 268 320"/>
<path stroke-width="0.5" stroke="black" d="M 165 252 132 20"/>
<path stroke-width="0.5" stroke="black" d="M 165 252 341 33"/>
<path stroke-width="0.5" stroke="black" d="M 420 126 20 182"/>
<path stroke-width="0.5" stroke="black" d="M 420 126 28 75"/>
<path stroke-width="0.5" stroke="black" d="M 38 282 268 320"/>
<path stroke-width="0.5" stroke="black" d="M 38 282 132 20"/>
<path stroke-width="0.5" stroke="black" d="M 270 123 20 182"/>
<path stroke-width="0.5" stroke="black" d="M 270 123 28 75"/>
<path stroke-width="0.5" stroke="black" d="M 20 182 268 320"/>
<path stroke-width="0.5" stroke="black" d="M 20 182 132 20"/>
<path stroke-width="20.0" stroke="black" d="M 20 182 165 252"/>
<path stroke-width="0.5" stroke="black" d="M 20 182 341 33"/>
<path stroke-width="0.5" stroke="black" d="M 20 182 420 126"/>
<path stroke-width="0.5" stroke="black" d="M 20 182 38 282"/>
<path stroke-width="0.5" stroke="black" d="M 20 182 383 243"/>
<path stroke-width="0.5" stroke="black" d="M 20 182 270 123"/>
<path stroke-width="0.5" stroke="black" d="M 20 182 28 75"/>
<path stroke-width="0.5" stroke="black" d="M 28 75 268 320"/>
<path stroke-width="20.0" stroke="black" d="M 28 75 132 20"/>
<path stroke-width="0.5" stroke="black" d="M 28 75 165 252"/>
<path stroke-width="0.5" stroke="black" d="M 28 75 341 33"/>
<path stroke-width="0.5" stroke="black" d="M 28 75 420 126"/>
<path stroke-width="0.5" stroke="black" d="M 28 75 38 282"/>
<path stroke-width="0.5" stroke="black" d="M 28 75 383 243"/>
<path stroke-width="0.5" stroke="black" d="M 28 75 270 123"/>
<path stroke-width="0.5" stroke="black" d="M 270 123 383 243"/>
<path stroke-width="0.5" stroke="black" d="M 268 320 165 252"/>
<path stroke-width="0.5" stroke="black" d="M 270 123 38 282"/>
<path stroke-width="20.0" stroke="black" d="M 270 123 341 33"/>
<path stroke-width="0.5" stroke="black" d="M 38 282 165 252"/>
<path stroke-width="0.5" stroke="black" d="M 38 282 341 33"/>
<path stroke-width="0.5" stroke="black" d="M 38 282 420 126"/>
<path stroke-width="0.5" stroke="black" d="M 38 282 383 243"/>
<path stroke-width="0.5" stroke="black" d="M 38 282 270 123"/>
<path stroke-width="0.5" stroke="black" d="M 38 282 20 182"/>
<path stroke-width="0.5" stroke="black" d="M 38 282 28 75"/>
<path stroke-width="0.5" stroke="black" d="M 383 243 268 320"/>
<path stroke-width="0.5" stroke="black" d="M 383 243 132 20"/>
<path stroke-width="0.5" stroke="black" d="M 383 243 165 252"/>
<path stroke-width="0.5" stroke="black" d="M 383 243 341 33"/>
<path stroke-width="20.0" stroke="black" d="M 383 243 420 126"/>
<path stroke-width="0.5" stroke="black" d="M 383 243 38 282"/>
<path stroke-width="0.5" stroke="black" d="M 383 243 270 123"/>
<path stroke-width="0.5" stroke="black" d="M 383 243 20 182"/>
<path stroke-width="0.5" stroke="black" d="M 383 243 28 75"/>
<path stroke-width="0.5" stroke="black" d="M 270 123 268 320"/>
<path stroke-width="0.5" stroke="black" d="M 270 123 132 20"/>
<path stroke-width="0.5" stroke="black" d="M 270 123 165 252"/>
<path stroke-width="0.5" stroke="black" d="M 270 123 420 126"/>
<path stroke-width="0.5" stroke="black" d="M 268 320 132 20"/>
<circle cx="28" cy="75" r="7.0" style="fill:gray;stroke:black;stroke-width:1.0"/>
<circle cx="20" cy="182" r="7.0" style="fill:gray;stroke:black;stroke-width:1.0"/>
<circle cx="270" cy="123" r="7.0" style="fill:gray;stroke:black;stroke-width:1.0"/>
<circle cx="383" cy="243" r="7.0" style="fill:gray;stroke:black;stroke-width:1.0"/>
<circle cx="38" cy="282" r="7.0" style="fill:gray;stroke:black;stroke-width:1.0"/>
<circle cx="420" cy="126" r="7.0" style="fill:gray;stroke:black;stroke-width:1.0"/>
<circle cx="341" cy="33" r="7.0" style="fill:gray;stroke:black;stroke-width:1.0"/>
<circle cx="165" cy="252" r="7.0" style="fill:gray;stroke:black;stroke-width:1.0"/>
<circle cx="132" cy="20" r="7.0" style="fill:gray;stroke:black;stroke-width:1.0"/>
<circle cx="268" cy="320" r="7.0" style="fill:gray;stroke:black;stroke-width:1.0"/>
</svg>
