<svg width="440" height="340" xmlns="http://www.w3.org/2000/svg">
<path stroke-width="0.5" stroke="black" d="M 331 93 139 176"/>
<path stroke-width="20.0" stroke="black" d="M 92 263 139 176"/>
<path stroke-width="0.5" stroke="black" d="M 92 263 331 93"/>
<path stroke-width="0.5" stroke="black" d="M 331 150 20 163"/>
<path stroke-width="0.5" stroke="black" d="M 331 150 303 254"/>
<path stroke-width="0.5" stroke="black" d="M 331 150 92 263"/>
<path stroke-width="0.5" stroke="black" d="M 331 150 225 20"/>
<path stroke-width="0.5" stroke="black" d="M 331 150 205 320"/>
<path stroke-width="0.5" stroke="black" d="M 331 150 109 77"/>
<path stroke-width="0.5" stroke="black" d="M 92 263 420 205"/>
<path stroke-width="20.0" stroke="black" d="M 331 150 420 205"/>
<path stroke-width="0.5" stroke="black" d="M 331 150 331 93"/>
<path stroke-width="0.5" stroke="black" d="M 225 20 20 163"/>
<path stroke-width="0.5" stroke="black" d="M 225 20 303 254"/>
<path stroke-width="0.5" stroke="black" d="M 225 20 92 263"/>
<path stroke-width="0.5" stroke="black" d="M 225 20 331 150"/>
<path stroke-width="0.5" stroke="black" d="M 225 20 205 320"/>
<path stroke-width="20.0" stroke="black" d="M 225 20 109 77"/>
<path stroke-width="0.5" stroke="black" d="M 225 20 420 205"/>
<path stroke-width="0.5" stroke="black" d="M 331 150 139 176"/>
<path stroke-width="0.5" stroke="black" d="M 92 263 109 77"/>
<path stroke-width="0.5" stroke="black" d="M 92 263 205 320"/>
<path stroke-width="0.5" stroke="black" d="M 92 263 225 20"/>
<path stroke-width="0.5" stroke="black" d="M 20 163 331 150"/>
<path stroke-width="0.5" stroke="black" d="M 20 163 225 20"/>
<path stroke-width="0.5" stroke="black" d="M 20 163 205 320"/>
<path stroke-width="0.5" stroke="black" d="M 20 163 109 77"/>
<path stroke-width="0.5" stroke="black" d="M 20 163 420 205"/>
<path stroke-width="0.5" stroke="black" d="M 20 163 139 176"/>
<path stroke-width="0.5" stroke="black" d="M 20 163 331 93"/>
<path stroke-width="0.5" stroke="black" d="M 303 254 20 163"/>
<path stroke-width="0.5" stroke="black" d="M 303 254 92 263"/>
<path stroke-width="0.5" stroke="black" d="M 303 254 331 150"/>
<path stroke-width="0.5" stroke="black" d="M 303 254 225 20"/>
<path stroke-width="0.5" stroke="black" d="M 303 254 205 320"/>
<path stroke-width="0.5" stroke="black" d="M 303 254 109 77"/>
<path stroke-width="0.5" stroke="black" d="M 303 254 420 205"/>
<path stroke-width="0.5" stroke="black" d="M 303 254 139 176"/>
<path stroke-width="20.0" stroke="black" d="M 303 254 331 93"/>
<path stroke-width="0.5" stroke="black" d="M 92 263 20 163"/>
<path stroke-width="0.5" stroke="black" d="M 92 263 303 254"/>
<path stroke-width="0.5" stroke="black" d="M 92 263 331 150"/>
<path stroke-width="0.5" stroke="black" d="M 225 20 139 176"/>
<path stroke-width="0.5" stroke="black" d="M 225 20 331 93"/>
<path stroke-width="0.5" stroke="black" d="M 205 320 20 163"/>
<path stroke-width="0.5" stroke="black" d="M 205 320 303 254"/>
<path stroke-width="0.5" stroke="black" d="M 420 205 139 176"/>
<path stroke-width="0.5" stroke="black" d="M 420 205 331 93"/>
<path stroke-width="0.5" stroke="black" d="M 139 176 20 163"/>
<path stroke-width="0.5" stroke="black" d="M 139 176 303 254"/>
<path stroke-width="20.0" stroke="black" d="M 139 176 92 263"/>
<path stroke-width="0.5" stroke="black" d="M 139 176 331 150"/>
<path stroke-width="0.5" stroke="black" d="M 139 176 225 20"/>
<path stroke-width="0.5" stroke="black" d="M 139 176 205 320"/>
<path stroke-width="0.5" stroke="black" d="M 139 176 109 77"/>
<path stroke-width="0.5" stroke="black" d="M 139 176 420 205"/>
<path stroke-width="0.5" stroke="black" d="M 139 176 331 93"/>
<path stroke-width="0.5" stroke="black" d="M 331 93 20 163"/>
<path stroke-width="20.0" stroke="black" d="M 331 93 303 254"/>
<path stroke-width="0.5" stroke="black" d="M 331 93 92 263"/>
<path stroke-width="0.5" stroke="black" d="M 331 93 331 150"/>
<path stroke-width="0.5" stroke="black" d="M 331 93 225 20"/>
<path stroke-width="0.5" stroke="black" d="M 331 93 205 320"/>
<path stroke-width="0.5" stroke="black" d="M 331 93 109 77"/>
<path stroke-width="0.5" stroke="black" d="M 331 93 420 205"/>
<path stroke-width="0.5" stroke="black" d="M 420 205 109 77"/>
<path stroke-width="0.5" stroke="black" d="M 20 163 92 263"/>
<path stroke-width="0.5" stroke="black" d="M 420 205 205 320"/>
<path stroke-width="20.0" stroke="black" d="M 420 205 331 150"/>
<path stroke-width="0.5" stroke="black" d="M 205 320 92 263"/>
<path stroke-width="0.5" stroke="black" d="M 205 320 331 150"/>
<path stroke-width="0.5" stroke="black" d="M 205 320 225 20"/>
<path stroke-width="0.5" stroke="black" d="M 205 320 109 77"/>
<path stroke-width="0.5" stroke="black" d="M 205 320 420 205"/>
<path stroke-width="0.5" stroke="black" d="M 205 320 139 176"/>
<path stroke-width="0.5" stroke="black" d="M 205 320 331 93"/>
<path stroke-width="0.5" stroke="black" d="M 109 77 20 163"/>
<path stroke-width="0.5" stroke="black" d="M 109 77 303 254"/>
<path stroke-width="0.5" stroke="black" d="M 109 77 92 263"/>
<path stroke-width="0.5" stroke="black" d="M 109 77 331 150"/>
<path stroke-width="20.0" stroke="black" d="M 109 77 225 20"/>
<path stroke-width="0.5" stroke="black" d="M 109 77 205 320"/>
<path stroke-width="0.5" stroke="black" d="M 109 77 420 205"/>
<path stroke-width="0.5" stroke="black" d="M 109 77 139 176"/>
<path stroke-width="0.5" stroke="black" d="M 109 77 331 93"/>
<path stroke-width="0.5" stroke="black" d="M 420 205 20 163"/>
<path stroke-width="0.5" stroke="black" d="M 420 205 303 254"/>
<path stroke-width="0.5" stroke="black" d="M 420 205 92 263"/>
<path stroke-width="0.5" stroke="black" d="M 420 205 225 20"/>
<path stroke-width="0.5" stroke="black" d="M 20 163 303 254"/>
<circle cx="331" cy="93" r="7.0" style="fill:orange;stroke:black;stroke-width:1.0"/>
<circle cx="139" cy="176" r="7.0" style="fill:green;stroke:black;stroke-width:1.0"/>
<circle cx="420" cy="205" r="7.0" style="fill:red;stroke:black;stroke-width:1.0"/>
<circle cx="109" cy="77" r="7.0" style="fill:blue;stroke:black;stroke-width:1.0"/>
<circle cx="205" cy="320" r="7.0" style="fill:blue;stroke:black;stroke-width:1.0"/>
<circle cx="225" cy="20" r="7.0" style="fill:blue;stroke:black;stroke-width:1.0"/>
<circle cx="331" cy="150" r="7.0" style="fill:red;stroke:black;stroke-width:1.0"/>
<circle cx="92" cy="263" r="7.0" style="fill:green;stroke:black;stroke-width:1.0"/>
<circle cx="303" cy="254" r="7.0" style="fill:orange;stroke:black;stroke-width:1.0"/>
<circle cx="20" cy="163" r="7.0" style="fill:blue;stroke:black;stroke-width:1.0"/>
</svg>
