<svg width="440" height="340" xmlns="http://www.w3.org/2000/svg">
<path stroke-width="1" stroke="black" d="M 161 181 160 184"/>
<path stroke-width="1" stroke="black" d="M 217 148 167 186"/>
<path stroke-width="1" stroke="black" d="M 217 148 160 184"/>
<path stroke-width="1" stroke="black" d="M 420 20 217 148"/>
<path stroke-width="1" stroke="black" d="M 104 217 149 185"/>
<path stroke-width="1" stroke="black" d="M 104 217 154 181"/>
<path stroke-width="1" stroke="black" d="M 104 217 217 148"/>
<path stroke-width="1" stroke="black" d="M 104 217 20 272"/>
<path stroke-width="1" stroke="black" d="M 104 217 109 258"/>
<path stroke-width="1" stroke="black" d="M 104 217 101 208"/>
<path stroke-width="1" stroke="black" d="M 104 217 140 149"/>
<path stroke-width="1" stroke="black" d="M 104 217 158 195"/>
<path stroke-width="1" stroke="black" d="M 104 217 167 186"/>
<path stroke-width="1" stroke="black" d="M 104 217 160 184"/>
<path stroke-width="1" stroke="black" d="M 20 272 104 217"/>
<path stroke-width="1" stroke="black" d="M 109 258 149 185"/>
<path stroke-width="1" stroke="black" d="M 109 258 154 181"/>
<path stroke-width="1" stroke="black" d="M 109 258 217 148"/>
<path stroke-width="1" stroke="black" d="M 109 258 104 217"/>
<path stroke-width="1" stroke="black" d="M 109 258 68 320"/>
<path stroke-width="1" stroke="black" d="M 109 258 101 208"/>
<path stroke-width="1" stroke="black" d="M 109 258 140 149"/>
<path stroke-width="1" stroke="black" d="M 109 258 158 195"/>
<path stroke-width="1" stroke="black" d="M 109 258 167 186"/>
<path stroke-width="1" stroke="black" d="M 217 148 158 195"/>
<path stroke-width="1" stroke="black" d="M 217 148 140 149"/>
<path stroke-width="1" stroke="black" d="M 217 148 101 208"/>
<path stroke-width="1" stroke="black" d="M 217 148 109 258"/>
<path stroke-width="1" stroke="black" d="M 149 185 217 148"/>
<path stroke-width="1" stroke="black" d="M 149 185 104 217"/>
<path stroke-width="1" stroke="black" d="M 149 185 109 258"/>
<path stroke-width="1" stroke="black" d="M 149 185 101 208"/>
<path stroke-width="1" stroke="black" d="M 149 185 140 149"/>
<path stroke-width="1" stroke="black" d="M 149 185 158 195"/>
<path stroke-width="1" stroke="black" d="M 149 185 167 186"/>
<path stroke-width="1" stroke="black" d="M 149 185 160 184"/>
<path stroke-width="1" stroke="black" d="M 150 182 149 185"/>
<path stroke-width="1" stroke="black" d="M 154 181 149 185"/>
<path stroke-width="1" stroke="black" d="M 154 181 158 177"/>
<path stroke-width="1" stroke="black" d="M 109 258 160 184"/>
<path stroke-width="1" stroke="black" d="M 154 181 217 148"/>
<path stroke-width="1" stroke="black" d="M 154 181 109 258"/>
<path stroke-width="1" stroke="black" d="M 154 181 101 208"/>
<path stroke-width="1" stroke="black" d="M 154 181 140 149"/>
<path stroke-width="1" stroke="black" d="M 154 181 158 195"/>
<path stroke-width="1" stroke="black" d="M 154 181 167 186"/>
<path stroke-width="1" stroke="black" d="M 154 181 160 184"/>
<path stroke-width="1" stroke="black" d="M 158 177 154 181"/>
<path stroke-width="1" stroke="black" d="M 217 148 149 185"/>
<path stroke-width="1" stroke="black" d="M 217 148 154 181"/>
<path stroke-width="1" stroke="black" d="M 217 148 420 20"/>
<path stroke-width="1" stroke="black" d="M 217 148 104 217"/>
<path stroke-width="1" stroke="black" d="M 154 181 104 217"/>
<path stroke-width="1" stroke="black" d="M 68 320 109 258"/>
<path stroke-width="1" stroke="black" d="M 101 208 149 185"/>
<path stroke-width="1" stroke="black" d="M 101 208 154 181"/>
<path stroke-width="1" stroke="black" d="M 158 195 167 186"/>
<path stroke-width="1" stroke="black" d="M 158 195 160 184"/>
<path stroke-width="1" stroke="black" d="M 155 203 158 195"/>
<path stroke-width="1" stroke="black" d="M 167 186 149 185"/>
<path stroke-width="1" stroke="black" d="M 167 186 154 181"/>
<path stroke-width="1" stroke="black" d="M 167 186 217 148"/>
<path stroke-width="1" stroke="black" d="M 167 186 104 217"/>
<path stroke-width="1" stroke="black" d="M 167 186 109 258"/>
<path stroke-width="1" stroke="black" d="M 167 186 101 208"/>
<path stroke-width="1" stroke="black" d="M 167 186 140 149"/>
<path stroke-width="1" stroke="black" d="M 167 186 158 195"/>
<path stroke-width="1" stroke="black" d="M 158 195 155 203"/>
<path stroke-width="1" stroke="black" d="M 167 186 176 185"/>
<path stroke-width="1" stroke="black" d="M 176 185 167 186"/>
<path stroke-width="1" stroke="black" d="M 160 184 149 185"/>
<path stroke-width="1" stroke="black" d="M 160 184 154 181"/>
<path stroke-width="1" stroke="black" d="M 160 184 217 148"/>
<path stroke-width="1" stroke="black" d="M 160 184 104 217"/>
<path stroke-width="1" stroke="black" d="M 160 184 109 258"/>
<path stroke-width="1" stroke="black" d="M 160 184 101 208"/>
<path stroke-width="1" stroke="black" d="M 160 184 140 149"/>
<path stroke-width="1" stroke="black" d="M 160 184 158 195"/>
<path stroke-width="1" stroke="black" d="M 160 184 167 186"/>
<path stroke-width="1" stroke="black" d="M 160 184 161 181"/>
<path stroke-width="1" stroke="black" d="M 167 186 160 184"/>
<path stroke-width="1" stroke="black" d="M 149 185 154 181"/>
<path stroke-width="1" stroke="black" d="M 158 195 140 149"/>
<path stroke-width="1" stroke="black" d="M 158 195 109 258"/>
<path stroke-width="1" stroke="black" d="M 101 208 217 148"/>
<path stroke-width="1" stroke="black" d="M 101 208 104 217"/>
<path stroke-width="1" stroke="black" d="M 101 208 109 258"/>
<path stroke-width="1" stroke="black" d="M 101 208 67 225"/>
<path stroke-width="1" stroke="black" d="M 101 208 140 149"/>
<path stroke-width="1" stroke="black" d="M 101 208 158 195"/>
<path stroke-width="1" stroke="black" d="M 101 208 167 186"/>
<path stroke-width="1" stroke="black" d="M 101 208 160 184"/>
<path stroke-width="1" stroke="black" d="M 67 225 101 208"/>
<path stroke-width="1" stroke="black" d="M 140 149 149 185"/>
<path stroke-width="1" stroke="black" d="M 140 149 154 181"/>
<path stroke-width="1" stroke="black" d="M 158 195 101 208"/>
<path stroke-width="1" stroke="black" d="M 140 149 217 148"/>
<path stroke-width="1" stroke="black" d="M 140 149 109 258"/>
<path stroke-width="1" stroke="black" d="M 140 149 101 208"/>
<path stroke-width="1" stroke="black" d="M 140 149 133 129"/>
<path stroke-width="1" stroke="black" d="M 140 149 158 195"/>
<path stroke-width="1" stroke="black" d="M 140 149 167 186"/>
<path stroke-width="1" stroke="black" d="M 140 149 160 184"/>
<path stroke-width="1" stroke="black" d="M 133 129 140 149"/>
<path stroke-width="1" stroke="black" d="M 158 195 149 185"/>
<path stroke-width="1" stroke="black" d="M 158 195 154 181"/>
<path stroke-width="1" stroke="black" d="M 158 195 217 148"/>
<path stroke-width="1" stroke="black" d="M 158 195 104 217"/>
<path stroke-width="1" stroke="black" d="M 140 149 104 217"/>
<path stroke-width="1" stroke="black" d="M 149 185 150 182"/>
<circle cx="161" cy="181" r="7.0" style="fill:gray;stroke:black;stroke-width:1.0"/>
<circle cx="160" cy="184" r="7.0" style="fill:gray;stroke:black;stroke-width:1.0"/>
<circle cx="176" cy="185" r="7.0" style="fill:gray;stroke:black;stroke-width:1.0"/>
<circle cx="167" cy="186" r="7.0" style="fill:gray;stroke:black;stroke-width:1.0"/>
<circle cx="155" cy="203" r="7.0" style="fill:gray;stroke:black;stroke-width:1.0"/>
<circle cx="158" cy="195" r="7.0" style="fill:gray;stroke:black;stroke-width:1.0"/>
<circle cx="133" cy="129" r="7.0" style="fill:gray;stroke:black;stroke-width:1.0"/>
<circle cx="140" cy="149" r="7.0" style="fill:gray;stroke:black;stroke-width:1.0"/>
<circle cx="67" cy="225" r="7.0" style="fill:gray;stroke:black;stroke-width:1.0"/>
<circle cx="101" cy="208" r="7.0" style="fill:gray;stroke:black;stroke-width:1.0"/>
<circle cx="68" cy="320" r="7.0" style="fill:gray;stroke:black;stroke-width:1.0"/>
<circle cx="109" cy="258" r="7.0" style="fill:gray;stroke:black;stroke-width:1.0"/>
<circle cx="20" cy="272" r="7.0" style="fill:gray;stroke:black;stroke-width:1.0"/>
<circle cx="104" cy="217" r="7.0" style="fill:gray;stroke:black;stroke-width:1.0"/>
<circle cx="420" cy="20" r="7.0" style="fill:gray;stroke:black;stroke-width:1.0"/>
<circle cx="217" cy="148" r="7.0" style="fill:gray;stroke:black;stroke-width:1.0"/>
<circle cx="158" cy="177" r="7.0" style="fill:gray;stroke:black;stroke-width:1.0"/>
<circle cx="154" cy="181" r="7.0" style="fill:gray;stroke:black;stroke-width:1.0"/>
<circle cx="150" cy="182" r="7.0" style="fill:gray;stroke:black;stroke-width:1.0"/>
<circle cx="149" cy="185" r="7.0" style="fill:gray;stroke:black;stroke-width:1.0"/>
</svg>
