<svg width="440" height="340" xmlns="http://www.w3.org/2000/svg">
<path stroke-width="15.150404514438717" stroke="black" d="M 309 222 298 220"/>
<path stroke-width="0.7958713615293813" stroke="black" d="M 246 210 307 236"/>
<path stroke-width="1.1012869605274522" stroke="black" d="M 246 210 298 220"/>
<path stroke-width="0.5858981372182075" stroke="black" d="M 20 121 246 210"/>
<path stroke-width="0.5286327124060691" stroke="black" d="M 222 264 310 230"/>
<path stroke-width="0.5190884749373794" stroke="black" d="M 222 264 324 234"/>
<path stroke-width="0.5095442374686897" stroke="black" d="M 222 264 246 210"/>
<path stroke-width="0.7195174617798635" stroke="black" d="M 222 264 88 320"/>
<path stroke-width="0.5095442374686897" stroke="black" d="M 222 264 261 116"/>
<path stroke-width="0.5095442374686897" stroke="black" d="M 222 264 236 141"/>
<path stroke-width="0.5286327124060691" stroke="black" d="M 222 264 378 284"/>
<path stroke-width="0.5668096622808281" stroke="black" d="M 222 264 289 262"/>
<path stroke-width="0.6431635620303457" stroke="black" d="M 222 264 307 236"/>
<path stroke-width="0.7958713615293813" stroke="black" d="M 222 264 298 220"/>
<path stroke-width="0.7195174617798635" stroke="black" d="M 88 320 222 264"/>
<path stroke-width="0.5668096622808281" stroke="black" d="M 261 116 310 230"/>
<path stroke-width="0.5477211873434485" stroke="black" d="M 261 116 324 234"/>
<path stroke-width="0.5095442374686897" stroke="black" d="M 261 116 246 210"/>
<path stroke-width="0.5095442374686897" stroke="black" d="M 261 116 222 264"/>
<path stroke-width="0.9485791610284168" stroke="black" d="M 261 116 222 20"/>
<path stroke-width="0.5095442374686897" stroke="black" d="M 261 116 236 141"/>
<path stroke-width="0.5095442374686897" stroke="black" d="M 261 116 378 284"/>
<path stroke-width="0.5286327124060691" stroke="black" d="M 261 116 289 262"/>
<path stroke-width="0.5668096622808281" stroke="black" d="M 261 116 307 236"/>
<path stroke-width="0.6431635620303457" stroke="black" d="M 246 210 289 262"/>
<path stroke-width="0.5668096622808281" stroke="black" d="M 246 210 378 284"/>
<path stroke-width="0.5286327124060691" stroke="black" d="M 246 210 236 141"/>
<path stroke-width="0.5095442374686897" stroke="black" d="M 246 210 261 116"/>
<path stroke-width="0.5095442374686897" stroke="black" d="M 310 230 246 210"/>
<path stroke-width="0.5286327124060691" stroke="black" d="M 310 230 222 264"/>
<path stroke-width="0.5668096622808281" stroke="black" d="M 310 230 261 116"/>
<path stroke-width="0.6431635620303457" stroke="black" d="M 310 230 236 141"/>
<path stroke-width="0.7958713615293813" stroke="black" d="M 310 230 378 284"/>
<path stroke-width="1.1012869605274522" stroke="black" d="M 310 230 289 262"/>
<path stroke-width="1.7121181585235943" stroke="black" d="M 310 230 307 236"/>
<path stroke-width="2.933780554515878" stroke="black" d="M 310 230 298 220"/>
<path stroke-width="20.0" stroke="black" d="M 316 233 310 230"/>
<path stroke-width="0.5" stroke="black" d="M 324 234 310 230"/>
<path stroke-width="10.245789306999107" stroke="black" d="M 324 234 338 241"/>
<path stroke-width="0.6431635620303457" stroke="black" d="M 261 116 298 220"/>
<path stroke-width="0.5095442374686897" stroke="black" d="M 324 234 246 210"/>
<path stroke-width="0.5477211873434485" stroke="black" d="M 324 234 261 116"/>
<path stroke-width="0.6049866121555869" stroke="black" d="M 324 234 236 141"/>
<path stroke-width="0.7195174617798635" stroke="black" d="M 324 234 378 284"/>
<path stroke-width="0.9485791610284168" stroke="black" d="M 324 234 289 262"/>
<path stroke-width="1.4067025595255234" stroke="black" d="M 324 234 307 236"/>
<path stroke-width="2.3229493565197363" stroke="black" d="M 324 234 298 220"/>
<path stroke-width="10.245789306999107" stroke="black" d="M 338 241 324 234"/>
<path stroke-width="0.5095442374686897" stroke="black" d="M 246 210 310 230"/>
<path stroke-width="0.5095442374686897" stroke="black" d="M 246 210 324 234"/>
<path stroke-width="0.5858981372182075" stroke="black" d="M 246 210 20 121"/>
<path stroke-width="0.5095442374686897" stroke="black" d="M 246 210 222 264"/>
<path stroke-width="0.5190884749373794" stroke="black" d="M 324 234 222 264"/>
<path stroke-width="0.9485791610284168" stroke="black" d="M 222 20 261 116"/>
<path stroke-width="0.6431635620303457" stroke="black" d="M 236 141 310 230"/>
<path stroke-width="0.6049866121555869" stroke="black" d="M 236 141 324 234"/>
<path stroke-width="0.5095442374686897" stroke="black" d="M 289 262 307 236"/>
<path stroke-width="0.5095442374686897" stroke="black" d="M 289 262 298 220"/>
<path stroke-width="4.155442950508162" stroke="black" d="M 285 283 289 262"/>
<path stroke-width="1.7121181585235943" stroke="black" d="M 307 236 310 230"/>
<path stroke-width="1.4067025595255234" stroke="black" d="M 307 236 324 234"/>
<path stroke-width="0.7958713615293813" stroke="black" d="M 307 236 246 210"/>
<path stroke-width="0.6431635620303457" stroke="black" d="M 307 236 222 264"/>
<path stroke-width="0.5668096622808281" stroke="black" d="M 307 236 261 116"/>
<path stroke-width="0.5286327124060691" stroke="black" d="M 307 236 236 141"/>
<path stroke-width="0.5095442374686897" stroke="black" d="M 307 236 378 284"/>
<path stroke-width="0.5095442374686897" stroke="black" d="M 307 236 289 262"/>
<path stroke-width="4.155442950508162" stroke="black" d="M 289 262 285 283"/>
<path stroke-width="7.820430138485015" stroke="black" d="M 307 236 319 246"/>
<path stroke-width="7.820430138485015" stroke="black" d="M 319 246 307 236"/>
<path stroke-width="2.933780554515878" stroke="black" d="M 298 220 310 230"/>
<path stroke-width="2.3229493565197363" stroke="black" d="M 298 220 324 234"/>
<path stroke-width="1.1012869605274522" stroke="black" d="M 298 220 246 210"/>
<path stroke-width="0.7958713615293813" stroke="black" d="M 298 220 222 264"/>
<path stroke-width="0.6431635620303457" stroke="black" d="M 298 220 261 116"/>
<path stroke-width="0.5668096622808281" stroke="black" d="M 298 220 236 141"/>
<path stroke-width="0.5286327124060691" stroke="black" d="M 298 220 378 284"/>
<path stroke-width="0.5095442374686897" stroke="black" d="M 298 220 289 262"/>
<path stroke-width="0.5095442374686897" stroke="black" d="M 298 220 307 236"/>
<path stroke-width="15.150404514438717" stroke="black" d="M 298 220 309 222"/>
<path stroke-width="0.5095442374686897" stroke="black" d="M 307 236 298 220"/>
<path stroke-width="0.5" stroke="black" d="M 310 230 324 234"/>
<path stroke-width="0.5095442374686897" stroke="black" d="M 289 262 378 284"/>
<path stroke-width="0.5286327124060691" stroke="black" d="M 289 262 261 116"/>
<path stroke-width="0.5286327124060691" stroke="black" d="M 236 141 246 210"/>
<path stroke-width="0.5095442374686897" stroke="black" d="M 236 141 222 264"/>
<path stroke-width="0.5095442374686897" stroke="black" d="M 236 141 261 116"/>
<path stroke-width="1.4067025595255234" stroke="black" d="M 236 141 192 88"/>
<path stroke-width="0.5095442374686897" stroke="black" d="M 236 141 378 284"/>
<path stroke-width="0.5095442374686897" stroke="black" d="M 236 141 289 262"/>
<path stroke-width="0.5286327124060691" stroke="black" d="M 236 141 307 236"/>
<path stroke-width="0.5668096622808281" stroke="black" d="M 236 141 298 220"/>
<path stroke-width="1.4067025595255234" stroke="black" d="M 192 88 236 141"/>
<path stroke-width="0.7958713615293813" stroke="black" d="M 378 284 310 230"/>
<path stroke-width="0.7195174617798635" stroke="black" d="M 378 284 324 234"/>
<path stroke-width="0.5095442374686897" stroke="black" d="M 289 262 236 141"/>
<path stroke-width="0.5668096622808281" stroke="black" d="M 378 284 246 210"/>
<path stroke-width="0.5095442374686897" stroke="black" d="M 378 284 261 116"/>
<path stroke-width="0.5095442374686897" stroke="black" d="M 378 284 236 141"/>
<path stroke-width="2.3229493565197363" stroke="black" d="M 378 284 420 316"/>
<path stroke-width="0.5095442374686897" stroke="black" d="M 378 284 289 262"/>
<path stroke-width="0.5095442374686897" stroke="black" d="M 378 284 307 236"/>
<path stroke-width="0.5286327124060691" stroke="black" d="M 378 284 298 220"/>
<path stroke-width="2.3229493565197363" stroke="black" d="M 420 316 378 284"/>
<path stroke-width="1.1012869605274522" stroke="black" d="M 289 262 310 230"/>
<path stroke-width="0.9485791610284168" stroke="black" d="M 289 262 324 234"/>
<path stroke-width="0.6431635620303457" stroke="black" d="M 289 262 246 210"/>
<path stroke-width="0.5668096622808281" stroke="black" d="M 289 262 222 264"/>
<path stroke-width="0.5286327124060691" stroke="black" d="M 378 284 222 264"/>
<path stroke-width="20.0" stroke="black" d="M 310 230 316 233"/>
<circle cx="309" cy="222" r="20.0" style="fill:blue;stroke:black;stroke-width:1.0"/>
<circle cx="298" cy="220" r="20.0" style="fill:blue;stroke:black;stroke-width:1.0"/>
<circle cx="319" cy="246" r="20.0" style="fill:red;stroke:black;stroke-width:1.0"/>
<circle cx="307" cy="236" r="20.0" style="fill:red;stroke:black;stroke-width:1.0"/>
<circle cx="285" cy="283" r="20.0" style="fill:green;stroke:black;stroke-width:1.0"/>
<circle cx="289" cy="262" r="20.0" style="fill:green;stroke:black;stroke-width:1.0"/>
<circle cx="420" cy="316" r="20.0" style="fill:orange;stroke:black;stroke-width:1.0"/>
<circle cx="378" cy="284" r="20.0" style="fill:orange;stroke:black;stroke-width:1.0"/>
<circle cx="192" cy="88" r="20.0" style="fill:purple;stroke:black;stroke-width:1.0"/>
<circle cx="236" cy="141" r="20.0" style="fill:purple;stroke:black;stroke-width:1.0"/>
<circle cx="222" cy="20" r="20.0" style="fill:yellow;stroke:black;stroke-width:1.0"/>
<circle cx="261" cy="116" r="20.0" style="fill:yellow;stroke:black;stroke-width:1.0"/>
<circle cx="88" cy="320" r="20.0" style="fill:blue;stroke:black;stroke-width:1.0"/>
<circle cx="222" cy="264" r="20.0" style="fill:blue;stroke:black;stroke-width:1.0"/>
<circle cx="20" cy="121" r="20.0" style="fill:blue;stroke:black;stroke-width:1.0"/>
<circle cx="246" cy="210" r="20.0" style="fill:blue;stroke:black;stroke-width:1.0"/>
<circle cx="338" cy="241" r="20.0" style="fill:fuchsia;stroke:black;stroke-width:1.0"/>
<circle cx="324" cy="234" r="20.0" style="fill:fuchsia;stroke:black;stroke-width:1.0"/>
<circle cx="316" cy="233" r="20.0" style="fill:olive;stroke:black;stroke-width:1.0"/>
<circle cx="310" cy="230" r="20.0" style="fill:olive;stroke:black;stroke-width:1.0"/>
</svg>
