<svg width="440" height="340" xmlns="http://www.w3.org/2000/svg">
<path stroke-width="1" stroke="black" d="M 124 191 128 188"/>
<path stroke-width="1" stroke="black" d="M 184 152 134 193"/>
<path stroke-width="1" stroke="black" d="M 184 152 128 188"/>
<path stroke-width="1" stroke="black" d="M 420 20 184 152"/>
<path stroke-width="1" stroke="black" d="M 175 240 105 191"/>
<path stroke-width="1" stroke="black" d="M 175 240 97 194"/>
<path stroke-width="1" stroke="black" d="M 175 240 184 152"/>
<path stroke-width="1" stroke="black" d="M 175 240 268 320"/>
<path stroke-width="1" stroke="black" d="M 175 240 150 142"/>
<path stroke-width="1" stroke="black" d="M 175 240 74 139"/>
<path stroke-width="1" stroke="black" d="M 175 240 53 230"/>
<path stroke-width="1" stroke="black" d="M 175 240 83 174"/>
<path stroke-width="1" stroke="black" d="M 175 240 134 193"/>
<path stroke-width="1" stroke="black" d="M 175 240 128 188"/>
<path stroke-width="1" stroke="black" d="M 268 320 175 240"/>
<path stroke-width="1" stroke="black" d="M 150 142 105 191"/>
<path stroke-width="1" stroke="black" d="M 150 142 97 194"/>
<path stroke-width="1" stroke="black" d="M 150 142 184 152"/>
<path stroke-width="1" stroke="black" d="M 150 142 175 240"/>
<path stroke-width="1" stroke="black" d="M 150 142 187 99"/>
<path stroke-width="1" stroke="black" d="M 150 142 74 139"/>
<path stroke-width="1" stroke="black" d="M 150 142 53 230"/>
<path stroke-width="1" stroke="black" d="M 150 142 83 174"/>
<path stroke-width="1" stroke="black" d="M 150 142 134 193"/>
<path stroke-width="1" stroke="black" d="M 184 152 83 174"/>
<path stroke-width="1" stroke="black" d="M 184 152 53 230"/>
<path stroke-width="1" stroke="black" d="M 184 152 74 139"/>
<path stroke-width="1" stroke="black" d="M 184 152 150 142"/>
<path stroke-width="1" stroke="black" d="M 105 191 184 152"/>
<path stroke-width="1" stroke="black" d="M 105 191 175 240"/>
<path stroke-width="1" stroke="black" d="M 105 191 150 142"/>
<path stroke-width="1" stroke="black" d="M 105 191 74 139"/>
<path stroke-width="1" stroke="black" d="M 105 191 53 230"/>
<path stroke-width="1" stroke="black" d="M 105 191 83 174"/>
<path stroke-width="1" stroke="black" d="M 105 191 134 193"/>
<path stroke-width="1" stroke="black" d="M 105 191 128 188"/>
<path stroke-width="1" stroke="black" d="M 102 193 105 191"/>
<path stroke-width="1" stroke="black" d="M 97 194 105 191"/>
<path stroke-width="1" stroke="black" d="M 97 194 86 198"/>
<path stroke-width="1" stroke="black" d="M 150 142 128 188"/>
<path stroke-width="1" stroke="black" d="M 97 194 184 152"/>
<path stroke-width="1" stroke="black" d="M 97 194 150 142"/>
<path stroke-width="1" stroke="black" d="M 97 194 74 139"/>
<path stroke-width="1" stroke="black" d="M 97 194 53 230"/>
<path stroke-width="1" stroke="black" d="M 97 194 83 174"/>
<path stroke-width="1" stroke="black" d="M 97 194 134 193"/>
<path stroke-width="1" stroke="black" d="M 97 194 128 188"/>
<path stroke-width="1" stroke="black" d="M 86 198 97 194"/>
<path stroke-width="1" stroke="black" d="M 184 152 105 191"/>
<path stroke-width="1" stroke="black" d="M 184 152 97 194"/>
<path stroke-width="1" stroke="black" d="M 184 152 420 20"/>
<path stroke-width="1" stroke="black" d="M 184 152 175 240"/>
<path stroke-width="1" stroke="black" d="M 97 194 175 240"/>
<path stroke-width="1" stroke="black" d="M 187 99 150 142"/>
<path stroke-width="1" stroke="black" d="M 74 139 105 191"/>
<path stroke-width="1" stroke="black" d="M 74 139 97 194"/>
<path stroke-width="1" stroke="black" d="M 83 174 134 193"/>
<path stroke-width="1" stroke="black" d="M 83 174 128 188"/>
<path stroke-width="1" stroke="black" d="M 60 167 83 174"/>
<path stroke-width="1" stroke="black" d="M 134 193 105 191"/>
<path stroke-width="1" stroke="black" d="M 134 193 97 194"/>
<path stroke-width="1" stroke="black" d="M 134 193 184 152"/>
<path stroke-width="1" stroke="black" d="M 134 193 175 240"/>
<path stroke-width="1" stroke="black" d="M 134 193 150 142"/>
<path stroke-width="1" stroke="black" d="M 134 193 74 139"/>
<path stroke-width="1" stroke="black" d="M 134 193 53 230"/>
<path stroke-width="1" stroke="black" d="M 134 193 83 174"/>
<path stroke-width="1" stroke="black" d="M 83 174 60 167"/>
<path stroke-width="1" stroke="black" d="M 134 193 139 200"/>
<path stroke-width="1" stroke="black" d="M 139 200 134 193"/>
<path stroke-width="1" stroke="black" d="M 128 188 105 191"/>
<path stroke-width="1" stroke="black" d="M 128 188 97 194"/>
<path stroke-width="1" stroke="black" d="M 128 188 184 152"/>
<path stroke-width="1" stroke="black" d="M 128 188 175 240"/>
<path stroke-width="1" stroke="black" d="M 128 188 150 142"/>
<path stroke-width="1" stroke="black" d="M 128 188 74 139"/>
<path stroke-width="1" stroke="black" d="M 128 188 53 230"/>
<path stroke-width="1" stroke="black" d="M 128 188 83 174"/>
<path stroke-width="1" stroke="black" d="M 128 188 134 193"/>
<path stroke-width="1" stroke="black" d="M 128 188 124 191"/>
<path stroke-width="1" stroke="black" d="M 134 193 128 188"/>
<path stroke-width="1" stroke="black" d="M 105 191 97 194"/>
<path stroke-width="1" stroke="black" d="M 83 174 53 230"/>
<path stroke-width="1" stroke="black" d="M 83 174 150 142"/>
<path stroke-width="1" stroke="black" d="M 74 139 184 152"/>
<path stroke-width="1" stroke="black" d="M 74 139 175 240"/>
<path stroke-width="1" stroke="black" d="M 74 139 150 142"/>
<path stroke-width="1" stroke="black" d="M 74 139 52 106"/>
<path stroke-width="1" stroke="black" d="M 74 139 53 230"/>
<path stroke-width="1" stroke="black" d="M 74 139 83 174"/>
<path stroke-width="1" stroke="black" d="M 74 139 134 193"/>
<path stroke-width="1" stroke="black" d="M 74 139 128 188"/>
<path stroke-width="1" stroke="black" d="M 52 106 74 139"/>
<path stroke-width="1" stroke="black" d="M 53 230 105 191"/>
<path stroke-width="1" stroke="black" d="M 53 230 97 194"/>
<path stroke-width="1" stroke="black" d="M 83 174 74 139"/>
<path stroke-width="1" stroke="black" d="M 53 230 184 152"/>
<path stroke-width="1" stroke="black" d="M 53 230 150 142"/>
<path stroke-width="1" stroke="black" d="M 53 230 74 139"/>
<path stroke-width="1" stroke="black" d="M 53 230 20 253"/>
<path stroke-width="1" stroke="black" d="M 53 230 83 174"/>
<path stroke-width="1" stroke="black" d="M 53 230 134 193"/>
<path stroke-width="1" stroke="black" d="M 53 230 128 188"/>
<path stroke-width="1" stroke="black" d="M 20 253 53 230"/>
<path stroke-width="1" stroke="black" d="M 83 174 105 191"/>
<path stroke-width="1" stroke="black" d="M 83 174 97 194"/>
<path stroke-width="1" stroke="black" d="M 83 174 184 152"/>
<path stroke-width="1" stroke="black" d="M 83 174 175 240"/>
<path stroke-width="1" stroke="black" d="M 53 230 175 240"/>
<path stroke-width="1" stroke="black" d="M 105 191 102 193"/>
<circle cx="124" cy="191" r="7.0" style="fill:gray;stroke:black;stroke-width:1.0"/>
<circle cx="128" cy="188" r="7.0" style="fill:gray;stroke:black;stroke-width:1.0"/>
<circle cx="139" cy="200" r="7.0" style="fill:gray;stroke:black;stroke-width:1.0"/>
<circle cx="134" cy="193" r="7.0" style="fill:gray;stroke:black;stroke-width:1.0"/>
<circle cx="60" cy="167" r="7.0" style="fill:gray;stroke:black;stroke-width:1.0"/>
<circle cx="83" cy="174" r="7.0" style="fill:gray;stroke:black;stroke-width:1.0"/>
<circle cx="20" cy="253" r="7.0" style="fill:gray;stroke:black;stroke-width:1.0"/>
<circle cx="53" cy="230" r="7.0" style="fill:gray;stroke:black;stroke-width:1.0"/>
<circle cx="52" cy="106" r="7.0" style="fill:gray;stroke:black;stroke-width:1.0"/>
<circle cx="74" cy="139" r="7.0" style="fill:gray;stroke:black;stroke-width:1.0"/>
<circle cx="187" cy="99" r="7.0" style="fill:gray;stroke:black;stroke-width:1.0"/>
<circle cx="150" cy="142" r="7.0" style="fill:gray;stroke:black;stroke-width:1.0"/>
<circle cx="268" cy="320" r="7.0" style="fill:gray;stroke:black;stroke-width:1.0"/>
<circle cx="175" cy="240" r="7.0" style="fill:gray;stroke:black;stroke-width:1.0"/>
<circle cx="420" cy="20" r="7.0" style="fill:gray;stroke:black;stroke-width:1.0"/>
<circle cx="184" cy="152" r="7.0" style="fill:gray;stroke:black;stroke-width:1.0"/>
<circle cx="86" cy="198" r="7.0" style="fill:gray;stroke:black;stroke-width:1.0"/>
<circle cx="97" cy="194" r="7.0" style="fill:gray;stroke:black;stroke-width:1.0"/>
<circle cx="102" cy="193" r="7.0" style="fill:gray;stroke:black;stroke-width:1.0"/>
<circle cx="105" cy="191" r="7.0" style="fill:gray;stroke:black;stroke-width:1.0"/>
</svg>
