<svg width="440" height="340" xmlns="http://www.w3.org/2000/svg">
<path stroke-width="1" stroke="black" d="M 420 320 399 289"/>
<path stroke-width="1" stroke="black" d="M 20 91 41 62"/>
<path stroke-width="1" stroke="black" d="M 76 34 41 62"/>
<path stroke-width="1" stroke="black" d="M 76 34 126 20"/>
<path stroke-width="1" stroke="black" d="M 126 20 76 34"/>
<path stroke-width="1" stroke="black" d="M 126 20 179 25"/>
<path stroke-width="1" stroke="black" d="M 179 25 126 20"/>
<path stroke-width="1" stroke="black" d="M 179 25 229 48"/>
<path stroke-width="1" stroke="black" d="M 229 48 179 25"/>
<path stroke-width="1" stroke="black" d="M 229 48 265 84"/>
<path stroke-width="1" stroke="black" d="M 265 84 229 48"/>
<path stroke-width="1" stroke="black" d="M 265 84 298 126"/>
<path stroke-width="1" stroke="black" d="M 298 126 265 84"/>
<path stroke-width="1" stroke="black" d="M 298 126 324 169"/>
<path stroke-width="1" stroke="black" d="M 324 169 298 126"/>
<path stroke-width="1" stroke="black" d="M 324 169 350 212"/>
<path stroke-width="1" stroke="black" d="M 350 212 324 169"/>
<path stroke-width="1" stroke="black" d="M 350 212 374 253"/>
<path stroke-width="1" stroke="black" d="M 374 253 350 212"/>
<path stroke-width="1" stroke="black" d="M 374 253 399 289"/>
<path stroke-width="1" stroke="black" d="M 399 289 374 253"/>
<path stroke-width="1" stroke="black" d="M 399 289 420 320"/>
<path stroke-width="1" stroke="black" d="M 41 62 76 34"/>
<path stroke-width="1" stroke="black" d="M 41 62 20 91"/>
<circle cx="420" cy="320" r="7.0" style="fill:red;stroke:black;stroke-width:1.0"/>
<circle cx="399" cy="289" r="7.0" style="fill:red;stroke:black;stroke-width:1.0"/>
<circle cx="374" cy="253" r="7.0" style="fill:red;stroke:black;stroke-width:1.0"/>
<circle cx="350" cy="212" r="7.0" style="fill:red;stroke:black;stroke-width:1.0"/>
<circle cx="324" cy="169" r="7.0" style="fill:green;stroke:black;stroke-width:1.0"/>
<circle cx="298" cy="126" r="7.0" style="fill:green;stroke:black;stroke-width:1.0"/>
<circle cx="265" cy="84" r="7.0" style="fill:green;stroke:black;stroke-width:1.0"/>
<circle cx="229" cy="48" r="7.0" style="fill:green;stroke:black;stroke-width:1.0"/>
<circle cx="179" cy="25" r="7.0" style="fill:blue;stroke:black;stroke-width:1.0"/>
<circle cx="126" cy="20" r="7.0" style="fill:blue;stroke:black;stroke-width:1.0"/>
<circle cx="76" cy="34" r="7.0" style="fill:blue;stroke:black;stroke-width:1.0"/>
<circle cx="20" cy="91" r="7.0" style="fill:blue;stroke:black;stroke-width:1.0"/>
<circle cx="41" cy="62" r="7.0" style="fill:blue;stroke:black;stroke-width:1.0"/>
</svg>
