<svg width="440" height="340" xmlns="http://www.w3.org/2000/svg">
<path stroke-width="1" stroke="black" d="M 420 20 417 53"/>
<path stroke-width="1" stroke="black" d="M 20 253 57 277"/>
<path stroke-width="1" stroke="black" d="M 105 302 57 277"/>
<path stroke-width="1" stroke="black" d="M 105 302 170 318"/>
<path stroke-width="1" stroke="black" d="M 170 318 105 302"/>
<path stroke-width="1" stroke="black" d="M 170 318 236 320"/>
<path stroke-width="1" stroke="black" d="M 236 320 170 318"/>
<path stroke-width="1" stroke="black" d="M 236 320 303 302"/>
<path stroke-width="1" stroke="black" d="M 303 302 236 320"/>
<path stroke-width="1" stroke="black" d="M 303 302 345 268"/>
<path stroke-width="1" stroke="black" d="M 345 268 303 302"/>
<path stroke-width="1" stroke="black" d="M 345 268 380 226"/>
<path stroke-width="1" stroke="black" d="M 380 226 345 268"/>
<path stroke-width="1" stroke="black" d="M 380 226 396 182"/>
<path stroke-width="1" stroke="black" d="M 396 182 380 226"/>
<path stroke-width="1" stroke="black" d="M 396 182 408 136"/>
<path stroke-width="1" stroke="black" d="M 408 136 396 182"/>
<path stroke-width="1" stroke="black" d="M 408 136 414 93"/>
<path stroke-width="1" stroke="black" d="M 414 93 408 136"/>
<path stroke-width="1" stroke="black" d="M 414 93 417 53"/>
<path stroke-width="1" stroke="black" d="M 417 53 414 93"/>
<path stroke-width="1" stroke="black" d="M 417 53 420 20"/>
<path stroke-width="1" stroke="black" d="M 57 277 105 302"/>
<path stroke-width="1" stroke="black" d="M 57 277 20 253"/>
<circle cx="420" cy="20" r="20.0" style="fill:red;stroke:black;stroke-width:1.0"/>
<circle cx="417" cy="53" r="20.0" style="fill:red;stroke:black;stroke-width:1.0"/>
<circle cx="414" cy="93" r="20.0" style="fill:red;stroke:black;stroke-width:1.0"/>
<circle cx="408" cy="136" r="20.0" style="fill:red;stroke:black;stroke-width:1.0"/>
<circle cx="396" cy="182" r="20.0" style="fill:green;stroke:black;stroke-width:1.0"/>
<circle cx="380" cy="226" r="20.0" style="fill:green;stroke:black;stroke-width:1.0"/>
<circle cx="345" cy="268" r="20.0" style="fill:green;stroke:black;stroke-width:1.0"/>
<circle cx="303" cy="302" r="20.0" style="fill:green;stroke:black;stroke-width:1.0"/>
<circle cx="236" cy="320" r="20.0" style="fill:blue;stroke:black;stroke-width:1.0"/>
<circle cx="170" cy="318" r="20.0" style="fill:blue;stroke:black;stroke-width:1.0"/>
<circle cx="105" cy="302" r="20.0" style="fill:blue;stroke:black;stroke-width:1.0"/>
<circle cx="20" cy="253" r="20.0" style="fill:blue;stroke:black;stroke-width:1.0"/>
<circle cx="57" cy="277" r="20.0" style="fill:blue;stroke:black;stroke-width:1.0"/>
</svg>
