<svg width="440" height="340" xmlns="http://www.w3.org/2000/svg">
<path stroke-width="1" stroke="black" d="M 20 20 61 23"/>
<path stroke-width="1" stroke="black" d="M 420 320 401 294"/>
<path stroke-width="1" stroke="black" d="M 377 264 401 294"/>
<path stroke-width="1" stroke="black" d="M 377 264 355 229"/>
<path stroke-width="1" stroke="black" d="M 355 229 377 264"/>
<path stroke-width="1" stroke="black" d="M 355 229 328 198"/>
<path stroke-width="1" stroke="black" d="M 328 198 355 229"/>
<path stroke-width="1" stroke="black" d="M 328 198 304 159"/>
<path stroke-width="1" stroke="black" d="M 304 159 328 198"/>
<path stroke-width="1" stroke="black" d="M 304 159 271 130"/>
<path stroke-width="1" stroke="black" d="M 271 130 304 159"/>
<path stroke-width="1" stroke="black" d="M 271 130 242 94"/>
<path stroke-width="1" stroke="black" d="M 242 94 271 130"/>
<path stroke-width="1" stroke="black" d="M 242 94 199 72"/>
<path stroke-width="1" stroke="black" d="M 199 72 242 94"/>
<path stroke-width="1" stroke="black" d="M 199 72 157 45"/>
<path stroke-width="1" stroke="black" d="M 157 45 199 72"/>
<path stroke-width="1" stroke="black" d="M 157 45 108 33"/>
<path stroke-width="1" stroke="black" d="M 108 33 157 45"/>
<path stroke-width="1" stroke="black" d="M 108 33 61 23"/>
<path stroke-width="1" stroke="black" d="M 61 23 108 33"/>
<path stroke-width="1" stroke="black" d="M 61 23 20 20"/>
<path stroke-width="1" stroke="black" d="M 401 294 377 264"/>
<path stroke-width="1" stroke="black" d="M 401 294 420 320"/>
<circle cx="20" cy="20" r="7.0" style="fill:gray;stroke:black;stroke-width:1.0"/>
<circle cx="61" cy="23" r="7.0" style="fill:gray;stroke:black;stroke-width:1.0"/>
<circle cx="108" cy="33" r="7.0" style="fill:gray;stroke:black;stroke-width:1.0"/>
<circle cx="157" cy="45" r="7.0" style="fill:gray;stroke:black;stroke-width:1.0"/>
<circle cx="199" cy="72" r="7.0" style="fill:gray;stroke:black;stroke-width:1.0"/>
<circle cx="242" cy="94" r="7.0" style="fill:gray;stroke:black;stroke-width:1.0"/>
<circle cx="271" cy="130" r="7.0" style="fill:gray;stroke:black;stroke-width:1.0"/>
<circle cx="304" cy="159" r="7.0" style="fill:gray;stroke:black;stroke-width:1.0"/>
<circle cx="328" cy="198" r="7.0" style="fill:gray;stroke:black;stroke-width:1.0"/>
<circle cx="355" cy="229" r="7.0" style="fill:gray;stroke:black;stroke-width:1.0"/>
<circle cx="377" cy="264" r="7.0" style="fill:gray;stroke:black;stroke-width:1.0"/>
<circle cx="420" cy="320" r="7.0" style="fill:gray;stroke:black;stroke-width:1.0"/>
<circle cx="401" cy="294" r="7.0" style="fill:gray;stroke:black;stroke-width:1.0"/>
</svg>
