<svg width="440" height="340" xmlns="http://www.w3.org/2000/svg">
<path stroke-width="1" stroke="black" d="M 20 320 48 300"/>
<path stroke-width="1" stroke="black" d="M 420 20 390 39"/>
<path stroke-width="1" stroke="black" d="M 358 62 390 39"/>
<path stroke-width="1" stroke="black" d="M 358 62 322 88"/>
<path stroke-width="1" stroke="black" d="M 322 88 358 62"/>
<path stroke-width="1" stroke="black" d="M 322 88 289 115"/>
<path stroke-width="1" stroke="black" d="M 289 115 322 88"/>
<path stroke-width="1" stroke="black" d="M 289 115 251 141"/>
<path stroke-width="1" stroke="black" d="M 251 141 289 115"/>
<path stroke-width="1" stroke="black" d="M 251 141 220 170"/>
<path stroke-width="1" stroke="black" d="M 220 170 251 141"/>
<path stroke-width="1" stroke="black" d="M 220 170 181 197"/>
<path stroke-width="1" stroke="black" d="M 181 197 220 170"/>
<path stroke-width="1" stroke="black" d="M 181 197 149 224"/>
<path stroke-width="1" stroke="black" d="M 149 224 181 197"/>
<path stroke-width="1" stroke="black" d="M 149 224 112 251"/>
<path stroke-width="1" stroke="black" d="M 112 251 149 224"/>
<path stroke-width="1" stroke="black" d="M 112 251 80 277"/>
<path stroke-width="1" stroke="black" d="M 80 277 112 251"/>
<path stroke-width="1" stroke="black" d="M 80 277 48 300"/>
<path stroke-width="1" stroke="black" d="M 48 300 80 277"/>
<path stroke-width="1" stroke="black" d="M 48 300 20 320"/>
<path stroke-width="1" stroke="black" d="M 390 39 358 62"/>
<path stroke-width="1" stroke="black" d="M 390 39 420 20"/>
<circle cx="20" cy="320" r="20.0" style="fill:gray;stroke:black;stroke-width:1.0"/>
<circle cx="48" cy="300" r="20.0" style="fill:gray;stroke:black;stroke-width:1.0"/>
<circle cx="80" cy="277" r="20.0" style="fill:gray;stroke:black;stroke-width:1.0"/>
<circle cx="112" cy="251" r="20.0" style="fill:gray;stroke:black;stroke-width:1.0"/>
<circle cx="149" cy="224" r="20.0" style="fill:gray;stroke:black;stroke-width:1.0"/>
<circle cx="181" cy="197" r="20.0" style="fill:gray;stroke:black;stroke-width:1.0"/>
<circle cx="220" cy="170" r="20.0" style="fill:gray;stroke:black;stroke-width:1.0"/>
<circle cx="251" cy="141" r="20.0" style="fill:gray;stroke:black;stroke-width:1.0"/>
<circle cx="289" cy="115" r="20.0" style="fill:gray;stroke:black;stroke-width:1.0"/>
<circle cx="322" cy="88" r="20.0" style="fill:gray;stroke:black;stroke-width:1.0"/>
<circle cx="358" cy="62" r="20.0" style="fill:gray;stroke:black;stroke-width:1.0"/>
<circle cx="420" cy="20" r="20.0" style="fill:gray;stroke:black;stroke-width:1.0"/>
<circle cx="390" cy="39" r="20.0" style="fill:gray;stroke:black;stroke-width:1.0"/>
</svg>
