<svg width="440" height="340" xmlns="http://www.w3.org/2000/svg">
<path stroke-width="1" stroke="black" d="M 420 320 412 301"/>
<path stroke-width="1" stroke="black" d="M 20 20 93 38"/>
<path stroke-width="1" stroke="black" d="M 171 61 93 38"/>
<path stroke-width="1" stroke="black" d="M 171 61 236 87"/>
<path stroke-width="1" stroke="black" d="M 236 87 171 61"/>
<path stroke-width="1" stroke="black" d="M 236 87 277 113"/>
<path stroke-width="1" stroke="black" d="M 277 113 236 87"/>
<path stroke-width="1" stroke="black" d="M 277 113 316 141"/>
<path stroke-width="1" stroke="black" d="M 316 141 277 113"/>
<path stroke-width="1" stroke="black" d="M 316 141 344 169"/>
<path stroke-width="1" stroke="black" d="M 344 169 316 141"/>
<path stroke-width="1" stroke="black" d="M 344 169 365 198"/>
<path stroke-width="1" stroke="black" d="M 365 198 344 169"/>
<path stroke-width="1" stroke="black" d="M 365 198 374 225"/>
<path stroke-width="1" stroke="black" d="M 374 225 365 198"/>
<path stroke-width="1" stroke="black" d="M 374 225 390 252"/>
<path stroke-width="1" stroke="black" d="M 390 252 374 225"/>
<path stroke-width="1" stroke="black" d="M 390 252 403 277"/>
<path stroke-width="1" stroke="black" d="M 403 277 390 252"/>
<path stroke-width="1" stroke="black" d="M 403 277 412 301"/>
<path stroke-width="1" stroke="black" d="M 412 301 403 277"/>
<path stroke-width="1" stroke="black" d="M 412 301 420 320"/>
<path stroke-width="1" stroke="black" d="M 93 38 171 61"/>
<path stroke-width="1" stroke="black" d="M 93 38 20 20"/>
<circle cx="420" cy="320" r="7.0" style="fill:gray;stroke:black;stroke-width:1.0"/>
<circle cx="412" cy="301" r="7.0" style="fill:gray;stroke:black;stroke-width:1.0"/>
<circle cx="403" cy="277" r="7.0" style="fill:gray;stroke:black;stroke-width:1.0"/>
<circle cx="390" cy="252" r="7.0" style="fill:gray;stroke:black;stroke-width:1.0"/>
<circle cx="374" cy="225" r="7.0" style="fill:gray;stroke:black;stroke-width:1.0"/>
<circle cx="365" cy="198" r="7.0" style="fill:gray;stroke:black;stroke-width:1.0"/>
<circle cx="344" cy="169" r="7.0" style="fill:gray;stroke:black;stroke-width:1.0"/>
<circle cx="316" cy="141" r="7.0" style="fill:gray;stroke:black;stroke-width:1.0"/>
<circle cx="277" cy="113" r="7.0" style="fill:gray;stroke:black;stroke-width:1.0"/>
<circle cx="236" cy="87" r="7.0" style="fill:gray;stroke:black;stroke-width:1.0"/>
<circle cx="171" cy="61" r="7.0" style="fill:gray;stroke:black;stroke-width:1.0"/>
<circle cx="20" cy="20" r="7.0" style="fill:gray;stroke:black;stroke-width:1.0"/>
<circle cx="93" cy="38" r="7.0" style="fill:gray;stroke:black;stroke-width:1.0"/>
</svg>
