<svg width="440" height="340" xmlns="http://www.w3.org/2000/svg">
<path stroke-width="1" stroke="black" d="M 308 20 268 99"/>
<path stroke-width="1" stroke="black" d="M 304 221 145 213"/>
<path stroke-width="1" stroke="black" d="M 304 221 268 99"/>
<path stroke-width="1" stroke="black" d="M 332 278 304 221"/>
<path stroke-width="1" stroke="black" d="M 124 127 210 235"/>
<path stroke-width="1" stroke="black" d="M 124 127 102 173"/>
<path stroke-width="1" stroke="black" d="M 124 127 304 221"/>
<path stroke-width="1" stroke="black" d="M 124 127 66 85"/>
<path stroke-width="1" stroke="black" d="M 124 127 324 130"/>
<path stroke-width="1" stroke="black" d="M 124 127 224 160"/>
<path stroke-width="1" stroke="black" d="M 124 127 188 97"/>
<path stroke-width="1" stroke="black" d="M 124 127 351 179"/>
<path stroke-width="1" stroke="black" d="M 124 127 145 213"/>
<path stroke-width="1" stroke="black" d="M 124 127 268 99"/>
<path stroke-width="1" stroke="black" d="M 66 85 124 127"/>
<path stroke-width="1" stroke="black" d="M 324 130 210 235"/>
<path stroke-width="1" stroke="black" d="M 324 130 102 173"/>
<path stroke-width="1" stroke="black" d="M 324 130 304 221"/>
<path stroke-width="1" stroke="black" d="M 324 130 124 127"/>
<path stroke-width="1" stroke="black" d="M 324 130 389 89"/>
<path stroke-width="1" stroke="black" d="M 324 130 224 160"/>
<path stroke-width="1" stroke="black" d="M 324 130 188 97"/>
<path stroke-width="1" stroke="black" d="M 324 130 351 179"/>
<path stroke-width="1" stroke="black" d="M 324 130 145 213"/>
<path stroke-width="1" stroke="black" d="M 304 221 351 179"/>
<path stroke-width="1" stroke="black" d="M 304 221 188 97"/>
<path stroke-width="1" stroke="black" d="M 304 221 224 160"/>
<path stroke-width="1" stroke="black" d="M 304 221 324 130"/>
<path stroke-width="1" stroke="black" d="M 210 235 304 221"/>
<path stroke-width="1" stroke="black" d="M 210 235 124 127"/>
<path stroke-width="1" stroke="black" d="M 210 235 324 130"/>
<path stroke-width="1" stroke="black" d="M 210 235 224 160"/>
<path stroke-width="1" stroke="black" d="M 210 235 188 97"/>
<path stroke-width="1" stroke="black" d="M 210 235 351 179"/>
<path stroke-width="1" stroke="black" d="M 210 235 145 213"/>
<path stroke-width="1" stroke="black" d="M 210 235 268 99"/>
<path stroke-width="1" stroke="black" d="M 201 320 210 235"/>
<path stroke-width="1" stroke="black" d="M 102 173 210 235"/>
<path stroke-width="1" stroke="black" d="M 102 173 20 193"/>
<path stroke-width="1" stroke="black" d="M 324 130 268 99"/>
<path stroke-width="1" stroke="black" d="M 102 173 304 221"/>
<path stroke-width="1" stroke="black" d="M 102 173 324 130"/>
<path stroke-width="1" stroke="black" d="M 102 173 224 160"/>
<path stroke-width="1" stroke="black" d="M 102 173 188 97"/>
<path stroke-width="1" stroke="black" d="M 102 173 351 179"/>
<path stroke-width="1" stroke="black" d="M 102 173 145 213"/>
<path stroke-width="1" stroke="black" d="M 102 173 268 99"/>
<path stroke-width="1" stroke="black" d="M 20 193 102 173"/>
<path stroke-width="1" stroke="black" d="M 304 221 210 235"/>
<path stroke-width="1" stroke="black" d="M 304 221 102 173"/>
<path stroke-width="1" stroke="black" d="M 304 221 332 278"/>
<path stroke-width="1" stroke="black" d="M 304 221 124 127"/>
<path stroke-width="1" stroke="black" d="M 102 173 124 127"/>
<path stroke-width="1" stroke="black" d="M 389 89 324 130"/>
<path stroke-width="1" stroke="black" d="M 224 160 210 235"/>
<path stroke-width="1" stroke="black" d="M 224 160 102 173"/>
<path stroke-width="1" stroke="black" d="M 351 179 145 213"/>
<path stroke-width="1" stroke="black" d="M 351 179 268 99"/>
<path stroke-width="1" stroke="black" d="M 420 198 351 179"/>
<path stroke-width="1" stroke="black" d="M 145 213 210 235"/>
<path stroke-width="1" stroke="black" d="M 145 213 102 173"/>
<path stroke-width="1" stroke="black" d="M 145 213 304 221"/>
<path stroke-width="1" stroke="black" d="M 145 213 124 127"/>
<path stroke-width="1" stroke="black" d="M 145 213 324 130"/>
<path stroke-width="1" stroke="black" d="M 145 213 224 160"/>
<path stroke-width="1" stroke="black" d="M 145 213 188 97"/>
<path stroke-width="1" stroke="black" d="M 145 213 351 179"/>
<path stroke-width="1" stroke="black" d="M 351 179 420 198"/>
<path stroke-width="1" stroke="black" d="M 145 213 102 269"/>
<path stroke-width="1" stroke="black" d="M 102 269 145 213"/>
<path stroke-width="1" stroke="black" d="M 268 99 210 235"/>
<path stroke-width="1" stroke="black" d="M 268 99 102 173"/>
<path stroke-width="1" stroke="black" d="M 268 99 304 221"/>
<path stroke-width="1" stroke="black" d="M 268 99 124 127"/>
<path stroke-width="1" stroke="black" d="M 268 99 324 130"/>
<path stroke-width="1" stroke="black" d="M 268 99 224 160"/>
<path stroke-width="1" stroke="black" d="M 268 99 188 97"/>
<path stroke-width="1" stroke="black" d="M 268 99 351 179"/>
<path stroke-width="1" stroke="black" d="M 268 99 145 213"/>
<path stroke-width="1" stroke="black" d="M 268 99 308 20"/>
<path stroke-width="1" stroke="black" d="M 145 213 268 99"/>
<path stroke-width="1" stroke="black" d="M 210 235 102 173"/>
<path stroke-width="1" stroke="black" d="M 351 179 188 97"/>
<path stroke-width="1" stroke="black" d="M 351 179 324 130"/>
<path stroke-width="1" stroke="black" d="M 224 160 304 221"/>
<path stroke-width="1" stroke="black" d="M 224 160 124 127"/>
<path stroke-width="1" stroke="black" d="M 224 160 324 130"/>
<path stroke-width="1" stroke="black" d="M 224 160 239 193"/>
<path stroke-width="1" stroke="black" d="M 224 160 188 97"/>
<path stroke-width="1" stroke="black" d="M 224 160 351 179"/>
<path stroke-width="1" stroke="black" d="M 224 160 145 213"/>
<path stroke-width="1" stroke="black" d="M 224 160 268 99"/>
<path stroke-width="1" stroke="black" d="M 239 193 224 160"/>
<path stroke-width="1" stroke="black" d="M 188 97 210 235"/>
<path stroke-width="1" stroke="black" d="M 188 97 102 173"/>
<path stroke-width="1" stroke="black" d="M 351 179 224 160"/>
<path stroke-width="1" stroke="black" d="M 188 97 304 221"/>
<path stroke-width="1" stroke="black" d="M 188 97 324 130"/>
<path stroke-width="1" stroke="black" d="M 188 97 224 160"/>
<path stroke-width="1" stroke="black" d="M 188 97 167 34"/>
<path stroke-width="1" stroke="black" d="M 188 97 351 179"/>
<path stroke-width="1" stroke="black" d="M 188 97 145 213"/>
<path stroke-width="1" stroke="black" d="M 188 97 268 99"/>
<path stroke-width="1" stroke="black" d="M 167 34 188 97"/>
<path stroke-width="1" stroke="black" d="M 351 179 210 235"/>
<path stroke-width="1" stroke="black" d="M 351 179 102 173"/>
<path stroke-width="1" stroke="black" d="M 351 179 304 221"/>
<path stroke-width="1" stroke="black" d="M 351 179 124 127"/>
<path stroke-width="1" stroke="black" d="M 188 97 124 127"/>
<path stroke-width="1" stroke="black" d="M 210 235 201 320"/>
<circle cx="308" cy="20" r="7.0" style="fill:green;stroke:black;stroke-width:1.0"/>
<circle cx="268" cy="99" r="7.0" style="fill:green;stroke:black;stroke-width:1.0"/>
<circle cx="102" cy="269" r="7.0" style="fill:orange;stroke:black;stroke-width:1.0"/>
<circle cx="145" cy="213" r="7.0" style="fill:orange;stroke:black;stroke-width:1.0"/>
<circle cx="420" cy="198" r="7.0" style="fill:purple;stroke:black;stroke-width:1.0"/>
<circle cx="351" cy="179" r="7.0" style="fill:purple;stroke:black;stroke-width:1.0"/>
<circle cx="167" cy="34" r="7.0" style="fill:orange;stroke:black;stroke-width:1.0"/>
<circle cx="188" cy="97" r="7.0" style="fill:orange;stroke:black;stroke-width:1.0"/>
<circle cx="239" cy="193" r="7.0" style="fill:blue;stroke:black;stroke-width:1.0"/>
<circle cx="224" cy="160" r="7.0" style="fill:blue;stroke:black;stroke-width:1.0"/>
<circle cx="389" cy="89" r="7.0" style="fill:red;stroke:black;stroke-width:1.0"/>
<circle cx="324" cy="130" r="7.0" style="fill:red;stroke:black;stroke-width:1.0"/>
<circle cx="66" cy="85" r="7.0" style="fill:orange;stroke:black;stroke-width:1.0"/>
<circle cx="124" cy="127" r="7.0" style="fill:orange;stroke:black;stroke-width:1.0"/>
<circle cx="332" cy="278" r="7.0" style="fill:orange;stroke:black;stroke-width:1.0"/>
<circle cx="304" cy="221" r="7.0" style="fill:orange;stroke:black;stroke-width:1.0"/>
<circle cx="20" cy="193" r="7.0" style="fill:orange;stroke:black;stroke-width:1.0"/>
<circle cx="102" cy="173" r="7.0" style="fill:orange;stroke:black;stroke-width:1.0"/>
<circle cx="201" cy="320" r="7.0" style="fill:orange;stroke:black;stroke-width:1.0"/>
<circle cx="210" cy="235" r="7.0" style="fill:orange;stroke:black;stroke-width:1.0"/>
</svg>
