<svg width="440" height="340" xmlns="http://www.w3.org/2000/svg">
<path stroke-width="1" stroke="black" d="M 20 200 130 186"/>
<path stroke-width="1" stroke="black" d="M 232 255 232 169"/>
<path stroke-width="1" stroke="black" d="M 232 255 130 186"/>
<path stroke-width="1" stroke="black" d="M 222 320 232 255"/>
<path stroke-width="1" stroke="black" d="M 284 93 150 118"/>
<path stroke-width="1" stroke="black" d="M 284 93 216 83"/>
<path stroke-width="1" stroke="black" d="M 284 93 232 255"/>
<path stroke-width="1" stroke="black" d="M 284 93 326 36"/>
<path stroke-width="1" stroke="black" d="M 284 93 168 233"/>
<path stroke-width="1" stroke="black" d="M 284 93 305 237"/>
<path stroke-width="1" stroke="black" d="M 284 93 336 187"/>
<path stroke-width="1" stroke="black" d="M 284 93 329 134"/>
<path stroke-width="1" stroke="black" d="M 284 93 232 169"/>
<path stroke-width="1" stroke="black" d="M 284 93 130 186"/>
<path stroke-width="1" stroke="black" d="M 326 36 284 93"/>
<path stroke-width="1" stroke="black" d="M 168 233 150 118"/>
<path stroke-width="1" stroke="black" d="M 168 233 216 83"/>
<path stroke-width="1" stroke="black" d="M 168 233 232 255"/>
<path stroke-width="1" stroke="black" d="M 168 233 284 93"/>
<path stroke-width="1" stroke="black" d="M 168 233 105 276"/>
<path stroke-width="1" stroke="black" d="M 168 233 305 237"/>
<path stroke-width="1" stroke="black" d="M 168 233 336 187"/>
<path stroke-width="1" stroke="black" d="M 168 233 329 134"/>
<path stroke-width="1" stroke="black" d="M 168 233 232 169"/>
<path stroke-width="1" stroke="black" d="M 232 255 329 134"/>
<path stroke-width="1" stroke="black" d="M 232 255 336 187"/>
<path stroke-width="1" stroke="black" d="M 232 255 305 237"/>
<path stroke-width="1" stroke="black" d="M 232 255 168 233"/>
<path stroke-width="1" stroke="black" d="M 150 118 232 255"/>
<path stroke-width="1" stroke="black" d="M 150 118 284 93"/>
<path stroke-width="1" stroke="black" d="M 150 118 168 233"/>
<path stroke-width="1" stroke="black" d="M 150 118 305 237"/>
<path stroke-width="1" stroke="black" d="M 150 118 336 187"/>
<path stroke-width="1" stroke="black" d="M 150 118 329 134"/>
<path stroke-width="1" stroke="black" d="M 150 118 232 169"/>
<path stroke-width="1" stroke="black" d="M 150 118 130 186"/>
<path stroke-width="1" stroke="black" d="M 53 76 150 118"/>
<path stroke-width="1" stroke="black" d="M 216 83 150 118"/>
<path stroke-width="1" stroke="black" d="M 216 83 199 20"/>
<path stroke-width="1" stroke="black" d="M 168 233 130 186"/>
<path stroke-width="1" stroke="black" d="M 216 83 232 255"/>
<path stroke-width="1" stroke="black" d="M 216 83 168 233"/>
<path stroke-width="1" stroke="black" d="M 216 83 305 237"/>
<path stroke-width="1" stroke="black" d="M 216 83 336 187"/>
<path stroke-width="1" stroke="black" d="M 216 83 329 134"/>
<path stroke-width="1" stroke="black" d="M 216 83 232 169"/>
<path stroke-width="1" stroke="black" d="M 216 83 130 186"/>
<path stroke-width="1" stroke="black" d="M 199 20 216 83"/>
<path stroke-width="1" stroke="black" d="M 232 255 150 118"/>
<path stroke-width="1" stroke="black" d="M 232 255 216 83"/>
<path stroke-width="1" stroke="black" d="M 232 255 222 320"/>
<path stroke-width="1" stroke="black" d="M 232 255 284 93"/>
<path stroke-width="1" stroke="black" d="M 216 83 284 93"/>
<path stroke-width="1" stroke="black" d="M 105 276 168 233"/>
<path stroke-width="1" stroke="black" d="M 305 237 150 118"/>
<path stroke-width="1" stroke="black" d="M 305 237 216 83"/>
<path stroke-width="1" stroke="black" d="M 329 134 232 169"/>
<path stroke-width="1" stroke="black" d="M 329 134 130 186"/>
<path stroke-width="1" stroke="black" d="M 407 108 329 134"/>
<path stroke-width="1" stroke="black" d="M 232 169 150 118"/>
<path stroke-width="1" stroke="black" d="M 232 169 216 83"/>
<path stroke-width="1" stroke="black" d="M 232 169 232 255"/>
<path stroke-width="1" stroke="black" d="M 232 169 284 93"/>
<path stroke-width="1" stroke="black" d="M 232 169 168 233"/>
<path stroke-width="1" stroke="black" d="M 232 169 305 237"/>
<path stroke-width="1" stroke="black" d="M 232 169 336 187"/>
<path stroke-width="1" stroke="black" d="M 232 169 329 134"/>
<path stroke-width="1" stroke="black" d="M 329 134 407 108"/>
<path stroke-width="1" stroke="black" d="M 232 169 181 159"/>
<path stroke-width="1" stroke="black" d="M 181 159 232 169"/>
<path stroke-width="1" stroke="black" d="M 130 186 150 118"/>
<path stroke-width="1" stroke="black" d="M 130 186 216 83"/>
<path stroke-width="1" stroke="black" d="M 130 186 232 255"/>
<path stroke-width="1" stroke="black" d="M 130 186 284 93"/>
<path stroke-width="1" stroke="black" d="M 130 186 168 233"/>
<path stroke-width="1" stroke="black" d="M 130 186 305 237"/>
<path stroke-width="1" stroke="black" d="M 130 186 336 187"/>
<path stroke-width="1" stroke="black" d="M 130 186 329 134"/>
<path stroke-width="1" stroke="black" d="M 130 186 232 169"/>
<path stroke-width="1" stroke="black" d="M 130 186 20 200"/>
<path stroke-width="1" stroke="black" d="M 232 169 130 186"/>
<path stroke-width="1" stroke="black" d="M 150 118 216 83"/>
<path stroke-width="1" stroke="black" d="M 329 134 336 187"/>
<path stroke-width="1" stroke="black" d="M 329 134 168 233"/>
<path stroke-width="1" stroke="black" d="M 305 237 232 255"/>
<path stroke-width="1" stroke="black" d="M 305 237 284 93"/>
<path stroke-width="1" stroke="black" d="M 305 237 168 233"/>
<path stroke-width="1" stroke="black" d="M 305 237 364 284"/>
<path stroke-width="1" stroke="black" d="M 305 237 336 187"/>
<path stroke-width="1" stroke="black" d="M 305 237 329 134"/>
<path stroke-width="1" stroke="black" d="M 305 237 232 169"/>
<path stroke-width="1" stroke="black" d="M 305 237 130 186"/>
<path stroke-width="1" stroke="black" d="M 364 284 305 237"/>
<path stroke-width="1" stroke="black" d="M 336 187 150 118"/>
<path stroke-width="1" stroke="black" d="M 336 187 216 83"/>
<path stroke-width="1" stroke="black" d="M 329 134 305 237"/>
<path stroke-width="1" stroke="black" d="M 336 187 232 255"/>
<path stroke-width="1" stroke="black" d="M 336 187 168 233"/>
<path stroke-width="1" stroke="black" d="M 336 187 305 237"/>
<path stroke-width="1" stroke="black" d="M 336 187 420 199"/>
<path stroke-width="1" stroke="black" d="M 336 187 329 134"/>
<path stroke-width="1" stroke="black" d="M 336 187 232 169"/>
<path stroke-width="1" stroke="black" d="M 336 187 130 186"/>
<path stroke-width="1" stroke="black" d="M 420 199 336 187"/>
<path stroke-width="1" stroke="black" d="M 329 134 150 118"/>
<path stroke-width="1" stroke="black" d="M 329 134 216 83"/>
<path stroke-width="1" stroke="black" d="M 329 134 232 255"/>
<path stroke-width="1" stroke="black" d="M 329 134 284 93"/>
<path stroke-width="1" stroke="black" d="M 336 187 284 93"/>
<path stroke-width="1" stroke="black" d="M 150 118 53 76"/>
<circle cx="20" cy="200" r="7.0" style="fill:red;stroke:black;stroke-width:1.0"/>
<circle cx="130" cy="186" r="7.0" style="fill:red;stroke:black;stroke-width:1.0"/>
<circle cx="181" cy="159" r="7.0" style="fill:green;stroke:black;stroke-width:1.0"/>
<circle cx="232" cy="169" r="7.0" style="fill:green;stroke:black;stroke-width:1.0"/>
<circle cx="407" cy="108" r="7.0" style="fill:purple;stroke:black;stroke-width:1.0"/>
<circle cx="329" cy="134" r="7.0" style="fill:purple;stroke:black;stroke-width:1.0"/>
<circle cx="420" cy="199" r="7.0" style="fill:purple;stroke:black;stroke-width:1.0"/>
<circle cx="336" cy="187" r="7.0" style="fill:purple;stroke:black;stroke-width:1.0"/>
<circle cx="364" cy="284" r="7.0" style="fill:orange;stroke:black;stroke-width:1.0"/>
<circle cx="305" cy="237" r="7.0" style="fill:orange;stroke:black;stroke-width:1.0"/>
<circle cx="105" cy="276" r="7.0" style="fill:purple;stroke:black;stroke-width:1.0"/>
<circle cx="168" cy="233" r="7.0" style="fill:purple;stroke:black;stroke-width:1.0"/>
<circle cx="326" cy="36" r="7.0" style="fill:blue;stroke:black;stroke-width:1.0"/>
<circle cx="284" cy="93" r="7.0" style="fill:blue;stroke:black;stroke-width:1.0"/>
<circle cx="222" cy="320" r="7.0" style="fill:purple;stroke:black;stroke-width:1.0"/>
<circle cx="232" cy="255" r="7.0" style="fill:purple;stroke:black;stroke-width:1.0"/>
<circle cx="199" cy="20" r="7.0" style="fill:purple;stroke:black;stroke-width:1.0"/>
<circle cx="216" cy="83" r="7.0" style="fill:purple;stroke:black;stroke-width:1.0"/>
<circle cx="53" cy="76" r="7.0" style="fill:purple;stroke:black;stroke-width:1.0"/>
<circle cx="150" cy="118" r="7.0" style="fill:purple;stroke:black;stroke-width:1.0"/>
</svg>
