<svg width="440" height="340" xmlns="http://www.w3.org/2000/svg">
<path stroke-width="11.333333333333334" stroke="black" d="M 263 320 246 233"/>
<path stroke-width="0.5" stroke="black" d="M 230 84 164 227"/>
<path stroke-width="0.5" stroke="black" d="M 230 84 246 233"/>
<path stroke-width="20.0" stroke="black" d="M 240 20 230 84"/>
<path stroke-width="0.5" stroke="black" d="M 110 190 297 102"/>
<path stroke-width="0.5" stroke="black" d="M 110 190 334 145"/>
<path stroke-width="0.5" stroke="black" d="M 110 190 230 84"/>
<path stroke-width="20.0" stroke="black" d="M 110 190 40 228"/>
<path stroke-width="0.5" stroke="black" d="M 110 190 103 136"/>
<path stroke-width="0.5" stroke="black" d="M 110 190 153 88"/>
<path stroke-width="0.5" stroke="black" d="M 110 190 212 152"/>
<path stroke-width="0.5" stroke="black" d="M 110 190 319 194"/>
<path stroke-width="0.5" stroke="black" d="M 110 190 164 227"/>
<path stroke-width="0.5" stroke="black" d="M 110 190 246 233"/>
<path stroke-width="20.0" stroke="black" d="M 40 228 110 190"/>
<path stroke-width="0.5" stroke="black" d="M 103 136 297 102"/>
<path stroke-width="0.5" stroke="black" d="M 103 136 334 145"/>
<path stroke-width="0.5" stroke="black" d="M 103 136 230 84"/>
<path stroke-width="0.5" stroke="black" d="M 103 136 110 190"/>
<path stroke-width="20.0" stroke="black" d="M 103 136 20 120"/>
<path stroke-width="0.5" stroke="black" d="M 103 136 153 88"/>
<path stroke-width="0.5" stroke="black" d="M 103 136 212 152"/>
<path stroke-width="0.5" stroke="black" d="M 103 136 319 194"/>
<path stroke-width="0.5" stroke="black" d="M 103 136 164 227"/>
<path stroke-width="0.5" stroke="black" d="M 230 84 319 194"/>
<path stroke-width="0.5" stroke="black" d="M 230 84 212 152"/>
<path stroke-width="0.5" stroke="black" d="M 230 84 153 88"/>
<path stroke-width="0.5" stroke="black" d="M 230 84 103 136"/>
<path stroke-width="0.5" stroke="black" d="M 297 102 230 84"/>
<path stroke-width="0.5" stroke="black" d="M 297 102 110 190"/>
<path stroke-width="0.5" stroke="black" d="M 297 102 103 136"/>
<path stroke-width="0.5" stroke="black" d="M 297 102 153 88"/>
<path stroke-width="0.5" stroke="black" d="M 297 102 212 152"/>
<path stroke-width="0.5" stroke="black" d="M 297 102 319 194"/>
<path stroke-width="0.5" stroke="black" d="M 297 102 164 227"/>
<path stroke-width="0.5" stroke="black" d="M 297 102 246 233"/>
<path stroke-width="11.333333333333334" stroke="black" d="M 378 37 297 102"/>
<path stroke-width="0.5" stroke="black" d="M 334 145 297 102"/>
<path stroke-width="20.0" stroke="black" d="M 334 145 420 135"/>
<path stroke-width="0.5" stroke="black" d="M 103 136 246 233"/>
<path stroke-width="0.5" stroke="black" d="M 334 145 230 84"/>
<path stroke-width="0.5" stroke="black" d="M 334 145 103 136"/>
<path stroke-width="0.5" stroke="black" d="M 334 145 153 88"/>
<path stroke-width="0.5" stroke="black" d="M 334 145 212 152"/>
<path stroke-width="0.5" stroke="black" d="M 334 145 319 194"/>
<path stroke-width="0.5" stroke="black" d="M 334 145 164 227"/>
<path stroke-width="0.5" stroke="black" d="M 334 145 246 233"/>
<path stroke-width="20.0" stroke="black" d="M 420 135 334 145"/>
<path stroke-width="0.5" stroke="black" d="M 230 84 297 102"/>
<path stroke-width="0.5" stroke="black" d="M 230 84 334 145"/>
<path stroke-width="20.0" stroke="black" d="M 230 84 240 20"/>
<path stroke-width="0.5" stroke="black" d="M 230 84 110 190"/>
<path stroke-width="0.5" stroke="black" d="M 334 145 110 190"/>
<path stroke-width="20.0" stroke="black" d="M 20 120 103 136"/>
<path stroke-width="0.5" stroke="black" d="M 153 88 297 102"/>
<path stroke-width="0.5" stroke="black" d="M 153 88 334 145"/>
<path stroke-width="0.5" stroke="black" d="M 319 194 164 227"/>
<path stroke-width="0.5" stroke="black" d="M 319 194 246 233"/>
<path stroke-width="20.0" stroke="black" d="M 394 227 319 194"/>
<path stroke-width="0.5" stroke="black" d="M 164 227 297 102"/>
<path stroke-width="0.5" stroke="black" d="M 164 227 334 145"/>
<path stroke-width="0.5" stroke="black" d="M 164 227 230 84"/>
<path stroke-width="0.5" stroke="black" d="M 164 227 110 190"/>
<path stroke-width="0.5" stroke="black" d="M 164 227 103 136"/>
<path stroke-width="0.5" stroke="black" d="M 164 227 153 88"/>
<path stroke-width="0.5" stroke="black" d="M 164 227 212 152"/>
<path stroke-width="0.5" stroke="black" d="M 164 227 319 194"/>
<path stroke-width="20.0" stroke="black" d="M 319 194 394 227"/>
<path stroke-width="20.0" stroke="black" d="M 164 227 133 287"/>
<path stroke-width="20.0" stroke="black" d="M 133 287 164 227"/>
<path stroke-width="0.5" stroke="black" d="M 246 233 297 102"/>
<path stroke-width="0.5" stroke="black" d="M 246 233 334 145"/>
<path stroke-width="0.5" stroke="black" d="M 246 233 230 84"/>
<path stroke-width="0.5" stroke="black" d="M 246 233 110 190"/>
<path stroke-width="0.5" stroke="black" d="M 246 233 103 136"/>
<path stroke-width="0.5" stroke="black" d="M 246 233 153 88"/>
<path stroke-width="0.5" stroke="black" d="M 246 233 212 152"/>
<path stroke-width="0.5" stroke="black" d="M 246 233 319 194"/>
<path stroke-width="0.5" stroke="black" d="M 246 233 164 227"/>
<path stroke-width="11.333333333333334" stroke="black" d="M 246 233 263 320"/>
<path stroke-width="0.5" stroke="black" d="M 164 227 246 233"/>
<path stroke-width="0.5" stroke="black" d="M 297 102 334 145"/>
<path stroke-width="0.5" stroke="black" d="M 319 194 212 152"/>
<path stroke-width="0.5" stroke="black" d="M 319 194 103 136"/>
<path stroke-width="0.5" stroke="black" d="M 153 88 230 84"/>
<path stroke-width="0.5" stroke="black" d="M 153 88 110 190"/>
<path stroke-width="0.5" stroke="black" d="M 153 88 103 136"/>
<path stroke-width="20.0" stroke="black" d="M 153 88 115 29"/>
<path stroke-width="0.5" stroke="black" d="M 153 88 212 152"/>
<path stroke-width="0.5" stroke="black" d="M 153 88 319 194"/>
<path stroke-width="0.5" stroke="black" d="M 153 88 164 227"/>
<path stroke-width="0.5" stroke="black" d="M 153 88 246 233"/>
<path stroke-width="20.0" stroke="black" d="M 115 29 153 88"/>
<path stroke-width="0.5" stroke="black" d="M 212 152 297 102"/>
<path stroke-width="0.5" stroke="black" d="M 212 152 334 145"/>
<path stroke-width="0.5" stroke="black" d="M 319 194 153 88"/>
<path stroke-width="0.5" stroke="black" d="M 212 152 230 84"/>
<path stroke-width="0.5" stroke="black" d="M 212 152 103 136"/>
<path stroke-width="0.5" stroke="black" d="M 212 152 153 88"/>
<path stroke-width="20.0" stroke="black" d="M 212 152 214 187"/>
<path stroke-width="0.5" stroke="black" d="M 212 152 319 194"/>
<path stroke-width="0.5" stroke="black" d="M 212 152 164 227"/>
<path stroke-width="0.5" stroke="black" d="M 212 152 246 233"/>
<path stroke-width="20.0" stroke="black" d="M 214 187 212 152"/>
<path stroke-width="0.5" stroke="black" d="M 319 194 297 102"/>
<path stroke-width="0.5" stroke="black" d="M 319 194 334 145"/>
<path stroke-width="0.5" stroke="black" d="M 319 194 230 84"/>
<path stroke-width="0.5" stroke="black" d="M 319 194 110 190"/>
<path stroke-width="0.5" stroke="black" d="M 212 152 110 190"/>
<path stroke-width="11.333333333333334" stroke="black" d="M 297 102 378 37"/>
<circle cx="263" cy="320" r="7.0" style="fill:orange;stroke:black;stroke-width:1.0"/>
<circle cx="246" cy="233" r="7.0" style="fill:orange;stroke:black;stroke-width:1.0"/>
<circle cx="133" cy="287" r="7.0" style="fill:blue;stroke:black;stroke-width:1.0"/>
<circle cx="164" cy="227" r="7.0" style="fill:blue;stroke:black;stroke-width:1.0"/>
<circle cx="394" cy="227" r="7.0" style="fill:red;stroke:black;stroke-width:1.0"/>
<circle cx="319" cy="194" r="7.0" style="fill:red;stroke:black;stroke-width:1.0"/>
<circle cx="214" cy="187" r="7.0" style="fill:green;stroke:black;stroke-width:1.0"/>
<circle cx="212" cy="152" r="7.0" style="fill:green;stroke:black;stroke-width:1.0"/>
<circle cx="115" cy="29" r="7.0" style="fill:orange;stroke:black;stroke-width:1.0"/>
<circle cx="153" cy="88" r="7.0" style="fill:orange;stroke:black;stroke-width:1.0"/>
<circle cx="20" cy="120" r="7.0" style="fill:orange;stroke:black;stroke-width:1.0"/>
<circle cx="103" cy="136" r="7.0" style="fill:orange;stroke:black;stroke-width:1.0"/>
<circle cx="40" cy="228" r="7.0" style="fill:orange;stroke:black;stroke-width:1.0"/>
<circle cx="110" cy="190" r="7.0" style="fill:orange;stroke:black;stroke-width:1.0"/>
<circle cx="240" cy="20" r="7.0" style="fill:orange;stroke:black;stroke-width:1.0"/>
<circle cx="230" cy="84" r="7.0" style="fill:orange;stroke:black;stroke-width:1.0"/>
<circle cx="420" cy="135" r="7.0" style="fill:purple;stroke:black;stroke-width:1.0"/>
<circle cx="334" cy="145" r="7.0" style="fill:purple;stroke:black;stroke-width:1.0"/>
<circle cx="378" cy="37" r="7.0" style="fill:orange;stroke:black;stroke-width:1.0"/>
<circle cx="297" cy="102" r="7.0" style="fill:orange;stroke:black;stroke-width:1.0"/>
</svg>
