<svg width="440" height="340" xmlns="http://www.w3.org/2000/svg">
<path stroke-width="11.333333333333334" stroke="black" d="M 20 130 119 157"/>
<path stroke-width="0.5" stroke="black" d="M 305 103 275 248"/>
<path stroke-width="0.5" stroke="black" d="M 305 103 119 157"/>
<path stroke-width="20.0" stroke="black" d="M 353 44 305 103"/>
<path stroke-width="0.5" stroke="black" d="M 180 102 218 169"/>
<path stroke-width="0.5" stroke="black" d="M 180 102 200 248"/>
<path stroke-width="0.5" stroke="black" d="M 180 102 305 103"/>
<path stroke-width="20.0" stroke="black" d="M 180 102 136 42"/>
<path stroke-width="0.5" stroke="black" d="M 180 102 243 94"/>
<path stroke-width="0.5" stroke="black" d="M 180 102 137 213"/>
<path stroke-width="0.5" stroke="black" d="M 180 102 347 152"/>
<path stroke-width="0.5" stroke="black" d="M 180 102 304 198"/>
<path stroke-width="0.5" stroke="black" d="M 180 102 275 248"/>
<path stroke-width="0.5" stroke="black" d="M 180 102 119 157"/>
<path stroke-width="20.0" stroke="black" d="M 136 42 180 102"/>
<path stroke-width="0.5" stroke="black" d="M 243 94 218 169"/>
<path stroke-width="0.5" stroke="black" d="M 243 94 200 248"/>
<path stroke-width="0.5" stroke="black" d="M 243 94 305 103"/>
<path stroke-width="0.5" stroke="black" d="M 243 94 180 102"/>
<path stroke-width="20.0" stroke="black" d="M 243 94 246 20"/>
<path stroke-width="0.5" stroke="black" d="M 243 94 137 213"/>
<path stroke-width="0.5" stroke="black" d="M 243 94 347 152"/>
<path stroke-width="0.5" stroke="black" d="M 243 94 304 198"/>
<path stroke-width="0.5" stroke="black" d="M 243 94 275 248"/>
<path stroke-width="0.5" stroke="black" d="M 305 103 304 198"/>
<path stroke-width="0.5" stroke="black" d="M 305 103 347 152"/>
<path stroke-width="0.5" stroke="black" d="M 305 103 137 213"/>
<path stroke-width="0.5" stroke="black" d="M 305 103 243 94"/>
<path stroke-width="0.5" stroke="black" d="M 218 169 305 103"/>
<path stroke-width="0.5" stroke="black" d="M 218 169 180 102"/>
<path stroke-width="0.5" stroke="black" d="M 218 169 243 94"/>
<path stroke-width="0.5" stroke="black" d="M 218 169 137 213"/>
<path stroke-width="0.5" stroke="black" d="M 218 169 347 152"/>
<path stroke-width="0.5" stroke="black" d="M 218 169 304 198"/>
<path stroke-width="0.5" stroke="black" d="M 218 169 275 248"/>
<path stroke-width="0.5" stroke="black" d="M 218 169 119 157"/>
<path stroke-width="11.333333333333334" stroke="black" d="M 153 135 218 169"/>
<path stroke-width="0.5" stroke="black" d="M 200 248 218 169"/>
<path stroke-width="20.0" stroke="black" d="M 200 248 178 319"/>
<path stroke-width="0.5" stroke="black" d="M 243 94 119 157"/>
<path stroke-width="0.5" stroke="black" d="M 200 248 305 103"/>
<path stroke-width="0.5" stroke="black" d="M 200 248 243 94"/>
<path stroke-width="0.5" stroke="black" d="M 200 248 137 213"/>
<path stroke-width="0.5" stroke="black" d="M 200 248 347 152"/>
<path stroke-width="0.5" stroke="black" d="M 200 248 304 198"/>
<path stroke-width="0.5" stroke="black" d="M 200 248 275 248"/>
<path stroke-width="0.5" stroke="black" d="M 200 248 119 157"/>
<path stroke-width="20.0" stroke="black" d="M 178 319 200 248"/>
<path stroke-width="0.5" stroke="black" d="M 305 103 218 169"/>
<path stroke-width="0.5" stroke="black" d="M 305 103 200 248"/>
<path stroke-width="20.0" stroke="black" d="M 305 103 353 44"/>
<path stroke-width="0.5" stroke="black" d="M 305 103 180 102"/>
<path stroke-width="0.5" stroke="black" d="M 200 248 180 102"/>
<path stroke-width="20.0" stroke="black" d="M 246 20 243 94"/>
<path stroke-width="0.5" stroke="black" d="M 137 213 218 169"/>
<path stroke-width="0.5" stroke="black" d="M 137 213 200 248"/>
<path stroke-width="0.5" stroke="black" d="M 304 198 275 248"/>
<path stroke-width="0.5" stroke="black" d="M 304 198 119 157"/>
<path stroke-width="20.0" stroke="black" d="M 363 241 304 198"/>
<path stroke-width="0.5" stroke="black" d="M 275 248 218 169"/>
<path stroke-width="0.5" stroke="black" d="M 275 248 200 248"/>
<path stroke-width="0.5" stroke="black" d="M 275 248 305 103"/>
<path stroke-width="0.5" stroke="black" d="M 275 248 180 102"/>
<path stroke-width="0.5" stroke="black" d="M 275 248 243 94"/>
<path stroke-width="0.5" stroke="black" d="M 275 248 137 213"/>
<path stroke-width="0.5" stroke="black" d="M 275 248 347 152"/>
<path stroke-width="0.5" stroke="black" d="M 275 248 304 198"/>
<path stroke-width="20.0" stroke="black" d="M 304 198 363 241"/>
<path stroke-width="20.0" stroke="black" d="M 275 248 298 320"/>
<path stroke-width="20.0" stroke="black" d="M 298 320 275 248"/>
<path stroke-width="0.5" stroke="black" d="M 119 157 218 169"/>
<path stroke-width="0.5" stroke="black" d="M 119 157 200 248"/>
<path stroke-width="0.5" stroke="black" d="M 119 157 305 103"/>
<path stroke-width="0.5" stroke="black" d="M 119 157 180 102"/>
<path stroke-width="0.5" stroke="black" d="M 119 157 243 94"/>
<path stroke-width="0.5" stroke="black" d="M 119 157 137 213"/>
<path stroke-width="0.5" stroke="black" d="M 119 157 347 152"/>
<path stroke-width="0.5" stroke="black" d="M 119 157 304 198"/>
<path stroke-width="0.5" stroke="black" d="M 119 157 275 248"/>
<path stroke-width="11.333333333333334" stroke="black" d="M 119 157 20 130"/>
<path stroke-width="0.5" stroke="black" d="M 275 248 119 157"/>
<path stroke-width="0.5" stroke="black" d="M 218 169 200 248"/>
<path stroke-width="0.5" stroke="black" d="M 304 198 347 152"/>
<path stroke-width="0.5" stroke="black" d="M 304 198 243 94"/>
<path stroke-width="0.5" stroke="black" d="M 137 213 305 103"/>
<path stroke-width="0.5" stroke="black" d="M 137 213 180 102"/>
<path stroke-width="0.5" stroke="black" d="M 137 213 243 94"/>
<path stroke-width="20.0" stroke="black" d="M 137 213 73 252"/>
<path stroke-width="0.5" stroke="black" d="M 137 213 347 152"/>
<path stroke-width="0.5" stroke="black" d="M 137 213 304 198"/>
<path stroke-width="0.5" stroke="black" d="M 137 213 275 248"/>
<path stroke-width="0.5" stroke="black" d="M 137 213 119 157"/>
<path stroke-width="20.0" stroke="black" d="M 73 252 137 213"/>
<path stroke-width="0.5" stroke="black" d="M 347 152 218 169"/>
<path stroke-width="0.5" stroke="black" d="M 347 152 200 248"/>
<path stroke-width="0.5" stroke="black" d="M 304 198 137 213"/>
<path stroke-width="0.5" stroke="black" d="M 347 152 305 103"/>
<path stroke-width="0.5" stroke="black" d="M 347 152 243 94"/>
<path stroke-width="0.5" stroke="black" d="M 347 152 137 213"/>
<path stroke-width="20.0" stroke="black" d="M 347 152 420 133"/>
<path stroke-width="0.5" stroke="black" d="M 347 152 304 198"/>
<path stroke-width="0.5" stroke="black" d="M 347 152 275 248"/>
<path stroke-width="0.5" stroke="black" d="M 347 152 119 157"/>
<path stroke-width="20.0" stroke="black" d="M 420 133 347 152"/>
<path stroke-width="0.5" stroke="black" d="M 304 198 218 169"/>
<path stroke-width="0.5" stroke="black" d="M 304 198 200 248"/>
<path stroke-width="0.5" stroke="black" d="M 304 198 305 103"/>
<path stroke-width="0.5" stroke="black" d="M 304 198 180 102"/>
<path stroke-width="0.5" stroke="black" d="M 347 152 180 102"/>
<path stroke-width="11.333333333333334" stroke="black" d="M 218 169 153 135"/>
<circle cx="20" cy="130" r="7.0" style="fill:gray;stroke:black;stroke-width:1.0"/>
<circle cx="119" cy="157" r="7.0" style="fill:gray;stroke:black;stroke-width:1.0"/>
<circle cx="298" cy="320" r="7.0" style="fill:gray;stroke:black;stroke-width:1.0"/>
<circle cx="275" cy="248" r="7.0" style="fill:gray;stroke:black;stroke-width:1.0"/>
<circle cx="363" cy="241" r="7.0" style="fill:gray;stroke:black;stroke-width:1.0"/>
<circle cx="304" cy="198" r="7.0" style="fill:gray;stroke:black;stroke-width:1.0"/>
<circle cx="420" cy="133" r="7.0" style="fill:gray;stroke:black;stroke-width:1.0"/>
<circle cx="347" cy="152" r="7.0" style="fill:gray;stroke:black;stroke-width:1.0"/>
<circle cx="73" cy="252" r="7.0" style="fill:gray;stroke:black;stroke-width:1.0"/>
<circle cx="137" cy="213" r="7.0" style="fill:gray;stroke:black;stroke-width:1.0"/>
<circle cx="246" cy="20" r="7.0" style="fill:gray;stroke:black;stroke-width:1.0"/>
<circle cx="243" cy="94" r="7.0" style="fill:gray;stroke:black;stroke-width:1.0"/>
<circle cx="136" cy="42" r="7.0" style="fill:gray;stroke:black;stroke-width:1.0"/>
<circle cx="180" cy="102" r="7.0" style="fill:gray;stroke:black;stroke-width:1.0"/>
<circle cx="353" cy="44" r="7.0" style="fill:gray;stroke:black;stroke-width:1.0"/>
<circle cx="305" cy="103" r="7.0" style="fill:gray;stroke:black;stroke-width:1.0"/>
<circle cx="178" cy="319" r="7.0" style="fill:gray;stroke:black;stroke-width:1.0"/>
<circle cx="200" cy="248" r="7.0" style="fill:gray;stroke:black;stroke-width:1.0"/>
<circle cx="153" cy="135" r="7.0" style="fill:gray;stroke:black;stroke-width:1.0"/>
<circle cx="218" cy="169" r="7.0" style="fill:gray;stroke:black;stroke-width:1.0"/>
</svg>
