<svg width="440" height="340" xmlns="http://www.w3.org/2000/svg">
<path stroke-width="1" stroke="black" d="M 20 20 64 30"/>
<path stroke-width="1" stroke="black" d="M 385 209 400 220"/>
<path stroke-width="1" stroke="black" d="M 385 209 313 228"/>
<path stroke-width="1" stroke="black" d="M 301 221 313 228"/>
<path stroke-width="1" stroke="black" d="M 313 228 385 209"/>
<path stroke-width="1" stroke="black" d="M 313 228 301 221"/>
<path stroke-width="1" stroke="black" d="M 313 228 279 254"/>
<path stroke-width="1" stroke="black" d="M 247 250 279 254"/>
<path stroke-width="1" stroke="black" d="M 279 254 313 228"/>
<path stroke-width="1" stroke="black" d="M 279 254 247 250"/>
<path stroke-width="1" stroke="black" d="M 279 254 331 282"/>
<path stroke-width="1" stroke="black" d="M 362 283 331 282"/>
<path stroke-width="1" stroke="black" d="M 331 282 279 254"/>
<path stroke-width="1" stroke="black" d="M 331 282 362 283"/>
<path stroke-width="1" stroke="black" d="M 331 282 350 309"/>
<path stroke-width="1" stroke="black" d="M 356 320 350 309"/>
<path stroke-width="1" stroke="black" d="M 385 209 402 175"/>
<path stroke-width="1" stroke="black" d="M 400 220 385 209"/>
<path stroke-width="1" stroke="black" d="M 402 175 385 209"/>
<path stroke-width="1" stroke="black" d="M 402 175 420 177"/>
<path stroke-width="1" stroke="black" d="M 64 30 20 20"/>
<path stroke-width="1" stroke="black" d="M 64 30 170 52"/>
<path stroke-width="1" stroke="black" d="M 173 45 170 52"/>
<path stroke-width="1" stroke="black" d="M 170 52 64 30"/>
<path stroke-width="1" stroke="black" d="M 170 52 173 45"/>
<path stroke-width="1" stroke="black" d="M 170 52 283 90"/>
<path stroke-width="1" stroke="black" d="M 302 84 283 90"/>
<path stroke-width="1" stroke="black" d="M 350 309 331 282"/>
<path stroke-width="1" stroke="black" d="M 283 90 170 52"/>
<path stroke-width="1" stroke="black" d="M 283 90 358 129"/>
<path stroke-width="1" stroke="black" d="M 400 128 358 129"/>
<path stroke-width="1" stroke="black" d="M 358 129 283 90"/>
<path stroke-width="1" stroke="black" d="M 358 129 400 128"/>
<path stroke-width="1" stroke="black" d="M 358 129 402 175"/>
<path stroke-width="1" stroke="black" d="M 420 177 402 175"/>
<path stroke-width="1" stroke="black" d="M 402 175 358 129"/>
<path stroke-width="1" stroke="black" d="M 283 90 302 84"/>
<path stroke-width="1" stroke="black" d="M 350 309 356 320"/>
<circle cx="20" cy="20" r="7.0" style="fill:gray;stroke:black;stroke-width:1.0"/>
<circle cx="64" cy="30" r="7.0" style="fill:gray;stroke:black;stroke-width:1.0"/>
<circle cx="173" cy="45" r="7.0" style="fill:gray;stroke:black;stroke-width:1.0"/>
<circle cx="170" cy="52" r="7.0" style="fill:gray;stroke:black;stroke-width:1.0"/>
<circle cx="302" cy="84" r="7.0" style="fill:gray;stroke:black;stroke-width:1.0"/>
<circle cx="283" cy="90" r="7.0" style="fill:gray;stroke:black;stroke-width:1.0"/>
<circle cx="400" cy="128" r="7.0" style="fill:gray;stroke:black;stroke-width:1.0"/>
<circle cx="358" cy="129" r="7.0" style="fill:gray;stroke:black;stroke-width:1.0"/>
<circle cx="420" cy="177" r="7.0" style="fill:gray;stroke:black;stroke-width:1.0"/>
<circle cx="402" cy="175" r="7.0" style="fill:gray;stroke:black;stroke-width:1.0"/>
<circle cx="400" cy="220" r="7.0" style="fill:gray;stroke:black;stroke-width:1.0"/>
<circle cx="385" cy="209" r="7.0" style="fill:gray;stroke:black;stroke-width:1.0"/>
<circle cx="301" cy="221" r="7.0" style="fill:gray;stroke:black;stroke-width:1.0"/>
<circle cx="313" cy="228" r="7.0" style="fill:gray;stroke:black;stroke-width:1.0"/>
<circle cx="247" cy="250" r="7.0" style="fill:gray;stroke:black;stroke-width:1.0"/>
<circle cx="279" cy="254" r="7.0" style="fill:gray;stroke:black;stroke-width:1.0"/>
<circle cx="362" cy="283" r="7.0" style="fill:gray;stroke:black;stroke-width:1.0"/>
<circle cx="331" cy="282" r="7.0" style="fill:gray;stroke:black;stroke-width:1.0"/>
<circle cx="356" cy="320" r="7.0" style="fill:gray;stroke:black;stroke-width:1.0"/>
<circle cx="350" cy="309" r="7.0" style="fill:gray;stroke:black;stroke-width:1.0"/>
</svg>
