<svg width="440" height="340" xmlns="http://www.w3.org/2000/svg">
<path stroke-width="1" stroke="black" d="M 301 320 285 294"/>
<path stroke-width="1" stroke="black" d="M 41 87 20 91"/>
<path stroke-width="1" stroke="black" d="M 41 87 130 93"/>
<path stroke-width="1" stroke="black" d="M 122 113 130 93"/>
<path stroke-width="1" stroke="black" d="M 130 93 41 87"/>
<path stroke-width="1" stroke="black" d="M 130 93 122 113"/>
<path stroke-width="1" stroke="black" d="M 130 93 225 63"/>
<path stroke-width="1" stroke="black" d="M 229 45 225 63"/>
<path stroke-width="1" stroke="black" d="M 225 63 130 93"/>
<path stroke-width="1" stroke="black" d="M 225 63 229 45"/>
<path stroke-width="1" stroke="black" d="M 225 63 314 33"/>
<path stroke-width="1" stroke="black" d="M 330 32 314 33"/>
<path stroke-width="1" stroke="black" d="M 314 33 225 63"/>
<path stroke-width="1" stroke="black" d="M 314 33 330 32"/>
<path stroke-width="1" stroke="black" d="M 314 33 390 24"/>
<path stroke-width="1" stroke="black" d="M 420 20 390 24"/>
<path stroke-width="1" stroke="black" d="M 41 87 84 43"/>
<path stroke-width="1" stroke="black" d="M 20 91 41 87"/>
<path stroke-width="1" stroke="black" d="M 84 43 41 87"/>
<path stroke-width="1" stroke="black" d="M 84 43 76 25"/>
<path stroke-width="1" stroke="black" d="M 285 294 301 320"/>
<path stroke-width="1" stroke="black" d="M 285 294 246 232"/>
<path stroke-width="1" stroke="black" d="M 245 248 246 232"/>
<path stroke-width="1" stroke="black" d="M 246 232 285 294"/>
<path stroke-width="1" stroke="black" d="M 246 232 245 248"/>
<path stroke-width="1" stroke="black" d="M 246 232 208 150"/>
<path stroke-width="1" stroke="black" d="M 190 155 208 150"/>
<path stroke-width="1" stroke="black" d="M 390 24 314 33"/>
<path stroke-width="1" stroke="black" d="M 208 150 246 232"/>
<path stroke-width="1" stroke="black" d="M 208 150 161 71"/>
<path stroke-width="1" stroke="black" d="M 160 44 161 71"/>
<path stroke-width="1" stroke="black" d="M 161 71 208 150"/>
<path stroke-width="1" stroke="black" d="M 161 71 160 44"/>
<path stroke-width="1" stroke="black" d="M 161 71 84 43"/>
<path stroke-width="1" stroke="black" d="M 76 25 84 43"/>
<path stroke-width="1" stroke="black" d="M 84 43 161 71"/>
<path stroke-width="1" stroke="black" d="M 208 150 190 155"/>
<path stroke-width="1" stroke="black" d="M 390 24 420 20"/>
<circle cx="301" cy="320" r="7.0" style="fill:blue;stroke:black;stroke-width:1.0"/>
<circle cx="285" cy="294" r="7.0" style="fill:blue;stroke:black;stroke-width:1.0"/>
<circle cx="245" cy="248" r="7.0" style="fill:blue;stroke:black;stroke-width:1.0"/>
<circle cx="246" cy="232" r="7.0" style="fill:blue;stroke:black;stroke-width:1.0"/>
<circle cx="190" cy="155" r="7.0" style="fill:red;stroke:black;stroke-width:1.0"/>
<circle cx="208" cy="150" r="7.0" style="fill:red;stroke:black;stroke-width:1.0"/>
<circle cx="160" cy="44" r="7.0" style="fill:green;stroke:black;stroke-width:1.0"/>
<circle cx="161" cy="71" r="7.0" style="fill:green;stroke:black;stroke-width:1.0"/>
<circle cx="76" cy="25" r="7.0" style="fill:orange;stroke:black;stroke-width:1.0"/>
<circle cx="84" cy="43" r="7.0" style="fill:orange;stroke:black;stroke-width:1.0"/>
<circle cx="20" cy="91" r="7.0" style="fill:purple;stroke:black;stroke-width:1.0"/>
<circle cx="41" cy="87" r="7.0" style="fill:purple;stroke:black;stroke-width:1.0"/>
<circle cx="122" cy="113" r="7.0" style="fill:yellow;stroke:black;stroke-width:1.0"/>
<circle cx="130" cy="93" r="7.0" style="fill:yellow;stroke:black;stroke-width:1.0"/>
<circle cx="229" cy="45" r="7.0" style="fill:fuchsia;stroke:black;stroke-width:1.0"/>
<circle cx="225" cy="63" r="7.0" style="fill:fuchsia;stroke:black;stroke-width:1.0"/>
<circle cx="330" cy="32" r="7.0" style="fill:olive;stroke:black;stroke-width:1.0"/>
<circle cx="314" cy="33" r="7.0" style="fill:olive;stroke:black;stroke-width:1.0"/>
<circle cx="420" cy="20" r="7.0" style="fill:aqua;stroke:black;stroke-width:1.0"/>
<circle cx="390" cy="24" r="7.0" style="fill:aqua;stroke:black;stroke-width:1.0"/>
</svg>
