<svg width="440" height="340" xmlns="http://www.w3.org/2000/svg">
<path stroke-width="1" stroke="black" d="M 239 320 210 208"/>
<path stroke-width="1" stroke="black" d="M 103 125 235 166"/>
<path stroke-width="1" stroke="black" d="M 103 125 211 94"/>
<path stroke-width="1" stroke="black" d="M 103 125 130 158"/>
<path stroke-width="1" stroke="black" d="M 103 125 119 129"/>
<path stroke-width="1" stroke="black" d="M 103 125 164 179"/>
<path stroke-width="1" stroke="black" d="M 103 125 56 111"/>
<path stroke-width="1" stroke="black" d="M 103 125 218 104"/>
<path stroke-width="1" stroke="black" d="M 103 125 266 109"/>
<path stroke-width="1" stroke="black" d="M 103 125 270 156"/>
<path stroke-width="1" stroke="black" d="M 103 125 254 109"/>
<path stroke-width="1" stroke="black" d="M 103 125 156 97"/>
<path stroke-width="1" stroke="black" d="M 103 125 149 102"/>
<path stroke-width="1" stroke="black" d="M 103 125 210 138"/>
<path stroke-width="1" stroke="black" d="M 103 125 167 123"/>
<path stroke-width="1" stroke="black" d="M 237 79 218 104"/>
<path stroke-width="1" stroke="black" d="M 218 104 210 208"/>
<path stroke-width="1" stroke="black" d="M 103 125 134 180"/>
<path stroke-width="1" stroke="black" d="M 218 104 284 185"/>
<path stroke-width="1" stroke="black" d="M 103 125 281 133"/>
<path stroke-width="1" stroke="black" d="M 103 125 168 197"/>
<path stroke-width="1" stroke="black" d="M 164 179 218 104"/>
<path stroke-width="1" stroke="black" d="M 164 179 270 156"/>
<path stroke-width="1" stroke="black" d="M 164 179 134 180"/>
<path stroke-width="1" stroke="black" d="M 164 179 254 109"/>
<path stroke-width="1" stroke="black" d="M 164 179 156 97"/>
<path stroke-width="1" stroke="black" d="M 164 179 149 102"/>
<path stroke-width="1" stroke="black" d="M 164 179 210 138"/>
<path stroke-width="1" stroke="black" d="M 103 125 208 189"/>
<path stroke-width="1" stroke="black" d="M 164 179 167 123"/>
<path stroke-width="1" stroke="black" d="M 103 125 210 208"/>
<path stroke-width="1" stroke="black" d="M 103 125 284 185"/>
<path stroke-width="1" stroke="black" d="M 103 125 139 104"/>
<path stroke-width="1" stroke="black" d="M 103 125 183 86"/>
<path stroke-width="1" stroke="black" d="M 103 125 233 185"/>
<path stroke-width="1" stroke="black" d="M 103 125 97 168"/>
<path stroke-width="1" stroke="black" d="M 103 125 124 186"/>
<path stroke-width="1" stroke="black" d="M 56 111 103 125"/>
<path stroke-width="1" stroke="black" d="M 218 104 139 104"/>
<path stroke-width="1" stroke="black" d="M 218 104 183 86"/>
<path stroke-width="1" stroke="black" d="M 218 104 233 185"/>
<path stroke-width="1" stroke="black" d="M 270 156 210 208"/>
<path stroke-width="1" stroke="black" d="M 270 156 284 185"/>
<path stroke-width="1" stroke="black" d="M 270 156 139 104"/>
<path stroke-width="1" stroke="black" d="M 270 156 183 86"/>
<path stroke-width="1" stroke="black" d="M 270 156 233 185"/>
<path stroke-width="1" stroke="black" d="M 270 156 97 168"/>
<path stroke-width="1" stroke="black" d="M 270 156 124 186"/>
<path stroke-width="1" stroke="black" d="M 314 161 270 156"/>
<path stroke-width="1" stroke="black" d="M 270 156 168 197"/>
<path stroke-width="1" stroke="black" d="M 270 156 281 133"/>
<path stroke-width="1" stroke="black" d="M 270 156 266 109"/>
<path stroke-width="1" stroke="black" d="M 270 156 235 166"/>
<path stroke-width="1" stroke="black" d="M 270 156 211 94"/>
<path stroke-width="1" stroke="black" d="M 270 156 130 158"/>
<path stroke-width="1" stroke="black" d="M 270 156 119 129"/>
<path stroke-width="1" stroke="black" d="M 270 156 164 179"/>
<path stroke-width="1" stroke="black" d="M 270 156 208 189"/>
<path stroke-width="1" stroke="black" d="M 218 104 167 123"/>
<path stroke-width="1" stroke="black" d="M 218 104 210 138"/>
<path stroke-width="1" stroke="black" d="M 218 104 149 102"/>
<path stroke-width="1" stroke="black" d="M 218 104 97 168"/>
<path stroke-width="1" stroke="black" d="M 218 104 124 186"/>
<path stroke-width="1" stroke="black" d="M 218 104 168 197"/>
<path stroke-width="1" stroke="black" d="M 218 104 208 189"/>
<path stroke-width="1" stroke="black" d="M 218 104 281 133"/>
<path stroke-width="1" stroke="black" d="M 218 104 266 109"/>
<path stroke-width="1" stroke="black" d="M 218 104 235 166"/>
<path stroke-width="1" stroke="black" d="M 218 104 211 94"/>
<path stroke-width="1" stroke="black" d="M 218 104 130 158"/>
<path stroke-width="1" stroke="black" d="M 218 104 119 129"/>
<path stroke-width="1" stroke="black" d="M 218 104 164 179"/>
<path stroke-width="1" stroke="black" d="M 218 104 103 125"/>
<path stroke-width="1" stroke="black" d="M 218 104 237 79"/>
<path stroke-width="1" stroke="black" d="M 218 104 270 156"/>
<path stroke-width="1" stroke="black" d="M 218 104 134 180"/>
<path stroke-width="1" stroke="black" d="M 218 104 254 109"/>
<path stroke-width="1" stroke="black" d="M 218 104 156 97"/>
<path stroke-width="1" stroke="black" d="M 164 179 103 125"/>
<path stroke-width="1" stroke="black" d="M 270 156 103 125"/>
<path stroke-width="1" stroke="black" d="M 164 179 146 205"/>
<path stroke-width="1" stroke="black" d="M 164 179 130 158"/>
<path stroke-width="1" stroke="black" d="M 130 158 208 189"/>
<path stroke-width="1" stroke="black" d="M 130 158 281 133"/>
<path stroke-width="1" stroke="black" d="M 130 158 266 109"/>
<path stroke-width="1" stroke="black" d="M 130 158 235 166"/>
<path stroke-width="1" stroke="black" d="M 130 158 211 94"/>
<path stroke-width="1" stroke="black" d="M 130 158 83 170"/>
<path stroke-width="1" stroke="black" d="M 130 158 119 129"/>
<path stroke-width="1" stroke="black" d="M 130 158 168 197"/>
<path stroke-width="1" stroke="black" d="M 130 158 164 179"/>
<path stroke-width="1" stroke="black" d="M 130 158 218 104"/>
<path stroke-width="1" stroke="black" d="M 130 158 270 156"/>
<path stroke-width="1" stroke="black" d="M 130 158 134 180"/>
<path stroke-width="1" stroke="black" d="M 130 158 254 109"/>
<path stroke-width="1" stroke="black" d="M 130 158 156 97"/>
<path stroke-width="1" stroke="black" d="M 130 158 149 102"/>
<path stroke-width="1" stroke="black" d="M 130 158 210 138"/>
<path stroke-width="1" stroke="black" d="M 130 158 103 125"/>
<path stroke-width="1" stroke="black" d="M 130 158 167 123"/>
<path stroke-width="1" stroke="black" d="M 130 158 124 186"/>
<path stroke-width="1" stroke="black" d="M 130 158 233 185"/>
<path stroke-width="1" stroke="black" d="M 211 94 119 129"/>
<path stroke-width="1" stroke="black" d="M 211 94 164 179"/>
<path stroke-width="1" stroke="black" d="M 211 94 103 125"/>
<path stroke-width="1" stroke="black" d="M 211 94 218 104"/>
<path stroke-width="1" stroke="black" d="M 211 94 270 156"/>
<path stroke-width="1" stroke="black" d="M 211 94 134 180"/>
<path stroke-width="1" stroke="black" d="M 211 94 254 109"/>
<path stroke-width="1" stroke="black" d="M 130 158 97 168"/>
<path stroke-width="1" stroke="black" d="M 211 94 156 97"/>
<path stroke-width="1" stroke="black" d="M 211 94 210 138"/>
<path stroke-width="1" stroke="black" d="M 211 94 167 123"/>
<path stroke-width="1" stroke="black" d="M 83 170 130 158"/>
<path stroke-width="1" stroke="black" d="M 130 158 210 208"/>
<path stroke-width="1" stroke="black" d="M 130 158 284 185"/>
<path stroke-width="1" stroke="black" d="M 130 158 139 104"/>
<path stroke-width="1" stroke="black" d="M 130 158 183 86"/>
<path stroke-width="1" stroke="black" d="M 211 94 149 102"/>
<path stroke-width="1" stroke="black" d="M 74 115 119 129"/>
<path stroke-width="1" stroke="black" d="M 119 129 210 208"/>
<path stroke-width="1" stroke="black" d="M 119 129 284 185"/>
<path stroke-width="1" stroke="black" d="M 119 129 210 138"/>
<path stroke-width="1" stroke="black" d="M 119 129 167 123"/>
<path stroke-width="1" stroke="black" d="M 146 205 164 179"/>
<path stroke-width="1" stroke="black" d="M 164 179 210 208"/>
<path stroke-width="1" stroke="black" d="M 164 179 284 185"/>
<path stroke-width="1" stroke="black" d="M 164 179 139 104"/>
<path stroke-width="1" stroke="black" d="M 164 179 183 86"/>
<path stroke-width="1" stroke="black" d="M 119 129 149 102"/>
<path stroke-width="1" stroke="black" d="M 164 179 233 185"/>
<path stroke-width="1" stroke="black" d="M 164 179 124 186"/>
<path stroke-width="1" stroke="black" d="M 164 179 168 197"/>
<path stroke-width="1" stroke="black" d="M 164 179 208 189"/>
<path stroke-width="1" stroke="black" d="M 164 179 281 133"/>
<path stroke-width="1" stroke="black" d="M 164 179 266 109"/>
<path stroke-width="1" stroke="black" d="M 164 179 235 166"/>
<path stroke-width="1" stroke="black" d="M 164 179 211 94"/>
<path stroke-width="1" stroke="black" d="M 164 179 97 168"/>
<path stroke-width="1" stroke="black" d="M 119 129 156 97"/>
<path stroke-width="1" stroke="black" d="M 119 129 254 109"/>
<path stroke-width="1" stroke="black" d="M 119 129 134 180"/>
<path stroke-width="1" stroke="black" d="M 119 129 139 104"/>
<path stroke-width="1" stroke="black" d="M 119 129 183 86"/>
<path stroke-width="1" stroke="black" d="M 119 129 233 185"/>
<path stroke-width="1" stroke="black" d="M 119 129 97 168"/>
<path stroke-width="1" stroke="black" d="M 119 129 124 186"/>
<path stroke-width="1" stroke="black" d="M 119 129 168 197"/>
<path stroke-width="1" stroke="black" d="M 119 129 208 189"/>
<path stroke-width="1" stroke="black" d="M 119 129 281 133"/>
<path stroke-width="1" stroke="black" d="M 119 129 266 109"/>
<path stroke-width="1" stroke="black" d="M 119 129 235 166"/>
<path stroke-width="1" stroke="black" d="M 119 129 211 94"/>
<path stroke-width="1" stroke="black" d="M 119 129 130 158"/>
<path stroke-width="1" stroke="black" d="M 119 129 74 115"/>
<path stroke-width="1" stroke="black" d="M 119 129 164 179"/>
<path stroke-width="1" stroke="black" d="M 119 129 103 125"/>
<path stroke-width="1" stroke="black" d="M 119 129 218 104"/>
<path stroke-width="1" stroke="black" d="M 119 129 270 156"/>
<path stroke-width="1" stroke="black" d="M 164 179 119 129"/>
<path stroke-width="1" stroke="black" d="M 270 156 218 104"/>
<path stroke-width="1" stroke="black" d="M 270 156 314 161"/>
<path stroke-width="1" stroke="black" d="M 270 156 134 180"/>
<path stroke-width="1" stroke="black" d="M 149 102 270 156"/>
<path stroke-width="1" stroke="black" d="M 149 102 134 180"/>
<path stroke-width="1" stroke="black" d="M 149 102 254 109"/>
<path stroke-width="1" stroke="black" d="M 149 102 156 97"/>
<path stroke-width="1" stroke="black" d="M 149 102 129 81"/>
<path stroke-width="1" stroke="black" d="M 149 102 210 138"/>
<path stroke-width="1" stroke="black" d="M 149 102 167 123"/>
<path stroke-width="1" stroke="black" d="M 149 102 218 104"/>
<path stroke-width="1" stroke="black" d="M 230 129 210 138"/>
<path stroke-width="1" stroke="black" d="M 210 138 284 185"/>
<path stroke-width="1" stroke="black" d="M 210 138 139 104"/>
<path stroke-width="1" stroke="black" d="M 210 138 183 86"/>
<path stroke-width="1" stroke="black" d="M 210 138 233 185"/>
<path stroke-width="1" stroke="black" d="M 210 138 97 168"/>
<path stroke-width="1" stroke="black" d="M 210 138 124 186"/>
<path stroke-width="1" stroke="black" d="M 210 138 168 197"/>
<path stroke-width="1" stroke="black" d="M 210 138 210 208"/>
<path stroke-width="1" stroke="black" d="M 210 138 208 189"/>
<path stroke-width="1" stroke="black" d="M 149 102 103 125"/>
<path stroke-width="1" stroke="black" d="M 149 102 119 129"/>
<path stroke-width="1" stroke="black" d="M 156 97 167 123"/>
<path stroke-width="1" stroke="black" d="M 129 81 149 102"/>
<path stroke-width="1" stroke="black" d="M 149 102 210 208"/>
<path stroke-width="1" stroke="black" d="M 149 102 284 185"/>
<path stroke-width="1" stroke="black" d="M 149 102 139 104"/>
<path stroke-width="1" stroke="black" d="M 149 102 183 86"/>
<path stroke-width="1" stroke="black" d="M 149 102 233 185"/>
<path stroke-width="1" stroke="black" d="M 149 102 164 179"/>
<path stroke-width="1" stroke="black" d="M 149 102 97 168"/>
<path stroke-width="1" stroke="black" d="M 149 102 168 197"/>
<path stroke-width="1" stroke="black" d="M 149 102 208 189"/>
<path stroke-width="1" stroke="black" d="M 149 102 281 133"/>
<path stroke-width="1" stroke="black" d="M 149 102 266 109"/>
<path stroke-width="1" stroke="black" d="M 149 102 235 166"/>
<path stroke-width="1" stroke="black" d="M 149 102 211 94"/>
<path stroke-width="1" stroke="black" d="M 149 102 130 158"/>
<path stroke-width="1" stroke="black" d="M 149 102 124 186"/>
<path stroke-width="1" stroke="black" d="M 210 138 281 133"/>
<path stroke-width="1" stroke="black" d="M 210 138 266 109"/>
<path stroke-width="1" stroke="black" d="M 210 138 235 166"/>
<path stroke-width="1" stroke="black" d="M 167 123 168 197"/>
<path stroke-width="1" stroke="black" d="M 167 123 208 189"/>
<path stroke-width="1" stroke="black" d="M 167 123 281 133"/>
<path stroke-width="1" stroke="black" d="M 167 123 266 109"/>
<path stroke-width="1" stroke="black" d="M 167 123 235 166"/>
<path stroke-width="1" stroke="black" d="M 167 123 211 94"/>
<path stroke-width="1" stroke="black" d="M 167 123 130 158"/>
<path stroke-width="1" stroke="black" d="M 167 123 124 186"/>
<path stroke-width="1" stroke="black" d="M 167 123 119 129"/>
<path stroke-width="1" stroke="black" d="M 167 123 103 125"/>
<path stroke-width="1" stroke="black" d="M 167 123 218 104"/>
<path stroke-width="1" stroke="black" d="M 167 123 270 156"/>
<path stroke-width="1" stroke="black" d="M 167 123 134 180"/>
<path stroke-width="1" stroke="black" d="M 167 123 254 109"/>
<path stroke-width="1" stroke="black" d="M 167 123 156 97"/>
<path stroke-width="1" stroke="black" d="M 167 123 149 102"/>
<path stroke-width="1" stroke="black" d="M 167 123 164 179"/>
<path stroke-width="1" stroke="black" d="M 167 123 97 168"/>
<path stroke-width="1" stroke="black" d="M 167 123 233 185"/>
<path stroke-width="1" stroke="black" d="M 167 123 183 86"/>
<path stroke-width="1" stroke="black" d="M 210 138 211 94"/>
<path stroke-width="1" stroke="black" d="M 210 138 130 158"/>
<path stroke-width="1" stroke="black" d="M 210 138 119 129"/>
<path stroke-width="1" stroke="black" d="M 210 138 164 179"/>
<path stroke-width="1" stroke="black" d="M 210 138 103 125"/>
<path stroke-width="1" stroke="black" d="M 210 138 218 104"/>
<path stroke-width="1" stroke="black" d="M 210 138 270 156"/>
<path stroke-width="1" stroke="black" d="M 210 138 134 180"/>
<path stroke-width="1" stroke="black" d="M 210 138 254 109"/>
<path stroke-width="1" stroke="black" d="M 210 138 156 97"/>
<path stroke-width="1" stroke="black" d="M 210 138 149 102"/>
<path stroke-width="1" stroke="black" d="M 210 138 230 129"/>
<path stroke-width="1" stroke="black" d="M 210 138 167 123"/>
<path stroke-width="1" stroke="black" d="M 190 139 167 123"/>
<path stroke-width="1" stroke="black" d="M 167 123 210 208"/>
<path stroke-width="1" stroke="black" d="M 167 123 284 185"/>
<path stroke-width="1" stroke="black" d="M 167 123 139 104"/>
<path stroke-width="1" stroke="black" d="M 156 97 210 138"/>
<path stroke-width="1" stroke="black" d="M 156 97 149 102"/>
<path stroke-width="1" stroke="black" d="M 156 97 139 73"/>
<path stroke-width="1" stroke="black" d="M 156 97 254 109"/>
<path stroke-width="1" stroke="black" d="M 134 180 164 179"/>
<path stroke-width="1" stroke="black" d="M 134 180 103 125"/>
<path stroke-width="1" stroke="black" d="M 134 180 218 104"/>
<path stroke-width="1" stroke="black" d="M 134 180 270 156"/>
<path stroke-width="1" stroke="black" d="M 134 180 103 201"/>
<path stroke-width="1" stroke="black" d="M 134 180 254 109"/>
<path stroke-width="1" stroke="black" d="M 134 180 156 97"/>
<path stroke-width="1" stroke="black" d="M 134 180 119 129"/>
<path stroke-width="1" stroke="black" d="M 134 180 149 102"/>
<path stroke-width="1" stroke="black" d="M 134 180 167 123"/>
<path stroke-width="1" stroke="black" d="M 283 89 254 109"/>
<path stroke-width="1" stroke="black" d="M 254 109 210 208"/>
<path stroke-width="1" stroke="black" d="M 254 109 284 185"/>
<path stroke-width="1" stroke="black" d="M 254 109 139 104"/>
<path stroke-width="1" stroke="black" d="M 254 109 183 86"/>
<path stroke-width="1" stroke="black" d="M 254 109 233 185"/>
<path stroke-width="1" stroke="black" d="M 134 180 210 138"/>
<path stroke-width="1" stroke="black" d="M 134 180 130 158"/>
<path stroke-width="1" stroke="black" d="M 134 180 211 94"/>
<path stroke-width="1" stroke="black" d="M 134 180 235 166"/>
<path stroke-width="1" stroke="black" d="M 270 156 254 109"/>
<path stroke-width="1" stroke="black" d="M 270 156 156 97"/>
<path stroke-width="1" stroke="black" d="M 270 156 149 102"/>
<path stroke-width="1" stroke="black" d="M 270 156 210 138"/>
<path stroke-width="1" stroke="black" d="M 270 156 167 123"/>
<path stroke-width="1" stroke="black" d="M 103 201 134 180"/>
<path stroke-width="1" stroke="black" d="M 134 180 210 208"/>
<path stroke-width="1" stroke="black" d="M 134 180 284 185"/>
<path stroke-width="1" stroke="black" d="M 134 180 139 104"/>
<path stroke-width="1" stroke="black" d="M 134 180 183 86"/>
<path stroke-width="1" stroke="black" d="M 134 180 233 185"/>
<path stroke-width="1" stroke="black" d="M 134 180 97 168"/>
<path stroke-width="1" stroke="black" d="M 134 180 124 186"/>
<path stroke-width="1" stroke="black" d="M 134 180 168 197"/>
<path stroke-width="1" stroke="black" d="M 134 180 208 189"/>
<path stroke-width="1" stroke="black" d="M 134 180 281 133"/>
<path stroke-width="1" stroke="black" d="M 134 180 266 109"/>
<path stroke-width="1" stroke="black" d="M 254 109 97 168"/>
<path stroke-width="1" stroke="black" d="M 211 94 130 158"/>
<path stroke-width="1" stroke="black" d="M 254 109 124 186"/>
<path stroke-width="1" stroke="black" d="M 254 109 208 189"/>
<path stroke-width="1" stroke="black" d="M 156 97 233 185"/>
<path stroke-width="1" stroke="black" d="M 156 97 97 168"/>
<path stroke-width="1" stroke="black" d="M 156 97 124 186"/>
<path stroke-width="1" stroke="black" d="M 156 97 168 197"/>
<path stroke-width="1" stroke="black" d="M 156 97 208 189"/>
<path stroke-width="1" stroke="black" d="M 156 97 281 133"/>
<path stroke-width="1" stroke="black" d="M 156 97 266 109"/>
<path stroke-width="1" stroke="black" d="M 156 97 183 86"/>
<path stroke-width="1" stroke="black" d="M 156 97 235 166"/>
<path stroke-width="1" stroke="black" d="M 156 97 130 158"/>
<path stroke-width="1" stroke="black" d="M 156 97 119 129"/>
<path stroke-width="1" stroke="black" d="M 156 97 164 179"/>
<path stroke-width="1" stroke="black" d="M 156 97 103 125"/>
<path stroke-width="1" stroke="black" d="M 156 97 218 104"/>
<path stroke-width="1" stroke="black" d="M 156 97 270 156"/>
<path stroke-width="1" stroke="black" d="M 156 97 134 180"/>
<path stroke-width="1" stroke="black" d="M 156 97 211 94"/>
<path stroke-width="1" stroke="black" d="M 156 97 139 104"/>
<path stroke-width="1" stroke="black" d="M 156 97 284 185"/>
<path stroke-width="1" stroke="black" d="M 156 97 210 208"/>
<path stroke-width="1" stroke="black" d="M 254 109 281 133"/>
<path stroke-width="1" stroke="black" d="M 254 109 266 109"/>
<path stroke-width="1" stroke="black" d="M 254 109 235 166"/>
<path stroke-width="1" stroke="black" d="M 254 109 211 94"/>
<path stroke-width="1" stroke="black" d="M 254 109 130 158"/>
<path stroke-width="1" stroke="black" d="M 254 109 119 129"/>
<path stroke-width="1" stroke="black" d="M 254 109 164 179"/>
<path stroke-width="1" stroke="black" d="M 254 109 103 125"/>
<path stroke-width="1" stroke="black" d="M 254 109 218 104"/>
<path stroke-width="1" stroke="black" d="M 254 109 270 156"/>
<path stroke-width="1" stroke="black" d="M 254 109 134 180"/>
<path stroke-width="1" stroke="black" d="M 254 109 283 89"/>
<path stroke-width="1" stroke="black" d="M 254 109 156 97"/>
<path stroke-width="1" stroke="black" d="M 254 109 149 102"/>
<path stroke-width="1" stroke="black" d="M 254 109 210 138"/>
<path stroke-width="1" stroke="black" d="M 254 109 167 123"/>
<path stroke-width="1" stroke="black" d="M 139 73 156 97"/>
<path stroke-width="1" stroke="black" d="M 254 109 168 197"/>
<path stroke-width="1" stroke="black" d="M 211 94 224 59"/>
<path stroke-width="1" stroke="black" d="M 211 94 235 166"/>
<path stroke-width="1" stroke="black" d="M 211 94 266 109"/>
<path stroke-width="1" stroke="black" d="M 183 86 167 123"/>
<path stroke-width="1" stroke="black" d="M 281 230 233 185"/>
<path stroke-width="1" stroke="black" d="M 233 185 210 208"/>
<path stroke-width="1" stroke="black" d="M 233 185 284 185"/>
<path stroke-width="1" stroke="black" d="M 233 185 139 104"/>
<path stroke-width="1" stroke="black" d="M 233 185 183 86"/>
<path stroke-width="1" stroke="black" d="M 233 185 281 230"/>
<path stroke-width="1" stroke="black" d="M 183 86 210 138"/>
<path stroke-width="1" stroke="black" d="M 233 185 97 168"/>
<path stroke-width="1" stroke="black" d="M 233 185 168 197"/>
<path stroke-width="1" stroke="black" d="M 233 185 208 189"/>
<path stroke-width="1" stroke="black" d="M 233 185 281 133"/>
<path stroke-width="1" stroke="black" d="M 233 185 266 109"/>
<path stroke-width="1" stroke="black" d="M 233 185 235 166"/>
<path stroke-width="1" stroke="black" d="M 233 185 211 94"/>
<path stroke-width="1" stroke="black" d="M 233 185 130 158"/>
<path stroke-width="1" stroke="black" d="M 233 185 124 186"/>
<path stroke-width="1" stroke="black" d="M 233 185 119 129"/>
<path stroke-width="1" stroke="black" d="M 183 86 149 102"/>
<path stroke-width="1" stroke="black" d="M 183 86 254 109"/>
<path stroke-width="1" stroke="black" d="M 183 86 233 185"/>
<path stroke-width="1" stroke="black" d="M 183 86 97 168"/>
<path stroke-width="1" stroke="black" d="M 183 86 124 186"/>
<path stroke-width="1" stroke="black" d="M 183 86 168 197"/>
<path stroke-width="1" stroke="black" d="M 183 86 208 189"/>
<path stroke-width="1" stroke="black" d="M 183 86 281 133"/>
<path stroke-width="1" stroke="black" d="M 183 86 266 109"/>
<path stroke-width="1" stroke="black" d="M 183 86 156 97"/>
<path stroke-width="1" stroke="black" d="M 183 86 235 166"/>
<path stroke-width="1" stroke="black" d="M 183 86 130 158"/>
<path stroke-width="1" stroke="black" d="M 183 86 119 129"/>
<path stroke-width="1" stroke="black" d="M 183 86 164 179"/>
<path stroke-width="1" stroke="black" d="M 183 86 103 125"/>
<path stroke-width="1" stroke="black" d="M 183 86 218 104"/>
<path stroke-width="1" stroke="black" d="M 183 86 270 156"/>
<path stroke-width="1" stroke="black" d="M 183 86 134 180"/>
<path stroke-width="1" stroke="black" d="M 183 86 211 94"/>
<path stroke-width="1" stroke="black" d="M 233 185 164 179"/>
<path stroke-width="1" stroke="black" d="M 233 185 103 125"/>
<path stroke-width="1" stroke="black" d="M 233 185 218 104"/>
<path stroke-width="1" stroke="black" d="M 97 168 130 158"/>
<path stroke-width="1" stroke="black" d="M 97 168 119 129"/>
<path stroke-width="1" stroke="black" d="M 97 168 164 179"/>
<path stroke-width="1" stroke="black" d="M 97 168 103 125"/>
<path stroke-width="1" stroke="black" d="M 97 168 218 104"/>
<path stroke-width="1" stroke="black" d="M 97 168 270 156"/>
<path stroke-width="1" stroke="black" d="M 97 168 134 180"/>
<path stroke-width="1" stroke="black" d="M 97 168 211 94"/>
<path stroke-width="1" stroke="black" d="M 97 168 254 109"/>
<path stroke-width="1" stroke="black" d="M 97 168 149 102"/>
<path stroke-width="1" stroke="black" d="M 97 168 210 138"/>
<path stroke-width="1" stroke="black" d="M 97 168 167 123"/>
<path stroke-width="1" stroke="black" d="M 69 224 124 186"/>
<path stroke-width="1" stroke="black" d="M 124 186 210 208"/>
<path stroke-width="1" stroke="black" d="M 124 186 284 185"/>
<path stroke-width="1" stroke="black" d="M 124 186 139 104"/>
<path stroke-width="1" stroke="black" d="M 97 168 156 97"/>
<path stroke-width="1" stroke="black" d="M 97 168 235 166"/>
<path stroke-width="1" stroke="black" d="M 97 168 266 109"/>
<path stroke-width="1" stroke="black" d="M 97 168 281 133"/>
<path stroke-width="1" stroke="black" d="M 233 185 270 156"/>
<path stroke-width="1" stroke="black" d="M 233 185 134 180"/>
<path stroke-width="1" stroke="black" d="M 233 185 254 109"/>
<path stroke-width="1" stroke="black" d="M 233 185 156 97"/>
<path stroke-width="1" stroke="black" d="M 233 185 149 102"/>
<path stroke-width="1" stroke="black" d="M 233 185 210 138"/>
<path stroke-width="1" stroke="black" d="M 233 185 167 123"/>
<path stroke-width="1" stroke="black" d="M 20 196 97 168"/>
<path stroke-width="1" stroke="black" d="M 97 168 210 208"/>
<path stroke-width="1" stroke="black" d="M 97 168 284 185"/>
<path stroke-width="1" stroke="black" d="M 97 168 139 104"/>
<path stroke-width="1" stroke="black" d="M 97 168 183 86"/>
<path stroke-width="1" stroke="black" d="M 97 168 233 185"/>
<path stroke-width="1" stroke="black" d="M 97 168 20 196"/>
<path stroke-width="1" stroke="black" d="M 97 168 124 186"/>
<path stroke-width="1" stroke="black" d="M 97 168 168 197"/>
<path stroke-width="1" stroke="black" d="M 97 168 208 189"/>
<path stroke-width="1" stroke="black" d="M 183 86 172 20"/>
<path stroke-width="1" stroke="black" d="M 183 86 139 104"/>
<path stroke-width="1" stroke="black" d="M 183 86 284 185"/>
<path stroke-width="1" stroke="black" d="M 183 86 210 208"/>
<path stroke-width="1" stroke="black" d="M 210 208 156 97"/>
<path stroke-width="1" stroke="black" d="M 210 208 149 102"/>
<path stroke-width="1" stroke="black" d="M 210 208 210 138"/>
<path stroke-width="1" stroke="black" d="M 210 208 167 123"/>
<path stroke-width="1" stroke="black" d="M 420 247 284 185"/>
<path stroke-width="1" stroke="black" d="M 284 185 210 208"/>
<path stroke-width="1" stroke="black" d="M 284 185 420 247"/>
<path stroke-width="1" stroke="black" d="M 210 208 254 109"/>
<path stroke-width="1" stroke="black" d="M 284 185 139 104"/>
<path stroke-width="1" stroke="black" d="M 284 185 233 185"/>
<path stroke-width="1" stroke="black" d="M 284 185 97 168"/>
<path stroke-width="1" stroke="black" d="M 284 185 124 186"/>
<path stroke-width="1" stroke="black" d="M 284 185 168 197"/>
<path stroke-width="1" stroke="black" d="M 284 185 208 189"/>
<path stroke-width="1" stroke="black" d="M 284 185 281 133"/>
<path stroke-width="1" stroke="black" d="M 284 185 266 109"/>
<path stroke-width="1" stroke="black" d="M 284 185 183 86"/>
<path stroke-width="1" stroke="black" d="M 210 208 134 180"/>
<path stroke-width="1" stroke="black" d="M 210 208 270 156"/>
<path stroke-width="1" stroke="black" d="M 210 208 218 104"/>
<path stroke-width="1" stroke="black" d="M 210 208 239 320"/>
<path stroke-width="1" stroke="black" d="M 210 208 284 185"/>
<path stroke-width="1" stroke="black" d="M 210 208 139 104"/>
<path stroke-width="1" stroke="black" d="M 210 208 183 86"/>
<path stroke-width="1" stroke="black" d="M 210 208 233 185"/>
<path stroke-width="1" stroke="black" d="M 210 208 97 168"/>
<path stroke-width="1" stroke="black" d="M 210 208 124 186"/>
<path stroke-width="1" stroke="black" d="M 210 208 168 197"/>
<path stroke-width="1" stroke="black" d="M 210 208 208 189"/>
<path stroke-width="1" stroke="black" d="M 210 208 281 133"/>
<path stroke-width="1" stroke="black" d="M 210 208 266 109"/>
<path stroke-width="1" stroke="black" d="M 210 208 235 166"/>
<path stroke-width="1" stroke="black" d="M 210 208 211 94"/>
<path stroke-width="1" stroke="black" d="M 210 208 130 158"/>
<path stroke-width="1" stroke="black" d="M 210 208 119 129"/>
<path stroke-width="1" stroke="black" d="M 210 208 164 179"/>
<path stroke-width="1" stroke="black" d="M 210 208 103 125"/>
<path stroke-width="1" stroke="black" d="M 284 185 235 166"/>
<path stroke-width="1" stroke="black" d="M 124 186 183 86"/>
<path stroke-width="1" stroke="black" d="M 284 185 211 94"/>
<path stroke-width="1" stroke="black" d="M 284 185 119 129"/>
<path stroke-width="1" stroke="black" d="M 139 104 266 109"/>
<path stroke-width="1" stroke="black" d="M 139 104 235 166"/>
<path stroke-width="1" stroke="black" d="M 139 104 211 94"/>
<path stroke-width="1" stroke="black" d="M 139 104 130 158"/>
<path stroke-width="1" stroke="black" d="M 139 104 119 129"/>
<path stroke-width="1" stroke="black" d="M 139 104 164 179"/>
<path stroke-width="1" stroke="black" d="M 139 104 103 125"/>
<path stroke-width="1" stroke="black" d="M 139 104 281 133"/>
<path stroke-width="1" stroke="black" d="M 139 104 218 104"/>
<path stroke-width="1" stroke="black" d="M 139 104 134 180"/>
<path stroke-width="1" stroke="black" d="M 139 104 254 109"/>
<path stroke-width="1" stroke="black" d="M 139 104 156 97"/>
<path stroke-width="1" stroke="black" d="M 139 104 149 102"/>
<path stroke-width="1" stroke="black" d="M 139 104 210 138"/>
<path stroke-width="1" stroke="black" d="M 139 104 167 123"/>
<path stroke-width="1" stroke="black" d="M 172 20 183 86"/>
<path stroke-width="1" stroke="black" d="M 139 104 270 156"/>
<path stroke-width="1" stroke="black" d="M 139 104 208 189"/>
<path stroke-width="1" stroke="black" d="M 139 104 168 197"/>
<path stroke-width="1" stroke="black" d="M 139 104 124 186"/>
<path stroke-width="1" stroke="black" d="M 284 185 164 179"/>
<path stroke-width="1" stroke="black" d="M 284 185 103 125"/>
<path stroke-width="1" stroke="black" d="M 284 185 218 104"/>
<path stroke-width="1" stroke="black" d="M 284 185 270 156"/>
<path stroke-width="1" stroke="black" d="M 284 185 134 180"/>
<path stroke-width="1" stroke="black" d="M 284 185 254 109"/>
<path stroke-width="1" stroke="black" d="M 284 185 156 97"/>
<path stroke-width="1" stroke="black" d="M 284 185 149 102"/>
<path stroke-width="1" stroke="black" d="M 284 185 210 138"/>
<path stroke-width="1" stroke="black" d="M 284 185 167 123"/>
<path stroke-width="1" stroke="black" d="M 79 42 139 104"/>
<path stroke-width="1" stroke="black" d="M 139 104 210 208"/>
<path stroke-width="1" stroke="black" d="M 139 104 284 185"/>
<path stroke-width="1" stroke="black" d="M 139 104 79 42"/>
<path stroke-width="1" stroke="black" d="M 139 104 183 86"/>
<path stroke-width="1" stroke="black" d="M 139 104 233 185"/>
<path stroke-width="1" stroke="black" d="M 139 104 97 168"/>
<path stroke-width="1" stroke="black" d="M 284 185 130 158"/>
<path stroke-width="1" stroke="black" d="M 167 123 210 138"/>
<path stroke-width="1" stroke="black" d="M 124 186 233 185"/>
<path stroke-width="1" stroke="black" d="M 124 186 69 224"/>
<path stroke-width="1" stroke="black" d="M 266 109 97 168"/>
<path stroke-width="1" stroke="black" d="M 266 109 124 186"/>
<path stroke-width="1" stroke="black" d="M 266 109 168 197"/>
<path stroke-width="1" stroke="black" d="M 266 109 208 189"/>
<path stroke-width="1" stroke="black" d="M 266 109 281 133"/>
<path stroke-width="1" stroke="black" d="M 266 109 314 82"/>
<path stroke-width="1" stroke="black" d="M 266 109 235 166"/>
<path stroke-width="1" stroke="black" d="M 266 109 233 185"/>
<path stroke-width="1" stroke="black" d="M 266 109 211 94"/>
<path stroke-width="1" stroke="black" d="M 266 109 119 129"/>
<path stroke-width="1" stroke="black" d="M 266 109 164 179"/>
<path stroke-width="1" stroke="black" d="M 266 109 103 125"/>
<path stroke-width="1" stroke="black" d="M 266 109 218 104"/>
<path stroke-width="1" stroke="black" d="M 266 109 270 156"/>
<path stroke-width="1" stroke="black" d="M 266 109 134 180"/>
<path stroke-width="1" stroke="black" d="M 266 109 254 109"/>
<path stroke-width="1" stroke="black" d="M 266 109 130 158"/>
<path stroke-width="1" stroke="black" d="M 266 109 156 97"/>
<path stroke-width="1" stroke="black" d="M 266 109 183 86"/>
<path stroke-width="1" stroke="black" d="M 266 109 284 185"/>
<path stroke-width="1" stroke="black" d="M 281 133 235 166"/>
<path stroke-width="1" stroke="black" d="M 281 133 211 94"/>
<path stroke-width="1" stroke="black" d="M 281 133 130 158"/>
<path stroke-width="1" stroke="black" d="M 281 133 119 129"/>
<path stroke-width="1" stroke="black" d="M 281 133 164 179"/>
<path stroke-width="1" stroke="black" d="M 281 133 103 125"/>
<path stroke-width="1" stroke="black" d="M 281 133 218 104"/>
<path stroke-width="1" stroke="black" d="M 266 109 139 104"/>
<path stroke-width="1" stroke="black" d="M 281 133 270 156"/>
<path stroke-width="1" stroke="black" d="M 281 133 254 109"/>
<path stroke-width="1" stroke="black" d="M 281 133 156 97"/>
<path stroke-width="1" stroke="black" d="M 281 133 149 102"/>
<path stroke-width="1" stroke="black" d="M 281 133 210 138"/>
<path stroke-width="1" stroke="black" d="M 281 133 167 123"/>
<path stroke-width="1" stroke="black" d="M 314 82 266 109"/>
<path stroke-width="1" stroke="black" d="M 266 109 210 208"/>
<path stroke-width="1" stroke="black" d="M 281 133 134 180"/>
<path stroke-width="1" stroke="black" d="M 266 109 149 102"/>
<path stroke-width="1" stroke="black" d="M 266 109 210 138"/>
<path stroke-width="1" stroke="black" d="M 266 109 167 123"/>
<path stroke-width="1" stroke="black" d="M 235 166 254 109"/>
<path stroke-width="1" stroke="black" d="M 235 166 156 97"/>
<path stroke-width="1" stroke="black" d="M 235 166 149 102"/>
<path stroke-width="1" stroke="black" d="M 235 166 210 138"/>
<path stroke-width="1" stroke="black" d="M 235 166 167 123"/>
<path stroke-width="1" stroke="black" d="M 224 59 211 94"/>
<path stroke-width="1" stroke="black" d="M 211 94 210 208"/>
<path stroke-width="1" stroke="black" d="M 235 166 134 180"/>
<path stroke-width="1" stroke="black" d="M 211 94 284 185"/>
<path stroke-width="1" stroke="black" d="M 211 94 183 86"/>
<path stroke-width="1" stroke="black" d="M 211 94 233 185"/>
<path stroke-width="1" stroke="black" d="M 211 94 97 168"/>
<path stroke-width="1" stroke="black" d="M 211 94 124 186"/>
<path stroke-width="1" stroke="black" d="M 211 94 168 197"/>
<path stroke-width="1" stroke="black" d="M 211 94 208 189"/>
<path stroke-width="1" stroke="black" d="M 211 94 281 133"/>
<path stroke-width="1" stroke="black" d="M 211 94 139 104"/>
<path stroke-width="1" stroke="black" d="M 235 166 270 156"/>
<path stroke-width="1" stroke="black" d="M 235 166 218 104"/>
<path stroke-width="1" stroke="black" d="M 235 166 103 125"/>
<path stroke-width="1" stroke="black" d="M 276 185 235 166"/>
<path stroke-width="1" stroke="black" d="M 235 166 210 208"/>
<path stroke-width="1" stroke="black" d="M 235 166 284 185"/>
<path stroke-width="1" stroke="black" d="M 235 166 139 104"/>
<path stroke-width="1" stroke="black" d="M 235 166 183 86"/>
<path stroke-width="1" stroke="black" d="M 235 166 233 185"/>
<path stroke-width="1" stroke="black" d="M 235 166 97 168"/>
<path stroke-width="1" stroke="black" d="M 235 166 124 186"/>
<path stroke-width="1" stroke="black" d="M 235 166 168 197"/>
<path stroke-width="1" stroke="black" d="M 235 166 208 189"/>
<path stroke-width="1" stroke="black" d="M 235 166 281 133"/>
<path stroke-width="1" stroke="black" d="M 235 166 266 109"/>
<path stroke-width="1" stroke="black" d="M 235 166 276 185"/>
<path stroke-width="1" stroke="black" d="M 235 166 211 94"/>
<path stroke-width="1" stroke="black" d="M 235 166 130 158"/>
<path stroke-width="1" stroke="black" d="M 235 166 119 129"/>
<path stroke-width="1" stroke="black" d="M 235 166 164 179"/>
<path stroke-width="1" stroke="black" d="M 281 133 266 109"/>
<path stroke-width="1" stroke="black" d="M 281 133 343 121"/>
<path stroke-width="1" stroke="black" d="M 281 133 208 189"/>
<path stroke-width="1" stroke="black" d="M 281 133 168 197"/>
<path stroke-width="1" stroke="black" d="M 168 197 139 104"/>
<path stroke-width="1" stroke="black" d="M 168 197 183 86"/>
<path stroke-width="1" stroke="black" d="M 168 197 233 185"/>
<path stroke-width="1" stroke="black" d="M 168 197 97 168"/>
<path stroke-width="1" stroke="black" d="M 168 197 124 186"/>
<path stroke-width="1" stroke="black" d="M 168 197 145 239"/>
<path stroke-width="1" stroke="black" d="M 168 197 208 189"/>
<path stroke-width="1" stroke="black" d="M 168 197 284 185"/>
<path stroke-width="1" stroke="black" d="M 168 197 281 133"/>
<path stroke-width="1" stroke="black" d="M 168 197 235 166"/>
<path stroke-width="1" stroke="black" d="M 168 197 211 94"/>
<path stroke-width="1" stroke="black" d="M 168 197 130 158"/>
<path stroke-width="1" stroke="black" d="M 168 197 119 129"/>
<path stroke-width="1" stroke="black" d="M 168 197 164 179"/>
<path stroke-width="1" stroke="black" d="M 168 197 103 125"/>
<path stroke-width="1" stroke="black" d="M 168 197 218 104"/>
<path stroke-width="1" stroke="black" d="M 168 197 266 109"/>
<path stroke-width="1" stroke="black" d="M 168 197 210 208"/>
<path stroke-width="1" stroke="black" d="M 145 239 168 197"/>
<path stroke-width="1" stroke="black" d="M 124 186 167 123"/>
<path stroke-width="1" stroke="black" d="M 124 186 168 197"/>
<path stroke-width="1" stroke="black" d="M 124 186 208 189"/>
<path stroke-width="1" stroke="black" d="M 124 186 281 133"/>
<path stroke-width="1" stroke="black" d="M 124 186 266 109"/>
<path stroke-width="1" stroke="black" d="M 124 186 235 166"/>
<path stroke-width="1" stroke="black" d="M 124 186 211 94"/>
<path stroke-width="1" stroke="black" d="M 124 186 130 158"/>
<path stroke-width="1" stroke="black" d="M 124 186 119 129"/>
<path stroke-width="1" stroke="black" d="M 124 186 164 179"/>
<path stroke-width="1" stroke="black" d="M 124 186 103 125"/>
<path stroke-width="1" stroke="black" d="M 124 186 218 104"/>
<path stroke-width="1" stroke="black" d="M 124 186 270 156"/>
<path stroke-width="1" stroke="black" d="M 124 186 134 180"/>
<path stroke-width="1" stroke="black" d="M 124 186 254 109"/>
<path stroke-width="1" stroke="black" d="M 124 186 156 97"/>
<path stroke-width="1" stroke="black" d="M 124 186 149 102"/>
<path stroke-width="1" stroke="black" d="M 124 186 210 138"/>
<path stroke-width="1" stroke="black" d="M 168 197 270 156"/>
<path stroke-width="1" stroke="black" d="M 124 186 97 168"/>
<path stroke-width="1" stroke="black" d="M 168 197 134 180"/>
<path stroke-width="1" stroke="black" d="M 168 197 156 97"/>
<path stroke-width="1" stroke="black" d="M 208 189 218 104"/>
<path stroke-width="1" stroke="black" d="M 208 189 270 156"/>
<path stroke-width="1" stroke="black" d="M 208 189 134 180"/>
<path stroke-width="1" stroke="black" d="M 208 189 254 109"/>
<path stroke-width="1" stroke="black" d="M 208 189 156 97"/>
<path stroke-width="1" stroke="black" d="M 208 189 149 102"/>
<path stroke-width="1" stroke="black" d="M 208 189 210 138"/>
<path stroke-width="1" stroke="black" d="M 208 189 103 125"/>
<path stroke-width="1" stroke="black" d="M 208 189 167 123"/>
<path stroke-width="1" stroke="black" d="M 281 133 210 208"/>
<path stroke-width="1" stroke="black" d="M 281 133 284 185"/>
<path stroke-width="1" stroke="black" d="M 281 133 139 104"/>
<path stroke-width="1" stroke="black" d="M 281 133 183 86"/>
<path stroke-width="1" stroke="black" d="M 281 133 233 185"/>
<path stroke-width="1" stroke="black" d="M 281 133 97 168"/>
<path stroke-width="1" stroke="black" d="M 281 133 124 186"/>
<path stroke-width="1" stroke="black" d="M 343 121 281 133"/>
<path stroke-width="1" stroke="black" d="M 208 189 164 179"/>
<path stroke-width="1" stroke="black" d="M 208 189 119 129"/>
<path stroke-width="1" stroke="black" d="M 208 189 130 158"/>
<path stroke-width="1" stroke="black" d="M 168 197 149 102"/>
<path stroke-width="1" stroke="black" d="M 168 197 210 138"/>
<path stroke-width="1" stroke="black" d="M 168 197 167 123"/>
<path stroke-width="1" stroke="black" d="M 220 228 208 189"/>
<path stroke-width="1" stroke="black" d="M 208 189 210 208"/>
<path stroke-width="1" stroke="black" d="M 208 189 284 185"/>
<path stroke-width="1" stroke="black" d="M 208 189 139 104"/>
<path stroke-width="1" stroke="black" d="M 208 189 183 86"/>
<path stroke-width="1" stroke="black" d="M 208 189 233 185"/>
<path stroke-width="1" stroke="black" d="M 208 189 97 168"/>
<path stroke-width="1" stroke="black" d="M 208 189 124 186"/>
<path stroke-width="1" stroke="black" d="M 208 189 168 197"/>
<path stroke-width="1" stroke="black" d="M 208 189 220 228"/>
<path stroke-width="1" stroke="black" d="M 208 189 281 133"/>
<path stroke-width="1" stroke="black" d="M 208 189 266 109"/>
<path stroke-width="1" stroke="black" d="M 208 189 235 166"/>
<path stroke-width="1" stroke="black" d="M 208 189 211 94"/>
<path stroke-width="1" stroke="black" d="M 168 197 254 109"/>
<path stroke-width="1" stroke="black" d="M 167 123 190 139"/>
<circle cx="239" cy="320" r="20.0" style="fill:blue;stroke:black;stroke-width:1.0"/>
<circle cx="210" cy="208" r="20.0" style="fill:blue;stroke:black;stroke-width:1.0"/>
<circle cx="420" cy="247" r="20.0" style="fill:blue;stroke:black;stroke-width:1.0"/>
<circle cx="284" cy="185" r="20.0" style="fill:blue;stroke:black;stroke-width:1.0"/>
<circle cx="79" cy="42" r="20.0" style="fill:blue;stroke:black;stroke-width:1.0"/>
<circle cx="139" cy="104" r="20.0" style="fill:blue;stroke:black;stroke-width:1.0"/>
<circle cx="172" cy="20" r="20.0" style="fill:blue;stroke:black;stroke-width:1.0"/>
<circle cx="183" cy="86" r="20.0" style="fill:blue;stroke:black;stroke-width:1.0"/>
<circle cx="281" cy="230" r="20.0" style="fill:blue;stroke:black;stroke-width:1.0"/>
<circle cx="233" cy="185" r="20.0" style="fill:blue;stroke:black;stroke-width:1.0"/>
<circle cx="20" cy="196" r="20.0" style="fill:aqua;stroke:black;stroke-width:1.0"/>
<circle cx="97" cy="168" r="20.0" style="fill:aqua;stroke:black;stroke-width:1.0"/>
<circle cx="69" cy="224" r="20.0" style="fill:olive;stroke:black;stroke-width:1.0"/>
<circle cx="124" cy="186" r="20.0" style="fill:olive;stroke:black;stroke-width:1.0"/>
<circle cx="145" cy="239" r="20.0" style="fill:fuchsia;stroke:black;stroke-width:1.0"/>
<circle cx="168" cy="197" r="20.0" style="fill:fuchsia;stroke:black;stroke-width:1.0"/>
<circle cx="220" cy="228" r="20.0" style="fill:yellow;stroke:black;stroke-width:1.0"/>
<circle cx="208" cy="189" r="20.0" style="fill:yellow;stroke:black;stroke-width:1.0"/>
<circle cx="343" cy="121" r="20.0" style="fill:purple;stroke:black;stroke-width:1.0"/>
<circle cx="281" cy="133" r="20.0" style="fill:purple;stroke:black;stroke-width:1.0"/>
<circle cx="314" cy="82" r="20.0" style="fill:orange;stroke:black;stroke-width:1.0"/>
<circle cx="266" cy="109" r="20.0" style="fill:orange;stroke:black;stroke-width:1.0"/>
<circle cx="276" cy="185" r="20.0" style="fill:green;stroke:black;stroke-width:1.0"/>
<circle cx="235" cy="166" r="20.0" style="fill:green;stroke:black;stroke-width:1.0"/>
<circle cx="224" cy="59" r="20.0" style="fill:red;stroke:black;stroke-width:1.0"/>
<circle cx="211" cy="94" r="20.0" style="fill:red;stroke:black;stroke-width:1.0"/>
<circle cx="83" cy="170" r="20.0" style="fill:brown;stroke:black;stroke-width:1.0"/>
<circle cx="130" cy="158" r="20.0" style="fill:brown;stroke:black;stroke-width:1.0"/>
<circle cx="74" cy="115" r="20.0" style="fill:blue;stroke:black;stroke-width:1.0"/>
<circle cx="119" cy="129" r="20.0" style="fill:blue;stroke:black;stroke-width:1.0"/>
<circle cx="146" cy="205" r="20.0" style="fill:aqua;stroke:black;stroke-width:1.0"/>
<circle cx="164" cy="179" r="20.0" style="fill:aqua;stroke:black;stroke-width:1.0"/>
<circle cx="56" cy="111" r="20.0" style="fill:olive;stroke:black;stroke-width:1.0"/>
<circle cx="103" cy="125" r="20.0" style="fill:olive;stroke:black;stroke-width:1.0"/>
<circle cx="237" cy="79" r="20.0" style="fill:fuchsia;stroke:black;stroke-width:1.0"/>
<circle cx="218" cy="104" r="20.0" style="fill:fuchsia;stroke:black;stroke-width:1.0"/>
<circle cx="314" cy="161" r="20.0" style="fill:yellow;stroke:black;stroke-width:1.0"/>
<circle cx="270" cy="156" r="20.0" style="fill:yellow;stroke:black;stroke-width:1.0"/>
<circle cx="103" cy="201" r="20.0" style="fill:purple;stroke:black;stroke-width:1.0"/>
<circle cx="134" cy="180" r="20.0" style="fill:purple;stroke:black;stroke-width:1.0"/>
<circle cx="283" cy="89" r="20.0" style="fill:orange;stroke:black;stroke-width:1.0"/>
<circle cx="254" cy="109" r="20.0" style="fill:orange;stroke:black;stroke-width:1.0"/>
<circle cx="139" cy="73" r="20.0" style="fill:green;stroke:black;stroke-width:1.0"/>
<circle cx="156" cy="97" r="20.0" style="fill:green;stroke:black;stroke-width:1.0"/>
<circle cx="129" cy="81" r="20.0" style="fill:red;stroke:black;stroke-width:1.0"/>
<circle cx="149" cy="102" r="20.0" style="fill:red;stroke:black;stroke-width:1.0"/>
<circle cx="230" cy="129" r="20.0" style="fill:brown;stroke:black;stroke-width:1.0"/>
<circle cx="210" cy="138" r="20.0" style="fill:brown;stroke:black;stroke-width:1.0"/>
<circle cx="190" cy="139" r="20.0" style="fill:blue;stroke:black;stroke-width:1.0"/>
<circle cx="167" cy="123" r="20.0" style="fill:blue;stroke:black;stroke-width:1.0"/>
</svg>
