<svg width="440" height="340" xmlns="http://www.w3.org/2000/svg">
<path stroke-width="1" stroke="black" d="M 278 20 247 125"/>
<path stroke-width="1" stroke="black" d="M 127 165 239 237"/>
<path stroke-width="1" stroke="black" d="M 127 165 302 221"/>
<path stroke-width="1" stroke="black" d="M 127 165 328 174"/>
<path stroke-width="1" stroke="black" d="M 127 165 327 177"/>
<path stroke-width="1" stroke="black" d="M 127 165 281 168"/>
<path stroke-width="1" stroke="black" d="M 127 165 49 143"/>
<path stroke-width="1" stroke="black" d="M 127 165 168 185"/>
<path stroke-width="1" stroke="black" d="M 127 165 328 194"/>
<path stroke-width="1" stroke="black" d="M 127 165 174 225"/>
<path stroke-width="1" stroke="black" d="M 127 165 124 170"/>
<path stroke-width="1" stroke="black" d="M 127 165 191 219"/>
<path stroke-width="1" stroke="black" d="M 127 165 110 193"/>
<path stroke-width="1" stroke="black" d="M 127 165 157 148"/>
<path stroke-width="1" stroke="black" d="M 127 165 298 207"/>
<path stroke-width="1" stroke="black" d="M 118 184 168 185"/>
<path stroke-width="1" stroke="black" d="M 168 185 247 125"/>
<path stroke-width="1" stroke="black" d="M 127 165 223 169"/>
<path stroke-width="1" stroke="black" d="M 168 185 261 227"/>
<path stroke-width="1" stroke="black" d="M 127 165 271 126"/>
<path stroke-width="1" stroke="black" d="M 127 165 150 225"/>
<path stroke-width="1" stroke="black" d="M 281 168 168 185"/>
<path stroke-width="1" stroke="black" d="M 281 168 174 225"/>
<path stroke-width="1" stroke="black" d="M 281 168 223 169"/>
<path stroke-width="1" stroke="black" d="M 281 168 124 170"/>
<path stroke-width="1" stroke="black" d="M 281 168 191 219"/>
<path stroke-width="1" stroke="black" d="M 281 168 110 193"/>
<path stroke-width="1" stroke="black" d="M 281 168 157 148"/>
<path stroke-width="1" stroke="black" d="M 127 165 237 238"/>
<path stroke-width="1" stroke="black" d="M 281 168 298 207"/>
<path stroke-width="1" stroke="black" d="M 127 165 247 125"/>
<path stroke-width="1" stroke="black" d="M 127 165 261 227"/>
<path stroke-width="1" stroke="black" d="M 127 165 247 126"/>
<path stroke-width="1" stroke="black" d="M 127 165 308 142"/>
<path stroke-width="1" stroke="black" d="M 127 165 126 211"/>
<path stroke-width="1" stroke="black" d="M 127 165 171 128"/>
<path stroke-width="1" stroke="black" d="M 127 165 192 128"/>
<path stroke-width="1" stroke="black" d="M 49 143 127 165"/>
<path stroke-width="1" stroke="black" d="M 168 185 247 126"/>
<path stroke-width="1" stroke="black" d="M 168 185 308 142"/>
<path stroke-width="1" stroke="black" d="M 168 185 126 211"/>
<path stroke-width="1" stroke="black" d="M 174 225 247 125"/>
<path stroke-width="1" stroke="black" d="M 174 225 261 227"/>
<path stroke-width="1" stroke="black" d="M 174 225 247 126"/>
<path stroke-width="1" stroke="black" d="M 174 225 308 142"/>
<path stroke-width="1" stroke="black" d="M 174 225 126 211"/>
<path stroke-width="1" stroke="black" d="M 174 225 171 128"/>
<path stroke-width="1" stroke="black" d="M 174 225 192 128"/>
<path stroke-width="1" stroke="black" d="M 141 258 174 225"/>
<path stroke-width="1" stroke="black" d="M 174 225 150 225"/>
<path stroke-width="1" stroke="black" d="M 174 225 271 126"/>
<path stroke-width="1" stroke="black" d="M 174 225 328 194"/>
<path stroke-width="1" stroke="black" d="M 174 225 239 237"/>
<path stroke-width="1" stroke="black" d="M 174 225 302 221"/>
<path stroke-width="1" stroke="black" d="M 174 225 328 174"/>
<path stroke-width="1" stroke="black" d="M 174 225 327 177"/>
<path stroke-width="1" stroke="black" d="M 174 225 281 168"/>
<path stroke-width="1" stroke="black" d="M 174 225 237 238"/>
<path stroke-width="1" stroke="black" d="M 168 185 298 207"/>
<path stroke-width="1" stroke="black" d="M 168 185 157 148"/>
<path stroke-width="1" stroke="black" d="M 168 185 110 193"/>
<path stroke-width="1" stroke="black" d="M 168 185 171 128"/>
<path stroke-width="1" stroke="black" d="M 168 185 192 128"/>
<path stroke-width="1" stroke="black" d="M 168 185 150 225"/>
<path stroke-width="1" stroke="black" d="M 168 185 237 238"/>
<path stroke-width="1" stroke="black" d="M 168 185 271 126"/>
<path stroke-width="1" stroke="black" d="M 168 185 328 194"/>
<path stroke-width="1" stroke="black" d="M 168 185 239 237"/>
<path stroke-width="1" stroke="black" d="M 168 185 302 221"/>
<path stroke-width="1" stroke="black" d="M 168 185 328 174"/>
<path stroke-width="1" stroke="black" d="M 168 185 327 177"/>
<path stroke-width="1" stroke="black" d="M 168 185 281 168"/>
<path stroke-width="1" stroke="black" d="M 168 185 127 165"/>
<path stroke-width="1" stroke="black" d="M 168 185 118 184"/>
<path stroke-width="1" stroke="black" d="M 168 185 174 225"/>
<path stroke-width="1" stroke="black" d="M 168 185 223 169"/>
<path stroke-width="1" stroke="black" d="M 168 185 124 170"/>
<path stroke-width="1" stroke="black" d="M 168 185 191 219"/>
<path stroke-width="1" stroke="black" d="M 281 168 127 165"/>
<path stroke-width="1" stroke="black" d="M 174 225 127 165"/>
<path stroke-width="1" stroke="black" d="M 281 168 330 145"/>
<path stroke-width="1" stroke="black" d="M 281 168 328 174"/>
<path stroke-width="1" stroke="black" d="M 328 174 237 238"/>
<path stroke-width="1" stroke="black" d="M 328 174 271 126"/>
<path stroke-width="1" stroke="black" d="M 328 174 328 194"/>
<path stroke-width="1" stroke="black" d="M 328 174 239 237"/>
<path stroke-width="1" stroke="black" d="M 328 174 302 221"/>
<path stroke-width="1" stroke="black" d="M 328 174 409 160"/>
<path stroke-width="1" stroke="black" d="M 328 174 327 177"/>
<path stroke-width="1" stroke="black" d="M 328 174 150 225"/>
<path stroke-width="1" stroke="black" d="M 328 174 281 168"/>
<path stroke-width="1" stroke="black" d="M 328 174 168 185"/>
<path stroke-width="1" stroke="black" d="M 328 174 174 225"/>
<path stroke-width="1" stroke="black" d="M 328 174 223 169"/>
<path stroke-width="1" stroke="black" d="M 328 174 124 170"/>
<path stroke-width="1" stroke="black" d="M 328 174 191 219"/>
<path stroke-width="1" stroke="black" d="M 328 174 110 193"/>
<path stroke-width="1" stroke="black" d="M 328 174 157 148"/>
<path stroke-width="1" stroke="black" d="M 328 174 127 165"/>
<path stroke-width="1" stroke="black" d="M 328 174 298 207"/>
<path stroke-width="1" stroke="black" d="M 328 174 192 128"/>
<path stroke-width="1" stroke="black" d="M 328 174 126 211"/>
<path stroke-width="1" stroke="black" d="M 302 221 327 177"/>
<path stroke-width="1" stroke="black" d="M 302 221 281 168"/>
<path stroke-width="1" stroke="black" d="M 302 221 127 165"/>
<path stroke-width="1" stroke="black" d="M 302 221 168 185"/>
<path stroke-width="1" stroke="black" d="M 302 221 174 225"/>
<path stroke-width="1" stroke="black" d="M 302 221 223 169"/>
<path stroke-width="1" stroke="black" d="M 302 221 124 170"/>
<path stroke-width="1" stroke="black" d="M 328 174 171 128"/>
<path stroke-width="1" stroke="black" d="M 302 221 191 219"/>
<path stroke-width="1" stroke="black" d="M 302 221 157 148"/>
<path stroke-width="1" stroke="black" d="M 302 221 298 207"/>
<path stroke-width="1" stroke="black" d="M 409 160 328 174"/>
<path stroke-width="1" stroke="black" d="M 328 174 247 125"/>
<path stroke-width="1" stroke="black" d="M 328 174 261 227"/>
<path stroke-width="1" stroke="black" d="M 328 174 247 126"/>
<path stroke-width="1" stroke="black" d="M 328 174 308 142"/>
<path stroke-width="1" stroke="black" d="M 302 221 110 193"/>
<path stroke-width="1" stroke="black" d="M 409 169 327 177"/>
<path stroke-width="1" stroke="black" d="M 327 177 247 125"/>
<path stroke-width="1" stroke="black" d="M 327 177 261 227"/>
<path stroke-width="1" stroke="black" d="M 327 177 157 148"/>
<path stroke-width="1" stroke="black" d="M 327 177 298 207"/>
<path stroke-width="1" stroke="black" d="M 330 145 281 168"/>
<path stroke-width="1" stroke="black" d="M 281 168 247 125"/>
<path stroke-width="1" stroke="black" d="M 281 168 261 227"/>
<path stroke-width="1" stroke="black" d="M 281 168 247 126"/>
<path stroke-width="1" stroke="black" d="M 281 168 308 142"/>
<path stroke-width="1" stroke="black" d="M 327 177 110 193"/>
<path stroke-width="1" stroke="black" d="M 281 168 126 211"/>
<path stroke-width="1" stroke="black" d="M 281 168 192 128"/>
<path stroke-width="1" stroke="black" d="M 281 168 150 225"/>
<path stroke-width="1" stroke="black" d="M 281 168 237 238"/>
<path stroke-width="1" stroke="black" d="M 281 168 271 126"/>
<path stroke-width="1" stroke="black" d="M 281 168 328 194"/>
<path stroke-width="1" stroke="black" d="M 281 168 239 237"/>
<path stroke-width="1" stroke="black" d="M 281 168 302 221"/>
<path stroke-width="1" stroke="black" d="M 281 168 171 128"/>
<path stroke-width="1" stroke="black" d="M 327 177 191 219"/>
<path stroke-width="1" stroke="black" d="M 327 177 124 170"/>
<path stroke-width="1" stroke="black" d="M 327 177 223 169"/>
<path stroke-width="1" stroke="black" d="M 327 177 247 126"/>
<path stroke-width="1" stroke="black" d="M 327 177 308 142"/>
<path stroke-width="1" stroke="black" d="M 327 177 126 211"/>
<path stroke-width="1" stroke="black" d="M 327 177 171 128"/>
<path stroke-width="1" stroke="black" d="M 327 177 192 128"/>
<path stroke-width="1" stroke="black" d="M 327 177 150 225"/>
<path stroke-width="1" stroke="black" d="M 327 177 237 238"/>
<path stroke-width="1" stroke="black" d="M 327 177 271 126"/>
<path stroke-width="1" stroke="black" d="M 327 177 328 194"/>
<path stroke-width="1" stroke="black" d="M 327 177 239 237"/>
<path stroke-width="1" stroke="black" d="M 327 177 302 221"/>
<path stroke-width="1" stroke="black" d="M 327 177 328 174"/>
<path stroke-width="1" stroke="black" d="M 327 177 409 169"/>
<path stroke-width="1" stroke="black" d="M 327 177 281 168"/>
<path stroke-width="1" stroke="black" d="M 327 177 127 165"/>
<path stroke-width="1" stroke="black" d="M 327 177 168 185"/>
<path stroke-width="1" stroke="black" d="M 327 177 174 225"/>
<path stroke-width="1" stroke="black" d="M 281 168 327 177"/>
<path stroke-width="1" stroke="black" d="M 174 225 168 185"/>
<path stroke-width="1" stroke="black" d="M 174 225 141 258"/>
<path stroke-width="1" stroke="black" d="M 174 225 223 169"/>
<path stroke-width="1" stroke="black" d="M 110 193 174 225"/>
<path stroke-width="1" stroke="black" d="M 110 193 223 169"/>
<path stroke-width="1" stroke="black" d="M 110 193 124 170"/>
<path stroke-width="1" stroke="black" d="M 110 193 191 219"/>
<path stroke-width="1" stroke="black" d="M 110 193 50 206"/>
<path stroke-width="1" stroke="black" d="M 110 193 157 148"/>
<path stroke-width="1" stroke="black" d="M 110 193 298 207"/>
<path stroke-width="1" stroke="black" d="M 110 193 168 185"/>
<path stroke-width="1" stroke="black" d="M 108 109 157 148"/>
<path stroke-width="1" stroke="black" d="M 157 148 261 227"/>
<path stroke-width="1" stroke="black" d="M 157 148 247 126"/>
<path stroke-width="1" stroke="black" d="M 157 148 308 142"/>
<path stroke-width="1" stroke="black" d="M 157 148 126 211"/>
<path stroke-width="1" stroke="black" d="M 157 148 171 128"/>
<path stroke-width="1" stroke="black" d="M 157 148 192 128"/>
<path stroke-width="1" stroke="black" d="M 157 148 150 225"/>
<path stroke-width="1" stroke="black" d="M 157 148 247 125"/>
<path stroke-width="1" stroke="black" d="M 157 148 237 238"/>
<path stroke-width="1" stroke="black" d="M 110 193 127 165"/>
<path stroke-width="1" stroke="black" d="M 110 193 327 177"/>
<path stroke-width="1" stroke="black" d="M 191 219 298 207"/>
<path stroke-width="1" stroke="black" d="M 50 206 110 193"/>
<path stroke-width="1" stroke="black" d="M 110 193 247 125"/>
<path stroke-width="1" stroke="black" d="M 110 193 261 227"/>
<path stroke-width="1" stroke="black" d="M 110 193 247 126"/>
<path stroke-width="1" stroke="black" d="M 110 193 308 142"/>
<path stroke-width="1" stroke="black" d="M 110 193 126 211"/>
<path stroke-width="1" stroke="black" d="M 110 193 281 168"/>
<path stroke-width="1" stroke="black" d="M 110 193 171 128"/>
<path stroke-width="1" stroke="black" d="M 110 193 150 225"/>
<path stroke-width="1" stroke="black" d="M 110 193 237 238"/>
<path stroke-width="1" stroke="black" d="M 110 193 271 126"/>
<path stroke-width="1" stroke="black" d="M 110 193 328 194"/>
<path stroke-width="1" stroke="black" d="M 110 193 239 237"/>
<path stroke-width="1" stroke="black" d="M 110 193 302 221"/>
<path stroke-width="1" stroke="black" d="M 110 193 328 174"/>
<path stroke-width="1" stroke="black" d="M 110 193 192 128"/>
<path stroke-width="1" stroke="black" d="M 157 148 271 126"/>
<path stroke-width="1" stroke="black" d="M 157 148 328 194"/>
<path stroke-width="1" stroke="black" d="M 157 148 239 237"/>
<path stroke-width="1" stroke="black" d="M 298 207 150 225"/>
<path stroke-width="1" stroke="black" d="M 298 207 237 238"/>
<path stroke-width="1" stroke="black" d="M 298 207 271 126"/>
<path stroke-width="1" stroke="black" d="M 298 207 328 194"/>
<path stroke-width="1" stroke="black" d="M 298 207 239 237"/>
<path stroke-width="1" stroke="black" d="M 298 207 302 221"/>
<path stroke-width="1" stroke="black" d="M 298 207 328 174"/>
<path stroke-width="1" stroke="black" d="M 298 207 192 128"/>
<path stroke-width="1" stroke="black" d="M 298 207 327 177"/>
<path stroke-width="1" stroke="black" d="M 298 207 127 165"/>
<path stroke-width="1" stroke="black" d="M 298 207 168 185"/>
<path stroke-width="1" stroke="black" d="M 298 207 174 225"/>
<path stroke-width="1" stroke="black" d="M 298 207 223 169"/>
<path stroke-width="1" stroke="black" d="M 298 207 124 170"/>
<path stroke-width="1" stroke="black" d="M 298 207 191 219"/>
<path stroke-width="1" stroke="black" d="M 298 207 110 193"/>
<path stroke-width="1" stroke="black" d="M 298 207 281 168"/>
<path stroke-width="1" stroke="black" d="M 298 207 171 128"/>
<path stroke-width="1" stroke="black" d="M 298 207 126 211"/>
<path stroke-width="1" stroke="black" d="M 298 207 308 142"/>
<path stroke-width="1" stroke="black" d="M 157 148 302 221"/>
<path stroke-width="1" stroke="black" d="M 157 148 328 174"/>
<path stroke-width="1" stroke="black" d="M 157 148 327 177"/>
<path stroke-width="1" stroke="black" d="M 157 148 281 168"/>
<path stroke-width="1" stroke="black" d="M 157 148 127 165"/>
<path stroke-width="1" stroke="black" d="M 157 148 168 185"/>
<path stroke-width="1" stroke="black" d="M 157 148 174 225"/>
<path stroke-width="1" stroke="black" d="M 157 148 223 169"/>
<path stroke-width="1" stroke="black" d="M 157 148 124 170"/>
<path stroke-width="1" stroke="black" d="M 157 148 191 219"/>
<path stroke-width="1" stroke="black" d="M 157 148 110 193"/>
<path stroke-width="1" stroke="black" d="M 157 148 108 109"/>
<path stroke-width="1" stroke="black" d="M 157 148 298 207"/>
<path stroke-width="1" stroke="black" d="M 349 234 298 207"/>
<path stroke-width="1" stroke="black" d="M 298 207 247 125"/>
<path stroke-width="1" stroke="black" d="M 298 207 261 227"/>
<path stroke-width="1" stroke="black" d="M 298 207 247 126"/>
<path stroke-width="1" stroke="black" d="M 191 219 157 148"/>
<path stroke-width="1" stroke="black" d="M 191 219 110 193"/>
<path stroke-width="1" stroke="black" d="M 191 219 174 265"/>
<path stroke-width="1" stroke="black" d="M 191 219 124 170"/>
<path stroke-width="1" stroke="black" d="M 223 169 281 168"/>
<path stroke-width="1" stroke="black" d="M 223 169 127 165"/>
<path stroke-width="1" stroke="black" d="M 223 169 168 185"/>
<path stroke-width="1" stroke="black" d="M 223 169 174 225"/>
<path stroke-width="1" stroke="black" d="M 223 169 226 147"/>
<path stroke-width="1" stroke="black" d="M 223 169 124 170"/>
<path stroke-width="1" stroke="black" d="M 223 169 191 219"/>
<path stroke-width="1" stroke="black" d="M 223 169 327 177"/>
<path stroke-width="1" stroke="black" d="M 223 169 110 193"/>
<path stroke-width="1" stroke="black" d="M 223 169 298 207"/>
<path stroke-width="1" stroke="black" d="M 49 154 124 170"/>
<path stroke-width="1" stroke="black" d="M 124 170 247 125"/>
<path stroke-width="1" stroke="black" d="M 124 170 261 227"/>
<path stroke-width="1" stroke="black" d="M 124 170 247 126"/>
<path stroke-width="1" stroke="black" d="M 124 170 308 142"/>
<path stroke-width="1" stroke="black" d="M 124 170 126 211"/>
<path stroke-width="1" stroke="black" d="M 223 169 157 148"/>
<path stroke-width="1" stroke="black" d="M 223 169 328 174"/>
<path stroke-width="1" stroke="black" d="M 223 169 302 221"/>
<path stroke-width="1" stroke="black" d="M 223 169 239 237"/>
<path stroke-width="1" stroke="black" d="M 174 225 124 170"/>
<path stroke-width="1" stroke="black" d="M 174 225 191 219"/>
<path stroke-width="1" stroke="black" d="M 174 225 110 193"/>
<path stroke-width="1" stroke="black" d="M 174 225 157 148"/>
<path stroke-width="1" stroke="black" d="M 174 225 298 207"/>
<path stroke-width="1" stroke="black" d="M 226 147 223 169"/>
<path stroke-width="1" stroke="black" d="M 223 169 247 125"/>
<path stroke-width="1" stroke="black" d="M 223 169 261 227"/>
<path stroke-width="1" stroke="black" d="M 223 169 247 126"/>
<path stroke-width="1" stroke="black" d="M 223 169 308 142"/>
<path stroke-width="1" stroke="black" d="M 223 169 126 211"/>
<path stroke-width="1" stroke="black" d="M 223 169 171 128"/>
<path stroke-width="1" stroke="black" d="M 223 169 192 128"/>
<path stroke-width="1" stroke="black" d="M 223 169 150 225"/>
<path stroke-width="1" stroke="black" d="M 223 169 237 238"/>
<path stroke-width="1" stroke="black" d="M 223 169 271 126"/>
<path stroke-width="1" stroke="black" d="M 223 169 328 194"/>
<path stroke-width="1" stroke="black" d="M 124 170 171 128"/>
<path stroke-width="1" stroke="black" d="M 302 221 328 174"/>
<path stroke-width="1" stroke="black" d="M 124 170 192 128"/>
<path stroke-width="1" stroke="black" d="M 124 170 237 238"/>
<path stroke-width="1" stroke="black" d="M 191 219 126 211"/>
<path stroke-width="1" stroke="black" d="M 191 219 171 128"/>
<path stroke-width="1" stroke="black" d="M 191 219 192 128"/>
<path stroke-width="1" stroke="black" d="M 191 219 150 225"/>
<path stroke-width="1" stroke="black" d="M 191 219 237 238"/>
<path stroke-width="1" stroke="black" d="M 191 219 271 126"/>
<path stroke-width="1" stroke="black" d="M 191 219 328 194"/>
<path stroke-width="1" stroke="black" d="M 191 219 308 142"/>
<path stroke-width="1" stroke="black" d="M 191 219 239 237"/>
<path stroke-width="1" stroke="black" d="M 191 219 328 174"/>
<path stroke-width="1" stroke="black" d="M 191 219 327 177"/>
<path stroke-width="1" stroke="black" d="M 191 219 281 168"/>
<path stroke-width="1" stroke="black" d="M 191 219 127 165"/>
<path stroke-width="1" stroke="black" d="M 191 219 168 185"/>
<path stroke-width="1" stroke="black" d="M 191 219 174 225"/>
<path stroke-width="1" stroke="black" d="M 191 219 223 169"/>
<path stroke-width="1" stroke="black" d="M 191 219 302 221"/>
<path stroke-width="1" stroke="black" d="M 191 219 247 126"/>
<path stroke-width="1" stroke="black" d="M 191 219 261 227"/>
<path stroke-width="1" stroke="black" d="M 191 219 247 125"/>
<path stroke-width="1" stroke="black" d="M 124 170 271 126"/>
<path stroke-width="1" stroke="black" d="M 124 170 328 194"/>
<path stroke-width="1" stroke="black" d="M 124 170 239 237"/>
<path stroke-width="1" stroke="black" d="M 124 170 302 221"/>
<path stroke-width="1" stroke="black" d="M 124 170 328 174"/>
<path stroke-width="1" stroke="black" d="M 124 170 327 177"/>
<path stroke-width="1" stroke="black" d="M 124 170 281 168"/>
<path stroke-width="1" stroke="black" d="M 124 170 127 165"/>
<path stroke-width="1" stroke="black" d="M 124 170 168 185"/>
<path stroke-width="1" stroke="black" d="M 124 170 174 225"/>
<path stroke-width="1" stroke="black" d="M 124 170 223 169"/>
<path stroke-width="1" stroke="black" d="M 124 170 49 154"/>
<path stroke-width="1" stroke="black" d="M 124 170 191 219"/>
<path stroke-width="1" stroke="black" d="M 124 170 110 193"/>
<path stroke-width="1" stroke="black" d="M 124 170 157 148"/>
<path stroke-width="1" stroke="black" d="M 124 170 298 207"/>
<path stroke-width="1" stroke="black" d="M 174 265 191 219"/>
<path stroke-width="1" stroke="black" d="M 124 170 150 225"/>
<path stroke-width="1" stroke="black" d="M 302 221 360 255"/>
<path stroke-width="1" stroke="black" d="M 302 221 239 237"/>
<path stroke-width="1" stroke="black" d="M 302 221 328 194"/>
<path stroke-width="1" stroke="black" d="M 308 142 298 207"/>
<path stroke-width="1" stroke="black" d="M 20 243 126 211"/>
<path stroke-width="1" stroke="black" d="M 126 211 247 125"/>
<path stroke-width="1" stroke="black" d="M 126 211 261 227"/>
<path stroke-width="1" stroke="black" d="M 126 211 247 126"/>
<path stroke-width="1" stroke="black" d="M 126 211 308 142"/>
<path stroke-width="1" stroke="black" d="M 126 211 20 243"/>
<path stroke-width="1" stroke="black" d="M 308 142 157 148"/>
<path stroke-width="1" stroke="black" d="M 126 211 171 128"/>
<path stroke-width="1" stroke="black" d="M 126 211 150 225"/>
<path stroke-width="1" stroke="black" d="M 126 211 237 238"/>
<path stroke-width="1" stroke="black" d="M 126 211 271 126"/>
<path stroke-width="1" stroke="black" d="M 126 211 328 194"/>
<path stroke-width="1" stroke="black" d="M 126 211 239 237"/>
<path stroke-width="1" stroke="black" d="M 126 211 302 221"/>
<path stroke-width="1" stroke="black" d="M 126 211 328 174"/>
<path stroke-width="1" stroke="black" d="M 126 211 192 128"/>
<path stroke-width="1" stroke="black" d="M 126 211 327 177"/>
<path stroke-width="1" stroke="black" d="M 308 142 110 193"/>
<path stroke-width="1" stroke="black" d="M 308 142 124 170"/>
<path stroke-width="1" stroke="black" d="M 308 142 126 211"/>
<path stroke-width="1" stroke="black" d="M 308 142 171 128"/>
<path stroke-width="1" stroke="black" d="M 308 142 192 128"/>
<path stroke-width="1" stroke="black" d="M 308 142 150 225"/>
<path stroke-width="1" stroke="black" d="M 308 142 237 238"/>
<path stroke-width="1" stroke="black" d="M 308 142 271 126"/>
<path stroke-width="1" stroke="black" d="M 308 142 328 194"/>
<path stroke-width="1" stroke="black" d="M 308 142 191 219"/>
<path stroke-width="1" stroke="black" d="M 308 142 239 237"/>
<path stroke-width="1" stroke="black" d="M 308 142 328 174"/>
<path stroke-width="1" stroke="black" d="M 308 142 327 177"/>
<path stroke-width="1" stroke="black" d="M 308 142 281 168"/>
<path stroke-width="1" stroke="black" d="M 308 142 127 165"/>
<path stroke-width="1" stroke="black" d="M 308 142 168 185"/>
<path stroke-width="1" stroke="black" d="M 308 142 174 225"/>
<path stroke-width="1" stroke="black" d="M 308 142 223 169"/>
<path stroke-width="1" stroke="black" d="M 308 142 302 221"/>
<path stroke-width="1" stroke="black" d="M 126 211 281 168"/>
<path stroke-width="1" stroke="black" d="M 126 211 127 165"/>
<path stroke-width="1" stroke="black" d="M 126 211 168 185"/>
<path stroke-width="1" stroke="black" d="M 171 128 328 174"/>
<path stroke-width="1" stroke="black" d="M 171 128 327 177"/>
<path stroke-width="1" stroke="black" d="M 171 128 281 168"/>
<path stroke-width="1" stroke="black" d="M 171 128 127 165"/>
<path stroke-width="1" stroke="black" d="M 171 128 168 185"/>
<path stroke-width="1" stroke="black" d="M 171 128 174 225"/>
<path stroke-width="1" stroke="black" d="M 171 128 223 169"/>
<path stroke-width="1" stroke="black" d="M 171 128 302 221"/>
<path stroke-width="1" stroke="black" d="M 171 128 124 170"/>
<path stroke-width="1" stroke="black" d="M 171 128 110 193"/>
<path stroke-width="1" stroke="black" d="M 171 128 157 148"/>
<path stroke-width="1" stroke="black" d="M 171 128 298 207"/>
<path stroke-width="1" stroke="black" d="M 172 78 192 128"/>
<path stroke-width="1" stroke="black" d="M 192 128 247 125"/>
<path stroke-width="1" stroke="black" d="M 192 128 261 227"/>
<path stroke-width="1" stroke="black" d="M 192 128 247 126"/>
<path stroke-width="1" stroke="black" d="M 171 128 191 219"/>
<path stroke-width="1" stroke="black" d="M 171 128 239 237"/>
<path stroke-width="1" stroke="black" d="M 171 128 328 194"/>
<path stroke-width="1" stroke="black" d="M 171 128 271 126"/>
<path stroke-width="1" stroke="black" d="M 126 211 174 225"/>
<path stroke-width="1" stroke="black" d="M 126 211 223 169"/>
<path stroke-width="1" stroke="black" d="M 126 211 124 170"/>
<path stroke-width="1" stroke="black" d="M 126 211 191 219"/>
<path stroke-width="1" stroke="black" d="M 126 211 110 193"/>
<path stroke-width="1" stroke="black" d="M 126 211 157 148"/>
<path stroke-width="1" stroke="black" d="M 126 211 298 207"/>
<path stroke-width="1" stroke="black" d="M 116 78 171 128"/>
<path stroke-width="1" stroke="black" d="M 171 128 247 125"/>
<path stroke-width="1" stroke="black" d="M 171 128 261 227"/>
<path stroke-width="1" stroke="black" d="M 171 128 247 126"/>
<path stroke-width="1" stroke="black" d="M 171 128 308 142"/>
<path stroke-width="1" stroke="black" d="M 171 128 126 211"/>
<path stroke-width="1" stroke="black" d="M 171 128 116 78"/>
<path stroke-width="1" stroke="black" d="M 171 128 192 128"/>
<path stroke-width="1" stroke="black" d="M 171 128 150 225"/>
<path stroke-width="1" stroke="black" d="M 171 128 237 238"/>
<path stroke-width="1" stroke="black" d="M 308 142 404 95"/>
<path stroke-width="1" stroke="black" d="M 308 142 247 126"/>
<path stroke-width="1" stroke="black" d="M 308 142 261 227"/>
<path stroke-width="1" stroke="black" d="M 308 142 247 125"/>
<path stroke-width="1" stroke="black" d="M 247 125 191 219"/>
<path stroke-width="1" stroke="black" d="M 247 125 110 193"/>
<path stroke-width="1" stroke="black" d="M 247 125 157 148"/>
<path stroke-width="1" stroke="black" d="M 247 125 298 207"/>
<path stroke-width="1" stroke="black" d="M 325 320 261 227"/>
<path stroke-width="1" stroke="black" d="M 261 227 247 125"/>
<path stroke-width="1" stroke="black" d="M 261 227 325 320"/>
<path stroke-width="1" stroke="black" d="M 247 125 124 170"/>
<path stroke-width="1" stroke="black" d="M 261 227 247 126"/>
<path stroke-width="1" stroke="black" d="M 261 227 126 211"/>
<path stroke-width="1" stroke="black" d="M 261 227 171 128"/>
<path stroke-width="1" stroke="black" d="M 261 227 192 128"/>
<path stroke-width="1" stroke="black" d="M 261 227 150 225"/>
<path stroke-width="1" stroke="black" d="M 261 227 237 238"/>
<path stroke-width="1" stroke="black" d="M 261 227 271 126"/>
<path stroke-width="1" stroke="black" d="M 261 227 328 194"/>
<path stroke-width="1" stroke="black" d="M 261 227 308 142"/>
<path stroke-width="1" stroke="black" d="M 247 125 223 169"/>
<path stroke-width="1" stroke="black" d="M 247 125 174 225"/>
<path stroke-width="1" stroke="black" d="M 247 125 168 185"/>
<path stroke-width="1" stroke="black" d="M 247 125 278 20"/>
<path stroke-width="1" stroke="black" d="M 247 125 261 227"/>
<path stroke-width="1" stroke="black" d="M 247 125 247 126"/>
<path stroke-width="1" stroke="black" d="M 247 125 308 142"/>
<path stroke-width="1" stroke="black" d="M 247 125 126 211"/>
<path stroke-width="1" stroke="black" d="M 247 125 171 128"/>
<path stroke-width="1" stroke="black" d="M 247 125 192 128"/>
<path stroke-width="1" stroke="black" d="M 247 125 150 225"/>
<path stroke-width="1" stroke="black" d="M 247 125 237 238"/>
<path stroke-width="1" stroke="black" d="M 247 125 271 126"/>
<path stroke-width="1" stroke="black" d="M 247 125 328 194"/>
<path stroke-width="1" stroke="black" d="M 247 125 239 237"/>
<path stroke-width="1" stroke="black" d="M 247 125 302 221"/>
<path stroke-width="1" stroke="black" d="M 247 125 328 174"/>
<path stroke-width="1" stroke="black" d="M 247 125 327 177"/>
<path stroke-width="1" stroke="black" d="M 247 125 281 168"/>
<path stroke-width="1" stroke="black" d="M 247 125 127 165"/>
<path stroke-width="1" stroke="black" d="M 261 227 239 237"/>
<path stroke-width="1" stroke="black" d="M 192 128 308 142"/>
<path stroke-width="1" stroke="black" d="M 261 227 302 221"/>
<path stroke-width="1" stroke="black" d="M 261 227 327 177"/>
<path stroke-width="1" stroke="black" d="M 247 126 328 194"/>
<path stroke-width="1" stroke="black" d="M 247 126 239 237"/>
<path stroke-width="1" stroke="black" d="M 247 126 302 221"/>
<path stroke-width="1" stroke="black" d="M 247 126 328 174"/>
<path stroke-width="1" stroke="black" d="M 247 126 327 177"/>
<path stroke-width="1" stroke="black" d="M 247 126 281 168"/>
<path stroke-width="1" stroke="black" d="M 247 126 127 165"/>
<path stroke-width="1" stroke="black" d="M 247 126 271 126"/>
<path stroke-width="1" stroke="black" d="M 247 126 168 185"/>
<path stroke-width="1" stroke="black" d="M 247 126 223 169"/>
<path stroke-width="1" stroke="black" d="M 247 126 124 170"/>
<path stroke-width="1" stroke="black" d="M 247 126 191 219"/>
<path stroke-width="1" stroke="black" d="M 247 126 110 193"/>
<path stroke-width="1" stroke="black" d="M 247 126 157 148"/>
<path stroke-width="1" stroke="black" d="M 247 126 298 207"/>
<path stroke-width="1" stroke="black" d="M 404 95 308 142"/>
<path stroke-width="1" stroke="black" d="M 247 126 174 225"/>
<path stroke-width="1" stroke="black" d="M 247 126 237 238"/>
<path stroke-width="1" stroke="black" d="M 247 126 150 225"/>
<path stroke-width="1" stroke="black" d="M 247 126 192 128"/>
<path stroke-width="1" stroke="black" d="M 261 227 281 168"/>
<path stroke-width="1" stroke="black" d="M 261 227 127 165"/>
<path stroke-width="1" stroke="black" d="M 261 227 168 185"/>
<path stroke-width="1" stroke="black" d="M 261 227 174 225"/>
<path stroke-width="1" stroke="black" d="M 261 227 223 169"/>
<path stroke-width="1" stroke="black" d="M 261 227 124 170"/>
<path stroke-width="1" stroke="black" d="M 261 227 191 219"/>
<path stroke-width="1" stroke="black" d="M 261 227 110 193"/>
<path stroke-width="1" stroke="black" d="M 261 227 157 148"/>
<path stroke-width="1" stroke="black" d="M 261 227 298 207"/>
<path stroke-width="1" stroke="black" d="M 270 52 247 126"/>
<path stroke-width="1" stroke="black" d="M 247 126 247 125"/>
<path stroke-width="1" stroke="black" d="M 247 126 261 227"/>
<path stroke-width="1" stroke="black" d="M 247 126 270 52"/>
<path stroke-width="1" stroke="black" d="M 247 126 308 142"/>
<path stroke-width="1" stroke="black" d="M 247 126 126 211"/>
<path stroke-width="1" stroke="black" d="M 247 126 171 128"/>
<path stroke-width="1" stroke="black" d="M 261 227 328 174"/>
<path stroke-width="1" stroke="black" d="M 298 207 157 148"/>
<path stroke-width="1" stroke="black" d="M 192 128 126 211"/>
<path stroke-width="1" stroke="black" d="M 192 128 172 78"/>
<path stroke-width="1" stroke="black" d="M 328 194 171 128"/>
<path stroke-width="1" stroke="black" d="M 328 194 192 128"/>
<path stroke-width="1" stroke="black" d="M 328 194 150 225"/>
<path stroke-width="1" stroke="black" d="M 328 194 237 238"/>
<path stroke-width="1" stroke="black" d="M 328 194 271 126"/>
<path stroke-width="1" stroke="black" d="M 328 194 420 215"/>
<path stroke-width="1" stroke="black" d="M 328 194 239 237"/>
<path stroke-width="1" stroke="black" d="M 328 194 126 211"/>
<path stroke-width="1" stroke="black" d="M 328 194 302 221"/>
<path stroke-width="1" stroke="black" d="M 328 194 327 177"/>
<path stroke-width="1" stroke="black" d="M 328 194 281 168"/>
<path stroke-width="1" stroke="black" d="M 328 194 127 165"/>
<path stroke-width="1" stroke="black" d="M 328 194 168 185"/>
<path stroke-width="1" stroke="black" d="M 328 194 174 225"/>
<path stroke-width="1" stroke="black" d="M 328 194 223 169"/>
<path stroke-width="1" stroke="black" d="M 328 194 124 170"/>
<path stroke-width="1" stroke="black" d="M 328 194 328 174"/>
<path stroke-width="1" stroke="black" d="M 328 194 191 219"/>
<path stroke-width="1" stroke="black" d="M 328 194 308 142"/>
<path stroke-width="1" stroke="black" d="M 328 194 261 227"/>
<path stroke-width="1" stroke="black" d="M 271 126 239 237"/>
<path stroke-width="1" stroke="black" d="M 271 126 302 221"/>
<path stroke-width="1" stroke="black" d="M 271 126 328 174"/>
<path stroke-width="1" stroke="black" d="M 271 126 327 177"/>
<path stroke-width="1" stroke="black" d="M 271 126 281 168"/>
<path stroke-width="1" stroke="black" d="M 271 126 127 165"/>
<path stroke-width="1" stroke="black" d="M 271 126 168 185"/>
<path stroke-width="1" stroke="black" d="M 328 194 247 126"/>
<path stroke-width="1" stroke="black" d="M 271 126 174 225"/>
<path stroke-width="1" stroke="black" d="M 271 126 124 170"/>
<path stroke-width="1" stroke="black" d="M 271 126 191 219"/>
<path stroke-width="1" stroke="black" d="M 271 126 110 193"/>
<path stroke-width="1" stroke="black" d="M 271 126 157 148"/>
<path stroke-width="1" stroke="black" d="M 271 126 298 207"/>
<path stroke-width="1" stroke="black" d="M 420 215 328 194"/>
<path stroke-width="1" stroke="black" d="M 328 194 247 125"/>
<path stroke-width="1" stroke="black" d="M 271 126 223 169"/>
<path stroke-width="1" stroke="black" d="M 328 194 110 193"/>
<path stroke-width="1" stroke="black" d="M 328 194 157 148"/>
<path stroke-width="1" stroke="black" d="M 328 194 298 207"/>
<path stroke-width="1" stroke="black" d="M 239 237 124 170"/>
<path stroke-width="1" stroke="black" d="M 239 237 191 219"/>
<path stroke-width="1" stroke="black" d="M 239 237 110 193"/>
<path stroke-width="1" stroke="black" d="M 239 237 157 148"/>
<path stroke-width="1" stroke="black" d="M 239 237 298 207"/>
<path stroke-width="1" stroke="black" d="M 360 255 302 221"/>
<path stroke-width="1" stroke="black" d="M 302 221 247 125"/>
<path stroke-width="1" stroke="black" d="M 239 237 223 169"/>
<path stroke-width="1" stroke="black" d="M 302 221 261 227"/>
<path stroke-width="1" stroke="black" d="M 302 221 308 142"/>
<path stroke-width="1" stroke="black" d="M 302 221 126 211"/>
<path stroke-width="1" stroke="black" d="M 302 221 171 128"/>
<path stroke-width="1" stroke="black" d="M 302 221 192 128"/>
<path stroke-width="1" stroke="black" d="M 302 221 150 225"/>
<path stroke-width="1" stroke="black" d="M 302 221 237 238"/>
<path stroke-width="1" stroke="black" d="M 302 221 271 126"/>
<path stroke-width="1" stroke="black" d="M 302 221 247 126"/>
<path stroke-width="1" stroke="black" d="M 239 237 174 225"/>
<path stroke-width="1" stroke="black" d="M 239 237 168 185"/>
<path stroke-width="1" stroke="black" d="M 239 237 127 165"/>
<path stroke-width="1" stroke="black" d="M 250 280 239 237"/>
<path stroke-width="1" stroke="black" d="M 239 237 247 125"/>
<path stroke-width="1" stroke="black" d="M 239 237 261 227"/>
<path stroke-width="1" stroke="black" d="M 239 237 247 126"/>
<path stroke-width="1" stroke="black" d="M 239 237 308 142"/>
<path stroke-width="1" stroke="black" d="M 239 237 126 211"/>
<path stroke-width="1" stroke="black" d="M 239 237 171 128"/>
<path stroke-width="1" stroke="black" d="M 239 237 192 128"/>
<path stroke-width="1" stroke="black" d="M 239 237 150 225"/>
<path stroke-width="1" stroke="black" d="M 239 237 237 238"/>
<path stroke-width="1" stroke="black" d="M 239 237 271 126"/>
<path stroke-width="1" stroke="black" d="M 239 237 328 194"/>
<path stroke-width="1" stroke="black" d="M 239 237 250 280"/>
<path stroke-width="1" stroke="black" d="M 239 237 302 221"/>
<path stroke-width="1" stroke="black" d="M 239 237 328 174"/>
<path stroke-width="1" stroke="black" d="M 239 237 327 177"/>
<path stroke-width="1" stroke="black" d="M 239 237 281 168"/>
<path stroke-width="1" stroke="black" d="M 271 126 328 194"/>
<path stroke-width="1" stroke="black" d="M 271 126 305 89"/>
<path stroke-width="1" stroke="black" d="M 271 126 237 238"/>
<path stroke-width="1" stroke="black" d="M 271 126 150 225"/>
<path stroke-width="1" stroke="black" d="M 150 225 247 126"/>
<path stroke-width="1" stroke="black" d="M 150 225 308 142"/>
<path stroke-width="1" stroke="black" d="M 150 225 126 211"/>
<path stroke-width="1" stroke="black" d="M 150 225 171 128"/>
<path stroke-width="1" stroke="black" d="M 150 225 192 128"/>
<path stroke-width="1" stroke="black" d="M 150 225 88 265"/>
<path stroke-width="1" stroke="black" d="M 150 225 237 238"/>
<path stroke-width="1" stroke="black" d="M 150 225 261 227"/>
<path stroke-width="1" stroke="black" d="M 150 225 271 126"/>
<path stroke-width="1" stroke="black" d="M 150 225 239 237"/>
<path stroke-width="1" stroke="black" d="M 150 225 302 221"/>
<path stroke-width="1" stroke="black" d="M 150 225 328 174"/>
<path stroke-width="1" stroke="black" d="M 150 225 327 177"/>
<path stroke-width="1" stroke="black" d="M 150 225 281 168"/>
<path stroke-width="1" stroke="black" d="M 150 225 127 165"/>
<path stroke-width="1" stroke="black" d="M 150 225 168 185"/>
<path stroke-width="1" stroke="black" d="M 150 225 328 194"/>
<path stroke-width="1" stroke="black" d="M 150 225 247 125"/>
<path stroke-width="1" stroke="black" d="M 88 265 150 225"/>
<path stroke-width="1" stroke="black" d="M 192 128 298 207"/>
<path stroke-width="1" stroke="black" d="M 192 128 150 225"/>
<path stroke-width="1" stroke="black" d="M 192 128 237 238"/>
<path stroke-width="1" stroke="black" d="M 192 128 271 126"/>
<path stroke-width="1" stroke="black" d="M 192 128 328 194"/>
<path stroke-width="1" stroke="black" d="M 192 128 239 237"/>
<path stroke-width="1" stroke="black" d="M 192 128 302 221"/>
<path stroke-width="1" stroke="black" d="M 192 128 328 174"/>
<path stroke-width="1" stroke="black" d="M 192 128 327 177"/>
<path stroke-width="1" stroke="black" d="M 192 128 281 168"/>
<path stroke-width="1" stroke="black" d="M 192 128 127 165"/>
<path stroke-width="1" stroke="black" d="M 192 128 168 185"/>
<path stroke-width="1" stroke="black" d="M 192 128 174 225"/>
<path stroke-width="1" stroke="black" d="M 192 128 223 169"/>
<path stroke-width="1" stroke="black" d="M 192 128 124 170"/>
<path stroke-width="1" stroke="black" d="M 192 128 191 219"/>
<path stroke-width="1" stroke="black" d="M 192 128 110 193"/>
<path stroke-width="1" stroke="black" d="M 192 128 157 148"/>
<path stroke-width="1" stroke="black" d="M 150 225 174 225"/>
<path stroke-width="1" stroke="black" d="M 192 128 171 128"/>
<path stroke-width="1" stroke="black" d="M 150 225 223 169"/>
<path stroke-width="1" stroke="black" d="M 150 225 191 219"/>
<path stroke-width="1" stroke="black" d="M 237 238 168 185"/>
<path stroke-width="1" stroke="black" d="M 237 238 174 225"/>
<path stroke-width="1" stroke="black" d="M 237 238 223 169"/>
<path stroke-width="1" stroke="black" d="M 237 238 124 170"/>
<path stroke-width="1" stroke="black" d="M 237 238 191 219"/>
<path stroke-width="1" stroke="black" d="M 237 238 110 193"/>
<path stroke-width="1" stroke="black" d="M 237 238 157 148"/>
<path stroke-width="1" stroke="black" d="M 237 238 127 165"/>
<path stroke-width="1" stroke="black" d="M 237 238 298 207"/>
<path stroke-width="1" stroke="black" d="M 271 126 247 125"/>
<path stroke-width="1" stroke="black" d="M 271 126 261 227"/>
<path stroke-width="1" stroke="black" d="M 271 126 247 126"/>
<path stroke-width="1" stroke="black" d="M 271 126 308 142"/>
<path stroke-width="1" stroke="black" d="M 271 126 126 211"/>
<path stroke-width="1" stroke="black" d="M 271 126 171 128"/>
<path stroke-width="1" stroke="black" d="M 271 126 192 128"/>
<path stroke-width="1" stroke="black" d="M 305 89 271 126"/>
<path stroke-width="1" stroke="black" d="M 237 238 281 168"/>
<path stroke-width="1" stroke="black" d="M 237 238 327 177"/>
<path stroke-width="1" stroke="black" d="M 237 238 328 174"/>
<path stroke-width="1" stroke="black" d="M 150 225 110 193"/>
<path stroke-width="1" stroke="black" d="M 150 225 157 148"/>
<path stroke-width="1" stroke="black" d="M 150 225 298 207"/>
<path stroke-width="1" stroke="black" d="M 243 285 237 238"/>
<path stroke-width="1" stroke="black" d="M 237 238 247 125"/>
<path stroke-width="1" stroke="black" d="M 237 238 261 227"/>
<path stroke-width="1" stroke="black" d="M 237 238 247 126"/>
<path stroke-width="1" stroke="black" d="M 237 238 308 142"/>
<path stroke-width="1" stroke="black" d="M 237 238 126 211"/>
<path stroke-width="1" stroke="black" d="M 237 238 171 128"/>
<path stroke-width="1" stroke="black" d="M 237 238 192 128"/>
<path stroke-width="1" stroke="black" d="M 237 238 150 225"/>
<path stroke-width="1" stroke="black" d="M 237 238 243 285"/>
<path stroke-width="1" stroke="black" d="M 237 238 271 126"/>
<path stroke-width="1" stroke="black" d="M 237 238 328 194"/>
<path stroke-width="1" stroke="black" d="M 237 238 239 237"/>
<path stroke-width="1" stroke="black" d="M 237 238 302 221"/>
<path stroke-width="1" stroke="black" d="M 150 225 124 170"/>
<path stroke-width="1" stroke="black" d="M 298 207 349 234"/>
<circle cx="278" cy="20" r="7.0" style="fill:gray;stroke:black;stroke-width:1.0"/>
<circle cx="247" cy="125" r="7.0" style="fill:gray;stroke:black;stroke-width:1.0"/>
<circle cx="325" cy="320" r="7.0" style="fill:gray;stroke:black;stroke-width:1.0"/>
<circle cx="261" cy="227" r="7.0" style="fill:gray;stroke:black;stroke-width:1.0"/>
<circle cx="270" cy="52" r="7.0" style="fill:gray;stroke:black;stroke-width:1.0"/>
<circle cx="247" cy="126" r="7.0" style="fill:gray;stroke:black;stroke-width:1.0"/>
<circle cx="404" cy="95" r="7.0" style="fill:gray;stroke:black;stroke-width:1.0"/>
<circle cx="308" cy="142" r="7.0" style="fill:gray;stroke:black;stroke-width:1.0"/>
<circle cx="20" cy="243" r="7.0" style="fill:gray;stroke:black;stroke-width:1.0"/>
<circle cx="126" cy="211" r="7.0" style="fill:gray;stroke:black;stroke-width:1.0"/>
<circle cx="116" cy="78" r="7.0" style="fill:gray;stroke:black;stroke-width:1.0"/>
<circle cx="171" cy="128" r="7.0" style="fill:gray;stroke:black;stroke-width:1.0"/>
<circle cx="172" cy="78" r="7.0" style="fill:gray;stroke:black;stroke-width:1.0"/>
<circle cx="192" cy="128" r="7.0" style="fill:gray;stroke:black;stroke-width:1.0"/>
<circle cx="88" cy="265" r="7.0" style="fill:gray;stroke:black;stroke-width:1.0"/>
<circle cx="150" cy="225" r="7.0" style="fill:gray;stroke:black;stroke-width:1.0"/>
<circle cx="243" cy="285" r="7.0" style="fill:gray;stroke:black;stroke-width:1.0"/>
<circle cx="237" cy="238" r="7.0" style="fill:gray;stroke:black;stroke-width:1.0"/>
<circle cx="305" cy="89" r="7.0" style="fill:gray;stroke:black;stroke-width:1.0"/>
<circle cx="271" cy="126" r="7.0" style="fill:gray;stroke:black;stroke-width:1.0"/>
<circle cx="420" cy="215" r="7.0" style="fill:gray;stroke:black;stroke-width:1.0"/>
<circle cx="328" cy="194" r="7.0" style="fill:gray;stroke:black;stroke-width:1.0"/>
<circle cx="250" cy="280" r="7.0" style="fill:gray;stroke:black;stroke-width:1.0"/>
<circle cx="239" cy="237" r="7.0" style="fill:gray;stroke:black;stroke-width:1.0"/>
<circle cx="360" cy="255" r="7.0" style="fill:gray;stroke:black;stroke-width:1.0"/>
<circle cx="302" cy="221" r="7.0" style="fill:gray;stroke:black;stroke-width:1.0"/>
<circle cx="409" cy="160" r="7.0" style="fill:gray;stroke:black;stroke-width:1.0"/>
<circle cx="328" cy="174" r="7.0" style="fill:gray;stroke:black;stroke-width:1.0"/>
<circle cx="409" cy="169" r="7.0" style="fill:gray;stroke:black;stroke-width:1.0"/>
<circle cx="327" cy="177" r="7.0" style="fill:gray;stroke:black;stroke-width:1.0"/>
<circle cx="330" cy="145" r="7.0" style="fill:gray;stroke:black;stroke-width:1.0"/>
<circle cx="281" cy="168" r="7.0" style="fill:gray;stroke:black;stroke-width:1.0"/>
<circle cx="49" cy="143" r="7.0" style="fill:gray;stroke:black;stroke-width:1.0"/>
<circle cx="127" cy="165" r="7.0" style="fill:gray;stroke:black;stroke-width:1.0"/>
<circle cx="118" cy="184" r="7.0" style="fill:gray;stroke:black;stroke-width:1.0"/>
<circle cx="168" cy="185" r="7.0" style="fill:gray;stroke:black;stroke-width:1.0"/>
<circle cx="141" cy="258" r="7.0" style="fill:gray;stroke:black;stroke-width:1.0"/>
<circle cx="174" cy="225" r="7.0" style="fill:gray;stroke:black;stroke-width:1.0"/>
<circle cx="226" cy="147" r="7.0" style="fill:gray;stroke:black;stroke-width:1.0"/>
<circle cx="223" cy="169" r="7.0" style="fill:gray;stroke:black;stroke-width:1.0"/>
<circle cx="49" cy="154" r="7.0" style="fill:gray;stroke:black;stroke-width:1.0"/>
<circle cx="124" cy="170" r="7.0" style="fill:gray;stroke:black;stroke-width:1.0"/>
<circle cx="174" cy="265" r="7.0" style="fill:gray;stroke:black;stroke-width:1.0"/>
<circle cx="191" cy="219" r="7.0" style="fill:gray;stroke:black;stroke-width:1.0"/>
<circle cx="50" cy="206" r="7.0" style="fill:gray;stroke:black;stroke-width:1.0"/>
<circle cx="110" cy="193" r="7.0" style="fill:gray;stroke:black;stroke-width:1.0"/>
<circle cx="108" cy="109" r="7.0" style="fill:gray;stroke:black;stroke-width:1.0"/>
<circle cx="157" cy="148" r="7.0" style="fill:gray;stroke:black;stroke-width:1.0"/>
<circle cx="349" cy="234" r="7.0" style="fill:gray;stroke:black;stroke-width:1.0"/>
<circle cx="298" cy="207" r="7.0" style="fill:gray;stroke:black;stroke-width:1.0"/>
</svg>
