<svg width="440" height="340" xmlns="http://www.w3.org/2000/svg">
<path stroke-width="1" stroke="black" d="M 324 320 257 211"/>
<path stroke-width="1" stroke="black" d="M 141 114 270 215"/>
<path stroke-width="1" stroke="black" d="M 141 114 308 195"/>
<path stroke-width="1" stroke="black" d="M 141 114 121 194"/>
<path stroke-width="1" stroke="black" d="M 141 114 237 101"/>
<path stroke-width="1" stroke="black" d="M 141 114 163 211"/>
<path stroke-width="1" stroke="black" d="M 141 114 120 87"/>
<path stroke-width="1" stroke="black" d="M 141 114 298 171"/>
<path stroke-width="1" stroke="black" d="M 141 114 114 181"/>
<path stroke-width="1" stroke="black" d="M 141 114 291 121"/>
<path stroke-width="1" stroke="black" d="M 141 114 174 214"/>
<path stroke-width="1" stroke="black" d="M 141 114 224 216"/>
<path stroke-width="1" stroke="black" d="M 141 114 270 203"/>
<path stroke-width="1" stroke="black" d="M 141 114 288 147"/>
<path stroke-width="1" stroke="black" d="M 141 114 188 164"/>
<path stroke-width="1" stroke="black" d="M 372 178 298 171"/>
<path stroke-width="1" stroke="black" d="M 298 171 257 211"/>
<path stroke-width="1" stroke="black" d="M 141 114 199 139"/>
<path stroke-width="1" stroke="black" d="M 298 171 139 126"/>
<path stroke-width="1" stroke="black" d="M 141 114 130 158"/>
<path stroke-width="1" stroke="black" d="M 141 114 125 126"/>
<path stroke-width="1" stroke="black" d="M 163 211 298 171"/>
<path stroke-width="1" stroke="black" d="M 163 211 291 121"/>
<path stroke-width="1" stroke="black" d="M 163 211 199 139"/>
<path stroke-width="1" stroke="black" d="M 163 211 174 214"/>
<path stroke-width="1" stroke="black" d="M 163 211 224 216"/>
<path stroke-width="1" stroke="black" d="M 163 211 270 203"/>
<path stroke-width="1" stroke="black" d="M 163 211 288 147"/>
<path stroke-width="1" stroke="black" d="M 141 114 269 114"/>
<path stroke-width="1" stroke="black" d="M 163 211 188 164"/>
<path stroke-width="1" stroke="black" d="M 141 114 257 211"/>
<path stroke-width="1" stroke="black" d="M 141 114 139 126"/>
<path stroke-width="1" stroke="black" d="M 141 114 162 209"/>
<path stroke-width="1" stroke="black" d="M 141 114 230 95"/>
<path stroke-width="1" stroke="black" d="M 141 114 197 98"/>
<path stroke-width="1" stroke="black" d="M 141 114 300 124"/>
<path stroke-width="1" stroke="black" d="M 141 114 310 169"/>
<path stroke-width="1" stroke="black" d="M 120 87 141 114"/>
<path stroke-width="1" stroke="black" d="M 298 171 162 209"/>
<path stroke-width="1" stroke="black" d="M 298 171 230 95"/>
<path stroke-width="1" stroke="black" d="M 298 171 197 98"/>
<path stroke-width="1" stroke="black" d="M 291 121 257 211"/>
<path stroke-width="1" stroke="black" d="M 291 121 139 126"/>
<path stroke-width="1" stroke="black" d="M 291 121 162 209"/>
<path stroke-width="1" stroke="black" d="M 291 121 230 95"/>
<path stroke-width="1" stroke="black" d="M 291 121 197 98"/>
<path stroke-width="1" stroke="black" d="M 291 121 300 124"/>
<path stroke-width="1" stroke="black" d="M 291 121 310 169"/>
<path stroke-width="1" stroke="black" d="M 329 98 291 121"/>
<path stroke-width="1" stroke="black" d="M 291 121 125 126"/>
<path stroke-width="1" stroke="black" d="M 291 121 130 158"/>
<path stroke-width="1" stroke="black" d="M 291 121 114 181"/>
<path stroke-width="1" stroke="black" d="M 291 121 270 215"/>
<path stroke-width="1" stroke="black" d="M 291 121 308 195"/>
<path stroke-width="1" stroke="black" d="M 291 121 121 194"/>
<path stroke-width="1" stroke="black" d="M 291 121 237 101"/>
<path stroke-width="1" stroke="black" d="M 291 121 163 211"/>
<path stroke-width="1" stroke="black" d="M 291 121 269 114"/>
<path stroke-width="1" stroke="black" d="M 298 171 188 164"/>
<path stroke-width="1" stroke="black" d="M 298 171 288 147"/>
<path stroke-width="1" stroke="black" d="M 298 171 270 203"/>
<path stroke-width="1" stroke="black" d="M 298 171 300 124"/>
<path stroke-width="1" stroke="black" d="M 298 171 310 169"/>
<path stroke-width="1" stroke="black" d="M 298 171 125 126"/>
<path stroke-width="1" stroke="black" d="M 298 171 269 114"/>
<path stroke-width="1" stroke="black" d="M 298 171 130 158"/>
<path stroke-width="1" stroke="black" d="M 298 171 114 181"/>
<path stroke-width="1" stroke="black" d="M 298 171 270 215"/>
<path stroke-width="1" stroke="black" d="M 298 171 308 195"/>
<path stroke-width="1" stroke="black" d="M 298 171 121 194"/>
<path stroke-width="1" stroke="black" d="M 298 171 237 101"/>
<path stroke-width="1" stroke="black" d="M 298 171 163 211"/>
<path stroke-width="1" stroke="black" d="M 298 171 141 114"/>
<path stroke-width="1" stroke="black" d="M 298 171 372 178"/>
<path stroke-width="1" stroke="black" d="M 298 171 291 121"/>
<path stroke-width="1" stroke="black" d="M 298 171 199 139"/>
<path stroke-width="1" stroke="black" d="M 298 171 174 214"/>
<path stroke-width="1" stroke="black" d="M 298 171 224 216"/>
<path stroke-width="1" stroke="black" d="M 163 211 141 114"/>
<path stroke-width="1" stroke="black" d="M 291 121 141 114"/>
<path stroke-width="1" stroke="black" d="M 163 211 140 242"/>
<path stroke-width="1" stroke="black" d="M 163 211 121 194"/>
<path stroke-width="1" stroke="black" d="M 121 194 269 114"/>
<path stroke-width="1" stroke="black" d="M 121 194 130 158"/>
<path stroke-width="1" stroke="black" d="M 121 194 114 181"/>
<path stroke-width="1" stroke="black" d="M 121 194 270 215"/>
<path stroke-width="1" stroke="black" d="M 121 194 308 195"/>
<path stroke-width="1" stroke="black" d="M 121 194 88 218"/>
<path stroke-width="1" stroke="black" d="M 121 194 237 101"/>
<path stroke-width="1" stroke="black" d="M 121 194 125 126"/>
<path stroke-width="1" stroke="black" d="M 121 194 163 211"/>
<path stroke-width="1" stroke="black" d="M 121 194 298 171"/>
<path stroke-width="1" stroke="black" d="M 121 194 291 121"/>
<path stroke-width="1" stroke="black" d="M 121 194 199 139"/>
<path stroke-width="1" stroke="black" d="M 121 194 174 214"/>
<path stroke-width="1" stroke="black" d="M 121 194 224 216"/>
<path stroke-width="1" stroke="black" d="M 121 194 270 203"/>
<path stroke-width="1" stroke="black" d="M 121 194 288 147"/>
<path stroke-width="1" stroke="black" d="M 121 194 141 114"/>
<path stroke-width="1" stroke="black" d="M 121 194 188 164"/>
<path stroke-width="1" stroke="black" d="M 121 194 310 169"/>
<path stroke-width="1" stroke="black" d="M 121 194 197 98"/>
<path stroke-width="1" stroke="black" d="M 308 195 237 101"/>
<path stroke-width="1" stroke="black" d="M 308 195 163 211"/>
<path stroke-width="1" stroke="black" d="M 308 195 141 114"/>
<path stroke-width="1" stroke="black" d="M 308 195 298 171"/>
<path stroke-width="1" stroke="black" d="M 308 195 291 121"/>
<path stroke-width="1" stroke="black" d="M 308 195 199 139"/>
<path stroke-width="1" stroke="black" d="M 308 195 174 214"/>
<path stroke-width="1" stroke="black" d="M 121 194 300 124"/>
<path stroke-width="1" stroke="black" d="M 308 195 224 216"/>
<path stroke-width="1" stroke="black" d="M 308 195 288 147"/>
<path stroke-width="1" stroke="black" d="M 308 195 188 164"/>
<path stroke-width="1" stroke="black" d="M 88 218 121 194"/>
<path stroke-width="1" stroke="black" d="M 121 194 257 211"/>
<path stroke-width="1" stroke="black" d="M 121 194 139 126"/>
<path stroke-width="1" stroke="black" d="M 121 194 162 209"/>
<path stroke-width="1" stroke="black" d="M 121 194 230 95"/>
<path stroke-width="1" stroke="black" d="M 308 195 270 203"/>
<path stroke-width="1" stroke="black" d="M 236 63 237 101"/>
<path stroke-width="1" stroke="black" d="M 237 101 257 211"/>
<path stroke-width="1" stroke="black" d="M 237 101 139 126"/>
<path stroke-width="1" stroke="black" d="M 237 101 288 147"/>
<path stroke-width="1" stroke="black" d="M 237 101 188 164"/>
<path stroke-width="1" stroke="black" d="M 140 242 163 211"/>
<path stroke-width="1" stroke="black" d="M 163 211 257 211"/>
<path stroke-width="1" stroke="black" d="M 163 211 139 126"/>
<path stroke-width="1" stroke="black" d="M 163 211 162 209"/>
<path stroke-width="1" stroke="black" d="M 163 211 230 95"/>
<path stroke-width="1" stroke="black" d="M 237 101 270 203"/>
<path stroke-width="1" stroke="black" d="M 163 211 197 98"/>
<path stroke-width="1" stroke="black" d="M 163 211 310 169"/>
<path stroke-width="1" stroke="black" d="M 163 211 125 126"/>
<path stroke-width="1" stroke="black" d="M 163 211 269 114"/>
<path stroke-width="1" stroke="black" d="M 163 211 130 158"/>
<path stroke-width="1" stroke="black" d="M 163 211 114 181"/>
<path stroke-width="1" stroke="black" d="M 163 211 270 215"/>
<path stroke-width="1" stroke="black" d="M 163 211 308 195"/>
<path stroke-width="1" stroke="black" d="M 163 211 300 124"/>
<path stroke-width="1" stroke="black" d="M 237 101 224 216"/>
<path stroke-width="1" stroke="black" d="M 237 101 174 214"/>
<path stroke-width="1" stroke="black" d="M 237 101 199 139"/>
<path stroke-width="1" stroke="black" d="M 237 101 162 209"/>
<path stroke-width="1" stroke="black" d="M 237 101 230 95"/>
<path stroke-width="1" stroke="black" d="M 237 101 197 98"/>
<path stroke-width="1" stroke="black" d="M 237 101 300 124"/>
<path stroke-width="1" stroke="black" d="M 237 101 310 169"/>
<path stroke-width="1" stroke="black" d="M 237 101 125 126"/>
<path stroke-width="1" stroke="black" d="M 237 101 269 114"/>
<path stroke-width="1" stroke="black" d="M 237 101 130 158"/>
<path stroke-width="1" stroke="black" d="M 237 101 114 181"/>
<path stroke-width="1" stroke="black" d="M 237 101 270 215"/>
<path stroke-width="1" stroke="black" d="M 237 101 308 195"/>
<path stroke-width="1" stroke="black" d="M 237 101 121 194"/>
<path stroke-width="1" stroke="black" d="M 237 101 236 63"/>
<path stroke-width="1" stroke="black" d="M 237 101 163 211"/>
<path stroke-width="1" stroke="black" d="M 237 101 141 114"/>
<path stroke-width="1" stroke="black" d="M 237 101 298 171"/>
<path stroke-width="1" stroke="black" d="M 237 101 291 121"/>
<path stroke-width="1" stroke="black" d="M 163 211 237 101"/>
<path stroke-width="1" stroke="black" d="M 291 121 298 171"/>
<path stroke-width="1" stroke="black" d="M 291 121 329 98"/>
<path stroke-width="1" stroke="black" d="M 291 121 199 139"/>
<path stroke-width="1" stroke="black" d="M 270 203 291 121"/>
<path stroke-width="1" stroke="black" d="M 270 203 199 139"/>
<path stroke-width="1" stroke="black" d="M 270 203 174 214"/>
<path stroke-width="1" stroke="black" d="M 270 203 224 216"/>
<path stroke-width="1" stroke="black" d="M 270 203 295 230"/>
<path stroke-width="1" stroke="black" d="M 270 203 288 147"/>
<path stroke-width="1" stroke="black" d="M 270 203 188 164"/>
<path stroke-width="1" stroke="black" d="M 270 203 298 171"/>
<path stroke-width="1" stroke="black" d="M 356 137 288 147"/>
<path stroke-width="1" stroke="black" d="M 288 147 139 126"/>
<path stroke-width="1" stroke="black" d="M 288 147 162 209"/>
<path stroke-width="1" stroke="black" d="M 288 147 230 95"/>
<path stroke-width="1" stroke="black" d="M 288 147 197 98"/>
<path stroke-width="1" stroke="black" d="M 288 147 300 124"/>
<path stroke-width="1" stroke="black" d="M 288 147 310 169"/>
<path stroke-width="1" stroke="black" d="M 288 147 125 126"/>
<path stroke-width="1" stroke="black" d="M 288 147 257 211"/>
<path stroke-width="1" stroke="black" d="M 288 147 269 114"/>
<path stroke-width="1" stroke="black" d="M 270 203 141 114"/>
<path stroke-width="1" stroke="black" d="M 270 203 237 101"/>
<path stroke-width="1" stroke="black" d="M 224 216 188 164"/>
<path stroke-width="1" stroke="black" d="M 295 230 270 203"/>
<path stroke-width="1" stroke="black" d="M 270 203 257 211"/>
<path stroke-width="1" stroke="black" d="M 270 203 139 126"/>
<path stroke-width="1" stroke="black" d="M 270 203 162 209"/>
<path stroke-width="1" stroke="black" d="M 270 203 230 95"/>
<path stroke-width="1" stroke="black" d="M 270 203 197 98"/>
<path stroke-width="1" stroke="black" d="M 270 203 163 211"/>
<path stroke-width="1" stroke="black" d="M 270 203 300 124"/>
<path stroke-width="1" stroke="black" d="M 270 203 125 126"/>
<path stroke-width="1" stroke="black" d="M 270 203 269 114"/>
<path stroke-width="1" stroke="black" d="M 270 203 130 158"/>
<path stroke-width="1" stroke="black" d="M 270 203 114 181"/>
<path stroke-width="1" stroke="black" d="M 270 203 270 215"/>
<path stroke-width="1" stroke="black" d="M 270 203 308 195"/>
<path stroke-width="1" stroke="black" d="M 270 203 121 194"/>
<path stroke-width="1" stroke="black" d="M 270 203 310 169"/>
<path stroke-width="1" stroke="black" d="M 288 147 130 158"/>
<path stroke-width="1" stroke="black" d="M 288 147 114 181"/>
<path stroke-width="1" stroke="black" d="M 288 147 270 215"/>
<path stroke-width="1" stroke="black" d="M 188 164 125 126"/>
<path stroke-width="1" stroke="black" d="M 188 164 269 114"/>
<path stroke-width="1" stroke="black" d="M 188 164 130 158"/>
<path stroke-width="1" stroke="black" d="M 188 164 114 181"/>
<path stroke-width="1" stroke="black" d="M 188 164 270 215"/>
<path stroke-width="1" stroke="black" d="M 188 164 308 195"/>
<path stroke-width="1" stroke="black" d="M 188 164 121 194"/>
<path stroke-width="1" stroke="black" d="M 188 164 310 169"/>
<path stroke-width="1" stroke="black" d="M 188 164 237 101"/>
<path stroke-width="1" stroke="black" d="M 188 164 141 114"/>
<path stroke-width="1" stroke="black" d="M 188 164 298 171"/>
<path stroke-width="1" stroke="black" d="M 188 164 291 121"/>
<path stroke-width="1" stroke="black" d="M 188 164 199 139"/>
<path stroke-width="1" stroke="black" d="M 188 164 174 214"/>
<path stroke-width="1" stroke="black" d="M 188 164 224 216"/>
<path stroke-width="1" stroke="black" d="M 188 164 270 203"/>
<path stroke-width="1" stroke="black" d="M 188 164 163 211"/>
<path stroke-width="1" stroke="black" d="M 188 164 300 124"/>
<path stroke-width="1" stroke="black" d="M 188 164 197 98"/>
<path stroke-width="1" stroke="black" d="M 188 164 230 95"/>
<path stroke-width="1" stroke="black" d="M 288 147 308 195"/>
<path stroke-width="1" stroke="black" d="M 288 147 121 194"/>
<path stroke-width="1" stroke="black" d="M 288 147 237 101"/>
<path stroke-width="1" stroke="black" d="M 288 147 163 211"/>
<path stroke-width="1" stroke="black" d="M 288 147 141 114"/>
<path stroke-width="1" stroke="black" d="M 288 147 298 171"/>
<path stroke-width="1" stroke="black" d="M 288 147 291 121"/>
<path stroke-width="1" stroke="black" d="M 288 147 199 139"/>
<path stroke-width="1" stroke="black" d="M 288 147 174 214"/>
<path stroke-width="1" stroke="black" d="M 288 147 224 216"/>
<path stroke-width="1" stroke="black" d="M 288 147 270 203"/>
<path stroke-width="1" stroke="black" d="M 288 147 356 137"/>
<path stroke-width="1" stroke="black" d="M 288 147 188 164"/>
<path stroke-width="1" stroke="black" d="M 240 156 188 164"/>
<path stroke-width="1" stroke="black" d="M 188 164 257 211"/>
<path stroke-width="1" stroke="black" d="M 188 164 139 126"/>
<path stroke-width="1" stroke="black" d="M 188 164 162 209"/>
<path stroke-width="1" stroke="black" d="M 224 216 288 147"/>
<path stroke-width="1" stroke="black" d="M 224 216 270 203"/>
<path stroke-width="1" stroke="black" d="M 224 216 221 247"/>
<path stroke-width="1" stroke="black" d="M 224 216 174 214"/>
<path stroke-width="1" stroke="black" d="M 199 139 163 211"/>
<path stroke-width="1" stroke="black" d="M 199 139 141 114"/>
<path stroke-width="1" stroke="black" d="M 199 139 298 171"/>
<path stroke-width="1" stroke="black" d="M 199 139 291 121"/>
<path stroke-width="1" stroke="black" d="M 199 139 175 115"/>
<path stroke-width="1" stroke="black" d="M 199 139 174 214"/>
<path stroke-width="1" stroke="black" d="M 199 139 224 216"/>
<path stroke-width="1" stroke="black" d="M 199 139 237 101"/>
<path stroke-width="1" stroke="black" d="M 199 139 270 203"/>
<path stroke-width="1" stroke="black" d="M 199 139 188 164"/>
<path stroke-width="1" stroke="black" d="M 166 244 174 214"/>
<path stroke-width="1" stroke="black" d="M 174 214 257 211"/>
<path stroke-width="1" stroke="black" d="M 174 214 139 126"/>
<path stroke-width="1" stroke="black" d="M 174 214 162 209"/>
<path stroke-width="1" stroke="black" d="M 174 214 230 95"/>
<path stroke-width="1" stroke="black" d="M 174 214 197 98"/>
<path stroke-width="1" stroke="black" d="M 199 139 288 147"/>
<path stroke-width="1" stroke="black" d="M 199 139 121 194"/>
<path stroke-width="1" stroke="black" d="M 199 139 308 195"/>
<path stroke-width="1" stroke="black" d="M 199 139 270 215"/>
<path stroke-width="1" stroke="black" d="M 291 121 174 214"/>
<path stroke-width="1" stroke="black" d="M 291 121 224 216"/>
<path stroke-width="1" stroke="black" d="M 291 121 270 203"/>
<path stroke-width="1" stroke="black" d="M 291 121 288 147"/>
<path stroke-width="1" stroke="black" d="M 291 121 188 164"/>
<path stroke-width="1" stroke="black" d="M 175 115 199 139"/>
<path stroke-width="1" stroke="black" d="M 199 139 257 211"/>
<path stroke-width="1" stroke="black" d="M 199 139 139 126"/>
<path stroke-width="1" stroke="black" d="M 199 139 162 209"/>
<path stroke-width="1" stroke="black" d="M 199 139 230 95"/>
<path stroke-width="1" stroke="black" d="M 199 139 197 98"/>
<path stroke-width="1" stroke="black" d="M 199 139 300 124"/>
<path stroke-width="1" stroke="black" d="M 199 139 310 169"/>
<path stroke-width="1" stroke="black" d="M 199 139 125 126"/>
<path stroke-width="1" stroke="black" d="M 199 139 269 114"/>
<path stroke-width="1" stroke="black" d="M 199 139 130 158"/>
<path stroke-width="1" stroke="black" d="M 199 139 114 181"/>
<path stroke-width="1" stroke="black" d="M 174 214 300 124"/>
<path stroke-width="1" stroke="black" d="M 308 195 121 194"/>
<path stroke-width="1" stroke="black" d="M 174 214 310 169"/>
<path stroke-width="1" stroke="black" d="M 174 214 269 114"/>
<path stroke-width="1" stroke="black" d="M 224 216 197 98"/>
<path stroke-width="1" stroke="black" d="M 224 216 300 124"/>
<path stroke-width="1" stroke="black" d="M 224 216 310 169"/>
<path stroke-width="1" stroke="black" d="M 224 216 125 126"/>
<path stroke-width="1" stroke="black" d="M 224 216 269 114"/>
<path stroke-width="1" stroke="black" d="M 224 216 130 158"/>
<path stroke-width="1" stroke="black" d="M 224 216 114 181"/>
<path stroke-width="1" stroke="black" d="M 224 216 230 95"/>
<path stroke-width="1" stroke="black" d="M 224 216 270 215"/>
<path stroke-width="1" stroke="black" d="M 224 216 121 194"/>
<path stroke-width="1" stroke="black" d="M 224 216 237 101"/>
<path stroke-width="1" stroke="black" d="M 224 216 163 211"/>
<path stroke-width="1" stroke="black" d="M 224 216 141 114"/>
<path stroke-width="1" stroke="black" d="M 224 216 298 171"/>
<path stroke-width="1" stroke="black" d="M 224 216 291 121"/>
<path stroke-width="1" stroke="black" d="M 224 216 199 139"/>
<path stroke-width="1" stroke="black" d="M 224 216 308 195"/>
<path stroke-width="1" stroke="black" d="M 224 216 162 209"/>
<path stroke-width="1" stroke="black" d="M 224 216 139 126"/>
<path stroke-width="1" stroke="black" d="M 224 216 257 211"/>
<path stroke-width="1" stroke="black" d="M 174 214 130 158"/>
<path stroke-width="1" stroke="black" d="M 174 214 114 181"/>
<path stroke-width="1" stroke="black" d="M 174 214 270 215"/>
<path stroke-width="1" stroke="black" d="M 174 214 308 195"/>
<path stroke-width="1" stroke="black" d="M 174 214 121 194"/>
<path stroke-width="1" stroke="black" d="M 174 214 237 101"/>
<path stroke-width="1" stroke="black" d="M 174 214 163 211"/>
<path stroke-width="1" stroke="black" d="M 174 214 141 114"/>
<path stroke-width="1" stroke="black" d="M 174 214 298 171"/>
<path stroke-width="1" stroke="black" d="M 174 214 291 121"/>
<path stroke-width="1" stroke="black" d="M 174 214 199 139"/>
<path stroke-width="1" stroke="black" d="M 174 214 166 244"/>
<path stroke-width="1" stroke="black" d="M 174 214 224 216"/>
<path stroke-width="1" stroke="black" d="M 174 214 270 203"/>
<path stroke-width="1" stroke="black" d="M 174 214 288 147"/>
<path stroke-width="1" stroke="black" d="M 174 214 188 164"/>
<path stroke-width="1" stroke="black" d="M 221 247 224 216"/>
<path stroke-width="1" stroke="black" d="M 174 214 125 126"/>
<path stroke-width="1" stroke="black" d="M 308 195 365 220"/>
<path stroke-width="1" stroke="black" d="M 308 195 270 215"/>
<path stroke-width="1" stroke="black" d="M 308 195 114 181"/>
<path stroke-width="1" stroke="black" d="M 230 95 188 164"/>
<path stroke-width="1" stroke="black" d="M 168 33 197 98"/>
<path stroke-width="1" stroke="black" d="M 197 98 257 211"/>
<path stroke-width="1" stroke="black" d="M 197 98 139 126"/>
<path stroke-width="1" stroke="black" d="M 197 98 162 209"/>
<path stroke-width="1" stroke="black" d="M 197 98 230 95"/>
<path stroke-width="1" stroke="black" d="M 197 98 168 33"/>
<path stroke-width="1" stroke="black" d="M 230 95 288 147"/>
<path stroke-width="1" stroke="black" d="M 197 98 300 124"/>
<path stroke-width="1" stroke="black" d="M 197 98 125 126"/>
<path stroke-width="1" stroke="black" d="M 197 98 269 114"/>
<path stroke-width="1" stroke="black" d="M 197 98 130 158"/>
<path stroke-width="1" stroke="black" d="M 197 98 114 181"/>
<path stroke-width="1" stroke="black" d="M 197 98 270 215"/>
<path stroke-width="1" stroke="black" d="M 197 98 308 195"/>
<path stroke-width="1" stroke="black" d="M 197 98 121 194"/>
<path stroke-width="1" stroke="black" d="M 197 98 310 169"/>
<path stroke-width="1" stroke="black" d="M 197 98 237 101"/>
<path stroke-width="1" stroke="black" d="M 230 95 270 203"/>
<path stroke-width="1" stroke="black" d="M 230 95 174 214"/>
<path stroke-width="1" stroke="black" d="M 230 95 197 98"/>
<path stroke-width="1" stroke="black" d="M 230 95 300 124"/>
<path stroke-width="1" stroke="black" d="M 230 95 310 169"/>
<path stroke-width="1" stroke="black" d="M 230 95 125 126"/>
<path stroke-width="1" stroke="black" d="M 230 95 269 114"/>
<path stroke-width="1" stroke="black" d="M 230 95 130 158"/>
<path stroke-width="1" stroke="black" d="M 230 95 114 181"/>
<path stroke-width="1" stroke="black" d="M 230 95 224 216"/>
<path stroke-width="1" stroke="black" d="M 230 95 270 215"/>
<path stroke-width="1" stroke="black" d="M 230 95 121 194"/>
<path stroke-width="1" stroke="black" d="M 230 95 237 101"/>
<path stroke-width="1" stroke="black" d="M 230 95 163 211"/>
<path stroke-width="1" stroke="black" d="M 230 95 141 114"/>
<path stroke-width="1" stroke="black" d="M 230 95 298 171"/>
<path stroke-width="1" stroke="black" d="M 230 95 291 121"/>
<path stroke-width="1" stroke="black" d="M 230 95 199 139"/>
<path stroke-width="1" stroke="black" d="M 230 95 308 195"/>
<path stroke-width="1" stroke="black" d="M 197 98 163 211"/>
<path stroke-width="1" stroke="black" d="M 197 98 141 114"/>
<path stroke-width="1" stroke="black" d="M 197 98 298 171"/>
<path stroke-width="1" stroke="black" d="M 300 124 121 194"/>
<path stroke-width="1" stroke="black" d="M 300 124 237 101"/>
<path stroke-width="1" stroke="black" d="M 300 124 163 211"/>
<path stroke-width="1" stroke="black" d="M 300 124 141 114"/>
<path stroke-width="1" stroke="black" d="M 300 124 298 171"/>
<path stroke-width="1" stroke="black" d="M 300 124 291 121"/>
<path stroke-width="1" stroke="black" d="M 300 124 199 139"/>
<path stroke-width="1" stroke="black" d="M 300 124 308 195"/>
<path stroke-width="1" stroke="black" d="M 300 124 174 214"/>
<path stroke-width="1" stroke="black" d="M 300 124 270 203"/>
<path stroke-width="1" stroke="black" d="M 300 124 288 147"/>
<path stroke-width="1" stroke="black" d="M 300 124 188 164"/>
<path stroke-width="1" stroke="black" d="M 420 176 310 169"/>
<path stroke-width="1" stroke="black" d="M 310 169 257 211"/>
<path stroke-width="1" stroke="black" d="M 310 169 139 126"/>
<path stroke-width="1" stroke="black" d="M 310 169 162 209"/>
<path stroke-width="1" stroke="black" d="M 300 124 224 216"/>
<path stroke-width="1" stroke="black" d="M 300 124 270 215"/>
<path stroke-width="1" stroke="black" d="M 300 124 114 181"/>
<path stroke-width="1" stroke="black" d="M 300 124 130 158"/>
<path stroke-width="1" stroke="black" d="M 197 98 291 121"/>
<path stroke-width="1" stroke="black" d="M 197 98 199 139"/>
<path stroke-width="1" stroke="black" d="M 197 98 174 214"/>
<path stroke-width="1" stroke="black" d="M 197 98 224 216"/>
<path stroke-width="1" stroke="black" d="M 197 98 270 203"/>
<path stroke-width="1" stroke="black" d="M 197 98 288 147"/>
<path stroke-width="1" stroke="black" d="M 197 98 188 164"/>
<path stroke-width="1" stroke="black" d="M 390 89 300 124"/>
<path stroke-width="1" stroke="black" d="M 300 124 257 211"/>
<path stroke-width="1" stroke="black" d="M 300 124 139 126"/>
<path stroke-width="1" stroke="black" d="M 300 124 162 209"/>
<path stroke-width="1" stroke="black" d="M 300 124 230 95"/>
<path stroke-width="1" stroke="black" d="M 300 124 197 98"/>
<path stroke-width="1" stroke="black" d="M 300 124 390 89"/>
<path stroke-width="1" stroke="black" d="M 300 124 310 169"/>
<path stroke-width="1" stroke="black" d="M 300 124 125 126"/>
<path stroke-width="1" stroke="black" d="M 300 124 269 114"/>
<path stroke-width="1" stroke="black" d="M 230 95 235 20"/>
<path stroke-width="1" stroke="black" d="M 230 95 162 209"/>
<path stroke-width="1" stroke="black" d="M 230 95 139 126"/>
<path stroke-width="1" stroke="black" d="M 230 95 257 211"/>
<path stroke-width="1" stroke="black" d="M 257 211 224 216"/>
<path stroke-width="1" stroke="black" d="M 257 211 270 203"/>
<path stroke-width="1" stroke="black" d="M 257 211 288 147"/>
<path stroke-width="1" stroke="black" d="M 257 211 188 164"/>
<path stroke-width="1" stroke="black" d="M 20 54 139 126"/>
<path stroke-width="1" stroke="black" d="M 139 126 257 211"/>
<path stroke-width="1" stroke="black" d="M 139 126 20 54"/>
<path stroke-width="1" stroke="black" d="M 257 211 174 214"/>
<path stroke-width="1" stroke="black" d="M 139 126 162 209"/>
<path stroke-width="1" stroke="black" d="M 139 126 197 98"/>
<path stroke-width="1" stroke="black" d="M 139 126 300 124"/>
<path stroke-width="1" stroke="black" d="M 139 126 310 169"/>
<path stroke-width="1" stroke="black" d="M 139 126 125 126"/>
<path stroke-width="1" stroke="black" d="M 139 126 269 114"/>
<path stroke-width="1" stroke="black" d="M 139 126 130 158"/>
<path stroke-width="1" stroke="black" d="M 139 126 114 181"/>
<path stroke-width="1" stroke="black" d="M 139 126 230 95"/>
<path stroke-width="1" stroke="black" d="M 257 211 199 139"/>
<path stroke-width="1" stroke="black" d="M 257 211 291 121"/>
<path stroke-width="1" stroke="black" d="M 257 211 298 171"/>
<path stroke-width="1" stroke="black" d="M 257 211 324 320"/>
<path stroke-width="1" stroke="black" d="M 257 211 139 126"/>
<path stroke-width="1" stroke="black" d="M 257 211 162 209"/>
<path stroke-width="1" stroke="black" d="M 257 211 230 95"/>
<path stroke-width="1" stroke="black" d="M 257 211 197 98"/>
<path stroke-width="1" stroke="black" d="M 257 211 300 124"/>
<path stroke-width="1" stroke="black" d="M 257 211 310 169"/>
<path stroke-width="1" stroke="black" d="M 257 211 125 126"/>
<path stroke-width="1" stroke="black" d="M 257 211 269 114"/>
<path stroke-width="1" stroke="black" d="M 257 211 130 158"/>
<path stroke-width="1" stroke="black" d="M 257 211 114 181"/>
<path stroke-width="1" stroke="black" d="M 257 211 270 215"/>
<path stroke-width="1" stroke="black" d="M 257 211 308 195"/>
<path stroke-width="1" stroke="black" d="M 257 211 121 194"/>
<path stroke-width="1" stroke="black" d="M 257 211 237 101"/>
<path stroke-width="1" stroke="black" d="M 257 211 163 211"/>
<path stroke-width="1" stroke="black" d="M 257 211 141 114"/>
<path stroke-width="1" stroke="black" d="M 139 126 270 215"/>
<path stroke-width="1" stroke="black" d="M 310 169 230 95"/>
<path stroke-width="1" stroke="black" d="M 139 126 308 195"/>
<path stroke-width="1" stroke="black" d="M 139 126 237 101"/>
<path stroke-width="1" stroke="black" d="M 162 209 114 181"/>
<path stroke-width="1" stroke="black" d="M 162 209 270 215"/>
<path stroke-width="1" stroke="black" d="M 162 209 308 195"/>
<path stroke-width="1" stroke="black" d="M 162 209 121 194"/>
<path stroke-width="1" stroke="black" d="M 162 209 237 101"/>
<path stroke-width="1" stroke="black" d="M 162 209 163 211"/>
<path stroke-width="1" stroke="black" d="M 162 209 141 114"/>
<path stroke-width="1" stroke="black" d="M 162 209 130 158"/>
<path stroke-width="1" stroke="black" d="M 162 209 298 171"/>
<path stroke-width="1" stroke="black" d="M 162 209 199 139"/>
<path stroke-width="1" stroke="black" d="M 162 209 174 214"/>
<path stroke-width="1" stroke="black" d="M 162 209 224 216"/>
<path stroke-width="1" stroke="black" d="M 162 209 270 203"/>
<path stroke-width="1" stroke="black" d="M 162 209 288 147"/>
<path stroke-width="1" stroke="black" d="M 162 209 188 164"/>
<path stroke-width="1" stroke="black" d="M 235 20 230 95"/>
<path stroke-width="1" stroke="black" d="M 162 209 291 121"/>
<path stroke-width="1" stroke="black" d="M 162 209 269 114"/>
<path stroke-width="1" stroke="black" d="M 162 209 125 126"/>
<path stroke-width="1" stroke="black" d="M 162 209 310 169"/>
<path stroke-width="1" stroke="black" d="M 139 126 163 211"/>
<path stroke-width="1" stroke="black" d="M 139 126 141 114"/>
<path stroke-width="1" stroke="black" d="M 139 126 298 171"/>
<path stroke-width="1" stroke="black" d="M 139 126 291 121"/>
<path stroke-width="1" stroke="black" d="M 139 126 199 139"/>
<path stroke-width="1" stroke="black" d="M 139 126 174 214"/>
<path stroke-width="1" stroke="black" d="M 139 126 224 216"/>
<path stroke-width="1" stroke="black" d="M 139 126 270 203"/>
<path stroke-width="1" stroke="black" d="M 139 126 288 147"/>
<path stroke-width="1" stroke="black" d="M 139 126 188 164"/>
<path stroke-width="1" stroke="black" d="M 91 285 162 209"/>
<path stroke-width="1" stroke="black" d="M 162 209 257 211"/>
<path stroke-width="1" stroke="black" d="M 162 209 139 126"/>
<path stroke-width="1" stroke="black" d="M 162 209 91 285"/>
<path stroke-width="1" stroke="black" d="M 162 209 230 95"/>
<path stroke-width="1" stroke="black" d="M 162 209 197 98"/>
<path stroke-width="1" stroke="black" d="M 162 209 300 124"/>
<path stroke-width="1" stroke="black" d="M 139 126 121 194"/>
<path stroke-width="1" stroke="black" d="M 188 164 288 147"/>
<path stroke-width="1" stroke="black" d="M 310 169 197 98"/>
<path stroke-width="1" stroke="black" d="M 310 169 420 176"/>
<path stroke-width="1" stroke="black" d="M 114 181 300 124"/>
<path stroke-width="1" stroke="black" d="M 114 181 310 169"/>
<path stroke-width="1" stroke="black" d="M 114 181 125 126"/>
<path stroke-width="1" stroke="black" d="M 114 181 269 114"/>
<path stroke-width="1" stroke="black" d="M 114 181 130 158"/>
<path stroke-width="1" stroke="black" d="M 114 181 58 197"/>
<path stroke-width="1" stroke="black" d="M 114 181 270 215"/>
<path stroke-width="1" stroke="black" d="M 114 181 197 98"/>
<path stroke-width="1" stroke="black" d="M 114 181 308 195"/>
<path stroke-width="1" stroke="black" d="M 114 181 237 101"/>
<path stroke-width="1" stroke="black" d="M 114 181 163 211"/>
<path stroke-width="1" stroke="black" d="M 114 181 141 114"/>
<path stroke-width="1" stroke="black" d="M 114 181 298 171"/>
<path stroke-width="1" stroke="black" d="M 114 181 291 121"/>
<path stroke-width="1" stroke="black" d="M 114 181 199 139"/>
<path stroke-width="1" stroke="black" d="M 114 181 174 214"/>
<path stroke-width="1" stroke="black" d="M 114 181 121 194"/>
<path stroke-width="1" stroke="black" d="M 114 181 224 216"/>
<path stroke-width="1" stroke="black" d="M 114 181 230 95"/>
<path stroke-width="1" stroke="black" d="M 114 181 139 126"/>
<path stroke-width="1" stroke="black" d="M 130 158 270 215"/>
<path stroke-width="1" stroke="black" d="M 130 158 308 195"/>
<path stroke-width="1" stroke="black" d="M 130 158 121 194"/>
<path stroke-width="1" stroke="black" d="M 130 158 237 101"/>
<path stroke-width="1" stroke="black" d="M 130 158 163 211"/>
<path stroke-width="1" stroke="black" d="M 130 158 141 114"/>
<path stroke-width="1" stroke="black" d="M 130 158 298 171"/>
<path stroke-width="1" stroke="black" d="M 114 181 162 209"/>
<path stroke-width="1" stroke="black" d="M 130 158 291 121"/>
<path stroke-width="1" stroke="black" d="M 130 158 174 214"/>
<path stroke-width="1" stroke="black" d="M 130 158 224 216"/>
<path stroke-width="1" stroke="black" d="M 130 158 270 203"/>
<path stroke-width="1" stroke="black" d="M 130 158 288 147"/>
<path stroke-width="1" stroke="black" d="M 130 158 188 164"/>
<path stroke-width="1" stroke="black" d="M 58 197 114 181"/>
<path stroke-width="1" stroke="black" d="M 114 181 257 211"/>
<path stroke-width="1" stroke="black" d="M 130 158 199 139"/>
<path stroke-width="1" stroke="black" d="M 114 181 270 203"/>
<path stroke-width="1" stroke="black" d="M 114 181 288 147"/>
<path stroke-width="1" stroke="black" d="M 114 181 188 164"/>
<path stroke-width="1" stroke="black" d="M 270 215 174 214"/>
<path stroke-width="1" stroke="black" d="M 270 215 224 216"/>
<path stroke-width="1" stroke="black" d="M 270 215 270 203"/>
<path stroke-width="1" stroke="black" d="M 270 215 288 147"/>
<path stroke-width="1" stroke="black" d="M 270 215 188 164"/>
<path stroke-width="1" stroke="black" d="M 365 220 308 195"/>
<path stroke-width="1" stroke="black" d="M 308 195 257 211"/>
<path stroke-width="1" stroke="black" d="M 270 215 199 139"/>
<path stroke-width="1" stroke="black" d="M 308 195 139 126"/>
<path stroke-width="1" stroke="black" d="M 308 195 230 95"/>
<path stroke-width="1" stroke="black" d="M 308 195 197 98"/>
<path stroke-width="1" stroke="black" d="M 308 195 300 124"/>
<path stroke-width="1" stroke="black" d="M 308 195 310 169"/>
<path stroke-width="1" stroke="black" d="M 308 195 125 126"/>
<path stroke-width="1" stroke="black" d="M 308 195 269 114"/>
<path stroke-width="1" stroke="black" d="M 308 195 130 158"/>
<path stroke-width="1" stroke="black" d="M 308 195 162 209"/>
<path stroke-width="1" stroke="black" d="M 270 215 291 121"/>
<path stroke-width="1" stroke="black" d="M 270 215 298 171"/>
<path stroke-width="1" stroke="black" d="M 270 215 141 114"/>
<path stroke-width="1" stroke="black" d="M 300 256 270 215"/>
<path stroke-width="1" stroke="black" d="M 270 215 257 211"/>
<path stroke-width="1" stroke="black" d="M 270 215 139 126"/>
<path stroke-width="1" stroke="black" d="M 270 215 162 209"/>
<path stroke-width="1" stroke="black" d="M 270 215 230 95"/>
<path stroke-width="1" stroke="black" d="M 270 215 197 98"/>
<path stroke-width="1" stroke="black" d="M 270 215 300 124"/>
<path stroke-width="1" stroke="black" d="M 270 215 310 169"/>
<path stroke-width="1" stroke="black" d="M 270 215 125 126"/>
<path stroke-width="1" stroke="black" d="M 270 215 269 114"/>
<path stroke-width="1" stroke="black" d="M 270 215 130 158"/>
<path stroke-width="1" stroke="black" d="M 270 215 114 181"/>
<path stroke-width="1" stroke="black" d="M 270 215 300 256"/>
<path stroke-width="1" stroke="black" d="M 270 215 308 195"/>
<path stroke-width="1" stroke="black" d="M 270 215 121 194"/>
<path stroke-width="1" stroke="black" d="M 270 215 237 101"/>
<path stroke-width="1" stroke="black" d="M 270 215 163 211"/>
<path stroke-width="1" stroke="black" d="M 130 158 114 181"/>
<path stroke-width="1" stroke="black" d="M 130 158 41 158"/>
<path stroke-width="1" stroke="black" d="M 130 158 269 114"/>
<path stroke-width="1" stroke="black" d="M 130 158 125 126"/>
<path stroke-width="1" stroke="black" d="M 125 126 162 209"/>
<path stroke-width="1" stroke="black" d="M 125 126 230 95"/>
<path stroke-width="1" stroke="black" d="M 125 126 197 98"/>
<path stroke-width="1" stroke="black" d="M 125 126 300 124"/>
<path stroke-width="1" stroke="black" d="M 125 126 310 169"/>
<path stroke-width="1" stroke="black" d="M 125 126 69 96"/>
<path stroke-width="1" stroke="black" d="M 125 126 269 114"/>
<path stroke-width="1" stroke="black" d="M 125 126 139 126"/>
<path stroke-width="1" stroke="black" d="M 125 126 130 158"/>
<path stroke-width="1" stroke="black" d="M 125 126 270 215"/>
<path stroke-width="1" stroke="black" d="M 125 126 308 195"/>
<path stroke-width="1" stroke="black" d="M 125 126 121 194"/>
<path stroke-width="1" stroke="black" d="M 125 126 237 101"/>
<path stroke-width="1" stroke="black" d="M 125 126 163 211"/>
<path stroke-width="1" stroke="black" d="M 125 126 141 114"/>
<path stroke-width="1" stroke="black" d="M 125 126 298 171"/>
<path stroke-width="1" stroke="black" d="M 125 126 114 181"/>
<path stroke-width="1" stroke="black" d="M 125 126 257 211"/>
<path stroke-width="1" stroke="black" d="M 69 96 125 126"/>
<path stroke-width="1" stroke="black" d="M 310 169 188 164"/>
<path stroke-width="1" stroke="black" d="M 310 169 125 126"/>
<path stroke-width="1" stroke="black" d="M 310 169 269 114"/>
<path stroke-width="1" stroke="black" d="M 310 169 130 158"/>
<path stroke-width="1" stroke="black" d="M 310 169 114 181"/>
<path stroke-width="1" stroke="black" d="M 310 169 270 215"/>
<path stroke-width="1" stroke="black" d="M 310 169 308 195"/>
<path stroke-width="1" stroke="black" d="M 310 169 121 194"/>
<path stroke-width="1" stroke="black" d="M 310 169 237 101"/>
<path stroke-width="1" stroke="black" d="M 310 169 163 211"/>
<path stroke-width="1" stroke="black" d="M 310 169 141 114"/>
<path stroke-width="1" stroke="black" d="M 310 169 298 171"/>
<path stroke-width="1" stroke="black" d="M 310 169 291 121"/>
<path stroke-width="1" stroke="black" d="M 310 169 199 139"/>
<path stroke-width="1" stroke="black" d="M 310 169 174 214"/>
<path stroke-width="1" stroke="black" d="M 310 169 224 216"/>
<path stroke-width="1" stroke="black" d="M 310 169 270 203"/>
<path stroke-width="1" stroke="black" d="M 310 169 288 147"/>
<path stroke-width="1" stroke="black" d="M 125 126 291 121"/>
<path stroke-width="1" stroke="black" d="M 310 169 300 124"/>
<path stroke-width="1" stroke="black" d="M 125 126 199 139"/>
<path stroke-width="1" stroke="black" d="M 125 126 224 216"/>
<path stroke-width="1" stroke="black" d="M 269 114 298 171"/>
<path stroke-width="1" stroke="black" d="M 269 114 291 121"/>
<path stroke-width="1" stroke="black" d="M 269 114 199 139"/>
<path stroke-width="1" stroke="black" d="M 269 114 174 214"/>
<path stroke-width="1" stroke="black" d="M 269 114 224 216"/>
<path stroke-width="1" stroke="black" d="M 269 114 270 203"/>
<path stroke-width="1" stroke="black" d="M 269 114 288 147"/>
<path stroke-width="1" stroke="black" d="M 269 114 141 114"/>
<path stroke-width="1" stroke="black" d="M 269 114 188 164"/>
<path stroke-width="1" stroke="black" d="M 130 158 257 211"/>
<path stroke-width="1" stroke="black" d="M 130 158 139 126"/>
<path stroke-width="1" stroke="black" d="M 130 158 162 209"/>
<path stroke-width="1" stroke="black" d="M 130 158 230 95"/>
<path stroke-width="1" stroke="black" d="M 130 158 197 98"/>
<path stroke-width="1" stroke="black" d="M 130 158 300 124"/>
<path stroke-width="1" stroke="black" d="M 130 158 310 169"/>
<path stroke-width="1" stroke="black" d="M 41 158 130 158"/>
<path stroke-width="1" stroke="black" d="M 269 114 163 211"/>
<path stroke-width="1" stroke="black" d="M 269 114 237 101"/>
<path stroke-width="1" stroke="black" d="M 269 114 121 194"/>
<path stroke-width="1" stroke="black" d="M 125 126 270 203"/>
<path stroke-width="1" stroke="black" d="M 125 126 288 147"/>
<path stroke-width="1" stroke="black" d="M 125 126 188 164"/>
<path stroke-width="1" stroke="black" d="M 303 72 269 114"/>
<path stroke-width="1" stroke="black" d="M 269 114 257 211"/>
<path stroke-width="1" stroke="black" d="M 269 114 139 126"/>
<path stroke-width="1" stroke="black" d="M 269 114 162 209"/>
<path stroke-width="1" stroke="black" d="M 269 114 230 95"/>
<path stroke-width="1" stroke="black" d="M 269 114 197 98"/>
<path stroke-width="1" stroke="black" d="M 269 114 300 124"/>
<path stroke-width="1" stroke="black" d="M 269 114 310 169"/>
<path stroke-width="1" stroke="black" d="M 269 114 125 126"/>
<path stroke-width="1" stroke="black" d="M 269 114 303 72"/>
<path stroke-width="1" stroke="black" d="M 269 114 130 158"/>
<path stroke-width="1" stroke="black" d="M 269 114 114 181"/>
<path stroke-width="1" stroke="black" d="M 269 114 270 215"/>
<path stroke-width="1" stroke="black" d="M 269 114 308 195"/>
<path stroke-width="1" stroke="black" d="M 125 126 174 214"/>
<path stroke-width="1" stroke="black" d="M 188 164 240 156"/>
<circle cx="324" cy="320" r="7.0" style="fill:gray;stroke:black;stroke-width:1.0"/>
<circle cx="257" cy="211" r="7.0" style="fill:gray;stroke:black;stroke-width:1.0"/>
<circle cx="20" cy="54" r="7.0" style="fill:gray;stroke:black;stroke-width:1.0"/>
<circle cx="139" cy="126" r="7.0" style="fill:gray;stroke:black;stroke-width:1.0"/>
<circle cx="91" cy="285" r="7.0" style="fill:gray;stroke:black;stroke-width:1.0"/>
<circle cx="162" cy="209" r="7.0" style="fill:gray;stroke:black;stroke-width:1.0"/>
<circle cx="235" cy="20" r="7.0" style="fill:gray;stroke:black;stroke-width:1.0"/>
<circle cx="230" cy="95" r="7.0" style="fill:gray;stroke:black;stroke-width:1.0"/>
<circle cx="168" cy="33" r="7.0" style="fill:gray;stroke:black;stroke-width:1.0"/>
<circle cx="197" cy="98" r="7.0" style="fill:gray;stroke:black;stroke-width:1.0"/>
<circle cx="390" cy="89" r="7.0" style="fill:gray;stroke:black;stroke-width:1.0"/>
<circle cx="300" cy="124" r="7.0" style="fill:gray;stroke:black;stroke-width:1.0"/>
<circle cx="420" cy="176" r="7.0" style="fill:gray;stroke:black;stroke-width:1.0"/>
<circle cx="310" cy="169" r="7.0" style="fill:gray;stroke:black;stroke-width:1.0"/>
<circle cx="69" cy="96" r="7.0" style="fill:gray;stroke:black;stroke-width:1.0"/>
<circle cx="125" cy="126" r="7.0" style="fill:gray;stroke:black;stroke-width:1.0"/>
<circle cx="303" cy="72" r="7.0" style="fill:gray;stroke:black;stroke-width:1.0"/>
<circle cx="269" cy="114" r="7.0" style="fill:gray;stroke:black;stroke-width:1.0"/>
<circle cx="41" cy="158" r="7.0" style="fill:gray;stroke:black;stroke-width:1.0"/>
<circle cx="130" cy="158" r="7.0" style="fill:gray;stroke:black;stroke-width:1.0"/>
<circle cx="58" cy="197" r="7.0" style="fill:gray;stroke:black;stroke-width:1.0"/>
<circle cx="114" cy="181" r="7.0" style="fill:gray;stroke:black;stroke-width:1.0"/>
<circle cx="300" cy="256" r="7.0" style="fill:gray;stroke:black;stroke-width:1.0"/>
<circle cx="270" cy="215" r="7.0" style="fill:gray;stroke:black;stroke-width:1.0"/>
<circle cx="365" cy="220" r="7.0" style="fill:gray;stroke:black;stroke-width:1.0"/>
<circle cx="308" cy="195" r="7.0" style="fill:gray;stroke:black;stroke-width:1.0"/>
<circle cx="88" cy="218" r="7.0" style="fill:gray;stroke:black;stroke-width:1.0"/>
<circle cx="121" cy="194" r="7.0" style="fill:gray;stroke:black;stroke-width:1.0"/>
<circle cx="236" cy="63" r="7.0" style="fill:gray;stroke:black;stroke-width:1.0"/>
<circle cx="237" cy="101" r="7.0" style="fill:gray;stroke:black;stroke-width:1.0"/>
<circle cx="140" cy="242" r="7.0" style="fill:gray;stroke:black;stroke-width:1.0"/>
<circle cx="163" cy="211" r="7.0" style="fill:gray;stroke:black;stroke-width:1.0"/>
<circle cx="120" cy="87" r="7.0" style="fill:gray;stroke:black;stroke-width:1.0"/>
<circle cx="141" cy="114" r="7.0" style="fill:gray;stroke:black;stroke-width:1.0"/>
<circle cx="372" cy="178" r="7.0" style="fill:gray;stroke:black;stroke-width:1.0"/>
<circle cx="298" cy="171" r="7.0" style="fill:gray;stroke:black;stroke-width:1.0"/>
<circle cx="329" cy="98" r="7.0" style="fill:gray;stroke:black;stroke-width:1.0"/>
<circle cx="291" cy="121" r="7.0" style="fill:gray;stroke:black;stroke-width:1.0"/>
<circle cx="175" cy="115" r="7.0" style="fill:gray;stroke:black;stroke-width:1.0"/>
<circle cx="199" cy="139" r="7.0" style="fill:gray;stroke:black;stroke-width:1.0"/>
<circle cx="166" cy="244" r="7.0" style="fill:gray;stroke:black;stroke-width:1.0"/>
<circle cx="174" cy="214" r="7.0" style="fill:gray;stroke:black;stroke-width:1.0"/>
<circle cx="221" cy="247" r="7.0" style="fill:gray;stroke:black;stroke-width:1.0"/>
<circle cx="224" cy="216" r="7.0" style="fill:gray;stroke:black;stroke-width:1.0"/>
<circle cx="295" cy="230" r="7.0" style="fill:gray;stroke:black;stroke-width:1.0"/>
<circle cx="270" cy="203" r="7.0" style="fill:gray;stroke:black;stroke-width:1.0"/>
<circle cx="356" cy="137" r="7.0" style="fill:gray;stroke:black;stroke-width:1.0"/>
<circle cx="288" cy="147" r="7.0" style="fill:gray;stroke:black;stroke-width:1.0"/>
<circle cx="240" cy="156" r="7.0" style="fill:gray;stroke:black;stroke-width:1.0"/>
<circle cx="188" cy="164" r="7.0" style="fill:gray;stroke:black;stroke-width:1.0"/>
</svg>
