<svg width="440" height="340" xmlns="http://www.w3.org/2000/svg">
<path stroke-width="1.5051546391752577" stroke="black" d="M 239 320 231 186"/>
<path stroke-width="0.5" stroke="black" d="M 264 72 168 83"/>
<path stroke-width="0.5" stroke="black" d="M 264 72 280 141"/>
<path stroke-width="0.5" stroke="black" d="M 264 72 217 67"/>
<path stroke-width="0.5" stroke="black" d="M 264 72 170 106"/>
<path stroke-width="0.5" stroke="black" d="M 264 72 236 73"/>
<path stroke-width="13.969072164948454" stroke="black" d="M 264 72 279 45"/>
<path stroke-width="0.5" stroke="black" d="M 264 72 241 155"/>
<path stroke-width="0.5" stroke="black" d="M 264 72 205 60"/>
<path stroke-width="0.5" stroke="black" d="M 264 72 167 133"/>
<path stroke-width="0.5" stroke="black" d="M 264 72 205 141"/>
<path stroke-width="0.5" stroke="black" d="M 264 72 268 82"/>
<path stroke-width="0.5" stroke="black" d="M 264 72 217 130"/>
<path stroke-width="0.5" stroke="black" d="M 264 72 201 86"/>
<path stroke-width="0.5" stroke="black" d="M 264 72 222 100"/>
<path stroke-width="14.77319587628866" stroke="black" d="M 248 182 241 155"/>
<path stroke-width="0.5" stroke="black" d="M 241 155 231 186"/>
<path stroke-width="0.5" stroke="black" d="M 264 72 183 79"/>
<path stroke-width="0.5" stroke="black" d="M 241 155 299 125"/>
<path stroke-width="0.5" stroke="black" d="M 264 72 189 156"/>
<path stroke-width="0.5" stroke="black" d="M 264 72 254 62"/>
<path stroke-width="0.5" stroke="black" d="M 236 73 241 155"/>
<path stroke-width="0.5" stroke="black" d="M 236 73 167 133"/>
<path stroke-width="0.5" stroke="black" d="M 236 73 183 79"/>
<path stroke-width="0.5" stroke="black" d="M 236 73 205 141"/>
<path stroke-width="0.5" stroke="black" d="M 236 73 268 82"/>
<path stroke-width="0.5" stroke="black" d="M 236 73 217 130"/>
<path stroke-width="0.5" stroke="black" d="M 236 73 201 86"/>
<path stroke-width="0.5" stroke="black" d="M 264 72 253 142"/>
<path stroke-width="0.5" stroke="black" d="M 236 73 222 100"/>
<path stroke-width="0.5" stroke="black" d="M 264 72 231 186"/>
<path stroke-width="0.5" stroke="black" d="M 264 72 299 125"/>
<path stroke-width="0.5" stroke="black" d="M 264 72 136 109"/>
<path stroke-width="0.5" stroke="black" d="M 264 72 319 121"/>
<path stroke-width="0.5" stroke="black" d="M 264 72 224 168"/>
<path stroke-width="0.5" stroke="black" d="M 264 72 302 111"/>
<path stroke-width="0.5" stroke="black" d="M 264 72 275 103"/>
<path stroke-width="13.969072164948454" stroke="black" d="M 279 45 264 72"/>
<path stroke-width="0.5" stroke="black" d="M 241 155 136 109"/>
<path stroke-width="0.5" stroke="black" d="M 241 155 319 121"/>
<path stroke-width="0.5" stroke="black" d="M 241 155 224 168"/>
<path stroke-width="0.5" stroke="black" d="M 167 133 231 186"/>
<path stroke-width="0.5" stroke="black" d="M 167 133 299 125"/>
<path stroke-width="0.5" stroke="black" d="M 167 133 136 109"/>
<path stroke-width="0.5" stroke="black" d="M 167 133 319 121"/>
<path stroke-width="0.5" stroke="black" d="M 167 133 224 168"/>
<path stroke-width="0.5" stroke="black" d="M 167 133 302 111"/>
<path stroke-width="0.5" stroke="black" d="M 167 133 275 103"/>
<path stroke-width="15.577319587628866" stroke="black" d="M 132 146 167 133"/>
<path stroke-width="0.5" stroke="black" d="M 167 133 254 62"/>
<path stroke-width="0.5" stroke="black" d="M 167 133 189 156"/>
<path stroke-width="0.5" stroke="black" d="M 167 133 205 60"/>
<path stroke-width="0.5" stroke="black" d="M 167 133 168 83"/>
<path stroke-width="0.5" stroke="black" d="M 167 133 280 141"/>
<path stroke-width="0.5" stroke="black" d="M 167 133 217 67"/>
<path stroke-width="0.5" stroke="black" d="M 167 133 170 106"/>
<path stroke-width="0.5" stroke="black" d="M 167 133 236 73"/>
<path stroke-width="0.5" stroke="black" d="M 167 133 253 142"/>
<path stroke-width="0.5" stroke="black" d="M 241 155 222 100"/>
<path stroke-width="0.5" stroke="black" d="M 241 155 201 86"/>
<path stroke-width="0.5" stroke="black" d="M 241 155 217 130"/>
<path stroke-width="0.5" stroke="black" d="M 241 155 302 111"/>
<path stroke-width="0.5" stroke="black" d="M 241 155 275 103"/>
<path stroke-width="0.5" stroke="black" d="M 241 155 254 62"/>
<path stroke-width="0.5" stroke="black" d="M 241 155 253 142"/>
<path stroke-width="0.5" stroke="black" d="M 241 155 189 156"/>
<path stroke-width="0.5" stroke="black" d="M 241 155 205 60"/>
<path stroke-width="0.5" stroke="black" d="M 241 155 168 83"/>
<path stroke-width="0.5" stroke="black" d="M 241 155 280 141"/>
<path stroke-width="0.5" stroke="black" d="M 241 155 217 67"/>
<path stroke-width="0.5" stroke="black" d="M 241 155 170 106"/>
<path stroke-width="0.5" stroke="black" d="M 241 155 236 73"/>
<path stroke-width="0.5" stroke="black" d="M 241 155 264 72"/>
<path stroke-width="14.77319587628866" stroke="black" d="M 241 155 248 182"/>
<path stroke-width="0.5" stroke="black" d="M 241 155 167 133"/>
<path stroke-width="0.5" stroke="black" d="M 241 155 183 79"/>
<path stroke-width="0.5" stroke="black" d="M 241 155 205 141"/>
<path stroke-width="0.5" stroke="black" d="M 241 155 268 82"/>
<path stroke-width="0.5" stroke="black" d="M 236 73 264 72"/>
<path stroke-width="0.5" stroke="black" d="M 167 133 264 72"/>
<path stroke-width="13.164948453608247" stroke="black" d="M 236 73 238 46"/>
<path stroke-width="0.5" stroke="black" d="M 236 73 217 67"/>
<path stroke-width="0.5" stroke="black" d="M 217 67 253 142"/>
<path stroke-width="0.5" stroke="black" d="M 217 67 189 156"/>
<path stroke-width="0.5" stroke="black" d="M 217 67 205 60"/>
<path stroke-width="0.5" stroke="black" d="M 217 67 168 83"/>
<path stroke-width="0.5" stroke="black" d="M 217 67 280 141"/>
<path stroke-width="11.556701030927835" stroke="black" d="M 217 67 209 36"/>
<path stroke-width="0.5" stroke="black" d="M 217 67 170 106"/>
<path stroke-width="0.5" stroke="black" d="M 217 67 254 62"/>
<path stroke-width="0.5" stroke="black" d="M 217 67 236 73"/>
<path stroke-width="0.5" stroke="black" d="M 217 67 241 155"/>
<path stroke-width="0.5" stroke="black" d="M 217 67 167 133"/>
<path stroke-width="0.5" stroke="black" d="M 217 67 183 79"/>
<path stroke-width="0.5" stroke="black" d="M 217 67 205 141"/>
<path stroke-width="0.5" stroke="black" d="M 217 67 268 82"/>
<path stroke-width="0.5" stroke="black" d="M 217 67 217 130"/>
<path stroke-width="0.5" stroke="black" d="M 217 67 201 86"/>
<path stroke-width="0.5" stroke="black" d="M 217 67 264 72"/>
<path stroke-width="0.5" stroke="black" d="M 217 67 222 100"/>
<path stroke-width="0.5" stroke="black" d="M 217 67 275 103"/>
<path stroke-width="0.5" stroke="black" d="M 217 67 224 168"/>
<path stroke-width="0.5" stroke="black" d="M 280 141 170 106"/>
<path stroke-width="0.5" stroke="black" d="M 280 141 236 73"/>
<path stroke-width="0.5" stroke="black" d="M 280 141 264 72"/>
<path stroke-width="0.5" stroke="black" d="M 280 141 241 155"/>
<path stroke-width="0.5" stroke="black" d="M 280 141 167 133"/>
<path stroke-width="0.5" stroke="black" d="M 280 141 183 79"/>
<path stroke-width="0.5" stroke="black" d="M 280 141 205 141"/>
<path stroke-width="0.5" stroke="black" d="M 217 67 302 111"/>
<path stroke-width="0.5" stroke="black" d="M 280 141 268 82"/>
<path stroke-width="0.5" stroke="black" d="M 280 141 201 86"/>
<path stroke-width="0.5" stroke="black" d="M 280 141 222 100"/>
<path stroke-width="11.556701030927835" stroke="black" d="M 209 36 217 67"/>
<path stroke-width="0.5" stroke="black" d="M 217 67 231 186"/>
<path stroke-width="0.5" stroke="black" d="M 217 67 299 125"/>
<path stroke-width="0.5" stroke="black" d="M 217 67 136 109"/>
<path stroke-width="0.5" stroke="black" d="M 217 67 319 121"/>
<path stroke-width="0.5" stroke="black" d="M 280 141 217 130"/>
<path stroke-width="12.360824742268042" stroke="black" d="M 131 95 170 106"/>
<path stroke-width="0.5" stroke="black" d="M 170 106 231 186"/>
<path stroke-width="0.5" stroke="black" d="M 170 106 299 125"/>
<path stroke-width="0.5" stroke="black" d="M 170 106 201 86"/>
<path stroke-width="0.5" stroke="black" d="M 170 106 222 100"/>
<path stroke-width="13.164948453608247" stroke="black" d="M 238 46 236 73"/>
<path stroke-width="0.5" stroke="black" d="M 236 73 231 186"/>
<path stroke-width="0.5" stroke="black" d="M 236 73 299 125"/>
<path stroke-width="0.5" stroke="black" d="M 236 73 136 109"/>
<path stroke-width="0.5" stroke="black" d="M 236 73 319 121"/>
<path stroke-width="0.5" stroke="black" d="M 170 106 217 130"/>
<path stroke-width="0.5" stroke="black" d="M 236 73 224 168"/>
<path stroke-width="0.5" stroke="black" d="M 236 73 275 103"/>
<path stroke-width="0.5" stroke="black" d="M 236 73 254 62"/>
<path stroke-width="0.5" stroke="black" d="M 236 73 253 142"/>
<path stroke-width="0.5" stroke="black" d="M 236 73 189 156"/>
<path stroke-width="0.5" stroke="black" d="M 236 73 205 60"/>
<path stroke-width="0.5" stroke="black" d="M 236 73 168 83"/>
<path stroke-width="0.5" stroke="black" d="M 236 73 280 141"/>
<path stroke-width="0.5" stroke="black" d="M 236 73 302 111"/>
<path stroke-width="0.5" stroke="black" d="M 170 106 268 82"/>
<path stroke-width="0.5" stroke="black" d="M 170 106 205 141"/>
<path stroke-width="0.5" stroke="black" d="M 170 106 183 79"/>
<path stroke-width="0.5" stroke="black" d="M 170 106 136 109"/>
<path stroke-width="0.5" stroke="black" d="M 170 106 319 121"/>
<path stroke-width="0.5" stroke="black" d="M 170 106 224 168"/>
<path stroke-width="0.5" stroke="black" d="M 170 106 302 111"/>
<path stroke-width="0.5" stroke="black" d="M 170 106 275 103"/>
<path stroke-width="0.5" stroke="black" d="M 170 106 254 62"/>
<path stroke-width="0.5" stroke="black" d="M 170 106 253 142"/>
<path stroke-width="0.5" stroke="black" d="M 170 106 189 156"/>
<path stroke-width="0.5" stroke="black" d="M 170 106 205 60"/>
<path stroke-width="0.5" stroke="black" d="M 170 106 168 83"/>
<path stroke-width="0.5" stroke="black" d="M 170 106 280 141"/>
<path stroke-width="0.5" stroke="black" d="M 170 106 217 67"/>
<path stroke-width="12.360824742268042" stroke="black" d="M 170 106 131 95"/>
<path stroke-width="0.5" stroke="black" d="M 170 106 236 73"/>
<path stroke-width="0.5" stroke="black" d="M 170 106 264 72"/>
<path stroke-width="0.5" stroke="black" d="M 170 106 241 155"/>
<path stroke-width="0.5" stroke="black" d="M 170 106 167 133"/>
<path stroke-width="0.5" stroke="black" d="M 236 73 170 106"/>
<path stroke-width="0.5" stroke="black" d="M 167 133 241 155"/>
<path stroke-width="15.577319587628866" stroke="black" d="M 167 133 132 146"/>
<path stroke-width="0.5" stroke="black" d="M 167 133 183 79"/>
<path stroke-width="0.5" stroke="black" d="M 217 130 167 133"/>
<path stroke-width="0.5" stroke="black" d="M 217 130 183 79"/>
<path stroke-width="0.5" stroke="black" d="M 217 130 205 141"/>
<path stroke-width="0.5" stroke="black" d="M 217 130 268 82"/>
<path stroke-width="18.79381443298969" stroke="black" d="M 217 130 239 129"/>
<path stroke-width="0.5" stroke="black" d="M 217 130 201 86"/>
<path stroke-width="0.5" stroke="black" d="M 217 130 222 100"/>
<path stroke-width="0.5" stroke="black" d="M 217 130 241 155"/>
<path stroke-width="19.195876288659793" stroke="black" d="M 187 67 201 86"/>
<path stroke-width="0.5" stroke="black" d="M 201 86 299 125"/>
<path stroke-width="0.5" stroke="black" d="M 201 86 136 109"/>
<path stroke-width="0.5" stroke="black" d="M 201 86 319 121"/>
<path stroke-width="0.5" stroke="black" d="M 201 86 224 168"/>
<path stroke-width="0.5" stroke="black" d="M 201 86 302 111"/>
<path stroke-width="0.5" stroke="black" d="M 201 86 275 103"/>
<path stroke-width="0.5" stroke="black" d="M 201 86 254 62"/>
<path stroke-width="0.5" stroke="black" d="M 201 86 231 186"/>
<path stroke-width="0.5" stroke="black" d="M 201 86 253 142"/>
<path stroke-width="0.5" stroke="black" d="M 217 130 264 72"/>
<path stroke-width="0.5" stroke="black" d="M 217 130 170 106"/>
<path stroke-width="0.5" stroke="black" d="M 268 82 222 100"/>
<path stroke-width="18.79381443298969" stroke="black" d="M 239 129 217 130"/>
<path stroke-width="0.5" stroke="black" d="M 217 130 231 186"/>
<path stroke-width="0.5" stroke="black" d="M 217 130 299 125"/>
<path stroke-width="0.5" stroke="black" d="M 217 130 136 109"/>
<path stroke-width="0.5" stroke="black" d="M 217 130 319 121"/>
<path stroke-width="0.5" stroke="black" d="M 217 130 224 168"/>
<path stroke-width="0.5" stroke="black" d="M 217 130 236 73"/>
<path stroke-width="0.5" stroke="black" d="M 217 130 302 111"/>
<path stroke-width="0.5" stroke="black" d="M 217 130 254 62"/>
<path stroke-width="0.5" stroke="black" d="M 217 130 253 142"/>
<path stroke-width="0.5" stroke="black" d="M 217 130 189 156"/>
<path stroke-width="0.5" stroke="black" d="M 217 130 205 60"/>
<path stroke-width="0.5" stroke="black" d="M 217 130 168 83"/>
<path stroke-width="0.5" stroke="black" d="M 217 130 280 141"/>
<path stroke-width="0.5" stroke="black" d="M 217 130 217 67"/>
<path stroke-width="0.5" stroke="black" d="M 217 130 275 103"/>
<path stroke-width="0.5" stroke="black" d="M 201 86 189 156"/>
<path stroke-width="0.5" stroke="black" d="M 201 86 205 60"/>
<path stroke-width="0.5" stroke="black" d="M 201 86 168 83"/>
<path stroke-width="0.5" stroke="black" d="M 222 100 254 62"/>
<path stroke-width="0.5" stroke="black" d="M 222 100 253 142"/>
<path stroke-width="0.5" stroke="black" d="M 222 100 189 156"/>
<path stroke-width="0.5" stroke="black" d="M 222 100 205 60"/>
<path stroke-width="0.5" stroke="black" d="M 222 100 168 83"/>
<path stroke-width="0.5" stroke="black" d="M 222 100 280 141"/>
<path stroke-width="0.5" stroke="black" d="M 222 100 217 67"/>
<path stroke-width="0.5" stroke="black" d="M 222 100 275 103"/>
<path stroke-width="0.5" stroke="black" d="M 222 100 170 106"/>
<path stroke-width="0.5" stroke="black" d="M 222 100 264 72"/>
<path stroke-width="0.5" stroke="black" d="M 222 100 241 155"/>
<path stroke-width="0.5" stroke="black" d="M 222 100 167 133"/>
<path stroke-width="0.5" stroke="black" d="M 222 100 183 79"/>
<path stroke-width="0.5" stroke="black" d="M 222 100 205 141"/>
<path stroke-width="0.5" stroke="black" d="M 222 100 268 82"/>
<path stroke-width="0.5" stroke="black" d="M 222 100 217 130"/>
<path stroke-width="0.5" stroke="black" d="M 222 100 236 73"/>
<path stroke-width="0.5" stroke="black" d="M 222 100 302 111"/>
<path stroke-width="0.5" stroke="black" d="M 222 100 224 168"/>
<path stroke-width="0.5" stroke="black" d="M 222 100 319 121"/>
<path stroke-width="0.5" stroke="black" d="M 201 86 280 141"/>
<path stroke-width="0.5" stroke="black" d="M 201 86 217 67"/>
<path stroke-width="0.5" stroke="black" d="M 201 86 170 106"/>
<path stroke-width="0.5" stroke="black" d="M 201 86 236 73"/>
<path stroke-width="0.5" stroke="black" d="M 201 86 264 72"/>
<path stroke-width="0.5" stroke="black" d="M 201 86 241 155"/>
<path stroke-width="0.5" stroke="black" d="M 201 86 167 133"/>
<path stroke-width="0.5" stroke="black" d="M 201 86 183 79"/>
<path stroke-width="0.5" stroke="black" d="M 201 86 205 141"/>
<path stroke-width="0.5" stroke="black" d="M 201 86 268 82"/>
<path stroke-width="0.5" stroke="black" d="M 201 86 217 130"/>
<path stroke-width="19.195876288659793" stroke="black" d="M 201 86 187 67"/>
<path stroke-width="0.5" stroke="black" d="M 201 86 222 100"/>
<path stroke-width="20.0" stroke="black" d="M 218 86 222 100"/>
<path stroke-width="0.5" stroke="black" d="M 222 100 231 186"/>
<path stroke-width="0.5" stroke="black" d="M 222 100 299 125"/>
<path stroke-width="0.5" stroke="black" d="M 222 100 136 109"/>
<path stroke-width="0.5" stroke="black" d="M 268 82 201 86"/>
<path stroke-width="0.5" stroke="black" d="M 268 82 217 130"/>
<path stroke-width="17.989690721649485" stroke="black" d="M 268 82 285 62"/>
<path stroke-width="0.5" stroke="black" d="M 268 82 205 141"/>
<path stroke-width="0.5" stroke="black" d="M 183 79 236 73"/>
<path stroke-width="0.5" stroke="black" d="M 183 79 264 72"/>
<path stroke-width="0.5" stroke="black" d="M 183 79 241 155"/>
<path stroke-width="0.5" stroke="black" d="M 183 79 167 133"/>
<path stroke-width="16.381443298969074" stroke="black" d="M 183 79 162 57"/>
<path stroke-width="0.5" stroke="black" d="M 183 79 205 141"/>
<path stroke-width="0.5" stroke="black" d="M 183 79 268 82"/>
<path stroke-width="0.5" stroke="black" d="M 183 79 170 106"/>
<path stroke-width="0.5" stroke="black" d="M 183 79 217 130"/>
<path stroke-width="0.5" stroke="black" d="M 183 79 222 100"/>
<path stroke-width="17.185567010309278" stroke="black" d="M 192 161 205 141"/>
<path stroke-width="0.5" stroke="black" d="M 205 141 231 186"/>
<path stroke-width="0.5" stroke="black" d="M 205 141 299 125"/>
<path stroke-width="0.5" stroke="black" d="M 205 141 136 109"/>
<path stroke-width="0.5" stroke="black" d="M 205 141 319 121"/>
<path stroke-width="0.5" stroke="black" d="M 205 141 224 168"/>
<path stroke-width="0.5" stroke="black" d="M 183 79 201 86"/>
<path stroke-width="0.5" stroke="black" d="M 183 79 217 67"/>
<path stroke-width="0.5" stroke="black" d="M 183 79 280 141"/>
<path stroke-width="0.5" stroke="black" d="M 183 79 168 83"/>
<path stroke-width="0.5" stroke="black" d="M 167 133 205 141"/>
<path stroke-width="0.5" stroke="black" d="M 167 133 268 82"/>
<path stroke-width="0.5" stroke="black" d="M 167 133 217 130"/>
<path stroke-width="0.5" stroke="black" d="M 167 133 201 86"/>
<path stroke-width="0.5" stroke="black" d="M 167 133 222 100"/>
<path stroke-width="16.381443298969074" stroke="black" d="M 162 57 183 79"/>
<path stroke-width="0.5" stroke="black" d="M 183 79 231 186"/>
<path stroke-width="0.5" stroke="black" d="M 183 79 299 125"/>
<path stroke-width="0.5" stroke="black" d="M 183 79 136 109"/>
<path stroke-width="0.5" stroke="black" d="M 183 79 319 121"/>
<path stroke-width="0.5" stroke="black" d="M 183 79 224 168"/>
<path stroke-width="0.5" stroke="black" d="M 183 79 302 111"/>
<path stroke-width="0.5" stroke="black" d="M 183 79 275 103"/>
<path stroke-width="0.5" stroke="black" d="M 183 79 254 62"/>
<path stroke-width="0.5" stroke="black" d="M 183 79 253 142"/>
<path stroke-width="0.5" stroke="black" d="M 183 79 189 156"/>
<path stroke-width="0.5" stroke="black" d="M 183 79 205 60"/>
<path stroke-width="0.5" stroke="black" d="M 205 141 302 111"/>
<path stroke-width="0.5" stroke="black" d="M 280 141 217 67"/>
<path stroke-width="0.5" stroke="black" d="M 205 141 275 103"/>
<path stroke-width="0.5" stroke="black" d="M 205 141 253 142"/>
<path stroke-width="0.5" stroke="black" d="M 268 82 224 168"/>
<path stroke-width="0.5" stroke="black" d="M 268 82 302 111"/>
<path stroke-width="0.5" stroke="black" d="M 268 82 275 103"/>
<path stroke-width="0.5" stroke="black" d="M 268 82 254 62"/>
<path stroke-width="0.5" stroke="black" d="M 268 82 253 142"/>
<path stroke-width="0.5" stroke="black" d="M 268 82 189 156"/>
<path stroke-width="0.5" stroke="black" d="M 268 82 205 60"/>
<path stroke-width="0.5" stroke="black" d="M 268 82 319 121"/>
<path stroke-width="0.5" stroke="black" d="M 268 82 168 83"/>
<path stroke-width="0.5" stroke="black" d="M 268 82 217 67"/>
<path stroke-width="0.5" stroke="black" d="M 268 82 170 106"/>
<path stroke-width="0.5" stroke="black" d="M 268 82 236 73"/>
<path stroke-width="0.5" stroke="black" d="M 268 82 264 72"/>
<path stroke-width="0.5" stroke="black" d="M 268 82 241 155"/>
<path stroke-width="0.5" stroke="black" d="M 268 82 167 133"/>
<path stroke-width="0.5" stroke="black" d="M 268 82 183 79"/>
<path stroke-width="0.5" stroke="black" d="M 268 82 280 141"/>
<path stroke-width="0.5" stroke="black" d="M 268 82 136 109"/>
<path stroke-width="0.5" stroke="black" d="M 268 82 299 125"/>
<path stroke-width="0.5" stroke="black" d="M 268 82 231 186"/>
<path stroke-width="0.5" stroke="black" d="M 205 141 189 156"/>
<path stroke-width="0.5" stroke="black" d="M 205 141 205 60"/>
<path stroke-width="0.5" stroke="black" d="M 205 141 168 83"/>
<path stroke-width="0.5" stroke="black" d="M 205 141 280 141"/>
<path stroke-width="0.5" stroke="black" d="M 205 141 217 67"/>
<path stroke-width="0.5" stroke="black" d="M 205 141 170 106"/>
<path stroke-width="0.5" stroke="black" d="M 205 141 236 73"/>
<path stroke-width="0.5" stroke="black" d="M 205 141 264 72"/>
<path stroke-width="0.5" stroke="black" d="M 205 141 241 155"/>
<path stroke-width="0.5" stroke="black" d="M 205 141 167 133"/>
<path stroke-width="0.5" stroke="black" d="M 205 141 183 79"/>
<path stroke-width="17.185567010309278" stroke="black" d="M 205 141 192 161"/>
<path stroke-width="0.5" stroke="black" d="M 205 141 268 82"/>
<path stroke-width="0.5" stroke="black" d="M 205 141 217 130"/>
<path stroke-width="0.5" stroke="black" d="M 205 141 201 86"/>
<path stroke-width="0.5" stroke="black" d="M 205 141 222 100"/>
<path stroke-width="17.989690721649485" stroke="black" d="M 285 62 268 82"/>
<path stroke-width="0.5" stroke="black" d="M 205 141 254 62"/>
<path stroke-width="10.75257731958763" stroke="black" d="M 280 141 314 162"/>
<path stroke-width="0.5" stroke="black" d="M 280 141 168 83"/>
<path stroke-width="0.5" stroke="black" d="M 280 141 205 60"/>
<path stroke-width="0.5" stroke="black" d="M 319 121 222 100"/>
<path stroke-width="4.31958762886598" stroke="black" d="M 223 227 224 168"/>
<path stroke-width="0.5" stroke="black" d="M 224 168 231 186"/>
<path stroke-width="0.5" stroke="black" d="M 224 168 299 125"/>
<path stroke-width="0.5" stroke="black" d="M 224 168 136 109"/>
<path stroke-width="0.5" stroke="black" d="M 224 168 319 121"/>
<path stroke-width="4.31958762886598" stroke="black" d="M 224 168 223 227"/>
<path stroke-width="0.5" stroke="black" d="M 319 121 201 86"/>
<path stroke-width="0.5" stroke="black" d="M 224 168 302 111"/>
<path stroke-width="0.5" stroke="black" d="M 224 168 254 62"/>
<path stroke-width="0.5" stroke="black" d="M 224 168 253 142"/>
<path stroke-width="0.5" stroke="black" d="M 224 168 189 156"/>
<path stroke-width="0.5" stroke="black" d="M 224 168 205 60"/>
<path stroke-width="0.5" stroke="black" d="M 224 168 168 83"/>
<path stroke-width="0.5" stroke="black" d="M 224 168 280 141"/>
<path stroke-width="0.5" stroke="black" d="M 224 168 217 67"/>
<path stroke-width="0.5" stroke="black" d="M 224 168 275 103"/>
<path stroke-width="0.5" stroke="black" d="M 224 168 170 106"/>
<path stroke-width="0.5" stroke="black" d="M 319 121 217 130"/>
<path stroke-width="0.5" stroke="black" d="M 319 121 205 141"/>
<path stroke-width="0.5" stroke="black" d="M 319 121 224 168"/>
<path stroke-width="0.5" stroke="black" d="M 319 121 302 111"/>
<path stroke-width="0.5" stroke="black" d="M 319 121 275 103"/>
<path stroke-width="0.5" stroke="black" d="M 319 121 254 62"/>
<path stroke-width="0.5" stroke="black" d="M 319 121 253 142"/>
<path stroke-width="0.5" stroke="black" d="M 319 121 189 156"/>
<path stroke-width="0.5" stroke="black" d="M 319 121 205 60"/>
<path stroke-width="0.5" stroke="black" d="M 319 121 268 82"/>
<path stroke-width="0.5" stroke="black" d="M 319 121 168 83"/>
<path stroke-width="0.5" stroke="black" d="M 319 121 217 67"/>
<path stroke-width="0.5" stroke="black" d="M 319 121 170 106"/>
<path stroke-width="0.5" stroke="black" d="M 319 121 236 73"/>
<path stroke-width="0.5" stroke="black" d="M 319 121 264 72"/>
<path stroke-width="0.5" stroke="black" d="M 319 121 241 155"/>
<path stroke-width="0.5" stroke="black" d="M 319 121 167 133"/>
<path stroke-width="0.5" stroke="black" d="M 319 121 183 79"/>
<path stroke-width="0.5" stroke="black" d="M 319 121 280 141"/>
<path stroke-width="0.5" stroke="black" d="M 224 168 236 73"/>
<path stroke-width="0.5" stroke="black" d="M 224 168 264 72"/>
<path stroke-width="0.5" stroke="black" d="M 224 168 241 155"/>
<path stroke-width="0.5" stroke="black" d="M 302 111 217 67"/>
<path stroke-width="0.5" stroke="black" d="M 302 111 170 106"/>
<path stroke-width="0.5" stroke="black" d="M 302 111 236 73"/>
<path stroke-width="0.5" stroke="black" d="M 302 111 264 72"/>
<path stroke-width="0.5" stroke="black" d="M 302 111 241 155"/>
<path stroke-width="0.5" stroke="black" d="M 302 111 167 133"/>
<path stroke-width="0.5" stroke="black" d="M 302 111 183 79"/>
<path stroke-width="0.5" stroke="black" d="M 302 111 280 141"/>
<path stroke-width="0.5" stroke="black" d="M 302 111 205 141"/>
<path stroke-width="0.5" stroke="black" d="M 302 111 217 130"/>
<path stroke-width="0.5" stroke="black" d="M 302 111 201 86"/>
<path stroke-width="0.5" stroke="black" d="M 302 111 222 100"/>
<path stroke-width="5.927835051546392" stroke="black" d="M 324 87 275 103"/>
<path stroke-width="0.5" stroke="black" d="M 275 103 231 186"/>
<path stroke-width="0.5" stroke="black" d="M 275 103 299 125"/>
<path stroke-width="0.5" stroke="black" d="M 275 103 136 109"/>
<path stroke-width="0.5" stroke="black" d="M 302 111 268 82"/>
<path stroke-width="0.5" stroke="black" d="M 302 111 168 83"/>
<path stroke-width="0.5" stroke="black" d="M 302 111 205 60"/>
<path stroke-width="0.5" stroke="black" d="M 302 111 189 156"/>
<path stroke-width="0.5" stroke="black" d="M 224 168 167 133"/>
<path stroke-width="0.5" stroke="black" d="M 224 168 183 79"/>
<path stroke-width="0.5" stroke="black" d="M 224 168 205 141"/>
<path stroke-width="0.5" stroke="black" d="M 224 168 268 82"/>
<path stroke-width="0.5" stroke="black" d="M 224 168 217 130"/>
<path stroke-width="0.5" stroke="black" d="M 224 168 201 86"/>
<path stroke-width="0.5" stroke="black" d="M 224 168 222 100"/>
<path stroke-width="5.123711340206185" stroke="black" d="M 371 110 302 111"/>
<path stroke-width="0.5" stroke="black" d="M 302 111 231 186"/>
<path stroke-width="0.5" stroke="black" d="M 302 111 299 125"/>
<path stroke-width="0.5" stroke="black" d="M 302 111 136 109"/>
<path stroke-width="0.5" stroke="black" d="M 302 111 319 121"/>
<path stroke-width="0.5" stroke="black" d="M 302 111 224 168"/>
<path stroke-width="5.123711340206185" stroke="black" d="M 302 111 371 110"/>
<path stroke-width="0.5" stroke="black" d="M 302 111 275 103"/>
<path stroke-width="0.5" stroke="black" d="M 302 111 254 62"/>
<path stroke-width="0.5" stroke="black" d="M 302 111 253 142"/>
<path stroke-width="3.515463917525773" stroke="black" d="M 319 121 415 129"/>
<path stroke-width="0.5" stroke="black" d="M 319 121 136 109"/>
<path stroke-width="0.5" stroke="black" d="M 319 121 299 125"/>
<path stroke-width="0.5" stroke="black" d="M 319 121 231 186"/>
<path stroke-width="0.5" stroke="black" d="M 231 186 268 82"/>
<path stroke-width="0.5" stroke="black" d="M 231 186 217 130"/>
<path stroke-width="0.5" stroke="black" d="M 231 186 201 86"/>
<path stroke-width="0.5" stroke="black" d="M 231 186 222 100"/>
<path stroke-width="1.907216494845361" stroke="black" d="M 420 148 299 125"/>
<path stroke-width="0.5" stroke="black" d="M 299 125 231 186"/>
<path stroke-width="1.907216494845361" stroke="black" d="M 299 125 420 148"/>
<path stroke-width="0.5" stroke="black" d="M 231 186 205 141"/>
<path stroke-width="0.5" stroke="black" d="M 299 125 136 109"/>
<path stroke-width="0.5" stroke="black" d="M 299 125 224 168"/>
<path stroke-width="0.5" stroke="black" d="M 299 125 302 111"/>
<path stroke-width="0.5" stroke="black" d="M 299 125 275 103"/>
<path stroke-width="0.5" stroke="black" d="M 299 125 254 62"/>
<path stroke-width="0.5" stroke="black" d="M 299 125 253 142"/>
<path stroke-width="0.5" stroke="black" d="M 299 125 189 156"/>
<path stroke-width="0.5" stroke="black" d="M 299 125 205 60"/>
<path stroke-width="0.5" stroke="black" d="M 299 125 319 121"/>
<path stroke-width="0.5" stroke="black" d="M 231 186 183 79"/>
<path stroke-width="0.5" stroke="black" d="M 231 186 167 133"/>
<path stroke-width="0.5" stroke="black" d="M 231 186 241 155"/>
<path stroke-width="1.5051546391752577" stroke="black" d="M 231 186 239 320"/>
<path stroke-width="0.5" stroke="black" d="M 231 186 299 125"/>
<path stroke-width="0.5" stroke="black" d="M 231 186 136 109"/>
<path stroke-width="0.5" stroke="black" d="M 231 186 319 121"/>
<path stroke-width="0.5" stroke="black" d="M 231 186 224 168"/>
<path stroke-width="0.5" stroke="black" d="M 231 186 302 111"/>
<path stroke-width="0.5" stroke="black" d="M 231 186 275 103"/>
<path stroke-width="0.5" stroke="black" d="M 231 186 254 62"/>
<path stroke-width="0.5" stroke="black" d="M 231 186 253 142"/>
<path stroke-width="0.5" stroke="black" d="M 231 186 189 156"/>
<path stroke-width="0.5" stroke="black" d="M 231 186 205 60"/>
<path stroke-width="0.5" stroke="black" d="M 231 186 168 83"/>
<path stroke-width="0.5" stroke="black" d="M 231 186 280 141"/>
<path stroke-width="0.5" stroke="black" d="M 231 186 217 67"/>
<path stroke-width="0.5" stroke="black" d="M 231 186 170 106"/>
<path stroke-width="0.5" stroke="black" d="M 231 186 236 73"/>
<path stroke-width="0.5" stroke="black" d="M 231 186 264 72"/>
<path stroke-width="0.5" stroke="black" d="M 299 125 168 83"/>
<path stroke-width="0.5" stroke="black" d="M 275 103 319 121"/>
<path stroke-width="0.5" stroke="black" d="M 299 125 280 141"/>
<path stroke-width="0.5" stroke="black" d="M 299 125 170 106"/>
<path stroke-width="0.5" stroke="black" d="M 136 109 205 60"/>
<path stroke-width="0.5" stroke="black" d="M 136 109 168 83"/>
<path stroke-width="0.5" stroke="black" d="M 136 109 280 141"/>
<path stroke-width="0.5" stroke="black" d="M 136 109 217 67"/>
<path stroke-width="0.5" stroke="black" d="M 136 109 170 106"/>
<path stroke-width="0.5" stroke="black" d="M 136 109 236 73"/>
<path stroke-width="0.5" stroke="black" d="M 136 109 264 72"/>
<path stroke-width="0.5" stroke="black" d="M 136 109 189 156"/>
<path stroke-width="0.5" stroke="black" d="M 136 109 241 155"/>
<path stroke-width="0.5" stroke="black" d="M 136 109 183 79"/>
<path stroke-width="0.5" stroke="black" d="M 136 109 205 141"/>
<path stroke-width="0.5" stroke="black" d="M 136 109 268 82"/>
<path stroke-width="0.5" stroke="black" d="M 136 109 217 130"/>
<path stroke-width="0.5" stroke="black" d="M 136 109 201 86"/>
<path stroke-width="0.5" stroke="black" d="M 136 109 222 100"/>
<path stroke-width="3.515463917525773" stroke="black" d="M 415 129 319 121"/>
<path stroke-width="0.5" stroke="black" d="M 136 109 167 133"/>
<path stroke-width="0.5" stroke="black" d="M 136 109 253 142"/>
<path stroke-width="0.5" stroke="black" d="M 136 109 254 62"/>
<path stroke-width="0.5" stroke="black" d="M 136 109 275 103"/>
<path stroke-width="0.5" stroke="black" d="M 299 125 236 73"/>
<path stroke-width="0.5" stroke="black" d="M 299 125 264 72"/>
<path stroke-width="0.5" stroke="black" d="M 299 125 241 155"/>
<path stroke-width="0.5" stroke="black" d="M 299 125 167 133"/>
<path stroke-width="0.5" stroke="black" d="M 299 125 183 79"/>
<path stroke-width="0.5" stroke="black" d="M 299 125 205 141"/>
<path stroke-width="0.5" stroke="black" d="M 299 125 268 82"/>
<path stroke-width="0.5" stroke="black" d="M 299 125 217 130"/>
<path stroke-width="0.5" stroke="black" d="M 299 125 201 86"/>
<path stroke-width="0.5" stroke="black" d="M 299 125 222 100"/>
<path stroke-width="2.711340206185567" stroke="black" d="M 20 97 136 109"/>
<path stroke-width="0.5" stroke="black" d="M 136 109 231 186"/>
<path stroke-width="0.5" stroke="black" d="M 136 109 299 125"/>
<path stroke-width="2.711340206185567" stroke="black" d="M 136 109 20 97"/>
<path stroke-width="0.5" stroke="black" d="M 136 109 319 121"/>
<path stroke-width="0.5" stroke="black" d="M 136 109 224 168"/>
<path stroke-width="0.5" stroke="black" d="M 136 109 302 111"/>
<path stroke-width="0.5" stroke="black" d="M 299 125 217 67"/>
<path stroke-width="0.5" stroke="black" d="M 222 100 201 86"/>
<path stroke-width="0.5" stroke="black" d="M 275 103 224 168"/>
<path stroke-width="5.927835051546392" stroke="black" d="M 275 103 324 87"/>
<path stroke-width="0.5" stroke="black" d="M 205 60 302 111"/>
<path stroke-width="0.5" stroke="black" d="M 205 60 275 103"/>
<path stroke-width="0.5" stroke="black" d="M 205 60 254 62"/>
<path stroke-width="0.5" stroke="black" d="M 205 60 253 142"/>
<path stroke-width="0.5" stroke="black" d="M 205 60 189 156"/>
<path stroke-width="9.144329896907216" stroke="black" d="M 205 60 189 24"/>
<path stroke-width="0.5" stroke="black" d="M 205 60 168 83"/>
<path stroke-width="0.5" stroke="black" d="M 205 60 224 168"/>
<path stroke-width="0.5" stroke="black" d="M 205 60 280 141"/>
<path stroke-width="0.5" stroke="black" d="M 205 60 170 106"/>
<path stroke-width="0.5" stroke="black" d="M 205 60 236 73"/>
<path stroke-width="0.5" stroke="black" d="M 205 60 264 72"/>
<path stroke-width="0.5" stroke="black" d="M 205 60 241 155"/>
<path stroke-width="0.5" stroke="black" d="M 205 60 167 133"/>
<path stroke-width="0.5" stroke="black" d="M 205 60 183 79"/>
<path stroke-width="0.5" stroke="black" d="M 205 60 205 141"/>
<path stroke-width="0.5" stroke="black" d="M 205 60 217 67"/>
<path stroke-width="0.5" stroke="black" d="M 205 60 268 82"/>
<path stroke-width="0.5" stroke="black" d="M 205 60 319 121"/>
<path stroke-width="0.5" stroke="black" d="M 205 60 299 125"/>
<path stroke-width="0.5" stroke="black" d="M 189 156 168 83"/>
<path stroke-width="0.5" stroke="black" d="M 189 156 280 141"/>
<path stroke-width="0.5" stroke="black" d="M 189 156 217 67"/>
<path stroke-width="0.5" stroke="black" d="M 189 156 170 106"/>
<path stroke-width="0.5" stroke="black" d="M 189 156 236 73"/>
<path stroke-width="0.5" stroke="black" d="M 189 156 264 72"/>
<path stroke-width="0.5" stroke="black" d="M 189 156 241 155"/>
<path stroke-width="0.5" stroke="black" d="M 205 60 136 109"/>
<path stroke-width="0.5" stroke="black" d="M 189 156 167 133"/>
<path stroke-width="0.5" stroke="black" d="M 189 156 205 141"/>
<path stroke-width="0.5" stroke="black" d="M 189 156 268 82"/>
<path stroke-width="0.5" stroke="black" d="M 189 156 217 130"/>
<path stroke-width="0.5" stroke="black" d="M 189 156 201 86"/>
<path stroke-width="0.5" stroke="black" d="M 189 156 222 100"/>
<path stroke-width="9.144329896907216" stroke="black" d="M 189 24 205 60"/>
<path stroke-width="0.5" stroke="black" d="M 205 60 231 186"/>
<path stroke-width="0.5" stroke="black" d="M 189 156 183 79"/>
<path stroke-width="0.5" stroke="black" d="M 205 60 217 130"/>
<path stroke-width="0.5" stroke="black" d="M 205 60 201 86"/>
<path stroke-width="0.5" stroke="black" d="M 205 60 222 100"/>
<path stroke-width="0.5" stroke="black" d="M 168 83 205 141"/>
<path stroke-width="0.5" stroke="black" d="M 168 83 268 82"/>
<path stroke-width="0.5" stroke="black" d="M 168 83 217 130"/>
<path stroke-width="0.5" stroke="black" d="M 168 83 201 86"/>
<path stroke-width="0.5" stroke="black" d="M 168 83 222 100"/>
<path stroke-width="10.75257731958763" stroke="black" d="M 314 162 280 141"/>
<path stroke-width="0.5" stroke="black" d="M 280 141 231 186"/>
<path stroke-width="0.5" stroke="black" d="M 168 83 183 79"/>
<path stroke-width="0.5" stroke="black" d="M 280 141 299 125"/>
<path stroke-width="0.5" stroke="black" d="M 280 141 319 121"/>
<path stroke-width="0.5" stroke="black" d="M 280 141 224 168"/>
<path stroke-width="0.5" stroke="black" d="M 280 141 302 111"/>
<path stroke-width="0.5" stroke="black" d="M 280 141 275 103"/>
<path stroke-width="0.5" stroke="black" d="M 280 141 254 62"/>
<path stroke-width="0.5" stroke="black" d="M 280 141 253 142"/>
<path stroke-width="0.5" stroke="black" d="M 280 141 189 156"/>
<path stroke-width="0.5" stroke="black" d="M 280 141 136 109"/>
<path stroke-width="0.5" stroke="black" d="M 168 83 167 133"/>
<path stroke-width="0.5" stroke="black" d="M 168 83 241 155"/>
<path stroke-width="0.5" stroke="black" d="M 168 83 264 72"/>
<path stroke-width="9.948453608247423" stroke="black" d="M 132 58 168 83"/>
<path stroke-width="0.5" stroke="black" d="M 168 83 231 186"/>
<path stroke-width="0.5" stroke="black" d="M 168 83 299 125"/>
<path stroke-width="0.5" stroke="black" d="M 168 83 136 109"/>
<path stroke-width="0.5" stroke="black" d="M 168 83 319 121"/>
<path stroke-width="0.5" stroke="black" d="M 168 83 224 168"/>
<path stroke-width="0.5" stroke="black" d="M 168 83 302 111"/>
<path stroke-width="0.5" stroke="black" d="M 168 83 275 103"/>
<path stroke-width="0.5" stroke="black" d="M 168 83 254 62"/>
<path stroke-width="0.5" stroke="black" d="M 168 83 253 142"/>
<path stroke-width="0.5" stroke="black" d="M 168 83 189 156"/>
<path stroke-width="0.5" stroke="black" d="M 168 83 205 60"/>
<path stroke-width="9.948453608247423" stroke="black" d="M 168 83 132 58"/>
<path stroke-width="0.5" stroke="black" d="M 168 83 280 141"/>
<path stroke-width="0.5" stroke="black" d="M 168 83 217 67"/>
<path stroke-width="0.5" stroke="black" d="M 168 83 170 106"/>
<path stroke-width="0.5" stroke="black" d="M 168 83 236 73"/>
<path stroke-width="0.5" stroke="black" d="M 189 156 205 60"/>
<path stroke-width="8.340206185567009" stroke="black" d="M 189 156 165 191"/>
<path stroke-width="0.5" stroke="black" d="M 189 156 253 142"/>
<path stroke-width="0.5" stroke="black" d="M 189 156 254 62"/>
<path stroke-width="0.5" stroke="black" d="M 254 62 136 109"/>
<path stroke-width="0.5" stroke="black" d="M 254 62 319 121"/>
<path stroke-width="0.5" stroke="black" d="M 254 62 224 168"/>
<path stroke-width="0.5" stroke="black" d="M 254 62 302 111"/>
<path stroke-width="0.5" stroke="black" d="M 254 62 275 103"/>
<path stroke-width="6.731958762886598" stroke="black" d="M 254 62 267 20"/>
<path stroke-width="0.5" stroke="black" d="M 254 62 253 142"/>
<path stroke-width="0.5" stroke="black" d="M 254 62 299 125"/>
<path stroke-width="0.5" stroke="black" d="M 254 62 189 156"/>
<path stroke-width="0.5" stroke="black" d="M 254 62 168 83"/>
<path stroke-width="0.5" stroke="black" d="M 254 62 280 141"/>
<path stroke-width="0.5" stroke="black" d="M 254 62 217 67"/>
<path stroke-width="0.5" stroke="black" d="M 254 62 170 106"/>
<path stroke-width="0.5" stroke="black" d="M 254 62 236 73"/>
<path stroke-width="0.5" stroke="black" d="M 254 62 264 72"/>
<path stroke-width="0.5" stroke="black" d="M 254 62 241 155"/>
<path stroke-width="0.5" stroke="black" d="M 254 62 205 60"/>
<path stroke-width="0.5" stroke="black" d="M 254 62 231 186"/>
<path stroke-width="6.731958762886598" stroke="black" d="M 267 20 254 62"/>
<path stroke-width="0.5" stroke="black" d="M 275 103 222 100"/>
<path stroke-width="0.5" stroke="black" d="M 275 103 254 62"/>
<path stroke-width="0.5" stroke="black" d="M 275 103 253 142"/>
<path stroke-width="0.5" stroke="black" d="M 275 103 189 156"/>
<path stroke-width="0.5" stroke="black" d="M 275 103 205 60"/>
<path stroke-width="0.5" stroke="black" d="M 275 103 168 83"/>
<path stroke-width="0.5" stroke="black" d="M 275 103 280 141"/>
<path stroke-width="0.5" stroke="black" d="M 275 103 217 67"/>
<path stroke-width="0.5" stroke="black" d="M 275 103 170 106"/>
<path stroke-width="0.5" stroke="black" d="M 275 103 236 73"/>
<path stroke-width="0.5" stroke="black" d="M 275 103 264 72"/>
<path stroke-width="0.5" stroke="black" d="M 275 103 241 155"/>
<path stroke-width="0.5" stroke="black" d="M 275 103 167 133"/>
<path stroke-width="0.5" stroke="black" d="M 275 103 183 79"/>
<path stroke-width="0.5" stroke="black" d="M 275 103 205 141"/>
<path stroke-width="0.5" stroke="black" d="M 275 103 268 82"/>
<path stroke-width="0.5" stroke="black" d="M 275 103 217 130"/>
<path stroke-width="0.5" stroke="black" d="M 275 103 201 86"/>
<path stroke-width="0.5" stroke="black" d="M 254 62 167 133"/>
<path stroke-width="0.5" stroke="black" d="M 275 103 302 111"/>
<path stroke-width="0.5" stroke="black" d="M 254 62 183 79"/>
<path stroke-width="0.5" stroke="black" d="M 254 62 268 82"/>
<path stroke-width="0.5" stroke="black" d="M 253 142 241 155"/>
<path stroke-width="0.5" stroke="black" d="M 253 142 167 133"/>
<path stroke-width="0.5" stroke="black" d="M 253 142 183 79"/>
<path stroke-width="0.5" stroke="black" d="M 253 142 205 141"/>
<path stroke-width="0.5" stroke="black" d="M 253 142 268 82"/>
<path stroke-width="0.5" stroke="black" d="M 253 142 217 130"/>
<path stroke-width="0.5" stroke="black" d="M 253 142 201 86"/>
<path stroke-width="0.5" stroke="black" d="M 253 142 264 72"/>
<path stroke-width="0.5" stroke="black" d="M 253 142 222 100"/>
<path stroke-width="0.5" stroke="black" d="M 189 156 231 186"/>
<path stroke-width="0.5" stroke="black" d="M 189 156 299 125"/>
<path stroke-width="0.5" stroke="black" d="M 189 156 136 109"/>
<path stroke-width="0.5" stroke="black" d="M 189 156 319 121"/>
<path stroke-width="0.5" stroke="black" d="M 189 156 224 168"/>
<path stroke-width="0.5" stroke="black" d="M 189 156 302 111"/>
<path stroke-width="0.5" stroke="black" d="M 189 156 275 103"/>
<path stroke-width="8.340206185567009" stroke="black" d="M 165 191 189 156"/>
<path stroke-width="0.5" stroke="black" d="M 253 142 236 73"/>
<path stroke-width="0.5" stroke="black" d="M 253 142 170 106"/>
<path stroke-width="0.5" stroke="black" d="M 253 142 217 67"/>
<path stroke-width="0.5" stroke="black" d="M 254 62 217 130"/>
<path stroke-width="0.5" stroke="black" d="M 254 62 201 86"/>
<path stroke-width="0.5" stroke="black" d="M 254 62 222 100"/>
<path stroke-width="7.536082474226804" stroke="black" d="M 277 173 253 142"/>
<path stroke-width="0.5" stroke="black" d="M 253 142 231 186"/>
<path stroke-width="0.5" stroke="black" d="M 253 142 299 125"/>
<path stroke-width="0.5" stroke="black" d="M 253 142 136 109"/>
<path stroke-width="0.5" stroke="black" d="M 253 142 319 121"/>
<path stroke-width="0.5" stroke="black" d="M 253 142 224 168"/>
<path stroke-width="0.5" stroke="black" d="M 253 142 302 111"/>
<path stroke-width="0.5" stroke="black" d="M 253 142 275 103"/>
<path stroke-width="0.5" stroke="black" d="M 253 142 254 62"/>
<path stroke-width="7.536082474226804" stroke="black" d="M 253 142 277 173"/>
<path stroke-width="0.5" stroke="black" d="M 253 142 189 156"/>
<path stroke-width="0.5" stroke="black" d="M 253 142 205 60"/>
<path stroke-width="0.5" stroke="black" d="M 253 142 168 83"/>
<path stroke-width="0.5" stroke="black" d="M 253 142 280 141"/>
<path stroke-width="0.5" stroke="black" d="M 254 62 205 141"/>
<path stroke-width="20.0" stroke="black" d="M 222 100 218 86"/>
<circle cx="239" cy="320" r="7.0" style="fill:gray;stroke:black;stroke-width:1.0"/>
<circle cx="231" cy="186" r="7.0" style="fill:gray;stroke:black;stroke-width:1.0"/>
<circle cx="420" cy="148" r="7.0" style="fill:gray;stroke:black;stroke-width:1.0"/>
<circle cx="299" cy="125" r="7.0" style="fill:gray;stroke:black;stroke-width:1.0"/>
<circle cx="20" cy="97" r="7.0" style="fill:gray;stroke:black;stroke-width:1.0"/>
<circle cx="136" cy="109" r="7.0" style="fill:gray;stroke:black;stroke-width:1.0"/>
<circle cx="415" cy="129" r="7.0" style="fill:gray;stroke:black;stroke-width:1.0"/>
<circle cx="319" cy="121" r="7.0" style="fill:gray;stroke:black;stroke-width:1.0"/>
<circle cx="223" cy="227" r="7.0" style="fill:gray;stroke:black;stroke-width:1.0"/>
<circle cx="224" cy="168" r="7.0" style="fill:gray;stroke:black;stroke-width:1.0"/>
<circle cx="371" cy="110" r="7.0" style="fill:gray;stroke:black;stroke-width:1.0"/>
<circle cx="302" cy="111" r="7.0" style="fill:gray;stroke:black;stroke-width:1.0"/>
<circle cx="324" cy="87" r="7.0" style="fill:gray;stroke:black;stroke-width:1.0"/>
<circle cx="275" cy="103" r="7.0" style="fill:gray;stroke:black;stroke-width:1.0"/>
<circle cx="267" cy="20" r="7.0" style="fill:gray;stroke:black;stroke-width:1.0"/>
<circle cx="254" cy="62" r="7.0" style="fill:gray;stroke:black;stroke-width:1.0"/>
<circle cx="277" cy="173" r="7.0" style="fill:gray;stroke:black;stroke-width:1.0"/>
<circle cx="253" cy="142" r="7.0" style="fill:gray;stroke:black;stroke-width:1.0"/>
<circle cx="165" cy="191" r="7.0" style="fill:gray;stroke:black;stroke-width:1.0"/>
<circle cx="189" cy="156" r="7.0" style="fill:gray;stroke:black;stroke-width:1.0"/>
<circle cx="189" cy="24" r="7.0" style="fill:gray;stroke:black;stroke-width:1.0"/>
<circle cx="205" cy="60" r="7.0" style="fill:gray;stroke:black;stroke-width:1.0"/>
<circle cx="132" cy="58" r="7.0" style="fill:gray;stroke:black;stroke-width:1.0"/>
<circle cx="168" cy="83" r="7.0" style="fill:gray;stroke:black;stroke-width:1.0"/>
<circle cx="314" cy="162" r="7.0" style="fill:gray;stroke:black;stroke-width:1.0"/>
<circle cx="280" cy="141" r="7.0" style="fill:gray;stroke:black;stroke-width:1.0"/>
<circle cx="209" cy="36" r="7.0" style="fill:gray;stroke:black;stroke-width:1.0"/>
<circle cx="217" cy="67" r="7.0" style="fill:gray;stroke:black;stroke-width:1.0"/>
<circle cx="131" cy="95" r="7.0" style="fill:gray;stroke:black;stroke-width:1.0"/>
<circle cx="170" cy="106" r="7.0" style="fill:gray;stroke:black;stroke-width:1.0"/>
<circle cx="238" cy="46" r="7.0" style="fill:gray;stroke:black;stroke-width:1.0"/>
<circle cx="236" cy="73" r="7.0" style="fill:gray;stroke:black;stroke-width:1.0"/>
<circle cx="279" cy="45" r="7.0" style="fill:gray;stroke:black;stroke-width:1.0"/>
<circle cx="264" cy="72" r="7.0" style="fill:gray;stroke:black;stroke-width:1.0"/>
<circle cx="248" cy="182" r="7.0" style="fill:gray;stroke:black;stroke-width:1.0"/>
<circle cx="241" cy="155" r="7.0" style="fill:gray;stroke:black;stroke-width:1.0"/>
<circle cx="132" cy="146" r="7.0" style="fill:gray;stroke:black;stroke-width:1.0"/>
<circle cx="167" cy="133" r="7.0" style="fill:gray;stroke:black;stroke-width:1.0"/>
<circle cx="162" cy="57" r="7.0" style="fill:gray;stroke:black;stroke-width:1.0"/>
<circle cx="183" cy="79" r="7.0" style="fill:gray;stroke:black;stroke-width:1.0"/>
<circle cx="192" cy="161" r="7.0" style="fill:gray;stroke:black;stroke-width:1.0"/>
<circle cx="205" cy="141" r="7.0" style="fill:gray;stroke:black;stroke-width:1.0"/>
<circle cx="285" cy="62" r="7.0" style="fill:gray;stroke:black;stroke-width:1.0"/>
<circle cx="268" cy="82" r="7.0" style="fill:gray;stroke:black;stroke-width:1.0"/>
<circle cx="239" cy="129" r="7.0" style="fill:gray;stroke:black;stroke-width:1.0"/>
<circle cx="217" cy="130" r="7.0" style="fill:gray;stroke:black;stroke-width:1.0"/>
<circle cx="187" cy="67" r="7.0" style="fill:gray;stroke:black;stroke-width:1.0"/>
<circle cx="201" cy="86" r="7.0" style="fill:gray;stroke:black;stroke-width:1.0"/>
<circle cx="218" cy="86" r="7.0" style="fill:gray;stroke:black;stroke-width:1.0"/>
<circle cx="222" cy="100" r="7.0" style="fill:gray;stroke:black;stroke-width:1.0"/>
</svg>
