<svg width="440" height="340" xmlns="http://www.w3.org/2000/svg">
<path stroke-width="1" stroke="black" d="M 163 190 283 200"/>
<path stroke-width="1" stroke="black" d="M 420 320 283 200"/>
<path stroke-width="1" stroke="black" d="M 420 320 163 190"/>
<path stroke-width="1" stroke="black" d="M 20 20 420 320"/>
<path stroke-width="1" stroke="black" d="M 20 20 34 66"/>
<path stroke-width="1" stroke="black" d="M 20 20 283 200"/>
<path stroke-width="1" stroke="black" d="M 20 20 163 190"/>
<path stroke-width="1" stroke="black" d="M 34 66 420 320"/>
<path stroke-width="1" stroke="black" d="M 34 66 20 20"/>
<path stroke-width="1" stroke="black" d="M 34 66 283 200"/>
<path stroke-width="1" stroke="black" d="M 34 66 163 190"/>
<path stroke-width="1" stroke="black" d="M 283 200 420 320"/>
<path stroke-width="1" stroke="black" d="M 283 200 20 20"/>
<path stroke-width="1" stroke="black" d="M 283 200 34 66"/>
<path stroke-width="1" stroke="black" d="M 283 200 163 190"/>
<path stroke-width="1" stroke="black" d="M 163 190 420 320"/>
<path stroke-width="1" stroke="black" d="M 163 190 20 20"/>
<path stroke-width="1" stroke="black" d="M 163 190 34 66"/>
<path stroke-width="1" stroke="black" d="M 420 320 34 66"/>
<path stroke-width="1" stroke="black" d="M 420 320 20 20"/>
<circle cx="163" cy="190" r="7.0" style="fill:gray;stroke:black;stroke-width:1.0"/>
<circle cx="283" cy="200" r="7.0" style="fill:gray;stroke:black;stroke-width:1.0"/>
<circle cx="34" cy="66" r="7.0" style="fill:gray;stroke:black;stroke-width:1.0"/>
<circle cx="20" cy="20" r="7.0" style="fill:gray;stroke:black;stroke-width:1.0"/>
<circle cx="420" cy="320" r="7.0" style="fill:gray;stroke:black;stroke-width:1.0"/>
</svg>
