<svg width="440" height="340" xmlns="http://www.w3.org/2000/svg">
<path stroke-width="1" stroke="black" d="M 20 100 34 92"/>
<path stroke-width="1" stroke="black" d="M 328 219 319 210"/>
<path stroke-width="1" stroke="black" d="M 319 210 374 175"/>
<path stroke-width="1" stroke="black" d="M 319 210 328 219"/>
<path stroke-width="1" stroke="black" d="M 319 210 247 229"/>
<path stroke-width="1" stroke="black" d="M 239 240 247 229"/>
<path stroke-width="1" stroke="black" d="M 247 229 319 210"/>
<path stroke-width="1" stroke="black" d="M 247 229 239 240"/>
<path stroke-width="1" stroke="black" d="M 247 229 174 223"/>
<path stroke-width="1" stroke="black" d="M 153 223 174 223"/>
<path stroke-width="1" stroke="black" d="M 174 223 247 229"/>
<path stroke-width="1" stroke="black" d="M 174 223 153 223"/>
<path stroke-width="1" stroke="black" d="M 174 223 168 204"/>
<path stroke-width="1" stroke="black" d="M 156 196 168 204"/>
<path stroke-width="1" stroke="black" d="M 168 204 174 223"/>
<path stroke-width="1" stroke="black" d="M 168 204 156 196"/>
<path stroke-width="1" stroke="black" d="M 168 204 213 232"/>
<path stroke-width="1" stroke="black" d="M 218 222 213 232"/>
<path stroke-width="1" stroke="black" d="M 213 232 168 204"/>
<path stroke-width="1" stroke="black" d="M 213 232 218 222"/>
<path stroke-width="1" stroke="black" d="M 213 232 248 271"/>
<path stroke-width="1" stroke="black" d="M 263 277 248 271"/>
<path stroke-width="1" stroke="black" d="M 248 271 213 232"/>
<path stroke-width="1" stroke="black" d="M 248 271 263 277"/>
<path stroke-width="1" stroke="black" d="M 248 271 273 306"/>
<path stroke-width="1" stroke="black" d="M 281 320 273 306"/>
<path stroke-width="1" stroke="black" d="M 374 175 319 210"/>
<path stroke-width="1" stroke="black" d="M 374 175 386 181"/>
<path stroke-width="1" stroke="black" d="M 374 175 399 130"/>
<path stroke-width="1" stroke="black" d="M 386 181 374 175"/>
<path stroke-width="1" stroke="black" d="M 34 92 20 100"/>
<path stroke-width="1" stroke="black" d="M 34 92 84 65"/>
<path stroke-width="1" stroke="black" d="M 67 66 84 65"/>
<path stroke-width="1" stroke="black" d="M 84 65 34 92"/>
<path stroke-width="1" stroke="black" d="M 84 65 67 66"/>
<path stroke-width="1" stroke="black" d="M 84 65 157 40"/>
<path stroke-width="1" stroke="black" d="M 147 32 157 40"/>
<path stroke-width="1" stroke="black" d="M 157 40 84 65"/>
<path stroke-width="1" stroke="black" d="M 157 40 147 32"/>
<path stroke-width="1" stroke="black" d="M 157 40 246 30"/>
<path stroke-width="1" stroke="black" d="M 247 20 246 30"/>
<path stroke-width="1" stroke="black" d="M 246 30 157 40"/>
<path stroke-width="1" stroke="black" d="M 273 306 248 271"/>
<path stroke-width="1" stroke="black" d="M 246 30 247 20"/>
<path stroke-width="1" stroke="black" d="M 343 36 330 45"/>
<path stroke-width="1" stroke="black" d="M 330 45 246 30"/>
<path stroke-width="1" stroke="black" d="M 330 45 343 36"/>
<path stroke-width="1" stroke="black" d="M 330 45 388 83"/>
<path stroke-width="1" stroke="black" d="M 404 79 388 83"/>
<path stroke-width="1" stroke="black" d="M 388 83 330 45"/>
<path stroke-width="1" stroke="black" d="M 388 83 404 79"/>
<path stroke-width="1" stroke="black" d="M 388 83 399 130"/>
<path stroke-width="1" stroke="black" d="M 420 133 399 130"/>
<path stroke-width="1" stroke="black" d="M 399 130 388 83"/>
<path stroke-width="1" stroke="black" d="M 399 130 420 133"/>
<path stroke-width="1" stroke="black" d="M 399 130 374 175"/>
<path stroke-width="1" stroke="black" d="M 246 30 330 45"/>
<path stroke-width="1" stroke="black" d="M 273 306 281 320"/>
<circle cx="20" cy="100" r="7.0" style="fill:red;stroke:black;stroke-width:1.0"/>
<circle cx="34" cy="92" r="7.0" style="fill:red;stroke:black;stroke-width:1.0"/>
<circle cx="67" cy="66" r="7.0" style="fill:green;stroke:black;stroke-width:1.0"/>
<circle cx="84" cy="65" r="7.0" style="fill:green;stroke:black;stroke-width:1.0"/>
<circle cx="147" cy="32" r="7.0" style="fill:orange;stroke:black;stroke-width:1.0"/>
<circle cx="157" cy="40" r="7.0" style="fill:orange;stroke:black;stroke-width:1.0"/>
<circle cx="247" cy="20" r="7.0" style="fill:purple;stroke:black;stroke-width:1.0"/>
<circle cx="246" cy="30" r="7.0" style="fill:purple;stroke:black;stroke-width:1.0"/>
<circle cx="343" cy="36" r="7.0" style="fill:yellow;stroke:black;stroke-width:1.0"/>
<circle cx="330" cy="45" r="7.0" style="fill:yellow;stroke:black;stroke-width:1.0"/>
<circle cx="404" cy="79" r="7.0" style="fill:fuchsia;stroke:black;stroke-width:1.0"/>
<circle cx="388" cy="83" r="7.0" style="fill:fuchsia;stroke:black;stroke-width:1.0"/>
<circle cx="420" cy="133" r="7.0" style="fill:olive;stroke:black;stroke-width:1.0"/>
<circle cx="399" cy="130" r="7.0" style="fill:olive;stroke:black;stroke-width:1.0"/>
<circle cx="386" cy="181" r="7.0" style="fill:aqua;stroke:black;stroke-width:1.0"/>
<circle cx="374" cy="175" r="7.0" style="fill:aqua;stroke:black;stroke-width:1.0"/>
<circle cx="328" cy="219" r="7.0" style="fill:brown;stroke:black;stroke-width:1.0"/>
<circle cx="319" cy="210" r="7.0" style="fill:brown;stroke:black;stroke-width:1.0"/>
<circle cx="239" cy="240" r="7.0" style="fill:blue;stroke:black;stroke-width:1.0"/>
<circle cx="247" cy="229" r="7.0" style="fill:blue;stroke:black;stroke-width:1.0"/>
<circle cx="153" cy="223" r="7.0" style="fill:red;stroke:black;stroke-width:1.0"/>
<circle cx="174" cy="223" r="7.0" style="fill:red;stroke:black;stroke-width:1.0"/>
<circle cx="156" cy="196" r="7.0" style="fill:green;stroke:black;stroke-width:1.0"/>
<circle cx="168" cy="204" r="7.0" style="fill:green;stroke:black;stroke-width:1.0"/>
<circle cx="218" cy="222" r="7.0" style="fill:orange;stroke:black;stroke-width:1.0"/>
<circle cx="213" cy="232" r="7.0" style="fill:orange;stroke:black;stroke-width:1.0"/>
<circle cx="263" cy="277" r="7.0" style="fill:blue;stroke:black;stroke-width:1.0"/>
<circle cx="248" cy="271" r="7.0" style="fill:blue;stroke:black;stroke-width:1.0"/>
<circle cx="281" cy="320" r="7.0" style="fill:blue;stroke:black;stroke-width:1.0"/>
<circle cx="273" cy="306" r="7.0" style="fill:blue;stroke:black;stroke-width:1.0"/>
</svg>
