<svg width="440" height="340" xmlns="http://www.w3.org/2000/svg">
<path stroke-width="1" stroke="black" d="M 190 65 185 56"/>
<path stroke-width="1" stroke="black" d="M 97 165 97 176"/>
<path stroke-width="1" stroke="black" d="M 97 176 69 143"/>
<path stroke-width="1" stroke="black" d="M 97 176 97 165"/>
<path stroke-width="1" stroke="black" d="M 97 176 124 222"/>
<path stroke-width="1" stroke="black" d="M 114 221 124 222"/>
<path stroke-width="1" stroke="black" d="M 124 222 97 176"/>
<path stroke-width="1" stroke="black" d="M 124 222 114 221"/>
<path stroke-width="1" stroke="black" d="M 124 222 168 263"/>
<path stroke-width="1" stroke="black" d="M 158 269 168 263"/>
<path stroke-width="1" stroke="black" d="M 168 263 124 222"/>
<path stroke-width="1" stroke="black" d="M 168 263 158 269"/>
<path stroke-width="1" stroke="black" d="M 168 263 226 290"/>
<path stroke-width="1" stroke="black" d="M 220 299 226 290"/>
<path stroke-width="1" stroke="black" d="M 226 290 168 263"/>
<path stroke-width="1" stroke="black" d="M 226 290 220 299"/>
<path stroke-width="1" stroke="black" d="M 226 290 289 305"/>
<path stroke-width="1" stroke="black" d="M 292 298 289 305"/>
<path stroke-width="1" stroke="black" d="M 289 305 226 290"/>
<path stroke-width="1" stroke="black" d="M 289 305 292 298"/>
<path stroke-width="1" stroke="black" d="M 289 305 351 312"/>
<path stroke-width="1" stroke="black" d="M 363 313 351 312"/>
<path stroke-width="1" stroke="black" d="M 351 312 289 305"/>
<path stroke-width="1" stroke="black" d="M 351 312 363 313"/>
<path stroke-width="1" stroke="black" d="M 351 312 401 318"/>
<path stroke-width="1" stroke="black" d="M 420 320 401 318"/>
<path stroke-width="1" stroke="black" d="M 69 143 97 176"/>
<path stroke-width="1" stroke="black" d="M 69 143 67 132"/>
<path stroke-width="1" stroke="black" d="M 69 143 40 139"/>
<path stroke-width="1" stroke="black" d="M 67 132 69 143"/>
<path stroke-width="1" stroke="black" d="M 185 56 190 65"/>
<path stroke-width="1" stroke="black" d="M 185 56 166 31"/>
<path stroke-width="1" stroke="black" d="M 174 27 166 31"/>
<path stroke-width="1" stroke="black" d="M 166 31 185 56"/>
<path stroke-width="1" stroke="black" d="M 166 31 174 27"/>
<path stroke-width="1" stroke="black" d="M 166 31 127 31"/>
<path stroke-width="1" stroke="black" d="M 128 20 127 31"/>
<path stroke-width="1" stroke="black" d="M 127 31 166 31"/>
<path stroke-width="1" stroke="black" d="M 127 31 128 20"/>
<path stroke-width="1" stroke="black" d="M 127 31 86 44"/>
<path stroke-width="1" stroke="black" d="M 80 37 86 44"/>
<path stroke-width="1" stroke="black" d="M 86 44 127 31"/>
<path stroke-width="1" stroke="black" d="M 401 318 351 312"/>
<path stroke-width="1" stroke="black" d="M 86 44 80 37"/>
<path stroke-width="1" stroke="black" d="M 43 65 50 69"/>
<path stroke-width="1" stroke="black" d="M 50 69 86 44"/>
<path stroke-width="1" stroke="black" d="M 50 69 43 65"/>
<path stroke-width="1" stroke="black" d="M 50 69 30 104"/>
<path stroke-width="1" stroke="black" d="M 20 105 30 104"/>
<path stroke-width="1" stroke="black" d="M 30 104 50 69"/>
<path stroke-width="1" stroke="black" d="M 30 104 20 105"/>
<path stroke-width="1" stroke="black" d="M 30 104 40 139"/>
<path stroke-width="1" stroke="black" d="M 37 149 40 139"/>
<path stroke-width="1" stroke="black" d="M 40 139 30 104"/>
<path stroke-width="1" stroke="black" d="M 40 139 37 149"/>
<path stroke-width="1" stroke="black" d="M 40 139 69 143"/>
<path stroke-width="1" stroke="black" d="M 86 44 50 69"/>
<path stroke-width="1" stroke="black" d="M 401 318 420 320"/>
<circle cx="190" cy="65" r="7.0" style="fill:red;stroke:black;stroke-width:1.0"/>
<circle cx="185" cy="56" r="7.0" style="fill:red;stroke:black;stroke-width:1.0"/>
<circle cx="174" cy="27" r="7.0" style="fill:green;stroke:black;stroke-width:1.0"/>
<circle cx="166" cy="31" r="7.0" style="fill:green;stroke:black;stroke-width:1.0"/>
<circle cx="128" cy="20" r="7.0" style="fill:orange;stroke:black;stroke-width:1.0"/>
<circle cx="127" cy="31" r="7.0" style="fill:orange;stroke:black;stroke-width:1.0"/>
<circle cx="80" cy="37" r="7.0" style="fill:purple;stroke:black;stroke-width:1.0"/>
<circle cx="86" cy="44" r="7.0" style="fill:purple;stroke:black;stroke-width:1.0"/>
<circle cx="43" cy="65" r="7.0" style="fill:yellow;stroke:black;stroke-width:1.0"/>
<circle cx="50" cy="69" r="7.0" style="fill:yellow;stroke:black;stroke-width:1.0"/>
<circle cx="20" cy="105" r="7.0" style="fill:fuchsia;stroke:black;stroke-width:1.0"/>
<circle cx="30" cy="104" r="7.0" style="fill:fuchsia;stroke:black;stroke-width:1.0"/>
<circle cx="37" cy="149" r="7.0" style="fill:olive;stroke:black;stroke-width:1.0"/>
<circle cx="40" cy="139" r="7.0" style="fill:olive;stroke:black;stroke-width:1.0"/>
<circle cx="67" cy="132" r="7.0" style="fill:aqua;stroke:black;stroke-width:1.0"/>
<circle cx="69" cy="143" r="7.0" style="fill:aqua;stroke:black;stroke-width:1.0"/>
<circle cx="97" cy="165" r="7.0" style="fill:brown;stroke:black;stroke-width:1.0"/>
<circle cx="97" cy="176" r="7.0" style="fill:brown;stroke:black;stroke-width:1.0"/>
<circle cx="114" cy="221" r="7.0" style="fill:blue;stroke:black;stroke-width:1.0"/>
<circle cx="124" cy="222" r="7.0" style="fill:blue;stroke:black;stroke-width:1.0"/>
<circle cx="158" cy="269" r="7.0" style="fill:red;stroke:black;stroke-width:1.0"/>
<circle cx="168" cy="263" r="7.0" style="fill:red;stroke:black;stroke-width:1.0"/>
<circle cx="220" cy="299" r="7.0" style="fill:green;stroke:black;stroke-width:1.0"/>
<circle cx="226" cy="290" r="7.0" style="fill:green;stroke:black;stroke-width:1.0"/>
<circle cx="292" cy="298" r="7.0" style="fill:orange;stroke:black;stroke-width:1.0"/>
<circle cx="289" cy="305" r="7.0" style="fill:orange;stroke:black;stroke-width:1.0"/>
<circle cx="363" cy="313" r="7.0" style="fill:blue;stroke:black;stroke-width:1.0"/>
<circle cx="351" cy="312" r="7.0" style="fill:blue;stroke:black;stroke-width:1.0"/>
<circle cx="420" cy="320" r="7.0" style="fill:blue;stroke:black;stroke-width:1.0"/>
<circle cx="401" cy="318" r="7.0" style="fill:blue;stroke:black;stroke-width:1.0"/>
</svg>
