<svg width="440" height="340" xmlns="http://www.w3.org/2000/svg">
<path stroke-width="1" stroke="black" d="M 20 252 38 260"/>
<path stroke-width="1" stroke="black" d="M 270 50 273 65"/>
<path stroke-width="1" stroke="black" d="M 273 65 212 94"/>
<path stroke-width="1" stroke="black" d="M 273 65 270 50"/>
<path stroke-width="1" stroke="black" d="M 273 65 343 91"/>
<path stroke-width="1" stroke="black" d="M 358 85 343 91"/>
<path stroke-width="1" stroke="black" d="M 343 91 273 65"/>
<path stroke-width="1" stroke="black" d="M 343 91 358 85"/>
<path stroke-width="1" stroke="black" d="M 343 91 400 130"/>
<path stroke-width="1" stroke="black" d="M 415 137 400 130"/>
<path stroke-width="1" stroke="black" d="M 400 130 343 91"/>
<path stroke-width="1" stroke="black" d="M 400 130 415 137"/>
<path stroke-width="1" stroke="black" d="M 400 130 368 151"/>
<path stroke-width="1" stroke="black" d="M 366 164 368 151"/>
<path stroke-width="1" stroke="black" d="M 368 151 400 130"/>
<path stroke-width="1" stroke="black" d="M 368 151 366 164"/>
<path stroke-width="1" stroke="black" d="M 368 151 356 116"/>
<path stroke-width="1" stroke="black" d="M 332 121 356 116"/>
<path stroke-width="1" stroke="black" d="M 356 116 368 151"/>
<path stroke-width="1" stroke="black" d="M 356 116 332 121"/>
<path stroke-width="1" stroke="black" d="M 356 116 395 73"/>
<path stroke-width="1" stroke="black" d="M 393 64 395 73"/>
<path stroke-width="1" stroke="black" d="M 395 73 356 116"/>
<path stroke-width="1" stroke="black" d="M 395 73 393 64"/>
<path stroke-width="1" stroke="black" d="M 395 73 414 35"/>
<path stroke-width="1" stroke="black" d="M 420 20 414 35"/>
<path stroke-width="1" stroke="black" d="M 212 94 273 65"/>
<path stroke-width="1" stroke="black" d="M 212 94 200 84"/>
<path stroke-width="1" stroke="black" d="M 212 94 212 146"/>
<path stroke-width="1" stroke="black" d="M 200 84 212 94"/>
<path stroke-width="1" stroke="black" d="M 38 260 20 252"/>
<path stroke-width="1" stroke="black" d="M 38 260 101 286"/>
<path stroke-width="1" stroke="black" d="M 83 282 101 286"/>
<path stroke-width="1" stroke="black" d="M 101 286 38 260"/>
<path stroke-width="1" stroke="black" d="M 101 286 83 282"/>
<path stroke-width="1" stroke="black" d="M 101 286 181 308"/>
<path stroke-width="1" stroke="black" d="M 181 320 181 308"/>
<path stroke-width="1" stroke="black" d="M 181 308 101 286"/>
<path stroke-width="1" stroke="black" d="M 181 308 181 320"/>
<path stroke-width="1" stroke="black" d="M 181 308 264 296"/>
<path stroke-width="1" stroke="black" d="M 281 306 264 296"/>
<path stroke-width="1" stroke="black" d="M 264 296 181 308"/>
<path stroke-width="1" stroke="black" d="M 414 35 395 73"/>
<path stroke-width="1" stroke="black" d="M 264 296 281 306"/>
<path stroke-width="1" stroke="black" d="M 298 258 277 252"/>
<path stroke-width="1" stroke="black" d="M 277 252 264 296"/>
<path stroke-width="1" stroke="black" d="M 277 252 298 258"/>
<path stroke-width="1" stroke="black" d="M 277 252 241 199"/>
<path stroke-width="1" stroke="black" d="M 261 198 241 199"/>
<path stroke-width="1" stroke="black" d="M 241 199 277 252"/>
<path stroke-width="1" stroke="black" d="M 241 199 261 198"/>
<path stroke-width="1" stroke="black" d="M 241 199 212 146"/>
<path stroke-width="1" stroke="black" d="M 186 140 212 146"/>
<path stroke-width="1" stroke="black" d="M 212 146 241 199"/>
<path stroke-width="1" stroke="black" d="M 212 146 186 140"/>
<path stroke-width="1" stroke="black" d="M 212 146 212 94"/>
<path stroke-width="1" stroke="black" d="M 264 296 277 252"/>
<path stroke-width="1" stroke="black" d="M 414 35 420 20"/>
<circle cx="20" cy="252" r="7.0" style="fill:red;stroke:black;stroke-width:1.0"/>
<circle cx="38" cy="260" r="7.0" style="fill:red;stroke:black;stroke-width:1.0"/>
<circle cx="83" cy="282" r="7.0" style="fill:green;stroke:black;stroke-width:1.0"/>
<circle cx="101" cy="286" r="7.0" style="fill:green;stroke:black;stroke-width:1.0"/>
<circle cx="181" cy="320" r="7.0" style="fill:orange;stroke:black;stroke-width:1.0"/>
<circle cx="181" cy="308" r="7.0" style="fill:orange;stroke:black;stroke-width:1.0"/>
<circle cx="281" cy="306" r="7.0" style="fill:purple;stroke:black;stroke-width:1.0"/>
<circle cx="264" cy="296" r="7.0" style="fill:purple;stroke:black;stroke-width:1.0"/>
<circle cx="298" cy="258" r="7.0" style="fill:yellow;stroke:black;stroke-width:1.0"/>
<circle cx="277" cy="252" r="7.0" style="fill:yellow;stroke:black;stroke-width:1.0"/>
<circle cx="261" cy="198" r="7.0" style="fill:fuchsia;stroke:black;stroke-width:1.0"/>
<circle cx="241" cy="199" r="7.0" style="fill:fuchsia;stroke:black;stroke-width:1.0"/>
<circle cx="186" cy="140" r="7.0" style="fill:olive;stroke:black;stroke-width:1.0"/>
<circle cx="212" cy="146" r="7.0" style="fill:olive;stroke:black;stroke-width:1.0"/>
<circle cx="200" cy="84" r="7.0" style="fill:aqua;stroke:black;stroke-width:1.0"/>
<circle cx="212" cy="94" r="7.0" style="fill:aqua;stroke:black;stroke-width:1.0"/>
<circle cx="270" cy="50" r="7.0" style="fill:brown;stroke:black;stroke-width:1.0"/>
<circle cx="273" cy="65" r="7.0" style="fill:brown;stroke:black;stroke-width:1.0"/>
<circle cx="358" cy="85" r="7.0" style="fill:blue;stroke:black;stroke-width:1.0"/>
<circle cx="343" cy="91" r="7.0" style="fill:blue;stroke:black;stroke-width:1.0"/>
<circle cx="415" cy="137" r="7.0" style="fill:red;stroke:black;stroke-width:1.0"/>
<circle cx="400" cy="130" r="7.0" style="fill:red;stroke:black;stroke-width:1.0"/>
<circle cx="366" cy="164" r="7.0" style="fill:green;stroke:black;stroke-width:1.0"/>
<circle cx="368" cy="151" r="7.0" style="fill:green;stroke:black;stroke-width:1.0"/>
<circle cx="332" cy="121" r="7.0" style="fill:orange;stroke:black;stroke-width:1.0"/>
<circle cx="356" cy="116" r="7.0" style="fill:orange;stroke:black;stroke-width:1.0"/>
<circle cx="393" cy="64" r="7.0" style="fill:blue;stroke:black;stroke-width:1.0"/>
<circle cx="395" cy="73" r="7.0" style="fill:blue;stroke:black;stroke-width:1.0"/>
<circle cx="420" cy="20" r="7.0" style="fill:blue;stroke:black;stroke-width:1.0"/>
<circle cx="414" cy="35" r="7.0" style="fill:blue;stroke:black;stroke-width:1.0"/>
</svg>
