<svg width="440" height="340" xmlns="http://www.w3.org/2000/svg">
<path stroke-width="20.0" stroke="black" d="M 175 204 112 320"/>
<path stroke-width="0.5" stroke="black" d="M 20 96 112 320"/>
<path stroke-width="20.0" stroke="black" d="M 20 96 175 204"/>
<path stroke-width="0.5" stroke="black" d="M 340 20 20 96"/>
<path stroke-width="0.5" stroke="black" d="M 340 20 420 275"/>
<path stroke-width="0.5" stroke="black" d="M 340 20 112 320"/>
<path stroke-width="20.0" stroke="black" d="M 340 20 175 204"/>
<path stroke-width="0.5" stroke="black" d="M 420 275 20 96"/>
<path stroke-width="0.5" stroke="black" d="M 420 275 340 20"/>
<path stroke-width="0.5" stroke="black" d="M 420 275 112 320"/>
<path stroke-width="20.0" stroke="black" d="M 420 275 175 204"/>
<path stroke-width="0.5" stroke="black" d="M 112 320 20 96"/>
<path stroke-width="0.5" stroke="black" d="M 112 320 340 20"/>
<path stroke-width="0.5" stroke="black" d="M 112 320 420 275"/>
<path stroke-width="20.0" stroke="black" d="M 112 320 175 204"/>
<path stroke-width="20.0" stroke="black" d="M 175 204 20 96"/>
<path stroke-width="20.0" stroke="black" d="M 175 204 340 20"/>
<path stroke-width="20.0" stroke="black" d="M 175 204 420 275"/>
<path stroke-width="0.5" stroke="black" d="M 20 96 420 275"/>
<path stroke-width="0.5" stroke="black" d="M 20 96 340 20"/>
<circle cx="175" cy="204" r="7.0" style="fill:gray;stroke:black;stroke-width:1.0"/>
<circle cx="112" cy="320" r="7.0" style="fill:gray;stroke:black;stroke-width:1.0"/>
<circle cx="420" cy="275" r="7.0" style="fill:gray;stroke:black;stroke-width:1.0"/>
<circle cx="340" cy="20" r="7.0" style="fill:gray;stroke:black;stroke-width:1.0"/>
<circle cx="20" cy="96" r="7.0" style="fill:gray;stroke:black;stroke-width:1.0"/>
</svg>
