<svg width="440" height="340" xmlns="http://www.w3.org/2000/svg">
<path stroke-width="0.5" stroke="black" d="M 304 20 88 115"/>
<path stroke-width="0.5" stroke="black" d="M 333 320 20 221"/>
<path stroke-width="0.5" stroke="black" d="M 155 315 304 20"/>
<path stroke-width="0.5" stroke="black" d="M 155 315 88 115"/>
<path stroke-width="20.0" stroke="black" d="M 155 315 213 154"/>
<path stroke-width="0.5" stroke="black" d="M 155 315 333 320"/>
<path stroke-width="0.5" stroke="black" d="M 155 315 420 132"/>
<path stroke-width="0.5" stroke="black" d="M 155 315 20 221"/>
<path stroke-width="0.5" stroke="black" d="M 420 132 304 20"/>
<path stroke-width="0.5" stroke="black" d="M 420 132 88 115"/>
<path stroke-width="20.0" stroke="black" d="M 420 132 213 154"/>
<path stroke-width="0.5" stroke="black" d="M 420 132 333 320"/>
<path stroke-width="0.5" stroke="black" d="M 420 132 155 315"/>
<path stroke-width="0.5" stroke="black" d="M 420 132 20 221"/>
<path stroke-width="0.5" stroke="black" d="M 20 221 304 20"/>
<path stroke-width="0.5" stroke="black" d="M 20 221 88 115"/>
<path stroke-width="20.0" stroke="black" d="M 20 221 213 154"/>
<path stroke-width="0.5" stroke="black" d="M 20 221 333 320"/>
<path stroke-width="0.5" stroke="black" d="M 333 320 420 132"/>
<path stroke-width="0.5" stroke="black" d="M 333 320 155 315"/>
<path stroke-width="20.0" stroke="black" d="M 333 320 213 154"/>
<path stroke-width="0.5" stroke="black" d="M 333 320 88 115"/>
<path stroke-width="20.0" stroke="black" d="M 304 20 213 154"/>
<path stroke-width="0.5" stroke="black" d="M 304 20 333 320"/>
<path stroke-width="0.5" stroke="black" d="M 304 20 155 315"/>
<path stroke-width="0.5" stroke="black" d="M 304 20 420 132"/>
<path stroke-width="0.5" stroke="black" d="M 304 20 20 221"/>
<path stroke-width="0.5" stroke="black" d="M 88 115 304 20"/>
<path stroke-width="20.0" stroke="black" d="M 88 115 213 154"/>
<path stroke-width="0.5" stroke="black" d="M 88 115 333 320"/>
<path stroke-width="0.5" stroke="black" d="M 20 221 155 315"/>
<path stroke-width="0.5" stroke="black" d="M 88 115 155 315"/>
<path stroke-width="0.5" stroke="black" d="M 88 115 20 221"/>
<path stroke-width="20.0" stroke="black" d="M 213 154 304 20"/>
<path stroke-width="20.0" stroke="black" d="M 213 154 88 115"/>
<path stroke-width="20.0" stroke="black" d="M 213 154 333 320"/>
<path stroke-width="20.0" stroke="black" d="M 213 154 155 315"/>
<path stroke-width="20.0" stroke="black" d="M 213 154 420 132"/>
<path stroke-width="20.0" stroke="black" d="M 213 154 20 221"/>
<path stroke-width="0.5" stroke="black" d="M 333 320 304 20"/>
<path stroke-width="0.5" stroke="black" d="M 88 115 420 132"/>
<path stroke-width="0.5" stroke="black" d="M 20 221 420 132"/>
<circle cx="304" cy="20" r="7.0" style="fill:gray;stroke:black;stroke-width:1.0"/>
<circle cx="88" cy="115" r="7.0" style="fill:gray;stroke:black;stroke-width:1.0"/>
<circle cx="213" cy="154" r="7.0" style="fill:gray;stroke:black;stroke-width:1.0"/>
<circle cx="333" cy="320" r="7.0" style="fill:gray;stroke:black;stroke-width:1.0"/>
<circle cx="155" cy="315" r="7.0" style="fill:gray;stroke:black;stroke-width:1.0"/>
<circle cx="420" cy="132" r="7.0" style="fill:gray;stroke:black;stroke-width:1.0"/>
<circle cx="20" cy="221" r="7.0" style="fill:gray;stroke:black;stroke-width:1.0"/>
</svg>
