<svg width="440" height="340" xmlns="http://www.w3.org/2000/svg">
<path stroke-width="0.5" stroke="black" d="M 420 226 20 142"/>
<path stroke-width="0.5" stroke="black" d="M 236 320 114 227"/>
<path stroke-width="0.5" stroke="black" d="M 199 20 420 226"/>
<path stroke-width="0.5" stroke="black" d="M 199 20 20 142"/>
<path stroke-width="20.0" stroke="black" d="M 199 20 224 139"/>
<path stroke-width="0.5" stroke="black" d="M 199 20 236 320"/>
<path stroke-width="0.5" stroke="black" d="M 199 20 393 63"/>
<path stroke-width="0.5" stroke="black" d="M 199 20 114 227"/>
<path stroke-width="0.5" stroke="black" d="M 393 63 420 226"/>
<path stroke-width="0.5" stroke="black" d="M 393 63 20 142"/>
<path stroke-width="20.0" stroke="black" d="M 393 63 224 139"/>
<path stroke-width="0.5" stroke="black" d="M 393 63 236 320"/>
<path stroke-width="0.5" stroke="black" d="M 393 63 199 20"/>
<path stroke-width="0.5" stroke="black" d="M 393 63 114 227"/>
<path stroke-width="0.5" stroke="black" d="M 114 227 420 226"/>
<path stroke-width="0.5" stroke="black" d="M 114 227 20 142"/>
<path stroke-width="20.0" stroke="black" d="M 114 227 224 139"/>
<path stroke-width="0.5" stroke="black" d="M 114 227 236 320"/>
<path stroke-width="0.5" stroke="black" d="M 236 320 393 63"/>
<path stroke-width="0.5" stroke="black" d="M 236 320 199 20"/>
<path stroke-width="20.0" stroke="black" d="M 236 320 224 139"/>
<path stroke-width="0.5" stroke="black" d="M 236 320 20 142"/>
<path stroke-width="20.0" stroke="black" d="M 420 226 224 139"/>
<path stroke-width="0.5" stroke="black" d="M 420 226 236 320"/>
<path stroke-width="0.5" stroke="black" d="M 420 226 199 20"/>
<path stroke-width="0.5" stroke="black" d="M 420 226 393 63"/>
<path stroke-width="0.5" stroke="black" d="M 420 226 114 227"/>
<path stroke-width="0.5" stroke="black" d="M 20 142 420 226"/>
<path stroke-width="20.0" stroke="black" d="M 20 142 224 139"/>
<path stroke-width="0.5" stroke="black" d="M 20 142 236 320"/>
<path stroke-width="0.5" stroke="black" d="M 114 227 199 20"/>
<path stroke-width="0.5" stroke="black" d="M 20 142 199 20"/>
<path stroke-width="0.5" stroke="black" d="M 20 142 114 227"/>
<path stroke-width="20.0" stroke="black" d="M 224 139 420 226"/>
<path stroke-width="20.0" stroke="black" d="M 224 139 20 142"/>
<path stroke-width="20.0" stroke="black" d="M 224 139 236 320"/>
<path stroke-width="20.0" stroke="black" d="M 224 139 199 20"/>
<path stroke-width="20.0" stroke="black" d="M 224 139 393 63"/>
<path stroke-width="20.0" stroke="black" d="M 224 139 114 227"/>
<path stroke-width="0.5" stroke="black" d="M 236 320 420 226"/>
<path stroke-width="0.5" stroke="black" d="M 20 142 393 63"/>
<path stroke-width="0.5" stroke="black" d="M 114 227 393 63"/>
<circle cx="420" cy="226" r="20.0" style="fill:gray;stroke:black;stroke-width:1.0"/>
<circle cx="20" cy="142" r="20.0" style="fill:gray;stroke:black;stroke-width:1.0"/>
<circle cx="224" cy="139" r="20.0" style="fill:gray;stroke:black;stroke-width:1.0"/>
<circle cx="236" cy="320" r="20.0" style="fill:gray;stroke:black;stroke-width:1.0"/>
<circle cx="199" cy="20" r="20.0" style="fill:gray;stroke:black;stroke-width:1.0"/>
<circle cx="393" cy="63" r="20.0" style="fill:gray;stroke:black;stroke-width:1.0"/>
<circle cx="114" cy="227" r="20.0" style="fill:gray;stroke:black;stroke-width:1.0"/>
</svg>
