<svg width="440" height="340" xmlns="http://www.w3.org/2000/svg">
<path stroke-width="20.0" stroke="black" d="M 108 164 152 183"/>
<path stroke-width="0.5" stroke="black" d="M 136 132 210 106"/>
<path stroke-width="0.7468354430379747" stroke="black" d="M 136 132 157 259"/>
<path stroke-width="0.7468354430379747" stroke="black" d="M 136 132 333 176"/>
<path stroke-width="10.126582278481013" stroke="black" d="M 136 132 104 100"/>
<path stroke-width="0.7468354430379747" stroke="black" d="M 136 132 230 237"/>
<path stroke-width="0.7468354430379747" stroke="black" d="M 136 132 106 226"/>
<path stroke-width="0.7468354430379747" stroke="black" d="M 136 132 274 212"/>
<path stroke-width="1.4873417721518987" stroke="black" d="M 136 132 35 182"/>
<path stroke-width="0.7468354430379747" stroke="black" d="M 136 132 253 172"/>
<path stroke-width="0.7468354430379747" stroke="black" d="M 136 132 152 183"/>
<path stroke-width="6.177215189873418" stroke="black" d="M 420 168 333 176"/>
<path stroke-width="10.126582278481013" stroke="black" d="M 104 100 136 132"/>
<path stroke-width="0.7468354430379747" stroke="black" d="M 230 237 157 259"/>
<path stroke-width="0.7468354430379747" stroke="black" d="M 230 237 333 176"/>
<path stroke-width="0.7468354430379747" stroke="black" d="M 230 237 136 132"/>
<path stroke-width="12.10126582278481" stroke="black" d="M 230 237 268 282"/>
<path stroke-width="0.7468354430379747" stroke="black" d="M 230 237 106 226"/>
<path stroke-width="1.4873417721518987" stroke="black" d="M 230 237 274 212"/>
<path stroke-width="0.7468354430379747" stroke="black" d="M 230 237 35 182"/>
<path stroke-width="0.7468354430379747" stroke="black" d="M 230 237 253 172"/>
<path stroke-width="0.7468354430379747" stroke="black" d="M 230 237 152 183"/>
<path stroke-width="12.10126582278481" stroke="black" d="M 268 282 230 237"/>
<path stroke-width="0.7468354430379747" stroke="black" d="M 230 237 210 106"/>
<path stroke-width="0.7468354430379747" stroke="black" d="M 333 176 152 183"/>
<path stroke-width="1.4873417721518987" stroke="black" d="M 333 176 253 172"/>
<path stroke-width="0.7468354430379747" stroke="black" d="M 333 176 35 182"/>
<path stroke-width="0.7468354430379747" stroke="black" d="M 210 106 230 237"/>
<path stroke-width="0.7468354430379747" stroke="black" d="M 210 106 106 226"/>
<path stroke-width="0.7468354430379747" stroke="black" d="M 210 106 274 212"/>
<path stroke-width="0.7468354430379747" stroke="black" d="M 210 106 35 182"/>
<path stroke-width="0.7468354430379747" stroke="black" d="M 210 106 253 172"/>
<path stroke-width="0.7468354430379747" stroke="black" d="M 210 106 152 183"/>
<path stroke-width="2.227848101265823" stroke="black" d="M 223 20 210 106"/>
<path stroke-width="5.189873417721519" stroke="black" d="M 157 259 132 320"/>
<path stroke-width="0.7468354430379747" stroke="black" d="M 157 259 333 176"/>
<path stroke-width="0.7468354430379747" stroke="black" d="M 157 259 136 132"/>
<path stroke-width="0.7468354430379747" stroke="black" d="M 157 259 230 237"/>
<path stroke-width="0.7468354430379747" stroke="black" d="M 157 259 106 226"/>
<path stroke-width="0.7468354430379747" stroke="black" d="M 157 259 274 212"/>
<path stroke-width="0.7468354430379747" stroke="black" d="M 157 259 35 182"/>
<path stroke-width="0.7468354430379747" stroke="black" d="M 157 259 253 172"/>
<path stroke-width="1.4873417721518987" stroke="black" d="M 157 259 152 183"/>
<path stroke-width="5.189873417721519" stroke="black" d="M 132 320 157 259"/>
<path stroke-width="0.7468354430379747" stroke="black" d="M 333 176 157 259"/>
<path stroke-width="6.177215189873418" stroke="black" d="M 333 176 420 168"/>
<path stroke-width="0.7468354430379747" stroke="black" d="M 333 176 136 132"/>
<path stroke-width="0.7468354430379747" stroke="black" d="M 333 176 230 237"/>
<path stroke-width="0.7468354430379747" stroke="black" d="M 333 176 106 226"/>
<path stroke-width="0.7468354430379747" stroke="black" d="M 333 176 274 212"/>
<path stroke-width="0.7468354430379747" stroke="black" d="M 106 226 210 106"/>
<path stroke-width="0.7468354430379747" stroke="black" d="M 106 226 157 259"/>
<path stroke-width="0.7468354430379747" stroke="black" d="M 106 226 333 176"/>
<path stroke-width="0.7468354430379747" stroke="black" d="M 106 226 136 132"/>
<path stroke-width="0.7468354430379747" stroke="black" d="M 35 182 152 183"/>
<path stroke-width="17.037974683544302" stroke="black" d="M 20 179 35 182"/>
<path stroke-width="0.7468354430379747" stroke="black" d="M 253 172 210 106"/>
<path stroke-width="0.7468354430379747" stroke="black" d="M 253 172 157 259"/>
<path stroke-width="1.4873417721518987" stroke="black" d="M 253 172 333 176"/>
<path stroke-width="0.7468354430379747" stroke="black" d="M 253 172 136 132"/>
<path stroke-width="0.7468354430379747" stroke="black" d="M 253 172 230 237"/>
<path stroke-width="0.7468354430379747" stroke="black" d="M 253 172 106 226"/>
<path stroke-width="0.7468354430379747" stroke="black" d="M 253 172 274 212"/>
<path stroke-width="0.7468354430379747" stroke="black" d="M 253 172 35 182"/>
<path stroke-width="19.0126582278481" stroke="black" d="M 253 172 288 163"/>
<path stroke-width="0.7468354430379747" stroke="black" d="M 253 172 152 183"/>
<path stroke-width="19.0126582278481" stroke="black" d="M 288 163 253 172"/>
<path stroke-width="0.7468354430379747" stroke="black" d="M 152 183 210 106"/>
<path stroke-width="1.4873417721518987" stroke="black" d="M 152 183 157 259"/>
<path stroke-width="0.7468354430379747" stroke="black" d="M 152 183 333 176"/>
<path stroke-width="0.7468354430379747" stroke="black" d="M 152 183 136 132"/>
<path stroke-width="0.7468354430379747" stroke="black" d="M 152 183 230 237"/>
<path stroke-width="0.7468354430379747" stroke="black" d="M 152 183 106 226"/>
<path stroke-width="0.7468354430379747" stroke="black" d="M 152 183 274 212"/>
<path stroke-width="0.7468354430379747" stroke="black" d="M 152 183 35 182"/>
<path stroke-width="0.7468354430379747" stroke="black" d="M 152 183 253 172"/>
<path stroke-width="20.0" stroke="black" d="M 152 183 108 164"/>
<path stroke-width="0.7468354430379747" stroke="black" d="M 35 182 253 172"/>
<path stroke-width="0.5" stroke="black" d="M 210 106 136 132"/>
<path stroke-width="17.037974683544302" stroke="black" d="M 35 182 20 179"/>
<path stroke-width="0.7468354430379747" stroke="black" d="M 35 182 106 226"/>
<path stroke-width="0.7468354430379747" stroke="black" d="M 106 226 230 237"/>
<path stroke-width="11.113924050632912" stroke="black" d="M 106 226 54 248"/>
<path stroke-width="0.7468354430379747" stroke="black" d="M 106 226 274 212"/>
<path stroke-width="0.7468354430379747" stroke="black" d="M 106 226 35 182"/>
<path stroke-width="0.7468354430379747" stroke="black" d="M 106 226 253 172"/>
<path stroke-width="0.7468354430379747" stroke="black" d="M 106 226 152 183"/>
<path stroke-width="11.113924050632912" stroke="black" d="M 54 248 106 226"/>
<path stroke-width="0.7468354430379747" stroke="black" d="M 274 212 210 106"/>
<path stroke-width="0.7468354430379747" stroke="black" d="M 274 212 157 259"/>
<path stroke-width="0.7468354430379747" stroke="black" d="M 274 212 333 176"/>
<path stroke-width="0.7468354430379747" stroke="black" d="M 274 212 136 132"/>
<path stroke-width="1.4873417721518987" stroke="black" d="M 274 212 230 237"/>
<path stroke-width="0.7468354430379747" stroke="black" d="M 274 212 106 226"/>
<path stroke-width="15.063291139240507" stroke="black" d="M 274 212 344 232"/>
<path stroke-width="0.7468354430379747" stroke="black" d="M 274 212 35 182"/>
<path stroke-width="0.7468354430379747" stroke="black" d="M 274 212 253 172"/>
<path stroke-width="0.7468354430379747" stroke="black" d="M 274 212 152 183"/>
<path stroke-width="15.063291139240507" stroke="black" d="M 344 232 274 212"/>
<path stroke-width="0.7468354430379747" stroke="black" d="M 35 182 210 106"/>
<path stroke-width="0.7468354430379747" stroke="black" d="M 35 182 157 259"/>
<path stroke-width="0.7468354430379747" stroke="black" d="M 35 182 333 176"/>
<path stroke-width="1.4873417721518987" stroke="black" d="M 35 182 136 132"/>
<path stroke-width="0.7468354430379747" stroke="black" d="M 35 182 230 237"/>
<path stroke-width="0.7468354430379747" stroke="black" d="M 35 182 274 212"/>
<path stroke-width="2.227848101265823" stroke="black" d="M 210 106 223 20"/>
<circle cx="108" cy="164" r="20.0" style="fill:orange;stroke:black;stroke-width:1.0"/>
<circle cx="152" cy="183" r="20.0" style="fill:orange;stroke:black;stroke-width:1.0"/>
<circle cx="288" cy="163" r="20.0" style="fill:purple;stroke:black;stroke-width:1.0"/>
<circle cx="253" cy="172" r="20.0" style="fill:purple;stroke:black;stroke-width:1.0"/>
<circle cx="20" cy="179" r="20.0" style="fill:green;stroke:black;stroke-width:1.0"/>
<circle cx="35" cy="182" r="20.0" style="fill:green;stroke:black;stroke-width:1.0"/>
<circle cx="344" cy="232" r="20.0" style="fill:blue;stroke:black;stroke-width:1.0"/>
<circle cx="274" cy="212" r="20.0" style="fill:blue;stroke:black;stroke-width:1.0"/>
<circle cx="54" cy="248" r="20.0" style="fill:green;stroke:black;stroke-width:1.0"/>
<circle cx="106" cy="226" r="20.0" style="fill:green;stroke:black;stroke-width:1.0"/>
<circle cx="268" cy="282" r="20.0" style="fill:green;stroke:black;stroke-width:1.0"/>
<circle cx="230" cy="237" r="20.0" style="fill:green;stroke:black;stroke-width:1.0"/>
<circle cx="104" cy="100" r="20.0" style="fill:red;stroke:black;stroke-width:1.0"/>
<circle cx="136" cy="132" r="20.0" style="fill:red;stroke:black;stroke-width:1.0"/>
<circle cx="420" cy="168" r="20.0" style="fill:purple;stroke:black;stroke-width:1.0"/>
<circle cx="333" cy="176" r="20.0" style="fill:purple;stroke:black;stroke-width:1.0"/>
<circle cx="132" cy="320" r="20.0" style="fill:red;stroke:black;stroke-width:1.0"/>
<circle cx="157" cy="259" r="20.0" style="fill:red;stroke:black;stroke-width:1.0"/>
<circle cx="223" cy="20" r="20.0" style="fill:green;stroke:black;stroke-width:1.0"/>
<circle cx="210" cy="106" r="20.0" style="fill:green;stroke:black;stroke-width:1.0"/>
</svg>
