<svg width="440" height="340" xmlns="http://www.w3.org/2000/svg">
<path stroke-width="20.0" stroke="black" d="M 298 129 265 129"/>
<path stroke-width="0.5" stroke="black" d="M 255 169 287 227"/>
<path stroke-width="0.7468354430379747" stroke="black" d="M 255 169 324 64"/>
<path stroke-width="0.7468354430379747" stroke="black" d="M 255 169 124 123"/>
<path stroke-width="10.126582278481013" stroke="black" d="M 255 169 268 201"/>
<path stroke-width="0.7468354430379747" stroke="black" d="M 255 169 358 165"/>
<path stroke-width="0.7468354430379747" stroke="black" d="M 255 169 179 175"/>
<path stroke-width="0.7468354430379747" stroke="black" d="M 255 169 359 123"/>
<path stroke-width="1.4873417721518987" stroke="black" d="M 255 169 236 99"/>
<path stroke-width="0.7468354430379747" stroke="black" d="M 255 169 177 108"/>
<path stroke-width="0.7468354430379747" stroke="black" d="M 255 169 265 129"/>
<path stroke-width="6.177215189873418" stroke="black" d="M 20 118 124 123"/>
<path stroke-width="10.126582278481013" stroke="black" d="M 268 201 255 169"/>
<path stroke-width="0.7468354430379747" stroke="black" d="M 358 165 324 64"/>
<path stroke-width="0.7468354430379747" stroke="black" d="M 358 165 124 123"/>
<path stroke-width="0.7468354430379747" stroke="black" d="M 358 165 255 169"/>
<path stroke-width="12.10126582278481" stroke="black" d="M 358 165 420 184"/>
<path stroke-width="0.7468354430379747" stroke="black" d="M 358 165 179 175"/>
<path stroke-width="1.4873417721518987" stroke="black" d="M 358 165 359 123"/>
<path stroke-width="0.7468354430379747" stroke="black" d="M 358 165 236 99"/>
<path stroke-width="0.7468354430379747" stroke="black" d="M 358 165 177 108"/>
<path stroke-width="0.7468354430379747" stroke="black" d="M 358 165 265 129"/>
<path stroke-width="12.10126582278481" stroke="black" d="M 420 184 358 165"/>
<path stroke-width="0.7468354430379747" stroke="black" d="M 358 165 287 227"/>
<path stroke-width="0.7468354430379747" stroke="black" d="M 124 123 265 129"/>
<path stroke-width="1.4873417721518987" stroke="black" d="M 124 123 177 108"/>
<path stroke-width="0.7468354430379747" stroke="black" d="M 124 123 236 99"/>
<path stroke-width="0.7468354430379747" stroke="black" d="M 287 227 358 165"/>
<path stroke-width="0.7468354430379747" stroke="black" d="M 287 227 179 175"/>
<path stroke-width="0.7468354430379747" stroke="black" d="M 287 227 359 123"/>
<path stroke-width="0.7468354430379747" stroke="black" d="M 287 227 236 99"/>
<path stroke-width="0.7468354430379747" stroke="black" d="M 287 227 177 108"/>
<path stroke-width="0.7468354430379747" stroke="black" d="M 287 227 265 129"/>
<path stroke-width="2.227848101265823" stroke="black" d="M 312 320 287 227"/>
<path stroke-width="5.189873417721519" stroke="black" d="M 324 64 361 20"/>
<path stroke-width="0.7468354430379747" stroke="black" d="M 324 64 124 123"/>
<path stroke-width="0.7468354430379747" stroke="black" d="M 324 64 255 169"/>
<path stroke-width="0.7468354430379747" stroke="black" d="M 324 64 358 165"/>
<path stroke-width="0.7468354430379747" stroke="black" d="M 324 64 179 175"/>
<path stroke-width="0.7468354430379747" stroke="black" d="M 324 64 359 123"/>
<path stroke-width="0.7468354430379747" stroke="black" d="M 324 64 236 99"/>
<path stroke-width="0.7468354430379747" stroke="black" d="M 324 64 177 108"/>
<path stroke-width="1.4873417721518987" stroke="black" d="M 324 64 265 129"/>
<path stroke-width="5.189873417721519" stroke="black" d="M 361 20 324 64"/>
<path stroke-width="0.7468354430379747" stroke="black" d="M 124 123 324 64"/>
<path stroke-width="6.177215189873418" stroke="black" d="M 124 123 20 118"/>
<path stroke-width="0.7468354430379747" stroke="black" d="M 124 123 255 169"/>
<path stroke-width="0.7468354430379747" stroke="black" d="M 124 123 358 165"/>
<path stroke-width="0.7468354430379747" stroke="black" d="M 124 123 179 175"/>
<path stroke-width="0.7468354430379747" stroke="black" d="M 124 123 359 123"/>
<path stroke-width="0.7468354430379747" stroke="black" d="M 179 175 287 227"/>
<path stroke-width="0.7468354430379747" stroke="black" d="M 179 175 324 64"/>
<path stroke-width="0.7468354430379747" stroke="black" d="M 179 175 124 123"/>
<path stroke-width="0.7468354430379747" stroke="black" d="M 179 175 255 169"/>
<path stroke-width="0.7468354430379747" stroke="black" d="M 236 99 265 129"/>
<path stroke-width="17.037974683544302" stroke="black" d="M 230 65 236 99"/>
<path stroke-width="0.7468354430379747" stroke="black" d="M 177 108 287 227"/>
<path stroke-width="0.7468354430379747" stroke="black" d="M 177 108 324 64"/>
<path stroke-width="1.4873417721518987" stroke="black" d="M 177 108 124 123"/>
<path stroke-width="0.7468354430379747" stroke="black" d="M 177 108 255 169"/>
<path stroke-width="0.7468354430379747" stroke="black" d="M 177 108 358 165"/>
<path stroke-width="0.7468354430379747" stroke="black" d="M 177 108 179 175"/>
<path stroke-width="0.7468354430379747" stroke="black" d="M 177 108 359 123"/>
<path stroke-width="0.7468354430379747" stroke="black" d="M 177 108 236 99"/>
<path stroke-width="19.0126582278481" stroke="black" d="M 177 108 128 82"/>
<path stroke-width="0.7468354430379747" stroke="black" d="M 177 108 265 129"/>
<path stroke-width="19.0126582278481" stroke="black" d="M 128 82 177 108"/>
<path stroke-width="0.7468354430379747" stroke="black" d="M 265 129 287 227"/>
<path stroke-width="1.4873417721518987" stroke="black" d="M 265 129 324 64"/>
<path stroke-width="0.7468354430379747" stroke="black" d="M 265 129 124 123"/>
<path stroke-width="0.7468354430379747" stroke="black" d="M 265 129 255 169"/>
<path stroke-width="0.7468354430379747" stroke="black" d="M 265 129 358 165"/>
<path stroke-width="0.7468354430379747" stroke="black" d="M 265 129 179 175"/>
<path stroke-width="0.7468354430379747" stroke="black" d="M 265 129 359 123"/>
<path stroke-width="0.7468354430379747" stroke="black" d="M 265 129 236 99"/>
<path stroke-width="0.7468354430379747" stroke="black" d="M 265 129 177 108"/>
<path stroke-width="20.0" stroke="black" d="M 265 129 298 129"/>
<path stroke-width="0.7468354430379747" stroke="black" d="M 236 99 177 108"/>
<path stroke-width="0.5" stroke="black" d="M 287 227 255 169"/>
<path stroke-width="17.037974683544302" stroke="black" d="M 236 99 230 65"/>
<path stroke-width="0.7468354430379747" stroke="black" d="M 236 99 179 175"/>
<path stroke-width="0.7468354430379747" stroke="black" d="M 179 175 358 165"/>
<path stroke-width="11.113924050632912" stroke="black" d="M 179 175 117 204"/>
<path stroke-width="0.7468354430379747" stroke="black" d="M 179 175 359 123"/>
<path stroke-width="0.7468354430379747" stroke="black" d="M 179 175 236 99"/>
<path stroke-width="0.7468354430379747" stroke="black" d="M 179 175 177 108"/>
<path stroke-width="0.7468354430379747" stroke="black" d="M 179 175 265 129"/>
<path stroke-width="11.113924050632912" stroke="black" d="M 117 204 179 175"/>
<path stroke-width="0.7468354430379747" stroke="black" d="M 359 123 287 227"/>
<path stroke-width="0.7468354430379747" stroke="black" d="M 359 123 324 64"/>
<path stroke-width="0.7468354430379747" stroke="black" d="M 359 123 124 123"/>
<path stroke-width="0.7468354430379747" stroke="black" d="M 359 123 255 169"/>
<path stroke-width="1.4873417721518987" stroke="black" d="M 359 123 358 165"/>
<path stroke-width="0.7468354430379747" stroke="black" d="M 359 123 179 175"/>
<path stroke-width="15.063291139240507" stroke="black" d="M 359 123 402 103"/>
<path stroke-width="0.7468354430379747" stroke="black" d="M 359 123 236 99"/>
<path stroke-width="0.7468354430379747" stroke="black" d="M 359 123 177 108"/>
<path stroke-width="0.7468354430379747" stroke="black" d="M 359 123 265 129"/>
<path stroke-width="15.063291139240507" stroke="black" d="M 402 103 359 123"/>
<path stroke-width="0.7468354430379747" stroke="black" d="M 236 99 287 227"/>
<path stroke-width="0.7468354430379747" stroke="black" d="M 236 99 324 64"/>
<path stroke-width="0.7468354430379747" stroke="black" d="M 236 99 124 123"/>
<path stroke-width="1.4873417721518987" stroke="black" d="M 236 99 255 169"/>
<path stroke-width="0.7468354430379747" stroke="black" d="M 236 99 358 165"/>
<path stroke-width="0.7468354430379747" stroke="black" d="M 236 99 359 123"/>
<path stroke-width="2.227848101265823" stroke="black" d="M 287 227 312 320"/>
<circle cx="298" cy="129" r="7.0" style="fill:purple;stroke:black;stroke-width:1.0"/>
<circle cx="265" cy="129" r="7.0" style="fill:purple;stroke:black;stroke-width:1.0"/>
<circle cx="128" cy="82" r="7.0" style="fill:blue;stroke:black;stroke-width:1.0"/>
<circle cx="177" cy="108" r="7.0" style="fill:blue;stroke:black;stroke-width:1.0"/>
<circle cx="230" cy="65" r="7.0" style="fill:red;stroke:black;stroke-width:1.0"/>
<circle cx="236" cy="99" r="7.0" style="fill:red;stroke:black;stroke-width:1.0"/>
<circle cx="402" cy="103" r="7.0" style="fill:orange;stroke:black;stroke-width:1.0"/>
<circle cx="359" cy="123" r="7.0" style="fill:orange;stroke:black;stroke-width:1.0"/>
<circle cx="117" cy="204" r="7.0" style="fill:orange;stroke:black;stroke-width:1.0"/>
<circle cx="179" cy="175" r="7.0" style="fill:orange;stroke:black;stroke-width:1.0"/>
<circle cx="420" cy="184" r="7.0" style="fill:orange;stroke:black;stroke-width:1.0"/>
<circle cx="358" cy="165" r="7.0" style="fill:orange;stroke:black;stroke-width:1.0"/>
<circle cx="268" cy="201" r="7.0" style="fill:green;stroke:black;stroke-width:1.0"/>
<circle cx="255" cy="169" r="7.0" style="fill:red;stroke:black;stroke-width:1.0"/>
<circle cx="20" cy="118" r="7.0" style="fill:green;stroke:black;stroke-width:1.0"/>
<circle cx="124" cy="123" r="7.0" style="fill:green;stroke:black;stroke-width:1.0"/>
<circle cx="361" cy="20" r="7.0" style="fill:purple;stroke:black;stroke-width:1.0"/>
<circle cx="324" cy="64" r="7.0" style="fill:green;stroke:black;stroke-width:1.0"/>
<circle cx="312" cy="320" r="7.0" style="fill:orange;stroke:black;stroke-width:1.0"/>
<circle cx="287" cy="227" r="7.0" style="fill:orange;stroke:black;stroke-width:1.0"/>
</svg>
