<svg width="440" height="340" xmlns="http://www.w3.org/2000/svg">
<path stroke-width="20.0" stroke="black" d="M 367 253 290 230"/>
<path stroke-width="0.5" stroke="black" d="M 324 168 226 103"/>
<path stroke-width="0.7468354430379747" stroke="black" d="M 324 168 239 262"/>
<path stroke-width="0.7468354430379747" stroke="black" d="M 324 168 272 143"/>
<path stroke-width="10.126582278481013" stroke="black" d="M 324 168 420 156"/>
<path stroke-width="0.7468354430379747" stroke="black" d="M 324 168 93 170"/>
<path stroke-width="0.7468354430379747" stroke="black" d="M 324 168 114 226"/>
<path stroke-width="0.7468354430379747" stroke="black" d="M 324 168 190 184"/>
<path stroke-width="1.4873417721518987" stroke="black" d="M 324 168 186 141"/>
<path stroke-width="0.7468354430379747" stroke="black" d="M 324 168 249 207"/>
<path stroke-width="0.7468354430379747" stroke="black" d="M 324 168 290 230"/>
<path stroke-width="6.177215189873418" stroke="black" d="M 324 95 272 143"/>
<path stroke-width="10.126582278481013" stroke="black" d="M 420 156 324 168"/>
<path stroke-width="0.7468354430379747" stroke="black" d="M 93 170 239 262"/>
<path stroke-width="0.7468354430379747" stroke="black" d="M 93 170 272 143"/>
<path stroke-width="0.7468354430379747" stroke="black" d="M 93 170 324 168"/>
<path stroke-width="12.10126582278481" stroke="black" d="M 93 170 20 160"/>
<path stroke-width="0.7468354430379747" stroke="black" d="M 93 170 114 226"/>
<path stroke-width="1.4873417721518987" stroke="black" d="M 93 170 190 184"/>
<path stroke-width="0.7468354430379747" stroke="black" d="M 93 170 186 141"/>
<path stroke-width="0.7468354430379747" stroke="black" d="M 93 170 249 207"/>
<path stroke-width="0.7468354430379747" stroke="black" d="M 93 170 290 230"/>
<path stroke-width="12.10126582278481" stroke="black" d="M 20 160 93 170"/>
<path stroke-width="0.7468354430379747" stroke="black" d="M 93 170 226 103"/>
<path stroke-width="0.7468354430379747" stroke="black" d="M 272 143 290 230"/>
<path stroke-width="1.4873417721518987" stroke="black" d="M 272 143 249 207"/>
<path stroke-width="0.7468354430379747" stroke="black" d="M 272 143 186 141"/>
<path stroke-width="0.7468354430379747" stroke="black" d="M 226 103 93 170"/>
<path stroke-width="0.7468354430379747" stroke="black" d="M 226 103 114 226"/>
<path stroke-width="0.7468354430379747" stroke="black" d="M 226 103 190 184"/>
<path stroke-width="0.7468354430379747" stroke="black" d="M 226 103 186 141"/>
<path stroke-width="0.7468354430379747" stroke="black" d="M 226 103 249 207"/>
<path stroke-width="0.7468354430379747" stroke="black" d="M 226 103 290 230"/>
<path stroke-width="2.227848101265823" stroke="black" d="M 255 20 226 103"/>
<path stroke-width="5.189873417721519" stroke="black" d="M 239 262 267 320"/>
<path stroke-width="0.7468354430379747" stroke="black" d="M 239 262 272 143"/>
<path stroke-width="0.7468354430379747" stroke="black" d="M 239 262 324 168"/>
<path stroke-width="0.7468354430379747" stroke="black" d="M 239 262 93 170"/>
<path stroke-width="0.7468354430379747" stroke="black" d="M 239 262 114 226"/>
<path stroke-width="0.7468354430379747" stroke="black" d="M 239 262 190 184"/>
<path stroke-width="0.7468354430379747" stroke="black" d="M 239 262 186 141"/>
<path stroke-width="0.7468354430379747" stroke="black" d="M 239 262 249 207"/>
<path stroke-width="1.4873417721518987" stroke="black" d="M 239 262 290 230"/>
<path stroke-width="5.189873417721519" stroke="black" d="M 267 320 239 262"/>
<path stroke-width="0.7468354430379747" stroke="black" d="M 272 143 239 262"/>
<path stroke-width="6.177215189873418" stroke="black" d="M 272 143 324 95"/>
<path stroke-width="0.7468354430379747" stroke="black" d="M 272 143 324 168"/>
<path stroke-width="0.7468354430379747" stroke="black" d="M 272 143 93 170"/>
<path stroke-width="0.7468354430379747" stroke="black" d="M 272 143 114 226"/>
<path stroke-width="0.7468354430379747" stroke="black" d="M 272 143 190 184"/>
<path stroke-width="0.7468354430379747" stroke="black" d="M 114 226 226 103"/>
<path stroke-width="0.7468354430379747" stroke="black" d="M 114 226 239 262"/>
<path stroke-width="0.7468354430379747" stroke="black" d="M 114 226 272 143"/>
<path stroke-width="0.7468354430379747" stroke="black" d="M 114 226 324 168"/>
<path stroke-width="0.7468354430379747" stroke="black" d="M 186 141 290 230"/>
<path stroke-width="17.037974683544302" stroke="black" d="M 123 111 186 141"/>
<path stroke-width="0.7468354430379747" stroke="black" d="M 249 207 226 103"/>
<path stroke-width="0.7468354430379747" stroke="black" d="M 249 207 239 262"/>
<path stroke-width="1.4873417721518987" stroke="black" d="M 249 207 272 143"/>
<path stroke-width="0.7468354430379747" stroke="black" d="M 249 207 324 168"/>
<path stroke-width="0.7468354430379747" stroke="black" d="M 249 207 93 170"/>
<path stroke-width="0.7468354430379747" stroke="black" d="M 249 207 114 226"/>
<path stroke-width="0.7468354430379747" stroke="black" d="M 249 207 190 184"/>
<path stroke-width="0.7468354430379747" stroke="black" d="M 249 207 186 141"/>
<path stroke-width="19.0126582278481" stroke="black" d="M 249 207 282 210"/>
<path stroke-width="0.7468354430379747" stroke="black" d="M 249 207 290 230"/>
<path stroke-width="19.0126582278481" stroke="black" d="M 282 210 249 207"/>
<path stroke-width="0.7468354430379747" stroke="black" d="M 290 230 226 103"/>
<path stroke-width="1.4873417721518987" stroke="black" d="M 290 230 239 262"/>
<path stroke-width="0.7468354430379747" stroke="black" d="M 290 230 272 143"/>
<path stroke-width="0.7468354430379747" stroke="black" d="M 290 230 324 168"/>
<path stroke-width="0.7468354430379747" stroke="black" d="M 290 230 93 170"/>
<path stroke-width="0.7468354430379747" stroke="black" d="M 290 230 114 226"/>
<path stroke-width="0.7468354430379747" stroke="black" d="M 290 230 190 184"/>
<path stroke-width="0.7468354430379747" stroke="black" d="M 290 230 186 141"/>
<path stroke-width="0.7468354430379747" stroke="black" d="M 290 230 249 207"/>
<path stroke-width="20.0" stroke="black" d="M 290 230 367 253"/>
<path stroke-width="0.7468354430379747" stroke="black" d="M 186 141 249 207"/>
<path stroke-width="0.5" stroke="black" d="M 226 103 324 168"/>
<path stroke-width="17.037974683544302" stroke="black" d="M 186 141 123 111"/>
<path stroke-width="0.7468354430379747" stroke="black" d="M 186 141 114 226"/>
<path stroke-width="0.7468354430379747" stroke="black" d="M 114 226 93 170"/>
<path stroke-width="11.113924050632912" stroke="black" d="M 114 226 56 252"/>
<path stroke-width="0.7468354430379747" stroke="black" d="M 114 226 190 184"/>
<path stroke-width="0.7468354430379747" stroke="black" d="M 114 226 186 141"/>
<path stroke-width="0.7468354430379747" stroke="black" d="M 114 226 249 207"/>
<path stroke-width="0.7468354430379747" stroke="black" d="M 114 226 290 230"/>
<path stroke-width="11.113924050632912" stroke="black" d="M 56 252 114 226"/>
<path stroke-width="0.7468354430379747" stroke="black" d="M 190 184 226 103"/>
<path stroke-width="0.7468354430379747" stroke="black" d="M 190 184 239 262"/>
<path stroke-width="0.7468354430379747" stroke="black" d="M 190 184 272 143"/>
<path stroke-width="0.7468354430379747" stroke="black" d="M 190 184 324 168"/>
<path stroke-width="1.4873417721518987" stroke="black" d="M 190 184 93 170"/>
<path stroke-width="0.7468354430379747" stroke="black" d="M 190 184 114 226"/>
<path stroke-width="15.063291139240507" stroke="black" d="M 190 184 138 191"/>
<path stroke-width="0.7468354430379747" stroke="black" d="M 190 184 186 141"/>
<path stroke-width="0.7468354430379747" stroke="black" d="M 190 184 249 207"/>
<path stroke-width="0.7468354430379747" stroke="black" d="M 190 184 290 230"/>
<path stroke-width="15.063291139240507" stroke="black" d="M 138 191 190 184"/>
<path stroke-width="0.7468354430379747" stroke="black" d="M 186 141 226 103"/>
<path stroke-width="0.7468354430379747" stroke="black" d="M 186 141 239 262"/>
<path stroke-width="0.7468354430379747" stroke="black" d="M 186 141 272 143"/>
<path stroke-width="1.4873417721518987" stroke="black" d="M 186 141 324 168"/>
<path stroke-width="0.7468354430379747" stroke="black" d="M 186 141 93 170"/>
<path stroke-width="0.7468354430379747" stroke="black" d="M 186 141 190 184"/>
<path stroke-width="2.227848101265823" stroke="black" d="M 226 103 255 20"/>
<circle cx="367" cy="253" r="7.0" style="fill:orange;stroke:black;stroke-width:1.0"/>
<circle cx="290" cy="230" r="7.0" style="fill:orange;stroke:black;stroke-width:1.0"/>
<circle cx="282" cy="210" r="7.0" style="fill:red;stroke:black;stroke-width:1.0"/>
<circle cx="249" cy="207" r="7.0" style="fill:red;stroke:black;stroke-width:1.0"/>
<circle cx="123" cy="111" r="7.0" style="fill:blue;stroke:black;stroke-width:1.0"/>
<circle cx="186" cy="141" r="7.0" style="fill:blue;stroke:black;stroke-width:1.0"/>
<circle cx="138" cy="191" r="7.0" style="fill:green;stroke:black;stroke-width:1.0"/>
<circle cx="190" cy="184" r="7.0" style="fill:green;stroke:black;stroke-width:1.0"/>
<circle cx="56" cy="252" r="7.0" style="fill:purple;stroke:black;stroke-width:1.0"/>
<circle cx="114" cy="226" r="7.0" style="fill:purple;stroke:black;stroke-width:1.0"/>
<circle cx="20" cy="160" r="7.0" style="fill:green;stroke:black;stroke-width:1.0"/>
<circle cx="93" cy="170" r="7.0" style="fill:green;stroke:black;stroke-width:1.0"/>
<circle cx="420" cy="156" r="7.0" style="fill:blue;stroke:black;stroke-width:1.0"/>
<circle cx="324" cy="168" r="7.0" style="fill:blue;stroke:black;stroke-width:1.0"/>
<circle cx="324" cy="95" r="7.0" style="fill:red;stroke:black;stroke-width:1.0"/>
<circle cx="272" cy="143" r="7.0" style="fill:red;stroke:black;stroke-width:1.0"/>
<circle cx="267" cy="320" r="7.0" style="fill:orange;stroke:black;stroke-width:1.0"/>
<circle cx="239" cy="262" r="7.0" style="fill:orange;stroke:black;stroke-width:1.0"/>
<circle cx="255" cy="20" r="7.0" style="fill:green;stroke:black;stroke-width:1.0"/>
<circle cx="226" cy="103" r="7.0" style="fill:green;stroke:black;stroke-width:1.0"/>
</svg>
