<svg width="440" height="340" xmlns="http://www.w3.org/2000/svg">
<path stroke-width="1" stroke="black" d="M 178 221 196 211"/>
<path stroke-width="1" stroke="black" d="M 105 212 309 99"/>
<path stroke-width="1" stroke="black" d="M 105 212 178 261"/>
<path stroke-width="1" stroke="black" d="M 105 212 283 261"/>
<path stroke-width="1" stroke="black" d="M 105 212 20 227"/>
<path stroke-width="1" stroke="black" d="M 105 212 311 164"/>
<path stroke-width="1" stroke="black" d="M 105 212 215 140"/>
<path stroke-width="1" stroke="black" d="M 105 212 258 202"/>
<path stroke-width="1" stroke="black" d="M 105 212 129 159"/>
<path stroke-width="1" stroke="black" d="M 105 212 325 214"/>
<path stroke-width="1" stroke="black" d="M 105 212 196 211"/>
<path stroke-width="1" stroke="black" d="M 318 312 283 261"/>
<path stroke-width="1" stroke="black" d="M 20 227 105 212"/>
<path stroke-width="1" stroke="black" d="M 311 164 178 261"/>
<path stroke-width="1" stroke="black" d="M 311 164 283 261"/>
<path stroke-width="1" stroke="black" d="M 311 164 105 212"/>
<path stroke-width="1" stroke="black" d="M 311 164 371 136"/>
<path stroke-width="1" stroke="black" d="M 311 164 215 140"/>
<path stroke-width="1" stroke="black" d="M 311 164 258 202"/>
<path stroke-width="1" stroke="black" d="M 311 164 129 159"/>
<path stroke-width="1" stroke="black" d="M 311 164 325 214"/>
<path stroke-width="1" stroke="black" d="M 311 164 196 211"/>
<path stroke-width="1" stroke="black" d="M 371 136 311 164"/>
<path stroke-width="1" stroke="black" d="M 311 164 309 99"/>
<path stroke-width="1" stroke="black" d="M 283 261 196 211"/>
<path stroke-width="1" stroke="black" d="M 283 261 325 214"/>
<path stroke-width="1" stroke="black" d="M 283 261 129 159"/>
<path stroke-width="1" stroke="black" d="M 309 99 311 164"/>
<path stroke-width="1" stroke="black" d="M 309 99 215 140"/>
<path stroke-width="1" stroke="black" d="M 309 99 258 202"/>
<path stroke-width="1" stroke="black" d="M 309 99 129 159"/>
<path stroke-width="1" stroke="black" d="M 309 99 325 214"/>
<path stroke-width="1" stroke="black" d="M 309 99 196 211"/>
<path stroke-width="1" stroke="black" d="M 378 20 309 99"/>
<path stroke-width="1" stroke="black" d="M 178 261 142 320"/>
<path stroke-width="1" stroke="black" d="M 178 261 283 261"/>
<path stroke-width="1" stroke="black" d="M 178 261 105 212"/>
<path stroke-width="1" stroke="black" d="M 178 261 311 164"/>
<path stroke-width="1" stroke="black" d="M 178 261 215 140"/>
<path stroke-width="1" stroke="black" d="M 178 261 258 202"/>
<path stroke-width="1" stroke="black" d="M 178 261 129 159"/>
<path stroke-width="1" stroke="black" d="M 178 261 325 214"/>
<path stroke-width="1" stroke="black" d="M 178 261 196 211"/>
<path stroke-width="1" stroke="black" d="M 142 320 178 261"/>
<path stroke-width="1" stroke="black" d="M 283 261 178 261"/>
<path stroke-width="1" stroke="black" d="M 283 261 318 312"/>
<path stroke-width="1" stroke="black" d="M 283 261 105 212"/>
<path stroke-width="1" stroke="black" d="M 283 261 311 164"/>
<path stroke-width="1" stroke="black" d="M 283 261 215 140"/>
<path stroke-width="1" stroke="black" d="M 283 261 258 202"/>
<path stroke-width="1" stroke="black" d="M 215 140 309 99"/>
<path stroke-width="1" stroke="black" d="M 215 140 178 261"/>
<path stroke-width="1" stroke="black" d="M 215 140 283 261"/>
<path stroke-width="1" stroke="black" d="M 215 140 105 212"/>
<path stroke-width="1" stroke="black" d="M 129 159 196 211"/>
<path stroke-width="1" stroke="black" d="M 83 141 129 159"/>
<path stroke-width="1" stroke="black" d="M 325 214 309 99"/>
<path stroke-width="1" stroke="black" d="M 325 214 178 261"/>
<path stroke-width="1" stroke="black" d="M 325 214 283 261"/>
<path stroke-width="1" stroke="black" d="M 325 214 105 212"/>
<path stroke-width="1" stroke="black" d="M 325 214 311 164"/>
<path stroke-width="1" stroke="black" d="M 325 214 215 140"/>
<path stroke-width="1" stroke="black" d="M 325 214 258 202"/>
<path stroke-width="1" stroke="black" d="M 325 214 129 159"/>
<path stroke-width="1" stroke="black" d="M 325 214 420 225"/>
<path stroke-width="1" stroke="black" d="M 325 214 196 211"/>
<path stroke-width="1" stroke="black" d="M 420 225 325 214"/>
<path stroke-width="1" stroke="black" d="M 196 211 309 99"/>
<path stroke-width="1" stroke="black" d="M 196 211 178 261"/>
<path stroke-width="1" stroke="black" d="M 196 211 283 261"/>
<path stroke-width="1" stroke="black" d="M 196 211 105 212"/>
<path stroke-width="1" stroke="black" d="M 196 211 311 164"/>
<path stroke-width="1" stroke="black" d="M 196 211 215 140"/>
<path stroke-width="1" stroke="black" d="M 196 211 258 202"/>
<path stroke-width="1" stroke="black" d="M 196 211 129 159"/>
<path stroke-width="1" stroke="black" d="M 196 211 325 214"/>
<path stroke-width="1" stroke="black" d="M 196 211 178 221"/>
<path stroke-width="1" stroke="black" d="M 129 159 325 214"/>
<path stroke-width="1" stroke="black" d="M 309 99 105 212"/>
<path stroke-width="1" stroke="black" d="M 129 159 83 141"/>
<path stroke-width="1" stroke="black" d="M 129 159 215 140"/>
<path stroke-width="1" stroke="black" d="M 215 140 311 164"/>
<path stroke-width="1" stroke="black" d="M 215 140 202 108"/>
<path stroke-width="1" stroke="black" d="M 215 140 258 202"/>
<path stroke-width="1" stroke="black" d="M 215 140 129 159"/>
<path stroke-width="1" stroke="black" d="M 215 140 325 214"/>
<path stroke-width="1" stroke="black" d="M 215 140 196 211"/>
<path stroke-width="1" stroke="black" d="M 202 108 215 140"/>
<path stroke-width="1" stroke="black" d="M 258 202 309 99"/>
<path stroke-width="1" stroke="black" d="M 258 202 178 261"/>
<path stroke-width="1" stroke="black" d="M 258 202 283 261"/>
<path stroke-width="1" stroke="black" d="M 258 202 105 212"/>
<path stroke-width="1" stroke="black" d="M 258 202 311 164"/>
<path stroke-width="1" stroke="black" d="M 258 202 215 140"/>
<path stroke-width="1" stroke="black" d="M 258 202 263 213"/>
<path stroke-width="1" stroke="black" d="M 258 202 129 159"/>
<path stroke-width="1" stroke="black" d="M 258 202 325 214"/>
<path stroke-width="1" stroke="black" d="M 258 202 196 211"/>
<path stroke-width="1" stroke="black" d="M 263 213 258 202"/>
<path stroke-width="1" stroke="black" d="M 129 159 309 99"/>
<path stroke-width="1" stroke="black" d="M 129 159 178 261"/>
<path stroke-width="1" stroke="black" d="M 129 159 283 261"/>
<path stroke-width="1" stroke="black" d="M 129 159 105 212"/>
<path stroke-width="1" stroke="black" d="M 129 159 311 164"/>
<path stroke-width="1" stroke="black" d="M 129 159 258 202"/>
<path stroke-width="1" stroke="black" d="M 309 99 378 20"/>
<circle cx="178" cy="221" r="20.0" style="fill:gray;stroke:black;stroke-width:1.0"/>
<circle cx="196" cy="211" r="20.0" style="fill:gray;stroke:black;stroke-width:1.0"/>
<circle cx="420" cy="225" r="20.0" style="fill:gray;stroke:black;stroke-width:1.0"/>
<circle cx="325" cy="214" r="20.0" style="fill:gray;stroke:black;stroke-width:1.0"/>
<circle cx="83" cy="141" r="20.0" style="fill:gray;stroke:black;stroke-width:1.0"/>
<circle cx="129" cy="159" r="20.0" style="fill:gray;stroke:black;stroke-width:1.0"/>
<circle cx="263" cy="213" r="20.0" style="fill:gray;stroke:black;stroke-width:1.0"/>
<circle cx="258" cy="202" r="20.0" style="fill:gray;stroke:black;stroke-width:1.0"/>
<circle cx="202" cy="108" r="20.0" style="fill:gray;stroke:black;stroke-width:1.0"/>
<circle cx="215" cy="140" r="20.0" style="fill:gray;stroke:black;stroke-width:1.0"/>
<circle cx="371" cy="136" r="20.0" style="fill:gray;stroke:black;stroke-width:1.0"/>
<circle cx="311" cy="164" r="20.0" style="fill:gray;stroke:black;stroke-width:1.0"/>
<circle cx="20" cy="227" r="20.0" style="fill:gray;stroke:black;stroke-width:1.0"/>
<circle cx="105" cy="212" r="20.0" style="fill:gray;stroke:black;stroke-width:1.0"/>
<circle cx="318" cy="312" r="20.0" style="fill:gray;stroke:black;stroke-width:1.0"/>
<circle cx="283" cy="261" r="20.0" style="fill:gray;stroke:black;stroke-width:1.0"/>
<circle cx="142" cy="320" r="20.0" style="fill:gray;stroke:black;stroke-width:1.0"/>
<circle cx="178" cy="261" r="20.0" style="fill:gray;stroke:black;stroke-width:1.0"/>
<circle cx="378" cy="20" r="20.0" style="fill:gray;stroke:black;stroke-width:1.0"/>
<circle cx="309" cy="99" r="20.0" style="fill:gray;stroke:black;stroke-width:1.0"/>
</svg>
