<svg width="440" height="340" xmlns="http://www.w3.org/2000/svg">
<path stroke-width="20.0" stroke="black" d="M 338 212 283 201"/>
<path stroke-width="0.5" stroke="black" d="M 320 258 181 110"/>
<path stroke-width="0.7468354430379747" stroke="black" d="M 320 258 129 193"/>
<path stroke-width="0.7468354430379747" stroke="black" d="M 320 258 322 176"/>
<path stroke-width="10.126582278481013" stroke="black" d="M 320 258 372 292"/>
<path stroke-width="0.7468354430379747" stroke="black" d="M 320 258 181 154"/>
<path stroke-width="0.7468354430379747" stroke="black" d="M 320 258 195 270"/>
<path stroke-width="0.7468354430379747" stroke="black" d="M 320 258 262 134"/>
<path stroke-width="1.4873417721518987" stroke="black" d="M 320 258 252 233"/>
<path stroke-width="0.7468354430379747" stroke="black" d="M 320 258 165 228"/>
<path stroke-width="0.7468354430379747" stroke="black" d="M 320 258 283 201"/>
<path stroke-width="6.177215189873418" stroke="black" d="M 420 154 322 176"/>
<path stroke-width="10.126582278481013" stroke="black" d="M 372 292 320 258"/>
<path stroke-width="0.7468354430379747" stroke="black" d="M 181 154 129 193"/>
<path stroke-width="0.7468354430379747" stroke="black" d="M 181 154 322 176"/>
<path stroke-width="0.7468354430379747" stroke="black" d="M 181 154 320 258"/>
<path stroke-width="12.10126582278481" stroke="black" d="M 181 154 125 128"/>
<path stroke-width="0.7468354430379747" stroke="black" d="M 181 154 195 270"/>
<path stroke-width="1.4873417721518987" stroke="black" d="M 181 154 262 134"/>
<path stroke-width="0.7468354430379747" stroke="black" d="M 181 154 252 233"/>
<path stroke-width="0.7468354430379747" stroke="black" d="M 181 154 165 228"/>
<path stroke-width="0.7468354430379747" stroke="black" d="M 181 154 283 201"/>
<path stroke-width="12.10126582278481" stroke="black" d="M 125 128 181 154"/>
<path stroke-width="0.7468354430379747" stroke="black" d="M 181 154 181 110"/>
<path stroke-width="0.7468354430379747" stroke="black" d="M 322 176 283 201"/>
<path stroke-width="1.4873417721518987" stroke="black" d="M 322 176 165 228"/>
<path stroke-width="0.7468354430379747" stroke="black" d="M 322 176 252 233"/>
<path stroke-width="0.7468354430379747" stroke="black" d="M 181 110 181 154"/>
<path stroke-width="0.7468354430379747" stroke="black" d="M 181 110 195 270"/>
<path stroke-width="0.7468354430379747" stroke="black" d="M 181 110 262 134"/>
<path stroke-width="0.7468354430379747" stroke="black" d="M 181 110 252 233"/>
<path stroke-width="0.7468354430379747" stroke="black" d="M 181 110 165 228"/>
<path stroke-width="0.7468354430379747" stroke="black" d="M 181 110 283 201"/>
<path stroke-width="2.227848101265823" stroke="black" d="M 128 20 181 110"/>
<path stroke-width="5.189873417721519" stroke="black" d="M 129 193 20 187"/>
<path stroke-width="0.7468354430379747" stroke="black" d="M 129 193 322 176"/>
<path stroke-width="0.7468354430379747" stroke="black" d="M 129 193 320 258"/>
<path stroke-width="0.7468354430379747" stroke="black" d="M 129 193 181 154"/>
<path stroke-width="0.7468354430379747" stroke="black" d="M 129 193 195 270"/>
<path stroke-width="0.7468354430379747" stroke="black" d="M 129 193 262 134"/>
<path stroke-width="0.7468354430379747" stroke="black" d="M 129 193 252 233"/>
<path stroke-width="0.7468354430379747" stroke="black" d="M 129 193 165 228"/>
<path stroke-width="1.4873417721518987" stroke="black" d="M 129 193 283 201"/>
<path stroke-width="5.189873417721519" stroke="black" d="M 20 187 129 193"/>
<path stroke-width="0.7468354430379747" stroke="black" d="M 322 176 129 193"/>
<path stroke-width="6.177215189873418" stroke="black" d="M 322 176 420 154"/>
<path stroke-width="0.7468354430379747" stroke="black" d="M 322 176 320 258"/>
<path stroke-width="0.7468354430379747" stroke="black" d="M 322 176 181 154"/>
<path stroke-width="0.7468354430379747" stroke="black" d="M 322 176 195 270"/>
<path stroke-width="0.7468354430379747" stroke="black" d="M 322 176 262 134"/>
<path stroke-width="0.7468354430379747" stroke="black" d="M 195 270 181 110"/>
<path stroke-width="0.7468354430379747" stroke="black" d="M 195 270 129 193"/>
<path stroke-width="0.7468354430379747" stroke="black" d="M 195 270 322 176"/>
<path stroke-width="0.7468354430379747" stroke="black" d="M 195 270 320 258"/>
<path stroke-width="0.7468354430379747" stroke="black" d="M 252 233 283 201"/>
<path stroke-width="17.037974683544302" stroke="black" d="M 230 249 252 233"/>
<path stroke-width="0.7468354430379747" stroke="black" d="M 165 228 181 110"/>
<path stroke-width="0.7468354430379747" stroke="black" d="M 165 228 129 193"/>
<path stroke-width="1.4873417721518987" stroke="black" d="M 165 228 322 176"/>
<path stroke-width="0.7468354430379747" stroke="black" d="M 165 228 320 258"/>
<path stroke-width="0.7468354430379747" stroke="black" d="M 165 228 181 154"/>
<path stroke-width="0.7468354430379747" stroke="black" d="M 165 228 195 270"/>
<path stroke-width="0.7468354430379747" stroke="black" d="M 165 228 262 134"/>
<path stroke-width="0.7468354430379747" stroke="black" d="M 165 228 252 233"/>
<path stroke-width="19.0126582278481" stroke="black" d="M 165 228 107 249"/>
<path stroke-width="0.7468354430379747" stroke="black" d="M 165 228 283 201"/>
<path stroke-width="19.0126582278481" stroke="black" d="M 107 249 165 228"/>
<path stroke-width="0.7468354430379747" stroke="black" d="M 283 201 181 110"/>
<path stroke-width="1.4873417721518987" stroke="black" d="M 283 201 129 193"/>
<path stroke-width="0.7468354430379747" stroke="black" d="M 283 201 322 176"/>
<path stroke-width="0.7468354430379747" stroke="black" d="M 283 201 320 258"/>
<path stroke-width="0.7468354430379747" stroke="black" d="M 283 201 181 154"/>
<path stroke-width="0.7468354430379747" stroke="black" d="M 283 201 195 270"/>
<path stroke-width="0.7468354430379747" stroke="black" d="M 283 201 262 134"/>
<path stroke-width="0.7468354430379747" stroke="black" d="M 283 201 252 233"/>
<path stroke-width="0.7468354430379747" stroke="black" d="M 283 201 165 228"/>
<path stroke-width="20.0" stroke="black" d="M 283 201 338 212"/>
<path stroke-width="0.7468354430379747" stroke="black" d="M 252 233 165 228"/>
<path stroke-width="0.5" stroke="black" d="M 181 110 320 258"/>
<path stroke-width="17.037974683544302" stroke="black" d="M 252 233 230 249"/>
<path stroke-width="0.7468354430379747" stroke="black" d="M 252 233 195 270"/>
<path stroke-width="0.7468354430379747" stroke="black" d="M 195 270 181 154"/>
<path stroke-width="11.113924050632912" stroke="black" d="M 195 270 171 320"/>
<path stroke-width="0.7468354430379747" stroke="black" d="M 195 270 262 134"/>
<path stroke-width="0.7468354430379747" stroke="black" d="M 195 270 252 233"/>
<path stroke-width="0.7468354430379747" stroke="black" d="M 195 270 165 228"/>
<path stroke-width="0.7468354430379747" stroke="black" d="M 195 270 283 201"/>
<path stroke-width="11.113924050632912" stroke="black" d="M 171 320 195 270"/>
<path stroke-width="0.7468354430379747" stroke="black" d="M 262 134 181 110"/>
<path stroke-width="0.7468354430379747" stroke="black" d="M 262 134 129 193"/>
<path stroke-width="0.7468354430379747" stroke="black" d="M 262 134 322 176"/>
<path stroke-width="0.7468354430379747" stroke="black" d="M 262 134 320 258"/>
<path stroke-width="1.4873417721518987" stroke="black" d="M 262 134 181 154"/>
<path stroke-width="0.7468354430379747" stroke="black" d="M 262 134 195 270"/>
<path stroke-width="15.063291139240507" stroke="black" d="M 262 134 303 107"/>
<path stroke-width="0.7468354430379747" stroke="black" d="M 262 134 252 233"/>
<path stroke-width="0.7468354430379747" stroke="black" d="M 262 134 165 228"/>
<path stroke-width="0.7468354430379747" stroke="black" d="M 262 134 283 201"/>
<path stroke-width="15.063291139240507" stroke="black" d="M 303 107 262 134"/>
<path stroke-width="0.7468354430379747" stroke="black" d="M 252 233 181 110"/>
<path stroke-width="0.7468354430379747" stroke="black" d="M 252 233 129 193"/>
<path stroke-width="0.7468354430379747" stroke="black" d="M 252 233 322 176"/>
<path stroke-width="1.4873417721518987" stroke="black" d="M 252 233 320 258"/>
<path stroke-width="0.7468354430379747" stroke="black" d="M 252 233 181 154"/>
<path stroke-width="0.7468354430379747" stroke="black" d="M 252 233 262 134"/>
<path stroke-width="2.227848101265823" stroke="black" d="M 181 110 128 20"/>
<circle cx="338" cy="212" r="7.0" style="fill:gray;stroke:black;stroke-width:1.0"/>
<circle cx="283" cy="201" r="7.0" style="fill:gray;stroke:black;stroke-width:1.0"/>
<circle cx="107" cy="249" r="7.0" style="fill:gray;stroke:black;stroke-width:1.0"/>
<circle cx="165" cy="228" r="7.0" style="fill:gray;stroke:black;stroke-width:1.0"/>
<circle cx="230" cy="249" r="7.0" style="fill:gray;stroke:black;stroke-width:1.0"/>
<circle cx="252" cy="233" r="7.0" style="fill:gray;stroke:black;stroke-width:1.0"/>
<circle cx="303" cy="107" r="7.0" style="fill:gray;stroke:black;stroke-width:1.0"/>
<circle cx="262" cy="134" r="7.0" style="fill:gray;stroke:black;stroke-width:1.0"/>
<circle cx="171" cy="320" r="7.0" style="fill:gray;stroke:black;stroke-width:1.0"/>
<circle cx="195" cy="270" r="7.0" style="fill:gray;stroke:black;stroke-width:1.0"/>
<circle cx="125" cy="128" r="7.0" style="fill:gray;stroke:black;stroke-width:1.0"/>
<circle cx="181" cy="154" r="7.0" style="fill:gray;stroke:black;stroke-width:1.0"/>
<circle cx="372" cy="292" r="7.0" style="fill:gray;stroke:black;stroke-width:1.0"/>
<circle cx="320" cy="258" r="7.0" style="fill:gray;stroke:black;stroke-width:1.0"/>
<circle cx="420" cy="154" r="7.0" style="fill:gray;stroke:black;stroke-width:1.0"/>
<circle cx="322" cy="176" r="7.0" style="fill:gray;stroke:black;stroke-width:1.0"/>
<circle cx="20" cy="187" r="7.0" style="fill:gray;stroke:black;stroke-width:1.0"/>
<circle cx="129" cy="193" r="7.0" style="fill:gray;stroke:black;stroke-width:1.0"/>
<circle cx="128" cy="20" r="7.0" style="fill:gray;stroke:black;stroke-width:1.0"/>
<circle cx="181" cy="110" r="7.0" style="fill:gray;stroke:black;stroke-width:1.0"/>
</svg>
