<svg width="440" height="340" xmlns="http://www.w3.org/2000/svg">
<path stroke-width="1" stroke="black" d="M 280 320 266 266"/>
<path stroke-width="1" stroke="black" d="M 359 195 137 161"/>
<path stroke-width="1" stroke="black" d="M 359 195 230 130"/>
<path stroke-width="1" stroke="black" d="M 359 195 290 77"/>
<path stroke-width="1" stroke="black" d="M 359 195 420 200"/>
<path stroke-width="1" stroke="black" d="M 359 195 310 246"/>
<path stroke-width="1" stroke="black" d="M 359 195 164 223"/>
<path stroke-width="1" stroke="black" d="M 359 195 217 266"/>
<path stroke-width="1" stroke="black" d="M 359 195 331 124"/>
<path stroke-width="1" stroke="black" d="M 359 195 246 151"/>
<path stroke-width="1" stroke="black" d="M 359 195 266 266"/>
<path stroke-width="1" stroke="black" d="M 310 20 290 77"/>
<path stroke-width="1" stroke="black" d="M 420 200 359 195"/>
<path stroke-width="1" stroke="black" d="M 310 246 230 130"/>
<path stroke-width="1" stroke="black" d="M 310 246 290 77"/>
<path stroke-width="1" stroke="black" d="M 310 246 359 195"/>
<path stroke-width="1" stroke="black" d="M 310 246 355 278"/>
<path stroke-width="1" stroke="black" d="M 310 246 164 223"/>
<path stroke-width="1" stroke="black" d="M 310 246 217 266"/>
<path stroke-width="1" stroke="black" d="M 310 246 331 124"/>
<path stroke-width="1" stroke="black" d="M 310 246 246 151"/>
<path stroke-width="1" stroke="black" d="M 310 246 266 266"/>
<path stroke-width="1" stroke="black" d="M 355 278 310 246"/>
<path stroke-width="1" stroke="black" d="M 310 246 137 161"/>
<path stroke-width="1" stroke="black" d="M 290 77 266 266"/>
<path stroke-width="1" stroke="black" d="M 290 77 246 151"/>
<path stroke-width="1" stroke="black" d="M 290 77 331 124"/>
<path stroke-width="1" stroke="black" d="M 137 161 310 246"/>
<path stroke-width="1" stroke="black" d="M 137 161 164 223"/>
<path stroke-width="1" stroke="black" d="M 137 161 217 266"/>
<path stroke-width="1" stroke="black" d="M 137 161 331 124"/>
<path stroke-width="1" stroke="black" d="M 137 161 246 151"/>
<path stroke-width="1" stroke="black" d="M 137 161 266 266"/>
<path stroke-width="1" stroke="black" d="M 20 98 137 161"/>
<path stroke-width="1" stroke="black" d="M 230 130 174 62"/>
<path stroke-width="1" stroke="black" d="M 230 130 290 77"/>
<path stroke-width="1" stroke="black" d="M 230 130 359 195"/>
<path stroke-width="1" stroke="black" d="M 230 130 310 246"/>
<path stroke-width="1" stroke="black" d="M 230 130 164 223"/>
<path stroke-width="1" stroke="black" d="M 230 130 217 266"/>
<path stroke-width="1" stroke="black" d="M 230 130 331 124"/>
<path stroke-width="1" stroke="black" d="M 230 130 246 151"/>
<path stroke-width="1" stroke="black" d="M 230 130 266 266"/>
<path stroke-width="1" stroke="black" d="M 174 62 230 130"/>
<path stroke-width="1" stroke="black" d="M 290 77 230 130"/>
<path stroke-width="1" stroke="black" d="M 290 77 310 20"/>
<path stroke-width="1" stroke="black" d="M 290 77 359 195"/>
<path stroke-width="1" stroke="black" d="M 290 77 310 246"/>
<path stroke-width="1" stroke="black" d="M 290 77 164 223"/>
<path stroke-width="1" stroke="black" d="M 290 77 217 266"/>
<path stroke-width="1" stroke="black" d="M 164 223 137 161"/>
<path stroke-width="1" stroke="black" d="M 164 223 230 130"/>
<path stroke-width="1" stroke="black" d="M 164 223 290 77"/>
<path stroke-width="1" stroke="black" d="M 164 223 359 195"/>
<path stroke-width="1" stroke="black" d="M 331 124 266 266"/>
<path stroke-width="1" stroke="black" d="M 358 122 331 124"/>
<path stroke-width="1" stroke="black" d="M 246 151 137 161"/>
<path stroke-width="1" stroke="black" d="M 246 151 230 130"/>
<path stroke-width="1" stroke="black" d="M 246 151 290 77"/>
<path stroke-width="1" stroke="black" d="M 246 151 359 195"/>
<path stroke-width="1" stroke="black" d="M 246 151 310 246"/>
<path stroke-width="1" stroke="black" d="M 246 151 164 223"/>
<path stroke-width="1" stroke="black" d="M 246 151 217 266"/>
<path stroke-width="1" stroke="black" d="M 246 151 331 124"/>
<path stroke-width="1" stroke="black" d="M 246 151 171 139"/>
<path stroke-width="1" stroke="black" d="M 246 151 266 266"/>
<path stroke-width="1" stroke="black" d="M 171 139 246 151"/>
<path stroke-width="1" stroke="black" d="M 266 266 137 161"/>
<path stroke-width="1" stroke="black" d="M 266 266 230 130"/>
<path stroke-width="1" stroke="black" d="M 266 266 290 77"/>
<path stroke-width="1" stroke="black" d="M 266 266 359 195"/>
<path stroke-width="1" stroke="black" d="M 266 266 310 246"/>
<path stroke-width="1" stroke="black" d="M 266 266 164 223"/>
<path stroke-width="1" stroke="black" d="M 266 266 217 266"/>
<path stroke-width="1" stroke="black" d="M 266 266 331 124"/>
<path stroke-width="1" stroke="black" d="M 266 266 246 151"/>
<path stroke-width="1" stroke="black" d="M 266 266 280 320"/>
<path stroke-width="1" stroke="black" d="M 331 124 246 151"/>
<path stroke-width="1" stroke="black" d="M 137 161 359 195"/>
<path stroke-width="1" stroke="black" d="M 331 124 358 122"/>
<path stroke-width="1" stroke="black" d="M 331 124 164 223"/>
<path stroke-width="1" stroke="black" d="M 164 223 310 246"/>
<path stroke-width="1" stroke="black" d="M 164 223 106 253"/>
<path stroke-width="1" stroke="black" d="M 164 223 217 266"/>
<path stroke-width="1" stroke="black" d="M 164 223 331 124"/>
<path stroke-width="1" stroke="black" d="M 164 223 246 151"/>
<path stroke-width="1" stroke="black" d="M 164 223 266 266"/>
<path stroke-width="1" stroke="black" d="M 106 253 164 223"/>
<path stroke-width="1" stroke="black" d="M 217 266 137 161"/>
<path stroke-width="1" stroke="black" d="M 217 266 230 130"/>
<path stroke-width="1" stroke="black" d="M 217 266 290 77"/>
<path stroke-width="1" stroke="black" d="M 217 266 359 195"/>
<path stroke-width="1" stroke="black" d="M 217 266 310 246"/>
<path stroke-width="1" stroke="black" d="M 217 266 164 223"/>
<path stroke-width="1" stroke="black" d="M 217 266 196 315"/>
<path stroke-width="1" stroke="black" d="M 217 266 331 124"/>
<path stroke-width="1" stroke="black" d="M 217 266 246 151"/>
<path stroke-width="1" stroke="black" d="M 217 266 266 266"/>
<path stroke-width="1" stroke="black" d="M 196 315 217 266"/>
<path stroke-width="1" stroke="black" d="M 331 124 137 161"/>
<path stroke-width="1" stroke="black" d="M 331 124 230 130"/>
<path stroke-width="1" stroke="black" d="M 331 124 290 77"/>
<path stroke-width="1" stroke="black" d="M 331 124 359 195"/>
<path stroke-width="1" stroke="black" d="M 331 124 310 246"/>
<path stroke-width="1" stroke="black" d="M 331 124 217 266"/>
<path stroke-width="1" stroke="black" d="M 137 161 20 98"/>
<circle cx="280" cy="320" r="7.0" style="fill:purple;stroke:black;stroke-width:1.0"/>
<circle cx="266" cy="266" r="7.0" style="fill:purple;stroke:black;stroke-width:1.0"/>
<circle cx="171" cy="139" r="7.0" style="fill:green;stroke:black;stroke-width:1.0"/>
<circle cx="246" cy="151" r="7.0" style="fill:green;stroke:black;stroke-width:1.0"/>
<circle cx="358" cy="122" r="7.0" style="fill:red;stroke:black;stroke-width:1.0"/>
<circle cx="331" cy="124" r="7.0" style="fill:red;stroke:black;stroke-width:1.0"/>
<circle cx="196" cy="315" r="7.0" style="fill:orange;stroke:black;stroke-width:1.0"/>
<circle cx="217" cy="266" r="7.0" style="fill:orange;stroke:black;stroke-width:1.0"/>
<circle cx="106" cy="253" r="7.0" style="fill:blue;stroke:black;stroke-width:1.0"/>
<circle cx="164" cy="223" r="7.0" style="fill:blue;stroke:black;stroke-width:1.0"/>
<circle cx="355" cy="278" r="7.0" style="fill:red;stroke:black;stroke-width:1.0"/>
<circle cx="310" cy="246" r="7.0" style="fill:red;stroke:black;stroke-width:1.0"/>
<circle cx="420" cy="200" r="7.0" style="fill:red;stroke:black;stroke-width:1.0"/>
<circle cx="359" cy="195" r="7.0" style="fill:red;stroke:black;stroke-width:1.0"/>
<circle cx="310" cy="20" r="7.0" style="fill:green;stroke:black;stroke-width:1.0"/>
<circle cx="290" cy="77" r="7.0" style="fill:green;stroke:black;stroke-width:1.0"/>
<circle cx="174" cy="62" r="7.0" style="fill:purple;stroke:black;stroke-width:1.0"/>
<circle cx="230" cy="130" r="7.0" style="fill:purple;stroke:black;stroke-width:1.0"/>
<circle cx="20" cy="98" r="7.0" style="fill:red;stroke:black;stroke-width:1.0"/>
<circle cx="137" cy="161" r="7.0" style="fill:red;stroke:black;stroke-width:1.0"/>
</svg>
