<svg width="440" height="340" xmlns="http://www.w3.org/2000/svg">
<path stroke-width="20.0" stroke="black" d="M 275 180 257 177"/>
<path stroke-width="0.5" stroke="black" d="M 213 91 126 88"/>
<path stroke-width="0.7468354430379747" stroke="black" d="M 213 91 338 173"/>
<path stroke-width="0.7468354430379747" stroke="black" d="M 213 91 307 234"/>
<path stroke-width="10.126582278481013" stroke="black" d="M 213 91 193 35"/>
<path stroke-width="0.7468354430379747" stroke="black" d="M 213 91 229 241"/>
<path stroke-width="0.7468354430379747" stroke="black" d="M 213 91 306 115"/>
<path stroke-width="0.7468354430379747" stroke="black" d="M 213 91 192 211"/>
<path stroke-width="1.4873417721518987" stroke="black" d="M 213 91 183 153"/>
<path stroke-width="0.7468354430379747" stroke="black" d="M 213 91 257 133"/>
<path stroke-width="0.7468354430379747" stroke="black" d="M 213 91 257 177"/>
<path stroke-width="6.177215189873418" stroke="black" d="M 362 283 307 234"/>
<path stroke-width="10.126582278481013" stroke="black" d="M 193 35 213 91"/>
<path stroke-width="0.7468354430379747" stroke="black" d="M 229 241 338 173"/>
<path stroke-width="0.7468354430379747" stroke="black" d="M 229 241 307 234"/>
<path stroke-width="0.7468354430379747" stroke="black" d="M 229 241 213 91"/>
<path stroke-width="12.10126582278481" stroke="black" d="M 229 241 233 320"/>
<path stroke-width="0.7468354430379747" stroke="black" d="M 229 241 306 115"/>
<path stroke-width="1.4873417721518987" stroke="black" d="M 229 241 192 211"/>
<path stroke-width="0.7468354430379747" stroke="black" d="M 229 241 183 153"/>
<path stroke-width="0.7468354430379747" stroke="black" d="M 229 241 257 133"/>
<path stroke-width="0.7468354430379747" stroke="black" d="M 229 241 257 177"/>
<path stroke-width="12.10126582278481" stroke="black" d="M 233 320 229 241"/>
<path stroke-width="0.7468354430379747" stroke="black" d="M 229 241 126 88"/>
<path stroke-width="0.7468354430379747" stroke="black" d="M 307 234 257 177"/>
<path stroke-width="1.4873417721518987" stroke="black" d="M 307 234 257 133"/>
<path stroke-width="0.7468354430379747" stroke="black" d="M 307 234 183 153"/>
<path stroke-width="0.7468354430379747" stroke="black" d="M 126 88 229 241"/>
<path stroke-width="0.7468354430379747" stroke="black" d="M 126 88 306 115"/>
<path stroke-width="0.7468354430379747" stroke="black" d="M 126 88 192 211"/>
<path stroke-width="0.7468354430379747" stroke="black" d="M 126 88 183 153"/>
<path stroke-width="0.7468354430379747" stroke="black" d="M 126 88 257 133"/>
<path stroke-width="0.7468354430379747" stroke="black" d="M 126 88 257 177"/>
<path stroke-width="2.227848101265823" stroke="black" d="M 20 20 126 88"/>
<path stroke-width="5.189873417721519" stroke="black" d="M 338 173 420 168"/>
<path stroke-width="0.7468354430379747" stroke="black" d="M 338 173 307 234"/>
<path stroke-width="0.7468354430379747" stroke="black" d="M 338 173 213 91"/>
<path stroke-width="0.7468354430379747" stroke="black" d="M 338 173 229 241"/>
<path stroke-width="0.7468354430379747" stroke="black" d="M 338 173 306 115"/>
<path stroke-width="0.7468354430379747" stroke="black" d="M 338 173 192 211"/>
<path stroke-width="0.7468354430379747" stroke="black" d="M 338 173 183 153"/>
<path stroke-width="0.7468354430379747" stroke="black" d="M 338 173 257 133"/>
<path stroke-width="1.4873417721518987" stroke="black" d="M 338 173 257 177"/>
<path stroke-width="5.189873417721519" stroke="black" d="M 420 168 338 173"/>
<path stroke-width="0.7468354430379747" stroke="black" d="M 307 234 338 173"/>
<path stroke-width="6.177215189873418" stroke="black" d="M 307 234 362 283"/>
<path stroke-width="0.7468354430379747" stroke="black" d="M 307 234 213 91"/>
<path stroke-width="0.7468354430379747" stroke="black" d="M 307 234 229 241"/>
<path stroke-width="0.7468354430379747" stroke="black" d="M 307 234 306 115"/>
<path stroke-width="0.7468354430379747" stroke="black" d="M 307 234 192 211"/>
<path stroke-width="0.7468354430379747" stroke="black" d="M 306 115 126 88"/>
<path stroke-width="0.7468354430379747" stroke="black" d="M 306 115 338 173"/>
<path stroke-width="0.7468354430379747" stroke="black" d="M 306 115 307 234"/>
<path stroke-width="0.7468354430379747" stroke="black" d="M 306 115 213 91"/>
<path stroke-width="0.7468354430379747" stroke="black" d="M 183 153 257 177"/>
<path stroke-width="17.037974683544302" stroke="black" d="M 119 147 183 153"/>
<path stroke-width="0.7468354430379747" stroke="black" d="M 257 133 126 88"/>
<path stroke-width="0.7468354430379747" stroke="black" d="M 257 133 338 173"/>
<path stroke-width="1.4873417721518987" stroke="black" d="M 257 133 307 234"/>
<path stroke-width="0.7468354430379747" stroke="black" d="M 257 133 213 91"/>
<path stroke-width="0.7468354430379747" stroke="black" d="M 257 133 229 241"/>
<path stroke-width="0.7468354430379747" stroke="black" d="M 257 133 306 115"/>
<path stroke-width="0.7468354430379747" stroke="black" d="M 257 133 192 211"/>
<path stroke-width="0.7468354430379747" stroke="black" d="M 257 133 183 153"/>
<path stroke-width="19.0126582278481" stroke="black" d="M 257 133 244 145"/>
<path stroke-width="0.7468354430379747" stroke="black" d="M 257 133 257 177"/>
<path stroke-width="19.0126582278481" stroke="black" d="M 244 145 257 133"/>
<path stroke-width="0.7468354430379747" stroke="black" d="M 257 177 126 88"/>
<path stroke-width="1.4873417721518987" stroke="black" d="M 257 177 338 173"/>
<path stroke-width="0.7468354430379747" stroke="black" d="M 257 177 307 234"/>
<path stroke-width="0.7468354430379747" stroke="black" d="M 257 177 213 91"/>
<path stroke-width="0.7468354430379747" stroke="black" d="M 257 177 229 241"/>
<path stroke-width="0.7468354430379747" stroke="black" d="M 257 177 306 115"/>
<path stroke-width="0.7468354430379747" stroke="black" d="M 257 177 192 211"/>
<path stroke-width="0.7468354430379747" stroke="black" d="M 257 177 183 153"/>
<path stroke-width="0.7468354430379747" stroke="black" d="M 257 177 257 133"/>
<path stroke-width="20.0" stroke="black" d="M 257 177 275 180"/>
<path stroke-width="0.7468354430379747" stroke="black" d="M 183 153 257 133"/>
<path stroke-width="0.5" stroke="black" d="M 126 88 213 91"/>
<path stroke-width="17.037974683544302" stroke="black" d="M 183 153 119 147"/>
<path stroke-width="0.7468354430379747" stroke="black" d="M 183 153 306 115"/>
<path stroke-width="0.7468354430379747" stroke="black" d="M 306 115 229 241"/>
<path stroke-width="11.113924050632912" stroke="black" d="M 306 115 361 93"/>
<path stroke-width="0.7468354430379747" stroke="black" d="M 306 115 192 211"/>
<path stroke-width="0.7468354430379747" stroke="black" d="M 306 115 183 153"/>
<path stroke-width="0.7468354430379747" stroke="black" d="M 306 115 257 133"/>
<path stroke-width="0.7468354430379747" stroke="black" d="M 306 115 257 177"/>
<path stroke-width="11.113924050632912" stroke="black" d="M 361 93 306 115"/>
<path stroke-width="0.7468354430379747" stroke="black" d="M 192 211 126 88"/>
<path stroke-width="0.7468354430379747" stroke="black" d="M 192 211 338 173"/>
<path stroke-width="0.7468354430379747" stroke="black" d="M 192 211 307 234"/>
<path stroke-width="0.7468354430379747" stroke="black" d="M 192 211 213 91"/>
<path stroke-width="1.4873417721518987" stroke="black" d="M 192 211 229 241"/>
<path stroke-width="0.7468354430379747" stroke="black" d="M 192 211 306 115"/>
<path stroke-width="15.063291139240507" stroke="black" d="M 192 211 132 250"/>
<path stroke-width="0.7468354430379747" stroke="black" d="M 192 211 183 153"/>
<path stroke-width="0.7468354430379747" stroke="black" d="M 192 211 257 133"/>
<path stroke-width="0.7468354430379747" stroke="black" d="M 192 211 257 177"/>
<path stroke-width="15.063291139240507" stroke="black" d="M 132 250 192 211"/>
<path stroke-width="0.7468354430379747" stroke="black" d="M 183 153 126 88"/>
<path stroke-width="0.7468354430379747" stroke="black" d="M 183 153 338 173"/>
<path stroke-width="0.7468354430379747" stroke="black" d="M 183 153 307 234"/>
<path stroke-width="1.4873417721518987" stroke="black" d="M 183 153 213 91"/>
<path stroke-width="0.7468354430379747" stroke="black" d="M 183 153 229 241"/>
<path stroke-width="0.7468354430379747" stroke="black" d="M 183 153 192 211"/>
<path stroke-width="2.227848101265823" stroke="black" d="M 126 88 20 20"/>
<circle cx="275" cy="180" r="20.0" style="fill:gray;stroke:black;stroke-width:1.0"/>
<circle cx="257" cy="177" r="20.0" style="fill:gray;stroke:black;stroke-width:1.0"/>
<circle cx="244" cy="145" r="20.0" style="fill:gray;stroke:black;stroke-width:1.0"/>
<circle cx="257" cy="133" r="20.0" style="fill:gray;stroke:black;stroke-width:1.0"/>
<circle cx="119" cy="147" r="20.0" style="fill:gray;stroke:black;stroke-width:1.0"/>
<circle cx="183" cy="153" r="20.0" style="fill:gray;stroke:black;stroke-width:1.0"/>
<circle cx="132" cy="250" r="20.0" style="fill:gray;stroke:black;stroke-width:1.0"/>
<circle cx="192" cy="211" r="20.0" style="fill:gray;stroke:black;stroke-width:1.0"/>
<circle cx="361" cy="93" r="20.0" style="fill:gray;stroke:black;stroke-width:1.0"/>
<circle cx="306" cy="115" r="20.0" style="fill:gray;stroke:black;stroke-width:1.0"/>
<circle cx="233" cy="320" r="20.0" style="fill:gray;stroke:black;stroke-width:1.0"/>
<circle cx="229" cy="241" r="20.0" style="fill:gray;stroke:black;stroke-width:1.0"/>
<circle cx="193" cy="35" r="20.0" style="fill:gray;stroke:black;stroke-width:1.0"/>
<circle cx="213" cy="91" r="20.0" style="fill:gray;stroke:black;stroke-width:1.0"/>
<circle cx="362" cy="283" r="20.0" style="fill:gray;stroke:black;stroke-width:1.0"/>
<circle cx="307" cy="234" r="20.0" style="fill:gray;stroke:black;stroke-width:1.0"/>
<circle cx="420" cy="168" r="20.0" style="fill:gray;stroke:black;stroke-width:1.0"/>
<circle cx="338" cy="173" r="20.0" style="fill:gray;stroke:black;stroke-width:1.0"/>
<circle cx="20" cy="20" r="20.0" style="fill:gray;stroke:black;stroke-width:1.0"/>
<circle cx="126" cy="88" r="20.0" style="fill:gray;stroke:black;stroke-width:1.0"/>
</svg>
