<svg width="440" height="340" xmlns="http://www.w3.org/2000/svg">
<path stroke-width="1" stroke="black" d="M 20 320 47 310"/>
<path stroke-width="1" stroke="black" d="M 420 20 395 43"/>
<path stroke-width="1" stroke="black" d="M 366 74 395 43"/>
<path stroke-width="1" stroke="black" d="M 366 74 334 105"/>
<path stroke-width="1" stroke="black" d="M 334 105 366 74"/>
<path stroke-width="1" stroke="black" d="M 334 105 302 142"/>
<path stroke-width="1" stroke="black" d="M 302 142 334 105"/>
<path stroke-width="1" stroke="black" d="M 302 142 267 174"/>
<path stroke-width="1" stroke="black" d="M 267 174 302 142"/>
<path stroke-width="1" stroke="black" d="M 267 174 231 208"/>
<path stroke-width="1" stroke="black" d="M 231 208 267 174"/>
<path stroke-width="1" stroke="black" d="M 231 208 194 235"/>
<path stroke-width="1" stroke="black" d="M 194 235 231 208"/>
<path stroke-width="1" stroke="black" d="M 194 235 156 260"/>
<path stroke-width="1" stroke="black" d="M 156 260 194 235"/>
<path stroke-width="1" stroke="black" d="M 156 260 118 280"/>
<path stroke-width="1" stroke="black" d="M 118 280 156 260"/>
<path stroke-width="1" stroke="black" d="M 118 280 81 297"/>
<path stroke-width="1" stroke="black" d="M 81 297 118 280"/>
<path stroke-width="1" stroke="black" d="M 81 297 47 310"/>
<path stroke-width="1" stroke="black" d="M 47 310 81 297"/>
<path stroke-width="1" stroke="black" d="M 47 310 20 320"/>
<path stroke-width="1" stroke="black" d="M 395 43 366 74"/>
<path stroke-width="1" stroke="black" d="M 395 43 420 20"/>
<circle cx="20" cy="320" r="7.0" style="fill:gray;stroke:black;stroke-width:1.0"/>
<circle cx="47" cy="310" r="7.0" style="fill:gray;stroke:black;stroke-width:1.0"/>
<circle cx="81" cy="297" r="7.0" style="fill:gray;stroke:black;stroke-width:1.0"/>
<circle cx="118" cy="280" r="7.0" style="fill:gray;stroke:black;stroke-width:1.0"/>
<circle cx="156" cy="260" r="7.0" style="fill:gray;stroke:black;stroke-width:1.0"/>
<circle cx="194" cy="235" r="7.0" style="fill:gray;stroke:black;stroke-width:1.0"/>
<circle cx="231" cy="208" r="7.0" style="fill:gray;stroke:black;stroke-width:1.0"/>
<circle cx="267" cy="174" r="7.0" style="fill:gray;stroke:black;stroke-width:1.0"/>
<circle cx="302" cy="142" r="7.0" style="fill:gray;stroke:black;stroke-width:1.0"/>
<circle cx="334" cy="105" r="7.0" style="fill:gray;stroke:black;stroke-width:1.0"/>
<circle cx="366" cy="74" r="7.0" style="fill:gray;stroke:black;stroke-width:1.0"/>
<circle cx="420" cy="20" r="7.0" style="fill:gray;stroke:black;stroke-width:1.0"/>
<circle cx="395" cy="43" r="7.0" style="fill:gray;stroke:black;stroke-width:1.0"/>
</svg>
