<svg width="440" height="340" xmlns="http://www.w3.org/2000/svg">
<path stroke-width="20.0" stroke="black" d="M 251 163 418 83"/>
<path stroke-width="0.5" stroke="black" d="M 261 320 145 20"/>
<path stroke-width="0.5" stroke="black" d="M 261 320 50 262"/>
<path stroke-width="0.5" stroke="black" d="M 261 320 251 97"/>
<path stroke-width="0.5" stroke="black" d="M 261 320 20 127"/>
<path stroke-width="0.5" stroke="black" d="M 261 320 420 243"/>
<path stroke-width="20.0" stroke="black" d="M 251 97 251 163"/>
<path stroke-width="0.5" stroke="black" d="M 251 97 418 83"/>
<path stroke-width="0.5" stroke="black" d="M 251 97 145 20"/>
<path stroke-width="0.5" stroke="black" d="M 251 97 50 262"/>
<path stroke-width="0.5" stroke="black" d="M 251 97 261 320"/>
<path stroke-width="0.5" stroke="black" d="M 251 97 20 127"/>
<path stroke-width="0.5" stroke="black" d="M 261 320 418 83"/>
<path stroke-width="0.5" stroke="black" d="M 251 97 420 243"/>
<path stroke-width="0.5" stroke="black" d="M 20 127 418 83"/>
<path stroke-width="0.5" stroke="black" d="M 20 127 145 20"/>
<path stroke-width="0.5" stroke="black" d="M 20 127 50 262"/>
<path stroke-width="0.5" stroke="black" d="M 20 127 261 320"/>
<path stroke-width="0.5" stroke="black" d="M 20 127 251 97"/>
<path stroke-width="0.5" stroke="black" d="M 20 127 420 243"/>
<path stroke-width="20.0" stroke="black" d="M 420 243 251 163"/>
<path stroke-width="0.5" stroke="black" d="M 420 243 418 83"/>
<path stroke-width="0.5" stroke="black" d="M 420 243 145 20"/>
<path stroke-width="0.5" stroke="black" d="M 420 243 50 262"/>
<path stroke-width="0.5" stroke="black" d="M 420 243 261 320"/>
<path stroke-width="20.0" stroke="black" d="M 20 127 251 163"/>
<path stroke-width="20.0" stroke="black" d="M 261 320 251 163"/>
<path stroke-width="0.5" stroke="black" d="M 50 262 420 243"/>
<path stroke-width="0.5" stroke="black" d="M 50 262 20 127"/>
<path stroke-width="20.0" stroke="black" d="M 251 163 145 20"/>
<path stroke-width="20.0" stroke="black" d="M 251 163 50 262"/>
<path stroke-width="20.0" stroke="black" d="M 251 163 261 320"/>
<path stroke-width="20.0" stroke="black" d="M 251 163 251 97"/>
<path stroke-width="20.0" stroke="black" d="M 251 163 20 127"/>
<path stroke-width="20.0" stroke="black" d="M 251 163 420 243"/>
<path stroke-width="20.0" stroke="black" d="M 418 83 251 163"/>
<path stroke-width="0.5" stroke="black" d="M 418 83 145 20"/>
<path stroke-width="0.5" stroke="black" d="M 418 83 50 262"/>
<path stroke-width="0.5" stroke="black" d="M 418 83 261 320"/>
<path stroke-width="0.5" stroke="black" d="M 418 83 251 97"/>
<path stroke-width="0.5" stroke="black" d="M 418 83 20 127"/>
<path stroke-width="0.5" stroke="black" d="M 418 83 420 243"/>
<path stroke-width="20.0" stroke="black" d="M 145 20 251 163"/>
<path stroke-width="0.5" stroke="black" d="M 145 20 418 83"/>
<path stroke-width="0.5" stroke="black" d="M 145 20 50 262"/>
<path stroke-width="0.5" stroke="black" d="M 145 20 261 320"/>
<path stroke-width="0.5" stroke="black" d="M 145 20 251 97"/>
<path stroke-width="0.5" stroke="black" d="M 145 20 20 127"/>
<path stroke-width="0.5" stroke="black" d="M 145 20 420 243"/>
<path stroke-width="20.0" stroke="black" d="M 50 262 251 163"/>
<path stroke-width="0.5" stroke="black" d="M 50 262 418 83"/>
<path stroke-width="0.5" stroke="black" d="M 50 262 145 20"/>
<path stroke-width="0.5" stroke="black" d="M 50 262 261 320"/>
<path stroke-width="0.5" stroke="black" d="M 50 262 251 97"/>
<path stroke-width="0.5" stroke="black" d="M 420 243 251 97"/>
<path stroke-width="0.5" stroke="black" d="M 420 243 20 127"/>
<circle cx="251" cy="163" r="7.0" style="fill:gray;stroke:black;stroke-width:1.0"/>
<circle cx="418" cy="83" r="7.0" style="fill:gray;stroke:black;stroke-width:1.0"/>
<circle cx="145" cy="20" r="7.0" style="fill:gray;stroke:black;stroke-width:1.0"/>
<circle cx="50" cy="262" r="7.0" style="fill:gray;stroke:black;stroke-width:1.0"/>
<circle cx="261" cy="320" r="7.0" style="fill:gray;stroke:black;stroke-width:1.0"/>
<circle cx="251" cy="97" r="7.0" style="fill:gray;stroke:black;stroke-width:1.0"/>
<circle cx="20" cy="127" r="7.0" style="fill:gray;stroke:black;stroke-width:1.0"/>
<circle cx="420" cy="243" r="7.0" style="fill:gray;stroke:black;stroke-width:1.0"/>
</svg>
