<svg width="440" height="340" xmlns="http://www.w3.org/2000/svg">
<path stroke-width="20.0" stroke="black" d="M 185 241 80 271"/>
<path stroke-width="0.5" stroke="black" d="M 20 170 222 20"/>
<path stroke-width="0.5" stroke="black" d="M 20 170 420 98"/>
<path stroke-width="0.5" stroke="black" d="M 20 170 128 137"/>
<path stroke-width="0.5" stroke="black" d="M 20 170 238 320"/>
<path stroke-width="0.5" stroke="black" d="M 20 170 404 275"/>
<path stroke-width="20.0" stroke="black" d="M 128 137 185 241"/>
<path stroke-width="0.5" stroke="black" d="M 128 137 80 271"/>
<path stroke-width="0.5" stroke="black" d="M 128 137 222 20"/>
<path stroke-width="0.5" stroke="black" d="M 128 137 420 98"/>
<path stroke-width="0.5" stroke="black" d="M 128 137 20 170"/>
<path stroke-width="0.5" stroke="black" d="M 128 137 238 320"/>
<path stroke-width="0.5" stroke="black" d="M 20 170 80 271"/>
<path stroke-width="0.5" stroke="black" d="M 128 137 404 275"/>
<path stroke-width="0.5" stroke="black" d="M 238 320 80 271"/>
<path stroke-width="0.5" stroke="black" d="M 238 320 222 20"/>
<path stroke-width="0.5" stroke="black" d="M 238 320 420 98"/>
<path stroke-width="0.5" stroke="black" d="M 238 320 20 170"/>
<path stroke-width="0.5" stroke="black" d="M 238 320 128 137"/>
<path stroke-width="0.5" stroke="black" d="M 238 320 404 275"/>
<path stroke-width="20.0" stroke="black" d="M 404 275 185 241"/>
<path stroke-width="0.5" stroke="black" d="M 404 275 80 271"/>
<path stroke-width="0.5" stroke="black" d="M 404 275 222 20"/>
<path stroke-width="0.5" stroke="black" d="M 404 275 420 98"/>
<path stroke-width="0.5" stroke="black" d="M 404 275 20 170"/>
<path stroke-width="20.0" stroke="black" d="M 238 320 185 241"/>
<path stroke-width="20.0" stroke="black" d="M 20 170 185 241"/>
<path stroke-width="0.5" stroke="black" d="M 420 98 404 275"/>
<path stroke-width="0.5" stroke="black" d="M 420 98 238 320"/>
<path stroke-width="20.0" stroke="black" d="M 185 241 222 20"/>
<path stroke-width="20.0" stroke="black" d="M 185 241 420 98"/>
<path stroke-width="20.0" stroke="black" d="M 185 241 20 170"/>
<path stroke-width="20.0" stroke="black" d="M 185 241 128 137"/>
<path stroke-width="20.0" stroke="black" d="M 185 241 238 320"/>
<path stroke-width="20.0" stroke="black" d="M 185 241 404 275"/>
<path stroke-width="20.0" stroke="black" d="M 80 271 185 241"/>
<path stroke-width="0.5" stroke="black" d="M 80 271 222 20"/>
<path stroke-width="0.5" stroke="black" d="M 80 271 420 98"/>
<path stroke-width="0.5" stroke="black" d="M 80 271 20 170"/>
<path stroke-width="0.5" stroke="black" d="M 80 271 128 137"/>
<path stroke-width="0.5" stroke="black" d="M 80 271 238 320"/>
<path stroke-width="0.5" stroke="black" d="M 80 271 404 275"/>
<path stroke-width="20.0" stroke="black" d="M 222 20 185 241"/>
<path stroke-width="0.5" stroke="black" d="M 222 20 80 271"/>
<path stroke-width="0.5" stroke="black" d="M 222 20 420 98"/>
<path stroke-width="0.5" stroke="black" d="M 222 20 20 170"/>
<path stroke-width="0.5" stroke="black" d="M 222 20 128 137"/>
<path stroke-width="0.5" stroke="black" d="M 222 20 238 320"/>
<path stroke-width="0.5" stroke="black" d="M 222 20 404 275"/>
<path stroke-width="20.0" stroke="black" d="M 420 98 185 241"/>
<path stroke-width="0.5" stroke="black" d="M 420 98 80 271"/>
<path stroke-width="0.5" stroke="black" d="M 420 98 222 20"/>
<path stroke-width="0.5" stroke="black" d="M 420 98 20 170"/>
<path stroke-width="0.5" stroke="black" d="M 420 98 128 137"/>
<path stroke-width="0.5" stroke="black" d="M 404 275 128 137"/>
<path stroke-width="0.5" stroke="black" d="M 404 275 238 320"/>
<circle cx="185" cy="241" r="20.0" style="fill:gray;stroke:black;stroke-width:1.0"/>
<circle cx="80" cy="271" r="20.0" style="fill:gray;stroke:black;stroke-width:1.0"/>
<circle cx="222" cy="20" r="20.0" style="fill:gray;stroke:black;stroke-width:1.0"/>
<circle cx="420" cy="98" r="20.0" style="fill:gray;stroke:black;stroke-width:1.0"/>
<circle cx="20" cy="170" r="20.0" style="fill:gray;stroke:black;stroke-width:1.0"/>
<circle cx="128" cy="137" r="20.0" style="fill:gray;stroke:black;stroke-width:1.0"/>
<circle cx="238" cy="320" r="20.0" style="fill:gray;stroke:black;stroke-width:1.0"/>
<circle cx="404" cy="275" r="20.0" style="fill:gray;stroke:black;stroke-width:1.0"/>
</svg>
