<svg width="440" height="340" xmlns="http://www.w3.org/2000/svg">
<path stroke-width="20.0" stroke="black" d="M 150 194 420 186"/>
<path stroke-width="0.5" stroke="black" d="M 255 319 272 20"/>
<path stroke-width="0.5" stroke="black" d="M 255 319 66 277"/>
<path stroke-width="0.5" stroke="black" d="M 255 319 20 191"/>
<path stroke-width="0.5" stroke="black" d="M 255 319 358 274"/>
<path stroke-width="0.5" stroke="black" d="M 255 319 245 224"/>
<path stroke-width="0.5" stroke="black" d="M 255 319 147 320"/>
<path stroke-width="0.5" stroke="black" d="M 255 319 98 45"/>
<path stroke-width="0.5" stroke="black" d="M 255 319 382 105"/>
<path stroke-width="20.0" stroke="black" d="M 245 224 150 194"/>
<path stroke-width="0.5" stroke="black" d="M 245 224 420 186"/>
<path stroke-width="0.5" stroke="black" d="M 245 224 194 89"/>
<path stroke-width="0.5" stroke="black" d="M 245 224 32 117"/>
<path stroke-width="0.5" stroke="black" d="M 245 224 272 20"/>
<path stroke-width="0.5" stroke="black" d="M 245 224 66 277"/>
<path stroke-width="0.5" stroke="black" d="M 245 224 20 191"/>
<path stroke-width="0.5" stroke="black" d="M 255 319 32 117"/>
<path stroke-width="0.5" stroke="black" d="M 255 319 194 89"/>
<path stroke-width="0.5" stroke="black" d="M 255 319 420 186"/>
<path stroke-width="20.0" stroke="black" d="M 255 319 150 194"/>
<path stroke-width="0.5" stroke="black" d="M 20 191 245 224"/>
<path stroke-width="0.5" stroke="black" d="M 20 191 147 320"/>
<path stroke-width="0.5" stroke="black" d="M 20 191 98 45"/>
<path stroke-width="0.5" stroke="black" d="M 20 191 382 105"/>
<path stroke-width="20.0" stroke="black" d="M 358 274 150 194"/>
<path stroke-width="0.5" stroke="black" d="M 358 274 420 186"/>
<path stroke-width="0.5" stroke="black" d="M 358 274 194 89"/>
<path stroke-width="0.5" stroke="black" d="M 245 224 358 274"/>
<path stroke-width="0.5" stroke="black" d="M 358 274 32 117"/>
<path stroke-width="0.5" stroke="black" d="M 358 274 66 277"/>
<path stroke-width="0.5" stroke="black" d="M 358 274 20 191"/>
<path stroke-width="0.5" stroke="black" d="M 358 274 255 319"/>
<path stroke-width="0.5" stroke="black" d="M 358 274 245 224"/>
<path stroke-width="0.5" stroke="black" d="M 358 274 147 320"/>
<path stroke-width="0.5" stroke="black" d="M 358 274 98 45"/>
<path stroke-width="0.5" stroke="black" d="M 358 274 382 105"/>
<path stroke-width="0.5" stroke="black" d="M 358 274 272 20"/>
<path stroke-width="0.5" stroke="black" d="M 20 191 255 319"/>
<path stroke-width="0.5" stroke="black" d="M 245 224 255 319"/>
<path stroke-width="0.5" stroke="black" d="M 245 224 98 45"/>
<path stroke-width="0.5" stroke="black" d="M 98 45 358 274"/>
<path stroke-width="0.5" stroke="black" d="M 98 45 255 319"/>
<path stroke-width="0.5" stroke="black" d="M 98 45 245 224"/>
<path stroke-width="0.5" stroke="black" d="M 98 45 147 320"/>
<path stroke-width="0.5" stroke="black" d="M 98 45 382 105"/>
<path stroke-width="20.0" stroke="black" d="M 382 105 150 194"/>
<path stroke-width="0.5" stroke="black" d="M 382 105 420 186"/>
<path stroke-width="0.5" stroke="black" d="M 382 105 194 89"/>
<path stroke-width="0.5" stroke="black" d="M 382 105 32 117"/>
<path stroke-width="0.5" stroke="black" d="M 382 105 272 20"/>
<path stroke-width="0.5" stroke="black" d="M 382 105 66 277"/>
<path stroke-width="0.5" stroke="black" d="M 382 105 20 191"/>
<path stroke-width="0.5" stroke="black" d="M 382 105 358 274"/>
<path stroke-width="0.5" stroke="black" d="M 382 105 255 319"/>
<path stroke-width="0.5" stroke="black" d="M 382 105 245 224"/>
<path stroke-width="0.5" stroke="black" d="M 98 45 20 191"/>
<path stroke-width="0.5" stroke="black" d="M 98 45 66 277"/>
<path stroke-width="0.5" stroke="black" d="M 98 45 272 20"/>
<path stroke-width="0.5" stroke="black" d="M 98 45 32 117"/>
<path stroke-width="0.5" stroke="black" d="M 245 224 382 105"/>
<path stroke-width="20.0" stroke="black" d="M 147 320 150 194"/>
<path stroke-width="0.5" stroke="black" d="M 147 320 420 186"/>
<path stroke-width="0.5" stroke="black" d="M 147 320 194 89"/>
<path stroke-width="0.5" stroke="black" d="M 147 320 32 117"/>
<path stroke-width="0.5" stroke="black" d="M 147 320 272 20"/>
<path stroke-width="0.5" stroke="black" d="M 147 320 66 277"/>
<path stroke-width="0.5" stroke="black" d="M 245 224 147 320"/>
<path stroke-width="0.5" stroke="black" d="M 147 320 20 191"/>
<path stroke-width="0.5" stroke="black" d="M 147 320 255 319"/>
<path stroke-width="0.5" stroke="black" d="M 147 320 245 224"/>
<path stroke-width="0.5" stroke="black" d="M 147 320 98 45"/>
<path stroke-width="0.5" stroke="black" d="M 147 320 382 105"/>
<path stroke-width="20.0" stroke="black" d="M 98 45 150 194"/>
<path stroke-width="0.5" stroke="black" d="M 98 45 420 186"/>
<path stroke-width="0.5" stroke="black" d="M 98 45 194 89"/>
<path stroke-width="0.5" stroke="black" d="M 147 320 358 274"/>
<path stroke-width="0.5" stroke="black" d="M 20 191 358 274"/>
<path stroke-width="0.5" stroke="black" d="M 20 191 66 277"/>
<path stroke-width="0.5" stroke="black" d="M 20 191 272 20"/>
<path stroke-width="0.5" stroke="black" d="M 420 186 147 320"/>
<path stroke-width="0.5" stroke="black" d="M 420 186 98 45"/>
<path stroke-width="0.5" stroke="black" d="M 420 186 382 105"/>
<path stroke-width="20.0" stroke="black" d="M 194 89 150 194"/>
<path stroke-width="0.5" stroke="black" d="M 194 89 420 186"/>
<path stroke-width="0.5" stroke="black" d="M 194 89 32 117"/>
<path stroke-width="0.5" stroke="black" d="M 194 89 272 20"/>
<path stroke-width="0.5" stroke="black" d="M 194 89 66 277"/>
<path stroke-width="0.5" stroke="black" d="M 194 89 20 191"/>
<path stroke-width="0.5" stroke="black" d="M 194 89 358 274"/>
<path stroke-width="0.5" stroke="black" d="M 194 89 255 319"/>
<path stroke-width="0.5" stroke="black" d="M 194 89 245 224"/>
<path stroke-width="0.5" stroke="black" d="M 194 89 147 320"/>
<path stroke-width="0.5" stroke="black" d="M 194 89 98 45"/>
<path stroke-width="0.5" stroke="black" d="M 194 89 382 105"/>
<path stroke-width="0.5" stroke="black" d="M 420 186 245 224"/>
<path stroke-width="0.5" stroke="black" d="M 420 186 255 319"/>
<path stroke-width="0.5" stroke="black" d="M 420 186 358 274"/>
<path stroke-width="0.5" stroke="black" d="M 420 186 20 191"/>
<path stroke-width="20.0" stroke="black" d="M 150 194 194 89"/>
<path stroke-width="20.0" stroke="black" d="M 150 194 32 117"/>
<path stroke-width="20.0" stroke="black" d="M 150 194 272 20"/>
<path stroke-width="20.0" stroke="black" d="M 150 194 66 277"/>
<path stroke-width="20.0" stroke="black" d="M 150 194 20 191"/>
<path stroke-width="20.0" stroke="black" d="M 150 194 358 274"/>
<path stroke-width="20.0" stroke="black" d="M 150 194 255 319"/>
<path stroke-width="20.0" stroke="black" d="M 32 117 150 194"/>
<path stroke-width="20.0" stroke="black" d="M 150 194 245 224"/>
<path stroke-width="20.0" stroke="black" d="M 150 194 98 45"/>
<path stroke-width="20.0" stroke="black" d="M 150 194 382 105"/>
<path stroke-width="20.0" stroke="black" d="M 420 186 150 194"/>
<path stroke-width="0.5" stroke="black" d="M 420 186 194 89"/>
<path stroke-width="0.5" stroke="black" d="M 420 186 32 117"/>
<path stroke-width="0.5" stroke="black" d="M 420 186 272 20"/>
<path stroke-width="0.5" stroke="black" d="M 420 186 66 277"/>
<path stroke-width="20.0" stroke="black" d="M 150 194 147 320"/>
<path stroke-width="0.5" stroke="black" d="M 32 117 420 186"/>
<path stroke-width="0.5" stroke="black" d="M 32 117 194 89"/>
<path stroke-width="0.5" stroke="black" d="M 32 117 272 20"/>
<path stroke-width="20.0" stroke="black" d="M 66 277 150 194"/>
<path stroke-width="0.5" stroke="black" d="M 66 277 420 186"/>
<path stroke-width="0.5" stroke="black" d="M 66 277 194 89"/>
<path stroke-width="0.5" stroke="black" d="M 66 277 32 117"/>
<path stroke-width="0.5" stroke="black" d="M 66 277 272 20"/>
<path stroke-width="0.5" stroke="black" d="M 66 277 20 191"/>
<path stroke-width="0.5" stroke="black" d="M 66 277 358 274"/>
<path stroke-width="0.5" stroke="black" d="M 272 20 382 105"/>
<path stroke-width="0.5" stroke="black" d="M 66 277 255 319"/>
<path stroke-width="0.5" stroke="black" d="M 66 277 147 320"/>
<path stroke-width="0.5" stroke="black" d="M 66 277 98 45"/>
<path stroke-width="0.5" stroke="black" d="M 66 277 382 105"/>
<path stroke-width="20.0" stroke="black" d="M 20 191 150 194"/>
<path stroke-width="0.5" stroke="black" d="M 20 191 420 186"/>
<path stroke-width="0.5" stroke="black" d="M 20 191 194 89"/>
<path stroke-width="0.5" stroke="black" d="M 20 191 32 117"/>
<path stroke-width="0.5" stroke="black" d="M 66 277 245 224"/>
<path stroke-width="0.5" stroke="black" d="M 382 105 147 320"/>
<path stroke-width="0.5" stroke="black" d="M 272 20 98 45"/>
<path stroke-width="0.5" stroke="black" d="M 272 20 245 224"/>
<path stroke-width="0.5" stroke="black" d="M 32 117 66 277"/>
<path stroke-width="0.5" stroke="black" d="M 32 117 20 191"/>
<path stroke-width="0.5" stroke="black" d="M 32 117 358 274"/>
<path stroke-width="0.5" stroke="black" d="M 32 117 255 319"/>
<path stroke-width="0.5" stroke="black" d="M 32 117 245 224"/>
<path stroke-width="0.5" stroke="black" d="M 32 117 147 320"/>
<path stroke-width="0.5" stroke="black" d="M 32 117 98 45"/>
<path stroke-width="0.5" stroke="black" d="M 272 20 147 320"/>
<path stroke-width="0.5" stroke="black" d="M 32 117 382 105"/>
<path stroke-width="0.5" stroke="black" d="M 272 20 420 186"/>
<path stroke-width="0.5" stroke="black" d="M 272 20 194 89"/>
<path stroke-width="0.5" stroke="black" d="M 272 20 32 117"/>
<path stroke-width="0.5" stroke="black" d="M 272 20 66 277"/>
<path stroke-width="0.5" stroke="black" d="M 272 20 20 191"/>
<path stroke-width="0.5" stroke="black" d="M 272 20 358 274"/>
<path stroke-width="0.5" stroke="black" d="M 272 20 255 319"/>
<path stroke-width="20.0" stroke="black" d="M 272 20 150 194"/>
<path stroke-width="0.5" stroke="black" d="M 382 105 98 45"/>
<circle cx="150" cy="194" r="7.0" style="fill:gray;stroke:black;stroke-width:1.0"/>
<circle cx="420" cy="186" r="7.0" style="fill:gray;stroke:black;stroke-width:1.0"/>
<circle cx="194" cy="89" r="7.0" style="fill:gray;stroke:black;stroke-width:1.0"/>
<circle cx="32" cy="117" r="7.0" style="fill:gray;stroke:black;stroke-width:1.0"/>
<circle cx="272" cy="20" r="7.0" style="fill:gray;stroke:black;stroke-width:1.0"/>
<circle cx="66" cy="277" r="7.0" style="fill:gray;stroke:black;stroke-width:1.0"/>
<circle cx="20" cy="191" r="7.0" style="fill:gray;stroke:black;stroke-width:1.0"/>
<circle cx="358" cy="274" r="7.0" style="fill:gray;stroke:black;stroke-width:1.0"/>
<circle cx="255" cy="319" r="7.0" style="fill:gray;stroke:black;stroke-width:1.0"/>
<circle cx="245" cy="224" r="7.0" style="fill:gray;stroke:black;stroke-width:1.0"/>
<circle cx="147" cy="320" r="7.0" style="fill:gray;stroke:black;stroke-width:1.0"/>
<circle cx="98" cy="45" r="7.0" style="fill:gray;stroke:black;stroke-width:1.0"/>
<circle cx="382" cy="105" r="7.0" style="fill:gray;stroke:black;stroke-width:1.0"/>
</svg>
