<svg width="440" height="340" xmlns="http://www.w3.org/2000/svg">
<path stroke-width="1" stroke="black" d="M 138 150 38 125"/>
<path stroke-width="1" stroke="black" d="M 420 239 100 62"/>
<path stroke-width="1" stroke="black" d="M 420 239 275 232"/>
<path stroke-width="1" stroke="black" d="M 420 239 238 69"/>
<path stroke-width="1" stroke="black" d="M 420 239 376 75"/>
<path stroke-width="1" stroke="black" d="M 420 239 200 20"/>
<path stroke-width="1" stroke="black" d="M 420 239 167 320"/>
<path stroke-width="1" stroke="black" d="M 420 239 281 317"/>
<path stroke-width="1" stroke="black" d="M 420 239 86 264"/>
<path stroke-width="1" stroke="black" d="M 200 20 138 150"/>
<path stroke-width="1" stroke="black" d="M 200 20 38 125"/>
<path stroke-width="1" stroke="black" d="M 200 20 370 143"/>
<path stroke-width="1" stroke="black" d="M 200 20 20 210"/>
<path stroke-width="1" stroke="black" d="M 200 20 100 62"/>
<path stroke-width="1" stroke="black" d="M 200 20 275 232"/>
<path stroke-width="1" stroke="black" d="M 200 20 238 69"/>
<path stroke-width="1" stroke="black" d="M 420 239 20 210"/>
<path stroke-width="1" stroke="black" d="M 420 239 370 143"/>
<path stroke-width="1" stroke="black" d="M 420 239 38 125"/>
<path stroke-width="1" stroke="black" d="M 420 239 138 150"/>
<path stroke-width="1" stroke="black" d="M 238 69 200 20"/>
<path stroke-width="1" stroke="black" d="M 238 69 167 320"/>
<path stroke-width="1" stroke="black" d="M 238 69 281 317"/>
<path stroke-width="1" stroke="black" d="M 238 69 86 264"/>
<path stroke-width="1" stroke="black" d="M 376 75 138 150"/>
<path stroke-width="1" stroke="black" d="M 376 75 38 125"/>
<path stroke-width="1" stroke="black" d="M 376 75 370 143"/>
<path stroke-width="1" stroke="black" d="M 200 20 376 75"/>
<path stroke-width="1" stroke="black" d="M 376 75 20 210"/>
<path stroke-width="1" stroke="black" d="M 376 75 275 232"/>
<path stroke-width="1" stroke="black" d="M 376 75 238 69"/>
<path stroke-width="1" stroke="black" d="M 376 75 420 239"/>
<path stroke-width="1" stroke="black" d="M 376 75 200 20"/>
<path stroke-width="1" stroke="black" d="M 376 75 167 320"/>
<path stroke-width="1" stroke="black" d="M 376 75 281 317"/>
<path stroke-width="1" stroke="black" d="M 376 75 86 264"/>
<path stroke-width="1" stroke="black" d="M 376 75 100 62"/>
<path stroke-width="1" stroke="black" d="M 238 69 420 239"/>
<path stroke-width="1" stroke="black" d="M 200 20 420 239"/>
<path stroke-width="1" stroke="black" d="M 200 20 281 317"/>
<path stroke-width="1" stroke="black" d="M 281 317 376 75"/>
<path stroke-width="1" stroke="black" d="M 281 317 420 239"/>
<path stroke-width="1" stroke="black" d="M 281 317 200 20"/>
<path stroke-width="1" stroke="black" d="M 281 317 167 320"/>
<path stroke-width="1" stroke="black" d="M 281 317 86 264"/>
<path stroke-width="1" stroke="black" d="M 86 264 138 150"/>
<path stroke-width="1" stroke="black" d="M 86 264 38 125"/>
<path stroke-width="1" stroke="black" d="M 86 264 370 143"/>
<path stroke-width="1" stroke="black" d="M 86 264 20 210"/>
<path stroke-width="1" stroke="black" d="M 86 264 100 62"/>
<path stroke-width="1" stroke="black" d="M 86 264 275 232"/>
<path stroke-width="1" stroke="black" d="M 86 264 238 69"/>
<path stroke-width="1" stroke="black" d="M 86 264 376 75"/>
<path stroke-width="1" stroke="black" d="M 86 264 420 239"/>
<path stroke-width="1" stroke="black" d="M 86 264 200 20"/>
<path stroke-width="1" stroke="black" d="M 281 317 238 69"/>
<path stroke-width="1" stroke="black" d="M 281 317 275 232"/>
<path stroke-width="1" stroke="black" d="M 281 317 100 62"/>
<path stroke-width="1" stroke="black" d="M 281 317 20 210"/>
<path stroke-width="1" stroke="black" d="M 200 20 86 264"/>
<path stroke-width="1" stroke="black" d="M 167 320 138 150"/>
<path stroke-width="1" stroke="black" d="M 167 320 38 125"/>
<path stroke-width="1" stroke="black" d="M 167 320 370 143"/>
<path stroke-width="1" stroke="black" d="M 167 320 20 210"/>
<path stroke-width="1" stroke="black" d="M 167 320 100 62"/>
<path stroke-width="1" stroke="black" d="M 167 320 275 232"/>
<path stroke-width="1" stroke="black" d="M 200 20 167 320"/>
<path stroke-width="1" stroke="black" d="M 167 320 238 69"/>
<path stroke-width="1" stroke="black" d="M 167 320 420 239"/>
<path stroke-width="1" stroke="black" d="M 167 320 200 20"/>
<path stroke-width="1" stroke="black" d="M 167 320 281 317"/>
<path stroke-width="1" stroke="black" d="M 167 320 86 264"/>
<path stroke-width="1" stroke="black" d="M 281 317 138 150"/>
<path stroke-width="1" stroke="black" d="M 281 317 38 125"/>
<path stroke-width="1" stroke="black" d="M 281 317 370 143"/>
<path stroke-width="1" stroke="black" d="M 167 320 376 75"/>
<path stroke-width="1" stroke="black" d="M 238 69 376 75"/>
<path stroke-width="1" stroke="black" d="M 238 69 275 232"/>
<path stroke-width="1" stroke="black" d="M 238 69 100 62"/>
<path stroke-width="1" stroke="black" d="M 38 125 167 320"/>
<path stroke-width="1" stroke="black" d="M 38 125 281 317"/>
<path stroke-width="1" stroke="black" d="M 38 125 86 264"/>
<path stroke-width="1" stroke="black" d="M 370 143 138 150"/>
<path stroke-width="1" stroke="black" d="M 370 143 38 125"/>
<path stroke-width="1" stroke="black" d="M 370 143 20 210"/>
<path stroke-width="1" stroke="black" d="M 370 143 100 62"/>
<path stroke-width="1" stroke="black" d="M 370 143 275 232"/>
<path stroke-width="1" stroke="black" d="M 370 143 238 69"/>
<path stroke-width="1" stroke="black" d="M 370 143 376 75"/>
<path stroke-width="1" stroke="black" d="M 370 143 420 239"/>
<path stroke-width="1" stroke="black" d="M 370 143 200 20"/>
<path stroke-width="1" stroke="black" d="M 370 143 167 320"/>
<path stroke-width="1" stroke="black" d="M 370 143 281 317"/>
<path stroke-width="1" stroke="black" d="M 370 143 86 264"/>
<path stroke-width="1" stroke="black" d="M 38 125 200 20"/>
<path stroke-width="1" stroke="black" d="M 38 125 420 239"/>
<path stroke-width="1" stroke="black" d="M 38 125 376 75"/>
<path stroke-width="1" stroke="black" d="M 38 125 238 69"/>
<path stroke-width="1" stroke="black" d="M 138 150 370 143"/>
<path stroke-width="1" stroke="black" d="M 138 150 20 210"/>
<path stroke-width="1" stroke="black" d="M 138 150 100 62"/>
<path stroke-width="1" stroke="black" d="M 138 150 275 232"/>
<path stroke-width="1" stroke="black" d="M 138 150 238 69"/>
<path stroke-width="1" stroke="black" d="M 138 150 376 75"/>
<path stroke-width="1" stroke="black" d="M 138 150 420 239"/>
<path stroke-width="1" stroke="black" d="M 20 210 138 150"/>
<path stroke-width="1" stroke="black" d="M 138 150 200 20"/>
<path stroke-width="1" stroke="black" d="M 138 150 281 317"/>
<path stroke-width="1" stroke="black" d="M 138 150 86 264"/>
<path stroke-width="1" stroke="black" d="M 38 125 138 150"/>
<path stroke-width="1" stroke="black" d="M 38 125 370 143"/>
<path stroke-width="1" stroke="black" d="M 38 125 20 210"/>
<path stroke-width="1" stroke="black" d="M 38 125 100 62"/>
<path stroke-width="1" stroke="black" d="M 38 125 275 232"/>
<path stroke-width="1" stroke="black" d="M 138 150 167 320"/>
<path stroke-width="1" stroke="black" d="M 20 210 38 125"/>
<path stroke-width="1" stroke="black" d="M 20 210 370 143"/>
<path stroke-width="1" stroke="black" d="M 20 210 100 62"/>
<path stroke-width="1" stroke="black" d="M 275 232 138 150"/>
<path stroke-width="1" stroke="black" d="M 275 232 38 125"/>
<path stroke-width="1" stroke="black" d="M 275 232 370 143"/>
<path stroke-width="1" stroke="black" d="M 275 232 20 210"/>
<path stroke-width="1" stroke="black" d="M 275 232 100 62"/>
<path stroke-width="1" stroke="black" d="M 275 232 238 69"/>
<path stroke-width="1" stroke="black" d="M 275 232 376 75"/>
<path stroke-width="1" stroke="black" d="M 100 62 86 264"/>
<path stroke-width="1" stroke="black" d="M 275 232 420 239"/>
<path stroke-width="1" stroke="black" d="M 275 232 167 320"/>
<path stroke-width="1" stroke="black" d="M 275 232 281 317"/>
<path stroke-width="1" stroke="black" d="M 275 232 86 264"/>
<path stroke-width="1" stroke="black" d="M 238 69 138 150"/>
<path stroke-width="1" stroke="black" d="M 238 69 38 125"/>
<path stroke-width="1" stroke="black" d="M 238 69 370 143"/>
<path stroke-width="1" stroke="black" d="M 238 69 20 210"/>
<path stroke-width="1" stroke="black" d="M 275 232 200 20"/>
<path stroke-width="1" stroke="black" d="M 86 264 167 320"/>
<path stroke-width="1" stroke="black" d="M 100 62 281 317"/>
<path stroke-width="1" stroke="black" d="M 100 62 200 20"/>
<path stroke-width="1" stroke="black" d="M 20 210 275 232"/>
<path stroke-width="1" stroke="black" d="M 20 210 238 69"/>
<path stroke-width="1" stroke="black" d="M 20 210 376 75"/>
<path stroke-width="1" stroke="black" d="M 20 210 420 239"/>
<path stroke-width="1" stroke="black" d="M 20 210 200 20"/>
<path stroke-width="1" stroke="black" d="M 20 210 167 320"/>
<path stroke-width="1" stroke="black" d="M 20 210 281 317"/>
<path stroke-width="1" stroke="black" d="M 100 62 167 320"/>
<path stroke-width="1" stroke="black" d="M 20 210 86 264"/>
<path stroke-width="1" stroke="black" d="M 100 62 38 125"/>
<path stroke-width="1" stroke="black" d="M 100 62 370 143"/>
<path stroke-width="1" stroke="black" d="M 100 62 20 210"/>
<path stroke-width="1" stroke="black" d="M 100 62 275 232"/>
<path stroke-width="1" stroke="black" d="M 100 62 238 69"/>
<path stroke-width="1" stroke="black" d="M 100 62 376 75"/>
<path stroke-width="1" stroke="black" d="M 100 62 420 239"/>
<path stroke-width="1" stroke="black" d="M 100 62 138 150"/>
<path stroke-width="1" stroke="black" d="M 86 264 281 317"/>
<circle cx="138" cy="150" r="20.0" style="fill:gray;stroke:black;stroke-width:1.0"/>
<circle cx="38" cy="125" r="20.0" style="fill:gray;stroke:black;stroke-width:1.0"/>
<circle cx="370" cy="143" r="20.0" style="fill:gray;stroke:black;stroke-width:1.0"/>
<circle cx="20" cy="210" r="20.0" style="fill:gray;stroke:black;stroke-width:1.0"/>
<circle cx="100" cy="62" r="20.0" style="fill:gray;stroke:black;stroke-width:1.0"/>
<circle cx="275" cy="232" r="20.0" style="fill:gray;stroke:black;stroke-width:1.0"/>
<circle cx="238" cy="69" r="20.0" style="fill:gray;stroke:black;stroke-width:1.0"/>
<circle cx="376" cy="75" r="20.0" style="fill:gray;stroke:black;stroke-width:1.0"/>
<circle cx="420" cy="239" r="20.0" style="fill:gray;stroke:black;stroke-width:1.0"/>
<circle cx="200" cy="20" r="20.0" style="fill:gray;stroke:black;stroke-width:1.0"/>
<circle cx="167" cy="320" r="20.0" style="fill:gray;stroke:black;stroke-width:1.0"/>
<circle cx="281" cy="317" r="20.0" style="fill:gray;stroke:black;stroke-width:1.0"/>
<circle cx="86" cy="264" r="20.0" style="fill:gray;stroke:black;stroke-width:1.0"/>
</svg>
