<svg width="440" height="340" xmlns="http://www.w3.org/2000/svg">
<path stroke-width="20.0" stroke="black" d="M 277 207 416 128"/>
<path stroke-width="0.5" stroke="black" d="M 420 225 164 316"/>
<path stroke-width="0.5" stroke="black" d="M 420 225 189 20"/>
<path stroke-width="0.5" stroke="black" d="M 420 225 271 320"/>
<path stroke-width="0.5" stroke="black" d="M 420 225 78 63"/>
<path stroke-width="0.5" stroke="black" d="M 420 225 61 263"/>
<path stroke-width="0.5" stroke="black" d="M 420 225 20 164"/>
<path stroke-width="0.5" stroke="black" d="M 420 225 335 278"/>
<path stroke-width="0.5" stroke="black" d="M 420 225 121 159"/>
<path stroke-width="20.0" stroke="black" d="M 61 263 277 207"/>
<path stroke-width="0.5" stroke="black" d="M 61 263 416 128"/>
<path stroke-width="0.5" stroke="black" d="M 61 263 329 22"/>
<path stroke-width="0.5" stroke="black" d="M 61 263 306 120"/>
<path stroke-width="0.5" stroke="black" d="M 61 263 164 316"/>
<path stroke-width="0.5" stroke="black" d="M 61 263 189 20"/>
<path stroke-width="0.5" stroke="black" d="M 61 263 271 320"/>
<path stroke-width="0.5" stroke="black" d="M 420 225 306 120"/>
<path stroke-width="0.5" stroke="black" d="M 420 225 329 22"/>
<path stroke-width="0.5" stroke="black" d="M 420 225 416 128"/>
<path stroke-width="20.0" stroke="black" d="M 420 225 277 207"/>
<path stroke-width="0.5" stroke="black" d="M 271 320 61 263"/>
<path stroke-width="0.5" stroke="black" d="M 271 320 20 164"/>
<path stroke-width="0.5" stroke="black" d="M 271 320 335 278"/>
<path stroke-width="0.5" stroke="black" d="M 271 320 121 159"/>
<path stroke-width="20.0" stroke="black" d="M 78 63 277 207"/>
<path stroke-width="0.5" stroke="black" d="M 78 63 416 128"/>
<path stroke-width="0.5" stroke="black" d="M 78 63 329 22"/>
<path stroke-width="0.5" stroke="black" d="M 61 263 78 63"/>
<path stroke-width="0.5" stroke="black" d="M 78 63 306 120"/>
<path stroke-width="0.5" stroke="black" d="M 78 63 189 20"/>
<path stroke-width="0.5" stroke="black" d="M 78 63 271 320"/>
<path stroke-width="0.5" stroke="black" d="M 78 63 420 225"/>
<path stroke-width="0.5" stroke="black" d="M 78 63 61 263"/>
<path stroke-width="0.5" stroke="black" d="M 78 63 20 164"/>
<path stroke-width="0.5" stroke="black" d="M 78 63 335 278"/>
<path stroke-width="0.5" stroke="black" d="M 78 63 121 159"/>
<path stroke-width="0.5" stroke="black" d="M 78 63 164 316"/>
<path stroke-width="0.5" stroke="black" d="M 271 320 420 225"/>
<path stroke-width="0.5" stroke="black" d="M 61 263 420 225"/>
<path stroke-width="0.5" stroke="black" d="M 61 263 335 278"/>
<path stroke-width="0.5" stroke="black" d="M 335 278 78 63"/>
<path stroke-width="0.5" stroke="black" d="M 335 278 420 225"/>
<path stroke-width="0.5" stroke="black" d="M 335 278 61 263"/>
<path stroke-width="0.5" stroke="black" d="M 335 278 20 164"/>
<path stroke-width="0.5" stroke="black" d="M 335 278 121 159"/>
<path stroke-width="20.0" stroke="black" d="M 121 159 277 207"/>
<path stroke-width="0.5" stroke="black" d="M 121 159 416 128"/>
<path stroke-width="0.5" stroke="black" d="M 121 159 329 22"/>
<path stroke-width="0.5" stroke="black" d="M 121 159 306 120"/>
<path stroke-width="0.5" stroke="black" d="M 121 159 164 316"/>
<path stroke-width="0.5" stroke="black" d="M 121 159 189 20"/>
<path stroke-width="0.5" stroke="black" d="M 121 159 271 320"/>
<path stroke-width="0.5" stroke="black" d="M 121 159 78 63"/>
<path stroke-width="0.5" stroke="black" d="M 121 159 420 225"/>
<path stroke-width="0.5" stroke="black" d="M 121 159 61 263"/>
<path stroke-width="0.5" stroke="black" d="M 335 278 271 320"/>
<path stroke-width="0.5" stroke="black" d="M 335 278 189 20"/>
<path stroke-width="0.5" stroke="black" d="M 335 278 164 316"/>
<path stroke-width="0.5" stroke="black" d="M 335 278 306 120"/>
<path stroke-width="0.5" stroke="black" d="M 61 263 121 159"/>
<path stroke-width="20.0" stroke="black" d="M 20 164 277 207"/>
<path stroke-width="0.5" stroke="black" d="M 20 164 416 128"/>
<path stroke-width="0.5" stroke="black" d="M 20 164 329 22"/>
<path stroke-width="0.5" stroke="black" d="M 20 164 306 120"/>
<path stroke-width="0.5" stroke="black" d="M 20 164 164 316"/>
<path stroke-width="0.5" stroke="black" d="M 20 164 189 20"/>
<path stroke-width="0.5" stroke="black" d="M 61 263 20 164"/>
<path stroke-width="0.5" stroke="black" d="M 20 164 271 320"/>
<path stroke-width="0.5" stroke="black" d="M 20 164 420 225"/>
<path stroke-width="0.5" stroke="black" d="M 20 164 61 263"/>
<path stroke-width="0.5" stroke="black" d="M 20 164 335 278"/>
<path stroke-width="0.5" stroke="black" d="M 20 164 121 159"/>
<path stroke-width="20.0" stroke="black" d="M 335 278 277 207"/>
<path stroke-width="0.5" stroke="black" d="M 335 278 416 128"/>
<path stroke-width="0.5" stroke="black" d="M 335 278 329 22"/>
<path stroke-width="0.5" stroke="black" d="M 20 164 78 63"/>
<path stroke-width="0.5" stroke="black" d="M 271 320 78 63"/>
<path stroke-width="0.5" stroke="black" d="M 271 320 189 20"/>
<path stroke-width="0.5" stroke="black" d="M 271 320 164 316"/>
<path stroke-width="0.5" stroke="black" d="M 416 128 20 164"/>
<path stroke-width="0.5" stroke="black" d="M 416 128 335 278"/>
<path stroke-width="0.5" stroke="black" d="M 416 128 121 159"/>
<path stroke-width="20.0" stroke="black" d="M 329 22 277 207"/>
<path stroke-width="0.5" stroke="black" d="M 329 22 416 128"/>
<path stroke-width="0.5" stroke="black" d="M 329 22 306 120"/>
<path stroke-width="0.5" stroke="black" d="M 329 22 164 316"/>
<path stroke-width="0.5" stroke="black" d="M 329 22 189 20"/>
<path stroke-width="0.5" stroke="black" d="M 329 22 271 320"/>
<path stroke-width="0.5" stroke="black" d="M 329 22 78 63"/>
<path stroke-width="0.5" stroke="black" d="M 329 22 420 225"/>
<path stroke-width="0.5" stroke="black" d="M 329 22 61 263"/>
<path stroke-width="0.5" stroke="black" d="M 329 22 20 164"/>
<path stroke-width="0.5" stroke="black" d="M 329 22 335 278"/>
<path stroke-width="0.5" stroke="black" d="M 329 22 121 159"/>
<path stroke-width="0.5" stroke="black" d="M 416 128 61 263"/>
<path stroke-width="0.5" stroke="black" d="M 416 128 420 225"/>
<path stroke-width="0.5" stroke="black" d="M 416 128 78 63"/>
<path stroke-width="0.5" stroke="black" d="M 416 128 271 320"/>
<path stroke-width="20.0" stroke="black" d="M 277 207 329 22"/>
<path stroke-width="20.0" stroke="black" d="M 277 207 306 120"/>
<path stroke-width="20.0" stroke="black" d="M 277 207 164 316"/>
<path stroke-width="20.0" stroke="black" d="M 277 207 189 20"/>
<path stroke-width="20.0" stroke="black" d="M 277 207 271 320"/>
<path stroke-width="20.0" stroke="black" d="M 277 207 78 63"/>
<path stroke-width="20.0" stroke="black" d="M 277 207 420 225"/>
<path stroke-width="20.0" stroke="black" d="M 306 120 277 207"/>
<path stroke-width="20.0" stroke="black" d="M 277 207 61 263"/>
<path stroke-width="20.0" stroke="black" d="M 277 207 335 278"/>
<path stroke-width="20.0" stroke="black" d="M 277 207 121 159"/>
<path stroke-width="20.0" stroke="black" d="M 416 128 277 207"/>
<path stroke-width="0.5" stroke="black" d="M 416 128 329 22"/>
<path stroke-width="0.5" stroke="black" d="M 416 128 306 120"/>
<path stroke-width="0.5" stroke="black" d="M 416 128 164 316"/>
<path stroke-width="0.5" stroke="black" d="M 416 128 189 20"/>
<path stroke-width="20.0" stroke="black" d="M 277 207 20 164"/>
<path stroke-width="0.5" stroke="black" d="M 306 120 416 128"/>
<path stroke-width="0.5" stroke="black" d="M 306 120 329 22"/>
<path stroke-width="0.5" stroke="black" d="M 306 120 164 316"/>
<path stroke-width="20.0" stroke="black" d="M 189 20 277 207"/>
<path stroke-width="0.5" stroke="black" d="M 189 20 416 128"/>
<path stroke-width="0.5" stroke="black" d="M 189 20 329 22"/>
<path stroke-width="0.5" stroke="black" d="M 189 20 306 120"/>
<path stroke-width="0.5" stroke="black" d="M 189 20 164 316"/>
<path stroke-width="0.5" stroke="black" d="M 189 20 271 320"/>
<path stroke-width="0.5" stroke="black" d="M 189 20 78 63"/>
<path stroke-width="0.5" stroke="black" d="M 164 316 121 159"/>
<path stroke-width="0.5" stroke="black" d="M 189 20 420 225"/>
<path stroke-width="0.5" stroke="black" d="M 189 20 20 164"/>
<path stroke-width="0.5" stroke="black" d="M 189 20 335 278"/>
<path stroke-width="0.5" stroke="black" d="M 189 20 121 159"/>
<path stroke-width="20.0" stroke="black" d="M 271 320 277 207"/>
<path stroke-width="0.5" stroke="black" d="M 271 320 416 128"/>
<path stroke-width="0.5" stroke="black" d="M 271 320 329 22"/>
<path stroke-width="0.5" stroke="black" d="M 271 320 306 120"/>
<path stroke-width="0.5" stroke="black" d="M 189 20 61 263"/>
<path stroke-width="0.5" stroke="black" d="M 121 159 20 164"/>
<path stroke-width="0.5" stroke="black" d="M 164 316 335 278"/>
<path stroke-width="0.5" stroke="black" d="M 164 316 61 263"/>
<path stroke-width="0.5" stroke="black" d="M 306 120 189 20"/>
<path stroke-width="0.5" stroke="black" d="M 306 120 271 320"/>
<path stroke-width="0.5" stroke="black" d="M 306 120 78 63"/>
<path stroke-width="0.5" stroke="black" d="M 306 120 420 225"/>
<path stroke-width="0.5" stroke="black" d="M 306 120 61 263"/>
<path stroke-width="0.5" stroke="black" d="M 306 120 20 164"/>
<path stroke-width="0.5" stroke="black" d="M 306 120 335 278"/>
<path stroke-width="0.5" stroke="black" d="M 164 316 20 164"/>
<path stroke-width="0.5" stroke="black" d="M 306 120 121 159"/>
<path stroke-width="0.5" stroke="black" d="M 164 316 416 128"/>
<path stroke-width="0.5" stroke="black" d="M 164 316 329 22"/>
<path stroke-width="0.5" stroke="black" d="M 164 316 306 120"/>
<path stroke-width="0.5" stroke="black" d="M 164 316 189 20"/>
<path stroke-width="0.5" stroke="black" d="M 164 316 271 320"/>
<path stroke-width="0.5" stroke="black" d="M 164 316 78 63"/>
<path stroke-width="0.5" stroke="black" d="M 164 316 420 225"/>
<path stroke-width="20.0" stroke="black" d="M 164 316 277 207"/>
<path stroke-width="0.5" stroke="black" d="M 121 159 335 278"/>
<circle cx="277" cy="207" r="7.0" style="fill:gray;stroke:black;stroke-width:1.0"/>
<circle cx="416" cy="128" r="7.0" style="fill:gray;stroke:black;stroke-width:1.0"/>
<circle cx="329" cy="22" r="7.0" style="fill:gray;stroke:black;stroke-width:1.0"/>
<circle cx="306" cy="120" r="7.0" style="fill:gray;stroke:black;stroke-width:1.0"/>
<circle cx="164" cy="316" r="7.0" style="fill:gray;stroke:black;stroke-width:1.0"/>
<circle cx="189" cy="20" r="7.0" style="fill:gray;stroke:black;stroke-width:1.0"/>
<circle cx="271" cy="320" r="7.0" style="fill:gray;stroke:black;stroke-width:1.0"/>
<circle cx="78" cy="63" r="7.0" style="fill:gray;stroke:black;stroke-width:1.0"/>
<circle cx="420" cy="225" r="7.0" style="fill:gray;stroke:black;stroke-width:1.0"/>
<circle cx="61" cy="263" r="7.0" style="fill:gray;stroke:black;stroke-width:1.0"/>
<circle cx="20" cy="164" r="7.0" style="fill:gray;stroke:black;stroke-width:1.0"/>
<circle cx="335" cy="278" r="7.0" style="fill:gray;stroke:black;stroke-width:1.0"/>
<circle cx="121" cy="159" r="7.0" style="fill:gray;stroke:black;stroke-width:1.0"/>
</svg>
