<svg width="440" height="340" xmlns="http://www.w3.org/2000/svg">
<path stroke-width="1" stroke="black" d="M 259 115 134 20"/>
<path stroke-width="1" stroke="black" d="M 346 26 417 101"/>
<path stroke-width="1" stroke="black" d="M 346 26 45 272"/>
<path stroke-width="1" stroke="black" d="M 346 26 396 158"/>
<path stroke-width="1" stroke="black" d="M 346 26 270 223"/>
<path stroke-width="1" stroke="black" d="M 346 26 298 320"/>
<path stroke-width="1" stroke="black" d="M 346 26 420 240"/>
<path stroke-width="1" stroke="black" d="M 346 26 70 171"/>
<path stroke-width="1" stroke="black" d="M 346 26 150 61"/>
<path stroke-width="1" stroke="black" d="M 298 320 259 115"/>
<path stroke-width="1" stroke="black" d="M 298 320 134 20"/>
<path stroke-width="1" stroke="black" d="M 298 320 20 91"/>
<path stroke-width="1" stroke="black" d="M 298 320 165 314"/>
<path stroke-width="1" stroke="black" d="M 298 320 417 101"/>
<path stroke-width="1" stroke="black" d="M 298 320 45 272"/>
<path stroke-width="1" stroke="black" d="M 298 320 396 158"/>
<path stroke-width="1" stroke="black" d="M 346 26 165 314"/>
<path stroke-width="1" stroke="black" d="M 346 26 20 91"/>
<path stroke-width="1" stroke="black" d="M 346 26 134 20"/>
<path stroke-width="1" stroke="black" d="M 346 26 259 115"/>
<path stroke-width="1" stroke="black" d="M 396 158 298 320"/>
<path stroke-width="1" stroke="black" d="M 396 158 420 240"/>
<path stroke-width="1" stroke="black" d="M 396 158 70 171"/>
<path stroke-width="1" stroke="black" d="M 396 158 150 61"/>
<path stroke-width="1" stroke="black" d="M 270 223 259 115"/>
<path stroke-width="1" stroke="black" d="M 270 223 134 20"/>
<path stroke-width="1" stroke="black" d="M 270 223 20 91"/>
<path stroke-width="1" stroke="black" d="M 298 320 270 223"/>
<path stroke-width="1" stroke="black" d="M 270 223 165 314"/>
<path stroke-width="1" stroke="black" d="M 270 223 45 272"/>
<path stroke-width="1" stroke="black" d="M 270 223 396 158"/>
<path stroke-width="1" stroke="black" d="M 270 223 346 26"/>
<path stroke-width="1" stroke="black" d="M 270 223 298 320"/>
<path stroke-width="1" stroke="black" d="M 270 223 420 240"/>
<path stroke-width="1" stroke="black" d="M 270 223 70 171"/>
<path stroke-width="1" stroke="black" d="M 270 223 150 61"/>
<path stroke-width="1" stroke="black" d="M 270 223 417 101"/>
<path stroke-width="1" stroke="black" d="M 396 158 346 26"/>
<path stroke-width="1" stroke="black" d="M 298 320 346 26"/>
<path stroke-width="1" stroke="black" d="M 298 320 70 171"/>
<path stroke-width="1" stroke="black" d="M 70 171 270 223"/>
<path stroke-width="1" stroke="black" d="M 70 171 346 26"/>
<path stroke-width="1" stroke="black" d="M 70 171 298 320"/>
<path stroke-width="1" stroke="black" d="M 70 171 420 240"/>
<path stroke-width="1" stroke="black" d="M 70 171 150 61"/>
<path stroke-width="1" stroke="black" d="M 150 61 259 115"/>
<path stroke-width="1" stroke="black" d="M 150 61 134 20"/>
<path stroke-width="1" stroke="black" d="M 150 61 20 91"/>
<path stroke-width="1" stroke="black" d="M 150 61 165 314"/>
<path stroke-width="1" stroke="black" d="M 150 61 417 101"/>
<path stroke-width="1" stroke="black" d="M 150 61 45 272"/>
<path stroke-width="1" stroke="black" d="M 150 61 396 158"/>
<path stroke-width="1" stroke="black" d="M 150 61 270 223"/>
<path stroke-width="1" stroke="black" d="M 150 61 346 26"/>
<path stroke-width="1" stroke="black" d="M 150 61 298 320"/>
<path stroke-width="1" stroke="black" d="M 70 171 396 158"/>
<path stroke-width="1" stroke="black" d="M 70 171 45 272"/>
<path stroke-width="1" stroke="black" d="M 70 171 417 101"/>
<path stroke-width="1" stroke="black" d="M 70 171 165 314"/>
<path stroke-width="1" stroke="black" d="M 298 320 150 61"/>
<path stroke-width="1" stroke="black" d="M 420 240 259 115"/>
<path stroke-width="1" stroke="black" d="M 420 240 134 20"/>
<path stroke-width="1" stroke="black" d="M 420 240 20 91"/>
<path stroke-width="1" stroke="black" d="M 420 240 165 314"/>
<path stroke-width="1" stroke="black" d="M 420 240 417 101"/>
<path stroke-width="1" stroke="black" d="M 420 240 45 272"/>
<path stroke-width="1" stroke="black" d="M 298 320 420 240"/>
<path stroke-width="1" stroke="black" d="M 420 240 396 158"/>
<path stroke-width="1" stroke="black" d="M 420 240 346 26"/>
<path stroke-width="1" stroke="black" d="M 420 240 298 320"/>
<path stroke-width="1" stroke="black" d="M 420 240 70 171"/>
<path stroke-width="1" stroke="black" d="M 420 240 150 61"/>
<path stroke-width="1" stroke="black" d="M 70 171 259 115"/>
<path stroke-width="1" stroke="black" d="M 70 171 134 20"/>
<path stroke-width="1" stroke="black" d="M 70 171 20 91"/>
<path stroke-width="1" stroke="black" d="M 420 240 270 223"/>
<path stroke-width="1" stroke="black" d="M 396 158 270 223"/>
<path stroke-width="1" stroke="black" d="M 396 158 45 272"/>
<path stroke-width="1" stroke="black" d="M 396 158 417 101"/>
<path stroke-width="1" stroke="black" d="M 134 20 420 240"/>
<path stroke-width="1" stroke="black" d="M 134 20 70 171"/>
<path stroke-width="1" stroke="black" d="M 134 20 150 61"/>
<path stroke-width="1" stroke="black" d="M 20 91 259 115"/>
<path stroke-width="1" stroke="black" d="M 20 91 134 20"/>
<path stroke-width="1" stroke="black" d="M 20 91 165 314"/>
<path stroke-width="1" stroke="black" d="M 20 91 417 101"/>
<path stroke-width="1" stroke="black" d="M 20 91 45 272"/>
<path stroke-width="1" stroke="black" d="M 20 91 396 158"/>
<path stroke-width="1" stroke="black" d="M 20 91 270 223"/>
<path stroke-width="1" stroke="black" d="M 20 91 346 26"/>
<path stroke-width="1" stroke="black" d="M 20 91 298 320"/>
<path stroke-width="1" stroke="black" d="M 20 91 420 240"/>
<path stroke-width="1" stroke="black" d="M 20 91 70 171"/>
<path stroke-width="1" stroke="black" d="M 20 91 150 61"/>
<path stroke-width="1" stroke="black" d="M 134 20 298 320"/>
<path stroke-width="1" stroke="black" d="M 134 20 346 26"/>
<path stroke-width="1" stroke="black" d="M 134 20 270 223"/>
<path stroke-width="1" stroke="black" d="M 134 20 396 158"/>
<path stroke-width="1" stroke="black" d="M 259 115 20 91"/>
<path stroke-width="1" stroke="black" d="M 259 115 165 314"/>
<path stroke-width="1" stroke="black" d="M 259 115 417 101"/>
<path stroke-width="1" stroke="black" d="M 259 115 45 272"/>
<path stroke-width="1" stroke="black" d="M 259 115 396 158"/>
<path stroke-width="1" stroke="black" d="M 259 115 270 223"/>
<path stroke-width="1" stroke="black" d="M 259 115 346 26"/>
<path stroke-width="1" stroke="black" d="M 165 314 259 115"/>
<path stroke-width="1" stroke="black" d="M 259 115 298 320"/>
<path stroke-width="1" stroke="black" d="M 259 115 70 171"/>
<path stroke-width="1" stroke="black" d="M 259 115 150 61"/>
<path stroke-width="1" stroke="black" d="M 134 20 259 115"/>
<path stroke-width="1" stroke="black" d="M 134 20 20 91"/>
<path stroke-width="1" stroke="black" d="M 134 20 165 314"/>
<path stroke-width="1" stroke="black" d="M 134 20 417 101"/>
<path stroke-width="1" stroke="black" d="M 134 20 45 272"/>
<path stroke-width="1" stroke="black" d="M 259 115 420 240"/>
<path stroke-width="1" stroke="black" d="M 165 314 134 20"/>
<path stroke-width="1" stroke="black" d="M 165 314 20 91"/>
<path stroke-width="1" stroke="black" d="M 165 314 417 101"/>
<path stroke-width="1" stroke="black" d="M 45 272 259 115"/>
<path stroke-width="1" stroke="black" d="M 45 272 134 20"/>
<path stroke-width="1" stroke="black" d="M 45 272 20 91"/>
<path stroke-width="1" stroke="black" d="M 45 272 165 314"/>
<path stroke-width="1" stroke="black" d="M 45 272 417 101"/>
<path stroke-width="1" stroke="black" d="M 45 272 396 158"/>
<path stroke-width="1" stroke="black" d="M 45 272 270 223"/>
<path stroke-width="1" stroke="black" d="M 417 101 150 61"/>
<path stroke-width="1" stroke="black" d="M 45 272 346 26"/>
<path stroke-width="1" stroke="black" d="M 45 272 420 240"/>
<path stroke-width="1" stroke="black" d="M 45 272 70 171"/>
<path stroke-width="1" stroke="black" d="M 45 272 150 61"/>
<path stroke-width="1" stroke="black" d="M 396 158 259 115"/>
<path stroke-width="1" stroke="black" d="M 396 158 134 20"/>
<path stroke-width="1" stroke="black" d="M 396 158 20 91"/>
<path stroke-width="1" stroke="black" d="M 396 158 165 314"/>
<path stroke-width="1" stroke="black" d="M 45 272 298 320"/>
<path stroke-width="1" stroke="black" d="M 150 61 420 240"/>
<path stroke-width="1" stroke="black" d="M 417 101 70 171"/>
<path stroke-width="1" stroke="black" d="M 417 101 298 320"/>
<path stroke-width="1" stroke="black" d="M 165 314 45 272"/>
<path stroke-width="1" stroke="black" d="M 165 314 396 158"/>
<path stroke-width="1" stroke="black" d="M 165 314 270 223"/>
<path stroke-width="1" stroke="black" d="M 165 314 346 26"/>
<path stroke-width="1" stroke="black" d="M 165 314 298 320"/>
<path stroke-width="1" stroke="black" d="M 165 314 420 240"/>
<path stroke-width="1" stroke="black" d="M 165 314 70 171"/>
<path stroke-width="1" stroke="black" d="M 417 101 420 240"/>
<path stroke-width="1" stroke="black" d="M 165 314 150 61"/>
<path stroke-width="1" stroke="black" d="M 417 101 134 20"/>
<path stroke-width="1" stroke="black" d="M 417 101 20 91"/>
<path stroke-width="1" stroke="black" d="M 417 101 165 314"/>
<path stroke-width="1" stroke="black" d="M 417 101 45 272"/>
<path stroke-width="1" stroke="black" d="M 417 101 396 158"/>
<path stroke-width="1" stroke="black" d="M 417 101 270 223"/>
<path stroke-width="1" stroke="black" d="M 417 101 346 26"/>
<path stroke-width="1" stroke="black" d="M 417 101 259 115"/>
<path stroke-width="1" stroke="black" d="M 150 61 70 171"/>
<circle cx="259" cy="115" r="7.0" style="fill:gray;stroke:black;stroke-width:1.0"/>
<circle cx="134" cy="20" r="7.0" style="fill:gray;stroke:black;stroke-width:1.0"/>
<circle cx="20" cy="91" r="7.0" style="fill:gray;stroke:black;stroke-width:1.0"/>
<circle cx="165" cy="314" r="7.0" style="fill:gray;stroke:black;stroke-width:1.0"/>
<circle cx="417" cy="101" r="7.0" style="fill:gray;stroke:black;stroke-width:1.0"/>
<circle cx="45" cy="272" r="7.0" style="fill:gray;stroke:black;stroke-width:1.0"/>
<circle cx="396" cy="158" r="7.0" style="fill:gray;stroke:black;stroke-width:1.0"/>
<circle cx="270" cy="223" r="7.0" style="fill:gray;stroke:black;stroke-width:1.0"/>
<circle cx="346" cy="26" r="7.0" style="fill:gray;stroke:black;stroke-width:1.0"/>
<circle cx="298" cy="320" r="7.0" style="fill:gray;stroke:black;stroke-width:1.0"/>
<circle cx="420" cy="240" r="7.0" style="fill:gray;stroke:black;stroke-width:1.0"/>
<circle cx="70" cy="171" r="7.0" style="fill:gray;stroke:black;stroke-width:1.0"/>
<circle cx="150" cy="61" r="7.0" style="fill:gray;stroke:black;stroke-width:1.0"/>
</svg>
