<svg width="440" height="340" xmlns="http://www.w3.org/2000/svg">
<path stroke-width="1" stroke="black" d="M 117 264 139 237"/>
<path stroke-width="1" stroke="black" d="M 188 145 203 173"/>
<path stroke-width="1" stroke="black" d="M 188 145 173 214"/>
<path stroke-width="1" stroke="black" d="M 188 145 169 116"/>
<path stroke-width="1" stroke="black" d="M 188 145 138 124"/>
<path stroke-width="1" stroke="black" d="M 188 145 222 135"/>
<path stroke-width="1" stroke="black" d="M 188 145 134 224"/>
<path stroke-width="1" stroke="black" d="M 188 145 213 229"/>
<path stroke-width="1" stroke="black" d="M 188 145 165 173"/>
<path stroke-width="1" stroke="black" d="M 188 145 211 123"/>
<path stroke-width="1" stroke="black" d="M 188 145 120 153"/>
<path stroke-width="1" stroke="black" d="M 188 145 209 111"/>
<path stroke-width="1" stroke="black" d="M 188 145 231 195"/>
<path stroke-width="1" stroke="black" d="M 188 145 203 233"/>
<path stroke-width="1" stroke="black" d="M 188 145 111 172"/>
<path stroke-width="1" stroke="black" d="M 188 145 178 255"/>
<path stroke-width="1" stroke="black" d="M 188 145 137 115"/>
<path stroke-width="1" stroke="black" d="M 188 145 223 178"/>
<path stroke-width="1" stroke="black" d="M 188 145 183 105"/>
<path stroke-width="1" stroke="black" d="M 188 145 144 173"/>
<path stroke-width="1" stroke="black" d="M 188 145 179 210"/>
<path stroke-width="1" stroke="black" d="M 120 153 213 229"/>
<path stroke-width="1" stroke="black" d="M 120 153 211 123"/>
<path stroke-width="1" stroke="black" d="M 120 153 223 178"/>
<path stroke-width="1" stroke="black" d="M 120 153 80 147"/>
<path stroke-width="1" stroke="black" d="M 120 153 188 145"/>
<path stroke-width="1" stroke="black" d="M 120 153 231 195"/>
<path stroke-width="1" stroke="black" d="M 120 153 203 233"/>
<path stroke-width="1" stroke="black" d="M 188 145 123 193"/>
<path stroke-width="1" stroke="black" d="M 120 153 111 172"/>
<path stroke-width="1" stroke="black" d="M 120 153 137 115"/>
<path stroke-width="1" stroke="black" d="M 120 153 183 105"/>
<path stroke-width="1" stroke="black" d="M 120 153 107 208"/>
<path stroke-width="1" stroke="black" d="M 120 153 264 164"/>
<path stroke-width="1" stroke="black" d="M 209 111 188 145"/>
<path stroke-width="1" stroke="black" d="M 188 145 139 237"/>
<path stroke-width="1" stroke="black" d="M 188 145 220 180"/>
<path stroke-width="1" stroke="black" d="M 120 153 178 255"/>
<path stroke-width="1" stroke="black" d="M 120 153 134 224"/>
<path stroke-width="1" stroke="black" d="M 188 145 107 208"/>
<path stroke-width="1" stroke="black" d="M 279 202 231 195"/>
<path stroke-width="1" stroke="black" d="M 231 195 178 255"/>
<path stroke-width="1" stroke="black" d="M 231 195 137 115"/>
<path stroke-width="1" stroke="black" d="M 231 195 183 105"/>
<path stroke-width="1" stroke="black" d="M 231 195 107 208"/>
<path stroke-width="1" stroke="black" d="M 231 195 264 164"/>
<path stroke-width="1" stroke="black" d="M 235 276 203 233"/>
<path stroke-width="1" stroke="black" d="M 203 233 139 237"/>
<path stroke-width="1" stroke="black" d="M 231 195 111 172"/>
<path stroke-width="1" stroke="black" d="M 203 233 220 180"/>
<path stroke-width="1" stroke="black" d="M 203 233 123 193"/>
<path stroke-width="1" stroke="black" d="M 203 233 144 173"/>
<path stroke-width="1" stroke="black" d="M 203 233 165 173"/>
<path stroke-width="1" stroke="black" d="M 203 233 203 173"/>
<path stroke-width="1" stroke="black" d="M 203 233 173 214"/>
<path stroke-width="1" stroke="black" d="M 203 233 169 116"/>
<path stroke-width="1" stroke="black" d="M 203 233 138 124"/>
<path stroke-width="1" stroke="black" d="M 203 233 179 210"/>
<path stroke-width="1" stroke="black" d="M 188 145 264 164"/>
<path stroke-width="1" stroke="black" d="M 231 195 203 233"/>
<path stroke-width="1" stroke="black" d="M 231 195 188 145"/>
<path stroke-width="1" stroke="black" d="M 231 195 139 237"/>
<path stroke-width="1" stroke="black" d="M 231 195 220 180"/>
<path stroke-width="1" stroke="black" d="M 231 195 179 210"/>
<path stroke-width="1" stroke="black" d="M 231 195 123 193"/>
<path stroke-width="1" stroke="black" d="M 231 195 144 173"/>
<path stroke-width="1" stroke="black" d="M 231 195 165 173"/>
<path stroke-width="1" stroke="black" d="M 231 195 203 173"/>
<path stroke-width="1" stroke="black" d="M 231 195 279 202"/>
<path stroke-width="1" stroke="black" d="M 231 195 173 214"/>
<path stroke-width="1" stroke="black" d="M 231 195 138 124"/>
<path stroke-width="1" stroke="black" d="M 231 195 222 135"/>
<path stroke-width="1" stroke="black" d="M 231 195 134 224"/>
<path stroke-width="1" stroke="black" d="M 231 195 213 229"/>
<path stroke-width="1" stroke="black" d="M 231 195 211 123"/>
<path stroke-width="1" stroke="black" d="M 231 195 223 178"/>
<path stroke-width="1" stroke="black" d="M 231 195 120 153"/>
<path stroke-width="1" stroke="black" d="M 231 195 169 116"/>
<path stroke-width="1" stroke="black" d="M 203 233 222 135"/>
<path stroke-width="1" stroke="black" d="M 120 153 222 135"/>
<path stroke-width="1" stroke="black" d="M 120 153 169 116"/>
<path stroke-width="1" stroke="black" d="M 211 123 144 173"/>
<path stroke-width="1" stroke="black" d="M 211 123 165 173"/>
<path stroke-width="1" stroke="black" d="M 211 123 203 173"/>
<path stroke-width="1" stroke="black" d="M 211 123 173 214"/>
<path stroke-width="1" stroke="black" d="M 211 123 169 116"/>
<path stroke-width="1" stroke="black" d="M 211 123 138 124"/>
<path stroke-width="1" stroke="black" d="M 211 123 222 135"/>
<path stroke-width="1" stroke="black" d="M 211 123 123 193"/>
<path stroke-width="1" stroke="black" d="M 211 123 134 224"/>
<path stroke-width="1" stroke="black" d="M 211 123 241 93"/>
<path stroke-width="1" stroke="black" d="M 211 123 223 178"/>
<path stroke-width="1" stroke="black" d="M 211 123 120 153"/>
<path stroke-width="1" stroke="black" d="M 211 123 188 145"/>
<path stroke-width="1" stroke="black" d="M 211 123 231 195"/>
<path stroke-width="1" stroke="black" d="M 211 123 203 233"/>
<path stroke-width="1" stroke="black" d="M 211 123 111 172"/>
<path stroke-width="1" stroke="black" d="M 211 123 213 229"/>
<path stroke-width="1" stroke="black" d="M 211 123 178 255"/>
<path stroke-width="1" stroke="black" d="M 211 123 179 210"/>
<path stroke-width="1" stroke="black" d="M 211 123 139 237"/>
<path stroke-width="1" stroke="black" d="M 213 229 222 135"/>
<path stroke-width="1" stroke="black" d="M 213 229 134 224"/>
<path stroke-width="1" stroke="black" d="M 213 229 244 255"/>
<path stroke-width="1" stroke="black" d="M 213 229 211 123"/>
<path stroke-width="1" stroke="black" d="M 213 229 223 178"/>
<path stroke-width="1" stroke="black" d="M 213 229 120 153"/>
<path stroke-width="1" stroke="black" d="M 213 229 188 145"/>
<path stroke-width="1" stroke="black" d="M 211 123 220 180"/>
<path stroke-width="1" stroke="black" d="M 213 229 231 195"/>
<path stroke-width="1" stroke="black" d="M 213 229 111 172"/>
<path stroke-width="1" stroke="black" d="M 213 229 178 255"/>
<path stroke-width="1" stroke="black" d="M 213 229 137 115"/>
<path stroke-width="1" stroke="black" d="M 213 229 183 105"/>
<path stroke-width="1" stroke="black" d="M 213 229 107 208"/>
<path stroke-width="1" stroke="black" d="M 213 229 264 164"/>
<path stroke-width="1" stroke="black" d="M 241 93 211 123"/>
<path stroke-width="1" stroke="black" d="M 213 229 203 233"/>
<path stroke-width="1" stroke="black" d="M 120 153 138 124"/>
<path stroke-width="1" stroke="black" d="M 211 123 137 115"/>
<path stroke-width="1" stroke="black" d="M 211 123 107 208"/>
<path stroke-width="1" stroke="black" d="M 223 178 203 233"/>
<path stroke-width="1" stroke="black" d="M 223 178 111 172"/>
<path stroke-width="1" stroke="black" d="M 223 178 178 255"/>
<path stroke-width="1" stroke="black" d="M 223 178 137 115"/>
<path stroke-width="1" stroke="black" d="M 223 178 183 105"/>
<path stroke-width="1" stroke="black" d="M 223 178 107 208"/>
<path stroke-width="1" stroke="black" d="M 223 178 264 164"/>
<path stroke-width="1" stroke="black" d="M 223 178 231 195"/>
<path stroke-width="1" stroke="black" d="M 80 147 120 153"/>
<path stroke-width="1" stroke="black" d="M 120 153 220 180"/>
<path stroke-width="1" stroke="black" d="M 120 153 179 210"/>
<path stroke-width="1" stroke="black" d="M 120 153 123 193"/>
<path stroke-width="1" stroke="black" d="M 120 153 144 173"/>
<path stroke-width="1" stroke="black" d="M 120 153 165 173"/>
<path stroke-width="1" stroke="black" d="M 120 153 203 173"/>
<path stroke-width="1" stroke="black" d="M 120 153 173 214"/>
<path stroke-width="1" stroke="black" d="M 120 153 139 237"/>
<path stroke-width="1" stroke="black" d="M 211 123 183 105"/>
<path stroke-width="1" stroke="black" d="M 223 178 188 145"/>
<path stroke-width="1" stroke="black" d="M 223 178 263 179"/>
<path stroke-width="1" stroke="black" d="M 211 123 264 164"/>
<path stroke-width="1" stroke="black" d="M 263 179 223 178"/>
<path stroke-width="1" stroke="black" d="M 223 178 139 237"/>
<path stroke-width="1" stroke="black" d="M 223 178 220 180"/>
<path stroke-width="1" stroke="black" d="M 223 178 179 210"/>
<path stroke-width="1" stroke="black" d="M 223 178 123 193"/>
<path stroke-width="1" stroke="black" d="M 223 178 144 173"/>
<path stroke-width="1" stroke="black" d="M 223 178 120 153"/>
<path stroke-width="1" stroke="black" d="M 223 178 165 173"/>
<path stroke-width="1" stroke="black" d="M 223 178 173 214"/>
<path stroke-width="1" stroke="black" d="M 223 178 169 116"/>
<path stroke-width="1" stroke="black" d="M 223 178 138 124"/>
<path stroke-width="1" stroke="black" d="M 223 178 222 135"/>
<path stroke-width="1" stroke="black" d="M 223 178 134 224"/>
<path stroke-width="1" stroke="black" d="M 223 178 213 229"/>
<path stroke-width="1" stroke="black" d="M 223 178 211 123"/>
<path stroke-width="1" stroke="black" d="M 223 178 203 173"/>
<path stroke-width="1" stroke="black" d="M 203 233 134 224"/>
<path stroke-width="1" stroke="black" d="M 203 233 213 229"/>
<path stroke-width="1" stroke="black" d="M 203 233 211 123"/>
<path stroke-width="1" stroke="black" d="M 183 105 211 123"/>
<path stroke-width="1" stroke="black" d="M 183 105 223 178"/>
<path stroke-width="1" stroke="black" d="M 183 105 120 153"/>
<path stroke-width="1" stroke="black" d="M 183 105 188 145"/>
<path stroke-width="1" stroke="black" d="M 183 105 231 195"/>
<path stroke-width="1" stroke="black" d="M 183 105 203 233"/>
<path stroke-width="1" stroke="black" d="M 183 105 111 172"/>
<path stroke-width="1" stroke="black" d="M 183 105 213 229"/>
<path stroke-width="1" stroke="black" d="M 183 105 178 255"/>
<path stroke-width="1" stroke="black" d="M 183 105 205 20"/>
<path stroke-width="1" stroke="black" d="M 183 105 107 208"/>
<path stroke-width="1" stroke="black" d="M 20 228 107 208"/>
<path stroke-width="1" stroke="black" d="M 107 208 139 237"/>
<path stroke-width="1" stroke="black" d="M 107 208 220 180"/>
<path stroke-width="1" stroke="black" d="M 107 208 179 210"/>
<path stroke-width="1" stroke="black" d="M 107 208 123 193"/>
<path stroke-width="1" stroke="black" d="M 183 105 137 115"/>
<path stroke-width="1" stroke="black" d="M 107 208 144 173"/>
<path stroke-width="1" stroke="black" d="M 183 105 134 224"/>
<path stroke-width="1" stroke="black" d="M 183 105 138 124"/>
<path stroke-width="1" stroke="black" d="M 137 115 203 233"/>
<path stroke-width="1" stroke="black" d="M 137 115 111 172"/>
<path stroke-width="1" stroke="black" d="M 137 115 178 255"/>
<path stroke-width="1" stroke="black" d="M 137 115 88 61"/>
<path stroke-width="1" stroke="black" d="M 137 115 183 105"/>
<path stroke-width="1" stroke="black" d="M 137 115 107 208"/>
<path stroke-width="1" stroke="black" d="M 205 20 183 105"/>
<path stroke-width="1" stroke="black" d="M 183 105 222 135"/>
<path stroke-width="1" stroke="black" d="M 183 105 139 237"/>
<path stroke-width="1" stroke="black" d="M 183 105 179 210"/>
<path stroke-width="1" stroke="black" d="M 183 105 123 193"/>
<path stroke-width="1" stroke="black" d="M 183 105 144 173"/>
<path stroke-width="1" stroke="black" d="M 183 105 165 173"/>
<path stroke-width="1" stroke="black" d="M 183 105 203 173"/>
<path stroke-width="1" stroke="black" d="M 183 105 173 214"/>
<path stroke-width="1" stroke="black" d="M 183 105 169 116"/>
<path stroke-width="1" stroke="black" d="M 183 105 220 180"/>
<path stroke-width="1" stroke="black" d="M 137 115 231 195"/>
<path stroke-width="1" stroke="black" d="M 107 208 165 173"/>
<path stroke-width="1" stroke="black" d="M 107 208 173 214"/>
<path stroke-width="1" stroke="black" d="M 264 164 123 193"/>
<path stroke-width="1" stroke="black" d="M 264 164 144 173"/>
<path stroke-width="1" stroke="black" d="M 264 164 165 173"/>
<path stroke-width="1" stroke="black" d="M 264 164 203 173"/>
<path stroke-width="1" stroke="black" d="M 264 164 173 214"/>
<path stroke-width="1" stroke="black" d="M 264 164 169 116"/>
<path stroke-width="1" stroke="black" d="M 264 164 138 124"/>
<path stroke-width="1" stroke="black" d="M 264 164 179 210"/>
<path stroke-width="1" stroke="black" d="M 264 164 222 135"/>
<path stroke-width="1" stroke="black" d="M 264 164 213 229"/>
<path stroke-width="1" stroke="black" d="M 264 164 211 123"/>
<path stroke-width="1" stroke="black" d="M 264 164 223 178"/>
<path stroke-width="1" stroke="black" d="M 264 164 120 153"/>
<path stroke-width="1" stroke="black" d="M 264 164 188 145"/>
<path stroke-width="1" stroke="black" d="M 264 164 231 195"/>
<path stroke-width="1" stroke="black" d="M 264 164 203 233"/>
<path stroke-width="1" stroke="black" d="M 264 164 134 224"/>
<path stroke-width="1" stroke="black" d="M 107 208 203 173"/>
<path stroke-width="1" stroke="black" d="M 264 164 220 180"/>
<path stroke-width="1" stroke="black" d="M 420 150 264 164"/>
<path stroke-width="1" stroke="black" d="M 107 208 169 116"/>
<path stroke-width="1" stroke="black" d="M 107 208 138 124"/>
<path stroke-width="1" stroke="black" d="M 107 208 222 135"/>
<path stroke-width="1" stroke="black" d="M 107 208 134 224"/>
<path stroke-width="1" stroke="black" d="M 107 208 213 229"/>
<path stroke-width="1" stroke="black" d="M 107 208 211 123"/>
<path stroke-width="1" stroke="black" d="M 107 208 223 178"/>
<path stroke-width="1" stroke="black" d="M 264 164 139 237"/>
<path stroke-width="1" stroke="black" d="M 107 208 120 153"/>
<path stroke-width="1" stroke="black" d="M 107 208 231 195"/>
<path stroke-width="1" stroke="black" d="M 107 208 203 233"/>
<path stroke-width="1" stroke="black" d="M 107 208 111 172"/>
<path stroke-width="1" stroke="black" d="M 107 208 178 255"/>
<path stroke-width="1" stroke="black" d="M 107 208 137 115"/>
<path stroke-width="1" stroke="black" d="M 107 208 183 105"/>
<path stroke-width="1" stroke="black" d="M 107 208 20 228"/>
<path stroke-width="1" stroke="black" d="M 107 208 188 145"/>
<path stroke-width="1" stroke="black" d="M 137 115 188 145"/>
<path stroke-width="1" stroke="black" d="M 137 115 120 153"/>
<path stroke-width="1" stroke="black" d="M 137 115 223 178"/>
<path stroke-width="1" stroke="black" d="M 111 172 169 116"/>
<path stroke-width="1" stroke="black" d="M 111 172 138 124"/>
<path stroke-width="1" stroke="black" d="M 111 172 222 135"/>
<path stroke-width="1" stroke="black" d="M 111 172 134 224"/>
<path stroke-width="1" stroke="black" d="M 111 172 213 229"/>
<path stroke-width="1" stroke="black" d="M 111 172 211 123"/>
<path stroke-width="1" stroke="black" d="M 111 172 223 178"/>
<path stroke-width="1" stroke="black" d="M 111 172 173 214"/>
<path stroke-width="1" stroke="black" d="M 111 172 120 153"/>
<path stroke-width="1" stroke="black" d="M 111 172 231 195"/>
<path stroke-width="1" stroke="black" d="M 111 172 203 233"/>
<path stroke-width="1" stroke="black" d="M 111 172 59 175"/>
<path stroke-width="1" stroke="black" d="M 111 172 178 255"/>
<path stroke-width="1" stroke="black" d="M 111 172 137 115"/>
<path stroke-width="1" stroke="black" d="M 111 172 183 105"/>
<path stroke-width="1" stroke="black" d="M 111 172 107 208"/>
<path stroke-width="1" stroke="black" d="M 111 172 188 145"/>
<path stroke-width="1" stroke="black" d="M 111 172 264 164"/>
<path stroke-width="1" stroke="black" d="M 111 172 203 173"/>
<path stroke-width="1" stroke="black" d="M 111 172 144 173"/>
<path stroke-width="1" stroke="black" d="M 203 233 223 178"/>
<path stroke-width="1" stroke="black" d="M 203 233 120 153"/>
<path stroke-width="1" stroke="black" d="M 203 233 188 145"/>
<path stroke-width="1" stroke="black" d="M 203 233 231 195"/>
<path stroke-width="1" stroke="black" d="M 203 233 235 276"/>
<path stroke-width="1" stroke="black" d="M 203 233 111 172"/>
<path stroke-width="1" stroke="black" d="M 203 233 178 255"/>
<path stroke-width="1" stroke="black" d="M 111 172 165 173"/>
<path stroke-width="1" stroke="black" d="M 203 233 137 115"/>
<path stroke-width="1" stroke="black" d="M 203 233 107 208"/>
<path stroke-width="1" stroke="black" d="M 203 233 264 164"/>
<path stroke-width="1" stroke="black" d="M 59 175 111 172"/>
<path stroke-width="1" stroke="black" d="M 111 172 139 237"/>
<path stroke-width="1" stroke="black" d="M 111 172 220 180"/>
<path stroke-width="1" stroke="black" d="M 111 172 179 210"/>
<path stroke-width="1" stroke="black" d="M 111 172 123 193"/>
<path stroke-width="1" stroke="black" d="M 203 233 183 105"/>
<path stroke-width="1" stroke="black" d="M 201 320 178 255"/>
<path stroke-width="1" stroke="black" d="M 178 255 139 237"/>
<path stroke-width="1" stroke="black" d="M 178 255 220 180"/>
<path stroke-width="1" stroke="black" d="M 178 255 107 208"/>
<path stroke-width="1" stroke="black" d="M 88 61 137 115"/>
<path stroke-width="1" stroke="black" d="M 137 115 139 237"/>
<path stroke-width="1" stroke="black" d="M 137 115 220 180"/>
<path stroke-width="1" stroke="black" d="M 137 115 179 210"/>
<path stroke-width="1" stroke="black" d="M 137 115 123 193"/>
<path stroke-width="1" stroke="black" d="M 137 115 144 173"/>
<path stroke-width="1" stroke="black" d="M 178 255 183 105"/>
<path stroke-width="1" stroke="black" d="M 137 115 165 173"/>
<path stroke-width="1" stroke="black" d="M 137 115 173 214"/>
<path stroke-width="1" stroke="black" d="M 137 115 169 116"/>
<path stroke-width="1" stroke="black" d="M 137 115 138 124"/>
<path stroke-width="1" stroke="black" d="M 137 115 222 135"/>
<path stroke-width="1" stroke="black" d="M 137 115 134 224"/>
<path stroke-width="1" stroke="black" d="M 137 115 213 229"/>
<path stroke-width="1" stroke="black" d="M 137 115 211 123"/>
<path stroke-width="1" stroke="black" d="M 137 115 203 173"/>
<path stroke-width="1" stroke="black" d="M 178 255 137 115"/>
<path stroke-width="1" stroke="black" d="M 178 255 201 320"/>
<path stroke-width="1" stroke="black" d="M 178 255 111 172"/>
<path stroke-width="1" stroke="black" d="M 178 255 179 210"/>
<path stroke-width="1" stroke="black" d="M 178 255 123 193"/>
<path stroke-width="1" stroke="black" d="M 178 255 144 173"/>
<path stroke-width="1" stroke="black" d="M 178 255 165 173"/>
<path stroke-width="1" stroke="black" d="M 178 255 203 173"/>
<path stroke-width="1" stroke="black" d="M 178 255 173 214"/>
<path stroke-width="1" stroke="black" d="M 178 255 169 116"/>
<path stroke-width="1" stroke="black" d="M 178 255 138 124"/>
<path stroke-width="1" stroke="black" d="M 178 255 222 135"/>
<path stroke-width="1" stroke="black" d="M 178 255 134 224"/>
<path stroke-width="1" stroke="black" d="M 178 255 213 229"/>
<path stroke-width="1" stroke="black" d="M 178 255 211 123"/>
<path stroke-width="1" stroke="black" d="M 178 255 223 178"/>
<path stroke-width="1" stroke="black" d="M 178 255 120 153"/>
<path stroke-width="1" stroke="black" d="M 178 255 188 145"/>
<path stroke-width="1" stroke="black" d="M 178 255 231 195"/>
<path stroke-width="1" stroke="black" d="M 178 255 203 233"/>
<path stroke-width="1" stroke="black" d="M 213 229 138 124"/>
<path stroke-width="1" stroke="black" d="M 213 229 169 116"/>
<path stroke-width="1" stroke="black" d="M 213 229 173 214"/>
<path stroke-width="1" stroke="black" d="M 213 229 203 173"/>
<path stroke-width="1" stroke="black" d="M 123 193 107 208"/>
<path stroke-width="1" stroke="black" d="M 123 193 264 164"/>
<path stroke-width="1" stroke="black" d="M 119 170 144 173"/>
<path stroke-width="1" stroke="black" d="M 144 173 139 237"/>
<path stroke-width="1" stroke="black" d="M 144 173 220 180"/>
<path stroke-width="1" stroke="black" d="M 144 173 179 210"/>
<path stroke-width="1" stroke="black" d="M 144 173 123 193"/>
<path stroke-width="1" stroke="black" d="M 123 193 183 105"/>
<path stroke-width="1" stroke="black" d="M 144 173 119 170"/>
<path stroke-width="1" stroke="black" d="M 144 173 203 173"/>
<path stroke-width="1" stroke="black" d="M 144 173 173 214"/>
<path stroke-width="1" stroke="black" d="M 144 173 169 116"/>
<path stroke-width="1" stroke="black" d="M 144 173 138 124"/>
<path stroke-width="1" stroke="black" d="M 144 173 222 135"/>
<path stroke-width="1" stroke="black" d="M 144 173 134 224"/>
<path stroke-width="1" stroke="black" d="M 144 173 213 229"/>
<path stroke-width="1" stroke="black" d="M 144 173 165 173"/>
<path stroke-width="1" stroke="black" d="M 144 173 211 123"/>
<path stroke-width="1" stroke="black" d="M 123 193 137 115"/>
<path stroke-width="1" stroke="black" d="M 123 193 111 172"/>
<path stroke-width="1" stroke="black" d="M 123 193 95 196"/>
<path stroke-width="1" stroke="black" d="M 123 193 144 173"/>
<path stroke-width="1" stroke="black" d="M 123 193 165 173"/>
<path stroke-width="1" stroke="black" d="M 123 193 203 173"/>
<path stroke-width="1" stroke="black" d="M 123 193 173 214"/>
<path stroke-width="1" stroke="black" d="M 123 193 169 116"/>
<path stroke-width="1" stroke="black" d="M 123 193 138 124"/>
<path stroke-width="1" stroke="black" d="M 123 193 178 255"/>
<path stroke-width="1" stroke="black" d="M 123 193 222 135"/>
<path stroke-width="1" stroke="black" d="M 123 193 213 229"/>
<path stroke-width="1" stroke="black" d="M 123 193 211 123"/>
<path stroke-width="1" stroke="black" d="M 123 193 223 178"/>
<path stroke-width="1" stroke="black" d="M 123 193 120 153"/>
<path stroke-width="1" stroke="black" d="M 123 193 188 145"/>
<path stroke-width="1" stroke="black" d="M 123 193 231 195"/>
<path stroke-width="1" stroke="black" d="M 123 193 203 233"/>
<path stroke-width="1" stroke="black" d="M 123 193 134 224"/>
<path stroke-width="1" stroke="black" d="M 123 193 179 210"/>
<path stroke-width="1" stroke="black" d="M 144 173 223 178"/>
<path stroke-width="1" stroke="black" d="M 144 173 188 145"/>
<path stroke-width="1" stroke="black" d="M 165 173 134 224"/>
<path stroke-width="1" stroke="black" d="M 165 173 213 229"/>
<path stroke-width="1" stroke="black" d="M 165 173 211 123"/>
<path stroke-width="1" stroke="black" d="M 165 173 223 178"/>
<path stroke-width="1" stroke="black" d="M 165 173 120 153"/>
<path stroke-width="1" stroke="black" d="M 165 173 188 145"/>
<path stroke-width="1" stroke="black" d="M 165 173 231 195"/>
<path stroke-width="1" stroke="black" d="M 165 173 222 135"/>
<path stroke-width="1" stroke="black" d="M 165 173 203 233"/>
<path stroke-width="1" stroke="black" d="M 165 173 178 255"/>
<path stroke-width="1" stroke="black" d="M 165 173 137 115"/>
<path stroke-width="1" stroke="black" d="M 165 173 183 105"/>
<path stroke-width="1" stroke="black" d="M 165 173 107 208"/>
<path stroke-width="1" stroke="black" d="M 165 173 264 164"/>
<path stroke-width="1" stroke="black" d="M 227 169 203 173"/>
<path stroke-width="1" stroke="black" d="M 203 173 139 237"/>
<path stroke-width="1" stroke="black" d="M 165 173 111 172"/>
<path stroke-width="1" stroke="black" d="M 144 173 120 153"/>
<path stroke-width="1" stroke="black" d="M 165 173 138 124"/>
<path stroke-width="1" stroke="black" d="M 165 173 173 214"/>
<path stroke-width="1" stroke="black" d="M 144 173 231 195"/>
<path stroke-width="1" stroke="black" d="M 144 173 203 233"/>
<path stroke-width="1" stroke="black" d="M 144 173 111 172"/>
<path stroke-width="1" stroke="black" d="M 144 173 178 255"/>
<path stroke-width="1" stroke="black" d="M 144 173 137 115"/>
<path stroke-width="1" stroke="black" d="M 144 173 183 105"/>
<path stroke-width="1" stroke="black" d="M 144 173 107 208"/>
<path stroke-width="1" stroke="black" d="M 165 173 169 116"/>
<path stroke-width="1" stroke="black" d="M 144 173 264 164"/>
<path stroke-width="1" stroke="black" d="M 165 173 139 237"/>
<path stroke-width="1" stroke="black" d="M 165 173 220 180"/>
<path stroke-width="1" stroke="black" d="M 165 173 179 210"/>
<path stroke-width="1" stroke="black" d="M 165 173 123 193"/>
<path stroke-width="1" stroke="black" d="M 165 173 144 173"/>
<path stroke-width="1" stroke="black" d="M 165 173 150 167"/>
<path stroke-width="1" stroke="black" d="M 165 173 203 173"/>
<path stroke-width="1" stroke="black" d="M 150 167 165 173"/>
<path stroke-width="1" stroke="black" d="M 123 193 220 180"/>
<path stroke-width="1" stroke="black" d="M 123 193 139 237"/>
<path stroke-width="1" stroke="black" d="M 95 196 123 193"/>
<path stroke-width="1" stroke="black" d="M 139 237 178 255"/>
<path stroke-width="1" stroke="black" d="M 139 237 137 115"/>
<path stroke-width="1" stroke="black" d="M 139 237 183 105"/>
<path stroke-width="1" stroke="black" d="M 139 237 107 208"/>
<path stroke-width="1" stroke="black" d="M 139 237 264 164"/>
<path stroke-width="1" stroke="black" d="M 247 185 220 180"/>
<path stroke-width="1" stroke="black" d="M 220 180 139 237"/>
<path stroke-width="1" stroke="black" d="M 139 237 111 172"/>
<path stroke-width="1" stroke="black" d="M 220 180 247 185"/>
<path stroke-width="1" stroke="black" d="M 220 180 123 193"/>
<path stroke-width="1" stroke="black" d="M 220 180 144 173"/>
<path stroke-width="1" stroke="black" d="M 220 180 165 173"/>
<path stroke-width="1" stroke="black" d="M 220 180 203 173"/>
<path stroke-width="1" stroke="black" d="M 220 180 173 214"/>
<path stroke-width="1" stroke="black" d="M 220 180 169 116"/>
<path stroke-width="1" stroke="black" d="M 220 180 138 124"/>
<path stroke-width="1" stroke="black" d="M 220 180 179 210"/>
<path stroke-width="1" stroke="black" d="M 220 180 222 135"/>
<path stroke-width="1" stroke="black" d="M 139 237 203 233"/>
<path stroke-width="1" stroke="black" d="M 139 237 188 145"/>
<path stroke-width="1" stroke="black" d="M 139 237 117 264"/>
<path stroke-width="1" stroke="black" d="M 139 237 220 180"/>
<path stroke-width="1" stroke="black" d="M 139 237 179 210"/>
<path stroke-width="1" stroke="black" d="M 139 237 123 193"/>
<path stroke-width="1" stroke="black" d="M 139 237 144 173"/>
<path stroke-width="1" stroke="black" d="M 139 237 165 173"/>
<path stroke-width="1" stroke="black" d="M 139 237 203 173"/>
<path stroke-width="1" stroke="black" d="M 139 237 231 195"/>
<path stroke-width="1" stroke="black" d="M 139 237 173 214"/>
<path stroke-width="1" stroke="black" d="M 139 237 138 124"/>
<path stroke-width="1" stroke="black" d="M 139 237 222 135"/>
<path stroke-width="1" stroke="black" d="M 139 237 134 224"/>
<path stroke-width="1" stroke="black" d="M 139 237 213 229"/>
<path stroke-width="1" stroke="black" d="M 139 237 211 123"/>
<path stroke-width="1" stroke="black" d="M 139 237 223 178"/>
<path stroke-width="1" stroke="black" d="M 139 237 120 153"/>
<path stroke-width="1" stroke="black" d="M 139 237 169 116"/>
<path stroke-width="1" stroke="black" d="M 220 180 134 224"/>
<path stroke-width="1" stroke="black" d="M 220 180 213 229"/>
<path stroke-width="1" stroke="black" d="M 220 180 211 123"/>
<path stroke-width="1" stroke="black" d="M 179 210 138 124"/>
<path stroke-width="1" stroke="black" d="M 179 210 222 135"/>
<path stroke-width="1" stroke="black" d="M 179 210 134 224"/>
<path stroke-width="1" stroke="black" d="M 179 210 213 229"/>
<path stroke-width="1" stroke="black" d="M 179 210 211 123"/>
<path stroke-width="1" stroke="black" d="M 179 210 223 178"/>
<path stroke-width="1" stroke="black" d="M 179 210 120 153"/>
<path stroke-width="1" stroke="black" d="M 179 210 169 116"/>
<path stroke-width="1" stroke="black" d="M 179 210 188 145"/>
<path stroke-width="1" stroke="black" d="M 179 210 203 233"/>
<path stroke-width="1" stroke="black" d="M 179 210 111 172"/>
<path stroke-width="1" stroke="black" d="M 179 210 178 255"/>
<path stroke-width="1" stroke="black" d="M 179 210 137 115"/>
<path stroke-width="1" stroke="black" d="M 179 210 183 105"/>
<path stroke-width="1" stroke="black" d="M 179 210 107 208"/>
<path stroke-width="1" stroke="black" d="M 179 210 264 164"/>
<path stroke-width="1" stroke="black" d="M 179 210 231 195"/>
<path stroke-width="1" stroke="black" d="M 179 210 173 214"/>
<path stroke-width="1" stroke="black" d="M 179 210 203 173"/>
<path stroke-width="1" stroke="black" d="M 179 210 165 173"/>
<path stroke-width="1" stroke="black" d="M 220 180 223 178"/>
<path stroke-width="1" stroke="black" d="M 220 180 120 153"/>
<path stroke-width="1" stroke="black" d="M 220 180 188 145"/>
<path stroke-width="1" stroke="black" d="M 220 180 231 195"/>
<path stroke-width="1" stroke="black" d="M 220 180 203 233"/>
<path stroke-width="1" stroke="black" d="M 220 180 111 172"/>
<path stroke-width="1" stroke="black" d="M 220 180 178 255"/>
<path stroke-width="1" stroke="black" d="M 220 180 137 115"/>
<path stroke-width="1" stroke="black" d="M 220 180 183 105"/>
<path stroke-width="1" stroke="black" d="M 220 180 107 208"/>
<path stroke-width="1" stroke="black" d="M 220 180 264 164"/>
<path stroke-width="1" stroke="black" d="M 184 238 179 210"/>
<path stroke-width="1" stroke="black" d="M 179 210 139 237"/>
<path stroke-width="1" stroke="black" d="M 179 210 220 180"/>
<path stroke-width="1" stroke="black" d="M 179 210 184 238"/>
<path stroke-width="1" stroke="black" d="M 179 210 123 193"/>
<path stroke-width="1" stroke="black" d="M 179 210 144 173"/>
<path stroke-width="1" stroke="black" d="M 203 173 220 180"/>
<path stroke-width="1" stroke="black" d="M 264 164 111 172"/>
<path stroke-width="1" stroke="black" d="M 203 173 179 210"/>
<path stroke-width="1" stroke="black" d="M 203 173 144 173"/>
<path stroke-width="1" stroke="black" d="M 222 135 179 210"/>
<path stroke-width="1" stroke="black" d="M 222 135 123 193"/>
<path stroke-width="1" stroke="black" d="M 222 135 144 173"/>
<path stroke-width="1" stroke="black" d="M 222 135 165 173"/>
<path stroke-width="1" stroke="black" d="M 222 135 203 173"/>
<path stroke-width="1" stroke="black" d="M 222 135 173 214"/>
<path stroke-width="1" stroke="black" d="M 222 135 169 116"/>
<path stroke-width="1" stroke="black" d="M 222 135 220 180"/>
<path stroke-width="1" stroke="black" d="M 222 135 138 124"/>
<path stroke-width="1" stroke="black" d="M 222 135 134 224"/>
<path stroke-width="1" stroke="black" d="M 222 135 213 229"/>
<path stroke-width="1" stroke="black" d="M 222 135 211 123"/>
<path stroke-width="1" stroke="black" d="M 222 135 223 178"/>
<path stroke-width="1" stroke="black" d="M 222 135 120 153"/>
<path stroke-width="1" stroke="black" d="M 222 135 188 145"/>
<path stroke-width="1" stroke="black" d="M 222 135 231 195"/>
<path stroke-width="1" stroke="black" d="M 222 135 255 116"/>
<path stroke-width="1" stroke="black" d="M 222 135 203 233"/>
<path stroke-width="1" stroke="black" d="M 222 135 139 237"/>
<path stroke-width="1" stroke="black" d="M 138 124 264 164"/>
<path stroke-width="1" stroke="black" d="M 138 124 169 116"/>
<path stroke-width="1" stroke="black" d="M 138 124 110 102"/>
<path stroke-width="1" stroke="black" d="M 138 124 222 135"/>
<path stroke-width="1" stroke="black" d="M 138 124 134 224"/>
<path stroke-width="1" stroke="black" d="M 138 124 213 229"/>
<path stroke-width="1" stroke="black" d="M 138 124 211 123"/>
<path stroke-width="1" stroke="black" d="M 138 124 223 178"/>
<path stroke-width="1" stroke="black" d="M 255 116 222 135"/>
<path stroke-width="1" stroke="black" d="M 138 124 120 153"/>
<path stroke-width="1" stroke="black" d="M 138 124 231 195"/>
<path stroke-width="1" stroke="black" d="M 138 124 203 233"/>
<path stroke-width="1" stroke="black" d="M 138 124 111 172"/>
<path stroke-width="1" stroke="black" d="M 138 124 178 255"/>
<path stroke-width="1" stroke="black" d="M 138 124 137 115"/>
<path stroke-width="1" stroke="black" d="M 138 124 183 105"/>
<path stroke-width="1" stroke="black" d="M 138 124 107 208"/>
<path stroke-width="1" stroke="black" d="M 138 124 188 145"/>
<path stroke-width="1" stroke="black" d="M 138 124 173 214"/>
<path stroke-width="1" stroke="black" d="M 222 135 111 172"/>
<path stroke-width="1" stroke="black" d="M 222 135 137 115"/>
<path stroke-width="1" stroke="black" d="M 134 224 188 145"/>
<path stroke-width="1" stroke="black" d="M 134 224 231 195"/>
<path stroke-width="1" stroke="black" d="M 134 224 203 233"/>
<path stroke-width="1" stroke="black" d="M 134 224 111 172"/>
<path stroke-width="1" stroke="black" d="M 134 224 178 255"/>
<path stroke-width="1" stroke="black" d="M 134 224 137 115"/>
<path stroke-width="1" stroke="black" d="M 134 224 183 105"/>
<path stroke-width="1" stroke="black" d="M 134 224 120 153"/>
<path stroke-width="1" stroke="black" d="M 134 224 107 208"/>
<path stroke-width="1" stroke="black" d="M 244 255 213 229"/>
<path stroke-width="1" stroke="black" d="M 213 229 139 237"/>
<path stroke-width="1" stroke="black" d="M 213 229 220 180"/>
<path stroke-width="1" stroke="black" d="M 213 229 179 210"/>
<path stroke-width="1" stroke="black" d="M 213 229 123 193"/>
<path stroke-width="1" stroke="black" d="M 213 229 144 173"/>
<path stroke-width="1" stroke="black" d="M 213 229 165 173"/>
<path stroke-width="1" stroke="black" d="M 134 224 264 164"/>
<path stroke-width="1" stroke="black" d="M 222 135 178 255"/>
<path stroke-width="1" stroke="black" d="M 134 224 223 178"/>
<path stroke-width="1" stroke="black" d="M 134 224 213 229"/>
<path stroke-width="1" stroke="black" d="M 222 135 183 105"/>
<path stroke-width="1" stroke="black" d="M 222 135 107 208"/>
<path stroke-width="1" stroke="black" d="M 222 135 264 164"/>
<path stroke-width="1" stroke="black" d="M 99 243 134 224"/>
<path stroke-width="1" stroke="black" d="M 134 224 139 237"/>
<path stroke-width="1" stroke="black" d="M 134 224 220 180"/>
<path stroke-width="1" stroke="black" d="M 134 224 179 210"/>
<path stroke-width="1" stroke="black" d="M 134 224 211 123"/>
<path stroke-width="1" stroke="black" d="M 134 224 123 193"/>
<path stroke-width="1" stroke="black" d="M 134 224 165 173"/>
<path stroke-width="1" stroke="black" d="M 134 224 203 173"/>
<path stroke-width="1" stroke="black" d="M 134 224 173 214"/>
<path stroke-width="1" stroke="black" d="M 134 224 169 116"/>
<path stroke-width="1" stroke="black" d="M 134 224 138 124"/>
<path stroke-width="1" stroke="black" d="M 134 224 222 135"/>
<path stroke-width="1" stroke="black" d="M 134 224 99 243"/>
<path stroke-width="1" stroke="black" d="M 134 224 144 173"/>
<path stroke-width="1" stroke="black" d="M 138 124 203 173"/>
<path stroke-width="1" stroke="black" d="M 138 124 165 173"/>
<path stroke-width="1" stroke="black" d="M 138 124 144 173"/>
<path stroke-width="1" stroke="black" d="M 161 196 173 214"/>
<path stroke-width="1" stroke="black" d="M 173 214 139 237"/>
<path stroke-width="1" stroke="black" d="M 173 214 220 180"/>
<path stroke-width="1" stroke="black" d="M 173 214 179 210"/>
<path stroke-width="1" stroke="black" d="M 173 214 123 193"/>
<path stroke-width="1" stroke="black" d="M 173 214 144 173"/>
<path stroke-width="1" stroke="black" d="M 173 214 165 173"/>
<path stroke-width="1" stroke="black" d="M 203 173 264 164"/>
<path stroke-width="1" stroke="black" d="M 173 214 203 173"/>
<path stroke-width="1" stroke="black" d="M 173 214 169 116"/>
<path stroke-width="1" stroke="black" d="M 173 214 138 124"/>
<path stroke-width="1" stroke="black" d="M 173 214 222 135"/>
<path stroke-width="1" stroke="black" d="M 173 214 134 224"/>
<path stroke-width="1" stroke="black" d="M 173 214 213 229"/>
<path stroke-width="1" stroke="black" d="M 173 214 211 123"/>
<path stroke-width="1" stroke="black" d="M 173 214 223 178"/>
<path stroke-width="1" stroke="black" d="M 173 214 161 196"/>
<path stroke-width="1" stroke="black" d="M 173 214 120 153"/>
<path stroke-width="1" stroke="black" d="M 203 173 107 208"/>
<path stroke-width="1" stroke="black" d="M 203 173 137 115"/>
<path stroke-width="1" stroke="black" d="M 203 173 165 173"/>
<path stroke-width="1" stroke="black" d="M 203 173 227 169"/>
<path stroke-width="1" stroke="black" d="M 203 173 173 214"/>
<path stroke-width="1" stroke="black" d="M 203 173 169 116"/>
<path stroke-width="1" stroke="black" d="M 203 173 138 124"/>
<path stroke-width="1" stroke="black" d="M 203 173 222 135"/>
<path stroke-width="1" stroke="black" d="M 203 173 134 224"/>
<path stroke-width="1" stroke="black" d="M 203 173 183 105"/>
<path stroke-width="1" stroke="black" d="M 203 173 213 229"/>
<path stroke-width="1" stroke="black" d="M 203 173 223 178"/>
<path stroke-width="1" stroke="black" d="M 203 173 120 153"/>
<path stroke-width="1" stroke="black" d="M 203 173 188 145"/>
<path stroke-width="1" stroke="black" d="M 203 173 231 195"/>
<path stroke-width="1" stroke="black" d="M 203 173 203 233"/>
<path stroke-width="1" stroke="black" d="M 203 173 111 172"/>
<path stroke-width="1" stroke="black" d="M 203 173 178 255"/>
<path stroke-width="1" stroke="black" d="M 203 173 211 123"/>
<path stroke-width="1" stroke="black" d="M 173 214 188 145"/>
<path stroke-width="1" stroke="black" d="M 173 214 231 195"/>
<path stroke-width="1" stroke="black" d="M 173 214 203 233"/>
<path stroke-width="1" stroke="black" d="M 169 116 223 178"/>
<path stroke-width="1" stroke="black" d="M 169 116 120 153"/>
<path stroke-width="1" stroke="black" d="M 169 116 188 145"/>
<path stroke-width="1" stroke="black" d="M 169 116 231 195"/>
<path stroke-width="1" stroke="black" d="M 169 116 203 233"/>
<path stroke-width="1" stroke="black" d="M 169 116 111 172"/>
<path stroke-width="1" stroke="black" d="M 169 116 178 255"/>
<path stroke-width="1" stroke="black" d="M 169 116 211 123"/>
<path stroke-width="1" stroke="black" d="M 169 116 137 115"/>
<path stroke-width="1" stroke="black" d="M 169 116 107 208"/>
<path stroke-width="1" stroke="black" d="M 169 116 264 164"/>
<path stroke-width="1" stroke="black" d="M 110 102 138 124"/>
<path stroke-width="1" stroke="black" d="M 138 124 139 237"/>
<path stroke-width="1" stroke="black" d="M 138 124 220 180"/>
<path stroke-width="1" stroke="black" d="M 138 124 179 210"/>
<path stroke-width="1" stroke="black" d="M 138 124 123 193"/>
<path stroke-width="1" stroke="black" d="M 169 116 183 105"/>
<path stroke-width="1" stroke="black" d="M 169 116 213 229"/>
<path stroke-width="1" stroke="black" d="M 169 116 134 224"/>
<path stroke-width="1" stroke="black" d="M 169 116 222 135"/>
<path stroke-width="1" stroke="black" d="M 173 214 111 172"/>
<path stroke-width="1" stroke="black" d="M 173 214 178 255"/>
<path stroke-width="1" stroke="black" d="M 173 214 137 115"/>
<path stroke-width="1" stroke="black" d="M 173 214 183 105"/>
<path stroke-width="1" stroke="black" d="M 173 214 107 208"/>
<path stroke-width="1" stroke="black" d="M 173 214 264 164"/>
<path stroke-width="1" stroke="black" d="M 167 81 169 116"/>
<path stroke-width="1" stroke="black" d="M 169 116 139 237"/>
<path stroke-width="1" stroke="black" d="M 169 116 220 180"/>
<path stroke-width="1" stroke="black" d="M 169 116 179 210"/>
<path stroke-width="1" stroke="black" d="M 169 116 123 193"/>
<path stroke-width="1" stroke="black" d="M 169 116 144 173"/>
<path stroke-width="1" stroke="black" d="M 169 116 165 173"/>
<path stroke-width="1" stroke="black" d="M 169 116 203 173"/>
<path stroke-width="1" stroke="black" d="M 169 116 173 214"/>
<path stroke-width="1" stroke="black" d="M 169 116 167 81"/>
<path stroke-width="1" stroke="black" d="M 169 116 138 124"/>
<path stroke-width="1" stroke="black" d="M 203 173 123 193"/>
<path stroke-width="1" stroke="black" d="M 264 164 420 150"/>
<circle cx="117" cy="264" r="20.0" style="fill:gray;stroke:black;stroke-width:1.0"/>
<circle cx="139" cy="237" r="20.0" style="fill:gray;stroke:black;stroke-width:1.0"/>
<circle cx="247" cy="185" r="20.0" style="fill:gray;stroke:black;stroke-width:1.0"/>
<circle cx="220" cy="180" r="20.0" style="fill:gray;stroke:black;stroke-width:1.0"/>
<circle cx="184" cy="238" r="20.0" style="fill:gray;stroke:black;stroke-width:1.0"/>
<circle cx="179" cy="210" r="20.0" style="fill:gray;stroke:black;stroke-width:1.0"/>
<circle cx="95" cy="196" r="20.0" style="fill:gray;stroke:black;stroke-width:1.0"/>
<circle cx="123" cy="193" r="20.0" style="fill:gray;stroke:black;stroke-width:1.0"/>
<circle cx="119" cy="170" r="20.0" style="fill:gray;stroke:black;stroke-width:1.0"/>
<circle cx="144" cy="173" r="20.0" style="fill:gray;stroke:black;stroke-width:1.0"/>
<circle cx="150" cy="167" r="20.0" style="fill:gray;stroke:black;stroke-width:1.0"/>
<circle cx="165" cy="173" r="20.0" style="fill:gray;stroke:black;stroke-width:1.0"/>
<circle cx="227" cy="169" r="20.0" style="fill:gray;stroke:black;stroke-width:1.0"/>
<circle cx="203" cy="173" r="20.0" style="fill:gray;stroke:black;stroke-width:1.0"/>
<circle cx="161" cy="196" r="20.0" style="fill:gray;stroke:black;stroke-width:1.0"/>
<circle cx="173" cy="214" r="20.0" style="fill:gray;stroke:black;stroke-width:1.0"/>
<circle cx="167" cy="81" r="20.0" style="fill:gray;stroke:black;stroke-width:1.0"/>
<circle cx="169" cy="116" r="20.0" style="fill:gray;stroke:black;stroke-width:1.0"/>
<circle cx="110" cy="102" r="20.0" style="fill:gray;stroke:black;stroke-width:1.0"/>
<circle cx="138" cy="124" r="20.0" style="fill:gray;stroke:black;stroke-width:1.0"/>
<circle cx="255" cy="116" r="20.0" style="fill:gray;stroke:black;stroke-width:1.0"/>
<circle cx="222" cy="135" r="20.0" style="fill:gray;stroke:black;stroke-width:1.0"/>
<circle cx="99" cy="243" r="20.0" style="fill:gray;stroke:black;stroke-width:1.0"/>
<circle cx="134" cy="224" r="20.0" style="fill:gray;stroke:black;stroke-width:1.0"/>
<circle cx="244" cy="255" r="20.0" style="fill:gray;stroke:black;stroke-width:1.0"/>
<circle cx="213" cy="229" r="20.0" style="fill:gray;stroke:black;stroke-width:1.0"/>
<circle cx="241" cy="93" r="20.0" style="fill:gray;stroke:black;stroke-width:1.0"/>
<circle cx="211" cy="123" r="20.0" style="fill:gray;stroke:black;stroke-width:1.0"/>
<circle cx="263" cy="179" r="20.0" style="fill:gray;stroke:black;stroke-width:1.0"/>
<circle cx="223" cy="178" r="20.0" style="fill:gray;stroke:black;stroke-width:1.0"/>
<circle cx="80" cy="147" r="20.0" style="fill:gray;stroke:black;stroke-width:1.0"/>
<circle cx="120" cy="153" r="20.0" style="fill:gray;stroke:black;stroke-width:1.0"/>
<circle cx="209" cy="111" r="20.0" style="fill:gray;stroke:black;stroke-width:1.0"/>
<circle cx="188" cy="145" r="20.0" style="fill:gray;stroke:black;stroke-width:1.0"/>
<circle cx="279" cy="202" r="20.0" style="fill:gray;stroke:black;stroke-width:1.0"/>
<circle cx="231" cy="195" r="20.0" style="fill:gray;stroke:black;stroke-width:1.0"/>
<circle cx="235" cy="276" r="20.0" style="fill:gray;stroke:black;stroke-width:1.0"/>
<circle cx="203" cy="233" r="20.0" style="fill:gray;stroke:black;stroke-width:1.0"/>
<circle cx="59" cy="175" r="20.0" style="fill:gray;stroke:black;stroke-width:1.0"/>
<circle cx="111" cy="172" r="20.0" style="fill:gray;stroke:black;stroke-width:1.0"/>
<circle cx="201" cy="320" r="20.0" style="fill:gray;stroke:black;stroke-width:1.0"/>
<circle cx="178" cy="255" r="20.0" style="fill:gray;stroke:black;stroke-width:1.0"/>
<circle cx="88" cy="61" r="20.0" style="fill:gray;stroke:black;stroke-width:1.0"/>
<circle cx="137" cy="115" r="20.0" style="fill:gray;stroke:black;stroke-width:1.0"/>
<circle cx="205" cy="20" r="20.0" style="fill:gray;stroke:black;stroke-width:1.0"/>
<circle cx="183" cy="105" r="20.0" style="fill:gray;stroke:black;stroke-width:1.0"/>
<circle cx="20" cy="228" r="20.0" style="fill:gray;stroke:black;stroke-width:1.0"/>
<circle cx="107" cy="208" r="20.0" style="fill:gray;stroke:black;stroke-width:1.0"/>
<circle cx="420" cy="150" r="20.0" style="fill:gray;stroke:black;stroke-width:1.0"/>
<circle cx="264" cy="164" r="20.0" style="fill:gray;stroke:black;stroke-width:1.0"/>
</svg>
