<svg width="440" height="340" xmlns="http://www.w3.org/2000/svg">
<path stroke-width="1" stroke="black" d="M 330 178 305 183"/>
<path stroke-width="1" stroke="black" d="M 231 244 310 159"/>
<path stroke-width="1" stroke="black" d="M 231 244 247 139"/>
<path stroke-width="1" stroke="black" d="M 231 244 218 157"/>
<path stroke-width="1" stroke="black" d="M 231 244 242 172"/>
<path stroke-width="1" stroke="black" d="M 231 244 261 260"/>
<path stroke-width="1" stroke="black" d="M 231 244 215 230"/>
<path stroke-width="1" stroke="black" d="M 231 244 287 218"/>
<path stroke-width="1" stroke="black" d="M 231 244 254 231"/>
<path stroke-width="1" stroke="black" d="M 231 244 221 234"/>
<path stroke-width="1" stroke="black" d="M 231 244 277 129"/>
<path stroke-width="1" stroke="black" d="M 231 244 206 285"/>
<path stroke-width="1" stroke="black" d="M 231 244 237 145"/>
<path stroke-width="1" stroke="black" d="M 231 244 202 203"/>
<path stroke-width="1" stroke="black" d="M 231 244 322 226"/>
<path stroke-width="1" stroke="black" d="M 231 244 317 202"/>
<path stroke-width="1" stroke="black" d="M 231 244 296 257"/>
<path stroke-width="1" stroke="black" d="M 231 244 209 189"/>
<path stroke-width="1" stroke="black" d="M 231 244 336 206"/>
<path stroke-width="1" stroke="black" d="M 231 244 284 165"/>
<path stroke-width="1" stroke="black" d="M 231 244 306 151"/>
<path stroke-width="1" stroke="black" d="M 277 129 287 218"/>
<path stroke-width="1" stroke="black" d="M 277 129 221 234"/>
<path stroke-width="1" stroke="black" d="M 277 129 209 189"/>
<path stroke-width="1" stroke="black" d="M 277 129 293 86"/>
<path stroke-width="1" stroke="black" d="M 277 129 231 244"/>
<path stroke-width="1" stroke="black" d="M 277 129 237 145"/>
<path stroke-width="1" stroke="black" d="M 277 129 202 203"/>
<path stroke-width="1" stroke="black" d="M 231 244 226 190"/>
<path stroke-width="1" stroke="black" d="M 277 129 322 226"/>
<path stroke-width="1" stroke="black" d="M 277 129 296 257"/>
<path stroke-width="1" stroke="black" d="M 277 129 336 206"/>
<path stroke-width="1" stroke="black" d="M 277 129 271 119"/>
<path stroke-width="1" stroke="black" d="M 277 129 172 143"/>
<path stroke-width="1" stroke="black" d="M 206 285 231 244"/>
<path stroke-width="1" stroke="black" d="M 231 244 305 183"/>
<path stroke-width="1" stroke="black" d="M 231 244 292 246"/>
<path stroke-width="1" stroke="black" d="M 277 129 317 202"/>
<path stroke-width="1" stroke="black" d="M 277 129 215 230"/>
<path stroke-width="1" stroke="black" d="M 231 244 271 119"/>
<path stroke-width="1" stroke="black" d="M 207 111 237 145"/>
<path stroke-width="1" stroke="black" d="M 237 145 317 202"/>
<path stroke-width="1" stroke="black" d="M 237 145 296 257"/>
<path stroke-width="1" stroke="black" d="M 237 145 336 206"/>
<path stroke-width="1" stroke="black" d="M 237 145 271 119"/>
<path stroke-width="1" stroke="black" d="M 237 145 172 143"/>
<path stroke-width="1" stroke="black" d="M 151 212 202 203"/>
<path stroke-width="1" stroke="black" d="M 202 203 305 183"/>
<path stroke-width="1" stroke="black" d="M 237 145 322 226"/>
<path stroke-width="1" stroke="black" d="M 202 203 292 246"/>
<path stroke-width="1" stroke="black" d="M 202 203 226 190"/>
<path stroke-width="1" stroke="black" d="M 202 203 284 165"/>
<path stroke-width="1" stroke="black" d="M 202 203 254 231"/>
<path stroke-width="1" stroke="black" d="M 202 203 310 159"/>
<path stroke-width="1" stroke="black" d="M 202 203 247 139"/>
<path stroke-width="1" stroke="black" d="M 202 203 218 157"/>
<path stroke-width="1" stroke="black" d="M 202 203 242 172"/>
<path stroke-width="1" stroke="black" d="M 202 203 306 151"/>
<path stroke-width="1" stroke="black" d="M 231 244 172 143"/>
<path stroke-width="1" stroke="black" d="M 237 145 202 203"/>
<path stroke-width="1" stroke="black" d="M 237 145 231 244"/>
<path stroke-width="1" stroke="black" d="M 237 145 305 183"/>
<path stroke-width="1" stroke="black" d="M 237 145 292 246"/>
<path stroke-width="1" stroke="black" d="M 237 145 306 151"/>
<path stroke-width="1" stroke="black" d="M 237 145 226 190"/>
<path stroke-width="1" stroke="black" d="M 237 145 284 165"/>
<path stroke-width="1" stroke="black" d="M 237 145 254 231"/>
<path stroke-width="1" stroke="black" d="M 237 145 310 159"/>
<path stroke-width="1" stroke="black" d="M 237 145 207 111"/>
<path stroke-width="1" stroke="black" d="M 237 145 247 139"/>
<path stroke-width="1" stroke="black" d="M 237 145 242 172"/>
<path stroke-width="1" stroke="black" d="M 237 145 261 260"/>
<path stroke-width="1" stroke="black" d="M 237 145 215 230"/>
<path stroke-width="1" stroke="black" d="M 237 145 287 218"/>
<path stroke-width="1" stroke="black" d="M 237 145 221 234"/>
<path stroke-width="1" stroke="black" d="M 237 145 209 189"/>
<path stroke-width="1" stroke="black" d="M 237 145 277 129"/>
<path stroke-width="1" stroke="black" d="M 237 145 218 157"/>
<path stroke-width="1" stroke="black" d="M 202 203 261 260"/>
<path stroke-width="1" stroke="black" d="M 277 129 261 260"/>
<path stroke-width="1" stroke="black" d="M 277 129 218 157"/>
<path stroke-width="1" stroke="black" d="M 221 234 284 165"/>
<path stroke-width="1" stroke="black" d="M 221 234 254 231"/>
<path stroke-width="1" stroke="black" d="M 221 234 310 159"/>
<path stroke-width="1" stroke="black" d="M 221 234 247 139"/>
<path stroke-width="1" stroke="black" d="M 221 234 218 157"/>
<path stroke-width="1" stroke="black" d="M 221 234 242 172"/>
<path stroke-width="1" stroke="black" d="M 221 234 261 260"/>
<path stroke-width="1" stroke="black" d="M 221 234 226 190"/>
<path stroke-width="1" stroke="black" d="M 221 234 215 230"/>
<path stroke-width="1" stroke="black" d="M 221 234 188 257"/>
<path stroke-width="1" stroke="black" d="M 221 234 209 189"/>
<path stroke-width="1" stroke="black" d="M 221 234 277 129"/>
<path stroke-width="1" stroke="black" d="M 221 234 231 244"/>
<path stroke-width="1" stroke="black" d="M 221 234 237 145"/>
<path stroke-width="1" stroke="black" d="M 221 234 202 203"/>
<path stroke-width="1" stroke="black" d="M 221 234 322 226"/>
<path stroke-width="1" stroke="black" d="M 221 234 287 218"/>
<path stroke-width="1" stroke="black" d="M 221 234 317 202"/>
<path stroke-width="1" stroke="black" d="M 221 234 306 151"/>
<path stroke-width="1" stroke="black" d="M 221 234 305 183"/>
<path stroke-width="1" stroke="black" d="M 287 218 261 260"/>
<path stroke-width="1" stroke="black" d="M 287 218 215 230"/>
<path stroke-width="1" stroke="black" d="M 287 218 314 236"/>
<path stroke-width="1" stroke="black" d="M 287 218 221 234"/>
<path stroke-width="1" stroke="black" d="M 287 218 209 189"/>
<path stroke-width="1" stroke="black" d="M 287 218 277 129"/>
<path stroke-width="1" stroke="black" d="M 287 218 231 244"/>
<path stroke-width="1" stroke="black" d="M 221 234 292 246"/>
<path stroke-width="1" stroke="black" d="M 287 218 237 145"/>
<path stroke-width="1" stroke="black" d="M 287 218 322 226"/>
<path stroke-width="1" stroke="black" d="M 287 218 317 202"/>
<path stroke-width="1" stroke="black" d="M 287 218 296 257"/>
<path stroke-width="1" stroke="black" d="M 287 218 336 206"/>
<path stroke-width="1" stroke="black" d="M 287 218 271 119"/>
<path stroke-width="1" stroke="black" d="M 287 218 172 143"/>
<path stroke-width="1" stroke="black" d="M 188 257 221 234"/>
<path stroke-width="1" stroke="black" d="M 287 218 202 203"/>
<path stroke-width="1" stroke="black" d="M 277 129 242 172"/>
<path stroke-width="1" stroke="black" d="M 221 234 296 257"/>
<path stroke-width="1" stroke="black" d="M 221 234 271 119"/>
<path stroke-width="1" stroke="black" d="M 209 189 202 203"/>
<path stroke-width="1" stroke="black" d="M 209 189 322 226"/>
<path stroke-width="1" stroke="black" d="M 209 189 317 202"/>
<path stroke-width="1" stroke="black" d="M 209 189 296 257"/>
<path stroke-width="1" stroke="black" d="M 209 189 336 206"/>
<path stroke-width="1" stroke="black" d="M 209 189 271 119"/>
<path stroke-width="1" stroke="black" d="M 209 189 172 143"/>
<path stroke-width="1" stroke="black" d="M 209 189 237 145"/>
<path stroke-width="1" stroke="black" d="M 293 86 277 129"/>
<path stroke-width="1" stroke="black" d="M 277 129 292 246"/>
<path stroke-width="1" stroke="black" d="M 277 129 306 151"/>
<path stroke-width="1" stroke="black" d="M 277 129 226 190"/>
<path stroke-width="1" stroke="black" d="M 277 129 284 165"/>
<path stroke-width="1" stroke="black" d="M 277 129 254 231"/>
<path stroke-width="1" stroke="black" d="M 277 129 310 159"/>
<path stroke-width="1" stroke="black" d="M 277 129 247 139"/>
<path stroke-width="1" stroke="black" d="M 277 129 305 183"/>
<path stroke-width="1" stroke="black" d="M 221 234 336 206"/>
<path stroke-width="1" stroke="black" d="M 209 189 231 244"/>
<path stroke-width="1" stroke="black" d="M 209 189 168 187"/>
<path stroke-width="1" stroke="black" d="M 221 234 172 143"/>
<path stroke-width="1" stroke="black" d="M 168 187 209 189"/>
<path stroke-width="1" stroke="black" d="M 209 189 305 183"/>
<path stroke-width="1" stroke="black" d="M 209 189 292 246"/>
<path stroke-width="1" stroke="black" d="M 209 189 306 151"/>
<path stroke-width="1" stroke="black" d="M 209 189 226 190"/>
<path stroke-width="1" stroke="black" d="M 209 189 284 165"/>
<path stroke-width="1" stroke="black" d="M 209 189 277 129"/>
<path stroke-width="1" stroke="black" d="M 209 189 254 231"/>
<path stroke-width="1" stroke="black" d="M 209 189 247 139"/>
<path stroke-width="1" stroke="black" d="M 209 189 218 157"/>
<path stroke-width="1" stroke="black" d="M 209 189 242 172"/>
<path stroke-width="1" stroke="black" d="M 209 189 261 260"/>
<path stroke-width="1" stroke="black" d="M 209 189 215 230"/>
<path stroke-width="1" stroke="black" d="M 209 189 287 218"/>
<path stroke-width="1" stroke="black" d="M 209 189 221 234"/>
<path stroke-width="1" stroke="black" d="M 209 189 310 159"/>
<path stroke-width="1" stroke="black" d="M 202 203 215 230"/>
<path stroke-width="1" stroke="black" d="M 202 203 287 218"/>
<path stroke-width="1" stroke="black" d="M 202 203 221 234"/>
<path stroke-width="1" stroke="black" d="M 336 206 221 234"/>
<path stroke-width="1" stroke="black" d="M 336 206 209 189"/>
<path stroke-width="1" stroke="black" d="M 336 206 277 129"/>
<path stroke-width="1" stroke="black" d="M 336 206 231 244"/>
<path stroke-width="1" stroke="black" d="M 336 206 237 145"/>
<path stroke-width="1" stroke="black" d="M 336 206 202 203"/>
<path stroke-width="1" stroke="black" d="M 336 206 322 226"/>
<path stroke-width="1" stroke="black" d="M 336 206 287 218"/>
<path stroke-width="1" stroke="black" d="M 336 206 317 202"/>
<path stroke-width="1" stroke="black" d="M 336 206 420 214"/>
<path stroke-width="1" stroke="black" d="M 336 206 271 119"/>
<path stroke-width="1" stroke="black" d="M 274 20 271 119"/>
<path stroke-width="1" stroke="black" d="M 271 119 305 183"/>
<path stroke-width="1" stroke="black" d="M 271 119 292 246"/>
<path stroke-width="1" stroke="black" d="M 271 119 306 151"/>
<path stroke-width="1" stroke="black" d="M 271 119 226 190"/>
<path stroke-width="1" stroke="black" d="M 336 206 296 257"/>
<path stroke-width="1" stroke="black" d="M 271 119 284 165"/>
<path stroke-width="1" stroke="black" d="M 336 206 215 230"/>
<path stroke-width="1" stroke="black" d="M 336 206 242 172"/>
<path stroke-width="1" stroke="black" d="M 296 257 202 203"/>
<path stroke-width="1" stroke="black" d="M 296 257 322 226"/>
<path stroke-width="1" stroke="black" d="M 296 257 317 202"/>
<path stroke-width="1" stroke="black" d="M 296 257 334 320"/>
<path stroke-width="1" stroke="black" d="M 296 257 336 206"/>
<path stroke-width="1" stroke="black" d="M 296 257 271 119"/>
<path stroke-width="1" stroke="black" d="M 420 214 336 206"/>
<path stroke-width="1" stroke="black" d="M 336 206 261 260"/>
<path stroke-width="1" stroke="black" d="M 336 206 305 183"/>
<path stroke-width="1" stroke="black" d="M 336 206 306 151"/>
<path stroke-width="1" stroke="black" d="M 336 206 226 190"/>
<path stroke-width="1" stroke="black" d="M 336 206 284 165"/>
<path stroke-width="1" stroke="black" d="M 336 206 254 231"/>
<path stroke-width="1" stroke="black" d="M 336 206 310 159"/>
<path stroke-width="1" stroke="black" d="M 336 206 247 139"/>
<path stroke-width="1" stroke="black" d="M 336 206 218 157"/>
<path stroke-width="1" stroke="black" d="M 336 206 292 246"/>
<path stroke-width="1" stroke="black" d="M 296 257 237 145"/>
<path stroke-width="1" stroke="black" d="M 271 119 254 231"/>
<path stroke-width="1" stroke="black" d="M 271 119 247 139"/>
<path stroke-width="1" stroke="black" d="M 172 143 226 190"/>
<path stroke-width="1" stroke="black" d="M 172 143 284 165"/>
<path stroke-width="1" stroke="black" d="M 172 143 254 231"/>
<path stroke-width="1" stroke="black" d="M 172 143 310 159"/>
<path stroke-width="1" stroke="black" d="M 172 143 247 139"/>
<path stroke-width="1" stroke="black" d="M 172 143 218 157"/>
<path stroke-width="1" stroke="black" d="M 172 143 242 172"/>
<path stroke-width="1" stroke="black" d="M 172 143 306 151"/>
<path stroke-width="1" stroke="black" d="M 172 143 261 260"/>
<path stroke-width="1" stroke="black" d="M 172 143 287 218"/>
<path stroke-width="1" stroke="black" d="M 172 143 221 234"/>
<path stroke-width="1" stroke="black" d="M 172 143 209 189"/>
<path stroke-width="1" stroke="black" d="M 172 143 277 129"/>
<path stroke-width="1" stroke="black" d="M 172 143 231 244"/>
<path stroke-width="1" stroke="black" d="M 172 143 237 145"/>
<path stroke-width="1" stroke="black" d="M 172 143 202 203"/>
<path stroke-width="1" stroke="black" d="M 172 143 215 230"/>
<path stroke-width="1" stroke="black" d="M 271 119 310 159"/>
<path stroke-width="1" stroke="black" d="M 172 143 292 246"/>
<path stroke-width="1" stroke="black" d="M 20 64 172 143"/>
<path stroke-width="1" stroke="black" d="M 271 119 218 157"/>
<path stroke-width="1" stroke="black" d="M 271 119 242 172"/>
<path stroke-width="1" stroke="black" d="M 271 119 261 260"/>
<path stroke-width="1" stroke="black" d="M 271 119 215 230"/>
<path stroke-width="1" stroke="black" d="M 271 119 287 218"/>
<path stroke-width="1" stroke="black" d="M 271 119 221 234"/>
<path stroke-width="1" stroke="black" d="M 271 119 209 189"/>
<path stroke-width="1" stroke="black" d="M 172 143 305 183"/>
<path stroke-width="1" stroke="black" d="M 271 119 277 129"/>
<path stroke-width="1" stroke="black" d="M 271 119 237 145"/>
<path stroke-width="1" stroke="black" d="M 271 119 202 203"/>
<path stroke-width="1" stroke="black" d="M 271 119 322 226"/>
<path stroke-width="1" stroke="black" d="M 271 119 317 202"/>
<path stroke-width="1" stroke="black" d="M 271 119 296 257"/>
<path stroke-width="1" stroke="black" d="M 271 119 336 206"/>
<path stroke-width="1" stroke="black" d="M 271 119 274 20"/>
<path stroke-width="1" stroke="black" d="M 271 119 231 244"/>
<path stroke-width="1" stroke="black" d="M 296 257 231 244"/>
<path stroke-width="1" stroke="black" d="M 296 257 277 129"/>
<path stroke-width="1" stroke="black" d="M 296 257 209 189"/>
<path stroke-width="1" stroke="black" d="M 322 226 218 157"/>
<path stroke-width="1" stroke="black" d="M 322 226 242 172"/>
<path stroke-width="1" stroke="black" d="M 322 226 261 260"/>
<path stroke-width="1" stroke="black" d="M 322 226 215 230"/>
<path stroke-width="1" stroke="black" d="M 322 226 287 218"/>
<path stroke-width="1" stroke="black" d="M 322 226 221 234"/>
<path stroke-width="1" stroke="black" d="M 322 226 209 189"/>
<path stroke-width="1" stroke="black" d="M 322 226 247 139"/>
<path stroke-width="1" stroke="black" d="M 322 226 277 129"/>
<path stroke-width="1" stroke="black" d="M 322 226 237 145"/>
<path stroke-width="1" stroke="black" d="M 322 226 202 203"/>
<path stroke-width="1" stroke="black" d="M 322 226 371 248"/>
<path stroke-width="1" stroke="black" d="M 322 226 317 202"/>
<path stroke-width="1" stroke="black" d="M 322 226 296 257"/>
<path stroke-width="1" stroke="black" d="M 322 226 336 206"/>
<path stroke-width="1" stroke="black" d="M 322 226 271 119"/>
<path stroke-width="1" stroke="black" d="M 322 226 231 244"/>
<path stroke-width="1" stroke="black" d="M 322 226 172 143"/>
<path stroke-width="1" stroke="black" d="M 322 226 310 159"/>
<path stroke-width="1" stroke="black" d="M 322 226 284 165"/>
<path stroke-width="1" stroke="black" d="M 202 203 209 189"/>
<path stroke-width="1" stroke="black" d="M 202 203 277 129"/>
<path stroke-width="1" stroke="black" d="M 202 203 231 244"/>
<path stroke-width="1" stroke="black" d="M 202 203 237 145"/>
<path stroke-width="1" stroke="black" d="M 202 203 151 212"/>
<path stroke-width="1" stroke="black" d="M 202 203 322 226"/>
<path stroke-width="1" stroke="black" d="M 202 203 317 202"/>
<path stroke-width="1" stroke="black" d="M 322 226 254 231"/>
<path stroke-width="1" stroke="black" d="M 202 203 296 257"/>
<path stroke-width="1" stroke="black" d="M 202 203 271 119"/>
<path stroke-width="1" stroke="black" d="M 202 203 172 143"/>
<path stroke-width="1" stroke="black" d="M 371 248 322 226"/>
<path stroke-width="1" stroke="black" d="M 322 226 305 183"/>
<path stroke-width="1" stroke="black" d="M 322 226 292 246"/>
<path stroke-width="1" stroke="black" d="M 322 226 306 151"/>
<path stroke-width="1" stroke="black" d="M 322 226 226 190"/>
<path stroke-width="1" stroke="black" d="M 202 203 336 206"/>
<path stroke-width="1" stroke="black" d="M 377 205 317 202"/>
<path stroke-width="1" stroke="black" d="M 317 202 305 183"/>
<path stroke-width="1" stroke="black" d="M 317 202 292 246"/>
<path stroke-width="1" stroke="black" d="M 317 202 271 119"/>
<path stroke-width="1" stroke="black" d="M 334 320 296 257"/>
<path stroke-width="1" stroke="black" d="M 296 257 305 183"/>
<path stroke-width="1" stroke="black" d="M 296 257 292 246"/>
<path stroke-width="1" stroke="black" d="M 296 257 306 151"/>
<path stroke-width="1" stroke="black" d="M 296 257 226 190"/>
<path stroke-width="1" stroke="black" d="M 296 257 284 165"/>
<path stroke-width="1" stroke="black" d="M 317 202 336 206"/>
<path stroke-width="1" stroke="black" d="M 296 257 254 231"/>
<path stroke-width="1" stroke="black" d="M 296 257 247 139"/>
<path stroke-width="1" stroke="black" d="M 296 257 218 157"/>
<path stroke-width="1" stroke="black" d="M 296 257 242 172"/>
<path stroke-width="1" stroke="black" d="M 296 257 261 260"/>
<path stroke-width="1" stroke="black" d="M 296 257 215 230"/>
<path stroke-width="1" stroke="black" d="M 296 257 287 218"/>
<path stroke-width="1" stroke="black" d="M 296 257 221 234"/>
<path stroke-width="1" stroke="black" d="M 296 257 310 159"/>
<path stroke-width="1" stroke="black" d="M 317 202 296 257"/>
<path stroke-width="1" stroke="black" d="M 317 202 377 205"/>
<path stroke-width="1" stroke="black" d="M 317 202 322 226"/>
<path stroke-width="1" stroke="black" d="M 317 202 306 151"/>
<path stroke-width="1" stroke="black" d="M 317 202 226 190"/>
<path stroke-width="1" stroke="black" d="M 317 202 284 165"/>
<path stroke-width="1" stroke="black" d="M 317 202 254 231"/>
<path stroke-width="1" stroke="black" d="M 317 202 310 159"/>
<path stroke-width="1" stroke="black" d="M 317 202 247 139"/>
<path stroke-width="1" stroke="black" d="M 317 202 218 157"/>
<path stroke-width="1" stroke="black" d="M 317 202 242 172"/>
<path stroke-width="1" stroke="black" d="M 317 202 261 260"/>
<path stroke-width="1" stroke="black" d="M 317 202 215 230"/>
<path stroke-width="1" stroke="black" d="M 317 202 287 218"/>
<path stroke-width="1" stroke="black" d="M 317 202 221 234"/>
<path stroke-width="1" stroke="black" d="M 317 202 209 189"/>
<path stroke-width="1" stroke="black" d="M 317 202 277 129"/>
<path stroke-width="1" stroke="black" d="M 317 202 231 244"/>
<path stroke-width="1" stroke="black" d="M 317 202 237 145"/>
<path stroke-width="1" stroke="black" d="M 317 202 202 203"/>
<path stroke-width="1" stroke="black" d="M 287 218 242 172"/>
<path stroke-width="1" stroke="black" d="M 287 218 218 157"/>
<path stroke-width="1" stroke="black" d="M 287 218 247 139"/>
<path stroke-width="1" stroke="black" d="M 287 218 310 159"/>
<path stroke-width="1" stroke="black" d="M 226 190 271 119"/>
<path stroke-width="1" stroke="black" d="M 226 190 172 143"/>
<path stroke-width="1" stroke="black" d="M 304 146 284 165"/>
<path stroke-width="1" stroke="black" d="M 284 165 305 183"/>
<path stroke-width="1" stroke="black" d="M 284 165 292 246"/>
<path stroke-width="1" stroke="black" d="M 284 165 306 151"/>
<path stroke-width="1" stroke="black" d="M 284 165 226 190"/>
<path stroke-width="1" stroke="black" d="M 226 190 336 206"/>
<path stroke-width="1" stroke="black" d="M 284 165 304 146"/>
<path stroke-width="1" stroke="black" d="M 284 165 310 159"/>
<path stroke-width="1" stroke="black" d="M 284 165 247 139"/>
<path stroke-width="1" stroke="black" d="M 284 165 218 157"/>
<path stroke-width="1" stroke="black" d="M 284 165 242 172"/>
<path stroke-width="1" stroke="black" d="M 284 165 261 260"/>
<path stroke-width="1" stroke="black" d="M 284 165 215 230"/>
<path stroke-width="1" stroke="black" d="M 284 165 287 218"/>
<path stroke-width="1" stroke="black" d="M 284 165 254 231"/>
<path stroke-width="1" stroke="black" d="M 284 165 221 234"/>
<path stroke-width="1" stroke="black" d="M 226 190 296 257"/>
<path stroke-width="1" stroke="black" d="M 226 190 322 226"/>
<path stroke-width="1" stroke="black" d="M 226 190 198 190"/>
<path stroke-width="1" stroke="black" d="M 226 190 284 165"/>
<path stroke-width="1" stroke="black" d="M 226 190 254 231"/>
<path stroke-width="1" stroke="black" d="M 226 190 310 159"/>
<path stroke-width="1" stroke="black" d="M 226 190 247 139"/>
<path stroke-width="1" stroke="black" d="M 226 190 218 157"/>
<path stroke-width="1" stroke="black" d="M 226 190 242 172"/>
<path stroke-width="1" stroke="black" d="M 226 190 317 202"/>
<path stroke-width="1" stroke="black" d="M 226 190 261 260"/>
<path stroke-width="1" stroke="black" d="M 226 190 287 218"/>
<path stroke-width="1" stroke="black" d="M 226 190 221 234"/>
<path stroke-width="1" stroke="black" d="M 226 190 209 189"/>
<path stroke-width="1" stroke="black" d="M 226 190 277 129"/>
<path stroke-width="1" stroke="black" d="M 226 190 231 244"/>
<path stroke-width="1" stroke="black" d="M 226 190 237 145"/>
<path stroke-width="1" stroke="black" d="M 226 190 202 203"/>
<path stroke-width="1" stroke="black" d="M 226 190 215 230"/>
<path stroke-width="1" stroke="black" d="M 226 190 306 151"/>
<path stroke-width="1" stroke="black" d="M 284 165 209 189"/>
<path stroke-width="1" stroke="black" d="M 284 165 231 244"/>
<path stroke-width="1" stroke="black" d="M 254 231 215 230"/>
<path stroke-width="1" stroke="black" d="M 254 231 287 218"/>
<path stroke-width="1" stroke="black" d="M 254 231 221 234"/>
<path stroke-width="1" stroke="black" d="M 254 231 209 189"/>
<path stroke-width="1" stroke="black" d="M 254 231 277 129"/>
<path stroke-width="1" stroke="black" d="M 254 231 231 244"/>
<path stroke-width="1" stroke="black" d="M 254 231 237 145"/>
<path stroke-width="1" stroke="black" d="M 254 231 261 260"/>
<path stroke-width="1" stroke="black" d="M 254 231 202 203"/>
<path stroke-width="1" stroke="black" d="M 254 231 317 202"/>
<path stroke-width="1" stroke="black" d="M 254 231 296 257"/>
<path stroke-width="1" stroke="black" d="M 254 231 336 206"/>
<path stroke-width="1" stroke="black" d="M 254 231 271 119"/>
<path stroke-width="1" stroke="black" d="M 254 231 172 143"/>
<path stroke-width="1" stroke="black" d="M 339 146 310 159"/>
<path stroke-width="1" stroke="black" d="M 310 159 305 183"/>
<path stroke-width="1" stroke="black" d="M 254 231 322 226"/>
<path stroke-width="1" stroke="black" d="M 284 165 277 129"/>
<path stroke-width="1" stroke="black" d="M 254 231 242 172"/>
<path stroke-width="1" stroke="black" d="M 254 231 247 139"/>
<path stroke-width="1" stroke="black" d="M 284 165 237 145"/>
<path stroke-width="1" stroke="black" d="M 284 165 202 203"/>
<path stroke-width="1" stroke="black" d="M 284 165 322 226"/>
<path stroke-width="1" stroke="black" d="M 284 165 317 202"/>
<path stroke-width="1" stroke="black" d="M 284 165 296 257"/>
<path stroke-width="1" stroke="black" d="M 284 165 336 206"/>
<path stroke-width="1" stroke="black" d="M 284 165 271 119"/>
<path stroke-width="1" stroke="black" d="M 254 231 218 157"/>
<path stroke-width="1" stroke="black" d="M 284 165 172 143"/>
<path stroke-width="1" stroke="black" d="M 254 231 305 183"/>
<path stroke-width="1" stroke="black" d="M 254 231 292 246"/>
<path stroke-width="1" stroke="black" d="M 254 231 306 151"/>
<path stroke-width="1" stroke="black" d="M 254 231 226 190"/>
<path stroke-width="1" stroke="black" d="M 254 231 284 165"/>
<path stroke-width="1" stroke="black" d="M 254 231 253 255"/>
<path stroke-width="1" stroke="black" d="M 254 231 310 159"/>
<path stroke-width="1" stroke="black" d="M 253 255 254 231"/>
<path stroke-width="1" stroke="black" d="M 226 190 292 246"/>
<path stroke-width="1" stroke="black" d="M 226 190 305 183"/>
<path stroke-width="1" stroke="black" d="M 198 190 226 190"/>
<path stroke-width="1" stroke="black" d="M 305 183 317 202"/>
<path stroke-width="1" stroke="black" d="M 305 183 296 257"/>
<path stroke-width="1" stroke="black" d="M 305 183 336 206"/>
<path stroke-width="1" stroke="black" d="M 305 183 271 119"/>
<path stroke-width="1" stroke="black" d="M 305 183 172 143"/>
<path stroke-width="1" stroke="black" d="M 308 266 292 246"/>
<path stroke-width="1" stroke="black" d="M 292 246 305 183"/>
<path stroke-width="1" stroke="black" d="M 305 183 322 226"/>
<path stroke-width="1" stroke="black" d="M 292 246 308 266"/>
<path stroke-width="1" stroke="black" d="M 292 246 226 190"/>
<path stroke-width="1" stroke="black" d="M 292 246 284 165"/>
<path stroke-width="1" stroke="black" d="M 292 246 254 231"/>
<path stroke-width="1" stroke="black" d="M 292 246 310 159"/>
<path stroke-width="1" stroke="black" d="M 292 246 247 139"/>
<path stroke-width="1" stroke="black" d="M 292 246 218 157"/>
<path stroke-width="1" stroke="black" d="M 292 246 242 172"/>
<path stroke-width="1" stroke="black" d="M 292 246 306 151"/>
<path stroke-width="1" stroke="black" d="M 292 246 261 260"/>
<path stroke-width="1" stroke="black" d="M 305 183 202 203"/>
<path stroke-width="1" stroke="black" d="M 305 183 231 244"/>
<path stroke-width="1" stroke="black" d="M 305 183 330 178"/>
<path stroke-width="1" stroke="black" d="M 305 183 292 246"/>
<path stroke-width="1" stroke="black" d="M 305 183 306 151"/>
<path stroke-width="1" stroke="black" d="M 305 183 226 190"/>
<path stroke-width="1" stroke="black" d="M 305 183 284 165"/>
<path stroke-width="1" stroke="black" d="M 305 183 254 231"/>
<path stroke-width="1" stroke="black" d="M 305 183 310 159"/>
<path stroke-width="1" stroke="black" d="M 305 183 237 145"/>
<path stroke-width="1" stroke="black" d="M 305 183 247 139"/>
<path stroke-width="1" stroke="black" d="M 305 183 242 172"/>
<path stroke-width="1" stroke="black" d="M 305 183 261 260"/>
<path stroke-width="1" stroke="black" d="M 305 183 215 230"/>
<path stroke-width="1" stroke="black" d="M 305 183 287 218"/>
<path stroke-width="1" stroke="black" d="M 305 183 221 234"/>
<path stroke-width="1" stroke="black" d="M 305 183 209 189"/>
<path stroke-width="1" stroke="black" d="M 305 183 277 129"/>
<path stroke-width="1" stroke="black" d="M 305 183 218 157"/>
<path stroke-width="1" stroke="black" d="M 292 246 215 230"/>
<path stroke-width="1" stroke="black" d="M 292 246 287 218"/>
<path stroke-width="1" stroke="black" d="M 292 246 221 234"/>
<path stroke-width="1" stroke="black" d="M 306 151 242 172"/>
<path stroke-width="1" stroke="black" d="M 306 151 261 260"/>
<path stroke-width="1" stroke="black" d="M 306 151 215 230"/>
<path stroke-width="1" stroke="black" d="M 306 151 287 218"/>
<path stroke-width="1" stroke="black" d="M 306 151 221 234"/>
<path stroke-width="1" stroke="black" d="M 306 151 209 189"/>
<path stroke-width="1" stroke="black" d="M 306 151 277 129"/>
<path stroke-width="1" stroke="black" d="M 306 151 218 157"/>
<path stroke-width="1" stroke="black" d="M 306 151 231 244"/>
<path stroke-width="1" stroke="black" d="M 306 151 202 203"/>
<path stroke-width="1" stroke="black" d="M 306 151 322 226"/>
<path stroke-width="1" stroke="black" d="M 306 151 317 202"/>
<path stroke-width="1" stroke="black" d="M 306 151 296 257"/>
<path stroke-width="1" stroke="black" d="M 306 151 336 206"/>
<path stroke-width="1" stroke="black" d="M 306 151 271 119"/>
<path stroke-width="1" stroke="black" d="M 306 151 172 143"/>
<path stroke-width="1" stroke="black" d="M 306 151 237 145"/>
<path stroke-width="1" stroke="black" d="M 306 151 247 139"/>
<path stroke-width="1" stroke="black" d="M 306 151 310 159"/>
<path stroke-width="1" stroke="black" d="M 306 151 254 231"/>
<path stroke-width="1" stroke="black" d="M 292 246 209 189"/>
<path stroke-width="1" stroke="black" d="M 292 246 277 129"/>
<path stroke-width="1" stroke="black" d="M 292 246 231 244"/>
<path stroke-width="1" stroke="black" d="M 292 246 237 145"/>
<path stroke-width="1" stroke="black" d="M 292 246 202 203"/>
<path stroke-width="1" stroke="black" d="M 292 246 322 226"/>
<path stroke-width="1" stroke="black" d="M 292 246 317 202"/>
<path stroke-width="1" stroke="black" d="M 292 246 296 257"/>
<path stroke-width="1" stroke="black" d="M 292 246 336 206"/>
<path stroke-width="1" stroke="black" d="M 292 246 271 119"/>
<path stroke-width="1" stroke="black" d="M 292 246 172 143"/>
<path stroke-width="1" stroke="black" d="M 329 132 306 151"/>
<path stroke-width="1" stroke="black" d="M 306 151 305 183"/>
<path stroke-width="1" stroke="black" d="M 306 151 292 246"/>
<path stroke-width="1" stroke="black" d="M 306 151 329 132"/>
<path stroke-width="1" stroke="black" d="M 306 151 226 190"/>
<path stroke-width="1" stroke="black" d="M 306 151 284 165"/>
<path stroke-width="1" stroke="black" d="M 310 159 292 246"/>
<path stroke-width="1" stroke="black" d="M 172 143 322 226"/>
<path stroke-width="1" stroke="black" d="M 310 159 306 151"/>
<path stroke-width="1" stroke="black" d="M 310 159 284 165"/>
<path stroke-width="1" stroke="black" d="M 261 260 306 151"/>
<path stroke-width="1" stroke="black" d="M 261 260 226 190"/>
<path stroke-width="1" stroke="black" d="M 261 260 284 165"/>
<path stroke-width="1" stroke="black" d="M 261 260 254 231"/>
<path stroke-width="1" stroke="black" d="M 261 260 310 159"/>
<path stroke-width="1" stroke="black" d="M 261 260 247 139"/>
<path stroke-width="1" stroke="black" d="M 261 260 218 157"/>
<path stroke-width="1" stroke="black" d="M 261 260 292 246"/>
<path stroke-width="1" stroke="black" d="M 261 260 242 172"/>
<path stroke-width="1" stroke="black" d="M 261 260 215 230"/>
<path stroke-width="1" stroke="black" d="M 261 260 287 218"/>
<path stroke-width="1" stroke="black" d="M 261 260 221 234"/>
<path stroke-width="1" stroke="black" d="M 261 260 209 189"/>
<path stroke-width="1" stroke="black" d="M 261 260 277 129"/>
<path stroke-width="1" stroke="black" d="M 261 260 231 244"/>
<path stroke-width="1" stroke="black" d="M 261 260 237 145"/>
<path stroke-width="1" stroke="black" d="M 261 260 263 297"/>
<path stroke-width="1" stroke="black" d="M 261 260 202 203"/>
<path stroke-width="1" stroke="black" d="M 261 260 305 183"/>
<path stroke-width="1" stroke="black" d="M 242 172 172 143"/>
<path stroke-width="1" stroke="black" d="M 242 172 218 157"/>
<path stroke-width="1" stroke="black" d="M 242 172 250 202"/>
<path stroke-width="1" stroke="black" d="M 242 172 261 260"/>
<path stroke-width="1" stroke="black" d="M 242 172 215 230"/>
<path stroke-width="1" stroke="black" d="M 242 172 287 218"/>
<path stroke-width="1" stroke="black" d="M 242 172 221 234"/>
<path stroke-width="1" stroke="black" d="M 242 172 209 189"/>
<path stroke-width="1" stroke="black" d="M 263 297 261 260"/>
<path stroke-width="1" stroke="black" d="M 242 172 277 129"/>
<path stroke-width="1" stroke="black" d="M 242 172 237 145"/>
<path stroke-width="1" stroke="black" d="M 242 172 202 203"/>
<path stroke-width="1" stroke="black" d="M 242 172 322 226"/>
<path stroke-width="1" stroke="black" d="M 242 172 317 202"/>
<path stroke-width="1" stroke="black" d="M 242 172 296 257"/>
<path stroke-width="1" stroke="black" d="M 242 172 336 206"/>
<path stroke-width="1" stroke="black" d="M 242 172 271 119"/>
<path stroke-width="1" stroke="black" d="M 242 172 231 244"/>
<path stroke-width="1" stroke="black" d="M 242 172 247 139"/>
<path stroke-width="1" stroke="black" d="M 261 260 322 226"/>
<path stroke-width="1" stroke="black" d="M 261 260 296 257"/>
<path stroke-width="1" stroke="black" d="M 215 230 231 244"/>
<path stroke-width="1" stroke="black" d="M 215 230 237 145"/>
<path stroke-width="1" stroke="black" d="M 215 230 202 203"/>
<path stroke-width="1" stroke="black" d="M 215 230 322 226"/>
<path stroke-width="1" stroke="black" d="M 215 230 317 202"/>
<path stroke-width="1" stroke="black" d="M 215 230 296 257"/>
<path stroke-width="1" stroke="black" d="M 215 230 336 206"/>
<path stroke-width="1" stroke="black" d="M 215 230 277 129"/>
<path stroke-width="1" stroke="black" d="M 215 230 271 119"/>
<path stroke-width="1" stroke="black" d="M 314 236 287 218"/>
<path stroke-width="1" stroke="black" d="M 287 218 305 183"/>
<path stroke-width="1" stroke="black" d="M 287 218 292 246"/>
<path stroke-width="1" stroke="black" d="M 287 218 306 151"/>
<path stroke-width="1" stroke="black" d="M 287 218 226 190"/>
<path stroke-width="1" stroke="black" d="M 287 218 284 165"/>
<path stroke-width="1" stroke="black" d="M 287 218 254 231"/>
<path stroke-width="1" stroke="black" d="M 215 230 172 143"/>
<path stroke-width="1" stroke="black" d="M 261 260 317 202"/>
<path stroke-width="1" stroke="black" d="M 215 230 209 189"/>
<path stroke-width="1" stroke="black" d="M 215 230 287 218"/>
<path stroke-width="1" stroke="black" d="M 261 260 336 206"/>
<path stroke-width="1" stroke="black" d="M 261 260 271 119"/>
<path stroke-width="1" stroke="black" d="M 261 260 172 143"/>
<path stroke-width="1" stroke="black" d="M 182 249 215 230"/>
<path stroke-width="1" stroke="black" d="M 215 230 305 183"/>
<path stroke-width="1" stroke="black" d="M 215 230 292 246"/>
<path stroke-width="1" stroke="black" d="M 215 230 306 151"/>
<path stroke-width="1" stroke="black" d="M 215 230 221 234"/>
<path stroke-width="1" stroke="black" d="M 215 230 226 190"/>
<path stroke-width="1" stroke="black" d="M 215 230 254 231"/>
<path stroke-width="1" stroke="black" d="M 215 230 310 159"/>
<path stroke-width="1" stroke="black" d="M 215 230 247 139"/>
<path stroke-width="1" stroke="black" d="M 215 230 218 157"/>
<path stroke-width="1" stroke="black" d="M 215 230 242 172"/>
<path stroke-width="1" stroke="black" d="M 215 230 261 260"/>
<path stroke-width="1" stroke="black" d="M 215 230 182 249"/>
<path stroke-width="1" stroke="black" d="M 215 230 284 165"/>
<path stroke-width="1" stroke="black" d="M 242 172 310 159"/>
<path stroke-width="1" stroke="black" d="M 242 172 254 231"/>
<path stroke-width="1" stroke="black" d="M 242 172 284 165"/>
<path stroke-width="1" stroke="black" d="M 238 107 247 139"/>
<path stroke-width="1" stroke="black" d="M 247 139 305 183"/>
<path stroke-width="1" stroke="black" d="M 247 139 292 246"/>
<path stroke-width="1" stroke="black" d="M 247 139 306 151"/>
<path stroke-width="1" stroke="black" d="M 247 139 226 190"/>
<path stroke-width="1" stroke="black" d="M 247 139 284 165"/>
<path stroke-width="1" stroke="black" d="M 247 139 254 231"/>
<path stroke-width="1" stroke="black" d="M 310 159 172 143"/>
<path stroke-width="1" stroke="black" d="M 247 139 310 159"/>
<path stroke-width="1" stroke="black" d="M 247 139 218 157"/>
<path stroke-width="1" stroke="black" d="M 247 139 242 172"/>
<path stroke-width="1" stroke="black" d="M 247 139 261 260"/>
<path stroke-width="1" stroke="black" d="M 247 139 215 230"/>
<path stroke-width="1" stroke="black" d="M 247 139 287 218"/>
<path stroke-width="1" stroke="black" d="M 247 139 221 234"/>
<path stroke-width="1" stroke="black" d="M 247 139 209 189"/>
<path stroke-width="1" stroke="black" d="M 247 139 238 107"/>
<path stroke-width="1" stroke="black" d="M 247 139 277 129"/>
<path stroke-width="1" stroke="black" d="M 310 159 271 119"/>
<path stroke-width="1" stroke="black" d="M 310 159 296 257"/>
<path stroke-width="1" stroke="black" d="M 310 159 254 231"/>
<path stroke-width="1" stroke="black" d="M 310 159 339 146"/>
<path stroke-width="1" stroke="black" d="M 310 159 247 139"/>
<path stroke-width="1" stroke="black" d="M 310 159 218 157"/>
<path stroke-width="1" stroke="black" d="M 310 159 242 172"/>
<path stroke-width="1" stroke="black" d="M 310 159 261 260"/>
<path stroke-width="1" stroke="black" d="M 310 159 215 230"/>
<path stroke-width="1" stroke="black" d="M 310 159 336 206"/>
<path stroke-width="1" stroke="black" d="M 310 159 287 218"/>
<path stroke-width="1" stroke="black" d="M 310 159 209 189"/>
<path stroke-width="1" stroke="black" d="M 310 159 277 129"/>
<path stroke-width="1" stroke="black" d="M 310 159 231 244"/>
<path stroke-width="1" stroke="black" d="M 310 159 237 145"/>
<path stroke-width="1" stroke="black" d="M 310 159 202 203"/>
<path stroke-width="1" stroke="black" d="M 310 159 322 226"/>
<path stroke-width="1" stroke="black" d="M 310 159 317 202"/>
<path stroke-width="1" stroke="black" d="M 310 159 221 234"/>
<path stroke-width="1" stroke="black" d="M 247 139 231 244"/>
<path stroke-width="1" stroke="black" d="M 247 139 237 145"/>
<path stroke-width="1" stroke="black" d="M 247 139 202 203"/>
<path stroke-width="1" stroke="black" d="M 218 157 209 189"/>
<path stroke-width="1" stroke="black" d="M 218 157 277 129"/>
<path stroke-width="1" stroke="black" d="M 218 157 231 244"/>
<path stroke-width="1" stroke="black" d="M 218 157 237 145"/>
<path stroke-width="1" stroke="black" d="M 218 157 202 203"/>
<path stroke-width="1" stroke="black" d="M 218 157 322 226"/>
<path stroke-width="1" stroke="black" d="M 218 157 317 202"/>
<path stroke-width="1" stroke="black" d="M 218 157 221 234"/>
<path stroke-width="1" stroke="black" d="M 218 157 296 257"/>
<path stroke-width="1" stroke="black" d="M 218 157 271 119"/>
<path stroke-width="1" stroke="black" d="M 218 157 172 143"/>
<path stroke-width="1" stroke="black" d="M 250 202 242 172"/>
<path stroke-width="1" stroke="black" d="M 242 172 305 183"/>
<path stroke-width="1" stroke="black" d="M 242 172 292 246"/>
<path stroke-width="1" stroke="black" d="M 242 172 306 151"/>
<path stroke-width="1" stroke="black" d="M 242 172 226 190"/>
<path stroke-width="1" stroke="black" d="M 218 157 336 206"/>
<path stroke-width="1" stroke="black" d="M 218 157 287 218"/>
<path stroke-width="1" stroke="black" d="M 218 157 215 230"/>
<path stroke-width="1" stroke="black" d="M 218 157 261 260"/>
<path stroke-width="1" stroke="black" d="M 247 139 322 226"/>
<path stroke-width="1" stroke="black" d="M 247 139 317 202"/>
<path stroke-width="1" stroke="black" d="M 247 139 296 257"/>
<path stroke-width="1" stroke="black" d="M 247 139 336 206"/>
<path stroke-width="1" stroke="black" d="M 247 139 271 119"/>
<path stroke-width="1" stroke="black" d="M 247 139 172 143"/>
<path stroke-width="1" stroke="black" d="M 188 143 218 157"/>
<path stroke-width="1" stroke="black" d="M 218 157 305 183"/>
<path stroke-width="1" stroke="black" d="M 218 157 292 246"/>
<path stroke-width="1" stroke="black" d="M 218 157 306 151"/>
<path stroke-width="1" stroke="black" d="M 218 157 226 190"/>
<path stroke-width="1" stroke="black" d="M 218 157 284 165"/>
<path stroke-width="1" stroke="black" d="M 218 157 254 231"/>
<path stroke-width="1" stroke="black" d="M 218 157 310 159"/>
<path stroke-width="1" stroke="black" d="M 218 157 247 139"/>
<path stroke-width="1" stroke="black" d="M 218 157 188 143"/>
<path stroke-width="1" stroke="black" d="M 218 157 242 172"/>
<path stroke-width="1" stroke="black" d="M 310 159 226 190"/>
<path stroke-width="1" stroke="black" d="M 172 143 20 64"/>
<circle cx="330" cy="178" r="7.0" style="fill:green;stroke:black;stroke-width:1.0"/>
<circle cx="305" cy="183" r="7.0" style="fill:green;stroke:black;stroke-width:1.0"/>
<circle cx="308" cy="266" r="7.0" style="fill:brown;stroke:black;stroke-width:1.0"/>
<circle cx="292" cy="246" r="7.0" style="fill:brown;stroke:black;stroke-width:1.0"/>
<circle cx="329" cy="132" r="7.0" style="fill:aqua;stroke:black;stroke-width:1.0"/>
<circle cx="306" cy="151" r="7.0" style="fill:aqua;stroke:black;stroke-width:1.0"/>
<circle cx="198" cy="190" r="7.0" style="fill:olive;stroke:black;stroke-width:1.0"/>
<circle cx="226" cy="190" r="7.0" style="fill:olive;stroke:black;stroke-width:1.0"/>
<circle cx="304" cy="146" r="7.0" style="fill:fuchsia;stroke:black;stroke-width:1.0"/>
<circle cx="284" cy="165" r="7.0" style="fill:fuchsia;stroke:black;stroke-width:1.0"/>
<circle cx="253" cy="255" r="7.0" style="fill:yellow;stroke:black;stroke-width:1.0"/>
<circle cx="254" cy="231" r="7.0" style="fill:yellow;stroke:black;stroke-width:1.0"/>
<circle cx="339" cy="146" r="7.0" style="fill:purple;stroke:black;stroke-width:1.0"/>
<circle cx="310" cy="159" r="7.0" style="fill:purple;stroke:black;stroke-width:1.0"/>
<circle cx="238" cy="107" r="7.0" style="fill:orange;stroke:black;stroke-width:1.0"/>
<circle cx="247" cy="139" r="7.0" style="fill:orange;stroke:black;stroke-width:1.0"/>
<circle cx="188" cy="143" r="7.0" style="fill:green;stroke:black;stroke-width:1.0"/>
<circle cx="218" cy="157" r="7.0" style="fill:green;stroke:black;stroke-width:1.0"/>
<circle cx="250" cy="202" r="7.0" style="fill:blue;stroke:black;stroke-width:1.0"/>
<circle cx="242" cy="172" r="7.0" style="fill:blue;stroke:black;stroke-width:1.0"/>
<circle cx="263" cy="297" r="7.0" style="fill:red;stroke:black;stroke-width:1.0"/>
<circle cx="261" cy="260" r="7.0" style="fill:red;stroke:black;stroke-width:1.0"/>
<circle cx="182" cy="249" r="7.0" style="fill:blue;stroke:black;stroke-width:1.0"/>
<circle cx="215" cy="230" r="7.0" style="fill:blue;stroke:black;stroke-width:1.0"/>
<circle cx="314" cy="236" r="7.0" style="fill:brown;stroke:black;stroke-width:1.0"/>
<circle cx="287" cy="218" r="7.0" style="fill:brown;stroke:black;stroke-width:1.0"/>
<circle cx="188" cy="257" r="7.0" style="fill:aqua;stroke:black;stroke-width:1.0"/>
<circle cx="221" cy="234" r="7.0" style="fill:aqua;stroke:black;stroke-width:1.0"/>
<circle cx="168" cy="187" r="7.0" style="fill:olive;stroke:black;stroke-width:1.0"/>
<circle cx="209" cy="189" r="7.0" style="fill:olive;stroke:black;stroke-width:1.0"/>
<circle cx="293" cy="86" r="7.0" style="fill:red;stroke:black;stroke-width:1.0"/>
<circle cx="277" cy="129" r="7.0" style="fill:red;stroke:black;stroke-width:1.0"/>
<circle cx="206" cy="285" r="7.0" style="fill:fuchsia;stroke:black;stroke-width:1.0"/>
<circle cx="231" cy="244" r="7.0" style="fill:fuchsia;stroke:black;stroke-width:1.0"/>
<circle cx="207" cy="111" r="7.0" style="fill:yellow;stroke:black;stroke-width:1.0"/>
<circle cx="237" cy="145" r="7.0" style="fill:yellow;stroke:black;stroke-width:1.0"/>
<circle cx="151" cy="212" r="7.0" style="fill:red;stroke:black;stroke-width:1.0"/>
<circle cx="202" cy="203" r="7.0" style="fill:red;stroke:black;stroke-width:1.0"/>
<circle cx="371" cy="248" r="7.0" style="fill:purple;stroke:black;stroke-width:1.0"/>
<circle cx="322" cy="226" r="7.0" style="fill:purple;stroke:black;stroke-width:1.0"/>
<circle cx="377" cy="205" r="7.0" style="fill:blue;stroke:black;stroke-width:1.0"/>
<circle cx="317" cy="202" r="7.0" style="fill:blue;stroke:black;stroke-width:1.0"/>
<circle cx="334" cy="320" r="7.0" style="fill:orange;stroke:black;stroke-width:1.0"/>
<circle cx="296" cy="257" r="7.0" style="fill:orange;stroke:black;stroke-width:1.0"/>
<circle cx="420" cy="214" r="7.0" style="fill:blue;stroke:black;stroke-width:1.0"/>
<circle cx="336" cy="206" r="7.0" style="fill:blue;stroke:black;stroke-width:1.0"/>
<circle cx="274" cy="20" r="7.0" style="fill:blue;stroke:black;stroke-width:1.0"/>
<circle cx="271" cy="119" r="7.0" style="fill:blue;stroke:black;stroke-width:1.0"/>
<circle cx="20" cy="64" r="7.0" style="fill:red;stroke:black;stroke-width:1.0"/>
<circle cx="172" cy="143" r="7.0" style="fill:red;stroke:black;stroke-width:1.0"/>
</svg>
