<svg width="440" height="340" xmlns="http://www.w3.org/2000/svg">
<path stroke-width="1" stroke="black" d="M 237 88 238 113"/>
<path stroke-width="1" stroke="black" d="M 222 195 207 113"/>
<path stroke-width="1" stroke="black" d="M 222 195 264 98"/>
<path stroke-width="1" stroke="black" d="M 222 195 263 179"/>
<path stroke-width="1" stroke="black" d="M 222 195 251 203"/>
<path stroke-width="1" stroke="black" d="M 222 195 186 90"/>
<path stroke-width="1" stroke="black" d="M 222 195 169 118"/>
<path stroke-width="1" stroke="black" d="M 222 195 184 193"/>
<path stroke-width="1" stroke="black" d="M 222 195 175 151"/>
<path stroke-width="1" stroke="black" d="M 222 195 144 138"/>
<path stroke-width="1" stroke="black" d="M 222 195 296 121"/>
<path stroke-width="1" stroke="black" d="M 222 195 200 236"/>
<path stroke-width="1" stroke="black" d="M 222 195 300 164"/>
<path stroke-width="1" stroke="black" d="M 222 195 143 157"/>
<path stroke-width="1" stroke="black" d="M 222 195 305 136"/>
<path stroke-width="1" stroke="black" d="M 222 195 322 142"/>
<path stroke-width="1" stroke="black" d="M 222 195 220 80"/>
<path stroke-width="1" stroke="black" d="M 222 195 283 196"/>
<path stroke-width="1" stroke="black" d="M 222 195 255 88"/>
<path stroke-width="1" stroke="black" d="M 222 195 212 175"/>
<path stroke-width="1" stroke="black" d="M 222 195 293 106"/>
<path stroke-width="1" stroke="black" d="M 296 121 184 193"/>
<path stroke-width="1" stroke="black" d="M 296 121 144 138"/>
<path stroke-width="1" stroke="black" d="M 296 121 283 196"/>
<path stroke-width="1" stroke="black" d="M 296 121 356 106"/>
<path stroke-width="1" stroke="black" d="M 296 121 222 195"/>
<path stroke-width="1" stroke="black" d="M 296 121 300 164"/>
<path stroke-width="1" stroke="black" d="M 296 121 143 157"/>
<path stroke-width="1" stroke="black" d="M 222 195 304 175"/>
<path stroke-width="1" stroke="black" d="M 296 121 305 136"/>
<path stroke-width="1" stroke="black" d="M 296 121 220 80"/>
<path stroke-width="1" stroke="black" d="M 296 121 255 88"/>
<path stroke-width="1" stroke="black" d="M 296 121 147 128"/>
<path stroke-width="1" stroke="black" d="M 296 121 203 217"/>
<path stroke-width="1" stroke="black" d="M 200 236 222 195"/>
<path stroke-width="1" stroke="black" d="M 222 195 238 113"/>
<path stroke-width="1" stroke="black" d="M 222 195 173 165"/>
<path stroke-width="1" stroke="black" d="M 296 121 322 142"/>
<path stroke-width="1" stroke="black" d="M 296 121 169 118"/>
<path stroke-width="1" stroke="black" d="M 222 195 147 128"/>
<path stroke-width="1" stroke="black" d="M 371 177 300 164"/>
<path stroke-width="1" stroke="black" d="M 300 164 322 142"/>
<path stroke-width="1" stroke="black" d="M 300 164 220 80"/>
<path stroke-width="1" stroke="black" d="M 300 164 255 88"/>
<path stroke-width="1" stroke="black" d="M 300 164 147 128"/>
<path stroke-width="1" stroke="black" d="M 300 164 203 217"/>
<path stroke-width="1" stroke="black" d="M 69 165 143 157"/>
<path stroke-width="1" stroke="black" d="M 143 157 238 113"/>
<path stroke-width="1" stroke="black" d="M 300 164 305 136"/>
<path stroke-width="1" stroke="black" d="M 143 157 173 165"/>
<path stroke-width="1" stroke="black" d="M 143 157 304 175"/>
<path stroke-width="1" stroke="black" d="M 143 157 212 175"/>
<path stroke-width="1" stroke="black" d="M 143 157 175 151"/>
<path stroke-width="1" stroke="black" d="M 143 157 207 113"/>
<path stroke-width="1" stroke="black" d="M 143 157 264 98"/>
<path stroke-width="1" stroke="black" d="M 143 157 263 179"/>
<path stroke-width="1" stroke="black" d="M 143 157 251 203"/>
<path stroke-width="1" stroke="black" d="M 143 157 293 106"/>
<path stroke-width="1" stroke="black" d="M 222 195 203 217"/>
<path stroke-width="1" stroke="black" d="M 300 164 143 157"/>
<path stroke-width="1" stroke="black" d="M 300 164 222 195"/>
<path stroke-width="1" stroke="black" d="M 300 164 238 113"/>
<path stroke-width="1" stroke="black" d="M 300 164 173 165"/>
<path stroke-width="1" stroke="black" d="M 300 164 293 106"/>
<path stroke-width="1" stroke="black" d="M 300 164 304 175"/>
<path stroke-width="1" stroke="black" d="M 300 164 212 175"/>
<path stroke-width="1" stroke="black" d="M 300 164 175 151"/>
<path stroke-width="1" stroke="black" d="M 300 164 207 113"/>
<path stroke-width="1" stroke="black" d="M 300 164 371 177"/>
<path stroke-width="1" stroke="black" d="M 300 164 264 98"/>
<path stroke-width="1" stroke="black" d="M 300 164 251 203"/>
<path stroke-width="1" stroke="black" d="M 300 164 186 90"/>
<path stroke-width="1" stroke="black" d="M 300 164 169 118"/>
<path stroke-width="1" stroke="black" d="M 300 164 184 193"/>
<path stroke-width="1" stroke="black" d="M 300 164 144 138"/>
<path stroke-width="1" stroke="black" d="M 300 164 283 196"/>
<path stroke-width="1" stroke="black" d="M 300 164 296 121"/>
<path stroke-width="1" stroke="black" d="M 300 164 263 179"/>
<path stroke-width="1" stroke="black" d="M 143 157 186 90"/>
<path stroke-width="1" stroke="black" d="M 296 121 186 90"/>
<path stroke-width="1" stroke="black" d="M 296 121 263 179"/>
<path stroke-width="1" stroke="black" d="M 144 138 212 175"/>
<path stroke-width="1" stroke="black" d="M 144 138 175 151"/>
<path stroke-width="1" stroke="black" d="M 144 138 207 113"/>
<path stroke-width="1" stroke="black" d="M 144 138 264 98"/>
<path stroke-width="1" stroke="black" d="M 144 138 263 179"/>
<path stroke-width="1" stroke="black" d="M 144 138 251 203"/>
<path stroke-width="1" stroke="black" d="M 144 138 186 90"/>
<path stroke-width="1" stroke="black" d="M 144 138 304 175"/>
<path stroke-width="1" stroke="black" d="M 144 138 169 118"/>
<path stroke-width="1" stroke="black" d="M 144 138 86 135"/>
<path stroke-width="1" stroke="black" d="M 144 138 283 196"/>
<path stroke-width="1" stroke="black" d="M 144 138 296 121"/>
<path stroke-width="1" stroke="black" d="M 144 138 222 195"/>
<path stroke-width="1" stroke="black" d="M 144 138 300 164"/>
<path stroke-width="1" stroke="black" d="M 144 138 143 157"/>
<path stroke-width="1" stroke="black" d="M 144 138 305 136"/>
<path stroke-width="1" stroke="black" d="M 144 138 184 193"/>
<path stroke-width="1" stroke="black" d="M 144 138 322 142"/>
<path stroke-width="1" stroke="black" d="M 144 138 293 106"/>
<path stroke-width="1" stroke="black" d="M 144 138 238 113"/>
<path stroke-width="1" stroke="black" d="M 184 193 186 90"/>
<path stroke-width="1" stroke="black" d="M 184 193 169 118"/>
<path stroke-width="1" stroke="black" d="M 184 193 147 219"/>
<path stroke-width="1" stroke="black" d="M 184 193 144 138"/>
<path stroke-width="1" stroke="black" d="M 184 193 283 196"/>
<path stroke-width="1" stroke="black" d="M 184 193 296 121"/>
<path stroke-width="1" stroke="black" d="M 184 193 222 195"/>
<path stroke-width="1" stroke="black" d="M 144 138 173 165"/>
<path stroke-width="1" stroke="black" d="M 184 193 300 164"/>
<path stroke-width="1" stroke="black" d="M 184 193 305 136"/>
<path stroke-width="1" stroke="black" d="M 184 193 322 142"/>
<path stroke-width="1" stroke="black" d="M 184 193 220 80"/>
<path stroke-width="1" stroke="black" d="M 184 193 255 88"/>
<path stroke-width="1" stroke="black" d="M 184 193 147 128"/>
<path stroke-width="1" stroke="black" d="M 184 193 203 217"/>
<path stroke-width="1" stroke="black" d="M 86 135 144 138"/>
<path stroke-width="1" stroke="black" d="M 184 193 143 157"/>
<path stroke-width="1" stroke="black" d="M 296 121 251 203"/>
<path stroke-width="1" stroke="black" d="M 144 138 220 80"/>
<path stroke-width="1" stroke="black" d="M 144 138 147 128"/>
<path stroke-width="1" stroke="black" d="M 283 196 143 157"/>
<path stroke-width="1" stroke="black" d="M 283 196 305 136"/>
<path stroke-width="1" stroke="black" d="M 283 196 322 142"/>
<path stroke-width="1" stroke="black" d="M 283 196 220 80"/>
<path stroke-width="1" stroke="black" d="M 283 196 255 88"/>
<path stroke-width="1" stroke="black" d="M 283 196 147 128"/>
<path stroke-width="1" stroke="black" d="M 283 196 203 217"/>
<path stroke-width="1" stroke="black" d="M 283 196 300 164"/>
<path stroke-width="1" stroke="black" d="M 356 106 296 121"/>
<path stroke-width="1" stroke="black" d="M 296 121 173 165"/>
<path stroke-width="1" stroke="black" d="M 296 121 293 106"/>
<path stroke-width="1" stroke="black" d="M 296 121 304 175"/>
<path stroke-width="1" stroke="black" d="M 296 121 212 175"/>
<path stroke-width="1" stroke="black" d="M 296 121 175 151"/>
<path stroke-width="1" stroke="black" d="M 296 121 207 113"/>
<path stroke-width="1" stroke="black" d="M 296 121 264 98"/>
<path stroke-width="1" stroke="black" d="M 296 121 238 113"/>
<path stroke-width="1" stroke="black" d="M 144 138 255 88"/>
<path stroke-width="1" stroke="black" d="M 283 196 222 195"/>
<path stroke-width="1" stroke="black" d="M 283 196 329 220"/>
<path stroke-width="1" stroke="black" d="M 144 138 203 217"/>
<path stroke-width="1" stroke="black" d="M 329 220 283 196"/>
<path stroke-width="1" stroke="black" d="M 283 196 238 113"/>
<path stroke-width="1" stroke="black" d="M 283 196 173 165"/>
<path stroke-width="1" stroke="black" d="M 283 196 293 106"/>
<path stroke-width="1" stroke="black" d="M 283 196 304 175"/>
<path stroke-width="1" stroke="black" d="M 283 196 212 175"/>
<path stroke-width="1" stroke="black" d="M 283 196 296 121"/>
<path stroke-width="1" stroke="black" d="M 283 196 175 151"/>
<path stroke-width="1" stroke="black" d="M 283 196 264 98"/>
<path stroke-width="1" stroke="black" d="M 283 196 263 179"/>
<path stroke-width="1" stroke="black" d="M 283 196 251 203"/>
<path stroke-width="1" stroke="black" d="M 283 196 186 90"/>
<path stroke-width="1" stroke="black" d="M 283 196 169 118"/>
<path stroke-width="1" stroke="black" d="M 283 196 184 193"/>
<path stroke-width="1" stroke="black" d="M 283 196 144 138"/>
<path stroke-width="1" stroke="black" d="M 283 196 207 113"/>
<path stroke-width="1" stroke="black" d="M 143 157 169 118"/>
<path stroke-width="1" stroke="black" d="M 143 157 184 193"/>
<path stroke-width="1" stroke="black" d="M 143 157 144 138"/>
<path stroke-width="1" stroke="black" d="M 255 88 144 138"/>
<path stroke-width="1" stroke="black" d="M 255 88 283 196"/>
<path stroke-width="1" stroke="black" d="M 255 88 296 121"/>
<path stroke-width="1" stroke="black" d="M 255 88 222 195"/>
<path stroke-width="1" stroke="black" d="M 255 88 300 164"/>
<path stroke-width="1" stroke="black" d="M 255 88 143 157"/>
<path stroke-width="1" stroke="black" d="M 255 88 305 136"/>
<path stroke-width="1" stroke="black" d="M 255 88 184 193"/>
<path stroke-width="1" stroke="black" d="M 255 88 322 142"/>
<path stroke-width="1" stroke="black" d="M 255 88 300 22"/>
<path stroke-width="1" stroke="black" d="M 255 88 147 128"/>
<path stroke-width="1" stroke="black" d="M 20 117 147 128"/>
<path stroke-width="1" stroke="black" d="M 147 128 238 113"/>
<path stroke-width="1" stroke="black" d="M 147 128 173 165"/>
<path stroke-width="1" stroke="black" d="M 147 128 293 106"/>
<path stroke-width="1" stroke="black" d="M 147 128 304 175"/>
<path stroke-width="1" stroke="black" d="M 255 88 220 80"/>
<path stroke-width="1" stroke="black" d="M 147 128 212 175"/>
<path stroke-width="1" stroke="black" d="M 255 88 169 118"/>
<path stroke-width="1" stroke="black" d="M 255 88 251 203"/>
<path stroke-width="1" stroke="black" d="M 220 80 143 157"/>
<path stroke-width="1" stroke="black" d="M 220 80 305 136"/>
<path stroke-width="1" stroke="black" d="M 220 80 322 142"/>
<path stroke-width="1" stroke="black" d="M 220 80 191 20"/>
<path stroke-width="1" stroke="black" d="M 220 80 255 88"/>
<path stroke-width="1" stroke="black" d="M 220 80 147 128"/>
<path stroke-width="1" stroke="black" d="M 300 22 255 88"/>
<path stroke-width="1" stroke="black" d="M 255 88 186 90"/>
<path stroke-width="1" stroke="black" d="M 255 88 238 113"/>
<path stroke-width="1" stroke="black" d="M 255 88 293 106"/>
<path stroke-width="1" stroke="black" d="M 255 88 304 175"/>
<path stroke-width="1" stroke="black" d="M 255 88 212 175"/>
<path stroke-width="1" stroke="black" d="M 255 88 175 151"/>
<path stroke-width="1" stroke="black" d="M 255 88 207 113"/>
<path stroke-width="1" stroke="black" d="M 255 88 264 98"/>
<path stroke-width="1" stroke="black" d="M 255 88 263 179"/>
<path stroke-width="1" stroke="black" d="M 255 88 173 165"/>
<path stroke-width="1" stroke="black" d="M 220 80 300 164"/>
<path stroke-width="1" stroke="black" d="M 147 128 175 151"/>
<path stroke-width="1" stroke="black" d="M 147 128 264 98"/>
<path stroke-width="1" stroke="black" d="M 203 217 304 175"/>
<path stroke-width="1" stroke="black" d="M 203 217 212 175"/>
<path stroke-width="1" stroke="black" d="M 203 217 175 151"/>
<path stroke-width="1" stroke="black" d="M 203 217 207 113"/>
<path stroke-width="1" stroke="black" d="M 203 217 264 98"/>
<path stroke-width="1" stroke="black" d="M 203 217 263 179"/>
<path stroke-width="1" stroke="black" d="M 203 217 251 203"/>
<path stroke-width="1" stroke="black" d="M 203 217 293 106"/>
<path stroke-width="1" stroke="black" d="M 203 217 186 90"/>
<path stroke-width="1" stroke="black" d="M 203 217 184 193"/>
<path stroke-width="1" stroke="black" d="M 203 217 144 138"/>
<path stroke-width="1" stroke="black" d="M 203 217 283 196"/>
<path stroke-width="1" stroke="black" d="M 203 217 296 121"/>
<path stroke-width="1" stroke="black" d="M 203 217 222 195"/>
<path stroke-width="1" stroke="black" d="M 203 217 300 164"/>
<path stroke-width="1" stroke="black" d="M 203 217 143 157"/>
<path stroke-width="1" stroke="black" d="M 203 217 169 118"/>
<path stroke-width="1" stroke="black" d="M 147 128 207 113"/>
<path stroke-width="1" stroke="black" d="M 203 217 173 165"/>
<path stroke-width="1" stroke="black" d="M 136 320 203 217"/>
<path stroke-width="1" stroke="black" d="M 147 128 263 179"/>
<path stroke-width="1" stroke="black" d="M 147 128 251 203"/>
<path stroke-width="1" stroke="black" d="M 147 128 186 90"/>
<path stroke-width="1" stroke="black" d="M 147 128 169 118"/>
<path stroke-width="1" stroke="black" d="M 147 128 184 193"/>
<path stroke-width="1" stroke="black" d="M 147 128 144 138"/>
<path stroke-width="1" stroke="black" d="M 147 128 283 196"/>
<path stroke-width="1" stroke="black" d="M 203 217 238 113"/>
<path stroke-width="1" stroke="black" d="M 147 128 296 121"/>
<path stroke-width="1" stroke="black" d="M 147 128 300 164"/>
<path stroke-width="1" stroke="black" d="M 147 128 143 157"/>
<path stroke-width="1" stroke="black" d="M 147 128 305 136"/>
<path stroke-width="1" stroke="black" d="M 147 128 322 142"/>
<path stroke-width="1" stroke="black" d="M 147 128 220 80"/>
<path stroke-width="1" stroke="black" d="M 147 128 255 88"/>
<path stroke-width="1" stroke="black" d="M 147 128 20 117"/>
<path stroke-width="1" stroke="black" d="M 147 128 222 195"/>
<path stroke-width="1" stroke="black" d="M 220 80 222 195"/>
<path stroke-width="1" stroke="black" d="M 220 80 296 121"/>
<path stroke-width="1" stroke="black" d="M 220 80 283 196"/>
<path stroke-width="1" stroke="black" d="M 305 136 263 179"/>
<path stroke-width="1" stroke="black" d="M 305 136 251 203"/>
<path stroke-width="1" stroke="black" d="M 305 136 186 90"/>
<path stroke-width="1" stroke="black" d="M 305 136 169 118"/>
<path stroke-width="1" stroke="black" d="M 305 136 184 193"/>
<path stroke-width="1" stroke="black" d="M 305 136 144 138"/>
<path stroke-width="1" stroke="black" d="M 305 136 283 196"/>
<path stroke-width="1" stroke="black" d="M 305 136 264 98"/>
<path stroke-width="1" stroke="black" d="M 305 136 296 121"/>
<path stroke-width="1" stroke="black" d="M 305 136 300 164"/>
<path stroke-width="1" stroke="black" d="M 305 136 143 157"/>
<path stroke-width="1" stroke="black" d="M 305 136 386 128"/>
<path stroke-width="1" stroke="black" d="M 305 136 322 142"/>
<path stroke-width="1" stroke="black" d="M 305 136 220 80"/>
<path stroke-width="1" stroke="black" d="M 305 136 255 88"/>
<path stroke-width="1" stroke="black" d="M 305 136 147 128"/>
<path stroke-width="1" stroke="black" d="M 305 136 222 195"/>
<path stroke-width="1" stroke="black" d="M 305 136 203 217"/>
<path stroke-width="1" stroke="black" d="M 305 136 207 113"/>
<path stroke-width="1" stroke="black" d="M 305 136 212 175"/>
<path stroke-width="1" stroke="black" d="M 143 157 283 196"/>
<path stroke-width="1" stroke="black" d="M 143 157 296 121"/>
<path stroke-width="1" stroke="black" d="M 143 157 222 195"/>
<path stroke-width="1" stroke="black" d="M 143 157 300 164"/>
<path stroke-width="1" stroke="black" d="M 143 157 69 165"/>
<path stroke-width="1" stroke="black" d="M 143 157 305 136"/>
<path stroke-width="1" stroke="black" d="M 143 157 322 142"/>
<path stroke-width="1" stroke="black" d="M 305 136 175 151"/>
<path stroke-width="1" stroke="black" d="M 143 157 220 80"/>
<path stroke-width="1" stroke="black" d="M 143 157 147 128"/>
<path stroke-width="1" stroke="black" d="M 143 157 203 217"/>
<path stroke-width="1" stroke="black" d="M 386 128 305 136"/>
<path stroke-width="1" stroke="black" d="M 305 136 238 113"/>
<path stroke-width="1" stroke="black" d="M 305 136 173 165"/>
<path stroke-width="1" stroke="black" d="M 305 136 293 106"/>
<path stroke-width="1" stroke="black" d="M 305 136 304 175"/>
<path stroke-width="1" stroke="black" d="M 143 157 255 88"/>
<path stroke-width="1" stroke="black" d="M 420 143 322 142"/>
<path stroke-width="1" stroke="black" d="M 322 142 238 113"/>
<path stroke-width="1" stroke="black" d="M 322 142 173 165"/>
<path stroke-width="1" stroke="black" d="M 322 142 147 128"/>
<path stroke-width="1" stroke="black" d="M 191 20 220 80"/>
<path stroke-width="1" stroke="black" d="M 220 80 238 113"/>
<path stroke-width="1" stroke="black" d="M 220 80 173 165"/>
<path stroke-width="1" stroke="black" d="M 220 80 293 106"/>
<path stroke-width="1" stroke="black" d="M 220 80 304 175"/>
<path stroke-width="1" stroke="black" d="M 220 80 212 175"/>
<path stroke-width="1" stroke="black" d="M 322 142 255 88"/>
<path stroke-width="1" stroke="black" d="M 220 80 175 151"/>
<path stroke-width="1" stroke="black" d="M 220 80 264 98"/>
<path stroke-width="1" stroke="black" d="M 220 80 263 179"/>
<path stroke-width="1" stroke="black" d="M 220 80 251 203"/>
<path stroke-width="1" stroke="black" d="M 220 80 186 90"/>
<path stroke-width="1" stroke="black" d="M 220 80 169 118"/>
<path stroke-width="1" stroke="black" d="M 220 80 184 193"/>
<path stroke-width="1" stroke="black" d="M 220 80 144 138"/>
<path stroke-width="1" stroke="black" d="M 220 80 207 113"/>
<path stroke-width="1" stroke="black" d="M 322 142 220 80"/>
<path stroke-width="1" stroke="black" d="M 322 142 420 143"/>
<path stroke-width="1" stroke="black" d="M 322 142 305 136"/>
<path stroke-width="1" stroke="black" d="M 322 142 293 106"/>
<path stroke-width="1" stroke="black" d="M 322 142 304 175"/>
<path stroke-width="1" stroke="black" d="M 322 142 212 175"/>
<path stroke-width="1" stroke="black" d="M 322 142 175 151"/>
<path stroke-width="1" stroke="black" d="M 322 142 207 113"/>
<path stroke-width="1" stroke="black" d="M 322 142 264 98"/>
<path stroke-width="1" stroke="black" d="M 322 142 263 179"/>
<path stroke-width="1" stroke="black" d="M 322 142 251 203"/>
<path stroke-width="1" stroke="black" d="M 322 142 186 90"/>
<path stroke-width="1" stroke="black" d="M 322 142 169 118"/>
<path stroke-width="1" stroke="black" d="M 322 142 184 193"/>
<path stroke-width="1" stroke="black" d="M 322 142 144 138"/>
<path stroke-width="1" stroke="black" d="M 322 142 283 196"/>
<path stroke-width="1" stroke="black" d="M 322 142 296 121"/>
<path stroke-width="1" stroke="black" d="M 322 142 222 195"/>
<path stroke-width="1" stroke="black" d="M 322 142 300 164"/>
<path stroke-width="1" stroke="black" d="M 322 142 143 157"/>
<path stroke-width="1" stroke="black" d="M 184 193 251 203"/>
<path stroke-width="1" stroke="black" d="M 184 193 263 179"/>
<path stroke-width="1" stroke="black" d="M 184 193 264 98"/>
<path stroke-width="1" stroke="black" d="M 184 193 207 113"/>
<path stroke-width="1" stroke="black" d="M 304 175 147 128"/>
<path stroke-width="1" stroke="black" d="M 304 175 203 217"/>
<path stroke-width="1" stroke="black" d="M 183 190 212 175"/>
<path stroke-width="1" stroke="black" d="M 212 175 238 113"/>
<path stroke-width="1" stroke="black" d="M 212 175 173 165"/>
<path stroke-width="1" stroke="black" d="M 212 175 293 106"/>
<path stroke-width="1" stroke="black" d="M 212 175 304 175"/>
<path stroke-width="1" stroke="black" d="M 304 175 255 88"/>
<path stroke-width="1" stroke="black" d="M 212 175 183 190"/>
<path stroke-width="1" stroke="black" d="M 212 175 207 113"/>
<path stroke-width="1" stroke="black" d="M 212 175 264 98"/>
<path stroke-width="1" stroke="black" d="M 212 175 263 179"/>
<path stroke-width="1" stroke="black" d="M 212 175 251 203"/>
<path stroke-width="1" stroke="black" d="M 212 175 186 90"/>
<path stroke-width="1" stroke="black" d="M 212 175 169 118"/>
<path stroke-width="1" stroke="black" d="M 212 175 184 193"/>
<path stroke-width="1" stroke="black" d="M 212 175 175 151"/>
<path stroke-width="1" stroke="black" d="M 212 175 144 138"/>
<path stroke-width="1" stroke="black" d="M 304 175 220 80"/>
<path stroke-width="1" stroke="black" d="M 304 175 305 136"/>
<path stroke-width="1" stroke="black" d="M 304 175 336 177"/>
<path stroke-width="1" stroke="black" d="M 304 175 212 175"/>
<path stroke-width="1" stroke="black" d="M 304 175 175 151"/>
<path stroke-width="1" stroke="black" d="M 304 175 207 113"/>
<path stroke-width="1" stroke="black" d="M 304 175 264 98"/>
<path stroke-width="1" stroke="black" d="M 304 175 263 179"/>
<path stroke-width="1" stroke="black" d="M 304 175 251 203"/>
<path stroke-width="1" stroke="black" d="M 304 175 322 142"/>
<path stroke-width="1" stroke="black" d="M 304 175 186 90"/>
<path stroke-width="1" stroke="black" d="M 304 175 184 193"/>
<path stroke-width="1" stroke="black" d="M 304 175 144 138"/>
<path stroke-width="1" stroke="black" d="M 304 175 283 196"/>
<path stroke-width="1" stroke="black" d="M 304 175 296 121"/>
<path stroke-width="1" stroke="black" d="M 304 175 222 195"/>
<path stroke-width="1" stroke="black" d="M 304 175 300 164"/>
<path stroke-width="1" stroke="black" d="M 304 175 143 157"/>
<path stroke-width="1" stroke="black" d="M 304 175 169 118"/>
<path stroke-width="1" stroke="black" d="M 304 175 293 106"/>
<path stroke-width="1" stroke="black" d="M 212 175 283 196"/>
<path stroke-width="1" stroke="black" d="M 212 175 222 195"/>
<path stroke-width="1" stroke="black" d="M 175 151 169 118"/>
<path stroke-width="1" stroke="black" d="M 175 151 184 193"/>
<path stroke-width="1" stroke="black" d="M 175 151 144 138"/>
<path stroke-width="1" stroke="black" d="M 175 151 283 196"/>
<path stroke-width="1" stroke="black" d="M 175 151 296 121"/>
<path stroke-width="1" stroke="black" d="M 175 151 222 195"/>
<path stroke-width="1" stroke="black" d="M 175 151 300 164"/>
<path stroke-width="1" stroke="black" d="M 175 151 186 90"/>
<path stroke-width="1" stroke="black" d="M 175 151 143 157"/>
<path stroke-width="1" stroke="black" d="M 175 151 322 142"/>
<path stroke-width="1" stroke="black" d="M 175 151 220 80"/>
<path stroke-width="1" stroke="black" d="M 175 151 255 88"/>
<path stroke-width="1" stroke="black" d="M 175 151 147 128"/>
<path stroke-width="1" stroke="black" d="M 175 151 203 217"/>
<path stroke-width="1" stroke="black" d="M 178 91 207 113"/>
<path stroke-width="1" stroke="black" d="M 207 113 238 113"/>
<path stroke-width="1" stroke="black" d="M 175 151 305 136"/>
<path stroke-width="1" stroke="black" d="M 212 175 296 121"/>
<path stroke-width="1" stroke="black" d="M 175 151 251 203"/>
<path stroke-width="1" stroke="black" d="M 175 151 264 98"/>
<path stroke-width="1" stroke="black" d="M 212 175 300 164"/>
<path stroke-width="1" stroke="black" d="M 212 175 143 157"/>
<path stroke-width="1" stroke="black" d="M 212 175 305 136"/>
<path stroke-width="1" stroke="black" d="M 212 175 322 142"/>
<path stroke-width="1" stroke="black" d="M 212 175 220 80"/>
<path stroke-width="1" stroke="black" d="M 212 175 255 88"/>
<path stroke-width="1" stroke="black" d="M 212 175 147 128"/>
<path stroke-width="1" stroke="black" d="M 175 151 263 179"/>
<path stroke-width="1" stroke="black" d="M 212 175 203 217"/>
<path stroke-width="1" stroke="black" d="M 175 151 238 113"/>
<path stroke-width="1" stroke="black" d="M 175 151 173 165"/>
<path stroke-width="1" stroke="black" d="M 175 151 293 106"/>
<path stroke-width="1" stroke="black" d="M 175 151 304 175"/>
<path stroke-width="1" stroke="black" d="M 175 151 212 175"/>
<path stroke-width="1" stroke="black" d="M 175 151 174 157"/>
<path stroke-width="1" stroke="black" d="M 175 151 207 113"/>
<path stroke-width="1" stroke="black" d="M 174 157 175 151"/>
<path stroke-width="1" stroke="black" d="M 304 175 173 165"/>
<path stroke-width="1" stroke="black" d="M 304 175 238 113"/>
<path stroke-width="1" stroke="black" d="M 336 177 304 175"/>
<path stroke-width="1" stroke="black" d="M 238 113 322 142"/>
<path stroke-width="1" stroke="black" d="M 238 113 220 80"/>
<path stroke-width="1" stroke="black" d="M 238 113 255 88"/>
<path stroke-width="1" stroke="black" d="M 238 113 147 128"/>
<path stroke-width="1" stroke="black" d="M 238 113 203 217"/>
<path stroke-width="1" stroke="black" d="M 140 169 173 165"/>
<path stroke-width="1" stroke="black" d="M 173 165 238 113"/>
<path stroke-width="1" stroke="black" d="M 238 113 305 136"/>
<path stroke-width="1" stroke="black" d="M 173 165 140 169"/>
<path stroke-width="1" stroke="black" d="M 173 165 304 175"/>
<path stroke-width="1" stroke="black" d="M 173 165 212 175"/>
<path stroke-width="1" stroke="black" d="M 173 165 175 151"/>
<path stroke-width="1" stroke="black" d="M 173 165 207 113"/>
<path stroke-width="1" stroke="black" d="M 173 165 264 98"/>
<path stroke-width="1" stroke="black" d="M 173 165 263 179"/>
<path stroke-width="1" stroke="black" d="M 173 165 251 203"/>
<path stroke-width="1" stroke="black" d="M 173 165 293 106"/>
<path stroke-width="1" stroke="black" d="M 173 165 186 90"/>
<path stroke-width="1" stroke="black" d="M 238 113 143 157"/>
<path stroke-width="1" stroke="black" d="M 238 113 222 195"/>
<path stroke-width="1" stroke="black" d="M 238 113 237 88"/>
<path stroke-width="1" stroke="black" d="M 238 113 173 165"/>
<path stroke-width="1" stroke="black" d="M 238 113 293 106"/>
<path stroke-width="1" stroke="black" d="M 238 113 304 175"/>
<path stroke-width="1" stroke="black" d="M 238 113 212 175"/>
<path stroke-width="1" stroke="black" d="M 238 113 175 151"/>
<path stroke-width="1" stroke="black" d="M 238 113 207 113"/>
<path stroke-width="1" stroke="black" d="M 238 113 300 164"/>
<path stroke-width="1" stroke="black" d="M 238 113 264 98"/>
<path stroke-width="1" stroke="black" d="M 238 113 251 203"/>
<path stroke-width="1" stroke="black" d="M 238 113 186 90"/>
<path stroke-width="1" stroke="black" d="M 238 113 169 118"/>
<path stroke-width="1" stroke="black" d="M 238 113 184 193"/>
<path stroke-width="1" stroke="black" d="M 238 113 144 138"/>
<path stroke-width="1" stroke="black" d="M 238 113 283 196"/>
<path stroke-width="1" stroke="black" d="M 238 113 296 121"/>
<path stroke-width="1" stroke="black" d="M 238 113 263 179"/>
<path stroke-width="1" stroke="black" d="M 173 165 169 118"/>
<path stroke-width="1" stroke="black" d="M 173 165 184 193"/>
<path stroke-width="1" stroke="black" d="M 173 165 144 138"/>
<path stroke-width="1" stroke="black" d="M 293 106 251 203"/>
<path stroke-width="1" stroke="black" d="M 293 106 186 90"/>
<path stroke-width="1" stroke="black" d="M 293 106 169 118"/>
<path stroke-width="1" stroke="black" d="M 293 106 184 193"/>
<path stroke-width="1" stroke="black" d="M 293 106 144 138"/>
<path stroke-width="1" stroke="black" d="M 293 106 283 196"/>
<path stroke-width="1" stroke="black" d="M 293 106 296 121"/>
<path stroke-width="1" stroke="black" d="M 293 106 263 179"/>
<path stroke-width="1" stroke="black" d="M 293 106 222 195"/>
<path stroke-width="1" stroke="black" d="M 293 106 143 157"/>
<path stroke-width="1" stroke="black" d="M 293 106 305 136"/>
<path stroke-width="1" stroke="black" d="M 293 106 322 142"/>
<path stroke-width="1" stroke="black" d="M 293 106 220 80"/>
<path stroke-width="1" stroke="black" d="M 293 106 255 88"/>
<path stroke-width="1" stroke="black" d="M 293 106 147 128"/>
<path stroke-width="1" stroke="black" d="M 293 106 203 217"/>
<path stroke-width="1" stroke="black" d="M 293 106 300 164"/>
<path stroke-width="1" stroke="black" d="M 293 106 264 98"/>
<path stroke-width="1" stroke="black" d="M 293 106 207 113"/>
<path stroke-width="1" stroke="black" d="M 293 106 175 151"/>
<path stroke-width="1" stroke="black" d="M 173 165 283 196"/>
<path stroke-width="1" stroke="black" d="M 173 165 296 121"/>
<path stroke-width="1" stroke="black" d="M 173 165 222 195"/>
<path stroke-width="1" stroke="black" d="M 173 165 300 164"/>
<path stroke-width="1" stroke="black" d="M 173 165 143 157"/>
<path stroke-width="1" stroke="black" d="M 173 165 305 136"/>
<path stroke-width="1" stroke="black" d="M 173 165 322 142"/>
<path stroke-width="1" stroke="black" d="M 173 165 220 80"/>
<path stroke-width="1" stroke="black" d="M 173 165 255 88"/>
<path stroke-width="1" stroke="black" d="M 173 165 147 128"/>
<path stroke-width="1" stroke="black" d="M 173 165 203 217"/>
<path stroke-width="1" stroke="black" d="M 322 101 293 106"/>
<path stroke-width="1" stroke="black" d="M 293 106 238 113"/>
<path stroke-width="1" stroke="black" d="M 293 106 173 165"/>
<path stroke-width="1" stroke="black" d="M 293 106 322 101"/>
<path stroke-width="1" stroke="black" d="M 293 106 304 175"/>
<path stroke-width="1" stroke="black" d="M 293 106 212 175"/>
<path stroke-width="1" stroke="black" d="M 207 113 173 165"/>
<path stroke-width="1" stroke="black" d="M 203 217 305 136"/>
<path stroke-width="1" stroke="black" d="M 207 113 293 106"/>
<path stroke-width="1" stroke="black" d="M 207 113 212 175"/>
<path stroke-width="1" stroke="black" d="M 186 90 293 106"/>
<path stroke-width="1" stroke="black" d="M 186 90 304 175"/>
<path stroke-width="1" stroke="black" d="M 186 90 212 175"/>
<path stroke-width="1" stroke="black" d="M 186 90 175 151"/>
<path stroke-width="1" stroke="black" d="M 186 90 207 113"/>
<path stroke-width="1" stroke="black" d="M 186 90 264 98"/>
<path stroke-width="1" stroke="black" d="M 186 90 263 179"/>
<path stroke-width="1" stroke="black" d="M 186 90 173 165"/>
<path stroke-width="1" stroke="black" d="M 186 90 251 203"/>
<path stroke-width="1" stroke="black" d="M 186 90 169 118"/>
<path stroke-width="1" stroke="black" d="M 186 90 184 193"/>
<path stroke-width="1" stroke="black" d="M 186 90 144 138"/>
<path stroke-width="1" stroke="black" d="M 186 90 283 196"/>
<path stroke-width="1" stroke="black" d="M 186 90 296 121"/>
<path stroke-width="1" stroke="black" d="M 186 90 222 195"/>
<path stroke-width="1" stroke="black" d="M 186 90 300 164"/>
<path stroke-width="1" stroke="black" d="M 186 90 149 68"/>
<path stroke-width="1" stroke="black" d="M 186 90 143 157"/>
<path stroke-width="1" stroke="black" d="M 186 90 238 113"/>
<path stroke-width="1" stroke="black" d="M 251 203 203 217"/>
<path stroke-width="1" stroke="black" d="M 251 203 263 179"/>
<path stroke-width="1" stroke="black" d="M 251 203 260 236"/>
<path stroke-width="1" stroke="black" d="M 251 203 186 90"/>
<path stroke-width="1" stroke="black" d="M 251 203 169 118"/>
<path stroke-width="1" stroke="black" d="M 251 203 184 193"/>
<path stroke-width="1" stroke="black" d="M 251 203 144 138"/>
<path stroke-width="1" stroke="black" d="M 251 203 283 196"/>
<path stroke-width="1" stroke="black" d="M 149 68 186 90"/>
<path stroke-width="1" stroke="black" d="M 251 203 296 121"/>
<path stroke-width="1" stroke="black" d="M 251 203 300 164"/>
<path stroke-width="1" stroke="black" d="M 251 203 143 157"/>
<path stroke-width="1" stroke="black" d="M 251 203 305 136"/>
<path stroke-width="1" stroke="black" d="M 251 203 322 142"/>
<path stroke-width="1" stroke="black" d="M 251 203 220 80"/>
<path stroke-width="1" stroke="black" d="M 251 203 255 88"/>
<path stroke-width="1" stroke="black" d="M 251 203 147 128"/>
<path stroke-width="1" stroke="black" d="M 251 203 222 195"/>
<path stroke-width="1" stroke="black" d="M 251 203 264 98"/>
<path stroke-width="1" stroke="black" d="M 186 90 305 136"/>
<path stroke-width="1" stroke="black" d="M 186 90 220 80"/>
<path stroke-width="1" stroke="black" d="M 169 118 222 195"/>
<path stroke-width="1" stroke="black" d="M 169 118 300 164"/>
<path stroke-width="1" stroke="black" d="M 169 118 143 157"/>
<path stroke-width="1" stroke="black" d="M 169 118 305 136"/>
<path stroke-width="1" stroke="black" d="M 169 118 322 142"/>
<path stroke-width="1" stroke="black" d="M 169 118 220 80"/>
<path stroke-width="1" stroke="black" d="M 169 118 255 88"/>
<path stroke-width="1" stroke="black" d="M 169 118 296 121"/>
<path stroke-width="1" stroke="black" d="M 169 118 147 128"/>
<path stroke-width="1" stroke="black" d="M 147 219 184 193"/>
<path stroke-width="1" stroke="black" d="M 184 193 238 113"/>
<path stroke-width="1" stroke="black" d="M 184 193 173 165"/>
<path stroke-width="1" stroke="black" d="M 184 193 293 106"/>
<path stroke-width="1" stroke="black" d="M 184 193 304 175"/>
<path stroke-width="1" stroke="black" d="M 184 193 212 175"/>
<path stroke-width="1" stroke="black" d="M 184 193 175 151"/>
<path stroke-width="1" stroke="black" d="M 169 118 203 217"/>
<path stroke-width="1" stroke="black" d="M 186 90 322 142"/>
<path stroke-width="1" stroke="black" d="M 169 118 283 196"/>
<path stroke-width="1" stroke="black" d="M 169 118 184 193"/>
<path stroke-width="1" stroke="black" d="M 186 90 255 88"/>
<path stroke-width="1" stroke="black" d="M 186 90 147 128"/>
<path stroke-width="1" stroke="black" d="M 186 90 203 217"/>
<path stroke-width="1" stroke="black" d="M 120 102 169 118"/>
<path stroke-width="1" stroke="black" d="M 169 118 238 113"/>
<path stroke-width="1" stroke="black" d="M 169 118 173 165"/>
<path stroke-width="1" stroke="black" d="M 169 118 293 106"/>
<path stroke-width="1" stroke="black" d="M 169 118 144 138"/>
<path stroke-width="1" stroke="black" d="M 169 118 304 175"/>
<path stroke-width="1" stroke="black" d="M 169 118 175 151"/>
<path stroke-width="1" stroke="black" d="M 169 118 207 113"/>
<path stroke-width="1" stroke="black" d="M 169 118 264 98"/>
<path stroke-width="1" stroke="black" d="M 169 118 263 179"/>
<path stroke-width="1" stroke="black" d="M 169 118 251 203"/>
<path stroke-width="1" stroke="black" d="M 169 118 186 90"/>
<path stroke-width="1" stroke="black" d="M 169 118 120 102"/>
<path stroke-width="1" stroke="black" d="M 169 118 212 175"/>
<path stroke-width="1" stroke="black" d="M 251 203 207 113"/>
<path stroke-width="1" stroke="black" d="M 251 203 175 151"/>
<path stroke-width="1" stroke="black" d="M 251 203 212 175"/>
<path stroke-width="1" stroke="black" d="M 297 81 264 98"/>
<path stroke-width="1" stroke="black" d="M 264 98 238 113"/>
<path stroke-width="1" stroke="black" d="M 264 98 173 165"/>
<path stroke-width="1" stroke="black" d="M 264 98 293 106"/>
<path stroke-width="1" stroke="black" d="M 264 98 304 175"/>
<path stroke-width="1" stroke="black" d="M 264 98 212 175"/>
<path stroke-width="1" stroke="black" d="M 264 98 175 151"/>
<path stroke-width="1" stroke="black" d="M 207 113 203 217"/>
<path stroke-width="1" stroke="black" d="M 264 98 207 113"/>
<path stroke-width="1" stroke="black" d="M 264 98 263 179"/>
<path stroke-width="1" stroke="black" d="M 264 98 251 203"/>
<path stroke-width="1" stroke="black" d="M 264 98 186 90"/>
<path stroke-width="1" stroke="black" d="M 264 98 169 118"/>
<path stroke-width="1" stroke="black" d="M 264 98 184 193"/>
<path stroke-width="1" stroke="black" d="M 264 98 144 138"/>
<path stroke-width="1" stroke="black" d="M 264 98 283 196"/>
<path stroke-width="1" stroke="black" d="M 264 98 297 81"/>
<path stroke-width="1" stroke="black" d="M 264 98 296 121"/>
<path stroke-width="1" stroke="black" d="M 207 113 147 128"/>
<path stroke-width="1" stroke="black" d="M 207 113 220 80"/>
<path stroke-width="1" stroke="black" d="M 207 113 175 151"/>
<path stroke-width="1" stroke="black" d="M 207 113 178 91"/>
<path stroke-width="1" stroke="black" d="M 207 113 264 98"/>
<path stroke-width="1" stroke="black" d="M 207 113 263 179"/>
<path stroke-width="1" stroke="black" d="M 207 113 251 203"/>
<path stroke-width="1" stroke="black" d="M 207 113 186 90"/>
<path stroke-width="1" stroke="black" d="M 207 113 169 118"/>
<path stroke-width="1" stroke="black" d="M 207 113 255 88"/>
<path stroke-width="1" stroke="black" d="M 207 113 184 193"/>
<path stroke-width="1" stroke="black" d="M 207 113 283 196"/>
<path stroke-width="1" stroke="black" d="M 207 113 296 121"/>
<path stroke-width="1" stroke="black" d="M 207 113 222 195"/>
<path stroke-width="1" stroke="black" d="M 207 113 300 164"/>
<path stroke-width="1" stroke="black" d="M 207 113 143 157"/>
<path stroke-width="1" stroke="black" d="M 207 113 305 136"/>
<path stroke-width="1" stroke="black" d="M 207 113 322 142"/>
<path stroke-width="1" stroke="black" d="M 207 113 144 138"/>
<path stroke-width="1" stroke="black" d="M 264 98 222 195"/>
<path stroke-width="1" stroke="black" d="M 264 98 300 164"/>
<path stroke-width="1" stroke="black" d="M 264 98 143 157"/>
<path stroke-width="1" stroke="black" d="M 263 179 283 196"/>
<path stroke-width="1" stroke="black" d="M 263 179 296 121"/>
<path stroke-width="1" stroke="black" d="M 263 179 222 195"/>
<path stroke-width="1" stroke="black" d="M 263 179 300 164"/>
<path stroke-width="1" stroke="black" d="M 263 179 143 157"/>
<path stroke-width="1" stroke="black" d="M 263 179 305 136"/>
<path stroke-width="1" stroke="black" d="M 263 179 322 142"/>
<path stroke-width="1" stroke="black" d="M 263 179 144 138"/>
<path stroke-width="1" stroke="black" d="M 263 179 220 80"/>
<path stroke-width="1" stroke="black" d="M 263 179 147 128"/>
<path stroke-width="1" stroke="black" d="M 263 179 203 217"/>
<path stroke-width="1" stroke="black" d="M 260 236 251 203"/>
<path stroke-width="1" stroke="black" d="M 251 203 238 113"/>
<path stroke-width="1" stroke="black" d="M 251 203 173 165"/>
<path stroke-width="1" stroke="black" d="M 251 203 293 106"/>
<path stroke-width="1" stroke="black" d="M 251 203 304 175"/>
<path stroke-width="1" stroke="black" d="M 263 179 255 88"/>
<path stroke-width="1" stroke="black" d="M 263 179 184 193"/>
<path stroke-width="1" stroke="black" d="M 263 179 169 118"/>
<path stroke-width="1" stroke="black" d="M 263 179 186 90"/>
<path stroke-width="1" stroke="black" d="M 264 98 305 136"/>
<path stroke-width="1" stroke="black" d="M 264 98 322 142"/>
<path stroke-width="1" stroke="black" d="M 264 98 220 80"/>
<path stroke-width="1" stroke="black" d="M 264 98 255 88"/>
<path stroke-width="1" stroke="black" d="M 264 98 147 128"/>
<path stroke-width="1" stroke="black" d="M 264 98 203 217"/>
<path stroke-width="1" stroke="black" d="M 289 202 263 179"/>
<path stroke-width="1" stroke="black" d="M 263 179 238 113"/>
<path stroke-width="1" stroke="black" d="M 263 179 173 165"/>
<path stroke-width="1" stroke="black" d="M 263 179 293 106"/>
<path stroke-width="1" stroke="black" d="M 263 179 304 175"/>
<path stroke-width="1" stroke="black" d="M 263 179 212 175"/>
<path stroke-width="1" stroke="black" d="M 263 179 175 151"/>
<path stroke-width="1" stroke="black" d="M 263 179 207 113"/>
<path stroke-width="1" stroke="black" d="M 263 179 264 98"/>
<path stroke-width="1" stroke="black" d="M 263 179 289 202"/>
<path stroke-width="1" stroke="black" d="M 263 179 251 203"/>
<path stroke-width="1" stroke="black" d="M 207 113 304 175"/>
<path stroke-width="1" stroke="black" d="M 203 217 136 320"/>
<circle cx="237" cy="88" r="7.0" style="fill:gray;stroke:black;stroke-width:1.0"/>
<circle cx="238" cy="113" r="7.0" style="fill:gray;stroke:black;stroke-width:1.0"/>
<circle cx="140" cy="169" r="7.0" style="fill:gray;stroke:black;stroke-width:1.0"/>
<circle cx="173" cy="165" r="7.0" style="fill:gray;stroke:black;stroke-width:1.0"/>
<circle cx="322" cy="101" r="7.0" style="fill:gray;stroke:black;stroke-width:1.0"/>
<circle cx="293" cy="106" r="7.0" style="fill:gray;stroke:black;stroke-width:1.0"/>
<circle cx="336" cy="177" r="7.0" style="fill:gray;stroke:black;stroke-width:1.0"/>
<circle cx="304" cy="175" r="7.0" style="fill:gray;stroke:black;stroke-width:1.0"/>
<circle cx="183" cy="190" r="7.0" style="fill:gray;stroke:black;stroke-width:1.0"/>
<circle cx="212" cy="175" r="7.0" style="fill:gray;stroke:black;stroke-width:1.0"/>
<circle cx="174" cy="157" r="7.0" style="fill:gray;stroke:black;stroke-width:1.0"/>
<circle cx="175" cy="151" r="7.0" style="fill:gray;stroke:black;stroke-width:1.0"/>
<circle cx="178" cy="91" r="7.0" style="fill:gray;stroke:black;stroke-width:1.0"/>
<circle cx="207" cy="113" r="7.0" style="fill:gray;stroke:black;stroke-width:1.0"/>
<circle cx="297" cy="81" r="7.0" style="fill:gray;stroke:black;stroke-width:1.0"/>
<circle cx="264" cy="98" r="7.0" style="fill:gray;stroke:black;stroke-width:1.0"/>
<circle cx="289" cy="202" r="7.0" style="fill:gray;stroke:black;stroke-width:1.0"/>
<circle cx="263" cy="179" r="7.0" style="fill:gray;stroke:black;stroke-width:1.0"/>
<circle cx="260" cy="236" r="7.0" style="fill:gray;stroke:black;stroke-width:1.0"/>
<circle cx="251" cy="203" r="7.0" style="fill:gray;stroke:black;stroke-width:1.0"/>
<circle cx="149" cy="68" r="7.0" style="fill:gray;stroke:black;stroke-width:1.0"/>
<circle cx="186" cy="90" r="7.0" style="fill:gray;stroke:black;stroke-width:1.0"/>
<circle cx="120" cy="102" r="7.0" style="fill:gray;stroke:black;stroke-width:1.0"/>
<circle cx="169" cy="118" r="7.0" style="fill:gray;stroke:black;stroke-width:1.0"/>
<circle cx="147" cy="219" r="7.0" style="fill:gray;stroke:black;stroke-width:1.0"/>
<circle cx="184" cy="193" r="7.0" style="fill:gray;stroke:black;stroke-width:1.0"/>
<circle cx="86" cy="135" r="7.0" style="fill:gray;stroke:black;stroke-width:1.0"/>
<circle cx="144" cy="138" r="7.0" style="fill:gray;stroke:black;stroke-width:1.0"/>
<circle cx="329" cy="220" r="7.0" style="fill:gray;stroke:black;stroke-width:1.0"/>
<circle cx="283" cy="196" r="7.0" style="fill:gray;stroke:black;stroke-width:1.0"/>
<circle cx="356" cy="106" r="7.0" style="fill:gray;stroke:black;stroke-width:1.0"/>
<circle cx="296" cy="121" r="7.0" style="fill:gray;stroke:black;stroke-width:1.0"/>
<circle cx="200" cy="236" r="7.0" style="fill:gray;stroke:black;stroke-width:1.0"/>
<circle cx="222" cy="195" r="7.0" style="fill:gray;stroke:black;stroke-width:1.0"/>
<circle cx="371" cy="177" r="7.0" style="fill:gray;stroke:black;stroke-width:1.0"/>
<circle cx="300" cy="164" r="7.0" style="fill:gray;stroke:black;stroke-width:1.0"/>
<circle cx="69" cy="165" r="7.0" style="fill:gray;stroke:black;stroke-width:1.0"/>
<circle cx="143" cy="157" r="7.0" style="fill:gray;stroke:black;stroke-width:1.0"/>
<circle cx="386" cy="128" r="7.0" style="fill:gray;stroke:black;stroke-width:1.0"/>
<circle cx="305" cy="136" r="7.0" style="fill:gray;stroke:black;stroke-width:1.0"/>
<circle cx="420" cy="143" r="7.0" style="fill:gray;stroke:black;stroke-width:1.0"/>
<circle cx="322" cy="142" r="7.0" style="fill:gray;stroke:black;stroke-width:1.0"/>
<circle cx="191" cy="20" r="7.0" style="fill:gray;stroke:black;stroke-width:1.0"/>
<circle cx="220" cy="80" r="7.0" style="fill:gray;stroke:black;stroke-width:1.0"/>
<circle cx="300" cy="22" r="7.0" style="fill:gray;stroke:black;stroke-width:1.0"/>
<circle cx="255" cy="88" r="7.0" style="fill:gray;stroke:black;stroke-width:1.0"/>
<circle cx="20" cy="117" r="7.0" style="fill:gray;stroke:black;stroke-width:1.0"/>
<circle cx="147" cy="128" r="7.0" style="fill:gray;stroke:black;stroke-width:1.0"/>
<circle cx="136" cy="320" r="7.0" style="fill:gray;stroke:black;stroke-width:1.0"/>
<circle cx="203" cy="217" r="7.0" style="fill:gray;stroke:black;stroke-width:1.0"/>
</svg>
