<svg width="440" height="340" xmlns="http://www.w3.org/2000/svg">
<path stroke-width="20.0" stroke="black" d="M 92 108 89 98"/>
<path stroke-width="20.0" stroke="black" d="M 33 34 44 41"/>
<path stroke-width="0.5" stroke="black" d="M 44 41 76 31"/>
<path stroke-width="20.0" stroke="black" d="M 44 41 33 34"/>
<path stroke-width="0.5" stroke="black" d="M 44 41 32 67"/>
<path stroke-width="20.0" stroke="black" d="M 136 95 124 88"/>
<path stroke-width="0.5" stroke="black" d="M 124 88 89 98"/>
<path stroke-width="0.5" stroke="black" d="M 124 88 129 63"/>
<path stroke-width="20.0" stroke="black" d="M 124 88 136 95"/>
<path stroke-width="20.0" stroke="black" d="M 420 191 406 189"/>
<path stroke-width="20.0" stroke="black" d="M 406 189 420 191"/>
<path stroke-width="0.5" stroke="black" d="M 406 189 394 172"/>
<path stroke-width="0.5" stroke="black" d="M 406 189 386 202"/>
<path stroke-width="0.5" stroke="black" d="M 129 63 124 88"/>
<path stroke-width="20.0" stroke="black" d="M 397 161 394 172"/>
<path stroke-width="20.0" stroke="black" d="M 394 172 397 161"/>
<path stroke-width="0.5" stroke="black" d="M 394 172 373 184"/>
<path stroke-width="20.0" stroke="black" d="M 360 183 373 184"/>
<path stroke-width="0.5" stroke="black" d="M 373 184 394 172"/>
<path stroke-width="20.0" stroke="black" d="M 373 184 360 183"/>
<path stroke-width="0.5" stroke="black" d="M 373 184 386 202"/>
<path stroke-width="20.0" stroke="black" d="M 382 212 386 202"/>
<path stroke-width="0.5" stroke="black" d="M 386 202 406 189"/>
<path stroke-width="0.5" stroke="black" d="M 386 202 373 184"/>
<path stroke-width="20.0" stroke="black" d="M 386 202 382 212"/>
<path stroke-width="20.0" stroke="black" d="M 20 67 32 67"/>
<path stroke-width="0.5" stroke="black" d="M 32 67 56 89"/>
<path stroke-width="0.5" stroke="black" d="M 394 172 406 189"/>
<path stroke-width="20.0" stroke="black" d="M 129 63 143 62"/>
<path stroke-width="0.5" stroke="black" d="M 129 63 111 40"/>
<path stroke-width="20.0" stroke="black" d="M 143 62 129 63"/>
<path stroke-width="20.0" stroke="black" d="M 89 98 92 108"/>
<path stroke-width="0.5" stroke="black" d="M 89 98 56 89"/>
<path stroke-width="0.5" stroke="black" d="M 89 98 124 88"/>
<path stroke-width="20.0" stroke="black" d="M 44 97 56 89"/>
<path stroke-width="0.5" stroke="black" d="M 56 89 89 98"/>
<path stroke-width="20.0" stroke="black" d="M 56 89 44 97"/>
<path stroke-width="0.5" stroke="black" d="M 56 89 32 67"/>
<path stroke-width="20.0" stroke="black" d="M 76 20 76 31"/>
<path stroke-width="20.0" stroke="black" d="M 76 31 76 20"/>
<path stroke-width="0.5" stroke="black" d="M 76 31 111 40"/>
<path stroke-width="0.5" stroke="black" d="M 76 31 44 41"/>
<path stroke-width="20.0" stroke="black" d="M 119 33 111 40"/>
<path stroke-width="0.5" stroke="black" d="M 111 40 76 31"/>
<path stroke-width="20.0" stroke="black" d="M 111 40 119 33"/>
<path stroke-width="0.5" stroke="black" d="M 111 40 129 63"/>
<path stroke-width="20.0" stroke="black" d="M 84 320 95 314"/>
<path stroke-width="20.0" stroke="black" d="M 95 314 84 320"/>
<path stroke-width="0.5" stroke="black" d="M 95 314 117 312"/>
<path stroke-width="0.5" stroke="black" d="M 95 314 103 298"/>
<path stroke-width="20.0" stroke="black" d="M 129 316 117 312"/>
<path stroke-width="0.5" stroke="black" d="M 117 312 95 314"/>
<path stroke-width="20.0" stroke="black" d="M 117 312 129 316"/>
<path stroke-width="0.5" stroke="black" d="M 117 312 103 298"/>
<path stroke-width="20.0" stroke="black" d="M 101 288 103 298"/>
<path stroke-width="0.5" stroke="black" d="M 103 298 95 314"/>
<path stroke-width="0.5" stroke="black" d="M 103 298 117 312"/>
<path stroke-width="20.0" stroke="black" d="M 103 298 101 288"/>
<path stroke-width="0.5" stroke="black" d="M 32 67 44 41"/>
<path stroke-width="20.0" stroke="black" d="M 32 67 20 67"/>
<circle cx="92" cy="108" r="20.0" style="fill:red;stroke:black;stroke-width:1.0"/>
<circle cx="89" cy="98" r="20.0" style="fill:red;stroke:black;stroke-width:1.0"/>
<circle cx="44" cy="97" r="20.0" style="fill:red;stroke:black;stroke-width:1.0"/>
<circle cx="56" cy="89" r="20.0" style="fill:red;stroke:black;stroke-width:1.0"/>
<circle cx="76" cy="20" r="20.0" style="fill:green;stroke:black;stroke-width:1.0"/>
<circle cx="76" cy="31" r="20.0" style="fill:green;stroke:black;stroke-width:1.0"/>
<circle cx="119" cy="33" r="20.0" style="fill:green;stroke:black;stroke-width:1.0"/>
<circle cx="111" cy="40" r="20.0" style="fill:green;stroke:black;stroke-width:1.0"/>
<circle cx="84" cy="320" r="20.0" style="fill:blue;stroke:black;stroke-width:1.0"/>
<circle cx="95" cy="314" r="20.0" style="fill:blue;stroke:black;stroke-width:1.0"/>
<circle cx="129" cy="316" r="20.0" style="fill:blue;stroke:black;stroke-width:1.0"/>
<circle cx="117" cy="312" r="20.0" style="fill:blue;stroke:black;stroke-width:1.0"/>
<circle cx="101" cy="288" r="20.0" style="fill:blue;stroke:black;stroke-width:1.0"/>
<circle cx="103" cy="298" r="20.0" style="fill:blue;stroke:black;stroke-width:1.0"/>
<circle cx="143" cy="62" r="20.0" style="fill:orange;stroke:black;stroke-width:1.0"/>
<circle cx="129" cy="63" r="20.0" style="fill:orange;stroke:black;stroke-width:1.0"/>
<circle cx="33" cy="34" r="20.0" style="fill:fuchsia;stroke:black;stroke-width:1.0"/>
<circle cx="44" cy="41" r="20.0" style="fill:fuchsia;stroke:black;stroke-width:1.0"/>
<circle cx="136" cy="95" r="20.0" style="fill:orange;stroke:black;stroke-width:1.0"/>
<circle cx="124" cy="88" r="20.0" style="fill:orange;stroke:black;stroke-width:1.0"/>
<circle cx="420" cy="191" r="20.0" style="fill:purple;stroke:black;stroke-width:1.0"/>
<circle cx="406" cy="189" r="20.0" style="fill:purple;stroke:black;stroke-width:1.0"/>
<circle cx="397" cy="161" r="20.0" style="fill:purple;stroke:black;stroke-width:1.0"/>
<circle cx="394" cy="172" r="20.0" style="fill:purple;stroke:black;stroke-width:1.0"/>
<circle cx="360" cy="183" r="20.0" style="fill:yellow;stroke:black;stroke-width:1.0"/>
<circle cx="373" cy="184" r="20.0" style="fill:yellow;stroke:black;stroke-width:1.0"/>
<circle cx="382" cy="212" r="20.0" style="fill:yellow;stroke:black;stroke-width:1.0"/>
<circle cx="386" cy="202" r="20.0" style="fill:yellow;stroke:black;stroke-width:1.0"/>
<circle cx="20" cy="67" r="20.0" style="fill:fuchsia;stroke:black;stroke-width:1.0"/>
<circle cx="32" cy="67" r="20.0" style="fill:fuchsia;stroke:black;stroke-width:1.0"/>
</svg>
