<svg width="440" height="340" xmlns="http://www.w3.org/2000/svg">
<path stroke-width="1" stroke="black" d="M 244 82 258 77"/>
<path stroke-width="1" stroke="black" d="M 382 79 366 78"/>
<path stroke-width="1" stroke="black" d="M 366 78 361 51"/>
<path stroke-width="1" stroke="black" d="M 366 78 382 79"/>
<path stroke-width="1" stroke="black" d="M 366 78 336 97"/>
<path stroke-width="1" stroke="black" d="M 239 45 259 50"/>
<path stroke-width="1" stroke="black" d="M 259 50 258 77"/>
<path stroke-width="1" stroke="black" d="M 259 50 289 29"/>
<path stroke-width="1" stroke="black" d="M 259 50 239 45"/>
<path stroke-width="1" stroke="black" d="M 58 269 58 280"/>
<path stroke-width="1" stroke="black" d="M 58 280 58 269"/>
<path stroke-width="1" stroke="black" d="M 58 280 36 294"/>
<path stroke-width="1" stroke="black" d="M 58 280 79 295"/>
<path stroke-width="1" stroke="black" d="M 289 29 259 50"/>
<path stroke-width="1" stroke="black" d="M 20 293 36 294"/>
<path stroke-width="1" stroke="black" d="M 36 294 20 293"/>
<path stroke-width="1" stroke="black" d="M 36 294 58 309"/>
<path stroke-width="1" stroke="black" d="M 59 320 58 309"/>
<path stroke-width="1" stroke="black" d="M 58 309 36 294"/>
<path stroke-width="1" stroke="black" d="M 58 309 59 320"/>
<path stroke-width="1" stroke="black" d="M 58 309 79 295"/>
<path stroke-width="1" stroke="black" d="M 96 296 79 295"/>
<path stroke-width="1" stroke="black" d="M 79 295 58 280"/>
<path stroke-width="1" stroke="black" d="M 79 295 58 309"/>
<path stroke-width="1" stroke="black" d="M 79 295 96 296"/>
<path stroke-width="1" stroke="black" d="M 348 108 336 97"/>
<path stroke-width="1" stroke="black" d="M 336 97 294 98"/>
<path stroke-width="1" stroke="black" d="M 36 294 58 280"/>
<path stroke-width="1" stroke="black" d="M 289 29 287 20"/>
<path stroke-width="1" stroke="black" d="M 289 29 335 31"/>
<path stroke-width="1" stroke="black" d="M 287 20 289 29"/>
<path stroke-width="1" stroke="black" d="M 258 77 244 82"/>
<path stroke-width="1" stroke="black" d="M 258 77 294 98"/>
<path stroke-width="1" stroke="black" d="M 258 77 259 50"/>
<path stroke-width="1" stroke="black" d="M 287 107 294 98"/>
<path stroke-width="1" stroke="black" d="M 294 98 258 77"/>
<path stroke-width="1" stroke="black" d="M 294 98 287 107"/>
<path stroke-width="1" stroke="black" d="M 294 98 336 97"/>
<path stroke-width="1" stroke="black" d="M 377 48 361 51"/>
<path stroke-width="1" stroke="black" d="M 361 51 377 48"/>
<path stroke-width="1" stroke="black" d="M 361 51 335 31"/>
<path stroke-width="1" stroke="black" d="M 361 51 366 78"/>
<path stroke-width="1" stroke="black" d="M 345 22 335 31"/>
<path stroke-width="1" stroke="black" d="M 335 31 361 51"/>
<path stroke-width="1" stroke="black" d="M 335 31 345 22"/>
<path stroke-width="1" stroke="black" d="M 335 31 289 29"/>
<path stroke-width="1" stroke="black" d="M 379 256 384 246"/>
<path stroke-width="1" stroke="black" d="M 384 246 379 256"/>
<path stroke-width="1" stroke="black" d="M 384 246 404 234"/>
<path stroke-width="1" stroke="black" d="M 384 246 376 231"/>
<path stroke-width="1" stroke="black" d="M 420 232 404 234"/>
<path stroke-width="1" stroke="black" d="M 404 234 384 246"/>
<path stroke-width="1" stroke="black" d="M 404 234 420 232"/>
<path stroke-width="1" stroke="black" d="M 404 234 376 231"/>
<path stroke-width="1" stroke="black" d="M 363 225 376 231"/>
<path stroke-width="1" stroke="black" d="M 376 231 384 246"/>
<path stroke-width="1" stroke="black" d="M 376 231 404 234"/>
<path stroke-width="1" stroke="black" d="M 376 231 363 225"/>
<path stroke-width="1" stroke="black" d="M 336 97 366 78"/>
<path stroke-width="1" stroke="black" d="M 336 97 348 108"/>
<circle cx="244" cy="82" r="7.0" style="fill:red;stroke:black;stroke-width:1.0"/>
<circle cx="258" cy="77" r="7.0" style="fill:red;stroke:black;stroke-width:1.0"/>
<circle cx="287" cy="107" r="7.0" style="fill:red;stroke:black;stroke-width:1.0"/>
<circle cx="294" cy="98" r="7.0" style="fill:red;stroke:black;stroke-width:1.0"/>
<circle cx="377" cy="48" r="7.0" style="fill:green;stroke:black;stroke-width:1.0"/>
<circle cx="361" cy="51" r="7.0" style="fill:green;stroke:black;stroke-width:1.0"/>
<circle cx="345" cy="22" r="7.0" style="fill:green;stroke:black;stroke-width:1.0"/>
<circle cx="335" cy="31" r="7.0" style="fill:green;stroke:black;stroke-width:1.0"/>
<circle cx="379" cy="256" r="7.0" style="fill:blue;stroke:black;stroke-width:1.0"/>
<circle cx="384" cy="246" r="7.0" style="fill:blue;stroke:black;stroke-width:1.0"/>
<circle cx="420" cy="232" r="7.0" style="fill:blue;stroke:black;stroke-width:1.0"/>
<circle cx="404" cy="234" r="7.0" style="fill:blue;stroke:black;stroke-width:1.0"/>
<circle cx="363" cy="225" r="7.0" style="fill:blue;stroke:black;stroke-width:1.0"/>
<circle cx="376" cy="231" r="7.0" style="fill:blue;stroke:black;stroke-width:1.0"/>
<circle cx="287" cy="20" r="7.0" style="fill:orange;stroke:black;stroke-width:1.0"/>
<circle cx="289" cy="29" r="7.0" style="fill:orange;stroke:black;stroke-width:1.0"/>
<circle cx="382" cy="79" r="7.0" style="fill:fuchsia;stroke:black;stroke-width:1.0"/>
<circle cx="366" cy="78" r="7.0" style="fill:fuchsia;stroke:black;stroke-width:1.0"/>
<circle cx="239" cy="45" r="7.0" style="fill:orange;stroke:black;stroke-width:1.0"/>
<circle cx="259" cy="50" r="7.0" style="fill:orange;stroke:black;stroke-width:1.0"/>
<circle cx="58" cy="269" r="7.0" style="fill:purple;stroke:black;stroke-width:1.0"/>
<circle cx="58" cy="280" r="7.0" style="fill:purple;stroke:black;stroke-width:1.0"/>
<circle cx="20" cy="293" r="7.0" style="fill:purple;stroke:black;stroke-width:1.0"/>
<circle cx="36" cy="294" r="7.0" style="fill:purple;stroke:black;stroke-width:1.0"/>
<circle cx="59" cy="320" r="7.0" style="fill:yellow;stroke:black;stroke-width:1.0"/>
<circle cx="58" cy="309" r="7.0" style="fill:yellow;stroke:black;stroke-width:1.0"/>
<circle cx="96" cy="296" r="7.0" style="fill:yellow;stroke:black;stroke-width:1.0"/>
<circle cx="79" cy="295" r="7.0" style="fill:yellow;stroke:black;stroke-width:1.0"/>
<circle cx="348" cy="108" r="7.0" style="fill:fuchsia;stroke:black;stroke-width:1.0"/>
<circle cx="336" cy="97" r="7.0" style="fill:fuchsia;stroke:black;stroke-width:1.0"/>
</svg>
