<svg width="440" height="340" xmlns="http://www.w3.org/2000/svg">
<path stroke-width="20.0" stroke="black" d="M 206 138 227 146"/>
<path stroke-width="20.0" stroke="black" d="M 316 213 310 202"/>
<path stroke-width="0.5" stroke="black" d="M 310 202 377 191"/>
<path stroke-width="20.0" stroke="black" d="M 310 202 316 213"/>
<path stroke-width="0.5" stroke="black" d="M 310 202 241 194"/>
<path stroke-width="20.0" stroke="black" d="M 295 126 291 136"/>
<path stroke-width="0.5" stroke="black" d="M 291 136 227 146"/>
<path stroke-width="0.5" stroke="black" d="M 291 136 358 144"/>
<path stroke-width="20.0" stroke="black" d="M 291 136 295 126"/>
<path stroke-width="20.0" stroke="black" d="M 63 319 82 312"/>
<path stroke-width="20.0" stroke="black" d="M 82 312 63 319"/>
<path stroke-width="0.5" stroke="black" d="M 82 312 136 313"/>
<path stroke-width="0.5" stroke="black" d="M 82 312 71 294"/>
<path stroke-width="0.5" stroke="black" d="M 358 144 291 136"/>
<path stroke-width="20.0" stroke="black" d="M 158 320 136 313"/>
<path stroke-width="20.0" stroke="black" d="M 136 313 158 320"/>
<path stroke-width="0.5" stroke="black" d="M 136 313 125 295"/>
<path stroke-width="20.0" stroke="black" d="M 144 288 125 295"/>
<path stroke-width="0.5" stroke="black" d="M 125 295 136 313"/>
<path stroke-width="20.0" stroke="black" d="M 125 295 144 288"/>
<path stroke-width="0.5" stroke="black" d="M 125 295 71 294"/>
<path stroke-width="20.0" stroke="black" d="M 49 287 71 294"/>
<path stroke-width="0.5" stroke="black" d="M 71 294 82 312"/>
<path stroke-width="0.5" stroke="black" d="M 71 294 125 295"/>
<path stroke-width="20.0" stroke="black" d="M 71 294 49 287"/>
<path stroke-width="20.0" stroke="black" d="M 221 201 241 194"/>
<path stroke-width="0.5" stroke="black" d="M 241 194 201 170"/>
<path stroke-width="0.5" stroke="black" d="M 136 313 82 312"/>
<path stroke-width="20.0" stroke="black" d="M 358 144 375 137"/>
<path stroke-width="0.5" stroke="black" d="M 358 144 392 166"/>
<path stroke-width="20.0" stroke="black" d="M 375 137 358 144"/>
<path stroke-width="20.0" stroke="black" d="M 227 146 206 138"/>
<path stroke-width="0.5" stroke="black" d="M 227 146 201 170"/>
<path stroke-width="0.5" stroke="black" d="M 227 146 291 136"/>
<path stroke-width="20.0" stroke="black" d="M 173 171 201 170"/>
<path stroke-width="0.5" stroke="black" d="M 201 170 227 146"/>
<path stroke-width="20.0" stroke="black" d="M 201 170 173 171"/>
<path stroke-width="0.5" stroke="black" d="M 201 170 241 194"/>
<path stroke-width="20.0" stroke="black" d="M 399 196 377 191"/>
<path stroke-width="20.0" stroke="black" d="M 377 191 399 196"/>
<path stroke-width="0.5" stroke="black" d="M 377 191 392 166"/>
<path stroke-width="0.5" stroke="black" d="M 377 191 310 202"/>
<path stroke-width="20.0" stroke="black" d="M 420 164 392 166"/>
<path stroke-width="0.5" stroke="black" d="M 392 166 377 191"/>
<path stroke-width="20.0" stroke="black" d="M 392 166 420 164"/>
<path stroke-width="0.5" stroke="black" d="M 392 166 358 144"/>
<path stroke-width="20.0" stroke="black" d="M 115 43 89 41"/>
<path stroke-width="20.0" stroke="black" d="M 89 41 115 43"/>
<path stroke-width="0.5" stroke="black" d="M 89 41 63 29"/>
<path stroke-width="0.5" stroke="black" d="M 89 41 43 43"/>
<path stroke-width="20.0" stroke="black" d="M 61 20 63 29"/>
<path stroke-width="0.5" stroke="black" d="M 63 29 89 41"/>
<path stroke-width="20.0" stroke="black" d="M 63 29 61 20"/>
<path stroke-width="0.5" stroke="black" d="M 63 29 43 43"/>
<path stroke-width="20.0" stroke="black" d="M 20 48 43 43"/>
<path stroke-width="0.5" stroke="black" d="M 43 43 89 41"/>
<path stroke-width="0.5" stroke="black" d="M 43 43 63 29"/>
<path stroke-width="20.0" stroke="black" d="M 43 43 20 48"/>
<path stroke-width="0.5" stroke="black" d="M 241 194 310 202"/>
<path stroke-width="20.0" stroke="black" d="M 241 194 221 201"/>
<circle cx="206" cy="138" r="20.0" style="fill:gray;stroke:black;stroke-width:1.0"/>
<circle cx="227" cy="146" r="20.0" style="fill:gray;stroke:black;stroke-width:1.0"/>
<circle cx="173" cy="171" r="20.0" style="fill:gray;stroke:black;stroke-width:1.0"/>
<circle cx="201" cy="170" r="20.0" style="fill:gray;stroke:black;stroke-width:1.0"/>
<circle cx="399" cy="196" r="20.0" style="fill:gray;stroke:black;stroke-width:1.0"/>
<circle cx="377" cy="191" r="20.0" style="fill:gray;stroke:black;stroke-width:1.0"/>
<circle cx="420" cy="164" r="20.0" style="fill:gray;stroke:black;stroke-width:1.0"/>
<circle cx="392" cy="166" r="20.0" style="fill:gray;stroke:black;stroke-width:1.0"/>
<circle cx="115" cy="43" r="20.0" style="fill:gray;stroke:black;stroke-width:1.0"/>
<circle cx="89" cy="41" r="20.0" style="fill:gray;stroke:black;stroke-width:1.0"/>
<circle cx="61" cy="20" r="20.0" style="fill:gray;stroke:black;stroke-width:1.0"/>
<circle cx="63" cy="29" r="20.0" style="fill:gray;stroke:black;stroke-width:1.0"/>
<circle cx="20" cy="48" r="20.0" style="fill:gray;stroke:black;stroke-width:1.0"/>
<circle cx="43" cy="43" r="20.0" style="fill:gray;stroke:black;stroke-width:1.0"/>
<circle cx="375" cy="137" r="20.0" style="fill:gray;stroke:black;stroke-width:1.0"/>
<circle cx="358" cy="144" r="20.0" style="fill:gray;stroke:black;stroke-width:1.0"/>
<circle cx="316" cy="213" r="20.0" style="fill:gray;stroke:black;stroke-width:1.0"/>
<circle cx="310" cy="202" r="20.0" style="fill:gray;stroke:black;stroke-width:1.0"/>
<circle cx="295" cy="126" r="20.0" style="fill:gray;stroke:black;stroke-width:1.0"/>
<circle cx="291" cy="136" r="20.0" style="fill:gray;stroke:black;stroke-width:1.0"/>
<circle cx="63" cy="319" r="20.0" style="fill:gray;stroke:black;stroke-width:1.0"/>
<circle cx="82" cy="312" r="20.0" style="fill:gray;stroke:black;stroke-width:1.0"/>
<circle cx="158" cy="320" r="20.0" style="fill:gray;stroke:black;stroke-width:1.0"/>
<circle cx="136" cy="313" r="20.0" style="fill:gray;stroke:black;stroke-width:1.0"/>
<circle cx="144" cy="288" r="20.0" style="fill:gray;stroke:black;stroke-width:1.0"/>
<circle cx="125" cy="295" r="20.0" style="fill:gray;stroke:black;stroke-width:1.0"/>
<circle cx="49" cy="287" r="20.0" style="fill:gray;stroke:black;stroke-width:1.0"/>
<circle cx="71" cy="294" r="20.0" style="fill:gray;stroke:black;stroke-width:1.0"/>
<circle cx="221" cy="201" r="20.0" style="fill:gray;stroke:black;stroke-width:1.0"/>
<circle cx="241" cy="194" r="20.0" style="fill:gray;stroke:black;stroke-width:1.0"/>
</svg>
