<svg width="440" height="340" xmlns="http://www.w3.org/2000/svg">
<path stroke-width="20.0" stroke="black" d="M 303 91 284 120"/>
<path stroke-width="0.5" stroke="black" d="M 287 267 198 199"/>
<path stroke-width="0.5" stroke="black" d="M 287 267 212 123"/>
<path stroke-width="0.5" stroke="black" d="M 287 267 313 178"/>
<path stroke-width="0.5" stroke="black" d="M 287 267 240 191"/>
<path stroke-width="0.5" stroke="black" d="M 287 267 256 94"/>
<path stroke-width="8.181818181818182" stroke="black" d="M 287 267 321 320"/>
<path stroke-width="0.5" stroke="black" d="M 287 267 254 113"/>
<path stroke-width="0.5" stroke="black" d="M 287 267 295 224"/>
<path stroke-width="0.5" stroke="black" d="M 287 267 210 137"/>
<path stroke-width="0.5" stroke="black" d="M 287 267 191 174"/>
<path stroke-width="0.5" stroke="black" d="M 287 267 295 257"/>
<path stroke-width="0.5" stroke="black" d="M 287 267 194 223"/>
<path stroke-width="0.5" stroke="black" d="M 287 267 329 154"/>
<path stroke-width="0.5" stroke="black" d="M 287 267 189 112"/>
<path stroke-width="7.393939393939394" stroke="black" d="M 253 44 254 113"/>
<path stroke-width="0.5" stroke="black" d="M 254 113 284 120"/>
<path stroke-width="0.5" stroke="black" d="M 287 267 291 150"/>
<path stroke-width="0.5" stroke="black" d="M 254 113 280 208"/>
<path stroke-width="0.5" stroke="black" d="M 287 267 279 94"/>
<path stroke-width="0.7954545454545454" stroke="black" d="M 287 267 310 148"/>
<path stroke-width="0.5" stroke="black" d="M 256 94 254 113"/>
<path stroke-width="0.5" stroke="black" d="M 256 94 210 137"/>
<path stroke-width="0.5" stroke="black" d="M 256 94 291 150"/>
<path stroke-width="0.5" stroke="black" d="M 256 94 191 174"/>
<path stroke-width="0.5" stroke="black" d="M 256 94 295 257"/>
<path stroke-width="0.5" stroke="black" d="M 256 94 194 223"/>
<path stroke-width="0.5" stroke="black" d="M 256 94 329 154"/>
<path stroke-width="0.5" stroke="black" d="M 287 267 204 183"/>
<path stroke-width="0.5" stroke="black" d="M 256 94 189 112"/>
<path stroke-width="0.5" stroke="black" d="M 287 267 284 120"/>
<path stroke-width="0.5" stroke="black" d="M 287 267 280 208"/>
<path stroke-width="0.5" stroke="black" d="M 287 267 231 266"/>
<path stroke-width="0.5" stroke="black" d="M 287 267 223 230"/>
<path stroke-width="0.5" stroke="black" d="M 287 267 287 241"/>
<path stroke-width="0.5" stroke="black" d="M 287 267 253 155"/>
<path stroke-width="0.5" stroke="black" d="M 287 267 304 204"/>
<path stroke-width="8.181818181818182" stroke="black" d="M 321 320 287 267"/>
<path stroke-width="0.5" stroke="black" d="M 254 113 231 266"/>
<path stroke-width="0.5" stroke="black" d="M 254 113 223 230"/>
<path stroke-width="0.5" stroke="black" d="M 254 113 287 241"/>
<path stroke-width="0.5" stroke="black" d="M 210 137 284 120"/>
<path stroke-width="0.5" stroke="black" d="M 210 137 280 208"/>
<path stroke-width="0.5" stroke="black" d="M 210 137 231 266"/>
<path stroke-width="0.5" stroke="black" d="M 210 137 223 230"/>
<path stroke-width="0.5" stroke="black" d="M 210 137 287 241"/>
<path stroke-width="0.7954545454545454" stroke="black" d="M 210 137 253 155"/>
<path stroke-width="0.5" stroke="black" d="M 210 137 304 204"/>
<path stroke-width="6.606060606060606" stroke="black" d="M 161 116 210 137"/>
<path stroke-width="0.5" stroke="black" d="M 210 137 310 148"/>
<path stroke-width="0.5" stroke="black" d="M 210 137 279 94"/>
<path stroke-width="0.5" stroke="black" d="M 210 137 295 224"/>
<path stroke-width="0.5" stroke="black" d="M 210 137 198 199"/>
<path stroke-width="0.5" stroke="black" d="M 210 137 212 123"/>
<path stroke-width="0.5" stroke="black" d="M 210 137 313 178"/>
<path stroke-width="0.5" stroke="black" d="M 210 137 240 191"/>
<path stroke-width="0.5" stroke="black" d="M 210 137 256 94"/>
<path stroke-width="0.5" stroke="black" d="M 210 137 204 183"/>
<path stroke-width="0.5" stroke="black" d="M 254 113 189 112"/>
<path stroke-width="0.5" stroke="black" d="M 254 113 329 154"/>
<path stroke-width="0.5" stroke="black" d="M 254 113 194 223"/>
<path stroke-width="0.5" stroke="black" d="M 254 113 253 155"/>
<path stroke-width="0.7954545454545454" stroke="black" d="M 254 113 304 204"/>
<path stroke-width="0.5" stroke="black" d="M 254 113 310 148"/>
<path stroke-width="0.5" stroke="black" d="M 254 113 204 183"/>
<path stroke-width="0.5" stroke="black" d="M 254 113 279 94"/>
<path stroke-width="0.5" stroke="black" d="M 254 113 295 224"/>
<path stroke-width="0.5" stroke="black" d="M 254 113 198 199"/>
<path stroke-width="0.5" stroke="black" d="M 254 113 212 123"/>
<path stroke-width="0.5" stroke="black" d="M 254 113 313 178"/>
<path stroke-width="0.5" stroke="black" d="M 254 113 240 191"/>
<path stroke-width="0.5" stroke="black" d="M 254 113 256 94"/>
<path stroke-width="0.5" stroke="black" d="M 254 113 287 267"/>
<path stroke-width="7.393939393939394" stroke="black" d="M 254 113 253 44"/>
<path stroke-width="0.5" stroke="black" d="M 254 113 210 137"/>
<path stroke-width="0.5" stroke="black" d="M 254 113 291 150"/>
<path stroke-width="0.5" stroke="black" d="M 254 113 191 174"/>
<path stroke-width="0.5" stroke="black" d="M 254 113 295 257"/>
<path stroke-width="0.5" stroke="black" d="M 256 94 287 267"/>
<path stroke-width="0.5" stroke="black" d="M 210 137 287 267"/>
<path stroke-width="8.969696969696969" stroke="black" d="M 256 94 264 28"/>
<path stroke-width="0.5" stroke="black" d="M 256 94 313 178"/>
<path stroke-width="0.5" stroke="black" d="M 313 178 204 183"/>
<path stroke-width="0.5" stroke="black" d="M 313 178 279 94"/>
<path stroke-width="0.7954545454545454" stroke="black" d="M 313 178 295 224"/>
<path stroke-width="0.5" stroke="black" d="M 313 178 198 199"/>
<path stroke-width="0.5" stroke="black" d="M 313 178 212 123"/>
<path stroke-width="10.545454545454545" stroke="black" d="M 313 178 354 183"/>
<path stroke-width="0.5" stroke="black" d="M 313 178 240 191"/>
<path stroke-width="0.5" stroke="black" d="M 313 178 310 148"/>
<path stroke-width="0.5" stroke="black" d="M 313 178 256 94"/>
<path stroke-width="0.5" stroke="black" d="M 313 178 254 113"/>
<path stroke-width="0.5" stroke="black" d="M 313 178 210 137"/>
<path stroke-width="0.5" stroke="black" d="M 313 178 291 150"/>
<path stroke-width="0.5" stroke="black" d="M 313 178 191 174"/>
<path stroke-width="0.5" stroke="black" d="M 313 178 295 257"/>
<path stroke-width="0.5" stroke="black" d="M 313 178 194 223"/>
<path stroke-width="0.5" stroke="black" d="M 313 178 329 154"/>
<path stroke-width="0.5" stroke="black" d="M 313 178 287 267"/>
<path stroke-width="0.5" stroke="black" d="M 313 178 189 112"/>
<path stroke-width="0.5" stroke="black" d="M 313 178 304 204"/>
<path stroke-width="0.5" stroke="black" d="M 313 178 287 241"/>
<path stroke-width="0.5" stroke="black" d="M 212 123 240 191"/>
<path stroke-width="0.5" stroke="black" d="M 212 123 256 94"/>
<path stroke-width="0.5" stroke="black" d="M 212 123 287 267"/>
<path stroke-width="0.5" stroke="black" d="M 212 123 254 113"/>
<path stroke-width="0.5" stroke="black" d="M 212 123 210 137"/>
<path stroke-width="0.5" stroke="black" d="M 212 123 291 150"/>
<path stroke-width="0.5" stroke="black" d="M 212 123 191 174"/>
<path stroke-width="0.5" stroke="black" d="M 313 178 253 155"/>
<path stroke-width="0.5" stroke="black" d="M 212 123 295 257"/>
<path stroke-width="0.5" stroke="black" d="M 212 123 329 154"/>
<path stroke-width="0.5" stroke="black" d="M 212 123 189 112"/>
<path stroke-width="10.545454545454545" stroke="black" d="M 354 183 313 178"/>
<path stroke-width="0.5" stroke="black" d="M 313 178 284 120"/>
<path stroke-width="0.5" stroke="black" d="M 313 178 280 208"/>
<path stroke-width="0.5" stroke="black" d="M 313 178 231 266"/>
<path stroke-width="0.5" stroke="black" d="M 313 178 223 230"/>
<path stroke-width="0.5" stroke="black" d="M 212 123 194 223"/>
<path stroke-width="9.757575757575758" stroke="black" d="M 216 212 240 191"/>
<path stroke-width="0.5" stroke="black" d="M 240 191 284 120"/>
<path stroke-width="0.5" stroke="black" d="M 240 191 280 208"/>
<path stroke-width="0.5" stroke="black" d="M 240 191 329 154"/>
<path stroke-width="0.5" stroke="black" d="M 240 191 189 112"/>
<path stroke-width="8.969696969696969" stroke="black" d="M 264 28 256 94"/>
<path stroke-width="0.5" stroke="black" d="M 256 94 284 120"/>
<path stroke-width="0.5" stroke="black" d="M 256 94 280 208"/>
<path stroke-width="0.5" stroke="black" d="M 256 94 231 266"/>
<path stroke-width="0.5" stroke="black" d="M 256 94 223 230"/>
<path stroke-width="0.5" stroke="black" d="M 240 191 194 223"/>
<path stroke-width="0.5" stroke="black" d="M 256 94 287 241"/>
<path stroke-width="0.5" stroke="black" d="M 256 94 304 204"/>
<path stroke-width="0.5" stroke="black" d="M 256 94 310 148"/>
<path stroke-width="0.7954545454545454" stroke="black" d="M 256 94 204 183"/>
<path stroke-width="0.5" stroke="black" d="M 256 94 279 94"/>
<path stroke-width="0.5" stroke="black" d="M 256 94 295 224"/>
<path stroke-width="0.5" stroke="black" d="M 256 94 198 199"/>
<path stroke-width="0.5" stroke="black" d="M 256 94 212 123"/>
<path stroke-width="0.5" stroke="black" d="M 256 94 253 155"/>
<path stroke-width="0.5" stroke="black" d="M 240 191 295 257"/>
<path stroke-width="0.5" stroke="black" d="M 240 191 191 174"/>
<path stroke-width="0.5" stroke="black" d="M 240 191 291 150"/>
<path stroke-width="0.5" stroke="black" d="M 240 191 231 266"/>
<path stroke-width="0.5" stroke="black" d="M 240 191 223 230"/>
<path stroke-width="0.5" stroke="black" d="M 240 191 287 241"/>
<path stroke-width="0.5" stroke="black" d="M 240 191 253 155"/>
<path stroke-width="0.5" stroke="black" d="M 240 191 304 204"/>
<path stroke-width="0.5" stroke="black" d="M 240 191 310 148"/>
<path stroke-width="0.5" stroke="black" d="M 240 191 204 183"/>
<path stroke-width="0.7954545454545454" stroke="black" d="M 240 191 279 94"/>
<path stroke-width="0.5" stroke="black" d="M 240 191 295 224"/>
<path stroke-width="0.5" stroke="black" d="M 240 191 198 199"/>
<path stroke-width="0.5" stroke="black" d="M 240 191 212 123"/>
<path stroke-width="0.5" stroke="black" d="M 240 191 313 178"/>
<path stroke-width="9.757575757575758" stroke="black" d="M 240 191 216 212"/>
<path stroke-width="0.5" stroke="black" d="M 240 191 256 94"/>
<path stroke-width="0.5" stroke="black" d="M 240 191 287 267"/>
<path stroke-width="0.5" stroke="black" d="M 240 191 254 113"/>
<path stroke-width="0.5" stroke="black" d="M 240 191 210 137"/>
<path stroke-width="0.5" stroke="black" d="M 256 94 240 191"/>
<path stroke-width="0.5" stroke="black" d="M 210 137 254 113"/>
<path stroke-width="6.606060606060606" stroke="black" d="M 210 137 161 116"/>
<path stroke-width="0.5" stroke="black" d="M 210 137 291 150"/>
<path stroke-width="0.5" stroke="black" d="M 194 223 210 137"/>
<path stroke-width="0.5" stroke="black" d="M 194 223 291 150"/>
<path stroke-width="0.5" stroke="black" d="M 194 223 191 174"/>
<path stroke-width="0.5" stroke="black" d="M 194 223 295 257"/>
<path stroke-width="3.4545454545454546" stroke="black" d="M 194 223 116 247"/>
<path stroke-width="0.5" stroke="black" d="M 194 223 329 154"/>
<path stroke-width="0.5" stroke="black" d="M 194 223 189 112"/>
<path stroke-width="0.5" stroke="black" d="M 194 223 254 113"/>
<path stroke-width="3.0606060606060606" stroke="black" d="M 420 143 329 154"/>
<path stroke-width="0.5" stroke="black" d="M 329 154 280 208"/>
<path stroke-width="0.5" stroke="black" d="M 329 154 231 266"/>
<path stroke-width="0.5" stroke="black" d="M 329 154 223 230"/>
<path stroke-width="0.5" stroke="black" d="M 329 154 287 241"/>
<path stroke-width="0.5" stroke="black" d="M 329 154 253 155"/>
<path stroke-width="0.5" stroke="black" d="M 329 154 304 204"/>
<path stroke-width="0.5" stroke="black" d="M 329 154 310 148"/>
<path stroke-width="0.7954545454545454" stroke="black" d="M 329 154 284 120"/>
<path stroke-width="0.5" stroke="black" d="M 329 154 204 183"/>
<path stroke-width="0.5" stroke="black" d="M 194 223 287 267"/>
<path stroke-width="0.5" stroke="black" d="M 194 223 240 191"/>
<path stroke-width="0.5" stroke="black" d="M 295 257 189 112"/>
<path stroke-width="3.4545454545454546" stroke="black" d="M 116 247 194 223"/>
<path stroke-width="0.5" stroke="black" d="M 194 223 284 120"/>
<path stroke-width="0.7954545454545454" stroke="black" d="M 194 223 280 208"/>
<path stroke-width="0.5" stroke="black" d="M 194 223 231 266"/>
<path stroke-width="0.5" stroke="black" d="M 194 223 223 230"/>
<path stroke-width="0.5" stroke="black" d="M 194 223 287 241"/>
<path stroke-width="0.5" stroke="black" d="M 194 223 256 94"/>
<path stroke-width="0.5" stroke="black" d="M 194 223 253 155"/>
<path stroke-width="0.5" stroke="black" d="M 194 223 310 148"/>
<path stroke-width="0.5" stroke="black" d="M 194 223 204 183"/>
<path stroke-width="0.5" stroke="black" d="M 194 223 279 94"/>
<path stroke-width="0.5" stroke="black" d="M 194 223 295 224"/>
<path stroke-width="0.5" stroke="black" d="M 194 223 198 199"/>
<path stroke-width="0.5" stroke="black" d="M 194 223 212 123"/>
<path stroke-width="0.5" stroke="black" d="M 194 223 313 178"/>
<path stroke-width="0.5" stroke="black" d="M 194 223 304 204"/>
<path stroke-width="0.5" stroke="black" d="M 329 154 279 94"/>
<path stroke-width="0.5" stroke="black" d="M 329 154 295 224"/>
<path stroke-width="0.5" stroke="black" d="M 329 154 198 199"/>
<path stroke-width="0.5" stroke="black" d="M 189 112 310 148"/>
<path stroke-width="0.5" stroke="black" d="M 189 112 204 183"/>
<path stroke-width="0.5" stroke="black" d="M 189 112 279 94"/>
<path stroke-width="0.5" stroke="black" d="M 189 112 295 224"/>
<path stroke-width="0.5" stroke="black" d="M 189 112 198 199"/>
<path stroke-width="0.5" stroke="black" d="M 189 112 212 123"/>
<path stroke-width="0.5" stroke="black" d="M 189 112 313 178"/>
<path stroke-width="0.5" stroke="black" d="M 189 112 304 204"/>
<path stroke-width="0.5" stroke="black" d="M 189 112 240 191"/>
<path stroke-width="0.5" stroke="black" d="M 189 112 287 267"/>
<path stroke-width="0.5" stroke="black" d="M 189 112 254 113"/>
<path stroke-width="0.5" stroke="black" d="M 189 112 210 137"/>
<path stroke-width="0.5" stroke="black" d="M 189 112 291 150"/>
<path stroke-width="0.5" stroke="black" d="M 189 112 191 174"/>
<path stroke-width="0.5" stroke="black" d="M 189 112 295 257"/>
<path stroke-width="0.5" stroke="black" d="M 189 112 194 223"/>
<path stroke-width="0.5" stroke="black" d="M 189 112 256 94"/>
<path stroke-width="0.5" stroke="black" d="M 189 112 253 155"/>
<path stroke-width="0.5" stroke="black" d="M 189 112 287 241"/>
<path stroke-width="0.5" stroke="black" d="M 189 112 223 230"/>
<path stroke-width="0.5" stroke="black" d="M 329 154 212 123"/>
<path stroke-width="0.5" stroke="black" d="M 329 154 313 178"/>
<path stroke-width="0.5" stroke="black" d="M 329 154 240 191"/>
<path stroke-width="0.5" stroke="black" d="M 329 154 256 94"/>
<path stroke-width="0.5" stroke="black" d="M 329 154 287 267"/>
<path stroke-width="0.5" stroke="black" d="M 329 154 254 113"/>
<path stroke-width="0.5" stroke="black" d="M 329 154 210 137"/>
<path stroke-width="0.5" stroke="black" d="M 329 154 291 150"/>
<path stroke-width="0.5" stroke="black" d="M 329 154 191 174"/>
<path stroke-width="0.5" stroke="black" d="M 329 154 295 257"/>
<path stroke-width="0.5" stroke="black" d="M 329 154 194 223"/>
<path stroke-width="3.0606060606060606" stroke="black" d="M 329 154 420 143"/>
<path stroke-width="0.5" stroke="black" d="M 329 154 189 112"/>
<path stroke-width="1.0909090909090908" stroke="black" d="M 20 20 189 112"/>
<path stroke-width="0.5" stroke="black" d="M 189 112 284 120"/>
<path stroke-width="0.5" stroke="black" d="M 189 112 280 208"/>
<path stroke-width="0.5" stroke="black" d="M 189 112 231 266"/>
<path stroke-width="0.5" stroke="black" d="M 295 257 329 154"/>
<path stroke-width="0.5" stroke="black" d="M 295 257 194 223"/>
<path stroke-width="4.242424242424242" stroke="black" d="M 295 257 355 306"/>
<path stroke-width="0.5" stroke="black" d="M 295 257 191 174"/>
<path stroke-width="0.5" stroke="black" d="M 291 150 256 94"/>
<path stroke-width="0.5" stroke="black" d="M 291 150 287 267"/>
<path stroke-width="0.5" stroke="black" d="M 291 150 254 113"/>
<path stroke-width="0.5" stroke="black" d="M 291 150 210 137"/>
<path stroke-width="5.818181818181818" stroke="black" d="M 291 150 339 119"/>
<path stroke-width="0.5" stroke="black" d="M 291 150 191 174"/>
<path stroke-width="0.5" stroke="black" d="M 291 150 295 257"/>
<path stroke-width="0.5" stroke="black" d="M 291 150 240 191"/>
<path stroke-width="0.5" stroke="black" d="M 291 150 194 223"/>
<path stroke-width="0.5" stroke="black" d="M 291 150 189 112"/>
<path stroke-width="5.03030303030303" stroke="black" d="M 128 172 191 174"/>
<path stroke-width="0.5" stroke="black" d="M 191 174 284 120"/>
<path stroke-width="0.5" stroke="black" d="M 191 174 280 208"/>
<path stroke-width="0.5" stroke="black" d="M 191 174 231 266"/>
<path stroke-width="0.7954545454545454" stroke="black" d="M 191 174 223 230"/>
<path stroke-width="0.5" stroke="black" d="M 191 174 287 241"/>
<path stroke-width="0.5" stroke="black" d="M 291 150 329 154"/>
<path stroke-width="0.5" stroke="black" d="M 291 150 313 178"/>
<path stroke-width="0.5" stroke="black" d="M 291 150 212 123"/>
<path stroke-width="0.5" stroke="black" d="M 291 150 198 199"/>
<path stroke-width="0.5" stroke="black" d="M 210 137 191 174"/>
<path stroke-width="0.5" stroke="black" d="M 210 137 295 257"/>
<path stroke-width="0.5" stroke="black" d="M 210 137 194 223"/>
<path stroke-width="0.5" stroke="black" d="M 210 137 329 154"/>
<path stroke-width="0.5" stroke="black" d="M 210 137 189 112"/>
<path stroke-width="5.818181818181818" stroke="black" d="M 339 119 291 150"/>
<path stroke-width="0.5" stroke="black" d="M 291 150 284 120"/>
<path stroke-width="0.5" stroke="black" d="M 291 150 280 208"/>
<path stroke-width="0.5" stroke="black" d="M 291 150 231 266"/>
<path stroke-width="0.5" stroke="black" d="M 291 150 223 230"/>
<path stroke-width="0.7954545454545454" stroke="black" d="M 291 150 287 241"/>
<path stroke-width="0.5" stroke="black" d="M 291 150 253 155"/>
<path stroke-width="0.5" stroke="black" d="M 291 150 304 204"/>
<path stroke-width="0.5" stroke="black" d="M 291 150 310 148"/>
<path stroke-width="0.5" stroke="black" d="M 291 150 204 183"/>
<path stroke-width="0.5" stroke="black" d="M 291 150 279 94"/>
<path stroke-width="0.5" stroke="black" d="M 291 150 295 224"/>
<path stroke-width="0.5" stroke="black" d="M 191 174 253 155"/>
<path stroke-width="0.5" stroke="black" d="M 212 123 313 178"/>
<path stroke-width="0.5" stroke="black" d="M 191 174 304 204"/>
<path stroke-width="0.5" stroke="black" d="M 191 174 204 183"/>
<path stroke-width="0.5" stroke="black" d="M 295 257 287 241"/>
<path stroke-width="0.5" stroke="black" d="M 295 257 253 155"/>
<path stroke-width="0.5" stroke="black" d="M 295 257 304 204"/>
<path stroke-width="0.5" stroke="black" d="M 295 257 310 148"/>
<path stroke-width="0.5" stroke="black" d="M 295 257 204 183"/>
<path stroke-width="0.5" stroke="black" d="M 295 257 279 94"/>
<path stroke-width="0.5" stroke="black" d="M 295 257 295 224"/>
<path stroke-width="0.5" stroke="black" d="M 295 257 223 230"/>
<path stroke-width="0.5" stroke="black" d="M 295 257 198 199"/>
<path stroke-width="0.5" stroke="black" d="M 295 257 313 178"/>
<path stroke-width="0.5" stroke="black" d="M 295 257 240 191"/>
<path stroke-width="0.5" stroke="black" d="M 295 257 256 94"/>
<path stroke-width="0.5" stroke="black" d="M 295 257 287 267"/>
<path stroke-width="0.5" stroke="black" d="M 295 257 254 113"/>
<path stroke-width="0.5" stroke="black" d="M 295 257 210 137"/>
<path stroke-width="0.5" stroke="black" d="M 295 257 291 150"/>
<path stroke-width="0.5" stroke="black" d="M 295 257 212 123"/>
<path stroke-width="0.7954545454545454" stroke="black" d="M 295 257 231 266"/>
<path stroke-width="0.5" stroke="black" d="M 295 257 280 208"/>
<path stroke-width="0.5" stroke="black" d="M 295 257 284 120"/>
<path stroke-width="0.5" stroke="black" d="M 191 174 279 94"/>
<path stroke-width="0.5" stroke="black" d="M 191 174 295 224"/>
<path stroke-width="0.5" stroke="black" d="M 191 174 198 199"/>
<path stroke-width="0.5" stroke="black" d="M 191 174 212 123"/>
<path stroke-width="0.5" stroke="black" d="M 191 174 313 178"/>
<path stroke-width="0.5" stroke="black" d="M 191 174 240 191"/>
<path stroke-width="0.5" stroke="black" d="M 191 174 256 94"/>
<path stroke-width="0.5" stroke="black" d="M 191 174 287 267"/>
<path stroke-width="0.5" stroke="black" d="M 191 174 254 113"/>
<path stroke-width="0.5" stroke="black" d="M 191 174 210 137"/>
<path stroke-width="0.5" stroke="black" d="M 191 174 291 150"/>
<path stroke-width="5.03030303030303" stroke="black" d="M 191 174 128 172"/>
<path stroke-width="0.5" stroke="black" d="M 191 174 295 257"/>
<path stroke-width="0.5" stroke="black" d="M 191 174 194 223"/>
<path stroke-width="0.5" stroke="black" d="M 191 174 329 154"/>
<path stroke-width="0.5" stroke="black" d="M 191 174 189 112"/>
<path stroke-width="4.242424242424242" stroke="black" d="M 355 306 295 257"/>
<path stroke-width="0.5" stroke="black" d="M 191 174 310 148"/>
<path stroke-width="11.333333333333334" stroke="black" d="M 212 123 180 93"/>
<path stroke-width="0.7954545454545454" stroke="black" d="M 212 123 198 199"/>
<path stroke-width="0.5" stroke="black" d="M 212 123 295 224"/>
<path stroke-width="0.5" stroke="black" d="M 223 230 189 112"/>
<path stroke-width="17.242424242424242" stroke="black" d="M 311 270 287 241"/>
<path stroke-width="0.5" stroke="black" d="M 287 241 284 120"/>
<path stroke-width="0.5" stroke="black" d="M 287 241 280 208"/>
<path stroke-width="0.5" stroke="black" d="M 287 241 231 266"/>
<path stroke-width="0.5" stroke="black" d="M 287 241 223 230"/>
<path stroke-width="17.242424242424242" stroke="black" d="M 287 241 311 270"/>
<path stroke-width="0.5" stroke="black" d="M 223 230 329 154"/>
<path stroke-width="0.5" stroke="black" d="M 287 241 253 155"/>
<path stroke-width="0.5" stroke="black" d="M 287 241 310 148"/>
<path stroke-width="0.5" stroke="black" d="M 287 241 204 183"/>
<path stroke-width="0.5" stroke="black" d="M 287 241 279 94"/>
<path stroke-width="0.5" stroke="black" d="M 287 241 295 224"/>
<path stroke-width="0.5" stroke="black" d="M 287 241 198 199"/>
<path stroke-width="0.5" stroke="black" d="M 287 241 212 123"/>
<path stroke-width="0.5" stroke="black" d="M 287 241 313 178"/>
<path stroke-width="0.5" stroke="black" d="M 287 241 304 204"/>
<path stroke-width="0.5" stroke="black" d="M 287 241 240 191"/>
<path stroke-width="0.5" stroke="black" d="M 223 230 194 223"/>
<path stroke-width="0.7954545454545454" stroke="black" d="M 223 230 191 174"/>
<path stroke-width="0.5" stroke="black" d="M 223 230 287 241"/>
<path stroke-width="0.5" stroke="black" d="M 223 230 253 155"/>
<path stroke-width="0.5" stroke="black" d="M 223 230 304 204"/>
<path stroke-width="0.5" stroke="black" d="M 223 230 310 148"/>
<path stroke-width="0.5" stroke="black" d="M 223 230 204 183"/>
<path stroke-width="0.5" stroke="black" d="M 223 230 279 94"/>
<path stroke-width="0.5" stroke="black" d="M 223 230 295 224"/>
<path stroke-width="0.5" stroke="black" d="M 223 230 295 257"/>
<path stroke-width="0.5" stroke="black" d="M 223 230 198 199"/>
<path stroke-width="0.5" stroke="black" d="M 223 230 313 178"/>
<path stroke-width="0.5" stroke="black" d="M 223 230 240 191"/>
<path stroke-width="0.5" stroke="black" d="M 223 230 256 94"/>
<path stroke-width="0.5" stroke="black" d="M 223 230 287 267"/>
<path stroke-width="0.5" stroke="black" d="M 223 230 254 113"/>
<path stroke-width="0.5" stroke="black" d="M 223 230 210 137"/>
<path stroke-width="0.5" stroke="black" d="M 223 230 291 150"/>
<path stroke-width="0.5" stroke="black" d="M 223 230 212 123"/>
<path stroke-width="0.5" stroke="black" d="M 287 241 256 94"/>
<path stroke-width="0.5" stroke="black" d="M 287 241 287 267"/>
<path stroke-width="0.5" stroke="black" d="M 287 241 254 113"/>
<path stroke-width="0.5" stroke="black" d="M 253 155 313 178"/>
<path stroke-width="0.5" stroke="black" d="M 253 155 240 191"/>
<path stroke-width="0.5" stroke="black" d="M 253 155 256 94"/>
<path stroke-width="0.5" stroke="black" d="M 253 155 287 267"/>
<path stroke-width="0.5" stroke="black" d="M 253 155 254 113"/>
<path stroke-width="0.7954545454545454" stroke="black" d="M 253 155 210 137"/>
<path stroke-width="0.5" stroke="black" d="M 253 155 291 150"/>
<path stroke-width="0.5" stroke="black" d="M 253 155 212 123"/>
<path stroke-width="0.5" stroke="black" d="M 253 155 191 174"/>
<path stroke-width="0.5" stroke="black" d="M 253 155 194 223"/>
<path stroke-width="0.5" stroke="black" d="M 253 155 329 154"/>
<path stroke-width="0.5" stroke="black" d="M 253 155 189 112"/>
<path stroke-width="15.666666666666666" stroke="black" d="M 335 221 304 204"/>
<path stroke-width="0.5" stroke="black" d="M 304 204 284 120"/>
<path stroke-width="0.5" stroke="black" d="M 304 204 280 208"/>
<path stroke-width="0.5" stroke="black" d="M 304 204 231 266"/>
<path stroke-width="0.5" stroke="black" d="M 253 155 295 257"/>
<path stroke-width="0.5" stroke="black" d="M 253 155 198 199"/>
<path stroke-width="0.5" stroke="black" d="M 253 155 295 224"/>
<path stroke-width="0.5" stroke="black" d="M 253 155 279 94"/>
<path stroke-width="0.5" stroke="black" d="M 287 241 210 137"/>
<path stroke-width="0.7954545454545454" stroke="black" d="M 287 241 291 150"/>
<path stroke-width="0.5" stroke="black" d="M 287 241 191 174"/>
<path stroke-width="0.5" stroke="black" d="M 287 241 295 257"/>
<path stroke-width="0.5" stroke="black" d="M 287 241 194 223"/>
<path stroke-width="0.5" stroke="black" d="M 287 241 329 154"/>
<path stroke-width="0.5" stroke="black" d="M 287 241 189 112"/>
<path stroke-width="16.454545454545453" stroke="black" d="M 226 131 253 155"/>
<path stroke-width="0.5" stroke="black" d="M 253 155 284 120"/>
<path stroke-width="0.5" stroke="black" d="M 253 155 280 208"/>
<path stroke-width="0.5" stroke="black" d="M 253 155 231 266"/>
<path stroke-width="0.5" stroke="black" d="M 253 155 223 230"/>
<path stroke-width="0.5" stroke="black" d="M 253 155 287 241"/>
<path stroke-width="16.454545454545453" stroke="black" d="M 253 155 226 131"/>
<path stroke-width="0.5" stroke="black" d="M 253 155 304 204"/>
<path stroke-width="0.5" stroke="black" d="M 253 155 310 148"/>
<path stroke-width="0.5" stroke="black" d="M 253 155 204 183"/>
<path stroke-width="18.03030303030303" stroke="black" d="M 223 230 201 256"/>
<path stroke-width="0.5" stroke="black" d="M 223 230 231 266"/>
<path stroke-width="0.5" stroke="black" d="M 223 230 280 208"/>
<path stroke-width="0.5" stroke="black" d="M 223 230 284 120"/>
<path stroke-width="0.5" stroke="black" d="M 284 120 295 257"/>
<path stroke-width="0.5" stroke="black" d="M 284 120 194 223"/>
<path stroke-width="0.7954545454545454" stroke="black" d="M 284 120 329 154"/>
<path stroke-width="0.5" stroke="black" d="M 284 120 189 112"/>
<path stroke-width="19.606060606060606" stroke="black" d="M 303 221 280 208"/>
<path stroke-width="0.5" stroke="black" d="M 280 208 284 120"/>
<path stroke-width="19.606060606060606" stroke="black" d="M 280 208 303 221"/>
<path stroke-width="0.5" stroke="black" d="M 284 120 191 174"/>
<path stroke-width="0.5" stroke="black" d="M 280 208 231 266"/>
<path stroke-width="0.5" stroke="black" d="M 280 208 287 241"/>
<path stroke-width="0.5" stroke="black" d="M 280 208 253 155"/>
<path stroke-width="0.5" stroke="black" d="M 280 208 304 204"/>
<path stroke-width="0.5" stroke="black" d="M 280 208 310 148"/>
<path stroke-width="0.5" stroke="black" d="M 280 208 204 183"/>
<path stroke-width="0.5" stroke="black" d="M 280 208 279 94"/>
<path stroke-width="0.5" stroke="black" d="M 280 208 295 224"/>
<path stroke-width="0.5" stroke="black" d="M 280 208 223 230"/>
<path stroke-width="0.5" stroke="black" d="M 284 120 291 150"/>
<path stroke-width="0.5" stroke="black" d="M 284 120 210 137"/>
<path stroke-width="0.5" stroke="black" d="M 284 120 254 113"/>
<path stroke-width="20.0" stroke="black" d="M 284 120 303 91"/>
<path stroke-width="0.5" stroke="black" d="M 284 120 280 208"/>
<path stroke-width="0.5" stroke="black" d="M 284 120 231 266"/>
<path stroke-width="0.5" stroke="black" d="M 284 120 223 230"/>
<path stroke-width="0.5" stroke="black" d="M 284 120 287 241"/>
<path stroke-width="0.5" stroke="black" d="M 284 120 253 155"/>
<path stroke-width="0.5" stroke="black" d="M 284 120 304 204"/>
<path stroke-width="0.5" stroke="black" d="M 284 120 310 148"/>
<path stroke-width="0.5" stroke="black" d="M 284 120 204 183"/>
<path stroke-width="0.5" stroke="black" d="M 284 120 279 94"/>
<path stroke-width="0.5" stroke="black" d="M 284 120 295 224"/>
<path stroke-width="0.5" stroke="black" d="M 284 120 198 199"/>
<path stroke-width="0.5" stroke="black" d="M 284 120 212 123"/>
<path stroke-width="0.5" stroke="black" d="M 284 120 313 178"/>
<path stroke-width="0.5" stroke="black" d="M 284 120 240 191"/>
<path stroke-width="0.5" stroke="black" d="M 284 120 256 94"/>
<path stroke-width="0.5" stroke="black" d="M 284 120 287 267"/>
<path stroke-width="0.5" stroke="black" d="M 280 208 198 199"/>
<path stroke-width="0.5" stroke="black" d="M 304 204 223 230"/>
<path stroke-width="0.5" stroke="black" d="M 280 208 212 123"/>
<path stroke-width="0.5" stroke="black" d="M 280 208 240 191"/>
<path stroke-width="0.5" stroke="black" d="M 231 266 295 224"/>
<path stroke-width="0.5" stroke="black" d="M 231 266 198 199"/>
<path stroke-width="0.5" stroke="black" d="M 231 266 212 123"/>
<path stroke-width="0.5" stroke="black" d="M 231 266 313 178"/>
<path stroke-width="0.5" stroke="black" d="M 231 266 240 191"/>
<path stroke-width="0.5" stroke="black" d="M 231 266 256 94"/>
<path stroke-width="0.5" stroke="black" d="M 231 266 287 267"/>
<path stroke-width="0.5" stroke="black" d="M 231 266 279 94"/>
<path stroke-width="0.5" stroke="black" d="M 231 266 254 113"/>
<path stroke-width="0.5" stroke="black" d="M 231 266 291 150"/>
<path stroke-width="0.5" stroke="black" d="M 231 266 191 174"/>
<path stroke-width="0.7954545454545454" stroke="black" d="M 231 266 295 257"/>
<path stroke-width="0.5" stroke="black" d="M 231 266 194 223"/>
<path stroke-width="0.5" stroke="black" d="M 231 266 329 154"/>
<path stroke-width="0.5" stroke="black" d="M 231 266 189 112"/>
<path stroke-width="18.03030303030303" stroke="black" d="M 201 256 223 230"/>
<path stroke-width="0.5" stroke="black" d="M 231 266 210 137"/>
<path stroke-width="0.5" stroke="black" d="M 231 266 204 183"/>
<path stroke-width="0.5" stroke="black" d="M 231 266 310 148"/>
<path stroke-width="0.5" stroke="black" d="M 231 266 304 204"/>
<path stroke-width="0.5" stroke="black" d="M 280 208 256 94"/>
<path stroke-width="0.5" stroke="black" d="M 280 208 287 267"/>
<path stroke-width="0.5" stroke="black" d="M 280 208 254 113"/>
<path stroke-width="0.5" stroke="black" d="M 280 208 210 137"/>
<path stroke-width="0.5" stroke="black" d="M 280 208 291 150"/>
<path stroke-width="0.5" stroke="black" d="M 280 208 191 174"/>
<path stroke-width="0.5" stroke="black" d="M 280 208 295 257"/>
<path stroke-width="0.7954545454545454" stroke="black" d="M 280 208 194 223"/>
<path stroke-width="0.5" stroke="black" d="M 280 208 329 154"/>
<path stroke-width="0.5" stroke="black" d="M 280 208 189 112"/>
<path stroke-width="18.818181818181817" stroke="black" d="M 213 301 231 266"/>
<path stroke-width="0.5" stroke="black" d="M 231 266 284 120"/>
<path stroke-width="0.5" stroke="black" d="M 231 266 280 208"/>
<path stroke-width="18.818181818181817" stroke="black" d="M 231 266 213 301"/>
<path stroke-width="0.5" stroke="black" d="M 231 266 223 230"/>
<path stroke-width="0.5" stroke="black" d="M 231 266 287 241"/>
<path stroke-width="0.5" stroke="black" d="M 231 266 253 155"/>
<path stroke-width="0.5" stroke="black" d="M 280 208 313 178"/>
<path stroke-width="0.5" stroke="black" d="M 189 112 329 154"/>
<path stroke-width="0.5" stroke="black" d="M 304 204 287 241"/>
<path stroke-width="15.666666666666666" stroke="black" d="M 304 204 335 221"/>
<path stroke-width="0.5" stroke="black" d="M 295 224 253 155"/>
<path stroke-width="0.5" stroke="black" d="M 295 224 304 204"/>
<path stroke-width="0.5" stroke="black" d="M 295 224 310 148"/>
<path stroke-width="0.5" stroke="black" d="M 295 224 204 183"/>
<path stroke-width="0.5" stroke="black" d="M 295 224 279 94"/>
<path stroke-width="12.515151515151516" stroke="black" d="M 295 224 327 252"/>
<path stroke-width="0.5" stroke="black" d="M 295 224 198 199"/>
<path stroke-width="0.5" stroke="black" d="M 295 224 287 241"/>
<path stroke-width="0.5" stroke="black" d="M 295 224 212 123"/>
<path stroke-width="0.5" stroke="black" d="M 295 224 240 191"/>
<path stroke-width="0.5" stroke="black" d="M 295 224 256 94"/>
<path stroke-width="0.5" stroke="black" d="M 295 224 287 267"/>
<path stroke-width="0.5" stroke="black" d="M 295 224 254 113"/>
<path stroke-width="0.5" stroke="black" d="M 295 224 210 137"/>
<path stroke-width="0.5" stroke="black" d="M 295 224 291 150"/>
<path stroke-width="0.5" stroke="black" d="M 295 224 191 174"/>
<path stroke-width="0.7954545454545454" stroke="black" d="M 295 224 313 178"/>
<path stroke-width="0.5" stroke="black" d="M 295 224 295 257"/>
<path stroke-width="0.5" stroke="black" d="M 295 224 223 230"/>
<path stroke-width="0.5" stroke="black" d="M 295 224 280 208"/>
<path stroke-width="0.5" stroke="black" d="M 279 94 198 199"/>
<path stroke-width="0.5" stroke="black" d="M 279 94 212 123"/>
<path stroke-width="0.5" stroke="black" d="M 279 94 313 178"/>
<path stroke-width="0.7954545454545454" stroke="black" d="M 279 94 240 191"/>
<path stroke-width="0.5" stroke="black" d="M 279 94 256 94"/>
<path stroke-width="0.5" stroke="black" d="M 279 94 287 267"/>
<path stroke-width="0.5" stroke="black" d="M 279 94 254 113"/>
<path stroke-width="0.5" stroke="black" d="M 295 224 231 266"/>
<path stroke-width="0.5" stroke="black" d="M 279 94 210 137"/>
<path stroke-width="0.5" stroke="black" d="M 279 94 191 174"/>
<path stroke-width="0.5" stroke="black" d="M 279 94 295 257"/>
<path stroke-width="0.5" stroke="black" d="M 279 94 194 223"/>
<path stroke-width="0.5" stroke="black" d="M 279 94 329 154"/>
<path stroke-width="0.5" stroke="black" d="M 279 94 189 112"/>
<path stroke-width="12.515151515151516" stroke="black" d="M 327 252 295 224"/>
<path stroke-width="0.5" stroke="black" d="M 295 224 284 120"/>
<path stroke-width="0.5" stroke="black" d="M 279 94 291 150"/>
<path stroke-width="0.5" stroke="black" d="M 295 224 194 223"/>
<path stroke-width="0.5" stroke="black" d="M 295 224 329 154"/>
<path stroke-width="0.5" stroke="black" d="M 295 224 189 112"/>
<path stroke-width="0.5" stroke="black" d="M 198 199 191 174"/>
<path stroke-width="0.5" stroke="black" d="M 198 199 295 257"/>
<path stroke-width="0.5" stroke="black" d="M 198 199 194 223"/>
<path stroke-width="0.5" stroke="black" d="M 198 199 329 154"/>
<path stroke-width="0.5" stroke="black" d="M 198 199 189 112"/>
<path stroke-width="11.333333333333334" stroke="black" d="M 180 93 212 123"/>
<path stroke-width="0.5" stroke="black" d="M 212 123 284 120"/>
<path stroke-width="0.5" stroke="black" d="M 198 199 291 150"/>
<path stroke-width="0.5" stroke="black" d="M 212 123 280 208"/>
<path stroke-width="0.5" stroke="black" d="M 212 123 223 230"/>
<path stroke-width="0.5" stroke="black" d="M 212 123 287 241"/>
<path stroke-width="0.5" stroke="black" d="M 212 123 253 155"/>
<path stroke-width="0.5" stroke="black" d="M 212 123 304 204"/>
<path stroke-width="0.5" stroke="black" d="M 212 123 310 148"/>
<path stroke-width="0.5" stroke="black" d="M 212 123 204 183"/>
<path stroke-width="0.5" stroke="black" d="M 212 123 279 94"/>
<path stroke-width="0.5" stroke="black" d="M 212 123 231 266"/>
<path stroke-width="0.5" stroke="black" d="M 198 199 210 137"/>
<path stroke-width="0.5" stroke="black" d="M 198 199 254 113"/>
<path stroke-width="0.5" stroke="black" d="M 198 199 287 267"/>
<path stroke-width="11.727272727272727" stroke="black" d="M 160 211 198 199"/>
<path stroke-width="0.5" stroke="black" d="M 198 199 284 120"/>
<path stroke-width="0.5" stroke="black" d="M 198 199 280 208"/>
<path stroke-width="0.5" stroke="black" d="M 198 199 231 266"/>
<path stroke-width="0.5" stroke="black" d="M 198 199 223 230"/>
<path stroke-width="0.5" stroke="black" d="M 198 199 287 241"/>
<path stroke-width="0.5" stroke="black" d="M 198 199 253 155"/>
<path stroke-width="0.5" stroke="black" d="M 198 199 304 204"/>
<path stroke-width="0.5" stroke="black" d="M 198 199 310 148"/>
<path stroke-width="0.5" stroke="black" d="M 198 199 204 183"/>
<path stroke-width="0.5" stroke="black" d="M 198 199 279 94"/>
<path stroke-width="0.5" stroke="black" d="M 198 199 295 224"/>
<path stroke-width="11.727272727272727" stroke="black" d="M 198 199 160 211"/>
<path stroke-width="0.7954545454545454" stroke="black" d="M 198 199 212 123"/>
<path stroke-width="0.5" stroke="black" d="M 198 199 313 178"/>
<path stroke-width="0.5" stroke="black" d="M 198 199 240 191"/>
<path stroke-width="0.5" stroke="black" d="M 198 199 256 94"/>
<path stroke-width="0.5" stroke="black" d="M 279 94 295 224"/>
<path stroke-width="13.303030303030303" stroke="black" d="M 279 94 299 48"/>
<path stroke-width="0.5" stroke="black" d="M 279 94 204 183"/>
<path stroke-width="0.5" stroke="black" d="M 279 94 310 148"/>
<path stroke-width="0.5" stroke="black" d="M 310 148 231 266"/>
<path stroke-width="0.5" stroke="black" d="M 310 148 223 230"/>
<path stroke-width="0.5" stroke="black" d="M 310 148 287 241"/>
<path stroke-width="0.5" stroke="black" d="M 310 148 253 155"/>
<path stroke-width="0.5" stroke="black" d="M 310 148 304 204"/>
<path stroke-width="14.878787878787879" stroke="black" d="M 310 148 343 135"/>
<path stroke-width="0.5" stroke="black" d="M 310 148 204 183"/>
<path stroke-width="0.5" stroke="black" d="M 310 148 280 208"/>
<path stroke-width="0.5" stroke="black" d="M 310 148 279 94"/>
<path stroke-width="0.5" stroke="black" d="M 310 148 198 199"/>
<path stroke-width="0.5" stroke="black" d="M 310 148 212 123"/>
<path stroke-width="0.5" stroke="black" d="M 310 148 313 178"/>
<path stroke-width="0.5" stroke="black" d="M 310 148 240 191"/>
<path stroke-width="0.5" stroke="black" d="M 310 148 256 94"/>
<path stroke-width="0.7954545454545454" stroke="black" d="M 310 148 287 267"/>
<path stroke-width="0.5" stroke="black" d="M 310 148 254 113"/>
<path stroke-width="0.5" stroke="black" d="M 310 148 295 224"/>
<path stroke-width="0.5" stroke="black" d="M 310 148 284 120"/>
<path stroke-width="14.878787878787879" stroke="black" d="M 343 135 310 148"/>
<path stroke-width="0.5" stroke="black" d="M 304 204 189 112"/>
<path stroke-width="0.5" stroke="black" d="M 304 204 310 148"/>
<path stroke-width="0.5" stroke="black" d="M 304 204 204 183"/>
<path stroke-width="0.5" stroke="black" d="M 304 204 279 94"/>
<path stroke-width="0.5" stroke="black" d="M 304 204 295 224"/>
<path stroke-width="0.5" stroke="black" d="M 304 204 198 199"/>
<path stroke-width="0.5" stroke="black" d="M 304 204 212 123"/>
<path stroke-width="0.5" stroke="black" d="M 304 204 313 178"/>
<path stroke-width="0.5" stroke="black" d="M 304 204 240 191"/>
<path stroke-width="0.5" stroke="black" d="M 304 204 256 94"/>
<path stroke-width="0.5" stroke="black" d="M 304 204 287 267"/>
<path stroke-width="0.7954545454545454" stroke="black" d="M 304 204 254 113"/>
<path stroke-width="0.5" stroke="black" d="M 304 204 210 137"/>
<path stroke-width="0.5" stroke="black" d="M 304 204 291 150"/>
<path stroke-width="0.5" stroke="black" d="M 304 204 191 174"/>
<path stroke-width="0.5" stroke="black" d="M 304 204 295 257"/>
<path stroke-width="0.5" stroke="black" d="M 304 204 194 223"/>
<path stroke-width="0.5" stroke="black" d="M 304 204 329 154"/>
<path stroke-width="0.5" stroke="black" d="M 310 148 210 137"/>
<path stroke-width="0.5" stroke="black" d="M 304 204 253 155"/>
<path stroke-width="0.5" stroke="black" d="M 310 148 291 150"/>
<path stroke-width="0.5" stroke="black" d="M 310 148 295 257"/>
<path stroke-width="0.5" stroke="black" d="M 204 183 254 113"/>
<path stroke-width="0.5" stroke="black" d="M 204 183 210 137"/>
<path stroke-width="0.5" stroke="black" d="M 204 183 291 150"/>
<path stroke-width="0.5" stroke="black" d="M 204 183 191 174"/>
<path stroke-width="0.5" stroke="black" d="M 204 183 295 257"/>
<path stroke-width="0.5" stroke="black" d="M 204 183 194 223"/>
<path stroke-width="0.5" stroke="black" d="M 204 183 329 154"/>
<path stroke-width="0.5" stroke="black" d="M 204 183 287 267"/>
<path stroke-width="0.5" stroke="black" d="M 204 183 189 112"/>
<path stroke-width="0.5" stroke="black" d="M 279 94 284 120"/>
<path stroke-width="0.5" stroke="black" d="M 279 94 280 208"/>
<path stroke-width="0.5" stroke="black" d="M 279 94 231 266"/>
<path stroke-width="0.5" stroke="black" d="M 279 94 223 230"/>
<path stroke-width="0.5" stroke="black" d="M 279 94 287 241"/>
<path stroke-width="0.5" stroke="black" d="M 279 94 253 155"/>
<path stroke-width="0.5" stroke="black" d="M 279 94 304 204"/>
<path stroke-width="13.303030303030303" stroke="black" d="M 299 48 279 94"/>
<path stroke-width="0.7954545454545454" stroke="black" d="M 204 183 256 94"/>
<path stroke-width="0.5" stroke="black" d="M 204 183 240 191"/>
<path stroke-width="0.5" stroke="black" d="M 204 183 313 178"/>
<path stroke-width="0.5" stroke="black" d="M 310 148 194 223"/>
<path stroke-width="0.5" stroke="black" d="M 310 148 329 154"/>
<path stroke-width="0.5" stroke="black" d="M 310 148 189 112"/>
<path stroke-width="14.090909090909092" stroke="black" d="M 170 190 204 183"/>
<path stroke-width="0.5" stroke="black" d="M 204 183 284 120"/>
<path stroke-width="0.5" stroke="black" d="M 204 183 280 208"/>
<path stroke-width="0.5" stroke="black" d="M 204 183 231 266"/>
<path stroke-width="0.5" stroke="black" d="M 204 183 223 230"/>
<path stroke-width="0.5" stroke="black" d="M 204 183 287 241"/>
<path stroke-width="0.5" stroke="black" d="M 204 183 253 155"/>
<path stroke-width="0.5" stroke="black" d="M 204 183 304 204"/>
<path stroke-width="0.5" stroke="black" d="M 204 183 310 148"/>
<path stroke-width="14.090909090909092" stroke="black" d="M 204 183 170 190"/>
<path stroke-width="0.5" stroke="black" d="M 204 183 279 94"/>
<path stroke-width="0.5" stroke="black" d="M 204 183 295 224"/>
<path stroke-width="0.5" stroke="black" d="M 204 183 198 199"/>
<path stroke-width="0.5" stroke="black" d="M 204 183 212 123"/>
<path stroke-width="0.5" stroke="black" d="M 310 148 191 174"/>
<path stroke-width="1.0909090909090908" stroke="black" d="M 189 112 20 20"/>
<circle cx="303" cy="91" r="7.0" style="fill:purple;stroke:black;stroke-width:1.0"/>
<circle cx="284" cy="120" r="7.0" style="fill:purple;stroke:black;stroke-width:1.0"/>
<circle cx="303" cy="221" r="7.0" style="fill:olive;stroke:black;stroke-width:1.0"/>
<circle cx="280" cy="208" r="7.0" style="fill:olive;stroke:black;stroke-width:1.0"/>
<circle cx="213" cy="301" r="7.0" style="fill:blue;stroke:black;stroke-width:1.0"/>
<circle cx="231" cy="266" r="7.0" style="fill:blue;stroke:black;stroke-width:1.0"/>
<circle cx="201" cy="256" r="7.0" style="fill:orange;stroke:black;stroke-width:1.0"/>
<circle cx="223" cy="230" r="7.0" style="fill:orange;stroke:black;stroke-width:1.0"/>
<circle cx="311" cy="270" r="7.0" style="fill:brown;stroke:black;stroke-width:1.0"/>
<circle cx="287" cy="241" r="7.0" style="fill:brown;stroke:black;stroke-width:1.0"/>
<circle cx="226" cy="131" r="7.0" style="fill:orange;stroke:black;stroke-width:1.0"/>
<circle cx="253" cy="155" r="7.0" style="fill:orange;stroke:black;stroke-width:1.0"/>
<circle cx="335" cy="221" r="7.0" style="fill:orange;stroke:black;stroke-width:1.0"/>
<circle cx="304" cy="204" r="7.0" style="fill:orange;stroke:black;stroke-width:1.0"/>
<circle cx="343" cy="135" r="7.0" style="fill:orange;stroke:black;stroke-width:1.0"/>
<circle cx="310" cy="148" r="7.0" style="fill:orange;stroke:black;stroke-width:1.0"/>
<circle cx="170" cy="190" r="7.0" style="fill:red;stroke:black;stroke-width:1.0"/>
<circle cx="204" cy="183" r="7.0" style="fill:red;stroke:black;stroke-width:1.0"/>
<circle cx="299" cy="48" r="7.0" style="fill:red;stroke:black;stroke-width:1.0"/>
<circle cx="279" cy="94" r="7.0" style="fill:red;stroke:black;stroke-width:1.0"/>
<circle cx="327" cy="252" r="7.0" style="fill:orange;stroke:black;stroke-width:1.0"/>
<circle cx="295" cy="224" r="7.0" style="fill:orange;stroke:black;stroke-width:1.0"/>
<circle cx="160" cy="211" r="7.0" style="fill:fuchsia;stroke:black;stroke-width:1.0"/>
<circle cx="198" cy="199" r="7.0" style="fill:orange;stroke:black;stroke-width:1.0"/>
<circle cx="180" cy="93" r="7.0" style="fill:fuchsia;stroke:black;stroke-width:1.0"/>
<circle cx="212" cy="123" r="7.0" style="fill:fuchsia;stroke:black;stroke-width:1.0"/>
<circle cx="354" cy="183" r="7.0" style="fill:orange;stroke:black;stroke-width:1.0"/>
<circle cx="313" cy="178" r="7.0" style="fill:orange;stroke:black;stroke-width:1.0"/>
<circle cx="216" cy="212" r="7.0" style="fill:yellow;stroke:black;stroke-width:1.0"/>
<circle cx="240" cy="191" r="7.0" style="fill:yellow;stroke:black;stroke-width:1.0"/>
<circle cx="264" cy="28" r="7.0" style="fill:blue;stroke:black;stroke-width:1.0"/>
<circle cx="256" cy="94" r="7.0" style="fill:blue;stroke:black;stroke-width:1.0"/>
<circle cx="321" cy="320" r="7.0" style="fill:orange;stroke:black;stroke-width:1.0"/>
<circle cx="287" cy="267" r="7.0" style="fill:orange;stroke:black;stroke-width:1.0"/>
<circle cx="253" cy="44" r="7.0" style="fill:orange;stroke:black;stroke-width:1.0"/>
<circle cx="254" cy="113" r="7.0" style="fill:orange;stroke:black;stroke-width:1.0"/>
<circle cx="161" cy="116" r="7.0" style="fill:orange;stroke:black;stroke-width:1.0"/>
<circle cx="210" cy="137" r="7.0" style="fill:orange;stroke:black;stroke-width:1.0"/>
<circle cx="339" cy="119" r="7.0" style="fill:green;stroke:black;stroke-width:1.0"/>
<circle cx="291" cy="150" r="7.0" style="fill:green;stroke:black;stroke-width:1.0"/>
<circle cx="128" cy="172" r="7.0" style="fill:orange;stroke:black;stroke-width:1.0"/>
<circle cx="191" cy="174" r="7.0" style="fill:orange;stroke:black;stroke-width:1.0"/>
<circle cx="355" cy="306" r="7.0" style="fill:aqua;stroke:black;stroke-width:1.0"/>
<circle cx="295" cy="257" r="7.0" style="fill:aqua;stroke:black;stroke-width:1.0"/>
<circle cx="116" cy="247" r="7.0" style="fill:olive;stroke:black;stroke-width:1.0"/>
<circle cx="194" cy="223" r="7.0" style="fill:olive;stroke:black;stroke-width:1.0"/>
<circle cx="420" cy="143" r="7.0" style="fill:purple;stroke:black;stroke-width:1.0"/>
<circle cx="329" cy="154" r="7.0" style="fill:purple;stroke:black;stroke-width:1.0"/>
<circle cx="20" cy="20" r="7.0" style="fill:orange;stroke:black;stroke-width:1.0"/>
<circle cx="189" cy="112" r="7.0" style="fill:orange;stroke:black;stroke-width:1.0"/>
</svg>
