<svg width="440" height="340" xmlns="http://www.w3.org/2000/svg">
<path stroke-width="20.0" stroke="black" d="M 186 150 192 186"/>
<path stroke-width="0.5" stroke="black" d="M 84 160 234 120"/>
<path stroke-width="0.5" stroke="black" d="M 84 160 253 204"/>
<path stroke-width="0.5" stroke="black" d="M 84 160 104 203"/>
<path stroke-width="0.5" stroke="black" d="M 84 160 160 218"/>
<path stroke-width="0.5" stroke="black" d="M 84 160 114 110"/>
<path stroke-width="8.181818181818182" stroke="black" d="M 84 160 20 162"/>
<path stroke-width="0.5" stroke="black" d="M 84 160 192 98"/>
<path stroke-width="0.5" stroke="black" d="M 84 160 105 126"/>
<path stroke-width="0.5" stroke="black" d="M 84 160 153 93"/>
<path stroke-width="0.5" stroke="black" d="M 84 160 167 227"/>
<path stroke-width="0.5" stroke="black" d="M 84 160 266 111"/>
<path stroke-width="0.5" stroke="black" d="M 84 160 203 229"/>
<path stroke-width="0.5" stroke="black" d="M 84 160 224 216"/>
<path stroke-width="0.5" stroke="black" d="M 84 160 259 200"/>
<path stroke-width="7.393939393939394" stroke="black" d="M 200 30 192 98"/>
<path stroke-width="0.5" stroke="black" d="M 192 98 192 186"/>
<path stroke-width="0.5" stroke="black" d="M 84 160 269 188"/>
<path stroke-width="0.5" stroke="black" d="M 192 98 259 147"/>
<path stroke-width="0.5" stroke="black" d="M 84 160 134 212"/>
<path stroke-width="0.7954545454545454" stroke="black" d="M 84 160 274 155"/>
<path stroke-width="0.5" stroke="black" d="M 114 110 192 98"/>
<path stroke-width="0.5" stroke="black" d="M 114 110 153 93"/>
<path stroke-width="0.5" stroke="black" d="M 114 110 269 188"/>
<path stroke-width="0.5" stroke="black" d="M 114 110 167 227"/>
<path stroke-width="0.5" stroke="black" d="M 114 110 266 111"/>
<path stroke-width="0.5" stroke="black" d="M 114 110 203 229"/>
<path stroke-width="0.5" stroke="black" d="M 114 110 224 216"/>
<path stroke-width="0.5" stroke="black" d="M 84 160 90 147"/>
<path stroke-width="0.5" stroke="black" d="M 114 110 259 200"/>
<path stroke-width="0.5" stroke="black" d="M 84 160 192 186"/>
<path stroke-width="0.5" stroke="black" d="M 84 160 259 147"/>
<path stroke-width="0.5" stroke="black" d="M 84 160 255 98"/>
<path stroke-width="0.5" stroke="black" d="M 84 160 106 177"/>
<path stroke-width="0.5" stroke="black" d="M 84 160 198 111"/>
<path stroke-width="0.5" stroke="black" d="M 84 160 153 99"/>
<path stroke-width="0.5" stroke="black" d="M 84 160 178 184"/>
<path stroke-width="8.181818181818182" stroke="black" d="M 20 162 84 160"/>
<path stroke-width="0.5" stroke="black" d="M 192 98 255 98"/>
<path stroke-width="0.5" stroke="black" d="M 192 98 106 177"/>
<path stroke-width="0.5" stroke="black" d="M 192 98 198 111"/>
<path stroke-width="0.5" stroke="black" d="M 153 93 192 186"/>
<path stroke-width="0.5" stroke="black" d="M 153 93 259 147"/>
<path stroke-width="0.5" stroke="black" d="M 153 93 255 98"/>
<path stroke-width="0.5" stroke="black" d="M 153 93 106 177"/>
<path stroke-width="0.5" stroke="black" d="M 153 93 198 111"/>
<path stroke-width="0.7954545454545454" stroke="black" d="M 153 93 153 99"/>
<path stroke-width="0.5" stroke="black" d="M 153 93 178 184"/>
<path stroke-width="6.606060606060606" stroke="black" d="M 130 20 153 93"/>
<path stroke-width="0.5" stroke="black" d="M 153 93 274 155"/>
<path stroke-width="0.5" stroke="black" d="M 153 93 134 212"/>
<path stroke-width="0.5" stroke="black" d="M 153 93 105 126"/>
<path stroke-width="0.5" stroke="black" d="M 153 93 234 120"/>
<path stroke-width="0.5" stroke="black" d="M 153 93 253 204"/>
<path stroke-width="0.5" stroke="black" d="M 153 93 104 203"/>
<path stroke-width="0.5" stroke="black" d="M 153 93 160 218"/>
<path stroke-width="0.5" stroke="black" d="M 153 93 114 110"/>
<path stroke-width="0.5" stroke="black" d="M 153 93 90 147"/>
<path stroke-width="0.5" stroke="black" d="M 192 98 259 200"/>
<path stroke-width="0.5" stroke="black" d="M 192 98 224 216"/>
<path stroke-width="0.5" stroke="black" d="M 192 98 203 229"/>
<path stroke-width="0.5" stroke="black" d="M 192 98 153 99"/>
<path stroke-width="0.7954545454545454" stroke="black" d="M 192 98 178 184"/>
<path stroke-width="0.5" stroke="black" d="M 192 98 274 155"/>
<path stroke-width="0.5" stroke="black" d="M 192 98 90 147"/>
<path stroke-width="0.5" stroke="black" d="M 192 98 134 212"/>
<path stroke-width="0.5" stroke="black" d="M 192 98 105 126"/>
<path stroke-width="0.5" stroke="black" d="M 192 98 234 120"/>
<path stroke-width="0.5" stroke="black" d="M 192 98 253 204"/>
<path stroke-width="0.5" stroke="black" d="M 192 98 104 203"/>
<path stroke-width="0.5" stroke="black" d="M 192 98 160 218"/>
<path stroke-width="0.5" stroke="black" d="M 192 98 114 110"/>
<path stroke-width="0.5" stroke="black" d="M 192 98 84 160"/>
<path stroke-width="7.393939393939394" stroke="black" d="M 192 98 200 30"/>
<path stroke-width="0.5" stroke="black" d="M 192 98 153 93"/>
<path stroke-width="0.5" stroke="black" d="M 192 98 269 188"/>
<path stroke-width="0.5" stroke="black" d="M 192 98 167 227"/>
<path stroke-width="0.5" stroke="black" d="M 192 98 266 111"/>
<path stroke-width="0.5" stroke="black" d="M 114 110 84 160"/>
<path stroke-width="0.5" stroke="black" d="M 153 93 84 160"/>
<path stroke-width="8.969696969696969" stroke="black" d="M 114 110 50 67"/>
<path stroke-width="0.5" stroke="black" d="M 114 110 104 203"/>
<path stroke-width="0.5" stroke="black" d="M 104 203 90 147"/>
<path stroke-width="0.5" stroke="black" d="M 104 203 134 212"/>
<path stroke-width="0.7954545454545454" stroke="black" d="M 104 203 105 126"/>
<path stroke-width="0.5" stroke="black" d="M 104 203 234 120"/>
<path stroke-width="0.5" stroke="black" d="M 104 203 253 204"/>
<path stroke-width="10.545454545454545" stroke="black" d="M 104 203 39 232"/>
<path stroke-width="0.5" stroke="black" d="M 104 203 160 218"/>
<path stroke-width="0.5" stroke="black" d="M 104 203 274 155"/>
<path stroke-width="0.5" stroke="black" d="M 104 203 114 110"/>
<path stroke-width="0.5" stroke="black" d="M 104 203 192 98"/>
<path stroke-width="0.5" stroke="black" d="M 104 203 153 93"/>
<path stroke-width="0.5" stroke="black" d="M 104 203 269 188"/>
<path stroke-width="0.5" stroke="black" d="M 104 203 167 227"/>
<path stroke-width="0.5" stroke="black" d="M 104 203 266 111"/>
<path stroke-width="0.5" stroke="black" d="M 104 203 203 229"/>
<path stroke-width="0.5" stroke="black" d="M 104 203 224 216"/>
<path stroke-width="0.5" stroke="black" d="M 104 203 84 160"/>
<path stroke-width="0.5" stroke="black" d="M 104 203 259 200"/>
<path stroke-width="0.5" stroke="black" d="M 104 203 178 184"/>
<path stroke-width="0.5" stroke="black" d="M 104 203 198 111"/>
<path stroke-width="0.5" stroke="black" d="M 253 204 160 218"/>
<path stroke-width="0.5" stroke="black" d="M 253 204 114 110"/>
<path stroke-width="0.5" stroke="black" d="M 253 204 84 160"/>
<path stroke-width="0.5" stroke="black" d="M 253 204 192 98"/>
<path stroke-width="0.5" stroke="black" d="M 253 204 153 93"/>
<path stroke-width="0.5" stroke="black" d="M 253 204 269 188"/>
<path stroke-width="0.5" stroke="black" d="M 253 204 167 227"/>
<path stroke-width="0.5" stroke="black" d="M 104 203 153 99"/>
<path stroke-width="0.5" stroke="black" d="M 253 204 266 111"/>
<path stroke-width="0.5" stroke="black" d="M 253 204 224 216"/>
<path stroke-width="0.5" stroke="black" d="M 253 204 259 200"/>
<path stroke-width="10.545454545454545" stroke="black" d="M 39 232 104 203"/>
<path stroke-width="0.5" stroke="black" d="M 104 203 192 186"/>
<path stroke-width="0.5" stroke="black" d="M 104 203 259 147"/>
<path stroke-width="0.5" stroke="black" d="M 104 203 255 98"/>
<path stroke-width="0.5" stroke="black" d="M 104 203 106 177"/>
<path stroke-width="0.5" stroke="black" d="M 253 204 203 229"/>
<path stroke-width="9.757575757575758" stroke="black" d="M 137 282 160 218"/>
<path stroke-width="0.5" stroke="black" d="M 160 218 192 186"/>
<path stroke-width="0.5" stroke="black" d="M 160 218 259 147"/>
<path stroke-width="0.5" stroke="black" d="M 160 218 224 216"/>
<path stroke-width="0.5" stroke="black" d="M 160 218 259 200"/>
<path stroke-width="8.969696969696969" stroke="black" d="M 50 67 114 110"/>
<path stroke-width="0.5" stroke="black" d="M 114 110 192 186"/>
<path stroke-width="0.5" stroke="black" d="M 114 110 259 147"/>
<path stroke-width="0.5" stroke="black" d="M 114 110 255 98"/>
<path stroke-width="0.5" stroke="black" d="M 114 110 106 177"/>
<path stroke-width="0.5" stroke="black" d="M 160 218 203 229"/>
<path stroke-width="0.5" stroke="black" d="M 114 110 198 111"/>
<path stroke-width="0.5" stroke="black" d="M 114 110 178 184"/>
<path stroke-width="0.5" stroke="black" d="M 114 110 274 155"/>
<path stroke-width="0.7954545454545454" stroke="black" d="M 114 110 90 147"/>
<path stroke-width="0.5" stroke="black" d="M 114 110 134 212"/>
<path stroke-width="0.5" stroke="black" d="M 114 110 105 126"/>
<path stroke-width="0.5" stroke="black" d="M 114 110 234 120"/>
<path stroke-width="0.5" stroke="black" d="M 114 110 253 204"/>
<path stroke-width="0.5" stroke="black" d="M 114 110 153 99"/>
<path stroke-width="0.5" stroke="black" d="M 160 218 266 111"/>
<path stroke-width="0.5" stroke="black" d="M 160 218 167 227"/>
<path stroke-width="0.5" stroke="black" d="M 160 218 269 188"/>
<path stroke-width="0.5" stroke="black" d="M 160 218 255 98"/>
<path stroke-width="0.5" stroke="black" d="M 160 218 106 177"/>
<path stroke-width="0.5" stroke="black" d="M 160 218 198 111"/>
<path stroke-width="0.5" stroke="black" d="M 160 218 153 99"/>
<path stroke-width="0.5" stroke="black" d="M 160 218 178 184"/>
<path stroke-width="0.5" stroke="black" d="M 160 218 274 155"/>
<path stroke-width="0.5" stroke="black" d="M 160 218 90 147"/>
<path stroke-width="0.7954545454545454" stroke="black" d="M 160 218 134 212"/>
<path stroke-width="0.5" stroke="black" d="M 160 218 105 126"/>
<path stroke-width="0.5" stroke="black" d="M 160 218 234 120"/>
<path stroke-width="0.5" stroke="black" d="M 160 218 253 204"/>
<path stroke-width="0.5" stroke="black" d="M 160 218 104 203"/>
<path stroke-width="9.757575757575758" stroke="black" d="M 160 218 137 282"/>
<path stroke-width="0.5" stroke="black" d="M 160 218 114 110"/>
<path stroke-width="0.5" stroke="black" d="M 160 218 84 160"/>
<path stroke-width="0.5" stroke="black" d="M 160 218 192 98"/>
<path stroke-width="0.5" stroke="black" d="M 160 218 153 93"/>
<path stroke-width="0.5" stroke="black" d="M 114 110 160 218"/>
<path stroke-width="0.5" stroke="black" d="M 153 93 192 98"/>
<path stroke-width="6.606060606060606" stroke="black" d="M 153 93 130 20"/>
<path stroke-width="0.5" stroke="black" d="M 153 93 269 188"/>
<path stroke-width="0.5" stroke="black" d="M 203 229 153 93"/>
<path stroke-width="0.5" stroke="black" d="M 203 229 269 188"/>
<path stroke-width="0.5" stroke="black" d="M 203 229 167 227"/>
<path stroke-width="0.5" stroke="black" d="M 203 229 266 111"/>
<path stroke-width="3.4545454545454546" stroke="black" d="M 203 229 208 320"/>
<path stroke-width="0.5" stroke="black" d="M 203 229 224 216"/>
<path stroke-width="0.5" stroke="black" d="M 203 229 259 200"/>
<path stroke-width="0.5" stroke="black" d="M 203 229 192 98"/>
<path stroke-width="3.0606060606060606" stroke="black" d="M 274 295 224 216"/>
<path stroke-width="0.5" stroke="black" d="M 224 216 259 147"/>
<path stroke-width="0.5" stroke="black" d="M 224 216 255 98"/>
<path stroke-width="0.5" stroke="black" d="M 224 216 106 177"/>
<path stroke-width="0.5" stroke="black" d="M 224 216 198 111"/>
<path stroke-width="0.5" stroke="black" d="M 224 216 153 99"/>
<path stroke-width="0.5" stroke="black" d="M 224 216 178 184"/>
<path stroke-width="0.5" stroke="black" d="M 224 216 274 155"/>
<path stroke-width="0.7954545454545454" stroke="black" d="M 224 216 192 186"/>
<path stroke-width="0.5" stroke="black" d="M 224 216 90 147"/>
<path stroke-width="0.5" stroke="black" d="M 203 229 84 160"/>
<path stroke-width="0.5" stroke="black" d="M 203 229 160 218"/>
<path stroke-width="0.5" stroke="black" d="M 266 111 259 200"/>
<path stroke-width="3.4545454545454546" stroke="black" d="M 208 320 203 229"/>
<path stroke-width="0.5" stroke="black" d="M 203 229 192 186"/>
<path stroke-width="0.7954545454545454" stroke="black" d="M 203 229 259 147"/>
<path stroke-width="0.5" stroke="black" d="M 203 229 255 98"/>
<path stroke-width="0.5" stroke="black" d="M 203 229 106 177"/>
<path stroke-width="0.5" stroke="black" d="M 203 229 198 111"/>
<path stroke-width="0.5" stroke="black" d="M 203 229 114 110"/>
<path stroke-width="0.5" stroke="black" d="M 203 229 153 99"/>
<path stroke-width="0.5" stroke="black" d="M 203 229 274 155"/>
<path stroke-width="0.5" stroke="black" d="M 203 229 90 147"/>
<path stroke-width="0.5" stroke="black" d="M 203 229 134 212"/>
<path stroke-width="0.5" stroke="black" d="M 203 229 105 126"/>
<path stroke-width="0.5" stroke="black" d="M 203 229 234 120"/>
<path stroke-width="0.5" stroke="black" d="M 203 229 253 204"/>
<path stroke-width="0.5" stroke="black" d="M 203 229 104 203"/>
<path stroke-width="0.5" stroke="black" d="M 203 229 178 184"/>
<path stroke-width="0.5" stroke="black" d="M 224 216 134 212"/>
<path stroke-width="0.5" stroke="black" d="M 224 216 105 126"/>
<path stroke-width="0.5" stroke="black" d="M 224 216 234 120"/>
<path stroke-width="0.5" stroke="black" d="M 259 200 274 155"/>
<path stroke-width="0.5" stroke="black" d="M 259 200 90 147"/>
<path stroke-width="0.5" stroke="black" d="M 259 200 134 212"/>
<path stroke-width="0.5" stroke="black" d="M 259 200 105 126"/>
<path stroke-width="0.5" stroke="black" d="M 259 200 234 120"/>
<path stroke-width="0.5" stroke="black" d="M 259 200 253 204"/>
<path stroke-width="0.5" stroke="black" d="M 259 200 104 203"/>
<path stroke-width="0.5" stroke="black" d="M 259 200 178 184"/>
<path stroke-width="0.5" stroke="black" d="M 259 200 160 218"/>
<path stroke-width="0.5" stroke="black" d="M 259 200 84 160"/>
<path stroke-width="0.5" stroke="black" d="M 259 200 192 98"/>
<path stroke-width="0.5" stroke="black" d="M 259 200 153 93"/>
<path stroke-width="0.5" stroke="black" d="M 259 200 269 188"/>
<path stroke-width="0.5" stroke="black" d="M 259 200 167 227"/>
<path stroke-width="0.5" stroke="black" d="M 259 200 266 111"/>
<path stroke-width="0.5" stroke="black" d="M 259 200 203 229"/>
<path stroke-width="0.5" stroke="black" d="M 259 200 114 110"/>
<path stroke-width="0.5" stroke="black" d="M 259 200 153 99"/>
<path stroke-width="0.5" stroke="black" d="M 259 200 198 111"/>
<path stroke-width="0.5" stroke="black" d="M 259 200 106 177"/>
<path stroke-width="0.5" stroke="black" d="M 224 216 253 204"/>
<path stroke-width="0.5" stroke="black" d="M 224 216 104 203"/>
<path stroke-width="0.5" stroke="black" d="M 224 216 160 218"/>
<path stroke-width="0.5" stroke="black" d="M 224 216 114 110"/>
<path stroke-width="0.5" stroke="black" d="M 224 216 84 160"/>
<path stroke-width="0.5" stroke="black" d="M 224 216 192 98"/>
<path stroke-width="0.5" stroke="black" d="M 224 216 153 93"/>
<path stroke-width="0.5" stroke="black" d="M 224 216 269 188"/>
<path stroke-width="0.5" stroke="black" d="M 224 216 167 227"/>
<path stroke-width="0.5" stroke="black" d="M 224 216 266 111"/>
<path stroke-width="0.5" stroke="black" d="M 224 216 203 229"/>
<path stroke-width="3.0606060606060606" stroke="black" d="M 224 216 274 295"/>
<path stroke-width="0.5" stroke="black" d="M 224 216 259 200"/>
<path stroke-width="1.0909090909090908" stroke="black" d="M 420 302 259 200"/>
<path stroke-width="0.5" stroke="black" d="M 259 200 192 186"/>
<path stroke-width="0.5" stroke="black" d="M 259 200 259 147"/>
<path stroke-width="0.5" stroke="black" d="M 259 200 255 98"/>
<path stroke-width="0.5" stroke="black" d="M 266 111 224 216"/>
<path stroke-width="0.5" stroke="black" d="M 266 111 203 229"/>
<path stroke-width="4.242424242424242" stroke="black" d="M 266 111 347 59"/>
<path stroke-width="0.5" stroke="black" d="M 266 111 167 227"/>
<path stroke-width="0.5" stroke="black" d="M 269 188 114 110"/>
<path stroke-width="0.5" stroke="black" d="M 269 188 84 160"/>
<path stroke-width="0.5" stroke="black" d="M 269 188 192 98"/>
<path stroke-width="0.5" stroke="black" d="M 269 188 153 93"/>
<path stroke-width="5.818181818181818" stroke="black" d="M 269 188 350 215"/>
<path stroke-width="0.5" stroke="black" d="M 269 188 167 227"/>
<path stroke-width="0.5" stroke="black" d="M 269 188 266 111"/>
<path stroke-width="0.5" stroke="black" d="M 269 188 160 218"/>
<path stroke-width="0.5" stroke="black" d="M 269 188 203 229"/>
<path stroke-width="0.5" stroke="black" d="M 269 188 259 200"/>
<path stroke-width="5.03030303030303" stroke="black" d="M 150 305 167 227"/>
<path stroke-width="0.5" stroke="black" d="M 167 227 192 186"/>
<path stroke-width="0.5" stroke="black" d="M 167 227 259 147"/>
<path stroke-width="0.5" stroke="black" d="M 167 227 255 98"/>
<path stroke-width="0.7954545454545454" stroke="black" d="M 167 227 106 177"/>
<path stroke-width="0.5" stroke="black" d="M 167 227 198 111"/>
<path stroke-width="0.5" stroke="black" d="M 269 188 224 216"/>
<path stroke-width="0.5" stroke="black" d="M 269 188 104 203"/>
<path stroke-width="0.5" stroke="black" d="M 269 188 253 204"/>
<path stroke-width="0.5" stroke="black" d="M 269 188 234 120"/>
<path stroke-width="0.5" stroke="black" d="M 153 93 167 227"/>
<path stroke-width="0.5" stroke="black" d="M 153 93 266 111"/>
<path stroke-width="0.5" stroke="black" d="M 153 93 203 229"/>
<path stroke-width="0.5" stroke="black" d="M 153 93 224 216"/>
<path stroke-width="0.5" stroke="black" d="M 153 93 259 200"/>
<path stroke-width="5.818181818181818" stroke="black" d="M 350 215 269 188"/>
<path stroke-width="0.5" stroke="black" d="M 269 188 192 186"/>
<path stroke-width="0.5" stroke="black" d="M 269 188 259 147"/>
<path stroke-width="0.5" stroke="black" d="M 269 188 255 98"/>
<path stroke-width="0.5" stroke="black" d="M 269 188 106 177"/>
<path stroke-width="0.7954545454545454" stroke="black" d="M 269 188 198 111"/>
<path stroke-width="0.5" stroke="black" d="M 269 188 153 99"/>
<path stroke-width="0.5" stroke="black" d="M 269 188 178 184"/>
<path stroke-width="0.5" stroke="black" d="M 269 188 274 155"/>
<path stroke-width="0.5" stroke="black" d="M 269 188 90 147"/>
<path stroke-width="0.5" stroke="black" d="M 269 188 134 212"/>
<path stroke-width="0.5" stroke="black" d="M 269 188 105 126"/>
<path stroke-width="0.5" stroke="black" d="M 167 227 153 99"/>
<path stroke-width="0.5" stroke="black" d="M 253 204 104 203"/>
<path stroke-width="0.5" stroke="black" d="M 167 227 178 184"/>
<path stroke-width="0.5" stroke="black" d="M 167 227 90 147"/>
<path stroke-width="0.5" stroke="black" d="M 266 111 198 111"/>
<path stroke-width="0.5" stroke="black" d="M 266 111 153 99"/>
<path stroke-width="0.5" stroke="black" d="M 266 111 178 184"/>
<path stroke-width="0.5" stroke="black" d="M 266 111 274 155"/>
<path stroke-width="0.5" stroke="black" d="M 266 111 90 147"/>
<path stroke-width="0.5" stroke="black" d="M 266 111 134 212"/>
<path stroke-width="0.5" stroke="black" d="M 266 111 105 126"/>
<path stroke-width="0.5" stroke="black" d="M 266 111 106 177"/>
<path stroke-width="0.5" stroke="black" d="M 266 111 234 120"/>
<path stroke-width="0.5" stroke="black" d="M 266 111 104 203"/>
<path stroke-width="0.5" stroke="black" d="M 266 111 160 218"/>
<path stroke-width="0.5" stroke="black" d="M 266 111 114 110"/>
<path stroke-width="0.5" stroke="black" d="M 266 111 84 160"/>
<path stroke-width="0.5" stroke="black" d="M 266 111 192 98"/>
<path stroke-width="0.5" stroke="black" d="M 266 111 153 93"/>
<path stroke-width="0.5" stroke="black" d="M 266 111 269 188"/>
<path stroke-width="0.5" stroke="black" d="M 266 111 253 204"/>
<path stroke-width="0.7954545454545454" stroke="black" d="M 266 111 255 98"/>
<path stroke-width="0.5" stroke="black" d="M 266 111 259 147"/>
<path stroke-width="0.5" stroke="black" d="M 266 111 192 186"/>
<path stroke-width="0.5" stroke="black" d="M 167 227 134 212"/>
<path stroke-width="0.5" stroke="black" d="M 167 227 105 126"/>
<path stroke-width="0.5" stroke="black" d="M 167 227 234 120"/>
<path stroke-width="0.5" stroke="black" d="M 167 227 253 204"/>
<path stroke-width="0.5" stroke="black" d="M 167 227 104 203"/>
<path stroke-width="0.5" stroke="black" d="M 167 227 160 218"/>
<path stroke-width="0.5" stroke="black" d="M 167 227 114 110"/>
<path stroke-width="0.5" stroke="black" d="M 167 227 84 160"/>
<path stroke-width="0.5" stroke="black" d="M 167 227 192 98"/>
<path stroke-width="0.5" stroke="black" d="M 167 227 153 93"/>
<path stroke-width="0.5" stroke="black" d="M 167 227 269 188"/>
<path stroke-width="5.03030303030303" stroke="black" d="M 167 227 150 305"/>
<path stroke-width="0.5" stroke="black" d="M 167 227 266 111"/>
<path stroke-width="0.5" stroke="black" d="M 167 227 203 229"/>
<path stroke-width="0.5" stroke="black" d="M 167 227 224 216"/>
<path stroke-width="0.5" stroke="black" d="M 167 227 259 200"/>
<path stroke-width="4.242424242424242" stroke="black" d="M 347 59 266 111"/>
<path stroke-width="0.5" stroke="black" d="M 167 227 274 155"/>
<path stroke-width="11.333333333333334" stroke="black" d="M 253 204 298 237"/>
<path stroke-width="0.7954545454545454" stroke="black" d="M 253 204 234 120"/>
<path stroke-width="0.5" stroke="black" d="M 253 204 105 126"/>
<path stroke-width="0.5" stroke="black" d="M 106 177 259 200"/>
<path stroke-width="17.242424242424242" stroke="black" d="M 208 60 198 111"/>
<path stroke-width="0.5" stroke="black" d="M 198 111 192 186"/>
<path stroke-width="0.5" stroke="black" d="M 198 111 259 147"/>
<path stroke-width="0.5" stroke="black" d="M 198 111 255 98"/>
<path stroke-width="0.5" stroke="black" d="M 198 111 106 177"/>
<path stroke-width="17.242424242424242" stroke="black" d="M 198 111 208 60"/>
<path stroke-width="0.5" stroke="black" d="M 106 177 224 216"/>
<path stroke-width="0.5" stroke="black" d="M 198 111 153 99"/>
<path stroke-width="0.5" stroke="black" d="M 198 111 274 155"/>
<path stroke-width="0.5" stroke="black" d="M 198 111 90 147"/>
<path stroke-width="0.5" stroke="black" d="M 198 111 134 212"/>
<path stroke-width="0.5" stroke="black" d="M 198 111 105 126"/>
<path stroke-width="0.5" stroke="black" d="M 198 111 234 120"/>
<path stroke-width="0.5" stroke="black" d="M 198 111 253 204"/>
<path stroke-width="0.5" stroke="black" d="M 198 111 104 203"/>
<path stroke-width="0.5" stroke="black" d="M 198 111 178 184"/>
<path stroke-width="0.5" stroke="black" d="M 198 111 160 218"/>
<path stroke-width="0.5" stroke="black" d="M 106 177 203 229"/>
<path stroke-width="0.7954545454545454" stroke="black" d="M 106 177 167 227"/>
<path stroke-width="0.5" stroke="black" d="M 106 177 198 111"/>
<path stroke-width="0.5" stroke="black" d="M 106 177 153 99"/>
<path stroke-width="0.5" stroke="black" d="M 106 177 178 184"/>
<path stroke-width="0.5" stroke="black" d="M 106 177 274 155"/>
<path stroke-width="0.5" stroke="black" d="M 106 177 90 147"/>
<path stroke-width="0.5" stroke="black" d="M 106 177 134 212"/>
<path stroke-width="0.5" stroke="black" d="M 106 177 105 126"/>
<path stroke-width="0.5" stroke="black" d="M 106 177 266 111"/>
<path stroke-width="0.5" stroke="black" d="M 106 177 234 120"/>
<path stroke-width="0.5" stroke="black" d="M 106 177 104 203"/>
<path stroke-width="0.5" stroke="black" d="M 106 177 160 218"/>
<path stroke-width="0.5" stroke="black" d="M 106 177 114 110"/>
<path stroke-width="0.5" stroke="black" d="M 106 177 84 160"/>
<path stroke-width="0.5" stroke="black" d="M 106 177 192 98"/>
<path stroke-width="0.5" stroke="black" d="M 106 177 153 93"/>
<path stroke-width="0.5" stroke="black" d="M 106 177 269 188"/>
<path stroke-width="0.5" stroke="black" d="M 106 177 253 204"/>
<path stroke-width="0.5" stroke="black" d="M 198 111 114 110"/>
<path stroke-width="0.5" stroke="black" d="M 198 111 84 160"/>
<path stroke-width="0.5" stroke="black" d="M 198 111 192 98"/>
<path stroke-width="0.5" stroke="black" d="M 153 99 104 203"/>
<path stroke-width="0.5" stroke="black" d="M 153 99 160 218"/>
<path stroke-width="0.5" stroke="black" d="M 153 99 114 110"/>
<path stroke-width="0.5" stroke="black" d="M 153 99 84 160"/>
<path stroke-width="0.5" stroke="black" d="M 153 99 192 98"/>
<path stroke-width="0.7954545454545454" stroke="black" d="M 153 99 153 93"/>
<path stroke-width="0.5" stroke="black" d="M 153 99 269 188"/>
<path stroke-width="0.5" stroke="black" d="M 153 99 253 204"/>
<path stroke-width="0.5" stroke="black" d="M 153 99 167 227"/>
<path stroke-width="0.5" stroke="black" d="M 153 99 203 229"/>
<path stroke-width="0.5" stroke="black" d="M 153 99 224 216"/>
<path stroke-width="0.5" stroke="black" d="M 153 99 259 200"/>
<path stroke-width="15.666666666666666" stroke="black" d="M 180 214 178 184"/>
<path stroke-width="0.5" stroke="black" d="M 178 184 192 186"/>
<path stroke-width="0.5" stroke="black" d="M 178 184 259 147"/>
<path stroke-width="0.5" stroke="black" d="M 178 184 255 98"/>
<path stroke-width="0.5" stroke="black" d="M 153 99 266 111"/>
<path stroke-width="0.5" stroke="black" d="M 153 99 234 120"/>
<path stroke-width="0.5" stroke="black" d="M 153 99 105 126"/>
<path stroke-width="0.5" stroke="black" d="M 153 99 134 212"/>
<path stroke-width="0.5" stroke="black" d="M 198 111 153 93"/>
<path stroke-width="0.7954545454545454" stroke="black" d="M 198 111 269 188"/>
<path stroke-width="0.5" stroke="black" d="M 198 111 167 227"/>
<path stroke-width="0.5" stroke="black" d="M 198 111 266 111"/>
<path stroke-width="0.5" stroke="black" d="M 198 111 203 229"/>
<path stroke-width="0.5" stroke="black" d="M 198 111 224 216"/>
<path stroke-width="0.5" stroke="black" d="M 198 111 259 200"/>
<path stroke-width="16.454545454545453" stroke="black" d="M 136 58 153 99"/>
<path stroke-width="0.5" stroke="black" d="M 153 99 192 186"/>
<path stroke-width="0.5" stroke="black" d="M 153 99 259 147"/>
<path stroke-width="0.5" stroke="black" d="M 153 99 255 98"/>
<path stroke-width="0.5" stroke="black" d="M 153 99 106 177"/>
<path stroke-width="0.5" stroke="black" d="M 153 99 198 111"/>
<path stroke-width="16.454545454545453" stroke="black" d="M 153 99 136 58"/>
<path stroke-width="0.5" stroke="black" d="M 153 99 178 184"/>
<path stroke-width="0.5" stroke="black" d="M 153 99 274 155"/>
<path stroke-width="0.5" stroke="black" d="M 153 99 90 147"/>
<path stroke-width="18.03030303030303" stroke="black" d="M 106 177 60 197"/>
<path stroke-width="0.5" stroke="black" d="M 106 177 255 98"/>
<path stroke-width="0.5" stroke="black" d="M 106 177 259 147"/>
<path stroke-width="0.5" stroke="black" d="M 106 177 192 186"/>
<path stroke-width="0.5" stroke="black" d="M 192 186 266 111"/>
<path stroke-width="0.5" stroke="black" d="M 192 186 203 229"/>
<path stroke-width="0.7954545454545454" stroke="black" d="M 192 186 224 216"/>
<path stroke-width="0.5" stroke="black" d="M 192 186 259 200"/>
<path stroke-width="19.606060606060606" stroke="black" d="M 302 137 259 147"/>
<path stroke-width="0.5" stroke="black" d="M 259 147 192 186"/>
<path stroke-width="19.606060606060606" stroke="black" d="M 259 147 302 137"/>
<path stroke-width="0.5" stroke="black" d="M 192 186 167 227"/>
<path stroke-width="0.5" stroke="black" d="M 259 147 255 98"/>
<path stroke-width="0.5" stroke="black" d="M 259 147 198 111"/>
<path stroke-width="0.5" stroke="black" d="M 259 147 153 99"/>
<path stroke-width="0.5" stroke="black" d="M 259 147 178 184"/>
<path stroke-width="0.5" stroke="black" d="M 259 147 274 155"/>
<path stroke-width="0.5" stroke="black" d="M 259 147 90 147"/>
<path stroke-width="0.5" stroke="black" d="M 259 147 134 212"/>
<path stroke-width="0.5" stroke="black" d="M 259 147 105 126"/>
<path stroke-width="0.5" stroke="black" d="M 259 147 106 177"/>
<path stroke-width="0.5" stroke="black" d="M 192 186 269 188"/>
<path stroke-width="0.5" stroke="black" d="M 192 186 153 93"/>
<path stroke-width="0.5" stroke="black" d="M 192 186 192 98"/>
<path stroke-width="20.0" stroke="black" d="M 192 186 186 150"/>
<path stroke-width="0.5" stroke="black" d="M 192 186 259 147"/>
<path stroke-width="0.5" stroke="black" d="M 192 186 255 98"/>
<path stroke-width="0.5" stroke="black" d="M 192 186 106 177"/>
<path stroke-width="0.5" stroke="black" d="M 192 186 198 111"/>
<path stroke-width="0.5" stroke="black" d="M 192 186 153 99"/>
<path stroke-width="0.5" stroke="black" d="M 192 186 178 184"/>
<path stroke-width="0.5" stroke="black" d="M 192 186 274 155"/>
<path stroke-width="0.5" stroke="black" d="M 192 186 90 147"/>
<path stroke-width="0.5" stroke="black" d="M 192 186 134 212"/>
<path stroke-width="0.5" stroke="black" d="M 192 186 105 126"/>
<path stroke-width="0.5" stroke="black" d="M 192 186 234 120"/>
<path stroke-width="0.5" stroke="black" d="M 192 186 253 204"/>
<path stroke-width="0.5" stroke="black" d="M 192 186 104 203"/>
<path stroke-width="0.5" stroke="black" d="M 192 186 160 218"/>
<path stroke-width="0.5" stroke="black" d="M 192 186 114 110"/>
<path stroke-width="0.5" stroke="black" d="M 192 186 84 160"/>
<path stroke-width="0.5" stroke="black" d="M 259 147 234 120"/>
<path stroke-width="0.5" stroke="black" d="M 178 184 106 177"/>
<path stroke-width="0.5" stroke="black" d="M 259 147 253 204"/>
<path stroke-width="0.5" stroke="black" d="M 259 147 160 218"/>
<path stroke-width="0.5" stroke="black" d="M 255 98 105 126"/>
<path stroke-width="0.5" stroke="black" d="M 255 98 234 120"/>
<path stroke-width="0.5" stroke="black" d="M 255 98 253 204"/>
<path stroke-width="0.5" stroke="black" d="M 255 98 104 203"/>
<path stroke-width="0.5" stroke="black" d="M 255 98 160 218"/>
<path stroke-width="0.5" stroke="black" d="M 255 98 114 110"/>
<path stroke-width="0.5" stroke="black" d="M 255 98 84 160"/>
<path stroke-width="0.5" stroke="black" d="M 255 98 134 212"/>
<path stroke-width="0.5" stroke="black" d="M 255 98 192 98"/>
<path stroke-width="0.5" stroke="black" d="M 255 98 269 188"/>
<path stroke-width="0.5" stroke="black" d="M 255 98 167 227"/>
<path stroke-width="0.7954545454545454" stroke="black" d="M 255 98 266 111"/>
<path stroke-width="0.5" stroke="black" d="M 255 98 203 229"/>
<path stroke-width="0.5" stroke="black" d="M 255 98 224 216"/>
<path stroke-width="0.5" stroke="black" d="M 255 98 259 200"/>
<path stroke-width="18.03030303030303" stroke="black" d="M 60 197 106 177"/>
<path stroke-width="0.5" stroke="black" d="M 255 98 153 93"/>
<path stroke-width="0.5" stroke="black" d="M 255 98 90 147"/>
<path stroke-width="0.5" stroke="black" d="M 255 98 274 155"/>
<path stroke-width="0.5" stroke="black" d="M 255 98 178 184"/>
<path stroke-width="0.5" stroke="black" d="M 259 147 114 110"/>
<path stroke-width="0.5" stroke="black" d="M 259 147 84 160"/>
<path stroke-width="0.5" stroke="black" d="M 259 147 192 98"/>
<path stroke-width="0.5" stroke="black" d="M 259 147 153 93"/>
<path stroke-width="0.5" stroke="black" d="M 259 147 269 188"/>
<path stroke-width="0.5" stroke="black" d="M 259 147 167 227"/>
<path stroke-width="0.5" stroke="black" d="M 259 147 266 111"/>
<path stroke-width="0.7954545454545454" stroke="black" d="M 259 147 203 229"/>
<path stroke-width="0.5" stroke="black" d="M 259 147 224 216"/>
<path stroke-width="0.5" stroke="black" d="M 259 147 259 200"/>
<path stroke-width="18.818181818181817" stroke="black" d="M 270 65 255 98"/>
<path stroke-width="0.5" stroke="black" d="M 255 98 192 186"/>
<path stroke-width="0.5" stroke="black" d="M 255 98 259 147"/>
<path stroke-width="18.818181818181817" stroke="black" d="M 255 98 270 65"/>
<path stroke-width="0.5" stroke="black" d="M 255 98 106 177"/>
<path stroke-width="0.5" stroke="black" d="M 255 98 198 111"/>
<path stroke-width="0.5" stroke="black" d="M 255 98 153 99"/>
<path stroke-width="0.5" stroke="black" d="M 259 147 104 203"/>
<path stroke-width="0.5" stroke="black" d="M 259 200 224 216"/>
<path stroke-width="0.5" stroke="black" d="M 178 184 198 111"/>
<path stroke-width="15.666666666666666" stroke="black" d="M 178 184 180 214"/>
<path stroke-width="0.5" stroke="black" d="M 105 126 153 99"/>
<path stroke-width="0.5" stroke="black" d="M 105 126 178 184"/>
<path stroke-width="0.5" stroke="black" d="M 105 126 274 155"/>
<path stroke-width="0.5" stroke="black" d="M 105 126 90 147"/>
<path stroke-width="0.5" stroke="black" d="M 105 126 134 212"/>
<path stroke-width="12.515151515151516" stroke="black" d="M 105 126 46 101"/>
<path stroke-width="0.5" stroke="black" d="M 105 126 234 120"/>
<path stroke-width="0.5" stroke="black" d="M 105 126 198 111"/>
<path stroke-width="0.5" stroke="black" d="M 105 126 253 204"/>
<path stroke-width="0.5" stroke="black" d="M 105 126 160 218"/>
<path stroke-width="0.5" stroke="black" d="M 105 126 114 110"/>
<path stroke-width="0.5" stroke="black" d="M 105 126 84 160"/>
<path stroke-width="0.5" stroke="black" d="M 105 126 192 98"/>
<path stroke-width="0.5" stroke="black" d="M 105 126 153 93"/>
<path stroke-width="0.5" stroke="black" d="M 105 126 269 188"/>
<path stroke-width="0.5" stroke="black" d="M 105 126 167 227"/>
<path stroke-width="0.7954545454545454" stroke="black" d="M 105 126 104 203"/>
<path stroke-width="0.5" stroke="black" d="M 105 126 266 111"/>
<path stroke-width="0.5" stroke="black" d="M 105 126 106 177"/>
<path stroke-width="0.5" stroke="black" d="M 105 126 259 147"/>
<path stroke-width="0.5" stroke="black" d="M 134 212 234 120"/>
<path stroke-width="0.5" stroke="black" d="M 134 212 253 204"/>
<path stroke-width="0.5" stroke="black" d="M 134 212 104 203"/>
<path stroke-width="0.7954545454545454" stroke="black" d="M 134 212 160 218"/>
<path stroke-width="0.5" stroke="black" d="M 134 212 114 110"/>
<path stroke-width="0.5" stroke="black" d="M 134 212 84 160"/>
<path stroke-width="0.5" stroke="black" d="M 134 212 192 98"/>
<path stroke-width="0.5" stroke="black" d="M 105 126 255 98"/>
<path stroke-width="0.5" stroke="black" d="M 134 212 153 93"/>
<path stroke-width="0.5" stroke="black" d="M 134 212 167 227"/>
<path stroke-width="0.5" stroke="black" d="M 134 212 266 111"/>
<path stroke-width="0.5" stroke="black" d="M 134 212 203 229"/>
<path stroke-width="0.5" stroke="black" d="M 134 212 224 216"/>
<path stroke-width="0.5" stroke="black" d="M 134 212 259 200"/>
<path stroke-width="12.515151515151516" stroke="black" d="M 46 101 105 126"/>
<path stroke-width="0.5" stroke="black" d="M 105 126 192 186"/>
<path stroke-width="0.5" stroke="black" d="M 134 212 269 188"/>
<path stroke-width="0.5" stroke="black" d="M 105 126 203 229"/>
<path stroke-width="0.5" stroke="black" d="M 105 126 224 216"/>
<path stroke-width="0.5" stroke="black" d="M 105 126 259 200"/>
<path stroke-width="0.5" stroke="black" d="M 234 120 167 227"/>
<path stroke-width="0.5" stroke="black" d="M 234 120 266 111"/>
<path stroke-width="0.5" stroke="black" d="M 234 120 203 229"/>
<path stroke-width="0.5" stroke="black" d="M 234 120 224 216"/>
<path stroke-width="0.5" stroke="black" d="M 234 120 259 200"/>
<path stroke-width="11.333333333333334" stroke="black" d="M 298 237 253 204"/>
<path stroke-width="0.5" stroke="black" d="M 253 204 192 186"/>
<path stroke-width="0.5" stroke="black" d="M 234 120 269 188"/>
<path stroke-width="0.5" stroke="black" d="M 253 204 259 147"/>
<path stroke-width="0.5" stroke="black" d="M 253 204 106 177"/>
<path stroke-width="0.5" stroke="black" d="M 253 204 198 111"/>
<path stroke-width="0.5" stroke="black" d="M 253 204 153 99"/>
<path stroke-width="0.5" stroke="black" d="M 253 204 178 184"/>
<path stroke-width="0.5" stroke="black" d="M 253 204 274 155"/>
<path stroke-width="0.5" stroke="black" d="M 253 204 90 147"/>
<path stroke-width="0.5" stroke="black" d="M 253 204 134 212"/>
<path stroke-width="0.5" stroke="black" d="M 253 204 255 98"/>
<path stroke-width="0.5" stroke="black" d="M 234 120 153 93"/>
<path stroke-width="0.5" stroke="black" d="M 234 120 192 98"/>
<path stroke-width="0.5" stroke="black" d="M 234 120 84 160"/>
<path stroke-width="11.727272727272727" stroke="black" d="M 275 88 234 120"/>
<path stroke-width="0.5" stroke="black" d="M 234 120 192 186"/>
<path stroke-width="0.5" stroke="black" d="M 234 120 259 147"/>
<path stroke-width="0.5" stroke="black" d="M 234 120 255 98"/>
<path stroke-width="0.5" stroke="black" d="M 234 120 106 177"/>
<path stroke-width="0.5" stroke="black" d="M 234 120 198 111"/>
<path stroke-width="0.5" stroke="black" d="M 234 120 153 99"/>
<path stroke-width="0.5" stroke="black" d="M 234 120 178 184"/>
<path stroke-width="0.5" stroke="black" d="M 234 120 274 155"/>
<path stroke-width="0.5" stroke="black" d="M 234 120 90 147"/>
<path stroke-width="0.5" stroke="black" d="M 234 120 134 212"/>
<path stroke-width="0.5" stroke="black" d="M 234 120 105 126"/>
<path stroke-width="11.727272727272727" stroke="black" d="M 234 120 275 88"/>
<path stroke-width="0.7954545454545454" stroke="black" d="M 234 120 253 204"/>
<path stroke-width="0.5" stroke="black" d="M 234 120 104 203"/>
<path stroke-width="0.5" stroke="black" d="M 234 120 160 218"/>
<path stroke-width="0.5" stroke="black" d="M 234 120 114 110"/>
<path stroke-width="0.5" stroke="black" d="M 134 212 105 126"/>
<path stroke-width="13.303030303030303" stroke="black" d="M 134 212 86 255"/>
<path stroke-width="0.5" stroke="black" d="M 134 212 90 147"/>
<path stroke-width="0.5" stroke="black" d="M 134 212 274 155"/>
<path stroke-width="0.5" stroke="black" d="M 274 155 255 98"/>
<path stroke-width="0.5" stroke="black" d="M 274 155 106 177"/>
<path stroke-width="0.5" stroke="black" d="M 274 155 198 111"/>
<path stroke-width="0.5" stroke="black" d="M 274 155 153 99"/>
<path stroke-width="0.5" stroke="black" d="M 274 155 178 184"/>
<path stroke-width="14.878787878787879" stroke="black" d="M 274 155 331 153"/>
<path stroke-width="0.5" stroke="black" d="M 274 155 90 147"/>
<path stroke-width="0.5" stroke="black" d="M 274 155 259 147"/>
<path stroke-width="0.5" stroke="black" d="M 274 155 134 212"/>
<path stroke-width="0.5" stroke="black" d="M 274 155 234 120"/>
<path stroke-width="0.5" stroke="black" d="M 274 155 253 204"/>
<path stroke-width="0.5" stroke="black" d="M 274 155 104 203"/>
<path stroke-width="0.5" stroke="black" d="M 274 155 160 218"/>
<path stroke-width="0.5" stroke="black" d="M 274 155 114 110"/>
<path stroke-width="0.7954545454545454" stroke="black" d="M 274 155 84 160"/>
<path stroke-width="0.5" stroke="black" d="M 274 155 192 98"/>
<path stroke-width="0.5" stroke="black" d="M 274 155 105 126"/>
<path stroke-width="0.5" stroke="black" d="M 274 155 192 186"/>
<path stroke-width="14.878787878787879" stroke="black" d="M 331 153 274 155"/>
<path stroke-width="0.5" stroke="black" d="M 178 184 259 200"/>
<path stroke-width="0.5" stroke="black" d="M 178 184 274 155"/>
<path stroke-width="0.5" stroke="black" d="M 178 184 90 147"/>
<path stroke-width="0.5" stroke="black" d="M 178 184 134 212"/>
<path stroke-width="0.5" stroke="black" d="M 178 184 105 126"/>
<path stroke-width="0.5" stroke="black" d="M 178 184 234 120"/>
<path stroke-width="0.5" stroke="black" d="M 178 184 253 204"/>
<path stroke-width="0.5" stroke="black" d="M 178 184 104 203"/>
<path stroke-width="0.5" stroke="black" d="M 178 184 160 218"/>
<path stroke-width="0.5" stroke="black" d="M 178 184 114 110"/>
<path stroke-width="0.5" stroke="black" d="M 178 184 84 160"/>
<path stroke-width="0.7954545454545454" stroke="black" d="M 178 184 192 98"/>
<path stroke-width="0.5" stroke="black" d="M 178 184 153 93"/>
<path stroke-width="0.5" stroke="black" d="M 178 184 269 188"/>
<path stroke-width="0.5" stroke="black" d="M 178 184 167 227"/>
<path stroke-width="0.5" stroke="black" d="M 178 184 266 111"/>
<path stroke-width="0.5" stroke="black" d="M 178 184 203 229"/>
<path stroke-width="0.5" stroke="black" d="M 178 184 224 216"/>
<path stroke-width="0.5" stroke="black" d="M 274 155 153 93"/>
<path stroke-width="0.5" stroke="black" d="M 178 184 153 99"/>
<path stroke-width="0.5" stroke="black" d="M 274 155 269 188"/>
<path stroke-width="0.5" stroke="black" d="M 274 155 266 111"/>
<path stroke-width="0.5" stroke="black" d="M 90 147 192 98"/>
<path stroke-width="0.5" stroke="black" d="M 90 147 153 93"/>
<path stroke-width="0.5" stroke="black" d="M 90 147 269 188"/>
<path stroke-width="0.5" stroke="black" d="M 90 147 167 227"/>
<path stroke-width="0.5" stroke="black" d="M 90 147 266 111"/>
<path stroke-width="0.5" stroke="black" d="M 90 147 203 229"/>
<path stroke-width="0.5" stroke="black" d="M 90 147 224 216"/>
<path stroke-width="0.5" stroke="black" d="M 90 147 84 160"/>
<path stroke-width="0.5" stroke="black" d="M 90 147 259 200"/>
<path stroke-width="0.5" stroke="black" d="M 134 212 192 186"/>
<path stroke-width="0.5" stroke="black" d="M 134 212 259 147"/>
<path stroke-width="0.5" stroke="black" d="M 134 212 255 98"/>
<path stroke-width="0.5" stroke="black" d="M 134 212 106 177"/>
<path stroke-width="0.5" stroke="black" d="M 134 212 198 111"/>
<path stroke-width="0.5" stroke="black" d="M 134 212 153 99"/>
<path stroke-width="0.5" stroke="black" d="M 134 212 178 184"/>
<path stroke-width="13.303030303030303" stroke="black" d="M 86 255 134 212"/>
<path stroke-width="0.7954545454545454" stroke="black" d="M 90 147 114 110"/>
<path stroke-width="0.5" stroke="black" d="M 90 147 160 218"/>
<path stroke-width="0.5" stroke="black" d="M 90 147 104 203"/>
<path stroke-width="0.5" stroke="black" d="M 274 155 203 229"/>
<path stroke-width="0.5" stroke="black" d="M 274 155 224 216"/>
<path stroke-width="0.5" stroke="black" d="M 274 155 259 200"/>
<path stroke-width="14.090909090909092" stroke="black" d="M 31 125 90 147"/>
<path stroke-width="0.5" stroke="black" d="M 90 147 192 186"/>
<path stroke-width="0.5" stroke="black" d="M 90 147 259 147"/>
<path stroke-width="0.5" stroke="black" d="M 90 147 255 98"/>
<path stroke-width="0.5" stroke="black" d="M 90 147 106 177"/>
<path stroke-width="0.5" stroke="black" d="M 90 147 198 111"/>
<path stroke-width="0.5" stroke="black" d="M 90 147 153 99"/>
<path stroke-width="0.5" stroke="black" d="M 90 147 178 184"/>
<path stroke-width="0.5" stroke="black" d="M 90 147 274 155"/>
<path stroke-width="14.090909090909092" stroke="black" d="M 90 147 31 125"/>
<path stroke-width="0.5" stroke="black" d="M 90 147 134 212"/>
<path stroke-width="0.5" stroke="black" d="M 90 147 105 126"/>
<path stroke-width="0.5" stroke="black" d="M 90 147 234 120"/>
<path stroke-width="0.5" stroke="black" d="M 90 147 253 204"/>
<path stroke-width="0.5" stroke="black" d="M 274 155 167 227"/>
<path stroke-width="1.0909090909090908" stroke="black" d="M 259 200 420 302"/>
<circle cx="186" cy="150" r="7.0" style="fill:red;stroke:black;stroke-width:1.0"/>
<circle cx="192" cy="186" r="7.0" style="fill:red;stroke:black;stroke-width:1.0"/>
<circle cx="302" cy="137" r="7.0" style="fill:green;stroke:black;stroke-width:1.0"/>
<circle cx="259" cy="147" r="7.0" style="fill:green;stroke:black;stroke-width:1.0"/>
<circle cx="270" cy="65" r="7.0" style="fill:red;stroke:black;stroke-width:1.0"/>
<circle cx="255" cy="98" r="7.0" style="fill:red;stroke:black;stroke-width:1.0"/>
<circle cx="60" cy="197" r="7.0" style="fill:red;stroke:black;stroke-width:1.0"/>
<circle cx="106" cy="177" r="7.0" style="fill:red;stroke:black;stroke-width:1.0"/>
<circle cx="208" cy="60" r="7.0" style="fill:yellow;stroke:black;stroke-width:1.0"/>
<circle cx="198" cy="111" r="7.0" style="fill:yellow;stroke:black;stroke-width:1.0"/>
<circle cx="136" cy="58" r="7.0" style="fill:fuchsia;stroke:black;stroke-width:1.0"/>
<circle cx="153" cy="99" r="7.0" style="fill:fuchsia;stroke:black;stroke-width:1.0"/>
<circle cx="180" cy="214" r="7.0" style="fill:blue;stroke:black;stroke-width:1.0"/>
<circle cx="178" cy="184" r="7.0" style="fill:blue;stroke:black;stroke-width:1.0"/>
<circle cx="331" cy="153" r="7.0" style="fill:orange;stroke:black;stroke-width:1.0"/>
<circle cx="274" cy="155" r="7.0" style="fill:orange;stroke:black;stroke-width:1.0"/>
<circle cx="31" cy="125" r="7.0" style="fill:red;stroke:black;stroke-width:1.0"/>
<circle cx="90" cy="147" r="7.0" style="fill:olive;stroke:black;stroke-width:1.0"/>
<circle cx="86" cy="255" r="7.0" style="fill:red;stroke:black;stroke-width:1.0"/>
<circle cx="134" cy="212" r="7.0" style="fill:red;stroke:black;stroke-width:1.0"/>
<circle cx="46" cy="101" r="7.0" style="fill:aqua;stroke:black;stroke-width:1.0"/>
<circle cx="105" cy="126" r="7.0" style="fill:aqua;stroke:black;stroke-width:1.0"/>
<circle cx="275" cy="88" r="7.0" style="fill:red;stroke:black;stroke-width:1.0"/>
<circle cx="234" cy="120" r="7.0" style="fill:red;stroke:black;stroke-width:1.0"/>
<circle cx="298" cy="237" r="7.0" style="fill:red;stroke:black;stroke-width:1.0"/>
<circle cx="253" cy="204" r="7.0" style="fill:red;stroke:black;stroke-width:1.0"/>
<circle cx="39" cy="232" r="7.0" style="fill:blue;stroke:black;stroke-width:1.0"/>
<circle cx="104" cy="203" r="7.0" style="fill:blue;stroke:black;stroke-width:1.0"/>
<circle cx="137" cy="282" r="7.0" style="fill:red;stroke:black;stroke-width:1.0"/>
<circle cx="160" cy="218" r="7.0" style="fill:red;stroke:black;stroke-width:1.0"/>
<circle cx="50" cy="67" r="7.0" style="fill:olive;stroke:black;stroke-width:1.0"/>
<circle cx="114" cy="110" r="7.0" style="fill:olive;stroke:black;stroke-width:1.0"/>
<circle cx="20" cy="162" r="7.0" style="fill:purple;stroke:black;stroke-width:1.0"/>
<circle cx="84" cy="160" r="7.0" style="fill:purple;stroke:black;stroke-width:1.0"/>
<circle cx="200" cy="30" r="7.0" style="fill:red;stroke:black;stroke-width:1.0"/>
<circle cx="192" cy="98" r="7.0" style="fill:blue;stroke:black;stroke-width:1.0"/>
<circle cx="130" cy="20" r="7.0" style="fill:fuchsia;stroke:black;stroke-width:1.0"/>
<circle cx="153" cy="93" r="7.0" style="fill:fuchsia;stroke:black;stroke-width:1.0"/>
<circle cx="350" cy="215" r="7.0" style="fill:yellow;stroke:black;stroke-width:1.0"/>
<circle cx="269" cy="188" r="7.0" style="fill:red;stroke:black;stroke-width:1.0"/>
<circle cx="150" cy="305" r="7.0" style="fill:red;stroke:black;stroke-width:1.0"/>
<circle cx="167" cy="227" r="7.0" style="fill:red;stroke:black;stroke-width:1.0"/>
<circle cx="347" cy="59" r="7.0" style="fill:red;stroke:black;stroke-width:1.0"/>
<circle cx="266" cy="111" r="7.0" style="fill:red;stroke:black;stroke-width:1.0"/>
<circle cx="208" cy="320" r="7.0" style="fill:brown;stroke:black;stroke-width:1.0"/>
<circle cx="203" cy="229" r="7.0" style="fill:brown;stroke:black;stroke-width:1.0"/>
<circle cx="274" cy="295" r="7.0" style="fill:red;stroke:black;stroke-width:1.0"/>
<circle cx="224" cy="216" r="7.0" style="fill:red;stroke:black;stroke-width:1.0"/>
<circle cx="420" cy="302" r="7.0" style="fill:red;stroke:black;stroke-width:1.0"/>
<circle cx="259" cy="200" r="7.0" style="fill:red;stroke:black;stroke-width:1.0"/>
</svg>
