<svg width="440" height="340" xmlns="http://www.w3.org/2000/svg">
<path stroke-width="20.0" stroke="black" d="M 339 288 321 260"/>
<path stroke-width="0.5" stroke="black" d="M 358 227 272 220"/>
<path stroke-width="0.5" stroke="black" d="M 358 227 344 176"/>
<path stroke-width="0.5" stroke="black" d="M 358 227 262 161"/>
<path stroke-width="0.5" stroke="black" d="M 358 227 316 275"/>
<path stroke-width="0.5" stroke="black" d="M 358 227 311 185"/>
<path stroke-width="8.181818181818182" stroke="black" d="M 358 227 404 241"/>
<path stroke-width="0.5" stroke="black" d="M 358 227 263 264"/>
<path stroke-width="0.5" stroke="black" d="M 358 227 264 260"/>
<path stroke-width="0.5" stroke="black" d="M 358 227 302 154"/>
<path stroke-width="0.5" stroke="black" d="M 358 227 331 206"/>
<path stroke-width="0.5" stroke="black" d="M 358 227 318 121"/>
<path stroke-width="0.5" stroke="black" d="M 358 227 351 257"/>
<path stroke-width="0.5" stroke="black" d="M 358 227 288 122"/>
<path stroke-width="0.5" stroke="black" d="M 358 227 213 161"/>
<path stroke-width="7.393939393939394" stroke="black" d="M 226 301 263 264"/>
<path stroke-width="0.5" stroke="black" d="M 263 264 321 260"/>
<path stroke-width="0.5" stroke="black" d="M 358 227 247 237"/>
<path stroke-width="0.5" stroke="black" d="M 263 264 277 180"/>
<path stroke-width="0.5" stroke="black" d="M 358 227 324 240"/>
<path stroke-width="0.7954545454545454" stroke="black" d="M 358 227 345 220"/>
<path stroke-width="0.5" stroke="black" d="M 311 185 263 264"/>
<path stroke-width="0.5" stroke="black" d="M 311 185 302 154"/>
<path stroke-width="0.5" stroke="black" d="M 311 185 247 237"/>
<path stroke-width="0.5" stroke="black" d="M 311 185 331 206"/>
<path stroke-width="0.5" stroke="black" d="M 311 185 318 121"/>
<path stroke-width="0.5" stroke="black" d="M 311 185 351 257"/>
<path stroke-width="0.5" stroke="black" d="M 311 185 288 122"/>
<path stroke-width="0.5" stroke="black" d="M 358 227 337 147"/>
<path stroke-width="0.5" stroke="black" d="M 311 185 213 161"/>
<path stroke-width="0.5" stroke="black" d="M 358 227 321 260"/>
<path stroke-width="0.5" stroke="black" d="M 358 227 277 180"/>
<path stroke-width="0.5" stroke="black" d="M 358 227 351 193"/>
<path stroke-width="0.5" stroke="black" d="M 358 227 259 225"/>
<path stroke-width="0.5" stroke="black" d="M 358 227 251 230"/>
<path stroke-width="0.5" stroke="black" d="M 358 227 312 196"/>
<path stroke-width="0.5" stroke="black" d="M 358 227 256 186"/>
<path stroke-width="8.181818181818182" stroke="black" d="M 404 241 358 227"/>
<path stroke-width="0.5" stroke="black" d="M 263 264 351 193"/>
<path stroke-width="0.5" stroke="black" d="M 263 264 259 225"/>
<path stroke-width="0.5" stroke="black" d="M 263 264 251 230"/>
<path stroke-width="0.5" stroke="black" d="M 302 154 321 260"/>
<path stroke-width="0.5" stroke="black" d="M 302 154 277 180"/>
<path stroke-width="0.5" stroke="black" d="M 302 154 351 193"/>
<path stroke-width="0.5" stroke="black" d="M 302 154 259 225"/>
<path stroke-width="0.5" stroke="black" d="M 302 154 251 230"/>
<path stroke-width="0.7954545454545454" stroke="black" d="M 302 154 312 196"/>
<path stroke-width="0.5" stroke="black" d="M 302 154 256 186"/>
<path stroke-width="6.606060606060606" stroke="black" d="M 309 100 302 154"/>
<path stroke-width="0.5" stroke="black" d="M 302 154 345 220"/>
<path stroke-width="0.5" stroke="black" d="M 302 154 324 240"/>
<path stroke-width="0.5" stroke="black" d="M 302 154 264 260"/>
<path stroke-width="0.5" stroke="black" d="M 302 154 272 220"/>
<path stroke-width="0.5" stroke="black" d="M 302 154 344 176"/>
<path stroke-width="0.5" stroke="black" d="M 302 154 262 161"/>
<path stroke-width="0.5" stroke="black" d="M 302 154 316 275"/>
<path stroke-width="0.5" stroke="black" d="M 302 154 311 185"/>
<path stroke-width="0.5" stroke="black" d="M 302 154 337 147"/>
<path stroke-width="0.5" stroke="black" d="M 263 264 213 161"/>
<path stroke-width="0.5" stroke="black" d="M 263 264 288 122"/>
<path stroke-width="0.5" stroke="black" d="M 263 264 351 257"/>
<path stroke-width="0.5" stroke="black" d="M 263 264 312 196"/>
<path stroke-width="0.7954545454545454" stroke="black" d="M 263 264 256 186"/>
<path stroke-width="0.5" stroke="black" d="M 263 264 345 220"/>
<path stroke-width="0.5" stroke="black" d="M 263 264 337 147"/>
<path stroke-width="0.5" stroke="black" d="M 263 264 324 240"/>
<path stroke-width="0.5" stroke="black" d="M 263 264 264 260"/>
<path stroke-width="0.5" stroke="black" d="M 263 264 272 220"/>
<path stroke-width="0.5" stroke="black" d="M 263 264 344 176"/>
<path stroke-width="0.5" stroke="black" d="M 263 264 262 161"/>
<path stroke-width="0.5" stroke="black" d="M 263 264 316 275"/>
<path stroke-width="0.5" stroke="black" d="M 263 264 311 185"/>
<path stroke-width="0.5" stroke="black" d="M 263 264 358 227"/>
<path stroke-width="7.393939393939394" stroke="black" d="M 263 264 226 301"/>
<path stroke-width="0.5" stroke="black" d="M 263 264 302 154"/>
<path stroke-width="0.5" stroke="black" d="M 263 264 247 237"/>
<path stroke-width="0.5" stroke="black" d="M 263 264 331 206"/>
<path stroke-width="0.5" stroke="black" d="M 263 264 318 121"/>
<path stroke-width="0.5" stroke="black" d="M 311 185 358 227"/>
<path stroke-width="0.5" stroke="black" d="M 302 154 358 227"/>
<path stroke-width="8.969696969696969" stroke="black" d="M 311 185 332 162"/>
<path stroke-width="0.5" stroke="black" d="M 311 185 262 161"/>
<path stroke-width="0.5" stroke="black" d="M 262 161 337 147"/>
<path stroke-width="0.5" stroke="black" d="M 262 161 324 240"/>
<path stroke-width="0.7954545454545454" stroke="black" d="M 262 161 264 260"/>
<path stroke-width="0.5" stroke="black" d="M 262 161 272 220"/>
<path stroke-width="0.5" stroke="black" d="M 262 161 344 176"/>
<path stroke-width="10.545454545454545" stroke="black" d="M 262 161 234 136"/>
<path stroke-width="0.5" stroke="black" d="M 262 161 316 275"/>
<path stroke-width="0.5" stroke="black" d="M 262 161 345 220"/>
<path stroke-width="0.5" stroke="black" d="M 262 161 311 185"/>
<path stroke-width="0.5" stroke="black" d="M 262 161 263 264"/>
<path stroke-width="0.5" stroke="black" d="M 262 161 302 154"/>
<path stroke-width="0.5" stroke="black" d="M 262 161 247 237"/>
<path stroke-width="0.5" stroke="black" d="M 262 161 331 206"/>
<path stroke-width="0.5" stroke="black" d="M 262 161 318 121"/>
<path stroke-width="0.5" stroke="black" d="M 262 161 351 257"/>
<path stroke-width="0.5" stroke="black" d="M 262 161 288 122"/>
<path stroke-width="0.5" stroke="black" d="M 262 161 358 227"/>
<path stroke-width="0.5" stroke="black" d="M 262 161 213 161"/>
<path stroke-width="0.5" stroke="black" d="M 262 161 256 186"/>
<path stroke-width="0.5" stroke="black" d="M 262 161 251 230"/>
<path stroke-width="0.5" stroke="black" d="M 344 176 316 275"/>
<path stroke-width="0.5" stroke="black" d="M 344 176 311 185"/>
<path stroke-width="0.5" stroke="black" d="M 344 176 358 227"/>
<path stroke-width="0.5" stroke="black" d="M 344 176 263 264"/>
<path stroke-width="0.5" stroke="black" d="M 344 176 302 154"/>
<path stroke-width="0.5" stroke="black" d="M 344 176 247 237"/>
<path stroke-width="0.5" stroke="black" d="M 344 176 331 206"/>
<path stroke-width="0.5" stroke="black" d="M 262 161 312 196"/>
<path stroke-width="0.5" stroke="black" d="M 344 176 318 121"/>
<path stroke-width="0.5" stroke="black" d="M 344 176 288 122"/>
<path stroke-width="0.5" stroke="black" d="M 344 176 213 161"/>
<path stroke-width="10.545454545454545" stroke="black" d="M 234 136 262 161"/>
<path stroke-width="0.5" stroke="black" d="M 262 161 321 260"/>
<path stroke-width="0.5" stroke="black" d="M 262 161 277 180"/>
<path stroke-width="0.5" stroke="black" d="M 262 161 351 193"/>
<path stroke-width="0.5" stroke="black" d="M 262 161 259 225"/>
<path stroke-width="0.5" stroke="black" d="M 344 176 351 257"/>
<path stroke-width="9.757575757575758" stroke="black" d="M 336 320 316 275"/>
<path stroke-width="0.5" stroke="black" d="M 316 275 321 260"/>
<path stroke-width="0.5" stroke="black" d="M 316 275 277 180"/>
<path stroke-width="0.5" stroke="black" d="M 316 275 288 122"/>
<path stroke-width="0.5" stroke="black" d="M 316 275 213 161"/>
<path stroke-width="8.969696969696969" stroke="black" d="M 332 162 311 185"/>
<path stroke-width="0.5" stroke="black" d="M 311 185 321 260"/>
<path stroke-width="0.5" stroke="black" d="M 311 185 277 180"/>
<path stroke-width="0.5" stroke="black" d="M 311 185 351 193"/>
<path stroke-width="0.5" stroke="black" d="M 311 185 259 225"/>
<path stroke-width="0.5" stroke="black" d="M 316 275 351 257"/>
<path stroke-width="0.5" stroke="black" d="M 311 185 251 230"/>
<path stroke-width="0.5" stroke="black" d="M 311 185 256 186"/>
<path stroke-width="0.5" stroke="black" d="M 311 185 345 220"/>
<path stroke-width="0.7954545454545454" stroke="black" d="M 311 185 337 147"/>
<path stroke-width="0.5" stroke="black" d="M 311 185 324 240"/>
<path stroke-width="0.5" stroke="black" d="M 311 185 264 260"/>
<path stroke-width="0.5" stroke="black" d="M 311 185 272 220"/>
<path stroke-width="0.5" stroke="black" d="M 311 185 344 176"/>
<path stroke-width="0.5" stroke="black" d="M 311 185 312 196"/>
<path stroke-width="0.5" stroke="black" d="M 316 275 318 121"/>
<path stroke-width="0.5" stroke="black" d="M 316 275 331 206"/>
<path stroke-width="0.5" stroke="black" d="M 316 275 247 237"/>
<path stroke-width="0.5" stroke="black" d="M 316 275 351 193"/>
<path stroke-width="0.5" stroke="black" d="M 316 275 259 225"/>
<path stroke-width="0.5" stroke="black" d="M 316 275 251 230"/>
<path stroke-width="0.5" stroke="black" d="M 316 275 312 196"/>
<path stroke-width="0.5" stroke="black" d="M 316 275 256 186"/>
<path stroke-width="0.5" stroke="black" d="M 316 275 345 220"/>
<path stroke-width="0.5" stroke="black" d="M 316 275 337 147"/>
<path stroke-width="0.7954545454545454" stroke="black" d="M 316 275 324 240"/>
<path stroke-width="0.5" stroke="black" d="M 316 275 264 260"/>
<path stroke-width="0.5" stroke="black" d="M 316 275 272 220"/>
<path stroke-width="0.5" stroke="black" d="M 316 275 344 176"/>
<path stroke-width="0.5" stroke="black" d="M 316 275 262 161"/>
<path stroke-width="9.757575757575758" stroke="black" d="M 316 275 336 320"/>
<path stroke-width="0.5" stroke="black" d="M 316 275 311 185"/>
<path stroke-width="0.5" stroke="black" d="M 316 275 358 227"/>
<path stroke-width="0.5" stroke="black" d="M 316 275 263 264"/>
<path stroke-width="0.5" stroke="black" d="M 316 275 302 154"/>
<path stroke-width="0.5" stroke="black" d="M 311 185 316 275"/>
<path stroke-width="0.5" stroke="black" d="M 302 154 263 264"/>
<path stroke-width="6.606060606060606" stroke="black" d="M 302 154 309 100"/>
<path stroke-width="0.5" stroke="black" d="M 302 154 247 237"/>
<path stroke-width="0.5" stroke="black" d="M 351 257 302 154"/>
<path stroke-width="0.5" stroke="black" d="M 351 257 247 237"/>
<path stroke-width="0.5" stroke="black" d="M 351 257 331 206"/>
<path stroke-width="0.5" stroke="black" d="M 351 257 318 121"/>
<path stroke-width="3.4545454545454546" stroke="black" d="M 351 257 420 304"/>
<path stroke-width="0.5" stroke="black" d="M 351 257 288 122"/>
<path stroke-width="0.5" stroke="black" d="M 351 257 213 161"/>
<path stroke-width="0.5" stroke="black" d="M 351 257 263 264"/>
<path stroke-width="3.0606060606060606" stroke="black" d="M 273 20 288 122"/>
<path stroke-width="0.5" stroke="black" d="M 288 122 277 180"/>
<path stroke-width="0.5" stroke="black" d="M 288 122 351 193"/>
<path stroke-width="0.5" stroke="black" d="M 288 122 259 225"/>
<path stroke-width="0.5" stroke="black" d="M 288 122 251 230"/>
<path stroke-width="0.5" stroke="black" d="M 288 122 312 196"/>
<path stroke-width="0.5" stroke="black" d="M 288 122 256 186"/>
<path stroke-width="0.5" stroke="black" d="M 288 122 345 220"/>
<path stroke-width="0.7954545454545454" stroke="black" d="M 288 122 321 260"/>
<path stroke-width="0.5" stroke="black" d="M 288 122 337 147"/>
<path stroke-width="0.5" stroke="black" d="M 351 257 358 227"/>
<path stroke-width="0.5" stroke="black" d="M 351 257 316 275"/>
<path stroke-width="0.5" stroke="black" d="M 318 121 213 161"/>
<path stroke-width="3.4545454545454546" stroke="black" d="M 420 304 351 257"/>
<path stroke-width="0.5" stroke="black" d="M 351 257 321 260"/>
<path stroke-width="0.7954545454545454" stroke="black" d="M 351 257 277 180"/>
<path stroke-width="0.5" stroke="black" d="M 351 257 351 193"/>
<path stroke-width="0.5" stroke="black" d="M 351 257 259 225"/>
<path stroke-width="0.5" stroke="black" d="M 351 257 251 230"/>
<path stroke-width="0.5" stroke="black" d="M 351 257 311 185"/>
<path stroke-width="0.5" stroke="black" d="M 351 257 312 196"/>
<path stroke-width="0.5" stroke="black" d="M 351 257 345 220"/>
<path stroke-width="0.5" stroke="black" d="M 351 257 337 147"/>
<path stroke-width="0.5" stroke="black" d="M 351 257 324 240"/>
<path stroke-width="0.5" stroke="black" d="M 351 257 264 260"/>
<path stroke-width="0.5" stroke="black" d="M 351 257 272 220"/>
<path stroke-width="0.5" stroke="black" d="M 351 257 344 176"/>
<path stroke-width="0.5" stroke="black" d="M 351 257 262 161"/>
<path stroke-width="0.5" stroke="black" d="M 351 257 256 186"/>
<path stroke-width="0.5" stroke="black" d="M 288 122 324 240"/>
<path stroke-width="0.5" stroke="black" d="M 288 122 264 260"/>
<path stroke-width="0.5" stroke="black" d="M 288 122 272 220"/>
<path stroke-width="0.5" stroke="black" d="M 213 161 345 220"/>
<path stroke-width="0.5" stroke="black" d="M 213 161 337 147"/>
<path stroke-width="0.5" stroke="black" d="M 213 161 324 240"/>
<path stroke-width="0.5" stroke="black" d="M 213 161 264 260"/>
<path stroke-width="0.5" stroke="black" d="M 213 161 272 220"/>
<path stroke-width="0.5" stroke="black" d="M 213 161 344 176"/>
<path stroke-width="0.5" stroke="black" d="M 213 161 262 161"/>
<path stroke-width="0.5" stroke="black" d="M 213 161 256 186"/>
<path stroke-width="0.5" stroke="black" d="M 213 161 316 275"/>
<path stroke-width="0.5" stroke="black" d="M 213 161 358 227"/>
<path stroke-width="0.5" stroke="black" d="M 213 161 263 264"/>
<path stroke-width="0.5" stroke="black" d="M 213 161 302 154"/>
<path stroke-width="0.5" stroke="black" d="M 213 161 247 237"/>
<path stroke-width="0.5" stroke="black" d="M 213 161 331 206"/>
<path stroke-width="0.5" stroke="black" d="M 213 161 318 121"/>
<path stroke-width="0.5" stroke="black" d="M 213 161 351 257"/>
<path stroke-width="0.5" stroke="black" d="M 213 161 311 185"/>
<path stroke-width="0.5" stroke="black" d="M 213 161 312 196"/>
<path stroke-width="0.5" stroke="black" d="M 213 161 251 230"/>
<path stroke-width="0.5" stroke="black" d="M 213 161 259 225"/>
<path stroke-width="0.5" stroke="black" d="M 288 122 344 176"/>
<path stroke-width="0.5" stroke="black" d="M 288 122 262 161"/>
<path stroke-width="0.5" stroke="black" d="M 288 122 316 275"/>
<path stroke-width="0.5" stroke="black" d="M 288 122 311 185"/>
<path stroke-width="0.5" stroke="black" d="M 288 122 358 227"/>
<path stroke-width="0.5" stroke="black" d="M 288 122 263 264"/>
<path stroke-width="0.5" stroke="black" d="M 288 122 302 154"/>
<path stroke-width="0.5" stroke="black" d="M 288 122 247 237"/>
<path stroke-width="0.5" stroke="black" d="M 288 122 331 206"/>
<path stroke-width="0.5" stroke="black" d="M 288 122 318 121"/>
<path stroke-width="0.5" stroke="black" d="M 288 122 351 257"/>
<path stroke-width="3.0606060606060606" stroke="black" d="M 288 122 273 20"/>
<path stroke-width="0.5" stroke="black" d="M 288 122 213 161"/>
<path stroke-width="1.0909090909090908" stroke="black" d="M 20 79 213 161"/>
<path stroke-width="0.5" stroke="black" d="M 213 161 321 260"/>
<path stroke-width="0.5" stroke="black" d="M 213 161 277 180"/>
<path stroke-width="0.5" stroke="black" d="M 213 161 351 193"/>
<path stroke-width="0.5" stroke="black" d="M 318 121 288 122"/>
<path stroke-width="0.5" stroke="black" d="M 318 121 351 257"/>
<path stroke-width="4.242424242424242" stroke="black" d="M 318 121 339 39"/>
<path stroke-width="0.5" stroke="black" d="M 318 121 331 206"/>
<path stroke-width="0.5" stroke="black" d="M 247 237 311 185"/>
<path stroke-width="0.5" stroke="black" d="M 247 237 358 227"/>
<path stroke-width="0.5" stroke="black" d="M 247 237 263 264"/>
<path stroke-width="0.5" stroke="black" d="M 247 237 302 154"/>
<path stroke-width="5.818181818181818" stroke="black" d="M 247 237 197 260"/>
<path stroke-width="0.5" stroke="black" d="M 247 237 331 206"/>
<path stroke-width="0.5" stroke="black" d="M 247 237 318 121"/>
<path stroke-width="0.5" stroke="black" d="M 247 237 316 275"/>
<path stroke-width="0.5" stroke="black" d="M 247 237 351 257"/>
<path stroke-width="0.5" stroke="black" d="M 247 237 213 161"/>
<path stroke-width="5.03030303030303" stroke="black" d="M 382 207 331 206"/>
<path stroke-width="0.5" stroke="black" d="M 331 206 321 260"/>
<path stroke-width="0.5" stroke="black" d="M 331 206 277 180"/>
<path stroke-width="0.5" stroke="black" d="M 331 206 351 193"/>
<path stroke-width="0.7954545454545454" stroke="black" d="M 331 206 259 225"/>
<path stroke-width="0.5" stroke="black" d="M 331 206 251 230"/>
<path stroke-width="0.5" stroke="black" d="M 247 237 288 122"/>
<path stroke-width="0.5" stroke="black" d="M 247 237 262 161"/>
<path stroke-width="0.5" stroke="black" d="M 247 237 344 176"/>
<path stroke-width="0.5" stroke="black" d="M 247 237 272 220"/>
<path stroke-width="0.5" stroke="black" d="M 302 154 331 206"/>
<path stroke-width="0.5" stroke="black" d="M 302 154 318 121"/>
<path stroke-width="0.5" stroke="black" d="M 302 154 351 257"/>
<path stroke-width="0.5" stroke="black" d="M 302 154 288 122"/>
<path stroke-width="0.5" stroke="black" d="M 302 154 213 161"/>
<path stroke-width="5.818181818181818" stroke="black" d="M 197 260 247 237"/>
<path stroke-width="0.5" stroke="black" d="M 247 237 321 260"/>
<path stroke-width="0.5" stroke="black" d="M 247 237 277 180"/>
<path stroke-width="0.5" stroke="black" d="M 247 237 351 193"/>
<path stroke-width="0.5" stroke="black" d="M 247 237 259 225"/>
<path stroke-width="0.7954545454545454" stroke="black" d="M 247 237 251 230"/>
<path stroke-width="0.5" stroke="black" d="M 247 237 312 196"/>
<path stroke-width="0.5" stroke="black" d="M 247 237 256 186"/>
<path stroke-width="0.5" stroke="black" d="M 247 237 345 220"/>
<path stroke-width="0.5" stroke="black" d="M 247 237 337 147"/>
<path stroke-width="0.5" stroke="black" d="M 247 237 324 240"/>
<path stroke-width="0.5" stroke="black" d="M 247 237 264 260"/>
<path stroke-width="0.5" stroke="black" d="M 331 206 312 196"/>
<path stroke-width="0.5" stroke="black" d="M 344 176 262 161"/>
<path stroke-width="0.5" stroke="black" d="M 331 206 256 186"/>
<path stroke-width="0.5" stroke="black" d="M 331 206 337 147"/>
<path stroke-width="0.5" stroke="black" d="M 318 121 251 230"/>
<path stroke-width="0.5" stroke="black" d="M 318 121 312 196"/>
<path stroke-width="0.5" stroke="black" d="M 318 121 256 186"/>
<path stroke-width="0.5" stroke="black" d="M 318 121 345 220"/>
<path stroke-width="0.5" stroke="black" d="M 318 121 337 147"/>
<path stroke-width="0.5" stroke="black" d="M 318 121 324 240"/>
<path stroke-width="0.5" stroke="black" d="M 318 121 264 260"/>
<path stroke-width="0.5" stroke="black" d="M 318 121 259 225"/>
<path stroke-width="0.5" stroke="black" d="M 318 121 272 220"/>
<path stroke-width="0.5" stroke="black" d="M 318 121 262 161"/>
<path stroke-width="0.5" stroke="black" d="M 318 121 316 275"/>
<path stroke-width="0.5" stroke="black" d="M 318 121 311 185"/>
<path stroke-width="0.5" stroke="black" d="M 318 121 358 227"/>
<path stroke-width="0.5" stroke="black" d="M 318 121 263 264"/>
<path stroke-width="0.5" stroke="black" d="M 318 121 302 154"/>
<path stroke-width="0.5" stroke="black" d="M 318 121 247 237"/>
<path stroke-width="0.5" stroke="black" d="M 318 121 344 176"/>
<path stroke-width="0.7954545454545454" stroke="black" d="M 318 121 351 193"/>
<path stroke-width="0.5" stroke="black" d="M 318 121 277 180"/>
<path stroke-width="0.5" stroke="black" d="M 318 121 321 260"/>
<path stroke-width="0.5" stroke="black" d="M 331 206 324 240"/>
<path stroke-width="0.5" stroke="black" d="M 331 206 264 260"/>
<path stroke-width="0.5" stroke="black" d="M 331 206 272 220"/>
<path stroke-width="0.5" stroke="black" d="M 331 206 344 176"/>
<path stroke-width="0.5" stroke="black" d="M 331 206 262 161"/>
<path stroke-width="0.5" stroke="black" d="M 331 206 316 275"/>
<path stroke-width="0.5" stroke="black" d="M 331 206 311 185"/>
<path stroke-width="0.5" stroke="black" d="M 331 206 358 227"/>
<path stroke-width="0.5" stroke="black" d="M 331 206 263 264"/>
<path stroke-width="0.5" stroke="black" d="M 331 206 302 154"/>
<path stroke-width="0.5" stroke="black" d="M 331 206 247 237"/>
<path stroke-width="5.03030303030303" stroke="black" d="M 331 206 382 207"/>
<path stroke-width="0.5" stroke="black" d="M 331 206 318 121"/>
<path stroke-width="0.5" stroke="black" d="M 331 206 351 257"/>
<path stroke-width="0.5" stroke="black" d="M 331 206 288 122"/>
<path stroke-width="0.5" stroke="black" d="M 331 206 213 161"/>
<path stroke-width="4.242424242424242" stroke="black" d="M 339 39 318 121"/>
<path stroke-width="0.5" stroke="black" d="M 331 206 345 220"/>
<path stroke-width="11.333333333333334" stroke="black" d="M 344 176 379 161"/>
<path stroke-width="0.7954545454545454" stroke="black" d="M 344 176 272 220"/>
<path stroke-width="0.5" stroke="black" d="M 344 176 264 260"/>
<path stroke-width="0.5" stroke="black" d="M 259 225 213 161"/>
<path stroke-width="17.242424242424242" stroke="black" d="M 224 242 251 230"/>
<path stroke-width="0.5" stroke="black" d="M 251 230 321 260"/>
<path stroke-width="0.5" stroke="black" d="M 251 230 277 180"/>
<path stroke-width="0.5" stroke="black" d="M 251 230 351 193"/>
<path stroke-width="0.5" stroke="black" d="M 251 230 259 225"/>
<path stroke-width="17.242424242424242" stroke="black" d="M 251 230 224 242"/>
<path stroke-width="0.5" stroke="black" d="M 259 225 288 122"/>
<path stroke-width="0.5" stroke="black" d="M 251 230 312 196"/>
<path stroke-width="0.5" stroke="black" d="M 251 230 345 220"/>
<path stroke-width="0.5" stroke="black" d="M 251 230 337 147"/>
<path stroke-width="0.5" stroke="black" d="M 251 230 324 240"/>
<path stroke-width="0.5" stroke="black" d="M 251 230 264 260"/>
<path stroke-width="0.5" stroke="black" d="M 251 230 272 220"/>
<path stroke-width="0.5" stroke="black" d="M 251 230 344 176"/>
<path stroke-width="0.5" stroke="black" d="M 251 230 262 161"/>
<path stroke-width="0.5" stroke="black" d="M 251 230 256 186"/>
<path stroke-width="0.5" stroke="black" d="M 251 230 316 275"/>
<path stroke-width="0.5" stroke="black" d="M 259 225 351 257"/>
<path stroke-width="0.7954545454545454" stroke="black" d="M 259 225 331 206"/>
<path stroke-width="0.5" stroke="black" d="M 259 225 251 230"/>
<path stroke-width="0.5" stroke="black" d="M 259 225 312 196"/>
<path stroke-width="0.5" stroke="black" d="M 259 225 256 186"/>
<path stroke-width="0.5" stroke="black" d="M 259 225 345 220"/>
<path stroke-width="0.5" stroke="black" d="M 259 225 337 147"/>
<path stroke-width="0.5" stroke="black" d="M 259 225 324 240"/>
<path stroke-width="0.5" stroke="black" d="M 259 225 264 260"/>
<path stroke-width="0.5" stroke="black" d="M 259 225 318 121"/>
<path stroke-width="0.5" stroke="black" d="M 259 225 272 220"/>
<path stroke-width="0.5" stroke="black" d="M 259 225 262 161"/>
<path stroke-width="0.5" stroke="black" d="M 259 225 316 275"/>
<path stroke-width="0.5" stroke="black" d="M 259 225 311 185"/>
<path stroke-width="0.5" stroke="black" d="M 259 225 358 227"/>
<path stroke-width="0.5" stroke="black" d="M 259 225 263 264"/>
<path stroke-width="0.5" stroke="black" d="M 259 225 302 154"/>
<path stroke-width="0.5" stroke="black" d="M 259 225 247 237"/>
<path stroke-width="0.5" stroke="black" d="M 259 225 344 176"/>
<path stroke-width="0.5" stroke="black" d="M 251 230 311 185"/>
<path stroke-width="0.5" stroke="black" d="M 251 230 358 227"/>
<path stroke-width="0.5" stroke="black" d="M 251 230 263 264"/>
<path stroke-width="0.5" stroke="black" d="M 312 196 262 161"/>
<path stroke-width="0.5" stroke="black" d="M 312 196 316 275"/>
<path stroke-width="0.5" stroke="black" d="M 312 196 311 185"/>
<path stroke-width="0.5" stroke="black" d="M 312 196 358 227"/>
<path stroke-width="0.5" stroke="black" d="M 312 196 263 264"/>
<path stroke-width="0.7954545454545454" stroke="black" d="M 312 196 302 154"/>
<path stroke-width="0.5" stroke="black" d="M 312 196 247 237"/>
<path stroke-width="0.5" stroke="black" d="M 312 196 344 176"/>
<path stroke-width="0.5" stroke="black" d="M 312 196 331 206"/>
<path stroke-width="0.5" stroke="black" d="M 312 196 351 257"/>
<path stroke-width="0.5" stroke="black" d="M 312 196 288 122"/>
<path stroke-width="0.5" stroke="black" d="M 312 196 213 161"/>
<path stroke-width="15.666666666666666" stroke="black" d="M 230 177 256 186"/>
<path stroke-width="0.5" stroke="black" d="M 256 186 321 260"/>
<path stroke-width="0.5" stroke="black" d="M 256 186 277 180"/>
<path stroke-width="0.5" stroke="black" d="M 256 186 351 193"/>
<path stroke-width="0.5" stroke="black" d="M 312 196 318 121"/>
<path stroke-width="0.5" stroke="black" d="M 312 196 272 220"/>
<path stroke-width="0.5" stroke="black" d="M 312 196 264 260"/>
<path stroke-width="0.5" stroke="black" d="M 312 196 324 240"/>
<path stroke-width="0.5" stroke="black" d="M 251 230 302 154"/>
<path stroke-width="0.7954545454545454" stroke="black" d="M 251 230 247 237"/>
<path stroke-width="0.5" stroke="black" d="M 251 230 331 206"/>
<path stroke-width="0.5" stroke="black" d="M 251 230 318 121"/>
<path stroke-width="0.5" stroke="black" d="M 251 230 351 257"/>
<path stroke-width="0.5" stroke="black" d="M 251 230 288 122"/>
<path stroke-width="0.5" stroke="black" d="M 251 230 213 161"/>
<path stroke-width="16.454545454545453" stroke="black" d="M 298 186 312 196"/>
<path stroke-width="0.5" stroke="black" d="M 312 196 321 260"/>
<path stroke-width="0.5" stroke="black" d="M 312 196 277 180"/>
<path stroke-width="0.5" stroke="black" d="M 312 196 351 193"/>
<path stroke-width="0.5" stroke="black" d="M 312 196 259 225"/>
<path stroke-width="0.5" stroke="black" d="M 312 196 251 230"/>
<path stroke-width="16.454545454545453" stroke="black" d="M 312 196 298 186"/>
<path stroke-width="0.5" stroke="black" d="M 312 196 256 186"/>
<path stroke-width="0.5" stroke="black" d="M 312 196 345 220"/>
<path stroke-width="0.5" stroke="black" d="M 312 196 337 147"/>
<path stroke-width="18.03030303030303" stroke="black" d="M 259 225 233 235"/>
<path stroke-width="0.5" stroke="black" d="M 259 225 351 193"/>
<path stroke-width="0.5" stroke="black" d="M 259 225 277 180"/>
<path stroke-width="0.5" stroke="black" d="M 259 225 321 260"/>
<path stroke-width="0.5" stroke="black" d="M 321 260 318 121"/>
<path stroke-width="0.5" stroke="black" d="M 321 260 351 257"/>
<path stroke-width="0.7954545454545454" stroke="black" d="M 321 260 288 122"/>
<path stroke-width="0.5" stroke="black" d="M 321 260 213 161"/>
<path stroke-width="19.606060606060606" stroke="black" d="M 259 162 277 180"/>
<path stroke-width="0.5" stroke="black" d="M 277 180 321 260"/>
<path stroke-width="19.606060606060606" stroke="black" d="M 277 180 259 162"/>
<path stroke-width="0.5" stroke="black" d="M 321 260 331 206"/>
<path stroke-width="0.5" stroke="black" d="M 277 180 351 193"/>
<path stroke-width="0.5" stroke="black" d="M 277 180 251 230"/>
<path stroke-width="0.5" stroke="black" d="M 277 180 312 196"/>
<path stroke-width="0.5" stroke="black" d="M 277 180 256 186"/>
<path stroke-width="0.5" stroke="black" d="M 277 180 345 220"/>
<path stroke-width="0.5" stroke="black" d="M 277 180 337 147"/>
<path stroke-width="0.5" stroke="black" d="M 277 180 324 240"/>
<path stroke-width="0.5" stroke="black" d="M 277 180 264 260"/>
<path stroke-width="0.5" stroke="black" d="M 277 180 259 225"/>
<path stroke-width="0.5" stroke="black" d="M 321 260 247 237"/>
<path stroke-width="0.5" stroke="black" d="M 321 260 302 154"/>
<path stroke-width="0.5" stroke="black" d="M 321 260 263 264"/>
<path stroke-width="20.0" stroke="black" d="M 321 260 339 288"/>
<path stroke-width="0.5" stroke="black" d="M 321 260 277 180"/>
<path stroke-width="0.5" stroke="black" d="M 321 260 351 193"/>
<path stroke-width="0.5" stroke="black" d="M 321 260 259 225"/>
<path stroke-width="0.5" stroke="black" d="M 321 260 251 230"/>
<path stroke-width="0.5" stroke="black" d="M 321 260 312 196"/>
<path stroke-width="0.5" stroke="black" d="M 321 260 256 186"/>
<path stroke-width="0.5" stroke="black" d="M 321 260 345 220"/>
<path stroke-width="0.5" stroke="black" d="M 321 260 337 147"/>
<path stroke-width="0.5" stroke="black" d="M 321 260 324 240"/>
<path stroke-width="0.5" stroke="black" d="M 321 260 264 260"/>
<path stroke-width="0.5" stroke="black" d="M 321 260 272 220"/>
<path stroke-width="0.5" stroke="black" d="M 321 260 344 176"/>
<path stroke-width="0.5" stroke="black" d="M 321 260 262 161"/>
<path stroke-width="0.5" stroke="black" d="M 321 260 316 275"/>
<path stroke-width="0.5" stroke="black" d="M 321 260 311 185"/>
<path stroke-width="0.5" stroke="black" d="M 321 260 358 227"/>
<path stroke-width="0.5" stroke="black" d="M 277 180 272 220"/>
<path stroke-width="0.5" stroke="black" d="M 256 186 259 225"/>
<path stroke-width="0.5" stroke="black" d="M 277 180 344 176"/>
<path stroke-width="0.5" stroke="black" d="M 277 180 316 275"/>
<path stroke-width="0.5" stroke="black" d="M 351 193 264 260"/>
<path stroke-width="0.5" stroke="black" d="M 351 193 272 220"/>
<path stroke-width="0.5" stroke="black" d="M 351 193 344 176"/>
<path stroke-width="0.5" stroke="black" d="M 351 193 262 161"/>
<path stroke-width="0.5" stroke="black" d="M 351 193 316 275"/>
<path stroke-width="0.5" stroke="black" d="M 351 193 311 185"/>
<path stroke-width="0.5" stroke="black" d="M 351 193 358 227"/>
<path stroke-width="0.5" stroke="black" d="M 351 193 324 240"/>
<path stroke-width="0.5" stroke="black" d="M 351 193 263 264"/>
<path stroke-width="0.5" stroke="black" d="M 351 193 247 237"/>
<path stroke-width="0.5" stroke="black" d="M 351 193 331 206"/>
<path stroke-width="0.7954545454545454" stroke="black" d="M 351 193 318 121"/>
<path stroke-width="0.5" stroke="black" d="M 351 193 351 257"/>
<path stroke-width="0.5" stroke="black" d="M 351 193 288 122"/>
<path stroke-width="0.5" stroke="black" d="M 351 193 213 161"/>
<path stroke-width="18.03030303030303" stroke="black" d="M 233 235 259 225"/>
<path stroke-width="0.5" stroke="black" d="M 351 193 302 154"/>
<path stroke-width="0.5" stroke="black" d="M 351 193 337 147"/>
<path stroke-width="0.5" stroke="black" d="M 351 193 345 220"/>
<path stroke-width="0.5" stroke="black" d="M 351 193 256 186"/>
<path stroke-width="0.5" stroke="black" d="M 277 180 311 185"/>
<path stroke-width="0.5" stroke="black" d="M 277 180 358 227"/>
<path stroke-width="0.5" stroke="black" d="M 277 180 263 264"/>
<path stroke-width="0.5" stroke="black" d="M 277 180 302 154"/>
<path stroke-width="0.5" stroke="black" d="M 277 180 247 237"/>
<path stroke-width="0.5" stroke="black" d="M 277 180 331 206"/>
<path stroke-width="0.5" stroke="black" d="M 277 180 318 121"/>
<path stroke-width="0.7954545454545454" stroke="black" d="M 277 180 351 257"/>
<path stroke-width="0.5" stroke="black" d="M 277 180 288 122"/>
<path stroke-width="0.5" stroke="black" d="M 277 180 213 161"/>
<path stroke-width="18.818181818181817" stroke="black" d="M 379 192 351 193"/>
<path stroke-width="0.5" stroke="black" d="M 351 193 321 260"/>
<path stroke-width="0.5" stroke="black" d="M 351 193 277 180"/>
<path stroke-width="18.818181818181817" stroke="black" d="M 351 193 379 192"/>
<path stroke-width="0.5" stroke="black" d="M 351 193 259 225"/>
<path stroke-width="0.5" stroke="black" d="M 351 193 251 230"/>
<path stroke-width="0.5" stroke="black" d="M 351 193 312 196"/>
<path stroke-width="0.5" stroke="black" d="M 277 180 262 161"/>
<path stroke-width="0.5" stroke="black" d="M 213 161 288 122"/>
<path stroke-width="0.5" stroke="black" d="M 256 186 251 230"/>
<path stroke-width="15.666666666666666" stroke="black" d="M 256 186 230 177"/>
<path stroke-width="0.5" stroke="black" d="M 264 260 312 196"/>
<path stroke-width="0.5" stroke="black" d="M 264 260 256 186"/>
<path stroke-width="0.5" stroke="black" d="M 264 260 345 220"/>
<path stroke-width="0.5" stroke="black" d="M 264 260 337 147"/>
<path stroke-width="0.5" stroke="black" d="M 264 260 324 240"/>
<path stroke-width="12.515151515151516" stroke="black" d="M 264 260 237 288"/>
<path stroke-width="0.5" stroke="black" d="M 264 260 272 220"/>
<path stroke-width="0.5" stroke="black" d="M 264 260 251 230"/>
<path stroke-width="0.5" stroke="black" d="M 264 260 344 176"/>
<path stroke-width="0.5" stroke="black" d="M 264 260 316 275"/>
<path stroke-width="0.5" stroke="black" d="M 264 260 311 185"/>
<path stroke-width="0.5" stroke="black" d="M 264 260 358 227"/>
<path stroke-width="0.5" stroke="black" d="M 264 260 263 264"/>
<path stroke-width="0.5" stroke="black" d="M 264 260 302 154"/>
<path stroke-width="0.5" stroke="black" d="M 264 260 247 237"/>
<path stroke-width="0.5" stroke="black" d="M 264 260 331 206"/>
<path stroke-width="0.7954545454545454" stroke="black" d="M 264 260 262 161"/>
<path stroke-width="0.5" stroke="black" d="M 264 260 318 121"/>
<path stroke-width="0.5" stroke="black" d="M 264 260 259 225"/>
<path stroke-width="0.5" stroke="black" d="M 264 260 277 180"/>
<path stroke-width="0.5" stroke="black" d="M 324 240 272 220"/>
<path stroke-width="0.5" stroke="black" d="M 324 240 344 176"/>
<path stroke-width="0.5" stroke="black" d="M 324 240 262 161"/>
<path stroke-width="0.7954545454545454" stroke="black" d="M 324 240 316 275"/>
<path stroke-width="0.5" stroke="black" d="M 324 240 311 185"/>
<path stroke-width="0.5" stroke="black" d="M 324 240 358 227"/>
<path stroke-width="0.5" stroke="black" d="M 324 240 263 264"/>
<path stroke-width="0.5" stroke="black" d="M 264 260 351 193"/>
<path stroke-width="0.5" stroke="black" d="M 324 240 302 154"/>
<path stroke-width="0.5" stroke="black" d="M 324 240 331 206"/>
<path stroke-width="0.5" stroke="black" d="M 324 240 318 121"/>
<path stroke-width="0.5" stroke="black" d="M 324 240 351 257"/>
<path stroke-width="0.5" stroke="black" d="M 324 240 288 122"/>
<path stroke-width="0.5" stroke="black" d="M 324 240 213 161"/>
<path stroke-width="12.515151515151516" stroke="black" d="M 237 288 264 260"/>
<path stroke-width="0.5" stroke="black" d="M 264 260 321 260"/>
<path stroke-width="0.5" stroke="black" d="M 324 240 247 237"/>
<path stroke-width="0.5" stroke="black" d="M 264 260 351 257"/>
<path stroke-width="0.5" stroke="black" d="M 264 260 288 122"/>
<path stroke-width="0.5" stroke="black" d="M 264 260 213 161"/>
<path stroke-width="0.5" stroke="black" d="M 272 220 331 206"/>
<path stroke-width="0.5" stroke="black" d="M 272 220 318 121"/>
<path stroke-width="0.5" stroke="black" d="M 272 220 351 257"/>
<path stroke-width="0.5" stroke="black" d="M 272 220 288 122"/>
<path stroke-width="0.5" stroke="black" d="M 272 220 213 161"/>
<path stroke-width="11.333333333333334" stroke="black" d="M 379 161 344 176"/>
<path stroke-width="0.5" stroke="black" d="M 344 176 321 260"/>
<path stroke-width="0.5" stroke="black" d="M 272 220 247 237"/>
<path stroke-width="0.5" stroke="black" d="M 344 176 277 180"/>
<path stroke-width="0.5" stroke="black" d="M 344 176 259 225"/>
<path stroke-width="0.5" stroke="black" d="M 344 176 251 230"/>
<path stroke-width="0.5" stroke="black" d="M 344 176 312 196"/>
<path stroke-width="0.5" stroke="black" d="M 344 176 256 186"/>
<path stroke-width="0.5" stroke="black" d="M 344 176 345 220"/>
<path stroke-width="0.5" stroke="black" d="M 344 176 337 147"/>
<path stroke-width="0.5" stroke="black" d="M 344 176 324 240"/>
<path stroke-width="0.5" stroke="black" d="M 344 176 351 193"/>
<path stroke-width="0.5" stroke="black" d="M 272 220 302 154"/>
<path stroke-width="0.5" stroke="black" d="M 272 220 263 264"/>
<path stroke-width="0.5" stroke="black" d="M 272 220 358 227"/>
<path stroke-width="11.727272727272727" stroke="black" d="M 243 228 272 220"/>
<path stroke-width="0.5" stroke="black" d="M 272 220 321 260"/>
<path stroke-width="0.5" stroke="black" d="M 272 220 277 180"/>
<path stroke-width="0.5" stroke="black" d="M 272 220 351 193"/>
<path stroke-width="0.5" stroke="black" d="M 272 220 259 225"/>
<path stroke-width="0.5" stroke="black" d="M 272 220 251 230"/>
<path stroke-width="0.5" stroke="black" d="M 272 220 312 196"/>
<path stroke-width="0.5" stroke="black" d="M 272 220 256 186"/>
<path stroke-width="0.5" stroke="black" d="M 272 220 345 220"/>
<path stroke-width="0.5" stroke="black" d="M 272 220 337 147"/>
<path stroke-width="0.5" stroke="black" d="M 272 220 324 240"/>
<path stroke-width="0.5" stroke="black" d="M 272 220 264 260"/>
<path stroke-width="11.727272727272727" stroke="black" d="M 272 220 243 228"/>
<path stroke-width="0.7954545454545454" stroke="black" d="M 272 220 344 176"/>
<path stroke-width="0.5" stroke="black" d="M 272 220 262 161"/>
<path stroke-width="0.5" stroke="black" d="M 272 220 316 275"/>
<path stroke-width="0.5" stroke="black" d="M 272 220 311 185"/>
<path stroke-width="0.5" stroke="black" d="M 324 240 264 260"/>
<path stroke-width="13.303030303030303" stroke="black" d="M 324 240 349 260"/>
<path stroke-width="0.5" stroke="black" d="M 324 240 337 147"/>
<path stroke-width="0.5" stroke="black" d="M 324 240 345 220"/>
<path stroke-width="0.5" stroke="black" d="M 345 220 351 193"/>
<path stroke-width="0.5" stroke="black" d="M 345 220 259 225"/>
<path stroke-width="0.5" stroke="black" d="M 345 220 251 230"/>
<path stroke-width="0.5" stroke="black" d="M 345 220 312 196"/>
<path stroke-width="0.5" stroke="black" d="M 345 220 256 186"/>
<path stroke-width="14.878787878787879" stroke="black" d="M 345 220 375 229"/>
<path stroke-width="0.5" stroke="black" d="M 345 220 337 147"/>
<path stroke-width="0.5" stroke="black" d="M 345 220 277 180"/>
<path stroke-width="0.5" stroke="black" d="M 345 220 324 240"/>
<path stroke-width="0.5" stroke="black" d="M 345 220 272 220"/>
<path stroke-width="0.5" stroke="black" d="M 345 220 344 176"/>
<path stroke-width="0.5" stroke="black" d="M 345 220 262 161"/>
<path stroke-width="0.5" stroke="black" d="M 345 220 316 275"/>
<path stroke-width="0.5" stroke="black" d="M 345 220 311 185"/>
<path stroke-width="0.7954545454545454" stroke="black" d="M 345 220 358 227"/>
<path stroke-width="0.5" stroke="black" d="M 345 220 263 264"/>
<path stroke-width="0.5" stroke="black" d="M 345 220 264 260"/>
<path stroke-width="0.5" stroke="black" d="M 345 220 321 260"/>
<path stroke-width="14.878787878787879" stroke="black" d="M 375 229 345 220"/>
<path stroke-width="0.5" stroke="black" d="M 256 186 213 161"/>
<path stroke-width="0.5" stroke="black" d="M 256 186 345 220"/>
<path stroke-width="0.5" stroke="black" d="M 256 186 337 147"/>
<path stroke-width="0.5" stroke="black" d="M 256 186 324 240"/>
<path stroke-width="0.5" stroke="black" d="M 256 186 264 260"/>
<path stroke-width="0.5" stroke="black" d="M 256 186 272 220"/>
<path stroke-width="0.5" stroke="black" d="M 256 186 344 176"/>
<path stroke-width="0.5" stroke="black" d="M 256 186 262 161"/>
<path stroke-width="0.5" stroke="black" d="M 256 186 316 275"/>
<path stroke-width="0.5" stroke="black" d="M 256 186 311 185"/>
<path stroke-width="0.5" stroke="black" d="M 256 186 358 227"/>
<path stroke-width="0.7954545454545454" stroke="black" d="M 256 186 263 264"/>
<path stroke-width="0.5" stroke="black" d="M 256 186 302 154"/>
<path stroke-width="0.5" stroke="black" d="M 256 186 247 237"/>
<path stroke-width="0.5" stroke="black" d="M 256 186 331 206"/>
<path stroke-width="0.5" stroke="black" d="M 256 186 318 121"/>
<path stroke-width="0.5" stroke="black" d="M 256 186 351 257"/>
<path stroke-width="0.5" stroke="black" d="M 256 186 288 122"/>
<path stroke-width="0.5" stroke="black" d="M 345 220 302 154"/>
<path stroke-width="0.5" stroke="black" d="M 256 186 312 196"/>
<path stroke-width="0.5" stroke="black" d="M 345 220 247 237"/>
<path stroke-width="0.5" stroke="black" d="M 345 220 318 121"/>
<path stroke-width="0.5" stroke="black" d="M 337 147 263 264"/>
<path stroke-width="0.5" stroke="black" d="M 337 147 302 154"/>
<path stroke-width="0.5" stroke="black" d="M 337 147 247 237"/>
<path stroke-width="0.5" stroke="black" d="M 337 147 331 206"/>
<path stroke-width="0.5" stroke="black" d="M 337 147 318 121"/>
<path stroke-width="0.5" stroke="black" d="M 337 147 351 257"/>
<path stroke-width="0.5" stroke="black" d="M 337 147 288 122"/>
<path stroke-width="0.5" stroke="black" d="M 337 147 358 227"/>
<path stroke-width="0.5" stroke="black" d="M 337 147 213 161"/>
<path stroke-width="0.5" stroke="black" d="M 324 240 321 260"/>
<path stroke-width="0.5" stroke="black" d="M 324 240 277 180"/>
<path stroke-width="0.5" stroke="black" d="M 324 240 351 193"/>
<path stroke-width="0.5" stroke="black" d="M 324 240 259 225"/>
<path stroke-width="0.5" stroke="black" d="M 324 240 251 230"/>
<path stroke-width="0.5" stroke="black" d="M 324 240 312 196"/>
<path stroke-width="0.5" stroke="black" d="M 324 240 256 186"/>
<path stroke-width="13.303030303030303" stroke="black" d="M 349 260 324 240"/>
<path stroke-width="0.7954545454545454" stroke="black" d="M 337 147 311 185"/>
<path stroke-width="0.5" stroke="black" d="M 337 147 316 275"/>
<path stroke-width="0.5" stroke="black" d="M 337 147 262 161"/>
<path stroke-width="0.5" stroke="black" d="M 345 220 351 257"/>
<path stroke-width="0.5" stroke="black" d="M 345 220 288 122"/>
<path stroke-width="0.5" stroke="black" d="M 345 220 213 161"/>
<path stroke-width="14.090909090909092" stroke="black" d="M 363 122 337 147"/>
<path stroke-width="0.5" stroke="black" d="M 337 147 321 260"/>
<path stroke-width="0.5" stroke="black" d="M 337 147 277 180"/>
<path stroke-width="0.5" stroke="black" d="M 337 147 351 193"/>
<path stroke-width="0.5" stroke="black" d="M 337 147 259 225"/>
<path stroke-width="0.5" stroke="black" d="M 337 147 251 230"/>
<path stroke-width="0.5" stroke="black" d="M 337 147 312 196"/>
<path stroke-width="0.5" stroke="black" d="M 337 147 256 186"/>
<path stroke-width="0.5" stroke="black" d="M 337 147 345 220"/>
<path stroke-width="14.090909090909092" stroke="black" d="M 337 147 363 122"/>
<path stroke-width="0.5" stroke="black" d="M 337 147 324 240"/>
<path stroke-width="0.5" stroke="black" d="M 337 147 264 260"/>
<path stroke-width="0.5" stroke="black" d="M 337 147 272 220"/>
<path stroke-width="0.5" stroke="black" d="M 337 147 344 176"/>
<path stroke-width="0.5" stroke="black" d="M 345 220 331 206"/>
<path stroke-width="1.0909090909090908" stroke="black" d="M 213 161 20 79"/>
<circle cx="339" cy="288" r="20.0" style="fill:brown;stroke:black;stroke-width:1.0"/>
<circle cx="321" cy="260" r="20.0" style="fill:brown;stroke:black;stroke-width:1.0"/>
<circle cx="259" cy="162" r="20.0" style="fill:brown;stroke:black;stroke-width:1.0"/>
<circle cx="277" cy="180" r="20.0" style="fill:brown;stroke:black;stroke-width:1.0"/>
<circle cx="379" cy="192" r="20.0" style="fill:blue;stroke:black;stroke-width:1.0"/>
<circle cx="351" cy="193" r="20.0" style="fill:blue;stroke:black;stroke-width:1.0"/>
<circle cx="233" cy="235" r="20.0" style="fill:green;stroke:black;stroke-width:1.0"/>
<circle cx="259" cy="225" r="20.0" style="fill:green;stroke:black;stroke-width:1.0"/>
<circle cx="224" cy="242" r="20.0" style="fill:orange;stroke:black;stroke-width:1.0"/>
<circle cx="251" cy="230" r="20.0" style="fill:orange;stroke:black;stroke-width:1.0"/>
<circle cx="298" cy="186" r="20.0" style="fill:red;stroke:black;stroke-width:1.0"/>
<circle cx="312" cy="196" r="20.0" style="fill:red;stroke:black;stroke-width:1.0"/>
<circle cx="230" cy="177" r="20.0" style="fill:olive;stroke:black;stroke-width:1.0"/>
<circle cx="256" cy="186" r="20.0" style="fill:olive;stroke:black;stroke-width:1.0"/>
<circle cx="375" cy="229" r="20.0" style="fill:blue;stroke:black;stroke-width:1.0"/>
<circle cx="345" cy="220" r="20.0" style="fill:blue;stroke:black;stroke-width:1.0"/>
<circle cx="363" cy="122" r="20.0" style="fill:brown;stroke:black;stroke-width:1.0"/>
<circle cx="337" cy="147" r="20.0" style="fill:red;stroke:black;stroke-width:1.0"/>
<circle cx="349" cy="260" r="20.0" style="fill:fuchsia;stroke:black;stroke-width:1.0"/>
<circle cx="324" cy="240" r="20.0" style="fill:fuchsia;stroke:black;stroke-width:1.0"/>
<circle cx="237" cy="288" r="20.0" style="fill:yellow;stroke:black;stroke-width:1.0"/>
<circle cx="264" cy="260" r="20.0" style="fill:yellow;stroke:black;stroke-width:1.0"/>
<circle cx="243" cy="228" r="20.0" style="fill:brown;stroke:black;stroke-width:1.0"/>
<circle cx="272" cy="220" r="20.0" style="fill:aqua;stroke:black;stroke-width:1.0"/>
<circle cx="379" cy="161" r="20.0" style="fill:aqua;stroke:black;stroke-width:1.0"/>
<circle cx="344" cy="176" r="20.0" style="fill:aqua;stroke:black;stroke-width:1.0"/>
<circle cx="234" cy="136" r="20.0" style="fill:yellow;stroke:black;stroke-width:1.0"/>
<circle cx="262" cy="161" r="20.0" style="fill:yellow;stroke:black;stroke-width:1.0"/>
<circle cx="336" cy="320" r="20.0" style="fill:purple;stroke:black;stroke-width:1.0"/>
<circle cx="316" cy="275" r="20.0" style="fill:purple;stroke:black;stroke-width:1.0"/>
<circle cx="332" cy="162" r="20.0" style="fill:red;stroke:black;stroke-width:1.0"/>
<circle cx="311" cy="185" r="20.0" style="fill:red;stroke:black;stroke-width:1.0"/>
<circle cx="404" cy="241" r="20.0" style="fill:blue;stroke:black;stroke-width:1.0"/>
<circle cx="358" cy="227" r="20.0" style="fill:blue;stroke:black;stroke-width:1.0"/>
<circle cx="226" cy="301" r="20.0" style="fill:olive;stroke:black;stroke-width:1.0"/>
<circle cx="263" cy="264" r="20.0" style="fill:olive;stroke:black;stroke-width:1.0"/>
<circle cx="309" cy="100" r="20.0" style="fill:red;stroke:black;stroke-width:1.0"/>
<circle cx="302" cy="154" r="20.0" style="fill:red;stroke:black;stroke-width:1.0"/>
<circle cx="197" cy="260" r="20.0" style="fill:orange;stroke:black;stroke-width:1.0"/>
<circle cx="247" cy="237" r="20.0" style="fill:orange;stroke:black;stroke-width:1.0"/>
<circle cx="382" cy="207" r="20.0" style="fill:green;stroke:black;stroke-width:1.0"/>
<circle cx="331" cy="206" r="20.0" style="fill:green;stroke:black;stroke-width:1.0"/>
<circle cx="339" cy="39" r="20.0" style="fill:blue;stroke:black;stroke-width:1.0"/>
<circle cx="318" cy="121" r="20.0" style="fill:blue;stroke:black;stroke-width:1.0"/>
<circle cx="420" cy="304" r="20.0" style="fill:brown;stroke:black;stroke-width:1.0"/>
<circle cx="351" cy="257" r="20.0" style="fill:brown;stroke:black;stroke-width:1.0"/>
<circle cx="273" cy="20" r="20.0" style="fill:brown;stroke:black;stroke-width:1.0"/>
<circle cx="288" cy="122" r="20.0" style="fill:brown;stroke:black;stroke-width:1.0"/>
<circle cx="20" cy="79" r="20.0" style="fill:brown;stroke:black;stroke-width:1.0"/>
<circle cx="213" cy="161" r="20.0" style="fill:brown;stroke:black;stroke-width:1.0"/>
</svg>
