<svg width="440" height="340" xmlns="http://www.w3.org/2000/svg">
<path stroke-width="20.0" stroke="black" d="M 327 229 281 232"/>
<path stroke-width="0.5" stroke="black" d="M 249 200 188 271"/>
<path stroke-width="0.5" stroke="black" d="M 249 200 91 236"/>
<path stroke-width="0.5" stroke="black" d="M 249 200 152 203"/>
<path stroke-width="0.5" stroke="black" d="M 249 200 126 206"/>
<path stroke-width="0.5" stroke="black" d="M 249 200 280 218"/>
<path stroke-width="8.181818181818182" stroke="black" d="M 249 200 294 172"/>
<path stroke-width="0.5" stroke="black" d="M 249 200 173 243"/>
<path stroke-width="0.5" stroke="black" d="M 249 200 212 226"/>
<path stroke-width="0.5" stroke="black" d="M 249 200 240 278"/>
<path stroke-width="0.5" stroke="black" d="M 249 200 165 191"/>
<path stroke-width="0.5" stroke="black" d="M 249 200 104 270"/>
<path stroke-width="0.5" stroke="black" d="M 249 200 304 256"/>
<path stroke-width="0.5" stroke="black" d="M 249 200 270 266"/>
<path stroke-width="0.5" stroke="black" d="M 249 200 190 168"/>
<path stroke-width="7.393939393939394" stroke="black" d="M 129 257 173 243"/>
<path stroke-width="0.5" stroke="black" d="M 173 243 281 232"/>
<path stroke-width="0.5" stroke="black" d="M 249 200 154 280"/>
<path stroke-width="0.5" stroke="black" d="M 173 243 252 268"/>
<path stroke-width="0.5" stroke="black" d="M 249 200 100 226"/>
<path stroke-width="0.7954545454545454" stroke="black" d="M 249 200 130 237"/>
<path stroke-width="0.5" stroke="black" d="M 280 218 173 243"/>
<path stroke-width="0.5" stroke="black" d="M 280 218 240 278"/>
<path stroke-width="0.5" stroke="black" d="M 280 218 154 280"/>
<path stroke-width="0.5" stroke="black" d="M 280 218 165 191"/>
<path stroke-width="0.5" stroke="black" d="M 280 218 104 270"/>
<path stroke-width="0.5" stroke="black" d="M 280 218 304 256"/>
<path stroke-width="0.5" stroke="black" d="M 280 218 270 266"/>
<path stroke-width="0.5" stroke="black" d="M 249 200 256 203"/>
<path stroke-width="0.5" stroke="black" d="M 280 218 190 168"/>
<path stroke-width="0.5" stroke="black" d="M 249 200 281 232"/>
<path stroke-width="0.5" stroke="black" d="M 249 200 252 268"/>
<path stroke-width="0.5" stroke="black" d="M 249 200 122 259"/>
<path stroke-width="0.5" stroke="black" d="M 249 200 282 227"/>
<path stroke-width="0.5" stroke="black" d="M 249 200 185 238"/>
<path stroke-width="0.5" stroke="black" d="M 249 200 182 277"/>
<path stroke-width="0.5" stroke="black" d="M 249 200 190 206"/>
<path stroke-width="8.181818181818182" stroke="black" d="M 294 172 249 200"/>
<path stroke-width="0.5" stroke="black" d="M 173 243 122 259"/>
<path stroke-width="0.5" stroke="black" d="M 173 243 282 227"/>
<path stroke-width="0.5" stroke="black" d="M 173 243 185 238"/>
<path stroke-width="0.5" stroke="black" d="M 240 278 281 232"/>
<path stroke-width="0.5" stroke="black" d="M 240 278 252 268"/>
<path stroke-width="0.5" stroke="black" d="M 240 278 122 259"/>
<path stroke-width="0.5" stroke="black" d="M 240 278 282 227"/>
<path stroke-width="0.5" stroke="black" d="M 240 278 185 238"/>
<path stroke-width="0.7954545454545454" stroke="black" d="M 240 278 182 277"/>
<path stroke-width="0.5" stroke="black" d="M 240 278 190 206"/>
<path stroke-width="6.606060606060606" stroke="black" d="M 275 314 240 278"/>
<path stroke-width="0.5" stroke="black" d="M 240 278 130 237"/>
<path stroke-width="0.5" stroke="black" d="M 240 278 100 226"/>
<path stroke-width="0.5" stroke="black" d="M 240 278 212 226"/>
<path stroke-width="0.5" stroke="black" d="M 240 278 188 271"/>
<path stroke-width="0.5" stroke="black" d="M 240 278 91 236"/>
<path stroke-width="0.5" stroke="black" d="M 240 278 152 203"/>
<path stroke-width="0.5" stroke="black" d="M 240 278 126 206"/>
<path stroke-width="0.5" stroke="black" d="M 240 278 280 218"/>
<path stroke-width="0.5" stroke="black" d="M 240 278 256 203"/>
<path stroke-width="0.5" stroke="black" d="M 173 243 190 168"/>
<path stroke-width="0.5" stroke="black" d="M 173 243 270 266"/>
<path stroke-width="0.5" stroke="black" d="M 173 243 304 256"/>
<path stroke-width="0.5" stroke="black" d="M 173 243 182 277"/>
<path stroke-width="0.7954545454545454" stroke="black" d="M 173 243 190 206"/>
<path stroke-width="0.5" stroke="black" d="M 173 243 130 237"/>
<path stroke-width="0.5" stroke="black" d="M 173 243 256 203"/>
<path stroke-width="0.5" stroke="black" d="M 173 243 100 226"/>
<path stroke-width="0.5" stroke="black" d="M 173 243 212 226"/>
<path stroke-width="0.5" stroke="black" d="M 173 243 188 271"/>
<path stroke-width="0.5" stroke="black" d="M 173 243 91 236"/>
<path stroke-width="0.5" stroke="black" d="M 173 243 152 203"/>
<path stroke-width="0.5" stroke="black" d="M 173 243 126 206"/>
<path stroke-width="0.5" stroke="black" d="M 173 243 280 218"/>
<path stroke-width="0.5" stroke="black" d="M 173 243 249 200"/>
<path stroke-width="7.393939393939394" stroke="black" d="M 173 243 129 257"/>
<path stroke-width="0.5" stroke="black" d="M 173 243 240 278"/>
<path stroke-width="0.5" stroke="black" d="M 173 243 154 280"/>
<path stroke-width="0.5" stroke="black" d="M 173 243 165 191"/>
<path stroke-width="0.5" stroke="black" d="M 173 243 104 270"/>
<path stroke-width="0.5" stroke="black" d="M 280 218 249 200"/>
<path stroke-width="0.5" stroke="black" d="M 240 278 249 200"/>
<path stroke-width="8.969696969696969" stroke="black" d="M 280 218 344 204"/>
<path stroke-width="0.5" stroke="black" d="M 280 218 152 203"/>
<path stroke-width="0.5" stroke="black" d="M 152 203 256 203"/>
<path stroke-width="0.5" stroke="black" d="M 152 203 100 226"/>
<path stroke-width="0.7954545454545454" stroke="black" d="M 152 203 212 226"/>
<path stroke-width="0.5" stroke="black" d="M 152 203 188 271"/>
<path stroke-width="0.5" stroke="black" d="M 152 203 91 236"/>
<path stroke-width="10.545454545454545" stroke="black" d="M 152 203 123 177"/>
<path stroke-width="0.5" stroke="black" d="M 152 203 126 206"/>
<path stroke-width="0.5" stroke="black" d="M 152 203 130 237"/>
<path stroke-width="0.5" stroke="black" d="M 152 203 280 218"/>
<path stroke-width="0.5" stroke="black" d="M 152 203 173 243"/>
<path stroke-width="0.5" stroke="black" d="M 152 203 240 278"/>
<path stroke-width="0.5" stroke="black" d="M 152 203 154 280"/>
<path stroke-width="0.5" stroke="black" d="M 152 203 165 191"/>
<path stroke-width="0.5" stroke="black" d="M 152 203 104 270"/>
<path stroke-width="0.5" stroke="black" d="M 152 203 304 256"/>
<path stroke-width="0.5" stroke="black" d="M 152 203 270 266"/>
<path stroke-width="0.5" stroke="black" d="M 152 203 249 200"/>
<path stroke-width="0.5" stroke="black" d="M 152 203 190 168"/>
<path stroke-width="0.5" stroke="black" d="M 152 203 190 206"/>
<path stroke-width="0.5" stroke="black" d="M 152 203 185 238"/>
<path stroke-width="0.5" stroke="black" d="M 91 236 126 206"/>
<path stroke-width="0.5" stroke="black" d="M 91 236 280 218"/>
<path stroke-width="0.5" stroke="black" d="M 91 236 249 200"/>
<path stroke-width="0.5" stroke="black" d="M 91 236 173 243"/>
<path stroke-width="0.5" stroke="black" d="M 91 236 240 278"/>
<path stroke-width="0.5" stroke="black" d="M 91 236 154 280"/>
<path stroke-width="0.5" stroke="black" d="M 91 236 165 191"/>
<path stroke-width="0.5" stroke="black" d="M 152 203 182 277"/>
<path stroke-width="0.5" stroke="black" d="M 91 236 104 270"/>
<path stroke-width="0.5" stroke="black" d="M 91 236 270 266"/>
<path stroke-width="0.5" stroke="black" d="M 91 236 190 168"/>
<path stroke-width="10.545454545454545" stroke="black" d="M 123 177 152 203"/>
<path stroke-width="0.5" stroke="black" d="M 152 203 281 232"/>
<path stroke-width="0.5" stroke="black" d="M 152 203 252 268"/>
<path stroke-width="0.5" stroke="black" d="M 152 203 122 259"/>
<path stroke-width="0.5" stroke="black" d="M 152 203 282 227"/>
<path stroke-width="0.5" stroke="black" d="M 91 236 304 256"/>
<path stroke-width="9.757575757575758" stroke="black" d="M 80 183 126 206"/>
<path stroke-width="0.5" stroke="black" d="M 126 206 281 232"/>
<path stroke-width="0.5" stroke="black" d="M 126 206 252 268"/>
<path stroke-width="0.5" stroke="black" d="M 126 206 270 266"/>
<path stroke-width="0.5" stroke="black" d="M 126 206 190 168"/>
<path stroke-width="8.969696969696969" stroke="black" d="M 344 204 280 218"/>
<path stroke-width="0.5" stroke="black" d="M 280 218 281 232"/>
<path stroke-width="0.5" stroke="black" d="M 280 218 252 268"/>
<path stroke-width="0.5" stroke="black" d="M 280 218 122 259"/>
<path stroke-width="0.5" stroke="black" d="M 280 218 282 227"/>
<path stroke-width="0.5" stroke="black" d="M 126 206 304 256"/>
<path stroke-width="0.5" stroke="black" d="M 280 218 185 238"/>
<path stroke-width="0.5" stroke="black" d="M 280 218 190 206"/>
<path stroke-width="0.5" stroke="black" d="M 280 218 130 237"/>
<path stroke-width="0.7954545454545454" stroke="black" d="M 280 218 256 203"/>
<path stroke-width="0.5" stroke="black" d="M 280 218 100 226"/>
<path stroke-width="0.5" stroke="black" d="M 280 218 212 226"/>
<path stroke-width="0.5" stroke="black" d="M 280 218 188 271"/>
<path stroke-width="0.5" stroke="black" d="M 280 218 91 236"/>
<path stroke-width="0.5" stroke="black" d="M 280 218 182 277"/>
<path stroke-width="0.5" stroke="black" d="M 126 206 104 270"/>
<path stroke-width="0.5" stroke="black" d="M 126 206 165 191"/>
<path stroke-width="0.5" stroke="black" d="M 126 206 154 280"/>
<path stroke-width="0.5" stroke="black" d="M 126 206 122 259"/>
<path stroke-width="0.5" stroke="black" d="M 126 206 282 227"/>
<path stroke-width="0.5" stroke="black" d="M 126 206 185 238"/>
<path stroke-width="0.5" stroke="black" d="M 126 206 182 277"/>
<path stroke-width="0.5" stroke="black" d="M 126 206 190 206"/>
<path stroke-width="0.5" stroke="black" d="M 126 206 130 237"/>
<path stroke-width="0.5" stroke="black" d="M 126 206 256 203"/>
<path stroke-width="0.7954545454545454" stroke="black" d="M 126 206 100 226"/>
<path stroke-width="0.5" stroke="black" d="M 126 206 212 226"/>
<path stroke-width="0.5" stroke="black" d="M 126 206 188 271"/>
<path stroke-width="0.5" stroke="black" d="M 126 206 91 236"/>
<path stroke-width="0.5" stroke="black" d="M 126 206 152 203"/>
<path stroke-width="9.757575757575758" stroke="black" d="M 126 206 80 183"/>
<path stroke-width="0.5" stroke="black" d="M 126 206 280 218"/>
<path stroke-width="0.5" stroke="black" d="M 126 206 249 200"/>
<path stroke-width="0.5" stroke="black" d="M 126 206 173 243"/>
<path stroke-width="0.5" stroke="black" d="M 126 206 240 278"/>
<path stroke-width="0.5" stroke="black" d="M 280 218 126 206"/>
<path stroke-width="0.5" stroke="black" d="M 240 278 173 243"/>
<path stroke-width="6.606060606060606" stroke="black" d="M 240 278 275 314"/>
<path stroke-width="0.5" stroke="black" d="M 240 278 154 280"/>
<path stroke-width="0.5" stroke="black" d="M 304 256 240 278"/>
<path stroke-width="0.5" stroke="black" d="M 304 256 154 280"/>
<path stroke-width="0.5" stroke="black" d="M 304 256 165 191"/>
<path stroke-width="0.5" stroke="black" d="M 304 256 104 270"/>
<path stroke-width="3.4545454545454546" stroke="black" d="M 304 256 420 281"/>
<path stroke-width="0.5" stroke="black" d="M 304 256 270 266"/>
<path stroke-width="0.5" stroke="black" d="M 304 256 190 168"/>
<path stroke-width="0.5" stroke="black" d="M 304 256 173 243"/>
<path stroke-width="3.0606060606060606" stroke="black" d="M 350 313 270 266"/>
<path stroke-width="0.5" stroke="black" d="M 270 266 252 268"/>
<path stroke-width="0.5" stroke="black" d="M 270 266 122 259"/>
<path stroke-width="0.5" stroke="black" d="M 270 266 282 227"/>
<path stroke-width="0.5" stroke="black" d="M 270 266 185 238"/>
<path stroke-width="0.5" stroke="black" d="M 270 266 182 277"/>
<path stroke-width="0.5" stroke="black" d="M 270 266 190 206"/>
<path stroke-width="0.5" stroke="black" d="M 270 266 130 237"/>
<path stroke-width="0.7954545454545454" stroke="black" d="M 270 266 281 232"/>
<path stroke-width="0.5" stroke="black" d="M 270 266 256 203"/>
<path stroke-width="0.5" stroke="black" d="M 304 256 249 200"/>
<path stroke-width="0.5" stroke="black" d="M 304 256 126 206"/>
<path stroke-width="0.5" stroke="black" d="M 104 270 190 168"/>
<path stroke-width="3.4545454545454546" stroke="black" d="M 420 281 304 256"/>
<path stroke-width="0.5" stroke="black" d="M 304 256 281 232"/>
<path stroke-width="0.7954545454545454" stroke="black" d="M 304 256 252 268"/>
<path stroke-width="0.5" stroke="black" d="M 304 256 122 259"/>
<path stroke-width="0.5" stroke="black" d="M 304 256 282 227"/>
<path stroke-width="0.5" stroke="black" d="M 304 256 185 238"/>
<path stroke-width="0.5" stroke="black" d="M 304 256 280 218"/>
<path stroke-width="0.5" stroke="black" d="M 304 256 182 277"/>
<path stroke-width="0.5" stroke="black" d="M 304 256 130 237"/>
<path stroke-width="0.5" stroke="black" d="M 304 256 256 203"/>
<path stroke-width="0.5" stroke="black" d="M 304 256 100 226"/>
<path stroke-width="0.5" stroke="black" d="M 304 256 212 226"/>
<path stroke-width="0.5" stroke="black" d="M 304 256 188 271"/>
<path stroke-width="0.5" stroke="black" d="M 304 256 91 236"/>
<path stroke-width="0.5" stroke="black" d="M 304 256 152 203"/>
<path stroke-width="0.5" stroke="black" d="M 304 256 190 206"/>
<path stroke-width="0.5" stroke="black" d="M 270 266 100 226"/>
<path stroke-width="0.5" stroke="black" d="M 270 266 212 226"/>
<path stroke-width="0.5" stroke="black" d="M 270 266 188 271"/>
<path stroke-width="0.5" stroke="black" d="M 190 168 130 237"/>
<path stroke-width="0.5" stroke="black" d="M 190 168 256 203"/>
<path stroke-width="0.5" stroke="black" d="M 190 168 100 226"/>
<path stroke-width="0.5" stroke="black" d="M 190 168 212 226"/>
<path stroke-width="0.5" stroke="black" d="M 190 168 188 271"/>
<path stroke-width="0.5" stroke="black" d="M 190 168 91 236"/>
<path stroke-width="0.5" stroke="black" d="M 190 168 152 203"/>
<path stroke-width="0.5" stroke="black" d="M 190 168 190 206"/>
<path stroke-width="0.5" stroke="black" d="M 190 168 126 206"/>
<path stroke-width="0.5" stroke="black" d="M 190 168 249 200"/>
<path stroke-width="0.5" stroke="black" d="M 190 168 173 243"/>
<path stroke-width="0.5" stroke="black" d="M 190 168 240 278"/>
<path stroke-width="0.5" stroke="black" d="M 190 168 154 280"/>
<path stroke-width="0.5" stroke="black" d="M 190 168 165 191"/>
<path stroke-width="0.5" stroke="black" d="M 190 168 104 270"/>
<path stroke-width="0.5" stroke="black" d="M 190 168 304 256"/>
<path stroke-width="0.5" stroke="black" d="M 190 168 280 218"/>
<path stroke-width="0.5" stroke="black" d="M 190 168 182 277"/>
<path stroke-width="0.5" stroke="black" d="M 190 168 185 238"/>
<path stroke-width="0.5" stroke="black" d="M 190 168 282 227"/>
<path stroke-width="0.5" stroke="black" d="M 270 266 91 236"/>
<path stroke-width="0.5" stroke="black" d="M 270 266 152 203"/>
<path stroke-width="0.5" stroke="black" d="M 270 266 126 206"/>
<path stroke-width="0.5" stroke="black" d="M 270 266 280 218"/>
<path stroke-width="0.5" stroke="black" d="M 270 266 249 200"/>
<path stroke-width="0.5" stroke="black" d="M 270 266 173 243"/>
<path stroke-width="0.5" stroke="black" d="M 270 266 240 278"/>
<path stroke-width="0.5" stroke="black" d="M 270 266 154 280"/>
<path stroke-width="0.5" stroke="black" d="M 270 266 165 191"/>
<path stroke-width="0.5" stroke="black" d="M 270 266 104 270"/>
<path stroke-width="0.5" stroke="black" d="M 270 266 304 256"/>
<path stroke-width="3.0606060606060606" stroke="black" d="M 270 266 350 313"/>
<path stroke-width="0.5" stroke="black" d="M 270 266 190 168"/>
<path stroke-width="1.0909090909090908" stroke="black" d="M 170 20 190 168"/>
<path stroke-width="0.5" stroke="black" d="M 190 168 281 232"/>
<path stroke-width="0.5" stroke="black" d="M 190 168 252 268"/>
<path stroke-width="0.5" stroke="black" d="M 190 168 122 259"/>
<path stroke-width="0.5" stroke="black" d="M 104 270 270 266"/>
<path stroke-width="0.5" stroke="black" d="M 104 270 304 256"/>
<path stroke-width="4.242424242424242" stroke="black" d="M 104 270 20 306"/>
<path stroke-width="0.5" stroke="black" d="M 104 270 165 191"/>
<path stroke-width="0.5" stroke="black" d="M 154 280 280 218"/>
<path stroke-width="0.5" stroke="black" d="M 154 280 249 200"/>
<path stroke-width="0.5" stroke="black" d="M 154 280 173 243"/>
<path stroke-width="0.5" stroke="black" d="M 154 280 240 278"/>
<path stroke-width="5.818181818181818" stroke="black" d="M 154 280 122 320"/>
<path stroke-width="0.5" stroke="black" d="M 154 280 165 191"/>
<path stroke-width="0.5" stroke="black" d="M 154 280 104 270"/>
<path stroke-width="0.5" stroke="black" d="M 154 280 126 206"/>
<path stroke-width="0.5" stroke="black" d="M 154 280 304 256"/>
<path stroke-width="0.5" stroke="black" d="M 154 280 190 168"/>
<path stroke-width="5.03030303030303" stroke="black" d="M 129 147 165 191"/>
<path stroke-width="0.5" stroke="black" d="M 165 191 281 232"/>
<path stroke-width="0.5" stroke="black" d="M 165 191 252 268"/>
<path stroke-width="0.5" stroke="black" d="M 165 191 122 259"/>
<path stroke-width="0.7954545454545454" stroke="black" d="M 165 191 282 227"/>
<path stroke-width="0.5" stroke="black" d="M 165 191 185 238"/>
<path stroke-width="0.5" stroke="black" d="M 154 280 270 266"/>
<path stroke-width="0.5" stroke="black" d="M 154 280 152 203"/>
<path stroke-width="0.5" stroke="black" d="M 154 280 91 236"/>
<path stroke-width="0.5" stroke="black" d="M 154 280 188 271"/>
<path stroke-width="0.5" stroke="black" d="M 240 278 165 191"/>
<path stroke-width="0.5" stroke="black" d="M 240 278 104 270"/>
<path stroke-width="0.5" stroke="black" d="M 240 278 304 256"/>
<path stroke-width="0.5" stroke="black" d="M 240 278 270 266"/>
<path stroke-width="0.5" stroke="black" d="M 240 278 190 168"/>
<path stroke-width="5.818181818181818" stroke="black" d="M 122 320 154 280"/>
<path stroke-width="0.5" stroke="black" d="M 154 280 281 232"/>
<path stroke-width="0.5" stroke="black" d="M 154 280 252 268"/>
<path stroke-width="0.5" stroke="black" d="M 154 280 122 259"/>
<path stroke-width="0.5" stroke="black" d="M 154 280 282 227"/>
<path stroke-width="0.7954545454545454" stroke="black" d="M 154 280 185 238"/>
<path stroke-width="0.5" stroke="black" d="M 154 280 182 277"/>
<path stroke-width="0.5" stroke="black" d="M 154 280 190 206"/>
<path stroke-width="0.5" stroke="black" d="M 154 280 130 237"/>
<path stroke-width="0.5" stroke="black" d="M 154 280 256 203"/>
<path stroke-width="0.5" stroke="black" d="M 154 280 100 226"/>
<path stroke-width="0.5" stroke="black" d="M 154 280 212 226"/>
<path stroke-width="0.5" stroke="black" d="M 165 191 182 277"/>
<path stroke-width="0.5" stroke="black" d="M 91 236 152 203"/>
<path stroke-width="0.5" stroke="black" d="M 165 191 190 206"/>
<path stroke-width="0.5" stroke="black" d="M 165 191 256 203"/>
<path stroke-width="0.5" stroke="black" d="M 104 270 185 238"/>
<path stroke-width="0.5" stroke="black" d="M 104 270 182 277"/>
<path stroke-width="0.5" stroke="black" d="M 104 270 190 206"/>
<path stroke-width="0.5" stroke="black" d="M 104 270 130 237"/>
<path stroke-width="0.5" stroke="black" d="M 104 270 256 203"/>
<path stroke-width="0.5" stroke="black" d="M 104 270 100 226"/>
<path stroke-width="0.5" stroke="black" d="M 104 270 212 226"/>
<path stroke-width="0.5" stroke="black" d="M 104 270 282 227"/>
<path stroke-width="0.5" stroke="black" d="M 104 270 188 271"/>
<path stroke-width="0.5" stroke="black" d="M 104 270 152 203"/>
<path stroke-width="0.5" stroke="black" d="M 104 270 126 206"/>
<path stroke-width="0.5" stroke="black" d="M 104 270 280 218"/>
<path stroke-width="0.5" stroke="black" d="M 104 270 249 200"/>
<path stroke-width="0.5" stroke="black" d="M 104 270 173 243"/>
<path stroke-width="0.5" stroke="black" d="M 104 270 240 278"/>
<path stroke-width="0.5" stroke="black" d="M 104 270 154 280"/>
<path stroke-width="0.5" stroke="black" d="M 104 270 91 236"/>
<path stroke-width="0.7954545454545454" stroke="black" d="M 104 270 122 259"/>
<path stroke-width="0.5" stroke="black" d="M 104 270 252 268"/>
<path stroke-width="0.5" stroke="black" d="M 104 270 281 232"/>
<path stroke-width="0.5" stroke="black" d="M 165 191 100 226"/>
<path stroke-width="0.5" stroke="black" d="M 165 191 212 226"/>
<path stroke-width="0.5" stroke="black" d="M 165 191 188 271"/>
<path stroke-width="0.5" stroke="black" d="M 165 191 91 236"/>
<path stroke-width="0.5" stroke="black" d="M 165 191 152 203"/>
<path stroke-width="0.5" stroke="black" d="M 165 191 126 206"/>
<path stroke-width="0.5" stroke="black" d="M 165 191 280 218"/>
<path stroke-width="0.5" stroke="black" d="M 165 191 249 200"/>
<path stroke-width="0.5" stroke="black" d="M 165 191 173 243"/>
<path stroke-width="0.5" stroke="black" d="M 165 191 240 278"/>
<path stroke-width="0.5" stroke="black" d="M 165 191 154 280"/>
<path stroke-width="5.03030303030303" stroke="black" d="M 165 191 129 147"/>
<path stroke-width="0.5" stroke="black" d="M 165 191 104 270"/>
<path stroke-width="0.5" stroke="black" d="M 165 191 304 256"/>
<path stroke-width="0.5" stroke="black" d="M 165 191 270 266"/>
<path stroke-width="0.5" stroke="black" d="M 165 191 190 168"/>
<path stroke-width="4.242424242424242" stroke="black" d="M 20 306 104 270"/>
<path stroke-width="0.5" stroke="black" d="M 165 191 130 237"/>
<path stroke-width="11.333333333333334" stroke="black" d="M 91 236 23 236"/>
<path stroke-width="0.7954545454545454" stroke="black" d="M 91 236 188 271"/>
<path stroke-width="0.5" stroke="black" d="M 91 236 212 226"/>
<path stroke-width="0.5" stroke="black" d="M 282 227 190 168"/>
<path stroke-width="17.242424242424242" stroke="black" d="M 196 256 185 238"/>
<path stroke-width="0.5" stroke="black" d="M 185 238 281 232"/>
<path stroke-width="0.5" stroke="black" d="M 185 238 252 268"/>
<path stroke-width="0.5" stroke="black" d="M 185 238 122 259"/>
<path stroke-width="0.5" stroke="black" d="M 185 238 282 227"/>
<path stroke-width="17.242424242424242" stroke="black" d="M 185 238 196 256"/>
<path stroke-width="0.5" stroke="black" d="M 282 227 270 266"/>
<path stroke-width="0.5" stroke="black" d="M 185 238 182 277"/>
<path stroke-width="0.5" stroke="black" d="M 185 238 130 237"/>
<path stroke-width="0.5" stroke="black" d="M 185 238 256 203"/>
<path stroke-width="0.5" stroke="black" d="M 185 238 100 226"/>
<path stroke-width="0.5" stroke="black" d="M 185 238 212 226"/>
<path stroke-width="0.5" stroke="black" d="M 185 238 188 271"/>
<path stroke-width="0.5" stroke="black" d="M 185 238 91 236"/>
<path stroke-width="0.5" stroke="black" d="M 185 238 152 203"/>
<path stroke-width="0.5" stroke="black" d="M 185 238 190 206"/>
<path stroke-width="0.5" stroke="black" d="M 185 238 126 206"/>
<path stroke-width="0.5" stroke="black" d="M 282 227 304 256"/>
<path stroke-width="0.7954545454545454" stroke="black" d="M 282 227 165 191"/>
<path stroke-width="0.5" stroke="black" d="M 282 227 185 238"/>
<path stroke-width="0.5" stroke="black" d="M 282 227 182 277"/>
<path stroke-width="0.5" stroke="black" d="M 282 227 190 206"/>
<path stroke-width="0.5" stroke="black" d="M 282 227 130 237"/>
<path stroke-width="0.5" stroke="black" d="M 282 227 256 203"/>
<path stroke-width="0.5" stroke="black" d="M 282 227 100 226"/>
<path stroke-width="0.5" stroke="black" d="M 282 227 212 226"/>
<path stroke-width="0.5" stroke="black" d="M 282 227 104 270"/>
<path stroke-width="0.5" stroke="black" d="M 282 227 188 271"/>
<path stroke-width="0.5" stroke="black" d="M 282 227 152 203"/>
<path stroke-width="0.5" stroke="black" d="M 282 227 126 206"/>
<path stroke-width="0.5" stroke="black" d="M 282 227 280 218"/>
<path stroke-width="0.5" stroke="black" d="M 282 227 249 200"/>
<path stroke-width="0.5" stroke="black" d="M 282 227 173 243"/>
<path stroke-width="0.5" stroke="black" d="M 282 227 240 278"/>
<path stroke-width="0.5" stroke="black" d="M 282 227 154 280"/>
<path stroke-width="0.5" stroke="black" d="M 282 227 91 236"/>
<path stroke-width="0.5" stroke="black" d="M 185 238 280 218"/>
<path stroke-width="0.5" stroke="black" d="M 185 238 249 200"/>
<path stroke-width="0.5" stroke="black" d="M 185 238 173 243"/>
<path stroke-width="0.5" stroke="black" d="M 182 277 152 203"/>
<path stroke-width="0.5" stroke="black" d="M 182 277 126 206"/>
<path stroke-width="0.5" stroke="black" d="M 182 277 280 218"/>
<path stroke-width="0.5" stroke="black" d="M 182 277 249 200"/>
<path stroke-width="0.5" stroke="black" d="M 182 277 173 243"/>
<path stroke-width="0.7954545454545454" stroke="black" d="M 182 277 240 278"/>
<path stroke-width="0.5" stroke="black" d="M 182 277 154 280"/>
<path stroke-width="0.5" stroke="black" d="M 182 277 91 236"/>
<path stroke-width="0.5" stroke="black" d="M 182 277 165 191"/>
<path stroke-width="0.5" stroke="black" d="M 182 277 304 256"/>
<path stroke-width="0.5" stroke="black" d="M 182 277 270 266"/>
<path stroke-width="0.5" stroke="black" d="M 182 277 190 168"/>
<path stroke-width="15.666666666666666" stroke="black" d="M 188 184 190 206"/>
<path stroke-width="0.5" stroke="black" d="M 190 206 281 232"/>
<path stroke-width="0.5" stroke="black" d="M 190 206 252 268"/>
<path stroke-width="0.5" stroke="black" d="M 190 206 122 259"/>
<path stroke-width="0.5" stroke="black" d="M 182 277 104 270"/>
<path stroke-width="0.5" stroke="black" d="M 182 277 188 271"/>
<path stroke-width="0.5" stroke="black" d="M 182 277 212 226"/>
<path stroke-width="0.5" stroke="black" d="M 182 277 100 226"/>
<path stroke-width="0.5" stroke="black" d="M 185 238 240 278"/>
<path stroke-width="0.7954545454545454" stroke="black" d="M 185 238 154 280"/>
<path stroke-width="0.5" stroke="black" d="M 185 238 165 191"/>
<path stroke-width="0.5" stroke="black" d="M 185 238 104 270"/>
<path stroke-width="0.5" stroke="black" d="M 185 238 304 256"/>
<path stroke-width="0.5" stroke="black" d="M 185 238 270 266"/>
<path stroke-width="0.5" stroke="black" d="M 185 238 190 168"/>
<path stroke-width="16.454545454545453" stroke="black" d="M 173 301 182 277"/>
<path stroke-width="0.5" stroke="black" d="M 182 277 281 232"/>
<path stroke-width="0.5" stroke="black" d="M 182 277 252 268"/>
<path stroke-width="0.5" stroke="black" d="M 182 277 122 259"/>
<path stroke-width="0.5" stroke="black" d="M 182 277 282 227"/>
<path stroke-width="0.5" stroke="black" d="M 182 277 185 238"/>
<path stroke-width="16.454545454545453" stroke="black" d="M 182 277 173 301"/>
<path stroke-width="0.5" stroke="black" d="M 182 277 190 206"/>
<path stroke-width="0.5" stroke="black" d="M 182 277 130 237"/>
<path stroke-width="0.5" stroke="black" d="M 182 277 256 203"/>
<path stroke-width="18.03030303030303" stroke="black" d="M 282 227 332 224"/>
<path stroke-width="0.5" stroke="black" d="M 282 227 122 259"/>
<path stroke-width="0.5" stroke="black" d="M 282 227 252 268"/>
<path stroke-width="0.5" stroke="black" d="M 282 227 281 232"/>
<path stroke-width="0.5" stroke="black" d="M 281 232 104 270"/>
<path stroke-width="0.5" stroke="black" d="M 281 232 304 256"/>
<path stroke-width="0.7954545454545454" stroke="black" d="M 281 232 270 266"/>
<path stroke-width="0.5" stroke="black" d="M 281 232 190 168"/>
<path stroke-width="19.606060606060606" stroke="black" d="M 277 287 252 268"/>
<path stroke-width="0.5" stroke="black" d="M 252 268 281 232"/>
<path stroke-width="19.606060606060606" stroke="black" d="M 252 268 277 287"/>
<path stroke-width="0.5" stroke="black" d="M 281 232 165 191"/>
<path stroke-width="0.5" stroke="black" d="M 252 268 122 259"/>
<path stroke-width="0.5" stroke="black" d="M 252 268 185 238"/>
<path stroke-width="0.5" stroke="black" d="M 252 268 182 277"/>
<path stroke-width="0.5" stroke="black" d="M 252 268 190 206"/>
<path stroke-width="0.5" stroke="black" d="M 252 268 130 237"/>
<path stroke-width="0.5" stroke="black" d="M 252 268 256 203"/>
<path stroke-width="0.5" stroke="black" d="M 252 268 100 226"/>
<path stroke-width="0.5" stroke="black" d="M 252 268 212 226"/>
<path stroke-width="0.5" stroke="black" d="M 252 268 282 227"/>
<path stroke-width="0.5" stroke="black" d="M 281 232 154 280"/>
<path stroke-width="0.5" stroke="black" d="M 281 232 240 278"/>
<path stroke-width="0.5" stroke="black" d="M 281 232 173 243"/>
<path stroke-width="20.0" stroke="black" d="M 281 232 327 229"/>
<path stroke-width="0.5" stroke="black" d="M 281 232 252 268"/>
<path stroke-width="0.5" stroke="black" d="M 281 232 122 259"/>
<path stroke-width="0.5" stroke="black" d="M 281 232 282 227"/>
<path stroke-width="0.5" stroke="black" d="M 281 232 185 238"/>
<path stroke-width="0.5" stroke="black" d="M 281 232 182 277"/>
<path stroke-width="0.5" stroke="black" d="M 281 232 190 206"/>
<path stroke-width="0.5" stroke="black" d="M 281 232 130 237"/>
<path stroke-width="0.5" stroke="black" d="M 281 232 256 203"/>
<path stroke-width="0.5" stroke="black" d="M 281 232 100 226"/>
<path stroke-width="0.5" stroke="black" d="M 281 232 212 226"/>
<path stroke-width="0.5" stroke="black" d="M 281 232 188 271"/>
<path stroke-width="0.5" stroke="black" d="M 281 232 91 236"/>
<path stroke-width="0.5" stroke="black" d="M 281 232 152 203"/>
<path stroke-width="0.5" stroke="black" d="M 281 232 126 206"/>
<path stroke-width="0.5" stroke="black" d="M 281 232 280 218"/>
<path stroke-width="0.5" stroke="black" d="M 281 232 249 200"/>
<path stroke-width="0.5" stroke="black" d="M 252 268 188 271"/>
<path stroke-width="0.5" stroke="black" d="M 190 206 282 227"/>
<path stroke-width="0.5" stroke="black" d="M 252 268 91 236"/>
<path stroke-width="0.5" stroke="black" d="M 252 268 126 206"/>
<path stroke-width="0.5" stroke="black" d="M 122 259 212 226"/>
<path stroke-width="0.5" stroke="black" d="M 122 259 188 271"/>
<path stroke-width="0.5" stroke="black" d="M 122 259 91 236"/>
<path stroke-width="0.5" stroke="black" d="M 122 259 152 203"/>
<path stroke-width="0.5" stroke="black" d="M 122 259 126 206"/>
<path stroke-width="0.5" stroke="black" d="M 122 259 280 218"/>
<path stroke-width="0.5" stroke="black" d="M 122 259 249 200"/>
<path stroke-width="0.5" stroke="black" d="M 122 259 100 226"/>
<path stroke-width="0.5" stroke="black" d="M 122 259 173 243"/>
<path stroke-width="0.5" stroke="black" d="M 122 259 154 280"/>
<path stroke-width="0.5" stroke="black" d="M 122 259 165 191"/>
<path stroke-width="0.7954545454545454" stroke="black" d="M 122 259 104 270"/>
<path stroke-width="0.5" stroke="black" d="M 122 259 304 256"/>
<path stroke-width="0.5" stroke="black" d="M 122 259 270 266"/>
<path stroke-width="0.5" stroke="black" d="M 122 259 190 168"/>
<path stroke-width="18.03030303030303" stroke="black" d="M 332 224 282 227"/>
<path stroke-width="0.5" stroke="black" d="M 122 259 240 278"/>
<path stroke-width="0.5" stroke="black" d="M 122 259 256 203"/>
<path stroke-width="0.5" stroke="black" d="M 122 259 130 237"/>
<path stroke-width="0.5" stroke="black" d="M 122 259 190 206"/>
<path stroke-width="0.5" stroke="black" d="M 252 268 280 218"/>
<path stroke-width="0.5" stroke="black" d="M 252 268 249 200"/>
<path stroke-width="0.5" stroke="black" d="M 252 268 173 243"/>
<path stroke-width="0.5" stroke="black" d="M 252 268 240 278"/>
<path stroke-width="0.5" stroke="black" d="M 252 268 154 280"/>
<path stroke-width="0.5" stroke="black" d="M 252 268 165 191"/>
<path stroke-width="0.5" stroke="black" d="M 252 268 104 270"/>
<path stroke-width="0.7954545454545454" stroke="black" d="M 252 268 304 256"/>
<path stroke-width="0.5" stroke="black" d="M 252 268 270 266"/>
<path stroke-width="0.5" stroke="black" d="M 252 268 190 168"/>
<path stroke-width="18.818181818181817" stroke="black" d="M 82 272 122 259"/>
<path stroke-width="0.5" stroke="black" d="M 122 259 281 232"/>
<path stroke-width="0.5" stroke="black" d="M 122 259 252 268"/>
<path stroke-width="18.818181818181817" stroke="black" d="M 122 259 82 272"/>
<path stroke-width="0.5" stroke="black" d="M 122 259 282 227"/>
<path stroke-width="0.5" stroke="black" d="M 122 259 185 238"/>
<path stroke-width="0.5" stroke="black" d="M 122 259 182 277"/>
<path stroke-width="0.5" stroke="black" d="M 252 268 152 203"/>
<path stroke-width="0.5" stroke="black" d="M 190 168 270 266"/>
<path stroke-width="0.5" stroke="black" d="M 190 206 185 238"/>
<path stroke-width="15.666666666666666" stroke="black" d="M 190 206 188 184"/>
<path stroke-width="0.5" stroke="black" d="M 212 226 182 277"/>
<path stroke-width="0.5" stroke="black" d="M 212 226 190 206"/>
<path stroke-width="0.5" stroke="black" d="M 212 226 130 237"/>
<path stroke-width="0.5" stroke="black" d="M 212 226 256 203"/>
<path stroke-width="0.5" stroke="black" d="M 212 226 100 226"/>
<path stroke-width="12.515151515151516" stroke="black" d="M 212 226 230 213"/>
<path stroke-width="0.5" stroke="black" d="M 212 226 188 271"/>
<path stroke-width="0.5" stroke="black" d="M 212 226 185 238"/>
<path stroke-width="0.5" stroke="black" d="M 212 226 91 236"/>
<path stroke-width="0.5" stroke="black" d="M 212 226 126 206"/>
<path stroke-width="0.5" stroke="black" d="M 212 226 280 218"/>
<path stroke-width="0.5" stroke="black" d="M 212 226 249 200"/>
<path stroke-width="0.5" stroke="black" d="M 212 226 173 243"/>
<path stroke-width="0.5" stroke="black" d="M 212 226 240 278"/>
<path stroke-width="0.5" stroke="black" d="M 212 226 154 280"/>
<path stroke-width="0.5" stroke="black" d="M 212 226 165 191"/>
<path stroke-width="0.7954545454545454" stroke="black" d="M 212 226 152 203"/>
<path stroke-width="0.5" stroke="black" d="M 212 226 104 270"/>
<path stroke-width="0.5" stroke="black" d="M 212 226 282 227"/>
<path stroke-width="0.5" stroke="black" d="M 212 226 252 268"/>
<path stroke-width="0.5" stroke="black" d="M 100 226 188 271"/>
<path stroke-width="0.5" stroke="black" d="M 100 226 91 236"/>
<path stroke-width="0.5" stroke="black" d="M 100 226 152 203"/>
<path stroke-width="0.7954545454545454" stroke="black" d="M 100 226 126 206"/>
<path stroke-width="0.5" stroke="black" d="M 100 226 280 218"/>
<path stroke-width="0.5" stroke="black" d="M 100 226 249 200"/>
<path stroke-width="0.5" stroke="black" d="M 100 226 173 243"/>
<path stroke-width="0.5" stroke="black" d="M 212 226 122 259"/>
<path stroke-width="0.5" stroke="black" d="M 100 226 240 278"/>
<path stroke-width="0.5" stroke="black" d="M 100 226 165 191"/>
<path stroke-width="0.5" stroke="black" d="M 100 226 104 270"/>
<path stroke-width="0.5" stroke="black" d="M 100 226 304 256"/>
<path stroke-width="0.5" stroke="black" d="M 100 226 270 266"/>
<path stroke-width="0.5" stroke="black" d="M 100 226 190 168"/>
<path stroke-width="12.515151515151516" stroke="black" d="M 230 213 212 226"/>
<path stroke-width="0.5" stroke="black" d="M 212 226 281 232"/>
<path stroke-width="0.5" stroke="black" d="M 100 226 154 280"/>
<path stroke-width="0.5" stroke="black" d="M 212 226 304 256"/>
<path stroke-width="0.5" stroke="black" d="M 212 226 270 266"/>
<path stroke-width="0.5" stroke="black" d="M 212 226 190 168"/>
<path stroke-width="0.5" stroke="black" d="M 188 271 165 191"/>
<path stroke-width="0.5" stroke="black" d="M 188 271 104 270"/>
<path stroke-width="0.5" stroke="black" d="M 188 271 304 256"/>
<path stroke-width="0.5" stroke="black" d="M 188 271 270 266"/>
<path stroke-width="0.5" stroke="black" d="M 188 271 190 168"/>
<path stroke-width="11.333333333333334" stroke="black" d="M 23 236 91 236"/>
<path stroke-width="0.5" stroke="black" d="M 91 236 281 232"/>
<path stroke-width="0.5" stroke="black" d="M 188 271 154 280"/>
<path stroke-width="0.5" stroke="black" d="M 91 236 252 268"/>
<path stroke-width="0.5" stroke="black" d="M 91 236 282 227"/>
<path stroke-width="0.5" stroke="black" d="M 91 236 185 238"/>
<path stroke-width="0.5" stroke="black" d="M 91 236 182 277"/>
<path stroke-width="0.5" stroke="black" d="M 91 236 190 206"/>
<path stroke-width="0.5" stroke="black" d="M 91 236 130 237"/>
<path stroke-width="0.5" stroke="black" d="M 91 236 256 203"/>
<path stroke-width="0.5" stroke="black" d="M 91 236 100 226"/>
<path stroke-width="0.5" stroke="black" d="M 91 236 122 259"/>
<path stroke-width="0.5" stroke="black" d="M 188 271 240 278"/>
<path stroke-width="0.5" stroke="black" d="M 188 271 173 243"/>
<path stroke-width="0.5" stroke="black" d="M 188 271 249 200"/>
<path stroke-width="11.727272727272727" stroke="black" d="M 186 298 188 271"/>
<path stroke-width="0.5" stroke="black" d="M 188 271 281 232"/>
<path stroke-width="0.5" stroke="black" d="M 188 271 252 268"/>
<path stroke-width="0.5" stroke="black" d="M 188 271 122 259"/>
<path stroke-width="0.5" stroke="black" d="M 188 271 282 227"/>
<path stroke-width="0.5" stroke="black" d="M 188 271 185 238"/>
<path stroke-width="0.5" stroke="black" d="M 188 271 182 277"/>
<path stroke-width="0.5" stroke="black" d="M 188 271 190 206"/>
<path stroke-width="0.5" stroke="black" d="M 188 271 130 237"/>
<path stroke-width="0.5" stroke="black" d="M 188 271 256 203"/>
<path stroke-width="0.5" stroke="black" d="M 188 271 100 226"/>
<path stroke-width="0.5" stroke="black" d="M 188 271 212 226"/>
<path stroke-width="11.727272727272727" stroke="black" d="M 188 271 186 298"/>
<path stroke-width="0.7954545454545454" stroke="black" d="M 188 271 91 236"/>
<path stroke-width="0.5" stroke="black" d="M 188 271 152 203"/>
<path stroke-width="0.5" stroke="black" d="M 188 271 126 206"/>
<path stroke-width="0.5" stroke="black" d="M 188 271 280 218"/>
<path stroke-width="0.5" stroke="black" d="M 100 226 212 226"/>
<path stroke-width="13.303030303030303" stroke="black" d="M 100 226 41 222"/>
<path stroke-width="0.5" stroke="black" d="M 100 226 256 203"/>
<path stroke-width="0.5" stroke="black" d="M 100 226 130 237"/>
<path stroke-width="0.5" stroke="black" d="M 130 237 122 259"/>
<path stroke-width="0.5" stroke="black" d="M 130 237 282 227"/>
<path stroke-width="0.5" stroke="black" d="M 130 237 185 238"/>
<path stroke-width="0.5" stroke="black" d="M 130 237 182 277"/>
<path stroke-width="0.5" stroke="black" d="M 130 237 190 206"/>
<path stroke-width="14.878787878787879" stroke="black" d="M 130 237 79 242"/>
<path stroke-width="0.5" stroke="black" d="M 130 237 256 203"/>
<path stroke-width="0.5" stroke="black" d="M 130 237 252 268"/>
<path stroke-width="0.5" stroke="black" d="M 130 237 100 226"/>
<path stroke-width="0.5" stroke="black" d="M 130 237 188 271"/>
<path stroke-width="0.5" stroke="black" d="M 130 237 91 236"/>
<path stroke-width="0.5" stroke="black" d="M 130 237 152 203"/>
<path stroke-width="0.5" stroke="black" d="M 130 237 126 206"/>
<path stroke-width="0.5" stroke="black" d="M 130 237 280 218"/>
<path stroke-width="0.7954545454545454" stroke="black" d="M 130 237 249 200"/>
<path stroke-width="0.5" stroke="black" d="M 130 237 173 243"/>
<path stroke-width="0.5" stroke="black" d="M 130 237 212 226"/>
<path stroke-width="0.5" stroke="black" d="M 130 237 281 232"/>
<path stroke-width="14.878787878787879" stroke="black" d="M 79 242 130 237"/>
<path stroke-width="0.5" stroke="black" d="M 190 206 190 168"/>
<path stroke-width="0.5" stroke="black" d="M 190 206 130 237"/>
<path stroke-width="0.5" stroke="black" d="M 190 206 256 203"/>
<path stroke-width="0.5" stroke="black" d="M 190 206 100 226"/>
<path stroke-width="0.5" stroke="black" d="M 190 206 212 226"/>
<path stroke-width="0.5" stroke="black" d="M 190 206 188 271"/>
<path stroke-width="0.5" stroke="black" d="M 190 206 91 236"/>
<path stroke-width="0.5" stroke="black" d="M 190 206 152 203"/>
<path stroke-width="0.5" stroke="black" d="M 190 206 126 206"/>
<path stroke-width="0.5" stroke="black" d="M 190 206 280 218"/>
<path stroke-width="0.5" stroke="black" d="M 190 206 249 200"/>
<path stroke-width="0.7954545454545454" stroke="black" d="M 190 206 173 243"/>
<path stroke-width="0.5" stroke="black" d="M 190 206 240 278"/>
<path stroke-width="0.5" stroke="black" d="M 190 206 154 280"/>
<path stroke-width="0.5" stroke="black" d="M 190 206 165 191"/>
<path stroke-width="0.5" stroke="black" d="M 190 206 104 270"/>
<path stroke-width="0.5" stroke="black" d="M 190 206 304 256"/>
<path stroke-width="0.5" stroke="black" d="M 190 206 270 266"/>
<path stroke-width="0.5" stroke="black" d="M 130 237 240 278"/>
<path stroke-width="0.5" stroke="black" d="M 190 206 182 277"/>
<path stroke-width="0.5" stroke="black" d="M 130 237 154 280"/>
<path stroke-width="0.5" stroke="black" d="M 130 237 104 270"/>
<path stroke-width="0.5" stroke="black" d="M 256 203 173 243"/>
<path stroke-width="0.5" stroke="black" d="M 256 203 240 278"/>
<path stroke-width="0.5" stroke="black" d="M 256 203 154 280"/>
<path stroke-width="0.5" stroke="black" d="M 256 203 165 191"/>
<path stroke-width="0.5" stroke="black" d="M 256 203 104 270"/>
<path stroke-width="0.5" stroke="black" d="M 256 203 304 256"/>
<path stroke-width="0.5" stroke="black" d="M 256 203 270 266"/>
<path stroke-width="0.5" stroke="black" d="M 256 203 249 200"/>
<path stroke-width="0.5" stroke="black" d="M 256 203 190 168"/>
<path stroke-width="0.5" stroke="black" d="M 100 226 281 232"/>
<path stroke-width="0.5" stroke="black" d="M 100 226 252 268"/>
<path stroke-width="0.5" stroke="black" d="M 100 226 122 259"/>
<path stroke-width="0.5" stroke="black" d="M 100 226 282 227"/>
<path stroke-width="0.5" stroke="black" d="M 100 226 185 238"/>
<path stroke-width="0.5" stroke="black" d="M 100 226 182 277"/>
<path stroke-width="0.5" stroke="black" d="M 100 226 190 206"/>
<path stroke-width="13.303030303030303" stroke="black" d="M 41 222 100 226"/>
<path stroke-width="0.7954545454545454" stroke="black" d="M 256 203 280 218"/>
<path stroke-width="0.5" stroke="black" d="M 256 203 126 206"/>
<path stroke-width="0.5" stroke="black" d="M 256 203 152 203"/>
<path stroke-width="0.5" stroke="black" d="M 130 237 304 256"/>
<path stroke-width="0.5" stroke="black" d="M 130 237 270 266"/>
<path stroke-width="0.5" stroke="black" d="M 130 237 190 168"/>
<path stroke-width="14.090909090909092" stroke="black" d="M 292 184 256 203"/>
<path stroke-width="0.5" stroke="black" d="M 256 203 281 232"/>
<path stroke-width="0.5" stroke="black" d="M 256 203 252 268"/>
<path stroke-width="0.5" stroke="black" d="M 256 203 122 259"/>
<path stroke-width="0.5" stroke="black" d="M 256 203 282 227"/>
<path stroke-width="0.5" stroke="black" d="M 256 203 185 238"/>
<path stroke-width="0.5" stroke="black" d="M 256 203 182 277"/>
<path stroke-width="0.5" stroke="black" d="M 256 203 190 206"/>
<path stroke-width="0.5" stroke="black" d="M 256 203 130 237"/>
<path stroke-width="14.090909090909092" stroke="black" d="M 256 203 292 184"/>
<path stroke-width="0.5" stroke="black" d="M 256 203 100 226"/>
<path stroke-width="0.5" stroke="black" d="M 256 203 212 226"/>
<path stroke-width="0.5" stroke="black" d="M 256 203 188 271"/>
<path stroke-width="0.5" stroke="black" d="M 256 203 91 236"/>
<path stroke-width="0.5" stroke="black" d="M 130 237 165 191"/>
<path stroke-width="1.0909090909090908" stroke="black" d="M 190 168 170 20"/>
<circle cx="327" cy="229" r="7.0" style="fill:gray;stroke:black;stroke-width:1.0"/>
<circle cx="281" cy="232" r="7.0" style="fill:gray;stroke:black;stroke-width:1.0"/>
<circle cx="277" cy="287" r="7.0" style="fill:gray;stroke:black;stroke-width:1.0"/>
<circle cx="252" cy="268" r="7.0" style="fill:gray;stroke:black;stroke-width:1.0"/>
<circle cx="82" cy="272" r="7.0" style="fill:gray;stroke:black;stroke-width:1.0"/>
<circle cx="122" cy="259" r="7.0" style="fill:gray;stroke:black;stroke-width:1.0"/>
<circle cx="332" cy="224" r="7.0" style="fill:gray;stroke:black;stroke-width:1.0"/>
<circle cx="282" cy="227" r="7.0" style="fill:gray;stroke:black;stroke-width:1.0"/>
<circle cx="196" cy="256" r="7.0" style="fill:gray;stroke:black;stroke-width:1.0"/>
<circle cx="185" cy="238" r="7.0" style="fill:gray;stroke:black;stroke-width:1.0"/>
<circle cx="173" cy="301" r="7.0" style="fill:gray;stroke:black;stroke-width:1.0"/>
<circle cx="182" cy="277" r="7.0" style="fill:gray;stroke:black;stroke-width:1.0"/>
<circle cx="188" cy="184" r="7.0" style="fill:gray;stroke:black;stroke-width:1.0"/>
<circle cx="190" cy="206" r="7.0" style="fill:gray;stroke:black;stroke-width:1.0"/>
<circle cx="79" cy="242" r="7.0" style="fill:gray;stroke:black;stroke-width:1.0"/>
<circle cx="130" cy="237" r="7.0" style="fill:gray;stroke:black;stroke-width:1.0"/>
<circle cx="292" cy="184" r="7.0" style="fill:gray;stroke:black;stroke-width:1.0"/>
<circle cx="256" cy="203" r="7.0" style="fill:gray;stroke:black;stroke-width:1.0"/>
<circle cx="41" cy="222" r="7.0" style="fill:gray;stroke:black;stroke-width:1.0"/>
<circle cx="100" cy="226" r="7.0" style="fill:gray;stroke:black;stroke-width:1.0"/>
<circle cx="230" cy="213" r="7.0" style="fill:gray;stroke:black;stroke-width:1.0"/>
<circle cx="212" cy="226" r="7.0" style="fill:gray;stroke:black;stroke-width:1.0"/>
<circle cx="186" cy="298" r="7.0" style="fill:gray;stroke:black;stroke-width:1.0"/>
<circle cx="188" cy="271" r="7.0" style="fill:gray;stroke:black;stroke-width:1.0"/>
<circle cx="23" cy="236" r="7.0" style="fill:gray;stroke:black;stroke-width:1.0"/>
<circle cx="91" cy="236" r="7.0" style="fill:gray;stroke:black;stroke-width:1.0"/>
<circle cx="123" cy="177" r="7.0" style="fill:gray;stroke:black;stroke-width:1.0"/>
<circle cx="152" cy="203" r="7.0" style="fill:gray;stroke:black;stroke-width:1.0"/>
<circle cx="80" cy="183" r="7.0" style="fill:gray;stroke:black;stroke-width:1.0"/>
<circle cx="126" cy="206" r="7.0" style="fill:gray;stroke:black;stroke-width:1.0"/>
<circle cx="344" cy="204" r="7.0" style="fill:gray;stroke:black;stroke-width:1.0"/>
<circle cx="280" cy="218" r="7.0" style="fill:gray;stroke:black;stroke-width:1.0"/>
<circle cx="294" cy="172" r="7.0" style="fill:gray;stroke:black;stroke-width:1.0"/>
<circle cx="249" cy="200" r="7.0" style="fill:gray;stroke:black;stroke-width:1.0"/>
<circle cx="129" cy="257" r="7.0" style="fill:gray;stroke:black;stroke-width:1.0"/>
<circle cx="173" cy="243" r="7.0" style="fill:gray;stroke:black;stroke-width:1.0"/>
<circle cx="275" cy="314" r="7.0" style="fill:gray;stroke:black;stroke-width:1.0"/>
<circle cx="240" cy="278" r="7.0" style="fill:gray;stroke:black;stroke-width:1.0"/>
<circle cx="122" cy="320" r="7.0" style="fill:gray;stroke:black;stroke-width:1.0"/>
<circle cx="154" cy="280" r="7.0" style="fill:gray;stroke:black;stroke-width:1.0"/>
<circle cx="129" cy="147" r="7.0" style="fill:gray;stroke:black;stroke-width:1.0"/>
<circle cx="165" cy="191" r="7.0" style="fill:gray;stroke:black;stroke-width:1.0"/>
<circle cx="20" cy="306" r="7.0" style="fill:gray;stroke:black;stroke-width:1.0"/>
<circle cx="104" cy="270" r="7.0" style="fill:gray;stroke:black;stroke-width:1.0"/>
<circle cx="420" cy="281" r="7.0" style="fill:gray;stroke:black;stroke-width:1.0"/>
<circle cx="304" cy="256" r="7.0" style="fill:gray;stroke:black;stroke-width:1.0"/>
<circle cx="350" cy="313" r="7.0" style="fill:gray;stroke:black;stroke-width:1.0"/>
<circle cx="270" cy="266" r="7.0" style="fill:gray;stroke:black;stroke-width:1.0"/>
<circle cx="170" cy="20" r="7.0" style="fill:gray;stroke:black;stroke-width:1.0"/>
<circle cx="190" cy="168" r="7.0" style="fill:gray;stroke:black;stroke-width:1.0"/>
</svg>
