<svg width="440" height="340" xmlns="http://www.w3.org/2000/svg">
<path stroke-width="1" stroke="black" d="M 243 173 239 166"/>
<path stroke-width="1" stroke="black" d="M 211 241 225 245"/>
<path stroke-width="1" stroke="black" d="M 211 241 217 124"/>
<path stroke-width="1" stroke="black" d="M 211 241 165 108"/>
<path stroke-width="1" stroke="black" d="M 211 241 262 228"/>
<path stroke-width="1" stroke="black" d="M 211 241 151 147"/>
<path stroke-width="1" stroke="black" d="M 211 241 181 305"/>
<path stroke-width="1" stroke="black" d="M 211 241 292 227"/>
<path stroke-width="1" stroke="black" d="M 211 241 260 81"/>
<path stroke-width="1" stroke="black" d="M 211 241 264 244"/>
<path stroke-width="1" stroke="black" d="M 211 241 322 191"/>
<path stroke-width="1" stroke="black" d="M 211 241 156 171"/>
<path stroke-width="1" stroke="black" d="M 211 241 284 110"/>
<path stroke-width="1" stroke="black" d="M 211 241 318 139"/>
<path stroke-width="1" stroke="black" d="M 211 241 172 125"/>
<path stroke-width="1" stroke="black" d="M 343 280 292 227"/>
<path stroke-width="1" stroke="black" d="M 292 227 239 166"/>
<path stroke-width="1" stroke="black" d="M 211 241 317 161"/>
<path stroke-width="1" stroke="black" d="M 292 227 316 103"/>
<path stroke-width="1" stroke="black" d="M 211 241 186 86"/>
<path stroke-width="1" stroke="black" d="M 211 241 311 126"/>
<path stroke-width="1" stroke="black" d="M 151 147 292 227"/>
<path stroke-width="1" stroke="black" d="M 151 147 264 244"/>
<path stroke-width="1" stroke="black" d="M 151 147 317 161"/>
<path stroke-width="1" stroke="black" d="M 151 147 322 191"/>
<path stroke-width="1" stroke="black" d="M 151 147 156 171"/>
<path stroke-width="1" stroke="black" d="M 151 147 284 110"/>
<path stroke-width="1" stroke="black" d="M 151 147 318 139"/>
<path stroke-width="1" stroke="black" d="M 211 241 152 192"/>
<path stroke-width="1" stroke="black" d="M 151 147 172 125"/>
<path stroke-width="1" stroke="black" d="M 211 241 239 166"/>
<path stroke-width="1" stroke="black" d="M 211 241 316 103"/>
<path stroke-width="1" stroke="black" d="M 211 241 244 106"/>
<path stroke-width="1" stroke="black" d="M 211 241 315 207"/>
<path stroke-width="1" stroke="black" d="M 211 241 224 69"/>
<path stroke-width="1" stroke="black" d="M 211 241 183 211"/>
<path stroke-width="1" stroke="black" d="M 211 241 186 231"/>
<path stroke-width="1" stroke="black" d="M 181 305 211 241"/>
<path stroke-width="1" stroke="black" d="M 292 227 244 106"/>
<path stroke-width="1" stroke="black" d="M 292 227 315 207"/>
<path stroke-width="1" stroke="black" d="M 292 227 224 69"/>
<path stroke-width="1" stroke="black" d="M 264 244 239 166"/>
<path stroke-width="1" stroke="black" d="M 264 244 316 103"/>
<path stroke-width="1" stroke="black" d="M 264 244 244 106"/>
<path stroke-width="1" stroke="black" d="M 264 244 315 207"/>
<path stroke-width="1" stroke="black" d="M 264 244 224 69"/>
<path stroke-width="1" stroke="black" d="M 264 244 183 211"/>
<path stroke-width="1" stroke="black" d="M 264 244 186 231"/>
<path stroke-width="1" stroke="black" d="M 290 320 264 244"/>
<path stroke-width="1" stroke="black" d="M 264 244 311 126"/>
<path stroke-width="1" stroke="black" d="M 264 244 186 86"/>
<path stroke-width="1" stroke="black" d="M 264 244 260 81"/>
<path stroke-width="1" stroke="black" d="M 264 244 225 245"/>
<path stroke-width="1" stroke="black" d="M 264 244 217 124"/>
<path stroke-width="1" stroke="black" d="M 264 244 165 108"/>
<path stroke-width="1" stroke="black" d="M 264 244 262 228"/>
<path stroke-width="1" stroke="black" d="M 264 244 151 147"/>
<path stroke-width="1" stroke="black" d="M 264 244 152 192"/>
<path stroke-width="1" stroke="black" d="M 292 227 172 125"/>
<path stroke-width="1" stroke="black" d="M 292 227 318 139"/>
<path stroke-width="1" stroke="black" d="M 292 227 284 110"/>
<path stroke-width="1" stroke="black" d="M 292 227 183 211"/>
<path stroke-width="1" stroke="black" d="M 292 227 186 231"/>
<path stroke-width="1" stroke="black" d="M 292 227 311 126"/>
<path stroke-width="1" stroke="black" d="M 292 227 152 192"/>
<path stroke-width="1" stroke="black" d="M 292 227 186 86"/>
<path stroke-width="1" stroke="black" d="M 292 227 260 81"/>
<path stroke-width="1" stroke="black" d="M 292 227 225 245"/>
<path stroke-width="1" stroke="black" d="M 292 227 217 124"/>
<path stroke-width="1" stroke="black" d="M 292 227 165 108"/>
<path stroke-width="1" stroke="black" d="M 292 227 262 228"/>
<path stroke-width="1" stroke="black" d="M 292 227 151 147"/>
<path stroke-width="1" stroke="black" d="M 292 227 211 241"/>
<path stroke-width="1" stroke="black" d="M 292 227 343 280"/>
<path stroke-width="1" stroke="black" d="M 292 227 264 244"/>
<path stroke-width="1" stroke="black" d="M 292 227 317 161"/>
<path stroke-width="1" stroke="black" d="M 292 227 322 191"/>
<path stroke-width="1" stroke="black" d="M 292 227 156 171"/>
<path stroke-width="1" stroke="black" d="M 151 147 211 241"/>
<path stroke-width="1" stroke="black" d="M 264 244 211 241"/>
<path stroke-width="1" stroke="black" d="M 151 147 91 133"/>
<path stroke-width="1" stroke="black" d="M 151 147 165 108"/>
<path stroke-width="1" stroke="black" d="M 165 108 152 192"/>
<path stroke-width="1" stroke="black" d="M 165 108 186 86"/>
<path stroke-width="1" stroke="black" d="M 165 108 260 81"/>
<path stroke-width="1" stroke="black" d="M 165 108 225 245"/>
<path stroke-width="1" stroke="black" d="M 165 108 217 124"/>
<path stroke-width="1" stroke="black" d="M 165 108 119 79"/>
<path stroke-width="1" stroke="black" d="M 165 108 262 228"/>
<path stroke-width="1" stroke="black" d="M 165 108 311 126"/>
<path stroke-width="1" stroke="black" d="M 165 108 151 147"/>
<path stroke-width="1" stroke="black" d="M 165 108 292 227"/>
<path stroke-width="1" stroke="black" d="M 165 108 264 244"/>
<path stroke-width="1" stroke="black" d="M 165 108 317 161"/>
<path stroke-width="1" stroke="black" d="M 165 108 322 191"/>
<path stroke-width="1" stroke="black" d="M 165 108 156 171"/>
<path stroke-width="1" stroke="black" d="M 165 108 284 110"/>
<path stroke-width="1" stroke="black" d="M 165 108 318 139"/>
<path stroke-width="1" stroke="black" d="M 165 108 211 241"/>
<path stroke-width="1" stroke="black" d="M 165 108 172 125"/>
<path stroke-width="1" stroke="black" d="M 165 108 186 231"/>
<path stroke-width="1" stroke="black" d="M 165 108 224 69"/>
<path stroke-width="1" stroke="black" d="M 217 124 262 228"/>
<path stroke-width="1" stroke="black" d="M 217 124 151 147"/>
<path stroke-width="1" stroke="black" d="M 217 124 211 241"/>
<path stroke-width="1" stroke="black" d="M 217 124 292 227"/>
<path stroke-width="1" stroke="black" d="M 217 124 264 244"/>
<path stroke-width="1" stroke="black" d="M 217 124 317 161"/>
<path stroke-width="1" stroke="black" d="M 217 124 322 191"/>
<path stroke-width="1" stroke="black" d="M 165 108 183 211"/>
<path stroke-width="1" stroke="black" d="M 217 124 156 171"/>
<path stroke-width="1" stroke="black" d="M 217 124 318 139"/>
<path stroke-width="1" stroke="black" d="M 217 124 172 125"/>
<path stroke-width="1" stroke="black" d="M 119 79 165 108"/>
<path stroke-width="1" stroke="black" d="M 165 108 239 166"/>
<path stroke-width="1" stroke="black" d="M 165 108 316 103"/>
<path stroke-width="1" stroke="black" d="M 165 108 244 106"/>
<path stroke-width="1" stroke="black" d="M 165 108 315 207"/>
<path stroke-width="1" stroke="black" d="M 217 124 284 110"/>
<path stroke-width="1" stroke="black" d="M 282 289 262 228"/>
<path stroke-width="1" stroke="black" d="M 262 228 239 166"/>
<path stroke-width="1" stroke="black" d="M 262 228 316 103"/>
<path stroke-width="1" stroke="black" d="M 262 228 318 139"/>
<path stroke-width="1" stroke="black" d="M 262 228 172 125"/>
<path stroke-width="1" stroke="black" d="M 91 133 151 147"/>
<path stroke-width="1" stroke="black" d="M 151 147 239 166"/>
<path stroke-width="1" stroke="black" d="M 151 147 316 103"/>
<path stroke-width="1" stroke="black" d="M 151 147 244 106"/>
<path stroke-width="1" stroke="black" d="M 151 147 315 207"/>
<path stroke-width="1" stroke="black" d="M 262 228 284 110"/>
<path stroke-width="1" stroke="black" d="M 151 147 224 69"/>
<path stroke-width="1" stroke="black" d="M 151 147 186 231"/>
<path stroke-width="1" stroke="black" d="M 151 147 311 126"/>
<path stroke-width="1" stroke="black" d="M 151 147 152 192"/>
<path stroke-width="1" stroke="black" d="M 151 147 186 86"/>
<path stroke-width="1" stroke="black" d="M 151 147 260 81"/>
<path stroke-width="1" stroke="black" d="M 151 147 225 245"/>
<path stroke-width="1" stroke="black" d="M 151 147 217 124"/>
<path stroke-width="1" stroke="black" d="M 151 147 183 211"/>
<path stroke-width="1" stroke="black" d="M 262 228 156 171"/>
<path stroke-width="1" stroke="black" d="M 262 228 322 191"/>
<path stroke-width="1" stroke="black" d="M 262 228 317 161"/>
<path stroke-width="1" stroke="black" d="M 262 228 244 106"/>
<path stroke-width="1" stroke="black" d="M 262 228 315 207"/>
<path stroke-width="1" stroke="black" d="M 262 228 224 69"/>
<path stroke-width="1" stroke="black" d="M 262 228 183 211"/>
<path stroke-width="1" stroke="black" d="M 262 228 186 231"/>
<path stroke-width="1" stroke="black" d="M 262 228 311 126"/>
<path stroke-width="1" stroke="black" d="M 262 228 152 192"/>
<path stroke-width="1" stroke="black" d="M 262 228 186 86"/>
<path stroke-width="1" stroke="black" d="M 262 228 260 81"/>
<path stroke-width="1" stroke="black" d="M 262 228 225 245"/>
<path stroke-width="1" stroke="black" d="M 262 228 217 124"/>
<path stroke-width="1" stroke="black" d="M 262 228 165 108"/>
<path stroke-width="1" stroke="black" d="M 262 228 282 289"/>
<path stroke-width="1" stroke="black" d="M 262 228 151 147"/>
<path stroke-width="1" stroke="black" d="M 262 228 211 241"/>
<path stroke-width="1" stroke="black" d="M 262 228 292 227"/>
<path stroke-width="1" stroke="black" d="M 262 228 264 244"/>
<path stroke-width="1" stroke="black" d="M 151 147 262 228"/>
<path stroke-width="1" stroke="black" d="M 264 244 292 227"/>
<path stroke-width="1" stroke="black" d="M 264 244 290 320"/>
<path stroke-width="1" stroke="black" d="M 264 244 317 161"/>
<path stroke-width="1" stroke="black" d="M 284 110 264 244"/>
<path stroke-width="1" stroke="black" d="M 284 110 317 161"/>
<path stroke-width="1" stroke="black" d="M 284 110 322 191"/>
<path stroke-width="1" stroke="black" d="M 284 110 156 171"/>
<path stroke-width="1" stroke="black" d="M 284 110 352 36"/>
<path stroke-width="1" stroke="black" d="M 284 110 318 139"/>
<path stroke-width="1" stroke="black" d="M 284 110 172 125"/>
<path stroke-width="1" stroke="black" d="M 284 110 292 227"/>
<path stroke-width="1" stroke="black" d="M 420 99 318 139"/>
<path stroke-width="1" stroke="black" d="M 318 139 316 103"/>
<path stroke-width="1" stroke="black" d="M 318 139 244 106"/>
<path stroke-width="1" stroke="black" d="M 318 139 315 207"/>
<path stroke-width="1" stroke="black" d="M 318 139 224 69"/>
<path stroke-width="1" stroke="black" d="M 318 139 183 211"/>
<path stroke-width="1" stroke="black" d="M 318 139 186 231"/>
<path stroke-width="1" stroke="black" d="M 318 139 311 126"/>
<path stroke-width="1" stroke="black" d="M 318 139 239 166"/>
<path stroke-width="1" stroke="black" d="M 318 139 152 192"/>
<path stroke-width="1" stroke="black" d="M 284 110 211 241"/>
<path stroke-width="1" stroke="black" d="M 284 110 262 228"/>
<path stroke-width="1" stroke="black" d="M 156 171 172 125"/>
<path stroke-width="1" stroke="black" d="M 352 36 284 110"/>
<path stroke-width="1" stroke="black" d="M 284 110 239 166"/>
<path stroke-width="1" stroke="black" d="M 284 110 316 103"/>
<path stroke-width="1" stroke="black" d="M 284 110 244 106"/>
<path stroke-width="1" stroke="black" d="M 284 110 315 207"/>
<path stroke-width="1" stroke="black" d="M 284 110 224 69"/>
<path stroke-width="1" stroke="black" d="M 284 110 151 147"/>
<path stroke-width="1" stroke="black" d="M 284 110 183 211"/>
<path stroke-width="1" stroke="black" d="M 284 110 311 126"/>
<path stroke-width="1" stroke="black" d="M 284 110 152 192"/>
<path stroke-width="1" stroke="black" d="M 284 110 186 86"/>
<path stroke-width="1" stroke="black" d="M 284 110 260 81"/>
<path stroke-width="1" stroke="black" d="M 284 110 225 245"/>
<path stroke-width="1" stroke="black" d="M 284 110 217 124"/>
<path stroke-width="1" stroke="black" d="M 284 110 165 108"/>
<path stroke-width="1" stroke="black" d="M 284 110 186 231"/>
<path stroke-width="1" stroke="black" d="M 318 139 186 86"/>
<path stroke-width="1" stroke="black" d="M 318 139 260 81"/>
<path stroke-width="1" stroke="black" d="M 318 139 225 245"/>
<path stroke-width="1" stroke="black" d="M 172 125 311 126"/>
<path stroke-width="1" stroke="black" d="M 172 125 152 192"/>
<path stroke-width="1" stroke="black" d="M 172 125 186 86"/>
<path stroke-width="1" stroke="black" d="M 172 125 260 81"/>
<path stroke-width="1" stroke="black" d="M 172 125 225 245"/>
<path stroke-width="1" stroke="black" d="M 172 125 217 124"/>
<path stroke-width="1" stroke="black" d="M 172 125 165 108"/>
<path stroke-width="1" stroke="black" d="M 172 125 186 231"/>
<path stroke-width="1" stroke="black" d="M 172 125 262 228"/>
<path stroke-width="1" stroke="black" d="M 172 125 211 241"/>
<path stroke-width="1" stroke="black" d="M 172 125 292 227"/>
<path stroke-width="1" stroke="black" d="M 172 125 264 244"/>
<path stroke-width="1" stroke="black" d="M 172 125 317 161"/>
<path stroke-width="1" stroke="black" d="M 172 125 322 191"/>
<path stroke-width="1" stroke="black" d="M 172 125 156 171"/>
<path stroke-width="1" stroke="black" d="M 172 125 284 110"/>
<path stroke-width="1" stroke="black" d="M 172 125 151 147"/>
<path stroke-width="1" stroke="black" d="M 172 125 183 211"/>
<path stroke-width="1" stroke="black" d="M 172 125 224 69"/>
<path stroke-width="1" stroke="black" d="M 172 125 315 207"/>
<path stroke-width="1" stroke="black" d="M 318 139 217 124"/>
<path stroke-width="1" stroke="black" d="M 318 139 165 108"/>
<path stroke-width="1" stroke="black" d="M 318 139 262 228"/>
<path stroke-width="1" stroke="black" d="M 318 139 151 147"/>
<path stroke-width="1" stroke="black" d="M 318 139 211 241"/>
<path stroke-width="1" stroke="black" d="M 318 139 292 227"/>
<path stroke-width="1" stroke="black" d="M 318 139 264 244"/>
<path stroke-width="1" stroke="black" d="M 318 139 317 161"/>
<path stroke-width="1" stroke="black" d="M 318 139 322 191"/>
<path stroke-width="1" stroke="black" d="M 318 139 156 171"/>
<path stroke-width="1" stroke="black" d="M 318 139 284 110"/>
<path stroke-width="1" stroke="black" d="M 318 139 420 99"/>
<path stroke-width="1" stroke="black" d="M 318 139 172 125"/>
<path stroke-width="1" stroke="black" d="M 20 21 172 125"/>
<path stroke-width="1" stroke="black" d="M 172 125 239 166"/>
<path stroke-width="1" stroke="black" d="M 172 125 316 103"/>
<path stroke-width="1" stroke="black" d="M 172 125 244 106"/>
<path stroke-width="1" stroke="black" d="M 156 171 318 139"/>
<path stroke-width="1" stroke="black" d="M 156 171 284 110"/>
<path stroke-width="1" stroke="black" d="M 156 171 67 190"/>
<path stroke-width="1" stroke="black" d="M 156 171 322 191"/>
<path stroke-width="1" stroke="black" d="M 317 161 151 147"/>
<path stroke-width="1" stroke="black" d="M 317 161 211 241"/>
<path stroke-width="1" stroke="black" d="M 317 161 292 227"/>
<path stroke-width="1" stroke="black" d="M 317 161 264 244"/>
<path stroke-width="1" stroke="black" d="M 317 161 393 167"/>
<path stroke-width="1" stroke="black" d="M 317 161 322 191"/>
<path stroke-width="1" stroke="black" d="M 317 161 156 171"/>
<path stroke-width="1" stroke="black" d="M 317 161 262 228"/>
<path stroke-width="1" stroke="black" d="M 317 161 284 110"/>
<path stroke-width="1" stroke="black" d="M 317 161 172 125"/>
<path stroke-width="1" stroke="black" d="M 404 222 322 191"/>
<path stroke-width="1" stroke="black" d="M 322 191 239 166"/>
<path stroke-width="1" stroke="black" d="M 322 191 316 103"/>
<path stroke-width="1" stroke="black" d="M 322 191 244 106"/>
<path stroke-width="1" stroke="black" d="M 322 191 315 207"/>
<path stroke-width="1" stroke="black" d="M 322 191 224 69"/>
<path stroke-width="1" stroke="black" d="M 317 161 318 139"/>
<path stroke-width="1" stroke="black" d="M 317 161 165 108"/>
<path stroke-width="1" stroke="black" d="M 317 161 217 124"/>
<path stroke-width="1" stroke="black" d="M 317 161 225 245"/>
<path stroke-width="1" stroke="black" d="M 264 244 322 191"/>
<path stroke-width="1" stroke="black" d="M 264 244 156 171"/>
<path stroke-width="1" stroke="black" d="M 264 244 284 110"/>
<path stroke-width="1" stroke="black" d="M 264 244 318 139"/>
<path stroke-width="1" stroke="black" d="M 264 244 172 125"/>
<path stroke-width="1" stroke="black" d="M 393 167 317 161"/>
<path stroke-width="1" stroke="black" d="M 317 161 239 166"/>
<path stroke-width="1" stroke="black" d="M 317 161 316 103"/>
<path stroke-width="1" stroke="black" d="M 317 161 244 106"/>
<path stroke-width="1" stroke="black" d="M 317 161 315 207"/>
<path stroke-width="1" stroke="black" d="M 317 161 224 69"/>
<path stroke-width="1" stroke="black" d="M 317 161 183 211"/>
<path stroke-width="1" stroke="black" d="M 317 161 186 231"/>
<path stroke-width="1" stroke="black" d="M 317 161 311 126"/>
<path stroke-width="1" stroke="black" d="M 317 161 152 192"/>
<path stroke-width="1" stroke="black" d="M 317 161 186 86"/>
<path stroke-width="1" stroke="black" d="M 317 161 260 81"/>
<path stroke-width="1" stroke="black" d="M 322 191 183 211"/>
<path stroke-width="1" stroke="black" d="M 217 124 165 108"/>
<path stroke-width="1" stroke="black" d="M 322 191 186 231"/>
<path stroke-width="1" stroke="black" d="M 322 191 152 192"/>
<path stroke-width="1" stroke="black" d="M 156 171 224 69"/>
<path stroke-width="1" stroke="black" d="M 156 171 183 211"/>
<path stroke-width="1" stroke="black" d="M 156 171 186 231"/>
<path stroke-width="1" stroke="black" d="M 156 171 311 126"/>
<path stroke-width="1" stroke="black" d="M 156 171 152 192"/>
<path stroke-width="1" stroke="black" d="M 156 171 186 86"/>
<path stroke-width="1" stroke="black" d="M 156 171 260 81"/>
<path stroke-width="1" stroke="black" d="M 156 171 315 207"/>
<path stroke-width="1" stroke="black" d="M 156 171 225 245"/>
<path stroke-width="1" stroke="black" d="M 156 171 165 108"/>
<path stroke-width="1" stroke="black" d="M 156 171 262 228"/>
<path stroke-width="1" stroke="black" d="M 156 171 151 147"/>
<path stroke-width="1" stroke="black" d="M 156 171 211 241"/>
<path stroke-width="1" stroke="black" d="M 156 171 292 227"/>
<path stroke-width="1" stroke="black" d="M 156 171 264 244"/>
<path stroke-width="1" stroke="black" d="M 156 171 317 161"/>
<path stroke-width="1" stroke="black" d="M 156 171 217 124"/>
<path stroke-width="1" stroke="black" d="M 156 171 244 106"/>
<path stroke-width="1" stroke="black" d="M 156 171 316 103"/>
<path stroke-width="1" stroke="black" d="M 156 171 239 166"/>
<path stroke-width="1" stroke="black" d="M 322 191 186 86"/>
<path stroke-width="1" stroke="black" d="M 322 191 260 81"/>
<path stroke-width="1" stroke="black" d="M 322 191 225 245"/>
<path stroke-width="1" stroke="black" d="M 322 191 217 124"/>
<path stroke-width="1" stroke="black" d="M 322 191 165 108"/>
<path stroke-width="1" stroke="black" d="M 322 191 262 228"/>
<path stroke-width="1" stroke="black" d="M 322 191 151 147"/>
<path stroke-width="1" stroke="black" d="M 322 191 211 241"/>
<path stroke-width="1" stroke="black" d="M 322 191 292 227"/>
<path stroke-width="1" stroke="black" d="M 322 191 264 244"/>
<path stroke-width="1" stroke="black" d="M 322 191 317 161"/>
<path stroke-width="1" stroke="black" d="M 322 191 404 222"/>
<path stroke-width="1" stroke="black" d="M 322 191 156 171"/>
<path stroke-width="1" stroke="black" d="M 322 191 284 110"/>
<path stroke-width="1" stroke="black" d="M 322 191 318 139"/>
<path stroke-width="1" stroke="black" d="M 322 191 172 125"/>
<path stroke-width="1" stroke="black" d="M 67 190 156 171"/>
<path stroke-width="1" stroke="black" d="M 322 191 311 126"/>
<path stroke-width="1" stroke="black" d="M 217 124 193 77"/>
<path stroke-width="1" stroke="black" d="M 217 124 225 245"/>
<path stroke-width="1" stroke="black" d="M 217 124 260 81"/>
<path stroke-width="1" stroke="black" d="M 315 207 172 125"/>
<path stroke-width="1" stroke="black" d="M 213 20 224 69"/>
<path stroke-width="1" stroke="black" d="M 224 69 239 166"/>
<path stroke-width="1" stroke="black" d="M 224 69 316 103"/>
<path stroke-width="1" stroke="black" d="M 224 69 244 106"/>
<path stroke-width="1" stroke="black" d="M 224 69 315 207"/>
<path stroke-width="1" stroke="black" d="M 224 69 213 20"/>
<path stroke-width="1" stroke="black" d="M 315 207 318 139"/>
<path stroke-width="1" stroke="black" d="M 224 69 183 211"/>
<path stroke-width="1" stroke="black" d="M 224 69 311 126"/>
<path stroke-width="1" stroke="black" d="M 224 69 152 192"/>
<path stroke-width="1" stroke="black" d="M 224 69 186 86"/>
<path stroke-width="1" stroke="black" d="M 224 69 260 81"/>
<path stroke-width="1" stroke="black" d="M 224 69 225 245"/>
<path stroke-width="1" stroke="black" d="M 224 69 217 124"/>
<path stroke-width="1" stroke="black" d="M 224 69 165 108"/>
<path stroke-width="1" stroke="black" d="M 224 69 186 231"/>
<path stroke-width="1" stroke="black" d="M 224 69 262 228"/>
<path stroke-width="1" stroke="black" d="M 315 207 284 110"/>
<path stroke-width="1" stroke="black" d="M 315 207 322 191"/>
<path stroke-width="1" stroke="black" d="M 315 207 224 69"/>
<path stroke-width="1" stroke="black" d="M 315 207 183 211"/>
<path stroke-width="1" stroke="black" d="M 315 207 186 231"/>
<path stroke-width="1" stroke="black" d="M 315 207 311 126"/>
<path stroke-width="1" stroke="black" d="M 315 207 152 192"/>
<path stroke-width="1" stroke="black" d="M 315 207 186 86"/>
<path stroke-width="1" stroke="black" d="M 315 207 260 81"/>
<path stroke-width="1" stroke="black" d="M 315 207 156 171"/>
<path stroke-width="1" stroke="black" d="M 315 207 225 245"/>
<path stroke-width="1" stroke="black" d="M 315 207 165 108"/>
<path stroke-width="1" stroke="black" d="M 315 207 262 228"/>
<path stroke-width="1" stroke="black" d="M 315 207 151 147"/>
<path stroke-width="1" stroke="black" d="M 315 207 211 241"/>
<path stroke-width="1" stroke="black" d="M 315 207 292 227"/>
<path stroke-width="1" stroke="black" d="M 315 207 264 244"/>
<path stroke-width="1" stroke="black" d="M 315 207 317 161"/>
<path stroke-width="1" stroke="black" d="M 315 207 217 124"/>
<path stroke-width="1" stroke="black" d="M 224 69 151 147"/>
<path stroke-width="1" stroke="black" d="M 224 69 211 241"/>
<path stroke-width="1" stroke="black" d="M 224 69 292 227"/>
<path stroke-width="1" stroke="black" d="M 183 211 165 108"/>
<path stroke-width="1" stroke="black" d="M 183 211 262 228"/>
<path stroke-width="1" stroke="black" d="M 183 211 151 147"/>
<path stroke-width="1" stroke="black" d="M 183 211 211 241"/>
<path stroke-width="1" stroke="black" d="M 183 211 292 227"/>
<path stroke-width="1" stroke="black" d="M 183 211 264 244"/>
<path stroke-width="1" stroke="black" d="M 183 211 317 161"/>
<path stroke-width="1" stroke="black" d="M 183 211 217 124"/>
<path stroke-width="1" stroke="black" d="M 183 211 322 191"/>
<path stroke-width="1" stroke="black" d="M 183 211 284 110"/>
<path stroke-width="1" stroke="black" d="M 183 211 318 139"/>
<path stroke-width="1" stroke="black" d="M 183 211 172 125"/>
<path stroke-width="1" stroke="black" d="M 155 274 186 231"/>
<path stroke-width="1" stroke="black" d="M 186 231 239 166"/>
<path stroke-width="1" stroke="black" d="M 186 231 316 103"/>
<path stroke-width="1" stroke="black" d="M 186 231 244 106"/>
<path stroke-width="1" stroke="black" d="M 183 211 156 171"/>
<path stroke-width="1" stroke="black" d="M 183 211 225 245"/>
<path stroke-width="1" stroke="black" d="M 183 211 260 81"/>
<path stroke-width="1" stroke="black" d="M 183 211 186 86"/>
<path stroke-width="1" stroke="black" d="M 224 69 264 244"/>
<path stroke-width="1" stroke="black" d="M 224 69 317 161"/>
<path stroke-width="1" stroke="black" d="M 224 69 322 191"/>
<path stroke-width="1" stroke="black" d="M 224 69 156 171"/>
<path stroke-width="1" stroke="black" d="M 224 69 284 110"/>
<path stroke-width="1" stroke="black" d="M 224 69 318 139"/>
<path stroke-width="1" stroke="black" d="M 224 69 172 125"/>
<path stroke-width="1" stroke="black" d="M 147 236 183 211"/>
<path stroke-width="1" stroke="black" d="M 183 211 239 166"/>
<path stroke-width="1" stroke="black" d="M 183 211 316 103"/>
<path stroke-width="1" stroke="black" d="M 183 211 244 106"/>
<path stroke-width="1" stroke="black" d="M 183 211 315 207"/>
<path stroke-width="1" stroke="black" d="M 183 211 224 69"/>
<path stroke-width="1" stroke="black" d="M 183 211 147 236"/>
<path stroke-width="1" stroke="black" d="M 183 211 186 231"/>
<path stroke-width="1" stroke="black" d="M 183 211 311 126"/>
<path stroke-width="1" stroke="black" d="M 183 211 152 192"/>
<path stroke-width="1" stroke="black" d="M 315 207 348 224"/>
<path stroke-width="1" stroke="black" d="M 315 207 244 106"/>
<path stroke-width="1" stroke="black" d="M 315 207 316 103"/>
<path stroke-width="1" stroke="black" d="M 315 207 239 166"/>
<path stroke-width="1" stroke="black" d="M 239 166 156 171"/>
<path stroke-width="1" stroke="black" d="M 239 166 284 110"/>
<path stroke-width="1" stroke="black" d="M 239 166 318 139"/>
<path stroke-width="1" stroke="black" d="M 239 166 172 125"/>
<path stroke-width="1" stroke="black" d="M 344 91 316 103"/>
<path stroke-width="1" stroke="black" d="M 316 103 239 166"/>
<path stroke-width="1" stroke="black" d="M 316 103 344 91"/>
<path stroke-width="1" stroke="black" d="M 239 166 322 191"/>
<path stroke-width="1" stroke="black" d="M 316 103 244 106"/>
<path stroke-width="1" stroke="black" d="M 316 103 224 69"/>
<path stroke-width="1" stroke="black" d="M 316 103 183 211"/>
<path stroke-width="1" stroke="black" d="M 316 103 186 231"/>
<path stroke-width="1" stroke="black" d="M 316 103 311 126"/>
<path stroke-width="1" stroke="black" d="M 316 103 152 192"/>
<path stroke-width="1" stroke="black" d="M 316 103 186 86"/>
<path stroke-width="1" stroke="black" d="M 316 103 260 81"/>
<path stroke-width="1" stroke="black" d="M 316 103 315 207"/>
<path stroke-width="1" stroke="black" d="M 239 166 317 161"/>
<path stroke-width="1" stroke="black" d="M 239 166 264 244"/>
<path stroke-width="1" stroke="black" d="M 239 166 292 227"/>
<path stroke-width="1" stroke="black" d="M 239 166 243 173"/>
<path stroke-width="1" stroke="black" d="M 239 166 316 103"/>
<path stroke-width="1" stroke="black" d="M 239 166 244 106"/>
<path stroke-width="1" stroke="black" d="M 239 166 315 207"/>
<path stroke-width="1" stroke="black" d="M 239 166 224 69"/>
<path stroke-width="1" stroke="black" d="M 239 166 183 211"/>
<path stroke-width="1" stroke="black" d="M 239 166 186 231"/>
<path stroke-width="1" stroke="black" d="M 239 166 311 126"/>
<path stroke-width="1" stroke="black" d="M 239 166 152 192"/>
<path stroke-width="1" stroke="black" d="M 239 166 186 86"/>
<path stroke-width="1" stroke="black" d="M 239 166 260 81"/>
<path stroke-width="1" stroke="black" d="M 239 166 225 245"/>
<path stroke-width="1" stroke="black" d="M 239 166 217 124"/>
<path stroke-width="1" stroke="black" d="M 239 166 165 108"/>
<path stroke-width="1" stroke="black" d="M 239 166 262 228"/>
<path stroke-width="1" stroke="black" d="M 239 166 151 147"/>
<path stroke-width="1" stroke="black" d="M 239 166 211 241"/>
<path stroke-width="1" stroke="black" d="M 316 103 225 245"/>
<path stroke-width="1" stroke="black" d="M 186 231 315 207"/>
<path stroke-width="1" stroke="black" d="M 316 103 217 124"/>
<path stroke-width="1" stroke="black" d="M 316 103 262 228"/>
<path stroke-width="1" stroke="black" d="M 244 106 260 81"/>
<path stroke-width="1" stroke="black" d="M 244 106 225 245"/>
<path stroke-width="1" stroke="black" d="M 244 106 217 124"/>
<path stroke-width="1" stroke="black" d="M 244 106 165 108"/>
<path stroke-width="1" stroke="black" d="M 244 106 262 228"/>
<path stroke-width="1" stroke="black" d="M 244 106 151 147"/>
<path stroke-width="1" stroke="black" d="M 244 106 211 241"/>
<path stroke-width="1" stroke="black" d="M 244 106 186 86"/>
<path stroke-width="1" stroke="black" d="M 244 106 292 227"/>
<path stroke-width="1" stroke="black" d="M 244 106 317 161"/>
<path stroke-width="1" stroke="black" d="M 244 106 322 191"/>
<path stroke-width="1" stroke="black" d="M 244 106 156 171"/>
<path stroke-width="1" stroke="black" d="M 244 106 284 110"/>
<path stroke-width="1" stroke="black" d="M 244 106 318 139"/>
<path stroke-width="1" stroke="black" d="M 244 106 172 125"/>
<path stroke-width="1" stroke="black" d="M 348 224 315 207"/>
<path stroke-width="1" stroke="black" d="M 244 106 264 244"/>
<path stroke-width="1" stroke="black" d="M 244 106 152 192"/>
<path stroke-width="1" stroke="black" d="M 244 106 311 126"/>
<path stroke-width="1" stroke="black" d="M 244 106 186 231"/>
<path stroke-width="1" stroke="black" d="M 316 103 151 147"/>
<path stroke-width="1" stroke="black" d="M 316 103 211 241"/>
<path stroke-width="1" stroke="black" d="M 316 103 292 227"/>
<path stroke-width="1" stroke="black" d="M 316 103 264 244"/>
<path stroke-width="1" stroke="black" d="M 316 103 317 161"/>
<path stroke-width="1" stroke="black" d="M 316 103 322 191"/>
<path stroke-width="1" stroke="black" d="M 316 103 156 171"/>
<path stroke-width="1" stroke="black" d="M 316 103 284 110"/>
<path stroke-width="1" stroke="black" d="M 316 103 318 139"/>
<path stroke-width="1" stroke="black" d="M 316 103 172 125"/>
<path stroke-width="1" stroke="black" d="M 260 46 244 106"/>
<path stroke-width="1" stroke="black" d="M 244 106 239 166"/>
<path stroke-width="1" stroke="black" d="M 244 106 316 103"/>
<path stroke-width="1" stroke="black" d="M 244 106 260 46"/>
<path stroke-width="1" stroke="black" d="M 244 106 315 207"/>
<path stroke-width="1" stroke="black" d="M 244 106 224 69"/>
<path stroke-width="1" stroke="black" d="M 244 106 183 211"/>
<path stroke-width="1" stroke="black" d="M 316 103 165 108"/>
<path stroke-width="1" stroke="black" d="M 172 125 318 139"/>
<path stroke-width="1" stroke="black" d="M 186 231 224 69"/>
<path stroke-width="1" stroke="black" d="M 186 231 155 274"/>
<path stroke-width="1" stroke="black" d="M 260 81 183 211"/>
<path stroke-width="1" stroke="black" d="M 260 81 186 231"/>
<path stroke-width="1" stroke="black" d="M 260 81 311 126"/>
<path stroke-width="1" stroke="black" d="M 260 81 152 192"/>
<path stroke-width="1" stroke="black" d="M 260 81 186 86"/>
<path stroke-width="1" stroke="black" d="M 260 81 282 42"/>
<path stroke-width="1" stroke="black" d="M 260 81 225 245"/>
<path stroke-width="1" stroke="black" d="M 260 81 224 69"/>
<path stroke-width="1" stroke="black" d="M 260 81 217 124"/>
<path stroke-width="1" stroke="black" d="M 260 81 262 228"/>
<path stroke-width="1" stroke="black" d="M 260 81 151 147"/>
<path stroke-width="1" stroke="black" d="M 260 81 211 241"/>
<path stroke-width="1" stroke="black" d="M 260 81 292 227"/>
<path stroke-width="1" stroke="black" d="M 260 81 264 244"/>
<path stroke-width="1" stroke="black" d="M 260 81 317 161"/>
<path stroke-width="1" stroke="black" d="M 260 81 322 191"/>
<path stroke-width="1" stroke="black" d="M 260 81 165 108"/>
<path stroke-width="1" stroke="black" d="M 260 81 156 171"/>
<path stroke-width="1" stroke="black" d="M 260 81 315 207"/>
<path stroke-width="1" stroke="black" d="M 260 81 316 103"/>
<path stroke-width="1" stroke="black" d="M 186 86 225 245"/>
<path stroke-width="1" stroke="black" d="M 186 86 217 124"/>
<path stroke-width="1" stroke="black" d="M 186 86 165 108"/>
<path stroke-width="1" stroke="black" d="M 186 86 262 228"/>
<path stroke-width="1" stroke="black" d="M 186 86 151 147"/>
<path stroke-width="1" stroke="black" d="M 186 86 211 241"/>
<path stroke-width="1" stroke="black" d="M 186 86 292 227"/>
<path stroke-width="1" stroke="black" d="M 260 81 244 106"/>
<path stroke-width="1" stroke="black" d="M 186 86 264 244"/>
<path stroke-width="1" stroke="black" d="M 186 86 322 191"/>
<path stroke-width="1" stroke="black" d="M 186 86 156 171"/>
<path stroke-width="1" stroke="black" d="M 186 86 284 110"/>
<path stroke-width="1" stroke="black" d="M 186 86 318 139"/>
<path stroke-width="1" stroke="black" d="M 186 86 172 125"/>
<path stroke-width="1" stroke="black" d="M 282 42 260 81"/>
<path stroke-width="1" stroke="black" d="M 260 81 239 166"/>
<path stroke-width="1" stroke="black" d="M 186 86 317 161"/>
<path stroke-width="1" stroke="black" d="M 260 81 284 110"/>
<path stroke-width="1" stroke="black" d="M 260 81 318 139"/>
<path stroke-width="1" stroke="black" d="M 260 81 172 125"/>
<path stroke-width="1" stroke="black" d="M 225 245 322 191"/>
<path stroke-width="1" stroke="black" d="M 225 245 156 171"/>
<path stroke-width="1" stroke="black" d="M 225 245 284 110"/>
<path stroke-width="1" stroke="black" d="M 225 245 318 139"/>
<path stroke-width="1" stroke="black" d="M 225 245 172 125"/>
<path stroke-width="1" stroke="black" d="M 193 77 217 124"/>
<path stroke-width="1" stroke="black" d="M 217 124 239 166"/>
<path stroke-width="1" stroke="black" d="M 225 245 317 161"/>
<path stroke-width="1" stroke="black" d="M 217 124 316 103"/>
<path stroke-width="1" stroke="black" d="M 217 124 315 207"/>
<path stroke-width="1" stroke="black" d="M 217 124 224 69"/>
<path stroke-width="1" stroke="black" d="M 217 124 183 211"/>
<path stroke-width="1" stroke="black" d="M 217 124 186 231"/>
<path stroke-width="1" stroke="black" d="M 217 124 311 126"/>
<path stroke-width="1" stroke="black" d="M 217 124 152 192"/>
<path stroke-width="1" stroke="black" d="M 217 124 186 86"/>
<path stroke-width="1" stroke="black" d="M 217 124 244 106"/>
<path stroke-width="1" stroke="black" d="M 225 245 264 244"/>
<path stroke-width="1" stroke="black" d="M 225 245 292 227"/>
<path stroke-width="1" stroke="black" d="M 225 245 211 241"/>
<path stroke-width="1" stroke="black" d="M 218 304 225 245"/>
<path stroke-width="1" stroke="black" d="M 225 245 239 166"/>
<path stroke-width="1" stroke="black" d="M 225 245 316 103"/>
<path stroke-width="1" stroke="black" d="M 225 245 244 106"/>
<path stroke-width="1" stroke="black" d="M 225 245 315 207"/>
<path stroke-width="1" stroke="black" d="M 225 245 224 69"/>
<path stroke-width="1" stroke="black" d="M 225 245 183 211"/>
<path stroke-width="1" stroke="black" d="M 225 245 186 231"/>
<path stroke-width="1" stroke="black" d="M 225 245 311 126"/>
<path stroke-width="1" stroke="black" d="M 225 245 152 192"/>
<path stroke-width="1" stroke="black" d="M 225 245 186 86"/>
<path stroke-width="1" stroke="black" d="M 225 245 260 81"/>
<path stroke-width="1" stroke="black" d="M 225 245 218 304"/>
<path stroke-width="1" stroke="black" d="M 225 245 217 124"/>
<path stroke-width="1" stroke="black" d="M 225 245 165 108"/>
<path stroke-width="1" stroke="black" d="M 225 245 262 228"/>
<path stroke-width="1" stroke="black" d="M 225 245 151 147"/>
<path stroke-width="1" stroke="black" d="M 186 86 260 81"/>
<path stroke-width="1" stroke="black" d="M 186 86 158 57"/>
<path stroke-width="1" stroke="black" d="M 186 86 152 192"/>
<path stroke-width="1" stroke="black" d="M 186 86 311 126"/>
<path stroke-width="1" stroke="black" d="M 311 126 244 106"/>
<path stroke-width="1" stroke="black" d="M 311 126 315 207"/>
<path stroke-width="1" stroke="black" d="M 311 126 224 69"/>
<path stroke-width="1" stroke="black" d="M 311 126 183 211"/>
<path stroke-width="1" stroke="black" d="M 311 126 186 231"/>
<path stroke-width="1" stroke="black" d="M 311 126 348 111"/>
<path stroke-width="1" stroke="black" d="M 311 126 152 192"/>
<path stroke-width="1" stroke="black" d="M 311 126 316 103"/>
<path stroke-width="1" stroke="black" d="M 311 126 186 86"/>
<path stroke-width="1" stroke="black" d="M 311 126 225 245"/>
<path stroke-width="1" stroke="black" d="M 311 126 217 124"/>
<path stroke-width="1" stroke="black" d="M 311 126 165 108"/>
<path stroke-width="1" stroke="black" d="M 311 126 262 228"/>
<path stroke-width="1" stroke="black" d="M 311 126 151 147"/>
<path stroke-width="1" stroke="black" d="M 311 126 211 241"/>
<path stroke-width="1" stroke="black" d="M 311 126 292 227"/>
<path stroke-width="1" stroke="black" d="M 311 126 260 81"/>
<path stroke-width="1" stroke="black" d="M 311 126 239 166"/>
<path stroke-width="1" stroke="black" d="M 348 111 311 126"/>
<path stroke-width="1" stroke="black" d="M 186 231 172 125"/>
<path stroke-width="1" stroke="black" d="M 186 231 311 126"/>
<path stroke-width="1" stroke="black" d="M 186 231 152 192"/>
<path stroke-width="1" stroke="black" d="M 186 231 186 86"/>
<path stroke-width="1" stroke="black" d="M 186 231 260 81"/>
<path stroke-width="1" stroke="black" d="M 186 231 225 245"/>
<path stroke-width="1" stroke="black" d="M 186 231 217 124"/>
<path stroke-width="1" stroke="black" d="M 186 231 165 108"/>
<path stroke-width="1" stroke="black" d="M 186 231 262 228"/>
<path stroke-width="1" stroke="black" d="M 186 231 151 147"/>
<path stroke-width="1" stroke="black" d="M 186 231 211 241"/>
<path stroke-width="1" stroke="black" d="M 186 231 292 227"/>
<path stroke-width="1" stroke="black" d="M 186 231 264 244"/>
<path stroke-width="1" stroke="black" d="M 186 231 317 161"/>
<path stroke-width="1" stroke="black" d="M 186 231 322 191"/>
<path stroke-width="1" stroke="black" d="M 186 231 156 171"/>
<path stroke-width="1" stroke="black" d="M 186 231 284 110"/>
<path stroke-width="1" stroke="black" d="M 186 231 318 139"/>
<path stroke-width="1" stroke="black" d="M 311 126 264 244"/>
<path stroke-width="1" stroke="black" d="M 186 231 183 211"/>
<path stroke-width="1" stroke="black" d="M 311 126 317 161"/>
<path stroke-width="1" stroke="black" d="M 311 126 156 171"/>
<path stroke-width="1" stroke="black" d="M 152 192 292 227"/>
<path stroke-width="1" stroke="black" d="M 152 192 264 244"/>
<path stroke-width="1" stroke="black" d="M 152 192 317 161"/>
<path stroke-width="1" stroke="black" d="M 152 192 322 191"/>
<path stroke-width="1" stroke="black" d="M 152 192 156 171"/>
<path stroke-width="1" stroke="black" d="M 152 192 284 110"/>
<path stroke-width="1" stroke="black" d="M 152 192 318 139"/>
<path stroke-width="1" stroke="black" d="M 152 192 211 241"/>
<path stroke-width="1" stroke="black" d="M 152 192 172 125"/>
<path stroke-width="1" stroke="black" d="M 186 86 239 166"/>
<path stroke-width="1" stroke="black" d="M 186 86 316 103"/>
<path stroke-width="1" stroke="black" d="M 186 86 244 106"/>
<path stroke-width="1" stroke="black" d="M 186 86 315 207"/>
<path stroke-width="1" stroke="black" d="M 186 86 224 69"/>
<path stroke-width="1" stroke="black" d="M 186 86 183 211"/>
<path stroke-width="1" stroke="black" d="M 186 86 186 231"/>
<path stroke-width="1" stroke="black" d="M 158 57 186 86"/>
<path stroke-width="1" stroke="black" d="M 152 192 151 147"/>
<path stroke-width="1" stroke="black" d="M 152 192 262 228"/>
<path stroke-width="1" stroke="black" d="M 152 192 165 108"/>
<path stroke-width="1" stroke="black" d="M 311 126 284 110"/>
<path stroke-width="1" stroke="black" d="M 311 126 318 139"/>
<path stroke-width="1" stroke="black" d="M 311 126 172 125"/>
<path stroke-width="1" stroke="black" d="M 112 201 152 192"/>
<path stroke-width="1" stroke="black" d="M 152 192 239 166"/>
<path stroke-width="1" stroke="black" d="M 152 192 316 103"/>
<path stroke-width="1" stroke="black" d="M 152 192 244 106"/>
<path stroke-width="1" stroke="black" d="M 152 192 315 207"/>
<path stroke-width="1" stroke="black" d="M 152 192 224 69"/>
<path stroke-width="1" stroke="black" d="M 152 192 183 211"/>
<path stroke-width="1" stroke="black" d="M 152 192 186 231"/>
<path stroke-width="1" stroke="black" d="M 152 192 311 126"/>
<path stroke-width="1" stroke="black" d="M 152 192 112 201"/>
<path stroke-width="1" stroke="black" d="M 152 192 186 86"/>
<path stroke-width="1" stroke="black" d="M 152 192 260 81"/>
<path stroke-width="1" stroke="black" d="M 152 192 225 245"/>
<path stroke-width="1" stroke="black" d="M 152 192 217 124"/>
<path stroke-width="1" stroke="black" d="M 311 126 322 191"/>
<path stroke-width="1" stroke="black" d="M 172 125 20 21"/>
<circle cx="243" cy="173" r="7.0" style="fill:gray;stroke:black;stroke-width:1.0"/>
<circle cx="239" cy="166" r="7.0" style="fill:gray;stroke:black;stroke-width:1.0"/>
<circle cx="344" cy="91" r="7.0" style="fill:gray;stroke:black;stroke-width:1.0"/>
<circle cx="316" cy="103" r="7.0" style="fill:gray;stroke:black;stroke-width:1.0"/>
<circle cx="260" cy="46" r="7.0" style="fill:gray;stroke:black;stroke-width:1.0"/>
<circle cx="244" cy="106" r="7.0" style="fill:gray;stroke:black;stroke-width:1.0"/>
<circle cx="348" cy="224" r="7.0" style="fill:gray;stroke:black;stroke-width:1.0"/>
<circle cx="315" cy="207" r="7.0" style="fill:gray;stroke:black;stroke-width:1.0"/>
<circle cx="213" cy="20" r="7.0" style="fill:gray;stroke:black;stroke-width:1.0"/>
<circle cx="224" cy="69" r="7.0" style="fill:gray;stroke:black;stroke-width:1.0"/>
<circle cx="147" cy="236" r="7.0" style="fill:gray;stroke:black;stroke-width:1.0"/>
<circle cx="183" cy="211" r="7.0" style="fill:gray;stroke:black;stroke-width:1.0"/>
<circle cx="155" cy="274" r="7.0" style="fill:gray;stroke:black;stroke-width:1.0"/>
<circle cx="186" cy="231" r="7.0" style="fill:gray;stroke:black;stroke-width:1.0"/>
<circle cx="348" cy="111" r="7.0" style="fill:gray;stroke:black;stroke-width:1.0"/>
<circle cx="311" cy="126" r="7.0" style="fill:gray;stroke:black;stroke-width:1.0"/>
<circle cx="112" cy="201" r="7.0" style="fill:gray;stroke:black;stroke-width:1.0"/>
<circle cx="152" cy="192" r="7.0" style="fill:gray;stroke:black;stroke-width:1.0"/>
<circle cx="158" cy="57" r="7.0" style="fill:gray;stroke:black;stroke-width:1.0"/>
<circle cx="186" cy="86" r="7.0" style="fill:gray;stroke:black;stroke-width:1.0"/>
<circle cx="282" cy="42" r="7.0" style="fill:gray;stroke:black;stroke-width:1.0"/>
<circle cx="260" cy="81" r="7.0" style="fill:gray;stroke:black;stroke-width:1.0"/>
<circle cx="218" cy="304" r="7.0" style="fill:gray;stroke:black;stroke-width:1.0"/>
<circle cx="225" cy="245" r="7.0" style="fill:gray;stroke:black;stroke-width:1.0"/>
<circle cx="193" cy="77" r="7.0" style="fill:gray;stroke:black;stroke-width:1.0"/>
<circle cx="217" cy="124" r="7.0" style="fill:gray;stroke:black;stroke-width:1.0"/>
<circle cx="119" cy="79" r="7.0" style="fill:gray;stroke:black;stroke-width:1.0"/>
<circle cx="165" cy="108" r="7.0" style="fill:gray;stroke:black;stroke-width:1.0"/>
<circle cx="282" cy="289" r="7.0" style="fill:gray;stroke:black;stroke-width:1.0"/>
<circle cx="262" cy="228" r="7.0" style="fill:gray;stroke:black;stroke-width:1.0"/>
<circle cx="91" cy="133" r="7.0" style="fill:gray;stroke:black;stroke-width:1.0"/>
<circle cx="151" cy="147" r="7.0" style="fill:gray;stroke:black;stroke-width:1.0"/>
<circle cx="181" cy="305" r="7.0" style="fill:gray;stroke:black;stroke-width:1.0"/>
<circle cx="211" cy="241" r="7.0" style="fill:gray;stroke:black;stroke-width:1.0"/>
<circle cx="343" cy="280" r="7.0" style="fill:gray;stroke:black;stroke-width:1.0"/>
<circle cx="292" cy="227" r="7.0" style="fill:gray;stroke:black;stroke-width:1.0"/>
<circle cx="290" cy="320" r="7.0" style="fill:gray;stroke:black;stroke-width:1.0"/>
<circle cx="264" cy="244" r="7.0" style="fill:gray;stroke:black;stroke-width:1.0"/>
<circle cx="393" cy="167" r="7.0" style="fill:gray;stroke:black;stroke-width:1.0"/>
<circle cx="317" cy="161" r="7.0" style="fill:gray;stroke:black;stroke-width:1.0"/>
<circle cx="404" cy="222" r="7.0" style="fill:gray;stroke:black;stroke-width:1.0"/>
<circle cx="322" cy="191" r="7.0" style="fill:gray;stroke:black;stroke-width:1.0"/>
<circle cx="67" cy="190" r="7.0" style="fill:gray;stroke:black;stroke-width:1.0"/>
<circle cx="156" cy="171" r="7.0" style="fill:gray;stroke:black;stroke-width:1.0"/>
<circle cx="352" cy="36" r="7.0" style="fill:gray;stroke:black;stroke-width:1.0"/>
<circle cx="284" cy="110" r="7.0" style="fill:gray;stroke:black;stroke-width:1.0"/>
<circle cx="420" cy="99" r="7.0" style="fill:gray;stroke:black;stroke-width:1.0"/>
<circle cx="318" cy="139" r="7.0" style="fill:gray;stroke:black;stroke-width:1.0"/>
<circle cx="20" cy="21" r="7.0" style="fill:gray;stroke:black;stroke-width:1.0"/>
<circle cx="172" cy="125" r="7.0" style="fill:gray;stroke:black;stroke-width:1.0"/>
</svg>
