<svg width="440" height="340" xmlns="http://www.w3.org/2000/svg">
<path stroke-width="1" stroke="black" d="M 72 135 99 135"/>
<path stroke-width="1" stroke="black" d="M 69 106 75 180"/>
<path stroke-width="1" stroke="black" d="M 69 106 90 191"/>
<path stroke-width="1" stroke="black" d="M 69 106 179 172"/>
<path stroke-width="1" stroke="black" d="M 69 106 91 77"/>
<path stroke-width="1" stroke="black" d="M 69 106 98 67"/>
<path stroke-width="1" stroke="black" d="M 69 106 20 85"/>
<path stroke-width="1" stroke="black" d="M 69 106 117 221"/>
<path stroke-width="1" stroke="black" d="M 69 106 160 216"/>
<path stroke-width="1" stroke="black" d="M 69 106 87 209"/>
<path stroke-width="1" stroke="black" d="M 69 106 192 124"/>
<path stroke-width="1" stroke="black" d="M 69 106 184 196"/>
<path stroke-width="1" stroke="black" d="M 69 106 134 218"/>
<path stroke-width="1" stroke="black" d="M 69 106 183 102"/>
<path stroke-width="1" stroke="black" d="M 69 106 220 139"/>
<path stroke-width="1" stroke="black" d="M 98 286 117 221"/>
<path stroke-width="1" stroke="black" d="M 117 221 99 135"/>
<path stroke-width="1" stroke="black" d="M 69 106 136 198"/>
<path stroke-width="1" stroke="black" d="M 117 221 185 135"/>
<path stroke-width="1" stroke="black" d="M 69 106 160 79"/>
<path stroke-width="1" stroke="black" d="M 69 106 76 133"/>
<path stroke-width="1" stroke="black" d="M 98 67 117 221"/>
<path stroke-width="1" stroke="black" d="M 98 67 87 209"/>
<path stroke-width="1" stroke="black" d="M 98 67 136 198"/>
<path stroke-width="1" stroke="black" d="M 98 67 192 124"/>
<path stroke-width="1" stroke="black" d="M 98 67 184 196"/>
<path stroke-width="1" stroke="black" d="M 98 67 134 218"/>
<path stroke-width="1" stroke="black" d="M 98 67 183 102"/>
<path stroke-width="1" stroke="black" d="M 69 106 72 138"/>
<path stroke-width="1" stroke="black" d="M 98 67 220 139"/>
<path stroke-width="1" stroke="black" d="M 69 106 99 135"/>
<path stroke-width="1" stroke="black" d="M 69 106 185 135"/>
<path stroke-width="1" stroke="black" d="M 69 106 177 177"/>
<path stroke-width="1" stroke="black" d="M 69 106 150 68"/>
<path stroke-width="1" stroke="black" d="M 69 106 146 113"/>
<path stroke-width="1" stroke="black" d="M 69 106 115 189"/>
<path stroke-width="1" stroke="black" d="M 69 106 107 95"/>
<path stroke-width="1" stroke="black" d="M 20 85 69 106"/>
<path stroke-width="1" stroke="black" d="M 117 221 177 177"/>
<path stroke-width="1" stroke="black" d="M 117 221 150 68"/>
<path stroke-width="1" stroke="black" d="M 117 221 146 113"/>
<path stroke-width="1" stroke="black" d="M 87 209 99 135"/>
<path stroke-width="1" stroke="black" d="M 87 209 185 135"/>
<path stroke-width="1" stroke="black" d="M 87 209 177 177"/>
<path stroke-width="1" stroke="black" d="M 87 209 150 68"/>
<path stroke-width="1" stroke="black" d="M 87 209 146 113"/>
<path stroke-width="1" stroke="black" d="M 87 209 115 189"/>
<path stroke-width="1" stroke="black" d="M 87 209 107 95"/>
<path stroke-width="1" stroke="black" d="M 42 255 87 209"/>
<path stroke-width="1" stroke="black" d="M 87 209 76 133"/>
<path stroke-width="1" stroke="black" d="M 87 209 160 79"/>
<path stroke-width="1" stroke="black" d="M 87 209 160 216"/>
<path stroke-width="1" stroke="black" d="M 87 209 75 180"/>
<path stroke-width="1" stroke="black" d="M 87 209 90 191"/>
<path stroke-width="1" stroke="black" d="M 87 209 179 172"/>
<path stroke-width="1" stroke="black" d="M 87 209 91 77"/>
<path stroke-width="1" stroke="black" d="M 87 209 98 67"/>
<path stroke-width="1" stroke="black" d="M 87 209 72 138"/>
<path stroke-width="1" stroke="black" d="M 117 221 220 139"/>
<path stroke-width="1" stroke="black" d="M 117 221 183 102"/>
<path stroke-width="1" stroke="black" d="M 117 221 134 218"/>
<path stroke-width="1" stroke="black" d="M 117 221 115 189"/>
<path stroke-width="1" stroke="black" d="M 117 221 107 95"/>
<path stroke-width="1" stroke="black" d="M 117 221 76 133"/>
<path stroke-width="1" stroke="black" d="M 117 221 72 138"/>
<path stroke-width="1" stroke="black" d="M 117 221 160 79"/>
<path stroke-width="1" stroke="black" d="M 117 221 160 216"/>
<path stroke-width="1" stroke="black" d="M 117 221 75 180"/>
<path stroke-width="1" stroke="black" d="M 117 221 90 191"/>
<path stroke-width="1" stroke="black" d="M 117 221 179 172"/>
<path stroke-width="1" stroke="black" d="M 117 221 91 77"/>
<path stroke-width="1" stroke="black" d="M 117 221 98 67"/>
<path stroke-width="1" stroke="black" d="M 117 221 69 106"/>
<path stroke-width="1" stroke="black" d="M 117 221 98 286"/>
<path stroke-width="1" stroke="black" d="M 117 221 87 209"/>
<path stroke-width="1" stroke="black" d="M 117 221 136 198"/>
<path stroke-width="1" stroke="black" d="M 117 221 192 124"/>
<path stroke-width="1" stroke="black" d="M 117 221 184 196"/>
<path stroke-width="1" stroke="black" d="M 98 67 69 106"/>
<path stroke-width="1" stroke="black" d="M 87 209 69 106"/>
<path stroke-width="1" stroke="black" d="M 98 67 66 20"/>
<path stroke-width="1" stroke="black" d="M 98 67 179 172"/>
<path stroke-width="1" stroke="black" d="M 179 172 72 138"/>
<path stroke-width="1" stroke="black" d="M 179 172 160 79"/>
<path stroke-width="1" stroke="black" d="M 179 172 160 216"/>
<path stroke-width="1" stroke="black" d="M 179 172 75 180"/>
<path stroke-width="1" stroke="black" d="M 179 172 90 191"/>
<path stroke-width="1" stroke="black" d="M 179 172 216 192"/>
<path stroke-width="1" stroke="black" d="M 179 172 91 77"/>
<path stroke-width="1" stroke="black" d="M 179 172 76 133"/>
<path stroke-width="1" stroke="black" d="M 179 172 98 67"/>
<path stroke-width="1" stroke="black" d="M 179 172 117 221"/>
<path stroke-width="1" stroke="black" d="M 179 172 87 209"/>
<path stroke-width="1" stroke="black" d="M 179 172 136 198"/>
<path stroke-width="1" stroke="black" d="M 179 172 192 124"/>
<path stroke-width="1" stroke="black" d="M 179 172 184 196"/>
<path stroke-width="1" stroke="black" d="M 179 172 134 218"/>
<path stroke-width="1" stroke="black" d="M 179 172 183 102"/>
<path stroke-width="1" stroke="black" d="M 179 172 69 106"/>
<path stroke-width="1" stroke="black" d="M 179 172 220 139"/>
<path stroke-width="1" stroke="black" d="M 179 172 107 95"/>
<path stroke-width="1" stroke="black" d="M 179 172 146 113"/>
<path stroke-width="1" stroke="black" d="M 90 191 91 77"/>
<path stroke-width="1" stroke="black" d="M 90 191 98 67"/>
<path stroke-width="1" stroke="black" d="M 90 191 69 106"/>
<path stroke-width="1" stroke="black" d="M 90 191 117 221"/>
<path stroke-width="1" stroke="black" d="M 90 191 87 209"/>
<path stroke-width="1" stroke="black" d="M 90 191 136 198"/>
<path stroke-width="1" stroke="black" d="M 90 191 192 124"/>
<path stroke-width="1" stroke="black" d="M 179 172 115 189"/>
<path stroke-width="1" stroke="black" d="M 90 191 184 196"/>
<path stroke-width="1" stroke="black" d="M 90 191 183 102"/>
<path stroke-width="1" stroke="black" d="M 90 191 220 139"/>
<path stroke-width="1" stroke="black" d="M 216 192 179 172"/>
<path stroke-width="1" stroke="black" d="M 179 172 99 135"/>
<path stroke-width="1" stroke="black" d="M 179 172 185 135"/>
<path stroke-width="1" stroke="black" d="M 179 172 177 177"/>
<path stroke-width="1" stroke="black" d="M 179 172 150 68"/>
<path stroke-width="1" stroke="black" d="M 90 191 134 218"/>
<path stroke-width="1" stroke="black" d="M 54 41 91 77"/>
<path stroke-width="1" stroke="black" d="M 91 77 99 135"/>
<path stroke-width="1" stroke="black" d="M 91 77 185 135"/>
<path stroke-width="1" stroke="black" d="M 91 77 183 102"/>
<path stroke-width="1" stroke="black" d="M 91 77 220 139"/>
<path stroke-width="1" stroke="black" d="M 66 20 98 67"/>
<path stroke-width="1" stroke="black" d="M 98 67 99 135"/>
<path stroke-width="1" stroke="black" d="M 98 67 185 135"/>
<path stroke-width="1" stroke="black" d="M 98 67 177 177"/>
<path stroke-width="1" stroke="black" d="M 98 67 150 68"/>
<path stroke-width="1" stroke="black" d="M 91 77 134 218"/>
<path stroke-width="1" stroke="black" d="M 98 67 146 113"/>
<path stroke-width="1" stroke="black" d="M 98 67 107 95"/>
<path stroke-width="1" stroke="black" d="M 98 67 76 133"/>
<path stroke-width="1" stroke="black" d="M 98 67 72 138"/>
<path stroke-width="1" stroke="black" d="M 98 67 160 79"/>
<path stroke-width="1" stroke="black" d="M 98 67 160 216"/>
<path stroke-width="1" stroke="black" d="M 98 67 75 180"/>
<path stroke-width="1" stroke="black" d="M 98 67 90 191"/>
<path stroke-width="1" stroke="black" d="M 98 67 115 189"/>
<path stroke-width="1" stroke="black" d="M 91 77 184 196"/>
<path stroke-width="1" stroke="black" d="M 91 77 192 124"/>
<path stroke-width="1" stroke="black" d="M 91 77 136 198"/>
<path stroke-width="1" stroke="black" d="M 91 77 177 177"/>
<path stroke-width="1" stroke="black" d="M 91 77 150 68"/>
<path stroke-width="1" stroke="black" d="M 91 77 146 113"/>
<path stroke-width="1" stroke="black" d="M 91 77 115 189"/>
<path stroke-width="1" stroke="black" d="M 91 77 107 95"/>
<path stroke-width="1" stroke="black" d="M 91 77 76 133"/>
<path stroke-width="1" stroke="black" d="M 91 77 72 138"/>
<path stroke-width="1" stroke="black" d="M 91 77 160 79"/>
<path stroke-width="1" stroke="black" d="M 91 77 160 216"/>
<path stroke-width="1" stroke="black" d="M 91 77 75 180"/>
<path stroke-width="1" stroke="black" d="M 91 77 90 191"/>
<path stroke-width="1" stroke="black" d="M 91 77 179 172"/>
<path stroke-width="1" stroke="black" d="M 91 77 54 41"/>
<path stroke-width="1" stroke="black" d="M 91 77 98 67"/>
<path stroke-width="1" stroke="black" d="M 91 77 69 106"/>
<path stroke-width="1" stroke="black" d="M 91 77 117 221"/>
<path stroke-width="1" stroke="black" d="M 91 77 87 209"/>
<path stroke-width="1" stroke="black" d="M 98 67 91 77"/>
<path stroke-width="1" stroke="black" d="M 87 209 117 221"/>
<path stroke-width="1" stroke="black" d="M 87 209 42 255"/>
<path stroke-width="1" stroke="black" d="M 87 209 136 198"/>
<path stroke-width="1" stroke="black" d="M 134 218 87 209"/>
<path stroke-width="1" stroke="black" d="M 134 218 136 198"/>
<path stroke-width="1" stroke="black" d="M 134 218 192 124"/>
<path stroke-width="1" stroke="black" d="M 134 218 184 196"/>
<path stroke-width="1" stroke="black" d="M 134 218 122 320"/>
<path stroke-width="1" stroke="black" d="M 134 218 183 102"/>
<path stroke-width="1" stroke="black" d="M 134 218 220 139"/>
<path stroke-width="1" stroke="black" d="M 134 218 117 221"/>
<path stroke-width="1" stroke="black" d="M 261 62 183 102"/>
<path stroke-width="1" stroke="black" d="M 183 102 185 135"/>
<path stroke-width="1" stroke="black" d="M 183 102 177 177"/>
<path stroke-width="1" stroke="black" d="M 183 102 150 68"/>
<path stroke-width="1" stroke="black" d="M 183 102 146 113"/>
<path stroke-width="1" stroke="black" d="M 183 102 115 189"/>
<path stroke-width="1" stroke="black" d="M 183 102 107 95"/>
<path stroke-width="1" stroke="black" d="M 183 102 76 133"/>
<path stroke-width="1" stroke="black" d="M 183 102 99 135"/>
<path stroke-width="1" stroke="black" d="M 183 102 72 138"/>
<path stroke-width="1" stroke="black" d="M 134 218 69 106"/>
<path stroke-width="1" stroke="black" d="M 134 218 91 77"/>
<path stroke-width="1" stroke="black" d="M 184 196 220 139"/>
<path stroke-width="1" stroke="black" d="M 122 320 134 218"/>
<path stroke-width="1" stroke="black" d="M 134 218 99 135"/>
<path stroke-width="1" stroke="black" d="M 134 218 185 135"/>
<path stroke-width="1" stroke="black" d="M 134 218 177 177"/>
<path stroke-width="1" stroke="black" d="M 134 218 150 68"/>
<path stroke-width="1" stroke="black" d="M 134 218 146 113"/>
<path stroke-width="1" stroke="black" d="M 134 218 98 67"/>
<path stroke-width="1" stroke="black" d="M 134 218 115 189"/>
<path stroke-width="1" stroke="black" d="M 134 218 76 133"/>
<path stroke-width="1" stroke="black" d="M 134 218 72 138"/>
<path stroke-width="1" stroke="black" d="M 134 218 160 79"/>
<path stroke-width="1" stroke="black" d="M 134 218 160 216"/>
<path stroke-width="1" stroke="black" d="M 134 218 75 180"/>
<path stroke-width="1" stroke="black" d="M 134 218 90 191"/>
<path stroke-width="1" stroke="black" d="M 134 218 179 172"/>
<path stroke-width="1" stroke="black" d="M 134 218 107 95"/>
<path stroke-width="1" stroke="black" d="M 183 102 160 79"/>
<path stroke-width="1" stroke="black" d="M 183 102 160 216"/>
<path stroke-width="1" stroke="black" d="M 183 102 75 180"/>
<path stroke-width="1" stroke="black" d="M 220 139 76 133"/>
<path stroke-width="1" stroke="black" d="M 220 139 72 138"/>
<path stroke-width="1" stroke="black" d="M 220 139 160 79"/>
<path stroke-width="1" stroke="black" d="M 220 139 160 216"/>
<path stroke-width="1" stroke="black" d="M 220 139 75 180"/>
<path stroke-width="1" stroke="black" d="M 220 139 90 191"/>
<path stroke-width="1" stroke="black" d="M 220 139 179 172"/>
<path stroke-width="1" stroke="black" d="M 220 139 107 95"/>
<path stroke-width="1" stroke="black" d="M 220 139 91 77"/>
<path stroke-width="1" stroke="black" d="M 220 139 69 106"/>
<path stroke-width="1" stroke="black" d="M 220 139 117 221"/>
<path stroke-width="1" stroke="black" d="M 220 139 87 209"/>
<path stroke-width="1" stroke="black" d="M 220 139 136 198"/>
<path stroke-width="1" stroke="black" d="M 220 139 192 124"/>
<path stroke-width="1" stroke="black" d="M 220 139 184 196"/>
<path stroke-width="1" stroke="black" d="M 220 139 134 218"/>
<path stroke-width="1" stroke="black" d="M 220 139 98 67"/>
<path stroke-width="1" stroke="black" d="M 220 139 115 189"/>
<path stroke-width="1" stroke="black" d="M 220 139 146 113"/>
<path stroke-width="1" stroke="black" d="M 220 139 150 68"/>
<path stroke-width="1" stroke="black" d="M 183 102 90 191"/>
<path stroke-width="1" stroke="black" d="M 183 102 179 172"/>
<path stroke-width="1" stroke="black" d="M 183 102 91 77"/>
<path stroke-width="1" stroke="black" d="M 183 102 98 67"/>
<path stroke-width="1" stroke="black" d="M 183 102 69 106"/>
<path stroke-width="1" stroke="black" d="M 183 102 117 221"/>
<path stroke-width="1" stroke="black" d="M 183 102 87 209"/>
<path stroke-width="1" stroke="black" d="M 183 102 136 198"/>
<path stroke-width="1" stroke="black" d="M 183 102 192 124"/>
<path stroke-width="1" stroke="black" d="M 183 102 184 196"/>
<path stroke-width="1" stroke="black" d="M 183 102 134 218"/>
<path stroke-width="1" stroke="black" d="M 183 102 261 62"/>
<path stroke-width="1" stroke="black" d="M 183 102 220 139"/>
<path stroke-width="1" stroke="black" d="M 420 132 220 139"/>
<path stroke-width="1" stroke="black" d="M 220 139 99 135"/>
<path stroke-width="1" stroke="black" d="M 220 139 185 135"/>
<path stroke-width="1" stroke="black" d="M 220 139 177 177"/>
<path stroke-width="1" stroke="black" d="M 184 196 183 102"/>
<path stroke-width="1" stroke="black" d="M 184 196 134 218"/>
<path stroke-width="1" stroke="black" d="M 184 196 246 234"/>
<path stroke-width="1" stroke="black" d="M 184 196 192 124"/>
<path stroke-width="1" stroke="black" d="M 136 198 98 67"/>
<path stroke-width="1" stroke="black" d="M 136 198 69 106"/>
<path stroke-width="1" stroke="black" d="M 136 198 117 221"/>
<path stroke-width="1" stroke="black" d="M 136 198 87 209"/>
<path stroke-width="1" stroke="black" d="M 136 198 131 272"/>
<path stroke-width="1" stroke="black" d="M 136 198 192 124"/>
<path stroke-width="1" stroke="black" d="M 136 198 184 196"/>
<path stroke-width="1" stroke="black" d="M 136 198 91 77"/>
<path stroke-width="1" stroke="black" d="M 136 198 134 218"/>
<path stroke-width="1" stroke="black" d="M 136 198 220 139"/>
<path stroke-width="1" stroke="black" d="M 255 113 192 124"/>
<path stroke-width="1" stroke="black" d="M 192 124 99 135"/>
<path stroke-width="1" stroke="black" d="M 192 124 185 135"/>
<path stroke-width="1" stroke="black" d="M 192 124 177 177"/>
<path stroke-width="1" stroke="black" d="M 192 124 150 68"/>
<path stroke-width="1" stroke="black" d="M 192 124 146 113"/>
<path stroke-width="1" stroke="black" d="M 136 198 183 102"/>
<path stroke-width="1" stroke="black" d="M 136 198 179 172"/>
<path stroke-width="1" stroke="black" d="M 136 198 90 191"/>
<path stroke-width="1" stroke="black" d="M 136 198 75 180"/>
<path stroke-width="1" stroke="black" d="M 87 209 192 124"/>
<path stroke-width="1" stroke="black" d="M 87 209 184 196"/>
<path stroke-width="1" stroke="black" d="M 87 209 134 218"/>
<path stroke-width="1" stroke="black" d="M 87 209 183 102"/>
<path stroke-width="1" stroke="black" d="M 87 209 220 139"/>
<path stroke-width="1" stroke="black" d="M 131 272 136 198"/>
<path stroke-width="1" stroke="black" d="M 136 198 99 135"/>
<path stroke-width="1" stroke="black" d="M 136 198 185 135"/>
<path stroke-width="1" stroke="black" d="M 136 198 177 177"/>
<path stroke-width="1" stroke="black" d="M 136 198 150 68"/>
<path stroke-width="1" stroke="black" d="M 136 198 146 113"/>
<path stroke-width="1" stroke="black" d="M 136 198 115 189"/>
<path stroke-width="1" stroke="black" d="M 136 198 107 95"/>
<path stroke-width="1" stroke="black" d="M 136 198 76 133"/>
<path stroke-width="1" stroke="black" d="M 136 198 72 138"/>
<path stroke-width="1" stroke="black" d="M 136 198 160 79"/>
<path stroke-width="1" stroke="black" d="M 136 198 160 216"/>
<path stroke-width="1" stroke="black" d="M 192 124 115 189"/>
<path stroke-width="1" stroke="black" d="M 90 191 179 172"/>
<path stroke-width="1" stroke="black" d="M 192 124 107 95"/>
<path stroke-width="1" stroke="black" d="M 192 124 72 138"/>
<path stroke-width="1" stroke="black" d="M 184 196 146 113"/>
<path stroke-width="1" stroke="black" d="M 184 196 115 189"/>
<path stroke-width="1" stroke="black" d="M 184 196 107 95"/>
<path stroke-width="1" stroke="black" d="M 184 196 76 133"/>
<path stroke-width="1" stroke="black" d="M 184 196 72 138"/>
<path stroke-width="1" stroke="black" d="M 184 196 160 79"/>
<path stroke-width="1" stroke="black" d="M 184 196 160 216"/>
<path stroke-width="1" stroke="black" d="M 184 196 150 68"/>
<path stroke-width="1" stroke="black" d="M 184 196 75 180"/>
<path stroke-width="1" stroke="black" d="M 184 196 179 172"/>
<path stroke-width="1" stroke="black" d="M 184 196 91 77"/>
<path stroke-width="1" stroke="black" d="M 184 196 98 67"/>
<path stroke-width="1" stroke="black" d="M 184 196 69 106"/>
<path stroke-width="1" stroke="black" d="M 184 196 117 221"/>
<path stroke-width="1" stroke="black" d="M 184 196 87 209"/>
<path stroke-width="1" stroke="black" d="M 184 196 136 198"/>
<path stroke-width="1" stroke="black" d="M 184 196 90 191"/>
<path stroke-width="1" stroke="black" d="M 184 196 177 177"/>
<path stroke-width="1" stroke="black" d="M 184 196 185 135"/>
<path stroke-width="1" stroke="black" d="M 184 196 99 135"/>
<path stroke-width="1" stroke="black" d="M 192 124 160 79"/>
<path stroke-width="1" stroke="black" d="M 192 124 160 216"/>
<path stroke-width="1" stroke="black" d="M 192 124 75 180"/>
<path stroke-width="1" stroke="black" d="M 192 124 90 191"/>
<path stroke-width="1" stroke="black" d="M 192 124 179 172"/>
<path stroke-width="1" stroke="black" d="M 192 124 91 77"/>
<path stroke-width="1" stroke="black" d="M 192 124 98 67"/>
<path stroke-width="1" stroke="black" d="M 192 124 69 106"/>
<path stroke-width="1" stroke="black" d="M 192 124 117 221"/>
<path stroke-width="1" stroke="black" d="M 192 124 87 209"/>
<path stroke-width="1" stroke="black" d="M 192 124 136 198"/>
<path stroke-width="1" stroke="black" d="M 192 124 255 113"/>
<path stroke-width="1" stroke="black" d="M 192 124 184 196"/>
<path stroke-width="1" stroke="black" d="M 192 124 134 218"/>
<path stroke-width="1" stroke="black" d="M 192 124 183 102"/>
<path stroke-width="1" stroke="black" d="M 192 124 220 139"/>
<path stroke-width="1" stroke="black" d="M 246 234 184 196"/>
<path stroke-width="1" stroke="black" d="M 192 124 76 133"/>
<path stroke-width="1" stroke="black" d="M 90 191 58 221"/>
<path stroke-width="1" stroke="black" d="M 90 191 75 180"/>
<path stroke-width="1" stroke="black" d="M 90 191 160 216"/>
<path stroke-width="1" stroke="black" d="M 150 68 220 139"/>
<path stroke-width="1" stroke="black" d="M 166 102 146 113"/>
<path stroke-width="1" stroke="black" d="M 146 113 99 135"/>
<path stroke-width="1" stroke="black" d="M 146 113 185 135"/>
<path stroke-width="1" stroke="black" d="M 146 113 177 177"/>
<path stroke-width="1" stroke="black" d="M 146 113 150 68"/>
<path stroke-width="1" stroke="black" d="M 146 113 166 102"/>
<path stroke-width="1" stroke="black" d="M 150 68 183 102"/>
<path stroke-width="1" stroke="black" d="M 146 113 115 189"/>
<path stroke-width="1" stroke="black" d="M 146 113 76 133"/>
<path stroke-width="1" stroke="black" d="M 146 113 72 138"/>
<path stroke-width="1" stroke="black" d="M 146 113 160 79"/>
<path stroke-width="1" stroke="black" d="M 146 113 160 216"/>
<path stroke-width="1" stroke="black" d="M 146 113 75 180"/>
<path stroke-width="1" stroke="black" d="M 146 113 90 191"/>
<path stroke-width="1" stroke="black" d="M 146 113 179 172"/>
<path stroke-width="1" stroke="black" d="M 146 113 107 95"/>
<path stroke-width="1" stroke="black" d="M 146 113 91 77"/>
<path stroke-width="1" stroke="black" d="M 150 68 134 218"/>
<path stroke-width="1" stroke="black" d="M 150 68 192 124"/>
<path stroke-width="1" stroke="black" d="M 150 68 146 113"/>
<path stroke-width="1" stroke="black" d="M 150 68 115 189"/>
<path stroke-width="1" stroke="black" d="M 150 68 107 95"/>
<path stroke-width="1" stroke="black" d="M 150 68 76 133"/>
<path stroke-width="1" stroke="black" d="M 150 68 72 138"/>
<path stroke-width="1" stroke="black" d="M 150 68 160 79"/>
<path stroke-width="1" stroke="black" d="M 150 68 160 216"/>
<path stroke-width="1" stroke="black" d="M 150 68 184 196"/>
<path stroke-width="1" stroke="black" d="M 150 68 75 180"/>
<path stroke-width="1" stroke="black" d="M 150 68 179 172"/>
<path stroke-width="1" stroke="black" d="M 150 68 91 77"/>
<path stroke-width="1" stroke="black" d="M 150 68 98 67"/>
<path stroke-width="1" stroke="black" d="M 150 68 69 106"/>
<path stroke-width="1" stroke="black" d="M 150 68 117 221"/>
<path stroke-width="1" stroke="black" d="M 150 68 87 209"/>
<path stroke-width="1" stroke="black" d="M 150 68 136 198"/>
<path stroke-width="1" stroke="black" d="M 150 68 90 191"/>
<path stroke-width="1" stroke="black" d="M 146 113 98 67"/>
<path stroke-width="1" stroke="black" d="M 146 113 69 106"/>
<path stroke-width="1" stroke="black" d="M 146 113 117 221"/>
<path stroke-width="1" stroke="black" d="M 115 189 179 172"/>
<path stroke-width="1" stroke="black" d="M 115 189 91 77"/>
<path stroke-width="1" stroke="black" d="M 115 189 98 67"/>
<path stroke-width="1" stroke="black" d="M 115 189 69 106"/>
<path stroke-width="1" stroke="black" d="M 115 189 117 221"/>
<path stroke-width="1" stroke="black" d="M 115 189 87 209"/>
<path stroke-width="1" stroke="black" d="M 115 189 136 198"/>
<path stroke-width="1" stroke="black" d="M 115 189 90 191"/>
<path stroke-width="1" stroke="black" d="M 115 189 192 124"/>
<path stroke-width="1" stroke="black" d="M 115 189 134 218"/>
<path stroke-width="1" stroke="black" d="M 115 189 183 102"/>
<path stroke-width="1" stroke="black" d="M 115 189 220 139"/>
<path stroke-width="1" stroke="black" d="M 84 64 107 95"/>
<path stroke-width="1" stroke="black" d="M 107 95 99 135"/>
<path stroke-width="1" stroke="black" d="M 107 95 185 135"/>
<path stroke-width="1" stroke="black" d="M 107 95 177 177"/>
<path stroke-width="1" stroke="black" d="M 115 189 184 196"/>
<path stroke-width="1" stroke="black" d="M 115 189 75 180"/>
<path stroke-width="1" stroke="black" d="M 115 189 160 216"/>
<path stroke-width="1" stroke="black" d="M 115 189 160 79"/>
<path stroke-width="1" stroke="black" d="M 146 113 87 209"/>
<path stroke-width="1" stroke="black" d="M 146 113 136 198"/>
<path stroke-width="1" stroke="black" d="M 146 113 192 124"/>
<path stroke-width="1" stroke="black" d="M 146 113 184 196"/>
<path stroke-width="1" stroke="black" d="M 146 113 134 218"/>
<path stroke-width="1" stroke="black" d="M 146 113 183 102"/>
<path stroke-width="1" stroke="black" d="M 146 113 220 139"/>
<path stroke-width="1" stroke="black" d="M 99 223 115 189"/>
<path stroke-width="1" stroke="black" d="M 115 189 99 135"/>
<path stroke-width="1" stroke="black" d="M 115 189 185 135"/>
<path stroke-width="1" stroke="black" d="M 115 189 177 177"/>
<path stroke-width="1" stroke="black" d="M 115 189 150 68"/>
<path stroke-width="1" stroke="black" d="M 115 189 146 113"/>
<path stroke-width="1" stroke="black" d="M 115 189 99 223"/>
<path stroke-width="1" stroke="black" d="M 115 189 107 95"/>
<path stroke-width="1" stroke="black" d="M 115 189 76 133"/>
<path stroke-width="1" stroke="black" d="M 115 189 72 138"/>
<path stroke-width="1" stroke="black" d="M 150 68 161 27"/>
<path stroke-width="1" stroke="black" d="M 150 68 177 177"/>
<path stroke-width="1" stroke="black" d="M 150 68 185 135"/>
<path stroke-width="1" stroke="black" d="M 150 68 99 135"/>
<path stroke-width="1" stroke="black" d="M 99 135 184 196"/>
<path stroke-width="1" stroke="black" d="M 99 135 134 218"/>
<path stroke-width="1" stroke="black" d="M 99 135 183 102"/>
<path stroke-width="1" stroke="black" d="M 99 135 220 139"/>
<path stroke-width="1" stroke="black" d="M 213 128 185 135"/>
<path stroke-width="1" stroke="black" d="M 185 135 99 135"/>
<path stroke-width="1" stroke="black" d="M 185 135 213 128"/>
<path stroke-width="1" stroke="black" d="M 99 135 192 124"/>
<path stroke-width="1" stroke="black" d="M 185 135 177 177"/>
<path stroke-width="1" stroke="black" d="M 185 135 146 113"/>
<path stroke-width="1" stroke="black" d="M 185 135 115 189"/>
<path stroke-width="1" stroke="black" d="M 185 135 107 95"/>
<path stroke-width="1" stroke="black" d="M 185 135 76 133"/>
<path stroke-width="1" stroke="black" d="M 185 135 72 138"/>
<path stroke-width="1" stroke="black" d="M 185 135 160 79"/>
<path stroke-width="1" stroke="black" d="M 185 135 160 216"/>
<path stroke-width="1" stroke="black" d="M 185 135 150 68"/>
<path stroke-width="1" stroke="black" d="M 99 135 136 198"/>
<path stroke-width="1" stroke="black" d="M 99 135 87 209"/>
<path stroke-width="1" stroke="black" d="M 99 135 117 221"/>
<path stroke-width="1" stroke="black" d="M 99 135 72 135"/>
<path stroke-width="1" stroke="black" d="M 99 135 185 135"/>
<path stroke-width="1" stroke="black" d="M 99 135 177 177"/>
<path stroke-width="1" stroke="black" d="M 99 135 150 68"/>
<path stroke-width="1" stroke="black" d="M 99 135 146 113"/>
<path stroke-width="1" stroke="black" d="M 99 135 115 189"/>
<path stroke-width="1" stroke="black" d="M 99 135 107 95"/>
<path stroke-width="1" stroke="black" d="M 99 135 76 133"/>
<path stroke-width="1" stroke="black" d="M 99 135 72 138"/>
<path stroke-width="1" stroke="black" d="M 99 135 160 79"/>
<path stroke-width="1" stroke="black" d="M 99 135 160 216"/>
<path stroke-width="1" stroke="black" d="M 99 135 75 180"/>
<path stroke-width="1" stroke="black" d="M 99 135 90 191"/>
<path stroke-width="1" stroke="black" d="M 99 135 179 172"/>
<path stroke-width="1" stroke="black" d="M 99 135 91 77"/>
<path stroke-width="1" stroke="black" d="M 99 135 98 67"/>
<path stroke-width="1" stroke="black" d="M 99 135 69 106"/>
<path stroke-width="1" stroke="black" d="M 185 135 75 180"/>
<path stroke-width="1" stroke="black" d="M 107 95 150 68"/>
<path stroke-width="1" stroke="black" d="M 185 135 90 191"/>
<path stroke-width="1" stroke="black" d="M 185 135 91 77"/>
<path stroke-width="1" stroke="black" d="M 177 177 160 216"/>
<path stroke-width="1" stroke="black" d="M 177 177 75 180"/>
<path stroke-width="1" stroke="black" d="M 177 177 90 191"/>
<path stroke-width="1" stroke="black" d="M 177 177 179 172"/>
<path stroke-width="1" stroke="black" d="M 177 177 91 77"/>
<path stroke-width="1" stroke="black" d="M 177 177 98 67"/>
<path stroke-width="1" stroke="black" d="M 177 177 69 106"/>
<path stroke-width="1" stroke="black" d="M 177 177 160 79"/>
<path stroke-width="1" stroke="black" d="M 177 177 117 221"/>
<path stroke-width="1" stroke="black" d="M 177 177 136 198"/>
<path stroke-width="1" stroke="black" d="M 177 177 192 124"/>
<path stroke-width="1" stroke="black" d="M 177 177 184 196"/>
<path stroke-width="1" stroke="black" d="M 177 177 134 218"/>
<path stroke-width="1" stroke="black" d="M 177 177 183 102"/>
<path stroke-width="1" stroke="black" d="M 177 177 220 139"/>
<path stroke-width="1" stroke="black" d="M 161 27 150 68"/>
<path stroke-width="1" stroke="black" d="M 177 177 87 209"/>
<path stroke-width="1" stroke="black" d="M 177 177 72 138"/>
<path stroke-width="1" stroke="black" d="M 177 177 76 133"/>
<path stroke-width="1" stroke="black" d="M 177 177 107 95"/>
<path stroke-width="1" stroke="black" d="M 185 135 98 67"/>
<path stroke-width="1" stroke="black" d="M 185 135 69 106"/>
<path stroke-width="1" stroke="black" d="M 185 135 117 221"/>
<path stroke-width="1" stroke="black" d="M 185 135 87 209"/>
<path stroke-width="1" stroke="black" d="M 185 135 136 198"/>
<path stroke-width="1" stroke="black" d="M 185 135 192 124"/>
<path stroke-width="1" stroke="black" d="M 185 135 184 196"/>
<path stroke-width="1" stroke="black" d="M 185 135 134 218"/>
<path stroke-width="1" stroke="black" d="M 185 135 183 102"/>
<path stroke-width="1" stroke="black" d="M 185 135 220 139"/>
<path stroke-width="1" stroke="black" d="M 203 194 177 177"/>
<path stroke-width="1" stroke="black" d="M 177 177 99 135"/>
<path stroke-width="1" stroke="black" d="M 177 177 185 135"/>
<path stroke-width="1" stroke="black" d="M 177 177 203 194"/>
<path stroke-width="1" stroke="black" d="M 177 177 150 68"/>
<path stroke-width="1" stroke="black" d="M 177 177 146 113"/>
<path stroke-width="1" stroke="black" d="M 177 177 115 189"/>
<path stroke-width="1" stroke="black" d="M 185 135 179 172"/>
<path stroke-width="1" stroke="black" d="M 220 139 183 102"/>
<path stroke-width="1" stroke="black" d="M 107 95 146 113"/>
<path stroke-width="1" stroke="black" d="M 107 95 84 64"/>
<path stroke-width="1" stroke="black" d="M 160 216 115 189"/>
<path stroke-width="1" stroke="black" d="M 160 216 107 95"/>
<path stroke-width="1" stroke="black" d="M 160 216 76 133"/>
<path stroke-width="1" stroke="black" d="M 160 216 72 138"/>
<path stroke-width="1" stroke="black" d="M 160 216 160 79"/>
<path stroke-width="1" stroke="black" d="M 160 216 181 256"/>
<path stroke-width="1" stroke="black" d="M 160 216 75 180"/>
<path stroke-width="1" stroke="black" d="M 160 216 146 113"/>
<path stroke-width="1" stroke="black" d="M 160 216 90 191"/>
<path stroke-width="1" stroke="black" d="M 160 216 91 77"/>
<path stroke-width="1" stroke="black" d="M 160 216 98 67"/>
<path stroke-width="1" stroke="black" d="M 160 216 69 106"/>
<path stroke-width="1" stroke="black" d="M 160 216 117 221"/>
<path stroke-width="1" stroke="black" d="M 160 216 87 209"/>
<path stroke-width="1" stroke="black" d="M 160 216 136 198"/>
<path stroke-width="1" stroke="black" d="M 160 216 192 124"/>
<path stroke-width="1" stroke="black" d="M 160 216 179 172"/>
<path stroke-width="1" stroke="black" d="M 160 216 184 196"/>
<path stroke-width="1" stroke="black" d="M 160 216 150 68"/>
<path stroke-width="1" stroke="black" d="M 160 216 185 135"/>
<path stroke-width="1" stroke="black" d="M 160 79 75 180"/>
<path stroke-width="1" stroke="black" d="M 160 79 90 191"/>
<path stroke-width="1" stroke="black" d="M 160 79 179 172"/>
<path stroke-width="1" stroke="black" d="M 160 79 91 77"/>
<path stroke-width="1" stroke="black" d="M 160 79 98 67"/>
<path stroke-width="1" stroke="black" d="M 160 79 69 106"/>
<path stroke-width="1" stroke="black" d="M 160 79 117 221"/>
<path stroke-width="1" stroke="black" d="M 160 216 177 177"/>
<path stroke-width="1" stroke="black" d="M 160 79 87 209"/>
<path stroke-width="1" stroke="black" d="M 160 79 192 124"/>
<path stroke-width="1" stroke="black" d="M 160 79 184 196"/>
<path stroke-width="1" stroke="black" d="M 160 79 134 218"/>
<path stroke-width="1" stroke="black" d="M 160 79 183 102"/>
<path stroke-width="1" stroke="black" d="M 160 79 220 139"/>
<path stroke-width="1" stroke="black" d="M 181 256 160 216"/>
<path stroke-width="1" stroke="black" d="M 160 216 99 135"/>
<path stroke-width="1" stroke="black" d="M 160 79 136 198"/>
<path stroke-width="1" stroke="black" d="M 160 216 134 218"/>
<path stroke-width="1" stroke="black" d="M 160 216 183 102"/>
<path stroke-width="1" stroke="black" d="M 160 216 220 139"/>
<path stroke-width="1" stroke="black" d="M 75 180 192 124"/>
<path stroke-width="1" stroke="black" d="M 75 180 184 196"/>
<path stroke-width="1" stroke="black" d="M 75 180 134 218"/>
<path stroke-width="1" stroke="black" d="M 75 180 183 102"/>
<path stroke-width="1" stroke="black" d="M 75 180 220 139"/>
<path stroke-width="1" stroke="black" d="M 58 221 90 191"/>
<path stroke-width="1" stroke="black" d="M 90 191 99 135"/>
<path stroke-width="1" stroke="black" d="M 75 180 136 198"/>
<path stroke-width="1" stroke="black" d="M 90 191 185 135"/>
<path stroke-width="1" stroke="black" d="M 90 191 150 68"/>
<path stroke-width="1" stroke="black" d="M 90 191 146 113"/>
<path stroke-width="1" stroke="black" d="M 90 191 115 189"/>
<path stroke-width="1" stroke="black" d="M 90 191 107 95"/>
<path stroke-width="1" stroke="black" d="M 90 191 76 133"/>
<path stroke-width="1" stroke="black" d="M 90 191 72 138"/>
<path stroke-width="1" stroke="black" d="M 90 191 160 79"/>
<path stroke-width="1" stroke="black" d="M 90 191 177 177"/>
<path stroke-width="1" stroke="black" d="M 75 180 87 209"/>
<path stroke-width="1" stroke="black" d="M 75 180 117 221"/>
<path stroke-width="1" stroke="black" d="M 75 180 69 106"/>
<path stroke-width="1" stroke="black" d="M 36 198 75 180"/>
<path stroke-width="1" stroke="black" d="M 75 180 99 135"/>
<path stroke-width="1" stroke="black" d="M 75 180 185 135"/>
<path stroke-width="1" stroke="black" d="M 75 180 177 177"/>
<path stroke-width="1" stroke="black" d="M 75 180 150 68"/>
<path stroke-width="1" stroke="black" d="M 75 180 146 113"/>
<path stroke-width="1" stroke="black" d="M 75 180 115 189"/>
<path stroke-width="1" stroke="black" d="M 75 180 107 95"/>
<path stroke-width="1" stroke="black" d="M 75 180 76 133"/>
<path stroke-width="1" stroke="black" d="M 75 180 72 138"/>
<path stroke-width="1" stroke="black" d="M 75 180 160 79"/>
<path stroke-width="1" stroke="black" d="M 75 180 160 216"/>
<path stroke-width="1" stroke="black" d="M 75 180 36 198"/>
<path stroke-width="1" stroke="black" d="M 75 180 90 191"/>
<path stroke-width="1" stroke="black" d="M 75 180 179 172"/>
<path stroke-width="1" stroke="black" d="M 75 180 91 77"/>
<path stroke-width="1" stroke="black" d="M 75 180 98 67"/>
<path stroke-width="1" stroke="black" d="M 160 79 160 216"/>
<path stroke-width="1" stroke="black" d="M 160 79 186 42"/>
<path stroke-width="1" stroke="black" d="M 160 79 72 138"/>
<path stroke-width="1" stroke="black" d="M 160 79 76 133"/>
<path stroke-width="1" stroke="black" d="M 76 133 177 177"/>
<path stroke-width="1" stroke="black" d="M 76 133 150 68"/>
<path stroke-width="1" stroke="black" d="M 76 133 146 113"/>
<path stroke-width="1" stroke="black" d="M 76 133 115 189"/>
<path stroke-width="1" stroke="black" d="M 76 133 107 95"/>
<path stroke-width="1" stroke="black" d="M 76 133 40 127"/>
<path stroke-width="1" stroke="black" d="M 76 133 72 138"/>
<path stroke-width="1" stroke="black" d="M 76 133 185 135"/>
<path stroke-width="1" stroke="black" d="M 76 133 160 79"/>
<path stroke-width="1" stroke="black" d="M 76 133 75 180"/>
<path stroke-width="1" stroke="black" d="M 76 133 90 191"/>
<path stroke-width="1" stroke="black" d="M 76 133 179 172"/>
<path stroke-width="1" stroke="black" d="M 76 133 91 77"/>
<path stroke-width="1" stroke="black" d="M 76 133 98 67"/>
<path stroke-width="1" stroke="black" d="M 76 133 69 106"/>
<path stroke-width="1" stroke="black" d="M 76 133 117 221"/>
<path stroke-width="1" stroke="black" d="M 76 133 160 216"/>
<path stroke-width="1" stroke="black" d="M 76 133 99 135"/>
<path stroke-width="1" stroke="black" d="M 40 127 76 133"/>
<path stroke-width="1" stroke="black" d="M 107 95 220 139"/>
<path stroke-width="1" stroke="black" d="M 107 95 76 133"/>
<path stroke-width="1" stroke="black" d="M 107 95 72 138"/>
<path stroke-width="1" stroke="black" d="M 107 95 160 79"/>
<path stroke-width="1" stroke="black" d="M 107 95 160 216"/>
<path stroke-width="1" stroke="black" d="M 107 95 75 180"/>
<path stroke-width="1" stroke="black" d="M 107 95 90 191"/>
<path stroke-width="1" stroke="black" d="M 107 95 179 172"/>
<path stroke-width="1" stroke="black" d="M 107 95 91 77"/>
<path stroke-width="1" stroke="black" d="M 107 95 98 67"/>
<path stroke-width="1" stroke="black" d="M 107 95 69 106"/>
<path stroke-width="1" stroke="black" d="M 107 95 117 221"/>
<path stroke-width="1" stroke="black" d="M 107 95 87 209"/>
<path stroke-width="1" stroke="black" d="M 107 95 136 198"/>
<path stroke-width="1" stroke="black" d="M 107 95 192 124"/>
<path stroke-width="1" stroke="black" d="M 107 95 184 196"/>
<path stroke-width="1" stroke="black" d="M 107 95 134 218"/>
<path stroke-width="1" stroke="black" d="M 107 95 183 102"/>
<path stroke-width="1" stroke="black" d="M 76 133 87 209"/>
<path stroke-width="1" stroke="black" d="M 107 95 115 189"/>
<path stroke-width="1" stroke="black" d="M 76 133 136 198"/>
<path stroke-width="1" stroke="black" d="M 76 133 184 196"/>
<path stroke-width="1" stroke="black" d="M 72 138 117 221"/>
<path stroke-width="1" stroke="black" d="M 72 138 87 209"/>
<path stroke-width="1" stroke="black" d="M 72 138 136 198"/>
<path stroke-width="1" stroke="black" d="M 72 138 192 124"/>
<path stroke-width="1" stroke="black" d="M 72 138 184 196"/>
<path stroke-width="1" stroke="black" d="M 72 138 134 218"/>
<path stroke-width="1" stroke="black" d="M 72 138 183 102"/>
<path stroke-width="1" stroke="black" d="M 72 138 69 106"/>
<path stroke-width="1" stroke="black" d="M 72 138 220 139"/>
<path stroke-width="1" stroke="black" d="M 160 79 99 135"/>
<path stroke-width="1" stroke="black" d="M 160 79 185 135"/>
<path stroke-width="1" stroke="black" d="M 160 79 177 177"/>
<path stroke-width="1" stroke="black" d="M 160 79 150 68"/>
<path stroke-width="1" stroke="black" d="M 160 79 146 113"/>
<path stroke-width="1" stroke="black" d="M 160 79 115 189"/>
<path stroke-width="1" stroke="black" d="M 160 79 107 95"/>
<path stroke-width="1" stroke="black" d="M 186 42 160 79"/>
<path stroke-width="1" stroke="black" d="M 72 138 98 67"/>
<path stroke-width="1" stroke="black" d="M 72 138 91 77"/>
<path stroke-width="1" stroke="black" d="M 72 138 179 172"/>
<path stroke-width="1" stroke="black" d="M 76 133 134 218"/>
<path stroke-width="1" stroke="black" d="M 76 133 183 102"/>
<path stroke-width="1" stroke="black" d="M 76 133 220 139"/>
<path stroke-width="1" stroke="black" d="M 33 136 72 138"/>
<path stroke-width="1" stroke="black" d="M 72 138 99 135"/>
<path stroke-width="1" stroke="black" d="M 72 138 185 135"/>
<path stroke-width="1" stroke="black" d="M 72 138 177 177"/>
<path stroke-width="1" stroke="black" d="M 72 138 150 68"/>
<path stroke-width="1" stroke="black" d="M 72 138 146 113"/>
<path stroke-width="1" stroke="black" d="M 72 138 115 189"/>
<path stroke-width="1" stroke="black" d="M 72 138 107 95"/>
<path stroke-width="1" stroke="black" d="M 72 138 76 133"/>
<path stroke-width="1" stroke="black" d="M 72 138 33 136"/>
<path stroke-width="1" stroke="black" d="M 72 138 160 79"/>
<path stroke-width="1" stroke="black" d="M 72 138 160 216"/>
<path stroke-width="1" stroke="black" d="M 72 138 75 180"/>
<path stroke-width="1" stroke="black" d="M 72 138 90 191"/>
<path stroke-width="1" stroke="black" d="M 76 133 192 124"/>
<path stroke-width="1" stroke="black" d="M 220 139 420 132"/>
<circle cx="72" cy="135" r="7.0" style="fill:red;stroke:black;stroke-width:1.0"/>
<circle cx="99" cy="135" r="7.0" style="fill:red;stroke:black;stroke-width:1.0"/>
<circle cx="213" cy="128" r="7.0" style="fill:green;stroke:black;stroke-width:1.0"/>
<circle cx="185" cy="135" r="7.0" style="fill:green;stroke:black;stroke-width:1.0"/>
<circle cx="203" cy="194" r="7.0" style="fill:red;stroke:black;stroke-width:1.0"/>
<circle cx="177" cy="177" r="7.0" style="fill:red;stroke:black;stroke-width:1.0"/>
<circle cx="161" cy="27" r="7.0" style="fill:red;stroke:black;stroke-width:1.0"/>
<circle cx="150" cy="68" r="7.0" style="fill:red;stroke:black;stroke-width:1.0"/>
<circle cx="166" cy="102" r="7.0" style="fill:yellow;stroke:black;stroke-width:1.0"/>
<circle cx="146" cy="113" r="7.0" style="fill:yellow;stroke:black;stroke-width:1.0"/>
<circle cx="99" cy="223" r="7.0" style="fill:fuchsia;stroke:black;stroke-width:1.0"/>
<circle cx="115" cy="189" r="7.0" style="fill:fuchsia;stroke:black;stroke-width:1.0"/>
<circle cx="84" cy="64" r="7.0" style="fill:blue;stroke:black;stroke-width:1.0"/>
<circle cx="107" cy="95" r="7.0" style="fill:blue;stroke:black;stroke-width:1.0"/>
<circle cx="40" cy="127" r="7.0" style="fill:orange;stroke:black;stroke-width:1.0"/>
<circle cx="76" cy="133" r="7.0" style="fill:orange;stroke:black;stroke-width:1.0"/>
<circle cx="33" cy="136" r="7.0" style="fill:red;stroke:black;stroke-width:1.0"/>
<circle cx="72" cy="138" r="7.0" style="fill:olive;stroke:black;stroke-width:1.0"/>
<circle cx="186" cy="42" r="7.0" style="fill:red;stroke:black;stroke-width:1.0"/>
<circle cx="160" cy="79" r="7.0" style="fill:red;stroke:black;stroke-width:1.0"/>
<circle cx="181" cy="256" r="7.0" style="fill:aqua;stroke:black;stroke-width:1.0"/>
<circle cx="160" cy="216" r="7.0" style="fill:aqua;stroke:black;stroke-width:1.0"/>
<circle cx="36" cy="198" r="7.0" style="fill:red;stroke:black;stroke-width:1.0"/>
<circle cx="75" cy="180" r="7.0" style="fill:red;stroke:black;stroke-width:1.0"/>
<circle cx="58" cy="221" r="7.0" style="fill:red;stroke:black;stroke-width:1.0"/>
<circle cx="90" cy="191" r="7.0" style="fill:red;stroke:black;stroke-width:1.0"/>
<circle cx="216" cy="192" r="7.0" style="fill:blue;stroke:black;stroke-width:1.0"/>
<circle cx="179" cy="172" r="7.0" style="fill:blue;stroke:black;stroke-width:1.0"/>
<circle cx="54" cy="41" r="7.0" style="fill:red;stroke:black;stroke-width:1.0"/>
<circle cx="91" cy="77" r="7.0" style="fill:red;stroke:black;stroke-width:1.0"/>
<circle cx="66" cy="20" r="7.0" style="fill:olive;stroke:black;stroke-width:1.0"/>
<circle cx="98" cy="67" r="7.0" style="fill:olive;stroke:black;stroke-width:1.0"/>
<circle cx="20" cy="85" r="7.0" style="fill:purple;stroke:black;stroke-width:1.0"/>
<circle cx="69" cy="106" r="7.0" style="fill:purple;stroke:black;stroke-width:1.0"/>
<circle cx="98" cy="286" r="7.0" style="fill:red;stroke:black;stroke-width:1.0"/>
<circle cx="117" cy="221" r="7.0" style="fill:blue;stroke:black;stroke-width:1.0"/>
<circle cx="42" cy="255" r="7.0" style="fill:fuchsia;stroke:black;stroke-width:1.0"/>
<circle cx="87" cy="209" r="7.0" style="fill:fuchsia;stroke:black;stroke-width:1.0"/>
<circle cx="131" cy="272" r="7.0" style="fill:yellow;stroke:black;stroke-width:1.0"/>
<circle cx="136" cy="198" r="7.0" style="fill:red;stroke:black;stroke-width:1.0"/>
<circle cx="255" cy="113" r="7.0" style="fill:red;stroke:black;stroke-width:1.0"/>
<circle cx="192" cy="124" r="7.0" style="fill:red;stroke:black;stroke-width:1.0"/>
<circle cx="246" cy="234" r="7.0" style="fill:red;stroke:black;stroke-width:1.0"/>
<circle cx="184" cy="196" r="7.0" style="fill:red;stroke:black;stroke-width:1.0"/>
<circle cx="122" cy="320" r="7.0" style="fill:brown;stroke:black;stroke-width:1.0"/>
<circle cx="134" cy="218" r="7.0" style="fill:brown;stroke:black;stroke-width:1.0"/>
<circle cx="261" cy="62" r="7.0" style="fill:red;stroke:black;stroke-width:1.0"/>
<circle cx="183" cy="102" r="7.0" style="fill:red;stroke:black;stroke-width:1.0"/>
<circle cx="420" cy="132" r="7.0" style="fill:red;stroke:black;stroke-width:1.0"/>
<circle cx="220" cy="139" r="7.0" style="fill:red;stroke:black;stroke-width:1.0"/>
</svg>
