<svg width="440" height="340" xmlns="http://www.w3.org/2000/svg">
<path stroke-width="1" stroke="black" d="M 164 180 172 170"/>
<path stroke-width="1" stroke="black" d="M 222 43 262 28"/>
<path stroke-width="1" stroke="black" d="M 222 43 220 34"/>
<path stroke-width="1" stroke="black" d="M 222 43 192 79"/>
<path stroke-width="1" stroke="black" d="M 220 34 222 43"/>
<path stroke-width="1" stroke="black" d="M 192 79 222 43"/>
<path stroke-width="1" stroke="black" d="M 192 79 182 76"/>
<path stroke-width="1" stroke="black" d="M 192 79 190 125"/>
<path stroke-width="1" stroke="black" d="M 182 76 192 79"/>
<path stroke-width="1" stroke="black" d="M 190 125 192 79"/>
<path stroke-width="1" stroke="black" d="M 270 20 262 28"/>
<path stroke-width="1" stroke="black" d="M 190 125 178 126"/>
<path stroke-width="1" stroke="black" d="M 178 126 190 125"/>
<path stroke-width="1" stroke="black" d="M 222 168 190 125"/>
<path stroke-width="1" stroke="black" d="M 222 168 216 175"/>
<path stroke-width="1" stroke="black" d="M 222 168 267 199"/>
<path stroke-width="1" stroke="black" d="M 216 175 222 168"/>
<path stroke-width="1" stroke="black" d="M 267 199 222 168"/>
<path stroke-width="1" stroke="black" d="M 267 199 271 195"/>
<path stroke-width="1" stroke="black" d="M 267 199 311 230"/>
<path stroke-width="1" stroke="black" d="M 271 195 267 199"/>
<path stroke-width="1" stroke="black" d="M 190 125 222 168"/>
<path stroke-width="1" stroke="black" d="M 262 28 222 43"/>
<path stroke-width="1" stroke="black" d="M 262 28 270 20"/>
<path stroke-width="1" stroke="black" d="M 262 28 277 53"/>
<path stroke-width="1" stroke="black" d="M 20 231 33 225"/>
<path stroke-width="1" stroke="black" d="M 79 204 33 225"/>
<path stroke-width="1" stroke="black" d="M 79 204 69 211"/>
<path stroke-width="1" stroke="black" d="M 79 204 133 173"/>
<path stroke-width="1" stroke="black" d="M 69 211 79 204"/>
<path stroke-width="1" stroke="black" d="M 133 173 79 204"/>
<path stroke-width="1" stroke="black" d="M 133 173 129 178"/>
<path stroke-width="1" stroke="black" d="M 133 173 194 133"/>
<path stroke-width="1" stroke="black" d="M 129 178 133 173"/>
<path stroke-width="1" stroke="black" d="M 194 133 133 173"/>
<path stroke-width="1" stroke="black" d="M 194 133 202 136"/>
<path stroke-width="1" stroke="black" d="M 194 133 244 93"/>
<path stroke-width="1" stroke="black" d="M 202 136 194 133"/>
<path stroke-width="1" stroke="black" d="M 244 93 194 133"/>
<path stroke-width="1" stroke="black" d="M 244 93 256 87"/>
<path stroke-width="1" stroke="black" d="M 244 93 277 53"/>
<path stroke-width="1" stroke="black" d="M 256 87 244 93"/>
<path stroke-width="1" stroke="black" d="M 277 53 244 93"/>
<path stroke-width="1" stroke="black" d="M 277 53 288 47"/>
<path stroke-width="1" stroke="black" d="M 277 53 262 28"/>
<path stroke-width="1" stroke="black" d="M 288 47 277 53"/>
<path stroke-width="1" stroke="black" d="M 311 230 267 199"/>
<path stroke-width="1" stroke="black" d="M 311 230 319 227"/>
<path stroke-width="1" stroke="black" d="M 311 230 341 265"/>
<path stroke-width="1" stroke="black" d="M 319 227 311 230"/>
<path stroke-width="1" stroke="black" d="M 385 172 395 171"/>
<path stroke-width="1" stroke="black" d="M 385 172 341 145"/>
<path stroke-width="1" stroke="black" d="M 395 171 385 172"/>
<path stroke-width="1" stroke="black" d="M 341 145 385 172"/>
<path stroke-width="1" stroke="black" d="M 341 145 344 139"/>
<path stroke-width="1" stroke="black" d="M 341 145 291 127"/>
<path stroke-width="1" stroke="black" d="M 344 139 341 145"/>
<path stroke-width="1" stroke="black" d="M 291 127 341 145"/>
<path stroke-width="1" stroke="black" d="M 291 127 291 119"/>
<path stroke-width="1" stroke="black" d="M 291 127 239 125"/>
<path stroke-width="1" stroke="black" d="M 291 119 291 127"/>
<path stroke-width="1" stroke="black" d="M 239 125 291 127"/>
<path stroke-width="1" stroke="black" d="M 239 125 233 117"/>
<path stroke-width="1" stroke="black" d="M 239 125 196 145"/>
<path stroke-width="1" stroke="black" d="M 233 117 239 125"/>
<path stroke-width="1" stroke="black" d="M 196 145 239 125"/>
<path stroke-width="1" stroke="black" d="M 196 145 186 144"/>
<path stroke-width="1" stroke="black" d="M 196 145 172 170"/>
<path stroke-width="1" stroke="black" d="M 186 144 196 145"/>
<path stroke-width="1" stroke="black" d="M 172 170 196 145"/>
<path stroke-width="1" stroke="black" d="M 172 170 164 180"/>
<path stroke-width="1" stroke="black" d="M 385 172 408 209"/>
<path stroke-width="1" stroke="black" d="M 33 225 79 204"/>
<path stroke-width="1" stroke="black" d="M 420 208 408 209"/>
<path stroke-width="1" stroke="black" d="M 408 209 420 208"/>
<path stroke-width="1" stroke="black" d="M 341 265 311 230"/>
<path stroke-width="1" stroke="black" d="M 341 265 350 268"/>
<path stroke-width="1" stroke="black" d="M 341 265 353 301"/>
<path stroke-width="1" stroke="black" d="M 350 268 341 265"/>
<path stroke-width="1" stroke="black" d="M 353 301 341 265"/>
<path stroke-width="1" stroke="black" d="M 353 301 357 310"/>
<path stroke-width="1" stroke="black" d="M 353 301 345 311"/>
<path stroke-width="1" stroke="black" d="M 357 310 353 301"/>
<path stroke-width="1" stroke="black" d="M 345 311 353 301"/>
<path stroke-width="1" stroke="black" d="M 345 311 338 320"/>
<path stroke-width="1" stroke="black" d="M 345 311 367 282"/>
<path stroke-width="1" stroke="black" d="M 338 320 345 311"/>
<path stroke-width="1" stroke="black" d="M 367 282 345 311"/>
<path stroke-width="1" stroke="black" d="M 367 282 360 286"/>
<path stroke-width="1" stroke="black" d="M 367 282 394 247"/>
<path stroke-width="1" stroke="black" d="M 360 286 367 282"/>
<path stroke-width="1" stroke="black" d="M 394 247 367 282"/>
<path stroke-width="1" stroke="black" d="M 394 247 402 247"/>
<path stroke-width="1" stroke="black" d="M 394 247 408 209"/>
<path stroke-width="1" stroke="black" d="M 402 247 394 247"/>
<path stroke-width="1" stroke="black" d="M 408 209 394 247"/>
<path stroke-width="1" stroke="black" d="M 408 209 385 172"/>
<path stroke-width="1" stroke="black" d="M 33 225 20 231"/>
<circle cx="164" cy="180" r="7.0" style="fill:gray;stroke:black;stroke-width:1.0"/>
<circle cx="172" cy="170" r="7.0" style="fill:gray;stroke:black;stroke-width:1.0"/>
<circle cx="186" cy="144" r="7.0" style="fill:gray;stroke:black;stroke-width:1.0"/>
<circle cx="196" cy="145" r="7.0" style="fill:gray;stroke:black;stroke-width:1.0"/>
<circle cx="233" cy="117" r="7.0" style="fill:gray;stroke:black;stroke-width:1.0"/>
<circle cx="239" cy="125" r="7.0" style="fill:gray;stroke:black;stroke-width:1.0"/>
<circle cx="291" cy="119" r="7.0" style="fill:gray;stroke:black;stroke-width:1.0"/>
<circle cx="291" cy="127" r="7.0" style="fill:gray;stroke:black;stroke-width:1.0"/>
<circle cx="344" cy="139" r="7.0" style="fill:gray;stroke:black;stroke-width:1.0"/>
<circle cx="341" cy="145" r="7.0" style="fill:gray;stroke:black;stroke-width:1.0"/>
<circle cx="395" cy="171" r="7.0" style="fill:gray;stroke:black;stroke-width:1.0"/>
<circle cx="385" cy="172" r="7.0" style="fill:gray;stroke:black;stroke-width:1.0"/>
<circle cx="420" cy="208" r="7.0" style="fill:gray;stroke:black;stroke-width:1.0"/>
<circle cx="408" cy="209" r="7.0" style="fill:gray;stroke:black;stroke-width:1.0"/>
<circle cx="402" cy="247" r="7.0" style="fill:gray;stroke:black;stroke-width:1.0"/>
<circle cx="394" cy="247" r="7.0" style="fill:gray;stroke:black;stroke-width:1.0"/>
<circle cx="360" cy="286" r="7.0" style="fill:gray;stroke:black;stroke-width:1.0"/>
<circle cx="367" cy="282" r="7.0" style="fill:gray;stroke:black;stroke-width:1.0"/>
<circle cx="338" cy="320" r="7.0" style="fill:gray;stroke:black;stroke-width:1.0"/>
<circle cx="345" cy="311" r="7.0" style="fill:gray;stroke:black;stroke-width:1.0"/>
<circle cx="357" cy="310" r="7.0" style="fill:gray;stroke:black;stroke-width:1.0"/>
<circle cx="353" cy="301" r="7.0" style="fill:gray;stroke:black;stroke-width:1.0"/>
<circle cx="350" cy="268" r="7.0" style="fill:gray;stroke:black;stroke-width:1.0"/>
<circle cx="341" cy="265" r="7.0" style="fill:gray;stroke:black;stroke-width:1.0"/>
<circle cx="319" cy="227" r="7.0" style="fill:gray;stroke:black;stroke-width:1.0"/>
<circle cx="311" cy="230" r="7.0" style="fill:gray;stroke:black;stroke-width:1.0"/>
<circle cx="271" cy="195" r="7.0" style="fill:gray;stroke:black;stroke-width:1.0"/>
<circle cx="267" cy="199" r="7.0" style="fill:gray;stroke:black;stroke-width:1.0"/>
<circle cx="216" cy="175" r="7.0" style="fill:gray;stroke:black;stroke-width:1.0"/>
<circle cx="222" cy="168" r="7.0" style="fill:gray;stroke:black;stroke-width:1.0"/>
<circle cx="178" cy="126" r="7.0" style="fill:gray;stroke:black;stroke-width:1.0"/>
<circle cx="190" cy="125" r="7.0" style="fill:gray;stroke:black;stroke-width:1.0"/>
<circle cx="182" cy="76" r="7.0" style="fill:gray;stroke:black;stroke-width:1.0"/>
<circle cx="192" cy="79" r="7.0" style="fill:gray;stroke:black;stroke-width:1.0"/>
<circle cx="220" cy="34" r="7.0" style="fill:gray;stroke:black;stroke-width:1.0"/>
<circle cx="222" cy="43" r="7.0" style="fill:gray;stroke:black;stroke-width:1.0"/>
<circle cx="270" cy="20" r="7.0" style="fill:gray;stroke:black;stroke-width:1.0"/>
<circle cx="262" cy="28" r="7.0" style="fill:gray;stroke:black;stroke-width:1.0"/>
<circle cx="288" cy="47" r="7.0" style="fill:gray;stroke:black;stroke-width:1.0"/>
<circle cx="277" cy="53" r="7.0" style="fill:gray;stroke:black;stroke-width:1.0"/>
<circle cx="256" cy="87" r="7.0" style="fill:gray;stroke:black;stroke-width:1.0"/>
<circle cx="244" cy="93" r="7.0" style="fill:gray;stroke:black;stroke-width:1.0"/>
<circle cx="202" cy="136" r="7.0" style="fill:gray;stroke:black;stroke-width:1.0"/>
<circle cx="194" cy="133" r="7.0" style="fill:gray;stroke:black;stroke-width:1.0"/>
<circle cx="129" cy="178" r="7.0" style="fill:gray;stroke:black;stroke-width:1.0"/>
<circle cx="133" cy="173" r="7.0" style="fill:gray;stroke:black;stroke-width:1.0"/>
<circle cx="69" cy="211" r="7.0" style="fill:gray;stroke:black;stroke-width:1.0"/>
<circle cx="79" cy="204" r="7.0" style="fill:gray;stroke:black;stroke-width:1.0"/>
<circle cx="20" cy="231" r="7.0" style="fill:gray;stroke:black;stroke-width:1.0"/>
<circle cx="33" cy="225" r="7.0" style="fill:gray;stroke:black;stroke-width:1.0"/>
</svg>
