<svg width="440" height="340" xmlns="http://www.w3.org/2000/svg">
<path stroke-width="8.857142857142858" stroke="black" d="M 354 267 339 268"/>
<path stroke-width="0.5" stroke="black" d="M 67 81 116 54"/>
<path stroke-width="20.0" stroke="black" d="M 67 81 57 78"/>
<path stroke-width="0.5" stroke="black" d="M 67 81 39 116"/>
<path stroke-width="20.0" stroke="black" d="M 57 78 67 81"/>
<path stroke-width="0.5" stroke="black" d="M 39 116 67 81"/>
<path stroke-width="20.0" stroke="black" d="M 39 116 29 118"/>
<path stroke-width="0.5" stroke="black" d="M 39 116 34 157"/>
<path stroke-width="20.0" stroke="black" d="M 29 118 39 116"/>
<path stroke-width="0.5" stroke="black" d="M 34 157 39 116"/>
<path stroke-width="20.0" stroke="black" d="M 108 49 116 54"/>
<path stroke-width="20.0" stroke="black" d="M 34 157 20 156"/>
<path stroke-width="20.0" stroke="black" d="M 20 156 34 157"/>
<path stroke-width="0.5" stroke="black" d="M 76 186 34 157"/>
<path stroke-width="20.0" stroke="black" d="M 76 186 64 189"/>
<path stroke-width="0.5" stroke="black" d="M 76 186 146 205"/>
<path stroke-width="20.0" stroke="black" d="M 64 189 76 186"/>
<path stroke-width="0.5" stroke="black" d="M 146 205 76 186"/>
<path stroke-width="20.0" stroke="black" d="M 146 205 137 208"/>
<path stroke-width="0.5" stroke="black" d="M 146 205 225 215"/>
<path stroke-width="20.0" stroke="black" d="M 137 208 146 205"/>
<path stroke-width="0.5" stroke="black" d="M 34 157 76 186"/>
<path stroke-width="0.5" stroke="black" d="M 116 54 67 81"/>
<path stroke-width="20.0" stroke="black" d="M 116 54 108 49"/>
<path stroke-width="0.5" stroke="black" d="M 116 54 174 36"/>
<path stroke-width="14.428571428571429" stroke="black" d="M 353 111 349 103"/>
<path stroke-width="0.5" stroke="black" d="M 335 78 349 103"/>
<path stroke-width="20.0" stroke="black" d="M 335 78 341 81"/>
<path stroke-width="0.5" stroke="black" d="M 335 78 313 50"/>
<path stroke-width="20.0" stroke="black" d="M 341 81 335 78"/>
<path stroke-width="0.5" stroke="black" d="M 313 50 335 78"/>
<path stroke-width="20.0" stroke="black" d="M 313 50 314 45"/>
<path stroke-width="0.5" stroke="black" d="M 313 50 282 28"/>
<path stroke-width="20.0" stroke="black" d="M 314 45 313 50"/>
<path stroke-width="0.5" stroke="black" d="M 282 28 313 50"/>
<path stroke-width="20.0" stroke="black" d="M 282 28 292 22"/>
<path stroke-width="0.5" stroke="black" d="M 282 28 231 26"/>
<path stroke-width="20.0" stroke="black" d="M 292 22 282 28"/>
<path stroke-width="0.5" stroke="black" d="M 231 26 282 28"/>
<path stroke-width="20.0" stroke="black" d="M 231 26 237 20"/>
<path stroke-width="0.5" stroke="black" d="M 231 26 174 36"/>
<path stroke-width="20.0" stroke="black" d="M 237 20 231 26"/>
<path stroke-width="0.5" stroke="black" d="M 174 36 231 26"/>
<path stroke-width="20.0" stroke="black" d="M 174 36 178 31"/>
<path stroke-width="0.5" stroke="black" d="M 174 36 116 54"/>
<path stroke-width="20.0" stroke="black" d="M 178 31 174 36"/>
<path stroke-width="0.5" stroke="black" d="M 225 215 146 205"/>
<path stroke-width="20.0" stroke="black" d="M 225 215 225 221"/>
<path stroke-width="0.5" stroke="black" d="M 225 215 305 224"/>
<path stroke-width="20.0" stroke="black" d="M 225 221 225 215"/>
<path stroke-width="20.0" stroke="black" d="M 277 298 274 303"/>
<path stroke-width="0.5" stroke="black" d="M 277 298 267 314"/>
<path stroke-width="20.0" stroke="black" d="M 274 303 277 298"/>
<path stroke-width="0.5" stroke="black" d="M 267 314 277 298"/>
<path stroke-width="20.0" stroke="black" d="M 267 314 273 320"/>
<path stroke-width="0.5" stroke="black" d="M 267 314 242 303"/>
<path stroke-width="20.0" stroke="black" d="M 273 320 267 314"/>
<path stroke-width="0.5" stroke="black" d="M 242 303 267 314"/>
<path stroke-width="20.0" stroke="black" d="M 242 303 232 306"/>
<path stroke-width="0.5" stroke="black" d="M 242 303 259 283"/>
<path stroke-width="20.0" stroke="black" d="M 232 306 242 303"/>
<path stroke-width="0.5" stroke="black" d="M 259 283 242 303"/>
<path stroke-width="20.0" stroke="black" d="M 259 283 249 282"/>
<path stroke-width="0.5" stroke="black" d="M 259 283 298 271"/>
<path stroke-width="20.0" stroke="black" d="M 249 282 259 283"/>
<path stroke-width="0.5" stroke="black" d="M 298 271 259 283"/>
<path stroke-width="20.0" stroke="black" d="M 298 271 295 266"/>
<path stroke-width="0.5" stroke="black" d="M 298 271 339 268"/>
<path stroke-width="20.0" stroke="black" d="M 295 266 298 271"/>
<path stroke-width="0.5" stroke="black" d="M 339 268 298 271"/>
<path stroke-width="8.857142857142858" stroke="black" d="M 339 268 354 267"/>
<path stroke-width="0.5" stroke="black" d="M 277 298 291 276"/>
<path stroke-width="0.5" stroke="black" d="M 349 103 335 78"/>
<path stroke-width="20.0" stroke="black" d="M 281 274 291 276"/>
<path stroke-width="20.0" stroke="black" d="M 291 276 281 274"/>
<path stroke-width="0.5" stroke="black" d="M 305 224 225 215"/>
<path stroke-width="20.0" stroke="black" d="M 305 224 315 224"/>
<path stroke-width="0.5" stroke="black" d="M 305 224 371 231"/>
<path stroke-width="20.0" stroke="black" d="M 315 224 305 224"/>
<path stroke-width="0.5" stroke="black" d="M 371 231 305 224"/>
<path stroke-width="20.0" stroke="black" d="M 371 231 386 231"/>
<path stroke-width="0.5" stroke="black" d="M 371 231 407 246"/>
<path stroke-width="20.0" stroke="black" d="M 386 231 371 231"/>
<path stroke-width="0.5" stroke="black" d="M 407 246 371 231"/>
<path stroke-width="20.0" stroke="black" d="M 407 246 420 247"/>
<path stroke-width="0.5" stroke="black" d="M 407 246 376 253"/>
<path stroke-width="20.0" stroke="black" d="M 420 247 407 246"/>
<path stroke-width="0.5" stroke="black" d="M 376 253 407 246"/>
<path stroke-width="20.0" stroke="black" d="M 376 253 385 251"/>
<path stroke-width="0.5" stroke="black" d="M 376 253 331 260"/>
<path stroke-width="20.0" stroke="black" d="M 385 251 376 253"/>
<path stroke-width="0.5" stroke="black" d="M 331 260 376 253"/>
<path stroke-width="20.0" stroke="black" d="M 331 260 327 256"/>
<path stroke-width="0.5" stroke="black" d="M 331 260 291 276"/>
<path stroke-width="20.0" stroke="black" d="M 327 256 331 260"/>
<path stroke-width="0.5" stroke="black" d="M 291 276 331 260"/>
<path stroke-width="0.5" stroke="black" d="M 291 276 277 298"/>
<path stroke-width="14.428571428571429" stroke="black" d="M 349 103 353 111"/>
<circle cx="354" cy="267" r="7.0" style="fill:gray;stroke:black;stroke-width:1.0"/>
<circle cx="339" cy="268" r="7.0" style="fill:gray;stroke:black;stroke-width:1.0"/>
<circle cx="295" cy="266" r="7.0" style="fill:gray;stroke:black;stroke-width:1.0"/>
<circle cx="298" cy="271" r="7.0" style="fill:gray;stroke:black;stroke-width:1.0"/>
<circle cx="249" cy="282" r="7.0" style="fill:gray;stroke:black;stroke-width:1.0"/>
<circle cx="259" cy="283" r="7.0" style="fill:gray;stroke:black;stroke-width:1.0"/>
<circle cx="232" cy="306" r="7.0" style="fill:gray;stroke:black;stroke-width:1.0"/>
<circle cx="242" cy="303" r="7.0" style="fill:gray;stroke:black;stroke-width:1.0"/>
<circle cx="273" cy="320" r="7.0" style="fill:gray;stroke:black;stroke-width:1.0"/>
<circle cx="267" cy="314" r="7.0" style="fill:gray;stroke:black;stroke-width:1.0"/>
<circle cx="274" cy="303" r="7.0" style="fill:gray;stroke:black;stroke-width:1.0"/>
<circle cx="277" cy="298" r="7.0" style="fill:gray;stroke:black;stroke-width:1.0"/>
<circle cx="281" cy="274" r="7.0" style="fill:gray;stroke:black;stroke-width:1.0"/>
<circle cx="291" cy="276" r="7.0" style="fill:gray;stroke:black;stroke-width:1.0"/>
<circle cx="327" cy="256" r="7.0" style="fill:gray;stroke:black;stroke-width:1.0"/>
<circle cx="331" cy="260" r="7.0" style="fill:gray;stroke:black;stroke-width:1.0"/>
<circle cx="385" cy="251" r="7.0" style="fill:gray;stroke:black;stroke-width:1.0"/>
<circle cx="376" cy="253" r="7.0" style="fill:gray;stroke:black;stroke-width:1.0"/>
<circle cx="420" cy="247" r="7.0" style="fill:gray;stroke:black;stroke-width:1.0"/>
<circle cx="407" cy="246" r="7.0" style="fill:gray;stroke:black;stroke-width:1.0"/>
<circle cx="386" cy="231" r="7.0" style="fill:gray;stroke:black;stroke-width:1.0"/>
<circle cx="371" cy="231" r="7.0" style="fill:gray;stroke:black;stroke-width:1.0"/>
<circle cx="315" cy="224" r="7.0" style="fill:gray;stroke:black;stroke-width:1.0"/>
<circle cx="305" cy="224" r="7.0" style="fill:gray;stroke:black;stroke-width:1.0"/>
<circle cx="225" cy="221" r="7.0" style="fill:gray;stroke:black;stroke-width:1.0"/>
<circle cx="225" cy="215" r="7.0" style="fill:gray;stroke:black;stroke-width:1.0"/>
<circle cx="137" cy="208" r="7.0" style="fill:gray;stroke:black;stroke-width:1.0"/>
<circle cx="146" cy="205" r="7.0" style="fill:gray;stroke:black;stroke-width:1.0"/>
<circle cx="64" cy="189" r="7.0" style="fill:gray;stroke:black;stroke-width:1.0"/>
<circle cx="76" cy="186" r="7.0" style="fill:gray;stroke:black;stroke-width:1.0"/>
<circle cx="20" cy="156" r="7.0" style="fill:gray;stroke:black;stroke-width:1.0"/>
<circle cx="34" cy="157" r="7.0" style="fill:gray;stroke:black;stroke-width:1.0"/>
<circle cx="29" cy="118" r="7.0" style="fill:gray;stroke:black;stroke-width:1.0"/>
<circle cx="39" cy="116" r="7.0" style="fill:gray;stroke:black;stroke-width:1.0"/>
<circle cx="57" cy="78" r="7.0" style="fill:gray;stroke:black;stroke-width:1.0"/>
<circle cx="67" cy="81" r="7.0" style="fill:gray;stroke:black;stroke-width:1.0"/>
<circle cx="108" cy="49" r="7.0" style="fill:gray;stroke:black;stroke-width:1.0"/>
<circle cx="116" cy="54" r="7.0" style="fill:gray;stroke:black;stroke-width:1.0"/>
<circle cx="178" cy="31" r="7.0" style="fill:gray;stroke:black;stroke-width:1.0"/>
<circle cx="174" cy="36" r="7.0" style="fill:gray;stroke:black;stroke-width:1.0"/>
<circle cx="237" cy="20" r="7.0" style="fill:gray;stroke:black;stroke-width:1.0"/>
<circle cx="231" cy="26" r="7.0" style="fill:gray;stroke:black;stroke-width:1.0"/>
<circle cx="292" cy="22" r="7.0" style="fill:gray;stroke:black;stroke-width:1.0"/>
<circle cx="282" cy="28" r="7.0" style="fill:gray;stroke:black;stroke-width:1.0"/>
<circle cx="314" cy="45" r="7.0" style="fill:gray;stroke:black;stroke-width:1.0"/>
<circle cx="313" cy="50" r="7.0" style="fill:gray;stroke:black;stroke-width:1.0"/>
<circle cx="341" cy="81" r="7.0" style="fill:gray;stroke:black;stroke-width:1.0"/>
<circle cx="335" cy="78" r="7.0" style="fill:gray;stroke:black;stroke-width:1.0"/>
<circle cx="353" cy="111" r="7.0" style="fill:gray;stroke:black;stroke-width:1.0"/>
<circle cx="349" cy="103" r="7.0" style="fill:gray;stroke:black;stroke-width:1.0"/>
</svg>
