<svg width="440" height="340" xmlns="http://www.w3.org/2000/svg">
<path stroke-width="1" stroke="black" d="M 239 295 205 290"/>
<path stroke-width="1" stroke="black" d="M 44 39 89 27"/>
<path stroke-width="1" stroke="black" d="M 44 39 20 34"/>
<path stroke-width="1" stroke="black" d="M 44 39 114 67"/>
<path stroke-width="1" stroke="black" d="M 20 34 44 39"/>
<path stroke-width="1" stroke="black" d="M 114 67 44 39"/>
<path stroke-width="1" stroke="black" d="M 114 67 100 61"/>
<path stroke-width="1" stroke="black" d="M 114 67 203 104"/>
<path stroke-width="1" stroke="black" d="M 100 61 114 67"/>
<path stroke-width="1" stroke="black" d="M 203 104 114 67"/>
<path stroke-width="1" stroke="black" d="M 72 20 89 27"/>
<path stroke-width="1" stroke="black" d="M 203 104 210 98"/>
<path stroke-width="1" stroke="black" d="M 210 98 203 104"/>
<path stroke-width="1" stroke="black" d="M 281 145 203 104"/>
<path stroke-width="1" stroke="black" d="M 281 145 303 146"/>
<path stroke-width="1" stroke="black" d="M 281 145 323 188"/>
<path stroke-width="1" stroke="black" d="M 303 146 281 145"/>
<path stroke-width="1" stroke="black" d="M 323 188 281 145"/>
<path stroke-width="1" stroke="black" d="M 323 188 343 192"/>
<path stroke-width="1" stroke="black" d="M 323 188 318 227"/>
<path stroke-width="1" stroke="black" d="M 343 192 323 188"/>
<path stroke-width="1" stroke="black" d="M 203 104 281 145"/>
<path stroke-width="1" stroke="black" d="M 89 27 44 39"/>
<path stroke-width="1" stroke="black" d="M 89 27 72 20"/>
<path stroke-width="1" stroke="black" d="M 89 27 173 48"/>
<path stroke-width="1" stroke="black" d="M 119 302 134 290"/>
<path stroke-width="1" stroke="black" d="M 181 250 134 290"/>
<path stroke-width="1" stroke="black" d="M 181 250 181 260"/>
<path stroke-width="1" stroke="black" d="M 181 250 218 199"/>
<path stroke-width="1" stroke="black" d="M 181 260 181 250"/>
<path stroke-width="1" stroke="black" d="M 218 199 181 250"/>
<path stroke-width="1" stroke="black" d="M 218 199 229 204"/>
<path stroke-width="1" stroke="black" d="M 218 199 241 142"/>
<path stroke-width="1" stroke="black" d="M 229 204 218 199"/>
<path stroke-width="1" stroke="black" d="M 241 142 218 199"/>
<path stroke-width="1" stroke="black" d="M 241 142 261 139"/>
<path stroke-width="1" stroke="black" d="M 241 142 232 89"/>
<path stroke-width="1" stroke="black" d="M 261 139 241 142"/>
<path stroke-width="1" stroke="black" d="M 232 89 241 142"/>
<path stroke-width="1" stroke="black" d="M 232 89 250 83"/>
<path stroke-width="1" stroke="black" d="M 232 89 173 48"/>
<path stroke-width="1" stroke="black" d="M 250 83 232 89"/>
<path stroke-width="1" stroke="black" d="M 173 48 232 89"/>
<path stroke-width="1" stroke="black" d="M 173 48 175 39"/>
<path stroke-width="1" stroke="black" d="M 173 48 89 27"/>
<path stroke-width="1" stroke="black" d="M 175 39 173 48"/>
<path stroke-width="1" stroke="black" d="M 318 227 323 188"/>
<path stroke-width="1" stroke="black" d="M 318 227 328 236"/>
<path stroke-width="1" stroke="black" d="M 318 227 270 246"/>
<path stroke-width="1" stroke="black" d="M 328 236 318 227"/>
<path stroke-width="1" stroke="black" d="M 231 298 228 305"/>
<path stroke-width="1" stroke="black" d="M 231 298 131 312"/>
<path stroke-width="1" stroke="black" d="M 228 305 231 298"/>
<path stroke-width="1" stroke="black" d="M 131 312 231 298"/>
<path stroke-width="1" stroke="black" d="M 131 312 124 320"/>
<path stroke-width="1" stroke="black" d="M 131 312 50 299"/>
<path stroke-width="1" stroke="black" d="M 124 320 131 312"/>
<path stroke-width="1" stroke="black" d="M 50 299 131 312"/>
<path stroke-width="1" stroke="black" d="M 50 299 23 300"/>
<path stroke-width="1" stroke="black" d="M 50 299 47 277"/>
<path stroke-width="1" stroke="black" d="M 23 300 50 299"/>
<path stroke-width="1" stroke="black" d="M 47 277 50 299"/>
<path stroke-width="1" stroke="black" d="M 47 277 29 271"/>
<path stroke-width="1" stroke="black" d="M 47 277 126 279"/>
<path stroke-width="1" stroke="black" d="M 29 271 47 277"/>
<path stroke-width="1" stroke="black" d="M 126 279 47 277"/>
<path stroke-width="1" stroke="black" d="M 126 279 122 273"/>
<path stroke-width="1" stroke="black" d="M 126 279 205 290"/>
<path stroke-width="1" stroke="black" d="M 122 273 126 279"/>
<path stroke-width="1" stroke="black" d="M 205 290 126 279"/>
<path stroke-width="1" stroke="black" d="M 205 290 239 295"/>
<path stroke-width="1" stroke="black" d="M 231 298 319 271"/>
<path stroke-width="1" stroke="black" d="M 134 290 181 250"/>
<path stroke-width="1" stroke="black" d="M 335 275 319 271"/>
<path stroke-width="1" stroke="black" d="M 319 271 335 275"/>
<path stroke-width="1" stroke="black" d="M 270 246 318 227"/>
<path stroke-width="1" stroke="black" d="M 270 246 252 251"/>
<path stroke-width="1" stroke="black" d="M 270 246 311 238"/>
<path stroke-width="1" stroke="black" d="M 252 251 270 246"/>
<path stroke-width="1" stroke="black" d="M 311 238 270 246"/>
<path stroke-width="1" stroke="black" d="M 311 238 302 244"/>
<path stroke-width="1" stroke="black" d="M 311 238 370 220"/>
<path stroke-width="1" stroke="black" d="M 302 244 311 238"/>
<path stroke-width="1" stroke="black" d="M 370 220 311 238"/>
<path stroke-width="1" stroke="black" d="M 370 220 386 217"/>
<path stroke-width="1" stroke="black" d="M 370 220 410 207"/>
<path stroke-width="1" stroke="black" d="M 386 217 370 220"/>
<path stroke-width="1" stroke="black" d="M 410 207 370 220"/>
<path stroke-width="1" stroke="black" d="M 410 207 420 199"/>
<path stroke-width="1" stroke="black" d="M 410 207 379 237"/>
<path stroke-width="1" stroke="black" d="M 420 199 410 207"/>
<path stroke-width="1" stroke="black" d="M 379 237 410 207"/>
<path stroke-width="1" stroke="black" d="M 379 237 396 232"/>
<path stroke-width="1" stroke="black" d="M 379 237 319 271"/>
<path stroke-width="1" stroke="black" d="M 396 232 379 237"/>
<path stroke-width="1" stroke="black" d="M 319 271 379 237"/>
<path stroke-width="1" stroke="black" d="M 319 271 231 298"/>
<path stroke-width="1" stroke="black" d="M 134 290 119 302"/>
<circle cx="239" cy="295" r="20.0" style="fill:gray;stroke:black;stroke-width:1.0"/>
<circle cx="205" cy="290" r="20.0" style="fill:gray;stroke:black;stroke-width:1.0"/>
<circle cx="122" cy="273" r="20.0" style="fill:gray;stroke:black;stroke-width:1.0"/>
<circle cx="126" cy="279" r="20.0" style="fill:gray;stroke:black;stroke-width:1.0"/>
<circle cx="29" cy="271" r="20.0" style="fill:gray;stroke:black;stroke-width:1.0"/>
<circle cx="47" cy="277" r="20.0" style="fill:gray;stroke:black;stroke-width:1.0"/>
<circle cx="23" cy="300" r="20.0" style="fill:gray;stroke:black;stroke-width:1.0"/>
<circle cx="50" cy="299" r="20.0" style="fill:gray;stroke:black;stroke-width:1.0"/>
<circle cx="124" cy="320" r="20.0" style="fill:gray;stroke:black;stroke-width:1.0"/>
<circle cx="131" cy="312" r="20.0" style="fill:gray;stroke:black;stroke-width:1.0"/>
<circle cx="228" cy="305" r="20.0" style="fill:gray;stroke:black;stroke-width:1.0"/>
<circle cx="231" cy="298" r="20.0" style="fill:gray;stroke:black;stroke-width:1.0"/>
<circle cx="335" cy="275" r="20.0" style="fill:gray;stroke:black;stroke-width:1.0"/>
<circle cx="319" cy="271" r="20.0" style="fill:gray;stroke:black;stroke-width:1.0"/>
<circle cx="396" cy="232" r="20.0" style="fill:gray;stroke:black;stroke-width:1.0"/>
<circle cx="379" cy="237" r="20.0" style="fill:gray;stroke:black;stroke-width:1.0"/>
<circle cx="420" cy="199" r="20.0" style="fill:gray;stroke:black;stroke-width:1.0"/>
<circle cx="410" cy="207" r="20.0" style="fill:gray;stroke:black;stroke-width:1.0"/>
<circle cx="386" cy="217" r="20.0" style="fill:gray;stroke:black;stroke-width:1.0"/>
<circle cx="370" cy="220" r="20.0" style="fill:gray;stroke:black;stroke-width:1.0"/>
<circle cx="302" cy="244" r="20.0" style="fill:gray;stroke:black;stroke-width:1.0"/>
<circle cx="311" cy="238" r="20.0" style="fill:gray;stroke:black;stroke-width:1.0"/>
<circle cx="252" cy="251" r="20.0" style="fill:gray;stroke:black;stroke-width:1.0"/>
<circle cx="270" cy="246" r="20.0" style="fill:gray;stroke:black;stroke-width:1.0"/>
<circle cx="328" cy="236" r="20.0" style="fill:gray;stroke:black;stroke-width:1.0"/>
<circle cx="318" cy="227" r="20.0" style="fill:gray;stroke:black;stroke-width:1.0"/>
<circle cx="343" cy="192" r="20.0" style="fill:gray;stroke:black;stroke-width:1.0"/>
<circle cx="323" cy="188" r="20.0" style="fill:gray;stroke:black;stroke-width:1.0"/>
<circle cx="303" cy="146" r="20.0" style="fill:gray;stroke:black;stroke-width:1.0"/>
<circle cx="281" cy="145" r="20.0" style="fill:gray;stroke:black;stroke-width:1.0"/>
<circle cx="210" cy="98" r="20.0" style="fill:gray;stroke:black;stroke-width:1.0"/>
<circle cx="203" cy="104" r="20.0" style="fill:gray;stroke:black;stroke-width:1.0"/>
<circle cx="100" cy="61" r="20.0" style="fill:gray;stroke:black;stroke-width:1.0"/>
<circle cx="114" cy="67" r="20.0" style="fill:gray;stroke:black;stroke-width:1.0"/>
<circle cx="20" cy="34" r="20.0" style="fill:gray;stroke:black;stroke-width:1.0"/>
<circle cx="44" cy="39" r="20.0" style="fill:gray;stroke:black;stroke-width:1.0"/>
<circle cx="72" cy="20" r="20.0" style="fill:gray;stroke:black;stroke-width:1.0"/>
<circle cx="89" cy="27" r="20.0" style="fill:gray;stroke:black;stroke-width:1.0"/>
<circle cx="175" cy="39" r="20.0" style="fill:gray;stroke:black;stroke-width:1.0"/>
<circle cx="173" cy="48" r="20.0" style="fill:gray;stroke:black;stroke-width:1.0"/>
<circle cx="250" cy="83" r="20.0" style="fill:gray;stroke:black;stroke-width:1.0"/>
<circle cx="232" cy="89" r="20.0" style="fill:gray;stroke:black;stroke-width:1.0"/>
<circle cx="261" cy="139" r="20.0" style="fill:gray;stroke:black;stroke-width:1.0"/>
<circle cx="241" cy="142" r="20.0" style="fill:gray;stroke:black;stroke-width:1.0"/>
<circle cx="229" cy="204" r="20.0" style="fill:gray;stroke:black;stroke-width:1.0"/>
<circle cx="218" cy="199" r="20.0" style="fill:gray;stroke:black;stroke-width:1.0"/>
<circle cx="181" cy="260" r="20.0" style="fill:gray;stroke:black;stroke-width:1.0"/>
<circle cx="181" cy="250" r="20.0" style="fill:gray;stroke:black;stroke-width:1.0"/>
<circle cx="119" cy="302" r="20.0" style="fill:gray;stroke:black;stroke-width:1.0"/>
<circle cx="134" cy="290" r="20.0" style="fill:gray;stroke:black;stroke-width:1.0"/>
</svg>
