<svg width="440" height="340" xmlns="http://www.w3.org/2000/svg">
<path stroke-width="8.857142857142858" stroke="black" d="M 139 20 133 39"/>
<path stroke-width="0.5" stroke="black" d="M 284 278 325 260"/>
<path stroke-width="20.0" stroke="black" d="M 284 278 293 283"/>
<path stroke-width="0.5" stroke="black" d="M 284 278 232 280"/>
<path stroke-width="20.0" stroke="black" d="M 293 283 284 278"/>
<path stroke-width="0.5" stroke="black" d="M 232 280 284 278"/>
<path stroke-width="20.0" stroke="black" d="M 232 280 230 293"/>
<path stroke-width="0.5" stroke="black" d="M 232 280 192 244"/>
<path stroke-width="20.0" stroke="black" d="M 230 293 232 280"/>
<path stroke-width="0.5" stroke="black" d="M 192 244 232 280"/>
<path stroke-width="20.0" stroke="black" d="M 338 263 325 260"/>
<path stroke-width="20.0" stroke="black" d="M 192 244 182 253"/>
<path stroke-width="20.0" stroke="black" d="M 182 253 192 244"/>
<path stroke-width="0.5" stroke="black" d="M 184 186 192 244"/>
<path stroke-width="20.0" stroke="black" d="M 184 186 175 192"/>
<path stroke-width="0.5" stroke="black" d="M 184 186 193 124"/>
<path stroke-width="20.0" stroke="black" d="M 175 192 184 186"/>
<path stroke-width="0.5" stroke="black" d="M 193 124 184 186"/>
<path stroke-width="20.0" stroke="black" d="M 193 124 191 114"/>
<path stroke-width="0.5" stroke="black" d="M 193 124 209 75"/>
<path stroke-width="20.0" stroke="black" d="M 191 114 193 124"/>
<path stroke-width="0.5" stroke="black" d="M 192 244 184 186"/>
<path stroke-width="0.5" stroke="black" d="M 325 260 284 278"/>
<path stroke-width="20.0" stroke="black" d="M 325 260 338 263"/>
<path stroke-width="0.5" stroke="black" d="M 325 260 327 225"/>
<path stroke-width="14.428571428571429" stroke="black" d="M 420 85 408 91"/>
<path stroke-width="0.5" stroke="black" d="M 372 111 408 91"/>
<path stroke-width="20.0" stroke="black" d="M 372 111 381 113"/>
<path stroke-width="0.5" stroke="black" d="M 372 111 329 129"/>
<path stroke-width="20.0" stroke="black" d="M 381 113 372 111"/>
<path stroke-width="0.5" stroke="black" d="M 329 129 372 111"/>
<path stroke-width="20.0" stroke="black" d="M 329 129 322 123"/>
<path stroke-width="0.5" stroke="black" d="M 329 129 297 159"/>
<path stroke-width="20.0" stroke="black" d="M 322 123 329 129"/>
<path stroke-width="0.5" stroke="black" d="M 297 159 329 129"/>
<path stroke-width="20.0" stroke="black" d="M 297 159 284 158"/>
<path stroke-width="0.5" stroke="black" d="M 297 159 302 196"/>
<path stroke-width="20.0" stroke="black" d="M 284 158 297 159"/>
<path stroke-width="0.5" stroke="black" d="M 302 196 297 159"/>
<path stroke-width="20.0" stroke="black" d="M 302 196 293 201"/>
<path stroke-width="0.5" stroke="black" d="M 302 196 327 225"/>
<path stroke-width="20.0" stroke="black" d="M 293 201 302 196"/>
<path stroke-width="0.5" stroke="black" d="M 327 225 302 196"/>
<path stroke-width="20.0" stroke="black" d="M 327 225 337 222"/>
<path stroke-width="0.5" stroke="black" d="M 327 225 325 260"/>
<path stroke-width="20.0" stroke="black" d="M 337 222 327 225"/>
<path stroke-width="0.5" stroke="black" d="M 209 75 193 124"/>
<path stroke-width="20.0" stroke="black" d="M 209 75 211 60"/>
<path stroke-width="0.5" stroke="black" d="M 209 75 234 87"/>
<path stroke-width="20.0" stroke="black" d="M 211 60 209 75"/>
<path stroke-width="20.0" stroke="black" d="M 32 292 20 290"/>
<path stroke-width="0.5" stroke="black" d="M 32 292 44 260"/>
<path stroke-width="20.0" stroke="black" d="M 20 290 32 292"/>
<path stroke-width="0.5" stroke="black" d="M 44 260 32 292"/>
<path stroke-width="20.0" stroke="black" d="M 44 260 37 270"/>
<path stroke-width="0.5" stroke="black" d="M 44 260 71 214"/>
<path stroke-width="20.0" stroke="black" d="M 37 270 44 260"/>
<path stroke-width="0.5" stroke="black" d="M 71 214 44 260"/>
<path stroke-width="20.0" stroke="black" d="M 71 214 71 225"/>
<path stroke-width="0.5" stroke="black" d="M 71 214 96 154"/>
<path stroke-width="20.0" stroke="black" d="M 71 225 71 214"/>
<path stroke-width="0.5" stroke="black" d="M 96 154 71 214"/>
<path stroke-width="20.0" stroke="black" d="M 96 154 102 161"/>
<path stroke-width="0.5" stroke="black" d="M 96 154 117 91"/>
<path stroke-width="20.0" stroke="black" d="M 102 161 96 154"/>
<path stroke-width="0.5" stroke="black" d="M 117 91 96 154"/>
<path stroke-width="20.0" stroke="black" d="M 117 91 121 81"/>
<path stroke-width="0.5" stroke="black" d="M 117 91 133 39"/>
<path stroke-width="20.0" stroke="black" d="M 121 81 117 91"/>
<path stroke-width="0.5" stroke="black" d="M 133 39 117 91"/>
<path stroke-width="8.857142857142858" stroke="black" d="M 133 39 139 20"/>
<path stroke-width="0.5" stroke="black" d="M 32 292 78 310"/>
<path stroke-width="0.5" stroke="black" d="M 408 91 372 111"/>
<path stroke-width="20.0" stroke="black" d="M 70 318 78 310"/>
<path stroke-width="20.0" stroke="black" d="M 78 310 70 318"/>
<path stroke-width="0.5" stroke="black" d="M 234 87 209 75"/>
<path stroke-width="20.0" stroke="black" d="M 234 87 237 75"/>
<path stroke-width="0.5" stroke="black" d="M 234 87 229 145"/>
<path stroke-width="20.0" stroke="black" d="M 237 75 234 87"/>
<path stroke-width="0.5" stroke="black" d="M 229 145 234 87"/>
<path stroke-width="20.0" stroke="black" d="M 229 145 236 134"/>
<path stroke-width="0.5" stroke="black" d="M 229 145 215 207"/>
<path stroke-width="20.0" stroke="black" d="M 236 134 229 145"/>
<path stroke-width="0.5" stroke="black" d="M 215 207 229 145"/>
<path stroke-width="20.0" stroke="black" d="M 215 207 226 212"/>
<path stroke-width="0.5" stroke="black" d="M 215 207 183 268"/>
<path stroke-width="20.0" stroke="black" d="M 226 212 215 207"/>
<path stroke-width="0.5" stroke="black" d="M 183 268 215 207"/>
<path stroke-width="20.0" stroke="black" d="M 183 268 188 279"/>
<path stroke-width="0.5" stroke="black" d="M 183 268 135 307"/>
<path stroke-width="20.0" stroke="black" d="M 188 279 183 268"/>
<path stroke-width="0.5" stroke="black" d="M 135 307 183 268"/>
<path stroke-width="20.0" stroke="black" d="M 135 307 136 320"/>
<path stroke-width="0.5" stroke="black" d="M 135 307 78 310"/>
<path stroke-width="20.0" stroke="black" d="M 136 320 135 307"/>
<path stroke-width="0.5" stroke="black" d="M 78 310 135 307"/>
<path stroke-width="0.5" stroke="black" d="M 78 310 32 292"/>
<path stroke-width="14.428571428571429" stroke="black" d="M 408 91 420 85"/>
<circle cx="139" cy="20" r="7.0" style="fill:blue;stroke:black;stroke-width:1.0"/>
<circle cx="133" cy="39" r="7.0" style="fill:blue;stroke:black;stroke-width:1.0"/>
<circle cx="121" cy="81" r="7.0" style="fill:blue;stroke:black;stroke-width:1.0"/>
<circle cx="117" cy="91" r="7.0" style="fill:blue;stroke:black;stroke-width:1.0"/>
<circle cx="102" cy="161" r="7.0" style="fill:red;stroke:black;stroke-width:1.0"/>
<circle cx="96" cy="154" r="7.0" style="fill:red;stroke:black;stroke-width:1.0"/>
<circle cx="71" cy="225" r="7.0" style="fill:red;stroke:black;stroke-width:1.0"/>
<circle cx="71" cy="214" r="7.0" style="fill:red;stroke:black;stroke-width:1.0"/>
<circle cx="37" cy="270" r="7.0" style="fill:green;stroke:black;stroke-width:1.0"/>
<circle cx="44" cy="260" r="7.0" style="fill:green;stroke:black;stroke-width:1.0"/>
<circle cx="20" cy="290" r="7.0" style="fill:green;stroke:black;stroke-width:1.0"/>
<circle cx="32" cy="292" r="7.0" style="fill:green;stroke:black;stroke-width:1.0"/>
<circle cx="70" cy="318" r="7.0" style="fill:orange;stroke:black;stroke-width:1.0"/>
<circle cx="78" cy="310" r="7.0" style="fill:orange;stroke:black;stroke-width:1.0"/>
<circle cx="136" cy="320" r="7.0" style="fill:orange;stroke:black;stroke-width:1.0"/>
<circle cx="135" cy="307" r="7.0" style="fill:orange;stroke:black;stroke-width:1.0"/>
<circle cx="188" cy="279" r="7.0" style="fill:purple;stroke:black;stroke-width:1.0"/>
<circle cx="183" cy="268" r="7.0" style="fill:purple;stroke:black;stroke-width:1.0"/>
<circle cx="226" cy="212" r="7.0" style="fill:purple;stroke:black;stroke-width:1.0"/>
<circle cx="215" cy="207" r="7.0" style="fill:purple;stroke:black;stroke-width:1.0"/>
<circle cx="236" cy="134" r="7.0" style="fill:yellow;stroke:black;stroke-width:1.0"/>
<circle cx="229" cy="145" r="7.0" style="fill:yellow;stroke:black;stroke-width:1.0"/>
<circle cx="237" cy="75" r="7.0" style="fill:yellow;stroke:black;stroke-width:1.0"/>
<circle cx="234" cy="87" r="7.0" style="fill:yellow;stroke:black;stroke-width:1.0"/>
<circle cx="211" cy="60" r="7.0" style="fill:fuchsia;stroke:black;stroke-width:1.0"/>
<circle cx="209" cy="75" r="7.0" style="fill:fuchsia;stroke:black;stroke-width:1.0"/>
<circle cx="191" cy="114" r="7.0" style="fill:fuchsia;stroke:black;stroke-width:1.0"/>
<circle cx="193" cy="124" r="7.0" style="fill:fuchsia;stroke:black;stroke-width:1.0"/>
<circle cx="175" cy="192" r="7.0" style="fill:olive;stroke:black;stroke-width:1.0"/>
<circle cx="184" cy="186" r="7.0" style="fill:olive;stroke:black;stroke-width:1.0"/>
<circle cx="182" cy="253" r="7.0" style="fill:olive;stroke:black;stroke-width:1.0"/>
<circle cx="192" cy="244" r="7.0" style="fill:olive;stroke:black;stroke-width:1.0"/>
<circle cx="230" cy="293" r="7.0" style="fill:aqua;stroke:black;stroke-width:1.0"/>
<circle cx="232" cy="280" r="7.0" style="fill:aqua;stroke:black;stroke-width:1.0"/>
<circle cx="293" cy="283" r="7.0" style="fill:aqua;stroke:black;stroke-width:1.0"/>
<circle cx="284" cy="278" r="7.0" style="fill:aqua;stroke:black;stroke-width:1.0"/>
<circle cx="338" cy="263" r="7.0" style="fill:brown;stroke:black;stroke-width:1.0"/>
<circle cx="325" cy="260" r="7.0" style="fill:brown;stroke:black;stroke-width:1.0"/>
<circle cx="337" cy="222" r="7.0" style="fill:brown;stroke:black;stroke-width:1.0"/>
<circle cx="327" cy="225" r="7.0" style="fill:brown;stroke:black;stroke-width:1.0"/>
<circle cx="293" cy="201" r="7.0" style="fill:blue;stroke:black;stroke-width:1.0"/>
<circle cx="302" cy="196" r="7.0" style="fill:blue;stroke:black;stroke-width:1.0"/>
<circle cx="284" cy="158" r="7.0" style="fill:blue;stroke:black;stroke-width:1.0"/>
<circle cx="297" cy="159" r="7.0" style="fill:blue;stroke:black;stroke-width:1.0"/>
<circle cx="322" cy="123" r="7.0" style="fill:green;stroke:black;stroke-width:1.0"/>
<circle cx="329" cy="129" r="7.0" style="fill:green;stroke:black;stroke-width:1.0"/>
<circle cx="381" cy="113" r="7.0" style="fill:red;stroke:black;stroke-width:1.0"/>
<circle cx="372" cy="111" r="7.0" style="fill:red;stroke:black;stroke-width:1.0"/>
<circle cx="420" cy="85" r="7.0" style="fill:red;stroke:black;stroke-width:1.0"/>
<circle cx="408" cy="91" r="7.0" style="fill:red;stroke:black;stroke-width:1.0"/>
</svg>
