<svg width="440" height="340" xmlns="http://www.w3.org/2000/svg">
<path stroke-width="1" stroke="black" d="M 413 49 396 52"/>
<path stroke-width="1" stroke="black" d="M 270 70 223 103"/>
<path stroke-width="1" stroke="black" d="M 270 70 321 46"/>
<path stroke-width="1" stroke="black" d="M 269 60 270 70"/>
<path stroke-width="1" stroke="black" d="M 136 166 132 177"/>
<path stroke-width="1" stroke="black" d="M 136 166 179 138"/>
<path stroke-width="1" stroke="black" d="M 136 166 95 175"/>
<path stroke-width="1" stroke="black" d="M 132 177 136 166"/>
<path stroke-width="1" stroke="black" d="M 288 240 278 193"/>
<path stroke-width="1" stroke="black" d="M 288 240 299 250"/>
<path stroke-width="1" stroke="black" d="M 288 240 269 274"/>
<path stroke-width="1" stroke="black" d="M 299 250 288 240"/>
<path stroke-width="1" stroke="black" d="M 269 274 288 240"/>
<path stroke-width="1" stroke="black" d="M 269 274 278 281"/>
<path stroke-width="1" stroke="black" d="M 269 274 235 296"/>
<path stroke-width="1" stroke="black" d="M 278 281 269 274"/>
<path stroke-width="1" stroke="black" d="M 115 274 113 284"/>
<path stroke-width="1" stroke="black" d="M 115 274 82 239"/>
<path stroke-width="1" stroke="black" d="M 115 274 155 299"/>
<path stroke-width="1" stroke="black" d="M 113 284 115 274"/>
<path stroke-width="1" stroke="black" d="M 55 33 104 33"/>
<path stroke-width="1" stroke="black" d="M 55 33 39 25"/>
<path stroke-width="1" stroke="black" d="M 55 33 38 61"/>
<path stroke-width="1" stroke="black" d="M 39 25 55 33"/>
<path stroke-width="1" stroke="black" d="M 38 61 77 84"/>
<path stroke-width="1" stroke="black" d="M 38 61 55 33"/>
<path stroke-width="1" stroke="black" d="M 38 61 20 60"/>
<path stroke-width="1" stroke="black" d="M 20 60 38 61"/>
<path stroke-width="1" stroke="black" d="M 270 70 269 60"/>
<path stroke-width="1" stroke="black" d="M 223 103 270 70"/>
<path stroke-width="1" stroke="black" d="M 262 144 250 144"/>
<path stroke-width="1" stroke="black" d="M 250 144 262 144"/>
<path stroke-width="1" stroke="black" d="M 210 98 140 95"/>
<path stroke-width="1" stroke="black" d="M 209 109 210 98"/>
<path stroke-width="1" stroke="black" d="M 284 88 210 98"/>
<path stroke-width="1" stroke="black" d="M 284 88 296 94"/>
<path stroke-width="1" stroke="black" d="M 284 88 347 72"/>
<path stroke-width="1" stroke="black" d="M 296 94 284 88"/>
<path stroke-width="1" stroke="black" d="M 104 33 98 21"/>
<path stroke-width="1" stroke="black" d="M 104 33 55 33"/>
<path stroke-width="1" stroke="black" d="M 104 33 159 57"/>
<path stroke-width="1" stroke="black" d="M 98 21 104 33"/>
<path stroke-width="1" stroke="black" d="M 347 72 284 88"/>
<path stroke-width="1" stroke="black" d="M 347 72 364 72"/>
<path stroke-width="1" stroke="black" d="M 347 72 396 52"/>
<path stroke-width="1" stroke="black" d="M 364 72 347 72"/>
<path stroke-width="1" stroke="black" d="M 278 193 292 200"/>
<path stroke-width="1" stroke="black" d="M 278 193 250 144"/>
<path stroke-width="1" stroke="black" d="M 278 193 288 240"/>
<path stroke-width="1" stroke="black" d="M 292 200 278 193"/>
<path stroke-width="1" stroke="black" d="M 77 84 60 88"/>
<path stroke-width="1" stroke="black" d="M 77 84 140 95"/>
<path stroke-width="1" stroke="black" d="M 77 84 38 61"/>
<path stroke-width="1" stroke="black" d="M 60 88 77 84"/>
<path stroke-width="1" stroke="black" d="M 140 95 210 98"/>
<path stroke-width="1" stroke="black" d="M 140 95 77 84"/>
<path stroke-width="1" stroke="black" d="M 140 95 127 100"/>
<path stroke-width="1" stroke="black" d="M 127 100 140 95"/>
<path stroke-width="1" stroke="black" d="M 250 144 278 193"/>
<path stroke-width="1" stroke="black" d="M 250 144 207 93"/>
<path stroke-width="1" stroke="black" d="M 223 103 216 97"/>
<path stroke-width="1" stroke="black" d="M 223 103 179 138"/>
<path stroke-width="1" stroke="black" d="M 216 97 223 103"/>
<path stroke-width="1" stroke="black" d="M 155 299 115 274"/>
<path stroke-width="1" stroke="black" d="M 155 299 158 309"/>
<path stroke-width="1" stroke="black" d="M 155 299 197 308"/>
<path stroke-width="1" stroke="black" d="M 158 309 155 299"/>
<path stroke-width="1" stroke="black" d="M 321 46 270 70"/>
<path stroke-width="1" stroke="black" d="M 321 46 326 36"/>
<path stroke-width="1" stroke="black" d="M 321 46 369 33"/>
<path stroke-width="1" stroke="black" d="M 326 36 321 46"/>
<path stroke-width="1" stroke="black" d="M 369 33 321 46"/>
<path stroke-width="1" stroke="black" d="M 369 33 381 29"/>
<path stroke-width="1" stroke="black" d="M 369 33 406 27"/>
<path stroke-width="1" stroke="black" d="M 381 29 369 33"/>
<path stroke-width="1" stroke="black" d="M 197 308 155 299"/>
<path stroke-width="1" stroke="black" d="M 197 308 199 320"/>
<path stroke-width="1" stroke="black" d="M 197 308 235 296"/>
<path stroke-width="1" stroke="black" d="M 199 320 197 308"/>
<path stroke-width="1" stroke="black" d="M 235 296 269 274"/>
<path stroke-width="1" stroke="black" d="M 235 296 197 308"/>
<path stroke-width="1" stroke="black" d="M 235 296 230 293"/>
<path stroke-width="1" stroke="black" d="M 230 293 235 296"/>
<path stroke-width="1" stroke="black" d="M 406 27 369 33"/>
<path stroke-width="1" stroke="black" d="M 406 27 420 20"/>
<path stroke-width="1" stroke="black" d="M 406 27 396 52"/>
<path stroke-width="1" stroke="black" d="M 420 20 406 27"/>
<path stroke-width="1" stroke="black" d="M 396 52 347 72"/>
<path stroke-width="1" stroke="black" d="M 396 52 406 27"/>
<path stroke-width="1" stroke="black" d="M 396 52 413 49"/>
<path stroke-width="1" stroke="black" d="M 39 155 46 168"/>
<path stroke-width="1" stroke="black" d="M 46 168 39 155"/>
<path stroke-width="1" stroke="black" d="M 46 168 58 201"/>
<path stroke-width="1" stroke="black" d="M 46 168 66 163"/>
<path stroke-width="1" stroke="black" d="M 179 138 136 166"/>
<path stroke-width="1" stroke="black" d="M 179 138 223 103"/>
<path stroke-width="1" stroke="black" d="M 179 138 173 148"/>
<path stroke-width="1" stroke="black" d="M 173 148 179 138"/>
<path stroke-width="1" stroke="black" d="M 207 93 250 144"/>
<path stroke-width="1" stroke="black" d="M 207 93 216 85"/>
<path stroke-width="1" stroke="black" d="M 207 93 159 57"/>
<path stroke-width="1" stroke="black" d="M 216 85 207 93"/>
<path stroke-width="1" stroke="black" d="M 159 57 104 33"/>
<path stroke-width="1" stroke="black" d="M 159 57 207 93"/>
<path stroke-width="1" stroke="black" d="M 159 57 161 44"/>
<path stroke-width="1" stroke="black" d="M 161 44 159 57"/>
<path stroke-width="1" stroke="black" d="M 95 175 136 166"/>
<path stroke-width="1" stroke="black" d="M 210 98 284 88"/>
<path stroke-width="1" stroke="black" d="M 95 175 86 184"/>
<path stroke-width="1" stroke="black" d="M 86 184 95 175"/>
<path stroke-width="1" stroke="black" d="M 66 163 95 175"/>
<path stroke-width="1" stroke="black" d="M 66 163 60 155"/>
<path stroke-width="1" stroke="black" d="M 66 163 46 168"/>
<path stroke-width="1" stroke="black" d="M 60 155 66 163"/>
<path stroke-width="1" stroke="black" d="M 82 239 115 274"/>
<path stroke-width="1" stroke="black" d="M 82 239 73 243"/>
<path stroke-width="1" stroke="black" d="M 82 239 58 201"/>
<path stroke-width="1" stroke="black" d="M 73 243 82 239"/>
<path stroke-width="1" stroke="black" d="M 58 201 82 239"/>
<path stroke-width="1" stroke="black" d="M 58 201 49 194"/>
<path stroke-width="1" stroke="black" d="M 58 201 46 168"/>
<path stroke-width="1" stroke="black" d="M 49 194 58 201"/>
<path stroke-width="1" stroke="black" d="M 95 175 66 163"/>
<path stroke-width="1" stroke="black" d="M 210 98 209 109"/>
<circle cx="413" cy="49" r="7.0" style="fill:gray;stroke:black;stroke-width:1.0"/>
<circle cx="396" cy="52" r="7.0" style="fill:gray;stroke:black;stroke-width:1.0"/>
<circle cx="420" cy="20" r="7.0" style="fill:gray;stroke:black;stroke-width:1.0"/>
<circle cx="406" cy="27" r="7.0" style="fill:gray;stroke:black;stroke-width:1.0"/>
<circle cx="230" cy="293" r="7.0" style="fill:gray;stroke:black;stroke-width:1.0"/>
<circle cx="235" cy="296" r="7.0" style="fill:gray;stroke:black;stroke-width:1.0"/>
<circle cx="199" cy="320" r="7.0" style="fill:gray;stroke:black;stroke-width:1.0"/>
<circle cx="197" cy="308" r="7.0" style="fill:gray;stroke:black;stroke-width:1.0"/>
<circle cx="381" cy="29" r="7.0" style="fill:gray;stroke:black;stroke-width:1.0"/>
<circle cx="369" cy="33" r="7.0" style="fill:gray;stroke:black;stroke-width:1.0"/>
<circle cx="326" cy="36" r="7.0" style="fill:gray;stroke:black;stroke-width:1.0"/>
<circle cx="321" cy="46" r="7.0" style="fill:gray;stroke:black;stroke-width:1.0"/>
<circle cx="158" cy="309" r="7.0" style="fill:gray;stroke:black;stroke-width:1.0"/>
<circle cx="155" cy="299" r="7.0" style="fill:gray;stroke:black;stroke-width:1.0"/>
<circle cx="39" cy="155" r="7.0" style="fill:gray;stroke:black;stroke-width:1.0"/>
<circle cx="46" cy="168" r="7.0" style="fill:gray;stroke:black;stroke-width:1.0"/>
<circle cx="49" cy="194" r="7.0" style="fill:gray;stroke:black;stroke-width:1.0"/>
<circle cx="58" cy="201" r="7.0" style="fill:gray;stroke:black;stroke-width:1.0"/>
<circle cx="73" cy="243" r="7.0" style="fill:gray;stroke:black;stroke-width:1.0"/>
<circle cx="82" cy="239" r="7.0" style="fill:gray;stroke:black;stroke-width:1.0"/>
<circle cx="60" cy="155" r="7.0" style="fill:gray;stroke:black;stroke-width:1.0"/>
<circle cx="66" cy="163" r="7.0" style="fill:gray;stroke:black;stroke-width:1.0"/>
<circle cx="86" cy="184" r="7.0" style="fill:gray;stroke:black;stroke-width:1.0"/>
<circle cx="95" cy="175" r="7.0" style="fill:gray;stroke:black;stroke-width:1.0"/>
<circle cx="161" cy="44" r="7.0" style="fill:gray;stroke:black;stroke-width:1.0"/>
<circle cx="159" cy="57" r="7.0" style="fill:gray;stroke:black;stroke-width:1.0"/>
<circle cx="216" cy="85" r="7.0" style="fill:gray;stroke:black;stroke-width:1.0"/>
<circle cx="207" cy="93" r="7.0" style="fill:gray;stroke:black;stroke-width:1.0"/>
<circle cx="173" cy="148" r="7.0" style="fill:gray;stroke:black;stroke-width:1.0"/>
<circle cx="179" cy="138" r="7.0" style="fill:gray;stroke:black;stroke-width:1.0"/>
<circle cx="216" cy="97" r="7.0" style="fill:gray;stroke:black;stroke-width:1.0"/>
<circle cx="223" cy="103" r="7.0" style="fill:gray;stroke:black;stroke-width:1.0"/>
<circle cx="20" cy="60" r="7.0" style="fill:gray;stroke:black;stroke-width:1.0"/>
<circle cx="38" cy="61" r="7.0" style="fill:gray;stroke:black;stroke-width:1.0"/>
<circle cx="39" cy="25" r="7.0" style="fill:gray;stroke:black;stroke-width:1.0"/>
<circle cx="55" cy="33" r="7.0" style="fill:gray;stroke:black;stroke-width:1.0"/>
<circle cx="113" cy="284" r="7.0" style="fill:gray;stroke:black;stroke-width:1.0"/>
<circle cx="115" cy="274" r="7.0" style="fill:gray;stroke:black;stroke-width:1.0"/>
<circle cx="278" cy="281" r="7.0" style="fill:gray;stroke:black;stroke-width:1.0"/>
<circle cx="269" cy="274" r="7.0" style="fill:gray;stroke:black;stroke-width:1.0"/>
<circle cx="299" cy="250" r="7.0" style="fill:gray;stroke:black;stroke-width:1.0"/>
<circle cx="288" cy="240" r="7.0" style="fill:gray;stroke:black;stroke-width:1.0"/>
<circle cx="132" cy="177" r="7.0" style="fill:gray;stroke:black;stroke-width:1.0"/>
<circle cx="136" cy="166" r="7.0" style="fill:gray;stroke:black;stroke-width:1.0"/>
<circle cx="269" cy="60" r="7.0" style="fill:gray;stroke:black;stroke-width:1.0"/>
<circle cx="270" cy="70" r="7.0" style="fill:gray;stroke:black;stroke-width:1.0"/>
<circle cx="262" cy="144" r="7.0" style="fill:gray;stroke:black;stroke-width:1.0"/>
<circle cx="250" cy="144" r="7.0" style="fill:gray;stroke:black;stroke-width:1.0"/>
<circle cx="127" cy="100" r="7.0" style="fill:gray;stroke:black;stroke-width:1.0"/>
<circle cx="140" cy="95" r="7.0" style="fill:gray;stroke:black;stroke-width:1.0"/>
<circle cx="60" cy="88" r="7.0" style="fill:gray;stroke:black;stroke-width:1.0"/>
<circle cx="77" cy="84" r="7.0" style="fill:gray;stroke:black;stroke-width:1.0"/>
<circle cx="292" cy="200" r="7.0" style="fill:gray;stroke:black;stroke-width:1.0"/>
<circle cx="278" cy="193" r="7.0" style="fill:gray;stroke:black;stroke-width:1.0"/>
<circle cx="364" cy="72" r="7.0" style="fill:gray;stroke:black;stroke-width:1.0"/>
<circle cx="347" cy="72" r="7.0" style="fill:gray;stroke:black;stroke-width:1.0"/>
<circle cx="98" cy="21" r="7.0" style="fill:gray;stroke:black;stroke-width:1.0"/>
<circle cx="104" cy="33" r="7.0" style="fill:gray;stroke:black;stroke-width:1.0"/>
<circle cx="296" cy="94" r="7.0" style="fill:gray;stroke:black;stroke-width:1.0"/>
<circle cx="284" cy="88" r="7.0" style="fill:gray;stroke:black;stroke-width:1.0"/>
<circle cx="209" cy="109" r="7.0" style="fill:gray;stroke:black;stroke-width:1.0"/>
<circle cx="210" cy="98" r="7.0" style="fill:gray;stroke:black;stroke-width:1.0"/>
</svg>
