<svg width="440" height="340" xmlns="http://www.w3.org/2000/svg">
<path stroke-width="20.0" stroke="black" d="M 148 320 148 307"/>
<path stroke-width="0.5" stroke="black" d="M 68 156 45 108"/>
<path stroke-width="0.5" stroke="black" d="M 68 156 87 204"/>
<path stroke-width="20.0" stroke="black" d="M 62 159 68 156"/>
<path stroke-width="20.0" stroke="black" d="M 26 32 20 20"/>
<path stroke-width="0.5" stroke="black" d="M 26 32 32 65"/>
<path stroke-width="0.5" stroke="black" d="M 26 32 58 34"/>
<path stroke-width="20.0" stroke="black" d="M 20 20 26 32"/>
<path stroke-width="0.5" stroke="black" d="M 407 137 401 107"/>
<path stroke-width="20.0" stroke="black" d="M 407 137 420 142"/>
<path stroke-width="0.5" stroke="black" d="M 407 137 389 162"/>
<path stroke-width="20.0" stroke="black" d="M 420 142 407 137"/>
<path stroke-width="0.5" stroke="black" d="M 389 162 407 137"/>
<path stroke-width="20.0" stroke="black" d="M 389 162 399 160"/>
<path stroke-width="0.5" stroke="black" d="M 389 162 360 183"/>
<path stroke-width="20.0" stroke="black" d="M 399 160 389 162"/>
<path stroke-width="20.0" stroke="black" d="M 239 173 247 170"/>
<path stroke-width="0.5" stroke="black" d="M 239 173 198 155"/>
<path stroke-width="0.5" stroke="black" d="M 239 173 279 189"/>
<path stroke-width="20.0" stroke="black" d="M 247 170 239 173"/>
<path stroke-width="0.5" stroke="black" d="M 234 41 274 33"/>
<path stroke-width="20.0" stroke="black" d="M 234 41 233 33"/>
<path stroke-width="0.5" stroke="black" d="M 234 41 204 65"/>
<path stroke-width="20.0" stroke="black" d="M 233 33 234 41"/>
<path stroke-width="0.5" stroke="black" d="M 204 65 190 104"/>
<path stroke-width="0.5" stroke="black" d="M 204 65 234 41"/>
<path stroke-width="20.0" stroke="black" d="M 204 65 199 53"/>
<path stroke-width="20.0" stroke="black" d="M 199 53 204 65"/>
<path stroke-width="20.0" stroke="black" d="M 68 156 62 159"/>
<path stroke-width="0.5" stroke="black" d="M 45 108 68 156"/>
<path stroke-width="20.0" stroke="black" d="M 392 74 382 76"/>
<path stroke-width="20.0" stroke="black" d="M 382 76 392 74"/>
<path stroke-width="0.5" stroke="black" d="M 178 199 182 151"/>
<path stroke-width="20.0" stroke="black" d="M 179 205 178 199"/>
<path stroke-width="0.5" stroke="black" d="M 174 245 178 199"/>
<path stroke-width="20.0" stroke="black" d="M 174 245 176 255"/>
<path stroke-width="0.5" stroke="black" d="M 174 245 167 284"/>
<path stroke-width="20.0" stroke="black" d="M 176 255 174 245"/>
<path stroke-width="20.0" stroke="black" d="M 274 33 271 37"/>
<path stroke-width="0.5" stroke="black" d="M 274 33 234 41"/>
<path stroke-width="0.5" stroke="black" d="M 274 33 316 31"/>
<path stroke-width="20.0" stroke="black" d="M 271 37 274 33"/>
<path stroke-width="0.5" stroke="black" d="M 167 284 174 245"/>
<path stroke-width="20.0" stroke="black" d="M 167 284 169 296"/>
<path stroke-width="0.5" stroke="black" d="M 167 284 148 307"/>
<path stroke-width="20.0" stroke="black" d="M 169 296 167 284"/>
<path stroke-width="20.0" stroke="black" d="M 401 107 412 111"/>
<path stroke-width="0.5" stroke="black" d="M 401 107 382 76"/>
<path stroke-width="0.5" stroke="black" d="M 401 107 407 137"/>
<path stroke-width="20.0" stroke="black" d="M 412 111 401 107"/>
<path stroke-width="20.0" stroke="black" d="M 190 104 186 95"/>
<path stroke-width="0.5" stroke="black" d="M 190 104 182 151"/>
<path stroke-width="0.5" stroke="black" d="M 190 104 204 65"/>
<path stroke-width="20.0" stroke="black" d="M 186 95 190 104"/>
<path stroke-width="0.5" stroke="black" d="M 182 151 178 199"/>
<path stroke-width="0.5" stroke="black" d="M 182 151 190 104"/>
<path stroke-width="20.0" stroke="black" d="M 182 151 177 145"/>
<path stroke-width="20.0" stroke="black" d="M 177 145 182 151"/>
<path stroke-width="0.5" stroke="black" d="M 382 76 401 107"/>
<path stroke-width="0.5" stroke="black" d="M 382 76 354 48"/>
<path stroke-width="20.0" stroke="black" d="M 45 108 43 100"/>
<path stroke-width="0.5" stroke="black" d="M 45 108 32 65"/>
<path stroke-width="20.0" stroke="black" d="M 43 100 45 108"/>
<path stroke-width="0.5" stroke="black" d="M 279 189 239 173"/>
<path stroke-width="20.0" stroke="black" d="M 279 189 275 195"/>
<path stroke-width="0.5" stroke="black" d="M 279 189 321 195"/>
<path stroke-width="20.0" stroke="black" d="M 275 195 279 189"/>
<path stroke-width="0.5" stroke="black" d="M 87 204 68 156"/>
<path stroke-width="20.0" stroke="black" d="M 87 204 89 211"/>
<path stroke-width="0.5" stroke="black" d="M 87 204 110 249"/>
<path stroke-width="20.0" stroke="black" d="M 89 211 87 204"/>
<path stroke-width="0.5" stroke="black" d="M 110 249 87 204"/>
<path stroke-width="20.0" stroke="black" d="M 110 249 112 258"/>
<path stroke-width="0.5" stroke="black" d="M 110 249 128 285"/>
<path stroke-width="20.0" stroke="black" d="M 112 258 110 249"/>
<path stroke-width="0.5" stroke="black" d="M 321 195 279 189"/>
<path stroke-width="20.0" stroke="black" d="M 321 195 322 203"/>
<path stroke-width="0.5" stroke="black" d="M 321 195 360 183"/>
<path stroke-width="20.0" stroke="black" d="M 322 203 321 195"/>
<path stroke-width="0.5" stroke="black" d="M 360 183 389 162"/>
<path stroke-width="0.5" stroke="black" d="M 360 183 321 195"/>
<path stroke-width="20.0" stroke="black" d="M 360 183 365 190"/>
<path stroke-width="20.0" stroke="black" d="M 365 190 360 183"/>
<path stroke-width="0.5" stroke="black" d="M 128 285 110 249"/>
<path stroke-width="20.0" stroke="black" d="M 128 285 132 296"/>
<path stroke-width="0.5" stroke="black" d="M 128 285 148 307"/>
<path stroke-width="20.0" stroke="black" d="M 132 296 128 285"/>
<path stroke-width="0.5" stroke="black" d="M 148 307 167 284"/>
<path stroke-width="0.5" stroke="black" d="M 148 307 128 285"/>
<path stroke-width="20.0" stroke="black" d="M 148 307 148 320"/>
<path stroke-width="20.0" stroke="black" d="M 122 99 122 94"/>
<path stroke-width="20.0" stroke="black" d="M 122 94 122 99"/>
<path stroke-width="0.5" stroke="black" d="M 122 94 157 128"/>
<path stroke-width="0.5" stroke="black" d="M 122 94 89 61"/>
<path stroke-width="0.5" stroke="black" d="M 32 65 26 32"/>
<path stroke-width="0.5" stroke="black" d="M 32 65 45 108"/>
<path stroke-width="20.0" stroke="black" d="M 32 65 24 54"/>
<path stroke-width="20.0" stroke="black" d="M 24 54 32 65"/>
<path stroke-width="0.5" stroke="black" d="M 354 48 382 76"/>
<path stroke-width="20.0" stroke="black" d="M 354 48 357 39"/>
<path stroke-width="0.5" stroke="black" d="M 354 48 316 31"/>
<path stroke-width="20.0" stroke="black" d="M 357 39 354 48"/>
<path stroke-width="0.5" stroke="black" d="M 316 31 274 33"/>
<path stroke-width="0.5" stroke="black" d="M 316 31 354 48"/>
<path stroke-width="20.0" stroke="black" d="M 316 31 314 22"/>
<path stroke-width="20.0" stroke="black" d="M 314 22 316 31"/>
<path stroke-width="0.5" stroke="black" d="M 58 34 26 32"/>
<path stroke-width="0.5" stroke="black" d="M 178 199 174 245"/>
<path stroke-width="20.0" stroke="black" d="M 58 34 53 23"/>
<path stroke-width="20.0" stroke="black" d="M 53 23 58 34"/>
<path stroke-width="0.5" stroke="black" d="M 89 61 58 34"/>
<path stroke-width="20.0" stroke="black" d="M 89 61 86 52"/>
<path stroke-width="0.5" stroke="black" d="M 89 61 122 94"/>
<path stroke-width="20.0" stroke="black" d="M 86 52 89 61"/>
<path stroke-width="0.5" stroke="black" d="M 198 155 239 173"/>
<path stroke-width="20.0" stroke="black" d="M 198 155 200 164"/>
<path stroke-width="0.5" stroke="black" d="M 198 155 157 128"/>
<path stroke-width="20.0" stroke="black" d="M 200 164 198 155"/>
<path stroke-width="0.5" stroke="black" d="M 157 128 198 155"/>
<path stroke-width="20.0" stroke="black" d="M 157 128 155 136"/>
<path stroke-width="0.5" stroke="black" d="M 157 128 122 94"/>
<path stroke-width="20.0" stroke="black" d="M 155 136 157 128"/>
<path stroke-width="0.5" stroke="black" d="M 58 34 89 61"/>
<path stroke-width="20.0" stroke="black" d="M 178 199 179 205"/>
<circle cx="148" cy="320" r="20.0" style="fill:yellow;stroke:black;stroke-width:1.0"/>
<circle cx="148" cy="307" r="20.0" style="fill:yellow;stroke:black;stroke-width:1.0"/>
<circle cx="132" cy="296" r="20.0" style="fill:yellow;stroke:black;stroke-width:1.0"/>
<circle cx="128" cy="285" r="20.0" style="fill:yellow;stroke:black;stroke-width:1.0"/>
<circle cx="365" cy="190" r="20.0" style="fill:fuchsia;stroke:black;stroke-width:1.0"/>
<circle cx="360" cy="183" r="20.0" style="fill:fuchsia;stroke:black;stroke-width:1.0"/>
<circle cx="322" cy="203" r="20.0" style="fill:fuchsia;stroke:black;stroke-width:1.0"/>
<circle cx="321" cy="195" r="20.0" style="fill:fuchsia;stroke:black;stroke-width:1.0"/>
<circle cx="112" cy="258" r="20.0" style="fill:blue;stroke:black;stroke-width:1.0"/>
<circle cx="110" cy="249" r="20.0" style="fill:blue;stroke:black;stroke-width:1.0"/>
<circle cx="89" cy="211" r="20.0" style="fill:blue;stroke:black;stroke-width:1.0"/>
<circle cx="87" cy="204" r="20.0" style="fill:blue;stroke:black;stroke-width:1.0"/>
<circle cx="275" cy="195" r="20.0" style="fill:brown;stroke:black;stroke-width:1.0"/>
<circle cx="279" cy="189" r="20.0" style="fill:brown;stroke:black;stroke-width:1.0"/>
<circle cx="122" cy="99" r="20.0" style="fill:red;stroke:black;stroke-width:1.0"/>
<circle cx="122" cy="94" r="20.0" style="fill:red;stroke:black;stroke-width:1.0"/>
<circle cx="155" cy="136" r="20.0" style="fill:red;stroke:black;stroke-width:1.0"/>
<circle cx="157" cy="128" r="20.0" style="fill:red;stroke:black;stroke-width:1.0"/>
<circle cx="200" cy="164" r="20.0" style="fill:red;stroke:black;stroke-width:1.0"/>
<circle cx="198" cy="155" r="20.0" style="fill:red;stroke:black;stroke-width:1.0"/>
<circle cx="86" cy="52" r="20.0" style="fill:green;stroke:black;stroke-width:1.0"/>
<circle cx="89" cy="61" r="20.0" style="fill:green;stroke:black;stroke-width:1.0"/>
<circle cx="53" cy="23" r="20.0" style="fill:green;stroke:black;stroke-width:1.0"/>
<circle cx="58" cy="34" r="20.0" style="fill:green;stroke:black;stroke-width:1.0"/>
<circle cx="314" cy="22" r="20.0" style="fill:orange;stroke:black;stroke-width:1.0"/>
<circle cx="316" cy="31" r="20.0" style="fill:orange;stroke:black;stroke-width:1.0"/>
<circle cx="357" cy="39" r="20.0" style="fill:orange;stroke:black;stroke-width:1.0"/>
<circle cx="354" cy="48" r="20.0" style="fill:orange;stroke:black;stroke-width:1.0"/>
<circle cx="24" cy="54" r="20.0" style="fill:olive;stroke:black;stroke-width:1.0"/>
<circle cx="32" cy="65" r="20.0" style="fill:olive;stroke:black;stroke-width:1.0"/>
<circle cx="43" cy="100" r="20.0" style="fill:olive;stroke:black;stroke-width:1.0"/>
<circle cx="45" cy="108" r="20.0" style="fill:olive;stroke:black;stroke-width:1.0"/>
<circle cx="199" cy="53" r="20.0" style="fill:aqua;stroke:black;stroke-width:1.0"/>
<circle cx="204" cy="65" r="20.0" style="fill:aqua;stroke:black;stroke-width:1.0"/>
<circle cx="233" cy="33" r="20.0" style="fill:aqua;stroke:black;stroke-width:1.0"/>
<circle cx="234" cy="41" r="20.0" style="fill:aqua;stroke:black;stroke-width:1.0"/>
<circle cx="247" cy="170" r="20.0" style="fill:brown;stroke:black;stroke-width:1.0"/>
<circle cx="239" cy="173" r="20.0" style="fill:brown;stroke:black;stroke-width:1.0"/>
<circle cx="399" cy="160" r="20.0" style="fill:blue;stroke:black;stroke-width:1.0"/>
<circle cx="389" cy="162" r="20.0" style="fill:blue;stroke:black;stroke-width:1.0"/>
<circle cx="420" cy="142" r="20.0" style="fill:blue;stroke:black;stroke-width:1.0"/>
<circle cx="407" cy="137" r="20.0" style="fill:blue;stroke:black;stroke-width:1.0"/>
<circle cx="20" cy="20" r="20.0" style="fill:green;stroke:black;stroke-width:1.0"/>
<circle cx="26" cy="32" r="20.0" style="fill:green;stroke:black;stroke-width:1.0"/>
<circle cx="62" cy="159" r="20.0" style="fill:blue;stroke:black;stroke-width:1.0"/>
<circle cx="68" cy="156" r="20.0" style="fill:blue;stroke:black;stroke-width:1.0"/>
<circle cx="392" cy="74" r="20.0" style="fill:red;stroke:black;stroke-width:1.0"/>
<circle cx="382" cy="76" r="20.0" style="fill:red;stroke:black;stroke-width:1.0"/>
<circle cx="177" cy="145" r="20.0" style="fill:purple;stroke:black;stroke-width:1.0"/>
<circle cx="182" cy="151" r="20.0" style="fill:purple;stroke:black;stroke-width:1.0"/>
<circle cx="186" cy="95" r="20.0" style="fill:purple;stroke:black;stroke-width:1.0"/>
<circle cx="190" cy="104" r="20.0" style="fill:purple;stroke:black;stroke-width:1.0"/>
<circle cx="412" cy="111" r="20.0" style="fill:red;stroke:black;stroke-width:1.0"/>
<circle cx="401" cy="107" r="20.0" style="fill:red;stroke:black;stroke-width:1.0"/>
<circle cx="169" cy="296" r="20.0" style="fill:green;stroke:black;stroke-width:1.0"/>
<circle cx="167" cy="284" r="20.0" style="fill:green;stroke:black;stroke-width:1.0"/>
<circle cx="271" cy="37" r="20.0" style="fill:orange;stroke:black;stroke-width:1.0"/>
<circle cx="274" cy="33" r="20.0" style="fill:orange;stroke:black;stroke-width:1.0"/>
<circle cx="176" cy="255" r="20.0" style="fill:green;stroke:black;stroke-width:1.0"/>
<circle cx="174" cy="245" r="20.0" style="fill:green;stroke:black;stroke-width:1.0"/>
<circle cx="179" cy="205" r="20.0" style="fill:purple;stroke:black;stroke-width:1.0"/>
<circle cx="178" cy="199" r="20.0" style="fill:purple;stroke:black;stroke-width:1.0"/>
</svg>
