<svg width="440" height="340" xmlns="http://www.w3.org/2000/svg">
<path stroke-width="1" stroke="black" d="M 222 20 420 150"/>
<path stroke-width="1" stroke="black" d="M 233 170 420 150"/>
<path stroke-width="1" stroke="black" d="M 233 170 222 20"/>
<path stroke-width="1" stroke="black" d="M 257 320 233 170"/>
<path stroke-width="1" stroke="black" d="M 257 320 20 144"/>
<path stroke-width="1" stroke="black" d="M 257 320 420 150"/>
<path stroke-width="1" stroke="black" d="M 257 320 222 20"/>
<path stroke-width="1" stroke="black" d="M 20 144 233 170"/>
<path stroke-width="1" stroke="black" d="M 20 144 257 320"/>
<path stroke-width="1" stroke="black" d="M 20 144 420 150"/>
<path stroke-width="1" stroke="black" d="M 20 144 222 20"/>
<path stroke-width="1" stroke="black" d="M 420 150 233 170"/>
<path stroke-width="1" stroke="black" d="M 420 150 257 320"/>
<path stroke-width="1" stroke="black" d="M 420 150 20 144"/>
<path stroke-width="1" stroke="black" d="M 420 150 222 20"/>
<path stroke-width="1" stroke="black" d="M 222 20 233 170"/>
<path stroke-width="1" stroke="black" d="M 222 20 257 320"/>
<path stroke-width="1" stroke="black" d="M 222 20 20 144"/>
<path stroke-width="1" stroke="black" d="M 233 170 20 144"/>
<path stroke-width="1" stroke="black" d="M 233 170 257 320"/>
<circle cx="222" cy="20" r="7.0" style="fill:gray;stroke:black;stroke-width:1.0"/>
<circle cx="420" cy="150" r="7.0" style="fill:gray;stroke:black;stroke-width:1.0"/>
<circle cx="20" cy="144" r="7.0" style="fill:gray;stroke:black;stroke-width:1.0"/>
<circle cx="257" cy="320" r="7.0" style="fill:gray;stroke:black;stroke-width:1.0"/>
<circle cx="233" cy="170" r="7.0" style="fill:gray;stroke:black;stroke-width:1.0"/>
</svg>
