<svg width="440" height="340" xmlns="http://www.w3.org/2000/svg">
<path stroke-width="7.0" stroke="black" d="M 231 197 196 20"/>
<path stroke-width="0.5" stroke="black" d="M 20 159 196 20"/>
<path stroke-width="20.0" stroke="black" d="M 20 159 231 197"/>
<path stroke-width="7.0" stroke="black" d="M 420 140 20 159"/>
<path stroke-width="0.5" stroke="black" d="M 420 140 245 320"/>
<path stroke-width="0.5" stroke="black" d="M 420 140 196 20"/>
<path stroke-width="20.0" stroke="black" d="M 420 140 231 197"/>
<path stroke-width="0.5" stroke="black" d="M 245 320 20 159"/>
<path stroke-width="0.5" stroke="black" d="M 245 320 420 140"/>
<path stroke-width="2.125" stroke="black" d="M 245 320 196 20"/>
<path stroke-width="7.0" stroke="black" d="M 245 320 231 197"/>
<path stroke-width="0.5" stroke="black" d="M 196 20 20 159"/>
<path stroke-width="0.5" stroke="black" d="M 196 20 420 140"/>
<path stroke-width="2.125" stroke="black" d="M 196 20 245 320"/>
<path stroke-width="7.0" stroke="black" d="M 196 20 231 197"/>
<path stroke-width="20.0" stroke="black" d="M 231 197 20 159"/>
<path stroke-width="20.0" stroke="black" d="M 231 197 420 140"/>
<path stroke-width="7.0" stroke="black" d="M 231 197 245 320"/>
<path stroke-width="0.5" stroke="black" d="M 20 159 245 320"/>
<path stroke-width="7.0" stroke="black" d="M 20 159 420 140"/>
<circle cx="231" cy="197" r="7.0" style="fill:gray;stroke:black;stroke-width:1.0"/>
<circle cx="196" cy="20" r="7.0" style="fill:gray;stroke:black;stroke-width:1.0"/>
<circle cx="245" cy="320" r="7.0" style="fill:gray;stroke:black;stroke-width:1.0"/>
<circle cx="420" cy="140" r="7.0" style="fill:gray;stroke:black;stroke-width:1.0"/>
<circle cx="20" cy="159" r="7.0" style="fill:gray;stroke:black;stroke-width:1.0"/>
</svg>
