<svg width="440" height="340" xmlns="http://www.w3.org/2000/svg">
<path stroke-width="1" stroke="black" d="M 329 20 288 108"/>
<path stroke-width="1" stroke="black" d="M 258 275 136 111"/>
<path stroke-width="1" stroke="black" d="M 258 275 288 108"/>
<path stroke-width="1" stroke="black" d="M 271 306 258 275"/>
<path stroke-width="1" stroke="black" d="M 213 98 276 195"/>
<path stroke-width="1" stroke="black" d="M 213 98 192 181"/>
<path stroke-width="1" stroke="black" d="M 213 98 258 275"/>
<path stroke-width="1" stroke="black" d="M 213 98 209 67"/>
<path stroke-width="1" stroke="black" d="M 213 98 360 242"/>
<path stroke-width="1" stroke="black" d="M 213 98 158 254"/>
<path stroke-width="1" stroke="black" d="M 213 98 373 124"/>
<path stroke-width="1" stroke="black" d="M 213 98 108 153"/>
<path stroke-width="1" stroke="black" d="M 213 98 136 111"/>
<path stroke-width="1" stroke="black" d="M 213 98 288 108"/>
<path stroke-width="1" stroke="black" d="M 209 67 213 98"/>
<path stroke-width="1" stroke="black" d="M 360 242 276 195"/>
<path stroke-width="1" stroke="black" d="M 360 242 192 181"/>
<path stroke-width="1" stroke="black" d="M 360 242 258 275"/>
<path stroke-width="1" stroke="black" d="M 360 242 213 98"/>
<path stroke-width="1" stroke="black" d="M 360 242 400 274"/>
<path stroke-width="1" stroke="black" d="M 360 242 158 254"/>
<path stroke-width="1" stroke="black" d="M 360 242 373 124"/>
<path stroke-width="1" stroke="black" d="M 360 242 108 153"/>
<path stroke-width="1" stroke="black" d="M 360 242 136 111"/>
<path stroke-width="1" stroke="black" d="M 258 275 108 153"/>
<path stroke-width="1" stroke="black" d="M 258 275 373 124"/>
<path stroke-width="1" stroke="black" d="M 258 275 158 254"/>
<path stroke-width="1" stroke="black" d="M 258 275 360 242"/>
<path stroke-width="1" stroke="black" d="M 276 195 258 275"/>
<path stroke-width="1" stroke="black" d="M 276 195 213 98"/>
<path stroke-width="1" stroke="black" d="M 276 195 360 242"/>
<path stroke-width="1" stroke="black" d="M 276 195 158 254"/>
<path stroke-width="1" stroke="black" d="M 276 195 373 124"/>
<path stroke-width="1" stroke="black" d="M 276 195 108 153"/>
<path stroke-width="1" stroke="black" d="M 276 195 136 111"/>
<path stroke-width="1" stroke="black" d="M 276 195 288 108"/>
<path stroke-width="1" stroke="black" d="M 259 229 276 195"/>
<path stroke-width="1" stroke="black" d="M 192 181 276 195"/>
<path stroke-width="1" stroke="black" d="M 192 181 215 207"/>
<path stroke-width="1" stroke="black" d="M 360 242 288 108"/>
<path stroke-width="1" stroke="black" d="M 192 181 258 275"/>
<path stroke-width="1" stroke="black" d="M 192 181 360 242"/>
<path stroke-width="1" stroke="black" d="M 192 181 158 254"/>
<path stroke-width="1" stroke="black" d="M 192 181 373 124"/>
<path stroke-width="1" stroke="black" d="M 192 181 108 153"/>
<path stroke-width="1" stroke="black" d="M 192 181 136 111"/>
<path stroke-width="1" stroke="black" d="M 192 181 288 108"/>
<path stroke-width="1" stroke="black" d="M 215 207 192 181"/>
<path stroke-width="1" stroke="black" d="M 258 275 276 195"/>
<path stroke-width="1" stroke="black" d="M 258 275 192 181"/>
<path stroke-width="1" stroke="black" d="M 258 275 271 306"/>
<path stroke-width="1" stroke="black" d="M 258 275 213 98"/>
<path stroke-width="1" stroke="black" d="M 192 181 213 98"/>
<path stroke-width="1" stroke="black" d="M 400 274 360 242"/>
<path stroke-width="1" stroke="black" d="M 158 254 276 195"/>
<path stroke-width="1" stroke="black" d="M 158 254 192 181"/>
<path stroke-width="1" stroke="black" d="M 108 153 136 111"/>
<path stroke-width="1" stroke="black" d="M 108 153 288 108"/>
<path stroke-width="1" stroke="black" d="M 20 112 108 153"/>
<path stroke-width="1" stroke="black" d="M 136 111 276 195"/>
<path stroke-width="1" stroke="black" d="M 136 111 192 181"/>
<path stroke-width="1" stroke="black" d="M 136 111 258 275"/>
<path stroke-width="1" stroke="black" d="M 136 111 213 98"/>
<path stroke-width="1" stroke="black" d="M 136 111 360 242"/>
<path stroke-width="1" stroke="black" d="M 136 111 158 254"/>
<path stroke-width="1" stroke="black" d="M 136 111 373 124"/>
<path stroke-width="1" stroke="black" d="M 136 111 108 153"/>
<path stroke-width="1" stroke="black" d="M 108 153 20 112"/>
<path stroke-width="1" stroke="black" d="M 136 111 52 40"/>
<path stroke-width="1" stroke="black" d="M 52 40 136 111"/>
<path stroke-width="1" stroke="black" d="M 288 108 276 195"/>
<path stroke-width="1" stroke="black" d="M 288 108 192 181"/>
<path stroke-width="1" stroke="black" d="M 288 108 258 275"/>
<path stroke-width="1" stroke="black" d="M 288 108 213 98"/>
<path stroke-width="1" stroke="black" d="M 288 108 360 242"/>
<path stroke-width="1" stroke="black" d="M 288 108 158 254"/>
<path stroke-width="1" stroke="black" d="M 288 108 373 124"/>
<path stroke-width="1" stroke="black" d="M 288 108 108 153"/>
<path stroke-width="1" stroke="black" d="M 288 108 136 111"/>
<path stroke-width="1" stroke="black" d="M 288 108 329 20"/>
<path stroke-width="1" stroke="black" d="M 136 111 288 108"/>
<path stroke-width="1" stroke="black" d="M 276 195 192 181"/>
<path stroke-width="1" stroke="black" d="M 108 153 373 124"/>
<path stroke-width="1" stroke="black" d="M 108 153 360 242"/>
<path stroke-width="1" stroke="black" d="M 158 254 258 275"/>
<path stroke-width="1" stroke="black" d="M 158 254 213 98"/>
<path stroke-width="1" stroke="black" d="M 158 254 360 242"/>
<path stroke-width="1" stroke="black" d="M 158 254 113 320"/>
<path stroke-width="1" stroke="black" d="M 158 254 373 124"/>
<path stroke-width="1" stroke="black" d="M 158 254 108 153"/>
<path stroke-width="1" stroke="black" d="M 158 254 136 111"/>
<path stroke-width="1" stroke="black" d="M 158 254 288 108"/>
<path stroke-width="1" stroke="black" d="M 113 320 158 254"/>
<path stroke-width="1" stroke="black" d="M 373 124 276 195"/>
<path stroke-width="1" stroke="black" d="M 373 124 192 181"/>
<path stroke-width="1" stroke="black" d="M 108 153 158 254"/>
<path stroke-width="1" stroke="black" d="M 373 124 258 275"/>
<path stroke-width="1" stroke="black" d="M 373 124 360 242"/>
<path stroke-width="1" stroke="black" d="M 373 124 158 254"/>
<path stroke-width="1" stroke="black" d="M 373 124 420 94"/>
<path stroke-width="1" stroke="black" d="M 373 124 108 153"/>
<path stroke-width="1" stroke="black" d="M 373 124 136 111"/>
<path stroke-width="1" stroke="black" d="M 373 124 288 108"/>
<path stroke-width="1" stroke="black" d="M 420 94 373 124"/>
<path stroke-width="1" stroke="black" d="M 108 153 276 195"/>
<path stroke-width="1" stroke="black" d="M 108 153 192 181"/>
<path stroke-width="1" stroke="black" d="M 108 153 258 275"/>
<path stroke-width="1" stroke="black" d="M 108 153 213 98"/>
<path stroke-width="1" stroke="black" d="M 373 124 213 98"/>
<path stroke-width="1" stroke="black" d="M 276 195 259 229"/>
<circle cx="329" cy="20" r="20.0" style="fill:gray;stroke:black;stroke-width:1.0"/>
<circle cx="288" cy="108" r="20.0" style="fill:gray;stroke:black;stroke-width:1.0"/>
<circle cx="52" cy="40" r="20.0" style="fill:gray;stroke:black;stroke-width:1.0"/>
<circle cx="136" cy="111" r="20.0" style="fill:gray;stroke:black;stroke-width:1.0"/>
<circle cx="20" cy="112" r="20.0" style="fill:gray;stroke:black;stroke-width:1.0"/>
<circle cx="108" cy="153" r="20.0" style="fill:gray;stroke:black;stroke-width:1.0"/>
<circle cx="420" cy="94" r="20.0" style="fill:gray;stroke:black;stroke-width:1.0"/>
<circle cx="373" cy="124" r="20.0" style="fill:gray;stroke:black;stroke-width:1.0"/>
<circle cx="113" cy="320" r="20.0" style="fill:gray;stroke:black;stroke-width:1.0"/>
<circle cx="158" cy="254" r="20.0" style="fill:gray;stroke:black;stroke-width:1.0"/>
<circle cx="400" cy="274" r="20.0" style="fill:gray;stroke:black;stroke-width:1.0"/>
<circle cx="360" cy="242" r="20.0" style="fill:gray;stroke:black;stroke-width:1.0"/>
<circle cx="209" cy="67" r="20.0" style="fill:gray;stroke:black;stroke-width:1.0"/>
<circle cx="213" cy="98" r="20.0" style="fill:gray;stroke:black;stroke-width:1.0"/>
<circle cx="271" cy="306" r="20.0" style="fill:gray;stroke:black;stroke-width:1.0"/>
<circle cx="258" cy="275" r="20.0" style="fill:gray;stroke:black;stroke-width:1.0"/>
<circle cx="215" cy="207" r="20.0" style="fill:gray;stroke:black;stroke-width:1.0"/>
<circle cx="192" cy="181" r="20.0" style="fill:gray;stroke:black;stroke-width:1.0"/>
<circle cx="259" cy="229" r="20.0" style="fill:gray;stroke:black;stroke-width:1.0"/>
<circle cx="276" cy="195" r="20.0" style="fill:gray;stroke:black;stroke-width:1.0"/>
</svg>
