<svg width="440" height="340" xmlns="http://www.w3.org/2000/svg">
<path stroke-width="3.135135135135135" stroke="black" d="M 286 320 253 235"/>
<path stroke-width="0.5" stroke="black" d="M 375 138 166 91"/>
<path stroke-width="0.5" stroke="black" d="M 375 138 253 235"/>
<path stroke-width="16.83783783783784" stroke="black" d="M 420 132 375 138"/>
<path stroke-width="0.5" stroke="black" d="M 274 115 254 190"/>
<path stroke-width="0.5" stroke="black" d="M 274 115 174 202"/>
<path stroke-width="0.5" stroke="black" d="M 274 115 375 138"/>
<path stroke-width="14.72972972972973" stroke="black" d="M 274 115 313 87"/>
<path stroke-width="0.5" stroke="black" d="M 274 115 113 192"/>
<path stroke-width="0.5" stroke="black" d="M 274 115 241 77"/>
<path stroke-width="0.5" stroke="black" d="M 274 115 341 199"/>
<path stroke-width="0.5" stroke="black" d="M 274 115 118 132"/>
<path stroke-width="0.5" stroke="black" d="M 274 115 166 91"/>
<path stroke-width="0.5" stroke="black" d="M 274 115 253 235"/>
<path stroke-width="14.72972972972973" stroke="black" d="M 313 87 274 115"/>
<path stroke-width="0.5" stroke="black" d="M 113 192 254 190"/>
<path stroke-width="0.5" stroke="black" d="M 113 192 174 202"/>
<path stroke-width="0.5" stroke="black" d="M 113 192 375 138"/>
<path stroke-width="0.5" stroke="black" d="M 113 192 274 115"/>
<path stroke-width="12.621621621621621" stroke="black" d="M 113 192 31 224"/>
<path stroke-width="0.5" stroke="black" d="M 113 192 241 77"/>
<path stroke-width="0.5" stroke="black" d="M 113 192 341 199"/>
<path stroke-width="0.5" stroke="black" d="M 113 192 118 132"/>
<path stroke-width="0.5" stroke="black" d="M 113 192 166 91"/>
<path stroke-width="0.5" stroke="black" d="M 375 138 118 132"/>
<path stroke-width="0.5" stroke="black" d="M 375 138 341 199"/>
<path stroke-width="0.5" stroke="black" d="M 375 138 241 77"/>
<path stroke-width="0.5" stroke="black" d="M 375 138 113 192"/>
<path stroke-width="0.5" stroke="black" d="M 254 190 375 138"/>
<path stroke-width="0.5" stroke="black" d="M 254 190 274 115"/>
<path stroke-width="0.5" stroke="black" d="M 254 190 113 192"/>
<path stroke-width="0.5" stroke="black" d="M 254 190 241 77"/>
<path stroke-width="0.5" stroke="black" d="M 254 190 341 199"/>
<path stroke-width="0.5" stroke="black" d="M 254 190 118 132"/>
<path stroke-width="0.5" stroke="black" d="M 254 190 166 91"/>
<path stroke-width="0.5" stroke="black" d="M 254 190 253 235"/>
<path stroke-width="20.0" stroke="black" d="M 298 185 254 190"/>
<path stroke-width="0.5" stroke="black" d="M 174 202 254 190"/>
<path stroke-width="17.89189189189189" stroke="black" d="M 174 202 147 229"/>
<path stroke-width="0.5" stroke="black" d="M 113 192 253 235"/>
<path stroke-width="0.5" stroke="black" d="M 174 202 375 138"/>
<path stroke-width="0.5" stroke="black" d="M 174 202 113 192"/>
<path stroke-width="0.5" stroke="black" d="M 174 202 241 77"/>
<path stroke-width="0.5" stroke="black" d="M 174 202 341 199"/>
<path stroke-width="0.5" stroke="black" d="M 174 202 118 132"/>
<path stroke-width="0.5" stroke="black" d="M 174 202 166 91"/>
<path stroke-width="0.5" stroke="black" d="M 174 202 253 235"/>
<path stroke-width="17.89189189189189" stroke="black" d="M 147 229 174 202"/>
<path stroke-width="0.5" stroke="black" d="M 375 138 254 190"/>
<path stroke-width="0.5" stroke="black" d="M 375 138 174 202"/>
<path stroke-width="16.83783783783784" stroke="black" d="M 375 138 420 132"/>
<path stroke-width="0.5" stroke="black" d="M 375 138 274 115"/>
<path stroke-width="0.5" stroke="black" d="M 174 202 274 115"/>
<path stroke-width="12.621621621621621" stroke="black" d="M 31 224 113 192"/>
<path stroke-width="0.5" stroke="black" d="M 241 77 254 190"/>
<path stroke-width="0.5" stroke="black" d="M 241 77 174 202"/>
<path stroke-width="0.5" stroke="black" d="M 118 132 166 91"/>
<path stroke-width="0.5" stroke="black" d="M 118 132 253 235"/>
<path stroke-width="6.297297297297297" stroke="black" d="M 20 104 118 132"/>
<path stroke-width="0.5" stroke="black" d="M 166 91 254 190"/>
<path stroke-width="0.5" stroke="black" d="M 166 91 174 202"/>
<path stroke-width="0.5" stroke="black" d="M 166 91 375 138"/>
<path stroke-width="0.5" stroke="black" d="M 166 91 274 115"/>
<path stroke-width="0.5" stroke="black" d="M 166 91 113 192"/>
<path stroke-width="0.5" stroke="black" d="M 166 91 241 77"/>
<path stroke-width="0.5" stroke="black" d="M 166 91 341 199"/>
<path stroke-width="0.5" stroke="black" d="M 166 91 118 132"/>
<path stroke-width="6.297297297297297" stroke="black" d="M 118 132 20 104"/>
<path stroke-width="4.1891891891891895" stroke="black" d="M 166 91 118 20"/>
<path stroke-width="4.1891891891891895" stroke="black" d="M 118 20 166 91"/>
<path stroke-width="0.5" stroke="black" d="M 253 235 254 190"/>
<path stroke-width="0.5" stroke="black" d="M 253 235 174 202"/>
<path stroke-width="0.5" stroke="black" d="M 253 235 375 138"/>
<path stroke-width="0.5" stroke="black" d="M 253 235 274 115"/>
<path stroke-width="0.5" stroke="black" d="M 253 235 113 192"/>
<path stroke-width="0.5" stroke="black" d="M 253 235 241 77"/>
<path stroke-width="0.5" stroke="black" d="M 253 235 341 199"/>
<path stroke-width="0.5" stroke="black" d="M 253 235 118 132"/>
<path stroke-width="0.5" stroke="black" d="M 253 235 166 91"/>
<path stroke-width="3.135135135135135" stroke="black" d="M 253 235 286 320"/>
<path stroke-width="0.5" stroke="black" d="M 166 91 253 235"/>
<path stroke-width="0.5" stroke="black" d="M 254 190 174 202"/>
<path stroke-width="0.5" stroke="black" d="M 118 132 341 199"/>
<path stroke-width="0.5" stroke="black" d="M 118 132 113 192"/>
<path stroke-width="0.5" stroke="black" d="M 241 77 375 138"/>
<path stroke-width="0.5" stroke="black" d="M 241 77 274 115"/>
<path stroke-width="0.5" stroke="black" d="M 241 77 113 192"/>
<path stroke-width="10.513513513513514" stroke="black" d="M 241 77 253 34"/>
<path stroke-width="0.5" stroke="black" d="M 241 77 341 199"/>
<path stroke-width="0.5" stroke="black" d="M 241 77 118 132"/>
<path stroke-width="0.5" stroke="black" d="M 241 77 166 91"/>
<path stroke-width="0.5" stroke="black" d="M 241 77 253 235"/>
<path stroke-width="10.513513513513514" stroke="black" d="M 253 34 241 77"/>
<path stroke-width="0.5" stroke="black" d="M 341 199 254 190"/>
<path stroke-width="0.5" stroke="black" d="M 341 199 174 202"/>
<path stroke-width="0.5" stroke="black" d="M 118 132 241 77"/>
<path stroke-width="0.5" stroke="black" d="M 341 199 375 138"/>
<path stroke-width="0.5" stroke="black" d="M 341 199 113 192"/>
<path stroke-width="0.5" stroke="black" d="M 341 199 241 77"/>
<path stroke-width="8.405405405405405" stroke="black" d="M 341 199 419 232"/>
<path stroke-width="0.5" stroke="black" d="M 341 199 118 132"/>
<path stroke-width="0.5" stroke="black" d="M 341 199 166 91"/>
<path stroke-width="0.5" stroke="black" d="M 341 199 253 235"/>
<path stroke-width="8.405405405405405" stroke="black" d="M 419 232 341 199"/>
<path stroke-width="0.5" stroke="black" d="M 118 132 254 190"/>
<path stroke-width="0.5" stroke="black" d="M 118 132 174 202"/>
<path stroke-width="0.5" stroke="black" d="M 118 132 375 138"/>
<path stroke-width="0.5" stroke="black" d="M 118 132 274 115"/>
<path stroke-width="0.5" stroke="black" d="M 341 199 274 115"/>
<path stroke-width="20.0" stroke="black" d="M 254 190 298 185"/>
<circle cx="286" cy="320" r="7.0" style="fill:blue;stroke:black;stroke-width:1.0"/>
<circle cx="253" cy="235" r="7.0" style="fill:blue;stroke:black;stroke-width:1.0"/>
<circle cx="118" cy="20" r="7.0" style="fill:blue;stroke:black;stroke-width:1.0"/>
<circle cx="166" cy="91" r="7.0" style="fill:blue;stroke:black;stroke-width:1.0"/>
<circle cx="20" cy="104" r="7.0" style="fill:red;stroke:black;stroke-width:1.0"/>
<circle cx="118" cy="132" r="7.0" style="fill:red;stroke:black;stroke-width:1.0"/>
<circle cx="419" cy="232" r="7.0" style="fill:green;stroke:black;stroke-width:1.0"/>
<circle cx="341" cy="199" r="7.0" style="fill:green;stroke:black;stroke-width:1.0"/>
<circle cx="253" cy="34" r="7.0" style="fill:orange;stroke:black;stroke-width:1.0"/>
<circle cx="241" cy="77" r="7.0" style="fill:orange;stroke:black;stroke-width:1.0"/>
<circle cx="31" cy="224" r="7.0" style="fill:purple;stroke:black;stroke-width:1.0"/>
<circle cx="113" cy="192" r="7.0" style="fill:purple;stroke:black;stroke-width:1.0"/>
<circle cx="313" cy="87" r="7.0" style="fill:yellow;stroke:black;stroke-width:1.0"/>
<circle cx="274" cy="115" r="7.0" style="fill:yellow;stroke:black;stroke-width:1.0"/>
<circle cx="420" cy="132" r="7.0" style="fill:fuchsia;stroke:black;stroke-width:1.0"/>
<circle cx="375" cy="138" r="7.0" style="fill:fuchsia;stroke:black;stroke-width:1.0"/>
<circle cx="147" cy="229" r="7.0" style="fill:olive;stroke:black;stroke-width:1.0"/>
<circle cx="174" cy="202" r="7.0" style="fill:olive;stroke:black;stroke-width:1.0"/>
<circle cx="298" cy="185" r="7.0" style="fill:aqua;stroke:black;stroke-width:1.0"/>
<circle cx="254" cy="190" r="7.0" style="fill:aqua;stroke:black;stroke-width:1.0"/>
</svg>
