<svg width="440" height="340" xmlns="http://www.w3.org/2000/svg">
<path stroke-width="1" stroke="black" d="M 382 37 277 108"/>
<path stroke-width="1" stroke="black" d="M 203 184 113 227"/>
<path stroke-width="1" stroke="black" d="M 203 184 277 108"/>
<path stroke-width="1" stroke="black" d="M 176 185 203 184"/>
<path stroke-width="1" stroke="black" d="M 278 151 257 244"/>
<path stroke-width="1" stroke="black" d="M 278 151 98 166"/>
<path stroke-width="1" stroke="black" d="M 278 151 203 184"/>
<path stroke-width="1" stroke="black" d="M 278 151 356 141"/>
<path stroke-width="1" stroke="black" d="M 278 151 145 115"/>
<path stroke-width="1" stroke="black" d="M 278 151 194 258"/>
<path stroke-width="1" stroke="black" d="M 278 151 198 88"/>
<path stroke-width="1" stroke="black" d="M 278 151 314 202"/>
<path stroke-width="1" stroke="black" d="M 278 151 113 227"/>
<path stroke-width="1" stroke="black" d="M 278 151 277 108"/>
<path stroke-width="1" stroke="black" d="M 356 141 278 151"/>
<path stroke-width="1" stroke="black" d="M 145 115 257 244"/>
<path stroke-width="1" stroke="black" d="M 145 115 98 166"/>
<path stroke-width="1" stroke="black" d="M 145 115 203 184"/>
<path stroke-width="1" stroke="black" d="M 145 115 278 151"/>
<path stroke-width="1" stroke="black" d="M 145 115 92 72"/>
<path stroke-width="1" stroke="black" d="M 145 115 194 258"/>
<path stroke-width="1" stroke="black" d="M 145 115 198 88"/>
<path stroke-width="1" stroke="black" d="M 145 115 314 202"/>
<path stroke-width="1" stroke="black" d="M 145 115 113 227"/>
<path stroke-width="1" stroke="black" d="M 203 184 314 202"/>
<path stroke-width="1" stroke="black" d="M 203 184 198 88"/>
<path stroke-width="1" stroke="black" d="M 203 184 194 258"/>
<path stroke-width="1" stroke="black" d="M 203 184 145 115"/>
<path stroke-width="1" stroke="black" d="M 257 244 203 184"/>
<path stroke-width="1" stroke="black" d="M 257 244 278 151"/>
<path stroke-width="1" stroke="black" d="M 257 244 145 115"/>
<path stroke-width="1" stroke="black" d="M 257 244 194 258"/>
<path stroke-width="1" stroke="black" d="M 257 244 198 88"/>
<path stroke-width="1" stroke="black" d="M 257 244 314 202"/>
<path stroke-width="1" stroke="black" d="M 257 244 113 227"/>
<path stroke-width="1" stroke="black" d="M 257 244 277 108"/>
<path stroke-width="1" stroke="black" d="M 295 291 257 244"/>
<path stroke-width="1" stroke="black" d="M 98 166 257 244"/>
<path stroke-width="1" stroke="black" d="M 98 166 33 161"/>
<path stroke-width="1" stroke="black" d="M 145 115 277 108"/>
<path stroke-width="1" stroke="black" d="M 98 166 203 184"/>
<path stroke-width="1" stroke="black" d="M 98 166 145 115"/>
<path stroke-width="1" stroke="black" d="M 98 166 194 258"/>
<path stroke-width="1" stroke="black" d="M 98 166 198 88"/>
<path stroke-width="1" stroke="black" d="M 98 166 314 202"/>
<path stroke-width="1" stroke="black" d="M 98 166 113 227"/>
<path stroke-width="1" stroke="black" d="M 98 166 277 108"/>
<path stroke-width="1" stroke="black" d="M 33 161 98 166"/>
<path stroke-width="1" stroke="black" d="M 203 184 257 244"/>
<path stroke-width="1" stroke="black" d="M 203 184 98 166"/>
<path stroke-width="1" stroke="black" d="M 203 184 176 185"/>
<path stroke-width="1" stroke="black" d="M 203 184 278 151"/>
<path stroke-width="1" stroke="black" d="M 98 166 278 151"/>
<path stroke-width="1" stroke="black" d="M 92 72 145 115"/>
<path stroke-width="1" stroke="black" d="M 194 258 257 244"/>
<path stroke-width="1" stroke="black" d="M 194 258 98 166"/>
<path stroke-width="1" stroke="black" d="M 314 202 113 227"/>
<path stroke-width="1" stroke="black" d="M 314 202 277 108"/>
<path stroke-width="1" stroke="black" d="M 420 223 314 202"/>
<path stroke-width="1" stroke="black" d="M 113 227 257 244"/>
<path stroke-width="1" stroke="black" d="M 113 227 98 166"/>
<path stroke-width="1" stroke="black" d="M 113 227 203 184"/>
<path stroke-width="1" stroke="black" d="M 113 227 278 151"/>
<path stroke-width="1" stroke="black" d="M 113 227 145 115"/>
<path stroke-width="1" stroke="black" d="M 113 227 194 258"/>
<path stroke-width="1" stroke="black" d="M 113 227 198 88"/>
<path stroke-width="1" stroke="black" d="M 113 227 314 202"/>
<path stroke-width="1" stroke="black" d="M 314 202 420 223"/>
<path stroke-width="1" stroke="black" d="M 113 227 20 279"/>
<path stroke-width="1" stroke="black" d="M 20 279 113 227"/>
<path stroke-width="1" stroke="black" d="M 277 108 257 244"/>
<path stroke-width="1" stroke="black" d="M 277 108 98 166"/>
<path stroke-width="1" stroke="black" d="M 277 108 203 184"/>
<path stroke-width="1" stroke="black" d="M 277 108 278 151"/>
<path stroke-width="1" stroke="black" d="M 277 108 145 115"/>
<path stroke-width="1" stroke="black" d="M 277 108 194 258"/>
<path stroke-width="1" stroke="black" d="M 277 108 198 88"/>
<path stroke-width="1" stroke="black" d="M 277 108 314 202"/>
<path stroke-width="1" stroke="black" d="M 277 108 113 227"/>
<path stroke-width="1" stroke="black" d="M 277 108 382 37"/>
<path stroke-width="1" stroke="black" d="M 113 227 277 108"/>
<path stroke-width="1" stroke="black" d="M 257 244 98 166"/>
<path stroke-width="1" stroke="black" d="M 314 202 198 88"/>
<path stroke-width="1" stroke="black" d="M 314 202 145 115"/>
<path stroke-width="1" stroke="black" d="M 194 258 203 184"/>
<path stroke-width="1" stroke="black" d="M 194 258 278 151"/>
<path stroke-width="1" stroke="black" d="M 194 258 145 115"/>
<path stroke-width="1" stroke="black" d="M 194 258 181 320"/>
<path stroke-width="1" stroke="black" d="M 194 258 198 88"/>
<path stroke-width="1" stroke="black" d="M 194 258 314 202"/>
<path stroke-width="1" stroke="black" d="M 194 258 113 227"/>
<path stroke-width="1" stroke="black" d="M 194 258 277 108"/>
<path stroke-width="1" stroke="black" d="M 181 320 194 258"/>
<path stroke-width="1" stroke="black" d="M 198 88 257 244"/>
<path stroke-width="1" stroke="black" d="M 198 88 98 166"/>
<path stroke-width="1" stroke="black" d="M 314 202 194 258"/>
<path stroke-width="1" stroke="black" d="M 198 88 203 184"/>
<path stroke-width="1" stroke="black" d="M 198 88 145 115"/>
<path stroke-width="1" stroke="black" d="M 198 88 194 258"/>
<path stroke-width="1" stroke="black" d="M 198 88 184 20"/>
<path stroke-width="1" stroke="black" d="M 198 88 314 202"/>
<path stroke-width="1" stroke="black" d="M 198 88 113 227"/>
<path stroke-width="1" stroke="black" d="M 198 88 277 108"/>
<path stroke-width="1" stroke="black" d="M 184 20 198 88"/>
<path stroke-width="1" stroke="black" d="M 314 202 257 244"/>
<path stroke-width="1" stroke="black" d="M 314 202 98 166"/>
<path stroke-width="1" stroke="black" d="M 314 202 203 184"/>
<path stroke-width="1" stroke="black" d="M 314 202 278 151"/>
<path stroke-width="1" stroke="black" d="M 198 88 278 151"/>
<path stroke-width="1" stroke="black" d="M 257 244 295 291"/>
<circle cx="382" cy="37" r="7.0" style="fill:blue;stroke:black;stroke-width:1.0"/>
<circle cx="277" cy="108" r="7.0" style="fill:blue;stroke:black;stroke-width:1.0"/>
<circle cx="20" cy="279" r="7.0" style="fill:blue;stroke:black;stroke-width:1.0"/>
<circle cx="113" cy="227" r="7.0" style="fill:blue;stroke:black;stroke-width:1.0"/>
<circle cx="420" cy="223" r="7.0" style="fill:red;stroke:black;stroke-width:1.0"/>
<circle cx="314" cy="202" r="7.0" style="fill:red;stroke:black;stroke-width:1.0"/>
<circle cx="184" cy="20" r="7.0" style="fill:green;stroke:black;stroke-width:1.0"/>
<circle cx="198" cy="88" r="7.0" style="fill:green;stroke:black;stroke-width:1.0"/>
<circle cx="181" cy="320" r="7.0" style="fill:orange;stroke:black;stroke-width:1.0"/>
<circle cx="194" cy="258" r="7.0" style="fill:orange;stroke:black;stroke-width:1.0"/>
<circle cx="92" cy="72" r="7.0" style="fill:purple;stroke:black;stroke-width:1.0"/>
<circle cx="145" cy="115" r="7.0" style="fill:purple;stroke:black;stroke-width:1.0"/>
<circle cx="356" cy="141" r="7.0" style="fill:yellow;stroke:black;stroke-width:1.0"/>
<circle cx="278" cy="151" r="7.0" style="fill:yellow;stroke:black;stroke-width:1.0"/>
<circle cx="176" cy="185" r="7.0" style="fill:fuchsia;stroke:black;stroke-width:1.0"/>
<circle cx="203" cy="184" r="7.0" style="fill:fuchsia;stroke:black;stroke-width:1.0"/>
<circle cx="33" cy="161" r="7.0" style="fill:olive;stroke:black;stroke-width:1.0"/>
<circle cx="98" cy="166" r="7.0" style="fill:olive;stroke:black;stroke-width:1.0"/>
<circle cx="295" cy="291" r="7.0" style="fill:aqua;stroke:black;stroke-width:1.0"/>
<circle cx="257" cy="244" r="7.0" style="fill:aqua;stroke:black;stroke-width:1.0"/>
</svg>
