<svg width="440" height="340" xmlns="http://www.w3.org/2000/svg">
<path stroke-width="3.135135135135135" stroke="black" d="M 420 175 300 174"/>
<path stroke-width="0.5" stroke="black" d="M 196 233 142 243"/>
<path stroke-width="0.5" stroke="black" d="M 196 233 300 174"/>
<path stroke-width="16.83783783783784" stroke="black" d="M 190 276 196 233"/>
<path stroke-width="0.5" stroke="black" d="M 248 269 183 120"/>
<path stroke-width="0.5" stroke="black" d="M 248 269 288 117"/>
<path stroke-width="0.5" stroke="black" d="M 248 269 196 233"/>
<path stroke-width="14.72972972972973" stroke="black" d="M 248 269 266 308"/>
<path stroke-width="0.5" stroke="black" d="M 248 269 218 73"/>
<path stroke-width="0.5" stroke="black" d="M 248 269 123 124"/>
<path stroke-width="0.5" stroke="black" d="M 248 269 235 179"/>
<path stroke-width="0.5" stroke="black" d="M 248 269 110 180"/>
<path stroke-width="0.5" stroke="black" d="M 248 269 142 243"/>
<path stroke-width="0.5" stroke="black" d="M 248 269 300 174"/>
<path stroke-width="14.72972972972973" stroke="black" d="M 266 308 248 269"/>
<path stroke-width="0.5" stroke="black" d="M 218 73 183 120"/>
<path stroke-width="0.5" stroke="black" d="M 218 73 288 117"/>
<path stroke-width="0.5" stroke="black" d="M 218 73 196 233"/>
<path stroke-width="0.5" stroke="black" d="M 218 73 248 269"/>
<path stroke-width="12.621621621621621" stroke="black" d="M 218 73 213 20"/>
<path stroke-width="0.5" stroke="black" d="M 218 73 123 124"/>
<path stroke-width="0.5" stroke="black" d="M 218 73 235 179"/>
<path stroke-width="0.5" stroke="black" d="M 218 73 110 180"/>
<path stroke-width="0.5" stroke="black" d="M 218 73 142 243"/>
<path stroke-width="0.5" stroke="black" d="M 196 233 110 180"/>
<path stroke-width="0.5" stroke="black" d="M 196 233 235 179"/>
<path stroke-width="0.5" stroke="black" d="M 196 233 123 124"/>
<path stroke-width="0.5" stroke="black" d="M 196 233 218 73"/>
<path stroke-width="0.5" stroke="black" d="M 183 120 196 233"/>
<path stroke-width="0.5" stroke="black" d="M 183 120 248 269"/>
<path stroke-width="0.5" stroke="black" d="M 183 120 218 73"/>
<path stroke-width="0.5" stroke="black" d="M 183 120 123 124"/>
<path stroke-width="0.5" stroke="black" d="M 183 120 235 179"/>
<path stroke-width="0.5" stroke="black" d="M 183 120 110 180"/>
<path stroke-width="0.5" stroke="black" d="M 183 120 142 243"/>
<path stroke-width="0.5" stroke="black" d="M 183 120 300 174"/>
<path stroke-width="20.0" stroke="black" d="M 158 86 183 120"/>
<path stroke-width="0.5" stroke="black" d="M 288 117 183 120"/>
<path stroke-width="17.89189189189189" stroke="black" d="M 288 117 318 90"/>
<path stroke-width="0.5" stroke="black" d="M 218 73 300 174"/>
<path stroke-width="0.5" stroke="black" d="M 288 117 196 233"/>
<path stroke-width="0.5" stroke="black" d="M 288 117 218 73"/>
<path stroke-width="0.5" stroke="black" d="M 288 117 123 124"/>
<path stroke-width="0.5" stroke="black" d="M 288 117 235 179"/>
<path stroke-width="0.5" stroke="black" d="M 288 117 110 180"/>
<path stroke-width="0.5" stroke="black" d="M 288 117 142 243"/>
<path stroke-width="0.5" stroke="black" d="M 288 117 300 174"/>
<path stroke-width="17.89189189189189" stroke="black" d="M 318 90 288 117"/>
<path stroke-width="0.5" stroke="black" d="M 196 233 183 120"/>
<path stroke-width="0.5" stroke="black" d="M 196 233 288 117"/>
<path stroke-width="16.83783783783784" stroke="black" d="M 196 233 190 276"/>
<path stroke-width="0.5" stroke="black" d="M 196 233 248 269"/>
<path stroke-width="0.5" stroke="black" d="M 288 117 248 269"/>
<path stroke-width="12.621621621621621" stroke="black" d="M 213 20 218 73"/>
<path stroke-width="0.5" stroke="black" d="M 123 124 183 120"/>
<path stroke-width="0.5" stroke="black" d="M 123 124 288 117"/>
<path stroke-width="0.5" stroke="black" d="M 110 180 142 243"/>
<path stroke-width="0.5" stroke="black" d="M 110 180 300 174"/>
<path stroke-width="6.297297297297297" stroke="black" d="M 20 182 110 180"/>
<path stroke-width="0.5" stroke="black" d="M 142 243 183 120"/>
<path stroke-width="0.5" stroke="black" d="M 142 243 288 117"/>
<path stroke-width="0.5" stroke="black" d="M 142 243 196 233"/>
<path stroke-width="0.5" stroke="black" d="M 142 243 248 269"/>
<path stroke-width="0.5" stroke="black" d="M 142 243 218 73"/>
<path stroke-width="0.5" stroke="black" d="M 142 243 123 124"/>
<path stroke-width="0.5" stroke="black" d="M 142 243 235 179"/>
<path stroke-width="0.5" stroke="black" d="M 142 243 110 180"/>
<path stroke-width="6.297297297297297" stroke="black" d="M 110 180 20 182"/>
<path stroke-width="4.1891891891891895" stroke="black" d="M 142 243 87 320"/>
<path stroke-width="4.1891891891891895" stroke="black" d="M 87 320 142 243"/>
<path stroke-width="0.5" stroke="black" d="M 300 174 183 120"/>
<path stroke-width="0.5" stroke="black" d="M 300 174 288 117"/>
<path stroke-width="0.5" stroke="black" d="M 300 174 196 233"/>
<path stroke-width="0.5" stroke="black" d="M 300 174 248 269"/>
<path stroke-width="0.5" stroke="black" d="M 300 174 218 73"/>
<path stroke-width="0.5" stroke="black" d="M 300 174 123 124"/>
<path stroke-width="0.5" stroke="black" d="M 300 174 235 179"/>
<path stroke-width="0.5" stroke="black" d="M 300 174 110 180"/>
<path stroke-width="0.5" stroke="black" d="M 300 174 142 243"/>
<path stroke-width="3.135135135135135" stroke="black" d="M 300 174 420 175"/>
<path stroke-width="0.5" stroke="black" d="M 142 243 300 174"/>
<path stroke-width="0.5" stroke="black" d="M 183 120 288 117"/>
<path stroke-width="0.5" stroke="black" d="M 110 180 235 179"/>
<path stroke-width="0.5" stroke="black" d="M 110 180 218 73"/>
<path stroke-width="0.5" stroke="black" d="M 123 124 196 233"/>
<path stroke-width="0.5" stroke="black" d="M 123 124 248 269"/>
<path stroke-width="0.5" stroke="black" d="M 123 124 218 73"/>
<path stroke-width="10.513513513513514" stroke="black" d="M 123 124 60 88"/>
<path stroke-width="0.5" stroke="black" d="M 123 124 235 179"/>
<path stroke-width="0.5" stroke="black" d="M 123 124 110 180"/>
<path stroke-width="0.5" stroke="black" d="M 123 124 142 243"/>
<path stroke-width="0.5" stroke="black" d="M 123 124 300 174"/>
<path stroke-width="10.513513513513514" stroke="black" d="M 60 88 123 124"/>
<path stroke-width="0.5" stroke="black" d="M 235 179 183 120"/>
<path stroke-width="0.5" stroke="black" d="M 235 179 288 117"/>
<path stroke-width="0.5" stroke="black" d="M 110 180 123 124"/>
<path stroke-width="0.5" stroke="black" d="M 235 179 196 233"/>
<path stroke-width="0.5" stroke="black" d="M 235 179 218 73"/>
<path stroke-width="0.5" stroke="black" d="M 235 179 123 124"/>
<path stroke-width="8.405405405405405" stroke="black" d="M 235 179 278 206"/>
<path stroke-width="0.5" stroke="black" d="M 235 179 110 180"/>
<path stroke-width="0.5" stroke="black" d="M 235 179 142 243"/>
<path stroke-width="0.5" stroke="black" d="M 235 179 300 174"/>
<path stroke-width="8.405405405405405" stroke="black" d="M 278 206 235 179"/>
<path stroke-width="0.5" stroke="black" d="M 110 180 183 120"/>
<path stroke-width="0.5" stroke="black" d="M 110 180 288 117"/>
<path stroke-width="0.5" stroke="black" d="M 110 180 196 233"/>
<path stroke-width="0.5" stroke="black" d="M 110 180 248 269"/>
<path stroke-width="0.5" stroke="black" d="M 235 179 248 269"/>
<path stroke-width="20.0" stroke="black" d="M 183 120 158 86"/>
<circle cx="420" cy="175" r="7.0" style="fill:gray;stroke:black;stroke-width:1.0"/>
<circle cx="300" cy="174" r="7.0" style="fill:gray;stroke:black;stroke-width:1.0"/>
<circle cx="87" cy="320" r="7.0" style="fill:gray;stroke:black;stroke-width:1.0"/>
<circle cx="142" cy="243" r="7.0" style="fill:gray;stroke:black;stroke-width:1.0"/>
<circle cx="20" cy="182" r="7.0" style="fill:gray;stroke:black;stroke-width:1.0"/>
<circle cx="110" cy="180" r="7.0" style="fill:gray;stroke:black;stroke-width:1.0"/>
<circle cx="278" cy="206" r="7.0" style="fill:gray;stroke:black;stroke-width:1.0"/>
<circle cx="235" cy="179" r="7.0" style="fill:gray;stroke:black;stroke-width:1.0"/>
<circle cx="60" cy="88" r="7.0" style="fill:gray;stroke:black;stroke-width:1.0"/>
<circle cx="123" cy="124" r="7.0" style="fill:gray;stroke:black;stroke-width:1.0"/>
<circle cx="213" cy="20" r="7.0" style="fill:gray;stroke:black;stroke-width:1.0"/>
<circle cx="218" cy="73" r="7.0" style="fill:gray;stroke:black;stroke-width:1.0"/>
<circle cx="266" cy="308" r="7.0" style="fill:gray;stroke:black;stroke-width:1.0"/>
<circle cx="248" cy="269" r="7.0" style="fill:gray;stroke:black;stroke-width:1.0"/>
<circle cx="190" cy="276" r="7.0" style="fill:gray;stroke:black;stroke-width:1.0"/>
<circle cx="196" cy="233" r="7.0" style="fill:gray;stroke:black;stroke-width:1.0"/>
<circle cx="318" cy="90" r="7.0" style="fill:gray;stroke:black;stroke-width:1.0"/>
<circle cx="288" cy="117" r="7.0" style="fill:gray;stroke:black;stroke-width:1.0"/>
<circle cx="158" cy="86" r="7.0" style="fill:gray;stroke:black;stroke-width:1.0"/>
<circle cx="183" cy="120" r="7.0" style="fill:gray;stroke:black;stroke-width:1.0"/>
</svg>
