<svg width="440" height="340" xmlns="http://www.w3.org/2000/svg">
<path stroke-width="1" stroke="black" d="M 20 197 148 189"/>
<path stroke-width="1" stroke="black" d="M 244 280 164 247"/>
<path stroke-width="1" stroke="black" d="M 244 280 148 189"/>
<path stroke-width="1" stroke="black" d="M 236 316 244 280"/>
<path stroke-width="1" stroke="black" d="M 330 258 272 176"/>
<path stroke-width="1" stroke="black" d="M 330 258 383 193"/>
<path stroke-width="1" stroke="black" d="M 330 258 244 280"/>
<path stroke-width="1" stroke="black" d="M 330 258 356 290"/>
<path stroke-width="1" stroke="black" d="M 330 258 195 88"/>
<path stroke-width="1" stroke="black" d="M 330 258 138 135"/>
<path stroke-width="1" stroke="black" d="M 330 258 275 86"/>
<path stroke-width="1" stroke="black" d="M 330 258 342 119"/>
<path stroke-width="1" stroke="black" d="M 330 258 164 247"/>
<path stroke-width="1" stroke="black" d="M 330 258 148 189"/>
<path stroke-width="1" stroke="black" d="M 356 290 330 258"/>
<path stroke-width="1" stroke="black" d="M 195 88 272 176"/>
<path stroke-width="1" stroke="black" d="M 195 88 383 193"/>
<path stroke-width="1" stroke="black" d="M 195 88 244 280"/>
<path stroke-width="1" stroke="black" d="M 195 88 330 258"/>
<path stroke-width="1" stroke="black" d="M 195 88 172 41"/>
<path stroke-width="1" stroke="black" d="M 195 88 138 135"/>
<path stroke-width="1" stroke="black" d="M 195 88 275 86"/>
<path stroke-width="1" stroke="black" d="M 195 88 342 119"/>
<path stroke-width="1" stroke="black" d="M 195 88 164 247"/>
<path stroke-width="1" stroke="black" d="M 244 280 342 119"/>
<path stroke-width="1" stroke="black" d="M 244 280 275 86"/>
<path stroke-width="1" stroke="black" d="M 244 280 138 135"/>
<path stroke-width="1" stroke="black" d="M 244 280 195 88"/>
<path stroke-width="1" stroke="black" d="M 272 176 244 280"/>
<path stroke-width="1" stroke="black" d="M 272 176 330 258"/>
<path stroke-width="1" stroke="black" d="M 272 176 195 88"/>
<path stroke-width="1" stroke="black" d="M 272 176 138 135"/>
<path stroke-width="1" stroke="black" d="M 272 176 275 86"/>
<path stroke-width="1" stroke="black" d="M 272 176 342 119"/>
<path stroke-width="1" stroke="black" d="M 272 176 164 247"/>
<path stroke-width="1" stroke="black" d="M 272 176 148 189"/>
<path stroke-width="1" stroke="black" d="M 279 188 272 176"/>
<path stroke-width="1" stroke="black" d="M 383 193 272 176"/>
<path stroke-width="1" stroke="black" d="M 383 193 420 201"/>
<path stroke-width="1" stroke="black" d="M 195 88 148 189"/>
<path stroke-width="1" stroke="black" d="M 383 193 244 280"/>
<path stroke-width="1" stroke="black" d="M 383 193 195 88"/>
<path stroke-width="1" stroke="black" d="M 383 193 138 135"/>
<path stroke-width="1" stroke="black" d="M 383 193 275 86"/>
<path stroke-width="1" stroke="black" d="M 383 193 342 119"/>
<path stroke-width="1" stroke="black" d="M 383 193 164 247"/>
<path stroke-width="1" stroke="black" d="M 383 193 148 189"/>
<path stroke-width="1" stroke="black" d="M 420 201 383 193"/>
<path stroke-width="1" stroke="black" d="M 244 280 272 176"/>
<path stroke-width="1" stroke="black" d="M 244 280 383 193"/>
<path stroke-width="1" stroke="black" d="M 244 280 236 316"/>
<path stroke-width="1" stroke="black" d="M 244 280 330 258"/>
<path stroke-width="1" stroke="black" d="M 383 193 330 258"/>
<path stroke-width="1" stroke="black" d="M 172 41 195 88"/>
<path stroke-width="1" stroke="black" d="M 138 135 272 176"/>
<path stroke-width="1" stroke="black" d="M 138 135 383 193"/>
<path stroke-width="1" stroke="black" d="M 342 119 164 247"/>
<path stroke-width="1" stroke="black" d="M 342 119 148 189"/>
<path stroke-width="1" stroke="black" d="M 416 69 342 119"/>
<path stroke-width="1" stroke="black" d="M 164 247 272 176"/>
<path stroke-width="1" stroke="black" d="M 164 247 383 193"/>
<path stroke-width="1" stroke="black" d="M 164 247 244 280"/>
<path stroke-width="1" stroke="black" d="M 164 247 330 258"/>
<path stroke-width="1" stroke="black" d="M 164 247 195 88"/>
<path stroke-width="1" stroke="black" d="M 164 247 138 135"/>
<path stroke-width="1" stroke="black" d="M 164 247 275 86"/>
<path stroke-width="1" stroke="black" d="M 164 247 342 119"/>
<path stroke-width="1" stroke="black" d="M 342 119 416 69"/>
<path stroke-width="1" stroke="black" d="M 164 247 85 320"/>
<path stroke-width="1" stroke="black" d="M 85 320 164 247"/>
<path stroke-width="1" stroke="black" d="M 148 189 272 176"/>
<path stroke-width="1" stroke="black" d="M 148 189 383 193"/>
<path stroke-width="1" stroke="black" d="M 148 189 244 280"/>
<path stroke-width="1" stroke="black" d="M 148 189 330 258"/>
<path stroke-width="1" stroke="black" d="M 148 189 195 88"/>
<path stroke-width="1" stroke="black" d="M 148 189 138 135"/>
<path stroke-width="1" stroke="black" d="M 148 189 275 86"/>
<path stroke-width="1" stroke="black" d="M 148 189 342 119"/>
<path stroke-width="1" stroke="black" d="M 148 189 164 247"/>
<path stroke-width="1" stroke="black" d="M 148 189 20 197"/>
<path stroke-width="1" stroke="black" d="M 164 247 148 189"/>
<path stroke-width="1" stroke="black" d="M 272 176 383 193"/>
<path stroke-width="1" stroke="black" d="M 342 119 275 86"/>
<path stroke-width="1" stroke="black" d="M 342 119 195 88"/>
<path stroke-width="1" stroke="black" d="M 138 135 244 280"/>
<path stroke-width="1" stroke="black" d="M 138 135 330 258"/>
<path stroke-width="1" stroke="black" d="M 138 135 195 88"/>
<path stroke-width="1" stroke="black" d="M 138 135 80 108"/>
<path stroke-width="1" stroke="black" d="M 138 135 275 86"/>
<path stroke-width="1" stroke="black" d="M 138 135 342 119"/>
<path stroke-width="1" stroke="black" d="M 138 135 164 247"/>
<path stroke-width="1" stroke="black" d="M 138 135 148 189"/>
<path stroke-width="1" stroke="black" d="M 80 108 138 135"/>
<path stroke-width="1" stroke="black" d="M 275 86 272 176"/>
<path stroke-width="1" stroke="black" d="M 275 86 383 193"/>
<path stroke-width="1" stroke="black" d="M 342 119 138 135"/>
<path stroke-width="1" stroke="black" d="M 275 86 244 280"/>
<path stroke-width="1" stroke="black" d="M 275 86 195 88"/>
<path stroke-width="1" stroke="black" d="M 275 86 138 135"/>
<path stroke-width="1" stroke="black" d="M 275 86 294 20"/>
<path stroke-width="1" stroke="black" d="M 275 86 342 119"/>
<path stroke-width="1" stroke="black" d="M 275 86 164 247"/>
<path stroke-width="1" stroke="black" d="M 275 86 148 189"/>
<path stroke-width="1" stroke="black" d="M 294 20 275 86"/>
<path stroke-width="1" stroke="black" d="M 342 119 272 176"/>
<path stroke-width="1" stroke="black" d="M 342 119 383 193"/>
<path stroke-width="1" stroke="black" d="M 342 119 244 280"/>
<path stroke-width="1" stroke="black" d="M 342 119 330 258"/>
<path stroke-width="1" stroke="black" d="M 275 86 330 258"/>
<path stroke-width="1" stroke="black" d="M 272 176 279 188"/>
<circle cx="20" cy="197" r="7.0" style="fill:gray;stroke:black;stroke-width:1.0"/>
<circle cx="148" cy="189" r="7.0" style="fill:gray;stroke:black;stroke-width:1.0"/>
<circle cx="85" cy="320" r="7.0" style="fill:gray;stroke:black;stroke-width:1.0"/>
<circle cx="164" cy="247" r="7.0" style="fill:gray;stroke:black;stroke-width:1.0"/>
<circle cx="416" cy="69" r="7.0" style="fill:gray;stroke:black;stroke-width:1.0"/>
<circle cx="342" cy="119" r="7.0" style="fill:gray;stroke:black;stroke-width:1.0"/>
<circle cx="294" cy="20" r="7.0" style="fill:gray;stroke:black;stroke-width:1.0"/>
<circle cx="275" cy="86" r="7.0" style="fill:gray;stroke:black;stroke-width:1.0"/>
<circle cx="80" cy="108" r="7.0" style="fill:gray;stroke:black;stroke-width:1.0"/>
<circle cx="138" cy="135" r="7.0" style="fill:gray;stroke:black;stroke-width:1.0"/>
<circle cx="172" cy="41" r="7.0" style="fill:gray;stroke:black;stroke-width:1.0"/>
<circle cx="195" cy="88" r="7.0" style="fill:gray;stroke:black;stroke-width:1.0"/>
<circle cx="356" cy="290" r="7.0" style="fill:gray;stroke:black;stroke-width:1.0"/>
<circle cx="330" cy="258" r="7.0" style="fill:gray;stroke:black;stroke-width:1.0"/>
<circle cx="236" cy="316" r="7.0" style="fill:gray;stroke:black;stroke-width:1.0"/>
<circle cx="244" cy="280" r="7.0" style="fill:gray;stroke:black;stroke-width:1.0"/>
<circle cx="420" cy="201" r="7.0" style="fill:gray;stroke:black;stroke-width:1.0"/>
<circle cx="383" cy="193" r="7.0" style="fill:gray;stroke:black;stroke-width:1.0"/>
<circle cx="279" cy="188" r="7.0" style="fill:gray;stroke:black;stroke-width:1.0"/>
<circle cx="272" cy="176" r="7.0" style="fill:gray;stroke:black;stroke-width:1.0"/>
</svg>
