<svg width="440" height="340" xmlns="http://www.w3.org/2000/svg">
<path stroke-width="8.857142857142858" stroke="black" d="M 20 320 26 300"/>
<path stroke-width="20.0" stroke="black" d="M 355 115 381 108"/>
<path stroke-width="0.5" stroke="black" d="M 355 115 396 64"/>
<path stroke-width="20.0" stroke="black" d="M 420 57 396 64"/>
<path stroke-width="0.5" stroke="black" d="M 396 64 355 115"/>
<path stroke-width="20.0" stroke="black" d="M 396 64 420 57"/>
<path stroke-width="0.5" stroke="black" d="M 396 64 325 35"/>
<path stroke-width="20.0" stroke="black" d="M 342 20 325 35"/>
<path stroke-width="0.5" stroke="black" d="M 325 35 396 64"/>
<path stroke-width="20.0" stroke="black" d="M 325 35 342 20"/>
<path stroke-width="0.5" stroke="black" d="M 325 35 226 34"/>
<path stroke-width="20.0" stroke="black" d="M 209 20 226 34"/>
<path stroke-width="0.5" stroke="black" d="M 226 34 325 35"/>
<path stroke-width="20.0" stroke="black" d="M 226 34 209 20"/>
<path stroke-width="0.5" stroke="black" d="M 226 34 134 45"/>
<path stroke-width="14.428571428571429" stroke="black" d="M 104 50 134 45"/>
<path stroke-width="0.5" stroke="black" d="M 355 115 288 156"/>
<path stroke-width="20.0" stroke="black" d="M 381 108 355 115"/>
<path stroke-width="0.5" stroke="black" d="M 288 156 355 115"/>
<path stroke-width="20.0" stroke="black" d="M 288 156 268 151"/>
<path stroke-width="8.857142857142858" stroke="black" d="M 26 300 20 320"/>
<path stroke-width="0.5" stroke="black" d="M 26 300 45 257"/>
<path stroke-width="20.0" stroke="black" d="M 20 255 45 257"/>
<path stroke-width="0.5" stroke="black" d="M 45 257 26 300"/>
<path stroke-width="20.0" stroke="black" d="M 45 257 20 255"/>
<path stroke-width="0.5" stroke="black" d="M 45 257 117 222"/>
<path stroke-width="20.0" stroke="black" d="M 98 213 117 222"/>
<path stroke-width="0.5" stroke="black" d="M 134 45 226 34"/>
<path stroke-width="0.5" stroke="black" d="M 117 222 45 257"/>
<path stroke-width="0.5" stroke="black" d="M 117 222 206 195"/>
<path stroke-width="20.0" stroke="black" d="M 213 207 206 195"/>
<path stroke-width="0.5" stroke="black" d="M 206 195 117 222"/>
<path stroke-width="20.0" stroke="black" d="M 206 195 213 207"/>
<path stroke-width="0.5" stroke="black" d="M 206 195 288 156"/>
<path stroke-width="20.0" stroke="black" d="M 268 151 288 156"/>
<path stroke-width="0.5" stroke="black" d="M 288 156 206 195"/>
<path stroke-width="20.0" stroke="black" d="M 117 222 98 213"/>
<path stroke-width="14.428571428571429" stroke="black" d="M 134 45 104 50"/>
<circle cx="20" cy="320" r="20.0" style="fill:blue;stroke:black;stroke-width:1.0"/>
<circle cx="26" cy="300" r="20.0" style="fill:blue;stroke:black;stroke-width:1.0"/>
<circle cx="20" cy="255" r="20.0" style="fill:blue;stroke:black;stroke-width:1.0"/>
<circle cx="45" cy="257" r="20.0" style="fill:blue;stroke:black;stroke-width:1.0"/>
<circle cx="98" cy="213" r="20.0" style="fill:red;stroke:black;stroke-width:1.0"/>
<circle cx="117" cy="222" r="20.0" style="fill:red;stroke:black;stroke-width:1.0"/>
<circle cx="213" cy="207" r="20.0" style="fill:green;stroke:black;stroke-width:1.0"/>
<circle cx="206" cy="195" r="20.0" style="fill:green;stroke:black;stroke-width:1.0"/>
<circle cx="268" cy="151" r="20.0" style="fill:orange;stroke:black;stroke-width:1.0"/>
<circle cx="288" cy="156" r="20.0" style="fill:orange;stroke:black;stroke-width:1.0"/>
<circle cx="381" cy="108" r="20.0" style="fill:purple;stroke:black;stroke-width:1.0"/>
<circle cx="355" cy="115" r="20.0" style="fill:purple;stroke:black;stroke-width:1.0"/>
<circle cx="420" cy="57" r="20.0" style="fill:yellow;stroke:black;stroke-width:1.0"/>
<circle cx="396" cy="64" r="20.0" style="fill:yellow;stroke:black;stroke-width:1.0"/>
<circle cx="342" cy="20" r="20.0" style="fill:fuchsia;stroke:black;stroke-width:1.0"/>
<circle cx="325" cy="35" r="20.0" style="fill:fuchsia;stroke:black;stroke-width:1.0"/>
<circle cx="209" cy="20" r="20.0" style="fill:olive;stroke:black;stroke-width:1.0"/>
<circle cx="226" cy="34" r="20.0" style="fill:olive;stroke:black;stroke-width:1.0"/>
<circle cx="104" cy="50" r="20.0" style="fill:aqua;stroke:black;stroke-width:1.0"/>
<circle cx="134" cy="45" r="20.0" style="fill:aqua;stroke:black;stroke-width:1.0"/>
</svg>
