<svg width="440" height="340" xmlns="http://www.w3.org/2000/svg">
<path stroke-width="1" stroke="black" d="M 352 238 361 250"/>
<path stroke-width="1" stroke="black" d="M 211 228 191 236"/>
<path stroke-width="1" stroke="black" d="M 211 228 146 177"/>
<path stroke-width="1" stroke="black" d="M 122 181 146 177"/>
<path stroke-width="1" stroke="black" d="M 146 177 211 228"/>
<path stroke-width="1" stroke="black" d="M 146 177 122 181"/>
<path stroke-width="1" stroke="black" d="M 146 177 87 123"/>
<path stroke-width="1" stroke="black" d="M 63 120 87 123"/>
<path stroke-width="1" stroke="black" d="M 87 123 146 177"/>
<path stroke-width="1" stroke="black" d="M 87 123 63 120"/>
<path stroke-width="1" stroke="black" d="M 87 123 52 73"/>
<path stroke-width="1" stroke="black" d="M 41 64 52 73"/>
<path stroke-width="1" stroke="black" d="M 52 73 87 123"/>
<path stroke-width="1" stroke="black" d="M 52 73 41 64"/>
<path stroke-width="1" stroke="black" d="M 52 73 27 32"/>
<path stroke-width="1" stroke="black" d="M 20 20 27 32"/>
<path stroke-width="1" stroke="black" d="M 211 228 295 275"/>
<path stroke-width="1" stroke="black" d="M 191 236 211 228"/>
<path stroke-width="1" stroke="black" d="M 295 275 211 228"/>
<path stroke-width="1" stroke="black" d="M 295 275 290 284"/>
<path stroke-width="1" stroke="black" d="M 361 250 352 238"/>
<path stroke-width="1" stroke="black" d="M 361 250 375 278"/>
<path stroke-width="1" stroke="black" d="M 367 273 375 278"/>
<path stroke-width="1" stroke="black" d="M 375 278 361 250"/>
<path stroke-width="1" stroke="black" d="M 375 278 367 273"/>
<path stroke-width="1" stroke="black" d="M 375 278 359 307"/>
<path stroke-width="1" stroke="black" d="M 347 316 359 307"/>
<path stroke-width="1" stroke="black" d="M 27 32 52 73"/>
<path stroke-width="1" stroke="black" d="M 359 307 375 278"/>
<path stroke-width="1" stroke="black" d="M 359 307 387 308"/>
<path stroke-width="1" stroke="black" d="M 420 320 387 308"/>
<path stroke-width="1" stroke="black" d="M 387 308 359 307"/>
<path stroke-width="1" stroke="black" d="M 387 308 420 320"/>
<path stroke-width="1" stroke="black" d="M 387 308 295 275"/>
<path stroke-width="1" stroke="black" d="M 290 284 295 275"/>
<path stroke-width="1" stroke="black" d="M 295 275 387 308"/>
<path stroke-width="1" stroke="black" d="M 359 307 347 316"/>
<path stroke-width="1" stroke="black" d="M 27 32 20 20"/>
<circle cx="352" cy="238" r="7.0" style="fill:gray;stroke:black;stroke-width:1.0"/>
<circle cx="361" cy="250" r="7.0" style="fill:gray;stroke:black;stroke-width:1.0"/>
<circle cx="367" cy="273" r="7.0" style="fill:gray;stroke:black;stroke-width:1.0"/>
<circle cx="375" cy="278" r="7.0" style="fill:gray;stroke:black;stroke-width:1.0"/>
<circle cx="347" cy="316" r="7.0" style="fill:gray;stroke:black;stroke-width:1.0"/>
<circle cx="359" cy="307" r="7.0" style="fill:gray;stroke:black;stroke-width:1.0"/>
<circle cx="420" cy="320" r="7.0" style="fill:gray;stroke:black;stroke-width:1.0"/>
<circle cx="387" cy="308" r="7.0" style="fill:gray;stroke:black;stroke-width:1.0"/>
<circle cx="290" cy="284" r="7.0" style="fill:gray;stroke:black;stroke-width:1.0"/>
<circle cx="295" cy="275" r="7.0" style="fill:gray;stroke:black;stroke-width:1.0"/>
<circle cx="191" cy="236" r="7.0" style="fill:gray;stroke:black;stroke-width:1.0"/>
<circle cx="211" cy="228" r="7.0" style="fill:gray;stroke:black;stroke-width:1.0"/>
<circle cx="122" cy="181" r="7.0" style="fill:gray;stroke:black;stroke-width:1.0"/>
<circle cx="146" cy="177" r="7.0" style="fill:gray;stroke:black;stroke-width:1.0"/>
<circle cx="63" cy="120" r="7.0" style="fill:gray;stroke:black;stroke-width:1.0"/>
<circle cx="87" cy="123" r="7.0" style="fill:gray;stroke:black;stroke-width:1.0"/>
<circle cx="41" cy="64" r="7.0" style="fill:gray;stroke:black;stroke-width:1.0"/>
<circle cx="52" cy="73" r="7.0" style="fill:gray;stroke:black;stroke-width:1.0"/>
<circle cx="20" cy="20" r="7.0" style="fill:gray;stroke:black;stroke-width:1.0"/>
<circle cx="27" cy="32" r="7.0" style="fill:gray;stroke:black;stroke-width:1.0"/>
</svg>
