<svg width="440" height="340" xmlns="http://www.w3.org/2000/svg">
<path stroke-width="1" stroke="black" d="M 355 320 313 300"/>
<path stroke-width="1" stroke="black" d="M 131 50 140 33"/>
<path stroke-width="1" stroke="black" d="M 131 50 182 107"/>
<path stroke-width="1" stroke="black" d="M 204 103 182 107"/>
<path stroke-width="1" stroke="black" d="M 182 107 131 50"/>
<path stroke-width="1" stroke="black" d="M 182 107 204 103"/>
<path stroke-width="1" stroke="black" d="M 182 107 246 165"/>
<path stroke-width="1" stroke="black" d="M 234 177 246 165"/>
<path stroke-width="1" stroke="black" d="M 246 165 182 107"/>
<path stroke-width="1" stroke="black" d="M 246 165 234 177"/>
<path stroke-width="1" stroke="black" d="M 246 165 318 214"/>
<path stroke-width="1" stroke="black" d="M 326 232 318 214"/>
<path stroke-width="1" stroke="black" d="M 318 214 246 165"/>
<path stroke-width="1" stroke="black" d="M 318 214 326 232"/>
<path stroke-width="1" stroke="black" d="M 318 214 394 204"/>
<path stroke-width="1" stroke="black" d="M 420 195 394 204"/>
<path stroke-width="1" stroke="black" d="M 131 50 44 36"/>
<path stroke-width="1" stroke="black" d="M 140 33 131 50"/>
<path stroke-width="1" stroke="black" d="M 44 36 131 50"/>
<path stroke-width="1" stroke="black" d="M 44 36 34 20"/>
<path stroke-width="1" stroke="black" d="M 313 300 355 320"/>
<path stroke-width="1" stroke="black" d="M 313 300 217 252"/>
<path stroke-width="1" stroke="black" d="M 222 265 217 252"/>
<path stroke-width="1" stroke="black" d="M 217 252 313 300"/>
<path stroke-width="1" stroke="black" d="M 217 252 222 265"/>
<path stroke-width="1" stroke="black" d="M 217 252 112 180"/>
<path stroke-width="1" stroke="black" d="M 91 186 112 180"/>
<path stroke-width="1" stroke="black" d="M 394 204 318 214"/>
<path stroke-width="1" stroke="black" d="M 112 180 217 252"/>
<path stroke-width="1" stroke="black" d="M 112 180 52 105"/>
<path stroke-width="1" stroke="black" d="M 20 96 52 105"/>
<path stroke-width="1" stroke="black" d="M 52 105 112 180"/>
<path stroke-width="1" stroke="black" d="M 52 105 20 96"/>
<path stroke-width="1" stroke="black" d="M 52 105 44 36"/>
<path stroke-width="1" stroke="black" d="M 34 20 44 36"/>
<path stroke-width="1" stroke="black" d="M 44 36 52 105"/>
<path stroke-width="1" stroke="black" d="M 112 180 91 186"/>
<path stroke-width="1" stroke="black" d="M 394 204 420 195"/>
<circle cx="355" cy="320" r="7.0" style="fill:blue;stroke:black;stroke-width:1.0"/>
<circle cx="313" cy="300" r="7.0" style="fill:blue;stroke:black;stroke-width:1.0"/>
<circle cx="222" cy="265" r="7.0" style="fill:blue;stroke:black;stroke-width:1.0"/>
<circle cx="217" cy="252" r="7.0" style="fill:blue;stroke:black;stroke-width:1.0"/>
<circle cx="91" cy="186" r="7.0" style="fill:red;stroke:black;stroke-width:1.0"/>
<circle cx="112" cy="180" r="7.0" style="fill:red;stroke:black;stroke-width:1.0"/>
<circle cx="20" cy="96" r="7.0" style="fill:green;stroke:black;stroke-width:1.0"/>
<circle cx="52" cy="105" r="7.0" style="fill:green;stroke:black;stroke-width:1.0"/>
<circle cx="34" cy="20" r="7.0" style="fill:orange;stroke:black;stroke-width:1.0"/>
<circle cx="44" cy="36" r="7.0" style="fill:orange;stroke:black;stroke-width:1.0"/>
<circle cx="140" cy="33" r="7.0" style="fill:purple;stroke:black;stroke-width:1.0"/>
<circle cx="131" cy="50" r="7.0" style="fill:purple;stroke:black;stroke-width:1.0"/>
<circle cx="204" cy="103" r="7.0" style="fill:yellow;stroke:black;stroke-width:1.0"/>
<circle cx="182" cy="107" r="7.0" style="fill:yellow;stroke:black;stroke-width:1.0"/>
<circle cx="234" cy="177" r="7.0" style="fill:fuchsia;stroke:black;stroke-width:1.0"/>
<circle cx="246" cy="165" r="7.0" style="fill:fuchsia;stroke:black;stroke-width:1.0"/>
<circle cx="326" cy="232" r="7.0" style="fill:olive;stroke:black;stroke-width:1.0"/>
<circle cx="318" cy="214" r="7.0" style="fill:olive;stroke:black;stroke-width:1.0"/>
<circle cx="420" cy="195" r="7.0" style="fill:aqua;stroke:black;stroke-width:1.0"/>
<circle cx="394" cy="204" r="7.0" style="fill:aqua;stroke:black;stroke-width:1.0"/>
</svg>
