<svg width="440" height="340" xmlns="http://www.w3.org/2000/svg">
<path stroke-width="8.857142857142858" stroke="black" d="M 420 20 387 29"/>
<path stroke-width="20.0" stroke="black" d="M 45 259 20 274"/>
<path stroke-width="0.5" stroke="black" d="M 45 259 97 302"/>
<path stroke-width="20.0" stroke="black" d="M 92 320 97 302"/>
<path stroke-width="0.5" stroke="black" d="M 97 302 45 259"/>
<path stroke-width="20.0" stroke="black" d="M 97 302 92 320"/>
<path stroke-width="0.5" stroke="black" d="M 97 302 178 290"/>
<path stroke-width="20.0" stroke="black" d="M 166 278 178 290"/>
<path stroke-width="0.5" stroke="black" d="M 178 290 97 302"/>
<path stroke-width="20.0" stroke="black" d="M 178 290 166 278"/>
<path stroke-width="0.5" stroke="black" d="M 178 290 260 280"/>
<path stroke-width="20.0" stroke="black" d="M 267 264 260 280"/>
<path stroke-width="0.5" stroke="black" d="M 260 280 178 290"/>
<path stroke-width="20.0" stroke="black" d="M 260 280 267 264"/>
<path stroke-width="0.5" stroke="black" d="M 260 280 334 290"/>
<path stroke-width="14.428571428571429" stroke="black" d="M 360 293 334 290"/>
<path stroke-width="0.5" stroke="black" d="M 45 259 63 193"/>
<path stroke-width="20.0" stroke="black" d="M 20 274 45 259"/>
<path stroke-width="0.5" stroke="black" d="M 63 193 45 259"/>
<path stroke-width="20.0" stroke="black" d="M 63 193 43 188"/>
<path stroke-width="8.857142857142858" stroke="black" d="M 387 29 420 20"/>
<path stroke-width="0.5" stroke="black" d="M 387 29 309 52"/>
<path stroke-width="20.0" stroke="black" d="M 319 37 309 52"/>
<path stroke-width="0.5" stroke="black" d="M 309 52 387 29"/>
<path stroke-width="20.0" stroke="black" d="M 309 52 319 37"/>
<path stroke-width="0.5" stroke="black" d="M 309 52 226 92"/>
<path stroke-width="20.0" stroke="black" d="M 244 96 226 92"/>
<path stroke-width="0.5" stroke="black" d="M 334 290 260 280"/>
<path stroke-width="0.5" stroke="black" d="M 226 92 309 52"/>
<path stroke-width="0.5" stroke="black" d="M 226 92 134 134"/>
<path stroke-width="20.0" stroke="black" d="M 119 122 134 134"/>
<path stroke-width="0.5" stroke="black" d="M 134 134 226 92"/>
<path stroke-width="20.0" stroke="black" d="M 134 134 119 122"/>
<path stroke-width="0.5" stroke="black" d="M 134 134 63 193"/>
<path stroke-width="20.0" stroke="black" d="M 43 188 63 193"/>
<path stroke-width="0.5" stroke="black" d="M 63 193 134 134"/>
<path stroke-width="20.0" stroke="black" d="M 226 92 244 96"/>
<path stroke-width="14.428571428571429" stroke="black" d="M 334 290 360 293"/>
<circle cx="420" cy="20" r="7.0" style="fill:blue;stroke:black;stroke-width:1.0"/>
<circle cx="387" cy="29" r="7.0" style="fill:blue;stroke:black;stroke-width:1.0"/>
<circle cx="319" cy="37" r="7.0" style="fill:blue;stroke:black;stroke-width:1.0"/>
<circle cx="309" cy="52" r="7.0" style="fill:blue;stroke:black;stroke-width:1.0"/>
<circle cx="244" cy="96" r="7.0" style="fill:red;stroke:black;stroke-width:1.0"/>
<circle cx="226" cy="92" r="7.0" style="fill:red;stroke:black;stroke-width:1.0"/>
<circle cx="119" cy="122" r="7.0" style="fill:green;stroke:black;stroke-width:1.0"/>
<circle cx="134" cy="134" r="7.0" style="fill:green;stroke:black;stroke-width:1.0"/>
<circle cx="43" cy="188" r="7.0" style="fill:orange;stroke:black;stroke-width:1.0"/>
<circle cx="63" cy="193" r="7.0" style="fill:orange;stroke:black;stroke-width:1.0"/>
<circle cx="20" cy="274" r="7.0" style="fill:purple;stroke:black;stroke-width:1.0"/>
<circle cx="45" cy="259" r="7.0" style="fill:purple;stroke:black;stroke-width:1.0"/>
<circle cx="92" cy="320" r="7.0" style="fill:yellow;stroke:black;stroke-width:1.0"/>
<circle cx="97" cy="302" r="7.0" style="fill:yellow;stroke:black;stroke-width:1.0"/>
<circle cx="166" cy="278" r="7.0" style="fill:fuchsia;stroke:black;stroke-width:1.0"/>
<circle cx="178" cy="290" r="7.0" style="fill:fuchsia;stroke:black;stroke-width:1.0"/>
<circle cx="267" cy="264" r="7.0" style="fill:olive;stroke:black;stroke-width:1.0"/>
<circle cx="260" cy="280" r="7.0" style="fill:olive;stroke:black;stroke-width:1.0"/>
<circle cx="360" cy="293" r="7.0" style="fill:aqua;stroke:black;stroke-width:1.0"/>
<circle cx="334" cy="290" r="7.0" style="fill:aqua;stroke:black;stroke-width:1.0"/>
</svg>
