<svg width="440" height="340" xmlns="http://www.w3.org/2000/svg">
<path stroke-width="1" stroke="black" d="M 420 199 275 190"/>
<path stroke-width="1" stroke="black" d="M 96 229 190 79"/>
<path stroke-width="1" stroke="black" d="M 96 229 165 258"/>
<path stroke-width="1" stroke="black" d="M 96 229 64 253"/>
<path stroke-width="1" stroke="black" d="M 96 229 103 150"/>
<path stroke-width="1" stroke="black" d="M 96 229 236 101"/>
<path stroke-width="1" stroke="black" d="M 96 229 245 164"/>
<path stroke-width="1" stroke="black" d="M 96 229 218 253"/>
<path stroke-width="1" stroke="black" d="M 96 229 164 160"/>
<path stroke-width="1" stroke="black" d="M 56 145 103 150"/>
<path stroke-width="1" stroke="black" d="M 103 150 275 190"/>
<path stroke-width="1" stroke="black" d="M 103 150 253 127"/>
<path stroke-width="1" stroke="black" d="M 103 150 119 243"/>
<path stroke-width="1" stroke="black" d="M 96 229 80 188"/>
<path stroke-width="1" stroke="black" d="M 103 150 91 117"/>
<path stroke-width="1" stroke="black" d="M 103 150 244 222"/>
<path stroke-width="1" stroke="black" d="M 103 150 80 188"/>
<path stroke-width="1" stroke="black" d="M 103 150 190 79"/>
<path stroke-width="1" stroke="black" d="M 103 150 165 258"/>
<path stroke-width="1" stroke="black" d="M 103 150 96 229"/>
<path stroke-width="1" stroke="black" d="M 103 150 56 145"/>
<path stroke-width="1" stroke="black" d="M 103 150 236 101"/>
<path stroke-width="1" stroke="black" d="M 103 150 245 164"/>
<path stroke-width="1" stroke="black" d="M 103 150 218 253"/>
<path stroke-width="1" stroke="black" d="M 103 150 164 160"/>
<path stroke-width="1" stroke="black" d="M 247 92 236 101"/>
<path stroke-width="1" stroke="black" d="M 236 101 275 190"/>
<path stroke-width="1" stroke="black" d="M 103 150 117 83"/>
<path stroke-width="1" stroke="black" d="M 236 101 253 127"/>
<path stroke-width="1" stroke="black" d="M 96 229 244 222"/>
<path stroke-width="1" stroke="black" d="M 96 229 91 117"/>
<path stroke-width="1" stroke="black" d="M 190 79 96 229"/>
<path stroke-width="1" stroke="black" d="M 190 79 103 150"/>
<path stroke-width="1" stroke="black" d="M 190 79 236 101"/>
<path stroke-width="1" stroke="black" d="M 190 79 245 164"/>
<path stroke-width="1" stroke="black" d="M 190 79 218 253"/>
<path stroke-width="1" stroke="black" d="M 190 79 164 160"/>
<path stroke-width="1" stroke="black" d="M 159 309 165 258"/>
<path stroke-width="1" stroke="black" d="M 165 258 275 190"/>
<path stroke-width="1" stroke="black" d="M 165 258 253 127"/>
<path stroke-width="1" stroke="black" d="M 165 258 119 243"/>
<path stroke-width="1" stroke="black" d="M 165 258 91 117"/>
<path stroke-width="1" stroke="black" d="M 165 258 117 83"/>
<path stroke-width="1" stroke="black" d="M 96 229 117 83"/>
<path stroke-width="1" stroke="black" d="M 165 258 244 222"/>
<path stroke-width="1" stroke="black" d="M 165 258 190 79"/>
<path stroke-width="1" stroke="black" d="M 165 258 159 309"/>
<path stroke-width="1" stroke="black" d="M 165 258 96 229"/>
<path stroke-width="1" stroke="black" d="M 165 258 103 150"/>
<path stroke-width="1" stroke="black" d="M 165 258 236 101"/>
<path stroke-width="1" stroke="black" d="M 165 258 245 164"/>
<path stroke-width="1" stroke="black" d="M 165 258 218 253"/>
<path stroke-width="1" stroke="black" d="M 165 258 164 160"/>
<path stroke-width="1" stroke="black" d="M 64 253 96 229"/>
<path stroke-width="1" stroke="black" d="M 96 229 275 190"/>
<path stroke-width="1" stroke="black" d="M 96 229 253 127"/>
<path stroke-width="1" stroke="black" d="M 96 229 119 243"/>
<path stroke-width="1" stroke="black" d="M 165 258 80 188"/>
<path stroke-width="1" stroke="black" d="M 190 79 165 258"/>
<path stroke-width="1" stroke="black" d="M 236 101 119 243"/>
<path stroke-width="1" stroke="black" d="M 236 101 117 83"/>
<path stroke-width="1" stroke="black" d="M 218 253 91 117"/>
<path stroke-width="1" stroke="black" d="M 218 253 117 83"/>
<path stroke-width="1" stroke="black" d="M 218 253 244 222"/>
<path stroke-width="1" stroke="black" d="M 218 253 80 188"/>
<path stroke-width="1" stroke="black" d="M 218 253 190 79"/>
<path stroke-width="1" stroke="black" d="M 218 253 165 258"/>
<path stroke-width="1" stroke="black" d="M 218 253 96 229"/>
<path stroke-width="1" stroke="black" d="M 218 253 103 150"/>
<path stroke-width="1" stroke="black" d="M 218 253 236 101"/>
<path stroke-width="1" stroke="black" d="M 218 253 245 164"/>
<path stroke-width="1" stroke="black" d="M 218 253 241 287"/>
<path stroke-width="1" stroke="black" d="M 218 253 164 160"/>
<path stroke-width="1" stroke="black" d="M 218 253 119 243"/>
<path stroke-width="1" stroke="black" d="M 143 150 164 160"/>
<path stroke-width="1" stroke="black" d="M 164 160 253 127"/>
<path stroke-width="1" stroke="black" d="M 164 160 119 243"/>
<path stroke-width="1" stroke="black" d="M 164 160 91 117"/>
<path stroke-width="1" stroke="black" d="M 164 160 117 83"/>
<path stroke-width="1" stroke="black" d="M 164 160 244 222"/>
<path stroke-width="1" stroke="black" d="M 164 160 80 188"/>
<path stroke-width="1" stroke="black" d="M 164 160 190 79"/>
<path stroke-width="1" stroke="black" d="M 164 160 165 258"/>
<path stroke-width="1" stroke="black" d="M 164 160 96 229"/>
<path stroke-width="1" stroke="black" d="M 164 160 103 150"/>
<path stroke-width="1" stroke="black" d="M 164 160 236 101"/>
<path stroke-width="1" stroke="black" d="M 164 160 245 164"/>
<path stroke-width="1" stroke="black" d="M 164 160 275 190"/>
<path stroke-width="1" stroke="black" d="M 236 101 91 117"/>
<path stroke-width="1" stroke="black" d="M 218 253 253 127"/>
<path stroke-width="1" stroke="black" d="M 241 287 218 253"/>
<path stroke-width="1" stroke="black" d="M 236 101 244 222"/>
<path stroke-width="1" stroke="black" d="M 236 101 80 188"/>
<path stroke-width="1" stroke="black" d="M 236 101 190 79"/>
<path stroke-width="1" stroke="black" d="M 236 101 165 258"/>
<path stroke-width="1" stroke="black" d="M 236 101 96 229"/>
<path stroke-width="1" stroke="black" d="M 236 101 103 150"/>
<path stroke-width="1" stroke="black" d="M 236 101 247 92"/>
<path stroke-width="1" stroke="black" d="M 236 101 245 164"/>
<path stroke-width="1" stroke="black" d="M 236 101 218 253"/>
<path stroke-width="1" stroke="black" d="M 236 101 164 160"/>
<path stroke-width="1" stroke="black" d="M 286 156 245 164"/>
<path stroke-width="1" stroke="black" d="M 245 164 275 190"/>
<path stroke-width="1" stroke="black" d="M 218 253 275 190"/>
<path stroke-width="1" stroke="black" d="M 245 164 253 127"/>
<path stroke-width="1" stroke="black" d="M 245 164 91 117"/>
<path stroke-width="1" stroke="black" d="M 245 164 117 83"/>
<path stroke-width="1" stroke="black" d="M 245 164 244 222"/>
<path stroke-width="1" stroke="black" d="M 245 164 80 188"/>
<path stroke-width="1" stroke="black" d="M 245 164 190 79"/>
<path stroke-width="1" stroke="black" d="M 245 164 165 258"/>
<path stroke-width="1" stroke="black" d="M 245 164 96 229"/>
<path stroke-width="1" stroke="black" d="M 245 164 103 150"/>
<path stroke-width="1" stroke="black" d="M 245 164 236 101"/>
<path stroke-width="1" stroke="black" d="M 245 164 286 156"/>
<path stroke-width="1" stroke="black" d="M 245 164 218 253"/>
<path stroke-width="1" stroke="black" d="M 245 164 164 160"/>
<path stroke-width="1" stroke="black" d="M 245 164 119 243"/>
<path stroke-width="1" stroke="black" d="M 190 79 215 20"/>
<path stroke-width="1" stroke="black" d="M 190 79 80 188"/>
<path stroke-width="1" stroke="black" d="M 190 79 244 222"/>
<path stroke-width="1" stroke="black" d="M 253 127 164 160"/>
<path stroke-width="1" stroke="black" d="M 63 320 119 243"/>
<path stroke-width="1" stroke="black" d="M 119 243 275 190"/>
<path stroke-width="1" stroke="black" d="M 119 243 253 127"/>
<path stroke-width="1" stroke="black" d="M 119 243 63 320"/>
<path stroke-width="1" stroke="black" d="M 119 243 91 117"/>
<path stroke-width="1" stroke="black" d="M 119 243 117 83"/>
<path stroke-width="1" stroke="black" d="M 119 243 244 222"/>
<path stroke-width="1" stroke="black" d="M 119 243 80 188"/>
<path stroke-width="1" stroke="black" d="M 119 243 190 79"/>
<path stroke-width="1" stroke="black" d="M 119 243 165 258"/>
<path stroke-width="1" stroke="black" d="M 119 243 96 229"/>
<path stroke-width="1" stroke="black" d="M 253 127 218 253"/>
<path stroke-width="1" stroke="black" d="M 119 243 103 150"/>
<path stroke-width="1" stroke="black" d="M 119 243 245 164"/>
<path stroke-width="1" stroke="black" d="M 119 243 218 253"/>
<path stroke-width="1" stroke="black" d="M 119 243 164 160"/>
<path stroke-width="1" stroke="black" d="M 27 73 91 117"/>
<path stroke-width="1" stroke="black" d="M 91 117 275 190"/>
<path stroke-width="1" stroke="black" d="M 91 117 253 127"/>
<path stroke-width="1" stroke="black" d="M 91 117 119 243"/>
<path stroke-width="1" stroke="black" d="M 91 117 27 73"/>
<path stroke-width="1" stroke="black" d="M 91 117 117 83"/>
<path stroke-width="1" stroke="black" d="M 91 117 244 222"/>
<path stroke-width="1" stroke="black" d="M 91 117 80 188"/>
<path stroke-width="1" stroke="black" d="M 91 117 190 79"/>
<path stroke-width="1" stroke="black" d="M 119 243 236 101"/>
<path stroke-width="1" stroke="black" d="M 91 117 165 258"/>
<path stroke-width="1" stroke="black" d="M 253 127 245 164"/>
<path stroke-width="1" stroke="black" d="M 253 127 103 150"/>
<path stroke-width="1" stroke="black" d="M 275 190 420 199"/>
<path stroke-width="1" stroke="black" d="M 275 190 253 127"/>
<path stroke-width="1" stroke="black" d="M 275 190 119 243"/>
<path stroke-width="1" stroke="black" d="M 275 190 91 117"/>
<path stroke-width="1" stroke="black" d="M 275 190 117 83"/>
<path stroke-width="1" stroke="black" d="M 275 190 244 222"/>
<path stroke-width="1" stroke="black" d="M 275 190 80 188"/>
<path stroke-width="1" stroke="black" d="M 275 190 190 79"/>
<path stroke-width="1" stroke="black" d="M 275 190 165 258"/>
<path stroke-width="1" stroke="black" d="M 275 190 96 229"/>
<path stroke-width="1" stroke="black" d="M 275 190 103 150"/>
<path stroke-width="1" stroke="black" d="M 275 190 236 101"/>
<path stroke-width="1" stroke="black" d="M 253 127 236 101"/>
<path stroke-width="1" stroke="black" d="M 275 190 245 164"/>
<path stroke-width="1" stroke="black" d="M 275 190 164 160"/>
<path stroke-width="1" stroke="black" d="M 352 71 253 127"/>
<path stroke-width="1" stroke="black" d="M 253 127 275 190"/>
<path stroke-width="1" stroke="black" d="M 253 127 352 71"/>
<path stroke-width="1" stroke="black" d="M 253 127 119 243"/>
<path stroke-width="1" stroke="black" d="M 253 127 91 117"/>
<path stroke-width="1" stroke="black" d="M 253 127 117 83"/>
<path stroke-width="1" stroke="black" d="M 253 127 244 222"/>
<path stroke-width="1" stroke="black" d="M 253 127 80 188"/>
<path stroke-width="1" stroke="black" d="M 253 127 190 79"/>
<path stroke-width="1" stroke="black" d="M 253 127 165 258"/>
<path stroke-width="1" stroke="black" d="M 253 127 96 229"/>
<path stroke-width="1" stroke="black" d="M 275 190 218 253"/>
<path stroke-width="1" stroke="black" d="M 91 117 96 229"/>
<path stroke-width="1" stroke="black" d="M 91 117 103 150"/>
<path stroke-width="1" stroke="black" d="M 91 117 236 101"/>
<path stroke-width="1" stroke="black" d="M 244 222 236 101"/>
<path stroke-width="1" stroke="black" d="M 244 222 245 164"/>
<path stroke-width="1" stroke="black" d="M 244 222 218 253"/>
<path stroke-width="1" stroke="black" d="M 244 222 164 160"/>
<path stroke-width="1" stroke="black" d="M 20 199 80 188"/>
<path stroke-width="1" stroke="black" d="M 80 188 275 190"/>
<path stroke-width="1" stroke="black" d="M 80 188 253 127"/>
<path stroke-width="1" stroke="black" d="M 80 188 119 243"/>
<path stroke-width="1" stroke="black" d="M 80 188 91 117"/>
<path stroke-width="1" stroke="black" d="M 80 188 117 83"/>
<path stroke-width="1" stroke="black" d="M 80 188 244 222"/>
<path stroke-width="1" stroke="black" d="M 80 188 20 199"/>
<path stroke-width="1" stroke="black" d="M 244 222 103 150"/>
<path stroke-width="1" stroke="black" d="M 80 188 190 79"/>
<path stroke-width="1" stroke="black" d="M 80 188 96 229"/>
<path stroke-width="1" stroke="black" d="M 80 188 103 150"/>
<path stroke-width="1" stroke="black" d="M 80 188 236 101"/>
<path stroke-width="1" stroke="black" d="M 80 188 245 164"/>
<path stroke-width="1" stroke="black" d="M 80 188 218 253"/>
<path stroke-width="1" stroke="black" d="M 80 188 164 160"/>
<path stroke-width="1" stroke="black" d="M 215 20 190 79"/>
<path stroke-width="1" stroke="black" d="M 190 79 275 190"/>
<path stroke-width="1" stroke="black" d="M 190 79 253 127"/>
<path stroke-width="1" stroke="black" d="M 190 79 119 243"/>
<path stroke-width="1" stroke="black" d="M 190 79 91 117"/>
<path stroke-width="1" stroke="black" d="M 190 79 117 83"/>
<path stroke-width="1" stroke="black" d="M 80 188 165 258"/>
<path stroke-width="1" stroke="black" d="M 244 222 96 229"/>
<path stroke-width="1" stroke="black" d="M 244 222 165 258"/>
<path stroke-width="1" stroke="black" d="M 244 222 190 79"/>
<path stroke-width="1" stroke="black" d="M 91 117 245 164"/>
<path stroke-width="1" stroke="black" d="M 91 117 218 253"/>
<path stroke-width="1" stroke="black" d="M 91 117 164 160"/>
<path stroke-width="1" stroke="black" d="M 70 30 117 83"/>
<path stroke-width="1" stroke="black" d="M 117 83 275 190"/>
<path stroke-width="1" stroke="black" d="M 117 83 253 127"/>
<path stroke-width="1" stroke="black" d="M 117 83 119 243"/>
<path stroke-width="1" stroke="black" d="M 117 83 91 117"/>
<path stroke-width="1" stroke="black" d="M 117 83 70 30"/>
<path stroke-width="1" stroke="black" d="M 117 83 244 222"/>
<path stroke-width="1" stroke="black" d="M 117 83 80 188"/>
<path stroke-width="1" stroke="black" d="M 117 83 190 79"/>
<path stroke-width="1" stroke="black" d="M 117 83 165 258"/>
<path stroke-width="1" stroke="black" d="M 117 83 96 229"/>
<path stroke-width="1" stroke="black" d="M 117 83 103 150"/>
<path stroke-width="1" stroke="black" d="M 117 83 236 101"/>
<path stroke-width="1" stroke="black" d="M 117 83 245 164"/>
<path stroke-width="1" stroke="black" d="M 117 83 218 253"/>
<path stroke-width="1" stroke="black" d="M 117 83 164 160"/>
<path stroke-width="1" stroke="black" d="M 299 256 244 222"/>
<path stroke-width="1" stroke="black" d="M 244 222 275 190"/>
<path stroke-width="1" stroke="black" d="M 244 222 253 127"/>
<path stroke-width="1" stroke="black" d="M 244 222 119 243"/>
<path stroke-width="1" stroke="black" d="M 244 222 91 117"/>
<path stroke-width="1" stroke="black" d="M 244 222 117 83"/>
<path stroke-width="1" stroke="black" d="M 244 222 299 256"/>
<path stroke-width="1" stroke="black" d="M 244 222 80 188"/>
<path stroke-width="1" stroke="black" d="M 164 160 218 253"/>
<path stroke-width="1" stroke="black" d="M 164 160 143 150"/>
<circle cx="420" cy="199" r="7.0" style="fill:gray;stroke:black;stroke-width:1.0"/>
<circle cx="275" cy="190" r="7.0" style="fill:gray;stroke:black;stroke-width:1.0"/>
<circle cx="352" cy="71" r="7.0" style="fill:gray;stroke:black;stroke-width:1.0"/>
<circle cx="253" cy="127" r="7.0" style="fill:gray;stroke:black;stroke-width:1.0"/>
<circle cx="63" cy="320" r="7.0" style="fill:gray;stroke:black;stroke-width:1.0"/>
<circle cx="119" cy="243" r="7.0" style="fill:gray;stroke:black;stroke-width:1.0"/>
<circle cx="27" cy="73" r="7.0" style="fill:gray;stroke:black;stroke-width:1.0"/>
<circle cx="91" cy="117" r="7.0" style="fill:gray;stroke:black;stroke-width:1.0"/>
<circle cx="70" cy="30" r="7.0" style="fill:gray;stroke:black;stroke-width:1.0"/>
<circle cx="117" cy="83" r="7.0" style="fill:gray;stroke:black;stroke-width:1.0"/>
<circle cx="299" cy="256" r="7.0" style="fill:gray;stroke:black;stroke-width:1.0"/>
<circle cx="244" cy="222" r="7.0" style="fill:gray;stroke:black;stroke-width:1.0"/>
<circle cx="20" cy="199" r="7.0" style="fill:gray;stroke:black;stroke-width:1.0"/>
<circle cx="80" cy="188" r="7.0" style="fill:gray;stroke:black;stroke-width:1.0"/>
<circle cx="215" cy="20" r="7.0" style="fill:gray;stroke:black;stroke-width:1.0"/>
<circle cx="190" cy="79" r="7.0" style="fill:gray;stroke:black;stroke-width:1.0"/>
<circle cx="159" cy="309" r="7.0" style="fill:gray;stroke:black;stroke-width:1.0"/>
<circle cx="165" cy="258" r="7.0" style="fill:gray;stroke:black;stroke-width:1.0"/>
<circle cx="64" cy="253" r="7.0" style="fill:gray;stroke:black;stroke-width:1.0"/>
<circle cx="96" cy="229" r="7.0" style="fill:gray;stroke:black;stroke-width:1.0"/>
<circle cx="56" cy="145" r="7.0" style="fill:gray;stroke:black;stroke-width:1.0"/>
<circle cx="103" cy="150" r="7.0" style="fill:gray;stroke:black;stroke-width:1.0"/>
<circle cx="247" cy="92" r="7.0" style="fill:gray;stroke:black;stroke-width:1.0"/>
<circle cx="236" cy="101" r="7.0" style="fill:gray;stroke:black;stroke-width:1.0"/>
<circle cx="286" cy="156" r="7.0" style="fill:gray;stroke:black;stroke-width:1.0"/>
<circle cx="245" cy="164" r="7.0" style="fill:gray;stroke:black;stroke-width:1.0"/>
<circle cx="241" cy="287" r="7.0" style="fill:gray;stroke:black;stroke-width:1.0"/>
<circle cx="218" cy="253" r="7.0" style="fill:gray;stroke:black;stroke-width:1.0"/>
<circle cx="143" cy="150" r="7.0" style="fill:gray;stroke:black;stroke-width:1.0"/>
<circle cx="164" cy="160" r="7.0" style="fill:gray;stroke:black;stroke-width:1.0"/>
</svg>
