<svg width="440" height="340" xmlns="http://www.w3.org/2000/svg">
<path stroke-width="1" stroke="black" d="M 172 20 180 124"/>
<path stroke-width="1" stroke="black" d="M 188 250 70 180"/>
<path stroke-width="1" stroke="black" d="M 188 250 203 182"/>
<path stroke-width="1" stroke="black" d="M 188 250 177 290"/>
<path stroke-width="1" stroke="black" d="M 188 250 294 164"/>
<path stroke-width="1" stroke="black" d="M 188 250 157 259"/>
<path stroke-width="1" stroke="black" d="M 188 250 278 243"/>
<path stroke-width="1" stroke="black" d="M 188 250 233 257"/>
<path stroke-width="1" stroke="black" d="M 188 250 114 237"/>
<path stroke-width="1" stroke="black" d="M 357 137 294 164"/>
<path stroke-width="1" stroke="black" d="M 294 164 180 124"/>
<path stroke-width="1" stroke="black" d="M 294 164 236 120"/>
<path stroke-width="1" stroke="black" d="M 294 164 274 138"/>
<path stroke-width="1" stroke="black" d="M 188 250 89 212"/>
<path stroke-width="1" stroke="black" d="M 294 164 266 186"/>
<path stroke-width="1" stroke="black" d="M 294 164 106 142"/>
<path stroke-width="1" stroke="black" d="M 294 164 89 212"/>
<path stroke-width="1" stroke="black" d="M 294 164 70 180"/>
<path stroke-width="1" stroke="black" d="M 294 164 203 182"/>
<path stroke-width="1" stroke="black" d="M 294 164 188 250"/>
<path stroke-width="1" stroke="black" d="M 294 164 357 137"/>
<path stroke-width="1" stroke="black" d="M 294 164 157 259"/>
<path stroke-width="1" stroke="black" d="M 294 164 278 243"/>
<path stroke-width="1" stroke="black" d="M 294 164 233 257"/>
<path stroke-width="1" stroke="black" d="M 294 164 114 237"/>
<path stroke-width="1" stroke="black" d="M 120 320 157 259"/>
<path stroke-width="1" stroke="black" d="M 157 259 180 124"/>
<path stroke-width="1" stroke="black" d="M 294 164 321 216"/>
<path stroke-width="1" stroke="black" d="M 157 259 236 120"/>
<path stroke-width="1" stroke="black" d="M 188 250 106 142"/>
<path stroke-width="1" stroke="black" d="M 188 250 266 186"/>
<path stroke-width="1" stroke="black" d="M 70 180 188 250"/>
<path stroke-width="1" stroke="black" d="M 70 180 294 164"/>
<path stroke-width="1" stroke="black" d="M 70 180 157 259"/>
<path stroke-width="1" stroke="black" d="M 70 180 278 243"/>
<path stroke-width="1" stroke="black" d="M 70 180 233 257"/>
<path stroke-width="1" stroke="black" d="M 70 180 114 237"/>
<path stroke-width="1" stroke="black" d="M 222 182 203 182"/>
<path stroke-width="1" stroke="black" d="M 203 182 180 124"/>
<path stroke-width="1" stroke="black" d="M 203 182 236 120"/>
<path stroke-width="1" stroke="black" d="M 203 182 274 138"/>
<path stroke-width="1" stroke="black" d="M 203 182 266 186"/>
<path stroke-width="1" stroke="black" d="M 203 182 321 216"/>
<path stroke-width="1" stroke="black" d="M 188 250 321 216"/>
<path stroke-width="1" stroke="black" d="M 203 182 106 142"/>
<path stroke-width="1" stroke="black" d="M 203 182 70 180"/>
<path stroke-width="1" stroke="black" d="M 203 182 222 182"/>
<path stroke-width="1" stroke="black" d="M 203 182 188 250"/>
<path stroke-width="1" stroke="black" d="M 203 182 294 164"/>
<path stroke-width="1" stroke="black" d="M 203 182 157 259"/>
<path stroke-width="1" stroke="black" d="M 203 182 278 243"/>
<path stroke-width="1" stroke="black" d="M 203 182 233 257"/>
<path stroke-width="1" stroke="black" d="M 203 182 114 237"/>
<path stroke-width="1" stroke="black" d="M 177 290 188 250"/>
<path stroke-width="1" stroke="black" d="M 188 250 180 124"/>
<path stroke-width="1" stroke="black" d="M 188 250 236 120"/>
<path stroke-width="1" stroke="black" d="M 188 250 274 138"/>
<path stroke-width="1" stroke="black" d="M 203 182 89 212"/>
<path stroke-width="1" stroke="black" d="M 70 180 203 182"/>
<path stroke-width="1" stroke="black" d="M 157 259 274 138"/>
<path stroke-width="1" stroke="black" d="M 157 259 321 216"/>
<path stroke-width="1" stroke="black" d="M 233 257 266 186"/>
<path stroke-width="1" stroke="black" d="M 233 257 321 216"/>
<path stroke-width="1" stroke="black" d="M 233 257 106 142"/>
<path stroke-width="1" stroke="black" d="M 233 257 89 212"/>
<path stroke-width="1" stroke="black" d="M 233 257 70 180"/>
<path stroke-width="1" stroke="black" d="M 233 257 203 182"/>
<path stroke-width="1" stroke="black" d="M 233 257 188 250"/>
<path stroke-width="1" stroke="black" d="M 233 257 294 164"/>
<path stroke-width="1" stroke="black" d="M 233 257 157 259"/>
<path stroke-width="1" stroke="black" d="M 233 257 278 243"/>
<path stroke-width="1" stroke="black" d="M 233 257 256 313"/>
<path stroke-width="1" stroke="black" d="M 233 257 114 237"/>
<path stroke-width="1" stroke="black" d="M 233 257 274 138"/>
<path stroke-width="1" stroke="black" d="M 80 252 114 237"/>
<path stroke-width="1" stroke="black" d="M 114 237 236 120"/>
<path stroke-width="1" stroke="black" d="M 114 237 274 138"/>
<path stroke-width="1" stroke="black" d="M 114 237 266 186"/>
<path stroke-width="1" stroke="black" d="M 114 237 321 216"/>
<path stroke-width="1" stroke="black" d="M 114 237 106 142"/>
<path stroke-width="1" stroke="black" d="M 114 237 89 212"/>
<path stroke-width="1" stroke="black" d="M 114 237 70 180"/>
<path stroke-width="1" stroke="black" d="M 114 237 203 182"/>
<path stroke-width="1" stroke="black" d="M 114 237 188 250"/>
<path stroke-width="1" stroke="black" d="M 114 237 294 164"/>
<path stroke-width="1" stroke="black" d="M 114 237 157 259"/>
<path stroke-width="1" stroke="black" d="M 114 237 278 243"/>
<path stroke-width="1" stroke="black" d="M 114 237 180 124"/>
<path stroke-width="1" stroke="black" d="M 157 259 266 186"/>
<path stroke-width="1" stroke="black" d="M 233 257 236 120"/>
<path stroke-width="1" stroke="black" d="M 256 313 233 257"/>
<path stroke-width="1" stroke="black" d="M 157 259 106 142"/>
<path stroke-width="1" stroke="black" d="M 157 259 89 212"/>
<path stroke-width="1" stroke="black" d="M 157 259 70 180"/>
<path stroke-width="1" stroke="black" d="M 157 259 203 182"/>
<path stroke-width="1" stroke="black" d="M 157 259 188 250"/>
<path stroke-width="1" stroke="black" d="M 157 259 294 164"/>
<path stroke-width="1" stroke="black" d="M 157 259 120 320"/>
<path stroke-width="1" stroke="black" d="M 157 259 278 243"/>
<path stroke-width="1" stroke="black" d="M 157 259 233 257"/>
<path stroke-width="1" stroke="black" d="M 157 259 114 237"/>
<path stroke-width="1" stroke="black" d="M 331 279 278 243"/>
<path stroke-width="1" stroke="black" d="M 278 243 180 124"/>
<path stroke-width="1" stroke="black" d="M 233 257 180 124"/>
<path stroke-width="1" stroke="black" d="M 278 243 236 120"/>
<path stroke-width="1" stroke="black" d="M 278 243 266 186"/>
<path stroke-width="1" stroke="black" d="M 278 243 321 216"/>
<path stroke-width="1" stroke="black" d="M 278 243 106 142"/>
<path stroke-width="1" stroke="black" d="M 278 243 89 212"/>
<path stroke-width="1" stroke="black" d="M 278 243 70 180"/>
<path stroke-width="1" stroke="black" d="M 278 243 203 182"/>
<path stroke-width="1" stroke="black" d="M 278 243 188 250"/>
<path stroke-width="1" stroke="black" d="M 278 243 294 164"/>
<path stroke-width="1" stroke="black" d="M 278 243 157 259"/>
<path stroke-width="1" stroke="black" d="M 278 243 331 279"/>
<path stroke-width="1" stroke="black" d="M 278 243 233 257"/>
<path stroke-width="1" stroke="black" d="M 278 243 114 237"/>
<path stroke-width="1" stroke="black" d="M 278 243 274 138"/>
<path stroke-width="1" stroke="black" d="M 70 180 20 177"/>
<path stroke-width="1" stroke="black" d="M 70 180 89 212"/>
<path stroke-width="1" stroke="black" d="M 70 180 106 142"/>
<path stroke-width="1" stroke="black" d="M 236 120 114 237"/>
<path stroke-width="1" stroke="black" d="M 364 84 274 138"/>
<path stroke-width="1" stroke="black" d="M 274 138 180 124"/>
<path stroke-width="1" stroke="black" d="M 274 138 236 120"/>
<path stroke-width="1" stroke="black" d="M 274 138 364 84"/>
<path stroke-width="1" stroke="black" d="M 274 138 266 186"/>
<path stroke-width="1" stroke="black" d="M 274 138 321 216"/>
<path stroke-width="1" stroke="black" d="M 274 138 106 142"/>
<path stroke-width="1" stroke="black" d="M 274 138 89 212"/>
<path stroke-width="1" stroke="black" d="M 274 138 70 180"/>
<path stroke-width="1" stroke="black" d="M 274 138 203 182"/>
<path stroke-width="1" stroke="black" d="M 274 138 188 250"/>
<path stroke-width="1" stroke="black" d="M 236 120 233 257"/>
<path stroke-width="1" stroke="black" d="M 274 138 294 164"/>
<path stroke-width="1" stroke="black" d="M 274 138 278 243"/>
<path stroke-width="1" stroke="black" d="M 274 138 233 257"/>
<path stroke-width="1" stroke="black" d="M 274 138 114 237"/>
<path stroke-width="1" stroke="black" d="M 357 175 266 186"/>
<path stroke-width="1" stroke="black" d="M 266 186 180 124"/>
<path stroke-width="1" stroke="black" d="M 266 186 236 120"/>
<path stroke-width="1" stroke="black" d="M 266 186 274 138"/>
<path stroke-width="1" stroke="black" d="M 266 186 357 175"/>
<path stroke-width="1" stroke="black" d="M 266 186 321 216"/>
<path stroke-width="1" stroke="black" d="M 266 186 106 142"/>
<path stroke-width="1" stroke="black" d="M 266 186 89 212"/>
<path stroke-width="1" stroke="black" d="M 266 186 70 180"/>
<path stroke-width="1" stroke="black" d="M 274 138 157 259"/>
<path stroke-width="1" stroke="black" d="M 266 186 203 182"/>
<path stroke-width="1" stroke="black" d="M 236 120 278 243"/>
<path stroke-width="1" stroke="black" d="M 236 120 294 164"/>
<path stroke-width="1" stroke="black" d="M 180 124 172 20"/>
<path stroke-width="1" stroke="black" d="M 180 124 236 120"/>
<path stroke-width="1" stroke="black" d="M 180 124 274 138"/>
<path stroke-width="1" stroke="black" d="M 180 124 266 186"/>
<path stroke-width="1" stroke="black" d="M 180 124 321 216"/>
<path stroke-width="1" stroke="black" d="M 180 124 106 142"/>
<path stroke-width="1" stroke="black" d="M 180 124 89 212"/>
<path stroke-width="1" stroke="black" d="M 180 124 70 180"/>
<path stroke-width="1" stroke="black" d="M 180 124 203 182"/>
<path stroke-width="1" stroke="black" d="M 180 124 188 250"/>
<path stroke-width="1" stroke="black" d="M 180 124 294 164"/>
<path stroke-width="1" stroke="black" d="M 180 124 157 259"/>
<path stroke-width="1" stroke="black" d="M 236 120 157 259"/>
<path stroke-width="1" stroke="black" d="M 180 124 278 243"/>
<path stroke-width="1" stroke="black" d="M 180 124 114 237"/>
<path stroke-width="1" stroke="black" d="M 302 32 236 120"/>
<path stroke-width="1" stroke="black" d="M 236 120 180 124"/>
<path stroke-width="1" stroke="black" d="M 236 120 302 32"/>
<path stroke-width="1" stroke="black" d="M 236 120 274 138"/>
<path stroke-width="1" stroke="black" d="M 236 120 266 186"/>
<path stroke-width="1" stroke="black" d="M 236 120 321 216"/>
<path stroke-width="1" stroke="black" d="M 236 120 106 142"/>
<path stroke-width="1" stroke="black" d="M 236 120 89 212"/>
<path stroke-width="1" stroke="black" d="M 236 120 70 180"/>
<path stroke-width="1" stroke="black" d="M 236 120 203 182"/>
<path stroke-width="1" stroke="black" d="M 236 120 188 250"/>
<path stroke-width="1" stroke="black" d="M 180 124 233 257"/>
<path stroke-width="1" stroke="black" d="M 266 186 188 250"/>
<path stroke-width="1" stroke="black" d="M 266 186 294 164"/>
<path stroke-width="1" stroke="black" d="M 266 186 157 259"/>
<path stroke-width="1" stroke="black" d="M 106 142 157 259"/>
<path stroke-width="1" stroke="black" d="M 106 142 278 243"/>
<path stroke-width="1" stroke="black" d="M 106 142 233 257"/>
<path stroke-width="1" stroke="black" d="M 106 142 114 237"/>
<path stroke-width="1" stroke="black" d="M 20 227 89 212"/>
<path stroke-width="1" stroke="black" d="M 89 212 180 124"/>
<path stroke-width="1" stroke="black" d="M 89 212 236 120"/>
<path stroke-width="1" stroke="black" d="M 89 212 274 138"/>
<path stroke-width="1" stroke="black" d="M 89 212 266 186"/>
<path stroke-width="1" stroke="black" d="M 89 212 321 216"/>
<path stroke-width="1" stroke="black" d="M 89 212 106 142"/>
<path stroke-width="1" stroke="black" d="M 89 212 20 227"/>
<path stroke-width="1" stroke="black" d="M 106 142 294 164"/>
<path stroke-width="1" stroke="black" d="M 89 212 70 180"/>
<path stroke-width="1" stroke="black" d="M 89 212 188 250"/>
<path stroke-width="1" stroke="black" d="M 89 212 294 164"/>
<path stroke-width="1" stroke="black" d="M 89 212 157 259"/>
<path stroke-width="1" stroke="black" d="M 89 212 278 243"/>
<path stroke-width="1" stroke="black" d="M 89 212 233 257"/>
<path stroke-width="1" stroke="black" d="M 89 212 114 237"/>
<path stroke-width="1" stroke="black" d="M 20 177 70 180"/>
<path stroke-width="1" stroke="black" d="M 70 180 180 124"/>
<path stroke-width="1" stroke="black" d="M 70 180 236 120"/>
<path stroke-width="1" stroke="black" d="M 70 180 274 138"/>
<path stroke-width="1" stroke="black" d="M 70 180 266 186"/>
<path stroke-width="1" stroke="black" d="M 70 180 321 216"/>
<path stroke-width="1" stroke="black" d="M 89 212 203 182"/>
<path stroke-width="1" stroke="black" d="M 106 142 188 250"/>
<path stroke-width="1" stroke="black" d="M 106 142 203 182"/>
<path stroke-width="1" stroke="black" d="M 106 142 70 180"/>
<path stroke-width="1" stroke="black" d="M 266 186 278 243"/>
<path stroke-width="1" stroke="black" d="M 266 186 233 257"/>
<path stroke-width="1" stroke="black" d="M 266 186 114 237"/>
<path stroke-width="1" stroke="black" d="M 420 229 321 216"/>
<path stroke-width="1" stroke="black" d="M 321 216 180 124"/>
<path stroke-width="1" stroke="black" d="M 321 216 236 120"/>
<path stroke-width="1" stroke="black" d="M 321 216 274 138"/>
<path stroke-width="1" stroke="black" d="M 321 216 266 186"/>
<path stroke-width="1" stroke="black" d="M 321 216 420 229"/>
<path stroke-width="1" stroke="black" d="M 321 216 106 142"/>
<path stroke-width="1" stroke="black" d="M 321 216 89 212"/>
<path stroke-width="1" stroke="black" d="M 321 216 70 180"/>
<path stroke-width="1" stroke="black" d="M 321 216 203 182"/>
<path stroke-width="1" stroke="black" d="M 321 216 188 250"/>
<path stroke-width="1" stroke="black" d="M 321 216 294 164"/>
<path stroke-width="1" stroke="black" d="M 321 216 157 259"/>
<path stroke-width="1" stroke="black" d="M 321 216 278 243"/>
<path stroke-width="1" stroke="black" d="M 321 216 233 257"/>
<path stroke-width="1" stroke="black" d="M 321 216 114 237"/>
<path stroke-width="1" stroke="black" d="M 51 111 106 142"/>
<path stroke-width="1" stroke="black" d="M 106 142 180 124"/>
<path stroke-width="1" stroke="black" d="M 106 142 236 120"/>
<path stroke-width="1" stroke="black" d="M 106 142 274 138"/>
<path stroke-width="1" stroke="black" d="M 106 142 266 186"/>
<path stroke-width="1" stroke="black" d="M 106 142 321 216"/>
<path stroke-width="1" stroke="black" d="M 106 142 51 111"/>
<path stroke-width="1" stroke="black" d="M 106 142 89 212"/>
<path stroke-width="1" stroke="black" d="M 114 237 233 257"/>
<path stroke-width="1" stroke="black" d="M 114 237 80 252"/>
<circle cx="172" cy="20" r="7.0" style="fill:gray;stroke:black;stroke-width:1.0"/>
<circle cx="180" cy="124" r="7.0" style="fill:gray;stroke:black;stroke-width:1.0"/>
<circle cx="302" cy="32" r="7.0" style="fill:gray;stroke:black;stroke-width:1.0"/>
<circle cx="236" cy="120" r="7.0" style="fill:gray;stroke:black;stroke-width:1.0"/>
<circle cx="364" cy="84" r="7.0" style="fill:gray;stroke:black;stroke-width:1.0"/>
<circle cx="274" cy="138" r="7.0" style="fill:gray;stroke:black;stroke-width:1.0"/>
<circle cx="357" cy="175" r="7.0" style="fill:gray;stroke:black;stroke-width:1.0"/>
<circle cx="266" cy="186" r="7.0" style="fill:gray;stroke:black;stroke-width:1.0"/>
<circle cx="420" cy="229" r="7.0" style="fill:gray;stroke:black;stroke-width:1.0"/>
<circle cx="321" cy="216" r="7.0" style="fill:gray;stroke:black;stroke-width:1.0"/>
<circle cx="51" cy="111" r="7.0" style="fill:gray;stroke:black;stroke-width:1.0"/>
<circle cx="106" cy="142" r="7.0" style="fill:gray;stroke:black;stroke-width:1.0"/>
<circle cx="20" cy="227" r="7.0" style="fill:gray;stroke:black;stroke-width:1.0"/>
<circle cx="89" cy="212" r="7.0" style="fill:gray;stroke:black;stroke-width:1.0"/>
<circle cx="20" cy="177" r="7.0" style="fill:gray;stroke:black;stroke-width:1.0"/>
<circle cx="70" cy="180" r="7.0" style="fill:gray;stroke:black;stroke-width:1.0"/>
<circle cx="222" cy="182" r="7.0" style="fill:gray;stroke:black;stroke-width:1.0"/>
<circle cx="203" cy="182" r="7.0" style="fill:gray;stroke:black;stroke-width:1.0"/>
<circle cx="177" cy="290" r="7.0" style="fill:gray;stroke:black;stroke-width:1.0"/>
<circle cx="188" cy="250" r="7.0" style="fill:gray;stroke:black;stroke-width:1.0"/>
<circle cx="357" cy="137" r="7.0" style="fill:gray;stroke:black;stroke-width:1.0"/>
<circle cx="294" cy="164" r="7.0" style="fill:gray;stroke:black;stroke-width:1.0"/>
<circle cx="120" cy="320" r="7.0" style="fill:gray;stroke:black;stroke-width:1.0"/>
<circle cx="157" cy="259" r="7.0" style="fill:gray;stroke:black;stroke-width:1.0"/>
<circle cx="331" cy="279" r="7.0" style="fill:gray;stroke:black;stroke-width:1.0"/>
<circle cx="278" cy="243" r="7.0" style="fill:gray;stroke:black;stroke-width:1.0"/>
<circle cx="256" cy="313" r="7.0" style="fill:gray;stroke:black;stroke-width:1.0"/>
<circle cx="233" cy="257" r="7.0" style="fill:gray;stroke:black;stroke-width:1.0"/>
<circle cx="80" cy="252" r="7.0" style="fill:gray;stroke:black;stroke-width:1.0"/>
<circle cx="114" cy="237" r="7.0" style="fill:gray;stroke:black;stroke-width:1.0"/>
</svg>
