<svg width="440" height="340" xmlns="http://www.w3.org/2000/svg">
<path stroke-width="2.2105263157894735" stroke="black" d="M 390 53 292 123"/>
<path stroke-width="0.5" stroke="black" d="M 268 95 280 213"/>
<path stroke-width="0.5" stroke="black" d="M 268 95 152 101"/>
<path stroke-width="13.842105263157896" stroke="black" d="M 268 95 298 59"/>
<path stroke-width="0.5" stroke="black" d="M 268 95 301 182"/>
<path stroke-width="0.5" stroke="black" d="M 268 95 219 205"/>
<path stroke-width="0.5" stroke="black" d="M 268 95 221 102"/>
<path stroke-width="0.5" stroke="black" d="M 268 95 150 182"/>
<path stroke-width="0.5" stroke="black" d="M 268 95 267 156"/>
<path stroke-width="15.210526315789474" stroke="black" d="M 359 199 301 182"/>
<path stroke-width="0.5" stroke="black" d="M 301 182 292 123"/>
<path stroke-width="0.5" stroke="black" d="M 301 182 194 225"/>
<path stroke-width="0.5" stroke="black" d="M 301 182 129 159"/>
<path stroke-width="0.5" stroke="black" d="M 268 95 130 129"/>
<path stroke-width="0.5" stroke="black" d="M 301 182 323 102"/>
<path stroke-width="0.5" stroke="black" d="M 301 182 330 152"/>
<path stroke-width="0.5" stroke="black" d="M 301 182 130 129"/>
<path stroke-width="0.5" stroke="black" d="M 301 182 280 213"/>
<path stroke-width="0.5" stroke="black" d="M 301 182 152 101"/>
<path stroke-width="0.5" stroke="black" d="M 301 182 268 95"/>
<path stroke-width="15.210526315789474" stroke="black" d="M 301 182 359 199"/>
<path stroke-width="0.5" stroke="black" d="M 301 182 219 205"/>
<path stroke-width="0.5" stroke="black" d="M 301 182 221 102"/>
<path stroke-width="0.5" stroke="black" d="M 301 182 150 182"/>
<path stroke-width="0.5" stroke="black" d="M 301 182 267 156"/>
<path stroke-width="16.57894736842105" stroke="black" d="M 208 242 219 205"/>
<path stroke-width="0.5" stroke="black" d="M 219 205 292 123"/>
<path stroke-width="0.5" stroke="black" d="M 301 182 188 78"/>
<path stroke-width="0.5" stroke="black" d="M 219 205 194 225"/>
<path stroke-width="0.5" stroke="black" d="M 268 95 330 152"/>
<path stroke-width="0.5" stroke="black" d="M 268 95 323 102"/>
<path stroke-width="0.5" stroke="black" d="M 280 213 268 95"/>
<path stroke-width="0.5" stroke="black" d="M 280 213 301 182"/>
<path stroke-width="0.5" stroke="black" d="M 280 213 219 205"/>
<path stroke-width="0.5" stroke="black" d="M 280 213 221 102"/>
<path stroke-width="0.5" stroke="black" d="M 280 213 150 182"/>
<path stroke-width="0.5" stroke="black" d="M 280 213 267 156"/>
<path stroke-width="12.473684210526315" stroke="black" d="M 95 70 152 101"/>
<path stroke-width="0.5" stroke="black" d="M 152 101 292 123"/>
<path stroke-width="0.5" stroke="black" d="M 152 101 194 225"/>
<path stroke-width="0.5" stroke="black" d="M 152 101 129 159"/>
<path stroke-width="0.5" stroke="black" d="M 152 101 323 102"/>
<path stroke-width="0.5" stroke="black" d="M 152 101 188 78"/>
<path stroke-width="0.5" stroke="black" d="M 268 95 188 78"/>
<path stroke-width="0.5" stroke="black" d="M 152 101 330 152"/>
<path stroke-width="0.5" stroke="black" d="M 152 101 280 213"/>
<path stroke-width="12.473684210526315" stroke="black" d="M 152 101 95 70"/>
<path stroke-width="0.5" stroke="black" d="M 152 101 268 95"/>
<path stroke-width="0.5" stroke="black" d="M 152 101 301 182"/>
<path stroke-width="0.5" stroke="black" d="M 152 101 219 205"/>
<path stroke-width="0.5" stroke="black" d="M 152 101 221 102"/>
<path stroke-width="0.5" stroke="black" d="M 152 101 150 182"/>
<path stroke-width="0.5" stroke="black" d="M 152 101 267 156"/>
<path stroke-width="13.842105263157896" stroke="black" d="M 298 59 268 95"/>
<path stroke-width="0.5" stroke="black" d="M 268 95 292 123"/>
<path stroke-width="0.5" stroke="black" d="M 268 95 194 225"/>
<path stroke-width="0.5" stroke="black" d="M 268 95 129 159"/>
<path stroke-width="0.5" stroke="black" d="M 152 101 130 129"/>
<path stroke-width="0.5" stroke="black" d="M 280 213 152 101"/>
<path stroke-width="0.5" stroke="black" d="M 219 205 129 159"/>
<path stroke-width="0.5" stroke="black" d="M 219 205 188 78"/>
<path stroke-width="0.5" stroke="black" d="M 150 182 323 102"/>
<path stroke-width="0.5" stroke="black" d="M 150 182 188 78"/>
<path stroke-width="0.5" stroke="black" d="M 150 182 330 152"/>
<path stroke-width="0.5" stroke="black" d="M 150 182 130 129"/>
<path stroke-width="0.5" stroke="black" d="M 150 182 280 213"/>
<path stroke-width="0.5" stroke="black" d="M 150 182 152 101"/>
<path stroke-width="0.5" stroke="black" d="M 150 182 268 95"/>
<path stroke-width="0.5" stroke="black" d="M 150 182 301 182"/>
<path stroke-width="0.5" stroke="black" d="M 150 182 219 205"/>
<path stroke-width="0.5" stroke="black" d="M 150 182 221 102"/>
<path stroke-width="18.63157894736842" stroke="black" d="M 150 182 103 201"/>
<path stroke-width="0.5" stroke="black" d="M 150 182 267 156"/>
<path stroke-width="0.5" stroke="black" d="M 150 182 129 159"/>
<path stroke-width="20.0" stroke="black" d="M 210 162 267 156"/>
<path stroke-width="0.5" stroke="black" d="M 267 156 194 225"/>
<path stroke-width="0.5" stroke="black" d="M 267 156 129 159"/>
<path stroke-width="0.5" stroke="black" d="M 267 156 323 102"/>
<path stroke-width="0.5" stroke="black" d="M 267 156 188 78"/>
<path stroke-width="0.5" stroke="black" d="M 267 156 330 152"/>
<path stroke-width="0.5" stroke="black" d="M 267 156 130 129"/>
<path stroke-width="0.5" stroke="black" d="M 267 156 280 213"/>
<path stroke-width="0.5" stroke="black" d="M 267 156 152 101"/>
<path stroke-width="0.5" stroke="black" d="M 267 156 268 95"/>
<path stroke-width="0.5" stroke="black" d="M 267 156 301 182"/>
<path stroke-width="0.5" stroke="black" d="M 267 156 219 205"/>
<path stroke-width="0.5" stroke="black" d="M 267 156 221 102"/>
<path stroke-width="0.5" stroke="black" d="M 267 156 292 123"/>
<path stroke-width="0.5" stroke="black" d="M 219 205 323 102"/>
<path stroke-width="0.5" stroke="black" d="M 150 182 194 225"/>
<path stroke-width="18.63157894736842" stroke="black" d="M 103 201 150 182"/>
<path stroke-width="0.5" stroke="black" d="M 219 205 330 152"/>
<path stroke-width="0.5" stroke="black" d="M 219 205 130 129"/>
<path stroke-width="0.5" stroke="black" d="M 219 205 280 213"/>
<path stroke-width="0.5" stroke="black" d="M 219 205 152 101"/>
<path stroke-width="0.5" stroke="black" d="M 219 205 268 95"/>
<path stroke-width="0.5" stroke="black" d="M 219 205 301 182"/>
<path stroke-width="16.57894736842105" stroke="black" d="M 219 205 208 242"/>
<path stroke-width="0.5" stroke="black" d="M 219 205 221 102"/>
<path stroke-width="0.5" stroke="black" d="M 219 205 150 182"/>
<path stroke-width="0.5" stroke="black" d="M 219 205 267 156"/>
<path stroke-width="17.94736842105263" stroke="black" d="M 222 68 221 102"/>
<path stroke-width="0.5" stroke="black" d="M 221 102 292 123"/>
<path stroke-width="0.5" stroke="black" d="M 150 182 292 123"/>
<path stroke-width="0.5" stroke="black" d="M 221 102 194 225"/>
<path stroke-width="0.5" stroke="black" d="M 221 102 323 102"/>
<path stroke-width="0.5" stroke="black" d="M 221 102 188 78"/>
<path stroke-width="0.5" stroke="black" d="M 221 102 330 152"/>
<path stroke-width="0.5" stroke="black" d="M 221 102 130 129"/>
<path stroke-width="0.5" stroke="black" d="M 221 102 280 213"/>
<path stroke-width="0.5" stroke="black" d="M 221 102 152 101"/>
<path stroke-width="0.5" stroke="black" d="M 221 102 268 95"/>
<path stroke-width="0.5" stroke="black" d="M 221 102 301 182"/>
<path stroke-width="0.5" stroke="black" d="M 221 102 219 205"/>
<path stroke-width="17.94736842105263" stroke="black" d="M 221 102 222 68"/>
<path stroke-width="0.5" stroke="black" d="M 221 102 150 182"/>
<path stroke-width="0.5" stroke="black" d="M 221 102 267 156"/>
<path stroke-width="0.5" stroke="black" d="M 221 102 129 159"/>
<path stroke-width="11.105263157894736" stroke="black" d="M 280 213 316 254"/>
<path stroke-width="0.5" stroke="black" d="M 280 213 130 129"/>
<path stroke-width="0.5" stroke="black" d="M 280 213 330 152"/>
<path stroke-width="0.5" stroke="black" d="M 194 225 267 156"/>
<path stroke-width="4.2631578947368425" stroke="black" d="M 20 177 129 159"/>
<path stroke-width="0.5" stroke="black" d="M 129 159 292 123"/>
<path stroke-width="0.5" stroke="black" d="M 129 159 194 225"/>
<path stroke-width="4.2631578947368425" stroke="black" d="M 129 159 20 177"/>
<path stroke-width="0.5" stroke="black" d="M 129 159 323 102"/>
<path stroke-width="0.5" stroke="black" d="M 129 159 188 78"/>
<path stroke-width="0.5" stroke="black" d="M 129 159 330 152"/>
<path stroke-width="0.5" stroke="black" d="M 129 159 130 129"/>
<path stroke-width="0.5" stroke="black" d="M 129 159 280 213"/>
<path stroke-width="0.5" stroke="black" d="M 129 159 152 101"/>
<path stroke-width="0.5" stroke="black" d="M 129 159 268 95"/>
<path stroke-width="0.5" stroke="black" d="M 194 225 150 182"/>
<path stroke-width="0.5" stroke="black" d="M 129 159 301 182"/>
<path stroke-width="0.5" stroke="black" d="M 129 159 221 102"/>
<path stroke-width="0.5" stroke="black" d="M 129 159 150 182"/>
<path stroke-width="0.5" stroke="black" d="M 129 159 267 156"/>
<path stroke-width="5.631578947368421" stroke="black" d="M 408 61 323 102"/>
<path stroke-width="0.5" stroke="black" d="M 323 102 292 123"/>
<path stroke-width="0.5" stroke="black" d="M 323 102 194 225"/>
<path stroke-width="0.5" stroke="black" d="M 323 102 129 159"/>
<path stroke-width="5.631578947368421" stroke="black" d="M 323 102 408 61"/>
<path stroke-width="0.5" stroke="black" d="M 323 102 188 78"/>
<path stroke-width="0.5" stroke="black" d="M 323 102 330 152"/>
<path stroke-width="0.5" stroke="black" d="M 323 102 130 129"/>
<path stroke-width="0.5" stroke="black" d="M 323 102 280 213"/>
<path stroke-width="0.5" stroke="black" d="M 129 159 219 205"/>
<path stroke-width="0.5" stroke="black" d="M 323 102 152 101"/>
<path stroke-width="0.5" stroke="black" d="M 194 225 221 102"/>
<path stroke-width="0.5" stroke="black" d="M 194 225 301 182"/>
<path stroke-width="2.2105263157894735" stroke="black" d="M 292 123 390 53"/>
<path stroke-width="0.5" stroke="black" d="M 292 123 194 225"/>
<path stroke-width="0.5" stroke="black" d="M 292 123 129 159"/>
<path stroke-width="0.5" stroke="black" d="M 292 123 323 102"/>
<path stroke-width="0.5" stroke="black" d="M 292 123 188 78"/>
<path stroke-width="0.5" stroke="black" d="M 292 123 330 152"/>
<path stroke-width="0.5" stroke="black" d="M 292 123 130 129"/>
<path stroke-width="0.5" stroke="black" d="M 292 123 280 213"/>
<path stroke-width="0.5" stroke="black" d="M 292 123 152 101"/>
<path stroke-width="0.5" stroke="black" d="M 292 123 268 95"/>
<path stroke-width="0.5" stroke="black" d="M 292 123 301 182"/>
<path stroke-width="0.5" stroke="black" d="M 292 123 219 205"/>
<path stroke-width="0.5" stroke="black" d="M 194 225 219 205"/>
<path stroke-width="0.5" stroke="black" d="M 292 123 221 102"/>
<path stroke-width="0.5" stroke="black" d="M 292 123 267 156"/>
<path stroke-width="2.8947368421052633" stroke="black" d="M 177 320 194 225"/>
<path stroke-width="0.5" stroke="black" d="M 194 225 292 123"/>
<path stroke-width="2.8947368421052633" stroke="black" d="M 194 225 177 320"/>
<path stroke-width="0.5" stroke="black" d="M 194 225 129 159"/>
<path stroke-width="0.5" stroke="black" d="M 194 225 323 102"/>
<path stroke-width="0.5" stroke="black" d="M 194 225 188 78"/>
<path stroke-width="0.5" stroke="black" d="M 194 225 330 152"/>
<path stroke-width="0.5" stroke="black" d="M 194 225 130 129"/>
<path stroke-width="0.5" stroke="black" d="M 194 225 280 213"/>
<path stroke-width="0.5" stroke="black" d="M 194 225 152 101"/>
<path stroke-width="0.5" stroke="black" d="M 194 225 268 95"/>
<path stroke-width="0.5" stroke="black" d="M 292 123 150 182"/>
<path stroke-width="0.5" stroke="black" d="M 323 102 268 95"/>
<path stroke-width="0.5" stroke="black" d="M 323 102 301 182"/>
<path stroke-width="0.5" stroke="black" d="M 323 102 219 205"/>
<path stroke-width="0.5" stroke="black" d="M 330 152 219 205"/>
<path stroke-width="0.5" stroke="black" d="M 330 152 221 102"/>
<path stroke-width="0.5" stroke="black" d="M 330 152 150 182"/>
<path stroke-width="0.5" stroke="black" d="M 330 152 267 156"/>
<path stroke-width="9.736842105263158" stroke="black" d="M 57 114 130 129"/>
<path stroke-width="0.5" stroke="black" d="M 130 129 292 123"/>
<path stroke-width="0.5" stroke="black" d="M 130 129 194 225"/>
<path stroke-width="0.5" stroke="black" d="M 130 129 129 159"/>
<path stroke-width="0.5" stroke="black" d="M 130 129 323 102"/>
<path stroke-width="0.5" stroke="black" d="M 130 129 188 78"/>
<path stroke-width="0.5" stroke="black" d="M 130 129 330 152"/>
<path stroke-width="9.736842105263158" stroke="black" d="M 130 129 57 114"/>
<path stroke-width="0.5" stroke="black" d="M 330 152 301 182"/>
<path stroke-width="0.5" stroke="black" d="M 130 129 280 213"/>
<path stroke-width="0.5" stroke="black" d="M 130 129 268 95"/>
<path stroke-width="0.5" stroke="black" d="M 130 129 301 182"/>
<path stroke-width="0.5" stroke="black" d="M 130 129 219 205"/>
<path stroke-width="0.5" stroke="black" d="M 130 129 221 102"/>
<path stroke-width="0.5" stroke="black" d="M 130 129 150 182"/>
<path stroke-width="0.5" stroke="black" d="M 130 129 267 156"/>
<path stroke-width="11.105263157894736" stroke="black" d="M 316 254 280 213"/>
<path stroke-width="0.5" stroke="black" d="M 280 213 292 123"/>
<path stroke-width="0.5" stroke="black" d="M 280 213 194 225"/>
<path stroke-width="0.5" stroke="black" d="M 280 213 129 159"/>
<path stroke-width="0.5" stroke="black" d="M 280 213 323 102"/>
<path stroke-width="0.5" stroke="black" d="M 280 213 188 78"/>
<path stroke-width="0.5" stroke="black" d="M 130 129 152 101"/>
<path stroke-width="0.5" stroke="black" d="M 330 152 268 95"/>
<path stroke-width="0.5" stroke="black" d="M 330 152 152 101"/>
<path stroke-width="0.5" stroke="black" d="M 330 152 280 213"/>
<path stroke-width="0.5" stroke="black" d="M 323 102 221 102"/>
<path stroke-width="0.5" stroke="black" d="M 323 102 150 182"/>
<path stroke-width="0.5" stroke="black" d="M 323 102 267 156"/>
<path stroke-width="7.0" stroke="black" d="M 167 20 188 78"/>
<path stroke-width="0.5" stroke="black" d="M 188 78 292 123"/>
<path stroke-width="0.5" stroke="black" d="M 188 78 194 225"/>
<path stroke-width="0.5" stroke="black" d="M 188 78 129 159"/>
<path stroke-width="0.5" stroke="black" d="M 188 78 323 102"/>
<path stroke-width="7.0" stroke="black" d="M 188 78 167 20"/>
<path stroke-width="0.5" stroke="black" d="M 188 78 330 152"/>
<path stroke-width="0.5" stroke="black" d="M 188 78 130 129"/>
<path stroke-width="0.5" stroke="black" d="M 188 78 280 213"/>
<path stroke-width="0.5" stroke="black" d="M 188 78 152 101"/>
<path stroke-width="0.5" stroke="black" d="M 188 78 268 95"/>
<path stroke-width="0.5" stroke="black" d="M 188 78 301 182"/>
<path stroke-width="0.5" stroke="black" d="M 188 78 219 205"/>
<path stroke-width="0.5" stroke="black" d="M 188 78 221 102"/>
<path stroke-width="0.5" stroke="black" d="M 188 78 150 182"/>
<path stroke-width="0.5" stroke="black" d="M 188 78 267 156"/>
<path stroke-width="8.368421052631579" stroke="black" d="M 420 151 330 152"/>
<path stroke-width="0.5" stroke="black" d="M 330 152 292 123"/>
<path stroke-width="0.5" stroke="black" d="M 330 152 194 225"/>
<path stroke-width="0.5" stroke="black" d="M 330 152 129 159"/>
<path stroke-width="0.5" stroke="black" d="M 330 152 323 102"/>
<path stroke-width="0.5" stroke="black" d="M 330 152 188 78"/>
<path stroke-width="8.368421052631579" stroke="black" d="M 330 152 420 151"/>
<path stroke-width="0.5" stroke="black" d="M 330 152 130 129"/>
<path stroke-width="0.5" stroke="black" d="M 267 156 150 182"/>
<path stroke-width="20.0" stroke="black" d="M 267 156 210 162"/>
<circle cx="390" cy="53" r="20.0" style="fill:green;stroke:black;stroke-width:1.0"/>
<circle cx="292" cy="123" r="20.0" style="fill:green;stroke:black;stroke-width:1.0"/>
<circle cx="177" cy="320" r="20.0" style="fill:yellow;stroke:black;stroke-width:1.0"/>
<circle cx="194" cy="225" r="20.0" style="fill:yellow;stroke:black;stroke-width:1.0"/>
<circle cx="20" cy="177" r="20.0" style="fill:green;stroke:black;stroke-width:1.0"/>
<circle cx="129" cy="159" r="20.0" style="fill:green;stroke:black;stroke-width:1.0"/>
<circle cx="408" cy="61" r="20.0" style="fill:green;stroke:black;stroke-width:1.0"/>
<circle cx="323" cy="102" r="20.0" style="fill:green;stroke:black;stroke-width:1.0"/>
<circle cx="167" cy="20" r="20.0" style="fill:green;stroke:black;stroke-width:1.0"/>
<circle cx="188" cy="78" r="20.0" style="fill:green;stroke:black;stroke-width:1.0"/>
<circle cx="420" cy="151" r="20.0" style="fill:green;stroke:black;stroke-width:1.0"/>
<circle cx="330" cy="152" r="20.0" style="fill:green;stroke:black;stroke-width:1.0"/>
<circle cx="57" cy="114" r="20.0" style="fill:orange;stroke:black;stroke-width:1.0"/>
<circle cx="130" cy="129" r="20.0" style="fill:orange;stroke:black;stroke-width:1.0"/>
<circle cx="316" cy="254" r="20.0" style="fill:green;stroke:black;stroke-width:1.0"/>
<circle cx="280" cy="213" r="20.0" style="fill:green;stroke:black;stroke-width:1.0"/>
<circle cx="95" cy="70" r="20.0" style="fill:green;stroke:black;stroke-width:1.0"/>
<circle cx="152" cy="101" r="20.0" style="fill:green;stroke:black;stroke-width:1.0"/>
<circle cx="298" cy="59" r="20.0" style="fill:green;stroke:black;stroke-width:1.0"/>
<circle cx="268" cy="95" r="20.0" style="fill:green;stroke:black;stroke-width:1.0"/>
<circle cx="359" cy="199" r="20.0" style="fill:fuchsia;stroke:black;stroke-width:1.0"/>
<circle cx="301" cy="182" r="20.0" style="fill:fuchsia;stroke:black;stroke-width:1.0"/>
<circle cx="208" cy="242" r="20.0" style="fill:green;stroke:black;stroke-width:1.0"/>
<circle cx="219" cy="205" r="20.0" style="fill:green;stroke:black;stroke-width:1.0"/>
<circle cx="222" cy="68" r="20.0" style="fill:red;stroke:black;stroke-width:1.0"/>
<circle cx="221" cy="102" r="20.0" style="fill:red;stroke:black;stroke-width:1.0"/>
<circle cx="103" cy="201" r="20.0" style="fill:purple;stroke:black;stroke-width:1.0"/>
<circle cx="150" cy="182" r="20.0" style="fill:purple;stroke:black;stroke-width:1.0"/>
<circle cx="210" cy="162" r="20.0" style="fill:blue;stroke:black;stroke-width:1.0"/>
<circle cx="267" cy="156" r="20.0" style="fill:blue;stroke:black;stroke-width:1.0"/>
</svg>
