<svg width="440" height="340" xmlns="http://www.w3.org/2000/svg">
<path stroke-width="1" stroke="black" d="M 20 114 166 150"/>
<path stroke-width="1" stroke="black" d="M 238 89 236 238"/>
<path stroke-width="1" stroke="black" d="M 238 89 342 133"/>
<path stroke-width="1" stroke="black" d="M 238 89 236 38"/>
<path stroke-width="1" stroke="black" d="M 238 89 278 186"/>
<path stroke-width="1" stroke="black" d="M 238 89 327 210"/>
<path stroke-width="1" stroke="black" d="M 238 89 350 176"/>
<path stroke-width="1" stroke="black" d="M 238 89 161 112"/>
<path stroke-width="1" stroke="black" d="M 238 89 288 115"/>
<path stroke-width="1" stroke="black" d="M 256 186 278 186"/>
<path stroke-width="1" stroke="black" d="M 278 186 166 150"/>
<path stroke-width="1" stroke="black" d="M 278 186 176 224"/>
<path stroke-width="1" stroke="black" d="M 278 186 287 238"/>
<path stroke-width="1" stroke="black" d="M 238 89 146 194"/>
<path stroke-width="1" stroke="black" d="M 278 186 212 114"/>
<path stroke-width="1" stroke="black" d="M 278 186 159 157"/>
<path stroke-width="1" stroke="black" d="M 278 186 146 194"/>
<path stroke-width="1" stroke="black" d="M 278 186 236 238"/>
<path stroke-width="1" stroke="black" d="M 278 186 342 133"/>
<path stroke-width="1" stroke="black" d="M 278 186 238 89"/>
<path stroke-width="1" stroke="black" d="M 278 186 256 186"/>
<path stroke-width="1" stroke="black" d="M 278 186 327 210"/>
<path stroke-width="1" stroke="black" d="M 278 186 350 176"/>
<path stroke-width="1" stroke="black" d="M 278 186 161 112"/>
<path stroke-width="1" stroke="black" d="M 278 186 288 115"/>
<path stroke-width="1" stroke="black" d="M 367 239 327 210"/>
<path stroke-width="1" stroke="black" d="M 327 210 166 150"/>
<path stroke-width="1" stroke="black" d="M 278 186 281 84"/>
<path stroke-width="1" stroke="black" d="M 327 210 176 224"/>
<path stroke-width="1" stroke="black" d="M 238 89 159 157"/>
<path stroke-width="1" stroke="black" d="M 238 89 212 114"/>
<path stroke-width="1" stroke="black" d="M 236 238 238 89"/>
<path stroke-width="1" stroke="black" d="M 236 238 278 186"/>
<path stroke-width="1" stroke="black" d="M 236 238 327 210"/>
<path stroke-width="1" stroke="black" d="M 236 238 350 176"/>
<path stroke-width="1" stroke="black" d="M 236 238 161 112"/>
<path stroke-width="1" stroke="black" d="M 236 238 288 115"/>
<path stroke-width="1" stroke="black" d="M 420 110 342 133"/>
<path stroke-width="1" stroke="black" d="M 342 133 166 150"/>
<path stroke-width="1" stroke="black" d="M 342 133 176 224"/>
<path stroke-width="1" stroke="black" d="M 342 133 287 238"/>
<path stroke-width="1" stroke="black" d="M 342 133 212 114"/>
<path stroke-width="1" stroke="black" d="M 342 133 281 84"/>
<path stroke-width="1" stroke="black" d="M 238 89 281 84"/>
<path stroke-width="1" stroke="black" d="M 342 133 159 157"/>
<path stroke-width="1" stroke="black" d="M 342 133 236 238"/>
<path stroke-width="1" stroke="black" d="M 342 133 420 110"/>
<path stroke-width="1" stroke="black" d="M 342 133 238 89"/>
<path stroke-width="1" stroke="black" d="M 342 133 278 186"/>
<path stroke-width="1" stroke="black" d="M 342 133 327 210"/>
<path stroke-width="1" stroke="black" d="M 342 133 350 176"/>
<path stroke-width="1" stroke="black" d="M 342 133 161 112"/>
<path stroke-width="1" stroke="black" d="M 342 133 288 115"/>
<path stroke-width="1" stroke="black" d="M 236 38 238 89"/>
<path stroke-width="1" stroke="black" d="M 238 89 166 150"/>
<path stroke-width="1" stroke="black" d="M 238 89 176 224"/>
<path stroke-width="1" stroke="black" d="M 238 89 287 238"/>
<path stroke-width="1" stroke="black" d="M 342 133 146 194"/>
<path stroke-width="1" stroke="black" d="M 236 238 342 133"/>
<path stroke-width="1" stroke="black" d="M 327 210 287 238"/>
<path stroke-width="1" stroke="black" d="M 327 210 281 84"/>
<path stroke-width="1" stroke="black" d="M 161 112 212 114"/>
<path stroke-width="1" stroke="black" d="M 161 112 281 84"/>
<path stroke-width="1" stroke="black" d="M 161 112 159 157"/>
<path stroke-width="1" stroke="black" d="M 161 112 146 194"/>
<path stroke-width="1" stroke="black" d="M 161 112 236 238"/>
<path stroke-width="1" stroke="black" d="M 161 112 342 133"/>
<path stroke-width="1" stroke="black" d="M 161 112 238 89"/>
<path stroke-width="1" stroke="black" d="M 161 112 278 186"/>
<path stroke-width="1" stroke="black" d="M 161 112 327 210"/>
<path stroke-width="1" stroke="black" d="M 161 112 350 176"/>
<path stroke-width="1" stroke="black" d="M 161 112 125 87"/>
<path stroke-width="1" stroke="black" d="M 161 112 288 115"/>
<path stroke-width="1" stroke="black" d="M 161 112 287 238"/>
<path stroke-width="1" stroke="black" d="M 365 87 288 115"/>
<path stroke-width="1" stroke="black" d="M 288 115 176 224"/>
<path stroke-width="1" stroke="black" d="M 288 115 287 238"/>
<path stroke-width="1" stroke="black" d="M 288 115 212 114"/>
<path stroke-width="1" stroke="black" d="M 288 115 281 84"/>
<path stroke-width="1" stroke="black" d="M 288 115 159 157"/>
<path stroke-width="1" stroke="black" d="M 288 115 146 194"/>
<path stroke-width="1" stroke="black" d="M 288 115 236 238"/>
<path stroke-width="1" stroke="black" d="M 288 115 342 133"/>
<path stroke-width="1" stroke="black" d="M 288 115 238 89"/>
<path stroke-width="1" stroke="black" d="M 288 115 278 186"/>
<path stroke-width="1" stroke="black" d="M 288 115 327 210"/>
<path stroke-width="1" stroke="black" d="M 288 115 350 176"/>
<path stroke-width="1" stroke="black" d="M 288 115 166 150"/>
<path stroke-width="1" stroke="black" d="M 327 210 212 114"/>
<path stroke-width="1" stroke="black" d="M 161 112 176 224"/>
<path stroke-width="1" stroke="black" d="M 125 87 161 112"/>
<path stroke-width="1" stroke="black" d="M 327 210 159 157"/>
<path stroke-width="1" stroke="black" d="M 327 210 146 194"/>
<path stroke-width="1" stroke="black" d="M 327 210 236 238"/>
<path stroke-width="1" stroke="black" d="M 327 210 342 133"/>
<path stroke-width="1" stroke="black" d="M 327 210 238 89"/>
<path stroke-width="1" stroke="black" d="M 327 210 278 186"/>
<path stroke-width="1" stroke="black" d="M 327 210 367 239"/>
<path stroke-width="1" stroke="black" d="M 327 210 350 176"/>
<path stroke-width="1" stroke="black" d="M 327 210 161 112"/>
<path stroke-width="1" stroke="black" d="M 327 210 288 115"/>
<path stroke-width="1" stroke="black" d="M 415 184 350 176"/>
<path stroke-width="1" stroke="black" d="M 350 176 166 150"/>
<path stroke-width="1" stroke="black" d="M 161 112 166 150"/>
<path stroke-width="1" stroke="black" d="M 350 176 176 224"/>
<path stroke-width="1" stroke="black" d="M 350 176 212 114"/>
<path stroke-width="1" stroke="black" d="M 350 176 281 84"/>
<path stroke-width="1" stroke="black" d="M 350 176 159 157"/>
<path stroke-width="1" stroke="black" d="M 350 176 146 194"/>
<path stroke-width="1" stroke="black" d="M 350 176 236 238"/>
<path stroke-width="1" stroke="black" d="M 350 176 342 133"/>
<path stroke-width="1" stroke="black" d="M 350 176 238 89"/>
<path stroke-width="1" stroke="black" d="M 350 176 278 186"/>
<path stroke-width="1" stroke="black" d="M 350 176 327 210"/>
<path stroke-width="1" stroke="black" d="M 350 176 415 184"/>
<path stroke-width="1" stroke="black" d="M 350 176 161 112"/>
<path stroke-width="1" stroke="black" d="M 350 176 288 115"/>
<path stroke-width="1" stroke="black" d="M 350 176 287 238"/>
<path stroke-width="1" stroke="black" d="M 236 238 247 290"/>
<path stroke-width="1" stroke="black" d="M 236 238 146 194"/>
<path stroke-width="1" stroke="black" d="M 236 238 159 157"/>
<path stroke-width="1" stroke="black" d="M 176 224 288 115"/>
<path stroke-width="1" stroke="black" d="M 320 320 287 238"/>
<path stroke-width="1" stroke="black" d="M 287 238 166 150"/>
<path stroke-width="1" stroke="black" d="M 287 238 176 224"/>
<path stroke-width="1" stroke="black" d="M 287 238 320 320"/>
<path stroke-width="1" stroke="black" d="M 287 238 212 114"/>
<path stroke-width="1" stroke="black" d="M 287 238 281 84"/>
<path stroke-width="1" stroke="black" d="M 287 238 159 157"/>
<path stroke-width="1" stroke="black" d="M 287 238 146 194"/>
<path stroke-width="1" stroke="black" d="M 287 238 236 238"/>
<path stroke-width="1" stroke="black" d="M 287 238 342 133"/>
<path stroke-width="1" stroke="black" d="M 287 238 238 89"/>
<path stroke-width="1" stroke="black" d="M 176 224 161 112"/>
<path stroke-width="1" stroke="black" d="M 287 238 278 186"/>
<path stroke-width="1" stroke="black" d="M 287 238 350 176"/>
<path stroke-width="1" stroke="black" d="M 287 238 161 112"/>
<path stroke-width="1" stroke="black" d="M 287 238 288 115"/>
<path stroke-width="1" stroke="black" d="M 166 52 212 114"/>
<path stroke-width="1" stroke="black" d="M 212 114 166 150"/>
<path stroke-width="1" stroke="black" d="M 212 114 176 224"/>
<path stroke-width="1" stroke="black" d="M 212 114 287 238"/>
<path stroke-width="1" stroke="black" d="M 212 114 166 52"/>
<path stroke-width="1" stroke="black" d="M 212 114 281 84"/>
<path stroke-width="1" stroke="black" d="M 212 114 159 157"/>
<path stroke-width="1" stroke="black" d="M 212 114 146 194"/>
<path stroke-width="1" stroke="black" d="M 212 114 236 238"/>
<path stroke-width="1" stroke="black" d="M 287 238 327 210"/>
<path stroke-width="1" stroke="black" d="M 212 114 342 133"/>
<path stroke-width="1" stroke="black" d="M 176 224 350 176"/>
<path stroke-width="1" stroke="black" d="M 176 224 278 186"/>
<path stroke-width="1" stroke="black" d="M 166 150 20 114"/>
<path stroke-width="1" stroke="black" d="M 166 150 176 224"/>
<path stroke-width="1" stroke="black" d="M 166 150 287 238"/>
<path stroke-width="1" stroke="black" d="M 166 150 212 114"/>
<path stroke-width="1" stroke="black" d="M 166 150 281 84"/>
<path stroke-width="1" stroke="black" d="M 166 150 159 157"/>
<path stroke-width="1" stroke="black" d="M 166 150 146 194"/>
<path stroke-width="1" stroke="black" d="M 166 150 236 238"/>
<path stroke-width="1" stroke="black" d="M 166 150 342 133"/>
<path stroke-width="1" stroke="black" d="M 166 150 238 89"/>
<path stroke-width="1" stroke="black" d="M 166 150 278 186"/>
<path stroke-width="1" stroke="black" d="M 166 150 327 210"/>
<path stroke-width="1" stroke="black" d="M 176 224 327 210"/>
<path stroke-width="1" stroke="black" d="M 166 150 350 176"/>
<path stroke-width="1" stroke="black" d="M 166 150 288 115"/>
<path stroke-width="1" stroke="black" d="M 76 294 176 224"/>
<path stroke-width="1" stroke="black" d="M 176 224 166 150"/>
<path stroke-width="1" stroke="black" d="M 176 224 76 294"/>
<path stroke-width="1" stroke="black" d="M 176 224 287 238"/>
<path stroke-width="1" stroke="black" d="M 176 224 212 114"/>
<path stroke-width="1" stroke="black" d="M 176 224 281 84"/>
<path stroke-width="1" stroke="black" d="M 176 224 159 157"/>
<path stroke-width="1" stroke="black" d="M 176 224 146 194"/>
<path stroke-width="1" stroke="black" d="M 176 224 236 238"/>
<path stroke-width="1" stroke="black" d="M 176 224 342 133"/>
<path stroke-width="1" stroke="black" d="M 176 224 238 89"/>
<path stroke-width="1" stroke="black" d="M 166 150 161 112"/>
<path stroke-width="1" stroke="black" d="M 212 114 238 89"/>
<path stroke-width="1" stroke="black" d="M 212 114 278 186"/>
<path stroke-width="1" stroke="black" d="M 212 114 327 210"/>
<path stroke-width="1" stroke="black" d="M 159 157 327 210"/>
<path stroke-width="1" stroke="black" d="M 159 157 350 176"/>
<path stroke-width="1" stroke="black" d="M 159 157 161 112"/>
<path stroke-width="1" stroke="black" d="M 159 157 288 115"/>
<path stroke-width="1" stroke="black" d="M 85 213 146 194"/>
<path stroke-width="1" stroke="black" d="M 146 194 166 150"/>
<path stroke-width="1" stroke="black" d="M 146 194 176 224"/>
<path stroke-width="1" stroke="black" d="M 146 194 287 238"/>
<path stroke-width="1" stroke="black" d="M 146 194 212 114"/>
<path stroke-width="1" stroke="black" d="M 146 194 281 84"/>
<path stroke-width="1" stroke="black" d="M 146 194 159 157"/>
<path stroke-width="1" stroke="black" d="M 146 194 85 213"/>
<path stroke-width="1" stroke="black" d="M 159 157 278 186"/>
<path stroke-width="1" stroke="black" d="M 146 194 236 238"/>
<path stroke-width="1" stroke="black" d="M 146 194 238 89"/>
<path stroke-width="1" stroke="black" d="M 146 194 278 186"/>
<path stroke-width="1" stroke="black" d="M 146 194 327 210"/>
<path stroke-width="1" stroke="black" d="M 146 194 350 176"/>
<path stroke-width="1" stroke="black" d="M 146 194 161 112"/>
<path stroke-width="1" stroke="black" d="M 146 194 288 115"/>
<path stroke-width="1" stroke="black" d="M 247 290 236 238"/>
<path stroke-width="1" stroke="black" d="M 236 238 166 150"/>
<path stroke-width="1" stroke="black" d="M 236 238 176 224"/>
<path stroke-width="1" stroke="black" d="M 236 238 287 238"/>
<path stroke-width="1" stroke="black" d="M 236 238 212 114"/>
<path stroke-width="1" stroke="black" d="M 236 238 281 84"/>
<path stroke-width="1" stroke="black" d="M 146 194 342 133"/>
<path stroke-width="1" stroke="black" d="M 159 157 238 89"/>
<path stroke-width="1" stroke="black" d="M 159 157 342 133"/>
<path stroke-width="1" stroke="black" d="M 159 157 236 238"/>
<path stroke-width="1" stroke="black" d="M 212 114 350 176"/>
<path stroke-width="1" stroke="black" d="M 212 114 161 112"/>
<path stroke-width="1" stroke="black" d="M 212 114 288 115"/>
<path stroke-width="1" stroke="black" d="M 319 20 281 84"/>
<path stroke-width="1" stroke="black" d="M 281 84 166 150"/>
<path stroke-width="1" stroke="black" d="M 281 84 176 224"/>
<path stroke-width="1" stroke="black" d="M 281 84 287 238"/>
<path stroke-width="1" stroke="black" d="M 281 84 212 114"/>
<path stroke-width="1" stroke="black" d="M 281 84 319 20"/>
<path stroke-width="1" stroke="black" d="M 281 84 159 157"/>
<path stroke-width="1" stroke="black" d="M 281 84 146 194"/>
<path stroke-width="1" stroke="black" d="M 281 84 236 238"/>
<path stroke-width="1" stroke="black" d="M 281 84 342 133"/>
<path stroke-width="1" stroke="black" d="M 281 84 238 89"/>
<path stroke-width="1" stroke="black" d="M 281 84 278 186"/>
<path stroke-width="1" stroke="black" d="M 281 84 327 210"/>
<path stroke-width="1" stroke="black" d="M 281 84 350 176"/>
<path stroke-width="1" stroke="black" d="M 281 84 161 112"/>
<path stroke-width="1" stroke="black" d="M 281 84 288 115"/>
<path stroke-width="1" stroke="black" d="M 85 147 159 157"/>
<path stroke-width="1" stroke="black" d="M 159 157 166 150"/>
<path stroke-width="1" stroke="black" d="M 159 157 176 224"/>
<path stroke-width="1" stroke="black" d="M 159 157 287 238"/>
<path stroke-width="1" stroke="black" d="M 159 157 212 114"/>
<path stroke-width="1" stroke="black" d="M 159 157 281 84"/>
<path stroke-width="1" stroke="black" d="M 159 157 85 147"/>
<path stroke-width="1" stroke="black" d="M 159 157 146 194"/>
<path stroke-width="1" stroke="black" d="M 288 115 161 112"/>
<path stroke-width="1" stroke="black" d="M 288 115 365 87"/>
<circle cx="20" cy="114" r="7.0" style="fill:green;stroke:black;stroke-width:1.0"/>
<circle cx="166" cy="150" r="7.0" style="fill:green;stroke:black;stroke-width:1.0"/>
<circle cx="76" cy="294" r="7.0" style="fill:fuchsia;stroke:black;stroke-width:1.0"/>
<circle cx="176" cy="224" r="7.0" style="fill:fuchsia;stroke:black;stroke-width:1.0"/>
<circle cx="320" cy="320" r="7.0" style="fill:purple;stroke:black;stroke-width:1.0"/>
<circle cx="287" cy="238" r="7.0" style="fill:purple;stroke:black;stroke-width:1.0"/>
<circle cx="166" cy="52" r="7.0" style="fill:green;stroke:black;stroke-width:1.0"/>
<circle cx="212" cy="114" r="7.0" style="fill:green;stroke:black;stroke-width:1.0"/>
<circle cx="319" cy="20" r="7.0" style="fill:green;stroke:black;stroke-width:1.0"/>
<circle cx="281" cy="84" r="7.0" style="fill:green;stroke:black;stroke-width:1.0"/>
<circle cx="85" cy="147" r="7.0" style="fill:blue;stroke:black;stroke-width:1.0"/>
<circle cx="159" cy="157" r="7.0" style="fill:blue;stroke:black;stroke-width:1.0"/>
<circle cx="85" cy="213" r="7.0" style="fill:green;stroke:black;stroke-width:1.0"/>
<circle cx="146" cy="194" r="7.0" style="fill:green;stroke:black;stroke-width:1.0"/>
<circle cx="247" cy="290" r="7.0" style="fill:green;stroke:black;stroke-width:1.0"/>
<circle cx="236" cy="238" r="7.0" style="fill:green;stroke:black;stroke-width:1.0"/>
<circle cx="420" cy="110" r="7.0" style="fill:green;stroke:black;stroke-width:1.0"/>
<circle cx="342" cy="133" r="7.0" style="fill:green;stroke:black;stroke-width:1.0"/>
<circle cx="236" cy="38" r="7.0" style="fill:yellow;stroke:black;stroke-width:1.0"/>
<circle cx="238" cy="89" r="7.0" style="fill:yellow;stroke:black;stroke-width:1.0"/>
<circle cx="256" cy="186" r="7.0" style="fill:green;stroke:black;stroke-width:1.0"/>
<circle cx="278" cy="186" r="7.0" style="fill:green;stroke:black;stroke-width:1.0"/>
<circle cx="367" cy="239" r="7.0" style="fill:green;stroke:black;stroke-width:1.0"/>
<circle cx="327" cy="210" r="7.0" style="fill:green;stroke:black;stroke-width:1.0"/>
<circle cx="415" cy="184" r="7.0" style="fill:orange;stroke:black;stroke-width:1.0"/>
<circle cx="350" cy="176" r="7.0" style="fill:orange;stroke:black;stroke-width:1.0"/>
<circle cx="125" cy="87" r="7.0" style="fill:red;stroke:black;stroke-width:1.0"/>
<circle cx="161" cy="112" r="7.0" style="fill:red;stroke:black;stroke-width:1.0"/>
<circle cx="365" cy="87" r="7.0" style="fill:green;stroke:black;stroke-width:1.0"/>
<circle cx="288" cy="115" r="7.0" style="fill:green;stroke:black;stroke-width:1.0"/>
</svg>
