<svg width="440" height="340" xmlns="http://www.w3.org/2000/svg">
<path stroke-width="2.2105263157894735" stroke="black" d="M 420 53 294 117"/>
<path stroke-width="0.5" stroke="black" d="M 188 63 237 218"/>
<path stroke-width="0.5" stroke="black" d="M 188 63 268 106"/>
<path stroke-width="13.842105263157896" stroke="black" d="M 188 63 186 20"/>
<path stroke-width="0.5" stroke="black" d="M 188 63 136 213"/>
<path stroke-width="0.5" stroke="black" d="M 188 63 119 144"/>
<path stroke-width="0.5" stroke="black" d="M 188 63 195 182"/>
<path stroke-width="0.5" stroke="black" d="M 188 63 265 184"/>
<path stroke-width="0.5" stroke="black" d="M 188 63 202 209"/>
<path stroke-width="15.210526315789474" stroke="black" d="M 116 255 136 213"/>
<path stroke-width="0.5" stroke="black" d="M 136 213 294 117"/>
<path stroke-width="0.5" stroke="black" d="M 136 213 129 220"/>
<path stroke-width="0.5" stroke="black" d="M 136 213 194 93"/>
<path stroke-width="0.5" stroke="black" d="M 188 63 238 116"/>
<path stroke-width="0.5" stroke="black" d="M 136 213 96 122"/>
<path stroke-width="0.5" stroke="black" d="M 136 213 185 126"/>
<path stroke-width="0.5" stroke="black" d="M 136 213 238 116"/>
<path stroke-width="0.5" stroke="black" d="M 136 213 237 218"/>
<path stroke-width="0.5" stroke="black" d="M 136 213 268 106"/>
<path stroke-width="0.5" stroke="black" d="M 136 213 188 63"/>
<path stroke-width="15.210526315789474" stroke="black" d="M 136 213 116 255"/>
<path stroke-width="0.5" stroke="black" d="M 136 213 119 144"/>
<path stroke-width="0.5" stroke="black" d="M 136 213 195 182"/>
<path stroke-width="0.5" stroke="black" d="M 136 213 265 184"/>
<path stroke-width="0.5" stroke="black" d="M 136 213 202 209"/>
<path stroke-width="16.57894736842105" stroke="black" d="M 82 138 119 144"/>
<path stroke-width="0.5" stroke="black" d="M 119 144 294 117"/>
<path stroke-width="0.5" stroke="black" d="M 136 213 122 78"/>
<path stroke-width="0.5" stroke="black" d="M 119 144 129 220"/>
<path stroke-width="0.5" stroke="black" d="M 188 63 185 126"/>
<path stroke-width="0.5" stroke="black" d="M 188 63 96 122"/>
<path stroke-width="0.5" stroke="black" d="M 237 218 188 63"/>
<path stroke-width="0.5" stroke="black" d="M 237 218 136 213"/>
<path stroke-width="0.5" stroke="black" d="M 237 218 119 144"/>
<path stroke-width="0.5" stroke="black" d="M 237 218 195 182"/>
<path stroke-width="0.5" stroke="black" d="M 237 218 265 184"/>
<path stroke-width="0.5" stroke="black" d="M 237 218 202 209"/>
<path stroke-width="12.473684210526315" stroke="black" d="M 315 74 268 106"/>
<path stroke-width="0.5" stroke="black" d="M 268 106 294 117"/>
<path stroke-width="0.5" stroke="black" d="M 268 106 129 220"/>
<path stroke-width="0.5" stroke="black" d="M 268 106 194 93"/>
<path stroke-width="0.5" stroke="black" d="M 268 106 96 122"/>
<path stroke-width="0.5" stroke="black" d="M 268 106 122 78"/>
<path stroke-width="0.5" stroke="black" d="M 188 63 122 78"/>
<path stroke-width="0.5" stroke="black" d="M 268 106 185 126"/>
<path stroke-width="0.5" stroke="black" d="M 268 106 237 218"/>
<path stroke-width="12.473684210526315" stroke="black" d="M 268 106 315 74"/>
<path stroke-width="0.5" stroke="black" d="M 268 106 188 63"/>
<path stroke-width="0.5" stroke="black" d="M 268 106 136 213"/>
<path stroke-width="0.5" stroke="black" d="M 268 106 119 144"/>
<path stroke-width="0.5" stroke="black" d="M 268 106 195 182"/>
<path stroke-width="0.5" stroke="black" d="M 268 106 265 184"/>
<path stroke-width="0.5" stroke="black" d="M 268 106 202 209"/>
<path stroke-width="13.842105263157896" stroke="black" d="M 186 20 188 63"/>
<path stroke-width="0.5" stroke="black" d="M 188 63 294 117"/>
<path stroke-width="0.5" stroke="black" d="M 188 63 129 220"/>
<path stroke-width="0.5" stroke="black" d="M 188 63 194 93"/>
<path stroke-width="0.5" stroke="black" d="M 268 106 238 116"/>
<path stroke-width="0.5" stroke="black" d="M 237 218 268 106"/>
<path stroke-width="0.5" stroke="black" d="M 119 144 194 93"/>
<path stroke-width="0.5" stroke="black" d="M 119 144 122 78"/>
<path stroke-width="0.5" stroke="black" d="M 265 184 96 122"/>
<path stroke-width="0.5" stroke="black" d="M 265 184 122 78"/>
<path stroke-width="0.5" stroke="black" d="M 265 184 185 126"/>
<path stroke-width="0.5" stroke="black" d="M 265 184 238 116"/>
<path stroke-width="0.5" stroke="black" d="M 265 184 237 218"/>
<path stroke-width="0.5" stroke="black" d="M 265 184 268 106"/>
<path stroke-width="0.5" stroke="black" d="M 265 184 188 63"/>
<path stroke-width="0.5" stroke="black" d="M 265 184 136 213"/>
<path stroke-width="0.5" stroke="black" d="M 265 184 119 144"/>
<path stroke-width="0.5" stroke="black" d="M 265 184 195 182"/>
<path stroke-width="18.63157894736842" stroke="black" d="M 265 184 309 207"/>
<path stroke-width="0.5" stroke="black" d="M 265 184 202 209"/>
<path stroke-width="0.5" stroke="black" d="M 265 184 194 93"/>
<path stroke-width="20.0" stroke="black" d="M 194 248 202 209"/>
<path stroke-width="0.5" stroke="black" d="M 202 209 129 220"/>
<path stroke-width="0.5" stroke="black" d="M 202 209 194 93"/>
<path stroke-width="0.5" stroke="black" d="M 202 209 96 122"/>
<path stroke-width="0.5" stroke="black" d="M 202 209 122 78"/>
<path stroke-width="0.5" stroke="black" d="M 202 209 185 126"/>
<path stroke-width="0.5" stroke="black" d="M 202 209 238 116"/>
<path stroke-width="0.5" stroke="black" d="M 202 209 237 218"/>
<path stroke-width="0.5" stroke="black" d="M 202 209 268 106"/>
<path stroke-width="0.5" stroke="black" d="M 202 209 188 63"/>
<path stroke-width="0.5" stroke="black" d="M 202 209 136 213"/>
<path stroke-width="0.5" stroke="black" d="M 202 209 119 144"/>
<path stroke-width="0.5" stroke="black" d="M 202 209 195 182"/>
<path stroke-width="0.5" stroke="black" d="M 202 209 294 117"/>
<path stroke-width="0.5" stroke="black" d="M 119 144 96 122"/>
<path stroke-width="0.5" stroke="black" d="M 265 184 129 220"/>
<path stroke-width="18.63157894736842" stroke="black" d="M 309 207 265 184"/>
<path stroke-width="0.5" stroke="black" d="M 119 144 185 126"/>
<path stroke-width="0.5" stroke="black" d="M 119 144 238 116"/>
<path stroke-width="0.5" stroke="black" d="M 119 144 237 218"/>
<path stroke-width="0.5" stroke="black" d="M 119 144 268 106"/>
<path stroke-width="0.5" stroke="black" d="M 119 144 188 63"/>
<path stroke-width="0.5" stroke="black" d="M 119 144 136 213"/>
<path stroke-width="16.57894736842105" stroke="black" d="M 119 144 82 138"/>
<path stroke-width="0.5" stroke="black" d="M 119 144 195 182"/>
<path stroke-width="0.5" stroke="black" d="M 119 144 265 184"/>
<path stroke-width="0.5" stroke="black" d="M 119 144 202 209"/>
<path stroke-width="17.94736842105263" stroke="black" d="M 149 181 195 182"/>
<path stroke-width="0.5" stroke="black" d="M 195 182 294 117"/>
<path stroke-width="0.5" stroke="black" d="M 265 184 294 117"/>
<path stroke-width="0.5" stroke="black" d="M 195 182 129 220"/>
<path stroke-width="0.5" stroke="black" d="M 195 182 96 122"/>
<path stroke-width="0.5" stroke="black" d="M 195 182 122 78"/>
<path stroke-width="0.5" stroke="black" d="M 195 182 185 126"/>
<path stroke-width="0.5" stroke="black" d="M 195 182 238 116"/>
<path stroke-width="0.5" stroke="black" d="M 195 182 237 218"/>
<path stroke-width="0.5" stroke="black" d="M 195 182 268 106"/>
<path stroke-width="0.5" stroke="black" d="M 195 182 188 63"/>
<path stroke-width="0.5" stroke="black" d="M 195 182 136 213"/>
<path stroke-width="0.5" stroke="black" d="M 195 182 119 144"/>
<path stroke-width="17.94736842105263" stroke="black" d="M 195 182 149 181"/>
<path stroke-width="0.5" stroke="black" d="M 195 182 265 184"/>
<path stroke-width="0.5" stroke="black" d="M 195 182 202 209"/>
<path stroke-width="0.5" stroke="black" d="M 195 182 194 93"/>
<path stroke-width="11.105263157894736" stroke="black" d="M 237 218 267 268"/>
<path stroke-width="0.5" stroke="black" d="M 237 218 238 116"/>
<path stroke-width="0.5" stroke="black" d="M 237 218 185 126"/>
<path stroke-width="0.5" stroke="black" d="M 129 220 202 209"/>
<path stroke-width="4.2631578947368425" stroke="black" d="M 177 20 194 93"/>
<path stroke-width="0.5" stroke="black" d="M 194 93 294 117"/>
<path stroke-width="0.5" stroke="black" d="M 194 93 129 220"/>
<path stroke-width="4.2631578947368425" stroke="black" d="M 194 93 177 20"/>
<path stroke-width="0.5" stroke="black" d="M 194 93 96 122"/>
<path stroke-width="0.5" stroke="black" d="M 194 93 122 78"/>
<path stroke-width="0.5" stroke="black" d="M 194 93 185 126"/>
<path stroke-width="0.5" stroke="black" d="M 194 93 238 116"/>
<path stroke-width="0.5" stroke="black" d="M 194 93 237 218"/>
<path stroke-width="0.5" stroke="black" d="M 194 93 268 106"/>
<path stroke-width="0.5" stroke="black" d="M 194 93 188 63"/>
<path stroke-width="0.5" stroke="black" d="M 129 220 265 184"/>
<path stroke-width="0.5" stroke="black" d="M 194 93 136 213"/>
<path stroke-width="0.5" stroke="black" d="M 194 93 195 182"/>
<path stroke-width="0.5" stroke="black" d="M 194 93 265 184"/>
<path stroke-width="0.5" stroke="black" d="M 194 93 202 209"/>
<path stroke-width="5.631578947368421" stroke="black" d="M 20 93 96 122"/>
<path stroke-width="0.5" stroke="black" d="M 96 122 294 117"/>
<path stroke-width="0.5" stroke="black" d="M 96 122 129 220"/>
<path stroke-width="0.5" stroke="black" d="M 96 122 194 93"/>
<path stroke-width="5.631578947368421" stroke="black" d="M 96 122 20 93"/>
<path stroke-width="0.5" stroke="black" d="M 96 122 122 78"/>
<path stroke-width="0.5" stroke="black" d="M 96 122 185 126"/>
<path stroke-width="0.5" stroke="black" d="M 96 122 238 116"/>
<path stroke-width="0.5" stroke="black" d="M 96 122 237 218"/>
<path stroke-width="0.5" stroke="black" d="M 194 93 119 144"/>
<path stroke-width="0.5" stroke="black" d="M 96 122 268 106"/>
<path stroke-width="0.5" stroke="black" d="M 129 220 195 182"/>
<path stroke-width="0.5" stroke="black" d="M 129 220 136 213"/>
<path stroke-width="2.2105263157894735" stroke="black" d="M 294 117 420 53"/>
<path stroke-width="0.5" stroke="black" d="M 294 117 129 220"/>
<path stroke-width="0.5" stroke="black" d="M 294 117 194 93"/>
<path stroke-width="0.5" stroke="black" d="M 294 117 96 122"/>
<path stroke-width="0.5" stroke="black" d="M 294 117 122 78"/>
<path stroke-width="0.5" stroke="black" d="M 294 117 185 126"/>
<path stroke-width="0.5" stroke="black" d="M 294 117 238 116"/>
<path stroke-width="0.5" stroke="black" d="M 294 117 237 218"/>
<path stroke-width="0.5" stroke="black" d="M 294 117 268 106"/>
<path stroke-width="0.5" stroke="black" d="M 294 117 188 63"/>
<path stroke-width="0.5" stroke="black" d="M 294 117 136 213"/>
<path stroke-width="0.5" stroke="black" d="M 294 117 119 144"/>
<path stroke-width="0.5" stroke="black" d="M 129 220 119 144"/>
<path stroke-width="0.5" stroke="black" d="M 294 117 195 182"/>
<path stroke-width="0.5" stroke="black" d="M 294 117 202 209"/>
<path stroke-width="2.8947368421052633" stroke="black" d="M 80 320 129 220"/>
<path stroke-width="0.5" stroke="black" d="M 129 220 294 117"/>
<path stroke-width="2.8947368421052633" stroke="black" d="M 129 220 80 320"/>
<path stroke-width="0.5" stroke="black" d="M 129 220 194 93"/>
<path stroke-width="0.5" stroke="black" d="M 129 220 96 122"/>
<path stroke-width="0.5" stroke="black" d="M 129 220 122 78"/>
<path stroke-width="0.5" stroke="black" d="M 129 220 185 126"/>
<path stroke-width="0.5" stroke="black" d="M 129 220 238 116"/>
<path stroke-width="0.5" stroke="black" d="M 129 220 237 218"/>
<path stroke-width="0.5" stroke="black" d="M 129 220 268 106"/>
<path stroke-width="0.5" stroke="black" d="M 129 220 188 63"/>
<path stroke-width="0.5" stroke="black" d="M 294 117 265 184"/>
<path stroke-width="0.5" stroke="black" d="M 96 122 188 63"/>
<path stroke-width="0.5" stroke="black" d="M 96 122 136 213"/>
<path stroke-width="0.5" stroke="black" d="M 96 122 119 144"/>
<path stroke-width="0.5" stroke="black" d="M 185 126 119 144"/>
<path stroke-width="0.5" stroke="black" d="M 185 126 195 182"/>
<path stroke-width="0.5" stroke="black" d="M 185 126 265 184"/>
<path stroke-width="0.5" stroke="black" d="M 185 126 202 209"/>
<path stroke-width="9.736842105263158" stroke="black" d="M 269 75 238 116"/>
<path stroke-width="0.5" stroke="black" d="M 238 116 294 117"/>
<path stroke-width="0.5" stroke="black" d="M 238 116 129 220"/>
<path stroke-width="0.5" stroke="black" d="M 238 116 194 93"/>
<path stroke-width="0.5" stroke="black" d="M 238 116 96 122"/>
<path stroke-width="0.5" stroke="black" d="M 238 116 122 78"/>
<path stroke-width="0.5" stroke="black" d="M 238 116 185 126"/>
<path stroke-width="9.736842105263158" stroke="black" d="M 238 116 269 75"/>
<path stroke-width="0.5" stroke="black" d="M 185 126 136 213"/>
<path stroke-width="0.5" stroke="black" d="M 238 116 237 218"/>
<path stroke-width="0.5" stroke="black" d="M 238 116 188 63"/>
<path stroke-width="0.5" stroke="black" d="M 238 116 136 213"/>
<path stroke-width="0.5" stroke="black" d="M 238 116 119 144"/>
<path stroke-width="0.5" stroke="black" d="M 238 116 195 182"/>
<path stroke-width="0.5" stroke="black" d="M 238 116 265 184"/>
<path stroke-width="0.5" stroke="black" d="M 238 116 202 209"/>
<path stroke-width="11.105263157894736" stroke="black" d="M 267 268 237 218"/>
<path stroke-width="0.5" stroke="black" d="M 237 218 294 117"/>
<path stroke-width="0.5" stroke="black" d="M 237 218 129 220"/>
<path stroke-width="0.5" stroke="black" d="M 237 218 194 93"/>
<path stroke-width="0.5" stroke="black" d="M 237 218 96 122"/>
<path stroke-width="0.5" stroke="black" d="M 237 218 122 78"/>
<path stroke-width="0.5" stroke="black" d="M 238 116 268 106"/>
<path stroke-width="0.5" stroke="black" d="M 185 126 188 63"/>
<path stroke-width="0.5" stroke="black" d="M 185 126 268 106"/>
<path stroke-width="0.5" stroke="black" d="M 185 126 237 218"/>
<path stroke-width="0.5" stroke="black" d="M 96 122 195 182"/>
<path stroke-width="0.5" stroke="black" d="M 96 122 265 184"/>
<path stroke-width="0.5" stroke="black" d="M 96 122 202 209"/>
<path stroke-width="7.0" stroke="black" d="M 85 22 122 78"/>
<path stroke-width="0.5" stroke="black" d="M 122 78 294 117"/>
<path stroke-width="0.5" stroke="black" d="M 122 78 129 220"/>
<path stroke-width="0.5" stroke="black" d="M 122 78 194 93"/>
<path stroke-width="0.5" stroke="black" d="M 122 78 96 122"/>
<path stroke-width="7.0" stroke="black" d="M 122 78 85 22"/>
<path stroke-width="0.5" stroke="black" d="M 122 78 185 126"/>
<path stroke-width="0.5" stroke="black" d="M 122 78 238 116"/>
<path stroke-width="0.5" stroke="black" d="M 122 78 237 218"/>
<path stroke-width="0.5" stroke="black" d="M 122 78 268 106"/>
<path stroke-width="0.5" stroke="black" d="M 122 78 188 63"/>
<path stroke-width="0.5" stroke="black" d="M 122 78 136 213"/>
<path stroke-width="0.5" stroke="black" d="M 122 78 119 144"/>
<path stroke-width="0.5" stroke="black" d="M 122 78 195 182"/>
<path stroke-width="0.5" stroke="black" d="M 122 78 265 184"/>
<path stroke-width="0.5" stroke="black" d="M 122 78 202 209"/>
<path stroke-width="8.368421052631579" stroke="black" d="M 154 89 185 126"/>
<path stroke-width="0.5" stroke="black" d="M 185 126 294 117"/>
<path stroke-width="0.5" stroke="black" d="M 185 126 129 220"/>
<path stroke-width="0.5" stroke="black" d="M 185 126 194 93"/>
<path stroke-width="0.5" stroke="black" d="M 185 126 96 122"/>
<path stroke-width="0.5" stroke="black" d="M 185 126 122 78"/>
<path stroke-width="8.368421052631579" stroke="black" d="M 185 126 154 89"/>
<path stroke-width="0.5" stroke="black" d="M 185 126 238 116"/>
<path stroke-width="0.5" stroke="black" d="M 202 209 265 184"/>
<path stroke-width="20.0" stroke="black" d="M 202 209 194 248"/>
<circle cx="420" cy="53" r="7.0" style="fill:gray;stroke:black;stroke-width:1.0"/>
<circle cx="294" cy="117" r="7.0" style="fill:gray;stroke:black;stroke-width:1.0"/>
<circle cx="80" cy="320" r="7.0" style="fill:gray;stroke:black;stroke-width:1.0"/>
<circle cx="129" cy="220" r="7.0" style="fill:gray;stroke:black;stroke-width:1.0"/>
<circle cx="177" cy="20" r="7.0" style="fill:gray;stroke:black;stroke-width:1.0"/>
<circle cx="194" cy="93" r="7.0" style="fill:gray;stroke:black;stroke-width:1.0"/>
<circle cx="20" cy="93" r="7.0" style="fill:gray;stroke:black;stroke-width:1.0"/>
<circle cx="96" cy="122" r="7.0" style="fill:gray;stroke:black;stroke-width:1.0"/>
<circle cx="85" cy="22" r="7.0" style="fill:gray;stroke:black;stroke-width:1.0"/>
<circle cx="122" cy="78" r="7.0" style="fill:gray;stroke:black;stroke-width:1.0"/>
<circle cx="154" cy="89" r="7.0" style="fill:gray;stroke:black;stroke-width:1.0"/>
<circle cx="185" cy="126" r="7.0" style="fill:gray;stroke:black;stroke-width:1.0"/>
<circle cx="269" cy="75" r="7.0" style="fill:gray;stroke:black;stroke-width:1.0"/>
<circle cx="238" cy="116" r="7.0" style="fill:gray;stroke:black;stroke-width:1.0"/>
<circle cx="267" cy="268" r="7.0" style="fill:gray;stroke:black;stroke-width:1.0"/>
<circle cx="237" cy="218" r="7.0" style="fill:gray;stroke:black;stroke-width:1.0"/>
<circle cx="315" cy="74" r="7.0" style="fill:gray;stroke:black;stroke-width:1.0"/>
<circle cx="268" cy="106" r="7.0" style="fill:gray;stroke:black;stroke-width:1.0"/>
<circle cx="186" cy="20" r="7.0" style="fill:gray;stroke:black;stroke-width:1.0"/>
<circle cx="188" cy="63" r="7.0" style="fill:gray;stroke:black;stroke-width:1.0"/>
<circle cx="116" cy="255" r="7.0" style="fill:gray;stroke:black;stroke-width:1.0"/>
<circle cx="136" cy="213" r="7.0" style="fill:gray;stroke:black;stroke-width:1.0"/>
<circle cx="82" cy="138" r="7.0" style="fill:gray;stroke:black;stroke-width:1.0"/>
<circle cx="119" cy="144" r="7.0" style="fill:gray;stroke:black;stroke-width:1.0"/>
<circle cx="149" cy="181" r="7.0" style="fill:gray;stroke:black;stroke-width:1.0"/>
<circle cx="195" cy="182" r="7.0" style="fill:gray;stroke:black;stroke-width:1.0"/>
<circle cx="309" cy="207" r="7.0" style="fill:gray;stroke:black;stroke-width:1.0"/>
<circle cx="265" cy="184" r="7.0" style="fill:gray;stroke:black;stroke-width:1.0"/>
<circle cx="194" cy="248" r="7.0" style="fill:gray;stroke:black;stroke-width:1.0"/>
<circle cx="202" cy="209" r="7.0" style="fill:gray;stroke:black;stroke-width:1.0"/>
</svg>
