<svg width="440" height="340" xmlns="http://www.w3.org/2000/svg">
<path stroke-width="1" stroke="black" d="M 420 92 394 129"/>
<path stroke-width="1" stroke="black" d="M 365 173 394 129"/>
<path stroke-width="1" stroke="black" d="M 365 173 331 216"/>
<path stroke-width="1" stroke="black" d="M 331 216 365 173"/>
<path stroke-width="1" stroke="black" d="M 331 216 296 259"/>
<path stroke-width="1" stroke="black" d="M 296 259 331 216"/>
<path stroke-width="1" stroke="black" d="M 296 259 257 291"/>
<path stroke-width="1" stroke="black" d="M 257 291 296 259"/>
<path stroke-width="1" stroke="black" d="M 257 291 218 314"/>
<path stroke-width="1" stroke="black" d="M 218 314 257 291"/>
<path stroke-width="1" stroke="black" d="M 218 314 177 320"/>
<path stroke-width="1" stroke="black" d="M 177 320 218 314"/>
<path stroke-width="1" stroke="black" d="M 177 320 137 304"/>
<path stroke-width="1" stroke="black" d="M 137 304 177 320"/>
<path stroke-width="1" stroke="black" d="M 137 304 100 275"/>
<path stroke-width="1" stroke="black" d="M 100 275 137 304"/>
<path stroke-width="1" stroke="black" d="M 100 275 71 211"/>
<path stroke-width="1" stroke="black" d="M 71 211 100 275"/>
<path stroke-width="1" stroke="black" d="M 71 211 44 158"/>
<path stroke-width="1" stroke="black" d="M 44 158 71 211"/>
<path stroke-width="1" stroke="black" d="M 44 158 30 75"/>
<path stroke-width="1" stroke="black" d="M 30 75 44 158"/>
<path stroke-width="1" stroke="black" d="M 30 75 20 20"/>
<path stroke-width="1" stroke="black" d="M 20 20 30 75"/>
<path stroke-width="1" stroke="black" d="M 394 129 420 92"/>
<path stroke-width="1" stroke="black" d="M 394 129 365 173"/>
<circle cx="420" cy="92" r="7.0" style="fill:gray;stroke:black;stroke-width:1.0"/>
<circle cx="20" cy="20" r="7.0" style="fill:gray;stroke:black;stroke-width:1.0"/>
<circle cx="30" cy="75" r="7.0" style="fill:gray;stroke:black;stroke-width:1.0"/>
<circle cx="44" cy="158" r="7.0" style="fill:gray;stroke:black;stroke-width:1.0"/>
<circle cx="71" cy="211" r="7.0" style="fill:gray;stroke:black;stroke-width:1.0"/>
<circle cx="100" cy="275" r="7.0" style="fill:gray;stroke:black;stroke-width:1.0"/>
<circle cx="137" cy="304" r="7.0" style="fill:gray;stroke:black;stroke-width:1.0"/>
<circle cx="177" cy="320" r="7.0" style="fill:gray;stroke:black;stroke-width:1.0"/>
<circle cx="218" cy="314" r="7.0" style="fill:gray;stroke:black;stroke-width:1.0"/>
<circle cx="257" cy="291" r="7.0" style="fill:gray;stroke:black;stroke-width:1.0"/>
<circle cx="296" cy="259" r="7.0" style="fill:gray;stroke:black;stroke-width:1.0"/>
<circle cx="331" cy="216" r="7.0" style="fill:gray;stroke:black;stroke-width:1.0"/>
<circle cx="365" cy="173" r="7.0" style="fill:gray;stroke:black;stroke-width:1.0"/>
<circle cx="394" cy="129" r="7.0" style="fill:gray;stroke:black;stroke-width:1.0"/>
</svg>
