<svg width="440" height="340" xmlns="http://www.w3.org/2000/svg">
<path stroke-width="1" stroke="black" d="M 20 20 88 22"/>
<path stroke-width="1" stroke="black" d="M 164 32 88 22"/>
<path stroke-width="1" stroke="black" d="M 164 32 245 42"/>
<path stroke-width="1" stroke="black" d="M 245 42 164 32"/>
<path stroke-width="1" stroke="black" d="M 245 42 307 65"/>
<path stroke-width="1" stroke="black" d="M 307 65 245 42"/>
<path stroke-width="1" stroke="black" d="M 307 65 367 87"/>
<path stroke-width="1" stroke="black" d="M 367 87 307 65"/>
<path stroke-width="1" stroke="black" d="M 367 87 399 118"/>
<path stroke-width="1" stroke="black" d="M 399 118 367 87"/>
<path stroke-width="1" stroke="black" d="M 399 118 418 148"/>
<path stroke-width="1" stroke="black" d="M 418 148 399 118"/>
<path stroke-width="1" stroke="black" d="M 418 148 420 181"/>
<path stroke-width="1" stroke="black" d="M 420 181 418 148"/>
<path stroke-width="1" stroke="black" d="M 420 181 407 211"/>
<path stroke-width="1" stroke="black" d="M 407 211 420 181"/>
<path stroke-width="1" stroke="black" d="M 407 211 389 243"/>
<path stroke-width="1" stroke="black" d="M 389 243 407 211"/>
<path stroke-width="1" stroke="black" d="M 389 243 363 271"/>
<path stroke-width="1" stroke="black" d="M 363 271 389 243"/>
<path stroke-width="1" stroke="black" d="M 363 271 337 298"/>
<path stroke-width="1" stroke="black" d="M 337 298 363 271"/>
<path stroke-width="1" stroke="black" d="M 337 298 313 320"/>
<path stroke-width="1" stroke="black" d="M 313 320 337 298"/>
<path stroke-width="1" stroke="black" d="M 88 22 20 20"/>
<path stroke-width="1" stroke="black" d="M 88 22 164 32"/>
<circle cx="20" cy="20" r="7.0" style="fill:gray;stroke:black;stroke-width:1.0"/>
<circle cx="313" cy="320" r="7.0" style="fill:gray;stroke:black;stroke-width:1.0"/>
<circle cx="337" cy="298" r="7.0" style="fill:gray;stroke:black;stroke-width:1.0"/>
<circle cx="363" cy="271" r="7.0" style="fill:gray;stroke:black;stroke-width:1.0"/>
<circle cx="389" cy="243" r="7.0" style="fill:gray;stroke:black;stroke-width:1.0"/>
<circle cx="407" cy="211" r="7.0" style="fill:gray;stroke:black;stroke-width:1.0"/>
<circle cx="420" cy="181" r="7.0" style="fill:gray;stroke:black;stroke-width:1.0"/>
<circle cx="418" cy="148" r="7.0" style="fill:gray;stroke:black;stroke-width:1.0"/>
<circle cx="399" cy="118" r="7.0" style="fill:gray;stroke:black;stroke-width:1.0"/>
<circle cx="367" cy="87" r="7.0" style="fill:gray;stroke:black;stroke-width:1.0"/>
<circle cx="307" cy="65" r="7.0" style="fill:gray;stroke:black;stroke-width:1.0"/>
<circle cx="245" cy="42" r="7.0" style="fill:gray;stroke:black;stroke-width:1.0"/>
<circle cx="164" cy="32" r="7.0" style="fill:gray;stroke:black;stroke-width:1.0"/>
<circle cx="88" cy="22" r="7.0" style="fill:gray;stroke:black;stroke-width:1.0"/>
</svg>
