<svg width="440" height="340" xmlns="http://www.w3.org/2000/svg">
<path stroke-width="1" stroke="black" d="M 136 320 103 297"/>
<path stroke-width="1" stroke="black" d="M 71 267 103 297"/>
<path stroke-width="1" stroke="black" d="M 71 267 39 233"/>
<path stroke-width="1" stroke="black" d="M 39 233 71 267"/>
<path stroke-width="1" stroke="black" d="M 39 233 22 195"/>
<path stroke-width="1" stroke="black" d="M 22 195 39 233"/>
<path stroke-width="1" stroke="black" d="M 22 195 20 155"/>
<path stroke-width="1" stroke="black" d="M 20 155 22 195"/>
<path stroke-width="1" stroke="black" d="M 20 155 34 116"/>
<path stroke-width="1" stroke="black" d="M 34 116 20 155"/>
<path stroke-width="1" stroke="black" d="M 34 116 76 83"/>
<path stroke-width="1" stroke="black" d="M 76 83 34 116"/>
<path stroke-width="1" stroke="black" d="M 76 83 120 55"/>
<path stroke-width="1" stroke="black" d="M 120 55 76 83"/>
<path stroke-width="1" stroke="black" d="M 120 55 185 38"/>
<path stroke-width="1" stroke="black" d="M 185 38 120 55"/>
<path stroke-width="1" stroke="black" d="M 185 38 244 26"/>
<path stroke-width="1" stroke="black" d="M 244 26 185 38"/>
<path stroke-width="1" stroke="black" d="M 244 26 311 21"/>
<path stroke-width="1" stroke="black" d="M 311 21 244 26"/>
<path stroke-width="1" stroke="black" d="M 311 21 369 20"/>
<path stroke-width="1" stroke="black" d="M 369 20 311 21"/>
<path stroke-width="1" stroke="black" d="M 369 20 420 20"/>
<path stroke-width="1" stroke="black" d="M 420 20 369 20"/>
<path stroke-width="1" stroke="black" d="M 103 297 136 320"/>
<path stroke-width="1" stroke="black" d="M 103 297 71 267"/>
<circle cx="136" cy="320" r="20.0" style="fill:green;stroke:black;stroke-width:1.0"/>
<circle cx="420" cy="20" r="20.0" style="fill:blue;stroke:black;stroke-width:1.0"/>
<circle cx="369" cy="20" r="20.0" style="fill:blue;stroke:black;stroke-width:1.0"/>
<circle cx="311" cy="21" r="20.0" style="fill:blue;stroke:black;stroke-width:1.0"/>
<circle cx="244" cy="26" r="20.0" style="fill:blue;stroke:black;stroke-width:1.0"/>
<circle cx="185" cy="38" r="20.0" style="fill:red;stroke:black;stroke-width:1.0"/>
<circle cx="120" cy="55" r="20.0" style="fill:red;stroke:black;stroke-width:1.0"/>
<circle cx="76" cy="83" r="20.0" style="fill:red;stroke:black;stroke-width:1.0"/>
<circle cx="34" cy="116" r="20.0" style="fill:red;stroke:black;stroke-width:1.0"/>
<circle cx="20" cy="155" r="20.0" style="fill:orange;stroke:black;stroke-width:1.0"/>
<circle cx="22" cy="195" r="20.0" style="fill:orange;stroke:black;stroke-width:1.0"/>
<circle cx="39" cy="233" r="20.0" style="fill:green;stroke:black;stroke-width:1.0"/>
<circle cx="71" cy="267" r="20.0" style="fill:green;stroke:black;stroke-width:1.0"/>
<circle cx="103" cy="297" r="20.0" style="fill:green;stroke:black;stroke-width:1.0"/>
</svg>
