<svg width="440" height="340" xmlns="http://www.w3.org/2000/svg">
<path stroke-width="11.333333333333334" stroke="black" d="M 49 297 127 225"/>
<path stroke-width="0.5" stroke="black" d="M 189 247 340 139"/>
<path stroke-width="0.5" stroke="black" d="M 189 247 127 225"/>
<path stroke-width="20.0" stroke="black" d="M 170 312 189 247"/>
<path stroke-width="0.5" stroke="black" d="M 277 254 140 100"/>
<path stroke-width="0.5" stroke="black" d="M 277 254 344 199"/>
<path stroke-width="0.5" stroke="black" d="M 277 254 189 247"/>
<path stroke-width="20.0" stroke="black" d="M 277 254 302 320"/>
<path stroke-width="0.5" stroke="black" d="M 277 254 283 97"/>
<path stroke-width="0.5" stroke="black" d="M 277 254 214 164"/>
<path stroke-width="0.5" stroke="black" d="M 277 254 98 169"/>
<path stroke-width="0.5" stroke="black" d="M 277 254 211 89"/>
<path stroke-width="0.5" stroke="black" d="M 277 254 340 139"/>
<path stroke-width="0.5" stroke="black" d="M 277 254 127 225"/>
<path stroke-width="20.0" stroke="black" d="M 302 320 277 254"/>
<path stroke-width="0.5" stroke="black" d="M 283 97 140 100"/>
<path stroke-width="0.5" stroke="black" d="M 283 97 344 199"/>
<path stroke-width="0.5" stroke="black" d="M 283 97 189 247"/>
<path stroke-width="0.5" stroke="black" d="M 283 97 277 254"/>
<path stroke-width="20.0" stroke="black" d="M 283 97 320 35"/>
<path stroke-width="0.5" stroke="black" d="M 283 97 214 164"/>
<path stroke-width="0.5" stroke="black" d="M 283 97 98 169"/>
<path stroke-width="0.5" stroke="black" d="M 283 97 211 89"/>
<path stroke-width="0.5" stroke="black" d="M 283 97 340 139"/>
<path stroke-width="0.5" stroke="black" d="M 189 247 211 89"/>
<path stroke-width="0.5" stroke="black" d="M 189 247 98 169"/>
<path stroke-width="0.5" stroke="black" d="M 189 247 214 164"/>
<path stroke-width="0.5" stroke="black" d="M 189 247 283 97"/>
<path stroke-width="0.5" stroke="black" d="M 140 100 189 247"/>
<path stroke-width="0.5" stroke="black" d="M 140 100 277 254"/>
<path stroke-width="0.5" stroke="black" d="M 140 100 283 97"/>
<path stroke-width="0.5" stroke="black" d="M 140 100 214 164"/>
<path stroke-width="0.5" stroke="black" d="M 140 100 98 169"/>
<path stroke-width="0.5" stroke="black" d="M 140 100 211 89"/>
<path stroke-width="0.5" stroke="black" d="M 140 100 340 139"/>
<path stroke-width="0.5" stroke="black" d="M 140 100 127 225"/>
<path stroke-width="11.333333333333334" stroke="black" d="M 76 20 140 100"/>
<path stroke-width="0.5" stroke="black" d="M 344 199 140 100"/>
<path stroke-width="20.0" stroke="black" d="M 344 199 420 223"/>
<path stroke-width="0.5" stroke="black" d="M 283 97 127 225"/>
<path stroke-width="0.5" stroke="black" d="M 344 199 189 247"/>
<path stroke-width="0.5" stroke="black" d="M 344 199 283 97"/>
<path stroke-width="0.5" stroke="black" d="M 344 199 214 164"/>
<path stroke-width="0.5" stroke="black" d="M 344 199 98 169"/>
<path stroke-width="0.5" stroke="black" d="M 344 199 211 89"/>
<path stroke-width="0.5" stroke="black" d="M 344 199 340 139"/>
<path stroke-width="0.5" stroke="black" d="M 344 199 127 225"/>
<path stroke-width="20.0" stroke="black" d="M 420 223 344 199"/>
<path stroke-width="0.5" stroke="black" d="M 189 247 140 100"/>
<path stroke-width="0.5" stroke="black" d="M 189 247 344 199"/>
<path stroke-width="20.0" stroke="black" d="M 189 247 170 312"/>
<path stroke-width="0.5" stroke="black" d="M 189 247 277 254"/>
<path stroke-width="0.5" stroke="black" d="M 344 199 277 254"/>
<path stroke-width="20.0" stroke="black" d="M 320 35 283 97"/>
<path stroke-width="0.5" stroke="black" d="M 214 164 140 100"/>
<path stroke-width="0.5" stroke="black" d="M 214 164 344 199"/>
<path stroke-width="0.5" stroke="black" d="M 211 89 340 139"/>
<path stroke-width="0.5" stroke="black" d="M 211 89 127 225"/>
<path stroke-width="20.0" stroke="black" d="M 206 20 211 89"/>
<path stroke-width="0.5" stroke="black" d="M 340 139 140 100"/>
<path stroke-width="0.5" stroke="black" d="M 340 139 344 199"/>
<path stroke-width="0.5" stroke="black" d="M 340 139 189 247"/>
<path stroke-width="0.5" stroke="black" d="M 340 139 277 254"/>
<path stroke-width="0.5" stroke="black" d="M 340 139 283 97"/>
<path stroke-width="0.5" stroke="black" d="M 340 139 214 164"/>
<path stroke-width="0.5" stroke="black" d="M 340 139 98 169"/>
<path stroke-width="0.5" stroke="black" d="M 340 139 211 89"/>
<path stroke-width="20.0" stroke="black" d="M 211 89 206 20"/>
<path stroke-width="20.0" stroke="black" d="M 340 139 415 109"/>
<path stroke-width="20.0" stroke="black" d="M 415 109 340 139"/>
<path stroke-width="0.5" stroke="black" d="M 127 225 140 100"/>
<path stroke-width="0.5" stroke="black" d="M 127 225 344 199"/>
<path stroke-width="0.5" stroke="black" d="M 127 225 189 247"/>
<path stroke-width="0.5" stroke="black" d="M 127 225 277 254"/>
<path stroke-width="0.5" stroke="black" d="M 127 225 283 97"/>
<path stroke-width="0.5" stroke="black" d="M 127 225 214 164"/>
<path stroke-width="0.5" stroke="black" d="M 127 225 98 169"/>
<path stroke-width="0.5" stroke="black" d="M 127 225 211 89"/>
<path stroke-width="0.5" stroke="black" d="M 127 225 340 139"/>
<path stroke-width="11.333333333333334" stroke="black" d="M 127 225 49 297"/>
<path stroke-width="0.5" stroke="black" d="M 340 139 127 225"/>
<path stroke-width="0.5" stroke="black" d="M 140 100 344 199"/>
<path stroke-width="0.5" stroke="black" d="M 211 89 98 169"/>
<path stroke-width="0.5" stroke="black" d="M 211 89 283 97"/>
<path stroke-width="0.5" stroke="black" d="M 214 164 189 247"/>
<path stroke-width="0.5" stroke="black" d="M 214 164 277 254"/>
<path stroke-width="0.5" stroke="black" d="M 214 164 283 97"/>
<path stroke-width="20.0" stroke="black" d="M 214 164 237 198"/>
<path stroke-width="0.5" stroke="black" d="M 214 164 98 169"/>
<path stroke-width="0.5" stroke="black" d="M 214 164 211 89"/>
<path stroke-width="0.5" stroke="black" d="M 214 164 340 139"/>
<path stroke-width="0.5" stroke="black" d="M 214 164 127 225"/>
<path stroke-width="20.0" stroke="black" d="M 237 198 214 164"/>
<path stroke-width="0.5" stroke="black" d="M 98 169 140 100"/>
<path stroke-width="0.5" stroke="black" d="M 98 169 344 199"/>
<path stroke-width="0.5" stroke="black" d="M 211 89 214 164"/>
<path stroke-width="0.5" stroke="black" d="M 98 169 189 247"/>
<path stroke-width="0.5" stroke="black" d="M 98 169 283 97"/>
<path stroke-width="0.5" stroke="black" d="M 98 169 214 164"/>
<path stroke-width="20.0" stroke="black" d="M 98 169 20 178"/>
<path stroke-width="0.5" stroke="black" d="M 98 169 211 89"/>
<path stroke-width="0.5" stroke="black" d="M 98 169 340 139"/>
<path stroke-width="0.5" stroke="black" d="M 98 169 127 225"/>
<path stroke-width="20.0" stroke="black" d="M 20 178 98 169"/>
<path stroke-width="0.5" stroke="black" d="M 211 89 140 100"/>
<path stroke-width="0.5" stroke="black" d="M 211 89 344 199"/>
<path stroke-width="0.5" stroke="black" d="M 211 89 189 247"/>
<path stroke-width="0.5" stroke="black" d="M 211 89 277 254"/>
<path stroke-width="0.5" stroke="black" d="M 98 169 277 254"/>
<path stroke-width="11.333333333333334" stroke="black" d="M 140 100 76 20"/>
<circle cx="49" cy="297" r="7.0" style="fill:blue;stroke:black;stroke-width:1.0"/>
<circle cx="127" cy="225" r="7.0" style="fill:blue;stroke:black;stroke-width:1.0"/>
<circle cx="415" cy="109" r="7.0" style="fill:red;stroke:black;stroke-width:1.0"/>
<circle cx="340" cy="139" r="7.0" style="fill:red;stroke:black;stroke-width:1.0"/>
<circle cx="206" cy="20" r="7.0" style="fill:green;stroke:black;stroke-width:1.0"/>
<circle cx="211" cy="89" r="7.0" style="fill:green;stroke:black;stroke-width:1.0"/>
<circle cx="20" cy="178" r="7.0" style="fill:orange;stroke:black;stroke-width:1.0"/>
<circle cx="98" cy="169" r="7.0" style="fill:orange;stroke:black;stroke-width:1.0"/>
<circle cx="237" cy="198" r="7.0" style="fill:purple;stroke:black;stroke-width:1.0"/>
<circle cx="214" cy="164" r="7.0" style="fill:purple;stroke:black;stroke-width:1.0"/>
<circle cx="320" cy="35" r="7.0" style="fill:yellow;stroke:black;stroke-width:1.0"/>
<circle cx="283" cy="97" r="7.0" style="fill:yellow;stroke:black;stroke-width:1.0"/>
<circle cx="302" cy="320" r="7.0" style="fill:fuchsia;stroke:black;stroke-width:1.0"/>
<circle cx="277" cy="254" r="7.0" style="fill:fuchsia;stroke:black;stroke-width:1.0"/>
<circle cx="170" cy="312" r="7.0" style="fill:olive;stroke:black;stroke-width:1.0"/>
<circle cx="189" cy="247" r="7.0" style="fill:olive;stroke:black;stroke-width:1.0"/>
<circle cx="420" cy="223" r="7.0" style="fill:aqua;stroke:black;stroke-width:1.0"/>
<circle cx="344" cy="199" r="7.0" style="fill:aqua;stroke:black;stroke-width:1.0"/>
<circle cx="76" cy="20" r="7.0" style="fill:brown;stroke:black;stroke-width:1.0"/>
<circle cx="140" cy="100" r="7.0" style="fill:brown;stroke:black;stroke-width:1.0"/>
</svg>
