<svg width="440" height="340" xmlns="http://www.w3.org/2000/svg">
<path stroke-width="11.333333333333334" stroke="black" d="M 214 20 220 111"/>
<path stroke-width="0.5" stroke="black" d="M 180 248 220 183"/>
<path stroke-width="0.5" stroke="black" d="M 180 248 220 111"/>
<path stroke-width="20.0" stroke="black" d="M 170 320 180 248"/>
<path stroke-width="0.5" stroke="black" d="M 135 222 290 132"/>
<path stroke-width="0.5" stroke="black" d="M 135 222 114 173"/>
<path stroke-width="0.5" stroke="black" d="M 135 222 180 248"/>
<path stroke-width="20.0" stroke="black" d="M 135 222 57 264"/>
<path stroke-width="0.5" stroke="black" d="M 135 222 324 173"/>
<path stroke-width="0.5" stroke="black" d="M 135 222 144 134"/>
<path stroke-width="0.5" stroke="black" d="M 135 222 260 246"/>
<path stroke-width="0.5" stroke="black" d="M 135 222 312 218"/>
<path stroke-width="0.5" stroke="black" d="M 135 222 220 183"/>
<path stroke-width="0.5" stroke="black" d="M 135 222 220 111"/>
<path stroke-width="20.0" stroke="black" d="M 57 264 135 222"/>
<path stroke-width="0.5" stroke="black" d="M 324 173 290 132"/>
<path stroke-width="0.5" stroke="black" d="M 324 173 114 173"/>
<path stroke-width="0.5" stroke="black" d="M 324 173 180 248"/>
<path stroke-width="0.5" stroke="black" d="M 324 173 135 222"/>
<path stroke-width="20.0" stroke="black" d="M 324 173 420 161"/>
<path stroke-width="0.5" stroke="black" d="M 324 173 144 134"/>
<path stroke-width="0.5" stroke="black" d="M 324 173 260 246"/>
<path stroke-width="0.5" stroke="black" d="M 324 173 312 218"/>
<path stroke-width="0.5" stroke="black" d="M 324 173 220 183"/>
<path stroke-width="0.5" stroke="black" d="M 180 248 312 218"/>
<path stroke-width="0.5" stroke="black" d="M 180 248 260 246"/>
<path stroke-width="0.5" stroke="black" d="M 180 248 144 134"/>
<path stroke-width="0.5" stroke="black" d="M 180 248 324 173"/>
<path stroke-width="0.5" stroke="black" d="M 290 132 180 248"/>
<path stroke-width="0.5" stroke="black" d="M 290 132 135 222"/>
<path stroke-width="0.5" stroke="black" d="M 290 132 324 173"/>
<path stroke-width="0.5" stroke="black" d="M 290 132 144 134"/>
<path stroke-width="0.5" stroke="black" d="M 290 132 260 246"/>
<path stroke-width="0.5" stroke="black" d="M 290 132 312 218"/>
<path stroke-width="0.5" stroke="black" d="M 290 132 220 183"/>
<path stroke-width="0.5" stroke="black" d="M 290 132 220 111"/>
<path stroke-width="11.333333333333334" stroke="black" d="M 365 63 290 132"/>
<path stroke-width="0.5" stroke="black" d="M 114 173 290 132"/>
<path stroke-width="20.0" stroke="black" d="M 114 173 20 157"/>
<path stroke-width="0.5" stroke="black" d="M 324 173 220 111"/>
<path stroke-width="0.5" stroke="black" d="M 114 173 180 248"/>
<path stroke-width="0.5" stroke="black" d="M 114 173 324 173"/>
<path stroke-width="0.5" stroke="black" d="M 114 173 144 134"/>
<path stroke-width="0.5" stroke="black" d="M 114 173 260 246"/>
<path stroke-width="0.5" stroke="black" d="M 114 173 312 218"/>
<path stroke-width="0.5" stroke="black" d="M 114 173 220 183"/>
<path stroke-width="0.5" stroke="black" d="M 114 173 220 111"/>
<path stroke-width="20.0" stroke="black" d="M 20 157 114 173"/>
<path stroke-width="0.5" stroke="black" d="M 180 248 290 132"/>
<path stroke-width="0.5" stroke="black" d="M 180 248 114 173"/>
<path stroke-width="20.0" stroke="black" d="M 180 248 170 320"/>
<path stroke-width="0.5" stroke="black" d="M 180 248 135 222"/>
<path stroke-width="0.5" stroke="black" d="M 114 173 135 222"/>
<path stroke-width="20.0" stroke="black" d="M 420 161 324 173"/>
<path stroke-width="0.5" stroke="black" d="M 144 134 290 132"/>
<path stroke-width="0.5" stroke="black" d="M 144 134 114 173"/>
<path stroke-width="0.5" stroke="black" d="M 312 218 220 183"/>
<path stroke-width="0.5" stroke="black" d="M 312 218 220 111"/>
<path stroke-width="20.0" stroke="black" d="M 384 261 312 218"/>
<path stroke-width="0.5" stroke="black" d="M 220 183 290 132"/>
<path stroke-width="0.5" stroke="black" d="M 220 183 114 173"/>
<path stroke-width="0.5" stroke="black" d="M 220 183 180 248"/>
<path stroke-width="0.5" stroke="black" d="M 220 183 135 222"/>
<path stroke-width="0.5" stroke="black" d="M 220 183 324 173"/>
<path stroke-width="0.5" stroke="black" d="M 220 183 144 134"/>
<path stroke-width="0.5" stroke="black" d="M 220 183 260 246"/>
<path stroke-width="0.5" stroke="black" d="M 220 183 312 218"/>
<path stroke-width="20.0" stroke="black" d="M 312 218 384 261"/>
<path stroke-width="20.0" stroke="black" d="M 220 183 218 146"/>
<path stroke-width="20.0" stroke="black" d="M 218 146 220 183"/>
<path stroke-width="0.5" stroke="black" d="M 220 111 290 132"/>
<path stroke-width="0.5" stroke="black" d="M 220 111 114 173"/>
<path stroke-width="0.5" stroke="black" d="M 220 111 180 248"/>
<path stroke-width="0.5" stroke="black" d="M 220 111 135 222"/>
<path stroke-width="0.5" stroke="black" d="M 220 111 324 173"/>
<path stroke-width="0.5" stroke="black" d="M 220 111 144 134"/>
<path stroke-width="0.5" stroke="black" d="M 220 111 260 246"/>
<path stroke-width="0.5" stroke="black" d="M 220 111 312 218"/>
<path stroke-width="0.5" stroke="black" d="M 220 111 220 183"/>
<path stroke-width="11.333333333333334" stroke="black" d="M 220 111 214 20"/>
<path stroke-width="0.5" stroke="black" d="M 220 183 220 111"/>
<path stroke-width="0.5" stroke="black" d="M 290 132 114 173"/>
<path stroke-width="0.5" stroke="black" d="M 312 218 260 246"/>
<path stroke-width="0.5" stroke="black" d="M 312 218 324 173"/>
<path stroke-width="0.5" stroke="black" d="M 144 134 180 248"/>
<path stroke-width="0.5" stroke="black" d="M 144 134 135 222"/>
<path stroke-width="0.5" stroke="black" d="M 144 134 324 173"/>
<path stroke-width="20.0" stroke="black" d="M 144 134 96 73"/>
<path stroke-width="0.5" stroke="black" d="M 144 134 260 246"/>
<path stroke-width="0.5" stroke="black" d="M 144 134 312 218"/>
<path stroke-width="0.5" stroke="black" d="M 144 134 220 183"/>
<path stroke-width="0.5" stroke="black" d="M 144 134 220 111"/>
<path stroke-width="20.0" stroke="black" d="M 96 73 144 134"/>
<path stroke-width="0.5" stroke="black" d="M 260 246 290 132"/>
<path stroke-width="0.5" stroke="black" d="M 260 246 114 173"/>
<path stroke-width="0.5" stroke="black" d="M 312 218 144 134"/>
<path stroke-width="0.5" stroke="black" d="M 260 246 180 248"/>
<path stroke-width="0.5" stroke="black" d="M 260 246 324 173"/>
<path stroke-width="0.5" stroke="black" d="M 260 246 144 134"/>
<path stroke-width="20.0" stroke="black" d="M 260 246 282 316"/>
<path stroke-width="0.5" stroke="black" d="M 260 246 312 218"/>
<path stroke-width="0.5" stroke="black" d="M 260 246 220 183"/>
<path stroke-width="0.5" stroke="black" d="M 260 246 220 111"/>
<path stroke-width="20.0" stroke="black" d="M 282 316 260 246"/>
<path stroke-width="0.5" stroke="black" d="M 312 218 290 132"/>
<path stroke-width="0.5" stroke="black" d="M 312 218 114 173"/>
<path stroke-width="0.5" stroke="black" d="M 312 218 180 248"/>
<path stroke-width="0.5" stroke="black" d="M 312 218 135 222"/>
<path stroke-width="0.5" stroke="black" d="M 260 246 135 222"/>
<path stroke-width="11.333333333333334" stroke="black" d="M 290 132 365 63"/>
<circle cx="214" cy="20" r="7.0" style="fill:blue;stroke:black;stroke-width:1.0"/>
<circle cx="220" cy="111" r="7.0" style="fill:blue;stroke:black;stroke-width:1.0"/>
<circle cx="218" cy="146" r="7.0" style="fill:red;stroke:black;stroke-width:1.0"/>
<circle cx="220" cy="183" r="7.0" style="fill:red;stroke:black;stroke-width:1.0"/>
<circle cx="384" cy="261" r="7.0" style="fill:green;stroke:black;stroke-width:1.0"/>
<circle cx="312" cy="218" r="7.0" style="fill:green;stroke:black;stroke-width:1.0"/>
<circle cx="282" cy="316" r="7.0" style="fill:orange;stroke:black;stroke-width:1.0"/>
<circle cx="260" cy="246" r="7.0" style="fill:orange;stroke:black;stroke-width:1.0"/>
<circle cx="96" cy="73" r="7.0" style="fill:purple;stroke:black;stroke-width:1.0"/>
<circle cx="144" cy="134" r="7.0" style="fill:purple;stroke:black;stroke-width:1.0"/>
<circle cx="420" cy="161" r="7.0" style="fill:yellow;stroke:black;stroke-width:1.0"/>
<circle cx="324" cy="173" r="7.0" style="fill:yellow;stroke:black;stroke-width:1.0"/>
<circle cx="57" cy="264" r="7.0" style="fill:fuchsia;stroke:black;stroke-width:1.0"/>
<circle cx="135" cy="222" r="7.0" style="fill:fuchsia;stroke:black;stroke-width:1.0"/>
<circle cx="170" cy="320" r="7.0" style="fill:olive;stroke:black;stroke-width:1.0"/>
<circle cx="180" cy="248" r="7.0" style="fill:olive;stroke:black;stroke-width:1.0"/>
<circle cx="20" cy="157" r="7.0" style="fill:aqua;stroke:black;stroke-width:1.0"/>
<circle cx="114" cy="173" r="7.0" style="fill:aqua;stroke:black;stroke-width:1.0"/>
<circle cx="365" cy="63" r="7.0" style="fill:brown;stroke:black;stroke-width:1.0"/>
<circle cx="290" cy="132" r="7.0" style="fill:brown;stroke:black;stroke-width:1.0"/>
</svg>
