<svg width="440" height="340" xmlns="http://www.w3.org/2000/svg">
<path stroke-width="1" stroke="black" d="M 253 109 225 154"/>
<path stroke-width="1" stroke="black" d="M 317 132 279 215"/>
<path stroke-width="1" stroke="black" d="M 317 132 225 154"/>
<path stroke-width="1" stroke="black" d="M 412 104 317 132"/>
<path stroke-width="1" stroke="black" d="M 124 168 221 230"/>
<path stroke-width="1" stroke="black" d="M 124 168 159 216"/>
<path stroke-width="1" stroke="black" d="M 124 168 317 132"/>
<path stroke-width="1" stroke="black" d="M 124 168 20 172"/>
<path stroke-width="1" stroke="black" d="M 124 168 319 179"/>
<path stroke-width="1" stroke="black" d="M 124 168 144 124"/>
<path stroke-width="1" stroke="black" d="M 124 168 191 89"/>
<path stroke-width="1" stroke="black" d="M 124 168 268 87"/>
<path stroke-width="1" stroke="black" d="M 124 168 279 215"/>
<path stroke-width="1" stroke="black" d="M 124 168 225 154"/>
<path stroke-width="1" stroke="black" d="M 20 172 124 168"/>
<path stroke-width="1" stroke="black" d="M 319 179 221 230"/>
<path stroke-width="1" stroke="black" d="M 319 179 159 216"/>
<path stroke-width="1" stroke="black" d="M 319 179 317 132"/>
<path stroke-width="1" stroke="black" d="M 319 179 124 168"/>
<path stroke-width="1" stroke="black" d="M 319 179 420 195"/>
<path stroke-width="1" stroke="black" d="M 319 179 144 124"/>
<path stroke-width="1" stroke="black" d="M 319 179 191 89"/>
<path stroke-width="1" stroke="black" d="M 319 179 268 87"/>
<path stroke-width="1" stroke="black" d="M 319 179 279 215"/>
<path stroke-width="1" stroke="black" d="M 317 132 268 87"/>
<path stroke-width="1" stroke="black" d="M 317 132 191 89"/>
<path stroke-width="1" stroke="black" d="M 317 132 144 124"/>
<path stroke-width="1" stroke="black" d="M 317 132 319 179"/>
<path stroke-width="1" stroke="black" d="M 221 230 317 132"/>
<path stroke-width="1" stroke="black" d="M 221 230 124 168"/>
<path stroke-width="1" stroke="black" d="M 221 230 319 179"/>
<path stroke-width="1" stroke="black" d="M 221 230 144 124"/>
<path stroke-width="1" stroke="black" d="M 221 230 191 89"/>
<path stroke-width="1" stroke="black" d="M 221 230 268 87"/>
<path stroke-width="1" stroke="black" d="M 221 230 279 215"/>
<path stroke-width="1" stroke="black" d="M 221 230 225 154"/>
<path stroke-width="1" stroke="black" d="M 223 320 221 230"/>
<path stroke-width="1" stroke="black" d="M 159 216 221 230"/>
<path stroke-width="1" stroke="black" d="M 159 216 93 272"/>
<path stroke-width="1" stroke="black" d="M 319 179 225 154"/>
<path stroke-width="1" stroke="black" d="M 159 216 317 132"/>
<path stroke-width="1" stroke="black" d="M 159 216 319 179"/>
<path stroke-width="1" stroke="black" d="M 159 216 144 124"/>
<path stroke-width="1" stroke="black" d="M 159 216 191 89"/>
<path stroke-width="1" stroke="black" d="M 159 216 268 87"/>
<path stroke-width="1" stroke="black" d="M 159 216 279 215"/>
<path stroke-width="1" stroke="black" d="M 159 216 225 154"/>
<path stroke-width="1" stroke="black" d="M 93 272 159 216"/>
<path stroke-width="1" stroke="black" d="M 317 132 221 230"/>
<path stroke-width="1" stroke="black" d="M 317 132 159 216"/>
<path stroke-width="1" stroke="black" d="M 317 132 412 104"/>
<path stroke-width="1" stroke="black" d="M 317 132 124 168"/>
<path stroke-width="1" stroke="black" d="M 159 216 124 168"/>
<path stroke-width="1" stroke="black" d="M 420 195 319 179"/>
<path stroke-width="1" stroke="black" d="M 144 124 221 230"/>
<path stroke-width="1" stroke="black" d="M 144 124 159 216"/>
<path stroke-width="1" stroke="black" d="M 268 87 279 215"/>
<path stroke-width="1" stroke="black" d="M 268 87 225 154"/>
<path stroke-width="1" stroke="black" d="M 313 23 268 87"/>
<path stroke-width="1" stroke="black" d="M 279 215 221 230"/>
<path stroke-width="1" stroke="black" d="M 279 215 159 216"/>
<path stroke-width="1" stroke="black" d="M 279 215 317 132"/>
<path stroke-width="1" stroke="black" d="M 279 215 124 168"/>
<path stroke-width="1" stroke="black" d="M 279 215 319 179"/>
<path stroke-width="1" stroke="black" d="M 279 215 144 124"/>
<path stroke-width="1" stroke="black" d="M 279 215 191 89"/>
<path stroke-width="1" stroke="black" d="M 279 215 268 87"/>
<path stroke-width="1" stroke="black" d="M 268 87 313 23"/>
<path stroke-width="1" stroke="black" d="M 279 215 340 271"/>
<path stroke-width="1" stroke="black" d="M 340 271 279 215"/>
<path stroke-width="1" stroke="black" d="M 225 154 221 230"/>
<path stroke-width="1" stroke="black" d="M 225 154 159 216"/>
<path stroke-width="1" stroke="black" d="M 225 154 317 132"/>
<path stroke-width="1" stroke="black" d="M 225 154 124 168"/>
<path stroke-width="1" stroke="black" d="M 225 154 319 179"/>
<path stroke-width="1" stroke="black" d="M 225 154 144 124"/>
<path stroke-width="1" stroke="black" d="M 225 154 191 89"/>
<path stroke-width="1" stroke="black" d="M 225 154 268 87"/>
<path stroke-width="1" stroke="black" d="M 225 154 279 215"/>
<path stroke-width="1" stroke="black" d="M 225 154 253 109"/>
<path stroke-width="1" stroke="black" d="M 279 215 225 154"/>
<path stroke-width="1" stroke="black" d="M 221 230 159 216"/>
<path stroke-width="1" stroke="black" d="M 268 87 191 89"/>
<path stroke-width="1" stroke="black" d="M 268 87 319 179"/>
<path stroke-width="1" stroke="black" d="M 144 124 317 132"/>
<path stroke-width="1" stroke="black" d="M 144 124 124 168"/>
<path stroke-width="1" stroke="black" d="M 144 124 319 179"/>
<path stroke-width="1" stroke="black" d="M 144 124 59 84"/>
<path stroke-width="1" stroke="black" d="M 144 124 191 89"/>
<path stroke-width="1" stroke="black" d="M 144 124 268 87"/>
<path stroke-width="1" stroke="black" d="M 144 124 279 215"/>
<path stroke-width="1" stroke="black" d="M 144 124 225 154"/>
<path stroke-width="1" stroke="black" d="M 59 84 144 124"/>
<path stroke-width="1" stroke="black" d="M 191 89 221 230"/>
<path stroke-width="1" stroke="black" d="M 191 89 159 216"/>
<path stroke-width="1" stroke="black" d="M 268 87 144 124"/>
<path stroke-width="1" stroke="black" d="M 191 89 317 132"/>
<path stroke-width="1" stroke="black" d="M 191 89 319 179"/>
<path stroke-width="1" stroke="black" d="M 191 89 144 124"/>
<path stroke-width="1" stroke="black" d="M 191 89 164 20"/>
<path stroke-width="1" stroke="black" d="M 191 89 268 87"/>
<path stroke-width="1" stroke="black" d="M 191 89 279 215"/>
<path stroke-width="1" stroke="black" d="M 191 89 225 154"/>
<path stroke-width="1" stroke="black" d="M 164 20 191 89"/>
<path stroke-width="1" stroke="black" d="M 268 87 221 230"/>
<path stroke-width="1" stroke="black" d="M 268 87 159 216"/>
<path stroke-width="1" stroke="black" d="M 268 87 317 132"/>
<path stroke-width="1" stroke="black" d="M 268 87 124 168"/>
<path stroke-width="1" stroke="black" d="M 191 89 124 168"/>
<path stroke-width="1" stroke="black" d="M 221 230 223 320"/>
<circle cx="253" cy="109" r="20.0" style="fill:gray;stroke:black;stroke-width:1.0"/>
<circle cx="225" cy="154" r="20.0" style="fill:gray;stroke:black;stroke-width:1.0"/>
<circle cx="340" cy="271" r="20.0" style="fill:gray;stroke:black;stroke-width:1.0"/>
<circle cx="279" cy="215" r="20.0" style="fill:gray;stroke:black;stroke-width:1.0"/>
<circle cx="313" cy="23" r="20.0" style="fill:gray;stroke:black;stroke-width:1.0"/>
<circle cx="268" cy="87" r="20.0" style="fill:gray;stroke:black;stroke-width:1.0"/>
<circle cx="164" cy="20" r="20.0" style="fill:gray;stroke:black;stroke-width:1.0"/>
<circle cx="191" cy="89" r="20.0" style="fill:gray;stroke:black;stroke-width:1.0"/>
<circle cx="59" cy="84" r="20.0" style="fill:gray;stroke:black;stroke-width:1.0"/>
<circle cx="144" cy="124" r="20.0" style="fill:gray;stroke:black;stroke-width:1.0"/>
<circle cx="420" cy="195" r="20.0" style="fill:gray;stroke:black;stroke-width:1.0"/>
<circle cx="319" cy="179" r="20.0" style="fill:gray;stroke:black;stroke-width:1.0"/>
<circle cx="20" cy="172" r="20.0" style="fill:gray;stroke:black;stroke-width:1.0"/>
<circle cx="124" cy="168" r="20.0" style="fill:gray;stroke:black;stroke-width:1.0"/>
<circle cx="412" cy="104" r="20.0" style="fill:gray;stroke:black;stroke-width:1.0"/>
<circle cx="317" cy="132" r="20.0" style="fill:gray;stroke:black;stroke-width:1.0"/>
<circle cx="93" cy="272" r="20.0" style="fill:gray;stroke:black;stroke-width:1.0"/>
<circle cx="159" cy="216" r="20.0" style="fill:gray;stroke:black;stroke-width:1.0"/>
<circle cx="223" cy="320" r="20.0" style="fill:gray;stroke:black;stroke-width:1.0"/>
<circle cx="221" cy="230" r="20.0" style="fill:gray;stroke:black;stroke-width:1.0"/>
</svg>
