<svg width="440" height="340" xmlns="http://www.w3.org/2000/svg">
<path stroke-width="11.333333333333334" stroke="black" d="M 276 320 249 239"/>
<path stroke-width="0.5" stroke="black" d="M 338 156 154 89"/>
<path stroke-width="0.5" stroke="black" d="M 338 156 249 239"/>
<path stroke-width="20.0" stroke="black" d="M 420 151 338 156"/>
<path stroke-width="0.5" stroke="black" d="M 101 137 317 207"/>
<path stroke-width="0.5" stroke="black" d="M 101 137 303 111"/>
<path stroke-width="0.5" stroke="black" d="M 101 137 338 156"/>
<path stroke-width="20.0" stroke="black" d="M 101 137 20 134"/>
<path stroke-width="0.5" stroke="black" d="M 101 137 115 210"/>
<path stroke-width="0.5" stroke="black" d="M 101 137 203 159"/>
<path stroke-width="0.5" stroke="black" d="M 101 137 234 82"/>
<path stroke-width="0.5" stroke="black" d="M 101 137 171 234"/>
<path stroke-width="0.5" stroke="black" d="M 101 137 154 89"/>
<path stroke-width="0.5" stroke="black" d="M 101 137 249 239"/>
<path stroke-width="20.0" stroke="black" d="M 20 134 101 137"/>
<path stroke-width="0.5" stroke="black" d="M 115 210 317 207"/>
<path stroke-width="0.5" stroke="black" d="M 115 210 303 111"/>
<path stroke-width="0.5" stroke="black" d="M 115 210 338 156"/>
<path stroke-width="0.5" stroke="black" d="M 115 210 101 137"/>
<path stroke-width="20.0" stroke="black" d="M 115 210 40 220"/>
<path stroke-width="0.5" stroke="black" d="M 115 210 203 159"/>
<path stroke-width="0.5" stroke="black" d="M 115 210 234 82"/>
<path stroke-width="0.5" stroke="black" d="M 115 210 171 234"/>
<path stroke-width="0.5" stroke="black" d="M 115 210 154 89"/>
<path stroke-width="0.5" stroke="black" d="M 338 156 171 234"/>
<path stroke-width="0.5" stroke="black" d="M 338 156 234 82"/>
<path stroke-width="0.5" stroke="black" d="M 338 156 203 159"/>
<path stroke-width="0.5" stroke="black" d="M 338 156 115 210"/>
<path stroke-width="0.5" stroke="black" d="M 317 207 338 156"/>
<path stroke-width="0.5" stroke="black" d="M 317 207 101 137"/>
<path stroke-width="0.5" stroke="black" d="M 317 207 115 210"/>
<path stroke-width="0.5" stroke="black" d="M 317 207 203 159"/>
<path stroke-width="0.5" stroke="black" d="M 317 207 234 82"/>
<path stroke-width="0.5" stroke="black" d="M 317 207 171 234"/>
<path stroke-width="0.5" stroke="black" d="M 317 207 154 89"/>
<path stroke-width="0.5" stroke="black" d="M 317 207 249 239"/>
<path stroke-width="11.333333333333334" stroke="black" d="M 419 248 317 207"/>
<path stroke-width="0.5" stroke="black" d="M 303 111 317 207"/>
<path stroke-width="20.0" stroke="black" d="M 303 111 368 67"/>
<path stroke-width="0.5" stroke="black" d="M 115 210 249 239"/>
<path stroke-width="0.5" stroke="black" d="M 303 111 338 156"/>
<path stroke-width="0.5" stroke="black" d="M 303 111 115 210"/>
<path stroke-width="0.5" stroke="black" d="M 303 111 203 159"/>
<path stroke-width="0.5" stroke="black" d="M 303 111 234 82"/>
<path stroke-width="0.5" stroke="black" d="M 303 111 171 234"/>
<path stroke-width="0.5" stroke="black" d="M 303 111 154 89"/>
<path stroke-width="0.5" stroke="black" d="M 303 111 249 239"/>
<path stroke-width="20.0" stroke="black" d="M 368 67 303 111"/>
<path stroke-width="0.5" stroke="black" d="M 338 156 317 207"/>
<path stroke-width="0.5" stroke="black" d="M 338 156 303 111"/>
<path stroke-width="20.0" stroke="black" d="M 338 156 420 151"/>
<path stroke-width="0.5" stroke="black" d="M 338 156 101 137"/>
<path stroke-width="0.5" stroke="black" d="M 303 111 101 137"/>
<path stroke-width="20.0" stroke="black" d="M 40 220 115 210"/>
<path stroke-width="0.5" stroke="black" d="M 203 159 317 207"/>
<path stroke-width="0.5" stroke="black" d="M 203 159 303 111"/>
<path stroke-width="0.5" stroke="black" d="M 171 234 154 89"/>
<path stroke-width="0.5" stroke="black" d="M 171 234 249 239"/>
<path stroke-width="20.0" stroke="black" d="M 131 294 171 234"/>
<path stroke-width="0.5" stroke="black" d="M 154 89 317 207"/>
<path stroke-width="0.5" stroke="black" d="M 154 89 303 111"/>
<path stroke-width="0.5" stroke="black" d="M 154 89 338 156"/>
<path stroke-width="0.5" stroke="black" d="M 154 89 101 137"/>
<path stroke-width="0.5" stroke="black" d="M 154 89 115 210"/>
<path stroke-width="0.5" stroke="black" d="M 154 89 203 159"/>
<path stroke-width="0.5" stroke="black" d="M 154 89 234 82"/>
<path stroke-width="0.5" stroke="black" d="M 154 89 171 234"/>
<path stroke-width="20.0" stroke="black" d="M 171 234 131 294"/>
<path stroke-width="20.0" stroke="black" d="M 154 89 106 51"/>
<path stroke-width="20.0" stroke="black" d="M 106 51 154 89"/>
<path stroke-width="0.5" stroke="black" d="M 249 239 317 207"/>
<path stroke-width="0.5" stroke="black" d="M 249 239 303 111"/>
<path stroke-width="0.5" stroke="black" d="M 249 239 338 156"/>
<path stroke-width="0.5" stroke="black" d="M 249 239 101 137"/>
<path stroke-width="0.5" stroke="black" d="M 249 239 115 210"/>
<path stroke-width="0.5" stroke="black" d="M 249 239 203 159"/>
<path stroke-width="0.5" stroke="black" d="M 249 239 234 82"/>
<path stroke-width="0.5" stroke="black" d="M 249 239 171 234"/>
<path stroke-width="0.5" stroke="black" d="M 249 239 154 89"/>
<path stroke-width="11.333333333333334" stroke="black" d="M 249 239 276 320"/>
<path stroke-width="0.5" stroke="black" d="M 154 89 249 239"/>
<path stroke-width="0.5" stroke="black" d="M 317 207 303 111"/>
<path stroke-width="0.5" stroke="black" d="M 171 234 234 82"/>
<path stroke-width="0.5" stroke="black" d="M 171 234 115 210"/>
<path stroke-width="0.5" stroke="black" d="M 203 159 338 156"/>
<path stroke-width="0.5" stroke="black" d="M 203 159 101 137"/>
<path stroke-width="0.5" stroke="black" d="M 203 159 115 210"/>
<path stroke-width="20.0" stroke="black" d="M 203 159 243 186"/>
<path stroke-width="0.5" stroke="black" d="M 203 159 234 82"/>
<path stroke-width="0.5" stroke="black" d="M 203 159 171 234"/>
<path stroke-width="0.5" stroke="black" d="M 203 159 154 89"/>
<path stroke-width="0.5" stroke="black" d="M 203 159 249 239"/>
<path stroke-width="20.0" stroke="black" d="M 243 186 203 159"/>
<path stroke-width="0.5" stroke="black" d="M 234 82 317 207"/>
<path stroke-width="0.5" stroke="black" d="M 234 82 303 111"/>
<path stroke-width="0.5" stroke="black" d="M 171 234 203 159"/>
<path stroke-width="0.5" stroke="black" d="M 234 82 338 156"/>
<path stroke-width="0.5" stroke="black" d="M 234 82 115 210"/>
<path stroke-width="0.5" stroke="black" d="M 234 82 203 159"/>
<path stroke-width="20.0" stroke="black" d="M 234 82 249 20"/>
<path stroke-width="0.5" stroke="black" d="M 234 82 171 234"/>
<path stroke-width="0.5" stroke="black" d="M 234 82 154 89"/>
<path stroke-width="0.5" stroke="black" d="M 234 82 249 239"/>
<path stroke-width="20.0" stroke="black" d="M 249 20 234 82"/>
<path stroke-width="0.5" stroke="black" d="M 171 234 317 207"/>
<path stroke-width="0.5" stroke="black" d="M 171 234 303 111"/>
<path stroke-width="0.5" stroke="black" d="M 171 234 338 156"/>
<path stroke-width="0.5" stroke="black" d="M 171 234 101 137"/>
<path stroke-width="0.5" stroke="black" d="M 234 82 101 137"/>
<path stroke-width="11.333333333333334" stroke="black" d="M 317 207 419 248"/>
<circle cx="276" cy="320" r="7.0" style="fill:gray;stroke:black;stroke-width:1.0"/>
<circle cx="249" cy="239" r="7.0" style="fill:gray;stroke:black;stroke-width:1.0"/>
<circle cx="106" cy="51" r="7.0" style="fill:gray;stroke:black;stroke-width:1.0"/>
<circle cx="154" cy="89" r="7.0" style="fill:gray;stroke:black;stroke-width:1.0"/>
<circle cx="131" cy="294" r="7.0" style="fill:gray;stroke:black;stroke-width:1.0"/>
<circle cx="171" cy="234" r="7.0" style="fill:gray;stroke:black;stroke-width:1.0"/>
<circle cx="249" cy="20" r="7.0" style="fill:gray;stroke:black;stroke-width:1.0"/>
<circle cx="234" cy="82" r="7.0" style="fill:gray;stroke:black;stroke-width:1.0"/>
<circle cx="243" cy="186" r="7.0" style="fill:gray;stroke:black;stroke-width:1.0"/>
<circle cx="203" cy="159" r="7.0" style="fill:gray;stroke:black;stroke-width:1.0"/>
<circle cx="40" cy="220" r="7.0" style="fill:gray;stroke:black;stroke-width:1.0"/>
<circle cx="115" cy="210" r="7.0" style="fill:gray;stroke:black;stroke-width:1.0"/>
<circle cx="20" cy="134" r="7.0" style="fill:gray;stroke:black;stroke-width:1.0"/>
<circle cx="101" cy="137" r="7.0" style="fill:gray;stroke:black;stroke-width:1.0"/>
<circle cx="420" cy="151" r="7.0" style="fill:gray;stroke:black;stroke-width:1.0"/>
<circle cx="338" cy="156" r="7.0" style="fill:gray;stroke:black;stroke-width:1.0"/>
<circle cx="368" cy="67" r="7.0" style="fill:gray;stroke:black;stroke-width:1.0"/>
<circle cx="303" cy="111" r="7.0" style="fill:gray;stroke:black;stroke-width:1.0"/>
<circle cx="419" cy="248" r="7.0" style="fill:gray;stroke:black;stroke-width:1.0"/>
<circle cx="317" cy="207" r="7.0" style="fill:gray;stroke:black;stroke-width:1.0"/>
</svg>
