<svg width="440" height="340" xmlns="http://www.w3.org/2000/svg">
<path stroke-width="11.333333333333334" stroke="black" d="M 35 279 129 220"/>
<path stroke-width="0.5" stroke="black" d="M 225 179 213 102"/>
<path stroke-width="0.5" stroke="black" d="M 225 179 129 220"/>
<path stroke-width="20.0" stroke="black" d="M 276 185 225 179"/>
<path stroke-width="0.5" stroke="black" d="M 188 250 280 107"/>
<path stroke-width="0.5" stroke="black" d="M 188 250 255 251"/>
<path stroke-width="0.5" stroke="black" d="M 188 250 225 179"/>
<path stroke-width="20.0" stroke="black" d="M 188 250 162 319"/>
<path stroke-width="0.5" stroke="black" d="M 188 250 147 118"/>
<path stroke-width="0.5" stroke="black" d="M 188 250 112 166"/>
<path stroke-width="0.5" stroke="black" d="M 188 250 344 218"/>
<path stroke-width="0.5" stroke="black" d="M 188 250 353 154"/>
<path stroke-width="0.5" stroke="black" d="M 188 250 213 102"/>
<path stroke-width="0.5" stroke="black" d="M 188 250 129 220"/>
<path stroke-width="20.0" stroke="black" d="M 162 319 188 250"/>
<path stroke-width="0.5" stroke="black" d="M 147 118 280 107"/>
<path stroke-width="0.5" stroke="black" d="M 147 118 255 251"/>
<path stroke-width="0.5" stroke="black" d="M 147 118 225 179"/>
<path stroke-width="0.5" stroke="black" d="M 147 118 188 250"/>
<path stroke-width="20.0" stroke="black" d="M 147 118 101 55"/>
<path stroke-width="0.5" stroke="black" d="M 147 118 112 166"/>
<path stroke-width="0.5" stroke="black" d="M 147 118 344 218"/>
<path stroke-width="0.5" stroke="black" d="M 147 118 353 154"/>
<path stroke-width="0.5" stroke="black" d="M 147 118 213 102"/>
<path stroke-width="0.5" stroke="black" d="M 225 179 353 154"/>
<path stroke-width="0.5" stroke="black" d="M 225 179 344 218"/>
<path stroke-width="0.5" stroke="black" d="M 225 179 112 166"/>
<path stroke-width="0.5" stroke="black" d="M 225 179 147 118"/>
<path stroke-width="0.5" stroke="black" d="M 280 107 225 179"/>
<path stroke-width="0.5" stroke="black" d="M 280 107 188 250"/>
<path stroke-width="0.5" stroke="black" d="M 280 107 147 118"/>
<path stroke-width="0.5" stroke="black" d="M 280 107 112 166"/>
<path stroke-width="0.5" stroke="black" d="M 280 107 344 218"/>
<path stroke-width="0.5" stroke="black" d="M 280 107 353 154"/>
<path stroke-width="0.5" stroke="black" d="M 280 107 213 102"/>
<path stroke-width="0.5" stroke="black" d="M 280 107 129 220"/>
<path stroke-width="11.333333333333334" stroke="black" d="M 337 20 280 107"/>
<path stroke-width="0.5" stroke="black" d="M 255 251 280 107"/>
<path stroke-width="20.0" stroke="black" d="M 255 251 295 320"/>
<path stroke-width="0.5" stroke="black" d="M 147 118 129 220"/>
<path stroke-width="0.5" stroke="black" d="M 255 251 225 179"/>
<path stroke-width="0.5" stroke="black" d="M 255 251 147 118"/>
<path stroke-width="0.5" stroke="black" d="M 255 251 112 166"/>
<path stroke-width="0.5" stroke="black" d="M 255 251 344 218"/>
<path stroke-width="0.5" stroke="black" d="M 255 251 353 154"/>
<path stroke-width="0.5" stroke="black" d="M 255 251 213 102"/>
<path stroke-width="0.5" stroke="black" d="M 255 251 129 220"/>
<path stroke-width="20.0" stroke="black" d="M 295 320 255 251"/>
<path stroke-width="0.5" stroke="black" d="M 225 179 280 107"/>
<path stroke-width="0.5" stroke="black" d="M 225 179 255 251"/>
<path stroke-width="20.0" stroke="black" d="M 225 179 276 185"/>
<path stroke-width="0.5" stroke="black" d="M 225 179 188 250"/>
<path stroke-width="0.5" stroke="black" d="M 255 251 188 250"/>
<path stroke-width="20.0" stroke="black" d="M 101 55 147 118"/>
<path stroke-width="0.5" stroke="black" d="M 112 166 280 107"/>
<path stroke-width="0.5" stroke="black" d="M 112 166 255 251"/>
<path stroke-width="0.5" stroke="black" d="M 353 154 213 102"/>
<path stroke-width="0.5" stroke="black" d="M 353 154 129 220"/>
<path stroke-width="20.0" stroke="black" d="M 420 135 353 154"/>
<path stroke-width="0.5" stroke="black" d="M 213 102 280 107"/>
<path stroke-width="0.5" stroke="black" d="M 213 102 255 251"/>
<path stroke-width="0.5" stroke="black" d="M 213 102 225 179"/>
<path stroke-width="0.5" stroke="black" d="M 213 102 188 250"/>
<path stroke-width="0.5" stroke="black" d="M 213 102 147 118"/>
<path stroke-width="0.5" stroke="black" d="M 213 102 112 166"/>
<path stroke-width="0.5" stroke="black" d="M 213 102 344 218"/>
<path stroke-width="0.5" stroke="black" d="M 213 102 353 154"/>
<path stroke-width="20.0" stroke="black" d="M 353 154 420 135"/>
<path stroke-width="20.0" stroke="black" d="M 213 102 208 31"/>
<path stroke-width="20.0" stroke="black" d="M 208 31 213 102"/>
<path stroke-width="0.5" stroke="black" d="M 129 220 280 107"/>
<path stroke-width="0.5" stroke="black" d="M 129 220 255 251"/>
<path stroke-width="0.5" stroke="black" d="M 129 220 225 179"/>
<path stroke-width="0.5" stroke="black" d="M 129 220 188 250"/>
<path stroke-width="0.5" stroke="black" d="M 129 220 147 118"/>
<path stroke-width="0.5" stroke="black" d="M 129 220 112 166"/>
<path stroke-width="0.5" stroke="black" d="M 129 220 344 218"/>
<path stroke-width="0.5" stroke="black" d="M 129 220 353 154"/>
<path stroke-width="0.5" stroke="black" d="M 129 220 213 102"/>
<path stroke-width="11.333333333333334" stroke="black" d="M 129 220 35 279"/>
<path stroke-width="0.5" stroke="black" d="M 213 102 129 220"/>
<path stroke-width="0.5" stroke="black" d="M 280 107 255 251"/>
<path stroke-width="0.5" stroke="black" d="M 353 154 344 218"/>
<path stroke-width="0.5" stroke="black" d="M 353 154 147 118"/>
<path stroke-width="0.5" stroke="black" d="M 112 166 225 179"/>
<path stroke-width="0.5" stroke="black" d="M 112 166 188 250"/>
<path stroke-width="0.5" stroke="black" d="M 112 166 147 118"/>
<path stroke-width="20.0" stroke="black" d="M 112 166 20 139"/>
<path stroke-width="0.5" stroke="black" d="M 112 166 344 218"/>
<path stroke-width="0.5" stroke="black" d="M 112 166 353 154"/>
<path stroke-width="0.5" stroke="black" d="M 112 166 213 102"/>
<path stroke-width="0.5" stroke="black" d="M 112 166 129 220"/>
<path stroke-width="20.0" stroke="black" d="M 20 139 112 166"/>
<path stroke-width="0.5" stroke="black" d="M 344 218 280 107"/>
<path stroke-width="0.5" stroke="black" d="M 344 218 255 251"/>
<path stroke-width="0.5" stroke="black" d="M 353 154 112 166"/>
<path stroke-width="0.5" stroke="black" d="M 344 218 225 179"/>
<path stroke-width="0.5" stroke="black" d="M 344 218 147 118"/>
<path stroke-width="0.5" stroke="black" d="M 344 218 112 166"/>
<path stroke-width="20.0" stroke="black" d="M 344 218 396 259"/>
<path stroke-width="0.5" stroke="black" d="M 344 218 353 154"/>
<path stroke-width="0.5" stroke="black" d="M 344 218 213 102"/>
<path stroke-width="0.5" stroke="black" d="M 344 218 129 220"/>
<path stroke-width="20.0" stroke="black" d="M 396 259 344 218"/>
<path stroke-width="0.5" stroke="black" d="M 353 154 280 107"/>
<path stroke-width="0.5" stroke="black" d="M 353 154 255 251"/>
<path stroke-width="0.5" stroke="black" d="M 353 154 225 179"/>
<path stroke-width="0.5" stroke="black" d="M 353 154 188 250"/>
<path stroke-width="0.5" stroke="black" d="M 344 218 188 250"/>
<path stroke-width="11.333333333333334" stroke="black" d="M 280 107 337 20"/>
<circle cx="35" cy="279" r="20.0" style="fill:blue;stroke:black;stroke-width:1.0"/>
<circle cx="129" cy="220" r="20.0" style="fill:blue;stroke:black;stroke-width:1.0"/>
<circle cx="208" cy="31" r="20.0" style="fill:red;stroke:black;stroke-width:1.0"/>
<circle cx="213" cy="102" r="20.0" style="fill:red;stroke:black;stroke-width:1.0"/>
<circle cx="420" cy="135" r="20.0" style="fill:green;stroke:black;stroke-width:1.0"/>
<circle cx="353" cy="154" r="20.0" style="fill:green;stroke:black;stroke-width:1.0"/>
<circle cx="396" cy="259" r="20.0" style="fill:orange;stroke:black;stroke-width:1.0"/>
<circle cx="344" cy="218" r="20.0" style="fill:orange;stroke:black;stroke-width:1.0"/>
<circle cx="20" cy="139" r="20.0" style="fill:purple;stroke:black;stroke-width:1.0"/>
<circle cx="112" cy="166" r="20.0" style="fill:purple;stroke:black;stroke-width:1.0"/>
<circle cx="101" cy="55" r="20.0" style="fill:yellow;stroke:black;stroke-width:1.0"/>
<circle cx="147" cy="118" r="20.0" style="fill:yellow;stroke:black;stroke-width:1.0"/>
<circle cx="162" cy="319" r="20.0" style="fill:fuchsia;stroke:black;stroke-width:1.0"/>
<circle cx="188" cy="250" r="20.0" style="fill:fuchsia;stroke:black;stroke-width:1.0"/>
<circle cx="276" cy="185" r="20.0" style="fill:olive;stroke:black;stroke-width:1.0"/>
<circle cx="225" cy="179" r="20.0" style="fill:olive;stroke:black;stroke-width:1.0"/>
<circle cx="295" cy="320" r="20.0" style="fill:aqua;stroke:black;stroke-width:1.0"/>
<circle cx="255" cy="251" r="20.0" style="fill:aqua;stroke:black;stroke-width:1.0"/>
<circle cx="337" cy="20" r="20.0" style="fill:brown;stroke:black;stroke-width:1.0"/>
<circle cx="280" cy="107" r="20.0" style="fill:brown;stroke:black;stroke-width:1.0"/>
</svg>
