<svg width="440" height="340" xmlns="http://www.w3.org/2000/svg">
<path stroke-width="1" stroke="black" d="M 232 147 245 140"/>
<path stroke-width="1" stroke="black" d="M 240 63 128 239"/>
<path stroke-width="1" stroke="black" d="M 240 63 337 96"/>
<path stroke-width="1" stroke="black" d="M 240 63 154 176"/>
<path stroke-width="1" stroke="black" d="M 240 63 255 20"/>
<path stroke-width="1" stroke="black" d="M 240 63 232 226"/>
<path stroke-width="1" stroke="black" d="M 240 63 296 167"/>
<path stroke-width="1" stroke="black" d="M 240 63 297 216"/>
<path stroke-width="1" stroke="black" d="M 240 63 164 93"/>
<path stroke-width="1" stroke="black" d="M 240 63 139 146"/>
<path stroke-width="1" stroke="black" d="M 240 63 245 140"/>
<path stroke-width="1" stroke="black" d="M 75 196 154 176"/>
<path stroke-width="1" stroke="black" d="M 255 20 240 63"/>
<path stroke-width="1" stroke="black" d="M 232 226 337 96"/>
<path stroke-width="1" stroke="black" d="M 232 226 154 176"/>
<path stroke-width="1" stroke="black" d="M 232 226 240 63"/>
<path stroke-width="1" stroke="black" d="M 232 226 245 295"/>
<path stroke-width="1" stroke="black" d="M 232 226 296 167"/>
<path stroke-width="1" stroke="black" d="M 232 226 297 216"/>
<path stroke-width="1" stroke="black" d="M 232 226 164 93"/>
<path stroke-width="1" stroke="black" d="M 232 226 139 146"/>
<path stroke-width="1" stroke="black" d="M 232 226 245 140"/>
<path stroke-width="1" stroke="black" d="M 245 295 232 226"/>
<path stroke-width="1" stroke="black" d="M 232 226 128 239"/>
<path stroke-width="1" stroke="black" d="M 154 176 245 140"/>
<path stroke-width="1" stroke="black" d="M 154 176 139 146"/>
<path stroke-width="1" stroke="black" d="M 154 176 164 93"/>
<path stroke-width="1" stroke="black" d="M 128 239 232 226"/>
<path stroke-width="1" stroke="black" d="M 128 239 296 167"/>
<path stroke-width="1" stroke="black" d="M 128 239 297 216"/>
<path stroke-width="1" stroke="black" d="M 128 239 164 93"/>
<path stroke-width="1" stroke="black" d="M 128 239 139 146"/>
<path stroke-width="1" stroke="black" d="M 128 239 245 140"/>
<path stroke-width="1" stroke="black" d="M 20 320 128 239"/>
<path stroke-width="1" stroke="black" d="M 337 96 420 78"/>
<path stroke-width="1" stroke="black" d="M 337 96 154 176"/>
<path stroke-width="1" stroke="black" d="M 337 96 240 63"/>
<path stroke-width="1" stroke="black" d="M 337 96 232 226"/>
<path stroke-width="1" stroke="black" d="M 337 96 296 167"/>
<path stroke-width="1" stroke="black" d="M 337 96 297 216"/>
<path stroke-width="1" stroke="black" d="M 337 96 164 93"/>
<path stroke-width="1" stroke="black" d="M 337 96 139 146"/>
<path stroke-width="1" stroke="black" d="M 337 96 245 140"/>
<path stroke-width="1" stroke="black" d="M 420 78 337 96"/>
<path stroke-width="1" stroke="black" d="M 154 176 337 96"/>
<path stroke-width="1" stroke="black" d="M 154 176 75 196"/>
<path stroke-width="1" stroke="black" d="M 154 176 240 63"/>
<path stroke-width="1" stroke="black" d="M 154 176 232 226"/>
<path stroke-width="1" stroke="black" d="M 154 176 296 167"/>
<path stroke-width="1" stroke="black" d="M 154 176 297 216"/>
<path stroke-width="1" stroke="black" d="M 296 167 128 239"/>
<path stroke-width="1" stroke="black" d="M 296 167 337 96"/>
<path stroke-width="1" stroke="black" d="M 296 167 154 176"/>
<path stroke-width="1" stroke="black" d="M 296 167 240 63"/>
<path stroke-width="1" stroke="black" d="M 164 93 245 140"/>
<path stroke-width="1" stroke="black" d="M 126 48 164 93"/>
<path stroke-width="1" stroke="black" d="M 139 146 128 239"/>
<path stroke-width="1" stroke="black" d="M 139 146 337 96"/>
<path stroke-width="1" stroke="black" d="M 139 146 154 176"/>
<path stroke-width="1" stroke="black" d="M 139 146 240 63"/>
<path stroke-width="1" stroke="black" d="M 139 146 232 226"/>
<path stroke-width="1" stroke="black" d="M 139 146 296 167"/>
<path stroke-width="1" stroke="black" d="M 139 146 297 216"/>
<path stroke-width="1" stroke="black" d="M 139 146 164 93"/>
<path stroke-width="1" stroke="black" d="M 139 146 61 116"/>
<path stroke-width="1" stroke="black" d="M 139 146 245 140"/>
<path stroke-width="1" stroke="black" d="M 61 116 139 146"/>
<path stroke-width="1" stroke="black" d="M 245 140 128 239"/>
<path stroke-width="1" stroke="black" d="M 245 140 337 96"/>
<path stroke-width="1" stroke="black" d="M 245 140 154 176"/>
<path stroke-width="1" stroke="black" d="M 245 140 240 63"/>
<path stroke-width="1" stroke="black" d="M 245 140 232 226"/>
<path stroke-width="1" stroke="black" d="M 245 140 296 167"/>
<path stroke-width="1" stroke="black" d="M 245 140 297 216"/>
<path stroke-width="1" stroke="black" d="M 245 140 164 93"/>
<path stroke-width="1" stroke="black" d="M 245 140 139 146"/>
<path stroke-width="1" stroke="black" d="M 245 140 232 147"/>
<path stroke-width="1" stroke="black" d="M 164 93 139 146"/>
<path stroke-width="1" stroke="black" d="M 128 239 240 63"/>
<path stroke-width="1" stroke="black" d="M 164 93 126 48"/>
<path stroke-width="1" stroke="black" d="M 164 93 296 167"/>
<path stroke-width="1" stroke="black" d="M 296 167 232 226"/>
<path stroke-width="1" stroke="black" d="M 296 167 358 167"/>
<path stroke-width="1" stroke="black" d="M 296 167 297 216"/>
<path stroke-width="1" stroke="black" d="M 296 167 164 93"/>
<path stroke-width="1" stroke="black" d="M 296 167 139 146"/>
<path stroke-width="1" stroke="black" d="M 296 167 245 140"/>
<path stroke-width="1" stroke="black" d="M 358 167 296 167"/>
<path stroke-width="1" stroke="black" d="M 297 216 128 239"/>
<path stroke-width="1" stroke="black" d="M 297 216 337 96"/>
<path stroke-width="1" stroke="black" d="M 297 216 154 176"/>
<path stroke-width="1" stroke="black" d="M 297 216 240 63"/>
<path stroke-width="1" stroke="black" d="M 297 216 232 226"/>
<path stroke-width="1" stroke="black" d="M 297 216 296 167"/>
<path stroke-width="1" stroke="black" d="M 297 216 348 245"/>
<path stroke-width="1" stroke="black" d="M 297 216 164 93"/>
<path stroke-width="1" stroke="black" d="M 297 216 139 146"/>
<path stroke-width="1" stroke="black" d="M 297 216 245 140"/>
<path stroke-width="1" stroke="black" d="M 348 245 297 216"/>
<path stroke-width="1" stroke="black" d="M 164 93 128 239"/>
<path stroke-width="1" stroke="black" d="M 164 93 337 96"/>
<path stroke-width="1" stroke="black" d="M 164 93 154 176"/>
<path stroke-width="1" stroke="black" d="M 164 93 240 63"/>
<path stroke-width="1" stroke="black" d="M 164 93 232 226"/>
<path stroke-width="1" stroke="black" d="M 164 93 297 216"/>
<path stroke-width="1" stroke="black" d="M 128 239 20 320"/>
<circle cx="232" cy="147" r="20.0" style="fill:blue;stroke:black;stroke-width:1.0"/>
<circle cx="245" cy="140" r="20.0" style="fill:blue;stroke:black;stroke-width:1.0"/>
<circle cx="61" cy="116" r="20.0" style="fill:red;stroke:black;stroke-width:1.0"/>
<circle cx="139" cy="146" r="20.0" style="fill:red;stroke:black;stroke-width:1.0"/>
<circle cx="126" cy="48" r="20.0" style="fill:green;stroke:black;stroke-width:1.0"/>
<circle cx="164" cy="93" r="20.0" style="fill:green;stroke:black;stroke-width:1.0"/>
<circle cx="348" cy="245" r="20.0" style="fill:orange;stroke:black;stroke-width:1.0"/>
<circle cx="297" cy="216" r="20.0" style="fill:orange;stroke:black;stroke-width:1.0"/>
<circle cx="358" cy="167" r="20.0" style="fill:purple;stroke:black;stroke-width:1.0"/>
<circle cx="296" cy="167" r="20.0" style="fill:purple;stroke:black;stroke-width:1.0"/>
<circle cx="245" cy="295" r="20.0" style="fill:yellow;stroke:black;stroke-width:1.0"/>
<circle cx="232" cy="226" r="20.0" style="fill:yellow;stroke:black;stroke-width:1.0"/>
<circle cx="255" cy="20" r="20.0" style="fill:fuchsia;stroke:black;stroke-width:1.0"/>
<circle cx="240" cy="63" r="20.0" style="fill:fuchsia;stroke:black;stroke-width:1.0"/>
<circle cx="75" cy="196" r="20.0" style="fill:olive;stroke:black;stroke-width:1.0"/>
<circle cx="154" cy="176" r="20.0" style="fill:olive;stroke:black;stroke-width:1.0"/>
<circle cx="420" cy="78" r="20.0" style="fill:aqua;stroke:black;stroke-width:1.0"/>
<circle cx="337" cy="96" r="20.0" style="fill:aqua;stroke:black;stroke-width:1.0"/>
<circle cx="20" cy="320" r="20.0" style="fill:brown;stroke:black;stroke-width:1.0"/>
<circle cx="128" cy="239" r="20.0" style="fill:brown;stroke:black;stroke-width:1.0"/>
</svg>
