<svg width="440" height="340" xmlns="http://www.w3.org/2000/svg">
<path stroke-width="20.0" stroke="black" d="M 255 112 237 121"/>
<path stroke-width="0.5" stroke="black" d="M 298 203 101 241"/>
<path stroke-width="0.7468354430379747" stroke="black" d="M 298 203 321 117"/>
<path stroke-width="0.7468354430379747" stroke="black" d="M 298 203 203 75"/>
<path stroke-width="10.126582278481013" stroke="black" d="M 298 203 355 221"/>
<path stroke-width="0.7468354430379747" stroke="black" d="M 298 203 170 198"/>
<path stroke-width="0.7468354430379747" stroke="black" d="M 298 203 78 127"/>
<path stroke-width="0.7468354430379747" stroke="black" d="M 298 203 147 106"/>
<path stroke-width="1.4873417721518987" stroke="black" d="M 298 203 238 172"/>
<path stroke-width="0.7468354430379747" stroke="black" d="M 298 203 100 168"/>
<path stroke-width="0.7468354430379747" stroke="black" d="M 298 203 237 121"/>
<path stroke-width="6.177215189873418" stroke="black" d="M 205 20 203 75"/>
<path stroke-width="10.126582278481013" stroke="black" d="M 355 221 298 203"/>
<path stroke-width="0.7468354430379747" stroke="black" d="M 170 198 321 117"/>
<path stroke-width="0.7468354430379747" stroke="black" d="M 170 198 203 75"/>
<path stroke-width="0.7468354430379747" stroke="black" d="M 170 198 298 203"/>
<path stroke-width="12.10126582278481" stroke="black" d="M 170 198 160 224"/>
<path stroke-width="0.7468354430379747" stroke="black" d="M 170 198 78 127"/>
<path stroke-width="1.4873417721518987" stroke="black" d="M 170 198 147 106"/>
<path stroke-width="0.7468354430379747" stroke="black" d="M 170 198 238 172"/>
<path stroke-width="0.7468354430379747" stroke="black" d="M 170 198 100 168"/>
<path stroke-width="0.7468354430379747" stroke="black" d="M 170 198 237 121"/>
<path stroke-width="12.10126582278481" stroke="black" d="M 160 224 170 198"/>
<path stroke-width="0.7468354430379747" stroke="black" d="M 170 198 101 241"/>
<path stroke-width="0.7468354430379747" stroke="black" d="M 203 75 237 121"/>
<path stroke-width="1.4873417721518987" stroke="black" d="M 203 75 100 168"/>
<path stroke-width="0.7468354430379747" stroke="black" d="M 203 75 238 172"/>
<path stroke-width="0.7468354430379747" stroke="black" d="M 101 241 170 198"/>
<path stroke-width="0.7468354430379747" stroke="black" d="M 101 241 78 127"/>
<path stroke-width="0.7468354430379747" stroke="black" d="M 101 241 147 106"/>
<path stroke-width="0.7468354430379747" stroke="black" d="M 101 241 238 172"/>
<path stroke-width="0.7468354430379747" stroke="black" d="M 101 241 100 168"/>
<path stroke-width="0.7468354430379747" stroke="black" d="M 101 241 237 121"/>
<path stroke-width="2.227848101265823" stroke="black" d="M 39 320 101 241"/>
<path stroke-width="5.189873417721519" stroke="black" d="M 321 117 420 99"/>
<path stroke-width="0.7468354430379747" stroke="black" d="M 321 117 203 75"/>
<path stroke-width="0.7468354430379747" stroke="black" d="M 321 117 298 203"/>
<path stroke-width="0.7468354430379747" stroke="black" d="M 321 117 170 198"/>
<path stroke-width="0.7468354430379747" stroke="black" d="M 321 117 78 127"/>
<path stroke-width="0.7468354430379747" stroke="black" d="M 321 117 147 106"/>
<path stroke-width="0.7468354430379747" stroke="black" d="M 321 117 238 172"/>
<path stroke-width="0.7468354430379747" stroke="black" d="M 321 117 100 168"/>
<path stroke-width="1.4873417721518987" stroke="black" d="M 321 117 237 121"/>
<path stroke-width="5.189873417721519" stroke="black" d="M 420 99 321 117"/>
<path stroke-width="0.7468354430379747" stroke="black" d="M 203 75 321 117"/>
<path stroke-width="6.177215189873418" stroke="black" d="M 203 75 205 20"/>
<path stroke-width="0.7468354430379747" stroke="black" d="M 203 75 298 203"/>
<path stroke-width="0.7468354430379747" stroke="black" d="M 203 75 170 198"/>
<path stroke-width="0.7468354430379747" stroke="black" d="M 203 75 78 127"/>
<path stroke-width="0.7468354430379747" stroke="black" d="M 203 75 147 106"/>
<path stroke-width="0.7468354430379747" stroke="black" d="M 78 127 101 241"/>
<path stroke-width="0.7468354430379747" stroke="black" d="M 78 127 321 117"/>
<path stroke-width="0.7468354430379747" stroke="black" d="M 78 127 203 75"/>
<path stroke-width="0.7468354430379747" stroke="black" d="M 78 127 298 203"/>
<path stroke-width="0.7468354430379747" stroke="black" d="M 238 172 237 121"/>
<path stroke-width="17.037974683544302" stroke="black" d="M 304 185 238 172"/>
<path stroke-width="0.7468354430379747" stroke="black" d="M 100 168 101 241"/>
<path stroke-width="0.7468354430379747" stroke="black" d="M 100 168 321 117"/>
<path stroke-width="1.4873417721518987" stroke="black" d="M 100 168 203 75"/>
<path stroke-width="0.7468354430379747" stroke="black" d="M 100 168 298 203"/>
<path stroke-width="0.7468354430379747" stroke="black" d="M 100 168 170 198"/>
<path stroke-width="0.7468354430379747" stroke="black" d="M 100 168 78 127"/>
<path stroke-width="0.7468354430379747" stroke="black" d="M 100 168 147 106"/>
<path stroke-width="0.7468354430379747" stroke="black" d="M 100 168 238 172"/>
<path stroke-width="19.0126582278481" stroke="black" d="M 100 168 74 167"/>
<path stroke-width="0.7468354430379747" stroke="black" d="M 100 168 237 121"/>
<path stroke-width="19.0126582278481" stroke="black" d="M 74 167 100 168"/>
<path stroke-width="0.7468354430379747" stroke="black" d="M 237 121 101 241"/>
<path stroke-width="1.4873417721518987" stroke="black" d="M 237 121 321 117"/>
<path stroke-width="0.7468354430379747" stroke="black" d="M 237 121 203 75"/>
<path stroke-width="0.7468354430379747" stroke="black" d="M 237 121 298 203"/>
<path stroke-width="0.7468354430379747" stroke="black" d="M 237 121 170 198"/>
<path stroke-width="0.7468354430379747" stroke="black" d="M 237 121 78 127"/>
<path stroke-width="0.7468354430379747" stroke="black" d="M 237 121 147 106"/>
<path stroke-width="0.7468354430379747" stroke="black" d="M 237 121 238 172"/>
<path stroke-width="0.7468354430379747" stroke="black" d="M 237 121 100 168"/>
<path stroke-width="20.0" stroke="black" d="M 237 121 255 112"/>
<path stroke-width="0.7468354430379747" stroke="black" d="M 238 172 100 168"/>
<path stroke-width="0.5" stroke="black" d="M 101 241 298 203"/>
<path stroke-width="17.037974683544302" stroke="black" d="M 238 172 304 185"/>
<path stroke-width="0.7468354430379747" stroke="black" d="M 238 172 78 127"/>
<path stroke-width="0.7468354430379747" stroke="black" d="M 78 127 170 198"/>
<path stroke-width="11.113924050632912" stroke="black" d="M 78 127 20 117"/>
<path stroke-width="0.7468354430379747" stroke="black" d="M 78 127 147 106"/>
<path stroke-width="0.7468354430379747" stroke="black" d="M 78 127 238 172"/>
<path stroke-width="0.7468354430379747" stroke="black" d="M 78 127 100 168"/>
<path stroke-width="0.7468354430379747" stroke="black" d="M 78 127 237 121"/>
<path stroke-width="11.113924050632912" stroke="black" d="M 20 117 78 127"/>
<path stroke-width="0.7468354430379747" stroke="black" d="M 147 106 101 241"/>
<path stroke-width="0.7468354430379747" stroke="black" d="M 147 106 321 117"/>
<path stroke-width="0.7468354430379747" stroke="black" d="M 147 106 203 75"/>
<path stroke-width="0.7468354430379747" stroke="black" d="M 147 106 298 203"/>
<path stroke-width="1.4873417721518987" stroke="black" d="M 147 106 170 198"/>
<path stroke-width="0.7468354430379747" stroke="black" d="M 147 106 78 127"/>
<path stroke-width="15.063291139240507" stroke="black" d="M 147 106 119 81"/>
<path stroke-width="0.7468354430379747" stroke="black" d="M 147 106 238 172"/>
<path stroke-width="0.7468354430379747" stroke="black" d="M 147 106 100 168"/>
<path stroke-width="0.7468354430379747" stroke="black" d="M 147 106 237 121"/>
<path stroke-width="15.063291139240507" stroke="black" d="M 119 81 147 106"/>
<path stroke-width="0.7468354430379747" stroke="black" d="M 238 172 101 241"/>
<path stroke-width="0.7468354430379747" stroke="black" d="M 238 172 321 117"/>
<path stroke-width="0.7468354430379747" stroke="black" d="M 238 172 203 75"/>
<path stroke-width="1.4873417721518987" stroke="black" d="M 238 172 298 203"/>
<path stroke-width="0.7468354430379747" stroke="black" d="M 238 172 170 198"/>
<path stroke-width="0.7468354430379747" stroke="black" d="M 238 172 147 106"/>
<path stroke-width="2.227848101265823" stroke="black" d="M 101 241 39 320"/>
<circle cx="255" cy="112" r="7.0" style="fill:gray;stroke:black;stroke-width:1.0"/>
<circle cx="237" cy="121" r="7.0" style="fill:gray;stroke:black;stroke-width:1.0"/>
<circle cx="74" cy="167" r="7.0" style="fill:gray;stroke:black;stroke-width:1.0"/>
<circle cx="100" cy="168" r="7.0" style="fill:gray;stroke:black;stroke-width:1.0"/>
<circle cx="304" cy="185" r="7.0" style="fill:gray;stroke:black;stroke-width:1.0"/>
<circle cx="238" cy="172" r="7.0" style="fill:gray;stroke:black;stroke-width:1.0"/>
<circle cx="119" cy="81" r="7.0" style="fill:gray;stroke:black;stroke-width:1.0"/>
<circle cx="147" cy="106" r="7.0" style="fill:gray;stroke:black;stroke-width:1.0"/>
<circle cx="20" cy="117" r="7.0" style="fill:gray;stroke:black;stroke-width:1.0"/>
<circle cx="78" cy="127" r="7.0" style="fill:gray;stroke:black;stroke-width:1.0"/>
<circle cx="160" cy="224" r="7.0" style="fill:gray;stroke:black;stroke-width:1.0"/>
<circle cx="170" cy="198" r="7.0" style="fill:gray;stroke:black;stroke-width:1.0"/>
<circle cx="355" cy="221" r="7.0" style="fill:gray;stroke:black;stroke-width:1.0"/>
<circle cx="298" cy="203" r="7.0" style="fill:gray;stroke:black;stroke-width:1.0"/>
<circle cx="205" cy="20" r="7.0" style="fill:gray;stroke:black;stroke-width:1.0"/>
<circle cx="203" cy="75" r="7.0" style="fill:gray;stroke:black;stroke-width:1.0"/>
<circle cx="420" cy="99" r="7.0" style="fill:gray;stroke:black;stroke-width:1.0"/>
<circle cx="321" cy="117" r="7.0" style="fill:gray;stroke:black;stroke-width:1.0"/>
<circle cx="39" cy="320" r="7.0" style="fill:gray;stroke:black;stroke-width:1.0"/>
<circle cx="101" cy="241" r="7.0" style="fill:gray;stroke:black;stroke-width:1.0"/>
</svg>
