<svg width="440" height="340" xmlns="http://www.w3.org/2000/svg">
<path stroke-width="1" stroke="black" d="M 248 203 205 184"/>
<path stroke-width="1" stroke="black" d="M 80 122 294 244"/>
<path stroke-width="1" stroke="black" d="M 80 122 148 91"/>
<path stroke-width="1" stroke="black" d="M 80 122 128 239"/>
<path stroke-width="1" stroke="black" d="M 80 122 31 88"/>
<path stroke-width="1" stroke="black" d="M 80 122 183 238"/>
<path stroke-width="1" stroke="black" d="M 80 122 233 107"/>
<path stroke-width="1" stroke="black" d="M 80 122 72 209"/>
<path stroke-width="1" stroke="black" d="M 80 122 87 167"/>
<path stroke-width="1" stroke="black" d="M 80 122 230 162"/>
<path stroke-width="1" stroke="black" d="M 80 122 205 184"/>
<path stroke-width="1" stroke="black" d="M 113 307 128 239"/>
<path stroke-width="1" stroke="black" d="M 31 88 80 122"/>
<path stroke-width="1" stroke="black" d="M 183 238 148 91"/>
<path stroke-width="1" stroke="black" d="M 183 238 128 239"/>
<path stroke-width="1" stroke="black" d="M 183 238 80 122"/>
<path stroke-width="1" stroke="black" d="M 183 238 199 285"/>
<path stroke-width="1" stroke="black" d="M 183 238 233 107"/>
<path stroke-width="1" stroke="black" d="M 183 238 72 209"/>
<path stroke-width="1" stroke="black" d="M 183 238 87 167"/>
<path stroke-width="1" stroke="black" d="M 183 238 230 162"/>
<path stroke-width="1" stroke="black" d="M 183 238 205 184"/>
<path stroke-width="1" stroke="black" d="M 199 285 183 238"/>
<path stroke-width="1" stroke="black" d="M 183 238 294 244"/>
<path stroke-width="1" stroke="black" d="M 128 239 205 184"/>
<path stroke-width="1" stroke="black" d="M 128 239 230 162"/>
<path stroke-width="1" stroke="black" d="M 128 239 87 167"/>
<path stroke-width="1" stroke="black" d="M 294 244 183 238"/>
<path stroke-width="1" stroke="black" d="M 294 244 233 107"/>
<path stroke-width="1" stroke="black" d="M 294 244 72 209"/>
<path stroke-width="1" stroke="black" d="M 294 244 87 167"/>
<path stroke-width="1" stroke="black" d="M 294 244 230 162"/>
<path stroke-width="1" stroke="black" d="M 294 244 205 184"/>
<path stroke-width="1" stroke="black" d="M 420 320 294 244"/>
<path stroke-width="1" stroke="black" d="M 148 91 143 20"/>
<path stroke-width="1" stroke="black" d="M 148 91 128 239"/>
<path stroke-width="1" stroke="black" d="M 148 91 80 122"/>
<path stroke-width="1" stroke="black" d="M 148 91 183 238"/>
<path stroke-width="1" stroke="black" d="M 148 91 233 107"/>
<path stroke-width="1" stroke="black" d="M 148 91 72 209"/>
<path stroke-width="1" stroke="black" d="M 148 91 87 167"/>
<path stroke-width="1" stroke="black" d="M 148 91 230 162"/>
<path stroke-width="1" stroke="black" d="M 148 91 205 184"/>
<path stroke-width="1" stroke="black" d="M 143 20 148 91"/>
<path stroke-width="1" stroke="black" d="M 128 239 148 91"/>
<path stroke-width="1" stroke="black" d="M 128 239 113 307"/>
<path stroke-width="1" stroke="black" d="M 128 239 80 122"/>
<path stroke-width="1" stroke="black" d="M 128 239 183 238"/>
<path stroke-width="1" stroke="black" d="M 128 239 233 107"/>
<path stroke-width="1" stroke="black" d="M 128 239 72 209"/>
<path stroke-width="1" stroke="black" d="M 233 107 294 244"/>
<path stroke-width="1" stroke="black" d="M 233 107 148 91"/>
<path stroke-width="1" stroke="black" d="M 233 107 128 239"/>
<path stroke-width="1" stroke="black" d="M 233 107 80 122"/>
<path stroke-width="1" stroke="black" d="M 87 167 205 184"/>
<path stroke-width="1" stroke="black" d="M 39 162 87 167"/>
<path stroke-width="1" stroke="black" d="M 230 162 294 244"/>
<path stroke-width="1" stroke="black" d="M 230 162 148 91"/>
<path stroke-width="1" stroke="black" d="M 230 162 128 239"/>
<path stroke-width="1" stroke="black" d="M 230 162 80 122"/>
<path stroke-width="1" stroke="black" d="M 230 162 183 238"/>
<path stroke-width="1" stroke="black" d="M 230 162 233 107"/>
<path stroke-width="1" stroke="black" d="M 230 162 72 209"/>
<path stroke-width="1" stroke="black" d="M 230 162 87 167"/>
<path stroke-width="1" stroke="black" d="M 230 162 213 148"/>
<path stroke-width="1" stroke="black" d="M 230 162 205 184"/>
<path stroke-width="1" stroke="black" d="M 213 148 230 162"/>
<path stroke-width="1" stroke="black" d="M 205 184 294 244"/>
<path stroke-width="1" stroke="black" d="M 205 184 148 91"/>
<path stroke-width="1" stroke="black" d="M 205 184 128 239"/>
<path stroke-width="1" stroke="black" d="M 205 184 80 122"/>
<path stroke-width="1" stroke="black" d="M 205 184 183 238"/>
<path stroke-width="1" stroke="black" d="M 205 184 233 107"/>
<path stroke-width="1" stroke="black" d="M 205 184 72 209"/>
<path stroke-width="1" stroke="black" d="M 205 184 87 167"/>
<path stroke-width="1" stroke="black" d="M 205 184 230 162"/>
<path stroke-width="1" stroke="black" d="M 205 184 248 203"/>
<path stroke-width="1" stroke="black" d="M 87 167 230 162"/>
<path stroke-width="1" stroke="black" d="M 294 244 80 122"/>
<path stroke-width="1" stroke="black" d="M 87 167 39 162"/>
<path stroke-width="1" stroke="black" d="M 87 167 233 107"/>
<path stroke-width="1" stroke="black" d="M 233 107 183 238"/>
<path stroke-width="1" stroke="black" d="M 233 107 262 59"/>
<path stroke-width="1" stroke="black" d="M 233 107 72 209"/>
<path stroke-width="1" stroke="black" d="M 233 107 87 167"/>
<path stroke-width="1" stroke="black" d="M 233 107 230 162"/>
<path stroke-width="1" stroke="black" d="M 233 107 205 184"/>
<path stroke-width="1" stroke="black" d="M 262 59 233 107"/>
<path stroke-width="1" stroke="black" d="M 72 209 294 244"/>
<path stroke-width="1" stroke="black" d="M 72 209 148 91"/>
<path stroke-width="1" stroke="black" d="M 72 209 128 239"/>
<path stroke-width="1" stroke="black" d="M 72 209 80 122"/>
<path stroke-width="1" stroke="black" d="M 72 209 183 238"/>
<path stroke-width="1" stroke="black" d="M 72 209 233 107"/>
<path stroke-width="1" stroke="black" d="M 72 209 20 223"/>
<path stroke-width="1" stroke="black" d="M 72 209 87 167"/>
<path stroke-width="1" stroke="black" d="M 72 209 230 162"/>
<path stroke-width="1" stroke="black" d="M 72 209 205 184"/>
<path stroke-width="1" stroke="black" d="M 20 223 72 209"/>
<path stroke-width="1" stroke="black" d="M 87 167 294 244"/>
<path stroke-width="1" stroke="black" d="M 87 167 148 91"/>
<path stroke-width="1" stroke="black" d="M 87 167 128 239"/>
<path stroke-width="1" stroke="black" d="M 87 167 80 122"/>
<path stroke-width="1" stroke="black" d="M 87 167 183 238"/>
<path stroke-width="1" stroke="black" d="M 87 167 72 209"/>
<path stroke-width="1" stroke="black" d="M 294 244 420 320"/>
<circle cx="248" cy="203" r="7.0" style="fill:gray;stroke:black;stroke-width:1.0"/>
<circle cx="205" cy="184" r="7.0" style="fill:gray;stroke:black;stroke-width:1.0"/>
<circle cx="213" cy="148" r="7.0" style="fill:gray;stroke:black;stroke-width:1.0"/>
<circle cx="230" cy="162" r="7.0" style="fill:gray;stroke:black;stroke-width:1.0"/>
<circle cx="39" cy="162" r="7.0" style="fill:gray;stroke:black;stroke-width:1.0"/>
<circle cx="87" cy="167" r="7.0" style="fill:gray;stroke:black;stroke-width:1.0"/>
<circle cx="20" cy="223" r="7.0" style="fill:gray;stroke:black;stroke-width:1.0"/>
<circle cx="72" cy="209" r="7.0" style="fill:gray;stroke:black;stroke-width:1.0"/>
<circle cx="262" cy="59" r="7.0" style="fill:gray;stroke:black;stroke-width:1.0"/>
<circle cx="233" cy="107" r="7.0" style="fill:gray;stroke:black;stroke-width:1.0"/>
<circle cx="199" cy="285" r="7.0" style="fill:gray;stroke:black;stroke-width:1.0"/>
<circle cx="183" cy="238" r="7.0" style="fill:gray;stroke:black;stroke-width:1.0"/>
<circle cx="31" cy="88" r="7.0" style="fill:gray;stroke:black;stroke-width:1.0"/>
<circle cx="80" cy="122" r="7.0" style="fill:gray;stroke:black;stroke-width:1.0"/>
<circle cx="113" cy="307" r="7.0" style="fill:gray;stroke:black;stroke-width:1.0"/>
<circle cx="128" cy="239" r="7.0" style="fill:gray;stroke:black;stroke-width:1.0"/>
<circle cx="143" cy="20" r="7.0" style="fill:gray;stroke:black;stroke-width:1.0"/>
<circle cx="148" cy="91" r="7.0" style="fill:gray;stroke:black;stroke-width:1.0"/>
<circle cx="420" cy="320" r="7.0" style="fill:gray;stroke:black;stroke-width:1.0"/>
<circle cx="294" cy="244" r="7.0" style="fill:gray;stroke:black;stroke-width:1.0"/>
</svg>
