<svg width="440" height="340" xmlns="http://www.w3.org/2000/svg">
<path stroke-width="1" stroke="black" d="M 332 101 326 88"/>
<path stroke-width="1" stroke="black" d="M 280 186 241 196"/>
<path stroke-width="1" stroke="black" d="M 287 192 280 186"/>
<path stroke-width="1" stroke="black" d="M 241 196 280 186"/>
<path stroke-width="1" stroke="black" d="M 241 196 254 195"/>
<path stroke-width="1" stroke="black" d="M 241 196 184 199"/>
<path stroke-width="1" stroke="black" d="M 254 195 241 196"/>
<path stroke-width="1" stroke="black" d="M 184 199 241 196"/>
<path stroke-width="1" stroke="black" d="M 184 199 190 206"/>
<path stroke-width="1" stroke="black" d="M 184 199 123 190"/>
<path stroke-width="1" stroke="black" d="M 190 206 184 199"/>
<path stroke-width="1" stroke="black" d="M 123 190 184 199"/>
<path stroke-width="1" stroke="black" d="M 123 190 120 183"/>
<path stroke-width="1" stroke="black" d="M 280 186 287 192"/>
<path stroke-width="1" stroke="black" d="M 123 190 64 187"/>
<path stroke-width="1" stroke="black" d="M 64 187 123 190"/>
<path stroke-width="1" stroke="black" d="M 64 187 54 180"/>
<path stroke-width="1" stroke="black" d="M 64 187 33 211"/>
<path stroke-width="1" stroke="black" d="M 54 180 64 187"/>
<path stroke-width="1" stroke="black" d="M 33 211 64 187"/>
<path stroke-width="1" stroke="black" d="M 33 211 20 211"/>
<path stroke-width="1" stroke="black" d="M 33 211 71 232"/>
<path stroke-width="1" stroke="black" d="M 20 211 33 211"/>
<path stroke-width="1" stroke="black" d="M 71 232 33 211"/>
<path stroke-width="1" stroke="black" d="M 71 232 58 241"/>
<path stroke-width="1" stroke="black" d="M 71 232 128 221"/>
<path stroke-width="1" stroke="black" d="M 58 241 71 232"/>
<path stroke-width="1" stroke="black" d="M 120 183 123 190"/>
<path stroke-width="1" stroke="black" d="M 280 186 291 160"/>
<path stroke-width="1" stroke="black" d="M 280 157 291 160"/>
<path stroke-width="1" stroke="black" d="M 291 160 280 186"/>
<path stroke-width="1" stroke="black" d="M 371 272 371 262"/>
<path stroke-width="1" stroke="black" d="M 374 228 371 262"/>
<path stroke-width="1" stroke="black" d="M 374 228 365 232"/>
<path stroke-width="1" stroke="black" d="M 374 228 392 190"/>
<path stroke-width="1" stroke="black" d="M 365 232 374 228"/>
<path stroke-width="1" stroke="black" d="M 392 190 374 228"/>
<path stroke-width="1" stroke="black" d="M 392 190 390 184"/>
<path stroke-width="1" stroke="black" d="M 392 190 411 153"/>
<path stroke-width="1" stroke="black" d="M 390 184 392 190"/>
<path stroke-width="1" stroke="black" d="M 411 153 392 190"/>
<path stroke-width="1" stroke="black" d="M 411 153 420 148"/>
<path stroke-width="1" stroke="black" d="M 411 153 409 124"/>
<path stroke-width="1" stroke="black" d="M 420 148 411 153"/>
<path stroke-width="1" stroke="black" d="M 409 124 411 153"/>
<path stroke-width="1" stroke="black" d="M 409 124 415 115"/>
<path stroke-width="1" stroke="black" d="M 409 124 377 137"/>
<path stroke-width="1" stroke="black" d="M 415 115 409 124"/>
<path stroke-width="1" stroke="black" d="M 377 137 409 124"/>
<path stroke-width="1" stroke="black" d="M 377 137 386 140"/>
<path stroke-width="1" stroke="black" d="M 377 137 332 147"/>
<path stroke-width="1" stroke="black" d="M 386 140 377 137"/>
<path stroke-width="1" stroke="black" d="M 332 147 377 137"/>
<path stroke-width="1" stroke="black" d="M 332 147 325 146"/>
<path stroke-width="1" stroke="black" d="M 332 147 291 160"/>
<path stroke-width="1" stroke="black" d="M 325 146 332 147"/>
<path stroke-width="1" stroke="black" d="M 291 160 332 147"/>
<path stroke-width="1" stroke="black" d="M 291 160 280 157"/>
<path stroke-width="1" stroke="black" d="M 128 221 71 232"/>
<path stroke-width="1" stroke="black" d="M 128 221 130 229"/>
<path stroke-width="1" stroke="black" d="M 128 221 190 188"/>
<path stroke-width="1" stroke="black" d="M 130 229 128 221"/>
<path stroke-width="1" stroke="black" d="M 301 307 300 295"/>
<path stroke-width="1" stroke="black" d="M 268 244 300 295"/>
<path stroke-width="1" stroke="black" d="M 268 244 266 255"/>
<path stroke-width="1" stroke="black" d="M 268 244 247 178"/>
<path stroke-width="1" stroke="black" d="M 266 255 268 244"/>
<path stroke-width="1" stroke="black" d="M 247 178 268 244"/>
<path stroke-width="1" stroke="black" d="M 247 178 236 179"/>
<path stroke-width="1" stroke="black" d="M 247 178 239 112"/>
<path stroke-width="1" stroke="black" d="M 236 179 247 178"/>
<path stroke-width="1" stroke="black" d="M 239 112 247 178"/>
<path stroke-width="1" stroke="black" d="M 239 112 232 102"/>
<path stroke-width="1" stroke="black" d="M 239 112 245 57"/>
<path stroke-width="1" stroke="black" d="M 232 102 239 112"/>
<path stroke-width="1" stroke="black" d="M 245 57 239 112"/>
<path stroke-width="1" stroke="black" d="M 245 57 240 45"/>
<path stroke-width="1" stroke="black" d="M 245 57 279 31"/>
<path stroke-width="1" stroke="black" d="M 240 45 245 57"/>
<path stroke-width="1" stroke="black" d="M 279 31 245 57"/>
<path stroke-width="1" stroke="black" d="M 279 31 280 20"/>
<path stroke-width="1" stroke="black" d="M 279 31 309 56"/>
<path stroke-width="1" stroke="black" d="M 280 20 279 31"/>
<path stroke-width="1" stroke="black" d="M 309 56 279 31"/>
<path stroke-width="1" stroke="black" d="M 309 56 317 52"/>
<path stroke-width="1" stroke="black" d="M 309 56 326 88"/>
<path stroke-width="1" stroke="black" d="M 317 52 309 56"/>
<path stroke-width="1" stroke="black" d="M 326 88 309 56"/>
<path stroke-width="1" stroke="black" d="M 326 88 332 101"/>
<path stroke-width="1" stroke="black" d="M 300 295 268 244"/>
<path stroke-width="1" stroke="black" d="M 371 262 374 228"/>
<path stroke-width="1" stroke="black" d="M 300 295 301 307"/>
<path stroke-width="1" stroke="black" d="M 353 320 345 311"/>
<path stroke-width="1" stroke="black" d="M 190 188 128 221"/>
<path stroke-width="1" stroke="black" d="M 190 188 196 190"/>
<path stroke-width="1" stroke="black" d="M 190 188 241 157"/>
<path stroke-width="1" stroke="black" d="M 196 190 190 188"/>
<path stroke-width="1" stroke="black" d="M 241 157 190 188"/>
<path stroke-width="1" stroke="black" d="M 241 157 242 146"/>
<path stroke-width="1" stroke="black" d="M 241 157 303 150"/>
<path stroke-width="1" stroke="black" d="M 242 146 241 157"/>
<path stroke-width="1" stroke="black" d="M 303 150 241 157"/>
<path stroke-width="1" stroke="black" d="M 303 150 305 139"/>
<path stroke-width="1" stroke="black" d="M 303 150 339 190"/>
<path stroke-width="1" stroke="black" d="M 305 139 303 150"/>
<path stroke-width="1" stroke="black" d="M 339 190 303 150"/>
<path stroke-width="1" stroke="black" d="M 339 190 349 183"/>
<path stroke-width="1" stroke="black" d="M 339 190 352 239"/>
<path stroke-width="1" stroke="black" d="M 349 183 339 190"/>
<path stroke-width="1" stroke="black" d="M 352 239 339 190"/>
<path stroke-width="1" stroke="black" d="M 352 239 358 246"/>
<path stroke-width="1" stroke="black" d="M 352 239 357 283"/>
<path stroke-width="1" stroke="black" d="M 358 246 352 239"/>
<path stroke-width="1" stroke="black" d="M 357 283 352 239"/>
<path stroke-width="1" stroke="black" d="M 357 283 361 292"/>
<path stroke-width="1" stroke="black" d="M 357 283 345 311"/>
<path stroke-width="1" stroke="black" d="M 361 292 357 283"/>
<path stroke-width="1" stroke="black" d="M 345 311 357 283"/>
<path stroke-width="1" stroke="black" d="M 345 311 353 320"/>
<path stroke-width="1" stroke="black" d="M 345 311 300 295"/>
<path stroke-width="1" stroke="black" d="M 300 295 345 311"/>
<path stroke-width="1" stroke="black" d="M 371 262 371 272"/>
<circle cx="332" cy="101" r="7.0" style="fill:green;stroke:black;stroke-width:1.0"/>
<circle cx="326" cy="88" r="7.0" style="fill:green;stroke:black;stroke-width:1.0"/>
<circle cx="317" cy="52" r="7.0" style="fill:green;stroke:black;stroke-width:1.0"/>
<circle cx="309" cy="56" r="7.0" style="fill:green;stroke:black;stroke-width:1.0"/>
<circle cx="280" cy="20" r="7.0" style="fill:green;stroke:black;stroke-width:1.0"/>
<circle cx="279" cy="31" r="7.0" style="fill:green;stroke:black;stroke-width:1.0"/>
<circle cx="240" cy="45" r="7.0" style="fill:green;stroke:black;stroke-width:1.0"/>
<circle cx="245" cy="57" r="7.0" style="fill:green;stroke:black;stroke-width:1.0"/>
<circle cx="232" cy="102" r="7.0" style="fill:green;stroke:black;stroke-width:1.0"/>
<circle cx="239" cy="112" r="7.0" style="fill:green;stroke:black;stroke-width:1.0"/>
<circle cx="236" cy="179" r="7.0" style="fill:orange;stroke:black;stroke-width:1.0"/>
<circle cx="247" cy="178" r="7.0" style="fill:orange;stroke:black;stroke-width:1.0"/>
<circle cx="266" cy="255" r="7.0" style="fill:purple;stroke:black;stroke-width:1.0"/>
<circle cx="268" cy="244" r="7.0" style="fill:orange;stroke:black;stroke-width:1.0"/>
<circle cx="301" cy="307" r="7.0" style="fill:purple;stroke:black;stroke-width:1.0"/>
<circle cx="300" cy="295" r="7.0" style="fill:purple;stroke:black;stroke-width:1.0"/>
<circle cx="353" cy="320" r="7.0" style="fill:purple;stroke:black;stroke-width:1.0"/>
<circle cx="345" cy="311" r="7.0" style="fill:purple;stroke:black;stroke-width:1.0"/>
<circle cx="361" cy="292" r="7.0" style="fill:purple;stroke:black;stroke-width:1.0"/>
<circle cx="357" cy="283" r="7.0" style="fill:olive;stroke:black;stroke-width:1.0"/>
<circle cx="358" cy="246" r="7.0" style="fill:olive;stroke:black;stroke-width:1.0"/>
<circle cx="352" cy="239" r="7.0" style="fill:olive;stroke:black;stroke-width:1.0"/>
<circle cx="349" cy="183" r="7.0" style="fill:olive;stroke:black;stroke-width:1.0"/>
<circle cx="339" cy="190" r="7.0" style="fill:olive;stroke:black;stroke-width:1.0"/>
<circle cx="305" cy="139" r="7.0" style="fill:red;stroke:black;stroke-width:1.0"/>
<circle cx="303" cy="150" r="7.0" style="fill:red;stroke:black;stroke-width:1.0"/>
<circle cx="242" cy="146" r="7.0" style="fill:red;stroke:black;stroke-width:1.0"/>
<circle cx="241" cy="157" r="7.0" style="fill:red;stroke:black;stroke-width:1.0"/>
<circle cx="196" cy="190" r="7.0" style="fill:red;stroke:black;stroke-width:1.0"/>
<circle cx="190" cy="188" r="7.0" style="fill:brown;stroke:black;stroke-width:1.0"/>
<circle cx="130" cy="229" r="7.0" style="fill:brown;stroke:black;stroke-width:1.0"/>
<circle cx="128" cy="221" r="7.0" style="fill:brown;stroke:black;stroke-width:1.0"/>
<circle cx="58" cy="241" r="7.0" style="fill:brown;stroke:black;stroke-width:1.0"/>
<circle cx="71" cy="232" r="7.0" style="fill:brown;stroke:black;stroke-width:1.0"/>
<circle cx="20" cy="211" r="7.0" style="fill:yellow;stroke:black;stroke-width:1.0"/>
<circle cx="33" cy="211" r="7.0" style="fill:yellow;stroke:black;stroke-width:1.0"/>
<circle cx="54" cy="180" r="7.0" style="fill:yellow;stroke:black;stroke-width:1.0"/>
<circle cx="64" cy="187" r="7.0" style="fill:yellow;stroke:black;stroke-width:1.0"/>
<circle cx="120" cy="183" r="7.0" style="fill:blue;stroke:black;stroke-width:1.0"/>
<circle cx="123" cy="190" r="7.0" style="fill:blue;stroke:black;stroke-width:1.0"/>
<circle cx="190" cy="206" r="7.0" style="fill:red;stroke:black;stroke-width:1.0"/>
<circle cx="184" cy="199" r="7.0" style="fill:red;stroke:black;stroke-width:1.0"/>
<circle cx="254" cy="195" r="7.0" style="fill:orange;stroke:black;stroke-width:1.0"/>
<circle cx="241" cy="196" r="7.0" style="fill:red;stroke:black;stroke-width:1.0"/>
<circle cx="287" cy="192" r="7.0" style="fill:orange;stroke:black;stroke-width:1.0"/>
<circle cx="280" cy="186" r="7.0" style="fill:orange;stroke:black;stroke-width:1.0"/>
<circle cx="280" cy="157" r="7.0" style="fill:orange;stroke:black;stroke-width:1.0"/>
<circle cx="291" cy="160" r="7.0" style="fill:orange;stroke:black;stroke-width:1.0"/>
<circle cx="325" cy="146" r="7.0" style="fill:fuchsia;stroke:black;stroke-width:1.0"/>
<circle cx="332" cy="147" r="7.0" style="fill:fuchsia;stroke:black;stroke-width:1.0"/>
<circle cx="386" cy="140" r="7.0" style="fill:fuchsia;stroke:black;stroke-width:1.0"/>
<circle cx="377" cy="137" r="7.0" style="fill:fuchsia;stroke:black;stroke-width:1.0"/>
<circle cx="415" cy="115" r="7.0" style="fill:fuchsia;stroke:black;stroke-width:1.0"/>
<circle cx="409" cy="124" r="7.0" style="fill:fuchsia;stroke:black;stroke-width:1.0"/>
<circle cx="420" cy="148" r="7.0" style="fill:blue;stroke:black;stroke-width:1.0"/>
<circle cx="411" cy="153" r="7.0" style="fill:blue;stroke:black;stroke-width:1.0"/>
<circle cx="390" cy="184" r="7.0" style="fill:blue;stroke:black;stroke-width:1.0"/>
<circle cx="392" cy="190" r="7.0" style="fill:blue;stroke:black;stroke-width:1.0"/>
<circle cx="365" cy="232" r="7.0" style="fill:blue;stroke:black;stroke-width:1.0"/>
<circle cx="374" cy="228" r="7.0" style="fill:blue;stroke:black;stroke-width:1.0"/>
<circle cx="371" cy="272" r="7.0" style="fill:aqua;stroke:black;stroke-width:1.0"/>
<circle cx="371" cy="262" r="7.0" style="fill:aqua;stroke:black;stroke-width:1.0"/>
</svg>
