<svg width="440" height="340" xmlns="http://www.w3.org/2000/svg">
<path stroke-width="8.857142857142858" stroke="black" d="M 112 195 117 204"/>
<path stroke-width="0.5" stroke="black" d="M 178 27 167 44"/>
<path stroke-width="20.0" stroke="black" d="M 179 20 178 27"/>
<path stroke-width="0.5" stroke="black" d="M 167 44 178 27"/>
<path stroke-width="20.0" stroke="black" d="M 167 44 164 35"/>
<path stroke-width="0.5" stroke="black" d="M 167 44 170 82"/>
<path stroke-width="20.0" stroke="black" d="M 164 35 167 44"/>
<path stroke-width="0.5" stroke="black" d="M 170 82 167 44"/>
<path stroke-width="20.0" stroke="black" d="M 170 82 171 74"/>
<path stroke-width="0.5" stroke="black" d="M 170 82 172 130"/>
<path stroke-width="20.0" stroke="black" d="M 171 74 170 82"/>
<path stroke-width="0.5" stroke="black" d="M 172 130 170 82"/>
<path stroke-width="20.0" stroke="black" d="M 172 130 178 125"/>
<path stroke-width="20.0" stroke="black" d="M 178 27 179 20"/>
<path stroke-width="0.5" stroke="black" d="M 172 130 165 182"/>
<path stroke-width="0.5" stroke="black" d="M 165 182 172 130"/>
<path stroke-width="20.0" stroke="black" d="M 165 182 175 183"/>
<path stroke-width="0.5" stroke="black" d="M 165 182 146 234"/>
<path stroke-width="20.0" stroke="black" d="M 175 183 165 182"/>
<path stroke-width="0.5" stroke="black" d="M 146 234 165 182"/>
<path stroke-width="20.0" stroke="black" d="M 146 234 153 240"/>
<path stroke-width="0.5" stroke="black" d="M 146 234 113 279"/>
<path stroke-width="20.0" stroke="black" d="M 153 240 146 234"/>
<path stroke-width="0.5" stroke="black" d="M 113 279 146 234"/>
<path stroke-width="20.0" stroke="black" d="M 113 279 114 287"/>
<path stroke-width="0.5" stroke="black" d="M 113 279 71 310"/>
<path stroke-width="20.0" stroke="black" d="M 114 287 113 279"/>
<path stroke-width="20.0" stroke="black" d="M 178 125 172 130"/>
<path stroke-width="0.5" stroke="black" d="M 178 27 181 51"/>
<path stroke-width="20.0" stroke="black" d="M 185 46 181 51"/>
<path stroke-width="0.5" stroke="black" d="M 181 51 178 27"/>
<path stroke-width="14.428571428571429" stroke="black" d="M 69 37 76 42"/>
<path stroke-width="0.5" stroke="black" d="M 97 60 76 42"/>
<path stroke-width="20.0" stroke="black" d="M 97 60 100 55"/>
<path stroke-width="0.5" stroke="black" d="M 97 60 108 85"/>
<path stroke-width="20.0" stroke="black" d="M 100 55 97 60"/>
<path stroke-width="0.5" stroke="black" d="M 108 85 97 60"/>
<path stroke-width="20.0" stroke="black" d="M 108 85 114 85"/>
<path stroke-width="0.5" stroke="black" d="M 108 85 115 111"/>
<path stroke-width="20.0" stroke="black" d="M 114 85 108 85"/>
<path stroke-width="0.5" stroke="black" d="M 115 111 108 85"/>
<path stroke-width="20.0" stroke="black" d="M 115 111 111 116"/>
<path stroke-width="0.5" stroke="black" d="M 115 111 137 127"/>
<path stroke-width="20.0" stroke="black" d="M 111 116 115 111"/>
<path stroke-width="0.5" stroke="black" d="M 137 127 115 111"/>
<path stroke-width="20.0" stroke="black" d="M 137 127 136 134"/>
<path stroke-width="0.5" stroke="black" d="M 137 127 161 110"/>
<path stroke-width="20.0" stroke="black" d="M 136 134 137 127"/>
<path stroke-width="0.5" stroke="black" d="M 161 110 137 127"/>
<path stroke-width="20.0" stroke="black" d="M 161 110 163 116"/>
<path stroke-width="0.5" stroke="black" d="M 161 110 173 82"/>
<path stroke-width="20.0" stroke="black" d="M 163 116 161 110"/>
<path stroke-width="0.5" stroke="black" d="M 173 82 161 110"/>
<path stroke-width="20.0" stroke="black" d="M 173 82 172 86"/>
<path stroke-width="0.5" stroke="black" d="M 173 82 181 51"/>
<path stroke-width="20.0" stroke="black" d="M 172 86 173 82"/>
<path stroke-width="0.5" stroke="black" d="M 181 51 173 82"/>
<path stroke-width="20.0" stroke="black" d="M 181 51 185 46"/>
<path stroke-width="0.5" stroke="black" d="M 71 310 113 279"/>
<path stroke-width="20.0" stroke="black" d="M 71 310 66 318"/>
<path stroke-width="0.5" stroke="black" d="M 71 310 31 313"/>
<path stroke-width="20.0" stroke="black" d="M 66 318 71 310"/>
<path stroke-width="20.0" stroke="black" d="M 420 237 407 238"/>
<path stroke-width="0.5" stroke="black" d="M 387 265 407 238"/>
<path stroke-width="20.0" stroke="black" d="M 387 265 399 267"/>
<path stroke-width="0.5" stroke="black" d="M 387 265 338 285"/>
<path stroke-width="20.0" stroke="black" d="M 399 267 387 265"/>
<path stroke-width="0.5" stroke="black" d="M 338 285 387 265"/>
<path stroke-width="20.0" stroke="black" d="M 338 285 344 290"/>
<path stroke-width="0.5" stroke="black" d="M 338 285 275 290"/>
<path stroke-width="20.0" stroke="black" d="M 344 290 338 285"/>
<path stroke-width="0.5" stroke="black" d="M 275 290 338 285"/>
<path stroke-width="20.0" stroke="black" d="M 275 290 274 297"/>
<path stroke-width="0.5" stroke="black" d="M 275 290 214 279"/>
<path stroke-width="20.0" stroke="black" d="M 274 297 275 290"/>
<path stroke-width="0.5" stroke="black" d="M 214 279 275 290"/>
<path stroke-width="20.0" stroke="black" d="M 214 279 209 284"/>
<path stroke-width="0.5" stroke="black" d="M 214 279 166 255"/>
<path stroke-width="20.0" stroke="black" d="M 209 284 214 279"/>
<path stroke-width="0.5" stroke="black" d="M 166 255 214 279"/>
<path stroke-width="20.0" stroke="black" d="M 166 255 156 255"/>
<path stroke-width="0.5" stroke="black" d="M 166 255 132 227"/>
<path stroke-width="20.0" stroke="black" d="M 156 255 166 255"/>
<path stroke-width="0.5" stroke="black" d="M 132 227 166 255"/>
<path stroke-width="20.0" stroke="black" d="M 132 227 124 222"/>
<path stroke-width="0.5" stroke="black" d="M 132 227 117 204"/>
<path stroke-width="20.0" stroke="black" d="M 124 222 132 227"/>
<path stroke-width="0.5" stroke="black" d="M 117 204 132 227"/>
<path stroke-width="8.857142857142858" stroke="black" d="M 117 204 112 195"/>
<path stroke-width="0.5" stroke="black" d="M 407 238 387 265"/>
<path stroke-width="0.5" stroke="black" d="M 76 42 97 60"/>
<path stroke-width="20.0" stroke="black" d="M 407 238 420 237"/>
<path stroke-width="20.0" stroke="black" d="M 393 210 381 214"/>
<path stroke-width="0.5" stroke="black" d="M 31 313 71 310"/>
<path stroke-width="20.0" stroke="black" d="M 31 313 20 320"/>
<path stroke-width="0.5" stroke="black" d="M 31 313 47 287"/>
<path stroke-width="20.0" stroke="black" d="M 20 320 31 313"/>
<path stroke-width="0.5" stroke="black" d="M 47 287 31 313"/>
<path stroke-width="20.0" stroke="black" d="M 47 287 35 290"/>
<path stroke-width="0.5" stroke="black" d="M 47 287 98 258"/>
<path stroke-width="20.0" stroke="black" d="M 35 290 47 287"/>
<path stroke-width="0.5" stroke="black" d="M 98 258 47 287"/>
<path stroke-width="20.0" stroke="black" d="M 98 258 84 258"/>
<path stroke-width="0.5" stroke="black" d="M 98 258 166 233"/>
<path stroke-width="20.0" stroke="black" d="M 84 258 98 258"/>
<path stroke-width="0.5" stroke="black" d="M 166 233 98 258"/>
<path stroke-width="20.0" stroke="black" d="M 166 233 160 228"/>
<path stroke-width="0.5" stroke="black" d="M 166 233 243 215"/>
<path stroke-width="20.0" stroke="black" d="M 160 228 166 233"/>
<path stroke-width="0.5" stroke="black" d="M 243 215 166 233"/>
<path stroke-width="20.0" stroke="black" d="M 243 215 245 209"/>
<path stroke-width="0.5" stroke="black" d="M 243 215 317 207"/>
<path stroke-width="20.0" stroke="black" d="M 245 209 243 215"/>
<path stroke-width="0.5" stroke="black" d="M 317 207 243 215"/>
<path stroke-width="20.0" stroke="black" d="M 317 207 326 201"/>
<path stroke-width="0.5" stroke="black" d="M 317 207 381 214"/>
<path stroke-width="20.0" stroke="black" d="M 326 201 317 207"/>
<path stroke-width="0.5" stroke="black" d="M 381 214 317 207"/>
<path stroke-width="20.0" stroke="black" d="M 381 214 393 210"/>
<path stroke-width="0.5" stroke="black" d="M 381 214 407 238"/>
<path stroke-width="0.5" stroke="black" d="M 407 238 381 214"/>
<path stroke-width="14.428571428571429" stroke="black" d="M 76 42 69 37"/>
<circle cx="112" cy="195" r="20.0" style="fill:gray;stroke:black;stroke-width:1.0"/>
<circle cx="117" cy="204" r="20.0" style="fill:gray;stroke:black;stroke-width:1.0"/>
<circle cx="124" cy="222" r="20.0" style="fill:gray;stroke:black;stroke-width:1.0"/>
<circle cx="132" cy="227" r="20.0" style="fill:gray;stroke:black;stroke-width:1.0"/>
<circle cx="156" cy="255" r="20.0" style="fill:gray;stroke:black;stroke-width:1.0"/>
<circle cx="166" cy="255" r="20.0" style="fill:gray;stroke:black;stroke-width:1.0"/>
<circle cx="209" cy="284" r="20.0" style="fill:gray;stroke:black;stroke-width:1.0"/>
<circle cx="214" cy="279" r="20.0" style="fill:gray;stroke:black;stroke-width:1.0"/>
<circle cx="274" cy="297" r="20.0" style="fill:gray;stroke:black;stroke-width:1.0"/>
<circle cx="275" cy="290" r="20.0" style="fill:gray;stroke:black;stroke-width:1.0"/>
<circle cx="344" cy="290" r="20.0" style="fill:gray;stroke:black;stroke-width:1.0"/>
<circle cx="338" cy="285" r="20.0" style="fill:gray;stroke:black;stroke-width:1.0"/>
<circle cx="399" cy="267" r="20.0" style="fill:gray;stroke:black;stroke-width:1.0"/>
<circle cx="387" cy="265" r="20.0" style="fill:gray;stroke:black;stroke-width:1.0"/>
<circle cx="420" cy="237" r="20.0" style="fill:gray;stroke:black;stroke-width:1.0"/>
<circle cx="407" cy="238" r="20.0" style="fill:gray;stroke:black;stroke-width:1.0"/>
<circle cx="393" cy="210" r="20.0" style="fill:gray;stroke:black;stroke-width:1.0"/>
<circle cx="381" cy="214" r="20.0" style="fill:gray;stroke:black;stroke-width:1.0"/>
<circle cx="326" cy="201" r="20.0" style="fill:gray;stroke:black;stroke-width:1.0"/>
<circle cx="317" cy="207" r="20.0" style="fill:gray;stroke:black;stroke-width:1.0"/>
<circle cx="245" cy="209" r="20.0" style="fill:gray;stroke:black;stroke-width:1.0"/>
<circle cx="243" cy="215" r="20.0" style="fill:gray;stroke:black;stroke-width:1.0"/>
<circle cx="160" cy="228" r="20.0" style="fill:gray;stroke:black;stroke-width:1.0"/>
<circle cx="166" cy="233" r="20.0" style="fill:gray;stroke:black;stroke-width:1.0"/>
<circle cx="84" cy="258" r="20.0" style="fill:gray;stroke:black;stroke-width:1.0"/>
<circle cx="98" cy="258" r="20.0" style="fill:gray;stroke:black;stroke-width:1.0"/>
<circle cx="35" cy="290" r="20.0" style="fill:gray;stroke:black;stroke-width:1.0"/>
<circle cx="47" cy="287" r="20.0" style="fill:gray;stroke:black;stroke-width:1.0"/>
<circle cx="20" cy="320" r="20.0" style="fill:gray;stroke:black;stroke-width:1.0"/>
<circle cx="31" cy="313" r="20.0" style="fill:gray;stroke:black;stroke-width:1.0"/>
<circle cx="66" cy="318" r="20.0" style="fill:gray;stroke:black;stroke-width:1.0"/>
<circle cx="71" cy="310" r="20.0" style="fill:gray;stroke:black;stroke-width:1.0"/>
<circle cx="114" cy="287" r="20.0" style="fill:gray;stroke:black;stroke-width:1.0"/>
<circle cx="113" cy="279" r="20.0" style="fill:gray;stroke:black;stroke-width:1.0"/>
<circle cx="153" cy="240" r="20.0" style="fill:gray;stroke:black;stroke-width:1.0"/>
<circle cx="146" cy="234" r="20.0" style="fill:gray;stroke:black;stroke-width:1.0"/>
<circle cx="175" cy="183" r="20.0" style="fill:gray;stroke:black;stroke-width:1.0"/>
<circle cx="165" cy="182" r="20.0" style="fill:gray;stroke:black;stroke-width:1.0"/>
<circle cx="178" cy="125" r="20.0" style="fill:gray;stroke:black;stroke-width:1.0"/>
<circle cx="172" cy="130" r="20.0" style="fill:gray;stroke:black;stroke-width:1.0"/>
<circle cx="171" cy="74" r="20.0" style="fill:gray;stroke:black;stroke-width:1.0"/>
<circle cx="170" cy="82" r="20.0" style="fill:gray;stroke:black;stroke-width:1.0"/>
<circle cx="164" cy="35" r="20.0" style="fill:gray;stroke:black;stroke-width:1.0"/>
<circle cx="167" cy="44" r="20.0" style="fill:gray;stroke:black;stroke-width:1.0"/>
<circle cx="179" cy="20" r="20.0" style="fill:gray;stroke:black;stroke-width:1.0"/>
<circle cx="178" cy="27" r="20.0" style="fill:gray;stroke:black;stroke-width:1.0"/>
<circle cx="185" cy="46" r="20.0" style="fill:gray;stroke:black;stroke-width:1.0"/>
<circle cx="181" cy="51" r="20.0" style="fill:gray;stroke:black;stroke-width:1.0"/>
<circle cx="172" cy="86" r="20.0" style="fill:gray;stroke:black;stroke-width:1.0"/>
<circle cx="173" cy="82" r="20.0" style="fill:gray;stroke:black;stroke-width:1.0"/>
<circle cx="163" cy="116" r="20.0" style="fill:gray;stroke:black;stroke-width:1.0"/>
<circle cx="161" cy="110" r="20.0" style="fill:gray;stroke:black;stroke-width:1.0"/>
<circle cx="136" cy="134" r="20.0" style="fill:gray;stroke:black;stroke-width:1.0"/>
<circle cx="137" cy="127" r="20.0" style="fill:gray;stroke:black;stroke-width:1.0"/>
<circle cx="111" cy="116" r="20.0" style="fill:gray;stroke:black;stroke-width:1.0"/>
<circle cx="115" cy="111" r="20.0" style="fill:gray;stroke:black;stroke-width:1.0"/>
<circle cx="114" cy="85" r="20.0" style="fill:gray;stroke:black;stroke-width:1.0"/>
<circle cx="108" cy="85" r="20.0" style="fill:gray;stroke:black;stroke-width:1.0"/>
<circle cx="100" cy="55" r="20.0" style="fill:gray;stroke:black;stroke-width:1.0"/>
<circle cx="97" cy="60" r="20.0" style="fill:gray;stroke:black;stroke-width:1.0"/>
<circle cx="69" cy="37" r="20.0" style="fill:gray;stroke:black;stroke-width:1.0"/>
<circle cx="76" cy="42" r="20.0" style="fill:gray;stroke:black;stroke-width:1.0"/>
</svg>
