<svg width="440" height="340" xmlns="http://www.w3.org/2000/svg">
<path stroke-width="8.857142857142858" stroke="black" d="M 295 20 309 31"/>
<path stroke-width="0.5" stroke="black" d="M 117 261 154 232"/>
<path stroke-width="20.0" stroke="black" d="M 117 261 126 261"/>
<path stroke-width="0.5" stroke="black" d="M 117 261 77 288"/>
<path stroke-width="20.0" stroke="black" d="M 126 261 117 261"/>
<path stroke-width="0.5" stroke="black" d="M 77 288 117 261"/>
<path stroke-width="20.0" stroke="black" d="M 77 288 64 291"/>
<path stroke-width="0.5" stroke="black" d="M 77 288 78 315"/>
<path stroke-width="20.0" stroke="black" d="M 64 291 77 288"/>
<path stroke-width="0.5" stroke="black" d="M 78 315 77 288"/>
<path stroke-width="20.0" stroke="black" d="M 167 235 154 232"/>
<path stroke-width="20.0" stroke="black" d="M 78 315 63 320"/>
<path stroke-width="20.0" stroke="black" d="M 63 320 78 315"/>
<path stroke-width="0.5" stroke="black" d="M 136 313 78 315"/>
<path stroke-width="20.0" stroke="black" d="M 136 313 128 319"/>
<path stroke-width="0.5" stroke="black" d="M 136 313 201 298"/>
<path stroke-width="20.0" stroke="black" d="M 128 319 136 313"/>
<path stroke-width="0.5" stroke="black" d="M 201 298 136 313"/>
<path stroke-width="20.0" stroke="black" d="M 201 298 212 302"/>
<path stroke-width="0.5" stroke="black" d="M 201 298 247 273"/>
<path stroke-width="20.0" stroke="black" d="M 212 302 201 298"/>
<path stroke-width="0.5" stroke="black" d="M 78 315 136 313"/>
<path stroke-width="0.5" stroke="black" d="M 154 232 117 261"/>
<path stroke-width="20.0" stroke="black" d="M 154 232 167 235"/>
<path stroke-width="0.5" stroke="black" d="M 154 232 163 195"/>
<path stroke-width="14.428571428571429" stroke="black" d="M 420 71 402 74"/>
<path stroke-width="0.5" stroke="black" d="M 345 84 402 74"/>
<path stroke-width="20.0" stroke="black" d="M 345 84 353 78"/>
<path stroke-width="0.5" stroke="black" d="M 345 84 280 103"/>
<path stroke-width="20.0" stroke="black" d="M 353 78 345 84"/>
<path stroke-width="0.5" stroke="black" d="M 280 103 345 84"/>
<path stroke-width="20.0" stroke="black" d="M 280 103 275 97"/>
<path stroke-width="0.5" stroke="black" d="M 280 103 222 130"/>
<path stroke-width="20.0" stroke="black" d="M 275 97 280 103"/>
<path stroke-width="0.5" stroke="black" d="M 222 130 280 103"/>
<path stroke-width="20.0" stroke="black" d="M 222 130 211 130"/>
<path stroke-width="0.5" stroke="black" d="M 222 130 177 160"/>
<path stroke-width="20.0" stroke="black" d="M 211 130 222 130"/>
<path stroke-width="0.5" stroke="black" d="M 177 160 222 130"/>
<path stroke-width="20.0" stroke="black" d="M 177 160 163 160"/>
<path stroke-width="0.5" stroke="black" d="M 177 160 163 195"/>
<path stroke-width="20.0" stroke="black" d="M 163 160 177 160"/>
<path stroke-width="0.5" stroke="black" d="M 163 195 177 160"/>
<path stroke-width="20.0" stroke="black" d="M 163 195 155 193"/>
<path stroke-width="0.5" stroke="black" d="M 163 195 154 232"/>
<path stroke-width="20.0" stroke="black" d="M 155 193 163 195"/>
<path stroke-width="0.5" stroke="black" d="M 247 273 201 298"/>
<path stroke-width="20.0" stroke="black" d="M 247 273 264 272"/>
<path stroke-width="0.5" stroke="black" d="M 247 273 231 242"/>
<path stroke-width="20.0" stroke="black" d="M 264 272 247 273"/>
<path stroke-width="20.0" stroke="black" d="M 204 255 205 265"/>
<path stroke-width="0.5" stroke="black" d="M 204 255 283 216"/>
<path stroke-width="20.0" stroke="black" d="M 205 265 204 255"/>
<path stroke-width="0.5" stroke="black" d="M 283 216 204 255"/>
<path stroke-width="20.0" stroke="black" d="M 283 216 296 221"/>
<path stroke-width="0.5" stroke="black" d="M 283 216 337 166"/>
<path stroke-width="20.0" stroke="black" d="M 296 221 283 216"/>
<path stroke-width="0.5" stroke="black" d="M 337 166 283 216"/>
<path stroke-width="20.0" stroke="black" d="M 337 166 353 167"/>
<path stroke-width="0.5" stroke="black" d="M 337 166 357 113"/>
<path stroke-width="20.0" stroke="black" d="M 353 167 337 166"/>
<path stroke-width="0.5" stroke="black" d="M 357 113 337 166"/>
<path stroke-width="20.0" stroke="black" d="M 357 113 372 109"/>
<path stroke-width="0.5" stroke="black" d="M 357 113 342 63"/>
<path stroke-width="20.0" stroke="black" d="M 372 109 357 113"/>
<path stroke-width="0.5" stroke="black" d="M 342 63 357 113"/>
<path stroke-width="20.0" stroke="black" d="M 342 63 345 54"/>
<path stroke-width="0.5" stroke="black" d="M 342 63 309 31"/>
<path stroke-width="20.0" stroke="black" d="M 345 54 342 63"/>
<path stroke-width="0.5" stroke="black" d="M 309 31 342 63"/>
<path stroke-width="8.857142857142858" stroke="black" d="M 309 31 295 20"/>
<path stroke-width="0.5" stroke="black" d="M 204 255 119 276"/>
<path stroke-width="0.5" stroke="black" d="M 402 74 345 84"/>
<path stroke-width="20.0" stroke="black" d="M 108 285 119 276"/>
<path stroke-width="20.0" stroke="black" d="M 119 276 108 285"/>
<path stroke-width="0.5" stroke="black" d="M 231 242 247 273"/>
<path stroke-width="20.0" stroke="black" d="M 231 242 246 239"/>
<path stroke-width="0.5" stroke="black" d="M 231 242 170 228"/>
<path stroke-width="20.0" stroke="black" d="M 246 239 231 242"/>
<path stroke-width="0.5" stroke="black" d="M 170 228 231 242"/>
<path stroke-width="20.0" stroke="black" d="M 170 228 179 222"/>
<path stroke-width="0.5" stroke="black" d="M 170 228 95 230"/>
<path stroke-width="20.0" stroke="black" d="M 179 222 170 228"/>
<path stroke-width="0.5" stroke="black" d="M 95 230 170 228"/>
<path stroke-width="20.0" stroke="black" d="M 95 230 86 225"/>
<path stroke-width="0.5" stroke="black" d="M 95 230 38 247"/>
<path stroke-width="20.0" stroke="black" d="M 86 225 95 230"/>
<path stroke-width="0.5" stroke="black" d="M 38 247 95 230"/>
<path stroke-width="20.0" stroke="black" d="M 38 247 20 245"/>
<path stroke-width="0.5" stroke="black" d="M 38 247 44 275"/>
<path stroke-width="20.0" stroke="black" d="M 20 245 38 247"/>
<path stroke-width="0.5" stroke="black" d="M 44 275 38 247"/>
<path stroke-width="20.0" stroke="black" d="M 44 275 26 279"/>
<path stroke-width="0.5" stroke="black" d="M 44 275 119 276"/>
<path stroke-width="20.0" stroke="black" d="M 26 279 44 275"/>
<path stroke-width="0.5" stroke="black" d="M 119 276 44 275"/>
<path stroke-width="0.5" stroke="black" d="M 119 276 204 255"/>
<path stroke-width="14.428571428571429" stroke="black" d="M 402 74 420 71"/>
<circle cx="295" cy="20" r="7.0" style="fill:gray;stroke:black;stroke-width:1.0"/>
<circle cx="309" cy="31" r="7.0" style="fill:gray;stroke:black;stroke-width:1.0"/>
<circle cx="345" cy="54" r="7.0" style="fill:gray;stroke:black;stroke-width:1.0"/>
<circle cx="342" cy="63" r="7.0" style="fill:gray;stroke:black;stroke-width:1.0"/>
<circle cx="372" cy="109" r="7.0" style="fill:gray;stroke:black;stroke-width:1.0"/>
<circle cx="357" cy="113" r="7.0" style="fill:gray;stroke:black;stroke-width:1.0"/>
<circle cx="353" cy="167" r="7.0" style="fill:gray;stroke:black;stroke-width:1.0"/>
<circle cx="337" cy="166" r="7.0" style="fill:gray;stroke:black;stroke-width:1.0"/>
<circle cx="296" cy="221" r="7.0" style="fill:gray;stroke:black;stroke-width:1.0"/>
<circle cx="283" cy="216" r="7.0" style="fill:gray;stroke:black;stroke-width:1.0"/>
<circle cx="205" cy="265" r="7.0" style="fill:gray;stroke:black;stroke-width:1.0"/>
<circle cx="204" cy="255" r="7.0" style="fill:gray;stroke:black;stroke-width:1.0"/>
<circle cx="108" cy="285" r="7.0" style="fill:gray;stroke:black;stroke-width:1.0"/>
<circle cx="119" cy="276" r="7.0" style="fill:gray;stroke:black;stroke-width:1.0"/>
<circle cx="26" cy="279" r="7.0" style="fill:gray;stroke:black;stroke-width:1.0"/>
<circle cx="44" cy="275" r="7.0" style="fill:gray;stroke:black;stroke-width:1.0"/>
<circle cx="20" cy="245" r="7.0" style="fill:gray;stroke:black;stroke-width:1.0"/>
<circle cx="38" cy="247" r="7.0" style="fill:gray;stroke:black;stroke-width:1.0"/>
<circle cx="86" cy="225" r="7.0" style="fill:gray;stroke:black;stroke-width:1.0"/>
<circle cx="95" cy="230" r="7.0" style="fill:gray;stroke:black;stroke-width:1.0"/>
<circle cx="179" cy="222" r="7.0" style="fill:gray;stroke:black;stroke-width:1.0"/>
<circle cx="170" cy="228" r="7.0" style="fill:gray;stroke:black;stroke-width:1.0"/>
<circle cx="246" cy="239" r="7.0" style="fill:gray;stroke:black;stroke-width:1.0"/>
<circle cx="231" cy="242" r="7.0" style="fill:gray;stroke:black;stroke-width:1.0"/>
<circle cx="264" cy="272" r="7.0" style="fill:gray;stroke:black;stroke-width:1.0"/>
<circle cx="247" cy="273" r="7.0" style="fill:gray;stroke:black;stroke-width:1.0"/>
<circle cx="212" cy="302" r="7.0" style="fill:gray;stroke:black;stroke-width:1.0"/>
<circle cx="201" cy="298" r="7.0" style="fill:gray;stroke:black;stroke-width:1.0"/>
<circle cx="128" cy="319" r="7.0" style="fill:gray;stroke:black;stroke-width:1.0"/>
<circle cx="136" cy="313" r="7.0" style="fill:gray;stroke:black;stroke-width:1.0"/>
<circle cx="63" cy="320" r="7.0" style="fill:gray;stroke:black;stroke-width:1.0"/>
<circle cx="78" cy="315" r="7.0" style="fill:gray;stroke:black;stroke-width:1.0"/>
<circle cx="64" cy="291" r="7.0" style="fill:gray;stroke:black;stroke-width:1.0"/>
<circle cx="77" cy="288" r="7.0" style="fill:gray;stroke:black;stroke-width:1.0"/>
<circle cx="126" cy="261" r="7.0" style="fill:gray;stroke:black;stroke-width:1.0"/>
<circle cx="117" cy="261" r="7.0" style="fill:gray;stroke:black;stroke-width:1.0"/>
<circle cx="167" cy="235" r="7.0" style="fill:gray;stroke:black;stroke-width:1.0"/>
<circle cx="154" cy="232" r="7.0" style="fill:gray;stroke:black;stroke-width:1.0"/>
<circle cx="155" cy="193" r="7.0" style="fill:gray;stroke:black;stroke-width:1.0"/>
<circle cx="163" cy="195" r="7.0" style="fill:gray;stroke:black;stroke-width:1.0"/>
<circle cx="163" cy="160" r="7.0" style="fill:gray;stroke:black;stroke-width:1.0"/>
<circle cx="177" cy="160" r="7.0" style="fill:gray;stroke:black;stroke-width:1.0"/>
<circle cx="211" cy="130" r="7.0" style="fill:gray;stroke:black;stroke-width:1.0"/>
<circle cx="222" cy="130" r="7.0" style="fill:gray;stroke:black;stroke-width:1.0"/>
<circle cx="275" cy="97" r="7.0" style="fill:gray;stroke:black;stroke-width:1.0"/>
<circle cx="280" cy="103" r="7.0" style="fill:gray;stroke:black;stroke-width:1.0"/>
<circle cx="353" cy="78" r="7.0" style="fill:gray;stroke:black;stroke-width:1.0"/>
<circle cx="345" cy="84" r="7.0" style="fill:gray;stroke:black;stroke-width:1.0"/>
<circle cx="420" cy="71" r="7.0" style="fill:gray;stroke:black;stroke-width:1.0"/>
<circle cx="402" cy="74" r="7.0" style="fill:gray;stroke:black;stroke-width:1.0"/>
</svg>
