<svg width="440" height="340" xmlns="http://www.w3.org/2000/svg">
<path stroke-width="8.857142857142858" stroke="black" d="M 114 261 100 266"/>
<path stroke-width="0.5" stroke="black" d="M 211 53 224 91"/>
<path stroke-width="20.0" stroke="black" d="M 211 53 215 45"/>
<path stroke-width="0.5" stroke="black" d="M 211 53 187 27"/>
<path stroke-width="20.0" stroke="black" d="M 215 45 211 53"/>
<path stroke-width="0.5" stroke="black" d="M 187 27 211 53"/>
<path stroke-width="20.0" stroke="black" d="M 187 27 178 20"/>
<path stroke-width="0.5" stroke="black" d="M 187 27 209 41"/>
<path stroke-width="20.0" stroke="black" d="M 178 20 187 27"/>
<path stroke-width="0.5" stroke="black" d="M 209 41 187 27"/>
<path stroke-width="20.0" stroke="black" d="M 229 86 224 91"/>
<path stroke-width="20.0" stroke="black" d="M 209 41 194 39"/>
<path stroke-width="20.0" stroke="black" d="M 194 39 209 41"/>
<path stroke-width="0.5" stroke="black" d="M 268 57 209 41"/>
<path stroke-width="20.0" stroke="black" d="M 268 57 258 56"/>
<path stroke-width="0.5" stroke="black" d="M 268 57 330 75"/>
<path stroke-width="20.0" stroke="black" d="M 258 56 268 57"/>
<path stroke-width="0.5" stroke="black" d="M 330 75 268 57"/>
<path stroke-width="20.0" stroke="black" d="M 330 75 342 75"/>
<path stroke-width="0.5" stroke="black" d="M 330 75 384 94"/>
<path stroke-width="20.0" stroke="black" d="M 342 75 330 75"/>
<path stroke-width="0.5" stroke="black" d="M 209 41 268 57"/>
<path stroke-width="0.5" stroke="black" d="M 224 91 211 53"/>
<path stroke-width="20.0" stroke="black" d="M 224 91 229 86"/>
<path stroke-width="0.5" stroke="black" d="M 224 91 230 132"/>
<path stroke-width="14.428571428571429" stroke="black" d="M 281 105 276 113"/>
<path stroke-width="0.5" stroke="black" d="M 261 139 276 113"/>
<path stroke-width="20.0" stroke="black" d="M 261 139 272 137"/>
<path stroke-width="0.5" stroke="black" d="M 261 139 228 164"/>
<path stroke-width="20.0" stroke="black" d="M 272 137 261 139"/>
<path stroke-width="0.5" stroke="black" d="M 228 164 261 139"/>
<path stroke-width="20.0" stroke="black" d="M 228 164 220 169"/>
<path stroke-width="0.5" stroke="black" d="M 228 164 207 185"/>
<path stroke-width="20.0" stroke="black" d="M 220 169 228 164"/>
<path stroke-width="0.5" stroke="black" d="M 207 185 228 164"/>
<path stroke-width="20.0" stroke="black" d="M 207 185 197 192"/>
<path stroke-width="0.5" stroke="black" d="M 207 185 231 170"/>
<path stroke-width="20.0" stroke="black" d="M 197 192 207 185"/>
<path stroke-width="0.5" stroke="black" d="M 231 170 207 185"/>
<path stroke-width="20.0" stroke="black" d="M 231 170 234 178"/>
<path stroke-width="0.5" stroke="black" d="M 231 170 230 132"/>
<path stroke-width="20.0" stroke="black" d="M 234 178 231 170"/>
<path stroke-width="0.5" stroke="black" d="M 230 132 231 170"/>
<path stroke-width="20.0" stroke="black" d="M 230 132 235 138"/>
<path stroke-width="0.5" stroke="black" d="M 230 132 224 91"/>
<path stroke-width="20.0" stroke="black" d="M 235 138 230 132"/>
<path stroke-width="0.5" stroke="black" d="M 384 94 330 75"/>
<path stroke-width="20.0" stroke="black" d="M 384 94 397 95"/>
<path stroke-width="0.5" stroke="black" d="M 384 94 401 117"/>
<path stroke-width="20.0" stroke="black" d="M 397 95 384 94"/>
<path stroke-width="20.0" stroke="black" d="M 167 308 177 313"/>
<path stroke-width="0.5" stroke="black" d="M 167 308 112 314"/>
<path stroke-width="20.0" stroke="black" d="M 177 313 167 308"/>
<path stroke-width="0.5" stroke="black" d="M 112 314 167 308"/>
<path stroke-width="20.0" stroke="black" d="M 112 314 113 320"/>
<path stroke-width="0.5" stroke="black" d="M 112 314 58 310"/>
<path stroke-width="20.0" stroke="black" d="M 113 320 112 314"/>
<path stroke-width="0.5" stroke="black" d="M 58 310 112 314"/>
<path stroke-width="20.0" stroke="black" d="M 58 310 45 313"/>
<path stroke-width="0.5" stroke="black" d="M 58 310 33 291"/>
<path stroke-width="20.0" stroke="black" d="M 45 313 58 310"/>
<path stroke-width="0.5" stroke="black" d="M 33 291 58 310"/>
<path stroke-width="20.0" stroke="black" d="M 33 291 20 290"/>
<path stroke-width="0.5" stroke="black" d="M 33 291 65 278"/>
<path stroke-width="20.0" stroke="black" d="M 20 290 33 291"/>
<path stroke-width="0.5" stroke="black" d="M 65 278 33 291"/>
<path stroke-width="20.0" stroke="black" d="M 65 278 65 282"/>
<path stroke-width="0.5" stroke="black" d="M 65 278 100 266"/>
<path stroke-width="20.0" stroke="black" d="M 65 282 65 278"/>
<path stroke-width="0.5" stroke="black" d="M 100 266 65 278"/>
<path stroke-width="8.857142857142858" stroke="black" d="M 100 266 114 261"/>
<path stroke-width="0.5" stroke="black" d="M 167 308 205 286"/>
<path stroke-width="0.5" stroke="black" d="M 276 113 261 139"/>
<path stroke-width="20.0" stroke="black" d="M 210 294 205 286"/>
<path stroke-width="20.0" stroke="black" d="M 205 286 210 294"/>
<path stroke-width="0.5" stroke="black" d="M 401 117 384 94"/>
<path stroke-width="20.0" stroke="black" d="M 401 117 420 114"/>
<path stroke-width="0.5" stroke="black" d="M 401 117 357 141"/>
<path stroke-width="20.0" stroke="black" d="M 420 114 401 117"/>
<path stroke-width="0.5" stroke="black" d="M 357 141 401 117"/>
<path stroke-width="20.0" stroke="black" d="M 357 141 361 136"/>
<path stroke-width="0.5" stroke="black" d="M 357 141 302 176"/>
<path stroke-width="20.0" stroke="black" d="M 361 136 357 141"/>
<path stroke-width="0.5" stroke="black" d="M 302 176 357 141"/>
<path stroke-width="20.0" stroke="black" d="M 302 176 297 171"/>
<path stroke-width="0.5" stroke="black" d="M 302 176 256 213"/>
<path stroke-width="20.0" stroke="black" d="M 297 171 302 176"/>
<path stroke-width="0.5" stroke="black" d="M 256 213 302 176"/>
<path stroke-width="20.0" stroke="black" d="M 256 213 242 214"/>
<path stroke-width="0.5" stroke="black" d="M 256 213 224 252"/>
<path stroke-width="20.0" stroke="black" d="M 242 214 256 213"/>
<path stroke-width="0.5" stroke="black" d="M 224 252 256 213"/>
<path stroke-width="20.0" stroke="black" d="M 224 252 216 256"/>
<path stroke-width="0.5" stroke="black" d="M 224 252 205 286"/>
<path stroke-width="20.0" stroke="black" d="M 216 256 224 252"/>
<path stroke-width="0.5" stroke="black" d="M 205 286 224 252"/>
<path stroke-width="0.5" stroke="black" d="M 205 286 167 308"/>
<path stroke-width="14.428571428571429" stroke="black" d="M 276 113 281 105"/>
<circle cx="114" cy="261" r="20.0" style="fill:red;stroke:black;stroke-width:1.0"/>
<circle cx="100" cy="266" r="20.0" style="fill:red;stroke:black;stroke-width:1.0"/>
<circle cx="65" cy="282" r="20.0" style="fill:red;stroke:black;stroke-width:1.0"/>
<circle cx="65" cy="278" r="20.0" style="fill:red;stroke:black;stroke-width:1.0"/>
<circle cx="20" cy="290" r="20.0" style="fill:red;stroke:black;stroke-width:1.0"/>
<circle cx="33" cy="291" r="20.0" style="fill:red;stroke:black;stroke-width:1.0"/>
<circle cx="45" cy="313" r="20.0" style="fill:purple;stroke:black;stroke-width:1.0"/>
<circle cx="58" cy="310" r="20.0" style="fill:purple;stroke:black;stroke-width:1.0"/>
<circle cx="113" cy="320" r="20.0" style="fill:purple;stroke:black;stroke-width:1.0"/>
<circle cx="112" cy="314" r="20.0" style="fill:purple;stroke:black;stroke-width:1.0"/>
<circle cx="177" cy="313" r="20.0" style="fill:purple;stroke:black;stroke-width:1.0"/>
<circle cx="167" cy="308" r="20.0" style="fill:purple;stroke:black;stroke-width:1.0"/>
<circle cx="210" cy="294" r="20.0" style="fill:brown;stroke:black;stroke-width:1.0"/>
<circle cx="205" cy="286" r="20.0" style="fill:brown;stroke:black;stroke-width:1.0"/>
<circle cx="216" cy="256" r="20.0" style="fill:brown;stroke:black;stroke-width:1.0"/>
<circle cx="224" cy="252" r="20.0" style="fill:brown;stroke:black;stroke-width:1.0"/>
<circle cx="242" cy="214" r="20.0" style="fill:aqua;stroke:black;stroke-width:1.0"/>
<circle cx="256" cy="213" r="20.0" style="fill:aqua;stroke:black;stroke-width:1.0"/>
<circle cx="297" cy="171" r="20.0" style="fill:aqua;stroke:black;stroke-width:1.0"/>
<circle cx="302" cy="176" r="20.0" style="fill:aqua;stroke:black;stroke-width:1.0"/>
<circle cx="361" cy="136" r="20.0" style="fill:green;stroke:black;stroke-width:1.0"/>
<circle cx="357" cy="141" r="20.0" style="fill:green;stroke:black;stroke-width:1.0"/>
<circle cx="420" cy="114" r="20.0" style="fill:red;stroke:black;stroke-width:1.0"/>
<circle cx="401" cy="117" r="20.0" style="fill:red;stroke:black;stroke-width:1.0"/>
<circle cx="397" cy="95" r="20.0" style="fill:red;stroke:black;stroke-width:1.0"/>
<circle cx="384" cy="94" r="20.0" style="fill:olive;stroke:black;stroke-width:1.0"/>
<circle cx="342" cy="75" r="20.0" style="fill:olive;stroke:black;stroke-width:1.0"/>
<circle cx="330" cy="75" r="20.0" style="fill:olive;stroke:black;stroke-width:1.0"/>
<circle cx="258" cy="56" r="20.0" style="fill:fuchsia;stroke:black;stroke-width:1.0"/>
<circle cx="268" cy="57" r="20.0" style="fill:fuchsia;stroke:black;stroke-width:1.0"/>
<circle cx="194" cy="39" r="20.0" style="fill:blue;stroke:black;stroke-width:1.0"/>
<circle cx="209" cy="41" r="20.0" style="fill:fuchsia;stroke:black;stroke-width:1.0"/>
<circle cx="178" cy="20" r="20.0" style="fill:blue;stroke:black;stroke-width:1.0"/>
<circle cx="187" cy="27" r="20.0" style="fill:blue;stroke:black;stroke-width:1.0"/>
<circle cx="215" cy="45" r="20.0" style="fill:blue;stroke:black;stroke-width:1.0"/>
<circle cx="211" cy="53" r="20.0" style="fill:blue;stroke:black;stroke-width:1.0"/>
<circle cx="229" cy="86" r="20.0" style="fill:blue;stroke:black;stroke-width:1.0"/>
<circle cx="224" cy="91" r="20.0" style="fill:blue;stroke:black;stroke-width:1.0"/>
<circle cx="235" cy="138" r="20.0" style="fill:blue;stroke:black;stroke-width:1.0"/>
<circle cx="230" cy="132" r="20.0" style="fill:blue;stroke:black;stroke-width:1.0"/>
<circle cx="234" cy="178" r="20.0" style="fill:yellow;stroke:black;stroke-width:1.0"/>
<circle cx="231" cy="170" r="20.0" style="fill:yellow;stroke:black;stroke-width:1.0"/>
<circle cx="197" cy="192" r="20.0" style="fill:yellow;stroke:black;stroke-width:1.0"/>
<circle cx="207" cy="185" r="20.0" style="fill:yellow;stroke:black;stroke-width:1.0"/>
<circle cx="220" cy="169" r="20.0" style="fill:yellow;stroke:black;stroke-width:1.0"/>
<circle cx="228" cy="164" r="20.0" style="fill:yellow;stroke:black;stroke-width:1.0"/>
<circle cx="272" cy="137" r="20.0" style="fill:orange;stroke:black;stroke-width:1.0"/>
<circle cx="261" cy="139" r="20.0" style="fill:orange;stroke:black;stroke-width:1.0"/>
<circle cx="281" cy="105" r="20.0" style="fill:orange;stroke:black;stroke-width:1.0"/>
<circle cx="276" cy="113" r="20.0" style="fill:orange;stroke:black;stroke-width:1.0"/>
</svg>
