<svg width="440" height="340" xmlns="http://www.w3.org/2000/svg">
<path stroke-width="1" stroke="black" d="M 338 115 420 320"/>
<path stroke-width="1" stroke="black" d="M 338 115 20 302"/>
<path stroke-width="1" stroke="black" d="M 338 115 63 20"/>
<path stroke-width="1" stroke="black" d="M 420 320 338 115"/>
<path stroke-width="1" stroke="black" d="M 420 320 20 302"/>
<path stroke-width="1" stroke="black" d="M 420 320 63 20"/>
<path stroke-width="1" stroke="black" d="M 20 302 338 115"/>
<path stroke-width="1" stroke="black" d="M 20 302 420 320"/>
<path stroke-width="1" stroke="black" d="M 20 302 63 20"/>
<path stroke-width="1" stroke="black" d="M 63 20 338 115"/>
<path stroke-width="1" stroke="black" d="M 63 20 420 320"/>
<path stroke-width="1" stroke="black" d="M 63 20 20 302"/>
<circle cx="338" cy="115" r="7.0" style="fill:gray;stroke:black;stroke-width:1.0"/>
<circle cx="420" cy="320" r="7.0" style="fill:gray;stroke:black;stroke-width:1.0"/>
<circle cx="20" cy="302" r="7.0" style="fill:gray;stroke:black;stroke-width:1.0"/>
<circle cx="63" cy="20" r="7.0" style="fill:gray;stroke:black;stroke-width:1.0"/>
</svg>
