<svg width="440" height="340" xmlns="http://www.w3.org/2000/svg">
<path stroke-width="1" stroke="black" d="M 258 162 326 288"/>
<path stroke-width="1" stroke="black" d="M 260 142 140 33"/>
<path stroke-width="1" stroke="black" d="M 260 142 41 100"/>
<path stroke-width="1" stroke="black" d="M 260 142 163 127"/>
<path stroke-width="1" stroke="black" d="M 260 142 196 20"/>
<path stroke-width="1" stroke="black" d="M 260 142 31 190"/>
<path stroke-width="1" stroke="black" d="M 260 142 352 56"/>
<path stroke-width="1" stroke="black" d="M 260 142 20 111"/>
<path stroke-width="1" stroke="black" d="M 260 142 161 85"/>
<path stroke-width="1" stroke="black" d="M 260 142 96 280"/>
<path stroke-width="1" stroke="black" d="M 260 142 419 217"/>
<path stroke-width="1" stroke="black" d="M 260 142 220 301"/>
<path stroke-width="1" stroke="black" d="M 260 142 420 123"/>
<path stroke-width="1" stroke="black" d="M 260 142 366 208"/>
<path stroke-width="1" stroke="black" d="M 260 142 405 217"/>
<path stroke-width="1" stroke="black" d="M 260 142 329 92"/>
<path stroke-width="1" stroke="black" d="M 260 142 102 206"/>
<path stroke-width="1" stroke="black" d="M 260 142 209 268"/>
<path stroke-width="1" stroke="black" d="M 260 142 418 118"/>
<path stroke-width="1" stroke="black" d="M 260 142 326 288"/>
<path stroke-width="1" stroke="black" d="M 405 217 409 214"/>
<path stroke-width="1" stroke="black" d="M 405 217 352 56"/>
<path stroke-width="1" stroke="black" d="M 405 217 20 111"/>
<path stroke-width="1" stroke="black" d="M 405 217 96 280"/>
<path stroke-width="1" stroke="black" d="M 405 217 209 268"/>
<path stroke-width="1" stroke="black" d="M 405 217 419 217"/>
<path stroke-width="1" stroke="black" d="M 405 217 220 301"/>
<path stroke-width="1" stroke="black" d="M 405 217 420 123"/>
<path stroke-width="1" stroke="black" d="M 260 142 258 162"/>
<path stroke-width="1" stroke="black" d="M 405 217 366 208"/>
<path stroke-width="1" stroke="black" d="M 405 217 329 92"/>
<path stroke-width="1" stroke="black" d="M 405 217 102 206"/>
<path stroke-width="1" stroke="black" d="M 405 217 418 118"/>
<path stroke-width="1" stroke="black" d="M 405 217 227 24"/>
<path stroke-width="1" stroke="black" d="M 405 217 34 187"/>
<path stroke-width="1" stroke="black" d="M 405 217 79 270"/>
<path stroke-width="1" stroke="black" d="M 405 217 304 320"/>
<path stroke-width="1" stroke="black" d="M 405 217 260 142"/>
<path stroke-width="1" stroke="black" d="M 260 142 227 24"/>
<path stroke-width="1" stroke="black" d="M 260 142 34 187"/>
<path stroke-width="1" stroke="black" d="M 260 142 79 270"/>
<path stroke-width="1" stroke="black" d="M 329 92 418 118"/>
<path stroke-width="1" stroke="black" d="M 329 92 227 24"/>
<path stroke-width="1" stroke="black" d="M 329 92 34 187"/>
<path stroke-width="1" stroke="black" d="M 329 92 79 270"/>
<path stroke-width="1" stroke="black" d="M 329 92 304 320"/>
<path stroke-width="1" stroke="black" d="M 329 92 409 214"/>
<path stroke-width="1" stroke="black" d="M 102 206 258 162"/>
<path stroke-width="1" stroke="black" d="M 329 92 102 206"/>
<path stroke-width="1" stroke="black" d="M 102 206 326 288"/>
<path stroke-width="1" stroke="black" d="M 102 206 140 33"/>
<path stroke-width="1" stroke="black" d="M 102 206 41 100"/>
<path stroke-width="1" stroke="black" d="M 102 206 163 127"/>
<path stroke-width="1" stroke="black" d="M 102 206 196 20"/>
<path stroke-width="1" stroke="black" d="M 102 206 31 190"/>
<path stroke-width="1" stroke="black" d="M 102 206 352 56"/>
<path stroke-width="1" stroke="black" d="M 102 206 20 111"/>
<path stroke-width="1" stroke="black" d="M 102 206 161 85"/>
<path stroke-width="1" stroke="black" d="M 329 92 260 142"/>
<path stroke-width="1" stroke="black" d="M 329 92 405 217"/>
<path stroke-width="1" stroke="black" d="M 329 92 366 208"/>
<path stroke-width="1" stroke="black" d="M 260 142 304 320"/>
<path stroke-width="1" stroke="black" d="M 260 142 409 214"/>
<path stroke-width="1" stroke="black" d="M 329 92 258 162"/>
<path stroke-width="1" stroke="black" d="M 329 92 326 288"/>
<path stroke-width="1" stroke="black" d="M 329 92 161 85"/>
<path stroke-width="1" stroke="black" d="M 329 92 140 33"/>
<path stroke-width="1" stroke="black" d="M 329 92 41 100"/>
<path stroke-width="1" stroke="black" d="M 329 92 163 127"/>
<path stroke-width="1" stroke="black" d="M 329 92 196 20"/>
<path stroke-width="1" stroke="black" d="M 329 92 31 190"/>
<path stroke-width="1" stroke="black" d="M 329 92 352 56"/>
<path stroke-width="1" stroke="black" d="M 329 92 20 111"/>
<path stroke-width="1" stroke="black" d="M 329 92 96 280"/>
<path stroke-width="1" stroke="black" d="M 329 92 209 268"/>
<path stroke-width="1" stroke="black" d="M 329 92 419 217"/>
<path stroke-width="1" stroke="black" d="M 329 92 220 301"/>
<path stroke-width="1" stroke="black" d="M 329 92 420 123"/>
<path stroke-width="1" stroke="black" d="M 405 217 31 190"/>
<path stroke-width="1" stroke="black" d="M 102 206 96 280"/>
<path stroke-width="1" stroke="black" d="M 405 217 196 20"/>
<path stroke-width="1" stroke="black" d="M 405 217 41 100"/>
<path stroke-width="1" stroke="black" d="M 220 301 79 270"/>
<path stroke-width="1" stroke="black" d="M 220 301 304 320"/>
<path stroke-width="1" stroke="black" d="M 220 301 409 214"/>
<path stroke-width="1" stroke="black" d="M 420 123 258 162"/>
<path stroke-width="1" stroke="black" d="M 420 123 326 288"/>
<path stroke-width="1" stroke="black" d="M 420 123 161 85"/>
<path stroke-width="1" stroke="black" d="M 420 123 140 33"/>
<path stroke-width="1" stroke="black" d="M 220 301 34 187"/>
<path stroke-width="1" stroke="black" d="M 420 123 41 100"/>
<path stroke-width="1" stroke="black" d="M 420 123 196 20"/>
<path stroke-width="1" stroke="black" d="M 420 123 31 190"/>
<path stroke-width="1" stroke="black" d="M 420 123 352 56"/>
<path stroke-width="1" stroke="black" d="M 420 123 20 111"/>
<path stroke-width="1" stroke="black" d="M 420 123 96 280"/>
<path stroke-width="1" stroke="black" d="M 420 123 209 268"/>
<path stroke-width="1" stroke="black" d="M 420 123 419 217"/>
<path stroke-width="1" stroke="black" d="M 420 123 163 127"/>
<path stroke-width="1" stroke="black" d="M 420 123 220 301"/>
<path stroke-width="1" stroke="black" d="M 220 301 227 24"/>
<path stroke-width="1" stroke="black" d="M 220 301 102 206"/>
<path stroke-width="1" stroke="black" d="M 220 301 161 85"/>
<path stroke-width="1" stroke="black" d="M 220 301 140 33"/>
<path stroke-width="1" stroke="black" d="M 220 301 41 100"/>
<path stroke-width="1" stroke="black" d="M 220 301 163 127"/>
<path stroke-width="1" stroke="black" d="M 220 301 196 20"/>
<path stroke-width="1" stroke="black" d="M 220 301 31 190"/>
<path stroke-width="1" stroke="black" d="M 220 301 352 56"/>
<path stroke-width="1" stroke="black" d="M 220 301 418 118"/>
<path stroke-width="1" stroke="black" d="M 220 301 20 111"/>
<path stroke-width="1" stroke="black" d="M 220 301 209 268"/>
<path stroke-width="1" stroke="black" d="M 220 301 419 217"/>
<path stroke-width="1" stroke="black" d="M 220 301 420 123"/>
<path stroke-width="1" stroke="black" d="M 220 301 366 208"/>
<path stroke-width="1" stroke="black" d="M 220 301 405 217"/>
<path stroke-width="1" stroke="black" d="M 220 301 260 142"/>
<path stroke-width="1" stroke="black" d="M 220 301 329 92"/>
<path stroke-width="1" stroke="black" d="M 220 301 96 280"/>
<path stroke-width="1" stroke="black" d="M 420 123 366 208"/>
<path stroke-width="1" stroke="black" d="M 420 123 405 217"/>
<path stroke-width="1" stroke="black" d="M 420 123 260 142"/>
<path stroke-width="1" stroke="black" d="M 366 208 220 301"/>
<path stroke-width="1" stroke="black" d="M 366 208 420 123"/>
<path stroke-width="1" stroke="black" d="M 366 208 405 217"/>
<path stroke-width="1" stroke="black" d="M 366 208 260 142"/>
<path stroke-width="1" stroke="black" d="M 366 208 329 92"/>
<path stroke-width="1" stroke="black" d="M 366 208 102 206"/>
<path stroke-width="1" stroke="black" d="M 366 208 418 118"/>
<path stroke-width="1" stroke="black" d="M 366 208 419 217"/>
<path stroke-width="1" stroke="black" d="M 366 208 227 24"/>
<path stroke-width="1" stroke="black" d="M 366 208 79 270"/>
<path stroke-width="1" stroke="black" d="M 366 208 304 320"/>
<path stroke-width="1" stroke="black" d="M 366 208 409 214"/>
<path stroke-width="1" stroke="black" d="M 405 217 258 162"/>
<path stroke-width="1" stroke="black" d="M 405 217 326 288"/>
<path stroke-width="1" stroke="black" d="M 405 217 161 85"/>
<path stroke-width="1" stroke="black" d="M 405 217 140 33"/>
<path stroke-width="1" stroke="black" d="M 366 208 34 187"/>
<path stroke-width="1" stroke="black" d="M 366 208 209 268"/>
<path stroke-width="1" stroke="black" d="M 366 208 96 280"/>
<path stroke-width="1" stroke="black" d="M 366 208 20 111"/>
<path stroke-width="1" stroke="black" d="M 420 123 329 92"/>
<path stroke-width="1" stroke="black" d="M 420 123 102 206"/>
<path stroke-width="1" stroke="black" d="M 420 123 418 118"/>
<path stroke-width="1" stroke="black" d="M 420 123 227 24"/>
<path stroke-width="1" stroke="black" d="M 420 123 34 187"/>
<path stroke-width="1" stroke="black" d="M 420 123 79 270"/>
<path stroke-width="1" stroke="black" d="M 420 123 304 320"/>
<path stroke-width="1" stroke="black" d="M 420 123 409 214"/>
<path stroke-width="1" stroke="black" d="M 366 208 258 162"/>
<path stroke-width="1" stroke="black" d="M 366 208 326 288"/>
<path stroke-width="1" stroke="black" d="M 366 208 161 85"/>
<path stroke-width="1" stroke="black" d="M 366 208 140 33"/>
<path stroke-width="1" stroke="black" d="M 366 208 41 100"/>
<path stroke-width="1" stroke="black" d="M 366 208 163 127"/>
<path stroke-width="1" stroke="black" d="M 366 208 196 20"/>
<path stroke-width="1" stroke="black" d="M 366 208 31 190"/>
<path stroke-width="1" stroke="black" d="M 366 208 352 56"/>
<path stroke-width="1" stroke="black" d="M 405 217 163 127"/>
<path stroke-width="1" stroke="black" d="M 102 206 209 268"/>
<path stroke-width="1" stroke="black" d="M 102 206 419 217"/>
<path stroke-width="1" stroke="black" d="M 102 206 220 301"/>
<path stroke-width="1" stroke="black" d="M 79 270 405 217"/>
<path stroke-width="1" stroke="black" d="M 79 270 260 142"/>
<path stroke-width="1" stroke="black" d="M 79 270 329 92"/>
<path stroke-width="1" stroke="black" d="M 79 270 102 206"/>
<path stroke-width="1" stroke="black" d="M 79 270 418 118"/>
<path stroke-width="1" stroke="black" d="M 79 270 227 24"/>
<path stroke-width="1" stroke="black" d="M 79 270 34 187"/>
<path stroke-width="1" stroke="black" d="M 79 270 366 208"/>
<path stroke-width="1" stroke="black" d="M 79 270 304 320"/>
<path stroke-width="1" stroke="black" d="M 304 320 258 162"/>
<path stroke-width="1" stroke="black" d="M 304 320 326 288"/>
<path stroke-width="1" stroke="black" d="M 304 320 161 85"/>
<path stroke-width="1" stroke="black" d="M 304 320 140 33"/>
<path stroke-width="1" stroke="black" d="M 304 320 41 100"/>
<path stroke-width="1" stroke="black" d="M 304 320 163 127"/>
<path stroke-width="1" stroke="black" d="M 304 320 196 20"/>
<path stroke-width="1" stroke="black" d="M 79 270 409 214"/>
<path stroke-width="1" stroke="black" d="M 304 320 31 190"/>
<path stroke-width="1" stroke="black" d="M 79 270 420 123"/>
<path stroke-width="1" stroke="black" d="M 79 270 419 217"/>
<path stroke-width="1" stroke="black" d="M 34 187 227 24"/>
<path stroke-width="1" stroke="black" d="M 34 187 79 270"/>
<path stroke-width="1" stroke="black" d="M 34 187 304 320"/>
<path stroke-width="1" stroke="black" d="M 34 187 409 214"/>
<path stroke-width="1" stroke="black" d="M 79 270 258 162"/>
<path stroke-width="1" stroke="black" d="M 79 270 326 288"/>
<path stroke-width="1" stroke="black" d="M 79 270 161 85"/>
<path stroke-width="1" stroke="black" d="M 79 270 220 301"/>
<path stroke-width="1" stroke="black" d="M 79 270 140 33"/>
<path stroke-width="1" stroke="black" d="M 79 270 163 127"/>
<path stroke-width="1" stroke="black" d="M 79 270 196 20"/>
<path stroke-width="1" stroke="black" d="M 79 270 31 190"/>
<path stroke-width="1" stroke="black" d="M 79 270 352 56"/>
<path stroke-width="1" stroke="black" d="M 79 270 20 111"/>
<path stroke-width="1" stroke="black" d="M 79 270 96 280"/>
<path stroke-width="1" stroke="black" d="M 79 270 209 268"/>
<path stroke-width="1" stroke="black" d="M 79 270 41 100"/>
<path stroke-width="1" stroke="black" d="M 304 320 352 56"/>
<path stroke-width="1" stroke="black" d="M 304 320 20 111"/>
<path stroke-width="1" stroke="black" d="M 304 320 96 280"/>
<path stroke-width="1" stroke="black" d="M 409 214 31 190"/>
<path stroke-width="1" stroke="black" d="M 409 214 352 56"/>
<path stroke-width="1" stroke="black" d="M 409 214 20 111"/>
<path stroke-width="1" stroke="black" d="M 409 214 96 280"/>
<path stroke-width="1" stroke="black" d="M 409 214 209 268"/>
<path stroke-width="1" stroke="black" d="M 409 214 419 217"/>
<path stroke-width="1" stroke="black" d="M 409 214 220 301"/>
<path stroke-width="1" stroke="black" d="M 409 214 196 20"/>
<path stroke-width="1" stroke="black" d="M 409 214 420 123"/>
<path stroke-width="1" stroke="black" d="M 409 214 405 217"/>
<path stroke-width="1" stroke="black" d="M 409 214 260 142"/>
<path stroke-width="1" stroke="black" d="M 409 214 329 92"/>
<path stroke-width="1" stroke="black" d="M 409 214 102 206"/>
<path stroke-width="1" stroke="black" d="M 409 214 418 118"/>
<path stroke-width="1" stroke="black" d="M 409 214 227 24"/>
<path stroke-width="1" stroke="black" d="M 409 214 34 187"/>
<path stroke-width="1" stroke="black" d="M 409 214 366 208"/>
<path stroke-width="1" stroke="black" d="M 409 214 163 127"/>
<path stroke-width="1" stroke="black" d="M 409 214 41 100"/>
<path stroke-width="1" stroke="black" d="M 409 214 140 33"/>
<path stroke-width="1" stroke="black" d="M 304 320 209 268"/>
<path stroke-width="1" stroke="black" d="M 304 320 419 217"/>
<path stroke-width="1" stroke="black" d="M 304 320 220 301"/>
<path stroke-width="1" stroke="black" d="M 304 320 420 123"/>
<path stroke-width="1" stroke="black" d="M 304 320 366 208"/>
<path stroke-width="1" stroke="black" d="M 304 320 405 217"/>
<path stroke-width="1" stroke="black" d="M 304 320 260 142"/>
<path stroke-width="1" stroke="black" d="M 304 320 329 92"/>
<path stroke-width="1" stroke="black" d="M 304 320 102 206"/>
<path stroke-width="1" stroke="black" d="M 304 320 418 118"/>
<path stroke-width="1" stroke="black" d="M 304 320 227 24"/>
<path stroke-width="1" stroke="black" d="M 304 320 34 187"/>
<path stroke-width="1" stroke="black" d="M 304 320 79 270"/>
<path stroke-width="1" stroke="black" d="M 304 320 409 214"/>
<path stroke-width="1" stroke="black" d="M 409 214 258 162"/>
<path stroke-width="1" stroke="black" d="M 409 214 326 288"/>
<path stroke-width="1" stroke="black" d="M 409 214 161 85"/>
<path stroke-width="1" stroke="black" d="M 34 187 418 118"/>
<path stroke-width="1" stroke="black" d="M 34 187 102 206"/>
<path stroke-width="1" stroke="black" d="M 34 187 329 92"/>
<path stroke-width="1" stroke="black" d="M 34 187 260 142"/>
<path stroke-width="1" stroke="black" d="M 418 118 96 280"/>
<path stroke-width="1" stroke="black" d="M 418 118 209 268"/>
<path stroke-width="1" stroke="black" d="M 418 118 419 217"/>
<path stroke-width="1" stroke="black" d="M 418 118 220 301"/>
<path stroke-width="1" stroke="black" d="M 418 118 420 123"/>
<path stroke-width="1" stroke="black" d="M 418 118 366 208"/>
<path stroke-width="1" stroke="black" d="M 418 118 405 217"/>
<path stroke-width="1" stroke="black" d="M 418 118 20 111"/>
<path stroke-width="1" stroke="black" d="M 418 118 260 142"/>
<path stroke-width="1" stroke="black" d="M 418 118 102 206"/>
<path stroke-width="1" stroke="black" d="M 418 118 227 24"/>
<path stroke-width="1" stroke="black" d="M 418 118 34 187"/>
<path stroke-width="1" stroke="black" d="M 418 118 79 270"/>
<path stroke-width="1" stroke="black" d="M 418 118 304 320"/>
<path stroke-width="1" stroke="black" d="M 418 118 409 214"/>
<path stroke-width="1" stroke="black" d="M 227 24 258 162"/>
<path stroke-width="1" stroke="black" d="M 418 118 329 92"/>
<path stroke-width="1" stroke="black" d="M 418 118 352 56"/>
<path stroke-width="1" stroke="black" d="M 418 118 31 190"/>
<path stroke-width="1" stroke="black" d="M 418 118 196 20"/>
<path stroke-width="1" stroke="black" d="M 102 206 420 123"/>
<path stroke-width="1" stroke="black" d="M 102 206 366 208"/>
<path stroke-width="1" stroke="black" d="M 102 206 405 217"/>
<path stroke-width="1" stroke="black" d="M 102 206 260 142"/>
<path stroke-width="1" stroke="black" d="M 102 206 329 92"/>
<path stroke-width="1" stroke="black" d="M 102 206 418 118"/>
<path stroke-width="1" stroke="black" d="M 102 206 227 24"/>
<path stroke-width="1" stroke="black" d="M 102 206 34 187"/>
<path stroke-width="1" stroke="black" d="M 102 206 79 270"/>
<path stroke-width="1" stroke="black" d="M 102 206 304 320"/>
<path stroke-width="1" stroke="black" d="M 102 206 409 214"/>
<path stroke-width="1" stroke="black" d="M 418 118 258 162"/>
<path stroke-width="1" stroke="black" d="M 418 118 326 288"/>
<path stroke-width="1" stroke="black" d="M 418 118 161 85"/>
<path stroke-width="1" stroke="black" d="M 418 118 140 33"/>
<path stroke-width="1" stroke="black" d="M 418 118 41 100"/>
<path stroke-width="1" stroke="black" d="M 418 118 163 127"/>
<path stroke-width="1" stroke="black" d="M 227 24 326 288"/>
<path stroke-width="1" stroke="black" d="M 220 301 326 288"/>
<path stroke-width="1" stroke="black" d="M 227 24 161 85"/>
<path stroke-width="1" stroke="black" d="M 227 24 41 100"/>
<path stroke-width="1" stroke="black" d="M 34 187 326 288"/>
<path stroke-width="1" stroke="black" d="M 34 187 161 85"/>
<path stroke-width="1" stroke="black" d="M 34 187 140 33"/>
<path stroke-width="1" stroke="black" d="M 34 187 41 100"/>
<path stroke-width="1" stroke="black" d="M 34 187 163 127"/>
<path stroke-width="1" stroke="black" d="M 34 187 196 20"/>
<path stroke-width="1" stroke="black" d="M 34 187 31 190"/>
<path stroke-width="1" stroke="black" d="M 34 187 258 162"/>
<path stroke-width="1" stroke="black" d="M 34 187 352 56"/>
<path stroke-width="1" stroke="black" d="M 34 187 96 280"/>
<path stroke-width="1" stroke="black" d="M 34 187 209 268"/>
<path stroke-width="1" stroke="black" d="M 34 187 419 217"/>
<path stroke-width="1" stroke="black" d="M 34 187 220 301"/>
<path stroke-width="1" stroke="black" d="M 34 187 420 123"/>
<path stroke-width="1" stroke="black" d="M 34 187 366 208"/>
<path stroke-width="1" stroke="black" d="M 34 187 405 217"/>
<path stroke-width="1" stroke="black" d="M 34 187 20 111"/>
<path stroke-width="1" stroke="black" d="M 227 24 409 214"/>
<path stroke-width="1" stroke="black" d="M 227 24 304 320"/>
<path stroke-width="1" stroke="black" d="M 227 24 79 270"/>
<path stroke-width="1" stroke="black" d="M 227 24 163 127"/>
<path stroke-width="1" stroke="black" d="M 227 24 196 20"/>
<path stroke-width="1" stroke="black" d="M 227 24 31 190"/>
<path stroke-width="1" stroke="black" d="M 227 24 352 56"/>
<path stroke-width="1" stroke="black" d="M 227 24 20 111"/>
<path stroke-width="1" stroke="black" d="M 227 24 96 280"/>
<path stroke-width="1" stroke="black" d="M 227 24 209 268"/>
<path stroke-width="1" stroke="black" d="M 227 24 419 217"/>
<path stroke-width="1" stroke="black" d="M 227 24 220 301"/>
<path stroke-width="1" stroke="black" d="M 227 24 420 123"/>
<path stroke-width="1" stroke="black" d="M 227 24 366 208"/>
<path stroke-width="1" stroke="black" d="M 227 24 405 217"/>
<path stroke-width="1" stroke="black" d="M 227 24 260 142"/>
<path stroke-width="1" stroke="black" d="M 227 24 329 92"/>
<path stroke-width="1" stroke="black" d="M 227 24 102 206"/>
<path stroke-width="1" stroke="black" d="M 227 24 418 118"/>
<path stroke-width="1" stroke="black" d="M 227 24 34 187"/>
<path stroke-width="1" stroke="black" d="M 227 24 140 33"/>
<path stroke-width="1" stroke="black" d="M 220 301 258 162"/>
<path stroke-width="1" stroke="black" d="M 419 217 409 214"/>
<path stroke-width="1" stroke="black" d="M 419 217 304 320"/>
<path stroke-width="1" stroke="black" d="M 41 100 140 33"/>
<path stroke-width="1" stroke="black" d="M 41 100 163 127"/>
<path stroke-width="1" stroke="black" d="M 41 100 196 20"/>
<path stroke-width="1" stroke="black" d="M 41 100 31 190"/>
<path stroke-width="1" stroke="black" d="M 41 100 352 56"/>
<path stroke-width="1" stroke="black" d="M 41 100 20 111"/>
<path stroke-width="1" stroke="black" d="M 41 100 96 280"/>
<path stroke-width="1" stroke="black" d="M 41 100 161 85"/>
<path stroke-width="1" stroke="black" d="M 41 100 209 268"/>
<path stroke-width="1" stroke="black" d="M 41 100 220 301"/>
<path stroke-width="1" stroke="black" d="M 41 100 420 123"/>
<path stroke-width="1" stroke="black" d="M 41 100 366 208"/>
<path stroke-width="1" stroke="black" d="M 41 100 405 217"/>
<path stroke-width="1" stroke="black" d="M 41 100 260 142"/>
<path stroke-width="1" stroke="black" d="M 41 100 329 92"/>
<path stroke-width="1" stroke="black" d="M 41 100 102 206"/>
<path stroke-width="1" stroke="black" d="M 41 100 419 217"/>
<path stroke-width="1" stroke="black" d="M 41 100 418 118"/>
<path stroke-width="1" stroke="black" d="M 41 100 326 288"/>
<path stroke-width="1" stroke="black" d="M 140 33 409 214"/>
<path stroke-width="1" stroke="black" d="M 140 33 20 111"/>
<path stroke-width="1" stroke="black" d="M 140 33 96 280"/>
<path stroke-width="1" stroke="black" d="M 140 33 209 268"/>
<path stroke-width="1" stroke="black" d="M 140 33 419 217"/>
<path stroke-width="1" stroke="black" d="M 140 33 220 301"/>
<path stroke-width="1" stroke="black" d="M 140 33 420 123"/>
<path stroke-width="1" stroke="black" d="M 140 33 366 208"/>
<path stroke-width="1" stroke="black" d="M 41 100 258 162"/>
<path stroke-width="1" stroke="black" d="M 140 33 405 217"/>
<path stroke-width="1" stroke="black" d="M 140 33 329 92"/>
<path stroke-width="1" stroke="black" d="M 140 33 102 206"/>
<path stroke-width="1" stroke="black" d="M 140 33 418 118"/>
<path stroke-width="1" stroke="black" d="M 140 33 227 24"/>
<path stroke-width="1" stroke="black" d="M 140 33 34 187"/>
<path stroke-width="1" stroke="black" d="M 140 33 79 270"/>
<path stroke-width="1" stroke="black" d="M 140 33 304 320"/>
<path stroke-width="1" stroke="black" d="M 140 33 260 142"/>
<path stroke-width="1" stroke="black" d="M 41 100 227 24"/>
<path stroke-width="1" stroke="black" d="M 41 100 34 187"/>
<path stroke-width="1" stroke="black" d="M 41 100 79 270"/>
<path stroke-width="1" stroke="black" d="M 163 127 418 118"/>
<path stroke-width="1" stroke="black" d="M 163 127 227 24"/>
<path stroke-width="1" stroke="black" d="M 163 127 34 187"/>
<path stroke-width="1" stroke="black" d="M 163 127 79 270"/>
<path stroke-width="1" stroke="black" d="M 163 127 304 320"/>
<path stroke-width="1" stroke="black" d="M 163 127 409 214"/>
<path stroke-width="1" stroke="black" d="M 196 20 258 162"/>
<path stroke-width="1" stroke="black" d="M 163 127 102 206"/>
<path stroke-width="1" stroke="black" d="M 196 20 326 288"/>
<path stroke-width="1" stroke="black" d="M 196 20 140 33"/>
<path stroke-width="1" stroke="black" d="M 196 20 41 100"/>
<path stroke-width="1" stroke="black" d="M 196 20 163 127"/>
<path stroke-width="1" stroke="black" d="M 196 20 31 190"/>
<path stroke-width="1" stroke="black" d="M 196 20 352 56"/>
<path stroke-width="1" stroke="black" d="M 196 20 20 111"/>
<path stroke-width="1" stroke="black" d="M 196 20 96 280"/>
<path stroke-width="1" stroke="black" d="M 196 20 161 85"/>
<path stroke-width="1" stroke="black" d="M 163 127 329 92"/>
<path stroke-width="1" stroke="black" d="M 163 127 260 142"/>
<path stroke-width="1" stroke="black" d="M 163 127 405 217"/>
<path stroke-width="1" stroke="black" d="M 41 100 304 320"/>
<path stroke-width="1" stroke="black" d="M 41 100 409 214"/>
<path stroke-width="1" stroke="black" d="M 163 127 258 162"/>
<path stroke-width="1" stroke="black" d="M 163 127 326 288"/>
<path stroke-width="1" stroke="black" d="M 163 127 161 85"/>
<path stroke-width="1" stroke="black" d="M 163 127 140 33"/>
<path stroke-width="1" stroke="black" d="M 163 127 41 100"/>
<path stroke-width="1" stroke="black" d="M 163 127 196 20"/>
<path stroke-width="1" stroke="black" d="M 163 127 31 190"/>
<path stroke-width="1" stroke="black" d="M 163 127 352 56"/>
<path stroke-width="1" stroke="black" d="M 163 127 20 111"/>
<path stroke-width="1" stroke="black" d="M 163 127 96 280"/>
<path stroke-width="1" stroke="black" d="M 163 127 209 268"/>
<path stroke-width="1" stroke="black" d="M 163 127 419 217"/>
<path stroke-width="1" stroke="black" d="M 163 127 220 301"/>
<path stroke-width="1" stroke="black" d="M 163 127 420 123"/>
<path stroke-width="1" stroke="black" d="M 163 127 366 208"/>
<path stroke-width="1" stroke="black" d="M 140 33 352 56"/>
<path stroke-width="1" stroke="black" d="M 140 33 31 190"/>
<path stroke-width="1" stroke="black" d="M 140 33 196 20"/>
<path stroke-width="1" stroke="black" d="M 140 33 163 127"/>
<path stroke-width="1" stroke="black" d="M 258 162 79 270"/>
<path stroke-width="1" stroke="black" d="M 258 162 304 320"/>
<path stroke-width="1" stroke="black" d="M 258 162 409 214"/>
<path stroke-width="1" stroke="black" d="M 326 288 258 162"/>
<path stroke-width="1" stroke="black" d="M 326 288 161 85"/>
<path stroke-width="1" stroke="black" d="M 326 288 140 33"/>
<path stroke-width="1" stroke="black" d="M 326 288 41 100"/>
<path stroke-width="1" stroke="black" d="M 258 162 34 187"/>
<path stroke-width="1" stroke="black" d="M 326 288 163 127"/>
<path stroke-width="1" stroke="black" d="M 326 288 31 190"/>
<path stroke-width="1" stroke="black" d="M 326 288 352 56"/>
<path stroke-width="1" stroke="black" d="M 326 288 20 111"/>
<path stroke-width="1" stroke="black" d="M 326 288 96 280"/>
<path stroke-width="1" stroke="black" d="M 326 288 209 268"/>
<path stroke-width="1" stroke="black" d="M 326 288 419 217"/>
<path stroke-width="1" stroke="black" d="M 326 288 220 301"/>
<path stroke-width="1" stroke="black" d="M 326 288 196 20"/>
<path stroke-width="1" stroke="black" d="M 258 162 227 24"/>
<path stroke-width="1" stroke="black" d="M 258 162 418 118"/>
<path stroke-width="1" stroke="black" d="M 258 162 102 206"/>
<path stroke-width="1" stroke="black" d="M 258 162 161 85"/>
<path stroke-width="1" stroke="black" d="M 258 162 140 33"/>
<path stroke-width="1" stroke="black" d="M 258 162 41 100"/>
<path stroke-width="1" stroke="black" d="M 258 162 163 127"/>
<path stroke-width="1" stroke="black" d="M 258 162 196 20"/>
<path stroke-width="1" stroke="black" d="M 258 162 31 190"/>
<path stroke-width="1" stroke="black" d="M 258 162 352 56"/>
<path stroke-width="1" stroke="black" d="M 258 162 20 111"/>
<path stroke-width="1" stroke="black" d="M 258 162 96 280"/>
<path stroke-width="1" stroke="black" d="M 258 162 209 268"/>
<path stroke-width="1" stroke="black" d="M 258 162 419 217"/>
<path stroke-width="1" stroke="black" d="M 258 162 220 301"/>
<path stroke-width="1" stroke="black" d="M 258 162 420 123"/>
<path stroke-width="1" stroke="black" d="M 258 162 366 208"/>
<path stroke-width="1" stroke="black" d="M 258 162 405 217"/>
<path stroke-width="1" stroke="black" d="M 258 162 260 142"/>
<path stroke-width="1" stroke="black" d="M 258 162 329 92"/>
<path stroke-width="1" stroke="black" d="M 326 288 420 123"/>
<path stroke-width="1" stroke="black" d="M 196 20 209 268"/>
<path stroke-width="1" stroke="black" d="M 326 288 366 208"/>
<path stroke-width="1" stroke="black" d="M 326 288 260 142"/>
<path stroke-width="1" stroke="black" d="M 161 85 420 123"/>
<path stroke-width="1" stroke="black" d="M 161 85 366 208"/>
<path stroke-width="1" stroke="black" d="M 161 85 405 217"/>
<path stroke-width="1" stroke="black" d="M 161 85 260 142"/>
<path stroke-width="1" stroke="black" d="M 161 85 329 92"/>
<path stroke-width="1" stroke="black" d="M 161 85 102 206"/>
<path stroke-width="1" stroke="black" d="M 161 85 418 118"/>
<path stroke-width="1" stroke="black" d="M 161 85 220 301"/>
<path stroke-width="1" stroke="black" d="M 161 85 227 24"/>
<path stroke-width="1" stroke="black" d="M 161 85 79 270"/>
<path stroke-width="1" stroke="black" d="M 161 85 304 320"/>
<path stroke-width="1" stroke="black" d="M 161 85 409 214"/>
<path stroke-width="1" stroke="black" d="M 140 33 258 162"/>
<path stroke-width="1" stroke="black" d="M 140 33 326 288"/>
<path stroke-width="1" stroke="black" d="M 140 33 161 85"/>
<path stroke-width="1" stroke="black" d="M 140 33 41 100"/>
<path stroke-width="1" stroke="black" d="M 161 85 34 187"/>
<path stroke-width="1" stroke="black" d="M 161 85 419 217"/>
<path stroke-width="1" stroke="black" d="M 161 85 209 268"/>
<path stroke-width="1" stroke="black" d="M 161 85 96 280"/>
<path stroke-width="1" stroke="black" d="M 326 288 329 92"/>
<path stroke-width="1" stroke="black" d="M 326 288 102 206"/>
<path stroke-width="1" stroke="black" d="M 326 288 418 118"/>
<path stroke-width="1" stroke="black" d="M 326 288 227 24"/>
<path stroke-width="1" stroke="black" d="M 326 288 34 187"/>
<path stroke-width="1" stroke="black" d="M 326 288 79 270"/>
<path stroke-width="1" stroke="black" d="M 326 288 304 320"/>
<path stroke-width="1" stroke="black" d="M 326 288 409 214"/>
<path stroke-width="1" stroke="black" d="M 161 85 258 162"/>
<path stroke-width="1" stroke="black" d="M 161 85 326 288"/>
<path stroke-width="1" stroke="black" d="M 161 85 140 33"/>
<path stroke-width="1" stroke="black" d="M 161 85 41 100"/>
<path stroke-width="1" stroke="black" d="M 161 85 163 127"/>
<path stroke-width="1" stroke="black" d="M 161 85 196 20"/>
<path stroke-width="1" stroke="black" d="M 161 85 31 190"/>
<path stroke-width="1" stroke="black" d="M 161 85 352 56"/>
<path stroke-width="1" stroke="black" d="M 161 85 20 111"/>
<path stroke-width="1" stroke="black" d="M 326 288 405 217"/>
<path stroke-width="1" stroke="black" d="M 409 214 79 270"/>
<path stroke-width="1" stroke="black" d="M 196 20 419 217"/>
<path stroke-width="1" stroke="black" d="M 196 20 420 123"/>
<path stroke-width="1" stroke="black" d="M 96 280 260 142"/>
<path stroke-width="1" stroke="black" d="M 96 280 329 92"/>
<path stroke-width="1" stroke="black" d="M 96 280 102 206"/>
<path stroke-width="1" stroke="black" d="M 96 280 418 118"/>
<path stroke-width="1" stroke="black" d="M 96 280 227 24"/>
<path stroke-width="1" stroke="black" d="M 96 280 34 187"/>
<path stroke-width="1" stroke="black" d="M 96 280 79 270"/>
<path stroke-width="1" stroke="black" d="M 96 280 405 217"/>
<path stroke-width="1" stroke="black" d="M 96 280 304 320"/>
<path stroke-width="1" stroke="black" d="M 209 268 258 162"/>
<path stroke-width="1" stroke="black" d="M 209 268 326 288"/>
<path stroke-width="1" stroke="black" d="M 209 268 161 85"/>
<path stroke-width="1" stroke="black" d="M 209 268 140 33"/>
<path stroke-width="1" stroke="black" d="M 209 268 41 100"/>
<path stroke-width="1" stroke="black" d="M 209 268 163 127"/>
<path stroke-width="1" stroke="black" d="M 209 268 196 20"/>
<path stroke-width="1" stroke="black" d="M 96 280 409 214"/>
<path stroke-width="1" stroke="black" d="M 209 268 31 190"/>
<path stroke-width="1" stroke="black" d="M 96 280 366 208"/>
<path stroke-width="1" stroke="black" d="M 96 280 220 301"/>
<path stroke-width="1" stroke="black" d="M 20 111 34 187"/>
<path stroke-width="1" stroke="black" d="M 20 111 79 270"/>
<path stroke-width="1" stroke="black" d="M 20 111 304 320"/>
<path stroke-width="1" stroke="black" d="M 20 111 409 214"/>
<path stroke-width="1" stroke="black" d="M 96 280 258 162"/>
<path stroke-width="1" stroke="black" d="M 96 280 326 288"/>
<path stroke-width="1" stroke="black" d="M 96 280 161 85"/>
<path stroke-width="1" stroke="black" d="M 96 280 420 123"/>
<path stroke-width="1" stroke="black" d="M 96 280 140 33"/>
<path stroke-width="1" stroke="black" d="M 96 280 163 127"/>
<path stroke-width="1" stroke="black" d="M 96 280 196 20"/>
<path stroke-width="1" stroke="black" d="M 96 280 31 190"/>
<path stroke-width="1" stroke="black" d="M 96 280 352 56"/>
<path stroke-width="1" stroke="black" d="M 96 280 20 111"/>
<path stroke-width="1" stroke="black" d="M 96 280 209 268"/>
<path stroke-width="1" stroke="black" d="M 96 280 419 217"/>
<path stroke-width="1" stroke="black" d="M 96 280 41 100"/>
<path stroke-width="1" stroke="black" d="M 209 268 352 56"/>
<path stroke-width="1" stroke="black" d="M 209 268 20 111"/>
<path stroke-width="1" stroke="black" d="M 209 268 96 280"/>
<path stroke-width="1" stroke="black" d="M 419 217 31 190"/>
<path stroke-width="1" stroke="black" d="M 419 217 352 56"/>
<path stroke-width="1" stroke="black" d="M 419 217 20 111"/>
<path stroke-width="1" stroke="black" d="M 419 217 96 280"/>
<path stroke-width="1" stroke="black" d="M 419 217 209 268"/>
<path stroke-width="1" stroke="black" d="M 419 217 220 301"/>
<path stroke-width="1" stroke="black" d="M 419 217 420 123"/>
<path stroke-width="1" stroke="black" d="M 419 217 196 20"/>
<path stroke-width="1" stroke="black" d="M 419 217 366 208"/>
<path stroke-width="1" stroke="black" d="M 419 217 260 142"/>
<path stroke-width="1" stroke="black" d="M 419 217 329 92"/>
<path stroke-width="1" stroke="black" d="M 419 217 102 206"/>
<path stroke-width="1" stroke="black" d="M 419 217 418 118"/>
<path stroke-width="1" stroke="black" d="M 419 217 227 24"/>
<path stroke-width="1" stroke="black" d="M 419 217 34 187"/>
<path stroke-width="1" stroke="black" d="M 419 217 79 270"/>
<path stroke-width="1" stroke="black" d="M 419 217 405 217"/>
<path stroke-width="1" stroke="black" d="M 419 217 163 127"/>
<path stroke-width="1" stroke="black" d="M 419 217 41 100"/>
<path stroke-width="1" stroke="black" d="M 419 217 140 33"/>
<path stroke-width="1" stroke="black" d="M 209 268 419 217"/>
<path stroke-width="1" stroke="black" d="M 209 268 220 301"/>
<path stroke-width="1" stroke="black" d="M 209 268 420 123"/>
<path stroke-width="1" stroke="black" d="M 209 268 366 208"/>
<path stroke-width="1" stroke="black" d="M 209 268 405 217"/>
<path stroke-width="1" stroke="black" d="M 209 268 260 142"/>
<path stroke-width="1" stroke="black" d="M 209 268 329 92"/>
<path stroke-width="1" stroke="black" d="M 209 268 102 206"/>
<path stroke-width="1" stroke="black" d="M 209 268 418 118"/>
<path stroke-width="1" stroke="black" d="M 209 268 227 24"/>
<path stroke-width="1" stroke="black" d="M 209 268 34 187"/>
<path stroke-width="1" stroke="black" d="M 209 268 79 270"/>
<path stroke-width="1" stroke="black" d="M 209 268 304 320"/>
<path stroke-width="1" stroke="black" d="M 209 268 409 214"/>
<path stroke-width="1" stroke="black" d="M 419 217 258 162"/>
<path stroke-width="1" stroke="black" d="M 419 217 326 288"/>
<path stroke-width="1" stroke="black" d="M 419 217 161 85"/>
<path stroke-width="1" stroke="black" d="M 20 111 227 24"/>
<path stroke-width="1" stroke="black" d="M 20 111 418 118"/>
<path stroke-width="1" stroke="black" d="M 20 111 102 206"/>
<path stroke-width="1" stroke="black" d="M 20 111 329 92"/>
<path stroke-width="1" stroke="black" d="M 31 190 209 268"/>
<path stroke-width="1" stroke="black" d="M 31 190 419 217"/>
<path stroke-width="1" stroke="black" d="M 31 190 220 301"/>
<path stroke-width="1" stroke="black" d="M 31 190 420 123"/>
<path stroke-width="1" stroke="black" d="M 31 190 366 208"/>
<path stroke-width="1" stroke="black" d="M 31 190 405 217"/>
<path stroke-width="1" stroke="black" d="M 31 190 260 142"/>
<path stroke-width="1" stroke="black" d="M 31 190 96 280"/>
<path stroke-width="1" stroke="black" d="M 31 190 329 92"/>
<path stroke-width="1" stroke="black" d="M 31 190 418 118"/>
<path stroke-width="1" stroke="black" d="M 31 190 227 24"/>
<path stroke-width="1" stroke="black" d="M 31 190 34 187"/>
<path stroke-width="1" stroke="black" d="M 31 190 79 270"/>
<path stroke-width="1" stroke="black" d="M 31 190 304 320"/>
<path stroke-width="1" stroke="black" d="M 31 190 409 214"/>
<path stroke-width="1" stroke="black" d="M 352 56 258 162"/>
<path stroke-width="1" stroke="black" d="M 31 190 102 206"/>
<path stroke-width="1" stroke="black" d="M 31 190 20 111"/>
<path stroke-width="1" stroke="black" d="M 31 190 352 56"/>
<path stroke-width="1" stroke="black" d="M 31 190 196 20"/>
<path stroke-width="1" stroke="black" d="M 196 20 366 208"/>
<path stroke-width="1" stroke="black" d="M 196 20 405 217"/>
<path stroke-width="1" stroke="black" d="M 196 20 260 142"/>
<path stroke-width="1" stroke="black" d="M 196 20 329 92"/>
<path stroke-width="1" stroke="black" d="M 196 20 102 206"/>
<path stroke-width="1" stroke="black" d="M 196 20 418 118"/>
<path stroke-width="1" stroke="black" d="M 196 20 227 24"/>
<path stroke-width="1" stroke="black" d="M 196 20 34 187"/>
<path stroke-width="1" stroke="black" d="M 196 20 79 270"/>
<path stroke-width="1" stroke="black" d="M 196 20 304 320"/>
<path stroke-width="1" stroke="black" d="M 196 20 409 214"/>
<path stroke-width="1" stroke="black" d="M 31 190 258 162"/>
<path stroke-width="1" stroke="black" d="M 31 190 326 288"/>
<path stroke-width="1" stroke="black" d="M 31 190 161 85"/>
<path stroke-width="1" stroke="black" d="M 31 190 140 33"/>
<path stroke-width="1" stroke="black" d="M 31 190 41 100"/>
<path stroke-width="1" stroke="black" d="M 31 190 163 127"/>
<path stroke-width="1" stroke="black" d="M 352 56 326 288"/>
<path stroke-width="1" stroke="black" d="M 196 20 220 301"/>
<path stroke-width="1" stroke="black" d="M 352 56 161 85"/>
<path stroke-width="1" stroke="black" d="M 352 56 41 100"/>
<path stroke-width="1" stroke="black" d="M 20 111 326 288"/>
<path stroke-width="1" stroke="black" d="M 20 111 161 85"/>
<path stroke-width="1" stroke="black" d="M 20 111 140 33"/>
<path stroke-width="1" stroke="black" d="M 20 111 41 100"/>
<path stroke-width="1" stroke="black" d="M 20 111 163 127"/>
<path stroke-width="1" stroke="black" d="M 20 111 196 20"/>
<path stroke-width="1" stroke="black" d="M 20 111 31 190"/>
<path stroke-width="1" stroke="black" d="M 20 111 258 162"/>
<path stroke-width="1" stroke="black" d="M 20 111 352 56"/>
<path stroke-width="1" stroke="black" d="M 20 111 209 268"/>
<path stroke-width="1" stroke="black" d="M 20 111 419 217"/>
<path stroke-width="1" stroke="black" d="M 20 111 220 301"/>
<path stroke-width="1" stroke="black" d="M 20 111 420 123"/>
<path stroke-width="1" stroke="black" d="M 20 111 366 208"/>
<path stroke-width="1" stroke="black" d="M 20 111 405 217"/>
<path stroke-width="1" stroke="black" d="M 20 111 260 142"/>
<path stroke-width="1" stroke="black" d="M 20 111 96 280"/>
<path stroke-width="1" stroke="black" d="M 352 56 409 214"/>
<path stroke-width="1" stroke="black" d="M 352 56 304 320"/>
<path stroke-width="1" stroke="black" d="M 352 56 79 270"/>
<path stroke-width="1" stroke="black" d="M 352 56 163 127"/>
<path stroke-width="1" stroke="black" d="M 352 56 196 20"/>
<path stroke-width="1" stroke="black" d="M 352 56 31 190"/>
<path stroke-width="1" stroke="black" d="M 352 56 20 111"/>
<path stroke-width="1" stroke="black" d="M 352 56 96 280"/>
<path stroke-width="1" stroke="black" d="M 352 56 209 268"/>
<path stroke-width="1" stroke="black" d="M 352 56 419 217"/>
<path stroke-width="1" stroke="black" d="M 352 56 220 301"/>
<path stroke-width="1" stroke="black" d="M 352 56 420 123"/>
<path stroke-width="1" stroke="black" d="M 352 56 366 208"/>
<path stroke-width="1" stroke="black" d="M 352 56 405 217"/>
<path stroke-width="1" stroke="black" d="M 352 56 260 142"/>
<path stroke-width="1" stroke="black" d="M 352 56 329 92"/>
<path stroke-width="1" stroke="black" d="M 352 56 102 206"/>
<path stroke-width="1" stroke="black" d="M 352 56 418 118"/>
<path stroke-width="1" stroke="black" d="M 352 56 227 24"/>
<path stroke-width="1" stroke="black" d="M 352 56 34 187"/>
<path stroke-width="1" stroke="black" d="M 352 56 140 33"/>
<path stroke-width="1" stroke="black" d="M 409 214 304 320"/>
<circle cx="258" cy="162" r="7.0" style="fill:gray;stroke:black;stroke-width:1.0"/>
<circle cx="326" cy="288" r="7.0" style="fill:gray;stroke:black;stroke-width:1.0"/>
<circle cx="161" cy="85" r="7.0" style="fill:gray;stroke:black;stroke-width:1.0"/>
<circle cx="140" cy="33" r="7.0" style="fill:gray;stroke:black;stroke-width:1.0"/>
<circle cx="41" cy="100" r="7.0" style="fill:gray;stroke:black;stroke-width:1.0"/>
<circle cx="163" cy="127" r="7.0" style="fill:gray;stroke:black;stroke-width:1.0"/>
<circle cx="196" cy="20" r="7.0" style="fill:gray;stroke:black;stroke-width:1.0"/>
<circle cx="31" cy="190" r="7.0" style="fill:gray;stroke:black;stroke-width:1.0"/>
<circle cx="352" cy="56" r="7.0" style="fill:gray;stroke:black;stroke-width:1.0"/>
<circle cx="20" cy="111" r="7.0" style="fill:gray;stroke:black;stroke-width:1.0"/>
<circle cx="96" cy="280" r="7.0" style="fill:gray;stroke:black;stroke-width:1.0"/>
<circle cx="209" cy="268" r="7.0" style="fill:gray;stroke:black;stroke-width:1.0"/>
<circle cx="419" cy="217" r="7.0" style="fill:gray;stroke:black;stroke-width:1.0"/>
<circle cx="220" cy="301" r="7.0" style="fill:gray;stroke:black;stroke-width:1.0"/>
<circle cx="420" cy="123" r="7.0" style="fill:gray;stroke:black;stroke-width:1.0"/>
<circle cx="366" cy="208" r="7.0" style="fill:gray;stroke:black;stroke-width:1.0"/>
<circle cx="405" cy="217" r="7.0" style="fill:gray;stroke:black;stroke-width:1.0"/>
<circle cx="260" cy="142" r="7.0" style="fill:gray;stroke:black;stroke-width:1.0"/>
<circle cx="329" cy="92" r="7.0" style="fill:gray;stroke:black;stroke-width:1.0"/>
<circle cx="102" cy="206" r="7.0" style="fill:gray;stroke:black;stroke-width:1.0"/>
<circle cx="418" cy="118" r="7.0" style="fill:gray;stroke:black;stroke-width:1.0"/>
<circle cx="227" cy="24" r="7.0" style="fill:gray;stroke:black;stroke-width:1.0"/>
<circle cx="34" cy="187" r="7.0" style="fill:gray;stroke:black;stroke-width:1.0"/>
<circle cx="79" cy="270" r="7.0" style="fill:gray;stroke:black;stroke-width:1.0"/>
<circle cx="304" cy="320" r="7.0" style="fill:gray;stroke:black;stroke-width:1.0"/>
<circle cx="409" cy="214" r="7.0" style="fill:gray;stroke:black;stroke-width:1.0"/>
</svg>
