<svg width="440" height="340" xmlns="http://www.w3.org/2000/svg">
<path stroke-width="12.2" stroke="black" d="M 292 138 412 64"/>
<path stroke-width="0.5" stroke="black" d="M 294 122 190 45"/>
<path stroke-width="0.5" stroke="black" d="M 294 122 413 155"/>
<path stroke-width="0.5" stroke="black" d="M 294 122 186 43"/>
<path stroke-width="0.5" stroke="black" d="M 294 122 414 259"/>
<path stroke-width="0.5" stroke="black" d="M 294 122 44 117"/>
<path stroke-width="0.5" stroke="black" d="M 294 122 186 42"/>
<path stroke-width="0.5" stroke="black" d="M 294 122 128 291"/>
<path stroke-width="0.5" stroke="black" d="M 294 122 82 277"/>
<path stroke-width="0.5" stroke="black" d="M 294 122 355 307"/>
<path stroke-width="0.5" stroke="black" d="M 294 122 348 312"/>
<path stroke-width="0.5" stroke="black" d="M 294 122 325 27"/>
<path stroke-width="0.5" stroke="black" d="M 294 122 232 311"/>
<path stroke-width="0.5" stroke="black" d="M 294 122 319 22"/>
<path stroke-width="0.5" stroke="black" d="M 294 122 365 240"/>
<path stroke-width="0.5" stroke="black" d="M 294 122 214 320"/>
<path stroke-width="0.5" stroke="black" d="M 294 122 114 40"/>
<path stroke-width="0.5" stroke="black" d="M 294 122 298 151"/>
<path stroke-width="0.5" stroke="black" d="M 294 122 420 163"/>
<path stroke-width="0.5" stroke="black" d="M 294 122 412 64"/>
<path stroke-width="0.5" stroke="black" d="M 365 240 135 181"/>
<path stroke-width="0.5" stroke="black" d="M 365 240 186 42"/>
<path stroke-width="0.5" stroke="black" d="M 365 240 128 291"/>
<path stroke-width="0.5" stroke="black" d="M 365 240 355 307"/>
<path stroke-width="0.5" stroke="black" d="M 365 240 298 151"/>
<path stroke-width="0.5" stroke="black" d="M 365 240 348 312"/>
<path stroke-width="0.5" stroke="black" d="M 365 240 325 27"/>
<path stroke-width="0.5" stroke="black" d="M 365 240 232 311"/>
<path stroke-width="20.0" stroke="black" d="M 294 122 292 138"/>
<path stroke-width="0.5" stroke="black" d="M 365 240 319 22"/>
<path stroke-width="0.5" stroke="black" d="M 365 240 214 320"/>
<path stroke-width="0.5" stroke="black" d="M 365 240 114 40"/>
<path stroke-width="0.5" stroke="black" d="M 365 240 420 163"/>
<path stroke-width="0.5" stroke="black" d="M 365 240 134 181"/>
<path stroke-width="0.5" stroke="black" d="M 365 240 315 20"/>
<path stroke-width="0.5" stroke="black" d="M 365 240 44 117"/>
<path stroke-width="0.5" stroke="black" d="M 365 240 20 217"/>
<path stroke-width="0.5" stroke="black" d="M 365 240 294 122"/>
<path stroke-width="0.5" stroke="black" d="M 294 122 134 181"/>
<path stroke-width="0.5" stroke="black" d="M 294 122 315 20"/>
<path stroke-width="0.5" stroke="black" d="M 294 122 44 117"/>
<path stroke-width="0.5" stroke="black" d="M 214 320 420 163"/>
<path stroke-width="0.5" stroke="black" d="M 214 320 134 181"/>
<path stroke-width="0.5" stroke="black" d="M 214 320 315 20"/>
<path stroke-width="0.5" stroke="black" d="M 214 320 44 117"/>
<path stroke-width="0.5" stroke="black" d="M 214 320 20 217"/>
<path stroke-width="0.5" stroke="black" d="M 214 320 135 181"/>
<path stroke-width="20.0" stroke="black" d="M 114 40 292 138"/>
<path stroke-width="0.5" stroke="black" d="M 214 320 114 40"/>
<path stroke-width="0.5" stroke="black" d="M 114 40 412 64"/>
<path stroke-width="0.5" stroke="black" d="M 114 40 190 45"/>
<path stroke-width="0.5" stroke="black" d="M 114 40 413 155"/>
<path stroke-width="0.5" stroke="black" d="M 114 40 186 43"/>
<path stroke-width="0.5" stroke="black" d="M 114 40 414 259"/>
<path stroke-width="0.5" stroke="black" d="M 114 40 44 117"/>
<path stroke-width="0.5" stroke="black" d="M 114 40 186 42"/>
<path stroke-width="0.5" stroke="black" d="M 114 40 128 291"/>
<path stroke-width="0.5" stroke="black" d="M 114 40 82 277"/>
<path stroke-width="0.5" stroke="black" d="M 214 320 294 122"/>
<path stroke-width="0.5" stroke="black" d="M 214 320 365 240"/>
<path stroke-width="0.5" stroke="black" d="M 214 320 319 22"/>
<path stroke-width="0.5" stroke="black" d="M 294 122 20 217"/>
<path stroke-width="0.5" stroke="black" d="M 294 122 135 181"/>
<path stroke-width="20.0" stroke="black" d="M 214 320 292 138"/>
<path stroke-width="0.5" stroke="black" d="M 214 320 412 64"/>
<path stroke-width="0.5" stroke="black" d="M 214 320 82 277"/>
<path stroke-width="0.5" stroke="black" d="M 214 320 190 45"/>
<path stroke-width="0.5" stroke="black" d="M 214 320 413 155"/>
<path stroke-width="0.5" stroke="black" d="M 214 320 186 43"/>
<path stroke-width="0.5" stroke="black" d="M 214 320 414 259"/>
<path stroke-width="0.5" stroke="black" d="M 214 320 44 117"/>
<path stroke-width="0.5" stroke="black" d="M 214 320 186 42"/>
<path stroke-width="0.5" stroke="black" d="M 214 320 128 291"/>
<path stroke-width="0.5" stroke="black" d="M 214 320 355 307"/>
<path stroke-width="0.5" stroke="black" d="M 214 320 298 151"/>
<path stroke-width="0.5" stroke="black" d="M 214 320 348 312"/>
<path stroke-width="0.5" stroke="black" d="M 214 320 325 27"/>
<path stroke-width="0.5" stroke="black" d="M 214 320 232 311"/>
<path stroke-width="0.5" stroke="black" d="M 365 240 44 117"/>
<path stroke-width="0.5" stroke="black" d="M 114 40 355 307"/>
<path stroke-width="0.5" stroke="black" d="M 365 240 414 259"/>
<path stroke-width="0.5" stroke="black" d="M 365 240 413 155"/>
<path stroke-width="0.5" stroke="black" d="M 325 27 44 117"/>
<path stroke-width="0.5" stroke="black" d="M 325 27 20 217"/>
<path stroke-width="0.5" stroke="black" d="M 325 27 135 181"/>
<path stroke-width="20.0" stroke="black" d="M 232 311 292 138"/>
<path stroke-width="0.5" stroke="black" d="M 232 311 412 64"/>
<path stroke-width="0.5" stroke="black" d="M 232 311 82 277"/>
<path stroke-width="0.5" stroke="black" d="M 232 311 190 45"/>
<path stroke-width="0.5" stroke="black" d="M 325 27 315 20"/>
<path stroke-width="0.5" stroke="black" d="M 232 311 413 155"/>
<path stroke-width="0.5" stroke="black" d="M 232 311 414 259"/>
<path stroke-width="0.5" stroke="black" d="M 232 311 44 117"/>
<path stroke-width="0.5" stroke="black" d="M 232 311 186 42"/>
<path stroke-width="0.5" stroke="black" d="M 232 311 128 291"/>
<path stroke-width="0.5" stroke="black" d="M 232 311 355 307"/>
<path stroke-width="0.5" stroke="black" d="M 232 311 298 151"/>
<path stroke-width="0.5" stroke="black" d="M 232 311 348 312"/>
<path stroke-width="0.5" stroke="black" d="M 232 311 186 43"/>
<path stroke-width="0.5" stroke="black" d="M 232 311 325 27"/>
<path stroke-width="0.5" stroke="black" d="M 325 27 134 181"/>
<path stroke-width="0.5" stroke="black" d="M 325 27 114 40"/>
<path stroke-width="0.5" stroke="black" d="M 325 27 82 277"/>
<path stroke-width="0.5" stroke="black" d="M 325 27 190 45"/>
<path stroke-width="0.5" stroke="black" d="M 325 27 413 155"/>
<path stroke-width="0.5" stroke="black" d="M 325 27 186 43"/>
<path stroke-width="0.5" stroke="black" d="M 325 27 414 259"/>
<path stroke-width="0.5" stroke="black" d="M 325 27 44 117"/>
<path stroke-width="0.5" stroke="black" d="M 325 27 186 42"/>
<path stroke-width="0.5" stroke="black" d="M 325 27 420 163"/>
<path stroke-width="0.5" stroke="black" d="M 325 27 128 291"/>
<path stroke-width="0.5" stroke="black" d="M 325 27 298 151"/>
<path stroke-width="0.5" stroke="black" d="M 325 27 348 312"/>
<path stroke-width="0.5" stroke="black" d="M 325 27 232 311"/>
<path stroke-width="0.5" stroke="black" d="M 325 27 319 22"/>
<path stroke-width="0.5" stroke="black" d="M 325 27 365 240"/>
<path stroke-width="0.5" stroke="black" d="M 325 27 294 122"/>
<path stroke-width="0.5" stroke="black" d="M 325 27 214 320"/>
<path stroke-width="0.5" stroke="black" d="M 325 27 355 307"/>
<path stroke-width="0.5" stroke="black" d="M 232 311 319 22"/>
<path stroke-width="0.5" stroke="black" d="M 232 311 365 240"/>
<path stroke-width="0.5" stroke="black" d="M 232 311 294 122"/>
<path stroke-width="0.5" stroke="black" d="M 319 22 325 27"/>
<path stroke-width="0.5" stroke="black" d="M 319 22 232 311"/>
<path stroke-width="0.5" stroke="black" d="M 319 22 365 240"/>
<path stroke-width="0.5" stroke="black" d="M 319 22 294 122"/>
<path stroke-width="0.5" stroke="black" d="M 319 22 214 320"/>
<path stroke-width="0.5" stroke="black" d="M 319 22 114 40"/>
<path stroke-width="0.5" stroke="black" d="M 319 22 420 163"/>
<path stroke-width="0.5" stroke="black" d="M 319 22 348 312"/>
<path stroke-width="0.5" stroke="black" d="M 319 22 134 181"/>
<path stroke-width="0.5" stroke="black" d="M 319 22 44 117"/>
<path stroke-width="0.5" stroke="black" d="M 319 22 20 217"/>
<path stroke-width="0.5" stroke="black" d="M 319 22 135 181"/>
<path stroke-width="20.0" stroke="black" d="M 365 240 292 138"/>
<path stroke-width="0.5" stroke="black" d="M 365 240 412 64"/>
<path stroke-width="0.5" stroke="black" d="M 365 240 82 277"/>
<path stroke-width="0.5" stroke="black" d="M 365 240 190 45"/>
<path stroke-width="0.5" stroke="black" d="M 319 22 315 20"/>
<path stroke-width="0.5" stroke="black" d="M 319 22 298 151"/>
<path stroke-width="0.5" stroke="black" d="M 319 22 355 307"/>
<path stroke-width="0.5" stroke="black" d="M 319 22 128 291"/>
<path stroke-width="0.5" stroke="black" d="M 232 311 214 320"/>
<path stroke-width="0.5" stroke="black" d="M 232 311 114 40"/>
<path stroke-width="0.5" stroke="black" d="M 232 311 420 163"/>
<path stroke-width="0.5" stroke="black" d="M 232 311 134 181"/>
<path stroke-width="0.5" stroke="black" d="M 232 311 315 20"/>
<path stroke-width="0.5" stroke="black" d="M 232 311 44 117"/>
<path stroke-width="0.5" stroke="black" d="M 232 311 20 217"/>
<path stroke-width="0.5" stroke="black" d="M 232 311 135 181"/>
<path stroke-width="20.0" stroke="black" d="M 319 22 292 138"/>
<path stroke-width="0.5" stroke="black" d="M 319 22 412 64"/>
<path stroke-width="0.5" stroke="black" d="M 319 22 82 277"/>
<path stroke-width="0.5" stroke="black" d="M 319 22 190 45"/>
<path stroke-width="0.5" stroke="black" d="M 319 22 413 155"/>
<path stroke-width="0.5" stroke="black" d="M 319 22 186 43"/>
<path stroke-width="0.5" stroke="black" d="M 319 22 414 259"/>
<path stroke-width="0.5" stroke="black" d="M 319 22 44 117"/>
<path stroke-width="0.5" stroke="black" d="M 319 22 186 42"/>
<path stroke-width="0.5" stroke="black" d="M 365 240 186 43"/>
<path stroke-width="0.5" stroke="black" d="M 114 40 298 151"/>
<path stroke-width="0.5" stroke="black" d="M 114 40 348 312"/>
<path stroke-width="0.5" stroke="black" d="M 114 40 325 27"/>
<path stroke-width="0.5" stroke="black" d="M 44 117 365 240"/>
<path stroke-width="0.5" stroke="black" d="M 44 117 294 122"/>
<path stroke-width="0.5" stroke="black" d="M 44 117 214 320"/>
<path stroke-width="0.5" stroke="black" d="M 44 117 114 40"/>
<path stroke-width="0.5" stroke="black" d="M 44 117 420 163"/>
<path stroke-width="0.5" stroke="black" d="M 44 117 134 181"/>
<path stroke-width="0.5" stroke="black" d="M 44 117 315 20"/>
<path stroke-width="0.5" stroke="black" d="M 44 117 319 22"/>
<path stroke-width="0.5" stroke="black" d="M 44 117 20 217"/>
<path stroke-width="8.3" stroke="black" d="M 20 217 292 138"/>
<path stroke-width="0.5" stroke="black" d="M 20 217 412 64"/>
<path stroke-width="0.5" stroke="black" d="M 20 217 82 277"/>
<path stroke-width="0.5" stroke="black" d="M 20 217 190 45"/>
<path stroke-width="0.5" stroke="black" d="M 20 217 413 155"/>
<path stroke-width="0.5" stroke="black" d="M 20 217 186 43"/>
<path stroke-width="0.5" stroke="black" d="M 20 217 414 259"/>
<path stroke-width="0.5" stroke="black" d="M 44 117 135 181"/>
<path stroke-width="0.5" stroke="black" d="M 20 217 44 117"/>
<path stroke-width="0.5" stroke="black" d="M 44 117 232 311"/>
<path stroke-width="0.5" stroke="black" d="M 44 117 348 312"/>
<path stroke-width="0.5" stroke="black" d="M 315 20 134 181"/>
<path stroke-width="0.5" stroke="black" d="M 315 20 44 117"/>
<path stroke-width="0.5" stroke="black" d="M 315 20 20 217"/>
<path stroke-width="0.5" stroke="black" d="M 315 20 135 181"/>
<path stroke-width="20.0" stroke="black" d="M 44 117 292 138"/>
<path stroke-width="0.5" stroke="black" d="M 44 117 412 64"/>
<path stroke-width="0.5" stroke="black" d="M 44 117 82 277"/>
<path stroke-width="0.5" stroke="black" d="M 44 117 325 27"/>
<path stroke-width="0.5" stroke="black" d="M 44 117 190 45"/>
<path stroke-width="0.5" stroke="black" d="M 44 117 186 43"/>
<path stroke-width="0.5" stroke="black" d="M 44 117 414 259"/>
<path stroke-width="0.5" stroke="black" d="M 44 117 44 117"/>
<path stroke-width="0.5" stroke="black" d="M 44 117 186 42"/>
<path stroke-width="0.5" stroke="black" d="M 44 117 128 291"/>
<path stroke-width="0.5" stroke="black" d="M 44 117 355 307"/>
<path stroke-width="0.5" stroke="black" d="M 44 117 298 151"/>
<path stroke-width="0.5" stroke="black" d="M 44 117 413 155"/>
<path stroke-width="0.5" stroke="black" d="M 20 217 186 42"/>
<path stroke-width="0.5" stroke="black" d="M 20 217 128 291"/>
<path stroke-width="0.5" stroke="black" d="M 20 217 355 307"/>
<path stroke-width="0.5" stroke="black" d="M 135 181 44 117"/>
<path stroke-width="0.5" stroke="black" d="M 135 181 186 42"/>
<path stroke-width="0.5" stroke="black" d="M 135 181 128 291"/>
<path stroke-width="0.5" stroke="black" d="M 135 181 355 307"/>
<path stroke-width="0.5" stroke="black" d="M 135 181 298 151"/>
<path stroke-width="0.5" stroke="black" d="M 135 181 348 312"/>
<path stroke-width="0.5" stroke="black" d="M 135 181 325 27"/>
<path stroke-width="0.5" stroke="black" d="M 135 181 414 259"/>
<path stroke-width="0.5" stroke="black" d="M 135 181 232 311"/>
<path stroke-width="0.5" stroke="black" d="M 135 181 365 240"/>
<path stroke-width="0.5" stroke="black" d="M 135 181 294 122"/>
<path stroke-width="0.5" stroke="black" d="M 135 181 214 320"/>
<path stroke-width="0.5" stroke="black" d="M 135 181 114 40"/>
<path stroke-width="0.5" stroke="black" d="M 135 181 420 163"/>
<path stroke-width="0.5" stroke="black" d="M 135 181 134 181"/>
<path stroke-width="0.5" stroke="black" d="M 135 181 315 20"/>
<path stroke-width="0.5" stroke="black" d="M 135 181 319 22"/>
<path stroke-width="0.5" stroke="black" d="M 135 181 186 43"/>
<path stroke-width="0.5" stroke="black" d="M 135 181 413 155"/>
<path stroke-width="0.5" stroke="black" d="M 135 181 190 45"/>
<path stroke-width="0.5" stroke="black" d="M 20 217 298 151"/>
<path stroke-width="0.5" stroke="black" d="M 20 217 348 312"/>
<path stroke-width="0.5" stroke="black" d="M 20 217 325 27"/>
<path stroke-width="0.5" stroke="black" d="M 20 217 232 311"/>
<path stroke-width="0.5" stroke="black" d="M 20 217 319 22"/>
<path stroke-width="0.5" stroke="black" d="M 20 217 365 240"/>
<path stroke-width="0.5" stroke="black" d="M 20 217 294 122"/>
<path stroke-width="0.5" stroke="black" d="M 20 217 214 320"/>
<path stroke-width="0.5" stroke="black" d="M 20 217 114 40"/>
<path stroke-width="0.5" stroke="black" d="M 20 217 420 163"/>
<path stroke-width="0.5" stroke="black" d="M 20 217 134 181"/>
<path stroke-width="0.5" stroke="black" d="M 20 217 315 20"/>
<path stroke-width="0.5" stroke="black" d="M 20 217 44 117"/>
<path stroke-width="0.5" stroke="black" d="M 20 217 135 181"/>
<path stroke-width="20.0" stroke="black" d="M 135 181 292 138"/>
<path stroke-width="0.5" stroke="black" d="M 135 181 412 64"/>
<path stroke-width="0.5" stroke="black" d="M 135 181 82 277"/>
<path stroke-width="0.5" stroke="black" d="M 315 20 420 163"/>
<path stroke-width="0.5" stroke="black" d="M 315 20 114 40"/>
<path stroke-width="0.5" stroke="black" d="M 315 20 214 320"/>
<path stroke-width="0.5" stroke="black" d="M 315 20 294 122"/>
<path stroke-width="0.5" stroke="black" d="M 420 163 355 307"/>
<path stroke-width="0.5" stroke="black" d="M 420 163 298 151"/>
<path stroke-width="0.5" stroke="black" d="M 420 163 348 312"/>
<path stroke-width="0.5" stroke="black" d="M 420 163 325 27"/>
<path stroke-width="0.5" stroke="black" d="M 420 163 232 311"/>
<path stroke-width="0.5" stroke="black" d="M 420 163 319 22"/>
<path stroke-width="0.5" stroke="black" d="M 420 163 365 240"/>
<path stroke-width="0.5" stroke="black" d="M 420 163 128 291"/>
<path stroke-width="0.5" stroke="black" d="M 420 163 294 122"/>
<path stroke-width="0.5" stroke="black" d="M 420 163 114 40"/>
<path stroke-width="0.5" stroke="black" d="M 420 163 134 181"/>
<path stroke-width="0.5" stroke="black" d="M 420 163 315 20"/>
<path stroke-width="0.5" stroke="black" d="M 420 163 44 117"/>
<path stroke-width="0.5" stroke="black" d="M 420 163 20 217"/>
<path stroke-width="0.5" stroke="black" d="M 420 163 135 181"/>
<path stroke-width="20.0" stroke="black" d="M 134 181 292 138"/>
<path stroke-width="0.5" stroke="black" d="M 420 163 214 320"/>
<path stroke-width="0.5" stroke="black" d="M 420 163 186 42"/>
<path stroke-width="0.5" stroke="black" d="M 420 163 44 117"/>
<path stroke-width="0.5" stroke="black" d="M 420 163 414 259"/>
<path stroke-width="0.5" stroke="black" d="M 114 40 232 311"/>
<path stroke-width="0.5" stroke="black" d="M 114 40 319 22"/>
<path stroke-width="0.5" stroke="black" d="M 114 40 365 240"/>
<path stroke-width="0.5" stroke="black" d="M 114 40 294 122"/>
<path stroke-width="0.5" stroke="black" d="M 114 40 214 320"/>
<path stroke-width="0.5" stroke="black" d="M 114 40 420 163"/>
<path stroke-width="0.5" stroke="black" d="M 114 40 134 181"/>
<path stroke-width="0.5" stroke="black" d="M 114 40 315 20"/>
<path stroke-width="0.5" stroke="black" d="M 114 40 44 117"/>
<path stroke-width="0.5" stroke="black" d="M 114 40 20 217"/>
<path stroke-width="0.5" stroke="black" d="M 114 40 135 181"/>
<path stroke-width="20.0" stroke="black" d="M 420 163 292 138"/>
<path stroke-width="0.5" stroke="black" d="M 420 163 412 64"/>
<path stroke-width="0.5" stroke="black" d="M 420 163 82 277"/>
<path stroke-width="0.5" stroke="black" d="M 420 163 190 45"/>
<path stroke-width="0.5" stroke="black" d="M 420 163 413 155"/>
<path stroke-width="0.5" stroke="black" d="M 420 163 186 43"/>
<path stroke-width="0.5" stroke="black" d="M 134 181 412 64"/>
<path stroke-width="0.5" stroke="black" d="M 325 27 412 64"/>
<path stroke-width="0.5" stroke="black" d="M 134 181 82 277"/>
<path stroke-width="0.5" stroke="black" d="M 134 181 413 155"/>
<path stroke-width="0.5" stroke="black" d="M 315 20 412 64"/>
<path stroke-width="0.5" stroke="black" d="M 315 20 82 277"/>
<path stroke-width="0.5" stroke="black" d="M 315 20 190 45"/>
<path stroke-width="0.5" stroke="black" d="M 315 20 413 155"/>
<path stroke-width="0.5" stroke="black" d="M 315 20 186 43"/>
<path stroke-width="0.5" stroke="black" d="M 315 20 414 259"/>
<path stroke-width="0.5" stroke="black" d="M 315 20 44 117"/>
<path stroke-width="20.0" stroke="black" d="M 315 20 292 138"/>
<path stroke-width="0.5" stroke="black" d="M 315 20 186 42"/>
<path stroke-width="0.5" stroke="black" d="M 315 20 355 307"/>
<path stroke-width="0.5" stroke="black" d="M 315 20 298 151"/>
<path stroke-width="0.5" stroke="black" d="M 315 20 348 312"/>
<path stroke-width="0.5" stroke="black" d="M 315 20 325 27"/>
<path stroke-width="0.5" stroke="black" d="M 315 20 232 311"/>
<path stroke-width="0.5" stroke="black" d="M 315 20 319 22"/>
<path stroke-width="0.5" stroke="black" d="M 315 20 365 240"/>
<path stroke-width="0.5" stroke="black" d="M 315 20 128 291"/>
<path stroke-width="0.5" stroke="black" d="M 134 181 135 181"/>
<path stroke-width="0.5" stroke="black" d="M 134 181 20 217"/>
<path stroke-width="0.5" stroke="black" d="M 134 181 44 117"/>
<path stroke-width="0.5" stroke="black" d="M 134 181 186 43"/>
<path stroke-width="0.5" stroke="black" d="M 134 181 414 259"/>
<path stroke-width="0.5" stroke="black" d="M 134 181 44 117"/>
<path stroke-width="0.5" stroke="black" d="M 134 181 186 42"/>
<path stroke-width="0.5" stroke="black" d="M 134 181 128 291"/>
<path stroke-width="0.5" stroke="black" d="M 134 181 355 307"/>
<path stroke-width="0.5" stroke="black" d="M 134 181 298 151"/>
<path stroke-width="0.5" stroke="black" d="M 134 181 348 312"/>
<path stroke-width="0.5" stroke="black" d="M 134 181 325 27"/>
<path stroke-width="0.5" stroke="black" d="M 134 181 232 311"/>
<path stroke-width="0.5" stroke="black" d="M 134 181 319 22"/>
<path stroke-width="0.5" stroke="black" d="M 134 181 365 240"/>
<path stroke-width="0.5" stroke="black" d="M 134 181 294 122"/>
<path stroke-width="0.5" stroke="black" d="M 134 181 214 320"/>
<path stroke-width="0.5" stroke="black" d="M 134 181 114 40"/>
<path stroke-width="0.5" stroke="black" d="M 134 181 420 163"/>
<path stroke-width="0.5" stroke="black" d="M 134 181 315 20"/>
<path stroke-width="0.5" stroke="black" d="M 134 181 190 45"/>
<path stroke-width="20.0" stroke="black" d="M 325 27 292 138"/>
<path stroke-width="0.5" stroke="black" d="M 348 312 135 181"/>
<path stroke-width="0.5" stroke="black" d="M 348 312 20 217"/>
<path stroke-width="0.5" stroke="black" d="M 413 155 190 45"/>
<path stroke-width="0.5" stroke="black" d="M 413 155 186 43"/>
<path stroke-width="0.5" stroke="black" d="M 413 155 414 259"/>
<path stroke-width="0.5" stroke="black" d="M 413 155 44 117"/>
<path stroke-width="0.5" stroke="black" d="M 413 155 186 42"/>
<path stroke-width="0.5" stroke="black" d="M 413 155 128 291"/>
<path stroke-width="0.5" stroke="black" d="M 413 155 355 307"/>
<path stroke-width="0.5" stroke="black" d="M 413 155 82 277"/>
<path stroke-width="0.5" stroke="black" d="M 413 155 298 151"/>
<path stroke-width="0.5" stroke="black" d="M 413 155 325 27"/>
<path stroke-width="0.5" stroke="black" d="M 413 155 232 311"/>
<path stroke-width="0.5" stroke="black" d="M 413 155 319 22"/>
<path stroke-width="0.5" stroke="black" d="M 413 155 365 240"/>
<path stroke-width="0.5" stroke="black" d="M 413 155 294 122"/>
<path stroke-width="0.5" stroke="black" d="M 413 155 214 320"/>
<path stroke-width="0.5" stroke="black" d="M 413 155 114 40"/>
<path stroke-width="0.5" stroke="black" d="M 413 155 348 312"/>
<path stroke-width="0.5" stroke="black" d="M 413 155 420 163"/>
<path stroke-width="0.5" stroke="black" d="M 413 155 412 64"/>
<path stroke-width="0.5" stroke="black" d="M 190 45 135 181"/>
<path stroke-width="0.5" stroke="black" d="M 190 45 128 291"/>
<path stroke-width="0.5" stroke="black" d="M 190 45 355 307"/>
<path stroke-width="0.5" stroke="black" d="M 190 45 298 151"/>
<path stroke-width="0.5" stroke="black" d="M 190 45 348 312"/>
<path stroke-width="0.5" stroke="black" d="M 190 45 325 27"/>
<path stroke-width="0.5" stroke="black" d="M 190 45 232 311"/>
<path stroke-width="0.5" stroke="black" d="M 190 45 319 22"/>
<path stroke-width="20.0" stroke="black" d="M 413 155 292 138"/>
<path stroke-width="0.5" stroke="black" d="M 190 45 365 240"/>
<path stroke-width="0.5" stroke="black" d="M 190 45 214 320"/>
<path stroke-width="0.5" stroke="black" d="M 190 45 114 40"/>
<path stroke-width="0.5" stroke="black" d="M 190 45 420 163"/>
<path stroke-width="0.5" stroke="black" d="M 190 45 134 181"/>
<path stroke-width="0.5" stroke="black" d="M 190 45 315 20"/>
<path stroke-width="0.5" stroke="black" d="M 190 45 44 117"/>
<path stroke-width="0.5" stroke="black" d="M 190 45 20 217"/>
<path stroke-width="0.5" stroke="black" d="M 190 45 294 122"/>
<path stroke-width="0.5" stroke="black" d="M 413 155 134 181"/>
<path stroke-width="0.5" stroke="black" d="M 413 155 315 20"/>
<path stroke-width="0.5" stroke="black" d="M 413 155 44 117"/>
<path stroke-width="0.5" stroke="black" d="M 186 43 420 163"/>
<path stroke-width="0.5" stroke="black" d="M 186 43 134 181"/>
<path stroke-width="0.5" stroke="black" d="M 186 43 315 20"/>
<path stroke-width="0.5" stroke="black" d="M 186 43 44 117"/>
<path stroke-width="0.5" stroke="black" d="M 186 43 20 217"/>
<path stroke-width="0.5" stroke="black" d="M 186 43 135 181"/>
<path stroke-width="20.0" stroke="black" d="M 414 259 292 138"/>
<path stroke-width="0.5" stroke="black" d="M 186 43 114 40"/>
<path stroke-width="0.5" stroke="black" d="M 414 259 412 64"/>
<path stroke-width="0.5" stroke="black" d="M 414 259 190 45"/>
<path stroke-width="0.5" stroke="black" d="M 414 259 413 155"/>
<path stroke-width="0.5" stroke="black" d="M 414 259 186 43"/>
<path stroke-width="0.5" stroke="black" d="M 414 259 44 117"/>
<path stroke-width="0.5" stroke="black" d="M 414 259 186 42"/>
<path stroke-width="0.5" stroke="black" d="M 414 259 128 291"/>
<path stroke-width="0.5" stroke="black" d="M 414 259 355 307"/>
<path stroke-width="0.5" stroke="black" d="M 414 259 82 277"/>
<path stroke-width="0.5" stroke="black" d="M 186 43 214 320"/>
<path stroke-width="0.5" stroke="black" d="M 186 43 294 122"/>
<path stroke-width="0.5" stroke="black" d="M 186 43 365 240"/>
<path stroke-width="0.5" stroke="black" d="M 413 155 20 217"/>
<path stroke-width="0.5" stroke="black" d="M 413 155 135 181"/>
<path stroke-width="20.0" stroke="black" d="M 186 43 292 138"/>
<path stroke-width="0.5" stroke="black" d="M 186 43 412 64"/>
<path stroke-width="0.5" stroke="black" d="M 186 43 82 277"/>
<path stroke-width="0.5" stroke="black" d="M 186 43 190 45"/>
<path stroke-width="0.5" stroke="black" d="M 186 43 413 155"/>
<path stroke-width="0.5" stroke="black" d="M 186 43 414 259"/>
<path stroke-width="0.5" stroke="black" d="M 186 43 44 117"/>
<path stroke-width="0.5" stroke="black" d="M 186 43 186 42"/>
<path stroke-width="0.5" stroke="black" d="M 186 43 128 291"/>
<path stroke-width="0.5" stroke="black" d="M 186 43 355 307"/>
<path stroke-width="0.5" stroke="black" d="M 186 43 298 151"/>
<path stroke-width="0.5" stroke="black" d="M 186 43 348 312"/>
<path stroke-width="0.5" stroke="black" d="M 186 43 325 27"/>
<path stroke-width="0.5" stroke="black" d="M 186 43 232 311"/>
<path stroke-width="0.5" stroke="black" d="M 186 43 319 22"/>
<path stroke-width="0.5" stroke="black" d="M 190 45 186 42"/>
<path stroke-width="0.5" stroke="black" d="M 190 45 44 117"/>
<path stroke-width="0.5" stroke="black" d="M 190 45 414 259"/>
<path stroke-width="0.5" stroke="black" d="M 190 45 186 43"/>
<path stroke-width="20.0" stroke="black" d="M 292 138 44 117"/>
<path stroke-width="8.3" stroke="black" d="M 292 138 20 217"/>
<path stroke-width="20.0" stroke="black" d="M 292 138 135 181"/>
<path stroke-width="12.2" stroke="black" d="M 412 64 292 138"/>
<path stroke-width="0.5" stroke="black" d="M 412 64 82 277"/>
<path stroke-width="0.5" stroke="black" d="M 412 64 190 45"/>
<path stroke-width="0.5" stroke="black" d="M 412 64 413 155"/>
<path stroke-width="20.0" stroke="black" d="M 292 138 315 20"/>
<path stroke-width="0.5" stroke="black" d="M 412 64 186 43"/>
<path stroke-width="0.5" stroke="black" d="M 412 64 44 117"/>
<path stroke-width="0.5" stroke="black" d="M 412 64 186 42"/>
<path stroke-width="0.5" stroke="black" d="M 412 64 128 291"/>
<path stroke-width="0.5" stroke="black" d="M 412 64 355 307"/>
<path stroke-width="0.5" stroke="black" d="M 412 64 298 151"/>
<path stroke-width="0.5" stroke="black" d="M 412 64 348 312"/>
<path stroke-width="0.5" stroke="black" d="M 412 64 325 27"/>
<path stroke-width="0.5" stroke="black" d="M 412 64 414 259"/>
<path stroke-width="20.0" stroke="black" d="M 292 138 134 181"/>
<path stroke-width="20.0" stroke="black" d="M 292 138 420 163"/>
<path stroke-width="20.0" stroke="black" d="M 292 138 114 40"/>
<path stroke-width="16.1" stroke="black" d="M 292 138 82 277"/>
<path stroke-width="20.0" stroke="black" d="M 292 138 190 45"/>
<path stroke-width="20.0" stroke="black" d="M 292 138 413 155"/>
<path stroke-width="20.0" stroke="black" d="M 292 138 186 43"/>
<path stroke-width="20.0" stroke="black" d="M 292 138 414 259"/>
<path stroke-width="20.0" stroke="black" d="M 292 138 44 117"/>
<path stroke-width="20.0" stroke="black" d="M 292 138 186 42"/>
<path stroke-width="20.0" stroke="black" d="M 292 138 128 291"/>
<path stroke-width="20.0" stroke="black" d="M 292 138 355 307"/>
<path stroke-width="20.0" stroke="black" d="M 292 138 298 151"/>
<path stroke-width="20.0" stroke="black" d="M 292 138 348 312"/>
<path stroke-width="20.0" stroke="black" d="M 292 138 325 27"/>
<path stroke-width="20.0" stroke="black" d="M 292 138 232 311"/>
<path stroke-width="20.0" stroke="black" d="M 292 138 319 22"/>
<path stroke-width="20.0" stroke="black" d="M 292 138 365 240"/>
<path stroke-width="20.0" stroke="black" d="M 292 138 294 122"/>
<path stroke-width="20.0" stroke="black" d="M 292 138 214 320"/>
<path stroke-width="0.5" stroke="black" d="M 412 64 232 311"/>
<path stroke-width="0.5" stroke="black" d="M 414 259 298 151"/>
<path stroke-width="0.5" stroke="black" d="M 412 64 319 22"/>
<path stroke-width="0.5" stroke="black" d="M 412 64 294 122"/>
<path stroke-width="0.5" stroke="black" d="M 82 277 232 311"/>
<path stroke-width="0.5" stroke="black" d="M 82 277 319 22"/>
<path stroke-width="0.5" stroke="black" d="M 82 277 365 240"/>
<path stroke-width="0.5" stroke="black" d="M 82 277 294 122"/>
<path stroke-width="0.5" stroke="black" d="M 82 277 214 320"/>
<path stroke-width="0.5" stroke="black" d="M 82 277 114 40"/>
<path stroke-width="0.5" stroke="black" d="M 82 277 420 163"/>
<path stroke-width="0.5" stroke="black" d="M 82 277 325 27"/>
<path stroke-width="0.5" stroke="black" d="M 82 277 134 181"/>
<path stroke-width="0.5" stroke="black" d="M 82 277 44 117"/>
<path stroke-width="0.5" stroke="black" d="M 82 277 20 217"/>
<path stroke-width="0.5" stroke="black" d="M 82 277 135 181"/>
<path stroke-width="20.0" stroke="black" d="M 190 45 292 138"/>
<path stroke-width="0.5" stroke="black" d="M 190 45 412 64"/>
<path stroke-width="0.5" stroke="black" d="M 190 45 82 277"/>
<path stroke-width="0.5" stroke="black" d="M 190 45 413 155"/>
<path stroke-width="0.5" stroke="black" d="M 82 277 315 20"/>
<path stroke-width="0.5" stroke="black" d="M 82 277 348 312"/>
<path stroke-width="0.5" stroke="black" d="M 82 277 298 151"/>
<path stroke-width="0.5" stroke="black" d="M 82 277 355 307"/>
<path stroke-width="0.5" stroke="black" d="M 412 64 214 320"/>
<path stroke-width="0.5" stroke="black" d="M 412 64 114 40"/>
<path stroke-width="0.5" stroke="black" d="M 412 64 420 163"/>
<path stroke-width="0.5" stroke="black" d="M 412 64 134 181"/>
<path stroke-width="0.5" stroke="black" d="M 412 64 315 20"/>
<path stroke-width="0.5" stroke="black" d="M 412 64 44 117"/>
<path stroke-width="0.5" stroke="black" d="M 412 64 20 217"/>
<path stroke-width="0.5" stroke="black" d="M 412 64 135 181"/>
<path stroke-width="16.1" stroke="black" d="M 82 277 292 138"/>
<path stroke-width="0.5" stroke="black" d="M 82 277 412 64"/>
<path stroke-width="0.5" stroke="black" d="M 82 277 190 45"/>
<path stroke-width="0.5" stroke="black" d="M 82 277 413 155"/>
<path stroke-width="0.5" stroke="black" d="M 82 277 186 43"/>
<path stroke-width="0.5" stroke="black" d="M 82 277 414 259"/>
<path stroke-width="0.5" stroke="black" d="M 82 277 44 117"/>
<path stroke-width="0.5" stroke="black" d="M 82 277 186 42"/>
<path stroke-width="0.5" stroke="black" d="M 82 277 128 291"/>
<path stroke-width="0.5" stroke="black" d="M 412 64 365 240"/>
<path stroke-width="0.5" stroke="black" d="M 135 181 44 117"/>
<path stroke-width="0.5" stroke="black" d="M 414 259 348 312"/>
<path stroke-width="0.5" stroke="black" d="M 414 259 232 311"/>
<path stroke-width="0.5" stroke="black" d="M 355 307 294 122"/>
<path stroke-width="0.5" stroke="black" d="M 355 307 214 320"/>
<path stroke-width="0.5" stroke="black" d="M 355 307 114 40"/>
<path stroke-width="0.5" stroke="black" d="M 355 307 420 163"/>
<path stroke-width="0.5" stroke="black" d="M 355 307 134 181"/>
<path stroke-width="0.5" stroke="black" d="M 355 307 315 20"/>
<path stroke-width="0.5" stroke="black" d="M 355 307 44 117"/>
<path stroke-width="0.5" stroke="black" d="M 355 307 365 240"/>
<path stroke-width="0.5" stroke="black" d="M 355 307 20 217"/>
<path stroke-width="20.0" stroke="black" d="M 298 151 292 138"/>
<path stroke-width="0.5" stroke="black" d="M 298 151 412 64"/>
<path stroke-width="0.5" stroke="black" d="M 298 151 82 277"/>
<path stroke-width="0.5" stroke="black" d="M 298 151 190 45"/>
<path stroke-width="0.5" stroke="black" d="M 298 151 413 155"/>
<path stroke-width="0.5" stroke="black" d="M 298 151 186 43"/>
<path stroke-width="0.5" stroke="black" d="M 298 151 414 259"/>
<path stroke-width="0.5" stroke="black" d="M 355 307 135 181"/>
<path stroke-width="0.5" stroke="black" d="M 298 151 44 117"/>
<path stroke-width="0.5" stroke="black" d="M 355 307 319 22"/>
<path stroke-width="0.5" stroke="black" d="M 355 307 325 27"/>
<path stroke-width="0.5" stroke="black" d="M 128 291 315 20"/>
<path stroke-width="0.5" stroke="black" d="M 128 291 44 117"/>
<path stroke-width="0.5" stroke="black" d="M 128 291 20 217"/>
<path stroke-width="0.5" stroke="black" d="M 128 291 135 181"/>
<path stroke-width="20.0" stroke="black" d="M 355 307 292 138"/>
<path stroke-width="0.5" stroke="black" d="M 355 307 412 64"/>
<path stroke-width="0.5" stroke="black" d="M 355 307 82 277"/>
<path stroke-width="0.5" stroke="black" d="M 355 307 232 311"/>
<path stroke-width="0.5" stroke="black" d="M 355 307 190 45"/>
<path stroke-width="0.5" stroke="black" d="M 355 307 186 43"/>
<path stroke-width="0.5" stroke="black" d="M 355 307 414 259"/>
<path stroke-width="0.5" stroke="black" d="M 355 307 44 117"/>
<path stroke-width="0.5" stroke="black" d="M 355 307 186 42"/>
<path stroke-width="0.5" stroke="black" d="M 355 307 128 291"/>
<path stroke-width="0.5" stroke="black" d="M 355 307 298 151"/>
<path stroke-width="0.5" stroke="black" d="M 355 307 348 312"/>
<path stroke-width="0.5" stroke="black" d="M 355 307 413 155"/>
<path stroke-width="0.5" stroke="black" d="M 298 151 186 42"/>
<path stroke-width="0.5" stroke="black" d="M 298 151 128 291"/>
<path stroke-width="0.5" stroke="black" d="M 298 151 355 307"/>
<path stroke-width="0.5" stroke="black" d="M 348 312 44 117"/>
<path stroke-width="0.5" stroke="black" d="M 348 312 186 42"/>
<path stroke-width="0.5" stroke="black" d="M 348 312 128 291"/>
<path stroke-width="0.5" stroke="black" d="M 348 312 355 307"/>
<path stroke-width="0.5" stroke="black" d="M 348 312 298 151"/>
<path stroke-width="0.5" stroke="black" d="M 348 312 325 27"/>
<path stroke-width="0.5" stroke="black" d="M 348 312 232 311"/>
<path stroke-width="0.5" stroke="black" d="M 348 312 414 259"/>
<path stroke-width="0.5" stroke="black" d="M 348 312 319 22"/>
<path stroke-width="0.5" stroke="black" d="M 348 312 294 122"/>
<path stroke-width="0.5" stroke="black" d="M 348 312 214 320"/>
<path stroke-width="0.5" stroke="black" d="M 348 312 114 40"/>
<path stroke-width="0.5" stroke="black" d="M 348 312 420 163"/>
<path stroke-width="0.5" stroke="black" d="M 348 312 134 181"/>
<path stroke-width="0.5" stroke="black" d="M 348 312 315 20"/>
<path stroke-width="0.5" stroke="black" d="M 348 312 44 117"/>
<path stroke-width="0.5" stroke="black" d="M 348 312 365 240"/>
<path stroke-width="0.5" stroke="black" d="M 348 312 186 43"/>
<path stroke-width="0.5" stroke="black" d="M 348 312 413 155"/>
<path stroke-width="0.5" stroke="black" d="M 348 312 190 45"/>
<path stroke-width="0.5" stroke="black" d="M 298 151 348 312"/>
<path stroke-width="0.5" stroke="black" d="M 298 151 325 27"/>
<path stroke-width="0.5" stroke="black" d="M 298 151 232 311"/>
<path stroke-width="0.5" stroke="black" d="M 298 151 319 22"/>
<path stroke-width="0.5" stroke="black" d="M 298 151 365 240"/>
<path stroke-width="0.5" stroke="black" d="M 298 151 294 122"/>
<path stroke-width="0.5" stroke="black" d="M 298 151 214 320"/>
<path stroke-width="0.5" stroke="black" d="M 298 151 114 40"/>
<path stroke-width="0.5" stroke="black" d="M 298 151 420 163"/>
<path stroke-width="0.5" stroke="black" d="M 298 151 134 181"/>
<path stroke-width="0.5" stroke="black" d="M 298 151 315 20"/>
<path stroke-width="0.5" stroke="black" d="M 298 151 44 117"/>
<path stroke-width="0.5" stroke="black" d="M 298 151 20 217"/>
<path stroke-width="0.5" stroke="black" d="M 298 151 135 181"/>
<path stroke-width="20.0" stroke="black" d="M 348 312 292 138"/>
<path stroke-width="0.5" stroke="black" d="M 348 312 412 64"/>
<path stroke-width="0.5" stroke="black" d="M 348 312 82 277"/>
<path stroke-width="0.5" stroke="black" d="M 128 291 134 181"/>
<path stroke-width="0.5" stroke="black" d="M 128 291 420 163"/>
<path stroke-width="0.5" stroke="black" d="M 128 291 114 40"/>
<path stroke-width="0.5" stroke="black" d="M 128 291 214 320"/>
<path stroke-width="0.5" stroke="black" d="M 44 117 298 151"/>
<path stroke-width="0.5" stroke="black" d="M 44 117 348 312"/>
<path stroke-width="0.5" stroke="black" d="M 44 117 325 27"/>
<path stroke-width="0.5" stroke="black" d="M 44 117 232 311"/>
<path stroke-width="0.5" stroke="black" d="M 44 117 319 22"/>
<path stroke-width="0.5" stroke="black" d="M 44 117 365 240"/>
<path stroke-width="0.5" stroke="black" d="M 44 117 294 122"/>
<path stroke-width="0.5" stroke="black" d="M 44 117 355 307"/>
<path stroke-width="0.5" stroke="black" d="M 44 117 214 320"/>
<path stroke-width="0.5" stroke="black" d="M 44 117 420 163"/>
<path stroke-width="0.5" stroke="black" d="M 44 117 134 181"/>
<path stroke-width="0.5" stroke="black" d="M 44 117 315 20"/>
<path stroke-width="0.5" stroke="black" d="M 44 117 44 117"/>
<path stroke-width="0.5" stroke="black" d="M 44 117 20 217"/>
<path stroke-width="0.5" stroke="black" d="M 44 117 135 181"/>
<path stroke-width="20.0" stroke="black" d="M 186 42 292 138"/>
<path stroke-width="0.5" stroke="black" d="M 44 117 114 40"/>
<path stroke-width="0.5" stroke="black" d="M 44 117 128 291"/>
<path stroke-width="0.5" stroke="black" d="M 44 117 186 42"/>
<path stroke-width="0.5" stroke="black" d="M 44 117 414 259"/>
<path stroke-width="0.5" stroke="black" d="M 414 259 319 22"/>
<path stroke-width="0.5" stroke="black" d="M 414 259 365 240"/>
<path stroke-width="0.5" stroke="black" d="M 414 259 294 122"/>
<path stroke-width="0.5" stroke="black" d="M 414 259 214 320"/>
<path stroke-width="0.5" stroke="black" d="M 414 259 114 40"/>
<path stroke-width="0.5" stroke="black" d="M 414 259 420 163"/>
<path stroke-width="0.5" stroke="black" d="M 414 259 134 181"/>
<path stroke-width="0.5" stroke="black" d="M 414 259 315 20"/>
<path stroke-width="0.5" stroke="black" d="M 414 259 44 117"/>
<path stroke-width="0.5" stroke="black" d="M 414 259 20 217"/>
<path stroke-width="0.5" stroke="black" d="M 414 259 135 181"/>
<path stroke-width="20.0" stroke="black" d="M 44 117 292 138"/>
<path stroke-width="0.5" stroke="black" d="M 44 117 412 64"/>
<path stroke-width="0.5" stroke="black" d="M 44 117 82 277"/>
<path stroke-width="0.5" stroke="black" d="M 44 117 190 45"/>
<path stroke-width="0.5" stroke="black" d="M 44 117 413 155"/>
<path stroke-width="0.5" stroke="black" d="M 44 117 186 43"/>
<path stroke-width="0.5" stroke="black" d="M 186 42 412 64"/>
<path stroke-width="0.5" stroke="black" d="M 414 259 325 27"/>
<path stroke-width="0.5" stroke="black" d="M 186 42 82 277"/>
<path stroke-width="0.5" stroke="black" d="M 186 42 413 155"/>
<path stroke-width="0.5" stroke="black" d="M 128 291 412 64"/>
<path stroke-width="0.5" stroke="black" d="M 128 291 82 277"/>
<path stroke-width="0.5" stroke="black" d="M 128 291 190 45"/>
<path stroke-width="0.5" stroke="black" d="M 128 291 413 155"/>
<path stroke-width="0.5" stroke="black" d="M 128 291 186 43"/>
<path stroke-width="0.5" stroke="black" d="M 128 291 414 259"/>
<path stroke-width="0.5" stroke="black" d="M 128 291 44 117"/>
<path stroke-width="20.0" stroke="black" d="M 128 291 292 138"/>
<path stroke-width="0.5" stroke="black" d="M 128 291 186 42"/>
<path stroke-width="0.5" stroke="black" d="M 128 291 298 151"/>
<path stroke-width="0.5" stroke="black" d="M 128 291 348 312"/>
<path stroke-width="0.5" stroke="black" d="M 128 291 325 27"/>
<path stroke-width="0.5" stroke="black" d="M 128 291 232 311"/>
<path stroke-width="0.5" stroke="black" d="M 128 291 319 22"/>
<path stroke-width="0.5" stroke="black" d="M 128 291 365 240"/>
<path stroke-width="0.5" stroke="black" d="M 128 291 294 122"/>
<path stroke-width="0.5" stroke="black" d="M 128 291 355 307"/>
<path stroke-width="0.5" stroke="black" d="M 186 42 135 181"/>
<path stroke-width="0.5" stroke="black" d="M 186 42 20 217"/>
<path stroke-width="0.5" stroke="black" d="M 186 42 44 117"/>
<path stroke-width="0.5" stroke="black" d="M 186 42 186 43"/>
<path stroke-width="0.5" stroke="black" d="M 186 42 414 259"/>
<path stroke-width="0.5" stroke="black" d="M 186 42 44 117"/>
<path stroke-width="0.5" stroke="black" d="M 186 42 128 291"/>
<path stroke-width="0.5" stroke="black" d="M 186 42 355 307"/>
<path stroke-width="0.5" stroke="black" d="M 186 42 298 151"/>
<path stroke-width="0.5" stroke="black" d="M 186 42 348 312"/>
<path stroke-width="0.5" stroke="black" d="M 186 42 325 27"/>
<path stroke-width="0.5" stroke="black" d="M 186 42 232 311"/>
<path stroke-width="0.5" stroke="black" d="M 186 42 319 22"/>
<path stroke-width="0.5" stroke="black" d="M 186 42 365 240"/>
<path stroke-width="0.5" stroke="black" d="M 186 42 294 122"/>
<path stroke-width="0.5" stroke="black" d="M 186 42 214 320"/>
<path stroke-width="0.5" stroke="black" d="M 186 42 114 40"/>
<path stroke-width="0.5" stroke="black" d="M 186 42 420 163"/>
<path stroke-width="0.5" stroke="black" d="M 186 42 134 181"/>
<path stroke-width="0.5" stroke="black" d="M 186 42 315 20"/>
<path stroke-width="0.5" stroke="black" d="M 186 42 190 45"/>
<path stroke-width="0.5" stroke="black" d="M 135 181 20 217"/>
<circle cx="292" cy="138" r="7.0" style="fill:gray;stroke:black;stroke-width:1.0"/>
<circle cx="412" cy="64" r="7.0" style="fill:gray;stroke:black;stroke-width:1.0"/>
<circle cx="82" cy="277" r="7.0" style="fill:gray;stroke:black;stroke-width:1.0"/>
<circle cx="190" cy="45" r="7.0" style="fill:gray;stroke:black;stroke-width:1.0"/>
<circle cx="413" cy="155" r="7.0" style="fill:gray;stroke:black;stroke-width:1.0"/>
<circle cx="186" cy="43" r="7.0" style="fill:gray;stroke:black;stroke-width:1.0"/>
<circle cx="414" cy="259" r="7.0" style="fill:gray;stroke:black;stroke-width:1.0"/>
<circle cx="44" cy="117" r="7.0" style="fill:gray;stroke:black;stroke-width:1.0"/>
<circle cx="186" cy="42" r="7.0" style="fill:gray;stroke:black;stroke-width:1.0"/>
<circle cx="128" cy="291" r="7.0" style="fill:gray;stroke:black;stroke-width:1.0"/>
<circle cx="355" cy="307" r="7.0" style="fill:gray;stroke:black;stroke-width:1.0"/>
<circle cx="298" cy="151" r="7.0" style="fill:gray;stroke:black;stroke-width:1.0"/>
<circle cx="348" cy="312" r="7.0" style="fill:gray;stroke:black;stroke-width:1.0"/>
<circle cx="325" cy="27" r="7.0" style="fill:gray;stroke:black;stroke-width:1.0"/>
<circle cx="232" cy="311" r="7.0" style="fill:gray;stroke:black;stroke-width:1.0"/>
<circle cx="319" cy="22" r="7.0" style="fill:gray;stroke:black;stroke-width:1.0"/>
<circle cx="365" cy="240" r="7.0" style="fill:gray;stroke:black;stroke-width:1.0"/>
<circle cx="294" cy="122" r="7.0" style="fill:gray;stroke:black;stroke-width:1.0"/>
<circle cx="214" cy="320" r="7.0" style="fill:gray;stroke:black;stroke-width:1.0"/>
<circle cx="114" cy="40" r="7.0" style="fill:gray;stroke:black;stroke-width:1.0"/>
<circle cx="420" cy="163" r="7.0" style="fill:gray;stroke:black;stroke-width:1.0"/>
<circle cx="134" cy="181" r="7.0" style="fill:gray;stroke:black;stroke-width:1.0"/>
<circle cx="315" cy="20" r="7.0" style="fill:gray;stroke:black;stroke-width:1.0"/>
<circle cx="44" cy="117" r="7.0" style="fill:gray;stroke:black;stroke-width:1.0"/>
<circle cx="20" cy="217" r="7.0" style="fill:gray;stroke:black;stroke-width:1.0"/>
<circle cx="135" cy="181" r="7.0" style="fill:gray;stroke:black;stroke-width:1.0"/>
</svg>
