<svg width="440" height="340" xmlns="http://www.w3.org/2000/svg">
<path stroke-width="1" stroke="black" d="M 217 163 20 247"/>
<path stroke-width="1" stroke="black" d="M 332 302 300 86"/>
<path stroke-width="1" stroke="black" d="M 332 302 411 121"/>
<path stroke-width="1" stroke="black" d="M 332 302 174 165"/>
<path stroke-width="1" stroke="black" d="M 332 302 411 191"/>
<path stroke-width="1" stroke="black" d="M 332 302 69 148"/>
<path stroke-width="1" stroke="black" d="M 332 302 152 48"/>
<path stroke-width="1" stroke="black" d="M 332 302 398 268"/>
<path stroke-width="1" stroke="black" d="M 332 302 420 199"/>
<path stroke-width="1" stroke="black" d="M 332 302 264 20"/>
<path stroke-width="1" stroke="black" d="M 332 302 300 86"/>
<path stroke-width="1" stroke="black" d="M 332 302 186 184"/>
<path stroke-width="1" stroke="black" d="M 332 302 344 199"/>
<path stroke-width="1" stroke="black" d="M 332 302 151 50"/>
<path stroke-width="1" stroke="black" d="M 332 302 185 290"/>
<path stroke-width="1" stroke="black" d="M 332 302 101 320"/>
<path stroke-width="1" stroke="black" d="M 332 302 146 45"/>
<path stroke-width="1" stroke="black" d="M 332 302 303 88"/>
<path stroke-width="1" stroke="black" d="M 332 302 59 91"/>
<path stroke-width="1" stroke="black" d="M 332 302 20 247"/>
<path stroke-width="1" stroke="black" d="M 185 290 196 298"/>
<path stroke-width="1" stroke="black" d="M 185 290 152 48"/>
<path stroke-width="1" stroke="black" d="M 185 290 398 268"/>
<path stroke-width="1" stroke="black" d="M 185 290 264 20"/>
<path stroke-width="1" stroke="black" d="M 185 290 303 88"/>
<path stroke-width="1" stroke="black" d="M 185 290 300 86"/>
<path stroke-width="1" stroke="black" d="M 185 290 186 184"/>
<path stroke-width="1" stroke="black" d="M 185 290 344 199"/>
<path stroke-width="1" stroke="black" d="M 332 302 217 163"/>
<path stroke-width="1" stroke="black" d="M 185 290 151 50"/>
<path stroke-width="1" stroke="black" d="M 185 290 101 320"/>
<path stroke-width="1" stroke="black" d="M 185 290 146 45"/>
<path stroke-width="1" stroke="black" d="M 185 290 59 91"/>
<path stroke-width="1" stroke="black" d="M 185 290 59 216"/>
<path stroke-width="1" stroke="black" d="M 185 290 327 309"/>
<path stroke-width="1" stroke="black" d="M 185 290 87 310"/>
<path stroke-width="1" stroke="black" d="M 185 290 20 168"/>
<path stroke-width="1" stroke="black" d="M 185 290 332 302"/>
<path stroke-width="1" stroke="black" d="M 332 302 59 216"/>
<path stroke-width="1" stroke="black" d="M 332 302 327 309"/>
<path stroke-width="1" stroke="black" d="M 332 302 87 310"/>
<path stroke-width="1" stroke="black" d="M 101 320 59 91"/>
<path stroke-width="1" stroke="black" d="M 101 320 59 216"/>
<path stroke-width="1" stroke="black" d="M 101 320 327 309"/>
<path stroke-width="1" stroke="black" d="M 101 320 87 310"/>
<path stroke-width="1" stroke="black" d="M 101 320 20 168"/>
<path stroke-width="1" stroke="black" d="M 101 320 196 298"/>
<path stroke-width="1" stroke="black" d="M 146 45 217 163"/>
<path stroke-width="1" stroke="black" d="M 101 320 146 45"/>
<path stroke-width="1" stroke="black" d="M 146 45 20 247"/>
<path stroke-width="1" stroke="black" d="M 146 45 300 86"/>
<path stroke-width="1" stroke="black" d="M 146 45 411 121"/>
<path stroke-width="1" stroke="black" d="M 146 45 174 165"/>
<path stroke-width="1" stroke="black" d="M 146 45 411 191"/>
<path stroke-width="1" stroke="black" d="M 146 45 69 148"/>
<path stroke-width="1" stroke="black" d="M 146 45 152 48"/>
<path stroke-width="1" stroke="black" d="M 146 45 398 268"/>
<path stroke-width="1" stroke="black" d="M 146 45 420 199"/>
<path stroke-width="1" stroke="black" d="M 101 320 332 302"/>
<path stroke-width="1" stroke="black" d="M 101 320 185 290"/>
<path stroke-width="1" stroke="black" d="M 101 320 151 50"/>
<path stroke-width="1" stroke="black" d="M 332 302 20 168"/>
<path stroke-width="1" stroke="black" d="M 332 302 196 298"/>
<path stroke-width="1" stroke="black" d="M 101 320 217 163"/>
<path stroke-width="1" stroke="black" d="M 101 320 20 247"/>
<path stroke-width="1" stroke="black" d="M 101 320 420 199"/>
<path stroke-width="1" stroke="black" d="M 101 320 300 86"/>
<path stroke-width="1" stroke="black" d="M 101 320 411 121"/>
<path stroke-width="1" stroke="black" d="M 101 320 174 165"/>
<path stroke-width="1" stroke="black" d="M 101 320 411 191"/>
<path stroke-width="1" stroke="black" d="M 101 320 69 148"/>
<path stroke-width="1" stroke="black" d="M 101 320 152 48"/>
<path stroke-width="1" stroke="black" d="M 101 320 398 268"/>
<path stroke-width="1" stroke="black" d="M 101 320 264 20"/>
<path stroke-width="1" stroke="black" d="M 101 320 303 88"/>
<path stroke-width="1" stroke="black" d="M 101 320 300 86"/>
<path stroke-width="1" stroke="black" d="M 101 320 186 184"/>
<path stroke-width="1" stroke="black" d="M 101 320 344 199"/>
<path stroke-width="1" stroke="black" d="M 185 290 69 148"/>
<path stroke-width="1" stroke="black" d="M 146 45 264 20"/>
<path stroke-width="1" stroke="black" d="M 185 290 411 191"/>
<path stroke-width="1" stroke="black" d="M 185 290 411 121"/>
<path stroke-width="1" stroke="black" d="M 186 184 87 310"/>
<path stroke-width="1" stroke="black" d="M 186 184 20 168"/>
<path stroke-width="1" stroke="black" d="M 186 184 196 298"/>
<path stroke-width="1" stroke="black" d="M 344 199 217 163"/>
<path stroke-width="1" stroke="black" d="M 344 199 20 247"/>
<path stroke-width="1" stroke="black" d="M 344 199 420 199"/>
<path stroke-width="1" stroke="black" d="M 344 199 300 86"/>
<path stroke-width="1" stroke="black" d="M 186 184 327 309"/>
<path stroke-width="1" stroke="black" d="M 344 199 411 121"/>
<path stroke-width="1" stroke="black" d="M 344 199 411 191"/>
<path stroke-width="1" stroke="black" d="M 344 199 69 148"/>
<path stroke-width="1" stroke="black" d="M 344 199 152 48"/>
<path stroke-width="1" stroke="black" d="M 344 199 398 268"/>
<path stroke-width="1" stroke="black" d="M 344 199 264 20"/>
<path stroke-width="1" stroke="black" d="M 344 199 303 88"/>
<path stroke-width="1" stroke="black" d="M 344 199 300 86"/>
<path stroke-width="1" stroke="black" d="M 344 199 174 165"/>
<path stroke-width="1" stroke="black" d="M 344 199 186 184"/>
<path stroke-width="1" stroke="black" d="M 186 184 59 216"/>
<path stroke-width="1" stroke="black" d="M 186 184 146 45"/>
<path stroke-width="1" stroke="black" d="M 186 184 420 199"/>
<path stroke-width="1" stroke="black" d="M 186 184 300 86"/>
<path stroke-width="1" stroke="black" d="M 186 184 411 121"/>
<path stroke-width="1" stroke="black" d="M 186 184 174 165"/>
<path stroke-width="1" stroke="black" d="M 186 184 411 191"/>
<path stroke-width="1" stroke="black" d="M 186 184 69 148"/>
<path stroke-width="1" stroke="black" d="M 186 184 152 48"/>
<path stroke-width="1" stroke="black" d="M 186 184 59 91"/>
<path stroke-width="1" stroke="black" d="M 186 184 398 268"/>
<path stroke-width="1" stroke="black" d="M 186 184 303 88"/>
<path stroke-width="1" stroke="black" d="M 186 184 300 86"/>
<path stroke-width="1" stroke="black" d="M 186 184 344 199"/>
<path stroke-width="1" stroke="black" d="M 186 184 151 50"/>
<path stroke-width="1" stroke="black" d="M 186 184 185 290"/>
<path stroke-width="1" stroke="black" d="M 186 184 332 302"/>
<path stroke-width="1" stroke="black" d="M 186 184 101 320"/>
<path stroke-width="1" stroke="black" d="M 186 184 264 20"/>
<path stroke-width="1" stroke="black" d="M 344 199 151 50"/>
<path stroke-width="1" stroke="black" d="M 344 199 185 290"/>
<path stroke-width="1" stroke="black" d="M 344 199 332 302"/>
<path stroke-width="1" stroke="black" d="M 151 50 186 184"/>
<path stroke-width="1" stroke="black" d="M 151 50 344 199"/>
<path stroke-width="1" stroke="black" d="M 151 50 185 290"/>
<path stroke-width="1" stroke="black" d="M 151 50 332 302"/>
<path stroke-width="1" stroke="black" d="M 151 50 101 320"/>
<path stroke-width="1" stroke="black" d="M 151 50 146 45"/>
<path stroke-width="1" stroke="black" d="M 151 50 59 91"/>
<path stroke-width="1" stroke="black" d="M 151 50 300 86"/>
<path stroke-width="1" stroke="black" d="M 151 50 59 216"/>
<path stroke-width="1" stroke="black" d="M 151 50 87 310"/>
<path stroke-width="1" stroke="black" d="M 151 50 20 168"/>
<path stroke-width="1" stroke="black" d="M 151 50 196 298"/>
<path stroke-width="1" stroke="black" d="M 185 290 217 163"/>
<path stroke-width="1" stroke="black" d="M 185 290 20 247"/>
<path stroke-width="1" stroke="black" d="M 185 290 420 199"/>
<path stroke-width="1" stroke="black" d="M 185 290 300 86"/>
<path stroke-width="1" stroke="black" d="M 151 50 327 309"/>
<path stroke-width="1" stroke="black" d="M 151 50 303 88"/>
<path stroke-width="1" stroke="black" d="M 151 50 264 20"/>
<path stroke-width="1" stroke="black" d="M 151 50 398 268"/>
<path stroke-width="1" stroke="black" d="M 344 199 101 320"/>
<path stroke-width="1" stroke="black" d="M 344 199 146 45"/>
<path stroke-width="1" stroke="black" d="M 344 199 59 91"/>
<path stroke-width="1" stroke="black" d="M 344 199 59 216"/>
<path stroke-width="1" stroke="black" d="M 344 199 327 309"/>
<path stroke-width="1" stroke="black" d="M 344 199 87 310"/>
<path stroke-width="1" stroke="black" d="M 344 199 20 168"/>
<path stroke-width="1" stroke="black" d="M 344 199 196 298"/>
<path stroke-width="1" stroke="black" d="M 151 50 217 163"/>
<path stroke-width="1" stroke="black" d="M 151 50 20 247"/>
<path stroke-width="1" stroke="black" d="M 151 50 420 199"/>
<path stroke-width="1" stroke="black" d="M 151 50 300 86"/>
<path stroke-width="1" stroke="black" d="M 151 50 411 121"/>
<path stroke-width="1" stroke="black" d="M 151 50 174 165"/>
<path stroke-width="1" stroke="black" d="M 151 50 411 191"/>
<path stroke-width="1" stroke="black" d="M 151 50 69 148"/>
<path stroke-width="1" stroke="black" d="M 151 50 152 48"/>
<path stroke-width="1" stroke="black" d="M 185 290 174 165"/>
<path stroke-width="1" stroke="black" d="M 146 45 303 88"/>
<path stroke-width="1" stroke="black" d="M 146 45 300 86"/>
<path stroke-width="1" stroke="black" d="M 146 45 186 184"/>
<path stroke-width="1" stroke="black" d="M 87 310 185 290"/>
<path stroke-width="1" stroke="black" d="M 87 310 332 302"/>
<path stroke-width="1" stroke="black" d="M 87 310 101 320"/>
<path stroke-width="1" stroke="black" d="M 87 310 146 45"/>
<path stroke-width="1" stroke="black" d="M 87 310 59 91"/>
<path stroke-width="1" stroke="black" d="M 87 310 59 216"/>
<path stroke-width="1" stroke="black" d="M 87 310 327 309"/>
<path stroke-width="1" stroke="black" d="M 87 310 151 50"/>
<path stroke-width="1" stroke="black" d="M 87 310 20 168"/>
<path stroke-width="1" stroke="black" d="M 20 168 217 163"/>
<path stroke-width="1" stroke="black" d="M 20 168 20 247"/>
<path stroke-width="1" stroke="black" d="M 20 168 420 199"/>
<path stroke-width="1" stroke="black" d="M 20 168 300 86"/>
<path stroke-width="1" stroke="black" d="M 20 168 411 121"/>
<path stroke-width="1" stroke="black" d="M 20 168 174 165"/>
<path stroke-width="1" stroke="black" d="M 20 168 411 191"/>
<path stroke-width="1" stroke="black" d="M 87 310 196 298"/>
<path stroke-width="1" stroke="black" d="M 20 168 69 148"/>
<path stroke-width="1" stroke="black" d="M 87 310 344 199"/>
<path stroke-width="1" stroke="black" d="M 87 310 300 86"/>
<path stroke-width="1" stroke="black" d="M 327 309 59 216"/>
<path stroke-width="1" stroke="black" d="M 327 309 87 310"/>
<path stroke-width="1" stroke="black" d="M 327 309 20 168"/>
<path stroke-width="1" stroke="black" d="M 327 309 196 298"/>
<path stroke-width="1" stroke="black" d="M 87 310 217 163"/>
<path stroke-width="1" stroke="black" d="M 87 310 20 247"/>
<path stroke-width="1" stroke="black" d="M 87 310 420 199"/>
<path stroke-width="1" stroke="black" d="M 87 310 186 184"/>
<path stroke-width="1" stroke="black" d="M 87 310 300 86"/>
<path stroke-width="1" stroke="black" d="M 87 310 174 165"/>
<path stroke-width="1" stroke="black" d="M 87 310 411 191"/>
<path stroke-width="1" stroke="black" d="M 87 310 69 148"/>
<path stroke-width="1" stroke="black" d="M 87 310 152 48"/>
<path stroke-width="1" stroke="black" d="M 87 310 398 268"/>
<path stroke-width="1" stroke="black" d="M 87 310 264 20"/>
<path stroke-width="1" stroke="black" d="M 87 310 303 88"/>
<path stroke-width="1" stroke="black" d="M 87 310 411 121"/>
<path stroke-width="1" stroke="black" d="M 20 168 152 48"/>
<path stroke-width="1" stroke="black" d="M 20 168 398 268"/>
<path stroke-width="1" stroke="black" d="M 20 168 264 20"/>
<path stroke-width="1" stroke="black" d="M 196 298 69 148"/>
<path stroke-width="1" stroke="black" d="M 196 298 152 48"/>
<path stroke-width="1" stroke="black" d="M 196 298 398 268"/>
<path stroke-width="1" stroke="black" d="M 196 298 264 20"/>
<path stroke-width="1" stroke="black" d="M 196 298 303 88"/>
<path stroke-width="1" stroke="black" d="M 196 298 300 86"/>
<path stroke-width="1" stroke="black" d="M 196 298 186 184"/>
<path stroke-width="1" stroke="black" d="M 196 298 411 191"/>
<path stroke-width="1" stroke="black" d="M 196 298 344 199"/>
<path stroke-width="1" stroke="black" d="M 196 298 185 290"/>
<path stroke-width="1" stroke="black" d="M 196 298 332 302"/>
<path stroke-width="1" stroke="black" d="M 196 298 101 320"/>
<path stroke-width="1" stroke="black" d="M 196 298 146 45"/>
<path stroke-width="1" stroke="black" d="M 196 298 59 91"/>
<path stroke-width="1" stroke="black" d="M 196 298 59 216"/>
<path stroke-width="1" stroke="black" d="M 196 298 327 309"/>
<path stroke-width="1" stroke="black" d="M 196 298 151 50"/>
<path stroke-width="1" stroke="black" d="M 196 298 174 165"/>
<path stroke-width="1" stroke="black" d="M 196 298 411 121"/>
<path stroke-width="1" stroke="black" d="M 196 298 300 86"/>
<path stroke-width="1" stroke="black" d="M 20 168 303 88"/>
<path stroke-width="1" stroke="black" d="M 20 168 300 86"/>
<path stroke-width="1" stroke="black" d="M 20 168 186 184"/>
<path stroke-width="1" stroke="black" d="M 20 168 344 199"/>
<path stroke-width="1" stroke="black" d="M 20 168 151 50"/>
<path stroke-width="1" stroke="black" d="M 20 168 185 290"/>
<path stroke-width="1" stroke="black" d="M 20 168 332 302"/>
<path stroke-width="1" stroke="black" d="M 20 168 101 320"/>
<path stroke-width="1" stroke="black" d="M 20 168 146 45"/>
<path stroke-width="1" stroke="black" d="M 20 168 59 91"/>
<path stroke-width="1" stroke="black" d="M 20 168 59 216"/>
<path stroke-width="1" stroke="black" d="M 20 168 327 309"/>
<path stroke-width="1" stroke="black" d="M 20 168 87 310"/>
<path stroke-width="1" stroke="black" d="M 20 168 196 298"/>
<path stroke-width="1" stroke="black" d="M 196 298 217 163"/>
<path stroke-width="1" stroke="black" d="M 196 298 20 247"/>
<path stroke-width="1" stroke="black" d="M 196 298 420 199"/>
<path stroke-width="1" stroke="black" d="M 327 309 59 91"/>
<path stroke-width="1" stroke="black" d="M 327 309 146 45"/>
<path stroke-width="1" stroke="black" d="M 327 309 101 320"/>
<path stroke-width="1" stroke="black" d="M 327 309 332 302"/>
<path stroke-width="1" stroke="black" d="M 59 91 264 20"/>
<path stroke-width="1" stroke="black" d="M 59 91 303 88"/>
<path stroke-width="1" stroke="black" d="M 59 91 300 86"/>
<path stroke-width="1" stroke="black" d="M 59 91 186 184"/>
<path stroke-width="1" stroke="black" d="M 59 91 344 199"/>
<path stroke-width="1" stroke="black" d="M 59 91 151 50"/>
<path stroke-width="1" stroke="black" d="M 59 91 185 290"/>
<path stroke-width="1" stroke="black" d="M 59 91 398 268"/>
<path stroke-width="1" stroke="black" d="M 59 91 332 302"/>
<path stroke-width="1" stroke="black" d="M 59 91 146 45"/>
<path stroke-width="1" stroke="black" d="M 59 91 59 216"/>
<path stroke-width="1" stroke="black" d="M 59 91 327 309"/>
<path stroke-width="1" stroke="black" d="M 59 91 87 310"/>
<path stroke-width="1" stroke="black" d="M 59 91 20 168"/>
<path stroke-width="1" stroke="black" d="M 59 91 196 298"/>
<path stroke-width="1" stroke="black" d="M 59 216 217 163"/>
<path stroke-width="1" stroke="black" d="M 59 91 101 320"/>
<path stroke-width="1" stroke="black" d="M 59 91 152 48"/>
<path stroke-width="1" stroke="black" d="M 59 91 69 148"/>
<path stroke-width="1" stroke="black" d="M 59 91 411 191"/>
<path stroke-width="1" stroke="black" d="M 146 45 344 199"/>
<path stroke-width="1" stroke="black" d="M 146 45 151 50"/>
<path stroke-width="1" stroke="black" d="M 146 45 185 290"/>
<path stroke-width="1" stroke="black" d="M 146 45 332 302"/>
<path stroke-width="1" stroke="black" d="M 146 45 101 320"/>
<path stroke-width="1" stroke="black" d="M 146 45 59 91"/>
<path stroke-width="1" stroke="black" d="M 146 45 59 216"/>
<path stroke-width="1" stroke="black" d="M 146 45 327 309"/>
<path stroke-width="1" stroke="black" d="M 146 45 87 310"/>
<path stroke-width="1" stroke="black" d="M 146 45 20 168"/>
<path stroke-width="1" stroke="black" d="M 146 45 196 298"/>
<path stroke-width="1" stroke="black" d="M 59 91 217 163"/>
<path stroke-width="1" stroke="black" d="M 59 91 20 247"/>
<path stroke-width="1" stroke="black" d="M 59 91 420 199"/>
<path stroke-width="1" stroke="black" d="M 59 91 300 86"/>
<path stroke-width="1" stroke="black" d="M 59 91 411 121"/>
<path stroke-width="1" stroke="black" d="M 59 91 174 165"/>
<path stroke-width="1" stroke="black" d="M 59 216 20 247"/>
<path stroke-width="1" stroke="black" d="M 186 184 20 247"/>
<path stroke-width="1" stroke="black" d="M 59 216 420 199"/>
<path stroke-width="1" stroke="black" d="M 59 216 411 121"/>
<path stroke-width="1" stroke="black" d="M 327 309 20 247"/>
<path stroke-width="1" stroke="black" d="M 327 309 420 199"/>
<path stroke-width="1" stroke="black" d="M 327 309 300 86"/>
<path stroke-width="1" stroke="black" d="M 327 309 411 121"/>
<path stroke-width="1" stroke="black" d="M 327 309 174 165"/>
<path stroke-width="1" stroke="black" d="M 327 309 411 191"/>
<path stroke-width="1" stroke="black" d="M 327 309 69 148"/>
<path stroke-width="1" stroke="black" d="M 327 309 217 163"/>
<path stroke-width="1" stroke="black" d="M 327 309 152 48"/>
<path stroke-width="1" stroke="black" d="M 327 309 264 20"/>
<path stroke-width="1" stroke="black" d="M 327 309 303 88"/>
<path stroke-width="1" stroke="black" d="M 327 309 300 86"/>
<path stroke-width="1" stroke="black" d="M 327 309 186 184"/>
<path stroke-width="1" stroke="black" d="M 327 309 344 199"/>
<path stroke-width="1" stroke="black" d="M 327 309 151 50"/>
<path stroke-width="1" stroke="black" d="M 327 309 185 290"/>
<path stroke-width="1" stroke="black" d="M 327 309 398 268"/>
<path stroke-width="1" stroke="black" d="M 59 216 196 298"/>
<path stroke-width="1" stroke="black" d="M 59 216 20 168"/>
<path stroke-width="1" stroke="black" d="M 59 216 87 310"/>
<path stroke-width="1" stroke="black" d="M 59 216 174 165"/>
<path stroke-width="1" stroke="black" d="M 59 216 411 191"/>
<path stroke-width="1" stroke="black" d="M 59 216 69 148"/>
<path stroke-width="1" stroke="black" d="M 59 216 152 48"/>
<path stroke-width="1" stroke="black" d="M 59 216 398 268"/>
<path stroke-width="1" stroke="black" d="M 59 216 264 20"/>
<path stroke-width="1" stroke="black" d="M 59 216 303 88"/>
<path stroke-width="1" stroke="black" d="M 59 216 300 86"/>
<path stroke-width="1" stroke="black" d="M 59 216 186 184"/>
<path stroke-width="1" stroke="black" d="M 59 216 344 199"/>
<path stroke-width="1" stroke="black" d="M 59 216 151 50"/>
<path stroke-width="1" stroke="black" d="M 59 216 185 290"/>
<path stroke-width="1" stroke="black" d="M 59 216 332 302"/>
<path stroke-width="1" stroke="black" d="M 59 216 101 320"/>
<path stroke-width="1" stroke="black" d="M 59 216 146 45"/>
<path stroke-width="1" stroke="black" d="M 59 216 59 91"/>
<path stroke-width="1" stroke="black" d="M 59 216 327 309"/>
<path stroke-width="1" stroke="black" d="M 59 216 300 86"/>
<path stroke-width="1" stroke="black" d="M 186 184 217 163"/>
<path stroke-width="1" stroke="black" d="M 300 86 196 298"/>
<path stroke-width="1" stroke="black" d="M 300 86 20 168"/>
<path stroke-width="1" stroke="black" d="M 411 121 300 86"/>
<path stroke-width="1" stroke="black" d="M 411 121 174 165"/>
<path stroke-width="1" stroke="black" d="M 411 121 411 191"/>
<path stroke-width="1" stroke="black" d="M 411 121 69 148"/>
<path stroke-width="1" stroke="black" d="M 411 121 152 48"/>
<path stroke-width="1" stroke="black" d="M 411 121 398 268"/>
<path stroke-width="1" stroke="black" d="M 411 121 264 20"/>
<path stroke-width="1" stroke="black" d="M 411 121 420 199"/>
<path stroke-width="1" stroke="black" d="M 411 121 303 88"/>
<path stroke-width="1" stroke="black" d="M 411 121 186 184"/>
<path stroke-width="1" stroke="black" d="M 411 121 344 199"/>
<path stroke-width="1" stroke="black" d="M 411 121 151 50"/>
<path stroke-width="1" stroke="black" d="M 411 121 185 290"/>
<path stroke-width="1" stroke="black" d="M 411 121 332 302"/>
<path stroke-width="1" stroke="black" d="M 411 121 101 320"/>
<path stroke-width="1" stroke="black" d="M 411 121 146 45"/>
<path stroke-width="1" stroke="black" d="M 411 121 300 86"/>
<path stroke-width="1" stroke="black" d="M 411 121 59 91"/>
<path stroke-width="1" stroke="black" d="M 411 121 20 247"/>
<path stroke-width="1" stroke="black" d="M 300 86 196 298"/>
<path stroke-width="1" stroke="black" d="M 300 86 398 268"/>
<path stroke-width="1" stroke="black" d="M 300 86 264 20"/>
<path stroke-width="1" stroke="black" d="M 300 86 303 88"/>
<path stroke-width="1" stroke="black" d="M 300 86 300 86"/>
<path stroke-width="1" stroke="black" d="M 300 86 186 184"/>
<path stroke-width="1" stroke="black" d="M 300 86 344 199"/>
<path stroke-width="1" stroke="black" d="M 300 86 151 50"/>
<path stroke-width="1" stroke="black" d="M 411 121 217 163"/>
<path stroke-width="1" stroke="black" d="M 300 86 185 290"/>
<path stroke-width="1" stroke="black" d="M 300 86 101 320"/>
<path stroke-width="1" stroke="black" d="M 300 86 146 45"/>
<path stroke-width="1" stroke="black" d="M 300 86 59 91"/>
<path stroke-width="1" stroke="black" d="M 300 86 59 216"/>
<path stroke-width="1" stroke="black" d="M 300 86 327 309"/>
<path stroke-width="1" stroke="black" d="M 300 86 87 310"/>
<path stroke-width="1" stroke="black" d="M 300 86 20 168"/>
<path stroke-width="1" stroke="black" d="M 300 86 332 302"/>
<path stroke-width="1" stroke="black" d="M 411 121 59 216"/>
<path stroke-width="1" stroke="black" d="M 411 121 327 309"/>
<path stroke-width="1" stroke="black" d="M 411 121 87 310"/>
<path stroke-width="1" stroke="black" d="M 174 165 59 91"/>
<path stroke-width="1" stroke="black" d="M 174 165 59 216"/>
<path stroke-width="1" stroke="black" d="M 174 165 327 309"/>
<path stroke-width="1" stroke="black" d="M 174 165 87 310"/>
<path stroke-width="1" stroke="black" d="M 174 165 20 168"/>
<path stroke-width="1" stroke="black" d="M 174 165 196 298"/>
<path stroke-width="1" stroke="black" d="M 411 191 217 163"/>
<path stroke-width="1" stroke="black" d="M 174 165 146 45"/>
<path stroke-width="1" stroke="black" d="M 411 191 20 247"/>
<path stroke-width="1" stroke="black" d="M 411 191 300 86"/>
<path stroke-width="1" stroke="black" d="M 411 191 411 121"/>
<path stroke-width="1" stroke="black" d="M 411 191 174 165"/>
<path stroke-width="1" stroke="black" d="M 411 191 69 148"/>
<path stroke-width="1" stroke="black" d="M 411 191 152 48"/>
<path stroke-width="1" stroke="black" d="M 411 191 398 268"/>
<path stroke-width="1" stroke="black" d="M 411 191 264 20"/>
<path stroke-width="1" stroke="black" d="M 411 191 420 199"/>
<path stroke-width="1" stroke="black" d="M 174 165 101 320"/>
<path stroke-width="1" stroke="black" d="M 174 165 332 302"/>
<path stroke-width="1" stroke="black" d="M 174 165 185 290"/>
<path stroke-width="1" stroke="black" d="M 411 121 20 168"/>
<path stroke-width="1" stroke="black" d="M 411 121 196 298"/>
<path stroke-width="1" stroke="black" d="M 174 165 217 163"/>
<path stroke-width="1" stroke="black" d="M 174 165 20 247"/>
<path stroke-width="1" stroke="black" d="M 174 165 420 199"/>
<path stroke-width="1" stroke="black" d="M 174 165 300 86"/>
<path stroke-width="1" stroke="black" d="M 174 165 411 121"/>
<path stroke-width="1" stroke="black" d="M 174 165 411 191"/>
<path stroke-width="1" stroke="black" d="M 174 165 69 148"/>
<path stroke-width="1" stroke="black" d="M 174 165 152 48"/>
<path stroke-width="1" stroke="black" d="M 174 165 398 268"/>
<path stroke-width="1" stroke="black" d="M 174 165 264 20"/>
<path stroke-width="1" stroke="black" d="M 174 165 303 88"/>
<path stroke-width="1" stroke="black" d="M 174 165 300 86"/>
<path stroke-width="1" stroke="black" d="M 174 165 186 184"/>
<path stroke-width="1" stroke="black" d="M 174 165 344 199"/>
<path stroke-width="1" stroke="black" d="M 174 165 151 50"/>
<path stroke-width="1" stroke="black" d="M 300 86 152 48"/>
<path stroke-width="1" stroke="black" d="M 300 86 69 148"/>
<path stroke-width="1" stroke="black" d="M 300 86 411 191"/>
<path stroke-width="1" stroke="black" d="M 300 86 174 165"/>
<path stroke-width="1" stroke="black" d="M 217 163 87 310"/>
<path stroke-width="1" stroke="black" d="M 217 163 20 168"/>
<path stroke-width="1" stroke="black" d="M 217 163 196 298"/>
<path stroke-width="1" stroke="black" d="M 20 247 217 163"/>
<path stroke-width="1" stroke="black" d="M 20 247 420 199"/>
<path stroke-width="1" stroke="black" d="M 20 247 300 86"/>
<path stroke-width="1" stroke="black" d="M 20 247 411 121"/>
<path stroke-width="1" stroke="black" d="M 217 163 327 309"/>
<path stroke-width="1" stroke="black" d="M 20 247 174 165"/>
<path stroke-width="1" stroke="black" d="M 20 247 69 148"/>
<path stroke-width="1" stroke="black" d="M 20 247 152 48"/>
<path stroke-width="1" stroke="black" d="M 20 247 398 268"/>
<path stroke-width="1" stroke="black" d="M 20 247 264 20"/>
<path stroke-width="1" stroke="black" d="M 20 247 303 88"/>
<path stroke-width="1" stroke="black" d="M 20 247 300 86"/>
<path stroke-width="1" stroke="black" d="M 20 247 186 184"/>
<path stroke-width="1" stroke="black" d="M 20 247 411 191"/>
<path stroke-width="1" stroke="black" d="M 217 163 59 216"/>
<path stroke-width="1" stroke="black" d="M 217 163 59 91"/>
<path stroke-width="1" stroke="black" d="M 217 163 146 45"/>
<path stroke-width="1" stroke="black" d="M 217 163 420 199"/>
<path stroke-width="1" stroke="black" d="M 217 163 300 86"/>
<path stroke-width="1" stroke="black" d="M 217 163 411 121"/>
<path stroke-width="1" stroke="black" d="M 217 163 174 165"/>
<path stroke-width="1" stroke="black" d="M 217 163 411 191"/>
<path stroke-width="1" stroke="black" d="M 217 163 69 148"/>
<path stroke-width="1" stroke="black" d="M 217 163 152 48"/>
<path stroke-width="1" stroke="black" d="M 217 163 398 268"/>
<path stroke-width="1" stroke="black" d="M 217 163 264 20"/>
<path stroke-width="1" stroke="black" d="M 217 163 303 88"/>
<path stroke-width="1" stroke="black" d="M 217 163 300 86"/>
<path stroke-width="1" stroke="black" d="M 217 163 186 184"/>
<path stroke-width="1" stroke="black" d="M 217 163 344 199"/>
<path stroke-width="1" stroke="black" d="M 217 163 151 50"/>
<path stroke-width="1" stroke="black" d="M 217 163 185 290"/>
<path stroke-width="1" stroke="black" d="M 217 163 332 302"/>
<path stroke-width="1" stroke="black" d="M 217 163 101 320"/>
<path stroke-width="1" stroke="black" d="M 20 247 344 199"/>
<path stroke-width="1" stroke="black" d="M 411 191 303 88"/>
<path stroke-width="1" stroke="black" d="M 20 247 151 50"/>
<path stroke-width="1" stroke="black" d="M 20 247 332 302"/>
<path stroke-width="1" stroke="black" d="M 420 199 344 199"/>
<path stroke-width="1" stroke="black" d="M 420 199 151 50"/>
<path stroke-width="1" stroke="black" d="M 420 199 185 290"/>
<path stroke-width="1" stroke="black" d="M 420 199 332 302"/>
<path stroke-width="1" stroke="black" d="M 420 199 101 320"/>
<path stroke-width="1" stroke="black" d="M 420 199 146 45"/>
<path stroke-width="1" stroke="black" d="M 420 199 59 91"/>
<path stroke-width="1" stroke="black" d="M 420 199 186 184"/>
<path stroke-width="1" stroke="black" d="M 420 199 59 216"/>
<path stroke-width="1" stroke="black" d="M 420 199 87 310"/>
<path stroke-width="1" stroke="black" d="M 420 199 20 168"/>
<path stroke-width="1" stroke="black" d="M 420 199 196 298"/>
<path stroke-width="1" stroke="black" d="M 300 86 217 163"/>
<path stroke-width="1" stroke="black" d="M 300 86 20 247"/>
<path stroke-width="1" stroke="black" d="M 300 86 420 199"/>
<path stroke-width="1" stroke="black" d="M 300 86 411 121"/>
<path stroke-width="1" stroke="black" d="M 420 199 327 309"/>
<path stroke-width="1" stroke="black" d="M 420 199 300 86"/>
<path stroke-width="1" stroke="black" d="M 420 199 303 88"/>
<path stroke-width="1" stroke="black" d="M 420 199 264 20"/>
<path stroke-width="1" stroke="black" d="M 20 247 101 320"/>
<path stroke-width="1" stroke="black" d="M 20 247 146 45"/>
<path stroke-width="1" stroke="black" d="M 20 247 59 91"/>
<path stroke-width="1" stroke="black" d="M 20 247 59 216"/>
<path stroke-width="1" stroke="black" d="M 20 247 327 309"/>
<path stroke-width="1" stroke="black" d="M 20 247 87 310"/>
<path stroke-width="1" stroke="black" d="M 20 247 20 168"/>
<path stroke-width="1" stroke="black" d="M 20 247 196 298"/>
<path stroke-width="1" stroke="black" d="M 420 199 217 163"/>
<path stroke-width="1" stroke="black" d="M 420 199 20 247"/>
<path stroke-width="1" stroke="black" d="M 420 199 300 86"/>
<path stroke-width="1" stroke="black" d="M 420 199 411 121"/>
<path stroke-width="1" stroke="black" d="M 420 199 174 165"/>
<path stroke-width="1" stroke="black" d="M 420 199 411 191"/>
<path stroke-width="1" stroke="black" d="M 420 199 69 148"/>
<path stroke-width="1" stroke="black" d="M 420 199 152 48"/>
<path stroke-width="1" stroke="black" d="M 420 199 398 268"/>
<path stroke-width="1" stroke="black" d="M 20 247 185 290"/>
<path stroke-width="1" stroke="black" d="M 196 298 87 310"/>
<path stroke-width="1" stroke="black" d="M 411 191 300 86"/>
<path stroke-width="1" stroke="black" d="M 411 191 344 199"/>
<path stroke-width="1" stroke="black" d="M 264 20 332 302"/>
<path stroke-width="1" stroke="black" d="M 264 20 101 320"/>
<path stroke-width="1" stroke="black" d="M 264 20 146 45"/>
<path stroke-width="1" stroke="black" d="M 264 20 59 91"/>
<path stroke-width="1" stroke="black" d="M 264 20 59 216"/>
<path stroke-width="1" stroke="black" d="M 264 20 327 309"/>
<path stroke-width="1" stroke="black" d="M 264 20 87 310"/>
<path stroke-width="1" stroke="black" d="M 264 20 185 290"/>
<path stroke-width="1" stroke="black" d="M 264 20 20 168"/>
<path stroke-width="1" stroke="black" d="M 303 88 217 163"/>
<path stroke-width="1" stroke="black" d="M 303 88 20 247"/>
<path stroke-width="1" stroke="black" d="M 303 88 420 199"/>
<path stroke-width="1" stroke="black" d="M 303 88 300 86"/>
<path stroke-width="1" stroke="black" d="M 303 88 411 121"/>
<path stroke-width="1" stroke="black" d="M 303 88 174 165"/>
<path stroke-width="1" stroke="black" d="M 303 88 411 191"/>
<path stroke-width="1" stroke="black" d="M 264 20 196 298"/>
<path stroke-width="1" stroke="black" d="M 303 88 69 148"/>
<path stroke-width="1" stroke="black" d="M 264 20 151 50"/>
<path stroke-width="1" stroke="black" d="M 264 20 186 184"/>
<path stroke-width="1" stroke="black" d="M 398 268 327 309"/>
<path stroke-width="1" stroke="black" d="M 398 268 87 310"/>
<path stroke-width="1" stroke="black" d="M 398 268 20 168"/>
<path stroke-width="1" stroke="black" d="M 398 268 196 298"/>
<path stroke-width="1" stroke="black" d="M 264 20 217 163"/>
<path stroke-width="1" stroke="black" d="M 264 20 20 247"/>
<path stroke-width="1" stroke="black" d="M 264 20 420 199"/>
<path stroke-width="1" stroke="black" d="M 264 20 344 199"/>
<path stroke-width="1" stroke="black" d="M 264 20 300 86"/>
<path stroke-width="1" stroke="black" d="M 264 20 174 165"/>
<path stroke-width="1" stroke="black" d="M 264 20 411 191"/>
<path stroke-width="1" stroke="black" d="M 264 20 69 148"/>
<path stroke-width="1" stroke="black" d="M 264 20 152 48"/>
<path stroke-width="1" stroke="black" d="M 264 20 398 268"/>
<path stroke-width="1" stroke="black" d="M 264 20 303 88"/>
<path stroke-width="1" stroke="black" d="M 264 20 300 86"/>
<path stroke-width="1" stroke="black" d="M 264 20 411 121"/>
<path stroke-width="1" stroke="black" d="M 303 88 152 48"/>
<path stroke-width="1" stroke="black" d="M 303 88 398 268"/>
<path stroke-width="1" stroke="black" d="M 303 88 264 20"/>
<path stroke-width="1" stroke="black" d="M 300 86 69 148"/>
<path stroke-width="1" stroke="black" d="M 300 86 152 48"/>
<path stroke-width="1" stroke="black" d="M 300 86 398 268"/>
<path stroke-width="1" stroke="black" d="M 300 86 264 20"/>
<path stroke-width="1" stroke="black" d="M 300 86 303 88"/>
<path stroke-width="1" stroke="black" d="M 300 86 186 184"/>
<path stroke-width="1" stroke="black" d="M 300 86 344 199"/>
<path stroke-width="1" stroke="black" d="M 300 86 411 191"/>
<path stroke-width="1" stroke="black" d="M 300 86 151 50"/>
<path stroke-width="1" stroke="black" d="M 300 86 332 302"/>
<path stroke-width="1" stroke="black" d="M 300 86 101 320"/>
<path stroke-width="1" stroke="black" d="M 300 86 146 45"/>
<path stroke-width="1" stroke="black" d="M 300 86 59 91"/>
<path stroke-width="1" stroke="black" d="M 300 86 59 216"/>
<path stroke-width="1" stroke="black" d="M 300 86 327 309"/>
<path stroke-width="1" stroke="black" d="M 300 86 87 310"/>
<path stroke-width="1" stroke="black" d="M 300 86 185 290"/>
<path stroke-width="1" stroke="black" d="M 300 86 174 165"/>
<path stroke-width="1" stroke="black" d="M 300 86 411 121"/>
<path stroke-width="1" stroke="black" d="M 300 86 300 86"/>
<path stroke-width="1" stroke="black" d="M 303 88 300 86"/>
<path stroke-width="1" stroke="black" d="M 303 88 186 184"/>
<path stroke-width="1" stroke="black" d="M 303 88 344 199"/>
<path stroke-width="1" stroke="black" d="M 303 88 151 50"/>
<path stroke-width="1" stroke="black" d="M 303 88 185 290"/>
<path stroke-width="1" stroke="black" d="M 303 88 332 302"/>
<path stroke-width="1" stroke="black" d="M 303 88 101 320"/>
<path stroke-width="1" stroke="black" d="M 303 88 146 45"/>
<path stroke-width="1" stroke="black" d="M 303 88 59 91"/>
<path stroke-width="1" stroke="black" d="M 303 88 59 216"/>
<path stroke-width="1" stroke="black" d="M 303 88 327 309"/>
<path stroke-width="1" stroke="black" d="M 303 88 87 310"/>
<path stroke-width="1" stroke="black" d="M 303 88 20 168"/>
<path stroke-width="1" stroke="black" d="M 303 88 196 298"/>
<path stroke-width="1" stroke="black" d="M 300 86 217 163"/>
<path stroke-width="1" stroke="black" d="M 300 86 20 247"/>
<path stroke-width="1" stroke="black" d="M 300 86 420 199"/>
<path stroke-width="1" stroke="black" d="M 398 268 59 216"/>
<path stroke-width="1" stroke="black" d="M 398 268 59 91"/>
<path stroke-width="1" stroke="black" d="M 398 268 146 45"/>
<path stroke-width="1" stroke="black" d="M 398 268 101 320"/>
<path stroke-width="1" stroke="black" d="M 69 148 303 88"/>
<path stroke-width="1" stroke="black" d="M 69 148 300 86"/>
<path stroke-width="1" stroke="black" d="M 69 148 186 184"/>
<path stroke-width="1" stroke="black" d="M 69 148 344 199"/>
<path stroke-width="1" stroke="black" d="M 69 148 151 50"/>
<path stroke-width="1" stroke="black" d="M 69 148 185 290"/>
<path stroke-width="1" stroke="black" d="M 69 148 332 302"/>
<path stroke-width="1" stroke="black" d="M 69 148 264 20"/>
<path stroke-width="1" stroke="black" d="M 69 148 101 320"/>
<path stroke-width="1" stroke="black" d="M 69 148 59 91"/>
<path stroke-width="1" stroke="black" d="M 69 148 59 216"/>
<path stroke-width="1" stroke="black" d="M 69 148 327 309"/>
<path stroke-width="1" stroke="black" d="M 69 148 87 310"/>
<path stroke-width="1" stroke="black" d="M 69 148 20 168"/>
<path stroke-width="1" stroke="black" d="M 69 148 196 298"/>
<path stroke-width="1" stroke="black" d="M 152 48 217 163"/>
<path stroke-width="1" stroke="black" d="M 69 148 146 45"/>
<path stroke-width="1" stroke="black" d="M 69 148 398 268"/>
<path stroke-width="1" stroke="black" d="M 69 148 152 48"/>
<path stroke-width="1" stroke="black" d="M 69 148 411 191"/>
<path stroke-width="1" stroke="black" d="M 411 191 151 50"/>
<path stroke-width="1" stroke="black" d="M 411 191 185 290"/>
<path stroke-width="1" stroke="black" d="M 411 191 332 302"/>
<path stroke-width="1" stroke="black" d="M 411 191 101 320"/>
<path stroke-width="1" stroke="black" d="M 411 191 146 45"/>
<path stroke-width="1" stroke="black" d="M 411 191 59 91"/>
<path stroke-width="1" stroke="black" d="M 411 191 59 216"/>
<path stroke-width="1" stroke="black" d="M 411 191 327 309"/>
<path stroke-width="1" stroke="black" d="M 411 191 87 310"/>
<path stroke-width="1" stroke="black" d="M 411 191 20 168"/>
<path stroke-width="1" stroke="black" d="M 411 191 196 298"/>
<path stroke-width="1" stroke="black" d="M 69 148 217 163"/>
<path stroke-width="1" stroke="black" d="M 69 148 20 247"/>
<path stroke-width="1" stroke="black" d="M 69 148 420 199"/>
<path stroke-width="1" stroke="black" d="M 69 148 300 86"/>
<path stroke-width="1" stroke="black" d="M 69 148 411 121"/>
<path stroke-width="1" stroke="black" d="M 69 148 174 165"/>
<path stroke-width="1" stroke="black" d="M 152 48 20 247"/>
<path stroke-width="1" stroke="black" d="M 411 191 186 184"/>
<path stroke-width="1" stroke="black" d="M 152 48 420 199"/>
<path stroke-width="1" stroke="black" d="M 152 48 411 121"/>
<path stroke-width="1" stroke="black" d="M 398 268 20 247"/>
<path stroke-width="1" stroke="black" d="M 398 268 420 199"/>
<path stroke-width="1" stroke="black" d="M 398 268 300 86"/>
<path stroke-width="1" stroke="black" d="M 398 268 411 121"/>
<path stroke-width="1" stroke="black" d="M 398 268 174 165"/>
<path stroke-width="1" stroke="black" d="M 398 268 411 191"/>
<path stroke-width="1" stroke="black" d="M 398 268 69 148"/>
<path stroke-width="1" stroke="black" d="M 398 268 217 163"/>
<path stroke-width="1" stroke="black" d="M 398 268 152 48"/>
<path stroke-width="1" stroke="black" d="M 398 268 303 88"/>
<path stroke-width="1" stroke="black" d="M 398 268 300 86"/>
<path stroke-width="1" stroke="black" d="M 398 268 186 184"/>
<path stroke-width="1" stroke="black" d="M 398 268 344 199"/>
<path stroke-width="1" stroke="black" d="M 398 268 151 50"/>
<path stroke-width="1" stroke="black" d="M 398 268 185 290"/>
<path stroke-width="1" stroke="black" d="M 398 268 332 302"/>
<path stroke-width="1" stroke="black" d="M 398 268 264 20"/>
<path stroke-width="1" stroke="black" d="M 152 48 196 298"/>
<path stroke-width="1" stroke="black" d="M 152 48 20 168"/>
<path stroke-width="1" stroke="black" d="M 152 48 87 310"/>
<path stroke-width="1" stroke="black" d="M 152 48 174 165"/>
<path stroke-width="1" stroke="black" d="M 152 48 411 191"/>
<path stroke-width="1" stroke="black" d="M 152 48 69 148"/>
<path stroke-width="1" stroke="black" d="M 152 48 398 268"/>
<path stroke-width="1" stroke="black" d="M 152 48 264 20"/>
<path stroke-width="1" stroke="black" d="M 152 48 303 88"/>
<path stroke-width="1" stroke="black" d="M 152 48 300 86"/>
<path stroke-width="1" stroke="black" d="M 152 48 186 184"/>
<path stroke-width="1" stroke="black" d="M 152 48 344 199"/>
<path stroke-width="1" stroke="black" d="M 152 48 151 50"/>
<path stroke-width="1" stroke="black" d="M 152 48 185 290"/>
<path stroke-width="1" stroke="black" d="M 152 48 332 302"/>
<path stroke-width="1" stroke="black" d="M 152 48 101 320"/>
<path stroke-width="1" stroke="black" d="M 152 48 146 45"/>
<path stroke-width="1" stroke="black" d="M 152 48 59 91"/>
<path stroke-width="1" stroke="black" d="M 152 48 59 216"/>
<path stroke-width="1" stroke="black" d="M 152 48 327 309"/>
<path stroke-width="1" stroke="black" d="M 152 48 300 86"/>
<path stroke-width="1" stroke="black" d="M 196 298 20 168"/>
<circle cx="217" cy="163" r="20.0" style="fill:gray;stroke:black;stroke-width:1.0"/>
<circle cx="20" cy="247" r="20.0" style="fill:gray;stroke:black;stroke-width:1.0"/>
<circle cx="420" cy="199" r="20.0" style="fill:gray;stroke:black;stroke-width:1.0"/>
<circle cx="300" cy="86" r="20.0" style="fill:gray;stroke:black;stroke-width:1.0"/>
<circle cx="411" cy="121" r="20.0" style="fill:gray;stroke:black;stroke-width:1.0"/>
<circle cx="174" cy="165" r="20.0" style="fill:gray;stroke:black;stroke-width:1.0"/>
<circle cx="411" cy="191" r="20.0" style="fill:gray;stroke:black;stroke-width:1.0"/>
<circle cx="69" cy="148" r="20.0" style="fill:gray;stroke:black;stroke-width:1.0"/>
<circle cx="152" cy="48" r="20.0" style="fill:gray;stroke:black;stroke-width:1.0"/>
<circle cx="398" cy="268" r="20.0" style="fill:gray;stroke:black;stroke-width:1.0"/>
<circle cx="264" cy="20" r="20.0" style="fill:gray;stroke:black;stroke-width:1.0"/>
<circle cx="303" cy="88" r="20.0" style="fill:gray;stroke:black;stroke-width:1.0"/>
<circle cx="300" cy="86" r="20.0" style="fill:gray;stroke:black;stroke-width:1.0"/>
<circle cx="186" cy="184" r="20.0" style="fill:gray;stroke:black;stroke-width:1.0"/>
<circle cx="344" cy="199" r="20.0" style="fill:gray;stroke:black;stroke-width:1.0"/>
<circle cx="151" cy="50" r="20.0" style="fill:gray;stroke:black;stroke-width:1.0"/>
<circle cx="185" cy="290" r="20.0" style="fill:gray;stroke:black;stroke-width:1.0"/>
<circle cx="332" cy="302" r="20.0" style="fill:gray;stroke:black;stroke-width:1.0"/>
<circle cx="101" cy="320" r="20.0" style="fill:gray;stroke:black;stroke-width:1.0"/>
<circle cx="146" cy="45" r="20.0" style="fill:gray;stroke:black;stroke-width:1.0"/>
<circle cx="59" cy="91" r="20.0" style="fill:gray;stroke:black;stroke-width:1.0"/>
<circle cx="59" cy="216" r="20.0" style="fill:gray;stroke:black;stroke-width:1.0"/>
<circle cx="327" cy="309" r="20.0" style="fill:gray;stroke:black;stroke-width:1.0"/>
<circle cx="87" cy="310" r="20.0" style="fill:gray;stroke:black;stroke-width:1.0"/>
<circle cx="20" cy="168" r="20.0" style="fill:gray;stroke:black;stroke-width:1.0"/>
<circle cx="196" cy="298" r="20.0" style="fill:gray;stroke:black;stroke-width:1.0"/>
</svg>
