<svg width="440" height="340" xmlns="http://www.w3.org/2000/svg">
<path stroke-width="1" stroke="black" d="M 420 320 370 251"/>
<path stroke-width="1" stroke="black" d="M 20 20 87 36"/>
<path stroke-width="1" stroke="black" d="M 239 115 303 183"/>
<path stroke-width="1" stroke="black" d="M 239 115 157 68"/>
<path stroke-width="1" stroke="black" d="M 303 183 239 115"/>
<path stroke-width="1" stroke="black" d="M 303 183 370 251"/>
<path stroke-width="1" stroke="black" d="M 157 68 239 115"/>
<path stroke-width="1" stroke="black" d="M 157 68 87 36"/>
<path stroke-width="1" stroke="black" d="M 370 251 420 320"/>
<path stroke-width="1" stroke="black" d="M 370 251 303 183"/>
<path stroke-width="1" stroke="black" d="M 87 36 20 20"/>
<path stroke-width="1" stroke="black" d="M 87 36 157 68"/>
<circle cx="420" cy="320" r="7.0" style="fill:gray;stroke:black;stroke-width:1.0"/>
<circle cx="20" cy="20" r="7.0" style="fill:gray;stroke:black;stroke-width:1.0"/>
<circle cx="239" cy="115" r="7.0" style="fill:gray;stroke:black;stroke-width:1.0"/>
<circle cx="303" cy="183" r="7.0" style="fill:gray;stroke:black;stroke-width:1.0"/>
<circle cx="157" cy="68" r="7.0" style="fill:gray;stroke:black;stroke-width:1.0"/>
<circle cx="370" cy="251" r="7.0" style="fill:gray;stroke:black;stroke-width:1.0"/>
<circle cx="87" cy="36" r="7.0" style="fill:gray;stroke:black;stroke-width:1.0"/>
</svg>
