<svg width="440" height="340" xmlns="http://www.w3.org/2000/svg">
<path stroke-width="8.857142857142858" stroke="black" d="M 20 320 26 309"/>
<path stroke-width="20.0" stroke="black" d="M 324 54 316 56"/>
<path stroke-width="0.5" stroke="black" d="M 316 56 254 83"/>
<path stroke-width="20.0" stroke="black" d="M 316 56 324 54"/>
<path stroke-width="0.5" stroke="black" d="M 316 56 363 33"/>
<path stroke-width="20.0" stroke="black" d="M 372 25 363 33"/>
<path stroke-width="0.5" stroke="black" d="M 363 33 316 56"/>
<path stroke-width="20.0" stroke="black" d="M 363 33 372 25"/>
<path stroke-width="0.5" stroke="black" d="M 363 33 414 26"/>
<path stroke-width="20.0" stroke="black" d="M 420 20 414 26"/>
<path stroke-width="0.5" stroke="black" d="M 414 26 363 33"/>
<path stroke-width="20.0" stroke="black" d="M 414 26 420 20"/>
<path stroke-width="0.5" stroke="black" d="M 414 26 404 54"/>
<path stroke-width="20.0" stroke="black" d="M 418 50 404 54"/>
<path stroke-width="0.5" stroke="black" d="M 404 54 414 26"/>
<path stroke-width="20.0" stroke="black" d="M 404 54 418 50"/>
<path stroke-width="0.5" stroke="black" d="M 404 54 378 83"/>
<path stroke-width="20.0" stroke="black" d="M 389 84 378 83"/>
<path stroke-width="0.5" stroke="black" d="M 378 83 404 54"/>
<path stroke-width="20.0" stroke="black" d="M 378 83 389 84"/>
<path stroke-width="0.5" stroke="black" d="M 378 83 344 113"/>
<path stroke-width="20.0" stroke="black" d="M 345 118 344 113"/>
<path stroke-width="0.5" stroke="black" d="M 344 113 378 83"/>
<path stroke-width="20.0" stroke="black" d="M 344 113 345 118"/>
<path stroke-width="0.5" stroke="black" d="M 344 113 312 137"/>
<path stroke-width="14.428571428571429" stroke="black" d="M 300 144 312 137"/>
<path stroke-width="0.5" stroke="black" d="M 254 83 316 56"/>
<path stroke-width="20.0" stroke="black" d="M 254 83 255 87"/>
<path stroke-width="0.5" stroke="black" d="M 254 83 197 111"/>
<path stroke-width="20.0" stroke="black" d="M 255 87 254 83"/>
<path stroke-width="8.857142857142858" stroke="black" d="M 26 309 20 320"/>
<path stroke-width="0.5" stroke="black" d="M 26 309 43 280"/>
<path stroke-width="20.0" stroke="black" d="M 40 287 43 280"/>
<path stroke-width="0.5" stroke="black" d="M 43 280 26 309"/>
<path stroke-width="20.0" stroke="black" d="M 43 280 40 287"/>
<path stroke-width="0.5" stroke="black" d="M 43 280 63 246"/>
<path stroke-width="20.0" stroke="black" d="M 67 242 63 246"/>
<path stroke-width="0.5" stroke="black" d="M 63 246 43 280"/>
<path stroke-width="20.0" stroke="black" d="M 63 246 67 242"/>
<path stroke-width="0.5" stroke="black" d="M 63 246 85 209"/>
<path stroke-width="20.0" stroke="black" d="M 88 204 85 209"/>
<path stroke-width="0.5" stroke="black" d="M 85 209 63 246"/>
<path stroke-width="0.5" stroke="black" d="M 312 137 344 113"/>
<path stroke-width="20.0" stroke="black" d="M 85 209 88 204"/>
<path stroke-width="20.0" stroke="black" d="M 97 170 109 173"/>
<path stroke-width="0.5" stroke="black" d="M 109 173 85 209"/>
<path stroke-width="20.0" stroke="black" d="M 109 173 97 170"/>
<path stroke-width="0.5" stroke="black" d="M 109 173 147 141"/>
<path stroke-width="20.0" stroke="black" d="M 136 142 147 141"/>
<path stroke-width="0.5" stroke="black" d="M 147 141 109 173"/>
<path stroke-width="20.0" stroke="black" d="M 147 141 136 142"/>
<path stroke-width="0.5" stroke="black" d="M 147 141 197 111"/>
<path stroke-width="20.0" stroke="black" d="M 184 109 197 111"/>
<path stroke-width="0.5" stroke="black" d="M 197 111 147 141"/>
<path stroke-width="20.0" stroke="black" d="M 197 111 184 109"/>
<path stroke-width="0.5" stroke="black" d="M 197 111 254 83"/>
<path stroke-width="0.5" stroke="black" d="M 85 209 109 173"/>
<path stroke-width="14.428571428571429" stroke="black" d="M 312 137 300 144"/>
<circle cx="20" cy="320" r="7.0" style="fill:gray;stroke:black;stroke-width:1.0"/>
<circle cx="26" cy="309" r="7.0" style="fill:gray;stroke:black;stroke-width:1.0"/>
<circle cx="40" cy="287" r="7.0" style="fill:gray;stroke:black;stroke-width:1.0"/>
<circle cx="43" cy="280" r="7.0" style="fill:gray;stroke:black;stroke-width:1.0"/>
<circle cx="67" cy="242" r="7.0" style="fill:gray;stroke:black;stroke-width:1.0"/>
<circle cx="63" cy="246" r="7.0" style="fill:gray;stroke:black;stroke-width:1.0"/>
<circle cx="88" cy="204" r="7.0" style="fill:gray;stroke:black;stroke-width:1.0"/>
<circle cx="85" cy="209" r="7.0" style="fill:gray;stroke:black;stroke-width:1.0"/>
<circle cx="97" cy="170" r="7.0" style="fill:gray;stroke:black;stroke-width:1.0"/>
<circle cx="109" cy="173" r="7.0" style="fill:gray;stroke:black;stroke-width:1.0"/>
<circle cx="136" cy="142" r="7.0" style="fill:gray;stroke:black;stroke-width:1.0"/>
<circle cx="147" cy="141" r="7.0" style="fill:gray;stroke:black;stroke-width:1.0"/>
<circle cx="184" cy="109" r="7.0" style="fill:gray;stroke:black;stroke-width:1.0"/>
<circle cx="197" cy="111" r="7.0" style="fill:gray;stroke:black;stroke-width:1.0"/>
<circle cx="255" cy="87" r="7.0" style="fill:gray;stroke:black;stroke-width:1.0"/>
<circle cx="254" cy="83" r="7.0" style="fill:gray;stroke:black;stroke-width:1.0"/>
<circle cx="324" cy="54" r="7.0" style="fill:gray;stroke:black;stroke-width:1.0"/>
<circle cx="316" cy="56" r="7.0" style="fill:gray;stroke:black;stroke-width:1.0"/>
<circle cx="372" cy="25" r="7.0" style="fill:gray;stroke:black;stroke-width:1.0"/>
<circle cx="363" cy="33" r="7.0" style="fill:gray;stroke:black;stroke-width:1.0"/>
<circle cx="420" cy="20" r="7.0" style="fill:gray;stroke:black;stroke-width:1.0"/>
<circle cx="414" cy="26" r="7.0" style="fill:gray;stroke:black;stroke-width:1.0"/>
<circle cx="418" cy="50" r="7.0" style="fill:gray;stroke:black;stroke-width:1.0"/>
<circle cx="404" cy="54" r="7.0" style="fill:gray;stroke:black;stroke-width:1.0"/>
<circle cx="389" cy="84" r="7.0" style="fill:gray;stroke:black;stroke-width:1.0"/>
<circle cx="378" cy="83" r="7.0" style="fill:gray;stroke:black;stroke-width:1.0"/>
<circle cx="345" cy="118" r="7.0" style="fill:gray;stroke:black;stroke-width:1.0"/>
<circle cx="344" cy="113" r="7.0" style="fill:gray;stroke:black;stroke-width:1.0"/>
<circle cx="300" cy="144" r="7.0" style="fill:gray;stroke:black;stroke-width:1.0"/>
<circle cx="312" cy="137" r="7.0" style="fill:gray;stroke:black;stroke-width:1.0"/>
</svg>
