<svg width="440" height="340" xmlns="http://www.w3.org/2000/svg">
<path stroke-width="1" stroke="black" d="M 263 223 279 227"/>
<path stroke-width="1" stroke="black" d="M 207 111 209 125"/>
<path stroke-width="1" stroke="black" d="M 209 125 269 155"/>
<path stroke-width="1" stroke="black" d="M 209 125 207 111"/>
<path stroke-width="1" stroke="black" d="M 209 125 153 120"/>
<path stroke-width="1" stroke="black" d="M 145 110 153 120"/>
<path stroke-width="1" stroke="black" d="M 153 120 209 125"/>
<path stroke-width="1" stroke="black" d="M 153 120 145 110"/>
<path stroke-width="1" stroke="black" d="M 153 120 103 129"/>
<path stroke-width="1" stroke="black" d="M 94 130 103 129"/>
<path stroke-width="1" stroke="black" d="M 103 129 153 120"/>
<path stroke-width="1" stroke="black" d="M 103 129 94 130"/>
<path stroke-width="1" stroke="black" d="M 103 129 60 138"/>
<path stroke-width="1" stroke="black" d="M 50 141 60 138"/>
<path stroke-width="1" stroke="black" d="M 60 138 103 129"/>
<path stroke-width="1" stroke="black" d="M 60 138 50 141"/>
<path stroke-width="1" stroke="black" d="M 60 138 28 130"/>
<path stroke-width="1" stroke="black" d="M 22 143 28 130"/>
<path stroke-width="1" stroke="black" d="M 28 130 60 138"/>
<path stroke-width="1" stroke="black" d="M 28 130 22 143"/>
<path stroke-width="1" stroke="black" d="M 28 130 28 82"/>
<path stroke-width="1" stroke="black" d="M 20 83 28 82"/>
<path stroke-width="1" stroke="black" d="M 28 82 28 130"/>
<path stroke-width="1" stroke="black" d="M 28 82 20 83"/>
<path stroke-width="1" stroke="black" d="M 28 82 32 36"/>
<path stroke-width="1" stroke="black" d="M 33 20 32 36"/>
<path stroke-width="1" stroke="black" d="M 269 155 209 125"/>
<path stroke-width="1" stroke="black" d="M 269 155 271 140"/>
<path stroke-width="1" stroke="black" d="M 269 155 322 203"/>
<path stroke-width="1" stroke="black" d="M 271 140 269 155"/>
<path stroke-width="1" stroke="black" d="M 279 227 263 223"/>
<path stroke-width="1" stroke="black" d="M 279 227 320 237"/>
<path stroke-width="1" stroke="black" d="M 311 235 320 237"/>
<path stroke-width="1" stroke="black" d="M 320 237 279 227"/>
<path stroke-width="1" stroke="black" d="M 320 237 311 235"/>
<path stroke-width="1" stroke="black" d="M 320 237 370 246"/>
<path stroke-width="1" stroke="black" d="M 378 239 370 246"/>
<path stroke-width="1" stroke="black" d="M 370 246 320 237"/>
<path stroke-width="1" stroke="black" d="M 370 246 378 239"/>
<path stroke-width="1" stroke="black" d="M 370 246 407 276"/>
<path stroke-width="1" stroke="black" d="M 420 280 407 276"/>
<path stroke-width="1" stroke="black" d="M 407 276 370 246"/>
<path stroke-width="1" stroke="black" d="M 32 36 28 82"/>
<path stroke-width="1" stroke="black" d="M 407 276 420 280"/>
<path stroke-width="1" stroke="black" d="M 412 320 401 305"/>
<path stroke-width="1" stroke="black" d="M 401 305 407 276"/>
<path stroke-width="1" stroke="black" d="M 401 305 412 320"/>
<path stroke-width="1" stroke="black" d="M 401 305 367 266"/>
<path stroke-width="1" stroke="black" d="M 371 276 367 266"/>
<path stroke-width="1" stroke="black" d="M 367 266 401 305"/>
<path stroke-width="1" stroke="black" d="M 367 266 371 276"/>
<path stroke-width="1" stroke="black" d="M 367 266 322 203"/>
<path stroke-width="1" stroke="black" d="M 332 198 322 203"/>
<path stroke-width="1" stroke="black" d="M 322 203 367 266"/>
<path stroke-width="1" stroke="black" d="M 322 203 332 198"/>
<path stroke-width="1" stroke="black" d="M 322 203 269 155"/>
<path stroke-width="1" stroke="black" d="M 407 276 401 305"/>
<path stroke-width="1" stroke="black" d="M 32 36 33 20"/>
<circle cx="263" cy="223" r="7.0" style="fill:blue;stroke:black;stroke-width:1.0"/>
<circle cx="279" cy="227" r="7.0" style="fill:blue;stroke:black;stroke-width:1.0"/>
<circle cx="311" cy="235" r="7.0" style="fill:blue;stroke:black;stroke-width:1.0"/>
<circle cx="320" cy="237" r="7.0" style="fill:blue;stroke:black;stroke-width:1.0"/>
<circle cx="378" cy="239" r="7.0" style="fill:green;stroke:black;stroke-width:1.0"/>
<circle cx="370" cy="246" r="7.0" style="fill:green;stroke:black;stroke-width:1.0"/>
<circle cx="420" cy="280" r="7.0" style="fill:orange;stroke:black;stroke-width:1.0"/>
<circle cx="407" cy="276" r="7.0" style="fill:orange;stroke:black;stroke-width:1.0"/>
<circle cx="412" cy="320" r="7.0" style="fill:purple;stroke:black;stroke-width:1.0"/>
<circle cx="401" cy="305" r="7.0" style="fill:purple;stroke:black;stroke-width:1.0"/>
<circle cx="371" cy="276" r="7.0" style="fill:yellow;stroke:black;stroke-width:1.0"/>
<circle cx="367" cy="266" r="7.0" style="fill:yellow;stroke:black;stroke-width:1.0"/>
<circle cx="332" cy="198" r="7.0" style="fill:fuchsia;stroke:black;stroke-width:1.0"/>
<circle cx="322" cy="203" r="7.0" style="fill:fuchsia;stroke:black;stroke-width:1.0"/>
<circle cx="271" cy="140" r="7.0" style="fill:olive;stroke:black;stroke-width:1.0"/>
<circle cx="269" cy="155" r="7.0" style="fill:olive;stroke:black;stroke-width:1.0"/>
<circle cx="207" cy="111" r="7.0" style="fill:aqua;stroke:black;stroke-width:1.0"/>
<circle cx="209" cy="125" r="7.0" style="fill:aqua;stroke:black;stroke-width:1.0"/>
<circle cx="145" cy="110" r="7.0" style="fill:brown;stroke:black;stroke-width:1.0"/>
<circle cx="153" cy="120" r="7.0" style="fill:brown;stroke:black;stroke-width:1.0"/>
<circle cx="94" cy="130" r="7.0" style="fill:blue;stroke:black;stroke-width:1.0"/>
<circle cx="103" cy="129" r="7.0" style="fill:blue;stroke:black;stroke-width:1.0"/>
<circle cx="50" cy="141" r="7.0" style="fill:red;stroke:black;stroke-width:1.0"/>
<circle cx="60" cy="138" r="7.0" style="fill:red;stroke:black;stroke-width:1.0"/>
<circle cx="22" cy="143" r="7.0" style="fill:green;stroke:black;stroke-width:1.0"/>
<circle cx="28" cy="130" r="7.0" style="fill:green;stroke:black;stroke-width:1.0"/>
<circle cx="20" cy="83" r="7.0" style="fill:red;stroke:black;stroke-width:1.0"/>
<circle cx="28" cy="82" r="7.0" style="fill:red;stroke:black;stroke-width:1.0"/>
<circle cx="33" cy="20" r="7.0" style="fill:red;stroke:black;stroke-width:1.0"/>
<circle cx="32" cy="36" r="7.0" style="fill:red;stroke:black;stroke-width:1.0"/>
</svg>
