<svg width="440" height="340" xmlns="http://www.w3.org/2000/svg">
<path stroke-width="8.857142857142858" stroke="black" d="M 20 20 23 40"/>
<path stroke-width="20.0" stroke="black" d="M 103 249 111 252"/>
<path stroke-width="0.5" stroke="black" d="M 111 252 69 247"/>
<path stroke-width="20.0" stroke="black" d="M 111 252 103 249"/>
<path stroke-width="0.5" stroke="black" d="M 111 252 161 260"/>
<path stroke-width="20.0" stroke="black" d="M 156 271 161 260"/>
<path stroke-width="0.5" stroke="black" d="M 161 260 111 252"/>
<path stroke-width="20.0" stroke="black" d="M 161 260 156 271"/>
<path stroke-width="0.5" stroke="black" d="M 161 260 215 242"/>
<path stroke-width="20.0" stroke="black" d="M 212 251 215 242"/>
<path stroke-width="0.5" stroke="black" d="M 215 242 161 260"/>
<path stroke-width="20.0" stroke="black" d="M 215 242 212 251"/>
<path stroke-width="0.5" stroke="black" d="M 215 242 271 216"/>
<path stroke-width="20.0" stroke="black" d="M 271 206 271 216"/>
<path stroke-width="0.5" stroke="black" d="M 271 216 215 242"/>
<path stroke-width="20.0" stroke="black" d="M 271 216 271 206"/>
<path stroke-width="0.5" stroke="black" d="M 271 216 329 203"/>
<path stroke-width="20.0" stroke="black" d="M 333 191 329 203"/>
<path stroke-width="0.5" stroke="black" d="M 329 203 271 216"/>
<path stroke-width="20.0" stroke="black" d="M 329 203 333 191"/>
<path stroke-width="0.5" stroke="black" d="M 329 203 379 219"/>
<path stroke-width="20.0" stroke="black" d="M 390 214 379 219"/>
<path stroke-width="0.5" stroke="black" d="M 379 219 329 203"/>
<path stroke-width="20.0" stroke="black" d="M 379 219 390 214"/>
<path stroke-width="0.5" stroke="black" d="M 379 219 410 250"/>
<path stroke-width="14.428571428571429" stroke="black" d="M 420 261 410 250"/>
<path stroke-width="0.5" stroke="black" d="M 69 247 111 252"/>
<path stroke-width="20.0" stroke="black" d="M 69 247 59 237"/>
<path stroke-width="0.5" stroke="black" d="M 69 247 67 280"/>
<path stroke-width="20.0" stroke="black" d="M 59 237 69 247"/>
<path stroke-width="8.857142857142858" stroke="black" d="M 23 40 20 20"/>
<path stroke-width="0.5" stroke="black" d="M 23 40 33 97"/>
<path stroke-width="20.0" stroke="black" d="M 28 87 33 97"/>
<path stroke-width="0.5" stroke="black" d="M 33 97 23 40"/>
<path stroke-width="20.0" stroke="black" d="M 33 97 28 87"/>
<path stroke-width="0.5" stroke="black" d="M 33 97 49 159"/>
<path stroke-width="20.0" stroke="black" d="M 41 162 49 159"/>
<path stroke-width="0.5" stroke="black" d="M 49 159 33 97"/>
<path stroke-width="20.0" stroke="black" d="M 49 159 41 162"/>
<path stroke-width="0.5" stroke="black" d="M 49 159 70 223"/>
<path stroke-width="20.0" stroke="black" d="M 69 231 70 223"/>
<path stroke-width="0.5" stroke="black" d="M 70 223 49 159"/>
<path stroke-width="0.5" stroke="black" d="M 410 250 379 219"/>
<path stroke-width="20.0" stroke="black" d="M 70 223 69 231"/>
<path stroke-width="20.0" stroke="black" d="M 96 290 88 277"/>
<path stroke-width="0.5" stroke="black" d="M 88 277 70 223"/>
<path stroke-width="20.0" stroke="black" d="M 88 277 96 290"/>
<path stroke-width="0.5" stroke="black" d="M 88 277 87 309"/>
<path stroke-width="20.0" stroke="black" d="M 90 320 87 309"/>
<path stroke-width="0.5" stroke="black" d="M 87 309 88 277"/>
<path stroke-width="20.0" stroke="black" d="M 87 309 90 320"/>
<path stroke-width="0.5" stroke="black" d="M 87 309 67 280"/>
<path stroke-width="20.0" stroke="black" d="M 58 282 67 280"/>
<path stroke-width="0.5" stroke="black" d="M 67 280 87 309"/>
<path stroke-width="20.0" stroke="black" d="M 67 280 58 282"/>
<path stroke-width="0.5" stroke="black" d="M 67 280 69 247"/>
<path stroke-width="0.5" stroke="black" d="M 70 223 88 277"/>
<path stroke-width="14.428571428571429" stroke="black" d="M 410 250 420 261"/>
<circle cx="20" cy="20" r="7.0" style="fill:blue;stroke:black;stroke-width:1.0"/>
<circle cx="23" cy="40" r="7.0" style="fill:blue;stroke:black;stroke-width:1.0"/>
<circle cx="28" cy="87" r="7.0" style="fill:blue;stroke:black;stroke-width:1.0"/>
<circle cx="33" cy="97" r="7.0" style="fill:blue;stroke:black;stroke-width:1.0"/>
<circle cx="41" cy="162" r="7.0" style="fill:green;stroke:black;stroke-width:1.0"/>
<circle cx="49" cy="159" r="7.0" style="fill:green;stroke:black;stroke-width:1.0"/>
<circle cx="69" cy="231" r="7.0" style="fill:orange;stroke:black;stroke-width:1.0"/>
<circle cx="70" cy="223" r="7.0" style="fill:orange;stroke:black;stroke-width:1.0"/>
<circle cx="96" cy="290" r="7.0" style="fill:purple;stroke:black;stroke-width:1.0"/>
<circle cx="88" cy="277" r="7.0" style="fill:purple;stroke:black;stroke-width:1.0"/>
<circle cx="90" cy="320" r="7.0" style="fill:yellow;stroke:black;stroke-width:1.0"/>
<circle cx="87" cy="309" r="7.0" style="fill:yellow;stroke:black;stroke-width:1.0"/>
<circle cx="58" cy="282" r="7.0" style="fill:fuchsia;stroke:black;stroke-width:1.0"/>
<circle cx="67" cy="280" r="7.0" style="fill:fuchsia;stroke:black;stroke-width:1.0"/>
<circle cx="59" cy="237" r="7.0" style="fill:olive;stroke:black;stroke-width:1.0"/>
<circle cx="69" cy="247" r="7.0" style="fill:olive;stroke:black;stroke-width:1.0"/>
<circle cx="103" cy="249" r="7.0" style="fill:aqua;stroke:black;stroke-width:1.0"/>
<circle cx="111" cy="252" r="7.0" style="fill:aqua;stroke:black;stroke-width:1.0"/>
<circle cx="156" cy="271" r="7.0" style="fill:brown;stroke:black;stroke-width:1.0"/>
<circle cx="161" cy="260" r="7.0" style="fill:brown;stroke:black;stroke-width:1.0"/>
<circle cx="212" cy="251" r="7.0" style="fill:blue;stroke:black;stroke-width:1.0"/>
<circle cx="215" cy="242" r="7.0" style="fill:blue;stroke:black;stroke-width:1.0"/>
<circle cx="271" cy="206" r="7.0" style="fill:red;stroke:black;stroke-width:1.0"/>
<circle cx="271" cy="216" r="7.0" style="fill:red;stroke:black;stroke-width:1.0"/>
<circle cx="333" cy="191" r="7.0" style="fill:green;stroke:black;stroke-width:1.0"/>
<circle cx="329" cy="203" r="7.0" style="fill:green;stroke:black;stroke-width:1.0"/>
<circle cx="390" cy="214" r="7.0" style="fill:red;stroke:black;stroke-width:1.0"/>
<circle cx="379" cy="219" r="7.0" style="fill:red;stroke:black;stroke-width:1.0"/>
<circle cx="420" cy="261" r="7.0" style="fill:red;stroke:black;stroke-width:1.0"/>
<circle cx="410" cy="250" r="7.0" style="fill:red;stroke:black;stroke-width:1.0"/>
</svg>
