<svg width="440" height="340" xmlns="http://www.w3.org/2000/svg">
<path stroke-width="20.0" stroke="black" d="M 395 320 396 303"/>
<path stroke-width="20.0" stroke="black" d="M 256 40 271 42"/>
<path stroke-width="0.5" stroke="black" d="M 256 40 189 64"/>
<path stroke-width="20.0" stroke="black" d="M 183 47 189 64"/>
<path stroke-width="0.5" stroke="black" d="M 189 64 256 40"/>
<path stroke-width="20.0" stroke="black" d="M 189 64 183 47"/>
<path stroke-width="0.5" stroke="black" d="M 189 64 126 114"/>
<path stroke-width="20.0" stroke="black" d="M 116 99 126 114"/>
<path stroke-width="0.5" stroke="black" d="M 126 114 189 64"/>
<path stroke-width="20.0" stroke="black" d="M 126 114 116 99"/>
<path stroke-width="0.5" stroke="black" d="M 126 114 74 168"/>
<path stroke-width="20.0" stroke="black" d="M 58 162 74 168"/>
<path stroke-width="0.5" stroke="black" d="M 74 168 126 114"/>
<path stroke-width="20.0" stroke="black" d="M 74 168 58 162"/>
<path stroke-width="0.5" stroke="black" d="M 74 168 36 224"/>
<path stroke-width="8.857142857142858" stroke="black" d="M 20 245 36 224"/>
<path stroke-width="0.5" stroke="black" d="M 256 40 328 33"/>
<path stroke-width="20.0" stroke="black" d="M 271 42 256 40"/>
<path stroke-width="0.5" stroke="black" d="M 328 33 256 40"/>
<path stroke-width="20.0" stroke="black" d="M 328 33 335 20"/>
<path stroke-width="20.0" stroke="black" d="M 396 303 395 320"/>
<path stroke-width="0.5" stroke="black" d="M 396 303 407 234"/>
<path stroke-width="20.0" stroke="black" d="M 420 246 407 234"/>
<path stroke-width="0.5" stroke="black" d="M 407 234 396 303"/>
<path stroke-width="20.0" stroke="black" d="M 407 234 420 246"/>
<path stroke-width="0.5" stroke="black" d="M 407 234 404 158"/>
<path stroke-width="20.0" stroke="black" d="M 419 158 404 158"/>
<path stroke-width="0.5" stroke="black" d="M 36 224 74 168"/>
<path stroke-width="0.5" stroke="black" d="M 404 158 407 234"/>
<path stroke-width="0.5" stroke="black" d="M 404 158 380 84"/>
<path stroke-width="20.0" stroke="black" d="M 394 71 380 84"/>
<path stroke-width="0.5" stroke="black" d="M 380 84 404 158"/>
<path stroke-width="20.0" stroke="black" d="M 380 84 394 71"/>
<path stroke-width="0.5" stroke="black" d="M 380 84 328 33"/>
<path stroke-width="20.0" stroke="black" d="M 335 20 328 33"/>
<path stroke-width="0.5" stroke="black" d="M 328 33 380 84"/>
<path stroke-width="20.0" stroke="black" d="M 404 158 419 158"/>
<path stroke-width="8.857142857142858" stroke="black" d="M 36 224 20 245"/>
<circle cx="395" cy="320" r="20.0" style="fill:gray;stroke:black;stroke-width:1.0"/>
<circle cx="396" cy="303" r="20.0" style="fill:gray;stroke:black;stroke-width:1.0"/>
<circle cx="420" cy="246" r="20.0" style="fill:gray;stroke:black;stroke-width:1.0"/>
<circle cx="407" cy="234" r="20.0" style="fill:gray;stroke:black;stroke-width:1.0"/>
<circle cx="419" cy="158" r="20.0" style="fill:gray;stroke:black;stroke-width:1.0"/>
<circle cx="404" cy="158" r="20.0" style="fill:gray;stroke:black;stroke-width:1.0"/>
<circle cx="394" cy="71" r="20.0" style="fill:gray;stroke:black;stroke-width:1.0"/>
<circle cx="380" cy="84" r="20.0" style="fill:gray;stroke:black;stroke-width:1.0"/>
<circle cx="335" cy="20" r="20.0" style="fill:gray;stroke:black;stroke-width:1.0"/>
<circle cx="328" cy="33" r="20.0" style="fill:gray;stroke:black;stroke-width:1.0"/>
<circle cx="271" cy="42" r="20.0" style="fill:gray;stroke:black;stroke-width:1.0"/>
<circle cx="256" cy="40" r="20.0" style="fill:gray;stroke:black;stroke-width:1.0"/>
<circle cx="183" cy="47" r="20.0" style="fill:gray;stroke:black;stroke-width:1.0"/>
<circle cx="189" cy="64" r="20.0" style="fill:gray;stroke:black;stroke-width:1.0"/>
<circle cx="116" cy="99" r="20.0" style="fill:gray;stroke:black;stroke-width:1.0"/>
<circle cx="126" cy="114" r="20.0" style="fill:gray;stroke:black;stroke-width:1.0"/>
<circle cx="58" cy="162" r="20.0" style="fill:gray;stroke:black;stroke-width:1.0"/>
<circle cx="74" cy="168" r="20.0" style="fill:gray;stroke:black;stroke-width:1.0"/>
<circle cx="20" cy="245" r="20.0" style="fill:gray;stroke:black;stroke-width:1.0"/>
<circle cx="36" cy="224" r="20.0" style="fill:gray;stroke:black;stroke-width:1.0"/>
</svg>
