<svg width="440" height="340" xmlns="http://www.w3.org/2000/svg">
<path stroke-width="20.0" stroke="black" d="M 181 320 171 318"/>
<path stroke-width="0.5" stroke="black" d="M 165 116 191 133"/>
<path stroke-width="20.0" stroke="black" d="M 165 116 162 129"/>
<path stroke-width="0.5" stroke="black" d="M 165 116 148 75"/>
<path stroke-width="20.0" stroke="black" d="M 162 129 165 116"/>
<path stroke-width="0.5" stroke="black" d="M 148 75 165 116"/>
<path stroke-width="20.0" stroke="black" d="M 148 75 143 62"/>
<path stroke-width="0.5" stroke="black" d="M 148 75 146 90"/>
<path stroke-width="20.0" stroke="black" d="M 143 62 148 75"/>
<path stroke-width="0.5" stroke="black" d="M 146 90 148 75"/>
<path stroke-width="20.0" stroke="black" d="M 187 147 191 133"/>
<path stroke-width="20.0" stroke="black" d="M 146 90 157 83"/>
<path stroke-width="20.0" stroke="black" d="M 157 83 146 90"/>
<path stroke-width="0.5" stroke="black" d="M 115 110 146 90"/>
<path stroke-width="20.0" stroke="black" d="M 115 110 108 99"/>
<path stroke-width="0.5" stroke="black" d="M 115 110 105 156"/>
<path stroke-width="20.0" stroke="black" d="M 108 99 115 110"/>
<path stroke-width="0.5" stroke="black" d="M 105 156 115 110"/>
<path stroke-width="20.0" stroke="black" d="M 105 156 92 159"/>
<path stroke-width="0.5" stroke="black" d="M 105 156 148 179"/>
<path stroke-width="20.0" stroke="black" d="M 92 159 105 156"/>
<path stroke-width="0.5" stroke="black" d="M 146 90 115 110"/>
<path stroke-width="0.5" stroke="black" d="M 191 133 165 116"/>
<path stroke-width="20.0" stroke="black" d="M 191 133 187 147"/>
<path stroke-width="0.5" stroke="black" d="M 191 133 222 107"/>
<path stroke-width="8.857142857142858" stroke="black" d="M 20 89 37 80"/>
<path stroke-width="0.5" stroke="black" d="M 82 55 37 80"/>
<path stroke-width="20.0" stroke="black" d="M 82 55 72 58"/>
<path stroke-width="0.5" stroke="black" d="M 82 55 141 32"/>
<path stroke-width="20.0" stroke="black" d="M 72 58 82 55"/>
<path stroke-width="0.5" stroke="black" d="M 141 32 82 55"/>
<path stroke-width="20.0" stroke="black" d="M 141 32 147 20"/>
<path stroke-width="0.5" stroke="black" d="M 141 32 197 32"/>
<path stroke-width="20.0" stroke="black" d="M 147 20 141 32"/>
<path stroke-width="0.5" stroke="black" d="M 197 32 141 32"/>
<path stroke-width="20.0" stroke="black" d="M 197 32 208 25"/>
<path stroke-width="0.5" stroke="black" d="M 197 32 234 60"/>
<path stroke-width="20.0" stroke="black" d="M 208 25 197 32"/>
<path stroke-width="0.5" stroke="black" d="M 234 60 197 32"/>
<path stroke-width="20.0" stroke="black" d="M 234 60 246 57"/>
<path stroke-width="0.5" stroke="black" d="M 234 60 222 107"/>
<path stroke-width="20.0" stroke="black" d="M 246 57 234 60"/>
<path stroke-width="0.5" stroke="black" d="M 222 107 234 60"/>
<path stroke-width="20.0" stroke="black" d="M 222 107 230 115"/>
<path stroke-width="0.5" stroke="black" d="M 222 107 191 133"/>
<path stroke-width="20.0" stroke="black" d="M 230 115 222 107"/>
<path stroke-width="0.5" stroke="black" d="M 148 179 105 156"/>
<path stroke-width="20.0" stroke="black" d="M 148 179 137 186"/>
<path stroke-width="0.5" stroke="black" d="M 148 179 211 174"/>
<path stroke-width="20.0" stroke="black" d="M 137 186 148 179"/>
<path stroke-width="20.0" stroke="black" d="M 319 245 327 253"/>
<path stroke-width="0.5" stroke="black" d="M 319 245 259 267"/>
<path stroke-width="20.0" stroke="black" d="M 327 253 319 245"/>
<path stroke-width="0.5" stroke="black" d="M 259 267 319 245"/>
<path stroke-width="20.0" stroke="black" d="M 259 267 260 280"/>
<path stroke-width="0.5" stroke="black" d="M 259 267 198 278"/>
<path stroke-width="20.0" stroke="black" d="M 260 280 259 267"/>
<path stroke-width="0.5" stroke="black" d="M 198 278 259 267"/>
<path stroke-width="20.0" stroke="black" d="M 198 278 189 279"/>
<path stroke-width="0.5" stroke="black" d="M 198 278 147 284"/>
<path stroke-width="20.0" stroke="black" d="M 189 279 198 278"/>
<path stroke-width="0.5" stroke="black" d="M 147 284 198 278"/>
<path stroke-width="20.0" stroke="black" d="M 147 284 132 283"/>
<path stroke-width="0.5" stroke="black" d="M 147 284 143 314"/>
<path stroke-width="20.0" stroke="black" d="M 132 283 147 284"/>
<path stroke-width="0.5" stroke="black" d="M 143 314 147 284"/>
<path stroke-width="20.0" stroke="black" d="M 143 314 134 318"/>
<path stroke-width="0.5" stroke="black" d="M 143 314 171 318"/>
<path stroke-width="20.0" stroke="black" d="M 134 318 143 314"/>
<path stroke-width="0.5" stroke="black" d="M 171 318 143 314"/>
<path stroke-width="20.0" stroke="black" d="M 171 318 181 320"/>
<path stroke-width="0.5" stroke="black" d="M 319 245 373 209"/>
<path stroke-width="0.5" stroke="black" d="M 37 80 82 55"/>
<path stroke-width="20.0" stroke="black" d="M 384 212 373 209"/>
<path stroke-width="20.0" stroke="black" d="M 373 209 384 212"/>
<path stroke-width="0.5" stroke="black" d="M 211 174 148 179"/>
<path stroke-width="20.0" stroke="black" d="M 211 174 204 187"/>
<path stroke-width="0.5" stroke="black" d="M 211 174 273 153"/>
<path stroke-width="20.0" stroke="black" d="M 204 187 211 174"/>
<path stroke-width="0.5" stroke="black" d="M 273 153 211 174"/>
<path stroke-width="20.0" stroke="black" d="M 273 153 281 159"/>
<path stroke-width="0.5" stroke="black" d="M 273 153 333 127"/>
<path stroke-width="20.0" stroke="black" d="M 281 159 273 153"/>
<path stroke-width="0.5" stroke="black" d="M 333 127 273 153"/>
<path stroke-width="20.0" stroke="black" d="M 333 127 341 119"/>
<path stroke-width="0.5" stroke="black" d="M 333 127 383 118"/>
<path stroke-width="20.0" stroke="black" d="M 341 119 333 127"/>
<path stroke-width="0.5" stroke="black" d="M 383 118 333 127"/>
<path stroke-width="20.0" stroke="black" d="M 383 118 394 107"/>
<path stroke-width="0.5" stroke="black" d="M 383 118 406 159"/>
<path stroke-width="20.0" stroke="black" d="M 394 107 383 118"/>
<path stroke-width="0.5" stroke="black" d="M 406 159 383 118"/>
<path stroke-width="20.0" stroke="black" d="M 406 159 420 155"/>
<path stroke-width="0.5" stroke="black" d="M 406 159 373 209"/>
<path stroke-width="20.0" stroke="black" d="M 420 155 406 159"/>
<path stroke-width="0.5" stroke="black" d="M 373 209 406 159"/>
<path stroke-width="0.5" stroke="black" d="M 373 209 319 245"/>
<path stroke-width="8.857142857142858" stroke="black" d="M 37 80 20 89"/>
<circle cx="181" cy="320" r="20.0" style="fill:gray;stroke:black;stroke-width:1.0"/>
<circle cx="171" cy="318" r="20.0" style="fill:gray;stroke:black;stroke-width:1.0"/>
<circle cx="134" cy="318" r="20.0" style="fill:gray;stroke:black;stroke-width:1.0"/>
<circle cx="143" cy="314" r="20.0" style="fill:gray;stroke:black;stroke-width:1.0"/>
<circle cx="132" cy="283" r="20.0" style="fill:gray;stroke:black;stroke-width:1.0"/>
<circle cx="147" cy="284" r="20.0" style="fill:gray;stroke:black;stroke-width:1.0"/>
<circle cx="189" cy="279" r="20.0" style="fill:gray;stroke:black;stroke-width:1.0"/>
<circle cx="198" cy="278" r="20.0" style="fill:gray;stroke:black;stroke-width:1.0"/>
<circle cx="260" cy="280" r="20.0" style="fill:gray;stroke:black;stroke-width:1.0"/>
<circle cx="259" cy="267" r="20.0" style="fill:gray;stroke:black;stroke-width:1.0"/>
<circle cx="327" cy="253" r="20.0" style="fill:gray;stroke:black;stroke-width:1.0"/>
<circle cx="319" cy="245" r="20.0" style="fill:gray;stroke:black;stroke-width:1.0"/>
<circle cx="384" cy="212" r="20.0" style="fill:gray;stroke:black;stroke-width:1.0"/>
<circle cx="373" cy="209" r="20.0" style="fill:gray;stroke:black;stroke-width:1.0"/>
<circle cx="420" cy="155" r="20.0" style="fill:gray;stroke:black;stroke-width:1.0"/>
<circle cx="406" cy="159" r="20.0" style="fill:gray;stroke:black;stroke-width:1.0"/>
<circle cx="394" cy="107" r="20.0" style="fill:gray;stroke:black;stroke-width:1.0"/>
<circle cx="383" cy="118" r="20.0" style="fill:gray;stroke:black;stroke-width:1.0"/>
<circle cx="341" cy="119" r="20.0" style="fill:gray;stroke:black;stroke-width:1.0"/>
<circle cx="333" cy="127" r="20.0" style="fill:gray;stroke:black;stroke-width:1.0"/>
<circle cx="281" cy="159" r="20.0" style="fill:gray;stroke:black;stroke-width:1.0"/>
<circle cx="273" cy="153" r="20.0" style="fill:gray;stroke:black;stroke-width:1.0"/>
<circle cx="204" cy="187" r="20.0" style="fill:gray;stroke:black;stroke-width:1.0"/>
<circle cx="211" cy="174" r="20.0" style="fill:gray;stroke:black;stroke-width:1.0"/>
<circle cx="137" cy="186" r="20.0" style="fill:gray;stroke:black;stroke-width:1.0"/>
<circle cx="148" cy="179" r="20.0" style="fill:gray;stroke:black;stroke-width:1.0"/>
<circle cx="92" cy="159" r="20.0" style="fill:gray;stroke:black;stroke-width:1.0"/>
<circle cx="105" cy="156" r="20.0" style="fill:gray;stroke:black;stroke-width:1.0"/>
<circle cx="108" cy="99" r="20.0" style="fill:gray;stroke:black;stroke-width:1.0"/>
<circle cx="115" cy="110" r="20.0" style="fill:gray;stroke:black;stroke-width:1.0"/>
<circle cx="157" cy="83" r="20.0" style="fill:gray;stroke:black;stroke-width:1.0"/>
<circle cx="146" cy="90" r="20.0" style="fill:gray;stroke:black;stroke-width:1.0"/>
<circle cx="143" cy="62" r="20.0" style="fill:gray;stroke:black;stroke-width:1.0"/>
<circle cx="148" cy="75" r="20.0" style="fill:gray;stroke:black;stroke-width:1.0"/>
<circle cx="162" cy="129" r="20.0" style="fill:gray;stroke:black;stroke-width:1.0"/>
<circle cx="165" cy="116" r="20.0" style="fill:gray;stroke:black;stroke-width:1.0"/>
<circle cx="187" cy="147" r="20.0" style="fill:gray;stroke:black;stroke-width:1.0"/>
<circle cx="191" cy="133" r="20.0" style="fill:gray;stroke:black;stroke-width:1.0"/>
<circle cx="230" cy="115" r="20.0" style="fill:gray;stroke:black;stroke-width:1.0"/>
<circle cx="222" cy="107" r="20.0" style="fill:gray;stroke:black;stroke-width:1.0"/>
<circle cx="246" cy="57" r="20.0" style="fill:gray;stroke:black;stroke-width:1.0"/>
<circle cx="234" cy="60" r="20.0" style="fill:gray;stroke:black;stroke-width:1.0"/>
<circle cx="208" cy="25" r="20.0" style="fill:gray;stroke:black;stroke-width:1.0"/>
<circle cx="197" cy="32" r="20.0" style="fill:gray;stroke:black;stroke-width:1.0"/>
<circle cx="147" cy="20" r="20.0" style="fill:gray;stroke:black;stroke-width:1.0"/>
<circle cx="141" cy="32" r="20.0" style="fill:gray;stroke:black;stroke-width:1.0"/>
<circle cx="72" cy="58" r="20.0" style="fill:gray;stroke:black;stroke-width:1.0"/>
<circle cx="82" cy="55" r="20.0" style="fill:gray;stroke:black;stroke-width:1.0"/>
<circle cx="20" cy="89" r="20.0" style="fill:gray;stroke:black;stroke-width:1.0"/>
<circle cx="37" cy="80" r="20.0" style="fill:gray;stroke:black;stroke-width:1.0"/>
</svg>
