<svg width="440" height="340" xmlns="http://www.w3.org/2000/svg">
<path stroke-width="1" stroke="black" d="M 136 20 125 27"/>
<path stroke-width="1" stroke="black" d="M 252 215 209 196"/>
<path stroke-width="1" stroke="black" d="M 252 215 247 223"/>
<path stroke-width="1" stroke="black" d="M 252 215 307 216"/>
<path stroke-width="1" stroke="black" d="M 247 223 252 215"/>
<path stroke-width="1" stroke="black" d="M 307 216 252 215"/>
<path stroke-width="1" stroke="black" d="M 307 216 319 217"/>
<path stroke-width="1" stroke="black" d="M 307 216 349 213"/>
<path stroke-width="1" stroke="black" d="M 319 217 307 216"/>
<path stroke-width="1" stroke="black" d="M 349 213 307 216"/>
<path stroke-width="1" stroke="black" d="M 195 200 209 196"/>
<path stroke-width="1" stroke="black" d="M 349 213 363 206"/>
<path stroke-width="1" stroke="black" d="M 363 206 349 213"/>
<path stroke-width="1" stroke="black" d="M 332 241 349 213"/>
<path stroke-width="1" stroke="black" d="M 332 241 342 243"/>
<path stroke-width="1" stroke="black" d="M 332 241 304 265"/>
<path stroke-width="1" stroke="black" d="M 342 243 332 241"/>
<path stroke-width="1" stroke="black" d="M 304 265 332 241"/>
<path stroke-width="1" stroke="black" d="M 304 265 291 269"/>
<path stroke-width="1" stroke="black" d="M 304 265 323 283"/>
<path stroke-width="1" stroke="black" d="M 291 269 304 265"/>
<path stroke-width="1" stroke="black" d="M 349 213 332 241"/>
<path stroke-width="1" stroke="black" d="M 209 196 252 215"/>
<path stroke-width="1" stroke="black" d="M 209 196 195 200"/>
<path stroke-width="1" stroke="black" d="M 209 196 213 165"/>
<path stroke-width="1" stroke="black" d="M 369 320 377 306"/>
<path stroke-width="1" stroke="black" d="M 388 265 377 306"/>
<path stroke-width="1" stroke="black" d="M 388 265 401 274"/>
<path stroke-width="1" stroke="black" d="M 388 265 372 219"/>
<path stroke-width="1" stroke="black" d="M 401 274 388 265"/>
<path stroke-width="1" stroke="black" d="M 372 219 388 265"/>
<path stroke-width="1" stroke="black" d="M 372 219 383 215"/>
<path stroke-width="1" stroke="black" d="M 372 219 319 173"/>
<path stroke-width="1" stroke="black" d="M 383 215 372 219"/>
<path stroke-width="1" stroke="black" d="M 319 173 372 219"/>
<path stroke-width="1" stroke="black" d="M 319 173 320 164"/>
<path stroke-width="1" stroke="black" d="M 319 173 264 153"/>
<path stroke-width="1" stroke="black" d="M 320 164 319 173"/>
<path stroke-width="1" stroke="black" d="M 264 153 319 173"/>
<path stroke-width="1" stroke="black" d="M 264 153 258 141"/>
<path stroke-width="1" stroke="black" d="M 264 153 213 165"/>
<path stroke-width="1" stroke="black" d="M 258 141 264 153"/>
<path stroke-width="1" stroke="black" d="M 213 165 264 153"/>
<path stroke-width="1" stroke="black" d="M 213 165 202 160"/>
<path stroke-width="1" stroke="black" d="M 213 165 209 196"/>
<path stroke-width="1" stroke="black" d="M 202 160 213 165"/>
<path stroke-width="1" stroke="black" d="M 323 283 304 265"/>
<path stroke-width="1" stroke="black" d="M 323 283 313 290"/>
<path stroke-width="1" stroke="black" d="M 323 283 367 268"/>
<path stroke-width="1" stroke="black" d="M 313 290 323 283"/>
<path stroke-width="1" stroke="black" d="M 146 167 134 172"/>
<path stroke-width="1" stroke="black" d="M 146 167 74 158"/>
<path stroke-width="1" stroke="black" d="M 134 172 146 167"/>
<path stroke-width="1" stroke="black" d="M 74 158 146 167"/>
<path stroke-width="1" stroke="black" d="M 74 158 60 164"/>
<path stroke-width="1" stroke="black" d="M 74 158 35 126"/>
<path stroke-width="1" stroke="black" d="M 60 164 74 158"/>
<path stroke-width="1" stroke="black" d="M 35 126 74 158"/>
<path stroke-width="1" stroke="black" d="M 35 126 20 129"/>
<path stroke-width="1" stroke="black" d="M 35 126 48 86"/>
<path stroke-width="1" stroke="black" d="M 20 129 35 126"/>
<path stroke-width="1" stroke="black" d="M 48 86 35 126"/>
<path stroke-width="1" stroke="black" d="M 48 86 36 82"/>
<path stroke-width="1" stroke="black" d="M 48 86 88 53"/>
<path stroke-width="1" stroke="black" d="M 36 82 48 86"/>
<path stroke-width="1" stroke="black" d="M 88 53 48 86"/>
<path stroke-width="1" stroke="black" d="M 88 53 95 48"/>
<path stroke-width="1" stroke="black" d="M 88 53 125 27"/>
<path stroke-width="1" stroke="black" d="M 95 48 88 53"/>
<path stroke-width="1" stroke="black" d="M 125 27 88 53"/>
<path stroke-width="1" stroke="black" d="M 125 27 136 20"/>
<path stroke-width="1" stroke="black" d="M 146 167 235 167"/>
<path stroke-width="1" stroke="black" d="M 377 306 388 265"/>
<path stroke-width="1" stroke="black" d="M 243 169 235 167"/>
<path stroke-width="1" stroke="black" d="M 235 167 243 169"/>
<path stroke-width="1" stroke="black" d="M 367 268 323 283"/>
<path stroke-width="1" stroke="black" d="M 367 268 368 278"/>
<path stroke-width="1" stroke="black" d="M 367 268 401 234"/>
<path stroke-width="1" stroke="black" d="M 368 278 367 268"/>
<path stroke-width="1" stroke="black" d="M 401 234 367 268"/>
<path stroke-width="1" stroke="black" d="M 401 234 412 238"/>
<path stroke-width="1" stroke="black" d="M 401 234 412 194"/>
<path stroke-width="1" stroke="black" d="M 412 238 401 234"/>
<path stroke-width="1" stroke="black" d="M 412 194 401 234"/>
<path stroke-width="1" stroke="black" d="M 412 194 420 186"/>
<path stroke-width="1" stroke="black" d="M 412 194 390 165"/>
<path stroke-width="1" stroke="black" d="M 420 186 412 194"/>
<path stroke-width="1" stroke="black" d="M 390 165 412 194"/>
<path stroke-width="1" stroke="black" d="M 390 165 407 160"/>
<path stroke-width="1" stroke="black" d="M 390 165 320 165"/>
<path stroke-width="1" stroke="black" d="M 407 160 390 165"/>
<path stroke-width="1" stroke="black" d="M 320 165 390 165"/>
<path stroke-width="1" stroke="black" d="M 320 165 336 163"/>
<path stroke-width="1" stroke="black" d="M 320 165 235 167"/>
<path stroke-width="1" stroke="black" d="M 336 163 320 165"/>
<path stroke-width="1" stroke="black" d="M 235 167 320 165"/>
<path stroke-width="1" stroke="black" d="M 235 167 146 167"/>
<path stroke-width="1" stroke="black" d="M 377 306 369 320"/>
<circle cx="136" cy="20" r="7.0" style="fill:blue;stroke:black;stroke-width:1.0"/>
<circle cx="125" cy="27" r="7.0" style="fill:blue;stroke:black;stroke-width:1.0"/>
<circle cx="95" cy="48" r="7.0" style="fill:blue;stroke:black;stroke-width:1.0"/>
<circle cx="88" cy="53" r="7.0" style="fill:blue;stroke:black;stroke-width:1.0"/>
<circle cx="36" cy="82" r="7.0" style="fill:red;stroke:black;stroke-width:1.0"/>
<circle cx="48" cy="86" r="7.0" style="fill:red;stroke:black;stroke-width:1.0"/>
<circle cx="20" cy="129" r="7.0" style="fill:red;stroke:black;stroke-width:1.0"/>
<circle cx="35" cy="126" r="7.0" style="fill:red;stroke:black;stroke-width:1.0"/>
<circle cx="60" cy="164" r="7.0" style="fill:green;stroke:black;stroke-width:1.0"/>
<circle cx="74" cy="158" r="7.0" style="fill:green;stroke:black;stroke-width:1.0"/>
<circle cx="134" cy="172" r="7.0" style="fill:green;stroke:black;stroke-width:1.0"/>
<circle cx="146" cy="167" r="7.0" style="fill:green;stroke:black;stroke-width:1.0"/>
<circle cx="243" cy="169" r="7.0" style="fill:orange;stroke:black;stroke-width:1.0"/>
<circle cx="235" cy="167" r="7.0" style="fill:orange;stroke:black;stroke-width:1.0"/>
<circle cx="336" cy="163" r="7.0" style="fill:orange;stroke:black;stroke-width:1.0"/>
<circle cx="320" cy="165" r="7.0" style="fill:orange;stroke:black;stroke-width:1.0"/>
<circle cx="407" cy="160" r="7.0" style="fill:purple;stroke:black;stroke-width:1.0"/>
<circle cx="390" cy="165" r="7.0" style="fill:purple;stroke:black;stroke-width:1.0"/>
<circle cx="420" cy="186" r="7.0" style="fill:purple;stroke:black;stroke-width:1.0"/>
<circle cx="412" cy="194" r="7.0" style="fill:purple;stroke:black;stroke-width:1.0"/>
<circle cx="412" cy="238" r="7.0" style="fill:yellow;stroke:black;stroke-width:1.0"/>
<circle cx="401" cy="234" r="7.0" style="fill:yellow;stroke:black;stroke-width:1.0"/>
<circle cx="368" cy="278" r="7.0" style="fill:yellow;stroke:black;stroke-width:1.0"/>
<circle cx="367" cy="268" r="7.0" style="fill:yellow;stroke:black;stroke-width:1.0"/>
<circle cx="313" cy="290" r="7.0" style="fill:fuchsia;stroke:black;stroke-width:1.0"/>
<circle cx="323" cy="283" r="7.0" style="fill:fuchsia;stroke:black;stroke-width:1.0"/>
<circle cx="291" cy="269" r="7.0" style="fill:fuchsia;stroke:black;stroke-width:1.0"/>
<circle cx="304" cy="265" r="7.0" style="fill:fuchsia;stroke:black;stroke-width:1.0"/>
<circle cx="342" cy="243" r="7.0" style="fill:olive;stroke:black;stroke-width:1.0"/>
<circle cx="332" cy="241" r="7.0" style="fill:olive;stroke:black;stroke-width:1.0"/>
<circle cx="363" cy="206" r="7.0" style="fill:olive;stroke:black;stroke-width:1.0"/>
<circle cx="349" cy="213" r="7.0" style="fill:olive;stroke:black;stroke-width:1.0"/>
<circle cx="319" cy="217" r="7.0" style="fill:aqua;stroke:black;stroke-width:1.0"/>
<circle cx="307" cy="216" r="7.0" style="fill:aqua;stroke:black;stroke-width:1.0"/>
<circle cx="247" cy="223" r="7.0" style="fill:aqua;stroke:black;stroke-width:1.0"/>
<circle cx="252" cy="215" r="7.0" style="fill:aqua;stroke:black;stroke-width:1.0"/>
<circle cx="195" cy="200" r="7.0" style="fill:brown;stroke:black;stroke-width:1.0"/>
<circle cx="209" cy="196" r="7.0" style="fill:brown;stroke:black;stroke-width:1.0"/>
<circle cx="202" cy="160" r="7.0" style="fill:brown;stroke:black;stroke-width:1.0"/>
<circle cx="213" cy="165" r="7.0" style="fill:brown;stroke:black;stroke-width:1.0"/>
<circle cx="258" cy="141" r="7.0" style="fill:blue;stroke:black;stroke-width:1.0"/>
<circle cx="264" cy="153" r="7.0" style="fill:blue;stroke:black;stroke-width:1.0"/>
<circle cx="320" cy="164" r="7.0" style="fill:blue;stroke:black;stroke-width:1.0"/>
<circle cx="319" cy="173" r="7.0" style="fill:blue;stroke:black;stroke-width:1.0"/>
<circle cx="383" cy="215" r="7.0" style="fill:green;stroke:black;stroke-width:1.0"/>
<circle cx="372" cy="219" r="7.0" style="fill:green;stroke:black;stroke-width:1.0"/>
<circle cx="401" cy="274" r="7.0" style="fill:red;stroke:black;stroke-width:1.0"/>
<circle cx="388" cy="265" r="7.0" style="fill:red;stroke:black;stroke-width:1.0"/>
<circle cx="369" cy="320" r="7.0" style="fill:red;stroke:black;stroke-width:1.0"/>
<circle cx="377" cy="306" r="7.0" style="fill:red;stroke:black;stroke-width:1.0"/>
</svg>
