<svg width="440" height="340" xmlns="http://www.w3.org/2000/svg">
<path stroke-width="1" stroke="black" d="M 191 152 192 151"/>
<path stroke-width="1" stroke="black" d="M 241 142 194 149"/>
<path stroke-width="1" stroke="black" d="M 241 142 192 151"/>
<path stroke-width="1" stroke="black" d="M 420 137 241 142"/>
<path stroke-width="1" stroke="black" d="M 219 214 185 139"/>
<path stroke-width="1" stroke="black" d="M 219 214 183 139"/>
<path stroke-width="1" stroke="black" d="M 219 214 241 142"/>
<path stroke-width="1" stroke="black" d="M 219 214 269 320"/>
<path stroke-width="1" stroke="black" d="M 219 214 98 160"/>
<path stroke-width="1" stroke="black" d="M 219 214 206 67"/>
<path stroke-width="1" stroke="black" d="M 219 214 162 138"/>
<path stroke-width="1" stroke="black" d="M 219 214 199 121"/>
<path stroke-width="1" stroke="black" d="M 219 214 194 149"/>
<path stroke-width="1" stroke="black" d="M 219 214 192 151"/>
<path stroke-width="1" stroke="black" d="M 269 320 219 214"/>
<path stroke-width="1" stroke="black" d="M 98 160 185 139"/>
<path stroke-width="1" stroke="black" d="M 98 160 183 139"/>
<path stroke-width="1" stroke="black" d="M 98 160 241 142"/>
<path stroke-width="1" stroke="black" d="M 98 160 219 214"/>
<path stroke-width="1" stroke="black" d="M 98 160 20 174"/>
<path stroke-width="1" stroke="black" d="M 98 160 206 67"/>
<path stroke-width="1" stroke="black" d="M 98 160 162 138"/>
<path stroke-width="1" stroke="black" d="M 98 160 199 121"/>
<path stroke-width="1" stroke="black" d="M 98 160 194 149"/>
<path stroke-width="1" stroke="black" d="M 241 142 199 121"/>
<path stroke-width="1" stroke="black" d="M 241 142 162 138"/>
<path stroke-width="1" stroke="black" d="M 241 142 206 67"/>
<path stroke-width="1" stroke="black" d="M 241 142 98 160"/>
<path stroke-width="1" stroke="black" d="M 185 139 241 142"/>
<path stroke-width="1" stroke="black" d="M 185 139 219 214"/>
<path stroke-width="1" stroke="black" d="M 185 139 98 160"/>
<path stroke-width="1" stroke="black" d="M 185 139 206 67"/>
<path stroke-width="1" stroke="black" d="M 185 139 162 138"/>
<path stroke-width="1" stroke="black" d="M 185 139 199 121"/>
<path stroke-width="1" stroke="black" d="M 185 139 194 149"/>
<path stroke-width="1" stroke="black" d="M 185 139 192 151"/>
<path stroke-width="1" stroke="black" d="M 186 141 185 139"/>
<path stroke-width="1" stroke="black" d="M 183 139 185 139"/>
<path stroke-width="1" stroke="black" d="M 183 139 181 139"/>
<path stroke-width="1" stroke="black" d="M 98 160 192 151"/>
<path stroke-width="1" stroke="black" d="M 183 139 241 142"/>
<path stroke-width="1" stroke="black" d="M 183 139 98 160"/>
<path stroke-width="1" stroke="black" d="M 183 139 206 67"/>
<path stroke-width="1" stroke="black" d="M 183 139 162 138"/>
<path stroke-width="1" stroke="black" d="M 183 139 199 121"/>
<path stroke-width="1" stroke="black" d="M 183 139 194 149"/>
<path stroke-width="1" stroke="black" d="M 183 139 192 151"/>
<path stroke-width="1" stroke="black" d="M 181 139 183 139"/>
<path stroke-width="1" stroke="black" d="M 241 142 185 139"/>
<path stroke-width="1" stroke="black" d="M 241 142 183 139"/>
<path stroke-width="1" stroke="black" d="M 241 142 420 137"/>
<path stroke-width="1" stroke="black" d="M 241 142 219 214"/>
<path stroke-width="1" stroke="black" d="M 183 139 219 214"/>
<path stroke-width="1" stroke="black" d="M 20 174 98 160"/>
<path stroke-width="1" stroke="black" d="M 206 67 185 139"/>
<path stroke-width="1" stroke="black" d="M 206 67 183 139"/>
<path stroke-width="1" stroke="black" d="M 199 121 194 149"/>
<path stroke-width="1" stroke="black" d="M 199 121 192 151"/>
<path stroke-width="1" stroke="black" d="M 204 106 199 121"/>
<path stroke-width="1" stroke="black" d="M 194 149 185 139"/>
<path stroke-width="1" stroke="black" d="M 194 149 183 139"/>
<path stroke-width="1" stroke="black" d="M 194 149 241 142"/>
<path stroke-width="1" stroke="black" d="M 194 149 219 214"/>
<path stroke-width="1" stroke="black" d="M 194 149 98 160"/>
<path stroke-width="1" stroke="black" d="M 194 149 206 67"/>
<path stroke-width="1" stroke="black" d="M 194 149 162 138"/>
<path stroke-width="1" stroke="black" d="M 194 149 199 121"/>
<path stroke-width="1" stroke="black" d="M 199 121 204 106"/>
<path stroke-width="1" stroke="black" d="M 194 149 195 146"/>
<path stroke-width="1" stroke="black" d="M 195 146 194 149"/>
<path stroke-width="1" stroke="black" d="M 192 151 185 139"/>
<path stroke-width="1" stroke="black" d="M 192 151 183 139"/>
<path stroke-width="1" stroke="black" d="M 192 151 241 142"/>
<path stroke-width="1" stroke="black" d="M 192 151 219 214"/>
<path stroke-width="1" stroke="black" d="M 192 151 98 160"/>
<path stroke-width="1" stroke="black" d="M 192 151 206 67"/>
<path stroke-width="1" stroke="black" d="M 192 151 162 138"/>
<path stroke-width="1" stroke="black" d="M 192 151 199 121"/>
<path stroke-width="1" stroke="black" d="M 192 151 194 149"/>
<path stroke-width="1" stroke="black" d="M 192 151 191 152"/>
<path stroke-width="1" stroke="black" d="M 194 149 192 151"/>
<path stroke-width="1" stroke="black" d="M 185 139 183 139"/>
<path stroke-width="1" stroke="black" d="M 199 121 162 138"/>
<path stroke-width="1" stroke="black" d="M 199 121 98 160"/>
<path stroke-width="1" stroke="black" d="M 206 67 241 142"/>
<path stroke-width="1" stroke="black" d="M 206 67 219 214"/>
<path stroke-width="1" stroke="black" d="M 206 67 98 160"/>
<path stroke-width="1" stroke="black" d="M 206 67 219 20"/>
<path stroke-width="1" stroke="black" d="M 206 67 162 138"/>
<path stroke-width="1" stroke="black" d="M 206 67 199 121"/>
<path stroke-width="1" stroke="black" d="M 206 67 194 149"/>
<path stroke-width="1" stroke="black" d="M 206 67 192 151"/>
<path stroke-width="1" stroke="black" d="M 219 20 206 67"/>
<path stroke-width="1" stroke="black" d="M 162 138 185 139"/>
<path stroke-width="1" stroke="black" d="M 162 138 183 139"/>
<path stroke-width="1" stroke="black" d="M 199 121 206 67"/>
<path stroke-width="1" stroke="black" d="M 162 138 241 142"/>
<path stroke-width="1" stroke="black" d="M 162 138 98 160"/>
<path stroke-width="1" stroke="black" d="M 162 138 206 67"/>
<path stroke-width="1" stroke="black" d="M 162 138 145 134"/>
<path stroke-width="1" stroke="black" d="M 162 138 199 121"/>
<path stroke-width="1" stroke="black" d="M 162 138 194 149"/>
<path stroke-width="1" stroke="black" d="M 162 138 192 151"/>
<path stroke-width="1" stroke="black" d="M 145 134 162 138"/>
<path stroke-width="1" stroke="black" d="M 199 121 185 139"/>
<path stroke-width="1" stroke="black" d="M 199 121 183 139"/>
<path stroke-width="1" stroke="black" d="M 199 121 241 142"/>
<path stroke-width="1" stroke="black" d="M 199 121 219 214"/>
<path stroke-width="1" stroke="black" d="M 162 138 219 214"/>
<path stroke-width="1" stroke="black" d="M 185 139 186 141"/>
<circle cx="191" cy="152" r="20.0" style="fill:blue;stroke:black;stroke-width:1.0"/>
<circle cx="192" cy="151" r="20.0" style="fill:blue;stroke:black;stroke-width:1.0"/>
<circle cx="195" cy="146" r="20.0" style="fill:red;stroke:black;stroke-width:1.0"/>
<circle cx="194" cy="149" r="20.0" style="fill:red;stroke:black;stroke-width:1.0"/>
<circle cx="204" cy="106" r="20.0" style="fill:green;stroke:black;stroke-width:1.0"/>
<circle cx="199" cy="121" r="20.0" style="fill:green;stroke:black;stroke-width:1.0"/>
<circle cx="145" cy="134" r="20.0" style="fill:orange;stroke:black;stroke-width:1.0"/>
<circle cx="162" cy="138" r="20.0" style="fill:orange;stroke:black;stroke-width:1.0"/>
<circle cx="219" cy="20" r="20.0" style="fill:purple;stroke:black;stroke-width:1.0"/>
<circle cx="206" cy="67" r="20.0" style="fill:purple;stroke:black;stroke-width:1.0"/>
<circle cx="20" cy="174" r="20.0" style="fill:yellow;stroke:black;stroke-width:1.0"/>
<circle cx="98" cy="160" r="20.0" style="fill:yellow;stroke:black;stroke-width:1.0"/>
<circle cx="269" cy="320" r="20.0" style="fill:blue;stroke:black;stroke-width:1.0"/>
<circle cx="219" cy="214" r="20.0" style="fill:blue;stroke:black;stroke-width:1.0"/>
<circle cx="420" cy="137" r="20.0" style="fill:blue;stroke:black;stroke-width:1.0"/>
<circle cx="241" cy="142" r="20.0" style="fill:blue;stroke:black;stroke-width:1.0"/>
<circle cx="181" cy="139" r="20.0" style="fill:fuchsia;stroke:black;stroke-width:1.0"/>
<circle cx="183" cy="139" r="20.0" style="fill:fuchsia;stroke:black;stroke-width:1.0"/>
<circle cx="186" cy="141" r="20.0" style="fill:olive;stroke:black;stroke-width:1.0"/>
<circle cx="185" cy="139" r="20.0" style="fill:olive;stroke:black;stroke-width:1.0"/>
</svg>
