<svg width="440" height="340" xmlns="http://www.w3.org/2000/svg">
<path stroke-width="1" stroke="black" d="M 188 122 193 121"/>
<path stroke-width="1" stroke="black" d="M 233 160 182 122"/>
<path stroke-width="1" stroke="black" d="M 233 160 193 121"/>
<path stroke-width="1" stroke="black" d="M 378 320 233 160"/>
<path stroke-width="1" stroke="black" d="M 278 141 183 108"/>
<path stroke-width="1" stroke="black" d="M 278 141 182 110"/>
<path stroke-width="1" stroke="black" d="M 278 141 233 160"/>
<path stroke-width="1" stroke="black" d="M 278 141 420 183"/>
<path stroke-width="1" stroke="black" d="M 278 141 97 65"/>
<path stroke-width="1" stroke="black" d="M 278 141 89 136"/>
<path stroke-width="1" stroke="black" d="M 278 141 223 74"/>
<path stroke-width="1" stroke="black" d="M 278 141 208 94"/>
<path stroke-width="1" stroke="black" d="M 278 141 182 122"/>
<path stroke-width="1" stroke="black" d="M 278 141 193 121"/>
<path stroke-width="1" stroke="black" d="M 420 183 278 141"/>
<path stroke-width="1" stroke="black" d="M 97 65 183 108"/>
<path stroke-width="1" stroke="black" d="M 97 65 182 110"/>
<path stroke-width="1" stroke="black" d="M 97 65 233 160"/>
<path stroke-width="1" stroke="black" d="M 97 65 278 141"/>
<path stroke-width="1" stroke="black" d="M 97 65 20 20"/>
<path stroke-width="1" stroke="black" d="M 97 65 89 136"/>
<path stroke-width="1" stroke="black" d="M 97 65 223 74"/>
<path stroke-width="1" stroke="black" d="M 97 65 208 94"/>
<path stroke-width="1" stroke="black" d="M 97 65 182 122"/>
<path stroke-width="1" stroke="black" d="M 233 160 208 94"/>
<path stroke-width="1" stroke="black" d="M 233 160 223 74"/>
<path stroke-width="1" stroke="black" d="M 233 160 89 136"/>
<path stroke-width="1" stroke="black" d="M 233 160 97 65"/>
<path stroke-width="1" stroke="black" d="M 183 108 233 160"/>
<path stroke-width="1" stroke="black" d="M 183 108 278 141"/>
<path stroke-width="1" stroke="black" d="M 183 108 97 65"/>
<path stroke-width="1" stroke="black" d="M 183 108 89 136"/>
<path stroke-width="1" stroke="black" d="M 183 108 223 74"/>
<path stroke-width="1" stroke="black" d="M 183 108 208 94"/>
<path stroke-width="1" stroke="black" d="M 183 108 182 122"/>
<path stroke-width="1" stroke="black" d="M 183 108 193 121"/>
<path stroke-width="1" stroke="black" d="M 183 107 183 108"/>
<path stroke-width="1" stroke="black" d="M 182 110 183 108"/>
<path stroke-width="1" stroke="black" d="M 182 110 179 113"/>
<path stroke-width="1" stroke="black" d="M 97 65 193 121"/>
<path stroke-width="1" stroke="black" d="M 182 110 233 160"/>
<path stroke-width="1" stroke="black" d="M 182 110 97 65"/>
<path stroke-width="1" stroke="black" d="M 182 110 89 136"/>
<path stroke-width="1" stroke="black" d="M 182 110 223 74"/>
<path stroke-width="1" stroke="black" d="M 182 110 208 94"/>
<path stroke-width="1" stroke="black" d="M 182 110 182 122"/>
<path stroke-width="1" stroke="black" d="M 182 110 193 121"/>
<path stroke-width="1" stroke="black" d="M 179 113 182 110"/>
<path stroke-width="1" stroke="black" d="M 233 160 183 108"/>
<path stroke-width="1" stroke="black" d="M 233 160 182 110"/>
<path stroke-width="1" stroke="black" d="M 233 160 378 320"/>
<path stroke-width="1" stroke="black" d="M 233 160 278 141"/>
<path stroke-width="1" stroke="black" d="M 182 110 278 141"/>
<path stroke-width="1" stroke="black" d="M 20 20 97 65"/>
<path stroke-width="1" stroke="black" d="M 89 136 183 108"/>
<path stroke-width="1" stroke="black" d="M 89 136 182 110"/>
<path stroke-width="1" stroke="black" d="M 208 94 182 122"/>
<path stroke-width="1" stroke="black" d="M 208 94 193 121"/>
<path stroke-width="1" stroke="black" d="M 214 81 208 94"/>
<path stroke-width="1" stroke="black" d="M 182 122 183 108"/>
<path stroke-width="1" stroke="black" d="M 182 122 182 110"/>
<path stroke-width="1" stroke="black" d="M 182 122 233 160"/>
<path stroke-width="1" stroke="black" d="M 182 122 278 141"/>
<path stroke-width="1" stroke="black" d="M 182 122 97 65"/>
<path stroke-width="1" stroke="black" d="M 182 122 89 136"/>
<path stroke-width="1" stroke="black" d="M 182 122 223 74"/>
<path stroke-width="1" stroke="black" d="M 182 122 208 94"/>
<path stroke-width="1" stroke="black" d="M 208 94 214 81"/>
<path stroke-width="1" stroke="black" d="M 182 122 169 121"/>
<path stroke-width="1" stroke="black" d="M 169 121 182 122"/>
<path stroke-width="1" stroke="black" d="M 193 121 183 108"/>
<path stroke-width="1" stroke="black" d="M 193 121 182 110"/>
<path stroke-width="1" stroke="black" d="M 193 121 233 160"/>
<path stroke-width="1" stroke="black" d="M 193 121 278 141"/>
<path stroke-width="1" stroke="black" d="M 193 121 97 65"/>
<path stroke-width="1" stroke="black" d="M 193 121 89 136"/>
<path stroke-width="1" stroke="black" d="M 193 121 223 74"/>
<path stroke-width="1" stroke="black" d="M 193 121 208 94"/>
<path stroke-width="1" stroke="black" d="M 193 121 182 122"/>
<path stroke-width="1" stroke="black" d="M 193 121 188 122"/>
<path stroke-width="1" stroke="black" d="M 182 122 193 121"/>
<path stroke-width="1" stroke="black" d="M 183 108 182 110"/>
<path stroke-width="1" stroke="black" d="M 208 94 223 74"/>
<path stroke-width="1" stroke="black" d="M 208 94 97 65"/>
<path stroke-width="1" stroke="black" d="M 89 136 233 160"/>
<path stroke-width="1" stroke="black" d="M 89 136 278 141"/>
<path stroke-width="1" stroke="black" d="M 89 136 97 65"/>
<path stroke-width="1" stroke="black" d="M 89 136 27 149"/>
<path stroke-width="1" stroke="black" d="M 89 136 223 74"/>
<path stroke-width="1" stroke="black" d="M 89 136 208 94"/>
<path stroke-width="1" stroke="black" d="M 89 136 182 122"/>
<path stroke-width="1" stroke="black" d="M 89 136 193 121"/>
<path stroke-width="1" stroke="black" d="M 27 149 89 136"/>
<path stroke-width="1" stroke="black" d="M 223 74 183 108"/>
<path stroke-width="1" stroke="black" d="M 223 74 182 110"/>
<path stroke-width="1" stroke="black" d="M 208 94 89 136"/>
<path stroke-width="1" stroke="black" d="M 223 74 233 160"/>
<path stroke-width="1" stroke="black" d="M 223 74 97 65"/>
<path stroke-width="1" stroke="black" d="M 223 74 89 136"/>
<path stroke-width="1" stroke="black" d="M 223 74 238 50"/>
<path stroke-width="1" stroke="black" d="M 223 74 208 94"/>
<path stroke-width="1" stroke="black" d="M 223 74 182 122"/>
<path stroke-width="1" stroke="black" d="M 223 74 193 121"/>
<path stroke-width="1" stroke="black" d="M 238 50 223 74"/>
<path stroke-width="1" stroke="black" d="M 208 94 183 108"/>
<path stroke-width="1" stroke="black" d="M 208 94 182 110"/>
<path stroke-width="1" stroke="black" d="M 208 94 233 160"/>
<path stroke-width="1" stroke="black" d="M 208 94 278 141"/>
<path stroke-width="1" stroke="black" d="M 223 74 278 141"/>
<path stroke-width="1" stroke="black" d="M 183 108 183 107"/>
<circle cx="188" cy="122" r="20.0" style="fill:gray;stroke:black;stroke-width:1.0"/>
<circle cx="193" cy="121" r="20.0" style="fill:gray;stroke:black;stroke-width:1.0"/>
<circle cx="169" cy="121" r="20.0" style="fill:gray;stroke:black;stroke-width:1.0"/>
<circle cx="182" cy="122" r="20.0" style="fill:gray;stroke:black;stroke-width:1.0"/>
<circle cx="214" cy="81" r="20.0" style="fill:gray;stroke:black;stroke-width:1.0"/>
<circle cx="208" cy="94" r="20.0" style="fill:gray;stroke:black;stroke-width:1.0"/>
<circle cx="238" cy="50" r="20.0" style="fill:gray;stroke:black;stroke-width:1.0"/>
<circle cx="223" cy="74" r="20.0" style="fill:gray;stroke:black;stroke-width:1.0"/>
<circle cx="27" cy="149" r="20.0" style="fill:gray;stroke:black;stroke-width:1.0"/>
<circle cx="89" cy="136" r="20.0" style="fill:gray;stroke:black;stroke-width:1.0"/>
<circle cx="20" cy="20" r="20.0" style="fill:gray;stroke:black;stroke-width:1.0"/>
<circle cx="97" cy="65" r="20.0" style="fill:gray;stroke:black;stroke-width:1.0"/>
<circle cx="420" cy="183" r="20.0" style="fill:gray;stroke:black;stroke-width:1.0"/>
<circle cx="278" cy="141" r="20.0" style="fill:gray;stroke:black;stroke-width:1.0"/>
<circle cx="378" cy="320" r="20.0" style="fill:gray;stroke:black;stroke-width:1.0"/>
<circle cx="233" cy="160" r="20.0" style="fill:gray;stroke:black;stroke-width:1.0"/>
<circle cx="179" cy="113" r="20.0" style="fill:gray;stroke:black;stroke-width:1.0"/>
<circle cx="182" cy="110" r="20.0" style="fill:gray;stroke:black;stroke-width:1.0"/>
<circle cx="183" cy="107" r="20.0" style="fill:gray;stroke:black;stroke-width:1.0"/>
<circle cx="183" cy="108" r="20.0" style="fill:gray;stroke:black;stroke-width:1.0"/>
</svg>
