<svg width="440" height="340" xmlns="http://www.w3.org/2000/svg">
<path stroke-width="1" stroke="black" d="M 283 141 274 141"/>
<path stroke-width="1" stroke="black" d="M 221 126 261 145"/>
<path stroke-width="1" stroke="black" d="M 221 126 274 141"/>
<path stroke-width="1" stroke="black" d="M 20 65 221 126"/>
<path stroke-width="1" stroke="black" d="M 328 211 275 137"/>
<path stroke-width="1" stroke="black" d="M 328 211 281 136"/>
<path stroke-width="1" stroke="black" d="M 328 211 221 126"/>
<path stroke-width="1" stroke="black" d="M 328 211 420 320"/>
<path stroke-width="1" stroke="black" d="M 328 211 156 76"/>
<path stroke-width="1" stroke="black" d="M 328 211 353 73"/>
<path stroke-width="1" stroke="black" d="M 328 211 323 171"/>
<path stroke-width="1" stroke="black" d="M 328 211 231 152"/>
<path stroke-width="1" stroke="black" d="M 328 211 261 145"/>
<path stroke-width="1" stroke="black" d="M 328 211 274 141"/>
<path stroke-width="1" stroke="black" d="M 420 320 328 211"/>
<path stroke-width="1" stroke="black" d="M 156 76 275 137"/>
<path stroke-width="1" stroke="black" d="M 156 76 281 136"/>
<path stroke-width="1" stroke="black" d="M 156 76 221 126"/>
<path stroke-width="1" stroke="black" d="M 156 76 328 211"/>
<path stroke-width="1" stroke="black" d="M 156 76 56 20"/>
<path stroke-width="1" stroke="black" d="M 156 76 353 73"/>
<path stroke-width="1" stroke="black" d="M 156 76 323 171"/>
<path stroke-width="1" stroke="black" d="M 156 76 231 152"/>
<path stroke-width="1" stroke="black" d="M 156 76 261 145"/>
<path stroke-width="1" stroke="black" d="M 221 126 231 152"/>
<path stroke-width="1" stroke="black" d="M 221 126 323 171"/>
<path stroke-width="1" stroke="black" d="M 221 126 353 73"/>
<path stroke-width="1" stroke="black" d="M 221 126 156 76"/>
<path stroke-width="1" stroke="black" d="M 275 137 221 126"/>
<path stroke-width="1" stroke="black" d="M 275 137 328 211"/>
<path stroke-width="1" stroke="black" d="M 275 137 156 76"/>
<path stroke-width="1" stroke="black" d="M 275 137 353 73"/>
<path stroke-width="1" stroke="black" d="M 275 137 323 171"/>
<path stroke-width="1" stroke="black" d="M 275 137 231 152"/>
<path stroke-width="1" stroke="black" d="M 275 137 261 145"/>
<path stroke-width="1" stroke="black" d="M 275 137 274 141"/>
<path stroke-width="1" stroke="black" d="M 276 139 275 137"/>
<path stroke-width="1" stroke="black" d="M 281 136 275 137"/>
<path stroke-width="1" stroke="black" d="M 281 136 289 135"/>
<path stroke-width="1" stroke="black" d="M 156 76 274 141"/>
<path stroke-width="1" stroke="black" d="M 281 136 221 126"/>
<path stroke-width="1" stroke="black" d="M 281 136 156 76"/>
<path stroke-width="1" stroke="black" d="M 281 136 353 73"/>
<path stroke-width="1" stroke="black" d="M 281 136 323 171"/>
<path stroke-width="1" stroke="black" d="M 281 136 231 152"/>
<path stroke-width="1" stroke="black" d="M 281 136 261 145"/>
<path stroke-width="1" stroke="black" d="M 281 136 274 141"/>
<path stroke-width="1" stroke="black" d="M 289 135 281 136"/>
<path stroke-width="1" stroke="black" d="M 221 126 275 137"/>
<path stroke-width="1" stroke="black" d="M 221 126 281 136"/>
<path stroke-width="1" stroke="black" d="M 221 126 20 65"/>
<path stroke-width="1" stroke="black" d="M 221 126 328 211"/>
<path stroke-width="1" stroke="black" d="M 281 136 328 211"/>
<path stroke-width="1" stroke="black" d="M 56 20 156 76"/>
<path stroke-width="1" stroke="black" d="M 353 73 275 137"/>
<path stroke-width="1" stroke="black" d="M 353 73 281 136"/>
<path stroke-width="1" stroke="black" d="M 231 152 261 145"/>
<path stroke-width="1" stroke="black" d="M 231 152 274 141"/>
<path stroke-width="1" stroke="black" d="M 206 159 231 152"/>
<path stroke-width="1" stroke="black" d="M 261 145 275 137"/>
<path stroke-width="1" stroke="black" d="M 261 145 281 136"/>
<path stroke-width="1" stroke="black" d="M 261 145 221 126"/>
<path stroke-width="1" stroke="black" d="M 261 145 328 211"/>
<path stroke-width="1" stroke="black" d="M 261 145 156 76"/>
<path stroke-width="1" stroke="black" d="M 261 145 353 73"/>
<path stroke-width="1" stroke="black" d="M 261 145 323 171"/>
<path stroke-width="1" stroke="black" d="M 261 145 231 152"/>
<path stroke-width="1" stroke="black" d="M 231 152 206 159"/>
<path stroke-width="1" stroke="black" d="M 261 145 252 148"/>
<path stroke-width="1" stroke="black" d="M 252 148 261 145"/>
<path stroke-width="1" stroke="black" d="M 274 141 275 137"/>
<path stroke-width="1" stroke="black" d="M 274 141 281 136"/>
<path stroke-width="1" stroke="black" d="M 274 141 221 126"/>
<path stroke-width="1" stroke="black" d="M 274 141 328 211"/>
<path stroke-width="1" stroke="black" d="M 274 141 156 76"/>
<path stroke-width="1" stroke="black" d="M 274 141 353 73"/>
<path stroke-width="1" stroke="black" d="M 274 141 323 171"/>
<path stroke-width="1" stroke="black" d="M 274 141 231 152"/>
<path stroke-width="1" stroke="black" d="M 274 141 261 145"/>
<path stroke-width="1" stroke="black" d="M 274 141 283 141"/>
<path stroke-width="1" stroke="black" d="M 261 145 274 141"/>
<path stroke-width="1" stroke="black" d="M 275 137 281 136"/>
<path stroke-width="1" stroke="black" d="M 231 152 323 171"/>
<path stroke-width="1" stroke="black" d="M 231 152 156 76"/>
<path stroke-width="1" stroke="black" d="M 353 73 221 126"/>
<path stroke-width="1" stroke="black" d="M 353 73 328 211"/>
<path stroke-width="1" stroke="black" d="M 353 73 156 76"/>
<path stroke-width="1" stroke="black" d="M 353 73 403 34"/>
<path stroke-width="1" stroke="black" d="M 353 73 323 171"/>
<path stroke-width="1" stroke="black" d="M 353 73 231 152"/>
<path stroke-width="1" stroke="black" d="M 353 73 261 145"/>
<path stroke-width="1" stroke="black" d="M 353 73 274 141"/>
<path stroke-width="1" stroke="black" d="M 403 34 353 73"/>
<path stroke-width="1" stroke="black" d="M 323 171 275 137"/>
<path stroke-width="1" stroke="black" d="M 323 171 281 136"/>
<path stroke-width="1" stroke="black" d="M 231 152 353 73"/>
<path stroke-width="1" stroke="black" d="M 323 171 221 126"/>
<path stroke-width="1" stroke="black" d="M 323 171 156 76"/>
<path stroke-width="1" stroke="black" d="M 323 171 353 73"/>
<path stroke-width="1" stroke="black" d="M 323 171 351 191"/>
<path stroke-width="1" stroke="black" d="M 323 171 231 152"/>
<path stroke-width="1" stroke="black" d="M 323 171 261 145"/>
<path stroke-width="1" stroke="black" d="M 323 171 274 141"/>
<path stroke-width="1" stroke="black" d="M 351 191 323 171"/>
<path stroke-width="1" stroke="black" d="M 231 152 275 137"/>
<path stroke-width="1" stroke="black" d="M 231 152 281 136"/>
<path stroke-width="1" stroke="black" d="M 231 152 221 126"/>
<path stroke-width="1" stroke="black" d="M 231 152 328 211"/>
<path stroke-width="1" stroke="black" d="M 323 171 328 211"/>
<path stroke-width="1" stroke="black" d="M 275 137 276 139"/>
<circle cx="283" cy="141" r="7.0" style="fill:gray;stroke:black;stroke-width:1.0"/>
<circle cx="274" cy="141" r="7.0" style="fill:gray;stroke:black;stroke-width:1.0"/>
<circle cx="252" cy="148" r="7.0" style="fill:gray;stroke:black;stroke-width:1.0"/>
<circle cx="261" cy="145" r="7.0" style="fill:gray;stroke:black;stroke-width:1.0"/>
<circle cx="206" cy="159" r="7.0" style="fill:gray;stroke:black;stroke-width:1.0"/>
<circle cx="231" cy="152" r="7.0" style="fill:gray;stroke:black;stroke-width:1.0"/>
<circle cx="351" cy="191" r="7.0" style="fill:gray;stroke:black;stroke-width:1.0"/>
<circle cx="323" cy="171" r="7.0" style="fill:gray;stroke:black;stroke-width:1.0"/>
<circle cx="403" cy="34" r="7.0" style="fill:gray;stroke:black;stroke-width:1.0"/>
<circle cx="353" cy="73" r="7.0" style="fill:gray;stroke:black;stroke-width:1.0"/>
<circle cx="56" cy="20" r="7.0" style="fill:gray;stroke:black;stroke-width:1.0"/>
<circle cx="156" cy="76" r="7.0" style="fill:gray;stroke:black;stroke-width:1.0"/>
<circle cx="420" cy="320" r="7.0" style="fill:gray;stroke:black;stroke-width:1.0"/>
<circle cx="328" cy="211" r="7.0" style="fill:gray;stroke:black;stroke-width:1.0"/>
<circle cx="20" cy="65" r="7.0" style="fill:gray;stroke:black;stroke-width:1.0"/>
<circle cx="221" cy="126" r="7.0" style="fill:gray;stroke:black;stroke-width:1.0"/>
<circle cx="289" cy="135" r="7.0" style="fill:gray;stroke:black;stroke-width:1.0"/>
<circle cx="281" cy="136" r="7.0" style="fill:gray;stroke:black;stroke-width:1.0"/>
<circle cx="276" cy="139" r="7.0" style="fill:gray;stroke:black;stroke-width:1.0"/>
<circle cx="275" cy="137" r="7.0" style="fill:gray;stroke:black;stroke-width:1.0"/>
</svg>
