<svg width="440" height="340" xmlns="http://www.w3.org/2000/svg">
<path stroke-width="15.150404514438717" stroke="black" d="M 207 264 205 260"/>
<path stroke-width="0.7958713615293813" stroke="black" d="M 160 212 202 270"/>
<path stroke-width="1.1012869605274522" stroke="black" d="M 160 212 205 260"/>
<path stroke-width="0.5858981372182075" stroke="black" d="M 20 20 160 212"/>
<path stroke-width="0.5286327124060691" stroke="black" d="M 231 240 210 275"/>
<path stroke-width="0.5190884749373794" stroke="black" d="M 231 240 203 279"/>
<path stroke-width="0.5095442374686897" stroke="black" d="M 231 240 160 212"/>
<path stroke-width="0.7195174617798635" stroke="black" d="M 231 240 270 184"/>
<path stroke-width="0.5095442374686897" stroke="black" d="M 231 240 321 256"/>
<path stroke-width="0.5095442374686897" stroke="black" d="M 231 240 183 243"/>
<path stroke-width="0.5286327124060691" stroke="black" d="M 231 240 183 242"/>
<path stroke-width="0.5668096622808281" stroke="black" d="M 231 240 200 300"/>
<path stroke-width="0.6431635620303457" stroke="black" d="M 231 240 202 270"/>
<path stroke-width="0.7958713615293813" stroke="black" d="M 231 240 205 260"/>
<path stroke-width="0.7195174617798635" stroke="black" d="M 270 184 231 240"/>
<path stroke-width="0.5668096622808281" stroke="black" d="M 321 256 210 275"/>
<path stroke-width="0.5477211873434485" stroke="black" d="M 321 256 203 279"/>
<path stroke-width="0.5095442374686897" stroke="black" d="M 321 256 160 212"/>
<path stroke-width="0.5095442374686897" stroke="black" d="M 321 256 231 240"/>
<path stroke-width="0.9485791610284168" stroke="black" d="M 321 256 420 242"/>
<path stroke-width="0.5095442374686897" stroke="black" d="M 321 256 183 243"/>
<path stroke-width="0.5095442374686897" stroke="black" d="M 321 256 183 242"/>
<path stroke-width="0.5286327124060691" stroke="black" d="M 321 256 200 300"/>
<path stroke-width="0.5668096622808281" stroke="black" d="M 321 256 202 270"/>
<path stroke-width="0.6431635620303457" stroke="black" d="M 160 212 200 300"/>
<path stroke-width="0.5668096622808281" stroke="black" d="M 160 212 183 242"/>
<path stroke-width="0.5286327124060691" stroke="black" d="M 160 212 183 243"/>
<path stroke-width="0.5095442374686897" stroke="black" d="M 160 212 321 256"/>
<path stroke-width="0.5095442374686897" stroke="black" d="M 210 275 160 212"/>
<path stroke-width="0.5286327124060691" stroke="black" d="M 210 275 231 240"/>
<path stroke-width="0.5668096622808281" stroke="black" d="M 210 275 321 256"/>
<path stroke-width="0.6431635620303457" stroke="black" d="M 210 275 183 243"/>
<path stroke-width="0.7958713615293813" stroke="black" d="M 210 275 183 242"/>
<path stroke-width="1.1012869605274522" stroke="black" d="M 210 275 200 300"/>
<path stroke-width="1.7121181585235943" stroke="black" d="M 210 275 202 270"/>
<path stroke-width="2.933780554515878" stroke="black" d="M 210 275 205 260"/>
<path stroke-width="20.0" stroke="black" d="M 211 280 210 275"/>
<path stroke-width="0.5" stroke="black" d="M 203 279 210 275"/>
<path stroke-width="10.245789306999107" stroke="black" d="M 203 279 201 288"/>
<path stroke-width="0.6431635620303457" stroke="black" d="M 321 256 205 260"/>
<path stroke-width="0.5095442374686897" stroke="black" d="M 203 279 160 212"/>
<path stroke-width="0.5477211873434485" stroke="black" d="M 203 279 321 256"/>
<path stroke-width="0.6049866121555869" stroke="black" d="M 203 279 183 243"/>
<path stroke-width="0.7195174617798635" stroke="black" d="M 203 279 183 242"/>
<path stroke-width="0.9485791610284168" stroke="black" d="M 203 279 200 300"/>
<path stroke-width="1.4067025595255234" stroke="black" d="M 203 279 202 270"/>
<path stroke-width="2.3229493565197363" stroke="black" d="M 203 279 205 260"/>
<path stroke-width="10.245789306999107" stroke="black" d="M 201 288 203 279"/>
<path stroke-width="0.5095442374686897" stroke="black" d="M 160 212 210 275"/>
<path stroke-width="0.5095442374686897" stroke="black" d="M 160 212 203 279"/>
<path stroke-width="0.5858981372182075" stroke="black" d="M 160 212 20 20"/>
<path stroke-width="0.5095442374686897" stroke="black" d="M 160 212 231 240"/>
<path stroke-width="0.5190884749373794" stroke="black" d="M 203 279 231 240"/>
<path stroke-width="0.9485791610284168" stroke="black" d="M 420 242 321 256"/>
<path stroke-width="0.6431635620303457" stroke="black" d="M 183 243 210 275"/>
<path stroke-width="0.6049866121555869" stroke="black" d="M 183 243 203 279"/>
<path stroke-width="0.5095442374686897" stroke="black" d="M 200 300 202 270"/>
<path stroke-width="0.5095442374686897" stroke="black" d="M 200 300 205 260"/>
<path stroke-width="4.155442950508162" stroke="black" d="M 200 320 200 300"/>
<path stroke-width="1.7121181585235943" stroke="black" d="M 202 270 210 275"/>
<path stroke-width="1.4067025595255234" stroke="black" d="M 202 270 203 279"/>
<path stroke-width="0.7958713615293813" stroke="black" d="M 202 270 160 212"/>
<path stroke-width="0.6431635620303457" stroke="black" d="M 202 270 231 240"/>
<path stroke-width="0.5668096622808281" stroke="black" d="M 202 270 321 256"/>
<path stroke-width="0.5286327124060691" stroke="black" d="M 202 270 183 243"/>
<path stroke-width="0.5095442374686897" stroke="black" d="M 202 270 183 242"/>
<path stroke-width="0.5095442374686897" stroke="black" d="M 202 270 200 300"/>
<path stroke-width="4.155442950508162" stroke="black" d="M 200 300 200 320"/>
<path stroke-width="7.820430138485015" stroke="black" d="M 202 270 202 280"/>
<path stroke-width="7.820430138485015" stroke="black" d="M 202 280 202 270"/>
<path stroke-width="2.933780554515878" stroke="black" d="M 205 260 210 275"/>
<path stroke-width="2.3229493565197363" stroke="black" d="M 205 260 203 279"/>
<path stroke-width="1.1012869605274522" stroke="black" d="M 205 260 160 212"/>
<path stroke-width="0.7958713615293813" stroke="black" d="M 205 260 231 240"/>
<path stroke-width="0.6431635620303457" stroke="black" d="M 205 260 321 256"/>
<path stroke-width="0.5668096622808281" stroke="black" d="M 205 260 183 243"/>
<path stroke-width="0.5286327124060691" stroke="black" d="M 205 260 183 242"/>
<path stroke-width="0.5095442374686897" stroke="black" d="M 205 260 200 300"/>
<path stroke-width="0.5095442374686897" stroke="black" d="M 205 260 202 270"/>
<path stroke-width="15.150404514438717" stroke="black" d="M 205 260 207 264"/>
<path stroke-width="0.5095442374686897" stroke="black" d="M 202 270 205 260"/>
<path stroke-width="0.5" stroke="black" d="M 210 275 203 279"/>
<path stroke-width="0.5095442374686897" stroke="black" d="M 200 300 183 242"/>
<path stroke-width="0.5286327124060691" stroke="black" d="M 200 300 321 256"/>
<path stroke-width="0.5286327124060691" stroke="black" d="M 183 243 160 212"/>
<path stroke-width="0.5095442374686897" stroke="black" d="M 183 243 231 240"/>
<path stroke-width="0.5095442374686897" stroke="black" d="M 183 243 321 256"/>
<path stroke-width="1.4067025595255234" stroke="black" d="M 183 243 168 223"/>
<path stroke-width="0.5095442374686897" stroke="black" d="M 183 243 183 242"/>
<path stroke-width="0.5095442374686897" stroke="black" d="M 183 243 200 300"/>
<path stroke-width="0.5286327124060691" stroke="black" d="M 183 243 202 270"/>
<path stroke-width="0.5668096622808281" stroke="black" d="M 183 243 205 260"/>
<path stroke-width="1.4067025595255234" stroke="black" d="M 168 223 183 243"/>
<path stroke-width="0.7958713615293813" stroke="black" d="M 183 242 210 275"/>
<path stroke-width="0.7195174617798635" stroke="black" d="M 183 242 203 279"/>
<path stroke-width="0.5095442374686897" stroke="black" d="M 200 300 183 243"/>
<path stroke-width="0.5668096622808281" stroke="black" d="M 183 242 160 212"/>
<path stroke-width="0.5095442374686897" stroke="black" d="M 183 242 321 256"/>
<path stroke-width="0.5095442374686897" stroke="black" d="M 183 242 183 243"/>
<path stroke-width="2.3229493565197363" stroke="black" d="M 183 242 170 226"/>
<path stroke-width="0.5095442374686897" stroke="black" d="M 183 242 200 300"/>
<path stroke-width="0.5095442374686897" stroke="black" d="M 183 242 202 270"/>
<path stroke-width="0.5286327124060691" stroke="black" d="M 183 242 205 260"/>
<path stroke-width="2.3229493565197363" stroke="black" d="M 170 226 183 242"/>
<path stroke-width="1.1012869605274522" stroke="black" d="M 200 300 210 275"/>
<path stroke-width="0.9485791610284168" stroke="black" d="M 200 300 203 279"/>
<path stroke-width="0.6431635620303457" stroke="black" d="M 200 300 160 212"/>
<path stroke-width="0.5668096622808281" stroke="black" d="M 200 300 231 240"/>
<path stroke-width="0.5286327124060691" stroke="black" d="M 183 242 231 240"/>
<path stroke-width="20.0" stroke="black" d="M 210 275 211 280"/>
<circle cx="207" cy="264" r="7.0" style="fill:gray;stroke:black;stroke-width:1.0"/>
<circle cx="205" cy="260" r="7.0" style="fill:gray;stroke:black;stroke-width:1.0"/>
<circle cx="202" cy="280" r="7.0" style="fill:gray;stroke:black;stroke-width:1.0"/>
<circle cx="202" cy="270" r="7.0" style="fill:gray;stroke:black;stroke-width:1.0"/>
<circle cx="200" cy="320" r="7.0" style="fill:gray;stroke:black;stroke-width:1.0"/>
<circle cx="200" cy="300" r="7.0" style="fill:gray;stroke:black;stroke-width:1.0"/>
<circle cx="170" cy="226" r="7.0" style="fill:gray;stroke:black;stroke-width:1.0"/>
<circle cx="183" cy="242" r="7.0" style="fill:gray;stroke:black;stroke-width:1.0"/>
<circle cx="168" cy="223" r="7.0" style="fill:gray;stroke:black;stroke-width:1.0"/>
<circle cx="183" cy="243" r="7.0" style="fill:gray;stroke:black;stroke-width:1.0"/>
<circle cx="420" cy="242" r="7.0" style="fill:gray;stroke:black;stroke-width:1.0"/>
<circle cx="321" cy="256" r="7.0" style="fill:gray;stroke:black;stroke-width:1.0"/>
<circle cx="270" cy="184" r="7.0" style="fill:gray;stroke:black;stroke-width:1.0"/>
<circle cx="231" cy="240" r="7.0" style="fill:gray;stroke:black;stroke-width:1.0"/>
<circle cx="20" cy="20" r="7.0" style="fill:gray;stroke:black;stroke-width:1.0"/>
<circle cx="160" cy="212" r="7.0" style="fill:gray;stroke:black;stroke-width:1.0"/>
<circle cx="201" cy="288" r="7.0" style="fill:gray;stroke:black;stroke-width:1.0"/>
<circle cx="203" cy="279" r="7.0" style="fill:gray;stroke:black;stroke-width:1.0"/>
<circle cx="211" cy="280" r="7.0" style="fill:gray;stroke:black;stroke-width:1.0"/>
<circle cx="210" cy="275" r="7.0" style="fill:gray;stroke:black;stroke-width:1.0"/>
</svg>
