<svg width="440" height="340" xmlns="http://www.w3.org/2000/svg">
<path stroke-width="20.0" stroke="black" d="M 82 239 95 246"/>
<path stroke-width="20.0" stroke="black" d="M 389 302 375 294"/>
<path stroke-width="20.0" stroke="black" d="M 319 243 333 237"/>
<path stroke-width="0.5" stroke="black" d="M 319 243 373 254"/>
<path stroke-width="0.5" stroke="black" d="M 319 243 257 240"/>
<path stroke-width="20.0" stroke="black" d="M 333 237 319 243"/>
<path stroke-width="0.5" stroke="black" d="M 373 254 403 277"/>
<path stroke-width="0.5" stroke="black" d="M 373 254 319 243"/>
<path stroke-width="20.0" stroke="black" d="M 373 254 388 251"/>
<path stroke-width="20.0" stroke="black" d="M 388 251 373 254"/>
<path stroke-width="0.5" stroke="black" d="M 343 50 321 32"/>
<path stroke-width="20.0" stroke="black" d="M 343 50 357 49"/>
<path stroke-width="0.5" stroke="black" d="M 343 50 321 69"/>
<path stroke-width="20.0" stroke="black" d="M 357 49 343 50"/>
<path stroke-width="20.0" stroke="black" d="M 265 299 253 299"/>
<path stroke-width="0.5" stroke="black" d="M 265 299 281 309"/>
<path stroke-width="0.5" stroke="black" d="M 265 299 287 289"/>
<path stroke-width="20.0" stroke="black" d="M 253 299 265 299"/>
<path stroke-width="0.5" stroke="black" d="M 257 240 319 243"/>
<path stroke-width="20.0" stroke="black" d="M 257 240 262 230"/>
<path stroke-width="0.5" stroke="black" d="M 257 240 190 247"/>
<path stroke-width="20.0" stroke="black" d="M 262 230 257 240"/>
<path stroke-width="0.5" stroke="black" d="M 375 294 328 289"/>
<path stroke-width="0.5" stroke="black" d="M 190 247 130 260"/>
<path stroke-width="20.0" stroke="black" d="M 375 294 389 302"/>
<path stroke-width="20.0" stroke="black" d="M 420 280 403 277"/>
<path stroke-width="0.5" stroke="black" d="M 130 260 190 247"/>
<path stroke-width="20.0" stroke="black" d="M 117 263 130 260"/>
<path stroke-width="20.0" stroke="black" d="M 209 268 210 260"/>
<path stroke-width="0.5" stroke="black" d="M 209 268 268 277"/>
<path stroke-width="0.5" stroke="black" d="M 209 268 149 254"/>
<path stroke-width="20.0" stroke="black" d="M 210 260 209 268"/>
<path stroke-width="20.0" stroke="black" d="M 36 269 20 272"/>
<path stroke-width="0.5" stroke="black" d="M 36 269 76 270"/>
<path stroke-width="0.5" stroke="black" d="M 36 269 50 249"/>
<path stroke-width="20.0" stroke="black" d="M 20 272 36 269"/>
<path stroke-width="0.5" stroke="black" d="M 76 270 130 260"/>
<path stroke-width="0.5" stroke="black" d="M 76 270 36 269"/>
<path stroke-width="20.0" stroke="black" d="M 76 270 64 276"/>
<path stroke-width="20.0" stroke="black" d="M 64 276 76 270"/>
<path stroke-width="20.0" stroke="black" d="M 321 32 330 24"/>
<path stroke-width="0.5" stroke="black" d="M 321 32 343 50"/>
<path stroke-width="0.5" stroke="black" d="M 321 32 288 29"/>
<path stroke-width="20.0" stroke="black" d="M 330 24 321 32"/>
<path stroke-width="20.0" stroke="black" d="M 403 277 420 280"/>
<path stroke-width="0.5" stroke="black" d="M 403 277 375 294"/>
<path stroke-width="0.5" stroke="black" d="M 403 277 373 254"/>
<path stroke-width="0.5" stroke="black" d="M 375 294 403 277"/>
<path stroke-width="0.5" stroke="black" d="M 190 247 257 240"/>
<path stroke-width="20.0" stroke="black" d="M 190 247 183 239"/>
<path stroke-width="20.0" stroke="black" d="M 183 239 190 247"/>
<path stroke-width="20.0" stroke="black" d="M 287 289 294 279"/>
<path stroke-width="20.0" stroke="black" d="M 294 279 287 289"/>
<path stroke-width="0.5" stroke="black" d="M 149 254 209 268"/>
<path stroke-width="20.0" stroke="black" d="M 149 254 142 246"/>
<path stroke-width="0.5" stroke="black" d="M 149 254 95 246"/>
<path stroke-width="20.0" stroke="black" d="M 142 246 149 254"/>
<path stroke-width="0.5" stroke="black" d="M 255 62 286 73"/>
<path stroke-width="20.0" stroke="black" d="M 255 62 241 65"/>
<path stroke-width="0.5" stroke="black" d="M 255 62 258 38"/>
<path stroke-width="20.0" stroke="black" d="M 241 65 255 62"/>
<path stroke-width="0.5" stroke="black" d="M 258 38 288 29"/>
<path stroke-width="0.5" stroke="black" d="M 258 38 255 62"/>
<path stroke-width="20.0" stroke="black" d="M 258 38 246 33"/>
<path stroke-width="20.0" stroke="black" d="M 246 33 258 38"/>
<path stroke-width="0.5" stroke="black" d="M 50 249 36 269"/>
<path stroke-width="20.0" stroke="black" d="M 50 249 35 246"/>
<path stroke-width="0.5" stroke="black" d="M 50 249 95 246"/>
<path stroke-width="20.0" stroke="black" d="M 35 246 50 249"/>
<path stroke-width="0.5" stroke="black" d="M 95 246 149 254"/>
<path stroke-width="0.5" stroke="black" d="M 95 246 50 249"/>
<path stroke-width="20.0" stroke="black" d="M 95 246 82 239"/>
<path stroke-width="0.5" stroke="black" d="M 287 289 281 309"/>
<path stroke-width="0.5" stroke="black" d="M 287 289 265 299"/>
<path stroke-width="20.0" stroke="black" d="M 284 320 281 309"/>
<path stroke-width="0.5" stroke="black" d="M 281 309 287 289"/>
<path stroke-width="0.5" stroke="black" d="M 268 277 209 268"/>
<path stroke-width="20.0" stroke="black" d="M 268 277 275 272"/>
<path stroke-width="0.5" stroke="black" d="M 268 277 328 289"/>
<path stroke-width="20.0" stroke="black" d="M 275 272 268 277"/>
<path stroke-width="0.5" stroke="black" d="M 328 289 375 294"/>
<path stroke-width="0.5" stroke="black" d="M 328 289 268 277"/>
<path stroke-width="20.0" stroke="black" d="M 328 289 340 294"/>
<path stroke-width="20.0" stroke="black" d="M 340 294 328 289"/>
<path stroke-width="0.5" stroke="black" d="M 288 29 321 32"/>
<path stroke-width="20.0" stroke="black" d="M 288 29 285 20"/>
<path stroke-width="0.5" stroke="black" d="M 130 260 76 270"/>
<path stroke-width="0.5" stroke="black" d="M 288 29 258 38"/>
<path stroke-width="0.5" stroke="black" d="M 321 69 343 50"/>
<path stroke-width="20.0" stroke="black" d="M 321 69 331 76"/>
<path stroke-width="0.5" stroke="black" d="M 321 69 286 73"/>
<path stroke-width="20.0" stroke="black" d="M 331 76 321 69"/>
<path stroke-width="0.5" stroke="black" d="M 286 73 321 69"/>
<path stroke-width="20.0" stroke="black" d="M 286 73 281 82"/>
<path stroke-width="0.5" stroke="black" d="M 286 73 255 62"/>
<path stroke-width="20.0" stroke="black" d="M 281 82 286 73"/>
<path stroke-width="0.5" stroke="black" d="M 281 309 265 299"/>
<path stroke-width="20.0" stroke="black" d="M 281 309 284 320"/>
<path stroke-width="20.0" stroke="black" d="M 285 20 288 29"/>
<path stroke-width="20.0" stroke="black" d="M 130 260 117 263"/>
<circle cx="82" cy="239" r="20.0" style="fill:gray;stroke:black;stroke-width:1.0"/>
<circle cx="95" cy="246" r="20.0" style="fill:gray;stroke:black;stroke-width:1.0"/>
<circle cx="35" cy="246" r="20.0" style="fill:gray;stroke:black;stroke-width:1.0"/>
<circle cx="50" cy="249" r="20.0" style="fill:gray;stroke:black;stroke-width:1.0"/>
<circle cx="246" cy="33" r="20.0" style="fill:gray;stroke:black;stroke-width:1.0"/>
<circle cx="258" cy="38" r="20.0" style="fill:gray;stroke:black;stroke-width:1.0"/>
<circle cx="241" cy="65" r="20.0" style="fill:gray;stroke:black;stroke-width:1.0"/>
<circle cx="255" cy="62" r="20.0" style="fill:gray;stroke:black;stroke-width:1.0"/>
<circle cx="142" cy="246" r="20.0" style="fill:gray;stroke:black;stroke-width:1.0"/>
<circle cx="149" cy="254" r="20.0" style="fill:gray;stroke:black;stroke-width:1.0"/>
<circle cx="294" cy="279" r="20.0" style="fill:gray;stroke:black;stroke-width:1.0"/>
<circle cx="287" cy="289" r="20.0" style="fill:gray;stroke:black;stroke-width:1.0"/>
<circle cx="284" cy="320" r="20.0" style="fill:gray;stroke:black;stroke-width:1.0"/>
<circle cx="281" cy="309" r="20.0" style="fill:gray;stroke:black;stroke-width:1.0"/>
<circle cx="281" cy="82" r="20.0" style="fill:gray;stroke:black;stroke-width:1.0"/>
<circle cx="286" cy="73" r="20.0" style="fill:gray;stroke:black;stroke-width:1.0"/>
<circle cx="331" cy="76" r="20.0" style="fill:gray;stroke:black;stroke-width:1.0"/>
<circle cx="321" cy="69" r="20.0" style="fill:gray;stroke:black;stroke-width:1.0"/>
<circle cx="285" cy="20" r="20.0" style="fill:gray;stroke:black;stroke-width:1.0"/>
<circle cx="288" cy="29" r="20.0" style="fill:gray;stroke:black;stroke-width:1.0"/>
<circle cx="340" cy="294" r="20.0" style="fill:gray;stroke:black;stroke-width:1.0"/>
<circle cx="328" cy="289" r="20.0" style="fill:gray;stroke:black;stroke-width:1.0"/>
<circle cx="275" cy="272" r="20.0" style="fill:gray;stroke:black;stroke-width:1.0"/>
<circle cx="268" cy="277" r="20.0" style="fill:gray;stroke:black;stroke-width:1.0"/>
<circle cx="183" cy="239" r="20.0" style="fill:gray;stroke:black;stroke-width:1.0"/>
<circle cx="190" cy="247" r="20.0" style="fill:gray;stroke:black;stroke-width:1.0"/>
<circle cx="262" cy="230" r="20.0" style="fill:gray;stroke:black;stroke-width:1.0"/>
<circle cx="257" cy="240" r="20.0" style="fill:gray;stroke:black;stroke-width:1.0"/>
<circle cx="253" cy="299" r="20.0" style="fill:gray;stroke:black;stroke-width:1.0"/>
<circle cx="265" cy="299" r="20.0" style="fill:gray;stroke:black;stroke-width:1.0"/>
<circle cx="357" cy="49" r="20.0" style="fill:gray;stroke:black;stroke-width:1.0"/>
<circle cx="343" cy="50" r="20.0" style="fill:gray;stroke:black;stroke-width:1.0"/>
<circle cx="388" cy="251" r="20.0" style="fill:gray;stroke:black;stroke-width:1.0"/>
<circle cx="373" cy="254" r="20.0" style="fill:gray;stroke:black;stroke-width:1.0"/>
<circle cx="333" cy="237" r="20.0" style="fill:gray;stroke:black;stroke-width:1.0"/>
<circle cx="319" cy="243" r="20.0" style="fill:gray;stroke:black;stroke-width:1.0"/>
<circle cx="389" cy="302" r="20.0" style="fill:gray;stroke:black;stroke-width:1.0"/>
<circle cx="375" cy="294" r="20.0" style="fill:gray;stroke:black;stroke-width:1.0"/>
<circle cx="420" cy="280" r="20.0" style="fill:gray;stroke:black;stroke-width:1.0"/>
<circle cx="403" cy="277" r="20.0" style="fill:gray;stroke:black;stroke-width:1.0"/>
<circle cx="330" cy="24" r="20.0" style="fill:gray;stroke:black;stroke-width:1.0"/>
<circle cx="321" cy="32" r="20.0" style="fill:gray;stroke:black;stroke-width:1.0"/>
<circle cx="64" cy="276" r="20.0" style="fill:gray;stroke:black;stroke-width:1.0"/>
<circle cx="76" cy="270" r="20.0" style="fill:gray;stroke:black;stroke-width:1.0"/>
<circle cx="20" cy="272" r="20.0" style="fill:gray;stroke:black;stroke-width:1.0"/>
<circle cx="36" cy="269" r="20.0" style="fill:gray;stroke:black;stroke-width:1.0"/>
<circle cx="210" cy="260" r="20.0" style="fill:gray;stroke:black;stroke-width:1.0"/>
<circle cx="209" cy="268" r="20.0" style="fill:gray;stroke:black;stroke-width:1.0"/>
<circle cx="117" cy="263" r="20.0" style="fill:gray;stroke:black;stroke-width:1.0"/>
<circle cx="130" cy="260" r="20.0" style="fill:gray;stroke:black;stroke-width:1.0"/>
</svg>
