<svg width="440" height="340" xmlns="http://www.w3.org/2000/svg">
<path stroke-width="1" stroke="black" d="M 211 46 219 57"/>
<path stroke-width="1" stroke="black" d="M 209 301 208 289"/>
<path stroke-width="1" stroke="black" d="M 159 253 148 255"/>
<path stroke-width="1" stroke="black" d="M 159 253 155 289"/>
<path stroke-width="1" stroke="black" d="M 159 253 188 217"/>
<path stroke-width="1" stroke="black" d="M 148 255 159 253"/>
<path stroke-width="1" stroke="black" d="M 155 289 179 305"/>
<path stroke-width="1" stroke="black" d="M 155 289 159 253"/>
<path stroke-width="1" stroke="black" d="M 155 289 145 298"/>
<path stroke-width="1" stroke="black" d="M 145 298 155 289"/>
<path stroke-width="1" stroke="black" d="M 28 123 46 121"/>
<path stroke-width="1" stroke="black" d="M 28 123 20 111"/>
<path stroke-width="1" stroke="black" d="M 28 123 43 152"/>
<path stroke-width="1" stroke="black" d="M 20 111 28 123"/>
<path stroke-width="1" stroke="black" d="M 412 128 420 122"/>
<path stroke-width="1" stroke="black" d="M 412 128 402 143"/>
<path stroke-width="1" stroke="black" d="M 412 128 399 120"/>
<path stroke-width="1" stroke="black" d="M 420 122 412 128"/>
<path stroke-width="1" stroke="black" d="M 188 217 159 253"/>
<path stroke-width="1" stroke="black" d="M 188 217 177 221"/>
<path stroke-width="1" stroke="black" d="M 188 217 219 183"/>
<path stroke-width="1" stroke="black" d="M 177 221 188 217"/>
<path stroke-width="1" stroke="black" d="M 208 289 230 253"/>
<path stroke-width="1" stroke="black" d="M 219 183 252 142"/>
<path stroke-width="1" stroke="black" d="M 208 289 209 301"/>
<path stroke-width="1" stroke="black" d="M 176 320 179 305"/>
<path stroke-width="1" stroke="black" d="M 252 142 219 183"/>
<path stroke-width="1" stroke="black" d="M 263 145 252 142"/>
<path stroke-width="1" stroke="black" d="M 231 152 238 149"/>
<path stroke-width="1" stroke="black" d="M 231 152 239 206"/>
<path stroke-width="1" stroke="black" d="M 231 152 223 103"/>
<path stroke-width="1" stroke="black" d="M 238 149 231 152"/>
<path stroke-width="1" stroke="black" d="M 261 54 268 42"/>
<path stroke-width="1" stroke="black" d="M 261 54 267 97"/>
<path stroke-width="1" stroke="black" d="M 261 54 238 35"/>
<path stroke-width="1" stroke="black" d="M 268 42 261 54"/>
<path stroke-width="1" stroke="black" d="M 267 97 252 142"/>
<path stroke-width="1" stroke="black" d="M 267 97 261 54"/>
<path stroke-width="1" stroke="black" d="M 267 97 278 92"/>
<path stroke-width="1" stroke="black" d="M 278 92 267 97"/>
<path stroke-width="1" stroke="black" d="M 46 121 38 118"/>
<path stroke-width="1" stroke="black" d="M 46 121 28 123"/>
<path stroke-width="1" stroke="black" d="M 46 121 71 130"/>
<path stroke-width="1" stroke="black" d="M 38 118 46 121"/>
<path stroke-width="1" stroke="black" d="M 179 305 176 320"/>
<path stroke-width="1" stroke="black" d="M 179 305 208 289"/>
<path stroke-width="1" stroke="black" d="M 179 305 155 289"/>
<path stroke-width="1" stroke="black" d="M 208 289 179 305"/>
<path stroke-width="1" stroke="black" d="M 219 183 188 217"/>
<path stroke-width="1" stroke="black" d="M 219 183 222 191"/>
<path stroke-width="1" stroke="black" d="M 222 191 219 183"/>
<path stroke-width="1" stroke="black" d="M 399 120 396 109"/>
<path stroke-width="1" stroke="black" d="M 396 109 399 120"/>
<path stroke-width="1" stroke="black" d="M 223 103 231 152"/>
<path stroke-width="1" stroke="black" d="M 223 103 214 95"/>
<path stroke-width="1" stroke="black" d="M 223 103 219 57"/>
<path stroke-width="1" stroke="black" d="M 214 95 223 103"/>
<path stroke-width="1" stroke="black" d="M 92 177 67 173"/>
<path stroke-width="1" stroke="black" d="M 92 177 102 185"/>
<path stroke-width="1" stroke="black" d="M 92 177 91 150"/>
<path stroke-width="1" stroke="black" d="M 102 185 92 177"/>
<path stroke-width="1" stroke="black" d="M 91 150 71 130"/>
<path stroke-width="1" stroke="black" d="M 91 150 92 177"/>
<path stroke-width="1" stroke="black" d="M 91 150 101 150"/>
<path stroke-width="1" stroke="black" d="M 101 150 91 150"/>
<path stroke-width="1" stroke="black" d="M 238 35 261 54"/>
<path stroke-width="1" stroke="black" d="M 238 35 235 20"/>
<path stroke-width="1" stroke="black" d="M 238 35 219 57"/>
<path stroke-width="1" stroke="black" d="M 235 20 238 35"/>
<path stroke-width="1" stroke="black" d="M 219 57 223 103"/>
<path stroke-width="1" stroke="black" d="M 219 57 238 35"/>
<path stroke-width="1" stroke="black" d="M 219 57 211 46"/>
<path stroke-width="1" stroke="black" d="M 399 120 402 143"/>
<path stroke-width="1" stroke="black" d="M 399 120 412 128"/>
<path stroke-width="1" stroke="black" d="M 401 155 402 143"/>
<path stroke-width="1" stroke="black" d="M 402 143 399 120"/>
<path stroke-width="1" stroke="black" d="M 239 206 231 152"/>
<path stroke-width="1" stroke="black" d="M 239 206 249 209"/>
<path stroke-width="1" stroke="black" d="M 239 206 230 253"/>
<path stroke-width="1" stroke="black" d="M 249 209 239 206"/>
<path stroke-width="1" stroke="black" d="M 230 253 208 289"/>
<path stroke-width="1" stroke="black" d="M 230 253 239 206"/>
<path stroke-width="1" stroke="black" d="M 230 253 238 264"/>
<path stroke-width="1" stroke="black" d="M 238 264 230 253"/>
<path stroke-width="1" stroke="black" d="M 71 130 46 121"/>
<path stroke-width="1" stroke="black" d="M 71 130 74 120"/>
<path stroke-width="1" stroke="black" d="M 252 142 267 97"/>
<path stroke-width="1" stroke="black" d="M 71 130 91 150"/>
<path stroke-width="1" stroke="black" d="M 43 152 28 123"/>
<path stroke-width="1" stroke="black" d="M 43 152 34 157"/>
<path stroke-width="1" stroke="black" d="M 43 152 67 173"/>
<path stroke-width="1" stroke="black" d="M 34 157 43 152"/>
<path stroke-width="1" stroke="black" d="M 67 173 43 152"/>
<path stroke-width="1" stroke="black" d="M 67 173 69 185"/>
<path stroke-width="1" stroke="black" d="M 67 173 92 177"/>
<path stroke-width="1" stroke="black" d="M 69 185 67 173"/>
<path stroke-width="1" stroke="black" d="M 402 143 412 128"/>
<path stroke-width="1" stroke="black" d="M 402 143 401 155"/>
<path stroke-width="1" stroke="black" d="M 74 120 71 130"/>
<path stroke-width="1" stroke="black" d="M 252 142 263 145"/>
<circle cx="211" cy="46" r="7.0" style="fill:gray;stroke:black;stroke-width:1.0"/>
<circle cx="219" cy="57" r="7.0" style="fill:gray;stroke:black;stroke-width:1.0"/>
<circle cx="235" cy="20" r="7.0" style="fill:gray;stroke:black;stroke-width:1.0"/>
<circle cx="238" cy="35" r="7.0" style="fill:gray;stroke:black;stroke-width:1.0"/>
<circle cx="101" cy="150" r="7.0" style="fill:gray;stroke:black;stroke-width:1.0"/>
<circle cx="91" cy="150" r="7.0" style="fill:gray;stroke:black;stroke-width:1.0"/>
<circle cx="102" cy="185" r="7.0" style="fill:gray;stroke:black;stroke-width:1.0"/>
<circle cx="92" cy="177" r="7.0" style="fill:gray;stroke:black;stroke-width:1.0"/>
<circle cx="214" cy="95" r="7.0" style="fill:gray;stroke:black;stroke-width:1.0"/>
<circle cx="223" cy="103" r="7.0" style="fill:gray;stroke:black;stroke-width:1.0"/>
<circle cx="396" cy="109" r="7.0" style="fill:gray;stroke:black;stroke-width:1.0"/>
<circle cx="399" cy="120" r="7.0" style="fill:gray;stroke:black;stroke-width:1.0"/>
<circle cx="401" cy="155" r="7.0" style="fill:gray;stroke:black;stroke-width:1.0"/>
<circle cx="402" cy="143" r="7.0" style="fill:gray;stroke:black;stroke-width:1.0"/>
<circle cx="69" cy="185" r="7.0" style="fill:gray;stroke:black;stroke-width:1.0"/>
<circle cx="67" cy="173" r="7.0" style="fill:gray;stroke:black;stroke-width:1.0"/>
<circle cx="34" cy="157" r="7.0" style="fill:gray;stroke:black;stroke-width:1.0"/>
<circle cx="43" cy="152" r="7.0" style="fill:gray;stroke:black;stroke-width:1.0"/>
<circle cx="74" cy="120" r="7.0" style="fill:gray;stroke:black;stroke-width:1.0"/>
<circle cx="71" cy="130" r="7.0" style="fill:gray;stroke:black;stroke-width:1.0"/>
<circle cx="238" cy="264" r="7.0" style="fill:gray;stroke:black;stroke-width:1.0"/>
<circle cx="230" cy="253" r="7.0" style="fill:gray;stroke:black;stroke-width:1.0"/>
<circle cx="249" cy="209" r="7.0" style="fill:gray;stroke:black;stroke-width:1.0"/>
<circle cx="239" cy="206" r="7.0" style="fill:gray;stroke:black;stroke-width:1.0"/>
<circle cx="222" cy="191" r="7.0" style="fill:gray;stroke:black;stroke-width:1.0"/>
<circle cx="219" cy="183" r="7.0" style="fill:gray;stroke:black;stroke-width:1.0"/>
<circle cx="177" cy="221" r="7.0" style="fill:gray;stroke:black;stroke-width:1.0"/>
<circle cx="188" cy="217" r="7.0" style="fill:gray;stroke:black;stroke-width:1.0"/>
<circle cx="420" cy="122" r="7.0" style="fill:gray;stroke:black;stroke-width:1.0"/>
<circle cx="412" cy="128" r="7.0" style="fill:gray;stroke:black;stroke-width:1.0"/>
<circle cx="20" cy="111" r="7.0" style="fill:gray;stroke:black;stroke-width:1.0"/>
<circle cx="28" cy="123" r="7.0" style="fill:gray;stroke:black;stroke-width:1.0"/>
<circle cx="145" cy="298" r="7.0" style="fill:gray;stroke:black;stroke-width:1.0"/>
<circle cx="155" cy="289" r="7.0" style="fill:gray;stroke:black;stroke-width:1.0"/>
<circle cx="148" cy="255" r="7.0" style="fill:gray;stroke:black;stroke-width:1.0"/>
<circle cx="159" cy="253" r="7.0" style="fill:gray;stroke:black;stroke-width:1.0"/>
<circle cx="209" cy="301" r="7.0" style="fill:gray;stroke:black;stroke-width:1.0"/>
<circle cx="208" cy="289" r="7.0" style="fill:gray;stroke:black;stroke-width:1.0"/>
<circle cx="176" cy="320" r="7.0" style="fill:gray;stroke:black;stroke-width:1.0"/>
<circle cx="179" cy="305" r="7.0" style="fill:gray;stroke:black;stroke-width:1.0"/>
<circle cx="38" cy="118" r="7.0" style="fill:gray;stroke:black;stroke-width:1.0"/>
<circle cx="46" cy="121" r="7.0" style="fill:gray;stroke:black;stroke-width:1.0"/>
<circle cx="278" cy="92" r="7.0" style="fill:gray;stroke:black;stroke-width:1.0"/>
<circle cx="267" cy="97" r="7.0" style="fill:gray;stroke:black;stroke-width:1.0"/>
<circle cx="268" cy="42" r="7.0" style="fill:gray;stroke:black;stroke-width:1.0"/>
<circle cx="261" cy="54" r="7.0" style="fill:gray;stroke:black;stroke-width:1.0"/>
<circle cx="238" cy="149" r="7.0" style="fill:gray;stroke:black;stroke-width:1.0"/>
<circle cx="231" cy="152" r="7.0" style="fill:gray;stroke:black;stroke-width:1.0"/>
<circle cx="263" cy="145" r="7.0" style="fill:gray;stroke:black;stroke-width:1.0"/>
<circle cx="252" cy="142" r="7.0" style="fill:gray;stroke:black;stroke-width:1.0"/>
</svg>
