<svg width="440" height="340" xmlns="http://www.w3.org/2000/svg">
<path stroke-width="20.0" stroke="black" d="M 166 209 197 198"/>
<path stroke-width="0.6638655462184874" stroke="black" d="M 84 129 261 136"/>
<path stroke-width="0.6638655462184874" stroke="black" d="M 84 129 287 166"/>
<path stroke-width="9.512605042016807" stroke="black" d="M 84 129 20 107"/>
<path stroke-width="0.6638655462184874" stroke="black" d="M 84 129 168 252"/>
<path stroke-width="0.6638655462184874" stroke="black" d="M 84 129 211 82"/>
<path stroke-width="0.6638655462184874" stroke="black" d="M 84 129 281 114"/>
<path stroke-width="0.6638655462184874" stroke="black" d="M 84 129 256 193"/>
<path stroke-width="0.6638655462184874" stroke="black" d="M 84 129 265 232"/>
<path stroke-width="8.201680672268907" stroke="black" d="M 153 311 168 252"/>
<path stroke-width="0.6638655462184874" stroke="black" d="M 168 252 197 198"/>
<path stroke-width="0.6638655462184874" stroke="black" d="M 168 252 258 231"/>
<path stroke-width="0.6638655462184874" stroke="black" d="M 168 252 111 90"/>
<path stroke-width="0.6638655462184874" stroke="black" d="M 84 129 103 196"/>
<path stroke-width="1.1554621848739495" stroke="black" d="M 168 252 115 237"/>
<path stroke-width="0.6638655462184874" stroke="black" d="M 168 252 96 161"/>
<path stroke-width="0.6638655462184874" stroke="black" d="M 168 252 103 196"/>
<path stroke-width="0.6638655462184874" stroke="black" d="M 168 252 261 136"/>
<path stroke-width="0.6638655462184874" stroke="black" d="M 168 252 287 166"/>
<path stroke-width="0.6638655462184874" stroke="black" d="M 168 252 84 129"/>
<path stroke-width="8.201680672268907" stroke="black" d="M 168 252 153 311"/>
<path stroke-width="0.6638655462184874" stroke="black" d="M 168 252 211 82"/>
<path stroke-width="0.6638655462184874" stroke="black" d="M 168 252 281 114"/>
<path stroke-width="0.6638655462184874" stroke="black" d="M 168 252 256 193"/>
<path stroke-width="0.6638655462184874" stroke="black" d="M 168 252 265 232"/>
<path stroke-width="6.890756302521009" stroke="black" d="M 250 20 211 82"/>
<path stroke-width="0.6638655462184874" stroke="black" d="M 211 82 197 198"/>
<path stroke-width="0.6638655462184874" stroke="black" d="M 168 252 214 122"/>
<path stroke-width="0.6638655462184874" stroke="black" d="M 211 82 258 231"/>
<path stroke-width="0.6638655462184874" stroke="black" d="M 84 129 96 161"/>
<path stroke-width="0.6638655462184874" stroke="black" d="M 84 129 115 237"/>
<path stroke-width="0.6638655462184874" stroke="black" d="M 261 136 84 129"/>
<path stroke-width="0.6638655462184874" stroke="black" d="M 261 136 168 252"/>
<path stroke-width="0.6638655462184874" stroke="black" d="M 261 136 211 82"/>
<path stroke-width="0.6638655462184874" stroke="black" d="M 261 136 281 114"/>
<path stroke-width="0.6638655462184874" stroke="black" d="M 261 136 256 193"/>
<path stroke-width="0.6638655462184874" stroke="black" d="M 261 136 265 232"/>
<path stroke-width="10.823529411764707" stroke="black" d="M 357 162 287 166"/>
<path stroke-width="0.6638655462184874" stroke="black" d="M 287 166 197 198"/>
<path stroke-width="0.6638655462184874" stroke="black" d="M 287 166 258 231"/>
<path stroke-width="0.6638655462184874" stroke="black" d="M 287 166 111 90"/>
<path stroke-width="0.6638655462184874" stroke="black" d="M 287 166 115 237"/>
<path stroke-width="0.6638655462184874" stroke="black" d="M 287 166 214 122"/>
<path stroke-width="1.1554621848739495" stroke="black" d="M 84 129 214 122"/>
<path stroke-width="1.1554621848739495" stroke="black" d="M 287 166 96 161"/>
<path stroke-width="0.6638655462184874" stroke="black" d="M 287 166 261 136"/>
<path stroke-width="10.823529411764707" stroke="black" d="M 287 166 357 162"/>
<path stroke-width="0.6638655462184874" stroke="black" d="M 287 166 84 129"/>
<path stroke-width="0.6638655462184874" stroke="black" d="M 287 166 168 252"/>
<path stroke-width="0.6638655462184874" stroke="black" d="M 287 166 211 82"/>
<path stroke-width="0.6638655462184874" stroke="black" d="M 287 166 281 114"/>
<path stroke-width="0.6638655462184874" stroke="black" d="M 287 166 256 193"/>
<path stroke-width="0.6638655462184874" stroke="black" d="M 287 166 265 232"/>
<path stroke-width="9.512605042016807" stroke="black" d="M 20 107 84 129"/>
<path stroke-width="0.6638655462184874" stroke="black" d="M 84 129 197 198"/>
<path stroke-width="0.6638655462184874" stroke="black" d="M 84 129 258 231"/>
<path stroke-width="0.6638655462184874" stroke="black" d="M 84 129 111 90"/>
<path stroke-width="0.6638655462184874" stroke="black" d="M 287 166 103 196"/>
<path stroke-width="0.6638655462184874" stroke="black" d="M 261 136 287 166"/>
<path stroke-width="1.1554621848739495" stroke="black" d="M 211 82 111 90"/>
<path stroke-width="0.6638655462184874" stroke="black" d="M 211 82 214 122"/>
<path stroke-width="0.6638655462184874" stroke="black" d="M 256 193 115 237"/>
<path stroke-width="0.6638655462184874" stroke="black" d="M 256 193 214 122"/>
<path stroke-width="0.6638655462184874" stroke="black" d="M 256 193 96 161"/>
<path stroke-width="0.6638655462184874" stroke="black" d="M 256 193 103 196"/>
<path stroke-width="0.6638655462184874" stroke="black" d="M 256 193 261 136"/>
<path stroke-width="0.6638655462184874" stroke="black" d="M 256 193 287 166"/>
<path stroke-width="0.6638655462184874" stroke="black" d="M 256 193 84 129"/>
<path stroke-width="0.6638655462184874" stroke="black" d="M 256 193 168 252"/>
<path stroke-width="0.6638655462184874" stroke="black" d="M 256 193 211 82"/>
<path stroke-width="0.6638655462184874" stroke="black" d="M 256 193 281 114"/>
<path stroke-width="4.92436974789916" stroke="black" d="M 256 193 350 222"/>
<path stroke-width="0.5" stroke="black" d="M 256 193 265 232"/>
<path stroke-width="0.6638655462184874" stroke="black" d="M 256 193 111 90"/>
<path stroke-width="1.6470588235294117" stroke="black" d="M 420 320 265 232"/>
<path stroke-width="0.6638655462184874" stroke="black" d="M 265 232 258 231"/>
<path stroke-width="0.6638655462184874" stroke="black" d="M 265 232 111 90"/>
<path stroke-width="0.6638655462184874" stroke="black" d="M 265 232 115 237"/>
<path stroke-width="0.6638655462184874" stroke="black" d="M 265 232 214 122"/>
<path stroke-width="0.6638655462184874" stroke="black" d="M 265 232 96 161"/>
<path stroke-width="0.6638655462184874" stroke="black" d="M 265 232 103 196"/>
<path stroke-width="0.6638655462184874" stroke="black" d="M 265 232 261 136"/>
<path stroke-width="0.6638655462184874" stroke="black" d="M 265 232 287 166"/>
<path stroke-width="0.6638655462184874" stroke="black" d="M 265 232 84 129"/>
<path stroke-width="0.6638655462184874" stroke="black" d="M 265 232 168 252"/>
<path stroke-width="0.6638655462184874" stroke="black" d="M 265 232 211 82"/>
<path stroke-width="0.6638655462184874" stroke="black" d="M 265 232 281 114"/>
<path stroke-width="0.6638655462184874" stroke="black" d="M 265 232 197 198"/>
<path stroke-width="0.6638655462184874" stroke="black" d="M 211 82 115 237"/>
<path stroke-width="0.6638655462184874" stroke="black" d="M 256 193 258 231"/>
<path stroke-width="4.92436974789916" stroke="black" d="M 350 222 256 193"/>
<path stroke-width="0.6638655462184874" stroke="black" d="M 211 82 96 161"/>
<path stroke-width="0.6638655462184874" stroke="black" d="M 211 82 103 196"/>
<path stroke-width="0.6638655462184874" stroke="black" d="M 211 82 261 136"/>
<path stroke-width="0.6638655462184874" stroke="black" d="M 211 82 287 166"/>
<path stroke-width="0.6638655462184874" stroke="black" d="M 211 82 84 129"/>
<path stroke-width="0.6638655462184874" stroke="black" d="M 211 82 168 252"/>
<path stroke-width="6.890756302521009" stroke="black" d="M 211 82 250 20"/>
<path stroke-width="0.6638655462184874" stroke="black" d="M 211 82 281 114"/>
<path stroke-width="0.6638655462184874" stroke="black" d="M 211 82 256 193"/>
<path stroke-width="0.6638655462184874" stroke="black" d="M 211 82 265 232"/>
<path stroke-width="5.579831932773109" stroke="black" d="M 352 57 281 114"/>
<path stroke-width="0.6638655462184874" stroke="black" d="M 281 114 197 198"/>
<path stroke-width="1.1554621848739495" stroke="black" d="M 256 193 197 198"/>
<path stroke-width="1.1554621848739495" stroke="black" d="M 281 114 258 231"/>
<path stroke-width="0.6638655462184874" stroke="black" d="M 281 114 115 237"/>
<path stroke-width="0.6638655462184874" stroke="black" d="M 281 114 214 122"/>
<path stroke-width="0.6638655462184874" stroke="black" d="M 281 114 96 161"/>
<path stroke-width="0.6638655462184874" stroke="black" d="M 281 114 103 196"/>
<path stroke-width="0.6638655462184874" stroke="black" d="M 281 114 261 136"/>
<path stroke-width="0.6638655462184874" stroke="black" d="M 281 114 287 166"/>
<path stroke-width="0.6638655462184874" stroke="black" d="M 281 114 84 129"/>
<path stroke-width="0.6638655462184874" stroke="black" d="M 281 114 168 252"/>
<path stroke-width="0.6638655462184874" stroke="black" d="M 281 114 211 82"/>
<path stroke-width="5.579831932773109" stroke="black" d="M 281 114 352 57"/>
<path stroke-width="0.6638655462184874" stroke="black" d="M 281 114 256 193"/>
<path stroke-width="0.6638655462184874" stroke="black" d="M 281 114 265 232"/>
<path stroke-width="0.6638655462184874" stroke="black" d="M 281 114 111 90"/>
<path stroke-width="12.134453781512605" stroke="black" d="M 261 136 317 107"/>
<path stroke-width="1.1554621848739495" stroke="black" d="M 261 136 103 196"/>
<path stroke-width="0.6638655462184874" stroke="black" d="M 261 136 96 161"/>
<path stroke-width="0.6638655462184874" stroke="black" d="M 258 231 265 232"/>
<path stroke-width="18.03361344537815" stroke="black" d="M 107 67 111 90"/>
<path stroke-width="0.6638655462184874" stroke="black" d="M 111 90 197 198"/>
<path stroke-width="0.6638655462184874" stroke="black" d="M 111 90 258 231"/>
<path stroke-width="18.03361344537815" stroke="black" d="M 111 90 107 67"/>
<path stroke-width="0.6638655462184874" stroke="black" d="M 111 90 115 237"/>
<path stroke-width="0.6638655462184874" stroke="black" d="M 111 90 214 122"/>
<path stroke-width="0.6638655462184874" stroke="black" d="M 111 90 96 161"/>
<path stroke-width="0.6638655462184874" stroke="black" d="M 111 90 103 196"/>
<path stroke-width="0.6638655462184874" stroke="black" d="M 111 90 261 136"/>
<path stroke-width="0.6638655462184874" stroke="black" d="M 111 90 287 166"/>
<path stroke-width="0.6638655462184874" stroke="black" d="M 111 90 84 129"/>
<path stroke-width="0.6638655462184874" stroke="black" d="M 258 231 256 193"/>
<path stroke-width="0.6638655462184874" stroke="black" d="M 111 90 168 252"/>
<path stroke-width="0.6638655462184874" stroke="black" d="M 111 90 281 114"/>
<path stroke-width="0.6638655462184874" stroke="black" d="M 111 90 256 193"/>
<path stroke-width="0.6638655462184874" stroke="black" d="M 111 90 265 232"/>
<path stroke-width="16.722689075630253" stroke="black" d="M 77 271 115 237"/>
<path stroke-width="0.6638655462184874" stroke="black" d="M 115 237 197 198"/>
<path stroke-width="0.6638655462184874" stroke="black" d="M 115 237 258 231"/>
<path stroke-width="0.6638655462184874" stroke="black" d="M 115 237 111 90"/>
<path stroke-width="16.722689075630253" stroke="black" d="M 115 237 77 271"/>
<path stroke-width="0.6638655462184874" stroke="black" d="M 115 237 214 122"/>
<path stroke-width="0.6638655462184874" stroke="black" d="M 115 237 96 161"/>
<path stroke-width="0.6638655462184874" stroke="black" d="M 115 237 103 196"/>
<path stroke-width="0.6638655462184874" stroke="black" d="M 115 237 261 136"/>
<path stroke-width="1.1554621848739495" stroke="black" d="M 111 90 211 82"/>
<path stroke-width="0.6638655462184874" stroke="black" d="M 115 237 287 166"/>
<path stroke-width="1.1554621848739495" stroke="black" d="M 258 231 281 114"/>
<path stroke-width="0.6638655462184874" stroke="black" d="M 258 231 168 252"/>
<path stroke-width="20.0" stroke="black" d="M 197 198 166 209"/>
<path stroke-width="0.6638655462184874" stroke="black" d="M 197 198 258 231"/>
<path stroke-width="0.6638655462184874" stroke="black" d="M 197 198 111 90"/>
<path stroke-width="0.6638655462184874" stroke="black" d="M 197 198 115 237"/>
<path stroke-width="0.6638655462184874" stroke="black" d="M 197 198 214 122"/>
<path stroke-width="0.6638655462184874" stroke="black" d="M 197 198 96 161"/>
<path stroke-width="0.6638655462184874" stroke="black" d="M 197 198 103 196"/>
<path stroke-width="0.6638655462184874" stroke="black" d="M 197 198 261 136"/>
<path stroke-width="0.6638655462184874" stroke="black" d="M 197 198 287 166"/>
<path stroke-width="0.6638655462184874" stroke="black" d="M 197 198 84 129"/>
<path stroke-width="0.6638655462184874" stroke="black" d="M 197 198 168 252"/>
<path stroke-width="0.6638655462184874" stroke="black" d="M 197 198 211 82"/>
<path stroke-width="0.6638655462184874" stroke="black" d="M 258 231 211 82"/>
<path stroke-width="0.6638655462184874" stroke="black" d="M 197 198 281 114"/>
<path stroke-width="0.6638655462184874" stroke="black" d="M 197 198 265 232"/>
<path stroke-width="19.34453781512605" stroke="black" d="M 301 266 258 231"/>
<path stroke-width="0.6638655462184874" stroke="black" d="M 258 231 197 198"/>
<path stroke-width="19.34453781512605" stroke="black" d="M 258 231 301 266"/>
<path stroke-width="0.6638655462184874" stroke="black" d="M 258 231 111 90"/>
<path stroke-width="0.6638655462184874" stroke="black" d="M 258 231 115 237"/>
<path stroke-width="0.6638655462184874" stroke="black" d="M 258 231 214 122"/>
<path stroke-width="0.6638655462184874" stroke="black" d="M 258 231 96 161"/>
<path stroke-width="0.6638655462184874" stroke="black" d="M 258 231 103 196"/>
<path stroke-width="0.6638655462184874" stroke="black" d="M 258 231 261 136"/>
<path stroke-width="0.6638655462184874" stroke="black" d="M 258 231 287 166"/>
<path stroke-width="0.6638655462184874" stroke="black" d="M 258 231 84 129"/>
<path stroke-width="1.1554621848739495" stroke="black" d="M 197 198 256 193"/>
<path stroke-width="0.6638655462184874" stroke="black" d="M 115 237 84 129"/>
<path stroke-width="1.1554621848739495" stroke="black" d="M 115 237 168 252"/>
<path stroke-width="0.6638655462184874" stroke="black" d="M 115 237 211 82"/>
<path stroke-width="0.6638655462184874" stroke="black" d="M 96 161 211 82"/>
<path stroke-width="0.6638655462184874" stroke="black" d="M 96 161 281 114"/>
<path stroke-width="0.6638655462184874" stroke="black" d="M 96 161 256 193"/>
<path stroke-width="0.6638655462184874" stroke="black" d="M 96 161 265 232"/>
<path stroke-width="12.789915966386555" stroke="black" d="M 41 214 103 196"/>
<path stroke-width="0.6638655462184874" stroke="black" d="M 103 196 197 198"/>
<path stroke-width="0.6638655462184874" stroke="black" d="M 103 196 258 231"/>
<path stroke-width="0.6638655462184874" stroke="black" d="M 103 196 111 90"/>
<path stroke-width="0.6638655462184874" stroke="black" d="M 103 196 115 237"/>
<path stroke-width="0.6638655462184874" stroke="black" d="M 103 196 214 122"/>
<path stroke-width="0.6638655462184874" stroke="black" d="M 103 196 96 161"/>
<path stroke-width="12.789915966386555" stroke="black" d="M 103 196 41 214"/>
<path stroke-width="0.6638655462184874" stroke="black" d="M 96 161 168 252"/>
<path stroke-width="1.1554621848739495" stroke="black" d="M 103 196 261 136"/>
<path stroke-width="0.6638655462184874" stroke="black" d="M 103 196 84 129"/>
<path stroke-width="0.6638655462184874" stroke="black" d="M 103 196 168 252"/>
<path stroke-width="0.6638655462184874" stroke="black" d="M 103 196 211 82"/>
<path stroke-width="0.6638655462184874" stroke="black" d="M 103 196 281 114"/>
<path stroke-width="0.6638655462184874" stroke="black" d="M 103 196 256 193"/>
<path stroke-width="0.6638655462184874" stroke="black" d="M 103 196 265 232"/>
<path stroke-width="12.134453781512605" stroke="black" d="M 317 107 261 136"/>
<path stroke-width="0.6638655462184874" stroke="black" d="M 261 136 197 198"/>
<path stroke-width="0.6638655462184874" stroke="black" d="M 261 136 258 231"/>
<path stroke-width="0.6638655462184874" stroke="black" d="M 261 136 111 90"/>
<path stroke-width="0.6638655462184874" stroke="black" d="M 261 136 115 237"/>
<path stroke-width="0.6638655462184874" stroke="black" d="M 261 136 214 122"/>
<path stroke-width="0.6638655462184874" stroke="black" d="M 103 196 287 166"/>
<path stroke-width="0.6638655462184874" stroke="black" d="M 96 161 84 129"/>
<path stroke-width="1.1554621848739495" stroke="black" d="M 96 161 287 166"/>
<path stroke-width="0.6638655462184874" stroke="black" d="M 96 161 261 136"/>
<path stroke-width="0.6638655462184874" stroke="black" d="M 115 237 281 114"/>
<path stroke-width="0.6638655462184874" stroke="black" d="M 115 237 256 193"/>
<path stroke-width="0.6638655462184874" stroke="black" d="M 115 237 265 232"/>
<path stroke-width="15.411764705882353" stroke="black" d="M 238 90 214 122"/>
<path stroke-width="0.6638655462184874" stroke="black" d="M 214 122 197 198"/>
<path stroke-width="0.6638655462184874" stroke="black" d="M 214 122 258 231"/>
<path stroke-width="0.6638655462184874" stroke="black" d="M 214 122 111 90"/>
<path stroke-width="0.6638655462184874" stroke="black" d="M 214 122 115 237"/>
<path stroke-width="15.411764705882353" stroke="black" d="M 214 122 238 90"/>
<path stroke-width="0.6638655462184874" stroke="black" d="M 214 122 96 161"/>
<path stroke-width="0.6638655462184874" stroke="black" d="M 214 122 103 196"/>
<path stroke-width="0.6638655462184874" stroke="black" d="M 214 122 261 136"/>
<path stroke-width="0.6638655462184874" stroke="black" d="M 214 122 287 166"/>
<path stroke-width="1.1554621848739495" stroke="black" d="M 214 122 84 129"/>
<path stroke-width="0.6638655462184874" stroke="black" d="M 214 122 168 252"/>
<path stroke-width="0.6638655462184874" stroke="black" d="M 214 122 211 82"/>
<path stroke-width="0.6638655462184874" stroke="black" d="M 214 122 281 114"/>
<path stroke-width="0.6638655462184874" stroke="black" d="M 214 122 256 193"/>
<path stroke-width="0.6638655462184874" stroke="black" d="M 214 122 265 232"/>
<path stroke-width="14.100840336134453" stroke="black" d="M 38 159 96 161"/>
<path stroke-width="0.6638655462184874" stroke="black" d="M 96 161 197 198"/>
<path stroke-width="0.6638655462184874" stroke="black" d="M 96 161 258 231"/>
<path stroke-width="0.6638655462184874" stroke="black" d="M 96 161 111 90"/>
<path stroke-width="0.6638655462184874" stroke="black" d="M 96 161 115 237"/>
<path stroke-width="0.6638655462184874" stroke="black" d="M 96 161 214 122"/>
<path stroke-width="14.100840336134453" stroke="black" d="M 96 161 38 159"/>
<path stroke-width="0.6638655462184874" stroke="black" d="M 96 161 103 196"/>
<path stroke-width="0.5" stroke="black" d="M 265 232 256 193"/>
<path stroke-width="1.6470588235294117" stroke="black" d="M 265 232 420 320"/>
<circle cx="166" cy="209" r="20.0" style="fill:gray;stroke:black;stroke-width:1.0"/>
<circle cx="197" cy="198" r="20.0" style="fill:gray;stroke:black;stroke-width:1.0"/>
<circle cx="301" cy="266" r="20.0" style="fill:gray;stroke:black;stroke-width:1.0"/>
<circle cx="258" cy="231" r="20.0" style="fill:gray;stroke:black;stroke-width:1.0"/>
<circle cx="107" cy="67" r="20.0" style="fill:gray;stroke:black;stroke-width:1.0"/>
<circle cx="111" cy="90" r="20.0" style="fill:gray;stroke:black;stroke-width:1.0"/>
<circle cx="77" cy="271" r="20.0" style="fill:gray;stroke:black;stroke-width:1.0"/>
<circle cx="115" cy="237" r="20.0" style="fill:gray;stroke:black;stroke-width:1.0"/>
<circle cx="238" cy="90" r="20.0" style="fill:gray;stroke:black;stroke-width:1.0"/>
<circle cx="214" cy="122" r="20.0" style="fill:gray;stroke:black;stroke-width:1.0"/>
<circle cx="38" cy="159" r="20.0" style="fill:gray;stroke:black;stroke-width:1.0"/>
<circle cx="96" cy="161" r="20.0" style="fill:gray;stroke:black;stroke-width:1.0"/>
<circle cx="41" cy="214" r="20.0" style="fill:gray;stroke:black;stroke-width:1.0"/>
<circle cx="103" cy="196" r="20.0" style="fill:gray;stroke:black;stroke-width:1.0"/>
<circle cx="317" cy="107" r="20.0" style="fill:gray;stroke:black;stroke-width:1.0"/>
<circle cx="261" cy="136" r="20.0" style="fill:gray;stroke:black;stroke-width:1.0"/>
<circle cx="357" cy="162" r="20.0" style="fill:gray;stroke:black;stroke-width:1.0"/>
<circle cx="287" cy="166" r="20.0" style="fill:gray;stroke:black;stroke-width:1.0"/>
<circle cx="20" cy="107" r="20.0" style="fill:gray;stroke:black;stroke-width:1.0"/>
<circle cx="84" cy="129" r="20.0" style="fill:gray;stroke:black;stroke-width:1.0"/>
<circle cx="153" cy="311" r="20.0" style="fill:gray;stroke:black;stroke-width:1.0"/>
<circle cx="168" cy="252" r="20.0" style="fill:gray;stroke:black;stroke-width:1.0"/>
<circle cx="250" cy="20" r="20.0" style="fill:gray;stroke:black;stroke-width:1.0"/>
<circle cx="211" cy="82" r="20.0" style="fill:gray;stroke:black;stroke-width:1.0"/>
<circle cx="352" cy="57" r="20.0" style="fill:gray;stroke:black;stroke-width:1.0"/>
<circle cx="281" cy="114" r="20.0" style="fill:gray;stroke:black;stroke-width:1.0"/>
<circle cx="350" cy="222" r="20.0" style="fill:gray;stroke:black;stroke-width:1.0"/>
<circle cx="256" cy="193" r="20.0" style="fill:gray;stroke:black;stroke-width:1.0"/>
<circle cx="420" cy="320" r="20.0" style="fill:gray;stroke:black;stroke-width:1.0"/>
<circle cx="265" cy="232" r="20.0" style="fill:gray;stroke:black;stroke-width:1.0"/>
</svg>
