<svg width="440" height="340" xmlns="http://www.w3.org/2000/svg">
<path stroke-width="1" stroke="black" d="M 209 149 228 126"/>
<path stroke-width="1" stroke="black" d="M 157 172 160 86"/>
<path stroke-width="1" stroke="black" d="M 157 172 109 81"/>
<path stroke-width="1" stroke="black" d="M 157 172 128 208"/>
<path stroke-width="1" stroke="black" d="M 157 172 242 167"/>
<path stroke-width="1" stroke="black" d="M 157 172 237 64"/>
<path stroke-width="1" stroke="black" d="M 157 172 304 95"/>
<path stroke-width="1" stroke="black" d="M 157 172 308 137"/>
<path stroke-width="1" stroke="black" d="M 157 172 206 197"/>
<path stroke-width="1" stroke="black" d="M 295 198 242 167"/>
<path stroke-width="1" stroke="black" d="M 242 167 228 126"/>
<path stroke-width="1" stroke="black" d="M 242 167 204 75"/>
<path stroke-width="1" stroke="black" d="M 242 167 264 87"/>
<path stroke-width="1" stroke="black" d="M 157 172 289 121"/>
<path stroke-width="1" stroke="black" d="M 242 167 124 155"/>
<path stroke-width="1" stroke="black" d="M 242 167 87 107"/>
<path stroke-width="1" stroke="black" d="M 242 167 289 121"/>
<path stroke-width="1" stroke="black" d="M 242 167 160 86"/>
<path stroke-width="1" stroke="black" d="M 242 167 109 81"/>
<path stroke-width="1" stroke="black" d="M 242 167 157 172"/>
<path stroke-width="1" stroke="black" d="M 242 167 295 198"/>
<path stroke-width="1" stroke="black" d="M 242 167 237 64"/>
<path stroke-width="1" stroke="black" d="M 242 167 304 95"/>
<path stroke-width="1" stroke="black" d="M 242 167 308 137"/>
<path stroke-width="1" stroke="black" d="M 242 167 206 197"/>
<path stroke-width="1" stroke="black" d="M 275 20 237 64"/>
<path stroke-width="1" stroke="black" d="M 237 64 228 126"/>
<path stroke-width="1" stroke="black" d="M 242 167 116 132"/>
<path stroke-width="1" stroke="black" d="M 237 64 204 75"/>
<path stroke-width="1" stroke="black" d="M 157 172 87 107"/>
<path stroke-width="1" stroke="black" d="M 157 172 124 155"/>
<path stroke-width="1" stroke="black" d="M 160 86 157 172"/>
<path stroke-width="1" stroke="black" d="M 160 86 242 167"/>
<path stroke-width="1" stroke="black" d="M 160 86 237 64"/>
<path stroke-width="1" stroke="black" d="M 160 86 304 95"/>
<path stroke-width="1" stroke="black" d="M 160 86 308 137"/>
<path stroke-width="1" stroke="black" d="M 160 86 206 197"/>
<path stroke-width="1" stroke="black" d="M 52 52 109 81"/>
<path stroke-width="1" stroke="black" d="M 109 81 228 126"/>
<path stroke-width="1" stroke="black" d="M 109 81 204 75"/>
<path stroke-width="1" stroke="black" d="M 109 81 264 87"/>
<path stroke-width="1" stroke="black" d="M 109 81 124 155"/>
<path stroke-width="1" stroke="black" d="M 109 81 116 132"/>
<path stroke-width="1" stroke="black" d="M 157 172 116 132"/>
<path stroke-width="1" stroke="black" d="M 109 81 87 107"/>
<path stroke-width="1" stroke="black" d="M 109 81 160 86"/>
<path stroke-width="1" stroke="black" d="M 109 81 52 52"/>
<path stroke-width="1" stroke="black" d="M 109 81 157 172"/>
<path stroke-width="1" stroke="black" d="M 109 81 242 167"/>
<path stroke-width="1" stroke="black" d="M 109 81 237 64"/>
<path stroke-width="1" stroke="black" d="M 109 81 304 95"/>
<path stroke-width="1" stroke="black" d="M 109 81 308 137"/>
<path stroke-width="1" stroke="black" d="M 109 81 206 197"/>
<path stroke-width="1" stroke="black" d="M 128 208 157 172"/>
<path stroke-width="1" stroke="black" d="M 157 172 228 126"/>
<path stroke-width="1" stroke="black" d="M 157 172 204 75"/>
<path stroke-width="1" stroke="black" d="M 157 172 264 87"/>
<path stroke-width="1" stroke="black" d="M 109 81 289 121"/>
<path stroke-width="1" stroke="black" d="M 160 86 109 81"/>
<path stroke-width="1" stroke="black" d="M 237 64 264 87"/>
<path stroke-width="1" stroke="black" d="M 237 64 116 132"/>
<path stroke-width="1" stroke="black" d="M 308 137 124 155"/>
<path stroke-width="1" stroke="black" d="M 308 137 116 132"/>
<path stroke-width="1" stroke="black" d="M 308 137 87 107"/>
<path stroke-width="1" stroke="black" d="M 308 137 289 121"/>
<path stroke-width="1" stroke="black" d="M 308 137 160 86"/>
<path stroke-width="1" stroke="black" d="M 308 137 109 81"/>
<path stroke-width="1" stroke="black" d="M 308 137 157 172"/>
<path stroke-width="1" stroke="black" d="M 308 137 242 167"/>
<path stroke-width="1" stroke="black" d="M 308 137 237 64"/>
<path stroke-width="1" stroke="black" d="M 308 137 304 95"/>
<path stroke-width="1" stroke="black" d="M 308 137 420 143"/>
<path stroke-width="1" stroke="black" d="M 308 137 206 197"/>
<path stroke-width="1" stroke="black" d="M 308 137 264 87"/>
<path stroke-width="1" stroke="black" d="M 210 320 206 197"/>
<path stroke-width="1" stroke="black" d="M 206 197 204 75"/>
<path stroke-width="1" stroke="black" d="M 206 197 264 87"/>
<path stroke-width="1" stroke="black" d="M 206 197 124 155"/>
<path stroke-width="1" stroke="black" d="M 206 197 116 132"/>
<path stroke-width="1" stroke="black" d="M 206 197 87 107"/>
<path stroke-width="1" stroke="black" d="M 206 197 289 121"/>
<path stroke-width="1" stroke="black" d="M 206 197 160 86"/>
<path stroke-width="1" stroke="black" d="M 206 197 109 81"/>
<path stroke-width="1" stroke="black" d="M 206 197 157 172"/>
<path stroke-width="1" stroke="black" d="M 206 197 242 167"/>
<path stroke-width="1" stroke="black" d="M 206 197 237 64"/>
<path stroke-width="1" stroke="black" d="M 206 197 304 95"/>
<path stroke-width="1" stroke="black" d="M 206 197 228 126"/>
<path stroke-width="1" stroke="black" d="M 237 64 124 155"/>
<path stroke-width="1" stroke="black" d="M 308 137 204 75"/>
<path stroke-width="1" stroke="black" d="M 420 143 308 137"/>
<path stroke-width="1" stroke="black" d="M 237 64 87 107"/>
<path stroke-width="1" stroke="black" d="M 237 64 289 121"/>
<path stroke-width="1" stroke="black" d="M 237 64 160 86"/>
<path stroke-width="1" stroke="black" d="M 237 64 109 81"/>
<path stroke-width="1" stroke="black" d="M 237 64 157 172"/>
<path stroke-width="1" stroke="black" d="M 237 64 242 167"/>
<path stroke-width="1" stroke="black" d="M 237 64 275 20"/>
<path stroke-width="1" stroke="black" d="M 237 64 304 95"/>
<path stroke-width="1" stroke="black" d="M 237 64 308 137"/>
<path stroke-width="1" stroke="black" d="M 237 64 206 197"/>
<path stroke-width="1" stroke="black" d="M 401 71 304 95"/>
<path stroke-width="1" stroke="black" d="M 304 95 228 126"/>
<path stroke-width="1" stroke="black" d="M 308 137 228 126"/>
<path stroke-width="1" stroke="black" d="M 304 95 204 75"/>
<path stroke-width="1" stroke="black" d="M 304 95 124 155"/>
<path stroke-width="1" stroke="black" d="M 304 95 116 132"/>
<path stroke-width="1" stroke="black" d="M 304 95 87 107"/>
<path stroke-width="1" stroke="black" d="M 304 95 289 121"/>
<path stroke-width="1" stroke="black" d="M 304 95 160 86"/>
<path stroke-width="1" stroke="black" d="M 304 95 109 81"/>
<path stroke-width="1" stroke="black" d="M 304 95 157 172"/>
<path stroke-width="1" stroke="black" d="M 304 95 242 167"/>
<path stroke-width="1" stroke="black" d="M 304 95 237 64"/>
<path stroke-width="1" stroke="black" d="M 304 95 401 71"/>
<path stroke-width="1" stroke="black" d="M 304 95 308 137"/>
<path stroke-width="1" stroke="black" d="M 304 95 206 197"/>
<path stroke-width="1" stroke="black" d="M 304 95 264 87"/>
<path stroke-width="1" stroke="black" d="M 160 86 124 55"/>
<path stroke-width="1" stroke="black" d="M 160 86 289 121"/>
<path stroke-width="1" stroke="black" d="M 160 86 87 107"/>
<path stroke-width="1" stroke="black" d="M 204 75 206 197"/>
<path stroke-width="1" stroke="black" d="M 313 79 264 87"/>
<path stroke-width="1" stroke="black" d="M 264 87 228 126"/>
<path stroke-width="1" stroke="black" d="M 264 87 204 75"/>
<path stroke-width="1" stroke="black" d="M 264 87 313 79"/>
<path stroke-width="1" stroke="black" d="M 264 87 124 155"/>
<path stroke-width="1" stroke="black" d="M 264 87 116 132"/>
<path stroke-width="1" stroke="black" d="M 264 87 87 107"/>
<path stroke-width="1" stroke="black" d="M 264 87 289 121"/>
<path stroke-width="1" stroke="black" d="M 264 87 160 86"/>
<path stroke-width="1" stroke="black" d="M 264 87 109 81"/>
<path stroke-width="1" stroke="black" d="M 264 87 157 172"/>
<path stroke-width="1" stroke="black" d="M 204 75 308 137"/>
<path stroke-width="1" stroke="black" d="M 264 87 242 167"/>
<path stroke-width="1" stroke="black" d="M 264 87 304 95"/>
<path stroke-width="1" stroke="black" d="M 264 87 308 137"/>
<path stroke-width="1" stroke="black" d="M 264 87 206 197"/>
<path stroke-width="1" stroke="black" d="M 66 164 124 155"/>
<path stroke-width="1" stroke="black" d="M 124 155 228 126"/>
<path stroke-width="1" stroke="black" d="M 124 155 204 75"/>
<path stroke-width="1" stroke="black" d="M 124 155 264 87"/>
<path stroke-width="1" stroke="black" d="M 124 155 66 164"/>
<path stroke-width="1" stroke="black" d="M 124 155 116 132"/>
<path stroke-width="1" stroke="black" d="M 124 155 87 107"/>
<path stroke-width="1" stroke="black" d="M 124 155 289 121"/>
<path stroke-width="1" stroke="black" d="M 124 155 160 86"/>
<path stroke-width="1" stroke="black" d="M 264 87 237 64"/>
<path stroke-width="1" stroke="black" d="M 124 155 109 81"/>
<path stroke-width="1" stroke="black" d="M 204 75 304 95"/>
<path stroke-width="1" stroke="black" d="M 204 75 242 167"/>
<path stroke-width="1" stroke="black" d="M 228 126 209 149"/>
<path stroke-width="1" stroke="black" d="M 228 126 204 75"/>
<path stroke-width="1" stroke="black" d="M 228 126 264 87"/>
<path stroke-width="1" stroke="black" d="M 228 126 124 155"/>
<path stroke-width="1" stroke="black" d="M 228 126 116 132"/>
<path stroke-width="1" stroke="black" d="M 228 126 87 107"/>
<path stroke-width="1" stroke="black" d="M 228 126 289 121"/>
<path stroke-width="1" stroke="black" d="M 228 126 160 86"/>
<path stroke-width="1" stroke="black" d="M 228 126 109 81"/>
<path stroke-width="1" stroke="black" d="M 228 126 157 172"/>
<path stroke-width="1" stroke="black" d="M 228 126 242 167"/>
<path stroke-width="1" stroke="black" d="M 228 126 237 64"/>
<path stroke-width="1" stroke="black" d="M 204 75 237 64"/>
<path stroke-width="1" stroke="black" d="M 228 126 304 95"/>
<path stroke-width="1" stroke="black" d="M 228 126 206 197"/>
<path stroke-width="1" stroke="black" d="M 195 45 204 75"/>
<path stroke-width="1" stroke="black" d="M 204 75 228 126"/>
<path stroke-width="1" stroke="black" d="M 204 75 195 45"/>
<path stroke-width="1" stroke="black" d="M 204 75 264 87"/>
<path stroke-width="1" stroke="black" d="M 204 75 124 155"/>
<path stroke-width="1" stroke="black" d="M 204 75 116 132"/>
<path stroke-width="1" stroke="black" d="M 204 75 87 107"/>
<path stroke-width="1" stroke="black" d="M 204 75 289 121"/>
<path stroke-width="1" stroke="black" d="M 204 75 160 86"/>
<path stroke-width="1" stroke="black" d="M 204 75 109 81"/>
<path stroke-width="1" stroke="black" d="M 204 75 157 172"/>
<path stroke-width="1" stroke="black" d="M 228 126 308 137"/>
<path stroke-width="1" stroke="black" d="M 124 155 157 172"/>
<path stroke-width="1" stroke="black" d="M 124 155 242 167"/>
<path stroke-width="1" stroke="black" d="M 124 155 237 64"/>
<path stroke-width="1" stroke="black" d="M 87 107 237 64"/>
<path stroke-width="1" stroke="black" d="M 87 107 304 95"/>
<path stroke-width="1" stroke="black" d="M 87 107 308 137"/>
<path stroke-width="1" stroke="black" d="M 87 107 206 197"/>
<path stroke-width="1" stroke="black" d="M 353 124 289 121"/>
<path stroke-width="1" stroke="black" d="M 289 121 228 126"/>
<path stroke-width="1" stroke="black" d="M 289 121 204 75"/>
<path stroke-width="1" stroke="black" d="M 289 121 264 87"/>
<path stroke-width="1" stroke="black" d="M 289 121 124 155"/>
<path stroke-width="1" stroke="black" d="M 289 121 116 132"/>
<path stroke-width="1" stroke="black" d="M 289 121 87 107"/>
<path stroke-width="1" stroke="black" d="M 289 121 353 124"/>
<path stroke-width="1" stroke="black" d="M 87 107 242 167"/>
<path stroke-width="1" stroke="black" d="M 289 121 160 86"/>
<path stroke-width="1" stroke="black" d="M 289 121 157 172"/>
<path stroke-width="1" stroke="black" d="M 289 121 242 167"/>
<path stroke-width="1" stroke="black" d="M 289 121 237 64"/>
<path stroke-width="1" stroke="black" d="M 289 121 304 95"/>
<path stroke-width="1" stroke="black" d="M 289 121 308 137"/>
<path stroke-width="1" stroke="black" d="M 289 121 206 197"/>
<path stroke-width="1" stroke="black" d="M 124 55 160 86"/>
<path stroke-width="1" stroke="black" d="M 160 86 228 126"/>
<path stroke-width="1" stroke="black" d="M 160 86 204 75"/>
<path stroke-width="1" stroke="black" d="M 160 86 264 87"/>
<path stroke-width="1" stroke="black" d="M 160 86 124 155"/>
<path stroke-width="1" stroke="black" d="M 160 86 116 132"/>
<path stroke-width="1" stroke="black" d="M 289 121 109 81"/>
<path stroke-width="1" stroke="black" d="M 87 107 157 172"/>
<path stroke-width="1" stroke="black" d="M 87 107 109 81"/>
<path stroke-width="1" stroke="black" d="M 87 107 160 86"/>
<path stroke-width="1" stroke="black" d="M 124 155 304 95"/>
<path stroke-width="1" stroke="black" d="M 124 155 308 137"/>
<path stroke-width="1" stroke="black" d="M 124 155 206 197"/>
<path stroke-width="1" stroke="black" d="M 58 137 116 132"/>
<path stroke-width="1" stroke="black" d="M 116 132 228 126"/>
<path stroke-width="1" stroke="black" d="M 116 132 204 75"/>
<path stroke-width="1" stroke="black" d="M 116 132 264 87"/>
<path stroke-width="1" stroke="black" d="M 116 132 124 155"/>
<path stroke-width="1" stroke="black" d="M 116 132 58 137"/>
<path stroke-width="1" stroke="black" d="M 116 132 87 107"/>
<path stroke-width="1" stroke="black" d="M 116 132 289 121"/>
<path stroke-width="1" stroke="black" d="M 116 132 160 86"/>
<path stroke-width="1" stroke="black" d="M 116 132 109 81"/>
<path stroke-width="1" stroke="black" d="M 116 132 157 172"/>
<path stroke-width="1" stroke="black" d="M 116 132 242 167"/>
<path stroke-width="1" stroke="black" d="M 116 132 237 64"/>
<path stroke-width="1" stroke="black" d="M 116 132 304 95"/>
<path stroke-width="1" stroke="black" d="M 116 132 308 137"/>
<path stroke-width="1" stroke="black" d="M 116 132 206 197"/>
<path stroke-width="1" stroke="black" d="M 20 100 87 107"/>
<path stroke-width="1" stroke="black" d="M 87 107 228 126"/>
<path stroke-width="1" stroke="black" d="M 87 107 204 75"/>
<path stroke-width="1" stroke="black" d="M 87 107 264 87"/>
<path stroke-width="1" stroke="black" d="M 87 107 124 155"/>
<path stroke-width="1" stroke="black" d="M 87 107 116 132"/>
<path stroke-width="1" stroke="black" d="M 87 107 20 100"/>
<path stroke-width="1" stroke="black" d="M 87 107 289 121"/>
<path stroke-width="1" stroke="black" d="M 206 197 308 137"/>
<path stroke-width="1" stroke="black" d="M 206 197 210 320"/>
<circle cx="209" cy="149" r="7.0" style="fill:gray;stroke:black;stroke-width:1.0"/>
<circle cx="228" cy="126" r="7.0" style="fill:gray;stroke:black;stroke-width:1.0"/>
<circle cx="195" cy="45" r="7.0" style="fill:gray;stroke:black;stroke-width:1.0"/>
<circle cx="204" cy="75" r="7.0" style="fill:gray;stroke:black;stroke-width:1.0"/>
<circle cx="313" cy="79" r="7.0" style="fill:gray;stroke:black;stroke-width:1.0"/>
<circle cx="264" cy="87" r="7.0" style="fill:gray;stroke:black;stroke-width:1.0"/>
<circle cx="66" cy="164" r="7.0" style="fill:gray;stroke:black;stroke-width:1.0"/>
<circle cx="124" cy="155" r="7.0" style="fill:gray;stroke:black;stroke-width:1.0"/>
<circle cx="58" cy="137" r="7.0" style="fill:gray;stroke:black;stroke-width:1.0"/>
<circle cx="116" cy="132" r="7.0" style="fill:gray;stroke:black;stroke-width:1.0"/>
<circle cx="20" cy="100" r="7.0" style="fill:gray;stroke:black;stroke-width:1.0"/>
<circle cx="87" cy="107" r="7.0" style="fill:gray;stroke:black;stroke-width:1.0"/>
<circle cx="353" cy="124" r="7.0" style="fill:gray;stroke:black;stroke-width:1.0"/>
<circle cx="289" cy="121" r="7.0" style="fill:gray;stroke:black;stroke-width:1.0"/>
<circle cx="124" cy="55" r="7.0" style="fill:gray;stroke:black;stroke-width:1.0"/>
<circle cx="160" cy="86" r="7.0" style="fill:gray;stroke:black;stroke-width:1.0"/>
<circle cx="52" cy="52" r="7.0" style="fill:gray;stroke:black;stroke-width:1.0"/>
<circle cx="109" cy="81" r="7.0" style="fill:gray;stroke:black;stroke-width:1.0"/>
<circle cx="128" cy="208" r="7.0" style="fill:gray;stroke:black;stroke-width:1.0"/>
<circle cx="157" cy="172" r="7.0" style="fill:gray;stroke:black;stroke-width:1.0"/>
<circle cx="295" cy="198" r="7.0" style="fill:gray;stroke:black;stroke-width:1.0"/>
<circle cx="242" cy="167" r="7.0" style="fill:gray;stroke:black;stroke-width:1.0"/>
<circle cx="275" cy="20" r="7.0" style="fill:gray;stroke:black;stroke-width:1.0"/>
<circle cx="237" cy="64" r="7.0" style="fill:gray;stroke:black;stroke-width:1.0"/>
<circle cx="401" cy="71" r="7.0" style="fill:gray;stroke:black;stroke-width:1.0"/>
<circle cx="304" cy="95" r="7.0" style="fill:gray;stroke:black;stroke-width:1.0"/>
<circle cx="420" cy="143" r="7.0" style="fill:gray;stroke:black;stroke-width:1.0"/>
<circle cx="308" cy="137" r="7.0" style="fill:gray;stroke:black;stroke-width:1.0"/>
<circle cx="210" cy="320" r="7.0" style="fill:gray;stroke:black;stroke-width:1.0"/>
<circle cx="206" cy="197" r="7.0" style="fill:gray;stroke:black;stroke-width:1.0"/>
</svg>
