<svg width="440" height="340" xmlns="http://www.w3.org/2000/svg">
<path stroke-width="20.0" stroke="black" d="M 91 235 102 243"/>
<path stroke-width="0.6638655462184874" stroke="black" d="M 210 145 238 218"/>
<path stroke-width="0.6638655462184874" stroke="black" d="M 210 145 85 188"/>
<path stroke-width="9.512605042016807" stroke="black" d="M 210 145 248 98"/>
<path stroke-width="0.6638655462184874" stroke="black" d="M 210 145 258 159"/>
<path stroke-width="0.6638655462184874" stroke="black" d="M 210 145 213 88"/>
<path stroke-width="0.6638655462184874" stroke="black" d="M 210 145 164 250"/>
<path stroke-width="0.6638655462184874" stroke="black" d="M 210 145 141 95"/>
<path stroke-width="0.6638655462184874" stroke="black" d="M 210 145 270 184"/>
<path stroke-width="8.201680672268907" stroke="black" d="M 311 156 258 159"/>
<path stroke-width="0.6638655462184874" stroke="black" d="M 258 159 102 243"/>
<path stroke-width="0.6638655462184874" stroke="black" d="M 258 159 93 151"/>
<path stroke-width="0.6638655462184874" stroke="black" d="M 258 159 112 106"/>
<path stroke-width="0.6638655462184874" stroke="black" d="M 210 145 173 100"/>
<path stroke-width="1.1554621848739495" stroke="black" d="M 258 159 176 173"/>
<path stroke-width="0.6638655462184874" stroke="black" d="M 258 159 143 174"/>
<path stroke-width="0.6638655462184874" stroke="black" d="M 258 159 173 100"/>
<path stroke-width="0.6638655462184874" stroke="black" d="M 258 159 238 218"/>
<path stroke-width="0.6638655462184874" stroke="black" d="M 258 159 85 188"/>
<path stroke-width="0.6638655462184874" stroke="black" d="M 258 159 210 145"/>
<path stroke-width="8.201680672268907" stroke="black" d="M 258 159 311 156"/>
<path stroke-width="0.6638655462184874" stroke="black" d="M 258 159 213 88"/>
<path stroke-width="0.6638655462184874" stroke="black" d="M 258 159 164 250"/>
<path stroke-width="0.6638655462184874" stroke="black" d="M 258 159 141 95"/>
<path stroke-width="0.6638655462184874" stroke="black" d="M 258 159 270 184"/>
<path stroke-width="6.890756302521009" stroke="black" d="M 250 46 213 88"/>
<path stroke-width="0.6638655462184874" stroke="black" d="M 213 88 102 243"/>
<path stroke-width="0.6638655462184874" stroke="black" d="M 258 159 161 257"/>
<path stroke-width="0.6638655462184874" stroke="black" d="M 213 88 93 151"/>
<path stroke-width="0.6638655462184874" stroke="black" d="M 210 145 143 174"/>
<path stroke-width="0.6638655462184874" stroke="black" d="M 210 145 176 173"/>
<path stroke-width="0.6638655462184874" stroke="black" d="M 238 218 210 145"/>
<path stroke-width="0.6638655462184874" stroke="black" d="M 238 218 258 159"/>
<path stroke-width="0.6638655462184874" stroke="black" d="M 238 218 213 88"/>
<path stroke-width="0.6638655462184874" stroke="black" d="M 238 218 164 250"/>
<path stroke-width="0.6638655462184874" stroke="black" d="M 238 218 141 95"/>
<path stroke-width="0.6638655462184874" stroke="black" d="M 238 218 270 184"/>
<path stroke-width="10.823529411764707" stroke="black" d="M 20 197 85 188"/>
<path stroke-width="0.6638655462184874" stroke="black" d="M 85 188 102 243"/>
<path stroke-width="0.6638655462184874" stroke="black" d="M 85 188 93 151"/>
<path stroke-width="0.6638655462184874" stroke="black" d="M 85 188 112 106"/>
<path stroke-width="0.6638655462184874" stroke="black" d="M 85 188 176 173"/>
<path stroke-width="0.6638655462184874" stroke="black" d="M 85 188 161 257"/>
<path stroke-width="1.1554621848739495" stroke="black" d="M 210 145 161 257"/>
<path stroke-width="1.1554621848739495" stroke="black" d="M 85 188 143 174"/>
<path stroke-width="0.6638655462184874" stroke="black" d="M 85 188 238 218"/>
<path stroke-width="10.823529411764707" stroke="black" d="M 85 188 20 197"/>
<path stroke-width="0.6638655462184874" stroke="black" d="M 85 188 210 145"/>
<path stroke-width="0.6638655462184874" stroke="black" d="M 85 188 258 159"/>
<path stroke-width="0.6638655462184874" stroke="black" d="M 85 188 213 88"/>
<path stroke-width="0.6638655462184874" stroke="black" d="M 85 188 164 250"/>
<path stroke-width="0.6638655462184874" stroke="black" d="M 85 188 141 95"/>
<path stroke-width="0.6638655462184874" stroke="black" d="M 85 188 270 184"/>
<path stroke-width="9.512605042016807" stroke="black" d="M 248 98 210 145"/>
<path stroke-width="0.6638655462184874" stroke="black" d="M 210 145 102 243"/>
<path stroke-width="0.6638655462184874" stroke="black" d="M 210 145 93 151"/>
<path stroke-width="0.6638655462184874" stroke="black" d="M 210 145 112 106"/>
<path stroke-width="0.6638655462184874" stroke="black" d="M 85 188 173 100"/>
<path stroke-width="0.6638655462184874" stroke="black" d="M 238 218 85 188"/>
<path stroke-width="1.1554621848739495" stroke="black" d="M 213 88 112 106"/>
<path stroke-width="0.6638655462184874" stroke="black" d="M 213 88 161 257"/>
<path stroke-width="0.6638655462184874" stroke="black" d="M 141 95 176 173"/>
<path stroke-width="0.6638655462184874" stroke="black" d="M 141 95 161 257"/>
<path stroke-width="0.6638655462184874" stroke="black" d="M 141 95 143 174"/>
<path stroke-width="0.6638655462184874" stroke="black" d="M 141 95 173 100"/>
<path stroke-width="0.6638655462184874" stroke="black" d="M 141 95 238 218"/>
<path stroke-width="0.6638655462184874" stroke="black" d="M 141 95 85 188"/>
<path stroke-width="0.6638655462184874" stroke="black" d="M 141 95 210 145"/>
<path stroke-width="0.6638655462184874" stroke="black" d="M 141 95 258 159"/>
<path stroke-width="0.6638655462184874" stroke="black" d="M 141 95 213 88"/>
<path stroke-width="0.6638655462184874" stroke="black" d="M 141 95 164 250"/>
<path stroke-width="4.92436974789916" stroke="black" d="M 141 95 124 20"/>
<path stroke-width="0.5" stroke="black" d="M 141 95 270 184"/>
<path stroke-width="0.6638655462184874" stroke="black" d="M 141 95 112 106"/>
<path stroke-width="1.6470588235294117" stroke="black" d="M 420 192 270 184"/>
<path stroke-width="0.6638655462184874" stroke="black" d="M 270 184 93 151"/>
<path stroke-width="0.6638655462184874" stroke="black" d="M 270 184 112 106"/>
<path stroke-width="0.6638655462184874" stroke="black" d="M 270 184 176 173"/>
<path stroke-width="0.6638655462184874" stroke="black" d="M 270 184 161 257"/>
<path stroke-width="0.6638655462184874" stroke="black" d="M 270 184 143 174"/>
<path stroke-width="0.6638655462184874" stroke="black" d="M 270 184 173 100"/>
<path stroke-width="0.6638655462184874" stroke="black" d="M 270 184 238 218"/>
<path stroke-width="0.6638655462184874" stroke="black" d="M 270 184 85 188"/>
<path stroke-width="0.6638655462184874" stroke="black" d="M 270 184 210 145"/>
<path stroke-width="0.6638655462184874" stroke="black" d="M 270 184 258 159"/>
<path stroke-width="0.6638655462184874" stroke="black" d="M 270 184 213 88"/>
<path stroke-width="0.6638655462184874" stroke="black" d="M 270 184 164 250"/>
<path stroke-width="0.6638655462184874" stroke="black" d="M 270 184 102 243"/>
<path stroke-width="0.6638655462184874" stroke="black" d="M 213 88 176 173"/>
<path stroke-width="0.6638655462184874" stroke="black" d="M 141 95 93 151"/>
<path stroke-width="4.92436974789916" stroke="black" d="M 124 20 141 95"/>
<path stroke-width="0.6638655462184874" stroke="black" d="M 213 88 143 174"/>
<path stroke-width="0.6638655462184874" stroke="black" d="M 213 88 173 100"/>
<path stroke-width="0.6638655462184874" stroke="black" d="M 213 88 238 218"/>
<path stroke-width="0.6638655462184874" stroke="black" d="M 213 88 85 188"/>
<path stroke-width="0.6638655462184874" stroke="black" d="M 213 88 210 145"/>
<path stroke-width="0.6638655462184874" stroke="black" d="M 213 88 258 159"/>
<path stroke-width="6.890756302521009" stroke="black" d="M 213 88 250 46"/>
<path stroke-width="0.6638655462184874" stroke="black" d="M 213 88 164 250"/>
<path stroke-width="0.6638655462184874" stroke="black" d="M 213 88 141 95"/>
<path stroke-width="0.6638655462184874" stroke="black" d="M 213 88 270 184"/>
<path stroke-width="5.579831932773109" stroke="black" d="M 156 320 164 250"/>
<path stroke-width="0.6638655462184874" stroke="black" d="M 164 250 102 243"/>
<path stroke-width="1.1554621848739495" stroke="black" d="M 141 95 102 243"/>
<path stroke-width="1.1554621848739495" stroke="black" d="M 164 250 93 151"/>
<path stroke-width="0.6638655462184874" stroke="black" d="M 164 250 176 173"/>
<path stroke-width="0.6638655462184874" stroke="black" d="M 164 250 161 257"/>
<path stroke-width="0.6638655462184874" stroke="black" d="M 164 250 143 174"/>
<path stroke-width="0.6638655462184874" stroke="black" d="M 164 250 173 100"/>
<path stroke-width="0.6638655462184874" stroke="black" d="M 164 250 238 218"/>
<path stroke-width="0.6638655462184874" stroke="black" d="M 164 250 85 188"/>
<path stroke-width="0.6638655462184874" stroke="black" d="M 164 250 210 145"/>
<path stroke-width="0.6638655462184874" stroke="black" d="M 164 250 258 159"/>
<path stroke-width="0.6638655462184874" stroke="black" d="M 164 250 213 88"/>
<path stroke-width="5.579831932773109" stroke="black" d="M 164 250 156 320"/>
<path stroke-width="0.6638655462184874" stroke="black" d="M 164 250 141 95"/>
<path stroke-width="0.6638655462184874" stroke="black" d="M 164 250 270 184"/>
<path stroke-width="0.6638655462184874" stroke="black" d="M 164 250 112 106"/>
<path stroke-width="12.134453781512605" stroke="black" d="M 238 218 271 244"/>
<path stroke-width="1.1554621848739495" stroke="black" d="M 238 218 173 100"/>
<path stroke-width="0.6638655462184874" stroke="black" d="M 238 218 143 174"/>
<path stroke-width="0.6638655462184874" stroke="black" d="M 93 151 270 184"/>
<path stroke-width="18.03361344537815" stroke="black" d="M 81 82 112 106"/>
<path stroke-width="0.6638655462184874" stroke="black" d="M 112 106 102 243"/>
<path stroke-width="0.6638655462184874" stroke="black" d="M 112 106 93 151"/>
<path stroke-width="18.03361344537815" stroke="black" d="M 112 106 81 82"/>
<path stroke-width="0.6638655462184874" stroke="black" d="M 112 106 176 173"/>
<path stroke-width="0.6638655462184874" stroke="black" d="M 112 106 161 257"/>
<path stroke-width="0.6638655462184874" stroke="black" d="M 112 106 143 174"/>
<path stroke-width="0.6638655462184874" stroke="black" d="M 112 106 173 100"/>
<path stroke-width="0.6638655462184874" stroke="black" d="M 112 106 238 218"/>
<path stroke-width="0.6638655462184874" stroke="black" d="M 112 106 85 188"/>
<path stroke-width="0.6638655462184874" stroke="black" d="M 112 106 210 145"/>
<path stroke-width="0.6638655462184874" stroke="black" d="M 93 151 141 95"/>
<path stroke-width="0.6638655462184874" stroke="black" d="M 112 106 258 159"/>
<path stroke-width="0.6638655462184874" stroke="black" d="M 112 106 164 250"/>
<path stroke-width="0.6638655462184874" stroke="black" d="M 112 106 141 95"/>
<path stroke-width="0.6638655462184874" stroke="black" d="M 112 106 270 184"/>
<path stroke-width="16.722689075630253" stroke="black" d="M 152 211 176 173"/>
<path stroke-width="0.6638655462184874" stroke="black" d="M 176 173 102 243"/>
<path stroke-width="0.6638655462184874" stroke="black" d="M 176 173 93 151"/>
<path stroke-width="0.6638655462184874" stroke="black" d="M 176 173 112 106"/>
<path stroke-width="16.722689075630253" stroke="black" d="M 176 173 152 211"/>
<path stroke-width="0.6638655462184874" stroke="black" d="M 176 173 161 257"/>
<path stroke-width="0.6638655462184874" stroke="black" d="M 176 173 143 174"/>
<path stroke-width="0.6638655462184874" stroke="black" d="M 176 173 173 100"/>
<path stroke-width="0.6638655462184874" stroke="black" d="M 176 173 238 218"/>
<path stroke-width="1.1554621848739495" stroke="black" d="M 112 106 213 88"/>
<path stroke-width="0.6638655462184874" stroke="black" d="M 176 173 85 188"/>
<path stroke-width="1.1554621848739495" stroke="black" d="M 93 151 164 250"/>
<path stroke-width="0.6638655462184874" stroke="black" d="M 93 151 258 159"/>
<path stroke-width="20.0" stroke="black" d="M 102 243 91 235"/>
<path stroke-width="0.6638655462184874" stroke="black" d="M 102 243 93 151"/>
<path stroke-width="0.6638655462184874" stroke="black" d="M 102 243 112 106"/>
<path stroke-width="0.6638655462184874" stroke="black" d="M 102 243 176 173"/>
<path stroke-width="0.6638655462184874" stroke="black" d="M 102 243 161 257"/>
<path stroke-width="0.6638655462184874" stroke="black" d="M 102 243 143 174"/>
<path stroke-width="0.6638655462184874" stroke="black" d="M 102 243 173 100"/>
<path stroke-width="0.6638655462184874" stroke="black" d="M 102 243 238 218"/>
<path stroke-width="0.6638655462184874" stroke="black" d="M 102 243 85 188"/>
<path stroke-width="0.6638655462184874" stroke="black" d="M 102 243 210 145"/>
<path stroke-width="0.6638655462184874" stroke="black" d="M 102 243 258 159"/>
<path stroke-width="0.6638655462184874" stroke="black" d="M 102 243 213 88"/>
<path stroke-width="0.6638655462184874" stroke="black" d="M 93 151 213 88"/>
<path stroke-width="0.6638655462184874" stroke="black" d="M 102 243 164 250"/>
<path stroke-width="0.6638655462184874" stroke="black" d="M 102 243 270 184"/>
<path stroke-width="19.34453781512605" stroke="black" d="M 52 141 93 151"/>
<path stroke-width="0.6638655462184874" stroke="black" d="M 93 151 102 243"/>
<path stroke-width="19.34453781512605" stroke="black" d="M 93 151 52 141"/>
<path stroke-width="0.6638655462184874" stroke="black" d="M 93 151 112 106"/>
<path stroke-width="0.6638655462184874" stroke="black" d="M 93 151 176 173"/>
<path stroke-width="0.6638655462184874" stroke="black" d="M 93 151 161 257"/>
<path stroke-width="0.6638655462184874" stroke="black" d="M 93 151 143 174"/>
<path stroke-width="0.6638655462184874" stroke="black" d="M 93 151 173 100"/>
<path stroke-width="0.6638655462184874" stroke="black" d="M 93 151 238 218"/>
<path stroke-width="0.6638655462184874" stroke="black" d="M 93 151 85 188"/>
<path stroke-width="0.6638655462184874" stroke="black" d="M 93 151 210 145"/>
<path stroke-width="1.1554621848739495" stroke="black" d="M 102 243 141 95"/>
<path stroke-width="0.6638655462184874" stroke="black" d="M 176 173 210 145"/>
<path stroke-width="1.1554621848739495" stroke="black" d="M 176 173 258 159"/>
<path stroke-width="0.6638655462184874" stroke="black" d="M 176 173 213 88"/>
<path stroke-width="0.6638655462184874" stroke="black" d="M 143 174 213 88"/>
<path stroke-width="0.6638655462184874" stroke="black" d="M 143 174 164 250"/>
<path stroke-width="0.6638655462184874" stroke="black" d="M 143 174 141 95"/>
<path stroke-width="0.6638655462184874" stroke="black" d="M 143 174 270 184"/>
<path stroke-width="12.789915966386555" stroke="black" d="M 168 55 173 100"/>
<path stroke-width="0.6638655462184874" stroke="black" d="M 173 100 102 243"/>
<path stroke-width="0.6638655462184874" stroke="black" d="M 173 100 93 151"/>
<path stroke-width="0.6638655462184874" stroke="black" d="M 173 100 112 106"/>
<path stroke-width="0.6638655462184874" stroke="black" d="M 173 100 176 173"/>
<path stroke-width="0.6638655462184874" stroke="black" d="M 173 100 161 257"/>
<path stroke-width="0.6638655462184874" stroke="black" d="M 173 100 143 174"/>
<path stroke-width="12.789915966386555" stroke="black" d="M 173 100 168 55"/>
<path stroke-width="0.6638655462184874" stroke="black" d="M 143 174 258 159"/>
<path stroke-width="1.1554621848739495" stroke="black" d="M 173 100 238 218"/>
<path stroke-width="0.6638655462184874" stroke="black" d="M 173 100 210 145"/>
<path stroke-width="0.6638655462184874" stroke="black" d="M 173 100 258 159"/>
<path stroke-width="0.6638655462184874" stroke="black" d="M 173 100 213 88"/>
<path stroke-width="0.6638655462184874" stroke="black" d="M 173 100 164 250"/>
<path stroke-width="0.6638655462184874" stroke="black" d="M 173 100 141 95"/>
<path stroke-width="0.6638655462184874" stroke="black" d="M 173 100 270 184"/>
<path stroke-width="12.134453781512605" stroke="black" d="M 271 244 238 218"/>
<path stroke-width="0.6638655462184874" stroke="black" d="M 238 218 102 243"/>
<path stroke-width="0.6638655462184874" stroke="black" d="M 238 218 93 151"/>
<path stroke-width="0.6638655462184874" stroke="black" d="M 238 218 112 106"/>
<path stroke-width="0.6638655462184874" stroke="black" d="M 238 218 176 173"/>
<path stroke-width="0.6638655462184874" stroke="black" d="M 238 218 161 257"/>
<path stroke-width="0.6638655462184874" stroke="black" d="M 173 100 85 188"/>
<path stroke-width="0.6638655462184874" stroke="black" d="M 143 174 210 145"/>
<path stroke-width="1.1554621848739495" stroke="black" d="M 143 174 85 188"/>
<path stroke-width="0.6638655462184874" stroke="black" d="M 143 174 238 218"/>
<path stroke-width="0.6638655462184874" stroke="black" d="M 176 173 164 250"/>
<path stroke-width="0.6638655462184874" stroke="black" d="M 176 173 141 95"/>
<path stroke-width="0.6638655462184874" stroke="black" d="M 176 173 270 184"/>
<path stroke-width="15.411764705882353" stroke="black" d="M 154 278 161 257"/>
<path stroke-width="0.6638655462184874" stroke="black" d="M 161 257 102 243"/>
<path stroke-width="0.6638655462184874" stroke="black" d="M 161 257 93 151"/>
<path stroke-width="0.6638655462184874" stroke="black" d="M 161 257 112 106"/>
<path stroke-width="0.6638655462184874" stroke="black" d="M 161 257 176 173"/>
<path stroke-width="15.411764705882353" stroke="black" d="M 161 257 154 278"/>
<path stroke-width="0.6638655462184874" stroke="black" d="M 161 257 143 174"/>
<path stroke-width="0.6638655462184874" stroke="black" d="M 161 257 173 100"/>
<path stroke-width="0.6638655462184874" stroke="black" d="M 161 257 238 218"/>
<path stroke-width="0.6638655462184874" stroke="black" d="M 161 257 85 188"/>
<path stroke-width="1.1554621848739495" stroke="black" d="M 161 257 210 145"/>
<path stroke-width="0.6638655462184874" stroke="black" d="M 161 257 258 159"/>
<path stroke-width="0.6638655462184874" stroke="black" d="M 161 257 213 88"/>
<path stroke-width="0.6638655462184874" stroke="black" d="M 161 257 164 250"/>
<path stroke-width="0.6638655462184874" stroke="black" d="M 161 257 141 95"/>
<path stroke-width="0.6638655462184874" stroke="black" d="M 161 257 270 184"/>
<path stroke-width="14.100840336134453" stroke="black" d="M 147 185 143 174"/>
<path stroke-width="0.6638655462184874" stroke="black" d="M 143 174 102 243"/>
<path stroke-width="0.6638655462184874" stroke="black" d="M 143 174 93 151"/>
<path stroke-width="0.6638655462184874" stroke="black" d="M 143 174 112 106"/>
<path stroke-width="0.6638655462184874" stroke="black" d="M 143 174 176 173"/>
<path stroke-width="0.6638655462184874" stroke="black" d="M 143 174 161 257"/>
<path stroke-width="14.100840336134453" stroke="black" d="M 143 174 147 185"/>
<path stroke-width="0.6638655462184874" stroke="black" d="M 143 174 173 100"/>
<path stroke-width="0.5" stroke="black" d="M 270 184 141 95"/>
<path stroke-width="1.6470588235294117" stroke="black" d="M 270 184 420 192"/>
<circle cx="91" cy="235" r="7.0" style="fill:red;stroke:black;stroke-width:1.0"/>
<circle cx="102" cy="243" r="7.0" style="fill:red;stroke:black;stroke-width:1.0"/>
<circle cx="52" cy="141" r="7.0" style="fill:green;stroke:black;stroke-width:1.0"/>
<circle cx="93" cy="151" r="7.0" style="fill:green;stroke:black;stroke-width:1.0"/>
<circle cx="81" cy="82" r="7.0" style="fill:orange;stroke:black;stroke-width:1.0"/>
<circle cx="112" cy="106" r="7.0" style="fill:orange;stroke:black;stroke-width:1.0"/>
<circle cx="152" cy="211" r="7.0" style="fill:purple;stroke:black;stroke-width:1.0"/>
<circle cx="176" cy="173" r="7.0" style="fill:purple;stroke:black;stroke-width:1.0"/>
<circle cx="154" cy="278" r="7.0" style="fill:yellow;stroke:black;stroke-width:1.0"/>
<circle cx="161" cy="257" r="7.0" style="fill:yellow;stroke:black;stroke-width:1.0"/>
<circle cx="147" cy="185" r="7.0" style="fill:fuchsia;stroke:black;stroke-width:1.0"/>
<circle cx="143" cy="174" r="7.0" style="fill:fuchsia;stroke:black;stroke-width:1.0"/>
<circle cx="168" cy="55" r="7.0" style="fill:olive;stroke:black;stroke-width:1.0"/>
<circle cx="173" cy="100" r="7.0" style="fill:olive;stroke:black;stroke-width:1.0"/>
<circle cx="271" cy="244" r="7.0" style="fill:aqua;stroke:black;stroke-width:1.0"/>
<circle cx="238" cy="218" r="7.0" style="fill:aqua;stroke:black;stroke-width:1.0"/>
<circle cx="20" cy="197" r="7.0" style="fill:brown;stroke:black;stroke-width:1.0"/>
<circle cx="85" cy="188" r="7.0" style="fill:brown;stroke:black;stroke-width:1.0"/>
<circle cx="248" cy="98" r="7.0" style="fill:blue;stroke:black;stroke-width:1.0"/>
<circle cx="210" cy="145" r="7.0" style="fill:blue;stroke:black;stroke-width:1.0"/>
<circle cx="311" cy="156" r="7.0" style="fill:red;stroke:black;stroke-width:1.0"/>
<circle cx="258" cy="159" r="7.0" style="fill:red;stroke:black;stroke-width:1.0"/>
<circle cx="250" cy="46" r="7.0" style="fill:orange;stroke:black;stroke-width:1.0"/>
<circle cx="213" cy="88" r="7.0" style="fill:orange;stroke:black;stroke-width:1.0"/>
<circle cx="156" cy="320" r="7.0" style="fill:blue;stroke:black;stroke-width:1.0"/>
<circle cx="164" cy="250" r="7.0" style="fill:blue;stroke:black;stroke-width:1.0"/>
<circle cx="124" cy="20" r="7.0" style="fill:green;stroke:black;stroke-width:1.0"/>
<circle cx="141" cy="95" r="7.0" style="fill:green;stroke:black;stroke-width:1.0"/>
<circle cx="420" cy="192" r="7.0" style="fill:blue;stroke:black;stroke-width:1.0"/>
<circle cx="270" cy="184" r="7.0" style="fill:blue;stroke:black;stroke-width:1.0"/>
</svg>
