<svg width="440" height="340" xmlns="http://www.w3.org/2000/svg">
<path stroke-width="20.0" stroke="black" d="M 218 308 214 278"/>
<path stroke-width="0.6638655462184874" stroke="black" d="M 172 271 110 236"/>
<path stroke-width="0.6638655462184874" stroke="black" d="M 172 271 287 202"/>
<path stroke-width="9.512605042016807" stroke="black" d="M 172 271 144 320"/>
<path stroke-width="0.6638655462184874" stroke="black" d="M 172 271 91 209"/>
<path stroke-width="0.6638655462184874" stroke="black" d="M 172 271 116 146"/>
<path stroke-width="0.6638655462184874" stroke="black" d="M 172 271 166 122"/>
<path stroke-width="0.6638655462184874" stroke="black" d="M 172 271 287 236"/>
<path stroke-width="0.6638655462184874" stroke="black" d="M 172 271 278 128"/>
<path stroke-width="8.201680672268907" stroke="black" d="M 20 213 91 209"/>
<path stroke-width="0.6638655462184874" stroke="black" d="M 91 209 214 278"/>
<path stroke-width="0.6638655462184874" stroke="black" d="M 91 209 213 121"/>
<path stroke-width="0.6638655462184874" stroke="black" d="M 91 209 206 162"/>
<path stroke-width="0.6638655462184874" stroke="black" d="M 172 271 141 179"/>
<path stroke-width="1.1554621848739495" stroke="black" d="M 91 209 161 241"/>
<path stroke-width="0.6638655462184874" stroke="black" d="M 91 209 253 264"/>
<path stroke-width="0.6638655462184874" stroke="black" d="M 91 209 141 179"/>
<path stroke-width="0.6638655462184874" stroke="black" d="M 91 209 110 236"/>
<path stroke-width="0.6638655462184874" stroke="black" d="M 91 209 287 202"/>
<path stroke-width="0.6638655462184874" stroke="black" d="M 91 209 172 271"/>
<path stroke-width="8.201680672268907" stroke="black" d="M 91 209 20 213"/>
<path stroke-width="0.6638655462184874" stroke="black" d="M 91 209 116 146"/>
<path stroke-width="0.6638655462184874" stroke="black" d="M 91 209 166 122"/>
<path stroke-width="0.6638655462184874" stroke="black" d="M 91 209 287 236"/>
<path stroke-width="0.6638655462184874" stroke="black" d="M 91 209 278 128"/>
<path stroke-width="6.890756302521009" stroke="black" d="M 50 115 116 146"/>
<path stroke-width="0.6638655462184874" stroke="black" d="M 116 146 214 278"/>
<path stroke-width="0.6638655462184874" stroke="black" d="M 91 209 253 181"/>
<path stroke-width="0.6638655462184874" stroke="black" d="M 116 146 213 121"/>
<path stroke-width="0.6638655462184874" stroke="black" d="M 172 271 253 264"/>
<path stroke-width="0.6638655462184874" stroke="black" d="M 172 271 161 241"/>
<path stroke-width="0.6638655462184874" stroke="black" d="M 110 236 172 271"/>
<path stroke-width="0.6638655462184874" stroke="black" d="M 110 236 91 209"/>
<path stroke-width="0.6638655462184874" stroke="black" d="M 110 236 116 146"/>
<path stroke-width="0.6638655462184874" stroke="black" d="M 110 236 166 122"/>
<path stroke-width="0.6638655462184874" stroke="black" d="M 110 236 287 236"/>
<path stroke-width="0.6638655462184874" stroke="black" d="M 110 236 278 128"/>
<path stroke-width="10.823529411764707" stroke="black" d="M 350 202 287 202"/>
<path stroke-width="0.6638655462184874" stroke="black" d="M 287 202 214 278"/>
<path stroke-width="0.6638655462184874" stroke="black" d="M 287 202 213 121"/>
<path stroke-width="0.6638655462184874" stroke="black" d="M 287 202 206 162"/>
<path stroke-width="0.6638655462184874" stroke="black" d="M 287 202 161 241"/>
<path stroke-width="0.6638655462184874" stroke="black" d="M 287 202 253 181"/>
<path stroke-width="1.1554621848739495" stroke="black" d="M 172 271 253 181"/>
<path stroke-width="1.1554621848739495" stroke="black" d="M 287 202 253 264"/>
<path stroke-width="0.6638655462184874" stroke="black" d="M 287 202 110 236"/>
<path stroke-width="10.823529411764707" stroke="black" d="M 287 202 350 202"/>
<path stroke-width="0.6638655462184874" stroke="black" d="M 287 202 172 271"/>
<path stroke-width="0.6638655462184874" stroke="black" d="M 287 202 91 209"/>
<path stroke-width="0.6638655462184874" stroke="black" d="M 287 202 116 146"/>
<path stroke-width="0.6638655462184874" stroke="black" d="M 287 202 166 122"/>
<path stroke-width="0.6638655462184874" stroke="black" d="M 287 202 287 236"/>
<path stroke-width="0.6638655462184874" stroke="black" d="M 287 202 278 128"/>
<path stroke-width="9.512605042016807" stroke="black" d="M 144 320 172 271"/>
<path stroke-width="0.6638655462184874" stroke="black" d="M 172 271 214 278"/>
<path stroke-width="0.6638655462184874" stroke="black" d="M 172 271 213 121"/>
<path stroke-width="0.6638655462184874" stroke="black" d="M 172 271 206 162"/>
<path stroke-width="0.6638655462184874" stroke="black" d="M 287 202 141 179"/>
<path stroke-width="0.6638655462184874" stroke="black" d="M 110 236 287 202"/>
<path stroke-width="1.1554621848739495" stroke="black" d="M 116 146 206 162"/>
<path stroke-width="0.6638655462184874" stroke="black" d="M 116 146 253 181"/>
<path stroke-width="0.6638655462184874" stroke="black" d="M 287 236 161 241"/>
<path stroke-width="0.6638655462184874" stroke="black" d="M 287 236 253 181"/>
<path stroke-width="0.6638655462184874" stroke="black" d="M 287 236 253 264"/>
<path stroke-width="0.6638655462184874" stroke="black" d="M 287 236 141 179"/>
<path stroke-width="0.6638655462184874" stroke="black" d="M 287 236 110 236"/>
<path stroke-width="0.6638655462184874" stroke="black" d="M 287 236 287 202"/>
<path stroke-width="0.6638655462184874" stroke="black" d="M 287 236 172 271"/>
<path stroke-width="0.6638655462184874" stroke="black" d="M 287 236 91 209"/>
<path stroke-width="0.6638655462184874" stroke="black" d="M 287 236 116 146"/>
<path stroke-width="0.6638655462184874" stroke="black" d="M 287 236 166 122"/>
<path stroke-width="4.92436974789916" stroke="black" d="M 287 236 378 263"/>
<path stroke-width="0.5" stroke="black" d="M 287 236 278 128"/>
<path stroke-width="0.6638655462184874" stroke="black" d="M 287 236 206 162"/>
<path stroke-width="1.6470588235294117" stroke="black" d="M 420 20 278 128"/>
<path stroke-width="0.6638655462184874" stroke="black" d="M 278 128 213 121"/>
<path stroke-width="0.6638655462184874" stroke="black" d="M 278 128 206 162"/>
<path stroke-width="0.6638655462184874" stroke="black" d="M 278 128 161 241"/>
<path stroke-width="0.6638655462184874" stroke="black" d="M 278 128 253 181"/>
<path stroke-width="0.6638655462184874" stroke="black" d="M 278 128 253 264"/>
<path stroke-width="0.6638655462184874" stroke="black" d="M 278 128 141 179"/>
<path stroke-width="0.6638655462184874" stroke="black" d="M 278 128 110 236"/>
<path stroke-width="0.6638655462184874" stroke="black" d="M 278 128 287 202"/>
<path stroke-width="0.6638655462184874" stroke="black" d="M 278 128 172 271"/>
<path stroke-width="0.6638655462184874" stroke="black" d="M 278 128 91 209"/>
<path stroke-width="0.6638655462184874" stroke="black" d="M 278 128 116 146"/>
<path stroke-width="0.6638655462184874" stroke="black" d="M 278 128 166 122"/>
<path stroke-width="0.6638655462184874" stroke="black" d="M 278 128 214 278"/>
<path stroke-width="0.6638655462184874" stroke="black" d="M 116 146 161 241"/>
<path stroke-width="0.6638655462184874" stroke="black" d="M 287 236 213 121"/>
<path stroke-width="4.92436974789916" stroke="black" d="M 378 263 287 236"/>
<path stroke-width="0.6638655462184874" stroke="black" d="M 116 146 253 264"/>
<path stroke-width="0.6638655462184874" stroke="black" d="M 116 146 141 179"/>
<path stroke-width="0.6638655462184874" stroke="black" d="M 116 146 110 236"/>
<path stroke-width="0.6638655462184874" stroke="black" d="M 116 146 287 202"/>
<path stroke-width="0.6638655462184874" stroke="black" d="M 116 146 172 271"/>
<path stroke-width="0.6638655462184874" stroke="black" d="M 116 146 91 209"/>
<path stroke-width="6.890756302521009" stroke="black" d="M 116 146 50 115"/>
<path stroke-width="0.6638655462184874" stroke="black" d="M 116 146 166 122"/>
<path stroke-width="0.6638655462184874" stroke="black" d="M 116 146 287 236"/>
<path stroke-width="0.6638655462184874" stroke="black" d="M 116 146 278 128"/>
<path stroke-width="5.579831932773109" stroke="black" d="M 134 58 166 122"/>
<path stroke-width="0.6638655462184874" stroke="black" d="M 166 122 214 278"/>
<path stroke-width="1.1554621848739495" stroke="black" d="M 287 236 214 278"/>
<path stroke-width="1.1554621848739495" stroke="black" d="M 166 122 213 121"/>
<path stroke-width="0.6638655462184874" stroke="black" d="M 166 122 161 241"/>
<path stroke-width="0.6638655462184874" stroke="black" d="M 166 122 253 181"/>
<path stroke-width="0.6638655462184874" stroke="black" d="M 166 122 253 264"/>
<path stroke-width="0.6638655462184874" stroke="black" d="M 166 122 141 179"/>
<path stroke-width="0.6638655462184874" stroke="black" d="M 166 122 110 236"/>
<path stroke-width="0.6638655462184874" stroke="black" d="M 166 122 287 202"/>
<path stroke-width="0.6638655462184874" stroke="black" d="M 166 122 172 271"/>
<path stroke-width="0.6638655462184874" stroke="black" d="M 166 122 91 209"/>
<path stroke-width="0.6638655462184874" stroke="black" d="M 166 122 116 146"/>
<path stroke-width="5.579831932773109" stroke="black" d="M 166 122 134 58"/>
<path stroke-width="0.6638655462184874" stroke="black" d="M 166 122 287 236"/>
<path stroke-width="0.6638655462184874" stroke="black" d="M 166 122 278 128"/>
<path stroke-width="0.6638655462184874" stroke="black" d="M 166 122 206 162"/>
<path stroke-width="12.134453781512605" stroke="black" d="M 110 236 60 258"/>
<path stroke-width="1.1554621848739495" stroke="black" d="M 110 236 141 179"/>
<path stroke-width="0.6638655462184874" stroke="black" d="M 110 236 253 264"/>
<path stroke-width="0.6638655462184874" stroke="black" d="M 213 121 278 128"/>
<path stroke-width="18.03361344537815" stroke="black" d="M 180 186 206 162"/>
<path stroke-width="0.6638655462184874" stroke="black" d="M 206 162 214 278"/>
<path stroke-width="0.6638655462184874" stroke="black" d="M 206 162 213 121"/>
<path stroke-width="18.03361344537815" stroke="black" d="M 206 162 180 186"/>
<path stroke-width="0.6638655462184874" stroke="black" d="M 206 162 161 241"/>
<path stroke-width="0.6638655462184874" stroke="black" d="M 206 162 253 181"/>
<path stroke-width="0.6638655462184874" stroke="black" d="M 206 162 253 264"/>
<path stroke-width="0.6638655462184874" stroke="black" d="M 206 162 141 179"/>
<path stroke-width="0.6638655462184874" stroke="black" d="M 206 162 110 236"/>
<path stroke-width="0.6638655462184874" stroke="black" d="M 206 162 287 202"/>
<path stroke-width="0.6638655462184874" stroke="black" d="M 206 162 172 271"/>
<path stroke-width="0.6638655462184874" stroke="black" d="M 213 121 287 236"/>
<path stroke-width="0.6638655462184874" stroke="black" d="M 206 162 91 209"/>
<path stroke-width="0.6638655462184874" stroke="black" d="M 206 162 166 122"/>
<path stroke-width="0.6638655462184874" stroke="black" d="M 206 162 287 236"/>
<path stroke-width="0.6638655462184874" stroke="black" d="M 206 162 278 128"/>
<path stroke-width="16.722689075630253" stroke="black" d="M 137 269 161 241"/>
<path stroke-width="0.6638655462184874" stroke="black" d="M 161 241 214 278"/>
<path stroke-width="0.6638655462184874" stroke="black" d="M 161 241 213 121"/>
<path stroke-width="0.6638655462184874" stroke="black" d="M 161 241 206 162"/>
<path stroke-width="16.722689075630253" stroke="black" d="M 161 241 137 269"/>
<path stroke-width="0.6638655462184874" stroke="black" d="M 161 241 253 181"/>
<path stroke-width="0.6638655462184874" stroke="black" d="M 161 241 253 264"/>
<path stroke-width="0.6638655462184874" stroke="black" d="M 161 241 141 179"/>
<path stroke-width="0.6638655462184874" stroke="black" d="M 161 241 110 236"/>
<path stroke-width="1.1554621848739495" stroke="black" d="M 206 162 116 146"/>
<path stroke-width="0.6638655462184874" stroke="black" d="M 161 241 287 202"/>
<path stroke-width="1.1554621848739495" stroke="black" d="M 213 121 166 122"/>
<path stroke-width="0.6638655462184874" stroke="black" d="M 213 121 91 209"/>
<path stroke-width="20.0" stroke="black" d="M 214 278 218 308"/>
<path stroke-width="0.6638655462184874" stroke="black" d="M 214 278 213 121"/>
<path stroke-width="0.6638655462184874" stroke="black" d="M 214 278 206 162"/>
<path stroke-width="0.6638655462184874" stroke="black" d="M 214 278 161 241"/>
<path stroke-width="0.6638655462184874" stroke="black" d="M 214 278 253 181"/>
<path stroke-width="0.6638655462184874" stroke="black" d="M 214 278 253 264"/>
<path stroke-width="0.6638655462184874" stroke="black" d="M 214 278 141 179"/>
<path stroke-width="0.6638655462184874" stroke="black" d="M 214 278 110 236"/>
<path stroke-width="0.6638655462184874" stroke="black" d="M 214 278 287 202"/>
<path stroke-width="0.6638655462184874" stroke="black" d="M 214 278 172 271"/>
<path stroke-width="0.6638655462184874" stroke="black" d="M 214 278 91 209"/>
<path stroke-width="0.6638655462184874" stroke="black" d="M 214 278 116 146"/>
<path stroke-width="0.6638655462184874" stroke="black" d="M 213 121 116 146"/>
<path stroke-width="0.6638655462184874" stroke="black" d="M 214 278 166 122"/>
<path stroke-width="0.6638655462184874" stroke="black" d="M 214 278 278 128"/>
<path stroke-width="19.34453781512605" stroke="black" d="M 217 89 213 121"/>
<path stroke-width="0.6638655462184874" stroke="black" d="M 213 121 214 278"/>
<path stroke-width="19.34453781512605" stroke="black" d="M 213 121 217 89"/>
<path stroke-width="0.6638655462184874" stroke="black" d="M 213 121 206 162"/>
<path stroke-width="0.6638655462184874" stroke="black" d="M 213 121 161 241"/>
<path stroke-width="0.6638655462184874" stroke="black" d="M 213 121 253 181"/>
<path stroke-width="0.6638655462184874" stroke="black" d="M 213 121 253 264"/>
<path stroke-width="0.6638655462184874" stroke="black" d="M 213 121 141 179"/>
<path stroke-width="0.6638655462184874" stroke="black" d="M 213 121 110 236"/>
<path stroke-width="0.6638655462184874" stroke="black" d="M 213 121 287 202"/>
<path stroke-width="0.6638655462184874" stroke="black" d="M 213 121 172 271"/>
<path stroke-width="1.1554621848739495" stroke="black" d="M 214 278 287 236"/>
<path stroke-width="0.6638655462184874" stroke="black" d="M 161 241 172 271"/>
<path stroke-width="1.1554621848739495" stroke="black" d="M 161 241 91 209"/>
<path stroke-width="0.6638655462184874" stroke="black" d="M 161 241 116 146"/>
<path stroke-width="0.6638655462184874" stroke="black" d="M 253 264 116 146"/>
<path stroke-width="0.6638655462184874" stroke="black" d="M 253 264 166 122"/>
<path stroke-width="0.6638655462184874" stroke="black" d="M 253 264 287 236"/>
<path stroke-width="0.6638655462184874" stroke="black" d="M 253 264 278 128"/>
<path stroke-width="12.789915966386555" stroke="black" d="M 96 164 141 179"/>
<path stroke-width="0.6638655462184874" stroke="black" d="M 141 179 214 278"/>
<path stroke-width="0.6638655462184874" stroke="black" d="M 141 179 213 121"/>
<path stroke-width="0.6638655462184874" stroke="black" d="M 141 179 206 162"/>
<path stroke-width="0.6638655462184874" stroke="black" d="M 141 179 161 241"/>
<path stroke-width="0.6638655462184874" stroke="black" d="M 141 179 253 181"/>
<path stroke-width="0.6638655462184874" stroke="black" d="M 141 179 253 264"/>
<path stroke-width="12.789915966386555" stroke="black" d="M 141 179 96 164"/>
<path stroke-width="0.6638655462184874" stroke="black" d="M 253 264 91 209"/>
<path stroke-width="1.1554621848739495" stroke="black" d="M 141 179 110 236"/>
<path stroke-width="0.6638655462184874" stroke="black" d="M 141 179 172 271"/>
<path stroke-width="0.6638655462184874" stroke="black" d="M 141 179 91 209"/>
<path stroke-width="0.6638655462184874" stroke="black" d="M 141 179 116 146"/>
<path stroke-width="0.6638655462184874" stroke="black" d="M 141 179 166 122"/>
<path stroke-width="0.6638655462184874" stroke="black" d="M 141 179 287 236"/>
<path stroke-width="0.6638655462184874" stroke="black" d="M 141 179 278 128"/>
<path stroke-width="12.134453781512605" stroke="black" d="M 60 258 110 236"/>
<path stroke-width="0.6638655462184874" stroke="black" d="M 110 236 214 278"/>
<path stroke-width="0.6638655462184874" stroke="black" d="M 110 236 213 121"/>
<path stroke-width="0.6638655462184874" stroke="black" d="M 110 236 206 162"/>
<path stroke-width="0.6638655462184874" stroke="black" d="M 110 236 161 241"/>
<path stroke-width="0.6638655462184874" stroke="black" d="M 110 236 253 181"/>
<path stroke-width="0.6638655462184874" stroke="black" d="M 141 179 287 202"/>
<path stroke-width="0.6638655462184874" stroke="black" d="M 253 264 172 271"/>
<path stroke-width="1.1554621848739495" stroke="black" d="M 253 264 287 202"/>
<path stroke-width="0.6638655462184874" stroke="black" d="M 253 264 110 236"/>
<path stroke-width="0.6638655462184874" stroke="black" d="M 161 241 166 122"/>
<path stroke-width="0.6638655462184874" stroke="black" d="M 161 241 287 236"/>
<path stroke-width="0.6638655462184874" stroke="black" d="M 161 241 278 128"/>
<path stroke-width="15.411764705882353" stroke="black" d="M 295 164 253 181"/>
<path stroke-width="0.6638655462184874" stroke="black" d="M 253 181 214 278"/>
<path stroke-width="0.6638655462184874" stroke="black" d="M 253 181 213 121"/>
<path stroke-width="0.6638655462184874" stroke="black" d="M 253 181 206 162"/>
<path stroke-width="0.6638655462184874" stroke="black" d="M 253 181 161 241"/>
<path stroke-width="15.411764705882353" stroke="black" d="M 253 181 295 164"/>
<path stroke-width="0.6638655462184874" stroke="black" d="M 253 181 253 264"/>
<path stroke-width="0.6638655462184874" stroke="black" d="M 253 181 141 179"/>
<path stroke-width="0.6638655462184874" stroke="black" d="M 253 181 110 236"/>
<path stroke-width="0.6638655462184874" stroke="black" d="M 253 181 287 202"/>
<path stroke-width="1.1554621848739495" stroke="black" d="M 253 181 172 271"/>
<path stroke-width="0.6638655462184874" stroke="black" d="M 253 181 91 209"/>
<path stroke-width="0.6638655462184874" stroke="black" d="M 253 181 116 146"/>
<path stroke-width="0.6638655462184874" stroke="black" d="M 253 181 166 122"/>
<path stroke-width="0.6638655462184874" stroke="black" d="M 253 181 287 236"/>
<path stroke-width="0.6638655462184874" stroke="black" d="M 253 181 278 128"/>
<path stroke-width="14.100840336134453" stroke="black" d="M 280 300 253 264"/>
<path stroke-width="0.6638655462184874" stroke="black" d="M 253 264 214 278"/>
<path stroke-width="0.6638655462184874" stroke="black" d="M 253 264 213 121"/>
<path stroke-width="0.6638655462184874" stroke="black" d="M 253 264 206 162"/>
<path stroke-width="0.6638655462184874" stroke="black" d="M 253 264 161 241"/>
<path stroke-width="0.6638655462184874" stroke="black" d="M 253 264 253 181"/>
<path stroke-width="14.100840336134453" stroke="black" d="M 253 264 280 300"/>
<path stroke-width="0.6638655462184874" stroke="black" d="M 253 264 141 179"/>
<path stroke-width="0.5" stroke="black" d="M 278 128 287 236"/>
<path stroke-width="1.6470588235294117" stroke="black" d="M 278 128 420 20"/>
<circle cx="218" cy="308" r="7.0" style="fill:red;stroke:black;stroke-width:1.0"/>
<circle cx="214" cy="278" r="7.0" style="fill:red;stroke:black;stroke-width:1.0"/>
<circle cx="217" cy="89" r="7.0" style="fill:green;stroke:black;stroke-width:1.0"/>
<circle cx="213" cy="121" r="7.0" style="fill:green;stroke:black;stroke-width:1.0"/>
<circle cx="180" cy="186" r="7.0" style="fill:orange;stroke:black;stroke-width:1.0"/>
<circle cx="206" cy="162" r="7.0" style="fill:orange;stroke:black;stroke-width:1.0"/>
<circle cx="137" cy="269" r="7.0" style="fill:purple;stroke:black;stroke-width:1.0"/>
<circle cx="161" cy="241" r="7.0" style="fill:purple;stroke:black;stroke-width:1.0"/>
<circle cx="295" cy="164" r="7.0" style="fill:yellow;stroke:black;stroke-width:1.0"/>
<circle cx="253" cy="181" r="7.0" style="fill:yellow;stroke:black;stroke-width:1.0"/>
<circle cx="280" cy="300" r="7.0" style="fill:fuchsia;stroke:black;stroke-width:1.0"/>
<circle cx="253" cy="264" r="7.0" style="fill:fuchsia;stroke:black;stroke-width:1.0"/>
<circle cx="96" cy="164" r="7.0" style="fill:olive;stroke:black;stroke-width:1.0"/>
<circle cx="141" cy="179" r="7.0" style="fill:olive;stroke:black;stroke-width:1.0"/>
<circle cx="60" cy="258" r="7.0" style="fill:aqua;stroke:black;stroke-width:1.0"/>
<circle cx="110" cy="236" r="7.0" style="fill:aqua;stroke:black;stroke-width:1.0"/>
<circle cx="350" cy="202" r="7.0" style="fill:brown;stroke:black;stroke-width:1.0"/>
<circle cx="287" cy="202" r="7.0" style="fill:brown;stroke:black;stroke-width:1.0"/>
<circle cx="144" cy="320" r="7.0" style="fill:blue;stroke:black;stroke-width:1.0"/>
<circle cx="172" cy="271" r="7.0" style="fill:blue;stroke:black;stroke-width:1.0"/>
<circle cx="20" cy="213" r="7.0" style="fill:red;stroke:black;stroke-width:1.0"/>
<circle cx="91" cy="209" r="7.0" style="fill:red;stroke:black;stroke-width:1.0"/>
<circle cx="50" cy="115" r="7.0" style="fill:orange;stroke:black;stroke-width:1.0"/>
<circle cx="116" cy="146" r="7.0" style="fill:orange;stroke:black;stroke-width:1.0"/>
<circle cx="134" cy="58" r="7.0" style="fill:blue;stroke:black;stroke-width:1.0"/>
<circle cx="166" cy="122" r="7.0" style="fill:blue;stroke:black;stroke-width:1.0"/>
<circle cx="378" cy="263" r="7.0" style="fill:green;stroke:black;stroke-width:1.0"/>
<circle cx="287" cy="236" r="7.0" style="fill:green;stroke:black;stroke-width:1.0"/>
<circle cx="420" cy="20" r="7.0" style="fill:blue;stroke:black;stroke-width:1.0"/>
<circle cx="278" cy="128" r="7.0" style="fill:blue;stroke:black;stroke-width:1.0"/>
</svg>
