<svg width="440" height="340" xmlns="http://www.w3.org/2000/svg">
<path stroke-width="20.0" stroke="black" d="M 265 173 239 178"/>
<path stroke-width="0.6638655462184874" stroke="black" d="M 156 262 228 258"/>
<path stroke-width="0.6638655462184874" stroke="black" d="M 156 262 279 233"/>
<path stroke-width="9.512605042016807" stroke="black" d="M 156 262 127 320"/>
<path stroke-width="0.6638655462184874" stroke="black" d="M 156 262 303 159"/>
<path stroke-width="0.6638655462184874" stroke="black" d="M 156 262 310 208"/>
<path stroke-width="0.6638655462184874" stroke="black" d="M 156 262 188 103"/>
<path stroke-width="0.6638655462184874" stroke="black" d="M 156 262 127 230"/>
<path stroke-width="0.6638655462184874" stroke="black" d="M 156 262 286 122"/>
<path stroke-width="8.201680672268907" stroke="black" d="M 386 144 303 159"/>
<path stroke-width="0.6638655462184874" stroke="black" d="M 303 159 239 178"/>
<path stroke-width="0.6638655462184874" stroke="black" d="M 303 159 112 142"/>
<path stroke-width="0.6638655462184874" stroke="black" d="M 303 159 160 176"/>
<path stroke-width="0.6638655462184874" stroke="black" d="M 156 262 97 204"/>
<path stroke-width="1.1554621848739495" stroke="black" d="M 303 159 156 120"/>
<path stroke-width="0.6638655462184874" stroke="black" d="M 303 159 251 123"/>
<path stroke-width="0.6638655462184874" stroke="black" d="M 303 159 97 204"/>
<path stroke-width="0.6638655462184874" stroke="black" d="M 303 159 228 258"/>
<path stroke-width="0.6638655462184874" stroke="black" d="M 303 159 279 233"/>
<path stroke-width="0.6638655462184874" stroke="black" d="M 303 159 156 262"/>
<path stroke-width="8.201680672268907" stroke="black" d="M 303 159 386 144"/>
<path stroke-width="0.6638655462184874" stroke="black" d="M 303 159 310 208"/>
<path stroke-width="0.6638655462184874" stroke="black" d="M 303 159 188 103"/>
<path stroke-width="0.6638655462184874" stroke="black" d="M 303 159 127 230"/>
<path stroke-width="0.6638655462184874" stroke="black" d="M 303 159 286 122"/>
<path stroke-width="6.890756302521009" stroke="black" d="M 400 225 310 208"/>
<path stroke-width="0.6638655462184874" stroke="black" d="M 310 208 239 178"/>
<path stroke-width="0.6638655462184874" stroke="black" d="M 303 159 185 245"/>
<path stroke-width="0.6638655462184874" stroke="black" d="M 310 208 112 142"/>
<path stroke-width="0.6638655462184874" stroke="black" d="M 156 262 251 123"/>
<path stroke-width="0.6638655462184874" stroke="black" d="M 156 262 156 120"/>
<path stroke-width="0.6638655462184874" stroke="black" d="M 228 258 156 262"/>
<path stroke-width="0.6638655462184874" stroke="black" d="M 228 258 303 159"/>
<path stroke-width="0.6638655462184874" stroke="black" d="M 228 258 310 208"/>
<path stroke-width="0.6638655462184874" stroke="black" d="M 228 258 188 103"/>
<path stroke-width="0.6638655462184874" stroke="black" d="M 228 258 127 230"/>
<path stroke-width="0.6638655462184874" stroke="black" d="M 228 258 286 122"/>
<path stroke-width="10.823529411764707" stroke="black" d="M 331 271 279 233"/>
<path stroke-width="0.6638655462184874" stroke="black" d="M 279 233 239 178"/>
<path stroke-width="0.6638655462184874" stroke="black" d="M 279 233 112 142"/>
<path stroke-width="0.6638655462184874" stroke="black" d="M 279 233 160 176"/>
<path stroke-width="0.6638655462184874" stroke="black" d="M 279 233 156 120"/>
<path stroke-width="0.6638655462184874" stroke="black" d="M 279 233 185 245"/>
<path stroke-width="1.1554621848739495" stroke="black" d="M 156 262 185 245"/>
<path stroke-width="1.1554621848739495" stroke="black" d="M 279 233 251 123"/>
<path stroke-width="0.6638655462184874" stroke="black" d="M 279 233 228 258"/>
<path stroke-width="10.823529411764707" stroke="black" d="M 279 233 331 271"/>
<path stroke-width="0.6638655462184874" stroke="black" d="M 279 233 156 262"/>
<path stroke-width="0.6638655462184874" stroke="black" d="M 279 233 303 159"/>
<path stroke-width="0.6638655462184874" stroke="black" d="M 279 233 310 208"/>
<path stroke-width="0.6638655462184874" stroke="black" d="M 279 233 188 103"/>
<path stroke-width="0.6638655462184874" stroke="black" d="M 279 233 127 230"/>
<path stroke-width="0.6638655462184874" stroke="black" d="M 279 233 286 122"/>
<path stroke-width="9.512605042016807" stroke="black" d="M 127 320 156 262"/>
<path stroke-width="0.6638655462184874" stroke="black" d="M 156 262 239 178"/>
<path stroke-width="0.6638655462184874" stroke="black" d="M 156 262 112 142"/>
<path stroke-width="0.6638655462184874" stroke="black" d="M 156 262 160 176"/>
<path stroke-width="0.6638655462184874" stroke="black" d="M 279 233 97 204"/>
<path stroke-width="0.6638655462184874" stroke="black" d="M 228 258 279 233"/>
<path stroke-width="1.1554621848739495" stroke="black" d="M 310 208 160 176"/>
<path stroke-width="0.6638655462184874" stroke="black" d="M 310 208 185 245"/>
<path stroke-width="0.6638655462184874" stroke="black" d="M 127 230 156 120"/>
<path stroke-width="0.6638655462184874" stroke="black" d="M 127 230 185 245"/>
<path stroke-width="0.6638655462184874" stroke="black" d="M 127 230 251 123"/>
<path stroke-width="0.6638655462184874" stroke="black" d="M 127 230 97 204"/>
<path stroke-width="0.6638655462184874" stroke="black" d="M 127 230 228 258"/>
<path stroke-width="0.6638655462184874" stroke="black" d="M 127 230 279 233"/>
<path stroke-width="0.6638655462184874" stroke="black" d="M 127 230 156 262"/>
<path stroke-width="0.6638655462184874" stroke="black" d="M 127 230 303 159"/>
<path stroke-width="0.6638655462184874" stroke="black" d="M 127 230 310 208"/>
<path stroke-width="0.6638655462184874" stroke="black" d="M 127 230 188 103"/>
<path stroke-width="4.92436974789916" stroke="black" d="M 127 230 44 282"/>
<path stroke-width="0.5" stroke="black" d="M 127 230 286 122"/>
<path stroke-width="0.6638655462184874" stroke="black" d="M 127 230 160 176"/>
<path stroke-width="1.6470588235294117" stroke="black" d="M 420 20 286 122"/>
<path stroke-width="0.6638655462184874" stroke="black" d="M 286 122 112 142"/>
<path stroke-width="0.6638655462184874" stroke="black" d="M 286 122 160 176"/>
<path stroke-width="0.6638655462184874" stroke="black" d="M 286 122 156 120"/>
<path stroke-width="0.6638655462184874" stroke="black" d="M 286 122 185 245"/>
<path stroke-width="0.6638655462184874" stroke="black" d="M 286 122 251 123"/>
<path stroke-width="0.6638655462184874" stroke="black" d="M 286 122 97 204"/>
<path stroke-width="0.6638655462184874" stroke="black" d="M 286 122 228 258"/>
<path stroke-width="0.6638655462184874" stroke="black" d="M 286 122 279 233"/>
<path stroke-width="0.6638655462184874" stroke="black" d="M 286 122 156 262"/>
<path stroke-width="0.6638655462184874" stroke="black" d="M 286 122 303 159"/>
<path stroke-width="0.6638655462184874" stroke="black" d="M 286 122 310 208"/>
<path stroke-width="0.6638655462184874" stroke="black" d="M 286 122 188 103"/>
<path stroke-width="0.6638655462184874" stroke="black" d="M 286 122 239 178"/>
<path stroke-width="0.6638655462184874" stroke="black" d="M 310 208 156 120"/>
<path stroke-width="0.6638655462184874" stroke="black" d="M 127 230 112 142"/>
<path stroke-width="4.92436974789916" stroke="black" d="M 44 282 127 230"/>
<path stroke-width="0.6638655462184874" stroke="black" d="M 310 208 251 123"/>
<path stroke-width="0.6638655462184874" stroke="black" d="M 310 208 97 204"/>
<path stroke-width="0.6638655462184874" stroke="black" d="M 310 208 228 258"/>
<path stroke-width="0.6638655462184874" stroke="black" d="M 310 208 279 233"/>
<path stroke-width="0.6638655462184874" stroke="black" d="M 310 208 156 262"/>
<path stroke-width="0.6638655462184874" stroke="black" d="M 310 208 303 159"/>
<path stroke-width="6.890756302521009" stroke="black" d="M 310 208 400 225"/>
<path stroke-width="0.6638655462184874" stroke="black" d="M 310 208 188 103"/>
<path stroke-width="0.6638655462184874" stroke="black" d="M 310 208 127 230"/>
<path stroke-width="0.6638655462184874" stroke="black" d="M 310 208 286 122"/>
<path stroke-width="5.579831932773109" stroke="black" d="M 169 29 188 103"/>
<path stroke-width="0.6638655462184874" stroke="black" d="M 188 103 239 178"/>
<path stroke-width="1.1554621848739495" stroke="black" d="M 127 230 239 178"/>
<path stroke-width="1.1554621848739495" stroke="black" d="M 188 103 112 142"/>
<path stroke-width="0.6638655462184874" stroke="black" d="M 188 103 156 120"/>
<path stroke-width="0.6638655462184874" stroke="black" d="M 188 103 185 245"/>
<path stroke-width="0.6638655462184874" stroke="black" d="M 188 103 251 123"/>
<path stroke-width="0.6638655462184874" stroke="black" d="M 188 103 97 204"/>
<path stroke-width="0.6638655462184874" stroke="black" d="M 188 103 228 258"/>
<path stroke-width="0.6638655462184874" stroke="black" d="M 188 103 279 233"/>
<path stroke-width="0.6638655462184874" stroke="black" d="M 188 103 156 262"/>
<path stroke-width="0.6638655462184874" stroke="black" d="M 188 103 303 159"/>
<path stroke-width="0.6638655462184874" stroke="black" d="M 188 103 310 208"/>
<path stroke-width="5.579831932773109" stroke="black" d="M 188 103 169 29"/>
<path stroke-width="0.6638655462184874" stroke="black" d="M 188 103 127 230"/>
<path stroke-width="0.6638655462184874" stroke="black" d="M 188 103 286 122"/>
<path stroke-width="0.6638655462184874" stroke="black" d="M 188 103 160 176"/>
<path stroke-width="12.134453781512605" stroke="black" d="M 228 258 249 310"/>
<path stroke-width="1.1554621848739495" stroke="black" d="M 228 258 97 204"/>
<path stroke-width="0.6638655462184874" stroke="black" d="M 228 258 251 123"/>
<path stroke-width="0.6638655462184874" stroke="black" d="M 112 142 286 122"/>
<path stroke-width="18.03361344537815" stroke="black" d="M 112 171 160 176"/>
<path stroke-width="0.6638655462184874" stroke="black" d="M 160 176 239 178"/>
<path stroke-width="0.6638655462184874" stroke="black" d="M 160 176 112 142"/>
<path stroke-width="18.03361344537815" stroke="black" d="M 160 176 112 171"/>
<path stroke-width="0.6638655462184874" stroke="black" d="M 160 176 156 120"/>
<path stroke-width="0.6638655462184874" stroke="black" d="M 160 176 185 245"/>
<path stroke-width="0.6638655462184874" stroke="black" d="M 160 176 251 123"/>
<path stroke-width="0.6638655462184874" stroke="black" d="M 160 176 97 204"/>
<path stroke-width="0.6638655462184874" stroke="black" d="M 160 176 228 258"/>
<path stroke-width="0.6638655462184874" stroke="black" d="M 160 176 279 233"/>
<path stroke-width="0.6638655462184874" stroke="black" d="M 160 176 156 262"/>
<path stroke-width="0.6638655462184874" stroke="black" d="M 112 142 127 230"/>
<path stroke-width="0.6638655462184874" stroke="black" d="M 160 176 303 159"/>
<path stroke-width="0.6638655462184874" stroke="black" d="M 160 176 188 103"/>
<path stroke-width="0.6638655462184874" stroke="black" d="M 160 176 127 230"/>
<path stroke-width="0.6638655462184874" stroke="black" d="M 160 176 286 122"/>
<path stroke-width="16.722689075630253" stroke="black" d="M 109 81 156 120"/>
<path stroke-width="0.6638655462184874" stroke="black" d="M 156 120 239 178"/>
<path stroke-width="0.6638655462184874" stroke="black" d="M 156 120 112 142"/>
<path stroke-width="0.6638655462184874" stroke="black" d="M 156 120 160 176"/>
<path stroke-width="16.722689075630253" stroke="black" d="M 156 120 109 81"/>
<path stroke-width="0.6638655462184874" stroke="black" d="M 156 120 185 245"/>
<path stroke-width="0.6638655462184874" stroke="black" d="M 156 120 251 123"/>
<path stroke-width="0.6638655462184874" stroke="black" d="M 156 120 97 204"/>
<path stroke-width="0.6638655462184874" stroke="black" d="M 156 120 228 258"/>
<path stroke-width="1.1554621848739495" stroke="black" d="M 160 176 310 208"/>
<path stroke-width="0.6638655462184874" stroke="black" d="M 156 120 279 233"/>
<path stroke-width="1.1554621848739495" stroke="black" d="M 112 142 188 103"/>
<path stroke-width="0.6638655462184874" stroke="black" d="M 112 142 303 159"/>
<path stroke-width="20.0" stroke="black" d="M 239 178 265 173"/>
<path stroke-width="0.6638655462184874" stroke="black" d="M 239 178 112 142"/>
<path stroke-width="0.6638655462184874" stroke="black" d="M 239 178 160 176"/>
<path stroke-width="0.6638655462184874" stroke="black" d="M 239 178 156 120"/>
<path stroke-width="0.6638655462184874" stroke="black" d="M 239 178 185 245"/>
<path stroke-width="0.6638655462184874" stroke="black" d="M 239 178 251 123"/>
<path stroke-width="0.6638655462184874" stroke="black" d="M 239 178 97 204"/>
<path stroke-width="0.6638655462184874" stroke="black" d="M 239 178 228 258"/>
<path stroke-width="0.6638655462184874" stroke="black" d="M 239 178 279 233"/>
<path stroke-width="0.6638655462184874" stroke="black" d="M 239 178 156 262"/>
<path stroke-width="0.6638655462184874" stroke="black" d="M 239 178 303 159"/>
<path stroke-width="0.6638655462184874" stroke="black" d="M 239 178 310 208"/>
<path stroke-width="0.6638655462184874" stroke="black" d="M 112 142 310 208"/>
<path stroke-width="0.6638655462184874" stroke="black" d="M 239 178 188 103"/>
<path stroke-width="0.6638655462184874" stroke="black" d="M 239 178 286 122"/>
<path stroke-width="19.34453781512605" stroke="black" d="M 40 123 112 142"/>
<path stroke-width="0.6638655462184874" stroke="black" d="M 112 142 239 178"/>
<path stroke-width="19.34453781512605" stroke="black" d="M 112 142 40 123"/>
<path stroke-width="0.6638655462184874" stroke="black" d="M 112 142 160 176"/>
<path stroke-width="0.6638655462184874" stroke="black" d="M 112 142 156 120"/>
<path stroke-width="0.6638655462184874" stroke="black" d="M 112 142 185 245"/>
<path stroke-width="0.6638655462184874" stroke="black" d="M 112 142 251 123"/>
<path stroke-width="0.6638655462184874" stroke="black" d="M 112 142 97 204"/>
<path stroke-width="0.6638655462184874" stroke="black" d="M 112 142 228 258"/>
<path stroke-width="0.6638655462184874" stroke="black" d="M 112 142 279 233"/>
<path stroke-width="0.6638655462184874" stroke="black" d="M 112 142 156 262"/>
<path stroke-width="1.1554621848739495" stroke="black" d="M 239 178 127 230"/>
<path stroke-width="0.6638655462184874" stroke="black" d="M 156 120 156 262"/>
<path stroke-width="1.1554621848739495" stroke="black" d="M 156 120 303 159"/>
<path stroke-width="0.6638655462184874" stroke="black" d="M 156 120 310 208"/>
<path stroke-width="0.6638655462184874" stroke="black" d="M 251 123 310 208"/>
<path stroke-width="0.6638655462184874" stroke="black" d="M 251 123 188 103"/>
<path stroke-width="0.6638655462184874" stroke="black" d="M 251 123 127 230"/>
<path stroke-width="0.6638655462184874" stroke="black" d="M 251 123 286 122"/>
<path stroke-width="12.789915966386555" stroke="black" d="M 20 213 97 204"/>
<path stroke-width="0.6638655462184874" stroke="black" d="M 97 204 239 178"/>
<path stroke-width="0.6638655462184874" stroke="black" d="M 97 204 112 142"/>
<path stroke-width="0.6638655462184874" stroke="black" d="M 97 204 160 176"/>
<path stroke-width="0.6638655462184874" stroke="black" d="M 97 204 156 120"/>
<path stroke-width="0.6638655462184874" stroke="black" d="M 97 204 185 245"/>
<path stroke-width="0.6638655462184874" stroke="black" d="M 97 204 251 123"/>
<path stroke-width="12.789915966386555" stroke="black" d="M 97 204 20 213"/>
<path stroke-width="0.6638655462184874" stroke="black" d="M 251 123 303 159"/>
<path stroke-width="1.1554621848739495" stroke="black" d="M 97 204 228 258"/>
<path stroke-width="0.6638655462184874" stroke="black" d="M 97 204 156 262"/>
<path stroke-width="0.6638655462184874" stroke="black" d="M 97 204 303 159"/>
<path stroke-width="0.6638655462184874" stroke="black" d="M 97 204 310 208"/>
<path stroke-width="0.6638655462184874" stroke="black" d="M 97 204 188 103"/>
<path stroke-width="0.6638655462184874" stroke="black" d="M 97 204 127 230"/>
<path stroke-width="0.6638655462184874" stroke="black" d="M 97 204 286 122"/>
<path stroke-width="12.134453781512605" stroke="black" d="M 249 310 228 258"/>
<path stroke-width="0.6638655462184874" stroke="black" d="M 228 258 239 178"/>
<path stroke-width="0.6638655462184874" stroke="black" d="M 228 258 112 142"/>
<path stroke-width="0.6638655462184874" stroke="black" d="M 228 258 160 176"/>
<path stroke-width="0.6638655462184874" stroke="black" d="M 228 258 156 120"/>
<path stroke-width="0.6638655462184874" stroke="black" d="M 228 258 185 245"/>
<path stroke-width="0.6638655462184874" stroke="black" d="M 97 204 279 233"/>
<path stroke-width="0.6638655462184874" stroke="black" d="M 251 123 156 262"/>
<path stroke-width="1.1554621848739495" stroke="black" d="M 251 123 279 233"/>
<path stroke-width="0.6638655462184874" stroke="black" d="M 251 123 228 258"/>
<path stroke-width="0.6638655462184874" stroke="black" d="M 156 120 188 103"/>
<path stroke-width="0.6638655462184874" stroke="black" d="M 156 120 127 230"/>
<path stroke-width="0.6638655462184874" stroke="black" d="M 156 120 286 122"/>
<path stroke-width="15.411764705882353" stroke="black" d="M 171 289 185 245"/>
<path stroke-width="0.6638655462184874" stroke="black" d="M 185 245 239 178"/>
<path stroke-width="0.6638655462184874" stroke="black" d="M 185 245 112 142"/>
<path stroke-width="0.6638655462184874" stroke="black" d="M 185 245 160 176"/>
<path stroke-width="0.6638655462184874" stroke="black" d="M 185 245 156 120"/>
<path stroke-width="15.411764705882353" stroke="black" d="M 185 245 171 289"/>
<path stroke-width="0.6638655462184874" stroke="black" d="M 185 245 251 123"/>
<path stroke-width="0.6638655462184874" stroke="black" d="M 185 245 97 204"/>
<path stroke-width="0.6638655462184874" stroke="black" d="M 185 245 228 258"/>
<path stroke-width="0.6638655462184874" stroke="black" d="M 185 245 279 233"/>
<path stroke-width="1.1554621848739495" stroke="black" d="M 185 245 156 262"/>
<path stroke-width="0.6638655462184874" stroke="black" d="M 185 245 303 159"/>
<path stroke-width="0.6638655462184874" stroke="black" d="M 185 245 310 208"/>
<path stroke-width="0.6638655462184874" stroke="black" d="M 185 245 188 103"/>
<path stroke-width="0.6638655462184874" stroke="black" d="M 185 245 127 230"/>
<path stroke-width="0.6638655462184874" stroke="black" d="M 185 245 286 122"/>
<path stroke-width="14.100840336134453" stroke="black" d="M 291 82 251 123"/>
<path stroke-width="0.6638655462184874" stroke="black" d="M 251 123 239 178"/>
<path stroke-width="0.6638655462184874" stroke="black" d="M 251 123 112 142"/>
<path stroke-width="0.6638655462184874" stroke="black" d="M 251 123 160 176"/>
<path stroke-width="0.6638655462184874" stroke="black" d="M 251 123 156 120"/>
<path stroke-width="0.6638655462184874" stroke="black" d="M 251 123 185 245"/>
<path stroke-width="14.100840336134453" stroke="black" d="M 251 123 291 82"/>
<path stroke-width="0.6638655462184874" stroke="black" d="M 251 123 97 204"/>
<path stroke-width="0.5" stroke="black" d="M 286 122 127 230"/>
<path stroke-width="1.6470588235294117" stroke="black" d="M 286 122 420 20"/>
<circle cx="265" cy="173" r="7.0" style="fill:gray;stroke:black;stroke-width:1.0"/>
<circle cx="239" cy="178" r="7.0" style="fill:gray;stroke:black;stroke-width:1.0"/>
<circle cx="40" cy="123" r="7.0" style="fill:gray;stroke:black;stroke-width:1.0"/>
<circle cx="112" cy="142" r="7.0" style="fill:gray;stroke:black;stroke-width:1.0"/>
<circle cx="112" cy="171" r="7.0" style="fill:gray;stroke:black;stroke-width:1.0"/>
<circle cx="160" cy="176" r="7.0" style="fill:gray;stroke:black;stroke-width:1.0"/>
<circle cx="109" cy="81" r="7.0" style="fill:gray;stroke:black;stroke-width:1.0"/>
<circle cx="156" cy="120" r="7.0" style="fill:gray;stroke:black;stroke-width:1.0"/>
<circle cx="171" cy="289" r="7.0" style="fill:gray;stroke:black;stroke-width:1.0"/>
<circle cx="185" cy="245" r="7.0" style="fill:gray;stroke:black;stroke-width:1.0"/>
<circle cx="291" cy="82" r="7.0" style="fill:gray;stroke:black;stroke-width:1.0"/>
<circle cx="251" cy="123" r="7.0" style="fill:gray;stroke:black;stroke-width:1.0"/>
<circle cx="20" cy="213" r="7.0" style="fill:gray;stroke:black;stroke-width:1.0"/>
<circle cx="97" cy="204" r="7.0" style="fill:gray;stroke:black;stroke-width:1.0"/>
<circle cx="249" cy="310" r="7.0" style="fill:gray;stroke:black;stroke-width:1.0"/>
<circle cx="228" cy="258" r="7.0" style="fill:gray;stroke:black;stroke-width:1.0"/>
<circle cx="331" cy="271" r="7.0" style="fill:gray;stroke:black;stroke-width:1.0"/>
<circle cx="279" cy="233" r="7.0" style="fill:gray;stroke:black;stroke-width:1.0"/>
<circle cx="127" cy="320" r="7.0" style="fill:gray;stroke:black;stroke-width:1.0"/>
<circle cx="156" cy="262" r="7.0" style="fill:gray;stroke:black;stroke-width:1.0"/>
<circle cx="386" cy="144" r="7.0" style="fill:gray;stroke:black;stroke-width:1.0"/>
<circle cx="303" cy="159" r="7.0" style="fill:gray;stroke:black;stroke-width:1.0"/>
<circle cx="400" cy="225" r="7.0" style="fill:gray;stroke:black;stroke-width:1.0"/>
<circle cx="310" cy="208" r="7.0" style="fill:gray;stroke:black;stroke-width:1.0"/>
<circle cx="169" cy="29" r="7.0" style="fill:gray;stroke:black;stroke-width:1.0"/>
<circle cx="188" cy="103" r="7.0" style="fill:gray;stroke:black;stroke-width:1.0"/>
<circle cx="44" cy="282" r="7.0" style="fill:gray;stroke:black;stroke-width:1.0"/>
<circle cx="127" cy="230" r="7.0" style="fill:gray;stroke:black;stroke-width:1.0"/>
<circle cx="420" cy="20" r="7.0" style="fill:gray;stroke:black;stroke-width:1.0"/>
<circle cx="286" cy="122" r="7.0" style="fill:gray;stroke:black;stroke-width:1.0"/>
</svg>
