<svg width="440" height="340" xmlns="http://www.w3.org/2000/svg">
<path stroke-width="1" stroke="black" d="M 287 205 301 216"/>
<path stroke-width="1" stroke="black" d="M 204 240 308 263"/>
<path stroke-width="1" stroke="black" d="M 204 240 270 266"/>
<path stroke-width="1" stroke="black" d="M 204 240 167 285"/>
<path stroke-width="1" stroke="black" d="M 204 240 340 133"/>
<path stroke-width="1" stroke="black" d="M 204 240 307 114"/>
<path stroke-width="1" stroke="black" d="M 204 240 271 94"/>
<path stroke-width="1" stroke="black" d="M 204 240 347 224"/>
<path stroke-width="1" stroke="black" d="M 204 240 164 186"/>
<path stroke-width="1" stroke="black" d="M 390 97 340 133"/>
<path stroke-width="1" stroke="black" d="M 340 133 301 216"/>
<path stroke-width="1" stroke="black" d="M 340 133 216 187"/>
<path stroke-width="1" stroke="black" d="M 340 133 350 183"/>
<path stroke-width="1" stroke="black" d="M 204 240 243 244"/>
<path stroke-width="1" stroke="black" d="M 340 133 239 102"/>
<path stroke-width="1" stroke="black" d="M 340 133 273 166"/>
<path stroke-width="1" stroke="black" d="M 340 133 243 244"/>
<path stroke-width="1" stroke="black" d="M 340 133 308 263"/>
<path stroke-width="1" stroke="black" d="M 340 133 270 266"/>
<path stroke-width="1" stroke="black" d="M 340 133 204 240"/>
<path stroke-width="1" stroke="black" d="M 340 133 390 97"/>
<path stroke-width="1" stroke="black" d="M 340 133 307 114"/>
<path stroke-width="1" stroke="black" d="M 340 133 271 94"/>
<path stroke-width="1" stroke="black" d="M 340 133 347 224"/>
<path stroke-width="1" stroke="black" d="M 340 133 164 186"/>
<path stroke-width="1" stroke="black" d="M 327 53 307 114"/>
<path stroke-width="1" stroke="black" d="M 307 114 301 216"/>
<path stroke-width="1" stroke="black" d="M 340 133 192 137"/>
<path stroke-width="1" stroke="black" d="M 307 114 216 187"/>
<path stroke-width="1" stroke="black" d="M 204 240 273 166"/>
<path stroke-width="1" stroke="black" d="M 204 240 239 102"/>
<path stroke-width="1" stroke="black" d="M 308 263 204 240"/>
<path stroke-width="1" stroke="black" d="M 308 263 340 133"/>
<path stroke-width="1" stroke="black" d="M 308 263 307 114"/>
<path stroke-width="1" stroke="black" d="M 308 263 271 94"/>
<path stroke-width="1" stroke="black" d="M 308 263 347 224"/>
<path stroke-width="1" stroke="black" d="M 308 263 164 186"/>
<path stroke-width="1" stroke="black" d="M 266 320 270 266"/>
<path stroke-width="1" stroke="black" d="M 270 266 301 216"/>
<path stroke-width="1" stroke="black" d="M 270 266 216 187"/>
<path stroke-width="1" stroke="black" d="M 270 266 350 183"/>
<path stroke-width="1" stroke="black" d="M 270 266 239 102"/>
<path stroke-width="1" stroke="black" d="M 270 266 192 137"/>
<path stroke-width="1" stroke="black" d="M 204 240 192 137"/>
<path stroke-width="1" stroke="black" d="M 270 266 273 166"/>
<path stroke-width="1" stroke="black" d="M 270 266 308 263"/>
<path stroke-width="1" stroke="black" d="M 270 266 266 320"/>
<path stroke-width="1" stroke="black" d="M 270 266 204 240"/>
<path stroke-width="1" stroke="black" d="M 270 266 340 133"/>
<path stroke-width="1" stroke="black" d="M 270 266 307 114"/>
<path stroke-width="1" stroke="black" d="M 270 266 271 94"/>
<path stroke-width="1" stroke="black" d="M 270 266 347 224"/>
<path stroke-width="1" stroke="black" d="M 270 266 164 186"/>
<path stroke-width="1" stroke="black" d="M 167 285 204 240"/>
<path stroke-width="1" stroke="black" d="M 204 240 301 216"/>
<path stroke-width="1" stroke="black" d="M 204 240 216 187"/>
<path stroke-width="1" stroke="black" d="M 204 240 350 183"/>
<path stroke-width="1" stroke="black" d="M 270 266 243 244"/>
<path stroke-width="1" stroke="black" d="M 308 263 270 266"/>
<path stroke-width="1" stroke="black" d="M 307 114 350 183"/>
<path stroke-width="1" stroke="black" d="M 307 114 192 137"/>
<path stroke-width="1" stroke="black" d="M 347 224 239 102"/>
<path stroke-width="1" stroke="black" d="M 347 224 192 137"/>
<path stroke-width="1" stroke="black" d="M 347 224 273 166"/>
<path stroke-width="1" stroke="black" d="M 347 224 243 244"/>
<path stroke-width="1" stroke="black" d="M 347 224 308 263"/>
<path stroke-width="1" stroke="black" d="M 347 224 270 266"/>
<path stroke-width="1" stroke="black" d="M 347 224 204 240"/>
<path stroke-width="1" stroke="black" d="M 347 224 340 133"/>
<path stroke-width="1" stroke="black" d="M 347 224 307 114"/>
<path stroke-width="1" stroke="black" d="M 347 224 271 94"/>
<path stroke-width="1" stroke="black" d="M 347 224 420 265"/>
<path stroke-width="1" stroke="black" d="M 347 224 164 186"/>
<path stroke-width="1" stroke="black" d="M 347 224 350 183"/>
<path stroke-width="1" stroke="black" d="M 20 203 164 186"/>
<path stroke-width="1" stroke="black" d="M 164 186 216 187"/>
<path stroke-width="1" stroke="black" d="M 164 186 350 183"/>
<path stroke-width="1" stroke="black" d="M 164 186 239 102"/>
<path stroke-width="1" stroke="black" d="M 164 186 192 137"/>
<path stroke-width="1" stroke="black" d="M 164 186 273 166"/>
<path stroke-width="1" stroke="black" d="M 164 186 243 244"/>
<path stroke-width="1" stroke="black" d="M 164 186 308 263"/>
<path stroke-width="1" stroke="black" d="M 164 186 270 266"/>
<path stroke-width="1" stroke="black" d="M 164 186 204 240"/>
<path stroke-width="1" stroke="black" d="M 164 186 340 133"/>
<path stroke-width="1" stroke="black" d="M 164 186 307 114"/>
<path stroke-width="1" stroke="black" d="M 164 186 271 94"/>
<path stroke-width="1" stroke="black" d="M 164 186 301 216"/>
<path stroke-width="1" stroke="black" d="M 307 114 239 102"/>
<path stroke-width="1" stroke="black" d="M 347 224 216 187"/>
<path stroke-width="1" stroke="black" d="M 420 265 347 224"/>
<path stroke-width="1" stroke="black" d="M 307 114 273 166"/>
<path stroke-width="1" stroke="black" d="M 307 114 243 244"/>
<path stroke-width="1" stroke="black" d="M 307 114 308 263"/>
<path stroke-width="1" stroke="black" d="M 307 114 270 266"/>
<path stroke-width="1" stroke="black" d="M 307 114 204 240"/>
<path stroke-width="1" stroke="black" d="M 307 114 340 133"/>
<path stroke-width="1" stroke="black" d="M 307 114 327 53"/>
<path stroke-width="1" stroke="black" d="M 307 114 271 94"/>
<path stroke-width="1" stroke="black" d="M 307 114 347 224"/>
<path stroke-width="1" stroke="black" d="M 307 114 164 186"/>
<path stroke-width="1" stroke="black" d="M 276 20 271 94"/>
<path stroke-width="1" stroke="black" d="M 271 94 301 216"/>
<path stroke-width="1" stroke="black" d="M 347 224 301 216"/>
<path stroke-width="1" stroke="black" d="M 271 94 216 187"/>
<path stroke-width="1" stroke="black" d="M 271 94 239 102"/>
<path stroke-width="1" stroke="black" d="M 271 94 192 137"/>
<path stroke-width="1" stroke="black" d="M 271 94 273 166"/>
<path stroke-width="1" stroke="black" d="M 271 94 243 244"/>
<path stroke-width="1" stroke="black" d="M 271 94 308 263"/>
<path stroke-width="1" stroke="black" d="M 271 94 270 266"/>
<path stroke-width="1" stroke="black" d="M 271 94 204 240"/>
<path stroke-width="1" stroke="black" d="M 271 94 340 133"/>
<path stroke-width="1" stroke="black" d="M 271 94 307 114"/>
<path stroke-width="1" stroke="black" d="M 271 94 276 20"/>
<path stroke-width="1" stroke="black" d="M 271 94 347 224"/>
<path stroke-width="1" stroke="black" d="M 271 94 164 186"/>
<path stroke-width="1" stroke="black" d="M 271 94 350 183"/>
<path stroke-width="1" stroke="black" d="M 308 263 324 309"/>
<path stroke-width="1" stroke="black" d="M 308 263 243 244"/>
<path stroke-width="1" stroke="black" d="M 308 263 273 166"/>
<path stroke-width="1" stroke="black" d="M 216 187 164 186"/>
<path stroke-width="1" stroke="black" d="M 390 185 350 183"/>
<path stroke-width="1" stroke="black" d="M 350 183 301 216"/>
<path stroke-width="1" stroke="black" d="M 350 183 216 187"/>
<path stroke-width="1" stroke="black" d="M 350 183 390 185"/>
<path stroke-width="1" stroke="black" d="M 350 183 239 102"/>
<path stroke-width="1" stroke="black" d="M 350 183 192 137"/>
<path stroke-width="1" stroke="black" d="M 350 183 273 166"/>
<path stroke-width="1" stroke="black" d="M 350 183 243 244"/>
<path stroke-width="1" stroke="black" d="M 350 183 308 263"/>
<path stroke-width="1" stroke="black" d="M 350 183 270 266"/>
<path stroke-width="1" stroke="black" d="M 350 183 204 240"/>
<path stroke-width="1" stroke="black" d="M 216 187 347 224"/>
<path stroke-width="1" stroke="black" d="M 350 183 340 133"/>
<path stroke-width="1" stroke="black" d="M 350 183 271 94"/>
<path stroke-width="1" stroke="black" d="M 350 183 347 224"/>
<path stroke-width="1" stroke="black" d="M 350 183 164 186"/>
<path stroke-width="1" stroke="black" d="M 233 72 239 102"/>
<path stroke-width="1" stroke="black" d="M 239 102 301 216"/>
<path stroke-width="1" stroke="black" d="M 239 102 216 187"/>
<path stroke-width="1" stroke="black" d="M 239 102 350 183"/>
<path stroke-width="1" stroke="black" d="M 239 102 233 72"/>
<path stroke-width="1" stroke="black" d="M 239 102 192 137"/>
<path stroke-width="1" stroke="black" d="M 239 102 273 166"/>
<path stroke-width="1" stroke="black" d="M 239 102 243 244"/>
<path stroke-width="1" stroke="black" d="M 239 102 308 263"/>
<path stroke-width="1" stroke="black" d="M 350 183 307 114"/>
<path stroke-width="1" stroke="black" d="M 239 102 270 266"/>
<path stroke-width="1" stroke="black" d="M 216 187 271 94"/>
<path stroke-width="1" stroke="black" d="M 216 187 340 133"/>
<path stroke-width="1" stroke="black" d="M 301 216 287 205"/>
<path stroke-width="1" stroke="black" d="M 301 216 216 187"/>
<path stroke-width="1" stroke="black" d="M 301 216 350 183"/>
<path stroke-width="1" stroke="black" d="M 301 216 239 102"/>
<path stroke-width="1" stroke="black" d="M 301 216 192 137"/>
<path stroke-width="1" stroke="black" d="M 301 216 273 166"/>
<path stroke-width="1" stroke="black" d="M 301 216 243 244"/>
<path stroke-width="1" stroke="black" d="M 301 216 308 263"/>
<path stroke-width="1" stroke="black" d="M 301 216 270 266"/>
<path stroke-width="1" stroke="black" d="M 301 216 204 240"/>
<path stroke-width="1" stroke="black" d="M 301 216 340 133"/>
<path stroke-width="1" stroke="black" d="M 301 216 307 114"/>
<path stroke-width="1" stroke="black" d="M 216 187 307 114"/>
<path stroke-width="1" stroke="black" d="M 301 216 271 94"/>
<path stroke-width="1" stroke="black" d="M 301 216 164 186"/>
<path stroke-width="1" stroke="black" d="M 188 198 216 187"/>
<path stroke-width="1" stroke="black" d="M 216 187 301 216"/>
<path stroke-width="1" stroke="black" d="M 216 187 188 198"/>
<path stroke-width="1" stroke="black" d="M 216 187 350 183"/>
<path stroke-width="1" stroke="black" d="M 216 187 239 102"/>
<path stroke-width="1" stroke="black" d="M 216 187 192 137"/>
<path stroke-width="1" stroke="black" d="M 216 187 273 166"/>
<path stroke-width="1" stroke="black" d="M 216 187 243 244"/>
<path stroke-width="1" stroke="black" d="M 216 187 308 263"/>
<path stroke-width="1" stroke="black" d="M 216 187 270 266"/>
<path stroke-width="1" stroke="black" d="M 216 187 204 240"/>
<path stroke-width="1" stroke="black" d="M 301 216 347 224"/>
<path stroke-width="1" stroke="black" d="M 239 102 204 240"/>
<path stroke-width="1" stroke="black" d="M 239 102 340 133"/>
<path stroke-width="1" stroke="black" d="M 239 102 307 114"/>
<path stroke-width="1" stroke="black" d="M 273 166 307 114"/>
<path stroke-width="1" stroke="black" d="M 273 166 271 94"/>
<path stroke-width="1" stroke="black" d="M 273 166 347 224"/>
<path stroke-width="1" stroke="black" d="M 273 166 164 186"/>
<path stroke-width="1" stroke="black" d="M 228 288 243 244"/>
<path stroke-width="1" stroke="black" d="M 243 244 301 216"/>
<path stroke-width="1" stroke="black" d="M 243 244 216 187"/>
<path stroke-width="1" stroke="black" d="M 243 244 350 183"/>
<path stroke-width="1" stroke="black" d="M 243 244 239 102"/>
<path stroke-width="1" stroke="black" d="M 243 244 192 137"/>
<path stroke-width="1" stroke="black" d="M 243 244 273 166"/>
<path stroke-width="1" stroke="black" d="M 243 244 228 288"/>
<path stroke-width="1" stroke="black" d="M 273 166 340 133"/>
<path stroke-width="1" stroke="black" d="M 243 244 308 263"/>
<path stroke-width="1" stroke="black" d="M 243 244 204 240"/>
<path stroke-width="1" stroke="black" d="M 243 244 340 133"/>
<path stroke-width="1" stroke="black" d="M 243 244 307 114"/>
<path stroke-width="1" stroke="black" d="M 243 244 271 94"/>
<path stroke-width="1" stroke="black" d="M 243 244 347 224"/>
<path stroke-width="1" stroke="black" d="M 243 244 164 186"/>
<path stroke-width="1" stroke="black" d="M 324 309 308 263"/>
<path stroke-width="1" stroke="black" d="M 308 263 301 216"/>
<path stroke-width="1" stroke="black" d="M 308 263 216 187"/>
<path stroke-width="1" stroke="black" d="M 308 263 350 183"/>
<path stroke-width="1" stroke="black" d="M 308 263 239 102"/>
<path stroke-width="1" stroke="black" d="M 308 263 192 137"/>
<path stroke-width="1" stroke="black" d="M 243 244 270 266"/>
<path stroke-width="1" stroke="black" d="M 273 166 204 240"/>
<path stroke-width="1" stroke="black" d="M 273 166 270 266"/>
<path stroke-width="1" stroke="black" d="M 273 166 308 263"/>
<path stroke-width="1" stroke="black" d="M 239 102 271 94"/>
<path stroke-width="1" stroke="black" d="M 239 102 347 224"/>
<path stroke-width="1" stroke="black" d="M 239 102 164 186"/>
<path stroke-width="1" stroke="black" d="M 166 115 192 137"/>
<path stroke-width="1" stroke="black" d="M 192 137 301 216"/>
<path stroke-width="1" stroke="black" d="M 192 137 216 187"/>
<path stroke-width="1" stroke="black" d="M 192 137 350 183"/>
<path stroke-width="1" stroke="black" d="M 192 137 239 102"/>
<path stroke-width="1" stroke="black" d="M 192 137 166 115"/>
<path stroke-width="1" stroke="black" d="M 192 137 273 166"/>
<path stroke-width="1" stroke="black" d="M 192 137 243 244"/>
<path stroke-width="1" stroke="black" d="M 192 137 308 263"/>
<path stroke-width="1" stroke="black" d="M 192 137 270 266"/>
<path stroke-width="1" stroke="black" d="M 192 137 204 240"/>
<path stroke-width="1" stroke="black" d="M 192 137 340 133"/>
<path stroke-width="1" stroke="black" d="M 192 137 307 114"/>
<path stroke-width="1" stroke="black" d="M 192 137 271 94"/>
<path stroke-width="1" stroke="black" d="M 192 137 347 224"/>
<path stroke-width="1" stroke="black" d="M 192 137 164 186"/>
<path stroke-width="1" stroke="black" d="M 271 139 273 166"/>
<path stroke-width="1" stroke="black" d="M 273 166 301 216"/>
<path stroke-width="1" stroke="black" d="M 273 166 216 187"/>
<path stroke-width="1" stroke="black" d="M 273 166 350 183"/>
<path stroke-width="1" stroke="black" d="M 273 166 239 102"/>
<path stroke-width="1" stroke="black" d="M 273 166 192 137"/>
<path stroke-width="1" stroke="black" d="M 273 166 271 139"/>
<path stroke-width="1" stroke="black" d="M 273 166 243 244"/>
<path stroke-width="1" stroke="black" d="M 164 186 347 224"/>
<path stroke-width="1" stroke="black" d="M 164 186 20 203"/>
<circle cx="287" cy="205" r="20.0" style="fill:red;stroke:black;stroke-width:1.0"/>
<circle cx="301" cy="216" r="20.0" style="fill:red;stroke:black;stroke-width:1.0"/>
<circle cx="188" cy="198" r="20.0" style="fill:green;stroke:black;stroke-width:1.0"/>
<circle cx="216" cy="187" r="20.0" style="fill:green;stroke:black;stroke-width:1.0"/>
<circle cx="390" cy="185" r="20.0" style="fill:orange;stroke:black;stroke-width:1.0"/>
<circle cx="350" cy="183" r="20.0" style="fill:orange;stroke:black;stroke-width:1.0"/>
<circle cx="233" cy="72" r="20.0" style="fill:purple;stroke:black;stroke-width:1.0"/>
<circle cx="239" cy="102" r="20.0" style="fill:purple;stroke:black;stroke-width:1.0"/>
<circle cx="166" cy="115" r="20.0" style="fill:yellow;stroke:black;stroke-width:1.0"/>
<circle cx="192" cy="137" r="20.0" style="fill:yellow;stroke:black;stroke-width:1.0"/>
<circle cx="271" cy="139" r="20.0" style="fill:fuchsia;stroke:black;stroke-width:1.0"/>
<circle cx="273" cy="166" r="20.0" style="fill:fuchsia;stroke:black;stroke-width:1.0"/>
<circle cx="228" cy="288" r="20.0" style="fill:olive;stroke:black;stroke-width:1.0"/>
<circle cx="243" cy="244" r="20.0" style="fill:olive;stroke:black;stroke-width:1.0"/>
<circle cx="324" cy="309" r="20.0" style="fill:aqua;stroke:black;stroke-width:1.0"/>
<circle cx="308" cy="263" r="20.0" style="fill:aqua;stroke:black;stroke-width:1.0"/>
<circle cx="266" cy="320" r="20.0" style="fill:brown;stroke:black;stroke-width:1.0"/>
<circle cx="270" cy="266" r="20.0" style="fill:brown;stroke:black;stroke-width:1.0"/>
<circle cx="167" cy="285" r="20.0" style="fill:blue;stroke:black;stroke-width:1.0"/>
<circle cx="204" cy="240" r="20.0" style="fill:blue;stroke:black;stroke-width:1.0"/>
<circle cx="390" cy="97" r="20.0" style="fill:red;stroke:black;stroke-width:1.0"/>
<circle cx="340" cy="133" r="20.0" style="fill:red;stroke:black;stroke-width:1.0"/>
<circle cx="327" cy="53" r="20.0" style="fill:orange;stroke:black;stroke-width:1.0"/>
<circle cx="307" cy="114" r="20.0" style="fill:orange;stroke:black;stroke-width:1.0"/>
<circle cx="276" cy="20" r="20.0" style="fill:blue;stroke:black;stroke-width:1.0"/>
<circle cx="271" cy="94" r="20.0" style="fill:blue;stroke:black;stroke-width:1.0"/>
<circle cx="420" cy="265" r="20.0" style="fill:green;stroke:black;stroke-width:1.0"/>
<circle cx="347" cy="224" r="20.0" style="fill:green;stroke:black;stroke-width:1.0"/>
<circle cx="20" cy="203" r="20.0" style="fill:blue;stroke:black;stroke-width:1.0"/>
<circle cx="164" cy="186" r="20.0" style="fill:blue;stroke:black;stroke-width:1.0"/>
</svg>
