<svg width="440" height="340" xmlns="http://www.w3.org/2000/svg">
<path stroke-width="20.0" stroke="black" d="M 347 126 317 153"/>
<path stroke-width="0.5" stroke="black" d="M 124 236 345 183"/>
<path stroke-width="0.5" stroke="black" d="M 124 236 217 208"/>
<path stroke-width="9.423728813559322" stroke="black" d="M 124 236 35 265"/>
<path stroke-width="0.5" stroke="black" d="M 124 236 228 147"/>
<path stroke-width="0.5" stroke="black" d="M 124 236 190 268"/>
<path stroke-width="0.5" stroke="black" d="M 124 236 320 267"/>
<path stroke-width="0.5" stroke="black" d="M 124 236 129 170"/>
<path stroke-width="0.5" stroke="black" d="M 124 236 260 138"/>
<path stroke-width="8.101694915254237" stroke="black" d="M 211 96 228 147"/>
<path stroke-width="0.5" stroke="black" d="M 228 147 317 153"/>
<path stroke-width="0.5" stroke="black" d="M 228 147 234 264"/>
<path stroke-width="0.5" stroke="black" d="M 228 147 363 220"/>
<path stroke-width="0.5" stroke="black" d="M 124 236 142 188"/>
<path stroke-width="0.9957627118644068" stroke="black" d="M 228 147 342 242"/>
<path stroke-width="0.5" stroke="black" d="M 228 147 137 228"/>
<path stroke-width="0.5" stroke="black" d="M 228 147 142 188"/>
<path stroke-width="0.5" stroke="black" d="M 228 147 345 183"/>
<path stroke-width="0.5" stroke="black" d="M 228 147 217 208"/>
<path stroke-width="0.5" stroke="black" d="M 228 147 124 236"/>
<path stroke-width="8.101694915254237" stroke="black" d="M 228 147 211 96"/>
<path stroke-width="0.5" stroke="black" d="M 228 147 190 268"/>
<path stroke-width="0.5" stroke="black" d="M 228 147 320 267"/>
<path stroke-width="0.5" stroke="black" d="M 228 147 129 170"/>
<path stroke-width="0.5" stroke="black" d="M 228 147 260 138"/>
<path stroke-width="6.779661016949152" stroke="black" d="M 134 320 190 268"/>
<path stroke-width="0.5" stroke="black" d="M 190 268 317 153"/>
<path stroke-width="0.5" stroke="black" d="M 228 147 160 149"/>
<path stroke-width="0.5" stroke="black" d="M 190 268 234 264"/>
<path stroke-width="0.5" stroke="black" d="M 124 236 137 228"/>
<path stroke-width="0.5" stroke="black" d="M 124 236 342 242"/>
<path stroke-width="0.5" stroke="black" d="M 345 183 124 236"/>
<path stroke-width="0.5" stroke="black" d="M 345 183 228 147"/>
<path stroke-width="0.5" stroke="black" d="M 345 183 190 268"/>
<path stroke-width="0.5" stroke="black" d="M 345 183 320 267"/>
<path stroke-width="0.5" stroke="black" d="M 345 183 129 170"/>
<path stroke-width="0.5" stroke="black" d="M 345 183 260 138"/>
<path stroke-width="10.745762711864407" stroke="black" d="M 260 207 217 208"/>
<path stroke-width="0.5" stroke="black" d="M 217 208 317 153"/>
<path stroke-width="0.5" stroke="black" d="M 217 208 234 264"/>
<path stroke-width="0.5" stroke="black" d="M 217 208 363 220"/>
<path stroke-width="0.5" stroke="black" d="M 217 208 342 242"/>
<path stroke-width="0.5" stroke="black" d="M 217 208 160 149"/>
<path stroke-width="0.9957627118644068" stroke="black" d="M 124 236 160 149"/>
<path stroke-width="0.9957627118644068" stroke="black" d="M 217 208 137 228"/>
<path stroke-width="0.5" stroke="black" d="M 217 208 345 183"/>
<path stroke-width="10.745762711864407" stroke="black" d="M 217 208 260 207"/>
<path stroke-width="0.5" stroke="black" d="M 217 208 124 236"/>
<path stroke-width="0.5" stroke="black" d="M 217 208 228 147"/>
<path stroke-width="0.5" stroke="black" d="M 217 208 190 268"/>
<path stroke-width="0.5" stroke="black" d="M 217 208 320 267"/>
<path stroke-width="0.5" stroke="black" d="M 217 208 129 170"/>
<path stroke-width="0.5" stroke="black" d="M 217 208 260 138"/>
<path stroke-width="9.423728813559322" stroke="black" d="M 35 265 124 236"/>
<path stroke-width="0.5" stroke="black" d="M 124 236 317 153"/>
<path stroke-width="0.5" stroke="black" d="M 124 236 234 264"/>
<path stroke-width="0.5" stroke="black" d="M 124 236 363 220"/>
<path stroke-width="0.5" stroke="black" d="M 217 208 142 188"/>
<path stroke-width="0.5" stroke="black" d="M 345 183 217 208"/>
<path stroke-width="0.9957627118644068" stroke="black" d="M 190 268 363 220"/>
<path stroke-width="0.5" stroke="black" d="M 190 268 160 149"/>
<path stroke-width="0.5" stroke="black" d="M 129 170 342 242"/>
<path stroke-width="0.5" stroke="black" d="M 129 170 160 149"/>
<path stroke-width="0.5" stroke="black" d="M 129 170 137 228"/>
<path stroke-width="0.5" stroke="black" d="M 129 170 142 188"/>
<path stroke-width="0.5" stroke="black" d="M 129 170 345 183"/>
<path stroke-width="0.5" stroke="black" d="M 129 170 217 208"/>
<path stroke-width="0.5" stroke="black" d="M 129 170 124 236"/>
<path stroke-width="0.5" stroke="black" d="M 129 170 228 147"/>
<path stroke-width="0.5" stroke="black" d="M 129 170 190 268"/>
<path stroke-width="0.5" stroke="black" d="M 129 170 320 267"/>
<path stroke-width="4.796610169491525" stroke="black" d="M 129 170 20 143"/>
<path stroke-width="0.5" stroke="black" d="M 129 170 260 138"/>
<path stroke-width="0.5" stroke="black" d="M 129 170 363 220"/>
<path stroke-width="1.4915254237288136" stroke="black" d="M 289 20 260 138"/>
<path stroke-width="0.5" stroke="black" d="M 260 138 234 264"/>
<path stroke-width="0.5" stroke="black" d="M 260 138 363 220"/>
<path stroke-width="0.5" stroke="black" d="M 260 138 342 242"/>
<path stroke-width="0.5" stroke="black" d="M 260 138 160 149"/>
<path stroke-width="0.5" stroke="black" d="M 260 138 137 228"/>
<path stroke-width="0.5" stroke="black" d="M 260 138 142 188"/>
<path stroke-width="0.5" stroke="black" d="M 260 138 345 183"/>
<path stroke-width="0.5" stroke="black" d="M 260 138 217 208"/>
<path stroke-width="0.5" stroke="black" d="M 260 138 124 236"/>
<path stroke-width="0.5" stroke="black" d="M 260 138 228 147"/>
<path stroke-width="0.5" stroke="black" d="M 260 138 190 268"/>
<path stroke-width="0.5" stroke="black" d="M 260 138 320 267"/>
<path stroke-width="0.5" stroke="black" d="M 260 138 317 153"/>
<path stroke-width="0.5" stroke="black" d="M 190 268 342 242"/>
<path stroke-width="0.5" stroke="black" d="M 129 170 234 264"/>
<path stroke-width="4.796610169491525" stroke="black" d="M 20 143 129 170"/>
<path stroke-width="0.5" stroke="black" d="M 190 268 137 228"/>
<path stroke-width="0.5" stroke="black" d="M 190 268 142 188"/>
<path stroke-width="0.5" stroke="black" d="M 190 268 345 183"/>
<path stroke-width="0.5" stroke="black" d="M 190 268 217 208"/>
<path stroke-width="0.5" stroke="black" d="M 190 268 124 236"/>
<path stroke-width="0.5" stroke="black" d="M 190 268 228 147"/>
<path stroke-width="6.779661016949152" stroke="black" d="M 190 268 134 320"/>
<path stroke-width="0.5" stroke="black" d="M 190 268 320 267"/>
<path stroke-width="0.5" stroke="black" d="M 190 268 129 170"/>
<path stroke-width="0.5" stroke="black" d="M 190 268 260 138"/>
<path stroke-width="5.4576271186440675" stroke="black" d="M 375 316 320 267"/>
<path stroke-width="0.5" stroke="black" d="M 320 267 317 153"/>
<path stroke-width="0.9957627118644068" stroke="black" d="M 129 170 317 153"/>
<path stroke-width="0.9957627118644068" stroke="black" d="M 320 267 234 264"/>
<path stroke-width="0.5" stroke="black" d="M 320 267 342 242"/>
<path stroke-width="0.5" stroke="black" d="M 320 267 160 149"/>
<path stroke-width="0.5" stroke="black" d="M 320 267 137 228"/>
<path stroke-width="0.5" stroke="black" d="M 320 267 142 188"/>
<path stroke-width="0.5" stroke="black" d="M 320 267 345 183"/>
<path stroke-width="0.5" stroke="black" d="M 320 267 217 208"/>
<path stroke-width="0.5" stroke="black" d="M 320 267 124 236"/>
<path stroke-width="0.5" stroke="black" d="M 320 267 228 147"/>
<path stroke-width="0.5" stroke="black" d="M 320 267 190 268"/>
<path stroke-width="5.4576271186440675" stroke="black" d="M 320 267 375 316"/>
<path stroke-width="0.5" stroke="black" d="M 320 267 129 170"/>
<path stroke-width="0.5" stroke="black" d="M 320 267 260 138"/>
<path stroke-width="0.5" stroke="black" d="M 320 267 363 220"/>
<path stroke-width="12.067796610169491" stroke="black" d="M 345 183 420 170"/>
<path stroke-width="0.9957627118644068" stroke="black" d="M 345 183 142 188"/>
<path stroke-width="0.5" stroke="black" d="M 345 183 137 228"/>
<path stroke-width="0.5" stroke="black" d="M 234 264 260 138"/>
<path stroke-width="18.016949152542374" stroke="black" d="M 383 229 363 220"/>
<path stroke-width="0.5" stroke="black" d="M 363 220 317 153"/>
<path stroke-width="0.5" stroke="black" d="M 363 220 234 264"/>
<path stroke-width="18.016949152542374" stroke="black" d="M 363 220 383 229"/>
<path stroke-width="0.5" stroke="black" d="M 363 220 342 242"/>
<path stroke-width="0.5" stroke="black" d="M 363 220 160 149"/>
<path stroke-width="0.5" stroke="black" d="M 363 220 137 228"/>
<path stroke-width="0.5" stroke="black" d="M 363 220 142 188"/>
<path stroke-width="0.5" stroke="black" d="M 363 220 345 183"/>
<path stroke-width="0.5" stroke="black" d="M 363 220 217 208"/>
<path stroke-width="0.5" stroke="black" d="M 363 220 124 236"/>
<path stroke-width="0.5" stroke="black" d="M 234 264 129 170"/>
<path stroke-width="0.5" stroke="black" d="M 363 220 228 147"/>
<path stroke-width="0.5" stroke="black" d="M 363 220 320 267"/>
<path stroke-width="0.5" stroke="black" d="M 363 220 129 170"/>
<path stroke-width="0.5" stroke="black" d="M 363 220 260 138"/>
<path stroke-width="16.694915254237287" stroke="black" d="M 347 262 342 242"/>
<path stroke-width="0.5" stroke="black" d="M 342 242 317 153"/>
<path stroke-width="0.5" stroke="black" d="M 342 242 234 264"/>
<path stroke-width="0.5" stroke="black" d="M 342 242 363 220"/>
<path stroke-width="16.694915254237287" stroke="black" d="M 342 242 347 262"/>
<path stroke-width="0.5" stroke="black" d="M 342 242 160 149"/>
<path stroke-width="0.5" stroke="black" d="M 342 242 137 228"/>
<path stroke-width="0.5" stroke="black" d="M 342 242 142 188"/>
<path stroke-width="0.5" stroke="black" d="M 342 242 345 183"/>
<path stroke-width="0.9957627118644068" stroke="black" d="M 363 220 190 268"/>
<path stroke-width="0.5" stroke="black" d="M 342 242 217 208"/>
<path stroke-width="0.9957627118644068" stroke="black" d="M 234 264 320 267"/>
<path stroke-width="0.5" stroke="black" d="M 234 264 228 147"/>
<path stroke-width="20.0" stroke="black" d="M 317 153 347 126"/>
<path stroke-width="0.5" stroke="black" d="M 317 153 234 264"/>
<path stroke-width="0.5" stroke="black" d="M 317 153 363 220"/>
<path stroke-width="0.5" stroke="black" d="M 317 153 342 242"/>
<path stroke-width="0.5" stroke="black" d="M 317 153 160 149"/>
<path stroke-width="0.5" stroke="black" d="M 317 153 137 228"/>
<path stroke-width="0.5" stroke="black" d="M 317 153 142 188"/>
<path stroke-width="0.5" stroke="black" d="M 317 153 345 183"/>
<path stroke-width="0.5" stroke="black" d="M 317 153 217 208"/>
<path stroke-width="0.5" stroke="black" d="M 317 153 124 236"/>
<path stroke-width="0.5" stroke="black" d="M 317 153 228 147"/>
<path stroke-width="0.5" stroke="black" d="M 317 153 190 268"/>
<path stroke-width="0.5" stroke="black" d="M 234 264 190 268"/>
<path stroke-width="0.5" stroke="black" d="M 317 153 320 267"/>
<path stroke-width="0.5" stroke="black" d="M 317 153 260 138"/>
<path stroke-width="19.338983050847457" stroke="black" d="M 256 312 234 264"/>
<path stroke-width="0.5" stroke="black" d="M 234 264 317 153"/>
<path stroke-width="19.338983050847457" stroke="black" d="M 234 264 256 312"/>
<path stroke-width="0.5" stroke="black" d="M 234 264 363 220"/>
<path stroke-width="0.5" stroke="black" d="M 234 264 342 242"/>
<path stroke-width="0.5" stroke="black" d="M 234 264 160 149"/>
<path stroke-width="0.5" stroke="black" d="M 234 264 137 228"/>
<path stroke-width="0.5" stroke="black" d="M 234 264 142 188"/>
<path stroke-width="0.5" stroke="black" d="M 234 264 345 183"/>
<path stroke-width="0.5" stroke="black" d="M 234 264 217 208"/>
<path stroke-width="0.5" stroke="black" d="M 234 264 124 236"/>
<path stroke-width="0.9957627118644068" stroke="black" d="M 317 153 129 170"/>
<path stroke-width="0.5" stroke="black" d="M 342 242 124 236"/>
<path stroke-width="0.9957627118644068" stroke="black" d="M 342 242 228 147"/>
<path stroke-width="0.5" stroke="black" d="M 342 242 190 268"/>
<path stroke-width="0.5" stroke="black" d="M 137 228 190 268"/>
<path stroke-width="0.5" stroke="black" d="M 137 228 320 267"/>
<path stroke-width="0.5" stroke="black" d="M 137 228 129 170"/>
<path stroke-width="0.5" stroke="black" d="M 137 228 260 138"/>
<path stroke-width="12.728813559322035" stroke="black" d="M 92 180 142 188"/>
<path stroke-width="0.5" stroke="black" d="M 142 188 317 153"/>
<path stroke-width="0.5" stroke="black" d="M 142 188 234 264"/>
<path stroke-width="0.5" stroke="black" d="M 142 188 363 220"/>
<path stroke-width="0.5" stroke="black" d="M 142 188 342 242"/>
<path stroke-width="0.5" stroke="black" d="M 142 188 160 149"/>
<path stroke-width="0.5" stroke="black" d="M 142 188 137 228"/>
<path stroke-width="12.728813559322035" stroke="black" d="M 142 188 92 180"/>
<path stroke-width="0.5" stroke="black" d="M 137 228 228 147"/>
<path stroke-width="0.9957627118644068" stroke="black" d="M 142 188 345 183"/>
<path stroke-width="0.5" stroke="black" d="M 142 188 124 236"/>
<path stroke-width="0.5" stroke="black" d="M 142 188 228 147"/>
<path stroke-width="0.5" stroke="black" d="M 142 188 190 268"/>
<path stroke-width="0.5" stroke="black" d="M 142 188 320 267"/>
<path stroke-width="0.5" stroke="black" d="M 142 188 129 170"/>
<path stroke-width="0.5" stroke="black" d="M 142 188 260 138"/>
<path stroke-width="12.067796610169491" stroke="black" d="M 420 170 345 183"/>
<path stroke-width="0.5" stroke="black" d="M 345 183 317 153"/>
<path stroke-width="0.5" stroke="black" d="M 345 183 234 264"/>
<path stroke-width="0.5" stroke="black" d="M 345 183 363 220"/>
<path stroke-width="0.5" stroke="black" d="M 345 183 342 242"/>
<path stroke-width="0.5" stroke="black" d="M 345 183 160 149"/>
<path stroke-width="0.5" stroke="black" d="M 142 188 217 208"/>
<path stroke-width="0.5" stroke="black" d="M 137 228 124 236"/>
<path stroke-width="0.9957627118644068" stroke="black" d="M 137 228 217 208"/>
<path stroke-width="0.5" stroke="black" d="M 137 228 345 183"/>
<path stroke-width="0.5" stroke="black" d="M 342 242 320 267"/>
<path stroke-width="0.5" stroke="black" d="M 342 242 129 170"/>
<path stroke-width="0.5" stroke="black" d="M 342 242 260 138"/>
<path stroke-width="15.372881355932204" stroke="black" d="M 114 112 160 149"/>
<path stroke-width="0.5" stroke="black" d="M 160 149 317 153"/>
<path stroke-width="0.5" stroke="black" d="M 160 149 234 264"/>
<path stroke-width="0.5" stroke="black" d="M 160 149 363 220"/>
<path stroke-width="0.5" stroke="black" d="M 160 149 342 242"/>
<path stroke-width="15.372881355932204" stroke="black" d="M 160 149 114 112"/>
<path stroke-width="0.5" stroke="black" d="M 160 149 137 228"/>
<path stroke-width="0.5" stroke="black" d="M 160 149 142 188"/>
<path stroke-width="0.5" stroke="black" d="M 160 149 345 183"/>
<path stroke-width="0.5" stroke="black" d="M 160 149 217 208"/>
<path stroke-width="0.9957627118644068" stroke="black" d="M 160 149 124 236"/>
<path stroke-width="0.5" stroke="black" d="M 160 149 228 147"/>
<path stroke-width="0.5" stroke="black" d="M 160 149 190 268"/>
<path stroke-width="0.5" stroke="black" d="M 160 149 320 267"/>
<path stroke-width="0.5" stroke="black" d="M 160 149 129 170"/>
<path stroke-width="0.5" stroke="black" d="M 160 149 260 138"/>
<path stroke-width="14.05084745762712" stroke="black" d="M 124 240 137 228"/>
<path stroke-width="0.5" stroke="black" d="M 137 228 317 153"/>
<path stroke-width="0.5" stroke="black" d="M 137 228 234 264"/>
<path stroke-width="0.5" stroke="black" d="M 137 228 363 220"/>
<path stroke-width="0.5" stroke="black" d="M 137 228 342 242"/>
<path stroke-width="0.5" stroke="black" d="M 137 228 160 149"/>
<path stroke-width="14.05084745762712" stroke="black" d="M 137 228 124 240"/>
<path stroke-width="0.5" stroke="black" d="M 137 228 142 188"/>
<path stroke-width="0.5" stroke="black" d="M 260 138 129 170"/>
<path stroke-width="1.4915254237288136" stroke="black" d="M 260 138 289 20"/>
<circle cx="347" cy="126" r="7.0" style="fill:gray;stroke:black;stroke-width:1.0"/>
<circle cx="317" cy="153" r="7.0" style="fill:gray;stroke:black;stroke-width:1.0"/>
<circle cx="256" cy="312" r="7.0" style="fill:gray;stroke:black;stroke-width:1.0"/>
<circle cx="234" cy="264" r="7.0" style="fill:gray;stroke:black;stroke-width:1.0"/>
<circle cx="383" cy="229" r="7.0" style="fill:gray;stroke:black;stroke-width:1.0"/>
<circle cx="363" cy="220" r="7.0" style="fill:gray;stroke:black;stroke-width:1.0"/>
<circle cx="347" cy="262" r="7.0" style="fill:gray;stroke:black;stroke-width:1.0"/>
<circle cx="342" cy="242" r="7.0" style="fill:gray;stroke:black;stroke-width:1.0"/>
<circle cx="114" cy="112" r="7.0" style="fill:gray;stroke:black;stroke-width:1.0"/>
<circle cx="160" cy="149" r="7.0" style="fill:gray;stroke:black;stroke-width:1.0"/>
<circle cx="124" cy="240" r="7.0" style="fill:gray;stroke:black;stroke-width:1.0"/>
<circle cx="137" cy="228" r="7.0" style="fill:gray;stroke:black;stroke-width:1.0"/>
<circle cx="92" cy="180" r="7.0" style="fill:gray;stroke:black;stroke-width:1.0"/>
<circle cx="142" cy="188" r="7.0" style="fill:gray;stroke:black;stroke-width:1.0"/>
<circle cx="420" cy="170" r="7.0" style="fill:gray;stroke:black;stroke-width:1.0"/>
<circle cx="345" cy="183" r="7.0" style="fill:gray;stroke:black;stroke-width:1.0"/>
<circle cx="260" cy="207" r="7.0" style="fill:gray;stroke:black;stroke-width:1.0"/>
<circle cx="217" cy="208" r="7.0" style="fill:gray;stroke:black;stroke-width:1.0"/>
<circle cx="35" cy="265" r="7.0" style="fill:gray;stroke:black;stroke-width:1.0"/>
<circle cx="124" cy="236" r="7.0" style="fill:gray;stroke:black;stroke-width:1.0"/>
<circle cx="211" cy="96" r="7.0" style="fill:gray;stroke:black;stroke-width:1.0"/>
<circle cx="228" cy="147" r="7.0" style="fill:gray;stroke:black;stroke-width:1.0"/>
<circle cx="134" cy="320" r="7.0" style="fill:gray;stroke:black;stroke-width:1.0"/>
<circle cx="190" cy="268" r="7.0" style="fill:gray;stroke:black;stroke-width:1.0"/>
<circle cx="375" cy="316" r="7.0" style="fill:gray;stroke:black;stroke-width:1.0"/>
<circle cx="320" cy="267" r="7.0" style="fill:gray;stroke:black;stroke-width:1.0"/>
<circle cx="20" cy="143" r="7.0" style="fill:gray;stroke:black;stroke-width:1.0"/>
<circle cx="129" cy="170" r="7.0" style="fill:gray;stroke:black;stroke-width:1.0"/>
<circle cx="289" cy="20" r="7.0" style="fill:gray;stroke:black;stroke-width:1.0"/>
<circle cx="260" cy="138" r="7.0" style="fill:gray;stroke:black;stroke-width:1.0"/>
</svg>
