<svg width="440" height="340" xmlns="http://www.w3.org/2000/svg">
<path stroke-width="20.0" stroke="black" d="M 278 189 237 179"/>
<path stroke-width="0.5" stroke="black" d="M 82 207 207 165"/>
<path stroke-width="0.5" stroke="black" d="M 82 207 146 79"/>
<path stroke-width="9.423728813559322" stroke="black" d="M 82 207 20 237"/>
<path stroke-width="0.5" stroke="black" d="M 82 207 249 132"/>
<path stroke-width="0.5" stroke="black" d="M 82 207 142 209"/>
<path stroke-width="0.5" stroke="black" d="M 82 207 104 77"/>
<path stroke-width="0.5" stroke="black" d="M 82 207 184 225"/>
<path stroke-width="0.5" stroke="black" d="M 82 207 252 220"/>
<path stroke-width="8.101694915254237" stroke="black" d="M 313 125 249 132"/>
<path stroke-width="0.5" stroke="black" d="M 249 132 237 179"/>
<path stroke-width="0.5" stroke="black" d="M 249 132 104 103"/>
<path stroke-width="0.5" stroke="black" d="M 249 132 70 146"/>
<path stroke-width="0.5" stroke="black" d="M 82 207 123 134"/>
<path stroke-width="0.9957627118644068" stroke="black" d="M 249 132 144 154"/>
<path stroke-width="0.5" stroke="black" d="M 249 132 225 95"/>
<path stroke-width="0.5" stroke="black" d="M 249 132 123 134"/>
<path stroke-width="0.5" stroke="black" d="M 249 132 207 165"/>
<path stroke-width="0.5" stroke="black" d="M 249 132 146 79"/>
<path stroke-width="0.5" stroke="black" d="M 249 132 82 207"/>
<path stroke-width="8.101694915254237" stroke="black" d="M 249 132 313 125"/>
<path stroke-width="0.5" stroke="black" d="M 249 132 142 209"/>
<path stroke-width="0.5" stroke="black" d="M 249 132 104 77"/>
<path stroke-width="0.5" stroke="black" d="M 249 132 184 225"/>
<path stroke-width="0.5" stroke="black" d="M 249 132 252 220"/>
<path stroke-width="6.779661016949152" stroke="black" d="M 133 265 142 209"/>
<path stroke-width="0.5" stroke="black" d="M 142 209 237 179"/>
<path stroke-width="0.5" stroke="black" d="M 249 132 82 175"/>
<path stroke-width="0.5" stroke="black" d="M 142 209 104 103"/>
<path stroke-width="0.5" stroke="black" d="M 82 207 225 95"/>
<path stroke-width="0.5" stroke="black" d="M 82 207 144 154"/>
<path stroke-width="0.5" stroke="black" d="M 207 165 82 207"/>
<path stroke-width="0.5" stroke="black" d="M 207 165 249 132"/>
<path stroke-width="0.5" stroke="black" d="M 207 165 142 209"/>
<path stroke-width="0.5" stroke="black" d="M 207 165 104 77"/>
<path stroke-width="0.5" stroke="black" d="M 207 165 184 225"/>
<path stroke-width="0.5" stroke="black" d="M 207 165 252 220"/>
<path stroke-width="10.745762711864407" stroke="black" d="M 122 34 146 79"/>
<path stroke-width="0.5" stroke="black" d="M 146 79 237 179"/>
<path stroke-width="0.5" stroke="black" d="M 146 79 104 103"/>
<path stroke-width="0.5" stroke="black" d="M 146 79 70 146"/>
<path stroke-width="0.5" stroke="black" d="M 146 79 144 154"/>
<path stroke-width="0.5" stroke="black" d="M 146 79 82 175"/>
<path stroke-width="0.9957627118644068" stroke="black" d="M 82 207 82 175"/>
<path stroke-width="0.9957627118644068" stroke="black" d="M 146 79 225 95"/>
<path stroke-width="0.5" stroke="black" d="M 146 79 207 165"/>
<path stroke-width="10.745762711864407" stroke="black" d="M 146 79 122 34"/>
<path stroke-width="0.5" stroke="black" d="M 146 79 82 207"/>
<path stroke-width="0.5" stroke="black" d="M 146 79 249 132"/>
<path stroke-width="0.5" stroke="black" d="M 146 79 142 209"/>
<path stroke-width="0.5" stroke="black" d="M 146 79 104 77"/>
<path stroke-width="0.5" stroke="black" d="M 146 79 184 225"/>
<path stroke-width="0.5" stroke="black" d="M 146 79 252 220"/>
<path stroke-width="9.423728813559322" stroke="black" d="M 20 237 82 207"/>
<path stroke-width="0.5" stroke="black" d="M 82 207 237 179"/>
<path stroke-width="0.5" stroke="black" d="M 82 207 104 103"/>
<path stroke-width="0.5" stroke="black" d="M 82 207 70 146"/>
<path stroke-width="0.5" stroke="black" d="M 146 79 123 134"/>
<path stroke-width="0.5" stroke="black" d="M 207 165 146 79"/>
<path stroke-width="0.9957627118644068" stroke="black" d="M 142 209 70 146"/>
<path stroke-width="0.5" stroke="black" d="M 142 209 82 175"/>
<path stroke-width="0.5" stroke="black" d="M 184 225 144 154"/>
<path stroke-width="0.5" stroke="black" d="M 184 225 82 175"/>
<path stroke-width="0.5" stroke="black" d="M 184 225 225 95"/>
<path stroke-width="0.5" stroke="black" d="M 184 225 123 134"/>
<path stroke-width="0.5" stroke="black" d="M 184 225 207 165"/>
<path stroke-width="0.5" stroke="black" d="M 184 225 146 79"/>
<path stroke-width="0.5" stroke="black" d="M 184 225 82 207"/>
<path stroke-width="0.5" stroke="black" d="M 184 225 249 132"/>
<path stroke-width="0.5" stroke="black" d="M 184 225 142 209"/>
<path stroke-width="0.5" stroke="black" d="M 184 225 104 77"/>
<path stroke-width="4.796610169491525" stroke="black" d="M 184 225 211 298"/>
<path stroke-width="0.5" stroke="black" d="M 184 225 252 220"/>
<path stroke-width="0.5" stroke="black" d="M 184 225 70 146"/>
<path stroke-width="1.4915254237288136" stroke="black" d="M 420 320 252 220"/>
<path stroke-width="0.5" stroke="black" d="M 252 220 104 103"/>
<path stroke-width="0.5" stroke="black" d="M 252 220 70 146"/>
<path stroke-width="0.5" stroke="black" d="M 252 220 144 154"/>
<path stroke-width="0.5" stroke="black" d="M 252 220 82 175"/>
<path stroke-width="0.5" stroke="black" d="M 252 220 225 95"/>
<path stroke-width="0.5" stroke="black" d="M 252 220 123 134"/>
<path stroke-width="0.5" stroke="black" d="M 252 220 207 165"/>
<path stroke-width="0.5" stroke="black" d="M 252 220 146 79"/>
<path stroke-width="0.5" stroke="black" d="M 252 220 82 207"/>
<path stroke-width="0.5" stroke="black" d="M 252 220 249 132"/>
<path stroke-width="0.5" stroke="black" d="M 252 220 142 209"/>
<path stroke-width="0.5" stroke="black" d="M 252 220 104 77"/>
<path stroke-width="0.5" stroke="black" d="M 252 220 237 179"/>
<path stroke-width="0.5" stroke="black" d="M 142 209 144 154"/>
<path stroke-width="0.5" stroke="black" d="M 184 225 104 103"/>
<path stroke-width="4.796610169491525" stroke="black" d="M 211 298 184 225"/>
<path stroke-width="0.5" stroke="black" d="M 142 209 225 95"/>
<path stroke-width="0.5" stroke="black" d="M 142 209 123 134"/>
<path stroke-width="0.5" stroke="black" d="M 142 209 207 165"/>
<path stroke-width="0.5" stroke="black" d="M 142 209 146 79"/>
<path stroke-width="0.5" stroke="black" d="M 142 209 82 207"/>
<path stroke-width="0.5" stroke="black" d="M 142 209 249 132"/>
<path stroke-width="6.779661016949152" stroke="black" d="M 142 209 133 265"/>
<path stroke-width="0.5" stroke="black" d="M 142 209 104 77"/>
<path stroke-width="0.5" stroke="black" d="M 142 209 184 225"/>
<path stroke-width="0.5" stroke="black" d="M 142 209 252 220"/>
<path stroke-width="5.4576271186440675" stroke="black" d="M 45 20 104 77"/>
<path stroke-width="0.5" stroke="black" d="M 104 77 237 179"/>
<path stroke-width="0.9957627118644068" stroke="black" d="M 184 225 237 179"/>
<path stroke-width="0.9957627118644068" stroke="black" d="M 104 77 104 103"/>
<path stroke-width="0.5" stroke="black" d="M 104 77 144 154"/>
<path stroke-width="0.5" stroke="black" d="M 104 77 82 175"/>
<path stroke-width="0.5" stroke="black" d="M 104 77 225 95"/>
<path stroke-width="0.5" stroke="black" d="M 104 77 123 134"/>
<path stroke-width="0.5" stroke="black" d="M 104 77 207 165"/>
<path stroke-width="0.5" stroke="black" d="M 104 77 146 79"/>
<path stroke-width="0.5" stroke="black" d="M 104 77 82 207"/>
<path stroke-width="0.5" stroke="black" d="M 104 77 249 132"/>
<path stroke-width="0.5" stroke="black" d="M 104 77 142 209"/>
<path stroke-width="5.4576271186440675" stroke="black" d="M 104 77 45 20"/>
<path stroke-width="0.5" stroke="black" d="M 104 77 184 225"/>
<path stroke-width="0.5" stroke="black" d="M 104 77 252 220"/>
<path stroke-width="0.5" stroke="black" d="M 104 77 70 146"/>
<path stroke-width="12.067796610169491" stroke="black" d="M 207 165 256 175"/>
<path stroke-width="0.9957627118644068" stroke="black" d="M 207 165 123 134"/>
<path stroke-width="0.5" stroke="black" d="M 207 165 225 95"/>
<path stroke-width="0.5" stroke="black" d="M 104 103 252 220"/>
<path stroke-width="18.016949152542374" stroke="black" d="M 20 137 70 146"/>
<path stroke-width="0.5" stroke="black" d="M 70 146 237 179"/>
<path stroke-width="0.5" stroke="black" d="M 70 146 104 103"/>
<path stroke-width="18.016949152542374" stroke="black" d="M 70 146 20 137"/>
<path stroke-width="0.5" stroke="black" d="M 70 146 144 154"/>
<path stroke-width="0.5" stroke="black" d="M 70 146 82 175"/>
<path stroke-width="0.5" stroke="black" d="M 70 146 225 95"/>
<path stroke-width="0.5" stroke="black" d="M 70 146 123 134"/>
<path stroke-width="0.5" stroke="black" d="M 70 146 207 165"/>
<path stroke-width="0.5" stroke="black" d="M 70 146 146 79"/>
<path stroke-width="0.5" stroke="black" d="M 70 146 82 207"/>
<path stroke-width="0.5" stroke="black" d="M 104 103 184 225"/>
<path stroke-width="0.5" stroke="black" d="M 70 146 249 132"/>
<path stroke-width="0.5" stroke="black" d="M 70 146 104 77"/>
<path stroke-width="0.5" stroke="black" d="M 70 146 184 225"/>
<path stroke-width="0.5" stroke="black" d="M 70 146 252 220"/>
<path stroke-width="16.694915254237287" stroke="black" d="M 178 137 144 154"/>
<path stroke-width="0.5" stroke="black" d="M 144 154 237 179"/>
<path stroke-width="0.5" stroke="black" d="M 144 154 104 103"/>
<path stroke-width="0.5" stroke="black" d="M 144 154 70 146"/>
<path stroke-width="16.694915254237287" stroke="black" d="M 144 154 178 137"/>
<path stroke-width="0.5" stroke="black" d="M 144 154 82 175"/>
<path stroke-width="0.5" stroke="black" d="M 144 154 225 95"/>
<path stroke-width="0.5" stroke="black" d="M 144 154 123 134"/>
<path stroke-width="0.5" stroke="black" d="M 144 154 207 165"/>
<path stroke-width="0.9957627118644068" stroke="black" d="M 70 146 142 209"/>
<path stroke-width="0.5" stroke="black" d="M 144 154 146 79"/>
<path stroke-width="0.9957627118644068" stroke="black" d="M 104 103 104 77"/>
<path stroke-width="0.5" stroke="black" d="M 104 103 249 132"/>
<path stroke-width="20.0" stroke="black" d="M 237 179 278 189"/>
<path stroke-width="0.5" stroke="black" d="M 237 179 104 103"/>
<path stroke-width="0.5" stroke="black" d="M 237 179 70 146"/>
<path stroke-width="0.5" stroke="black" d="M 237 179 144 154"/>
<path stroke-width="0.5" stroke="black" d="M 237 179 82 175"/>
<path stroke-width="0.5" stroke="black" d="M 237 179 225 95"/>
<path stroke-width="0.5" stroke="black" d="M 237 179 123 134"/>
<path stroke-width="0.5" stroke="black" d="M 237 179 207 165"/>
<path stroke-width="0.5" stroke="black" d="M 237 179 146 79"/>
<path stroke-width="0.5" stroke="black" d="M 237 179 82 207"/>
<path stroke-width="0.5" stroke="black" d="M 237 179 249 132"/>
<path stroke-width="0.5" stroke="black" d="M 237 179 142 209"/>
<path stroke-width="0.5" stroke="black" d="M 104 103 142 209"/>
<path stroke-width="0.5" stroke="black" d="M 237 179 104 77"/>
<path stroke-width="0.5" stroke="black" d="M 237 179 252 220"/>
<path stroke-width="19.338983050847457" stroke="black" d="M 68 78 104 103"/>
<path stroke-width="0.5" stroke="black" d="M 104 103 237 179"/>
<path stroke-width="19.338983050847457" stroke="black" d="M 104 103 68 78"/>
<path stroke-width="0.5" stroke="black" d="M 104 103 70 146"/>
<path stroke-width="0.5" stroke="black" d="M 104 103 144 154"/>
<path stroke-width="0.5" stroke="black" d="M 104 103 82 175"/>
<path stroke-width="0.5" stroke="black" d="M 104 103 225 95"/>
<path stroke-width="0.5" stroke="black" d="M 104 103 123 134"/>
<path stroke-width="0.5" stroke="black" d="M 104 103 207 165"/>
<path stroke-width="0.5" stroke="black" d="M 104 103 146 79"/>
<path stroke-width="0.5" stroke="black" d="M 104 103 82 207"/>
<path stroke-width="0.9957627118644068" stroke="black" d="M 237 179 184 225"/>
<path stroke-width="0.5" stroke="black" d="M 144 154 82 207"/>
<path stroke-width="0.9957627118644068" stroke="black" d="M 144 154 249 132"/>
<path stroke-width="0.5" stroke="black" d="M 144 154 142 209"/>
<path stroke-width="0.5" stroke="black" d="M 225 95 142 209"/>
<path stroke-width="0.5" stroke="black" d="M 225 95 104 77"/>
<path stroke-width="0.5" stroke="black" d="M 225 95 184 225"/>
<path stroke-width="0.5" stroke="black" d="M 225 95 252 220"/>
<path stroke-width="12.728813559322035" stroke="black" d="M 81 117 123 134"/>
<path stroke-width="0.5" stroke="black" d="M 123 134 237 179"/>
<path stroke-width="0.5" stroke="black" d="M 123 134 104 103"/>
<path stroke-width="0.5" stroke="black" d="M 123 134 70 146"/>
<path stroke-width="0.5" stroke="black" d="M 123 134 144 154"/>
<path stroke-width="0.5" stroke="black" d="M 123 134 82 175"/>
<path stroke-width="0.5" stroke="black" d="M 123 134 225 95"/>
<path stroke-width="12.728813559322035" stroke="black" d="M 123 134 81 117"/>
<path stroke-width="0.5" stroke="black" d="M 225 95 249 132"/>
<path stroke-width="0.9957627118644068" stroke="black" d="M 123 134 207 165"/>
<path stroke-width="0.5" stroke="black" d="M 123 134 82 207"/>
<path stroke-width="0.5" stroke="black" d="M 123 134 249 132"/>
<path stroke-width="0.5" stroke="black" d="M 123 134 142 209"/>
<path stroke-width="0.5" stroke="black" d="M 123 134 104 77"/>
<path stroke-width="0.5" stroke="black" d="M 123 134 184 225"/>
<path stroke-width="0.5" stroke="black" d="M 123 134 252 220"/>
<path stroke-width="12.067796610169491" stroke="black" d="M 256 175 207 165"/>
<path stroke-width="0.5" stroke="black" d="M 207 165 237 179"/>
<path stroke-width="0.5" stroke="black" d="M 207 165 104 103"/>
<path stroke-width="0.5" stroke="black" d="M 207 165 70 146"/>
<path stroke-width="0.5" stroke="black" d="M 207 165 144 154"/>
<path stroke-width="0.5" stroke="black" d="M 207 165 82 175"/>
<path stroke-width="0.5" stroke="black" d="M 123 134 146 79"/>
<path stroke-width="0.5" stroke="black" d="M 225 95 82 207"/>
<path stroke-width="0.9957627118644068" stroke="black" d="M 225 95 146 79"/>
<path stroke-width="0.5" stroke="black" d="M 225 95 207 165"/>
<path stroke-width="0.5" stroke="black" d="M 144 154 104 77"/>
<path stroke-width="0.5" stroke="black" d="M 144 154 184 225"/>
<path stroke-width="0.5" stroke="black" d="M 144 154 252 220"/>
<path stroke-width="15.372881355932204" stroke="black" d="M 29 182 82 175"/>
<path stroke-width="0.5" stroke="black" d="M 82 175 237 179"/>
<path stroke-width="0.5" stroke="black" d="M 82 175 104 103"/>
<path stroke-width="0.5" stroke="black" d="M 82 175 70 146"/>
<path stroke-width="0.5" stroke="black" d="M 82 175 144 154"/>
<path stroke-width="15.372881355932204" stroke="black" d="M 82 175 29 182"/>
<path stroke-width="0.5" stroke="black" d="M 82 175 225 95"/>
<path stroke-width="0.5" stroke="black" d="M 82 175 123 134"/>
<path stroke-width="0.5" stroke="black" d="M 82 175 207 165"/>
<path stroke-width="0.5" stroke="black" d="M 82 175 146 79"/>
<path stroke-width="0.9957627118644068" stroke="black" d="M 82 175 82 207"/>
<path stroke-width="0.5" stroke="black" d="M 82 175 249 132"/>
<path stroke-width="0.5" stroke="black" d="M 82 175 142 209"/>
<path stroke-width="0.5" stroke="black" d="M 82 175 104 77"/>
<path stroke-width="0.5" stroke="black" d="M 82 175 184 225"/>
<path stroke-width="0.5" stroke="black" d="M 82 175 252 220"/>
<path stroke-width="14.05084745762712" stroke="black" d="M 261 68 225 95"/>
<path stroke-width="0.5" stroke="black" d="M 225 95 237 179"/>
<path stroke-width="0.5" stroke="black" d="M 225 95 104 103"/>
<path stroke-width="0.5" stroke="black" d="M 225 95 70 146"/>
<path stroke-width="0.5" stroke="black" d="M 225 95 144 154"/>
<path stroke-width="0.5" stroke="black" d="M 225 95 82 175"/>
<path stroke-width="14.05084745762712" stroke="black" d="M 225 95 261 68"/>
<path stroke-width="0.5" stroke="black" d="M 225 95 123 134"/>
<path stroke-width="0.5" stroke="black" d="M 252 220 184 225"/>
<path stroke-width="1.4915254237288136" stroke="black" d="M 252 220 420 320"/>
<circle cx="278" cy="189" r="7.0" style="fill:red;stroke:black;stroke-width:1.0"/>
<circle cx="237" cy="179" r="7.0" style="fill:red;stroke:black;stroke-width:1.0"/>
<circle cx="68" cy="78" r="7.0" style="fill:green;stroke:black;stroke-width:1.0"/>
<circle cx="104" cy="103" r="7.0" style="fill:green;stroke:black;stroke-width:1.0"/>
<circle cx="20" cy="137" r="7.0" style="fill:orange;stroke:black;stroke-width:1.0"/>
<circle cx="70" cy="146" r="7.0" style="fill:orange;stroke:black;stroke-width:1.0"/>
<circle cx="178" cy="137" r="7.0" style="fill:purple;stroke:black;stroke-width:1.0"/>
<circle cx="144" cy="154" r="7.0" style="fill:purple;stroke:black;stroke-width:1.0"/>
<circle cx="29" cy="182" r="7.0" style="fill:yellow;stroke:black;stroke-width:1.0"/>
<circle cx="82" cy="175" r="7.0" style="fill:yellow;stroke:black;stroke-width:1.0"/>
<circle cx="261" cy="68" r="7.0" style="fill:fuchsia;stroke:black;stroke-width:1.0"/>
<circle cx="225" cy="95" r="7.0" style="fill:fuchsia;stroke:black;stroke-width:1.0"/>
<circle cx="81" cy="117" r="7.0" style="fill:olive;stroke:black;stroke-width:1.0"/>
<circle cx="123" cy="134" r="7.0" style="fill:olive;stroke:black;stroke-width:1.0"/>
<circle cx="256" cy="175" r="7.0" style="fill:aqua;stroke:black;stroke-width:1.0"/>
<circle cx="207" cy="165" r="7.0" style="fill:aqua;stroke:black;stroke-width:1.0"/>
<circle cx="122" cy="34" r="7.0" style="fill:brown;stroke:black;stroke-width:1.0"/>
<circle cx="146" cy="79" r="7.0" style="fill:brown;stroke:black;stroke-width:1.0"/>
<circle cx="20" cy="237" r="7.0" style="fill:blue;stroke:black;stroke-width:1.0"/>
<circle cx="82" cy="207" r="7.0" style="fill:blue;stroke:black;stroke-width:1.0"/>
<circle cx="313" cy="125" r="7.0" style="fill:red;stroke:black;stroke-width:1.0"/>
<circle cx="249" cy="132" r="7.0" style="fill:red;stroke:black;stroke-width:1.0"/>
<circle cx="133" cy="265" r="7.0" style="fill:orange;stroke:black;stroke-width:1.0"/>
<circle cx="142" cy="209" r="7.0" style="fill:orange;stroke:black;stroke-width:1.0"/>
<circle cx="45" cy="20" r="7.0" style="fill:green;stroke:black;stroke-width:1.0"/>
<circle cx="104" cy="77" r="7.0" style="fill:green;stroke:black;stroke-width:1.0"/>
<circle cx="211" cy="298" r="7.0" style="fill:blue;stroke:black;stroke-width:1.0"/>
<circle cx="184" cy="225" r="7.0" style="fill:blue;stroke:black;stroke-width:1.0"/>
<circle cx="420" cy="320" r="7.0" style="fill:blue;stroke:black;stroke-width:1.0"/>
<circle cx="252" cy="220" r="7.0" style="fill:blue;stroke:black;stroke-width:1.0"/>
</svg>
