<svg width="440" height="340" xmlns="http://www.w3.org/2000/svg">
<path stroke-width="1" stroke="black" d="M 210 225 210 192"/>
<path stroke-width="1" stroke="black" d="M 253 69 294 112"/>
<path stroke-width="1" stroke="black" d="M 253 69 124 169"/>
<path stroke-width="1" stroke="black" d="M 253 69 289 25"/>
<path stroke-width="1" stroke="black" d="M 253 69 257 139"/>
<path stroke-width="1" stroke="black" d="M 253 69 105 135"/>
<path stroke-width="1" stroke="black" d="M 253 69 126 121"/>
<path stroke-width="1" stroke="black" d="M 253 69 302 143"/>
<path stroke-width="1" stroke="black" d="M 253 69 275 207"/>
<path stroke-width="1" stroke="black" d="M 320 152 257 139"/>
<path stroke-width="1" stroke="black" d="M 257 139 210 192"/>
<path stroke-width="1" stroke="black" d="M 257 139 206 130"/>
<path stroke-width="1" stroke="black" d="M 257 139 210 60"/>
<path stroke-width="1" stroke="black" d="M 253 69 269 172"/>
<path stroke-width="1" stroke="black" d="M 257 139 197 100"/>
<path stroke-width="1" stroke="black" d="M 257 139 138 102"/>
<path stroke-width="1" stroke="black" d="M 257 139 269 172"/>
<path stroke-width="1" stroke="black" d="M 257 139 294 112"/>
<path stroke-width="1" stroke="black" d="M 257 139 124 169"/>
<path stroke-width="1" stroke="black" d="M 257 139 253 69"/>
<path stroke-width="1" stroke="black" d="M 257 139 320 152"/>
<path stroke-width="1" stroke="black" d="M 257 139 105 135"/>
<path stroke-width="1" stroke="black" d="M 257 139 126 121"/>
<path stroke-width="1" stroke="black" d="M 257 139 302 143"/>
<path stroke-width="1" stroke="black" d="M 257 139 275 207"/>
<path stroke-width="1" stroke="black" d="M 20 137 105 135"/>
<path stroke-width="1" stroke="black" d="M 105 135 210 192"/>
<path stroke-width="1" stroke="black" d="M 257 139 147 69"/>
<path stroke-width="1" stroke="black" d="M 105 135 206 130"/>
<path stroke-width="1" stroke="black" d="M 253 69 138 102"/>
<path stroke-width="1" stroke="black" d="M 253 69 197 100"/>
<path stroke-width="1" stroke="black" d="M 294 112 253 69"/>
<path stroke-width="1" stroke="black" d="M 294 112 257 139"/>
<path stroke-width="1" stroke="black" d="M 294 112 105 135"/>
<path stroke-width="1" stroke="black" d="M 294 112 126 121"/>
<path stroke-width="1" stroke="black" d="M 294 112 302 143"/>
<path stroke-width="1" stroke="black" d="M 294 112 275 207"/>
<path stroke-width="1" stroke="black" d="M 67 187 124 169"/>
<path stroke-width="1" stroke="black" d="M 124 169 210 192"/>
<path stroke-width="1" stroke="black" d="M 124 169 206 130"/>
<path stroke-width="1" stroke="black" d="M 124 169 210 60"/>
<path stroke-width="1" stroke="black" d="M 124 169 197 100"/>
<path stroke-width="1" stroke="black" d="M 124 169 147 69"/>
<path stroke-width="1" stroke="black" d="M 253 69 147 69"/>
<path stroke-width="1" stroke="black" d="M 124 169 138 102"/>
<path stroke-width="1" stroke="black" d="M 124 169 294 112"/>
<path stroke-width="1" stroke="black" d="M 124 169 67 187"/>
<path stroke-width="1" stroke="black" d="M 124 169 253 69"/>
<path stroke-width="1" stroke="black" d="M 124 169 257 139"/>
<path stroke-width="1" stroke="black" d="M 124 169 105 135"/>
<path stroke-width="1" stroke="black" d="M 124 169 126 121"/>
<path stroke-width="1" stroke="black" d="M 124 169 302 143"/>
<path stroke-width="1" stroke="black" d="M 124 169 275 207"/>
<path stroke-width="1" stroke="black" d="M 289 25 253 69"/>
<path stroke-width="1" stroke="black" d="M 253 69 210 192"/>
<path stroke-width="1" stroke="black" d="M 253 69 206 130"/>
<path stroke-width="1" stroke="black" d="M 253 69 210 60"/>
<path stroke-width="1" stroke="black" d="M 124 169 269 172"/>
<path stroke-width="1" stroke="black" d="M 294 112 124 169"/>
<path stroke-width="1" stroke="black" d="M 105 135 210 60"/>
<path stroke-width="1" stroke="black" d="M 105 135 147 69"/>
<path stroke-width="1" stroke="black" d="M 302 143 197 100"/>
<path stroke-width="1" stroke="black" d="M 302 143 147 69"/>
<path stroke-width="1" stroke="black" d="M 302 143 138 102"/>
<path stroke-width="1" stroke="black" d="M 302 143 269 172"/>
<path stroke-width="1" stroke="black" d="M 302 143 294 112"/>
<path stroke-width="1" stroke="black" d="M 302 143 124 169"/>
<path stroke-width="1" stroke="black" d="M 302 143 253 69"/>
<path stroke-width="1" stroke="black" d="M 302 143 257 139"/>
<path stroke-width="1" stroke="black" d="M 302 143 105 135"/>
<path stroke-width="1" stroke="black" d="M 302 143 126 121"/>
<path stroke-width="1" stroke="black" d="M 302 143 403 156"/>
<path stroke-width="1" stroke="black" d="M 302 143 275 207"/>
<path stroke-width="1" stroke="black" d="M 302 143 210 60"/>
<path stroke-width="1" stroke="black" d="M 420 320 275 207"/>
<path stroke-width="1" stroke="black" d="M 275 207 206 130"/>
<path stroke-width="1" stroke="black" d="M 275 207 210 60"/>
<path stroke-width="1" stroke="black" d="M 275 207 197 100"/>
<path stroke-width="1" stroke="black" d="M 275 207 147 69"/>
<path stroke-width="1" stroke="black" d="M 275 207 138 102"/>
<path stroke-width="1" stroke="black" d="M 275 207 269 172"/>
<path stroke-width="1" stroke="black" d="M 275 207 294 112"/>
<path stroke-width="1" stroke="black" d="M 275 207 124 169"/>
<path stroke-width="1" stroke="black" d="M 275 207 253 69"/>
<path stroke-width="1" stroke="black" d="M 275 207 257 139"/>
<path stroke-width="1" stroke="black" d="M 275 207 105 135"/>
<path stroke-width="1" stroke="black" d="M 275 207 126 121"/>
<path stroke-width="1" stroke="black" d="M 275 207 210 192"/>
<path stroke-width="1" stroke="black" d="M 105 135 197 100"/>
<path stroke-width="1" stroke="black" d="M 302 143 206 130"/>
<path stroke-width="1" stroke="black" d="M 403 156 302 143"/>
<path stroke-width="1" stroke="black" d="M 105 135 138 102"/>
<path stroke-width="1" stroke="black" d="M 105 135 269 172"/>
<path stroke-width="1" stroke="black" d="M 105 135 294 112"/>
<path stroke-width="1" stroke="black" d="M 105 135 124 169"/>
<path stroke-width="1" stroke="black" d="M 105 135 253 69"/>
<path stroke-width="1" stroke="black" d="M 105 135 257 139"/>
<path stroke-width="1" stroke="black" d="M 105 135 20 137"/>
<path stroke-width="1" stroke="black" d="M 105 135 126 121"/>
<path stroke-width="1" stroke="black" d="M 105 135 302 143"/>
<path stroke-width="1" stroke="black" d="M 105 135 275 207"/>
<path stroke-width="1" stroke="black" d="M 41 100 126 121"/>
<path stroke-width="1" stroke="black" d="M 126 121 210 192"/>
<path stroke-width="1" stroke="black" d="M 302 143 210 192"/>
<path stroke-width="1" stroke="black" d="M 126 121 206 130"/>
<path stroke-width="1" stroke="black" d="M 126 121 197 100"/>
<path stroke-width="1" stroke="black" d="M 126 121 147 69"/>
<path stroke-width="1" stroke="black" d="M 126 121 138 102"/>
<path stroke-width="1" stroke="black" d="M 126 121 269 172"/>
<path stroke-width="1" stroke="black" d="M 126 121 294 112"/>
<path stroke-width="1" stroke="black" d="M 126 121 124 169"/>
<path stroke-width="1" stroke="black" d="M 126 121 253 69"/>
<path stroke-width="1" stroke="black" d="M 126 121 257 139"/>
<path stroke-width="1" stroke="black" d="M 126 121 105 135"/>
<path stroke-width="1" stroke="black" d="M 126 121 41 100"/>
<path stroke-width="1" stroke="black" d="M 126 121 302 143"/>
<path stroke-width="1" stroke="black" d="M 126 121 275 207"/>
<path stroke-width="1" stroke="black" d="M 126 121 210 60"/>
<path stroke-width="1" stroke="black" d="M 294 112 357 107"/>
<path stroke-width="1" stroke="black" d="M 294 112 269 172"/>
<path stroke-width="1" stroke="black" d="M 294 112 138 102"/>
<path stroke-width="1" stroke="black" d="M 206 130 275 207"/>
<path stroke-width="1" stroke="black" d="M 211 20 210 60"/>
<path stroke-width="1" stroke="black" d="M 210 60 210 192"/>
<path stroke-width="1" stroke="black" d="M 210 60 206 130"/>
<path stroke-width="1" stroke="black" d="M 210 60 211 20"/>
<path stroke-width="1" stroke="black" d="M 210 60 197 100"/>
<path stroke-width="1" stroke="black" d="M 210 60 147 69"/>
<path stroke-width="1" stroke="black" d="M 210 60 138 102"/>
<path stroke-width="1" stroke="black" d="M 210 60 269 172"/>
<path stroke-width="1" stroke="black" d="M 210 60 294 112"/>
<path stroke-width="1" stroke="black" d="M 210 60 124 169"/>
<path stroke-width="1" stroke="black" d="M 210 60 253 69"/>
<path stroke-width="1" stroke="black" d="M 206 130 302 143"/>
<path stroke-width="1" stroke="black" d="M 210 60 257 139"/>
<path stroke-width="1" stroke="black" d="M 210 60 126 121"/>
<path stroke-width="1" stroke="black" d="M 210 60 302 143"/>
<path stroke-width="1" stroke="black" d="M 210 60 275 207"/>
<path stroke-width="1" stroke="black" d="M 182 72 197 100"/>
<path stroke-width="1" stroke="black" d="M 197 100 210 192"/>
<path stroke-width="1" stroke="black" d="M 197 100 206 130"/>
<path stroke-width="1" stroke="black" d="M 197 100 210 60"/>
<path stroke-width="1" stroke="black" d="M 197 100 182 72"/>
<path stroke-width="1" stroke="black" d="M 197 100 147 69"/>
<path stroke-width="1" stroke="black" d="M 197 100 138 102"/>
<path stroke-width="1" stroke="black" d="M 197 100 269 172"/>
<path stroke-width="1" stroke="black" d="M 197 100 294 112"/>
<path stroke-width="1" stroke="black" d="M 210 60 105 135"/>
<path stroke-width="1" stroke="black" d="M 197 100 124 169"/>
<path stroke-width="1" stroke="black" d="M 206 130 126 121"/>
<path stroke-width="1" stroke="black" d="M 206 130 257 139"/>
<path stroke-width="1" stroke="black" d="M 210 192 210 225"/>
<path stroke-width="1" stroke="black" d="M 210 192 206 130"/>
<path stroke-width="1" stroke="black" d="M 210 192 210 60"/>
<path stroke-width="1" stroke="black" d="M 210 192 197 100"/>
<path stroke-width="1" stroke="black" d="M 210 192 147 69"/>
<path stroke-width="1" stroke="black" d="M 210 192 138 102"/>
<path stroke-width="1" stroke="black" d="M 210 192 269 172"/>
<path stroke-width="1" stroke="black" d="M 210 192 294 112"/>
<path stroke-width="1" stroke="black" d="M 210 192 124 169"/>
<path stroke-width="1" stroke="black" d="M 210 192 253 69"/>
<path stroke-width="1" stroke="black" d="M 210 192 257 139"/>
<path stroke-width="1" stroke="black" d="M 210 192 105 135"/>
<path stroke-width="1" stroke="black" d="M 206 130 105 135"/>
<path stroke-width="1" stroke="black" d="M 210 192 126 121"/>
<path stroke-width="1" stroke="black" d="M 210 192 275 207"/>
<path stroke-width="1" stroke="black" d="M 178 145 206 130"/>
<path stroke-width="1" stroke="black" d="M 206 130 210 192"/>
<path stroke-width="1" stroke="black" d="M 206 130 178 145"/>
<path stroke-width="1" stroke="black" d="M 206 130 210 60"/>
<path stroke-width="1" stroke="black" d="M 206 130 197 100"/>
<path stroke-width="1" stroke="black" d="M 206 130 147 69"/>
<path stroke-width="1" stroke="black" d="M 206 130 138 102"/>
<path stroke-width="1" stroke="black" d="M 206 130 269 172"/>
<path stroke-width="1" stroke="black" d="M 206 130 294 112"/>
<path stroke-width="1" stroke="black" d="M 206 130 124 169"/>
<path stroke-width="1" stroke="black" d="M 206 130 253 69"/>
<path stroke-width="1" stroke="black" d="M 210 192 302 143"/>
<path stroke-width="1" stroke="black" d="M 197 100 253 69"/>
<path stroke-width="1" stroke="black" d="M 197 100 257 139"/>
<path stroke-width="1" stroke="black" d="M 197 100 105 135"/>
<path stroke-width="1" stroke="black" d="M 138 102 105 135"/>
<path stroke-width="1" stroke="black" d="M 138 102 126 121"/>
<path stroke-width="1" stroke="black" d="M 138 102 302 143"/>
<path stroke-width="1" stroke="black" d="M 138 102 275 207"/>
<path stroke-width="1" stroke="black" d="M 317 197 269 172"/>
<path stroke-width="1" stroke="black" d="M 269 172 210 192"/>
<path stroke-width="1" stroke="black" d="M 269 172 206 130"/>
<path stroke-width="1" stroke="black" d="M 269 172 210 60"/>
<path stroke-width="1" stroke="black" d="M 269 172 197 100"/>
<path stroke-width="1" stroke="black" d="M 269 172 147 69"/>
<path stroke-width="1" stroke="black" d="M 269 172 138 102"/>
<path stroke-width="1" stroke="black" d="M 269 172 317 197"/>
<path stroke-width="1" stroke="black" d="M 138 102 257 139"/>
<path stroke-width="1" stroke="black" d="M 269 172 294 112"/>
<path stroke-width="1" stroke="black" d="M 269 172 253 69"/>
<path stroke-width="1" stroke="black" d="M 269 172 257 139"/>
<path stroke-width="1" stroke="black" d="M 269 172 105 135"/>
<path stroke-width="1" stroke="black" d="M 269 172 126 121"/>
<path stroke-width="1" stroke="black" d="M 269 172 302 143"/>
<path stroke-width="1" stroke="black" d="M 269 172 275 207"/>
<path stroke-width="1" stroke="black" d="M 357 107 294 112"/>
<path stroke-width="1" stroke="black" d="M 294 112 210 192"/>
<path stroke-width="1" stroke="black" d="M 294 112 206 130"/>
<path stroke-width="1" stroke="black" d="M 294 112 210 60"/>
<path stroke-width="1" stroke="black" d="M 294 112 197 100"/>
<path stroke-width="1" stroke="black" d="M 294 112 147 69"/>
<path stroke-width="1" stroke="black" d="M 269 172 124 169"/>
<path stroke-width="1" stroke="black" d="M 138 102 253 69"/>
<path stroke-width="1" stroke="black" d="M 138 102 124 169"/>
<path stroke-width="1" stroke="black" d="M 138 102 294 112"/>
<path stroke-width="1" stroke="black" d="M 197 100 126 121"/>
<path stroke-width="1" stroke="black" d="M 197 100 302 143"/>
<path stroke-width="1" stroke="black" d="M 197 100 275 207"/>
<path stroke-width="1" stroke="black" d="M 109 40 147 69"/>
<path stroke-width="1" stroke="black" d="M 147 69 210 192"/>
<path stroke-width="1" stroke="black" d="M 147 69 206 130"/>
<path stroke-width="1" stroke="black" d="M 147 69 210 60"/>
<path stroke-width="1" stroke="black" d="M 147 69 197 100"/>
<path stroke-width="1" stroke="black" d="M 147 69 109 40"/>
<path stroke-width="1" stroke="black" d="M 147 69 138 102"/>
<path stroke-width="1" stroke="black" d="M 147 69 269 172"/>
<path stroke-width="1" stroke="black" d="M 147 69 294 112"/>
<path stroke-width="1" stroke="black" d="M 147 69 124 169"/>
<path stroke-width="1" stroke="black" d="M 147 69 253 69"/>
<path stroke-width="1" stroke="black" d="M 147 69 257 139"/>
<path stroke-width="1" stroke="black" d="M 147 69 105 135"/>
<path stroke-width="1" stroke="black" d="M 147 69 126 121"/>
<path stroke-width="1" stroke="black" d="M 147 69 302 143"/>
<path stroke-width="1" stroke="black" d="M 147 69 275 207"/>
<path stroke-width="1" stroke="black" d="M 92 81 138 102"/>
<path stroke-width="1" stroke="black" d="M 138 102 210 192"/>
<path stroke-width="1" stroke="black" d="M 138 102 206 130"/>
<path stroke-width="1" stroke="black" d="M 138 102 210 60"/>
<path stroke-width="1" stroke="black" d="M 138 102 197 100"/>
<path stroke-width="1" stroke="black" d="M 138 102 147 69"/>
<path stroke-width="1" stroke="black" d="M 138 102 92 81"/>
<path stroke-width="1" stroke="black" d="M 138 102 269 172"/>
<path stroke-width="1" stroke="black" d="M 275 207 302 143"/>
<path stroke-width="1" stroke="black" d="M 275 207 420 320"/>
<circle cx="210" cy="225" r="7.0" style="fill:red;stroke:black;stroke-width:1.0"/>
<circle cx="210" cy="192" r="7.0" style="fill:red;stroke:black;stroke-width:1.0"/>
<circle cx="178" cy="145" r="7.0" style="fill:green;stroke:black;stroke-width:1.0"/>
<circle cx="206" cy="130" r="7.0" style="fill:green;stroke:black;stroke-width:1.0"/>
<circle cx="211" cy="20" r="7.0" style="fill:orange;stroke:black;stroke-width:1.0"/>
<circle cx="210" cy="60" r="7.0" style="fill:orange;stroke:black;stroke-width:1.0"/>
<circle cx="182" cy="72" r="7.0" style="fill:purple;stroke:black;stroke-width:1.0"/>
<circle cx="197" cy="100" r="7.0" style="fill:purple;stroke:black;stroke-width:1.0"/>
<circle cx="109" cy="40" r="7.0" style="fill:yellow;stroke:black;stroke-width:1.0"/>
<circle cx="147" cy="69" r="7.0" style="fill:yellow;stroke:black;stroke-width:1.0"/>
<circle cx="92" cy="81" r="7.0" style="fill:fuchsia;stroke:black;stroke-width:1.0"/>
<circle cx="138" cy="102" r="7.0" style="fill:fuchsia;stroke:black;stroke-width:1.0"/>
<circle cx="317" cy="197" r="7.0" style="fill:olive;stroke:black;stroke-width:1.0"/>
<circle cx="269" cy="172" r="7.0" style="fill:olive;stroke:black;stroke-width:1.0"/>
<circle cx="357" cy="107" r="7.0" style="fill:aqua;stroke:black;stroke-width:1.0"/>
<circle cx="294" cy="112" r="7.0" style="fill:aqua;stroke:black;stroke-width:1.0"/>
<circle cx="67" cy="187" r="7.0" style="fill:brown;stroke:black;stroke-width:1.0"/>
<circle cx="124" cy="169" r="7.0" style="fill:brown;stroke:black;stroke-width:1.0"/>
<circle cx="289" cy="25" r="7.0" style="fill:blue;stroke:black;stroke-width:1.0"/>
<circle cx="253" cy="69" r="7.0" style="fill:blue;stroke:black;stroke-width:1.0"/>
<circle cx="320" cy="152" r="7.0" style="fill:red;stroke:black;stroke-width:1.0"/>
<circle cx="257" cy="139" r="7.0" style="fill:red;stroke:black;stroke-width:1.0"/>
<circle cx="20" cy="137" r="7.0" style="fill:orange;stroke:black;stroke-width:1.0"/>
<circle cx="105" cy="135" r="7.0" style="fill:orange;stroke:black;stroke-width:1.0"/>
<circle cx="41" cy="100" r="7.0" style="fill:green;stroke:black;stroke-width:1.0"/>
<circle cx="126" cy="121" r="7.0" style="fill:green;stroke:black;stroke-width:1.0"/>
<circle cx="403" cy="156" r="7.0" style="fill:blue;stroke:black;stroke-width:1.0"/>
<circle cx="302" cy="143" r="7.0" style="fill:blue;stroke:black;stroke-width:1.0"/>
<circle cx="420" cy="320" r="7.0" style="fill:blue;stroke:black;stroke-width:1.0"/>
<circle cx="275" cy="207" r="7.0" style="fill:blue;stroke:black;stroke-width:1.0"/>
</svg>
