<svg width="440" height="340" xmlns="http://www.w3.org/2000/svg">
<path stroke-width="20.0" stroke="black" d="M 129 111 156 149"/>
<path stroke-width="0.5" stroke="black" d="M 329 174 261 136"/>
<path stroke-width="0.5" stroke="black" d="M 329 174 341 203"/>
<path stroke-width="9.423728813559322" stroke="black" d="M 329 174 405 153"/>
<path stroke-width="0.5" stroke="black" d="M 329 174 207 258"/>
<path stroke-width="0.5" stroke="black" d="M 329 174 164 265"/>
<path stroke-width="0.5" stroke="black" d="M 329 174 201 196"/>
<path stroke-width="0.5" stroke="black" d="M 329 174 201 141"/>
<path stroke-width="0.5" stroke="black" d="M 329 174 135 141"/>
<path stroke-width="8.101694915254237" stroke="black" d="M 199 304 207 258"/>
<path stroke-width="0.5" stroke="black" d="M 207 258 156 149"/>
<path stroke-width="0.5" stroke="black" d="M 207 258 85 212"/>
<path stroke-width="0.5" stroke="black" d="M 207 258 124 233"/>
<path stroke-width="0.5" stroke="black" d="M 329 174 309 148"/>
<path stroke-width="0.9957627118644068" stroke="black" d="M 207 258 172 195"/>
<path stroke-width="0.5" stroke="black" d="M 207 258 330 249"/>
<path stroke-width="0.5" stroke="black" d="M 207 258 309 148"/>
<path stroke-width="0.5" stroke="black" d="M 207 258 261 136"/>
<path stroke-width="0.5" stroke="black" d="M 207 258 341 203"/>
<path stroke-width="0.5" stroke="black" d="M 207 258 329 174"/>
<path stroke-width="8.101694915254237" stroke="black" d="M 207 258 199 304"/>
<path stroke-width="0.5" stroke="black" d="M 207 258 164 265"/>
<path stroke-width="0.5" stroke="black" d="M 207 258 201 196"/>
<path stroke-width="0.5" stroke="black" d="M 207 258 201 141"/>
<path stroke-width="0.5" stroke="black" d="M 207 258 135 141"/>
<path stroke-width="6.779661016949152" stroke="black" d="M 130 320 164 265"/>
<path stroke-width="0.5" stroke="black" d="M 164 265 156 149"/>
<path stroke-width="0.5" stroke="black" d="M 207 258 274 248"/>
<path stroke-width="0.5" stroke="black" d="M 164 265 85 212"/>
<path stroke-width="0.5" stroke="black" d="M 329 174 330 249"/>
<path stroke-width="0.5" stroke="black" d="M 329 174 172 195"/>
<path stroke-width="0.5" stroke="black" d="M 261 136 329 174"/>
<path stroke-width="0.5" stroke="black" d="M 261 136 207 258"/>
<path stroke-width="0.5" stroke="black" d="M 261 136 164 265"/>
<path stroke-width="0.5" stroke="black" d="M 261 136 201 196"/>
<path stroke-width="0.5" stroke="black" d="M 261 136 201 141"/>
<path stroke-width="0.5" stroke="black" d="M 261 136 135 141"/>
<path stroke-width="10.745762711864407" stroke="black" d="M 420 203 341 203"/>
<path stroke-width="0.5" stroke="black" d="M 341 203 156 149"/>
<path stroke-width="0.5" stroke="black" d="M 341 203 85 212"/>
<path stroke-width="0.5" stroke="black" d="M 341 203 124 233"/>
<path stroke-width="0.5" stroke="black" d="M 341 203 172 195"/>
<path stroke-width="0.5" stroke="black" d="M 341 203 274 248"/>
<path stroke-width="0.9957627118644068" stroke="black" d="M 329 174 274 248"/>
<path stroke-width="0.9957627118644068" stroke="black" d="M 341 203 330 249"/>
<path stroke-width="0.5" stroke="black" d="M 341 203 261 136"/>
<path stroke-width="10.745762711864407" stroke="black" d="M 341 203 420 203"/>
<path stroke-width="0.5" stroke="black" d="M 341 203 329 174"/>
<path stroke-width="0.5" stroke="black" d="M 341 203 207 258"/>
<path stroke-width="0.5" stroke="black" d="M 341 203 164 265"/>
<path stroke-width="0.5" stroke="black" d="M 341 203 201 196"/>
<path stroke-width="0.5" stroke="black" d="M 341 203 201 141"/>
<path stroke-width="0.5" stroke="black" d="M 341 203 135 141"/>
<path stroke-width="9.423728813559322" stroke="black" d="M 405 153 329 174"/>
<path stroke-width="0.5" stroke="black" d="M 329 174 156 149"/>
<path stroke-width="0.5" stroke="black" d="M 329 174 85 212"/>
<path stroke-width="0.5" stroke="black" d="M 329 174 124 233"/>
<path stroke-width="0.5" stroke="black" d="M 341 203 309 148"/>
<path stroke-width="0.5" stroke="black" d="M 261 136 341 203"/>
<path stroke-width="0.9957627118644068" stroke="black" d="M 164 265 124 233"/>
<path stroke-width="0.5" stroke="black" d="M 164 265 274 248"/>
<path stroke-width="0.5" stroke="black" d="M 201 141 172 195"/>
<path stroke-width="0.5" stroke="black" d="M 201 141 274 248"/>
<path stroke-width="0.5" stroke="black" d="M 201 141 330 249"/>
<path stroke-width="0.5" stroke="black" d="M 201 141 309 148"/>
<path stroke-width="0.5" stroke="black" d="M 201 141 261 136"/>
<path stroke-width="0.5" stroke="black" d="M 201 141 341 203"/>
<path stroke-width="0.5" stroke="black" d="M 201 141 329 174"/>
<path stroke-width="0.5" stroke="black" d="M 201 141 207 258"/>
<path stroke-width="0.5" stroke="black" d="M 201 141 164 265"/>
<path stroke-width="0.5" stroke="black" d="M 201 141 201 196"/>
<path stroke-width="4.796610169491525" stroke="black" d="M 201 141 177 77"/>
<path stroke-width="0.5" stroke="black" d="M 201 141 135 141"/>
<path stroke-width="0.5" stroke="black" d="M 201 141 124 233"/>
<path stroke-width="1.4915254237288136" stroke="black" d="M 68 20 135 141"/>
<path stroke-width="0.5" stroke="black" d="M 135 141 85 212"/>
<path stroke-width="0.5" stroke="black" d="M 135 141 124 233"/>
<path stroke-width="0.5" stroke="black" d="M 135 141 172 195"/>
<path stroke-width="0.5" stroke="black" d="M 135 141 274 248"/>
<path stroke-width="0.5" stroke="black" d="M 135 141 330 249"/>
<path stroke-width="0.5" stroke="black" d="M 135 141 309 148"/>
<path stroke-width="0.5" stroke="black" d="M 135 141 261 136"/>
<path stroke-width="0.5" stroke="black" d="M 135 141 341 203"/>
<path stroke-width="0.5" stroke="black" d="M 135 141 329 174"/>
<path stroke-width="0.5" stroke="black" d="M 135 141 207 258"/>
<path stroke-width="0.5" stroke="black" d="M 135 141 164 265"/>
<path stroke-width="0.5" stroke="black" d="M 135 141 201 196"/>
<path stroke-width="0.5" stroke="black" d="M 135 141 156 149"/>
<path stroke-width="0.5" stroke="black" d="M 164 265 172 195"/>
<path stroke-width="0.5" stroke="black" d="M 201 141 85 212"/>
<path stroke-width="4.796610169491525" stroke="black" d="M 177 77 201 141"/>
<path stroke-width="0.5" stroke="black" d="M 164 265 330 249"/>
<path stroke-width="0.5" stroke="black" d="M 164 265 309 148"/>
<path stroke-width="0.5" stroke="black" d="M 164 265 261 136"/>
<path stroke-width="0.5" stroke="black" d="M 164 265 341 203"/>
<path stroke-width="0.5" stroke="black" d="M 164 265 329 174"/>
<path stroke-width="0.5" stroke="black" d="M 164 265 207 258"/>
<path stroke-width="6.779661016949152" stroke="black" d="M 164 265 130 320"/>
<path stroke-width="0.5" stroke="black" d="M 164 265 201 196"/>
<path stroke-width="0.5" stroke="black" d="M 164 265 201 141"/>
<path stroke-width="0.5" stroke="black" d="M 164 265 135 141"/>
<path stroke-width="5.4576271186440675" stroke="black" d="M 225 176 201 196"/>
<path stroke-width="0.5" stroke="black" d="M 201 196 156 149"/>
<path stroke-width="0.9957627118644068" stroke="black" d="M 201 141 156 149"/>
<path stroke-width="0.9957627118644068" stroke="black" d="M 201 196 85 212"/>
<path stroke-width="0.5" stroke="black" d="M 201 196 172 195"/>
<path stroke-width="0.5" stroke="black" d="M 201 196 274 248"/>
<path stroke-width="0.5" stroke="black" d="M 201 196 330 249"/>
<path stroke-width="0.5" stroke="black" d="M 201 196 309 148"/>
<path stroke-width="0.5" stroke="black" d="M 201 196 261 136"/>
<path stroke-width="0.5" stroke="black" d="M 201 196 341 203"/>
<path stroke-width="0.5" stroke="black" d="M 201 196 329 174"/>
<path stroke-width="0.5" stroke="black" d="M 201 196 207 258"/>
<path stroke-width="0.5" stroke="black" d="M 201 196 164 265"/>
<path stroke-width="5.4576271186440675" stroke="black" d="M 201 196 225 176"/>
<path stroke-width="0.5" stroke="black" d="M 201 196 201 141"/>
<path stroke-width="0.5" stroke="black" d="M 201 196 135 141"/>
<path stroke-width="0.5" stroke="black" d="M 201 196 124 233"/>
<path stroke-width="12.067796610169491" stroke="black" d="M 261 136 287 95"/>
<path stroke-width="0.9957627118644068" stroke="black" d="M 261 136 309 148"/>
<path stroke-width="0.5" stroke="black" d="M 261 136 330 249"/>
<path stroke-width="0.5" stroke="black" d="M 85 212 135 141"/>
<path stroke-width="18.016949152542374" stroke="black" d="M 72 253 124 233"/>
<path stroke-width="0.5" stroke="black" d="M 124 233 156 149"/>
<path stroke-width="0.5" stroke="black" d="M 124 233 85 212"/>
<path stroke-width="18.016949152542374" stroke="black" d="M 124 233 72 253"/>
<path stroke-width="0.5" stroke="black" d="M 124 233 172 195"/>
<path stroke-width="0.5" stroke="black" d="M 124 233 274 248"/>
<path stroke-width="0.5" stroke="black" d="M 124 233 330 249"/>
<path stroke-width="0.5" stroke="black" d="M 124 233 309 148"/>
<path stroke-width="0.5" stroke="black" d="M 124 233 261 136"/>
<path stroke-width="0.5" stroke="black" d="M 124 233 341 203"/>
<path stroke-width="0.5" stroke="black" d="M 124 233 329 174"/>
<path stroke-width="0.5" stroke="black" d="M 85 212 201 141"/>
<path stroke-width="0.5" stroke="black" d="M 124 233 207 258"/>
<path stroke-width="0.5" stroke="black" d="M 124 233 201 196"/>
<path stroke-width="0.5" stroke="black" d="M 124 233 201 141"/>
<path stroke-width="0.5" stroke="black" d="M 124 233 135 141"/>
<path stroke-width="16.694915254237287" stroke="black" d="M 185 220 172 195"/>
<path stroke-width="0.5" stroke="black" d="M 172 195 156 149"/>
<path stroke-width="0.5" stroke="black" d="M 172 195 85 212"/>
<path stroke-width="0.5" stroke="black" d="M 172 195 124 233"/>
<path stroke-width="16.694915254237287" stroke="black" d="M 172 195 185 220"/>
<path stroke-width="0.5" stroke="black" d="M 172 195 274 248"/>
<path stroke-width="0.5" stroke="black" d="M 172 195 330 249"/>
<path stroke-width="0.5" stroke="black" d="M 172 195 309 148"/>
<path stroke-width="0.5" stroke="black" d="M 172 195 261 136"/>
<path stroke-width="0.9957627118644068" stroke="black" d="M 124 233 164 265"/>
<path stroke-width="0.5" stroke="black" d="M 172 195 341 203"/>
<path stroke-width="0.9957627118644068" stroke="black" d="M 85 212 201 196"/>
<path stroke-width="0.5" stroke="black" d="M 85 212 207 258"/>
<path stroke-width="20.0" stroke="black" d="M 156 149 129 111"/>
<path stroke-width="0.5" stroke="black" d="M 156 149 85 212"/>
<path stroke-width="0.5" stroke="black" d="M 156 149 124 233"/>
<path stroke-width="0.5" stroke="black" d="M 156 149 172 195"/>
<path stroke-width="0.5" stroke="black" d="M 156 149 274 248"/>
<path stroke-width="0.5" stroke="black" d="M 156 149 330 249"/>
<path stroke-width="0.5" stroke="black" d="M 156 149 309 148"/>
<path stroke-width="0.5" stroke="black" d="M 156 149 261 136"/>
<path stroke-width="0.5" stroke="black" d="M 156 149 341 203"/>
<path stroke-width="0.5" stroke="black" d="M 156 149 329 174"/>
<path stroke-width="0.5" stroke="black" d="M 156 149 207 258"/>
<path stroke-width="0.5" stroke="black" d="M 156 149 164 265"/>
<path stroke-width="0.5" stroke="black" d="M 85 212 164 265"/>
<path stroke-width="0.5" stroke="black" d="M 156 149 201 196"/>
<path stroke-width="0.5" stroke="black" d="M 156 149 135 141"/>
<path stroke-width="19.338983050847457" stroke="black" d="M 20 226 85 212"/>
<path stroke-width="0.5" stroke="black" d="M 85 212 156 149"/>
<path stroke-width="19.338983050847457" stroke="black" d="M 85 212 20 226"/>
<path stroke-width="0.5" stroke="black" d="M 85 212 124 233"/>
<path stroke-width="0.5" stroke="black" d="M 85 212 172 195"/>
<path stroke-width="0.5" stroke="black" d="M 85 212 274 248"/>
<path stroke-width="0.5" stroke="black" d="M 85 212 330 249"/>
<path stroke-width="0.5" stroke="black" d="M 85 212 309 148"/>
<path stroke-width="0.5" stroke="black" d="M 85 212 261 136"/>
<path stroke-width="0.5" stroke="black" d="M 85 212 341 203"/>
<path stroke-width="0.5" stroke="black" d="M 85 212 329 174"/>
<path stroke-width="0.9957627118644068" stroke="black" d="M 156 149 201 141"/>
<path stroke-width="0.5" stroke="black" d="M 172 195 329 174"/>
<path stroke-width="0.9957627118644068" stroke="black" d="M 172 195 207 258"/>
<path stroke-width="0.5" stroke="black" d="M 172 195 164 265"/>
<path stroke-width="0.5" stroke="black" d="M 330 249 164 265"/>
<path stroke-width="0.5" stroke="black" d="M 330 249 201 196"/>
<path stroke-width="0.5" stroke="black" d="M 330 249 201 141"/>
<path stroke-width="0.5" stroke="black" d="M 330 249 135 141"/>
<path stroke-width="12.728813559322035" stroke="black" d="M 360 117 309 148"/>
<path stroke-width="0.5" stroke="black" d="M 309 148 156 149"/>
<path stroke-width="0.5" stroke="black" d="M 309 148 85 212"/>
<path stroke-width="0.5" stroke="black" d="M 309 148 124 233"/>
<path stroke-width="0.5" stroke="black" d="M 309 148 172 195"/>
<path stroke-width="0.5" stroke="black" d="M 309 148 274 248"/>
<path stroke-width="0.5" stroke="black" d="M 309 148 330 249"/>
<path stroke-width="12.728813559322035" stroke="black" d="M 309 148 360 117"/>
<path stroke-width="0.5" stroke="black" d="M 330 249 207 258"/>
<path stroke-width="0.9957627118644068" stroke="black" d="M 309 148 261 136"/>
<path stroke-width="0.5" stroke="black" d="M 309 148 329 174"/>
<path stroke-width="0.5" stroke="black" d="M 309 148 207 258"/>
<path stroke-width="0.5" stroke="black" d="M 309 148 164 265"/>
<path stroke-width="0.5" stroke="black" d="M 309 148 201 196"/>
<path stroke-width="0.5" stroke="black" d="M 309 148 201 141"/>
<path stroke-width="0.5" stroke="black" d="M 309 148 135 141"/>
<path stroke-width="12.067796610169491" stroke="black" d="M 287 95 261 136"/>
<path stroke-width="0.5" stroke="black" d="M 261 136 156 149"/>
<path stroke-width="0.5" stroke="black" d="M 261 136 85 212"/>
<path stroke-width="0.5" stroke="black" d="M 261 136 124 233"/>
<path stroke-width="0.5" stroke="black" d="M 261 136 172 195"/>
<path stroke-width="0.5" stroke="black" d="M 261 136 274 248"/>
<path stroke-width="0.5" stroke="black" d="M 309 148 341 203"/>
<path stroke-width="0.5" stroke="black" d="M 330 249 329 174"/>
<path stroke-width="0.9957627118644068" stroke="black" d="M 330 249 341 203"/>
<path stroke-width="0.5" stroke="black" d="M 330 249 261 136"/>
<path stroke-width="0.5" stroke="black" d="M 172 195 201 196"/>
<path stroke-width="0.5" stroke="black" d="M 172 195 201 141"/>
<path stroke-width="0.5" stroke="black" d="M 172 195 135 141"/>
<path stroke-width="15.372881355932204" stroke="black" d="M 297 277 274 248"/>
<path stroke-width="0.5" stroke="black" d="M 274 248 156 149"/>
<path stroke-width="0.5" stroke="black" d="M 274 248 85 212"/>
<path stroke-width="0.5" stroke="black" d="M 274 248 124 233"/>
<path stroke-width="0.5" stroke="black" d="M 274 248 172 195"/>
<path stroke-width="15.372881355932204" stroke="black" d="M 274 248 297 277"/>
<path stroke-width="0.5" stroke="black" d="M 274 248 330 249"/>
<path stroke-width="0.5" stroke="black" d="M 274 248 309 148"/>
<path stroke-width="0.5" stroke="black" d="M 274 248 261 136"/>
<path stroke-width="0.5" stroke="black" d="M 274 248 341 203"/>
<path stroke-width="0.9957627118644068" stroke="black" d="M 274 248 329 174"/>
<path stroke-width="0.5" stroke="black" d="M 274 248 207 258"/>
<path stroke-width="0.5" stroke="black" d="M 274 248 164 265"/>
<path stroke-width="0.5" stroke="black" d="M 274 248 201 196"/>
<path stroke-width="0.5" stroke="black" d="M 274 248 201 141"/>
<path stroke-width="0.5" stroke="black" d="M 274 248 135 141"/>
<path stroke-width="14.05084745762712" stroke="black" d="M 370 271 330 249"/>
<path stroke-width="0.5" stroke="black" d="M 330 249 156 149"/>
<path stroke-width="0.5" stroke="black" d="M 330 249 85 212"/>
<path stroke-width="0.5" stroke="black" d="M 330 249 124 233"/>
<path stroke-width="0.5" stroke="black" d="M 330 249 172 195"/>
<path stroke-width="0.5" stroke="black" d="M 330 249 274 248"/>
<path stroke-width="14.05084745762712" stroke="black" d="M 330 249 370 271"/>
<path stroke-width="0.5" stroke="black" d="M 330 249 309 148"/>
<path stroke-width="0.5" stroke="black" d="M 135 141 201 141"/>
<path stroke-width="1.4915254237288136" stroke="black" d="M 135 141 68 20"/>
<circle cx="129" cy="111" r="7.0" style="fill:gray;stroke:black;stroke-width:1.0"/>
<circle cx="156" cy="149" r="7.0" style="fill:gray;stroke:black;stroke-width:1.0"/>
<circle cx="20" cy="226" r="7.0" style="fill:gray;stroke:black;stroke-width:1.0"/>
<circle cx="85" cy="212" r="7.0" style="fill:gray;stroke:black;stroke-width:1.0"/>
<circle cx="72" cy="253" r="7.0" style="fill:gray;stroke:black;stroke-width:1.0"/>
<circle cx="124" cy="233" r="7.0" style="fill:gray;stroke:black;stroke-width:1.0"/>
<circle cx="185" cy="220" r="7.0" style="fill:gray;stroke:black;stroke-width:1.0"/>
<circle cx="172" cy="195" r="7.0" style="fill:gray;stroke:black;stroke-width:1.0"/>
<circle cx="297" cy="277" r="7.0" style="fill:gray;stroke:black;stroke-width:1.0"/>
<circle cx="274" cy="248" r="7.0" style="fill:gray;stroke:black;stroke-width:1.0"/>
<circle cx="370" cy="271" r="7.0" style="fill:gray;stroke:black;stroke-width:1.0"/>
<circle cx="330" cy="249" r="7.0" style="fill:gray;stroke:black;stroke-width:1.0"/>
<circle cx="360" cy="117" r="7.0" style="fill:gray;stroke:black;stroke-width:1.0"/>
<circle cx="309" cy="148" r="7.0" style="fill:gray;stroke:black;stroke-width:1.0"/>
<circle cx="287" cy="95" r="7.0" style="fill:gray;stroke:black;stroke-width:1.0"/>
<circle cx="261" cy="136" r="7.0" style="fill:gray;stroke:black;stroke-width:1.0"/>
<circle cx="420" cy="203" r="7.0" style="fill:gray;stroke:black;stroke-width:1.0"/>
<circle cx="341" cy="203" r="7.0" style="fill:gray;stroke:black;stroke-width:1.0"/>
<circle cx="405" cy="153" r="7.0" style="fill:gray;stroke:black;stroke-width:1.0"/>
<circle cx="329" cy="174" r="7.0" style="fill:gray;stroke:black;stroke-width:1.0"/>
<circle cx="199" cy="304" r="7.0" style="fill:gray;stroke:black;stroke-width:1.0"/>
<circle cx="207" cy="258" r="7.0" style="fill:gray;stroke:black;stroke-width:1.0"/>
<circle cx="130" cy="320" r="7.0" style="fill:gray;stroke:black;stroke-width:1.0"/>
<circle cx="164" cy="265" r="7.0" style="fill:gray;stroke:black;stroke-width:1.0"/>
<circle cx="225" cy="176" r="7.0" style="fill:gray;stroke:black;stroke-width:1.0"/>
<circle cx="201" cy="196" r="7.0" style="fill:gray;stroke:black;stroke-width:1.0"/>
<circle cx="177" cy="77" r="7.0" style="fill:gray;stroke:black;stroke-width:1.0"/>
<circle cx="201" cy="141" r="7.0" style="fill:gray;stroke:black;stroke-width:1.0"/>
<circle cx="68" cy="20" r="7.0" style="fill:gray;stroke:black;stroke-width:1.0"/>
<circle cx="135" cy="141" r="7.0" style="fill:gray;stroke:black;stroke-width:1.0"/>
</svg>
