<svg width="440" height="340" xmlns="http://www.w3.org/2000/svg">
<path stroke-width="20.0" stroke="black" d="M 320 241 286 213"/>
<path stroke-width="0.5" stroke="black" d="M 326 244 255 260"/>
<path stroke-width="0.5" stroke="black" d="M 326 244 192 152"/>
<path stroke-width="9.423728813559322" stroke="black" d="M 326 244 392 284"/>
<path stroke-width="0.5" stroke="black" d="M 326 244 149 246"/>
<path stroke-width="0.5" stroke="black" d="M 326 244 328 117"/>
<path stroke-width="0.5" stroke="black" d="M 326 244 177 102"/>
<path stroke-width="0.5" stroke="black" d="M 326 244 234 100"/>
<path stroke-width="0.5" stroke="black" d="M 326 244 186 180"/>
<path stroke-width="8.101694915254237" stroke="black" d="M 69 284 149 246"/>
<path stroke-width="0.5" stroke="black" d="M 149 246 286 213"/>
<path stroke-width="0.5" stroke="black" d="M 149 246 239 156"/>
<path stroke-width="0.5" stroke="black" d="M 149 246 363 194"/>
<path stroke-width="0.5" stroke="black" d="M 326 244 171 139"/>
<path stroke-width="0.9957627118644068" stroke="black" d="M 149 246 212 267"/>
<path stroke-width="0.5" stroke="black" d="M 149 246 334 157"/>
<path stroke-width="0.5" stroke="black" d="M 149 246 171 139"/>
<path stroke-width="0.5" stroke="black" d="M 149 246 255 260"/>
<path stroke-width="0.5" stroke="black" d="M 149 246 192 152"/>
<path stroke-width="0.5" stroke="black" d="M 149 246 326 244"/>
<path stroke-width="8.101694915254237" stroke="black" d="M 149 246 69 284"/>
<path stroke-width="0.5" stroke="black" d="M 149 246 328 117"/>
<path stroke-width="0.5" stroke="black" d="M 149 246 177 102"/>
<path stroke-width="0.5" stroke="black" d="M 149 246 234 100"/>
<path stroke-width="0.5" stroke="black" d="M 149 246 186 180"/>
<path stroke-width="6.779661016949152" stroke="black" d="M 396 67 328 117"/>
<path stroke-width="0.5" stroke="black" d="M 328 117 286 213"/>
<path stroke-width="0.5" stroke="black" d="M 149 246 167 216"/>
<path stroke-width="0.5" stroke="black" d="M 328 117 239 156"/>
<path stroke-width="0.5" stroke="black" d="M 326 244 334 157"/>
<path stroke-width="0.5" stroke="black" d="M 326 244 212 267"/>
<path stroke-width="0.5" stroke="black" d="M 255 260 326 244"/>
<path stroke-width="0.5" stroke="black" d="M 255 260 149 246"/>
<path stroke-width="0.5" stroke="black" d="M 255 260 328 117"/>
<path stroke-width="0.5" stroke="black" d="M 255 260 177 102"/>
<path stroke-width="0.5" stroke="black" d="M 255 260 234 100"/>
<path stroke-width="0.5" stroke="black" d="M 255 260 186 180"/>
<path stroke-width="10.745762711864407" stroke="black" d="M 124 138 192 152"/>
<path stroke-width="0.5" stroke="black" d="M 192 152 286 213"/>
<path stroke-width="0.5" stroke="black" d="M 192 152 239 156"/>
<path stroke-width="0.5" stroke="black" d="M 192 152 363 194"/>
<path stroke-width="0.5" stroke="black" d="M 192 152 212 267"/>
<path stroke-width="0.5" stroke="black" d="M 192 152 167 216"/>
<path stroke-width="0.9957627118644068" stroke="black" d="M 326 244 167 216"/>
<path stroke-width="0.9957627118644068" stroke="black" d="M 192 152 334 157"/>
<path stroke-width="0.5" stroke="black" d="M 192 152 255 260"/>
<path stroke-width="10.745762711864407" stroke="black" d="M 192 152 124 138"/>
<path stroke-width="0.5" stroke="black" d="M 192 152 326 244"/>
<path stroke-width="0.5" stroke="black" d="M 192 152 149 246"/>
<path stroke-width="0.5" stroke="black" d="M 192 152 328 117"/>
<path stroke-width="0.5" stroke="black" d="M 192 152 177 102"/>
<path stroke-width="0.5" stroke="black" d="M 192 152 234 100"/>
<path stroke-width="0.5" stroke="black" d="M 192 152 186 180"/>
<path stroke-width="9.423728813559322" stroke="black" d="M 392 284 326 244"/>
<path stroke-width="0.5" stroke="black" d="M 326 244 286 213"/>
<path stroke-width="0.5" stroke="black" d="M 326 244 239 156"/>
<path stroke-width="0.5" stroke="black" d="M 326 244 363 194"/>
<path stroke-width="0.5" stroke="black" d="M 192 152 171 139"/>
<path stroke-width="0.5" stroke="black" d="M 255 260 192 152"/>
<path stroke-width="0.9957627118644068" stroke="black" d="M 328 117 363 194"/>
<path stroke-width="0.5" stroke="black" d="M 328 117 167 216"/>
<path stroke-width="0.5" stroke="black" d="M 234 100 212 267"/>
<path stroke-width="0.5" stroke="black" d="M 234 100 167 216"/>
<path stroke-width="0.5" stroke="black" d="M 234 100 334 157"/>
<path stroke-width="0.5" stroke="black" d="M 234 100 171 139"/>
<path stroke-width="0.5" stroke="black" d="M 234 100 255 260"/>
<path stroke-width="0.5" stroke="black" d="M 234 100 192 152"/>
<path stroke-width="0.5" stroke="black" d="M 234 100 326 244"/>
<path stroke-width="0.5" stroke="black" d="M 234 100 149 246"/>
<path stroke-width="0.5" stroke="black" d="M 234 100 328 117"/>
<path stroke-width="0.5" stroke="black" d="M 234 100 177 102"/>
<path stroke-width="4.796610169491525" stroke="black" d="M 234 100 200 20"/>
<path stroke-width="0.5" stroke="black" d="M 234 100 186 180"/>
<path stroke-width="0.5" stroke="black" d="M 234 100 363 194"/>
<path stroke-width="1.4915254237288136" stroke="black" d="M 20 128 186 180"/>
<path stroke-width="0.5" stroke="black" d="M 186 180 239 156"/>
<path stroke-width="0.5" stroke="black" d="M 186 180 363 194"/>
<path stroke-width="0.5" stroke="black" d="M 186 180 212 267"/>
<path stroke-width="0.5" stroke="black" d="M 186 180 167 216"/>
<path stroke-width="0.5" stroke="black" d="M 186 180 334 157"/>
<path stroke-width="0.5" stroke="black" d="M 186 180 171 139"/>
<path stroke-width="0.5" stroke="black" d="M 186 180 255 260"/>
<path stroke-width="0.5" stroke="black" d="M 186 180 192 152"/>
<path stroke-width="0.5" stroke="black" d="M 186 180 326 244"/>
<path stroke-width="0.5" stroke="black" d="M 186 180 149 246"/>
<path stroke-width="0.5" stroke="black" d="M 186 180 328 117"/>
<path stroke-width="0.5" stroke="black" d="M 186 180 177 102"/>
<path stroke-width="0.5" stroke="black" d="M 186 180 286 213"/>
<path stroke-width="0.5" stroke="black" d="M 328 117 212 267"/>
<path stroke-width="0.5" stroke="black" d="M 234 100 239 156"/>
<path stroke-width="4.796610169491525" stroke="black" d="M 200 20 234 100"/>
<path stroke-width="0.5" stroke="black" d="M 328 117 334 157"/>
<path stroke-width="0.5" stroke="black" d="M 328 117 171 139"/>
<path stroke-width="0.5" stroke="black" d="M 328 117 255 260"/>
<path stroke-width="0.5" stroke="black" d="M 328 117 192 152"/>
<path stroke-width="0.5" stroke="black" d="M 328 117 326 244"/>
<path stroke-width="0.5" stroke="black" d="M 328 117 149 246"/>
<path stroke-width="6.779661016949152" stroke="black" d="M 328 117 396 67"/>
<path stroke-width="0.5" stroke="black" d="M 328 117 177 102"/>
<path stroke-width="0.5" stroke="black" d="M 328 117 234 100"/>
<path stroke-width="0.5" stroke="black" d="M 328 117 186 180"/>
<path stroke-width="5.4576271186440675" stroke="black" d="M 99 41 177 102"/>
<path stroke-width="0.5" stroke="black" d="M 177 102 286 213"/>
<path stroke-width="0.9957627118644068" stroke="black" d="M 234 100 286 213"/>
<path stroke-width="0.9957627118644068" stroke="black" d="M 177 102 239 156"/>
<path stroke-width="0.5" stroke="black" d="M 177 102 212 267"/>
<path stroke-width="0.5" stroke="black" d="M 177 102 167 216"/>
<path stroke-width="0.5" stroke="black" d="M 177 102 334 157"/>
<path stroke-width="0.5" stroke="black" d="M 177 102 171 139"/>
<path stroke-width="0.5" stroke="black" d="M 177 102 255 260"/>
<path stroke-width="0.5" stroke="black" d="M 177 102 192 152"/>
<path stroke-width="0.5" stroke="black" d="M 177 102 326 244"/>
<path stroke-width="0.5" stroke="black" d="M 177 102 149 246"/>
<path stroke-width="0.5" stroke="black" d="M 177 102 328 117"/>
<path stroke-width="5.4576271186440675" stroke="black" d="M 177 102 99 41"/>
<path stroke-width="0.5" stroke="black" d="M 177 102 234 100"/>
<path stroke-width="0.5" stroke="black" d="M 177 102 186 180"/>
<path stroke-width="0.5" stroke="black" d="M 177 102 363 194"/>
<path stroke-width="12.067796610169491" stroke="black" d="M 255 260 272 319"/>
<path stroke-width="0.9957627118644068" stroke="black" d="M 255 260 171 139"/>
<path stroke-width="0.5" stroke="black" d="M 255 260 334 157"/>
<path stroke-width="0.5" stroke="black" d="M 239 156 186 180"/>
<path stroke-width="18.016949152542374" stroke="black" d="M 420 202 363 194"/>
<path stroke-width="0.5" stroke="black" d="M 363 194 286 213"/>
<path stroke-width="0.5" stroke="black" d="M 363 194 239 156"/>
<path stroke-width="18.016949152542374" stroke="black" d="M 363 194 420 202"/>
<path stroke-width="0.5" stroke="black" d="M 363 194 212 267"/>
<path stroke-width="0.5" stroke="black" d="M 363 194 167 216"/>
<path stroke-width="0.5" stroke="black" d="M 363 194 334 157"/>
<path stroke-width="0.5" stroke="black" d="M 363 194 171 139"/>
<path stroke-width="0.5" stroke="black" d="M 363 194 255 260"/>
<path stroke-width="0.5" stroke="black" d="M 363 194 192 152"/>
<path stroke-width="0.5" stroke="black" d="M 363 194 326 244"/>
<path stroke-width="0.5" stroke="black" d="M 239 156 234 100"/>
<path stroke-width="0.5" stroke="black" d="M 363 194 149 246"/>
<path stroke-width="0.5" stroke="black" d="M 363 194 177 102"/>
<path stroke-width="0.5" stroke="black" d="M 363 194 234 100"/>
<path stroke-width="0.5" stroke="black" d="M 363 194 186 180"/>
<path stroke-width="16.694915254237287" stroke="black" d="M 193 320 212 267"/>
<path stroke-width="0.5" stroke="black" d="M 212 267 286 213"/>
<path stroke-width="0.5" stroke="black" d="M 212 267 239 156"/>
<path stroke-width="0.5" stroke="black" d="M 212 267 363 194"/>
<path stroke-width="16.694915254237287" stroke="black" d="M 212 267 193 320"/>
<path stroke-width="0.5" stroke="black" d="M 212 267 167 216"/>
<path stroke-width="0.5" stroke="black" d="M 212 267 334 157"/>
<path stroke-width="0.5" stroke="black" d="M 212 267 171 139"/>
<path stroke-width="0.5" stroke="black" d="M 212 267 255 260"/>
<path stroke-width="0.9957627118644068" stroke="black" d="M 363 194 328 117"/>
<path stroke-width="0.5" stroke="black" d="M 212 267 192 152"/>
<path stroke-width="0.9957627118644068" stroke="black" d="M 239 156 177 102"/>
<path stroke-width="0.5" stroke="black" d="M 239 156 149 246"/>
<path stroke-width="20.0" stroke="black" d="M 286 213 320 241"/>
<path stroke-width="0.5" stroke="black" d="M 286 213 239 156"/>
<path stroke-width="0.5" stroke="black" d="M 286 213 363 194"/>
<path stroke-width="0.5" stroke="black" d="M 286 213 212 267"/>
<path stroke-width="0.5" stroke="black" d="M 286 213 167 216"/>
<path stroke-width="0.5" stroke="black" d="M 286 213 334 157"/>
<path stroke-width="0.5" stroke="black" d="M 286 213 171 139"/>
<path stroke-width="0.5" stroke="black" d="M 286 213 255 260"/>
<path stroke-width="0.5" stroke="black" d="M 286 213 192 152"/>
<path stroke-width="0.5" stroke="black" d="M 286 213 326 244"/>
<path stroke-width="0.5" stroke="black" d="M 286 213 149 246"/>
<path stroke-width="0.5" stroke="black" d="M 286 213 328 117"/>
<path stroke-width="0.5" stroke="black" d="M 239 156 328 117"/>
<path stroke-width="0.5" stroke="black" d="M 286 213 177 102"/>
<path stroke-width="0.5" stroke="black" d="M 286 213 186 180"/>
<path stroke-width="19.338983050847457" stroke="black" d="M 264 150 239 156"/>
<path stroke-width="0.5" stroke="black" d="M 239 156 286 213"/>
<path stroke-width="19.338983050847457" stroke="black" d="M 239 156 264 150"/>
<path stroke-width="0.5" stroke="black" d="M 239 156 363 194"/>
<path stroke-width="0.5" stroke="black" d="M 239 156 212 267"/>
<path stroke-width="0.5" stroke="black" d="M 239 156 167 216"/>
<path stroke-width="0.5" stroke="black" d="M 239 156 334 157"/>
<path stroke-width="0.5" stroke="black" d="M 239 156 171 139"/>
<path stroke-width="0.5" stroke="black" d="M 239 156 255 260"/>
<path stroke-width="0.5" stroke="black" d="M 239 156 192 152"/>
<path stroke-width="0.5" stroke="black" d="M 239 156 326 244"/>
<path stroke-width="0.9957627118644068" stroke="black" d="M 286 213 234 100"/>
<path stroke-width="0.5" stroke="black" d="M 212 267 326 244"/>
<path stroke-width="0.9957627118644068" stroke="black" d="M 212 267 149 246"/>
<path stroke-width="0.5" stroke="black" d="M 212 267 328 117"/>
<path stroke-width="0.5" stroke="black" d="M 334 157 328 117"/>
<path stroke-width="0.5" stroke="black" d="M 334 157 177 102"/>
<path stroke-width="0.5" stroke="black" d="M 334 157 234 100"/>
<path stroke-width="0.5" stroke="black" d="M 334 157 186 180"/>
<path stroke-width="12.728813559322035" stroke="black" d="M 116 100 171 139"/>
<path stroke-width="0.5" stroke="black" d="M 171 139 286 213"/>
<path stroke-width="0.5" stroke="black" d="M 171 139 239 156"/>
<path stroke-width="0.5" stroke="black" d="M 171 139 363 194"/>
<path stroke-width="0.5" stroke="black" d="M 171 139 212 267"/>
<path stroke-width="0.5" stroke="black" d="M 171 139 167 216"/>
<path stroke-width="0.5" stroke="black" d="M 171 139 334 157"/>
<path stroke-width="12.728813559322035" stroke="black" d="M 171 139 116 100"/>
<path stroke-width="0.5" stroke="black" d="M 334 157 149 246"/>
<path stroke-width="0.9957627118644068" stroke="black" d="M 171 139 255 260"/>
<path stroke-width="0.5" stroke="black" d="M 171 139 326 244"/>
<path stroke-width="0.5" stroke="black" d="M 171 139 149 246"/>
<path stroke-width="0.5" stroke="black" d="M 171 139 328 117"/>
<path stroke-width="0.5" stroke="black" d="M 171 139 177 102"/>
<path stroke-width="0.5" stroke="black" d="M 171 139 234 100"/>
<path stroke-width="0.5" stroke="black" d="M 171 139 186 180"/>
<path stroke-width="12.067796610169491" stroke="black" d="M 272 319 255 260"/>
<path stroke-width="0.5" stroke="black" d="M 255 260 286 213"/>
<path stroke-width="0.5" stroke="black" d="M 255 260 239 156"/>
<path stroke-width="0.5" stroke="black" d="M 255 260 363 194"/>
<path stroke-width="0.5" stroke="black" d="M 255 260 212 267"/>
<path stroke-width="0.5" stroke="black" d="M 255 260 167 216"/>
<path stroke-width="0.5" stroke="black" d="M 171 139 192 152"/>
<path stroke-width="0.5" stroke="black" d="M 334 157 326 244"/>
<path stroke-width="0.9957627118644068" stroke="black" d="M 334 157 192 152"/>
<path stroke-width="0.5" stroke="black" d="M 334 157 255 260"/>
<path stroke-width="0.5" stroke="black" d="M 212 267 177 102"/>
<path stroke-width="0.5" stroke="black" d="M 212 267 234 100"/>
<path stroke-width="0.5" stroke="black" d="M 212 267 186 180"/>
<path stroke-width="15.372881355932204" stroke="black" d="M 106 230 167 216"/>
<path stroke-width="0.5" stroke="black" d="M 167 216 286 213"/>
<path stroke-width="0.5" stroke="black" d="M 167 216 239 156"/>
<path stroke-width="0.5" stroke="black" d="M 167 216 363 194"/>
<path stroke-width="0.5" stroke="black" d="M 167 216 212 267"/>
<path stroke-width="15.372881355932204" stroke="black" d="M 167 216 106 230"/>
<path stroke-width="0.5" stroke="black" d="M 167 216 334 157"/>
<path stroke-width="0.5" stroke="black" d="M 167 216 171 139"/>
<path stroke-width="0.5" stroke="black" d="M 167 216 255 260"/>
<path stroke-width="0.5" stroke="black" d="M 167 216 192 152"/>
<path stroke-width="0.9957627118644068" stroke="black" d="M 167 216 326 244"/>
<path stroke-width="0.5" stroke="black" d="M 167 216 149 246"/>
<path stroke-width="0.5" stroke="black" d="M 167 216 328 117"/>
<path stroke-width="0.5" stroke="black" d="M 167 216 177 102"/>
<path stroke-width="0.5" stroke="black" d="M 167 216 234 100"/>
<path stroke-width="0.5" stroke="black" d="M 167 216 186 180"/>
<path stroke-width="14.05084745762712" stroke="black" d="M 396 143 334 157"/>
<path stroke-width="0.5" stroke="black" d="M 334 157 286 213"/>
<path stroke-width="0.5" stroke="black" d="M 334 157 239 156"/>
<path stroke-width="0.5" stroke="black" d="M 334 157 363 194"/>
<path stroke-width="0.5" stroke="black" d="M 334 157 212 267"/>
<path stroke-width="0.5" stroke="black" d="M 334 157 167 216"/>
<path stroke-width="14.05084745762712" stroke="black" d="M 334 157 396 143"/>
<path stroke-width="0.5" stroke="black" d="M 334 157 171 139"/>
<path stroke-width="0.5" stroke="black" d="M 186 180 234 100"/>
<path stroke-width="1.4915254237288136" stroke="black" d="M 186 180 20 128"/>
<circle cx="320" cy="241" r="7.0" style="fill:red;stroke:black;stroke-width:1.0"/>
<circle cx="286" cy="213" r="7.0" style="fill:red;stroke:black;stroke-width:1.0"/>
<circle cx="264" cy="150" r="7.0" style="fill:green;stroke:black;stroke-width:1.0"/>
<circle cx="239" cy="156" r="7.0" style="fill:green;stroke:black;stroke-width:1.0"/>
<circle cx="420" cy="202" r="7.0" style="fill:orange;stroke:black;stroke-width:1.0"/>
<circle cx="363" cy="194" r="7.0" style="fill:orange;stroke:black;stroke-width:1.0"/>
<circle cx="193" cy="320" r="7.0" style="fill:purple;stroke:black;stroke-width:1.0"/>
<circle cx="212" cy="267" r="7.0" style="fill:purple;stroke:black;stroke-width:1.0"/>
<circle cx="106" cy="230" r="7.0" style="fill:yellow;stroke:black;stroke-width:1.0"/>
<circle cx="167" cy="216" r="7.0" style="fill:yellow;stroke:black;stroke-width:1.0"/>
<circle cx="396" cy="143" r="7.0" style="fill:fuchsia;stroke:black;stroke-width:1.0"/>
<circle cx="334" cy="157" r="7.0" style="fill:fuchsia;stroke:black;stroke-width:1.0"/>
<circle cx="116" cy="100" r="7.0" style="fill:olive;stroke:black;stroke-width:1.0"/>
<circle cx="171" cy="139" r="7.0" style="fill:olive;stroke:black;stroke-width:1.0"/>
<circle cx="272" cy="319" r="7.0" style="fill:aqua;stroke:black;stroke-width:1.0"/>
<circle cx="255" cy="260" r="7.0" style="fill:aqua;stroke:black;stroke-width:1.0"/>
<circle cx="124" cy="138" r="7.0" style="fill:brown;stroke:black;stroke-width:1.0"/>
<circle cx="192" cy="152" r="7.0" style="fill:brown;stroke:black;stroke-width:1.0"/>
<circle cx="392" cy="284" r="7.0" style="fill:blue;stroke:black;stroke-width:1.0"/>
<circle cx="326" cy="244" r="7.0" style="fill:blue;stroke:black;stroke-width:1.0"/>
<circle cx="69" cy="284" r="7.0" style="fill:red;stroke:black;stroke-width:1.0"/>
<circle cx="149" cy="246" r="7.0" style="fill:red;stroke:black;stroke-width:1.0"/>
<circle cx="396" cy="67" r="7.0" style="fill:orange;stroke:black;stroke-width:1.0"/>
<circle cx="328" cy="117" r="7.0" style="fill:orange;stroke:black;stroke-width:1.0"/>
<circle cx="99" cy="41" r="7.0" style="fill:green;stroke:black;stroke-width:1.0"/>
<circle cx="177" cy="102" r="7.0" style="fill:green;stroke:black;stroke-width:1.0"/>
<circle cx="200" cy="20" r="7.0" style="fill:blue;stroke:black;stroke-width:1.0"/>
<circle cx="234" cy="100" r="7.0" style="fill:blue;stroke:black;stroke-width:1.0"/>
<circle cx="20" cy="128" r="7.0" style="fill:blue;stroke:black;stroke-width:1.0"/>
<circle cx="186" cy="180" r="7.0" style="fill:blue;stroke:black;stroke-width:1.0"/>
</svg>
