<svg width="440" height="340" xmlns="http://www.w3.org/2000/svg">
<path stroke-width="20.0" stroke="black" d="M 70 212 133 209"/>
<path stroke-width="0.5" stroke="black" d="M 239 133 369 247"/>
<path stroke-width="0.5" stroke="black" d="M 239 133 114 258"/>
<path stroke-width="9.423728813559322" stroke="black" d="M 239 133 239 76"/>
<path stroke-width="0.5" stroke="black" d="M 239 133 359 178"/>
<path stroke-width="0.5" stroke="black" d="M 239 133 286 271"/>
<path stroke-width="0.5" stroke="black" d="M 239 133 119 180"/>
<path stroke-width="0.5" stroke="black" d="M 239 133 274 155"/>
<path stroke-width="0.5" stroke="black" d="M 239 133 307 144"/>
<path stroke-width="8.101694915254237" stroke="black" d="M 415 172 359 178"/>
<path stroke-width="0.5" stroke="black" d="M 359 178 133 209"/>
<path stroke-width="0.5" stroke="black" d="M 359 178 164 264"/>
<path stroke-width="0.5" stroke="black" d="M 359 178 241 219"/>
<path stroke-width="0.5" stroke="black" d="M 239 133 325 239"/>
<path stroke-width="0.9957627118644068" stroke="black" d="M 359 178 170 168"/>
<path stroke-width="0.5" stroke="black" d="M 359 178 216 280"/>
<path stroke-width="0.5" stroke="black" d="M 359 178 325 239"/>
<path stroke-width="0.5" stroke="black" d="M 359 178 369 247"/>
<path stroke-width="0.5" stroke="black" d="M 359 178 114 258"/>
<path stroke-width="0.5" stroke="black" d="M 359 178 239 133"/>
<path stroke-width="8.101694915254237" stroke="black" d="M 359 178 415 172"/>
<path stroke-width="0.5" stroke="black" d="M 359 178 286 271"/>
<path stroke-width="0.5" stroke="black" d="M 359 178 119 180"/>
<path stroke-width="0.5" stroke="black" d="M 359 178 274 155"/>
<path stroke-width="0.5" stroke="black" d="M 359 178 307 144"/>
<path stroke-width="6.779661016949152" stroke="black" d="M 324 319 286 271"/>
<path stroke-width="0.5" stroke="black" d="M 286 271 133 209"/>
<path stroke-width="0.5" stroke="black" d="M 359 178 188 142"/>
<path stroke-width="0.5" stroke="black" d="M 286 271 164 264"/>
<path stroke-width="0.5" stroke="black" d="M 239 133 216 280"/>
<path stroke-width="0.5" stroke="black" d="M 239 133 170 168"/>
<path stroke-width="0.5" stroke="black" d="M 369 247 239 133"/>
<path stroke-width="0.5" stroke="black" d="M 369 247 359 178"/>
<path stroke-width="0.5" stroke="black" d="M 369 247 286 271"/>
<path stroke-width="0.5" stroke="black" d="M 369 247 119 180"/>
<path stroke-width="0.5" stroke="black" d="M 369 247 274 155"/>
<path stroke-width="0.5" stroke="black" d="M 369 247 307 144"/>
<path stroke-width="10.745762711864407" stroke="black" d="M 73 277 114 258"/>
<path stroke-width="0.5" stroke="black" d="M 114 258 133 209"/>
<path stroke-width="0.5" stroke="black" d="M 114 258 164 264"/>
<path stroke-width="0.5" stroke="black" d="M 114 258 241 219"/>
<path stroke-width="0.5" stroke="black" d="M 114 258 170 168"/>
<path stroke-width="0.5" stroke="black" d="M 114 258 188 142"/>
<path stroke-width="0.9957627118644068" stroke="black" d="M 239 133 188 142"/>
<path stroke-width="0.9957627118644068" stroke="black" d="M 114 258 216 280"/>
<path stroke-width="0.5" stroke="black" d="M 114 258 369 247"/>
<path stroke-width="10.745762711864407" stroke="black" d="M 114 258 73 277"/>
<path stroke-width="0.5" stroke="black" d="M 114 258 239 133"/>
<path stroke-width="0.5" stroke="black" d="M 114 258 359 178"/>
<path stroke-width="0.5" stroke="black" d="M 114 258 286 271"/>
<path stroke-width="0.5" stroke="black" d="M 114 258 119 180"/>
<path stroke-width="0.5" stroke="black" d="M 114 258 274 155"/>
<path stroke-width="0.5" stroke="black" d="M 114 258 307 144"/>
<path stroke-width="9.423728813559322" stroke="black" d="M 239 76 239 133"/>
<path stroke-width="0.5" stroke="black" d="M 239 133 133 209"/>
<path stroke-width="0.5" stroke="black" d="M 239 133 164 264"/>
<path stroke-width="0.5" stroke="black" d="M 239 133 241 219"/>
<path stroke-width="0.5" stroke="black" d="M 114 258 325 239"/>
<path stroke-width="0.5" stroke="black" d="M 369 247 114 258"/>
<path stroke-width="0.9957627118644068" stroke="black" d="M 286 271 241 219"/>
<path stroke-width="0.5" stroke="black" d="M 286 271 188 142"/>
<path stroke-width="0.5" stroke="black" d="M 274 155 170 168"/>
<path stroke-width="0.5" stroke="black" d="M 274 155 188 142"/>
<path stroke-width="0.5" stroke="black" d="M 274 155 216 280"/>
<path stroke-width="0.5" stroke="black" d="M 274 155 325 239"/>
<path stroke-width="0.5" stroke="black" d="M 274 155 369 247"/>
<path stroke-width="0.5" stroke="black" d="M 274 155 114 258"/>
<path stroke-width="0.5" stroke="black" d="M 274 155 239 133"/>
<path stroke-width="0.5" stroke="black" d="M 274 155 359 178"/>
<path stroke-width="0.5" stroke="black" d="M 274 155 286 271"/>
<path stroke-width="0.5" stroke="black" d="M 274 155 119 180"/>
<path stroke-width="4.796610169491525" stroke="black" d="M 274 155 331 91"/>
<path stroke-width="0.5" stroke="black" d="M 274 155 307 144"/>
<path stroke-width="0.5" stroke="black" d="M 274 155 241 219"/>
<path stroke-width="1.4915254237288136" stroke="black" d="M 394 20 307 144"/>
<path stroke-width="0.5" stroke="black" d="M 307 144 164 264"/>
<path stroke-width="0.5" stroke="black" d="M 307 144 241 219"/>
<path stroke-width="0.5" stroke="black" d="M 307 144 170 168"/>
<path stroke-width="0.5" stroke="black" d="M 307 144 188 142"/>
<path stroke-width="0.5" stroke="black" d="M 307 144 216 280"/>
<path stroke-width="0.5" stroke="black" d="M 307 144 325 239"/>
<path stroke-width="0.5" stroke="black" d="M 307 144 369 247"/>
<path stroke-width="0.5" stroke="black" d="M 307 144 114 258"/>
<path stroke-width="0.5" stroke="black" d="M 307 144 239 133"/>
<path stroke-width="0.5" stroke="black" d="M 307 144 359 178"/>
<path stroke-width="0.5" stroke="black" d="M 307 144 286 271"/>
<path stroke-width="0.5" stroke="black" d="M 307 144 119 180"/>
<path stroke-width="0.5" stroke="black" d="M 307 144 133 209"/>
<path stroke-width="0.5" stroke="black" d="M 286 271 170 168"/>
<path stroke-width="0.5" stroke="black" d="M 274 155 164 264"/>
<path stroke-width="4.796610169491525" stroke="black" d="M 331 91 274 155"/>
<path stroke-width="0.5" stroke="black" d="M 286 271 216 280"/>
<path stroke-width="0.5" stroke="black" d="M 286 271 325 239"/>
<path stroke-width="0.5" stroke="black" d="M 286 271 369 247"/>
<path stroke-width="0.5" stroke="black" d="M 286 271 114 258"/>
<path stroke-width="0.5" stroke="black" d="M 286 271 239 133"/>
<path stroke-width="0.5" stroke="black" d="M 286 271 359 178"/>
<path stroke-width="6.779661016949152" stroke="black" d="M 286 271 324 319"/>
<path stroke-width="0.5" stroke="black" d="M 286 271 119 180"/>
<path stroke-width="0.5" stroke="black" d="M 286 271 274 155"/>
<path stroke-width="0.5" stroke="black" d="M 286 271 307 144"/>
<path stroke-width="5.4576271186440675" stroke="black" d="M 20 148 119 180"/>
<path stroke-width="0.5" stroke="black" d="M 119 180 133 209"/>
<path stroke-width="0.9957627118644068" stroke="black" d="M 274 155 133 209"/>
<path stroke-width="0.9957627118644068" stroke="black" d="M 119 180 164 264"/>
<path stroke-width="0.5" stroke="black" d="M 119 180 170 168"/>
<path stroke-width="0.5" stroke="black" d="M 119 180 188 142"/>
<path stroke-width="0.5" stroke="black" d="M 119 180 216 280"/>
<path stroke-width="0.5" stroke="black" d="M 119 180 325 239"/>
<path stroke-width="0.5" stroke="black" d="M 119 180 369 247"/>
<path stroke-width="0.5" stroke="black" d="M 119 180 114 258"/>
<path stroke-width="0.5" stroke="black" d="M 119 180 239 133"/>
<path stroke-width="0.5" stroke="black" d="M 119 180 359 178"/>
<path stroke-width="0.5" stroke="black" d="M 119 180 286 271"/>
<path stroke-width="5.4576271186440675" stroke="black" d="M 119 180 20 148"/>
<path stroke-width="0.5" stroke="black" d="M 119 180 274 155"/>
<path stroke-width="0.5" stroke="black" d="M 119 180 307 144"/>
<path stroke-width="0.5" stroke="black" d="M 119 180 241 219"/>
<path stroke-width="12.067796610169491" stroke="black" d="M 369 247 420 262"/>
<path stroke-width="0.9957627118644068" stroke="black" d="M 369 247 325 239"/>
<path stroke-width="0.5" stroke="black" d="M 369 247 216 280"/>
<path stroke-width="0.5" stroke="black" d="M 164 264 307 144"/>
<path stroke-width="18.016949152542374" stroke="black" d="M 256 229 241 219"/>
<path stroke-width="0.5" stroke="black" d="M 241 219 133 209"/>
<path stroke-width="0.5" stroke="black" d="M 241 219 164 264"/>
<path stroke-width="18.016949152542374" stroke="black" d="M 241 219 256 229"/>
<path stroke-width="0.5" stroke="black" d="M 241 219 170 168"/>
<path stroke-width="0.5" stroke="black" d="M 241 219 188 142"/>
<path stroke-width="0.5" stroke="black" d="M 241 219 216 280"/>
<path stroke-width="0.5" stroke="black" d="M 241 219 325 239"/>
<path stroke-width="0.5" stroke="black" d="M 241 219 369 247"/>
<path stroke-width="0.5" stroke="black" d="M 241 219 114 258"/>
<path stroke-width="0.5" stroke="black" d="M 241 219 239 133"/>
<path stroke-width="0.5" stroke="black" d="M 164 264 274 155"/>
<path stroke-width="0.5" stroke="black" d="M 241 219 359 178"/>
<path stroke-width="0.5" stroke="black" d="M 241 219 119 180"/>
<path stroke-width="0.5" stroke="black" d="M 241 219 274 155"/>
<path stroke-width="0.5" stroke="black" d="M 241 219 307 144"/>
<path stroke-width="16.694915254237287" stroke="black" d="M 121 145 170 168"/>
<path stroke-width="0.5" stroke="black" d="M 170 168 133 209"/>
<path stroke-width="0.5" stroke="black" d="M 170 168 164 264"/>
<path stroke-width="0.5" stroke="black" d="M 170 168 241 219"/>
<path stroke-width="16.694915254237287" stroke="black" d="M 170 168 121 145"/>
<path stroke-width="0.5" stroke="black" d="M 170 168 188 142"/>
<path stroke-width="0.5" stroke="black" d="M 170 168 216 280"/>
<path stroke-width="0.5" stroke="black" d="M 170 168 325 239"/>
<path stroke-width="0.5" stroke="black" d="M 170 168 369 247"/>
<path stroke-width="0.9957627118644068" stroke="black" d="M 241 219 286 271"/>
<path stroke-width="0.5" stroke="black" d="M 170 168 114 258"/>
<path stroke-width="0.9957627118644068" stroke="black" d="M 164 264 119 180"/>
<path stroke-width="0.5" stroke="black" d="M 164 264 359 178"/>
<path stroke-width="20.0" stroke="black" d="M 133 209 70 212"/>
<path stroke-width="0.5" stroke="black" d="M 133 209 164 264"/>
<path stroke-width="0.5" stroke="black" d="M 133 209 241 219"/>
<path stroke-width="0.5" stroke="black" d="M 133 209 170 168"/>
<path stroke-width="0.5" stroke="black" d="M 133 209 188 142"/>
<path stroke-width="0.5" stroke="black" d="M 133 209 216 280"/>
<path stroke-width="0.5" stroke="black" d="M 133 209 325 239"/>
<path stroke-width="0.5" stroke="black" d="M 133 209 369 247"/>
<path stroke-width="0.5" stroke="black" d="M 133 209 114 258"/>
<path stroke-width="0.5" stroke="black" d="M 133 209 239 133"/>
<path stroke-width="0.5" stroke="black" d="M 133 209 359 178"/>
<path stroke-width="0.5" stroke="black" d="M 133 209 286 271"/>
<path stroke-width="0.5" stroke="black" d="M 164 264 286 271"/>
<path stroke-width="0.5" stroke="black" d="M 133 209 119 180"/>
<path stroke-width="0.5" stroke="black" d="M 133 209 307 144"/>
<path stroke-width="19.338983050847457" stroke="black" d="M 140 289 164 264"/>
<path stroke-width="0.5" stroke="black" d="M 164 264 133 209"/>
<path stroke-width="19.338983050847457" stroke="black" d="M 164 264 140 289"/>
<path stroke-width="0.5" stroke="black" d="M 164 264 241 219"/>
<path stroke-width="0.5" stroke="black" d="M 164 264 170 168"/>
<path stroke-width="0.5" stroke="black" d="M 164 264 188 142"/>
<path stroke-width="0.5" stroke="black" d="M 164 264 216 280"/>
<path stroke-width="0.5" stroke="black" d="M 164 264 325 239"/>
<path stroke-width="0.5" stroke="black" d="M 164 264 369 247"/>
<path stroke-width="0.5" stroke="black" d="M 164 264 114 258"/>
<path stroke-width="0.5" stroke="black" d="M 164 264 239 133"/>
<path stroke-width="0.9957627118644068" stroke="black" d="M 133 209 274 155"/>
<path stroke-width="0.5" stroke="black" d="M 170 168 239 133"/>
<path stroke-width="0.9957627118644068" stroke="black" d="M 170 168 359 178"/>
<path stroke-width="0.5" stroke="black" d="M 170 168 286 271"/>
<path stroke-width="0.5" stroke="black" d="M 216 280 286 271"/>
<path stroke-width="0.5" stroke="black" d="M 216 280 119 180"/>
<path stroke-width="0.5" stroke="black" d="M 216 280 274 155"/>
<path stroke-width="0.5" stroke="black" d="M 216 280 307 144"/>
<path stroke-width="12.728813559322035" stroke="black" d="M 380 269 325 239"/>
<path stroke-width="0.5" stroke="black" d="M 325 239 133 209"/>
<path stroke-width="0.5" stroke="black" d="M 325 239 164 264"/>
<path stroke-width="0.5" stroke="black" d="M 325 239 241 219"/>
<path stroke-width="0.5" stroke="black" d="M 325 239 170 168"/>
<path stroke-width="0.5" stroke="black" d="M 325 239 188 142"/>
<path stroke-width="0.5" stroke="black" d="M 325 239 216 280"/>
<path stroke-width="12.728813559322035" stroke="black" d="M 325 239 380 269"/>
<path stroke-width="0.5" stroke="black" d="M 216 280 359 178"/>
<path stroke-width="0.9957627118644068" stroke="black" d="M 325 239 369 247"/>
<path stroke-width="0.5" stroke="black" d="M 325 239 239 133"/>
<path stroke-width="0.5" stroke="black" d="M 325 239 359 178"/>
<path stroke-width="0.5" stroke="black" d="M 325 239 286 271"/>
<path stroke-width="0.5" stroke="black" d="M 325 239 119 180"/>
<path stroke-width="0.5" stroke="black" d="M 325 239 274 155"/>
<path stroke-width="0.5" stroke="black" d="M 325 239 307 144"/>
<path stroke-width="12.067796610169491" stroke="black" d="M 420 262 369 247"/>
<path stroke-width="0.5" stroke="black" d="M 369 247 133 209"/>
<path stroke-width="0.5" stroke="black" d="M 369 247 164 264"/>
<path stroke-width="0.5" stroke="black" d="M 369 247 241 219"/>
<path stroke-width="0.5" stroke="black" d="M 369 247 170 168"/>
<path stroke-width="0.5" stroke="black" d="M 369 247 188 142"/>
<path stroke-width="0.5" stroke="black" d="M 325 239 114 258"/>
<path stroke-width="0.5" stroke="black" d="M 216 280 239 133"/>
<path stroke-width="0.9957627118644068" stroke="black" d="M 216 280 114 258"/>
<path stroke-width="0.5" stroke="black" d="M 216 280 369 247"/>
<path stroke-width="0.5" stroke="black" d="M 170 168 119 180"/>
<path stroke-width="0.5" stroke="black" d="M 170 168 274 155"/>
<path stroke-width="0.5" stroke="black" d="M 170 168 307 144"/>
<path stroke-width="15.372881355932204" stroke="black" d="M 157 100 188 142"/>
<path stroke-width="0.5" stroke="black" d="M 188 142 133 209"/>
<path stroke-width="0.5" stroke="black" d="M 188 142 164 264"/>
<path stroke-width="0.5" stroke="black" d="M 188 142 241 219"/>
<path stroke-width="0.5" stroke="black" d="M 188 142 170 168"/>
<path stroke-width="15.372881355932204" stroke="black" d="M 188 142 157 100"/>
<path stroke-width="0.5" stroke="black" d="M 188 142 216 280"/>
<path stroke-width="0.5" stroke="black" d="M 188 142 325 239"/>
<path stroke-width="0.5" stroke="black" d="M 188 142 369 247"/>
<path stroke-width="0.5" stroke="black" d="M 188 142 114 258"/>
<path stroke-width="0.9957627118644068" stroke="black" d="M 188 142 239 133"/>
<path stroke-width="0.5" stroke="black" d="M 188 142 359 178"/>
<path stroke-width="0.5" stroke="black" d="M 188 142 286 271"/>
<path stroke-width="0.5" stroke="black" d="M 188 142 119 180"/>
<path stroke-width="0.5" stroke="black" d="M 188 142 274 155"/>
<path stroke-width="0.5" stroke="black" d="M 188 142 307 144"/>
<path stroke-width="14.05084745762712" stroke="black" d="M 209 320 216 280"/>
<path stroke-width="0.5" stroke="black" d="M 216 280 133 209"/>
<path stroke-width="0.5" stroke="black" d="M 216 280 164 264"/>
<path stroke-width="0.5" stroke="black" d="M 216 280 241 219"/>
<path stroke-width="0.5" stroke="black" d="M 216 280 170 168"/>
<path stroke-width="0.5" stroke="black" d="M 216 280 188 142"/>
<path stroke-width="14.05084745762712" stroke="black" d="M 216 280 209 320"/>
<path stroke-width="0.5" stroke="black" d="M 216 280 325 239"/>
<path stroke-width="0.5" stroke="black" d="M 307 144 274 155"/>
<path stroke-width="1.4915254237288136" stroke="black" d="M 307 144 394 20"/>
<circle cx="70" cy="212" r="7.0" style="fill:gray;stroke:black;stroke-width:1.0"/>
<circle cx="133" cy="209" r="7.0" style="fill:gray;stroke:black;stroke-width:1.0"/>
<circle cx="140" cy="289" r="7.0" style="fill:gray;stroke:black;stroke-width:1.0"/>
<circle cx="164" cy="264" r="7.0" style="fill:gray;stroke:black;stroke-width:1.0"/>
<circle cx="256" cy="229" r="7.0" style="fill:gray;stroke:black;stroke-width:1.0"/>
<circle cx="241" cy="219" r="7.0" style="fill:gray;stroke:black;stroke-width:1.0"/>
<circle cx="121" cy="145" r="7.0" style="fill:gray;stroke:black;stroke-width:1.0"/>
<circle cx="170" cy="168" r="7.0" style="fill:gray;stroke:black;stroke-width:1.0"/>
<circle cx="157" cy="100" r="7.0" style="fill:gray;stroke:black;stroke-width:1.0"/>
<circle cx="188" cy="142" r="7.0" style="fill:gray;stroke:black;stroke-width:1.0"/>
<circle cx="209" cy="320" r="7.0" style="fill:gray;stroke:black;stroke-width:1.0"/>
<circle cx="216" cy="280" r="7.0" style="fill:gray;stroke:black;stroke-width:1.0"/>
<circle cx="380" cy="269" r="7.0" style="fill:gray;stroke:black;stroke-width:1.0"/>
<circle cx="325" cy="239" r="7.0" style="fill:gray;stroke:black;stroke-width:1.0"/>
<circle cx="420" cy="262" r="7.0" style="fill:gray;stroke:black;stroke-width:1.0"/>
<circle cx="369" cy="247" r="7.0" style="fill:gray;stroke:black;stroke-width:1.0"/>
<circle cx="73" cy="277" r="7.0" style="fill:gray;stroke:black;stroke-width:1.0"/>
<circle cx="114" cy="258" r="7.0" style="fill:gray;stroke:black;stroke-width:1.0"/>
<circle cx="239" cy="76" r="7.0" style="fill:gray;stroke:black;stroke-width:1.0"/>
<circle cx="239" cy="133" r="7.0" style="fill:gray;stroke:black;stroke-width:1.0"/>
<circle cx="415" cy="172" r="7.0" style="fill:gray;stroke:black;stroke-width:1.0"/>
<circle cx="359" cy="178" r="7.0" style="fill:gray;stroke:black;stroke-width:1.0"/>
<circle cx="324" cy="319" r="7.0" style="fill:gray;stroke:black;stroke-width:1.0"/>
<circle cx="286" cy="271" r="7.0" style="fill:gray;stroke:black;stroke-width:1.0"/>
<circle cx="20" cy="148" r="7.0" style="fill:gray;stroke:black;stroke-width:1.0"/>
<circle cx="119" cy="180" r="7.0" style="fill:gray;stroke:black;stroke-width:1.0"/>
<circle cx="331" cy="91" r="7.0" style="fill:gray;stroke:black;stroke-width:1.0"/>
<circle cx="274" cy="155" r="7.0" style="fill:gray;stroke:black;stroke-width:1.0"/>
<circle cx="394" cy="20" r="7.0" style="fill:gray;stroke:black;stroke-width:1.0"/>
<circle cx="307" cy="144" r="7.0" style="fill:gray;stroke:black;stroke-width:1.0"/>
</svg>
