<svg width="440" height="340" xmlns="http://www.w3.org/2000/svg">
<path stroke-width="1" stroke="black" d="M 303 154 290 174"/>
<path stroke-width="1" stroke="black" d="M 64 265 111 172"/>
<path stroke-width="1" stroke="black" d="M 64 265 266 80"/>
<path stroke-width="1" stroke="black" d="M 64 265 225 310"/>
<path stroke-width="1" stroke="black" d="M 64 265 242 39"/>
<path stroke-width="1" stroke="black" d="M 64 265 386 115"/>
<path stroke-width="1" stroke="black" d="M 64 265 296 320"/>
<path stroke-width="1" stroke="black" d="M 64 265 300 114"/>
<path stroke-width="1" stroke="black" d="M 64 265 384 260"/>
<path stroke-width="1" stroke="black" d="M 64 265 230 284"/>
<path stroke-width="1" stroke="black" d="M 64 265 337 251"/>
<path stroke-width="1" stroke="black" d="M 64 265 263 20"/>
<path stroke-width="1" stroke="black" d="M 64 265 20 129"/>
<path stroke-width="1" stroke="black" d="M 64 265 420 170"/>
<path stroke-width="1" stroke="black" d="M 64 265 396 108"/>
<path stroke-width="1" stroke="black" d="M 296 320 303 154"/>
<path stroke-width="1" stroke="black" d="M 296 320 290 174"/>
<path stroke-width="1" stroke="black" d="M 296 320 31 117"/>
<path stroke-width="1" stroke="black" d="M 296 320 37 226"/>
<path stroke-width="1" stroke="black" d="M 296 320 119 41"/>
<path stroke-width="1" stroke="black" d="M 64 265 392 248"/>
<path stroke-width="1" stroke="black" d="M 64 265 417 184"/>
<path stroke-width="1" stroke="black" d="M 64 265 361 57"/>
<path stroke-width="1" stroke="black" d="M 64 265 191 183"/>
<path stroke-width="1" stroke="black" d="M 386 115 242 39"/>
<path stroke-width="1" stroke="black" d="M 386 115 64 265"/>
<path stroke-width="1" stroke="black" d="M 386 115 296 320"/>
<path stroke-width="1" stroke="black" d="M 386 115 300 114"/>
<path stroke-width="1" stroke="black" d="M 386 115 384 260"/>
<path stroke-width="1" stroke="black" d="M 386 115 230 284"/>
<path stroke-width="1" stroke="black" d="M 386 115 337 251"/>
<path stroke-width="1" stroke="black" d="M 386 115 263 20"/>
<path stroke-width="1" stroke="black" d="M 386 115 20 129"/>
<path stroke-width="1" stroke="black" d="M 296 320 110 104"/>
<path stroke-width="1" stroke="black" d="M 386 115 420 170"/>
<path stroke-width="1" stroke="black" d="M 64 265 303 154"/>
<path stroke-width="1" stroke="black" d="M 64 265 290 174"/>
<path stroke-width="1" stroke="black" d="M 64 265 31 117"/>
<path stroke-width="1" stroke="black" d="M 64 265 37 226"/>
<path stroke-width="1" stroke="black" d="M 64 265 119 41"/>
<path stroke-width="1" stroke="black" d="M 64 265 110 104"/>
<path stroke-width="1" stroke="black" d="M 64 265 122 290"/>
<path stroke-width="1" stroke="black" d="M 64 265 22 223"/>
<path stroke-width="1" stroke="black" d="M 64 265 179 74"/>
<path stroke-width="1" stroke="black" d="M 386 115 396 108"/>
<path stroke-width="1" stroke="black" d="M 386 115 225 310"/>
<path stroke-width="1" stroke="black" d="M 296 320 122 290"/>
<path stroke-width="1" stroke="black" d="M 296 320 179 74"/>
<path stroke-width="1" stroke="black" d="M 300 114 122 290"/>
<path stroke-width="1" stroke="black" d="M 300 114 22 223"/>
<path stroke-width="1" stroke="black" d="M 300 114 179 74"/>
<path stroke-width="1" stroke="black" d="M 300 114 191 183"/>
<path stroke-width="1" stroke="black" d="M 300 114 361 57"/>
<path stroke-width="1" stroke="black" d="M 300 114 417 184"/>
<path stroke-width="1" stroke="black" d="M 300 114 392 248"/>
<path stroke-width="1" stroke="black" d="M 300 114 111 172"/>
<path stroke-width="1" stroke="black" d="M 300 114 266 80"/>
<path stroke-width="1" stroke="black" d="M 300 114 225 310"/>
<path stroke-width="1" stroke="black" d="M 300 114 242 39"/>
<path stroke-width="1" stroke="black" d="M 300 114 386 115"/>
<path stroke-width="1" stroke="black" d="M 300 114 64 265"/>
<path stroke-width="1" stroke="black" d="M 300 114 296 320"/>
<path stroke-width="1" stroke="black" d="M 300 114 384 260"/>
<path stroke-width="1" stroke="black" d="M 300 114 230 284"/>
<path stroke-width="1" stroke="black" d="M 300 114 337 251"/>
<path stroke-width="1" stroke="black" d="M 300 114 263 20"/>
<path stroke-width="1" stroke="black" d="M 300 114 20 129"/>
<path stroke-width="1" stroke="black" d="M 300 114 110 104"/>
<path stroke-width="1" stroke="black" d="M 300 114 119 41"/>
<path stroke-width="1" stroke="black" d="M 300 114 37 226"/>
<path stroke-width="1" stroke="black" d="M 300 114 31 117"/>
<path stroke-width="1" stroke="black" d="M 296 320 191 183"/>
<path stroke-width="1" stroke="black" d="M 296 320 361 57"/>
<path stroke-width="1" stroke="black" d="M 296 320 417 184"/>
<path stroke-width="1" stroke="black" d="M 296 320 392 248"/>
<path stroke-width="1" stroke="black" d="M 296 320 111 172"/>
<path stroke-width="1" stroke="black" d="M 296 320 266 80"/>
<path stroke-width="1" stroke="black" d="M 296 320 225 310"/>
<path stroke-width="1" stroke="black" d="M 296 320 242 39"/>
<path stroke-width="1" stroke="black" d="M 296 320 386 115"/>
<path stroke-width="1" stroke="black" d="M 296 320 22 223"/>
<path stroke-width="1" stroke="black" d="M 296 320 64 265"/>
<path stroke-width="1" stroke="black" d="M 296 320 384 260"/>
<path stroke-width="1" stroke="black" d="M 296 320 230 284"/>
<path stroke-width="1" stroke="black" d="M 296 320 337 251"/>
<path stroke-width="1" stroke="black" d="M 296 320 263 20"/>
<path stroke-width="1" stroke="black" d="M 296 320 20 129"/>
<path stroke-width="1" stroke="black" d="M 296 320 420 170"/>
<path stroke-width="1" stroke="black" d="M 296 320 396 108"/>
<path stroke-width="1" stroke="black" d="M 300 114 303 154"/>
<path stroke-width="1" stroke="black" d="M 300 114 290 174"/>
<path stroke-width="1" stroke="black" d="M 296 320 300 114"/>
<path stroke-width="1" stroke="black" d="M 300 114 420 170"/>
<path stroke-width="1" stroke="black" d="M 386 115 266 80"/>
<path stroke-width="1" stroke="black" d="M 386 115 392 248"/>
<path stroke-width="1" stroke="black" d="M 225 310 303 154"/>
<path stroke-width="1" stroke="black" d="M 225 310 290 174"/>
<path stroke-width="1" stroke="black" d="M 225 310 31 117"/>
<path stroke-width="1" stroke="black" d="M 225 310 37 226"/>
<path stroke-width="1" stroke="black" d="M 225 310 119 41"/>
<path stroke-width="1" stroke="black" d="M 225 310 110 104"/>
<path stroke-width="1" stroke="black" d="M 225 310 122 290"/>
<path stroke-width="1" stroke="black" d="M 225 310 22 223"/>
<path stroke-width="1" stroke="black" d="M 225 310 179 74"/>
<path stroke-width="1" stroke="black" d="M 225 310 191 183"/>
<path stroke-width="1" stroke="black" d="M 225 310 361 57"/>
<path stroke-width="1" stroke="black" d="M 225 310 417 184"/>
<path stroke-width="1" stroke="black" d="M 225 310 392 248"/>
<path stroke-width="1" stroke="black" d="M 225 310 111 172"/>
<path stroke-width="1" stroke="black" d="M 225 310 266 80"/>
<path stroke-width="1" stroke="black" d="M 225 310 242 39"/>
<path stroke-width="1" stroke="black" d="M 225 310 386 115"/>
<path stroke-width="1" stroke="black" d="M 225 310 64 265"/>
<path stroke-width="1" stroke="black" d="M 225 310 296 320"/>
<path stroke-width="1" stroke="black" d="M 266 80 396 108"/>
<path stroke-width="1" stroke="black" d="M 266 80 420 170"/>
<path stroke-width="1" stroke="black" d="M 266 80 20 129"/>
<path stroke-width="1" stroke="black" d="M 266 80 263 20"/>
<path stroke-width="1" stroke="black" d="M 266 80 37 226"/>
<path stroke-width="1" stroke="black" d="M 266 80 119 41"/>
<path stroke-width="1" stroke="black" d="M 266 80 110 104"/>
<path stroke-width="1" stroke="black" d="M 266 80 122 290"/>
<path stroke-width="1" stroke="black" d="M 266 80 22 223"/>
<path stroke-width="1" stroke="black" d="M 266 80 179 74"/>
<path stroke-width="1" stroke="black" d="M 266 80 191 183"/>
<path stroke-width="1" stroke="black" d="M 266 80 361 57"/>
<path stroke-width="1" stroke="black" d="M 266 80 417 184"/>
<path stroke-width="1" stroke="black" d="M 225 310 300 114"/>
<path stroke-width="1" stroke="black" d="M 266 80 392 248"/>
<path stroke-width="1" stroke="black" d="M 266 80 225 310"/>
<path stroke-width="1" stroke="black" d="M 266 80 242 39"/>
<path stroke-width="1" stroke="black" d="M 266 80 386 115"/>
<path stroke-width="1" stroke="black" d="M 266 80 64 265"/>
<path stroke-width="1" stroke="black" d="M 266 80 296 320"/>
<path stroke-width="1" stroke="black" d="M 266 80 300 114"/>
<path stroke-width="1" stroke="black" d="M 266 80 384 260"/>
<path stroke-width="1" stroke="black" d="M 266 80 230 284"/>
<path stroke-width="1" stroke="black" d="M 266 80 337 251"/>
<path stroke-width="1" stroke="black" d="M 266 80 111 172"/>
<path stroke-width="1" stroke="black" d="M 386 115 111 172"/>
<path stroke-width="1" stroke="black" d="M 225 310 384 260"/>
<path stroke-width="1" stroke="black" d="M 225 310 337 251"/>
<path stroke-width="1" stroke="black" d="M 242 39 384 260"/>
<path stroke-width="1" stroke="black" d="M 242 39 230 284"/>
<path stroke-width="1" stroke="black" d="M 242 39 337 251"/>
<path stroke-width="1" stroke="black" d="M 242 39 263 20"/>
<path stroke-width="1" stroke="black" d="M 242 39 20 129"/>
<path stroke-width="1" stroke="black" d="M 242 39 420 170"/>
<path stroke-width="1" stroke="black" d="M 242 39 396 108"/>
<path stroke-width="1" stroke="black" d="M 386 115 303 154"/>
<path stroke-width="1" stroke="black" d="M 386 115 290 174"/>
<path stroke-width="1" stroke="black" d="M 386 115 31 117"/>
<path stroke-width="1" stroke="black" d="M 386 115 37 226"/>
<path stroke-width="1" stroke="black" d="M 386 115 119 41"/>
<path stroke-width="1" stroke="black" d="M 386 115 110 104"/>
<path stroke-width="1" stroke="black" d="M 386 115 122 290"/>
<path stroke-width="1" stroke="black" d="M 386 115 22 223"/>
<path stroke-width="1" stroke="black" d="M 386 115 179 74"/>
<path stroke-width="1" stroke="black" d="M 386 115 191 183"/>
<path stroke-width="1" stroke="black" d="M 386 115 361 57"/>
<path stroke-width="1" stroke="black" d="M 386 115 417 184"/>
<path stroke-width="1" stroke="black" d="M 242 39 300 114"/>
<path stroke-width="1" stroke="black" d="M 242 39 296 320"/>
<path stroke-width="1" stroke="black" d="M 242 39 64 265"/>
<path stroke-width="1" stroke="black" d="M 242 39 386 115"/>
<path stroke-width="1" stroke="black" d="M 225 310 263 20"/>
<path stroke-width="1" stroke="black" d="M 225 310 20 129"/>
<path stroke-width="1" stroke="black" d="M 225 310 420 170"/>
<path stroke-width="1" stroke="black" d="M 225 310 396 108"/>
<path stroke-width="1" stroke="black" d="M 242 39 303 154"/>
<path stroke-width="1" stroke="black" d="M 242 39 290 174"/>
<path stroke-width="1" stroke="black" d="M 242 39 31 117"/>
<path stroke-width="1" stroke="black" d="M 242 39 37 226"/>
<path stroke-width="1" stroke="black" d="M 242 39 119 41"/>
<path stroke-width="1" stroke="black" d="M 225 310 230 284"/>
<path stroke-width="1" stroke="black" d="M 242 39 110 104"/>
<path stroke-width="1" stroke="black" d="M 242 39 22 223"/>
<path stroke-width="1" stroke="black" d="M 242 39 179 74"/>
<path stroke-width="1" stroke="black" d="M 242 39 191 183"/>
<path stroke-width="1" stroke="black" d="M 242 39 361 57"/>
<path stroke-width="1" stroke="black" d="M 242 39 417 184"/>
<path stroke-width="1" stroke="black" d="M 242 39 392 248"/>
<path stroke-width="1" stroke="black" d="M 242 39 111 172"/>
<path stroke-width="1" stroke="black" d="M 242 39 266 80"/>
<path stroke-width="1" stroke="black" d="M 242 39 225 310"/>
<path stroke-width="1" stroke="black" d="M 242 39 122 290"/>
<path stroke-width="1" stroke="black" d="M 300 114 396 108"/>
<path stroke-width="1" stroke="black" d="M 384 260 303 154"/>
<path stroke-width="1" stroke="black" d="M 384 260 290 174"/>
<path stroke-width="1" stroke="black" d="M 20 129 111 172"/>
<path stroke-width="1" stroke="black" d="M 20 129 266 80"/>
<path stroke-width="1" stroke="black" d="M 20 129 225 310"/>
<path stroke-width="1" stroke="black" d="M 20 129 242 39"/>
<path stroke-width="1" stroke="black" d="M 20 129 386 115"/>
<path stroke-width="1" stroke="black" d="M 20 129 64 265"/>
<path stroke-width="1" stroke="black" d="M 20 129 296 320"/>
<path stroke-width="1" stroke="black" d="M 20 129 300 114"/>
<path stroke-width="1" stroke="black" d="M 20 129 384 260"/>
<path stroke-width="1" stroke="black" d="M 20 129 230 284"/>
<path stroke-width="1" stroke="black" d="M 20 129 337 251"/>
<path stroke-width="1" stroke="black" d="M 20 129 263 20"/>
<path stroke-width="1" stroke="black" d="M 20 129 420 170"/>
<path stroke-width="1" stroke="black" d="M 20 129 396 108"/>
<path stroke-width="1" stroke="black" d="M 420 170 303 154"/>
<path stroke-width="1" stroke="black" d="M 420 170 290 174"/>
<path stroke-width="1" stroke="black" d="M 420 170 31 117"/>
<path stroke-width="1" stroke="black" d="M 420 170 37 226"/>
<path stroke-width="1" stroke="black" d="M 420 170 119 41"/>
<path stroke-width="1" stroke="black" d="M 20 129 392 248"/>
<path stroke-width="1" stroke="black" d="M 20 129 417 184"/>
<path stroke-width="1" stroke="black" d="M 20 129 361 57"/>
<path stroke-width="1" stroke="black" d="M 20 129 191 183"/>
<path stroke-width="1" stroke="black" d="M 263 20 242 39"/>
<path stroke-width="1" stroke="black" d="M 263 20 386 115"/>
<path stroke-width="1" stroke="black" d="M 263 20 64 265"/>
<path stroke-width="1" stroke="black" d="M 263 20 296 320"/>
<path stroke-width="1" stroke="black" d="M 263 20 300 114"/>
<path stroke-width="1" stroke="black" d="M 263 20 384 260"/>
<path stroke-width="1" stroke="black" d="M 263 20 230 284"/>
<path stroke-width="1" stroke="black" d="M 263 20 337 251"/>
<path stroke-width="1" stroke="black" d="M 263 20 20 129"/>
<path stroke-width="1" stroke="black" d="M 420 170 110 104"/>
<path stroke-width="1" stroke="black" d="M 263 20 420 170"/>
<path stroke-width="1" stroke="black" d="M 20 129 303 154"/>
<path stroke-width="1" stroke="black" d="M 20 129 290 174"/>
<path stroke-width="1" stroke="black" d="M 20 129 31 117"/>
<path stroke-width="1" stroke="black" d="M 20 129 37 226"/>
<path stroke-width="1" stroke="black" d="M 20 129 119 41"/>
<path stroke-width="1" stroke="black" d="M 20 129 110 104"/>
<path stroke-width="1" stroke="black" d="M 20 129 122 290"/>
<path stroke-width="1" stroke="black" d="M 20 129 22 223"/>
<path stroke-width="1" stroke="black" d="M 20 129 179 74"/>
<path stroke-width="1" stroke="black" d="M 263 20 396 108"/>
<path stroke-width="1" stroke="black" d="M 263 20 225 310"/>
<path stroke-width="1" stroke="black" d="M 420 170 122 290"/>
<path stroke-width="1" stroke="black" d="M 420 170 179 74"/>
<path stroke-width="1" stroke="black" d="M 396 108 122 290"/>
<path stroke-width="1" stroke="black" d="M 396 108 22 223"/>
<path stroke-width="1" stroke="black" d="M 396 108 179 74"/>
<path stroke-width="1" stroke="black" d="M 396 108 191 183"/>
<path stroke-width="1" stroke="black" d="M 396 108 361 57"/>
<path stroke-width="1" stroke="black" d="M 396 108 417 184"/>
<path stroke-width="1" stroke="black" d="M 396 108 392 248"/>
<path stroke-width="1" stroke="black" d="M 396 108 111 172"/>
<path stroke-width="1" stroke="black" d="M 396 108 266 80"/>
<path stroke-width="1" stroke="black" d="M 396 108 225 310"/>
<path stroke-width="1" stroke="black" d="M 396 108 242 39"/>
<path stroke-width="1" stroke="black" d="M 396 108 386 115"/>
<path stroke-width="1" stroke="black" d="M 396 108 64 265"/>
<path stroke-width="1" stroke="black" d="M 396 108 296 320"/>
<path stroke-width="1" stroke="black" d="M 396 108 300 114"/>
<path stroke-width="1" stroke="black" d="M 396 108 384 260"/>
<path stroke-width="1" stroke="black" d="M 396 108 230 284"/>
<path stroke-width="1" stroke="black" d="M 396 108 337 251"/>
<path stroke-width="1" stroke="black" d="M 396 108 263 20"/>
<path stroke-width="1" stroke="black" d="M 396 108 110 104"/>
<path stroke-width="1" stroke="black" d="M 396 108 119 41"/>
<path stroke-width="1" stroke="black" d="M 396 108 37 226"/>
<path stroke-width="1" stroke="black" d="M 396 108 31 117"/>
<path stroke-width="1" stroke="black" d="M 420 170 191 183"/>
<path stroke-width="1" stroke="black" d="M 420 170 361 57"/>
<path stroke-width="1" stroke="black" d="M 420 170 417 184"/>
<path stroke-width="1" stroke="black" d="M 420 170 392 248"/>
<path stroke-width="1" stroke="black" d="M 420 170 111 172"/>
<path stroke-width="1" stroke="black" d="M 420 170 266 80"/>
<path stroke-width="1" stroke="black" d="M 420 170 225 310"/>
<path stroke-width="1" stroke="black" d="M 420 170 242 39"/>
<path stroke-width="1" stroke="black" d="M 420 170 386 115"/>
<path stroke-width="1" stroke="black" d="M 420 170 22 223"/>
<path stroke-width="1" stroke="black" d="M 420 170 64 265"/>
<path stroke-width="1" stroke="black" d="M 420 170 300 114"/>
<path stroke-width="1" stroke="black" d="M 420 170 384 260"/>
<path stroke-width="1" stroke="black" d="M 420 170 230 284"/>
<path stroke-width="1" stroke="black" d="M 420 170 337 251"/>
<path stroke-width="1" stroke="black" d="M 420 170 263 20"/>
<path stroke-width="1" stroke="black" d="M 420 170 20 129"/>
<path stroke-width="1" stroke="black" d="M 420 170 396 108"/>
<path stroke-width="1" stroke="black" d="M 396 108 303 154"/>
<path stroke-width="1" stroke="black" d="M 396 108 290 174"/>
<path stroke-width="1" stroke="black" d="M 420 170 296 320"/>
<path stroke-width="1" stroke="black" d="M 263 20 266 80"/>
<path stroke-width="1" stroke="black" d="M 263 20 111 172"/>
<path stroke-width="1" stroke="black" d="M 263 20 392 248"/>
<path stroke-width="1" stroke="black" d="M 384 260 396 108"/>
<path stroke-width="1" stroke="black" d="M 230 284 303 154"/>
<path stroke-width="1" stroke="black" d="M 230 284 290 174"/>
<path stroke-width="1" stroke="black" d="M 230 284 31 117"/>
<path stroke-width="1" stroke="black" d="M 230 284 37 226"/>
<path stroke-width="1" stroke="black" d="M 230 284 119 41"/>
<path stroke-width="1" stroke="black" d="M 230 284 110 104"/>
<path stroke-width="1" stroke="black" d="M 230 284 122 290"/>
<path stroke-width="1" stroke="black" d="M 230 284 22 223"/>
<path stroke-width="1" stroke="black" d="M 230 284 179 74"/>
<path stroke-width="1" stroke="black" d="M 230 284 191 183"/>
<path stroke-width="1" stroke="black" d="M 230 284 361 57"/>
<path stroke-width="1" stroke="black" d="M 230 284 417 184"/>
<path stroke-width="1" stroke="black" d="M 230 284 392 248"/>
<path stroke-width="1" stroke="black" d="M 230 284 111 172"/>
<path stroke-width="1" stroke="black" d="M 230 284 266 80"/>
<path stroke-width="1" stroke="black" d="M 230 284 225 310"/>
<path stroke-width="1" stroke="black" d="M 230 284 242 39"/>
<path stroke-width="1" stroke="black" d="M 230 284 386 115"/>
<path stroke-width="1" stroke="black" d="M 384 260 420 170"/>
<path stroke-width="1" stroke="black" d="M 384 260 20 129"/>
<path stroke-width="1" stroke="black" d="M 384 260 263 20"/>
<path stroke-width="1" stroke="black" d="M 384 260 337 251"/>
<path stroke-width="1" stroke="black" d="M 384 260 31 117"/>
<path stroke-width="1" stroke="black" d="M 384 260 37 226"/>
<path stroke-width="1" stroke="black" d="M 384 260 119 41"/>
<path stroke-width="1" stroke="black" d="M 384 260 110 104"/>
<path stroke-width="1" stroke="black" d="M 384 260 122 290"/>
<path stroke-width="1" stroke="black" d="M 384 260 22 223"/>
<path stroke-width="1" stroke="black" d="M 384 260 179 74"/>
<path stroke-width="1" stroke="black" d="M 384 260 191 183"/>
<path stroke-width="1" stroke="black" d="M 384 260 361 57"/>
<path stroke-width="1" stroke="black" d="M 230 284 64 265"/>
<path stroke-width="1" stroke="black" d="M 384 260 417 184"/>
<path stroke-width="1" stroke="black" d="M 384 260 111 172"/>
<path stroke-width="1" stroke="black" d="M 384 260 266 80"/>
<path stroke-width="1" stroke="black" d="M 384 260 225 310"/>
<path stroke-width="1" stroke="black" d="M 384 260 242 39"/>
<path stroke-width="1" stroke="black" d="M 384 260 386 115"/>
<path stroke-width="1" stroke="black" d="M 384 260 64 265"/>
<path stroke-width="1" stroke="black" d="M 384 260 296 320"/>
<path stroke-width="1" stroke="black" d="M 384 260 300 114"/>
<path stroke-width="1" stroke="black" d="M 384 260 230 284"/>
<path stroke-width="1" stroke="black" d="M 384 260 392 248"/>
<path stroke-width="1" stroke="black" d="M 230 284 296 320"/>
<path stroke-width="1" stroke="black" d="M 230 284 300 114"/>
<path stroke-width="1" stroke="black" d="M 230 284 384 260"/>
<path stroke-width="1" stroke="black" d="M 337 251 296 320"/>
<path stroke-width="1" stroke="black" d="M 337 251 300 114"/>
<path stroke-width="1" stroke="black" d="M 337 251 384 260"/>
<path stroke-width="1" stroke="black" d="M 337 251 230 284"/>
<path stroke-width="1" stroke="black" d="M 337 251 263 20"/>
<path stroke-width="1" stroke="black" d="M 337 251 20 129"/>
<path stroke-width="1" stroke="black" d="M 337 251 420 170"/>
<path stroke-width="1" stroke="black" d="M 337 251 396 108"/>
<path stroke-width="1" stroke="black" d="M 263 20 303 154"/>
<path stroke-width="1" stroke="black" d="M 337 251 64 265"/>
<path stroke-width="1" stroke="black" d="M 263 20 290 174"/>
<path stroke-width="1" stroke="black" d="M 263 20 37 226"/>
<path stroke-width="1" stroke="black" d="M 263 20 119 41"/>
<path stroke-width="1" stroke="black" d="M 263 20 110 104"/>
<path stroke-width="1" stroke="black" d="M 263 20 122 290"/>
<path stroke-width="1" stroke="black" d="M 263 20 22 223"/>
<path stroke-width="1" stroke="black" d="M 263 20 179 74"/>
<path stroke-width="1" stroke="black" d="M 263 20 191 183"/>
<path stroke-width="1" stroke="black" d="M 263 20 361 57"/>
<path stroke-width="1" stroke="black" d="M 263 20 417 184"/>
<path stroke-width="1" stroke="black" d="M 263 20 31 117"/>
<path stroke-width="1" stroke="black" d="M 266 80 31 117"/>
<path stroke-width="1" stroke="black" d="M 337 251 386 115"/>
<path stroke-width="1" stroke="black" d="M 337 251 225 310"/>
<path stroke-width="1" stroke="black" d="M 230 284 337 251"/>
<path stroke-width="1" stroke="black" d="M 230 284 263 20"/>
<path stroke-width="1" stroke="black" d="M 230 284 20 129"/>
<path stroke-width="1" stroke="black" d="M 230 284 420 170"/>
<path stroke-width="1" stroke="black" d="M 230 284 396 108"/>
<path stroke-width="1" stroke="black" d="M 337 251 303 154"/>
<path stroke-width="1" stroke="black" d="M 337 251 290 174"/>
<path stroke-width="1" stroke="black" d="M 337 251 31 117"/>
<path stroke-width="1" stroke="black" d="M 337 251 37 226"/>
<path stroke-width="1" stroke="black" d="M 337 251 242 39"/>
<path stroke-width="1" stroke="black" d="M 337 251 119 41"/>
<path stroke-width="1" stroke="black" d="M 337 251 122 290"/>
<path stroke-width="1" stroke="black" d="M 337 251 22 223"/>
<path stroke-width="1" stroke="black" d="M 337 251 179 74"/>
<path stroke-width="1" stroke="black" d="M 337 251 191 183"/>
<path stroke-width="1" stroke="black" d="M 337 251 361 57"/>
<path stroke-width="1" stroke="black" d="M 337 251 417 184"/>
<path stroke-width="1" stroke="black" d="M 337 251 392 248"/>
<path stroke-width="1" stroke="black" d="M 337 251 111 172"/>
<path stroke-width="1" stroke="black" d="M 337 251 266 80"/>
<path stroke-width="1" stroke="black" d="M 337 251 110 104"/>
<path stroke-width="1" stroke="black" d="M 266 80 290 174"/>
<path stroke-width="1" stroke="black" d="M 266 80 303 154"/>
<path stroke-width="1" stroke="black" d="M 111 172 396 108"/>
<path stroke-width="1" stroke="black" d="M 119 41 225 310"/>
<path stroke-width="1" stroke="black" d="M 119 41 242 39"/>
<path stroke-width="1" stroke="black" d="M 119 41 386 115"/>
<path stroke-width="1" stroke="black" d="M 119 41 64 265"/>
<path stroke-width="1" stroke="black" d="M 119 41 296 320"/>
<path stroke-width="1" stroke="black" d="M 119 41 300 114"/>
<path stroke-width="1" stroke="black" d="M 119 41 384 260"/>
<path stroke-width="1" stroke="black" d="M 119 41 230 284"/>
<path stroke-width="1" stroke="black" d="M 119 41 337 251"/>
<path stroke-width="1" stroke="black" d="M 119 41 263 20"/>
<path stroke-width="1" stroke="black" d="M 119 41 20 129"/>
<path stroke-width="1" stroke="black" d="M 119 41 420 170"/>
<path stroke-width="1" stroke="black" d="M 119 41 396 108"/>
<path stroke-width="1" stroke="black" d="M 110 104 303 154"/>
<path stroke-width="1" stroke="black" d="M 110 104 290 174"/>
<path stroke-width="1" stroke="black" d="M 110 104 31 117"/>
<path stroke-width="1" stroke="black" d="M 110 104 37 226"/>
<path stroke-width="1" stroke="black" d="M 110 104 119 41"/>
<path stroke-width="1" stroke="black" d="M 110 104 122 290"/>
<path stroke-width="1" stroke="black" d="M 119 41 266 80"/>
<path stroke-width="1" stroke="black" d="M 119 41 111 172"/>
<path stroke-width="1" stroke="black" d="M 119 41 392 248"/>
<path stroke-width="1" stroke="black" d="M 119 41 417 184"/>
<path stroke-width="1" stroke="black" d="M 37 226 386 115"/>
<path stroke-width="1" stroke="black" d="M 37 226 64 265"/>
<path stroke-width="1" stroke="black" d="M 37 226 296 320"/>
<path stroke-width="1" stroke="black" d="M 37 226 300 114"/>
<path stroke-width="1" stroke="black" d="M 37 226 384 260"/>
<path stroke-width="1" stroke="black" d="M 37 226 230 284"/>
<path stroke-width="1" stroke="black" d="M 37 226 337 251"/>
<path stroke-width="1" stroke="black" d="M 37 226 263 20"/>
<path stroke-width="1" stroke="black" d="M 37 226 20 129"/>
<path stroke-width="1" stroke="black" d="M 110 104 22 223"/>
<path stroke-width="1" stroke="black" d="M 37 226 420 170"/>
<path stroke-width="1" stroke="black" d="M 119 41 303 154"/>
<path stroke-width="1" stroke="black" d="M 119 41 290 174"/>
<path stroke-width="1" stroke="black" d="M 119 41 37 226"/>
<path stroke-width="1" stroke="black" d="M 119 41 110 104"/>
<path stroke-width="1" stroke="black" d="M 119 41 122 290"/>
<path stroke-width="1" stroke="black" d="M 119 41 22 223"/>
<path stroke-width="1" stroke="black" d="M 119 41 179 74"/>
<path stroke-width="1" stroke="black" d="M 119 41 191 183"/>
<path stroke-width="1" stroke="black" d="M 119 41 361 57"/>
<path stroke-width="1" stroke="black" d="M 37 226 396 108"/>
<path stroke-width="1" stroke="black" d="M 37 226 242 39"/>
<path stroke-width="1" stroke="black" d="M 110 104 179 74"/>
<path stroke-width="1" stroke="black" d="M 110 104 361 57"/>
<path stroke-width="1" stroke="black" d="M 122 290 179 74"/>
<path stroke-width="1" stroke="black" d="M 122 290 191 183"/>
<path stroke-width="1" stroke="black" d="M 122 290 361 57"/>
<path stroke-width="1" stroke="black" d="M 122 290 417 184"/>
<path stroke-width="1" stroke="black" d="M 122 290 392 248"/>
<path stroke-width="1" stroke="black" d="M 122 290 111 172"/>
<path stroke-width="1" stroke="black" d="M 122 290 266 80"/>
<path stroke-width="1" stroke="black" d="M 122 290 225 310"/>
<path stroke-width="1" stroke="black" d="M 122 290 242 39"/>
<path stroke-width="1" stroke="black" d="M 122 290 386 115"/>
<path stroke-width="1" stroke="black" d="M 122 290 64 265"/>
<path stroke-width="1" stroke="black" d="M 122 290 296 320"/>
<path stroke-width="1" stroke="black" d="M 122 290 300 114"/>
<path stroke-width="1" stroke="black" d="M 122 290 384 260"/>
<path stroke-width="1" stroke="black" d="M 122 290 230 284"/>
<path stroke-width="1" stroke="black" d="M 122 290 337 251"/>
<path stroke-width="1" stroke="black" d="M 122 290 263 20"/>
<path stroke-width="1" stroke="black" d="M 122 290 20 129"/>
<path stroke-width="1" stroke="black" d="M 122 290 420 170"/>
<path stroke-width="1" stroke="black" d="M 122 290 22 223"/>
<path stroke-width="1" stroke="black" d="M 122 290 110 104"/>
<path stroke-width="1" stroke="black" d="M 122 290 119 41"/>
<path stroke-width="1" stroke="black" d="M 122 290 37 226"/>
<path stroke-width="1" stroke="black" d="M 110 104 417 184"/>
<path stroke-width="1" stroke="black" d="M 110 104 392 248"/>
<path stroke-width="1" stroke="black" d="M 110 104 111 172"/>
<path stroke-width="1" stroke="black" d="M 110 104 266 80"/>
<path stroke-width="1" stroke="black" d="M 110 104 225 310"/>
<path stroke-width="1" stroke="black" d="M 110 104 242 39"/>
<path stroke-width="1" stroke="black" d="M 110 104 386 115"/>
<path stroke-width="1" stroke="black" d="M 110 104 64 265"/>
<path stroke-width="1" stroke="black" d="M 110 104 296 320"/>
<path stroke-width="1" stroke="black" d="M 110 104 191 183"/>
<path stroke-width="1" stroke="black" d="M 110 104 300 114"/>
<path stroke-width="1" stroke="black" d="M 110 104 230 284"/>
<path stroke-width="1" stroke="black" d="M 110 104 337 251"/>
<path stroke-width="1" stroke="black" d="M 110 104 263 20"/>
<path stroke-width="1" stroke="black" d="M 110 104 20 129"/>
<path stroke-width="1" stroke="black" d="M 110 104 420 170"/>
<path stroke-width="1" stroke="black" d="M 110 104 396 108"/>
<path stroke-width="1" stroke="black" d="M 122 290 303 154"/>
<path stroke-width="1" stroke="black" d="M 122 290 290 174"/>
<path stroke-width="1" stroke="black" d="M 122 290 31 117"/>
<path stroke-width="1" stroke="black" d="M 110 104 384 260"/>
<path stroke-width="1" stroke="black" d="M 37 226 225 310"/>
<path stroke-width="1" stroke="black" d="M 37 226 266 80"/>
<path stroke-width="1" stroke="black" d="M 37 226 111 172"/>
<path stroke-width="1" stroke="black" d="M 303 154 420 170"/>
<path stroke-width="1" stroke="black" d="M 303 154 396 108"/>
<path stroke-width="1" stroke="black" d="M 290 174 303 154"/>
<path stroke-width="1" stroke="black" d="M 290 174 31 117"/>
<path stroke-width="1" stroke="black" d="M 290 174 37 226"/>
<path stroke-width="1" stroke="black" d="M 290 174 119 41"/>
<path stroke-width="1" stroke="black" d="M 290 174 110 104"/>
<path stroke-width="1" stroke="black" d="M 290 174 122 290"/>
<path stroke-width="1" stroke="black" d="M 290 174 22 223"/>
<path stroke-width="1" stroke="black" d="M 290 174 179 74"/>
<path stroke-width="1" stroke="black" d="M 290 174 191 183"/>
<path stroke-width="1" stroke="black" d="M 290 174 361 57"/>
<path stroke-width="1" stroke="black" d="M 290 174 417 184"/>
<path stroke-width="1" stroke="black" d="M 290 174 392 248"/>
<path stroke-width="1" stroke="black" d="M 290 174 111 172"/>
<path stroke-width="1" stroke="black" d="M 290 174 266 80"/>
<path stroke-width="1" stroke="black" d="M 290 174 225 310"/>
<path stroke-width="1" stroke="black" d="M 290 174 242 39"/>
<path stroke-width="1" stroke="black" d="M 290 174 386 115"/>
<path stroke-width="1" stroke="black" d="M 303 154 20 129"/>
<path stroke-width="1" stroke="black" d="M 303 154 263 20"/>
<path stroke-width="1" stroke="black" d="M 303 154 337 251"/>
<path stroke-width="1" stroke="black" d="M 303 154 230 284"/>
<path stroke-width="1" stroke="black" d="M 303 154 31 117"/>
<path stroke-width="1" stroke="black" d="M 303 154 37 226"/>
<path stroke-width="1" stroke="black" d="M 303 154 119 41"/>
<path stroke-width="1" stroke="black" d="M 303 154 110 104"/>
<path stroke-width="1" stroke="black" d="M 303 154 122 290"/>
<path stroke-width="1" stroke="black" d="M 303 154 22 223"/>
<path stroke-width="1" stroke="black" d="M 303 154 179 74"/>
<path stroke-width="1" stroke="black" d="M 303 154 191 183"/>
<path stroke-width="1" stroke="black" d="M 303 154 361 57"/>
<path stroke-width="1" stroke="black" d="M 290 174 64 265"/>
<path stroke-width="1" stroke="black" d="M 303 154 417 184"/>
<path stroke-width="1" stroke="black" d="M 303 154 111 172"/>
<path stroke-width="1" stroke="black" d="M 303 154 266 80"/>
<path stroke-width="1" stroke="black" d="M 303 154 225 310"/>
<path stroke-width="1" stroke="black" d="M 303 154 242 39"/>
<path stroke-width="1" stroke="black" d="M 303 154 386 115"/>
<path stroke-width="1" stroke="black" d="M 303 154 64 265"/>
<path stroke-width="1" stroke="black" d="M 303 154 296 320"/>
<path stroke-width="1" stroke="black" d="M 303 154 300 114"/>
<path stroke-width="1" stroke="black" d="M 303 154 384 260"/>
<path stroke-width="1" stroke="black" d="M 303 154 392 248"/>
<path stroke-width="1" stroke="black" d="M 290 174 296 320"/>
<path stroke-width="1" stroke="black" d="M 290 174 300 114"/>
<path stroke-width="1" stroke="black" d="M 290 174 384 260"/>
<path stroke-width="1" stroke="black" d="M 31 117 300 114"/>
<path stroke-width="1" stroke="black" d="M 31 117 384 260"/>
<path stroke-width="1" stroke="black" d="M 31 117 230 284"/>
<path stroke-width="1" stroke="black" d="M 31 117 337 251"/>
<path stroke-width="1" stroke="black" d="M 31 117 263 20"/>
<path stroke-width="1" stroke="black" d="M 31 117 20 129"/>
<path stroke-width="1" stroke="black" d="M 31 117 420 170"/>
<path stroke-width="1" stroke="black" d="M 31 117 396 108"/>
<path stroke-width="1" stroke="black" d="M 37 226 303 154"/>
<path stroke-width="1" stroke="black" d="M 31 117 296 320"/>
<path stroke-width="1" stroke="black" d="M 37 226 290 174"/>
<path stroke-width="1" stroke="black" d="M 37 226 119 41"/>
<path stroke-width="1" stroke="black" d="M 37 226 110 104"/>
<path stroke-width="1" stroke="black" d="M 37 226 122 290"/>
<path stroke-width="1" stroke="black" d="M 37 226 22 223"/>
<path stroke-width="1" stroke="black" d="M 37 226 179 74"/>
<path stroke-width="1" stroke="black" d="M 37 226 191 183"/>
<path stroke-width="1" stroke="black" d="M 37 226 361 57"/>
<path stroke-width="1" stroke="black" d="M 37 226 417 184"/>
<path stroke-width="1" stroke="black" d="M 37 226 392 248"/>
<path stroke-width="1" stroke="black" d="M 37 226 31 117"/>
<path stroke-width="1" stroke="black" d="M 122 290 396 108"/>
<path stroke-width="1" stroke="black" d="M 31 117 64 265"/>
<path stroke-width="1" stroke="black" d="M 31 117 242 39"/>
<path stroke-width="1" stroke="black" d="M 290 174 230 284"/>
<path stroke-width="1" stroke="black" d="M 290 174 337 251"/>
<path stroke-width="1" stroke="black" d="M 290 174 263 20"/>
<path stroke-width="1" stroke="black" d="M 290 174 20 129"/>
<path stroke-width="1" stroke="black" d="M 290 174 420 170"/>
<path stroke-width="1" stroke="black" d="M 290 174 396 108"/>
<path stroke-width="1" stroke="black" d="M 31 117 303 154"/>
<path stroke-width="1" stroke="black" d="M 31 117 290 174"/>
<path stroke-width="1" stroke="black" d="M 31 117 37 226"/>
<path stroke-width="1" stroke="black" d="M 31 117 386 115"/>
<path stroke-width="1" stroke="black" d="M 31 117 110 104"/>
<path stroke-width="1" stroke="black" d="M 31 117 22 223"/>
<path stroke-width="1" stroke="black" d="M 31 117 179 74"/>
<path stroke-width="1" stroke="black" d="M 31 117 191 183"/>
<path stroke-width="1" stroke="black" d="M 31 117 361 57"/>
<path stroke-width="1" stroke="black" d="M 31 117 417 184"/>
<path stroke-width="1" stroke="black" d="M 31 117 392 248"/>
<path stroke-width="1" stroke="black" d="M 31 117 111 172"/>
<path stroke-width="1" stroke="black" d="M 31 117 266 80"/>
<path stroke-width="1" stroke="black" d="M 31 117 225 310"/>
<path stroke-width="1" stroke="black" d="M 31 117 122 290"/>
<path stroke-width="1" stroke="black" d="M 396 108 20 129"/>
<path stroke-width="1" stroke="black" d="M 22 223 303 154"/>
<path stroke-width="1" stroke="black" d="M 22 223 31 117"/>
<path stroke-width="1" stroke="black" d="M 417 184 225 310"/>
<path stroke-width="1" stroke="black" d="M 417 184 242 39"/>
<path stroke-width="1" stroke="black" d="M 417 184 386 115"/>
<path stroke-width="1" stroke="black" d="M 417 184 64 265"/>
<path stroke-width="1" stroke="black" d="M 417 184 296 320"/>
<path stroke-width="1" stroke="black" d="M 417 184 300 114"/>
<path stroke-width="1" stroke="black" d="M 417 184 384 260"/>
<path stroke-width="1" stroke="black" d="M 417 184 230 284"/>
<path stroke-width="1" stroke="black" d="M 417 184 337 251"/>
<path stroke-width="1" stroke="black" d="M 417 184 263 20"/>
<path stroke-width="1" stroke="black" d="M 417 184 20 129"/>
<path stroke-width="1" stroke="black" d="M 417 184 420 170"/>
<path stroke-width="1" stroke="black" d="M 417 184 396 108"/>
<path stroke-width="1" stroke="black" d="M 392 248 303 154"/>
<path stroke-width="1" stroke="black" d="M 392 248 290 174"/>
<path stroke-width="1" stroke="black" d="M 392 248 31 117"/>
<path stroke-width="1" stroke="black" d="M 392 248 37 226"/>
<path stroke-width="1" stroke="black" d="M 392 248 119 41"/>
<path stroke-width="1" stroke="black" d="M 392 248 110 104"/>
<path stroke-width="1" stroke="black" d="M 417 184 266 80"/>
<path stroke-width="1" stroke="black" d="M 417 184 111 172"/>
<path stroke-width="1" stroke="black" d="M 417 184 392 248"/>
<path stroke-width="1" stroke="black" d="M 417 184 361 57"/>
<path stroke-width="1" stroke="black" d="M 361 57 64 265"/>
<path stroke-width="1" stroke="black" d="M 361 57 296 320"/>
<path stroke-width="1" stroke="black" d="M 361 57 300 114"/>
<path stroke-width="1" stroke="black" d="M 361 57 384 260"/>
<path stroke-width="1" stroke="black" d="M 361 57 230 284"/>
<path stroke-width="1" stroke="black" d="M 361 57 337 251"/>
<path stroke-width="1" stroke="black" d="M 361 57 263 20"/>
<path stroke-width="1" stroke="black" d="M 361 57 20 129"/>
<path stroke-width="1" stroke="black" d="M 361 57 420 170"/>
<path stroke-width="1" stroke="black" d="M 392 248 122 290"/>
<path stroke-width="1" stroke="black" d="M 361 57 396 108"/>
<path stroke-width="1" stroke="black" d="M 417 184 290 174"/>
<path stroke-width="1" stroke="black" d="M 417 184 31 117"/>
<path stroke-width="1" stroke="black" d="M 417 184 37 226"/>
<path stroke-width="1" stroke="black" d="M 417 184 119 41"/>
<path stroke-width="1" stroke="black" d="M 417 184 110 104"/>
<path stroke-width="1" stroke="black" d="M 417 184 122 290"/>
<path stroke-width="1" stroke="black" d="M 417 184 22 223"/>
<path stroke-width="1" stroke="black" d="M 417 184 179 74"/>
<path stroke-width="1" stroke="black" d="M 417 184 191 183"/>
<path stroke-width="1" stroke="black" d="M 417 184 303 154"/>
<path stroke-width="1" stroke="black" d="M 361 57 386 115"/>
<path stroke-width="1" stroke="black" d="M 392 248 22 223"/>
<path stroke-width="1" stroke="black" d="M 392 248 191 183"/>
<path stroke-width="1" stroke="black" d="M 111 172 22 223"/>
<path stroke-width="1" stroke="black" d="M 111 172 179 74"/>
<path stroke-width="1" stroke="black" d="M 111 172 191 183"/>
<path stroke-width="1" stroke="black" d="M 111 172 361 57"/>
<path stroke-width="1" stroke="black" d="M 111 172 417 184"/>
<path stroke-width="1" stroke="black" d="M 111 172 392 248"/>
<path stroke-width="1" stroke="black" d="M 111 172 266 80"/>
<path stroke-width="1" stroke="black" d="M 111 172 225 310"/>
<path stroke-width="1" stroke="black" d="M 111 172 242 39"/>
<path stroke-width="1" stroke="black" d="M 111 172 386 115"/>
<path stroke-width="1" stroke="black" d="M 111 172 64 265"/>
<path stroke-width="1" stroke="black" d="M 111 172 296 320"/>
<path stroke-width="1" stroke="black" d="M 111 172 300 114"/>
<path stroke-width="1" stroke="black" d="M 111 172 384 260"/>
<path stroke-width="1" stroke="black" d="M 111 172 230 284"/>
<path stroke-width="1" stroke="black" d="M 111 172 337 251"/>
<path stroke-width="1" stroke="black" d="M 111 172 263 20"/>
<path stroke-width="1" stroke="black" d="M 111 172 20 129"/>
<path stroke-width="1" stroke="black" d="M 111 172 420 170"/>
<path stroke-width="1" stroke="black" d="M 111 172 122 290"/>
<path stroke-width="1" stroke="black" d="M 111 172 110 104"/>
<path stroke-width="1" stroke="black" d="M 111 172 119 41"/>
<path stroke-width="1" stroke="black" d="M 111 172 37 226"/>
<path stroke-width="1" stroke="black" d="M 392 248 361 57"/>
<path stroke-width="1" stroke="black" d="M 392 248 417 184"/>
<path stroke-width="1" stroke="black" d="M 392 248 111 172"/>
<path stroke-width="1" stroke="black" d="M 392 248 266 80"/>
<path stroke-width="1" stroke="black" d="M 392 248 225 310"/>
<path stroke-width="1" stroke="black" d="M 392 248 242 39"/>
<path stroke-width="1" stroke="black" d="M 392 248 386 115"/>
<path stroke-width="1" stroke="black" d="M 392 248 64 265"/>
<path stroke-width="1" stroke="black" d="M 392 248 296 320"/>
<path stroke-width="1" stroke="black" d="M 392 248 179 74"/>
<path stroke-width="1" stroke="black" d="M 392 248 300 114"/>
<path stroke-width="1" stroke="black" d="M 392 248 230 284"/>
<path stroke-width="1" stroke="black" d="M 392 248 337 251"/>
<path stroke-width="1" stroke="black" d="M 392 248 263 20"/>
<path stroke-width="1" stroke="black" d="M 392 248 20 129"/>
<path stroke-width="1" stroke="black" d="M 392 248 420 170"/>
<path stroke-width="1" stroke="black" d="M 392 248 396 108"/>
<path stroke-width="1" stroke="black" d="M 111 172 303 154"/>
<path stroke-width="1" stroke="black" d="M 111 172 290 174"/>
<path stroke-width="1" stroke="black" d="M 111 172 31 117"/>
<path stroke-width="1" stroke="black" d="M 392 248 384 260"/>
<path stroke-width="1" stroke="black" d="M 361 57 242 39"/>
<path stroke-width="1" stroke="black" d="M 361 57 225 310"/>
<path stroke-width="1" stroke="black" d="M 361 57 266 80"/>
<path stroke-width="1" stroke="black" d="M 179 74 303 154"/>
<path stroke-width="1" stroke="black" d="M 179 74 290 174"/>
<path stroke-width="1" stroke="black" d="M 179 74 31 117"/>
<path stroke-width="1" stroke="black" d="M 179 74 37 226"/>
<path stroke-width="1" stroke="black" d="M 179 74 119 41"/>
<path stroke-width="1" stroke="black" d="M 179 74 110 104"/>
<path stroke-width="1" stroke="black" d="M 179 74 122 290"/>
<path stroke-width="1" stroke="black" d="M 179 74 22 223"/>
<path stroke-width="1" stroke="black" d="M 179 74 191 183"/>
<path stroke-width="1" stroke="black" d="M 179 74 361 57"/>
<path stroke-width="1" stroke="black" d="M 179 74 417 184"/>
<path stroke-width="1" stroke="black" d="M 179 74 392 248"/>
<path stroke-width="1" stroke="black" d="M 179 74 111 172"/>
<path stroke-width="1" stroke="black" d="M 179 74 266 80"/>
<path stroke-width="1" stroke="black" d="M 179 74 225 310"/>
<path stroke-width="1" stroke="black" d="M 179 74 242 39"/>
<path stroke-width="1" stroke="black" d="M 179 74 386 115"/>
<path stroke-width="1" stroke="black" d="M 179 74 64 265"/>
<path stroke-width="1" stroke="black" d="M 179 74 296 320"/>
<path stroke-width="1" stroke="black" d="M 22 223 396 108"/>
<path stroke-width="1" stroke="black" d="M 22 223 420 170"/>
<path stroke-width="1" stroke="black" d="M 22 223 20 129"/>
<path stroke-width="1" stroke="black" d="M 22 223 263 20"/>
<path stroke-width="1" stroke="black" d="M 22 223 37 226"/>
<path stroke-width="1" stroke="black" d="M 22 223 119 41"/>
<path stroke-width="1" stroke="black" d="M 22 223 110 104"/>
<path stroke-width="1" stroke="black" d="M 22 223 122 290"/>
<path stroke-width="1" stroke="black" d="M 22 223 179 74"/>
<path stroke-width="1" stroke="black" d="M 22 223 191 183"/>
<path stroke-width="1" stroke="black" d="M 22 223 361 57"/>
<path stroke-width="1" stroke="black" d="M 22 223 417 184"/>
<path stroke-width="1" stroke="black" d="M 22 223 392 248"/>
<path stroke-width="1" stroke="black" d="M 179 74 300 114"/>
<path stroke-width="1" stroke="black" d="M 22 223 111 172"/>
<path stroke-width="1" stroke="black" d="M 22 223 225 310"/>
<path stroke-width="1" stroke="black" d="M 22 223 242 39"/>
<path stroke-width="1" stroke="black" d="M 22 223 386 115"/>
<path stroke-width="1" stroke="black" d="M 22 223 64 265"/>
<path stroke-width="1" stroke="black" d="M 22 223 296 320"/>
<path stroke-width="1" stroke="black" d="M 22 223 300 114"/>
<path stroke-width="1" stroke="black" d="M 22 223 384 260"/>
<path stroke-width="1" stroke="black" d="M 22 223 230 284"/>
<path stroke-width="1" stroke="black" d="M 22 223 337 251"/>
<path stroke-width="1" stroke="black" d="M 22 223 266 80"/>
<path stroke-width="1" stroke="black" d="M 179 74 384 260"/>
<path stroke-width="1" stroke="black" d="M 179 74 230 284"/>
<path stroke-width="1" stroke="black" d="M 179 74 337 251"/>
<path stroke-width="1" stroke="black" d="M 191 183 384 260"/>
<path stroke-width="1" stroke="black" d="M 191 183 230 284"/>
<path stroke-width="1" stroke="black" d="M 191 183 337 251"/>
<path stroke-width="1" stroke="black" d="M 191 183 263 20"/>
<path stroke-width="1" stroke="black" d="M 191 183 20 129"/>
<path stroke-width="1" stroke="black" d="M 191 183 420 170"/>
<path stroke-width="1" stroke="black" d="M 191 183 396 108"/>
<path stroke-width="1" stroke="black" d="M 361 57 303 154"/>
<path stroke-width="1" stroke="black" d="M 361 57 290 174"/>
<path stroke-width="1" stroke="black" d="M 191 183 300 114"/>
<path stroke-width="1" stroke="black" d="M 361 57 31 117"/>
<path stroke-width="1" stroke="black" d="M 361 57 119 41"/>
<path stroke-width="1" stroke="black" d="M 361 57 110 104"/>
<path stroke-width="1" stroke="black" d="M 361 57 122 290"/>
<path stroke-width="1" stroke="black" d="M 361 57 22 223"/>
<path stroke-width="1" stroke="black" d="M 361 57 179 74"/>
<path stroke-width="1" stroke="black" d="M 361 57 191 183"/>
<path stroke-width="1" stroke="black" d="M 361 57 417 184"/>
<path stroke-width="1" stroke="black" d="M 361 57 392 248"/>
<path stroke-width="1" stroke="black" d="M 361 57 111 172"/>
<path stroke-width="1" stroke="black" d="M 361 57 37 226"/>
<path stroke-width="1" stroke="black" d="M 22 223 290 174"/>
<path stroke-width="1" stroke="black" d="M 191 183 296 320"/>
<path stroke-width="1" stroke="black" d="M 191 183 386 115"/>
<path stroke-width="1" stroke="black" d="M 179 74 263 20"/>
<path stroke-width="1" stroke="black" d="M 179 74 20 129"/>
<path stroke-width="1" stroke="black" d="M 179 74 420 170"/>
<path stroke-width="1" stroke="black" d="M 179 74 396 108"/>
<path stroke-width="1" stroke="black" d="M 191 183 303 154"/>
<path stroke-width="1" stroke="black" d="M 191 183 290 174"/>
<path stroke-width="1" stroke="black" d="M 191 183 31 117"/>
<path stroke-width="1" stroke="black" d="M 191 183 37 226"/>
<path stroke-width="1" stroke="black" d="M 191 183 119 41"/>
<path stroke-width="1" stroke="black" d="M 191 183 64 265"/>
<path stroke-width="1" stroke="black" d="M 191 183 110 104"/>
<path stroke-width="1" stroke="black" d="M 191 183 22 223"/>
<path stroke-width="1" stroke="black" d="M 191 183 179 74"/>
<path stroke-width="1" stroke="black" d="M 191 183 361 57"/>
<path stroke-width="1" stroke="black" d="M 191 183 417 184"/>
<path stroke-width="1" stroke="black" d="M 191 183 392 248"/>
<path stroke-width="1" stroke="black" d="M 191 183 111 172"/>
<path stroke-width="1" stroke="black" d="M 191 183 266 80"/>
<path stroke-width="1" stroke="black" d="M 191 183 225 310"/>
<path stroke-width="1" stroke="black" d="M 191 183 242 39"/>
<path stroke-width="1" stroke="black" d="M 191 183 122 290"/>
<path stroke-width="1" stroke="black" d="M 396 108 420 170"/>
<circle cx="303" cy="154" r="7.0" style="fill:gray;stroke:black;stroke-width:1.0"/>
<circle cx="290" cy="174" r="7.0" style="fill:gray;stroke:black;stroke-width:1.0"/>
<circle cx="31" cy="117" r="7.0" style="fill:gray;stroke:black;stroke-width:1.0"/>
<circle cx="37" cy="226" r="7.0" style="fill:gray;stroke:black;stroke-width:1.0"/>
<circle cx="119" cy="41" r="7.0" style="fill:gray;stroke:black;stroke-width:1.0"/>
<circle cx="110" cy="104" r="7.0" style="fill:gray;stroke:black;stroke-width:1.0"/>
<circle cx="122" cy="290" r="7.0" style="fill:gray;stroke:black;stroke-width:1.0"/>
<circle cx="22" cy="223" r="7.0" style="fill:gray;stroke:black;stroke-width:1.0"/>
<circle cx="179" cy="74" r="7.0" style="fill:gray;stroke:black;stroke-width:1.0"/>
<circle cx="191" cy="183" r="7.0" style="fill:gray;stroke:black;stroke-width:1.0"/>
<circle cx="361" cy="57" r="7.0" style="fill:gray;stroke:black;stroke-width:1.0"/>
<circle cx="417" cy="184" r="7.0" style="fill:gray;stroke:black;stroke-width:1.0"/>
<circle cx="392" cy="248" r="7.0" style="fill:gray;stroke:black;stroke-width:1.0"/>
<circle cx="111" cy="172" r="7.0" style="fill:gray;stroke:black;stroke-width:1.0"/>
<circle cx="266" cy="80" r="7.0" style="fill:gray;stroke:black;stroke-width:1.0"/>
<circle cx="225" cy="310" r="7.0" style="fill:gray;stroke:black;stroke-width:1.0"/>
<circle cx="242" cy="39" r="7.0" style="fill:gray;stroke:black;stroke-width:1.0"/>
<circle cx="386" cy="115" r="7.0" style="fill:gray;stroke:black;stroke-width:1.0"/>
<circle cx="64" cy="265" r="7.0" style="fill:gray;stroke:black;stroke-width:1.0"/>
<circle cx="296" cy="320" r="7.0" style="fill:gray;stroke:black;stroke-width:1.0"/>
<circle cx="300" cy="114" r="7.0" style="fill:gray;stroke:black;stroke-width:1.0"/>
<circle cx="384" cy="260" r="7.0" style="fill:gray;stroke:black;stroke-width:1.0"/>
<circle cx="230" cy="284" r="7.0" style="fill:gray;stroke:black;stroke-width:1.0"/>
<circle cx="337" cy="251" r="7.0" style="fill:gray;stroke:black;stroke-width:1.0"/>
<circle cx="263" cy="20" r="7.0" style="fill:gray;stroke:black;stroke-width:1.0"/>
<circle cx="20" cy="129" r="7.0" style="fill:gray;stroke:black;stroke-width:1.0"/>
<circle cx="420" cy="170" r="7.0" style="fill:gray;stroke:black;stroke-width:1.0"/>
<circle cx="396" cy="108" r="7.0" style="fill:gray;stroke:black;stroke-width:1.0"/>
</svg>
