<svg width="440" height="340" xmlns="http://www.w3.org/2000/svg">
<path stroke-width="1" stroke="black" d="M 223 171 218 166"/>
<path stroke-width="1" stroke="black" d="M 215 244 298 244"/>
<path stroke-width="1" stroke="black" d="M 215 244 161 52"/>
<path stroke-width="1" stroke="black" d="M 215 244 324 145"/>
<path stroke-width="1" stroke="black" d="M 215 244 20 147"/>
<path stroke-width="1" stroke="black" d="M 215 244 107 266"/>
<path stroke-width="1" stroke="black" d="M 215 244 342 149"/>
<path stroke-width="1" stroke="black" d="M 215 244 150 155"/>
<path stroke-width="1" stroke="black" d="M 215 244 134 282"/>
<path stroke-width="1" stroke="black" d="M 215 244 299 53"/>
<path stroke-width="1" stroke="black" d="M 215 244 379 89"/>
<path stroke-width="1" stroke="black" d="M 215 244 351 279"/>
<path stroke-width="1" stroke="black" d="M 215 244 120 286"/>
<path stroke-width="1" stroke="black" d="M 215 244 399 213"/>
<path stroke-width="1" stroke="black" d="M 215 244 68 93"/>
<path stroke-width="1" stroke="black" d="M 342 149 223 171"/>
<path stroke-width="1" stroke="black" d="M 342 149 218 166"/>
<path stroke-width="1" stroke="black" d="M 342 149 194 20"/>
<path stroke-width="1" stroke="black" d="M 342 149 257 300"/>
<path stroke-width="1" stroke="black" d="M 342 149 242 320"/>
<path stroke-width="1" stroke="black" d="M 215 244 394 217"/>
<path stroke-width="1" stroke="black" d="M 215 244 73 88"/>
<path stroke-width="1" stroke="black" d="M 215 244 420 140"/>
<path stroke-width="1" stroke="black" d="M 215 244 106 163"/>
<path stroke-width="1" stroke="black" d="M 107 266 20 147"/>
<path stroke-width="1" stroke="black" d="M 107 266 215 244"/>
<path stroke-width="1" stroke="black" d="M 107 266 342 149"/>
<path stroke-width="1" stroke="black" d="M 107 266 150 155"/>
<path stroke-width="1" stroke="black" d="M 107 266 134 282"/>
<path stroke-width="1" stroke="black" d="M 107 266 299 53"/>
<path stroke-width="1" stroke="black" d="M 107 266 379 89"/>
<path stroke-width="1" stroke="black" d="M 107 266 351 279"/>
<path stroke-width="1" stroke="black" d="M 107 266 120 286"/>
<path stroke-width="1" stroke="black" d="M 342 149 187 74"/>
<path stroke-width="1" stroke="black" d="M 107 266 399 213"/>
<path stroke-width="1" stroke="black" d="M 215 244 223 171"/>
<path stroke-width="1" stroke="black" d="M 215 244 218 166"/>
<path stroke-width="1" stroke="black" d="M 215 244 194 20"/>
<path stroke-width="1" stroke="black" d="M 215 244 257 300"/>
<path stroke-width="1" stroke="black" d="M 215 244 242 320"/>
<path stroke-width="1" stroke="black" d="M 215 244 187 74"/>
<path stroke-width="1" stroke="black" d="M 215 244 308 57"/>
<path stroke-width="1" stroke="black" d="M 215 244 41 214"/>
<path stroke-width="1" stroke="black" d="M 215 244 36 216"/>
<path stroke-width="1" stroke="black" d="M 107 266 68 93"/>
<path stroke-width="1" stroke="black" d="M 107 266 324 145"/>
<path stroke-width="1" stroke="black" d="M 342 149 308 57"/>
<path stroke-width="1" stroke="black" d="M 342 149 36 216"/>
<path stroke-width="1" stroke="black" d="M 150 155 308 57"/>
<path stroke-width="1" stroke="black" d="M 150 155 41 214"/>
<path stroke-width="1" stroke="black" d="M 150 155 36 216"/>
<path stroke-width="1" stroke="black" d="M 150 155 106 163"/>
<path stroke-width="1" stroke="black" d="M 150 155 420 140"/>
<path stroke-width="1" stroke="black" d="M 150 155 73 88"/>
<path stroke-width="1" stroke="black" d="M 150 155 394 217"/>
<path stroke-width="1" stroke="black" d="M 150 155 298 244"/>
<path stroke-width="1" stroke="black" d="M 150 155 161 52"/>
<path stroke-width="1" stroke="black" d="M 150 155 324 145"/>
<path stroke-width="1" stroke="black" d="M 150 155 20 147"/>
<path stroke-width="1" stroke="black" d="M 150 155 107 266"/>
<path stroke-width="1" stroke="black" d="M 150 155 215 244"/>
<path stroke-width="1" stroke="black" d="M 150 155 342 149"/>
<path stroke-width="1" stroke="black" d="M 150 155 134 282"/>
<path stroke-width="1" stroke="black" d="M 150 155 299 53"/>
<path stroke-width="1" stroke="black" d="M 150 155 379 89"/>
<path stroke-width="1" stroke="black" d="M 150 155 351 279"/>
<path stroke-width="1" stroke="black" d="M 150 155 120 286"/>
<path stroke-width="1" stroke="black" d="M 150 155 187 74"/>
<path stroke-width="1" stroke="black" d="M 150 155 242 320"/>
<path stroke-width="1" stroke="black" d="M 150 155 257 300"/>
<path stroke-width="1" stroke="black" d="M 150 155 194 20"/>
<path stroke-width="1" stroke="black" d="M 342 149 106 163"/>
<path stroke-width="1" stroke="black" d="M 342 149 420 140"/>
<path stroke-width="1" stroke="black" d="M 342 149 73 88"/>
<path stroke-width="1" stroke="black" d="M 342 149 394 217"/>
<path stroke-width="1" stroke="black" d="M 342 149 298 244"/>
<path stroke-width="1" stroke="black" d="M 342 149 161 52"/>
<path stroke-width="1" stroke="black" d="M 342 149 324 145"/>
<path stroke-width="1" stroke="black" d="M 342 149 20 147"/>
<path stroke-width="1" stroke="black" d="M 342 149 107 266"/>
<path stroke-width="1" stroke="black" d="M 342 149 41 214"/>
<path stroke-width="1" stroke="black" d="M 342 149 215 244"/>
<path stroke-width="1" stroke="black" d="M 342 149 134 282"/>
<path stroke-width="1" stroke="black" d="M 342 149 299 53"/>
<path stroke-width="1" stroke="black" d="M 342 149 379 89"/>
<path stroke-width="1" stroke="black" d="M 342 149 351 279"/>
<path stroke-width="1" stroke="black" d="M 342 149 120 286"/>
<path stroke-width="1" stroke="black" d="M 342 149 399 213"/>
<path stroke-width="1" stroke="black" d="M 342 149 68 93"/>
<path stroke-width="1" stroke="black" d="M 150 155 223 171"/>
<path stroke-width="1" stroke="black" d="M 150 155 218 166"/>
<path stroke-width="1" stroke="black" d="M 342 149 150 155"/>
<path stroke-width="1" stroke="black" d="M 150 155 399 213"/>
<path stroke-width="1" stroke="black" d="M 107 266 161 52"/>
<path stroke-width="1" stroke="black" d="M 107 266 394 217"/>
<path stroke-width="1" stroke="black" d="M 324 145 223 171"/>
<path stroke-width="1" stroke="black" d="M 324 145 218 166"/>
<path stroke-width="1" stroke="black" d="M 324 145 194 20"/>
<path stroke-width="1" stroke="black" d="M 324 145 257 300"/>
<path stroke-width="1" stroke="black" d="M 324 145 242 320"/>
<path stroke-width="1" stroke="black" d="M 324 145 187 74"/>
<path stroke-width="1" stroke="black" d="M 324 145 308 57"/>
<path stroke-width="1" stroke="black" d="M 324 145 41 214"/>
<path stroke-width="1" stroke="black" d="M 324 145 36 216"/>
<path stroke-width="1" stroke="black" d="M 324 145 106 163"/>
<path stroke-width="1" stroke="black" d="M 324 145 420 140"/>
<path stroke-width="1" stroke="black" d="M 324 145 73 88"/>
<path stroke-width="1" stroke="black" d="M 324 145 394 217"/>
<path stroke-width="1" stroke="black" d="M 324 145 298 244"/>
<path stroke-width="1" stroke="black" d="M 324 145 161 52"/>
<path stroke-width="1" stroke="black" d="M 324 145 20 147"/>
<path stroke-width="1" stroke="black" d="M 324 145 107 266"/>
<path stroke-width="1" stroke="black" d="M 324 145 215 244"/>
<path stroke-width="1" stroke="black" d="M 324 145 342 149"/>
<path stroke-width="1" stroke="black" d="M 161 52 68 93"/>
<path stroke-width="1" stroke="black" d="M 161 52 399 213"/>
<path stroke-width="1" stroke="black" d="M 161 52 120 286"/>
<path stroke-width="1" stroke="black" d="M 161 52 351 279"/>
<path stroke-width="1" stroke="black" d="M 161 52 257 300"/>
<path stroke-width="1" stroke="black" d="M 161 52 242 320"/>
<path stroke-width="1" stroke="black" d="M 161 52 187 74"/>
<path stroke-width="1" stroke="black" d="M 161 52 308 57"/>
<path stroke-width="1" stroke="black" d="M 161 52 41 214"/>
<path stroke-width="1" stroke="black" d="M 161 52 36 216"/>
<path stroke-width="1" stroke="black" d="M 161 52 106 163"/>
<path stroke-width="1" stroke="black" d="M 161 52 420 140"/>
<path stroke-width="1" stroke="black" d="M 161 52 73 88"/>
<path stroke-width="1" stroke="black" d="M 324 145 150 155"/>
<path stroke-width="1" stroke="black" d="M 161 52 394 217"/>
<path stroke-width="1" stroke="black" d="M 161 52 324 145"/>
<path stroke-width="1" stroke="black" d="M 161 52 20 147"/>
<path stroke-width="1" stroke="black" d="M 161 52 107 266"/>
<path stroke-width="1" stroke="black" d="M 161 52 215 244"/>
<path stroke-width="1" stroke="black" d="M 161 52 342 149"/>
<path stroke-width="1" stroke="black" d="M 161 52 150 155"/>
<path stroke-width="1" stroke="black" d="M 161 52 134 282"/>
<path stroke-width="1" stroke="black" d="M 161 52 299 53"/>
<path stroke-width="1" stroke="black" d="M 161 52 379 89"/>
<path stroke-width="1" stroke="black" d="M 161 52 298 244"/>
<path stroke-width="1" stroke="black" d="M 107 266 298 244"/>
<path stroke-width="1" stroke="black" d="M 324 145 134 282"/>
<path stroke-width="1" stroke="black" d="M 324 145 379 89"/>
<path stroke-width="1" stroke="black" d="M 20 147 134 282"/>
<path stroke-width="1" stroke="black" d="M 20 147 299 53"/>
<path stroke-width="1" stroke="black" d="M 20 147 379 89"/>
<path stroke-width="1" stroke="black" d="M 20 147 351 279"/>
<path stroke-width="1" stroke="black" d="M 20 147 120 286"/>
<path stroke-width="1" stroke="black" d="M 20 147 399 213"/>
<path stroke-width="1" stroke="black" d="M 20 147 68 93"/>
<path stroke-width="1" stroke="black" d="M 107 266 223 171"/>
<path stroke-width="1" stroke="black" d="M 107 266 218 166"/>
<path stroke-width="1" stroke="black" d="M 107 266 194 20"/>
<path stroke-width="1" stroke="black" d="M 107 266 257 300"/>
<path stroke-width="1" stroke="black" d="M 107 266 242 320"/>
<path stroke-width="1" stroke="black" d="M 107 266 187 74"/>
<path stroke-width="1" stroke="black" d="M 107 266 308 57"/>
<path stroke-width="1" stroke="black" d="M 107 266 41 214"/>
<path stroke-width="1" stroke="black" d="M 107 266 36 216"/>
<path stroke-width="1" stroke="black" d="M 107 266 106 163"/>
<path stroke-width="1" stroke="black" d="M 107 266 420 140"/>
<path stroke-width="1" stroke="black" d="M 107 266 73 88"/>
<path stroke-width="1" stroke="black" d="M 20 147 150 155"/>
<path stroke-width="1" stroke="black" d="M 20 147 342 149"/>
<path stroke-width="1" stroke="black" d="M 20 147 215 244"/>
<path stroke-width="1" stroke="black" d="M 20 147 107 266"/>
<path stroke-width="1" stroke="black" d="M 324 145 351 279"/>
<path stroke-width="1" stroke="black" d="M 324 145 120 286"/>
<path stroke-width="1" stroke="black" d="M 324 145 399 213"/>
<path stroke-width="1" stroke="black" d="M 324 145 68 93"/>
<path stroke-width="1" stroke="black" d="M 20 147 223 171"/>
<path stroke-width="1" stroke="black" d="M 20 147 218 166"/>
<path stroke-width="1" stroke="black" d="M 20 147 194 20"/>
<path stroke-width="1" stroke="black" d="M 20 147 257 300"/>
<path stroke-width="1" stroke="black" d="M 20 147 242 320"/>
<path stroke-width="1" stroke="black" d="M 324 145 299 53"/>
<path stroke-width="1" stroke="black" d="M 20 147 187 74"/>
<path stroke-width="1" stroke="black" d="M 20 147 41 214"/>
<path stroke-width="1" stroke="black" d="M 20 147 36 216"/>
<path stroke-width="1" stroke="black" d="M 20 147 106 163"/>
<path stroke-width="1" stroke="black" d="M 20 147 420 140"/>
<path stroke-width="1" stroke="black" d="M 20 147 73 88"/>
<path stroke-width="1" stroke="black" d="M 20 147 394 217"/>
<path stroke-width="1" stroke="black" d="M 20 147 298 244"/>
<path stroke-width="1" stroke="black" d="M 20 147 161 52"/>
<path stroke-width="1" stroke="black" d="M 20 147 324 145"/>
<path stroke-width="1" stroke="black" d="M 20 147 308 57"/>
<path stroke-width="1" stroke="black" d="M 150 155 68 93"/>
<path stroke-width="1" stroke="black" d="M 134 282 223 171"/>
<path stroke-width="1" stroke="black" d="M 134 282 218 166"/>
<path stroke-width="1" stroke="black" d="M 120 286 298 244"/>
<path stroke-width="1" stroke="black" d="M 120 286 161 52"/>
<path stroke-width="1" stroke="black" d="M 120 286 324 145"/>
<path stroke-width="1" stroke="black" d="M 120 286 20 147"/>
<path stroke-width="1" stroke="black" d="M 120 286 107 266"/>
<path stroke-width="1" stroke="black" d="M 120 286 215 244"/>
<path stroke-width="1" stroke="black" d="M 120 286 342 149"/>
<path stroke-width="1" stroke="black" d="M 120 286 150 155"/>
<path stroke-width="1" stroke="black" d="M 120 286 134 282"/>
<path stroke-width="1" stroke="black" d="M 120 286 299 53"/>
<path stroke-width="1" stroke="black" d="M 120 286 379 89"/>
<path stroke-width="1" stroke="black" d="M 120 286 351 279"/>
<path stroke-width="1" stroke="black" d="M 120 286 399 213"/>
<path stroke-width="1" stroke="black" d="M 120 286 68 93"/>
<path stroke-width="1" stroke="black" d="M 399 213 223 171"/>
<path stroke-width="1" stroke="black" d="M 399 213 218 166"/>
<path stroke-width="1" stroke="black" d="M 399 213 194 20"/>
<path stroke-width="1" stroke="black" d="M 399 213 257 300"/>
<path stroke-width="1" stroke="black" d="M 399 213 242 320"/>
<path stroke-width="1" stroke="black" d="M 120 286 394 217"/>
<path stroke-width="1" stroke="black" d="M 120 286 73 88"/>
<path stroke-width="1" stroke="black" d="M 120 286 420 140"/>
<path stroke-width="1" stroke="black" d="M 120 286 106 163"/>
<path stroke-width="1" stroke="black" d="M 351 279 20 147"/>
<path stroke-width="1" stroke="black" d="M 351 279 107 266"/>
<path stroke-width="1" stroke="black" d="M 351 279 215 244"/>
<path stroke-width="1" stroke="black" d="M 351 279 342 149"/>
<path stroke-width="1" stroke="black" d="M 351 279 150 155"/>
<path stroke-width="1" stroke="black" d="M 351 279 134 282"/>
<path stroke-width="1" stroke="black" d="M 351 279 299 53"/>
<path stroke-width="1" stroke="black" d="M 351 279 379 89"/>
<path stroke-width="1" stroke="black" d="M 351 279 120 286"/>
<path stroke-width="1" stroke="black" d="M 399 213 187 74"/>
<path stroke-width="1" stroke="black" d="M 351 279 399 213"/>
<path stroke-width="1" stroke="black" d="M 120 286 223 171"/>
<path stroke-width="1" stroke="black" d="M 120 286 218 166"/>
<path stroke-width="1" stroke="black" d="M 120 286 194 20"/>
<path stroke-width="1" stroke="black" d="M 120 286 257 300"/>
<path stroke-width="1" stroke="black" d="M 120 286 242 320"/>
<path stroke-width="1" stroke="black" d="M 120 286 187 74"/>
<path stroke-width="1" stroke="black" d="M 120 286 308 57"/>
<path stroke-width="1" stroke="black" d="M 120 286 41 214"/>
<path stroke-width="1" stroke="black" d="M 120 286 36 216"/>
<path stroke-width="1" stroke="black" d="M 351 279 68 93"/>
<path stroke-width="1" stroke="black" d="M 351 279 324 145"/>
<path stroke-width="1" stroke="black" d="M 399 213 308 57"/>
<path stroke-width="1" stroke="black" d="M 399 213 36 216"/>
<path stroke-width="1" stroke="black" d="M 68 93 308 57"/>
<path stroke-width="1" stroke="black" d="M 68 93 41 214"/>
<path stroke-width="1" stroke="black" d="M 68 93 36 216"/>
<path stroke-width="1" stroke="black" d="M 68 93 106 163"/>
<path stroke-width="1" stroke="black" d="M 68 93 420 140"/>
<path stroke-width="1" stroke="black" d="M 68 93 73 88"/>
<path stroke-width="1" stroke="black" d="M 68 93 394 217"/>
<path stroke-width="1" stroke="black" d="M 68 93 298 244"/>
<path stroke-width="1" stroke="black" d="M 68 93 161 52"/>
<path stroke-width="1" stroke="black" d="M 68 93 324 145"/>
<path stroke-width="1" stroke="black" d="M 68 93 20 147"/>
<path stroke-width="1" stroke="black" d="M 68 93 107 266"/>
<path stroke-width="1" stroke="black" d="M 68 93 215 244"/>
<path stroke-width="1" stroke="black" d="M 68 93 342 149"/>
<path stroke-width="1" stroke="black" d="M 68 93 150 155"/>
<path stroke-width="1" stroke="black" d="M 68 93 134 282"/>
<path stroke-width="1" stroke="black" d="M 68 93 299 53"/>
<path stroke-width="1" stroke="black" d="M 68 93 379 89"/>
<path stroke-width="1" stroke="black" d="M 68 93 351 279"/>
<path stroke-width="1" stroke="black" d="M 68 93 187 74"/>
<path stroke-width="1" stroke="black" d="M 68 93 242 320"/>
<path stroke-width="1" stroke="black" d="M 68 93 257 300"/>
<path stroke-width="1" stroke="black" d="M 68 93 194 20"/>
<path stroke-width="1" stroke="black" d="M 399 213 106 163"/>
<path stroke-width="1" stroke="black" d="M 399 213 420 140"/>
<path stroke-width="1" stroke="black" d="M 399 213 73 88"/>
<path stroke-width="1" stroke="black" d="M 399 213 394 217"/>
<path stroke-width="1" stroke="black" d="M 399 213 298 244"/>
<path stroke-width="1" stroke="black" d="M 399 213 161 52"/>
<path stroke-width="1" stroke="black" d="M 399 213 324 145"/>
<path stroke-width="1" stroke="black" d="M 399 213 20 147"/>
<path stroke-width="1" stroke="black" d="M 399 213 107 266"/>
<path stroke-width="1" stroke="black" d="M 399 213 41 214"/>
<path stroke-width="1" stroke="black" d="M 399 213 215 244"/>
<path stroke-width="1" stroke="black" d="M 399 213 150 155"/>
<path stroke-width="1" stroke="black" d="M 399 213 134 282"/>
<path stroke-width="1" stroke="black" d="M 399 213 299 53"/>
<path stroke-width="1" stroke="black" d="M 399 213 379 89"/>
<path stroke-width="1" stroke="black" d="M 399 213 351 279"/>
<path stroke-width="1" stroke="black" d="M 399 213 120 286"/>
<path stroke-width="1" stroke="black" d="M 399 213 68 93"/>
<path stroke-width="1" stroke="black" d="M 68 93 223 171"/>
<path stroke-width="1" stroke="black" d="M 68 93 218 166"/>
<path stroke-width="1" stroke="black" d="M 399 213 342 149"/>
<path stroke-width="1" stroke="black" d="M 351 279 161 52"/>
<path stroke-width="1" stroke="black" d="M 351 279 298 244"/>
<path stroke-width="1" stroke="black" d="M 351 279 394 217"/>
<path stroke-width="1" stroke="black" d="M 134 282 68 93"/>
<path stroke-width="1" stroke="black" d="M 299 53 223 171"/>
<path stroke-width="1" stroke="black" d="M 299 53 218 166"/>
<path stroke-width="1" stroke="black" d="M 299 53 194 20"/>
<path stroke-width="1" stroke="black" d="M 299 53 257 300"/>
<path stroke-width="1" stroke="black" d="M 299 53 242 320"/>
<path stroke-width="1" stroke="black" d="M 299 53 187 74"/>
<path stroke-width="1" stroke="black" d="M 299 53 308 57"/>
<path stroke-width="1" stroke="black" d="M 299 53 41 214"/>
<path stroke-width="1" stroke="black" d="M 299 53 36 216"/>
<path stroke-width="1" stroke="black" d="M 299 53 106 163"/>
<path stroke-width="1" stroke="black" d="M 299 53 420 140"/>
<path stroke-width="1" stroke="black" d="M 299 53 73 88"/>
<path stroke-width="1" stroke="black" d="M 299 53 394 217"/>
<path stroke-width="1" stroke="black" d="M 299 53 298 244"/>
<path stroke-width="1" stroke="black" d="M 299 53 161 52"/>
<path stroke-width="1" stroke="black" d="M 299 53 324 145"/>
<path stroke-width="1" stroke="black" d="M 299 53 20 147"/>
<path stroke-width="1" stroke="black" d="M 299 53 107 266"/>
<path stroke-width="1" stroke="black" d="M 134 282 399 213"/>
<path stroke-width="1" stroke="black" d="M 134 282 120 286"/>
<path stroke-width="1" stroke="black" d="M 134 282 351 279"/>
<path stroke-width="1" stroke="black" d="M 134 282 379 89"/>
<path stroke-width="1" stroke="black" d="M 134 282 194 20"/>
<path stroke-width="1" stroke="black" d="M 134 282 257 300"/>
<path stroke-width="1" stroke="black" d="M 134 282 242 320"/>
<path stroke-width="1" stroke="black" d="M 134 282 187 74"/>
<path stroke-width="1" stroke="black" d="M 134 282 308 57"/>
<path stroke-width="1" stroke="black" d="M 134 282 41 214"/>
<path stroke-width="1" stroke="black" d="M 134 282 36 216"/>
<path stroke-width="1" stroke="black" d="M 134 282 106 163"/>
<path stroke-width="1" stroke="black" d="M 134 282 420 140"/>
<path stroke-width="1" stroke="black" d="M 299 53 215 244"/>
<path stroke-width="1" stroke="black" d="M 134 282 73 88"/>
<path stroke-width="1" stroke="black" d="M 134 282 298 244"/>
<path stroke-width="1" stroke="black" d="M 134 282 161 52"/>
<path stroke-width="1" stroke="black" d="M 134 282 324 145"/>
<path stroke-width="1" stroke="black" d="M 134 282 20 147"/>
<path stroke-width="1" stroke="black" d="M 134 282 107 266"/>
<path stroke-width="1" stroke="black" d="M 134 282 215 244"/>
<path stroke-width="1" stroke="black" d="M 134 282 342 149"/>
<path stroke-width="1" stroke="black" d="M 134 282 150 155"/>
<path stroke-width="1" stroke="black" d="M 134 282 299 53"/>
<path stroke-width="1" stroke="black" d="M 134 282 394 217"/>
<path stroke-width="1" stroke="black" d="M 299 53 342 149"/>
<path stroke-width="1" stroke="black" d="M 299 53 150 155"/>
<path stroke-width="1" stroke="black" d="M 299 53 134 282"/>
<path stroke-width="1" stroke="black" d="M 379 89 342 149"/>
<path stroke-width="1" stroke="black" d="M 379 89 150 155"/>
<path stroke-width="1" stroke="black" d="M 379 89 134 282"/>
<path stroke-width="1" stroke="black" d="M 379 89 299 53"/>
<path stroke-width="1" stroke="black" d="M 379 89 351 279"/>
<path stroke-width="1" stroke="black" d="M 379 89 120 286"/>
<path stroke-width="1" stroke="black" d="M 379 89 399 213"/>
<path stroke-width="1" stroke="black" d="M 379 89 68 93"/>
<path stroke-width="1" stroke="black" d="M 351 279 223 171"/>
<path stroke-width="1" stroke="black" d="M 379 89 215 244"/>
<path stroke-width="1" stroke="black" d="M 351 279 218 166"/>
<path stroke-width="1" stroke="black" d="M 351 279 257 300"/>
<path stroke-width="1" stroke="black" d="M 351 279 242 320"/>
<path stroke-width="1" stroke="black" d="M 351 279 187 74"/>
<path stroke-width="1" stroke="black" d="M 351 279 308 57"/>
<path stroke-width="1" stroke="black" d="M 351 279 41 214"/>
<path stroke-width="1" stroke="black" d="M 351 279 36 216"/>
<path stroke-width="1" stroke="black" d="M 351 279 106 163"/>
<path stroke-width="1" stroke="black" d="M 351 279 420 140"/>
<path stroke-width="1" stroke="black" d="M 351 279 73 88"/>
<path stroke-width="1" stroke="black" d="M 351 279 194 20"/>
<path stroke-width="1" stroke="black" d="M 161 52 194 20"/>
<path stroke-width="1" stroke="black" d="M 379 89 107 266"/>
<path stroke-width="1" stroke="black" d="M 379 89 324 145"/>
<path stroke-width="1" stroke="black" d="M 299 53 379 89"/>
<path stroke-width="1" stroke="black" d="M 299 53 351 279"/>
<path stroke-width="1" stroke="black" d="M 299 53 120 286"/>
<path stroke-width="1" stroke="black" d="M 299 53 399 213"/>
<path stroke-width="1" stroke="black" d="M 299 53 68 93"/>
<path stroke-width="1" stroke="black" d="M 379 89 223 171"/>
<path stroke-width="1" stroke="black" d="M 379 89 218 166"/>
<path stroke-width="1" stroke="black" d="M 379 89 194 20"/>
<path stroke-width="1" stroke="black" d="M 379 89 257 300"/>
<path stroke-width="1" stroke="black" d="M 379 89 20 147"/>
<path stroke-width="1" stroke="black" d="M 379 89 242 320"/>
<path stroke-width="1" stroke="black" d="M 379 89 308 57"/>
<path stroke-width="1" stroke="black" d="M 379 89 41 214"/>
<path stroke-width="1" stroke="black" d="M 379 89 36 216"/>
<path stroke-width="1" stroke="black" d="M 379 89 106 163"/>
<path stroke-width="1" stroke="black" d="M 379 89 420 140"/>
<path stroke-width="1" stroke="black" d="M 379 89 73 88"/>
<path stroke-width="1" stroke="black" d="M 379 89 394 217"/>
<path stroke-width="1" stroke="black" d="M 379 89 298 244"/>
<path stroke-width="1" stroke="black" d="M 379 89 161 52"/>
<path stroke-width="1" stroke="black" d="M 379 89 187 74"/>
<path stroke-width="1" stroke="black" d="M 161 52 218 166"/>
<path stroke-width="1" stroke="black" d="M 161 52 223 171"/>
<path stroke-width="1" stroke="black" d="M 298 244 68 93"/>
<path stroke-width="1" stroke="black" d="M 242 320 324 145"/>
<path stroke-width="1" stroke="black" d="M 242 320 20 147"/>
<path stroke-width="1" stroke="black" d="M 242 320 107 266"/>
<path stroke-width="1" stroke="black" d="M 242 320 215 244"/>
<path stroke-width="1" stroke="black" d="M 242 320 342 149"/>
<path stroke-width="1" stroke="black" d="M 242 320 150 155"/>
<path stroke-width="1" stroke="black" d="M 242 320 134 282"/>
<path stroke-width="1" stroke="black" d="M 242 320 299 53"/>
<path stroke-width="1" stroke="black" d="M 242 320 379 89"/>
<path stroke-width="1" stroke="black" d="M 242 320 351 279"/>
<path stroke-width="1" stroke="black" d="M 242 320 120 286"/>
<path stroke-width="1" stroke="black" d="M 242 320 399 213"/>
<path stroke-width="1" stroke="black" d="M 242 320 68 93"/>
<path stroke-width="1" stroke="black" d="M 187 74 223 171"/>
<path stroke-width="1" stroke="black" d="M 187 74 218 166"/>
<path stroke-width="1" stroke="black" d="M 187 74 194 20"/>
<path stroke-width="1" stroke="black" d="M 187 74 257 300"/>
<path stroke-width="1" stroke="black" d="M 187 74 242 320"/>
<path stroke-width="1" stroke="black" d="M 187 74 308 57"/>
<path stroke-width="1" stroke="black" d="M 242 320 161 52"/>
<path stroke-width="1" stroke="black" d="M 242 320 298 244"/>
<path stroke-width="1" stroke="black" d="M 242 320 394 217"/>
<path stroke-width="1" stroke="black" d="M 242 320 73 88"/>
<path stroke-width="1" stroke="black" d="M 257 300 107 266"/>
<path stroke-width="1" stroke="black" d="M 257 300 215 244"/>
<path stroke-width="1" stroke="black" d="M 257 300 342 149"/>
<path stroke-width="1" stroke="black" d="M 257 300 150 155"/>
<path stroke-width="1" stroke="black" d="M 257 300 134 282"/>
<path stroke-width="1" stroke="black" d="M 257 300 299 53"/>
<path stroke-width="1" stroke="black" d="M 257 300 379 89"/>
<path stroke-width="1" stroke="black" d="M 257 300 351 279"/>
<path stroke-width="1" stroke="black" d="M 257 300 120 286"/>
<path stroke-width="1" stroke="black" d="M 187 74 41 214"/>
<path stroke-width="1" stroke="black" d="M 257 300 399 213"/>
<path stroke-width="1" stroke="black" d="M 242 320 223 171"/>
<path stroke-width="1" stroke="black" d="M 242 320 218 166"/>
<path stroke-width="1" stroke="black" d="M 242 320 257 300"/>
<path stroke-width="1" stroke="black" d="M 242 320 187 74"/>
<path stroke-width="1" stroke="black" d="M 242 320 308 57"/>
<path stroke-width="1" stroke="black" d="M 242 320 41 214"/>
<path stroke-width="1" stroke="black" d="M 242 320 36 216"/>
<path stroke-width="1" stroke="black" d="M 242 320 106 163"/>
<path stroke-width="1" stroke="black" d="M 242 320 420 140"/>
<path stroke-width="1" stroke="black" d="M 257 300 68 93"/>
<path stroke-width="1" stroke="black" d="M 257 300 20 147"/>
<path stroke-width="1" stroke="black" d="M 187 74 36 216"/>
<path stroke-width="1" stroke="black" d="M 187 74 420 140"/>
<path stroke-width="1" stroke="black" d="M 308 57 36 216"/>
<path stroke-width="1" stroke="black" d="M 308 57 106 163"/>
<path stroke-width="1" stroke="black" d="M 308 57 420 140"/>
<path stroke-width="1" stroke="black" d="M 308 57 73 88"/>
<path stroke-width="1" stroke="black" d="M 308 57 394 217"/>
<path stroke-width="1" stroke="black" d="M 308 57 298 244"/>
<path stroke-width="1" stroke="black" d="M 308 57 161 52"/>
<path stroke-width="1" stroke="black" d="M 308 57 324 145"/>
<path stroke-width="1" stroke="black" d="M 308 57 20 147"/>
<path stroke-width="1" stroke="black" d="M 308 57 107 266"/>
<path stroke-width="1" stroke="black" d="M 308 57 215 244"/>
<path stroke-width="1" stroke="black" d="M 308 57 342 149"/>
<path stroke-width="1" stroke="black" d="M 308 57 150 155"/>
<path stroke-width="1" stroke="black" d="M 308 57 134 282"/>
<path stroke-width="1" stroke="black" d="M 308 57 299 53"/>
<path stroke-width="1" stroke="black" d="M 308 57 379 89"/>
<path stroke-width="1" stroke="black" d="M 308 57 351 279"/>
<path stroke-width="1" stroke="black" d="M 308 57 120 286"/>
<path stroke-width="1" stroke="black" d="M 308 57 399 213"/>
<path stroke-width="1" stroke="black" d="M 308 57 41 214"/>
<path stroke-width="1" stroke="black" d="M 308 57 187 74"/>
<path stroke-width="1" stroke="black" d="M 308 57 242 320"/>
<path stroke-width="1" stroke="black" d="M 308 57 257 300"/>
<path stroke-width="1" stroke="black" d="M 187 74 73 88"/>
<path stroke-width="1" stroke="black" d="M 187 74 394 217"/>
<path stroke-width="1" stroke="black" d="M 187 74 298 244"/>
<path stroke-width="1" stroke="black" d="M 187 74 161 52"/>
<path stroke-width="1" stroke="black" d="M 187 74 324 145"/>
<path stroke-width="1" stroke="black" d="M 187 74 20 147"/>
<path stroke-width="1" stroke="black" d="M 187 74 107 266"/>
<path stroke-width="1" stroke="black" d="M 187 74 215 244"/>
<path stroke-width="1" stroke="black" d="M 187 74 342 149"/>
<path stroke-width="1" stroke="black" d="M 187 74 106 163"/>
<path stroke-width="1" stroke="black" d="M 187 74 150 155"/>
<path stroke-width="1" stroke="black" d="M 187 74 299 53"/>
<path stroke-width="1" stroke="black" d="M 187 74 379 89"/>
<path stroke-width="1" stroke="black" d="M 187 74 351 279"/>
<path stroke-width="1" stroke="black" d="M 187 74 120 286"/>
<path stroke-width="1" stroke="black" d="M 187 74 399 213"/>
<path stroke-width="1" stroke="black" d="M 187 74 68 93"/>
<path stroke-width="1" stroke="black" d="M 308 57 223 171"/>
<path stroke-width="1" stroke="black" d="M 308 57 218 166"/>
<path stroke-width="1" stroke="black" d="M 308 57 194 20"/>
<path stroke-width="1" stroke="black" d="M 187 74 134 282"/>
<path stroke-width="1" stroke="black" d="M 257 300 324 145"/>
<path stroke-width="1" stroke="black" d="M 257 300 161 52"/>
<path stroke-width="1" stroke="black" d="M 257 300 298 244"/>
<path stroke-width="1" stroke="black" d="M 223 171 399 213"/>
<path stroke-width="1" stroke="black" d="M 223 171 68 93"/>
<path stroke-width="1" stroke="black" d="M 218 166 223 171"/>
<path stroke-width="1" stroke="black" d="M 218 166 194 20"/>
<path stroke-width="1" stroke="black" d="M 218 166 257 300"/>
<path stroke-width="1" stroke="black" d="M 218 166 242 320"/>
<path stroke-width="1" stroke="black" d="M 218 166 187 74"/>
<path stroke-width="1" stroke="black" d="M 218 166 308 57"/>
<path stroke-width="1" stroke="black" d="M 218 166 41 214"/>
<path stroke-width="1" stroke="black" d="M 218 166 36 216"/>
<path stroke-width="1" stroke="black" d="M 218 166 106 163"/>
<path stroke-width="1" stroke="black" d="M 218 166 420 140"/>
<path stroke-width="1" stroke="black" d="M 218 166 73 88"/>
<path stroke-width="1" stroke="black" d="M 218 166 394 217"/>
<path stroke-width="1" stroke="black" d="M 218 166 298 244"/>
<path stroke-width="1" stroke="black" d="M 218 166 161 52"/>
<path stroke-width="1" stroke="black" d="M 218 166 324 145"/>
<path stroke-width="1" stroke="black" d="M 218 166 20 147"/>
<path stroke-width="1" stroke="black" d="M 218 166 107 266"/>
<path stroke-width="1" stroke="black" d="M 223 171 120 286"/>
<path stroke-width="1" stroke="black" d="M 223 171 351 279"/>
<path stroke-width="1" stroke="black" d="M 223 171 379 89"/>
<path stroke-width="1" stroke="black" d="M 223 171 299 53"/>
<path stroke-width="1" stroke="black" d="M 223 171 194 20"/>
<path stroke-width="1" stroke="black" d="M 223 171 257 300"/>
<path stroke-width="1" stroke="black" d="M 223 171 242 320"/>
<path stroke-width="1" stroke="black" d="M 223 171 187 74"/>
<path stroke-width="1" stroke="black" d="M 223 171 308 57"/>
<path stroke-width="1" stroke="black" d="M 223 171 41 214"/>
<path stroke-width="1" stroke="black" d="M 223 171 36 216"/>
<path stroke-width="1" stroke="black" d="M 223 171 106 163"/>
<path stroke-width="1" stroke="black" d="M 223 171 420 140"/>
<path stroke-width="1" stroke="black" d="M 218 166 215 244"/>
<path stroke-width="1" stroke="black" d="M 223 171 73 88"/>
<path stroke-width="1" stroke="black" d="M 223 171 298 244"/>
<path stroke-width="1" stroke="black" d="M 223 171 161 52"/>
<path stroke-width="1" stroke="black" d="M 223 171 324 145"/>
<path stroke-width="1" stroke="black" d="M 223 171 20 147"/>
<path stroke-width="1" stroke="black" d="M 223 171 107 266"/>
<path stroke-width="1" stroke="black" d="M 223 171 215 244"/>
<path stroke-width="1" stroke="black" d="M 223 171 342 149"/>
<path stroke-width="1" stroke="black" d="M 223 171 150 155"/>
<path stroke-width="1" stroke="black" d="M 223 171 134 282"/>
<path stroke-width="1" stroke="black" d="M 223 171 394 217"/>
<path stroke-width="1" stroke="black" d="M 218 166 342 149"/>
<path stroke-width="1" stroke="black" d="M 218 166 150 155"/>
<path stroke-width="1" stroke="black" d="M 218 166 134 282"/>
<path stroke-width="1" stroke="black" d="M 194 20 150 155"/>
<path stroke-width="1" stroke="black" d="M 194 20 134 282"/>
<path stroke-width="1" stroke="black" d="M 194 20 299 53"/>
<path stroke-width="1" stroke="black" d="M 194 20 379 89"/>
<path stroke-width="1" stroke="black" d="M 194 20 351 279"/>
<path stroke-width="1" stroke="black" d="M 194 20 120 286"/>
<path stroke-width="1" stroke="black" d="M 194 20 399 213"/>
<path stroke-width="1" stroke="black" d="M 194 20 68 93"/>
<path stroke-width="1" stroke="black" d="M 257 300 223 171"/>
<path stroke-width="1" stroke="black" d="M 194 20 342 149"/>
<path stroke-width="1" stroke="black" d="M 257 300 218 166"/>
<path stroke-width="1" stroke="black" d="M 257 300 242 320"/>
<path stroke-width="1" stroke="black" d="M 257 300 187 74"/>
<path stroke-width="1" stroke="black" d="M 257 300 308 57"/>
<path stroke-width="1" stroke="black" d="M 257 300 41 214"/>
<path stroke-width="1" stroke="black" d="M 257 300 36 216"/>
<path stroke-width="1" stroke="black" d="M 257 300 106 163"/>
<path stroke-width="1" stroke="black" d="M 257 300 420 140"/>
<path stroke-width="1" stroke="black" d="M 257 300 73 88"/>
<path stroke-width="1" stroke="black" d="M 257 300 394 217"/>
<path stroke-width="1" stroke="black" d="M 257 300 194 20"/>
<path stroke-width="1" stroke="black" d="M 308 57 68 93"/>
<path stroke-width="1" stroke="black" d="M 194 20 215 244"/>
<path stroke-width="1" stroke="black" d="M 194 20 20 147"/>
<path stroke-width="1" stroke="black" d="M 218 166 299 53"/>
<path stroke-width="1" stroke="black" d="M 218 166 379 89"/>
<path stroke-width="1" stroke="black" d="M 218 166 351 279"/>
<path stroke-width="1" stroke="black" d="M 218 166 120 286"/>
<path stroke-width="1" stroke="black" d="M 218 166 399 213"/>
<path stroke-width="1" stroke="black" d="M 218 166 68 93"/>
<path stroke-width="1" stroke="black" d="M 194 20 223 171"/>
<path stroke-width="1" stroke="black" d="M 194 20 218 166"/>
<path stroke-width="1" stroke="black" d="M 194 20 257 300"/>
<path stroke-width="1" stroke="black" d="M 194 20 107 266"/>
<path stroke-width="1" stroke="black" d="M 194 20 187 74"/>
<path stroke-width="1" stroke="black" d="M 194 20 41 214"/>
<path stroke-width="1" stroke="black" d="M 194 20 36 216"/>
<path stroke-width="1" stroke="black" d="M 194 20 106 163"/>
<path stroke-width="1" stroke="black" d="M 194 20 420 140"/>
<path stroke-width="1" stroke="black" d="M 194 20 73 88"/>
<path stroke-width="1" stroke="black" d="M 194 20 394 217"/>
<path stroke-width="1" stroke="black" d="M 194 20 298 244"/>
<path stroke-width="1" stroke="black" d="M 194 20 161 52"/>
<path stroke-width="1" stroke="black" d="M 194 20 324 145"/>
<path stroke-width="1" stroke="black" d="M 194 20 308 57"/>
<path stroke-width="1" stroke="black" d="M 68 93 120 286"/>
<path stroke-width="1" stroke="black" d="M 41 214 223 171"/>
<path stroke-width="1" stroke="black" d="M 41 214 194 20"/>
<path stroke-width="1" stroke="black" d="M 73 88 324 145"/>
<path stroke-width="1" stroke="black" d="M 73 88 20 147"/>
<path stroke-width="1" stroke="black" d="M 73 88 107 266"/>
<path stroke-width="1" stroke="black" d="M 73 88 215 244"/>
<path stroke-width="1" stroke="black" d="M 73 88 342 149"/>
<path stroke-width="1" stroke="black" d="M 73 88 150 155"/>
<path stroke-width="1" stroke="black" d="M 73 88 134 282"/>
<path stroke-width="1" stroke="black" d="M 73 88 299 53"/>
<path stroke-width="1" stroke="black" d="M 73 88 379 89"/>
<path stroke-width="1" stroke="black" d="M 73 88 351 279"/>
<path stroke-width="1" stroke="black" d="M 73 88 120 286"/>
<path stroke-width="1" stroke="black" d="M 73 88 399 213"/>
<path stroke-width="1" stroke="black" d="M 73 88 68 93"/>
<path stroke-width="1" stroke="black" d="M 394 217 223 171"/>
<path stroke-width="1" stroke="black" d="M 394 217 218 166"/>
<path stroke-width="1" stroke="black" d="M 394 217 194 20"/>
<path stroke-width="1" stroke="black" d="M 394 217 257 300"/>
<path stroke-width="1" stroke="black" d="M 394 217 242 320"/>
<path stroke-width="1" stroke="black" d="M 394 217 187 74"/>
<path stroke-width="1" stroke="black" d="M 73 88 161 52"/>
<path stroke-width="1" stroke="black" d="M 73 88 298 244"/>
<path stroke-width="1" stroke="black" d="M 73 88 394 217"/>
<path stroke-width="1" stroke="black" d="M 73 88 420 140"/>
<path stroke-width="1" stroke="black" d="M 420 140 215 244"/>
<path stroke-width="1" stroke="black" d="M 420 140 342 149"/>
<path stroke-width="1" stroke="black" d="M 420 140 150 155"/>
<path stroke-width="1" stroke="black" d="M 420 140 134 282"/>
<path stroke-width="1" stroke="black" d="M 420 140 299 53"/>
<path stroke-width="1" stroke="black" d="M 420 140 379 89"/>
<path stroke-width="1" stroke="black" d="M 420 140 351 279"/>
<path stroke-width="1" stroke="black" d="M 420 140 120 286"/>
<path stroke-width="1" stroke="black" d="M 420 140 399 213"/>
<path stroke-width="1" stroke="black" d="M 394 217 308 57"/>
<path stroke-width="1" stroke="black" d="M 420 140 68 93"/>
<path stroke-width="1" stroke="black" d="M 73 88 218 166"/>
<path stroke-width="1" stroke="black" d="M 73 88 194 20"/>
<path stroke-width="1" stroke="black" d="M 73 88 257 300"/>
<path stroke-width="1" stroke="black" d="M 73 88 242 320"/>
<path stroke-width="1" stroke="black" d="M 73 88 187 74"/>
<path stroke-width="1" stroke="black" d="M 73 88 308 57"/>
<path stroke-width="1" stroke="black" d="M 73 88 41 214"/>
<path stroke-width="1" stroke="black" d="M 73 88 36 216"/>
<path stroke-width="1" stroke="black" d="M 73 88 106 163"/>
<path stroke-width="1" stroke="black" d="M 73 88 223 171"/>
<path stroke-width="1" stroke="black" d="M 420 140 107 266"/>
<path stroke-width="1" stroke="black" d="M 394 217 41 214"/>
<path stroke-width="1" stroke="black" d="M 394 217 106 163"/>
<path stroke-width="1" stroke="black" d="M 298 244 41 214"/>
<path stroke-width="1" stroke="black" d="M 298 244 36 216"/>
<path stroke-width="1" stroke="black" d="M 298 244 106 163"/>
<path stroke-width="1" stroke="black" d="M 298 244 420 140"/>
<path stroke-width="1" stroke="black" d="M 298 244 73 88"/>
<path stroke-width="1" stroke="black" d="M 298 244 394 217"/>
<path stroke-width="1" stroke="black" d="M 298 244 161 52"/>
<path stroke-width="1" stroke="black" d="M 298 244 324 145"/>
<path stroke-width="1" stroke="black" d="M 298 244 20 147"/>
<path stroke-width="1" stroke="black" d="M 298 244 107 266"/>
<path stroke-width="1" stroke="black" d="M 298 244 215 244"/>
<path stroke-width="1" stroke="black" d="M 298 244 342 149"/>
<path stroke-width="1" stroke="black" d="M 298 244 150 155"/>
<path stroke-width="1" stroke="black" d="M 298 244 134 282"/>
<path stroke-width="1" stroke="black" d="M 298 244 299 53"/>
<path stroke-width="1" stroke="black" d="M 298 244 379 89"/>
<path stroke-width="1" stroke="black" d="M 298 244 351 279"/>
<path stroke-width="1" stroke="black" d="M 298 244 120 286"/>
<path stroke-width="1" stroke="black" d="M 298 244 399 213"/>
<path stroke-width="1" stroke="black" d="M 298 244 308 57"/>
<path stroke-width="1" stroke="black" d="M 298 244 187 74"/>
<path stroke-width="1" stroke="black" d="M 298 244 242 320"/>
<path stroke-width="1" stroke="black" d="M 298 244 257 300"/>
<path stroke-width="1" stroke="black" d="M 394 217 420 140"/>
<path stroke-width="1" stroke="black" d="M 394 217 73 88"/>
<path stroke-width="1" stroke="black" d="M 394 217 298 244"/>
<path stroke-width="1" stroke="black" d="M 394 217 161 52"/>
<path stroke-width="1" stroke="black" d="M 394 217 324 145"/>
<path stroke-width="1" stroke="black" d="M 394 217 20 147"/>
<path stroke-width="1" stroke="black" d="M 394 217 107 266"/>
<path stroke-width="1" stroke="black" d="M 394 217 215 244"/>
<path stroke-width="1" stroke="black" d="M 394 217 342 149"/>
<path stroke-width="1" stroke="black" d="M 394 217 36 216"/>
<path stroke-width="1" stroke="black" d="M 394 217 150 155"/>
<path stroke-width="1" stroke="black" d="M 394 217 299 53"/>
<path stroke-width="1" stroke="black" d="M 394 217 379 89"/>
<path stroke-width="1" stroke="black" d="M 394 217 351 279"/>
<path stroke-width="1" stroke="black" d="M 394 217 120 286"/>
<path stroke-width="1" stroke="black" d="M 394 217 399 213"/>
<path stroke-width="1" stroke="black" d="M 394 217 68 93"/>
<path stroke-width="1" stroke="black" d="M 298 244 223 171"/>
<path stroke-width="1" stroke="black" d="M 298 244 218 166"/>
<path stroke-width="1" stroke="black" d="M 298 244 194 20"/>
<path stroke-width="1" stroke="black" d="M 394 217 134 282"/>
<path stroke-width="1" stroke="black" d="M 420 140 20 147"/>
<path stroke-width="1" stroke="black" d="M 420 140 324 145"/>
<path stroke-width="1" stroke="black" d="M 420 140 161 52"/>
<path stroke-width="1" stroke="black" d="M 36 216 223 171"/>
<path stroke-width="1" stroke="black" d="M 36 216 218 166"/>
<path stroke-width="1" stroke="black" d="M 36 216 194 20"/>
<path stroke-width="1" stroke="black" d="M 36 216 257 300"/>
<path stroke-width="1" stroke="black" d="M 36 216 242 320"/>
<path stroke-width="1" stroke="black" d="M 36 216 187 74"/>
<path stroke-width="1" stroke="black" d="M 36 216 308 57"/>
<path stroke-width="1" stroke="black" d="M 36 216 41 214"/>
<path stroke-width="1" stroke="black" d="M 36 216 106 163"/>
<path stroke-width="1" stroke="black" d="M 36 216 420 140"/>
<path stroke-width="1" stroke="black" d="M 36 216 73 88"/>
<path stroke-width="1" stroke="black" d="M 36 216 394 217"/>
<path stroke-width="1" stroke="black" d="M 36 216 298 244"/>
<path stroke-width="1" stroke="black" d="M 36 216 161 52"/>
<path stroke-width="1" stroke="black" d="M 36 216 324 145"/>
<path stroke-width="1" stroke="black" d="M 36 216 20 147"/>
<path stroke-width="1" stroke="black" d="M 36 216 107 266"/>
<path stroke-width="1" stroke="black" d="M 36 216 215 244"/>
<path stroke-width="1" stroke="black" d="M 36 216 342 149"/>
<path stroke-width="1" stroke="black" d="M 41 214 68 93"/>
<path stroke-width="1" stroke="black" d="M 41 214 399 213"/>
<path stroke-width="1" stroke="black" d="M 41 214 120 286"/>
<path stroke-width="1" stroke="black" d="M 41 214 351 279"/>
<path stroke-width="1" stroke="black" d="M 41 214 257 300"/>
<path stroke-width="1" stroke="black" d="M 41 214 242 320"/>
<path stroke-width="1" stroke="black" d="M 41 214 187 74"/>
<path stroke-width="1" stroke="black" d="M 41 214 308 57"/>
<path stroke-width="1" stroke="black" d="M 41 214 36 216"/>
<path stroke-width="1" stroke="black" d="M 41 214 106 163"/>
<path stroke-width="1" stroke="black" d="M 41 214 420 140"/>
<path stroke-width="1" stroke="black" d="M 41 214 73 88"/>
<path stroke-width="1" stroke="black" d="M 41 214 394 217"/>
<path stroke-width="1" stroke="black" d="M 36 216 150 155"/>
<path stroke-width="1" stroke="black" d="M 41 214 298 244"/>
<path stroke-width="1" stroke="black" d="M 41 214 324 145"/>
<path stroke-width="1" stroke="black" d="M 41 214 20 147"/>
<path stroke-width="1" stroke="black" d="M 41 214 107 266"/>
<path stroke-width="1" stroke="black" d="M 41 214 215 244"/>
<path stroke-width="1" stroke="black" d="M 41 214 342 149"/>
<path stroke-width="1" stroke="black" d="M 41 214 150 155"/>
<path stroke-width="1" stroke="black" d="M 41 214 134 282"/>
<path stroke-width="1" stroke="black" d="M 41 214 299 53"/>
<path stroke-width="1" stroke="black" d="M 41 214 379 89"/>
<path stroke-width="1" stroke="black" d="M 41 214 161 52"/>
<path stroke-width="1" stroke="black" d="M 36 216 134 282"/>
<path stroke-width="1" stroke="black" d="M 36 216 299 53"/>
<path stroke-width="1" stroke="black" d="M 36 216 379 89"/>
<path stroke-width="1" stroke="black" d="M 106 163 134 282"/>
<path stroke-width="1" stroke="black" d="M 106 163 299 53"/>
<path stroke-width="1" stroke="black" d="M 106 163 379 89"/>
<path stroke-width="1" stroke="black" d="M 106 163 351 279"/>
<path stroke-width="1" stroke="black" d="M 106 163 120 286"/>
<path stroke-width="1" stroke="black" d="M 106 163 399 213"/>
<path stroke-width="1" stroke="black" d="M 106 163 68 93"/>
<path stroke-width="1" stroke="black" d="M 420 140 223 171"/>
<path stroke-width="1" stroke="black" d="M 420 140 218 166"/>
<path stroke-width="1" stroke="black" d="M 106 163 150 155"/>
<path stroke-width="1" stroke="black" d="M 420 140 194 20"/>
<path stroke-width="1" stroke="black" d="M 420 140 242 320"/>
<path stroke-width="1" stroke="black" d="M 420 140 187 74"/>
<path stroke-width="1" stroke="black" d="M 420 140 308 57"/>
<path stroke-width="1" stroke="black" d="M 420 140 41 214"/>
<path stroke-width="1" stroke="black" d="M 420 140 36 216"/>
<path stroke-width="1" stroke="black" d="M 420 140 106 163"/>
<path stroke-width="1" stroke="black" d="M 420 140 73 88"/>
<path stroke-width="1" stroke="black" d="M 420 140 394 217"/>
<path stroke-width="1" stroke="black" d="M 420 140 298 244"/>
<path stroke-width="1" stroke="black" d="M 420 140 257 300"/>
<path stroke-width="1" stroke="black" d="M 41 214 218 166"/>
<path stroke-width="1" stroke="black" d="M 106 163 342 149"/>
<path stroke-width="1" stroke="black" d="M 106 163 107 266"/>
<path stroke-width="1" stroke="black" d="M 36 216 351 279"/>
<path stroke-width="1" stroke="black" d="M 36 216 120 286"/>
<path stroke-width="1" stroke="black" d="M 36 216 399 213"/>
<path stroke-width="1" stroke="black" d="M 36 216 68 93"/>
<path stroke-width="1" stroke="black" d="M 106 163 223 171"/>
<path stroke-width="1" stroke="black" d="M 106 163 218 166"/>
<path stroke-width="1" stroke="black" d="M 106 163 194 20"/>
<path stroke-width="1" stroke="black" d="M 106 163 257 300"/>
<path stroke-width="1" stroke="black" d="M 106 163 242 320"/>
<path stroke-width="1" stroke="black" d="M 106 163 215 244"/>
<path stroke-width="1" stroke="black" d="M 106 163 187 74"/>
<path stroke-width="1" stroke="black" d="M 106 163 41 214"/>
<path stroke-width="1" stroke="black" d="M 106 163 36 216"/>
<path stroke-width="1" stroke="black" d="M 106 163 420 140"/>
<path stroke-width="1" stroke="black" d="M 106 163 73 88"/>
<path stroke-width="1" stroke="black" d="M 106 163 394 217"/>
<path stroke-width="1" stroke="black" d="M 106 163 298 244"/>
<path stroke-width="1" stroke="black" d="M 106 163 161 52"/>
<path stroke-width="1" stroke="black" d="M 106 163 324 145"/>
<path stroke-width="1" stroke="black" d="M 106 163 20 147"/>
<path stroke-width="1" stroke="black" d="M 106 163 308 57"/>
<path stroke-width="1" stroke="black" d="M 68 93 399 213"/>
<circle cx="223" cy="171" r="7.0" style="fill:gray;stroke:black;stroke-width:1.0"/>
<circle cx="218" cy="166" r="7.0" style="fill:gray;stroke:black;stroke-width:1.0"/>
<circle cx="194" cy="20" r="7.0" style="fill:gray;stroke:black;stroke-width:1.0"/>
<circle cx="257" cy="300" r="7.0" style="fill:gray;stroke:black;stroke-width:1.0"/>
<circle cx="242" cy="320" r="7.0" style="fill:gray;stroke:black;stroke-width:1.0"/>
<circle cx="187" cy="74" r="7.0" style="fill:gray;stroke:black;stroke-width:1.0"/>
<circle cx="308" cy="57" r="7.0" style="fill:gray;stroke:black;stroke-width:1.0"/>
<circle cx="41" cy="214" r="7.0" style="fill:gray;stroke:black;stroke-width:1.0"/>
<circle cx="36" cy="216" r="7.0" style="fill:gray;stroke:black;stroke-width:1.0"/>
<circle cx="106" cy="163" r="7.0" style="fill:gray;stroke:black;stroke-width:1.0"/>
<circle cx="420" cy="140" r="7.0" style="fill:gray;stroke:black;stroke-width:1.0"/>
<circle cx="73" cy="88" r="7.0" style="fill:gray;stroke:black;stroke-width:1.0"/>
<circle cx="394" cy="217" r="7.0" style="fill:gray;stroke:black;stroke-width:1.0"/>
<circle cx="298" cy="244" r="7.0" style="fill:gray;stroke:black;stroke-width:1.0"/>
<circle cx="161" cy="52" r="7.0" style="fill:gray;stroke:black;stroke-width:1.0"/>
<circle cx="324" cy="145" r="7.0" style="fill:gray;stroke:black;stroke-width:1.0"/>
<circle cx="20" cy="147" r="7.0" style="fill:gray;stroke:black;stroke-width:1.0"/>
<circle cx="107" cy="266" r="7.0" style="fill:gray;stroke:black;stroke-width:1.0"/>
<circle cx="215" cy="244" r="7.0" style="fill:gray;stroke:black;stroke-width:1.0"/>
<circle cx="342" cy="149" r="7.0" style="fill:gray;stroke:black;stroke-width:1.0"/>
<circle cx="150" cy="155" r="7.0" style="fill:gray;stroke:black;stroke-width:1.0"/>
<circle cx="134" cy="282" r="7.0" style="fill:gray;stroke:black;stroke-width:1.0"/>
<circle cx="299" cy="53" r="7.0" style="fill:gray;stroke:black;stroke-width:1.0"/>
<circle cx="379" cy="89" r="7.0" style="fill:gray;stroke:black;stroke-width:1.0"/>
<circle cx="351" cy="279" r="7.0" style="fill:gray;stroke:black;stroke-width:1.0"/>
<circle cx="120" cy="286" r="7.0" style="fill:gray;stroke:black;stroke-width:1.0"/>
<circle cx="399" cy="213" r="7.0" style="fill:gray;stroke:black;stroke-width:1.0"/>
<circle cx="68" cy="93" r="7.0" style="fill:gray;stroke:black;stroke-width:1.0"/>
</svg>
