<svg width="440" height="340" xmlns="http://www.w3.org/2000/svg">
<path stroke-width="1" stroke="black" d="M 222 177 208 186"/>
<path stroke-width="1" stroke="black" d="M 230 320 39 149"/>
<path stroke-width="1" stroke="black" d="M 230 320 130 50"/>
<path stroke-width="1" stroke="black" d="M 230 320 110 301"/>
<path stroke-width="1" stroke="black" d="M 230 320 116 296"/>
<path stroke-width="1" stroke="black" d="M 230 320 235 317"/>
<path stroke-width="1" stroke="black" d="M 230 320 187 78"/>
<path stroke-width="1" stroke="black" d="M 230 320 318 259"/>
<path stroke-width="1" stroke="black" d="M 230 320 240 304"/>
<path stroke-width="1" stroke="black" d="M 230 320 420 183"/>
<path stroke-width="1" stroke="black" d="M 230 320 409 164"/>
<path stroke-width="1" stroke="black" d="M 230 320 395 255"/>
<path stroke-width="1" stroke="black" d="M 230 320 119 122"/>
<path stroke-width="1" stroke="black" d="M 230 320 113 44"/>
<path stroke-width="1" stroke="black" d="M 230 320 20 168"/>
<path stroke-width="1" stroke="black" d="M 187 78 222 177"/>
<path stroke-width="1" stroke="black" d="M 187 78 208 186"/>
<path stroke-width="1" stroke="black" d="M 187 78 29 92"/>
<path stroke-width="1" stroke="black" d="M 187 78 362 88"/>
<path stroke-width="1" stroke="black" d="M 187 78 280 41"/>
<path stroke-width="1" stroke="black" d="M 230 320 326 77"/>
<path stroke-width="1" stroke="black" d="M 230 320 357 155"/>
<path stroke-width="1" stroke="black" d="M 230 320 247 20"/>
<path stroke-width="1" stroke="black" d="M 230 320 131 223"/>
<path stroke-width="1" stroke="black" d="M 235 317 116 296"/>
<path stroke-width="1" stroke="black" d="M 235 317 230 320"/>
<path stroke-width="1" stroke="black" d="M 235 317 187 78"/>
<path stroke-width="1" stroke="black" d="M 235 317 318 259"/>
<path stroke-width="1" stroke="black" d="M 235 317 240 304"/>
<path stroke-width="1" stroke="black" d="M 235 317 420 183"/>
<path stroke-width="1" stroke="black" d="M 235 317 409 164"/>
<path stroke-width="1" stroke="black" d="M 235 317 395 255"/>
<path stroke-width="1" stroke="black" d="M 235 317 119 122"/>
<path stroke-width="1" stroke="black" d="M 187 78 339 267"/>
<path stroke-width="1" stroke="black" d="M 235 317 113 44"/>
<path stroke-width="1" stroke="black" d="M 230 320 222 177"/>
<path stroke-width="1" stroke="black" d="M 230 320 208 186"/>
<path stroke-width="1" stroke="black" d="M 230 320 29 92"/>
<path stroke-width="1" stroke="black" d="M 230 320 362 88"/>
<path stroke-width="1" stroke="black" d="M 230 320 280 41"/>
<path stroke-width="1" stroke="black" d="M 230 320 339 267"/>
<path stroke-width="1" stroke="black" d="M 230 320 60 220"/>
<path stroke-width="1" stroke="black" d="M 230 320 39 246"/>
<path stroke-width="1" stroke="black" d="M 230 320 224 198"/>
<path stroke-width="1" stroke="black" d="M 235 317 20 168"/>
<path stroke-width="1" stroke="black" d="M 235 317 110 301"/>
<path stroke-width="1" stroke="black" d="M 187 78 60 220"/>
<path stroke-width="1" stroke="black" d="M 187 78 224 198"/>
<path stroke-width="1" stroke="black" d="M 318 259 60 220"/>
<path stroke-width="1" stroke="black" d="M 318 259 39 246"/>
<path stroke-width="1" stroke="black" d="M 318 259 224 198"/>
<path stroke-width="1" stroke="black" d="M 318 259 131 223"/>
<path stroke-width="1" stroke="black" d="M 318 259 247 20"/>
<path stroke-width="1" stroke="black" d="M 318 259 357 155"/>
<path stroke-width="1" stroke="black" d="M 318 259 326 77"/>
<path stroke-width="1" stroke="black" d="M 318 259 39 149"/>
<path stroke-width="1" stroke="black" d="M 318 259 130 50"/>
<path stroke-width="1" stroke="black" d="M 318 259 110 301"/>
<path stroke-width="1" stroke="black" d="M 318 259 116 296"/>
<path stroke-width="1" stroke="black" d="M 318 259 235 317"/>
<path stroke-width="1" stroke="black" d="M 318 259 230 320"/>
<path stroke-width="1" stroke="black" d="M 318 259 187 78"/>
<path stroke-width="1" stroke="black" d="M 318 259 240 304"/>
<path stroke-width="1" stroke="black" d="M 318 259 420 183"/>
<path stroke-width="1" stroke="black" d="M 318 259 409 164"/>
<path stroke-width="1" stroke="black" d="M 318 259 395 255"/>
<path stroke-width="1" stroke="black" d="M 318 259 119 122"/>
<path stroke-width="1" stroke="black" d="M 318 259 339 267"/>
<path stroke-width="1" stroke="black" d="M 318 259 280 41"/>
<path stroke-width="1" stroke="black" d="M 318 259 362 88"/>
<path stroke-width="1" stroke="black" d="M 318 259 29 92"/>
<path stroke-width="1" stroke="black" d="M 187 78 131 223"/>
<path stroke-width="1" stroke="black" d="M 187 78 247 20"/>
<path stroke-width="1" stroke="black" d="M 187 78 357 155"/>
<path stroke-width="1" stroke="black" d="M 187 78 326 77"/>
<path stroke-width="1" stroke="black" d="M 187 78 39 149"/>
<path stroke-width="1" stroke="black" d="M 187 78 130 50"/>
<path stroke-width="1" stroke="black" d="M 187 78 110 301"/>
<path stroke-width="1" stroke="black" d="M 187 78 116 296"/>
<path stroke-width="1" stroke="black" d="M 187 78 235 317"/>
<path stroke-width="1" stroke="black" d="M 187 78 39 246"/>
<path stroke-width="1" stroke="black" d="M 187 78 230 320"/>
<path stroke-width="1" stroke="black" d="M 187 78 240 304"/>
<path stroke-width="1" stroke="black" d="M 187 78 420 183"/>
<path stroke-width="1" stroke="black" d="M 187 78 409 164"/>
<path stroke-width="1" stroke="black" d="M 187 78 395 255"/>
<path stroke-width="1" stroke="black" d="M 187 78 119 122"/>
<path stroke-width="1" stroke="black" d="M 187 78 113 44"/>
<path stroke-width="1" stroke="black" d="M 187 78 20 168"/>
<path stroke-width="1" stroke="black" d="M 318 259 222 177"/>
<path stroke-width="1" stroke="black" d="M 318 259 208 186"/>
<path stroke-width="1" stroke="black" d="M 187 78 318 259"/>
<path stroke-width="1" stroke="black" d="M 318 259 113 44"/>
<path stroke-width="1" stroke="black" d="M 235 317 130 50"/>
<path stroke-width="1" stroke="black" d="M 235 317 326 77"/>
<path stroke-width="1" stroke="black" d="M 110 301 222 177"/>
<path stroke-width="1" stroke="black" d="M 110 301 208 186"/>
<path stroke-width="1" stroke="black" d="M 110 301 29 92"/>
<path stroke-width="1" stroke="black" d="M 110 301 362 88"/>
<path stroke-width="1" stroke="black" d="M 110 301 280 41"/>
<path stroke-width="1" stroke="black" d="M 110 301 339 267"/>
<path stroke-width="1" stroke="black" d="M 110 301 60 220"/>
<path stroke-width="1" stroke="black" d="M 110 301 39 246"/>
<path stroke-width="1" stroke="black" d="M 110 301 224 198"/>
<path stroke-width="1" stroke="black" d="M 110 301 131 223"/>
<path stroke-width="1" stroke="black" d="M 110 301 247 20"/>
<path stroke-width="1" stroke="black" d="M 110 301 357 155"/>
<path stroke-width="1" stroke="black" d="M 110 301 326 77"/>
<path stroke-width="1" stroke="black" d="M 110 301 39 149"/>
<path stroke-width="1" stroke="black" d="M 110 301 130 50"/>
<path stroke-width="1" stroke="black" d="M 110 301 116 296"/>
<path stroke-width="1" stroke="black" d="M 110 301 235 317"/>
<path stroke-width="1" stroke="black" d="M 110 301 230 320"/>
<path stroke-width="1" stroke="black" d="M 110 301 187 78"/>
<path stroke-width="1" stroke="black" d="M 130 50 20 168"/>
<path stroke-width="1" stroke="black" d="M 130 50 113 44"/>
<path stroke-width="1" stroke="black" d="M 130 50 119 122"/>
<path stroke-width="1" stroke="black" d="M 130 50 395 255"/>
<path stroke-width="1" stroke="black" d="M 130 50 362 88"/>
<path stroke-width="1" stroke="black" d="M 130 50 280 41"/>
<path stroke-width="1" stroke="black" d="M 130 50 339 267"/>
<path stroke-width="1" stroke="black" d="M 130 50 60 220"/>
<path stroke-width="1" stroke="black" d="M 130 50 39 246"/>
<path stroke-width="1" stroke="black" d="M 130 50 224 198"/>
<path stroke-width="1" stroke="black" d="M 130 50 131 223"/>
<path stroke-width="1" stroke="black" d="M 130 50 247 20"/>
<path stroke-width="1" stroke="black" d="M 130 50 357 155"/>
<path stroke-width="1" stroke="black" d="M 110 301 318 259"/>
<path stroke-width="1" stroke="black" d="M 130 50 326 77"/>
<path stroke-width="1" stroke="black" d="M 130 50 110 301"/>
<path stroke-width="1" stroke="black" d="M 130 50 116 296"/>
<path stroke-width="1" stroke="black" d="M 130 50 235 317"/>
<path stroke-width="1" stroke="black" d="M 130 50 230 320"/>
<path stroke-width="1" stroke="black" d="M 130 50 187 78"/>
<path stroke-width="1" stroke="black" d="M 130 50 318 259"/>
<path stroke-width="1" stroke="black" d="M 130 50 240 304"/>
<path stroke-width="1" stroke="black" d="M 130 50 420 183"/>
<path stroke-width="1" stroke="black" d="M 130 50 409 164"/>
<path stroke-width="1" stroke="black" d="M 130 50 39 149"/>
<path stroke-width="1" stroke="black" d="M 235 317 39 149"/>
<path stroke-width="1" stroke="black" d="M 110 301 240 304"/>
<path stroke-width="1" stroke="black" d="M 110 301 409 164"/>
<path stroke-width="1" stroke="black" d="M 116 296 240 304"/>
<path stroke-width="1" stroke="black" d="M 116 296 420 183"/>
<path stroke-width="1" stroke="black" d="M 116 296 409 164"/>
<path stroke-width="1" stroke="black" d="M 116 296 395 255"/>
<path stroke-width="1" stroke="black" d="M 116 296 119 122"/>
<path stroke-width="1" stroke="black" d="M 116 296 113 44"/>
<path stroke-width="1" stroke="black" d="M 116 296 20 168"/>
<path stroke-width="1" stroke="black" d="M 235 317 222 177"/>
<path stroke-width="1" stroke="black" d="M 235 317 208 186"/>
<path stroke-width="1" stroke="black" d="M 235 317 29 92"/>
<path stroke-width="1" stroke="black" d="M 235 317 362 88"/>
<path stroke-width="1" stroke="black" d="M 235 317 280 41"/>
<path stroke-width="1" stroke="black" d="M 235 317 339 267"/>
<path stroke-width="1" stroke="black" d="M 235 317 60 220"/>
<path stroke-width="1" stroke="black" d="M 235 317 39 246"/>
<path stroke-width="1" stroke="black" d="M 235 317 224 198"/>
<path stroke-width="1" stroke="black" d="M 235 317 131 223"/>
<path stroke-width="1" stroke="black" d="M 235 317 247 20"/>
<path stroke-width="1" stroke="black" d="M 235 317 357 155"/>
<path stroke-width="1" stroke="black" d="M 116 296 318 259"/>
<path stroke-width="1" stroke="black" d="M 116 296 187 78"/>
<path stroke-width="1" stroke="black" d="M 116 296 230 320"/>
<path stroke-width="1" stroke="black" d="M 116 296 235 317"/>
<path stroke-width="1" stroke="black" d="M 110 301 395 255"/>
<path stroke-width="1" stroke="black" d="M 110 301 119 122"/>
<path stroke-width="1" stroke="black" d="M 110 301 113 44"/>
<path stroke-width="1" stroke="black" d="M 110 301 20 168"/>
<path stroke-width="1" stroke="black" d="M 116 296 222 177"/>
<path stroke-width="1" stroke="black" d="M 116 296 208 186"/>
<path stroke-width="1" stroke="black" d="M 116 296 29 92"/>
<path stroke-width="1" stroke="black" d="M 116 296 362 88"/>
<path stroke-width="1" stroke="black" d="M 116 296 280 41"/>
<path stroke-width="1" stroke="black" d="M 110 301 420 183"/>
<path stroke-width="1" stroke="black" d="M 116 296 339 267"/>
<path stroke-width="1" stroke="black" d="M 116 296 39 246"/>
<path stroke-width="1" stroke="black" d="M 116 296 224 198"/>
<path stroke-width="1" stroke="black" d="M 116 296 131 223"/>
<path stroke-width="1" stroke="black" d="M 116 296 247 20"/>
<path stroke-width="1" stroke="black" d="M 116 296 357 155"/>
<path stroke-width="1" stroke="black" d="M 116 296 326 77"/>
<path stroke-width="1" stroke="black" d="M 116 296 39 149"/>
<path stroke-width="1" stroke="black" d="M 116 296 130 50"/>
<path stroke-width="1" stroke="black" d="M 116 296 110 301"/>
<path stroke-width="1" stroke="black" d="M 116 296 60 220"/>
<path stroke-width="1" stroke="black" d="M 318 259 20 168"/>
<path stroke-width="1" stroke="black" d="M 240 304 222 177"/>
<path stroke-width="1" stroke="black" d="M 240 304 208 186"/>
<path stroke-width="1" stroke="black" d="M 119 122 39 149"/>
<path stroke-width="1" stroke="black" d="M 119 122 130 50"/>
<path stroke-width="1" stroke="black" d="M 119 122 110 301"/>
<path stroke-width="1" stroke="black" d="M 119 122 116 296"/>
<path stroke-width="1" stroke="black" d="M 119 122 235 317"/>
<path stroke-width="1" stroke="black" d="M 119 122 230 320"/>
<path stroke-width="1" stroke="black" d="M 119 122 187 78"/>
<path stroke-width="1" stroke="black" d="M 119 122 318 259"/>
<path stroke-width="1" stroke="black" d="M 119 122 240 304"/>
<path stroke-width="1" stroke="black" d="M 119 122 420 183"/>
<path stroke-width="1" stroke="black" d="M 119 122 409 164"/>
<path stroke-width="1" stroke="black" d="M 119 122 395 255"/>
<path stroke-width="1" stroke="black" d="M 119 122 113 44"/>
<path stroke-width="1" stroke="black" d="M 119 122 20 168"/>
<path stroke-width="1" stroke="black" d="M 113 44 222 177"/>
<path stroke-width="1" stroke="black" d="M 113 44 208 186"/>
<path stroke-width="1" stroke="black" d="M 113 44 29 92"/>
<path stroke-width="1" stroke="black" d="M 113 44 362 88"/>
<path stroke-width="1" stroke="black" d="M 113 44 280 41"/>
<path stroke-width="1" stroke="black" d="M 119 122 326 77"/>
<path stroke-width="1" stroke="black" d="M 119 122 357 155"/>
<path stroke-width="1" stroke="black" d="M 119 122 247 20"/>
<path stroke-width="1" stroke="black" d="M 119 122 131 223"/>
<path stroke-width="1" stroke="black" d="M 395 255 116 296"/>
<path stroke-width="1" stroke="black" d="M 395 255 235 317"/>
<path stroke-width="1" stroke="black" d="M 395 255 230 320"/>
<path stroke-width="1" stroke="black" d="M 395 255 187 78"/>
<path stroke-width="1" stroke="black" d="M 395 255 318 259"/>
<path stroke-width="1" stroke="black" d="M 395 255 240 304"/>
<path stroke-width="1" stroke="black" d="M 395 255 420 183"/>
<path stroke-width="1" stroke="black" d="M 395 255 409 164"/>
<path stroke-width="1" stroke="black" d="M 395 255 119 122"/>
<path stroke-width="1" stroke="black" d="M 113 44 339 267"/>
<path stroke-width="1" stroke="black" d="M 395 255 113 44"/>
<path stroke-width="1" stroke="black" d="M 119 122 222 177"/>
<path stroke-width="1" stroke="black" d="M 119 122 208 186"/>
<path stroke-width="1" stroke="black" d="M 119 122 29 92"/>
<path stroke-width="1" stroke="black" d="M 119 122 362 88"/>
<path stroke-width="1" stroke="black" d="M 119 122 280 41"/>
<path stroke-width="1" stroke="black" d="M 119 122 339 267"/>
<path stroke-width="1" stroke="black" d="M 119 122 60 220"/>
<path stroke-width="1" stroke="black" d="M 119 122 39 246"/>
<path stroke-width="1" stroke="black" d="M 119 122 224 198"/>
<path stroke-width="1" stroke="black" d="M 395 255 20 168"/>
<path stroke-width="1" stroke="black" d="M 395 255 110 301"/>
<path stroke-width="1" stroke="black" d="M 113 44 60 220"/>
<path stroke-width="1" stroke="black" d="M 113 44 224 198"/>
<path stroke-width="1" stroke="black" d="M 20 168 60 220"/>
<path stroke-width="1" stroke="black" d="M 20 168 39 246"/>
<path stroke-width="1" stroke="black" d="M 20 168 224 198"/>
<path stroke-width="1" stroke="black" d="M 20 168 131 223"/>
<path stroke-width="1" stroke="black" d="M 20 168 247 20"/>
<path stroke-width="1" stroke="black" d="M 20 168 357 155"/>
<path stroke-width="1" stroke="black" d="M 20 168 326 77"/>
<path stroke-width="1" stroke="black" d="M 20 168 39 149"/>
<path stroke-width="1" stroke="black" d="M 20 168 130 50"/>
<path stroke-width="1" stroke="black" d="M 20 168 110 301"/>
<path stroke-width="1" stroke="black" d="M 20 168 116 296"/>
<path stroke-width="1" stroke="black" d="M 20 168 235 317"/>
<path stroke-width="1" stroke="black" d="M 20 168 230 320"/>
<path stroke-width="1" stroke="black" d="M 20 168 187 78"/>
<path stroke-width="1" stroke="black" d="M 20 168 318 259"/>
<path stroke-width="1" stroke="black" d="M 20 168 240 304"/>
<path stroke-width="1" stroke="black" d="M 20 168 420 183"/>
<path stroke-width="1" stroke="black" d="M 20 168 409 164"/>
<path stroke-width="1" stroke="black" d="M 20 168 395 255"/>
<path stroke-width="1" stroke="black" d="M 20 168 339 267"/>
<path stroke-width="1" stroke="black" d="M 20 168 280 41"/>
<path stroke-width="1" stroke="black" d="M 20 168 362 88"/>
<path stroke-width="1" stroke="black" d="M 20 168 29 92"/>
<path stroke-width="1" stroke="black" d="M 113 44 131 223"/>
<path stroke-width="1" stroke="black" d="M 113 44 247 20"/>
<path stroke-width="1" stroke="black" d="M 113 44 357 155"/>
<path stroke-width="1" stroke="black" d="M 113 44 326 77"/>
<path stroke-width="1" stroke="black" d="M 113 44 39 149"/>
<path stroke-width="1" stroke="black" d="M 113 44 130 50"/>
<path stroke-width="1" stroke="black" d="M 113 44 110 301"/>
<path stroke-width="1" stroke="black" d="M 113 44 116 296"/>
<path stroke-width="1" stroke="black" d="M 113 44 235 317"/>
<path stroke-width="1" stroke="black" d="M 113 44 39 246"/>
<path stroke-width="1" stroke="black" d="M 113 44 230 320"/>
<path stroke-width="1" stroke="black" d="M 113 44 318 259"/>
<path stroke-width="1" stroke="black" d="M 113 44 240 304"/>
<path stroke-width="1" stroke="black" d="M 113 44 420 183"/>
<path stroke-width="1" stroke="black" d="M 113 44 409 164"/>
<path stroke-width="1" stroke="black" d="M 113 44 395 255"/>
<path stroke-width="1" stroke="black" d="M 113 44 119 122"/>
<path stroke-width="1" stroke="black" d="M 113 44 20 168"/>
<path stroke-width="1" stroke="black" d="M 20 168 222 177"/>
<path stroke-width="1" stroke="black" d="M 20 168 208 186"/>
<path stroke-width="1" stroke="black" d="M 113 44 187 78"/>
<path stroke-width="1" stroke="black" d="M 395 255 130 50"/>
<path stroke-width="1" stroke="black" d="M 395 255 39 149"/>
<path stroke-width="1" stroke="black" d="M 395 255 326 77"/>
<path stroke-width="1" stroke="black" d="M 240 304 20 168"/>
<path stroke-width="1" stroke="black" d="M 420 183 222 177"/>
<path stroke-width="1" stroke="black" d="M 420 183 208 186"/>
<path stroke-width="1" stroke="black" d="M 420 183 29 92"/>
<path stroke-width="1" stroke="black" d="M 420 183 362 88"/>
<path stroke-width="1" stroke="black" d="M 420 183 280 41"/>
<path stroke-width="1" stroke="black" d="M 420 183 339 267"/>
<path stroke-width="1" stroke="black" d="M 420 183 60 220"/>
<path stroke-width="1" stroke="black" d="M 420 183 39 246"/>
<path stroke-width="1" stroke="black" d="M 420 183 224 198"/>
<path stroke-width="1" stroke="black" d="M 420 183 131 223"/>
<path stroke-width="1" stroke="black" d="M 420 183 247 20"/>
<path stroke-width="1" stroke="black" d="M 420 183 357 155"/>
<path stroke-width="1" stroke="black" d="M 420 183 326 77"/>
<path stroke-width="1" stroke="black" d="M 420 183 39 149"/>
<path stroke-width="1" stroke="black" d="M 420 183 130 50"/>
<path stroke-width="1" stroke="black" d="M 420 183 110 301"/>
<path stroke-width="1" stroke="black" d="M 420 183 116 296"/>
<path stroke-width="1" stroke="black" d="M 420 183 235 317"/>
<path stroke-width="1" stroke="black" d="M 240 304 113 44"/>
<path stroke-width="1" stroke="black" d="M 240 304 119 122"/>
<path stroke-width="1" stroke="black" d="M 240 304 395 255"/>
<path stroke-width="1" stroke="black" d="M 240 304 409 164"/>
<path stroke-width="1" stroke="black" d="M 240 304 29 92"/>
<path stroke-width="1" stroke="black" d="M 240 304 362 88"/>
<path stroke-width="1" stroke="black" d="M 240 304 280 41"/>
<path stroke-width="1" stroke="black" d="M 240 304 339 267"/>
<path stroke-width="1" stroke="black" d="M 240 304 60 220"/>
<path stroke-width="1" stroke="black" d="M 240 304 39 246"/>
<path stroke-width="1" stroke="black" d="M 240 304 224 198"/>
<path stroke-width="1" stroke="black" d="M 240 304 131 223"/>
<path stroke-width="1" stroke="black" d="M 240 304 247 20"/>
<path stroke-width="1" stroke="black" d="M 420 183 230 320"/>
<path stroke-width="1" stroke="black" d="M 240 304 357 155"/>
<path stroke-width="1" stroke="black" d="M 240 304 39 149"/>
<path stroke-width="1" stroke="black" d="M 240 304 130 50"/>
<path stroke-width="1" stroke="black" d="M 240 304 110 301"/>
<path stroke-width="1" stroke="black" d="M 240 304 116 296"/>
<path stroke-width="1" stroke="black" d="M 240 304 235 317"/>
<path stroke-width="1" stroke="black" d="M 240 304 230 320"/>
<path stroke-width="1" stroke="black" d="M 240 304 187 78"/>
<path stroke-width="1" stroke="black" d="M 240 304 318 259"/>
<path stroke-width="1" stroke="black" d="M 240 304 420 183"/>
<path stroke-width="1" stroke="black" d="M 240 304 326 77"/>
<path stroke-width="1" stroke="black" d="M 420 183 187 78"/>
<path stroke-width="1" stroke="black" d="M 420 183 318 259"/>
<path stroke-width="1" stroke="black" d="M 420 183 240 304"/>
<path stroke-width="1" stroke="black" d="M 409 164 187 78"/>
<path stroke-width="1" stroke="black" d="M 409 164 318 259"/>
<path stroke-width="1" stroke="black" d="M 409 164 240 304"/>
<path stroke-width="1" stroke="black" d="M 409 164 420 183"/>
<path stroke-width="1" stroke="black" d="M 409 164 395 255"/>
<path stroke-width="1" stroke="black" d="M 409 164 119 122"/>
<path stroke-width="1" stroke="black" d="M 409 164 113 44"/>
<path stroke-width="1" stroke="black" d="M 409 164 20 168"/>
<path stroke-width="1" stroke="black" d="M 395 255 222 177"/>
<path stroke-width="1" stroke="black" d="M 409 164 230 320"/>
<path stroke-width="1" stroke="black" d="M 395 255 208 186"/>
<path stroke-width="1" stroke="black" d="M 395 255 362 88"/>
<path stroke-width="1" stroke="black" d="M 395 255 280 41"/>
<path stroke-width="1" stroke="black" d="M 395 255 339 267"/>
<path stroke-width="1" stroke="black" d="M 395 255 60 220"/>
<path stroke-width="1" stroke="black" d="M 395 255 39 246"/>
<path stroke-width="1" stroke="black" d="M 395 255 224 198"/>
<path stroke-width="1" stroke="black" d="M 395 255 131 223"/>
<path stroke-width="1" stroke="black" d="M 395 255 247 20"/>
<path stroke-width="1" stroke="black" d="M 395 255 357 155"/>
<path stroke-width="1" stroke="black" d="M 395 255 29 92"/>
<path stroke-width="1" stroke="black" d="M 130 50 29 92"/>
<path stroke-width="1" stroke="black" d="M 409 164 235 317"/>
<path stroke-width="1" stroke="black" d="M 409 164 110 301"/>
<path stroke-width="1" stroke="black" d="M 420 183 409 164"/>
<path stroke-width="1" stroke="black" d="M 420 183 395 255"/>
<path stroke-width="1" stroke="black" d="M 420 183 119 122"/>
<path stroke-width="1" stroke="black" d="M 420 183 113 44"/>
<path stroke-width="1" stroke="black" d="M 420 183 20 168"/>
<path stroke-width="1" stroke="black" d="M 409 164 222 177"/>
<path stroke-width="1" stroke="black" d="M 409 164 208 186"/>
<path stroke-width="1" stroke="black" d="M 409 164 29 92"/>
<path stroke-width="1" stroke="black" d="M 409 164 362 88"/>
<path stroke-width="1" stroke="black" d="M 409 164 116 296"/>
<path stroke-width="1" stroke="black" d="M 409 164 280 41"/>
<path stroke-width="1" stroke="black" d="M 409 164 60 220"/>
<path stroke-width="1" stroke="black" d="M 409 164 39 246"/>
<path stroke-width="1" stroke="black" d="M 409 164 224 198"/>
<path stroke-width="1" stroke="black" d="M 409 164 131 223"/>
<path stroke-width="1" stroke="black" d="M 409 164 247 20"/>
<path stroke-width="1" stroke="black" d="M 409 164 357 155"/>
<path stroke-width="1" stroke="black" d="M 409 164 326 77"/>
<path stroke-width="1" stroke="black" d="M 409 164 39 149"/>
<path stroke-width="1" stroke="black" d="M 409 164 130 50"/>
<path stroke-width="1" stroke="black" d="M 409 164 339 267"/>
<path stroke-width="1" stroke="black" d="M 130 50 208 186"/>
<path stroke-width="1" stroke="black" d="M 130 50 222 177"/>
<path stroke-width="1" stroke="black" d="M 39 149 20 168"/>
<path stroke-width="1" stroke="black" d="M 280 41 110 301"/>
<path stroke-width="1" stroke="black" d="M 280 41 116 296"/>
<path stroke-width="1" stroke="black" d="M 280 41 235 317"/>
<path stroke-width="1" stroke="black" d="M 280 41 230 320"/>
<path stroke-width="1" stroke="black" d="M 280 41 187 78"/>
<path stroke-width="1" stroke="black" d="M 280 41 318 259"/>
<path stroke-width="1" stroke="black" d="M 280 41 240 304"/>
<path stroke-width="1" stroke="black" d="M 280 41 420 183"/>
<path stroke-width="1" stroke="black" d="M 280 41 409 164"/>
<path stroke-width="1" stroke="black" d="M 280 41 395 255"/>
<path stroke-width="1" stroke="black" d="M 280 41 119 122"/>
<path stroke-width="1" stroke="black" d="M 280 41 113 44"/>
<path stroke-width="1" stroke="black" d="M 280 41 20 168"/>
<path stroke-width="1" stroke="black" d="M 339 267 222 177"/>
<path stroke-width="1" stroke="black" d="M 339 267 208 186"/>
<path stroke-width="1" stroke="black" d="M 339 267 29 92"/>
<path stroke-width="1" stroke="black" d="M 339 267 362 88"/>
<path stroke-width="1" stroke="black" d="M 339 267 280 41"/>
<path stroke-width="1" stroke="black" d="M 339 267 60 220"/>
<path stroke-width="1" stroke="black" d="M 280 41 130 50"/>
<path stroke-width="1" stroke="black" d="M 280 41 39 149"/>
<path stroke-width="1" stroke="black" d="M 280 41 326 77"/>
<path stroke-width="1" stroke="black" d="M 280 41 357 155"/>
<path stroke-width="1" stroke="black" d="M 362 88 235 317"/>
<path stroke-width="1" stroke="black" d="M 362 88 230 320"/>
<path stroke-width="1" stroke="black" d="M 362 88 187 78"/>
<path stroke-width="1" stroke="black" d="M 362 88 318 259"/>
<path stroke-width="1" stroke="black" d="M 362 88 240 304"/>
<path stroke-width="1" stroke="black" d="M 362 88 420 183"/>
<path stroke-width="1" stroke="black" d="M 362 88 409 164"/>
<path stroke-width="1" stroke="black" d="M 362 88 395 255"/>
<path stroke-width="1" stroke="black" d="M 362 88 119 122"/>
<path stroke-width="1" stroke="black" d="M 339 267 39 246"/>
<path stroke-width="1" stroke="black" d="M 362 88 113 44"/>
<path stroke-width="1" stroke="black" d="M 280 41 222 177"/>
<path stroke-width="1" stroke="black" d="M 280 41 208 186"/>
<path stroke-width="1" stroke="black" d="M 280 41 362 88"/>
<path stroke-width="1" stroke="black" d="M 280 41 339 267"/>
<path stroke-width="1" stroke="black" d="M 280 41 60 220"/>
<path stroke-width="1" stroke="black" d="M 280 41 39 246"/>
<path stroke-width="1" stroke="black" d="M 280 41 224 198"/>
<path stroke-width="1" stroke="black" d="M 280 41 131 223"/>
<path stroke-width="1" stroke="black" d="M 280 41 247 20"/>
<path stroke-width="1" stroke="black" d="M 362 88 20 168"/>
<path stroke-width="1" stroke="black" d="M 362 88 116 296"/>
<path stroke-width="1" stroke="black" d="M 339 267 224 198"/>
<path stroke-width="1" stroke="black" d="M 339 267 247 20"/>
<path stroke-width="1" stroke="black" d="M 60 220 224 198"/>
<path stroke-width="1" stroke="black" d="M 60 220 131 223"/>
<path stroke-width="1" stroke="black" d="M 60 220 247 20"/>
<path stroke-width="1" stroke="black" d="M 60 220 357 155"/>
<path stroke-width="1" stroke="black" d="M 60 220 326 77"/>
<path stroke-width="1" stroke="black" d="M 60 220 39 149"/>
<path stroke-width="1" stroke="black" d="M 60 220 130 50"/>
<path stroke-width="1" stroke="black" d="M 60 220 110 301"/>
<path stroke-width="1" stroke="black" d="M 60 220 116 296"/>
<path stroke-width="1" stroke="black" d="M 60 220 235 317"/>
<path stroke-width="1" stroke="black" d="M 60 220 230 320"/>
<path stroke-width="1" stroke="black" d="M 60 220 187 78"/>
<path stroke-width="1" stroke="black" d="M 60 220 318 259"/>
<path stroke-width="1" stroke="black" d="M 60 220 240 304"/>
<path stroke-width="1" stroke="black" d="M 60 220 420 183"/>
<path stroke-width="1" stroke="black" d="M 60 220 409 164"/>
<path stroke-width="1" stroke="black" d="M 60 220 395 255"/>
<path stroke-width="1" stroke="black" d="M 60 220 119 122"/>
<path stroke-width="1" stroke="black" d="M 60 220 113 44"/>
<path stroke-width="1" stroke="black" d="M 60 220 39 246"/>
<path stroke-width="1" stroke="black" d="M 60 220 339 267"/>
<path stroke-width="1" stroke="black" d="M 60 220 280 41"/>
<path stroke-width="1" stroke="black" d="M 60 220 362 88"/>
<path stroke-width="1" stroke="black" d="M 339 267 357 155"/>
<path stroke-width="1" stroke="black" d="M 339 267 326 77"/>
<path stroke-width="1" stroke="black" d="M 339 267 39 149"/>
<path stroke-width="1" stroke="black" d="M 339 267 130 50"/>
<path stroke-width="1" stroke="black" d="M 339 267 110 301"/>
<path stroke-width="1" stroke="black" d="M 339 267 116 296"/>
<path stroke-width="1" stroke="black" d="M 339 267 235 317"/>
<path stroke-width="1" stroke="black" d="M 339 267 230 320"/>
<path stroke-width="1" stroke="black" d="M 339 267 187 78"/>
<path stroke-width="1" stroke="black" d="M 339 267 131 223"/>
<path stroke-width="1" stroke="black" d="M 339 267 318 259"/>
<path stroke-width="1" stroke="black" d="M 339 267 420 183"/>
<path stroke-width="1" stroke="black" d="M 339 267 409 164"/>
<path stroke-width="1" stroke="black" d="M 339 267 395 255"/>
<path stroke-width="1" stroke="black" d="M 339 267 119 122"/>
<path stroke-width="1" stroke="black" d="M 339 267 113 44"/>
<path stroke-width="1" stroke="black" d="M 339 267 20 168"/>
<path stroke-width="1" stroke="black" d="M 60 220 222 177"/>
<path stroke-width="1" stroke="black" d="M 60 220 208 186"/>
<path stroke-width="1" stroke="black" d="M 60 220 29 92"/>
<path stroke-width="1" stroke="black" d="M 339 267 240 304"/>
<path stroke-width="1" stroke="black" d="M 362 88 110 301"/>
<path stroke-width="1" stroke="black" d="M 362 88 130 50"/>
<path stroke-width="1" stroke="black" d="M 362 88 39 149"/>
<path stroke-width="1" stroke="black" d="M 222 177 113 44"/>
<path stroke-width="1" stroke="black" d="M 222 177 20 168"/>
<path stroke-width="1" stroke="black" d="M 208 186 222 177"/>
<path stroke-width="1" stroke="black" d="M 208 186 29 92"/>
<path stroke-width="1" stroke="black" d="M 208 186 362 88"/>
<path stroke-width="1" stroke="black" d="M 208 186 280 41"/>
<path stroke-width="1" stroke="black" d="M 208 186 339 267"/>
<path stroke-width="1" stroke="black" d="M 208 186 60 220"/>
<path stroke-width="1" stroke="black" d="M 208 186 39 246"/>
<path stroke-width="1" stroke="black" d="M 208 186 224 198"/>
<path stroke-width="1" stroke="black" d="M 208 186 131 223"/>
<path stroke-width="1" stroke="black" d="M 208 186 247 20"/>
<path stroke-width="1" stroke="black" d="M 208 186 357 155"/>
<path stroke-width="1" stroke="black" d="M 208 186 326 77"/>
<path stroke-width="1" stroke="black" d="M 208 186 39 149"/>
<path stroke-width="1" stroke="black" d="M 208 186 130 50"/>
<path stroke-width="1" stroke="black" d="M 208 186 110 301"/>
<path stroke-width="1" stroke="black" d="M 208 186 116 296"/>
<path stroke-width="1" stroke="black" d="M 208 186 235 317"/>
<path stroke-width="1" stroke="black" d="M 222 177 119 122"/>
<path stroke-width="1" stroke="black" d="M 222 177 395 255"/>
<path stroke-width="1" stroke="black" d="M 222 177 409 164"/>
<path stroke-width="1" stroke="black" d="M 222 177 420 183"/>
<path stroke-width="1" stroke="black" d="M 222 177 29 92"/>
<path stroke-width="1" stroke="black" d="M 222 177 362 88"/>
<path stroke-width="1" stroke="black" d="M 222 177 280 41"/>
<path stroke-width="1" stroke="black" d="M 222 177 339 267"/>
<path stroke-width="1" stroke="black" d="M 222 177 60 220"/>
<path stroke-width="1" stroke="black" d="M 222 177 39 246"/>
<path stroke-width="1" stroke="black" d="M 222 177 224 198"/>
<path stroke-width="1" stroke="black" d="M 222 177 131 223"/>
<path stroke-width="1" stroke="black" d="M 222 177 247 20"/>
<path stroke-width="1" stroke="black" d="M 208 186 230 320"/>
<path stroke-width="1" stroke="black" d="M 222 177 357 155"/>
<path stroke-width="1" stroke="black" d="M 222 177 39 149"/>
<path stroke-width="1" stroke="black" d="M 222 177 130 50"/>
<path stroke-width="1" stroke="black" d="M 222 177 110 301"/>
<path stroke-width="1" stroke="black" d="M 222 177 116 296"/>
<path stroke-width="1" stroke="black" d="M 222 177 235 317"/>
<path stroke-width="1" stroke="black" d="M 222 177 230 320"/>
<path stroke-width="1" stroke="black" d="M 222 177 187 78"/>
<path stroke-width="1" stroke="black" d="M 222 177 318 259"/>
<path stroke-width="1" stroke="black" d="M 222 177 240 304"/>
<path stroke-width="1" stroke="black" d="M 222 177 326 77"/>
<path stroke-width="1" stroke="black" d="M 208 186 187 78"/>
<path stroke-width="1" stroke="black" d="M 208 186 318 259"/>
<path stroke-width="1" stroke="black" d="M 208 186 240 304"/>
<path stroke-width="1" stroke="black" d="M 29 92 318 259"/>
<path stroke-width="1" stroke="black" d="M 29 92 240 304"/>
<path stroke-width="1" stroke="black" d="M 29 92 420 183"/>
<path stroke-width="1" stroke="black" d="M 29 92 409 164"/>
<path stroke-width="1" stroke="black" d="M 29 92 395 255"/>
<path stroke-width="1" stroke="black" d="M 29 92 119 122"/>
<path stroke-width="1" stroke="black" d="M 29 92 113 44"/>
<path stroke-width="1" stroke="black" d="M 29 92 20 168"/>
<path stroke-width="1" stroke="black" d="M 362 88 222 177"/>
<path stroke-width="1" stroke="black" d="M 29 92 187 78"/>
<path stroke-width="1" stroke="black" d="M 362 88 208 186"/>
<path stroke-width="1" stroke="black" d="M 362 88 280 41"/>
<path stroke-width="1" stroke="black" d="M 362 88 339 267"/>
<path stroke-width="1" stroke="black" d="M 362 88 60 220"/>
<path stroke-width="1" stroke="black" d="M 362 88 39 246"/>
<path stroke-width="1" stroke="black" d="M 362 88 224 198"/>
<path stroke-width="1" stroke="black" d="M 362 88 131 223"/>
<path stroke-width="1" stroke="black" d="M 362 88 247 20"/>
<path stroke-width="1" stroke="black" d="M 362 88 357 155"/>
<path stroke-width="1" stroke="black" d="M 362 88 326 77"/>
<path stroke-width="1" stroke="black" d="M 362 88 29 92"/>
<path stroke-width="1" stroke="black" d="M 60 220 20 168"/>
<path stroke-width="1" stroke="black" d="M 29 92 230 320"/>
<path stroke-width="1" stroke="black" d="M 29 92 116 296"/>
<path stroke-width="1" stroke="black" d="M 208 186 420 183"/>
<path stroke-width="1" stroke="black" d="M 208 186 409 164"/>
<path stroke-width="1" stroke="black" d="M 208 186 395 255"/>
<path stroke-width="1" stroke="black" d="M 208 186 119 122"/>
<path stroke-width="1" stroke="black" d="M 208 186 113 44"/>
<path stroke-width="1" stroke="black" d="M 208 186 20 168"/>
<path stroke-width="1" stroke="black" d="M 29 92 222 177"/>
<path stroke-width="1" stroke="black" d="M 29 92 208 186"/>
<path stroke-width="1" stroke="black" d="M 29 92 362 88"/>
<path stroke-width="1" stroke="black" d="M 29 92 235 317"/>
<path stroke-width="1" stroke="black" d="M 29 92 339 267"/>
<path stroke-width="1" stroke="black" d="M 29 92 39 246"/>
<path stroke-width="1" stroke="black" d="M 29 92 224 198"/>
<path stroke-width="1" stroke="black" d="M 29 92 131 223"/>
<path stroke-width="1" stroke="black" d="M 29 92 247 20"/>
<path stroke-width="1" stroke="black" d="M 29 92 357 155"/>
<path stroke-width="1" stroke="black" d="M 29 92 326 77"/>
<path stroke-width="1" stroke="black" d="M 29 92 39 149"/>
<path stroke-width="1" stroke="black" d="M 29 92 130 50"/>
<path stroke-width="1" stroke="black" d="M 29 92 110 301"/>
<path stroke-width="1" stroke="black" d="M 29 92 60 220"/>
<path stroke-width="1" stroke="black" d="M 20 168 119 122"/>
<path stroke-width="1" stroke="black" d="M 39 246 222 177"/>
<path stroke-width="1" stroke="black" d="M 39 246 29 92"/>
<path stroke-width="1" stroke="black" d="M 357 155 110 301"/>
<path stroke-width="1" stroke="black" d="M 357 155 116 296"/>
<path stroke-width="1" stroke="black" d="M 357 155 235 317"/>
<path stroke-width="1" stroke="black" d="M 357 155 230 320"/>
<path stroke-width="1" stroke="black" d="M 357 155 187 78"/>
<path stroke-width="1" stroke="black" d="M 357 155 318 259"/>
<path stroke-width="1" stroke="black" d="M 357 155 240 304"/>
<path stroke-width="1" stroke="black" d="M 357 155 420 183"/>
<path stroke-width="1" stroke="black" d="M 357 155 409 164"/>
<path stroke-width="1" stroke="black" d="M 357 155 395 255"/>
<path stroke-width="1" stroke="black" d="M 357 155 119 122"/>
<path stroke-width="1" stroke="black" d="M 357 155 113 44"/>
<path stroke-width="1" stroke="black" d="M 357 155 20 168"/>
<path stroke-width="1" stroke="black" d="M 326 77 222 177"/>
<path stroke-width="1" stroke="black" d="M 326 77 208 186"/>
<path stroke-width="1" stroke="black" d="M 326 77 29 92"/>
<path stroke-width="1" stroke="black" d="M 326 77 362 88"/>
<path stroke-width="1" stroke="black" d="M 326 77 280 41"/>
<path stroke-width="1" stroke="black" d="M 326 77 339 267"/>
<path stroke-width="1" stroke="black" d="M 357 155 130 50"/>
<path stroke-width="1" stroke="black" d="M 357 155 39 149"/>
<path stroke-width="1" stroke="black" d="M 357 155 326 77"/>
<path stroke-width="1" stroke="black" d="M 357 155 247 20"/>
<path stroke-width="1" stroke="black" d="M 247 20 230 320"/>
<path stroke-width="1" stroke="black" d="M 247 20 187 78"/>
<path stroke-width="1" stroke="black" d="M 247 20 318 259"/>
<path stroke-width="1" stroke="black" d="M 247 20 240 304"/>
<path stroke-width="1" stroke="black" d="M 247 20 420 183"/>
<path stroke-width="1" stroke="black" d="M 247 20 409 164"/>
<path stroke-width="1" stroke="black" d="M 247 20 395 255"/>
<path stroke-width="1" stroke="black" d="M 247 20 119 122"/>
<path stroke-width="1" stroke="black" d="M 247 20 113 44"/>
<path stroke-width="1" stroke="black" d="M 326 77 60 220"/>
<path stroke-width="1" stroke="black" d="M 247 20 20 168"/>
<path stroke-width="1" stroke="black" d="M 357 155 208 186"/>
<path stroke-width="1" stroke="black" d="M 357 155 29 92"/>
<path stroke-width="1" stroke="black" d="M 357 155 362 88"/>
<path stroke-width="1" stroke="black" d="M 357 155 280 41"/>
<path stroke-width="1" stroke="black" d="M 357 155 339 267"/>
<path stroke-width="1" stroke="black" d="M 357 155 60 220"/>
<path stroke-width="1" stroke="black" d="M 357 155 39 246"/>
<path stroke-width="1" stroke="black" d="M 357 155 224 198"/>
<path stroke-width="1" stroke="black" d="M 357 155 131 223"/>
<path stroke-width="1" stroke="black" d="M 357 155 222 177"/>
<path stroke-width="1" stroke="black" d="M 247 20 235 317"/>
<path stroke-width="1" stroke="black" d="M 326 77 39 246"/>
<path stroke-width="1" stroke="black" d="M 326 77 131 223"/>
<path stroke-width="1" stroke="black" d="M 39 149 39 246"/>
<path stroke-width="1" stroke="black" d="M 39 149 224 198"/>
<path stroke-width="1" stroke="black" d="M 39 149 131 223"/>
<path stroke-width="1" stroke="black" d="M 39 149 247 20"/>
<path stroke-width="1" stroke="black" d="M 39 149 357 155"/>
<path stroke-width="1" stroke="black" d="M 39 149 326 77"/>
<path stroke-width="1" stroke="black" d="M 39 149 130 50"/>
<path stroke-width="1" stroke="black" d="M 39 149 110 301"/>
<path stroke-width="1" stroke="black" d="M 39 149 116 296"/>
<path stroke-width="1" stroke="black" d="M 39 149 235 317"/>
<path stroke-width="1" stroke="black" d="M 39 149 230 320"/>
<path stroke-width="1" stroke="black" d="M 39 149 187 78"/>
<path stroke-width="1" stroke="black" d="M 39 149 318 259"/>
<path stroke-width="1" stroke="black" d="M 39 149 240 304"/>
<path stroke-width="1" stroke="black" d="M 39 149 420 183"/>
<path stroke-width="1" stroke="black" d="M 39 149 409 164"/>
<path stroke-width="1" stroke="black" d="M 39 149 395 255"/>
<path stroke-width="1" stroke="black" d="M 39 149 119 122"/>
<path stroke-width="1" stroke="black" d="M 39 149 113 44"/>
<path stroke-width="1" stroke="black" d="M 39 149 60 220"/>
<path stroke-width="1" stroke="black" d="M 39 149 339 267"/>
<path stroke-width="1" stroke="black" d="M 39 149 280 41"/>
<path stroke-width="1" stroke="black" d="M 39 149 362 88"/>
<path stroke-width="1" stroke="black" d="M 326 77 247 20"/>
<path stroke-width="1" stroke="black" d="M 326 77 357 155"/>
<path stroke-width="1" stroke="black" d="M 326 77 39 149"/>
<path stroke-width="1" stroke="black" d="M 326 77 130 50"/>
<path stroke-width="1" stroke="black" d="M 326 77 110 301"/>
<path stroke-width="1" stroke="black" d="M 326 77 116 296"/>
<path stroke-width="1" stroke="black" d="M 326 77 235 317"/>
<path stroke-width="1" stroke="black" d="M 326 77 230 320"/>
<path stroke-width="1" stroke="black" d="M 326 77 187 78"/>
<path stroke-width="1" stroke="black" d="M 326 77 224 198"/>
<path stroke-width="1" stroke="black" d="M 326 77 318 259"/>
<path stroke-width="1" stroke="black" d="M 326 77 420 183"/>
<path stroke-width="1" stroke="black" d="M 326 77 409 164"/>
<path stroke-width="1" stroke="black" d="M 326 77 395 255"/>
<path stroke-width="1" stroke="black" d="M 326 77 119 122"/>
<path stroke-width="1" stroke="black" d="M 326 77 113 44"/>
<path stroke-width="1" stroke="black" d="M 326 77 20 168"/>
<path stroke-width="1" stroke="black" d="M 39 149 222 177"/>
<path stroke-width="1" stroke="black" d="M 39 149 208 186"/>
<path stroke-width="1" stroke="black" d="M 39 149 29 92"/>
<path stroke-width="1" stroke="black" d="M 326 77 240 304"/>
<path stroke-width="1" stroke="black" d="M 247 20 116 296"/>
<path stroke-width="1" stroke="black" d="M 247 20 110 301"/>
<path stroke-width="1" stroke="black" d="M 247 20 130 50"/>
<path stroke-width="1" stroke="black" d="M 224 198 222 177"/>
<path stroke-width="1" stroke="black" d="M 224 198 208 186"/>
<path stroke-width="1" stroke="black" d="M 224 198 29 92"/>
<path stroke-width="1" stroke="black" d="M 224 198 362 88"/>
<path stroke-width="1" stroke="black" d="M 224 198 280 41"/>
<path stroke-width="1" stroke="black" d="M 224 198 339 267"/>
<path stroke-width="1" stroke="black" d="M 224 198 60 220"/>
<path stroke-width="1" stroke="black" d="M 224 198 39 246"/>
<path stroke-width="1" stroke="black" d="M 224 198 131 223"/>
<path stroke-width="1" stroke="black" d="M 224 198 247 20"/>
<path stroke-width="1" stroke="black" d="M 224 198 357 155"/>
<path stroke-width="1" stroke="black" d="M 224 198 326 77"/>
<path stroke-width="1" stroke="black" d="M 224 198 39 149"/>
<path stroke-width="1" stroke="black" d="M 224 198 130 50"/>
<path stroke-width="1" stroke="black" d="M 224 198 110 301"/>
<path stroke-width="1" stroke="black" d="M 224 198 116 296"/>
<path stroke-width="1" stroke="black" d="M 224 198 235 317"/>
<path stroke-width="1" stroke="black" d="M 224 198 230 320"/>
<path stroke-width="1" stroke="black" d="M 224 198 187 78"/>
<path stroke-width="1" stroke="black" d="M 39 246 20 168"/>
<path stroke-width="1" stroke="black" d="M 39 246 113 44"/>
<path stroke-width="1" stroke="black" d="M 39 246 119 122"/>
<path stroke-width="1" stroke="black" d="M 39 246 395 255"/>
<path stroke-width="1" stroke="black" d="M 39 246 362 88"/>
<path stroke-width="1" stroke="black" d="M 39 246 280 41"/>
<path stroke-width="1" stroke="black" d="M 39 246 339 267"/>
<path stroke-width="1" stroke="black" d="M 39 246 60 220"/>
<path stroke-width="1" stroke="black" d="M 39 246 224 198"/>
<path stroke-width="1" stroke="black" d="M 39 246 131 223"/>
<path stroke-width="1" stroke="black" d="M 39 246 247 20"/>
<path stroke-width="1" stroke="black" d="M 39 246 357 155"/>
<path stroke-width="1" stroke="black" d="M 39 246 326 77"/>
<path stroke-width="1" stroke="black" d="M 224 198 318 259"/>
<path stroke-width="1" stroke="black" d="M 39 246 39 149"/>
<path stroke-width="1" stroke="black" d="M 39 246 110 301"/>
<path stroke-width="1" stroke="black" d="M 39 246 116 296"/>
<path stroke-width="1" stroke="black" d="M 39 246 235 317"/>
<path stroke-width="1" stroke="black" d="M 39 246 230 320"/>
<path stroke-width="1" stroke="black" d="M 39 246 187 78"/>
<path stroke-width="1" stroke="black" d="M 39 246 318 259"/>
<path stroke-width="1" stroke="black" d="M 39 246 240 304"/>
<path stroke-width="1" stroke="black" d="M 39 246 420 183"/>
<path stroke-width="1" stroke="black" d="M 39 246 409 164"/>
<path stroke-width="1" stroke="black" d="M 39 246 130 50"/>
<path stroke-width="1" stroke="black" d="M 224 198 240 304"/>
<path stroke-width="1" stroke="black" d="M 224 198 420 183"/>
<path stroke-width="1" stroke="black" d="M 224 198 409 164"/>
<path stroke-width="1" stroke="black" d="M 131 223 240 304"/>
<path stroke-width="1" stroke="black" d="M 131 223 420 183"/>
<path stroke-width="1" stroke="black" d="M 131 223 409 164"/>
<path stroke-width="1" stroke="black" d="M 131 223 395 255"/>
<path stroke-width="1" stroke="black" d="M 131 223 119 122"/>
<path stroke-width="1" stroke="black" d="M 131 223 113 44"/>
<path stroke-width="1" stroke="black" d="M 131 223 20 168"/>
<path stroke-width="1" stroke="black" d="M 247 20 222 177"/>
<path stroke-width="1" stroke="black" d="M 247 20 208 186"/>
<path stroke-width="1" stroke="black" d="M 131 223 318 259"/>
<path stroke-width="1" stroke="black" d="M 247 20 29 92"/>
<path stroke-width="1" stroke="black" d="M 247 20 280 41"/>
<path stroke-width="1" stroke="black" d="M 247 20 339 267"/>
<path stroke-width="1" stroke="black" d="M 247 20 60 220"/>
<path stroke-width="1" stroke="black" d="M 247 20 39 246"/>
<path stroke-width="1" stroke="black" d="M 247 20 224 198"/>
<path stroke-width="1" stroke="black" d="M 247 20 131 223"/>
<path stroke-width="1" stroke="black" d="M 247 20 357 155"/>
<path stroke-width="1" stroke="black" d="M 247 20 326 77"/>
<path stroke-width="1" stroke="black" d="M 247 20 39 149"/>
<path stroke-width="1" stroke="black" d="M 247 20 362 88"/>
<path stroke-width="1" stroke="black" d="M 39 246 208 186"/>
<path stroke-width="1" stroke="black" d="M 131 223 187 78"/>
<path stroke-width="1" stroke="black" d="M 131 223 235 317"/>
<path stroke-width="1" stroke="black" d="M 224 198 395 255"/>
<path stroke-width="1" stroke="black" d="M 224 198 119 122"/>
<path stroke-width="1" stroke="black" d="M 224 198 113 44"/>
<path stroke-width="1" stroke="black" d="M 224 198 20 168"/>
<path stroke-width="1" stroke="black" d="M 131 223 222 177"/>
<path stroke-width="1" stroke="black" d="M 131 223 208 186"/>
<path stroke-width="1" stroke="black" d="M 131 223 29 92"/>
<path stroke-width="1" stroke="black" d="M 131 223 362 88"/>
<path stroke-width="1" stroke="black" d="M 131 223 280 41"/>
<path stroke-width="1" stroke="black" d="M 131 223 230 320"/>
<path stroke-width="1" stroke="black" d="M 131 223 339 267"/>
<path stroke-width="1" stroke="black" d="M 131 223 39 246"/>
<path stroke-width="1" stroke="black" d="M 131 223 224 198"/>
<path stroke-width="1" stroke="black" d="M 131 223 247 20"/>
<path stroke-width="1" stroke="black" d="M 131 223 357 155"/>
<path stroke-width="1" stroke="black" d="M 131 223 326 77"/>
<path stroke-width="1" stroke="black" d="M 131 223 39 149"/>
<path stroke-width="1" stroke="black" d="M 131 223 130 50"/>
<path stroke-width="1" stroke="black" d="M 131 223 110 301"/>
<path stroke-width="1" stroke="black" d="M 131 223 116 296"/>
<path stroke-width="1" stroke="black" d="M 131 223 60 220"/>
<path stroke-width="1" stroke="black" d="M 20 168 113 44"/>
<circle cx="222" cy="177" r="7.0" style="fill:blue;stroke:black;stroke-width:1.0"/>
<circle cx="208" cy="186" r="7.0" style="fill:blue;stroke:black;stroke-width:1.0"/>
<circle cx="29" cy="92" r="7.0" style="fill:blue;stroke:black;stroke-width:1.0"/>
<circle cx="362" cy="88" r="7.0" style="fill:green;stroke:black;stroke-width:1.0"/>
<circle cx="280" cy="41" r="7.0" style="fill:purple;stroke:black;stroke-width:1.0"/>
<circle cx="339" cy="267" r="7.0" style="fill:orange;stroke:black;stroke-width:1.0"/>
<circle cx="60" cy="220" r="7.0" style="fill:red;stroke:black;stroke-width:1.0"/>
<circle cx="39" cy="246" r="7.0" style="fill:blue;stroke:black;stroke-width:1.0"/>
<circle cx="224" cy="198" r="7.0" style="fill:blue;stroke:black;stroke-width:1.0"/>
<circle cx="131" cy="223" r="7.0" style="fill:blue;stroke:black;stroke-width:1.0"/>
<circle cx="247" cy="20" r="7.0" style="fill:yellow;stroke:black;stroke-width:1.0"/>
<circle cx="357" cy="155" r="7.0" style="fill:blue;stroke:black;stroke-width:1.0"/>
<circle cx="326" cy="77" r="7.0" style="fill:blue;stroke:black;stroke-width:1.0"/>
<circle cx="39" cy="149" r="7.0" style="fill:blue;stroke:black;stroke-width:1.0"/>
<circle cx="130" cy="50" r="7.0" style="fill:blue;stroke:black;stroke-width:1.0"/>
<circle cx="110" cy="301" r="7.0" style="fill:blue;stroke:black;stroke-width:1.0"/>
<circle cx="116" cy="296" r="7.0" style="fill:fuchsia;stroke:black;stroke-width:1.0"/>
<circle cx="235" cy="317" r="7.0" style="fill:blue;stroke:black;stroke-width:1.0"/>
<circle cx="230" cy="320" r="7.0" style="fill:blue;stroke:black;stroke-width:1.0"/>
<circle cx="187" cy="78" r="7.0" style="fill:red;stroke:black;stroke-width:1.0"/>
<circle cx="318" cy="259" r="7.0" style="fill:blue;stroke:black;stroke-width:1.0"/>
<circle cx="240" cy="304" r="7.0" style="fill:green;stroke:black;stroke-width:1.0"/>
<circle cx="420" cy="183" r="7.0" style="fill:orange;stroke:black;stroke-width:1.0"/>
<circle cx="409" cy="164" r="7.0" style="fill:blue;stroke:black;stroke-width:1.0"/>
<circle cx="395" cy="255" r="7.0" style="fill:purple;stroke:black;stroke-width:1.0"/>
<circle cx="119" cy="122" r="7.0" style="fill:blue;stroke:black;stroke-width:1.0"/>
<circle cx="113" cy="44" r="7.0" style="fill:yellow;stroke:black;stroke-width:1.0"/>
<circle cx="20" cy="168" r="7.0" style="fill:fuchsia;stroke:black;stroke-width:1.0"/>
</svg>
