<svg width="440" height="340" xmlns="http://www.w3.org/2000/svg">
<path stroke-width="1" stroke="black" d="M 212 175 243 153"/>
<path stroke-width="1" stroke="black" d="M 311 295 321 195"/>
<path stroke-width="1" stroke="black" d="M 311 295 121 115"/>
<path stroke-width="1" stroke="black" d="M 311 295 408 168"/>
<path stroke-width="1" stroke="black" d="M 311 295 60 130"/>
<path stroke-width="1" stroke="black" d="M 311 295 212 236"/>
<path stroke-width="1" stroke="black" d="M 311 295 208 59"/>
<path stroke-width="1" stroke="black" d="M 311 295 170 170"/>
<path stroke-width="1" stroke="black" d="M 311 295 221 47"/>
<path stroke-width="1" stroke="black" d="M 311 295 85 67"/>
<path stroke-width="1" stroke="black" d="M 311 295 341 72"/>
<path stroke-width="1" stroke="black" d="M 311 295 131 26"/>
<path stroke-width="1" stroke="black" d="M 311 295 188 320"/>
<path stroke-width="1" stroke="black" d="M 311 295 305 226"/>
<path stroke-width="1" stroke="black" d="M 311 295 246 20"/>
<path stroke-width="1" stroke="black" d="M 208 59 212 175"/>
<path stroke-width="1" stroke="black" d="M 208 59 243 153"/>
<path stroke-width="1" stroke="black" d="M 208 59 420 233"/>
<path stroke-width="1" stroke="black" d="M 208 59 324 61"/>
<path stroke-width="1" stroke="black" d="M 208 59 20 120"/>
<path stroke-width="1" stroke="black" d="M 311 295 175 302"/>
<path stroke-width="1" stroke="black" d="M 311 295 53 213"/>
<path stroke-width="1" stroke="black" d="M 311 295 105 272"/>
<path stroke-width="1" stroke="black" d="M 311 295 335 280"/>
<path stroke-width="1" stroke="black" d="M 212 236 60 130"/>
<path stroke-width="1" stroke="black" d="M 212 236 311 295"/>
<path stroke-width="1" stroke="black" d="M 212 236 208 59"/>
<path stroke-width="1" stroke="black" d="M 212 236 170 170"/>
<path stroke-width="1" stroke="black" d="M 212 236 221 47"/>
<path stroke-width="1" stroke="black" d="M 212 236 85 67"/>
<path stroke-width="1" stroke="black" d="M 212 236 341 72"/>
<path stroke-width="1" stroke="black" d="M 212 236 131 26"/>
<path stroke-width="1" stroke="black" d="M 212 236 188 320"/>
<path stroke-width="1" stroke="black" d="M 208 59 56 217"/>
<path stroke-width="1" stroke="black" d="M 212 236 305 226"/>
<path stroke-width="1" stroke="black" d="M 311 295 212 175"/>
<path stroke-width="1" stroke="black" d="M 311 295 243 153"/>
<path stroke-width="1" stroke="black" d="M 311 295 420 233"/>
<path stroke-width="1" stroke="black" d="M 311 295 324 61"/>
<path stroke-width="1" stroke="black" d="M 311 295 20 120"/>
<path stroke-width="1" stroke="black" d="M 311 295 56 217"/>
<path stroke-width="1" stroke="black" d="M 311 295 378 141"/>
<path stroke-width="1" stroke="black" d="M 311 295 224 294"/>
<path stroke-width="1" stroke="black" d="M 311 295 355 87"/>
<path stroke-width="1" stroke="black" d="M 212 236 246 20"/>
<path stroke-width="1" stroke="black" d="M 212 236 408 168"/>
<path stroke-width="1" stroke="black" d="M 208 59 378 141"/>
<path stroke-width="1" stroke="black" d="M 208 59 355 87"/>
<path stroke-width="1" stroke="black" d="M 170 170 378 141"/>
<path stroke-width="1" stroke="black" d="M 170 170 224 294"/>
<path stroke-width="1" stroke="black" d="M 170 170 355 87"/>
<path stroke-width="1" stroke="black" d="M 170 170 335 280"/>
<path stroke-width="1" stroke="black" d="M 170 170 105 272"/>
<path stroke-width="1" stroke="black" d="M 170 170 53 213"/>
<path stroke-width="1" stroke="black" d="M 170 170 175 302"/>
<path stroke-width="1" stroke="black" d="M 170 170 321 195"/>
<path stroke-width="1" stroke="black" d="M 170 170 121 115"/>
<path stroke-width="1" stroke="black" d="M 170 170 408 168"/>
<path stroke-width="1" stroke="black" d="M 170 170 60 130"/>
<path stroke-width="1" stroke="black" d="M 170 170 212 236"/>
<path stroke-width="1" stroke="black" d="M 170 170 311 295"/>
<path stroke-width="1" stroke="black" d="M 170 170 208 59"/>
<path stroke-width="1" stroke="black" d="M 170 170 221 47"/>
<path stroke-width="1" stroke="black" d="M 170 170 85 67"/>
<path stroke-width="1" stroke="black" d="M 170 170 341 72"/>
<path stroke-width="1" stroke="black" d="M 170 170 131 26"/>
<path stroke-width="1" stroke="black" d="M 170 170 188 320"/>
<path stroke-width="1" stroke="black" d="M 170 170 56 217"/>
<path stroke-width="1" stroke="black" d="M 170 170 20 120"/>
<path stroke-width="1" stroke="black" d="M 170 170 324 61"/>
<path stroke-width="1" stroke="black" d="M 170 170 420 233"/>
<path stroke-width="1" stroke="black" d="M 208 59 335 280"/>
<path stroke-width="1" stroke="black" d="M 208 59 105 272"/>
<path stroke-width="1" stroke="black" d="M 208 59 53 213"/>
<path stroke-width="1" stroke="black" d="M 208 59 175 302"/>
<path stroke-width="1" stroke="black" d="M 208 59 321 195"/>
<path stroke-width="1" stroke="black" d="M 208 59 121 115"/>
<path stroke-width="1" stroke="black" d="M 208 59 408 168"/>
<path stroke-width="1" stroke="black" d="M 208 59 60 130"/>
<path stroke-width="1" stroke="black" d="M 208 59 212 236"/>
<path stroke-width="1" stroke="black" d="M 208 59 224 294"/>
<path stroke-width="1" stroke="black" d="M 208 59 311 295"/>
<path stroke-width="1" stroke="black" d="M 208 59 221 47"/>
<path stroke-width="1" stroke="black" d="M 208 59 85 67"/>
<path stroke-width="1" stroke="black" d="M 208 59 341 72"/>
<path stroke-width="1" stroke="black" d="M 208 59 131 26"/>
<path stroke-width="1" stroke="black" d="M 208 59 188 320"/>
<path stroke-width="1" stroke="black" d="M 208 59 305 226"/>
<path stroke-width="1" stroke="black" d="M 208 59 246 20"/>
<path stroke-width="1" stroke="black" d="M 170 170 212 175"/>
<path stroke-width="1" stroke="black" d="M 170 170 243 153"/>
<path stroke-width="1" stroke="black" d="M 208 59 170 170"/>
<path stroke-width="1" stroke="black" d="M 170 170 305 226"/>
<path stroke-width="1" stroke="black" d="M 212 236 121 115"/>
<path stroke-width="1" stroke="black" d="M 212 236 175 302"/>
<path stroke-width="1" stroke="black" d="M 408 168 212 175"/>
<path stroke-width="1" stroke="black" d="M 408 168 243 153"/>
<path stroke-width="1" stroke="black" d="M 408 168 420 233"/>
<path stroke-width="1" stroke="black" d="M 408 168 324 61"/>
<path stroke-width="1" stroke="black" d="M 408 168 20 120"/>
<path stroke-width="1" stroke="black" d="M 408 168 56 217"/>
<path stroke-width="1" stroke="black" d="M 408 168 378 141"/>
<path stroke-width="1" stroke="black" d="M 408 168 224 294"/>
<path stroke-width="1" stroke="black" d="M 408 168 355 87"/>
<path stroke-width="1" stroke="black" d="M 408 168 335 280"/>
<path stroke-width="1" stroke="black" d="M 408 168 105 272"/>
<path stroke-width="1" stroke="black" d="M 408 168 53 213"/>
<path stroke-width="1" stroke="black" d="M 408 168 175 302"/>
<path stroke-width="1" stroke="black" d="M 408 168 321 195"/>
<path stroke-width="1" stroke="black" d="M 408 168 121 115"/>
<path stroke-width="1" stroke="black" d="M 408 168 60 130"/>
<path stroke-width="1" stroke="black" d="M 408 168 212 236"/>
<path stroke-width="1" stroke="black" d="M 408 168 311 295"/>
<path stroke-width="1" stroke="black" d="M 408 168 208 59"/>
<path stroke-width="1" stroke="black" d="M 121 115 246 20"/>
<path stroke-width="1" stroke="black" d="M 121 115 305 226"/>
<path stroke-width="1" stroke="black" d="M 121 115 188 320"/>
<path stroke-width="1" stroke="black" d="M 121 115 131 26"/>
<path stroke-width="1" stroke="black" d="M 121 115 324 61"/>
<path stroke-width="1" stroke="black" d="M 121 115 20 120"/>
<path stroke-width="1" stroke="black" d="M 121 115 56 217"/>
<path stroke-width="1" stroke="black" d="M 121 115 378 141"/>
<path stroke-width="1" stroke="black" d="M 121 115 224 294"/>
<path stroke-width="1" stroke="black" d="M 121 115 355 87"/>
<path stroke-width="1" stroke="black" d="M 121 115 335 280"/>
<path stroke-width="1" stroke="black" d="M 121 115 105 272"/>
<path stroke-width="1" stroke="black" d="M 121 115 53 213"/>
<path stroke-width="1" stroke="black" d="M 408 168 170 170"/>
<path stroke-width="1" stroke="black" d="M 121 115 175 302"/>
<path stroke-width="1" stroke="black" d="M 121 115 408 168"/>
<path stroke-width="1" stroke="black" d="M 121 115 60 130"/>
<path stroke-width="1" stroke="black" d="M 121 115 212 236"/>
<path stroke-width="1" stroke="black" d="M 121 115 311 295"/>
<path stroke-width="1" stroke="black" d="M 121 115 208 59"/>
<path stroke-width="1" stroke="black" d="M 121 115 170 170"/>
<path stroke-width="1" stroke="black" d="M 121 115 221 47"/>
<path stroke-width="1" stroke="black" d="M 121 115 85 67"/>
<path stroke-width="1" stroke="black" d="M 121 115 341 72"/>
<path stroke-width="1" stroke="black" d="M 121 115 321 195"/>
<path stroke-width="1" stroke="black" d="M 212 236 321 195"/>
<path stroke-width="1" stroke="black" d="M 408 168 221 47"/>
<path stroke-width="1" stroke="black" d="M 408 168 341 72"/>
<path stroke-width="1" stroke="black" d="M 60 130 221 47"/>
<path stroke-width="1" stroke="black" d="M 60 130 85 67"/>
<path stroke-width="1" stroke="black" d="M 60 130 341 72"/>
<path stroke-width="1" stroke="black" d="M 60 130 131 26"/>
<path stroke-width="1" stroke="black" d="M 60 130 188 320"/>
<path stroke-width="1" stroke="black" d="M 60 130 305 226"/>
<path stroke-width="1" stroke="black" d="M 60 130 246 20"/>
<path stroke-width="1" stroke="black" d="M 212 236 212 175"/>
<path stroke-width="1" stroke="black" d="M 212 236 243 153"/>
<path stroke-width="1" stroke="black" d="M 212 236 420 233"/>
<path stroke-width="1" stroke="black" d="M 212 236 324 61"/>
<path stroke-width="1" stroke="black" d="M 212 236 20 120"/>
<path stroke-width="1" stroke="black" d="M 212 236 56 217"/>
<path stroke-width="1" stroke="black" d="M 212 236 378 141"/>
<path stroke-width="1" stroke="black" d="M 212 236 224 294"/>
<path stroke-width="1" stroke="black" d="M 212 236 355 87"/>
<path stroke-width="1" stroke="black" d="M 212 236 335 280"/>
<path stroke-width="1" stroke="black" d="M 212 236 105 272"/>
<path stroke-width="1" stroke="black" d="M 212 236 53 213"/>
<path stroke-width="1" stroke="black" d="M 60 130 170 170"/>
<path stroke-width="1" stroke="black" d="M 60 130 208 59"/>
<path stroke-width="1" stroke="black" d="M 60 130 311 295"/>
<path stroke-width="1" stroke="black" d="M 60 130 212 236"/>
<path stroke-width="1" stroke="black" d="M 408 168 131 26"/>
<path stroke-width="1" stroke="black" d="M 408 168 188 320"/>
<path stroke-width="1" stroke="black" d="M 408 168 305 226"/>
<path stroke-width="1" stroke="black" d="M 408 168 246 20"/>
<path stroke-width="1" stroke="black" d="M 60 130 212 175"/>
<path stroke-width="1" stroke="black" d="M 60 130 243 153"/>
<path stroke-width="1" stroke="black" d="M 60 130 420 233"/>
<path stroke-width="1" stroke="black" d="M 60 130 324 61"/>
<path stroke-width="1" stroke="black" d="M 60 130 20 120"/>
<path stroke-width="1" stroke="black" d="M 408 168 85 67"/>
<path stroke-width="1" stroke="black" d="M 60 130 56 217"/>
<path stroke-width="1" stroke="black" d="M 60 130 224 294"/>
<path stroke-width="1" stroke="black" d="M 60 130 355 87"/>
<path stroke-width="1" stroke="black" d="M 60 130 335 280"/>
<path stroke-width="1" stroke="black" d="M 60 130 105 272"/>
<path stroke-width="1" stroke="black" d="M 60 130 53 213"/>
<path stroke-width="1" stroke="black" d="M 60 130 175 302"/>
<path stroke-width="1" stroke="black" d="M 60 130 321 195"/>
<path stroke-width="1" stroke="black" d="M 60 130 121 115"/>
<path stroke-width="1" stroke="black" d="M 60 130 408 168"/>
<path stroke-width="1" stroke="black" d="M 60 130 378 141"/>
<path stroke-width="1" stroke="black" d="M 170 170 246 20"/>
<path stroke-width="1" stroke="black" d="M 221 47 212 175"/>
<path stroke-width="1" stroke="black" d="M 221 47 243 153"/>
<path stroke-width="1" stroke="black" d="M 188 320 321 195"/>
<path stroke-width="1" stroke="black" d="M 188 320 121 115"/>
<path stroke-width="1" stroke="black" d="M 188 320 408 168"/>
<path stroke-width="1" stroke="black" d="M 188 320 60 130"/>
<path stroke-width="1" stroke="black" d="M 188 320 212 236"/>
<path stroke-width="1" stroke="black" d="M 188 320 311 295"/>
<path stroke-width="1" stroke="black" d="M 188 320 208 59"/>
<path stroke-width="1" stroke="black" d="M 188 320 170 170"/>
<path stroke-width="1" stroke="black" d="M 188 320 221 47"/>
<path stroke-width="1" stroke="black" d="M 188 320 85 67"/>
<path stroke-width="1" stroke="black" d="M 188 320 341 72"/>
<path stroke-width="1" stroke="black" d="M 188 320 131 26"/>
<path stroke-width="1" stroke="black" d="M 188 320 305 226"/>
<path stroke-width="1" stroke="black" d="M 188 320 246 20"/>
<path stroke-width="1" stroke="black" d="M 305 226 212 175"/>
<path stroke-width="1" stroke="black" d="M 305 226 243 153"/>
<path stroke-width="1" stroke="black" d="M 305 226 420 233"/>
<path stroke-width="1" stroke="black" d="M 305 226 324 61"/>
<path stroke-width="1" stroke="black" d="M 305 226 20 120"/>
<path stroke-width="1" stroke="black" d="M 188 320 175 302"/>
<path stroke-width="1" stroke="black" d="M 188 320 53 213"/>
<path stroke-width="1" stroke="black" d="M 188 320 105 272"/>
<path stroke-width="1" stroke="black" d="M 188 320 335 280"/>
<path stroke-width="1" stroke="black" d="M 131 26 60 130"/>
<path stroke-width="1" stroke="black" d="M 131 26 212 236"/>
<path stroke-width="1" stroke="black" d="M 131 26 311 295"/>
<path stroke-width="1" stroke="black" d="M 131 26 208 59"/>
<path stroke-width="1" stroke="black" d="M 131 26 170 170"/>
<path stroke-width="1" stroke="black" d="M 131 26 221 47"/>
<path stroke-width="1" stroke="black" d="M 131 26 85 67"/>
<path stroke-width="1" stroke="black" d="M 131 26 341 72"/>
<path stroke-width="1" stroke="black" d="M 131 26 188 320"/>
<path stroke-width="1" stroke="black" d="M 305 226 56 217"/>
<path stroke-width="1" stroke="black" d="M 131 26 305 226"/>
<path stroke-width="1" stroke="black" d="M 188 320 212 175"/>
<path stroke-width="1" stroke="black" d="M 188 320 243 153"/>
<path stroke-width="1" stroke="black" d="M 188 320 420 233"/>
<path stroke-width="1" stroke="black" d="M 188 320 324 61"/>
<path stroke-width="1" stroke="black" d="M 188 320 20 120"/>
<path stroke-width="1" stroke="black" d="M 188 320 56 217"/>
<path stroke-width="1" stroke="black" d="M 188 320 378 141"/>
<path stroke-width="1" stroke="black" d="M 188 320 224 294"/>
<path stroke-width="1" stroke="black" d="M 188 320 355 87"/>
<path stroke-width="1" stroke="black" d="M 131 26 246 20"/>
<path stroke-width="1" stroke="black" d="M 131 26 408 168"/>
<path stroke-width="1" stroke="black" d="M 305 226 378 141"/>
<path stroke-width="1" stroke="black" d="M 305 226 355 87"/>
<path stroke-width="1" stroke="black" d="M 246 20 378 141"/>
<path stroke-width="1" stroke="black" d="M 246 20 224 294"/>
<path stroke-width="1" stroke="black" d="M 246 20 355 87"/>
<path stroke-width="1" stroke="black" d="M 246 20 335 280"/>
<path stroke-width="1" stroke="black" d="M 246 20 105 272"/>
<path stroke-width="1" stroke="black" d="M 246 20 53 213"/>
<path stroke-width="1" stroke="black" d="M 246 20 175 302"/>
<path stroke-width="1" stroke="black" d="M 246 20 321 195"/>
<path stroke-width="1" stroke="black" d="M 246 20 121 115"/>
<path stroke-width="1" stroke="black" d="M 246 20 408 168"/>
<path stroke-width="1" stroke="black" d="M 246 20 60 130"/>
<path stroke-width="1" stroke="black" d="M 246 20 212 236"/>
<path stroke-width="1" stroke="black" d="M 246 20 311 295"/>
<path stroke-width="1" stroke="black" d="M 246 20 208 59"/>
<path stroke-width="1" stroke="black" d="M 246 20 170 170"/>
<path stroke-width="1" stroke="black" d="M 246 20 221 47"/>
<path stroke-width="1" stroke="black" d="M 246 20 85 67"/>
<path stroke-width="1" stroke="black" d="M 246 20 341 72"/>
<path stroke-width="1" stroke="black" d="M 246 20 131 26"/>
<path stroke-width="1" stroke="black" d="M 246 20 56 217"/>
<path stroke-width="1" stroke="black" d="M 246 20 20 120"/>
<path stroke-width="1" stroke="black" d="M 246 20 324 61"/>
<path stroke-width="1" stroke="black" d="M 246 20 420 233"/>
<path stroke-width="1" stroke="black" d="M 305 226 335 280"/>
<path stroke-width="1" stroke="black" d="M 305 226 105 272"/>
<path stroke-width="1" stroke="black" d="M 305 226 53 213"/>
<path stroke-width="1" stroke="black" d="M 305 226 175 302"/>
<path stroke-width="1" stroke="black" d="M 305 226 321 195"/>
<path stroke-width="1" stroke="black" d="M 305 226 121 115"/>
<path stroke-width="1" stroke="black" d="M 305 226 408 168"/>
<path stroke-width="1" stroke="black" d="M 305 226 60 130"/>
<path stroke-width="1" stroke="black" d="M 305 226 212 236"/>
<path stroke-width="1" stroke="black" d="M 305 226 224 294"/>
<path stroke-width="1" stroke="black" d="M 305 226 311 295"/>
<path stroke-width="1" stroke="black" d="M 305 226 170 170"/>
<path stroke-width="1" stroke="black" d="M 305 226 221 47"/>
<path stroke-width="1" stroke="black" d="M 305 226 85 67"/>
<path stroke-width="1" stroke="black" d="M 305 226 341 72"/>
<path stroke-width="1" stroke="black" d="M 305 226 131 26"/>
<path stroke-width="1" stroke="black" d="M 305 226 188 320"/>
<path stroke-width="1" stroke="black" d="M 305 226 246 20"/>
<path stroke-width="1" stroke="black" d="M 246 20 212 175"/>
<path stroke-width="1" stroke="black" d="M 246 20 243 153"/>
<path stroke-width="1" stroke="black" d="M 305 226 208 59"/>
<path stroke-width="1" stroke="black" d="M 131 26 121 115"/>
<path stroke-width="1" stroke="black" d="M 131 26 321 195"/>
<path stroke-width="1" stroke="black" d="M 131 26 175 302"/>
<path stroke-width="1" stroke="black" d="M 221 47 246 20"/>
<path stroke-width="1" stroke="black" d="M 85 67 212 175"/>
<path stroke-width="1" stroke="black" d="M 85 67 243 153"/>
<path stroke-width="1" stroke="black" d="M 85 67 420 233"/>
<path stroke-width="1" stroke="black" d="M 85 67 324 61"/>
<path stroke-width="1" stroke="black" d="M 85 67 20 120"/>
<path stroke-width="1" stroke="black" d="M 85 67 56 217"/>
<path stroke-width="1" stroke="black" d="M 85 67 378 141"/>
<path stroke-width="1" stroke="black" d="M 85 67 224 294"/>
<path stroke-width="1" stroke="black" d="M 85 67 355 87"/>
<path stroke-width="1" stroke="black" d="M 85 67 335 280"/>
<path stroke-width="1" stroke="black" d="M 85 67 105 272"/>
<path stroke-width="1" stroke="black" d="M 85 67 53 213"/>
<path stroke-width="1" stroke="black" d="M 85 67 175 302"/>
<path stroke-width="1" stroke="black" d="M 85 67 321 195"/>
<path stroke-width="1" stroke="black" d="M 85 67 121 115"/>
<path stroke-width="1" stroke="black" d="M 85 67 408 168"/>
<path stroke-width="1" stroke="black" d="M 85 67 60 130"/>
<path stroke-width="1" stroke="black" d="M 85 67 212 236"/>
<path stroke-width="1" stroke="black" d="M 221 47 305 226"/>
<path stroke-width="1" stroke="black" d="M 221 47 188 320"/>
<path stroke-width="1" stroke="black" d="M 221 47 131 26"/>
<path stroke-width="1" stroke="black" d="M 221 47 341 72"/>
<path stroke-width="1" stroke="black" d="M 221 47 420 233"/>
<path stroke-width="1" stroke="black" d="M 221 47 324 61"/>
<path stroke-width="1" stroke="black" d="M 221 47 20 120"/>
<path stroke-width="1" stroke="black" d="M 221 47 56 217"/>
<path stroke-width="1" stroke="black" d="M 221 47 378 141"/>
<path stroke-width="1" stroke="black" d="M 221 47 224 294"/>
<path stroke-width="1" stroke="black" d="M 221 47 355 87"/>
<path stroke-width="1" stroke="black" d="M 221 47 335 280"/>
<path stroke-width="1" stroke="black" d="M 221 47 105 272"/>
<path stroke-width="1" stroke="black" d="M 85 67 311 295"/>
<path stroke-width="1" stroke="black" d="M 221 47 53 213"/>
<path stroke-width="1" stroke="black" d="M 221 47 321 195"/>
<path stroke-width="1" stroke="black" d="M 221 47 121 115"/>
<path stroke-width="1" stroke="black" d="M 221 47 408 168"/>
<path stroke-width="1" stroke="black" d="M 221 47 60 130"/>
<path stroke-width="1" stroke="black" d="M 221 47 212 236"/>
<path stroke-width="1" stroke="black" d="M 221 47 311 295"/>
<path stroke-width="1" stroke="black" d="M 221 47 208 59"/>
<path stroke-width="1" stroke="black" d="M 221 47 170 170"/>
<path stroke-width="1" stroke="black" d="M 221 47 85 67"/>
<path stroke-width="1" stroke="black" d="M 221 47 175 302"/>
<path stroke-width="1" stroke="black" d="M 85 67 208 59"/>
<path stroke-width="1" stroke="black" d="M 85 67 170 170"/>
<path stroke-width="1" stroke="black" d="M 85 67 221 47"/>
<path stroke-width="1" stroke="black" d="M 341 72 208 59"/>
<path stroke-width="1" stroke="black" d="M 341 72 170 170"/>
<path stroke-width="1" stroke="black" d="M 341 72 221 47"/>
<path stroke-width="1" stroke="black" d="M 341 72 85 67"/>
<path stroke-width="1" stroke="black" d="M 341 72 131 26"/>
<path stroke-width="1" stroke="black" d="M 341 72 188 320"/>
<path stroke-width="1" stroke="black" d="M 341 72 305 226"/>
<path stroke-width="1" stroke="black" d="M 341 72 246 20"/>
<path stroke-width="1" stroke="black" d="M 131 26 212 175"/>
<path stroke-width="1" stroke="black" d="M 341 72 311 295"/>
<path stroke-width="1" stroke="black" d="M 131 26 243 153"/>
<path stroke-width="1" stroke="black" d="M 131 26 324 61"/>
<path stroke-width="1" stroke="black" d="M 131 26 20 120"/>
<path stroke-width="1" stroke="black" d="M 131 26 56 217"/>
<path stroke-width="1" stroke="black" d="M 131 26 378 141"/>
<path stroke-width="1" stroke="black" d="M 131 26 224 294"/>
<path stroke-width="1" stroke="black" d="M 131 26 355 87"/>
<path stroke-width="1" stroke="black" d="M 131 26 335 280"/>
<path stroke-width="1" stroke="black" d="M 131 26 105 272"/>
<path stroke-width="1" stroke="black" d="M 131 26 53 213"/>
<path stroke-width="1" stroke="black" d="M 131 26 420 233"/>
<path stroke-width="1" stroke="black" d="M 121 115 420 233"/>
<path stroke-width="1" stroke="black" d="M 341 72 212 236"/>
<path stroke-width="1" stroke="black" d="M 341 72 408 168"/>
<path stroke-width="1" stroke="black" d="M 85 67 341 72"/>
<path stroke-width="1" stroke="black" d="M 85 67 131 26"/>
<path stroke-width="1" stroke="black" d="M 85 67 188 320"/>
<path stroke-width="1" stroke="black" d="M 85 67 305 226"/>
<path stroke-width="1" stroke="black" d="M 85 67 246 20"/>
<path stroke-width="1" stroke="black" d="M 341 72 212 175"/>
<path stroke-width="1" stroke="black" d="M 341 72 243 153"/>
<path stroke-width="1" stroke="black" d="M 341 72 420 233"/>
<path stroke-width="1" stroke="black" d="M 341 72 324 61"/>
<path stroke-width="1" stroke="black" d="M 341 72 60 130"/>
<path stroke-width="1" stroke="black" d="M 341 72 20 120"/>
<path stroke-width="1" stroke="black" d="M 341 72 378 141"/>
<path stroke-width="1" stroke="black" d="M 341 72 224 294"/>
<path stroke-width="1" stroke="black" d="M 341 72 355 87"/>
<path stroke-width="1" stroke="black" d="M 341 72 335 280"/>
<path stroke-width="1" stroke="black" d="M 341 72 105 272"/>
<path stroke-width="1" stroke="black" d="M 341 72 53 213"/>
<path stroke-width="1" stroke="black" d="M 341 72 175 302"/>
<path stroke-width="1" stroke="black" d="M 341 72 321 195"/>
<path stroke-width="1" stroke="black" d="M 341 72 121 115"/>
<path stroke-width="1" stroke="black" d="M 341 72 56 217"/>
<path stroke-width="1" stroke="black" d="M 121 115 243 153"/>
<path stroke-width="1" stroke="black" d="M 121 115 212 175"/>
<path stroke-width="1" stroke="black" d="M 321 195 246 20"/>
<path stroke-width="1" stroke="black" d="M 20 120 408 168"/>
<path stroke-width="1" stroke="black" d="M 20 120 60 130"/>
<path stroke-width="1" stroke="black" d="M 20 120 212 236"/>
<path stroke-width="1" stroke="black" d="M 20 120 311 295"/>
<path stroke-width="1" stroke="black" d="M 20 120 208 59"/>
<path stroke-width="1" stroke="black" d="M 20 120 170 170"/>
<path stroke-width="1" stroke="black" d="M 20 120 221 47"/>
<path stroke-width="1" stroke="black" d="M 20 120 85 67"/>
<path stroke-width="1" stroke="black" d="M 20 120 341 72"/>
<path stroke-width="1" stroke="black" d="M 20 120 131 26"/>
<path stroke-width="1" stroke="black" d="M 20 120 188 320"/>
<path stroke-width="1" stroke="black" d="M 20 120 305 226"/>
<path stroke-width="1" stroke="black" d="M 20 120 246 20"/>
<path stroke-width="1" stroke="black" d="M 56 217 212 175"/>
<path stroke-width="1" stroke="black" d="M 56 217 243 153"/>
<path stroke-width="1" stroke="black" d="M 56 217 420 233"/>
<path stroke-width="1" stroke="black" d="M 56 217 324 61"/>
<path stroke-width="1" stroke="black" d="M 56 217 20 120"/>
<path stroke-width="1" stroke="black" d="M 56 217 378 141"/>
<path stroke-width="1" stroke="black" d="M 20 120 121 115"/>
<path stroke-width="1" stroke="black" d="M 20 120 321 195"/>
<path stroke-width="1" stroke="black" d="M 20 120 175 302"/>
<path stroke-width="1" stroke="black" d="M 20 120 53 213"/>
<path stroke-width="1" stroke="black" d="M 324 61 212 236"/>
<path stroke-width="1" stroke="black" d="M 324 61 311 295"/>
<path stroke-width="1" stroke="black" d="M 324 61 208 59"/>
<path stroke-width="1" stroke="black" d="M 324 61 170 170"/>
<path stroke-width="1" stroke="black" d="M 324 61 221 47"/>
<path stroke-width="1" stroke="black" d="M 324 61 85 67"/>
<path stroke-width="1" stroke="black" d="M 324 61 341 72"/>
<path stroke-width="1" stroke="black" d="M 324 61 131 26"/>
<path stroke-width="1" stroke="black" d="M 324 61 188 320"/>
<path stroke-width="1" stroke="black" d="M 56 217 224 294"/>
<path stroke-width="1" stroke="black" d="M 324 61 305 226"/>
<path stroke-width="1" stroke="black" d="M 20 120 212 175"/>
<path stroke-width="1" stroke="black" d="M 20 120 243 153"/>
<path stroke-width="1" stroke="black" d="M 20 120 324 61"/>
<path stroke-width="1" stroke="black" d="M 20 120 56 217"/>
<path stroke-width="1" stroke="black" d="M 20 120 378 141"/>
<path stroke-width="1" stroke="black" d="M 20 120 224 294"/>
<path stroke-width="1" stroke="black" d="M 20 120 355 87"/>
<path stroke-width="1" stroke="black" d="M 20 120 335 280"/>
<path stroke-width="1" stroke="black" d="M 20 120 105 272"/>
<path stroke-width="1" stroke="black" d="M 324 61 246 20"/>
<path stroke-width="1" stroke="black" d="M 324 61 60 130"/>
<path stroke-width="1" stroke="black" d="M 56 217 355 87"/>
<path stroke-width="1" stroke="black" d="M 56 217 105 272"/>
<path stroke-width="1" stroke="black" d="M 378 141 355 87"/>
<path stroke-width="1" stroke="black" d="M 378 141 335 280"/>
<path stroke-width="1" stroke="black" d="M 378 141 105 272"/>
<path stroke-width="1" stroke="black" d="M 378 141 53 213"/>
<path stroke-width="1" stroke="black" d="M 378 141 175 302"/>
<path stroke-width="1" stroke="black" d="M 378 141 321 195"/>
<path stroke-width="1" stroke="black" d="M 378 141 121 115"/>
<path stroke-width="1" stroke="black" d="M 378 141 408 168"/>
<path stroke-width="1" stroke="black" d="M 378 141 60 130"/>
<path stroke-width="1" stroke="black" d="M 378 141 212 236"/>
<path stroke-width="1" stroke="black" d="M 378 141 311 295"/>
<path stroke-width="1" stroke="black" d="M 378 141 208 59"/>
<path stroke-width="1" stroke="black" d="M 378 141 170 170"/>
<path stroke-width="1" stroke="black" d="M 378 141 221 47"/>
<path stroke-width="1" stroke="black" d="M 378 141 85 67"/>
<path stroke-width="1" stroke="black" d="M 378 141 341 72"/>
<path stroke-width="1" stroke="black" d="M 378 141 131 26"/>
<path stroke-width="1" stroke="black" d="M 378 141 188 320"/>
<path stroke-width="1" stroke="black" d="M 378 141 305 226"/>
<path stroke-width="1" stroke="black" d="M 378 141 224 294"/>
<path stroke-width="1" stroke="black" d="M 378 141 56 217"/>
<path stroke-width="1" stroke="black" d="M 378 141 20 120"/>
<path stroke-width="1" stroke="black" d="M 378 141 324 61"/>
<path stroke-width="1" stroke="black" d="M 56 217 53 213"/>
<path stroke-width="1" stroke="black" d="M 56 217 175 302"/>
<path stroke-width="1" stroke="black" d="M 56 217 321 195"/>
<path stroke-width="1" stroke="black" d="M 56 217 121 115"/>
<path stroke-width="1" stroke="black" d="M 56 217 408 168"/>
<path stroke-width="1" stroke="black" d="M 56 217 60 130"/>
<path stroke-width="1" stroke="black" d="M 56 217 212 236"/>
<path stroke-width="1" stroke="black" d="M 56 217 311 295"/>
<path stroke-width="1" stroke="black" d="M 56 217 208 59"/>
<path stroke-width="1" stroke="black" d="M 56 217 335 280"/>
<path stroke-width="1" stroke="black" d="M 56 217 170 170"/>
<path stroke-width="1" stroke="black" d="M 56 217 85 67"/>
<path stroke-width="1" stroke="black" d="M 56 217 341 72"/>
<path stroke-width="1" stroke="black" d="M 56 217 131 26"/>
<path stroke-width="1" stroke="black" d="M 56 217 188 320"/>
<path stroke-width="1" stroke="black" d="M 56 217 305 226"/>
<path stroke-width="1" stroke="black" d="M 56 217 246 20"/>
<path stroke-width="1" stroke="black" d="M 378 141 212 175"/>
<path stroke-width="1" stroke="black" d="M 378 141 243 153"/>
<path stroke-width="1" stroke="black" d="M 378 141 420 233"/>
<path stroke-width="1" stroke="black" d="M 56 217 221 47"/>
<path stroke-width="1" stroke="black" d="M 324 61 408 168"/>
<path stroke-width="1" stroke="black" d="M 324 61 121 115"/>
<path stroke-width="1" stroke="black" d="M 324 61 321 195"/>
<path stroke-width="1" stroke="black" d="M 212 175 305 226"/>
<path stroke-width="1" stroke="black" d="M 212 175 246 20"/>
<path stroke-width="1" stroke="black" d="M 243 153 212 175"/>
<path stroke-width="1" stroke="black" d="M 243 153 420 233"/>
<path stroke-width="1" stroke="black" d="M 243 153 324 61"/>
<path stroke-width="1" stroke="black" d="M 243 153 20 120"/>
<path stroke-width="1" stroke="black" d="M 243 153 56 217"/>
<path stroke-width="1" stroke="black" d="M 243 153 378 141"/>
<path stroke-width="1" stroke="black" d="M 243 153 224 294"/>
<path stroke-width="1" stroke="black" d="M 243 153 355 87"/>
<path stroke-width="1" stroke="black" d="M 243 153 335 280"/>
<path stroke-width="1" stroke="black" d="M 243 153 105 272"/>
<path stroke-width="1" stroke="black" d="M 243 153 53 213"/>
<path stroke-width="1" stroke="black" d="M 243 153 175 302"/>
<path stroke-width="1" stroke="black" d="M 243 153 321 195"/>
<path stroke-width="1" stroke="black" d="M 243 153 121 115"/>
<path stroke-width="1" stroke="black" d="M 243 153 408 168"/>
<path stroke-width="1" stroke="black" d="M 243 153 60 130"/>
<path stroke-width="1" stroke="black" d="M 243 153 212 236"/>
<path stroke-width="1" stroke="black" d="M 212 175 188 320"/>
<path stroke-width="1" stroke="black" d="M 212 175 131 26"/>
<path stroke-width="1" stroke="black" d="M 212 175 341 72"/>
<path stroke-width="1" stroke="black" d="M 212 175 85 67"/>
<path stroke-width="1" stroke="black" d="M 212 175 420 233"/>
<path stroke-width="1" stroke="black" d="M 212 175 324 61"/>
<path stroke-width="1" stroke="black" d="M 212 175 20 120"/>
<path stroke-width="1" stroke="black" d="M 212 175 56 217"/>
<path stroke-width="1" stroke="black" d="M 212 175 378 141"/>
<path stroke-width="1" stroke="black" d="M 212 175 224 294"/>
<path stroke-width="1" stroke="black" d="M 212 175 355 87"/>
<path stroke-width="1" stroke="black" d="M 212 175 335 280"/>
<path stroke-width="1" stroke="black" d="M 212 175 105 272"/>
<path stroke-width="1" stroke="black" d="M 243 153 311 295"/>
<path stroke-width="1" stroke="black" d="M 212 175 53 213"/>
<path stroke-width="1" stroke="black" d="M 212 175 321 195"/>
<path stroke-width="1" stroke="black" d="M 212 175 121 115"/>
<path stroke-width="1" stroke="black" d="M 212 175 408 168"/>
<path stroke-width="1" stroke="black" d="M 212 175 60 130"/>
<path stroke-width="1" stroke="black" d="M 212 175 212 236"/>
<path stroke-width="1" stroke="black" d="M 212 175 311 295"/>
<path stroke-width="1" stroke="black" d="M 212 175 208 59"/>
<path stroke-width="1" stroke="black" d="M 212 175 170 170"/>
<path stroke-width="1" stroke="black" d="M 212 175 221 47"/>
<path stroke-width="1" stroke="black" d="M 212 175 175 302"/>
<path stroke-width="1" stroke="black" d="M 243 153 208 59"/>
<path stroke-width="1" stroke="black" d="M 243 153 170 170"/>
<path stroke-width="1" stroke="black" d="M 243 153 221 47"/>
<path stroke-width="1" stroke="black" d="M 420 233 170 170"/>
<path stroke-width="1" stroke="black" d="M 420 233 221 47"/>
<path stroke-width="1" stroke="black" d="M 420 233 85 67"/>
<path stroke-width="1" stroke="black" d="M 420 233 341 72"/>
<path stroke-width="1" stroke="black" d="M 420 233 131 26"/>
<path stroke-width="1" stroke="black" d="M 420 233 188 320"/>
<path stroke-width="1" stroke="black" d="M 420 233 305 226"/>
<path stroke-width="1" stroke="black" d="M 420 233 246 20"/>
<path stroke-width="1" stroke="black" d="M 324 61 212 175"/>
<path stroke-width="1" stroke="black" d="M 420 233 208 59"/>
<path stroke-width="1" stroke="black" d="M 324 61 243 153"/>
<path stroke-width="1" stroke="black" d="M 324 61 20 120"/>
<path stroke-width="1" stroke="black" d="M 324 61 56 217"/>
<path stroke-width="1" stroke="black" d="M 324 61 378 141"/>
<path stroke-width="1" stroke="black" d="M 324 61 224 294"/>
<path stroke-width="1" stroke="black" d="M 324 61 355 87"/>
<path stroke-width="1" stroke="black" d="M 324 61 335 280"/>
<path stroke-width="1" stroke="black" d="M 324 61 105 272"/>
<path stroke-width="1" stroke="black" d="M 324 61 53 213"/>
<path stroke-width="1" stroke="black" d="M 324 61 175 302"/>
<path stroke-width="1" stroke="black" d="M 324 61 420 233"/>
<path stroke-width="1" stroke="black" d="M 378 141 246 20"/>
<path stroke-width="1" stroke="black" d="M 420 233 311 295"/>
<path stroke-width="1" stroke="black" d="M 420 233 60 130"/>
<path stroke-width="1" stroke="black" d="M 243 153 85 67"/>
<path stroke-width="1" stroke="black" d="M 243 153 341 72"/>
<path stroke-width="1" stroke="black" d="M 243 153 131 26"/>
<path stroke-width="1" stroke="black" d="M 243 153 188 320"/>
<path stroke-width="1" stroke="black" d="M 243 153 305 226"/>
<path stroke-width="1" stroke="black" d="M 243 153 246 20"/>
<path stroke-width="1" stroke="black" d="M 420 233 212 175"/>
<path stroke-width="1" stroke="black" d="M 420 233 243 153"/>
<path stroke-width="1" stroke="black" d="M 420 233 324 61"/>
<path stroke-width="1" stroke="black" d="M 420 233 212 236"/>
<path stroke-width="1" stroke="black" d="M 420 233 56 217"/>
<path stroke-width="1" stroke="black" d="M 420 233 224 294"/>
<path stroke-width="1" stroke="black" d="M 420 233 355 87"/>
<path stroke-width="1" stroke="black" d="M 420 233 335 280"/>
<path stroke-width="1" stroke="black" d="M 420 233 105 272"/>
<path stroke-width="1" stroke="black" d="M 420 233 53 213"/>
<path stroke-width="1" stroke="black" d="M 420 233 175 302"/>
<path stroke-width="1" stroke="black" d="M 420 233 321 195"/>
<path stroke-width="1" stroke="black" d="M 420 233 121 115"/>
<path stroke-width="1" stroke="black" d="M 420 233 408 168"/>
<path stroke-width="1" stroke="black" d="M 420 233 378 141"/>
<path stroke-width="1" stroke="black" d="M 246 20 188 320"/>
<path stroke-width="1" stroke="black" d="M 224 294 212 175"/>
<path stroke-width="1" stroke="black" d="M 224 294 420 233"/>
<path stroke-width="1" stroke="black" d="M 53 213 408 168"/>
<path stroke-width="1" stroke="black" d="M 53 213 60 130"/>
<path stroke-width="1" stroke="black" d="M 53 213 212 236"/>
<path stroke-width="1" stroke="black" d="M 53 213 311 295"/>
<path stroke-width="1" stroke="black" d="M 53 213 208 59"/>
<path stroke-width="1" stroke="black" d="M 53 213 170 170"/>
<path stroke-width="1" stroke="black" d="M 53 213 221 47"/>
<path stroke-width="1" stroke="black" d="M 53 213 85 67"/>
<path stroke-width="1" stroke="black" d="M 53 213 341 72"/>
<path stroke-width="1" stroke="black" d="M 53 213 131 26"/>
<path stroke-width="1" stroke="black" d="M 53 213 188 320"/>
<path stroke-width="1" stroke="black" d="M 53 213 305 226"/>
<path stroke-width="1" stroke="black" d="M 53 213 246 20"/>
<path stroke-width="1" stroke="black" d="M 175 302 212 175"/>
<path stroke-width="1" stroke="black" d="M 175 302 243 153"/>
<path stroke-width="1" stroke="black" d="M 175 302 420 233"/>
<path stroke-width="1" stroke="black" d="M 175 302 324 61"/>
<path stroke-width="1" stroke="black" d="M 175 302 20 120"/>
<path stroke-width="1" stroke="black" d="M 175 302 56 217"/>
<path stroke-width="1" stroke="black" d="M 53 213 121 115"/>
<path stroke-width="1" stroke="black" d="M 53 213 321 195"/>
<path stroke-width="1" stroke="black" d="M 53 213 175 302"/>
<path stroke-width="1" stroke="black" d="M 53 213 105 272"/>
<path stroke-width="1" stroke="black" d="M 105 272 311 295"/>
<path stroke-width="1" stroke="black" d="M 105 272 208 59"/>
<path stroke-width="1" stroke="black" d="M 105 272 170 170"/>
<path stroke-width="1" stroke="black" d="M 105 272 221 47"/>
<path stroke-width="1" stroke="black" d="M 105 272 85 67"/>
<path stroke-width="1" stroke="black" d="M 105 272 341 72"/>
<path stroke-width="1" stroke="black" d="M 105 272 131 26"/>
<path stroke-width="1" stroke="black" d="M 105 272 188 320"/>
<path stroke-width="1" stroke="black" d="M 105 272 305 226"/>
<path stroke-width="1" stroke="black" d="M 175 302 378 141"/>
<path stroke-width="1" stroke="black" d="M 105 272 246 20"/>
<path stroke-width="1" stroke="black" d="M 53 213 243 153"/>
<path stroke-width="1" stroke="black" d="M 53 213 420 233"/>
<path stroke-width="1" stroke="black" d="M 53 213 324 61"/>
<path stroke-width="1" stroke="black" d="M 53 213 20 120"/>
<path stroke-width="1" stroke="black" d="M 53 213 56 217"/>
<path stroke-width="1" stroke="black" d="M 53 213 378 141"/>
<path stroke-width="1" stroke="black" d="M 53 213 224 294"/>
<path stroke-width="1" stroke="black" d="M 53 213 355 87"/>
<path stroke-width="1" stroke="black" d="M 53 213 335 280"/>
<path stroke-width="1" stroke="black" d="M 53 213 212 175"/>
<path stroke-width="1" stroke="black" d="M 105 272 212 236"/>
<path stroke-width="1" stroke="black" d="M 175 302 224 294"/>
<path stroke-width="1" stroke="black" d="M 175 302 335 280"/>
<path stroke-width="1" stroke="black" d="M 321 195 224 294"/>
<path stroke-width="1" stroke="black" d="M 321 195 355 87"/>
<path stroke-width="1" stroke="black" d="M 321 195 335 280"/>
<path stroke-width="1" stroke="black" d="M 321 195 105 272"/>
<path stroke-width="1" stroke="black" d="M 321 195 53 213"/>
<path stroke-width="1" stroke="black" d="M 321 195 175 302"/>
<path stroke-width="1" stroke="black" d="M 321 195 121 115"/>
<path stroke-width="1" stroke="black" d="M 321 195 408 168"/>
<path stroke-width="1" stroke="black" d="M 321 195 60 130"/>
<path stroke-width="1" stroke="black" d="M 321 195 212 236"/>
<path stroke-width="1" stroke="black" d="M 321 195 311 295"/>
<path stroke-width="1" stroke="black" d="M 321 195 208 59"/>
<path stroke-width="1" stroke="black" d="M 321 195 170 170"/>
<path stroke-width="1" stroke="black" d="M 321 195 221 47"/>
<path stroke-width="1" stroke="black" d="M 321 195 85 67"/>
<path stroke-width="1" stroke="black" d="M 321 195 341 72"/>
<path stroke-width="1" stroke="black" d="M 321 195 131 26"/>
<path stroke-width="1" stroke="black" d="M 321 195 188 320"/>
<path stroke-width="1" stroke="black" d="M 321 195 305 226"/>
<path stroke-width="1" stroke="black" d="M 321 195 378 141"/>
<path stroke-width="1" stroke="black" d="M 321 195 56 217"/>
<path stroke-width="1" stroke="black" d="M 321 195 20 120"/>
<path stroke-width="1" stroke="black" d="M 321 195 324 61"/>
<path stroke-width="1" stroke="black" d="M 175 302 105 272"/>
<path stroke-width="1" stroke="black" d="M 175 302 53 213"/>
<path stroke-width="1" stroke="black" d="M 175 302 321 195"/>
<path stroke-width="1" stroke="black" d="M 175 302 121 115"/>
<path stroke-width="1" stroke="black" d="M 175 302 408 168"/>
<path stroke-width="1" stroke="black" d="M 175 302 60 130"/>
<path stroke-width="1" stroke="black" d="M 175 302 212 236"/>
<path stroke-width="1" stroke="black" d="M 175 302 311 295"/>
<path stroke-width="1" stroke="black" d="M 175 302 208 59"/>
<path stroke-width="1" stroke="black" d="M 175 302 355 87"/>
<path stroke-width="1" stroke="black" d="M 175 302 170 170"/>
<path stroke-width="1" stroke="black" d="M 175 302 85 67"/>
<path stroke-width="1" stroke="black" d="M 175 302 341 72"/>
<path stroke-width="1" stroke="black" d="M 175 302 131 26"/>
<path stroke-width="1" stroke="black" d="M 175 302 188 320"/>
<path stroke-width="1" stroke="black" d="M 175 302 305 226"/>
<path stroke-width="1" stroke="black" d="M 175 302 246 20"/>
<path stroke-width="1" stroke="black" d="M 321 195 212 175"/>
<path stroke-width="1" stroke="black" d="M 321 195 243 153"/>
<path stroke-width="1" stroke="black" d="M 321 195 420 233"/>
<path stroke-width="1" stroke="black" d="M 175 302 221 47"/>
<path stroke-width="1" stroke="black" d="M 105 272 60 130"/>
<path stroke-width="1" stroke="black" d="M 105 272 408 168"/>
<path stroke-width="1" stroke="black" d="M 105 272 121 115"/>
<path stroke-width="1" stroke="black" d="M 355 87 212 175"/>
<path stroke-width="1" stroke="black" d="M 355 87 243 153"/>
<path stroke-width="1" stroke="black" d="M 355 87 420 233"/>
<path stroke-width="1" stroke="black" d="M 355 87 324 61"/>
<path stroke-width="1" stroke="black" d="M 355 87 20 120"/>
<path stroke-width="1" stroke="black" d="M 355 87 56 217"/>
<path stroke-width="1" stroke="black" d="M 355 87 378 141"/>
<path stroke-width="1" stroke="black" d="M 355 87 224 294"/>
<path stroke-width="1" stroke="black" d="M 355 87 335 280"/>
<path stroke-width="1" stroke="black" d="M 355 87 105 272"/>
<path stroke-width="1" stroke="black" d="M 355 87 53 213"/>
<path stroke-width="1" stroke="black" d="M 355 87 175 302"/>
<path stroke-width="1" stroke="black" d="M 355 87 321 195"/>
<path stroke-width="1" stroke="black" d="M 355 87 121 115"/>
<path stroke-width="1" stroke="black" d="M 355 87 408 168"/>
<path stroke-width="1" stroke="black" d="M 355 87 60 130"/>
<path stroke-width="1" stroke="black" d="M 355 87 212 236"/>
<path stroke-width="1" stroke="black" d="M 355 87 311 295"/>
<path stroke-width="1" stroke="black" d="M 355 87 208 59"/>
<path stroke-width="1" stroke="black" d="M 224 294 246 20"/>
<path stroke-width="1" stroke="black" d="M 224 294 305 226"/>
<path stroke-width="1" stroke="black" d="M 224 294 188 320"/>
<path stroke-width="1" stroke="black" d="M 224 294 131 26"/>
<path stroke-width="1" stroke="black" d="M 224 294 324 61"/>
<path stroke-width="1" stroke="black" d="M 224 294 20 120"/>
<path stroke-width="1" stroke="black" d="M 224 294 56 217"/>
<path stroke-width="1" stroke="black" d="M 224 294 378 141"/>
<path stroke-width="1" stroke="black" d="M 224 294 355 87"/>
<path stroke-width="1" stroke="black" d="M 224 294 335 280"/>
<path stroke-width="1" stroke="black" d="M 224 294 105 272"/>
<path stroke-width="1" stroke="black" d="M 224 294 53 213"/>
<path stroke-width="1" stroke="black" d="M 224 294 175 302"/>
<path stroke-width="1" stroke="black" d="M 355 87 170 170"/>
<path stroke-width="1" stroke="black" d="M 224 294 321 195"/>
<path stroke-width="1" stroke="black" d="M 224 294 408 168"/>
<path stroke-width="1" stroke="black" d="M 224 294 60 130"/>
<path stroke-width="1" stroke="black" d="M 224 294 212 236"/>
<path stroke-width="1" stroke="black" d="M 224 294 311 295"/>
<path stroke-width="1" stroke="black" d="M 224 294 208 59"/>
<path stroke-width="1" stroke="black" d="M 224 294 170 170"/>
<path stroke-width="1" stroke="black" d="M 224 294 221 47"/>
<path stroke-width="1" stroke="black" d="M 224 294 85 67"/>
<path stroke-width="1" stroke="black" d="M 224 294 341 72"/>
<path stroke-width="1" stroke="black" d="M 224 294 121 115"/>
<path stroke-width="1" stroke="black" d="M 355 87 221 47"/>
<path stroke-width="1" stroke="black" d="M 355 87 85 67"/>
<path stroke-width="1" stroke="black" d="M 355 87 341 72"/>
<path stroke-width="1" stroke="black" d="M 335 280 221 47"/>
<path stroke-width="1" stroke="black" d="M 335 280 85 67"/>
<path stroke-width="1" stroke="black" d="M 335 280 341 72"/>
<path stroke-width="1" stroke="black" d="M 335 280 131 26"/>
<path stroke-width="1" stroke="black" d="M 335 280 188 320"/>
<path stroke-width="1" stroke="black" d="M 335 280 305 226"/>
<path stroke-width="1" stroke="black" d="M 335 280 246 20"/>
<path stroke-width="1" stroke="black" d="M 105 272 212 175"/>
<path stroke-width="1" stroke="black" d="M 105 272 243 153"/>
<path stroke-width="1" stroke="black" d="M 335 280 170 170"/>
<path stroke-width="1" stroke="black" d="M 105 272 420 233"/>
<path stroke-width="1" stroke="black" d="M 105 272 20 120"/>
<path stroke-width="1" stroke="black" d="M 105 272 56 217"/>
<path stroke-width="1" stroke="black" d="M 105 272 378 141"/>
<path stroke-width="1" stroke="black" d="M 105 272 224 294"/>
<path stroke-width="1" stroke="black" d="M 105 272 355 87"/>
<path stroke-width="1" stroke="black" d="M 105 272 335 280"/>
<path stroke-width="1" stroke="black" d="M 105 272 53 213"/>
<path stroke-width="1" stroke="black" d="M 105 272 175 302"/>
<path stroke-width="1" stroke="black" d="M 105 272 321 195"/>
<path stroke-width="1" stroke="black" d="M 105 272 324 61"/>
<path stroke-width="1" stroke="black" d="M 224 294 243 153"/>
<path stroke-width="1" stroke="black" d="M 335 280 208 59"/>
<path stroke-width="1" stroke="black" d="M 335 280 212 236"/>
<path stroke-width="1" stroke="black" d="M 355 87 131 26"/>
<path stroke-width="1" stroke="black" d="M 355 87 188 320"/>
<path stroke-width="1" stroke="black" d="M 355 87 305 226"/>
<path stroke-width="1" stroke="black" d="M 355 87 246 20"/>
<path stroke-width="1" stroke="black" d="M 335 280 212 175"/>
<path stroke-width="1" stroke="black" d="M 335 280 243 153"/>
<path stroke-width="1" stroke="black" d="M 335 280 420 233"/>
<path stroke-width="1" stroke="black" d="M 335 280 324 61"/>
<path stroke-width="1" stroke="black" d="M 335 280 20 120"/>
<path stroke-width="1" stroke="black" d="M 335 280 311 295"/>
<path stroke-width="1" stroke="black" d="M 335 280 56 217"/>
<path stroke-width="1" stroke="black" d="M 335 280 224 294"/>
<path stroke-width="1" stroke="black" d="M 335 280 355 87"/>
<path stroke-width="1" stroke="black" d="M 335 280 105 272"/>
<path stroke-width="1" stroke="black" d="M 335 280 53 213"/>
<path stroke-width="1" stroke="black" d="M 335 280 175 302"/>
<path stroke-width="1" stroke="black" d="M 335 280 321 195"/>
<path stroke-width="1" stroke="black" d="M 335 280 121 115"/>
<path stroke-width="1" stroke="black" d="M 335 280 408 168"/>
<path stroke-width="1" stroke="black" d="M 335 280 60 130"/>
<path stroke-width="1" stroke="black" d="M 335 280 378 141"/>
<path stroke-width="1" stroke="black" d="M 246 20 305 226"/>
<circle cx="212" cy="175" r="7.0" style="fill:blue;stroke:black;stroke-width:1.0"/>
<circle cx="243" cy="153" r="7.0" style="fill:blue;stroke:black;stroke-width:1.0"/>
<circle cx="420" cy="233" r="7.0" style="fill:blue;stroke:black;stroke-width:1.0"/>
<circle cx="324" cy="61" r="7.0" style="fill:green;stroke:black;stroke-width:1.0"/>
<circle cx="20" cy="120" r="7.0" style="fill:purple;stroke:black;stroke-width:1.0"/>
<circle cx="56" cy="217" r="7.0" style="fill:orange;stroke:black;stroke-width:1.0"/>
<circle cx="378" cy="141" r="7.0" style="fill:red;stroke:black;stroke-width:1.0"/>
<circle cx="224" cy="294" r="7.0" style="fill:blue;stroke:black;stroke-width:1.0"/>
<circle cx="355" cy="87" r="7.0" style="fill:blue;stroke:black;stroke-width:1.0"/>
<circle cx="335" cy="280" r="7.0" style="fill:blue;stroke:black;stroke-width:1.0"/>
<circle cx="105" cy="272" r="7.0" style="fill:yellow;stroke:black;stroke-width:1.0"/>
<circle cx="53" cy="213" r="7.0" style="fill:blue;stroke:black;stroke-width:1.0"/>
<circle cx="175" cy="302" r="7.0" style="fill:blue;stroke:black;stroke-width:1.0"/>
<circle cx="321" cy="195" r="7.0" style="fill:blue;stroke:black;stroke-width:1.0"/>
<circle cx="121" cy="115" r="7.0" style="fill:blue;stroke:black;stroke-width:1.0"/>
<circle cx="408" cy="168" r="7.0" style="fill:blue;stroke:black;stroke-width:1.0"/>
<circle cx="60" cy="130" r="7.0" style="fill:fuchsia;stroke:black;stroke-width:1.0"/>
<circle cx="212" cy="236" r="7.0" style="fill:blue;stroke:black;stroke-width:1.0"/>
<circle cx="311" cy="295" r="7.0" style="fill:blue;stroke:black;stroke-width:1.0"/>
<circle cx="208" cy="59" r="7.0" style="fill:red;stroke:black;stroke-width:1.0"/>
<circle cx="170" cy="170" r="7.0" style="fill:blue;stroke:black;stroke-width:1.0"/>
<circle cx="221" cy="47" r="7.0" style="fill:green;stroke:black;stroke-width:1.0"/>
<circle cx="85" cy="67" r="7.0" style="fill:orange;stroke:black;stroke-width:1.0"/>
<circle cx="341" cy="72" r="7.0" style="fill:blue;stroke:black;stroke-width:1.0"/>
<circle cx="131" cy="26" r="7.0" style="fill:purple;stroke:black;stroke-width:1.0"/>
<circle cx="188" cy="320" r="7.0" style="fill:blue;stroke:black;stroke-width:1.0"/>
<circle cx="305" cy="226" r="7.0" style="fill:yellow;stroke:black;stroke-width:1.0"/>
<circle cx="246" cy="20" r="7.0" style="fill:fuchsia;stroke:black;stroke-width:1.0"/>
</svg>
