<svg width="440" height="340" xmlns="http://www.w3.org/2000/svg">
<path stroke-width="1" stroke="black" d="M 227 165 198 171"/>
<path stroke-width="1" stroke="black" d="M 402 146 376 85"/>
<path stroke-width="1" stroke="black" d="M 402 146 20 196"/>
<path stroke-width="1" stroke="black" d="M 402 146 103 124"/>
<path stroke-width="1" stroke="black" d="M 402 146 324 289"/>
<path stroke-width="1" stroke="black" d="M 402 146 150 73"/>
<path stroke-width="1" stroke="black" d="M 402 146 26 131"/>
<path stroke-width="1" stroke="black" d="M 402 146 406 226"/>
<path stroke-width="1" stroke="black" d="M 402 146 282 51"/>
<path stroke-width="1" stroke="black" d="M 402 146 337 286"/>
<path stroke-width="1" stroke="black" d="M 402 146 28 206"/>
<path stroke-width="1" stroke="black" d="M 402 146 191 20"/>
<path stroke-width="1" stroke="black" d="M 402 146 225 314"/>
<path stroke-width="1" stroke="black" d="M 402 146 276 72"/>
<path stroke-width="1" stroke="black" d="M 402 146 259 187"/>
<path stroke-width="1" stroke="black" d="M 26 131 227 165"/>
<path stroke-width="1" stroke="black" d="M 26 131 198 171"/>
<path stroke-width="1" stroke="black" d="M 26 131 126 320"/>
<path stroke-width="1" stroke="black" d="M 26 131 278 51"/>
<path stroke-width="1" stroke="black" d="M 26 131 96 35"/>
<path stroke-width="1" stroke="black" d="M 402 146 92 103"/>
<path stroke-width="1" stroke="black" d="M 402 146 60 269"/>
<path stroke-width="1" stroke="black" d="M 402 146 332 220"/>
<path stroke-width="1" stroke="black" d="M 402 146 313 195"/>
<path stroke-width="1" stroke="black" d="M 150 73 324 289"/>
<path stroke-width="1" stroke="black" d="M 150 73 402 146"/>
<path stroke-width="1" stroke="black" d="M 150 73 26 131"/>
<path stroke-width="1" stroke="black" d="M 150 73 406 226"/>
<path stroke-width="1" stroke="black" d="M 150 73 282 51"/>
<path stroke-width="1" stroke="black" d="M 150 73 337 286"/>
<path stroke-width="1" stroke="black" d="M 150 73 28 206"/>
<path stroke-width="1" stroke="black" d="M 150 73 191 20"/>
<path stroke-width="1" stroke="black" d="M 150 73 225 314"/>
<path stroke-width="1" stroke="black" d="M 26 131 420 161"/>
<path stroke-width="1" stroke="black" d="M 150 73 276 72"/>
<path stroke-width="1" stroke="black" d="M 402 146 227 165"/>
<path stroke-width="1" stroke="black" d="M 402 146 198 171"/>
<path stroke-width="1" stroke="black" d="M 402 146 126 320"/>
<path stroke-width="1" stroke="black" d="M 402 146 278 51"/>
<path stroke-width="1" stroke="black" d="M 402 146 96 35"/>
<path stroke-width="1" stroke="black" d="M 402 146 420 161"/>
<path stroke-width="1" stroke="black" d="M 402 146 202 287"/>
<path stroke-width="1" stroke="black" d="M 402 146 124 208"/>
<path stroke-width="1" stroke="black" d="M 402 146 143 250"/>
<path stroke-width="1" stroke="black" d="M 150 73 259 187"/>
<path stroke-width="1" stroke="black" d="M 150 73 103 124"/>
<path stroke-width="1" stroke="black" d="M 26 131 202 287"/>
<path stroke-width="1" stroke="black" d="M 26 131 143 250"/>
<path stroke-width="1" stroke="black" d="M 406 226 202 287"/>
<path stroke-width="1" stroke="black" d="M 406 226 124 208"/>
<path stroke-width="1" stroke="black" d="M 406 226 143 250"/>
<path stroke-width="1" stroke="black" d="M 406 226 313 195"/>
<path stroke-width="1" stroke="black" d="M 406 226 332 220"/>
<path stroke-width="1" stroke="black" d="M 406 226 60 269"/>
<path stroke-width="1" stroke="black" d="M 406 226 92 103"/>
<path stroke-width="1" stroke="black" d="M 406 226 376 85"/>
<path stroke-width="1" stroke="black" d="M 406 226 20 196"/>
<path stroke-width="1" stroke="black" d="M 406 226 103 124"/>
<path stroke-width="1" stroke="black" d="M 406 226 324 289"/>
<path stroke-width="1" stroke="black" d="M 406 226 150 73"/>
<path stroke-width="1" stroke="black" d="M 406 226 402 146"/>
<path stroke-width="1" stroke="black" d="M 406 226 26 131"/>
<path stroke-width="1" stroke="black" d="M 406 226 282 51"/>
<path stroke-width="1" stroke="black" d="M 406 226 337 286"/>
<path stroke-width="1" stroke="black" d="M 406 226 28 206"/>
<path stroke-width="1" stroke="black" d="M 406 226 191 20"/>
<path stroke-width="1" stroke="black" d="M 406 226 225 314"/>
<path stroke-width="1" stroke="black" d="M 406 226 420 161"/>
<path stroke-width="1" stroke="black" d="M 406 226 96 35"/>
<path stroke-width="1" stroke="black" d="M 406 226 278 51"/>
<path stroke-width="1" stroke="black" d="M 406 226 126 320"/>
<path stroke-width="1" stroke="black" d="M 26 131 313 195"/>
<path stroke-width="1" stroke="black" d="M 26 131 332 220"/>
<path stroke-width="1" stroke="black" d="M 26 131 60 269"/>
<path stroke-width="1" stroke="black" d="M 26 131 92 103"/>
<path stroke-width="1" stroke="black" d="M 26 131 376 85"/>
<path stroke-width="1" stroke="black" d="M 26 131 20 196"/>
<path stroke-width="1" stroke="black" d="M 26 131 103 124"/>
<path stroke-width="1" stroke="black" d="M 26 131 324 289"/>
<path stroke-width="1" stroke="black" d="M 26 131 150 73"/>
<path stroke-width="1" stroke="black" d="M 26 131 124 208"/>
<path stroke-width="1" stroke="black" d="M 26 131 402 146"/>
<path stroke-width="1" stroke="black" d="M 26 131 282 51"/>
<path stroke-width="1" stroke="black" d="M 26 131 337 286"/>
<path stroke-width="1" stroke="black" d="M 26 131 28 206"/>
<path stroke-width="1" stroke="black" d="M 26 131 191 20"/>
<path stroke-width="1" stroke="black" d="M 26 131 225 314"/>
<path stroke-width="1" stroke="black" d="M 26 131 276 72"/>
<path stroke-width="1" stroke="black" d="M 26 131 259 187"/>
<path stroke-width="1" stroke="black" d="M 406 226 227 165"/>
<path stroke-width="1" stroke="black" d="M 406 226 198 171"/>
<path stroke-width="1" stroke="black" d="M 26 131 406 226"/>
<path stroke-width="1" stroke="black" d="M 406 226 276 72"/>
<path stroke-width="1" stroke="black" d="M 150 73 20 196"/>
<path stroke-width="1" stroke="black" d="M 150 73 92 103"/>
<path stroke-width="1" stroke="black" d="M 103 124 227 165"/>
<path stroke-width="1" stroke="black" d="M 103 124 198 171"/>
<path stroke-width="1" stroke="black" d="M 103 124 126 320"/>
<path stroke-width="1" stroke="black" d="M 103 124 278 51"/>
<path stroke-width="1" stroke="black" d="M 103 124 96 35"/>
<path stroke-width="1" stroke="black" d="M 103 124 420 161"/>
<path stroke-width="1" stroke="black" d="M 103 124 202 287"/>
<path stroke-width="1" stroke="black" d="M 103 124 124 208"/>
<path stroke-width="1" stroke="black" d="M 103 124 143 250"/>
<path stroke-width="1" stroke="black" d="M 103 124 313 195"/>
<path stroke-width="1" stroke="black" d="M 103 124 332 220"/>
<path stroke-width="1" stroke="black" d="M 103 124 60 269"/>
<path stroke-width="1" stroke="black" d="M 103 124 92 103"/>
<path stroke-width="1" stroke="black" d="M 103 124 376 85"/>
<path stroke-width="1" stroke="black" d="M 103 124 20 196"/>
<path stroke-width="1" stroke="black" d="M 103 124 324 289"/>
<path stroke-width="1" stroke="black" d="M 103 124 150 73"/>
<path stroke-width="1" stroke="black" d="M 103 124 402 146"/>
<path stroke-width="1" stroke="black" d="M 103 124 26 131"/>
<path stroke-width="1" stroke="black" d="M 20 196 259 187"/>
<path stroke-width="1" stroke="black" d="M 20 196 276 72"/>
<path stroke-width="1" stroke="black" d="M 20 196 225 314"/>
<path stroke-width="1" stroke="black" d="M 20 196 191 20"/>
<path stroke-width="1" stroke="black" d="M 20 196 278 51"/>
<path stroke-width="1" stroke="black" d="M 20 196 96 35"/>
<path stroke-width="1" stroke="black" d="M 20 196 420 161"/>
<path stroke-width="1" stroke="black" d="M 20 196 202 287"/>
<path stroke-width="1" stroke="black" d="M 20 196 124 208"/>
<path stroke-width="1" stroke="black" d="M 20 196 143 250"/>
<path stroke-width="1" stroke="black" d="M 20 196 313 195"/>
<path stroke-width="1" stroke="black" d="M 20 196 332 220"/>
<path stroke-width="1" stroke="black" d="M 20 196 60 269"/>
<path stroke-width="1" stroke="black" d="M 103 124 406 226"/>
<path stroke-width="1" stroke="black" d="M 20 196 92 103"/>
<path stroke-width="1" stroke="black" d="M 20 196 103 124"/>
<path stroke-width="1" stroke="black" d="M 20 196 324 289"/>
<path stroke-width="1" stroke="black" d="M 20 196 150 73"/>
<path stroke-width="1" stroke="black" d="M 20 196 402 146"/>
<path stroke-width="1" stroke="black" d="M 20 196 26 131"/>
<path stroke-width="1" stroke="black" d="M 20 196 406 226"/>
<path stroke-width="1" stroke="black" d="M 20 196 282 51"/>
<path stroke-width="1" stroke="black" d="M 20 196 337 286"/>
<path stroke-width="1" stroke="black" d="M 20 196 28 206"/>
<path stroke-width="1" stroke="black" d="M 20 196 376 85"/>
<path stroke-width="1" stroke="black" d="M 150 73 376 85"/>
<path stroke-width="1" stroke="black" d="M 103 124 282 51"/>
<path stroke-width="1" stroke="black" d="M 103 124 28 206"/>
<path stroke-width="1" stroke="black" d="M 324 289 282 51"/>
<path stroke-width="1" stroke="black" d="M 324 289 337 286"/>
<path stroke-width="1" stroke="black" d="M 324 289 28 206"/>
<path stroke-width="1" stroke="black" d="M 324 289 191 20"/>
<path stroke-width="1" stroke="black" d="M 324 289 225 314"/>
<path stroke-width="1" stroke="black" d="M 324 289 276 72"/>
<path stroke-width="1" stroke="black" d="M 324 289 259 187"/>
<path stroke-width="1" stroke="black" d="M 150 73 227 165"/>
<path stroke-width="1" stroke="black" d="M 150 73 198 171"/>
<path stroke-width="1" stroke="black" d="M 150 73 126 320"/>
<path stroke-width="1" stroke="black" d="M 150 73 278 51"/>
<path stroke-width="1" stroke="black" d="M 150 73 96 35"/>
<path stroke-width="1" stroke="black" d="M 150 73 420 161"/>
<path stroke-width="1" stroke="black" d="M 150 73 202 287"/>
<path stroke-width="1" stroke="black" d="M 150 73 124 208"/>
<path stroke-width="1" stroke="black" d="M 150 73 143 250"/>
<path stroke-width="1" stroke="black" d="M 150 73 313 195"/>
<path stroke-width="1" stroke="black" d="M 150 73 332 220"/>
<path stroke-width="1" stroke="black" d="M 150 73 60 269"/>
<path stroke-width="1" stroke="black" d="M 324 289 406 226"/>
<path stroke-width="1" stroke="black" d="M 324 289 26 131"/>
<path stroke-width="1" stroke="black" d="M 324 289 402 146"/>
<path stroke-width="1" stroke="black" d="M 324 289 150 73"/>
<path stroke-width="1" stroke="black" d="M 103 124 191 20"/>
<path stroke-width="1" stroke="black" d="M 103 124 225 314"/>
<path stroke-width="1" stroke="black" d="M 103 124 276 72"/>
<path stroke-width="1" stroke="black" d="M 103 124 259 187"/>
<path stroke-width="1" stroke="black" d="M 324 289 227 165"/>
<path stroke-width="1" stroke="black" d="M 324 289 198 171"/>
<path stroke-width="1" stroke="black" d="M 324 289 126 320"/>
<path stroke-width="1" stroke="black" d="M 324 289 278 51"/>
<path stroke-width="1" stroke="black" d="M 324 289 96 35"/>
<path stroke-width="1" stroke="black" d="M 103 124 337 286"/>
<path stroke-width="1" stroke="black" d="M 324 289 420 161"/>
<path stroke-width="1" stroke="black" d="M 324 289 124 208"/>
<path stroke-width="1" stroke="black" d="M 324 289 143 250"/>
<path stroke-width="1" stroke="black" d="M 324 289 313 195"/>
<path stroke-width="1" stroke="black" d="M 324 289 332 220"/>
<path stroke-width="1" stroke="black" d="M 324 289 60 269"/>
<path stroke-width="1" stroke="black" d="M 324 289 92 103"/>
<path stroke-width="1" stroke="black" d="M 324 289 376 85"/>
<path stroke-width="1" stroke="black" d="M 324 289 20 196"/>
<path stroke-width="1" stroke="black" d="M 324 289 103 124"/>
<path stroke-width="1" stroke="black" d="M 324 289 202 287"/>
<path stroke-width="1" stroke="black" d="M 406 226 259 187"/>
<path stroke-width="1" stroke="black" d="M 282 51 227 165"/>
<path stroke-width="1" stroke="black" d="M 282 51 198 171"/>
<path stroke-width="1" stroke="black" d="M 225 314 376 85"/>
<path stroke-width="1" stroke="black" d="M 225 314 20 196"/>
<path stroke-width="1" stroke="black" d="M 225 314 103 124"/>
<path stroke-width="1" stroke="black" d="M 225 314 324 289"/>
<path stroke-width="1" stroke="black" d="M 225 314 150 73"/>
<path stroke-width="1" stroke="black" d="M 225 314 402 146"/>
<path stroke-width="1" stroke="black" d="M 225 314 26 131"/>
<path stroke-width="1" stroke="black" d="M 225 314 406 226"/>
<path stroke-width="1" stroke="black" d="M 225 314 282 51"/>
<path stroke-width="1" stroke="black" d="M 225 314 337 286"/>
<path stroke-width="1" stroke="black" d="M 225 314 28 206"/>
<path stroke-width="1" stroke="black" d="M 225 314 191 20"/>
<path stroke-width="1" stroke="black" d="M 225 314 276 72"/>
<path stroke-width="1" stroke="black" d="M 225 314 259 187"/>
<path stroke-width="1" stroke="black" d="M 276 72 227 165"/>
<path stroke-width="1" stroke="black" d="M 276 72 198 171"/>
<path stroke-width="1" stroke="black" d="M 276 72 126 320"/>
<path stroke-width="1" stroke="black" d="M 276 72 278 51"/>
<path stroke-width="1" stroke="black" d="M 276 72 96 35"/>
<path stroke-width="1" stroke="black" d="M 225 314 92 103"/>
<path stroke-width="1" stroke="black" d="M 225 314 60 269"/>
<path stroke-width="1" stroke="black" d="M 225 314 332 220"/>
<path stroke-width="1" stroke="black" d="M 225 314 313 195"/>
<path stroke-width="1" stroke="black" d="M 191 20 324 289"/>
<path stroke-width="1" stroke="black" d="M 191 20 150 73"/>
<path stroke-width="1" stroke="black" d="M 191 20 402 146"/>
<path stroke-width="1" stroke="black" d="M 191 20 26 131"/>
<path stroke-width="1" stroke="black" d="M 191 20 406 226"/>
<path stroke-width="1" stroke="black" d="M 191 20 282 51"/>
<path stroke-width="1" stroke="black" d="M 191 20 337 286"/>
<path stroke-width="1" stroke="black" d="M 191 20 28 206"/>
<path stroke-width="1" stroke="black" d="M 191 20 225 314"/>
<path stroke-width="1" stroke="black" d="M 276 72 420 161"/>
<path stroke-width="1" stroke="black" d="M 191 20 276 72"/>
<path stroke-width="1" stroke="black" d="M 225 314 227 165"/>
<path stroke-width="1" stroke="black" d="M 225 314 198 171"/>
<path stroke-width="1" stroke="black" d="M 225 314 126 320"/>
<path stroke-width="1" stroke="black" d="M 225 314 278 51"/>
<path stroke-width="1" stroke="black" d="M 225 314 96 35"/>
<path stroke-width="1" stroke="black" d="M 225 314 420 161"/>
<path stroke-width="1" stroke="black" d="M 225 314 202 287"/>
<path stroke-width="1" stroke="black" d="M 225 314 124 208"/>
<path stroke-width="1" stroke="black" d="M 225 314 143 250"/>
<path stroke-width="1" stroke="black" d="M 191 20 259 187"/>
<path stroke-width="1" stroke="black" d="M 191 20 103 124"/>
<path stroke-width="1" stroke="black" d="M 276 72 202 287"/>
<path stroke-width="1" stroke="black" d="M 276 72 143 250"/>
<path stroke-width="1" stroke="black" d="M 259 187 202 287"/>
<path stroke-width="1" stroke="black" d="M 259 187 124 208"/>
<path stroke-width="1" stroke="black" d="M 259 187 143 250"/>
<path stroke-width="1" stroke="black" d="M 259 187 313 195"/>
<path stroke-width="1" stroke="black" d="M 259 187 332 220"/>
<path stroke-width="1" stroke="black" d="M 259 187 60 269"/>
<path stroke-width="1" stroke="black" d="M 259 187 92 103"/>
<path stroke-width="1" stroke="black" d="M 259 187 376 85"/>
<path stroke-width="1" stroke="black" d="M 259 187 20 196"/>
<path stroke-width="1" stroke="black" d="M 259 187 103 124"/>
<path stroke-width="1" stroke="black" d="M 259 187 324 289"/>
<path stroke-width="1" stroke="black" d="M 259 187 150 73"/>
<path stroke-width="1" stroke="black" d="M 259 187 402 146"/>
<path stroke-width="1" stroke="black" d="M 259 187 26 131"/>
<path stroke-width="1" stroke="black" d="M 259 187 406 226"/>
<path stroke-width="1" stroke="black" d="M 259 187 282 51"/>
<path stroke-width="1" stroke="black" d="M 259 187 337 286"/>
<path stroke-width="1" stroke="black" d="M 259 187 28 206"/>
<path stroke-width="1" stroke="black" d="M 259 187 191 20"/>
<path stroke-width="1" stroke="black" d="M 259 187 420 161"/>
<path stroke-width="1" stroke="black" d="M 259 187 96 35"/>
<path stroke-width="1" stroke="black" d="M 259 187 278 51"/>
<path stroke-width="1" stroke="black" d="M 259 187 126 320"/>
<path stroke-width="1" stroke="black" d="M 276 72 313 195"/>
<path stroke-width="1" stroke="black" d="M 276 72 332 220"/>
<path stroke-width="1" stroke="black" d="M 276 72 60 269"/>
<path stroke-width="1" stroke="black" d="M 276 72 92 103"/>
<path stroke-width="1" stroke="black" d="M 276 72 376 85"/>
<path stroke-width="1" stroke="black" d="M 276 72 20 196"/>
<path stroke-width="1" stroke="black" d="M 276 72 103 124"/>
<path stroke-width="1" stroke="black" d="M 276 72 324 289"/>
<path stroke-width="1" stroke="black" d="M 276 72 150 73"/>
<path stroke-width="1" stroke="black" d="M 276 72 124 208"/>
<path stroke-width="1" stroke="black" d="M 276 72 402 146"/>
<path stroke-width="1" stroke="black" d="M 276 72 406 226"/>
<path stroke-width="1" stroke="black" d="M 276 72 282 51"/>
<path stroke-width="1" stroke="black" d="M 276 72 337 286"/>
<path stroke-width="1" stroke="black" d="M 276 72 28 206"/>
<path stroke-width="1" stroke="black" d="M 276 72 191 20"/>
<path stroke-width="1" stroke="black" d="M 276 72 225 314"/>
<path stroke-width="1" stroke="black" d="M 276 72 259 187"/>
<path stroke-width="1" stroke="black" d="M 259 187 227 165"/>
<path stroke-width="1" stroke="black" d="M 259 187 198 171"/>
<path stroke-width="1" stroke="black" d="M 276 72 26 131"/>
<path stroke-width="1" stroke="black" d="M 191 20 20 196"/>
<path stroke-width="1" stroke="black" d="M 191 20 376 85"/>
<path stroke-width="1" stroke="black" d="M 191 20 92 103"/>
<path stroke-width="1" stroke="black" d="M 282 51 259 187"/>
<path stroke-width="1" stroke="black" d="M 337 286 227 165"/>
<path stroke-width="1" stroke="black" d="M 337 286 198 171"/>
<path stroke-width="1" stroke="black" d="M 337 286 126 320"/>
<path stroke-width="1" stroke="black" d="M 337 286 278 51"/>
<path stroke-width="1" stroke="black" d="M 337 286 96 35"/>
<path stroke-width="1" stroke="black" d="M 337 286 420 161"/>
<path stroke-width="1" stroke="black" d="M 337 286 202 287"/>
<path stroke-width="1" stroke="black" d="M 337 286 124 208"/>
<path stroke-width="1" stroke="black" d="M 337 286 143 250"/>
<path stroke-width="1" stroke="black" d="M 337 286 313 195"/>
<path stroke-width="1" stroke="black" d="M 337 286 332 220"/>
<path stroke-width="1" stroke="black" d="M 337 286 60 269"/>
<path stroke-width="1" stroke="black" d="M 337 286 92 103"/>
<path stroke-width="1" stroke="black" d="M 337 286 376 85"/>
<path stroke-width="1" stroke="black" d="M 337 286 20 196"/>
<path stroke-width="1" stroke="black" d="M 337 286 103 124"/>
<path stroke-width="1" stroke="black" d="M 337 286 324 289"/>
<path stroke-width="1" stroke="black" d="M 337 286 150 73"/>
<path stroke-width="1" stroke="black" d="M 282 51 276 72"/>
<path stroke-width="1" stroke="black" d="M 282 51 225 314"/>
<path stroke-width="1" stroke="black" d="M 282 51 191 20"/>
<path stroke-width="1" stroke="black" d="M 282 51 28 206"/>
<path stroke-width="1" stroke="black" d="M 282 51 126 320"/>
<path stroke-width="1" stroke="black" d="M 282 51 278 51"/>
<path stroke-width="1" stroke="black" d="M 282 51 96 35"/>
<path stroke-width="1" stroke="black" d="M 282 51 420 161"/>
<path stroke-width="1" stroke="black" d="M 282 51 202 287"/>
<path stroke-width="1" stroke="black" d="M 282 51 124 208"/>
<path stroke-width="1" stroke="black" d="M 282 51 143 250"/>
<path stroke-width="1" stroke="black" d="M 282 51 313 195"/>
<path stroke-width="1" stroke="black" d="M 282 51 332 220"/>
<path stroke-width="1" stroke="black" d="M 337 286 402 146"/>
<path stroke-width="1" stroke="black" d="M 282 51 60 269"/>
<path stroke-width="1" stroke="black" d="M 282 51 376 85"/>
<path stroke-width="1" stroke="black" d="M 282 51 20 196"/>
<path stroke-width="1" stroke="black" d="M 282 51 103 124"/>
<path stroke-width="1" stroke="black" d="M 282 51 324 289"/>
<path stroke-width="1" stroke="black" d="M 282 51 150 73"/>
<path stroke-width="1" stroke="black" d="M 282 51 402 146"/>
<path stroke-width="1" stroke="black" d="M 282 51 26 131"/>
<path stroke-width="1" stroke="black" d="M 282 51 406 226"/>
<path stroke-width="1" stroke="black" d="M 282 51 337 286"/>
<path stroke-width="1" stroke="black" d="M 282 51 92 103"/>
<path stroke-width="1" stroke="black" d="M 337 286 26 131"/>
<path stroke-width="1" stroke="black" d="M 337 286 406 226"/>
<path stroke-width="1" stroke="black" d="M 337 286 282 51"/>
<path stroke-width="1" stroke="black" d="M 28 206 26 131"/>
<path stroke-width="1" stroke="black" d="M 28 206 406 226"/>
<path stroke-width="1" stroke="black" d="M 28 206 282 51"/>
<path stroke-width="1" stroke="black" d="M 28 206 337 286"/>
<path stroke-width="1" stroke="black" d="M 28 206 191 20"/>
<path stroke-width="1" stroke="black" d="M 28 206 225 314"/>
<path stroke-width="1" stroke="black" d="M 28 206 276 72"/>
<path stroke-width="1" stroke="black" d="M 28 206 259 187"/>
<path stroke-width="1" stroke="black" d="M 191 20 227 165"/>
<path stroke-width="1" stroke="black" d="M 28 206 402 146"/>
<path stroke-width="1" stroke="black" d="M 191 20 198 171"/>
<path stroke-width="1" stroke="black" d="M 191 20 278 51"/>
<path stroke-width="1" stroke="black" d="M 191 20 96 35"/>
<path stroke-width="1" stroke="black" d="M 191 20 420 161"/>
<path stroke-width="1" stroke="black" d="M 191 20 202 287"/>
<path stroke-width="1" stroke="black" d="M 191 20 124 208"/>
<path stroke-width="1" stroke="black" d="M 191 20 143 250"/>
<path stroke-width="1" stroke="black" d="M 191 20 313 195"/>
<path stroke-width="1" stroke="black" d="M 191 20 332 220"/>
<path stroke-width="1" stroke="black" d="M 191 20 60 269"/>
<path stroke-width="1" stroke="black" d="M 191 20 126 320"/>
<path stroke-width="1" stroke="black" d="M 20 196 126 320"/>
<path stroke-width="1" stroke="black" d="M 28 206 150 73"/>
<path stroke-width="1" stroke="black" d="M 28 206 103 124"/>
<path stroke-width="1" stroke="black" d="M 337 286 28 206"/>
<path stroke-width="1" stroke="black" d="M 337 286 191 20"/>
<path stroke-width="1" stroke="black" d="M 337 286 225 314"/>
<path stroke-width="1" stroke="black" d="M 337 286 276 72"/>
<path stroke-width="1" stroke="black" d="M 337 286 259 187"/>
<path stroke-width="1" stroke="black" d="M 28 206 227 165"/>
<path stroke-width="1" stroke="black" d="M 28 206 198 171"/>
<path stroke-width="1" stroke="black" d="M 28 206 126 320"/>
<path stroke-width="1" stroke="black" d="M 28 206 278 51"/>
<path stroke-width="1" stroke="black" d="M 28 206 324 289"/>
<path stroke-width="1" stroke="black" d="M 28 206 96 35"/>
<path stroke-width="1" stroke="black" d="M 28 206 202 287"/>
<path stroke-width="1" stroke="black" d="M 28 206 124 208"/>
<path stroke-width="1" stroke="black" d="M 28 206 143 250"/>
<path stroke-width="1" stroke="black" d="M 28 206 313 195"/>
<path stroke-width="1" stroke="black" d="M 28 206 332 220"/>
<path stroke-width="1" stroke="black" d="M 28 206 60 269"/>
<path stroke-width="1" stroke="black" d="M 28 206 92 103"/>
<path stroke-width="1" stroke="black" d="M 28 206 376 85"/>
<path stroke-width="1" stroke="black" d="M 28 206 20 196"/>
<path stroke-width="1" stroke="black" d="M 28 206 420 161"/>
<path stroke-width="1" stroke="black" d="M 20 196 198 171"/>
<path stroke-width="1" stroke="black" d="M 20 196 227 165"/>
<path stroke-width="1" stroke="black" d="M 376 85 259 187"/>
<path stroke-width="1" stroke="black" d="M 96 35 103 124"/>
<path stroke-width="1" stroke="black" d="M 96 35 324 289"/>
<path stroke-width="1" stroke="black" d="M 96 35 150 73"/>
<path stroke-width="1" stroke="black" d="M 96 35 402 146"/>
<path stroke-width="1" stroke="black" d="M 96 35 26 131"/>
<path stroke-width="1" stroke="black" d="M 96 35 406 226"/>
<path stroke-width="1" stroke="black" d="M 96 35 282 51"/>
<path stroke-width="1" stroke="black" d="M 96 35 337 286"/>
<path stroke-width="1" stroke="black" d="M 96 35 28 206"/>
<path stroke-width="1" stroke="black" d="M 96 35 191 20"/>
<path stroke-width="1" stroke="black" d="M 96 35 225 314"/>
<path stroke-width="1" stroke="black" d="M 96 35 276 72"/>
<path stroke-width="1" stroke="black" d="M 96 35 259 187"/>
<path stroke-width="1" stroke="black" d="M 420 161 227 165"/>
<path stroke-width="1" stroke="black" d="M 420 161 198 171"/>
<path stroke-width="1" stroke="black" d="M 420 161 126 320"/>
<path stroke-width="1" stroke="black" d="M 420 161 278 51"/>
<path stroke-width="1" stroke="black" d="M 420 161 96 35"/>
<path stroke-width="1" stroke="black" d="M 420 161 202 287"/>
<path stroke-width="1" stroke="black" d="M 96 35 20 196"/>
<path stroke-width="1" stroke="black" d="M 96 35 376 85"/>
<path stroke-width="1" stroke="black" d="M 96 35 92 103"/>
<path stroke-width="1" stroke="black" d="M 96 35 60 269"/>
<path stroke-width="1" stroke="black" d="M 278 51 150 73"/>
<path stroke-width="1" stroke="black" d="M 278 51 402 146"/>
<path stroke-width="1" stroke="black" d="M 278 51 26 131"/>
<path stroke-width="1" stroke="black" d="M 278 51 406 226"/>
<path stroke-width="1" stroke="black" d="M 278 51 282 51"/>
<path stroke-width="1" stroke="black" d="M 278 51 337 286"/>
<path stroke-width="1" stroke="black" d="M 278 51 28 206"/>
<path stroke-width="1" stroke="black" d="M 278 51 191 20"/>
<path stroke-width="1" stroke="black" d="M 278 51 225 314"/>
<path stroke-width="1" stroke="black" d="M 420 161 124 208"/>
<path stroke-width="1" stroke="black" d="M 278 51 276 72"/>
<path stroke-width="1" stroke="black" d="M 96 35 227 165"/>
<path stroke-width="1" stroke="black" d="M 96 35 198 171"/>
<path stroke-width="1" stroke="black" d="M 96 35 278 51"/>
<path stroke-width="1" stroke="black" d="M 96 35 420 161"/>
<path stroke-width="1" stroke="black" d="M 96 35 202 287"/>
<path stroke-width="1" stroke="black" d="M 96 35 124 208"/>
<path stroke-width="1" stroke="black" d="M 96 35 143 250"/>
<path stroke-width="1" stroke="black" d="M 96 35 313 195"/>
<path stroke-width="1" stroke="black" d="M 96 35 332 220"/>
<path stroke-width="1" stroke="black" d="M 278 51 259 187"/>
<path stroke-width="1" stroke="black" d="M 278 51 324 289"/>
<path stroke-width="1" stroke="black" d="M 420 161 143 250"/>
<path stroke-width="1" stroke="black" d="M 420 161 332 220"/>
<path stroke-width="1" stroke="black" d="M 202 287 143 250"/>
<path stroke-width="1" stroke="black" d="M 202 287 313 195"/>
<path stroke-width="1" stroke="black" d="M 202 287 332 220"/>
<path stroke-width="1" stroke="black" d="M 202 287 60 269"/>
<path stroke-width="1" stroke="black" d="M 202 287 92 103"/>
<path stroke-width="1" stroke="black" d="M 202 287 376 85"/>
<path stroke-width="1" stroke="black" d="M 202 287 20 196"/>
<path stroke-width="1" stroke="black" d="M 202 287 103 124"/>
<path stroke-width="1" stroke="black" d="M 202 287 324 289"/>
<path stroke-width="1" stroke="black" d="M 202 287 150 73"/>
<path stroke-width="1" stroke="black" d="M 202 287 402 146"/>
<path stroke-width="1" stroke="black" d="M 202 287 26 131"/>
<path stroke-width="1" stroke="black" d="M 202 287 406 226"/>
<path stroke-width="1" stroke="black" d="M 202 287 282 51"/>
<path stroke-width="1" stroke="black" d="M 202 287 337 286"/>
<path stroke-width="1" stroke="black" d="M 202 287 28 206"/>
<path stroke-width="1" stroke="black" d="M 202 287 191 20"/>
<path stroke-width="1" stroke="black" d="M 202 287 225 314"/>
<path stroke-width="1" stroke="black" d="M 202 287 276 72"/>
<path stroke-width="1" stroke="black" d="M 202 287 124 208"/>
<path stroke-width="1" stroke="black" d="M 202 287 420 161"/>
<path stroke-width="1" stroke="black" d="M 202 287 96 35"/>
<path stroke-width="1" stroke="black" d="M 202 287 278 51"/>
<path stroke-width="1" stroke="black" d="M 420 161 60 269"/>
<path stroke-width="1" stroke="black" d="M 420 161 92 103"/>
<path stroke-width="1" stroke="black" d="M 420 161 376 85"/>
<path stroke-width="1" stroke="black" d="M 420 161 20 196"/>
<path stroke-width="1" stroke="black" d="M 420 161 103 124"/>
<path stroke-width="1" stroke="black" d="M 420 161 324 289"/>
<path stroke-width="1" stroke="black" d="M 420 161 150 73"/>
<path stroke-width="1" stroke="black" d="M 420 161 402 146"/>
<path stroke-width="1" stroke="black" d="M 420 161 26 131"/>
<path stroke-width="1" stroke="black" d="M 420 161 313 195"/>
<path stroke-width="1" stroke="black" d="M 420 161 406 226"/>
<path stroke-width="1" stroke="black" d="M 420 161 337 286"/>
<path stroke-width="1" stroke="black" d="M 420 161 28 206"/>
<path stroke-width="1" stroke="black" d="M 420 161 191 20"/>
<path stroke-width="1" stroke="black" d="M 420 161 225 314"/>
<path stroke-width="1" stroke="black" d="M 420 161 276 72"/>
<path stroke-width="1" stroke="black" d="M 420 161 259 187"/>
<path stroke-width="1" stroke="black" d="M 202 287 227 165"/>
<path stroke-width="1" stroke="black" d="M 202 287 198 171"/>
<path stroke-width="1" stroke="black" d="M 202 287 126 320"/>
<path stroke-width="1" stroke="black" d="M 420 161 282 51"/>
<path stroke-width="1" stroke="black" d="M 278 51 103 124"/>
<path stroke-width="1" stroke="black" d="M 278 51 20 196"/>
<path stroke-width="1" stroke="black" d="M 278 51 376 85"/>
<path stroke-width="1" stroke="black" d="M 227 165 276 72"/>
<path stroke-width="1" stroke="black" d="M 227 165 259 187"/>
<path stroke-width="1" stroke="black" d="M 198 171 227 165"/>
<path stroke-width="1" stroke="black" d="M 198 171 126 320"/>
<path stroke-width="1" stroke="black" d="M 198 171 278 51"/>
<path stroke-width="1" stroke="black" d="M 198 171 96 35"/>
<path stroke-width="1" stroke="black" d="M 198 171 420 161"/>
<path stroke-width="1" stroke="black" d="M 198 171 202 287"/>
<path stroke-width="1" stroke="black" d="M 198 171 124 208"/>
<path stroke-width="1" stroke="black" d="M 198 171 143 250"/>
<path stroke-width="1" stroke="black" d="M 198 171 313 195"/>
<path stroke-width="1" stroke="black" d="M 198 171 332 220"/>
<path stroke-width="1" stroke="black" d="M 198 171 60 269"/>
<path stroke-width="1" stroke="black" d="M 198 171 92 103"/>
<path stroke-width="1" stroke="black" d="M 198 171 376 85"/>
<path stroke-width="1" stroke="black" d="M 198 171 20 196"/>
<path stroke-width="1" stroke="black" d="M 198 171 103 124"/>
<path stroke-width="1" stroke="black" d="M 198 171 324 289"/>
<path stroke-width="1" stroke="black" d="M 198 171 150 73"/>
<path stroke-width="1" stroke="black" d="M 227 165 225 314"/>
<path stroke-width="1" stroke="black" d="M 227 165 191 20"/>
<path stroke-width="1" stroke="black" d="M 227 165 28 206"/>
<path stroke-width="1" stroke="black" d="M 227 165 337 286"/>
<path stroke-width="1" stroke="black" d="M 227 165 126 320"/>
<path stroke-width="1" stroke="black" d="M 227 165 278 51"/>
<path stroke-width="1" stroke="black" d="M 227 165 96 35"/>
<path stroke-width="1" stroke="black" d="M 227 165 420 161"/>
<path stroke-width="1" stroke="black" d="M 227 165 202 287"/>
<path stroke-width="1" stroke="black" d="M 227 165 124 208"/>
<path stroke-width="1" stroke="black" d="M 227 165 143 250"/>
<path stroke-width="1" stroke="black" d="M 227 165 313 195"/>
<path stroke-width="1" stroke="black" d="M 227 165 332 220"/>
<path stroke-width="1" stroke="black" d="M 198 171 402 146"/>
<path stroke-width="1" stroke="black" d="M 227 165 60 269"/>
<path stroke-width="1" stroke="black" d="M 227 165 376 85"/>
<path stroke-width="1" stroke="black" d="M 227 165 20 196"/>
<path stroke-width="1" stroke="black" d="M 227 165 103 124"/>
<path stroke-width="1" stroke="black" d="M 227 165 324 289"/>
<path stroke-width="1" stroke="black" d="M 227 165 150 73"/>
<path stroke-width="1" stroke="black" d="M 227 165 402 146"/>
<path stroke-width="1" stroke="black" d="M 227 165 26 131"/>
<path stroke-width="1" stroke="black" d="M 227 165 406 226"/>
<path stroke-width="1" stroke="black" d="M 227 165 282 51"/>
<path stroke-width="1" stroke="black" d="M 227 165 92 103"/>
<path stroke-width="1" stroke="black" d="M 198 171 26 131"/>
<path stroke-width="1" stroke="black" d="M 198 171 406 226"/>
<path stroke-width="1" stroke="black" d="M 198 171 282 51"/>
<path stroke-width="1" stroke="black" d="M 126 320 406 226"/>
<path stroke-width="1" stroke="black" d="M 126 320 282 51"/>
<path stroke-width="1" stroke="black" d="M 126 320 337 286"/>
<path stroke-width="1" stroke="black" d="M 126 320 28 206"/>
<path stroke-width="1" stroke="black" d="M 126 320 191 20"/>
<path stroke-width="1" stroke="black" d="M 126 320 225 314"/>
<path stroke-width="1" stroke="black" d="M 126 320 276 72"/>
<path stroke-width="1" stroke="black" d="M 126 320 259 187"/>
<path stroke-width="1" stroke="black" d="M 278 51 227 165"/>
<path stroke-width="1" stroke="black" d="M 126 320 26 131"/>
<path stroke-width="1" stroke="black" d="M 278 51 198 171"/>
<path stroke-width="1" stroke="black" d="M 278 51 96 35"/>
<path stroke-width="1" stroke="black" d="M 278 51 420 161"/>
<path stroke-width="1" stroke="black" d="M 278 51 202 287"/>
<path stroke-width="1" stroke="black" d="M 278 51 124 208"/>
<path stroke-width="1" stroke="black" d="M 278 51 143 250"/>
<path stroke-width="1" stroke="black" d="M 278 51 313 195"/>
<path stroke-width="1" stroke="black" d="M 278 51 332 220"/>
<path stroke-width="1" stroke="black" d="M 278 51 60 269"/>
<path stroke-width="1" stroke="black" d="M 278 51 92 103"/>
<path stroke-width="1" stroke="black" d="M 278 51 126 320"/>
<path stroke-width="1" stroke="black" d="M 202 287 259 187"/>
<path stroke-width="1" stroke="black" d="M 126 320 402 146"/>
<path stroke-width="1" stroke="black" d="M 126 320 324 289"/>
<path stroke-width="1" stroke="black" d="M 198 171 337 286"/>
<path stroke-width="1" stroke="black" d="M 198 171 28 206"/>
<path stroke-width="1" stroke="black" d="M 198 171 191 20"/>
<path stroke-width="1" stroke="black" d="M 198 171 225 314"/>
<path stroke-width="1" stroke="black" d="M 198 171 276 72"/>
<path stroke-width="1" stroke="black" d="M 198 171 259 187"/>
<path stroke-width="1" stroke="black" d="M 126 320 227 165"/>
<path stroke-width="1" stroke="black" d="M 126 320 198 171"/>
<path stroke-width="1" stroke="black" d="M 126 320 278 51"/>
<path stroke-width="1" stroke="black" d="M 126 320 150 73"/>
<path stroke-width="1" stroke="black" d="M 126 320 420 161"/>
<path stroke-width="1" stroke="black" d="M 126 320 124 208"/>
<path stroke-width="1" stroke="black" d="M 126 320 143 250"/>
<path stroke-width="1" stroke="black" d="M 126 320 313 195"/>
<path stroke-width="1" stroke="black" d="M 126 320 332 220"/>
<path stroke-width="1" stroke="black" d="M 126 320 60 269"/>
<path stroke-width="1" stroke="black" d="M 126 320 92 103"/>
<path stroke-width="1" stroke="black" d="M 126 320 376 85"/>
<path stroke-width="1" stroke="black" d="M 126 320 20 196"/>
<path stroke-width="1" stroke="black" d="M 126 320 103 124"/>
<path stroke-width="1" stroke="black" d="M 126 320 202 287"/>
<path stroke-width="1" stroke="black" d="M 259 187 225 314"/>
<path stroke-width="1" stroke="black" d="M 124 208 227 165"/>
<path stroke-width="1" stroke="black" d="M 124 208 126 320"/>
<path stroke-width="1" stroke="black" d="M 60 269 103 124"/>
<path stroke-width="1" stroke="black" d="M 60 269 324 289"/>
<path stroke-width="1" stroke="black" d="M 60 269 150 73"/>
<path stroke-width="1" stroke="black" d="M 60 269 402 146"/>
<path stroke-width="1" stroke="black" d="M 60 269 26 131"/>
<path stroke-width="1" stroke="black" d="M 60 269 406 226"/>
<path stroke-width="1" stroke="black" d="M 60 269 282 51"/>
<path stroke-width="1" stroke="black" d="M 60 269 337 286"/>
<path stroke-width="1" stroke="black" d="M 60 269 28 206"/>
<path stroke-width="1" stroke="black" d="M 60 269 191 20"/>
<path stroke-width="1" stroke="black" d="M 60 269 225 314"/>
<path stroke-width="1" stroke="black" d="M 60 269 276 72"/>
<path stroke-width="1" stroke="black" d="M 60 269 259 187"/>
<path stroke-width="1" stroke="black" d="M 92 103 227 165"/>
<path stroke-width="1" stroke="black" d="M 92 103 198 171"/>
<path stroke-width="1" stroke="black" d="M 92 103 126 320"/>
<path stroke-width="1" stroke="black" d="M 92 103 278 51"/>
<path stroke-width="1" stroke="black" d="M 92 103 96 35"/>
<path stroke-width="1" stroke="black" d="M 92 103 420 161"/>
<path stroke-width="1" stroke="black" d="M 60 269 20 196"/>
<path stroke-width="1" stroke="black" d="M 60 269 376 85"/>
<path stroke-width="1" stroke="black" d="M 60 269 92 103"/>
<path stroke-width="1" stroke="black" d="M 60 269 332 220"/>
<path stroke-width="1" stroke="black" d="M 332 220 402 146"/>
<path stroke-width="1" stroke="black" d="M 332 220 26 131"/>
<path stroke-width="1" stroke="black" d="M 332 220 406 226"/>
<path stroke-width="1" stroke="black" d="M 332 220 282 51"/>
<path stroke-width="1" stroke="black" d="M 332 220 337 286"/>
<path stroke-width="1" stroke="black" d="M 332 220 28 206"/>
<path stroke-width="1" stroke="black" d="M 332 220 191 20"/>
<path stroke-width="1" stroke="black" d="M 332 220 225 314"/>
<path stroke-width="1" stroke="black" d="M 332 220 276 72"/>
<path stroke-width="1" stroke="black" d="M 92 103 202 287"/>
<path stroke-width="1" stroke="black" d="M 332 220 259 187"/>
<path stroke-width="1" stroke="black" d="M 60 269 198 171"/>
<path stroke-width="1" stroke="black" d="M 60 269 126 320"/>
<path stroke-width="1" stroke="black" d="M 60 269 278 51"/>
<path stroke-width="1" stroke="black" d="M 60 269 96 35"/>
<path stroke-width="1" stroke="black" d="M 60 269 420 161"/>
<path stroke-width="1" stroke="black" d="M 60 269 202 287"/>
<path stroke-width="1" stroke="black" d="M 60 269 124 208"/>
<path stroke-width="1" stroke="black" d="M 60 269 143 250"/>
<path stroke-width="1" stroke="black" d="M 60 269 313 195"/>
<path stroke-width="1" stroke="black" d="M 60 269 227 165"/>
<path stroke-width="1" stroke="black" d="M 332 220 150 73"/>
<path stroke-width="1" stroke="black" d="M 92 103 124 208"/>
<path stroke-width="1" stroke="black" d="M 92 103 313 195"/>
<path stroke-width="1" stroke="black" d="M 376 85 124 208"/>
<path stroke-width="1" stroke="black" d="M 376 85 143 250"/>
<path stroke-width="1" stroke="black" d="M 376 85 313 195"/>
<path stroke-width="1" stroke="black" d="M 376 85 332 220"/>
<path stroke-width="1" stroke="black" d="M 376 85 60 269"/>
<path stroke-width="1" stroke="black" d="M 376 85 92 103"/>
<path stroke-width="1" stroke="black" d="M 376 85 20 196"/>
<path stroke-width="1" stroke="black" d="M 376 85 103 124"/>
<path stroke-width="1" stroke="black" d="M 376 85 324 289"/>
<path stroke-width="1" stroke="black" d="M 376 85 150 73"/>
<path stroke-width="1" stroke="black" d="M 376 85 402 146"/>
<path stroke-width="1" stroke="black" d="M 376 85 26 131"/>
<path stroke-width="1" stroke="black" d="M 376 85 406 226"/>
<path stroke-width="1" stroke="black" d="M 376 85 282 51"/>
<path stroke-width="1" stroke="black" d="M 376 85 337 286"/>
<path stroke-width="1" stroke="black" d="M 376 85 28 206"/>
<path stroke-width="1" stroke="black" d="M 376 85 191 20"/>
<path stroke-width="1" stroke="black" d="M 376 85 225 314"/>
<path stroke-width="1" stroke="black" d="M 376 85 276 72"/>
<path stroke-width="1" stroke="black" d="M 376 85 202 287"/>
<path stroke-width="1" stroke="black" d="M 376 85 420 161"/>
<path stroke-width="1" stroke="black" d="M 376 85 96 35"/>
<path stroke-width="1" stroke="black" d="M 376 85 278 51"/>
<path stroke-width="1" stroke="black" d="M 92 103 332 220"/>
<path stroke-width="1" stroke="black" d="M 92 103 60 269"/>
<path stroke-width="1" stroke="black" d="M 92 103 376 85"/>
<path stroke-width="1" stroke="black" d="M 92 103 20 196"/>
<path stroke-width="1" stroke="black" d="M 92 103 103 124"/>
<path stroke-width="1" stroke="black" d="M 92 103 324 289"/>
<path stroke-width="1" stroke="black" d="M 92 103 150 73"/>
<path stroke-width="1" stroke="black" d="M 92 103 402 146"/>
<path stroke-width="1" stroke="black" d="M 92 103 26 131"/>
<path stroke-width="1" stroke="black" d="M 92 103 143 250"/>
<path stroke-width="1" stroke="black" d="M 92 103 406 226"/>
<path stroke-width="1" stroke="black" d="M 92 103 337 286"/>
<path stroke-width="1" stroke="black" d="M 92 103 28 206"/>
<path stroke-width="1" stroke="black" d="M 92 103 191 20"/>
<path stroke-width="1" stroke="black" d="M 92 103 225 314"/>
<path stroke-width="1" stroke="black" d="M 92 103 276 72"/>
<path stroke-width="1" stroke="black" d="M 92 103 259 187"/>
<path stroke-width="1" stroke="black" d="M 376 85 227 165"/>
<path stroke-width="1" stroke="black" d="M 376 85 198 171"/>
<path stroke-width="1" stroke="black" d="M 376 85 126 320"/>
<path stroke-width="1" stroke="black" d="M 92 103 282 51"/>
<path stroke-width="1" stroke="black" d="M 332 220 324 289"/>
<path stroke-width="1" stroke="black" d="M 332 220 103 124"/>
<path stroke-width="1" stroke="black" d="M 332 220 20 196"/>
<path stroke-width="1" stroke="black" d="M 143 250 227 165"/>
<path stroke-width="1" stroke="black" d="M 143 250 198 171"/>
<path stroke-width="1" stroke="black" d="M 143 250 126 320"/>
<path stroke-width="1" stroke="black" d="M 143 250 278 51"/>
<path stroke-width="1" stroke="black" d="M 143 250 96 35"/>
<path stroke-width="1" stroke="black" d="M 143 250 420 161"/>
<path stroke-width="1" stroke="black" d="M 143 250 202 287"/>
<path stroke-width="1" stroke="black" d="M 143 250 124 208"/>
<path stroke-width="1" stroke="black" d="M 143 250 313 195"/>
<path stroke-width="1" stroke="black" d="M 143 250 332 220"/>
<path stroke-width="1" stroke="black" d="M 143 250 60 269"/>
<path stroke-width="1" stroke="black" d="M 143 250 92 103"/>
<path stroke-width="1" stroke="black" d="M 143 250 376 85"/>
<path stroke-width="1" stroke="black" d="M 143 250 20 196"/>
<path stroke-width="1" stroke="black" d="M 143 250 103 124"/>
<path stroke-width="1" stroke="black" d="M 143 250 324 289"/>
<path stroke-width="1" stroke="black" d="M 143 250 150 73"/>
<path stroke-width="1" stroke="black" d="M 143 250 402 146"/>
<path stroke-width="1" stroke="black" d="M 143 250 26 131"/>
<path stroke-width="1" stroke="black" d="M 124 208 259 187"/>
<path stroke-width="1" stroke="black" d="M 124 208 276 72"/>
<path stroke-width="1" stroke="black" d="M 124 208 225 314"/>
<path stroke-width="1" stroke="black" d="M 124 208 191 20"/>
<path stroke-width="1" stroke="black" d="M 124 208 278 51"/>
<path stroke-width="1" stroke="black" d="M 124 208 96 35"/>
<path stroke-width="1" stroke="black" d="M 124 208 420 161"/>
<path stroke-width="1" stroke="black" d="M 124 208 202 287"/>
<path stroke-width="1" stroke="black" d="M 124 208 143 250"/>
<path stroke-width="1" stroke="black" d="M 124 208 313 195"/>
<path stroke-width="1" stroke="black" d="M 124 208 332 220"/>
<path stroke-width="1" stroke="black" d="M 124 208 60 269"/>
<path stroke-width="1" stroke="black" d="M 124 208 92 103"/>
<path stroke-width="1" stroke="black" d="M 143 250 406 226"/>
<path stroke-width="1" stroke="black" d="M 124 208 376 85"/>
<path stroke-width="1" stroke="black" d="M 124 208 103 124"/>
<path stroke-width="1" stroke="black" d="M 124 208 324 289"/>
<path stroke-width="1" stroke="black" d="M 124 208 150 73"/>
<path stroke-width="1" stroke="black" d="M 124 208 402 146"/>
<path stroke-width="1" stroke="black" d="M 124 208 26 131"/>
<path stroke-width="1" stroke="black" d="M 124 208 406 226"/>
<path stroke-width="1" stroke="black" d="M 124 208 282 51"/>
<path stroke-width="1" stroke="black" d="M 124 208 337 286"/>
<path stroke-width="1" stroke="black" d="M 124 208 28 206"/>
<path stroke-width="1" stroke="black" d="M 124 208 20 196"/>
<path stroke-width="1" stroke="black" d="M 143 250 282 51"/>
<path stroke-width="1" stroke="black" d="M 143 250 337 286"/>
<path stroke-width="1" stroke="black" d="M 143 250 28 206"/>
<path stroke-width="1" stroke="black" d="M 313 195 282 51"/>
<path stroke-width="1" stroke="black" d="M 313 195 337 286"/>
<path stroke-width="1" stroke="black" d="M 313 195 28 206"/>
<path stroke-width="1" stroke="black" d="M 313 195 191 20"/>
<path stroke-width="1" stroke="black" d="M 313 195 225 314"/>
<path stroke-width="1" stroke="black" d="M 313 195 276 72"/>
<path stroke-width="1" stroke="black" d="M 313 195 259 187"/>
<path stroke-width="1" stroke="black" d="M 332 220 227 165"/>
<path stroke-width="1" stroke="black" d="M 332 220 198 171"/>
<path stroke-width="1" stroke="black" d="M 313 195 406 226"/>
<path stroke-width="1" stroke="black" d="M 332 220 126 320"/>
<path stroke-width="1" stroke="black" d="M 332 220 96 35"/>
<path stroke-width="1" stroke="black" d="M 332 220 420 161"/>
<path stroke-width="1" stroke="black" d="M 332 220 202 287"/>
<path stroke-width="1" stroke="black" d="M 332 220 124 208"/>
<path stroke-width="1" stroke="black" d="M 332 220 143 250"/>
<path stroke-width="1" stroke="black" d="M 332 220 313 195"/>
<path stroke-width="1" stroke="black" d="M 332 220 60 269"/>
<path stroke-width="1" stroke="black" d="M 332 220 92 103"/>
<path stroke-width="1" stroke="black" d="M 332 220 376 85"/>
<path stroke-width="1" stroke="black" d="M 332 220 278 51"/>
<path stroke-width="1" stroke="black" d="M 124 208 198 171"/>
<path stroke-width="1" stroke="black" d="M 313 195 26 131"/>
<path stroke-width="1" stroke="black" d="M 313 195 150 73"/>
<path stroke-width="1" stroke="black" d="M 143 250 191 20"/>
<path stroke-width="1" stroke="black" d="M 143 250 225 314"/>
<path stroke-width="1" stroke="black" d="M 143 250 276 72"/>
<path stroke-width="1" stroke="black" d="M 143 250 259 187"/>
<path stroke-width="1" stroke="black" d="M 313 195 227 165"/>
<path stroke-width="1" stroke="black" d="M 313 195 198 171"/>
<path stroke-width="1" stroke="black" d="M 313 195 126 320"/>
<path stroke-width="1" stroke="black" d="M 313 195 278 51"/>
<path stroke-width="1" stroke="black" d="M 313 195 96 35"/>
<path stroke-width="1" stroke="black" d="M 313 195 402 146"/>
<path stroke-width="1" stroke="black" d="M 313 195 420 161"/>
<path stroke-width="1" stroke="black" d="M 313 195 124 208"/>
<path stroke-width="1" stroke="black" d="M 313 195 143 250"/>
<path stroke-width="1" stroke="black" d="M 313 195 332 220"/>
<path stroke-width="1" stroke="black" d="M 313 195 60 269"/>
<path stroke-width="1" stroke="black" d="M 313 195 92 103"/>
<path stroke-width="1" stroke="black" d="M 313 195 376 85"/>
<path stroke-width="1" stroke="black" d="M 313 195 20 196"/>
<path stroke-width="1" stroke="black" d="M 313 195 103 124"/>
<path stroke-width="1" stroke="black" d="M 313 195 324 289"/>
<path stroke-width="1" stroke="black" d="M 313 195 202 287"/>
<path stroke-width="1" stroke="black" d="M 259 187 276 72"/>
<circle cx="227" cy="165" r="20.0" style="fill:blue;stroke:black;stroke-width:1.0"/>
<circle cx="198" cy="171" r="20.0" style="fill:blue;stroke:black;stroke-width:1.0"/>
<circle cx="126" cy="320" r="20.0" style="fill:blue;stroke:black;stroke-width:1.0"/>
<circle cx="278" cy="51" r="20.0" style="fill:green;stroke:black;stroke-width:1.0"/>
<circle cx="96" cy="35" r="20.0" style="fill:purple;stroke:black;stroke-width:1.0"/>
<circle cx="420" cy="161" r="20.0" style="fill:orange;stroke:black;stroke-width:1.0"/>
<circle cx="202" cy="287" r="20.0" style="fill:red;stroke:black;stroke-width:1.0"/>
<circle cx="124" cy="208" r="20.0" style="fill:blue;stroke:black;stroke-width:1.0"/>
<circle cx="143" cy="250" r="20.0" style="fill:blue;stroke:black;stroke-width:1.0"/>
<circle cx="313" cy="195" r="20.0" style="fill:blue;stroke:black;stroke-width:1.0"/>
<circle cx="332" cy="220" r="20.0" style="fill:yellow;stroke:black;stroke-width:1.0"/>
<circle cx="60" cy="269" r="20.0" style="fill:blue;stroke:black;stroke-width:1.0"/>
<circle cx="92" cy="103" r="20.0" style="fill:blue;stroke:black;stroke-width:1.0"/>
<circle cx="376" cy="85" r="20.0" style="fill:blue;stroke:black;stroke-width:1.0"/>
<circle cx="20" cy="196" r="20.0" style="fill:blue;stroke:black;stroke-width:1.0"/>
<circle cx="103" cy="124" r="20.0" style="fill:blue;stroke:black;stroke-width:1.0"/>
<circle cx="324" cy="289" r="20.0" style="fill:fuchsia;stroke:black;stroke-width:1.0"/>
<circle cx="150" cy="73" r="20.0" style="fill:blue;stroke:black;stroke-width:1.0"/>
<circle cx="402" cy="146" r="20.0" style="fill:blue;stroke:black;stroke-width:1.0"/>
<circle cx="26" cy="131" r="20.0" style="fill:red;stroke:black;stroke-width:1.0"/>
<circle cx="406" cy="226" r="20.0" style="fill:blue;stroke:black;stroke-width:1.0"/>
<circle cx="282" cy="51" r="20.0" style="fill:green;stroke:black;stroke-width:1.0"/>
<circle cx="337" cy="286" r="20.0" style="fill:orange;stroke:black;stroke-width:1.0"/>
<circle cx="28" cy="206" r="20.0" style="fill:blue;stroke:black;stroke-width:1.0"/>
<circle cx="191" cy="20" r="20.0" style="fill:purple;stroke:black;stroke-width:1.0"/>
<circle cx="225" cy="314" r="20.0" style="fill:blue;stroke:black;stroke-width:1.0"/>
<circle cx="276" cy="72" r="20.0" style="fill:yellow;stroke:black;stroke-width:1.0"/>
<circle cx="259" cy="187" r="20.0" style="fill:fuchsia;stroke:black;stroke-width:1.0"/>
</svg>
