<svg width="440" height="340" xmlns="http://www.w3.org/2000/svg">
<path stroke-width="1" stroke="black" d="M 411 20 377 52"/>
<path stroke-width="1" stroke="black" d="M 377 52 411 20"/>
<path stroke-width="1" stroke="black" d="M 377 52 299 126"/>
<path stroke-width="1" stroke="black" d="M 420 121 299 126"/>
<path stroke-width="1" stroke="black" d="M 299 126 377 52"/>
<path stroke-width="1" stroke="black" d="M 299 126 420 121"/>
<path stroke-width="1" stroke="black" d="M 299 126 145 207"/>
<path stroke-width="1" stroke="black" d="M 20 208 145 207"/>
<path stroke-width="1" stroke="black" d="M 145 207 299 126"/>
<path stroke-width="1" stroke="black" d="M 145 207 20 208"/>
<path stroke-width="1" stroke="black" d="M 145 207 111 285"/>
<path stroke-width="1" stroke="black" d="M 90 320 111 285"/>
<path stroke-width="1" stroke="black" d="M 111 285 145 207"/>
<path stroke-width="1" stroke="black" d="M 111 285 90 320"/>
<circle cx="411" cy="20" r="20.0" style="fill:blue;stroke:black;stroke-width:1.0"/>
<circle cx="377" cy="52" r="20.0" style="fill:blue;stroke:black;stroke-width:1.0"/>
<circle cx="420" cy="121" r="20.0" style="fill:red;stroke:black;stroke-width:1.0"/>
<circle cx="299" cy="126" r="20.0" style="fill:red;stroke:black;stroke-width:1.0"/>
<circle cx="20" cy="208" r="20.0" style="fill:green;stroke:black;stroke-width:1.0"/>
<circle cx="145" cy="207" r="20.0" style="fill:green;stroke:black;stroke-width:1.0"/>
<circle cx="90" cy="320" r="20.0" style="fill:orange;stroke:black;stroke-width:1.0"/>
<circle cx="111" cy="285" r="20.0" style="fill:orange;stroke:black;stroke-width:1.0"/>
</svg>
