<svg width="440" height="340" xmlns="http://www.w3.org/2000/svg">
<path stroke-width="20.0" stroke="black" d="M 420 20 392 55"/>
<path stroke-width="20.0" stroke="black" d="M 392 55 420 20"/>
<path stroke-width="0.5" stroke="black" d="M 392 55 289 135"/>
<path stroke-width="20.0" stroke="black" d="M 379 144 289 135"/>
<path stroke-width="0.5" stroke="black" d="M 289 135 392 55"/>
<path stroke-width="20.0" stroke="black" d="M 289 135 379 144"/>
<path stroke-width="0.5" stroke="black" d="M 289 135 170 210"/>
<path stroke-width="20.0" stroke="black" d="M 79 202 170 210"/>
<path stroke-width="0.5" stroke="black" d="M 170 210 289 135"/>
<path stroke-width="20.0" stroke="black" d="M 170 210 79 202"/>
<path stroke-width="0.5" stroke="black" d="M 170 210 45 285"/>
<path stroke-width="20.0" stroke="black" d="M 20 320 45 285"/>
<path stroke-width="0.5" stroke="black" d="M 45 285 170 210"/>
<path stroke-width="20.0" stroke="black" d="M 45 285 20 320"/>
<circle cx="420" cy="20" r="7.0" style="fill:gray;stroke:black;stroke-width:1.0"/>
<circle cx="392" cy="55" r="7.0" style="fill:gray;stroke:black;stroke-width:1.0"/>
<circle cx="379" cy="144" r="7.0" style="fill:gray;stroke:black;stroke-width:1.0"/>
<circle cx="289" cy="135" r="7.0" style="fill:gray;stroke:black;stroke-width:1.0"/>
<circle cx="79" cy="202" r="7.0" style="fill:gray;stroke:black;stroke-width:1.0"/>
<circle cx="170" cy="210" r="7.0" style="fill:gray;stroke:black;stroke-width:1.0"/>
<circle cx="20" cy="320" r="7.0" style="fill:gray;stroke:black;stroke-width:1.0"/>
<circle cx="45" cy="285" r="7.0" style="fill:gray;stroke:black;stroke-width:1.0"/>
</svg>
