<svg width="440" height="340" xmlns="http://www.w3.org/2000/svg">
<path stroke-width="1" stroke="black" d="M 20 320 48 317"/>
<path stroke-width="1" stroke="black" d="M 356 193 388 196"/>
<path stroke-width="1" stroke="black" d="M 356 193 289 151"/>
<path stroke-width="1" stroke="black" d="M 306 152 289 151"/>
<path stroke-width="1" stroke="black" d="M 289 151 356 193"/>
<path stroke-width="1" stroke="black" d="M 289 151 306 152"/>
<path stroke-width="1" stroke="black" d="M 289 151 200 105"/>
<path stroke-width="1" stroke="black" d="M 192 100 200 105"/>
<path stroke-width="1" stroke="black" d="M 200 105 289 151"/>
<path stroke-width="1" stroke="black" d="M 200 105 192 100"/>
<path stroke-width="1" stroke="black" d="M 200 105 130 66"/>
<path stroke-width="1" stroke="black" d="M 110 58 130 66"/>
<path stroke-width="1" stroke="black" d="M 130 66 200 105"/>
<path stroke-width="1" stroke="black" d="M 130 66 110 58"/>
<path stroke-width="1" stroke="black" d="M 130 66 69 32"/>
<path stroke-width="1" stroke="black" d="M 48 20 69 32"/>
<path stroke-width="1" stroke="black" d="M 356 193 391 237"/>
<path stroke-width="1" stroke="black" d="M 388 196 356 193"/>
<path stroke-width="1" stroke="black" d="M 391 237 356 193"/>
<path stroke-width="1" stroke="black" d="M 391 237 420 241"/>
<path stroke-width="1" stroke="black" d="M 48 317 20 320"/>
<path stroke-width="1" stroke="black" d="M 48 317 144 308"/>
<path stroke-width="1" stroke="black" d="M 120 310 144 308"/>
<path stroke-width="1" stroke="black" d="M 144 308 48 317"/>
<path stroke-width="1" stroke="black" d="M 144 308 120 310"/>
<path stroke-width="1" stroke="black" d="M 144 308 246 293"/>
<path stroke-width="1" stroke="black" d="M 255 299 246 293"/>
<path stroke-width="1" stroke="black" d="M 69 32 130 66"/>
<path stroke-width="1" stroke="black" d="M 246 293 144 308"/>
<path stroke-width="1" stroke="black" d="M 246 293 346 272"/>
<path stroke-width="1" stroke="black" d="M 368 279 346 272"/>
<path stroke-width="1" stroke="black" d="M 346 272 246 293"/>
<path stroke-width="1" stroke="black" d="M 346 272 368 279"/>
<path stroke-width="1" stroke="black" d="M 346 272 391 237"/>
<path stroke-width="1" stroke="black" d="M 420 241 391 237"/>
<path stroke-width="1" stroke="black" d="M 391 237 346 272"/>
<path stroke-width="1" stroke="black" d="M 246 293 255 299"/>
<path stroke-width="1" stroke="black" d="M 69 32 48 20"/>
<circle cx="20" cy="320" r="7.0" style="fill:red;stroke:black;stroke-width:1.0"/>
<circle cx="48" cy="317" r="7.0" style="fill:red;stroke:black;stroke-width:1.0"/>
<circle cx="120" cy="310" r="7.0" style="fill:green;stroke:black;stroke-width:1.0"/>
<circle cx="144" cy="308" r="7.0" style="fill:green;stroke:black;stroke-width:1.0"/>
<circle cx="255" cy="299" r="7.0" style="fill:orange;stroke:black;stroke-width:1.0"/>
<circle cx="246" cy="293" r="7.0" style="fill:orange;stroke:black;stroke-width:1.0"/>
<circle cx="368" cy="279" r="7.0" style="fill:purple;stroke:black;stroke-width:1.0"/>
<circle cx="346" cy="272" r="7.0" style="fill:purple;stroke:black;stroke-width:1.0"/>
<circle cx="420" cy="241" r="7.0" style="fill:yellow;stroke:black;stroke-width:1.0"/>
<circle cx="391" cy="237" r="7.0" style="fill:yellow;stroke:black;stroke-width:1.0"/>
<circle cx="388" cy="196" r="7.0" style="fill:fuchsia;stroke:black;stroke-width:1.0"/>
<circle cx="356" cy="193" r="7.0" style="fill:fuchsia;stroke:black;stroke-width:1.0"/>
<circle cx="306" cy="152" r="7.0" style="fill:olive;stroke:black;stroke-width:1.0"/>
<circle cx="289" cy="151" r="7.0" style="fill:olive;stroke:black;stroke-width:1.0"/>
<circle cx="192" cy="100" r="7.0" style="fill:aqua;stroke:black;stroke-width:1.0"/>
<circle cx="200" cy="105" r="7.0" style="fill:aqua;stroke:black;stroke-width:1.0"/>
<circle cx="110" cy="58" r="7.0" style="fill:blue;stroke:black;stroke-width:1.0"/>
<circle cx="130" cy="66" r="7.0" style="fill:blue;stroke:black;stroke-width:1.0"/>
<circle cx="48" cy="20" r="7.0" style="fill:blue;stroke:black;stroke-width:1.0"/>
<circle cx="69" cy="32" r="7.0" style="fill:blue;stroke:black;stroke-width:1.0"/>
</svg>
