<svg width="440" height="340" xmlns="http://www.w3.org/2000/svg">
<path stroke-width="1" stroke="black" d="M 20 320 30 312"/>
<path stroke-width="1" stroke="black" d="M 137 115 120 112"/>
<path stroke-width="1" stroke="black" d="M 137 115 188 80"/>
<path stroke-width="1" stroke="black" d="M 176 74 188 80"/>
<path stroke-width="1" stroke="black" d="M 188 80 137 115"/>
<path stroke-width="1" stroke="black" d="M 188 80 176 74"/>
<path stroke-width="1" stroke="black" d="M 188 80 259 54"/>
<path stroke-width="1" stroke="black" d="M 251 47 259 54"/>
<path stroke-width="1" stroke="black" d="M 259 54 188 80"/>
<path stroke-width="1" stroke="black" d="M 259 54 251 47"/>
<path stroke-width="1" stroke="black" d="M 259 54 328 37"/>
<path stroke-width="1" stroke="black" d="M 346 33 328 37"/>
<path stroke-width="1" stroke="black" d="M 328 37 259 54"/>
<path stroke-width="1" stroke="black" d="M 328 37 346 33"/>
<path stroke-width="1" stroke="black" d="M 328 37 394 23"/>
<path stroke-width="1" stroke="black" d="M 420 20 394 23"/>
<path stroke-width="1" stroke="black" d="M 137 115 112 159"/>
<path stroke-width="1" stroke="black" d="M 120 112 137 115"/>
<path stroke-width="1" stroke="black" d="M 112 159 137 115"/>
<path stroke-width="1" stroke="black" d="M 112 159 124 160"/>
<path stroke-width="1" stroke="black" d="M 30 312 20 320"/>
<path stroke-width="1" stroke="black" d="M 30 312 63 283"/>
<path stroke-width="1" stroke="black" d="M 67 294 63 283"/>
<path stroke-width="1" stroke="black" d="M 63 283 30 312"/>
<path stroke-width="1" stroke="black" d="M 63 283 67 294"/>
<path stroke-width="1" stroke="black" d="M 63 283 90 247"/>
<path stroke-width="1" stroke="black" d="M 103 251 90 247"/>
<path stroke-width="1" stroke="black" d="M 394 23 328 37"/>
<path stroke-width="1" stroke="black" d="M 90 247 63 283"/>
<path stroke-width="1" stroke="black" d="M 90 247 102 203"/>
<path stroke-width="1" stroke="black" d="M 94 199 102 203"/>
<path stroke-width="1" stroke="black" d="M 102 203 90 247"/>
<path stroke-width="1" stroke="black" d="M 102 203 94 199"/>
<path stroke-width="1" stroke="black" d="M 102 203 112 159"/>
<path stroke-width="1" stroke="black" d="M 124 160 112 159"/>
<path stroke-width="1" stroke="black" d="M 112 159 102 203"/>
<path stroke-width="1" stroke="black" d="M 90 247 103 251"/>
<path stroke-width="1" stroke="black" d="M 394 23 420 20"/>
<circle cx="20" cy="320" r="20.0" style="fill:red;stroke:black;stroke-width:1.0"/>
<circle cx="30" cy="312" r="20.0" style="fill:red;stroke:black;stroke-width:1.0"/>
<circle cx="67" cy="294" r="20.0" style="fill:green;stroke:black;stroke-width:1.0"/>
<circle cx="63" cy="283" r="20.0" style="fill:green;stroke:black;stroke-width:1.0"/>
<circle cx="103" cy="251" r="20.0" style="fill:orange;stroke:black;stroke-width:1.0"/>
<circle cx="90" cy="247" r="20.0" style="fill:orange;stroke:black;stroke-width:1.0"/>
<circle cx="94" cy="199" r="20.0" style="fill:purple;stroke:black;stroke-width:1.0"/>
<circle cx="102" cy="203" r="20.0" style="fill:purple;stroke:black;stroke-width:1.0"/>
<circle cx="124" cy="160" r="20.0" style="fill:yellow;stroke:black;stroke-width:1.0"/>
<circle cx="112" cy="159" r="20.0" style="fill:yellow;stroke:black;stroke-width:1.0"/>
<circle cx="120" cy="112" r="20.0" style="fill:fuchsia;stroke:black;stroke-width:1.0"/>
<circle cx="137" cy="115" r="20.0" style="fill:fuchsia;stroke:black;stroke-width:1.0"/>
<circle cx="176" cy="74" r="20.0" style="fill:olive;stroke:black;stroke-width:1.0"/>
<circle cx="188" cy="80" r="20.0" style="fill:olive;stroke:black;stroke-width:1.0"/>
<circle cx="251" cy="47" r="20.0" style="fill:aqua;stroke:black;stroke-width:1.0"/>
<circle cx="259" cy="54" r="20.0" style="fill:aqua;stroke:black;stroke-width:1.0"/>
<circle cx="346" cy="33" r="20.0" style="fill:blue;stroke:black;stroke-width:1.0"/>
<circle cx="328" cy="37" r="20.0" style="fill:blue;stroke:black;stroke-width:1.0"/>
<circle cx="420" cy="20" r="20.0" style="fill:blue;stroke:black;stroke-width:1.0"/>
<circle cx="394" cy="23" r="20.0" style="fill:blue;stroke:black;stroke-width:1.0"/>
</svg>
