<svg width="440" height="340" xmlns="http://www.w3.org/2000/svg">
<path stroke-width="1" stroke="black" d="M 20 320 40 310"/>
<path stroke-width="1" stroke="black" d="M 344 155 387 151"/>
<path stroke-width="1" stroke="black" d="M 344 155 280 123"/>
<path stroke-width="1" stroke="black" d="M 236 127 280 123"/>
<path stroke-width="1" stroke="black" d="M 280 123 344 155"/>
<path stroke-width="1" stroke="black" d="M 280 123 236 127"/>
<path stroke-width="1" stroke="black" d="M 280 123 271 91"/>
<path stroke-width="1" stroke="black" d="M 307 93 271 91"/>
<path stroke-width="1" stroke="black" d="M 271 91 280 123"/>
<path stroke-width="1" stroke="black" d="M 271 91 307 93"/>
<path stroke-width="1" stroke="black" d="M 271 91 270 59"/>
<path stroke-width="1" stroke="black" d="M 270 52 270 59"/>
<path stroke-width="1" stroke="black" d="M 270 59 271 91"/>
<path stroke-width="1" stroke="black" d="M 270 59 270 52"/>
<path stroke-width="1" stroke="black" d="M 270 59 270 31"/>
<path stroke-width="1" stroke="black" d="M 271 20 270 31"/>
<path stroke-width="1" stroke="black" d="M 344 155 370 187"/>
<path stroke-width="1" stroke="black" d="M 387 151 344 155"/>
<path stroke-width="1" stroke="black" d="M 370 187 344 155"/>
<path stroke-width="1" stroke="black" d="M 370 187 420 186"/>
<path stroke-width="1" stroke="black" d="M 40 310 20 320"/>
<path stroke-width="1" stroke="black" d="M 40 310 108 285"/>
<path stroke-width="1" stroke="black" d="M 73 286 108 285"/>
<path stroke-width="1" stroke="black" d="M 108 285 40 310"/>
<path stroke-width="1" stroke="black" d="M 108 285 73 286"/>
<path stroke-width="1" stroke="black" d="M 108 285 210 253"/>
<path stroke-width="1" stroke="black" d="M 238 259 210 253"/>
<path stroke-width="1" stroke="black" d="M 270 31 270 59"/>
<path stroke-width="1" stroke="black" d="M 210 253 108 285"/>
<path stroke-width="1" stroke="black" d="M 210 253 312 222"/>
<path stroke-width="1" stroke="black" d="M 355 223 312 222"/>
<path stroke-width="1" stroke="black" d="M 312 222 210 253"/>
<path stroke-width="1" stroke="black" d="M 312 222 355 223"/>
<path stroke-width="1" stroke="black" d="M 312 222 370 187"/>
<path stroke-width="1" stroke="black" d="M 420 186 370 187"/>
<path stroke-width="1" stroke="black" d="M 370 187 312 222"/>
<path stroke-width="1" stroke="black" d="M 210 253 238 259"/>
<path stroke-width="1" stroke="black" d="M 270 31 271 20"/>
<circle cx="20" cy="320" r="7.0" style="fill:red;stroke:black;stroke-width:1.0"/>
<circle cx="40" cy="310" r="7.0" style="fill:red;stroke:black;stroke-width:1.0"/>
<circle cx="73" cy="286" r="7.0" style="fill:green;stroke:black;stroke-width:1.0"/>
<circle cx="108" cy="285" r="7.0" style="fill:green;stroke:black;stroke-width:1.0"/>
<circle cx="238" cy="259" r="7.0" style="fill:orange;stroke:black;stroke-width:1.0"/>
<circle cx="210" cy="253" r="7.0" style="fill:orange;stroke:black;stroke-width:1.0"/>
<circle cx="355" cy="223" r="7.0" style="fill:purple;stroke:black;stroke-width:1.0"/>
<circle cx="312" cy="222" r="7.0" style="fill:purple;stroke:black;stroke-width:1.0"/>
<circle cx="420" cy="186" r="7.0" style="fill:yellow;stroke:black;stroke-width:1.0"/>
<circle cx="370" cy="187" r="7.0" style="fill:yellow;stroke:black;stroke-width:1.0"/>
<circle cx="387" cy="151" r="7.0" style="fill:fuchsia;stroke:black;stroke-width:1.0"/>
<circle cx="344" cy="155" r="7.0" style="fill:fuchsia;stroke:black;stroke-width:1.0"/>
<circle cx="236" cy="127" r="7.0" style="fill:olive;stroke:black;stroke-width:1.0"/>
<circle cx="280" cy="123" r="7.0" style="fill:olive;stroke:black;stroke-width:1.0"/>
<circle cx="307" cy="93" r="7.0" style="fill:aqua;stroke:black;stroke-width:1.0"/>
<circle cx="271" cy="91" r="7.0" style="fill:aqua;stroke:black;stroke-width:1.0"/>
<circle cx="270" cy="52" r="7.0" style="fill:blue;stroke:black;stroke-width:1.0"/>
<circle cx="270" cy="59" r="7.0" style="fill:blue;stroke:black;stroke-width:1.0"/>
<circle cx="271" cy="20" r="7.0" style="fill:blue;stroke:black;stroke-width:1.0"/>
<circle cx="270" cy="31" r="7.0" style="fill:blue;stroke:black;stroke-width:1.0"/>
</svg>
