<svg width="440" height="340" xmlns="http://www.w3.org/2000/svg">
<path stroke-width="20.0" stroke="black" d="M 300 320 291 310"/>
<path stroke-width="20.0" stroke="black" d="M 129 157 104 155"/>
<path stroke-width="0.5" stroke="black" d="M 129 157 215 125"/>
<path stroke-width="20.0" stroke="black" d="M 239 129 215 125"/>
<path stroke-width="0.5" stroke="black" d="M 215 125 129 157"/>
<path stroke-width="20.0" stroke="black" d="M 215 125 239 129"/>
<path stroke-width="0.5" stroke="black" d="M 215 125 287 91"/>
<path stroke-width="20.0" stroke="black" d="M 319 91 287 91"/>
<path stroke-width="0.5" stroke="black" d="M 287 91 215 125"/>
<path stroke-width="20.0" stroke="black" d="M 287 91 319 91"/>
<path stroke-width="0.5" stroke="black" d="M 287 91 335 55"/>
<path stroke-width="20.0" stroke="black" d="M 320 49 335 55"/>
<path stroke-width="0.5" stroke="black" d="M 335 55 287 91"/>
<path stroke-width="20.0" stroke="black" d="M 335 55 320 49"/>
<path stroke-width="0.5" stroke="black" d="M 335 55 397 31"/>
<path stroke-width="8.857142857142858" stroke="black" d="M 420 20 397 31"/>
<path stroke-width="0.5" stroke="black" d="M 129 157 63 188"/>
<path stroke-width="20.0" stroke="black" d="M 104 155 129 157"/>
<path stroke-width="0.5" stroke="black" d="M 63 188 129 157"/>
<path stroke-width="20.0" stroke="black" d="M 63 188 20 187"/>
<path stroke-width="20.0" stroke="black" d="M 291 310 300 320"/>
<path stroke-width="0.5" stroke="black" d="M 291 310 261 279"/>
<path stroke-width="20.0" stroke="black" d="M 292 283 261 279"/>
<path stroke-width="0.5" stroke="black" d="M 261 279 291 310"/>
<path stroke-width="20.0" stroke="black" d="M 261 279 292 283"/>
<path stroke-width="0.5" stroke="black" d="M 261 279 198 248"/>
<path stroke-width="20.0" stroke="black" d="M 225 245 198 248"/>
<path stroke-width="0.5" stroke="black" d="M 397 31 335 55"/>
<path stroke-width="0.5" stroke="black" d="M 198 248 261 279"/>
<path stroke-width="0.5" stroke="black" d="M 198 248 119 217"/>
<path stroke-width="20.0" stroke="black" d="M 103 212 119 217"/>
<path stroke-width="0.5" stroke="black" d="M 119 217 198 248"/>
<path stroke-width="20.0" stroke="black" d="M 119 217 103 212"/>
<path stroke-width="0.5" stroke="black" d="M 119 217 63 188"/>
<path stroke-width="20.0" stroke="black" d="M 20 187 63 188"/>
<path stroke-width="0.5" stroke="black" d="M 63 188 119 217"/>
<path stroke-width="20.0" stroke="black" d="M 198 248 225 245"/>
<path stroke-width="8.857142857142858" stroke="black" d="M 397 31 420 20"/>
<circle cx="300" cy="320" r="7.0" style="fill:red;stroke:black;stroke-width:1.0"/>
<circle cx="291" cy="310" r="7.0" style="fill:red;stroke:black;stroke-width:1.0"/>
<circle cx="292" cy="283" r="7.0" style="fill:green;stroke:black;stroke-width:1.0"/>
<circle cx="261" cy="279" r="7.0" style="fill:green;stroke:black;stroke-width:1.0"/>
<circle cx="225" cy="245" r="7.0" style="fill:orange;stroke:black;stroke-width:1.0"/>
<circle cx="198" cy="248" r="7.0" style="fill:orange;stroke:black;stroke-width:1.0"/>
<circle cx="103" cy="212" r="7.0" style="fill:purple;stroke:black;stroke-width:1.0"/>
<circle cx="119" cy="217" r="7.0" style="fill:purple;stroke:black;stroke-width:1.0"/>
<circle cx="20" cy="187" r="7.0" style="fill:yellow;stroke:black;stroke-width:1.0"/>
<circle cx="63" cy="188" r="7.0" style="fill:yellow;stroke:black;stroke-width:1.0"/>
<circle cx="104" cy="155" r="7.0" style="fill:fuchsia;stroke:black;stroke-width:1.0"/>
<circle cx="129" cy="157" r="7.0" style="fill:fuchsia;stroke:black;stroke-width:1.0"/>
<circle cx="239" cy="129" r="7.0" style="fill:olive;stroke:black;stroke-width:1.0"/>
<circle cx="215" cy="125" r="7.0" style="fill:olive;stroke:black;stroke-width:1.0"/>
<circle cx="319" cy="91" r="7.0" style="fill:aqua;stroke:black;stroke-width:1.0"/>
<circle cx="287" cy="91" r="7.0" style="fill:aqua;stroke:black;stroke-width:1.0"/>
<circle cx="320" cy="49" r="7.0" style="fill:blue;stroke:black;stroke-width:1.0"/>
<circle cx="335" cy="55" r="7.0" style="fill:blue;stroke:black;stroke-width:1.0"/>
<circle cx="420" cy="20" r="7.0" style="fill:blue;stroke:black;stroke-width:1.0"/>
<circle cx="397" cy="31" r="7.0" style="fill:blue;stroke:black;stroke-width:1.0"/>
</svg>
