<svg width="440" height="340" xmlns="http://www.w3.org/2000/svg">
<path stroke-width="1" stroke="black" d="M 223 172 60 264"/>
<path stroke-width="1" stroke="black" d="M 255 20 420 221"/>
<path stroke-width="1" stroke="black" d="M 255 20 120 35"/>
<path stroke-width="1" stroke="black" d="M 255 20 60 264"/>
<path stroke-width="1" stroke="black" d="M 255 20 223 172"/>
<path stroke-width="1" stroke="black" d="M 374 67 20 157"/>
<path stroke-width="1" stroke="black" d="M 374 67 364 286"/>
<path stroke-width="1" stroke="black" d="M 255 20 168 320"/>
<path stroke-width="1" stroke="black" d="M 374 67 255 20"/>
<path stroke-width="1" stroke="black" d="M 374 67 420 221"/>
<path stroke-width="1" stroke="black" d="M 374 67 120 35"/>
<path stroke-width="1" stroke="black" d="M 374 67 60 264"/>
<path stroke-width="1" stroke="black" d="M 374 67 223 172"/>
<path stroke-width="1" stroke="black" d="M 168 320 20 157"/>
<path stroke-width="1" stroke="black" d="M 168 320 364 286"/>
<path stroke-width="1" stroke="black" d="M 374 67 168 320"/>
<path stroke-width="1" stroke="black" d="M 168 320 255 20"/>
<path stroke-width="1" stroke="black" d="M 255 20 374 67"/>
<path stroke-width="1" stroke="black" d="M 255 20 20 157"/>
<path stroke-width="1" stroke="black" d="M 20 157 374 67"/>
<path stroke-width="1" stroke="black" d="M 20 157 168 320"/>
<path stroke-width="1" stroke="black" d="M 20 157 420 221"/>
<path stroke-width="1" stroke="black" d="M 20 157 120 35"/>
<path stroke-width="1" stroke="black" d="M 20 157 60 264"/>
<path stroke-width="1" stroke="black" d="M 20 157 223 172"/>
<path stroke-width="1" stroke="black" d="M 255 20 364 286"/>
<path stroke-width="1" stroke="black" d="M 364 286 20 157"/>
<path stroke-width="1" stroke="black" d="M 364 286 374 67"/>
<path stroke-width="1" stroke="black" d="M 364 286 168 320"/>
<path stroke-width="1" stroke="black" d="M 364 286 420 221"/>
<path stroke-width="1" stroke="black" d="M 364 286 120 35"/>
<path stroke-width="1" stroke="black" d="M 364 286 60 264"/>
<path stroke-width="1" stroke="black" d="M 364 286 223 172"/>
<path stroke-width="1" stroke="black" d="M 364 286 255 20"/>
<path stroke-width="1" stroke="black" d="M 168 320 374 67"/>
<path stroke-width="1" stroke="black" d="M 168 320 420 221"/>
<path stroke-width="1" stroke="black" d="M 168 320 120 35"/>
<path stroke-width="1" stroke="black" d="M 60 264 364 286"/>
<path stroke-width="1" stroke="black" d="M 60 264 255 20"/>
<path stroke-width="1" stroke="black" d="M 60 264 374 67"/>
<path stroke-width="1" stroke="black" d="M 60 264 168 320"/>
<path stroke-width="1" stroke="black" d="M 60 264 420 221"/>
<path stroke-width="1" stroke="black" d="M 60 264 120 35"/>
<path stroke-width="1" stroke="black" d="M 60 264 20 157"/>
<path stroke-width="1" stroke="black" d="M 60 264 223 172"/>
<path stroke-width="1" stroke="black" d="M 223 172 364 286"/>
<path stroke-width="1" stroke="black" d="M 223 172 255 20"/>
<path stroke-width="1" stroke="black" d="M 223 172 374 67"/>
<path stroke-width="1" stroke="black" d="M 223 172 168 320"/>
<path stroke-width="1" stroke="black" d="M 223 172 420 221"/>
<path stroke-width="1" stroke="black" d="M 223 172 120 35"/>
<path stroke-width="1" stroke="black" d="M 223 172 20 157"/>
<path stroke-width="1" stroke="black" d="M 120 35 223 172"/>
<path stroke-width="1" stroke="black" d="M 120 35 60 264"/>
<path stroke-width="1" stroke="black" d="M 120 35 420 221"/>
<path stroke-width="1" stroke="black" d="M 168 320 60 264"/>
<path stroke-width="1" stroke="black" d="M 168 320 223 172"/>
<path stroke-width="1" stroke="black" d="M 420 221 20 157"/>
<path stroke-width="1" stroke="black" d="M 420 221 364 286"/>
<path stroke-width="1" stroke="black" d="M 420 221 255 20"/>
<path stroke-width="1" stroke="black" d="M 420 221 374 67"/>
<path stroke-width="1" stroke="black" d="M 420 221 168 320"/>
<path stroke-width="1" stroke="black" d="M 420 221 120 35"/>
<path stroke-width="1" stroke="black" d="M 420 221 60 264"/>
<path stroke-width="1" stroke="black" d="M 420 221 223 172"/>
<path stroke-width="1" stroke="black" d="M 120 35 20 157"/>
<path stroke-width="1" stroke="black" d="M 120 35 364 286"/>
<path stroke-width="1" stroke="black" d="M 120 35 255 20"/>
<path stroke-width="1" stroke="black" d="M 120 35 374 67"/>
<path stroke-width="1" stroke="black" d="M 120 35 168 320"/>
<path stroke-width="1" stroke="black" d="M 20 157 255 20"/>
<path stroke-width="1" stroke="black" d="M 20 157 364 286"/>
<circle cx="223" cy="172" r="7.0" style="fill:gray;stroke:black;stroke-width:1.0"/>
<circle cx="60" cy="264" r="7.0" style="fill:gray;stroke:black;stroke-width:1.0"/>
<circle cx="120" cy="35" r="7.0" style="fill:gray;stroke:black;stroke-width:1.0"/>
<circle cx="420" cy="221" r="7.0" style="fill:gray;stroke:black;stroke-width:1.0"/>
<circle cx="168" cy="320" r="7.0" style="fill:gray;stroke:black;stroke-width:1.0"/>
<circle cx="374" cy="67" r="7.0" style="fill:gray;stroke:black;stroke-width:1.0"/>
<circle cx="255" cy="20" r="7.0" style="fill:gray;stroke:black;stroke-width:1.0"/>
<circle cx="364" cy="286" r="7.0" style="fill:gray;stroke:black;stroke-width:1.0"/>
<circle cx="20" cy="157" r="7.0" style="fill:gray;stroke:black;stroke-width:1.0"/>
</svg>
