<svg width="440" height="340" xmlns="http://www.w3.org/2000/svg">
<path stroke-width="11.333333333333334" stroke="black" d="M 420 254 311 221"/>
<path stroke-width="0.5" stroke="black" d="M 116 122 200 88"/>
<path stroke-width="0.5" stroke="black" d="M 116 122 311 221"/>
<path stroke-width="20.0" stroke="black" d="M 46 80 116 122"/>
<path stroke-width="0.5" stroke="black" d="M 109 234 207 172"/>
<path stroke-width="0.5" stroke="black" d="M 109 234 316 169"/>
<path stroke-width="0.5" stroke="black" d="M 109 234 116 122"/>
<path stroke-width="20.0" stroke="black" d="M 109 234 53 278"/>
<path stroke-width="0.5" stroke="black" d="M 109 234 102 174"/>
<path stroke-width="0.5" stroke="black" d="M 109 234 246 249"/>
<path stroke-width="0.5" stroke="black" d="M 109 234 280 104"/>
<path stroke-width="0.5" stroke="black" d="M 109 234 180 254"/>
<path stroke-width="0.5" stroke="black" d="M 109 234 200 88"/>
<path stroke-width="0.5" stroke="black" d="M 109 234 311 221"/>
<path stroke-width="20.0" stroke="black" d="M 53 278 109 234"/>
<path stroke-width="0.5" stroke="black" d="M 102 174 207 172"/>
<path stroke-width="0.5" stroke="black" d="M 102 174 316 169"/>
<path stroke-width="0.5" stroke="black" d="M 102 174 116 122"/>
<path stroke-width="0.5" stroke="black" d="M 102 174 109 234"/>
<path stroke-width="20.0" stroke="black" d="M 102 174 20 174"/>
<path stroke-width="0.5" stroke="black" d="M 102 174 246 249"/>
<path stroke-width="0.5" stroke="black" d="M 102 174 280 104"/>
<path stroke-width="0.5" stroke="black" d="M 102 174 180 254"/>
<path stroke-width="0.5" stroke="black" d="M 102 174 200 88"/>
<path stroke-width="0.5" stroke="black" d="M 116 122 180 254"/>
<path stroke-width="0.5" stroke="black" d="M 116 122 280 104"/>
<path stroke-width="0.5" stroke="black" d="M 116 122 246 249"/>
<path stroke-width="0.5" stroke="black" d="M 116 122 102 174"/>
<path stroke-width="0.5" stroke="black" d="M 207 172 116 122"/>
<path stroke-width="0.5" stroke="black" d="M 207 172 109 234"/>
<path stroke-width="0.5" stroke="black" d="M 207 172 102 174"/>
<path stroke-width="0.5" stroke="black" d="M 207 172 246 249"/>
<path stroke-width="0.5" stroke="black" d="M 207 172 280 104"/>
<path stroke-width="0.5" stroke="black" d="M 207 172 180 254"/>
<path stroke-width="0.5" stroke="black" d="M 207 172 200 88"/>
<path stroke-width="0.5" stroke="black" d="M 207 172 311 221"/>
<path stroke-width="11.333333333333334" stroke="black" d="M 272 134 207 172"/>
<path stroke-width="0.5" stroke="black" d="M 316 169 207 172"/>
<path stroke-width="20.0" stroke="black" d="M 316 169 389 145"/>
<path stroke-width="0.5" stroke="black" d="M 102 174 311 221"/>
<path stroke-width="0.5" stroke="black" d="M 316 169 116 122"/>
<path stroke-width="0.5" stroke="black" d="M 316 169 102 174"/>
<path stroke-width="0.5" stroke="black" d="M 316 169 246 249"/>
<path stroke-width="0.5" stroke="black" d="M 316 169 280 104"/>
<path stroke-width="0.5" stroke="black" d="M 316 169 180 254"/>
<path stroke-width="0.5" stroke="black" d="M 316 169 200 88"/>
<path stroke-width="0.5" stroke="black" d="M 316 169 311 221"/>
<path stroke-width="20.0" stroke="black" d="M 389 145 316 169"/>
<path stroke-width="0.5" stroke="black" d="M 116 122 207 172"/>
<path stroke-width="0.5" stroke="black" d="M 116 122 316 169"/>
<path stroke-width="20.0" stroke="black" d="M 116 122 46 80"/>
<path stroke-width="0.5" stroke="black" d="M 116 122 109 234"/>
<path stroke-width="0.5" stroke="black" d="M 316 169 109 234"/>
<path stroke-width="20.0" stroke="black" d="M 20 174 102 174"/>
<path stroke-width="0.5" stroke="black" d="M 246 249 207 172"/>
<path stroke-width="0.5" stroke="black" d="M 246 249 316 169"/>
<path stroke-width="0.5" stroke="black" d="M 180 254 200 88"/>
<path stroke-width="0.5" stroke="black" d="M 180 254 311 221"/>
<path stroke-width="20.0" stroke="black" d="M 172 320 180 254"/>
<path stroke-width="0.5" stroke="black" d="M 200 88 207 172"/>
<path stroke-width="0.5" stroke="black" d="M 200 88 316 169"/>
<path stroke-width="0.5" stroke="black" d="M 200 88 116 122"/>
<path stroke-width="0.5" stroke="black" d="M 200 88 109 234"/>
<path stroke-width="0.5" stroke="black" d="M 200 88 102 174"/>
<path stroke-width="0.5" stroke="black" d="M 200 88 246 249"/>
<path stroke-width="0.5" stroke="black" d="M 200 88 280 104"/>
<path stroke-width="0.5" stroke="black" d="M 200 88 180 254"/>
<path stroke-width="20.0" stroke="black" d="M 180 254 172 320"/>
<path stroke-width="20.0" stroke="black" d="M 200 88 202 20"/>
<path stroke-width="20.0" stroke="black" d="M 202 20 200 88"/>
<path stroke-width="0.5" stroke="black" d="M 311 221 207 172"/>
<path stroke-width="0.5" stroke="black" d="M 311 221 316 169"/>
<path stroke-width="0.5" stroke="black" d="M 311 221 116 122"/>
<path stroke-width="0.5" stroke="black" d="M 311 221 109 234"/>
<path stroke-width="0.5" stroke="black" d="M 311 221 102 174"/>
<path stroke-width="0.5" stroke="black" d="M 311 221 246 249"/>
<path stroke-width="0.5" stroke="black" d="M 311 221 280 104"/>
<path stroke-width="0.5" stroke="black" d="M 311 221 180 254"/>
<path stroke-width="0.5" stroke="black" d="M 311 221 200 88"/>
<path stroke-width="11.333333333333334" stroke="black" d="M 311 221 420 254"/>
<path stroke-width="0.5" stroke="black" d="M 200 88 311 221"/>
<path stroke-width="0.5" stroke="black" d="M 207 172 316 169"/>
<path stroke-width="0.5" stroke="black" d="M 180 254 280 104"/>
<path stroke-width="0.5" stroke="black" d="M 180 254 102 174"/>
<path stroke-width="0.5" stroke="black" d="M 246 249 116 122"/>
<path stroke-width="0.5" stroke="black" d="M 246 249 109 234"/>
<path stroke-width="0.5" stroke="black" d="M 246 249 102 174"/>
<path stroke-width="20.0" stroke="black" d="M 246 249 282 309"/>
<path stroke-width="0.5" stroke="black" d="M 246 249 280 104"/>
<path stroke-width="0.5" stroke="black" d="M 246 249 180 254"/>
<path stroke-width="0.5" stroke="black" d="M 246 249 200 88"/>
<path stroke-width="0.5" stroke="black" d="M 246 249 311 221"/>
<path stroke-width="20.0" stroke="black" d="M 282 309 246 249"/>
<path stroke-width="0.5" stroke="black" d="M 280 104 207 172"/>
<path stroke-width="0.5" stroke="black" d="M 280 104 316 169"/>
<path stroke-width="0.5" stroke="black" d="M 180 254 246 249"/>
<path stroke-width="0.5" stroke="black" d="M 280 104 116 122"/>
<path stroke-width="0.5" stroke="black" d="M 280 104 102 174"/>
<path stroke-width="0.5" stroke="black" d="M 280 104 246 249"/>
<path stroke-width="20.0" stroke="black" d="M 280 104 324 57"/>
<path stroke-width="0.5" stroke="black" d="M 280 104 180 254"/>
<path stroke-width="0.5" stroke="black" d="M 280 104 200 88"/>
<path stroke-width="0.5" stroke="black" d="M 280 104 311 221"/>
<path stroke-width="20.0" stroke="black" d="M 324 57 280 104"/>
<path stroke-width="0.5" stroke="black" d="M 180 254 207 172"/>
<path stroke-width="0.5" stroke="black" d="M 180 254 316 169"/>
<path stroke-width="0.5" stroke="black" d="M 180 254 116 122"/>
<path stroke-width="0.5" stroke="black" d="M 180 254 109 234"/>
<path stroke-width="0.5" stroke="black" d="M 280 104 109 234"/>
<path stroke-width="11.333333333333334" stroke="black" d="M 207 172 272 134"/>
<circle cx="420" cy="254" r="7.0" style="fill:gray;stroke:black;stroke-width:1.0"/>
<circle cx="311" cy="221" r="7.0" style="fill:gray;stroke:black;stroke-width:1.0"/>
<circle cx="202" cy="20" r="7.0" style="fill:gray;stroke:black;stroke-width:1.0"/>
<circle cx="200" cy="88" r="7.0" style="fill:gray;stroke:black;stroke-width:1.0"/>
<circle cx="172" cy="320" r="7.0" style="fill:gray;stroke:black;stroke-width:1.0"/>
<circle cx="180" cy="254" r="7.0" style="fill:gray;stroke:black;stroke-width:1.0"/>
<circle cx="324" cy="57" r="7.0" style="fill:gray;stroke:black;stroke-width:1.0"/>
<circle cx="280" cy="104" r="7.0" style="fill:gray;stroke:black;stroke-width:1.0"/>
<circle cx="282" cy="309" r="7.0" style="fill:gray;stroke:black;stroke-width:1.0"/>
<circle cx="246" cy="249" r="7.0" style="fill:gray;stroke:black;stroke-width:1.0"/>
<circle cx="20" cy="174" r="7.0" style="fill:gray;stroke:black;stroke-width:1.0"/>
<circle cx="102" cy="174" r="7.0" style="fill:gray;stroke:black;stroke-width:1.0"/>
<circle cx="53" cy="278" r="7.0" style="fill:gray;stroke:black;stroke-width:1.0"/>
<circle cx="109" cy="234" r="7.0" style="fill:gray;stroke:black;stroke-width:1.0"/>
<circle cx="46" cy="80" r="7.0" style="fill:gray;stroke:black;stroke-width:1.0"/>
<circle cx="116" cy="122" r="7.0" style="fill:gray;stroke:black;stroke-width:1.0"/>
<circle cx="389" cy="145" r="7.0" style="fill:gray;stroke:black;stroke-width:1.0"/>
<circle cx="316" cy="169" r="7.0" style="fill:gray;stroke:black;stroke-width:1.0"/>
<circle cx="272" cy="134" r="7.0" style="fill:gray;stroke:black;stroke-width:1.0"/>
<circle cx="207" cy="172" r="7.0" style="fill:gray;stroke:black;stroke-width:1.0"/>
</svg>
