<svg width="440" height="340" xmlns="http://www.w3.org/2000/svg">
<path stroke-width="1" stroke="black" d="M 20 183 130 175"/>
<path stroke-width="1" stroke="black" d="M 257 84 246 173"/>
<path stroke-width="1" stroke="black" d="M 257 84 130 175"/>
<path stroke-width="1" stroke="black" d="M 283 22 257 84"/>
<path stroke-width="1" stroke="black" d="M 144 122 292 240"/>
<path stroke-width="1" stroke="black" d="M 144 122 346 169"/>
<path stroke-width="1" stroke="black" d="M 144 122 257 84"/>
<path stroke-width="1" stroke="black" d="M 144 122 74 90"/>
<path stroke-width="1" stroke="black" d="M 144 122 159 229"/>
<path stroke-width="1" stroke="black" d="M 144 122 318 110"/>
<path stroke-width="1" stroke="black" d="M 144 122 225 255"/>
<path stroke-width="1" stroke="black" d="M 144 122 193 81"/>
<path stroke-width="1" stroke="black" d="M 144 122 246 173"/>
<path stroke-width="1" stroke="black" d="M 144 122 130 175"/>
<path stroke-width="1" stroke="black" d="M 74 90 144 122"/>
<path stroke-width="1" stroke="black" d="M 159 229 292 240"/>
<path stroke-width="1" stroke="black" d="M 159 229 346 169"/>
<path stroke-width="1" stroke="black" d="M 159 229 257 84"/>
<path stroke-width="1" stroke="black" d="M 159 229 144 122"/>
<path stroke-width="1" stroke="black" d="M 159 229 104 275"/>
<path stroke-width="1" stroke="black" d="M 159 229 318 110"/>
<path stroke-width="1" stroke="black" d="M 159 229 225 255"/>
<path stroke-width="1" stroke="black" d="M 159 229 193 81"/>
<path stroke-width="1" stroke="black" d="M 159 229 246 173"/>
<path stroke-width="1" stroke="black" d="M 257 84 193 81"/>
<path stroke-width="1" stroke="black" d="M 257 84 225 255"/>
<path stroke-width="1" stroke="black" d="M 257 84 318 110"/>
<path stroke-width="1" stroke="black" d="M 257 84 159 229"/>
<path stroke-width="1" stroke="black" d="M 292 240 257 84"/>
<path stroke-width="1" stroke="black" d="M 292 240 144 122"/>
<path stroke-width="1" stroke="black" d="M 292 240 159 229"/>
<path stroke-width="1" stroke="black" d="M 292 240 318 110"/>
<path stroke-width="1" stroke="black" d="M 292 240 225 255"/>
<path stroke-width="1" stroke="black" d="M 292 240 193 81"/>
<path stroke-width="1" stroke="black" d="M 292 240 246 173"/>
<path stroke-width="1" stroke="black" d="M 292 240 130 175"/>
<path stroke-width="1" stroke="black" d="M 364 308 292 240"/>
<path stroke-width="1" stroke="black" d="M 346 169 292 240"/>
<path stroke-width="1" stroke="black" d="M 346 169 420 188"/>
<path stroke-width="1" stroke="black" d="M 159 229 130 175"/>
<path stroke-width="1" stroke="black" d="M 346 169 257 84"/>
<path stroke-width="1" stroke="black" d="M 346 169 159 229"/>
<path stroke-width="1" stroke="black" d="M 346 169 318 110"/>
<path stroke-width="1" stroke="black" d="M 346 169 225 255"/>
<path stroke-width="1" stroke="black" d="M 346 169 193 81"/>
<path stroke-width="1" stroke="black" d="M 346 169 246 173"/>
<path stroke-width="1" stroke="black" d="M 346 169 130 175"/>
<path stroke-width="1" stroke="black" d="M 420 188 346 169"/>
<path stroke-width="1" stroke="black" d="M 257 84 292 240"/>
<path stroke-width="1" stroke="black" d="M 257 84 346 169"/>
<path stroke-width="1" stroke="black" d="M 257 84 283 22"/>
<path stroke-width="1" stroke="black" d="M 257 84 144 122"/>
<path stroke-width="1" stroke="black" d="M 346 169 144 122"/>
<path stroke-width="1" stroke="black" d="M 104 275 159 229"/>
<path stroke-width="1" stroke="black" d="M 318 110 292 240"/>
<path stroke-width="1" stroke="black" d="M 318 110 346 169"/>
<path stroke-width="1" stroke="black" d="M 193 81 246 173"/>
<path stroke-width="1" stroke="black" d="M 193 81 130 175"/>
<path stroke-width="1" stroke="black" d="M 166 20 193 81"/>
<path stroke-width="1" stroke="black" d="M 246 173 292 240"/>
<path stroke-width="1" stroke="black" d="M 246 173 346 169"/>
<path stroke-width="1" stroke="black" d="M 246 173 257 84"/>
<path stroke-width="1" stroke="black" d="M 246 173 144 122"/>
<path stroke-width="1" stroke="black" d="M 246 173 159 229"/>
<path stroke-width="1" stroke="black" d="M 246 173 318 110"/>
<path stroke-width="1" stroke="black" d="M 246 173 225 255"/>
<path stroke-width="1" stroke="black" d="M 246 173 193 81"/>
<path stroke-width="1" stroke="black" d="M 193 81 166 20"/>
<path stroke-width="1" stroke="black" d="M 246 173 299 202"/>
<path stroke-width="1" stroke="black" d="M 299 202 246 173"/>
<path stroke-width="1" stroke="black" d="M 130 175 292 240"/>
<path stroke-width="1" stroke="black" d="M 130 175 346 169"/>
<path stroke-width="1" stroke="black" d="M 130 175 257 84"/>
<path stroke-width="1" stroke="black" d="M 130 175 144 122"/>
<path stroke-width="1" stroke="black" d="M 130 175 159 229"/>
<path stroke-width="1" stroke="black" d="M 130 175 318 110"/>
<path stroke-width="1" stroke="black" d="M 130 175 225 255"/>
<path stroke-width="1" stroke="black" d="M 130 175 193 81"/>
<path stroke-width="1" stroke="black" d="M 130 175 246 173"/>
<path stroke-width="1" stroke="black" d="M 130 175 20 183"/>
<path stroke-width="1" stroke="black" d="M 246 173 130 175"/>
<path stroke-width="1" stroke="black" d="M 292 240 346 169"/>
<path stroke-width="1" stroke="black" d="M 193 81 225 255"/>
<path stroke-width="1" stroke="black" d="M 193 81 159 229"/>
<path stroke-width="1" stroke="black" d="M 318 110 257 84"/>
<path stroke-width="1" stroke="black" d="M 318 110 144 122"/>
<path stroke-width="1" stroke="black" d="M 318 110 159 229"/>
<path stroke-width="1" stroke="black" d="M 318 110 384 73"/>
<path stroke-width="1" stroke="black" d="M 318 110 225 255"/>
<path stroke-width="1" stroke="black" d="M 318 110 193 81"/>
<path stroke-width="1" stroke="black" d="M 318 110 246 173"/>
<path stroke-width="1" stroke="black" d="M 318 110 130 175"/>
<path stroke-width="1" stroke="black" d="M 384 73 318 110"/>
<path stroke-width="1" stroke="black" d="M 225 255 292 240"/>
<path stroke-width="1" stroke="black" d="M 225 255 346 169"/>
<path stroke-width="1" stroke="black" d="M 193 81 318 110"/>
<path stroke-width="1" stroke="black" d="M 225 255 257 84"/>
<path stroke-width="1" stroke="black" d="M 225 255 159 229"/>
<path stroke-width="1" stroke="black" d="M 225 255 318 110"/>
<path stroke-width="1" stroke="black" d="M 225 255 226 320"/>
<path stroke-width="1" stroke="black" d="M 225 255 193 81"/>
<path stroke-width="1" stroke="black" d="M 225 255 246 173"/>
<path stroke-width="1" stroke="black" d="M 225 255 130 175"/>
<path stroke-width="1" stroke="black" d="M 226 320 225 255"/>
<path stroke-width="1" stroke="black" d="M 193 81 292 240"/>
<path stroke-width="1" stroke="black" d="M 193 81 346 169"/>
<path stroke-width="1" stroke="black" d="M 193 81 257 84"/>
<path stroke-width="1" stroke="black" d="M 193 81 144 122"/>
<path stroke-width="1" stroke="black" d="M 225 255 144 122"/>
<path stroke-width="1" stroke="black" d="M 292 240 364 308"/>
<circle cx="20" cy="183" r="20.0" style="fill:gray;stroke:black;stroke-width:1.0"/>
<circle cx="130" cy="175" r="20.0" style="fill:gray;stroke:black;stroke-width:1.0"/>
<circle cx="299" cy="202" r="20.0" style="fill:gray;stroke:black;stroke-width:1.0"/>
<circle cx="246" cy="173" r="20.0" style="fill:gray;stroke:black;stroke-width:1.0"/>
<circle cx="166" cy="20" r="20.0" style="fill:gray;stroke:black;stroke-width:1.0"/>
<circle cx="193" cy="81" r="20.0" style="fill:gray;stroke:black;stroke-width:1.0"/>
<circle cx="226" cy="320" r="20.0" style="fill:gray;stroke:black;stroke-width:1.0"/>
<circle cx="225" cy="255" r="20.0" style="fill:gray;stroke:black;stroke-width:1.0"/>
<circle cx="384" cy="73" r="20.0" style="fill:gray;stroke:black;stroke-width:1.0"/>
<circle cx="318" cy="110" r="20.0" style="fill:gray;stroke:black;stroke-width:1.0"/>
<circle cx="104" cy="275" r="20.0" style="fill:gray;stroke:black;stroke-width:1.0"/>
<circle cx="159" cy="229" r="20.0" style="fill:gray;stroke:black;stroke-width:1.0"/>
<circle cx="74" cy="90" r="20.0" style="fill:gray;stroke:black;stroke-width:1.0"/>
<circle cx="144" cy="122" r="20.0" style="fill:gray;stroke:black;stroke-width:1.0"/>
<circle cx="283" cy="22" r="20.0" style="fill:gray;stroke:black;stroke-width:1.0"/>
<circle cx="257" cy="84" r="20.0" style="fill:gray;stroke:black;stroke-width:1.0"/>
<circle cx="420" cy="188" r="20.0" style="fill:gray;stroke:black;stroke-width:1.0"/>
<circle cx="346" cy="169" r="20.0" style="fill:gray;stroke:black;stroke-width:1.0"/>
<circle cx="364" cy="308" r="20.0" style="fill:gray;stroke:black;stroke-width:1.0"/>
<circle cx="292" cy="240" r="20.0" style="fill:gray;stroke:black;stroke-width:1.0"/>
</svg>
