<svg width="440" height="340" xmlns="http://www.w3.org/2000/svg">
<path stroke-width="1" stroke="black" d="M 217 20 214 107"/>
<path stroke-width="1" stroke="black" d="M 266 134 125 160"/>
<path stroke-width="1" stroke="black" d="M 266 134 214 107"/>
<path stroke-width="1" stroke="black" d="M 353 96 266 134"/>
<path stroke-width="1" stroke="black" d="M 215 179 293 175"/>
<path stroke-width="1" stroke="black" d="M 215 179 138 221"/>
<path stroke-width="1" stroke="black" d="M 215 179 266 134"/>
<path stroke-width="1" stroke="black" d="M 215 179 177 190"/>
<path stroke-width="1" stroke="black" d="M 215 179 273 227"/>
<path stroke-width="1" stroke="black" d="M 215 179 225 261"/>
<path stroke-width="1" stroke="black" d="M 215 179 162 120"/>
<path stroke-width="1" stroke="black" d="M 215 179 177 249"/>
<path stroke-width="1" stroke="black" d="M 215 179 125 160"/>
<path stroke-width="1" stroke="black" d="M 215 179 214 107"/>
<path stroke-width="1" stroke="black" d="M 177 190 215 179"/>
<path stroke-width="1" stroke="black" d="M 273 227 293 175"/>
<path stroke-width="1" stroke="black" d="M 273 227 138 221"/>
<path stroke-width="1" stroke="black" d="M 273 227 266 134"/>
<path stroke-width="1" stroke="black" d="M 273 227 215 179"/>
<path stroke-width="1" stroke="black" d="M 273 227 370 263"/>
<path stroke-width="1" stroke="black" d="M 273 227 225 261"/>
<path stroke-width="1" stroke="black" d="M 273 227 162 120"/>
<path stroke-width="1" stroke="black" d="M 273 227 177 249"/>
<path stroke-width="1" stroke="black" d="M 273 227 125 160"/>
<path stroke-width="1" stroke="black" d="M 266 134 177 249"/>
<path stroke-width="1" stroke="black" d="M 266 134 162 120"/>
<path stroke-width="1" stroke="black" d="M 266 134 225 261"/>
<path stroke-width="1" stroke="black" d="M 266 134 273 227"/>
<path stroke-width="1" stroke="black" d="M 293 175 266 134"/>
<path stroke-width="1" stroke="black" d="M 293 175 215 179"/>
<path stroke-width="1" stroke="black" d="M 293 175 273 227"/>
<path stroke-width="1" stroke="black" d="M 293 175 225 261"/>
<path stroke-width="1" stroke="black" d="M 293 175 162 120"/>
<path stroke-width="1" stroke="black" d="M 293 175 177 249"/>
<path stroke-width="1" stroke="black" d="M 293 175 125 160"/>
<path stroke-width="1" stroke="black" d="M 293 175 214 107"/>
<path stroke-width="1" stroke="black" d="M 420 171 293 175"/>
<path stroke-width="1" stroke="black" d="M 138 221 293 175"/>
<path stroke-width="1" stroke="black" d="M 138 221 39 254"/>
<path stroke-width="1" stroke="black" d="M 273 227 214 107"/>
<path stroke-width="1" stroke="black" d="M 138 221 266 134"/>
<path stroke-width="1" stroke="black" d="M 138 221 273 227"/>
<path stroke-width="1" stroke="black" d="M 138 221 225 261"/>
<path stroke-width="1" stroke="black" d="M 138 221 162 120"/>
<path stroke-width="1" stroke="black" d="M 138 221 177 249"/>
<path stroke-width="1" stroke="black" d="M 138 221 125 160"/>
<path stroke-width="1" stroke="black" d="M 138 221 214 107"/>
<path stroke-width="1" stroke="black" d="M 39 254 138 221"/>
<path stroke-width="1" stroke="black" d="M 266 134 293 175"/>
<path stroke-width="1" stroke="black" d="M 266 134 138 221"/>
<path stroke-width="1" stroke="black" d="M 266 134 353 96"/>
<path stroke-width="1" stroke="black" d="M 266 134 215 179"/>
<path stroke-width="1" stroke="black" d="M 138 221 215 179"/>
<path stroke-width="1" stroke="black" d="M 370 263 273 227"/>
<path stroke-width="1" stroke="black" d="M 225 261 293 175"/>
<path stroke-width="1" stroke="black" d="M 225 261 138 221"/>
<path stroke-width="1" stroke="black" d="M 177 249 125 160"/>
<path stroke-width="1" stroke="black" d="M 177 249 214 107"/>
<path stroke-width="1" stroke="black" d="M 103 297 177 249"/>
<path stroke-width="1" stroke="black" d="M 125 160 293 175"/>
<path stroke-width="1" stroke="black" d="M 125 160 138 221"/>
<path stroke-width="1" stroke="black" d="M 125 160 266 134"/>
<path stroke-width="1" stroke="black" d="M 125 160 215 179"/>
<path stroke-width="1" stroke="black" d="M 125 160 273 227"/>
<path stroke-width="1" stroke="black" d="M 125 160 225 261"/>
<path stroke-width="1" stroke="black" d="M 125 160 162 120"/>
<path stroke-width="1" stroke="black" d="M 125 160 177 249"/>
<path stroke-width="1" stroke="black" d="M 177 249 103 297"/>
<path stroke-width="1" stroke="black" d="M 125 160 20 137"/>
<path stroke-width="1" stroke="black" d="M 20 137 125 160"/>
<path stroke-width="1" stroke="black" d="M 214 107 293 175"/>
<path stroke-width="1" stroke="black" d="M 214 107 138 221"/>
<path stroke-width="1" stroke="black" d="M 214 107 266 134"/>
<path stroke-width="1" stroke="black" d="M 214 107 215 179"/>
<path stroke-width="1" stroke="black" d="M 214 107 273 227"/>
<path stroke-width="1" stroke="black" d="M 214 107 225 261"/>
<path stroke-width="1" stroke="black" d="M 214 107 162 120"/>
<path stroke-width="1" stroke="black" d="M 214 107 177 249"/>
<path stroke-width="1" stroke="black" d="M 214 107 125 160"/>
<path stroke-width="1" stroke="black" d="M 214 107 217 20"/>
<path stroke-width="1" stroke="black" d="M 125 160 214 107"/>
<path stroke-width="1" stroke="black" d="M 293 175 138 221"/>
<path stroke-width="1" stroke="black" d="M 177 249 162 120"/>
<path stroke-width="1" stroke="black" d="M 177 249 273 227"/>
<path stroke-width="1" stroke="black" d="M 225 261 266 134"/>
<path stroke-width="1" stroke="black" d="M 225 261 215 179"/>
<path stroke-width="1" stroke="black" d="M 225 261 273 227"/>
<path stroke-width="1" stroke="black" d="M 225 261 282 320"/>
<path stroke-width="1" stroke="black" d="M 225 261 162 120"/>
<path stroke-width="1" stroke="black" d="M 225 261 177 249"/>
<path stroke-width="1" stroke="black" d="M 225 261 125 160"/>
<path stroke-width="1" stroke="black" d="M 225 261 214 107"/>
<path stroke-width="1" stroke="black" d="M 282 320 225 261"/>
<path stroke-width="1" stroke="black" d="M 162 120 293 175"/>
<path stroke-width="1" stroke="black" d="M 162 120 138 221"/>
<path stroke-width="1" stroke="black" d="M 177 249 225 261"/>
<path stroke-width="1" stroke="black" d="M 162 120 266 134"/>
<path stroke-width="1" stroke="black" d="M 162 120 273 227"/>
<path stroke-width="1" stroke="black" d="M 162 120 225 261"/>
<path stroke-width="1" stroke="black" d="M 162 120 78 71"/>
<path stroke-width="1" stroke="black" d="M 162 120 177 249"/>
<path stroke-width="1" stroke="black" d="M 162 120 125 160"/>
<path stroke-width="1" stroke="black" d="M 162 120 214 107"/>
<path stroke-width="1" stroke="black" d="M 78 71 162 120"/>
<path stroke-width="1" stroke="black" d="M 177 249 293 175"/>
<path stroke-width="1" stroke="black" d="M 177 249 138 221"/>
<path stroke-width="1" stroke="black" d="M 177 249 266 134"/>
<path stroke-width="1" stroke="black" d="M 177 249 215 179"/>
<path stroke-width="1" stroke="black" d="M 162 120 215 179"/>
<path stroke-width="1" stroke="black" d="M 293 175 420 171"/>
<circle cx="217" cy="20" r="20.0" style="fill:blue;stroke:black;stroke-width:1.0"/>
<circle cx="214" cy="107" r="20.0" style="fill:blue;stroke:black;stroke-width:1.0"/>
<circle cx="20" cy="137" r="20.0" style="fill:red;stroke:black;stroke-width:1.0"/>
<circle cx="125" cy="160" r="20.0" style="fill:red;stroke:black;stroke-width:1.0"/>
<circle cx="103" cy="297" r="20.0" style="fill:green;stroke:black;stroke-width:1.0"/>
<circle cx="177" cy="249" r="20.0" style="fill:green;stroke:black;stroke-width:1.0"/>
<circle cx="78" cy="71" r="20.0" style="fill:orange;stroke:black;stroke-width:1.0"/>
<circle cx="162" cy="120" r="20.0" style="fill:orange;stroke:black;stroke-width:1.0"/>
<circle cx="282" cy="320" r="20.0" style="fill:purple;stroke:black;stroke-width:1.0"/>
<circle cx="225" cy="261" r="20.0" style="fill:purple;stroke:black;stroke-width:1.0"/>
<circle cx="370" cy="263" r="20.0" style="fill:yellow;stroke:black;stroke-width:1.0"/>
<circle cx="273" cy="227" r="20.0" style="fill:yellow;stroke:black;stroke-width:1.0"/>
<circle cx="177" cy="190" r="20.0" style="fill:fuchsia;stroke:black;stroke-width:1.0"/>
<circle cx="215" cy="179" r="20.0" style="fill:fuchsia;stroke:black;stroke-width:1.0"/>
<circle cx="353" cy="96" r="20.0" style="fill:olive;stroke:black;stroke-width:1.0"/>
<circle cx="266" cy="134" r="20.0" style="fill:olive;stroke:black;stroke-width:1.0"/>
<circle cx="39" cy="254" r="20.0" style="fill:aqua;stroke:black;stroke-width:1.0"/>
<circle cx="138" cy="221" r="20.0" style="fill:aqua;stroke:black;stroke-width:1.0"/>
<circle cx="420" cy="171" r="20.0" style="fill:brown;stroke:black;stroke-width:1.0"/>
<circle cx="293" cy="175" r="20.0" style="fill:brown;stroke:black;stroke-width:1.0"/>
</svg>
