<svg width="440" height="340" xmlns="http://www.w3.org/2000/svg">
<path stroke-width="11.642857142857142" stroke="black" d="M 207 205 240 181"/>
<path stroke-width="0.5" stroke="black" d="M 234 20 318 307"/>
<path stroke-width="0.5" stroke="black" d="M 234 20 203 320"/>
<path stroke-width="0.5" stroke="black" d="M 234 20 160 137"/>
<path stroke-width="0.5" stroke="black" d="M 234 20 266 314"/>
<path stroke-width="0.5" stroke="black" d="M 234 20 270 47"/>
<path stroke-width="0.5" stroke="black" d="M 234 20 20 191"/>
<path stroke-width="0.5" stroke="black" d="M 234 20 355 54"/>
<path stroke-width="0.5" stroke="black" d="M 234 20 85 82"/>
<path stroke-width="0.5" stroke="black" d="M 234 20 354 114"/>
<path stroke-width="0.5" stroke="black" d="M 234 20 405 240"/>
<path stroke-width="0.5" stroke="black" d="M 234 20 157 252"/>
<path stroke-width="11.642857142857142" stroke="black" d="M 355 54 207 205"/>
<path stroke-width="0.5" stroke="black" d="M 234 20 94 197"/>
<path stroke-width="0.5" stroke="black" d="M 234 20 376 249"/>
<path stroke-width="0.5" stroke="black" d="M 234 20 43 126"/>
<path stroke-width="8.857142857142858" stroke="black" d="M 234 20 144 44"/>
<path stroke-width="0.5" stroke="black" d="M 234 20 106 292"/>
<path stroke-width="0.5" stroke="black" d="M 234 20 48 256"/>
<path stroke-width="0.5" stroke="black" d="M 234 20 328 239"/>
<path stroke-width="6.071428571428571" stroke="black" d="M 234 20 240 181"/>
<path stroke-width="11.642857142857142" stroke="black" d="M 234 20 207 205"/>
<path stroke-width="0.5" stroke="black" d="M 85 82 318 307"/>
<path stroke-width="0.5" stroke="black" d="M 85 82 203 320"/>
<path stroke-width="0.5" stroke="black" d="M 85 82 160 137"/>
<path stroke-width="0.5" stroke="black" d="M 234 20 420 149"/>
<path stroke-width="14.428571428571429" stroke="black" d="M 355 54 240 181"/>
<path stroke-width="0.5" stroke="black" d="M 355 54 328 239"/>
<path stroke-width="0.5" stroke="black" d="M 355 54 48 256"/>
<path stroke-width="0.5" stroke="black" d="M 20 191 376 249"/>
<path stroke-width="0.5" stroke="black" d="M 20 191 43 126"/>
<path stroke-width="0.5" stroke="black" d="M 20 191 144 44"/>
<path stroke-width="8.857142857142858" stroke="black" d="M 20 191 106 292"/>
<path stroke-width="0.5" stroke="black" d="M 20 191 48 256"/>
<path stroke-width="0.5" stroke="black" d="M 20 191 328 239"/>
<path stroke-width="6.071428571428571" stroke="black" d="M 20 191 240 181"/>
<path stroke-width="11.642857142857142" stroke="black" d="M 20 191 207 205"/>
<path stroke-width="0.5" stroke="black" d="M 355 54 318 307"/>
<path stroke-width="0.5" stroke="black" d="M 355 54 203 320"/>
<path stroke-width="0.5" stroke="black" d="M 355 54 160 137"/>
<path stroke-width="0.5" stroke="black" d="M 355 54 266 314"/>
<path stroke-width="0.5" stroke="black" d="M 355 54 270 47"/>
<path stroke-width="0.5" stroke="black" d="M 355 54 20 191"/>
<path stroke-width="0.5" stroke="black" d="M 355 54 234 20"/>
<path stroke-width="0.5" stroke="black" d="M 355 54 85 82"/>
<path stroke-width="0.5" stroke="black" d="M 355 54 354 114"/>
<path stroke-width="0.5" stroke="black" d="M 355 54 405 240"/>
<path stroke-width="0.5" stroke="black" d="M 355 54 157 252"/>
<path stroke-width="0.5" stroke="black" d="M 355 54 94 197"/>
<path stroke-width="0.5" stroke="black" d="M 355 54 420 149"/>
<path stroke-width="0.5" stroke="black" d="M 355 54 376 249"/>
<path stroke-width="0.5" stroke="black" d="M 355 54 43 126"/>
<path stroke-width="0.5" stroke="black" d="M 355 54 144 44"/>
<path stroke-width="0.5" stroke="black" d="M 355 54 106 292"/>
<path stroke-width="0.5" stroke="black" d="M 85 82 266 314"/>
<path stroke-width="0.5" stroke="black" d="M 85 82 270 47"/>
<path stroke-width="0.5" stroke="black" d="M 85 82 20 191"/>
<path stroke-width="0.5" stroke="black" d="M 85 82 355 54"/>
<path stroke-width="0.5" stroke="black" d="M 354 114 144 44"/>
<path stroke-width="0.5" stroke="black" d="M 354 114 106 292"/>
<path stroke-width="0.5" stroke="black" d="M 354 114 48 256"/>
<path stroke-width="0.5" stroke="black" d="M 354 114 328 239"/>
<path stroke-width="6.071428571428571" stroke="black" d="M 354 114 240 181"/>
<path stroke-width="11.642857142857142" stroke="black" d="M 354 114 207 205"/>
<path stroke-width="0.5" stroke="black" d="M 405 240 318 307"/>
<path stroke-width="0.5" stroke="black" d="M 405 240 203 320"/>
<path stroke-width="0.5" stroke="black" d="M 405 240 160 137"/>
<path stroke-width="0.5" stroke="black" d="M 405 240 266 314"/>
<path stroke-width="0.5" stroke="black" d="M 405 240 270 47"/>
<path stroke-width="0.5" stroke="black" d="M 405 240 20 191"/>
<path stroke-width="0.5" stroke="black" d="M 405 240 355 54"/>
<path stroke-width="0.5" stroke="black" d="M 405 240 234 20"/>
<path stroke-width="0.5" stroke="black" d="M 405 240 85 82"/>
<path stroke-width="0.5" stroke="black" d="M 405 240 354 114"/>
<path stroke-width="0.5" stroke="black" d="M 405 240 157 252"/>
<path stroke-width="0.5" stroke="black" d="M 405 240 94 197"/>
<path stroke-width="8.857142857142858" stroke="black" d="M 405 240 420 149"/>
<path stroke-width="0.5" stroke="black" d="M 405 240 376 249"/>
<path stroke-width="0.5" stroke="black" d="M 405 240 43 126"/>
<path stroke-width="0.5" stroke="black" d="M 405 240 144 44"/>
<path stroke-width="0.5" stroke="black" d="M 405 240 106 292"/>
<path stroke-width="0.5" stroke="black" d="M 405 240 48 256"/>
<path stroke-width="0.5" stroke="black" d="M 405 240 328 239"/>
<path stroke-width="0.5" stroke="black" d="M 354 114 43 126"/>
<path stroke-width="0.5" stroke="black" d="M 20 191 420 149"/>
<path stroke-width="0.5" stroke="black" d="M 354 114 376 249"/>
<path stroke-width="0.5" stroke="black" d="M 354 114 94 197"/>
<path stroke-width="0.5" stroke="black" d="M 85 82 234 20"/>
<path stroke-width="0.5" stroke="black" d="M 85 82 354 114"/>
<path stroke-width="0.5" stroke="black" d="M 85 82 405 240"/>
<path stroke-width="0.5" stroke="black" d="M 85 82 157 252"/>
<path stroke-width="0.5" stroke="black" d="M 85 82 94 197"/>
<path stroke-width="0.5" stroke="black" d="M 85 82 420 149"/>
<path stroke-width="0.5" stroke="black" d="M 85 82 376 249"/>
<path stroke-width="8.857142857142858" stroke="black" d="M 85 82 43 126"/>
<path stroke-width="0.5" stroke="black" d="M 85 82 144 44"/>
<path stroke-width="0.5" stroke="black" d="M 85 82 106 292"/>
<path stroke-width="0.5" stroke="black" d="M 85 82 48 256"/>
<path stroke-width="0.5" stroke="black" d="M 85 82 328 239"/>
<path stroke-width="6.071428571428571" stroke="black" d="M 85 82 240 181"/>
<path stroke-width="11.642857142857142" stroke="black" d="M 85 82 207 205"/>
<path stroke-width="8.857142857142858" stroke="black" d="M 354 114 318 307"/>
<path stroke-width="0.5" stroke="black" d="M 354 114 203 320"/>
<path stroke-width="0.5" stroke="black" d="M 354 114 160 137"/>
<path stroke-width="0.5" stroke="black" d="M 354 114 266 314"/>
<path stroke-width="0.5" stroke="black" d="M 354 114 270 47"/>
<path stroke-width="0.5" stroke="black" d="M 354 114 20 191"/>
<path stroke-width="0.5" stroke="black" d="M 354 114 355 54"/>
<path stroke-width="0.5" stroke="black" d="M 354 114 234 20"/>
<path stroke-width="0.5" stroke="black" d="M 354 114 85 82"/>
<path stroke-width="0.5" stroke="black" d="M 354 114 405 240"/>
<path stroke-width="0.5" stroke="black" d="M 354 114 157 252"/>
<path stroke-width="0.5" stroke="black" d="M 354 114 420 149"/>
<path stroke-width="0.5" stroke="black" d="M 20 191 94 197"/>
<path stroke-width="0.5" stroke="black" d="M 20 191 157 252"/>
<path stroke-width="0.5" stroke="black" d="M 20 191 405 240"/>
<path stroke-width="0.5" stroke="black" d="M 203 320 157 252"/>
<path stroke-width="0.5" stroke="black" d="M 203 320 94 197"/>
<path stroke-width="0.5" stroke="black" d="M 203 320 420 149"/>
<path stroke-width="8.857142857142858" stroke="black" d="M 203 320 376 249"/>
<path stroke-width="0.5" stroke="black" d="M 203 320 43 126"/>
<path stroke-width="0.5" stroke="black" d="M 203 320 144 44"/>
<path stroke-width="0.5" stroke="black" d="M 203 320 106 292"/>
<path stroke-width="0.5" stroke="black" d="M 203 320 48 256"/>
<path stroke-width="0.5" stroke="black" d="M 203 320 328 239"/>
<path stroke-width="6.071428571428571" stroke="black" d="M 203 320 240 181"/>
<path stroke-width="11.642857142857142" stroke="black" d="M 203 320 207 205"/>
<path stroke-width="0.5" stroke="black" d="M 160 137 318 307"/>
<path stroke-width="0.5" stroke="black" d="M 160 137 203 320"/>
<path stroke-width="0.5" stroke="black" d="M 160 137 266 314"/>
<path stroke-width="0.5" stroke="black" d="M 160 137 270 47"/>
<path stroke-width="0.5" stroke="black" d="M 160 137 20 191"/>
<path stroke-width="0.5" stroke="black" d="M 160 137 355 54"/>
<path stroke-width="0.5" stroke="black" d="M 160 137 234 20"/>
<path stroke-width="0.5" stroke="black" d="M 160 137 85 82"/>
<path stroke-width="0.5" stroke="black" d="M 160 137 354 114"/>
<path stroke-width="0.5" stroke="black" d="M 160 137 405 240"/>
<path stroke-width="0.5" stroke="black" d="M 160 137 157 252"/>
<path stroke-width="0.5" stroke="black" d="M 160 137 94 197"/>
<path stroke-width="0.5" stroke="black" d="M 160 137 420 149"/>
<path stroke-width="0.5" stroke="black" d="M 160 137 376 249"/>
<path stroke-width="0.5" stroke="black" d="M 203 320 405 240"/>
<path stroke-width="0.5" stroke="black" d="M 160 137 43 126"/>
<path stroke-width="0.5" stroke="black" d="M 203 320 354 114"/>
<path stroke-width="0.5" stroke="black" d="M 203 320 234 20"/>
<path stroke-width="0.5" stroke="black" d="M 318 307 266 314"/>
<path stroke-width="0.5" stroke="black" d="M 318 307 270 47"/>
<path stroke-width="0.5" stroke="black" d="M 318 307 20 191"/>
<path stroke-width="0.5" stroke="black" d="M 318 307 355 54"/>
<path stroke-width="0.5" stroke="black" d="M 318 307 234 20"/>
<path stroke-width="0.5" stroke="black" d="M 318 307 85 82"/>
<path stroke-width="8.857142857142858" stroke="black" d="M 318 307 354 114"/>
<path stroke-width="0.5" stroke="black" d="M 318 307 405 240"/>
<path stroke-width="0.5" stroke="black" d="M 318 307 157 252"/>
<path stroke-width="0.5" stroke="black" d="M 318 307 94 197"/>
<path stroke-width="0.5" stroke="black" d="M 318 307 420 149"/>
<path stroke-width="0.5" stroke="black" d="M 318 307 376 249"/>
<path stroke-width="0.5" stroke="black" d="M 318 307 43 126"/>
<path stroke-width="0.5" stroke="black" d="M 318 307 144 44"/>
<path stroke-width="0.5" stroke="black" d="M 318 307 106 292"/>
<path stroke-width="0.5" stroke="black" d="M 318 307 48 256"/>
<path stroke-width="0.5" stroke="black" d="M 318 307 328 239"/>
<path stroke-width="6.071428571428571" stroke="black" d="M 318 307 240 181"/>
<path stroke-width="11.642857142857142" stroke="black" d="M 318 307 207 205"/>
<path stroke-width="0.5" stroke="black" d="M 203 320 318 307"/>
<path stroke-width="0.5" stroke="black" d="M 203 320 160 137"/>
<path stroke-width="0.5" stroke="black" d="M 203 320 266 314"/>
<path stroke-width="0.5" stroke="black" d="M 203 320 270 47"/>
<path stroke-width="0.5" stroke="black" d="M 203 320 20 191"/>
<path stroke-width="0.5" stroke="black" d="M 203 320 355 54"/>
<path stroke-width="0.5" stroke="black" d="M 203 320 85 82"/>
<path stroke-width="6.071428571428571" stroke="black" d="M 405 240 240 181"/>
<path stroke-width="0.5" stroke="black" d="M 160 137 144 44"/>
<path stroke-width="0.5" stroke="black" d="M 160 137 48 256"/>
<path stroke-width="0.5" stroke="black" d="M 270 47 355 54"/>
<path stroke-width="0.5" stroke="black" d="M 270 47 234 20"/>
<path stroke-width="0.5" stroke="black" d="M 270 47 85 82"/>
<path stroke-width="0.5" stroke="black" d="M 270 47 354 114"/>
<path stroke-width="0.5" stroke="black" d="M 270 47 405 240"/>
<path stroke-width="0.5" stroke="black" d="M 270 47 157 252"/>
<path stroke-width="0.5" stroke="black" d="M 270 47 94 197"/>
<path stroke-width="0.5" stroke="black" d="M 270 47 420 149"/>
<path stroke-width="0.5" stroke="black" d="M 270 47 376 249"/>
<path stroke-width="0.5" stroke="black" d="M 270 47 43 126"/>
<path stroke-width="0.5" stroke="black" d="M 270 47 144 44"/>
<path stroke-width="0.5" stroke="black" d="M 270 47 106 292"/>
<path stroke-width="0.5" stroke="black" d="M 270 47 48 256"/>
<path stroke-width="0.5" stroke="black" d="M 270 47 328 239"/>
<path stroke-width="6.071428571428571" stroke="black" d="M 270 47 240 181"/>
<path stroke-width="20.0" stroke="black" d="M 270 47 207 205"/>
<path stroke-width="0.5" stroke="black" d="M 20 191 318 307"/>
<path stroke-width="0.5" stroke="black" d="M 20 191 203 320"/>
<path stroke-width="0.5" stroke="black" d="M 20 191 160 137"/>
<path stroke-width="0.5" stroke="black" d="M 20 191 266 314"/>
<path stroke-width="0.5" stroke="black" d="M 20 191 270 47"/>
<path stroke-width="0.5" stroke="black" d="M 20 191 355 54"/>
<path stroke-width="0.5" stroke="black" d="M 20 191 234 20"/>
<path stroke-width="0.5" stroke="black" d="M 20 191 85 82"/>
<path stroke-width="0.5" stroke="black" d="M 20 191 354 114"/>
<path stroke-width="0.5" stroke="black" d="M 270 47 20 191"/>
<path stroke-width="0.5" stroke="black" d="M 160 137 106 292"/>
<path stroke-width="0.5" stroke="black" d="M 270 47 266 314"/>
<path stroke-width="0.5" stroke="black" d="M 270 47 203 320"/>
<path stroke-width="0.5" stroke="black" d="M 160 137 328 239"/>
<path stroke-width="6.071428571428571" stroke="black" d="M 160 137 240 181"/>
<path stroke-width="20.0" stroke="black" d="M 160 137 207 205"/>
<path stroke-width="0.5" stroke="black" d="M 266 314 318 307"/>
<path stroke-width="0.5" stroke="black" d="M 266 314 203 320"/>
<path stroke-width="0.5" stroke="black" d="M 266 314 160 137"/>
<path stroke-width="0.5" stroke="black" d="M 266 314 270 47"/>
<path stroke-width="0.5" stroke="black" d="M 266 314 20 191"/>
<path stroke-width="0.5" stroke="black" d="M 266 314 355 54"/>
<path stroke-width="0.5" stroke="black" d="M 266 314 234 20"/>
<path stroke-width="0.5" stroke="black" d="M 266 314 85 82"/>
<path stroke-width="0.5" stroke="black" d="M 266 314 354 114"/>
<path stroke-width="0.5" stroke="black" d="M 266 314 405 240"/>
<path stroke-width="0.5" stroke="black" d="M 266 314 157 252"/>
<path stroke-width="0.5" stroke="black" d="M 266 314 94 197"/>
<path stroke-width="0.5" stroke="black" d="M 266 314 420 149"/>
<path stroke-width="0.5" stroke="black" d="M 266 314 376 249"/>
<path stroke-width="0.5" stroke="black" d="M 266 314 43 126"/>
<path stroke-width="0.5" stroke="black" d="M 266 314 144 44"/>
<path stroke-width="0.5" stroke="black" d="M 266 314 106 292"/>
<path stroke-width="8.857142857142858" stroke="black" d="M 266 314 48 256"/>
<path stroke-width="0.5" stroke="black" d="M 266 314 328 239"/>
<path stroke-width="6.071428571428571" stroke="black" d="M 266 314 240 181"/>
<path stroke-width="11.642857142857142" stroke="black" d="M 266 314 207 205"/>
<path stroke-width="0.5" stroke="black" d="M 270 47 318 307"/>
<path stroke-width="0.5" stroke="black" d="M 270 47 160 137"/>
<path stroke-width="11.642857142857142" stroke="black" d="M 405 240 207 205"/>
<path stroke-width="0.5" stroke="black" d="M 157 252 318 307"/>
<path stroke-width="0.5" stroke="black" d="M 157 252 203 320"/>
<path stroke-width="0.5" stroke="black" d="M 48 256 318 307"/>
<path stroke-width="0.5" stroke="black" d="M 48 256 203 320"/>
<path stroke-width="0.5" stroke="black" d="M 48 256 160 137"/>
<path stroke-width="8.857142857142858" stroke="black" d="M 48 256 266 314"/>
<path stroke-width="0.5" stroke="black" d="M 48 256 270 47"/>
<path stroke-width="0.5" stroke="black" d="M 48 256 20 191"/>
<path stroke-width="0.5" stroke="black" d="M 48 256 355 54"/>
<path stroke-width="0.5" stroke="black" d="M 48 256 234 20"/>
<path stroke-width="0.5" stroke="black" d="M 48 256 85 82"/>
<path stroke-width="0.5" stroke="black" d="M 48 256 354 114"/>
<path stroke-width="0.5" stroke="black" d="M 48 256 405 240"/>
<path stroke-width="0.5" stroke="black" d="M 48 256 157 252"/>
<path stroke-width="0.5" stroke="black" d="M 48 256 94 197"/>
<path stroke-width="0.5" stroke="black" d="M 48 256 420 149"/>
<path stroke-width="0.5" stroke="black" d="M 48 256 376 249"/>
<path stroke-width="0.5" stroke="black" d="M 48 256 43 126"/>
<path stroke-width="0.5" stroke="black" d="M 48 256 144 44"/>
<path stroke-width="0.5" stroke="black" d="M 48 256 106 292"/>
<path stroke-width="0.5" stroke="black" d="M 48 256 328 239"/>
<path stroke-width="0.5" stroke="black" d="M 48 256 240 181"/>
<path stroke-width="11.642857142857142" stroke="black" d="M 48 256 207 205"/>
<path stroke-width="0.5" stroke="black" d="M 328 239 318 307"/>
<path stroke-width="0.5" stroke="black" d="M 328 239 203 320"/>
<path stroke-width="0.5" stroke="black" d="M 328 239 160 137"/>
<path stroke-width="0.5" stroke="black" d="M 328 239 266 314"/>
<path stroke-width="11.642857142857142" stroke="black" d="M 106 292 207 205"/>
<path stroke-width="0.5" stroke="black" d="M 328 239 270 47"/>
<path stroke-width="3.2857142857142856" stroke="black" d="M 106 292 240 181"/>
<path stroke-width="0.5" stroke="black" d="M 106 292 48 256"/>
<path stroke-width="0.5" stroke="black" d="M 144 44 420 149"/>
<path stroke-width="0.5" stroke="black" d="M 144 44 376 249"/>
<path stroke-width="0.5" stroke="black" d="M 144 44 43 126"/>
<path stroke-width="0.5" stroke="black" d="M 144 44 106 292"/>
<path stroke-width="0.5" stroke="black" d="M 144 44 48 256"/>
<path stroke-width="0.5" stroke="black" d="M 144 44 328 239"/>
<path stroke-width="6.071428571428571" stroke="black" d="M 144 44 240 181"/>
<path stroke-width="11.642857142857142" stroke="black" d="M 144 44 207 205"/>
<path stroke-width="0.5" stroke="black" d="M 106 292 318 307"/>
<path stroke-width="0.5" stroke="black" d="M 106 292 203 320"/>
<path stroke-width="0.5" stroke="black" d="M 106 292 160 137"/>
<path stroke-width="0.5" stroke="black" d="M 106 292 266 314"/>
<path stroke-width="0.5" stroke="black" d="M 106 292 270 47"/>
<path stroke-width="8.857142857142858" stroke="black" d="M 106 292 20 191"/>
<path stroke-width="0.5" stroke="black" d="M 106 292 355 54"/>
<path stroke-width="0.5" stroke="black" d="M 106 292 234 20"/>
<path stroke-width="0.5" stroke="black" d="M 106 292 85 82"/>
<path stroke-width="0.5" stroke="black" d="M 106 292 354 114"/>
<path stroke-width="0.5" stroke="black" d="M 106 292 405 240"/>
<path stroke-width="0.5" stroke="black" d="M 106 292 157 252"/>
<path stroke-width="0.5" stroke="black" d="M 106 292 94 197"/>
<path stroke-width="0.5" stroke="black" d="M 106 292 420 149"/>
<path stroke-width="0.5" stroke="black" d="M 106 292 376 249"/>
<path stroke-width="0.5" stroke="black" d="M 106 292 43 126"/>
<path stroke-width="0.5" stroke="black" d="M 106 292 144 44"/>
<path stroke-width="0.5" stroke="black" d="M 106 292 328 239"/>
<path stroke-width="0.5" stroke="black" d="M 144 44 94 197"/>
<path stroke-width="0.5" stroke="black" d="M 328 239 20 191"/>
<path stroke-width="0.5" stroke="black" d="M 328 239 234 20"/>
<path stroke-width="6.071428571428571" stroke="black" d="M 240 181 144 44"/>
<path stroke-width="3.2857142857142856" stroke="black" d="M 240 181 106 292"/>
<path stroke-width="0.5" stroke="black" d="M 240 181 48 256"/>
<path stroke-width="6.071428571428571" stroke="black" d="M 240 181 328 239"/>
<path stroke-width="11.642857142857142" stroke="black" d="M 240 181 207 205"/>
<path stroke-width="11.642857142857142" stroke="black" d="M 207 205 318 307"/>
<path stroke-width="11.642857142857142" stroke="black" d="M 207 205 203 320"/>
<path stroke-width="20.0" stroke="black" d="M 207 205 160 137"/>
<path stroke-width="11.642857142857142" stroke="black" d="M 207 205 266 314"/>
<path stroke-width="20.0" stroke="black" d="M 207 205 270 47"/>
<path stroke-width="11.642857142857142" stroke="black" d="M 207 205 20 191"/>
<path stroke-width="11.642857142857142" stroke="black" d="M 207 205 355 54"/>
<path stroke-width="11.642857142857142" stroke="black" d="M 207 205 234 20"/>
<path stroke-width="11.642857142857142" stroke="black" d="M 207 205 85 82"/>
<path stroke-width="11.642857142857142" stroke="black" d="M 207 205 354 114"/>
<path stroke-width="11.642857142857142" stroke="black" d="M 207 205 405 240"/>
<path stroke-width="11.642857142857142" stroke="black" d="M 207 205 157 252"/>
<path stroke-width="11.642857142857142" stroke="black" d="M 207 205 94 197"/>
<path stroke-width="11.642857142857142" stroke="black" d="M 207 205 420 149"/>
<path stroke-width="11.642857142857142" stroke="black" d="M 207 205 376 249"/>
<path stroke-width="11.642857142857142" stroke="black" d="M 207 205 43 126"/>
<path stroke-width="11.642857142857142" stroke="black" d="M 207 205 144 44"/>
<path stroke-width="11.642857142857142" stroke="black" d="M 207 205 106 292"/>
<path stroke-width="11.642857142857142" stroke="black" d="M 207 205 48 256"/>
<path stroke-width="20.0" stroke="black" d="M 207 205 328 239"/>
<path stroke-width="6.071428571428571" stroke="black" d="M 240 181 43 126"/>
<path stroke-width="0.5" stroke="black" d="M 328 239 355 54"/>
<path stroke-width="6.071428571428571" stroke="black" d="M 240 181 376 249"/>
<path stroke-width="6.071428571428571" stroke="black" d="M 240 181 94 197"/>
<path stroke-width="0.5" stroke="black" d="M 328 239 85 82"/>
<path stroke-width="0.5" stroke="black" d="M 328 239 354 114"/>
<path stroke-width="0.5" stroke="black" d="M 328 239 405 240"/>
<path stroke-width="0.5" stroke="black" d="M 328 239 157 252"/>
<path stroke-width="0.5" stroke="black" d="M 328 239 94 197"/>
<path stroke-width="0.5" stroke="black" d="M 328 239 420 149"/>
<path stroke-width="0.5" stroke="black" d="M 328 239 376 249"/>
<path stroke-width="0.5" stroke="black" d="M 328 239 43 126"/>
<path stroke-width="0.5" stroke="black" d="M 328 239 144 44"/>
<path stroke-width="0.5" stroke="black" d="M 328 239 106 292"/>
<path stroke-width="0.5" stroke="black" d="M 328 239 48 256"/>
<path stroke-width="6.071428571428571" stroke="black" d="M 328 239 240 181"/>
<path stroke-width="20.0" stroke="black" d="M 328 239 207 205"/>
<path stroke-width="6.071428571428571" stroke="black" d="M 240 181 318 307"/>
<path stroke-width="6.071428571428571" stroke="black" d="M 240 181 203 320"/>
<path stroke-width="6.071428571428571" stroke="black" d="M 240 181 160 137"/>
<path stroke-width="6.071428571428571" stroke="black" d="M 240 181 266 314"/>
<path stroke-width="6.071428571428571" stroke="black" d="M 240 181 270 47"/>
<path stroke-width="6.071428571428571" stroke="black" d="M 240 181 20 191"/>
<path stroke-width="14.428571428571429" stroke="black" d="M 240 181 355 54"/>
<path stroke-width="6.071428571428571" stroke="black" d="M 240 181 234 20"/>
<path stroke-width="6.071428571428571" stroke="black" d="M 240 181 85 82"/>
<path stroke-width="6.071428571428571" stroke="black" d="M 240 181 354 114"/>
<path stroke-width="6.071428571428571" stroke="black" d="M 240 181 405 240"/>
<path stroke-width="6.071428571428571" stroke="black" d="M 240 181 157 252"/>
<path stroke-width="6.071428571428571" stroke="black" d="M 240 181 420 149"/>
<path stroke-width="0.5" stroke="black" d="M 318 307 160 137"/>
<path stroke-width="0.5" stroke="black" d="M 144 44 157 252"/>
<path stroke-width="0.5" stroke="black" d="M 144 44 354 114"/>
<path stroke-width="0.5" stroke="black" d="M 94 197 405 240"/>
<path stroke-width="8.857142857142858" stroke="black" d="M 94 197 157 252"/>
<path stroke-width="0.5" stroke="black" d="M 94 197 420 149"/>
<path stroke-width="0.5" stroke="black" d="M 94 197 376 249"/>
<path stroke-width="0.5" stroke="black" d="M 94 197 43 126"/>
<path stroke-width="0.5" stroke="black" d="M 94 197 144 44"/>
<path stroke-width="0.5" stroke="black" d="M 94 197 106 292"/>
<path stroke-width="0.5" stroke="black" d="M 94 197 48 256"/>
<path stroke-width="0.5" stroke="black" d="M 94 197 328 239"/>
<path stroke-width="6.071428571428571" stroke="black" d="M 94 197 240 181"/>
<path stroke-width="11.642857142857142" stroke="black" d="M 94 197 207 205"/>
<path stroke-width="0.5" stroke="black" d="M 420 149 318 307"/>
<path stroke-width="0.5" stroke="black" d="M 420 149 203 320"/>
<path stroke-width="0.5" stroke="black" d="M 420 149 160 137"/>
<path stroke-width="0.5" stroke="black" d="M 420 149 266 314"/>
<path stroke-width="0.5" stroke="black" d="M 420 149 270 47"/>
<path stroke-width="0.5" stroke="black" d="M 420 149 20 191"/>
<path stroke-width="0.5" stroke="black" d="M 420 149 355 54"/>
<path stroke-width="0.5" stroke="black" d="M 420 149 234 20"/>
<path stroke-width="0.5" stroke="black" d="M 420 149 85 82"/>
<path stroke-width="0.5" stroke="black" d="M 420 149 354 114"/>
<path stroke-width="8.857142857142858" stroke="black" d="M 420 149 405 240"/>
<path stroke-width="0.5" stroke="black" d="M 420 149 157 252"/>
<path stroke-width="0.5" stroke="black" d="M 420 149 94 197"/>
<path stroke-width="0.5" stroke="black" d="M 420 149 376 249"/>
<path stroke-width="0.5" stroke="black" d="M 94 197 354 114"/>
<path stroke-width="0.5" stroke="black" d="M 420 149 43 126"/>
<path stroke-width="0.5" stroke="black" d="M 94 197 85 82"/>
<path stroke-width="0.5" stroke="black" d="M 94 197 355 54"/>
<path stroke-width="0.5" stroke="black" d="M 157 252 160 137"/>
<path stroke-width="0.5" stroke="black" d="M 157 252 266 314"/>
<path stroke-width="0.5" stroke="black" d="M 157 252 270 47"/>
<path stroke-width="0.5" stroke="black" d="M 157 252 20 191"/>
<path stroke-width="0.5" stroke="black" d="M 157 252 355 54"/>
<path stroke-width="0.5" stroke="black" d="M 157 252 234 20"/>
<path stroke-width="0.5" stroke="black" d="M 157 252 85 82"/>
<path stroke-width="0.5" stroke="black" d="M 157 252 354 114"/>
<path stroke-width="0.5" stroke="black" d="M 157 252 405 240"/>
<path stroke-width="8.857142857142858" stroke="black" d="M 157 252 94 197"/>
<path stroke-width="0.5" stroke="black" d="M 157 252 420 149"/>
<path stroke-width="0.5" stroke="black" d="M 157 252 376 249"/>
<path stroke-width="0.5" stroke="black" d="M 157 252 43 126"/>
<path stroke-width="0.5" stroke="black" d="M 157 252 144 44"/>
<path stroke-width="0.5" stroke="black" d="M 157 252 106 292"/>
<path stroke-width="0.5" stroke="black" d="M 157 252 48 256"/>
<path stroke-width="0.5" stroke="black" d="M 157 252 328 239"/>
<path stroke-width="6.071428571428571" stroke="black" d="M 157 252 240 181"/>
<path stroke-width="11.642857142857142" stroke="black" d="M 157 252 207 205"/>
<path stroke-width="0.5" stroke="black" d="M 94 197 318 307"/>
<path stroke-width="0.5" stroke="black" d="M 94 197 203 320"/>
<path stroke-width="0.5" stroke="black" d="M 94 197 160 137"/>
<path stroke-width="0.5" stroke="black" d="M 94 197 266 314"/>
<path stroke-width="0.5" stroke="black" d="M 94 197 270 47"/>
<path stroke-width="0.5" stroke="black" d="M 94 197 20 191"/>
<path stroke-width="0.5" stroke="black" d="M 94 197 234 20"/>
<path stroke-width="0.5" stroke="black" d="M 144 44 405 240"/>
<path stroke-width="0.5" stroke="black" d="M 420 149 144 44"/>
<path stroke-width="0.5" stroke="black" d="M 420 149 48 256"/>
<path stroke-width="0.5" stroke="black" d="M 43 126 20 191"/>
<path stroke-width="0.5" stroke="black" d="M 43 126 355 54"/>
<path stroke-width="0.5" stroke="black" d="M 43 126 234 20"/>
<path stroke-width="8.857142857142858" stroke="black" d="M 43 126 85 82"/>
<path stroke-width="0.5" stroke="black" d="M 43 126 354 114"/>
<path stroke-width="0.5" stroke="black" d="M 43 126 405 240"/>
<path stroke-width="0.5" stroke="black" d="M 43 126 157 252"/>
<path stroke-width="0.5" stroke="black" d="M 43 126 94 197"/>
<path stroke-width="0.5" stroke="black" d="M 43 126 420 149"/>
<path stroke-width="0.5" stroke="black" d="M 43 126 376 249"/>
<path stroke-width="0.5" stroke="black" d="M 43 126 144 44"/>
<path stroke-width="0.5" stroke="black" d="M 43 126 106 292"/>
<path stroke-width="0.5" stroke="black" d="M 43 126 48 256"/>
<path stroke-width="0.5" stroke="black" d="M 43 126 328 239"/>
<path stroke-width="6.071428571428571" stroke="black" d="M 43 126 240 181"/>
<path stroke-width="11.642857142857142" stroke="black" d="M 43 126 207 205"/>
<path stroke-width="0.5" stroke="black" d="M 144 44 318 307"/>
<path stroke-width="0.5" stroke="black" d="M 144 44 203 320"/>
<path stroke-width="0.5" stroke="black" d="M 144 44 160 137"/>
<path stroke-width="0.5" stroke="black" d="M 144 44 266 314"/>
<path stroke-width="0.5" stroke="black" d="M 144 44 270 47"/>
<path stroke-width="0.5" stroke="black" d="M 144 44 20 191"/>
<path stroke-width="0.5" stroke="black" d="M 144 44 355 54"/>
<path stroke-width="8.857142857142858" stroke="black" d="M 144 44 234 20"/>
<path stroke-width="0.5" stroke="black" d="M 144 44 85 82"/>
<path stroke-width="0.5" stroke="black" d="M 43 126 270 47"/>
<path stroke-width="0.5" stroke="black" d="M 420 149 106 292"/>
<path stroke-width="0.5" stroke="black" d="M 43 126 266 314"/>
<path stroke-width="0.5" stroke="black" d="M 43 126 203 320"/>
<path stroke-width="0.5" stroke="black" d="M 420 149 328 239"/>
<path stroke-width="6.071428571428571" stroke="black" d="M 420 149 240 181"/>
<path stroke-width="11.642857142857142" stroke="black" d="M 420 149 207 205"/>
<path stroke-width="0.5" stroke="black" d="M 376 249 318 307"/>
<path stroke-width="8.857142857142858" stroke="black" d="M 376 249 203 320"/>
<path stroke-width="0.5" stroke="black" d="M 376 249 160 137"/>
<path stroke-width="0.5" stroke="black" d="M 376 249 266 314"/>
<path stroke-width="0.5" stroke="black" d="M 376 249 270 47"/>
<path stroke-width="0.5" stroke="black" d="M 376 249 20 191"/>
<path stroke-width="0.5" stroke="black" d="M 376 249 355 54"/>
<path stroke-width="0.5" stroke="black" d="M 376 249 234 20"/>
<path stroke-width="0.5" stroke="black" d="M 376 249 85 82"/>
<path stroke-width="0.5" stroke="black" d="M 376 249 354 114"/>
<path stroke-width="0.5" stroke="black" d="M 376 249 405 240"/>
<path stroke-width="0.5" stroke="black" d="M 376 249 157 252"/>
<path stroke-width="0.5" stroke="black" d="M 376 249 94 197"/>
<path stroke-width="0.5" stroke="black" d="M 376 249 420 149"/>
<path stroke-width="0.5" stroke="black" d="M 376 249 43 126"/>
<path stroke-width="0.5" stroke="black" d="M 376 249 144 44"/>
<path stroke-width="0.5" stroke="black" d="M 376 249 106 292"/>
<path stroke-width="0.5" stroke="black" d="M 376 249 48 256"/>
<path stroke-width="0.5" stroke="black" d="M 376 249 328 239"/>
<path stroke-width="6.071428571428571" stroke="black" d="M 376 249 240 181"/>
<path stroke-width="11.642857142857142" stroke="black" d="M 376 249 207 205"/>
<path stroke-width="0.5" stroke="black" d="M 43 126 318 307"/>
<path stroke-width="0.5" stroke="black" d="M 43 126 160 137"/>
<path stroke-width="0.5" stroke="black" d="M 318 307 203 320"/>
<circle cx="207" cy="205" r="7.0" style="fill:red;stroke:black;stroke-width:1.0"/>
<circle cx="240" cy="181" r="7.0" style="fill:blue;stroke:black;stroke-width:1.0"/>
<circle cx="328" cy="239" r="7.0" style="fill:red;stroke:black;stroke-width:1.0"/>
<circle cx="48" cy="256" r="7.0" style="fill:red;stroke:black;stroke-width:1.0"/>
<circle cx="106" cy="292" r="7.0" style="fill:red;stroke:black;stroke-width:1.0"/>
<circle cx="144" cy="44" r="7.0" style="fill:green;stroke:black;stroke-width:1.0"/>
<circle cx="43" cy="126" r="7.0" style="fill:blue;stroke:black;stroke-width:1.0"/>
<circle cx="376" cy="249" r="7.0" style="fill:orange;stroke:black;stroke-width:1.0"/>
<circle cx="420" cy="149" r="7.0" style="fill:blue;stroke:black;stroke-width:1.0"/>
<circle cx="94" cy="197" r="7.0" style="fill:blue;stroke:black;stroke-width:1.0"/>
<circle cx="157" cy="252" r="7.0" style="fill:blue;stroke:black;stroke-width:1.0"/>
<circle cx="405" cy="240" r="7.0" style="fill:blue;stroke:black;stroke-width:1.0"/>
<circle cx="354" cy="114" r="7.0" style="fill:purple;stroke:black;stroke-width:1.0"/>
<circle cx="85" cy="82" r="7.0" style="fill:blue;stroke:black;stroke-width:1.0"/>
<circle cx="234" cy="20" r="7.0" style="fill:green;stroke:black;stroke-width:1.0"/>
<circle cx="355" cy="54" r="7.0" style="fill:blue;stroke:black;stroke-width:1.0"/>
<circle cx="20" cy="191" r="7.0" style="fill:red;stroke:black;stroke-width:1.0"/>
<circle cx="270" cy="47" r="7.0" style="fill:red;stroke:black;stroke-width:1.0"/>
<circle cx="266" cy="314" r="7.0" style="fill:red;stroke:black;stroke-width:1.0"/>
<circle cx="160" cy="137" r="7.0" style="fill:red;stroke:black;stroke-width:1.0"/>
<circle cx="203" cy="320" r="7.0" style="fill:orange;stroke:black;stroke-width:1.0"/>
<circle cx="318" cy="307" r="7.0" style="fill:purple;stroke:black;stroke-width:1.0"/>
</svg>
