<svg width="440" height="340" xmlns="http://www.w3.org/2000/svg">
<path stroke-width="11.642857142857142" stroke="black" d="M 231 196 187 121"/>
<path stroke-width="0.5" stroke="black" d="M 62 259 328 116"/>
<path stroke-width="0.5" stroke="black" d="M 62 259 420 161"/>
<path stroke-width="0.5" stroke="black" d="M 62 259 80 56"/>
<path stroke-width="0.5" stroke="black" d="M 62 259 170 20"/>
<path stroke-width="0.5" stroke="black" d="M 62 259 233 317"/>
<path stroke-width="0.5" stroke="black" d="M 62 259 103 119"/>
<path stroke-width="0.5" stroke="black" d="M 62 259 54 192"/>
<path stroke-width="0.5" stroke="black" d="M 62 259 293 320"/>
<path stroke-width="0.5" stroke="black" d="M 62 259 278 29"/>
<path stroke-width="0.5" stroke="black" d="M 62 259 199 307"/>
<path stroke-width="0.5" stroke="black" d="M 62 259 343 290"/>
<path stroke-width="11.642857142857142" stroke="black" d="M 54 192 231 196"/>
<path stroke-width="0.5" stroke="black" d="M 62 259 133 232"/>
<path stroke-width="0.5" stroke="black" d="M 62 259 315 39"/>
<path stroke-width="0.5" stroke="black" d="M 62 259 130 302"/>
<path stroke-width="8.857142857142858" stroke="black" d="M 62 259 20 179"/>
<path stroke-width="0.5" stroke="black" d="M 62 259 400 237"/>
<path stroke-width="0.5" stroke="black" d="M 62 259 396 94"/>
<path stroke-width="0.5" stroke="black" d="M 62 259 339 224"/>
<path stroke-width="6.071428571428571" stroke="black" d="M 62 259 187 121"/>
<path stroke-width="11.642857142857142" stroke="black" d="M 62 259 231 196"/>
<path stroke-width="0.5" stroke="black" d="M 293 320 328 116"/>
<path stroke-width="0.5" stroke="black" d="M 293 320 420 161"/>
<path stroke-width="0.5" stroke="black" d="M 293 320 80 56"/>
<path stroke-width="0.5" stroke="black" d="M 62 259 237 197"/>
<path stroke-width="14.428571428571429" stroke="black" d="M 54 192 187 121"/>
<path stroke-width="0.5" stroke="black" d="M 54 192 339 224"/>
<path stroke-width="0.5" stroke="black" d="M 54 192 396 94"/>
<path stroke-width="0.5" stroke="black" d="M 103 119 315 39"/>
<path stroke-width="0.5" stroke="black" d="M 103 119 130 302"/>
<path stroke-width="0.5" stroke="black" d="M 103 119 20 179"/>
<path stroke-width="8.857142857142858" stroke="black" d="M 103 119 400 237"/>
<path stroke-width="0.5" stroke="black" d="M 103 119 396 94"/>
<path stroke-width="0.5" stroke="black" d="M 103 119 339 224"/>
<path stroke-width="6.071428571428571" stroke="black" d="M 103 119 187 121"/>
<path stroke-width="11.642857142857142" stroke="black" d="M 103 119 231 196"/>
<path stroke-width="0.5" stroke="black" d="M 54 192 328 116"/>
<path stroke-width="0.5" stroke="black" d="M 54 192 420 161"/>
<path stroke-width="0.5" stroke="black" d="M 54 192 80 56"/>
<path stroke-width="0.5" stroke="black" d="M 54 192 170 20"/>
<path stroke-width="0.5" stroke="black" d="M 54 192 233 317"/>
<path stroke-width="0.5" stroke="black" d="M 54 192 103 119"/>
<path stroke-width="0.5" stroke="black" d="M 54 192 62 259"/>
<path stroke-width="0.5" stroke="black" d="M 54 192 293 320"/>
<path stroke-width="0.5" stroke="black" d="M 54 192 278 29"/>
<path stroke-width="0.5" stroke="black" d="M 54 192 199 307"/>
<path stroke-width="0.5" stroke="black" d="M 54 192 343 290"/>
<path stroke-width="0.5" stroke="black" d="M 54 192 133 232"/>
<path stroke-width="0.5" stroke="black" d="M 54 192 237 197"/>
<path stroke-width="0.5" stroke="black" d="M 54 192 315 39"/>
<path stroke-width="0.5" stroke="black" d="M 54 192 130 302"/>
<path stroke-width="0.5" stroke="black" d="M 54 192 20 179"/>
<path stroke-width="0.5" stroke="black" d="M 54 192 400 237"/>
<path stroke-width="0.5" stroke="black" d="M 293 320 170 20"/>
<path stroke-width="0.5" stroke="black" d="M 293 320 233 317"/>
<path stroke-width="0.5" stroke="black" d="M 293 320 103 119"/>
<path stroke-width="0.5" stroke="black" d="M 293 320 54 192"/>
<path stroke-width="0.5" stroke="black" d="M 278 29 20 179"/>
<path stroke-width="0.5" stroke="black" d="M 278 29 400 237"/>
<path stroke-width="0.5" stroke="black" d="M 278 29 396 94"/>
<path stroke-width="0.5" stroke="black" d="M 278 29 339 224"/>
<path stroke-width="6.071428571428571" stroke="black" d="M 278 29 187 121"/>
<path stroke-width="11.642857142857142" stroke="black" d="M 278 29 231 196"/>
<path stroke-width="0.5" stroke="black" d="M 199 307 328 116"/>
<path stroke-width="0.5" stroke="black" d="M 199 307 420 161"/>
<path stroke-width="0.5" stroke="black" d="M 199 307 80 56"/>
<path stroke-width="0.5" stroke="black" d="M 199 307 170 20"/>
<path stroke-width="0.5" stroke="black" d="M 199 307 233 317"/>
<path stroke-width="0.5" stroke="black" d="M 199 307 103 119"/>
<path stroke-width="0.5" stroke="black" d="M 199 307 54 192"/>
<path stroke-width="0.5" stroke="black" d="M 199 307 62 259"/>
<path stroke-width="0.5" stroke="black" d="M 199 307 293 320"/>
<path stroke-width="0.5" stroke="black" d="M 199 307 278 29"/>
<path stroke-width="0.5" stroke="black" d="M 199 307 343 290"/>
<path stroke-width="0.5" stroke="black" d="M 199 307 133 232"/>
<path stroke-width="8.857142857142858" stroke="black" d="M 199 307 237 197"/>
<path stroke-width="0.5" stroke="black" d="M 199 307 315 39"/>
<path stroke-width="0.5" stroke="black" d="M 199 307 130 302"/>
<path stroke-width="0.5" stroke="black" d="M 199 307 20 179"/>
<path stroke-width="0.5" stroke="black" d="M 199 307 400 237"/>
<path stroke-width="0.5" stroke="black" d="M 199 307 396 94"/>
<path stroke-width="0.5" stroke="black" d="M 199 307 339 224"/>
<path stroke-width="0.5" stroke="black" d="M 278 29 130 302"/>
<path stroke-width="0.5" stroke="black" d="M 103 119 237 197"/>
<path stroke-width="0.5" stroke="black" d="M 278 29 315 39"/>
<path stroke-width="0.5" stroke="black" d="M 278 29 133 232"/>
<path stroke-width="0.5" stroke="black" d="M 293 320 62 259"/>
<path stroke-width="0.5" stroke="black" d="M 293 320 278 29"/>
<path stroke-width="0.5" stroke="black" d="M 293 320 199 307"/>
<path stroke-width="0.5" stroke="black" d="M 293 320 343 290"/>
<path stroke-width="0.5" stroke="black" d="M 293 320 133 232"/>
<path stroke-width="0.5" stroke="black" d="M 293 320 237 197"/>
<path stroke-width="0.5" stroke="black" d="M 293 320 315 39"/>
<path stroke-width="8.857142857142858" stroke="black" d="M 293 320 130 302"/>
<path stroke-width="0.5" stroke="black" d="M 293 320 20 179"/>
<path stroke-width="0.5" stroke="black" d="M 293 320 400 237"/>
<path stroke-width="0.5" stroke="black" d="M 293 320 396 94"/>
<path stroke-width="0.5" stroke="black" d="M 293 320 339 224"/>
<path stroke-width="6.071428571428571" stroke="black" d="M 293 320 187 121"/>
<path stroke-width="11.642857142857142" stroke="black" d="M 293 320 231 196"/>
<path stroke-width="8.857142857142858" stroke="black" d="M 278 29 328 116"/>
<path stroke-width="0.5" stroke="black" d="M 278 29 420 161"/>
<path stroke-width="0.5" stroke="black" d="M 278 29 80 56"/>
<path stroke-width="0.5" stroke="black" d="M 278 29 170 20"/>
<path stroke-width="0.5" stroke="black" d="M 278 29 233 317"/>
<path stroke-width="0.5" stroke="black" d="M 278 29 103 119"/>
<path stroke-width="0.5" stroke="black" d="M 278 29 54 192"/>
<path stroke-width="0.5" stroke="black" d="M 278 29 62 259"/>
<path stroke-width="0.5" stroke="black" d="M 278 29 293 320"/>
<path stroke-width="0.5" stroke="black" d="M 278 29 199 307"/>
<path stroke-width="0.5" stroke="black" d="M 278 29 343 290"/>
<path stroke-width="0.5" stroke="black" d="M 278 29 237 197"/>
<path stroke-width="0.5" stroke="black" d="M 103 119 133 232"/>
<path stroke-width="0.5" stroke="black" d="M 103 119 343 290"/>
<path stroke-width="0.5" stroke="black" d="M 103 119 199 307"/>
<path stroke-width="0.5" stroke="black" d="M 420 161 343 290"/>
<path stroke-width="0.5" stroke="black" d="M 420 161 133 232"/>
<path stroke-width="0.5" stroke="black" d="M 420 161 237 197"/>
<path stroke-width="8.857142857142858" stroke="black" d="M 420 161 315 39"/>
<path stroke-width="0.5" stroke="black" d="M 420 161 130 302"/>
<path stroke-width="0.5" stroke="black" d="M 420 161 20 179"/>
<path stroke-width="0.5" stroke="black" d="M 420 161 400 237"/>
<path stroke-width="0.5" stroke="black" d="M 420 161 396 94"/>
<path stroke-width="0.5" stroke="black" d="M 420 161 339 224"/>
<path stroke-width="6.071428571428571" stroke="black" d="M 420 161 187 121"/>
<path stroke-width="11.642857142857142" stroke="black" d="M 420 161 231 196"/>
<path stroke-width="0.5" stroke="black" d="M 80 56 328 116"/>
<path stroke-width="0.5" stroke="black" d="M 80 56 420 161"/>
<path stroke-width="0.5" stroke="black" d="M 80 56 170 20"/>
<path stroke-width="0.5" stroke="black" d="M 80 56 233 317"/>
<path stroke-width="0.5" stroke="black" d="M 80 56 103 119"/>
<path stroke-width="0.5" stroke="black" d="M 80 56 54 192"/>
<path stroke-width="0.5" stroke="black" d="M 80 56 62 259"/>
<path stroke-width="0.5" stroke="black" d="M 80 56 293 320"/>
<path stroke-width="0.5" stroke="black" d="M 80 56 278 29"/>
<path stroke-width="0.5" stroke="black" d="M 80 56 199 307"/>
<path stroke-width="0.5" stroke="black" d="M 80 56 343 290"/>
<path stroke-width="0.5" stroke="black" d="M 80 56 133 232"/>
<path stroke-width="0.5" stroke="black" d="M 80 56 237 197"/>
<path stroke-width="0.5" stroke="black" d="M 80 56 315 39"/>
<path stroke-width="0.5" stroke="black" d="M 420 161 199 307"/>
<path stroke-width="0.5" stroke="black" d="M 80 56 130 302"/>
<path stroke-width="0.5" stroke="black" d="M 420 161 278 29"/>
<path stroke-width="0.5" stroke="black" d="M 420 161 62 259"/>
<path stroke-width="0.5" stroke="black" d="M 328 116 170 20"/>
<path stroke-width="0.5" stroke="black" d="M 328 116 233 317"/>
<path stroke-width="0.5" stroke="black" d="M 328 116 103 119"/>
<path stroke-width="0.5" stroke="black" d="M 328 116 54 192"/>
<path stroke-width="0.5" stroke="black" d="M 328 116 62 259"/>
<path stroke-width="0.5" stroke="black" d="M 328 116 293 320"/>
<path stroke-width="8.857142857142858" stroke="black" d="M 328 116 278 29"/>
<path stroke-width="0.5" stroke="black" d="M 328 116 199 307"/>
<path stroke-width="0.5" stroke="black" d="M 328 116 343 290"/>
<path stroke-width="0.5" stroke="black" d="M 328 116 133 232"/>
<path stroke-width="0.5" stroke="black" d="M 328 116 237 197"/>
<path stroke-width="0.5" stroke="black" d="M 328 116 315 39"/>
<path stroke-width="0.5" stroke="black" d="M 328 116 130 302"/>
<path stroke-width="0.5" stroke="black" d="M 328 116 20 179"/>
<path stroke-width="0.5" stroke="black" d="M 328 116 400 237"/>
<path stroke-width="0.5" stroke="black" d="M 328 116 396 94"/>
<path stroke-width="0.5" stroke="black" d="M 328 116 339 224"/>
<path stroke-width="6.071428571428571" stroke="black" d="M 328 116 187 121"/>
<path stroke-width="11.642857142857142" stroke="black" d="M 328 116 231 196"/>
<path stroke-width="0.5" stroke="black" d="M 420 161 328 116"/>
<path stroke-width="0.5" stroke="black" d="M 420 161 80 56"/>
<path stroke-width="0.5" stroke="black" d="M 420 161 170 20"/>
<path stroke-width="0.5" stroke="black" d="M 420 161 233 317"/>
<path stroke-width="0.5" stroke="black" d="M 420 161 103 119"/>
<path stroke-width="0.5" stroke="black" d="M 420 161 54 192"/>
<path stroke-width="0.5" stroke="black" d="M 420 161 293 320"/>
<path stroke-width="6.071428571428571" stroke="black" d="M 199 307 187 121"/>
<path stroke-width="0.5" stroke="black" d="M 80 56 20 179"/>
<path stroke-width="0.5" stroke="black" d="M 80 56 396 94"/>
<path stroke-width="0.5" stroke="black" d="M 233 317 54 192"/>
<path stroke-width="0.5" stroke="black" d="M 233 317 62 259"/>
<path stroke-width="0.5" stroke="black" d="M 233 317 293 320"/>
<path stroke-width="0.5" stroke="black" d="M 233 317 278 29"/>
<path stroke-width="0.5" stroke="black" d="M 233 317 199 307"/>
<path stroke-width="0.5" stroke="black" d="M 233 317 343 290"/>
<path stroke-width="0.5" stroke="black" d="M 233 317 133 232"/>
<path stroke-width="0.5" stroke="black" d="M 233 317 237 197"/>
<path stroke-width="0.5" stroke="black" d="M 233 317 315 39"/>
<path stroke-width="0.5" stroke="black" d="M 233 317 130 302"/>
<path stroke-width="0.5" stroke="black" d="M 233 317 20 179"/>
<path stroke-width="0.5" stroke="black" d="M 233 317 400 237"/>
<path stroke-width="0.5" stroke="black" d="M 233 317 396 94"/>
<path stroke-width="0.5" stroke="black" d="M 233 317 339 224"/>
<path stroke-width="6.071428571428571" stroke="black" d="M 233 317 187 121"/>
<path stroke-width="20.0" stroke="black" d="M 233 317 231 196"/>
<path stroke-width="0.5" stroke="black" d="M 103 119 328 116"/>
<path stroke-width="0.5" stroke="black" d="M 103 119 420 161"/>
<path stroke-width="0.5" stroke="black" d="M 103 119 80 56"/>
<path stroke-width="0.5" stroke="black" d="M 103 119 170 20"/>
<path stroke-width="0.5" stroke="black" d="M 103 119 233 317"/>
<path stroke-width="0.5" stroke="black" d="M 103 119 54 192"/>
<path stroke-width="0.5" stroke="black" d="M 103 119 62 259"/>
<path stroke-width="0.5" stroke="black" d="M 103 119 293 320"/>
<path stroke-width="0.5" stroke="black" d="M 103 119 278 29"/>
<path stroke-width="0.5" stroke="black" d="M 233 317 103 119"/>
<path stroke-width="0.5" stroke="black" d="M 80 56 400 237"/>
<path stroke-width="0.5" stroke="black" d="M 233 317 170 20"/>
<path stroke-width="0.5" stroke="black" d="M 233 317 420 161"/>
<path stroke-width="0.5" stroke="black" d="M 80 56 339 224"/>
<path stroke-width="6.071428571428571" stroke="black" d="M 80 56 187 121"/>
<path stroke-width="20.0" stroke="black" d="M 80 56 231 196"/>
<path stroke-width="0.5" stroke="black" d="M 170 20 328 116"/>
<path stroke-width="0.5" stroke="black" d="M 170 20 420 161"/>
<path stroke-width="0.5" stroke="black" d="M 170 20 80 56"/>
<path stroke-width="0.5" stroke="black" d="M 170 20 233 317"/>
<path stroke-width="0.5" stroke="black" d="M 170 20 103 119"/>
<path stroke-width="0.5" stroke="black" d="M 170 20 54 192"/>
<path stroke-width="0.5" stroke="black" d="M 170 20 62 259"/>
<path stroke-width="0.5" stroke="black" d="M 170 20 293 320"/>
<path stroke-width="0.5" stroke="black" d="M 170 20 278 29"/>
<path stroke-width="0.5" stroke="black" d="M 170 20 199 307"/>
<path stroke-width="0.5" stroke="black" d="M 170 20 343 290"/>
<path stroke-width="0.5" stroke="black" d="M 170 20 133 232"/>
<path stroke-width="0.5" stroke="black" d="M 170 20 237 197"/>
<path stroke-width="0.5" stroke="black" d="M 170 20 315 39"/>
<path stroke-width="0.5" stroke="black" d="M 170 20 130 302"/>
<path stroke-width="0.5" stroke="black" d="M 170 20 20 179"/>
<path stroke-width="0.5" stroke="black" d="M 170 20 400 237"/>
<path stroke-width="8.857142857142858" stroke="black" d="M 170 20 396 94"/>
<path stroke-width="0.5" stroke="black" d="M 170 20 339 224"/>
<path stroke-width="6.071428571428571" stroke="black" d="M 170 20 187 121"/>
<path stroke-width="11.642857142857142" stroke="black" d="M 170 20 231 196"/>
<path stroke-width="0.5" stroke="black" d="M 233 317 328 116"/>
<path stroke-width="0.5" stroke="black" d="M 233 317 80 56"/>
<path stroke-width="11.642857142857142" stroke="black" d="M 199 307 231 196"/>
<path stroke-width="0.5" stroke="black" d="M 343 290 328 116"/>
<path stroke-width="0.5" stroke="black" d="M 343 290 420 161"/>
<path stroke-width="0.5" stroke="black" d="M 396 94 328 116"/>
<path stroke-width="0.5" stroke="black" d="M 396 94 420 161"/>
<path stroke-width="0.5" stroke="black" d="M 396 94 80 56"/>
<path stroke-width="8.857142857142858" stroke="black" d="M 396 94 170 20"/>
<path stroke-width="0.5" stroke="black" d="M 396 94 233 317"/>
<path stroke-width="0.5" stroke="black" d="M 396 94 103 119"/>
<path stroke-width="0.5" stroke="black" d="M 396 94 54 192"/>
<path stroke-width="0.5" stroke="black" d="M 396 94 62 259"/>
<path stroke-width="0.5" stroke="black" d="M 396 94 293 320"/>
<path stroke-width="0.5" stroke="black" d="M 396 94 278 29"/>
<path stroke-width="0.5" stroke="black" d="M 396 94 199 307"/>
<path stroke-width="0.5" stroke="black" d="M 396 94 343 290"/>
<path stroke-width="0.5" stroke="black" d="M 396 94 133 232"/>
<path stroke-width="0.5" stroke="black" d="M 396 94 237 197"/>
<path stroke-width="0.5" stroke="black" d="M 396 94 315 39"/>
<path stroke-width="0.5" stroke="black" d="M 396 94 130 302"/>
<path stroke-width="0.5" stroke="black" d="M 396 94 20 179"/>
<path stroke-width="0.5" stroke="black" d="M 396 94 400 237"/>
<path stroke-width="0.5" stroke="black" d="M 396 94 339 224"/>
<path stroke-width="0.5" stroke="black" d="M 396 94 187 121"/>
<path stroke-width="11.642857142857142" stroke="black" d="M 396 94 231 196"/>
<path stroke-width="0.5" stroke="black" d="M 339 224 328 116"/>
<path stroke-width="0.5" stroke="black" d="M 339 224 420 161"/>
<path stroke-width="0.5" stroke="black" d="M 339 224 80 56"/>
<path stroke-width="0.5" stroke="black" d="M 339 224 170 20"/>
<path stroke-width="11.642857142857142" stroke="black" d="M 400 237 231 196"/>
<path stroke-width="0.5" stroke="black" d="M 339 224 233 317"/>
<path stroke-width="3.2857142857142856" stroke="black" d="M 400 237 187 121"/>
<path stroke-width="0.5" stroke="black" d="M 400 237 396 94"/>
<path stroke-width="0.5" stroke="black" d="M 20 179 237 197"/>
<path stroke-width="0.5" stroke="black" d="M 20 179 315 39"/>
<path stroke-width="0.5" stroke="black" d="M 20 179 130 302"/>
<path stroke-width="0.5" stroke="black" d="M 20 179 400 237"/>
<path stroke-width="0.5" stroke="black" d="M 20 179 396 94"/>
<path stroke-width="0.5" stroke="black" d="M 20 179 339 224"/>
<path stroke-width="6.071428571428571" stroke="black" d="M 20 179 187 121"/>
<path stroke-width="11.642857142857142" stroke="black" d="M 20 179 231 196"/>
<path stroke-width="0.5" stroke="black" d="M 400 237 328 116"/>
<path stroke-width="0.5" stroke="black" d="M 400 237 420 161"/>
<path stroke-width="0.5" stroke="black" d="M 400 237 80 56"/>
<path stroke-width="0.5" stroke="black" d="M 400 237 170 20"/>
<path stroke-width="0.5" stroke="black" d="M 400 237 233 317"/>
<path stroke-width="8.857142857142858" stroke="black" d="M 400 237 103 119"/>
<path stroke-width="0.5" stroke="black" d="M 400 237 54 192"/>
<path stroke-width="0.5" stroke="black" d="M 400 237 62 259"/>
<path stroke-width="0.5" stroke="black" d="M 400 237 293 320"/>
<path stroke-width="0.5" stroke="black" d="M 400 237 278 29"/>
<path stroke-width="0.5" stroke="black" d="M 400 237 199 307"/>
<path stroke-width="0.5" stroke="black" d="M 400 237 343 290"/>
<path stroke-width="0.5" stroke="black" d="M 400 237 133 232"/>
<path stroke-width="0.5" stroke="black" d="M 400 237 237 197"/>
<path stroke-width="0.5" stroke="black" d="M 400 237 315 39"/>
<path stroke-width="0.5" stroke="black" d="M 400 237 130 302"/>
<path stroke-width="0.5" stroke="black" d="M 400 237 20 179"/>
<path stroke-width="0.5" stroke="black" d="M 400 237 339 224"/>
<path stroke-width="0.5" stroke="black" d="M 20 179 133 232"/>
<path stroke-width="0.5" stroke="black" d="M 339 224 103 119"/>
<path stroke-width="0.5" stroke="black" d="M 339 224 62 259"/>
<path stroke-width="6.071428571428571" stroke="black" d="M 187 121 20 179"/>
<path stroke-width="3.2857142857142856" stroke="black" d="M 187 121 400 237"/>
<path stroke-width="0.5" stroke="black" d="M 187 121 396 94"/>
<path stroke-width="6.071428571428571" stroke="black" d="M 187 121 339 224"/>
<path stroke-width="11.642857142857142" stroke="black" d="M 187 121 231 196"/>
<path stroke-width="11.642857142857142" stroke="black" d="M 231 196 328 116"/>
<path stroke-width="11.642857142857142" stroke="black" d="M 231 196 420 161"/>
<path stroke-width="20.0" stroke="black" d="M 231 196 80 56"/>
<path stroke-width="11.642857142857142" stroke="black" d="M 231 196 170 20"/>
<path stroke-width="20.0" stroke="black" d="M 231 196 233 317"/>
<path stroke-width="11.642857142857142" stroke="black" d="M 231 196 103 119"/>
<path stroke-width="11.642857142857142" stroke="black" d="M 231 196 54 192"/>
<path stroke-width="11.642857142857142" stroke="black" d="M 231 196 62 259"/>
<path stroke-width="11.642857142857142" stroke="black" d="M 231 196 293 320"/>
<path stroke-width="11.642857142857142" stroke="black" d="M 231 196 278 29"/>
<path stroke-width="11.642857142857142" stroke="black" d="M 231 196 199 307"/>
<path stroke-width="11.642857142857142" stroke="black" d="M 231 196 343 290"/>
<path stroke-width="11.642857142857142" stroke="black" d="M 231 196 133 232"/>
<path stroke-width="11.642857142857142" stroke="black" d="M 231 196 237 197"/>
<path stroke-width="11.642857142857142" stroke="black" d="M 231 196 315 39"/>
<path stroke-width="11.642857142857142" stroke="black" d="M 231 196 130 302"/>
<path stroke-width="11.642857142857142" stroke="black" d="M 231 196 20 179"/>
<path stroke-width="11.642857142857142" stroke="black" d="M 231 196 400 237"/>
<path stroke-width="11.642857142857142" stroke="black" d="M 231 196 396 94"/>
<path stroke-width="20.0" stroke="black" d="M 231 196 339 224"/>
<path stroke-width="6.071428571428571" stroke="black" d="M 187 121 130 302"/>
<path stroke-width="0.5" stroke="black" d="M 339 224 54 192"/>
<path stroke-width="6.071428571428571" stroke="black" d="M 187 121 315 39"/>
<path stroke-width="6.071428571428571" stroke="black" d="M 187 121 133 232"/>
<path stroke-width="0.5" stroke="black" d="M 339 224 293 320"/>
<path stroke-width="0.5" stroke="black" d="M 339 224 278 29"/>
<path stroke-width="0.5" stroke="black" d="M 339 224 199 307"/>
<path stroke-width="0.5" stroke="black" d="M 339 224 343 290"/>
<path stroke-width="0.5" stroke="black" d="M 339 224 133 232"/>
<path stroke-width="0.5" stroke="black" d="M 339 224 237 197"/>
<path stroke-width="0.5" stroke="black" d="M 339 224 315 39"/>
<path stroke-width="0.5" stroke="black" d="M 339 224 130 302"/>
<path stroke-width="0.5" stroke="black" d="M 339 224 20 179"/>
<path stroke-width="0.5" stroke="black" d="M 339 224 400 237"/>
<path stroke-width="0.5" stroke="black" d="M 339 224 396 94"/>
<path stroke-width="6.071428571428571" stroke="black" d="M 339 224 187 121"/>
<path stroke-width="20.0" stroke="black" d="M 339 224 231 196"/>
<path stroke-width="6.071428571428571" stroke="black" d="M 187 121 328 116"/>
<path stroke-width="6.071428571428571" stroke="black" d="M 187 121 420 161"/>
<path stroke-width="6.071428571428571" stroke="black" d="M 187 121 80 56"/>
<path stroke-width="6.071428571428571" stroke="black" d="M 187 121 170 20"/>
<path stroke-width="6.071428571428571" stroke="black" d="M 187 121 233 317"/>
<path stroke-width="6.071428571428571" stroke="black" d="M 187 121 103 119"/>
<path stroke-width="14.428571428571429" stroke="black" d="M 187 121 54 192"/>
<path stroke-width="6.071428571428571" stroke="black" d="M 187 121 62 259"/>
<path stroke-width="6.071428571428571" stroke="black" d="M 187 121 293 320"/>
<path stroke-width="6.071428571428571" stroke="black" d="M 187 121 278 29"/>
<path stroke-width="6.071428571428571" stroke="black" d="M 187 121 199 307"/>
<path stroke-width="6.071428571428571" stroke="black" d="M 187 121 343 290"/>
<path stroke-width="6.071428571428571" stroke="black" d="M 187 121 237 197"/>
<path stroke-width="0.5" stroke="black" d="M 328 116 80 56"/>
<path stroke-width="0.5" stroke="black" d="M 20 179 343 290"/>
<path stroke-width="0.5" stroke="black" d="M 20 179 278 29"/>
<path stroke-width="0.5" stroke="black" d="M 133 232 199 307"/>
<path stroke-width="8.857142857142858" stroke="black" d="M 133 232 343 290"/>
<path stroke-width="0.5" stroke="black" d="M 133 232 237 197"/>
<path stroke-width="0.5" stroke="black" d="M 133 232 315 39"/>
<path stroke-width="0.5" stroke="black" d="M 133 232 130 302"/>
<path stroke-width="0.5" stroke="black" d="M 133 232 20 179"/>
<path stroke-width="0.5" stroke="black" d="M 133 232 400 237"/>
<path stroke-width="0.5" stroke="black" d="M 133 232 396 94"/>
<path stroke-width="0.5" stroke="black" d="M 133 232 339 224"/>
<path stroke-width="6.071428571428571" stroke="black" d="M 133 232 187 121"/>
<path stroke-width="11.642857142857142" stroke="black" d="M 133 232 231 196"/>
<path stroke-width="0.5" stroke="black" d="M 237 197 328 116"/>
<path stroke-width="0.5" stroke="black" d="M 237 197 420 161"/>
<path stroke-width="0.5" stroke="black" d="M 237 197 80 56"/>
<path stroke-width="0.5" stroke="black" d="M 237 197 170 20"/>
<path stroke-width="0.5" stroke="black" d="M 237 197 233 317"/>
<path stroke-width="0.5" stroke="black" d="M 237 197 103 119"/>
<path stroke-width="0.5" stroke="black" d="M 237 197 54 192"/>
<path stroke-width="0.5" stroke="black" d="M 237 197 62 259"/>
<path stroke-width="0.5" stroke="black" d="M 237 197 293 320"/>
<path stroke-width="0.5" stroke="black" d="M 237 197 278 29"/>
<path stroke-width="8.857142857142858" stroke="black" d="M 237 197 199 307"/>
<path stroke-width="0.5" stroke="black" d="M 237 197 343 290"/>
<path stroke-width="0.5" stroke="black" d="M 237 197 133 232"/>
<path stroke-width="0.5" stroke="black" d="M 237 197 315 39"/>
<path stroke-width="0.5" stroke="black" d="M 133 232 278 29"/>
<path stroke-width="0.5" stroke="black" d="M 237 197 130 302"/>
<path stroke-width="0.5" stroke="black" d="M 133 232 293 320"/>
<path stroke-width="0.5" stroke="black" d="M 133 232 54 192"/>
<path stroke-width="0.5" stroke="black" d="M 343 290 80 56"/>
<path stroke-width="0.5" stroke="black" d="M 343 290 170 20"/>
<path stroke-width="0.5" stroke="black" d="M 343 290 233 317"/>
<path stroke-width="0.5" stroke="black" d="M 343 290 103 119"/>
<path stroke-width="0.5" stroke="black" d="M 343 290 54 192"/>
<path stroke-width="0.5" stroke="black" d="M 343 290 62 259"/>
<path stroke-width="0.5" stroke="black" d="M 343 290 293 320"/>
<path stroke-width="0.5" stroke="black" d="M 343 290 278 29"/>
<path stroke-width="0.5" stroke="black" d="M 343 290 199 307"/>
<path stroke-width="8.857142857142858" stroke="black" d="M 343 290 133 232"/>
<path stroke-width="0.5" stroke="black" d="M 343 290 237 197"/>
<path stroke-width="0.5" stroke="black" d="M 343 290 315 39"/>
<path stroke-width="0.5" stroke="black" d="M 343 290 130 302"/>
<path stroke-width="0.5" stroke="black" d="M 343 290 20 179"/>
<path stroke-width="0.5" stroke="black" d="M 343 290 400 237"/>
<path stroke-width="0.5" stroke="black" d="M 343 290 396 94"/>
<path stroke-width="0.5" stroke="black" d="M 343 290 339 224"/>
<path stroke-width="6.071428571428571" stroke="black" d="M 343 290 187 121"/>
<path stroke-width="11.642857142857142" stroke="black" d="M 343 290 231 196"/>
<path stroke-width="0.5" stroke="black" d="M 133 232 328 116"/>
<path stroke-width="0.5" stroke="black" d="M 133 232 420 161"/>
<path stroke-width="0.5" stroke="black" d="M 133 232 80 56"/>
<path stroke-width="0.5" stroke="black" d="M 133 232 170 20"/>
<path stroke-width="0.5" stroke="black" d="M 133 232 233 317"/>
<path stroke-width="0.5" stroke="black" d="M 133 232 103 119"/>
<path stroke-width="0.5" stroke="black" d="M 133 232 62 259"/>
<path stroke-width="0.5" stroke="black" d="M 20 179 199 307"/>
<path stroke-width="0.5" stroke="black" d="M 237 197 20 179"/>
<path stroke-width="0.5" stroke="black" d="M 237 197 396 94"/>
<path stroke-width="0.5" stroke="black" d="M 130 302 103 119"/>
<path stroke-width="0.5" stroke="black" d="M 130 302 54 192"/>
<path stroke-width="0.5" stroke="black" d="M 130 302 62 259"/>
<path stroke-width="8.857142857142858" stroke="black" d="M 130 302 293 320"/>
<path stroke-width="0.5" stroke="black" d="M 130 302 278 29"/>
<path stroke-width="0.5" stroke="black" d="M 130 302 199 307"/>
<path stroke-width="0.5" stroke="black" d="M 130 302 343 290"/>
<path stroke-width="0.5" stroke="black" d="M 130 302 133 232"/>
<path stroke-width="0.5" stroke="black" d="M 130 302 237 197"/>
<path stroke-width="0.5" stroke="black" d="M 130 302 315 39"/>
<path stroke-width="0.5" stroke="black" d="M 130 302 20 179"/>
<path stroke-width="0.5" stroke="black" d="M 130 302 400 237"/>
<path stroke-width="0.5" stroke="black" d="M 130 302 396 94"/>
<path stroke-width="0.5" stroke="black" d="M 130 302 339 224"/>
<path stroke-width="6.071428571428571" stroke="black" d="M 130 302 187 121"/>
<path stroke-width="11.642857142857142" stroke="black" d="M 130 302 231 196"/>
<path stroke-width="0.5" stroke="black" d="M 20 179 328 116"/>
<path stroke-width="0.5" stroke="black" d="M 20 179 420 161"/>
<path stroke-width="0.5" stroke="black" d="M 20 179 80 56"/>
<path stroke-width="0.5" stroke="black" d="M 20 179 170 20"/>
<path stroke-width="0.5" stroke="black" d="M 20 179 233 317"/>
<path stroke-width="0.5" stroke="black" d="M 20 179 103 119"/>
<path stroke-width="0.5" stroke="black" d="M 20 179 54 192"/>
<path stroke-width="8.857142857142858" stroke="black" d="M 20 179 62 259"/>
<path stroke-width="0.5" stroke="black" d="M 20 179 293 320"/>
<path stroke-width="0.5" stroke="black" d="M 130 302 233 317"/>
<path stroke-width="0.5" stroke="black" d="M 237 197 400 237"/>
<path stroke-width="0.5" stroke="black" d="M 130 302 170 20"/>
<path stroke-width="0.5" stroke="black" d="M 130 302 420 161"/>
<path stroke-width="0.5" stroke="black" d="M 237 197 339 224"/>
<path stroke-width="6.071428571428571" stroke="black" d="M 237 197 187 121"/>
<path stroke-width="11.642857142857142" stroke="black" d="M 237 197 231 196"/>
<path stroke-width="0.5" stroke="black" d="M 315 39 328 116"/>
<path stroke-width="8.857142857142858" stroke="black" d="M 315 39 420 161"/>
<path stroke-width="0.5" stroke="black" d="M 315 39 80 56"/>
<path stroke-width="0.5" stroke="black" d="M 315 39 170 20"/>
<path stroke-width="0.5" stroke="black" d="M 315 39 233 317"/>
<path stroke-width="0.5" stroke="black" d="M 315 39 103 119"/>
<path stroke-width="0.5" stroke="black" d="M 315 39 54 192"/>
<path stroke-width="0.5" stroke="black" d="M 315 39 62 259"/>
<path stroke-width="0.5" stroke="black" d="M 315 39 293 320"/>
<path stroke-width="0.5" stroke="black" d="M 315 39 278 29"/>
<path stroke-width="0.5" stroke="black" d="M 315 39 199 307"/>
<path stroke-width="0.5" stroke="black" d="M 315 39 343 290"/>
<path stroke-width="0.5" stroke="black" d="M 315 39 133 232"/>
<path stroke-width="0.5" stroke="black" d="M 315 39 237 197"/>
<path stroke-width="0.5" stroke="black" d="M 315 39 130 302"/>
<path stroke-width="0.5" stroke="black" d="M 315 39 20 179"/>
<path stroke-width="0.5" stroke="black" d="M 315 39 400 237"/>
<path stroke-width="0.5" stroke="black" d="M 315 39 396 94"/>
<path stroke-width="0.5" stroke="black" d="M 315 39 339 224"/>
<path stroke-width="6.071428571428571" stroke="black" d="M 315 39 187 121"/>
<path stroke-width="11.642857142857142" stroke="black" d="M 315 39 231 196"/>
<path stroke-width="0.5" stroke="black" d="M 130 302 328 116"/>
<path stroke-width="0.5" stroke="black" d="M 130 302 80 56"/>
<path stroke-width="0.5" stroke="black" d="M 328 116 420 161"/>
<circle cx="231" cy="196" r="7.0" style="fill:red;stroke:black;stroke-width:1.0"/>
<circle cx="187" cy="121" r="7.0" style="fill:blue;stroke:black;stroke-width:1.0"/>
<circle cx="339" cy="224" r="7.0" style="fill:red;stroke:black;stroke-width:1.0"/>
<circle cx="396" cy="94" r="7.0" style="fill:red;stroke:black;stroke-width:1.0"/>
<circle cx="400" cy="237" r="7.0" style="fill:red;stroke:black;stroke-width:1.0"/>
<circle cx="20" cy="179" r="7.0" style="fill:green;stroke:black;stroke-width:1.0"/>
<circle cx="130" cy="302" r="7.0" style="fill:blue;stroke:black;stroke-width:1.0"/>
<circle cx="315" cy="39" r="7.0" style="fill:orange;stroke:black;stroke-width:1.0"/>
<circle cx="237" cy="197" r="7.0" style="fill:blue;stroke:black;stroke-width:1.0"/>
<circle cx="133" cy="232" r="7.0" style="fill:blue;stroke:black;stroke-width:1.0"/>
<circle cx="343" cy="290" r="7.0" style="fill:blue;stroke:black;stroke-width:1.0"/>
<circle cx="199" cy="307" r="7.0" style="fill:blue;stroke:black;stroke-width:1.0"/>
<circle cx="278" cy="29" r="7.0" style="fill:purple;stroke:black;stroke-width:1.0"/>
<circle cx="293" cy="320" r="7.0" style="fill:blue;stroke:black;stroke-width:1.0"/>
<circle cx="62" cy="259" r="7.0" style="fill:green;stroke:black;stroke-width:1.0"/>
<circle cx="54" cy="192" r="7.0" style="fill:blue;stroke:black;stroke-width:1.0"/>
<circle cx="103" cy="119" r="7.0" style="fill:red;stroke:black;stroke-width:1.0"/>
<circle cx="233" cy="317" r="7.0" style="fill:red;stroke:black;stroke-width:1.0"/>
<circle cx="170" cy="20" r="7.0" style="fill:red;stroke:black;stroke-width:1.0"/>
<circle cx="80" cy="56" r="7.0" style="fill:red;stroke:black;stroke-width:1.0"/>
<circle cx="420" cy="161" r="7.0" style="fill:orange;stroke:black;stroke-width:1.0"/>
<circle cx="328" cy="116" r="7.0" style="fill:purple;stroke:black;stroke-width:1.0"/>
</svg>
