<svg width="440" height="340" xmlns="http://www.w3.org/2000/svg">
<path stroke-width="1" stroke="black" d="M 222 158 239 179"/>
<path stroke-width="1" stroke="black" d="M 133 235 62 180"/>
<path stroke-width="1" stroke="black" d="M 133 235 406 113"/>
<path stroke-width="1" stroke="black" d="M 133 235 288 293"/>
<path stroke-width="1" stroke="black" d="M 133 235 100 47"/>
<path stroke-width="1" stroke="black" d="M 133 235 193 83"/>
<path stroke-width="1" stroke="black" d="M 133 235 347 69"/>
<path stroke-width="1" stroke="black" d="M 133 235 280 320"/>
<path stroke-width="1" stroke="black" d="M 133 235 349 158"/>
<path stroke-width="1" stroke="black" d="M 133 235 381 237"/>
<path stroke-width="1" stroke="black" d="M 133 235 24 132"/>
<path stroke-width="1" stroke="black" d="M 133 235 420 189"/>
<path stroke-width="1" stroke="black" d="M 280 320 222 158"/>
<path stroke-width="1" stroke="black" d="M 133 235 255 56"/>
<path stroke-width="1" stroke="black" d="M 133 235 237 20"/>
<path stroke-width="1" stroke="black" d="M 133 235 216 317"/>
<path stroke-width="1" stroke="black" d="M 133 235 20 239"/>
<path stroke-width="1" stroke="black" d="M 133 235 362 293"/>
<path stroke-width="1" stroke="black" d="M 133 235 112 300"/>
<path stroke-width="1" stroke="black" d="M 133 235 94 95"/>
<path stroke-width="1" stroke="black" d="M 133 235 239 179"/>
<path stroke-width="1" stroke="black" d="M 133 235 222 158"/>
<path stroke-width="1" stroke="black" d="M 349 158 62 180"/>
<path stroke-width="1" stroke="black" d="M 349 158 406 113"/>
<path stroke-width="1" stroke="black" d="M 349 158 288 293"/>
<path stroke-width="1" stroke="black" d="M 133 235 117 315"/>
<path stroke-width="1" stroke="black" d="M 280 320 239 179"/>
<path stroke-width="1" stroke="black" d="M 280 320 94 95"/>
<path stroke-width="1" stroke="black" d="M 280 320 112 300"/>
<path stroke-width="1" stroke="black" d="M 347 69 237 20"/>
<path stroke-width="1" stroke="black" d="M 347 69 216 317"/>
<path stroke-width="1" stroke="black" d="M 347 69 20 239"/>
<path stroke-width="1" stroke="black" d="M 347 69 362 293"/>
<path stroke-width="1" stroke="black" d="M 347 69 112 300"/>
<path stroke-width="1" stroke="black" d="M 347 69 94 95"/>
<path stroke-width="1" stroke="black" d="M 347 69 239 179"/>
<path stroke-width="1" stroke="black" d="M 347 69 222 158"/>
<path stroke-width="1" stroke="black" d="M 280 320 62 180"/>
<path stroke-width="1" stroke="black" d="M 280 320 406 113"/>
<path stroke-width="1" stroke="black" d="M 280 320 288 293"/>
<path stroke-width="1" stroke="black" d="M 280 320 100 47"/>
<path stroke-width="1" stroke="black" d="M 280 320 193 83"/>
<path stroke-width="1" stroke="black" d="M 280 320 347 69"/>
<path stroke-width="1" stroke="black" d="M 280 320 133 235"/>
<path stroke-width="1" stroke="black" d="M 280 320 349 158"/>
<path stroke-width="1" stroke="black" d="M 280 320 381 237"/>
<path stroke-width="1" stroke="black" d="M 280 320 24 132"/>
<path stroke-width="1" stroke="black" d="M 280 320 420 189"/>
<path stroke-width="1" stroke="black" d="M 280 320 255 56"/>
<path stroke-width="1" stroke="black" d="M 280 320 117 315"/>
<path stroke-width="1" stroke="black" d="M 280 320 237 20"/>
<path stroke-width="1" stroke="black" d="M 280 320 216 317"/>
<path stroke-width="1" stroke="black" d="M 280 320 20 239"/>
<path stroke-width="1" stroke="black" d="M 280 320 362 293"/>
<path stroke-width="1" stroke="black" d="M 349 158 100 47"/>
<path stroke-width="1" stroke="black" d="M 349 158 193 83"/>
<path stroke-width="1" stroke="black" d="M 349 158 347 69"/>
<path stroke-width="1" stroke="black" d="M 349 158 280 320"/>
<path stroke-width="1" stroke="black" d="M 381 237 20 239"/>
<path stroke-width="1" stroke="black" d="M 381 237 362 293"/>
<path stroke-width="1" stroke="black" d="M 381 237 112 300"/>
<path stroke-width="1" stroke="black" d="M 381 237 94 95"/>
<path stroke-width="1" stroke="black" d="M 381 237 239 179"/>
<path stroke-width="1" stroke="black" d="M 381 237 222 158"/>
<path stroke-width="1" stroke="black" d="M 24 132 62 180"/>
<path stroke-width="1" stroke="black" d="M 24 132 406 113"/>
<path stroke-width="1" stroke="black" d="M 24 132 288 293"/>
<path stroke-width="1" stroke="black" d="M 24 132 100 47"/>
<path stroke-width="1" stroke="black" d="M 24 132 193 83"/>
<path stroke-width="1" stroke="black" d="M 24 132 347 69"/>
<path stroke-width="1" stroke="black" d="M 24 132 280 320"/>
<path stroke-width="1" stroke="black" d="M 24 132 133 235"/>
<path stroke-width="1" stroke="black" d="M 24 132 349 158"/>
<path stroke-width="1" stroke="black" d="M 24 132 381 237"/>
<path stroke-width="1" stroke="black" d="M 24 132 420 189"/>
<path stroke-width="1" stroke="black" d="M 24 132 255 56"/>
<path stroke-width="1" stroke="black" d="M 24 132 117 315"/>
<path stroke-width="1" stroke="black" d="M 24 132 237 20"/>
<path stroke-width="1" stroke="black" d="M 24 132 216 317"/>
<path stroke-width="1" stroke="black" d="M 24 132 20 239"/>
<path stroke-width="1" stroke="black" d="M 24 132 362 293"/>
<path stroke-width="1" stroke="black" d="M 24 132 112 300"/>
<path stroke-width="1" stroke="black" d="M 24 132 94 95"/>
<path stroke-width="1" stroke="black" d="M 381 237 216 317"/>
<path stroke-width="1" stroke="black" d="M 347 69 117 315"/>
<path stroke-width="1" stroke="black" d="M 381 237 237 20"/>
<path stroke-width="1" stroke="black" d="M 381 237 255 56"/>
<path stroke-width="1" stroke="black" d="M 349 158 133 235"/>
<path stroke-width="1" stroke="black" d="M 349 158 381 237"/>
<path stroke-width="1" stroke="black" d="M 349 158 24 132"/>
<path stroke-width="1" stroke="black" d="M 349 158 420 189"/>
<path stroke-width="1" stroke="black" d="M 349 158 255 56"/>
<path stroke-width="1" stroke="black" d="M 349 158 117 315"/>
<path stroke-width="1" stroke="black" d="M 349 158 237 20"/>
<path stroke-width="1" stroke="black" d="M 349 158 216 317"/>
<path stroke-width="1" stroke="black" d="M 349 158 20 239"/>
<path stroke-width="1" stroke="black" d="M 349 158 362 293"/>
<path stroke-width="1" stroke="black" d="M 349 158 112 300"/>
<path stroke-width="1" stroke="black" d="M 349 158 94 95"/>
<path stroke-width="1" stroke="black" d="M 349 158 239 179"/>
<path stroke-width="1" stroke="black" d="M 349 158 222 158"/>
<path stroke-width="1" stroke="black" d="M 381 237 62 180"/>
<path stroke-width="1" stroke="black" d="M 381 237 406 113"/>
<path stroke-width="1" stroke="black" d="M 381 237 288 293"/>
<path stroke-width="1" stroke="black" d="M 381 237 100 47"/>
<path stroke-width="1" stroke="black" d="M 381 237 193 83"/>
<path stroke-width="1" stroke="black" d="M 381 237 347 69"/>
<path stroke-width="1" stroke="black" d="M 381 237 280 320"/>
<path stroke-width="1" stroke="black" d="M 381 237 133 235"/>
<path stroke-width="1" stroke="black" d="M 381 237 349 158"/>
<path stroke-width="1" stroke="black" d="M 381 237 24 132"/>
<path stroke-width="1" stroke="black" d="M 381 237 420 189"/>
<path stroke-width="1" stroke="black" d="M 381 237 117 315"/>
<path stroke-width="1" stroke="black" d="M 347 69 255 56"/>
<path stroke-width="1" stroke="black" d="M 347 69 420 189"/>
<path stroke-width="1" stroke="black" d="M 347 69 24 132"/>
<path stroke-width="1" stroke="black" d="M 406 113 420 189"/>
<path stroke-width="1" stroke="black" d="M 406 113 255 56"/>
<path stroke-width="1" stroke="black" d="M 406 113 117 315"/>
<path stroke-width="1" stroke="black" d="M 406 113 237 20"/>
<path stroke-width="1" stroke="black" d="M 406 113 216 317"/>
<path stroke-width="1" stroke="black" d="M 406 113 20 239"/>
<path stroke-width="1" stroke="black" d="M 406 113 362 293"/>
<path stroke-width="1" stroke="black" d="M 406 113 112 300"/>
<path stroke-width="1" stroke="black" d="M 406 113 94 95"/>
<path stroke-width="1" stroke="black" d="M 406 113 239 179"/>
<path stroke-width="1" stroke="black" d="M 406 113 222 158"/>
<path stroke-width="1" stroke="black" d="M 288 293 62 180"/>
<path stroke-width="1" stroke="black" d="M 288 293 406 113"/>
<path stroke-width="1" stroke="black" d="M 288 293 100 47"/>
<path stroke-width="1" stroke="black" d="M 288 293 193 83"/>
<path stroke-width="1" stroke="black" d="M 288 293 347 69"/>
<path stroke-width="1" stroke="black" d="M 288 293 280 320"/>
<path stroke-width="1" stroke="black" d="M 288 293 133 235"/>
<path stroke-width="1" stroke="black" d="M 288 293 349 158"/>
<path stroke-width="1" stroke="black" d="M 288 293 381 237"/>
<path stroke-width="1" stroke="black" d="M 288 293 24 132"/>
<path stroke-width="1" stroke="black" d="M 288 293 420 189"/>
<path stroke-width="1" stroke="black" d="M 288 293 255 56"/>
<path stroke-width="1" stroke="black" d="M 288 293 117 315"/>
<path stroke-width="1" stroke="black" d="M 288 293 237 20"/>
<path stroke-width="1" stroke="black" d="M 406 113 24 132"/>
<path stroke-width="1" stroke="black" d="M 288 293 216 317"/>
<path stroke-width="1" stroke="black" d="M 406 113 381 237"/>
<path stroke-width="1" stroke="black" d="M 406 113 133 235"/>
<path stroke-width="1" stroke="black" d="M 62 180 100 47"/>
<path stroke-width="1" stroke="black" d="M 62 180 193 83"/>
<path stroke-width="1" stroke="black" d="M 62 180 347 69"/>
<path stroke-width="1" stroke="black" d="M 62 180 280 320"/>
<path stroke-width="1" stroke="black" d="M 62 180 133 235"/>
<path stroke-width="1" stroke="black" d="M 62 180 349 158"/>
<path stroke-width="1" stroke="black" d="M 62 180 381 237"/>
<path stroke-width="1" stroke="black" d="M 62 180 24 132"/>
<path stroke-width="1" stroke="black" d="M 62 180 420 189"/>
<path stroke-width="1" stroke="black" d="M 62 180 255 56"/>
<path stroke-width="1" stroke="black" d="M 62 180 117 315"/>
<path stroke-width="1" stroke="black" d="M 62 180 237 20"/>
<path stroke-width="1" stroke="black" d="M 62 180 216 317"/>
<path stroke-width="1" stroke="black" d="M 62 180 20 239"/>
<path stroke-width="1" stroke="black" d="M 62 180 362 293"/>
<path stroke-width="1" stroke="black" d="M 62 180 112 300"/>
<path stroke-width="1" stroke="black" d="M 62 180 94 95"/>
<path stroke-width="1" stroke="black" d="M 62 180 239 179"/>
<path stroke-width="1" stroke="black" d="M 62 180 222 158"/>
<path stroke-width="1" stroke="black" d="M 406 113 62 180"/>
<path stroke-width="1" stroke="black" d="M 406 113 288 293"/>
<path stroke-width="1" stroke="black" d="M 406 113 100 47"/>
<path stroke-width="1" stroke="black" d="M 406 113 193 83"/>
<path stroke-width="1" stroke="black" d="M 406 113 347 69"/>
<path stroke-width="1" stroke="black" d="M 406 113 280 320"/>
<path stroke-width="1" stroke="black" d="M 406 113 349 158"/>
<path stroke-width="1" stroke="black" d="M 24 132 239 179"/>
<path stroke-width="1" stroke="black" d="M 288 293 20 239"/>
<path stroke-width="1" stroke="black" d="M 288 293 112 300"/>
<path stroke-width="1" stroke="black" d="M 193 83 280 320"/>
<path stroke-width="1" stroke="black" d="M 193 83 133 235"/>
<path stroke-width="1" stroke="black" d="M 193 83 349 158"/>
<path stroke-width="1" stroke="black" d="M 193 83 381 237"/>
<path stroke-width="1" stroke="black" d="M 193 83 24 132"/>
<path stroke-width="1" stroke="black" d="M 193 83 420 189"/>
<path stroke-width="1" stroke="black" d="M 193 83 255 56"/>
<path stroke-width="1" stroke="black" d="M 193 83 117 315"/>
<path stroke-width="1" stroke="black" d="M 193 83 237 20"/>
<path stroke-width="1" stroke="black" d="M 193 83 216 317"/>
<path stroke-width="1" stroke="black" d="M 193 83 20 239"/>
<path stroke-width="1" stroke="black" d="M 193 83 362 293"/>
<path stroke-width="1" stroke="black" d="M 193 83 112 300"/>
<path stroke-width="1" stroke="black" d="M 193 83 94 95"/>
<path stroke-width="1" stroke="black" d="M 193 83 239 179"/>
<path stroke-width="1" stroke="black" d="M 193 83 222 158"/>
<path stroke-width="1" stroke="black" d="M 347 69 62 180"/>
<path stroke-width="1" stroke="black" d="M 347 69 406 113"/>
<path stroke-width="1" stroke="black" d="M 347 69 288 293"/>
<path stroke-width="1" stroke="black" d="M 347 69 100 47"/>
<path stroke-width="1" stroke="black" d="M 347 69 193 83"/>
<path stroke-width="1" stroke="black" d="M 347 69 280 320"/>
<path stroke-width="1" stroke="black" d="M 347 69 133 235"/>
<path stroke-width="1" stroke="black" d="M 347 69 349 158"/>
<path stroke-width="1" stroke="black" d="M 347 69 381 237"/>
<path stroke-width="1" stroke="black" d="M 193 83 347 69"/>
<path stroke-width="1" stroke="black" d="M 288 293 362 293"/>
<path stroke-width="1" stroke="black" d="M 193 83 100 47"/>
<path stroke-width="1" stroke="black" d="M 193 83 406 113"/>
<path stroke-width="1" stroke="black" d="M 288 293 94 95"/>
<path stroke-width="1" stroke="black" d="M 288 293 239 179"/>
<path stroke-width="1" stroke="black" d="M 288 293 222 158"/>
<path stroke-width="1" stroke="black" d="M 100 47 62 180"/>
<path stroke-width="1" stroke="black" d="M 100 47 406 113"/>
<path stroke-width="1" stroke="black" d="M 100 47 288 293"/>
<path stroke-width="1" stroke="black" d="M 100 47 193 83"/>
<path stroke-width="1" stroke="black" d="M 100 47 347 69"/>
<path stroke-width="1" stroke="black" d="M 100 47 280 320"/>
<path stroke-width="1" stroke="black" d="M 100 47 133 235"/>
<path stroke-width="1" stroke="black" d="M 100 47 349 158"/>
<path stroke-width="1" stroke="black" d="M 100 47 381 237"/>
<path stroke-width="1" stroke="black" d="M 100 47 24 132"/>
<path stroke-width="1" stroke="black" d="M 100 47 420 189"/>
<path stroke-width="1" stroke="black" d="M 100 47 255 56"/>
<path stroke-width="1" stroke="black" d="M 100 47 117 315"/>
<path stroke-width="1" stroke="black" d="M 100 47 237 20"/>
<path stroke-width="1" stroke="black" d="M 100 47 216 317"/>
<path stroke-width="1" stroke="black" d="M 100 47 20 239"/>
<path stroke-width="1" stroke="black" d="M 100 47 362 293"/>
<path stroke-width="1" stroke="black" d="M 100 47 112 300"/>
<path stroke-width="1" stroke="black" d="M 100 47 94 95"/>
<path stroke-width="1" stroke="black" d="M 100 47 239 179"/>
<path stroke-width="1" stroke="black" d="M 100 47 222 158"/>
<path stroke-width="1" stroke="black" d="M 193 83 62 180"/>
<path stroke-width="1" stroke="black" d="M 193 83 288 293"/>
<path stroke-width="1" stroke="black" d="M 24 132 222 158"/>
<path stroke-width="1" stroke="black" d="M 420 189 62 180"/>
<path stroke-width="1" stroke="black" d="M 420 189 406 113"/>
<path stroke-width="1" stroke="black" d="M 112 300 62 180"/>
<path stroke-width="1" stroke="black" d="M 112 300 406 113"/>
<path stroke-width="1" stroke="black" d="M 112 300 288 293"/>
<path stroke-width="1" stroke="black" d="M 112 300 100 47"/>
<path stroke-width="1" stroke="black" d="M 112 300 193 83"/>
<path stroke-width="1" stroke="black" d="M 112 300 347 69"/>
<path stroke-width="1" stroke="black" d="M 112 300 280 320"/>
<path stroke-width="1" stroke="black" d="M 112 300 133 235"/>
<path stroke-width="1" stroke="black" d="M 112 300 349 158"/>
<path stroke-width="1" stroke="black" d="M 112 300 381 237"/>
<path stroke-width="1" stroke="black" d="M 112 300 24 132"/>
<path stroke-width="1" stroke="black" d="M 112 300 420 189"/>
<path stroke-width="1" stroke="black" d="M 112 300 255 56"/>
<path stroke-width="1" stroke="black" d="M 112 300 117 315"/>
<path stroke-width="1" stroke="black" d="M 112 300 237 20"/>
<path stroke-width="1" stroke="black" d="M 112 300 216 317"/>
<path stroke-width="1" stroke="black" d="M 112 300 20 239"/>
<path stroke-width="1" stroke="black" d="M 112 300 362 293"/>
<path stroke-width="1" stroke="black" d="M 112 300 94 95"/>
<path stroke-width="1" stroke="black" d="M 112 300 239 179"/>
<path stroke-width="1" stroke="black" d="M 112 300 222 158"/>
<path stroke-width="1" stroke="black" d="M 94 95 62 180"/>
<path stroke-width="1" stroke="black" d="M 94 95 406 113"/>
<path stroke-width="1" stroke="black" d="M 94 95 288 293"/>
<path stroke-width="1" stroke="black" d="M 94 95 100 47"/>
<path stroke-width="1" stroke="black" d="M 362 293 222 158"/>
<path stroke-width="1" stroke="black" d="M 94 95 193 83"/>
<path stroke-width="1" stroke="black" d="M 362 293 239 179"/>
<path stroke-width="1" stroke="black" d="M 362 293 112 300"/>
<path stroke-width="1" stroke="black" d="M 20 239 117 315"/>
<path stroke-width="1" stroke="black" d="M 20 239 237 20"/>
<path stroke-width="1" stroke="black" d="M 20 239 216 317"/>
<path stroke-width="1" stroke="black" d="M 20 239 362 293"/>
<path stroke-width="1" stroke="black" d="M 20 239 112 300"/>
<path stroke-width="1" stroke="black" d="M 20 239 94 95"/>
<path stroke-width="1" stroke="black" d="M 20 239 239 179"/>
<path stroke-width="1" stroke="black" d="M 20 239 222 158"/>
<path stroke-width="1" stroke="black" d="M 362 293 62 180"/>
<path stroke-width="1" stroke="black" d="M 362 293 406 113"/>
<path stroke-width="1" stroke="black" d="M 362 293 288 293"/>
<path stroke-width="1" stroke="black" d="M 362 293 100 47"/>
<path stroke-width="1" stroke="black" d="M 362 293 193 83"/>
<path stroke-width="1" stroke="black" d="M 362 293 347 69"/>
<path stroke-width="1" stroke="black" d="M 362 293 280 320"/>
<path stroke-width="1" stroke="black" d="M 362 293 133 235"/>
<path stroke-width="1" stroke="black" d="M 362 293 349 158"/>
<path stroke-width="1" stroke="black" d="M 362 293 381 237"/>
<path stroke-width="1" stroke="black" d="M 362 293 24 132"/>
<path stroke-width="1" stroke="black" d="M 362 293 420 189"/>
<path stroke-width="1" stroke="black" d="M 362 293 255 56"/>
<path stroke-width="1" stroke="black" d="M 362 293 117 315"/>
<path stroke-width="1" stroke="black" d="M 362 293 237 20"/>
<path stroke-width="1" stroke="black" d="M 362 293 216 317"/>
<path stroke-width="1" stroke="black" d="M 362 293 20 239"/>
<path stroke-width="1" stroke="black" d="M 362 293 94 95"/>
<path stroke-width="1" stroke="black" d="M 20 239 255 56"/>
<path stroke-width="1" stroke="black" d="M 94 95 347 69"/>
<path stroke-width="1" stroke="black" d="M 94 95 133 235"/>
<path stroke-width="1" stroke="black" d="M 239 179 20 239"/>
<path stroke-width="1" stroke="black" d="M 239 179 362 293"/>
<path stroke-width="1" stroke="black" d="M 239 179 112 300"/>
<path stroke-width="1" stroke="black" d="M 239 179 94 95"/>
<path stroke-width="1" stroke="black" d="M 239 179 222 158"/>
<path stroke-width="1" stroke="black" d="M 222 158 62 180"/>
<path stroke-width="1" stroke="black" d="M 222 158 406 113"/>
<path stroke-width="1" stroke="black" d="M 222 158 288 293"/>
<path stroke-width="1" stroke="black" d="M 222 158 100 47"/>
<path stroke-width="1" stroke="black" d="M 222 158 193 83"/>
<path stroke-width="1" stroke="black" d="M 222 158 347 69"/>
<path stroke-width="1" stroke="black" d="M 222 158 280 320"/>
<path stroke-width="1" stroke="black" d="M 222 158 133 235"/>
<path stroke-width="1" stroke="black" d="M 222 158 349 158"/>
<path stroke-width="1" stroke="black" d="M 222 158 381 237"/>
<path stroke-width="1" stroke="black" d="M 222 158 24 132"/>
<path stroke-width="1" stroke="black" d="M 222 158 420 189"/>
<path stroke-width="1" stroke="black" d="M 222 158 255 56"/>
<path stroke-width="1" stroke="black" d="M 222 158 117 315"/>
<path stroke-width="1" stroke="black" d="M 222 158 237 20"/>
<path stroke-width="1" stroke="black" d="M 222 158 216 317"/>
<path stroke-width="1" stroke="black" d="M 222 158 20 239"/>
<path stroke-width="1" stroke="black" d="M 222 158 362 293"/>
<path stroke-width="1" stroke="black" d="M 222 158 112 300"/>
<path stroke-width="1" stroke="black" d="M 222 158 94 95"/>
<path stroke-width="1" stroke="black" d="M 239 179 216 317"/>
<path stroke-width="1" stroke="black" d="M 94 95 280 320"/>
<path stroke-width="1" stroke="black" d="M 239 179 237 20"/>
<path stroke-width="1" stroke="black" d="M 239 179 255 56"/>
<path stroke-width="1" stroke="black" d="M 94 95 349 158"/>
<path stroke-width="1" stroke="black" d="M 94 95 381 237"/>
<path stroke-width="1" stroke="black" d="M 94 95 24 132"/>
<path stroke-width="1" stroke="black" d="M 94 95 420 189"/>
<path stroke-width="1" stroke="black" d="M 94 95 255 56"/>
<path stroke-width="1" stroke="black" d="M 94 95 117 315"/>
<path stroke-width="1" stroke="black" d="M 94 95 237 20"/>
<path stroke-width="1" stroke="black" d="M 94 95 216 317"/>
<path stroke-width="1" stroke="black" d="M 94 95 20 239"/>
<path stroke-width="1" stroke="black" d="M 94 95 362 293"/>
<path stroke-width="1" stroke="black" d="M 94 95 112 300"/>
<path stroke-width="1" stroke="black" d="M 94 95 239 179"/>
<path stroke-width="1" stroke="black" d="M 94 95 222 158"/>
<path stroke-width="1" stroke="black" d="M 239 179 62 180"/>
<path stroke-width="1" stroke="black" d="M 239 179 406 113"/>
<path stroke-width="1" stroke="black" d="M 239 179 288 293"/>
<path stroke-width="1" stroke="black" d="M 239 179 100 47"/>
<path stroke-width="1" stroke="black" d="M 239 179 193 83"/>
<path stroke-width="1" stroke="black" d="M 239 179 347 69"/>
<path stroke-width="1" stroke="black" d="M 239 179 280 320"/>
<path stroke-width="1" stroke="black" d="M 239 179 133 235"/>
<path stroke-width="1" stroke="black" d="M 239 179 349 158"/>
<path stroke-width="1" stroke="black" d="M 239 179 381 237"/>
<path stroke-width="1" stroke="black" d="M 239 179 24 132"/>
<path stroke-width="1" stroke="black" d="M 239 179 420 189"/>
<path stroke-width="1" stroke="black" d="M 239 179 117 315"/>
<path stroke-width="1" stroke="black" d="M 62 180 288 293"/>
<path stroke-width="1" stroke="black" d="M 20 239 420 189"/>
<path stroke-width="1" stroke="black" d="M 20 239 381 237"/>
<path stroke-width="1" stroke="black" d="M 255 56 24 132"/>
<path stroke-width="1" stroke="black" d="M 255 56 420 189"/>
<path stroke-width="1" stroke="black" d="M 255 56 117 315"/>
<path stroke-width="1" stroke="black" d="M 255 56 237 20"/>
<path stroke-width="1" stroke="black" d="M 255 56 216 317"/>
<path stroke-width="1" stroke="black" d="M 255 56 20 239"/>
<path stroke-width="1" stroke="black" d="M 255 56 362 293"/>
<path stroke-width="1" stroke="black" d="M 255 56 112 300"/>
<path stroke-width="1" stroke="black" d="M 255 56 94 95"/>
<path stroke-width="1" stroke="black" d="M 255 56 239 179"/>
<path stroke-width="1" stroke="black" d="M 255 56 222 158"/>
<path stroke-width="1" stroke="black" d="M 117 315 62 180"/>
<path stroke-width="1" stroke="black" d="M 117 315 406 113"/>
<path stroke-width="1" stroke="black" d="M 117 315 288 293"/>
<path stroke-width="1" stroke="black" d="M 117 315 100 47"/>
<path stroke-width="1" stroke="black" d="M 117 315 193 83"/>
<path stroke-width="1" stroke="black" d="M 117 315 347 69"/>
<path stroke-width="1" stroke="black" d="M 117 315 280 320"/>
<path stroke-width="1" stroke="black" d="M 117 315 133 235"/>
<path stroke-width="1" stroke="black" d="M 117 315 349 158"/>
<path stroke-width="1" stroke="black" d="M 117 315 381 237"/>
<path stroke-width="1" stroke="black" d="M 117 315 24 132"/>
<path stroke-width="1" stroke="black" d="M 117 315 420 189"/>
<path stroke-width="1" stroke="black" d="M 117 315 255 56"/>
<path stroke-width="1" stroke="black" d="M 117 315 237 20"/>
<path stroke-width="1" stroke="black" d="M 255 56 381 237"/>
<path stroke-width="1" stroke="black" d="M 117 315 216 317"/>
<path stroke-width="1" stroke="black" d="M 255 56 349 158"/>
<path stroke-width="1" stroke="black" d="M 255 56 280 320"/>
<path stroke-width="1" stroke="black" d="M 420 189 288 293"/>
<path stroke-width="1" stroke="black" d="M 420 189 100 47"/>
<path stroke-width="1" stroke="black" d="M 420 189 193 83"/>
<path stroke-width="1" stroke="black" d="M 420 189 347 69"/>
<path stroke-width="1" stroke="black" d="M 420 189 280 320"/>
<path stroke-width="1" stroke="black" d="M 420 189 133 235"/>
<path stroke-width="1" stroke="black" d="M 420 189 349 158"/>
<path stroke-width="1" stroke="black" d="M 420 189 381 237"/>
<path stroke-width="1" stroke="black" d="M 420 189 24 132"/>
<path stroke-width="1" stroke="black" d="M 420 189 255 56"/>
<path stroke-width="1" stroke="black" d="M 420 189 117 315"/>
<path stroke-width="1" stroke="black" d="M 420 189 237 20"/>
<path stroke-width="1" stroke="black" d="M 420 189 216 317"/>
<path stroke-width="1" stroke="black" d="M 420 189 20 239"/>
<path stroke-width="1" stroke="black" d="M 420 189 362 293"/>
<path stroke-width="1" stroke="black" d="M 420 189 112 300"/>
<path stroke-width="1" stroke="black" d="M 420 189 94 95"/>
<path stroke-width="1" stroke="black" d="M 420 189 239 179"/>
<path stroke-width="1" stroke="black" d="M 420 189 222 158"/>
<path stroke-width="1" stroke="black" d="M 255 56 62 180"/>
<path stroke-width="1" stroke="black" d="M 255 56 406 113"/>
<path stroke-width="1" stroke="black" d="M 255 56 288 293"/>
<path stroke-width="1" stroke="black" d="M 255 56 100 47"/>
<path stroke-width="1" stroke="black" d="M 255 56 193 83"/>
<path stroke-width="1" stroke="black" d="M 255 56 347 69"/>
<path stroke-width="1" stroke="black" d="M 255 56 133 235"/>
<path stroke-width="1" stroke="black" d="M 20 239 24 132"/>
<path stroke-width="1" stroke="black" d="M 117 315 20 239"/>
<path stroke-width="1" stroke="black" d="M 117 315 112 300"/>
<path stroke-width="1" stroke="black" d="M 216 317 347 69"/>
<path stroke-width="1" stroke="black" d="M 216 317 280 320"/>
<path stroke-width="1" stroke="black" d="M 216 317 133 235"/>
<path stroke-width="1" stroke="black" d="M 216 317 349 158"/>
<path stroke-width="1" stroke="black" d="M 216 317 381 237"/>
<path stroke-width="1" stroke="black" d="M 216 317 24 132"/>
<path stroke-width="1" stroke="black" d="M 216 317 420 189"/>
<path stroke-width="1" stroke="black" d="M 216 317 255 56"/>
<path stroke-width="1" stroke="black" d="M 216 317 117 315"/>
<path stroke-width="1" stroke="black" d="M 216 317 237 20"/>
<path stroke-width="1" stroke="black" d="M 216 317 20 239"/>
<path stroke-width="1" stroke="black" d="M 216 317 362 293"/>
<path stroke-width="1" stroke="black" d="M 216 317 112 300"/>
<path stroke-width="1" stroke="black" d="M 216 317 94 95"/>
<path stroke-width="1" stroke="black" d="M 216 317 239 179"/>
<path stroke-width="1" stroke="black" d="M 216 317 222 158"/>
<path stroke-width="1" stroke="black" d="M 20 239 62 180"/>
<path stroke-width="1" stroke="black" d="M 20 239 406 113"/>
<path stroke-width="1" stroke="black" d="M 20 239 288 293"/>
<path stroke-width="1" stroke="black" d="M 20 239 100 47"/>
<path stroke-width="1" stroke="black" d="M 20 239 193 83"/>
<path stroke-width="1" stroke="black" d="M 20 239 347 69"/>
<path stroke-width="1" stroke="black" d="M 20 239 280 320"/>
<path stroke-width="1" stroke="black" d="M 20 239 133 235"/>
<path stroke-width="1" stroke="black" d="M 20 239 349 158"/>
<path stroke-width="1" stroke="black" d="M 216 317 193 83"/>
<path stroke-width="1" stroke="black" d="M 117 315 362 293"/>
<path stroke-width="1" stroke="black" d="M 216 317 100 47"/>
<path stroke-width="1" stroke="black" d="M 216 317 406 113"/>
<path stroke-width="1" stroke="black" d="M 117 315 94 95"/>
<path stroke-width="1" stroke="black" d="M 117 315 239 179"/>
<path stroke-width="1" stroke="black" d="M 117 315 222 158"/>
<path stroke-width="1" stroke="black" d="M 237 20 62 180"/>
<path stroke-width="1" stroke="black" d="M 237 20 406 113"/>
<path stroke-width="1" stroke="black" d="M 237 20 288 293"/>
<path stroke-width="1" stroke="black" d="M 237 20 100 47"/>
<path stroke-width="1" stroke="black" d="M 237 20 193 83"/>
<path stroke-width="1" stroke="black" d="M 237 20 347 69"/>
<path stroke-width="1" stroke="black" d="M 237 20 280 320"/>
<path stroke-width="1" stroke="black" d="M 237 20 133 235"/>
<path stroke-width="1" stroke="black" d="M 237 20 349 158"/>
<path stroke-width="1" stroke="black" d="M 237 20 381 237"/>
<path stroke-width="1" stroke="black" d="M 237 20 24 132"/>
<path stroke-width="1" stroke="black" d="M 237 20 420 189"/>
<path stroke-width="1" stroke="black" d="M 237 20 255 56"/>
<path stroke-width="1" stroke="black" d="M 237 20 117 315"/>
<path stroke-width="1" stroke="black" d="M 237 20 216 317"/>
<path stroke-width="1" stroke="black" d="M 237 20 20 239"/>
<path stroke-width="1" stroke="black" d="M 237 20 362 293"/>
<path stroke-width="1" stroke="black" d="M 237 20 112 300"/>
<path stroke-width="1" stroke="black" d="M 237 20 94 95"/>
<path stroke-width="1" stroke="black" d="M 237 20 239 179"/>
<path stroke-width="1" stroke="black" d="M 237 20 222 158"/>
<path stroke-width="1" stroke="black" d="M 216 317 62 180"/>
<path stroke-width="1" stroke="black" d="M 216 317 288 293"/>
<path stroke-width="1" stroke="black" d="M 62 180 406 113"/>
<circle cx="222" cy="158" r="20.0" style="fill:red;stroke:black;stroke-width:1.0"/>
<circle cx="239" cy="179" r="20.0" style="fill:blue;stroke:black;stroke-width:1.0"/>
<circle cx="94" cy="95" r="20.0" style="fill:red;stroke:black;stroke-width:1.0"/>
<circle cx="112" cy="300" r="20.0" style="fill:red;stroke:black;stroke-width:1.0"/>
<circle cx="362" cy="293" r="20.0" style="fill:red;stroke:black;stroke-width:1.0"/>
<circle cx="20" cy="239" r="20.0" style="fill:green;stroke:black;stroke-width:1.0"/>
<circle cx="216" cy="317" r="20.0" style="fill:blue;stroke:black;stroke-width:1.0"/>
<circle cx="237" cy="20" r="20.0" style="fill:orange;stroke:black;stroke-width:1.0"/>
<circle cx="117" cy="315" r="20.0" style="fill:blue;stroke:black;stroke-width:1.0"/>
<circle cx="255" cy="56" r="20.0" style="fill:blue;stroke:black;stroke-width:1.0"/>
<circle cx="420" cy="189" r="20.0" style="fill:blue;stroke:black;stroke-width:1.0"/>
<circle cx="24" cy="132" r="20.0" style="fill:blue;stroke:black;stroke-width:1.0"/>
<circle cx="381" cy="237" r="20.0" style="fill:purple;stroke:black;stroke-width:1.0"/>
<circle cx="349" cy="158" r="20.0" style="fill:blue;stroke:black;stroke-width:1.0"/>
<circle cx="133" cy="235" r="20.0" style="fill:green;stroke:black;stroke-width:1.0"/>
<circle cx="280" cy="320" r="20.0" style="fill:blue;stroke:black;stroke-width:1.0"/>
<circle cx="347" cy="69" r="20.0" style="fill:red;stroke:black;stroke-width:1.0"/>
<circle cx="193" cy="83" r="20.0" style="fill:red;stroke:black;stroke-width:1.0"/>
<circle cx="100" cy="47" r="20.0" style="fill:red;stroke:black;stroke-width:1.0"/>
<circle cx="288" cy="293" r="20.0" style="fill:red;stroke:black;stroke-width:1.0"/>
<circle cx="406" cy="113" r="20.0" style="fill:orange;stroke:black;stroke-width:1.0"/>
<circle cx="62" cy="180" r="20.0" style="fill:purple;stroke:black;stroke-width:1.0"/>
</svg>
