<svg width="440" height="340" xmlns="http://www.w3.org/2000/svg">
<path stroke-width="1" stroke="black" d="M 211 141 279 145"/>
<path stroke-width="1" stroke="black" d="M 192 20 152 289"/>
<path stroke-width="1" stroke="black" d="M 192 20 405 92"/>
<path stroke-width="1" stroke="black" d="M 192 20 420 165"/>
<path stroke-width="1" stroke="black" d="M 192 20 269 241"/>
<path stroke-width="1" stroke="black" d="M 192 20 178 169"/>
<path stroke-width="1" stroke="black" d="M 192 20 78 256"/>
<path stroke-width="1" stroke="black" d="M 192 20 155 64"/>
<path stroke-width="1" stroke="black" d="M 192 20 84 95"/>
<path stroke-width="1" stroke="black" d="M 192 20 190 307"/>
<path stroke-width="1" stroke="black" d="M 192 20 66 88"/>
<path stroke-width="1" stroke="black" d="M 192 20 369 287"/>
<path stroke-width="1" stroke="black" d="M 155 64 211 141"/>
<path stroke-width="1" stroke="black" d="M 192 20 271 320"/>
<path stroke-width="1" stroke="black" d="M 192 20 379 244"/>
<path stroke-width="1" stroke="black" d="M 192 20 316 83"/>
<path stroke-width="1" stroke="black" d="M 192 20 309 20"/>
<path stroke-width="1" stroke="black" d="M 192 20 30 216"/>
<path stroke-width="1" stroke="black" d="M 192 20 270 40"/>
<path stroke-width="1" stroke="black" d="M 192 20 109 172"/>
<path stroke-width="1" stroke="black" d="M 192 20 279 145"/>
<path stroke-width="1" stroke="black" d="M 192 20 211 141"/>
<path stroke-width="1" stroke="black" d="M 84 95 152 289"/>
<path stroke-width="1" stroke="black" d="M 84 95 405 92"/>
<path stroke-width="1" stroke="black" d="M 84 95 420 165"/>
<path stroke-width="1" stroke="black" d="M 192 20 20 150"/>
<path stroke-width="1" stroke="black" d="M 155 64 279 145"/>
<path stroke-width="1" stroke="black" d="M 155 64 109 172"/>
<path stroke-width="1" stroke="black" d="M 155 64 270 40"/>
<path stroke-width="1" stroke="black" d="M 78 256 379 244"/>
<path stroke-width="1" stroke="black" d="M 78 256 316 83"/>
<path stroke-width="1" stroke="black" d="M 78 256 309 20"/>
<path stroke-width="1" stroke="black" d="M 78 256 30 216"/>
<path stroke-width="1" stroke="black" d="M 78 256 270 40"/>
<path stroke-width="1" stroke="black" d="M 78 256 109 172"/>
<path stroke-width="1" stroke="black" d="M 78 256 279 145"/>
<path stroke-width="1" stroke="black" d="M 78 256 211 141"/>
<path stroke-width="1" stroke="black" d="M 155 64 152 289"/>
<path stroke-width="1" stroke="black" d="M 155 64 405 92"/>
<path stroke-width="1" stroke="black" d="M 155 64 420 165"/>
<path stroke-width="1" stroke="black" d="M 155 64 269 241"/>
<path stroke-width="1" stroke="black" d="M 155 64 178 169"/>
<path stroke-width="1" stroke="black" d="M 155 64 78 256"/>
<path stroke-width="1" stroke="black" d="M 155 64 192 20"/>
<path stroke-width="1" stroke="black" d="M 155 64 84 95"/>
<path stroke-width="1" stroke="black" d="M 155 64 190 307"/>
<path stroke-width="1" stroke="black" d="M 155 64 66 88"/>
<path stroke-width="1" stroke="black" d="M 155 64 369 287"/>
<path stroke-width="1" stroke="black" d="M 155 64 271 320"/>
<path stroke-width="1" stroke="black" d="M 155 64 20 150"/>
<path stroke-width="1" stroke="black" d="M 155 64 379 244"/>
<path stroke-width="1" stroke="black" d="M 155 64 316 83"/>
<path stroke-width="1" stroke="black" d="M 155 64 309 20"/>
<path stroke-width="1" stroke="black" d="M 155 64 30 216"/>
<path stroke-width="1" stroke="black" d="M 84 95 269 241"/>
<path stroke-width="1" stroke="black" d="M 84 95 178 169"/>
<path stroke-width="1" stroke="black" d="M 84 95 78 256"/>
<path stroke-width="1" stroke="black" d="M 84 95 155 64"/>
<path stroke-width="1" stroke="black" d="M 190 307 309 20"/>
<path stroke-width="1" stroke="black" d="M 190 307 30 216"/>
<path stroke-width="1" stroke="black" d="M 190 307 270 40"/>
<path stroke-width="1" stroke="black" d="M 190 307 109 172"/>
<path stroke-width="1" stroke="black" d="M 190 307 279 145"/>
<path stroke-width="1" stroke="black" d="M 190 307 211 141"/>
<path stroke-width="1" stroke="black" d="M 66 88 152 289"/>
<path stroke-width="1" stroke="black" d="M 66 88 405 92"/>
<path stroke-width="1" stroke="black" d="M 66 88 420 165"/>
<path stroke-width="1" stroke="black" d="M 66 88 269 241"/>
<path stroke-width="1" stroke="black" d="M 66 88 178 169"/>
<path stroke-width="1" stroke="black" d="M 66 88 78 256"/>
<path stroke-width="1" stroke="black" d="M 66 88 155 64"/>
<path stroke-width="1" stroke="black" d="M 66 88 192 20"/>
<path stroke-width="1" stroke="black" d="M 66 88 84 95"/>
<path stroke-width="1" stroke="black" d="M 66 88 190 307"/>
<path stroke-width="1" stroke="black" d="M 66 88 369 287"/>
<path stroke-width="1" stroke="black" d="M 66 88 271 320"/>
<path stroke-width="1" stroke="black" d="M 66 88 20 150"/>
<path stroke-width="1" stroke="black" d="M 66 88 379 244"/>
<path stroke-width="1" stroke="black" d="M 66 88 316 83"/>
<path stroke-width="1" stroke="black" d="M 66 88 309 20"/>
<path stroke-width="1" stroke="black" d="M 66 88 30 216"/>
<path stroke-width="1" stroke="black" d="M 66 88 270 40"/>
<path stroke-width="1" stroke="black" d="M 66 88 109 172"/>
<path stroke-width="1" stroke="black" d="M 190 307 316 83"/>
<path stroke-width="1" stroke="black" d="M 78 256 20 150"/>
<path stroke-width="1" stroke="black" d="M 190 307 379 244"/>
<path stroke-width="1" stroke="black" d="M 190 307 271 320"/>
<path stroke-width="1" stroke="black" d="M 84 95 192 20"/>
<path stroke-width="1" stroke="black" d="M 84 95 190 307"/>
<path stroke-width="1" stroke="black" d="M 84 95 66 88"/>
<path stroke-width="1" stroke="black" d="M 84 95 369 287"/>
<path stroke-width="1" stroke="black" d="M 84 95 271 320"/>
<path stroke-width="1" stroke="black" d="M 84 95 20 150"/>
<path stroke-width="1" stroke="black" d="M 84 95 379 244"/>
<path stroke-width="1" stroke="black" d="M 84 95 316 83"/>
<path stroke-width="1" stroke="black" d="M 84 95 309 20"/>
<path stroke-width="1" stroke="black" d="M 84 95 30 216"/>
<path stroke-width="1" stroke="black" d="M 84 95 270 40"/>
<path stroke-width="1" stroke="black" d="M 84 95 109 172"/>
<path stroke-width="1" stroke="black" d="M 84 95 279 145"/>
<path stroke-width="1" stroke="black" d="M 84 95 211 141"/>
<path stroke-width="1" stroke="black" d="M 190 307 152 289"/>
<path stroke-width="1" stroke="black" d="M 190 307 405 92"/>
<path stroke-width="1" stroke="black" d="M 190 307 420 165"/>
<path stroke-width="1" stroke="black" d="M 190 307 269 241"/>
<path stroke-width="1" stroke="black" d="M 190 307 178 169"/>
<path stroke-width="1" stroke="black" d="M 190 307 78 256"/>
<path stroke-width="1" stroke="black" d="M 190 307 155 64"/>
<path stroke-width="1" stroke="black" d="M 190 307 192 20"/>
<path stroke-width="1" stroke="black" d="M 190 307 84 95"/>
<path stroke-width="1" stroke="black" d="M 190 307 66 88"/>
<path stroke-width="1" stroke="black" d="M 190 307 369 287"/>
<path stroke-width="1" stroke="black" d="M 190 307 20 150"/>
<path stroke-width="1" stroke="black" d="M 78 256 271 320"/>
<path stroke-width="1" stroke="black" d="M 78 256 369 287"/>
<path stroke-width="1" stroke="black" d="M 78 256 66 88"/>
<path stroke-width="1" stroke="black" d="M 405 92 369 287"/>
<path stroke-width="1" stroke="black" d="M 405 92 271 320"/>
<path stroke-width="1" stroke="black" d="M 405 92 20 150"/>
<path stroke-width="1" stroke="black" d="M 405 92 379 244"/>
<path stroke-width="1" stroke="black" d="M 405 92 316 83"/>
<path stroke-width="1" stroke="black" d="M 405 92 309 20"/>
<path stroke-width="1" stroke="black" d="M 405 92 30 216"/>
<path stroke-width="1" stroke="black" d="M 405 92 270 40"/>
<path stroke-width="1" stroke="black" d="M 405 92 109 172"/>
<path stroke-width="1" stroke="black" d="M 405 92 279 145"/>
<path stroke-width="1" stroke="black" d="M 405 92 211 141"/>
<path stroke-width="1" stroke="black" d="M 420 165 152 289"/>
<path stroke-width="1" stroke="black" d="M 420 165 405 92"/>
<path stroke-width="1" stroke="black" d="M 420 165 269 241"/>
<path stroke-width="1" stroke="black" d="M 420 165 178 169"/>
<path stroke-width="1" stroke="black" d="M 420 165 78 256"/>
<path stroke-width="1" stroke="black" d="M 420 165 155 64"/>
<path stroke-width="1" stroke="black" d="M 420 165 192 20"/>
<path stroke-width="1" stroke="black" d="M 420 165 84 95"/>
<path stroke-width="1" stroke="black" d="M 420 165 190 307"/>
<path stroke-width="1" stroke="black" d="M 420 165 66 88"/>
<path stroke-width="1" stroke="black" d="M 420 165 369 287"/>
<path stroke-width="1" stroke="black" d="M 420 165 271 320"/>
<path stroke-width="1" stroke="black" d="M 420 165 20 150"/>
<path stroke-width="1" stroke="black" d="M 420 165 379 244"/>
<path stroke-width="1" stroke="black" d="M 405 92 66 88"/>
<path stroke-width="1" stroke="black" d="M 420 165 316 83"/>
<path stroke-width="1" stroke="black" d="M 405 92 190 307"/>
<path stroke-width="1" stroke="black" d="M 405 92 192 20"/>
<path stroke-width="1" stroke="black" d="M 152 289 269 241"/>
<path stroke-width="1" stroke="black" d="M 152 289 178 169"/>
<path stroke-width="1" stroke="black" d="M 152 289 78 256"/>
<path stroke-width="1" stroke="black" d="M 152 289 155 64"/>
<path stroke-width="1" stroke="black" d="M 152 289 192 20"/>
<path stroke-width="1" stroke="black" d="M 152 289 84 95"/>
<path stroke-width="1" stroke="black" d="M 152 289 190 307"/>
<path stroke-width="1" stroke="black" d="M 152 289 66 88"/>
<path stroke-width="1" stroke="black" d="M 152 289 369 287"/>
<path stroke-width="1" stroke="black" d="M 152 289 271 320"/>
<path stroke-width="1" stroke="black" d="M 152 289 20 150"/>
<path stroke-width="1" stroke="black" d="M 152 289 379 244"/>
<path stroke-width="1" stroke="black" d="M 152 289 316 83"/>
<path stroke-width="1" stroke="black" d="M 152 289 309 20"/>
<path stroke-width="1" stroke="black" d="M 152 289 30 216"/>
<path stroke-width="1" stroke="black" d="M 152 289 270 40"/>
<path stroke-width="1" stroke="black" d="M 152 289 109 172"/>
<path stroke-width="1" stroke="black" d="M 152 289 279 145"/>
<path stroke-width="1" stroke="black" d="M 152 289 211 141"/>
<path stroke-width="1" stroke="black" d="M 405 92 152 289"/>
<path stroke-width="1" stroke="black" d="M 405 92 420 165"/>
<path stroke-width="1" stroke="black" d="M 405 92 269 241"/>
<path stroke-width="1" stroke="black" d="M 405 92 178 169"/>
<path stroke-width="1" stroke="black" d="M 405 92 78 256"/>
<path stroke-width="1" stroke="black" d="M 405 92 155 64"/>
<path stroke-width="1" stroke="black" d="M 405 92 84 95"/>
<path stroke-width="1" stroke="black" d="M 66 88 279 145"/>
<path stroke-width="1" stroke="black" d="M 420 165 309 20"/>
<path stroke-width="1" stroke="black" d="M 420 165 270 40"/>
<path stroke-width="1" stroke="black" d="M 178 169 155 64"/>
<path stroke-width="1" stroke="black" d="M 178 169 192 20"/>
<path stroke-width="1" stroke="black" d="M 178 169 84 95"/>
<path stroke-width="1" stroke="black" d="M 178 169 190 307"/>
<path stroke-width="1" stroke="black" d="M 178 169 66 88"/>
<path stroke-width="1" stroke="black" d="M 178 169 369 287"/>
<path stroke-width="1" stroke="black" d="M 178 169 271 320"/>
<path stroke-width="1" stroke="black" d="M 178 169 20 150"/>
<path stroke-width="1" stroke="black" d="M 178 169 379 244"/>
<path stroke-width="1" stroke="black" d="M 178 169 316 83"/>
<path stroke-width="1" stroke="black" d="M 178 169 309 20"/>
<path stroke-width="1" stroke="black" d="M 178 169 30 216"/>
<path stroke-width="1" stroke="black" d="M 178 169 270 40"/>
<path stroke-width="1" stroke="black" d="M 178 169 109 172"/>
<path stroke-width="1" stroke="black" d="M 178 169 279 145"/>
<path stroke-width="1" stroke="black" d="M 178 169 211 141"/>
<path stroke-width="1" stroke="black" d="M 78 256 152 289"/>
<path stroke-width="1" stroke="black" d="M 78 256 405 92"/>
<path stroke-width="1" stroke="black" d="M 78 256 420 165"/>
<path stroke-width="1" stroke="black" d="M 78 256 269 241"/>
<path stroke-width="1" stroke="black" d="M 78 256 178 169"/>
<path stroke-width="1" stroke="black" d="M 78 256 155 64"/>
<path stroke-width="1" stroke="black" d="M 78 256 192 20"/>
<path stroke-width="1" stroke="black" d="M 78 256 84 95"/>
<path stroke-width="1" stroke="black" d="M 78 256 190 307"/>
<path stroke-width="1" stroke="black" d="M 178 169 78 256"/>
<path stroke-width="1" stroke="black" d="M 420 165 30 216"/>
<path stroke-width="1" stroke="black" d="M 178 169 269 241"/>
<path stroke-width="1" stroke="black" d="M 178 169 405 92"/>
<path stroke-width="1" stroke="black" d="M 420 165 109 172"/>
<path stroke-width="1" stroke="black" d="M 420 165 279 145"/>
<path stroke-width="1" stroke="black" d="M 420 165 211 141"/>
<path stroke-width="1" stroke="black" d="M 269 241 152 289"/>
<path stroke-width="1" stroke="black" d="M 269 241 405 92"/>
<path stroke-width="1" stroke="black" d="M 269 241 420 165"/>
<path stroke-width="1" stroke="black" d="M 269 241 178 169"/>
<path stroke-width="1" stroke="black" d="M 269 241 78 256"/>
<path stroke-width="1" stroke="black" d="M 269 241 155 64"/>
<path stroke-width="1" stroke="black" d="M 269 241 192 20"/>
<path stroke-width="1" stroke="black" d="M 269 241 84 95"/>
<path stroke-width="1" stroke="black" d="M 269 241 190 307"/>
<path stroke-width="1" stroke="black" d="M 269 241 66 88"/>
<path stroke-width="1" stroke="black" d="M 269 241 369 287"/>
<path stroke-width="1" stroke="black" d="M 269 241 271 320"/>
<path stroke-width="1" stroke="black" d="M 269 241 20 150"/>
<path stroke-width="1" stroke="black" d="M 269 241 379 244"/>
<path stroke-width="1" stroke="black" d="M 269 241 316 83"/>
<path stroke-width="1" stroke="black" d="M 269 241 309 20"/>
<path stroke-width="1" stroke="black" d="M 269 241 30 216"/>
<path stroke-width="1" stroke="black" d="M 269 241 270 40"/>
<path stroke-width="1" stroke="black" d="M 269 241 109 172"/>
<path stroke-width="1" stroke="black" d="M 269 241 279 145"/>
<path stroke-width="1" stroke="black" d="M 269 241 211 141"/>
<path stroke-width="1" stroke="black" d="M 178 169 152 289"/>
<path stroke-width="1" stroke="black" d="M 178 169 420 165"/>
<path stroke-width="1" stroke="black" d="M 66 88 211 141"/>
<path stroke-width="1" stroke="black" d="M 369 287 152 289"/>
<path stroke-width="1" stroke="black" d="M 369 287 405 92"/>
<path stroke-width="1" stroke="black" d="M 270 40 152 289"/>
<path stroke-width="1" stroke="black" d="M 270 40 405 92"/>
<path stroke-width="1" stroke="black" d="M 270 40 420 165"/>
<path stroke-width="1" stroke="black" d="M 270 40 269 241"/>
<path stroke-width="1" stroke="black" d="M 270 40 178 169"/>
<path stroke-width="1" stroke="black" d="M 270 40 78 256"/>
<path stroke-width="1" stroke="black" d="M 270 40 155 64"/>
<path stroke-width="1" stroke="black" d="M 270 40 192 20"/>
<path stroke-width="1" stroke="black" d="M 270 40 84 95"/>
<path stroke-width="1" stroke="black" d="M 270 40 190 307"/>
<path stroke-width="1" stroke="black" d="M 270 40 66 88"/>
<path stroke-width="1" stroke="black" d="M 270 40 369 287"/>
<path stroke-width="1" stroke="black" d="M 270 40 271 320"/>
<path stroke-width="1" stroke="black" d="M 270 40 20 150"/>
<path stroke-width="1" stroke="black" d="M 270 40 379 244"/>
<path stroke-width="1" stroke="black" d="M 270 40 316 83"/>
<path stroke-width="1" stroke="black" d="M 270 40 309 20"/>
<path stroke-width="1" stroke="black" d="M 270 40 30 216"/>
<path stroke-width="1" stroke="black" d="M 270 40 109 172"/>
<path stroke-width="1" stroke="black" d="M 270 40 279 145"/>
<path stroke-width="1" stroke="black" d="M 270 40 211 141"/>
<path stroke-width="1" stroke="black" d="M 109 172 152 289"/>
<path stroke-width="1" stroke="black" d="M 109 172 405 92"/>
<path stroke-width="1" stroke="black" d="M 109 172 420 165"/>
<path stroke-width="1" stroke="black" d="M 109 172 269 241"/>
<path stroke-width="1" stroke="black" d="M 30 216 211 141"/>
<path stroke-width="1" stroke="black" d="M 109 172 178 169"/>
<path stroke-width="1" stroke="black" d="M 30 216 279 145"/>
<path stroke-width="1" stroke="black" d="M 30 216 270 40"/>
<path stroke-width="1" stroke="black" d="M 309 20 20 150"/>
<path stroke-width="1" stroke="black" d="M 309 20 379 244"/>
<path stroke-width="1" stroke="black" d="M 309 20 316 83"/>
<path stroke-width="1" stroke="black" d="M 309 20 30 216"/>
<path stroke-width="1" stroke="black" d="M 309 20 270 40"/>
<path stroke-width="1" stroke="black" d="M 309 20 109 172"/>
<path stroke-width="1" stroke="black" d="M 309 20 279 145"/>
<path stroke-width="1" stroke="black" d="M 309 20 211 141"/>
<path stroke-width="1" stroke="black" d="M 30 216 152 289"/>
<path stroke-width="1" stroke="black" d="M 30 216 405 92"/>
<path stroke-width="1" stroke="black" d="M 30 216 420 165"/>
<path stroke-width="1" stroke="black" d="M 30 216 269 241"/>
<path stroke-width="1" stroke="black" d="M 30 216 178 169"/>
<path stroke-width="1" stroke="black" d="M 30 216 78 256"/>
<path stroke-width="1" stroke="black" d="M 30 216 155 64"/>
<path stroke-width="1" stroke="black" d="M 30 216 192 20"/>
<path stroke-width="1" stroke="black" d="M 30 216 84 95"/>
<path stroke-width="1" stroke="black" d="M 30 216 190 307"/>
<path stroke-width="1" stroke="black" d="M 30 216 66 88"/>
<path stroke-width="1" stroke="black" d="M 30 216 369 287"/>
<path stroke-width="1" stroke="black" d="M 30 216 271 320"/>
<path stroke-width="1" stroke="black" d="M 30 216 20 150"/>
<path stroke-width="1" stroke="black" d="M 30 216 379 244"/>
<path stroke-width="1" stroke="black" d="M 30 216 316 83"/>
<path stroke-width="1" stroke="black" d="M 30 216 309 20"/>
<path stroke-width="1" stroke="black" d="M 30 216 109 172"/>
<path stroke-width="1" stroke="black" d="M 309 20 271 320"/>
<path stroke-width="1" stroke="black" d="M 109 172 78 256"/>
<path stroke-width="1" stroke="black" d="M 109 172 192 20"/>
<path stroke-width="1" stroke="black" d="M 279 145 309 20"/>
<path stroke-width="1" stroke="black" d="M 279 145 30 216"/>
<path stroke-width="1" stroke="black" d="M 279 145 270 40"/>
<path stroke-width="1" stroke="black" d="M 279 145 109 172"/>
<path stroke-width="1" stroke="black" d="M 279 145 211 141"/>
<path stroke-width="1" stroke="black" d="M 211 141 152 289"/>
<path stroke-width="1" stroke="black" d="M 211 141 405 92"/>
<path stroke-width="1" stroke="black" d="M 211 141 420 165"/>
<path stroke-width="1" stroke="black" d="M 211 141 269 241"/>
<path stroke-width="1" stroke="black" d="M 211 141 178 169"/>
<path stroke-width="1" stroke="black" d="M 211 141 78 256"/>
<path stroke-width="1" stroke="black" d="M 211 141 155 64"/>
<path stroke-width="1" stroke="black" d="M 211 141 192 20"/>
<path stroke-width="1" stroke="black" d="M 211 141 84 95"/>
<path stroke-width="1" stroke="black" d="M 211 141 190 307"/>
<path stroke-width="1" stroke="black" d="M 211 141 66 88"/>
<path stroke-width="1" stroke="black" d="M 211 141 369 287"/>
<path stroke-width="1" stroke="black" d="M 211 141 271 320"/>
<path stroke-width="1" stroke="black" d="M 211 141 20 150"/>
<path stroke-width="1" stroke="black" d="M 211 141 379 244"/>
<path stroke-width="1" stroke="black" d="M 211 141 316 83"/>
<path stroke-width="1" stroke="black" d="M 211 141 309 20"/>
<path stroke-width="1" stroke="black" d="M 211 141 30 216"/>
<path stroke-width="1" stroke="black" d="M 211 141 270 40"/>
<path stroke-width="1" stroke="black" d="M 211 141 109 172"/>
<path stroke-width="1" stroke="black" d="M 279 145 316 83"/>
<path stroke-width="1" stroke="black" d="M 109 172 155 64"/>
<path stroke-width="1" stroke="black" d="M 279 145 379 244"/>
<path stroke-width="1" stroke="black" d="M 279 145 271 320"/>
<path stroke-width="1" stroke="black" d="M 109 172 84 95"/>
<path stroke-width="1" stroke="black" d="M 109 172 190 307"/>
<path stroke-width="1" stroke="black" d="M 109 172 66 88"/>
<path stroke-width="1" stroke="black" d="M 109 172 369 287"/>
<path stroke-width="1" stroke="black" d="M 109 172 271 320"/>
<path stroke-width="1" stroke="black" d="M 109 172 20 150"/>
<path stroke-width="1" stroke="black" d="M 109 172 379 244"/>
<path stroke-width="1" stroke="black" d="M 109 172 316 83"/>
<path stroke-width="1" stroke="black" d="M 109 172 309 20"/>
<path stroke-width="1" stroke="black" d="M 109 172 30 216"/>
<path stroke-width="1" stroke="black" d="M 109 172 270 40"/>
<path stroke-width="1" stroke="black" d="M 109 172 279 145"/>
<path stroke-width="1" stroke="black" d="M 109 172 211 141"/>
<path stroke-width="1" stroke="black" d="M 279 145 152 289"/>
<path stroke-width="1" stroke="black" d="M 279 145 405 92"/>
<path stroke-width="1" stroke="black" d="M 279 145 420 165"/>
<path stroke-width="1" stroke="black" d="M 279 145 269 241"/>
<path stroke-width="1" stroke="black" d="M 279 145 178 169"/>
<path stroke-width="1" stroke="black" d="M 279 145 78 256"/>
<path stroke-width="1" stroke="black" d="M 279 145 155 64"/>
<path stroke-width="1" stroke="black" d="M 279 145 192 20"/>
<path stroke-width="1" stroke="black" d="M 279 145 84 95"/>
<path stroke-width="1" stroke="black" d="M 279 145 190 307"/>
<path stroke-width="1" stroke="black" d="M 279 145 66 88"/>
<path stroke-width="1" stroke="black" d="M 279 145 369 287"/>
<path stroke-width="1" stroke="black" d="M 279 145 20 150"/>
<path stroke-width="1" stroke="black" d="M 152 289 420 165"/>
<path stroke-width="1" stroke="black" d="M 309 20 369 287"/>
<path stroke-width="1" stroke="black" d="M 309 20 190 307"/>
<path stroke-width="1" stroke="black" d="M 271 320 66 88"/>
<path stroke-width="1" stroke="black" d="M 271 320 369 287"/>
<path stroke-width="1" stroke="black" d="M 271 320 20 150"/>
<path stroke-width="1" stroke="black" d="M 271 320 379 244"/>
<path stroke-width="1" stroke="black" d="M 271 320 316 83"/>
<path stroke-width="1" stroke="black" d="M 271 320 309 20"/>
<path stroke-width="1" stroke="black" d="M 271 320 30 216"/>
<path stroke-width="1" stroke="black" d="M 271 320 270 40"/>
<path stroke-width="1" stroke="black" d="M 271 320 109 172"/>
<path stroke-width="1" stroke="black" d="M 271 320 279 145"/>
<path stroke-width="1" stroke="black" d="M 271 320 211 141"/>
<path stroke-width="1" stroke="black" d="M 20 150 152 289"/>
<path stroke-width="1" stroke="black" d="M 20 150 405 92"/>
<path stroke-width="1" stroke="black" d="M 20 150 420 165"/>
<path stroke-width="1" stroke="black" d="M 20 150 269 241"/>
<path stroke-width="1" stroke="black" d="M 20 150 178 169"/>
<path stroke-width="1" stroke="black" d="M 20 150 78 256"/>
<path stroke-width="1" stroke="black" d="M 20 150 155 64"/>
<path stroke-width="1" stroke="black" d="M 20 150 192 20"/>
<path stroke-width="1" stroke="black" d="M 20 150 84 95"/>
<path stroke-width="1" stroke="black" d="M 20 150 190 307"/>
<path stroke-width="1" stroke="black" d="M 20 150 66 88"/>
<path stroke-width="1" stroke="black" d="M 20 150 369 287"/>
<path stroke-width="1" stroke="black" d="M 20 150 271 320"/>
<path stroke-width="1" stroke="black" d="M 20 150 379 244"/>
<path stroke-width="1" stroke="black" d="M 271 320 190 307"/>
<path stroke-width="1" stroke="black" d="M 20 150 316 83"/>
<path stroke-width="1" stroke="black" d="M 271 320 84 95"/>
<path stroke-width="1" stroke="black" d="M 271 320 155 64"/>
<path stroke-width="1" stroke="black" d="M 369 287 420 165"/>
<path stroke-width="1" stroke="black" d="M 369 287 269 241"/>
<path stroke-width="1" stroke="black" d="M 369 287 178 169"/>
<path stroke-width="1" stroke="black" d="M 369 287 78 256"/>
<path stroke-width="1" stroke="black" d="M 369 287 155 64"/>
<path stroke-width="1" stroke="black" d="M 369 287 192 20"/>
<path stroke-width="1" stroke="black" d="M 369 287 84 95"/>
<path stroke-width="1" stroke="black" d="M 369 287 190 307"/>
<path stroke-width="1" stroke="black" d="M 369 287 66 88"/>
<path stroke-width="1" stroke="black" d="M 369 287 271 320"/>
<path stroke-width="1" stroke="black" d="M 369 287 20 150"/>
<path stroke-width="1" stroke="black" d="M 369 287 379 244"/>
<path stroke-width="1" stroke="black" d="M 369 287 316 83"/>
<path stroke-width="1" stroke="black" d="M 369 287 309 20"/>
<path stroke-width="1" stroke="black" d="M 369 287 30 216"/>
<path stroke-width="1" stroke="black" d="M 369 287 270 40"/>
<path stroke-width="1" stroke="black" d="M 369 287 109 172"/>
<path stroke-width="1" stroke="black" d="M 369 287 279 145"/>
<path stroke-width="1" stroke="black" d="M 369 287 211 141"/>
<path stroke-width="1" stroke="black" d="M 271 320 152 289"/>
<path stroke-width="1" stroke="black" d="M 271 320 405 92"/>
<path stroke-width="1" stroke="black" d="M 271 320 420 165"/>
<path stroke-width="1" stroke="black" d="M 271 320 269 241"/>
<path stroke-width="1" stroke="black" d="M 271 320 178 169"/>
<path stroke-width="1" stroke="black" d="M 271 320 78 256"/>
<path stroke-width="1" stroke="black" d="M 271 320 192 20"/>
<path stroke-width="1" stroke="black" d="M 309 20 66 88"/>
<path stroke-width="1" stroke="black" d="M 20 150 309 20"/>
<path stroke-width="1" stroke="black" d="M 20 150 270 40"/>
<path stroke-width="1" stroke="black" d="M 316 83 78 256"/>
<path stroke-width="1" stroke="black" d="M 316 83 155 64"/>
<path stroke-width="1" stroke="black" d="M 316 83 192 20"/>
<path stroke-width="1" stroke="black" d="M 316 83 84 95"/>
<path stroke-width="1" stroke="black" d="M 316 83 190 307"/>
<path stroke-width="1" stroke="black" d="M 316 83 66 88"/>
<path stroke-width="1" stroke="black" d="M 316 83 369 287"/>
<path stroke-width="1" stroke="black" d="M 316 83 271 320"/>
<path stroke-width="1" stroke="black" d="M 316 83 20 150"/>
<path stroke-width="1" stroke="black" d="M 316 83 379 244"/>
<path stroke-width="1" stroke="black" d="M 316 83 309 20"/>
<path stroke-width="1" stroke="black" d="M 316 83 30 216"/>
<path stroke-width="1" stroke="black" d="M 316 83 270 40"/>
<path stroke-width="1" stroke="black" d="M 316 83 109 172"/>
<path stroke-width="1" stroke="black" d="M 316 83 279 145"/>
<path stroke-width="1" stroke="black" d="M 316 83 211 141"/>
<path stroke-width="1" stroke="black" d="M 309 20 152 289"/>
<path stroke-width="1" stroke="black" d="M 309 20 405 92"/>
<path stroke-width="1" stroke="black" d="M 309 20 420 165"/>
<path stroke-width="1" stroke="black" d="M 309 20 269 241"/>
<path stroke-width="1" stroke="black" d="M 309 20 178 169"/>
<path stroke-width="1" stroke="black" d="M 309 20 78 256"/>
<path stroke-width="1" stroke="black" d="M 309 20 155 64"/>
<path stroke-width="1" stroke="black" d="M 309 20 192 20"/>
<path stroke-width="1" stroke="black" d="M 309 20 84 95"/>
<path stroke-width="1" stroke="black" d="M 316 83 178 169"/>
<path stroke-width="1" stroke="black" d="M 20 150 30 216"/>
<path stroke-width="1" stroke="black" d="M 316 83 269 241"/>
<path stroke-width="1" stroke="black" d="M 316 83 405 92"/>
<path stroke-width="1" stroke="black" d="M 20 150 109 172"/>
<path stroke-width="1" stroke="black" d="M 20 150 279 145"/>
<path stroke-width="1" stroke="black" d="M 20 150 211 141"/>
<path stroke-width="1" stroke="black" d="M 379 244 152 289"/>
<path stroke-width="1" stroke="black" d="M 379 244 405 92"/>
<path stroke-width="1" stroke="black" d="M 379 244 420 165"/>
<path stroke-width="1" stroke="black" d="M 379 244 269 241"/>
<path stroke-width="1" stroke="black" d="M 379 244 178 169"/>
<path stroke-width="1" stroke="black" d="M 379 244 78 256"/>
<path stroke-width="1" stroke="black" d="M 379 244 155 64"/>
<path stroke-width="1" stroke="black" d="M 379 244 192 20"/>
<path stroke-width="1" stroke="black" d="M 379 244 84 95"/>
<path stroke-width="1" stroke="black" d="M 379 244 190 307"/>
<path stroke-width="1" stroke="black" d="M 379 244 66 88"/>
<path stroke-width="1" stroke="black" d="M 379 244 369 287"/>
<path stroke-width="1" stroke="black" d="M 379 244 271 320"/>
<path stroke-width="1" stroke="black" d="M 379 244 20 150"/>
<path stroke-width="1" stroke="black" d="M 379 244 316 83"/>
<path stroke-width="1" stroke="black" d="M 379 244 309 20"/>
<path stroke-width="1" stroke="black" d="M 379 244 30 216"/>
<path stroke-width="1" stroke="black" d="M 379 244 270 40"/>
<path stroke-width="1" stroke="black" d="M 379 244 109 172"/>
<path stroke-width="1" stroke="black" d="M 379 244 279 145"/>
<path stroke-width="1" stroke="black" d="M 379 244 211 141"/>
<path stroke-width="1" stroke="black" d="M 316 83 152 289"/>
<path stroke-width="1" stroke="black" d="M 316 83 420 165"/>
<path stroke-width="1" stroke="black" d="M 152 289 405 92"/>
<circle cx="211" cy="141" r="7.0" style="fill:red;stroke:black;stroke-width:1.0"/>
<circle cx="279" cy="145" r="7.0" style="fill:blue;stroke:black;stroke-width:1.0"/>
<circle cx="109" cy="172" r="7.0" style="fill:red;stroke:black;stroke-width:1.0"/>
<circle cx="270" cy="40" r="7.0" style="fill:red;stroke:black;stroke-width:1.0"/>
<circle cx="30" cy="216" r="7.0" style="fill:red;stroke:black;stroke-width:1.0"/>
<circle cx="309" cy="20" r="7.0" style="fill:green;stroke:black;stroke-width:1.0"/>
<circle cx="316" cy="83" r="7.0" style="fill:blue;stroke:black;stroke-width:1.0"/>
<circle cx="379" cy="244" r="7.0" style="fill:orange;stroke:black;stroke-width:1.0"/>
<circle cx="20" cy="150" r="7.0" style="fill:blue;stroke:black;stroke-width:1.0"/>
<circle cx="271" cy="320" r="7.0" style="fill:blue;stroke:black;stroke-width:1.0"/>
<circle cx="369" cy="287" r="7.0" style="fill:blue;stroke:black;stroke-width:1.0"/>
<circle cx="66" cy="88" r="7.0" style="fill:blue;stroke:black;stroke-width:1.0"/>
<circle cx="190" cy="307" r="7.0" style="fill:purple;stroke:black;stroke-width:1.0"/>
<circle cx="84" cy="95" r="7.0" style="fill:blue;stroke:black;stroke-width:1.0"/>
<circle cx="192" cy="20" r="7.0" style="fill:green;stroke:black;stroke-width:1.0"/>
<circle cx="155" cy="64" r="7.0" style="fill:blue;stroke:black;stroke-width:1.0"/>
<circle cx="78" cy="256" r="7.0" style="fill:red;stroke:black;stroke-width:1.0"/>
<circle cx="178" cy="169" r="7.0" style="fill:red;stroke:black;stroke-width:1.0"/>
<circle cx="269" cy="241" r="7.0" style="fill:red;stroke:black;stroke-width:1.0"/>
<circle cx="420" cy="165" r="7.0" style="fill:red;stroke:black;stroke-width:1.0"/>
<circle cx="405" cy="92" r="7.0" style="fill:orange;stroke:black;stroke-width:1.0"/>
<circle cx="152" cy="289" r="7.0" style="fill:purple;stroke:black;stroke-width:1.0"/>
</svg>
