<svg width="440" height="340" xmlns="http://www.w3.org/2000/svg">
<path stroke-width="1" stroke="black" d="M 37 320 43 285"/>
<path stroke-width="1" stroke="black" d="M 402 38 415 75"/>
<path stroke-width="1" stroke="black" d="M 402 38 408 60"/>
<path stroke-width="1" stroke="black" d="M 39 252 35 238"/>
<path stroke-width="1" stroke="black" d="M 35 238 43 285"/>
<path stroke-width="1" stroke="black" d="M 35 238 27 171"/>
<path stroke-width="1" stroke="black" d="M 35 238 39 252"/>
<path stroke-width="1" stroke="black" d="M 420 80 415 75"/>
<path stroke-width="1" stroke="black" d="M 402 38 395 20"/>
<path stroke-width="1" stroke="black" d="M 415 75 402 38"/>
<path stroke-width="1" stroke="black" d="M 415 75 408 60"/>
<path stroke-width="1" stroke="black" d="M 27 78 32 97"/>
<path stroke-width="1" stroke="black" d="M 32 97 27 171"/>
<path stroke-width="1" stroke="black" d="M 32 97 47 74"/>
<path stroke-width="1" stroke="black" d="M 32 97 27 78"/>
<path stroke-width="1" stroke="black" d="M 411 40 408 60"/>
<path stroke-width="1" stroke="black" d="M 408 60 402 38"/>
<path stroke-width="1" stroke="black" d="M 415 75 420 80"/>
<path stroke-width="1" stroke="black" d="M 395 20 402 38"/>
<path stroke-width="1" stroke="black" d="M 47 74 32 97"/>
<path stroke-width="1" stroke="black" d="M 47 74 50 54"/>
<path stroke-width="1" stroke="black" d="M 43 285 37 320"/>
<path stroke-width="1" stroke="black" d="M 43 285 56 223"/>
<path stroke-width="1" stroke="black" d="M 43 285 35 238"/>
<path stroke-width="1" stroke="black" d="M 62 233 56 223"/>
<path stroke-width="1" stroke="black" d="M 56 223 43 285"/>
<path stroke-width="1" stroke="black" d="M 56 223 62 233"/>
<path stroke-width="1" stroke="black" d="M 56 223 59 135"/>
<path stroke-width="1" stroke="black" d="M 20 177 27 171"/>
<path stroke-width="1" stroke="black" d="M 27 171 20 177"/>
<path stroke-width="1" stroke="black" d="M 27 171 35 238"/>
<path stroke-width="1" stroke="black" d="M 27 171 32 97"/>
<path stroke-width="1" stroke="black" d="M 63 127 59 135"/>
<path stroke-width="1" stroke="black" d="M 59 135 56 223"/>
<path stroke-width="1" stroke="black" d="M 59 135 63 127"/>
<path stroke-width="1" stroke="black" d="M 59 135 47 74"/>
<path stroke-width="1" stroke="black" d="M 50 54 47 74"/>
<path stroke-width="1" stroke="black" d="M 47 74 59 135"/>
<path stroke-width="1" stroke="black" d="M 408 60 415 75"/>
<path stroke-width="1" stroke="black" d="M 408 60 411 40"/>
<circle cx="37" cy="320" r="7.0" style="fill:gray;stroke:black;stroke-width:1.0"/>
<circle cx="43" cy="285" r="7.0" style="fill:gray;stroke:black;stroke-width:1.0"/>
<circle cx="62" cy="233" r="7.0" style="fill:gray;stroke:black;stroke-width:1.0"/>
<circle cx="56" cy="223" r="7.0" style="fill:gray;stroke:black;stroke-width:1.0"/>
<circle cx="20" cy="177" r="7.0" style="fill:gray;stroke:black;stroke-width:1.0"/>
<circle cx="27" cy="171" r="7.0" style="fill:gray;stroke:black;stroke-width:1.0"/>
<circle cx="63" cy="127" r="7.0" style="fill:gray;stroke:black;stroke-width:1.0"/>
<circle cx="59" cy="135" r="7.0" style="fill:gray;stroke:black;stroke-width:1.0"/>
<circle cx="50" cy="54" r="7.0" style="fill:gray;stroke:black;stroke-width:1.0"/>
<circle cx="47" cy="74" r="7.0" style="fill:gray;stroke:black;stroke-width:1.0"/>
<circle cx="395" cy="20" r="7.0" style="fill:gray;stroke:black;stroke-width:1.0"/>
<circle cx="402" cy="38" r="7.0" style="fill:gray;stroke:black;stroke-width:1.0"/>
<circle cx="39" cy="252" r="7.0" style="fill:gray;stroke:black;stroke-width:1.0"/>
<circle cx="35" cy="238" r="7.0" style="fill:gray;stroke:black;stroke-width:1.0"/>
<circle cx="420" cy="80" r="7.0" style="fill:gray;stroke:black;stroke-width:1.0"/>
<circle cx="415" cy="75" r="7.0" style="fill:gray;stroke:black;stroke-width:1.0"/>
<circle cx="27" cy="78" r="7.0" style="fill:gray;stroke:black;stroke-width:1.0"/>
<circle cx="32" cy="97" r="7.0" style="fill:gray;stroke:black;stroke-width:1.0"/>
<circle cx="411" cy="40" r="7.0" style="fill:gray;stroke:black;stroke-width:1.0"/>
<circle cx="408" cy="60" r="7.0" style="fill:gray;stroke:black;stroke-width:1.0"/>
</svg>
