<svg width="440" height="340" xmlns="http://www.w3.org/2000/svg">
<path stroke-width="1" stroke="black" d="M 420 116 354 107"/>
<path stroke-width="1" stroke="black" d="M 210 280 228 307"/>
<path stroke-width="1" stroke="black" d="M 210 280 135 298"/>
<path stroke-width="1" stroke="black" d="M 251 155 242 137"/>
<path stroke-width="1" stroke="black" d="M 242 137 354 107"/>
<path stroke-width="1" stroke="black" d="M 242 137 92 126"/>
<path stroke-width="1" stroke="black" d="M 242 137 251 155"/>
<path stroke-width="1" stroke="black" d="M 249 320 228 307"/>
<path stroke-width="1" stroke="black" d="M 210 280 221 263"/>
<path stroke-width="1" stroke="black" d="M 228 307 210 280"/>
<path stroke-width="1" stroke="black" d="M 228 307 135 298"/>
<path stroke-width="1" stroke="black" d="M 20 81 41 84"/>
<path stroke-width="1" stroke="black" d="M 41 84 92 126"/>
<path stroke-width="1" stroke="black" d="M 41 84 112 37"/>
<path stroke-width="1" stroke="black" d="M 41 84 20 81"/>
<path stroke-width="1" stroke="black" d="M 86 302 135 298"/>
<path stroke-width="1" stroke="black" d="M 135 298 210 280"/>
<path stroke-width="1" stroke="black" d="M 228 307 249 320"/>
<path stroke-width="1" stroke="black" d="M 221 263 210 280"/>
<path stroke-width="1" stroke="black" d="M 112 37 41 84"/>
<path stroke-width="1" stroke="black" d="M 112 37 85 27"/>
<path stroke-width="1" stroke="black" d="M 354 107 420 116"/>
<path stroke-width="1" stroke="black" d="M 354 107 363 61"/>
<path stroke-width="1" stroke="black" d="M 354 107 242 137"/>
<path stroke-width="1" stroke="black" d="M 395 53 363 61"/>
<path stroke-width="1" stroke="black" d="M 363 61 354 107"/>
<path stroke-width="1" stroke="black" d="M 363 61 395 53"/>
<path stroke-width="1" stroke="black" d="M 363 61 260 35"/>
<path stroke-width="1" stroke="black" d="M 39 145 92 126"/>
<path stroke-width="1" stroke="black" d="M 92 126 39 145"/>
<path stroke-width="1" stroke="black" d="M 92 126 242 137"/>
<path stroke-width="1" stroke="black" d="M 92 126 41 84"/>
<path stroke-width="1" stroke="black" d="M 265 20 260 35"/>
<path stroke-width="1" stroke="black" d="M 260 35 363 61"/>
<path stroke-width="1" stroke="black" d="M 260 35 265 20"/>
<path stroke-width="1" stroke="black" d="M 260 35 112 37"/>
<path stroke-width="1" stroke="black" d="M 85 27 112 37"/>
<path stroke-width="1" stroke="black" d="M 112 37 260 35"/>
<path stroke-width="1" stroke="black" d="M 135 298 228 307"/>
<path stroke-width="1" stroke="black" d="M 135 298 86 302"/>
<circle cx="420" cy="116" r="7.0" style="fill:green;stroke:black;stroke-width:1.0"/>
<circle cx="354" cy="107" r="7.0" style="fill:green;stroke:black;stroke-width:1.0"/>
<circle cx="395" cy="53" r="7.0" style="fill:green;stroke:black;stroke-width:1.0"/>
<circle cx="363" cy="61" r="7.0" style="fill:green;stroke:black;stroke-width:1.0"/>
<circle cx="39" cy="145" r="7.0" style="fill:blue;stroke:black;stroke-width:1.0"/>
<circle cx="92" cy="126" r="7.0" style="fill:blue;stroke:black;stroke-width:1.0"/>
<circle cx="265" cy="20" r="7.0" style="fill:green;stroke:black;stroke-width:1.0"/>
<circle cx="260" cy="35" r="7.0" style="fill:green;stroke:black;stroke-width:1.0"/>
<circle cx="85" cy="27" r="7.0" style="fill:purple;stroke:black;stroke-width:1.0"/>
<circle cx="112" cy="37" r="7.0" style="fill:purple;stroke:black;stroke-width:1.0"/>
<circle cx="221" cy="263" r="7.0" style="fill:orange;stroke:black;stroke-width:1.0"/>
<circle cx="210" cy="280" r="7.0" style="fill:orange;stroke:black;stroke-width:1.0"/>
<circle cx="251" cy="155" r="7.0" style="fill:blue;stroke:black;stroke-width:1.0"/>
<circle cx="242" cy="137" r="7.0" style="fill:blue;stroke:black;stroke-width:1.0"/>
<circle cx="249" cy="320" r="7.0" style="fill:orange;stroke:black;stroke-width:1.0"/>
<circle cx="228" cy="307" r="7.0" style="fill:orange;stroke:black;stroke-width:1.0"/>
<circle cx="20" cy="81" r="7.0" style="fill:purple;stroke:black;stroke-width:1.0"/>
<circle cx="41" cy="84" r="7.0" style="fill:purple;stroke:black;stroke-width:1.0"/>
<circle cx="86" cy="302" r="7.0" style="fill:red;stroke:black;stroke-width:1.0"/>
<circle cx="135" cy="298" r="7.0" style="fill:red;stroke:black;stroke-width:1.0"/>
</svg>
