<svg width="440" height="340" xmlns="http://www.w3.org/2000/svg">
<path stroke-width="8.3" stroke="black" d="M 20 261 58 261"/>
<path stroke-width="0.5" stroke="black" d="M 390 28 362 48"/>
<path stroke-width="0.5" stroke="black" d="M 390 28 340 26"/>
<path stroke-width="20.0" stroke="black" d="M 84 297 104 290"/>
<path stroke-width="0.5" stroke="black" d="M 104 290 58 261"/>
<path stroke-width="0.5" stroke="black" d="M 104 290 182 303"/>
<path stroke-width="20.0" stroke="black" d="M 104 290 84 297"/>
<path stroke-width="20.0" stroke="black" d="M 360 61 362 48"/>
<path stroke-width="8.3" stroke="black" d="M 390 28 420 23"/>
<path stroke-width="0.5" stroke="black" d="M 362 48 390 28"/>
<path stroke-width="0.5" stroke="black" d="M 362 48 340 26"/>
<path stroke-width="20.0" stroke="black" d="M 277 297 251 289"/>
<path stroke-width="0.5" stroke="black" d="M 251 289 182 303"/>
<path stroke-width="0.5" stroke="black" d="M 251 289 248 256"/>
<path stroke-width="20.0" stroke="black" d="M 251 289 277 297"/>
<path stroke-width="20.0" stroke="black" d="M 319 20 340 26"/>
<path stroke-width="0.5" stroke="black" d="M 340 26 390 28"/>
<path stroke-width="20.0" stroke="black" d="M 362 48 360 61"/>
<path stroke-width="8.3" stroke="black" d="M 420 23 390 28"/>
<path stroke-width="0.5" stroke="black" d="M 248 256 251 289"/>
<path stroke-width="20.0" stroke="black" d="M 248 256 270 253"/>
<path stroke-width="8.3" stroke="black" d="M 58 261 20 261"/>
<path stroke-width="0.5" stroke="black" d="M 58 261 102 230"/>
<path stroke-width="0.5" stroke="black" d="M 58 261 104 290"/>
<path stroke-width="20.0" stroke="black" d="M 85 225 102 230"/>
<path stroke-width="0.5" stroke="black" d="M 102 230 58 261"/>
<path stroke-width="20.0" stroke="black" d="M 102 230 85 225"/>
<path stroke-width="0.5" stroke="black" d="M 102 230 180 236"/>
<path stroke-width="8.3" stroke="black" d="M 188 320 182 303"/>
<path stroke-width="8.3" stroke="black" d="M 182 303 188 320"/>
<path stroke-width="0.5" stroke="black" d="M 182 303 104 290"/>
<path stroke-width="0.5" stroke="black" d="M 182 303 251 289"/>
<path stroke-width="20.0" stroke="black" d="M 177 225 180 236"/>
<path stroke-width="0.5" stroke="black" d="M 180 236 102 230"/>
<path stroke-width="20.0" stroke="black" d="M 180 236 177 225"/>
<path stroke-width="0.5" stroke="black" d="M 180 236 248 256"/>
<path stroke-width="20.0" stroke="black" d="M 270 253 248 256"/>
<path stroke-width="0.5" stroke="black" d="M 248 256 180 236"/>
<path stroke-width="0.5" stroke="black" d="M 340 26 362 48"/>
<path stroke-width="20.0" stroke="black" d="M 340 26 319 20"/>
<circle cx="20" cy="261" r="20.0" style="fill:blue;stroke:black;stroke-width:1.0"/>
<circle cx="58" cy="261" r="20.0" style="fill:blue;stroke:black;stroke-width:1.0"/>
<circle cx="85" cy="225" r="20.0" style="fill:blue;stroke:black;stroke-width:1.0"/>
<circle cx="102" cy="230" r="20.0" style="fill:blue;stroke:black;stroke-width:1.0"/>
<circle cx="188" cy="320" r="20.0" style="fill:green;stroke:black;stroke-width:1.0"/>
<circle cx="182" cy="303" r="20.0" style="fill:green;stroke:black;stroke-width:1.0"/>
<circle cx="177" cy="225" r="20.0" style="fill:orange;stroke:black;stroke-width:1.0"/>
<circle cx="180" cy="236" r="20.0" style="fill:orange;stroke:black;stroke-width:1.0"/>
<circle cx="270" cy="253" r="20.0" style="fill:purple;stroke:black;stroke-width:1.0"/>
<circle cx="248" cy="256" r="20.0" style="fill:purple;stroke:black;stroke-width:1.0"/>
<circle cx="420" cy="23" r="20.0" style="fill:red;stroke:black;stroke-width:1.0"/>
<circle cx="390" cy="28" r="20.0" style="fill:red;stroke:black;stroke-width:1.0"/>
<circle cx="84" cy="297" r="20.0" style="fill:blue;stroke:black;stroke-width:1.0"/>
<circle cx="104" cy="290" r="20.0" style="fill:blue;stroke:black;stroke-width:1.0"/>
<circle cx="360" cy="61" r="20.0" style="fill:red;stroke:black;stroke-width:1.0"/>
<circle cx="362" cy="48" r="20.0" style="fill:red;stroke:black;stroke-width:1.0"/>
<circle cx="277" cy="297" r="20.0" style="fill:green;stroke:black;stroke-width:1.0"/>
<circle cx="251" cy="289" r="20.0" style="fill:green;stroke:black;stroke-width:1.0"/>
<circle cx="319" cy="20" r="20.0" style="fill:red;stroke:black;stroke-width:1.0"/>
<circle cx="340" cy="26" r="20.0" style="fill:red;stroke:black;stroke-width:1.0"/>
</svg>
