<svg width="440" height="340" xmlns="http://www.w3.org/2000/svg">
<path stroke-width="1" stroke="black" d="M 420 288 380 289"/>
<path stroke-width="1" stroke="black" d="M 97 28 86 46"/>
<path stroke-width="1" stroke="black" d="M 97 28 46 34"/>
<path stroke-width="1" stroke="black" d="M 363 320 342 308"/>
<path stroke-width="1" stroke="black" d="M 342 308 380 289"/>
<path stroke-width="1" stroke="black" d="M 342 308 263 302"/>
<path stroke-width="1" stroke="black" d="M 342 308 363 320"/>
<path stroke-width="1" stroke="black" d="M 94 55 86 46"/>
<path stroke-width="1" stroke="black" d="M 97 28 122 20"/>
<path stroke-width="1" stroke="black" d="M 86 46 97 28"/>
<path stroke-width="1" stroke="black" d="M 86 46 46 34"/>
<path stroke-width="1" stroke="black" d="M 156 289 185 286"/>
<path stroke-width="1" stroke="black" d="M 185 286 263 302"/>
<path stroke-width="1" stroke="black" d="M 185 286 161 261"/>
<path stroke-width="1" stroke="black" d="M 185 286 156 289"/>
<path stroke-width="1" stroke="black" d="M 20 33 46 34"/>
<path stroke-width="1" stroke="black" d="M 46 34 97 28"/>
<path stroke-width="1" stroke="black" d="M 86 46 94 55"/>
<path stroke-width="1" stroke="black" d="M 122 20 97 28"/>
<path stroke-width="1" stroke="black" d="M 161 261 185 286"/>
<path stroke-width="1" stroke="black" d="M 161 261 139 258"/>
<path stroke-width="1" stroke="black" d="M 380 289 420 288"/>
<path stroke-width="1" stroke="black" d="M 380 289 319 268"/>
<path stroke-width="1" stroke="black" d="M 380 289 342 308"/>
<path stroke-width="1" stroke="black" d="M 330 261 319 268"/>
<path stroke-width="1" stroke="black" d="M 319 268 380 289"/>
<path stroke-width="1" stroke="black" d="M 319 268 330 261"/>
<path stroke-width="1" stroke="black" d="M 319 268 240 259"/>
<path stroke-width="1" stroke="black" d="M 285 306 263 302"/>
<path stroke-width="1" stroke="black" d="M 263 302 285 306"/>
<path stroke-width="1" stroke="black" d="M 263 302 342 308"/>
<path stroke-width="1" stroke="black" d="M 263 302 185 286"/>
<path stroke-width="1" stroke="black" d="M 240 250 240 259"/>
<path stroke-width="1" stroke="black" d="M 240 259 319 268"/>
<path stroke-width="1" stroke="black" d="M 240 259 240 250"/>
<path stroke-width="1" stroke="black" d="M 240 259 161 261"/>
<path stroke-width="1" stroke="black" d="M 139 258 161 261"/>
<path stroke-width="1" stroke="black" d="M 161 261 240 259"/>
<path stroke-width="1" stroke="black" d="M 46 34 86 46"/>
<path stroke-width="1" stroke="black" d="M 46 34 20 33"/>
<circle cx="420" cy="288" r="7.0" style="fill:green;stroke:black;stroke-width:1.0"/>
<circle cx="380" cy="289" r="7.0" style="fill:green;stroke:black;stroke-width:1.0"/>
<circle cx="330" cy="261" r="7.0" style="fill:green;stroke:black;stroke-width:1.0"/>
<circle cx="319" cy="268" r="7.0" style="fill:green;stroke:black;stroke-width:1.0"/>
<circle cx="285" cy="306" r="7.0" style="fill:blue;stroke:black;stroke-width:1.0"/>
<circle cx="263" cy="302" r="7.0" style="fill:blue;stroke:black;stroke-width:1.0"/>
<circle cx="240" cy="250" r="7.0" style="fill:purple;stroke:black;stroke-width:1.0"/>
<circle cx="240" cy="259" r="7.0" style="fill:purple;stroke:black;stroke-width:1.0"/>
<circle cx="139" cy="258" r="7.0" style="fill:orange;stroke:black;stroke-width:1.0"/>
<circle cx="161" cy="261" r="7.0" style="fill:orange;stroke:black;stroke-width:1.0"/>
<circle cx="122" cy="20" r="7.0" style="fill:red;stroke:black;stroke-width:1.0"/>
<circle cx="97" cy="28" r="7.0" style="fill:red;stroke:black;stroke-width:1.0"/>
<circle cx="363" cy="320" r="7.0" style="fill:green;stroke:black;stroke-width:1.0"/>
<circle cx="342" cy="308" r="7.0" style="fill:green;stroke:black;stroke-width:1.0"/>
<circle cx="94" cy="55" r="7.0" style="fill:red;stroke:black;stroke-width:1.0"/>
<circle cx="86" cy="46" r="7.0" style="fill:red;stroke:black;stroke-width:1.0"/>
<circle cx="156" cy="289" r="7.0" style="fill:blue;stroke:black;stroke-width:1.0"/>
<circle cx="185" cy="286" r="7.0" style="fill:blue;stroke:black;stroke-width:1.0"/>
<circle cx="20" cy="33" r="7.0" style="fill:red;stroke:black;stroke-width:1.0"/>
<circle cx="46" cy="34" r="7.0" style="fill:red;stroke:black;stroke-width:1.0"/>
</svg>
