<svg width="440" height="340" xmlns="http://www.w3.org/2000/svg">
<path stroke-width="20.0" stroke="black" d="M 71 149 47 176"/>
<path stroke-width="20.0" stroke="black" d="M 68 320 91 318"/>
<path stroke-width="0.5" stroke="black" d="M 68 320 21 279"/>
<path stroke-width="0.5" stroke="black" d="M 293 51 217 75"/>
<path stroke-width="0.5" stroke="black" d="M 293 51 363 33"/>
<path stroke-width="0.5" stroke="black" d="M 420 20 363 33"/>
<path stroke-width="0.5" stroke="black" d="M 140 108 217 75"/>
<path stroke-width="0.5" stroke="black" d="M 140 108 71 149"/>
<path stroke-width="20.0" stroke="black" d="M 91 318 68 320"/>
<path stroke-width="0.5" stroke="black" d="M 91 318 137 294"/>
<path stroke-width="0.5" stroke="black" d="M 47 176 20 249"/>
<path stroke-width="20.0" stroke="black" d="M 47 176 71 149"/>
<path stroke-width="0.5" stroke="black" d="M 217 75 293 51"/>
<path stroke-width="0.5" stroke="black" d="M 217 75 140 108"/>
<path stroke-width="20.0" stroke="black" d="M 21 279 20 249"/>
<path stroke-width="0.5" stroke="black" d="M 21 279 68 320"/>
<path stroke-width="0.5" stroke="black" d="M 363 33 293 51"/>
<path stroke-width="0.5" stroke="black" d="M 363 33 420 20"/>
<path stroke-width="0.5" stroke="black" d="M 137 294 91 318"/>
<path stroke-width="0.5" stroke="black" d="M 71 149 140 108"/>
<path stroke-width="20.0" stroke="black" d="M 20 249 21 279"/>
<path stroke-width="0.5" stroke="black" d="M 20 249 47 176"/>
<circle cx="71" cy="149" r="20.0" style="fill:gray;stroke:black;stroke-width:1.0"/>
<circle cx="137" cy="294" r="20.0" style="fill:gray;stroke:black;stroke-width:1.0"/>
<circle cx="363" cy="33" r="20.0" style="fill:gray;stroke:black;stroke-width:1.0"/>
<circle cx="21" cy="279" r="20.0" style="fill:gray;stroke:black;stroke-width:1.0"/>
<circle cx="217" cy="75" r="20.0" style="fill:gray;stroke:black;stroke-width:1.0"/>
<circle cx="47" cy="176" r="20.0" style="fill:gray;stroke:black;stroke-width:1.0"/>
<circle cx="91" cy="318" r="20.0" style="fill:gray;stroke:black;stroke-width:1.0"/>
<circle cx="140" cy="108" r="20.0" style="fill:gray;stroke:black;stroke-width:1.0"/>
<circle cx="420" cy="20" r="20.0" style="fill:gray;stroke:black;stroke-width:1.0"/>
<circle cx="293" cy="51" r="20.0" style="fill:gray;stroke:black;stroke-width:1.0"/>
<circle cx="68" cy="320" r="20.0" style="fill:gray;stroke:black;stroke-width:1.0"/>
<circle cx="20" cy="249" r="20.0" style="fill:gray;stroke:black;stroke-width:1.0"/>
</svg>
