<svg width="440" height="340" xmlns="http://www.w3.org/2000/svg">
<path stroke-width="1" stroke="black" d="M 245 47 223 37"/>
<path stroke-width="1" stroke="black" d="M 83 27 57 33"/>
<path stroke-width="1" stroke="black" d="M 83 27 140 20"/>
<path stroke-width="1" stroke="black" d="M 378 207 342 145"/>
<path stroke-width="1" stroke="black" d="M 378 207 404 268"/>
<path stroke-width="1" stroke="black" d="M 420 320 404 268"/>
<path stroke-width="1" stroke="black" d="M 298 90 342 145"/>
<path stroke-width="1" stroke="black" d="M 298 90 245 47"/>
<path stroke-width="1" stroke="black" d="M 57 33 83 27"/>
<path stroke-width="1" stroke="black" d="M 57 33 20 49"/>
<path stroke-width="1" stroke="black" d="M 223 37 158 22"/>
<path stroke-width="1" stroke="black" d="M 223 37 245 47"/>
<path stroke-width="1" stroke="black" d="M 342 145 378 207"/>
<path stroke-width="1" stroke="black" d="M 342 145 298 90"/>
<path stroke-width="1" stroke="black" d="M 140 20 158 22"/>
<path stroke-width="1" stroke="black" d="M 140 20 83 27"/>
<path stroke-width="1" stroke="black" d="M 404 268 378 207"/>
<path stroke-width="1" stroke="black" d="M 404 268 420 320"/>
<path stroke-width="1" stroke="black" d="M 20 49 57 33"/>
<path stroke-width="1" stroke="black" d="M 245 47 298 90"/>
<path stroke-width="1" stroke="black" d="M 158 22 140 20"/>
<path stroke-width="1" stroke="black" d="M 158 22 223 37"/>
<circle cx="245" cy="47" r="20.0" style="fill:gray;stroke:black;stroke-width:1.0"/>
<circle cx="20" cy="49" r="20.0" style="fill:gray;stroke:black;stroke-width:1.0"/>
<circle cx="404" cy="268" r="20.0" style="fill:gray;stroke:black;stroke-width:1.0"/>
<circle cx="140" cy="20" r="20.0" style="fill:gray;stroke:black;stroke-width:1.0"/>
<circle cx="342" cy="145" r="20.0" style="fill:gray;stroke:black;stroke-width:1.0"/>
<circle cx="223" cy="37" r="20.0" style="fill:gray;stroke:black;stroke-width:1.0"/>
<circle cx="57" cy="33" r="20.0" style="fill:gray;stroke:black;stroke-width:1.0"/>
<circle cx="298" cy="90" r="20.0" style="fill:gray;stroke:black;stroke-width:1.0"/>
<circle cx="420" cy="320" r="20.0" style="fill:gray;stroke:black;stroke-width:1.0"/>
<circle cx="378" cy="207" r="20.0" style="fill:gray;stroke:black;stroke-width:1.0"/>
<circle cx="83" cy="27" r="20.0" style="fill:gray;stroke:black;stroke-width:1.0"/>
<circle cx="158" cy="22" r="20.0" style="fill:gray;stroke:black;stroke-width:1.0"/>
</svg>
