<svg width="440" height="340" xmlns="http://www.w3.org/2000/svg">
<path stroke-width="1" stroke="black" d="M 414 20 420 43"/>
<path stroke-width="1" stroke="black" d="M 417 72 420 43"/>
<path stroke-width="1" stroke="black" d="M 417 72 403 101"/>
<path stroke-width="1" stroke="black" d="M 403 101 417 72"/>
<path stroke-width="1" stroke="black" d="M 403 101 376 129"/>
<path stroke-width="1" stroke="black" d="M 376 129 403 101"/>
<path stroke-width="1" stroke="black" d="M 376 129 338 152"/>
<path stroke-width="1" stroke="black" d="M 338 152 376 129"/>
<path stroke-width="1" stroke="black" d="M 338 152 293 175"/>
<path stroke-width="1" stroke="black" d="M 293 175 338 152"/>
<path stroke-width="1" stroke="black" d="M 293 175 246 193"/>
<path stroke-width="1" stroke="black" d="M 246 193 293 175"/>
<path stroke-width="1" stroke="black" d="M 246 193 198 214"/>
<path stroke-width="1" stroke="black" d="M 198 214 246 193"/>
<path stroke-width="1" stroke="black" d="M 198 214 153 233"/>
<path stroke-width="1" stroke="black" d="M 153 233 198 214"/>
<path stroke-width="1" stroke="black" d="M 153 233 111 256"/>
<path stroke-width="1" stroke="black" d="M 111 256 153 233"/>
<path stroke-width="1" stroke="black" d="M 111 256 75 278"/>
<path stroke-width="1" stroke="black" d="M 75 278 111 256"/>
<path stroke-width="1" stroke="black" d="M 75 278 43 300"/>
<path stroke-width="1" stroke="black" d="M 43 300 75 278"/>
<path stroke-width="1" stroke="black" d="M 43 300 20 320"/>
<path stroke-width="1" stroke="black" d="M 20 320 43 300"/>
<path stroke-width="1" stroke="black" d="M 420 43 414 20"/>
<path stroke-width="1" stroke="black" d="M 420 43 417 72"/>
<circle cx="414" cy="20" r="7.0" style="fill:gray;stroke:black;stroke-width:1.0"/>
<circle cx="20" cy="320" r="7.0" style="fill:gray;stroke:black;stroke-width:1.0"/>
<circle cx="43" cy="300" r="7.0" style="fill:gray;stroke:black;stroke-width:1.0"/>
<circle cx="75" cy="278" r="7.0" style="fill:gray;stroke:black;stroke-width:1.0"/>
<circle cx="111" cy="256" r="7.0" style="fill:gray;stroke:black;stroke-width:1.0"/>
<circle cx="153" cy="233" r="7.0" style="fill:gray;stroke:black;stroke-width:1.0"/>
<circle cx="198" cy="214" r="7.0" style="fill:gray;stroke:black;stroke-width:1.0"/>
<circle cx="246" cy="193" r="7.0" style="fill:gray;stroke:black;stroke-width:1.0"/>
<circle cx="293" cy="175" r="7.0" style="fill:gray;stroke:black;stroke-width:1.0"/>
<circle cx="338" cy="152" r="7.0" style="fill:gray;stroke:black;stroke-width:1.0"/>
<circle cx="376" cy="129" r="7.0" style="fill:gray;stroke:black;stroke-width:1.0"/>
<circle cx="403" cy="101" r="7.0" style="fill:gray;stroke:black;stroke-width:1.0"/>
<circle cx="417" cy="72" r="7.0" style="fill:gray;stroke:black;stroke-width:1.0"/>
<circle cx="420" cy="43" r="7.0" style="fill:gray;stroke:black;stroke-width:1.0"/>
</svg>
