<svg width="440" height="340" xmlns="http://www.w3.org/2000/svg">
<path stroke-width="1" stroke="black" d="M 420 20 397 37"/>
<path stroke-width="1" stroke="black" d="M 369 71 397 37"/>
<path stroke-width="1" stroke="black" d="M 369 71 339 80"/>
<path stroke-width="1" stroke="black" d="M 339 80 369 71"/>
<path stroke-width="1" stroke="black" d="M 339 80 305 131"/>
<path stroke-width="1" stroke="black" d="M 305 131 339 80"/>
<path stroke-width="1" stroke="black" d="M 305 131 273 104"/>
<path stroke-width="1" stroke="black" d="M 273 104 305 131"/>
<path stroke-width="1" stroke="black" d="M 273 104 235 168"/>
<path stroke-width="1" stroke="black" d="M 235 168 273 104"/>
<path stroke-width="1" stroke="black" d="M 235 168 203 117"/>
<path stroke-width="1" stroke="black" d="M 203 117 235 168"/>
<path stroke-width="1" stroke="black" d="M 203 117 166 184"/>
<path stroke-width="1" stroke="black" d="M 166 184 203 117"/>
<path stroke-width="1" stroke="black" d="M 166 184 134 164"/>
<path stroke-width="1" stroke="black" d="M 134 164 166 184"/>
<path stroke-width="1" stroke="black" d="M 134 164 100 223"/>
<path stroke-width="1" stroke="black" d="M 100 223 134 164"/>
<path stroke-width="1" stroke="black" d="M 100 223 70 244"/>
<path stroke-width="1" stroke="black" d="M 70 244 100 223"/>
<path stroke-width="1" stroke="black" d="M 70 244 42 289"/>
<path stroke-width="1" stroke="black" d="M 42 289 70 244"/>
<path stroke-width="1" stroke="black" d="M 42 289 20 320"/>
<path stroke-width="1" stroke="black" d="M 20 320 42 289"/>
<path stroke-width="1" stroke="black" d="M 397 37 420 20"/>
<path stroke-width="1" stroke="black" d="M 397 37 369 71"/>
<circle cx="420" cy="20" r="20.0" style="fill:green;stroke:black;stroke-width:1.0"/>
<circle cx="20" cy="320" r="20.0" style="fill:blue;stroke:black;stroke-width:1.0"/>
<circle cx="42" cy="289" r="20.0" style="fill:blue;stroke:black;stroke-width:1.0"/>
<circle cx="70" cy="244" r="20.0" style="fill:blue;stroke:black;stroke-width:1.0"/>
<circle cx="100" cy="223" r="20.0" style="fill:blue;stroke:black;stroke-width:1.0"/>
<circle cx="134" cy="164" r="20.0" style="fill:red;stroke:black;stroke-width:1.0"/>
<circle cx="166" cy="184" r="20.0" style="fill:red;stroke:black;stroke-width:1.0"/>
<circle cx="203" cy="117" r="20.0" style="fill:red;stroke:black;stroke-width:1.0"/>
<circle cx="235" cy="168" r="20.0" style="fill:red;stroke:black;stroke-width:1.0"/>
<circle cx="273" cy="104" r="20.0" style="fill:orange;stroke:black;stroke-width:1.0"/>
<circle cx="305" cy="131" r="20.0" style="fill:orange;stroke:black;stroke-width:1.0"/>
<circle cx="339" cy="80" r="20.0" style="fill:green;stroke:black;stroke-width:1.0"/>
<circle cx="369" cy="71" r="20.0" style="fill:green;stroke:black;stroke-width:1.0"/>
<circle cx="397" cy="37" r="20.0" style="fill:green;stroke:black;stroke-width:1.0"/>
</svg>
