<svg width="440" height="340" xmlns="http://www.w3.org/2000/svg">
<path stroke-width="1" stroke="black" d="M 215 20 112 296"/>
<path stroke-width="1" stroke="black" d="M 68 72 49 239"/>
<path stroke-width="1" stroke="black" d="M 68 72 155 164"/>
<path stroke-width="1" stroke="black" d="M 68 72 420 165"/>
<path stroke-width="1" stroke="black" d="M 68 72 381 103"/>
<path stroke-width="1" stroke="black" d="M 68 72 306 54"/>
<path stroke-width="1" stroke="black" d="M 68 72 20 144"/>
<path stroke-width="1" stroke="black" d="M 68 72 184 94"/>
<path stroke-width="1" stroke="black" d="M 420 165 215 20"/>
<path stroke-width="1" stroke="black" d="M 420 165 112 296"/>
<path stroke-width="1" stroke="black" d="M 420 165 390 254"/>
<path stroke-width="1" stroke="black" d="M 68 72 283 145"/>
<path stroke-width="1" stroke="black" d="M 420 165 167 231"/>
<path stroke-width="1" stroke="black" d="M 420 165 238 320"/>
<path stroke-width="1" stroke="black" d="M 420 165 283 145"/>
<path stroke-width="1" stroke="black" d="M 420 165 49 239"/>
<path stroke-width="1" stroke="black" d="M 420 165 155 164"/>
<path stroke-width="1" stroke="black" d="M 420 165 68 72"/>
<path stroke-width="1" stroke="black" d="M 420 165 381 103"/>
<path stroke-width="1" stroke="black" d="M 420 165 306 54"/>
<path stroke-width="1" stroke="black" d="M 420 165 20 144"/>
<path stroke-width="1" stroke="black" d="M 420 165 184 94"/>
<path stroke-width="1" stroke="black" d="M 381 103 215 20"/>
<path stroke-width="1" stroke="black" d="M 420 165 285 255"/>
<path stroke-width="1" stroke="black" d="M 381 103 112 296"/>
<path stroke-width="1" stroke="black" d="M 68 72 238 320"/>
<path stroke-width="1" stroke="black" d="M 68 72 167 231"/>
<path stroke-width="1" stroke="black" d="M 49 239 420 165"/>
<path stroke-width="1" stroke="black" d="M 49 239 381 103"/>
<path stroke-width="1" stroke="black" d="M 49 239 306 54"/>
<path stroke-width="1" stroke="black" d="M 49 239 20 144"/>
<path stroke-width="1" stroke="black" d="M 49 239 184 94"/>
<path stroke-width="1" stroke="black" d="M 155 164 215 20"/>
<path stroke-width="1" stroke="black" d="M 155 164 112 296"/>
<path stroke-width="1" stroke="black" d="M 155 164 390 254"/>
<path stroke-width="1" stroke="black" d="M 155 164 167 231"/>
<path stroke-width="1" stroke="black" d="M 155 164 285 255"/>
<path stroke-width="1" stroke="black" d="M 68 72 285 255"/>
<path stroke-width="1" stroke="black" d="M 155 164 238 320"/>
<path stroke-width="1" stroke="black" d="M 155 164 49 239"/>
<path stroke-width="1" stroke="black" d="M 155 164 68 72"/>
<path stroke-width="1" stroke="black" d="M 155 164 420 165"/>
<path stroke-width="1" stroke="black" d="M 155 164 381 103"/>
<path stroke-width="1" stroke="black" d="M 155 164 306 54"/>
<path stroke-width="1" stroke="black" d="M 155 164 20 144"/>
<path stroke-width="1" stroke="black" d="M 155 164 184 94"/>
<path stroke-width="1" stroke="black" d="M 68 72 215 20"/>
<path stroke-width="1" stroke="black" d="M 68 72 112 296"/>
<path stroke-width="1" stroke="black" d="M 68 72 390 254"/>
<path stroke-width="1" stroke="black" d="M 155 164 283 145"/>
<path stroke-width="1" stroke="black" d="M 381 103 390 254"/>
<path stroke-width="1" stroke="black" d="M 381 103 167 231"/>
<path stroke-width="1" stroke="black" d="M 381 103 285 255"/>
<path stroke-width="1" stroke="black" d="M 20 144 285 255"/>
<path stroke-width="1" stroke="black" d="M 20 144 238 320"/>
<path stroke-width="1" stroke="black" d="M 20 144 283 145"/>
<path stroke-width="1" stroke="black" d="M 20 144 49 239"/>
<path stroke-width="1" stroke="black" d="M 20 144 155 164"/>
<path stroke-width="1" stroke="black" d="M 20 144 68 72"/>
<path stroke-width="1" stroke="black" d="M 20 144 420 165"/>
<path stroke-width="1" stroke="black" d="M 20 144 381 103"/>
<path stroke-width="1" stroke="black" d="M 20 144 306 54"/>
<path stroke-width="1" stroke="black" d="M 20 144 184 94"/>
<path stroke-width="1" stroke="black" d="M 20 144 167 231"/>
<path stroke-width="1" stroke="black" d="M 184 94 215 20"/>
<path stroke-width="1" stroke="black" d="M 184 94 390 254"/>
<path stroke-width="1" stroke="black" d="M 184 94 167 231"/>
<path stroke-width="1" stroke="black" d="M 184 94 285 255"/>
<path stroke-width="1" stroke="black" d="M 184 94 238 320"/>
<path stroke-width="1" stroke="black" d="M 184 94 283 145"/>
<path stroke-width="1" stroke="black" d="M 184 94 49 239"/>
<path stroke-width="1" stroke="black" d="M 184 94 155 164"/>
<path stroke-width="1" stroke="black" d="M 184 94 68 72"/>
<path stroke-width="1" stroke="black" d="M 184 94 420 165"/>
<path stroke-width="1" stroke="black" d="M 184 94 381 103"/>
<path stroke-width="1" stroke="black" d="M 184 94 112 296"/>
<path stroke-width="1" stroke="black" d="M 20 144 390 254"/>
<path stroke-width="1" stroke="black" d="M 20 144 112 296"/>
<path stroke-width="1" stroke="black" d="M 20 144 215 20"/>
<path stroke-width="1" stroke="black" d="M 381 103 238 320"/>
<path stroke-width="1" stroke="black" d="M 381 103 283 145"/>
<path stroke-width="1" stroke="black" d="M 381 103 49 239"/>
<path stroke-width="1" stroke="black" d="M 381 103 155 164"/>
<path stroke-width="1" stroke="black" d="M 381 103 68 72"/>
<path stroke-width="1" stroke="black" d="M 381 103 420 165"/>
<path stroke-width="1" stroke="black" d="M 381 103 306 54"/>
<path stroke-width="1" stroke="black" d="M 381 103 20 144"/>
<path stroke-width="1" stroke="black" d="M 381 103 184 94"/>
<path stroke-width="1" stroke="black" d="M 306 54 215 20"/>
<path stroke-width="1" stroke="black" d="M 306 54 112 296"/>
<path stroke-width="1" stroke="black" d="M 306 54 390 254"/>
<path stroke-width="1" stroke="black" d="M 306 54 167 231"/>
<path stroke-width="1" stroke="black" d="M 306 54 285 255"/>
<path stroke-width="1" stroke="black" d="M 306 54 238 320"/>
<path stroke-width="1" stroke="black" d="M 306 54 283 145"/>
<path stroke-width="1" stroke="black" d="M 306 54 49 239"/>
<path stroke-width="1" stroke="black" d="M 306 54 155 164"/>
<path stroke-width="1" stroke="black" d="M 306 54 68 72"/>
<path stroke-width="1" stroke="black" d="M 306 54 420 165"/>
<path stroke-width="1" stroke="black" d="M 306 54 381 103"/>
<path stroke-width="1" stroke="black" d="M 306 54 20 144"/>
<path stroke-width="1" stroke="black" d="M 306 54 184 94"/>
<path stroke-width="1" stroke="black" d="M 49 239 68 72"/>
<path stroke-width="1" stroke="black" d="M 49 239 155 164"/>
<path stroke-width="1" stroke="black" d="M 49 239 283 145"/>
<path stroke-width="1" stroke="black" d="M 49 239 238 320"/>
<path stroke-width="1" stroke="black" d="M 390 254 215 20"/>
<path stroke-width="1" stroke="black" d="M 390 254 112 296"/>
<path stroke-width="1" stroke="black" d="M 390 254 167 231"/>
<path stroke-width="1" stroke="black" d="M 390 254 285 255"/>
<path stroke-width="1" stroke="black" d="M 390 254 238 320"/>
<path stroke-width="1" stroke="black" d="M 390 254 283 145"/>
<path stroke-width="1" stroke="black" d="M 390 254 49 239"/>
<path stroke-width="1" stroke="black" d="M 390 254 155 164"/>
<path stroke-width="1" stroke="black" d="M 390 254 68 72"/>
<path stroke-width="1" stroke="black" d="M 390 254 420 165"/>
<path stroke-width="1" stroke="black" d="M 112 296 184 94"/>
<path stroke-width="1" stroke="black" d="M 390 254 381 103"/>
<path stroke-width="1" stroke="black" d="M 390 254 20 144"/>
<path stroke-width="1" stroke="black" d="M 390 254 184 94"/>
<path stroke-width="1" stroke="black" d="M 167 231 215 20"/>
<path stroke-width="1" stroke="black" d="M 167 231 112 296"/>
<path stroke-width="1" stroke="black" d="M 167 231 390 254"/>
<path stroke-width="1" stroke="black" d="M 167 231 285 255"/>
<path stroke-width="1" stroke="black" d="M 167 231 238 320"/>
<path stroke-width="1" stroke="black" d="M 167 231 283 145"/>
<path stroke-width="1" stroke="black" d="M 167 231 49 239"/>
<path stroke-width="1" stroke="black" d="M 167 231 155 164"/>
<path stroke-width="1" stroke="black" d="M 390 254 306 54"/>
<path stroke-width="1" stroke="black" d="M 112 296 20 144"/>
<path stroke-width="1" stroke="black" d="M 112 296 306 54"/>
<path stroke-width="1" stroke="black" d="M 112 296 381 103"/>
<path stroke-width="1" stroke="black" d="M 215 20 390 254"/>
<path stroke-width="1" stroke="black" d="M 215 20 167 231"/>
<path stroke-width="1" stroke="black" d="M 215 20 285 255"/>
<path stroke-width="1" stroke="black" d="M 215 20 238 320"/>
<path stroke-width="1" stroke="black" d="M 215 20 283 145"/>
<path stroke-width="1" stroke="black" d="M 215 20 49 239"/>
<path stroke-width="1" stroke="black" d="M 215 20 155 164"/>
<path stroke-width="1" stroke="black" d="M 215 20 68 72"/>
<path stroke-width="1" stroke="black" d="M 215 20 420 165"/>
<path stroke-width="1" stroke="black" d="M 215 20 381 103"/>
<path stroke-width="1" stroke="black" d="M 215 20 306 54"/>
<path stroke-width="1" stroke="black" d="M 215 20 20 144"/>
<path stroke-width="1" stroke="black" d="M 215 20 184 94"/>
<path stroke-width="1" stroke="black" d="M 112 296 215 20"/>
<path stroke-width="1" stroke="black" d="M 112 296 390 254"/>
<path stroke-width="1" stroke="black" d="M 112 296 167 231"/>
<path stroke-width="1" stroke="black" d="M 112 296 285 255"/>
<path stroke-width="1" stroke="black" d="M 112 296 238 320"/>
<path stroke-width="1" stroke="black" d="M 112 296 283 145"/>
<path stroke-width="1" stroke="black" d="M 112 296 49 239"/>
<path stroke-width="1" stroke="black" d="M 112 296 155 164"/>
<path stroke-width="1" stroke="black" d="M 112 296 68 72"/>
<path stroke-width="1" stroke="black" d="M 112 296 420 165"/>
<path stroke-width="1" stroke="black" d="M 167 231 68 72"/>
<path stroke-width="1" stroke="black" d="M 184 94 306 54"/>
<path stroke-width="1" stroke="black" d="M 167 231 420 165"/>
<path stroke-width="1" stroke="black" d="M 167 231 306 54"/>
<path stroke-width="1" stroke="black" d="M 238 320 306 54"/>
<path stroke-width="1" stroke="black" d="M 238 320 20 144"/>
<path stroke-width="1" stroke="black" d="M 238 320 184 94"/>
<path stroke-width="1" stroke="black" d="M 283 145 215 20"/>
<path stroke-width="1" stroke="black" d="M 283 145 112 296"/>
<path stroke-width="1" stroke="black" d="M 283 145 390 254"/>
<path stroke-width="1" stroke="black" d="M 283 145 167 231"/>
<path stroke-width="1" stroke="black" d="M 283 145 285 255"/>
<path stroke-width="1" stroke="black" d="M 283 145 238 320"/>
<path stroke-width="1" stroke="black" d="M 283 145 49 239"/>
<path stroke-width="1" stroke="black" d="M 238 320 381 103"/>
<path stroke-width="1" stroke="black" d="M 283 145 155 164"/>
<path stroke-width="1" stroke="black" d="M 283 145 420 165"/>
<path stroke-width="1" stroke="black" d="M 283 145 381 103"/>
<path stroke-width="1" stroke="black" d="M 283 145 306 54"/>
<path stroke-width="1" stroke="black" d="M 283 145 20 144"/>
<path stroke-width="1" stroke="black" d="M 283 145 184 94"/>
<path stroke-width="1" stroke="black" d="M 49 239 215 20"/>
<path stroke-width="1" stroke="black" d="M 49 239 112 296"/>
<path stroke-width="1" stroke="black" d="M 49 239 390 254"/>
<path stroke-width="1" stroke="black" d="M 49 239 167 231"/>
<path stroke-width="1" stroke="black" d="M 49 239 285 255"/>
<path stroke-width="1" stroke="black" d="M 283 145 68 72"/>
<path stroke-width="1" stroke="black" d="M 238 320 420 165"/>
<path stroke-width="1" stroke="black" d="M 238 320 68 72"/>
<path stroke-width="1" stroke="black" d="M 238 320 155 164"/>
<path stroke-width="1" stroke="black" d="M 167 231 20 144"/>
<path stroke-width="1" stroke="black" d="M 167 231 184 94"/>
<path stroke-width="1" stroke="black" d="M 285 255 215 20"/>
<path stroke-width="1" stroke="black" d="M 285 255 112 296"/>
<path stroke-width="1" stroke="black" d="M 285 255 390 254"/>
<path stroke-width="1" stroke="black" d="M 285 255 167 231"/>
<path stroke-width="1" stroke="black" d="M 285 255 238 320"/>
<path stroke-width="1" stroke="black" d="M 285 255 283 145"/>
<path stroke-width="1" stroke="black" d="M 285 255 49 239"/>
<path stroke-width="1" stroke="black" d="M 285 255 155 164"/>
<path stroke-width="1" stroke="black" d="M 285 255 68 72"/>
<path stroke-width="1" stroke="black" d="M 285 255 420 165"/>
<path stroke-width="1" stroke="black" d="M 285 255 381 103"/>
<path stroke-width="1" stroke="black" d="M 285 255 306 54"/>
<path stroke-width="1" stroke="black" d="M 285 255 20 144"/>
<path stroke-width="1" stroke="black" d="M 285 255 184 94"/>
<path stroke-width="1" stroke="black" d="M 238 320 215 20"/>
<path stroke-width="1" stroke="black" d="M 238 320 112 296"/>
<path stroke-width="1" stroke="black" d="M 238 320 390 254"/>
<path stroke-width="1" stroke="black" d="M 238 320 167 231"/>
<path stroke-width="1" stroke="black" d="M 238 320 285 255"/>
<path stroke-width="1" stroke="black" d="M 238 320 283 145"/>
<path stroke-width="1" stroke="black" d="M 238 320 49 239"/>
<path stroke-width="1" stroke="black" d="M 167 231 381 103"/>
<path stroke-width="1" stroke="black" d="M 184 94 20 144"/>
<circle cx="215" cy="20" r="7.0" style="fill:gray;stroke:black;stroke-width:1.0"/>
<circle cx="112" cy="296" r="7.0" style="fill:gray;stroke:black;stroke-width:1.0"/>
<circle cx="390" cy="254" r="7.0" style="fill:gray;stroke:black;stroke-width:1.0"/>
<circle cx="167" cy="231" r="7.0" style="fill:gray;stroke:black;stroke-width:1.0"/>
<circle cx="285" cy="255" r="7.0" style="fill:gray;stroke:black;stroke-width:1.0"/>
<circle cx="238" cy="320" r="7.0" style="fill:gray;stroke:black;stroke-width:1.0"/>
<circle cx="283" cy="145" r="7.0" style="fill:gray;stroke:black;stroke-width:1.0"/>
<circle cx="49" cy="239" r="7.0" style="fill:gray;stroke:black;stroke-width:1.0"/>
<circle cx="155" cy="164" r="7.0" style="fill:gray;stroke:black;stroke-width:1.0"/>
<circle cx="68" cy="72" r="7.0" style="fill:gray;stroke:black;stroke-width:1.0"/>
<circle cx="420" cy="165" r="7.0" style="fill:gray;stroke:black;stroke-width:1.0"/>
<circle cx="381" cy="103" r="7.0" style="fill:gray;stroke:black;stroke-width:1.0"/>
<circle cx="306" cy="54" r="7.0" style="fill:gray;stroke:black;stroke-width:1.0"/>
<circle cx="20" cy="144" r="7.0" style="fill:gray;stroke:black;stroke-width:1.0"/>
<circle cx="184" cy="94" r="7.0" style="fill:gray;stroke:black;stroke-width:1.0"/>
</svg>
