<svg width="440" height="340" xmlns="http://www.w3.org/2000/svg">
<path stroke-width="1" stroke="black" d="M 221 20 48 243"/>
<path stroke-width="1" stroke="black" d="M 219 231 136 169"/>
<path stroke-width="1" stroke="black" d="M 219 231 413 119"/>
<path stroke-width="1" stroke="black" d="M 219 231 230 320"/>
<path stroke-width="1" stroke="black" d="M 219 231 355 268"/>
<path stroke-width="1" stroke="black" d="M 219 231 71 68"/>
<path stroke-width="1" stroke="black" d="M 219 231 321 200"/>
<path stroke-width="1" stroke="black" d="M 219 231 162 104"/>
<path stroke-width="1" stroke="black" d="M 230 320 221 20"/>
<path stroke-width="1" stroke="black" d="M 230 320 48 243"/>
<path stroke-width="1" stroke="black" d="M 230 320 20 133"/>
<path stroke-width="1" stroke="black" d="M 219 231 326 39"/>
<path stroke-width="1" stroke="black" d="M 230 320 273 105"/>
<path stroke-width="1" stroke="black" d="M 230 320 120 291"/>
<path stroke-width="1" stroke="black" d="M 230 320 326 39"/>
<path stroke-width="1" stroke="black" d="M 230 320 136 169"/>
<path stroke-width="1" stroke="black" d="M 230 320 413 119"/>
<path stroke-width="1" stroke="black" d="M 230 320 219 231"/>
<path stroke-width="1" stroke="black" d="M 230 320 355 268"/>
<path stroke-width="1" stroke="black" d="M 230 320 71 68"/>
<path stroke-width="1" stroke="black" d="M 230 320 321 200"/>
<path stroke-width="1" stroke="black" d="M 230 320 162 104"/>
<path stroke-width="1" stroke="black" d="M 355 268 221 20"/>
<path stroke-width="1" stroke="black" d="M 230 320 420 209"/>
<path stroke-width="1" stroke="black" d="M 355 268 48 243"/>
<path stroke-width="1" stroke="black" d="M 219 231 120 291"/>
<path stroke-width="1" stroke="black" d="M 219 231 273 105"/>
<path stroke-width="1" stroke="black" d="M 136 169 230 320"/>
<path stroke-width="1" stroke="black" d="M 136 169 355 268"/>
<path stroke-width="1" stroke="black" d="M 136 169 71 68"/>
<path stroke-width="1" stroke="black" d="M 136 169 321 200"/>
<path stroke-width="1" stroke="black" d="M 136 169 162 104"/>
<path stroke-width="1" stroke="black" d="M 413 119 221 20"/>
<path stroke-width="1" stroke="black" d="M 413 119 48 243"/>
<path stroke-width="1" stroke="black" d="M 413 119 20 133"/>
<path stroke-width="1" stroke="black" d="M 413 119 273 105"/>
<path stroke-width="1" stroke="black" d="M 413 119 420 209"/>
<path stroke-width="1" stroke="black" d="M 219 231 420 209"/>
<path stroke-width="1" stroke="black" d="M 413 119 120 291"/>
<path stroke-width="1" stroke="black" d="M 413 119 136 169"/>
<path stroke-width="1" stroke="black" d="M 413 119 219 231"/>
<path stroke-width="1" stroke="black" d="M 413 119 230 320"/>
<path stroke-width="1" stroke="black" d="M 413 119 355 268"/>
<path stroke-width="1" stroke="black" d="M 413 119 71 68"/>
<path stroke-width="1" stroke="black" d="M 413 119 321 200"/>
<path stroke-width="1" stroke="black" d="M 413 119 162 104"/>
<path stroke-width="1" stroke="black" d="M 219 231 221 20"/>
<path stroke-width="1" stroke="black" d="M 219 231 48 243"/>
<path stroke-width="1" stroke="black" d="M 219 231 20 133"/>
<path stroke-width="1" stroke="black" d="M 413 119 326 39"/>
<path stroke-width="1" stroke="black" d="M 355 268 20 133"/>
<path stroke-width="1" stroke="black" d="M 355 268 273 105"/>
<path stroke-width="1" stroke="black" d="M 355 268 420 209"/>
<path stroke-width="1" stroke="black" d="M 321 200 420 209"/>
<path stroke-width="1" stroke="black" d="M 321 200 120 291"/>
<path stroke-width="1" stroke="black" d="M 321 200 326 39"/>
<path stroke-width="1" stroke="black" d="M 321 200 136 169"/>
<path stroke-width="1" stroke="black" d="M 321 200 413 119"/>
<path stroke-width="1" stroke="black" d="M 321 200 219 231"/>
<path stroke-width="1" stroke="black" d="M 321 200 230 320"/>
<path stroke-width="1" stroke="black" d="M 321 200 355 268"/>
<path stroke-width="1" stroke="black" d="M 321 200 71 68"/>
<path stroke-width="1" stroke="black" d="M 321 200 162 104"/>
<path stroke-width="1" stroke="black" d="M 321 200 273 105"/>
<path stroke-width="1" stroke="black" d="M 162 104 221 20"/>
<path stroke-width="1" stroke="black" d="M 162 104 20 133"/>
<path stroke-width="1" stroke="black" d="M 162 104 273 105"/>
<path stroke-width="1" stroke="black" d="M 162 104 420 209"/>
<path stroke-width="1" stroke="black" d="M 162 104 120 291"/>
<path stroke-width="1" stroke="black" d="M 162 104 326 39"/>
<path stroke-width="1" stroke="black" d="M 162 104 136 169"/>
<path stroke-width="1" stroke="black" d="M 162 104 413 119"/>
<path stroke-width="1" stroke="black" d="M 162 104 219 231"/>
<path stroke-width="1" stroke="black" d="M 162 104 230 320"/>
<path stroke-width="1" stroke="black" d="M 162 104 355 268"/>
<path stroke-width="1" stroke="black" d="M 162 104 48 243"/>
<path stroke-width="1" stroke="black" d="M 321 200 20 133"/>
<path stroke-width="1" stroke="black" d="M 321 200 48 243"/>
<path stroke-width="1" stroke="black" d="M 321 200 221 20"/>
<path stroke-width="1" stroke="black" d="M 355 268 120 291"/>
<path stroke-width="1" stroke="black" d="M 355 268 326 39"/>
<path stroke-width="1" stroke="black" d="M 355 268 136 169"/>
<path stroke-width="1" stroke="black" d="M 355 268 413 119"/>
<path stroke-width="1" stroke="black" d="M 355 268 219 231"/>
<path stroke-width="1" stroke="black" d="M 355 268 230 320"/>
<path stroke-width="1" stroke="black" d="M 355 268 71 68"/>
<path stroke-width="1" stroke="black" d="M 355 268 321 200"/>
<path stroke-width="1" stroke="black" d="M 355 268 162 104"/>
<path stroke-width="1" stroke="black" d="M 71 68 221 20"/>
<path stroke-width="1" stroke="black" d="M 71 68 48 243"/>
<path stroke-width="1" stroke="black" d="M 71 68 20 133"/>
<path stroke-width="1" stroke="black" d="M 71 68 273 105"/>
<path stroke-width="1" stroke="black" d="M 71 68 420 209"/>
<path stroke-width="1" stroke="black" d="M 71 68 120 291"/>
<path stroke-width="1" stroke="black" d="M 71 68 326 39"/>
<path stroke-width="1" stroke="black" d="M 71 68 136 169"/>
<path stroke-width="1" stroke="black" d="M 71 68 413 119"/>
<path stroke-width="1" stroke="black" d="M 71 68 219 231"/>
<path stroke-width="1" stroke="black" d="M 71 68 230 320"/>
<path stroke-width="1" stroke="black" d="M 71 68 355 268"/>
<path stroke-width="1" stroke="black" d="M 71 68 321 200"/>
<path stroke-width="1" stroke="black" d="M 71 68 162 104"/>
<path stroke-width="1" stroke="black" d="M 136 169 219 231"/>
<path stroke-width="1" stroke="black" d="M 136 169 413 119"/>
<path stroke-width="1" stroke="black" d="M 136 169 326 39"/>
<path stroke-width="1" stroke="black" d="M 136 169 120 291"/>
<path stroke-width="1" stroke="black" d="M 20 133 221 20"/>
<path stroke-width="1" stroke="black" d="M 20 133 48 243"/>
<path stroke-width="1" stroke="black" d="M 20 133 273 105"/>
<path stroke-width="1" stroke="black" d="M 20 133 420 209"/>
<path stroke-width="1" stroke="black" d="M 20 133 120 291"/>
<path stroke-width="1" stroke="black" d="M 20 133 326 39"/>
<path stroke-width="1" stroke="black" d="M 20 133 136 169"/>
<path stroke-width="1" stroke="black" d="M 20 133 413 119"/>
<path stroke-width="1" stroke="black" d="M 20 133 219 231"/>
<path stroke-width="1" stroke="black" d="M 20 133 230 320"/>
<path stroke-width="1" stroke="black" d="M 48 243 162 104"/>
<path stroke-width="1" stroke="black" d="M 20 133 355 268"/>
<path stroke-width="1" stroke="black" d="M 20 133 321 200"/>
<path stroke-width="1" stroke="black" d="M 20 133 162 104"/>
<path stroke-width="1" stroke="black" d="M 273 105 221 20"/>
<path stroke-width="1" stroke="black" d="M 273 105 48 243"/>
<path stroke-width="1" stroke="black" d="M 273 105 20 133"/>
<path stroke-width="1" stroke="black" d="M 273 105 420 209"/>
<path stroke-width="1" stroke="black" d="M 273 105 120 291"/>
<path stroke-width="1" stroke="black" d="M 273 105 326 39"/>
<path stroke-width="1" stroke="black" d="M 273 105 136 169"/>
<path stroke-width="1" stroke="black" d="M 273 105 413 119"/>
<path stroke-width="1" stroke="black" d="M 20 133 71 68"/>
<path stroke-width="1" stroke="black" d="M 48 243 321 200"/>
<path stroke-width="1" stroke="black" d="M 48 243 71 68"/>
<path stroke-width="1" stroke="black" d="M 48 243 355 268"/>
<path stroke-width="1" stroke="black" d="M 221 20 20 133"/>
<path stroke-width="1" stroke="black" d="M 221 20 273 105"/>
<path stroke-width="1" stroke="black" d="M 221 20 420 209"/>
<path stroke-width="1" stroke="black" d="M 221 20 120 291"/>
<path stroke-width="1" stroke="black" d="M 221 20 326 39"/>
<path stroke-width="1" stroke="black" d="M 221 20 136 169"/>
<path stroke-width="1" stroke="black" d="M 221 20 413 119"/>
<path stroke-width="1" stroke="black" d="M 221 20 219 231"/>
<path stroke-width="1" stroke="black" d="M 221 20 230 320"/>
<path stroke-width="1" stroke="black" d="M 221 20 355 268"/>
<path stroke-width="1" stroke="black" d="M 221 20 71 68"/>
<path stroke-width="1" stroke="black" d="M 221 20 321 200"/>
<path stroke-width="1" stroke="black" d="M 221 20 162 104"/>
<path stroke-width="1" stroke="black" d="M 48 243 221 20"/>
<path stroke-width="1" stroke="black" d="M 48 243 20 133"/>
<path stroke-width="1" stroke="black" d="M 48 243 273 105"/>
<path stroke-width="1" stroke="black" d="M 48 243 420 209"/>
<path stroke-width="1" stroke="black" d="M 48 243 120 291"/>
<path stroke-width="1" stroke="black" d="M 48 243 326 39"/>
<path stroke-width="1" stroke="black" d="M 48 243 136 169"/>
<path stroke-width="1" stroke="black" d="M 48 243 413 119"/>
<path stroke-width="1" stroke="black" d="M 48 243 219 231"/>
<path stroke-width="1" stroke="black" d="M 48 243 230 320"/>
<path stroke-width="1" stroke="black" d="M 273 105 219 231"/>
<path stroke-width="1" stroke="black" d="M 162 104 71 68"/>
<path stroke-width="1" stroke="black" d="M 273 105 230 320"/>
<path stroke-width="1" stroke="black" d="M 273 105 71 68"/>
<path stroke-width="1" stroke="black" d="M 120 291 71 68"/>
<path stroke-width="1" stroke="black" d="M 120 291 321 200"/>
<path stroke-width="1" stroke="black" d="M 120 291 162 104"/>
<path stroke-width="1" stroke="black" d="M 326 39 221 20"/>
<path stroke-width="1" stroke="black" d="M 326 39 48 243"/>
<path stroke-width="1" stroke="black" d="M 326 39 20 133"/>
<path stroke-width="1" stroke="black" d="M 326 39 273 105"/>
<path stroke-width="1" stroke="black" d="M 326 39 420 209"/>
<path stroke-width="1" stroke="black" d="M 326 39 120 291"/>
<path stroke-width="1" stroke="black" d="M 326 39 136 169"/>
<path stroke-width="1" stroke="black" d="M 120 291 355 268"/>
<path stroke-width="1" stroke="black" d="M 326 39 413 119"/>
<path stroke-width="1" stroke="black" d="M 326 39 230 320"/>
<path stroke-width="1" stroke="black" d="M 326 39 355 268"/>
<path stroke-width="1" stroke="black" d="M 326 39 71 68"/>
<path stroke-width="1" stroke="black" d="M 326 39 321 200"/>
<path stroke-width="1" stroke="black" d="M 326 39 162 104"/>
<path stroke-width="1" stroke="black" d="M 136 169 221 20"/>
<path stroke-width="1" stroke="black" d="M 136 169 48 243"/>
<path stroke-width="1" stroke="black" d="M 136 169 20 133"/>
<path stroke-width="1" stroke="black" d="M 136 169 273 105"/>
<path stroke-width="1" stroke="black" d="M 136 169 420 209"/>
<path stroke-width="1" stroke="black" d="M 326 39 219 231"/>
<path stroke-width="1" stroke="black" d="M 120 291 230 320"/>
<path stroke-width="1" stroke="black" d="M 120 291 219 231"/>
<path stroke-width="1" stroke="black" d="M 120 291 413 119"/>
<path stroke-width="1" stroke="black" d="M 273 105 321 200"/>
<path stroke-width="1" stroke="black" d="M 273 105 162 104"/>
<path stroke-width="1" stroke="black" d="M 420 209 221 20"/>
<path stroke-width="1" stroke="black" d="M 420 209 48 243"/>
<path stroke-width="1" stroke="black" d="M 420 209 20 133"/>
<path stroke-width="1" stroke="black" d="M 420 209 273 105"/>
<path stroke-width="1" stroke="black" d="M 420 209 120 291"/>
<path stroke-width="1" stroke="black" d="M 420 209 326 39"/>
<path stroke-width="1" stroke="black" d="M 420 209 136 169"/>
<path stroke-width="1" stroke="black" d="M 420 209 413 119"/>
<path stroke-width="1" stroke="black" d="M 420 209 219 231"/>
<path stroke-width="1" stroke="black" d="M 420 209 230 320"/>
<path stroke-width="1" stroke="black" d="M 420 209 355 268"/>
<path stroke-width="1" stroke="black" d="M 420 209 71 68"/>
<path stroke-width="1" stroke="black" d="M 420 209 321 200"/>
<path stroke-width="1" stroke="black" d="M 420 209 162 104"/>
<path stroke-width="1" stroke="black" d="M 120 291 221 20"/>
<path stroke-width="1" stroke="black" d="M 120 291 48 243"/>
<path stroke-width="1" stroke="black" d="M 120 291 20 133"/>
<path stroke-width="1" stroke="black" d="M 120 291 273 105"/>
<path stroke-width="1" stroke="black" d="M 120 291 420 209"/>
<path stroke-width="1" stroke="black" d="M 120 291 326 39"/>
<path stroke-width="1" stroke="black" d="M 120 291 136 169"/>
<path stroke-width="1" stroke="black" d="M 273 105 355 268"/>
<path stroke-width="1" stroke="black" d="M 162 104 321 200"/>
<circle cx="221" cy="20" r="20.0" style="fill:gray;stroke:black;stroke-width:1.0"/>
<circle cx="48" cy="243" r="20.0" style="fill:gray;stroke:black;stroke-width:1.0"/>
<circle cx="20" cy="133" r="20.0" style="fill:gray;stroke:black;stroke-width:1.0"/>
<circle cx="273" cy="105" r="20.0" style="fill:gray;stroke:black;stroke-width:1.0"/>
<circle cx="420" cy="209" r="20.0" style="fill:gray;stroke:black;stroke-width:1.0"/>
<circle cx="120" cy="291" r="20.0" style="fill:gray;stroke:black;stroke-width:1.0"/>
<circle cx="326" cy="39" r="20.0" style="fill:gray;stroke:black;stroke-width:1.0"/>
<circle cx="136" cy="169" r="20.0" style="fill:gray;stroke:black;stroke-width:1.0"/>
<circle cx="413" cy="119" r="20.0" style="fill:gray;stroke:black;stroke-width:1.0"/>
<circle cx="219" cy="231" r="20.0" style="fill:gray;stroke:black;stroke-width:1.0"/>
<circle cx="230" cy="320" r="20.0" style="fill:gray;stroke:black;stroke-width:1.0"/>
<circle cx="355" cy="268" r="20.0" style="fill:gray;stroke:black;stroke-width:1.0"/>
<circle cx="71" cy="68" r="20.0" style="fill:gray;stroke:black;stroke-width:1.0"/>
<circle cx="321" cy="200" r="20.0" style="fill:gray;stroke:black;stroke-width:1.0"/>
<circle cx="162" cy="104" r="20.0" style="fill:gray;stroke:black;stroke-width:1.0"/>
</svg>
