<svg width="440" height="340" xmlns="http://www.w3.org/2000/svg">
<path stroke-width="1" stroke="black" d="M 415 107 319 122"/>
<path stroke-width="1" stroke="black" d="M 315 43 162 94"/>
<path stroke-width="1" stroke="black" d="M 315 43 20 153"/>
<path stroke-width="1" stroke="black" d="M 315 43 420 187"/>
<path stroke-width="1" stroke="black" d="M 315 43 162 320"/>
<path stroke-width="1" stroke="black" d="M 315 43 228 244"/>
<path stroke-width="1" stroke="black" d="M 315 43 238 181"/>
<path stroke-width="1" stroke="black" d="M 315 43 372 260"/>
<path stroke-width="1" stroke="black" d="M 420 187 415 107"/>
<path stroke-width="1" stroke="black" d="M 420 187 319 122"/>
<path stroke-width="1" stroke="black" d="M 420 187 69 272"/>
<path stroke-width="1" stroke="black" d="M 315 43 118 180"/>
<path stroke-width="1" stroke="black" d="M 420 187 59 76"/>
<path stroke-width="1" stroke="black" d="M 420 187 299 300"/>
<path stroke-width="1" stroke="black" d="M 420 187 118 180"/>
<path stroke-width="1" stroke="black" d="M 420 187 162 94"/>
<path stroke-width="1" stroke="black" d="M 420 187 20 153"/>
<path stroke-width="1" stroke="black" d="M 420 187 315 43"/>
<path stroke-width="1" stroke="black" d="M 420 187 162 320"/>
<path stroke-width="1" stroke="black" d="M 420 187 228 244"/>
<path stroke-width="1" stroke="black" d="M 420 187 238 181"/>
<path stroke-width="1" stroke="black" d="M 420 187 372 260"/>
<path stroke-width="1" stroke="black" d="M 162 320 415 107"/>
<path stroke-width="1" stroke="black" d="M 420 187 182 20"/>
<path stroke-width="1" stroke="black" d="M 162 320 319 122"/>
<path stroke-width="1" stroke="black" d="M 315 43 299 300"/>
<path stroke-width="1" stroke="black" d="M 315 43 59 76"/>
<path stroke-width="1" stroke="black" d="M 162 94 420 187"/>
<path stroke-width="1" stroke="black" d="M 162 94 162 320"/>
<path stroke-width="1" stroke="black" d="M 162 94 228 244"/>
<path stroke-width="1" stroke="black" d="M 162 94 238 181"/>
<path stroke-width="1" stroke="black" d="M 162 94 372 260"/>
<path stroke-width="1" stroke="black" d="M 20 153 415 107"/>
<path stroke-width="1" stroke="black" d="M 20 153 319 122"/>
<path stroke-width="1" stroke="black" d="M 20 153 69 272"/>
<path stroke-width="1" stroke="black" d="M 20 153 59 76"/>
<path stroke-width="1" stroke="black" d="M 20 153 182 20"/>
<path stroke-width="1" stroke="black" d="M 315 43 182 20"/>
<path stroke-width="1" stroke="black" d="M 20 153 299 300"/>
<path stroke-width="1" stroke="black" d="M 20 153 162 94"/>
<path stroke-width="1" stroke="black" d="M 20 153 315 43"/>
<path stroke-width="1" stroke="black" d="M 20 153 420 187"/>
<path stroke-width="1" stroke="black" d="M 20 153 162 320"/>
<path stroke-width="1" stroke="black" d="M 20 153 228 244"/>
<path stroke-width="1" stroke="black" d="M 20 153 238 181"/>
<path stroke-width="1" stroke="black" d="M 20 153 372 260"/>
<path stroke-width="1" stroke="black" d="M 315 43 415 107"/>
<path stroke-width="1" stroke="black" d="M 315 43 319 122"/>
<path stroke-width="1" stroke="black" d="M 315 43 69 272"/>
<path stroke-width="1" stroke="black" d="M 20 153 118 180"/>
<path stroke-width="1" stroke="black" d="M 162 320 69 272"/>
<path stroke-width="1" stroke="black" d="M 162 320 59 76"/>
<path stroke-width="1" stroke="black" d="M 162 320 182 20"/>
<path stroke-width="1" stroke="black" d="M 238 181 182 20"/>
<path stroke-width="1" stroke="black" d="M 238 181 299 300"/>
<path stroke-width="1" stroke="black" d="M 238 181 118 180"/>
<path stroke-width="1" stroke="black" d="M 238 181 162 94"/>
<path stroke-width="1" stroke="black" d="M 238 181 20 153"/>
<path stroke-width="1" stroke="black" d="M 238 181 315 43"/>
<path stroke-width="1" stroke="black" d="M 238 181 420 187"/>
<path stroke-width="1" stroke="black" d="M 238 181 162 320"/>
<path stroke-width="1" stroke="black" d="M 238 181 228 244"/>
<path stroke-width="1" stroke="black" d="M 238 181 372 260"/>
<path stroke-width="1" stroke="black" d="M 238 181 59 76"/>
<path stroke-width="1" stroke="black" d="M 372 260 415 107"/>
<path stroke-width="1" stroke="black" d="M 372 260 69 272"/>
<path stroke-width="1" stroke="black" d="M 372 260 59 76"/>
<path stroke-width="1" stroke="black" d="M 372 260 182 20"/>
<path stroke-width="1" stroke="black" d="M 372 260 299 300"/>
<path stroke-width="1" stroke="black" d="M 372 260 118 180"/>
<path stroke-width="1" stroke="black" d="M 372 260 162 94"/>
<path stroke-width="1" stroke="black" d="M 372 260 20 153"/>
<path stroke-width="1" stroke="black" d="M 372 260 315 43"/>
<path stroke-width="1" stroke="black" d="M 372 260 420 187"/>
<path stroke-width="1" stroke="black" d="M 372 260 162 320"/>
<path stroke-width="1" stroke="black" d="M 372 260 319 122"/>
<path stroke-width="1" stroke="black" d="M 238 181 69 272"/>
<path stroke-width="1" stroke="black" d="M 238 181 319 122"/>
<path stroke-width="1" stroke="black" d="M 238 181 415 107"/>
<path stroke-width="1" stroke="black" d="M 162 320 299 300"/>
<path stroke-width="1" stroke="black" d="M 162 320 118 180"/>
<path stroke-width="1" stroke="black" d="M 162 320 162 94"/>
<path stroke-width="1" stroke="black" d="M 162 320 20 153"/>
<path stroke-width="1" stroke="black" d="M 162 320 315 43"/>
<path stroke-width="1" stroke="black" d="M 162 320 420 187"/>
<path stroke-width="1" stroke="black" d="M 162 320 228 244"/>
<path stroke-width="1" stroke="black" d="M 162 320 238 181"/>
<path stroke-width="1" stroke="black" d="M 162 320 372 260"/>
<path stroke-width="1" stroke="black" d="M 228 244 415 107"/>
<path stroke-width="1" stroke="black" d="M 228 244 319 122"/>
<path stroke-width="1" stroke="black" d="M 228 244 69 272"/>
<path stroke-width="1" stroke="black" d="M 228 244 59 76"/>
<path stroke-width="1" stroke="black" d="M 228 244 182 20"/>
<path stroke-width="1" stroke="black" d="M 228 244 299 300"/>
<path stroke-width="1" stroke="black" d="M 228 244 118 180"/>
<path stroke-width="1" stroke="black" d="M 228 244 162 94"/>
<path stroke-width="1" stroke="black" d="M 228 244 20 153"/>
<path stroke-width="1" stroke="black" d="M 228 244 315 43"/>
<path stroke-width="1" stroke="black" d="M 228 244 420 187"/>
<path stroke-width="1" stroke="black" d="M 228 244 162 320"/>
<path stroke-width="1" stroke="black" d="M 228 244 238 181"/>
<path stroke-width="1" stroke="black" d="M 228 244 372 260"/>
<path stroke-width="1" stroke="black" d="M 162 94 315 43"/>
<path stroke-width="1" stroke="black" d="M 162 94 20 153"/>
<path stroke-width="1" stroke="black" d="M 162 94 118 180"/>
<path stroke-width="1" stroke="black" d="M 162 94 299 300"/>
<path stroke-width="1" stroke="black" d="M 69 272 415 107"/>
<path stroke-width="1" stroke="black" d="M 69 272 319 122"/>
<path stroke-width="1" stroke="black" d="M 69 272 59 76"/>
<path stroke-width="1" stroke="black" d="M 69 272 182 20"/>
<path stroke-width="1" stroke="black" d="M 69 272 299 300"/>
<path stroke-width="1" stroke="black" d="M 69 272 118 180"/>
<path stroke-width="1" stroke="black" d="M 69 272 162 94"/>
<path stroke-width="1" stroke="black" d="M 69 272 20 153"/>
<path stroke-width="1" stroke="black" d="M 69 272 315 43"/>
<path stroke-width="1" stroke="black" d="M 69 272 420 187"/>
<path stroke-width="1" stroke="black" d="M 319 122 372 260"/>
<path stroke-width="1" stroke="black" d="M 69 272 162 320"/>
<path stroke-width="1" stroke="black" d="M 69 272 238 181"/>
<path stroke-width="1" stroke="black" d="M 69 272 372 260"/>
<path stroke-width="1" stroke="black" d="M 59 76 415 107"/>
<path stroke-width="1" stroke="black" d="M 59 76 319 122"/>
<path stroke-width="1" stroke="black" d="M 59 76 69 272"/>
<path stroke-width="1" stroke="black" d="M 59 76 182 20"/>
<path stroke-width="1" stroke="black" d="M 59 76 299 300"/>
<path stroke-width="1" stroke="black" d="M 59 76 118 180"/>
<path stroke-width="1" stroke="black" d="M 59 76 162 94"/>
<path stroke-width="1" stroke="black" d="M 59 76 20 153"/>
<path stroke-width="1" stroke="black" d="M 69 272 228 244"/>
<path stroke-width="1" stroke="black" d="M 319 122 238 181"/>
<path stroke-width="1" stroke="black" d="M 319 122 228 244"/>
<path stroke-width="1" stroke="black" d="M 319 122 162 320"/>
<path stroke-width="1" stroke="black" d="M 415 107 69 272"/>
<path stroke-width="1" stroke="black" d="M 415 107 59 76"/>
<path stroke-width="1" stroke="black" d="M 415 107 182 20"/>
<path stroke-width="1" stroke="black" d="M 415 107 299 300"/>
<path stroke-width="1" stroke="black" d="M 415 107 118 180"/>
<path stroke-width="1" stroke="black" d="M 415 107 162 94"/>
<path stroke-width="1" stroke="black" d="M 415 107 20 153"/>
<path stroke-width="1" stroke="black" d="M 415 107 315 43"/>
<path stroke-width="1" stroke="black" d="M 415 107 420 187"/>
<path stroke-width="1" stroke="black" d="M 415 107 162 320"/>
<path stroke-width="1" stroke="black" d="M 415 107 228 244"/>
<path stroke-width="1" stroke="black" d="M 415 107 238 181"/>
<path stroke-width="1" stroke="black" d="M 415 107 372 260"/>
<path stroke-width="1" stroke="black" d="M 319 122 415 107"/>
<path stroke-width="1" stroke="black" d="M 319 122 69 272"/>
<path stroke-width="1" stroke="black" d="M 319 122 59 76"/>
<path stroke-width="1" stroke="black" d="M 319 122 182 20"/>
<path stroke-width="1" stroke="black" d="M 319 122 299 300"/>
<path stroke-width="1" stroke="black" d="M 319 122 118 180"/>
<path stroke-width="1" stroke="black" d="M 319 122 162 94"/>
<path stroke-width="1" stroke="black" d="M 319 122 20 153"/>
<path stroke-width="1" stroke="black" d="M 319 122 315 43"/>
<path stroke-width="1" stroke="black" d="M 319 122 420 187"/>
<path stroke-width="1" stroke="black" d="M 59 76 315 43"/>
<path stroke-width="1" stroke="black" d="M 372 260 228 244"/>
<path stroke-width="1" stroke="black" d="M 59 76 420 187"/>
<path stroke-width="1" stroke="black" d="M 59 76 228 244"/>
<path stroke-width="1" stroke="black" d="M 299 300 228 244"/>
<path stroke-width="1" stroke="black" d="M 299 300 238 181"/>
<path stroke-width="1" stroke="black" d="M 299 300 372 260"/>
<path stroke-width="1" stroke="black" d="M 118 180 415 107"/>
<path stroke-width="1" stroke="black" d="M 118 180 319 122"/>
<path stroke-width="1" stroke="black" d="M 118 180 69 272"/>
<path stroke-width="1" stroke="black" d="M 118 180 59 76"/>
<path stroke-width="1" stroke="black" d="M 118 180 182 20"/>
<path stroke-width="1" stroke="black" d="M 118 180 299 300"/>
<path stroke-width="1" stroke="black" d="M 118 180 162 94"/>
<path stroke-width="1" stroke="black" d="M 299 300 162 320"/>
<path stroke-width="1" stroke="black" d="M 118 180 20 153"/>
<path stroke-width="1" stroke="black" d="M 118 180 420 187"/>
<path stroke-width="1" stroke="black" d="M 118 180 162 320"/>
<path stroke-width="1" stroke="black" d="M 118 180 228 244"/>
<path stroke-width="1" stroke="black" d="M 118 180 238 181"/>
<path stroke-width="1" stroke="black" d="M 118 180 372 260"/>
<path stroke-width="1" stroke="black" d="M 162 94 415 107"/>
<path stroke-width="1" stroke="black" d="M 162 94 319 122"/>
<path stroke-width="1" stroke="black" d="M 162 94 69 272"/>
<path stroke-width="1" stroke="black" d="M 162 94 59 76"/>
<path stroke-width="1" stroke="black" d="M 162 94 182 20"/>
<path stroke-width="1" stroke="black" d="M 118 180 315 43"/>
<path stroke-width="1" stroke="black" d="M 299 300 420 187"/>
<path stroke-width="1" stroke="black" d="M 299 300 315 43"/>
<path stroke-width="1" stroke="black" d="M 299 300 20 153"/>
<path stroke-width="1" stroke="black" d="M 59 76 238 181"/>
<path stroke-width="1" stroke="black" d="M 59 76 372 260"/>
<path stroke-width="1" stroke="black" d="M 182 20 415 107"/>
<path stroke-width="1" stroke="black" d="M 182 20 319 122"/>
<path stroke-width="1" stroke="black" d="M 182 20 69 272"/>
<path stroke-width="1" stroke="black" d="M 182 20 59 76"/>
<path stroke-width="1" stroke="black" d="M 182 20 299 300"/>
<path stroke-width="1" stroke="black" d="M 182 20 118 180"/>
<path stroke-width="1" stroke="black" d="M 182 20 162 94"/>
<path stroke-width="1" stroke="black" d="M 182 20 20 153"/>
<path stroke-width="1" stroke="black" d="M 182 20 315 43"/>
<path stroke-width="1" stroke="black" d="M 182 20 420 187"/>
<path stroke-width="1" stroke="black" d="M 182 20 162 320"/>
<path stroke-width="1" stroke="black" d="M 182 20 228 244"/>
<path stroke-width="1" stroke="black" d="M 182 20 238 181"/>
<path stroke-width="1" stroke="black" d="M 182 20 372 260"/>
<path stroke-width="1" stroke="black" d="M 299 300 415 107"/>
<path stroke-width="1" stroke="black" d="M 299 300 319 122"/>
<path stroke-width="1" stroke="black" d="M 299 300 69 272"/>
<path stroke-width="1" stroke="black" d="M 299 300 59 76"/>
<path stroke-width="1" stroke="black" d="M 299 300 182 20"/>
<path stroke-width="1" stroke="black" d="M 299 300 118 180"/>
<path stroke-width="1" stroke="black" d="M 299 300 162 94"/>
<path stroke-width="1" stroke="black" d="M 59 76 162 320"/>
<path stroke-width="1" stroke="black" d="M 372 260 238 181"/>
<circle cx="415" cy="107" r="7.0" style="fill:gray;stroke:black;stroke-width:1.0"/>
<circle cx="319" cy="122" r="7.0" style="fill:gray;stroke:black;stroke-width:1.0"/>
<circle cx="69" cy="272" r="7.0" style="fill:gray;stroke:black;stroke-width:1.0"/>
<circle cx="59" cy="76" r="7.0" style="fill:gray;stroke:black;stroke-width:1.0"/>
<circle cx="182" cy="20" r="7.0" style="fill:gray;stroke:black;stroke-width:1.0"/>
<circle cx="299" cy="300" r="7.0" style="fill:gray;stroke:black;stroke-width:1.0"/>
<circle cx="118" cy="180" r="7.0" style="fill:gray;stroke:black;stroke-width:1.0"/>
<circle cx="162" cy="94" r="7.0" style="fill:gray;stroke:black;stroke-width:1.0"/>
<circle cx="20" cy="153" r="7.0" style="fill:gray;stroke:black;stroke-width:1.0"/>
<circle cx="315" cy="43" r="7.0" style="fill:gray;stroke:black;stroke-width:1.0"/>
<circle cx="420" cy="187" r="7.0" style="fill:gray;stroke:black;stroke-width:1.0"/>
<circle cx="162" cy="320" r="7.0" style="fill:gray;stroke:black;stroke-width:1.0"/>
<circle cx="228" cy="244" r="7.0" style="fill:gray;stroke:black;stroke-width:1.0"/>
<circle cx="238" cy="181" r="7.0" style="fill:gray;stroke:black;stroke-width:1.0"/>
<circle cx="372" cy="260" r="7.0" style="fill:gray;stroke:black;stroke-width:1.0"/>
</svg>
