<svg width="440" height="340" xmlns="http://www.w3.org/2000/svg">
<path stroke-width="1" stroke="black" d="M 20 76 35 73"/>
<path stroke-width="1" stroke="black" d="M 66 100 110 106"/>
<path stroke-width="1" stroke="black" d="M 66 100 60 111"/>
<path stroke-width="1" stroke="black" d="M 100 20 96 32"/>
<path stroke-width="1" stroke="black" d="M 96 32 53 42"/>
<path stroke-width="1" stroke="black" d="M 96 32 137 52"/>
<path stroke-width="1" stroke="black" d="M 96 32 100 20"/>
<path stroke-width="1" stroke="black" d="M 366 320 375 309"/>
<path stroke-width="1" stroke="black" d="M 66 100 35 73"/>
<path stroke-width="1" stroke="black" d="M 375 309 366 320"/>
<path stroke-width="1" stroke="black" d="M 375 309 402 298"/>
<path stroke-width="1" stroke="black" d="M 369 275 377 286"/>
<path stroke-width="1" stroke="black" d="M 377 286 375 309"/>
<path stroke-width="1" stroke="black" d="M 377 286 369 275"/>
<path stroke-width="1" stroke="black" d="M 377 286 402 298"/>
<path stroke-width="1" stroke="black" d="M 420 297 402 298"/>
<path stroke-width="1" stroke="black" d="M 402 298 375 309"/>
<path stroke-width="1" stroke="black" d="M 375 309 377 286"/>
<path stroke-width="1" stroke="black" d="M 60 111 66 100"/>
<path stroke-width="1" stroke="black" d="M 110 106 66 100"/>
<path stroke-width="1" stroke="black" d="M 110 106 118 117"/>
<path stroke-width="1" stroke="black" d="M 35 73 20 76"/>
<path stroke-width="1" stroke="black" d="M 35 73 53 42"/>
<path stroke-width="1" stroke="black" d="M 35 73 66 100"/>
<path stroke-width="1" stroke="black" d="M 37 33 53 42"/>
<path stroke-width="1" stroke="black" d="M 53 42 35 73"/>
<path stroke-width="1" stroke="black" d="M 53 42 37 33"/>
<path stroke-width="1" stroke="black" d="M 53 42 96 32"/>
<path stroke-width="1" stroke="black" d="M 153 46 137 52"/>
<path stroke-width="1" stroke="black" d="M 137 52 153 46"/>
<path stroke-width="1" stroke="black" d="M 137 52 141 82"/>
<path stroke-width="1" stroke="black" d="M 137 52 96 32"/>
<path stroke-width="1" stroke="black" d="M 160 87 141 82"/>
<path stroke-width="1" stroke="black" d="M 141 82 137 52"/>
<path stroke-width="1" stroke="black" d="M 141 82 160 87"/>
<path stroke-width="1" stroke="black" d="M 141 82 110 106"/>
<path stroke-width="1" stroke="black" d="M 118 117 110 106"/>
<path stroke-width="1" stroke="black" d="M 110 106 141 82"/>
<path stroke-width="1" stroke="black" d="M 402 298 377 286"/>
<path stroke-width="1" stroke="black" d="M 402 298 420 297"/>
<circle cx="20" cy="76" r="7.0" style="fill:blue;stroke:black;stroke-width:1.0"/>
<circle cx="35" cy="73" r="7.0" style="fill:blue;stroke:black;stroke-width:1.0"/>
<circle cx="37" cy="33" r="7.0" style="fill:red;stroke:black;stroke-width:1.0"/>
<circle cx="53" cy="42" r="7.0" style="fill:red;stroke:black;stroke-width:1.0"/>
<circle cx="153" cy="46" r="7.0" style="fill:green;stroke:black;stroke-width:1.0"/>
<circle cx="137" cy="52" r="7.0" style="fill:green;stroke:black;stroke-width:1.0"/>
<circle cx="160" cy="87" r="7.0" style="fill:orange;stroke:black;stroke-width:1.0"/>
<circle cx="141" cy="82" r="7.0" style="fill:orange;stroke:black;stroke-width:1.0"/>
<circle cx="118" cy="117" r="7.0" style="fill:purple;stroke:black;stroke-width:1.0"/>
<circle cx="110" cy="106" r="7.0" style="fill:purple;stroke:black;stroke-width:1.0"/>
<circle cx="60" cy="111" r="7.0" style="fill:yellow;stroke:black;stroke-width:1.0"/>
<circle cx="66" cy="100" r="7.0" style="fill:yellow;stroke:black;stroke-width:1.0"/>
<circle cx="100" cy="20" r="7.0" style="fill:fuchsia;stroke:black;stroke-width:1.0"/>
<circle cx="96" cy="32" r="7.0" style="fill:fuchsia;stroke:black;stroke-width:1.0"/>
<circle cx="366" cy="320" r="7.0" style="fill:olive;stroke:black;stroke-width:1.0"/>
<circle cx="375" cy="309" r="7.0" style="fill:olive;stroke:black;stroke-width:1.0"/>
<circle cx="369" cy="275" r="7.0" style="fill:aqua;stroke:black;stroke-width:1.0"/>
<circle cx="377" cy="286" r="7.0" style="fill:aqua;stroke:black;stroke-width:1.0"/>
<circle cx="420" cy="297" r="7.0" style="fill:brown;stroke:black;stroke-width:1.0"/>
<circle cx="402" cy="298" r="7.0" style="fill:brown;stroke:black;stroke-width:1.0"/>
</svg>
