<svg width="440" height="340" xmlns="http://www.w3.org/2000/svg">
<path stroke-width="20.0" stroke="black" d="M 28 68 49 61"/>
<path stroke-width="0.5" stroke="black" d="M 102 70 163 62"/>
<path stroke-width="20.0" stroke="black" d="M 102 70 97 77"/>
<path stroke-width="20.0" stroke="black" d="M 80 20 90 27"/>
<path stroke-width="0.5" stroke="black" d="M 90 27 43 42"/>
<path stroke-width="0.5" stroke="black" d="M 90 27 153 27"/>
<path stroke-width="20.0" stroke="black" d="M 90 27 80 20"/>
<path stroke-width="20.0" stroke="black" d="M 420 294 401 299"/>
<path stroke-width="0.5" stroke="black" d="M 102 70 49 61"/>
<path stroke-width="20.0" stroke="black" d="M 401 299 420 294"/>
<path stroke-width="0.5" stroke="black" d="M 401 299 387 312"/>
<path stroke-width="20.0" stroke="black" d="M 338 298 361 301"/>
<path stroke-width="0.5" stroke="black" d="M 361 301 401 299"/>
<path stroke-width="20.0" stroke="black" d="M 361 301 338 298"/>
<path stroke-width="0.5" stroke="black" d="M 361 301 387 312"/>
<path stroke-width="20.0" stroke="black" d="M 391 320 387 312"/>
<path stroke-width="0.5" stroke="black" d="M 387 312 401 299"/>
<path stroke-width="0.5" stroke="black" d="M 401 299 361 301"/>
<path stroke-width="20.0" stroke="black" d="M 97 77 102 70"/>
<path stroke-width="0.5" stroke="black" d="M 163 62 102 70"/>
<path stroke-width="20.0" stroke="black" d="M 163 62 179 69"/>
<path stroke-width="20.0" stroke="black" d="M 49 61 28 68"/>
<path stroke-width="0.5" stroke="black" d="M 49 61 43 42"/>
<path stroke-width="0.5" stroke="black" d="M 49 61 102 70"/>
<path stroke-width="20.0" stroke="black" d="M 20 40 43 42"/>
<path stroke-width="0.5" stroke="black" d="M 43 42 49 61"/>
<path stroke-width="20.0" stroke="black" d="M 43 42 20 40"/>
<path stroke-width="0.5" stroke="black" d="M 43 42 90 27"/>
<path stroke-width="20.0" stroke="black" d="M 168 20 153 27"/>
<path stroke-width="20.0" stroke="black" d="M 153 27 168 20"/>
<path stroke-width="0.5" stroke="black" d="M 153 27 187 44"/>
<path stroke-width="0.5" stroke="black" d="M 153 27 90 27"/>
<path stroke-width="20.0" stroke="black" d="M 214 43 187 44"/>
<path stroke-width="0.5" stroke="black" d="M 187 44 153 27"/>
<path stroke-width="20.0" stroke="black" d="M 187 44 214 43"/>
<path stroke-width="0.5" stroke="black" d="M 187 44 163 62"/>
<path stroke-width="20.0" stroke="black" d="M 179 69 163 62"/>
<path stroke-width="0.5" stroke="black" d="M 163 62 187 44"/>
<path stroke-width="0.5" stroke="black" d="M 387 312 361 301"/>
<path stroke-width="20.0" stroke="black" d="M 387 312 391 320"/>
<circle cx="28" cy="68" r="7.0" style="fill:blue;stroke:black;stroke-width:1.0"/>
<circle cx="49" cy="61" r="7.0" style="fill:blue;stroke:black;stroke-width:1.0"/>
<circle cx="20" cy="40" r="7.0" style="fill:red;stroke:black;stroke-width:1.0"/>
<circle cx="43" cy="42" r="7.0" style="fill:red;stroke:black;stroke-width:1.0"/>
<circle cx="168" cy="20" r="7.0" style="fill:green;stroke:black;stroke-width:1.0"/>
<circle cx="153" cy="27" r="7.0" style="fill:green;stroke:black;stroke-width:1.0"/>
<circle cx="214" cy="43" r="7.0" style="fill:orange;stroke:black;stroke-width:1.0"/>
<circle cx="187" cy="44" r="7.0" style="fill:orange;stroke:black;stroke-width:1.0"/>
<circle cx="179" cy="69" r="7.0" style="fill:purple;stroke:black;stroke-width:1.0"/>
<circle cx="163" cy="62" r="7.0" style="fill:purple;stroke:black;stroke-width:1.0"/>
<circle cx="97" cy="77" r="7.0" style="fill:yellow;stroke:black;stroke-width:1.0"/>
<circle cx="102" cy="70" r="7.0" style="fill:yellow;stroke:black;stroke-width:1.0"/>
<circle cx="80" cy="20" r="7.0" style="fill:fuchsia;stroke:black;stroke-width:1.0"/>
<circle cx="90" cy="27" r="7.0" style="fill:fuchsia;stroke:black;stroke-width:1.0"/>
<circle cx="420" cy="294" r="7.0" style="fill:olive;stroke:black;stroke-width:1.0"/>
<circle cx="401" cy="299" r="7.0" style="fill:olive;stroke:black;stroke-width:1.0"/>
<circle cx="338" cy="298" r="7.0" style="fill:aqua;stroke:black;stroke-width:1.0"/>
<circle cx="361" cy="301" r="7.0" style="fill:aqua;stroke:black;stroke-width:1.0"/>
<circle cx="391" cy="320" r="7.0" style="fill:brown;stroke:black;stroke-width:1.0"/>
<circle cx="387" cy="312" r="7.0" style="fill:brown;stroke:black;stroke-width:1.0"/>
</svg>
