<svg width="440" height="340" xmlns="http://www.w3.org/2000/svg">
<path stroke-width="1" stroke="black" d="M 51 263 338 304"/>
<path stroke-width="1" stroke="black" d="M 312 205 338 304"/>
<path stroke-width="1" stroke="black" d="M 312 205 51 263"/>
<path stroke-width="1" stroke="black" d="M 325 36 98 38"/>
<path stroke-width="1" stroke="black" d="M 325 36 20 148"/>
<path stroke-width="1" stroke="black" d="M 325 36 312 205"/>
<path stroke-width="1" stroke="black" d="M 325 36 202 320"/>
<path stroke-width="1" stroke="black" d="M 325 36 420 130"/>
<path stroke-width="1" stroke="black" d="M 325 36 196 182"/>
<path stroke-width="1" stroke="black" d="M 312 205 208 20"/>
<path stroke-width="1" stroke="black" d="M 325 36 208 20"/>
<path stroke-width="1" stroke="black" d="M 325 36 51 263"/>
<path stroke-width="1" stroke="black" d="M 202 320 98 38"/>
<path stroke-width="1" stroke="black" d="M 202 320 20 148"/>
<path stroke-width="1" stroke="black" d="M 202 320 312 205"/>
<path stroke-width="1" stroke="black" d="M 202 320 325 36"/>
<path stroke-width="1" stroke="black" d="M 202 320 420 130"/>
<path stroke-width="1" stroke="black" d="M 202 320 196 182"/>
<path stroke-width="1" stroke="black" d="M 202 320 208 20"/>
<path stroke-width="1" stroke="black" d="M 325 36 338 304"/>
<path stroke-width="1" stroke="black" d="M 312 205 196 182"/>
<path stroke-width="1" stroke="black" d="M 312 205 420 130"/>
<path stroke-width="1" stroke="black" d="M 312 205 202 320"/>
<path stroke-width="1" stroke="black" d="M 98 38 325 36"/>
<path stroke-width="1" stroke="black" d="M 98 38 202 320"/>
<path stroke-width="1" stroke="black" d="M 98 38 420 130"/>
<path stroke-width="1" stroke="black" d="M 98 38 196 182"/>
<path stroke-width="1" stroke="black" d="M 98 38 208 20"/>
<path stroke-width="1" stroke="black" d="M 98 38 338 304"/>
<path stroke-width="1" stroke="black" d="M 98 38 51 263"/>
<path stroke-width="1" stroke="black" d="M 20 148 98 38"/>
<path stroke-width="1" stroke="black" d="M 20 148 312 205"/>
<path stroke-width="1" stroke="black" d="M 20 148 325 36"/>
<path stroke-width="1" stroke="black" d="M 20 148 202 320"/>
<path stroke-width="1" stroke="black" d="M 20 148 420 130"/>
<path stroke-width="1" stroke="black" d="M 20 148 196 182"/>
<path stroke-width="1" stroke="black" d="M 20 148 208 20"/>
<path stroke-width="1" stroke="black" d="M 20 148 338 304"/>
<path stroke-width="1" stroke="black" d="M 20 148 51 263"/>
<path stroke-width="1" stroke="black" d="M 312 205 98 38"/>
<path stroke-width="1" stroke="black" d="M 312 205 20 148"/>
<path stroke-width="1" stroke="black" d="M 312 205 325 36"/>
<path stroke-width="1" stroke="black" d="M 202 320 338 304"/>
<path stroke-width="1" stroke="black" d="M 202 320 51 263"/>
<path stroke-width="1" stroke="black" d="M 420 130 98 38"/>
<path stroke-width="1" stroke="black" d="M 420 130 20 148"/>
<path stroke-width="1" stroke="black" d="M 208 20 338 304"/>
<path stroke-width="1" stroke="black" d="M 208 20 51 263"/>
<path stroke-width="1" stroke="black" d="M 338 304 98 38"/>
<path stroke-width="1" stroke="black" d="M 338 304 20 148"/>
<path stroke-width="1" stroke="black" d="M 338 304 312 205"/>
<path stroke-width="1" stroke="black" d="M 338 304 325 36"/>
<path stroke-width="1" stroke="black" d="M 338 304 202 320"/>
<path stroke-width="1" stroke="black" d="M 338 304 420 130"/>
<path stroke-width="1" stroke="black" d="M 338 304 196 182"/>
<path stroke-width="1" stroke="black" d="M 338 304 208 20"/>
<path stroke-width="1" stroke="black" d="M 338 304 51 263"/>
<path stroke-width="1" stroke="black" d="M 51 263 98 38"/>
<path stroke-width="1" stroke="black" d="M 51 263 20 148"/>
<path stroke-width="1" stroke="black" d="M 51 263 312 205"/>
<path stroke-width="1" stroke="black" d="M 51 263 325 36"/>
<path stroke-width="1" stroke="black" d="M 51 263 202 320"/>
<path stroke-width="1" stroke="black" d="M 51 263 420 130"/>
<path stroke-width="1" stroke="black" d="M 51 263 196 182"/>
<path stroke-width="1" stroke="black" d="M 51 263 208 20"/>
<path stroke-width="1" stroke="black" d="M 208 20 196 182"/>
<path stroke-width="1" stroke="black" d="M 98 38 312 205"/>
<path stroke-width="1" stroke="black" d="M 208 20 420 130"/>
<path stroke-width="1" stroke="black" d="M 208 20 325 36"/>
<path stroke-width="1" stroke="black" d="M 420 130 312 205"/>
<path stroke-width="1" stroke="black" d="M 420 130 325 36"/>
<path stroke-width="1" stroke="black" d="M 420 130 202 320"/>
<path stroke-width="1" stroke="black" d="M 420 130 196 182"/>
<path stroke-width="1" stroke="black" d="M 420 130 208 20"/>
<path stroke-width="1" stroke="black" d="M 420 130 338 304"/>
<path stroke-width="1" stroke="black" d="M 420 130 51 263"/>
<path stroke-width="1" stroke="black" d="M 196 182 98 38"/>
<path stroke-width="1" stroke="black" d="M 196 182 20 148"/>
<path stroke-width="1" stroke="black" d="M 196 182 312 205"/>
<path stroke-width="1" stroke="black" d="M 196 182 325 36"/>
<path stroke-width="1" stroke="black" d="M 196 182 202 320"/>
<path stroke-width="1" stroke="black" d="M 196 182 420 130"/>
<path stroke-width="1" stroke="black" d="M 196 182 208 20"/>
<path stroke-width="1" stroke="black" d="M 196 182 338 304"/>
<path stroke-width="1" stroke="black" d="M 196 182 51 263"/>
<path stroke-width="1" stroke="black" d="M 208 20 98 38"/>
<path stroke-width="1" stroke="black" d="M 208 20 20 148"/>
<path stroke-width="1" stroke="black" d="M 208 20 312 205"/>
<path stroke-width="1" stroke="black" d="M 208 20 202 320"/>
<path stroke-width="1" stroke="black" d="M 98 38 20 148"/>
<circle cx="51" cy="263" r="7.0" style="fill:gray;stroke:black;stroke-width:1.0"/>
<circle cx="338" cy="304" r="7.0" style="fill:gray;stroke:black;stroke-width:1.0"/>
<circle cx="208" cy="20" r="7.0" style="fill:gray;stroke:black;stroke-width:1.0"/>
<circle cx="196" cy="182" r="7.0" style="fill:gray;stroke:black;stroke-width:1.0"/>
<circle cx="420" cy="130" r="7.0" style="fill:gray;stroke:black;stroke-width:1.0"/>
<circle cx="202" cy="320" r="7.0" style="fill:gray;stroke:black;stroke-width:1.0"/>
<circle cx="325" cy="36" r="7.0" style="fill:gray;stroke:black;stroke-width:1.0"/>
<circle cx="312" cy="205" r="7.0" style="fill:gray;stroke:black;stroke-width:1.0"/>
<circle cx="20" cy="148" r="7.0" style="fill:gray;stroke:black;stroke-width:1.0"/>
<circle cx="98" cy="38" r="7.0" style="fill:gray;stroke:black;stroke-width:1.0"/>
</svg>
