<svg width="440" height="340" xmlns="http://www.w3.org/2000/svg">
<path stroke-width="0.5" stroke="black" d="M 94 83 277 320"/>
<path stroke-width="20.0" stroke="black" d="M 420 148 277 320"/>
<path stroke-width="0.5" stroke="black" d="M 420 148 94 83"/>
<path stroke-width="0.5" stroke="black" d="M 189 20 332 31"/>
<path stroke-width="0.5" stroke="black" d="M 189 20 20 165"/>
<path stroke-width="0.5" stroke="black" d="M 189 20 420 148"/>
<path stroke-width="0.5" stroke="black" d="M 189 20 100 289"/>
<path stroke-width="0.5" stroke="black" d="M 189 20 399 260"/>
<path stroke-width="0.5" stroke="black" d="M 189 20 144 240"/>
<path stroke-width="0.5" stroke="black" d="M 420 148 241 112"/>
<path stroke-width="20.0" stroke="black" d="M 189 20 241 112"/>
<path stroke-width="0.5" stroke="black" d="M 189 20 94 83"/>
<path stroke-width="0.5" stroke="black" d="M 100 289 332 31"/>
<path stroke-width="0.5" stroke="black" d="M 100 289 20 165"/>
<path stroke-width="0.5" stroke="black" d="M 100 289 420 148"/>
<path stroke-width="0.5" stroke="black" d="M 100 289 189 20"/>
<path stroke-width="0.5" stroke="black" d="M 100 289 399 260"/>
<path stroke-width="20.0" stroke="black" d="M 100 289 144 240"/>
<path stroke-width="0.5" stroke="black" d="M 100 289 241 112"/>
<path stroke-width="0.5" stroke="black" d="M 189 20 277 320"/>
<path stroke-width="0.5" stroke="black" d="M 420 148 144 240"/>
<path stroke-width="0.5" stroke="black" d="M 420 148 399 260"/>
<path stroke-width="0.5" stroke="black" d="M 420 148 100 289"/>
<path stroke-width="0.5" stroke="black" d="M 332 31 189 20"/>
<path stroke-width="0.5" stroke="black" d="M 332 31 100 289"/>
<path stroke-width="0.5" stroke="black" d="M 332 31 399 260"/>
<path stroke-width="0.5" stroke="black" d="M 332 31 144 240"/>
<path stroke-width="0.5" stroke="black" d="M 332 31 241 112"/>
<path stroke-width="0.5" stroke="black" d="M 332 31 277 320"/>
<path stroke-width="0.5" stroke="black" d="M 332 31 94 83"/>
<path stroke-width="0.5" stroke="black" d="M 20 165 332 31"/>
<path stroke-width="0.5" stroke="black" d="M 20 165 420 148"/>
<path stroke-width="0.5" stroke="black" d="M 20 165 189 20"/>
<path stroke-width="0.5" stroke="black" d="M 20 165 100 289"/>
<path stroke-width="0.5" stroke="black" d="M 20 165 399 260"/>
<path stroke-width="0.5" stroke="black" d="M 20 165 144 240"/>
<path stroke-width="0.5" stroke="black" d="M 20 165 241 112"/>
<path stroke-width="0.5" stroke="black" d="M 20 165 277 320"/>
<path stroke-width="20.0" stroke="black" d="M 20 165 94 83"/>
<path stroke-width="0.5" stroke="black" d="M 420 148 332 31"/>
<path stroke-width="0.5" stroke="black" d="M 420 148 20 165"/>
<path stroke-width="0.5" stroke="black" d="M 420 148 189 20"/>
<path stroke-width="0.5" stroke="black" d="M 100 289 277 320"/>
<path stroke-width="0.5" stroke="black" d="M 100 289 94 83"/>
<path stroke-width="0.5" stroke="black" d="M 399 260 332 31"/>
<path stroke-width="0.5" stroke="black" d="M 399 260 20 165"/>
<path stroke-width="0.5" stroke="black" d="M 241 112 277 320"/>
<path stroke-width="0.5" stroke="black" d="M 241 112 94 83"/>
<path stroke-width="0.5" stroke="black" d="M 277 320 332 31"/>
<path stroke-width="0.5" stroke="black" d="M 277 320 20 165"/>
<path stroke-width="20.0" stroke="black" d="M 277 320 420 148"/>
<path stroke-width="0.5" stroke="black" d="M 277 320 189 20"/>
<path stroke-width="0.5" stroke="black" d="M 277 320 100 289"/>
<path stroke-width="0.5" stroke="black" d="M 277 320 399 260"/>
<path stroke-width="0.5" stroke="black" d="M 277 320 144 240"/>
<path stroke-width="0.5" stroke="black" d="M 277 320 241 112"/>
<path stroke-width="0.5" stroke="black" d="M 277 320 94 83"/>
<path stroke-width="0.5" stroke="black" d="M 94 83 332 31"/>
<path stroke-width="20.0" stroke="black" d="M 94 83 20 165"/>
<path stroke-width="0.5" stroke="black" d="M 94 83 420 148"/>
<path stroke-width="0.5" stroke="black" d="M 94 83 189 20"/>
<path stroke-width="0.5" stroke="black" d="M 94 83 100 289"/>
<path stroke-width="0.5" stroke="black" d="M 94 83 399 260"/>
<path stroke-width="0.5" stroke="black" d="M 94 83 144 240"/>
<path stroke-width="0.5" stroke="black" d="M 94 83 241 112"/>
<path stroke-width="0.5" stroke="black" d="M 241 112 144 240"/>
<path stroke-width="0.5" stroke="black" d="M 332 31 420 148"/>
<path stroke-width="0.5" stroke="black" d="M 241 112 399 260"/>
<path stroke-width="20.0" stroke="black" d="M 241 112 189 20"/>
<path stroke-width="0.5" stroke="black" d="M 399 260 420 148"/>
<path stroke-width="0.5" stroke="black" d="M 399 260 189 20"/>
<path stroke-width="0.5" stroke="black" d="M 399 260 100 289"/>
<path stroke-width="0.5" stroke="black" d="M 399 260 144 240"/>
<path stroke-width="0.5" stroke="black" d="M 399 260 241 112"/>
<path stroke-width="0.5" stroke="black" d="M 399 260 277 320"/>
<path stroke-width="0.5" stroke="black" d="M 399 260 94 83"/>
<path stroke-width="0.5" stroke="black" d="M 144 240 332 31"/>
<path stroke-width="0.5" stroke="black" d="M 144 240 20 165"/>
<path stroke-width="0.5" stroke="black" d="M 144 240 420 148"/>
<path stroke-width="0.5" stroke="black" d="M 144 240 189 20"/>
<path stroke-width="20.0" stroke="black" d="M 144 240 100 289"/>
<path stroke-width="0.5" stroke="black" d="M 144 240 399 260"/>
<path stroke-width="0.5" stroke="black" d="M 144 240 241 112"/>
<path stroke-width="0.5" stroke="black" d="M 144 240 277 320"/>
<path stroke-width="0.5" stroke="black" d="M 144 240 94 83"/>
<path stroke-width="0.5" stroke="black" d="M 241 112 332 31"/>
<path stroke-width="0.5" stroke="black" d="M 241 112 20 165"/>
<path stroke-width="0.5" stroke="black" d="M 241 112 420 148"/>
<path stroke-width="0.5" stroke="black" d="M 241 112 100 289"/>
<path stroke-width="0.5" stroke="black" d="M 332 31 20 165"/>
<circle cx="94" cy="83" r="20.0" style="fill:gray;stroke:black;stroke-width:1.0"/>
<circle cx="277" cy="320" r="20.0" style="fill:gray;stroke:black;stroke-width:1.0"/>
<circle cx="241" cy="112" r="20.0" style="fill:gray;stroke:black;stroke-width:1.0"/>
<circle cx="144" cy="240" r="20.0" style="fill:gray;stroke:black;stroke-width:1.0"/>
<circle cx="399" cy="260" r="20.0" style="fill:gray;stroke:black;stroke-width:1.0"/>
<circle cx="100" cy="289" r="20.0" style="fill:gray;stroke:black;stroke-width:1.0"/>
<circle cx="189" cy="20" r="20.0" style="fill:gray;stroke:black;stroke-width:1.0"/>
<circle cx="420" cy="148" r="20.0" style="fill:gray;stroke:black;stroke-width:1.0"/>
<circle cx="20" cy="165" r="20.0" style="fill:gray;stroke:black;stroke-width:1.0"/>
<circle cx="332" cy="31" r="20.0" style="fill:gray;stroke:black;stroke-width:1.0"/>
</svg>
