<svg width="440" height="340" xmlns="http://www.w3.org/2000/svg">
<path stroke-width="8.3" stroke="black" d="M 222 216 213 229"/>
<path stroke-width="20.0" stroke="black" d="M 420 258 402 247"/>
<path stroke-width="0.5" stroke="black" d="M 402 247 401 298"/>
<path stroke-width="20.0" stroke="black" d="M 402 247 420 258"/>
<path stroke-width="0.5" stroke="black" d="M 402 247 384 187"/>
<path stroke-width="20.0" stroke="black" d="M 20 197 48 196"/>
<path stroke-width="0.5" stroke="black" d="M 48 196 65 175"/>
<path stroke-width="0.5" stroke="black" d="M 48 196 134 203"/>
<path stroke-width="20.0" stroke="black" d="M 48 196 20 197"/>
<path stroke-width="20.0" stroke="black" d="M 399 188 384 187"/>
<path stroke-width="0.5" stroke="black" d="M 384 187 333 123"/>
<path stroke-width="0.5" stroke="black" d="M 384 187 402 247"/>
<path stroke-width="20.0" stroke="black" d="M 384 187 399 188"/>
<path stroke-width="20.0" stroke="black" d="M 83 88 88 80"/>
<path stroke-width="20.0" stroke="black" d="M 296 268 276 266"/>
<path stroke-width="20.0" stroke="black" d="M 276 266 296 268"/>
<path stroke-width="0.5" stroke="black" d="M 276 266 331 301"/>
<path stroke-width="20.0" stroke="black" d="M 274 57 272 70"/>
<path stroke-width="0.5" stroke="black" d="M 272 70 333 123"/>
<path stroke-width="20.0" stroke="black" d="M 272 70 274 57"/>
<path stroke-width="0.5" stroke="black" d="M 272 70 176 33"/>
<path stroke-width="20.0" stroke="black" d="M 334 314 331 301"/>
<path stroke-width="0.5" stroke="black" d="M 331 301 401 298"/>
<path stroke-width="0.5" stroke="black" d="M 331 301 276 266"/>
<path stroke-width="20.0" stroke="black" d="M 331 301 334 314"/>
<path stroke-width="20.0" stroke="black" d="M 173 20 176 33"/>
<path stroke-width="0.5" stroke="black" d="M 176 33 96 45"/>
<path stroke-width="0.5" stroke="black" d="M 276 266 213 229"/>
<path stroke-width="0.5" stroke="black" d="M 83 88 96 45"/>
<path stroke-width="0.5" stroke="black" d="M 83 88 79 134"/>
<path stroke-width="20.0" stroke="black" d="M 88 80 83 88"/>
<path stroke-width="8.3" stroke="black" d="M 213 229 222 216"/>
<path stroke-width="0.5" stroke="black" d="M 213 229 134 203"/>
<path stroke-width="0.5" stroke="black" d="M 213 229 276 266"/>
<path stroke-width="8.3" stroke="black" d="M 67 194 65 175"/>
<path stroke-width="8.3" stroke="black" d="M 65 175 67 194"/>
<path stroke-width="0.5" stroke="black" d="M 65 175 79 134"/>
<path stroke-width="0.5" stroke="black" d="M 65 175 48 196"/>
<path stroke-width="8.3" stroke="black" d="M 412 320 401 298"/>
<path stroke-width="8.3" stroke="black" d="M 401 298 412 320"/>
<path stroke-width="0.5" stroke="black" d="M 401 298 402 247"/>
<path stroke-width="0.5" stroke="black" d="M 401 298 331 301"/>
<path stroke-width="20.0" stroke="black" d="M 131 193 134 203"/>
<path stroke-width="0.5" stroke="black" d="M 134 203 213 229"/>
<path stroke-width="20.0" stroke="black" d="M 134 203 131 193"/>
<path stroke-width="0.5" stroke="black" d="M 134 203 48 196"/>
<path stroke-width="8.3" stroke="black" d="M 364 115 333 123"/>
<path stroke-width="8.3" stroke="black" d="M 333 123 364 115"/>
<path stroke-width="0.5" stroke="black" d="M 333 123 384 187"/>
<path stroke-width="0.5" stroke="black" d="M 333 123 272 70"/>
<path stroke-width="20.0" stroke="black" d="M 93 141 79 134"/>
<path stroke-width="0.5" stroke="black" d="M 79 134 65 175"/>
<path stroke-width="20.0" stroke="black" d="M 79 134 93 141"/>
<path stroke-width="0.5" stroke="black" d="M 79 134 83 88"/>
<path stroke-width="8.3" stroke="black" d="M 67 30 96 45"/>
<path stroke-width="8.3" stroke="black" d="M 96 45 67 30"/>
<path stroke-width="0.5" stroke="black" d="M 96 45 83 88"/>
<path stroke-width="0.5" stroke="black" d="M 96 45 176 33"/>
<path stroke-width="0.5" stroke="black" d="M 176 33 272 70"/>
<path stroke-width="20.0" stroke="black" d="M 176 33 173 20"/>
<circle cx="222" cy="216" r="20.0" style="fill:gray;stroke:black;stroke-width:1.0"/>
<circle cx="213" cy="229" r="20.0" style="fill:gray;stroke:black;stroke-width:1.0"/>
<circle cx="67" cy="194" r="20.0" style="fill:gray;stroke:black;stroke-width:1.0"/>
<circle cx="65" cy="175" r="20.0" style="fill:gray;stroke:black;stroke-width:1.0"/>
<circle cx="412" cy="320" r="20.0" style="fill:gray;stroke:black;stroke-width:1.0"/>
<circle cx="401" cy="298" r="20.0" style="fill:gray;stroke:black;stroke-width:1.0"/>
<circle cx="131" cy="193" r="20.0" style="fill:gray;stroke:black;stroke-width:1.0"/>
<circle cx="134" cy="203" r="20.0" style="fill:gray;stroke:black;stroke-width:1.0"/>
<circle cx="364" cy="115" r="20.0" style="fill:gray;stroke:black;stroke-width:1.0"/>
<circle cx="333" cy="123" r="20.0" style="fill:gray;stroke:black;stroke-width:1.0"/>
<circle cx="93" cy="141" r="20.0" style="fill:gray;stroke:black;stroke-width:1.0"/>
<circle cx="79" cy="134" r="20.0" style="fill:gray;stroke:black;stroke-width:1.0"/>
<circle cx="67" cy="30" r="20.0" style="fill:gray;stroke:black;stroke-width:1.0"/>
<circle cx="96" cy="45" r="20.0" style="fill:gray;stroke:black;stroke-width:1.0"/>
<circle cx="88" cy="80" r="20.0" style="fill:gray;stroke:black;stroke-width:1.0"/>
<circle cx="83" cy="88" r="20.0" style="fill:gray;stroke:black;stroke-width:1.0"/>
<circle cx="420" cy="258" r="20.0" style="fill:gray;stroke:black;stroke-width:1.0"/>
<circle cx="402" cy="247" r="20.0" style="fill:gray;stroke:black;stroke-width:1.0"/>
<circle cx="20" cy="197" r="20.0" style="fill:gray;stroke:black;stroke-width:1.0"/>
<circle cx="48" cy="196" r="20.0" style="fill:gray;stroke:black;stroke-width:1.0"/>
<circle cx="399" cy="188" r="20.0" style="fill:gray;stroke:black;stroke-width:1.0"/>
<circle cx="384" cy="187" r="20.0" style="fill:gray;stroke:black;stroke-width:1.0"/>
<circle cx="296" cy="268" r="20.0" style="fill:gray;stroke:black;stroke-width:1.0"/>
<circle cx="276" cy="266" r="20.0" style="fill:gray;stroke:black;stroke-width:1.0"/>
<circle cx="274" cy="57" r="20.0" style="fill:gray;stroke:black;stroke-width:1.0"/>
<circle cx="272" cy="70" r="20.0" style="fill:gray;stroke:black;stroke-width:1.0"/>
<circle cx="334" cy="314" r="20.0" style="fill:gray;stroke:black;stroke-width:1.0"/>
<circle cx="331" cy="301" r="20.0" style="fill:gray;stroke:black;stroke-width:1.0"/>
<circle cx="173" cy="20" r="20.0" style="fill:gray;stroke:black;stroke-width:1.0"/>
<circle cx="176" cy="33" r="20.0" style="fill:gray;stroke:black;stroke-width:1.0"/>
</svg>
