<svg width="440" height="340" xmlns="http://www.w3.org/2000/svg">
<path stroke-width="8.3" stroke="black" d="M 278 84 275 116"/>
<path stroke-width="20.0" stroke="black" d="M 49 320 60 307"/>
<path stroke-width="0.5" stroke="black" d="M 60 307 107 281"/>
<path stroke-width="20.0" stroke="black" d="M 60 307 49 320"/>
<path stroke-width="0.5" stroke="black" d="M 60 307 33 279"/>
<path stroke-width="20.0" stroke="black" d="M 389 20 377 39"/>
<path stroke-width="0.5" stroke="black" d="M 377 39 401 78"/>
<path stroke-width="0.5" stroke="black" d="M 377 39 332 57"/>
<path stroke-width="20.0" stroke="black" d="M 377 39 389 20"/>
<path stroke-width="20.0" stroke="black" d="M 20 281 33 279"/>
<path stroke-width="0.5" stroke="black" d="M 33 279 67 246"/>
<path stroke-width="0.5" stroke="black" d="M 33 279 60 307"/>
<path stroke-width="20.0" stroke="black" d="M 33 279 20 281"/>
<path stroke-width="20.0" stroke="black" d="M 312 192 322 201"/>
<path stroke-width="20.0" stroke="black" d="M 213 157 218 164"/>
<path stroke-width="20.0" stroke="black" d="M 218 164 213 157"/>
<path stroke-width="0.5" stroke="black" d="M 218 164 159 233"/>
<path stroke-width="20.0" stroke="black" d="M 109 235 120 238"/>
<path stroke-width="0.5" stroke="black" d="M 120 238 67 246"/>
<path stroke-width="20.0" stroke="black" d="M 120 238 109 235"/>
<path stroke-width="0.5" stroke="black" d="M 120 238 183 233"/>
<path stroke-width="20.0" stroke="black" d="M 152 234 159 233"/>
<path stroke-width="0.5" stroke="black" d="M 159 233 107 281"/>
<path stroke-width="0.5" stroke="black" d="M 159 233 218 164"/>
<path stroke-width="20.0" stroke="black" d="M 159 233 152 234"/>
<path stroke-width="20.0" stroke="black" d="M 176 243 183 233"/>
<path stroke-width="0.5" stroke="black" d="M 183 233 248 220"/>
<path stroke-width="0.5" stroke="black" d="M 218 164 275 116"/>
<path stroke-width="0.5" stroke="black" d="M 312 192 248 220"/>
<path stroke-width="0.5" stroke="black" d="M 312 192 367 146"/>
<path stroke-width="20.0" stroke="black" d="M 322 201 312 192"/>
<path stroke-width="8.3" stroke="black" d="M 275 116 278 84"/>
<path stroke-width="0.5" stroke="black" d="M 275 116 332 57"/>
<path stroke-width="0.5" stroke="black" d="M 275 116 218 164"/>
<path stroke-width="8.3" stroke="black" d="M 420 61 401 78"/>
<path stroke-width="8.3" stroke="black" d="M 401 78 420 61"/>
<path stroke-width="0.5" stroke="black" d="M 401 78 367 146"/>
<path stroke-width="0.5" stroke="black" d="M 401 78 377 39"/>
<path stroke-width="8.3" stroke="black" d="M 98 317 107 281"/>
<path stroke-width="8.3" stroke="black" d="M 107 281 98 317"/>
<path stroke-width="0.5" stroke="black" d="M 107 281 60 307"/>
<path stroke-width="0.5" stroke="black" d="M 107 281 159 233"/>
<path stroke-width="20.0" stroke="black" d="M 342 50 332 57"/>
<path stroke-width="0.5" stroke="black" d="M 332 57 275 116"/>
<path stroke-width="20.0" stroke="black" d="M 332 57 342 50"/>
<path stroke-width="0.5" stroke="black" d="M 332 57 377 39"/>
<path stroke-width="8.3" stroke="black" d="M 50 236 67 246"/>
<path stroke-width="8.3" stroke="black" d="M 67 246 50 236"/>
<path stroke-width="0.5" stroke="black" d="M 67 246 33 279"/>
<path stroke-width="0.5" stroke="black" d="M 67 246 120 238"/>
<path stroke-width="20.0" stroke="black" d="M 380 147 367 146"/>
<path stroke-width="0.5" stroke="black" d="M 367 146 401 78"/>
<path stroke-width="20.0" stroke="black" d="M 367 146 380 147"/>
<path stroke-width="0.5" stroke="black" d="M 367 146 312 192"/>
<path stroke-width="8.3" stroke="black" d="M 248 249 248 220"/>
<path stroke-width="8.3" stroke="black" d="M 248 220 248 249"/>
<path stroke-width="0.5" stroke="black" d="M 248 220 312 192"/>
<path stroke-width="0.5" stroke="black" d="M 248 220 183 233"/>
<path stroke-width="0.5" stroke="black" d="M 183 233 120 238"/>
<path stroke-width="20.0" stroke="black" d="M 183 233 176 243"/>
<circle cx="278" cy="84" r="7.0" style="fill:gray;stroke:black;stroke-width:1.0"/>
<circle cx="275" cy="116" r="7.0" style="fill:gray;stroke:black;stroke-width:1.0"/>
<circle cx="420" cy="61" r="7.0" style="fill:gray;stroke:black;stroke-width:1.0"/>
<circle cx="401" cy="78" r="7.0" style="fill:gray;stroke:black;stroke-width:1.0"/>
<circle cx="98" cy="317" r="7.0" style="fill:gray;stroke:black;stroke-width:1.0"/>
<circle cx="107" cy="281" r="7.0" style="fill:gray;stroke:black;stroke-width:1.0"/>
<circle cx="342" cy="50" r="7.0" style="fill:gray;stroke:black;stroke-width:1.0"/>
<circle cx="332" cy="57" r="7.0" style="fill:gray;stroke:black;stroke-width:1.0"/>
<circle cx="50" cy="236" r="7.0" style="fill:gray;stroke:black;stroke-width:1.0"/>
<circle cx="67" cy="246" r="7.0" style="fill:gray;stroke:black;stroke-width:1.0"/>
<circle cx="380" cy="147" r="7.0" style="fill:gray;stroke:black;stroke-width:1.0"/>
<circle cx="367" cy="146" r="7.0" style="fill:gray;stroke:black;stroke-width:1.0"/>
<circle cx="248" cy="249" r="7.0" style="fill:gray;stroke:black;stroke-width:1.0"/>
<circle cx="248" cy="220" r="7.0" style="fill:gray;stroke:black;stroke-width:1.0"/>
<circle cx="322" cy="201" r="7.0" style="fill:gray;stroke:black;stroke-width:1.0"/>
<circle cx="312" cy="192" r="7.0" style="fill:gray;stroke:black;stroke-width:1.0"/>
<circle cx="49" cy="320" r="7.0" style="fill:gray;stroke:black;stroke-width:1.0"/>
<circle cx="60" cy="307" r="7.0" style="fill:gray;stroke:black;stroke-width:1.0"/>
<circle cx="389" cy="20" r="7.0" style="fill:gray;stroke:black;stroke-width:1.0"/>
<circle cx="377" cy="39" r="7.0" style="fill:gray;stroke:black;stroke-width:1.0"/>
<circle cx="20" cy="281" r="7.0" style="fill:gray;stroke:black;stroke-width:1.0"/>
<circle cx="33" cy="279" r="7.0" style="fill:gray;stroke:black;stroke-width:1.0"/>
<circle cx="213" cy="157" r="7.0" style="fill:gray;stroke:black;stroke-width:1.0"/>
<circle cx="218" cy="164" r="7.0" style="fill:gray;stroke:black;stroke-width:1.0"/>
<circle cx="109" cy="235" r="7.0" style="fill:gray;stroke:black;stroke-width:1.0"/>
<circle cx="120" cy="238" r="7.0" style="fill:gray;stroke:black;stroke-width:1.0"/>
<circle cx="152" cy="234" r="7.0" style="fill:gray;stroke:black;stroke-width:1.0"/>
<circle cx="159" cy="233" r="7.0" style="fill:gray;stroke:black;stroke-width:1.0"/>
<circle cx="176" cy="243" r="7.0" style="fill:gray;stroke:black;stroke-width:1.0"/>
<circle cx="183" cy="233" r="7.0" style="fill:gray;stroke:black;stroke-width:1.0"/>
</svg>
