<svg width="440" height="340" xmlns="http://www.w3.org/2000/svg">
<path stroke-width="1" stroke="black" d="M 389 302 296 216"/>
<path stroke-width="1" stroke="black" d="M 273 107 144 115"/>
<path stroke-width="1" stroke="black" d="M 273 107 318 176"/>
<path stroke-width="1" stroke="black" d="M 273 107 357 69"/>
<path stroke-width="1" stroke="black" d="M 273 107 271 220"/>
<path stroke-width="1" stroke="black" d="M 273 107 313 143"/>
<path stroke-width="1" stroke="black" d="M 273 107 176 97"/>
<path stroke-width="1" stroke="black" d="M 273 107 129 150"/>
<path stroke-width="1" stroke="black" d="M 273 107 288 105"/>
<path stroke-width="1" stroke="black" d="M 342 274 271 220"/>
<path stroke-width="1" stroke="black" d="M 271 220 296 216"/>
<path stroke-width="1" stroke="black" d="M 271 220 184 229"/>
<path stroke-width="1" stroke="black" d="M 271 220 129 185"/>
<path stroke-width="1" stroke="black" d="M 273 107 147 220"/>
<path stroke-width="1" stroke="black" d="M 271 220 211 163"/>
<path stroke-width="1" stroke="black" d="M 271 220 222 250"/>
<path stroke-width="1" stroke="black" d="M 271 220 147 220"/>
<path stroke-width="1" stroke="black" d="M 271 220 144 115"/>
<path stroke-width="1" stroke="black" d="M 271 220 318 176"/>
<path stroke-width="1" stroke="black" d="M 271 220 273 107"/>
<path stroke-width="1" stroke="black" d="M 271 220 342 274"/>
<path stroke-width="1" stroke="black" d="M 271 220 313 143"/>
<path stroke-width="1" stroke="black" d="M 271 220 176 97"/>
<path stroke-width="1" stroke="black" d="M 271 220 129 150"/>
<path stroke-width="1" stroke="black" d="M 271 220 288 105"/>
<path stroke-width="1" stroke="black" d="M 412 112 313 143"/>
<path stroke-width="1" stroke="black" d="M 313 143 296 216"/>
<path stroke-width="1" stroke="black" d="M 271 220 220 81"/>
<path stroke-width="1" stroke="black" d="M 313 143 184 229"/>
<path stroke-width="1" stroke="black" d="M 273 107 222 250"/>
<path stroke-width="1" stroke="black" d="M 273 107 211 163"/>
<path stroke-width="1" stroke="black" d="M 144 115 273 107"/>
<path stroke-width="1" stroke="black" d="M 144 115 271 220"/>
<path stroke-width="1" stroke="black" d="M 144 115 313 143"/>
<path stroke-width="1" stroke="black" d="M 144 115 176 97"/>
<path stroke-width="1" stroke="black" d="M 144 115 129 150"/>
<path stroke-width="1" stroke="black" d="M 144 115 288 105"/>
<path stroke-width="1" stroke="black" d="M 420 202 318 176"/>
<path stroke-width="1" stroke="black" d="M 318 176 296 216"/>
<path stroke-width="1" stroke="black" d="M 318 176 184 229"/>
<path stroke-width="1" stroke="black" d="M 318 176 129 185"/>
<path stroke-width="1" stroke="black" d="M 318 176 211 163"/>
<path stroke-width="1" stroke="black" d="M 318 176 220 81"/>
<path stroke-width="1" stroke="black" d="M 273 107 220 81"/>
<path stroke-width="1" stroke="black" d="M 318 176 222 250"/>
<path stroke-width="1" stroke="black" d="M 318 176 144 115"/>
<path stroke-width="1" stroke="black" d="M 318 176 420 202"/>
<path stroke-width="1" stroke="black" d="M 318 176 273 107"/>
<path stroke-width="1" stroke="black" d="M 318 176 271 220"/>
<path stroke-width="1" stroke="black" d="M 318 176 313 143"/>
<path stroke-width="1" stroke="black" d="M 318 176 176 97"/>
<path stroke-width="1" stroke="black" d="M 318 176 129 150"/>
<path stroke-width="1" stroke="black" d="M 318 176 288 105"/>
<path stroke-width="1" stroke="black" d="M 357 69 273 107"/>
<path stroke-width="1" stroke="black" d="M 273 107 296 216"/>
<path stroke-width="1" stroke="black" d="M 273 107 184 229"/>
<path stroke-width="1" stroke="black" d="M 273 107 129 185"/>
<path stroke-width="1" stroke="black" d="M 318 176 147 220"/>
<path stroke-width="1" stroke="black" d="M 144 115 318 176"/>
<path stroke-width="1" stroke="black" d="M 313 143 129 185"/>
<path stroke-width="1" stroke="black" d="M 313 143 220 81"/>
<path stroke-width="1" stroke="black" d="M 129 150 211 163"/>
<path stroke-width="1" stroke="black" d="M 129 150 220 81"/>
<path stroke-width="1" stroke="black" d="M 129 150 222 250"/>
<path stroke-width="1" stroke="black" d="M 129 150 147 220"/>
<path stroke-width="1" stroke="black" d="M 129 150 144 115"/>
<path stroke-width="1" stroke="black" d="M 129 150 318 176"/>
<path stroke-width="1" stroke="black" d="M 129 150 273 107"/>
<path stroke-width="1" stroke="black" d="M 129 150 271 220"/>
<path stroke-width="1" stroke="black" d="M 129 150 313 143"/>
<path stroke-width="1" stroke="black" d="M 129 150 176 97"/>
<path stroke-width="1" stroke="black" d="M 129 150 23 125"/>
<path stroke-width="1" stroke="black" d="M 129 150 288 105"/>
<path stroke-width="1" stroke="black" d="M 129 150 129 185"/>
<path stroke-width="1" stroke="black" d="M 381 27 288 105"/>
<path stroke-width="1" stroke="black" d="M 288 105 184 229"/>
<path stroke-width="1" stroke="black" d="M 288 105 129 185"/>
<path stroke-width="1" stroke="black" d="M 288 105 211 163"/>
<path stroke-width="1" stroke="black" d="M 288 105 220 81"/>
<path stroke-width="1" stroke="black" d="M 288 105 222 250"/>
<path stroke-width="1" stroke="black" d="M 288 105 147 220"/>
<path stroke-width="1" stroke="black" d="M 288 105 144 115"/>
<path stroke-width="1" stroke="black" d="M 288 105 318 176"/>
<path stroke-width="1" stroke="black" d="M 288 105 273 107"/>
<path stroke-width="1" stroke="black" d="M 288 105 271 220"/>
<path stroke-width="1" stroke="black" d="M 288 105 313 143"/>
<path stroke-width="1" stroke="black" d="M 288 105 176 97"/>
<path stroke-width="1" stroke="black" d="M 288 105 296 216"/>
<path stroke-width="1" stroke="black" d="M 313 143 211 163"/>
<path stroke-width="1" stroke="black" d="M 129 150 184 229"/>
<path stroke-width="1" stroke="black" d="M 23 125 129 150"/>
<path stroke-width="1" stroke="black" d="M 313 143 222 250"/>
<path stroke-width="1" stroke="black" d="M 313 143 147 220"/>
<path stroke-width="1" stroke="black" d="M 313 143 144 115"/>
<path stroke-width="1" stroke="black" d="M 313 143 318 176"/>
<path stroke-width="1" stroke="black" d="M 313 143 273 107"/>
<path stroke-width="1" stroke="black" d="M 313 143 271 220"/>
<path stroke-width="1" stroke="black" d="M 313 143 412 112"/>
<path stroke-width="1" stroke="black" d="M 313 143 176 97"/>
<path stroke-width="1" stroke="black" d="M 313 143 129 150"/>
<path stroke-width="1" stroke="black" d="M 313 143 288 105"/>
<path stroke-width="1" stroke="black" d="M 116 39 176 97"/>
<path stroke-width="1" stroke="black" d="M 176 97 296 216"/>
<path stroke-width="1" stroke="black" d="M 129 150 296 216"/>
<path stroke-width="1" stroke="black" d="M 176 97 184 229"/>
<path stroke-width="1" stroke="black" d="M 176 97 211 163"/>
<path stroke-width="1" stroke="black" d="M 176 97 220 81"/>
<path stroke-width="1" stroke="black" d="M 176 97 222 250"/>
<path stroke-width="1" stroke="black" d="M 176 97 147 220"/>
<path stroke-width="1" stroke="black" d="M 176 97 144 115"/>
<path stroke-width="1" stroke="black" d="M 176 97 318 176"/>
<path stroke-width="1" stroke="black" d="M 176 97 273 107"/>
<path stroke-width="1" stroke="black" d="M 176 97 271 220"/>
<path stroke-width="1" stroke="black" d="M 176 97 313 143"/>
<path stroke-width="1" stroke="black" d="M 176 97 116 39"/>
<path stroke-width="1" stroke="black" d="M 176 97 129 150"/>
<path stroke-width="1" stroke="black" d="M 176 97 288 105"/>
<path stroke-width="1" stroke="black" d="M 176 97 129 185"/>
<path stroke-width="1" stroke="black" d="M 144 115 55 62"/>
<path stroke-width="1" stroke="black" d="M 144 115 147 220"/>
<path stroke-width="1" stroke="black" d="M 144 115 222 250"/>
<path stroke-width="1" stroke="black" d="M 184 229 288 105"/>
<path stroke-width="1" stroke="black" d="M 20 202 129 185"/>
<path stroke-width="1" stroke="black" d="M 129 185 296 216"/>
<path stroke-width="1" stroke="black" d="M 129 185 184 229"/>
<path stroke-width="1" stroke="black" d="M 129 185 20 202"/>
<path stroke-width="1" stroke="black" d="M 129 185 211 163"/>
<path stroke-width="1" stroke="black" d="M 129 185 220 81"/>
<path stroke-width="1" stroke="black" d="M 129 185 222 250"/>
<path stroke-width="1" stroke="black" d="M 129 185 147 220"/>
<path stroke-width="1" stroke="black" d="M 129 185 144 115"/>
<path stroke-width="1" stroke="black" d="M 129 185 318 176"/>
<path stroke-width="1" stroke="black" d="M 129 185 273 107"/>
<path stroke-width="1" stroke="black" d="M 184 229 129 150"/>
<path stroke-width="1" stroke="black" d="M 129 185 271 220"/>
<path stroke-width="1" stroke="black" d="M 129 185 176 97"/>
<path stroke-width="1" stroke="black" d="M 129 185 129 150"/>
<path stroke-width="1" stroke="black" d="M 129 185 288 105"/>
<path stroke-width="1" stroke="black" d="M 255 169 211 163"/>
<path stroke-width="1" stroke="black" d="M 211 163 296 216"/>
<path stroke-width="1" stroke="black" d="M 211 163 184 229"/>
<path stroke-width="1" stroke="black" d="M 211 163 129 185"/>
<path stroke-width="1" stroke="black" d="M 211 163 255 169"/>
<path stroke-width="1" stroke="black" d="M 211 163 220 81"/>
<path stroke-width="1" stroke="black" d="M 211 163 222 250"/>
<path stroke-width="1" stroke="black" d="M 211 163 147 220"/>
<path stroke-width="1" stroke="black" d="M 211 163 144 115"/>
<path stroke-width="1" stroke="black" d="M 129 185 313 143"/>
<path stroke-width="1" stroke="black" d="M 211 163 318 176"/>
<path stroke-width="1" stroke="black" d="M 184 229 176 97"/>
<path stroke-width="1" stroke="black" d="M 184 229 271 220"/>
<path stroke-width="1" stroke="black" d="M 296 216 389 302"/>
<path stroke-width="1" stroke="black" d="M 296 216 184 229"/>
<path stroke-width="1" stroke="black" d="M 296 216 129 185"/>
<path stroke-width="1" stroke="black" d="M 296 216 211 163"/>
<path stroke-width="1" stroke="black" d="M 296 216 220 81"/>
<path stroke-width="1" stroke="black" d="M 296 216 222 250"/>
<path stroke-width="1" stroke="black" d="M 296 216 147 220"/>
<path stroke-width="1" stroke="black" d="M 296 216 144 115"/>
<path stroke-width="1" stroke="black" d="M 296 216 318 176"/>
<path stroke-width="1" stroke="black" d="M 296 216 273 107"/>
<path stroke-width="1" stroke="black" d="M 296 216 271 220"/>
<path stroke-width="1" stroke="black" d="M 296 216 313 143"/>
<path stroke-width="1" stroke="black" d="M 184 229 313 143"/>
<path stroke-width="1" stroke="black" d="M 296 216 176 97"/>
<path stroke-width="1" stroke="black" d="M 296 216 288 105"/>
<path stroke-width="1" stroke="black" d="M 129 285 184 229"/>
<path stroke-width="1" stroke="black" d="M 184 229 296 216"/>
<path stroke-width="1" stroke="black" d="M 184 229 129 285"/>
<path stroke-width="1" stroke="black" d="M 184 229 129 185"/>
<path stroke-width="1" stroke="black" d="M 184 229 211 163"/>
<path stroke-width="1" stroke="black" d="M 184 229 220 81"/>
<path stroke-width="1" stroke="black" d="M 184 229 222 250"/>
<path stroke-width="1" stroke="black" d="M 184 229 147 220"/>
<path stroke-width="1" stroke="black" d="M 184 229 144 115"/>
<path stroke-width="1" stroke="black" d="M 184 229 318 176"/>
<path stroke-width="1" stroke="black" d="M 184 229 273 107"/>
<path stroke-width="1" stroke="black" d="M 296 216 129 150"/>
<path stroke-width="1" stroke="black" d="M 211 163 273 107"/>
<path stroke-width="1" stroke="black" d="M 211 163 271 220"/>
<path stroke-width="1" stroke="black" d="M 211 163 313 143"/>
<path stroke-width="1" stroke="black" d="M 222 250 313 143"/>
<path stroke-width="1" stroke="black" d="M 222 250 176 97"/>
<path stroke-width="1" stroke="black" d="M 222 250 129 150"/>
<path stroke-width="1" stroke="black" d="M 222 250 288 105"/>
<path stroke-width="1" stroke="black" d="M 57 254 147 220"/>
<path stroke-width="1" stroke="black" d="M 147 220 296 216"/>
<path stroke-width="1" stroke="black" d="M 147 220 184 229"/>
<path stroke-width="1" stroke="black" d="M 147 220 129 185"/>
<path stroke-width="1" stroke="black" d="M 147 220 211 163"/>
<path stroke-width="1" stroke="black" d="M 147 220 220 81"/>
<path stroke-width="1" stroke="black" d="M 147 220 222 250"/>
<path stroke-width="1" stroke="black" d="M 147 220 57 254"/>
<path stroke-width="1" stroke="black" d="M 222 250 271 220"/>
<path stroke-width="1" stroke="black" d="M 147 220 144 115"/>
<path stroke-width="1" stroke="black" d="M 147 220 273 107"/>
<path stroke-width="1" stroke="black" d="M 147 220 271 220"/>
<path stroke-width="1" stroke="black" d="M 147 220 313 143"/>
<path stroke-width="1" stroke="black" d="M 147 220 176 97"/>
<path stroke-width="1" stroke="black" d="M 147 220 129 150"/>
<path stroke-width="1" stroke="black" d="M 147 220 288 105"/>
<path stroke-width="1" stroke="black" d="M 55 62 144 115"/>
<path stroke-width="1" stroke="black" d="M 144 115 296 216"/>
<path stroke-width="1" stroke="black" d="M 144 115 184 229"/>
<path stroke-width="1" stroke="black" d="M 144 115 129 185"/>
<path stroke-width="1" stroke="black" d="M 144 115 211 163"/>
<path stroke-width="1" stroke="black" d="M 144 115 220 81"/>
<path stroke-width="1" stroke="black" d="M 147 220 318 176"/>
<path stroke-width="1" stroke="black" d="M 222 250 273 107"/>
<path stroke-width="1" stroke="black" d="M 222 250 318 176"/>
<path stroke-width="1" stroke="black" d="M 222 250 144 115"/>
<path stroke-width="1" stroke="black" d="M 211 163 176 97"/>
<path stroke-width="1" stroke="black" d="M 211 163 129 150"/>
<path stroke-width="1" stroke="black" d="M 211 163 288 105"/>
<path stroke-width="1" stroke="black" d="M 207 20 220 81"/>
<path stroke-width="1" stroke="black" d="M 220 81 296 216"/>
<path stroke-width="1" stroke="black" d="M 220 81 184 229"/>
<path stroke-width="1" stroke="black" d="M 220 81 129 185"/>
<path stroke-width="1" stroke="black" d="M 220 81 211 163"/>
<path stroke-width="1" stroke="black" d="M 220 81 207 20"/>
<path stroke-width="1" stroke="black" d="M 220 81 222 250"/>
<path stroke-width="1" stroke="black" d="M 220 81 147 220"/>
<path stroke-width="1" stroke="black" d="M 220 81 144 115"/>
<path stroke-width="1" stroke="black" d="M 220 81 318 176"/>
<path stroke-width="1" stroke="black" d="M 220 81 273 107"/>
<path stroke-width="1" stroke="black" d="M 220 81 271 220"/>
<path stroke-width="1" stroke="black" d="M 220 81 313 143"/>
<path stroke-width="1" stroke="black" d="M 220 81 176 97"/>
<path stroke-width="1" stroke="black" d="M 220 81 129 150"/>
<path stroke-width="1" stroke="black" d="M 220 81 288 105"/>
<path stroke-width="1" stroke="black" d="M 219 320 222 250"/>
<path stroke-width="1" stroke="black" d="M 222 250 296 216"/>
<path stroke-width="1" stroke="black" d="M 222 250 184 229"/>
<path stroke-width="1" stroke="black" d="M 222 250 129 185"/>
<path stroke-width="1" stroke="black" d="M 222 250 211 163"/>
<path stroke-width="1" stroke="black" d="M 222 250 220 81"/>
<path stroke-width="1" stroke="black" d="M 222 250 219 320"/>
<path stroke-width="1" stroke="black" d="M 222 250 147 220"/>
<path stroke-width="1" stroke="black" d="M 288 105 129 150"/>
<path stroke-width="1" stroke="black" d="M 288 105 381 27"/>
<circle cx="389" cy="302" r="7.0" style="fill:blue;stroke:black;stroke-width:1.0"/>
<circle cx="296" cy="216" r="7.0" style="fill:blue;stroke:black;stroke-width:1.0"/>
<circle cx="129" cy="285" r="7.0" style="fill:red;stroke:black;stroke-width:1.0"/>
<circle cx="184" cy="229" r="7.0" style="fill:red;stroke:black;stroke-width:1.0"/>
<circle cx="20" cy="202" r="7.0" style="fill:green;stroke:black;stroke-width:1.0"/>
<circle cx="129" cy="185" r="7.0" style="fill:green;stroke:black;stroke-width:1.0"/>
<circle cx="255" cy="169" r="7.0" style="fill:orange;stroke:black;stroke-width:1.0"/>
<circle cx="211" cy="163" r="7.0" style="fill:orange;stroke:black;stroke-width:1.0"/>
<circle cx="207" cy="20" r="7.0" style="fill:purple;stroke:black;stroke-width:1.0"/>
<circle cx="220" cy="81" r="7.0" style="fill:purple;stroke:black;stroke-width:1.0"/>
<circle cx="219" cy="320" r="7.0" style="fill:yellow;stroke:black;stroke-width:1.0"/>
<circle cx="222" cy="250" r="7.0" style="fill:yellow;stroke:black;stroke-width:1.0"/>
<circle cx="57" cy="254" r="7.0" style="fill:fuchsia;stroke:black;stroke-width:1.0"/>
<circle cx="147" cy="220" r="7.0" style="fill:fuchsia;stroke:black;stroke-width:1.0"/>
<circle cx="55" cy="62" r="7.0" style="fill:olive;stroke:black;stroke-width:1.0"/>
<circle cx="144" cy="115" r="7.0" style="fill:olive;stroke:black;stroke-width:1.0"/>
<circle cx="420" cy="202" r="7.0" style="fill:aqua;stroke:black;stroke-width:1.0"/>
<circle cx="318" cy="176" r="7.0" style="fill:aqua;stroke:black;stroke-width:1.0"/>
<circle cx="357" cy="69" r="7.0" style="fill:brown;stroke:black;stroke-width:1.0"/>
<circle cx="273" cy="107" r="7.0" style="fill:brown;stroke:black;stroke-width:1.0"/>
<circle cx="342" cy="274" r="7.0" style="fill:blue;stroke:black;stroke-width:1.0"/>
<circle cx="271" cy="220" r="7.0" style="fill:blue;stroke:black;stroke-width:1.0"/>
<circle cx="412" cy="112" r="7.0" style="fill:red;stroke:black;stroke-width:1.0"/>
<circle cx="313" cy="143" r="7.0" style="fill:red;stroke:black;stroke-width:1.0"/>
<circle cx="116" cy="39" r="7.0" style="fill:green;stroke:black;stroke-width:1.0"/>
<circle cx="176" cy="97" r="7.0" style="fill:green;stroke:black;stroke-width:1.0"/>
<circle cx="23" cy="125" r="7.0" style="fill:orange;stroke:black;stroke-width:1.0"/>
<circle cx="129" cy="150" r="7.0" style="fill:orange;stroke:black;stroke-width:1.0"/>
<circle cx="381" cy="27" r="7.0" style="fill:purple;stroke:black;stroke-width:1.0"/>
<circle cx="288" cy="105" r="7.0" style="fill:purple;stroke:black;stroke-width:1.0"/>
</svg>
