<svg width="440" height="340" xmlns="http://www.w3.org/2000/svg">
<path stroke-width="1" stroke="black" d="M 272 107 200 320"/>
<path stroke-width="1" stroke="black" d="M 328 201 45 109"/>
<path stroke-width="1" stroke="black" d="M 328 201 403 246"/>
<path stroke-width="1" stroke="black" d="M 328 201 156 20"/>
<path stroke-width="1" stroke="black" d="M 328 201 140 98"/>
<path stroke-width="1" stroke="black" d="M 328 201 124 186"/>
<path stroke-width="1" stroke="black" d="M 328 201 371 74"/>
<path stroke-width="1" stroke="black" d="M 328 201 285 26"/>
<path stroke-width="1" stroke="black" d="M 156 20 272 107"/>
<path stroke-width="1" stroke="black" d="M 156 20 200 320"/>
<path stroke-width="1" stroke="black" d="M 156 20 222 232"/>
<path stroke-width="1" stroke="black" d="M 328 201 105 295"/>
<path stroke-width="1" stroke="black" d="M 156 20 420 155"/>
<path stroke-width="1" stroke="black" d="M 156 20 296 312"/>
<path stroke-width="1" stroke="black" d="M 156 20 105 295"/>
<path stroke-width="1" stroke="black" d="M 156 20 45 109"/>
<path stroke-width="1" stroke="black" d="M 156 20 403 246"/>
<path stroke-width="1" stroke="black" d="M 156 20 328 201"/>
<path stroke-width="1" stroke="black" d="M 156 20 140 98"/>
<path stroke-width="1" stroke="black" d="M 156 20 124 186"/>
<path stroke-width="1" stroke="black" d="M 156 20 371 74"/>
<path stroke-width="1" stroke="black" d="M 156 20 285 26"/>
<path stroke-width="1" stroke="black" d="M 140 98 272 107"/>
<path stroke-width="1" stroke="black" d="M 156 20 20 196"/>
<path stroke-width="1" stroke="black" d="M 140 98 200 320"/>
<path stroke-width="1" stroke="black" d="M 328 201 296 312"/>
<path stroke-width="1" stroke="black" d="M 328 201 420 155"/>
<path stroke-width="1" stroke="black" d="M 45 109 156 20"/>
<path stroke-width="1" stroke="black" d="M 45 109 140 98"/>
<path stroke-width="1" stroke="black" d="M 45 109 124 186"/>
<path stroke-width="1" stroke="black" d="M 45 109 371 74"/>
<path stroke-width="1" stroke="black" d="M 45 109 285 26"/>
<path stroke-width="1" stroke="black" d="M 403 246 272 107"/>
<path stroke-width="1" stroke="black" d="M 403 246 200 320"/>
<path stroke-width="1" stroke="black" d="M 403 246 222 232"/>
<path stroke-width="1" stroke="black" d="M 403 246 420 155"/>
<path stroke-width="1" stroke="black" d="M 403 246 20 196"/>
<path stroke-width="1" stroke="black" d="M 328 201 20 196"/>
<path stroke-width="1" stroke="black" d="M 403 246 296 312"/>
<path stroke-width="1" stroke="black" d="M 403 246 45 109"/>
<path stroke-width="1" stroke="black" d="M 403 246 328 201"/>
<path stroke-width="1" stroke="black" d="M 403 246 156 20"/>
<path stroke-width="1" stroke="black" d="M 403 246 140 98"/>
<path stroke-width="1" stroke="black" d="M 403 246 124 186"/>
<path stroke-width="1" stroke="black" d="M 403 246 371 74"/>
<path stroke-width="1" stroke="black" d="M 403 246 285 26"/>
<path stroke-width="1" stroke="black" d="M 328 201 272 107"/>
<path stroke-width="1" stroke="black" d="M 328 201 200 320"/>
<path stroke-width="1" stroke="black" d="M 328 201 222 232"/>
<path stroke-width="1" stroke="black" d="M 403 246 105 295"/>
<path stroke-width="1" stroke="black" d="M 140 98 222 232"/>
<path stroke-width="1" stroke="black" d="M 140 98 420 155"/>
<path stroke-width="1" stroke="black" d="M 140 98 20 196"/>
<path stroke-width="1" stroke="black" d="M 371 74 20 196"/>
<path stroke-width="1" stroke="black" d="M 371 74 296 312"/>
<path stroke-width="1" stroke="black" d="M 371 74 105 295"/>
<path stroke-width="1" stroke="black" d="M 371 74 45 109"/>
<path stroke-width="1" stroke="black" d="M 371 74 403 246"/>
<path stroke-width="1" stroke="black" d="M 371 74 328 201"/>
<path stroke-width="1" stroke="black" d="M 371 74 156 20"/>
<path stroke-width="1" stroke="black" d="M 371 74 140 98"/>
<path stroke-width="1" stroke="black" d="M 371 74 124 186"/>
<path stroke-width="1" stroke="black" d="M 371 74 285 26"/>
<path stroke-width="1" stroke="black" d="M 371 74 420 155"/>
<path stroke-width="1" stroke="black" d="M 285 26 272 107"/>
<path stroke-width="1" stroke="black" d="M 285 26 222 232"/>
<path stroke-width="1" stroke="black" d="M 285 26 420 155"/>
<path stroke-width="1" stroke="black" d="M 285 26 20 196"/>
<path stroke-width="1" stroke="black" d="M 285 26 296 312"/>
<path stroke-width="1" stroke="black" d="M 285 26 105 295"/>
<path stroke-width="1" stroke="black" d="M 285 26 45 109"/>
<path stroke-width="1" stroke="black" d="M 285 26 403 246"/>
<path stroke-width="1" stroke="black" d="M 285 26 328 201"/>
<path stroke-width="1" stroke="black" d="M 285 26 156 20"/>
<path stroke-width="1" stroke="black" d="M 285 26 140 98"/>
<path stroke-width="1" stroke="black" d="M 285 26 200 320"/>
<path stroke-width="1" stroke="black" d="M 371 74 222 232"/>
<path stroke-width="1" stroke="black" d="M 371 74 200 320"/>
<path stroke-width="1" stroke="black" d="M 371 74 272 107"/>
<path stroke-width="1" stroke="black" d="M 140 98 296 312"/>
<path stroke-width="1" stroke="black" d="M 140 98 105 295"/>
<path stroke-width="1" stroke="black" d="M 140 98 45 109"/>
<path stroke-width="1" stroke="black" d="M 140 98 403 246"/>
<path stroke-width="1" stroke="black" d="M 140 98 328 201"/>
<path stroke-width="1" stroke="black" d="M 140 98 156 20"/>
<path stroke-width="1" stroke="black" d="M 140 98 124 186"/>
<path stroke-width="1" stroke="black" d="M 140 98 371 74"/>
<path stroke-width="1" stroke="black" d="M 140 98 285 26"/>
<path stroke-width="1" stroke="black" d="M 124 186 272 107"/>
<path stroke-width="1" stroke="black" d="M 124 186 200 320"/>
<path stroke-width="1" stroke="black" d="M 124 186 222 232"/>
<path stroke-width="1" stroke="black" d="M 124 186 420 155"/>
<path stroke-width="1" stroke="black" d="M 124 186 20 196"/>
<path stroke-width="1" stroke="black" d="M 124 186 296 312"/>
<path stroke-width="1" stroke="black" d="M 124 186 105 295"/>
<path stroke-width="1" stroke="black" d="M 124 186 45 109"/>
<path stroke-width="1" stroke="black" d="M 124 186 403 246"/>
<path stroke-width="1" stroke="black" d="M 124 186 328 201"/>
<path stroke-width="1" stroke="black" d="M 124 186 156 20"/>
<path stroke-width="1" stroke="black" d="M 124 186 140 98"/>
<path stroke-width="1" stroke="black" d="M 124 186 371 74"/>
<path stroke-width="1" stroke="black" d="M 124 186 285 26"/>
<path stroke-width="1" stroke="black" d="M 45 109 328 201"/>
<path stroke-width="1" stroke="black" d="M 45 109 403 246"/>
<path stroke-width="1" stroke="black" d="M 45 109 105 295"/>
<path stroke-width="1" stroke="black" d="M 45 109 296 312"/>
<path stroke-width="1" stroke="black" d="M 222 232 272 107"/>
<path stroke-width="1" stroke="black" d="M 222 232 200 320"/>
<path stroke-width="1" stroke="black" d="M 222 232 420 155"/>
<path stroke-width="1" stroke="black" d="M 222 232 20 196"/>
<path stroke-width="1" stroke="black" d="M 222 232 296 312"/>
<path stroke-width="1" stroke="black" d="M 222 232 105 295"/>
<path stroke-width="1" stroke="black" d="M 222 232 45 109"/>
<path stroke-width="1" stroke="black" d="M 222 232 403 246"/>
<path stroke-width="1" stroke="black" d="M 222 232 328 201"/>
<path stroke-width="1" stroke="black" d="M 222 232 156 20"/>
<path stroke-width="1" stroke="black" d="M 200 320 285 26"/>
<path stroke-width="1" stroke="black" d="M 222 232 140 98"/>
<path stroke-width="1" stroke="black" d="M 222 232 371 74"/>
<path stroke-width="1" stroke="black" d="M 222 232 285 26"/>
<path stroke-width="1" stroke="black" d="M 420 155 272 107"/>
<path stroke-width="1" stroke="black" d="M 420 155 200 320"/>
<path stroke-width="1" stroke="black" d="M 420 155 222 232"/>
<path stroke-width="1" stroke="black" d="M 420 155 20 196"/>
<path stroke-width="1" stroke="black" d="M 420 155 296 312"/>
<path stroke-width="1" stroke="black" d="M 420 155 105 295"/>
<path stroke-width="1" stroke="black" d="M 420 155 45 109"/>
<path stroke-width="1" stroke="black" d="M 420 155 403 246"/>
<path stroke-width="1" stroke="black" d="M 222 232 124 186"/>
<path stroke-width="1" stroke="black" d="M 200 320 371 74"/>
<path stroke-width="1" stroke="black" d="M 200 320 124 186"/>
<path stroke-width="1" stroke="black" d="M 200 320 140 98"/>
<path stroke-width="1" stroke="black" d="M 272 107 222 232"/>
<path stroke-width="1" stroke="black" d="M 272 107 420 155"/>
<path stroke-width="1" stroke="black" d="M 272 107 20 196"/>
<path stroke-width="1" stroke="black" d="M 272 107 296 312"/>
<path stroke-width="1" stroke="black" d="M 272 107 105 295"/>
<path stroke-width="1" stroke="black" d="M 272 107 45 109"/>
<path stroke-width="1" stroke="black" d="M 272 107 403 246"/>
<path stroke-width="1" stroke="black" d="M 272 107 328 201"/>
<path stroke-width="1" stroke="black" d="M 272 107 156 20"/>
<path stroke-width="1" stroke="black" d="M 272 107 140 98"/>
<path stroke-width="1" stroke="black" d="M 272 107 124 186"/>
<path stroke-width="1" stroke="black" d="M 272 107 371 74"/>
<path stroke-width="1" stroke="black" d="M 272 107 285 26"/>
<path stroke-width="1" stroke="black" d="M 200 320 272 107"/>
<path stroke-width="1" stroke="black" d="M 200 320 222 232"/>
<path stroke-width="1" stroke="black" d="M 200 320 420 155"/>
<path stroke-width="1" stroke="black" d="M 200 320 20 196"/>
<path stroke-width="1" stroke="black" d="M 200 320 296 312"/>
<path stroke-width="1" stroke="black" d="M 200 320 105 295"/>
<path stroke-width="1" stroke="black" d="M 200 320 45 109"/>
<path stroke-width="1" stroke="black" d="M 200 320 403 246"/>
<path stroke-width="1" stroke="black" d="M 200 320 328 201"/>
<path stroke-width="1" stroke="black" d="M 200 320 156 20"/>
<path stroke-width="1" stroke="black" d="M 420 155 328 201"/>
<path stroke-width="1" stroke="black" d="M 285 26 124 186"/>
<path stroke-width="1" stroke="black" d="M 420 155 156 20"/>
<path stroke-width="1" stroke="black" d="M 420 155 124 186"/>
<path stroke-width="1" stroke="black" d="M 296 312 124 186"/>
<path stroke-width="1" stroke="black" d="M 296 312 371 74"/>
<path stroke-width="1" stroke="black" d="M 296 312 285 26"/>
<path stroke-width="1" stroke="black" d="M 105 295 272 107"/>
<path stroke-width="1" stroke="black" d="M 105 295 200 320"/>
<path stroke-width="1" stroke="black" d="M 105 295 222 232"/>
<path stroke-width="1" stroke="black" d="M 105 295 420 155"/>
<path stroke-width="1" stroke="black" d="M 105 295 20 196"/>
<path stroke-width="1" stroke="black" d="M 105 295 296 312"/>
<path stroke-width="1" stroke="black" d="M 105 295 45 109"/>
<path stroke-width="1" stroke="black" d="M 296 312 140 98"/>
<path stroke-width="1" stroke="black" d="M 105 295 403 246"/>
<path stroke-width="1" stroke="black" d="M 105 295 156 20"/>
<path stroke-width="1" stroke="black" d="M 105 295 140 98"/>
<path stroke-width="1" stroke="black" d="M 105 295 124 186"/>
<path stroke-width="1" stroke="black" d="M 105 295 371 74"/>
<path stroke-width="1" stroke="black" d="M 105 295 285 26"/>
<path stroke-width="1" stroke="black" d="M 45 109 272 107"/>
<path stroke-width="1" stroke="black" d="M 45 109 200 320"/>
<path stroke-width="1" stroke="black" d="M 45 109 222 232"/>
<path stroke-width="1" stroke="black" d="M 45 109 420 155"/>
<path stroke-width="1" stroke="black" d="M 45 109 20 196"/>
<path stroke-width="1" stroke="black" d="M 105 295 328 201"/>
<path stroke-width="1" stroke="black" d="M 296 312 156 20"/>
<path stroke-width="1" stroke="black" d="M 296 312 328 201"/>
<path stroke-width="1" stroke="black" d="M 296 312 403 246"/>
<path stroke-width="1" stroke="black" d="M 420 155 371 74"/>
<path stroke-width="1" stroke="black" d="M 420 155 285 26"/>
<path stroke-width="1" stroke="black" d="M 20 196 272 107"/>
<path stroke-width="1" stroke="black" d="M 20 196 200 320"/>
<path stroke-width="1" stroke="black" d="M 20 196 222 232"/>
<path stroke-width="1" stroke="black" d="M 20 196 420 155"/>
<path stroke-width="1" stroke="black" d="M 20 196 296 312"/>
<path stroke-width="1" stroke="black" d="M 20 196 105 295"/>
<path stroke-width="1" stroke="black" d="M 20 196 45 109"/>
<path stroke-width="1" stroke="black" d="M 20 196 403 246"/>
<path stroke-width="1" stroke="black" d="M 20 196 328 201"/>
<path stroke-width="1" stroke="black" d="M 20 196 156 20"/>
<path stroke-width="1" stroke="black" d="M 20 196 140 98"/>
<path stroke-width="1" stroke="black" d="M 20 196 124 186"/>
<path stroke-width="1" stroke="black" d="M 20 196 371 74"/>
<path stroke-width="1" stroke="black" d="M 20 196 285 26"/>
<path stroke-width="1" stroke="black" d="M 296 312 272 107"/>
<path stroke-width="1" stroke="black" d="M 296 312 200 320"/>
<path stroke-width="1" stroke="black" d="M 296 312 222 232"/>
<path stroke-width="1" stroke="black" d="M 296 312 420 155"/>
<path stroke-width="1" stroke="black" d="M 296 312 20 196"/>
<path stroke-width="1" stroke="black" d="M 296 312 105 295"/>
<path stroke-width="1" stroke="black" d="M 296 312 45 109"/>
<path stroke-width="1" stroke="black" d="M 420 155 140 98"/>
<path stroke-width="1" stroke="black" d="M 285 26 371 74"/>
<circle cx="272" cy="107" r="20.0" style="fill:gray;stroke:black;stroke-width:1.0"/>
<circle cx="200" cy="320" r="20.0" style="fill:gray;stroke:black;stroke-width:1.0"/>
<circle cx="222" cy="232" r="20.0" style="fill:gray;stroke:black;stroke-width:1.0"/>
<circle cx="420" cy="155" r="20.0" style="fill:gray;stroke:black;stroke-width:1.0"/>
<circle cx="20" cy="196" r="20.0" style="fill:gray;stroke:black;stroke-width:1.0"/>
<circle cx="296" cy="312" r="20.0" style="fill:gray;stroke:black;stroke-width:1.0"/>
<circle cx="105" cy="295" r="20.0" style="fill:gray;stroke:black;stroke-width:1.0"/>
<circle cx="45" cy="109" r="20.0" style="fill:gray;stroke:black;stroke-width:1.0"/>
<circle cx="403" cy="246" r="20.0" style="fill:gray;stroke:black;stroke-width:1.0"/>
<circle cx="328" cy="201" r="20.0" style="fill:gray;stroke:black;stroke-width:1.0"/>
<circle cx="156" cy="20" r="20.0" style="fill:gray;stroke:black;stroke-width:1.0"/>
<circle cx="140" cy="98" r="20.0" style="fill:gray;stroke:black;stroke-width:1.0"/>
<circle cx="124" cy="186" r="20.0" style="fill:gray;stroke:black;stroke-width:1.0"/>
<circle cx="371" cy="74" r="20.0" style="fill:gray;stroke:black;stroke-width:1.0"/>
<circle cx="285" cy="26" r="20.0" style="fill:gray;stroke:black;stroke-width:1.0"/>
</svg>
