<svg width="440" height="340" xmlns="http://www.w3.org/2000/svg">
<path stroke-width="1" stroke="black" d="M 369 99 393 237"/>
<path stroke-width="1" stroke="black" d="M 263 165 290 78"/>
<path stroke-width="1" stroke="black" d="M 263 165 20 227"/>
<path stroke-width="1" stroke="black" d="M 263 165 222 20"/>
<path stroke-width="1" stroke="black" d="M 263 165 316 257"/>
<path stroke-width="1" stroke="black" d="M 263 165 24 142"/>
<path stroke-width="1" stroke="black" d="M 263 165 234 320"/>
<path stroke-width="1" stroke="black" d="M 263 165 160 70"/>
<path stroke-width="1" stroke="black" d="M 222 20 369 99"/>
<path stroke-width="1" stroke="black" d="M 222 20 393 237"/>
<path stroke-width="1" stroke="black" d="M 222 20 97 287"/>
<path stroke-width="1" stroke="black" d="M 263 165 174 237"/>
<path stroke-width="1" stroke="black" d="M 222 20 134 157"/>
<path stroke-width="1" stroke="black" d="M 222 20 420 160"/>
<path stroke-width="1" stroke="black" d="M 222 20 174 237"/>
<path stroke-width="1" stroke="black" d="M 222 20 290 78"/>
<path stroke-width="1" stroke="black" d="M 222 20 20 227"/>
<path stroke-width="1" stroke="black" d="M 222 20 263 165"/>
<path stroke-width="1" stroke="black" d="M 222 20 316 257"/>
<path stroke-width="1" stroke="black" d="M 222 20 24 142"/>
<path stroke-width="1" stroke="black" d="M 222 20 234 320"/>
<path stroke-width="1" stroke="black" d="M 222 20 160 70"/>
<path stroke-width="1" stroke="black" d="M 316 257 369 99"/>
<path stroke-width="1" stroke="black" d="M 222 20 28 83"/>
<path stroke-width="1" stroke="black" d="M 316 257 393 237"/>
<path stroke-width="1" stroke="black" d="M 263 165 420 160"/>
<path stroke-width="1" stroke="black" d="M 263 165 134 157"/>
<path stroke-width="1" stroke="black" d="M 290 78 222 20"/>
<path stroke-width="1" stroke="black" d="M 290 78 316 257"/>
<path stroke-width="1" stroke="black" d="M 290 78 24 142"/>
<path stroke-width="1" stroke="black" d="M 290 78 234 320"/>
<path stroke-width="1" stroke="black" d="M 290 78 160 70"/>
<path stroke-width="1" stroke="black" d="M 20 227 369 99"/>
<path stroke-width="1" stroke="black" d="M 20 227 393 237"/>
<path stroke-width="1" stroke="black" d="M 20 227 97 287"/>
<path stroke-width="1" stroke="black" d="M 20 227 134 157"/>
<path stroke-width="1" stroke="black" d="M 20 227 28 83"/>
<path stroke-width="1" stroke="black" d="M 263 165 28 83"/>
<path stroke-width="1" stroke="black" d="M 20 227 420 160"/>
<path stroke-width="1" stroke="black" d="M 20 227 290 78"/>
<path stroke-width="1" stroke="black" d="M 20 227 263 165"/>
<path stroke-width="1" stroke="black" d="M 20 227 222 20"/>
<path stroke-width="1" stroke="black" d="M 20 227 316 257"/>
<path stroke-width="1" stroke="black" d="M 20 227 24 142"/>
<path stroke-width="1" stroke="black" d="M 20 227 234 320"/>
<path stroke-width="1" stroke="black" d="M 20 227 160 70"/>
<path stroke-width="1" stroke="black" d="M 263 165 369 99"/>
<path stroke-width="1" stroke="black" d="M 263 165 393 237"/>
<path stroke-width="1" stroke="black" d="M 263 165 97 287"/>
<path stroke-width="1" stroke="black" d="M 20 227 174 237"/>
<path stroke-width="1" stroke="black" d="M 316 257 97 287"/>
<path stroke-width="1" stroke="black" d="M 316 257 134 157"/>
<path stroke-width="1" stroke="black" d="M 316 257 28 83"/>
<path stroke-width="1" stroke="black" d="M 234 320 28 83"/>
<path stroke-width="1" stroke="black" d="M 234 320 420 160"/>
<path stroke-width="1" stroke="black" d="M 234 320 174 237"/>
<path stroke-width="1" stroke="black" d="M 234 320 290 78"/>
<path stroke-width="1" stroke="black" d="M 234 320 20 227"/>
<path stroke-width="1" stroke="black" d="M 234 320 263 165"/>
<path stroke-width="1" stroke="black" d="M 234 320 222 20"/>
<path stroke-width="1" stroke="black" d="M 234 320 316 257"/>
<path stroke-width="1" stroke="black" d="M 234 320 24 142"/>
<path stroke-width="1" stroke="black" d="M 234 320 160 70"/>
<path stroke-width="1" stroke="black" d="M 234 320 134 157"/>
<path stroke-width="1" stroke="black" d="M 160 70 369 99"/>
<path stroke-width="1" stroke="black" d="M 160 70 97 287"/>
<path stroke-width="1" stroke="black" d="M 160 70 134 157"/>
<path stroke-width="1" stroke="black" d="M 160 70 28 83"/>
<path stroke-width="1" stroke="black" d="M 160 70 420 160"/>
<path stroke-width="1" stroke="black" d="M 160 70 174 237"/>
<path stroke-width="1" stroke="black" d="M 160 70 290 78"/>
<path stroke-width="1" stroke="black" d="M 160 70 20 227"/>
<path stroke-width="1" stroke="black" d="M 160 70 263 165"/>
<path stroke-width="1" stroke="black" d="M 160 70 222 20"/>
<path stroke-width="1" stroke="black" d="M 160 70 316 257"/>
<path stroke-width="1" stroke="black" d="M 160 70 393 237"/>
<path stroke-width="1" stroke="black" d="M 234 320 97 287"/>
<path stroke-width="1" stroke="black" d="M 234 320 393 237"/>
<path stroke-width="1" stroke="black" d="M 234 320 369 99"/>
<path stroke-width="1" stroke="black" d="M 316 257 420 160"/>
<path stroke-width="1" stroke="black" d="M 316 257 174 237"/>
<path stroke-width="1" stroke="black" d="M 316 257 290 78"/>
<path stroke-width="1" stroke="black" d="M 316 257 20 227"/>
<path stroke-width="1" stroke="black" d="M 316 257 263 165"/>
<path stroke-width="1" stroke="black" d="M 316 257 222 20"/>
<path stroke-width="1" stroke="black" d="M 316 257 24 142"/>
<path stroke-width="1" stroke="black" d="M 316 257 234 320"/>
<path stroke-width="1" stroke="black" d="M 316 257 160 70"/>
<path stroke-width="1" stroke="black" d="M 24 142 369 99"/>
<path stroke-width="1" stroke="black" d="M 24 142 393 237"/>
<path stroke-width="1" stroke="black" d="M 24 142 97 287"/>
<path stroke-width="1" stroke="black" d="M 24 142 134 157"/>
<path stroke-width="1" stroke="black" d="M 24 142 28 83"/>
<path stroke-width="1" stroke="black" d="M 24 142 420 160"/>
<path stroke-width="1" stroke="black" d="M 24 142 174 237"/>
<path stroke-width="1" stroke="black" d="M 24 142 290 78"/>
<path stroke-width="1" stroke="black" d="M 24 142 20 227"/>
<path stroke-width="1" stroke="black" d="M 24 142 263 165"/>
<path stroke-width="1" stroke="black" d="M 24 142 222 20"/>
<path stroke-width="1" stroke="black" d="M 24 142 316 257"/>
<path stroke-width="1" stroke="black" d="M 24 142 234 320"/>
<path stroke-width="1" stroke="black" d="M 24 142 160 70"/>
<path stroke-width="1" stroke="black" d="M 290 78 263 165"/>
<path stroke-width="1" stroke="black" d="M 290 78 20 227"/>
<path stroke-width="1" stroke="black" d="M 290 78 174 237"/>
<path stroke-width="1" stroke="black" d="M 290 78 420 160"/>
<path stroke-width="1" stroke="black" d="M 97 287 369 99"/>
<path stroke-width="1" stroke="black" d="M 97 287 393 237"/>
<path stroke-width="1" stroke="black" d="M 97 287 134 157"/>
<path stroke-width="1" stroke="black" d="M 97 287 28 83"/>
<path stroke-width="1" stroke="black" d="M 97 287 420 160"/>
<path stroke-width="1" stroke="black" d="M 97 287 174 237"/>
<path stroke-width="1" stroke="black" d="M 97 287 290 78"/>
<path stroke-width="1" stroke="black" d="M 97 287 20 227"/>
<path stroke-width="1" stroke="black" d="M 97 287 263 165"/>
<path stroke-width="1" stroke="black" d="M 97 287 222 20"/>
<path stroke-width="1" stroke="black" d="M 393 237 160 70"/>
<path stroke-width="1" stroke="black" d="M 97 287 316 257"/>
<path stroke-width="1" stroke="black" d="M 97 287 234 320"/>
<path stroke-width="1" stroke="black" d="M 97 287 160 70"/>
<path stroke-width="1" stroke="black" d="M 134 157 369 99"/>
<path stroke-width="1" stroke="black" d="M 134 157 393 237"/>
<path stroke-width="1" stroke="black" d="M 134 157 97 287"/>
<path stroke-width="1" stroke="black" d="M 134 157 28 83"/>
<path stroke-width="1" stroke="black" d="M 134 157 420 160"/>
<path stroke-width="1" stroke="black" d="M 134 157 174 237"/>
<path stroke-width="1" stroke="black" d="M 134 157 290 78"/>
<path stroke-width="1" stroke="black" d="M 134 157 20 227"/>
<path stroke-width="1" stroke="black" d="M 97 287 24 142"/>
<path stroke-width="1" stroke="black" d="M 393 237 234 320"/>
<path stroke-width="1" stroke="black" d="M 393 237 24 142"/>
<path stroke-width="1" stroke="black" d="M 393 237 316 257"/>
<path stroke-width="1" stroke="black" d="M 369 99 97 287"/>
<path stroke-width="1" stroke="black" d="M 369 99 134 157"/>
<path stroke-width="1" stroke="black" d="M 369 99 28 83"/>
<path stroke-width="1" stroke="black" d="M 369 99 420 160"/>
<path stroke-width="1" stroke="black" d="M 369 99 174 237"/>
<path stroke-width="1" stroke="black" d="M 369 99 290 78"/>
<path stroke-width="1" stroke="black" d="M 369 99 20 227"/>
<path stroke-width="1" stroke="black" d="M 369 99 263 165"/>
<path stroke-width="1" stroke="black" d="M 369 99 222 20"/>
<path stroke-width="1" stroke="black" d="M 369 99 316 257"/>
<path stroke-width="1" stroke="black" d="M 369 99 24 142"/>
<path stroke-width="1" stroke="black" d="M 369 99 234 320"/>
<path stroke-width="1" stroke="black" d="M 369 99 160 70"/>
<path stroke-width="1" stroke="black" d="M 393 237 369 99"/>
<path stroke-width="1" stroke="black" d="M 393 237 97 287"/>
<path stroke-width="1" stroke="black" d="M 393 237 134 157"/>
<path stroke-width="1" stroke="black" d="M 393 237 28 83"/>
<path stroke-width="1" stroke="black" d="M 393 237 420 160"/>
<path stroke-width="1" stroke="black" d="M 393 237 174 237"/>
<path stroke-width="1" stroke="black" d="M 393 237 290 78"/>
<path stroke-width="1" stroke="black" d="M 393 237 20 227"/>
<path stroke-width="1" stroke="black" d="M 393 237 263 165"/>
<path stroke-width="1" stroke="black" d="M 393 237 222 20"/>
<path stroke-width="1" stroke="black" d="M 134 157 263 165"/>
<path stroke-width="1" stroke="black" d="M 160 70 24 142"/>
<path stroke-width="1" stroke="black" d="M 134 157 222 20"/>
<path stroke-width="1" stroke="black" d="M 134 157 24 142"/>
<path stroke-width="1" stroke="black" d="M 420 160 24 142"/>
<path stroke-width="1" stroke="black" d="M 420 160 234 320"/>
<path stroke-width="1" stroke="black" d="M 420 160 160 70"/>
<path stroke-width="1" stroke="black" d="M 174 237 369 99"/>
<path stroke-width="1" stroke="black" d="M 174 237 393 237"/>
<path stroke-width="1" stroke="black" d="M 174 237 97 287"/>
<path stroke-width="1" stroke="black" d="M 174 237 134 157"/>
<path stroke-width="1" stroke="black" d="M 174 237 28 83"/>
<path stroke-width="1" stroke="black" d="M 174 237 420 160"/>
<path stroke-width="1" stroke="black" d="M 174 237 290 78"/>
<path stroke-width="1" stroke="black" d="M 420 160 316 257"/>
<path stroke-width="1" stroke="black" d="M 174 237 20 227"/>
<path stroke-width="1" stroke="black" d="M 174 237 222 20"/>
<path stroke-width="1" stroke="black" d="M 174 237 316 257"/>
<path stroke-width="1" stroke="black" d="M 174 237 24 142"/>
<path stroke-width="1" stroke="black" d="M 174 237 234 320"/>
<path stroke-width="1" stroke="black" d="M 174 237 160 70"/>
<path stroke-width="1" stroke="black" d="M 290 78 369 99"/>
<path stroke-width="1" stroke="black" d="M 290 78 393 237"/>
<path stroke-width="1" stroke="black" d="M 290 78 97 287"/>
<path stroke-width="1" stroke="black" d="M 290 78 134 157"/>
<path stroke-width="1" stroke="black" d="M 290 78 28 83"/>
<path stroke-width="1" stroke="black" d="M 174 237 263 165"/>
<path stroke-width="1" stroke="black" d="M 420 160 222 20"/>
<path stroke-width="1" stroke="black" d="M 420 160 263 165"/>
<path stroke-width="1" stroke="black" d="M 420 160 20 227"/>
<path stroke-width="1" stroke="black" d="M 134 157 234 320"/>
<path stroke-width="1" stroke="black" d="M 134 157 160 70"/>
<path stroke-width="1" stroke="black" d="M 28 83 369 99"/>
<path stroke-width="1" stroke="black" d="M 28 83 393 237"/>
<path stroke-width="1" stroke="black" d="M 28 83 97 287"/>
<path stroke-width="1" stroke="black" d="M 28 83 134 157"/>
<path stroke-width="1" stroke="black" d="M 28 83 420 160"/>
<path stroke-width="1" stroke="black" d="M 28 83 174 237"/>
<path stroke-width="1" stroke="black" d="M 28 83 290 78"/>
<path stroke-width="1" stroke="black" d="M 28 83 20 227"/>
<path stroke-width="1" stroke="black" d="M 28 83 263 165"/>
<path stroke-width="1" stroke="black" d="M 28 83 222 20"/>
<path stroke-width="1" stroke="black" d="M 28 83 316 257"/>
<path stroke-width="1" stroke="black" d="M 28 83 24 142"/>
<path stroke-width="1" stroke="black" d="M 28 83 234 320"/>
<path stroke-width="1" stroke="black" d="M 28 83 160 70"/>
<path stroke-width="1" stroke="black" d="M 420 160 369 99"/>
<path stroke-width="1" stroke="black" d="M 420 160 393 237"/>
<path stroke-width="1" stroke="black" d="M 420 160 97 287"/>
<path stroke-width="1" stroke="black" d="M 420 160 134 157"/>
<path stroke-width="1" stroke="black" d="M 420 160 28 83"/>
<path stroke-width="1" stroke="black" d="M 420 160 174 237"/>
<path stroke-width="1" stroke="black" d="M 420 160 290 78"/>
<path stroke-width="1" stroke="black" d="M 134 157 316 257"/>
<path stroke-width="1" stroke="black" d="M 160 70 234 320"/>
<circle cx="369" cy="99" r="7.0" style="fill:gray;stroke:black;stroke-width:1.0"/>
<circle cx="393" cy="237" r="7.0" style="fill:gray;stroke:black;stroke-width:1.0"/>
<circle cx="97" cy="287" r="7.0" style="fill:gray;stroke:black;stroke-width:1.0"/>
<circle cx="134" cy="157" r="7.0" style="fill:gray;stroke:black;stroke-width:1.0"/>
<circle cx="28" cy="83" r="7.0" style="fill:gray;stroke:black;stroke-width:1.0"/>
<circle cx="420" cy="160" r="7.0" style="fill:gray;stroke:black;stroke-width:1.0"/>
<circle cx="174" cy="237" r="7.0" style="fill:gray;stroke:black;stroke-width:1.0"/>
<circle cx="290" cy="78" r="7.0" style="fill:gray;stroke:black;stroke-width:1.0"/>
<circle cx="20" cy="227" r="7.0" style="fill:gray;stroke:black;stroke-width:1.0"/>
<circle cx="263" cy="165" r="7.0" style="fill:gray;stroke:black;stroke-width:1.0"/>
<circle cx="222" cy="20" r="7.0" style="fill:gray;stroke:black;stroke-width:1.0"/>
<circle cx="316" cy="257" r="7.0" style="fill:gray;stroke:black;stroke-width:1.0"/>
<circle cx="24" cy="142" r="7.0" style="fill:gray;stroke:black;stroke-width:1.0"/>
<circle cx="234" cy="320" r="7.0" style="fill:gray;stroke:black;stroke-width:1.0"/>
<circle cx="160" cy="70" r="7.0" style="fill:gray;stroke:black;stroke-width:1.0"/>
</svg>
