<svg width="440" height="340" xmlns="http://www.w3.org/2000/svg">
<path stroke-width="1" stroke="black" d="M 20 183 420 268"/>
<path stroke-width="1" stroke="black" d="M 97 20 420 268"/>
<path stroke-width="1" stroke="black" d="M 97 20 20 183"/>
<path stroke-width="1" stroke="black" d="M 273 100 97 20"/>
<path stroke-width="1" stroke="black" d="M 273 100 191 320"/>
<path stroke-width="1" stroke="black" d="M 273 100 420 268"/>
<path stroke-width="1" stroke="black" d="M 273 100 20 183"/>
<path stroke-width="1" stroke="black" d="M 191 320 97 20"/>
<path stroke-width="1" stroke="black" d="M 191 320 273 100"/>
<path stroke-width="1" stroke="black" d="M 191 320 420 268"/>
<path stroke-width="1" stroke="black" d="M 191 320 20 183"/>
<path stroke-width="1" stroke="black" d="M 420 268 97 20"/>
<path stroke-width="1" stroke="black" d="M 420 268 273 100"/>
<path stroke-width="1" stroke="black" d="M 420 268 191 320"/>
<path stroke-width="1" stroke="black" d="M 420 268 20 183"/>
<path stroke-width="1" stroke="black" d="M 20 183 97 20"/>
<path stroke-width="1" stroke="black" d="M 20 183 273 100"/>
<path stroke-width="1" stroke="black" d="M 20 183 191 320"/>
<path stroke-width="1" stroke="black" d="M 97 20 191 320"/>
<path stroke-width="1" stroke="black" d="M 97 20 273 100"/>
<circle cx="20" cy="183" r="7.0" style="fill:gray;stroke:black;stroke-width:1.0"/>
<circle cx="420" cy="268" r="7.0" style="fill:gray;stroke:black;stroke-width:1.0"/>
<circle cx="191" cy="320" r="7.0" style="fill:gray;stroke:black;stroke-width:1.0"/>
<circle cx="273" cy="100" r="7.0" style="fill:gray;stroke:black;stroke-width:1.0"/>
<circle cx="97" cy="20" r="7.0" style="fill:gray;stroke:black;stroke-width:1.0"/>
</svg>
