<svg width="440" height="340" xmlns="http://www.w3.org/2000/svg">
<path stroke-width="1" stroke="black" d="M 20 184 181 20"/>
<path stroke-width="1" stroke="black" d="M 420 170 181 20"/>
<path stroke-width="1" stroke="black" d="M 420 170 20 184"/>
<path stroke-width="1" stroke="black" d="M 232 320 420 170"/>
<path stroke-width="1" stroke="black" d="M 232 320 202 181"/>
<path stroke-width="1" stroke="black" d="M 232 320 181 20"/>
<path stroke-width="1" stroke="black" d="M 232 320 20 184"/>
<path stroke-width="1" stroke="black" d="M 202 181 420 170"/>
<path stroke-width="1" stroke="black" d="M 202 181 232 320"/>
<path stroke-width="1" stroke="black" d="M 202 181 181 20"/>
<path stroke-width="1" stroke="black" d="M 202 181 20 184"/>
<path stroke-width="1" stroke="black" d="M 181 20 420 170"/>
<path stroke-width="1" stroke="black" d="M 181 20 232 320"/>
<path stroke-width="1" stroke="black" d="M 181 20 202 181"/>
<path stroke-width="1" stroke="black" d="M 181 20 20 184"/>
<path stroke-width="1" stroke="black" d="M 20 184 420 170"/>
<path stroke-width="1" stroke="black" d="M 20 184 232 320"/>
<path stroke-width="1" stroke="black" d="M 20 184 202 181"/>
<path stroke-width="1" stroke="black" d="M 420 170 202 181"/>
<path stroke-width="1" stroke="black" d="M 420 170 232 320"/>
<circle cx="20" cy="184" r="20.0" style="fill:gray;stroke:black;stroke-width:1.0"/>
<circle cx="181" cy="20" r="20.0" style="fill:gray;stroke:black;stroke-width:1.0"/>
<circle cx="202" cy="181" r="20.0" style="fill:gray;stroke:black;stroke-width:1.0"/>
<circle cx="232" cy="320" r="20.0" style="fill:gray;stroke:black;stroke-width:1.0"/>
<circle cx="420" cy="170" r="20.0" style="fill:gray;stroke:black;stroke-width:1.0"/>
</svg>
