<svg width="440" height="340" xmlns="http://www.w3.org/2000/svg">
<path stroke-width="0.5" stroke="black" d="M 294 20 20 57"/>
<path stroke-width="0.5" stroke="black" d="M 36 320 20 57"/>
<path stroke-width="0.5" stroke="black" d="M 36 320 294 20"/>
<path stroke-width="0.5" stroke="black" d="M 420 225 36 320"/>
<path stroke-width="20.0" stroke="black" d="M 420 225 197 209"/>
<path stroke-width="0.5" stroke="black" d="M 420 225 20 57"/>
<path stroke-width="0.5" stroke="black" d="M 420 225 294 20"/>
<path stroke-width="20.0" stroke="black" d="M 197 209 36 320"/>
<path stroke-width="20.0" stroke="black" d="M 197 209 420 225"/>
<path stroke-width="20.0" stroke="black" d="M 197 209 20 57"/>
<path stroke-width="20.0" stroke="black" d="M 197 209 294 20"/>
<path stroke-width="0.5" stroke="black" d="M 20 57 36 320"/>
<path stroke-width="0.5" stroke="black" d="M 20 57 420 225"/>
<path stroke-width="20.0" stroke="black" d="M 20 57 197 209"/>
<path stroke-width="0.5" stroke="black" d="M 20 57 294 20"/>
<path stroke-width="0.5" stroke="black" d="M 294 20 36 320"/>
<path stroke-width="0.5" stroke="black" d="M 294 20 420 225"/>
<path stroke-width="20.0" stroke="black" d="M 294 20 197 209"/>
<path stroke-width="20.0" stroke="black" d="M 36 320 197 209"/>
<path stroke-width="0.5" stroke="black" d="M 36 320 420 225"/>
<circle cx="294" cy="20" r="20.0" style="fill:gray;stroke:black;stroke-width:1.0"/>
<circle cx="20" cy="57" r="20.0" style="fill:gray;stroke:black;stroke-width:1.0"/>
<circle cx="197" cy="209" r="20.0" style="fill:gray;stroke:black;stroke-width:1.0"/>
<circle cx="420" cy="225" r="20.0" style="fill:gray;stroke:black;stroke-width:1.0"/>
<circle cx="36" cy="320" r="20.0" style="fill:gray;stroke:black;stroke-width:1.0"/>
</svg>
