<svg width="440" height="340" xmlns="http://www.w3.org/2000/svg">
<path stroke-width="20.0" stroke="black" d="M 170 148 88 152"/>
<path stroke-width="0.5" stroke="black" d="M 20 220 52 78"/>
<path stroke-width="8.3" stroke="black" d="M 190 320 170 148"/>
<path stroke-width="0.5" stroke="black" d="M 190 320 88 152"/>
<path stroke-width="0.5" stroke="black" d="M 190 320 324 307"/>
<path stroke-width="0.5" stroke="black" d="M 190 320 130 20"/>
<path stroke-width="0.5" stroke="black" d="M 190 320 331 100"/>
<path stroke-width="0.5" stroke="black" d="M 190 320 220 37"/>
<path stroke-width="12.2" stroke="black" d="M 190 320 314 215"/>
<path stroke-width="0.5" stroke="black" d="M 20 220 420 185"/>
<path stroke-width="0.5" stroke="black" d="M 190 320 89 293"/>
<path stroke-width="0.5" stroke="black" d="M 190 320 225 228"/>
<path stroke-width="0.5" stroke="black" d="M 190 320 324 29"/>
<path stroke-width="0.5" stroke="black" d="M 190 320 420 185"/>
<path stroke-width="0.5" stroke="black" d="M 190 320 52 78"/>
<path stroke-width="8.3" stroke="black" d="M 225 228 170 148"/>
<path stroke-width="0.5" stroke="black" d="M 225 228 88 152"/>
<path stroke-width="0.5" stroke="black" d="M 225 228 324 307"/>
<path stroke-width="0.5" stroke="black" d="M 225 228 130 20"/>
<path stroke-width="0.5" stroke="black" d="M 190 320 20 220"/>
<path stroke-width="0.5" stroke="black" d="M 20 220 324 29"/>
<path stroke-width="0.5" stroke="black" d="M 20 220 225 228"/>
<path stroke-width="0.5" stroke="black" d="M 20 220 190 320"/>
<path stroke-width="0.5" stroke="black" d="M 89 293 324 307"/>
<path stroke-width="0.5" stroke="black" d="M 89 293 130 20"/>
<path stroke-width="0.5" stroke="black" d="M 89 293 331 100"/>
<path stroke-width="0.5" stroke="black" d="M 89 293 220 37"/>
<path stroke-width="0.5" stroke="black" d="M 89 293 314 215"/>
<path stroke-width="12.2" stroke="black" d="M 89 293 20 220"/>
<path stroke-width="0.5" stroke="black" d="M 89 293 190 320"/>
<path stroke-width="0.5" stroke="black" d="M 89 293 225 228"/>
<path stroke-width="0.5" stroke="black" d="M 89 293 324 29"/>
<path stroke-width="0.5" stroke="black" d="M 89 293 420 185"/>
<path stroke-width="0.5" stroke="black" d="M 89 293 52 78"/>
<path stroke-width="8.3" stroke="black" d="M 20 220 170 148"/>
<path stroke-width="0.5" stroke="black" d="M 20 220 88 152"/>
<path stroke-width="0.5" stroke="black" d="M 20 220 324 307"/>
<path stroke-width="0.5" stroke="black" d="M 20 220 130 20"/>
<path stroke-width="0.5" stroke="black" d="M 20 220 331 100"/>
<path stroke-width="0.5" stroke="black" d="M 20 220 220 37"/>
<path stroke-width="0.5" stroke="black" d="M 20 220 314 215"/>
<path stroke-width="12.2" stroke="black" d="M 20 220 89 293"/>
<path stroke-width="0.5" stroke="black" d="M 225 228 331 100"/>
<path stroke-width="12.2" stroke="black" d="M 225 228 220 37"/>
<path stroke-width="0.5" stroke="black" d="M 225 228 314 215"/>
<path stroke-width="0.5" stroke="black" d="M 225 228 89 293"/>
<path stroke-width="0.5" stroke="black" d="M 420 185 220 37"/>
<path stroke-width="0.5" stroke="black" d="M 420 185 314 215"/>
<path stroke-width="0.5" stroke="black" d="M 420 185 89 293"/>
<path stroke-width="0.5" stroke="black" d="M 420 185 20 220"/>
<path stroke-width="0.5" stroke="black" d="M 420 185 190 320"/>
<path stroke-width="0.5" stroke="black" d="M 420 185 225 228"/>
<path stroke-width="0.5" stroke="black" d="M 420 185 324 29"/>
<path stroke-width="0.5" stroke="black" d="M 420 185 52 78"/>
<path stroke-width="8.3" stroke="black" d="M 52 78 170 148"/>
<path stroke-width="0.5" stroke="black" d="M 52 78 88 152"/>
<path stroke-width="0.5" stroke="black" d="M 52 78 324 307"/>
<path stroke-width="12.2" stroke="black" d="M 52 78 130 20"/>
<path stroke-width="0.5" stroke="black" d="M 52 78 331 100"/>
<path stroke-width="0.5" stroke="black" d="M 52 78 220 37"/>
<path stroke-width="0.5" stroke="black" d="M 52 78 314 215"/>
<path stroke-width="0.5" stroke="black" d="M 52 78 89 293"/>
<path stroke-width="0.5" stroke="black" d="M 52 78 20 220"/>
<path stroke-width="0.5" stroke="black" d="M 52 78 190 320"/>
<path stroke-width="0.5" stroke="black" d="M 52 78 225 228"/>
<path stroke-width="0.5" stroke="black" d="M 420 185 331 100"/>
<path stroke-width="0.5" stroke="black" d="M 89 293 88 152"/>
<path stroke-width="0.5" stroke="black" d="M 420 185 130 20"/>
<path stroke-width="0.5" stroke="black" d="M 420 185 88 152"/>
<path stroke-width="0.5" stroke="black" d="M 225 228 20 220"/>
<path stroke-width="0.5" stroke="black" d="M 225 228 190 320"/>
<path stroke-width="0.5" stroke="black" d="M 225 228 324 29"/>
<path stroke-width="0.5" stroke="black" d="M 225 228 420 185"/>
<path stroke-width="0.5" stroke="black" d="M 225 228 52 78"/>
<path stroke-width="8.3" stroke="black" d="M 324 29 170 148"/>
<path stroke-width="0.5" stroke="black" d="M 324 29 88 152"/>
<path stroke-width="0.5" stroke="black" d="M 324 29 324 307"/>
<path stroke-width="0.5" stroke="black" d="M 324 29 130 20"/>
<path stroke-width="12.2" stroke="black" d="M 324 29 331 100"/>
<path stroke-width="0.5" stroke="black" d="M 324 29 220 37"/>
<path stroke-width="0.5" stroke="black" d="M 324 29 314 215"/>
<path stroke-width="0.5" stroke="black" d="M 324 29 89 293"/>
<path stroke-width="0.5" stroke="black" d="M 324 29 20 220"/>
<path stroke-width="0.5" stroke="black" d="M 324 29 190 320"/>
<path stroke-width="0.5" stroke="black" d="M 324 29 225 228"/>
<path stroke-width="0.5" stroke="black" d="M 324 29 420 185"/>
<path stroke-width="0.5" stroke="black" d="M 324 29 52 78"/>
<path stroke-width="8.3" stroke="black" d="M 420 185 170 148"/>
<path stroke-width="12.2" stroke="black" d="M 420 185 324 307"/>
<path stroke-width="8.3" stroke="black" d="M 89 293 170 148"/>
<path stroke-width="0.5" stroke="black" d="M 314 215 52 78"/>
<path stroke-width="0.5" stroke="black" d="M 314 215 420 185"/>
<path stroke-width="0.5" stroke="black" d="M 88 152 420 185"/>
<path stroke-width="0.5" stroke="black" d="M 88 152 52 78"/>
<path stroke-width="8.3" stroke="black" d="M 324 307 170 148"/>
<path stroke-width="0.5" stroke="black" d="M 324 307 88 152"/>
<path stroke-width="0.5" stroke="black" d="M 324 307 130 20"/>
<path stroke-width="0.5" stroke="black" d="M 324 307 331 100"/>
<path stroke-width="0.5" stroke="black" d="M 324 307 220 37"/>
<path stroke-width="0.5" stroke="black" d="M 324 307 314 215"/>
<path stroke-width="0.5" stroke="black" d="M 324 307 89 293"/>
<path stroke-width="0.5" stroke="black" d="M 324 307 20 220"/>
<path stroke-width="0.5" stroke="black" d="M 324 307 190 320"/>
<path stroke-width="0.5" stroke="black" d="M 324 307 225 228"/>
<path stroke-width="0.5" stroke="black" d="M 324 307 324 29"/>
<path stroke-width="12.2" stroke="black" d="M 324 307 420 185"/>
<path stroke-width="0.5" stroke="black" d="M 324 307 52 78"/>
<path stroke-width="8.3" stroke="black" d="M 130 20 170 148"/>
<path stroke-width="0.5" stroke="black" d="M 130 20 88 152"/>
<path stroke-width="0.5" stroke="black" d="M 130 20 324 307"/>
<path stroke-width="0.5" stroke="black" d="M 130 20 331 100"/>
<path stroke-width="0.5" stroke="black" d="M 88 152 324 29"/>
<path stroke-width="0.5" stroke="black" d="M 130 20 220 37"/>
<path stroke-width="0.5" stroke="black" d="M 88 152 225 228"/>
<path stroke-width="0.5" stroke="black" d="M 88 152 20 220"/>
<path stroke-width="8.3" stroke="black" d="M 170 148 324 307"/>
<path stroke-width="8.3" stroke="black" d="M 170 148 130 20"/>
<path stroke-width="8.3" stroke="black" d="M 170 148 331 100"/>
<path stroke-width="8.3" stroke="black" d="M 170 148 220 37"/>
<path stroke-width="8.3" stroke="black" d="M 170 148 314 215"/>
<path stroke-width="8.3" stroke="black" d="M 170 148 89 293"/>
<path stroke-width="8.3" stroke="black" d="M 170 148 20 220"/>
<path stroke-width="8.3" stroke="black" d="M 170 148 190 320"/>
<path stroke-width="8.3" stroke="black" d="M 170 148 225 228"/>
<path stroke-width="8.3" stroke="black" d="M 170 148 324 29"/>
<path stroke-width="8.3" stroke="black" d="M 170 148 420 185"/>
<path stroke-width="8.3" stroke="black" d="M 170 148 52 78"/>
<path stroke-width="20.0" stroke="black" d="M 88 152 170 148"/>
<path stroke-width="0.5" stroke="black" d="M 88 152 324 307"/>
<path stroke-width="0.5" stroke="black" d="M 88 152 130 20"/>
<path stroke-width="0.5" stroke="black" d="M 88 152 331 100"/>
<path stroke-width="0.5" stroke="black" d="M 88 152 220 37"/>
<path stroke-width="0.5" stroke="black" d="M 88 152 314 215"/>
<path stroke-width="0.5" stroke="black" d="M 88 152 89 293"/>
<path stroke-width="0.5" stroke="black" d="M 88 152 190 320"/>
<path stroke-width="0.5" stroke="black" d="M 52 78 324 29"/>
<path stroke-width="0.5" stroke="black" d="M 130 20 314 215"/>
<path stroke-width="0.5" stroke="black" d="M 130 20 20 220"/>
<path stroke-width="0.5" stroke="black" d="M 220 37 314 215"/>
<path stroke-width="0.5" stroke="black" d="M 220 37 89 293"/>
<path stroke-width="0.5" stroke="black" d="M 220 37 20 220"/>
<path stroke-width="0.5" stroke="black" d="M 220 37 190 320"/>
<path stroke-width="12.2" stroke="black" d="M 220 37 225 228"/>
<path stroke-width="0.5" stroke="black" d="M 220 37 324 29"/>
<path stroke-width="0.5" stroke="black" d="M 220 37 420 185"/>
<path stroke-width="0.5" stroke="black" d="M 220 37 52 78"/>
<path stroke-width="8.3" stroke="black" d="M 314 215 170 148"/>
<path stroke-width="0.5" stroke="black" d="M 314 215 88 152"/>
<path stroke-width="0.5" stroke="black" d="M 314 215 324 307"/>
<path stroke-width="0.5" stroke="black" d="M 314 215 130 20"/>
<path stroke-width="0.5" stroke="black" d="M 314 215 331 100"/>
<path stroke-width="0.5" stroke="black" d="M 314 215 220 37"/>
<path stroke-width="0.5" stroke="black" d="M 314 215 89 293"/>
<path stroke-width="0.5" stroke="black" d="M 314 215 20 220"/>
<path stroke-width="12.2" stroke="black" d="M 314 215 190 320"/>
<path stroke-width="0.5" stroke="black" d="M 314 215 225 228"/>
<path stroke-width="0.5" stroke="black" d="M 314 215 324 29"/>
<path stroke-width="0.5" stroke="black" d="M 220 37 331 100"/>
<path stroke-width="0.5" stroke="black" d="M 130 20 89 293"/>
<path stroke-width="0.5" stroke="black" d="M 220 37 130 20"/>
<path stroke-width="0.5" stroke="black" d="M 220 37 88 152"/>
<path stroke-width="0.5" stroke="black" d="M 130 20 190 320"/>
<path stroke-width="0.5" stroke="black" d="M 130 20 225 228"/>
<path stroke-width="0.5" stroke="black" d="M 130 20 324 29"/>
<path stroke-width="0.5" stroke="black" d="M 130 20 420 185"/>
<path stroke-width="12.2" stroke="black" d="M 130 20 52 78"/>
<path stroke-width="8.3" stroke="black" d="M 331 100 170 148"/>
<path stroke-width="0.5" stroke="black" d="M 331 100 88 152"/>
<path stroke-width="0.5" stroke="black" d="M 331 100 324 307"/>
<path stroke-width="0.5" stroke="black" d="M 331 100 130 20"/>
<path stroke-width="0.5" stroke="black" d="M 331 100 220 37"/>
<path stroke-width="0.5" stroke="black" d="M 331 100 314 215"/>
<path stroke-width="0.5" stroke="black" d="M 331 100 89 293"/>
<path stroke-width="0.5" stroke="black" d="M 331 100 20 220"/>
<path stroke-width="0.5" stroke="black" d="M 331 100 190 320"/>
<path stroke-width="0.5" stroke="black" d="M 331 100 225 228"/>
<path stroke-width="12.2" stroke="black" d="M 331 100 324 29"/>
<path stroke-width="0.5" stroke="black" d="M 331 100 420 185"/>
<path stroke-width="0.5" stroke="black" d="M 331 100 52 78"/>
<path stroke-width="8.3" stroke="black" d="M 220 37 170 148"/>
<path stroke-width="0.5" stroke="black" d="M 220 37 324 307"/>
<path stroke-width="0.5" stroke="black" d="M 52 78 420 185"/>
<circle cx="170" cy="148" r="7.0" style="fill:gray;stroke:black;stroke-width:1.0"/>
<circle cx="88" cy="152" r="7.0" style="fill:gray;stroke:black;stroke-width:1.0"/>
<circle cx="324" cy="307" r="7.0" style="fill:gray;stroke:black;stroke-width:1.0"/>
<circle cx="130" cy="20" r="7.0" style="fill:gray;stroke:black;stroke-width:1.0"/>
<circle cx="331" cy="100" r="7.0" style="fill:gray;stroke:black;stroke-width:1.0"/>
<circle cx="220" cy="37" r="7.0" style="fill:gray;stroke:black;stroke-width:1.0"/>
<circle cx="314" cy="215" r="7.0" style="fill:gray;stroke:black;stroke-width:1.0"/>
<circle cx="89" cy="293" r="7.0" style="fill:gray;stroke:black;stroke-width:1.0"/>
<circle cx="20" cy="220" r="7.0" style="fill:gray;stroke:black;stroke-width:1.0"/>
<circle cx="190" cy="320" r="7.0" style="fill:gray;stroke:black;stroke-width:1.0"/>
<circle cx="225" cy="228" r="7.0" style="fill:gray;stroke:black;stroke-width:1.0"/>
<circle cx="324" cy="29" r="7.0" style="fill:gray;stroke:black;stroke-width:1.0"/>
<circle cx="420" cy="185" r="7.0" style="fill:gray;stroke:black;stroke-width:1.0"/>
<circle cx="52" cy="78" r="7.0" style="fill:gray;stroke:black;stroke-width:1.0"/>
</svg>
