<svg width="440" height="340" xmlns="http://www.w3.org/2000/svg">
<path stroke-width="20.0" stroke="black" d="M 192 187 20 162"/>
<path stroke-width="0.5" stroke="black" d="M 122 306 226 320"/>
<path stroke-width="8.3" stroke="black" d="M 379 63 192 187"/>
<path stroke-width="0.5" stroke="black" d="M 379 63 20 162"/>
<path stroke-width="0.5" stroke="black" d="M 379 63 64 56"/>
<path stroke-width="0.5" stroke="black" d="M 379 63 310 304"/>
<path stroke-width="0.5" stroke="black" d="M 379 63 311 144"/>
<path stroke-width="0.5" stroke="black" d="M 379 63 373 249"/>
<path stroke-width="12.2" stroke="black" d="M 379 63 186 20"/>
<path stroke-width="0.5" stroke="black" d="M 122 306 147 113"/>
<path stroke-width="0.5" stroke="black" d="M 379 63 44 246"/>
<path stroke-width="0.5" stroke="black" d="M 379 63 420 166"/>
<path stroke-width="0.5" stroke="black" d="M 379 63 285 30"/>
<path stroke-width="0.5" stroke="black" d="M 379 63 147 113"/>
<path stroke-width="0.5" stroke="black" d="M 379 63 226 320"/>
<path stroke-width="8.3" stroke="black" d="M 420 166 192 187"/>
<path stroke-width="0.5" stroke="black" d="M 420 166 20 162"/>
<path stroke-width="0.5" stroke="black" d="M 420 166 64 56"/>
<path stroke-width="0.5" stroke="black" d="M 420 166 310 304"/>
<path stroke-width="0.5" stroke="black" d="M 379 63 122 306"/>
<path stroke-width="0.5" stroke="black" d="M 122 306 285 30"/>
<path stroke-width="0.5" stroke="black" d="M 122 306 420 166"/>
<path stroke-width="0.5" stroke="black" d="M 122 306 379 63"/>
<path stroke-width="0.5" stroke="black" d="M 44 246 64 56"/>
<path stroke-width="0.5" stroke="black" d="M 44 246 310 304"/>
<path stroke-width="0.5" stroke="black" d="M 44 246 311 144"/>
<path stroke-width="0.5" stroke="black" d="M 44 246 373 249"/>
<path stroke-width="0.5" stroke="black" d="M 44 246 186 20"/>
<path stroke-width="12.2" stroke="black" d="M 44 246 122 306"/>
<path stroke-width="0.5" stroke="black" d="M 44 246 379 63"/>
<path stroke-width="0.5" stroke="black" d="M 44 246 420 166"/>
<path stroke-width="0.5" stroke="black" d="M 44 246 285 30"/>
<path stroke-width="0.5" stroke="black" d="M 44 246 147 113"/>
<path stroke-width="0.5" stroke="black" d="M 44 246 226 320"/>
<path stroke-width="8.3" stroke="black" d="M 122 306 192 187"/>
<path stroke-width="0.5" stroke="black" d="M 122 306 20 162"/>
<path stroke-width="0.5" stroke="black" d="M 122 306 64 56"/>
<path stroke-width="0.5" stroke="black" d="M 122 306 310 304"/>
<path stroke-width="0.5" stroke="black" d="M 122 306 311 144"/>
<path stroke-width="0.5" stroke="black" d="M 122 306 373 249"/>
<path stroke-width="0.5" stroke="black" d="M 122 306 186 20"/>
<path stroke-width="12.2" stroke="black" d="M 122 306 44 246"/>
<path stroke-width="0.5" stroke="black" d="M 420 166 311 144"/>
<path stroke-width="12.2" stroke="black" d="M 420 166 373 249"/>
<path stroke-width="0.5" stroke="black" d="M 420 166 186 20"/>
<path stroke-width="0.5" stroke="black" d="M 420 166 44 246"/>
<path stroke-width="0.5" stroke="black" d="M 147 113 373 249"/>
<path stroke-width="0.5" stroke="black" d="M 147 113 186 20"/>
<path stroke-width="0.5" stroke="black" d="M 147 113 44 246"/>
<path stroke-width="0.5" stroke="black" d="M 147 113 122 306"/>
<path stroke-width="0.5" stroke="black" d="M 147 113 379 63"/>
<path stroke-width="0.5" stroke="black" d="M 147 113 420 166"/>
<path stroke-width="0.5" stroke="black" d="M 147 113 285 30"/>
<path stroke-width="0.5" stroke="black" d="M 147 113 226 320"/>
<path stroke-width="8.3" stroke="black" d="M 226 320 192 187"/>
<path stroke-width="0.5" stroke="black" d="M 226 320 20 162"/>
<path stroke-width="0.5" stroke="black" d="M 226 320 64 56"/>
<path stroke-width="12.2" stroke="black" d="M 226 320 310 304"/>
<path stroke-width="0.5" stroke="black" d="M 226 320 311 144"/>
<path stroke-width="0.5" stroke="black" d="M 226 320 373 249"/>
<path stroke-width="0.5" stroke="black" d="M 226 320 186 20"/>
<path stroke-width="0.5" stroke="black" d="M 226 320 44 246"/>
<path stroke-width="0.5" stroke="black" d="M 226 320 122 306"/>
<path stroke-width="0.5" stroke="black" d="M 226 320 379 63"/>
<path stroke-width="0.5" stroke="black" d="M 226 320 420 166"/>
<path stroke-width="0.5" stroke="black" d="M 147 113 311 144"/>
<path stroke-width="0.5" stroke="black" d="M 44 246 20 162"/>
<path stroke-width="0.5" stroke="black" d="M 147 113 310 304"/>
<path stroke-width="0.5" stroke="black" d="M 147 113 20 162"/>
<path stroke-width="0.5" stroke="black" d="M 420 166 122 306"/>
<path stroke-width="0.5" stroke="black" d="M 420 166 379 63"/>
<path stroke-width="0.5" stroke="black" d="M 420 166 285 30"/>
<path stroke-width="0.5" stroke="black" d="M 420 166 147 113"/>
<path stroke-width="0.5" stroke="black" d="M 420 166 226 320"/>
<path stroke-width="8.3" stroke="black" d="M 285 30 192 187"/>
<path stroke-width="0.5" stroke="black" d="M 285 30 20 162"/>
<path stroke-width="0.5" stroke="black" d="M 285 30 64 56"/>
<path stroke-width="0.5" stroke="black" d="M 285 30 310 304"/>
<path stroke-width="12.2" stroke="black" d="M 285 30 311 144"/>
<path stroke-width="0.5" stroke="black" d="M 285 30 373 249"/>
<path stroke-width="0.5" stroke="black" d="M 285 30 186 20"/>
<path stroke-width="0.5" stroke="black" d="M 285 30 44 246"/>
<path stroke-width="0.5" stroke="black" d="M 285 30 122 306"/>
<path stroke-width="0.5" stroke="black" d="M 285 30 379 63"/>
<path stroke-width="0.5" stroke="black" d="M 285 30 420 166"/>
<path stroke-width="0.5" stroke="black" d="M 285 30 147 113"/>
<path stroke-width="0.5" stroke="black" d="M 285 30 226 320"/>
<path stroke-width="8.3" stroke="black" d="M 147 113 192 187"/>
<path stroke-width="12.2" stroke="black" d="M 147 113 64 56"/>
<path stroke-width="8.3" stroke="black" d="M 44 246 192 187"/>
<path stroke-width="0.5" stroke="black" d="M 186 20 226 320"/>
<path stroke-width="0.5" stroke="black" d="M 186 20 147 113"/>
<path stroke-width="0.5" stroke="black" d="M 20 162 147 113"/>
<path stroke-width="0.5" stroke="black" d="M 20 162 226 320"/>
<path stroke-width="8.3" stroke="black" d="M 64 56 192 187"/>
<path stroke-width="0.5" stroke="black" d="M 64 56 20 162"/>
<path stroke-width="0.5" stroke="black" d="M 64 56 310 304"/>
<path stroke-width="0.5" stroke="black" d="M 64 56 311 144"/>
<path stroke-width="0.5" stroke="black" d="M 64 56 373 249"/>
<path stroke-width="0.5" stroke="black" d="M 64 56 186 20"/>
<path stroke-width="0.5" stroke="black" d="M 64 56 44 246"/>
<path stroke-width="0.5" stroke="black" d="M 64 56 122 306"/>
<path stroke-width="0.5" stroke="black" d="M 64 56 379 63"/>
<path stroke-width="0.5" stroke="black" d="M 64 56 420 166"/>
<path stroke-width="0.5" stroke="black" d="M 64 56 285 30"/>
<path stroke-width="12.2" stroke="black" d="M 64 56 147 113"/>
<path stroke-width="0.5" stroke="black" d="M 64 56 226 320"/>
<path stroke-width="8.3" stroke="black" d="M 310 304 192 187"/>
<path stroke-width="0.5" stroke="black" d="M 310 304 20 162"/>
<path stroke-width="0.5" stroke="black" d="M 310 304 64 56"/>
<path stroke-width="0.5" stroke="black" d="M 310 304 311 144"/>
<path stroke-width="0.5" stroke="black" d="M 20 162 285 30"/>
<path stroke-width="0.5" stroke="black" d="M 310 304 373 249"/>
<path stroke-width="0.5" stroke="black" d="M 20 162 420 166"/>
<path stroke-width="0.5" stroke="black" d="M 20 162 122 306"/>
<path stroke-width="8.3" stroke="black" d="M 192 187 64 56"/>
<path stroke-width="8.3" stroke="black" d="M 192 187 310 304"/>
<path stroke-width="8.3" stroke="black" d="M 192 187 311 144"/>
<path stroke-width="8.3" stroke="black" d="M 192 187 373 249"/>
<path stroke-width="8.3" stroke="black" d="M 192 187 186 20"/>
<path stroke-width="8.3" stroke="black" d="M 192 187 44 246"/>
<path stroke-width="8.3" stroke="black" d="M 192 187 122 306"/>
<path stroke-width="8.3" stroke="black" d="M 192 187 379 63"/>
<path stroke-width="8.3" stroke="black" d="M 192 187 420 166"/>
<path stroke-width="8.3" stroke="black" d="M 192 187 285 30"/>
<path stroke-width="8.3" stroke="black" d="M 192 187 147 113"/>
<path stroke-width="8.3" stroke="black" d="M 192 187 226 320"/>
<path stroke-width="20.0" stroke="black" d="M 20 162 192 187"/>
<path stroke-width="0.5" stroke="black" d="M 20 162 64 56"/>
<path stroke-width="0.5" stroke="black" d="M 20 162 310 304"/>
<path stroke-width="0.5" stroke="black" d="M 20 162 311 144"/>
<path stroke-width="0.5" stroke="black" d="M 20 162 373 249"/>
<path stroke-width="0.5" stroke="black" d="M 20 162 186 20"/>
<path stroke-width="0.5" stroke="black" d="M 20 162 44 246"/>
<path stroke-width="0.5" stroke="black" d="M 20 162 379 63"/>
<path stroke-width="0.5" stroke="black" d="M 226 320 285 30"/>
<path stroke-width="0.5" stroke="black" d="M 310 304 186 20"/>
<path stroke-width="0.5" stroke="black" d="M 310 304 122 306"/>
<path stroke-width="0.5" stroke="black" d="M 373 249 186 20"/>
<path stroke-width="0.5" stroke="black" d="M 373 249 44 246"/>
<path stroke-width="0.5" stroke="black" d="M 373 249 122 306"/>
<path stroke-width="0.5" stroke="black" d="M 373 249 379 63"/>
<path stroke-width="12.2" stroke="black" d="M 373 249 420 166"/>
<path stroke-width="0.5" stroke="black" d="M 373 249 285 30"/>
<path stroke-width="0.5" stroke="black" d="M 373 249 147 113"/>
<path stroke-width="0.5" stroke="black" d="M 373 249 226 320"/>
<path stroke-width="8.3" stroke="black" d="M 186 20 192 187"/>
<path stroke-width="0.5" stroke="black" d="M 186 20 20 162"/>
<path stroke-width="0.5" stroke="black" d="M 186 20 64 56"/>
<path stroke-width="0.5" stroke="black" d="M 186 20 310 304"/>
<path stroke-width="0.5" stroke="black" d="M 186 20 311 144"/>
<path stroke-width="0.5" stroke="black" d="M 186 20 373 249"/>
<path stroke-width="0.5" stroke="black" d="M 186 20 44 246"/>
<path stroke-width="0.5" stroke="black" d="M 186 20 122 306"/>
<path stroke-width="12.2" stroke="black" d="M 186 20 379 63"/>
<path stroke-width="0.5" stroke="black" d="M 186 20 420 166"/>
<path stroke-width="0.5" stroke="black" d="M 186 20 285 30"/>
<path stroke-width="0.5" stroke="black" d="M 373 249 311 144"/>
<path stroke-width="0.5" stroke="black" d="M 310 304 44 246"/>
<path stroke-width="0.5" stroke="black" d="M 373 249 310 304"/>
<path stroke-width="0.5" stroke="black" d="M 373 249 20 162"/>
<path stroke-width="0.5" stroke="black" d="M 310 304 379 63"/>
<path stroke-width="0.5" stroke="black" d="M 310 304 420 166"/>
<path stroke-width="0.5" stroke="black" d="M 310 304 285 30"/>
<path stroke-width="0.5" stroke="black" d="M 310 304 147 113"/>
<path stroke-width="12.2" stroke="black" d="M 310 304 226 320"/>
<path stroke-width="8.3" stroke="black" d="M 311 144 192 187"/>
<path stroke-width="0.5" stroke="black" d="M 311 144 20 162"/>
<path stroke-width="0.5" stroke="black" d="M 311 144 64 56"/>
<path stroke-width="0.5" stroke="black" d="M 311 144 310 304"/>
<path stroke-width="0.5" stroke="black" d="M 311 144 373 249"/>
<path stroke-width="0.5" stroke="black" d="M 311 144 186 20"/>
<path stroke-width="0.5" stroke="black" d="M 311 144 44 246"/>
<path stroke-width="0.5" stroke="black" d="M 311 144 122 306"/>
<path stroke-width="0.5" stroke="black" d="M 311 144 379 63"/>
<path stroke-width="0.5" stroke="black" d="M 311 144 420 166"/>
<path stroke-width="12.2" stroke="black" d="M 311 144 285 30"/>
<path stroke-width="0.5" stroke="black" d="M 311 144 147 113"/>
<path stroke-width="0.5" stroke="black" d="M 311 144 226 320"/>
<path stroke-width="8.3" stroke="black" d="M 373 249 192 187"/>
<path stroke-width="0.5" stroke="black" d="M 373 249 64 56"/>
<path stroke-width="0.5" stroke="black" d="M 226 320 147 113"/>
<circle cx="192" cy="187" r="7.0" style="fill:gray;stroke:black;stroke-width:1.0"/>
<circle cx="20" cy="162" r="7.0" style="fill:gray;stroke:black;stroke-width:1.0"/>
<circle cx="64" cy="56" r="7.0" style="fill:gray;stroke:black;stroke-width:1.0"/>
<circle cx="310" cy="304" r="7.0" style="fill:gray;stroke:black;stroke-width:1.0"/>
<circle cx="311" cy="144" r="7.0" style="fill:gray;stroke:black;stroke-width:1.0"/>
<circle cx="373" cy="249" r="7.0" style="fill:gray;stroke:black;stroke-width:1.0"/>
<circle cx="186" cy="20" r="7.0" style="fill:gray;stroke:black;stroke-width:1.0"/>
<circle cx="44" cy="246" r="7.0" style="fill:gray;stroke:black;stroke-width:1.0"/>
<circle cx="122" cy="306" r="7.0" style="fill:gray;stroke:black;stroke-width:1.0"/>
<circle cx="379" cy="63" r="7.0" style="fill:gray;stroke:black;stroke-width:1.0"/>
<circle cx="420" cy="166" r="7.0" style="fill:gray;stroke:black;stroke-width:1.0"/>
<circle cx="285" cy="30" r="7.0" style="fill:gray;stroke:black;stroke-width:1.0"/>
<circle cx="147" cy="113" r="7.0" style="fill:gray;stroke:black;stroke-width:1.0"/>
<circle cx="226" cy="320" r="7.0" style="fill:gray;stroke:black;stroke-width:1.0"/>
</svg>
