<svg width="440" height="340" xmlns="http://www.w3.org/2000/svg">
<path stroke-width="1" stroke="black" d="M 183 192 181 108"/>
<path stroke-width="1" stroke="black" d="M 420 203 76 269"/>
<path stroke-width="1" stroke="black" d="M 216 20 183 192"/>
<path stroke-width="1" stroke="black" d="M 216 20 181 108"/>
<path stroke-width="1" stroke="black" d="M 216 20 33 131"/>
<path stroke-width="1" stroke="black" d="M 216 20 154 320"/>
<path stroke-width="1" stroke="black" d="M 216 20 327 57"/>
<path stroke-width="1" stroke="black" d="M 216 20 356 285"/>
<path stroke-width="1" stroke="black" d="M 216 20 79 53"/>
<path stroke-width="1" stroke="black" d="M 420 203 20 203"/>
<path stroke-width="1" stroke="black" d="M 216 20 300 164"/>
<path stroke-width="1" stroke="black" d="M 216 20 232 311"/>
<path stroke-width="1" stroke="black" d="M 216 20 394 111"/>
<path stroke-width="1" stroke="black" d="M 216 20 20 203"/>
<path stroke-width="1" stroke="black" d="M 216 20 76 269"/>
<path stroke-width="1" stroke="black" d="M 232 311 183 192"/>
<path stroke-width="1" stroke="black" d="M 232 311 181 108"/>
<path stroke-width="1" stroke="black" d="M 232 311 33 131"/>
<path stroke-width="1" stroke="black" d="M 232 311 154 320"/>
<path stroke-width="1" stroke="black" d="M 216 20 420 203"/>
<path stroke-width="1" stroke="black" d="M 420 203 394 111"/>
<path stroke-width="1" stroke="black" d="M 420 203 232 311"/>
<path stroke-width="1" stroke="black" d="M 420 203 216 20"/>
<path stroke-width="1" stroke="black" d="M 300 164 33 131"/>
<path stroke-width="1" stroke="black" d="M 300 164 154 320"/>
<path stroke-width="1" stroke="black" d="M 300 164 327 57"/>
<path stroke-width="1" stroke="black" d="M 300 164 356 285"/>
<path stroke-width="1" stroke="black" d="M 300 164 79 53"/>
<path stroke-width="1" stroke="black" d="M 300 164 420 203"/>
<path stroke-width="1" stroke="black" d="M 300 164 216 20"/>
<path stroke-width="1" stroke="black" d="M 300 164 232 311"/>
<path stroke-width="1" stroke="black" d="M 300 164 394 111"/>
<path stroke-width="1" stroke="black" d="M 300 164 20 203"/>
<path stroke-width="1" stroke="black" d="M 300 164 76 269"/>
<path stroke-width="1" stroke="black" d="M 420 203 183 192"/>
<path stroke-width="1" stroke="black" d="M 420 203 181 108"/>
<path stroke-width="1" stroke="black" d="M 420 203 33 131"/>
<path stroke-width="1" stroke="black" d="M 420 203 154 320"/>
<path stroke-width="1" stroke="black" d="M 420 203 327 57"/>
<path stroke-width="1" stroke="black" d="M 420 203 356 285"/>
<path stroke-width="1" stroke="black" d="M 420 203 79 53"/>
<path stroke-width="1" stroke="black" d="M 420 203 300 164"/>
<path stroke-width="1" stroke="black" d="M 232 311 327 57"/>
<path stroke-width="1" stroke="black" d="M 232 311 356 285"/>
<path stroke-width="1" stroke="black" d="M 232 311 79 53"/>
<path stroke-width="1" stroke="black" d="M 232 311 300 164"/>
<path stroke-width="1" stroke="black" d="M 20 203 356 285"/>
<path stroke-width="1" stroke="black" d="M 20 203 79 53"/>
<path stroke-width="1" stroke="black" d="M 20 203 300 164"/>
<path stroke-width="1" stroke="black" d="M 20 203 420 203"/>
<path stroke-width="1" stroke="black" d="M 20 203 216 20"/>
<path stroke-width="1" stroke="black" d="M 20 203 232 311"/>
<path stroke-width="1" stroke="black" d="M 20 203 394 111"/>
<path stroke-width="1" stroke="black" d="M 20 203 76 269"/>
<path stroke-width="1" stroke="black" d="M 76 269 183 192"/>
<path stroke-width="1" stroke="black" d="M 76 269 181 108"/>
<path stroke-width="1" stroke="black" d="M 76 269 33 131"/>
<path stroke-width="1" stroke="black" d="M 76 269 154 320"/>
<path stroke-width="1" stroke="black" d="M 76 269 327 57"/>
<path stroke-width="1" stroke="black" d="M 76 269 356 285"/>
<path stroke-width="1" stroke="black" d="M 76 269 79 53"/>
<path stroke-width="1" stroke="black" d="M 76 269 300 164"/>
<path stroke-width="1" stroke="black" d="M 76 269 420 203"/>
<path stroke-width="1" stroke="black" d="M 76 269 216 20"/>
<path stroke-width="1" stroke="black" d="M 76 269 232 311"/>
<path stroke-width="1" stroke="black" d="M 20 203 327 57"/>
<path stroke-width="1" stroke="black" d="M 300 164 181 108"/>
<path stroke-width="1" stroke="black" d="M 20 203 154 320"/>
<path stroke-width="1" stroke="black" d="M 20 203 181 108"/>
<path stroke-width="1" stroke="black" d="M 232 311 420 203"/>
<path stroke-width="1" stroke="black" d="M 232 311 216 20"/>
<path stroke-width="1" stroke="black" d="M 232 311 394 111"/>
<path stroke-width="1" stroke="black" d="M 232 311 20 203"/>
<path stroke-width="1" stroke="black" d="M 232 311 76 269"/>
<path stroke-width="1" stroke="black" d="M 394 111 183 192"/>
<path stroke-width="1" stroke="black" d="M 394 111 181 108"/>
<path stroke-width="1" stroke="black" d="M 394 111 33 131"/>
<path stroke-width="1" stroke="black" d="M 394 111 154 320"/>
<path stroke-width="1" stroke="black" d="M 394 111 327 57"/>
<path stroke-width="1" stroke="black" d="M 394 111 356 285"/>
<path stroke-width="1" stroke="black" d="M 394 111 79 53"/>
<path stroke-width="1" stroke="black" d="M 394 111 300 164"/>
<path stroke-width="1" stroke="black" d="M 394 111 420 203"/>
<path stroke-width="1" stroke="black" d="M 394 111 216 20"/>
<path stroke-width="1" stroke="black" d="M 394 111 232 311"/>
<path stroke-width="1" stroke="black" d="M 394 111 20 203"/>
<path stroke-width="1" stroke="black" d="M 394 111 76 269"/>
<path stroke-width="1" stroke="black" d="M 20 203 183 192"/>
<path stroke-width="1" stroke="black" d="M 20 203 33 131"/>
<path stroke-width="1" stroke="black" d="M 300 164 183 192"/>
<path stroke-width="1" stroke="black" d="M 79 53 76 269"/>
<path stroke-width="1" stroke="black" d="M 79 53 20 203"/>
<path stroke-width="1" stroke="black" d="M 181 108 20 203"/>
<path stroke-width="1" stroke="black" d="M 181 108 76 269"/>
<path stroke-width="1" stroke="black" d="M 33 131 183 192"/>
<path stroke-width="1" stroke="black" d="M 33 131 181 108"/>
<path stroke-width="1" stroke="black" d="M 33 131 154 320"/>
<path stroke-width="1" stroke="black" d="M 33 131 327 57"/>
<path stroke-width="1" stroke="black" d="M 33 131 356 285"/>
<path stroke-width="1" stroke="black" d="M 33 131 79 53"/>
<path stroke-width="1" stroke="black" d="M 33 131 300 164"/>
<path stroke-width="1" stroke="black" d="M 33 131 420 203"/>
<path stroke-width="1" stroke="black" d="M 33 131 216 20"/>
<path stroke-width="1" stroke="black" d="M 33 131 232 311"/>
<path stroke-width="1" stroke="black" d="M 33 131 394 111"/>
<path stroke-width="1" stroke="black" d="M 33 131 20 203"/>
<path stroke-width="1" stroke="black" d="M 33 131 76 269"/>
<path stroke-width="1" stroke="black" d="M 154 320 183 192"/>
<path stroke-width="1" stroke="black" d="M 154 320 181 108"/>
<path stroke-width="1" stroke="black" d="M 154 320 33 131"/>
<path stroke-width="1" stroke="black" d="M 154 320 327 57"/>
<path stroke-width="1" stroke="black" d="M 181 108 394 111"/>
<path stroke-width="1" stroke="black" d="M 154 320 356 285"/>
<path stroke-width="1" stroke="black" d="M 181 108 232 311"/>
<path stroke-width="1" stroke="black" d="M 181 108 420 203"/>
<path stroke-width="1" stroke="black" d="M 183 192 33 131"/>
<path stroke-width="1" stroke="black" d="M 183 192 154 320"/>
<path stroke-width="1" stroke="black" d="M 183 192 327 57"/>
<path stroke-width="1" stroke="black" d="M 183 192 356 285"/>
<path stroke-width="1" stroke="black" d="M 183 192 79 53"/>
<path stroke-width="1" stroke="black" d="M 183 192 300 164"/>
<path stroke-width="1" stroke="black" d="M 183 192 420 203"/>
<path stroke-width="1" stroke="black" d="M 183 192 216 20"/>
<path stroke-width="1" stroke="black" d="M 183 192 232 311"/>
<path stroke-width="1" stroke="black" d="M 183 192 394 111"/>
<path stroke-width="1" stroke="black" d="M 183 192 20 203"/>
<path stroke-width="1" stroke="black" d="M 183 192 76 269"/>
<path stroke-width="1" stroke="black" d="M 181 108 183 192"/>
<path stroke-width="1" stroke="black" d="M 181 108 33 131"/>
<path stroke-width="1" stroke="black" d="M 181 108 154 320"/>
<path stroke-width="1" stroke="black" d="M 181 108 327 57"/>
<path stroke-width="1" stroke="black" d="M 181 108 356 285"/>
<path stroke-width="1" stroke="black" d="M 181 108 79 53"/>
<path stroke-width="1" stroke="black" d="M 181 108 300 164"/>
<path stroke-width="1" stroke="black" d="M 181 108 216 20"/>
<path stroke-width="1" stroke="black" d="M 76 269 394 111"/>
<path stroke-width="1" stroke="black" d="M 154 320 79 53"/>
<path stroke-width="1" stroke="black" d="M 154 320 420 203"/>
<path stroke-width="1" stroke="black" d="M 356 285 79 53"/>
<path stroke-width="1" stroke="black" d="M 356 285 300 164"/>
<path stroke-width="1" stroke="black" d="M 356 285 420 203"/>
<path stroke-width="1" stroke="black" d="M 356 285 216 20"/>
<path stroke-width="1" stroke="black" d="M 356 285 232 311"/>
<path stroke-width="1" stroke="black" d="M 356 285 394 111"/>
<path stroke-width="1" stroke="black" d="M 356 285 20 203"/>
<path stroke-width="1" stroke="black" d="M 356 285 76 269"/>
<path stroke-width="1" stroke="black" d="M 79 53 183 192"/>
<path stroke-width="1" stroke="black" d="M 79 53 181 108"/>
<path stroke-width="1" stroke="black" d="M 79 53 33 131"/>
<path stroke-width="1" stroke="black" d="M 79 53 154 320"/>
<path stroke-width="1" stroke="black" d="M 79 53 327 57"/>
<path stroke-width="1" stroke="black" d="M 79 53 356 285"/>
<path stroke-width="1" stroke="black" d="M 79 53 300 164"/>
<path stroke-width="1" stroke="black" d="M 79 53 420 203"/>
<path stroke-width="1" stroke="black" d="M 79 53 216 20"/>
<path stroke-width="1" stroke="black" d="M 79 53 232 311"/>
<path stroke-width="1" stroke="black" d="M 79 53 394 111"/>
<path stroke-width="1" stroke="black" d="M 356 285 327 57"/>
<path stroke-width="1" stroke="black" d="M 154 320 300 164"/>
<path stroke-width="1" stroke="black" d="M 356 285 154 320"/>
<path stroke-width="1" stroke="black" d="M 356 285 181 108"/>
<path stroke-width="1" stroke="black" d="M 154 320 216 20"/>
<path stroke-width="1" stroke="black" d="M 154 320 232 311"/>
<path stroke-width="1" stroke="black" d="M 154 320 394 111"/>
<path stroke-width="1" stroke="black" d="M 154 320 20 203"/>
<path stroke-width="1" stroke="black" d="M 154 320 76 269"/>
<path stroke-width="1" stroke="black" d="M 327 57 183 192"/>
<path stroke-width="1" stroke="black" d="M 327 57 181 108"/>
<path stroke-width="1" stroke="black" d="M 327 57 33 131"/>
<path stroke-width="1" stroke="black" d="M 327 57 154 320"/>
<path stroke-width="1" stroke="black" d="M 327 57 356 285"/>
<path stroke-width="1" stroke="black" d="M 327 57 79 53"/>
<path stroke-width="1" stroke="black" d="M 327 57 300 164"/>
<path stroke-width="1" stroke="black" d="M 327 57 420 203"/>
<path stroke-width="1" stroke="black" d="M 327 57 216 20"/>
<path stroke-width="1" stroke="black" d="M 327 57 232 311"/>
<path stroke-width="1" stroke="black" d="M 327 57 394 111"/>
<path stroke-width="1" stroke="black" d="M 327 57 20 203"/>
<path stroke-width="1" stroke="black" d="M 327 57 76 269"/>
<path stroke-width="1" stroke="black" d="M 356 285 183 192"/>
<path stroke-width="1" stroke="black" d="M 356 285 33 131"/>
<path stroke-width="1" stroke="black" d="M 76 269 20 203"/>
<circle cx="183" cy="192" r="7.0" style="fill:gray;stroke:black;stroke-width:1.0"/>
<circle cx="181" cy="108" r="7.0" style="fill:gray;stroke:black;stroke-width:1.0"/>
<circle cx="33" cy="131" r="7.0" style="fill:gray;stroke:black;stroke-width:1.0"/>
<circle cx="154" cy="320" r="7.0" style="fill:gray;stroke:black;stroke-width:1.0"/>
<circle cx="327" cy="57" r="7.0" style="fill:gray;stroke:black;stroke-width:1.0"/>
<circle cx="356" cy="285" r="7.0" style="fill:gray;stroke:black;stroke-width:1.0"/>
<circle cx="79" cy="53" r="7.0" style="fill:gray;stroke:black;stroke-width:1.0"/>
<circle cx="300" cy="164" r="7.0" style="fill:gray;stroke:black;stroke-width:1.0"/>
<circle cx="420" cy="203" r="7.0" style="fill:gray;stroke:black;stroke-width:1.0"/>
<circle cx="216" cy="20" r="7.0" style="fill:gray;stroke:black;stroke-width:1.0"/>
<circle cx="232" cy="311" r="7.0" style="fill:gray;stroke:black;stroke-width:1.0"/>
<circle cx="394" cy="111" r="7.0" style="fill:gray;stroke:black;stroke-width:1.0"/>
<circle cx="20" cy="203" r="7.0" style="fill:gray;stroke:black;stroke-width:1.0"/>
<circle cx="76" cy="269" r="7.0" style="fill:gray;stroke:black;stroke-width:1.0"/>
</svg>
