<svg width="440" height="340" xmlns="http://www.w3.org/2000/svg">
<path stroke-width="20.0" stroke="black" d="M 208 168 57 166"/>
<path stroke-width="0.5" stroke="black" d="M 145 320 274 304"/>
<path stroke-width="8.3" stroke="black" d="M 300 20 208 168"/>
<path stroke-width="0.5" stroke="black" d="M 300 20 57 166"/>
<path stroke-width="0.5" stroke="black" d="M 300 20 369 274"/>
<path stroke-width="0.5" stroke="black" d="M 300 20 153 273"/>
<path stroke-width="0.5" stroke="black" d="M 300 20 209 27"/>
<path stroke-width="0.5" stroke="black" d="M 300 20 414 79"/>
<path stroke-width="12.2" stroke="black" d="M 300 20 47 66"/>
<path stroke-width="0.5" stroke="black" d="M 145 320 420 199"/>
<path stroke-width="0.5" stroke="black" d="M 300 20 20 247"/>
<path stroke-width="0.5" stroke="black" d="M 300 20 327 129"/>
<path stroke-width="0.5" stroke="black" d="M 300 20 93 50"/>
<path stroke-width="0.5" stroke="black" d="M 300 20 420 199"/>
<path stroke-width="0.5" stroke="black" d="M 300 20 274 304"/>
<path stroke-width="8.3" stroke="black" d="M 327 129 208 168"/>
<path stroke-width="0.5" stroke="black" d="M 327 129 57 166"/>
<path stroke-width="0.5" stroke="black" d="M 327 129 369 274"/>
<path stroke-width="0.5" stroke="black" d="M 327 129 153 273"/>
<path stroke-width="0.5" stroke="black" d="M 300 20 145 320"/>
<path stroke-width="0.5" stroke="black" d="M 145 320 93 50"/>
<path stroke-width="0.5" stroke="black" d="M 145 320 327 129"/>
<path stroke-width="0.5" stroke="black" d="M 145 320 300 20"/>
<path stroke-width="0.5" stroke="black" d="M 20 247 369 274"/>
<path stroke-width="0.5" stroke="black" d="M 20 247 153 273"/>
<path stroke-width="0.5" stroke="black" d="M 20 247 209 27"/>
<path stroke-width="0.5" stroke="black" d="M 20 247 414 79"/>
<path stroke-width="0.5" stroke="black" d="M 20 247 47 66"/>
<path stroke-width="12.2" stroke="black" d="M 20 247 145 320"/>
<path stroke-width="0.5" stroke="black" d="M 20 247 300 20"/>
<path stroke-width="0.5" stroke="black" d="M 20 247 327 129"/>
<path stroke-width="0.5" stroke="black" d="M 20 247 93 50"/>
<path stroke-width="0.5" stroke="black" d="M 20 247 420 199"/>
<path stroke-width="0.5" stroke="black" d="M 20 247 274 304"/>
<path stroke-width="8.3" stroke="black" d="M 145 320 208 168"/>
<path stroke-width="0.5" stroke="black" d="M 145 320 57 166"/>
<path stroke-width="0.5" stroke="black" d="M 145 320 369 274"/>
<path stroke-width="0.5" stroke="black" d="M 145 320 153 273"/>
<path stroke-width="0.5" stroke="black" d="M 145 320 209 27"/>
<path stroke-width="0.5" stroke="black" d="M 145 320 414 79"/>
<path stroke-width="0.5" stroke="black" d="M 145 320 47 66"/>
<path stroke-width="12.2" stroke="black" d="M 145 320 20 247"/>
<path stroke-width="0.5" stroke="black" d="M 327 129 209 27"/>
<path stroke-width="12.2" stroke="black" d="M 327 129 414 79"/>
<path stroke-width="0.5" stroke="black" d="M 327 129 47 66"/>
<path stroke-width="0.5" stroke="black" d="M 327 129 20 247"/>
<path stroke-width="0.5" stroke="black" d="M 420 199 414 79"/>
<path stroke-width="0.5" stroke="black" d="M 420 199 47 66"/>
<path stroke-width="0.5" stroke="black" d="M 420 199 20 247"/>
<path stroke-width="0.5" stroke="black" d="M 420 199 145 320"/>
<path stroke-width="0.5" stroke="black" d="M 420 199 300 20"/>
<path stroke-width="0.5" stroke="black" d="M 420 199 327 129"/>
<path stroke-width="0.5" stroke="black" d="M 420 199 93 50"/>
<path stroke-width="0.5" stroke="black" d="M 420 199 274 304"/>
<path stroke-width="8.3" stroke="black" d="M 274 304 208 168"/>
<path stroke-width="0.5" stroke="black" d="M 274 304 57 166"/>
<path stroke-width="0.5" stroke="black" d="M 274 304 369 274"/>
<path stroke-width="12.2" stroke="black" d="M 274 304 153 273"/>
<path stroke-width="0.5" stroke="black" d="M 274 304 209 27"/>
<path stroke-width="0.5" stroke="black" d="M 274 304 414 79"/>
<path stroke-width="0.5" stroke="black" d="M 274 304 47 66"/>
<path stroke-width="0.5" stroke="black" d="M 274 304 20 247"/>
<path stroke-width="0.5" stroke="black" d="M 274 304 145 320"/>
<path stroke-width="0.5" stroke="black" d="M 274 304 300 20"/>
<path stroke-width="0.5" stroke="black" d="M 274 304 327 129"/>
<path stroke-width="0.5" stroke="black" d="M 420 199 209 27"/>
<path stroke-width="0.5" stroke="black" d="M 20 247 57 166"/>
<path stroke-width="0.5" stroke="black" d="M 420 199 153 273"/>
<path stroke-width="0.5" stroke="black" d="M 420 199 57 166"/>
<path stroke-width="0.5" stroke="black" d="M 327 129 145 320"/>
<path stroke-width="0.5" stroke="black" d="M 327 129 300 20"/>
<path stroke-width="0.5" stroke="black" d="M 327 129 93 50"/>
<path stroke-width="0.5" stroke="black" d="M 327 129 420 199"/>
<path stroke-width="0.5" stroke="black" d="M 327 129 274 304"/>
<path stroke-width="8.3" stroke="black" d="M 93 50 208 168"/>
<path stroke-width="0.5" stroke="black" d="M 93 50 57 166"/>
<path stroke-width="0.5" stroke="black" d="M 93 50 369 274"/>
<path stroke-width="0.5" stroke="black" d="M 93 50 153 273"/>
<path stroke-width="12.2" stroke="black" d="M 93 50 209 27"/>
<path stroke-width="0.5" stroke="black" d="M 93 50 414 79"/>
<path stroke-width="0.5" stroke="black" d="M 93 50 47 66"/>
<path stroke-width="0.5" stroke="black" d="M 93 50 20 247"/>
<path stroke-width="0.5" stroke="black" d="M 93 50 145 320"/>
<path stroke-width="0.5" stroke="black" d="M 93 50 300 20"/>
<path stroke-width="0.5" stroke="black" d="M 93 50 327 129"/>
<path stroke-width="0.5" stroke="black" d="M 93 50 420 199"/>
<path stroke-width="0.5" stroke="black" d="M 93 50 274 304"/>
<path stroke-width="8.3" stroke="black" d="M 420 199 208 168"/>
<path stroke-width="12.2" stroke="black" d="M 420 199 369 274"/>
<path stroke-width="8.3" stroke="black" d="M 20 247 208 168"/>
<path stroke-width="0.5" stroke="black" d="M 47 66 274 304"/>
<path stroke-width="0.5" stroke="black" d="M 47 66 420 199"/>
<path stroke-width="0.5" stroke="black" d="M 57 166 420 199"/>
<path stroke-width="0.5" stroke="black" d="M 57 166 274 304"/>
<path stroke-width="8.3" stroke="black" d="M 369 274 208 168"/>
<path stroke-width="0.5" stroke="black" d="M 369 274 57 166"/>
<path stroke-width="0.5" stroke="black" d="M 369 274 153 273"/>
<path stroke-width="0.5" stroke="black" d="M 369 274 209 27"/>
<path stroke-width="0.5" stroke="black" d="M 369 274 414 79"/>
<path stroke-width="0.5" stroke="black" d="M 369 274 47 66"/>
<path stroke-width="0.5" stroke="black" d="M 369 274 20 247"/>
<path stroke-width="0.5" stroke="black" d="M 369 274 145 320"/>
<path stroke-width="0.5" stroke="black" d="M 369 274 300 20"/>
<path stroke-width="0.5" stroke="black" d="M 369 274 327 129"/>
<path stroke-width="0.5" stroke="black" d="M 369 274 93 50"/>
<path stroke-width="12.2" stroke="black" d="M 369 274 420 199"/>
<path stroke-width="0.5" stroke="black" d="M 369 274 274 304"/>
<path stroke-width="8.3" stroke="black" d="M 153 273 208 168"/>
<path stroke-width="0.5" stroke="black" d="M 153 273 57 166"/>
<path stroke-width="0.5" stroke="black" d="M 153 273 369 274"/>
<path stroke-width="0.5" stroke="black" d="M 153 273 209 27"/>
<path stroke-width="0.5" stroke="black" d="M 57 166 93 50"/>
<path stroke-width="0.5" stroke="black" d="M 153 273 414 79"/>
<path stroke-width="0.5" stroke="black" d="M 57 166 327 129"/>
<path stroke-width="0.5" stroke="black" d="M 57 166 145 320"/>
<path stroke-width="8.3" stroke="black" d="M 208 168 369 274"/>
<path stroke-width="8.3" stroke="black" d="M 208 168 153 273"/>
<path stroke-width="8.3" stroke="black" d="M 208 168 209 27"/>
<path stroke-width="8.3" stroke="black" d="M 208 168 414 79"/>
<path stroke-width="8.3" stroke="black" d="M 208 168 47 66"/>
<path stroke-width="8.3" stroke="black" d="M 208 168 20 247"/>
<path stroke-width="8.3" stroke="black" d="M 208 168 145 320"/>
<path stroke-width="8.3" stroke="black" d="M 208 168 300 20"/>
<path stroke-width="8.3" stroke="black" d="M 208 168 327 129"/>
<path stroke-width="8.3" stroke="black" d="M 208 168 93 50"/>
<path stroke-width="8.3" stroke="black" d="M 208 168 420 199"/>
<path stroke-width="8.3" stroke="black" d="M 208 168 274 304"/>
<path stroke-width="20.0" stroke="black" d="M 57 166 208 168"/>
<path stroke-width="0.5" stroke="black" d="M 57 166 369 274"/>
<path stroke-width="0.5" stroke="black" d="M 57 166 153 273"/>
<path stroke-width="0.5" stroke="black" d="M 57 166 209 27"/>
<path stroke-width="0.5" stroke="black" d="M 57 166 414 79"/>
<path stroke-width="0.5" stroke="black" d="M 57 166 47 66"/>
<path stroke-width="0.5" stroke="black" d="M 57 166 20 247"/>
<path stroke-width="0.5" stroke="black" d="M 57 166 300 20"/>
<path stroke-width="0.5" stroke="black" d="M 274 304 93 50"/>
<path stroke-width="0.5" stroke="black" d="M 153 273 47 66"/>
<path stroke-width="0.5" stroke="black" d="M 153 273 145 320"/>
<path stroke-width="0.5" stroke="black" d="M 414 79 47 66"/>
<path stroke-width="0.5" stroke="black" d="M 414 79 20 247"/>
<path stroke-width="0.5" stroke="black" d="M 414 79 145 320"/>
<path stroke-width="0.5" stroke="black" d="M 414 79 300 20"/>
<path stroke-width="12.2" stroke="black" d="M 414 79 327 129"/>
<path stroke-width="0.5" stroke="black" d="M 414 79 93 50"/>
<path stroke-width="0.5" stroke="black" d="M 414 79 420 199"/>
<path stroke-width="0.5" stroke="black" d="M 414 79 274 304"/>
<path stroke-width="8.3" stroke="black" d="M 47 66 208 168"/>
<path stroke-width="0.5" stroke="black" d="M 47 66 57 166"/>
<path stroke-width="0.5" stroke="black" d="M 47 66 369 274"/>
<path stroke-width="0.5" stroke="black" d="M 47 66 153 273"/>
<path stroke-width="0.5" stroke="black" d="M 47 66 209 27"/>
<path stroke-width="0.5" stroke="black" d="M 47 66 414 79"/>
<path stroke-width="0.5" stroke="black" d="M 47 66 20 247"/>
<path stroke-width="0.5" stroke="black" d="M 47 66 145 320"/>
<path stroke-width="12.2" stroke="black" d="M 47 66 300 20"/>
<path stroke-width="0.5" stroke="black" d="M 47 66 327 129"/>
<path stroke-width="0.5" stroke="black" d="M 47 66 93 50"/>
<path stroke-width="0.5" stroke="black" d="M 414 79 209 27"/>
<path stroke-width="0.5" stroke="black" d="M 153 273 20 247"/>
<path stroke-width="0.5" stroke="black" d="M 414 79 153 273"/>
<path stroke-width="0.5" stroke="black" d="M 414 79 57 166"/>
<path stroke-width="0.5" stroke="black" d="M 153 273 300 20"/>
<path stroke-width="0.5" stroke="black" d="M 153 273 327 129"/>
<path stroke-width="0.5" stroke="black" d="M 153 273 93 50"/>
<path stroke-width="0.5" stroke="black" d="M 153 273 420 199"/>
<path stroke-width="12.2" stroke="black" d="M 153 273 274 304"/>
<path stroke-width="8.3" stroke="black" d="M 209 27 208 168"/>
<path stroke-width="0.5" stroke="black" d="M 209 27 57 166"/>
<path stroke-width="0.5" stroke="black" d="M 209 27 369 274"/>
<path stroke-width="0.5" stroke="black" d="M 209 27 153 273"/>
<path stroke-width="0.5" stroke="black" d="M 209 27 414 79"/>
<path stroke-width="0.5" stroke="black" d="M 209 27 47 66"/>
<path stroke-width="0.5" stroke="black" d="M 209 27 20 247"/>
<path stroke-width="0.5" stroke="black" d="M 209 27 145 320"/>
<path stroke-width="0.5" stroke="black" d="M 209 27 300 20"/>
<path stroke-width="0.5" stroke="black" d="M 209 27 327 129"/>
<path stroke-width="12.2" stroke="black" d="M 209 27 93 50"/>
<path stroke-width="0.5" stroke="black" d="M 209 27 420 199"/>
<path stroke-width="0.5" stroke="black" d="M 209 27 274 304"/>
<path stroke-width="8.3" stroke="black" d="M 414 79 208 168"/>
<path stroke-width="0.5" stroke="black" d="M 414 79 369 274"/>
<path stroke-width="0.5" stroke="black" d="M 274 304 420 199"/>
<circle cx="208" cy="168" r="20.0" style="fill:gray;stroke:black;stroke-width:1.0"/>
<circle cx="57" cy="166" r="20.0" style="fill:gray;stroke:black;stroke-width:1.0"/>
<circle cx="369" cy="274" r="20.0" style="fill:gray;stroke:black;stroke-width:1.0"/>
<circle cx="153" cy="273" r="20.0" style="fill:gray;stroke:black;stroke-width:1.0"/>
<circle cx="209" cy="27" r="20.0" style="fill:gray;stroke:black;stroke-width:1.0"/>
<circle cx="414" cy="79" r="20.0" style="fill:gray;stroke:black;stroke-width:1.0"/>
<circle cx="47" cy="66" r="20.0" style="fill:gray;stroke:black;stroke-width:1.0"/>
<circle cx="20" cy="247" r="20.0" style="fill:gray;stroke:black;stroke-width:1.0"/>
<circle cx="145" cy="320" r="20.0" style="fill:gray;stroke:black;stroke-width:1.0"/>
<circle cx="300" cy="20" r="20.0" style="fill:gray;stroke:black;stroke-width:1.0"/>
<circle cx="327" cy="129" r="20.0" style="fill:gray;stroke:black;stroke-width:1.0"/>
<circle cx="93" cy="50" r="20.0" style="fill:gray;stroke:black;stroke-width:1.0"/>
<circle cx="420" cy="199" r="20.0" style="fill:gray;stroke:black;stroke-width:1.0"/>
<circle cx="274" cy="304" r="20.0" style="fill:gray;stroke:black;stroke-width:1.0"/>
</svg>
