<svg width="440" height="340" xmlns="http://www.w3.org/2000/svg">
<path stroke-width="0.5" stroke="black" d="M 296 96 194 320"/>
<path stroke-width="0.6822429906542056" stroke="black" d="M 135 200 324 314"/>
<path stroke-width="0.6822429906542056" stroke="black" d="M 135 200 88 61"/>
<path stroke-width="0.6822429906542056" stroke="black" d="M 135 200 61 277"/>
<path stroke-width="0.6822429906542056" stroke="black" d="M 135 200 225 20"/>
<path stroke-width="0.6822429906542056" stroke="black" d="M 135 200 377 52"/>
<path stroke-width="0.6822429906542056" stroke="black" d="M 135 200 189 21"/>
<path stroke-width="0.6822429906542056" stroke="black" d="M 135 200 20 211"/>
<path stroke-width="0.5" stroke="black" d="M 61 277 296 96"/>
<path stroke-width="0.5" stroke="black" d="M 61 277 194 320"/>
<path stroke-width="0.6822429906542056" stroke="black" d="M 61 277 201 215"/>
<path stroke-width="0.6822429906542056" stroke="black" d="M 135 200 420 244"/>
<path stroke-width="0.5" stroke="black" d="M 61 277 23 122"/>
<path stroke-width="2.869158878504673" stroke="black" d="M 61 277 138 139"/>
<path stroke-width="0.5" stroke="black" d="M 61 277 420 244"/>
<path stroke-width="0.5" stroke="black" d="M 61 277 324 314"/>
<path stroke-width="0.5" stroke="black" d="M 61 277 88 61"/>
<path stroke-width="0.6822429906542056" stroke="black" d="M 61 277 135 200"/>
<path stroke-width="0.5" stroke="black" d="M 61 277 225 20"/>
<path stroke-width="0.5" stroke="black" d="M 61 277 377 52"/>
<path stroke-width="0.5" stroke="black" d="M 61 277 189 21"/>
<path stroke-width="0.5" stroke="black" d="M 61 277 20 211"/>
<path stroke-width="0.5" stroke="black" d="M 225 20 296 96"/>
<path stroke-width="0.6822429906542056" stroke="black" d="M 61 277 319 155"/>
<path stroke-width="0.5" stroke="black" d="M 225 20 194 320"/>
<path stroke-width="5.238317757009346" stroke="black" d="M 135 200 138 139"/>
<path stroke-width="0.6822429906542056" stroke="black" d="M 135 200 23 122"/>
<path stroke-width="0.5" stroke="black" d="M 324 314 61 277"/>
<path stroke-width="0.5" stroke="black" d="M 324 314 225 20"/>
<path stroke-width="0.5" stroke="black" d="M 324 314 377 52"/>
<path stroke-width="0.5" stroke="black" d="M 324 314 189 21"/>
<path stroke-width="0.5" stroke="black" d="M 324 314 20 211"/>
<path stroke-width="0.5" stroke="black" d="M 88 61 296 96"/>
<path stroke-width="0.5" stroke="black" d="M 88 61 194 320"/>
<path stroke-width="0.6822429906542056" stroke="black" d="M 88 61 201 215"/>
<path stroke-width="0.5" stroke="black" d="M 88 61 23 122"/>
<path stroke-width="0.6822429906542056" stroke="black" d="M 88 61 319 155"/>
<path stroke-width="0.8644859813084111" stroke="black" d="M 135 200 319 155"/>
<path stroke-width="2.869158878504673" stroke="black" d="M 88 61 138 139"/>
<path stroke-width="0.5" stroke="black" d="M 88 61 324 314"/>
<path stroke-width="0.6822429906542056" stroke="black" d="M 88 61 135 200"/>
<path stroke-width="0.5" stroke="black" d="M 88 61 61 277"/>
<path stroke-width="0.5" stroke="black" d="M 88 61 225 20"/>
<path stroke-width="0.5" stroke="black" d="M 88 61 377 52"/>
<path stroke-width="0.5" stroke="black" d="M 88 61 189 21"/>
<path stroke-width="0.5" stroke="black" d="M 88 61 20 211"/>
<path stroke-width="0.6822429906542056" stroke="black" d="M 135 200 296 96"/>
<path stroke-width="0.6822429906542056" stroke="black" d="M 135 200 194 320"/>
<path stroke-width="0.8644859813084111" stroke="black" d="M 135 200 201 215"/>
<path stroke-width="0.5" stroke="black" d="M 88 61 420 244"/>
<path stroke-width="0.6822429906542056" stroke="black" d="M 225 20 201 215"/>
<path stroke-width="0.5" stroke="black" d="M 225 20 23 122"/>
<path stroke-width="0.6822429906542056" stroke="black" d="M 225 20 319 155"/>
<path stroke-width="0.6822429906542056" stroke="black" d="M 189 21 319 155"/>
<path stroke-width="2.869158878504673" stroke="black" d="M 189 21 138 139"/>
<path stroke-width="0.5" stroke="black" d="M 189 21 420 244"/>
<path stroke-width="0.5" stroke="black" d="M 189 21 324 314"/>
<path stroke-width="0.5" stroke="black" d="M 189 21 88 61"/>
<path stroke-width="0.6822429906542056" stroke="black" d="M 189 21 135 200"/>
<path stroke-width="0.5" stroke="black" d="M 189 21 61 277"/>
<path stroke-width="0.5" stroke="black" d="M 189 21 225 20"/>
<path stroke-width="0.5" stroke="black" d="M 189 21 377 52"/>
<path stroke-width="0.5" stroke="black" d="M 189 21 20 211"/>
<path stroke-width="0.5" stroke="black" d="M 189 21 23 122"/>
<path stroke-width="0.5" stroke="black" d="M 20 211 296 96"/>
<path stroke-width="0.6822429906542056" stroke="black" d="M 20 211 201 215"/>
<path stroke-width="0.5" stroke="black" d="M 20 211 23 122"/>
<path stroke-width="0.6822429906542056" stroke="black" d="M 20 211 319 155"/>
<path stroke-width="2.869158878504673" stroke="black" d="M 20 211 138 139"/>
<path stroke-width="0.5" stroke="black" d="M 20 211 420 244"/>
<path stroke-width="0.5" stroke="black" d="M 20 211 324 314"/>
<path stroke-width="0.5" stroke="black" d="M 20 211 88 61"/>
<path stroke-width="0.6822429906542056" stroke="black" d="M 20 211 135 200"/>
<path stroke-width="0.5" stroke="black" d="M 20 211 61 277"/>
<path stroke-width="0.5" stroke="black" d="M 20 211 225 20"/>
<path stroke-width="0.5" stroke="black" d="M 20 211 194 320"/>
<path stroke-width="0.6822429906542056" stroke="black" d="M 189 21 201 215"/>
<path stroke-width="0.5" stroke="black" d="M 189 21 194 320"/>
<path stroke-width="0.5" stroke="black" d="M 189 21 296 96"/>
<path stroke-width="2.869158878504673" stroke="black" d="M 225 20 138 139"/>
<path stroke-width="0.5" stroke="black" d="M 225 20 420 244"/>
<path stroke-width="0.5" stroke="black" d="M 225 20 324 314"/>
<path stroke-width="0.5" stroke="black" d="M 225 20 88 61"/>
<path stroke-width="0.6822429906542056" stroke="black" d="M 225 20 135 200"/>
<path stroke-width="0.5" stroke="black" d="M 225 20 61 277"/>
<path stroke-width="0.5" stroke="black" d="M 225 20 377 52"/>
<path stroke-width="0.5" stroke="black" d="M 225 20 189 21"/>
<path stroke-width="0.5" stroke="black" d="M 225 20 20 211"/>
<path stroke-width="0.5" stroke="black" d="M 377 52 296 96"/>
<path stroke-width="0.5" stroke="black" d="M 377 52 194 320"/>
<path stroke-width="0.6822429906542056" stroke="black" d="M 377 52 201 215"/>
<path stroke-width="0.5" stroke="black" d="M 377 52 23 122"/>
<path stroke-width="0.6822429906542056" stroke="black" d="M 377 52 319 155"/>
<path stroke-width="2.869158878504673" stroke="black" d="M 377 52 138 139"/>
<path stroke-width="0.5" stroke="black" d="M 377 52 420 244"/>
<path stroke-width="0.5" stroke="black" d="M 377 52 324 314"/>
<path stroke-width="0.5" stroke="black" d="M 377 52 88 61"/>
<path stroke-width="0.6822429906542056" stroke="black" d="M 377 52 135 200"/>
<path stroke-width="0.5" stroke="black" d="M 377 52 61 277"/>
<path stroke-width="0.5" stroke="black" d="M 377 52 225 20"/>
<path stroke-width="0.5" stroke="black" d="M 377 52 189 21"/>
<path stroke-width="0.5" stroke="black" d="M 377 52 20 211"/>
<path stroke-width="0.6822429906542056" stroke="black" d="M 324 314 135 200"/>
<path stroke-width="0.5" stroke="black" d="M 324 314 88 61"/>
<path stroke-width="0.5" stroke="black" d="M 324 314 420 244"/>
<path stroke-width="2.869158878504673" stroke="black" d="M 324 314 138 139"/>
<path stroke-width="0.6822429906542056" stroke="black" d="M 201 215 296 96"/>
<path stroke-width="0.6822429906542056" stroke="black" d="M 201 215 194 320"/>
<path stroke-width="0.6822429906542056" stroke="black" d="M 201 215 23 122"/>
<path stroke-width="0.8644859813084111" stroke="black" d="M 201 215 319 155"/>
<path stroke-width="5.238317757009346" stroke="black" d="M 201 215 138 139"/>
<path stroke-width="0.6822429906542056" stroke="black" d="M 201 215 420 244"/>
<path stroke-width="0.6822429906542056" stroke="black" d="M 201 215 324 314"/>
<path stroke-width="0.6822429906542056" stroke="black" d="M 201 215 88 61"/>
<path stroke-width="0.8644859813084111" stroke="black" d="M 201 215 135 200"/>
<path stroke-width="0.6822429906542056" stroke="black" d="M 201 215 61 277"/>
<path stroke-width="0.5" stroke="black" d="M 194 320 20 211"/>
<path stroke-width="0.6822429906542056" stroke="black" d="M 201 215 225 20"/>
<path stroke-width="0.6822429906542056" stroke="black" d="M 201 215 189 21"/>
<path stroke-width="0.6822429906542056" stroke="black" d="M 201 215 20 211"/>
<path stroke-width="0.5" stroke="black" d="M 23 122 296 96"/>
<path stroke-width="0.5" stroke="black" d="M 23 122 194 320"/>
<path stroke-width="0.6822429906542056" stroke="black" d="M 23 122 201 215"/>
<path stroke-width="0.6822429906542056" stroke="black" d="M 23 122 319 155"/>
<path stroke-width="2.869158878504673" stroke="black" d="M 23 122 138 139"/>
<path stroke-width="0.5" stroke="black" d="M 23 122 420 244"/>
<path stroke-width="0.5" stroke="black" d="M 23 122 324 314"/>
<path stroke-width="0.5" stroke="black" d="M 23 122 88 61"/>
<path stroke-width="0.6822429906542056" stroke="black" d="M 201 215 377 52"/>
<path stroke-width="0.5" stroke="black" d="M 194 320 189 21"/>
<path stroke-width="0.5" stroke="black" d="M 194 320 377 52"/>
<path stroke-width="0.5" stroke="black" d="M 194 320 225 20"/>
<path stroke-width="0.6822429906542056" stroke="black" d="M 296 96 201 215"/>
<path stroke-width="0.5" stroke="black" d="M 296 96 23 122"/>
<path stroke-width="20.0" stroke="black" d="M 296 96 319 155"/>
<path stroke-width="2.869158878504673" stroke="black" d="M 296 96 138 139"/>
<path stroke-width="0.5" stroke="black" d="M 296 96 420 244"/>
<path stroke-width="0.5" stroke="black" d="M 296 96 324 314"/>
<path stroke-width="0.5" stroke="black" d="M 296 96 88 61"/>
<path stroke-width="0.6822429906542056" stroke="black" d="M 296 96 135 200"/>
<path stroke-width="0.5" stroke="black" d="M 296 96 61 277"/>
<path stroke-width="0.5" stroke="black" d="M 296 96 225 20"/>
<path stroke-width="0.5" stroke="black" d="M 296 96 377 52"/>
<path stroke-width="0.5" stroke="black" d="M 296 96 189 21"/>
<path stroke-width="0.5" stroke="black" d="M 296 96 20 211"/>
<path stroke-width="0.5" stroke="black" d="M 194 320 296 96"/>
<path stroke-width="0.6822429906542056" stroke="black" d="M 194 320 201 215"/>
<path stroke-width="0.5" stroke="black" d="M 194 320 23 122"/>
<path stroke-width="0.6822429906542056" stroke="black" d="M 194 320 319 155"/>
<path stroke-width="2.869158878504673" stroke="black" d="M 194 320 138 139"/>
<path stroke-width="0.5" stroke="black" d="M 194 320 420 244"/>
<path stroke-width="0.5" stroke="black" d="M 194 320 324 314"/>
<path stroke-width="0.5" stroke="black" d="M 194 320 88 61"/>
<path stroke-width="0.6822429906542056" stroke="black" d="M 194 320 135 200"/>
<path stroke-width="0.5" stroke="black" d="M 194 320 61 277"/>
<path stroke-width="0.6822429906542056" stroke="black" d="M 23 122 135 200"/>
<path stroke-width="0.5" stroke="black" d="M 20 211 377 52"/>
<path stroke-width="0.5" stroke="black" d="M 23 122 61 277"/>
<path stroke-width="0.5" stroke="black" d="M 23 122 377 52"/>
<path stroke-width="2.869158878504673" stroke="black" d="M 138 139 377 52"/>
<path stroke-width="2.869158878504673" stroke="black" d="M 138 139 189 21"/>
<path stroke-width="2.869158878504673" stroke="black" d="M 138 139 20 211"/>
<path stroke-width="0.5" stroke="black" d="M 420 244 296 96"/>
<path stroke-width="0.5" stroke="black" d="M 420 244 194 320"/>
<path stroke-width="0.6822429906542056" stroke="black" d="M 420 244 201 215"/>
<path stroke-width="0.5" stroke="black" d="M 420 244 23 122"/>
<path stroke-width="0.6822429906542056" stroke="black" d="M 420 244 319 155"/>
<path stroke-width="2.869158878504673" stroke="black" d="M 420 244 138 139"/>
<path stroke-width="0.5" stroke="black" d="M 420 244 324 314"/>
<path stroke-width="2.869158878504673" stroke="black" d="M 138 139 225 20"/>
<path stroke-width="0.5" stroke="black" d="M 420 244 88 61"/>
<path stroke-width="0.5" stroke="black" d="M 420 244 61 277"/>
<path stroke-width="0.5" stroke="black" d="M 420 244 225 20"/>
<path stroke-width="0.5" stroke="black" d="M 420 244 377 52"/>
<path stroke-width="0.5" stroke="black" d="M 420 244 189 21"/>
<path stroke-width="0.5" stroke="black" d="M 420 244 20 211"/>
<path stroke-width="0.5" stroke="black" d="M 324 314 296 96"/>
<path stroke-width="0.5" stroke="black" d="M 324 314 194 320"/>
<path stroke-width="0.6822429906542056" stroke="black" d="M 324 314 201 215"/>
<path stroke-width="0.5" stroke="black" d="M 324 314 23 122"/>
<path stroke-width="0.6822429906542056" stroke="black" d="M 324 314 319 155"/>
<path stroke-width="0.6822429906542056" stroke="black" d="M 420 244 135 200"/>
<path stroke-width="2.869158878504673" stroke="black" d="M 138 139 61 277"/>
<path stroke-width="5.238317757009346" stroke="black" d="M 138 139 135 200"/>
<path stroke-width="2.869158878504673" stroke="black" d="M 138 139 88 61"/>
<path stroke-width="0.5" stroke="black" d="M 23 122 189 21"/>
<path stroke-width="0.5" stroke="black" d="M 23 122 20 211"/>
<path stroke-width="20.0" stroke="black" d="M 319 155 296 96"/>
<path stroke-width="0.6822429906542056" stroke="black" d="M 319 155 194 320"/>
<path stroke-width="0.8644859813084111" stroke="black" d="M 319 155 201 215"/>
<path stroke-width="0.6822429906542056" stroke="black" d="M 319 155 23 122"/>
<path stroke-width="5.238317757009346" stroke="black" d="M 319 155 138 139"/>
<path stroke-width="0.6822429906542056" stroke="black" d="M 319 155 420 244"/>
<path stroke-width="0.6822429906542056" stroke="black" d="M 319 155 324 314"/>
<path stroke-width="0.6822429906542056" stroke="black" d="M 319 155 88 61"/>
<path stroke-width="0.8644859813084111" stroke="black" d="M 319 155 135 200"/>
<path stroke-width="0.6822429906542056" stroke="black" d="M 319 155 61 277"/>
<path stroke-width="0.6822429906542056" stroke="black" d="M 319 155 225 20"/>
<path stroke-width="0.6822429906542056" stroke="black" d="M 319 155 377 52"/>
<path stroke-width="0.6822429906542056" stroke="black" d="M 319 155 189 21"/>
<path stroke-width="0.6822429906542056" stroke="black" d="M 319 155 20 211"/>
<path stroke-width="2.869158878504673" stroke="black" d="M 138 139 296 96"/>
<path stroke-width="2.869158878504673" stroke="black" d="M 138 139 194 320"/>
<path stroke-width="5.238317757009346" stroke="black" d="M 138 139 201 215"/>
<path stroke-width="2.869158878504673" stroke="black" d="M 138 139 23 122"/>
<path stroke-width="5.238317757009346" stroke="black" d="M 138 139 319 155"/>
<path stroke-width="2.869158878504673" stroke="black" d="M 138 139 420 244"/>
<path stroke-width="2.869158878504673" stroke="black" d="M 138 139 324 314"/>
<path stroke-width="0.5" stroke="black" d="M 23 122 225 20"/>
<path stroke-width="0.5" stroke="black" d="M 20 211 189 21"/>
<circle cx="296" cy="96" r="7.0" style="fill:gray;stroke:black;stroke-width:1.0"/>
<circle cx="194" cy="320" r="7.0" style="fill:gray;stroke:black;stroke-width:1.0"/>
<circle cx="201" cy="215" r="7.0" style="fill:gray;stroke:black;stroke-width:1.0"/>
<circle cx="23" cy="122" r="7.0" style="fill:gray;stroke:black;stroke-width:1.0"/>
<circle cx="319" cy="155" r="7.0" style="fill:gray;stroke:black;stroke-width:1.0"/>
<circle cx="138" cy="139" r="7.0" style="fill:gray;stroke:black;stroke-width:1.0"/>
<circle cx="420" cy="244" r="7.0" style="fill:gray;stroke:black;stroke-width:1.0"/>
<circle cx="324" cy="314" r="7.0" style="fill:gray;stroke:black;stroke-width:1.0"/>
<circle cx="88" cy="61" r="7.0" style="fill:gray;stroke:black;stroke-width:1.0"/>
<circle cx="135" cy="200" r="7.0" style="fill:gray;stroke:black;stroke-width:1.0"/>
<circle cx="61" cy="277" r="7.0" style="fill:gray;stroke:black;stroke-width:1.0"/>
<circle cx="225" cy="20" r="7.0" style="fill:gray;stroke:black;stroke-width:1.0"/>
<circle cx="377" cy="52" r="7.0" style="fill:gray;stroke:black;stroke-width:1.0"/>
<circle cx="189" cy="21" r="7.0" style="fill:gray;stroke:black;stroke-width:1.0"/>
<circle cx="20" cy="211" r="7.0" style="fill:gray;stroke:black;stroke-width:1.0"/>
</svg>
