<svg width="440" height="340" xmlns="http://www.w3.org/2000/svg">
<path stroke-width="0.5" stroke="black" d="M 220 309 308 313"/>
<path stroke-width="0.5" stroke="black" d="M 420 138 57 97"/>
<path stroke-width="0.5" stroke="black" d="M 420 138 359 205"/>
<path stroke-width="0.5" stroke="black" d="M 420 138 220 20"/>
<path stroke-width="0.5" stroke="black" d="M 420 138 382 266"/>
<path stroke-width="1.451219512195122" stroke="black" d="M 420 138 235 191"/>
<path stroke-width="0.5" stroke="black" d="M 420 138 117 320"/>
<path stroke-width="0.5" stroke="black" d="M 420 138 307 54"/>
<path stroke-width="0.5" stroke="black" d="M 220 20 220 309"/>
<path stroke-width="0.5" stroke="black" d="M 220 20 308 313"/>
<path stroke-width="7.158536585365853" stroke="black" d="M 220 20 261 203"/>
<path stroke-width="0.5" stroke="black" d="M 420 138 143 56"/>
<path stroke-width="0.5" stroke="black" d="M 220 20 90 254"/>
<path stroke-width="0.5" stroke="black" d="M 220 20 387 126"/>
<path stroke-width="0.5" stroke="black" d="M 220 20 143 56"/>
<path stroke-width="0.5" stroke="black" d="M 220 20 57 97"/>
<path stroke-width="0.5" stroke="black" d="M 220 20 359 205"/>
<path stroke-width="0.5" stroke="black" d="M 220 20 420 138"/>
<path stroke-width="0.5" stroke="black" d="M 220 20 382 266"/>
<path stroke-width="0.5" stroke="black" d="M 220 20 235 191"/>
<path stroke-width="0.5" stroke="black" d="M 220 20 117 320"/>
<path stroke-width="0.5" stroke="black" d="M 220 20 307 54"/>
<path stroke-width="0.5" stroke="black" d="M 382 266 220 309"/>
<path stroke-width="0.5" stroke="black" d="M 220 20 20 184"/>
<path stroke-width="0.5" stroke="black" d="M 382 266 308 313"/>
<path stroke-width="0.5" stroke="black" d="M 420 138 387 126"/>
<path stroke-width="0.5" stroke="black" d="M 420 138 90 254"/>
<path stroke-width="0.5" stroke="black" d="M 57 97 220 20"/>
<path stroke-width="0.5" stroke="black" d="M 57 97 382 266"/>
<path stroke-width="1.451219512195122" stroke="black" d="M 57 97 235 191"/>
<path stroke-width="0.5" stroke="black" d="M 57 97 117 320"/>
<path stroke-width="0.5" stroke="black" d="M 57 97 307 54"/>
<path stroke-width="0.5" stroke="black" d="M 359 205 220 309"/>
<path stroke-width="0.5" stroke="black" d="M 359 205 308 313"/>
<path stroke-width="7.158536585365853" stroke="black" d="M 359 205 261 203"/>
<path stroke-width="0.5" stroke="black" d="M 359 205 90 254"/>
<path stroke-width="0.5" stroke="black" d="M 359 205 20 184"/>
<path stroke-width="0.5" stroke="black" d="M 420 138 20 184"/>
<path stroke-width="0.5" stroke="black" d="M 359 205 387 126"/>
<path stroke-width="0.5" stroke="black" d="M 359 205 57 97"/>
<path stroke-width="0.5" stroke="black" d="M 359 205 420 138"/>
<path stroke-width="0.5" stroke="black" d="M 359 205 220 20"/>
<path stroke-width="0.5" stroke="black" d="M 359 205 382 266"/>
<path stroke-width="1.451219512195122" stroke="black" d="M 359 205 235 191"/>
<path stroke-width="0.5" stroke="black" d="M 359 205 117 320"/>
<path stroke-width="0.5" stroke="black" d="M 359 205 307 54"/>
<path stroke-width="0.5" stroke="black" d="M 420 138 220 309"/>
<path stroke-width="0.5" stroke="black" d="M 420 138 308 313"/>
<path stroke-width="7.158536585365853" stroke="black" d="M 420 138 261 203"/>
<path stroke-width="0.5" stroke="black" d="M 359 205 143 56"/>
<path stroke-width="7.158536585365853" stroke="black" d="M 382 266 261 203"/>
<path stroke-width="0.5" stroke="black" d="M 382 266 90 254"/>
<path stroke-width="0.5" stroke="black" d="M 382 266 20 184"/>
<path stroke-width="0.5" stroke="black" d="M 117 320 20 184"/>
<path stroke-width="0.5" stroke="black" d="M 117 320 387 126"/>
<path stroke-width="0.5" stroke="black" d="M 117 320 143 56"/>
<path stroke-width="0.5" stroke="black" d="M 117 320 57 97"/>
<path stroke-width="0.5" stroke="black" d="M 117 320 359 205"/>
<path stroke-width="0.5" stroke="black" d="M 117 320 420 138"/>
<path stroke-width="0.5" stroke="black" d="M 117 320 220 20"/>
<path stroke-width="0.5" stroke="black" d="M 117 320 382 266"/>
<path stroke-width="1.451219512195122" stroke="black" d="M 117 320 235 191"/>
<path stroke-width="0.5" stroke="black" d="M 117 320 307 54"/>
<path stroke-width="0.5" stroke="black" d="M 117 320 90 254"/>
<path stroke-width="0.5" stroke="black" d="M 307 54 220 309"/>
<path stroke-width="7.158536585365853" stroke="black" d="M 307 54 261 203"/>
<path stroke-width="0.5" stroke="black" d="M 307 54 90 254"/>
<path stroke-width="0.5" stroke="black" d="M 307 54 20 184"/>
<path stroke-width="0.5" stroke="black" d="M 307 54 387 126"/>
<path stroke-width="0.5" stroke="black" d="M 307 54 143 56"/>
<path stroke-width="0.5" stroke="black" d="M 307 54 57 97"/>
<path stroke-width="0.5" stroke="black" d="M 307 54 359 205"/>
<path stroke-width="0.5" stroke="black" d="M 307 54 420 138"/>
<path stroke-width="0.5" stroke="black" d="M 307 54 220 20"/>
<path stroke-width="0.5" stroke="black" d="M 307 54 382 266"/>
<path stroke-width="0.5" stroke="black" d="M 307 54 308 313"/>
<path stroke-width="6.682926829268292" stroke="black" d="M 117 320 261 203"/>
<path stroke-width="0.5" stroke="black" d="M 117 320 308 313"/>
<path stroke-width="0.5" stroke="black" d="M 117 320 220 309"/>
<path stroke-width="0.5" stroke="black" d="M 382 266 387 126"/>
<path stroke-width="0.5" stroke="black" d="M 382 266 143 56"/>
<path stroke-width="0.5" stroke="black" d="M 382 266 57 97"/>
<path stroke-width="0.5" stroke="black" d="M 382 266 359 205"/>
<path stroke-width="0.5" stroke="black" d="M 382 266 420 138"/>
<path stroke-width="0.5" stroke="black" d="M 382 266 220 20"/>
<path stroke-width="1.451219512195122" stroke="black" d="M 382 266 235 191"/>
<path stroke-width="0.5" stroke="black" d="M 382 266 117 320"/>
<path stroke-width="0.5" stroke="black" d="M 382 266 307 54"/>
<path stroke-width="1.451219512195122" stroke="black" d="M 235 191 220 309"/>
<path stroke-width="1.451219512195122" stroke="black" d="M 235 191 308 313"/>
<path stroke-width="20.0" stroke="black" d="M 235 191 261 203"/>
<path stroke-width="1.451219512195122" stroke="black" d="M 235 191 90 254"/>
<path stroke-width="1.451219512195122" stroke="black" d="M 235 191 20 184"/>
<path stroke-width="1.451219512195122" stroke="black" d="M 235 191 387 126"/>
<path stroke-width="1.451219512195122" stroke="black" d="M 235 191 143 56"/>
<path stroke-width="1.451219512195122" stroke="black" d="M 235 191 57 97"/>
<path stroke-width="1.451219512195122" stroke="black" d="M 235 191 359 205"/>
<path stroke-width="1.451219512195122" stroke="black" d="M 235 191 420 138"/>
<path stroke-width="0.5" stroke="black" d="M 235 191 220 20"/>
<path stroke-width="1.451219512195122" stroke="black" d="M 235 191 382 266"/>
<path stroke-width="1.451219512195122" stroke="black" d="M 235 191 117 320"/>
<path stroke-width="1.451219512195122" stroke="black" d="M 235 191 307 54"/>
<path stroke-width="0.5" stroke="black" d="M 57 97 420 138"/>
<path stroke-width="0.5" stroke="black" d="M 57 97 359 205"/>
<path stroke-width="0.5" stroke="black" d="M 57 97 143 56"/>
<path stroke-width="0.5" stroke="black" d="M 57 97 387 126"/>
<path stroke-width="7.158536585365853" stroke="black" d="M 261 203 220 309"/>
<path stroke-width="7.158536585365853" stroke="black" d="M 261 203 308 313"/>
<path stroke-width="7.158536585365853" stroke="black" d="M 261 203 90 254"/>
<path stroke-width="7.158536585365853" stroke="black" d="M 261 203 20 184"/>
<path stroke-width="7.158536585365853" stroke="black" d="M 261 203 387 126"/>
<path stroke-width="7.158536585365853" stroke="black" d="M 261 203 143 56"/>
<path stroke-width="7.158536585365853" stroke="black" d="M 261 203 57 97"/>
<path stroke-width="7.158536585365853" stroke="black" d="M 261 203 359 205"/>
<path stroke-width="7.158536585365853" stroke="black" d="M 261 203 420 138"/>
<path stroke-width="7.158536585365853" stroke="black" d="M 261 203 220 20"/>
<path stroke-width="0.5" stroke="black" d="M 308 313 307 54"/>
<path stroke-width="7.158536585365853" stroke="black" d="M 261 203 382 266"/>
<path stroke-width="6.682926829268292" stroke="black" d="M 261 203 117 320"/>
<path stroke-width="7.158536585365853" stroke="black" d="M 261 203 307 54"/>
<path stroke-width="0.5" stroke="black" d="M 90 254 220 309"/>
<path stroke-width="0.5" stroke="black" d="M 90 254 308 313"/>
<path stroke-width="7.158536585365853" stroke="black" d="M 90 254 261 203"/>
<path stroke-width="0.5" stroke="black" d="M 90 254 20 184"/>
<path stroke-width="0.5" stroke="black" d="M 90 254 387 126"/>
<path stroke-width="0.5" stroke="black" d="M 90 254 143 56"/>
<path stroke-width="0.5" stroke="black" d="M 90 254 57 97"/>
<path stroke-width="0.5" stroke="black" d="M 90 254 359 205"/>
<path stroke-width="20.0" stroke="black" d="M 261 203 235 191"/>
<path stroke-width="0.5" stroke="black" d="M 308 313 117 320"/>
<path stroke-width="1.451219512195122" stroke="black" d="M 308 313 235 191"/>
<path stroke-width="0.5" stroke="black" d="M 308 313 382 266"/>
<path stroke-width="7.158536585365853" stroke="black" d="M 220 309 261 203"/>
<path stroke-width="0.5" stroke="black" d="M 220 309 90 254"/>
<path stroke-width="0.5" stroke="black" d="M 220 309 20 184"/>
<path stroke-width="0.5" stroke="black" d="M 220 309 387 126"/>
<path stroke-width="0.5" stroke="black" d="M 220 309 143 56"/>
<path stroke-width="0.5" stroke="black" d="M 220 309 57 97"/>
<path stroke-width="0.5" stroke="black" d="M 220 309 359 205"/>
<path stroke-width="0.5" stroke="black" d="M 220 309 420 138"/>
<path stroke-width="0.5" stroke="black" d="M 220 309 220 20"/>
<path stroke-width="0.5" stroke="black" d="M 220 309 382 266"/>
<path stroke-width="1.451219512195122" stroke="black" d="M 220 309 235 191"/>
<path stroke-width="0.5" stroke="black" d="M 220 309 117 320"/>
<path stroke-width="0.5" stroke="black" d="M 220 309 307 54"/>
<path stroke-width="0.5" stroke="black" d="M 308 313 220 309"/>
<path stroke-width="7.158536585365853" stroke="black" d="M 308 313 261 203"/>
<path stroke-width="0.5" stroke="black" d="M 308 313 90 254"/>
<path stroke-width="0.5" stroke="black" d="M 308 313 20 184"/>
<path stroke-width="0.5" stroke="black" d="M 308 313 387 126"/>
<path stroke-width="0.5" stroke="black" d="M 308 313 143 56"/>
<path stroke-width="0.5" stroke="black" d="M 308 313 57 97"/>
<path stroke-width="0.5" stroke="black" d="M 308 313 359 205"/>
<path stroke-width="0.5" stroke="black" d="M 308 313 420 138"/>
<path stroke-width="0.5" stroke="black" d="M 308 313 220 20"/>
<path stroke-width="0.5" stroke="black" d="M 90 254 420 138"/>
<path stroke-width="1.451219512195122" stroke="black" d="M 307 54 235 191"/>
<path stroke-width="0.5" stroke="black" d="M 90 254 220 20"/>
<path stroke-width="1.451219512195122" stroke="black" d="M 90 254 235 191"/>
<path stroke-width="1.451219512195122" stroke="black" d="M 387 126 235 191"/>
<path stroke-width="0.5" stroke="black" d="M 387 126 117 320"/>
<path stroke-width="0.5" stroke="black" d="M 387 126 307 54"/>
<path stroke-width="0.5" stroke="black" d="M 143 56 220 309"/>
<path stroke-width="0.5" stroke="black" d="M 143 56 308 313"/>
<path stroke-width="7.158536585365853" stroke="black" d="M 143 56 261 203"/>
<path stroke-width="0.5" stroke="black" d="M 143 56 90 254"/>
<path stroke-width="0.5" stroke="black" d="M 143 56 20 184"/>
<path stroke-width="0.5" stroke="black" d="M 143 56 387 126"/>
<path stroke-width="0.5" stroke="black" d="M 143 56 57 97"/>
<path stroke-width="0.5" stroke="black" d="M 387 126 382 266"/>
<path stroke-width="0.5" stroke="black" d="M 143 56 359 205"/>
<path stroke-width="0.5" stroke="black" d="M 143 56 220 20"/>
<path stroke-width="0.5" stroke="black" d="M 143 56 382 266"/>
<path stroke-width="1.451219512195122" stroke="black" d="M 143 56 235 191"/>
<path stroke-width="0.5" stroke="black" d="M 143 56 117 320"/>
<path stroke-width="0.5" stroke="black" d="M 143 56 307 54"/>
<path stroke-width="0.5" stroke="black" d="M 57 97 220 309"/>
<path stroke-width="0.5" stroke="black" d="M 57 97 308 313"/>
<path stroke-width="7.158536585365853" stroke="black" d="M 57 97 261 203"/>
<path stroke-width="0.5" stroke="black" d="M 57 97 90 254"/>
<path stroke-width="0.5" stroke="black" d="M 57 97 20 184"/>
<path stroke-width="0.5" stroke="black" d="M 143 56 420 138"/>
<path stroke-width="0.5" stroke="black" d="M 387 126 220 20"/>
<path stroke-width="0.5" stroke="black" d="M 387 126 420 138"/>
<path stroke-width="0.5" stroke="black" d="M 387 126 359 205"/>
<path stroke-width="0.5" stroke="black" d="M 90 254 117 320"/>
<path stroke-width="0.5" stroke="black" d="M 90 254 307 54"/>
<path stroke-width="0.5" stroke="black" d="M 20 184 220 309"/>
<path stroke-width="0.5" stroke="black" d="M 20 184 308 313"/>
<path stroke-width="7.158536585365853" stroke="black" d="M 20 184 261 203"/>
<path stroke-width="0.5" stroke="black" d="M 20 184 90 254"/>
<path stroke-width="0.5" stroke="black" d="M 20 184 387 126"/>
<path stroke-width="0.5" stroke="black" d="M 20 184 143 56"/>
<path stroke-width="0.5" stroke="black" d="M 20 184 57 97"/>
<path stroke-width="0.5" stroke="black" d="M 20 184 359 205"/>
<path stroke-width="0.5" stroke="black" d="M 20 184 420 138"/>
<path stroke-width="0.5" stroke="black" d="M 20 184 220 20"/>
<path stroke-width="0.5" stroke="black" d="M 20 184 382 266"/>
<path stroke-width="1.451219512195122" stroke="black" d="M 20 184 235 191"/>
<path stroke-width="0.5" stroke="black" d="M 20 184 117 320"/>
<path stroke-width="0.5" stroke="black" d="M 20 184 307 54"/>
<path stroke-width="0.5" stroke="black" d="M 387 126 220 309"/>
<path stroke-width="0.5" stroke="black" d="M 387 126 308 313"/>
<path stroke-width="7.158536585365853" stroke="black" d="M 387 126 261 203"/>
<path stroke-width="0.5" stroke="black" d="M 387 126 90 254"/>
<path stroke-width="0.5" stroke="black" d="M 387 126 20 184"/>
<path stroke-width="0.5" stroke="black" d="M 387 126 143 56"/>
<path stroke-width="0.5" stroke="black" d="M 387 126 57 97"/>
<path stroke-width="0.5" stroke="black" d="M 90 254 382 266"/>
<path stroke-width="0.5" stroke="black" d="M 307 54 117 320"/>
<circle cx="220" cy="309" r="7.0" style="fill:gray;stroke:black;stroke-width:1.0"/>
<circle cx="308" cy="313" r="7.0" style="fill:gray;stroke:black;stroke-width:1.0"/>
<circle cx="261" cy="203" r="7.0" style="fill:gray;stroke:black;stroke-width:1.0"/>
<circle cx="90" cy="254" r="7.0" style="fill:gray;stroke:black;stroke-width:1.0"/>
<circle cx="20" cy="184" r="7.0" style="fill:gray;stroke:black;stroke-width:1.0"/>
<circle cx="387" cy="126" r="7.0" style="fill:gray;stroke:black;stroke-width:1.0"/>
<circle cx="143" cy="56" r="7.0" style="fill:gray;stroke:black;stroke-width:1.0"/>
<circle cx="57" cy="97" r="7.0" style="fill:gray;stroke:black;stroke-width:1.0"/>
<circle cx="359" cy="205" r="7.0" style="fill:gray;stroke:black;stroke-width:1.0"/>
<circle cx="420" cy="138" r="7.0" style="fill:gray;stroke:black;stroke-width:1.0"/>
<circle cx="220" cy="20" r="7.0" style="fill:gray;stroke:black;stroke-width:1.0"/>
<circle cx="382" cy="266" r="7.0" style="fill:gray;stroke:black;stroke-width:1.0"/>
<circle cx="235" cy="191" r="7.0" style="fill:gray;stroke:black;stroke-width:1.0"/>
<circle cx="117" cy="320" r="7.0" style="fill:gray;stroke:black;stroke-width:1.0"/>
<circle cx="307" cy="54" r="7.0" style="fill:gray;stroke:black;stroke-width:1.0"/>
</svg>
