<svg width="440" height="340" xmlns="http://www.w3.org/2000/svg">
<path stroke-width="1" stroke="black" d="M 55 70 20 131"/>
<path stroke-width="1" stroke="black" d="M 335 296 400 239"/>
<path stroke-width="1" stroke="black" d="M 335 296 243 320"/>
<path stroke-width="1" stroke="black" d="M 400 239 335 296"/>
<path stroke-width="1" stroke="black" d="M 400 239 420 171"/>
<path stroke-width="1" stroke="black" d="M 389 97 420 171"/>
<path stroke-width="1" stroke="black" d="M 389 97 331 43"/>
<path stroke-width="1" stroke="black" d="M 146 312 60 272"/>
<path stroke-width="1" stroke="black" d="M 146 312 243 320"/>
<path stroke-width="1" stroke="black" d="M 141 31 236 20"/>
<path stroke-width="1" stroke="black" d="M 141 31 55 70"/>
<path stroke-width="1" stroke="black" d="M 420 171 400 239"/>
<path stroke-width="1" stroke="black" d="M 420 171 389 97"/>
<path stroke-width="1" stroke="black" d="M 20 131 21 212"/>
<path stroke-width="1" stroke="black" d="M 20 131 55 70"/>
<path stroke-width="1" stroke="black" d="M 60 272 21 212"/>
<path stroke-width="1" stroke="black" d="M 60 272 146 312"/>
<path stroke-width="1" stroke="black" d="M 243 320 335 296"/>
<path stroke-width="1" stroke="black" d="M 243 320 146 312"/>
<path stroke-width="1" stroke="black" d="M 236 20 141 31"/>
<path stroke-width="1" stroke="black" d="M 236 20 331 43"/>
<path stroke-width="1" stroke="black" d="M 331 43 389 97"/>
<path stroke-width="1" stroke="black" d="M 331 43 236 20"/>
<path stroke-width="1" stroke="black" d="M 55 70 141 31"/>
<path stroke-width="1" stroke="black" d="M 21 212 60 272"/>
<path stroke-width="1" stroke="black" d="M 21 212 20 131"/>
<circle cx="55" cy="70" r="7.0" style="fill:gray;stroke:black;stroke-width:1.0"/>
<circle cx="331" cy="43" r="7.0" style="fill:gray;stroke:black;stroke-width:1.0"/>
<circle cx="236" cy="20" r="7.0" style="fill:gray;stroke:black;stroke-width:1.0"/>
<circle cx="243" cy="320" r="7.0" style="fill:gray;stroke:black;stroke-width:1.0"/>
<circle cx="60" cy="272" r="7.0" style="fill:gray;stroke:black;stroke-width:1.0"/>
<circle cx="20" cy="131" r="7.0" style="fill:gray;stroke:black;stroke-width:1.0"/>
<circle cx="420" cy="171" r="7.0" style="fill:gray;stroke:black;stroke-width:1.0"/>
<circle cx="141" cy="31" r="7.0" style="fill:gray;stroke:black;stroke-width:1.0"/>
<circle cx="146" cy="312" r="7.0" style="fill:gray;stroke:black;stroke-width:1.0"/>
<circle cx="389" cy="97" r="7.0" style="fill:gray;stroke:black;stroke-width:1.0"/>
<circle cx="400" cy="239" r="7.0" style="fill:gray;stroke:black;stroke-width:1.0"/>
<circle cx="335" cy="296" r="7.0" style="fill:gray;stroke:black;stroke-width:1.0"/>
<circle cx="21" cy="212" r="7.0" style="fill:gray;stroke:black;stroke-width:1.0"/>
</svg>
