<svg width="440" height="340" xmlns="http://www.w3.org/2000/svg">
<path stroke-width="1" stroke="black" d="M 355 275 275 319"/>
<path stroke-width="1" stroke="black" d="M 49 90 122 43"/>
<path stroke-width="1" stroke="black" d="M 49 90 20 157"/>
<path stroke-width="1" stroke="black" d="M 122 43 49 90"/>
<path stroke-width="1" stroke="black" d="M 122 43 218 20"/>
<path stroke-width="1" stroke="black" d="M 318 33 218 20"/>
<path stroke-width="1" stroke="black" d="M 318 33 382 89"/>
<path stroke-width="1" stroke="black" d="M 31 225 87 282"/>
<path stroke-width="1" stroke="black" d="M 31 225 20 157"/>
<path stroke-width="1" stroke="black" d="M 411 223 420 147"/>
<path stroke-width="1" stroke="black" d="M 411 223 355 275"/>
<path stroke-width="1" stroke="black" d="M 218 20 122 43"/>
<path stroke-width="1" stroke="black" d="M 218 20 318 33"/>
<path stroke-width="1" stroke="black" d="M 275 319 172 320"/>
<path stroke-width="1" stroke="black" d="M 275 319 355 275"/>
<path stroke-width="1" stroke="black" d="M 87 282 172 320"/>
<path stroke-width="1" stroke="black" d="M 87 282 31 225"/>
<path stroke-width="1" stroke="black" d="M 20 157 49 90"/>
<path stroke-width="1" stroke="black" d="M 20 157 31 225"/>
<path stroke-width="1" stroke="black" d="M 420 147 411 223"/>
<path stroke-width="1" stroke="black" d="M 420 147 382 89"/>
<path stroke-width="1" stroke="black" d="M 382 89 318 33"/>
<path stroke-width="1" stroke="black" d="M 382 89 420 147"/>
<path stroke-width="1" stroke="black" d="M 355 275 411 223"/>
<path stroke-width="1" stroke="black" d="M 172 320 87 282"/>
<path stroke-width="1" stroke="black" d="M 172 320 275 319"/>
<circle cx="355" cy="275" r="20.0" style="fill:gray;stroke:black;stroke-width:1.0"/>
<circle cx="382" cy="89" r="20.0" style="fill:gray;stroke:black;stroke-width:1.0"/>
<circle cx="420" cy="147" r="20.0" style="fill:gray;stroke:black;stroke-width:1.0"/>
<circle cx="20" cy="157" r="20.0" style="fill:gray;stroke:black;stroke-width:1.0"/>
<circle cx="87" cy="282" r="20.0" style="fill:gray;stroke:black;stroke-width:1.0"/>
<circle cx="275" cy="319" r="20.0" style="fill:gray;stroke:black;stroke-width:1.0"/>
<circle cx="218" cy="20" r="20.0" style="fill:gray;stroke:black;stroke-width:1.0"/>
<circle cx="411" cy="223" r="20.0" style="fill:gray;stroke:black;stroke-width:1.0"/>
<circle cx="31" cy="225" r="20.0" style="fill:gray;stroke:black;stroke-width:1.0"/>
<circle cx="318" cy="33" r="20.0" style="fill:gray;stroke:black;stroke-width:1.0"/>
<circle cx="122" cy="43" r="20.0" style="fill:gray;stroke:black;stroke-width:1.0"/>
<circle cx="49" cy="90" r="20.0" style="fill:gray;stroke:black;stroke-width:1.0"/>
<circle cx="172" cy="320" r="20.0" style="fill:gray;stroke:black;stroke-width:1.0"/>
</svg>
