<svg width="440" height="340" xmlns="http://www.w3.org/2000/svg">
<path stroke-width="1" stroke="black" d="M 277 317 169 320"/>
<path stroke-width="1" stroke="black" d="M 113 43 216 20"/>
<path stroke-width="1" stroke="black" d="M 113 43 51 92"/>
<path stroke-width="1" stroke="black" d="M 216 20 113 43"/>
<path stroke-width="1" stroke="black" d="M 216 20 312 36"/>
<path stroke-width="1" stroke="black" d="M 388 85 312 36"/>
<path stroke-width="1" stroke="black" d="M 388 85 420 150"/>
<path stroke-width="1" stroke="black" d="M 20 161 30 225"/>
<path stroke-width="1" stroke="black" d="M 20 161 51 92"/>
<path stroke-width="1" stroke="black" d="M 360 279 411 218"/>
<path stroke-width="1" stroke="black" d="M 360 279 277 317"/>
<path stroke-width="1" stroke="black" d="M 312 36 216 20"/>
<path stroke-width="1" stroke="black" d="M 312 36 388 85"/>
<path stroke-width="1" stroke="black" d="M 169 320 85 286"/>
<path stroke-width="1" stroke="black" d="M 169 320 277 317"/>
<path stroke-width="1" stroke="black" d="M 30 225 85 286"/>
<path stroke-width="1" stroke="black" d="M 30 225 20 161"/>
<path stroke-width="1" stroke="black" d="M 51 92 113 43"/>
<path stroke-width="1" stroke="black" d="M 51 92 20 161"/>
<path stroke-width="1" stroke="black" d="M 411 218 360 279"/>
<path stroke-width="1" stroke="black" d="M 411 218 420 150"/>
<path stroke-width="1" stroke="black" d="M 420 150 388 85"/>
<path stroke-width="1" stroke="black" d="M 420 150 411 218"/>
<path stroke-width="1" stroke="black" d="M 277 317 360 279"/>
<path stroke-width="1" stroke="black" d="M 85 286 30 225"/>
<path stroke-width="1" stroke="black" d="M 85 286 169 320"/>
<circle cx="277" cy="317" r="7.0" style="fill:red;stroke:black;stroke-width:1.0"/>
<circle cx="420" cy="150" r="7.0" style="fill:green;stroke:black;stroke-width:1.0"/>
<circle cx="411" cy="218" r="7.0" style="fill:red;stroke:black;stroke-width:1.0"/>
<circle cx="51" cy="92" r="7.0" style="fill:blue;stroke:black;stroke-width:1.0"/>
<circle cx="30" cy="225" r="7.0" style="fill:blue;stroke:black;stroke-width:1.0"/>
<circle cx="169" cy="320" r="7.0" style="fill:red;stroke:black;stroke-width:1.0"/>
<circle cx="312" cy="36" r="7.0" style="fill:green;stroke:black;stroke-width:1.0"/>
<circle cx="360" cy="279" r="7.0" style="fill:red;stroke:black;stroke-width:1.0"/>
<circle cx="20" cy="161" r="7.0" style="fill:blue;stroke:black;stroke-width:1.0"/>
<circle cx="388" cy="85" r="7.0" style="fill:green;stroke:black;stroke-width:1.0"/>
<circle cx="216" cy="20" r="7.0" style="fill:green;stroke:black;stroke-width:1.0"/>
<circle cx="113" cy="43" r="7.0" style="fill:blue;stroke:black;stroke-width:1.0"/>
<circle cx="85" cy="286" r="7.0" style="fill:blue;stroke:black;stroke-width:1.0"/>
</svg>
