<svg width="440" height="340" xmlns="http://www.w3.org/2000/svg">
<path stroke-width="1" stroke="black" d="M 90 289 34 231"/>
<path stroke-width="1" stroke="black" d="M 307 32 386 79"/>
<path stroke-width="1" stroke="black" d="M 307 32 212 20"/>
<path stroke-width="1" stroke="black" d="M 386 79 307 32"/>
<path stroke-width="1" stroke="black" d="M 386 79 420 142"/>
<path stroke-width="1" stroke="black" d="M 412 213 420 142"/>
<path stroke-width="1" stroke="black" d="M 412 213 367 272"/>
<path stroke-width="1" stroke="black" d="M 113 44 49 96"/>
<path stroke-width="1" stroke="black" d="M 113 44 212 20"/>
<path stroke-width="1" stroke="black" d="M 182 320 281 313"/>
<path stroke-width="1" stroke="black" d="M 182 320 90 289"/>
<path stroke-width="1" stroke="black" d="M 420 142 386 79"/>
<path stroke-width="1" stroke="black" d="M 420 142 412 213"/>
<path stroke-width="1" stroke="black" d="M 34 231 20 164"/>
<path stroke-width="1" stroke="black" d="M 34 231 90 289"/>
<path stroke-width="1" stroke="black" d="M 49 96 20 164"/>
<path stroke-width="1" stroke="black" d="M 49 96 113 44"/>
<path stroke-width="1" stroke="black" d="M 212 20 307 32"/>
<path stroke-width="1" stroke="black" d="M 212 20 113 44"/>
<path stroke-width="1" stroke="black" d="M 281 313 182 320"/>
<path stroke-width="1" stroke="black" d="M 281 313 367 272"/>
<path stroke-width="1" stroke="black" d="M 367 272 412 213"/>
<path stroke-width="1" stroke="black" d="M 367 272 281 313"/>
<path stroke-width="1" stroke="black" d="M 90 289 182 320"/>
<path stroke-width="1" stroke="black" d="M 20 164 49 96"/>
<path stroke-width="1" stroke="black" d="M 20 164 34 231"/>
<circle cx="90" cy="289" r="20.0" style="fill:red;stroke:black;stroke-width:1.0"/>
<circle cx="367" cy="272" r="20.0" style="fill:green;stroke:black;stroke-width:1.0"/>
<circle cx="281" cy="313" r="20.0" style="fill:red;stroke:black;stroke-width:1.0"/>
<circle cx="212" cy="20" r="20.0" style="fill:blue;stroke:black;stroke-width:1.0"/>
<circle cx="49" cy="96" r="20.0" style="fill:blue;stroke:black;stroke-width:1.0"/>
<circle cx="34" cy="231" r="20.0" style="fill:red;stroke:black;stroke-width:1.0"/>
<circle cx="420" cy="142" r="20.0" style="fill:green;stroke:black;stroke-width:1.0"/>
<circle cx="182" cy="320" r="20.0" style="fill:red;stroke:black;stroke-width:1.0"/>
<circle cx="113" cy="44" r="20.0" style="fill:blue;stroke:black;stroke-width:1.0"/>
<circle cx="412" cy="213" r="20.0" style="fill:green;stroke:black;stroke-width:1.0"/>
<circle cx="386" cy="79" r="20.0" style="fill:green;stroke:black;stroke-width:1.0"/>
<circle cx="307" cy="32" r="20.0" style="fill:blue;stroke:black;stroke-width:1.0"/>
<circle cx="20" cy="164" r="20.0" style="fill:blue;stroke:black;stroke-width:1.0"/>
</svg>
