<svg width="440" height="340" xmlns="http://www.w3.org/2000/svg">
<path stroke-width="1" stroke="black" d="M 84 273 24 209"/>
<path stroke-width="1" stroke="black" d="M 322 43 391 95"/>
<path stroke-width="1" stroke="black" d="M 322 43 236 20"/>
<path stroke-width="1" stroke="black" d="M 391 95 322 43"/>
<path stroke-width="1" stroke="black" d="M 391 95 420 166"/>
<path stroke-width="1" stroke="black" d="M 404 236 420 166"/>
<path stroke-width="1" stroke="black" d="M 404 236 337 292"/>
<path stroke-width="1" stroke="black" d="M 134 31 67 74"/>
<path stroke-width="1" stroke="black" d="M 134 31 236 20"/>
<path stroke-width="1" stroke="black" d="M 152 312 258 320"/>
<path stroke-width="1" stroke="black" d="M 152 312 84 273"/>
<path stroke-width="1" stroke="black" d="M 420 166 391 95"/>
<path stroke-width="1" stroke="black" d="M 420 166 404 236"/>
<path stroke-width="1" stroke="black" d="M 24 209 20 142"/>
<path stroke-width="1" stroke="black" d="M 24 209 84 273"/>
<path stroke-width="1" stroke="black" d="M 67 74 20 142"/>
<path stroke-width="1" stroke="black" d="M 67 74 134 31"/>
<path stroke-width="1" stroke="black" d="M 236 20 322 43"/>
<path stroke-width="1" stroke="black" d="M 236 20 134 31"/>
<path stroke-width="1" stroke="black" d="M 258 320 152 312"/>
<path stroke-width="1" stroke="black" d="M 258 320 337 292"/>
<path stroke-width="1" stroke="black" d="M 337 292 404 236"/>
<path stroke-width="1" stroke="black" d="M 337 292 258 320"/>
<path stroke-width="1" stroke="black" d="M 84 273 152 312"/>
<path stroke-width="1" stroke="black" d="M 20 142 67 74"/>
<path stroke-width="1" stroke="black" d="M 20 142 24 209"/>
<circle cx="84" cy="273" r="7.0" style="fill:gray;stroke:black;stroke-width:1.0"/>
<circle cx="337" cy="292" r="7.0" style="fill:gray;stroke:black;stroke-width:1.0"/>
<circle cx="258" cy="320" r="7.0" style="fill:gray;stroke:black;stroke-width:1.0"/>
<circle cx="236" cy="20" r="7.0" style="fill:gray;stroke:black;stroke-width:1.0"/>
<circle cx="67" cy="74" r="7.0" style="fill:gray;stroke:black;stroke-width:1.0"/>
<circle cx="24" cy="209" r="7.0" style="fill:gray;stroke:black;stroke-width:1.0"/>
<circle cx="420" cy="166" r="7.0" style="fill:gray;stroke:black;stroke-width:1.0"/>
<circle cx="152" cy="312" r="7.0" style="fill:gray;stroke:black;stroke-width:1.0"/>
<circle cx="134" cy="31" r="7.0" style="fill:gray;stroke:black;stroke-width:1.0"/>
<circle cx="404" cy="236" r="7.0" style="fill:gray;stroke:black;stroke-width:1.0"/>
<circle cx="391" cy="95" r="7.0" style="fill:gray;stroke:black;stroke-width:1.0"/>
<circle cx="322" cy="43" r="7.0" style="fill:gray;stroke:black;stroke-width:1.0"/>
<circle cx="20" cy="142" r="7.0" style="fill:gray;stroke:black;stroke-width:1.0"/>
</svg>
