<svg width="440" height="340" xmlns="http://www.w3.org/2000/svg">
<path stroke-width="1" stroke="black" d="M 284 208 409 210"/>
<path stroke-width="1" stroke="black" d="M 108 301 207 20"/>
<path stroke-width="1" stroke="black" d="M 108 301 129 287"/>
<path stroke-width="1" stroke="black" d="M 108 301 349 49"/>
<path stroke-width="1" stroke="black" d="M 108 301 104 203"/>
<path stroke-width="1" stroke="black" d="M 108 301 368 264"/>
<path stroke-width="1" stroke="black" d="M 108 301 409 210"/>
<path stroke-width="1" stroke="black" d="M 108 301 284 208"/>
<path stroke-width="1" stroke="black" d="M 214 213 346 48"/>
<path stroke-width="1" stroke="black" d="M 214 213 237 320"/>
<path stroke-width="1" stroke="black" d="M 214 213 347 130"/>
<path stroke-width="1" stroke="black" d="M 108 301 234 319"/>
<path stroke-width="1" stroke="black" d="M 214 213 225 54"/>
<path stroke-width="1" stroke="black" d="M 214 213 20 146"/>
<path stroke-width="1" stroke="black" d="M 214 213 108 301"/>
<path stroke-width="1" stroke="black" d="M 214 213 316 192"/>
<path stroke-width="1" stroke="black" d="M 214 213 92 73"/>
<path stroke-width="1" stroke="black" d="M 214 213 25 229"/>
<path stroke-width="1" stroke="black" d="M 214 213 84 76"/>
<path stroke-width="1" stroke="black" d="M 214 213 420 138"/>
<path stroke-width="1" stroke="black" d="M 214 213 234 319"/>
<path stroke-width="1" stroke="black" d="M 214 213 207 20"/>
<path stroke-width="1" stroke="black" d="M 214 213 129 287"/>
<path stroke-width="1" stroke="black" d="M 214 213 327 314"/>
<path stroke-width="1" stroke="black" d="M 214 213 349 49"/>
<path stroke-width="1" stroke="black" d="M 108 301 420 138"/>
<path stroke-width="1" stroke="black" d="M 108 301 25 229"/>
<path stroke-width="1" stroke="black" d="M 20 146 316 192"/>
<path stroke-width="1" stroke="black" d="M 20 146 92 73"/>
<path stroke-width="1" stroke="black" d="M 20 146 25 229"/>
<path stroke-width="1" stroke="black" d="M 20 146 84 76"/>
<path stroke-width="1" stroke="black" d="M 20 146 420 138"/>
<path stroke-width="1" stroke="black" d="M 20 146 234 319"/>
<path stroke-width="1" stroke="black" d="M 20 146 207 20"/>
<path stroke-width="1" stroke="black" d="M 20 146 129 287"/>
<path stroke-width="1" stroke="black" d="M 20 146 349 49"/>
<path stroke-width="1" stroke="black" d="M 20 146 104 203"/>
<path stroke-width="1" stroke="black" d="M 108 301 84 76"/>
<path stroke-width="1" stroke="black" d="M 20 146 368 264"/>
<path stroke-width="1" stroke="black" d="M 20 146 284 208"/>
<path stroke-width="1" stroke="black" d="M 108 301 346 48"/>
<path stroke-width="1" stroke="black" d="M 108 301 237 320"/>
<path stroke-width="1" stroke="black" d="M 108 301 347 130"/>
<path stroke-width="1" stroke="black" d="M 108 301 225 54"/>
<path stroke-width="1" stroke="black" d="M 108 301 327 314"/>
<path stroke-width="1" stroke="black" d="M 108 301 20 146"/>
<path stroke-width="1" stroke="black" d="M 108 301 214 213"/>
<path stroke-width="1" stroke="black" d="M 108 301 316 192"/>
<path stroke-width="1" stroke="black" d="M 108 301 92 73"/>
<path stroke-width="1" stroke="black" d="M 20 146 409 210"/>
<path stroke-width="1" stroke="black" d="M 214 213 104 203"/>
<path stroke-width="1" stroke="black" d="M 214 213 368 264"/>
<path stroke-width="1" stroke="black" d="M 214 213 409 210"/>
<path stroke-width="1" stroke="black" d="M 92 73 108 301"/>
<path stroke-width="1" stroke="black" d="M 92 73 214 213"/>
<path stroke-width="1" stroke="black" d="M 92 73 316 192"/>
<path stroke-width="1" stroke="black" d="M 92 73 25 229"/>
<path stroke-width="1" stroke="black" d="M 92 73 84 76"/>
<path stroke-width="1" stroke="black" d="M 92 73 420 138"/>
<path stroke-width="1" stroke="black" d="M 92 73 234 319"/>
<path stroke-width="1" stroke="black" d="M 92 73 207 20"/>
<path stroke-width="1" stroke="black" d="M 92 73 129 287"/>
<path stroke-width="1" stroke="black" d="M 92 73 349 49"/>
<path stroke-width="1" stroke="black" d="M 92 73 20 146"/>
<path stroke-width="1" stroke="black" d="M 92 73 104 203"/>
<path stroke-width="1" stroke="black" d="M 92 73 409 210"/>
<path stroke-width="1" stroke="black" d="M 92 73 284 208"/>
<path stroke-width="1" stroke="black" d="M 25 229 346 48"/>
<path stroke-width="1" stroke="black" d="M 25 229 237 320"/>
<path stroke-width="1" stroke="black" d="M 25 229 347 130"/>
<path stroke-width="1" stroke="black" d="M 25 229 225 54"/>
<path stroke-width="1" stroke="black" d="M 25 229 327 314"/>
<path stroke-width="1" stroke="black" d="M 25 229 20 146"/>
<path stroke-width="1" stroke="black" d="M 25 229 108 301"/>
<path stroke-width="1" stroke="black" d="M 25 229 214 213"/>
<path stroke-width="1" stroke="black" d="M 92 73 368 264"/>
<path stroke-width="1" stroke="black" d="M 92 73 327 314"/>
<path stroke-width="1" stroke="black" d="M 92 73 225 54"/>
<path stroke-width="1" stroke="black" d="M 92 73 347 130"/>
<path stroke-width="1" stroke="black" d="M 214 213 284 208"/>
<path stroke-width="1" stroke="black" d="M 316 192 346 48"/>
<path stroke-width="1" stroke="black" d="M 316 192 237 320"/>
<path stroke-width="1" stroke="black" d="M 316 192 347 130"/>
<path stroke-width="1" stroke="black" d="M 316 192 225 54"/>
<path stroke-width="1" stroke="black" d="M 316 192 327 314"/>
<path stroke-width="1" stroke="black" d="M 316 192 20 146"/>
<path stroke-width="1" stroke="black" d="M 316 192 108 301"/>
<path stroke-width="1" stroke="black" d="M 316 192 214 213"/>
<path stroke-width="1" stroke="black" d="M 316 192 92 73"/>
<path stroke-width="1" stroke="black" d="M 316 192 25 229"/>
<path stroke-width="1" stroke="black" d="M 316 192 84 76"/>
<path stroke-width="1" stroke="black" d="M 316 192 420 138"/>
<path stroke-width="1" stroke="black" d="M 316 192 234 319"/>
<path stroke-width="1" stroke="black" d="M 316 192 207 20"/>
<path stroke-width="1" stroke="black" d="M 316 192 129 287"/>
<path stroke-width="1" stroke="black" d="M 316 192 349 49"/>
<path stroke-width="1" stroke="black" d="M 316 192 104 203"/>
<path stroke-width="1" stroke="black" d="M 316 192 368 264"/>
<path stroke-width="1" stroke="black" d="M 316 192 409 210"/>
<path stroke-width="1" stroke="black" d="M 316 192 284 208"/>
<path stroke-width="1" stroke="black" d="M 92 73 346 48"/>
<path stroke-width="1" stroke="black" d="M 92 73 237 320"/>
<path stroke-width="1" stroke="black" d="M 20 146 214 213"/>
<path stroke-width="1" stroke="black" d="M 25 229 316 192"/>
<path stroke-width="1" stroke="black" d="M 20 146 108 301"/>
<path stroke-width="1" stroke="black" d="M 20 146 225 54"/>
<path stroke-width="1" stroke="black" d="M 237 320 92 73"/>
<path stroke-width="1" stroke="black" d="M 237 320 25 229"/>
<path stroke-width="1" stroke="black" d="M 237 320 84 76"/>
<path stroke-width="1" stroke="black" d="M 237 320 420 138"/>
<path stroke-width="1" stroke="black" d="M 237 320 234 319"/>
<path stroke-width="1" stroke="black" d="M 237 320 207 20"/>
<path stroke-width="1" stroke="black" d="M 237 320 129 287"/>
<path stroke-width="1" stroke="black" d="M 237 320 349 49"/>
<path stroke-width="1" stroke="black" d="M 237 320 104 203"/>
<path stroke-width="1" stroke="black" d="M 237 320 368 264"/>
<path stroke-width="1" stroke="black" d="M 237 320 316 192"/>
<path stroke-width="1" stroke="black" d="M 237 320 409 210"/>
<path stroke-width="1" stroke="black" d="M 347 130 346 48"/>
<path stroke-width="1" stroke="black" d="M 347 130 237 320"/>
<path stroke-width="1" stroke="black" d="M 347 130 225 54"/>
<path stroke-width="1" stroke="black" d="M 347 130 327 314"/>
<path stroke-width="1" stroke="black" d="M 347 130 20 146"/>
<path stroke-width="1" stroke="black" d="M 347 130 108 301"/>
<path stroke-width="1" stroke="black" d="M 347 130 214 213"/>
<path stroke-width="1" stroke="black" d="M 347 130 316 192"/>
<path stroke-width="1" stroke="black" d="M 347 130 92 73"/>
<path stroke-width="1" stroke="black" d="M 347 130 25 229"/>
<path stroke-width="1" stroke="black" d="M 237 320 284 208"/>
<path stroke-width="1" stroke="black" d="M 347 130 84 76"/>
<path stroke-width="1" stroke="black" d="M 237 320 214 213"/>
<path stroke-width="1" stroke="black" d="M 237 320 20 146"/>
<path stroke-width="1" stroke="black" d="M 346 48 225 54"/>
<path stroke-width="1" stroke="black" d="M 346 48 327 314"/>
<path stroke-width="1" stroke="black" d="M 346 48 20 146"/>
<path stroke-width="1" stroke="black" d="M 346 48 108 301"/>
<path stroke-width="1" stroke="black" d="M 346 48 214 213"/>
<path stroke-width="1" stroke="black" d="M 346 48 316 192"/>
<path stroke-width="1" stroke="black" d="M 346 48 92 73"/>
<path stroke-width="1" stroke="black" d="M 346 48 25 229"/>
<path stroke-width="1" stroke="black" d="M 346 48 84 76"/>
<path stroke-width="1" stroke="black" d="M 346 48 420 138"/>
<path stroke-width="1" stroke="black" d="M 237 320 108 301"/>
<path stroke-width="1" stroke="black" d="M 346 48 234 319"/>
<path stroke-width="1" stroke="black" d="M 346 48 129 287"/>
<path stroke-width="1" stroke="black" d="M 346 48 349 49"/>
<path stroke-width="1" stroke="black" d="M 346 48 104 203"/>
<path stroke-width="1" stroke="black" d="M 346 48 368 264"/>
<path stroke-width="1" stroke="black" d="M 346 48 409 210"/>
<path stroke-width="1" stroke="black" d="M 346 48 284 208"/>
<path stroke-width="1" stroke="black" d="M 237 320 346 48"/>
<path stroke-width="1" stroke="black" d="M 237 320 347 130"/>
<path stroke-width="1" stroke="black" d="M 237 320 225 54"/>
<path stroke-width="1" stroke="black" d="M 237 320 327 314"/>
<path stroke-width="1" stroke="black" d="M 346 48 207 20"/>
<path stroke-width="1" stroke="black" d="M 347 130 420 138"/>
<path stroke-width="1" stroke="black" d="M 347 130 234 319"/>
<path stroke-width="1" stroke="black" d="M 347 130 207 20"/>
<path stroke-width="1" stroke="black" d="M 327 314 237 320"/>
<path stroke-width="1" stroke="black" d="M 327 314 347 130"/>
<path stroke-width="1" stroke="black" d="M 327 314 225 54"/>
<path stroke-width="1" stroke="black" d="M 327 314 20 146"/>
<path stroke-width="1" stroke="black" d="M 327 314 108 301"/>
<path stroke-width="1" stroke="black" d="M 327 314 214 213"/>
<path stroke-width="1" stroke="black" d="M 327 314 316 192"/>
<path stroke-width="1" stroke="black" d="M 327 314 92 73"/>
<path stroke-width="1" stroke="black" d="M 327 314 25 229"/>
<path stroke-width="1" stroke="black" d="M 327 314 84 76"/>
<path stroke-width="1" stroke="black" d="M 327 314 346 48"/>
<path stroke-width="1" stroke="black" d="M 327 314 420 138"/>
<path stroke-width="1" stroke="black" d="M 327 314 207 20"/>
<path stroke-width="1" stroke="black" d="M 327 314 129 287"/>
<path stroke-width="1" stroke="black" d="M 327 314 349 49"/>
<path stroke-width="1" stroke="black" d="M 327 314 104 203"/>
<path stroke-width="1" stroke="black" d="M 327 314 368 264"/>
<path stroke-width="1" stroke="black" d="M 327 314 409 210"/>
<path stroke-width="1" stroke="black" d="M 327 314 284 208"/>
<path stroke-width="1" stroke="black" d="M 20 146 346 48"/>
<path stroke-width="1" stroke="black" d="M 20 146 237 320"/>
<path stroke-width="1" stroke="black" d="M 20 146 347 130"/>
<path stroke-width="1" stroke="black" d="M 327 314 234 319"/>
<path stroke-width="1" stroke="black" d="M 225 54 284 208"/>
<path stroke-width="1" stroke="black" d="M 225 54 409 210"/>
<path stroke-width="1" stroke="black" d="M 225 54 368 264"/>
<path stroke-width="1" stroke="black" d="M 347 130 129 287"/>
<path stroke-width="1" stroke="black" d="M 347 130 349 49"/>
<path stroke-width="1" stroke="black" d="M 347 130 104 203"/>
<path stroke-width="1" stroke="black" d="M 347 130 368 264"/>
<path stroke-width="1" stroke="black" d="M 347 130 409 210"/>
<path stroke-width="1" stroke="black" d="M 347 130 284 208"/>
<path stroke-width="1" stroke="black" d="M 225 54 346 48"/>
<path stroke-width="1" stroke="black" d="M 225 54 237 320"/>
<path stroke-width="1" stroke="black" d="M 225 54 347 130"/>
<path stroke-width="1" stroke="black" d="M 225 54 327 314"/>
<path stroke-width="1" stroke="black" d="M 225 54 20 146"/>
<path stroke-width="1" stroke="black" d="M 225 54 108 301"/>
<path stroke-width="1" stroke="black" d="M 225 54 214 213"/>
<path stroke-width="1" stroke="black" d="M 225 54 316 192"/>
<path stroke-width="1" stroke="black" d="M 225 54 92 73"/>
<path stroke-width="1" stroke="black" d="M 225 54 25 229"/>
<path stroke-width="1" stroke="black" d="M 225 54 84 76"/>
<path stroke-width="1" stroke="black" d="M 225 54 420 138"/>
<path stroke-width="1" stroke="black" d="M 225 54 234 319"/>
<path stroke-width="1" stroke="black" d="M 225 54 207 20"/>
<path stroke-width="1" stroke="black" d="M 225 54 129 287"/>
<path stroke-width="1" stroke="black" d="M 225 54 349 49"/>
<path stroke-width="1" stroke="black" d="M 225 54 104 203"/>
<path stroke-width="1" stroke="black" d="M 20 146 327 314"/>
<path stroke-width="1" stroke="black" d="M 25 229 92 73"/>
<path stroke-width="1" stroke="black" d="M 25 229 84 76"/>
<path stroke-width="1" stroke="black" d="M 25 229 420 138"/>
<path stroke-width="1" stroke="black" d="M 104 203 327 314"/>
<path stroke-width="1" stroke="black" d="M 104 203 20 146"/>
<path stroke-width="1" stroke="black" d="M 104 203 108 301"/>
<path stroke-width="1" stroke="black" d="M 104 203 214 213"/>
<path stroke-width="1" stroke="black" d="M 104 203 316 192"/>
<path stroke-width="1" stroke="black" d="M 104 203 92 73"/>
<path stroke-width="1" stroke="black" d="M 104 203 25 229"/>
<path stroke-width="1" stroke="black" d="M 104 203 84 76"/>
<path stroke-width="1" stroke="black" d="M 104 203 420 138"/>
<path stroke-width="1" stroke="black" d="M 104 203 234 319"/>
<path stroke-width="1" stroke="black" d="M 104 203 225 54"/>
<path stroke-width="1" stroke="black" d="M 104 203 207 20"/>
<path stroke-width="1" stroke="black" d="M 104 203 349 49"/>
<path stroke-width="1" stroke="black" d="M 104 203 368 264"/>
<path stroke-width="1" stroke="black" d="M 104 203 409 210"/>
<path stroke-width="1" stroke="black" d="M 104 203 284 208"/>
<path stroke-width="1" stroke="black" d="M 368 264 346 48"/>
<path stroke-width="1" stroke="black" d="M 368 264 237 320"/>
<path stroke-width="1" stroke="black" d="M 368 264 347 130"/>
<path stroke-width="1" stroke="black" d="M 368 264 225 54"/>
<path stroke-width="1" stroke="black" d="M 368 264 327 314"/>
<path stroke-width="1" stroke="black" d="M 368 264 20 146"/>
<path stroke-width="1" stroke="black" d="M 104 203 129 287"/>
<path stroke-width="1" stroke="black" d="M 368 264 108 301"/>
<path stroke-width="1" stroke="black" d="M 104 203 347 130"/>
<path stroke-width="1" stroke="black" d="M 104 203 346 48"/>
<path stroke-width="1" stroke="black" d="M 129 287 409 210"/>
<path stroke-width="1" stroke="black" d="M 129 287 284 208"/>
<path stroke-width="1" stroke="black" d="M 349 49 346 48"/>
<path stroke-width="1" stroke="black" d="M 349 49 237 320"/>
<path stroke-width="1" stroke="black" d="M 349 49 347 130"/>
<path stroke-width="1" stroke="black" d="M 349 49 225 54"/>
<path stroke-width="1" stroke="black" d="M 349 49 327 314"/>
<path stroke-width="1" stroke="black" d="M 349 49 20 146"/>
<path stroke-width="1" stroke="black" d="M 349 49 108 301"/>
<path stroke-width="1" stroke="black" d="M 349 49 214 213"/>
<path stroke-width="1" stroke="black" d="M 104 203 237 320"/>
<path stroke-width="1" stroke="black" d="M 349 49 316 192"/>
<path stroke-width="1" stroke="black" d="M 349 49 25 229"/>
<path stroke-width="1" stroke="black" d="M 349 49 84 76"/>
<path stroke-width="1" stroke="black" d="M 349 49 420 138"/>
<path stroke-width="1" stroke="black" d="M 349 49 234 319"/>
<path stroke-width="1" stroke="black" d="M 349 49 207 20"/>
<path stroke-width="1" stroke="black" d="M 349 49 129 287"/>
<path stroke-width="1" stroke="black" d="M 349 49 104 203"/>
<path stroke-width="1" stroke="black" d="M 349 49 368 264"/>
<path stroke-width="1" stroke="black" d="M 349 49 409 210"/>
<path stroke-width="1" stroke="black" d="M 349 49 284 208"/>
<path stroke-width="1" stroke="black" d="M 349 49 92 73"/>
<path stroke-width="1" stroke="black" d="M 368 264 214 213"/>
<path stroke-width="1" stroke="black" d="M 368 264 316 192"/>
<path stroke-width="1" stroke="black" d="M 368 264 92 73"/>
<path stroke-width="1" stroke="black" d="M 409 210 104 203"/>
<path stroke-width="1" stroke="black" d="M 409 210 368 264"/>
<path stroke-width="1" stroke="black" d="M 409 210 284 208"/>
<path stroke-width="1" stroke="black" d="M 284 208 346 48"/>
<path stroke-width="1" stroke="black" d="M 284 208 237 320"/>
<path stroke-width="1" stroke="black" d="M 284 208 347 130"/>
<path stroke-width="1" stroke="black" d="M 284 208 225 54"/>
<path stroke-width="1" stroke="black" d="M 284 208 327 314"/>
<path stroke-width="1" stroke="black" d="M 284 208 20 146"/>
<path stroke-width="1" stroke="black" d="M 284 208 108 301"/>
<path stroke-width="1" stroke="black" d="M 409 210 349 49"/>
<path stroke-width="1" stroke="black" d="M 284 208 214 213"/>
<path stroke-width="1" stroke="black" d="M 284 208 92 73"/>
<path stroke-width="1" stroke="black" d="M 284 208 25 229"/>
<path stroke-width="1" stroke="black" d="M 284 208 84 76"/>
<path stroke-width="1" stroke="black" d="M 284 208 420 138"/>
<path stroke-width="1" stroke="black" d="M 284 208 234 319"/>
<path stroke-width="1" stroke="black" d="M 284 208 207 20"/>
<path stroke-width="1" stroke="black" d="M 284 208 129 287"/>
<path stroke-width="1" stroke="black" d="M 284 208 349 49"/>
<path stroke-width="1" stroke="black" d="M 284 208 104 203"/>
<path stroke-width="1" stroke="black" d="M 284 208 368 264"/>
<path stroke-width="1" stroke="black" d="M 284 208 316 192"/>
<path stroke-width="1" stroke="black" d="M 409 210 129 287"/>
<path stroke-width="1" stroke="black" d="M 409 210 207 20"/>
<path stroke-width="1" stroke="black" d="M 409 210 234 319"/>
<path stroke-width="1" stroke="black" d="M 368 264 25 229"/>
<path stroke-width="1" stroke="black" d="M 368 264 84 76"/>
<path stroke-width="1" stroke="black" d="M 368 264 420 138"/>
<path stroke-width="1" stroke="black" d="M 368 264 234 319"/>
<path stroke-width="1" stroke="black" d="M 368 264 207 20"/>
<path stroke-width="1" stroke="black" d="M 368 264 129 287"/>
<path stroke-width="1" stroke="black" d="M 368 264 349 49"/>
<path stroke-width="1" stroke="black" d="M 368 264 104 203"/>
<path stroke-width="1" stroke="black" d="M 368 264 409 210"/>
<path stroke-width="1" stroke="black" d="M 368 264 284 208"/>
<path stroke-width="1" stroke="black" d="M 409 210 346 48"/>
<path stroke-width="1" stroke="black" d="M 409 210 237 320"/>
<path stroke-width="1" stroke="black" d="M 409 210 347 130"/>
<path stroke-width="1" stroke="black" d="M 409 210 225 54"/>
<path stroke-width="1" stroke="black" d="M 409 210 327 314"/>
<path stroke-width="1" stroke="black" d="M 409 210 20 146"/>
<path stroke-width="1" stroke="black" d="M 409 210 108 301"/>
<path stroke-width="1" stroke="black" d="M 409 210 214 213"/>
<path stroke-width="1" stroke="black" d="M 409 210 316 192"/>
<path stroke-width="1" stroke="black" d="M 409 210 92 73"/>
<path stroke-width="1" stroke="black" d="M 409 210 25 229"/>
<path stroke-width="1" stroke="black" d="M 409 210 84 76"/>
<path stroke-width="1" stroke="black" d="M 409 210 420 138"/>
<path stroke-width="1" stroke="black" d="M 129 287 368 264"/>
<path stroke-width="1" stroke="black" d="M 129 287 104 203"/>
<path stroke-width="1" stroke="black" d="M 129 287 349 49"/>
<path stroke-width="1" stroke="black" d="M 129 287 207 20"/>
<path stroke-width="1" stroke="black" d="M 84 76 284 208"/>
<path stroke-width="1" stroke="black" d="M 420 138 346 48"/>
<path stroke-width="1" stroke="black" d="M 420 138 237 320"/>
<path stroke-width="1" stroke="black" d="M 420 138 347 130"/>
<path stroke-width="1" stroke="black" d="M 420 138 225 54"/>
<path stroke-width="1" stroke="black" d="M 420 138 327 314"/>
<path stroke-width="1" stroke="black" d="M 420 138 20 146"/>
<path stroke-width="1" stroke="black" d="M 420 138 108 301"/>
<path stroke-width="1" stroke="black" d="M 420 138 214 213"/>
<path stroke-width="1" stroke="black" d="M 420 138 316 192"/>
<path stroke-width="1" stroke="black" d="M 84 76 409 210"/>
<path stroke-width="1" stroke="black" d="M 420 138 92 73"/>
<path stroke-width="1" stroke="black" d="M 420 138 84 76"/>
<path stroke-width="1" stroke="black" d="M 420 138 234 319"/>
<path stroke-width="1" stroke="black" d="M 420 138 207 20"/>
<path stroke-width="1" stroke="black" d="M 420 138 129 287"/>
<path stroke-width="1" stroke="black" d="M 420 138 349 49"/>
<path stroke-width="1" stroke="black" d="M 420 138 104 203"/>
<path stroke-width="1" stroke="black" d="M 420 138 368 264"/>
<path stroke-width="1" stroke="black" d="M 420 138 409 210"/>
<path stroke-width="1" stroke="black" d="M 420 138 284 208"/>
<path stroke-width="1" stroke="black" d="M 234 319 346 48"/>
<path stroke-width="1" stroke="black" d="M 420 138 25 229"/>
<path stroke-width="1" stroke="black" d="M 84 76 368 264"/>
<path stroke-width="1" stroke="black" d="M 84 76 104 203"/>
<path stroke-width="1" stroke="black" d="M 84 76 349 49"/>
<path stroke-width="1" stroke="black" d="M 25 229 234 319"/>
<path stroke-width="1" stroke="black" d="M 25 229 207 20"/>
<path stroke-width="1" stroke="black" d="M 25 229 129 287"/>
<path stroke-width="1" stroke="black" d="M 25 229 349 49"/>
<path stroke-width="1" stroke="black" d="M 25 229 104 203"/>
<path stroke-width="1" stroke="black" d="M 25 229 368 264"/>
<path stroke-width="1" stroke="black" d="M 25 229 409 210"/>
<path stroke-width="1" stroke="black" d="M 25 229 284 208"/>
<path stroke-width="1" stroke="black" d="M 84 76 346 48"/>
<path stroke-width="1" stroke="black" d="M 84 76 237 320"/>
<path stroke-width="1" stroke="black" d="M 84 76 347 130"/>
<path stroke-width="1" stroke="black" d="M 84 76 225 54"/>
<path stroke-width="1" stroke="black" d="M 84 76 327 314"/>
<path stroke-width="1" stroke="black" d="M 84 76 20 146"/>
<path stroke-width="1" stroke="black" d="M 84 76 108 301"/>
<path stroke-width="1" stroke="black" d="M 84 76 214 213"/>
<path stroke-width="1" stroke="black" d="M 84 76 316 192"/>
<path stroke-width="1" stroke="black" d="M 84 76 92 73"/>
<path stroke-width="1" stroke="black" d="M 84 76 25 229"/>
<path stroke-width="1" stroke="black" d="M 84 76 420 138"/>
<path stroke-width="1" stroke="black" d="M 84 76 234 319"/>
<path stroke-width="1" stroke="black" d="M 84 76 207 20"/>
<path stroke-width="1" stroke="black" d="M 84 76 129 287"/>
<path stroke-width="1" stroke="black" d="M 234 319 237 320"/>
<path stroke-width="1" stroke="black" d="M 346 48 347 130"/>
<path stroke-width="1" stroke="black" d="M 234 319 347 130"/>
<path stroke-width="1" stroke="black" d="M 234 319 327 314"/>
<path stroke-width="1" stroke="black" d="M 207 20 420 138"/>
<path stroke-width="1" stroke="black" d="M 207 20 234 319"/>
<path stroke-width="1" stroke="black" d="M 207 20 129 287"/>
<path stroke-width="1" stroke="black" d="M 207 20 349 49"/>
<path stroke-width="1" stroke="black" d="M 207 20 104 203"/>
<path stroke-width="1" stroke="black" d="M 207 20 368 264"/>
<path stroke-width="1" stroke="black" d="M 207 20 409 210"/>
<path stroke-width="1" stroke="black" d="M 207 20 284 208"/>
<path stroke-width="1" stroke="black" d="M 129 287 346 48"/>
<path stroke-width="1" stroke="black" d="M 129 287 237 320"/>
<path stroke-width="1" stroke="black" d="M 207 20 84 76"/>
<path stroke-width="1" stroke="black" d="M 129 287 347 130"/>
<path stroke-width="1" stroke="black" d="M 129 287 327 314"/>
<path stroke-width="1" stroke="black" d="M 129 287 20 146"/>
<path stroke-width="1" stroke="black" d="M 129 287 108 301"/>
<path stroke-width="1" stroke="black" d="M 129 287 214 213"/>
<path stroke-width="1" stroke="black" d="M 129 287 316 192"/>
<path stroke-width="1" stroke="black" d="M 129 287 92 73"/>
<path stroke-width="1" stroke="black" d="M 129 287 25 229"/>
<path stroke-width="1" stroke="black" d="M 129 287 84 76"/>
<path stroke-width="1" stroke="black" d="M 129 287 420 138"/>
<path stroke-width="1" stroke="black" d="M 129 287 234 319"/>
<path stroke-width="1" stroke="black" d="M 129 287 225 54"/>
<path stroke-width="1" stroke="black" d="M 207 20 25 229"/>
<path stroke-width="1" stroke="black" d="M 207 20 92 73"/>
<path stroke-width="1" stroke="black" d="M 207 20 316 192"/>
<path stroke-width="1" stroke="black" d="M 234 319 20 146"/>
<path stroke-width="1" stroke="black" d="M 234 319 108 301"/>
<path stroke-width="1" stroke="black" d="M 234 319 214 213"/>
<path stroke-width="1" stroke="black" d="M 234 319 316 192"/>
<path stroke-width="1" stroke="black" d="M 234 319 92 73"/>
<path stroke-width="1" stroke="black" d="M 234 319 25 229"/>
<path stroke-width="1" stroke="black" d="M 234 319 84 76"/>
<path stroke-width="1" stroke="black" d="M 234 319 420 138"/>
<path stroke-width="1" stroke="black" d="M 234 319 207 20"/>
<path stroke-width="1" stroke="black" d="M 234 319 129 287"/>
<path stroke-width="1" stroke="black" d="M 234 319 349 49"/>
<path stroke-width="1" stroke="black" d="M 234 319 104 203"/>
<path stroke-width="1" stroke="black" d="M 234 319 368 264"/>
<path stroke-width="1" stroke="black" d="M 234 319 409 210"/>
<path stroke-width="1" stroke="black" d="M 234 319 284 208"/>
<path stroke-width="1" stroke="black" d="M 207 20 346 48"/>
<path stroke-width="1" stroke="black" d="M 207 20 237 320"/>
<path stroke-width="1" stroke="black" d="M 207 20 347 130"/>
<path stroke-width="1" stroke="black" d="M 207 20 225 54"/>
<path stroke-width="1" stroke="black" d="M 207 20 327 314"/>
<path stroke-width="1" stroke="black" d="M 207 20 20 146"/>
<path stroke-width="1" stroke="black" d="M 207 20 108 301"/>
<path stroke-width="1" stroke="black" d="M 207 20 214 213"/>
<path stroke-width="1" stroke="black" d="M 234 319 225 54"/>
<path stroke-width="1" stroke="black" d="M 346 48 237 320"/>
<circle cx="284" cy="208" r="7.0" style="fill:gray;stroke:black;stroke-width:1.0"/>
<circle cx="409" cy="210" r="7.0" style="fill:gray;stroke:black;stroke-width:1.0"/>
<circle cx="368" cy="264" r="7.0" style="fill:gray;stroke:black;stroke-width:1.0"/>
<circle cx="104" cy="203" r="7.0" style="fill:gray;stroke:black;stroke-width:1.0"/>
<circle cx="349" cy="49" r="7.0" style="fill:gray;stroke:black;stroke-width:1.0"/>
<circle cx="129" cy="287" r="7.0" style="fill:gray;stroke:black;stroke-width:1.0"/>
<circle cx="207" cy="20" r="7.0" style="fill:gray;stroke:black;stroke-width:1.0"/>
<circle cx="234" cy="319" r="7.0" style="fill:gray;stroke:black;stroke-width:1.0"/>
<circle cx="420" cy="138" r="7.0" style="fill:gray;stroke:black;stroke-width:1.0"/>
<circle cx="84" cy="76" r="7.0" style="fill:gray;stroke:black;stroke-width:1.0"/>
<circle cx="25" cy="229" r="7.0" style="fill:gray;stroke:black;stroke-width:1.0"/>
<circle cx="92" cy="73" r="7.0" style="fill:gray;stroke:black;stroke-width:1.0"/>
<circle cx="316" cy="192" r="7.0" style="fill:gray;stroke:black;stroke-width:1.0"/>
<circle cx="214" cy="213" r="7.0" style="fill:gray;stroke:black;stroke-width:1.0"/>
<circle cx="108" cy="301" r="7.0" style="fill:gray;stroke:black;stroke-width:1.0"/>
<circle cx="20" cy="146" r="7.0" style="fill:gray;stroke:black;stroke-width:1.0"/>
<circle cx="327" cy="314" r="7.0" style="fill:gray;stroke:black;stroke-width:1.0"/>
<circle cx="225" cy="54" r="7.0" style="fill:gray;stroke:black;stroke-width:1.0"/>
<circle cx="347" cy="130" r="7.0" style="fill:gray;stroke:black;stroke-width:1.0"/>
<circle cx="237" cy="320" r="7.0" style="fill:gray;stroke:black;stroke-width:1.0"/>
<circle cx="346" cy="48" r="7.0" style="fill:gray;stroke:black;stroke-width:1.0"/>
</svg>
