<svg width="440" height="340" xmlns="http://www.w3.org/2000/svg">
<path stroke-width="1" stroke="black" d="M 240 208 285 42"/>
<path stroke-width="1" stroke="black" d="M 420 181 267 222"/>
<path stroke-width="1" stroke="black" d="M 420 181 329 289"/>
<path stroke-width="1" stroke="black" d="M 420 181 20 174"/>
<path stroke-width="1" stroke="black" d="M 420 181 111 178"/>
<path stroke-width="1" stroke="black" d="M 420 181 268 39"/>
<path stroke-width="1" stroke="black" d="M 420 181 285 42"/>
<path stroke-width="1" stroke="black" d="M 420 181 240 208"/>
<path stroke-width="1" stroke="black" d="M 222 116 379 195"/>
<path stroke-width="1" stroke="black" d="M 222 116 208 291"/>
<path stroke-width="1" stroke="black" d="M 222 116 376 99"/>
<path stroke-width="1" stroke="black" d="M 420 181 95 70"/>
<path stroke-width="1" stroke="black" d="M 222 116 118 243"/>
<path stroke-width="1" stroke="black" d="M 222 116 119 309"/>
<path stroke-width="1" stroke="black" d="M 222 116 420 181"/>
<path stroke-width="1" stroke="black" d="M 222 116 359 109"/>
<path stroke-width="1" stroke="black" d="M 222 116 78 77"/>
<path stroke-width="1" stroke="black" d="M 222 116 44 261"/>
<path stroke-width="1" stroke="black" d="M 222 116 174 20"/>
<path stroke-width="1" stroke="black" d="M 222 116 396 254"/>
<path stroke-width="1" stroke="black" d="M 222 116 95 70"/>
<path stroke-width="1" stroke="black" d="M 222 116 267 222"/>
<path stroke-width="1" stroke="black" d="M 222 116 329 289"/>
<path stroke-width="1" stroke="black" d="M 222 116 231 320"/>
<path stroke-width="1" stroke="black" d="M 222 116 20 174"/>
<path stroke-width="1" stroke="black" d="M 420 181 396 254"/>
<path stroke-width="1" stroke="black" d="M 420 181 44 261"/>
<path stroke-width="1" stroke="black" d="M 119 309 359 109"/>
<path stroke-width="1" stroke="black" d="M 119 309 78 77"/>
<path stroke-width="1" stroke="black" d="M 119 309 44 261"/>
<path stroke-width="1" stroke="black" d="M 119 309 174 20"/>
<path stroke-width="1" stroke="black" d="M 119 309 396 254"/>
<path stroke-width="1" stroke="black" d="M 119 309 95 70"/>
<path stroke-width="1" stroke="black" d="M 119 309 267 222"/>
<path stroke-width="1" stroke="black" d="M 119 309 329 289"/>
<path stroke-width="1" stroke="black" d="M 119 309 20 174"/>
<path stroke-width="1" stroke="black" d="M 119 309 111 178"/>
<path stroke-width="1" stroke="black" d="M 420 181 174 20"/>
<path stroke-width="1" stroke="black" d="M 119 309 268 39"/>
<path stroke-width="1" stroke="black" d="M 119 309 240 208"/>
<path stroke-width="1" stroke="black" d="M 420 181 379 195"/>
<path stroke-width="1" stroke="black" d="M 420 181 208 291"/>
<path stroke-width="1" stroke="black" d="M 420 181 376 99"/>
<path stroke-width="1" stroke="black" d="M 420 181 118 243"/>
<path stroke-width="1" stroke="black" d="M 420 181 231 320"/>
<path stroke-width="1" stroke="black" d="M 420 181 119 309"/>
<path stroke-width="1" stroke="black" d="M 420 181 222 116"/>
<path stroke-width="1" stroke="black" d="M 420 181 359 109"/>
<path stroke-width="1" stroke="black" d="M 420 181 78 77"/>
<path stroke-width="1" stroke="black" d="M 119 309 285 42"/>
<path stroke-width="1" stroke="black" d="M 222 116 111 178"/>
<path stroke-width="1" stroke="black" d="M 222 116 268 39"/>
<path stroke-width="1" stroke="black" d="M 222 116 285 42"/>
<path stroke-width="1" stroke="black" d="M 78 77 420 181"/>
<path stroke-width="1" stroke="black" d="M 78 77 222 116"/>
<path stroke-width="1" stroke="black" d="M 78 77 359 109"/>
<path stroke-width="1" stroke="black" d="M 78 77 44 261"/>
<path stroke-width="1" stroke="black" d="M 78 77 174 20"/>
<path stroke-width="1" stroke="black" d="M 78 77 396 254"/>
<path stroke-width="1" stroke="black" d="M 78 77 95 70"/>
<path stroke-width="1" stroke="black" d="M 78 77 267 222"/>
<path stroke-width="1" stroke="black" d="M 78 77 329 289"/>
<path stroke-width="1" stroke="black" d="M 78 77 20 174"/>
<path stroke-width="1" stroke="black" d="M 78 77 119 309"/>
<path stroke-width="1" stroke="black" d="M 78 77 111 178"/>
<path stroke-width="1" stroke="black" d="M 78 77 285 42"/>
<path stroke-width="1" stroke="black" d="M 78 77 240 208"/>
<path stroke-width="1" stroke="black" d="M 44 261 379 195"/>
<path stroke-width="1" stroke="black" d="M 44 261 208 291"/>
<path stroke-width="1" stroke="black" d="M 44 261 376 99"/>
<path stroke-width="1" stroke="black" d="M 44 261 118 243"/>
<path stroke-width="1" stroke="black" d="M 44 261 231 320"/>
<path stroke-width="1" stroke="black" d="M 44 261 119 309"/>
<path stroke-width="1" stroke="black" d="M 44 261 420 181"/>
<path stroke-width="1" stroke="black" d="M 44 261 222 116"/>
<path stroke-width="1" stroke="black" d="M 78 77 268 39"/>
<path stroke-width="1" stroke="black" d="M 78 77 231 320"/>
<path stroke-width="1" stroke="black" d="M 78 77 118 243"/>
<path stroke-width="1" stroke="black" d="M 78 77 376 99"/>
<path stroke-width="1" stroke="black" d="M 222 116 240 208"/>
<path stroke-width="1" stroke="black" d="M 359 109 379 195"/>
<path stroke-width="1" stroke="black" d="M 359 109 208 291"/>
<path stroke-width="1" stroke="black" d="M 359 109 376 99"/>
<path stroke-width="1" stroke="black" d="M 359 109 118 243"/>
<path stroke-width="1" stroke="black" d="M 359 109 231 320"/>
<path stroke-width="1" stroke="black" d="M 359 109 119 309"/>
<path stroke-width="1" stroke="black" d="M 359 109 420 181"/>
<path stroke-width="1" stroke="black" d="M 359 109 222 116"/>
<path stroke-width="1" stroke="black" d="M 359 109 78 77"/>
<path stroke-width="1" stroke="black" d="M 359 109 44 261"/>
<path stroke-width="1" stroke="black" d="M 359 109 174 20"/>
<path stroke-width="1" stroke="black" d="M 359 109 396 254"/>
<path stroke-width="1" stroke="black" d="M 359 109 95 70"/>
<path stroke-width="1" stroke="black" d="M 359 109 267 222"/>
<path stroke-width="1" stroke="black" d="M 359 109 329 289"/>
<path stroke-width="1" stroke="black" d="M 359 109 20 174"/>
<path stroke-width="1" stroke="black" d="M 359 109 111 178"/>
<path stroke-width="1" stroke="black" d="M 359 109 268 39"/>
<path stroke-width="1" stroke="black" d="M 359 109 285 42"/>
<path stroke-width="1" stroke="black" d="M 359 109 240 208"/>
<path stroke-width="1" stroke="black" d="M 78 77 379 195"/>
<path stroke-width="1" stroke="black" d="M 78 77 208 291"/>
<path stroke-width="1" stroke="black" d="M 119 309 222 116"/>
<path stroke-width="1" stroke="black" d="M 44 261 359 109"/>
<path stroke-width="1" stroke="black" d="M 119 309 420 181"/>
<path stroke-width="1" stroke="black" d="M 119 309 118 243"/>
<path stroke-width="1" stroke="black" d="M 208 291 78 77"/>
<path stroke-width="1" stroke="black" d="M 208 291 44 261"/>
<path stroke-width="1" stroke="black" d="M 208 291 174 20"/>
<path stroke-width="1" stroke="black" d="M 208 291 396 254"/>
<path stroke-width="1" stroke="black" d="M 208 291 95 70"/>
<path stroke-width="1" stroke="black" d="M 208 291 267 222"/>
<path stroke-width="1" stroke="black" d="M 208 291 329 289"/>
<path stroke-width="1" stroke="black" d="M 208 291 20 174"/>
<path stroke-width="1" stroke="black" d="M 208 291 111 178"/>
<path stroke-width="1" stroke="black" d="M 208 291 268 39"/>
<path stroke-width="1" stroke="black" d="M 208 291 359 109"/>
<path stroke-width="1" stroke="black" d="M 208 291 285 42"/>
<path stroke-width="1" stroke="black" d="M 376 99 379 195"/>
<path stroke-width="1" stroke="black" d="M 376 99 208 291"/>
<path stroke-width="1" stroke="black" d="M 376 99 118 243"/>
<path stroke-width="1" stroke="black" d="M 376 99 231 320"/>
<path stroke-width="1" stroke="black" d="M 376 99 119 309"/>
<path stroke-width="1" stroke="black" d="M 376 99 420 181"/>
<path stroke-width="1" stroke="black" d="M 376 99 222 116"/>
<path stroke-width="1" stroke="black" d="M 376 99 359 109"/>
<path stroke-width="1" stroke="black" d="M 376 99 78 77"/>
<path stroke-width="1" stroke="black" d="M 376 99 44 261"/>
<path stroke-width="1" stroke="black" d="M 208 291 240 208"/>
<path stroke-width="1" stroke="black" d="M 376 99 174 20"/>
<path stroke-width="1" stroke="black" d="M 208 291 222 116"/>
<path stroke-width="1" stroke="black" d="M 208 291 119 309"/>
<path stroke-width="1" stroke="black" d="M 379 195 118 243"/>
<path stroke-width="1" stroke="black" d="M 379 195 231 320"/>
<path stroke-width="1" stroke="black" d="M 379 195 119 309"/>
<path stroke-width="1" stroke="black" d="M 379 195 420 181"/>
<path stroke-width="1" stroke="black" d="M 379 195 222 116"/>
<path stroke-width="1" stroke="black" d="M 379 195 359 109"/>
<path stroke-width="1" stroke="black" d="M 379 195 78 77"/>
<path stroke-width="1" stroke="black" d="M 379 195 44 261"/>
<path stroke-width="1" stroke="black" d="M 379 195 174 20"/>
<path stroke-width="1" stroke="black" d="M 379 195 396 254"/>
<path stroke-width="1" stroke="black" d="M 208 291 420 181"/>
<path stroke-width="1" stroke="black" d="M 379 195 95 70"/>
<path stroke-width="1" stroke="black" d="M 379 195 329 289"/>
<path stroke-width="1" stroke="black" d="M 379 195 20 174"/>
<path stroke-width="1" stroke="black" d="M 379 195 111 178"/>
<path stroke-width="1" stroke="black" d="M 379 195 268 39"/>
<path stroke-width="1" stroke="black" d="M 379 195 285 42"/>
<path stroke-width="1" stroke="black" d="M 379 195 240 208"/>
<path stroke-width="1" stroke="black" d="M 208 291 379 195"/>
<path stroke-width="1" stroke="black" d="M 208 291 376 99"/>
<path stroke-width="1" stroke="black" d="M 208 291 118 243"/>
<path stroke-width="1" stroke="black" d="M 208 291 231 320"/>
<path stroke-width="1" stroke="black" d="M 379 195 267 222"/>
<path stroke-width="1" stroke="black" d="M 376 99 396 254"/>
<path stroke-width="1" stroke="black" d="M 376 99 95 70"/>
<path stroke-width="1" stroke="black" d="M 376 99 267 222"/>
<path stroke-width="1" stroke="black" d="M 231 320 208 291"/>
<path stroke-width="1" stroke="black" d="M 231 320 376 99"/>
<path stroke-width="1" stroke="black" d="M 231 320 118 243"/>
<path stroke-width="1" stroke="black" d="M 231 320 119 309"/>
<path stroke-width="1" stroke="black" d="M 231 320 420 181"/>
<path stroke-width="1" stroke="black" d="M 231 320 222 116"/>
<path stroke-width="1" stroke="black" d="M 231 320 359 109"/>
<path stroke-width="1" stroke="black" d="M 231 320 78 77"/>
<path stroke-width="1" stroke="black" d="M 231 320 44 261"/>
<path stroke-width="1" stroke="black" d="M 231 320 174 20"/>
<path stroke-width="1" stroke="black" d="M 231 320 379 195"/>
<path stroke-width="1" stroke="black" d="M 231 320 396 254"/>
<path stroke-width="1" stroke="black" d="M 231 320 267 222"/>
<path stroke-width="1" stroke="black" d="M 231 320 329 289"/>
<path stroke-width="1" stroke="black" d="M 231 320 20 174"/>
<path stroke-width="1" stroke="black" d="M 231 320 111 178"/>
<path stroke-width="1" stroke="black" d="M 231 320 268 39"/>
<path stroke-width="1" stroke="black" d="M 231 320 285 42"/>
<path stroke-width="1" stroke="black" d="M 231 320 240 208"/>
<path stroke-width="1" stroke="black" d="M 119 309 379 195"/>
<path stroke-width="1" stroke="black" d="M 119 309 208 291"/>
<path stroke-width="1" stroke="black" d="M 119 309 376 99"/>
<path stroke-width="1" stroke="black" d="M 231 320 95 70"/>
<path stroke-width="1" stroke="black" d="M 118 243 240 208"/>
<path stroke-width="1" stroke="black" d="M 118 243 285 42"/>
<path stroke-width="1" stroke="black" d="M 118 243 268 39"/>
<path stroke-width="1" stroke="black" d="M 376 99 329 289"/>
<path stroke-width="1" stroke="black" d="M 376 99 20 174"/>
<path stroke-width="1" stroke="black" d="M 376 99 111 178"/>
<path stroke-width="1" stroke="black" d="M 376 99 268 39"/>
<path stroke-width="1" stroke="black" d="M 376 99 285 42"/>
<path stroke-width="1" stroke="black" d="M 376 99 240 208"/>
<path stroke-width="1" stroke="black" d="M 118 243 379 195"/>
<path stroke-width="1" stroke="black" d="M 118 243 208 291"/>
<path stroke-width="1" stroke="black" d="M 118 243 376 99"/>
<path stroke-width="1" stroke="black" d="M 118 243 231 320"/>
<path stroke-width="1" stroke="black" d="M 118 243 119 309"/>
<path stroke-width="1" stroke="black" d="M 118 243 420 181"/>
<path stroke-width="1" stroke="black" d="M 118 243 222 116"/>
<path stroke-width="1" stroke="black" d="M 118 243 359 109"/>
<path stroke-width="1" stroke="black" d="M 118 243 78 77"/>
<path stroke-width="1" stroke="black" d="M 118 243 44 261"/>
<path stroke-width="1" stroke="black" d="M 118 243 174 20"/>
<path stroke-width="1" stroke="black" d="M 118 243 396 254"/>
<path stroke-width="1" stroke="black" d="M 118 243 95 70"/>
<path stroke-width="1" stroke="black" d="M 118 243 267 222"/>
<path stroke-width="1" stroke="black" d="M 118 243 329 289"/>
<path stroke-width="1" stroke="black" d="M 118 243 20 174"/>
<path stroke-width="1" stroke="black" d="M 118 243 111 178"/>
<path stroke-width="1" stroke="black" d="M 119 309 231 320"/>
<path stroke-width="1" stroke="black" d="M 44 261 78 77"/>
<path stroke-width="1" stroke="black" d="M 44 261 174 20"/>
<path stroke-width="1" stroke="black" d="M 44 261 396 254"/>
<path stroke-width="1" stroke="black" d="M 111 178 231 320"/>
<path stroke-width="1" stroke="black" d="M 111 178 119 309"/>
<path stroke-width="1" stroke="black" d="M 111 178 420 181"/>
<path stroke-width="1" stroke="black" d="M 111 178 222 116"/>
<path stroke-width="1" stroke="black" d="M 111 178 359 109"/>
<path stroke-width="1" stroke="black" d="M 111 178 78 77"/>
<path stroke-width="1" stroke="black" d="M 111 178 44 261"/>
<path stroke-width="1" stroke="black" d="M 111 178 174 20"/>
<path stroke-width="1" stroke="black" d="M 111 178 396 254"/>
<path stroke-width="1" stroke="black" d="M 111 178 95 70"/>
<path stroke-width="1" stroke="black" d="M 111 178 118 243"/>
<path stroke-width="1" stroke="black" d="M 111 178 267 222"/>
<path stroke-width="1" stroke="black" d="M 111 178 20 174"/>
<path stroke-width="1" stroke="black" d="M 111 178 268 39"/>
<path stroke-width="1" stroke="black" d="M 111 178 285 42"/>
<path stroke-width="1" stroke="black" d="M 111 178 240 208"/>
<path stroke-width="1" stroke="black" d="M 268 39 379 195"/>
<path stroke-width="1" stroke="black" d="M 268 39 208 291"/>
<path stroke-width="1" stroke="black" d="M 268 39 376 99"/>
<path stroke-width="1" stroke="black" d="M 268 39 118 243"/>
<path stroke-width="1" stroke="black" d="M 268 39 231 320"/>
<path stroke-width="1" stroke="black" d="M 268 39 119 309"/>
<path stroke-width="1" stroke="black" d="M 111 178 329 289"/>
<path stroke-width="1" stroke="black" d="M 268 39 420 181"/>
<path stroke-width="1" stroke="black" d="M 111 178 376 99"/>
<path stroke-width="1" stroke="black" d="M 111 178 379 195"/>
<path stroke-width="1" stroke="black" d="M 329 289 285 42"/>
<path stroke-width="1" stroke="black" d="M 329 289 240 208"/>
<path stroke-width="1" stroke="black" d="M 20 174 379 195"/>
<path stroke-width="1" stroke="black" d="M 20 174 208 291"/>
<path stroke-width="1" stroke="black" d="M 20 174 376 99"/>
<path stroke-width="1" stroke="black" d="M 20 174 118 243"/>
<path stroke-width="1" stroke="black" d="M 20 174 231 320"/>
<path stroke-width="1" stroke="black" d="M 20 174 119 309"/>
<path stroke-width="1" stroke="black" d="M 20 174 420 181"/>
<path stroke-width="1" stroke="black" d="M 20 174 222 116"/>
<path stroke-width="1" stroke="black" d="M 111 178 208 291"/>
<path stroke-width="1" stroke="black" d="M 20 174 359 109"/>
<path stroke-width="1" stroke="black" d="M 20 174 44 261"/>
<path stroke-width="1" stroke="black" d="M 20 174 174 20"/>
<path stroke-width="1" stroke="black" d="M 20 174 396 254"/>
<path stroke-width="1" stroke="black" d="M 20 174 95 70"/>
<path stroke-width="1" stroke="black" d="M 20 174 267 222"/>
<path stroke-width="1" stroke="black" d="M 20 174 329 289"/>
<path stroke-width="1" stroke="black" d="M 20 174 111 178"/>
<path stroke-width="1" stroke="black" d="M 20 174 268 39"/>
<path stroke-width="1" stroke="black" d="M 20 174 285 42"/>
<path stroke-width="1" stroke="black" d="M 20 174 240 208"/>
<path stroke-width="1" stroke="black" d="M 20 174 78 77"/>
<path stroke-width="1" stroke="black" d="M 268 39 222 116"/>
<path stroke-width="1" stroke="black" d="M 268 39 359 109"/>
<path stroke-width="1" stroke="black" d="M 268 39 78 77"/>
<path stroke-width="1" stroke="black" d="M 285 42 111 178"/>
<path stroke-width="1" stroke="black" d="M 285 42 268 39"/>
<path stroke-width="1" stroke="black" d="M 285 42 240 208"/>
<path stroke-width="1" stroke="black" d="M 240 208 379 195"/>
<path stroke-width="1" stroke="black" d="M 240 208 208 291"/>
<path stroke-width="1" stroke="black" d="M 240 208 376 99"/>
<path stroke-width="1" stroke="black" d="M 240 208 118 243"/>
<path stroke-width="1" stroke="black" d="M 240 208 231 320"/>
<path stroke-width="1" stroke="black" d="M 240 208 119 309"/>
<path stroke-width="1" stroke="black" d="M 240 208 420 181"/>
<path stroke-width="1" stroke="black" d="M 285 42 20 174"/>
<path stroke-width="1" stroke="black" d="M 240 208 222 116"/>
<path stroke-width="1" stroke="black" d="M 240 208 78 77"/>
<path stroke-width="1" stroke="black" d="M 240 208 44 261"/>
<path stroke-width="1" stroke="black" d="M 240 208 174 20"/>
<path stroke-width="1" stroke="black" d="M 240 208 396 254"/>
<path stroke-width="1" stroke="black" d="M 240 208 95 70"/>
<path stroke-width="1" stroke="black" d="M 240 208 267 222"/>
<path stroke-width="1" stroke="black" d="M 240 208 329 289"/>
<path stroke-width="1" stroke="black" d="M 240 208 20 174"/>
<path stroke-width="1" stroke="black" d="M 240 208 111 178"/>
<path stroke-width="1" stroke="black" d="M 240 208 268 39"/>
<path stroke-width="1" stroke="black" d="M 240 208 359 109"/>
<path stroke-width="1" stroke="black" d="M 285 42 329 289"/>
<path stroke-width="1" stroke="black" d="M 285 42 267 222"/>
<path stroke-width="1" stroke="black" d="M 285 42 95 70"/>
<path stroke-width="1" stroke="black" d="M 268 39 44 261"/>
<path stroke-width="1" stroke="black" d="M 268 39 174 20"/>
<path stroke-width="1" stroke="black" d="M 268 39 396 254"/>
<path stroke-width="1" stroke="black" d="M 268 39 95 70"/>
<path stroke-width="1" stroke="black" d="M 268 39 267 222"/>
<path stroke-width="1" stroke="black" d="M 268 39 329 289"/>
<path stroke-width="1" stroke="black" d="M 268 39 20 174"/>
<path stroke-width="1" stroke="black" d="M 268 39 111 178"/>
<path stroke-width="1" stroke="black" d="M 268 39 285 42"/>
<path stroke-width="1" stroke="black" d="M 268 39 240 208"/>
<path stroke-width="1" stroke="black" d="M 285 42 379 195"/>
<path stroke-width="1" stroke="black" d="M 285 42 208 291"/>
<path stroke-width="1" stroke="black" d="M 285 42 376 99"/>
<path stroke-width="1" stroke="black" d="M 285 42 118 243"/>
<path stroke-width="1" stroke="black" d="M 285 42 231 320"/>
<path stroke-width="1" stroke="black" d="M 285 42 119 309"/>
<path stroke-width="1" stroke="black" d="M 285 42 420 181"/>
<path stroke-width="1" stroke="black" d="M 285 42 222 116"/>
<path stroke-width="1" stroke="black" d="M 285 42 359 109"/>
<path stroke-width="1" stroke="black" d="M 285 42 78 77"/>
<path stroke-width="1" stroke="black" d="M 285 42 44 261"/>
<path stroke-width="1" stroke="black" d="M 285 42 174 20"/>
<path stroke-width="1" stroke="black" d="M 285 42 396 254"/>
<path stroke-width="1" stroke="black" d="M 329 289 268 39"/>
<path stroke-width="1" stroke="black" d="M 329 289 111 178"/>
<path stroke-width="1" stroke="black" d="M 329 289 20 174"/>
<path stroke-width="1" stroke="black" d="M 329 289 267 222"/>
<path stroke-width="1" stroke="black" d="M 174 20 240 208"/>
<path stroke-width="1" stroke="black" d="M 396 254 379 195"/>
<path stroke-width="1" stroke="black" d="M 396 254 208 291"/>
<path stroke-width="1" stroke="black" d="M 396 254 376 99"/>
<path stroke-width="1" stroke="black" d="M 396 254 118 243"/>
<path stroke-width="1" stroke="black" d="M 396 254 231 320"/>
<path stroke-width="1" stroke="black" d="M 396 254 119 309"/>
<path stroke-width="1" stroke="black" d="M 396 254 420 181"/>
<path stroke-width="1" stroke="black" d="M 396 254 222 116"/>
<path stroke-width="1" stroke="black" d="M 396 254 359 109"/>
<path stroke-width="1" stroke="black" d="M 174 20 285 42"/>
<path stroke-width="1" stroke="black" d="M 396 254 78 77"/>
<path stroke-width="1" stroke="black" d="M 396 254 174 20"/>
<path stroke-width="1" stroke="black" d="M 396 254 95 70"/>
<path stroke-width="1" stroke="black" d="M 396 254 267 222"/>
<path stroke-width="1" stroke="black" d="M 396 254 329 289"/>
<path stroke-width="1" stroke="black" d="M 396 254 20 174"/>
<path stroke-width="1" stroke="black" d="M 396 254 111 178"/>
<path stroke-width="1" stroke="black" d="M 396 254 268 39"/>
<path stroke-width="1" stroke="black" d="M 396 254 285 42"/>
<path stroke-width="1" stroke="black" d="M 396 254 240 208"/>
<path stroke-width="1" stroke="black" d="M 95 70 379 195"/>
<path stroke-width="1" stroke="black" d="M 396 254 44 261"/>
<path stroke-width="1" stroke="black" d="M 174 20 268 39"/>
<path stroke-width="1" stroke="black" d="M 174 20 111 178"/>
<path stroke-width="1" stroke="black" d="M 174 20 20 174"/>
<path stroke-width="1" stroke="black" d="M 44 261 95 70"/>
<path stroke-width="1" stroke="black" d="M 44 261 267 222"/>
<path stroke-width="1" stroke="black" d="M 44 261 329 289"/>
<path stroke-width="1" stroke="black" d="M 44 261 20 174"/>
<path stroke-width="1" stroke="black" d="M 44 261 111 178"/>
<path stroke-width="1" stroke="black" d="M 44 261 268 39"/>
<path stroke-width="1" stroke="black" d="M 44 261 285 42"/>
<path stroke-width="1" stroke="black" d="M 44 261 240 208"/>
<path stroke-width="1" stroke="black" d="M 174 20 379 195"/>
<path stroke-width="1" stroke="black" d="M 174 20 208 291"/>
<path stroke-width="1" stroke="black" d="M 174 20 376 99"/>
<path stroke-width="1" stroke="black" d="M 174 20 118 243"/>
<path stroke-width="1" stroke="black" d="M 174 20 231 320"/>
<path stroke-width="1" stroke="black" d="M 174 20 119 309"/>
<path stroke-width="1" stroke="black" d="M 174 20 420 181"/>
<path stroke-width="1" stroke="black" d="M 174 20 222 116"/>
<path stroke-width="1" stroke="black" d="M 174 20 359 109"/>
<path stroke-width="1" stroke="black" d="M 174 20 78 77"/>
<path stroke-width="1" stroke="black" d="M 174 20 44 261"/>
<path stroke-width="1" stroke="black" d="M 174 20 396 254"/>
<path stroke-width="1" stroke="black" d="M 174 20 95 70"/>
<path stroke-width="1" stroke="black" d="M 174 20 267 222"/>
<path stroke-width="1" stroke="black" d="M 174 20 329 289"/>
<path stroke-width="1" stroke="black" d="M 95 70 208 291"/>
<path stroke-width="1" stroke="black" d="M 379 195 376 99"/>
<path stroke-width="1" stroke="black" d="M 95 70 376 99"/>
<path stroke-width="1" stroke="black" d="M 95 70 231 320"/>
<path stroke-width="1" stroke="black" d="M 267 222 396 254"/>
<path stroke-width="1" stroke="black" d="M 267 222 95 70"/>
<path stroke-width="1" stroke="black" d="M 267 222 329 289"/>
<path stroke-width="1" stroke="black" d="M 267 222 20 174"/>
<path stroke-width="1" stroke="black" d="M 267 222 111 178"/>
<path stroke-width="1" stroke="black" d="M 267 222 268 39"/>
<path stroke-width="1" stroke="black" d="M 267 222 285 42"/>
<path stroke-width="1" stroke="black" d="M 267 222 240 208"/>
<path stroke-width="1" stroke="black" d="M 329 289 379 195"/>
<path stroke-width="1" stroke="black" d="M 329 289 208 291"/>
<path stroke-width="1" stroke="black" d="M 267 222 174 20"/>
<path stroke-width="1" stroke="black" d="M 329 289 376 99"/>
<path stroke-width="1" stroke="black" d="M 329 289 231 320"/>
<path stroke-width="1" stroke="black" d="M 329 289 119 309"/>
<path stroke-width="1" stroke="black" d="M 329 289 420 181"/>
<path stroke-width="1" stroke="black" d="M 329 289 222 116"/>
<path stroke-width="1" stroke="black" d="M 329 289 359 109"/>
<path stroke-width="1" stroke="black" d="M 329 289 78 77"/>
<path stroke-width="1" stroke="black" d="M 329 289 44 261"/>
<path stroke-width="1" stroke="black" d="M 329 289 174 20"/>
<path stroke-width="1" stroke="black" d="M 329 289 396 254"/>
<path stroke-width="1" stroke="black" d="M 329 289 95 70"/>
<path stroke-width="1" stroke="black" d="M 329 289 118 243"/>
<path stroke-width="1" stroke="black" d="M 267 222 44 261"/>
<path stroke-width="1" stroke="black" d="M 267 222 78 77"/>
<path stroke-width="1" stroke="black" d="M 267 222 359 109"/>
<path stroke-width="1" stroke="black" d="M 95 70 119 309"/>
<path stroke-width="1" stroke="black" d="M 95 70 420 181"/>
<path stroke-width="1" stroke="black" d="M 95 70 222 116"/>
<path stroke-width="1" stroke="black" d="M 95 70 359 109"/>
<path stroke-width="1" stroke="black" d="M 95 70 78 77"/>
<path stroke-width="1" stroke="black" d="M 95 70 44 261"/>
<path stroke-width="1" stroke="black" d="M 95 70 174 20"/>
<path stroke-width="1" stroke="black" d="M 95 70 396 254"/>
<path stroke-width="1" stroke="black" d="M 95 70 267 222"/>
<path stroke-width="1" stroke="black" d="M 95 70 329 289"/>
<path stroke-width="1" stroke="black" d="M 95 70 20 174"/>
<path stroke-width="1" stroke="black" d="M 95 70 111 178"/>
<path stroke-width="1" stroke="black" d="M 95 70 268 39"/>
<path stroke-width="1" stroke="black" d="M 95 70 285 42"/>
<path stroke-width="1" stroke="black" d="M 95 70 240 208"/>
<path stroke-width="1" stroke="black" d="M 267 222 379 195"/>
<path stroke-width="1" stroke="black" d="M 267 222 208 291"/>
<path stroke-width="1" stroke="black" d="M 267 222 376 99"/>
<path stroke-width="1" stroke="black" d="M 267 222 118 243"/>
<path stroke-width="1" stroke="black" d="M 267 222 231 320"/>
<path stroke-width="1" stroke="black" d="M 267 222 119 309"/>
<path stroke-width="1" stroke="black" d="M 267 222 420 181"/>
<path stroke-width="1" stroke="black" d="M 267 222 222 116"/>
<path stroke-width="1" stroke="black" d="M 95 70 118 243"/>
<path stroke-width="1" stroke="black" d="M 379 195 208 291"/>
<circle cx="240" cy="208" r="20.0" style="fill:gray;stroke:black;stroke-width:1.0"/>
<circle cx="285" cy="42" r="20.0" style="fill:gray;stroke:black;stroke-width:1.0"/>
<circle cx="268" cy="39" r="20.0" style="fill:gray;stroke:black;stroke-width:1.0"/>
<circle cx="111" cy="178" r="20.0" style="fill:gray;stroke:black;stroke-width:1.0"/>
<circle cx="20" cy="174" r="20.0" style="fill:gray;stroke:black;stroke-width:1.0"/>
<circle cx="329" cy="289" r="20.0" style="fill:gray;stroke:black;stroke-width:1.0"/>
<circle cx="267" cy="222" r="20.0" style="fill:gray;stroke:black;stroke-width:1.0"/>
<circle cx="95" cy="70" r="20.0" style="fill:gray;stroke:black;stroke-width:1.0"/>
<circle cx="396" cy="254" r="20.0" style="fill:gray;stroke:black;stroke-width:1.0"/>
<circle cx="174" cy="20" r="20.0" style="fill:gray;stroke:black;stroke-width:1.0"/>
<circle cx="44" cy="261" r="20.0" style="fill:gray;stroke:black;stroke-width:1.0"/>
<circle cx="78" cy="77" r="20.0" style="fill:gray;stroke:black;stroke-width:1.0"/>
<circle cx="359" cy="109" r="20.0" style="fill:gray;stroke:black;stroke-width:1.0"/>
<circle cx="222" cy="116" r="20.0" style="fill:gray;stroke:black;stroke-width:1.0"/>
<circle cx="420" cy="181" r="20.0" style="fill:gray;stroke:black;stroke-width:1.0"/>
<circle cx="119" cy="309" r="20.0" style="fill:gray;stroke:black;stroke-width:1.0"/>
<circle cx="231" cy="320" r="20.0" style="fill:gray;stroke:black;stroke-width:1.0"/>
<circle cx="118" cy="243" r="20.0" style="fill:gray;stroke:black;stroke-width:1.0"/>
<circle cx="376" cy="99" r="20.0" style="fill:gray;stroke:black;stroke-width:1.0"/>
<circle cx="208" cy="291" r="20.0" style="fill:gray;stroke:black;stroke-width:1.0"/>
<circle cx="379" cy="195" r="20.0" style="fill:gray;stroke:black;stroke-width:1.0"/>
</svg>
