<svg width="440" height="340" xmlns="http://www.w3.org/2000/svg">
<path stroke-width="1" stroke="black" d="M 135 52 377 309"/>
<path stroke-width="1" stroke="black" d="M 239 114 199 168"/>
<path stroke-width="1" stroke="black" d="M 239 114 75 290"/>
<path stroke-width="1" stroke="black" d="M 239 114 280 257"/>
<path stroke-width="1" stroke="black" d="M 239 114 20 20"/>
<path stroke-width="1" stroke="black" d="M 239 114 33 153"/>
<path stroke-width="1" stroke="black" d="M 239 114 420 145"/>
<path stroke-width="1" stroke="black" d="M 239 114 135 191"/>
<path stroke-width="1" stroke="black" d="M 239 114 377 309"/>
<path stroke-width="1" stroke="black" d="M 239 114 135 52"/>
<path stroke-width="1" stroke="black" d="M 75 290 189 320"/>
<path stroke-width="1" stroke="black" d="M 75 290 198 159"/>
<path stroke-width="1" stroke="black" d="M 75 290 199 168"/>
<path stroke-width="1" stroke="black" d="M 75 290 239 114"/>
<path stroke-width="1" stroke="black" d="M 75 290 280 257"/>
<path stroke-width="1" stroke="black" d="M 75 290 20 20"/>
<path stroke-width="1" stroke="black" d="M 75 290 33 153"/>
<path stroke-width="1" stroke="black" d="M 75 290 420 145"/>
<path stroke-width="1" stroke="black" d="M 75 290 135 191"/>
<path stroke-width="1" stroke="black" d="M 75 290 377 309"/>
<path stroke-width="1" stroke="black" d="M 75 290 135 52"/>
<path stroke-width="1" stroke="black" d="M 280 257 189 320"/>
<path stroke-width="1" stroke="black" d="M 280 257 198 159"/>
<path stroke-width="1" stroke="black" d="M 280 257 199 168"/>
<path stroke-width="1" stroke="black" d="M 280 257 239 114"/>
<path stroke-width="1" stroke="black" d="M 280 257 75 290"/>
<path stroke-width="1" stroke="black" d="M 280 257 20 20"/>
<path stroke-width="1" stroke="black" d="M 280 257 33 153"/>
<path stroke-width="1" stroke="black" d="M 280 257 420 145"/>
<path stroke-width="1" stroke="black" d="M 280 257 135 191"/>
<path stroke-width="1" stroke="black" d="M 239 114 198 159"/>
<path stroke-width="1" stroke="black" d="M 280 257 377 309"/>
<path stroke-width="1" stroke="black" d="M 239 114 189 320"/>
<path stroke-width="1" stroke="black" d="M 199 168 377 309"/>
<path stroke-width="1" stroke="black" d="M 189 320 239 114"/>
<path stroke-width="1" stroke="black" d="M 189 320 75 290"/>
<path stroke-width="1" stroke="black" d="M 189 320 280 257"/>
<path stroke-width="1" stroke="black" d="M 189 320 20 20"/>
<path stroke-width="1" stroke="black" d="M 189 320 33 153"/>
<path stroke-width="1" stroke="black" d="M 189 320 420 145"/>
<path stroke-width="1" stroke="black" d="M 189 320 135 191"/>
<path stroke-width="1" stroke="black" d="M 189 320 377 309"/>
<path stroke-width="1" stroke="black" d="M 189 320 135 52"/>
<path stroke-width="1" stroke="black" d="M 198 159 189 320"/>
<path stroke-width="1" stroke="black" d="M 198 159 199 168"/>
<path stroke-width="1" stroke="black" d="M 198 159 239 114"/>
<path stroke-width="1" stroke="black" d="M 198 159 75 290"/>
<path stroke-width="1" stroke="black" d="M 198 159 280 257"/>
<path stroke-width="1" stroke="black" d="M 198 159 20 20"/>
<path stroke-width="1" stroke="black" d="M 198 159 33 153"/>
<path stroke-width="1" stroke="black" d="M 198 159 420 145"/>
<path stroke-width="1" stroke="black" d="M 198 159 135 191"/>
<path stroke-width="1" stroke="black" d="M 198 159 377 309"/>
<path stroke-width="1" stroke="black" d="M 198 159 135 52"/>
<path stroke-width="1" stroke="black" d="M 199 168 189 320"/>
<path stroke-width="1" stroke="black" d="M 199 168 198 159"/>
<path stroke-width="1" stroke="black" d="M 199 168 239 114"/>
<path stroke-width="1" stroke="black" d="M 199 168 75 290"/>
<path stroke-width="1" stroke="black" d="M 199 168 280 257"/>
<path stroke-width="1" stroke="black" d="M 199 168 20 20"/>
<path stroke-width="1" stroke="black" d="M 199 168 33 153"/>
<path stroke-width="1" stroke="black" d="M 199 168 420 145"/>
<path stroke-width="1" stroke="black" d="M 199 168 135 191"/>
<path stroke-width="1" stroke="black" d="M 199 168 135 52"/>
<path stroke-width="1" stroke="black" d="M 280 257 135 52"/>
<path stroke-width="1" stroke="black" d="M 20 20 189 320"/>
<path stroke-width="1" stroke="black" d="M 20 20 198 159"/>
<path stroke-width="1" stroke="black" d="M 135 191 239 114"/>
<path stroke-width="1" stroke="black" d="M 135 191 75 290"/>
<path stroke-width="1" stroke="black" d="M 135 191 280 257"/>
<path stroke-width="1" stroke="black" d="M 135 191 20 20"/>
<path stroke-width="1" stroke="black" d="M 135 191 33 153"/>
<path stroke-width="1" stroke="black" d="M 135 191 420 145"/>
<path stroke-width="1" stroke="black" d="M 135 191 377 309"/>
<path stroke-width="1" stroke="black" d="M 135 191 135 52"/>
<path stroke-width="1" stroke="black" d="M 377 309 189 320"/>
<path stroke-width="1" stroke="black" d="M 377 309 198 159"/>
<path stroke-width="1" stroke="black" d="M 377 309 199 168"/>
<path stroke-width="1" stroke="black" d="M 377 309 239 114"/>
<path stroke-width="1" stroke="black" d="M 377 309 75 290"/>
<path stroke-width="1" stroke="black" d="M 377 309 280 257"/>
<path stroke-width="1" stroke="black" d="M 377 309 20 20"/>
<path stroke-width="1" stroke="black" d="M 377 309 33 153"/>
<path stroke-width="1" stroke="black" d="M 377 309 420 145"/>
<path stroke-width="1" stroke="black" d="M 377 309 135 191"/>
<path stroke-width="1" stroke="black" d="M 377 309 135 52"/>
<path stroke-width="1" stroke="black" d="M 135 52 189 320"/>
<path stroke-width="1" stroke="black" d="M 135 52 198 159"/>
<path stroke-width="1" stroke="black" d="M 135 52 199 168"/>
<path stroke-width="1" stroke="black" d="M 135 52 239 114"/>
<path stroke-width="1" stroke="black" d="M 135 52 75 290"/>
<path stroke-width="1" stroke="black" d="M 135 52 280 257"/>
<path stroke-width="1" stroke="black" d="M 135 52 20 20"/>
<path stroke-width="1" stroke="black" d="M 135 52 33 153"/>
<path stroke-width="1" stroke="black" d="M 135 52 420 145"/>
<path stroke-width="1" stroke="black" d="M 135 52 135 191"/>
<path stroke-width="1" stroke="black" d="M 135 191 199 168"/>
<path stroke-width="1" stroke="black" d="M 135 191 198 159"/>
<path stroke-width="1" stroke="black" d="M 135 191 189 320"/>
<path stroke-width="1" stroke="black" d="M 420 145 135 52"/>
<path stroke-width="1" stroke="black" d="M 20 20 199 168"/>
<path stroke-width="1" stroke="black" d="M 20 20 239 114"/>
<path stroke-width="1" stroke="black" d="M 20 20 75 290"/>
<path stroke-width="1" stroke="black" d="M 20 20 280 257"/>
<path stroke-width="1" stroke="black" d="M 20 20 33 153"/>
<path stroke-width="1" stroke="black" d="M 20 20 420 145"/>
<path stroke-width="1" stroke="black" d="M 20 20 135 191"/>
<path stroke-width="1" stroke="black" d="M 20 20 377 309"/>
<path stroke-width="1" stroke="black" d="M 20 20 135 52"/>
<path stroke-width="1" stroke="black" d="M 33 153 189 320"/>
<path stroke-width="1" stroke="black" d="M 33 153 198 159"/>
<path stroke-width="1" stroke="black" d="M 33 153 199 168"/>
<path stroke-width="1" stroke="black" d="M 33 153 239 114"/>
<path stroke-width="1" stroke="black" d="M 33 153 75 290"/>
<path stroke-width="1" stroke="black" d="M 189 320 199 168"/>
<path stroke-width="1" stroke="black" d="M 33 153 280 257"/>
<path stroke-width="1" stroke="black" d="M 33 153 420 145"/>
<path stroke-width="1" stroke="black" d="M 33 153 135 191"/>
<path stroke-width="1" stroke="black" d="M 33 153 377 309"/>
<path stroke-width="1" stroke="black" d="M 33 153 135 52"/>
<path stroke-width="1" stroke="black" d="M 420 145 189 320"/>
<path stroke-width="1" stroke="black" d="M 420 145 198 159"/>
<path stroke-width="1" stroke="black" d="M 420 145 199 168"/>
<path stroke-width="1" stroke="black" d="M 420 145 239 114"/>
<path stroke-width="1" stroke="black" d="M 420 145 75 290"/>
<path stroke-width="1" stroke="black" d="M 420 145 280 257"/>
<path stroke-width="1" stroke="black" d="M 420 145 20 20"/>
<path stroke-width="1" stroke="black" d="M 420 145 33 153"/>
<path stroke-width="1" stroke="black" d="M 420 145 135 191"/>
<path stroke-width="1" stroke="black" d="M 420 145 377 309"/>
<path stroke-width="1" stroke="black" d="M 33 153 20 20"/>
<path stroke-width="1" stroke="black" d="M 189 320 198 159"/>
<circle cx="135" cy="52" r="7.0" style="fill:gray;stroke:black;stroke-width:1.0"/>
<circle cx="377" cy="309" r="7.0" style="fill:gray;stroke:black;stroke-width:1.0"/>
<circle cx="135" cy="191" r="7.0" style="fill:gray;stroke:black;stroke-width:1.0"/>
<circle cx="420" cy="145" r="7.0" style="fill:gray;stroke:black;stroke-width:1.0"/>
<circle cx="33" cy="153" r="7.0" style="fill:gray;stroke:black;stroke-width:1.0"/>
<circle cx="20" cy="20" r="7.0" style="fill:gray;stroke:black;stroke-width:1.0"/>
<circle cx="280" cy="257" r="7.0" style="fill:gray;stroke:black;stroke-width:1.0"/>
<circle cx="75" cy="290" r="7.0" style="fill:gray;stroke:black;stroke-width:1.0"/>
<circle cx="239" cy="114" r="7.0" style="fill:gray;stroke:black;stroke-width:1.0"/>
<circle cx="199" cy="168" r="7.0" style="fill:gray;stroke:black;stroke-width:1.0"/>
<circle cx="198" cy="159" r="7.0" style="fill:gray;stroke:black;stroke-width:1.0"/>
<circle cx="189" cy="320" r="7.0" style="fill:gray;stroke:black;stroke-width:1.0"/>
</svg>
