<svg width="440" height="340" xmlns="http://www.w3.org/2000/svg">
<path stroke-width="1" stroke="black" d="M 20 20 62 45"/>
<path stroke-width="1" stroke="black" d="M 420 320 378 277"/>
<path stroke-width="1" stroke="black" d="M 378 277 420 320"/>
<path stroke-width="1" stroke="black" d="M 378 277 331 221"/>
<path stroke-width="1" stroke="black" d="M 331 221 378 277"/>
<path stroke-width="1" stroke="black" d="M 331 221 277 185"/>
<path stroke-width="1" stroke="black" d="M 277 185 331 221"/>
<path stroke-width="1" stroke="black" d="M 277 185 224 138"/>
<path stroke-width="1" stroke="black" d="M 224 138 277 185"/>
<path stroke-width="1" stroke="black" d="M 224 138 168 102"/>
<path stroke-width="1" stroke="black" d="M 168 102 224 138"/>
<path stroke-width="1" stroke="black" d="M 168 102 114 69"/>
<path stroke-width="1" stroke="black" d="M 114 69 168 102"/>
<path stroke-width="1" stroke="black" d="M 114 69 62 45"/>
<path stroke-width="1" stroke="black" d="M 62 45 20 20"/>
<path stroke-width="1" stroke="black" d="M 62 45 114 69"/>
<circle cx="20" cy="20" r="7.0" style="fill:gray;stroke:black;stroke-width:1.0"/>
<circle cx="420" cy="320" r="7.0" style="fill:gray;stroke:black;stroke-width:1.0"/>
<circle cx="378" cy="277" r="7.0" style="fill:gray;stroke:black;stroke-width:1.0"/>
<circle cx="331" cy="221" r="7.0" style="fill:gray;stroke:black;stroke-width:1.0"/>
<circle cx="277" cy="185" r="7.0" style="fill:gray;stroke:black;stroke-width:1.0"/>
<circle cx="224" cy="138" r="7.0" style="fill:gray;stroke:black;stroke-width:1.0"/>
<circle cx="168" cy="102" r="7.0" style="fill:gray;stroke:black;stroke-width:1.0"/>
<circle cx="114" cy="69" r="7.0" style="fill:gray;stroke:black;stroke-width:1.0"/>
<circle cx="62" cy="45" r="7.0" style="fill:gray;stroke:black;stroke-width:1.0"/>
</svg>
