<svg width="440" height="340" xmlns="http://www.w3.org/2000/svg">
<path stroke-width="1" stroke="black" d="M 20 320 49 238"/>
<path stroke-width="1" stroke="black" d="M 420 156 379 96"/>
<path stroke-width="1" stroke="black" d="M 379 96 420 156"/>
<path stroke-width="1" stroke="black" d="M 379 96 324 47"/>
<path stroke-width="1" stroke="black" d="M 324 47 379 96"/>
<path stroke-width="1" stroke="black" d="M 324 47 262 20"/>
<path stroke-width="1" stroke="black" d="M 262 20 324 47"/>
<path stroke-width="1" stroke="black" d="M 262 20 195 28"/>
<path stroke-width="1" stroke="black" d="M 195 28 262 20"/>
<path stroke-width="1" stroke="black" d="M 195 28 136 77"/>
<path stroke-width="1" stroke="black" d="M 136 77 195 28"/>
<path stroke-width="1" stroke="black" d="M 136 77 81 146"/>
<path stroke-width="1" stroke="black" d="M 81 146 136 77"/>
<path stroke-width="1" stroke="black" d="M 81 146 49 238"/>
<path stroke-width="1" stroke="black" d="M 49 238 20 320"/>
<path stroke-width="1" stroke="black" d="M 49 238 81 146"/>
<circle cx="20" cy="320" r="20.0" style="fill:gray;stroke:black;stroke-width:1.0"/>
<circle cx="420" cy="156" r="20.0" style="fill:gray;stroke:black;stroke-width:1.0"/>
<circle cx="379" cy="96" r="20.0" style="fill:gray;stroke:black;stroke-width:1.0"/>
<circle cx="324" cy="47" r="20.0" style="fill:gray;stroke:black;stroke-width:1.0"/>
<circle cx="262" cy="20" r="20.0" style="fill:gray;stroke:black;stroke-width:1.0"/>
<circle cx="195" cy="28" r="20.0" style="fill:gray;stroke:black;stroke-width:1.0"/>
<circle cx="136" cy="77" r="20.0" style="fill:gray;stroke:black;stroke-width:1.0"/>
<circle cx="81" cy="146" r="20.0" style="fill:gray;stroke:black;stroke-width:1.0"/>
<circle cx="49" cy="238" r="20.0" style="fill:gray;stroke:black;stroke-width:1.0"/>
</svg>
