<svg width="440" height="340" xmlns="http://www.w3.org/2000/svg">
<path stroke-width="1" stroke="black" d="M 420 320 407 279"/>
<path stroke-width="1" stroke="black" d="M 20 20 100 33"/>
<path stroke-width="1" stroke="black" d="M 100 33 20 20"/>
<path stroke-width="1" stroke="black" d="M 100 33 175 56"/>
<path stroke-width="1" stroke="black" d="M 175 56 100 33"/>
<path stroke-width="1" stroke="black" d="M 175 56 261 90"/>
<path stroke-width="1" stroke="black" d="M 261 90 175 56"/>
<path stroke-width="1" stroke="black" d="M 261 90 311 132"/>
<path stroke-width="1" stroke="black" d="M 311 132 261 90"/>
<path stroke-width="1" stroke="black" d="M 311 132 360 182"/>
<path stroke-width="1" stroke="black" d="M 360 182 311 132"/>
<path stroke-width="1" stroke="black" d="M 360 182 385 231"/>
<path stroke-width="1" stroke="black" d="M 385 231 360 182"/>
<path stroke-width="1" stroke="black" d="M 385 231 407 279"/>
<path stroke-width="1" stroke="black" d="M 407 279 420 320"/>
<path stroke-width="1" stroke="black" d="M 407 279 385 231"/>
<circle cx="420" cy="320" r="7.0" style="fill:gray;stroke:black;stroke-width:1.0"/>
<circle cx="20" cy="20" r="7.0" style="fill:gray;stroke:black;stroke-width:1.0"/>
<circle cx="100" cy="33" r="7.0" style="fill:gray;stroke:black;stroke-width:1.0"/>
<circle cx="175" cy="56" r="7.0" style="fill:gray;stroke:black;stroke-width:1.0"/>
<circle cx="261" cy="90" r="7.0" style="fill:gray;stroke:black;stroke-width:1.0"/>
<circle cx="311" cy="132" r="7.0" style="fill:gray;stroke:black;stroke-width:1.0"/>
<circle cx="360" cy="182" r="7.0" style="fill:gray;stroke:black;stroke-width:1.0"/>
<circle cx="385" cy="231" r="7.0" style="fill:gray;stroke:black;stroke-width:1.0"/>
<circle cx="407" cy="279" r="7.0" style="fill:gray;stroke:black;stroke-width:1.0"/>
</svg>
