<svg width="440" height="340" xmlns="http://www.w3.org/2000/svg">
<path stroke-width="1" stroke="black" d="M 20 320 28 277"/>
<path stroke-width="1" stroke="black" d="M 420 20 344 30"/>
<path stroke-width="1" stroke="black" d="M 344 30 420 20"/>
<path stroke-width="1" stroke="black" d="M 344 30 259 47"/>
<path stroke-width="1" stroke="black" d="M 259 47 344 30"/>
<path stroke-width="1" stroke="black" d="M 259 47 187 85"/>
<path stroke-width="1" stroke="black" d="M 187 85 259 47"/>
<path stroke-width="1" stroke="black" d="M 187 85 118 123"/>
<path stroke-width="1" stroke="black" d="M 118 123 187 85"/>
<path stroke-width="1" stroke="black" d="M 118 123 77 176"/>
<path stroke-width="1" stroke="black" d="M 77 176 118 123"/>
<path stroke-width="1" stroke="black" d="M 77 176 44 226"/>
<path stroke-width="1" stroke="black" d="M 44 226 77 176"/>
<path stroke-width="1" stroke="black" d="M 44 226 28 277"/>
<path stroke-width="1" stroke="black" d="M 28 277 20 320"/>
<path stroke-width="1" stroke="black" d="M 28 277 44 226"/>
<circle cx="20" cy="320" r="7.0" style="fill:red;stroke:black;stroke-width:1.0"/>
<circle cx="420" cy="20" r="7.0" style="fill:blue;stroke:black;stroke-width:1.0"/>
<circle cx="344" cy="30" r="7.0" style="fill:blue;stroke:black;stroke-width:1.0"/>
<circle cx="259" cy="47" r="7.0" style="fill:blue;stroke:black;stroke-width:1.0"/>
<circle cx="187" cy="85" r="7.0" style="fill:blue;stroke:black;stroke-width:1.0"/>
<circle cx="118" cy="123" r="7.0" style="fill:green;stroke:black;stroke-width:1.0"/>
<circle cx="77" cy="176" r="7.0" style="fill:green;stroke:black;stroke-width:1.0"/>
<circle cx="44" cy="226" r="7.0" style="fill:red;stroke:black;stroke-width:1.0"/>
<circle cx="28" cy="277" r="7.0" style="fill:red;stroke:black;stroke-width:1.0"/>
</svg>
