<svg width="440" height="340" xmlns="http://www.w3.org/2000/svg">
<path stroke-width="1" stroke="black" d="M 334 175 162 320"/>
<path stroke-width="1" stroke="black" d="M 334 175 420 20"/>
<path stroke-width="1" stroke="black" d="M 334 175 20 85"/>
<path stroke-width="1" stroke="black" d="M 162 320 334 175"/>
<path stroke-width="1" stroke="black" d="M 162 320 420 20"/>
<path stroke-width="1" stroke="black" d="M 162 320 20 85"/>
<path stroke-width="1" stroke="black" d="M 420 20 334 175"/>
<path stroke-width="1" stroke="black" d="M 420 20 162 320"/>
<path stroke-width="1" stroke="black" d="M 420 20 20 85"/>
<path stroke-width="1" stroke="black" d="M 20 85 334 175"/>
<path stroke-width="1" stroke="black" d="M 20 85 162 320"/>
<path stroke-width="1" stroke="black" d="M 20 85 420 20"/>
<circle cx="334" cy="175" r="7.0" style="fill:gray;stroke:black;stroke-width:1.0"/>
<circle cx="162" cy="320" r="7.0" style="fill:gray;stroke:black;stroke-width:1.0"/>
<circle cx="420" cy="20" r="7.0" style="fill:gray;stroke:black;stroke-width:1.0"/>
<circle cx="20" cy="85" r="7.0" style="fill:gray;stroke:black;stroke-width:1.0"/>
</svg>
