<svg width="440" height="340" xmlns="http://www.w3.org/2000/svg">
<path stroke-width="1" stroke="black" d="M 110 193 420 29"/>
<path stroke-width="1" stroke="black" d="M 110 193 275 320"/>
<path stroke-width="1" stroke="black" d="M 110 193 20 20"/>
<path stroke-width="1" stroke="black" d="M 420 29 110 193"/>
<path stroke-width="1" stroke="black" d="M 420 29 275 320"/>
<path stroke-width="1" stroke="black" d="M 420 29 20 20"/>
<path stroke-width="1" stroke="black" d="M 275 320 110 193"/>
<path stroke-width="1" stroke="black" d="M 275 320 420 29"/>
<path stroke-width="1" stroke="black" d="M 275 320 20 20"/>
<path stroke-width="1" stroke="black" d="M 20 20 110 193"/>
<path stroke-width="1" stroke="black" d="M 20 20 420 29"/>
<path stroke-width="1" stroke="black" d="M 20 20 275 320"/>
<circle cx="110" cy="193" r="7.0" style="fill:gray;stroke:black;stroke-width:1.0"/>
<circle cx="420" cy="29" r="7.0" style="fill:gray;stroke:black;stroke-width:1.0"/>
<circle cx="275" cy="320" r="7.0" style="fill:gray;stroke:black;stroke-width:1.0"/>
<circle cx="20" cy="20" r="7.0" style="fill:gray;stroke:black;stroke-width:1.0"/>
</svg>
