<svg width="440" height="340" xmlns="http://www.w3.org/2000/svg">
<path stroke-width="20.0" stroke="black" d="M 216 162 304 29"/>
<path stroke-width="0.5" stroke="black" d="M 348 244 199 258"/>
<path stroke-width="0.5" stroke="black" d="M 348 244 20 152"/>
<path stroke-width="0.5" stroke="black" d="M 348 244 80 77"/>
<path stroke-width="0.5" stroke="black" d="M 348 244 117 302"/>
<path stroke-width="0.5" stroke="black" d="M 348 244 282 320"/>
<path stroke-width="0.5" stroke="black" d="M 348 244 420 187"/>
<path stroke-width="0.5" stroke="black" d="M 348 244 55 227"/>
<path stroke-width="0.5" stroke="black" d="M 348 244 381 106"/>
<path stroke-width="20.0" stroke="black" d="M 282 320 216 162"/>
<path stroke-width="0.5" stroke="black" d="M 282 320 304 29"/>
<path stroke-width="0.5" stroke="black" d="M 282 320 253 69"/>
<path stroke-width="0.5" stroke="black" d="M 282 320 172 20"/>
<path stroke-width="0.5" stroke="black" d="M 282 320 199 258"/>
<path stroke-width="0.5" stroke="black" d="M 282 320 20 152"/>
<path stroke-width="0.5" stroke="black" d="M 282 320 80 77"/>
<path stroke-width="0.5" stroke="black" d="M 348 244 172 20"/>
<path stroke-width="0.5" stroke="black" d="M 348 244 253 69"/>
<path stroke-width="0.5" stroke="black" d="M 348 244 304 29"/>
<path stroke-width="20.0" stroke="black" d="M 348 244 216 162"/>
<path stroke-width="0.5" stroke="black" d="M 80 77 282 320"/>
<path stroke-width="0.5" stroke="black" d="M 80 77 420 187"/>
<path stroke-width="0.5" stroke="black" d="M 80 77 55 227"/>
<path stroke-width="0.5" stroke="black" d="M 80 77 381 106"/>
<path stroke-width="20.0" stroke="black" d="M 117 302 216 162"/>
<path stroke-width="0.5" stroke="black" d="M 117 302 304 29"/>
<path stroke-width="0.5" stroke="black" d="M 117 302 253 69"/>
<path stroke-width="0.5" stroke="black" d="M 282 320 117 302"/>
<path stroke-width="0.5" stroke="black" d="M 117 302 172 20"/>
<path stroke-width="0.5" stroke="black" d="M 117 302 20 152"/>
<path stroke-width="0.5" stroke="black" d="M 117 302 80 77"/>
<path stroke-width="0.5" stroke="black" d="M 117 302 348 244"/>
<path stroke-width="0.5" stroke="black" d="M 117 302 282 320"/>
<path stroke-width="0.5" stroke="black" d="M 117 302 420 187"/>
<path stroke-width="0.5" stroke="black" d="M 117 302 55 227"/>
<path stroke-width="0.5" stroke="black" d="M 117 302 381 106"/>
<path stroke-width="0.5" stroke="black" d="M 117 302 199 258"/>
<path stroke-width="0.5" stroke="black" d="M 80 77 348 244"/>
<path stroke-width="0.5" stroke="black" d="M 282 320 348 244"/>
<path stroke-width="0.5" stroke="black" d="M 282 320 55 227"/>
<path stroke-width="0.5" stroke="black" d="M 55 227 117 302"/>
<path stroke-width="0.5" stroke="black" d="M 55 227 348 244"/>
<path stroke-width="0.5" stroke="black" d="M 55 227 282 320"/>
<path stroke-width="0.5" stroke="black" d="M 55 227 420 187"/>
<path stroke-width="0.5" stroke="black" d="M 55 227 381 106"/>
<path stroke-width="20.0" stroke="black" d="M 381 106 216 162"/>
<path stroke-width="0.5" stroke="black" d="M 381 106 304 29"/>
<path stroke-width="0.5" stroke="black" d="M 381 106 253 69"/>
<path stroke-width="0.5" stroke="black" d="M 381 106 172 20"/>
<path stroke-width="0.5" stroke="black" d="M 381 106 199 258"/>
<path stroke-width="0.5" stroke="black" d="M 381 106 20 152"/>
<path stroke-width="0.5" stroke="black" d="M 381 106 80 77"/>
<path stroke-width="0.5" stroke="black" d="M 381 106 117 302"/>
<path stroke-width="0.5" stroke="black" d="M 381 106 348 244"/>
<path stroke-width="0.5" stroke="black" d="M 381 106 282 320"/>
<path stroke-width="0.5" stroke="black" d="M 55 227 80 77"/>
<path stroke-width="0.5" stroke="black" d="M 55 227 20 152"/>
<path stroke-width="0.5" stroke="black" d="M 55 227 199 258"/>
<path stroke-width="0.5" stroke="black" d="M 55 227 172 20"/>
<path stroke-width="0.5" stroke="black" d="M 282 320 381 106"/>
<path stroke-width="20.0" stroke="black" d="M 420 187 216 162"/>
<path stroke-width="0.5" stroke="black" d="M 420 187 304 29"/>
<path stroke-width="0.5" stroke="black" d="M 420 187 253 69"/>
<path stroke-width="0.5" stroke="black" d="M 420 187 172 20"/>
<path stroke-width="0.5" stroke="black" d="M 420 187 199 258"/>
<path stroke-width="0.5" stroke="black" d="M 420 187 20 152"/>
<path stroke-width="0.5" stroke="black" d="M 282 320 420 187"/>
<path stroke-width="0.5" stroke="black" d="M 420 187 80 77"/>
<path stroke-width="0.5" stroke="black" d="M 420 187 348 244"/>
<path stroke-width="0.5" stroke="black" d="M 420 187 282 320"/>
<path stroke-width="0.5" stroke="black" d="M 420 187 55 227"/>
<path stroke-width="0.5" stroke="black" d="M 420 187 381 106"/>
<path stroke-width="20.0" stroke="black" d="M 55 227 216 162"/>
<path stroke-width="0.5" stroke="black" d="M 55 227 304 29"/>
<path stroke-width="0.5" stroke="black" d="M 55 227 253 69"/>
<path stroke-width="0.5" stroke="black" d="M 420 187 117 302"/>
<path stroke-width="0.5" stroke="black" d="M 80 77 117 302"/>
<path stroke-width="0.5" stroke="black" d="M 80 77 20 152"/>
<path stroke-width="0.5" stroke="black" d="M 80 77 199 258"/>
<path stroke-width="0.5" stroke="black" d="M 304 29 420 187"/>
<path stroke-width="0.5" stroke="black" d="M 304 29 55 227"/>
<path stroke-width="0.5" stroke="black" d="M 304 29 381 106"/>
<path stroke-width="20.0" stroke="black" d="M 253 69 216 162"/>
<path stroke-width="0.5" stroke="black" d="M 253 69 304 29"/>
<path stroke-width="0.5" stroke="black" d="M 253 69 172 20"/>
<path stroke-width="0.5" stroke="black" d="M 253 69 199 258"/>
<path stroke-width="0.5" stroke="black" d="M 253 69 20 152"/>
<path stroke-width="0.5" stroke="black" d="M 253 69 80 77"/>
<path stroke-width="0.5" stroke="black" d="M 253 69 117 302"/>
<path stroke-width="0.5" stroke="black" d="M 253 69 348 244"/>
<path stroke-width="0.5" stroke="black" d="M 253 69 282 320"/>
<path stroke-width="0.5" stroke="black" d="M 253 69 420 187"/>
<path stroke-width="0.5" stroke="black" d="M 253 69 55 227"/>
<path stroke-width="0.5" stroke="black" d="M 253 69 381 106"/>
<path stroke-width="0.5" stroke="black" d="M 304 29 282 320"/>
<path stroke-width="0.5" stroke="black" d="M 304 29 348 244"/>
<path stroke-width="0.5" stroke="black" d="M 304 29 117 302"/>
<path stroke-width="0.5" stroke="black" d="M 304 29 80 77"/>
<path stroke-width="20.0" stroke="black" d="M 216 162 253 69"/>
<path stroke-width="20.0" stroke="black" d="M 216 162 172 20"/>
<path stroke-width="20.0" stroke="black" d="M 216 162 199 258"/>
<path stroke-width="20.0" stroke="black" d="M 216 162 20 152"/>
<path stroke-width="20.0" stroke="black" d="M 216 162 80 77"/>
<path stroke-width="20.0" stroke="black" d="M 216 162 117 302"/>
<path stroke-width="20.0" stroke="black" d="M 216 162 348 244"/>
<path stroke-width="20.0" stroke="black" d="M 172 20 216 162"/>
<path stroke-width="20.0" stroke="black" d="M 216 162 282 320"/>
<path stroke-width="20.0" stroke="black" d="M 216 162 55 227"/>
<path stroke-width="20.0" stroke="black" d="M 216 162 381 106"/>
<path stroke-width="20.0" stroke="black" d="M 304 29 216 162"/>
<path stroke-width="0.5" stroke="black" d="M 304 29 253 69"/>
<path stroke-width="0.5" stroke="black" d="M 304 29 172 20"/>
<path stroke-width="0.5" stroke="black" d="M 304 29 199 258"/>
<path stroke-width="0.5" stroke="black" d="M 304 29 20 152"/>
<path stroke-width="20.0" stroke="black" d="M 216 162 420 187"/>
<path stroke-width="0.5" stroke="black" d="M 172 20 304 29"/>
<path stroke-width="0.5" stroke="black" d="M 172 20 253 69"/>
<path stroke-width="0.5" stroke="black" d="M 172 20 199 258"/>
<path stroke-width="20.0" stroke="black" d="M 20 152 216 162"/>
<path stroke-width="0.5" stroke="black" d="M 20 152 304 29"/>
<path stroke-width="0.5" stroke="black" d="M 20 152 253 69"/>
<path stroke-width="0.5" stroke="black" d="M 20 152 172 20"/>
<path stroke-width="0.5" stroke="black" d="M 20 152 199 258"/>
<path stroke-width="0.5" stroke="black" d="M 20 152 80 77"/>
<path stroke-width="0.5" stroke="black" d="M 20 152 117 302"/>
<path stroke-width="0.5" stroke="black" d="M 199 258 381 106"/>
<path stroke-width="0.5" stroke="black" d="M 20 152 348 244"/>
<path stroke-width="0.5" stroke="black" d="M 20 152 420 187"/>
<path stroke-width="0.5" stroke="black" d="M 20 152 55 227"/>
<path stroke-width="0.5" stroke="black" d="M 20 152 381 106"/>
<path stroke-width="20.0" stroke="black" d="M 80 77 216 162"/>
<path stroke-width="0.5" stroke="black" d="M 80 77 304 29"/>
<path stroke-width="0.5" stroke="black" d="M 80 77 253 69"/>
<path stroke-width="0.5" stroke="black" d="M 80 77 172 20"/>
<path stroke-width="0.5" stroke="black" d="M 20 152 282 320"/>
<path stroke-width="0.5" stroke="black" d="M 381 106 420 187"/>
<path stroke-width="0.5" stroke="black" d="M 199 258 55 227"/>
<path stroke-width="0.5" stroke="black" d="M 199 258 282 320"/>
<path stroke-width="0.5" stroke="black" d="M 172 20 20 152"/>
<path stroke-width="0.5" stroke="black" d="M 172 20 80 77"/>
<path stroke-width="0.5" stroke="black" d="M 172 20 117 302"/>
<path stroke-width="0.5" stroke="black" d="M 172 20 348 244"/>
<path stroke-width="0.5" stroke="black" d="M 172 20 282 320"/>
<path stroke-width="0.5" stroke="black" d="M 172 20 420 187"/>
<path stroke-width="0.5" stroke="black" d="M 172 20 55 227"/>
<path stroke-width="0.5" stroke="black" d="M 199 258 420 187"/>
<path stroke-width="0.5" stroke="black" d="M 172 20 381 106"/>
<path stroke-width="0.5" stroke="black" d="M 199 258 304 29"/>
<path stroke-width="0.5" stroke="black" d="M 199 258 253 69"/>
<path stroke-width="0.5" stroke="black" d="M 199 258 172 20"/>
<path stroke-width="0.5" stroke="black" d="M 199 258 20 152"/>
<path stroke-width="0.5" stroke="black" d="M 199 258 80 77"/>
<path stroke-width="0.5" stroke="black" d="M 199 258 117 302"/>
<path stroke-width="0.5" stroke="black" d="M 199 258 348 244"/>
<path stroke-width="20.0" stroke="black" d="M 199 258 216 162"/>
<path stroke-width="0.5" stroke="black" d="M 381 106 55 227"/>
<circle cx="216" cy="162" r="7.0" style="fill:gray;stroke:black;stroke-width:1.0"/>
<circle cx="304" cy="29" r="7.0" style="fill:gray;stroke:black;stroke-width:1.0"/>
<circle cx="253" cy="69" r="7.0" style="fill:gray;stroke:black;stroke-width:1.0"/>
<circle cx="172" cy="20" r="7.0" style="fill:gray;stroke:black;stroke-width:1.0"/>
<circle cx="199" cy="258" r="7.0" style="fill:gray;stroke:black;stroke-width:1.0"/>
<circle cx="20" cy="152" r="7.0" style="fill:gray;stroke:black;stroke-width:1.0"/>
<circle cx="80" cy="77" r="7.0" style="fill:gray;stroke:black;stroke-width:1.0"/>
<circle cx="117" cy="302" r="7.0" style="fill:gray;stroke:black;stroke-width:1.0"/>
<circle cx="348" cy="244" r="7.0" style="fill:gray;stroke:black;stroke-width:1.0"/>
<circle cx="282" cy="320" r="7.0" style="fill:gray;stroke:black;stroke-width:1.0"/>
<circle cx="420" cy="187" r="7.0" style="fill:gray;stroke:black;stroke-width:1.0"/>
<circle cx="55" cy="227" r="7.0" style="fill:gray;stroke:black;stroke-width:1.0"/>
<circle cx="381" cy="106" r="7.0" style="fill:gray;stroke:black;stroke-width:1.0"/>
</svg>
