<svg width="440" height="340" xmlns="http://www.w3.org/2000/svg">
<path stroke-width="1" stroke="black" d="M 207 188 105 201"/>
<path stroke-width="1" stroke="black" d="M 387 256 352 39"/>
<path stroke-width="1" stroke="black" d="M 387 256 290 320"/>
<path stroke-width="1" stroke="black" d="M 387 256 105 268"/>
<path stroke-width="1" stroke="black" d="M 387 256 77 84"/>
<path stroke-width="1" stroke="black" d="M 387 256 20 158"/>
<path stroke-width="1" stroke="black" d="M 387 256 235 65"/>
<path stroke-width="1" stroke="black" d="M 387 256 159 20"/>
<path stroke-width="1" stroke="black" d="M 387 256 381 190"/>
<path stroke-width="1" stroke="black" d="M 20 158 207 188"/>
<path stroke-width="1" stroke="black" d="M 20 158 105 201"/>
<path stroke-width="1" stroke="black" d="M 20 158 201 256"/>
<path stroke-width="1" stroke="black" d="M 20 158 420 115"/>
<path stroke-width="1" stroke="black" d="M 20 158 352 39"/>
<path stroke-width="1" stroke="black" d="M 20 158 290 320"/>
<path stroke-width="1" stroke="black" d="M 20 158 105 268"/>
<path stroke-width="1" stroke="black" d="M 387 256 420 115"/>
<path stroke-width="1" stroke="black" d="M 387 256 201 256"/>
<path stroke-width="1" stroke="black" d="M 387 256 105 201"/>
<path stroke-width="1" stroke="black" d="M 387 256 207 188"/>
<path stroke-width="1" stroke="black" d="M 105 268 20 158"/>
<path stroke-width="1" stroke="black" d="M 105 268 235 65"/>
<path stroke-width="1" stroke="black" d="M 105 268 159 20"/>
<path stroke-width="1" stroke="black" d="M 105 268 381 190"/>
<path stroke-width="1" stroke="black" d="M 77 84 207 188"/>
<path stroke-width="1" stroke="black" d="M 77 84 105 201"/>
<path stroke-width="1" stroke="black" d="M 77 84 201 256"/>
<path stroke-width="1" stroke="black" d="M 20 158 77 84"/>
<path stroke-width="1" stroke="black" d="M 77 84 420 115"/>
<path stroke-width="1" stroke="black" d="M 77 84 290 320"/>
<path stroke-width="1" stroke="black" d="M 77 84 105 268"/>
<path stroke-width="1" stroke="black" d="M 77 84 387 256"/>
<path stroke-width="1" stroke="black" d="M 77 84 20 158"/>
<path stroke-width="1" stroke="black" d="M 77 84 235 65"/>
<path stroke-width="1" stroke="black" d="M 77 84 159 20"/>
<path stroke-width="1" stroke="black" d="M 77 84 381 190"/>
<path stroke-width="1" stroke="black" d="M 77 84 352 39"/>
<path stroke-width="1" stroke="black" d="M 105 268 387 256"/>
<path stroke-width="1" stroke="black" d="M 20 158 387 256"/>
<path stroke-width="1" stroke="black" d="M 20 158 159 20"/>
<path stroke-width="1" stroke="black" d="M 159 20 77 84"/>
<path stroke-width="1" stroke="black" d="M 159 20 387 256"/>
<path stroke-width="1" stroke="black" d="M 159 20 20 158"/>
<path stroke-width="1" stroke="black" d="M 159 20 235 65"/>
<path stroke-width="1" stroke="black" d="M 159 20 381 190"/>
<path stroke-width="1" stroke="black" d="M 381 190 207 188"/>
<path stroke-width="1" stroke="black" d="M 381 190 105 201"/>
<path stroke-width="1" stroke="black" d="M 381 190 201 256"/>
<path stroke-width="1" stroke="black" d="M 381 190 420 115"/>
<path stroke-width="1" stroke="black" d="M 381 190 352 39"/>
<path stroke-width="1" stroke="black" d="M 381 190 290 320"/>
<path stroke-width="1" stroke="black" d="M 381 190 105 268"/>
<path stroke-width="1" stroke="black" d="M 381 190 77 84"/>
<path stroke-width="1" stroke="black" d="M 381 190 387 256"/>
<path stroke-width="1" stroke="black" d="M 381 190 20 158"/>
<path stroke-width="1" stroke="black" d="M 159 20 105 268"/>
<path stroke-width="1" stroke="black" d="M 159 20 290 320"/>
<path stroke-width="1" stroke="black" d="M 159 20 352 39"/>
<path stroke-width="1" stroke="black" d="M 159 20 420 115"/>
<path stroke-width="1" stroke="black" d="M 20 158 381 190"/>
<path stroke-width="1" stroke="black" d="M 235 65 207 188"/>
<path stroke-width="1" stroke="black" d="M 235 65 105 201"/>
<path stroke-width="1" stroke="black" d="M 235 65 201 256"/>
<path stroke-width="1" stroke="black" d="M 235 65 420 115"/>
<path stroke-width="1" stroke="black" d="M 235 65 352 39"/>
<path stroke-width="1" stroke="black" d="M 235 65 290 320"/>
<path stroke-width="1" stroke="black" d="M 20 158 235 65"/>
<path stroke-width="1" stroke="black" d="M 235 65 105 268"/>
<path stroke-width="1" stroke="black" d="M 235 65 387 256"/>
<path stroke-width="1" stroke="black" d="M 235 65 20 158"/>
<path stroke-width="1" stroke="black" d="M 235 65 159 20"/>
<path stroke-width="1" stroke="black" d="M 235 65 381 190"/>
<path stroke-width="1" stroke="black" d="M 159 20 207 188"/>
<path stroke-width="1" stroke="black" d="M 159 20 105 201"/>
<path stroke-width="1" stroke="black" d="M 159 20 201 256"/>
<path stroke-width="1" stroke="black" d="M 235 65 77 84"/>
<path stroke-width="1" stroke="black" d="M 105 268 77 84"/>
<path stroke-width="1" stroke="black" d="M 105 268 290 320"/>
<path stroke-width="1" stroke="black" d="M 105 268 352 39"/>
<path stroke-width="1" stroke="black" d="M 105 201 235 65"/>
<path stroke-width="1" stroke="black" d="M 105 201 159 20"/>
<path stroke-width="1" stroke="black" d="M 105 201 381 190"/>
<path stroke-width="1" stroke="black" d="M 201 256 207 188"/>
<path stroke-width="1" stroke="black" d="M 201 256 105 201"/>
<path stroke-width="1" stroke="black" d="M 201 256 420 115"/>
<path stroke-width="1" stroke="black" d="M 201 256 352 39"/>
<path stroke-width="1" stroke="black" d="M 201 256 290 320"/>
<path stroke-width="1" stroke="black" d="M 201 256 105 268"/>
<path stroke-width="1" stroke="black" d="M 201 256 77 84"/>
<path stroke-width="1" stroke="black" d="M 201 256 387 256"/>
<path stroke-width="1" stroke="black" d="M 201 256 20 158"/>
<path stroke-width="1" stroke="black" d="M 201 256 235 65"/>
<path stroke-width="1" stroke="black" d="M 201 256 159 20"/>
<path stroke-width="1" stroke="black" d="M 201 256 381 190"/>
<path stroke-width="1" stroke="black" d="M 105 201 20 158"/>
<path stroke-width="1" stroke="black" d="M 105 201 387 256"/>
<path stroke-width="1" stroke="black" d="M 105 201 77 84"/>
<path stroke-width="1" stroke="black" d="M 105 201 105 268"/>
<path stroke-width="1" stroke="black" d="M 207 188 201 256"/>
<path stroke-width="1" stroke="black" d="M 207 188 420 115"/>
<path stroke-width="1" stroke="black" d="M 207 188 352 39"/>
<path stroke-width="1" stroke="black" d="M 207 188 290 320"/>
<path stroke-width="1" stroke="black" d="M 207 188 105 268"/>
<path stroke-width="1" stroke="black" d="M 207 188 77 84"/>
<path stroke-width="1" stroke="black" d="M 207 188 387 256"/>
<path stroke-width="1" stroke="black" d="M 420 115 207 188"/>
<path stroke-width="1" stroke="black" d="M 207 188 20 158"/>
<path stroke-width="1" stroke="black" d="M 207 188 159 20"/>
<path stroke-width="1" stroke="black" d="M 207 188 381 190"/>
<path stroke-width="1" stroke="black" d="M 105 201 207 188"/>
<path stroke-width="1" stroke="black" d="M 105 201 201 256"/>
<path stroke-width="1" stroke="black" d="M 105 201 420 115"/>
<path stroke-width="1" stroke="black" d="M 105 201 352 39"/>
<path stroke-width="1" stroke="black" d="M 105 201 290 320"/>
<path stroke-width="1" stroke="black" d="M 207 188 235 65"/>
<path stroke-width="1" stroke="black" d="M 420 115 105 201"/>
<path stroke-width="1" stroke="black" d="M 420 115 201 256"/>
<path stroke-width="1" stroke="black" d="M 420 115 352 39"/>
<path stroke-width="1" stroke="black" d="M 290 320 207 188"/>
<path stroke-width="1" stroke="black" d="M 290 320 105 201"/>
<path stroke-width="1" stroke="black" d="M 290 320 201 256"/>
<path stroke-width="1" stroke="black" d="M 290 320 420 115"/>
<path stroke-width="1" stroke="black" d="M 290 320 352 39"/>
<path stroke-width="1" stroke="black" d="M 290 320 105 268"/>
<path stroke-width="1" stroke="black" d="M 290 320 77 84"/>
<path stroke-width="1" stroke="black" d="M 352 39 381 190"/>
<path stroke-width="1" stroke="black" d="M 290 320 387 256"/>
<path stroke-width="1" stroke="black" d="M 290 320 235 65"/>
<path stroke-width="1" stroke="black" d="M 290 320 159 20"/>
<path stroke-width="1" stroke="black" d="M 290 320 381 190"/>
<path stroke-width="1" stroke="black" d="M 105 268 207 188"/>
<path stroke-width="1" stroke="black" d="M 105 268 105 201"/>
<path stroke-width="1" stroke="black" d="M 105 268 201 256"/>
<path stroke-width="1" stroke="black" d="M 105 268 420 115"/>
<path stroke-width="1" stroke="black" d="M 290 320 20 158"/>
<path stroke-width="1" stroke="black" d="M 381 190 235 65"/>
<path stroke-width="1" stroke="black" d="M 352 39 159 20"/>
<path stroke-width="1" stroke="black" d="M 352 39 20 158"/>
<path stroke-width="1" stroke="black" d="M 420 115 290 320"/>
<path stroke-width="1" stroke="black" d="M 420 115 105 268"/>
<path stroke-width="1" stroke="black" d="M 420 115 77 84"/>
<path stroke-width="1" stroke="black" d="M 420 115 387 256"/>
<path stroke-width="1" stroke="black" d="M 420 115 20 158"/>
<path stroke-width="1" stroke="black" d="M 420 115 235 65"/>
<path stroke-width="1" stroke="black" d="M 420 115 159 20"/>
<path stroke-width="1" stroke="black" d="M 352 39 235 65"/>
<path stroke-width="1" stroke="black" d="M 420 115 381 190"/>
<path stroke-width="1" stroke="black" d="M 352 39 105 201"/>
<path stroke-width="1" stroke="black" d="M 352 39 201 256"/>
<path stroke-width="1" stroke="black" d="M 352 39 420 115"/>
<path stroke-width="1" stroke="black" d="M 352 39 290 320"/>
<path stroke-width="1" stroke="black" d="M 352 39 105 268"/>
<path stroke-width="1" stroke="black" d="M 352 39 77 84"/>
<path stroke-width="1" stroke="black" d="M 352 39 387 256"/>
<path stroke-width="1" stroke="black" d="M 352 39 207 188"/>
<path stroke-width="1" stroke="black" d="M 381 190 159 20"/>
<circle cx="207" cy="188" r="7.0" style="fill:gray;stroke:black;stroke-width:1.0"/>
<circle cx="105" cy="201" r="7.0" style="fill:gray;stroke:black;stroke-width:1.0"/>
<circle cx="201" cy="256" r="7.0" style="fill:gray;stroke:black;stroke-width:1.0"/>
<circle cx="420" cy="115" r="7.0" style="fill:gray;stroke:black;stroke-width:1.0"/>
<circle cx="352" cy="39" r="7.0" style="fill:gray;stroke:black;stroke-width:1.0"/>
<circle cx="290" cy="320" r="7.0" style="fill:gray;stroke:black;stroke-width:1.0"/>
<circle cx="105" cy="268" r="7.0" style="fill:gray;stroke:black;stroke-width:1.0"/>
<circle cx="77" cy="84" r="7.0" style="fill:gray;stroke:black;stroke-width:1.0"/>
<circle cx="387" cy="256" r="7.0" style="fill:gray;stroke:black;stroke-width:1.0"/>
<circle cx="20" cy="158" r="7.0" style="fill:gray;stroke:black;stroke-width:1.0"/>
<circle cx="235" cy="65" r="7.0" style="fill:gray;stroke:black;stroke-width:1.0"/>
<circle cx="159" cy="20" r="7.0" style="fill:gray;stroke:black;stroke-width:1.0"/>
<circle cx="381" cy="190" r="7.0" style="fill:gray;stroke:black;stroke-width:1.0"/>
</svg>
