<svg width="440" height="340" xmlns="http://www.w3.org/2000/svg">
<path stroke-width="1" stroke="black" d="M 62 143 113 74"/>
<path stroke-width="1" stroke="black" d="M 56 171 94 234"/>
<path stroke-width="1" stroke="black" d="M 56 171 62 143"/>
<path stroke-width="1" stroke="black" d="M 73 69 20 21"/>
<path stroke-width="1" stroke="black" d="M 73 69 219 112"/>
<path stroke-width="1" stroke="black" d="M 420 273 404 217"/>
<path stroke-width="1" stroke="black" d="M 420 273 353 318"/>
<path stroke-width="1" stroke="black" d="M 291 320 353 318"/>
<path stroke-width="1" stroke="black" d="M 291 320 178 284"/>
<path stroke-width="1" stroke="black" d="M 113 74 120 49"/>
<path stroke-width="1" stroke="black" d="M 113 74 62 143"/>
<path stroke-width="1" stroke="black" d="M 219 112 73 69"/>
<path stroke-width="1" stroke="black" d="M 219 112 332 161"/>
<path stroke-width="1" stroke="black" d="M 104 20 20 21"/>
<path stroke-width="1" stroke="black" d="M 104 20 120 49"/>
<path stroke-width="1" stroke="black" d="M 94 234 56 171"/>
<path stroke-width="1" stroke="black" d="M 94 234 178 284"/>
<path stroke-width="1" stroke="black" d="M 404 217 420 273"/>
<path stroke-width="1" stroke="black" d="M 404 217 332 161"/>
<path stroke-width="1" stroke="black" d="M 353 318 420 273"/>
<path stroke-width="1" stroke="black" d="M 353 318 291 320"/>
<path stroke-width="1" stroke="black" d="M 120 49 113 74"/>
<path stroke-width="1" stroke="black" d="M 120 49 104 20"/>
<path stroke-width="1" stroke="black" d="M 178 284 291 320"/>
<path stroke-width="1" stroke="black" d="M 178 284 94 234"/>
<path stroke-width="1" stroke="black" d="M 332 161 219 112"/>
<path stroke-width="1" stroke="black" d="M 332 161 404 217"/>
<path stroke-width="1" stroke="black" d="M 62 143 56 171"/>
<path stroke-width="1" stroke="black" d="M 20 21 104 20"/>
<path stroke-width="1" stroke="black" d="M 20 21 73 69"/>
<circle cx="62" cy="143" r="7.0" style="fill:gray;stroke:black;stroke-width:1.0"/>
<circle cx="332" cy="161" r="7.0" style="fill:gray;stroke:black;stroke-width:1.0"/>
<circle cx="178" cy="284" r="7.0" style="fill:gray;stroke:black;stroke-width:1.0"/>
<circle cx="120" cy="49" r="7.0" style="fill:gray;stroke:black;stroke-width:1.0"/>
<circle cx="353" cy="318" r="7.0" style="fill:gray;stroke:black;stroke-width:1.0"/>
<circle cx="404" cy="217" r="7.0" style="fill:gray;stroke:black;stroke-width:1.0"/>
<circle cx="94" cy="234" r="7.0" style="fill:gray;stroke:black;stroke-width:1.0"/>
<circle cx="104" cy="20" r="7.0" style="fill:gray;stroke:black;stroke-width:1.0"/>
<circle cx="219" cy="112" r="7.0" style="fill:gray;stroke:black;stroke-width:1.0"/>
<circle cx="113" cy="74" r="7.0" style="fill:gray;stroke:black;stroke-width:1.0"/>
<circle cx="291" cy="320" r="7.0" style="fill:gray;stroke:black;stroke-width:1.0"/>
<circle cx="420" cy="273" r="7.0" style="fill:gray;stroke:black;stroke-width:1.0"/>
<circle cx="73" cy="69" r="7.0" style="fill:gray;stroke:black;stroke-width:1.0"/>
<circle cx="56" cy="171" r="7.0" style="fill:gray;stroke:black;stroke-width:1.0"/>
<circle cx="20" cy="21" r="7.0" style="fill:gray;stroke:black;stroke-width:1.0"/>
</svg>
