<svg width="440" height="340" xmlns="http://www.w3.org/2000/svg">
<path stroke-width="1" stroke="black" d="M 356 258 394 240"/>
<path stroke-width="1" stroke="black" d="M 125 312 38 278"/>
<path stroke-width="1" stroke="black" d="M 125 312 228 320"/>
<path stroke-width="1" stroke="black" d="M 310 21 210 20"/>
<path stroke-width="1" stroke="black" d="M 310 21 395 57"/>
<path stroke-width="1" stroke="black" d="M 394 240 420 163"/>
<path stroke-width="1" stroke="black" d="M 394 240 356 258"/>
<path stroke-width="1" stroke="black" d="M 20 246 38 278"/>
<path stroke-width="1" stroke="black" d="M 20 246 24 178"/>
<path stroke-width="1" stroke="black" d="M 413 93 420 163"/>
<path stroke-width="1" stroke="black" d="M 413 93 395 57"/>
<path stroke-width="1" stroke="black" d="M 210 20 310 21"/>
<path stroke-width="1" stroke="black" d="M 210 20 123 55"/>
<path stroke-width="1" stroke="black" d="M 60 111 123 55"/>
<path stroke-width="1" stroke="black" d="M 60 111 24 178"/>
<path stroke-width="1" stroke="black" d="M 38 278 125 312"/>
<path stroke-width="1" stroke="black" d="M 38 278 20 246"/>
<path stroke-width="1" stroke="black" d="M 123 55 210 20"/>
<path stroke-width="1" stroke="black" d="M 123 55 60 111"/>
<path stroke-width="1" stroke="black" d="M 420 163 394 240"/>
<path stroke-width="1" stroke="black" d="M 420 163 413 93"/>
<path stroke-width="1" stroke="black" d="M 228 320 278 313"/>
<path stroke-width="1" stroke="black" d="M 228 320 125 312"/>
<path stroke-width="1" stroke="black" d="M 395 57 310 21"/>
<path stroke-width="1" stroke="black" d="M 395 57 413 93"/>
<path stroke-width="1" stroke="black" d="M 24 178 20 246"/>
<path stroke-width="1" stroke="black" d="M 24 178 60 111"/>
<path stroke-width="1" stroke="black" d="M 356 258 278 313"/>
<path stroke-width="1" stroke="black" d="M 278 313 356 258"/>
<path stroke-width="1" stroke="black" d="M 278 313 228 320"/>
<circle cx="356" cy="258" r="7.0" style="fill:gray;stroke:black;stroke-width:1.0"/>
<circle cx="24" cy="178" r="7.0" style="fill:gray;stroke:black;stroke-width:1.0"/>
<circle cx="395" cy="57" r="7.0" style="fill:gray;stroke:black;stroke-width:1.0"/>
<circle cx="228" cy="320" r="7.0" style="fill:gray;stroke:black;stroke-width:1.0"/>
<circle cx="420" cy="163" r="7.0" style="fill:gray;stroke:black;stroke-width:1.0"/>
<circle cx="123" cy="55" r="7.0" style="fill:gray;stroke:black;stroke-width:1.0"/>
<circle cx="38" cy="278" r="7.0" style="fill:gray;stroke:black;stroke-width:1.0"/>
<circle cx="60" cy="111" r="7.0" style="fill:gray;stroke:black;stroke-width:1.0"/>
<circle cx="210" cy="20" r="7.0" style="fill:gray;stroke:black;stroke-width:1.0"/>
<circle cx="413" cy="93" r="7.0" style="fill:gray;stroke:black;stroke-width:1.0"/>
<circle cx="20" cy="246" r="7.0" style="fill:gray;stroke:black;stroke-width:1.0"/>
<circle cx="394" cy="240" r="7.0" style="fill:gray;stroke:black;stroke-width:1.0"/>
<circle cx="310" cy="21" r="7.0" style="fill:gray;stroke:black;stroke-width:1.0"/>
<circle cx="125" cy="312" r="7.0" style="fill:gray;stroke:black;stroke-width:1.0"/>
<circle cx="278" cy="313" r="7.0" style="fill:gray;stroke:black;stroke-width:1.0"/>
</svg>
