<svg width="440" height="340" xmlns="http://www.w3.org/2000/svg">
<path stroke-width="20.0" stroke="black" d="M 219 174 218 175"/>
<path stroke-width="0.5" stroke="black" d="M 420 152 391 81"/>
<path stroke-width="0.5" stroke="black" d="M 420 152 20 203"/>
<path stroke-width="0.5" stroke="black" d="M 420 152 123 36"/>
<path stroke-width="0.5" stroke="black" d="M 420 152 175 303"/>
<path stroke-width="0.5" stroke="black" d="M 420 152 93 290"/>
<path stroke-width="8.857142857142858" stroke="black" d="M 89 60 219 174"/>
<path stroke-width="3.2857142857142856" stroke="black" d="M 89 60 218 175"/>
<path stroke-width="0.5" stroke="black" d="M 89 60 94 53"/>
<path stroke-width="0.5" stroke="black" d="M 89 60 335 297"/>
<path stroke-width="0.5" stroke="black" d="M 89 60 287 84"/>
<path stroke-width="4.678571428571429" stroke="black" d="M 89 60 298 53"/>
<path stroke-width="0.5" stroke="black" d="M 89 60 419 182"/>
<path stroke-width="0.5" stroke="black" d="M 89 60 32 162"/>
<path stroke-width="0.5" stroke="black" d="M 89 60 171 107"/>
<path stroke-width="0.5" stroke="black" d="M 89 60 316 302"/>
<path stroke-width="0.5" stroke="black" d="M 89 60 211 20"/>
<path stroke-width="0.5" stroke="black" d="M 89 60 349 157"/>
<path stroke-width="0.5" stroke="black" d="M 420 152 314 234"/>
<path stroke-width="0.5" stroke="black" d="M 420 152 405 243"/>
<path stroke-width="0.5" stroke="black" d="M 420 152 38 130"/>
<path stroke-width="0.5" stroke="black" d="M 420 152 89 60"/>
<path stroke-width="4.678571428571429" stroke="black" d="M 118 300 93 290"/>
<path stroke-width="8.857142857142858" stroke="black" d="M 420 152 219 174"/>
<path stroke-width="3.2857142857142856" stroke="black" d="M 420 152 218 175"/>
<path stroke-width="0.5" stroke="black" d="M 420 152 94 53"/>
<path stroke-width="0.5" stroke="black" d="M 420 152 335 297"/>
<path stroke-width="0.5" stroke="black" d="M 420 152 287 84"/>
<path stroke-width="0.5" stroke="black" d="M 420 152 298 53"/>
<path stroke-width="4.678571428571429" stroke="black" d="M 420 152 419 182"/>
<path stroke-width="0.5" stroke="black" d="M 89 60 234 320"/>
<path stroke-width="0.5" stroke="black" d="M 420 152 32 162"/>
<path stroke-width="0.5" stroke="black" d="M 420 152 316 302"/>
<path stroke-width="0.5" stroke="black" d="M 420 152 211 20"/>
<path stroke-width="0.5" stroke="black" d="M 420 152 349 157"/>
<path stroke-width="0.5" stroke="black" d="M 420 152 234 320"/>
<path stroke-width="0.5" stroke="black" d="M 420 152 181 211"/>
<path stroke-width="0.5" stroke="black" d="M 420 152 291 29"/>
<path stroke-width="0.5" stroke="black" d="M 420 152 38 238"/>
<path stroke-width="0.5" stroke="black" d="M 420 152 118 300"/>
<path stroke-width="0.5" stroke="black" d="M 420 152 171 107"/>
<path stroke-width="0.5" stroke="black" d="M 89 60 181 211"/>
<path stroke-width="0.5" stroke="black" d="M 89 60 291 29"/>
<path stroke-width="0.5" stroke="black" d="M 89 60 38 238"/>
<path stroke-width="0.5" stroke="black" d="M 38 130 234 320"/>
<path stroke-width="0.5" stroke="black" d="M 38 130 181 211"/>
<path stroke-width="0.5" stroke="black" d="M 38 130 291 29"/>
<path stroke-width="0.5" stroke="black" d="M 38 130 38 238"/>
<path stroke-width="0.5" stroke="black" d="M 38 130 118 300"/>
<path stroke-width="0.5" stroke="black" d="M 38 130 420 152"/>
<path stroke-width="0.5" stroke="black" d="M 38 130 89 60"/>
<path stroke-width="0.5" stroke="black" d="M 38 130 405 243"/>
<path stroke-width="0.5" stroke="black" d="M 38 130 349 157"/>
<path stroke-width="0.5" stroke="black" d="M 38 130 314 234"/>
<path stroke-width="0.5" stroke="black" d="M 38 130 20 203"/>
<path stroke-width="0.5" stroke="black" d="M 38 130 123 36"/>
<path stroke-width="0.5" stroke="black" d="M 38 130 175 303"/>
<path stroke-width="0.5" stroke="black" d="M 38 130 93 290"/>
<path stroke-width="8.857142857142858" stroke="black" d="M 405 243 219 174"/>
<path stroke-width="3.2857142857142856" stroke="black" d="M 405 243 218 175"/>
<path stroke-width="0.5" stroke="black" d="M 405 243 94 53"/>
<path stroke-width="4.678571428571429" stroke="black" d="M 405 243 335 297"/>
<path stroke-width="0.5" stroke="black" d="M 38 130 391 81"/>
<path stroke-width="0.5" stroke="black" d="M 118 300 175 303"/>
<path stroke-width="0.5" stroke="black" d="M 38 130 211 20"/>
<path stroke-width="0.5" stroke="black" d="M 38 130 171 107"/>
<path stroke-width="0.5" stroke="black" d="M 89 60 118 300"/>
<path stroke-width="0.5" stroke="black" d="M 89 60 420 152"/>
<path stroke-width="0.5" stroke="black" d="M 89 60 38 130"/>
<path stroke-width="0.5" stroke="black" d="M 89 60 405 243"/>
<path stroke-width="0.5" stroke="black" d="M 89 60 314 234"/>
<path stroke-width="0.5" stroke="black" d="M 89 60 391 81"/>
<path stroke-width="0.5" stroke="black" d="M 89 60 20 203"/>
<path stroke-width="0.5" stroke="black" d="M 89 60 123 36"/>
<path stroke-width="0.5" stroke="black" d="M 38 130 316 302"/>
<path stroke-width="0.5" stroke="black" d="M 89 60 175 303"/>
<path stroke-width="8.857142857142858" stroke="black" d="M 38 130 219 174"/>
<path stroke-width="3.2857142857142856" stroke="black" d="M 38 130 218 175"/>
<path stroke-width="0.5" stroke="black" d="M 38 130 94 53"/>
<path stroke-width="0.5" stroke="black" d="M 38 130 335 297"/>
<path stroke-width="4.678571428571429" stroke="black" d="M 38 130 287 84"/>
<path stroke-width="0.5" stroke="black" d="M 38 130 298 53"/>
<path stroke-width="0.5" stroke="black" d="M 38 130 419 182"/>
<path stroke-width="0.5" stroke="black" d="M 38 130 32 162"/>
<path stroke-width="0.5" stroke="black" d="M 89 60 93 290"/>
<path stroke-width="0.5" stroke="black" d="M 118 300 123 36"/>
<path stroke-width="0.5" stroke="black" d="M 118 300 20 203"/>
<path stroke-width="0.5" stroke="black" d="M 118 300 391 81"/>
<path stroke-width="0.5" stroke="black" d="M 291 29 349 157"/>
<path stroke-width="0.5" stroke="black" d="M 291 29 234 320"/>
<path stroke-width="0.5" stroke="black" d="M 291 29 181 211"/>
<path stroke-width="0.5" stroke="black" d="M 291 29 38 238"/>
<path stroke-width="0.5" stroke="black" d="M 291 29 118 300"/>
<path stroke-width="0.5" stroke="black" d="M 291 29 420 152"/>
<path stroke-width="0.5" stroke="black" d="M 291 29 89 60"/>
<path stroke-width="0.5" stroke="black" d="M 291 29 38 130"/>
<path stroke-width="0.5" stroke="black" d="M 291 29 211 20"/>
<path stroke-width="0.5" stroke="black" d="M 291 29 405 243"/>
<path stroke-width="0.5" stroke="black" d="M 291 29 391 81"/>
<path stroke-width="0.5" stroke="black" d="M 291 29 20 203"/>
<path stroke-width="0.5" stroke="black" d="M 291 29 123 36"/>
<path stroke-width="0.5" stroke="black" d="M 291 29 175 303"/>
<path stroke-width="0.5" stroke="black" d="M 291 29 93 290"/>
<path stroke-width="8.857142857142858" stroke="black" d="M 38 238 219 174"/>
<path stroke-width="3.2857142857142856" stroke="black" d="M 38 238 218 175"/>
<path stroke-width="0.5" stroke="black" d="M 38 238 94 53"/>
<path stroke-width="0.5" stroke="black" d="M 291 29 314 234"/>
<path stroke-width="0.5" stroke="black" d="M 38 238 335 297"/>
<path stroke-width="0.5" stroke="black" d="M 291 29 316 302"/>
<path stroke-width="0.5" stroke="black" d="M 291 29 32 162"/>
<path stroke-width="0.5" stroke="black" d="M 181 211 118 300"/>
<path stroke-width="0.5" stroke="black" d="M 181 211 420 152"/>
<path stroke-width="0.5" stroke="black" d="M 181 211 89 60"/>
<path stroke-width="0.5" stroke="black" d="M 181 211 38 130"/>
<path stroke-width="0.5" stroke="black" d="M 181 211 405 243"/>
<path stroke-width="0.5" stroke="black" d="M 181 211 314 234"/>
<path stroke-width="0.5" stroke="black" d="M 181 211 391 81"/>
<path stroke-width="0.5" stroke="black" d="M 181 211 20 203"/>
<path stroke-width="4.678571428571429" stroke="black" d="M 291 29 171 107"/>
<path stroke-width="0.5" stroke="black" d="M 181 211 123 36"/>
<path stroke-width="0.5" stroke="black" d="M 181 211 93 290"/>
<path stroke-width="8.857142857142858" stroke="black" d="M 291 29 219 174"/>
<path stroke-width="3.2857142857142856" stroke="black" d="M 291 29 218 175"/>
<path stroke-width="0.5" stroke="black" d="M 291 29 94 53"/>
<path stroke-width="0.5" stroke="black" d="M 291 29 335 297"/>
<path stroke-width="0.5" stroke="black" d="M 291 29 287 84"/>
<path stroke-width="0.5" stroke="black" d="M 291 29 298 53"/>
<path stroke-width="0.5" stroke="black" d="M 291 29 419 182"/>
<path stroke-width="0.5" stroke="black" d="M 181 211 175 303"/>
<path stroke-width="0.5" stroke="black" d="M 405 243 287 84"/>
<path stroke-width="0.5" stroke="black" d="M 38 238 287 84"/>
<path stroke-width="0.5" stroke="black" d="M 38 238 419 182"/>
<path stroke-width="0.5" stroke="black" d="M 118 300 335 297"/>
<path stroke-width="0.5" stroke="black" d="M 118 300 287 84"/>
<path stroke-width="0.5" stroke="black" d="M 118 300 298 53"/>
<path stroke-width="0.5" stroke="black" d="M 118 300 419 182"/>
<path stroke-width="0.5" stroke="black" d="M 118 300 32 162"/>
<path stroke-width="0.5" stroke="black" d="M 118 300 171 107"/>
<path stroke-width="0.5" stroke="black" d="M 118 300 316 302"/>
<path stroke-width="0.5" stroke="black" d="M 118 300 211 20"/>
<path stroke-width="0.5" stroke="black" d="M 118 300 94 53"/>
<path stroke-width="0.5" stroke="black" d="M 118 300 349 157"/>
<path stroke-width="0.5" stroke="black" d="M 118 300 181 211"/>
<path stroke-width="0.5" stroke="black" d="M 118 300 291 29"/>
<path stroke-width="0.5" stroke="black" d="M 118 300 38 238"/>
<path stroke-width="0.5" stroke="black" d="M 118 300 420 152"/>
<path stroke-width="0.5" stroke="black" d="M 118 300 89 60"/>
<path stroke-width="0.5" stroke="black" d="M 118 300 38 130"/>
<path stroke-width="0.5" stroke="black" d="M 118 300 405 243"/>
<path stroke-width="0.5" stroke="black" d="M 118 300 314 234"/>
<path stroke-width="0.5" stroke="black" d="M 118 300 234 320"/>
<path stroke-width="0.5" stroke="black" d="M 38 238 298 53"/>
<path stroke-width="3.2857142857142856" stroke="black" d="M 118 300 218 175"/>
<path stroke-width="0.5" stroke="black" d="M 38 238 93 290"/>
<path stroke-width="4.678571428571429" stroke="black" d="M 38 238 32 162"/>
<path stroke-width="0.5" stroke="black" d="M 38 238 171 107"/>
<path stroke-width="0.5" stroke="black" d="M 38 238 316 302"/>
<path stroke-width="0.5" stroke="black" d="M 38 238 211 20"/>
<path stroke-width="0.5" stroke="black" d="M 38 238 349 157"/>
<path stroke-width="0.5" stroke="black" d="M 38 238 234 320"/>
<path stroke-width="0.5" stroke="black" d="M 38 238 181 211"/>
<path stroke-width="0.5" stroke="black" d="M 38 238 291 29"/>
<path stroke-width="8.857142857142858" stroke="black" d="M 118 300 219 174"/>
<path stroke-width="0.5" stroke="black" d="M 38 238 118 300"/>
<path stroke-width="0.5" stroke="black" d="M 38 238 89 60"/>
<path stroke-width="0.5" stroke="black" d="M 38 238 38 130"/>
<path stroke-width="0.5" stroke="black" d="M 38 238 405 243"/>
<path stroke-width="0.5" stroke="black" d="M 38 238 314 234"/>
<path stroke-width="0.5" stroke="black" d="M 38 238 391 81"/>
<path stroke-width="0.5" stroke="black" d="M 38 238 20 203"/>
<path stroke-width="0.5" stroke="black" d="M 38 238 123 36"/>
<path stroke-width="0.5" stroke="black" d="M 38 238 175 303"/>
<path stroke-width="0.5" stroke="black" d="M 38 238 420 152"/>
<path stroke-width="0.5" stroke="black" d="M 405 243 298 53"/>
<path stroke-width="0.5" stroke="black" d="M 405 243 419 182"/>
<path stroke-width="0.5" stroke="black" d="M 405 243 32 162"/>
<path stroke-width="0.5" stroke="black" d="M 123 36 291 29"/>
<path stroke-width="0.5" stroke="black" d="M 123 36 38 238"/>
<path stroke-width="0.5" stroke="black" d="M 123 36 118 300"/>
<path stroke-width="0.5" stroke="black" d="M 123 36 420 152"/>
<path stroke-width="0.5" stroke="black" d="M 123 36 89 60"/>
<path stroke-width="0.5" stroke="black" d="M 123 36 38 130"/>
<path stroke-width="0.5" stroke="black" d="M 123 36 405 243"/>
<path stroke-width="0.5" stroke="black" d="M 123 36 314 234"/>
<path stroke-width="0.5" stroke="black" d="M 123 36 181 211"/>
<path stroke-width="0.5" stroke="black" d="M 123 36 391 81"/>
<path stroke-width="0.5" stroke="black" d="M 123 36 175 303"/>
<path stroke-width="0.5" stroke="black" d="M 123 36 93 290"/>
<path stroke-width="8.857142857142858" stroke="black" d="M 175 303 219 174"/>
<path stroke-width="3.2857142857142856" stroke="black" d="M 175 303 218 175"/>
<path stroke-width="0.5" stroke="black" d="M 175 303 94 53"/>
<path stroke-width="0.5" stroke="black" d="M 175 303 335 297"/>
<path stroke-width="0.5" stroke="black" d="M 175 303 287 84"/>
<path stroke-width="0.5" stroke="black" d="M 175 303 298 53"/>
<path stroke-width="0.5" stroke="black" d="M 123 36 20 203"/>
<path stroke-width="0.5" stroke="black" d="M 175 303 419 182"/>
<path stroke-width="0.5" stroke="black" d="M 123 36 234 320"/>
<path stroke-width="0.5" stroke="black" d="M 123 36 211 20"/>
<path stroke-width="0.5" stroke="black" d="M 20 203 89 60"/>
<path stroke-width="0.5" stroke="black" d="M 20 203 38 130"/>
<path stroke-width="0.5" stroke="black" d="M 20 203 405 243"/>
<path stroke-width="0.5" stroke="black" d="M 20 203 314 234"/>
<path stroke-width="0.5" stroke="black" d="M 20 203 391 81"/>
<path stroke-width="0.5" stroke="black" d="M 20 203 123 36"/>
<path stroke-width="0.5" stroke="black" d="M 20 203 175 303"/>
<path stroke-width="0.5" stroke="black" d="M 20 203 93 290"/>
<path stroke-width="0.5" stroke="black" d="M 123 36 349 157"/>
<path stroke-width="7.464285714285714" stroke="black" d="M 123 36 219 174"/>
<path stroke-width="0.5" stroke="black" d="M 123 36 94 53"/>
<path stroke-width="0.5" stroke="black" d="M 123 36 335 297"/>
<path stroke-width="0.5" stroke="black" d="M 123 36 287 84"/>
<path stroke-width="0.5" stroke="black" d="M 123 36 298 53"/>
<path stroke-width="0.5" stroke="black" d="M 123 36 419 182"/>
<path stroke-width="0.5" stroke="black" d="M 123 36 32 162"/>
<path stroke-width="0.5" stroke="black" d="M 123 36 171 107"/>
<path stroke-width="0.5" stroke="black" d="M 123 36 316 302"/>
<path stroke-width="3.2857142857142856" stroke="black" d="M 123 36 218 175"/>
<path stroke-width="0.5" stroke="black" d="M 20 203 420 152"/>
<path stroke-width="0.5" stroke="black" d="M 175 303 32 162"/>
<path stroke-width="4.678571428571429" stroke="black" d="M 175 303 316 302"/>
<path stroke-width="0.5" stroke="black" d="M 93 290 419 182"/>
<path stroke-width="0.5" stroke="black" d="M 93 290 32 162"/>
<path stroke-width="0.5" stroke="black" d="M 93 290 171 107"/>
<path stroke-width="0.5" stroke="black" d="M 93 290 316 302"/>
<path stroke-width="0.5" stroke="black" d="M 93 290 211 20"/>
<path stroke-width="0.5" stroke="black" d="M 93 290 349 157"/>
<path stroke-width="0.5" stroke="black" d="M 93 290 234 320"/>
<path stroke-width="0.5" stroke="black" d="M 93 290 181 211"/>
<path stroke-width="0.5" stroke="black" d="M 93 290 298 53"/>
<path stroke-width="0.5" stroke="black" d="M 93 290 291 29"/>
<path stroke-width="4.678571428571429" stroke="black" d="M 93 290 118 300"/>
<path stroke-width="0.5" stroke="black" d="M 93 290 420 152"/>
<path stroke-width="0.5" stroke="black" d="M 93 290 89 60"/>
<path stroke-width="0.5" stroke="black" d="M 93 290 38 130"/>
<path stroke-width="0.5" stroke="black" d="M 93 290 405 243"/>
<path stroke-width="0.5" stroke="black" d="M 93 290 314 234"/>
<path stroke-width="0.5" stroke="black" d="M 93 290 391 81"/>
<path stroke-width="0.5" stroke="black" d="M 93 290 20 203"/>
<path stroke-width="0.5" stroke="black" d="M 93 290 38 238"/>
<path stroke-width="0.5" stroke="black" d="M 175 303 171 107"/>
<path stroke-width="0.5" stroke="black" d="M 93 290 287 84"/>
<path stroke-width="0.5" stroke="black" d="M 93 290 94 53"/>
<path stroke-width="0.5" stroke="black" d="M 175 303 211 20"/>
<path stroke-width="0.5" stroke="black" d="M 175 303 349 157"/>
<path stroke-width="0.5" stroke="black" d="M 175 303 234 320"/>
<path stroke-width="0.5" stroke="black" d="M 175 303 181 211"/>
<path stroke-width="0.5" stroke="black" d="M 175 303 291 29"/>
<path stroke-width="0.5" stroke="black" d="M 175 303 38 238"/>
<path stroke-width="0.5" stroke="black" d="M 175 303 118 300"/>
<path stroke-width="0.5" stroke="black" d="M 175 303 420 152"/>
<path stroke-width="0.5" stroke="black" d="M 93 290 335 297"/>
<path stroke-width="0.5" stroke="black" d="M 175 303 89 60"/>
<path stroke-width="0.5" stroke="black" d="M 175 303 405 243"/>
<path stroke-width="0.5" stroke="black" d="M 175 303 314 234"/>
<path stroke-width="0.5" stroke="black" d="M 175 303 391 81"/>
<path stroke-width="0.5" stroke="black" d="M 175 303 20 203"/>
<path stroke-width="0.5" stroke="black" d="M 175 303 123 36"/>
<path stroke-width="0.5" stroke="black" d="M 175 303 93 290"/>
<path stroke-width="8.857142857142858" stroke="black" d="M 93 290 219 174"/>
<path stroke-width="3.2857142857142856" stroke="black" d="M 93 290 218 175"/>
<path stroke-width="0.5" stroke="black" d="M 175 303 38 130"/>
<path stroke-width="0.5" stroke="black" d="M 181 211 38 238"/>
<path stroke-width="0.5" stroke="black" d="M 20 203 118 300"/>
<path stroke-width="0.5" stroke="black" d="M 20 203 291 29"/>
<path stroke-width="0.5" stroke="black" d="M 314 234 287 84"/>
<path stroke-width="0.5" stroke="black" d="M 314 234 298 53"/>
<path stroke-width="0.5" stroke="black" d="M 314 234 419 182"/>
<path stroke-width="0.5" stroke="black" d="M 314 234 32 162"/>
<path stroke-width="0.5" stroke="black" d="M 314 234 171 107"/>
<path stroke-width="0.5" stroke="black" d="M 314 234 316 302"/>
<path stroke-width="0.5" stroke="black" d="M 314 234 211 20"/>
<path stroke-width="0.5" stroke="black" d="M 314 234 349 157"/>
<path stroke-width="0.5" stroke="black" d="M 314 234 335 297"/>
<path stroke-width="0.5" stroke="black" d="M 314 234 234 320"/>
<path stroke-width="0.5" stroke="black" d="M 314 234 291 29"/>
<path stroke-width="0.5" stroke="black" d="M 314 234 38 238"/>
<path stroke-width="0.5" stroke="black" d="M 314 234 118 300"/>
<path stroke-width="0.5" stroke="black" d="M 314 234 420 152"/>
<path stroke-width="0.5" stroke="black" d="M 314 234 89 60"/>
<path stroke-width="0.5" stroke="black" d="M 314 234 38 130"/>
<path stroke-width="0.5" stroke="black" d="M 314 234 405 243"/>
<path stroke-width="0.5" stroke="black" d="M 314 234 391 81"/>
<path stroke-width="0.5" stroke="black" d="M 314 234 181 211"/>
<path stroke-width="0.5" stroke="black" d="M 314 234 20 203"/>
<path stroke-width="0.5" stroke="black" d="M 314 234 94 53"/>
<path stroke-width="13.035714285714286" stroke="black" d="M 314 234 219 174"/>
<path stroke-width="0.5" stroke="black" d="M 405 243 171 107"/>
<path stroke-width="0.5" stroke="black" d="M 405 243 316 302"/>
<path stroke-width="0.5" stroke="black" d="M 405 243 211 20"/>
<path stroke-width="0.5" stroke="black" d="M 405 243 349 157"/>
<path stroke-width="0.5" stroke="black" d="M 405 243 234 320"/>
<path stroke-width="0.5" stroke="black" d="M 405 243 181 211"/>
<path stroke-width="0.5" stroke="black" d="M 405 243 291 29"/>
<path stroke-width="0.5" stroke="black" d="M 405 243 38 238"/>
<path stroke-width="3.2857142857142856" stroke="black" d="M 314 234 218 175"/>
<path stroke-width="0.5" stroke="black" d="M 405 243 118 300"/>
<path stroke-width="0.5" stroke="black" d="M 405 243 89 60"/>
<path stroke-width="0.5" stroke="black" d="M 405 243 38 130"/>
<path stroke-width="0.5" stroke="black" d="M 405 243 314 234"/>
<path stroke-width="0.5" stroke="black" d="M 405 243 391 81"/>
<path stroke-width="0.5" stroke="black" d="M 405 243 20 203"/>
<path stroke-width="0.5" stroke="black" d="M 405 243 123 36"/>
<path stroke-width="0.5" stroke="black" d="M 405 243 175 303"/>
<path stroke-width="0.5" stroke="black" d="M 405 243 93 290"/>
<path stroke-width="0.5" stroke="black" d="M 405 243 420 152"/>
<path stroke-width="0.5" stroke="black" d="M 20 203 38 238"/>
<path stroke-width="0.5" stroke="black" d="M 314 234 123 36"/>
<path stroke-width="0.5" stroke="black" d="M 314 234 93 290"/>
<path stroke-width="0.5" stroke="black" d="M 391 81 20 203"/>
<path stroke-width="0.5" stroke="black" d="M 391 81 123 36"/>
<path stroke-width="0.5" stroke="black" d="M 391 81 175 303"/>
<path stroke-width="0.5" stroke="black" d="M 391 81 93 290"/>
<path stroke-width="6.071428571428571" stroke="black" d="M 20 203 219 174"/>
<path stroke-width="7.464285714285714" stroke="black" d="M 20 203 218 175"/>
<path stroke-width="0.5" stroke="black" d="M 20 203 94 53"/>
<path stroke-width="0.5" stroke="black" d="M 20 203 335 297"/>
<path stroke-width="0.5" stroke="black" d="M 391 81 314 234"/>
<path stroke-width="0.5" stroke="black" d="M 20 203 287 84"/>
<path stroke-width="0.5" stroke="black" d="M 20 203 419 182"/>
<path stroke-width="0.5" stroke="black" d="M 20 203 32 162"/>
<path stroke-width="0.5" stroke="black" d="M 20 203 171 107"/>
<path stroke-width="0.5" stroke="black" d="M 20 203 316 302"/>
<path stroke-width="0.5" stroke="black" d="M 20 203 211 20"/>
<path stroke-width="0.5" stroke="black" d="M 20 203 349 157"/>
<path stroke-width="0.5" stroke="black" d="M 20 203 234 320"/>
<path stroke-width="0.5" stroke="black" d="M 20 203 181 211"/>
<path stroke-width="0.5" stroke="black" d="M 20 203 298 53"/>
<path stroke-width="0.5" stroke="black" d="M 314 234 175 303"/>
<path stroke-width="0.5" stroke="black" d="M 391 81 405 243"/>
<path stroke-width="0.5" stroke="black" d="M 391 81 89 60"/>
<path stroke-width="8.857142857142858" stroke="black" d="M 391 81 219 174"/>
<path stroke-width="7.464285714285714" stroke="black" d="M 391 81 218 175"/>
<path stroke-width="0.5" stroke="black" d="M 391 81 94 53"/>
<path stroke-width="0.5" stroke="black" d="M 391 81 335 297"/>
<path stroke-width="0.5" stroke="black" d="M 391 81 287 84"/>
<path stroke-width="0.5" stroke="black" d="M 391 81 298 53"/>
<path stroke-width="0.5" stroke="black" d="M 391 81 419 182"/>
<path stroke-width="0.5" stroke="black" d="M 391 81 32 162"/>
<path stroke-width="0.5" stroke="black" d="M 391 81 38 130"/>
<path stroke-width="0.5" stroke="black" d="M 391 81 171 107"/>
<path stroke-width="0.5" stroke="black" d="M 391 81 211 20"/>
<path stroke-width="0.5" stroke="black" d="M 391 81 349 157"/>
<path stroke-width="0.5" stroke="black" d="M 391 81 234 320"/>
<path stroke-width="0.5" stroke="black" d="M 391 81 181 211"/>
<path stroke-width="0.5" stroke="black" d="M 391 81 291 29"/>
<path stroke-width="0.5" stroke="black" d="M 391 81 38 238"/>
<path stroke-width="0.5" stroke="black" d="M 391 81 118 300"/>
<path stroke-width="0.5" stroke="black" d="M 391 81 420 152"/>
<path stroke-width="0.5" stroke="black" d="M 391 81 316 302"/>
<path stroke-width="0.5" stroke="black" d="M 181 211 291 29"/>
<path stroke-width="0.5" stroke="black" d="M 181 211 234 320"/>
<path stroke-width="0.5" stroke="black" d="M 181 211 349 157"/>
<path stroke-width="0.5" stroke="black" d="M 287 84 171 107"/>
<path stroke-width="0.5" stroke="black" d="M 287 84 316 302"/>
<path stroke-width="0.5" stroke="black" d="M 287 84 211 20"/>
<path stroke-width="0.5" stroke="black" d="M 287 84 349 157"/>
<path stroke-width="0.5" stroke="black" d="M 287 84 234 320"/>
<path stroke-width="0.5" stroke="black" d="M 287 84 181 211"/>
<path stroke-width="0.5" stroke="black" d="M 287 84 291 29"/>
<path stroke-width="0.5" stroke="black" d="M 287 84 38 238"/>
<path stroke-width="0.5" stroke="black" d="M 287 84 32 162"/>
<path stroke-width="0.5" stroke="black" d="M 287 84 118 300"/>
<path stroke-width="0.5" stroke="black" d="M 287 84 89 60"/>
<path stroke-width="4.678571428571429" stroke="black" d="M 287 84 38 130"/>
<path stroke-width="0.5" stroke="black" d="M 287 84 405 243"/>
<path stroke-width="0.5" stroke="black" d="M 287 84 314 234"/>
<path stroke-width="0.5" stroke="black" d="M 287 84 391 81"/>
<path stroke-width="0.5" stroke="black" d="M 287 84 20 203"/>
<path stroke-width="0.5" stroke="black" d="M 287 84 123 36"/>
<path stroke-width="0.5" stroke="black" d="M 287 84 175 303"/>
<path stroke-width="0.5" stroke="black" d="M 287 84 420 152"/>
<path stroke-width="0.5" stroke="black" d="M 287 84 93 290"/>
<path stroke-width="0.5" stroke="black" d="M 287 84 419 182"/>
<path stroke-width="0.5" stroke="black" d="M 287 84 335 297"/>
<path stroke-width="0.5" stroke="black" d="M 335 297 234 320"/>
<path stroke-width="0.5" stroke="black" d="M 335 297 181 211"/>
<path stroke-width="0.5" stroke="black" d="M 335 297 291 29"/>
<path stroke-width="0.5" stroke="black" d="M 335 297 38 238"/>
<path stroke-width="0.5" stroke="black" d="M 335 297 118 300"/>
<path stroke-width="0.5" stroke="black" d="M 335 297 420 152"/>
<path stroke-width="0.5" stroke="black" d="M 335 297 89 60"/>
<path stroke-width="0.5" stroke="black" d="M 335 297 38 130"/>
<path stroke-width="0.5" stroke="black" d="M 287 84 298 53"/>
<path stroke-width="4.678571428571429" stroke="black" d="M 335 297 405 243"/>
<path stroke-width="0.5" stroke="black" d="M 335 297 391 81"/>
<path stroke-width="0.5" stroke="black" d="M 335 297 20 203"/>
<path stroke-width="0.5" stroke="black" d="M 335 297 123 36"/>
<path stroke-width="0.5" stroke="black" d="M 335 297 175 303"/>
<path stroke-width="0.5" stroke="black" d="M 335 297 93 290"/>
<path stroke-width="8.857142857142858" stroke="black" d="M 287 84 219 174"/>
<path stroke-width="3.2857142857142856" stroke="black" d="M 287 84 218 175"/>
<path stroke-width="0.5" stroke="black" d="M 287 84 94 53"/>
<path stroke-width="0.5" stroke="black" d="M 335 297 314 234"/>
<path stroke-width="0.5" stroke="black" d="M 335 297 349 157"/>
<path stroke-width="8.857142857142858" stroke="black" d="M 298 53 219 174"/>
<path stroke-width="0.5" stroke="black" d="M 298 53 94 53"/>
<path stroke-width="0.5" stroke="black" d="M 298 53 93 290"/>
<path stroke-width="8.857142857142858" stroke="black" d="M 419 182 219 174"/>
<path stroke-width="3.2857142857142856" stroke="black" d="M 419 182 218 175"/>
<path stroke-width="0.5" stroke="black" d="M 419 182 94 53"/>
<path stroke-width="0.5" stroke="black" d="M 419 182 335 297"/>
<path stroke-width="0.5" stroke="black" d="M 419 182 287 84"/>
<path stroke-width="0.5" stroke="black" d="M 419 182 298 53"/>
<path stroke-width="0.5" stroke="black" d="M 419 182 32 162"/>
<path stroke-width="0.5" stroke="black" d="M 298 53 175 303"/>
<path stroke-width="0.5" stroke="black" d="M 419 182 171 107"/>
<path stroke-width="0.5" stroke="black" d="M 419 182 211 20"/>
<path stroke-width="0.5" stroke="black" d="M 419 182 349 157"/>
<path stroke-width="0.5" stroke="black" d="M 419 182 234 320"/>
<path stroke-width="0.5" stroke="black" d="M 419 182 181 211"/>
<path stroke-width="0.5" stroke="black" d="M 419 182 291 29"/>
<path stroke-width="0.5" stroke="black" d="M 419 182 38 238"/>
<path stroke-width="0.5" stroke="black" d="M 419 182 118 300"/>
<path stroke-width="4.678571428571429" stroke="black" d="M 419 182 420 152"/>
<path stroke-width="0.5" stroke="black" d="M 419 182 316 302"/>
<path stroke-width="3.2857142857142856" stroke="black" d="M 298 53 218 175"/>
<path stroke-width="0.5" stroke="black" d="M 298 53 123 36"/>
<path stroke-width="0.5" stroke="black" d="M 298 53 391 81"/>
<path stroke-width="0.5" stroke="black" d="M 298 53 335 297"/>
<path stroke-width="0.5" stroke="black" d="M 298 53 287 84"/>
<path stroke-width="0.5" stroke="black" d="M 298 53 419 182"/>
<path stroke-width="0.5" stroke="black" d="M 298 53 32 162"/>
<path stroke-width="0.5" stroke="black" d="M 298 53 171 107"/>
<path stroke-width="0.5" stroke="black" d="M 298 53 316 302"/>
<path stroke-width="0.5" stroke="black" d="M 298 53 211 20"/>
<path stroke-width="0.5" stroke="black" d="M 298 53 349 157"/>
<path stroke-width="0.5" stroke="black" d="M 298 53 20 203"/>
<path stroke-width="0.5" stroke="black" d="M 298 53 234 320"/>
<path stroke-width="0.5" stroke="black" d="M 298 53 291 29"/>
<path stroke-width="0.5" stroke="black" d="M 298 53 38 238"/>
<path stroke-width="0.5" stroke="black" d="M 298 53 118 300"/>
<path stroke-width="0.5" stroke="black" d="M 298 53 420 152"/>
<path stroke-width="4.678571428571429" stroke="black" d="M 298 53 89 60"/>
<path stroke-width="0.5" stroke="black" d="M 298 53 38 130"/>
<path stroke-width="0.5" stroke="black" d="M 298 53 405 243"/>
<path stroke-width="0.5" stroke="black" d="M 298 53 314 234"/>
<path stroke-width="0.5" stroke="black" d="M 298 53 181 211"/>
<path stroke-width="0.5" stroke="black" d="M 419 182 89 60"/>
<path stroke-width="0.5" stroke="black" d="M 335 297 211 20"/>
<path stroke-width="0.5" stroke="black" d="M 335 297 171 107"/>
<path stroke-width="7.464285714285714" stroke="black" d="M 219 174 123 36"/>
<path stroke-width="8.857142857142858" stroke="black" d="M 219 174 175 303"/>
<path stroke-width="8.857142857142858" stroke="black" d="M 219 174 93 290"/>
<path stroke-width="20.0" stroke="black" d="M 218 175 219 174"/>
<path stroke-width="0.5" stroke="black" d="M 218 175 94 53"/>
<path stroke-width="3.2857142857142856" stroke="black" d="M 218 175 335 297"/>
<path stroke-width="3.2857142857142856" stroke="black" d="M 218 175 287 84"/>
<path stroke-width="3.2857142857142856" stroke="black" d="M 218 175 298 53"/>
<path stroke-width="6.071428571428571" stroke="black" d="M 219 174 20 203"/>
<path stroke-width="3.2857142857142856" stroke="black" d="M 218 175 419 182"/>
<path stroke-width="3.2857142857142856" stroke="black" d="M 218 175 171 107"/>
<path stroke-width="3.2857142857142856" stroke="black" d="M 218 175 316 302"/>
<path stroke-width="3.2857142857142856" stroke="black" d="M 218 175 211 20"/>
<path stroke-width="3.2857142857142856" stroke="black" d="M 218 175 349 157"/>
<path stroke-width="3.2857142857142856" stroke="black" d="M 218 175 234 320"/>
<path stroke-width="3.2857142857142856" stroke="black" d="M 218 175 181 211"/>
<path stroke-width="3.2857142857142856" stroke="black" d="M 218 175 291 29"/>
<path stroke-width="3.2857142857142856" stroke="black" d="M 218 175 38 238"/>
<path stroke-width="3.2857142857142856" stroke="black" d="M 218 175 32 162"/>
<path stroke-width="3.2857142857142856" stroke="black" d="M 218 175 118 300"/>
<path stroke-width="8.857142857142858" stroke="black" d="M 219 174 391 81"/>
<path stroke-width="8.857142857142858" stroke="black" d="M 219 174 405 243"/>
<path stroke-width="7.464285714285714" stroke="black" d="M 219 174 94 53"/>
<path stroke-width="8.857142857142858" stroke="black" d="M 219 174 335 297"/>
<path stroke-width="8.857142857142858" stroke="black" d="M 219 174 287 84"/>
<path stroke-width="8.857142857142858" stroke="black" d="M 219 174 298 53"/>
<path stroke-width="8.857142857142858" stroke="black" d="M 219 174 419 182"/>
<path stroke-width="8.857142857142858" stroke="black" d="M 219 174 32 162"/>
<path stroke-width="8.857142857142858" stroke="black" d="M 219 174 171 107"/>
<path stroke-width="8.857142857142858" stroke="black" d="M 219 174 316 302"/>
<path stroke-width="13.035714285714286" stroke="black" d="M 219 174 314 234"/>
<path stroke-width="8.857142857142858" stroke="black" d="M 219 174 211 20"/>
<path stroke-width="8.857142857142858" stroke="black" d="M 219 174 234 320"/>
<path stroke-width="8.857142857142858" stroke="black" d="M 219 174 181 211"/>
<path stroke-width="8.857142857142858" stroke="black" d="M 219 174 291 29"/>
<path stroke-width="8.857142857142858" stroke="black" d="M 219 174 38 238"/>
<path stroke-width="8.857142857142858" stroke="black" d="M 219 174 118 300"/>
<path stroke-width="8.857142857142858" stroke="black" d="M 219 174 420 152"/>
<path stroke-width="8.857142857142858" stroke="black" d="M 219 174 89 60"/>
<path stroke-width="8.857142857142858" stroke="black" d="M 219 174 38 130"/>
<path stroke-width="8.857142857142858" stroke="black" d="M 219 174 349 157"/>
<path stroke-width="0.5" stroke="black" d="M 335 297 316 302"/>
<path stroke-width="3.2857142857142856" stroke="black" d="M 218 175 420 152"/>
<path stroke-width="3.2857142857142856" stroke="black" d="M 218 175 38 130"/>
<path stroke-width="0.5" stroke="black" d="M 94 53 118 300"/>
<path stroke-width="0.5" stroke="black" d="M 94 53 420 152"/>
<path stroke-width="0.5" stroke="black" d="M 94 53 89 60"/>
<path stroke-width="0.5" stroke="black" d="M 94 53 38 130"/>
<path stroke-width="0.5" stroke="black" d="M 94 53 405 243"/>
<path stroke-width="0.5" stroke="black" d="M 94 53 314 234"/>
<path stroke-width="0.5" stroke="black" d="M 94 53 391 81"/>
<path stroke-width="0.5" stroke="black" d="M 94 53 20 203"/>
<path stroke-width="0.5" stroke="black" d="M 94 53 38 238"/>
<path stroke-width="0.5" stroke="black" d="M 94 53 123 36"/>
<path stroke-width="0.5" stroke="black" d="M 94 53 93 290"/>
<path stroke-width="8.857142857142858" stroke="black" d="M 335 297 219 174"/>
<path stroke-width="3.2857142857142856" stroke="black" d="M 335 297 218 175"/>
<path stroke-width="0.5" stroke="black" d="M 335 297 94 53"/>
<path stroke-width="0.5" stroke="black" d="M 335 297 287 84"/>
<path stroke-width="0.5" stroke="black" d="M 335 297 298 53"/>
<path stroke-width="0.5" stroke="black" d="M 335 297 419 182"/>
<path stroke-width="0.5" stroke="black" d="M 335 297 32 162"/>
<path stroke-width="0.5" stroke="black" d="M 94 53 175 303"/>
<path stroke-width="3.2857142857142856" stroke="black" d="M 218 175 89 60"/>
<path stroke-width="0.5" stroke="black" d="M 94 53 291 29"/>
<path stroke-width="0.5" stroke="black" d="M 94 53 234 320"/>
<path stroke-width="3.2857142857142856" stroke="black" d="M 218 175 405 243"/>
<path stroke-width="3.2857142857142856" stroke="black" d="M 218 175 314 234"/>
<path stroke-width="7.464285714285714" stroke="black" d="M 218 175 391 81"/>
<path stroke-width="7.464285714285714" stroke="black" d="M 218 175 20 203"/>
<path stroke-width="3.2857142857142856" stroke="black" d="M 218 175 123 36"/>
<path stroke-width="3.2857142857142856" stroke="black" d="M 218 175 175 303"/>
<path stroke-width="3.2857142857142856" stroke="black" d="M 218 175 93 290"/>
<path stroke-width="7.464285714285714" stroke="black" d="M 94 53 219 174"/>
<path stroke-width="0.5" stroke="black" d="M 94 53 181 211"/>
<path stroke-width="0.5" stroke="black" d="M 94 53 218 175"/>
<path stroke-width="0.5" stroke="black" d="M 94 53 287 84"/>
<path stroke-width="0.5" stroke="black" d="M 94 53 298 53"/>
<path stroke-width="0.5" stroke="black" d="M 94 53 419 182"/>
<path stroke-width="0.5" stroke="black" d="M 94 53 32 162"/>
<path stroke-width="0.5" stroke="black" d="M 94 53 171 107"/>
<path stroke-width="0.5" stroke="black" d="M 94 53 316 302"/>
<path stroke-width="0.5" stroke="black" d="M 94 53 211 20"/>
<path stroke-width="0.5" stroke="black" d="M 94 53 349 157"/>
<path stroke-width="0.5" stroke="black" d="M 94 53 335 297"/>
<path stroke-width="0.5" stroke="black" d="M 93 290 123 36"/>
<path stroke-width="0.5" stroke="black" d="M 419 182 38 130"/>
<path stroke-width="0.5" stroke="black" d="M 419 182 314 234"/>
<path stroke-width="3.2857142857142856" stroke="black" d="M 349 157 218 175"/>
<path stroke-width="0.5" stroke="black" d="M 349 157 94 53"/>
<path stroke-width="0.5" stroke="black" d="M 349 157 335 297"/>
<path stroke-width="0.5" stroke="black" d="M 349 157 287 84"/>
<path stroke-width="0.5" stroke="black" d="M 349 157 298 53"/>
<path stroke-width="0.5" stroke="black" d="M 349 157 419 182"/>
<path stroke-width="0.5" stroke="black" d="M 349 157 32 162"/>
<path stroke-width="0.5" stroke="black" d="M 349 157 171 107"/>
<path stroke-width="8.857142857142858" stroke="black" d="M 349 157 219 174"/>
<path stroke-width="0.5" stroke="black" d="M 349 157 316 302"/>
<path stroke-width="4.678571428571429" stroke="black" d="M 349 157 234 320"/>
<path stroke-width="0.5" stroke="black" d="M 349 157 181 211"/>
<path stroke-width="0.5" stroke="black" d="M 349 157 291 29"/>
<path stroke-width="0.5" stroke="black" d="M 349 157 38 238"/>
<path stroke-width="0.5" stroke="black" d="M 349 157 118 300"/>
<path stroke-width="0.5" stroke="black" d="M 349 157 420 152"/>
<path stroke-width="0.5" stroke="black" d="M 349 157 89 60"/>
<path stroke-width="0.5" stroke="black" d="M 349 157 38 130"/>
<path stroke-width="0.5" stroke="black" d="M 349 157 211 20"/>
<path stroke-width="0.5" stroke="black" d="M 349 157 405 243"/>
<path stroke-width="0.5" stroke="black" d="M 211 20 93 290"/>
<path stroke-width="0.5" stroke="black" d="M 211 20 123 36"/>
<path stroke-width="0.5" stroke="black" d="M 211 20 298 53"/>
<path stroke-width="0.5" stroke="black" d="M 211 20 419 182"/>
<path stroke-width="0.5" stroke="black" d="M 211 20 32 162"/>
<path stroke-width="0.5" stroke="black" d="M 211 20 171 107"/>
<path stroke-width="0.5" stroke="black" d="M 211 20 316 302"/>
<path stroke-width="0.5" stroke="black" d="M 211 20 349 157"/>
<path stroke-width="0.5" stroke="black" d="M 211 20 234 320"/>
<path stroke-width="4.678571428571429" stroke="black" d="M 211 20 181 211"/>
<path stroke-width="0.5" stroke="black" d="M 211 20 175 303"/>
<path stroke-width="0.5" stroke="black" d="M 211 20 291 29"/>
<path stroke-width="0.5" stroke="black" d="M 211 20 118 300"/>
<path stroke-width="0.5" stroke="black" d="M 211 20 420 152"/>
<path stroke-width="0.5" stroke="black" d="M 211 20 89 60"/>
<path stroke-width="0.5" stroke="black" d="M 211 20 38 130"/>
<path stroke-width="0.5" stroke="black" d="M 211 20 405 243"/>
<path stroke-width="0.5" stroke="black" d="M 211 20 314 234"/>
<path stroke-width="0.5" stroke="black" d="M 211 20 391 81"/>
<path stroke-width="0.5" stroke="black" d="M 211 20 20 203"/>
<path stroke-width="0.5" stroke="black" d="M 211 20 38 238"/>
<path stroke-width="0.5" stroke="black" d="M 211 20 287 84"/>
<path stroke-width="0.5" stroke="black" d="M 349 157 314 234"/>
<path stroke-width="0.5" stroke="black" d="M 349 157 20 203"/>
<path stroke-width="0.5" stroke="black" d="M 234 320 405 243"/>
<path stroke-width="0.5" stroke="black" d="M 234 320 314 234"/>
<path stroke-width="0.5" stroke="black" d="M 234 320 391 81"/>
<path stroke-width="0.5" stroke="black" d="M 234 320 20 203"/>
<path stroke-width="0.5" stroke="black" d="M 234 320 123 36"/>
<path stroke-width="0.5" stroke="black" d="M 234 320 175 303"/>
<path stroke-width="0.5" stroke="black" d="M 234 320 93 290"/>
<path stroke-width="8.857142857142858" stroke="black" d="M 181 211 219 174"/>
<path stroke-width="0.5" stroke="black" d="M 234 320 38 130"/>
<path stroke-width="3.2857142857142856" stroke="black" d="M 181 211 218 175"/>
<path stroke-width="0.5" stroke="black" d="M 181 211 335 297"/>
<path stroke-width="0.5" stroke="black" d="M 181 211 287 84"/>
<path stroke-width="0.5" stroke="black" d="M 181 211 298 53"/>
<path stroke-width="0.5" stroke="black" d="M 181 211 419 182"/>
<path stroke-width="0.5" stroke="black" d="M 181 211 32 162"/>
<path stroke-width="0.5" stroke="black" d="M 181 211 171 107"/>
<path stroke-width="0.5" stroke="black" d="M 181 211 316 302"/>
<path stroke-width="4.678571428571429" stroke="black" d="M 181 211 211 20"/>
<path stroke-width="0.5" stroke="black" d="M 181 211 94 53"/>
<path stroke-width="0.5" stroke="black" d="M 349 157 391 81"/>
<path stroke-width="0.5" stroke="black" d="M 234 320 89 60"/>
<path stroke-width="0.5" stroke="black" d="M 234 320 118 300"/>
<path stroke-width="0.5" stroke="black" d="M 349 157 123 36"/>
<path stroke-width="0.5" stroke="black" d="M 349 157 175 303"/>
<path stroke-width="0.5" stroke="black" d="M 349 157 93 290"/>
<path stroke-width="8.857142857142858" stroke="black" d="M 234 320 219 174"/>
<path stroke-width="3.2857142857142856" stroke="black" d="M 234 320 218 175"/>
<path stroke-width="0.5" stroke="black" d="M 234 320 94 53"/>
<path stroke-width="0.5" stroke="black" d="M 234 320 335 297"/>
<path stroke-width="0.5" stroke="black" d="M 234 320 287 84"/>
<path stroke-width="0.5" stroke="black" d="M 234 320 420 152"/>
<path stroke-width="0.5" stroke="black" d="M 234 320 298 53"/>
<path stroke-width="0.5" stroke="black" d="M 234 320 32 162"/>
<path stroke-width="0.5" stroke="black" d="M 234 320 171 107"/>
<path stroke-width="0.5" stroke="black" d="M 234 320 316 302"/>
<path stroke-width="0.5" stroke="black" d="M 234 320 211 20"/>
<path stroke-width="4.678571428571429" stroke="black" d="M 234 320 349 157"/>
<path stroke-width="0.5" stroke="black" d="M 234 320 181 211"/>
<path stroke-width="0.5" stroke="black" d="M 234 320 291 29"/>
<path stroke-width="0.5" stroke="black" d="M 234 320 38 238"/>
<path stroke-width="0.5" stroke="black" d="M 234 320 419 182"/>
<path stroke-width="0.5" stroke="black" d="M 419 182 405 243"/>
<path stroke-width="0.5" stroke="black" d="M 211 20 335 297"/>
<path stroke-width="3.2857142857142856" stroke="black" d="M 211 20 218 175"/>
<path stroke-width="0.5" stroke="black" d="M 32 162 89 60"/>
<path stroke-width="0.5" stroke="black" d="M 32 162 38 130"/>
<path stroke-width="0.5" stroke="black" d="M 32 162 405 243"/>
<path stroke-width="0.5" stroke="black" d="M 32 162 314 234"/>
<path stroke-width="0.5" stroke="black" d="M 32 162 391 81"/>
<path stroke-width="0.5" stroke="black" d="M 32 162 20 203"/>
<path stroke-width="0.5" stroke="black" d="M 32 162 123 36"/>
<path stroke-width="0.5" stroke="black" d="M 32 162 175 303"/>
<path stroke-width="0.5" stroke="black" d="M 32 162 420 152"/>
<path stroke-width="0.5" stroke="black" d="M 32 162 93 290"/>
<path stroke-width="3.2857142857142856" stroke="black" d="M 171 107 218 175"/>
<path stroke-width="0.5" stroke="black" d="M 171 107 94 53"/>
<path stroke-width="0.5" stroke="black" d="M 171 107 335 297"/>
<path stroke-width="0.5" stroke="black" d="M 171 107 287 84"/>
<path stroke-width="0.5" stroke="black" d="M 171 107 298 53"/>
<path stroke-width="0.5" stroke="black" d="M 171 107 419 182"/>
<path stroke-width="0.5" stroke="black" d="M 171 107 32 162"/>
<path stroke-width="0.5" stroke="black" d="M 171 107 316 302"/>
<path stroke-width="8.857142857142858" stroke="black" d="M 171 107 219 174"/>
<path stroke-width="0.5" stroke="black" d="M 171 107 211 20"/>
<path stroke-width="0.5" stroke="black" d="M 32 162 118 300"/>
<path stroke-width="0.5" stroke="black" d="M 32 162 291 29"/>
<path stroke-width="0.5" stroke="black" d="M 419 182 391 81"/>
<path stroke-width="0.5" stroke="black" d="M 419 182 20 203"/>
<path stroke-width="0.5" stroke="black" d="M 419 182 123 36"/>
<path stroke-width="0.5" stroke="black" d="M 419 182 175 303"/>
<path stroke-width="0.5" stroke="black" d="M 419 182 93 290"/>
<path stroke-width="8.857142857142858" stroke="black" d="M 32 162 219 174"/>
<path stroke-width="3.2857142857142856" stroke="black" d="M 32 162 218 175"/>
<path stroke-width="0.5" stroke="black" d="M 32 162 94 53"/>
<path stroke-width="4.678571428571429" stroke="black" d="M 32 162 38 238"/>
<path stroke-width="0.5" stroke="black" d="M 32 162 335 297"/>
<path stroke-width="0.5" stroke="black" d="M 32 162 298 53"/>
<path stroke-width="0.5" stroke="black" d="M 32 162 419 182"/>
<path stroke-width="0.5" stroke="black" d="M 32 162 171 107"/>
<path stroke-width="0.5" stroke="black" d="M 32 162 316 302"/>
<path stroke-width="0.5" stroke="black" d="M 32 162 211 20"/>
<path stroke-width="0.5" stroke="black" d="M 32 162 349 157"/>
<path stroke-width="0.5" stroke="black" d="M 32 162 234 320"/>
<path stroke-width="0.5" stroke="black" d="M 32 162 181 211"/>
<path stroke-width="0.5" stroke="black" d="M 32 162 287 84"/>
<path stroke-width="0.5" stroke="black" d="M 211 20 94 53"/>
<path stroke-width="0.5" stroke="black" d="M 171 107 349 157"/>
<path stroke-width="0.5" stroke="black" d="M 171 107 181 211"/>
<path stroke-width="0.5" stroke="black" d="M 316 302 211 20"/>
<path stroke-width="0.5" stroke="black" d="M 316 302 349 157"/>
<path stroke-width="0.5" stroke="black" d="M 316 302 234 320"/>
<path stroke-width="0.5" stroke="black" d="M 316 302 181 211"/>
<path stroke-width="0.5" stroke="black" d="M 316 302 291 29"/>
<path stroke-width="0.5" stroke="black" d="M 316 302 38 238"/>
<path stroke-width="0.5" stroke="black" d="M 316 302 118 300"/>
<path stroke-width="0.5" stroke="black" d="M 316 302 420 152"/>
<path stroke-width="0.5" stroke="black" d="M 316 302 171 107"/>
<path stroke-width="0.5" stroke="black" d="M 316 302 89 60"/>
<path stroke-width="0.5" stroke="black" d="M 316 302 405 243"/>
<path stroke-width="0.5" stroke="black" d="M 316 302 314 234"/>
<path stroke-width="0.5" stroke="black" d="M 316 302 391 81"/>
<path stroke-width="0.5" stroke="black" d="M 316 302 20 203"/>
<path stroke-width="0.5" stroke="black" d="M 316 302 123 36"/>
<path stroke-width="4.678571428571429" stroke="black" d="M 316 302 175 303"/>
<path stroke-width="0.5" stroke="black" d="M 316 302 93 290"/>
<path stroke-width="8.857142857142858" stroke="black" d="M 211 20 219 174"/>
<path stroke-width="0.5" stroke="black" d="M 316 302 38 130"/>
<path stroke-width="0.5" stroke="black" d="M 171 107 234 320"/>
<path stroke-width="0.5" stroke="black" d="M 316 302 32 162"/>
<path stroke-width="0.5" stroke="black" d="M 316 302 298 53"/>
<path stroke-width="4.678571428571429" stroke="black" d="M 171 107 291 29"/>
<path stroke-width="0.5" stroke="black" d="M 171 107 38 238"/>
<path stroke-width="0.5" stroke="black" d="M 171 107 118 300"/>
<path stroke-width="0.5" stroke="black" d="M 171 107 420 152"/>
<path stroke-width="0.5" stroke="black" d="M 171 107 89 60"/>
<path stroke-width="0.5" stroke="black" d="M 171 107 38 130"/>
<path stroke-width="0.5" stroke="black" d="M 171 107 405 243"/>
<path stroke-width="0.5" stroke="black" d="M 171 107 314 234"/>
<path stroke-width="0.5" stroke="black" d="M 316 302 419 182"/>
<path stroke-width="0.5" stroke="black" d="M 171 107 391 81"/>
<path stroke-width="0.5" stroke="black" d="M 171 107 123 36"/>
<path stroke-width="0.5" stroke="black" d="M 171 107 175 303"/>
<path stroke-width="0.5" stroke="black" d="M 171 107 93 290"/>
<path stroke-width="8.857142857142858" stroke="black" d="M 316 302 219 174"/>
<path stroke-width="3.2857142857142856" stroke="black" d="M 316 302 218 175"/>
<path stroke-width="0.5" stroke="black" d="M 316 302 94 53"/>
<path stroke-width="0.5" stroke="black" d="M 316 302 335 297"/>
<path stroke-width="0.5" stroke="black" d="M 316 302 287 84"/>
<path stroke-width="0.5" stroke="black" d="M 171 107 20 203"/>
<path stroke-width="0.5" stroke="black" d="M 93 290 175 303"/>
<circle cx="219" cy="174" r="7.0" style="fill:blue;stroke:black;stroke-width:1.0"/>
<circle cx="218" cy="175" r="7.0" style="fill:blue;stroke:black;stroke-width:1.0"/>
<circle cx="94" cy="53" r="7.0" style="fill:blue;stroke:black;stroke-width:1.0"/>
<circle cx="335" cy="297" r="7.0" style="fill:green;stroke:black;stroke-width:1.0"/>
<circle cx="287" cy="84" r="7.0" style="fill:red;stroke:black;stroke-width:1.0"/>
<circle cx="298" cy="53" r="7.0" style="fill:blue;stroke:black;stroke-width:1.0"/>
<circle cx="419" cy="182" r="7.0" style="fill:blue;stroke:black;stroke-width:1.0"/>
<circle cx="32" cy="162" r="7.0" style="fill:blue;stroke:black;stroke-width:1.0"/>
<circle cx="171" cy="107" r="7.0" style="fill:blue;stroke:black;stroke-width:1.0"/>
<circle cx="316" cy="302" r="7.0" style="fill:orange;stroke:black;stroke-width:1.0"/>
<circle cx="211" cy="20" r="7.0" style="fill:blue;stroke:black;stroke-width:1.0"/>
<circle cx="349" cy="157" r="7.0" style="fill:blue;stroke:black;stroke-width:1.0"/>
<circle cx="234" cy="320" r="7.0" style="fill:blue;stroke:black;stroke-width:1.0"/>
<circle cx="181" cy="211" r="7.0" style="fill:blue;stroke:black;stroke-width:1.0"/>
<circle cx="291" cy="29" r="7.0" style="fill:blue;stroke:black;stroke-width:1.0"/>
<circle cx="38" cy="238" r="7.0" style="fill:blue;stroke:black;stroke-width:1.0"/>
<circle cx="118" cy="300" r="7.0" style="fill:purple;stroke:black;stroke-width:1.0"/>
<circle cx="420" cy="152" r="7.0" style="fill:blue;stroke:black;stroke-width:1.0"/>
<circle cx="89" cy="60" r="7.0" style="fill:blue;stroke:black;stroke-width:1.0"/>
<circle cx="38" cy="130" r="7.0" style="fill:red;stroke:black;stroke-width:1.0"/>
<circle cx="405" cy="243" r="7.0" style="fill:green;stroke:black;stroke-width:1.0"/>
<circle cx="314" cy="234" r="7.0" style="fill:blue;stroke:black;stroke-width:1.0"/>
<circle cx="391" cy="81" r="7.0" style="fill:blue;stroke:black;stroke-width:1.0"/>
<circle cx="20" cy="203" r="7.0" style="fill:blue;stroke:black;stroke-width:1.0"/>
<circle cx="123" cy="36" r="7.0" style="fill:blue;stroke:black;stroke-width:1.0"/>
<circle cx="175" cy="303" r="7.0" style="fill:orange;stroke:black;stroke-width:1.0"/>
<circle cx="93" cy="290" r="7.0" style="fill:purple;stroke:black;stroke-width:1.0"/>
</svg>
