<svg width="440" height="340" xmlns="http://www.w3.org/2000/svg">
<path stroke-width="20.0" stroke="black" d="M 291 181 266 184"/>
<path stroke-width="0.5" stroke="black" d="M 102 208 280 314"/>
<path stroke-width="0.5" stroke="black" d="M 102 208 419 184"/>
<path stroke-width="0.5" stroke="black" d="M 102 208 390 278"/>
<path stroke-width="0.5" stroke="black" d="M 102 208 149 297"/>
<path stroke-width="0.5" stroke="black" d="M 102 208 56 237"/>
<path stroke-width="8.857142857142858" stroke="black" d="M 392 273 291 181"/>
<path stroke-width="3.2857142857142856" stroke="black" d="M 392 273 266 184"/>
<path stroke-width="0.5" stroke="black" d="M 392 273 217 67"/>
<path stroke-width="0.5" stroke="black" d="M 392 273 20 138"/>
<path stroke-width="0.5" stroke="black" d="M 392 273 338 61"/>
<path stroke-width="4.678571428571429" stroke="black" d="M 392 273 420 187"/>
<path stroke-width="0.5" stroke="black" d="M 392 273 330 226"/>
<path stroke-width="0.5" stroke="black" d="M 392 273 61 239"/>
<path stroke-width="0.5" stroke="black" d="M 392 273 20 141"/>
<path stroke-width="0.5" stroke="black" d="M 392 273 277 320"/>
<path stroke-width="0.5" stroke="black" d="M 392 273 369 87"/>
<path stroke-width="0.5" stroke="black" d="M 392 273 340 120"/>
<path stroke-width="0.5" stroke="black" d="M 102 208 220 72"/>
<path stroke-width="0.5" stroke="black" d="M 102 208 93 34"/>
<path stroke-width="0.5" stroke="black" d="M 102 208 274 20"/>
<path stroke-width="0.5" stroke="black" d="M 102 208 392 273"/>
<path stroke-width="4.678571428571429" stroke="black" d="M 124 290 56 237"/>
<path stroke-width="8.857142857142858" stroke="black" d="M 102 208 291 181"/>
<path stroke-width="3.2857142857142856" stroke="black" d="M 102 208 266 184"/>
<path stroke-width="0.5" stroke="black" d="M 102 208 217 67"/>
<path stroke-width="0.5" stroke="black" d="M 102 208 20 138"/>
<path stroke-width="0.5" stroke="black" d="M 102 208 338 61"/>
<path stroke-width="0.5" stroke="black" d="M 102 208 420 187"/>
<path stroke-width="4.678571428571429" stroke="black" d="M 102 208 330 226"/>
<path stroke-width="0.5" stroke="black" d="M 392 273 144 267"/>
<path stroke-width="0.5" stroke="black" d="M 102 208 61 239"/>
<path stroke-width="0.5" stroke="black" d="M 102 208 277 320"/>
<path stroke-width="0.5" stroke="black" d="M 102 208 369 87"/>
<path stroke-width="0.5" stroke="black" d="M 102 208 340 120"/>
<path stroke-width="0.5" stroke="black" d="M 102 208 144 267"/>
<path stroke-width="0.5" stroke="black" d="M 102 208 282 26"/>
<path stroke-width="0.5" stroke="black" d="M 102 208 92 36"/>
<path stroke-width="0.5" stroke="black" d="M 102 208 166 310"/>
<path stroke-width="0.5" stroke="black" d="M 102 208 124 290"/>
<path stroke-width="0.5" stroke="black" d="M 102 208 20 141"/>
<path stroke-width="0.5" stroke="black" d="M 392 273 282 26"/>
<path stroke-width="0.5" stroke="black" d="M 392 273 92 36"/>
<path stroke-width="0.5" stroke="black" d="M 392 273 166 310"/>
<path stroke-width="0.5" stroke="black" d="M 274 20 144 267"/>
<path stroke-width="0.5" stroke="black" d="M 274 20 282 26"/>
<path stroke-width="0.5" stroke="black" d="M 274 20 92 36"/>
<path stroke-width="0.5" stroke="black" d="M 274 20 166 310"/>
<path stroke-width="0.5" stroke="black" d="M 274 20 124 290"/>
<path stroke-width="0.5" stroke="black" d="M 274 20 102 208"/>
<path stroke-width="0.5" stroke="black" d="M 274 20 392 273"/>
<path stroke-width="0.5" stroke="black" d="M 274 20 93 34"/>
<path stroke-width="0.5" stroke="black" d="M 274 20 340 120"/>
<path stroke-width="0.5" stroke="black" d="M 274 20 220 72"/>
<path stroke-width="0.5" stroke="black" d="M 274 20 419 184"/>
<path stroke-width="0.5" stroke="black" d="M 274 20 390 278"/>
<path stroke-width="0.5" stroke="black" d="M 274 20 149 297"/>
<path stroke-width="0.5" stroke="black" d="M 274 20 56 237"/>
<path stroke-width="8.857142857142858" stroke="black" d="M 93 34 291 181"/>
<path stroke-width="3.2857142857142856" stroke="black" d="M 93 34 266 184"/>
<path stroke-width="0.5" stroke="black" d="M 93 34 217 67"/>
<path stroke-width="4.678571428571429" stroke="black" d="M 93 34 20 138"/>
<path stroke-width="0.5" stroke="black" d="M 274 20 280 314"/>
<path stroke-width="0.5" stroke="black" d="M 124 290 149 297"/>
<path stroke-width="0.5" stroke="black" d="M 274 20 369 87"/>
<path stroke-width="0.5" stroke="black" d="M 274 20 20 141"/>
<path stroke-width="0.5" stroke="black" d="M 392 273 124 290"/>
<path stroke-width="0.5" stroke="black" d="M 392 273 102 208"/>
<path stroke-width="0.5" stroke="black" d="M 392 273 274 20"/>
<path stroke-width="0.5" stroke="black" d="M 392 273 93 34"/>
<path stroke-width="0.5" stroke="black" d="M 392 273 220 72"/>
<path stroke-width="0.5" stroke="black" d="M 392 273 280 314"/>
<path stroke-width="0.5" stroke="black" d="M 392 273 419 184"/>
<path stroke-width="0.5" stroke="black" d="M 392 273 390 278"/>
<path stroke-width="0.5" stroke="black" d="M 274 20 277 320"/>
<path stroke-width="0.5" stroke="black" d="M 392 273 149 297"/>
<path stroke-width="8.857142857142858" stroke="black" d="M 274 20 291 181"/>
<path stroke-width="3.2857142857142856" stroke="black" d="M 274 20 266 184"/>
<path stroke-width="0.5" stroke="black" d="M 274 20 217 67"/>
<path stroke-width="0.5" stroke="black" d="M 274 20 20 138"/>
<path stroke-width="4.678571428571429" stroke="black" d="M 274 20 338 61"/>
<path stroke-width="0.5" stroke="black" d="M 274 20 420 187"/>
<path stroke-width="0.5" stroke="black" d="M 274 20 330 226"/>
<path stroke-width="0.5" stroke="black" d="M 274 20 61 239"/>
<path stroke-width="0.5" stroke="black" d="M 392 273 56 237"/>
<path stroke-width="0.5" stroke="black" d="M 124 290 390 278"/>
<path stroke-width="0.5" stroke="black" d="M 124 290 419 184"/>
<path stroke-width="0.5" stroke="black" d="M 124 290 280 314"/>
<path stroke-width="0.5" stroke="black" d="M 92 36 340 120"/>
<path stroke-width="0.5" stroke="black" d="M 92 36 144 267"/>
<path stroke-width="0.5" stroke="black" d="M 92 36 282 26"/>
<path stroke-width="0.5" stroke="black" d="M 92 36 166 310"/>
<path stroke-width="0.5" stroke="black" d="M 92 36 124 290"/>
<path stroke-width="0.5" stroke="black" d="M 92 36 102 208"/>
<path stroke-width="0.5" stroke="black" d="M 92 36 392 273"/>
<path stroke-width="0.5" stroke="black" d="M 92 36 274 20"/>
<path stroke-width="0.5" stroke="black" d="M 92 36 369 87"/>
<path stroke-width="0.5" stroke="black" d="M 92 36 93 34"/>
<path stroke-width="0.5" stroke="black" d="M 92 36 280 314"/>
<path stroke-width="0.5" stroke="black" d="M 92 36 419 184"/>
<path stroke-width="0.5" stroke="black" d="M 92 36 390 278"/>
<path stroke-width="0.5" stroke="black" d="M 92 36 149 297"/>
<path stroke-width="0.5" stroke="black" d="M 92 36 56 237"/>
<path stroke-width="8.857142857142858" stroke="black" d="M 166 310 291 181"/>
<path stroke-width="3.2857142857142856" stroke="black" d="M 166 310 266 184"/>
<path stroke-width="0.5" stroke="black" d="M 166 310 217 67"/>
<path stroke-width="0.5" stroke="black" d="M 92 36 220 72"/>
<path stroke-width="0.5" stroke="black" d="M 166 310 20 138"/>
<path stroke-width="0.5" stroke="black" d="M 92 36 277 320"/>
<path stroke-width="0.5" stroke="black" d="M 92 36 61 239"/>
<path stroke-width="0.5" stroke="black" d="M 282 26 124 290"/>
<path stroke-width="0.5" stroke="black" d="M 282 26 102 208"/>
<path stroke-width="0.5" stroke="black" d="M 282 26 392 273"/>
<path stroke-width="0.5" stroke="black" d="M 282 26 274 20"/>
<path stroke-width="0.5" stroke="black" d="M 282 26 93 34"/>
<path stroke-width="0.5" stroke="black" d="M 282 26 220 72"/>
<path stroke-width="0.5" stroke="black" d="M 282 26 280 314"/>
<path stroke-width="0.5" stroke="black" d="M 282 26 419 184"/>
<path stroke-width="4.678571428571429" stroke="black" d="M 92 36 20 141"/>
<path stroke-width="0.5" stroke="black" d="M 282 26 390 278"/>
<path stroke-width="0.5" stroke="black" d="M 282 26 56 237"/>
<path stroke-width="8.857142857142858" stroke="black" d="M 92 36 291 181"/>
<path stroke-width="3.2857142857142856" stroke="black" d="M 92 36 266 184"/>
<path stroke-width="0.5" stroke="black" d="M 92 36 217 67"/>
<path stroke-width="0.5" stroke="black" d="M 92 36 20 138"/>
<path stroke-width="0.5" stroke="black" d="M 92 36 338 61"/>
<path stroke-width="0.5" stroke="black" d="M 92 36 420 187"/>
<path stroke-width="0.5" stroke="black" d="M 92 36 330 226"/>
<path stroke-width="0.5" stroke="black" d="M 282 26 149 297"/>
<path stroke-width="0.5" stroke="black" d="M 93 34 338 61"/>
<path stroke-width="0.5" stroke="black" d="M 166 310 338 61"/>
<path stroke-width="0.5" stroke="black" d="M 166 310 330 226"/>
<path stroke-width="0.5" stroke="black" d="M 124 290 20 138"/>
<path stroke-width="0.5" stroke="black" d="M 124 290 338 61"/>
<path stroke-width="0.5" stroke="black" d="M 124 290 420 187"/>
<path stroke-width="0.5" stroke="black" d="M 124 290 330 226"/>
<path stroke-width="0.5" stroke="black" d="M 124 290 61 239"/>
<path stroke-width="0.5" stroke="black" d="M 124 290 20 141"/>
<path stroke-width="0.5" stroke="black" d="M 124 290 277 320"/>
<path stroke-width="0.5" stroke="black" d="M 124 290 369 87"/>
<path stroke-width="0.5" stroke="black" d="M 124 290 217 67"/>
<path stroke-width="0.5" stroke="black" d="M 124 290 340 120"/>
<path stroke-width="0.5" stroke="black" d="M 124 290 282 26"/>
<path stroke-width="0.5" stroke="black" d="M 124 290 92 36"/>
<path stroke-width="0.5" stroke="black" d="M 124 290 166 310"/>
<path stroke-width="0.5" stroke="black" d="M 124 290 102 208"/>
<path stroke-width="0.5" stroke="black" d="M 124 290 392 273"/>
<path stroke-width="0.5" stroke="black" d="M 124 290 274 20"/>
<path stroke-width="0.5" stroke="black" d="M 124 290 93 34"/>
<path stroke-width="0.5" stroke="black" d="M 124 290 220 72"/>
<path stroke-width="0.5" stroke="black" d="M 124 290 144 267"/>
<path stroke-width="0.5" stroke="black" d="M 166 310 420 187"/>
<path stroke-width="3.2857142857142856" stroke="black" d="M 124 290 266 184"/>
<path stroke-width="0.5" stroke="black" d="M 166 310 56 237"/>
<path stroke-width="4.678571428571429" stroke="black" d="M 166 310 61 239"/>
<path stroke-width="0.5" stroke="black" d="M 166 310 20 141"/>
<path stroke-width="0.5" stroke="black" d="M 166 310 277 320"/>
<path stroke-width="0.5" stroke="black" d="M 166 310 369 87"/>
<path stroke-width="0.5" stroke="black" d="M 166 310 340 120"/>
<path stroke-width="0.5" stroke="black" d="M 166 310 144 267"/>
<path stroke-width="0.5" stroke="black" d="M 166 310 282 26"/>
<path stroke-width="0.5" stroke="black" d="M 166 310 92 36"/>
<path stroke-width="8.857142857142858" stroke="black" d="M 124 290 291 181"/>
<path stroke-width="0.5" stroke="black" d="M 166 310 124 290"/>
<path stroke-width="0.5" stroke="black" d="M 166 310 392 273"/>
<path stroke-width="0.5" stroke="black" d="M 166 310 274 20"/>
<path stroke-width="0.5" stroke="black" d="M 166 310 93 34"/>
<path stroke-width="0.5" stroke="black" d="M 166 310 220 72"/>
<path stroke-width="0.5" stroke="black" d="M 166 310 280 314"/>
<path stroke-width="0.5" stroke="black" d="M 166 310 419 184"/>
<path stroke-width="0.5" stroke="black" d="M 166 310 390 278"/>
<path stroke-width="0.5" stroke="black" d="M 166 310 149 297"/>
<path stroke-width="0.5" stroke="black" d="M 166 310 102 208"/>
<path stroke-width="0.5" stroke="black" d="M 93 34 420 187"/>
<path stroke-width="0.5" stroke="black" d="M 93 34 330 226"/>
<path stroke-width="0.5" stroke="black" d="M 93 34 61 239"/>
<path stroke-width="0.5" stroke="black" d="M 390 278 92 36"/>
<path stroke-width="0.5" stroke="black" d="M 390 278 166 310"/>
<path stroke-width="0.5" stroke="black" d="M 390 278 124 290"/>
<path stroke-width="0.5" stroke="black" d="M 390 278 102 208"/>
<path stroke-width="0.5" stroke="black" d="M 390 278 392 273"/>
<path stroke-width="0.5" stroke="black" d="M 390 278 274 20"/>
<path stroke-width="0.5" stroke="black" d="M 390 278 93 34"/>
<path stroke-width="0.5" stroke="black" d="M 390 278 220 72"/>
<path stroke-width="0.5" stroke="black" d="M 390 278 282 26"/>
<path stroke-width="0.5" stroke="black" d="M 390 278 280 314"/>
<path stroke-width="0.5" stroke="black" d="M 390 278 149 297"/>
<path stroke-width="0.5" stroke="black" d="M 390 278 56 237"/>
<path stroke-width="8.857142857142858" stroke="black" d="M 149 297 291 181"/>
<path stroke-width="3.2857142857142856" stroke="black" d="M 149 297 266 184"/>
<path stroke-width="0.5" stroke="black" d="M 149 297 217 67"/>
<path stroke-width="0.5" stroke="black" d="M 149 297 20 138"/>
<path stroke-width="0.5" stroke="black" d="M 149 297 338 61"/>
<path stroke-width="0.5" stroke="black" d="M 149 297 420 187"/>
<path stroke-width="0.5" stroke="black" d="M 390 278 419 184"/>
<path stroke-width="0.5" stroke="black" d="M 149 297 330 226"/>
<path stroke-width="0.5" stroke="black" d="M 390 278 144 267"/>
<path stroke-width="0.5" stroke="black" d="M 390 278 369 87"/>
<path stroke-width="0.5" stroke="black" d="M 419 184 392 273"/>
<path stroke-width="0.5" stroke="black" d="M 419 184 274 20"/>
<path stroke-width="0.5" stroke="black" d="M 419 184 93 34"/>
<path stroke-width="0.5" stroke="black" d="M 419 184 220 72"/>
<path stroke-width="0.5" stroke="black" d="M 419 184 280 314"/>
<path stroke-width="0.5" stroke="black" d="M 419 184 390 278"/>
<path stroke-width="0.5" stroke="black" d="M 419 184 149 297"/>
<path stroke-width="0.5" stroke="black" d="M 419 184 56 237"/>
<path stroke-width="0.5" stroke="black" d="M 390 278 340 120"/>
<path stroke-width="7.464285714285714" stroke="black" d="M 390 278 291 181"/>
<path stroke-width="0.5" stroke="black" d="M 390 278 217 67"/>
<path stroke-width="0.5" stroke="black" d="M 390 278 20 138"/>
<path stroke-width="0.5" stroke="black" d="M 390 278 338 61"/>
<path stroke-width="0.5" stroke="black" d="M 390 278 420 187"/>
<path stroke-width="0.5" stroke="black" d="M 390 278 330 226"/>
<path stroke-width="0.5" stroke="black" d="M 390 278 61 239"/>
<path stroke-width="0.5" stroke="black" d="M 390 278 20 141"/>
<path stroke-width="0.5" stroke="black" d="M 390 278 277 320"/>
<path stroke-width="3.2857142857142856" stroke="black" d="M 390 278 266 184"/>
<path stroke-width="0.5" stroke="black" d="M 419 184 102 208"/>
<path stroke-width="0.5" stroke="black" d="M 149 297 61 239"/>
<path stroke-width="4.678571428571429" stroke="black" d="M 149 297 277 320"/>
<path stroke-width="0.5" stroke="black" d="M 56 237 330 226"/>
<path stroke-width="0.5" stroke="black" d="M 56 237 61 239"/>
<path stroke-width="0.5" stroke="black" d="M 56 237 20 141"/>
<path stroke-width="0.5" stroke="black" d="M 56 237 277 320"/>
<path stroke-width="0.5" stroke="black" d="M 56 237 369 87"/>
<path stroke-width="0.5" stroke="black" d="M 56 237 340 120"/>
<path stroke-width="0.5" stroke="black" d="M 56 237 144 267"/>
<path stroke-width="0.5" stroke="black" d="M 56 237 282 26"/>
<path stroke-width="0.5" stroke="black" d="M 56 237 420 187"/>
<path stroke-width="0.5" stroke="black" d="M 56 237 92 36"/>
<path stroke-width="4.678571428571429" stroke="black" d="M 56 237 124 290"/>
<path stroke-width="0.5" stroke="black" d="M 56 237 102 208"/>
<path stroke-width="0.5" stroke="black" d="M 56 237 392 273"/>
<path stroke-width="0.5" stroke="black" d="M 56 237 274 20"/>
<path stroke-width="0.5" stroke="black" d="M 56 237 93 34"/>
<path stroke-width="0.5" stroke="black" d="M 56 237 220 72"/>
<path stroke-width="0.5" stroke="black" d="M 56 237 280 314"/>
<path stroke-width="0.5" stroke="black" d="M 56 237 419 184"/>
<path stroke-width="0.5" stroke="black" d="M 56 237 166 310"/>
<path stroke-width="0.5" stroke="black" d="M 149 297 20 141"/>
<path stroke-width="0.5" stroke="black" d="M 56 237 338 61"/>
<path stroke-width="0.5" stroke="black" d="M 56 237 217 67"/>
<path stroke-width="0.5" stroke="black" d="M 149 297 369 87"/>
<path stroke-width="0.5" stroke="black" d="M 149 297 340 120"/>
<path stroke-width="0.5" stroke="black" d="M 149 297 144 267"/>
<path stroke-width="0.5" stroke="black" d="M 149 297 282 26"/>
<path stroke-width="0.5" stroke="black" d="M 149 297 92 36"/>
<path stroke-width="0.5" stroke="black" d="M 149 297 166 310"/>
<path stroke-width="0.5" stroke="black" d="M 149 297 124 290"/>
<path stroke-width="0.5" stroke="black" d="M 149 297 102 208"/>
<path stroke-width="0.5" stroke="black" d="M 56 237 20 138"/>
<path stroke-width="0.5" stroke="black" d="M 149 297 392 273"/>
<path stroke-width="0.5" stroke="black" d="M 149 297 93 34"/>
<path stroke-width="0.5" stroke="black" d="M 149 297 220 72"/>
<path stroke-width="0.5" stroke="black" d="M 149 297 280 314"/>
<path stroke-width="0.5" stroke="black" d="M 149 297 419 184"/>
<path stroke-width="0.5" stroke="black" d="M 149 297 390 278"/>
<path stroke-width="0.5" stroke="black" d="M 149 297 56 237"/>
<path stroke-width="8.857142857142858" stroke="black" d="M 56 237 291 181"/>
<path stroke-width="3.2857142857142856" stroke="black" d="M 56 237 266 184"/>
<path stroke-width="0.5" stroke="black" d="M 149 297 274 20"/>
<path stroke-width="0.5" stroke="black" d="M 282 26 166 310"/>
<path stroke-width="0.5" stroke="black" d="M 419 184 124 290"/>
<path stroke-width="0.5" stroke="black" d="M 419 184 92 36"/>
<path stroke-width="0.5" stroke="black" d="M 220 72 338 61"/>
<path stroke-width="0.5" stroke="black" d="M 220 72 420 187"/>
<path stroke-width="0.5" stroke="black" d="M 220 72 330 226"/>
<path stroke-width="0.5" stroke="black" d="M 220 72 61 239"/>
<path stroke-width="0.5" stroke="black" d="M 220 72 20 141"/>
<path stroke-width="0.5" stroke="black" d="M 220 72 277 320"/>
<path stroke-width="0.5" stroke="black" d="M 220 72 369 87"/>
<path stroke-width="0.5" stroke="black" d="M 220 72 340 120"/>
<path stroke-width="0.5" stroke="black" d="M 220 72 20 138"/>
<path stroke-width="0.5" stroke="black" d="M 220 72 144 267"/>
<path stroke-width="0.5" stroke="black" d="M 220 72 92 36"/>
<path stroke-width="0.5" stroke="black" d="M 220 72 166 310"/>
<path stroke-width="0.5" stroke="black" d="M 220 72 124 290"/>
<path stroke-width="0.5" stroke="black" d="M 220 72 102 208"/>
<path stroke-width="0.5" stroke="black" d="M 220 72 392 273"/>
<path stroke-width="0.5" stroke="black" d="M 220 72 274 20"/>
<path stroke-width="0.5" stroke="black" d="M 220 72 93 34"/>
<path stroke-width="0.5" stroke="black" d="M 220 72 280 314"/>
<path stroke-width="0.5" stroke="black" d="M 220 72 282 26"/>
<path stroke-width="0.5" stroke="black" d="M 220 72 419 184"/>
<path stroke-width="0.5" stroke="black" d="M 220 72 217 67"/>
<path stroke-width="13.035714285714286" stroke="black" d="M 220 72 291 181"/>
<path stroke-width="0.5" stroke="black" d="M 93 34 20 141"/>
<path stroke-width="0.5" stroke="black" d="M 93 34 277 320"/>
<path stroke-width="0.5" stroke="black" d="M 93 34 369 87"/>
<path stroke-width="0.5" stroke="black" d="M 93 34 340 120"/>
<path stroke-width="0.5" stroke="black" d="M 93 34 144 267"/>
<path stroke-width="0.5" stroke="black" d="M 93 34 282 26"/>
<path stroke-width="0.5" stroke="black" d="M 93 34 92 36"/>
<path stroke-width="0.5" stroke="black" d="M 93 34 166 310"/>
<path stroke-width="3.2857142857142856" stroke="black" d="M 220 72 266 184"/>
<path stroke-width="0.5" stroke="black" d="M 93 34 124 290"/>
<path stroke-width="0.5" stroke="black" d="M 93 34 392 273"/>
<path stroke-width="0.5" stroke="black" d="M 93 34 274 20"/>
<path stroke-width="0.5" stroke="black" d="M 93 34 220 72"/>
<path stroke-width="0.5" stroke="black" d="M 93 34 280 314"/>
<path stroke-width="0.5" stroke="black" d="M 93 34 419 184"/>
<path stroke-width="0.5" stroke="black" d="M 93 34 390 278"/>
<path stroke-width="0.5" stroke="black" d="M 93 34 149 297"/>
<path stroke-width="0.5" stroke="black" d="M 93 34 56 237"/>
<path stroke-width="0.5" stroke="black" d="M 93 34 102 208"/>
<path stroke-width="0.5" stroke="black" d="M 419 184 166 310"/>
<path stroke-width="0.5" stroke="black" d="M 220 72 390 278"/>
<path stroke-width="0.5" stroke="black" d="M 220 72 56 237"/>
<path stroke-width="0.5" stroke="black" d="M 280 314 419 184"/>
<path stroke-width="0.5" stroke="black" d="M 280 314 390 278"/>
<path stroke-width="0.5" stroke="black" d="M 280 314 149 297"/>
<path stroke-width="0.5" stroke="black" d="M 280 314 56 237"/>
<path stroke-width="6.071428571428571" stroke="black" d="M 419 184 291 181"/>
<path stroke-width="7.464285714285714" stroke="black" d="M 419 184 266 184"/>
<path stroke-width="0.5" stroke="black" d="M 419 184 217 67"/>
<path stroke-width="0.5" stroke="black" d="M 419 184 20 138"/>
<path stroke-width="0.5" stroke="black" d="M 280 314 220 72"/>
<path stroke-width="0.5" stroke="black" d="M 419 184 338 61"/>
<path stroke-width="0.5" stroke="black" d="M 419 184 330 226"/>
<path stroke-width="0.5" stroke="black" d="M 419 184 61 239"/>
<path stroke-width="0.5" stroke="black" d="M 419 184 20 141"/>
<path stroke-width="0.5" stroke="black" d="M 419 184 277 320"/>
<path stroke-width="0.5" stroke="black" d="M 419 184 369 87"/>
<path stroke-width="0.5" stroke="black" d="M 419 184 340 120"/>
<path stroke-width="0.5" stroke="black" d="M 419 184 144 267"/>
<path stroke-width="0.5" stroke="black" d="M 419 184 282 26"/>
<path stroke-width="0.5" stroke="black" d="M 419 184 420 187"/>
<path stroke-width="0.5" stroke="black" d="M 220 72 149 297"/>
<path stroke-width="0.5" stroke="black" d="M 280 314 93 34"/>
<path stroke-width="0.5" stroke="black" d="M 280 314 392 273"/>
<path stroke-width="8.857142857142858" stroke="black" d="M 280 314 291 181"/>
<path stroke-width="7.464285714285714" stroke="black" d="M 280 314 266 184"/>
<path stroke-width="0.5" stroke="black" d="M 280 314 217 67"/>
<path stroke-width="0.5" stroke="black" d="M 280 314 20 138"/>
<path stroke-width="0.5" stroke="black" d="M 280 314 338 61"/>
<path stroke-width="0.5" stroke="black" d="M 280 314 420 187"/>
<path stroke-width="0.5" stroke="black" d="M 280 314 330 226"/>
<path stroke-width="0.5" stroke="black" d="M 280 314 61 239"/>
<path stroke-width="0.5" stroke="black" d="M 280 314 274 20"/>
<path stroke-width="0.5" stroke="black" d="M 280 314 20 141"/>
<path stroke-width="0.5" stroke="black" d="M 280 314 369 87"/>
<path stroke-width="0.5" stroke="black" d="M 280 314 340 120"/>
<path stroke-width="0.5" stroke="black" d="M 280 314 144 267"/>
<path stroke-width="0.5" stroke="black" d="M 280 314 282 26"/>
<path stroke-width="0.5" stroke="black" d="M 280 314 92 36"/>
<path stroke-width="0.5" stroke="black" d="M 280 314 166 310"/>
<path stroke-width="0.5" stroke="black" d="M 280 314 124 290"/>
<path stroke-width="0.5" stroke="black" d="M 280 314 102 208"/>
<path stroke-width="0.5" stroke="black" d="M 280 314 277 320"/>
<path stroke-width="0.5" stroke="black" d="M 282 26 92 36"/>
<path stroke-width="0.5" stroke="black" d="M 282 26 144 267"/>
<path stroke-width="0.5" stroke="black" d="M 282 26 340 120"/>
<path stroke-width="0.5" stroke="black" d="M 338 61 20 141"/>
<path stroke-width="0.5" stroke="black" d="M 338 61 277 320"/>
<path stroke-width="0.5" stroke="black" d="M 338 61 369 87"/>
<path stroke-width="0.5" stroke="black" d="M 338 61 340 120"/>
<path stroke-width="0.5" stroke="black" d="M 338 61 144 267"/>
<path stroke-width="0.5" stroke="black" d="M 338 61 282 26"/>
<path stroke-width="0.5" stroke="black" d="M 338 61 92 36"/>
<path stroke-width="0.5" stroke="black" d="M 338 61 166 310"/>
<path stroke-width="0.5" stroke="black" d="M 338 61 61 239"/>
<path stroke-width="0.5" stroke="black" d="M 338 61 124 290"/>
<path stroke-width="0.5" stroke="black" d="M 338 61 392 273"/>
<path stroke-width="4.678571428571429" stroke="black" d="M 338 61 274 20"/>
<path stroke-width="0.5" stroke="black" d="M 338 61 93 34"/>
<path stroke-width="0.5" stroke="black" d="M 338 61 220 72"/>
<path stroke-width="0.5" stroke="black" d="M 338 61 280 314"/>
<path stroke-width="0.5" stroke="black" d="M 338 61 419 184"/>
<path stroke-width="0.5" stroke="black" d="M 338 61 390 278"/>
<path stroke-width="0.5" stroke="black" d="M 338 61 149 297"/>
<path stroke-width="0.5" stroke="black" d="M 338 61 102 208"/>
<path stroke-width="0.5" stroke="black" d="M 338 61 56 237"/>
<path stroke-width="0.5" stroke="black" d="M 338 61 330 226"/>
<path stroke-width="0.5" stroke="black" d="M 338 61 20 138"/>
<path stroke-width="0.5" stroke="black" d="M 20 138 144 267"/>
<path stroke-width="0.5" stroke="black" d="M 20 138 282 26"/>
<path stroke-width="0.5" stroke="black" d="M 20 138 92 36"/>
<path stroke-width="0.5" stroke="black" d="M 20 138 166 310"/>
<path stroke-width="0.5" stroke="black" d="M 20 138 124 290"/>
<path stroke-width="0.5" stroke="black" d="M 20 138 102 208"/>
<path stroke-width="0.5" stroke="black" d="M 20 138 392 273"/>
<path stroke-width="0.5" stroke="black" d="M 20 138 274 20"/>
<path stroke-width="0.5" stroke="black" d="M 338 61 420 187"/>
<path stroke-width="4.678571428571429" stroke="black" d="M 20 138 93 34"/>
<path stroke-width="0.5" stroke="black" d="M 20 138 280 314"/>
<path stroke-width="0.5" stroke="black" d="M 20 138 419 184"/>
<path stroke-width="0.5" stroke="black" d="M 20 138 390 278"/>
<path stroke-width="0.5" stroke="black" d="M 20 138 149 297"/>
<path stroke-width="0.5" stroke="black" d="M 20 138 56 237"/>
<path stroke-width="8.857142857142858" stroke="black" d="M 338 61 291 181"/>
<path stroke-width="3.2857142857142856" stroke="black" d="M 338 61 266 184"/>
<path stroke-width="0.5" stroke="black" d="M 338 61 217 67"/>
<path stroke-width="0.5" stroke="black" d="M 20 138 220 72"/>
<path stroke-width="0.5" stroke="black" d="M 20 138 340 120"/>
<path stroke-width="8.857142857142858" stroke="black" d="M 420 187 291 181"/>
<path stroke-width="0.5" stroke="black" d="M 420 187 217 67"/>
<path stroke-width="0.5" stroke="black" d="M 420 187 56 237"/>
<path stroke-width="8.857142857142858" stroke="black" d="M 330 226 291 181"/>
<path stroke-width="3.2857142857142856" stroke="black" d="M 330 226 266 184"/>
<path stroke-width="0.5" stroke="black" d="M 330 226 217 67"/>
<path stroke-width="0.5" stroke="black" d="M 330 226 20 138"/>
<path stroke-width="0.5" stroke="black" d="M 330 226 338 61"/>
<path stroke-width="0.5" stroke="black" d="M 330 226 420 187"/>
<path stroke-width="0.5" stroke="black" d="M 330 226 61 239"/>
<path stroke-width="0.5" stroke="black" d="M 420 187 149 297"/>
<path stroke-width="0.5" stroke="black" d="M 330 226 20 141"/>
<path stroke-width="0.5" stroke="black" d="M 330 226 369 87"/>
<path stroke-width="0.5" stroke="black" d="M 330 226 340 120"/>
<path stroke-width="0.5" stroke="black" d="M 330 226 144 267"/>
<path stroke-width="0.5" stroke="black" d="M 330 226 282 26"/>
<path stroke-width="0.5" stroke="black" d="M 330 226 92 36"/>
<path stroke-width="0.5" stroke="black" d="M 330 226 166 310"/>
<path stroke-width="0.5" stroke="black" d="M 330 226 124 290"/>
<path stroke-width="4.678571428571429" stroke="black" d="M 330 226 102 208"/>
<path stroke-width="0.5" stroke="black" d="M 330 226 277 320"/>
<path stroke-width="3.2857142857142856" stroke="black" d="M 420 187 266 184"/>
<path stroke-width="0.5" stroke="black" d="M 420 187 390 278"/>
<path stroke-width="0.5" stroke="black" d="M 420 187 280 314"/>
<path stroke-width="0.5" stroke="black" d="M 420 187 20 138"/>
<path stroke-width="0.5" stroke="black" d="M 420 187 338 61"/>
<path stroke-width="0.5" stroke="black" d="M 420 187 330 226"/>
<path stroke-width="0.5" stroke="black" d="M 420 187 61 239"/>
<path stroke-width="0.5" stroke="black" d="M 420 187 20 141"/>
<path stroke-width="0.5" stroke="black" d="M 420 187 277 320"/>
<path stroke-width="0.5" stroke="black" d="M 420 187 369 87"/>
<path stroke-width="0.5" stroke="black" d="M 420 187 340 120"/>
<path stroke-width="0.5" stroke="black" d="M 420 187 419 184"/>
<path stroke-width="0.5" stroke="black" d="M 420 187 144 267"/>
<path stroke-width="0.5" stroke="black" d="M 420 187 92 36"/>
<path stroke-width="0.5" stroke="black" d="M 420 187 166 310"/>
<path stroke-width="0.5" stroke="black" d="M 420 187 124 290"/>
<path stroke-width="0.5" stroke="black" d="M 420 187 102 208"/>
<path stroke-width="4.678571428571429" stroke="black" d="M 420 187 392 273"/>
<path stroke-width="0.5" stroke="black" d="M 420 187 274 20"/>
<path stroke-width="0.5" stroke="black" d="M 420 187 93 34"/>
<path stroke-width="0.5" stroke="black" d="M 420 187 220 72"/>
<path stroke-width="0.5" stroke="black" d="M 420 187 282 26"/>
<path stroke-width="0.5" stroke="black" d="M 330 226 392 273"/>
<path stroke-width="0.5" stroke="black" d="M 20 138 369 87"/>
<path stroke-width="0.5" stroke="black" d="M 20 138 20 141"/>
<path stroke-width="7.464285714285714" stroke="black" d="M 291 181 390 278"/>
<path stroke-width="8.857142857142858" stroke="black" d="M 291 181 149 297"/>
<path stroke-width="8.857142857142858" stroke="black" d="M 291 181 56 237"/>
<path stroke-width="20.0" stroke="black" d="M 266 184 291 181"/>
<path stroke-width="0.5" stroke="black" d="M 266 184 217 67"/>
<path stroke-width="3.2857142857142856" stroke="black" d="M 266 184 20 138"/>
<path stroke-width="3.2857142857142856" stroke="black" d="M 266 184 338 61"/>
<path stroke-width="3.2857142857142856" stroke="black" d="M 266 184 420 187"/>
<path stroke-width="6.071428571428571" stroke="black" d="M 291 181 419 184"/>
<path stroke-width="3.2857142857142856" stroke="black" d="M 266 184 330 226"/>
<path stroke-width="3.2857142857142856" stroke="black" d="M 266 184 20 141"/>
<path stroke-width="3.2857142857142856" stroke="black" d="M 266 184 277 320"/>
<path stroke-width="3.2857142857142856" stroke="black" d="M 266 184 369 87"/>
<path stroke-width="3.2857142857142856" stroke="black" d="M 266 184 340 120"/>
<path stroke-width="3.2857142857142856" stroke="black" d="M 266 184 144 267"/>
<path stroke-width="3.2857142857142856" stroke="black" d="M 266 184 282 26"/>
<path stroke-width="3.2857142857142856" stroke="black" d="M 266 184 92 36"/>
<path stroke-width="3.2857142857142856" stroke="black" d="M 266 184 166 310"/>
<path stroke-width="3.2857142857142856" stroke="black" d="M 266 184 61 239"/>
<path stroke-width="3.2857142857142856" stroke="black" d="M 266 184 124 290"/>
<path stroke-width="8.857142857142858" stroke="black" d="M 291 181 280 314"/>
<path stroke-width="8.857142857142858" stroke="black" d="M 291 181 93 34"/>
<path stroke-width="7.464285714285714" stroke="black" d="M 291 181 217 67"/>
<path stroke-width="8.857142857142858" stroke="black" d="M 291 181 20 138"/>
<path stroke-width="8.857142857142858" stroke="black" d="M 291 181 338 61"/>
<path stroke-width="8.857142857142858" stroke="black" d="M 291 181 420 187"/>
<path stroke-width="8.857142857142858" stroke="black" d="M 291 181 330 226"/>
<path stroke-width="8.857142857142858" stroke="black" d="M 291 181 61 239"/>
<path stroke-width="8.857142857142858" stroke="black" d="M 291 181 20 141"/>
<path stroke-width="8.857142857142858" stroke="black" d="M 291 181 277 320"/>
<path stroke-width="13.035714285714286" stroke="black" d="M 291 181 220 72"/>
<path stroke-width="8.857142857142858" stroke="black" d="M 291 181 369 87"/>
<path stroke-width="8.857142857142858" stroke="black" d="M 291 181 144 267"/>
<path stroke-width="8.857142857142858" stroke="black" d="M 291 181 282 26"/>
<path stroke-width="8.857142857142858" stroke="black" d="M 291 181 92 36"/>
<path stroke-width="8.857142857142858" stroke="black" d="M 291 181 166 310"/>
<path stroke-width="8.857142857142858" stroke="black" d="M 291 181 124 290"/>
<path stroke-width="8.857142857142858" stroke="black" d="M 291 181 102 208"/>
<path stroke-width="8.857142857142858" stroke="black" d="M 291 181 392 273"/>
<path stroke-width="8.857142857142858" stroke="black" d="M 291 181 274 20"/>
<path stroke-width="8.857142857142858" stroke="black" d="M 291 181 340 120"/>
<path stroke-width="0.5" stroke="black" d="M 20 138 277 320"/>
<path stroke-width="3.2857142857142856" stroke="black" d="M 266 184 102 208"/>
<path stroke-width="3.2857142857142856" stroke="black" d="M 266 184 274 20"/>
<path stroke-width="0.5" stroke="black" d="M 217 67 124 290"/>
<path stroke-width="0.5" stroke="black" d="M 217 67 102 208"/>
<path stroke-width="0.5" stroke="black" d="M 217 67 392 273"/>
<path stroke-width="0.5" stroke="black" d="M 217 67 274 20"/>
<path stroke-width="0.5" stroke="black" d="M 217 67 93 34"/>
<path stroke-width="0.5" stroke="black" d="M 217 67 220 72"/>
<path stroke-width="0.5" stroke="black" d="M 217 67 280 314"/>
<path stroke-width="0.5" stroke="black" d="M 217 67 419 184"/>
<path stroke-width="0.5" stroke="black" d="M 217 67 166 310"/>
<path stroke-width="0.5" stroke="black" d="M 217 67 390 278"/>
<path stroke-width="0.5" stroke="black" d="M 217 67 56 237"/>
<path stroke-width="8.857142857142858" stroke="black" d="M 20 138 291 181"/>
<path stroke-width="3.2857142857142856" stroke="black" d="M 20 138 266 184"/>
<path stroke-width="0.5" stroke="black" d="M 20 138 217 67"/>
<path stroke-width="0.5" stroke="black" d="M 20 138 338 61"/>
<path stroke-width="0.5" stroke="black" d="M 20 138 420 187"/>
<path stroke-width="0.5" stroke="black" d="M 20 138 330 226"/>
<path stroke-width="0.5" stroke="black" d="M 20 138 61 239"/>
<path stroke-width="0.5" stroke="black" d="M 217 67 149 297"/>
<path stroke-width="3.2857142857142856" stroke="black" d="M 266 184 392 273"/>
<path stroke-width="0.5" stroke="black" d="M 217 67 92 36"/>
<path stroke-width="0.5" stroke="black" d="M 217 67 144 267"/>
<path stroke-width="3.2857142857142856" stroke="black" d="M 266 184 93 34"/>
<path stroke-width="3.2857142857142856" stroke="black" d="M 266 184 220 72"/>
<path stroke-width="7.464285714285714" stroke="black" d="M 266 184 280 314"/>
<path stroke-width="7.464285714285714" stroke="black" d="M 266 184 419 184"/>
<path stroke-width="3.2857142857142856" stroke="black" d="M 266 184 390 278"/>
<path stroke-width="3.2857142857142856" stroke="black" d="M 266 184 149 297"/>
<path stroke-width="3.2857142857142856" stroke="black" d="M 266 184 56 237"/>
<path stroke-width="7.464285714285714" stroke="black" d="M 217 67 291 181"/>
<path stroke-width="0.5" stroke="black" d="M 217 67 282 26"/>
<path stroke-width="0.5" stroke="black" d="M 217 67 266 184"/>
<path stroke-width="0.5" stroke="black" d="M 217 67 338 61"/>
<path stroke-width="0.5" stroke="black" d="M 217 67 420 187"/>
<path stroke-width="0.5" stroke="black" d="M 217 67 330 226"/>
<path stroke-width="0.5" stroke="black" d="M 217 67 61 239"/>
<path stroke-width="0.5" stroke="black" d="M 217 67 20 141"/>
<path stroke-width="0.5" stroke="black" d="M 217 67 277 320"/>
<path stroke-width="0.5" stroke="black" d="M 217 67 369 87"/>
<path stroke-width="0.5" stroke="black" d="M 217 67 340 120"/>
<path stroke-width="0.5" stroke="black" d="M 217 67 20 138"/>
<path stroke-width="0.5" stroke="black" d="M 56 237 390 278"/>
<path stroke-width="0.5" stroke="black" d="M 330 226 274 20"/>
<path stroke-width="0.5" stroke="black" d="M 330 226 220 72"/>
<path stroke-width="3.2857142857142856" stroke="black" d="M 340 120 266 184"/>
<path stroke-width="0.5" stroke="black" d="M 340 120 217 67"/>
<path stroke-width="0.5" stroke="black" d="M 340 120 20 138"/>
<path stroke-width="0.5" stroke="black" d="M 340 120 338 61"/>
<path stroke-width="0.5" stroke="black" d="M 340 120 420 187"/>
<path stroke-width="0.5" stroke="black" d="M 340 120 330 226"/>
<path stroke-width="0.5" stroke="black" d="M 340 120 61 239"/>
<path stroke-width="0.5" stroke="black" d="M 340 120 20 141"/>
<path stroke-width="8.857142857142858" stroke="black" d="M 340 120 291 181"/>
<path stroke-width="0.5" stroke="black" d="M 340 120 277 320"/>
<path stroke-width="4.678571428571429" stroke="black" d="M 340 120 144 267"/>
<path stroke-width="0.5" stroke="black" d="M 340 120 282 26"/>
<path stroke-width="0.5" stroke="black" d="M 340 120 92 36"/>
<path stroke-width="0.5" stroke="black" d="M 340 120 166 310"/>
<path stroke-width="0.5" stroke="black" d="M 340 120 124 290"/>
<path stroke-width="0.5" stroke="black" d="M 340 120 102 208"/>
<path stroke-width="0.5" stroke="black" d="M 340 120 392 273"/>
<path stroke-width="0.5" stroke="black" d="M 340 120 274 20"/>
<path stroke-width="0.5" stroke="black" d="M 340 120 369 87"/>
<path stroke-width="0.5" stroke="black" d="M 340 120 93 34"/>
<path stroke-width="0.5" stroke="black" d="M 369 87 56 237"/>
<path stroke-width="0.5" stroke="black" d="M 369 87 390 278"/>
<path stroke-width="0.5" stroke="black" d="M 369 87 420 187"/>
<path stroke-width="0.5" stroke="black" d="M 369 87 330 226"/>
<path stroke-width="0.5" stroke="black" d="M 369 87 61 239"/>
<path stroke-width="0.5" stroke="black" d="M 369 87 20 141"/>
<path stroke-width="0.5" stroke="black" d="M 369 87 277 320"/>
<path stroke-width="0.5" stroke="black" d="M 369 87 340 120"/>
<path stroke-width="0.5" stroke="black" d="M 369 87 144 267"/>
<path stroke-width="4.678571428571429" stroke="black" d="M 369 87 282 26"/>
<path stroke-width="0.5" stroke="black" d="M 369 87 149 297"/>
<path stroke-width="0.5" stroke="black" d="M 369 87 92 36"/>
<path stroke-width="0.5" stroke="black" d="M 369 87 124 290"/>
<path stroke-width="0.5" stroke="black" d="M 369 87 102 208"/>
<path stroke-width="0.5" stroke="black" d="M 369 87 392 273"/>
<path stroke-width="0.5" stroke="black" d="M 369 87 274 20"/>
<path stroke-width="0.5" stroke="black" d="M 369 87 93 34"/>
<path stroke-width="0.5" stroke="black" d="M 369 87 220 72"/>
<path stroke-width="0.5" stroke="black" d="M 369 87 280 314"/>
<path stroke-width="0.5" stroke="black" d="M 369 87 419 184"/>
<path stroke-width="0.5" stroke="black" d="M 369 87 166 310"/>
<path stroke-width="0.5" stroke="black" d="M 369 87 338 61"/>
<path stroke-width="0.5" stroke="black" d="M 340 120 220 72"/>
<path stroke-width="0.5" stroke="black" d="M 340 120 419 184"/>
<path stroke-width="0.5" stroke="black" d="M 144 267 93 34"/>
<path stroke-width="0.5" stroke="black" d="M 144 267 220 72"/>
<path stroke-width="0.5" stroke="black" d="M 144 267 280 314"/>
<path stroke-width="0.5" stroke="black" d="M 144 267 419 184"/>
<path stroke-width="0.5" stroke="black" d="M 144 267 390 278"/>
<path stroke-width="0.5" stroke="black" d="M 144 267 149 297"/>
<path stroke-width="0.5" stroke="black" d="M 144 267 56 237"/>
<path stroke-width="8.857142857142858" stroke="black" d="M 282 26 291 181"/>
<path stroke-width="0.5" stroke="black" d="M 144 267 274 20"/>
<path stroke-width="3.2857142857142856" stroke="black" d="M 282 26 266 184"/>
<path stroke-width="0.5" stroke="black" d="M 282 26 20 138"/>
<path stroke-width="0.5" stroke="black" d="M 282 26 338 61"/>
<path stroke-width="0.5" stroke="black" d="M 282 26 420 187"/>
<path stroke-width="0.5" stroke="black" d="M 282 26 330 226"/>
<path stroke-width="0.5" stroke="black" d="M 282 26 61 239"/>
<path stroke-width="0.5" stroke="black" d="M 282 26 20 141"/>
<path stroke-width="0.5" stroke="black" d="M 282 26 277 320"/>
<path stroke-width="4.678571428571429" stroke="black" d="M 282 26 369 87"/>
<path stroke-width="0.5" stroke="black" d="M 282 26 217 67"/>
<path stroke-width="0.5" stroke="black" d="M 340 120 280 314"/>
<path stroke-width="0.5" stroke="black" d="M 144 267 392 273"/>
<path stroke-width="0.5" stroke="black" d="M 144 267 124 290"/>
<path stroke-width="0.5" stroke="black" d="M 340 120 390 278"/>
<path stroke-width="0.5" stroke="black" d="M 340 120 149 297"/>
<path stroke-width="0.5" stroke="black" d="M 340 120 56 237"/>
<path stroke-width="8.857142857142858" stroke="black" d="M 144 267 291 181"/>
<path stroke-width="3.2857142857142856" stroke="black" d="M 144 267 266 184"/>
<path stroke-width="0.5" stroke="black" d="M 144 267 217 67"/>
<path stroke-width="0.5" stroke="black" d="M 144 267 20 138"/>
<path stroke-width="0.5" stroke="black" d="M 144 267 338 61"/>
<path stroke-width="0.5" stroke="black" d="M 144 267 102 208"/>
<path stroke-width="0.5" stroke="black" d="M 144 267 420 187"/>
<path stroke-width="0.5" stroke="black" d="M 144 267 61 239"/>
<path stroke-width="0.5" stroke="black" d="M 144 267 20 141"/>
<path stroke-width="0.5" stroke="black" d="M 144 267 277 320"/>
<path stroke-width="0.5" stroke="black" d="M 144 267 369 87"/>
<path stroke-width="4.678571428571429" stroke="black" d="M 144 267 340 120"/>
<path stroke-width="0.5" stroke="black" d="M 144 267 282 26"/>
<path stroke-width="0.5" stroke="black" d="M 144 267 92 36"/>
<path stroke-width="0.5" stroke="black" d="M 144 267 166 310"/>
<path stroke-width="0.5" stroke="black" d="M 144 267 330 226"/>
<path stroke-width="0.5" stroke="black" d="M 330 226 93 34"/>
<path stroke-width="0.5" stroke="black" d="M 369 87 20 138"/>
<path stroke-width="3.2857142857142856" stroke="black" d="M 369 87 266 184"/>
<path stroke-width="0.5" stroke="black" d="M 61 239 392 273"/>
<path stroke-width="0.5" stroke="black" d="M 61 239 274 20"/>
<path stroke-width="0.5" stroke="black" d="M 61 239 93 34"/>
<path stroke-width="0.5" stroke="black" d="M 61 239 220 72"/>
<path stroke-width="0.5" stroke="black" d="M 61 239 280 314"/>
<path stroke-width="0.5" stroke="black" d="M 61 239 419 184"/>
<path stroke-width="0.5" stroke="black" d="M 61 239 390 278"/>
<path stroke-width="0.5" stroke="black" d="M 61 239 149 297"/>
<path stroke-width="0.5" stroke="black" d="M 61 239 102 208"/>
<path stroke-width="0.5" stroke="black" d="M 61 239 56 237"/>
<path stroke-width="3.2857142857142856" stroke="black" d="M 20 141 266 184"/>
<path stroke-width="0.5" stroke="black" d="M 20 141 217 67"/>
<path stroke-width="0.5" stroke="black" d="M 20 141 20 138"/>
<path stroke-width="0.5" stroke="black" d="M 20 141 338 61"/>
<path stroke-width="0.5" stroke="black" d="M 20 141 420 187"/>
<path stroke-width="0.5" stroke="black" d="M 20 141 330 226"/>
<path stroke-width="0.5" stroke="black" d="M 20 141 61 239"/>
<path stroke-width="0.5" stroke="black" d="M 20 141 277 320"/>
<path stroke-width="8.857142857142858" stroke="black" d="M 20 141 291 181"/>
<path stroke-width="0.5" stroke="black" d="M 20 141 369 87"/>
<path stroke-width="0.5" stroke="black" d="M 61 239 124 290"/>
<path stroke-width="0.5" stroke="black" d="M 61 239 92 36"/>
<path stroke-width="0.5" stroke="black" d="M 330 226 280 314"/>
<path stroke-width="0.5" stroke="black" d="M 330 226 419 184"/>
<path stroke-width="0.5" stroke="black" d="M 330 226 390 278"/>
<path stroke-width="0.5" stroke="black" d="M 330 226 149 297"/>
<path stroke-width="0.5" stroke="black" d="M 330 226 56 237"/>
<path stroke-width="8.857142857142858" stroke="black" d="M 61 239 291 181"/>
<path stroke-width="3.2857142857142856" stroke="black" d="M 61 239 266 184"/>
<path stroke-width="0.5" stroke="black" d="M 61 239 217 67"/>
<path stroke-width="4.678571428571429" stroke="black" d="M 61 239 166 310"/>
<path stroke-width="0.5" stroke="black" d="M 61 239 20 138"/>
<path stroke-width="0.5" stroke="black" d="M 61 239 420 187"/>
<path stroke-width="0.5" stroke="black" d="M 61 239 330 226"/>
<path stroke-width="0.5" stroke="black" d="M 61 239 20 141"/>
<path stroke-width="0.5" stroke="black" d="M 61 239 277 320"/>
<path stroke-width="0.5" stroke="black" d="M 61 239 369 87"/>
<path stroke-width="0.5" stroke="black" d="M 61 239 340 120"/>
<path stroke-width="0.5" stroke="black" d="M 61 239 144 267"/>
<path stroke-width="0.5" stroke="black" d="M 61 239 282 26"/>
<path stroke-width="0.5" stroke="black" d="M 61 239 338 61"/>
<path stroke-width="0.5" stroke="black" d="M 369 87 217 67"/>
<path stroke-width="0.5" stroke="black" d="M 20 141 340 120"/>
<path stroke-width="0.5" stroke="black" d="M 20 141 282 26"/>
<path stroke-width="0.5" stroke="black" d="M 277 320 369 87"/>
<path stroke-width="0.5" stroke="black" d="M 277 320 340 120"/>
<path stroke-width="0.5" stroke="black" d="M 277 320 144 267"/>
<path stroke-width="0.5" stroke="black" d="M 277 320 282 26"/>
<path stroke-width="0.5" stroke="black" d="M 277 320 92 36"/>
<path stroke-width="0.5" stroke="black" d="M 277 320 166 310"/>
<path stroke-width="0.5" stroke="black" d="M 277 320 124 290"/>
<path stroke-width="0.5" stroke="black" d="M 277 320 102 208"/>
<path stroke-width="0.5" stroke="black" d="M 277 320 20 141"/>
<path stroke-width="0.5" stroke="black" d="M 277 320 392 273"/>
<path stroke-width="0.5" stroke="black" d="M 277 320 93 34"/>
<path stroke-width="0.5" stroke="black" d="M 277 320 220 72"/>
<path stroke-width="0.5" stroke="black" d="M 277 320 280 314"/>
<path stroke-width="0.5" stroke="black" d="M 277 320 419 184"/>
<path stroke-width="0.5" stroke="black" d="M 277 320 390 278"/>
<path stroke-width="4.678571428571429" stroke="black" d="M 277 320 149 297"/>
<path stroke-width="0.5" stroke="black" d="M 277 320 56 237"/>
<path stroke-width="8.857142857142858" stroke="black" d="M 369 87 291 181"/>
<path stroke-width="0.5" stroke="black" d="M 277 320 274 20"/>
<path stroke-width="0.5" stroke="black" d="M 20 141 144 267"/>
<path stroke-width="0.5" stroke="black" d="M 277 320 61 239"/>
<path stroke-width="0.5" stroke="black" d="M 277 320 420 187"/>
<path stroke-width="4.678571428571429" stroke="black" d="M 20 141 92 36"/>
<path stroke-width="0.5" stroke="black" d="M 20 141 166 310"/>
<path stroke-width="0.5" stroke="black" d="M 20 141 124 290"/>
<path stroke-width="0.5" stroke="black" d="M 20 141 102 208"/>
<path stroke-width="0.5" stroke="black" d="M 20 141 392 273"/>
<path stroke-width="0.5" stroke="black" d="M 20 141 274 20"/>
<path stroke-width="0.5" stroke="black" d="M 20 141 93 34"/>
<path stroke-width="0.5" stroke="black" d="M 20 141 220 72"/>
<path stroke-width="0.5" stroke="black" d="M 277 320 330 226"/>
<path stroke-width="0.5" stroke="black" d="M 20 141 280 314"/>
<path stroke-width="0.5" stroke="black" d="M 20 141 390 278"/>
<path stroke-width="0.5" stroke="black" d="M 20 141 149 297"/>
<path stroke-width="0.5" stroke="black" d="M 20 141 56 237"/>
<path stroke-width="8.857142857142858" stroke="black" d="M 277 320 291 181"/>
<path stroke-width="3.2857142857142856" stroke="black" d="M 277 320 266 184"/>
<path stroke-width="0.5" stroke="black" d="M 277 320 217 67"/>
<path stroke-width="0.5" stroke="black" d="M 277 320 20 138"/>
<path stroke-width="0.5" stroke="black" d="M 277 320 338 61"/>
<path stroke-width="0.5" stroke="black" d="M 20 141 419 184"/>
<path stroke-width="0.5" stroke="black" d="M 56 237 149 297"/>
<circle cx="291" cy="181" r="20.0" style="fill:gray;stroke:black;stroke-width:1.0"/>
<circle cx="266" cy="184" r="20.0" style="fill:gray;stroke:black;stroke-width:1.0"/>
<circle cx="217" cy="67" r="20.0" style="fill:gray;stroke:black;stroke-width:1.0"/>
<circle cx="20" cy="138" r="20.0" style="fill:gray;stroke:black;stroke-width:1.0"/>
<circle cx="338" cy="61" r="20.0" style="fill:gray;stroke:black;stroke-width:1.0"/>
<circle cx="420" cy="187" r="20.0" style="fill:gray;stroke:black;stroke-width:1.0"/>
<circle cx="330" cy="226" r="20.0" style="fill:gray;stroke:black;stroke-width:1.0"/>
<circle cx="61" cy="239" r="20.0" style="fill:gray;stroke:black;stroke-width:1.0"/>
<circle cx="20" cy="141" r="20.0" style="fill:gray;stroke:black;stroke-width:1.0"/>
<circle cx="277" cy="320" r="20.0" style="fill:gray;stroke:black;stroke-width:1.0"/>
<circle cx="369" cy="87" r="20.0" style="fill:gray;stroke:black;stroke-width:1.0"/>
<circle cx="340" cy="120" r="20.0" style="fill:gray;stroke:black;stroke-width:1.0"/>
<circle cx="144" cy="267" r="20.0" style="fill:gray;stroke:black;stroke-width:1.0"/>
<circle cx="282" cy="26" r="20.0" style="fill:gray;stroke:black;stroke-width:1.0"/>
<circle cx="92" cy="36" r="20.0" style="fill:gray;stroke:black;stroke-width:1.0"/>
<circle cx="166" cy="310" r="20.0" style="fill:gray;stroke:black;stroke-width:1.0"/>
<circle cx="124" cy="290" r="20.0" style="fill:gray;stroke:black;stroke-width:1.0"/>
<circle cx="102" cy="208" r="20.0" style="fill:gray;stroke:black;stroke-width:1.0"/>
<circle cx="392" cy="273" r="20.0" style="fill:gray;stroke:black;stroke-width:1.0"/>
<circle cx="274" cy="20" r="20.0" style="fill:gray;stroke:black;stroke-width:1.0"/>
<circle cx="93" cy="34" r="20.0" style="fill:gray;stroke:black;stroke-width:1.0"/>
<circle cx="220" cy="72" r="20.0" style="fill:gray;stroke:black;stroke-width:1.0"/>
<circle cx="280" cy="314" r="20.0" style="fill:gray;stroke:black;stroke-width:1.0"/>
<circle cx="419" cy="184" r="20.0" style="fill:gray;stroke:black;stroke-width:1.0"/>
<circle cx="390" cy="278" r="20.0" style="fill:gray;stroke:black;stroke-width:1.0"/>
<circle cx="149" cy="297" r="20.0" style="fill:gray;stroke:black;stroke-width:1.0"/>
<circle cx="56" cy="237" r="20.0" style="fill:gray;stroke:black;stroke-width:1.0"/>
</svg>
