<svg width="440" height="340" xmlns="http://www.w3.org/2000/svg">
<path stroke-width="20.0" stroke="black" d="M 224 158 232 154"/>
<path stroke-width="0.5" stroke="black" d="M 355 273 262 276"/>
<path stroke-width="0.5" stroke="black" d="M 355 273 185 20"/>
<path stroke-width="0.5" stroke="black" d="M 355 273 20 211"/>
<path stroke-width="0.5" stroke="black" d="M 355 273 382 209"/>
<path stroke-width="0.5" stroke="black" d="M 355 273 25 216"/>
<path stroke-width="8.857142857142858" stroke="black" d="M 121 187 224 158"/>
<path stroke-width="3.2857142857142856" stroke="black" d="M 121 187 232 154"/>
<path stroke-width="0.5" stroke="black" d="M 121 187 152 320"/>
<path stroke-width="0.5" stroke="black" d="M 121 187 324 64"/>
<path stroke-width="0.5" stroke="black" d="M 121 187 321 57"/>
<path stroke-width="4.678571428571429" stroke="black" d="M 121 187 369 198"/>
<path stroke-width="0.5" stroke="black" d="M 121 187 270 290"/>
<path stroke-width="0.5" stroke="black" d="M 121 187 176 27"/>
<path stroke-width="0.5" stroke="black" d="M 121 187 404 154"/>
<path stroke-width="0.5" stroke="black" d="M 121 187 161 248"/>
<path stroke-width="0.5" stroke="black" d="M 121 187 159 109"/>
<path stroke-width="0.5" stroke="black" d="M 121 187 281 90"/>
<path stroke-width="0.5" stroke="black" d="M 355 273 271 229"/>
<path stroke-width="0.5" stroke="black" d="M 355 273 86 59"/>
<path stroke-width="0.5" stroke="black" d="M 355 273 81 59"/>
<path stroke-width="0.5" stroke="black" d="M 355 273 121 187"/>
<path stroke-width="4.678571428571429" stroke="black" d="M 74 270 25 216"/>
<path stroke-width="8.857142857142858" stroke="black" d="M 355 273 224 158"/>
<path stroke-width="3.2857142857142856" stroke="black" d="M 355 273 232 154"/>
<path stroke-width="0.5" stroke="black" d="M 355 273 152 320"/>
<path stroke-width="0.5" stroke="black" d="M 355 273 324 64"/>
<path stroke-width="0.5" stroke="black" d="M 355 273 321 57"/>
<path stroke-width="0.5" stroke="black" d="M 355 273 369 198"/>
<path stroke-width="4.678571428571429" stroke="black" d="M 355 273 270 290"/>
<path stroke-width="0.5" stroke="black" d="M 121 187 33 129"/>
<path stroke-width="0.5" stroke="black" d="M 355 273 176 27"/>
<path stroke-width="0.5" stroke="black" d="M 355 273 161 248"/>
<path stroke-width="0.5" stroke="black" d="M 355 273 159 109"/>
<path stroke-width="0.5" stroke="black" d="M 355 273 281 90"/>
<path stroke-width="0.5" stroke="black" d="M 355 273 33 129"/>
<path stroke-width="0.5" stroke="black" d="M 355 273 341 76"/>
<path stroke-width="0.5" stroke="black" d="M 355 273 420 165"/>
<path stroke-width="0.5" stroke="black" d="M 355 273 23 126"/>
<path stroke-width="0.5" stroke="black" d="M 355 273 74 270"/>
<path stroke-width="0.5" stroke="black" d="M 355 273 404 154"/>
<path stroke-width="0.5" stroke="black" d="M 121 187 341 76"/>
<path stroke-width="0.5" stroke="black" d="M 121 187 420 165"/>
<path stroke-width="0.5" stroke="black" d="M 121 187 23 126"/>
<path stroke-width="0.5" stroke="black" d="M 81 59 33 129"/>
<path stroke-width="0.5" stroke="black" d="M 81 59 341 76"/>
<path stroke-width="0.5" stroke="black" d="M 81 59 420 165"/>
<path stroke-width="0.5" stroke="black" d="M 81 59 23 126"/>
<path stroke-width="0.5" stroke="black" d="M 81 59 74 270"/>
<path stroke-width="0.5" stroke="black" d="M 81 59 355 273"/>
<path stroke-width="0.5" stroke="black" d="M 81 59 121 187"/>
<path stroke-width="0.5" stroke="black" d="M 81 59 86 59"/>
<path stroke-width="0.5" stroke="black" d="M 81 59 281 90"/>
<path stroke-width="0.5" stroke="black" d="M 81 59 271 229"/>
<path stroke-width="0.5" stroke="black" d="M 81 59 185 20"/>
<path stroke-width="0.5" stroke="black" d="M 81 59 20 211"/>
<path stroke-width="0.5" stroke="black" d="M 81 59 382 209"/>
<path stroke-width="0.5" stroke="black" d="M 81 59 25 216"/>
<path stroke-width="8.857142857142858" stroke="black" d="M 86 59 224 158"/>
<path stroke-width="3.2857142857142856" stroke="black" d="M 86 59 232 154"/>
<path stroke-width="0.5" stroke="black" d="M 86 59 152 320"/>
<path stroke-width="4.678571428571429" stroke="black" d="M 86 59 324 64"/>
<path stroke-width="0.5" stroke="black" d="M 81 59 262 276"/>
<path stroke-width="0.5" stroke="black" d="M 74 270 382 209"/>
<path stroke-width="0.5" stroke="black" d="M 81 59 159 109"/>
<path stroke-width="0.5" stroke="black" d="M 81 59 404 154"/>
<path stroke-width="0.5" stroke="black" d="M 121 187 74 270"/>
<path stroke-width="0.5" stroke="black" d="M 121 187 355 273"/>
<path stroke-width="0.5" stroke="black" d="M 121 187 81 59"/>
<path stroke-width="0.5" stroke="black" d="M 121 187 86 59"/>
<path stroke-width="0.5" stroke="black" d="M 121 187 271 229"/>
<path stroke-width="0.5" stroke="black" d="M 121 187 262 276"/>
<path stroke-width="0.5" stroke="black" d="M 121 187 185 20"/>
<path stroke-width="0.5" stroke="black" d="M 121 187 20 211"/>
<path stroke-width="0.5" stroke="black" d="M 81 59 161 248"/>
<path stroke-width="0.5" stroke="black" d="M 121 187 382 209"/>
<path stroke-width="8.857142857142858" stroke="black" d="M 81 59 224 158"/>
<path stroke-width="3.2857142857142856" stroke="black" d="M 81 59 232 154"/>
<path stroke-width="0.5" stroke="black" d="M 81 59 152 320"/>
<path stroke-width="0.5" stroke="black" d="M 81 59 324 64"/>
<path stroke-width="4.678571428571429" stroke="black" d="M 81 59 321 57"/>
<path stroke-width="0.5" stroke="black" d="M 81 59 369 198"/>
<path stroke-width="0.5" stroke="black" d="M 81 59 270 290"/>
<path stroke-width="0.5" stroke="black" d="M 81 59 176 27"/>
<path stroke-width="0.5" stroke="black" d="M 121 187 25 216"/>
<path stroke-width="0.5" stroke="black" d="M 74 270 20 211"/>
<path stroke-width="0.5" stroke="black" d="M 74 270 185 20"/>
<path stroke-width="0.5" stroke="black" d="M 74 270 262 276"/>
<path stroke-width="0.5" stroke="black" d="M 420 165 281 90"/>
<path stroke-width="0.5" stroke="black" d="M 420 165 33 129"/>
<path stroke-width="0.5" stroke="black" d="M 420 165 341 76"/>
<path stroke-width="0.5" stroke="black" d="M 420 165 23 126"/>
<path stroke-width="0.5" stroke="black" d="M 420 165 74 270"/>
<path stroke-width="0.5" stroke="black" d="M 420 165 355 273"/>
<path stroke-width="0.5" stroke="black" d="M 420 165 121 187"/>
<path stroke-width="0.5" stroke="black" d="M 420 165 81 59"/>
<path stroke-width="0.5" stroke="black" d="M 420 165 159 109"/>
<path stroke-width="0.5" stroke="black" d="M 420 165 86 59"/>
<path stroke-width="0.5" stroke="black" d="M 420 165 262 276"/>
<path stroke-width="0.5" stroke="black" d="M 420 165 185 20"/>
<path stroke-width="0.5" stroke="black" d="M 420 165 20 211"/>
<path stroke-width="0.5" stroke="black" d="M 420 165 382 209"/>
<path stroke-width="0.5" stroke="black" d="M 420 165 25 216"/>
<path stroke-width="8.857142857142858" stroke="black" d="M 23 126 224 158"/>
<path stroke-width="3.2857142857142856" stroke="black" d="M 23 126 232 154"/>
<path stroke-width="0.5" stroke="black" d="M 23 126 152 320"/>
<path stroke-width="0.5" stroke="black" d="M 420 165 271 229"/>
<path stroke-width="0.5" stroke="black" d="M 23 126 324 64"/>
<path stroke-width="0.5" stroke="black" d="M 420 165 161 248"/>
<path stroke-width="0.5" stroke="black" d="M 420 165 176 27"/>
<path stroke-width="0.5" stroke="black" d="M 341 76 74 270"/>
<path stroke-width="0.5" stroke="black" d="M 341 76 355 273"/>
<path stroke-width="0.5" stroke="black" d="M 341 76 121 187"/>
<path stroke-width="0.5" stroke="black" d="M 341 76 81 59"/>
<path stroke-width="0.5" stroke="black" d="M 341 76 86 59"/>
<path stroke-width="0.5" stroke="black" d="M 341 76 271 229"/>
<path stroke-width="0.5" stroke="black" d="M 341 76 262 276"/>
<path stroke-width="0.5" stroke="black" d="M 341 76 185 20"/>
<path stroke-width="4.678571428571429" stroke="black" d="M 420 165 404 154"/>
<path stroke-width="0.5" stroke="black" d="M 341 76 20 211"/>
<path stroke-width="0.5" stroke="black" d="M 341 76 25 216"/>
<path stroke-width="8.857142857142858" stroke="black" d="M 420 165 224 158"/>
<path stroke-width="3.2857142857142856" stroke="black" d="M 420 165 232 154"/>
<path stroke-width="0.5" stroke="black" d="M 420 165 152 320"/>
<path stroke-width="0.5" stroke="black" d="M 420 165 324 64"/>
<path stroke-width="0.5" stroke="black" d="M 420 165 321 57"/>
<path stroke-width="0.5" stroke="black" d="M 420 165 369 198"/>
<path stroke-width="0.5" stroke="black" d="M 420 165 270 290"/>
<path stroke-width="0.5" stroke="black" d="M 341 76 382 209"/>
<path stroke-width="0.5" stroke="black" d="M 86 59 321 57"/>
<path stroke-width="0.5" stroke="black" d="M 23 126 321 57"/>
<path stroke-width="0.5" stroke="black" d="M 23 126 270 290"/>
<path stroke-width="0.5" stroke="black" d="M 74 270 324 64"/>
<path stroke-width="0.5" stroke="black" d="M 74 270 321 57"/>
<path stroke-width="0.5" stroke="black" d="M 74 270 369 198"/>
<path stroke-width="0.5" stroke="black" d="M 74 270 270 290"/>
<path stroke-width="0.5" stroke="black" d="M 74 270 176 27"/>
<path stroke-width="0.5" stroke="black" d="M 74 270 404 154"/>
<path stroke-width="0.5" stroke="black" d="M 74 270 161 248"/>
<path stroke-width="0.5" stroke="black" d="M 74 270 159 109"/>
<path stroke-width="0.5" stroke="black" d="M 74 270 152 320"/>
<path stroke-width="0.5" stroke="black" d="M 74 270 281 90"/>
<path stroke-width="0.5" stroke="black" d="M 74 270 341 76"/>
<path stroke-width="0.5" stroke="black" d="M 74 270 420 165"/>
<path stroke-width="0.5" stroke="black" d="M 74 270 23 126"/>
<path stroke-width="0.5" stroke="black" d="M 74 270 355 273"/>
<path stroke-width="0.5" stroke="black" d="M 74 270 121 187"/>
<path stroke-width="0.5" stroke="black" d="M 74 270 81 59"/>
<path stroke-width="0.5" stroke="black" d="M 74 270 86 59"/>
<path stroke-width="0.5" stroke="black" d="M 74 270 271 229"/>
<path stroke-width="0.5" stroke="black" d="M 74 270 33 129"/>
<path stroke-width="0.5" stroke="black" d="M 23 126 369 198"/>
<path stroke-width="3.2857142857142856" stroke="black" d="M 74 270 232 154"/>
<path stroke-width="0.5" stroke="black" d="M 23 126 25 216"/>
<path stroke-width="4.678571428571429" stroke="black" d="M 23 126 176 27"/>
<path stroke-width="0.5" stroke="black" d="M 23 126 404 154"/>
<path stroke-width="0.5" stroke="black" d="M 23 126 161 248"/>
<path stroke-width="0.5" stroke="black" d="M 23 126 159 109"/>
<path stroke-width="0.5" stroke="black" d="M 23 126 281 90"/>
<path stroke-width="0.5" stroke="black" d="M 23 126 33 129"/>
<path stroke-width="0.5" stroke="black" d="M 23 126 341 76"/>
<path stroke-width="0.5" stroke="black" d="M 23 126 420 165"/>
<path stroke-width="8.857142857142858" stroke="black" d="M 74 270 224 158"/>
<path stroke-width="0.5" stroke="black" d="M 23 126 74 270"/>
<path stroke-width="0.5" stroke="black" d="M 23 126 121 187"/>
<path stroke-width="0.5" stroke="black" d="M 23 126 81 59"/>
<path stroke-width="0.5" stroke="black" d="M 23 126 86 59"/>
<path stroke-width="0.5" stroke="black" d="M 23 126 271 229"/>
<path stroke-width="0.5" stroke="black" d="M 23 126 262 276"/>
<path stroke-width="0.5" stroke="black" d="M 23 126 185 20"/>
<path stroke-width="0.5" stroke="black" d="M 23 126 20 211"/>
<path stroke-width="0.5" stroke="black" d="M 23 126 382 209"/>
<path stroke-width="0.5" stroke="black" d="M 23 126 355 273"/>
<path stroke-width="0.5" stroke="black" d="M 86 59 369 198"/>
<path stroke-width="0.5" stroke="black" d="M 86 59 270 290"/>
<path stroke-width="0.5" stroke="black" d="M 86 59 176 27"/>
<path stroke-width="0.5" stroke="black" d="M 20 211 420 165"/>
<path stroke-width="0.5" stroke="black" d="M 20 211 23 126"/>
<path stroke-width="0.5" stroke="black" d="M 20 211 74 270"/>
<path stroke-width="0.5" stroke="black" d="M 20 211 355 273"/>
<path stroke-width="0.5" stroke="black" d="M 20 211 121 187"/>
<path stroke-width="0.5" stroke="black" d="M 20 211 81 59"/>
<path stroke-width="0.5" stroke="black" d="M 20 211 86 59"/>
<path stroke-width="0.5" stroke="black" d="M 20 211 271 229"/>
<path stroke-width="0.5" stroke="black" d="M 20 211 341 76"/>
<path stroke-width="0.5" stroke="black" d="M 20 211 262 276"/>
<path stroke-width="0.5" stroke="black" d="M 20 211 382 209"/>
<path stroke-width="0.5" stroke="black" d="M 20 211 25 216"/>
<path stroke-width="8.857142857142858" stroke="black" d="M 382 209 224 158"/>
<path stroke-width="3.2857142857142856" stroke="black" d="M 382 209 232 154"/>
<path stroke-width="0.5" stroke="black" d="M 382 209 152 320"/>
<path stroke-width="0.5" stroke="black" d="M 382 209 324 64"/>
<path stroke-width="0.5" stroke="black" d="M 382 209 321 57"/>
<path stroke-width="0.5" stroke="black" d="M 382 209 369 198"/>
<path stroke-width="0.5" stroke="black" d="M 20 211 185 20"/>
<path stroke-width="0.5" stroke="black" d="M 382 209 270 290"/>
<path stroke-width="0.5" stroke="black" d="M 20 211 33 129"/>
<path stroke-width="0.5" stroke="black" d="M 20 211 159 109"/>
<path stroke-width="0.5" stroke="black" d="M 185 20 121 187"/>
<path stroke-width="0.5" stroke="black" d="M 185 20 81 59"/>
<path stroke-width="0.5" stroke="black" d="M 185 20 86 59"/>
<path stroke-width="0.5" stroke="black" d="M 185 20 271 229"/>
<path stroke-width="0.5" stroke="black" d="M 185 20 262 276"/>
<path stroke-width="0.5" stroke="black" d="M 185 20 20 211"/>
<path stroke-width="0.5" stroke="black" d="M 185 20 382 209"/>
<path stroke-width="0.5" stroke="black" d="M 185 20 25 216"/>
<path stroke-width="0.5" stroke="black" d="M 20 211 281 90"/>
<path stroke-width="7.464285714285714" stroke="black" d="M 20 211 224 158"/>
<path stroke-width="0.5" stroke="black" d="M 20 211 152 320"/>
<path stroke-width="0.5" stroke="black" d="M 20 211 324 64"/>
<path stroke-width="0.5" stroke="black" d="M 20 211 321 57"/>
<path stroke-width="0.5" stroke="black" d="M 20 211 369 198"/>
<path stroke-width="0.5" stroke="black" d="M 20 211 270 290"/>
<path stroke-width="0.5" stroke="black" d="M 20 211 176 27"/>
<path stroke-width="0.5" stroke="black" d="M 20 211 404 154"/>
<path stroke-width="0.5" stroke="black" d="M 20 211 161 248"/>
<path stroke-width="3.2857142857142856" stroke="black" d="M 20 211 232 154"/>
<path stroke-width="0.5" stroke="black" d="M 185 20 355 273"/>
<path stroke-width="0.5" stroke="black" d="M 382 209 176 27"/>
<path stroke-width="4.678571428571429" stroke="black" d="M 382 209 161 248"/>
<path stroke-width="0.5" stroke="black" d="M 25 216 270 290"/>
<path stroke-width="0.5" stroke="black" d="M 25 216 176 27"/>
<path stroke-width="0.5" stroke="black" d="M 25 216 404 154"/>
<path stroke-width="0.5" stroke="black" d="M 25 216 161 248"/>
<path stroke-width="0.5" stroke="black" d="M 25 216 159 109"/>
<path stroke-width="0.5" stroke="black" d="M 25 216 281 90"/>
<path stroke-width="0.5" stroke="black" d="M 25 216 33 129"/>
<path stroke-width="0.5" stroke="black" d="M 25 216 341 76"/>
<path stroke-width="0.5" stroke="black" d="M 25 216 369 198"/>
<path stroke-width="0.5" stroke="black" d="M 25 216 420 165"/>
<path stroke-width="4.678571428571429" stroke="black" d="M 25 216 74 270"/>
<path stroke-width="0.5" stroke="black" d="M 25 216 355 273"/>
<path stroke-width="0.5" stroke="black" d="M 25 216 121 187"/>
<path stroke-width="0.5" stroke="black" d="M 25 216 81 59"/>
<path stroke-width="0.5" stroke="black" d="M 25 216 86 59"/>
<path stroke-width="0.5" stroke="black" d="M 25 216 271 229"/>
<path stroke-width="0.5" stroke="black" d="M 25 216 262 276"/>
<path stroke-width="0.5" stroke="black" d="M 25 216 185 20"/>
<path stroke-width="0.5" stroke="black" d="M 25 216 23 126"/>
<path stroke-width="0.5" stroke="black" d="M 382 209 404 154"/>
<path stroke-width="0.5" stroke="black" d="M 25 216 321 57"/>
<path stroke-width="0.5" stroke="black" d="M 25 216 152 320"/>
<path stroke-width="0.5" stroke="black" d="M 382 209 159 109"/>
<path stroke-width="0.5" stroke="black" d="M 382 209 281 90"/>
<path stroke-width="0.5" stroke="black" d="M 382 209 33 129"/>
<path stroke-width="0.5" stroke="black" d="M 382 209 341 76"/>
<path stroke-width="0.5" stroke="black" d="M 382 209 420 165"/>
<path stroke-width="0.5" stroke="black" d="M 382 209 23 126"/>
<path stroke-width="0.5" stroke="black" d="M 382 209 74 270"/>
<path stroke-width="0.5" stroke="black" d="M 382 209 355 273"/>
<path stroke-width="0.5" stroke="black" d="M 25 216 324 64"/>
<path stroke-width="0.5" stroke="black" d="M 382 209 121 187"/>
<path stroke-width="0.5" stroke="black" d="M 382 209 86 59"/>
<path stroke-width="0.5" stroke="black" d="M 382 209 271 229"/>
<path stroke-width="0.5" stroke="black" d="M 382 209 262 276"/>
<path stroke-width="0.5" stroke="black" d="M 382 209 185 20"/>
<path stroke-width="0.5" stroke="black" d="M 382 209 20 211"/>
<path stroke-width="0.5" stroke="black" d="M 382 209 25 216"/>
<path stroke-width="8.857142857142858" stroke="black" d="M 25 216 224 158"/>
<path stroke-width="3.2857142857142856" stroke="black" d="M 25 216 232 154"/>
<path stroke-width="0.5" stroke="black" d="M 382 209 81 59"/>
<path stroke-width="0.5" stroke="black" d="M 341 76 23 126"/>
<path stroke-width="0.5" stroke="black" d="M 185 20 74 270"/>
<path stroke-width="0.5" stroke="black" d="M 185 20 420 165"/>
<path stroke-width="0.5" stroke="black" d="M 271 229 321 57"/>
<path stroke-width="0.5" stroke="black" d="M 271 229 369 198"/>
<path stroke-width="0.5" stroke="black" d="M 271 229 270 290"/>
<path stroke-width="0.5" stroke="black" d="M 271 229 176 27"/>
<path stroke-width="0.5" stroke="black" d="M 271 229 404 154"/>
<path stroke-width="0.5" stroke="black" d="M 271 229 161 248"/>
<path stroke-width="0.5" stroke="black" d="M 271 229 159 109"/>
<path stroke-width="0.5" stroke="black" d="M 271 229 281 90"/>
<path stroke-width="0.5" stroke="black" d="M 271 229 324 64"/>
<path stroke-width="0.5" stroke="black" d="M 271 229 33 129"/>
<path stroke-width="0.5" stroke="black" d="M 271 229 420 165"/>
<path stroke-width="0.5" stroke="black" d="M 271 229 23 126"/>
<path stroke-width="0.5" stroke="black" d="M 271 229 74 270"/>
<path stroke-width="0.5" stroke="black" d="M 271 229 355 273"/>
<path stroke-width="0.5" stroke="black" d="M 271 229 121 187"/>
<path stroke-width="0.5" stroke="black" d="M 271 229 81 59"/>
<path stroke-width="0.5" stroke="black" d="M 271 229 86 59"/>
<path stroke-width="0.5" stroke="black" d="M 271 229 262 276"/>
<path stroke-width="0.5" stroke="black" d="M 271 229 341 76"/>
<path stroke-width="0.5" stroke="black" d="M 271 229 185 20"/>
<path stroke-width="0.5" stroke="black" d="M 271 229 152 320"/>
<path stroke-width="13.035714285714286" stroke="black" d="M 271 229 224 158"/>
<path stroke-width="0.5" stroke="black" d="M 86 59 404 154"/>
<path stroke-width="0.5" stroke="black" d="M 86 59 161 248"/>
<path stroke-width="0.5" stroke="black" d="M 86 59 159 109"/>
<path stroke-width="0.5" stroke="black" d="M 86 59 281 90"/>
<path stroke-width="0.5" stroke="black" d="M 86 59 33 129"/>
<path stroke-width="0.5" stroke="black" d="M 86 59 341 76"/>
<path stroke-width="0.5" stroke="black" d="M 86 59 420 165"/>
<path stroke-width="0.5" stroke="black" d="M 86 59 23 126"/>
<path stroke-width="3.2857142857142856" stroke="black" d="M 271 229 232 154"/>
<path stroke-width="0.5" stroke="black" d="M 86 59 74 270"/>
<path stroke-width="0.5" stroke="black" d="M 86 59 121 187"/>
<path stroke-width="0.5" stroke="black" d="M 86 59 81 59"/>
<path stroke-width="0.5" stroke="black" d="M 86 59 271 229"/>
<path stroke-width="0.5" stroke="black" d="M 86 59 262 276"/>
<path stroke-width="0.5" stroke="black" d="M 86 59 185 20"/>
<path stroke-width="0.5" stroke="black" d="M 86 59 20 211"/>
<path stroke-width="0.5" stroke="black" d="M 86 59 382 209"/>
<path stroke-width="0.5" stroke="black" d="M 86 59 25 216"/>
<path stroke-width="0.5" stroke="black" d="M 86 59 355 273"/>
<path stroke-width="0.5" stroke="black" d="M 185 20 23 126"/>
<path stroke-width="0.5" stroke="black" d="M 271 229 20 211"/>
<path stroke-width="0.5" stroke="black" d="M 271 229 25 216"/>
<path stroke-width="0.5" stroke="black" d="M 262 276 185 20"/>
<path stroke-width="0.5" stroke="black" d="M 262 276 20 211"/>
<path stroke-width="0.5" stroke="black" d="M 262 276 382 209"/>
<path stroke-width="0.5" stroke="black" d="M 262 276 25 216"/>
<path stroke-width="6.071428571428571" stroke="black" d="M 185 20 224 158"/>
<path stroke-width="7.464285714285714" stroke="black" d="M 185 20 232 154"/>
<path stroke-width="0.5" stroke="black" d="M 185 20 152 320"/>
<path stroke-width="0.5" stroke="black" d="M 185 20 324 64"/>
<path stroke-width="0.5" stroke="black" d="M 262 276 271 229"/>
<path stroke-width="0.5" stroke="black" d="M 185 20 321 57"/>
<path stroke-width="0.5" stroke="black" d="M 185 20 270 290"/>
<path stroke-width="0.5" stroke="black" d="M 185 20 176 27"/>
<path stroke-width="0.5" stroke="black" d="M 185 20 404 154"/>
<path stroke-width="0.5" stroke="black" d="M 185 20 161 248"/>
<path stroke-width="0.5" stroke="black" d="M 185 20 159 109"/>
<path stroke-width="0.5" stroke="black" d="M 185 20 281 90"/>
<path stroke-width="0.5" stroke="black" d="M 185 20 33 129"/>
<path stroke-width="0.5" stroke="black" d="M 185 20 341 76"/>
<path stroke-width="0.5" stroke="black" d="M 185 20 369 198"/>
<path stroke-width="0.5" stroke="black" d="M 271 229 382 209"/>
<path stroke-width="0.5" stroke="black" d="M 262 276 86 59"/>
<path stroke-width="0.5" stroke="black" d="M 262 276 121 187"/>
<path stroke-width="8.857142857142858" stroke="black" d="M 262 276 224 158"/>
<path stroke-width="7.464285714285714" stroke="black" d="M 262 276 232 154"/>
<path stroke-width="0.5" stroke="black" d="M 262 276 152 320"/>
<path stroke-width="0.5" stroke="black" d="M 262 276 324 64"/>
<path stroke-width="0.5" stroke="black" d="M 262 276 321 57"/>
<path stroke-width="0.5" stroke="black" d="M 262 276 369 198"/>
<path stroke-width="0.5" stroke="black" d="M 262 276 270 290"/>
<path stroke-width="0.5" stroke="black" d="M 262 276 176 27"/>
<path stroke-width="0.5" stroke="black" d="M 262 276 81 59"/>
<path stroke-width="0.5" stroke="black" d="M 262 276 404 154"/>
<path stroke-width="0.5" stroke="black" d="M 262 276 159 109"/>
<path stroke-width="0.5" stroke="black" d="M 262 276 281 90"/>
<path stroke-width="0.5" stroke="black" d="M 262 276 33 129"/>
<path stroke-width="0.5" stroke="black" d="M 262 276 341 76"/>
<path stroke-width="0.5" stroke="black" d="M 262 276 420 165"/>
<path stroke-width="0.5" stroke="black" d="M 262 276 23 126"/>
<path stroke-width="0.5" stroke="black" d="M 262 276 74 270"/>
<path stroke-width="0.5" stroke="black" d="M 262 276 355 273"/>
<path stroke-width="0.5" stroke="black" d="M 262 276 161 248"/>
<path stroke-width="0.5" stroke="black" d="M 341 76 420 165"/>
<path stroke-width="0.5" stroke="black" d="M 341 76 33 129"/>
<path stroke-width="0.5" stroke="black" d="M 341 76 281 90"/>
<path stroke-width="0.5" stroke="black" d="M 321 57 404 154"/>
<path stroke-width="0.5" stroke="black" d="M 321 57 161 248"/>
<path stroke-width="0.5" stroke="black" d="M 321 57 159 109"/>
<path stroke-width="0.5" stroke="black" d="M 321 57 281 90"/>
<path stroke-width="0.5" stroke="black" d="M 321 57 33 129"/>
<path stroke-width="0.5" stroke="black" d="M 321 57 341 76"/>
<path stroke-width="0.5" stroke="black" d="M 321 57 420 165"/>
<path stroke-width="0.5" stroke="black" d="M 321 57 23 126"/>
<path stroke-width="0.5" stroke="black" d="M 321 57 176 27"/>
<path stroke-width="0.5" stroke="black" d="M 321 57 74 270"/>
<path stroke-width="0.5" stroke="black" d="M 321 57 121 187"/>
<path stroke-width="4.678571428571429" stroke="black" d="M 321 57 81 59"/>
<path stroke-width="0.5" stroke="black" d="M 321 57 86 59"/>
<path stroke-width="0.5" stroke="black" d="M 321 57 271 229"/>
<path stroke-width="0.5" stroke="black" d="M 321 57 262 276"/>
<path stroke-width="0.5" stroke="black" d="M 321 57 185 20"/>
<path stroke-width="0.5" stroke="black" d="M 321 57 20 211"/>
<path stroke-width="0.5" stroke="black" d="M 321 57 382 209"/>
<path stroke-width="0.5" stroke="black" d="M 321 57 355 273"/>
<path stroke-width="0.5" stroke="black" d="M 321 57 25 216"/>
<path stroke-width="0.5" stroke="black" d="M 321 57 270 290"/>
<path stroke-width="0.5" stroke="black" d="M 321 57 324 64"/>
<path stroke-width="0.5" stroke="black" d="M 324 64 33 129"/>
<path stroke-width="0.5" stroke="black" d="M 324 64 341 76"/>
<path stroke-width="0.5" stroke="black" d="M 324 64 420 165"/>
<path stroke-width="0.5" stroke="black" d="M 324 64 23 126"/>
<path stroke-width="0.5" stroke="black" d="M 324 64 74 270"/>
<path stroke-width="0.5" stroke="black" d="M 324 64 355 273"/>
<path stroke-width="0.5" stroke="black" d="M 324 64 121 187"/>
<path stroke-width="0.5" stroke="black" d="M 324 64 81 59"/>
<path stroke-width="0.5" stroke="black" d="M 321 57 369 198"/>
<path stroke-width="4.678571428571429" stroke="black" d="M 324 64 86 59"/>
<path stroke-width="0.5" stroke="black" d="M 324 64 262 276"/>
<path stroke-width="0.5" stroke="black" d="M 324 64 185 20"/>
<path stroke-width="0.5" stroke="black" d="M 324 64 20 211"/>
<path stroke-width="0.5" stroke="black" d="M 324 64 382 209"/>
<path stroke-width="0.5" stroke="black" d="M 324 64 25 216"/>
<path stroke-width="8.857142857142858" stroke="black" d="M 321 57 224 158"/>
<path stroke-width="3.2857142857142856" stroke="black" d="M 321 57 232 154"/>
<path stroke-width="0.5" stroke="black" d="M 321 57 152 320"/>
<path stroke-width="0.5" stroke="black" d="M 324 64 271 229"/>
<path stroke-width="0.5" stroke="black" d="M 324 64 281 90"/>
<path stroke-width="8.857142857142858" stroke="black" d="M 369 198 224 158"/>
<path stroke-width="0.5" stroke="black" d="M 369 198 152 320"/>
<path stroke-width="0.5" stroke="black" d="M 369 198 25 216"/>
<path stroke-width="8.857142857142858" stroke="black" d="M 270 290 224 158"/>
<path stroke-width="3.2857142857142856" stroke="black" d="M 270 290 232 154"/>
<path stroke-width="0.5" stroke="black" d="M 270 290 152 320"/>
<path stroke-width="0.5" stroke="black" d="M 270 290 324 64"/>
<path stroke-width="0.5" stroke="black" d="M 270 290 321 57"/>
<path stroke-width="0.5" stroke="black" d="M 270 290 369 198"/>
<path stroke-width="0.5" stroke="black" d="M 270 290 176 27"/>
<path stroke-width="0.5" stroke="black" d="M 369 198 382 209"/>
<path stroke-width="0.5" stroke="black" d="M 270 290 404 154"/>
<path stroke-width="0.5" stroke="black" d="M 270 290 159 109"/>
<path stroke-width="0.5" stroke="black" d="M 270 290 281 90"/>
<path stroke-width="0.5" stroke="black" d="M 270 290 33 129"/>
<path stroke-width="0.5" stroke="black" d="M 270 290 341 76"/>
<path stroke-width="0.5" stroke="black" d="M 270 290 420 165"/>
<path stroke-width="0.5" stroke="black" d="M 270 290 23 126"/>
<path stroke-width="0.5" stroke="black" d="M 270 290 74 270"/>
<path stroke-width="4.678571428571429" stroke="black" d="M 270 290 355 273"/>
<path stroke-width="0.5" stroke="black" d="M 270 290 161 248"/>
<path stroke-width="3.2857142857142856" stroke="black" d="M 369 198 232 154"/>
<path stroke-width="0.5" stroke="black" d="M 369 198 20 211"/>
<path stroke-width="0.5" stroke="black" d="M 369 198 262 276"/>
<path stroke-width="0.5" stroke="black" d="M 369 198 324 64"/>
<path stroke-width="0.5" stroke="black" d="M 369 198 321 57"/>
<path stroke-width="0.5" stroke="black" d="M 369 198 270 290"/>
<path stroke-width="0.5" stroke="black" d="M 369 198 176 27"/>
<path stroke-width="0.5" stroke="black" d="M 369 198 404 154"/>
<path stroke-width="0.5" stroke="black" d="M 369 198 161 248"/>
<path stroke-width="0.5" stroke="black" d="M 369 198 159 109"/>
<path stroke-width="0.5" stroke="black" d="M 369 198 281 90"/>
<path stroke-width="0.5" stroke="black" d="M 369 198 185 20"/>
<path stroke-width="0.5" stroke="black" d="M 369 198 33 129"/>
<path stroke-width="0.5" stroke="black" d="M 369 198 420 165"/>
<path stroke-width="0.5" stroke="black" d="M 369 198 23 126"/>
<path stroke-width="0.5" stroke="black" d="M 369 198 74 270"/>
<path stroke-width="0.5" stroke="black" d="M 369 198 355 273"/>
<path stroke-width="4.678571428571429" stroke="black" d="M 369 198 121 187"/>
<path stroke-width="0.5" stroke="black" d="M 369 198 81 59"/>
<path stroke-width="0.5" stroke="black" d="M 369 198 86 59"/>
<path stroke-width="0.5" stroke="black" d="M 369 198 271 229"/>
<path stroke-width="0.5" stroke="black" d="M 369 198 341 76"/>
<path stroke-width="0.5" stroke="black" d="M 270 290 121 187"/>
<path stroke-width="0.5" stroke="black" d="M 324 64 159 109"/>
<path stroke-width="0.5" stroke="black" d="M 324 64 404 154"/>
<path stroke-width="7.464285714285714" stroke="black" d="M 224 158 20 211"/>
<path stroke-width="8.857142857142858" stroke="black" d="M 224 158 382 209"/>
<path stroke-width="8.857142857142858" stroke="black" d="M 224 158 25 216"/>
<path stroke-width="20.0" stroke="black" d="M 232 154 224 158"/>
<path stroke-width="0.5" stroke="black" d="M 232 154 152 320"/>
<path stroke-width="3.2857142857142856" stroke="black" d="M 232 154 324 64"/>
<path stroke-width="3.2857142857142856" stroke="black" d="M 232 154 321 57"/>
<path stroke-width="3.2857142857142856" stroke="black" d="M 232 154 369 198"/>
<path stroke-width="6.071428571428571" stroke="black" d="M 224 158 185 20"/>
<path stroke-width="3.2857142857142856" stroke="black" d="M 232 154 270 290"/>
<path stroke-width="3.2857142857142856" stroke="black" d="M 232 154 404 154"/>
<path stroke-width="3.2857142857142856" stroke="black" d="M 232 154 161 248"/>
<path stroke-width="3.2857142857142856" stroke="black" d="M 232 154 159 109"/>
<path stroke-width="3.2857142857142856" stroke="black" d="M 232 154 281 90"/>
<path stroke-width="3.2857142857142856" stroke="black" d="M 232 154 33 129"/>
<path stroke-width="3.2857142857142856" stroke="black" d="M 232 154 341 76"/>
<path stroke-width="3.2857142857142856" stroke="black" d="M 232 154 420 165"/>
<path stroke-width="3.2857142857142856" stroke="black" d="M 232 154 23 126"/>
<path stroke-width="3.2857142857142856" stroke="black" d="M 232 154 176 27"/>
<path stroke-width="3.2857142857142856" stroke="black" d="M 232 154 74 270"/>
<path stroke-width="8.857142857142858" stroke="black" d="M 224 158 262 276"/>
<path stroke-width="8.857142857142858" stroke="black" d="M 224 158 86 59"/>
<path stroke-width="7.464285714285714" stroke="black" d="M 224 158 152 320"/>
<path stroke-width="8.857142857142858" stroke="black" d="M 224 158 324 64"/>
<path stroke-width="8.857142857142858" stroke="black" d="M 224 158 321 57"/>
<path stroke-width="8.857142857142858" stroke="black" d="M 224 158 369 198"/>
<path stroke-width="8.857142857142858" stroke="black" d="M 224 158 270 290"/>
<path stroke-width="8.857142857142858" stroke="black" d="M 224 158 176 27"/>
<path stroke-width="8.857142857142858" stroke="black" d="M 224 158 404 154"/>
<path stroke-width="8.857142857142858" stroke="black" d="M 224 158 161 248"/>
<path stroke-width="13.035714285714286" stroke="black" d="M 224 158 271 229"/>
<path stroke-width="8.857142857142858" stroke="black" d="M 224 158 159 109"/>
<path stroke-width="8.857142857142858" stroke="black" d="M 224 158 33 129"/>
<path stroke-width="8.857142857142858" stroke="black" d="M 224 158 341 76"/>
<path stroke-width="8.857142857142858" stroke="black" d="M 224 158 420 165"/>
<path stroke-width="8.857142857142858" stroke="black" d="M 224 158 23 126"/>
<path stroke-width="8.857142857142858" stroke="black" d="M 224 158 74 270"/>
<path stroke-width="8.857142857142858" stroke="black" d="M 224 158 355 273"/>
<path stroke-width="8.857142857142858" stroke="black" d="M 224 158 121 187"/>
<path stroke-width="8.857142857142858" stroke="black" d="M 224 158 81 59"/>
<path stroke-width="8.857142857142858" stroke="black" d="M 224 158 281 90"/>
<path stroke-width="0.5" stroke="black" d="M 324 64 161 248"/>
<path stroke-width="3.2857142857142856" stroke="black" d="M 232 154 355 273"/>
<path stroke-width="3.2857142857142856" stroke="black" d="M 232 154 81 59"/>
<path stroke-width="0.5" stroke="black" d="M 152 320 74 270"/>
<path stroke-width="0.5" stroke="black" d="M 152 320 355 273"/>
<path stroke-width="0.5" stroke="black" d="M 152 320 121 187"/>
<path stroke-width="0.5" stroke="black" d="M 152 320 81 59"/>
<path stroke-width="0.5" stroke="black" d="M 152 320 86 59"/>
<path stroke-width="0.5" stroke="black" d="M 152 320 271 229"/>
<path stroke-width="0.5" stroke="black" d="M 152 320 262 276"/>
<path stroke-width="0.5" stroke="black" d="M 152 320 185 20"/>
<path stroke-width="0.5" stroke="black" d="M 152 320 23 126"/>
<path stroke-width="0.5" stroke="black" d="M 152 320 20 211"/>
<path stroke-width="0.5" stroke="black" d="M 152 320 25 216"/>
<path stroke-width="8.857142857142858" stroke="black" d="M 324 64 224 158"/>
<path stroke-width="3.2857142857142856" stroke="black" d="M 324 64 232 154"/>
<path stroke-width="0.5" stroke="black" d="M 324 64 152 320"/>
<path stroke-width="0.5" stroke="black" d="M 324 64 321 57"/>
<path stroke-width="0.5" stroke="black" d="M 324 64 369 198"/>
<path stroke-width="0.5" stroke="black" d="M 324 64 270 290"/>
<path stroke-width="0.5" stroke="black" d="M 324 64 176 27"/>
<path stroke-width="0.5" stroke="black" d="M 152 320 382 209"/>
<path stroke-width="3.2857142857142856" stroke="black" d="M 232 154 121 187"/>
<path stroke-width="0.5" stroke="black" d="M 152 320 420 165"/>
<path stroke-width="0.5" stroke="black" d="M 152 320 33 129"/>
<path stroke-width="3.2857142857142856" stroke="black" d="M 232 154 86 59"/>
<path stroke-width="3.2857142857142856" stroke="black" d="M 232 154 271 229"/>
<path stroke-width="7.464285714285714" stroke="black" d="M 232 154 262 276"/>
<path stroke-width="7.464285714285714" stroke="black" d="M 232 154 185 20"/>
<path stroke-width="3.2857142857142856" stroke="black" d="M 232 154 20 211"/>
<path stroke-width="3.2857142857142856" stroke="black" d="M 232 154 382 209"/>
<path stroke-width="3.2857142857142856" stroke="black" d="M 232 154 25 216"/>
<path stroke-width="7.464285714285714" stroke="black" d="M 152 320 224 158"/>
<path stroke-width="0.5" stroke="black" d="M 152 320 341 76"/>
<path stroke-width="0.5" stroke="black" d="M 152 320 232 154"/>
<path stroke-width="0.5" stroke="black" d="M 152 320 321 57"/>
<path stroke-width="0.5" stroke="black" d="M 152 320 369 198"/>
<path stroke-width="0.5" stroke="black" d="M 152 320 270 290"/>
<path stroke-width="0.5" stroke="black" d="M 152 320 176 27"/>
<path stroke-width="0.5" stroke="black" d="M 152 320 404 154"/>
<path stroke-width="0.5" stroke="black" d="M 152 320 161 248"/>
<path stroke-width="0.5" stroke="black" d="M 152 320 159 109"/>
<path stroke-width="0.5" stroke="black" d="M 152 320 281 90"/>
<path stroke-width="0.5" stroke="black" d="M 152 320 324 64"/>
<path stroke-width="0.5" stroke="black" d="M 25 216 20 211"/>
<path stroke-width="0.5" stroke="black" d="M 270 290 81 59"/>
<path stroke-width="0.5" stroke="black" d="M 270 290 271 229"/>
<path stroke-width="3.2857142857142856" stroke="black" d="M 281 90 232 154"/>
<path stroke-width="0.5" stroke="black" d="M 281 90 152 320"/>
<path stroke-width="0.5" stroke="black" d="M 281 90 324 64"/>
<path stroke-width="0.5" stroke="black" d="M 281 90 321 57"/>
<path stroke-width="0.5" stroke="black" d="M 281 90 369 198"/>
<path stroke-width="0.5" stroke="black" d="M 281 90 270 290"/>
<path stroke-width="0.5" stroke="black" d="M 281 90 176 27"/>
<path stroke-width="0.5" stroke="black" d="M 281 90 404 154"/>
<path stroke-width="8.857142857142858" stroke="black" d="M 281 90 224 158"/>
<path stroke-width="0.5" stroke="black" d="M 281 90 161 248"/>
<path stroke-width="4.678571428571429" stroke="black" d="M 281 90 33 129"/>
<path stroke-width="0.5" stroke="black" d="M 281 90 341 76"/>
<path stroke-width="0.5" stroke="black" d="M 281 90 420 165"/>
<path stroke-width="0.5" stroke="black" d="M 281 90 23 126"/>
<path stroke-width="0.5" stroke="black" d="M 281 90 74 270"/>
<path stroke-width="0.5" stroke="black" d="M 281 90 355 273"/>
<path stroke-width="0.5" stroke="black" d="M 281 90 121 187"/>
<path stroke-width="0.5" stroke="black" d="M 281 90 81 59"/>
<path stroke-width="0.5" stroke="black" d="M 281 90 159 109"/>
<path stroke-width="0.5" stroke="black" d="M 281 90 86 59"/>
<path stroke-width="0.5" stroke="black" d="M 159 109 25 216"/>
<path stroke-width="0.5" stroke="black" d="M 159 109 20 211"/>
<path stroke-width="0.5" stroke="black" d="M 159 109 369 198"/>
<path stroke-width="0.5" stroke="black" d="M 159 109 270 290"/>
<path stroke-width="0.5" stroke="black" d="M 159 109 176 27"/>
<path stroke-width="0.5" stroke="black" d="M 159 109 404 154"/>
<path stroke-width="0.5" stroke="black" d="M 159 109 161 248"/>
<path stroke-width="0.5" stroke="black" d="M 159 109 281 90"/>
<path stroke-width="0.5" stroke="black" d="M 159 109 33 129"/>
<path stroke-width="4.678571428571429" stroke="black" d="M 159 109 341 76"/>
<path stroke-width="0.5" stroke="black" d="M 159 109 382 209"/>
<path stroke-width="0.5" stroke="black" d="M 159 109 420 165"/>
<path stroke-width="0.5" stroke="black" d="M 159 109 74 270"/>
<path stroke-width="0.5" stroke="black" d="M 159 109 355 273"/>
<path stroke-width="0.5" stroke="black" d="M 159 109 121 187"/>
<path stroke-width="0.5" stroke="black" d="M 159 109 81 59"/>
<path stroke-width="0.5" stroke="black" d="M 159 109 86 59"/>
<path stroke-width="0.5" stroke="black" d="M 159 109 271 229"/>
<path stroke-width="0.5" stroke="black" d="M 159 109 262 276"/>
<path stroke-width="0.5" stroke="black" d="M 159 109 185 20"/>
<path stroke-width="0.5" stroke="black" d="M 159 109 23 126"/>
<path stroke-width="0.5" stroke="black" d="M 159 109 321 57"/>
<path stroke-width="0.5" stroke="black" d="M 281 90 271 229"/>
<path stroke-width="0.5" stroke="black" d="M 281 90 185 20"/>
<path stroke-width="0.5" stroke="black" d="M 33 129 86 59"/>
<path stroke-width="0.5" stroke="black" d="M 33 129 271 229"/>
<path stroke-width="0.5" stroke="black" d="M 33 129 262 276"/>
<path stroke-width="0.5" stroke="black" d="M 33 129 185 20"/>
<path stroke-width="0.5" stroke="black" d="M 33 129 20 211"/>
<path stroke-width="0.5" stroke="black" d="M 33 129 382 209"/>
<path stroke-width="0.5" stroke="black" d="M 33 129 25 216"/>
<path stroke-width="8.857142857142858" stroke="black" d="M 341 76 224 158"/>
<path stroke-width="0.5" stroke="black" d="M 33 129 81 59"/>
<path stroke-width="3.2857142857142856" stroke="black" d="M 341 76 232 154"/>
<path stroke-width="0.5" stroke="black" d="M 341 76 324 64"/>
<path stroke-width="0.5" stroke="black" d="M 341 76 321 57"/>
<path stroke-width="0.5" stroke="black" d="M 341 76 369 198"/>
<path stroke-width="0.5" stroke="black" d="M 341 76 270 290"/>
<path stroke-width="0.5" stroke="black" d="M 341 76 176 27"/>
<path stroke-width="0.5" stroke="black" d="M 341 76 404 154"/>
<path stroke-width="0.5" stroke="black" d="M 341 76 161 248"/>
<path stroke-width="4.678571428571429" stroke="black" d="M 341 76 159 109"/>
<path stroke-width="0.5" stroke="black" d="M 341 76 152 320"/>
<path stroke-width="0.5" stroke="black" d="M 281 90 262 276"/>
<path stroke-width="0.5" stroke="black" d="M 33 129 121 187"/>
<path stroke-width="0.5" stroke="black" d="M 33 129 74 270"/>
<path stroke-width="0.5" stroke="black" d="M 281 90 20 211"/>
<path stroke-width="0.5" stroke="black" d="M 281 90 382 209"/>
<path stroke-width="0.5" stroke="black" d="M 281 90 25 216"/>
<path stroke-width="8.857142857142858" stroke="black" d="M 33 129 224 158"/>
<path stroke-width="3.2857142857142856" stroke="black" d="M 33 129 232 154"/>
<path stroke-width="0.5" stroke="black" d="M 33 129 152 320"/>
<path stroke-width="0.5" stroke="black" d="M 33 129 324 64"/>
<path stroke-width="0.5" stroke="black" d="M 33 129 321 57"/>
<path stroke-width="0.5" stroke="black" d="M 33 129 355 273"/>
<path stroke-width="0.5" stroke="black" d="M 33 129 369 198"/>
<path stroke-width="0.5" stroke="black" d="M 33 129 176 27"/>
<path stroke-width="0.5" stroke="black" d="M 33 129 404 154"/>
<path stroke-width="0.5" stroke="black" d="M 33 129 161 248"/>
<path stroke-width="0.5" stroke="black" d="M 33 129 159 109"/>
<path stroke-width="4.678571428571429" stroke="black" d="M 33 129 281 90"/>
<path stroke-width="0.5" stroke="black" d="M 33 129 341 76"/>
<path stroke-width="0.5" stroke="black" d="M 33 129 420 165"/>
<path stroke-width="0.5" stroke="black" d="M 33 129 23 126"/>
<path stroke-width="0.5" stroke="black" d="M 33 129 270 290"/>
<path stroke-width="0.5" stroke="black" d="M 270 290 86 59"/>
<path stroke-width="0.5" stroke="black" d="M 159 109 324 64"/>
<path stroke-width="3.2857142857142856" stroke="black" d="M 159 109 232 154"/>
<path stroke-width="0.5" stroke="black" d="M 176 27 121 187"/>
<path stroke-width="0.5" stroke="black" d="M 176 27 81 59"/>
<path stroke-width="0.5" stroke="black" d="M 176 27 86 59"/>
<path stroke-width="0.5" stroke="black" d="M 176 27 271 229"/>
<path stroke-width="0.5" stroke="black" d="M 176 27 262 276"/>
<path stroke-width="0.5" stroke="black" d="M 176 27 185 20"/>
<path stroke-width="0.5" stroke="black" d="M 176 27 20 211"/>
<path stroke-width="0.5" stroke="black" d="M 176 27 382 209"/>
<path stroke-width="0.5" stroke="black" d="M 176 27 355 273"/>
<path stroke-width="0.5" stroke="black" d="M 176 27 25 216"/>
<path stroke-width="3.2857142857142856" stroke="black" d="M 404 154 232 154"/>
<path stroke-width="0.5" stroke="black" d="M 404 154 152 320"/>
<path stroke-width="0.5" stroke="black" d="M 404 154 324 64"/>
<path stroke-width="0.5" stroke="black" d="M 404 154 321 57"/>
<path stroke-width="0.5" stroke="black" d="M 404 154 369 198"/>
<path stroke-width="0.5" stroke="black" d="M 404 154 270 290"/>
<path stroke-width="0.5" stroke="black" d="M 404 154 176 27"/>
<path stroke-width="0.5" stroke="black" d="M 404 154 161 248"/>
<path stroke-width="8.857142857142858" stroke="black" d="M 404 154 224 158"/>
<path stroke-width="0.5" stroke="black" d="M 404 154 159 109"/>
<path stroke-width="0.5" stroke="black" d="M 176 27 74 270"/>
<path stroke-width="0.5" stroke="black" d="M 176 27 420 165"/>
<path stroke-width="0.5" stroke="black" d="M 270 290 262 276"/>
<path stroke-width="0.5" stroke="black" d="M 270 290 185 20"/>
<path stroke-width="0.5" stroke="black" d="M 270 290 20 211"/>
<path stroke-width="0.5" stroke="black" d="M 270 290 382 209"/>
<path stroke-width="0.5" stroke="black" d="M 270 290 25 216"/>
<path stroke-width="8.857142857142858" stroke="black" d="M 176 27 224 158"/>
<path stroke-width="3.2857142857142856" stroke="black" d="M 176 27 232 154"/>
<path stroke-width="0.5" stroke="black" d="M 176 27 152 320"/>
<path stroke-width="4.678571428571429" stroke="black" d="M 176 27 23 126"/>
<path stroke-width="0.5" stroke="black" d="M 176 27 324 64"/>
<path stroke-width="0.5" stroke="black" d="M 176 27 369 198"/>
<path stroke-width="0.5" stroke="black" d="M 176 27 270 290"/>
<path stroke-width="0.5" stroke="black" d="M 176 27 404 154"/>
<path stroke-width="0.5" stroke="black" d="M 176 27 161 248"/>
<path stroke-width="0.5" stroke="black" d="M 176 27 159 109"/>
<path stroke-width="0.5" stroke="black" d="M 176 27 281 90"/>
<path stroke-width="0.5" stroke="black" d="M 176 27 33 129"/>
<path stroke-width="0.5" stroke="black" d="M 176 27 341 76"/>
<path stroke-width="0.5" stroke="black" d="M 176 27 321 57"/>
<path stroke-width="0.5" stroke="black" d="M 159 109 152 320"/>
<path stroke-width="0.5" stroke="black" d="M 404 154 281 90"/>
<path stroke-width="0.5" stroke="black" d="M 404 154 341 76"/>
<path stroke-width="0.5" stroke="black" d="M 161 248 159 109"/>
<path stroke-width="0.5" stroke="black" d="M 161 248 281 90"/>
<path stroke-width="0.5" stroke="black" d="M 161 248 33 129"/>
<path stroke-width="0.5" stroke="black" d="M 161 248 341 76"/>
<path stroke-width="0.5" stroke="black" d="M 161 248 420 165"/>
<path stroke-width="0.5" stroke="black" d="M 161 248 23 126"/>
<path stroke-width="0.5" stroke="black" d="M 161 248 74 270"/>
<path stroke-width="0.5" stroke="black" d="M 161 248 355 273"/>
<path stroke-width="0.5" stroke="black" d="M 161 248 404 154"/>
<path stroke-width="0.5" stroke="black" d="M 161 248 121 187"/>
<path stroke-width="0.5" stroke="black" d="M 161 248 86 59"/>
<path stroke-width="0.5" stroke="black" d="M 161 248 271 229"/>
<path stroke-width="0.5" stroke="black" d="M 161 248 262 276"/>
<path stroke-width="0.5" stroke="black" d="M 161 248 185 20"/>
<path stroke-width="0.5" stroke="black" d="M 161 248 20 211"/>
<path stroke-width="4.678571428571429" stroke="black" d="M 161 248 382 209"/>
<path stroke-width="0.5" stroke="black" d="M 161 248 25 216"/>
<path stroke-width="8.857142857142858" stroke="black" d="M 159 109 224 158"/>
<path stroke-width="0.5" stroke="black" d="M 161 248 81 59"/>
<path stroke-width="0.5" stroke="black" d="M 404 154 33 129"/>
<path stroke-width="0.5" stroke="black" d="M 161 248 176 27"/>
<path stroke-width="0.5" stroke="black" d="M 161 248 369 198"/>
<path stroke-width="4.678571428571429" stroke="black" d="M 404 154 420 165"/>
<path stroke-width="0.5" stroke="black" d="M 404 154 23 126"/>
<path stroke-width="0.5" stroke="black" d="M 404 154 74 270"/>
<path stroke-width="0.5" stroke="black" d="M 404 154 355 273"/>
<path stroke-width="0.5" stroke="black" d="M 404 154 121 187"/>
<path stroke-width="0.5" stroke="black" d="M 404 154 81 59"/>
<path stroke-width="0.5" stroke="black" d="M 404 154 86 59"/>
<path stroke-width="0.5" stroke="black" d="M 404 154 271 229"/>
<path stroke-width="0.5" stroke="black" d="M 161 248 270 290"/>
<path stroke-width="0.5" stroke="black" d="M 404 154 262 276"/>
<path stroke-width="0.5" stroke="black" d="M 404 154 20 211"/>
<path stroke-width="0.5" stroke="black" d="M 404 154 382 209"/>
<path stroke-width="0.5" stroke="black" d="M 404 154 25 216"/>
<path stroke-width="8.857142857142858" stroke="black" d="M 161 248 224 158"/>
<path stroke-width="3.2857142857142856" stroke="black" d="M 161 248 232 154"/>
<path stroke-width="0.5" stroke="black" d="M 161 248 152 320"/>
<path stroke-width="0.5" stroke="black" d="M 161 248 324 64"/>
<path stroke-width="0.5" stroke="black" d="M 161 248 321 57"/>
<path stroke-width="0.5" stroke="black" d="M 404 154 185 20"/>
<path stroke-width="0.5" stroke="black" d="M 25 216 382 209"/>
<circle cx="224" cy="158" r="7.0" style="fill:blue;stroke:black;stroke-width:1.0"/>
<circle cx="232" cy="154" r="7.0" style="fill:blue;stroke:black;stroke-width:1.0"/>
<circle cx="152" cy="320" r="7.0" style="fill:blue;stroke:black;stroke-width:1.0"/>
<circle cx="324" cy="64" r="7.0" style="fill:green;stroke:black;stroke-width:1.0"/>
<circle cx="321" cy="57" r="7.0" style="fill:red;stroke:black;stroke-width:1.0"/>
<circle cx="369" cy="198" r="7.0" style="fill:blue;stroke:black;stroke-width:1.0"/>
<circle cx="270" cy="290" r="7.0" style="fill:blue;stroke:black;stroke-width:1.0"/>
<circle cx="176" cy="27" r="7.0" style="fill:blue;stroke:black;stroke-width:1.0"/>
<circle cx="404" cy="154" r="7.0" style="fill:blue;stroke:black;stroke-width:1.0"/>
<circle cx="161" cy="248" r="7.0" style="fill:orange;stroke:black;stroke-width:1.0"/>
<circle cx="159" cy="109" r="7.0" style="fill:blue;stroke:black;stroke-width:1.0"/>
<circle cx="281" cy="90" r="7.0" style="fill:blue;stroke:black;stroke-width:1.0"/>
<circle cx="33" cy="129" r="7.0" style="fill:blue;stroke:black;stroke-width:1.0"/>
<circle cx="341" cy="76" r="7.0" style="fill:blue;stroke:black;stroke-width:1.0"/>
<circle cx="420" cy="165" r="7.0" style="fill:blue;stroke:black;stroke-width:1.0"/>
<circle cx="23" cy="126" r="7.0" style="fill:blue;stroke:black;stroke-width:1.0"/>
<circle cx="74" cy="270" r="7.0" style="fill:purple;stroke:black;stroke-width:1.0"/>
<circle cx="355" cy="273" r="7.0" style="fill:blue;stroke:black;stroke-width:1.0"/>
<circle cx="121" cy="187" r="7.0" style="fill:blue;stroke:black;stroke-width:1.0"/>
<circle cx="81" cy="59" r="7.0" style="fill:red;stroke:black;stroke-width:1.0"/>
<circle cx="86" cy="59" r="7.0" style="fill:green;stroke:black;stroke-width:1.0"/>
<circle cx="271" cy="229" r="7.0" style="fill:blue;stroke:black;stroke-width:1.0"/>
<circle cx="262" cy="276" r="7.0" style="fill:blue;stroke:black;stroke-width:1.0"/>
<circle cx="185" cy="20" r="7.0" style="fill:blue;stroke:black;stroke-width:1.0"/>
<circle cx="20" cy="211" r="7.0" style="fill:blue;stroke:black;stroke-width:1.0"/>
<circle cx="382" cy="209" r="7.0" style="fill:orange;stroke:black;stroke-width:1.0"/>
<circle cx="25" cy="216" r="7.0" style="fill:purple;stroke:black;stroke-width:1.0"/>
</svg>
