<svg width="440" height="340" xmlns="http://www.w3.org/2000/svg">
<path stroke-width="1" stroke="black" d="M 150 176 204 168"/>
<path stroke-width="1" stroke="black" d="M 251 29 400 237"/>
<path stroke-width="1" stroke="black" d="M 251 29 419 100"/>
<path stroke-width="1" stroke="black" d="M 251 29 112 26"/>
<path stroke-width="1" stroke="black" d="M 251 29 208 128"/>
<path stroke-width="1" stroke="black" d="M 251 29 59 228"/>
<path stroke-width="1" stroke="black" d="M 287 32 150 176"/>
<path stroke-width="1" stroke="black" d="M 287 32 204 168"/>
<path stroke-width="1" stroke="black" d="M 287 32 121 20"/>
<path stroke-width="1" stroke="black" d="M 287 32 187 317"/>
<path stroke-width="1" stroke="black" d="M 287 32 159 237"/>
<path stroke-width="1" stroke="black" d="M 287 32 248 70"/>
<path stroke-width="1" stroke="black" d="M 287 32 406 133"/>
<path stroke-width="1" stroke="black" d="M 287 32 162 266"/>
<path stroke-width="1" stroke="black" d="M 287 32 20 112"/>
<path stroke-width="1" stroke="black" d="M 287 32 102 297"/>
<path stroke-width="1" stroke="black" d="M 287 32 377 72"/>
<path stroke-width="1" stroke="black" d="M 287 32 420 165"/>
<path stroke-width="1" stroke="black" d="M 251 29 89 92"/>
<path stroke-width="1" stroke="black" d="M 251 29 34 165"/>
<path stroke-width="1" stroke="black" d="M 251 29 95 92"/>
<path stroke-width="1" stroke="black" d="M 251 29 287 32"/>
<path stroke-width="1" stroke="black" d="M 283 234 59 228"/>
<path stroke-width="1" stroke="black" d="M 251 29 150 176"/>
<path stroke-width="1" stroke="black" d="M 251 29 204 168"/>
<path stroke-width="1" stroke="black" d="M 251 29 121 20"/>
<path stroke-width="1" stroke="black" d="M 251 29 187 317"/>
<path stroke-width="1" stroke="black" d="M 251 29 159 237"/>
<path stroke-width="1" stroke="black" d="M 251 29 248 70"/>
<path stroke-width="1" stroke="black" d="M 251 29 406 133"/>
<path stroke-width="1" stroke="black" d="M 287 32 328 294"/>
<path stroke-width="1" stroke="black" d="M 251 29 162 266"/>
<path stroke-width="1" stroke="black" d="M 251 29 102 297"/>
<path stroke-width="1" stroke="black" d="M 251 29 377 72"/>
<path stroke-width="1" stroke="black" d="M 251 29 420 165"/>
<path stroke-width="1" stroke="black" d="M 251 29 328 294"/>
<path stroke-width="1" stroke="black" d="M 251 29 399 226"/>
<path stroke-width="1" stroke="black" d="M 251 29 37 236"/>
<path stroke-width="1" stroke="black" d="M 251 29 244 320"/>
<path stroke-width="1" stroke="black" d="M 251 29 283 234"/>
<path stroke-width="1" stroke="black" d="M 251 29 20 112"/>
<path stroke-width="1" stroke="black" d="M 287 32 399 226"/>
<path stroke-width="1" stroke="black" d="M 287 32 37 236"/>
<path stroke-width="1" stroke="black" d="M 287 32 244 320"/>
<path stroke-width="1" stroke="black" d="M 95 92 328 294"/>
<path stroke-width="1" stroke="black" d="M 95 92 399 226"/>
<path stroke-width="1" stroke="black" d="M 95 92 37 236"/>
<path stroke-width="1" stroke="black" d="M 95 92 244 320"/>
<path stroke-width="1" stroke="black" d="M 95 92 283 234"/>
<path stroke-width="1" stroke="black" d="M 95 92 251 29"/>
<path stroke-width="1" stroke="black" d="M 95 92 287 32"/>
<path stroke-width="1" stroke="black" d="M 95 92 34 165"/>
<path stroke-width="1" stroke="black" d="M 95 92 420 165"/>
<path stroke-width="1" stroke="black" d="M 95 92 89 92"/>
<path stroke-width="1" stroke="black" d="M 95 92 419 100"/>
<path stroke-width="1" stroke="black" d="M 95 92 112 26"/>
<path stroke-width="1" stroke="black" d="M 95 92 208 128"/>
<path stroke-width="1" stroke="black" d="M 95 92 59 228"/>
<path stroke-width="1" stroke="black" d="M 34 165 150 176"/>
<path stroke-width="1" stroke="black" d="M 34 165 204 168"/>
<path stroke-width="1" stroke="black" d="M 34 165 121 20"/>
<path stroke-width="1" stroke="black" d="M 34 165 187 317"/>
<path stroke-width="1" stroke="black" d="M 95 92 400 237"/>
<path stroke-width="1" stroke="black" d="M 283 234 208 128"/>
<path stroke-width="1" stroke="black" d="M 95 92 377 72"/>
<path stroke-width="1" stroke="black" d="M 95 92 20 112"/>
<path stroke-width="1" stroke="black" d="M 287 32 283 234"/>
<path stroke-width="1" stroke="black" d="M 287 32 251 29"/>
<path stroke-width="1" stroke="black" d="M 287 32 95 92"/>
<path stroke-width="1" stroke="black" d="M 287 32 34 165"/>
<path stroke-width="1" stroke="black" d="M 287 32 89 92"/>
<path stroke-width="1" stroke="black" d="M 287 32 400 237"/>
<path stroke-width="1" stroke="black" d="M 287 32 419 100"/>
<path stroke-width="1" stroke="black" d="M 287 32 112 26"/>
<path stroke-width="1" stroke="black" d="M 95 92 102 297"/>
<path stroke-width="1" stroke="black" d="M 287 32 208 128"/>
<path stroke-width="1" stroke="black" d="M 95 92 150 176"/>
<path stroke-width="1" stroke="black" d="M 95 92 204 168"/>
<path stroke-width="1" stroke="black" d="M 95 92 121 20"/>
<path stroke-width="1" stroke="black" d="M 95 92 187 317"/>
<path stroke-width="1" stroke="black" d="M 95 92 159 237"/>
<path stroke-width="1" stroke="black" d="M 95 92 248 70"/>
<path stroke-width="1" stroke="black" d="M 95 92 406 133"/>
<path stroke-width="1" stroke="black" d="M 95 92 162 266"/>
<path stroke-width="1" stroke="black" d="M 287 32 59 228"/>
<path stroke-width="1" stroke="black" d="M 283 234 112 26"/>
<path stroke-width="1" stroke="black" d="M 283 234 419 100"/>
<path stroke-width="1" stroke="black" d="M 283 234 400 237"/>
<path stroke-width="1" stroke="black" d="M 37 236 420 165"/>
<path stroke-width="1" stroke="black" d="M 37 236 328 294"/>
<path stroke-width="1" stroke="black" d="M 37 236 399 226"/>
<path stroke-width="1" stroke="black" d="M 37 236 244 320"/>
<path stroke-width="1" stroke="black" d="M 37 236 283 234"/>
<path stroke-width="1" stroke="black" d="M 37 236 251 29"/>
<path stroke-width="1" stroke="black" d="M 37 236 287 32"/>
<path stroke-width="1" stroke="black" d="M 37 236 95 92"/>
<path stroke-width="1" stroke="black" d="M 37 236 377 72"/>
<path stroke-width="1" stroke="black" d="M 37 236 34 165"/>
<path stroke-width="1" stroke="black" d="M 37 236 400 237"/>
<path stroke-width="1" stroke="black" d="M 37 236 419 100"/>
<path stroke-width="1" stroke="black" d="M 37 236 112 26"/>
<path stroke-width="1" stroke="black" d="M 37 236 208 128"/>
<path stroke-width="1" stroke="black" d="M 37 236 59 228"/>
<path stroke-width="1" stroke="black" d="M 244 320 150 176"/>
<path stroke-width="1" stroke="black" d="M 244 320 204 168"/>
<path stroke-width="1" stroke="black" d="M 244 320 121 20"/>
<path stroke-width="1" stroke="black" d="M 37 236 89 92"/>
<path stroke-width="1" stroke="black" d="M 244 320 187 317"/>
<path stroke-width="1" stroke="black" d="M 37 236 102 297"/>
<path stroke-width="1" stroke="black" d="M 37 236 162 266"/>
<path stroke-width="1" stroke="black" d="M 399 226 283 234"/>
<path stroke-width="1" stroke="black" d="M 399 226 251 29"/>
<path stroke-width="1" stroke="black" d="M 399 226 287 32"/>
<path stroke-width="1" stroke="black" d="M 399 226 95 92"/>
<path stroke-width="1" stroke="black" d="M 399 226 34 165"/>
<path stroke-width="1" stroke="black" d="M 399 226 89 92"/>
<path stroke-width="1" stroke="black" d="M 399 226 400 237"/>
<path stroke-width="1" stroke="black" d="M 399 226 419 100"/>
<path stroke-width="1" stroke="black" d="M 37 236 20 112"/>
<path stroke-width="1" stroke="black" d="M 399 226 112 26"/>
<path stroke-width="1" stroke="black" d="M 399 226 59 228"/>
<path stroke-width="1" stroke="black" d="M 37 236 150 176"/>
<path stroke-width="1" stroke="black" d="M 37 236 204 168"/>
<path stroke-width="1" stroke="black" d="M 37 236 121 20"/>
<path stroke-width="1" stroke="black" d="M 37 236 187 317"/>
<path stroke-width="1" stroke="black" d="M 37 236 159 237"/>
<path stroke-width="1" stroke="black" d="M 37 236 248 70"/>
<path stroke-width="1" stroke="black" d="M 37 236 406 133"/>
<path stroke-width="1" stroke="black" d="M 399 226 208 128"/>
<path stroke-width="1" stroke="black" d="M 34 165 159 237"/>
<path stroke-width="1" stroke="black" d="M 244 320 159 237"/>
<path stroke-width="1" stroke="black" d="M 244 320 406 133"/>
<path stroke-width="1" stroke="black" d="M 283 234 187 317"/>
<path stroke-width="1" stroke="black" d="M 283 234 159 237"/>
<path stroke-width="1" stroke="black" d="M 283 234 248 70"/>
<path stroke-width="1" stroke="black" d="M 283 234 406 133"/>
<path stroke-width="1" stroke="black" d="M 283 234 162 266"/>
<path stroke-width="1" stroke="black" d="M 283 234 20 112"/>
<path stroke-width="1" stroke="black" d="M 283 234 102 297"/>
<path stroke-width="1" stroke="black" d="M 283 234 377 72"/>
<path stroke-width="1" stroke="black" d="M 283 234 121 20"/>
<path stroke-width="1" stroke="black" d="M 283 234 420 165"/>
<path stroke-width="1" stroke="black" d="M 283 234 399 226"/>
<path stroke-width="1" stroke="black" d="M 283 234 37 236"/>
<path stroke-width="1" stroke="black" d="M 283 234 244 320"/>
<path stroke-width="1" stroke="black" d="M 283 234 251 29"/>
<path stroke-width="1" stroke="black" d="M 283 234 287 32"/>
<path stroke-width="1" stroke="black" d="M 283 234 95 92"/>
<path stroke-width="1" stroke="black" d="M 283 234 34 165"/>
<path stroke-width="1" stroke="black" d="M 283 234 89 92"/>
<path stroke-width="1" stroke="black" d="M 283 234 328 294"/>
<path stroke-width="1" stroke="black" d="M 244 320 248 70"/>
<path stroke-width="1" stroke="black" d="M 283 234 204 168"/>
<path stroke-width="1" stroke="black" d="M 244 320 59 228"/>
<path stroke-width="1" stroke="black" d="M 244 320 162 266"/>
<path stroke-width="1" stroke="black" d="M 244 320 20 112"/>
<path stroke-width="1" stroke="black" d="M 244 320 102 297"/>
<path stroke-width="1" stroke="black" d="M 244 320 377 72"/>
<path stroke-width="1" stroke="black" d="M 244 320 420 165"/>
<path stroke-width="1" stroke="black" d="M 244 320 328 294"/>
<path stroke-width="1" stroke="black" d="M 244 320 399 226"/>
<path stroke-width="1" stroke="black" d="M 244 320 37 236"/>
<path stroke-width="1" stroke="black" d="M 283 234 150 176"/>
<path stroke-width="1" stroke="black" d="M 244 320 283 234"/>
<path stroke-width="1" stroke="black" d="M 244 320 287 32"/>
<path stroke-width="1" stroke="black" d="M 244 320 95 92"/>
<path stroke-width="1" stroke="black" d="M 244 320 34 165"/>
<path stroke-width="1" stroke="black" d="M 244 320 89 92"/>
<path stroke-width="1" stroke="black" d="M 244 320 400 237"/>
<path stroke-width="1" stroke="black" d="M 244 320 419 100"/>
<path stroke-width="1" stroke="black" d="M 244 320 112 26"/>
<path stroke-width="1" stroke="black" d="M 244 320 208 128"/>
<path stroke-width="1" stroke="black" d="M 244 320 251 29"/>
<path stroke-width="1" stroke="black" d="M 34 165 248 70"/>
<path stroke-width="1" stroke="black" d="M 34 165 406 133"/>
<path stroke-width="1" stroke="black" d="M 34 165 162 266"/>
<path stroke-width="1" stroke="black" d="M 112 26 37 236"/>
<path stroke-width="1" stroke="black" d="M 112 26 244 320"/>
<path stroke-width="1" stroke="black" d="M 112 26 283 234"/>
<path stroke-width="1" stroke="black" d="M 112 26 251 29"/>
<path stroke-width="1" stroke="black" d="M 112 26 287 32"/>
<path stroke-width="1" stroke="black" d="M 112 26 95 92"/>
<path stroke-width="1" stroke="black" d="M 112 26 34 165"/>
<path stroke-width="1" stroke="black" d="M 112 26 89 92"/>
<path stroke-width="1" stroke="black" d="M 112 26 399 226"/>
<path stroke-width="1" stroke="black" d="M 112 26 400 237"/>
<path stroke-width="1" stroke="black" d="M 112 26 208 128"/>
<path stroke-width="1" stroke="black" d="M 112 26 59 228"/>
<path stroke-width="1" stroke="black" d="M 208 128 150 176"/>
<path stroke-width="1" stroke="black" d="M 208 128 204 168"/>
<path stroke-width="1" stroke="black" d="M 208 128 121 20"/>
<path stroke-width="1" stroke="black" d="M 208 128 187 317"/>
<path stroke-width="1" stroke="black" d="M 208 128 159 237"/>
<path stroke-width="1" stroke="black" d="M 208 128 248 70"/>
<path stroke-width="1" stroke="black" d="M 112 26 419 100"/>
<path stroke-width="1" stroke="black" d="M 208 128 406 133"/>
<path stroke-width="1" stroke="black" d="M 112 26 328 294"/>
<path stroke-width="1" stroke="black" d="M 112 26 377 72"/>
<path stroke-width="1" stroke="black" d="M 419 100 287 32"/>
<path stroke-width="1" stroke="black" d="M 419 100 95 92"/>
<path stroke-width="1" stroke="black" d="M 419 100 34 165"/>
<path stroke-width="1" stroke="black" d="M 419 100 89 92"/>
<path stroke-width="1" stroke="black" d="M 419 100 400 237"/>
<path stroke-width="1" stroke="black" d="M 419 100 112 26"/>
<path stroke-width="1" stroke="black" d="M 419 100 208 128"/>
<path stroke-width="1" stroke="black" d="M 419 100 59 228"/>
<path stroke-width="1" stroke="black" d="M 112 26 420 165"/>
<path stroke-width="1" stroke="black" d="M 112 26 150 176"/>
<path stroke-width="1" stroke="black" d="M 112 26 121 20"/>
<path stroke-width="1" stroke="black" d="M 112 26 187 317"/>
<path stroke-width="1" stroke="black" d="M 112 26 159 237"/>
<path stroke-width="1" stroke="black" d="M 112 26 248 70"/>
<path stroke-width="1" stroke="black" d="M 112 26 406 133"/>
<path stroke-width="1" stroke="black" d="M 112 26 162 266"/>
<path stroke-width="1" stroke="black" d="M 112 26 20 112"/>
<path stroke-width="1" stroke="black" d="M 112 26 102 297"/>
<path stroke-width="1" stroke="black" d="M 112 26 204 168"/>
<path stroke-width="1" stroke="black" d="M 419 100 251 29"/>
<path stroke-width="1" stroke="black" d="M 208 128 162 266"/>
<path stroke-width="1" stroke="black" d="M 208 128 102 297"/>
<path stroke-width="1" stroke="black" d="M 59 228 406 133"/>
<path stroke-width="1" stroke="black" d="M 59 228 162 266"/>
<path stroke-width="1" stroke="black" d="M 59 228 20 112"/>
<path stroke-width="1" stroke="black" d="M 59 228 102 297"/>
<path stroke-width="1" stroke="black" d="M 59 228 377 72"/>
<path stroke-width="1" stroke="black" d="M 59 228 420 165"/>
<path stroke-width="1" stroke="black" d="M 59 228 328 294"/>
<path stroke-width="1" stroke="black" d="M 59 228 399 226"/>
<path stroke-width="1" stroke="black" d="M 59 228 248 70"/>
<path stroke-width="1" stroke="black" d="M 59 228 37 236"/>
<path stroke-width="1" stroke="black" d="M 59 228 283 234"/>
<path stroke-width="1" stroke="black" d="M 59 228 251 29"/>
<path stroke-width="1" stroke="black" d="M 59 228 287 32"/>
<path stroke-width="1" stroke="black" d="M 59 228 95 92"/>
<path stroke-width="1" stroke="black" d="M 59 228 34 165"/>
<path stroke-width="1" stroke="black" d="M 59 228 89 92"/>
<path stroke-width="1" stroke="black" d="M 59 228 400 237"/>
<path stroke-width="1" stroke="black" d="M 59 228 419 100"/>
<path stroke-width="1" stroke="black" d="M 59 228 244 320"/>
<path stroke-width="1" stroke="black" d="M 208 128 20 112"/>
<path stroke-width="1" stroke="black" d="M 59 228 159 237"/>
<path stroke-width="1" stroke="black" d="M 59 228 121 20"/>
<path stroke-width="1" stroke="black" d="M 208 128 377 72"/>
<path stroke-width="1" stroke="black" d="M 208 128 420 165"/>
<path stroke-width="1" stroke="black" d="M 208 128 328 294"/>
<path stroke-width="1" stroke="black" d="M 208 128 399 226"/>
<path stroke-width="1" stroke="black" d="M 208 128 37 236"/>
<path stroke-width="1" stroke="black" d="M 208 128 244 320"/>
<path stroke-width="1" stroke="black" d="M 208 128 283 234"/>
<path stroke-width="1" stroke="black" d="M 208 128 251 29"/>
<path stroke-width="1" stroke="black" d="M 59 228 187 317"/>
<path stroke-width="1" stroke="black" d="M 208 128 287 32"/>
<path stroke-width="1" stroke="black" d="M 208 128 34 165"/>
<path stroke-width="1" stroke="black" d="M 208 128 89 92"/>
<path stroke-width="1" stroke="black" d="M 208 128 400 237"/>
<path stroke-width="1" stroke="black" d="M 208 128 419 100"/>
<path stroke-width="1" stroke="black" d="M 208 128 112 26"/>
<path stroke-width="1" stroke="black" d="M 208 128 59 228"/>
<path stroke-width="1" stroke="black" d="M 59 228 150 176"/>
<path stroke-width="1" stroke="black" d="M 59 228 204 168"/>
<path stroke-width="1" stroke="black" d="M 208 128 95 92"/>
<path stroke-width="1" stroke="black" d="M 399 226 244 320"/>
<path stroke-width="1" stroke="black" d="M 419 100 283 234"/>
<path stroke-width="1" stroke="black" d="M 419 100 37 236"/>
<path stroke-width="1" stroke="black" d="M 89 92 159 237"/>
<path stroke-width="1" stroke="black" d="M 89 92 248 70"/>
<path stroke-width="1" stroke="black" d="M 89 92 406 133"/>
<path stroke-width="1" stroke="black" d="M 89 92 162 266"/>
<path stroke-width="1" stroke="black" d="M 89 92 20 112"/>
<path stroke-width="1" stroke="black" d="M 89 92 102 297"/>
<path stroke-width="1" stroke="black" d="M 89 92 377 72"/>
<path stroke-width="1" stroke="black" d="M 89 92 420 165"/>
<path stroke-width="1" stroke="black" d="M 89 92 187 317"/>
<path stroke-width="1" stroke="black" d="M 89 92 328 294"/>
<path stroke-width="1" stroke="black" d="M 89 92 37 236"/>
<path stroke-width="1" stroke="black" d="M 89 92 244 320"/>
<path stroke-width="1" stroke="black" d="M 89 92 283 234"/>
<path stroke-width="1" stroke="black" d="M 89 92 251 29"/>
<path stroke-width="1" stroke="black" d="M 89 92 287 32"/>
<path stroke-width="1" stroke="black" d="M 89 92 95 92"/>
<path stroke-width="1" stroke="black" d="M 89 92 34 165"/>
<path stroke-width="1" stroke="black" d="M 89 92 400 237"/>
<path stroke-width="1" stroke="black" d="M 89 92 399 226"/>
<path stroke-width="1" stroke="black" d="M 89 92 419 100"/>
<path stroke-width="1" stroke="black" d="M 89 92 121 20"/>
<path stroke-width="1" stroke="black" d="M 89 92 150 176"/>
<path stroke-width="1" stroke="black" d="M 34 165 20 112"/>
<path stroke-width="1" stroke="black" d="M 34 165 102 297"/>
<path stroke-width="1" stroke="black" d="M 34 165 377 72"/>
<path stroke-width="1" stroke="black" d="M 34 165 420 165"/>
<path stroke-width="1" stroke="black" d="M 34 165 328 294"/>
<path stroke-width="1" stroke="black" d="M 34 165 399 226"/>
<path stroke-width="1" stroke="black" d="M 34 165 37 236"/>
<path stroke-width="1" stroke="black" d="M 34 165 244 320"/>
<path stroke-width="1" stroke="black" d="M 89 92 204 168"/>
<path stroke-width="1" stroke="black" d="M 34 165 283 234"/>
<path stroke-width="1" stroke="black" d="M 34 165 287 32"/>
<path stroke-width="1" stroke="black" d="M 34 165 95 92"/>
<path stroke-width="1" stroke="black" d="M 34 165 89 92"/>
<path stroke-width="1" stroke="black" d="M 34 165 400 237"/>
<path stroke-width="1" stroke="black" d="M 34 165 419 100"/>
<path stroke-width="1" stroke="black" d="M 34 165 112 26"/>
<path stroke-width="1" stroke="black" d="M 34 165 208 128"/>
<path stroke-width="1" stroke="black" d="M 34 165 59 228"/>
<path stroke-width="1" stroke="black" d="M 34 165 251 29"/>
<path stroke-width="1" stroke="black" d="M 419 100 244 320"/>
<path stroke-width="1" stroke="black" d="M 89 92 112 26"/>
<path stroke-width="1" stroke="black" d="M 89 92 59 228"/>
<path stroke-width="1" stroke="black" d="M 400 237 419 100"/>
<path stroke-width="1" stroke="black" d="M 400 237 112 26"/>
<path stroke-width="1" stroke="black" d="M 400 237 208 128"/>
<path stroke-width="1" stroke="black" d="M 400 237 59 228"/>
<path stroke-width="1" stroke="black" d="M 419 100 150 176"/>
<path stroke-width="1" stroke="black" d="M 419 100 204 168"/>
<path stroke-width="1" stroke="black" d="M 419 100 121 20"/>
<path stroke-width="1" stroke="black" d="M 419 100 187 317"/>
<path stroke-width="1" stroke="black" d="M 400 237 89 92"/>
<path stroke-width="1" stroke="black" d="M 419 100 159 237"/>
<path stroke-width="1" stroke="black" d="M 419 100 406 133"/>
<path stroke-width="1" stroke="black" d="M 419 100 162 266"/>
<path stroke-width="1" stroke="black" d="M 419 100 20 112"/>
<path stroke-width="1" stroke="black" d="M 419 100 102 297"/>
<path stroke-width="1" stroke="black" d="M 419 100 377 72"/>
<path stroke-width="1" stroke="black" d="M 419 100 420 165"/>
<path stroke-width="1" stroke="black" d="M 419 100 328 294"/>
<path stroke-width="1" stroke="black" d="M 419 100 399 226"/>
<path stroke-width="1" stroke="black" d="M 419 100 248 70"/>
<path stroke-width="1" stroke="black" d="M 89 92 208 128"/>
<path stroke-width="1" stroke="black" d="M 400 237 34 165"/>
<path stroke-width="1" stroke="black" d="M 400 237 287 32"/>
<path stroke-width="1" stroke="black" d="M 400 237 150 176"/>
<path stroke-width="1" stroke="black" d="M 400 237 204 168"/>
<path stroke-width="1" stroke="black" d="M 400 237 121 20"/>
<path stroke-width="1" stroke="black" d="M 400 237 187 317"/>
<path stroke-width="1" stroke="black" d="M 400 237 159 237"/>
<path stroke-width="1" stroke="black" d="M 400 237 248 70"/>
<path stroke-width="1" stroke="black" d="M 400 237 406 133"/>
<path stroke-width="1" stroke="black" d="M 400 237 162 266"/>
<path stroke-width="1" stroke="black" d="M 400 237 95 92"/>
<path stroke-width="1" stroke="black" d="M 400 237 20 112"/>
<path stroke-width="1" stroke="black" d="M 400 237 377 72"/>
<path stroke-width="1" stroke="black" d="M 400 237 420 165"/>
<path stroke-width="1" stroke="black" d="M 400 237 328 294"/>
<path stroke-width="1" stroke="black" d="M 400 237 399 226"/>
<path stroke-width="1" stroke="black" d="M 400 237 37 236"/>
<path stroke-width="1" stroke="black" d="M 400 237 244 320"/>
<path stroke-width="1" stroke="black" d="M 400 237 283 234"/>
<path stroke-width="1" stroke="black" d="M 400 237 251 29"/>
<path stroke-width="1" stroke="black" d="M 400 237 102 297"/>
<path stroke-width="1" stroke="black" d="M 399 226 37 236"/>
<path stroke-width="1" stroke="black" d="M 399 226 328 294"/>
<path stroke-width="1" stroke="black" d="M 399 226 420 165"/>
<path stroke-width="1" stroke="black" d="M 159 237 20 112"/>
<path stroke-width="1" stroke="black" d="M 159 237 102 297"/>
<path stroke-width="1" stroke="black" d="M 159 237 377 72"/>
<path stroke-width="1" stroke="black" d="M 159 237 420 165"/>
<path stroke-width="1" stroke="black" d="M 159 237 328 294"/>
<path stroke-width="1" stroke="black" d="M 159 237 399 226"/>
<path stroke-width="1" stroke="black" d="M 159 237 37 236"/>
<path stroke-width="1" stroke="black" d="M 159 237 244 320"/>
<path stroke-width="1" stroke="black" d="M 159 237 162 266"/>
<path stroke-width="1" stroke="black" d="M 159 237 283 234"/>
<path stroke-width="1" stroke="black" d="M 159 237 287 32"/>
<path stroke-width="1" stroke="black" d="M 159 237 95 92"/>
<path stroke-width="1" stroke="black" d="M 159 237 34 165"/>
<path stroke-width="1" stroke="black" d="M 159 237 89 92"/>
<path stroke-width="1" stroke="black" d="M 159 237 400 237"/>
<path stroke-width="1" stroke="black" d="M 159 237 419 100"/>
<path stroke-width="1" stroke="black" d="M 159 237 112 26"/>
<path stroke-width="1" stroke="black" d="M 159 237 208 128"/>
<path stroke-width="1" stroke="black" d="M 159 237 251 29"/>
<path stroke-width="1" stroke="black" d="M 159 237 59 228"/>
<path stroke-width="1" stroke="black" d="M 159 237 406 133"/>
<path stroke-width="1" stroke="black" d="M 159 237 187 317"/>
<path stroke-width="1" stroke="black" d="M 187 317 328 294"/>
<path stroke-width="1" stroke="black" d="M 187 317 399 226"/>
<path stroke-width="1" stroke="black" d="M 187 317 37 236"/>
<path stroke-width="1" stroke="black" d="M 187 317 244 320"/>
<path stroke-width="1" stroke="black" d="M 187 317 283 234"/>
<path stroke-width="1" stroke="black" d="M 187 317 251 29"/>
<path stroke-width="1" stroke="black" d="M 187 317 287 32"/>
<path stroke-width="1" stroke="black" d="M 187 317 95 92"/>
<path stroke-width="1" stroke="black" d="M 159 237 248 70"/>
<path stroke-width="1" stroke="black" d="M 187 317 34 165"/>
<path stroke-width="1" stroke="black" d="M 187 317 400 237"/>
<path stroke-width="1" stroke="black" d="M 187 317 419 100"/>
<path stroke-width="1" stroke="black" d="M 187 317 112 26"/>
<path stroke-width="1" stroke="black" d="M 187 317 208 128"/>
<path stroke-width="1" stroke="black" d="M 187 317 59 228"/>
<path stroke-width="1" stroke="black" d="M 159 237 150 176"/>
<path stroke-width="1" stroke="black" d="M 159 237 204 168"/>
<path stroke-width="1" stroke="black" d="M 159 237 121 20"/>
<path stroke-width="1" stroke="black" d="M 187 317 89 92"/>
<path stroke-width="1" stroke="black" d="M 187 317 420 165"/>
<path stroke-width="1" stroke="black" d="M 248 70 150 176"/>
<path stroke-width="1" stroke="black" d="M 248 70 121 20"/>
<path stroke-width="1" stroke="black" d="M 248 70 59 228"/>
<path stroke-width="1" stroke="black" d="M 406 133 150 176"/>
<path stroke-width="1" stroke="black" d="M 406 133 204 168"/>
<path stroke-width="1" stroke="black" d="M 406 133 121 20"/>
<path stroke-width="1" stroke="black" d="M 406 133 187 317"/>
<path stroke-width="1" stroke="black" d="M 406 133 159 237"/>
<path stroke-width="1" stroke="black" d="M 406 133 248 70"/>
<path stroke-width="1" stroke="black" d="M 406 133 162 266"/>
<path stroke-width="1" stroke="black" d="M 248 70 208 128"/>
<path stroke-width="1" stroke="black" d="M 406 133 20 112"/>
<path stroke-width="1" stroke="black" d="M 406 133 377 72"/>
<path stroke-width="1" stroke="black" d="M 406 133 420 165"/>
<path stroke-width="1" stroke="black" d="M 406 133 328 294"/>
<path stroke-width="1" stroke="black" d="M 406 133 399 226"/>
<path stroke-width="1" stroke="black" d="M 406 133 37 236"/>
<path stroke-width="1" stroke="black" d="M 406 133 244 320"/>
<path stroke-width="1" stroke="black" d="M 406 133 283 234"/>
<path stroke-width="1" stroke="black" d="M 406 133 251 29"/>
<path stroke-width="1" stroke="black" d="M 406 133 102 297"/>
<path stroke-width="1" stroke="black" d="M 248 70 204 168"/>
<path stroke-width="1" stroke="black" d="M 248 70 112 26"/>
<path stroke-width="1" stroke="black" d="M 248 70 400 237"/>
<path stroke-width="1" stroke="black" d="M 248 70 187 317"/>
<path stroke-width="1" stroke="black" d="M 248 70 159 237"/>
<path stroke-width="1" stroke="black" d="M 248 70 406 133"/>
<path stroke-width="1" stroke="black" d="M 248 70 162 266"/>
<path stroke-width="1" stroke="black" d="M 248 70 20 112"/>
<path stroke-width="1" stroke="black" d="M 248 70 102 297"/>
<path stroke-width="1" stroke="black" d="M 248 70 377 72"/>
<path stroke-width="1" stroke="black" d="M 248 70 420 165"/>
<path stroke-width="1" stroke="black" d="M 248 70 419 100"/>
<path stroke-width="1" stroke="black" d="M 248 70 328 294"/>
<path stroke-width="1" stroke="black" d="M 248 70 37 236"/>
<path stroke-width="1" stroke="black" d="M 248 70 244 320"/>
<path stroke-width="1" stroke="black" d="M 248 70 283 234"/>
<path stroke-width="1" stroke="black" d="M 248 70 251 29"/>
<path stroke-width="1" stroke="black" d="M 248 70 287 32"/>
<path stroke-width="1" stroke="black" d="M 248 70 95 92"/>
<path stroke-width="1" stroke="black" d="M 248 70 34 165"/>
<path stroke-width="1" stroke="black" d="M 248 70 89 92"/>
<path stroke-width="1" stroke="black" d="M 248 70 399 226"/>
<path stroke-width="1" stroke="black" d="M 406 133 287 32"/>
<path stroke-width="1" stroke="black" d="M 187 317 377 72"/>
<path stroke-width="1" stroke="black" d="M 187 317 20 112"/>
<path stroke-width="1" stroke="black" d="M 150 176 112 26"/>
<path stroke-width="1" stroke="black" d="M 150 176 208 128"/>
<path stroke-width="1" stroke="black" d="M 150 176 59 228"/>
<path stroke-width="1" stroke="black" d="M 204 168 150 176"/>
<path stroke-width="1" stroke="black" d="M 204 168 121 20"/>
<path stroke-width="1" stroke="black" d="M 204 168 187 317"/>
<path stroke-width="1" stroke="black" d="M 204 168 159 237"/>
<path stroke-width="1" stroke="black" d="M 204 168 248 70"/>
<path stroke-width="1" stroke="black" d="M 150 176 419 100"/>
<path stroke-width="1" stroke="black" d="M 204 168 406 133"/>
<path stroke-width="1" stroke="black" d="M 204 168 20 112"/>
<path stroke-width="1" stroke="black" d="M 204 168 102 297"/>
<path stroke-width="1" stroke="black" d="M 204 168 377 72"/>
<path stroke-width="1" stroke="black" d="M 204 168 420 165"/>
<path stroke-width="1" stroke="black" d="M 204 168 328 294"/>
<path stroke-width="1" stroke="black" d="M 204 168 399 226"/>
<path stroke-width="1" stroke="black" d="M 204 168 37 236"/>
<path stroke-width="1" stroke="black" d="M 204 168 244 320"/>
<path stroke-width="1" stroke="black" d="M 204 168 162 266"/>
<path stroke-width="1" stroke="black" d="M 204 168 283 234"/>
<path stroke-width="1" stroke="black" d="M 150 176 400 237"/>
<path stroke-width="1" stroke="black" d="M 150 176 34 165"/>
<path stroke-width="1" stroke="black" d="M 150 176 121 20"/>
<path stroke-width="1" stroke="black" d="M 150 176 187 317"/>
<path stroke-width="1" stroke="black" d="M 150 176 159 237"/>
<path stroke-width="1" stroke="black" d="M 150 176 248 70"/>
<path stroke-width="1" stroke="black" d="M 150 176 406 133"/>
<path stroke-width="1" stroke="black" d="M 150 176 162 266"/>
<path stroke-width="1" stroke="black" d="M 150 176 20 112"/>
<path stroke-width="1" stroke="black" d="M 150 176 102 297"/>
<path stroke-width="1" stroke="black" d="M 150 176 89 92"/>
<path stroke-width="1" stroke="black" d="M 150 176 377 72"/>
<path stroke-width="1" stroke="black" d="M 150 176 328 294"/>
<path stroke-width="1" stroke="black" d="M 150 176 399 226"/>
<path stroke-width="1" stroke="black" d="M 150 176 37 236"/>
<path stroke-width="1" stroke="black" d="M 150 176 244 320"/>
<path stroke-width="1" stroke="black" d="M 150 176 283 234"/>
<path stroke-width="1" stroke="black" d="M 150 176 251 29"/>
<path stroke-width="1" stroke="black" d="M 150 176 287 32"/>
<path stroke-width="1" stroke="black" d="M 150 176 95 92"/>
<path stroke-width="1" stroke="black" d="M 150 176 420 165"/>
<path stroke-width="1" stroke="black" d="M 187 317 102 297"/>
<path stroke-width="1" stroke="black" d="M 204 168 251 29"/>
<path stroke-width="1" stroke="black" d="M 204 168 95 92"/>
<path stroke-width="1" stroke="black" d="M 121 20 283 234"/>
<path stroke-width="1" stroke="black" d="M 121 20 251 29"/>
<path stroke-width="1" stroke="black" d="M 121 20 287 32"/>
<path stroke-width="1" stroke="black" d="M 121 20 95 92"/>
<path stroke-width="1" stroke="black" d="M 121 20 34 165"/>
<path stroke-width="1" stroke="black" d="M 121 20 89 92"/>
<path stroke-width="1" stroke="black" d="M 121 20 400 237"/>
<path stroke-width="1" stroke="black" d="M 121 20 419 100"/>
<path stroke-width="1" stroke="black" d="M 121 20 244 320"/>
<path stroke-width="1" stroke="black" d="M 121 20 112 26"/>
<path stroke-width="1" stroke="black" d="M 121 20 59 228"/>
<path stroke-width="1" stroke="black" d="M 187 317 150 176"/>
<path stroke-width="1" stroke="black" d="M 187 317 204 168"/>
<path stroke-width="1" stroke="black" d="M 187 317 121 20"/>
<path stroke-width="1" stroke="black" d="M 187 317 159 237"/>
<path stroke-width="1" stroke="black" d="M 187 317 248 70"/>
<path stroke-width="1" stroke="black" d="M 187 317 406 133"/>
<path stroke-width="1" stroke="black" d="M 187 317 162 266"/>
<path stroke-width="1" stroke="black" d="M 121 20 208 128"/>
<path stroke-width="1" stroke="black" d="M 204 168 287 32"/>
<path stroke-width="1" stroke="black" d="M 121 20 37 236"/>
<path stroke-width="1" stroke="black" d="M 121 20 328 294"/>
<path stroke-width="1" stroke="black" d="M 204 168 34 165"/>
<path stroke-width="1" stroke="black" d="M 204 168 89 92"/>
<path stroke-width="1" stroke="black" d="M 204 168 400 237"/>
<path stroke-width="1" stroke="black" d="M 204 168 419 100"/>
<path stroke-width="1" stroke="black" d="M 204 168 112 26"/>
<path stroke-width="1" stroke="black" d="M 204 168 208 128"/>
<path stroke-width="1" stroke="black" d="M 204 168 59 228"/>
<path stroke-width="1" stroke="black" d="M 121 20 150 176"/>
<path stroke-width="1" stroke="black" d="M 121 20 399 226"/>
<path stroke-width="1" stroke="black" d="M 121 20 204 168"/>
<path stroke-width="1" stroke="black" d="M 121 20 159 237"/>
<path stroke-width="1" stroke="black" d="M 121 20 248 70"/>
<path stroke-width="1" stroke="black" d="M 121 20 406 133"/>
<path stroke-width="1" stroke="black" d="M 121 20 162 266"/>
<path stroke-width="1" stroke="black" d="M 121 20 20 112"/>
<path stroke-width="1" stroke="black" d="M 121 20 102 297"/>
<path stroke-width="1" stroke="black" d="M 121 20 377 72"/>
<path stroke-width="1" stroke="black" d="M 121 20 420 165"/>
<path stroke-width="1" stroke="black" d="M 121 20 187 317"/>
<path stroke-width="1" stroke="black" d="M 59 228 112 26"/>
<path stroke-width="1" stroke="black" d="M 406 133 95 92"/>
<path stroke-width="1" stroke="black" d="M 406 133 89 92"/>
<path stroke-width="1" stroke="black" d="M 420 165 204 168"/>
<path stroke-width="1" stroke="black" d="M 420 165 121 20"/>
<path stroke-width="1" stroke="black" d="M 420 165 187 317"/>
<path stroke-width="1" stroke="black" d="M 420 165 159 237"/>
<path stroke-width="1" stroke="black" d="M 420 165 248 70"/>
<path stroke-width="1" stroke="black" d="M 420 165 406 133"/>
<path stroke-width="1" stroke="black" d="M 420 165 162 266"/>
<path stroke-width="1" stroke="black" d="M 420 165 20 112"/>
<path stroke-width="1" stroke="black" d="M 420 165 150 176"/>
<path stroke-width="1" stroke="black" d="M 420 165 102 297"/>
<path stroke-width="1" stroke="black" d="M 420 165 328 294"/>
<path stroke-width="1" stroke="black" d="M 420 165 399 226"/>
<path stroke-width="1" stroke="black" d="M 420 165 37 236"/>
<path stroke-width="1" stroke="black" d="M 420 165 244 320"/>
<path stroke-width="1" stroke="black" d="M 420 165 283 234"/>
<path stroke-width="1" stroke="black" d="M 420 165 251 29"/>
<path stroke-width="1" stroke="black" d="M 420 165 287 32"/>
<path stroke-width="1" stroke="black" d="M 420 165 95 92"/>
<path stroke-width="1" stroke="black" d="M 420 165 377 72"/>
<path stroke-width="1" stroke="black" d="M 420 165 34 165"/>
<path stroke-width="1" stroke="black" d="M 377 72 59 228"/>
<path stroke-width="1" stroke="black" d="M 377 72 112 26"/>
<path stroke-width="1" stroke="black" d="M 377 72 248 70"/>
<path stroke-width="1" stroke="black" d="M 377 72 406 133"/>
<path stroke-width="1" stroke="black" d="M 377 72 162 266"/>
<path stroke-width="1" stroke="black" d="M 377 72 20 112"/>
<path stroke-width="1" stroke="black" d="M 377 72 102 297"/>
<path stroke-width="1" stroke="black" d="M 377 72 420 165"/>
<path stroke-width="1" stroke="black" d="M 377 72 328 294"/>
<path stroke-width="1" stroke="black" d="M 377 72 399 226"/>
<path stroke-width="1" stroke="black" d="M 377 72 208 128"/>
<path stroke-width="1" stroke="black" d="M 377 72 37 236"/>
<path stroke-width="1" stroke="black" d="M 377 72 283 234"/>
<path stroke-width="1" stroke="black" d="M 377 72 251 29"/>
<path stroke-width="1" stroke="black" d="M 377 72 287 32"/>
<path stroke-width="1" stroke="black" d="M 377 72 95 92"/>
<path stroke-width="1" stroke="black" d="M 377 72 34 165"/>
<path stroke-width="1" stroke="black" d="M 377 72 89 92"/>
<path stroke-width="1" stroke="black" d="M 377 72 400 237"/>
<path stroke-width="1" stroke="black" d="M 377 72 419 100"/>
<path stroke-width="1" stroke="black" d="M 377 72 244 320"/>
<path stroke-width="1" stroke="black" d="M 377 72 159 237"/>
<path stroke-width="1" stroke="black" d="M 420 165 89 92"/>
<path stroke-width="1" stroke="black" d="M 420 165 419 100"/>
<path stroke-width="1" stroke="black" d="M 328 294 34 165"/>
<path stroke-width="1" stroke="black" d="M 328 294 89 92"/>
<path stroke-width="1" stroke="black" d="M 328 294 400 237"/>
<path stroke-width="1" stroke="black" d="M 328 294 419 100"/>
<path stroke-width="1" stroke="black" d="M 328 294 112 26"/>
<path stroke-width="1" stroke="black" d="M 328 294 208 128"/>
<path stroke-width="1" stroke="black" d="M 328 294 59 228"/>
<path stroke-width="1" stroke="black" d="M 399 226 150 176"/>
<path stroke-width="1" stroke="black" d="M 328 294 95 92"/>
<path stroke-width="1" stroke="black" d="M 399 226 204 168"/>
<path stroke-width="1" stroke="black" d="M 399 226 187 317"/>
<path stroke-width="1" stroke="black" d="M 399 226 159 237"/>
<path stroke-width="1" stroke="black" d="M 399 226 248 70"/>
<path stroke-width="1" stroke="black" d="M 399 226 406 133"/>
<path stroke-width="1" stroke="black" d="M 399 226 162 266"/>
<path stroke-width="1" stroke="black" d="M 399 226 20 112"/>
<path stroke-width="1" stroke="black" d="M 399 226 102 297"/>
<path stroke-width="1" stroke="black" d="M 399 226 377 72"/>
<path stroke-width="1" stroke="black" d="M 399 226 121 20"/>
<path stroke-width="1" stroke="black" d="M 420 165 400 237"/>
<path stroke-width="1" stroke="black" d="M 328 294 287 32"/>
<path stroke-width="1" stroke="black" d="M 328 294 283 234"/>
<path stroke-width="1" stroke="black" d="M 420 165 112 26"/>
<path stroke-width="1" stroke="black" d="M 420 165 208 128"/>
<path stroke-width="1" stroke="black" d="M 420 165 59 228"/>
<path stroke-width="1" stroke="black" d="M 328 294 150 176"/>
<path stroke-width="1" stroke="black" d="M 328 294 204 168"/>
<path stroke-width="1" stroke="black" d="M 328 294 121 20"/>
<path stroke-width="1" stroke="black" d="M 328 294 187 317"/>
<path stroke-width="1" stroke="black" d="M 328 294 159 237"/>
<path stroke-width="1" stroke="black" d="M 328 294 251 29"/>
<path stroke-width="1" stroke="black" d="M 328 294 248 70"/>
<path stroke-width="1" stroke="black" d="M 328 294 162 266"/>
<path stroke-width="1" stroke="black" d="M 328 294 20 112"/>
<path stroke-width="1" stroke="black" d="M 328 294 102 297"/>
<path stroke-width="1" stroke="black" d="M 328 294 377 72"/>
<path stroke-width="1" stroke="black" d="M 328 294 420 165"/>
<path stroke-width="1" stroke="black" d="M 328 294 399 226"/>
<path stroke-width="1" stroke="black" d="M 328 294 37 236"/>
<path stroke-width="1" stroke="black" d="M 328 294 244 320"/>
<path stroke-width="1" stroke="black" d="M 328 294 406 133"/>
<path stroke-width="1" stroke="black" d="M 406 133 34 165"/>
<path stroke-width="1" stroke="black" d="M 377 72 187 317"/>
<path stroke-width="1" stroke="black" d="M 377 72 204 168"/>
<path stroke-width="1" stroke="black" d="M 162 266 287 32"/>
<path stroke-width="1" stroke="black" d="M 162 266 95 92"/>
<path stroke-width="1" stroke="black" d="M 162 266 34 165"/>
<path stroke-width="1" stroke="black" d="M 162 266 89 92"/>
<path stroke-width="1" stroke="black" d="M 162 266 400 237"/>
<path stroke-width="1" stroke="black" d="M 162 266 419 100"/>
<path stroke-width="1" stroke="black" d="M 162 266 112 26"/>
<path stroke-width="1" stroke="black" d="M 162 266 208 128"/>
<path stroke-width="1" stroke="black" d="M 162 266 251 29"/>
<path stroke-width="1" stroke="black" d="M 162 266 59 228"/>
<path stroke-width="1" stroke="black" d="M 20 112 204 168"/>
<path stroke-width="1" stroke="black" d="M 20 112 121 20"/>
<path stroke-width="1" stroke="black" d="M 20 112 187 317"/>
<path stroke-width="1" stroke="black" d="M 20 112 159 237"/>
<path stroke-width="1" stroke="black" d="M 20 112 248 70"/>
<path stroke-width="1" stroke="black" d="M 20 112 406 133"/>
<path stroke-width="1" stroke="black" d="M 20 112 162 266"/>
<path stroke-width="1" stroke="black" d="M 20 112 102 297"/>
<path stroke-width="1" stroke="black" d="M 20 112 150 176"/>
<path stroke-width="1" stroke="black" d="M 20 112 377 72"/>
<path stroke-width="1" stroke="black" d="M 162 266 283 234"/>
<path stroke-width="1" stroke="black" d="M 162 266 37 236"/>
<path stroke-width="1" stroke="black" d="M 406 133 400 237"/>
<path stroke-width="1" stroke="black" d="M 406 133 419 100"/>
<path stroke-width="1" stroke="black" d="M 406 133 112 26"/>
<path stroke-width="1" stroke="black" d="M 406 133 208 128"/>
<path stroke-width="1" stroke="black" d="M 406 133 59 228"/>
<path stroke-width="1" stroke="black" d="M 162 266 150 176"/>
<path stroke-width="1" stroke="black" d="M 162 266 204 168"/>
<path stroke-width="1" stroke="black" d="M 162 266 121 20"/>
<path stroke-width="1" stroke="black" d="M 162 266 244 320"/>
<path stroke-width="1" stroke="black" d="M 162 266 187 317"/>
<path stroke-width="1" stroke="black" d="M 162 266 248 70"/>
<path stroke-width="1" stroke="black" d="M 162 266 406 133"/>
<path stroke-width="1" stroke="black" d="M 162 266 20 112"/>
<path stroke-width="1" stroke="black" d="M 162 266 102 297"/>
<path stroke-width="1" stroke="black" d="M 162 266 377 72"/>
<path stroke-width="1" stroke="black" d="M 162 266 420 165"/>
<path stroke-width="1" stroke="black" d="M 162 266 328 294"/>
<path stroke-width="1" stroke="black" d="M 162 266 399 226"/>
<path stroke-width="1" stroke="black" d="M 162 266 159 237"/>
<path stroke-width="1" stroke="black" d="M 377 72 121 20"/>
<path stroke-width="1" stroke="black" d="M 20 112 420 165"/>
<path stroke-width="1" stroke="black" d="M 20 112 399 226"/>
<path stroke-width="1" stroke="black" d="M 102 297 377 72"/>
<path stroke-width="1" stroke="black" d="M 102 297 420 165"/>
<path stroke-width="1" stroke="black" d="M 102 297 328 294"/>
<path stroke-width="1" stroke="black" d="M 102 297 399 226"/>
<path stroke-width="1" stroke="black" d="M 102 297 37 236"/>
<path stroke-width="1" stroke="black" d="M 102 297 244 320"/>
<path stroke-width="1" stroke="black" d="M 102 297 283 234"/>
<path stroke-width="1" stroke="black" d="M 102 297 251 29"/>
<path stroke-width="1" stroke="black" d="M 102 297 20 112"/>
<path stroke-width="1" stroke="black" d="M 102 297 287 32"/>
<path stroke-width="1" stroke="black" d="M 102 297 34 165"/>
<path stroke-width="1" stroke="black" d="M 102 297 89 92"/>
<path stroke-width="1" stroke="black" d="M 102 297 400 237"/>
<path stroke-width="1" stroke="black" d="M 102 297 419 100"/>
<path stroke-width="1" stroke="black" d="M 102 297 112 26"/>
<path stroke-width="1" stroke="black" d="M 102 297 208 128"/>
<path stroke-width="1" stroke="black" d="M 102 297 59 228"/>
<path stroke-width="1" stroke="black" d="M 377 72 150 176"/>
<path stroke-width="1" stroke="black" d="M 102 297 95 92"/>
<path stroke-width="1" stroke="black" d="M 20 112 328 294"/>
<path stroke-width="1" stroke="black" d="M 102 297 162 266"/>
<path stroke-width="1" stroke="black" d="M 102 297 248 70"/>
<path stroke-width="1" stroke="black" d="M 20 112 37 236"/>
<path stroke-width="1" stroke="black" d="M 20 112 244 320"/>
<path stroke-width="1" stroke="black" d="M 20 112 283 234"/>
<path stroke-width="1" stroke="black" d="M 20 112 251 29"/>
<path stroke-width="1" stroke="black" d="M 20 112 287 32"/>
<path stroke-width="1" stroke="black" d="M 20 112 95 92"/>
<path stroke-width="1" stroke="black" d="M 20 112 34 165"/>
<path stroke-width="1" stroke="black" d="M 20 112 89 92"/>
<path stroke-width="1" stroke="black" d="M 102 297 406 133"/>
<path stroke-width="1" stroke="black" d="M 20 112 400 237"/>
<path stroke-width="1" stroke="black" d="M 20 112 112 26"/>
<path stroke-width="1" stroke="black" d="M 20 112 208 128"/>
<path stroke-width="1" stroke="black" d="M 20 112 59 228"/>
<path stroke-width="1" stroke="black" d="M 102 297 150 176"/>
<path stroke-width="1" stroke="black" d="M 102 297 204 168"/>
<path stroke-width="1" stroke="black" d="M 102 297 121 20"/>
<path stroke-width="1" stroke="black" d="M 102 297 187 317"/>
<path stroke-width="1" stroke="black" d="M 102 297 159 237"/>
<path stroke-width="1" stroke="black" d="M 20 112 419 100"/>
<path stroke-width="1" stroke="black" d="M 59 228 208 128"/>
<circle cx="150" cy="176" r="7.0" style="fill:gray;stroke:black;stroke-width:1.0"/>
<circle cx="204" cy="168" r="7.0" style="fill:gray;stroke:black;stroke-width:1.0"/>
<circle cx="121" cy="20" r="7.0" style="fill:gray;stroke:black;stroke-width:1.0"/>
<circle cx="187" cy="317" r="7.0" style="fill:gray;stroke:black;stroke-width:1.0"/>
<circle cx="159" cy="237" r="7.0" style="fill:gray;stroke:black;stroke-width:1.0"/>
<circle cx="248" cy="70" r="7.0" style="fill:gray;stroke:black;stroke-width:1.0"/>
<circle cx="406" cy="133" r="7.0" style="fill:gray;stroke:black;stroke-width:1.0"/>
<circle cx="162" cy="266" r="7.0" style="fill:gray;stroke:black;stroke-width:1.0"/>
<circle cx="20" cy="112" r="7.0" style="fill:gray;stroke:black;stroke-width:1.0"/>
<circle cx="102" cy="297" r="7.0" style="fill:gray;stroke:black;stroke-width:1.0"/>
<circle cx="377" cy="72" r="7.0" style="fill:gray;stroke:black;stroke-width:1.0"/>
<circle cx="420" cy="165" r="7.0" style="fill:gray;stroke:black;stroke-width:1.0"/>
<circle cx="328" cy="294" r="7.0" style="fill:gray;stroke:black;stroke-width:1.0"/>
<circle cx="399" cy="226" r="7.0" style="fill:gray;stroke:black;stroke-width:1.0"/>
<circle cx="37" cy="236" r="7.0" style="fill:gray;stroke:black;stroke-width:1.0"/>
<circle cx="244" cy="320" r="7.0" style="fill:gray;stroke:black;stroke-width:1.0"/>
<circle cx="283" cy="234" r="7.0" style="fill:gray;stroke:black;stroke-width:1.0"/>
<circle cx="251" cy="29" r="7.0" style="fill:gray;stroke:black;stroke-width:1.0"/>
<circle cx="287" cy="32" r="7.0" style="fill:gray;stroke:black;stroke-width:1.0"/>
<circle cx="95" cy="92" r="7.0" style="fill:gray;stroke:black;stroke-width:1.0"/>
<circle cx="34" cy="165" r="7.0" style="fill:gray;stroke:black;stroke-width:1.0"/>
<circle cx="89" cy="92" r="7.0" style="fill:gray;stroke:black;stroke-width:1.0"/>
<circle cx="400" cy="237" r="7.0" style="fill:gray;stroke:black;stroke-width:1.0"/>
<circle cx="419" cy="100" r="7.0" style="fill:gray;stroke:black;stroke-width:1.0"/>
<circle cx="112" cy="26" r="7.0" style="fill:gray;stroke:black;stroke-width:1.0"/>
<circle cx="208" cy="128" r="7.0" style="fill:gray;stroke:black;stroke-width:1.0"/>
<circle cx="59" cy="228" r="7.0" style="fill:gray;stroke:black;stroke-width:1.0"/>
</svg>
