<svg width="440" height="340" xmlns="http://www.w3.org/2000/svg">
<path stroke-width="20.0" stroke="black" d="M 222 245 206 166"/>
<path stroke-width="0.5" stroke="black" d="M 305 312 118 283"/>
<path stroke-width="0.5" stroke="black" d="M 305 312 20 191"/>
<path stroke-width="0.5" stroke="black" d="M 305 312 49 109"/>
<path stroke-width="0.5" stroke="black" d="M 305 312 161 320"/>
<path stroke-width="0.5" stroke="black" d="M 305 312 284 143"/>
<path stroke-width="8.857142857142858" stroke="black" d="M 420 118 222 245"/>
<path stroke-width="3.2857142857142856" stroke="black" d="M 420 118 206 166"/>
<path stroke-width="0.5" stroke="black" d="M 420 118 37 240"/>
<path stroke-width="0.5" stroke="black" d="M 420 118 98 173"/>
<path stroke-width="0.5" stroke="black" d="M 420 118 149 50"/>
<path stroke-width="4.678571428571429" stroke="black" d="M 420 118 239 153"/>
<path stroke-width="0.5" stroke="black" d="M 420 118 406 251"/>
<path stroke-width="0.5" stroke="black" d="M 420 118 299 20"/>
<path stroke-width="0.5" stroke="black" d="M 420 118 193 224"/>
<path stroke-width="0.5" stroke="black" d="M 420 118 142 307"/>
<path stroke-width="0.5" stroke="black" d="M 420 118 301 313"/>
<path stroke-width="0.5" stroke="black" d="M 420 118 107 154"/>
<path stroke-width="0.5" stroke="black" d="M 305 312 287 29"/>
<path stroke-width="0.5" stroke="black" d="M 305 312 261 315"/>
<path stroke-width="0.5" stroke="black" d="M 305 312 54 107"/>
<path stroke-width="0.5" stroke="black" d="M 305 312 420 118"/>
<path stroke-width="4.678571428571429" stroke="black" d="M 156 56 284 143"/>
<path stroke-width="8.857142857142858" stroke="black" d="M 305 312 222 245"/>
<path stroke-width="3.2857142857142856" stroke="black" d="M 305 312 206 166"/>
<path stroke-width="0.5" stroke="black" d="M 305 312 37 240"/>
<path stroke-width="0.5" stroke="black" d="M 305 312 98 173"/>
<path stroke-width="0.5" stroke="black" d="M 305 312 149 50"/>
<path stroke-width="0.5" stroke="black" d="M 305 312 239 153"/>
<path stroke-width="4.678571428571429" stroke="black" d="M 305 312 406 251"/>
<path stroke-width="0.5" stroke="black" d="M 420 118 374 242"/>
<path stroke-width="0.5" stroke="black" d="M 305 312 299 20"/>
<path stroke-width="0.5" stroke="black" d="M 305 312 142 307"/>
<path stroke-width="0.5" stroke="black" d="M 305 312 301 313"/>
<path stroke-width="0.5" stroke="black" d="M 305 312 107 154"/>
<path stroke-width="0.5" stroke="black" d="M 305 312 374 242"/>
<path stroke-width="0.5" stroke="black" d="M 305 312 397 254"/>
<path stroke-width="0.5" stroke="black" d="M 305 312 273 34"/>
<path stroke-width="0.5" stroke="black" d="M 305 312 419 108"/>
<path stroke-width="0.5" stroke="black" d="M 305 312 156 56"/>
<path stroke-width="0.5" stroke="black" d="M 305 312 193 224"/>
<path stroke-width="0.5" stroke="black" d="M 420 118 397 254"/>
<path stroke-width="0.5" stroke="black" d="M 420 118 273 34"/>
<path stroke-width="0.5" stroke="black" d="M 420 118 419 108"/>
<path stroke-width="0.5" stroke="black" d="M 54 107 374 242"/>
<path stroke-width="0.5" stroke="black" d="M 54 107 397 254"/>
<path stroke-width="0.5" stroke="black" d="M 54 107 273 34"/>
<path stroke-width="0.5" stroke="black" d="M 54 107 419 108"/>
<path stroke-width="0.5" stroke="black" d="M 54 107 156 56"/>
<path stroke-width="0.5" stroke="black" d="M 54 107 305 312"/>
<path stroke-width="0.5" stroke="black" d="M 54 107 420 118"/>
<path stroke-width="0.5" stroke="black" d="M 54 107 261 315"/>
<path stroke-width="0.5" stroke="black" d="M 54 107 107 154"/>
<path stroke-width="0.5" stroke="black" d="M 54 107 287 29"/>
<path stroke-width="0.5" stroke="black" d="M 54 107 20 191"/>
<path stroke-width="0.5" stroke="black" d="M 54 107 49 109"/>
<path stroke-width="0.5" stroke="black" d="M 54 107 161 320"/>
<path stroke-width="0.5" stroke="black" d="M 54 107 284 143"/>
<path stroke-width="8.857142857142858" stroke="black" d="M 261 315 222 245"/>
<path stroke-width="3.2857142857142856" stroke="black" d="M 261 315 206 166"/>
<path stroke-width="0.5" stroke="black" d="M 261 315 37 240"/>
<path stroke-width="4.678571428571429" stroke="black" d="M 261 315 98 173"/>
<path stroke-width="0.5" stroke="black" d="M 54 107 118 283"/>
<path stroke-width="0.5" stroke="black" d="M 156 56 161 320"/>
<path stroke-width="0.5" stroke="black" d="M 54 107 301 313"/>
<path stroke-width="0.5" stroke="black" d="M 54 107 193 224"/>
<path stroke-width="0.5" stroke="black" d="M 420 118 156 56"/>
<path stroke-width="0.5" stroke="black" d="M 420 118 305 312"/>
<path stroke-width="0.5" stroke="black" d="M 420 118 54 107"/>
<path stroke-width="0.5" stroke="black" d="M 420 118 261 315"/>
<path stroke-width="0.5" stroke="black" d="M 420 118 287 29"/>
<path stroke-width="0.5" stroke="black" d="M 420 118 118 283"/>
<path stroke-width="0.5" stroke="black" d="M 420 118 20 191"/>
<path stroke-width="0.5" stroke="black" d="M 420 118 49 109"/>
<path stroke-width="0.5" stroke="black" d="M 54 107 142 307"/>
<path stroke-width="0.5" stroke="black" d="M 420 118 161 320"/>
<path stroke-width="8.857142857142858" stroke="black" d="M 54 107 222 245"/>
<path stroke-width="3.2857142857142856" stroke="black" d="M 54 107 206 166"/>
<path stroke-width="0.5" stroke="black" d="M 54 107 37 240"/>
<path stroke-width="0.5" stroke="black" d="M 54 107 98 173"/>
<path stroke-width="4.678571428571429" stroke="black" d="M 54 107 149 50"/>
<path stroke-width="0.5" stroke="black" d="M 54 107 239 153"/>
<path stroke-width="0.5" stroke="black" d="M 54 107 406 251"/>
<path stroke-width="0.5" stroke="black" d="M 54 107 299 20"/>
<path stroke-width="0.5" stroke="black" d="M 420 118 284 143"/>
<path stroke-width="0.5" stroke="black" d="M 156 56 49 109"/>
<path stroke-width="0.5" stroke="black" d="M 156 56 20 191"/>
<path stroke-width="0.5" stroke="black" d="M 156 56 118 283"/>
<path stroke-width="0.5" stroke="black" d="M 273 34 107 154"/>
<path stroke-width="0.5" stroke="black" d="M 273 34 374 242"/>
<path stroke-width="0.5" stroke="black" d="M 273 34 397 254"/>
<path stroke-width="0.5" stroke="black" d="M 273 34 419 108"/>
<path stroke-width="0.5" stroke="black" d="M 273 34 156 56"/>
<path stroke-width="0.5" stroke="black" d="M 273 34 305 312"/>
<path stroke-width="0.5" stroke="black" d="M 273 34 420 118"/>
<path stroke-width="0.5" stroke="black" d="M 273 34 54 107"/>
<path stroke-width="0.5" stroke="black" d="M 273 34 301 313"/>
<path stroke-width="0.5" stroke="black" d="M 273 34 261 315"/>
<path stroke-width="0.5" stroke="black" d="M 273 34 118 283"/>
<path stroke-width="0.5" stroke="black" d="M 273 34 20 191"/>
<path stroke-width="0.5" stroke="black" d="M 273 34 49 109"/>
<path stroke-width="0.5" stroke="black" d="M 273 34 161 320"/>
<path stroke-width="0.5" stroke="black" d="M 273 34 284 143"/>
<path stroke-width="8.857142857142858" stroke="black" d="M 419 108 222 245"/>
<path stroke-width="3.2857142857142856" stroke="black" d="M 419 108 206 166"/>
<path stroke-width="0.5" stroke="black" d="M 419 108 37 240"/>
<path stroke-width="0.5" stroke="black" d="M 273 34 287 29"/>
<path stroke-width="0.5" stroke="black" d="M 419 108 98 173"/>
<path stroke-width="0.5" stroke="black" d="M 273 34 142 307"/>
<path stroke-width="0.5" stroke="black" d="M 273 34 299 20"/>
<path stroke-width="0.5" stroke="black" d="M 397 254 156 56"/>
<path stroke-width="0.5" stroke="black" d="M 397 254 305 312"/>
<path stroke-width="0.5" stroke="black" d="M 397 254 420 118"/>
<path stroke-width="0.5" stroke="black" d="M 397 254 54 107"/>
<path stroke-width="0.5" stroke="black" d="M 397 254 261 315"/>
<path stroke-width="0.5" stroke="black" d="M 397 254 287 29"/>
<path stroke-width="0.5" stroke="black" d="M 397 254 118 283"/>
<path stroke-width="0.5" stroke="black" d="M 397 254 20 191"/>
<path stroke-width="4.678571428571429" stroke="black" d="M 273 34 193 224"/>
<path stroke-width="0.5" stroke="black" d="M 397 254 49 109"/>
<path stroke-width="0.5" stroke="black" d="M 397 254 284 143"/>
<path stroke-width="8.857142857142858" stroke="black" d="M 273 34 222 245"/>
<path stroke-width="3.2857142857142856" stroke="black" d="M 273 34 206 166"/>
<path stroke-width="0.5" stroke="black" d="M 273 34 37 240"/>
<path stroke-width="0.5" stroke="black" d="M 273 34 98 173"/>
<path stroke-width="0.5" stroke="black" d="M 273 34 149 50"/>
<path stroke-width="0.5" stroke="black" d="M 273 34 239 153"/>
<path stroke-width="0.5" stroke="black" d="M 273 34 406 251"/>
<path stroke-width="0.5" stroke="black" d="M 397 254 161 320"/>
<path stroke-width="0.5" stroke="black" d="M 261 315 149 50"/>
<path stroke-width="0.5" stroke="black" d="M 419 108 149 50"/>
<path stroke-width="0.5" stroke="black" d="M 419 108 406 251"/>
<path stroke-width="0.5" stroke="black" d="M 156 56 98 173"/>
<path stroke-width="0.5" stroke="black" d="M 156 56 149 50"/>
<path stroke-width="0.5" stroke="black" d="M 156 56 239 153"/>
<path stroke-width="0.5" stroke="black" d="M 156 56 406 251"/>
<path stroke-width="0.5" stroke="black" d="M 156 56 299 20"/>
<path stroke-width="0.5" stroke="black" d="M 156 56 193 224"/>
<path stroke-width="0.5" stroke="black" d="M 156 56 142 307"/>
<path stroke-width="0.5" stroke="black" d="M 156 56 301 313"/>
<path stroke-width="0.5" stroke="black" d="M 156 56 37 240"/>
<path stroke-width="0.5" stroke="black" d="M 156 56 107 154"/>
<path stroke-width="0.5" stroke="black" d="M 156 56 397 254"/>
<path stroke-width="0.5" stroke="black" d="M 156 56 273 34"/>
<path stroke-width="0.5" stroke="black" d="M 156 56 419 108"/>
<path stroke-width="0.5" stroke="black" d="M 156 56 305 312"/>
<path stroke-width="0.5" stroke="black" d="M 156 56 420 118"/>
<path stroke-width="0.5" stroke="black" d="M 156 56 54 107"/>
<path stroke-width="0.5" stroke="black" d="M 156 56 261 315"/>
<path stroke-width="0.5" stroke="black" d="M 156 56 287 29"/>
<path stroke-width="0.5" stroke="black" d="M 156 56 374 242"/>
<path stroke-width="0.5" stroke="black" d="M 419 108 239 153"/>
<path stroke-width="3.2857142857142856" stroke="black" d="M 156 56 206 166"/>
<path stroke-width="0.5" stroke="black" d="M 419 108 284 143"/>
<path stroke-width="4.678571428571429" stroke="black" d="M 419 108 299 20"/>
<path stroke-width="0.5" stroke="black" d="M 419 108 193 224"/>
<path stroke-width="0.5" stroke="black" d="M 419 108 142 307"/>
<path stroke-width="0.5" stroke="black" d="M 419 108 301 313"/>
<path stroke-width="0.5" stroke="black" d="M 419 108 107 154"/>
<path stroke-width="0.5" stroke="black" d="M 419 108 374 242"/>
<path stroke-width="0.5" stroke="black" d="M 419 108 397 254"/>
<path stroke-width="0.5" stroke="black" d="M 419 108 273 34"/>
<path stroke-width="8.857142857142858" stroke="black" d="M 156 56 222 245"/>
<path stroke-width="0.5" stroke="black" d="M 419 108 156 56"/>
<path stroke-width="0.5" stroke="black" d="M 419 108 420 118"/>
<path stroke-width="0.5" stroke="black" d="M 419 108 54 107"/>
<path stroke-width="0.5" stroke="black" d="M 419 108 261 315"/>
<path stroke-width="0.5" stroke="black" d="M 419 108 287 29"/>
<path stroke-width="0.5" stroke="black" d="M 419 108 118 283"/>
<path stroke-width="0.5" stroke="black" d="M 419 108 20 191"/>
<path stroke-width="0.5" stroke="black" d="M 419 108 49 109"/>
<path stroke-width="0.5" stroke="black" d="M 419 108 161 320"/>
<path stroke-width="0.5" stroke="black" d="M 419 108 305 312"/>
<path stroke-width="0.5" stroke="black" d="M 261 315 239 153"/>
<path stroke-width="0.5" stroke="black" d="M 261 315 406 251"/>
<path stroke-width="0.5" stroke="black" d="M 261 315 299 20"/>
<path stroke-width="0.5" stroke="black" d="M 49 109 273 34"/>
<path stroke-width="0.5" stroke="black" d="M 49 109 419 108"/>
<path stroke-width="0.5" stroke="black" d="M 49 109 156 56"/>
<path stroke-width="0.5" stroke="black" d="M 49 109 305 312"/>
<path stroke-width="0.5" stroke="black" d="M 49 109 420 118"/>
<path stroke-width="0.5" stroke="black" d="M 49 109 54 107"/>
<path stroke-width="0.5" stroke="black" d="M 49 109 261 315"/>
<path stroke-width="0.5" stroke="black" d="M 49 109 287 29"/>
<path stroke-width="0.5" stroke="black" d="M 49 109 397 254"/>
<path stroke-width="0.5" stroke="black" d="M 49 109 118 283"/>
<path stroke-width="0.5" stroke="black" d="M 49 109 161 320"/>
<path stroke-width="0.5" stroke="black" d="M 49 109 284 143"/>
<path stroke-width="8.857142857142858" stroke="black" d="M 161 320 222 245"/>
<path stroke-width="3.2857142857142856" stroke="black" d="M 161 320 206 166"/>
<path stroke-width="0.5" stroke="black" d="M 161 320 37 240"/>
<path stroke-width="0.5" stroke="black" d="M 161 320 98 173"/>
<path stroke-width="0.5" stroke="black" d="M 161 320 149 50"/>
<path stroke-width="0.5" stroke="black" d="M 161 320 239 153"/>
<path stroke-width="0.5" stroke="black" d="M 49 109 20 191"/>
<path stroke-width="0.5" stroke="black" d="M 161 320 406 251"/>
<path stroke-width="0.5" stroke="black" d="M 49 109 374 242"/>
<path stroke-width="0.5" stroke="black" d="M 49 109 301 313"/>
<path stroke-width="0.5" stroke="black" d="M 20 191 420 118"/>
<path stroke-width="0.5" stroke="black" d="M 20 191 54 107"/>
<path stroke-width="0.5" stroke="black" d="M 20 191 261 315"/>
<path stroke-width="0.5" stroke="black" d="M 20 191 287 29"/>
<path stroke-width="0.5" stroke="black" d="M 20 191 118 283"/>
<path stroke-width="0.5" stroke="black" d="M 20 191 49 109"/>
<path stroke-width="0.5" stroke="black" d="M 20 191 161 320"/>
<path stroke-width="0.5" stroke="black" d="M 20 191 284 143"/>
<path stroke-width="0.5" stroke="black" d="M 49 109 107 154"/>
<path stroke-width="7.464285714285714" stroke="black" d="M 49 109 222 245"/>
<path stroke-width="0.5" stroke="black" d="M 49 109 37 240"/>
<path stroke-width="0.5" stroke="black" d="M 49 109 98 173"/>
<path stroke-width="0.5" stroke="black" d="M 49 109 149 50"/>
<path stroke-width="0.5" stroke="black" d="M 49 109 239 153"/>
<path stroke-width="0.5" stroke="black" d="M 49 109 406 251"/>
<path stroke-width="0.5" stroke="black" d="M 49 109 299 20"/>
<path stroke-width="0.5" stroke="black" d="M 49 109 193 224"/>
<path stroke-width="0.5" stroke="black" d="M 49 109 142 307"/>
<path stroke-width="3.2857142857142856" stroke="black" d="M 49 109 206 166"/>
<path stroke-width="0.5" stroke="black" d="M 20 191 305 312"/>
<path stroke-width="0.5" stroke="black" d="M 161 320 299 20"/>
<path stroke-width="4.678571428571429" stroke="black" d="M 161 320 142 307"/>
<path stroke-width="0.5" stroke="black" d="M 284 143 406 251"/>
<path stroke-width="0.5" stroke="black" d="M 284 143 299 20"/>
<path stroke-width="0.5" stroke="black" d="M 284 143 193 224"/>
<path stroke-width="0.5" stroke="black" d="M 284 143 142 307"/>
<path stroke-width="0.5" stroke="black" d="M 284 143 301 313"/>
<path stroke-width="0.5" stroke="black" d="M 284 143 107 154"/>
<path stroke-width="0.5" stroke="black" d="M 284 143 374 242"/>
<path stroke-width="0.5" stroke="black" d="M 284 143 397 254"/>
<path stroke-width="0.5" stroke="black" d="M 284 143 239 153"/>
<path stroke-width="0.5" stroke="black" d="M 284 143 273 34"/>
<path stroke-width="4.678571428571429" stroke="black" d="M 284 143 156 56"/>
<path stroke-width="0.5" stroke="black" d="M 284 143 305 312"/>
<path stroke-width="0.5" stroke="black" d="M 284 143 420 118"/>
<path stroke-width="0.5" stroke="black" d="M 284 143 54 107"/>
<path stroke-width="0.5" stroke="black" d="M 284 143 261 315"/>
<path stroke-width="0.5" stroke="black" d="M 284 143 287 29"/>
<path stroke-width="0.5" stroke="black" d="M 284 143 118 283"/>
<path stroke-width="0.5" stroke="black" d="M 284 143 20 191"/>
<path stroke-width="0.5" stroke="black" d="M 284 143 419 108"/>
<path stroke-width="0.5" stroke="black" d="M 161 320 193 224"/>
<path stroke-width="0.5" stroke="black" d="M 284 143 149 50"/>
<path stroke-width="0.5" stroke="black" d="M 284 143 37 240"/>
<path stroke-width="0.5" stroke="black" d="M 161 320 301 313"/>
<path stroke-width="0.5" stroke="black" d="M 161 320 107 154"/>
<path stroke-width="0.5" stroke="black" d="M 161 320 374 242"/>
<path stroke-width="0.5" stroke="black" d="M 161 320 397 254"/>
<path stroke-width="0.5" stroke="black" d="M 161 320 273 34"/>
<path stroke-width="0.5" stroke="black" d="M 161 320 419 108"/>
<path stroke-width="0.5" stroke="black" d="M 161 320 156 56"/>
<path stroke-width="0.5" stroke="black" d="M 161 320 305 312"/>
<path stroke-width="0.5" stroke="black" d="M 284 143 98 173"/>
<path stroke-width="0.5" stroke="black" d="M 161 320 420 118"/>
<path stroke-width="0.5" stroke="black" d="M 161 320 261 315"/>
<path stroke-width="0.5" stroke="black" d="M 161 320 287 29"/>
<path stroke-width="0.5" stroke="black" d="M 161 320 118 283"/>
<path stroke-width="0.5" stroke="black" d="M 161 320 20 191"/>
<path stroke-width="0.5" stroke="black" d="M 161 320 49 109"/>
<path stroke-width="0.5" stroke="black" d="M 161 320 284 143"/>
<path stroke-width="8.857142857142858" stroke="black" d="M 284 143 222 245"/>
<path stroke-width="3.2857142857142856" stroke="black" d="M 284 143 206 166"/>
<path stroke-width="0.5" stroke="black" d="M 161 320 54 107"/>
<path stroke-width="0.5" stroke="black" d="M 397 254 419 108"/>
<path stroke-width="0.5" stroke="black" d="M 20 191 156 56"/>
<path stroke-width="0.5" stroke="black" d="M 20 191 273 34"/>
<path stroke-width="0.5" stroke="black" d="M 287 29 149 50"/>
<path stroke-width="0.5" stroke="black" d="M 287 29 239 153"/>
<path stroke-width="0.5" stroke="black" d="M 287 29 406 251"/>
<path stroke-width="0.5" stroke="black" d="M 287 29 299 20"/>
<path stroke-width="0.5" stroke="black" d="M 287 29 193 224"/>
<path stroke-width="0.5" stroke="black" d="M 287 29 142 307"/>
<path stroke-width="0.5" stroke="black" d="M 287 29 301 313"/>
<path stroke-width="0.5" stroke="black" d="M 287 29 107 154"/>
<path stroke-width="0.5" stroke="black" d="M 287 29 98 173"/>
<path stroke-width="0.5" stroke="black" d="M 287 29 374 242"/>
<path stroke-width="0.5" stroke="black" d="M 287 29 273 34"/>
<path stroke-width="0.5" stroke="black" d="M 287 29 419 108"/>
<path stroke-width="0.5" stroke="black" d="M 287 29 156 56"/>
<path stroke-width="0.5" stroke="black" d="M 287 29 305 312"/>
<path stroke-width="0.5" stroke="black" d="M 287 29 420 118"/>
<path stroke-width="0.5" stroke="black" d="M 287 29 54 107"/>
<path stroke-width="0.5" stroke="black" d="M 287 29 261 315"/>
<path stroke-width="0.5" stroke="black" d="M 287 29 118 283"/>
<path stroke-width="0.5" stroke="black" d="M 287 29 397 254"/>
<path stroke-width="0.5" stroke="black" d="M 287 29 20 191"/>
<path stroke-width="0.5" stroke="black" d="M 287 29 37 240"/>
<path stroke-width="13.035714285714286" stroke="black" d="M 287 29 222 245"/>
<path stroke-width="0.5" stroke="black" d="M 261 315 193 224"/>
<path stroke-width="0.5" stroke="black" d="M 261 315 142 307"/>
<path stroke-width="0.5" stroke="black" d="M 261 315 301 313"/>
<path stroke-width="0.5" stroke="black" d="M 261 315 107 154"/>
<path stroke-width="0.5" stroke="black" d="M 261 315 374 242"/>
<path stroke-width="0.5" stroke="black" d="M 261 315 397 254"/>
<path stroke-width="0.5" stroke="black" d="M 261 315 273 34"/>
<path stroke-width="0.5" stroke="black" d="M 261 315 419 108"/>
<path stroke-width="3.2857142857142856" stroke="black" d="M 287 29 206 166"/>
<path stroke-width="0.5" stroke="black" d="M 261 315 156 56"/>
<path stroke-width="0.5" stroke="black" d="M 261 315 420 118"/>
<path stroke-width="0.5" stroke="black" d="M 261 315 54 107"/>
<path stroke-width="0.5" stroke="black" d="M 261 315 287 29"/>
<path stroke-width="0.5" stroke="black" d="M 261 315 118 283"/>
<path stroke-width="0.5" stroke="black" d="M 261 315 20 191"/>
<path stroke-width="0.5" stroke="black" d="M 261 315 49 109"/>
<path stroke-width="0.5" stroke="black" d="M 261 315 161 320"/>
<path stroke-width="0.5" stroke="black" d="M 261 315 284 143"/>
<path stroke-width="0.5" stroke="black" d="M 261 315 305 312"/>
<path stroke-width="0.5" stroke="black" d="M 20 191 419 108"/>
<path stroke-width="0.5" stroke="black" d="M 287 29 49 109"/>
<path stroke-width="0.5" stroke="black" d="M 287 29 284 143"/>
<path stroke-width="0.5" stroke="black" d="M 118 283 20 191"/>
<path stroke-width="0.5" stroke="black" d="M 118 283 49 109"/>
<path stroke-width="0.5" stroke="black" d="M 118 283 161 320"/>
<path stroke-width="0.5" stroke="black" d="M 118 283 284 143"/>
<path stroke-width="6.071428571428571" stroke="black" d="M 20 191 222 245"/>
<path stroke-width="7.464285714285714" stroke="black" d="M 20 191 206 166"/>
<path stroke-width="0.5" stroke="black" d="M 20 191 37 240"/>
<path stroke-width="0.5" stroke="black" d="M 20 191 98 173"/>
<path stroke-width="0.5" stroke="black" d="M 118 283 287 29"/>
<path stroke-width="0.5" stroke="black" d="M 20 191 149 50"/>
<path stroke-width="0.5" stroke="black" d="M 20 191 406 251"/>
<path stroke-width="0.5" stroke="black" d="M 20 191 299 20"/>
<path stroke-width="0.5" stroke="black" d="M 20 191 193 224"/>
<path stroke-width="0.5" stroke="black" d="M 20 191 142 307"/>
<path stroke-width="0.5" stroke="black" d="M 20 191 301 313"/>
<path stroke-width="0.5" stroke="black" d="M 20 191 107 154"/>
<path stroke-width="0.5" stroke="black" d="M 20 191 374 242"/>
<path stroke-width="0.5" stroke="black" d="M 20 191 397 254"/>
<path stroke-width="0.5" stroke="black" d="M 20 191 239 153"/>
<path stroke-width="0.5" stroke="black" d="M 287 29 161 320"/>
<path stroke-width="0.5" stroke="black" d="M 118 283 261 315"/>
<path stroke-width="0.5" stroke="black" d="M 118 283 420 118"/>
<path stroke-width="8.857142857142858" stroke="black" d="M 118 283 222 245"/>
<path stroke-width="7.464285714285714" stroke="black" d="M 118 283 206 166"/>
<path stroke-width="0.5" stroke="black" d="M 118 283 37 240"/>
<path stroke-width="0.5" stroke="black" d="M 118 283 98 173"/>
<path stroke-width="0.5" stroke="black" d="M 118 283 149 50"/>
<path stroke-width="0.5" stroke="black" d="M 118 283 239 153"/>
<path stroke-width="0.5" stroke="black" d="M 118 283 406 251"/>
<path stroke-width="0.5" stroke="black" d="M 118 283 299 20"/>
<path stroke-width="0.5" stroke="black" d="M 118 283 54 107"/>
<path stroke-width="0.5" stroke="black" d="M 118 283 193 224"/>
<path stroke-width="0.5" stroke="black" d="M 118 283 301 313"/>
<path stroke-width="0.5" stroke="black" d="M 118 283 107 154"/>
<path stroke-width="0.5" stroke="black" d="M 118 283 374 242"/>
<path stroke-width="0.5" stroke="black" d="M 118 283 397 254"/>
<path stroke-width="0.5" stroke="black" d="M 118 283 273 34"/>
<path stroke-width="0.5" stroke="black" d="M 118 283 419 108"/>
<path stroke-width="0.5" stroke="black" d="M 118 283 156 56"/>
<path stroke-width="0.5" stroke="black" d="M 118 283 305 312"/>
<path stroke-width="0.5" stroke="black" d="M 118 283 142 307"/>
<path stroke-width="0.5" stroke="black" d="M 397 254 273 34"/>
<path stroke-width="0.5" stroke="black" d="M 397 254 374 242"/>
<path stroke-width="0.5" stroke="black" d="M 397 254 107 154"/>
<path stroke-width="0.5" stroke="black" d="M 149 50 193 224"/>
<path stroke-width="0.5" stroke="black" d="M 149 50 142 307"/>
<path stroke-width="0.5" stroke="black" d="M 149 50 301 313"/>
<path stroke-width="0.5" stroke="black" d="M 149 50 107 154"/>
<path stroke-width="0.5" stroke="black" d="M 149 50 374 242"/>
<path stroke-width="0.5" stroke="black" d="M 149 50 397 254"/>
<path stroke-width="0.5" stroke="black" d="M 149 50 273 34"/>
<path stroke-width="0.5" stroke="black" d="M 149 50 419 108"/>
<path stroke-width="0.5" stroke="black" d="M 149 50 299 20"/>
<path stroke-width="0.5" stroke="black" d="M 149 50 156 56"/>
<path stroke-width="0.5" stroke="black" d="M 149 50 420 118"/>
<path stroke-width="4.678571428571429" stroke="black" d="M 149 50 54 107"/>
<path stroke-width="0.5" stroke="black" d="M 149 50 261 315"/>
<path stroke-width="0.5" stroke="black" d="M 149 50 287 29"/>
<path stroke-width="0.5" stroke="black" d="M 149 50 118 283"/>
<path stroke-width="0.5" stroke="black" d="M 149 50 20 191"/>
<path stroke-width="0.5" stroke="black" d="M 149 50 49 109"/>
<path stroke-width="0.5" stroke="black" d="M 149 50 161 320"/>
<path stroke-width="0.5" stroke="black" d="M 149 50 305 312"/>
<path stroke-width="0.5" stroke="black" d="M 149 50 284 143"/>
<path stroke-width="0.5" stroke="black" d="M 149 50 406 251"/>
<path stroke-width="0.5" stroke="black" d="M 149 50 98 173"/>
<path stroke-width="0.5" stroke="black" d="M 98 173 374 242"/>
<path stroke-width="0.5" stroke="black" d="M 98 173 397 254"/>
<path stroke-width="0.5" stroke="black" d="M 98 173 273 34"/>
<path stroke-width="0.5" stroke="black" d="M 98 173 419 108"/>
<path stroke-width="0.5" stroke="black" d="M 98 173 156 56"/>
<path stroke-width="0.5" stroke="black" d="M 98 173 305 312"/>
<path stroke-width="0.5" stroke="black" d="M 98 173 420 118"/>
<path stroke-width="0.5" stroke="black" d="M 98 173 54 107"/>
<path stroke-width="0.5" stroke="black" d="M 149 50 239 153"/>
<path stroke-width="4.678571428571429" stroke="black" d="M 98 173 261 315"/>
<path stroke-width="0.5" stroke="black" d="M 98 173 118 283"/>
<path stroke-width="0.5" stroke="black" d="M 98 173 20 191"/>
<path stroke-width="0.5" stroke="black" d="M 98 173 49 109"/>
<path stroke-width="0.5" stroke="black" d="M 98 173 161 320"/>
<path stroke-width="0.5" stroke="black" d="M 98 173 284 143"/>
<path stroke-width="8.857142857142858" stroke="black" d="M 149 50 222 245"/>
<path stroke-width="3.2857142857142856" stroke="black" d="M 149 50 206 166"/>
<path stroke-width="0.5" stroke="black" d="M 149 50 37 240"/>
<path stroke-width="0.5" stroke="black" d="M 98 173 287 29"/>
<path stroke-width="0.5" stroke="black" d="M 98 173 107 154"/>
<path stroke-width="8.857142857142858" stroke="black" d="M 239 153 222 245"/>
<path stroke-width="0.5" stroke="black" d="M 239 153 37 240"/>
<path stroke-width="0.5" stroke="black" d="M 239 153 284 143"/>
<path stroke-width="8.857142857142858" stroke="black" d="M 406 251 222 245"/>
<path stroke-width="3.2857142857142856" stroke="black" d="M 406 251 206 166"/>
<path stroke-width="0.5" stroke="black" d="M 406 251 37 240"/>
<path stroke-width="0.5" stroke="black" d="M 406 251 98 173"/>
<path stroke-width="0.5" stroke="black" d="M 406 251 149 50"/>
<path stroke-width="0.5" stroke="black" d="M 406 251 239 153"/>
<path stroke-width="0.5" stroke="black" d="M 406 251 299 20"/>
<path stroke-width="0.5" stroke="black" d="M 239 153 161 320"/>
<path stroke-width="0.5" stroke="black" d="M 406 251 193 224"/>
<path stroke-width="0.5" stroke="black" d="M 406 251 301 313"/>
<path stroke-width="0.5" stroke="black" d="M 406 251 107 154"/>
<path stroke-width="0.5" stroke="black" d="M 406 251 374 242"/>
<path stroke-width="0.5" stroke="black" d="M 406 251 397 254"/>
<path stroke-width="0.5" stroke="black" d="M 406 251 273 34"/>
<path stroke-width="0.5" stroke="black" d="M 406 251 419 108"/>
<path stroke-width="0.5" stroke="black" d="M 406 251 156 56"/>
<path stroke-width="4.678571428571429" stroke="black" d="M 406 251 305 312"/>
<path stroke-width="0.5" stroke="black" d="M 406 251 142 307"/>
<path stroke-width="3.2857142857142856" stroke="black" d="M 239 153 206 166"/>
<path stroke-width="0.5" stroke="black" d="M 239 153 49 109"/>
<path stroke-width="0.5" stroke="black" d="M 239 153 118 283"/>
<path stroke-width="0.5" stroke="black" d="M 239 153 98 173"/>
<path stroke-width="0.5" stroke="black" d="M 239 153 149 50"/>
<path stroke-width="0.5" stroke="black" d="M 239 153 406 251"/>
<path stroke-width="0.5" stroke="black" d="M 239 153 299 20"/>
<path stroke-width="0.5" stroke="black" d="M 239 153 193 224"/>
<path stroke-width="0.5" stroke="black" d="M 239 153 142 307"/>
<path stroke-width="0.5" stroke="black" d="M 239 153 301 313"/>
<path stroke-width="0.5" stroke="black" d="M 239 153 107 154"/>
<path stroke-width="0.5" stroke="black" d="M 239 153 20 191"/>
<path stroke-width="0.5" stroke="black" d="M 239 153 374 242"/>
<path stroke-width="0.5" stroke="black" d="M 239 153 273 34"/>
<path stroke-width="0.5" stroke="black" d="M 239 153 419 108"/>
<path stroke-width="0.5" stroke="black" d="M 239 153 156 56"/>
<path stroke-width="0.5" stroke="black" d="M 239 153 305 312"/>
<path stroke-width="4.678571428571429" stroke="black" d="M 239 153 420 118"/>
<path stroke-width="0.5" stroke="black" d="M 239 153 54 107"/>
<path stroke-width="0.5" stroke="black" d="M 239 153 261 315"/>
<path stroke-width="0.5" stroke="black" d="M 239 153 287 29"/>
<path stroke-width="0.5" stroke="black" d="M 239 153 397 254"/>
<path stroke-width="0.5" stroke="black" d="M 406 251 420 118"/>
<path stroke-width="0.5" stroke="black" d="M 98 173 301 313"/>
<path stroke-width="0.5" stroke="black" d="M 98 173 193 224"/>
<path stroke-width="7.464285714285714" stroke="black" d="M 222 245 49 109"/>
<path stroke-width="8.857142857142858" stroke="black" d="M 222 245 161 320"/>
<path stroke-width="8.857142857142858" stroke="black" d="M 222 245 284 143"/>
<path stroke-width="20.0" stroke="black" d="M 206 166 222 245"/>
<path stroke-width="0.5" stroke="black" d="M 206 166 37 240"/>
<path stroke-width="3.2857142857142856" stroke="black" d="M 206 166 98 173"/>
<path stroke-width="3.2857142857142856" stroke="black" d="M 206 166 149 50"/>
<path stroke-width="3.2857142857142856" stroke="black" d="M 206 166 239 153"/>
<path stroke-width="6.071428571428571" stroke="black" d="M 222 245 20 191"/>
<path stroke-width="3.2857142857142856" stroke="black" d="M 206 166 406 251"/>
<path stroke-width="3.2857142857142856" stroke="black" d="M 206 166 193 224"/>
<path stroke-width="3.2857142857142856" stroke="black" d="M 206 166 142 307"/>
<path stroke-width="3.2857142857142856" stroke="black" d="M 206 166 301 313"/>
<path stroke-width="3.2857142857142856" stroke="black" d="M 206 166 107 154"/>
<path stroke-width="3.2857142857142856" stroke="black" d="M 206 166 374 242"/>
<path stroke-width="3.2857142857142856" stroke="black" d="M 206 166 397 254"/>
<path stroke-width="3.2857142857142856" stroke="black" d="M 206 166 273 34"/>
<path stroke-width="3.2857142857142856" stroke="black" d="M 206 166 419 108"/>
<path stroke-width="3.2857142857142856" stroke="black" d="M 206 166 299 20"/>
<path stroke-width="3.2857142857142856" stroke="black" d="M 206 166 156 56"/>
<path stroke-width="8.857142857142858" stroke="black" d="M 222 245 118 283"/>
<path stroke-width="8.857142857142858" stroke="black" d="M 222 245 261 315"/>
<path stroke-width="7.464285714285714" stroke="black" d="M 222 245 37 240"/>
<path stroke-width="8.857142857142858" stroke="black" d="M 222 245 98 173"/>
<path stroke-width="8.857142857142858" stroke="black" d="M 222 245 149 50"/>
<path stroke-width="8.857142857142858" stroke="black" d="M 222 245 239 153"/>
<path stroke-width="8.857142857142858" stroke="black" d="M 222 245 406 251"/>
<path stroke-width="8.857142857142858" stroke="black" d="M 222 245 299 20"/>
<path stroke-width="8.857142857142858" stroke="black" d="M 222 245 193 224"/>
<path stroke-width="8.857142857142858" stroke="black" d="M 222 245 142 307"/>
<path stroke-width="13.035714285714286" stroke="black" d="M 222 245 287 29"/>
<path stroke-width="8.857142857142858" stroke="black" d="M 222 245 301 313"/>
<path stroke-width="8.857142857142858" stroke="black" d="M 222 245 374 242"/>
<path stroke-width="8.857142857142858" stroke="black" d="M 222 245 397 254"/>
<path stroke-width="8.857142857142858" stroke="black" d="M 222 245 273 34"/>
<path stroke-width="8.857142857142858" stroke="black" d="M 222 245 419 108"/>
<path stroke-width="8.857142857142858" stroke="black" d="M 222 245 156 56"/>
<path stroke-width="8.857142857142858" stroke="black" d="M 222 245 305 312"/>
<path stroke-width="8.857142857142858" stroke="black" d="M 222 245 420 118"/>
<path stroke-width="8.857142857142858" stroke="black" d="M 222 245 54 107"/>
<path stroke-width="8.857142857142858" stroke="black" d="M 222 245 107 154"/>
<path stroke-width="0.5" stroke="black" d="M 98 173 142 307"/>
<path stroke-width="3.2857142857142856" stroke="black" d="M 206 166 305 312"/>
<path stroke-width="3.2857142857142856" stroke="black" d="M 206 166 54 107"/>
<path stroke-width="0.5" stroke="black" d="M 37 240 156 56"/>
<path stroke-width="0.5" stroke="black" d="M 37 240 305 312"/>
<path stroke-width="0.5" stroke="black" d="M 37 240 420 118"/>
<path stroke-width="0.5" stroke="black" d="M 37 240 54 107"/>
<path stroke-width="0.5" stroke="black" d="M 37 240 261 315"/>
<path stroke-width="0.5" stroke="black" d="M 37 240 287 29"/>
<path stroke-width="0.5" stroke="black" d="M 37 240 118 283"/>
<path stroke-width="0.5" stroke="black" d="M 37 240 20 191"/>
<path stroke-width="0.5" stroke="black" d="M 37 240 419 108"/>
<path stroke-width="0.5" stroke="black" d="M 37 240 49 109"/>
<path stroke-width="0.5" stroke="black" d="M 37 240 284 143"/>
<path stroke-width="8.857142857142858" stroke="black" d="M 98 173 222 245"/>
<path stroke-width="3.2857142857142856" stroke="black" d="M 98 173 206 166"/>
<path stroke-width="0.5" stroke="black" d="M 98 173 37 240"/>
<path stroke-width="0.5" stroke="black" d="M 98 173 149 50"/>
<path stroke-width="0.5" stroke="black" d="M 98 173 239 153"/>
<path stroke-width="0.5" stroke="black" d="M 98 173 406 251"/>
<path stroke-width="0.5" stroke="black" d="M 98 173 299 20"/>
<path stroke-width="0.5" stroke="black" d="M 37 240 161 320"/>
<path stroke-width="3.2857142857142856" stroke="black" d="M 206 166 420 118"/>
<path stroke-width="0.5" stroke="black" d="M 37 240 273 34"/>
<path stroke-width="0.5" stroke="black" d="M 37 240 374 242"/>
<path stroke-width="3.2857142857142856" stroke="black" d="M 206 166 261 315"/>
<path stroke-width="3.2857142857142856" stroke="black" d="M 206 166 287 29"/>
<path stroke-width="7.464285714285714" stroke="black" d="M 206 166 118 283"/>
<path stroke-width="7.464285714285714" stroke="black" d="M 206 166 20 191"/>
<path stroke-width="3.2857142857142856" stroke="black" d="M 206 166 49 109"/>
<path stroke-width="3.2857142857142856" stroke="black" d="M 206 166 161 320"/>
<path stroke-width="3.2857142857142856" stroke="black" d="M 206 166 284 143"/>
<path stroke-width="7.464285714285714" stroke="black" d="M 37 240 222 245"/>
<path stroke-width="0.5" stroke="black" d="M 37 240 397 254"/>
<path stroke-width="0.5" stroke="black" d="M 37 240 206 166"/>
<path stroke-width="0.5" stroke="black" d="M 37 240 149 50"/>
<path stroke-width="0.5" stroke="black" d="M 37 240 239 153"/>
<path stroke-width="0.5" stroke="black" d="M 37 240 406 251"/>
<path stroke-width="0.5" stroke="black" d="M 37 240 299 20"/>
<path stroke-width="0.5" stroke="black" d="M 37 240 193 224"/>
<path stroke-width="0.5" stroke="black" d="M 37 240 142 307"/>
<path stroke-width="0.5" stroke="black" d="M 37 240 301 313"/>
<path stroke-width="0.5" stroke="black" d="M 37 240 107 154"/>
<path stroke-width="0.5" stroke="black" d="M 37 240 98 173"/>
<path stroke-width="0.5" stroke="black" d="M 284 143 49 109"/>
<path stroke-width="0.5" stroke="black" d="M 406 251 54 107"/>
<path stroke-width="0.5" stroke="black" d="M 406 251 287 29"/>
<path stroke-width="3.2857142857142856" stroke="black" d="M 107 154 206 166"/>
<path stroke-width="0.5" stroke="black" d="M 107 154 37 240"/>
<path stroke-width="0.5" stroke="black" d="M 107 154 98 173"/>
<path stroke-width="0.5" stroke="black" d="M 107 154 149 50"/>
<path stroke-width="0.5" stroke="black" d="M 107 154 239 153"/>
<path stroke-width="0.5" stroke="black" d="M 107 154 406 251"/>
<path stroke-width="0.5" stroke="black" d="M 107 154 299 20"/>
<path stroke-width="0.5" stroke="black" d="M 107 154 193 224"/>
<path stroke-width="8.857142857142858" stroke="black" d="M 107 154 222 245"/>
<path stroke-width="0.5" stroke="black" d="M 107 154 142 307"/>
<path stroke-width="4.678571428571429" stroke="black" d="M 107 154 374 242"/>
<path stroke-width="0.5" stroke="black" d="M 107 154 397 254"/>
<path stroke-width="0.5" stroke="black" d="M 107 154 273 34"/>
<path stroke-width="0.5" stroke="black" d="M 107 154 419 108"/>
<path stroke-width="0.5" stroke="black" d="M 107 154 156 56"/>
<path stroke-width="0.5" stroke="black" d="M 107 154 305 312"/>
<path stroke-width="0.5" stroke="black" d="M 107 154 420 118"/>
<path stroke-width="0.5" stroke="black" d="M 107 154 54 107"/>
<path stroke-width="0.5" stroke="black" d="M 107 154 301 313"/>
<path stroke-width="0.5" stroke="black" d="M 107 154 261 315"/>
<path stroke-width="0.5" stroke="black" d="M 301 313 284 143"/>
<path stroke-width="0.5" stroke="black" d="M 301 313 49 109"/>
<path stroke-width="0.5" stroke="black" d="M 301 313 239 153"/>
<path stroke-width="0.5" stroke="black" d="M 301 313 406 251"/>
<path stroke-width="0.5" stroke="black" d="M 301 313 299 20"/>
<path stroke-width="0.5" stroke="black" d="M 301 313 193 224"/>
<path stroke-width="0.5" stroke="black" d="M 301 313 142 307"/>
<path stroke-width="0.5" stroke="black" d="M 301 313 107 154"/>
<path stroke-width="0.5" stroke="black" d="M 301 313 374 242"/>
<path stroke-width="4.678571428571429" stroke="black" d="M 301 313 397 254"/>
<path stroke-width="0.5" stroke="black" d="M 301 313 161 320"/>
<path stroke-width="0.5" stroke="black" d="M 301 313 273 34"/>
<path stroke-width="0.5" stroke="black" d="M 301 313 156 56"/>
<path stroke-width="0.5" stroke="black" d="M 301 313 305 312"/>
<path stroke-width="0.5" stroke="black" d="M 301 313 420 118"/>
<path stroke-width="0.5" stroke="black" d="M 301 313 54 107"/>
<path stroke-width="0.5" stroke="black" d="M 301 313 261 315"/>
<path stroke-width="0.5" stroke="black" d="M 301 313 287 29"/>
<path stroke-width="0.5" stroke="black" d="M 301 313 118 283"/>
<path stroke-width="0.5" stroke="black" d="M 301 313 20 191"/>
<path stroke-width="0.5" stroke="black" d="M 301 313 419 108"/>
<path stroke-width="0.5" stroke="black" d="M 301 313 149 50"/>
<path stroke-width="0.5" stroke="black" d="M 107 154 287 29"/>
<path stroke-width="0.5" stroke="black" d="M 107 154 20 191"/>
<path stroke-width="0.5" stroke="black" d="M 374 242 261 315"/>
<path stroke-width="0.5" stroke="black" d="M 374 242 287 29"/>
<path stroke-width="0.5" stroke="black" d="M 374 242 118 283"/>
<path stroke-width="0.5" stroke="black" d="M 374 242 20 191"/>
<path stroke-width="0.5" stroke="black" d="M 374 242 49 109"/>
<path stroke-width="0.5" stroke="black" d="M 374 242 161 320"/>
<path stroke-width="0.5" stroke="black" d="M 374 242 284 143"/>
<path stroke-width="8.857142857142858" stroke="black" d="M 397 254 222 245"/>
<path stroke-width="0.5" stroke="black" d="M 374 242 54 107"/>
<path stroke-width="3.2857142857142856" stroke="black" d="M 397 254 206 166"/>
<path stroke-width="0.5" stroke="black" d="M 397 254 98 173"/>
<path stroke-width="0.5" stroke="black" d="M 397 254 149 50"/>
<path stroke-width="0.5" stroke="black" d="M 397 254 239 153"/>
<path stroke-width="0.5" stroke="black" d="M 397 254 406 251"/>
<path stroke-width="0.5" stroke="black" d="M 397 254 299 20"/>
<path stroke-width="0.5" stroke="black" d="M 397 254 193 224"/>
<path stroke-width="0.5" stroke="black" d="M 397 254 142 307"/>
<path stroke-width="4.678571428571429" stroke="black" d="M 397 254 301 313"/>
<path stroke-width="0.5" stroke="black" d="M 397 254 37 240"/>
<path stroke-width="0.5" stroke="black" d="M 107 154 118 283"/>
<path stroke-width="0.5" stroke="black" d="M 374 242 420 118"/>
<path stroke-width="0.5" stroke="black" d="M 374 242 156 56"/>
<path stroke-width="0.5" stroke="black" d="M 107 154 49 109"/>
<path stroke-width="0.5" stroke="black" d="M 107 154 161 320"/>
<path stroke-width="0.5" stroke="black" d="M 107 154 284 143"/>
<path stroke-width="8.857142857142858" stroke="black" d="M 374 242 222 245"/>
<path stroke-width="3.2857142857142856" stroke="black" d="M 374 242 206 166"/>
<path stroke-width="0.5" stroke="black" d="M 374 242 37 240"/>
<path stroke-width="0.5" stroke="black" d="M 374 242 98 173"/>
<path stroke-width="0.5" stroke="black" d="M 374 242 149 50"/>
<path stroke-width="0.5" stroke="black" d="M 374 242 305 312"/>
<path stroke-width="0.5" stroke="black" d="M 374 242 239 153"/>
<path stroke-width="0.5" stroke="black" d="M 374 242 299 20"/>
<path stroke-width="0.5" stroke="black" d="M 374 242 193 224"/>
<path stroke-width="0.5" stroke="black" d="M 374 242 142 307"/>
<path stroke-width="0.5" stroke="black" d="M 374 242 301 313"/>
<path stroke-width="4.678571428571429" stroke="black" d="M 374 242 107 154"/>
<path stroke-width="0.5" stroke="black" d="M 374 242 397 254"/>
<path stroke-width="0.5" stroke="black" d="M 374 242 273 34"/>
<path stroke-width="0.5" stroke="black" d="M 374 242 419 108"/>
<path stroke-width="0.5" stroke="black" d="M 374 242 406 251"/>
<path stroke-width="0.5" stroke="black" d="M 406 251 261 315"/>
<path stroke-width="0.5" stroke="black" d="M 301 313 98 173"/>
<path stroke-width="3.2857142857142856" stroke="black" d="M 301 313 206 166"/>
<path stroke-width="0.5" stroke="black" d="M 299 20 420 118"/>
<path stroke-width="0.5" stroke="black" d="M 299 20 54 107"/>
<path stroke-width="0.5" stroke="black" d="M 299 20 261 315"/>
<path stroke-width="0.5" stroke="black" d="M 299 20 287 29"/>
<path stroke-width="0.5" stroke="black" d="M 299 20 118 283"/>
<path stroke-width="0.5" stroke="black" d="M 299 20 20 191"/>
<path stroke-width="0.5" stroke="black" d="M 299 20 49 109"/>
<path stroke-width="0.5" stroke="black" d="M 299 20 161 320"/>
<path stroke-width="0.5" stroke="black" d="M 299 20 305 312"/>
<path stroke-width="0.5" stroke="black" d="M 299 20 284 143"/>
<path stroke-width="3.2857142857142856" stroke="black" d="M 193 224 206 166"/>
<path stroke-width="0.5" stroke="black" d="M 193 224 37 240"/>
<path stroke-width="0.5" stroke="black" d="M 193 224 98 173"/>
<path stroke-width="0.5" stroke="black" d="M 193 224 149 50"/>
<path stroke-width="0.5" stroke="black" d="M 193 224 239 153"/>
<path stroke-width="0.5" stroke="black" d="M 193 224 406 251"/>
<path stroke-width="0.5" stroke="black" d="M 193 224 299 20"/>
<path stroke-width="0.5" stroke="black" d="M 193 224 142 307"/>
<path stroke-width="8.857142857142858" stroke="black" d="M 193 224 222 245"/>
<path stroke-width="0.5" stroke="black" d="M 193 224 301 313"/>
<path stroke-width="0.5" stroke="black" d="M 299 20 156 56"/>
<path stroke-width="0.5" stroke="black" d="M 299 20 273 34"/>
<path stroke-width="0.5" stroke="black" d="M 406 251 118 283"/>
<path stroke-width="0.5" stroke="black" d="M 406 251 20 191"/>
<path stroke-width="0.5" stroke="black" d="M 406 251 49 109"/>
<path stroke-width="0.5" stroke="black" d="M 406 251 161 320"/>
<path stroke-width="0.5" stroke="black" d="M 406 251 284 143"/>
<path stroke-width="8.857142857142858" stroke="black" d="M 299 20 222 245"/>
<path stroke-width="3.2857142857142856" stroke="black" d="M 299 20 206 166"/>
<path stroke-width="0.5" stroke="black" d="M 299 20 37 240"/>
<path stroke-width="4.678571428571429" stroke="black" d="M 299 20 419 108"/>
<path stroke-width="0.5" stroke="black" d="M 299 20 98 173"/>
<path stroke-width="0.5" stroke="black" d="M 299 20 239 153"/>
<path stroke-width="0.5" stroke="black" d="M 299 20 406 251"/>
<path stroke-width="0.5" stroke="black" d="M 299 20 193 224"/>
<path stroke-width="0.5" stroke="black" d="M 299 20 142 307"/>
<path stroke-width="0.5" stroke="black" d="M 299 20 301 313"/>
<path stroke-width="0.5" stroke="black" d="M 299 20 107 154"/>
<path stroke-width="0.5" stroke="black" d="M 299 20 374 242"/>
<path stroke-width="0.5" stroke="black" d="M 299 20 397 254"/>
<path stroke-width="0.5" stroke="black" d="M 299 20 149 50"/>
<path stroke-width="0.5" stroke="black" d="M 301 313 37 240"/>
<path stroke-width="0.5" stroke="black" d="M 193 224 107 154"/>
<path stroke-width="0.5" stroke="black" d="M 193 224 397 254"/>
<path stroke-width="0.5" stroke="black" d="M 142 307 301 313"/>
<path stroke-width="0.5" stroke="black" d="M 142 307 107 154"/>
<path stroke-width="0.5" stroke="black" d="M 142 307 374 242"/>
<path stroke-width="0.5" stroke="black" d="M 142 307 397 254"/>
<path stroke-width="0.5" stroke="black" d="M 142 307 273 34"/>
<path stroke-width="0.5" stroke="black" d="M 142 307 419 108"/>
<path stroke-width="0.5" stroke="black" d="M 142 307 156 56"/>
<path stroke-width="0.5" stroke="black" d="M 142 307 305 312"/>
<path stroke-width="0.5" stroke="black" d="M 142 307 193 224"/>
<path stroke-width="0.5" stroke="black" d="M 142 307 420 118"/>
<path stroke-width="0.5" stroke="black" d="M 142 307 261 315"/>
<path stroke-width="0.5" stroke="black" d="M 142 307 287 29"/>
<path stroke-width="0.5" stroke="black" d="M 142 307 118 283"/>
<path stroke-width="0.5" stroke="black" d="M 142 307 20 191"/>
<path stroke-width="0.5" stroke="black" d="M 142 307 49 109"/>
<path stroke-width="4.678571428571429" stroke="black" d="M 142 307 161 320"/>
<path stroke-width="0.5" stroke="black" d="M 142 307 284 143"/>
<path stroke-width="8.857142857142858" stroke="black" d="M 301 313 222 245"/>
<path stroke-width="0.5" stroke="black" d="M 142 307 54 107"/>
<path stroke-width="0.5" stroke="black" d="M 193 224 374 242"/>
<path stroke-width="0.5" stroke="black" d="M 142 307 299 20"/>
<path stroke-width="0.5" stroke="black" d="M 142 307 239 153"/>
<path stroke-width="4.678571428571429" stroke="black" d="M 193 224 273 34"/>
<path stroke-width="0.5" stroke="black" d="M 193 224 419 108"/>
<path stroke-width="0.5" stroke="black" d="M 193 224 156 56"/>
<path stroke-width="0.5" stroke="black" d="M 193 224 305 312"/>
<path stroke-width="0.5" stroke="black" d="M 193 224 420 118"/>
<path stroke-width="0.5" stroke="black" d="M 193 224 54 107"/>
<path stroke-width="0.5" stroke="black" d="M 193 224 261 315"/>
<path stroke-width="0.5" stroke="black" d="M 193 224 287 29"/>
<path stroke-width="0.5" stroke="black" d="M 142 307 406 251"/>
<path stroke-width="0.5" stroke="black" d="M 193 224 118 283"/>
<path stroke-width="0.5" stroke="black" d="M 193 224 49 109"/>
<path stroke-width="0.5" stroke="black" d="M 193 224 161 320"/>
<path stroke-width="0.5" stroke="black" d="M 193 224 284 143"/>
<path stroke-width="8.857142857142858" stroke="black" d="M 142 307 222 245"/>
<path stroke-width="3.2857142857142856" stroke="black" d="M 142 307 206 166"/>
<path stroke-width="0.5" stroke="black" d="M 142 307 37 240"/>
<path stroke-width="0.5" stroke="black" d="M 142 307 98 173"/>
<path stroke-width="0.5" stroke="black" d="M 142 307 149 50"/>
<path stroke-width="0.5" stroke="black" d="M 193 224 20 191"/>
<path stroke-width="0.5" stroke="black" d="M 284 143 161 320"/>
<circle cx="222" cy="245" r="7.0" style="fill:gray;stroke:black;stroke-width:1.0"/>
<circle cx="206" cy="166" r="7.0" style="fill:gray;stroke:black;stroke-width:1.0"/>
<circle cx="37" cy="240" r="7.0" style="fill:gray;stroke:black;stroke-width:1.0"/>
<circle cx="98" cy="173" r="7.0" style="fill:gray;stroke:black;stroke-width:1.0"/>
<circle cx="149" cy="50" r="7.0" style="fill:gray;stroke:black;stroke-width:1.0"/>
<circle cx="239" cy="153" r="7.0" style="fill:gray;stroke:black;stroke-width:1.0"/>
<circle cx="406" cy="251" r="7.0" style="fill:gray;stroke:black;stroke-width:1.0"/>
<circle cx="299" cy="20" r="7.0" style="fill:gray;stroke:black;stroke-width:1.0"/>
<circle cx="193" cy="224" r="7.0" style="fill:gray;stroke:black;stroke-width:1.0"/>
<circle cx="142" cy="307" r="7.0" style="fill:gray;stroke:black;stroke-width:1.0"/>
<circle cx="301" cy="313" r="7.0" style="fill:gray;stroke:black;stroke-width:1.0"/>
<circle cx="107" cy="154" r="7.0" style="fill:gray;stroke:black;stroke-width:1.0"/>
<circle cx="374" cy="242" r="7.0" style="fill:gray;stroke:black;stroke-width:1.0"/>
<circle cx="397" cy="254" r="7.0" style="fill:gray;stroke:black;stroke-width:1.0"/>
<circle cx="273" cy="34" r="7.0" style="fill:gray;stroke:black;stroke-width:1.0"/>
<circle cx="419" cy="108" r="7.0" style="fill:gray;stroke:black;stroke-width:1.0"/>
<circle cx="156" cy="56" r="7.0" style="fill:gray;stroke:black;stroke-width:1.0"/>
<circle cx="305" cy="312" r="7.0" style="fill:gray;stroke:black;stroke-width:1.0"/>
<circle cx="420" cy="118" r="7.0" style="fill:gray;stroke:black;stroke-width:1.0"/>
<circle cx="54" cy="107" r="7.0" style="fill:gray;stroke:black;stroke-width:1.0"/>
<circle cx="261" cy="315" r="7.0" style="fill:gray;stroke:black;stroke-width:1.0"/>
<circle cx="287" cy="29" r="7.0" style="fill:gray;stroke:black;stroke-width:1.0"/>
<circle cx="118" cy="283" r="7.0" style="fill:gray;stroke:black;stroke-width:1.0"/>
<circle cx="20" cy="191" r="7.0" style="fill:gray;stroke:black;stroke-width:1.0"/>
<circle cx="49" cy="109" r="7.0" style="fill:gray;stroke:black;stroke-width:1.0"/>
<circle cx="161" cy="320" r="7.0" style="fill:gray;stroke:black;stroke-width:1.0"/>
<circle cx="284" cy="143" r="7.0" style="fill:gray;stroke:black;stroke-width:1.0"/>
</svg>
