<svg width="440" height="340" xmlns="http://www.w3.org/2000/svg">
<path stroke-width="1" stroke="black" d="M 420 320 393 300"/>
<path stroke-width="1" stroke="black" d="M 83 50 48 33"/>
<path stroke-width="1" stroke="black" d="M 83 50 119 72"/>
<path stroke-width="1" stroke="black" d="M 119 72 83 50"/>
<path stroke-width="1" stroke="black" d="M 119 72 155 96"/>
<path stroke-width="1" stroke="black" d="M 155 96 119 72"/>
<path stroke-width="1" stroke="black" d="M 155 96 192 124"/>
<path stroke-width="1" stroke="black" d="M 192 124 155 96"/>
<path stroke-width="1" stroke="black" d="M 192 124 227 154"/>
<path stroke-width="1" stroke="black" d="M 227 154 192 124"/>
<path stroke-width="1" stroke="black" d="M 227 154 262 186"/>
<path stroke-width="1" stroke="black" d="M 262 186 227 154"/>
<path stroke-width="1" stroke="black" d="M 262 186 295 217"/>
<path stroke-width="1" stroke="black" d="M 295 217 262 186"/>
<path stroke-width="1" stroke="black" d="M 295 217 329 248"/>
<path stroke-width="1" stroke="black" d="M 329 248 295 217"/>
<path stroke-width="1" stroke="black" d="M 329 248 362 275"/>
<path stroke-width="1" stroke="black" d="M 362 275 329 248"/>
<path stroke-width="1" stroke="black" d="M 362 275 393 300"/>
<path stroke-width="1" stroke="black" d="M 393 300 362 275"/>
<path stroke-width="1" stroke="black" d="M 393 300 420 320"/>
<path stroke-width="1" stroke="black" d="M 20 20 48 33"/>
<path stroke-width="1" stroke="black" d="M 48 33 20 20"/>
<path stroke-width="1" stroke="black" d="M 48 33 83 50"/>
<circle cx="420" cy="320" r="7.0" style="fill:gray;stroke:black;stroke-width:1.0"/>
<circle cx="20" cy="20" r="7.0" style="fill:gray;stroke:black;stroke-width:1.0"/>
<circle cx="393" cy="300" r="7.0" style="fill:gray;stroke:black;stroke-width:1.0"/>
<circle cx="362" cy="275" r="7.0" style="fill:gray;stroke:black;stroke-width:1.0"/>
<circle cx="329" cy="248" r="7.0" style="fill:gray;stroke:black;stroke-width:1.0"/>
<circle cx="295" cy="217" r="7.0" style="fill:gray;stroke:black;stroke-width:1.0"/>
<circle cx="262" cy="186" r="7.0" style="fill:gray;stroke:black;stroke-width:1.0"/>
<circle cx="227" cy="154" r="7.0" style="fill:gray;stroke:black;stroke-width:1.0"/>
<circle cx="192" cy="124" r="7.0" style="fill:gray;stroke:black;stroke-width:1.0"/>
<circle cx="155" cy="96" r="7.0" style="fill:gray;stroke:black;stroke-width:1.0"/>
<circle cx="119" cy="72" r="7.0" style="fill:gray;stroke:black;stroke-width:1.0"/>
<circle cx="83" cy="50" r="7.0" style="fill:gray;stroke:black;stroke-width:1.0"/>
<circle cx="48" cy="33" r="7.0" style="fill:gray;stroke:black;stroke-width:1.0"/>
</svg>
