<svg width="440" height="340" xmlns="http://www.w3.org/2000/svg">
<path stroke-width="1" stroke="black" d="M 20 20 37 53"/>
<path stroke-width="1" stroke="black" d="M 358 283 391 302"/>
<path stroke-width="1" stroke="black" d="M 358 283 319 265"/>
<path stroke-width="1" stroke="black" d="M 319 265 358 283"/>
<path stroke-width="1" stroke="black" d="M 319 265 281 246"/>
<path stroke-width="1" stroke="black" d="M 281 246 319 265"/>
<path stroke-width="1" stroke="black" d="M 281 246 238 230"/>
<path stroke-width="1" stroke="black" d="M 238 230 281 246"/>
<path stroke-width="1" stroke="black" d="M 238 230 202 207"/>
<path stroke-width="1" stroke="black" d="M 202 207 238 230"/>
<path stroke-width="1" stroke="black" d="M 202 207 159 187"/>
<path stroke-width="1" stroke="black" d="M 159 187 202 207"/>
<path stroke-width="1" stroke="black" d="M 159 187 128 153"/>
<path stroke-width="1" stroke="black" d="M 128 153 159 187"/>
<path stroke-width="1" stroke="black" d="M 128 153 90 126"/>
<path stroke-width="1" stroke="black" d="M 90 126 128 153"/>
<path stroke-width="1" stroke="black" d="M 90 126 66 85"/>
<path stroke-width="1" stroke="black" d="M 66 85 90 126"/>
<path stroke-width="1" stroke="black" d="M 66 85 37 53"/>
<path stroke-width="1" stroke="black" d="M 37 53 66 85"/>
<path stroke-width="1" stroke="black" d="M 37 53 20 20"/>
<path stroke-width="1" stroke="black" d="M 420 320 391 302"/>
<path stroke-width="1" stroke="black" d="M 391 302 420 320"/>
<path stroke-width="1" stroke="black" d="M 391 302 358 283"/>
<circle cx="20" cy="20" r="7.0" style="fill:red;stroke:black;stroke-width:1.0"/>
<circle cx="420" cy="320" r="7.0" style="fill:blue;stroke:black;stroke-width:1.0"/>
<circle cx="37" cy="53" r="7.0" style="fill:red;stroke:black;stroke-width:1.0"/>
<circle cx="66" cy="85" r="7.0" style="fill:red;stroke:black;stroke-width:1.0"/>
<circle cx="90" cy="126" r="7.0" style="fill:red;stroke:black;stroke-width:1.0"/>
<circle cx="128" cy="153" r="7.0" style="fill:green;stroke:black;stroke-width:1.0"/>
<circle cx="159" cy="187" r="7.0" style="fill:green;stroke:black;stroke-width:1.0"/>
<circle cx="202" cy="207" r="7.0" style="fill:green;stroke:black;stroke-width:1.0"/>
<circle cx="238" cy="230" r="7.0" style="fill:green;stroke:black;stroke-width:1.0"/>
<circle cx="281" cy="246" r="7.0" style="fill:blue;stroke:black;stroke-width:1.0"/>
<circle cx="319" cy="265" r="7.0" style="fill:blue;stroke:black;stroke-width:1.0"/>
<circle cx="358" cy="283" r="7.0" style="fill:blue;stroke:black;stroke-width:1.0"/>
<circle cx="391" cy="302" r="7.0" style="fill:blue;stroke:black;stroke-width:1.0"/>
</svg>
