<svg width="440" height="340" xmlns="http://www.w3.org/2000/svg">
<path stroke-width="8.3" stroke="black" d="M 354 295 360 255"/>
<path stroke-width="0.5" stroke="black" d="M 26 283 25 221"/>
<path stroke-width="0.5" stroke="black" d="M 26 283 40 251"/>
<path stroke-width="20.0" stroke="black" d="M 392 298 389 273"/>
<path stroke-width="0.5" stroke="black" d="M 389 273 360 255"/>
<path stroke-width="0.5" stroke="black" d="M 389 273 407 194"/>
<path stroke-width="20.0" stroke="black" d="M 389 273 392 298"/>
<path stroke-width="20.0" stroke="black" d="M 20 196 25 221"/>
<path stroke-width="8.3" stroke="black" d="M 26 283 21 320"/>
<path stroke-width="0.5" stroke="black" d="M 25 221 26 283"/>
<path stroke-width="0.5" stroke="black" d="M 25 221 40 251"/>
<path stroke-width="20.0" stroke="black" d="M 408 74 401 99"/>
<path stroke-width="0.5" stroke="black" d="M 401 99 407 194"/>
<path stroke-width="0.5" stroke="black" d="M 401 99 376 48"/>
<path stroke-width="20.0" stroke="black" d="M 401 99 408 74"/>
<path stroke-width="20.0" stroke="black" d="M 49 253 40 251"/>
<path stroke-width="0.5" stroke="black" d="M 40 251 26 283"/>
<path stroke-width="20.0" stroke="black" d="M 25 221 20 196"/>
<path stroke-width="8.3" stroke="black" d="M 21 320 26 283"/>
<path stroke-width="0.5" stroke="black" d="M 376 48 401 99"/>
<path stroke-width="20.0" stroke="black" d="M 376 48 376 20"/>
<path stroke-width="8.3" stroke="black" d="M 360 255 354 295"/>
<path stroke-width="0.5" stroke="black" d="M 360 255 342 170"/>
<path stroke-width="0.5" stroke="black" d="M 360 255 389 273"/>
<path stroke-width="20.0" stroke="black" d="M 335 174 342 170"/>
<path stroke-width="0.5" stroke="black" d="M 342 170 360 255"/>
<path stroke-width="20.0" stroke="black" d="M 342 170 335 174"/>
<path stroke-width="0.5" stroke="black" d="M 342 170 353 83"/>
<path stroke-width="8.3" stroke="black" d="M 420 207 407 194"/>
<path stroke-width="8.3" stroke="black" d="M 407 194 420 207"/>
<path stroke-width="0.5" stroke="black" d="M 407 194 389 273"/>
<path stroke-width="0.5" stroke="black" d="M 407 194 401 99"/>
<path stroke-width="20.0" stroke="black" d="M 344 50 353 83"/>
<path stroke-width="0.5" stroke="black" d="M 353 83 342 170"/>
<path stroke-width="20.0" stroke="black" d="M 353 83 344 50"/>
<path stroke-width="0.5" stroke="black" d="M 353 83 376 48"/>
<path stroke-width="20.0" stroke="black" d="M 376 20 376 48"/>
<path stroke-width="0.5" stroke="black" d="M 376 48 353 83"/>
<path stroke-width="0.5" stroke="black" d="M 40 251 25 221"/>
<path stroke-width="20.0" stroke="black" d="M 40 251 49 253"/>
<circle cx="354" cy="295" r="7.0" style="fill:blue;stroke:black;stroke-width:1.0"/>
<circle cx="360" cy="255" r="7.0" style="fill:blue;stroke:black;stroke-width:1.0"/>
<circle cx="335" cy="174" r="7.0" style="fill:blue;stroke:black;stroke-width:1.0"/>
<circle cx="342" cy="170" r="7.0" style="fill:blue;stroke:black;stroke-width:1.0"/>
<circle cx="420" cy="207" r="7.0" style="fill:red;stroke:black;stroke-width:1.0"/>
<circle cx="407" cy="194" r="7.0" style="fill:red;stroke:black;stroke-width:1.0"/>
<circle cx="344" cy="50" r="7.0" style="fill:orange;stroke:black;stroke-width:1.0"/>
<circle cx="353" cy="83" r="7.0" style="fill:orange;stroke:black;stroke-width:1.0"/>
<circle cx="376" cy="20" r="7.0" style="fill:purple;stroke:black;stroke-width:1.0"/>
<circle cx="376" cy="48" r="7.0" style="fill:purple;stroke:black;stroke-width:1.0"/>
<circle cx="21" cy="320" r="7.0" style="fill:green;stroke:black;stroke-width:1.0"/>
<circle cx="26" cy="283" r="7.0" style="fill:green;stroke:black;stroke-width:1.0"/>
<circle cx="392" cy="298" r="7.0" style="fill:yellow;stroke:black;stroke-width:1.0"/>
<circle cx="389" cy="273" r="7.0" style="fill:yellow;stroke:black;stroke-width:1.0"/>
<circle cx="20" cy="196" r="7.0" style="fill:fuchsia;stroke:black;stroke-width:1.0"/>
<circle cx="25" cy="221" r="7.0" style="fill:fuchsia;stroke:black;stroke-width:1.0"/>
<circle cx="408" cy="74" r="7.0" style="fill:red;stroke:black;stroke-width:1.0"/>
<circle cx="401" cy="99" r="7.0" style="fill:red;stroke:black;stroke-width:1.0"/>
<circle cx="49" cy="253" r="7.0" style="fill:green;stroke:black;stroke-width:1.0"/>
<circle cx="40" cy="251" r="7.0" style="fill:green;stroke:black;stroke-width:1.0"/>
</svg>
