<svg width="440" height="340" xmlns="http://www.w3.org/2000/svg">
<path stroke-width="1" stroke="black" d="M 273 299 294 294"/>
<path stroke-width="1" stroke="black" d="M 36 26 50 43"/>
<path stroke-width="1" stroke="black" d="M 36 26 66 26"/>
<path stroke-width="1" stroke="black" d="M 276 261 292 264"/>
<path stroke-width="1" stroke="black" d="M 292 264 294 294"/>
<path stroke-width="1" stroke="black" d="M 292 264 327 245"/>
<path stroke-width="1" stroke="black" d="M 292 264 276 261"/>
<path stroke-width="1" stroke="black" d="M 48 53 50 43"/>
<path stroke-width="1" stroke="black" d="M 36 26 20 20"/>
<path stroke-width="1" stroke="black" d="M 50 43 36 26"/>
<path stroke-width="1" stroke="black" d="M 50 43 66 26"/>
<path stroke-width="1" stroke="black" d="M 380 239 373 246"/>
<path stroke-width="1" stroke="black" d="M 373 246 327 245"/>
<path stroke-width="1" stroke="black" d="M 373 246 401 269"/>
<path stroke-width="1" stroke="black" d="M 373 246 380 239"/>
<path stroke-width="1" stroke="black" d="M 79 21 66 26"/>
<path stroke-width="1" stroke="black" d="M 66 26 36 26"/>
<path stroke-width="1" stroke="black" d="M 50 43 48 53"/>
<path stroke-width="1" stroke="black" d="M 20 20 36 26"/>
<path stroke-width="1" stroke="black" d="M 401 269 373 246"/>
<path stroke-width="1" stroke="black" d="M 401 269 420 269"/>
<path stroke-width="1" stroke="black" d="M 294 294 273 299"/>
<path stroke-width="1" stroke="black" d="M 294 294 336 306"/>
<path stroke-width="1" stroke="black" d="M 294 294 292 264"/>
<path stroke-width="1" stroke="black" d="M 334 320 336 306"/>
<path stroke-width="1" stroke="black" d="M 336 306 294 294"/>
<path stroke-width="1" stroke="black" d="M 336 306 334 320"/>
<path stroke-width="1" stroke="black" d="M 336 306 383 298"/>
<path stroke-width="1" stroke="black" d="M 317 233 327 245"/>
<path stroke-width="1" stroke="black" d="M 327 245 317 233"/>
<path stroke-width="1" stroke="black" d="M 327 245 292 264"/>
<path stroke-width="1" stroke="black" d="M 327 245 373 246"/>
<path stroke-width="1" stroke="black" d="M 395 305 383 298"/>
<path stroke-width="1" stroke="black" d="M 383 298 336 306"/>
<path stroke-width="1" stroke="black" d="M 383 298 395 305"/>
<path stroke-width="1" stroke="black" d="M 383 298 401 269"/>
<path stroke-width="1" stroke="black" d="M 420 269 401 269"/>
<path stroke-width="1" stroke="black" d="M 401 269 383 298"/>
<path stroke-width="1" stroke="black" d="M 66 26 50 43"/>
<path stroke-width="1" stroke="black" d="M 66 26 79 21"/>
<circle cx="273" cy="299" r="7.0" style="fill:blue;stroke:black;stroke-width:1.0"/>
<circle cx="294" cy="294" r="7.0" style="fill:blue;stroke:black;stroke-width:1.0"/>
<circle cx="334" cy="320" r="7.0" style="fill:blue;stroke:black;stroke-width:1.0"/>
<circle cx="336" cy="306" r="7.0" style="fill:blue;stroke:black;stroke-width:1.0"/>
<circle cx="317" cy="233" r="7.0" style="fill:red;stroke:black;stroke-width:1.0"/>
<circle cx="327" cy="245" r="7.0" style="fill:red;stroke:black;stroke-width:1.0"/>
<circle cx="395" cy="305" r="7.0" style="fill:orange;stroke:black;stroke-width:1.0"/>
<circle cx="383" cy="298" r="7.0" style="fill:orange;stroke:black;stroke-width:1.0"/>
<circle cx="420" cy="269" r="7.0" style="fill:purple;stroke:black;stroke-width:1.0"/>
<circle cx="401" cy="269" r="7.0" style="fill:purple;stroke:black;stroke-width:1.0"/>
<circle cx="20" cy="20" r="7.0" style="fill:green;stroke:black;stroke-width:1.0"/>
<circle cx="36" cy="26" r="7.0" style="fill:green;stroke:black;stroke-width:1.0"/>
<circle cx="276" cy="261" r="7.0" style="fill:yellow;stroke:black;stroke-width:1.0"/>
<circle cx="292" cy="264" r="7.0" style="fill:yellow;stroke:black;stroke-width:1.0"/>
<circle cx="48" cy="53" r="7.0" style="fill:fuchsia;stroke:black;stroke-width:1.0"/>
<circle cx="50" cy="43" r="7.0" style="fill:fuchsia;stroke:black;stroke-width:1.0"/>
<circle cx="380" cy="239" r="7.0" style="fill:red;stroke:black;stroke-width:1.0"/>
<circle cx="373" cy="246" r="7.0" style="fill:red;stroke:black;stroke-width:1.0"/>
<circle cx="79" cy="21" r="7.0" style="fill:green;stroke:black;stroke-width:1.0"/>
<circle cx="66" cy="26" r="7.0" style="fill:green;stroke:black;stroke-width:1.0"/>
</svg>
