<svg width="440" height="340" xmlns="http://www.w3.org/2000/svg">
<path stroke-width="8.3" stroke="black" d="M 86 39 76 46"/>
<path stroke-width="0.5" stroke="black" d="M 396 296 395 312"/>
<path stroke-width="0.5" stroke="black" d="M 396 296 411 304"/>
<path stroke-width="20.0" stroke="black" d="M 61 20 59 31"/>
<path stroke-width="0.5" stroke="black" d="M 59 31 76 46"/>
<path stroke-width="0.5" stroke="black" d="M 59 31 39 48"/>
<path stroke-width="20.0" stroke="black" d="M 59 31 61 20"/>
<path stroke-width="20.0" stroke="black" d="M 392 320 395 312"/>
<path stroke-width="8.3" stroke="black" d="M 396 296 392 286"/>
<path stroke-width="0.5" stroke="black" d="M 395 312 396 296"/>
<path stroke-width="0.5" stroke="black" d="M 395 312 411 304"/>
<path stroke-width="20.0" stroke="black" d="M 20 81 31 76"/>
<path stroke-width="0.5" stroke="black" d="M 31 76 39 48"/>
<path stroke-width="0.5" stroke="black" d="M 31 76 34 103"/>
<path stroke-width="20.0" stroke="black" d="M 31 76 20 81"/>
<path stroke-width="20.0" stroke="black" d="M 420 304 411 304"/>
<path stroke-width="0.5" stroke="black" d="M 411 304 396 296"/>
<path stroke-width="20.0" stroke="black" d="M 395 312 392 320"/>
<path stroke-width="8.3" stroke="black" d="M 392 286 396 296"/>
<path stroke-width="0.5" stroke="black" d="M 34 103 31 76"/>
<path stroke-width="20.0" stroke="black" d="M 34 103 32 111"/>
<path stroke-width="8.3" stroke="black" d="M 76 46 86 39"/>
<path stroke-width="0.5" stroke="black" d="M 76 46 71 73"/>
<path stroke-width="0.5" stroke="black" d="M 76 46 59 31"/>
<path stroke-width="20.0" stroke="black" d="M 80 76 71 73"/>
<path stroke-width="0.5" stroke="black" d="M 71 73 76 46"/>
<path stroke-width="20.0" stroke="black" d="M 71 73 80 76"/>
<path stroke-width="0.5" stroke="black" d="M 71 73 59 96"/>
<path stroke-width="8.3" stroke="black" d="M 33 39 39 48"/>
<path stroke-width="8.3" stroke="black" d="M 39 48 33 39"/>
<path stroke-width="0.5" stroke="black" d="M 39 48 59 31"/>
<path stroke-width="0.5" stroke="black" d="M 39 48 31 76"/>
<path stroke-width="20.0" stroke="black" d="M 62 105 59 96"/>
<path stroke-width="0.5" stroke="black" d="M 59 96 71 73"/>
<path stroke-width="20.0" stroke="black" d="M 59 96 62 105"/>
<path stroke-width="0.5" stroke="black" d="M 59 96 34 103"/>
<path stroke-width="20.0" stroke="black" d="M 32 111 34 103"/>
<path stroke-width="0.5" stroke="black" d="M 34 103 59 96"/>
<path stroke-width="0.5" stroke="black" d="M 411 304 395 312"/>
<path stroke-width="20.0" stroke="black" d="M 411 304 420 304"/>
<circle cx="86" cy="39" r="7.0" style="fill:gray;stroke:black;stroke-width:1.0"/>
<circle cx="76" cy="46" r="7.0" style="fill:gray;stroke:black;stroke-width:1.0"/>
<circle cx="80" cy="76" r="7.0" style="fill:gray;stroke:black;stroke-width:1.0"/>
<circle cx="71" cy="73" r="7.0" style="fill:gray;stroke:black;stroke-width:1.0"/>
<circle cx="33" cy="39" r="7.0" style="fill:gray;stroke:black;stroke-width:1.0"/>
<circle cx="39" cy="48" r="7.0" style="fill:gray;stroke:black;stroke-width:1.0"/>
<circle cx="62" cy="105" r="7.0" style="fill:gray;stroke:black;stroke-width:1.0"/>
<circle cx="59" cy="96" r="7.0" style="fill:gray;stroke:black;stroke-width:1.0"/>
<circle cx="32" cy="111" r="7.0" style="fill:gray;stroke:black;stroke-width:1.0"/>
<circle cx="34" cy="103" r="7.0" style="fill:gray;stroke:black;stroke-width:1.0"/>
<circle cx="392" cy="286" r="7.0" style="fill:gray;stroke:black;stroke-width:1.0"/>
<circle cx="396" cy="296" r="7.0" style="fill:gray;stroke:black;stroke-width:1.0"/>
<circle cx="61" cy="20" r="7.0" style="fill:gray;stroke:black;stroke-width:1.0"/>
<circle cx="59" cy="31" r="7.0" style="fill:gray;stroke:black;stroke-width:1.0"/>
<circle cx="392" cy="320" r="7.0" style="fill:gray;stroke:black;stroke-width:1.0"/>
<circle cx="395" cy="312" r="7.0" style="fill:gray;stroke:black;stroke-width:1.0"/>
<circle cx="20" cy="81" r="7.0" style="fill:gray;stroke:black;stroke-width:1.0"/>
<circle cx="31" cy="76" r="7.0" style="fill:gray;stroke:black;stroke-width:1.0"/>
<circle cx="420" cy="304" r="7.0" style="fill:gray;stroke:black;stroke-width:1.0"/>
<circle cx="411" cy="304" r="7.0" style="fill:gray;stroke:black;stroke-width:1.0"/>
</svg>
