<svg width="440" height="340" xmlns="http://www.w3.org/2000/svg">
<path stroke-width="20.0" stroke="black" d="M 242 136 207 142"/>
<path stroke-width="0.6638655462184874" stroke="black" d="M 218 72 352 109"/>
<path stroke-width="0.6638655462184874" stroke="black" d="M 218 72 279 92"/>
<path stroke-width="9.512605042016807" stroke="black" d="M 218 72 229 34"/>
<path stroke-width="0.6638655462184874" stroke="black" d="M 218 72 214 180"/>
<path stroke-width="0.6638655462184874" stroke="black" d="M 218 72 190 125"/>
<path stroke-width="0.6638655462184874" stroke="black" d="M 218 72 118 166"/>
<path stroke-width="0.6638655462184874" stroke="black" d="M 218 72 146 71"/>
<path stroke-width="0.6638655462184874" stroke="black" d="M 218 72 172 198"/>
<path stroke-width="8.201680672268907" stroke="black" d="M 232 222 214 180"/>
<path stroke-width="0.6638655462184874" stroke="black" d="M 214 180 207 142"/>
<path stroke-width="0.6638655462184874" stroke="black" d="M 214 180 268 169"/>
<path stroke-width="0.6638655462184874" stroke="black" d="M 214 180 195 86"/>
<path stroke-width="0.6638655462184874" stroke="black" d="M 218 72 294 96"/>
<path stroke-width="1.1554621848739495" stroke="black" d="M 214 180 246 152"/>
<path stroke-width="0.6638655462184874" stroke="black" d="M 214 180 111 107"/>
<path stroke-width="0.6638655462184874" stroke="black" d="M 214 180 294 96"/>
<path stroke-width="0.6638655462184874" stroke="black" d="M 214 180 352 109"/>
<path stroke-width="0.6638655462184874" stroke="black" d="M 214 180 279 92"/>
<path stroke-width="0.6638655462184874" stroke="black" d="M 214 180 218 72"/>
<path stroke-width="8.201680672268907" stroke="black" d="M 214 180 232 222"/>
<path stroke-width="0.6638655462184874" stroke="black" d="M 214 180 190 125"/>
<path stroke-width="0.6638655462184874" stroke="black" d="M 214 180 118 166"/>
<path stroke-width="0.6638655462184874" stroke="black" d="M 214 180 146 71"/>
<path stroke-width="0.6638655462184874" stroke="black" d="M 214 180 172 198"/>
<path stroke-width="6.890756302521009" stroke="black" d="M 193 107 190 125"/>
<path stroke-width="0.6638655462184874" stroke="black" d="M 190 125 207 142"/>
<path stroke-width="0.6638655462184874" stroke="black" d="M 214 180 83 102"/>
<path stroke-width="0.6638655462184874" stroke="black" d="M 190 125 268 169"/>
<path stroke-width="0.6638655462184874" stroke="black" d="M 218 72 111 107"/>
<path stroke-width="0.6638655462184874" stroke="black" d="M 218 72 246 152"/>
<path stroke-width="0.6638655462184874" stroke="black" d="M 352 109 218 72"/>
<path stroke-width="0.6638655462184874" stroke="black" d="M 352 109 214 180"/>
<path stroke-width="0.6638655462184874" stroke="black" d="M 352 109 190 125"/>
<path stroke-width="0.6638655462184874" stroke="black" d="M 352 109 118 166"/>
<path stroke-width="0.6638655462184874" stroke="black" d="M 352 109 146 71"/>
<path stroke-width="0.6638655462184874" stroke="black" d="M 352 109 172 198"/>
<path stroke-width="10.823529411764707" stroke="black" d="M 327 64 279 92"/>
<path stroke-width="0.6638655462184874" stroke="black" d="M 279 92 207 142"/>
<path stroke-width="0.6638655462184874" stroke="black" d="M 279 92 268 169"/>
<path stroke-width="0.6638655462184874" stroke="black" d="M 279 92 195 86"/>
<path stroke-width="0.6638655462184874" stroke="black" d="M 279 92 246 152"/>
<path stroke-width="0.6638655462184874" stroke="black" d="M 279 92 83 102"/>
<path stroke-width="1.1554621848739495" stroke="black" d="M 218 72 83 102"/>
<path stroke-width="1.1554621848739495" stroke="black" d="M 279 92 111 107"/>
<path stroke-width="0.6638655462184874" stroke="black" d="M 279 92 352 109"/>
<path stroke-width="10.823529411764707" stroke="black" d="M 279 92 327 64"/>
<path stroke-width="0.6638655462184874" stroke="black" d="M 279 92 218 72"/>
<path stroke-width="0.6638655462184874" stroke="black" d="M 279 92 214 180"/>
<path stroke-width="0.6638655462184874" stroke="black" d="M 279 92 190 125"/>
<path stroke-width="0.6638655462184874" stroke="black" d="M 279 92 118 166"/>
<path stroke-width="0.6638655462184874" stroke="black" d="M 279 92 146 71"/>
<path stroke-width="0.6638655462184874" stroke="black" d="M 279 92 172 198"/>
<path stroke-width="9.512605042016807" stroke="black" d="M 229 34 218 72"/>
<path stroke-width="0.6638655462184874" stroke="black" d="M 218 72 207 142"/>
<path stroke-width="0.6638655462184874" stroke="black" d="M 218 72 268 169"/>
<path stroke-width="0.6638655462184874" stroke="black" d="M 218 72 195 86"/>
<path stroke-width="0.6638655462184874" stroke="black" d="M 279 92 294 96"/>
<path stroke-width="0.6638655462184874" stroke="black" d="M 352 109 279 92"/>
<path stroke-width="1.1554621848739495" stroke="black" d="M 190 125 195 86"/>
<path stroke-width="0.6638655462184874" stroke="black" d="M 190 125 83 102"/>
<path stroke-width="0.6638655462184874" stroke="black" d="M 146 71 246 152"/>
<path stroke-width="0.6638655462184874" stroke="black" d="M 146 71 83 102"/>
<path stroke-width="0.6638655462184874" stroke="black" d="M 146 71 111 107"/>
<path stroke-width="0.6638655462184874" stroke="black" d="M 146 71 294 96"/>
<path stroke-width="0.6638655462184874" stroke="black" d="M 146 71 352 109"/>
<path stroke-width="0.6638655462184874" stroke="black" d="M 146 71 279 92"/>
<path stroke-width="0.6638655462184874" stroke="black" d="M 146 71 218 72"/>
<path stroke-width="0.6638655462184874" stroke="black" d="M 146 71 214 180"/>
<path stroke-width="0.6638655462184874" stroke="black" d="M 146 71 190 125"/>
<path stroke-width="0.6638655462184874" stroke="black" d="M 146 71 118 166"/>
<path stroke-width="4.92436974789916" stroke="black" d="M 146 71 110 20"/>
<path stroke-width="0.5" stroke="black" d="M 146 71 172 198"/>
<path stroke-width="0.6638655462184874" stroke="black" d="M 146 71 195 86"/>
<path stroke-width="1.6470588235294117" stroke="black" d="M 133 320 172 198"/>
<path stroke-width="0.6638655462184874" stroke="black" d="M 172 198 268 169"/>
<path stroke-width="0.6638655462184874" stroke="black" d="M 172 198 195 86"/>
<path stroke-width="0.6638655462184874" stroke="black" d="M 172 198 246 152"/>
<path stroke-width="0.6638655462184874" stroke="black" d="M 172 198 83 102"/>
<path stroke-width="0.6638655462184874" stroke="black" d="M 172 198 111 107"/>
<path stroke-width="0.6638655462184874" stroke="black" d="M 172 198 294 96"/>
<path stroke-width="0.6638655462184874" stroke="black" d="M 172 198 352 109"/>
<path stroke-width="0.6638655462184874" stroke="black" d="M 172 198 279 92"/>
<path stroke-width="0.6638655462184874" stroke="black" d="M 172 198 218 72"/>
<path stroke-width="0.6638655462184874" stroke="black" d="M 172 198 214 180"/>
<path stroke-width="0.6638655462184874" stroke="black" d="M 172 198 190 125"/>
<path stroke-width="0.6638655462184874" stroke="black" d="M 172 198 118 166"/>
<path stroke-width="0.6638655462184874" stroke="black" d="M 172 198 207 142"/>
<path stroke-width="0.6638655462184874" stroke="black" d="M 190 125 246 152"/>
<path stroke-width="0.6638655462184874" stroke="black" d="M 146 71 268 169"/>
<path stroke-width="4.92436974789916" stroke="black" d="M 110 20 146 71"/>
<path stroke-width="0.6638655462184874" stroke="black" d="M 190 125 111 107"/>
<path stroke-width="0.6638655462184874" stroke="black" d="M 190 125 294 96"/>
<path stroke-width="0.6638655462184874" stroke="black" d="M 190 125 352 109"/>
<path stroke-width="0.6638655462184874" stroke="black" d="M 190 125 279 92"/>
<path stroke-width="0.6638655462184874" stroke="black" d="M 190 125 218 72"/>
<path stroke-width="0.6638655462184874" stroke="black" d="M 190 125 214 180"/>
<path stroke-width="6.890756302521009" stroke="black" d="M 190 125 193 107"/>
<path stroke-width="0.6638655462184874" stroke="black" d="M 190 125 118 166"/>
<path stroke-width="0.6638655462184874" stroke="black" d="M 190 125 146 71"/>
<path stroke-width="0.6638655462184874" stroke="black" d="M 190 125 172 198"/>
<path stroke-width="5.579831932773109" stroke="black" d="M 52 210 118 166"/>
<path stroke-width="0.6638655462184874" stroke="black" d="M 118 166 207 142"/>
<path stroke-width="1.1554621848739495" stroke="black" d="M 146 71 207 142"/>
<path stroke-width="1.1554621848739495" stroke="black" d="M 118 166 268 169"/>
<path stroke-width="0.6638655462184874" stroke="black" d="M 118 166 246 152"/>
<path stroke-width="0.6638655462184874" stroke="black" d="M 118 166 83 102"/>
<path stroke-width="0.6638655462184874" stroke="black" d="M 118 166 111 107"/>
<path stroke-width="0.6638655462184874" stroke="black" d="M 118 166 294 96"/>
<path stroke-width="0.6638655462184874" stroke="black" d="M 118 166 352 109"/>
<path stroke-width="0.6638655462184874" stroke="black" d="M 118 166 279 92"/>
<path stroke-width="0.6638655462184874" stroke="black" d="M 118 166 218 72"/>
<path stroke-width="0.6638655462184874" stroke="black" d="M 118 166 214 180"/>
<path stroke-width="0.6638655462184874" stroke="black" d="M 118 166 190 125"/>
<path stroke-width="5.579831932773109" stroke="black" d="M 118 166 52 210"/>
<path stroke-width="0.6638655462184874" stroke="black" d="M 118 166 146 71"/>
<path stroke-width="0.6638655462184874" stroke="black" d="M 118 166 172 198"/>
<path stroke-width="0.6638655462184874" stroke="black" d="M 118 166 195 86"/>
<path stroke-width="12.134453781512605" stroke="black" d="M 352 109 420 93"/>
<path stroke-width="1.1554621848739495" stroke="black" d="M 352 109 294 96"/>
<path stroke-width="0.6638655462184874" stroke="black" d="M 352 109 111 107"/>
<path stroke-width="0.6638655462184874" stroke="black" d="M 268 169 172 198"/>
<path stroke-width="18.03361344537815" stroke="black" d="M 194 60 195 86"/>
<path stroke-width="0.6638655462184874" stroke="black" d="M 195 86 207 142"/>
<path stroke-width="0.6638655462184874" stroke="black" d="M 195 86 268 169"/>
<path stroke-width="18.03361344537815" stroke="black" d="M 195 86 194 60"/>
<path stroke-width="0.6638655462184874" stroke="black" d="M 195 86 246 152"/>
<path stroke-width="0.6638655462184874" stroke="black" d="M 195 86 83 102"/>
<path stroke-width="0.6638655462184874" stroke="black" d="M 195 86 111 107"/>
<path stroke-width="0.6638655462184874" stroke="black" d="M 195 86 294 96"/>
<path stroke-width="0.6638655462184874" stroke="black" d="M 195 86 352 109"/>
<path stroke-width="0.6638655462184874" stroke="black" d="M 195 86 279 92"/>
<path stroke-width="0.6638655462184874" stroke="black" d="M 195 86 218 72"/>
<path stroke-width="0.6638655462184874" stroke="black" d="M 268 169 146 71"/>
<path stroke-width="0.6638655462184874" stroke="black" d="M 195 86 214 180"/>
<path stroke-width="0.6638655462184874" stroke="black" d="M 195 86 118 166"/>
<path stroke-width="0.6638655462184874" stroke="black" d="M 195 86 146 71"/>
<path stroke-width="0.6638655462184874" stroke="black" d="M 195 86 172 198"/>
<path stroke-width="16.722689075630253" stroke="black" d="M 274 170 246 152"/>
<path stroke-width="0.6638655462184874" stroke="black" d="M 246 152 207 142"/>
<path stroke-width="0.6638655462184874" stroke="black" d="M 246 152 268 169"/>
<path stroke-width="0.6638655462184874" stroke="black" d="M 246 152 195 86"/>
<path stroke-width="16.722689075630253" stroke="black" d="M 246 152 274 170"/>
<path stroke-width="0.6638655462184874" stroke="black" d="M 246 152 83 102"/>
<path stroke-width="0.6638655462184874" stroke="black" d="M 246 152 111 107"/>
<path stroke-width="0.6638655462184874" stroke="black" d="M 246 152 294 96"/>
<path stroke-width="0.6638655462184874" stroke="black" d="M 246 152 352 109"/>
<path stroke-width="1.1554621848739495" stroke="black" d="M 195 86 190 125"/>
<path stroke-width="0.6638655462184874" stroke="black" d="M 246 152 279 92"/>
<path stroke-width="1.1554621848739495" stroke="black" d="M 268 169 118 166"/>
<path stroke-width="0.6638655462184874" stroke="black" d="M 268 169 214 180"/>
<path stroke-width="20.0" stroke="black" d="M 207 142 242 136"/>
<path stroke-width="0.6638655462184874" stroke="black" d="M 207 142 268 169"/>
<path stroke-width="0.6638655462184874" stroke="black" d="M 207 142 195 86"/>
<path stroke-width="0.6638655462184874" stroke="black" d="M 207 142 246 152"/>
<path stroke-width="0.6638655462184874" stroke="black" d="M 207 142 83 102"/>
<path stroke-width="0.6638655462184874" stroke="black" d="M 207 142 111 107"/>
<path stroke-width="0.6638655462184874" stroke="black" d="M 207 142 294 96"/>
<path stroke-width="0.6638655462184874" stroke="black" d="M 207 142 352 109"/>
<path stroke-width="0.6638655462184874" stroke="black" d="M 207 142 279 92"/>
<path stroke-width="0.6638655462184874" stroke="black" d="M 207 142 218 72"/>
<path stroke-width="0.6638655462184874" stroke="black" d="M 207 142 214 180"/>
<path stroke-width="0.6638655462184874" stroke="black" d="M 207 142 190 125"/>
<path stroke-width="0.6638655462184874" stroke="black" d="M 268 169 190 125"/>
<path stroke-width="0.6638655462184874" stroke="black" d="M 207 142 118 166"/>
<path stroke-width="0.6638655462184874" stroke="black" d="M 207 142 172 198"/>
<path stroke-width="19.34453781512605" stroke="black" d="M 298 192 268 169"/>
<path stroke-width="0.6638655462184874" stroke="black" d="M 268 169 207 142"/>
<path stroke-width="19.34453781512605" stroke="black" d="M 268 169 298 192"/>
<path stroke-width="0.6638655462184874" stroke="black" d="M 268 169 195 86"/>
<path stroke-width="0.6638655462184874" stroke="black" d="M 268 169 246 152"/>
<path stroke-width="0.6638655462184874" stroke="black" d="M 268 169 83 102"/>
<path stroke-width="0.6638655462184874" stroke="black" d="M 268 169 111 107"/>
<path stroke-width="0.6638655462184874" stroke="black" d="M 268 169 294 96"/>
<path stroke-width="0.6638655462184874" stroke="black" d="M 268 169 352 109"/>
<path stroke-width="0.6638655462184874" stroke="black" d="M 268 169 279 92"/>
<path stroke-width="0.6638655462184874" stroke="black" d="M 268 169 218 72"/>
<path stroke-width="1.1554621848739495" stroke="black" d="M 207 142 146 71"/>
<path stroke-width="0.6638655462184874" stroke="black" d="M 246 152 218 72"/>
<path stroke-width="1.1554621848739495" stroke="black" d="M 246 152 214 180"/>
<path stroke-width="0.6638655462184874" stroke="black" d="M 246 152 190 125"/>
<path stroke-width="0.6638655462184874" stroke="black" d="M 111 107 190 125"/>
<path stroke-width="0.6638655462184874" stroke="black" d="M 111 107 118 166"/>
<path stroke-width="0.6638655462184874" stroke="black" d="M 111 107 146 71"/>
<path stroke-width="0.6638655462184874" stroke="black" d="M 111 107 172 198"/>
<path stroke-width="12.789915966386555" stroke="black" d="M 337 72 294 96"/>
<path stroke-width="0.6638655462184874" stroke="black" d="M 294 96 207 142"/>
<path stroke-width="0.6638655462184874" stroke="black" d="M 294 96 268 169"/>
<path stroke-width="0.6638655462184874" stroke="black" d="M 294 96 195 86"/>
<path stroke-width="0.6638655462184874" stroke="black" d="M 294 96 246 152"/>
<path stroke-width="0.6638655462184874" stroke="black" d="M 294 96 83 102"/>
<path stroke-width="0.6638655462184874" stroke="black" d="M 294 96 111 107"/>
<path stroke-width="12.789915966386555" stroke="black" d="M 294 96 337 72"/>
<path stroke-width="0.6638655462184874" stroke="black" d="M 111 107 214 180"/>
<path stroke-width="1.1554621848739495" stroke="black" d="M 294 96 352 109"/>
<path stroke-width="0.6638655462184874" stroke="black" d="M 294 96 218 72"/>
<path stroke-width="0.6638655462184874" stroke="black" d="M 294 96 214 180"/>
<path stroke-width="0.6638655462184874" stroke="black" d="M 294 96 190 125"/>
<path stroke-width="0.6638655462184874" stroke="black" d="M 294 96 118 166"/>
<path stroke-width="0.6638655462184874" stroke="black" d="M 294 96 146 71"/>
<path stroke-width="0.6638655462184874" stroke="black" d="M 294 96 172 198"/>
<path stroke-width="12.134453781512605" stroke="black" d="M 420 93 352 109"/>
<path stroke-width="0.6638655462184874" stroke="black" d="M 352 109 207 142"/>
<path stroke-width="0.6638655462184874" stroke="black" d="M 352 109 268 169"/>
<path stroke-width="0.6638655462184874" stroke="black" d="M 352 109 195 86"/>
<path stroke-width="0.6638655462184874" stroke="black" d="M 352 109 246 152"/>
<path stroke-width="0.6638655462184874" stroke="black" d="M 352 109 83 102"/>
<path stroke-width="0.6638655462184874" stroke="black" d="M 294 96 279 92"/>
<path stroke-width="0.6638655462184874" stroke="black" d="M 111 107 218 72"/>
<path stroke-width="1.1554621848739495" stroke="black" d="M 111 107 279 92"/>
<path stroke-width="0.6638655462184874" stroke="black" d="M 111 107 352 109"/>
<path stroke-width="0.6638655462184874" stroke="black" d="M 246 152 118 166"/>
<path stroke-width="0.6638655462184874" stroke="black" d="M 246 152 146 71"/>
<path stroke-width="0.6638655462184874" stroke="black" d="M 246 152 172 198"/>
<path stroke-width="15.411764705882353" stroke="black" d="M 20 83 83 102"/>
<path stroke-width="0.6638655462184874" stroke="black" d="M 83 102 207 142"/>
<path stroke-width="0.6638655462184874" stroke="black" d="M 83 102 268 169"/>
<path stroke-width="0.6638655462184874" stroke="black" d="M 83 102 195 86"/>
<path stroke-width="0.6638655462184874" stroke="black" d="M 83 102 246 152"/>
<path stroke-width="15.411764705882353" stroke="black" d="M 83 102 20 83"/>
<path stroke-width="0.6638655462184874" stroke="black" d="M 83 102 111 107"/>
<path stroke-width="0.6638655462184874" stroke="black" d="M 83 102 294 96"/>
<path stroke-width="0.6638655462184874" stroke="black" d="M 83 102 352 109"/>
<path stroke-width="0.6638655462184874" stroke="black" d="M 83 102 279 92"/>
<path stroke-width="1.1554621848739495" stroke="black" d="M 83 102 218 72"/>
<path stroke-width="0.6638655462184874" stroke="black" d="M 83 102 214 180"/>
<path stroke-width="0.6638655462184874" stroke="black" d="M 83 102 190 125"/>
<path stroke-width="0.6638655462184874" stroke="black" d="M 83 102 118 166"/>
<path stroke-width="0.6638655462184874" stroke="black" d="M 83 102 146 71"/>
<path stroke-width="0.6638655462184874" stroke="black" d="M 83 102 172 198"/>
<path stroke-width="14.100840336134453" stroke="black" d="M 54 87 111 107"/>
<path stroke-width="0.6638655462184874" stroke="black" d="M 111 107 207 142"/>
<path stroke-width="0.6638655462184874" stroke="black" d="M 111 107 268 169"/>
<path stroke-width="0.6638655462184874" stroke="black" d="M 111 107 195 86"/>
<path stroke-width="0.6638655462184874" stroke="black" d="M 111 107 246 152"/>
<path stroke-width="0.6638655462184874" stroke="black" d="M 111 107 83 102"/>
<path stroke-width="14.100840336134453" stroke="black" d="M 111 107 54 87"/>
<path stroke-width="0.6638655462184874" stroke="black" d="M 111 107 294 96"/>
<path stroke-width="0.5" stroke="black" d="M 172 198 146 71"/>
<path stroke-width="1.6470588235294117" stroke="black" d="M 172 198 133 320"/>
<circle cx="242" cy="136" r="7.0" style="fill:blue;stroke:black;stroke-width:1.0"/>
<circle cx="207" cy="142" r="7.0" style="fill:blue;stroke:black;stroke-width:1.0"/>
<circle cx="298" cy="192" r="7.0" style="fill:purple;stroke:black;stroke-width:1.0"/>
<circle cx="268" cy="169" r="7.0" style="fill:purple;stroke:black;stroke-width:1.0"/>
<circle cx="194" cy="60" r="7.0" style="fill:blue;stroke:black;stroke-width:1.0"/>
<circle cx="195" cy="86" r="7.0" style="fill:blue;stroke:black;stroke-width:1.0"/>
<circle cx="274" cy="170" r="7.0" style="fill:green;stroke:black;stroke-width:1.0"/>
<circle cx="246" cy="152" r="7.0" style="fill:green;stroke:black;stroke-width:1.0"/>
<circle cx="20" cy="83" r="7.0" style="fill:fuchsia;stroke:black;stroke-width:1.0"/>
<circle cx="83" cy="102" r="7.0" style="fill:fuchsia;stroke:black;stroke-width:1.0"/>
<circle cx="54" cy="87" r="7.0" style="fill:yellow;stroke:black;stroke-width:1.0"/>
<circle cx="111" cy="107" r="7.0" style="fill:yellow;stroke:black;stroke-width:1.0"/>
<circle cx="337" cy="72" r="7.0" style="fill:orange;stroke:black;stroke-width:1.0"/>
<circle cx="294" cy="96" r="7.0" style="fill:orange;stroke:black;stroke-width:1.0"/>
<circle cx="420" cy="93" r="7.0" style="fill:red;stroke:black;stroke-width:1.0"/>
<circle cx="352" cy="109" r="7.0" style="fill:red;stroke:black;stroke-width:1.0"/>
<circle cx="327" cy="64" r="7.0" style="fill:yellow;stroke:black;stroke-width:1.0"/>
<circle cx="279" cy="92" r="7.0" style="fill:yellow;stroke:black;stroke-width:1.0"/>
<circle cx="229" cy="34" r="7.0" style="fill:fuchsia;stroke:black;stroke-width:1.0"/>
<circle cx="218" cy="72" r="7.0" style="fill:fuchsia;stroke:black;stroke-width:1.0"/>
<circle cx="232" cy="222" r="7.0" style="fill:green;stroke:black;stroke-width:1.0"/>
<circle cx="214" cy="180" r="7.0" style="fill:green;stroke:black;stroke-width:1.0"/>
<circle cx="193" cy="107" r="7.0" style="fill:blue;stroke:black;stroke-width:1.0"/>
<circle cx="190" cy="125" r="7.0" style="fill:blue;stroke:black;stroke-width:1.0"/>
<circle cx="52" cy="210" r="7.0" style="fill:blue;stroke:black;stroke-width:1.0"/>
<circle cx="118" cy="166" r="7.0" style="fill:blue;stroke:black;stroke-width:1.0"/>
<circle cx="110" cy="20" r="7.0" style="fill:blue;stroke:black;stroke-width:1.0"/>
<circle cx="146" cy="71" r="7.0" style="fill:blue;stroke:black;stroke-width:1.0"/>
<circle cx="133" cy="320" r="7.0" style="fill:blue;stroke:black;stroke-width:1.0"/>
<circle cx="172" cy="198" r="7.0" style="fill:blue;stroke:black;stroke-width:1.0"/>
</svg>
