<svg width="440" height="340" xmlns="http://www.w3.org/2000/svg">
<path stroke-width="1" stroke="black" d="M 152 132 226 141"/>
<path stroke-width="1" stroke="black" d="M 319 112 350 144"/>
<path stroke-width="1" stroke="black" d="M 319 112 195 65"/>
<path stroke-width="1" stroke="black" d="M 319 112 390 91"/>
<path stroke-width="1" stroke="black" d="M 319 112 153 197"/>
<path stroke-width="1" stroke="black" d="M 319 112 270 182"/>
<path stroke-width="1" stroke="black" d="M 319 112 311 152"/>
<path stroke-width="1" stroke="black" d="M 319 112 127 166"/>
<path stroke-width="1" stroke="black" d="M 319 112 306 201"/>
<path stroke-width="1" stroke="black" d="M 110 250 153 197"/>
<path stroke-width="1" stroke="black" d="M 153 197 226 141"/>
<path stroke-width="1" stroke="black" d="M 153 197 252 62"/>
<path stroke-width="1" stroke="black" d="M 153 197 129 111"/>
<path stroke-width="1" stroke="black" d="M 319 112 302 75"/>
<path stroke-width="1" stroke="black" d="M 153 197 143 91"/>
<path stroke-width="1" stroke="black" d="M 153 197 233 172"/>
<path stroke-width="1" stroke="black" d="M 153 197 302 75"/>
<path stroke-width="1" stroke="black" d="M 153 197 350 144"/>
<path stroke-width="1" stroke="black" d="M 153 197 195 65"/>
<path stroke-width="1" stroke="black" d="M 153 197 319 112"/>
<path stroke-width="1" stroke="black" d="M 153 197 110 250"/>
<path stroke-width="1" stroke="black" d="M 153 197 270 182"/>
<path stroke-width="1" stroke="black" d="M 153 197 311 152"/>
<path stroke-width="1" stroke="black" d="M 153 197 127 166"/>
<path stroke-width="1" stroke="black" d="M 153 197 306 201"/>
<path stroke-width="1" stroke="black" d="M 308 238 270 182"/>
<path stroke-width="1" stroke="black" d="M 270 182 226 141"/>
<path stroke-width="1" stroke="black" d="M 153 197 200 195"/>
<path stroke-width="1" stroke="black" d="M 270 182 252 62"/>
<path stroke-width="1" stroke="black" d="M 319 112 233 172"/>
<path stroke-width="1" stroke="black" d="M 319 112 143 91"/>
<path stroke-width="1" stroke="black" d="M 350 144 319 112"/>
<path stroke-width="1" stroke="black" d="M 350 144 153 197"/>
<path stroke-width="1" stroke="black" d="M 350 144 270 182"/>
<path stroke-width="1" stroke="black" d="M 350 144 311 152"/>
<path stroke-width="1" stroke="black" d="M 350 144 127 166"/>
<path stroke-width="1" stroke="black" d="M 350 144 306 201"/>
<path stroke-width="1" stroke="black" d="M 172 20 195 65"/>
<path stroke-width="1" stroke="black" d="M 195 65 226 141"/>
<path stroke-width="1" stroke="black" d="M 195 65 252 62"/>
<path stroke-width="1" stroke="black" d="M 195 65 129 111"/>
<path stroke-width="1" stroke="black" d="M 195 65 143 91"/>
<path stroke-width="1" stroke="black" d="M 195 65 200 195"/>
<path stroke-width="1" stroke="black" d="M 319 112 200 195"/>
<path stroke-width="1" stroke="black" d="M 195 65 233 172"/>
<path stroke-width="1" stroke="black" d="M 195 65 350 144"/>
<path stroke-width="1" stroke="black" d="M 195 65 172 20"/>
<path stroke-width="1" stroke="black" d="M 195 65 319 112"/>
<path stroke-width="1" stroke="black" d="M 195 65 153 197"/>
<path stroke-width="1" stroke="black" d="M 195 65 270 182"/>
<path stroke-width="1" stroke="black" d="M 195 65 311 152"/>
<path stroke-width="1" stroke="black" d="M 195 65 127 166"/>
<path stroke-width="1" stroke="black" d="M 195 65 306 201"/>
<path stroke-width="1" stroke="black" d="M 390 91 319 112"/>
<path stroke-width="1" stroke="black" d="M 319 112 226 141"/>
<path stroke-width="1" stroke="black" d="M 319 112 252 62"/>
<path stroke-width="1" stroke="black" d="M 319 112 129 111"/>
<path stroke-width="1" stroke="black" d="M 195 65 302 75"/>
<path stroke-width="1" stroke="black" d="M 350 144 195 65"/>
<path stroke-width="1" stroke="black" d="M 270 182 129 111"/>
<path stroke-width="1" stroke="black" d="M 270 182 200 195"/>
<path stroke-width="1" stroke="black" d="M 127 166 143 91"/>
<path stroke-width="1" stroke="black" d="M 127 166 200 195"/>
<path stroke-width="1" stroke="black" d="M 127 166 233 172"/>
<path stroke-width="1" stroke="black" d="M 127 166 302 75"/>
<path stroke-width="1" stroke="black" d="M 127 166 350 144"/>
<path stroke-width="1" stroke="black" d="M 127 166 195 65"/>
<path stroke-width="1" stroke="black" d="M 127 166 319 112"/>
<path stroke-width="1" stroke="black" d="M 127 166 153 197"/>
<path stroke-width="1" stroke="black" d="M 127 166 270 182"/>
<path stroke-width="1" stroke="black" d="M 127 166 311 152"/>
<path stroke-width="1" stroke="black" d="M 127 166 20 207"/>
<path stroke-width="1" stroke="black" d="M 127 166 306 201"/>
<path stroke-width="1" stroke="black" d="M 127 166 129 111"/>
<path stroke-width="1" stroke="black" d="M 396 320 306 201"/>
<path stroke-width="1" stroke="black" d="M 306 201 252 62"/>
<path stroke-width="1" stroke="black" d="M 306 201 129 111"/>
<path stroke-width="1" stroke="black" d="M 306 201 143 91"/>
<path stroke-width="1" stroke="black" d="M 306 201 200 195"/>
<path stroke-width="1" stroke="black" d="M 306 201 233 172"/>
<path stroke-width="1" stroke="black" d="M 306 201 302 75"/>
<path stroke-width="1" stroke="black" d="M 306 201 350 144"/>
<path stroke-width="1" stroke="black" d="M 306 201 195 65"/>
<path stroke-width="1" stroke="black" d="M 306 201 319 112"/>
<path stroke-width="1" stroke="black" d="M 306 201 153 197"/>
<path stroke-width="1" stroke="black" d="M 306 201 270 182"/>
<path stroke-width="1" stroke="black" d="M 306 201 311 152"/>
<path stroke-width="1" stroke="black" d="M 306 201 226 141"/>
<path stroke-width="1" stroke="black" d="M 270 182 143 91"/>
<path stroke-width="1" stroke="black" d="M 127 166 252 62"/>
<path stroke-width="1" stroke="black" d="M 20 207 127 166"/>
<path stroke-width="1" stroke="black" d="M 270 182 233 172"/>
<path stroke-width="1" stroke="black" d="M 270 182 302 75"/>
<path stroke-width="1" stroke="black" d="M 270 182 350 144"/>
<path stroke-width="1" stroke="black" d="M 270 182 195 65"/>
<path stroke-width="1" stroke="black" d="M 270 182 319 112"/>
<path stroke-width="1" stroke="black" d="M 270 182 153 197"/>
<path stroke-width="1" stroke="black" d="M 270 182 308 238"/>
<path stroke-width="1" stroke="black" d="M 270 182 311 152"/>
<path stroke-width="1" stroke="black" d="M 270 182 127 166"/>
<path stroke-width="1" stroke="black" d="M 270 182 306 201"/>
<path stroke-width="1" stroke="black" d="M 399 188 311 152"/>
<path stroke-width="1" stroke="black" d="M 311 152 226 141"/>
<path stroke-width="1" stroke="black" d="M 127 166 226 141"/>
<path stroke-width="1" stroke="black" d="M 311 152 252 62"/>
<path stroke-width="1" stroke="black" d="M 311 152 143 91"/>
<path stroke-width="1" stroke="black" d="M 311 152 200 195"/>
<path stroke-width="1" stroke="black" d="M 311 152 233 172"/>
<path stroke-width="1" stroke="black" d="M 311 152 302 75"/>
<path stroke-width="1" stroke="black" d="M 311 152 350 144"/>
<path stroke-width="1" stroke="black" d="M 311 152 195 65"/>
<path stroke-width="1" stroke="black" d="M 311 152 319 112"/>
<path stroke-width="1" stroke="black" d="M 311 152 153 197"/>
<path stroke-width="1" stroke="black" d="M 311 152 270 182"/>
<path stroke-width="1" stroke="black" d="M 311 152 399 188"/>
<path stroke-width="1" stroke="black" d="M 311 152 127 166"/>
<path stroke-width="1" stroke="black" d="M 311 152 306 201"/>
<path stroke-width="1" stroke="black" d="M 311 152 129 111"/>
<path stroke-width="1" stroke="black" d="M 350 144 420 155"/>
<path stroke-width="1" stroke="black" d="M 350 144 302 75"/>
<path stroke-width="1" stroke="black" d="M 350 144 233 172"/>
<path stroke-width="1" stroke="black" d="M 252 62 306 201"/>
<path stroke-width="1" stroke="black" d="M 84 92 129 111"/>
<path stroke-width="1" stroke="black" d="M 129 111 226 141"/>
<path stroke-width="1" stroke="black" d="M 129 111 252 62"/>
<path stroke-width="1" stroke="black" d="M 129 111 84 92"/>
<path stroke-width="1" stroke="black" d="M 129 111 143 91"/>
<path stroke-width="1" stroke="black" d="M 129 111 200 195"/>
<path stroke-width="1" stroke="black" d="M 129 111 233 172"/>
<path stroke-width="1" stroke="black" d="M 129 111 302 75"/>
<path stroke-width="1" stroke="black" d="M 129 111 350 144"/>
<path stroke-width="1" stroke="black" d="M 129 111 195 65"/>
<path stroke-width="1" stroke="black" d="M 129 111 319 112"/>
<path stroke-width="1" stroke="black" d="M 252 62 127 166"/>
<path stroke-width="1" stroke="black" d="M 129 111 153 197"/>
<path stroke-width="1" stroke="black" d="M 129 111 311 152"/>
<path stroke-width="1" stroke="black" d="M 129 111 127 166"/>
<path stroke-width="1" stroke="black" d="M 129 111 306 201"/>
<path stroke-width="1" stroke="black" d="M 102 62 143 91"/>
<path stroke-width="1" stroke="black" d="M 143 91 226 141"/>
<path stroke-width="1" stroke="black" d="M 143 91 252 62"/>
<path stroke-width="1" stroke="black" d="M 143 91 129 111"/>
<path stroke-width="1" stroke="black" d="M 143 91 102 62"/>
<path stroke-width="1" stroke="black" d="M 143 91 200 195"/>
<path stroke-width="1" stroke="black" d="M 143 91 233 172"/>
<path stroke-width="1" stroke="black" d="M 143 91 302 75"/>
<path stroke-width="1" stroke="black" d="M 143 91 350 144"/>
<path stroke-width="1" stroke="black" d="M 129 111 270 182"/>
<path stroke-width="1" stroke="black" d="M 143 91 195 65"/>
<path stroke-width="1" stroke="black" d="M 252 62 311 152"/>
<path stroke-width="1" stroke="black" d="M 252 62 153 197"/>
<path stroke-width="1" stroke="black" d="M 226 141 152 132"/>
<path stroke-width="1" stroke="black" d="M 226 141 252 62"/>
<path stroke-width="1" stroke="black" d="M 226 141 129 111"/>
<path stroke-width="1" stroke="black" d="M 226 141 143 91"/>
<path stroke-width="1" stroke="black" d="M 226 141 200 195"/>
<path stroke-width="1" stroke="black" d="M 226 141 233 172"/>
<path stroke-width="1" stroke="black" d="M 226 141 302 75"/>
<path stroke-width="1" stroke="black" d="M 226 141 350 144"/>
<path stroke-width="1" stroke="black" d="M 226 141 195 65"/>
<path stroke-width="1" stroke="black" d="M 226 141 319 112"/>
<path stroke-width="1" stroke="black" d="M 226 141 153 197"/>
<path stroke-width="1" stroke="black" d="M 226 141 270 182"/>
<path stroke-width="1" stroke="black" d="M 252 62 270 182"/>
<path stroke-width="1" stroke="black" d="M 226 141 311 152"/>
<path stroke-width="1" stroke="black" d="M 226 141 306 201"/>
<path stroke-width="1" stroke="black" d="M 258 30 252 62"/>
<path stroke-width="1" stroke="black" d="M 252 62 226 141"/>
<path stroke-width="1" stroke="black" d="M 252 62 258 30"/>
<path stroke-width="1" stroke="black" d="M 252 62 129 111"/>
<path stroke-width="1" stroke="black" d="M 252 62 143 91"/>
<path stroke-width="1" stroke="black" d="M 252 62 200 195"/>
<path stroke-width="1" stroke="black" d="M 252 62 233 172"/>
<path stroke-width="1" stroke="black" d="M 252 62 302 75"/>
<path stroke-width="1" stroke="black" d="M 252 62 350 144"/>
<path stroke-width="1" stroke="black" d="M 252 62 195 65"/>
<path stroke-width="1" stroke="black" d="M 252 62 319 112"/>
<path stroke-width="1" stroke="black" d="M 226 141 127 166"/>
<path stroke-width="1" stroke="black" d="M 143 91 319 112"/>
<path stroke-width="1" stroke="black" d="M 143 91 153 197"/>
<path stroke-width="1" stroke="black" d="M 143 91 270 182"/>
<path stroke-width="1" stroke="black" d="M 233 172 270 182"/>
<path stroke-width="1" stroke="black" d="M 233 172 311 152"/>
<path stroke-width="1" stroke="black" d="M 233 172 127 166"/>
<path stroke-width="1" stroke="black" d="M 233 172 306 201"/>
<path stroke-width="1" stroke="black" d="M 336 37 302 75"/>
<path stroke-width="1" stroke="black" d="M 302 75 226 141"/>
<path stroke-width="1" stroke="black" d="M 302 75 252 62"/>
<path stroke-width="1" stroke="black" d="M 302 75 129 111"/>
<path stroke-width="1" stroke="black" d="M 302 75 143 91"/>
<path stroke-width="1" stroke="black" d="M 302 75 200 195"/>
<path stroke-width="1" stroke="black" d="M 302 75 233 172"/>
<path stroke-width="1" stroke="black" d="M 302 75 336 37"/>
<path stroke-width="1" stroke="black" d="M 233 172 153 197"/>
<path stroke-width="1" stroke="black" d="M 302 75 350 144"/>
<path stroke-width="1" stroke="black" d="M 302 75 319 112"/>
<path stroke-width="1" stroke="black" d="M 302 75 153 197"/>
<path stroke-width="1" stroke="black" d="M 302 75 270 182"/>
<path stroke-width="1" stroke="black" d="M 302 75 311 152"/>
<path stroke-width="1" stroke="black" d="M 302 75 127 166"/>
<path stroke-width="1" stroke="black" d="M 302 75 306 201"/>
<path stroke-width="1" stroke="black" d="M 420 155 350 144"/>
<path stroke-width="1" stroke="black" d="M 350 144 226 141"/>
<path stroke-width="1" stroke="black" d="M 350 144 252 62"/>
<path stroke-width="1" stroke="black" d="M 350 144 129 111"/>
<path stroke-width="1" stroke="black" d="M 350 144 143 91"/>
<path stroke-width="1" stroke="black" d="M 350 144 200 195"/>
<path stroke-width="1" stroke="black" d="M 302 75 195 65"/>
<path stroke-width="1" stroke="black" d="M 233 172 319 112"/>
<path stroke-width="1" stroke="black" d="M 233 172 195 65"/>
<path stroke-width="1" stroke="black" d="M 233 172 350 144"/>
<path stroke-width="1" stroke="black" d="M 143 91 311 152"/>
<path stroke-width="1" stroke="black" d="M 143 91 127 166"/>
<path stroke-width="1" stroke="black" d="M 143 91 306 201"/>
<path stroke-width="1" stroke="black" d="M 185 233 200 195"/>
<path stroke-width="1" stroke="black" d="M 200 195 226 141"/>
<path stroke-width="1" stroke="black" d="M 200 195 252 62"/>
<path stroke-width="1" stroke="black" d="M 200 195 129 111"/>
<path stroke-width="1" stroke="black" d="M 200 195 143 91"/>
<path stroke-width="1" stroke="black" d="M 200 195 185 233"/>
<path stroke-width="1" stroke="black" d="M 200 195 233 172"/>
<path stroke-width="1" stroke="black" d="M 200 195 302 75"/>
<path stroke-width="1" stroke="black" d="M 200 195 350 144"/>
<path stroke-width="1" stroke="black" d="M 200 195 195 65"/>
<path stroke-width="1" stroke="black" d="M 200 195 319 112"/>
<path stroke-width="1" stroke="black" d="M 200 195 153 197"/>
<path stroke-width="1" stroke="black" d="M 200 195 270 182"/>
<path stroke-width="1" stroke="black" d="M 200 195 311 152"/>
<path stroke-width="1" stroke="black" d="M 200 195 127 166"/>
<path stroke-width="1" stroke="black" d="M 200 195 306 201"/>
<path stroke-width="1" stroke="black" d="M 239 212 233 172"/>
<path stroke-width="1" stroke="black" d="M 233 172 226 141"/>
<path stroke-width="1" stroke="black" d="M 233 172 252 62"/>
<path stroke-width="1" stroke="black" d="M 233 172 129 111"/>
<path stroke-width="1" stroke="black" d="M 233 172 143 91"/>
<path stroke-width="1" stroke="black" d="M 233 172 200 195"/>
<path stroke-width="1" stroke="black" d="M 233 172 239 212"/>
<path stroke-width="1" stroke="black" d="M 233 172 302 75"/>
<path stroke-width="1" stroke="black" d="M 306 201 127 166"/>
<path stroke-width="1" stroke="black" d="M 306 201 396 320"/>
<circle cx="152" cy="132" r="7.0" style="fill:blue;stroke:black;stroke-width:1.0"/>
<circle cx="226" cy="141" r="7.0" style="fill:blue;stroke:black;stroke-width:1.0"/>
<circle cx="258" cy="30" r="7.0" style="fill:purple;stroke:black;stroke-width:1.0"/>
<circle cx="252" cy="62" r="7.0" style="fill:purple;stroke:black;stroke-width:1.0"/>
<circle cx="84" cy="92" r="7.0" style="fill:blue;stroke:black;stroke-width:1.0"/>
<circle cx="129" cy="111" r="7.0" style="fill:blue;stroke:black;stroke-width:1.0"/>
<circle cx="102" cy="62" r="7.0" style="fill:green;stroke:black;stroke-width:1.0"/>
<circle cx="143" cy="91" r="7.0" style="fill:green;stroke:black;stroke-width:1.0"/>
<circle cx="185" cy="233" r="7.0" style="fill:fuchsia;stroke:black;stroke-width:1.0"/>
<circle cx="200" cy="195" r="7.0" style="fill:fuchsia;stroke:black;stroke-width:1.0"/>
<circle cx="239" cy="212" r="7.0" style="fill:yellow;stroke:black;stroke-width:1.0"/>
<circle cx="233" cy="172" r="7.0" style="fill:yellow;stroke:black;stroke-width:1.0"/>
<circle cx="336" cy="37" r="7.0" style="fill:orange;stroke:black;stroke-width:1.0"/>
<circle cx="302" cy="75" r="7.0" style="fill:orange;stroke:black;stroke-width:1.0"/>
<circle cx="420" cy="155" r="7.0" style="fill:red;stroke:black;stroke-width:1.0"/>
<circle cx="350" cy="144" r="7.0" style="fill:red;stroke:black;stroke-width:1.0"/>
<circle cx="172" cy="20" r="7.0" style="fill:yellow;stroke:black;stroke-width:1.0"/>
<circle cx="195" cy="65" r="7.0" style="fill:yellow;stroke:black;stroke-width:1.0"/>
<circle cx="390" cy="91" r="7.0" style="fill:fuchsia;stroke:black;stroke-width:1.0"/>
<circle cx="319" cy="112" r="7.0" style="fill:fuchsia;stroke:black;stroke-width:1.0"/>
<circle cx="110" cy="250" r="7.0" style="fill:green;stroke:black;stroke-width:1.0"/>
<circle cx="153" cy="197" r="7.0" style="fill:green;stroke:black;stroke-width:1.0"/>
<circle cx="308" cy="238" r="7.0" style="fill:blue;stroke:black;stroke-width:1.0"/>
<circle cx="270" cy="182" r="7.0" style="fill:blue;stroke:black;stroke-width:1.0"/>
<circle cx="399" cy="188" r="7.0" style="fill:blue;stroke:black;stroke-width:1.0"/>
<circle cx="311" cy="152" r="7.0" style="fill:blue;stroke:black;stroke-width:1.0"/>
<circle cx="20" cy="207" r="7.0" style="fill:blue;stroke:black;stroke-width:1.0"/>
<circle cx="127" cy="166" r="7.0" style="fill:blue;stroke:black;stroke-width:1.0"/>
<circle cx="396" cy="320" r="7.0" style="fill:blue;stroke:black;stroke-width:1.0"/>
<circle cx="306" cy="201" r="7.0" style="fill:blue;stroke:black;stroke-width:1.0"/>
</svg>
