<svg width="440" height="340" xmlns="http://www.w3.org/2000/svg">
<path stroke-width="20.0" stroke="black" d="M 311 180 286 183"/>
<path stroke-width="0.6638655462184874" stroke="black" d="M 192 244 305 106"/>
<path stroke-width="0.6638655462184874" stroke="black" d="M 192 244 182 178"/>
<path stroke-width="9.512605042016807" stroke="black" d="M 192 244 139 271"/>
<path stroke-width="0.6638655462184874" stroke="black" d="M 192 244 308 257"/>
<path stroke-width="0.6638655462184874" stroke="black" d="M 192 244 344 196"/>
<path stroke-width="0.6638655462184874" stroke="black" d="M 192 244 200 142"/>
<path stroke-width="0.6638655462184874" stroke="black" d="M 192 244 222 99"/>
<path stroke-width="0.6638655462184874" stroke="black" d="M 192 244 172 248"/>
<path stroke-width="8.201680672268907" stroke="black" d="M 364 301 308 257"/>
<path stroke-width="0.6638655462184874" stroke="black" d="M 308 257 286 183"/>
<path stroke-width="0.6638655462184874" stroke="black" d="M 308 257 255 109"/>
<path stroke-width="0.6638655462184874" stroke="black" d="M 308 257 314 143"/>
<path stroke-width="0.6638655462184874" stroke="black" d="M 192 244 329 206"/>
<path stroke-width="1.1554621848739495" stroke="black" d="M 308 257 278 226"/>
<path stroke-width="0.6638655462184874" stroke="black" d="M 308 257 250 268"/>
<path stroke-width="0.6638655462184874" stroke="black" d="M 308 257 329 206"/>
<path stroke-width="0.6638655462184874" stroke="black" d="M 308 257 305 106"/>
<path stroke-width="0.6638655462184874" stroke="black" d="M 308 257 182 178"/>
<path stroke-width="0.6638655462184874" stroke="black" d="M 308 257 192 244"/>
<path stroke-width="8.201680672268907" stroke="black" d="M 308 257 364 301"/>
<path stroke-width="0.6638655462184874" stroke="black" d="M 308 257 344 196"/>
<path stroke-width="0.6638655462184874" stroke="black" d="M 308 257 200 142"/>
<path stroke-width="0.6638655462184874" stroke="black" d="M 308 257 222 99"/>
<path stroke-width="0.6638655462184874" stroke="black" d="M 308 257 172 248"/>
<path stroke-width="6.890756302521009" stroke="black" d="M 420 201 344 196"/>
<path stroke-width="0.6638655462184874" stroke="black" d="M 344 196 286 183"/>
<path stroke-width="0.6638655462184874" stroke="black" d="M 308 257 203 211"/>
<path stroke-width="0.6638655462184874" stroke="black" d="M 344 196 255 109"/>
<path stroke-width="0.6638655462184874" stroke="black" d="M 192 244 250 268"/>
<path stroke-width="0.6638655462184874" stroke="black" d="M 192 244 278 226"/>
<path stroke-width="0.6638655462184874" stroke="black" d="M 305 106 192 244"/>
<path stroke-width="0.6638655462184874" stroke="black" d="M 305 106 308 257"/>
<path stroke-width="0.6638655462184874" stroke="black" d="M 305 106 344 196"/>
<path stroke-width="0.6638655462184874" stroke="black" d="M 305 106 200 142"/>
<path stroke-width="0.6638655462184874" stroke="black" d="M 305 106 222 99"/>
<path stroke-width="0.6638655462184874" stroke="black" d="M 305 106 172 248"/>
<path stroke-width="10.823529411764707" stroke="black" d="M 132 174 182 178"/>
<path stroke-width="0.6638655462184874" stroke="black" d="M 182 178 286 183"/>
<path stroke-width="0.6638655462184874" stroke="black" d="M 182 178 255 109"/>
<path stroke-width="0.6638655462184874" stroke="black" d="M 182 178 314 143"/>
<path stroke-width="0.6638655462184874" stroke="black" d="M 182 178 278 226"/>
<path stroke-width="0.6638655462184874" stroke="black" d="M 182 178 203 211"/>
<path stroke-width="1.1554621848739495" stroke="black" d="M 192 244 203 211"/>
<path stroke-width="1.1554621848739495" stroke="black" d="M 182 178 250 268"/>
<path stroke-width="0.6638655462184874" stroke="black" d="M 182 178 305 106"/>
<path stroke-width="10.823529411764707" stroke="black" d="M 182 178 132 174"/>
<path stroke-width="0.6638655462184874" stroke="black" d="M 182 178 192 244"/>
<path stroke-width="0.6638655462184874" stroke="black" d="M 182 178 308 257"/>
<path stroke-width="0.6638655462184874" stroke="black" d="M 182 178 344 196"/>
<path stroke-width="0.6638655462184874" stroke="black" d="M 182 178 200 142"/>
<path stroke-width="0.6638655462184874" stroke="black" d="M 182 178 222 99"/>
<path stroke-width="0.6638655462184874" stroke="black" d="M 182 178 172 248"/>
<path stroke-width="9.512605042016807" stroke="black" d="M 139 271 192 244"/>
<path stroke-width="0.6638655462184874" stroke="black" d="M 192 244 286 183"/>
<path stroke-width="0.6638655462184874" stroke="black" d="M 192 244 255 109"/>
<path stroke-width="0.6638655462184874" stroke="black" d="M 192 244 314 143"/>
<path stroke-width="0.6638655462184874" stroke="black" d="M 182 178 329 206"/>
<path stroke-width="0.6638655462184874" stroke="black" d="M 305 106 182 178"/>
<path stroke-width="1.1554621848739495" stroke="black" d="M 344 196 314 143"/>
<path stroke-width="0.6638655462184874" stroke="black" d="M 344 196 203 211"/>
<path stroke-width="0.6638655462184874" stroke="black" d="M 222 99 278 226"/>
<path stroke-width="0.6638655462184874" stroke="black" d="M 222 99 203 211"/>
<path stroke-width="0.6638655462184874" stroke="black" d="M 222 99 250 268"/>
<path stroke-width="0.6638655462184874" stroke="black" d="M 222 99 329 206"/>
<path stroke-width="0.6638655462184874" stroke="black" d="M 222 99 305 106"/>
<path stroke-width="0.6638655462184874" stroke="black" d="M 222 99 182 178"/>
<path stroke-width="0.6638655462184874" stroke="black" d="M 222 99 192 244"/>
<path stroke-width="0.6638655462184874" stroke="black" d="M 222 99 308 257"/>
<path stroke-width="0.6638655462184874" stroke="black" d="M 222 99 344 196"/>
<path stroke-width="0.6638655462184874" stroke="black" d="M 222 99 200 142"/>
<path stroke-width="4.92436974789916" stroke="black" d="M 222 99 189 20"/>
<path stroke-width="0.5" stroke="black" d="M 222 99 172 248"/>
<path stroke-width="0.6638655462184874" stroke="black" d="M 222 99 314 143"/>
<path stroke-width="1.6470588235294117" stroke="black" d="M 20 296 172 248"/>
<path stroke-width="0.6638655462184874" stroke="black" d="M 172 248 255 109"/>
<path stroke-width="0.6638655462184874" stroke="black" d="M 172 248 314 143"/>
<path stroke-width="0.6638655462184874" stroke="black" d="M 172 248 278 226"/>
<path stroke-width="0.6638655462184874" stroke="black" d="M 172 248 203 211"/>
<path stroke-width="0.6638655462184874" stroke="black" d="M 172 248 250 268"/>
<path stroke-width="0.6638655462184874" stroke="black" d="M 172 248 329 206"/>
<path stroke-width="0.6638655462184874" stroke="black" d="M 172 248 305 106"/>
<path stroke-width="0.6638655462184874" stroke="black" d="M 172 248 182 178"/>
<path stroke-width="0.6638655462184874" stroke="black" d="M 172 248 192 244"/>
<path stroke-width="0.6638655462184874" stroke="black" d="M 172 248 308 257"/>
<path stroke-width="0.6638655462184874" stroke="black" d="M 172 248 344 196"/>
<path stroke-width="0.6638655462184874" stroke="black" d="M 172 248 200 142"/>
<path stroke-width="0.6638655462184874" stroke="black" d="M 172 248 286 183"/>
<path stroke-width="0.6638655462184874" stroke="black" d="M 344 196 278 226"/>
<path stroke-width="0.6638655462184874" stroke="black" d="M 222 99 255 109"/>
<path stroke-width="4.92436974789916" stroke="black" d="M 189 20 222 99"/>
<path stroke-width="0.6638655462184874" stroke="black" d="M 344 196 250 268"/>
<path stroke-width="0.6638655462184874" stroke="black" d="M 344 196 329 206"/>
<path stroke-width="0.6638655462184874" stroke="black" d="M 344 196 305 106"/>
<path stroke-width="0.6638655462184874" stroke="black" d="M 344 196 182 178"/>
<path stroke-width="0.6638655462184874" stroke="black" d="M 344 196 192 244"/>
<path stroke-width="0.6638655462184874" stroke="black" d="M 344 196 308 257"/>
<path stroke-width="6.890756302521009" stroke="black" d="M 344 196 420 201"/>
<path stroke-width="0.6638655462184874" stroke="black" d="M 344 196 200 142"/>
<path stroke-width="0.6638655462184874" stroke="black" d="M 344 196 222 99"/>
<path stroke-width="0.6638655462184874" stroke="black" d="M 344 196 172 248"/>
<path stroke-width="5.579831932773109" stroke="black" d="M 141 108 200 142"/>
<path stroke-width="0.6638655462184874" stroke="black" d="M 200 142 286 183"/>
<path stroke-width="1.1554621848739495" stroke="black" d="M 222 99 286 183"/>
<path stroke-width="1.1554621848739495" stroke="black" d="M 200 142 255 109"/>
<path stroke-width="0.6638655462184874" stroke="black" d="M 200 142 278 226"/>
<path stroke-width="0.6638655462184874" stroke="black" d="M 200 142 203 211"/>
<path stroke-width="0.6638655462184874" stroke="black" d="M 200 142 250 268"/>
<path stroke-width="0.6638655462184874" stroke="black" d="M 200 142 329 206"/>
<path stroke-width="0.6638655462184874" stroke="black" d="M 200 142 305 106"/>
<path stroke-width="0.6638655462184874" stroke="black" d="M 200 142 182 178"/>
<path stroke-width="0.6638655462184874" stroke="black" d="M 200 142 192 244"/>
<path stroke-width="0.6638655462184874" stroke="black" d="M 200 142 308 257"/>
<path stroke-width="0.6638655462184874" stroke="black" d="M 200 142 344 196"/>
<path stroke-width="5.579831932773109" stroke="black" d="M 200 142 141 108"/>
<path stroke-width="0.6638655462184874" stroke="black" d="M 200 142 222 99"/>
<path stroke-width="0.6638655462184874" stroke="black" d="M 200 142 172 248"/>
<path stroke-width="0.6638655462184874" stroke="black" d="M 200 142 314 143"/>
<path stroke-width="12.134453781512605" stroke="black" d="M 305 106 337 62"/>
<path stroke-width="1.1554621848739495" stroke="black" d="M 305 106 329 206"/>
<path stroke-width="0.6638655462184874" stroke="black" d="M 305 106 250 268"/>
<path stroke-width="0.6638655462184874" stroke="black" d="M 255 109 172 248"/>
<path stroke-width="18.03361344537815" stroke="black" d="M 348 121 314 143"/>
<path stroke-width="0.6638655462184874" stroke="black" d="M 314 143 286 183"/>
<path stroke-width="0.6638655462184874" stroke="black" d="M 314 143 255 109"/>
<path stroke-width="18.03361344537815" stroke="black" d="M 314 143 348 121"/>
<path stroke-width="0.6638655462184874" stroke="black" d="M 314 143 278 226"/>
<path stroke-width="0.6638655462184874" stroke="black" d="M 314 143 203 211"/>
<path stroke-width="0.6638655462184874" stroke="black" d="M 314 143 250 268"/>
<path stroke-width="0.6638655462184874" stroke="black" d="M 314 143 329 206"/>
<path stroke-width="0.6638655462184874" stroke="black" d="M 314 143 305 106"/>
<path stroke-width="0.6638655462184874" stroke="black" d="M 314 143 182 178"/>
<path stroke-width="0.6638655462184874" stroke="black" d="M 314 143 192 244"/>
<path stroke-width="0.6638655462184874" stroke="black" d="M 255 109 222 99"/>
<path stroke-width="0.6638655462184874" stroke="black" d="M 314 143 308 257"/>
<path stroke-width="0.6638655462184874" stroke="black" d="M 314 143 200 142"/>
<path stroke-width="0.6638655462184874" stroke="black" d="M 314 143 222 99"/>
<path stroke-width="0.6638655462184874" stroke="black" d="M 314 143 172 248"/>
<path stroke-width="16.722689075630253" stroke="black" d="M 253 221 278 226"/>
<path stroke-width="0.6638655462184874" stroke="black" d="M 278 226 286 183"/>
<path stroke-width="0.6638655462184874" stroke="black" d="M 278 226 255 109"/>
<path stroke-width="0.6638655462184874" stroke="black" d="M 278 226 314 143"/>
<path stroke-width="16.722689075630253" stroke="black" d="M 278 226 253 221"/>
<path stroke-width="0.6638655462184874" stroke="black" d="M 278 226 203 211"/>
<path stroke-width="0.6638655462184874" stroke="black" d="M 278 226 250 268"/>
<path stroke-width="0.6638655462184874" stroke="black" d="M 278 226 329 206"/>
<path stroke-width="0.6638655462184874" stroke="black" d="M 278 226 305 106"/>
<path stroke-width="1.1554621848739495" stroke="black" d="M 314 143 344 196"/>
<path stroke-width="0.6638655462184874" stroke="black" d="M 278 226 182 178"/>
<path stroke-width="1.1554621848739495" stroke="black" d="M 255 109 200 142"/>
<path stroke-width="0.6638655462184874" stroke="black" d="M 255 109 308 257"/>
<path stroke-width="20.0" stroke="black" d="M 286 183 311 180"/>
<path stroke-width="0.6638655462184874" stroke="black" d="M 286 183 255 109"/>
<path stroke-width="0.6638655462184874" stroke="black" d="M 286 183 314 143"/>
<path stroke-width="0.6638655462184874" stroke="black" d="M 286 183 278 226"/>
<path stroke-width="0.6638655462184874" stroke="black" d="M 286 183 203 211"/>
<path stroke-width="0.6638655462184874" stroke="black" d="M 286 183 250 268"/>
<path stroke-width="0.6638655462184874" stroke="black" d="M 286 183 329 206"/>
<path stroke-width="0.6638655462184874" stroke="black" d="M 286 183 305 106"/>
<path stroke-width="0.6638655462184874" stroke="black" d="M 286 183 182 178"/>
<path stroke-width="0.6638655462184874" stroke="black" d="M 286 183 192 244"/>
<path stroke-width="0.6638655462184874" stroke="black" d="M 286 183 308 257"/>
<path stroke-width="0.6638655462184874" stroke="black" d="M 286 183 344 196"/>
<path stroke-width="0.6638655462184874" stroke="black" d="M 255 109 344 196"/>
<path stroke-width="0.6638655462184874" stroke="black" d="M 286 183 200 142"/>
<path stroke-width="0.6638655462184874" stroke="black" d="M 286 183 172 248"/>
<path stroke-width="19.34453781512605" stroke="black" d="M 256 71 255 109"/>
<path stroke-width="0.6638655462184874" stroke="black" d="M 255 109 286 183"/>
<path stroke-width="19.34453781512605" stroke="black" d="M 255 109 256 71"/>
<path stroke-width="0.6638655462184874" stroke="black" d="M 255 109 314 143"/>
<path stroke-width="0.6638655462184874" stroke="black" d="M 255 109 278 226"/>
<path stroke-width="0.6638655462184874" stroke="black" d="M 255 109 203 211"/>
<path stroke-width="0.6638655462184874" stroke="black" d="M 255 109 250 268"/>
<path stroke-width="0.6638655462184874" stroke="black" d="M 255 109 329 206"/>
<path stroke-width="0.6638655462184874" stroke="black" d="M 255 109 305 106"/>
<path stroke-width="0.6638655462184874" stroke="black" d="M 255 109 182 178"/>
<path stroke-width="0.6638655462184874" stroke="black" d="M 255 109 192 244"/>
<path stroke-width="1.1554621848739495" stroke="black" d="M 286 183 222 99"/>
<path stroke-width="0.6638655462184874" stroke="black" d="M 278 226 192 244"/>
<path stroke-width="1.1554621848739495" stroke="black" d="M 278 226 308 257"/>
<path stroke-width="0.6638655462184874" stroke="black" d="M 278 226 344 196"/>
<path stroke-width="0.6638655462184874" stroke="black" d="M 250 268 344 196"/>
<path stroke-width="0.6638655462184874" stroke="black" d="M 250 268 200 142"/>
<path stroke-width="0.6638655462184874" stroke="black" d="M 250 268 222 99"/>
<path stroke-width="0.6638655462184874" stroke="black" d="M 250 268 172 248"/>
<path stroke-width="12.789915966386555" stroke="black" d="M 381 212 329 206"/>
<path stroke-width="0.6638655462184874" stroke="black" d="M 329 206 286 183"/>
<path stroke-width="0.6638655462184874" stroke="black" d="M 329 206 255 109"/>
<path stroke-width="0.6638655462184874" stroke="black" d="M 329 206 314 143"/>
<path stroke-width="0.6638655462184874" stroke="black" d="M 329 206 278 226"/>
<path stroke-width="0.6638655462184874" stroke="black" d="M 329 206 203 211"/>
<path stroke-width="0.6638655462184874" stroke="black" d="M 329 206 250 268"/>
<path stroke-width="12.789915966386555" stroke="black" d="M 329 206 381 212"/>
<path stroke-width="0.6638655462184874" stroke="black" d="M 250 268 308 257"/>
<path stroke-width="1.1554621848739495" stroke="black" d="M 329 206 305 106"/>
<path stroke-width="0.6638655462184874" stroke="black" d="M 329 206 192 244"/>
<path stroke-width="0.6638655462184874" stroke="black" d="M 329 206 308 257"/>
<path stroke-width="0.6638655462184874" stroke="black" d="M 329 206 344 196"/>
<path stroke-width="0.6638655462184874" stroke="black" d="M 329 206 200 142"/>
<path stroke-width="0.6638655462184874" stroke="black" d="M 329 206 222 99"/>
<path stroke-width="0.6638655462184874" stroke="black" d="M 329 206 172 248"/>
<path stroke-width="12.134453781512605" stroke="black" d="M 337 62 305 106"/>
<path stroke-width="0.6638655462184874" stroke="black" d="M 305 106 286 183"/>
<path stroke-width="0.6638655462184874" stroke="black" d="M 305 106 255 109"/>
<path stroke-width="0.6638655462184874" stroke="black" d="M 305 106 314 143"/>
<path stroke-width="0.6638655462184874" stroke="black" d="M 305 106 278 226"/>
<path stroke-width="0.6638655462184874" stroke="black" d="M 305 106 203 211"/>
<path stroke-width="0.6638655462184874" stroke="black" d="M 329 206 182 178"/>
<path stroke-width="0.6638655462184874" stroke="black" d="M 250 268 192 244"/>
<path stroke-width="1.1554621848739495" stroke="black" d="M 250 268 182 178"/>
<path stroke-width="0.6638655462184874" stroke="black" d="M 250 268 305 106"/>
<path stroke-width="0.6638655462184874" stroke="black" d="M 278 226 200 142"/>
<path stroke-width="0.6638655462184874" stroke="black" d="M 278 226 222 99"/>
<path stroke-width="0.6638655462184874" stroke="black" d="M 278 226 172 248"/>
<path stroke-width="15.411764705882353" stroke="black" d="M 164 218 203 211"/>
<path stroke-width="0.6638655462184874" stroke="black" d="M 203 211 286 183"/>
<path stroke-width="0.6638655462184874" stroke="black" d="M 203 211 255 109"/>
<path stroke-width="0.6638655462184874" stroke="black" d="M 203 211 314 143"/>
<path stroke-width="0.6638655462184874" stroke="black" d="M 203 211 278 226"/>
<path stroke-width="15.411764705882353" stroke="black" d="M 203 211 164 218"/>
<path stroke-width="0.6638655462184874" stroke="black" d="M 203 211 250 268"/>
<path stroke-width="0.6638655462184874" stroke="black" d="M 203 211 329 206"/>
<path stroke-width="0.6638655462184874" stroke="black" d="M 203 211 305 106"/>
<path stroke-width="0.6638655462184874" stroke="black" d="M 203 211 182 178"/>
<path stroke-width="1.1554621848739495" stroke="black" d="M 203 211 192 244"/>
<path stroke-width="0.6638655462184874" stroke="black" d="M 203 211 308 257"/>
<path stroke-width="0.6638655462184874" stroke="black" d="M 203 211 344 196"/>
<path stroke-width="0.6638655462184874" stroke="black" d="M 203 211 200 142"/>
<path stroke-width="0.6638655462184874" stroke="black" d="M 203 211 222 99"/>
<path stroke-width="0.6638655462184874" stroke="black" d="M 203 211 172 248"/>
<path stroke-width="14.100840336134453" stroke="black" d="M 255 320 250 268"/>
<path stroke-width="0.6638655462184874" stroke="black" d="M 250 268 286 183"/>
<path stroke-width="0.6638655462184874" stroke="black" d="M 250 268 255 109"/>
<path stroke-width="0.6638655462184874" stroke="black" d="M 250 268 314 143"/>
<path stroke-width="0.6638655462184874" stroke="black" d="M 250 268 278 226"/>
<path stroke-width="0.6638655462184874" stroke="black" d="M 250 268 203 211"/>
<path stroke-width="14.100840336134453" stroke="black" d="M 250 268 255 320"/>
<path stroke-width="0.6638655462184874" stroke="black" d="M 250 268 329 206"/>
<path stroke-width="0.5" stroke="black" d="M 172 248 222 99"/>
<path stroke-width="1.6470588235294117" stroke="black" d="M 172 248 20 296"/>
<circle cx="311" cy="180" r="7.0" style="fill:gray;stroke:black;stroke-width:1.0"/>
<circle cx="286" cy="183" r="7.0" style="fill:gray;stroke:black;stroke-width:1.0"/>
<circle cx="256" cy="71" r="7.0" style="fill:gray;stroke:black;stroke-width:1.0"/>
<circle cx="255" cy="109" r="7.0" style="fill:gray;stroke:black;stroke-width:1.0"/>
<circle cx="348" cy="121" r="7.0" style="fill:gray;stroke:black;stroke-width:1.0"/>
<circle cx="314" cy="143" r="7.0" style="fill:gray;stroke:black;stroke-width:1.0"/>
<circle cx="253" cy="221" r="7.0" style="fill:gray;stroke:black;stroke-width:1.0"/>
<circle cx="278" cy="226" r="7.0" style="fill:gray;stroke:black;stroke-width:1.0"/>
<circle cx="164" cy="218" r="7.0" style="fill:gray;stroke:black;stroke-width:1.0"/>
<circle cx="203" cy="211" r="7.0" style="fill:gray;stroke:black;stroke-width:1.0"/>
<circle cx="255" cy="320" r="7.0" style="fill:gray;stroke:black;stroke-width:1.0"/>
<circle cx="250" cy="268" r="7.0" style="fill:gray;stroke:black;stroke-width:1.0"/>
<circle cx="381" cy="212" r="7.0" style="fill:gray;stroke:black;stroke-width:1.0"/>
<circle cx="329" cy="206" r="7.0" style="fill:gray;stroke:black;stroke-width:1.0"/>
<circle cx="337" cy="62" r="7.0" style="fill:gray;stroke:black;stroke-width:1.0"/>
<circle cx="305" cy="106" r="7.0" style="fill:gray;stroke:black;stroke-width:1.0"/>
<circle cx="132" cy="174" r="7.0" style="fill:gray;stroke:black;stroke-width:1.0"/>
<circle cx="182" cy="178" r="7.0" style="fill:gray;stroke:black;stroke-width:1.0"/>
<circle cx="139" cy="271" r="7.0" style="fill:gray;stroke:black;stroke-width:1.0"/>
<circle cx="192" cy="244" r="7.0" style="fill:gray;stroke:black;stroke-width:1.0"/>
<circle cx="364" cy="301" r="7.0" style="fill:gray;stroke:black;stroke-width:1.0"/>
<circle cx="308" cy="257" r="7.0" style="fill:gray;stroke:black;stroke-width:1.0"/>
<circle cx="420" cy="201" r="7.0" style="fill:gray;stroke:black;stroke-width:1.0"/>
<circle cx="344" cy="196" r="7.0" style="fill:gray;stroke:black;stroke-width:1.0"/>
<circle cx="141" cy="108" r="7.0" style="fill:gray;stroke:black;stroke-width:1.0"/>
<circle cx="200" cy="142" r="7.0" style="fill:gray;stroke:black;stroke-width:1.0"/>
<circle cx="189" cy="20" r="7.0" style="fill:gray;stroke:black;stroke-width:1.0"/>
<circle cx="222" cy="99" r="7.0" style="fill:gray;stroke:black;stroke-width:1.0"/>
<circle cx="20" cy="296" r="7.0" style="fill:gray;stroke:black;stroke-width:1.0"/>
<circle cx="172" cy="248" r="7.0" style="fill:gray;stroke:black;stroke-width:1.0"/>
</svg>
