<svg width="440" height="340" xmlns="http://www.w3.org/2000/svg">
<path stroke-width="1" stroke="black" d="M 125 214 167 205"/>
<path stroke-width="1" stroke="black" d="M 163 114 234 111"/>
<path stroke-width="1" stroke="black" d="M 163 114 223 173"/>
<path stroke-width="1" stroke="black" d="M 163 114 125 64"/>
<path stroke-width="1" stroke="black" d="M 163 114 319 183"/>
<path stroke-width="1" stroke="black" d="M 163 114 147 250"/>
<path stroke-width="1" stroke="black" d="M 163 114 256 254"/>
<path stroke-width="1" stroke="black" d="M 163 114 317 226"/>
<path stroke-width="1" stroke="black" d="M 163 114 282 124"/>
<path stroke-width="1" stroke="black" d="M 415 186 319 183"/>
<path stroke-width="1" stroke="black" d="M 319 183 167 205"/>
<path stroke-width="1" stroke="black" d="M 319 183 205 245"/>
<path stroke-width="1" stroke="black" d="M 319 183 300 221"/>
<path stroke-width="1" stroke="black" d="M 163 114 123 134"/>
<path stroke-width="1" stroke="black" d="M 319 183 101 207"/>
<path stroke-width="1" stroke="black" d="M 319 183 321 147"/>
<path stroke-width="1" stroke="black" d="M 319 183 123 134"/>
<path stroke-width="1" stroke="black" d="M 319 183 234 111"/>
<path stroke-width="1" stroke="black" d="M 319 183 223 173"/>
<path stroke-width="1" stroke="black" d="M 319 183 163 114"/>
<path stroke-width="1" stroke="black" d="M 319 183 415 186"/>
<path stroke-width="1" stroke="black" d="M 319 183 147 250"/>
<path stroke-width="1" stroke="black" d="M 319 183 256 254"/>
<path stroke-width="1" stroke="black" d="M 319 183 317 226"/>
<path stroke-width="1" stroke="black" d="M 319 183 282 124"/>
<path stroke-width="1" stroke="black" d="M 91 303 147 250"/>
<path stroke-width="1" stroke="black" d="M 147 250 167 205"/>
<path stroke-width="1" stroke="black" d="M 319 183 86 164"/>
<path stroke-width="1" stroke="black" d="M 147 250 205 245"/>
<path stroke-width="1" stroke="black" d="M 163 114 321 147"/>
<path stroke-width="1" stroke="black" d="M 163 114 101 207"/>
<path stroke-width="1" stroke="black" d="M 234 111 163 114"/>
<path stroke-width="1" stroke="black" d="M 234 111 319 183"/>
<path stroke-width="1" stroke="black" d="M 234 111 147 250"/>
<path stroke-width="1" stroke="black" d="M 234 111 256 254"/>
<path stroke-width="1" stroke="black" d="M 234 111 317 226"/>
<path stroke-width="1" stroke="black" d="M 234 111 282 124"/>
<path stroke-width="1" stroke="black" d="M 216 147 223 173"/>
<path stroke-width="1" stroke="black" d="M 223 173 167 205"/>
<path stroke-width="1" stroke="black" d="M 223 173 205 245"/>
<path stroke-width="1" stroke="black" d="M 223 173 300 221"/>
<path stroke-width="1" stroke="black" d="M 223 173 101 207"/>
<path stroke-width="1" stroke="black" d="M 223 173 86 164"/>
<path stroke-width="1" stroke="black" d="M 163 114 86 164"/>
<path stroke-width="1" stroke="black" d="M 223 173 321 147"/>
<path stroke-width="1" stroke="black" d="M 223 173 234 111"/>
<path stroke-width="1" stroke="black" d="M 223 173 216 147"/>
<path stroke-width="1" stroke="black" d="M 223 173 163 114"/>
<path stroke-width="1" stroke="black" d="M 223 173 319 183"/>
<path stroke-width="1" stroke="black" d="M 223 173 147 250"/>
<path stroke-width="1" stroke="black" d="M 223 173 256 254"/>
<path stroke-width="1" stroke="black" d="M 223 173 317 226"/>
<path stroke-width="1" stroke="black" d="M 223 173 282 124"/>
<path stroke-width="1" stroke="black" d="M 125 64 163 114"/>
<path stroke-width="1" stroke="black" d="M 163 114 167 205"/>
<path stroke-width="1" stroke="black" d="M 163 114 205 245"/>
<path stroke-width="1" stroke="black" d="M 163 114 300 221"/>
<path stroke-width="1" stroke="black" d="M 223 173 123 134"/>
<path stroke-width="1" stroke="black" d="M 234 111 223 173"/>
<path stroke-width="1" stroke="black" d="M 147 250 300 221"/>
<path stroke-width="1" stroke="black" d="M 147 250 86 164"/>
<path stroke-width="1" stroke="black" d="M 317 226 101 207"/>
<path stroke-width="1" stroke="black" d="M 317 226 86 164"/>
<path stroke-width="1" stroke="black" d="M 317 226 321 147"/>
<path stroke-width="1" stroke="black" d="M 317 226 123 134"/>
<path stroke-width="1" stroke="black" d="M 317 226 234 111"/>
<path stroke-width="1" stroke="black" d="M 317 226 223 173"/>
<path stroke-width="1" stroke="black" d="M 317 226 163 114"/>
<path stroke-width="1" stroke="black" d="M 317 226 319 183"/>
<path stroke-width="1" stroke="black" d="M 317 226 147 250"/>
<path stroke-width="1" stroke="black" d="M 317 226 256 254"/>
<path stroke-width="1" stroke="black" d="M 317 226 420 270"/>
<path stroke-width="1" stroke="black" d="M 317 226 282 124"/>
<path stroke-width="1" stroke="black" d="M 317 226 300 221"/>
<path stroke-width="1" stroke="black" d="M 404 20 282 124"/>
<path stroke-width="1" stroke="black" d="M 282 124 205 245"/>
<path stroke-width="1" stroke="black" d="M 282 124 300 221"/>
<path stroke-width="1" stroke="black" d="M 282 124 101 207"/>
<path stroke-width="1" stroke="black" d="M 282 124 86 164"/>
<path stroke-width="1" stroke="black" d="M 282 124 321 147"/>
<path stroke-width="1" stroke="black" d="M 282 124 123 134"/>
<path stroke-width="1" stroke="black" d="M 282 124 234 111"/>
<path stroke-width="1" stroke="black" d="M 282 124 223 173"/>
<path stroke-width="1" stroke="black" d="M 282 124 163 114"/>
<path stroke-width="1" stroke="black" d="M 282 124 319 183"/>
<path stroke-width="1" stroke="black" d="M 282 124 147 250"/>
<path stroke-width="1" stroke="black" d="M 282 124 256 254"/>
<path stroke-width="1" stroke="black" d="M 282 124 167 205"/>
<path stroke-width="1" stroke="black" d="M 147 250 101 207"/>
<path stroke-width="1" stroke="black" d="M 317 226 205 245"/>
<path stroke-width="1" stroke="black" d="M 420 270 317 226"/>
<path stroke-width="1" stroke="black" d="M 147 250 321 147"/>
<path stroke-width="1" stroke="black" d="M 147 250 123 134"/>
<path stroke-width="1" stroke="black" d="M 147 250 234 111"/>
<path stroke-width="1" stroke="black" d="M 147 250 223 173"/>
<path stroke-width="1" stroke="black" d="M 147 250 163 114"/>
<path stroke-width="1" stroke="black" d="M 147 250 319 183"/>
<path stroke-width="1" stroke="black" d="M 147 250 91 303"/>
<path stroke-width="1" stroke="black" d="M 147 250 256 254"/>
<path stroke-width="1" stroke="black" d="M 147 250 317 226"/>
<path stroke-width="1" stroke="black" d="M 147 250 282 124"/>
<path stroke-width="1" stroke="black" d="M 297 320 256 254"/>
<path stroke-width="1" stroke="black" d="M 256 254 167 205"/>
<path stroke-width="1" stroke="black" d="M 317 226 167 205"/>
<path stroke-width="1" stroke="black" d="M 256 254 205 245"/>
<path stroke-width="1" stroke="black" d="M 256 254 101 207"/>
<path stroke-width="1" stroke="black" d="M 256 254 86 164"/>
<path stroke-width="1" stroke="black" d="M 256 254 321 147"/>
<path stroke-width="1" stroke="black" d="M 256 254 123 134"/>
<path stroke-width="1" stroke="black" d="M 256 254 234 111"/>
<path stroke-width="1" stroke="black" d="M 256 254 223 173"/>
<path stroke-width="1" stroke="black" d="M 256 254 163 114"/>
<path stroke-width="1" stroke="black" d="M 256 254 319 183"/>
<path stroke-width="1" stroke="black" d="M 256 254 147 250"/>
<path stroke-width="1" stroke="black" d="M 256 254 297 320"/>
<path stroke-width="1" stroke="black" d="M 256 254 317 226"/>
<path stroke-width="1" stroke="black" d="M 256 254 282 124"/>
<path stroke-width="1" stroke="black" d="M 256 254 300 221"/>
<path stroke-width="1" stroke="black" d="M 234 111 256 66"/>
<path stroke-width="1" stroke="black" d="M 234 111 123 134"/>
<path stroke-width="1" stroke="black" d="M 234 111 321 147"/>
<path stroke-width="1" stroke="black" d="M 205 245 282 124"/>
<path stroke-width="1" stroke="black" d="M 354 234 300 221"/>
<path stroke-width="1" stroke="black" d="M 300 221 167 205"/>
<path stroke-width="1" stroke="black" d="M 300 221 205 245"/>
<path stroke-width="1" stroke="black" d="M 300 221 354 234"/>
<path stroke-width="1" stroke="black" d="M 300 221 101 207"/>
<path stroke-width="1" stroke="black" d="M 300 221 86 164"/>
<path stroke-width="1" stroke="black" d="M 300 221 321 147"/>
<path stroke-width="1" stroke="black" d="M 300 221 123 134"/>
<path stroke-width="1" stroke="black" d="M 300 221 234 111"/>
<path stroke-width="1" stroke="black" d="M 300 221 223 173"/>
<path stroke-width="1" stroke="black" d="M 300 221 163 114"/>
<path stroke-width="1" stroke="black" d="M 205 245 317 226"/>
<path stroke-width="1" stroke="black" d="M 300 221 319 183"/>
<path stroke-width="1" stroke="black" d="M 300 221 256 254"/>
<path stroke-width="1" stroke="black" d="M 300 221 317 226"/>
<path stroke-width="1" stroke="black" d="M 300 221 282 124"/>
<path stroke-width="1" stroke="black" d="M 40 228 101 207"/>
<path stroke-width="1" stroke="black" d="M 101 207 167 205"/>
<path stroke-width="1" stroke="black" d="M 101 207 205 245"/>
<path stroke-width="1" stroke="black" d="M 101 207 300 221"/>
<path stroke-width="1" stroke="black" d="M 101 207 40 228"/>
<path stroke-width="1" stroke="black" d="M 101 207 86 164"/>
<path stroke-width="1" stroke="black" d="M 101 207 321 147"/>
<path stroke-width="1" stroke="black" d="M 101 207 123 134"/>
<path stroke-width="1" stroke="black" d="M 101 207 234 111"/>
<path stroke-width="1" stroke="black" d="M 300 221 147 250"/>
<path stroke-width="1" stroke="black" d="M 101 207 223 173"/>
<path stroke-width="1" stroke="black" d="M 205 245 256 254"/>
<path stroke-width="1" stroke="black" d="M 205 245 319 183"/>
<path stroke-width="1" stroke="black" d="M 167 205 125 214"/>
<path stroke-width="1" stroke="black" d="M 167 205 205 245"/>
<path stroke-width="1" stroke="black" d="M 167 205 300 221"/>
<path stroke-width="1" stroke="black" d="M 167 205 101 207"/>
<path stroke-width="1" stroke="black" d="M 167 205 86 164"/>
<path stroke-width="1" stroke="black" d="M 167 205 321 147"/>
<path stroke-width="1" stroke="black" d="M 167 205 123 134"/>
<path stroke-width="1" stroke="black" d="M 167 205 234 111"/>
<path stroke-width="1" stroke="black" d="M 167 205 223 173"/>
<path stroke-width="1" stroke="black" d="M 167 205 163 114"/>
<path stroke-width="1" stroke="black" d="M 167 205 319 183"/>
<path stroke-width="1" stroke="black" d="M 167 205 147 250"/>
<path stroke-width="1" stroke="black" d="M 205 245 147 250"/>
<path stroke-width="1" stroke="black" d="M 167 205 256 254"/>
<path stroke-width="1" stroke="black" d="M 167 205 282 124"/>
<path stroke-width="1" stroke="black" d="M 196 293 205 245"/>
<path stroke-width="1" stroke="black" d="M 205 245 167 205"/>
<path stroke-width="1" stroke="black" d="M 205 245 196 293"/>
<path stroke-width="1" stroke="black" d="M 205 245 300 221"/>
<path stroke-width="1" stroke="black" d="M 205 245 101 207"/>
<path stroke-width="1" stroke="black" d="M 205 245 86 164"/>
<path stroke-width="1" stroke="black" d="M 205 245 321 147"/>
<path stroke-width="1" stroke="black" d="M 205 245 123 134"/>
<path stroke-width="1" stroke="black" d="M 205 245 234 111"/>
<path stroke-width="1" stroke="black" d="M 205 245 223 173"/>
<path stroke-width="1" stroke="black" d="M 205 245 163 114"/>
<path stroke-width="1" stroke="black" d="M 167 205 317 226"/>
<path stroke-width="1" stroke="black" d="M 101 207 163 114"/>
<path stroke-width="1" stroke="black" d="M 101 207 319 183"/>
<path stroke-width="1" stroke="black" d="M 101 207 147 250"/>
<path stroke-width="1" stroke="black" d="M 321 147 147 250"/>
<path stroke-width="1" stroke="black" d="M 321 147 256 254"/>
<path stroke-width="1" stroke="black" d="M 321 147 317 226"/>
<path stroke-width="1" stroke="black" d="M 321 147 282 124"/>
<path stroke-width="1" stroke="black" d="M 65 102 123 134"/>
<path stroke-width="1" stroke="black" d="M 123 134 167 205"/>
<path stroke-width="1" stroke="black" d="M 123 134 205 245"/>
<path stroke-width="1" stroke="black" d="M 123 134 300 221"/>
<path stroke-width="1" stroke="black" d="M 123 134 101 207"/>
<path stroke-width="1" stroke="black" d="M 123 134 86 164"/>
<path stroke-width="1" stroke="black" d="M 123 134 321 147"/>
<path stroke-width="1" stroke="black" d="M 123 134 65 102"/>
<path stroke-width="1" stroke="black" d="M 321 147 319 183"/>
<path stroke-width="1" stroke="black" d="M 123 134 234 111"/>
<path stroke-width="1" stroke="black" d="M 123 134 163 114"/>
<path stroke-width="1" stroke="black" d="M 123 134 319 183"/>
<path stroke-width="1" stroke="black" d="M 123 134 147 250"/>
<path stroke-width="1" stroke="black" d="M 123 134 256 254"/>
<path stroke-width="1" stroke="black" d="M 123 134 317 226"/>
<path stroke-width="1" stroke="black" d="M 123 134 282 124"/>
<path stroke-width="1" stroke="black" d="M 256 66 234 111"/>
<path stroke-width="1" stroke="black" d="M 234 111 167 205"/>
<path stroke-width="1" stroke="black" d="M 234 111 205 245"/>
<path stroke-width="1" stroke="black" d="M 234 111 300 221"/>
<path stroke-width="1" stroke="black" d="M 234 111 101 207"/>
<path stroke-width="1" stroke="black" d="M 234 111 86 164"/>
<path stroke-width="1" stroke="black" d="M 123 134 223 173"/>
<path stroke-width="1" stroke="black" d="M 321 147 163 114"/>
<path stroke-width="1" stroke="black" d="M 321 147 223 173"/>
<path stroke-width="1" stroke="black" d="M 321 147 234 111"/>
<path stroke-width="1" stroke="black" d="M 101 207 256 254"/>
<path stroke-width="1" stroke="black" d="M 101 207 317 226"/>
<path stroke-width="1" stroke="black" d="M 101 207 282 124"/>
<path stroke-width="1" stroke="black" d="M 20 146 86 164"/>
<path stroke-width="1" stroke="black" d="M 86 164 167 205"/>
<path stroke-width="1" stroke="black" d="M 86 164 205 245"/>
<path stroke-width="1" stroke="black" d="M 86 164 300 221"/>
<path stroke-width="1" stroke="black" d="M 86 164 101 207"/>
<path stroke-width="1" stroke="black" d="M 86 164 20 146"/>
<path stroke-width="1" stroke="black" d="M 86 164 321 147"/>
<path stroke-width="1" stroke="black" d="M 86 164 123 134"/>
<path stroke-width="1" stroke="black" d="M 86 164 234 111"/>
<path stroke-width="1" stroke="black" d="M 86 164 223 173"/>
<path stroke-width="1" stroke="black" d="M 86 164 163 114"/>
<path stroke-width="1" stroke="black" d="M 86 164 319 183"/>
<path stroke-width="1" stroke="black" d="M 86 164 147 250"/>
<path stroke-width="1" stroke="black" d="M 86 164 256 254"/>
<path stroke-width="1" stroke="black" d="M 86 164 317 226"/>
<path stroke-width="1" stroke="black" d="M 86 164 282 124"/>
<path stroke-width="1" stroke="black" d="M 379 124 321 147"/>
<path stroke-width="1" stroke="black" d="M 321 147 167 205"/>
<path stroke-width="1" stroke="black" d="M 321 147 205 245"/>
<path stroke-width="1" stroke="black" d="M 321 147 300 221"/>
<path stroke-width="1" stroke="black" d="M 321 147 101 207"/>
<path stroke-width="1" stroke="black" d="M 321 147 86 164"/>
<path stroke-width="1" stroke="black" d="M 321 147 379 124"/>
<path stroke-width="1" stroke="black" d="M 321 147 123 134"/>
<path stroke-width="1" stroke="black" d="M 282 124 317 226"/>
<path stroke-width="1" stroke="black" d="M 282 124 404 20"/>
<circle cx="125" cy="214" r="7.0" style="fill:purple;stroke:black;stroke-width:1.0"/>
<circle cx="167" cy="205" r="7.0" style="fill:purple;stroke:black;stroke-width:1.0"/>
<circle cx="196" cy="293" r="7.0" style="fill:green;stroke:black;stroke-width:1.0"/>
<circle cx="205" cy="245" r="7.0" style="fill:green;stroke:black;stroke-width:1.0"/>
<circle cx="354" cy="234" r="7.0" style="fill:orange;stroke:black;stroke-width:1.0"/>
<circle cx="300" cy="221" r="7.0" style="fill:orange;stroke:black;stroke-width:1.0"/>
<circle cx="40" cy="228" r="7.0" style="fill:yellow;stroke:black;stroke-width:1.0"/>
<circle cx="101" cy="207" r="7.0" style="fill:yellow;stroke:black;stroke-width:1.0"/>
<circle cx="20" cy="146" r="7.0" style="fill:red;stroke:black;stroke-width:1.0"/>
<circle cx="86" cy="164" r="7.0" style="fill:red;stroke:black;stroke-width:1.0"/>
<circle cx="379" cy="124" r="7.0" style="fill:red;stroke:black;stroke-width:1.0"/>
<circle cx="321" cy="147" r="7.0" style="fill:red;stroke:black;stroke-width:1.0"/>
<circle cx="65" cy="102" r="7.0" style="fill:red;stroke:black;stroke-width:1.0"/>
<circle cx="123" cy="134" r="7.0" style="fill:blue;stroke:black;stroke-width:1.0"/>
<circle cx="256" cy="66" r="7.0" style="fill:blue;stroke:black;stroke-width:1.0"/>
<circle cx="234" cy="111" r="7.0" style="fill:blue;stroke:black;stroke-width:1.0"/>
<circle cx="216" cy="147" r="7.0" style="fill:red;stroke:black;stroke-width:1.0"/>
<circle cx="223" cy="173" r="7.0" style="fill:red;stroke:black;stroke-width:1.0"/>
<circle cx="125" cy="64" r="7.0" style="fill:red;stroke:black;stroke-width:1.0"/>
<circle cx="163" cy="114" r="7.0" style="fill:red;stroke:black;stroke-width:1.0"/>
<circle cx="415" cy="186" r="7.0" style="fill:red;stroke:black;stroke-width:1.0"/>
<circle cx="319" cy="183" r="7.0" style="fill:yellow;stroke:black;stroke-width:1.0"/>
<circle cx="91" cy="303" r="7.0" style="fill:fuchsia;stroke:black;stroke-width:1.0"/>
<circle cx="147" cy="250" r="7.0" style="fill:fuchsia;stroke:black;stroke-width:1.0"/>
<circle cx="297" cy="320" r="7.0" style="fill:green;stroke:black;stroke-width:1.0"/>
<circle cx="256" cy="254" r="7.0" style="fill:green;stroke:black;stroke-width:1.0"/>
<circle cx="420" cy="270" r="7.0" style="fill:purple;stroke:black;stroke-width:1.0"/>
<circle cx="317" cy="226" r="7.0" style="fill:purple;stroke:black;stroke-width:1.0"/>
<circle cx="404" cy="20" r="7.0" style="fill:red;stroke:black;stroke-width:1.0"/>
<circle cx="282" cy="124" r="7.0" style="fill:red;stroke:black;stroke-width:1.0"/>
</svg>
