<svg width="440" height="340" xmlns="http://www.w3.org/2000/svg">
<path stroke-width="20.0" stroke="black" d="M 330 176 304 174"/>
<path stroke-width="0.6638655462184874" stroke="black" d="M 214 191 214 259"/>
<path stroke-width="0.6638655462184874" stroke="black" d="M 214 191 253 268"/>
<path stroke-width="9.512605042016807" stroke="black" d="M 214 191 186 196"/>
<path stroke-width="0.6638655462184874" stroke="black" d="M 214 191 120 190"/>
<path stroke-width="0.6638655462184874" stroke="black" d="M 214 191 147 142"/>
<path stroke-width="0.6638655462184874" stroke="black" d="M 214 191 108 154"/>
<path stroke-width="0.6638655462184874" stroke="black" d="M 214 191 127 230"/>
<path stroke-width="0.6638655462184874" stroke="black" d="M 214 191 284 113"/>
<path stroke-width="8.201680672268907" stroke="black" d="M 48 197 120 190"/>
<path stroke-width="0.6638655462184874" stroke="black" d="M 120 190 304 174"/>
<path stroke-width="0.6638655462184874" stroke="black" d="M 120 190 163 91"/>
<path stroke-width="0.6638655462184874" stroke="black" d="M 120 190 269 130"/>
<path stroke-width="0.6638655462184874" stroke="black" d="M 214 191 290 245"/>
<path stroke-width="1.1554621848739495" stroke="black" d="M 120 190 212 96"/>
<path stroke-width="0.6638655462184874" stroke="black" d="M 120 190 282 211"/>
<path stroke-width="0.6638655462184874" stroke="black" d="M 120 190 290 245"/>
<path stroke-width="0.6638655462184874" stroke="black" d="M 120 190 214 259"/>
<path stroke-width="0.6638655462184874" stroke="black" d="M 120 190 253 268"/>
<path stroke-width="0.6638655462184874" stroke="black" d="M 120 190 214 191"/>
<path stroke-width="8.201680672268907" stroke="black" d="M 120 190 48 197"/>
<path stroke-width="0.6638655462184874" stroke="black" d="M 120 190 147 142"/>
<path stroke-width="0.6638655462184874" stroke="black" d="M 120 190 108 154"/>
<path stroke-width="0.6638655462184874" stroke="black" d="M 120 190 127 230"/>
<path stroke-width="0.6638655462184874" stroke="black" d="M 120 190 284 113"/>
<path stroke-width="6.890756302521009" stroke="black" d="M 78 107 147 142"/>
<path stroke-width="0.6638655462184874" stroke="black" d="M 147 142 304 174"/>
<path stroke-width="0.6638655462184874" stroke="black" d="M 120 190 165 247"/>
<path stroke-width="0.6638655462184874" stroke="black" d="M 147 142 163 91"/>
<path stroke-width="0.6638655462184874" stroke="black" d="M 214 191 282 211"/>
<path stroke-width="0.6638655462184874" stroke="black" d="M 214 191 212 96"/>
<path stroke-width="0.6638655462184874" stroke="black" d="M 214 259 214 191"/>
<path stroke-width="0.6638655462184874" stroke="black" d="M 214 259 120 190"/>
<path stroke-width="0.6638655462184874" stroke="black" d="M 214 259 147 142"/>
<path stroke-width="0.6638655462184874" stroke="black" d="M 214 259 108 154"/>
<path stroke-width="0.6638655462184874" stroke="black" d="M 214 259 127 230"/>
<path stroke-width="0.6638655462184874" stroke="black" d="M 214 259 284 113"/>
<path stroke-width="10.823529411764707" stroke="black" d="M 280 320 253 268"/>
<path stroke-width="0.6638655462184874" stroke="black" d="M 253 268 304 174"/>
<path stroke-width="0.6638655462184874" stroke="black" d="M 253 268 163 91"/>
<path stroke-width="0.6638655462184874" stroke="black" d="M 253 268 269 130"/>
<path stroke-width="0.6638655462184874" stroke="black" d="M 253 268 212 96"/>
<path stroke-width="0.6638655462184874" stroke="black" d="M 253 268 165 247"/>
<path stroke-width="1.1554621848739495" stroke="black" d="M 214 191 165 247"/>
<path stroke-width="1.1554621848739495" stroke="black" d="M 253 268 282 211"/>
<path stroke-width="0.6638655462184874" stroke="black" d="M 253 268 214 259"/>
<path stroke-width="10.823529411764707" stroke="black" d="M 253 268 280 320"/>
<path stroke-width="0.6638655462184874" stroke="black" d="M 253 268 214 191"/>
<path stroke-width="0.6638655462184874" stroke="black" d="M 253 268 120 190"/>
<path stroke-width="0.6638655462184874" stroke="black" d="M 253 268 147 142"/>
<path stroke-width="0.6638655462184874" stroke="black" d="M 253 268 108 154"/>
<path stroke-width="0.6638655462184874" stroke="black" d="M 253 268 127 230"/>
<path stroke-width="0.6638655462184874" stroke="black" d="M 253 268 284 113"/>
<path stroke-width="9.512605042016807" stroke="black" d="M 186 196 214 191"/>
<path stroke-width="0.6638655462184874" stroke="black" d="M 214 191 304 174"/>
<path stroke-width="0.6638655462184874" stroke="black" d="M 214 191 163 91"/>
<path stroke-width="0.6638655462184874" stroke="black" d="M 214 191 269 130"/>
<path stroke-width="0.6638655462184874" stroke="black" d="M 253 268 290 245"/>
<path stroke-width="0.6638655462184874" stroke="black" d="M 214 259 253 268"/>
<path stroke-width="1.1554621848739495" stroke="black" d="M 147 142 269 130"/>
<path stroke-width="0.6638655462184874" stroke="black" d="M 147 142 165 247"/>
<path stroke-width="0.6638655462184874" stroke="black" d="M 127 230 212 96"/>
<path stroke-width="0.6638655462184874" stroke="black" d="M 127 230 165 247"/>
<path stroke-width="0.6638655462184874" stroke="black" d="M 127 230 282 211"/>
<path stroke-width="0.6638655462184874" stroke="black" d="M 127 230 290 245"/>
<path stroke-width="0.6638655462184874" stroke="black" d="M 127 230 214 259"/>
<path stroke-width="0.6638655462184874" stroke="black" d="M 127 230 253 268"/>
<path stroke-width="0.6638655462184874" stroke="black" d="M 127 230 214 191"/>
<path stroke-width="0.6638655462184874" stroke="black" d="M 127 230 120 190"/>
<path stroke-width="0.6638655462184874" stroke="black" d="M 127 230 147 142"/>
<path stroke-width="0.6638655462184874" stroke="black" d="M 127 230 108 154"/>
<path stroke-width="4.92436974789916" stroke="black" d="M 127 230 40 267"/>
<path stroke-width="0.5" stroke="black" d="M 127 230 284 113"/>
<path stroke-width="0.6638655462184874" stroke="black" d="M 127 230 269 130"/>
<path stroke-width="1.6470588235294117" stroke="black" d="M 420 20 284 113"/>
<path stroke-width="0.6638655462184874" stroke="black" d="M 284 113 163 91"/>
<path stroke-width="0.6638655462184874" stroke="black" d="M 284 113 269 130"/>
<path stroke-width="0.6638655462184874" stroke="black" d="M 284 113 212 96"/>
<path stroke-width="0.6638655462184874" stroke="black" d="M 284 113 165 247"/>
<path stroke-width="0.6638655462184874" stroke="black" d="M 284 113 282 211"/>
<path stroke-width="0.6638655462184874" stroke="black" d="M 284 113 290 245"/>
<path stroke-width="0.6638655462184874" stroke="black" d="M 284 113 214 259"/>
<path stroke-width="0.6638655462184874" stroke="black" d="M 284 113 253 268"/>
<path stroke-width="0.6638655462184874" stroke="black" d="M 284 113 214 191"/>
<path stroke-width="0.6638655462184874" stroke="black" d="M 284 113 120 190"/>
<path stroke-width="0.6638655462184874" stroke="black" d="M 284 113 147 142"/>
<path stroke-width="0.6638655462184874" stroke="black" d="M 284 113 108 154"/>
<path stroke-width="0.6638655462184874" stroke="black" d="M 284 113 304 174"/>
<path stroke-width="0.6638655462184874" stroke="black" d="M 147 142 212 96"/>
<path stroke-width="0.6638655462184874" stroke="black" d="M 127 230 163 91"/>
<path stroke-width="4.92436974789916" stroke="black" d="M 40 267 127 230"/>
<path stroke-width="0.6638655462184874" stroke="black" d="M 147 142 282 211"/>
<path stroke-width="0.6638655462184874" stroke="black" d="M 147 142 290 245"/>
<path stroke-width="0.6638655462184874" stroke="black" d="M 147 142 214 259"/>
<path stroke-width="0.6638655462184874" stroke="black" d="M 147 142 253 268"/>
<path stroke-width="0.6638655462184874" stroke="black" d="M 147 142 214 191"/>
<path stroke-width="0.6638655462184874" stroke="black" d="M 147 142 120 190"/>
<path stroke-width="6.890756302521009" stroke="black" d="M 147 142 78 107"/>
<path stroke-width="0.6638655462184874" stroke="black" d="M 147 142 108 154"/>
<path stroke-width="0.6638655462184874" stroke="black" d="M 147 142 127 230"/>
<path stroke-width="0.6638655462184874" stroke="black" d="M 147 142 284 113"/>
<path stroke-width="5.579831932773109" stroke="black" d="M 20 130 108 154"/>
<path stroke-width="0.6638655462184874" stroke="black" d="M 108 154 304 174"/>
<path stroke-width="1.1554621848739495" stroke="black" d="M 127 230 304 174"/>
<path stroke-width="1.1554621848739495" stroke="black" d="M 108 154 163 91"/>
<path stroke-width="0.6638655462184874" stroke="black" d="M 108 154 212 96"/>
<path stroke-width="0.6638655462184874" stroke="black" d="M 108 154 165 247"/>
<path stroke-width="0.6638655462184874" stroke="black" d="M 108 154 282 211"/>
<path stroke-width="0.6638655462184874" stroke="black" d="M 108 154 290 245"/>
<path stroke-width="0.6638655462184874" stroke="black" d="M 108 154 214 259"/>
<path stroke-width="0.6638655462184874" stroke="black" d="M 108 154 253 268"/>
<path stroke-width="0.6638655462184874" stroke="black" d="M 108 154 214 191"/>
<path stroke-width="0.6638655462184874" stroke="black" d="M 108 154 120 190"/>
<path stroke-width="0.6638655462184874" stroke="black" d="M 108 154 147 142"/>
<path stroke-width="5.579831932773109" stroke="black" d="M 108 154 20 130"/>
<path stroke-width="0.6638655462184874" stroke="black" d="M 108 154 127 230"/>
<path stroke-width="0.6638655462184874" stroke="black" d="M 108 154 284 113"/>
<path stroke-width="0.6638655462184874" stroke="black" d="M 108 154 269 130"/>
<path stroke-width="12.134453781512605" stroke="black" d="M 214 259 212 311"/>
<path stroke-width="1.1554621848739495" stroke="black" d="M 214 259 290 245"/>
<path stroke-width="0.6638655462184874" stroke="black" d="M 214 259 282 211"/>
<path stroke-width="0.6638655462184874" stroke="black" d="M 163 91 284 113"/>
<path stroke-width="18.03361344537815" stroke="black" d="M 308 124 269 130"/>
<path stroke-width="0.6638655462184874" stroke="black" d="M 269 130 304 174"/>
<path stroke-width="0.6638655462184874" stroke="black" d="M 269 130 163 91"/>
<path stroke-width="18.03361344537815" stroke="black" d="M 269 130 308 124"/>
<path stroke-width="0.6638655462184874" stroke="black" d="M 269 130 212 96"/>
<path stroke-width="0.6638655462184874" stroke="black" d="M 269 130 165 247"/>
<path stroke-width="0.6638655462184874" stroke="black" d="M 269 130 282 211"/>
<path stroke-width="0.6638655462184874" stroke="black" d="M 269 130 290 245"/>
<path stroke-width="0.6638655462184874" stroke="black" d="M 269 130 214 259"/>
<path stroke-width="0.6638655462184874" stroke="black" d="M 269 130 253 268"/>
<path stroke-width="0.6638655462184874" stroke="black" d="M 269 130 214 191"/>
<path stroke-width="0.6638655462184874" stroke="black" d="M 163 91 127 230"/>
<path stroke-width="0.6638655462184874" stroke="black" d="M 269 130 120 190"/>
<path stroke-width="0.6638655462184874" stroke="black" d="M 269 130 108 154"/>
<path stroke-width="0.6638655462184874" stroke="black" d="M 269 130 127 230"/>
<path stroke-width="0.6638655462184874" stroke="black" d="M 269 130 284 113"/>
<path stroke-width="16.722689075630253" stroke="black" d="M 217 73 212 96"/>
<path stroke-width="0.6638655462184874" stroke="black" d="M 212 96 304 174"/>
<path stroke-width="0.6638655462184874" stroke="black" d="M 212 96 163 91"/>
<path stroke-width="0.6638655462184874" stroke="black" d="M 212 96 269 130"/>
<path stroke-width="16.722689075630253" stroke="black" d="M 212 96 217 73"/>
<path stroke-width="0.6638655462184874" stroke="black" d="M 212 96 165 247"/>
<path stroke-width="0.6638655462184874" stroke="black" d="M 212 96 282 211"/>
<path stroke-width="0.6638655462184874" stroke="black" d="M 212 96 290 245"/>
<path stroke-width="0.6638655462184874" stroke="black" d="M 212 96 214 259"/>
<path stroke-width="1.1554621848739495" stroke="black" d="M 269 130 147 142"/>
<path stroke-width="0.6638655462184874" stroke="black" d="M 212 96 253 268"/>
<path stroke-width="1.1554621848739495" stroke="black" d="M 163 91 108 154"/>
<path stroke-width="0.6638655462184874" stroke="black" d="M 163 91 120 190"/>
<path stroke-width="20.0" stroke="black" d="M 304 174 330 176"/>
<path stroke-width="0.6638655462184874" stroke="black" d="M 304 174 163 91"/>
<path stroke-width="0.6638655462184874" stroke="black" d="M 304 174 269 130"/>
<path stroke-width="0.6638655462184874" stroke="black" d="M 304 174 212 96"/>
<path stroke-width="0.6638655462184874" stroke="black" d="M 304 174 165 247"/>
<path stroke-width="0.6638655462184874" stroke="black" d="M 304 174 282 211"/>
<path stroke-width="0.6638655462184874" stroke="black" d="M 304 174 290 245"/>
<path stroke-width="0.6638655462184874" stroke="black" d="M 304 174 214 259"/>
<path stroke-width="0.6638655462184874" stroke="black" d="M 304 174 253 268"/>
<path stroke-width="0.6638655462184874" stroke="black" d="M 304 174 214 191"/>
<path stroke-width="0.6638655462184874" stroke="black" d="M 304 174 120 190"/>
<path stroke-width="0.6638655462184874" stroke="black" d="M 304 174 147 142"/>
<path stroke-width="0.6638655462184874" stroke="black" d="M 163 91 147 142"/>
<path stroke-width="0.6638655462184874" stroke="black" d="M 304 174 108 154"/>
<path stroke-width="0.6638655462184874" stroke="black" d="M 304 174 284 113"/>
<path stroke-width="19.34453781512605" stroke="black" d="M 141 84 163 91"/>
<path stroke-width="0.6638655462184874" stroke="black" d="M 163 91 304 174"/>
<path stroke-width="19.34453781512605" stroke="black" d="M 163 91 141 84"/>
<path stroke-width="0.6638655462184874" stroke="black" d="M 163 91 269 130"/>
<path stroke-width="0.6638655462184874" stroke="black" d="M 163 91 212 96"/>
<path stroke-width="0.6638655462184874" stroke="black" d="M 163 91 165 247"/>
<path stroke-width="0.6638655462184874" stroke="black" d="M 163 91 282 211"/>
<path stroke-width="0.6638655462184874" stroke="black" d="M 163 91 290 245"/>
<path stroke-width="0.6638655462184874" stroke="black" d="M 163 91 214 259"/>
<path stroke-width="0.6638655462184874" stroke="black" d="M 163 91 253 268"/>
<path stroke-width="0.6638655462184874" stroke="black" d="M 163 91 214 191"/>
<path stroke-width="1.1554621848739495" stroke="black" d="M 304 174 127 230"/>
<path stroke-width="0.6638655462184874" stroke="black" d="M 212 96 214 191"/>
<path stroke-width="1.1554621848739495" stroke="black" d="M 212 96 120 190"/>
<path stroke-width="0.6638655462184874" stroke="black" d="M 212 96 147 142"/>
<path stroke-width="0.6638655462184874" stroke="black" d="M 282 211 147 142"/>
<path stroke-width="0.6638655462184874" stroke="black" d="M 282 211 108 154"/>
<path stroke-width="0.6638655462184874" stroke="black" d="M 282 211 127 230"/>
<path stroke-width="0.6638655462184874" stroke="black" d="M 282 211 284 113"/>
<path stroke-width="12.789915966386555" stroke="black" d="M 340 274 290 245"/>
<path stroke-width="0.6638655462184874" stroke="black" d="M 290 245 304 174"/>
<path stroke-width="0.6638655462184874" stroke="black" d="M 290 245 163 91"/>
<path stroke-width="0.6638655462184874" stroke="black" d="M 290 245 269 130"/>
<path stroke-width="0.6638655462184874" stroke="black" d="M 290 245 212 96"/>
<path stroke-width="0.6638655462184874" stroke="black" d="M 290 245 165 247"/>
<path stroke-width="0.6638655462184874" stroke="black" d="M 290 245 282 211"/>
<path stroke-width="12.789915966386555" stroke="black" d="M 290 245 340 274"/>
<path stroke-width="0.6638655462184874" stroke="black" d="M 282 211 120 190"/>
<path stroke-width="1.1554621848739495" stroke="black" d="M 290 245 214 259"/>
<path stroke-width="0.6638655462184874" stroke="black" d="M 290 245 214 191"/>
<path stroke-width="0.6638655462184874" stroke="black" d="M 290 245 120 190"/>
<path stroke-width="0.6638655462184874" stroke="black" d="M 290 245 147 142"/>
<path stroke-width="0.6638655462184874" stroke="black" d="M 290 245 108 154"/>
<path stroke-width="0.6638655462184874" stroke="black" d="M 290 245 127 230"/>
<path stroke-width="0.6638655462184874" stroke="black" d="M 290 245 284 113"/>
<path stroke-width="12.134453781512605" stroke="black" d="M 212 311 214 259"/>
<path stroke-width="0.6638655462184874" stroke="black" d="M 214 259 304 174"/>
<path stroke-width="0.6638655462184874" stroke="black" d="M 214 259 163 91"/>
<path stroke-width="0.6638655462184874" stroke="black" d="M 214 259 269 130"/>
<path stroke-width="0.6638655462184874" stroke="black" d="M 214 259 212 96"/>
<path stroke-width="0.6638655462184874" stroke="black" d="M 214 259 165 247"/>
<path stroke-width="0.6638655462184874" stroke="black" d="M 290 245 253 268"/>
<path stroke-width="0.6638655462184874" stroke="black" d="M 282 211 214 191"/>
<path stroke-width="1.1554621848739495" stroke="black" d="M 282 211 253 268"/>
<path stroke-width="0.6638655462184874" stroke="black" d="M 282 211 214 259"/>
<path stroke-width="0.6638655462184874" stroke="black" d="M 212 96 108 154"/>
<path stroke-width="0.6638655462184874" stroke="black" d="M 212 96 127 230"/>
<path stroke-width="0.6638655462184874" stroke="black" d="M 212 96 284 113"/>
<path stroke-width="15.411764705882353" stroke="black" d="M 157 291 165 247"/>
<path stroke-width="0.6638655462184874" stroke="black" d="M 165 247 304 174"/>
<path stroke-width="0.6638655462184874" stroke="black" d="M 165 247 163 91"/>
<path stroke-width="0.6638655462184874" stroke="black" d="M 165 247 269 130"/>
<path stroke-width="0.6638655462184874" stroke="black" d="M 165 247 212 96"/>
<path stroke-width="15.411764705882353" stroke="black" d="M 165 247 157 291"/>
<path stroke-width="0.6638655462184874" stroke="black" d="M 165 247 282 211"/>
<path stroke-width="0.6638655462184874" stroke="black" d="M 165 247 290 245"/>
<path stroke-width="0.6638655462184874" stroke="black" d="M 165 247 214 259"/>
<path stroke-width="0.6638655462184874" stroke="black" d="M 165 247 253 268"/>
<path stroke-width="1.1554621848739495" stroke="black" d="M 165 247 214 191"/>
<path stroke-width="0.6638655462184874" stroke="black" d="M 165 247 120 190"/>
<path stroke-width="0.6638655462184874" stroke="black" d="M 165 247 147 142"/>
<path stroke-width="0.6638655462184874" stroke="black" d="M 165 247 108 154"/>
<path stroke-width="0.6638655462184874" stroke="black" d="M 165 247 127 230"/>
<path stroke-width="0.6638655462184874" stroke="black" d="M 165 247 284 113"/>
<path stroke-width="14.100840336134453" stroke="black" d="M 333 219 282 211"/>
<path stroke-width="0.6638655462184874" stroke="black" d="M 282 211 304 174"/>
<path stroke-width="0.6638655462184874" stroke="black" d="M 282 211 163 91"/>
<path stroke-width="0.6638655462184874" stroke="black" d="M 282 211 269 130"/>
<path stroke-width="0.6638655462184874" stroke="black" d="M 282 211 212 96"/>
<path stroke-width="0.6638655462184874" stroke="black" d="M 282 211 165 247"/>
<path stroke-width="14.100840336134453" stroke="black" d="M 282 211 333 219"/>
<path stroke-width="0.6638655462184874" stroke="black" d="M 282 211 290 245"/>
<path stroke-width="0.5" stroke="black" d="M 284 113 127 230"/>
<path stroke-width="1.6470588235294117" stroke="black" d="M 284 113 420 20"/>
<circle cx="330" cy="176" r="7.0" style="fill:gray;stroke:black;stroke-width:1.0"/>
<circle cx="304" cy="174" r="7.0" style="fill:gray;stroke:black;stroke-width:1.0"/>
<circle cx="141" cy="84" r="7.0" style="fill:gray;stroke:black;stroke-width:1.0"/>
<circle cx="163" cy="91" r="7.0" style="fill:gray;stroke:black;stroke-width:1.0"/>
<circle cx="308" cy="124" r="7.0" style="fill:gray;stroke:black;stroke-width:1.0"/>
<circle cx="269" cy="130" r="7.0" style="fill:gray;stroke:black;stroke-width:1.0"/>
<circle cx="217" cy="73" r="7.0" style="fill:gray;stroke:black;stroke-width:1.0"/>
<circle cx="212" cy="96" r="7.0" style="fill:gray;stroke:black;stroke-width:1.0"/>
<circle cx="157" cy="291" r="7.0" style="fill:gray;stroke:black;stroke-width:1.0"/>
<circle cx="165" cy="247" r="7.0" style="fill:gray;stroke:black;stroke-width:1.0"/>
<circle cx="333" cy="219" r="7.0" style="fill:gray;stroke:black;stroke-width:1.0"/>
<circle cx="282" cy="211" r="7.0" style="fill:gray;stroke:black;stroke-width:1.0"/>
<circle cx="340" cy="274" r="7.0" style="fill:gray;stroke:black;stroke-width:1.0"/>
<circle cx="290" cy="245" r="7.0" style="fill:gray;stroke:black;stroke-width:1.0"/>
<circle cx="212" cy="311" r="7.0" style="fill:gray;stroke:black;stroke-width:1.0"/>
<circle cx="214" cy="259" r="7.0" style="fill:gray;stroke:black;stroke-width:1.0"/>
<circle cx="280" cy="320" r="7.0" style="fill:gray;stroke:black;stroke-width:1.0"/>
<circle cx="253" cy="268" r="7.0" style="fill:gray;stroke:black;stroke-width:1.0"/>
<circle cx="186" cy="196" r="7.0" style="fill:gray;stroke:black;stroke-width:1.0"/>
<circle cx="214" cy="191" r="7.0" style="fill:gray;stroke:black;stroke-width:1.0"/>
<circle cx="48" cy="197" r="7.0" style="fill:gray;stroke:black;stroke-width:1.0"/>
<circle cx="120" cy="190" r="7.0" style="fill:gray;stroke:black;stroke-width:1.0"/>
<circle cx="78" cy="107" r="7.0" style="fill:gray;stroke:black;stroke-width:1.0"/>
<circle cx="147" cy="142" r="7.0" style="fill:gray;stroke:black;stroke-width:1.0"/>
<circle cx="20" cy="130" r="7.0" style="fill:gray;stroke:black;stroke-width:1.0"/>
<circle cx="108" cy="154" r="7.0" style="fill:gray;stroke:black;stroke-width:1.0"/>
<circle cx="40" cy="267" r="7.0" style="fill:gray;stroke:black;stroke-width:1.0"/>
<circle cx="127" cy="230" r="7.0" style="fill:gray;stroke:black;stroke-width:1.0"/>
<circle cx="420" cy="20" r="7.0" style="fill:gray;stroke:black;stroke-width:1.0"/>
<circle cx="284" cy="113" r="7.0" style="fill:gray;stroke:black;stroke-width:1.0"/>
</svg>
