<svg width="440" height="340" xmlns="http://www.w3.org/2000/svg">
<path stroke-width="20.0" stroke="black" d="M 259 58 270 60"/>
<path stroke-width="0.5" stroke="black" d="M 115 81 81 130"/>
<path stroke-width="20.0" stroke="black" d="M 115 81 111 73"/>
<path stroke-width="0.5" stroke="black" d="M 115 81 179 42"/>
<path stroke-width="20.0" stroke="black" d="M 111 73 115 81"/>
<path stroke-width="0.5" stroke="black" d="M 179 42 115 81"/>
<path stroke-width="20.0" stroke="black" d="M 179 42 172 33"/>
<path stroke-width="0.5" stroke="black" d="M 179 42 259 28"/>
<path stroke-width="20.0" stroke="black" d="M 172 33 179 42"/>
<path stroke-width="0.5" stroke="black" d="M 259 28 179 42"/>
<path stroke-width="20.0" stroke="black" d="M 72 126 81 130"/>
<path stroke-width="20.0" stroke="black" d="M 259 28 262 20"/>
<path stroke-width="20.0" stroke="black" d="M 262 20 259 28"/>
<path stroke-width="0.5" stroke="black" d="M 347 38 259 28"/>
<path stroke-width="20.0" stroke="black" d="M 347 38 362 36"/>
<path stroke-width="0.5" stroke="black" d="M 347 38 402 58"/>
<path stroke-width="20.0" stroke="black" d="M 362 36 347 38"/>
<path stroke-width="0.5" stroke="black" d="M 402 58 347 38"/>
<path stroke-width="20.0" stroke="black" d="M 402 58 420 57"/>
<path stroke-width="0.5" stroke="black" d="M 402 58 403 87"/>
<path stroke-width="20.0" stroke="black" d="M 420 57 402 58"/>
<path stroke-width="0.5" stroke="black" d="M 259 28 347 38"/>
<path stroke-width="0.5" stroke="black" d="M 81 130 115 81"/>
<path stroke-width="20.0" stroke="black" d="M 81 130 72 126"/>
<path stroke-width="0.5" stroke="black" d="M 81 130 53 185"/>
<path stroke-width="8.857142857142858" stroke="black" d="M 64 275 60 283"/>
<path stroke-width="0.5" stroke="black" d="M 51 303 60 283"/>
<path stroke-width="20.0" stroke="black" d="M 51 303 52 308"/>
<path stroke-width="0.5" stroke="black" d="M 51 303 30 311"/>
<path stroke-width="20.0" stroke="black" d="M 52 308 51 303"/>
<path stroke-width="0.5" stroke="black" d="M 30 311 51 303"/>
<path stroke-width="20.0" stroke="black" d="M 30 311 32 320"/>
<path stroke-width="0.5" stroke="black" d="M 30 311 24 280"/>
<path stroke-width="20.0" stroke="black" d="M 32 320 30 311"/>
<path stroke-width="0.5" stroke="black" d="M 24 280 30 311"/>
<path stroke-width="20.0" stroke="black" d="M 24 280 20 288"/>
<path stroke-width="0.5" stroke="black" d="M 24 280 36 235"/>
<path stroke-width="20.0" stroke="black" d="M 20 288 24 280"/>
<path stroke-width="0.5" stroke="black" d="M 36 235 24 280"/>
<path stroke-width="20.0" stroke="black" d="M 36 235 32 242"/>
<path stroke-width="0.5" stroke="black" d="M 36 235 53 185"/>
<path stroke-width="20.0" stroke="black" d="M 32 242 36 235"/>
<path stroke-width="0.5" stroke="black" d="M 53 185 36 235"/>
<path stroke-width="20.0" stroke="black" d="M 53 185 54 189"/>
<path stroke-width="0.5" stroke="black" d="M 53 185 81 130"/>
<path stroke-width="20.0" stroke="black" d="M 54 189 53 185"/>
<path stroke-width="0.5" stroke="black" d="M 403 87 402 58"/>
<path stroke-width="20.0" stroke="black" d="M 403 87 418 87"/>
<path stroke-width="0.5" stroke="black" d="M 403 87 364 111"/>
<path stroke-width="20.0" stroke="black" d="M 418 87 403 87"/>
<path stroke-width="20.0" stroke="black" d="M 199 85 189 82"/>
<path stroke-width="0.5" stroke="black" d="M 199 85 225 51"/>
<path stroke-width="20.0" stroke="black" d="M 189 82 199 85"/>
<path stroke-width="0.5" stroke="black" d="M 225 51 199 85"/>
<path stroke-width="20.0" stroke="black" d="M 225 51 220 44"/>
<path stroke-width="0.5" stroke="black" d="M 225 51 273 32"/>
<path stroke-width="20.0" stroke="black" d="M 220 44 225 51"/>
<path stroke-width="0.5" stroke="black" d="M 273 32 225 51"/>
<path stroke-width="20.0" stroke="black" d="M 273 32 281 25"/>
<path stroke-width="0.5" stroke="black" d="M 273 32 308 42"/>
<path stroke-width="20.0" stroke="black" d="M 281 25 273 32"/>
<path stroke-width="0.5" stroke="black" d="M 308 42 273 32"/>
<path stroke-width="20.0" stroke="black" d="M 308 42 320 39"/>
<path stroke-width="0.5" stroke="black" d="M 308 42 302 61"/>
<path stroke-width="20.0" stroke="black" d="M 320 39 308 42"/>
<path stroke-width="0.5" stroke="black" d="M 302 61 308 42"/>
<path stroke-width="20.0" stroke="black" d="M 302 61 307 67"/>
<path stroke-width="0.5" stroke="black" d="M 302 61 270 60"/>
<path stroke-width="20.0" stroke="black" d="M 307 67 302 61"/>
<path stroke-width="0.5" stroke="black" d="M 270 60 302 61"/>
<path stroke-width="20.0" stroke="black" d="M 270 60 259 58"/>
<path stroke-width="0.5" stroke="black" d="M 199 85 185 122"/>
<path stroke-width="0.5" stroke="black" d="M 60 283 51 303"/>
<path stroke-width="20.0" stroke="black" d="M 179 127 185 122"/>
<path stroke-width="20.0" stroke="black" d="M 185 122 179 127"/>
<path stroke-width="0.5" stroke="black" d="M 364 111 403 87"/>
<path stroke-width="20.0" stroke="black" d="M 364 111 364 107"/>
<path stroke-width="0.5" stroke="black" d="M 364 111 317 132"/>
<path stroke-width="20.0" stroke="black" d="M 364 107 364 111"/>
<path stroke-width="0.5" stroke="black" d="M 317 132 364 111"/>
<path stroke-width="20.0" stroke="black" d="M 317 132 317 138"/>
<path stroke-width="0.5" stroke="black" d="M 317 132 265 145"/>
<path stroke-width="20.0" stroke="black" d="M 317 138 317 132"/>
<path stroke-width="0.5" stroke="black" d="M 265 145 317 132"/>
<path stroke-width="20.0" stroke="black" d="M 265 145 254 145"/>
<path stroke-width="0.5" stroke="black" d="M 265 145 220 155"/>
<path stroke-width="20.0" stroke="black" d="M 254 145 265 145"/>
<path stroke-width="0.5" stroke="black" d="M 220 155 265 145"/>
<path stroke-width="20.0" stroke="black" d="M 220 155 210 158"/>
<path stroke-width="0.5" stroke="black" d="M 220 155 182 153"/>
<path stroke-width="20.0" stroke="black" d="M 210 158 220 155"/>
<path stroke-width="0.5" stroke="black" d="M 182 153 220 155"/>
<path stroke-width="20.0" stroke="black" d="M 182 153 177 161"/>
<path stroke-width="0.5" stroke="black" d="M 182 153 185 122"/>
<path stroke-width="20.0" stroke="black" d="M 177 161 182 153"/>
<path stroke-width="0.5" stroke="black" d="M 185 122 182 153"/>
<path stroke-width="0.5" stroke="black" d="M 185 122 199 85"/>
<path stroke-width="8.857142857142858" stroke="black" d="M 60 283 64 275"/>
<circle cx="259" cy="58" r="20.0" style="fill:gray;stroke:black;stroke-width:1.0"/>
<circle cx="270" cy="60" r="20.0" style="fill:gray;stroke:black;stroke-width:1.0"/>
<circle cx="307" cy="67" r="20.0" style="fill:gray;stroke:black;stroke-width:1.0"/>
<circle cx="302" cy="61" r="20.0" style="fill:gray;stroke:black;stroke-width:1.0"/>
<circle cx="320" cy="39" r="20.0" style="fill:gray;stroke:black;stroke-width:1.0"/>
<circle cx="308" cy="42" r="20.0" style="fill:gray;stroke:black;stroke-width:1.0"/>
<circle cx="281" cy="25" r="20.0" style="fill:gray;stroke:black;stroke-width:1.0"/>
<circle cx="273" cy="32" r="20.0" style="fill:gray;stroke:black;stroke-width:1.0"/>
<circle cx="220" cy="44" r="20.0" style="fill:gray;stroke:black;stroke-width:1.0"/>
<circle cx="225" cy="51" r="20.0" style="fill:gray;stroke:black;stroke-width:1.0"/>
<circle cx="189" cy="82" r="20.0" style="fill:gray;stroke:black;stroke-width:1.0"/>
<circle cx="199" cy="85" r="20.0" style="fill:gray;stroke:black;stroke-width:1.0"/>
<circle cx="179" cy="127" r="20.0" style="fill:gray;stroke:black;stroke-width:1.0"/>
<circle cx="185" cy="122" r="20.0" style="fill:gray;stroke:black;stroke-width:1.0"/>
<circle cx="177" cy="161" r="20.0" style="fill:gray;stroke:black;stroke-width:1.0"/>
<circle cx="182" cy="153" r="20.0" style="fill:gray;stroke:black;stroke-width:1.0"/>
<circle cx="210" cy="158" r="20.0" style="fill:gray;stroke:black;stroke-width:1.0"/>
<circle cx="220" cy="155" r="20.0" style="fill:gray;stroke:black;stroke-width:1.0"/>
<circle cx="254" cy="145" r="20.0" style="fill:gray;stroke:black;stroke-width:1.0"/>
<circle cx="265" cy="145" r="20.0" style="fill:gray;stroke:black;stroke-width:1.0"/>
<circle cx="317" cy="138" r="20.0" style="fill:gray;stroke:black;stroke-width:1.0"/>
<circle cx="317" cy="132" r="20.0" style="fill:gray;stroke:black;stroke-width:1.0"/>
<circle cx="364" cy="107" r="20.0" style="fill:gray;stroke:black;stroke-width:1.0"/>
<circle cx="364" cy="111" r="20.0" style="fill:gray;stroke:black;stroke-width:1.0"/>
<circle cx="418" cy="87" r="20.0" style="fill:gray;stroke:black;stroke-width:1.0"/>
<circle cx="403" cy="87" r="20.0" style="fill:gray;stroke:black;stroke-width:1.0"/>
<circle cx="420" cy="57" r="20.0" style="fill:gray;stroke:black;stroke-width:1.0"/>
<circle cx="402" cy="58" r="20.0" style="fill:gray;stroke:black;stroke-width:1.0"/>
<circle cx="362" cy="36" r="20.0" style="fill:gray;stroke:black;stroke-width:1.0"/>
<circle cx="347" cy="38" r="20.0" style="fill:gray;stroke:black;stroke-width:1.0"/>
<circle cx="262" cy="20" r="20.0" style="fill:gray;stroke:black;stroke-width:1.0"/>
<circle cx="259" cy="28" r="20.0" style="fill:gray;stroke:black;stroke-width:1.0"/>
<circle cx="172" cy="33" r="20.0" style="fill:gray;stroke:black;stroke-width:1.0"/>
<circle cx="179" cy="42" r="20.0" style="fill:gray;stroke:black;stroke-width:1.0"/>
<circle cx="111" cy="73" r="20.0" style="fill:gray;stroke:black;stroke-width:1.0"/>
<circle cx="115" cy="81" r="20.0" style="fill:gray;stroke:black;stroke-width:1.0"/>
<circle cx="72" cy="126" r="20.0" style="fill:gray;stroke:black;stroke-width:1.0"/>
<circle cx="81" cy="130" r="20.0" style="fill:gray;stroke:black;stroke-width:1.0"/>
<circle cx="54" cy="189" r="20.0" style="fill:gray;stroke:black;stroke-width:1.0"/>
<circle cx="53" cy="185" r="20.0" style="fill:gray;stroke:black;stroke-width:1.0"/>
<circle cx="32" cy="242" r="20.0" style="fill:gray;stroke:black;stroke-width:1.0"/>
<circle cx="36" cy="235" r="20.0" style="fill:gray;stroke:black;stroke-width:1.0"/>
<circle cx="20" cy="288" r="20.0" style="fill:gray;stroke:black;stroke-width:1.0"/>
<circle cx="24" cy="280" r="20.0" style="fill:gray;stroke:black;stroke-width:1.0"/>
<circle cx="32" cy="320" r="20.0" style="fill:gray;stroke:black;stroke-width:1.0"/>
<circle cx="30" cy="311" r="20.0" style="fill:gray;stroke:black;stroke-width:1.0"/>
<circle cx="52" cy="308" r="20.0" style="fill:gray;stroke:black;stroke-width:1.0"/>
<circle cx="51" cy="303" r="20.0" style="fill:gray;stroke:black;stroke-width:1.0"/>
<circle cx="64" cy="275" r="20.0" style="fill:gray;stroke:black;stroke-width:1.0"/>
<circle cx="60" cy="283" r="20.0" style="fill:gray;stroke:black;stroke-width:1.0"/>
</svg>
