<svg width="440" height="340" xmlns="http://www.w3.org/2000/svg">
<path stroke-width="1" stroke="black" d="M 27 138 41 136"/>
<path stroke-width="1" stroke="black" d="M 390 78 349 136"/>
<path stroke-width="1" stroke="black" d="M 390 78 397 69"/>
<path stroke-width="1" stroke="black" d="M 390 78 412 33"/>
<path stroke-width="1" stroke="black" d="M 397 69 390 78"/>
<path stroke-width="1" stroke="black" d="M 412 33 390 78"/>
<path stroke-width="1" stroke="black" d="M 412 33 420 20"/>
<path stroke-width="1" stroke="black" d="M 412 33 384 40"/>
<path stroke-width="1" stroke="black" d="M 420 20 412 33"/>
<path stroke-width="1" stroke="black" d="M 384 40 412 33"/>
<path stroke-width="1" stroke="black" d="M 361 128 349 136"/>
<path stroke-width="1" stroke="black" d="M 384 40 386 28"/>
<path stroke-width="1" stroke="black" d="M 386 28 384 40"/>
<path stroke-width="1" stroke="black" d="M 364 86 384 40"/>
<path stroke-width="1" stroke="black" d="M 364 86 357 76"/>
<path stroke-width="1" stroke="black" d="M 364 86 361 144"/>
<path stroke-width="1" stroke="black" d="M 357 76 364 86"/>
<path stroke-width="1" stroke="black" d="M 361 144 364 86"/>
<path stroke-width="1" stroke="black" d="M 361 144 348 146"/>
<path stroke-width="1" stroke="black" d="M 361 144 371 199"/>
<path stroke-width="1" stroke="black" d="M 348 146 361 144"/>
<path stroke-width="1" stroke="black" d="M 384 40 364 86"/>
<path stroke-width="1" stroke="black" d="M 349 136 390 78"/>
<path stroke-width="1" stroke="black" d="M 349 136 361 128"/>
<path stroke-width="1" stroke="black" d="M 349 136 301 194"/>
<path stroke-width="1" stroke="black" d="M 20 195 23 207"/>
<path stroke-width="1" stroke="black" d="M 38 238 23 207"/>
<path stroke-width="1" stroke="black" d="M 38 238 23 237"/>
<path stroke-width="1" stroke="black" d="M 38 238 85 266"/>
<path stroke-width="1" stroke="black" d="M 23 237 38 238"/>
<path stroke-width="1" stroke="black" d="M 85 266 38 238"/>
<path stroke-width="1" stroke="black" d="M 85 266 71 270"/>
<path stroke-width="1" stroke="black" d="M 85 266 163 274"/>
<path stroke-width="1" stroke="black" d="M 71 270 85 266"/>
<path stroke-width="1" stroke="black" d="M 163 274 85 266"/>
<path stroke-width="1" stroke="black" d="M 163 274 158 288"/>
<path stroke-width="1" stroke="black" d="M 163 274 237 248"/>
<path stroke-width="1" stroke="black" d="M 158 288 163 274"/>
<path stroke-width="1" stroke="black" d="M 237 248 163 274"/>
<path stroke-width="1" stroke="black" d="M 237 248 241 259"/>
<path stroke-width="1" stroke="black" d="M 237 248 301 194"/>
<path stroke-width="1" stroke="black" d="M 241 259 237 248"/>
<path stroke-width="1" stroke="black" d="M 301 194 237 248"/>
<path stroke-width="1" stroke="black" d="M 301 194 307 202"/>
<path stroke-width="1" stroke="black" d="M 301 194 349 136"/>
<path stroke-width="1" stroke="black" d="M 307 202 301 194"/>
<path stroke-width="1" stroke="black" d="M 371 199 361 144"/>
<path stroke-width="1" stroke="black" d="M 371 199 374 208"/>
<path stroke-width="1" stroke="black" d="M 371 199 371 247"/>
<path stroke-width="1" stroke="black" d="M 374 208 371 199"/>
<path stroke-width="1" stroke="black" d="M 113 262 114 270"/>
<path stroke-width="1" stroke="black" d="M 113 262 140 219"/>
<path stroke-width="1" stroke="black" d="M 114 270 113 262"/>
<path stroke-width="1" stroke="black" d="M 140 219 113 262"/>
<path stroke-width="1" stroke="black" d="M 140 219 152 218"/>
<path stroke-width="1" stroke="black" d="M 140 219 152 175"/>
<path stroke-width="1" stroke="black" d="M 152 218 140 219"/>
<path stroke-width="1" stroke="black" d="M 152 175 140 219"/>
<path stroke-width="1" stroke="black" d="M 152 175 163 168"/>
<path stroke-width="1" stroke="black" d="M 152 175 137 138"/>
<path stroke-width="1" stroke="black" d="M 163 168 152 175"/>
<path stroke-width="1" stroke="black" d="M 137 138 152 175"/>
<path stroke-width="1" stroke="black" d="M 137 138 146 130"/>
<path stroke-width="1" stroke="black" d="M 137 138 88 130"/>
<path stroke-width="1" stroke="black" d="M 146 130 137 138"/>
<path stroke-width="1" stroke="black" d="M 88 130 137 138"/>
<path stroke-width="1" stroke="black" d="M 88 130 87 122"/>
<path stroke-width="1" stroke="black" d="M 88 130 41 136"/>
<path stroke-width="1" stroke="black" d="M 87 122 88 130"/>
<path stroke-width="1" stroke="black" d="M 41 136 88 130"/>
<path stroke-width="1" stroke="black" d="M 41 136 27 138"/>
<path stroke-width="1" stroke="black" d="M 113 262 84 299"/>
<path stroke-width="1" stroke="black" d="M 23 207 38 238"/>
<path stroke-width="1" stroke="black" d="M 69 306 84 299"/>
<path stroke-width="1" stroke="black" d="M 84 299 69 306"/>
<path stroke-width="1" stroke="black" d="M 371 247 371 199"/>
<path stroke-width="1" stroke="black" d="M 371 247 384 254"/>
<path stroke-width="1" stroke="black" d="M 371 247 323 273"/>
<path stroke-width="1" stroke="black" d="M 384 254 371 247"/>
<path stroke-width="1" stroke="black" d="M 323 273 371 247"/>
<path stroke-width="1" stroke="black" d="M 323 273 335 276"/>
<path stroke-width="1" stroke="black" d="M 323 273 256 286"/>
<path stroke-width="1" stroke="black" d="M 335 276 323 273"/>
<path stroke-width="1" stroke="black" d="M 256 286 323 273"/>
<path stroke-width="1" stroke="black" d="M 256 286 256 280"/>
<path stroke-width="1" stroke="black" d="M 256 286 188 301"/>
<path stroke-width="1" stroke="black" d="M 256 280 256 286"/>
<path stroke-width="1" stroke="black" d="M 188 301 256 286"/>
<path stroke-width="1" stroke="black" d="M 188 301 183 307"/>
<path stroke-width="1" stroke="black" d="M 188 301 123 313"/>
<path stroke-width="1" stroke="black" d="M 183 307 188 301"/>
<path stroke-width="1" stroke="black" d="M 123 313 188 301"/>
<path stroke-width="1" stroke="black" d="M 123 313 109 320"/>
<path stroke-width="1" stroke="black" d="M 123 313 84 299"/>
<path stroke-width="1" stroke="black" d="M 109 320 123 313"/>
<path stroke-width="1" stroke="black" d="M 84 299 123 313"/>
<path stroke-width="1" stroke="black" d="M 84 299 113 262"/>
<path stroke-width="1" stroke="black" d="M 23 207 20 195"/>
<circle cx="27" cy="138" r="7.0" style="fill:gray;stroke:black;stroke-width:1.0"/>
<circle cx="41" cy="136" r="7.0" style="fill:gray;stroke:black;stroke-width:1.0"/>
<circle cx="87" cy="122" r="7.0" style="fill:gray;stroke:black;stroke-width:1.0"/>
<circle cx="88" cy="130" r="7.0" style="fill:gray;stroke:black;stroke-width:1.0"/>
<circle cx="146" cy="130" r="7.0" style="fill:gray;stroke:black;stroke-width:1.0"/>
<circle cx="137" cy="138" r="7.0" style="fill:gray;stroke:black;stroke-width:1.0"/>
<circle cx="163" cy="168" r="7.0" style="fill:gray;stroke:black;stroke-width:1.0"/>
<circle cx="152" cy="175" r="7.0" style="fill:gray;stroke:black;stroke-width:1.0"/>
<circle cx="152" cy="218" r="7.0" style="fill:gray;stroke:black;stroke-width:1.0"/>
<circle cx="140" cy="219" r="7.0" style="fill:gray;stroke:black;stroke-width:1.0"/>
<circle cx="114" cy="270" r="7.0" style="fill:gray;stroke:black;stroke-width:1.0"/>
<circle cx="113" cy="262" r="7.0" style="fill:gray;stroke:black;stroke-width:1.0"/>
<circle cx="69" cy="306" r="7.0" style="fill:gray;stroke:black;stroke-width:1.0"/>
<circle cx="84" cy="299" r="7.0" style="fill:gray;stroke:black;stroke-width:1.0"/>
<circle cx="109" cy="320" r="7.0" style="fill:gray;stroke:black;stroke-width:1.0"/>
<circle cx="123" cy="313" r="7.0" style="fill:gray;stroke:black;stroke-width:1.0"/>
<circle cx="183" cy="307" r="7.0" style="fill:gray;stroke:black;stroke-width:1.0"/>
<circle cx="188" cy="301" r="7.0" style="fill:gray;stroke:black;stroke-width:1.0"/>
<circle cx="256" cy="280" r="7.0" style="fill:gray;stroke:black;stroke-width:1.0"/>
<circle cx="256" cy="286" r="7.0" style="fill:gray;stroke:black;stroke-width:1.0"/>
<circle cx="335" cy="276" r="7.0" style="fill:gray;stroke:black;stroke-width:1.0"/>
<circle cx="323" cy="273" r="7.0" style="fill:gray;stroke:black;stroke-width:1.0"/>
<circle cx="384" cy="254" r="7.0" style="fill:gray;stroke:black;stroke-width:1.0"/>
<circle cx="371" cy="247" r="7.0" style="fill:gray;stroke:black;stroke-width:1.0"/>
<circle cx="374" cy="208" r="7.0" style="fill:gray;stroke:black;stroke-width:1.0"/>
<circle cx="371" cy="199" r="7.0" style="fill:gray;stroke:black;stroke-width:1.0"/>
<circle cx="348" cy="146" r="7.0" style="fill:gray;stroke:black;stroke-width:1.0"/>
<circle cx="361" cy="144" r="7.0" style="fill:gray;stroke:black;stroke-width:1.0"/>
<circle cx="357" cy="76" r="7.0" style="fill:gray;stroke:black;stroke-width:1.0"/>
<circle cx="364" cy="86" r="7.0" style="fill:gray;stroke:black;stroke-width:1.0"/>
<circle cx="386" cy="28" r="7.0" style="fill:gray;stroke:black;stroke-width:1.0"/>
<circle cx="384" cy="40" r="7.0" style="fill:gray;stroke:black;stroke-width:1.0"/>
<circle cx="420" cy="20" r="7.0" style="fill:gray;stroke:black;stroke-width:1.0"/>
<circle cx="412" cy="33" r="7.0" style="fill:gray;stroke:black;stroke-width:1.0"/>
<circle cx="397" cy="69" r="7.0" style="fill:gray;stroke:black;stroke-width:1.0"/>
<circle cx="390" cy="78" r="7.0" style="fill:gray;stroke:black;stroke-width:1.0"/>
<circle cx="361" cy="128" r="7.0" style="fill:gray;stroke:black;stroke-width:1.0"/>
<circle cx="349" cy="136" r="7.0" style="fill:gray;stroke:black;stroke-width:1.0"/>
<circle cx="307" cy="202" r="7.0" style="fill:gray;stroke:black;stroke-width:1.0"/>
<circle cx="301" cy="194" r="7.0" style="fill:gray;stroke:black;stroke-width:1.0"/>
<circle cx="241" cy="259" r="7.0" style="fill:gray;stroke:black;stroke-width:1.0"/>
<circle cx="237" cy="248" r="7.0" style="fill:gray;stroke:black;stroke-width:1.0"/>
<circle cx="158" cy="288" r="7.0" style="fill:gray;stroke:black;stroke-width:1.0"/>
<circle cx="163" cy="274" r="7.0" style="fill:gray;stroke:black;stroke-width:1.0"/>
<circle cx="71" cy="270" r="7.0" style="fill:gray;stroke:black;stroke-width:1.0"/>
<circle cx="85" cy="266" r="7.0" style="fill:gray;stroke:black;stroke-width:1.0"/>
<circle cx="23" cy="237" r="7.0" style="fill:gray;stroke:black;stroke-width:1.0"/>
<circle cx="38" cy="238" r="7.0" style="fill:gray;stroke:black;stroke-width:1.0"/>
<circle cx="20" cy="195" r="7.0" style="fill:gray;stroke:black;stroke-width:1.0"/>
<circle cx="23" cy="207" r="7.0" style="fill:gray;stroke:black;stroke-width:1.0"/>
</svg>
