<svg width="440" height="340" xmlns="http://www.w3.org/2000/svg">
<path stroke-width="20.0" stroke="black" d="M 263 320 261 311"/>
<path stroke-width="0.5" stroke="black" d="M 290 162 231 164"/>
<path stroke-width="20.0" stroke="black" d="M 290 162 292 158"/>
<path stroke-width="0.5" stroke="black" d="M 290 162 347 162"/>
<path stroke-width="20.0" stroke="black" d="M 292 158 290 162"/>
<path stroke-width="0.5" stroke="black" d="M 347 162 290 162"/>
<path stroke-width="20.0" stroke="black" d="M 347 162 355 159"/>
<path stroke-width="0.5" stroke="black" d="M 347 162 396 167"/>
<path stroke-width="20.0" stroke="black" d="M 355 159 347 162"/>
<path stroke-width="0.5" stroke="black" d="M 396 167 347 162"/>
<path stroke-width="20.0" stroke="black" d="M 224 161 231 164"/>
<path stroke-width="20.0" stroke="black" d="M 396 167 408 167"/>
<path stroke-width="20.0" stroke="black" d="M 408 167 396 167"/>
<path stroke-width="0.5" stroke="black" d="M 410 174 396 167"/>
<path stroke-width="20.0" stroke="black" d="M 410 174 420 179"/>
<path stroke-width="0.5" stroke="black" d="M 410 174 379 156"/>
<path stroke-width="20.0" stroke="black" d="M 420 179 410 174"/>
<path stroke-width="0.5" stroke="black" d="M 379 156 410 174"/>
<path stroke-width="20.0" stroke="black" d="M 379 156 382 162"/>
<path stroke-width="0.5" stroke="black" d="M 379 156 346 130"/>
<path stroke-width="20.0" stroke="black" d="M 382 162 379 156"/>
<path stroke-width="0.5" stroke="black" d="M 396 167 410 174"/>
<path stroke-width="0.5" stroke="black" d="M 231 164 290 162"/>
<path stroke-width="20.0" stroke="black" d="M 231 164 224 161"/>
<path stroke-width="0.5" stroke="black" d="M 231 164 179 172"/>
<path stroke-width="8.857142857142858" stroke="black" d="M 20 146 33 147"/>
<path stroke-width="0.5" stroke="black" d="M 66 151 33 147"/>
<path stroke-width="20.0" stroke="black" d="M 66 151 66 147"/>
<path stroke-width="0.5" stroke="black" d="M 66 151 100 159"/>
<path stroke-width="20.0" stroke="black" d="M 66 147 66 151"/>
<path stroke-width="0.5" stroke="black" d="M 100 159 66 151"/>
<path stroke-width="20.0" stroke="black" d="M 100 159 107 157"/>
<path stroke-width="0.5" stroke="black" d="M 100 159 121 174"/>
<path stroke-width="20.0" stroke="black" d="M 107 157 100 159"/>
<path stroke-width="0.5" stroke="black" d="M 121 174 100 159"/>
<path stroke-width="20.0" stroke="black" d="M 121 174 126 177"/>
<path stroke-width="0.5" stroke="black" d="M 121 174 140 183"/>
<path stroke-width="20.0" stroke="black" d="M 126 177 121 174"/>
<path stroke-width="0.5" stroke="black" d="M 140 183 121 174"/>
<path stroke-width="20.0" stroke="black" d="M 140 183 132 188"/>
<path stroke-width="0.5" stroke="black" d="M 140 183 179 172"/>
<path stroke-width="20.0" stroke="black" d="M 132 188 140 183"/>
<path stroke-width="0.5" stroke="black" d="M 179 172 140 183"/>
<path stroke-width="20.0" stroke="black" d="M 179 172 169 171"/>
<path stroke-width="0.5" stroke="black" d="M 179 172 231 164"/>
<path stroke-width="20.0" stroke="black" d="M 169 171 179 172"/>
<path stroke-width="0.5" stroke="black" d="M 346 130 379 156"/>
<path stroke-width="20.0" stroke="black" d="M 346 130 342 134"/>
<path stroke-width="0.5" stroke="black" d="M 346 130 320 99"/>
<path stroke-width="20.0" stroke="black" d="M 342 134 346 130"/>
<path stroke-width="20.0" stroke="black" d="M 270 95 264 89"/>
<path stroke-width="0.5" stroke="black" d="M 270 95 251 142"/>
<path stroke-width="20.0" stroke="black" d="M 264 89 270 95"/>
<path stroke-width="0.5" stroke="black" d="M 251 142 270 95"/>
<path stroke-width="20.0" stroke="black" d="M 251 142 242 139"/>
<path stroke-width="0.5" stroke="black" d="M 251 142 245 192"/>
<path stroke-width="20.0" stroke="black" d="M 242 139 251 142"/>
<path stroke-width="0.5" stroke="black" d="M 245 192 251 142"/>
<path stroke-width="20.0" stroke="black" d="M 245 192 237 195"/>
<path stroke-width="0.5" stroke="black" d="M 245 192 248 239"/>
<path stroke-width="20.0" stroke="black" d="M 237 195 245 192"/>
<path stroke-width="0.5" stroke="black" d="M 248 239 245 192"/>
<path stroke-width="20.0" stroke="black" d="M 248 239 247 245"/>
<path stroke-width="0.5" stroke="black" d="M 248 239 256 281"/>
<path stroke-width="20.0" stroke="black" d="M 247 245 248 239"/>
<path stroke-width="0.5" stroke="black" d="M 256 281 248 239"/>
<path stroke-width="20.0" stroke="black" d="M 256 281 257 287"/>
<path stroke-width="0.5" stroke="black" d="M 256 281 261 311"/>
<path stroke-width="20.0" stroke="black" d="M 257 287 256 281"/>
<path stroke-width="0.5" stroke="black" d="M 261 311 256 281"/>
<path stroke-width="20.0" stroke="black" d="M 261 311 263 320"/>
<path stroke-width="0.5" stroke="black" d="M 270 95 300 55"/>
<path stroke-width="0.5" stroke="black" d="M 33 147 66 151"/>
<path stroke-width="20.0" stroke="black" d="M 302 48 300 55"/>
<path stroke-width="20.0" stroke="black" d="M 300 55 302 48"/>
<path stroke-width="0.5" stroke="black" d="M 320 99 346 130"/>
<path stroke-width="20.0" stroke="black" d="M 320 99 310 99"/>
<path stroke-width="0.5" stroke="black" d="M 320 99 313 67"/>
<path stroke-width="20.0" stroke="black" d="M 310 99 320 99"/>
<path stroke-width="0.5" stroke="black" d="M 313 67 320 99"/>
<path stroke-width="20.0" stroke="black" d="M 313 67 303 64"/>
<path stroke-width="0.5" stroke="black" d="M 313 67 332 41"/>
<path stroke-width="20.0" stroke="black" d="M 303 64 313 67"/>
<path stroke-width="0.5" stroke="black" d="M 332 41 313 67"/>
<path stroke-width="20.0" stroke="black" d="M 332 41 331 35"/>
<path stroke-width="0.5" stroke="black" d="M 332 41 357 24"/>
<path stroke-width="20.0" stroke="black" d="M 331 35 332 41"/>
<path stroke-width="0.5" stroke="black" d="M 357 24 332 41"/>
<path stroke-width="20.0" stroke="black" d="M 357 24 366 20"/>
<path stroke-width="0.5" stroke="black" d="M 357 24 333 28"/>
<path stroke-width="20.0" stroke="black" d="M 366 20 357 24"/>
<path stroke-width="0.5" stroke="black" d="M 333 28 357 24"/>
<path stroke-width="20.0" stroke="black" d="M 333 28 340 21"/>
<path stroke-width="0.5" stroke="black" d="M 333 28 300 55"/>
<path stroke-width="20.0" stroke="black" d="M 340 21 333 28"/>
<path stroke-width="0.5" stroke="black" d="M 300 55 333 28"/>
<path stroke-width="0.5" stroke="black" d="M 300 55 270 95"/>
<path stroke-width="8.857142857142858" stroke="black" d="M 33 147 20 146"/>
<circle cx="263" cy="320" r="7.0" style="fill:brown;stroke:black;stroke-width:1.0"/>
<circle cx="261" cy="311" r="7.0" style="fill:brown;stroke:black;stroke-width:1.0"/>
<circle cx="257" cy="287" r="7.0" style="fill:brown;stroke:black;stroke-width:1.0"/>
<circle cx="256" cy="281" r="7.0" style="fill:red;stroke:black;stroke-width:1.0"/>
<circle cx="247" cy="245" r="7.0" style="fill:red;stroke:black;stroke-width:1.0"/>
<circle cx="248" cy="239" r="7.0" style="fill:red;stroke:black;stroke-width:1.0"/>
<circle cx="237" cy="195" r="7.0" style="fill:red;stroke:black;stroke-width:1.0"/>
<circle cx="245" cy="192" r="7.0" style="fill:red;stroke:black;stroke-width:1.0"/>
<circle cx="242" cy="139" r="7.0" style="fill:red;stroke:black;stroke-width:1.0"/>
<circle cx="251" cy="142" r="7.0" style="fill:fuchsia;stroke:black;stroke-width:1.0"/>
<circle cx="264" cy="89" r="7.0" style="fill:fuchsia;stroke:black;stroke-width:1.0"/>
<circle cx="270" cy="95" r="7.0" style="fill:fuchsia;stroke:black;stroke-width:1.0"/>
<circle cx="302" cy="48" r="7.0" style="fill:fuchsia;stroke:black;stroke-width:1.0"/>
<circle cx="300" cy="55" r="7.0" style="fill:fuchsia;stroke:black;stroke-width:1.0"/>
<circle cx="340" cy="21" r="7.0" style="fill:fuchsia;stroke:black;stroke-width:1.0"/>
<circle cx="333" cy="28" r="7.0" style="fill:orange;stroke:black;stroke-width:1.0"/>
<circle cx="366" cy="20" r="7.0" style="fill:orange;stroke:black;stroke-width:1.0"/>
<circle cx="357" cy="24" r="7.0" style="fill:orange;stroke:black;stroke-width:1.0"/>
<circle cx="331" cy="35" r="7.0" style="fill:red;stroke:black;stroke-width:1.0"/>
<circle cx="332" cy="41" r="7.0" style="fill:red;stroke:black;stroke-width:1.0"/>
<circle cx="303" cy="64" r="7.0" style="fill:red;stroke:black;stroke-width:1.0"/>
<circle cx="313" cy="67" r="7.0" style="fill:red;stroke:black;stroke-width:1.0"/>
<circle cx="310" cy="99" r="7.0" style="fill:yellow;stroke:black;stroke-width:1.0"/>
<circle cx="320" cy="99" r="7.0" style="fill:yellow;stroke:black;stroke-width:1.0"/>
<circle cx="342" cy="134" r="7.0" style="fill:yellow;stroke:black;stroke-width:1.0"/>
<circle cx="346" cy="130" r="7.0" style="fill:yellow;stroke:black;stroke-width:1.0"/>
<circle cx="382" cy="162" r="7.0" style="fill:yellow;stroke:black;stroke-width:1.0"/>
<circle cx="379" cy="156" r="7.0" style="fill:yellow;stroke:black;stroke-width:1.0"/>
<circle cx="420" cy="179" r="7.0" style="fill:blue;stroke:black;stroke-width:1.0"/>
<circle cx="410" cy="174" r="7.0" style="fill:blue;stroke:black;stroke-width:1.0"/>
<circle cx="408" cy="167" r="7.0" style="fill:blue;stroke:black;stroke-width:1.0"/>
<circle cx="396" cy="167" r="7.0" style="fill:blue;stroke:black;stroke-width:1.0"/>
<circle cx="355" cy="159" r="7.0" style="fill:blue;stroke:black;stroke-width:1.0"/>
<circle cx="347" cy="162" r="7.0" style="fill:blue;stroke:black;stroke-width:1.0"/>
<circle cx="292" cy="158" r="7.0" style="fill:blue;stroke:black;stroke-width:1.0"/>
<circle cx="290" cy="162" r="7.0" style="fill:blue;stroke:black;stroke-width:1.0"/>
<circle cx="224" cy="161" r="7.0" style="fill:aqua;stroke:black;stroke-width:1.0"/>
<circle cx="231" cy="164" r="7.0" style="fill:aqua;stroke:black;stroke-width:1.0"/>
<circle cx="169" cy="171" r="7.0" style="fill:aqua;stroke:black;stroke-width:1.0"/>
<circle cx="179" cy="172" r="7.0" style="fill:aqua;stroke:black;stroke-width:1.0"/>
<circle cx="132" cy="188" r="7.0" style="fill:purple;stroke:black;stroke-width:1.0"/>
<circle cx="140" cy="183" r="7.0" style="fill:purple;stroke:black;stroke-width:1.0"/>
<circle cx="126" cy="177" r="7.0" style="fill:purple;stroke:black;stroke-width:1.0"/>
<circle cx="121" cy="174" r="7.0" style="fill:purple;stroke:black;stroke-width:1.0"/>
<circle cx="107" cy="157" r="7.0" style="fill:olive;stroke:black;stroke-width:1.0"/>
<circle cx="100" cy="159" r="7.0" style="fill:olive;stroke:black;stroke-width:1.0"/>
<circle cx="66" cy="147" r="7.0" style="fill:green;stroke:black;stroke-width:1.0"/>
<circle cx="66" cy="151" r="7.0" style="fill:green;stroke:black;stroke-width:1.0"/>
<circle cx="20" cy="146" r="7.0" style="fill:green;stroke:black;stroke-width:1.0"/>
<circle cx="33" cy="147" r="7.0" style="fill:green;stroke:black;stroke-width:1.0"/>
</svg>
