<svg width="440" height="340" xmlns="http://www.w3.org/2000/svg">
<path stroke-width="1" stroke="black" d="M 415 20 414 40"/>
<path stroke-width="1" stroke="black" d="M 277 161 274 182"/>
<path stroke-width="1" stroke="black" d="M 274 182 321 203"/>
<path stroke-width="1" stroke="black" d="M 274 182 277 161"/>
<path stroke-width="1" stroke="black" d="M 274 182 226 199"/>
<path stroke-width="1" stroke="black" d="M 229 213 226 199"/>
<path stroke-width="1" stroke="black" d="M 226 199 274 182"/>
<path stroke-width="1" stroke="black" d="M 226 199 229 213"/>
<path stroke-width="1" stroke="black" d="M 226 199 179 228"/>
<path stroke-width="1" stroke="black" d="M 175 211 179 228"/>
<path stroke-width="1" stroke="black" d="M 179 228 226 199"/>
<path stroke-width="1" stroke="black" d="M 179 228 175 211"/>
<path stroke-width="1" stroke="black" d="M 179 228 135 267"/>
<path stroke-width="1" stroke="black" d="M 128 279 135 267"/>
<path stroke-width="1" stroke="black" d="M 135 267 179 228"/>
<path stroke-width="1" stroke="black" d="M 135 267 128 279"/>
<path stroke-width="1" stroke="black" d="M 135 267 92 298"/>
<path stroke-width="1" stroke="black" d="M 89 320 92 298"/>
<path stroke-width="1" stroke="black" d="M 92 298 135 267"/>
<path stroke-width="1" stroke="black" d="M 92 298 89 320"/>
<path stroke-width="1" stroke="black" d="M 92 298 53 278"/>
<path stroke-width="1" stroke="black" d="M 44 290 53 278"/>
<path stroke-width="1" stroke="black" d="M 53 278 92 298"/>
<path stroke-width="1" stroke="black" d="M 53 278 44 290"/>
<path stroke-width="1" stroke="black" d="M 53 278 29 229"/>
<path stroke-width="1" stroke="black" d="M 20 206 29 229"/>
<path stroke-width="1" stroke="black" d="M 321 203 274 182"/>
<path stroke-width="1" stroke="black" d="M 321 203 330 198"/>
<path stroke-width="1" stroke="black" d="M 321 203 337 270"/>
<path stroke-width="1" stroke="black" d="M 330 198 321 203"/>
<path stroke-width="1" stroke="black" d="M 414 40 415 20"/>
<path stroke-width="1" stroke="black" d="M 414 40 409 99"/>
<path stroke-width="1" stroke="black" d="M 420 107 409 99"/>
<path stroke-width="1" stroke="black" d="M 409 99 414 40"/>
<path stroke-width="1" stroke="black" d="M 409 99 420 107"/>
<path stroke-width="1" stroke="black" d="M 409 99 379 137"/>
<path stroke-width="1" stroke="black" d="M 384 151 379 137"/>
<path stroke-width="1" stroke="black" d="M 379 137 409 99"/>
<path stroke-width="1" stroke="black" d="M 379 137 384 151"/>
<path stroke-width="1" stroke="black" d="M 379 137 340 149"/>
<path stroke-width="1" stroke="black" d="M 338 131 340 149"/>
<path stroke-width="1" stroke="black" d="M 340 149 379 137"/>
<path stroke-width="1" stroke="black" d="M 29 229 53 278"/>
<path stroke-width="1" stroke="black" d="M 340 149 338 131"/>
<path stroke-width="1" stroke="black" d="M 305 235 315 226"/>
<path stroke-width="1" stroke="black" d="M 315 226 340 149"/>
<path stroke-width="1" stroke="black" d="M 315 226 305 235"/>
<path stroke-width="1" stroke="black" d="M 315 226 317 293"/>
<path stroke-width="1" stroke="black" d="M 313 314 317 293"/>
<path stroke-width="1" stroke="black" d="M 317 293 315 226"/>
<path stroke-width="1" stroke="black" d="M 317 293 313 314"/>
<path stroke-width="1" stroke="black" d="M 317 293 337 270"/>
<path stroke-width="1" stroke="black" d="M 345 287 337 270"/>
<path stroke-width="1" stroke="black" d="M 337 270 317 293"/>
<path stroke-width="1" stroke="black" d="M 337 270 345 287"/>
<path stroke-width="1" stroke="black" d="M 337 270 321 203"/>
<path stroke-width="1" stroke="black" d="M 340 149 315 226"/>
<path stroke-width="1" stroke="black" d="M 29 229 20 206"/>
<circle cx="415" cy="20" r="7.0" style="fill:blue;stroke:black;stroke-width:1.0"/>
<circle cx="414" cy="40" r="7.0" style="fill:blue;stroke:black;stroke-width:1.0"/>
<circle cx="420" cy="107" r="7.0" style="fill:blue;stroke:black;stroke-width:1.0"/>
<circle cx="409" cy="99" r="7.0" style="fill:blue;stroke:black;stroke-width:1.0"/>
<circle cx="384" cy="151" r="7.0" style="fill:blue;stroke:black;stroke-width:1.0"/>
<circle cx="379" cy="137" r="7.0" style="fill:blue;stroke:black;stroke-width:1.0"/>
<circle cx="338" cy="131" r="7.0" style="fill:fuchsia;stroke:black;stroke-width:1.0"/>
<circle cx="340" cy="149" r="7.0" style="fill:fuchsia;stroke:black;stroke-width:1.0"/>
<circle cx="305" cy="235" r="7.0" style="fill:fuchsia;stroke:black;stroke-width:1.0"/>
<circle cx="315" cy="226" r="7.0" style="fill:fuchsia;stroke:black;stroke-width:1.0"/>
<circle cx="313" cy="314" r="7.0" style="fill:orange;stroke:black;stroke-width:1.0"/>
<circle cx="317" cy="293" r="7.0" style="fill:orange;stroke:black;stroke-width:1.0"/>
<circle cx="345" cy="287" r="7.0" style="fill:orange;stroke:black;stroke-width:1.0"/>
<circle cx="337" cy="270" r="7.0" style="fill:orange;stroke:black;stroke-width:1.0"/>
<circle cx="330" cy="198" r="7.0" style="fill:green;stroke:black;stroke-width:1.0"/>
<circle cx="321" cy="203" r="7.0" style="fill:orange;stroke:black;stroke-width:1.0"/>
<circle cx="277" cy="161" r="7.0" style="fill:green;stroke:black;stroke-width:1.0"/>
<circle cx="274" cy="182" r="7.0" style="fill:green;stroke:black;stroke-width:1.0"/>
<circle cx="229" cy="213" r="7.0" style="fill:yellow;stroke:black;stroke-width:1.0"/>
<circle cx="226" cy="199" r="7.0" style="fill:yellow;stroke:black;stroke-width:1.0"/>
<circle cx="175" cy="211" r="7.0" style="fill:yellow;stroke:black;stroke-width:1.0"/>
<circle cx="179" cy="228" r="7.0" style="fill:yellow;stroke:black;stroke-width:1.0"/>
<circle cx="128" cy="279" r="7.0" style="fill:purple;stroke:black;stroke-width:1.0"/>
<circle cx="135" cy="267" r="7.0" style="fill:purple;stroke:black;stroke-width:1.0"/>
<circle cx="89" cy="320" r="7.0" style="fill:red;stroke:black;stroke-width:1.0"/>
<circle cx="92" cy="298" r="7.0" style="fill:purple;stroke:black;stroke-width:1.0"/>
<circle cx="44" cy="290" r="7.0" style="fill:red;stroke:black;stroke-width:1.0"/>
<circle cx="53" cy="278" r="7.0" style="fill:red;stroke:black;stroke-width:1.0"/>
<circle cx="20" cy="206" r="7.0" style="fill:red;stroke:black;stroke-width:1.0"/>
<circle cx="29" cy="229" r="7.0" style="fill:red;stroke:black;stroke-width:1.0"/>
</svg>
