<svg width="440" height="340" xmlns="http://www.w3.org/2000/svg">
<path stroke-width="1" stroke="black" d="M 20 97 35 94"/>
<path stroke-width="1" stroke="black" d="M 390 84 371 82"/>
<path stroke-width="1" stroke="black" d="M 371 82 405 54"/>
<path stroke-width="1" stroke="black" d="M 371 82 390 84"/>
<path stroke-width="1" stroke="black" d="M 371 82 318 105"/>
<path stroke-width="1" stroke="black" d="M 312 99 318 105"/>
<path stroke-width="1" stroke="black" d="M 318 105 371 82"/>
<path stroke-width="1" stroke="black" d="M 318 105 312 99"/>
<path stroke-width="1" stroke="black" d="M 318 105 265 137"/>
<path stroke-width="1" stroke="black" d="M 256 130 265 137"/>
<path stroke-width="1" stroke="black" d="M 265 137 318 105"/>
<path stroke-width="1" stroke="black" d="M 265 137 256 130"/>
<path stroke-width="1" stroke="black" d="M 265 137 233 177"/>
<path stroke-width="1" stroke="black" d="M 222 173 233 177"/>
<path stroke-width="1" stroke="black" d="M 233 177 265 137"/>
<path stroke-width="1" stroke="black" d="M 233 177 222 173"/>
<path stroke-width="1" stroke="black" d="M 233 177 219 224"/>
<path stroke-width="1" stroke="black" d="M 207 223 219 224"/>
<path stroke-width="1" stroke="black" d="M 219 224 233 177"/>
<path stroke-width="1" stroke="black" d="M 219 224 207 223"/>
<path stroke-width="1" stroke="black" d="M 219 224 219 268"/>
<path stroke-width="1" stroke="black" d="M 217 277 219 268"/>
<path stroke-width="1" stroke="black" d="M 219 268 219 224"/>
<path stroke-width="1" stroke="black" d="M 219 268 217 277"/>
<path stroke-width="1" stroke="black" d="M 219 268 222 306"/>
<path stroke-width="1" stroke="black" d="M 224 320 222 306"/>
<path stroke-width="1" stroke="black" d="M 405 54 371 82"/>
<path stroke-width="1" stroke="black" d="M 405 54 420 52"/>
<path stroke-width="1" stroke="black" d="M 405 54 373 32"/>
<path stroke-width="1" stroke="black" d="M 420 52 405 54"/>
<path stroke-width="1" stroke="black" d="M 35 94 20 97"/>
<path stroke-width="1" stroke="black" d="M 35 94 88 83"/>
<path stroke-width="1" stroke="black" d="M 75 84 88 83"/>
<path stroke-width="1" stroke="black" d="M 88 83 35 94"/>
<path stroke-width="1" stroke="black" d="M 88 83 75 84"/>
<path stroke-width="1" stroke="black" d="M 88 83 149 69"/>
<path stroke-width="1" stroke="black" d="M 155 75 149 69"/>
<path stroke-width="1" stroke="black" d="M 149 69 88 83"/>
<path stroke-width="1" stroke="black" d="M 149 69 155 75"/>
<path stroke-width="1" stroke="black" d="M 149 69 204 47"/>
<path stroke-width="1" stroke="black" d="M 209 42 204 47"/>
<path stroke-width="1" stroke="black" d="M 204 47 149 69"/>
<path stroke-width="1" stroke="black" d="M 222 306 219 268"/>
<path stroke-width="1" stroke="black" d="M 204 47 209 42"/>
<path stroke-width="1" stroke="black" d="M 259 20 258 27"/>
<path stroke-width="1" stroke="black" d="M 258 27 204 47"/>
<path stroke-width="1" stroke="black" d="M 258 27 259 20"/>
<path stroke-width="1" stroke="black" d="M 258 27 317 26"/>
<path stroke-width="1" stroke="black" d="M 309 22 317 26"/>
<path stroke-width="1" stroke="black" d="M 317 26 258 27"/>
<path stroke-width="1" stroke="black" d="M 317 26 309 22"/>
<path stroke-width="1" stroke="black" d="M 317 26 373 32"/>
<path stroke-width="1" stroke="black" d="M 382 26 373 32"/>
<path stroke-width="1" stroke="black" d="M 373 32 317 26"/>
<path stroke-width="1" stroke="black" d="M 373 32 382 26"/>
<path stroke-width="1" stroke="black" d="M 373 32 405 54"/>
<path stroke-width="1" stroke="black" d="M 204 47 258 27"/>
<path stroke-width="1" stroke="black" d="M 222 306 224 320"/>
<circle cx="20" cy="97" r="7.0" style="fill:gray;stroke:black;stroke-width:1.0"/>
<circle cx="35" cy="94" r="7.0" style="fill:gray;stroke:black;stroke-width:1.0"/>
<circle cx="75" cy="84" r="7.0" style="fill:gray;stroke:black;stroke-width:1.0"/>
<circle cx="88" cy="83" r="7.0" style="fill:gray;stroke:black;stroke-width:1.0"/>
<circle cx="155" cy="75" r="7.0" style="fill:gray;stroke:black;stroke-width:1.0"/>
<circle cx="149" cy="69" r="7.0" style="fill:gray;stroke:black;stroke-width:1.0"/>
<circle cx="209" cy="42" r="7.0" style="fill:gray;stroke:black;stroke-width:1.0"/>
<circle cx="204" cy="47" r="7.0" style="fill:gray;stroke:black;stroke-width:1.0"/>
<circle cx="259" cy="20" r="7.0" style="fill:gray;stroke:black;stroke-width:1.0"/>
<circle cx="258" cy="27" r="7.0" style="fill:gray;stroke:black;stroke-width:1.0"/>
<circle cx="309" cy="22" r="7.0" style="fill:gray;stroke:black;stroke-width:1.0"/>
<circle cx="317" cy="26" r="7.0" style="fill:gray;stroke:black;stroke-width:1.0"/>
<circle cx="382" cy="26" r="7.0" style="fill:gray;stroke:black;stroke-width:1.0"/>
<circle cx="373" cy="32" r="7.0" style="fill:gray;stroke:black;stroke-width:1.0"/>
<circle cx="420" cy="52" r="7.0" style="fill:gray;stroke:black;stroke-width:1.0"/>
<circle cx="405" cy="54" r="7.0" style="fill:gray;stroke:black;stroke-width:1.0"/>
<circle cx="390" cy="84" r="7.0" style="fill:gray;stroke:black;stroke-width:1.0"/>
<circle cx="371" cy="82" r="7.0" style="fill:gray;stroke:black;stroke-width:1.0"/>
<circle cx="312" cy="99" r="7.0" style="fill:gray;stroke:black;stroke-width:1.0"/>
<circle cx="318" cy="105" r="7.0" style="fill:gray;stroke:black;stroke-width:1.0"/>
<circle cx="256" cy="130" r="7.0" style="fill:gray;stroke:black;stroke-width:1.0"/>
<circle cx="265" cy="137" r="7.0" style="fill:gray;stroke:black;stroke-width:1.0"/>
<circle cx="222" cy="173" r="7.0" style="fill:gray;stroke:black;stroke-width:1.0"/>
<circle cx="233" cy="177" r="7.0" style="fill:gray;stroke:black;stroke-width:1.0"/>
<circle cx="207" cy="223" r="7.0" style="fill:gray;stroke:black;stroke-width:1.0"/>
<circle cx="219" cy="224" r="7.0" style="fill:gray;stroke:black;stroke-width:1.0"/>
<circle cx="217" cy="277" r="7.0" style="fill:gray;stroke:black;stroke-width:1.0"/>
<circle cx="219" cy="268" r="7.0" style="fill:gray;stroke:black;stroke-width:1.0"/>
<circle cx="224" cy="320" r="7.0" style="fill:gray;stroke:black;stroke-width:1.0"/>
<circle cx="222" cy="306" r="7.0" style="fill:gray;stroke:black;stroke-width:1.0"/>
</svg>
