<svg width="440" height="340" xmlns="http://www.w3.org/2000/svg">
<path stroke-width="1" stroke="black" d="M 291 234 338 104"/>
<path stroke-width="1" stroke="black" d="M 410 230 287 320"/>
<path stroke-width="1" stroke="black" d="M 410 230 276 183"/>
<path stroke-width="1" stroke="black" d="M 410 230 20 204"/>
<path stroke-width="1" stroke="black" d="M 410 230 65 136"/>
<path stroke-width="1" stroke="black" d="M 410 230 69 247"/>
<path stroke-width="1" stroke="black" d="M 410 230 420 159"/>
<path stroke-width="1" stroke="black" d="M 410 230 338 104"/>
<path stroke-width="1" stroke="black" d="M 410 230 291 234"/>
<path stroke-width="1" stroke="black" d="M 20 204 126 20"/>
<path stroke-width="1" stroke="black" d="M 20 204 287 320"/>
<path stroke-width="1" stroke="black" d="M 20 204 276 183"/>
<path stroke-width="1" stroke="black" d="M 20 204 410 230"/>
<path stroke-width="1" stroke="black" d="M 20 204 65 136"/>
<path stroke-width="1" stroke="black" d="M 20 204 69 247"/>
<path stroke-width="1" stroke="black" d="M 20 204 420 159"/>
<path stroke-width="1" stroke="black" d="M 20 204 338 104"/>
<path stroke-width="1" stroke="black" d="M 20 204 291 234"/>
<path stroke-width="1" stroke="black" d="M 410 230 126 20"/>
<path stroke-width="1" stroke="black" d="M 276 183 291 234"/>
<path stroke-width="1" stroke="black" d="M 276 183 338 104"/>
<path stroke-width="1" stroke="black" d="M 276 183 420 159"/>
<path stroke-width="1" stroke="black" d="M 126 20 65 136"/>
<path stroke-width="1" stroke="black" d="M 126 20 69 247"/>
<path stroke-width="1" stroke="black" d="M 126 20 420 159"/>
<path stroke-width="1" stroke="black" d="M 126 20 338 104"/>
<path stroke-width="1" stroke="black" d="M 126 20 291 234"/>
<path stroke-width="1" stroke="black" d="M 287 320 276 183"/>
<path stroke-width="1" stroke="black" d="M 287 320 410 230"/>
<path stroke-width="1" stroke="black" d="M 287 320 20 204"/>
<path stroke-width="1" stroke="black" d="M 65 136 126 20"/>
<path stroke-width="1" stroke="black" d="M 287 320 65 136"/>
<path stroke-width="1" stroke="black" d="M 287 320 420 159"/>
<path stroke-width="1" stroke="black" d="M 287 320 338 104"/>
<path stroke-width="1" stroke="black" d="M 287 320 291 234"/>
<path stroke-width="1" stroke="black" d="M 276 183 287 320"/>
<path stroke-width="1" stroke="black" d="M 276 183 410 230"/>
<path stroke-width="1" stroke="black" d="M 276 183 20 204"/>
<path stroke-width="1" stroke="black" d="M 276 183 65 136"/>
<path stroke-width="1" stroke="black" d="M 276 183 69 247"/>
<path stroke-width="1" stroke="black" d="M 287 320 69 247"/>
<path stroke-width="1" stroke="black" d="M 65 136 287 320"/>
<path stroke-width="1" stroke="black" d="M 65 136 276 183"/>
<path stroke-width="1" stroke="black" d="M 65 136 410 230"/>
<path stroke-width="1" stroke="black" d="M 420 159 291 234"/>
<path stroke-width="1" stroke="black" d="M 338 104 126 20"/>
<path stroke-width="1" stroke="black" d="M 338 104 287 320"/>
<path stroke-width="1" stroke="black" d="M 338 104 276 183"/>
<path stroke-width="1" stroke="black" d="M 338 104 410 230"/>
<path stroke-width="1" stroke="black" d="M 338 104 20 204"/>
<path stroke-width="1" stroke="black" d="M 338 104 65 136"/>
<path stroke-width="1" stroke="black" d="M 338 104 69 247"/>
<path stroke-width="1" stroke="black" d="M 420 159 338 104"/>
<path stroke-width="1" stroke="black" d="M 338 104 420 159"/>
<path stroke-width="1" stroke="black" d="M 291 234 126 20"/>
<path stroke-width="1" stroke="black" d="M 291 234 287 320"/>
<path stroke-width="1" stroke="black" d="M 291 234 276 183"/>
<path stroke-width="1" stroke="black" d="M 291 234 410 230"/>
<path stroke-width="1" stroke="black" d="M 291 234 20 204"/>
<path stroke-width="1" stroke="black" d="M 291 234 65 136"/>
<path stroke-width="1" stroke="black" d="M 291 234 69 247"/>
<path stroke-width="1" stroke="black" d="M 291 234 420 159"/>
<path stroke-width="1" stroke="black" d="M 338 104 291 234"/>
<path stroke-width="1" stroke="black" d="M 126 20 20 204"/>
<path stroke-width="1" stroke="black" d="M 420 159 69 247"/>
<path stroke-width="1" stroke="black" d="M 420 159 20 204"/>
<path stroke-width="1" stroke="black" d="M 65 136 20 204"/>
<path stroke-width="1" stroke="black" d="M 65 136 69 247"/>
<path stroke-width="1" stroke="black" d="M 65 136 420 159"/>
<path stroke-width="1" stroke="black" d="M 65 136 338 104"/>
<path stroke-width="1" stroke="black" d="M 65 136 291 234"/>
<path stroke-width="1" stroke="black" d="M 69 247 126 20"/>
<path stroke-width="1" stroke="black" d="M 69 247 287 320"/>
<path stroke-width="1" stroke="black" d="M 69 247 276 183"/>
<path stroke-width="1" stroke="black" d="M 420 159 65 136"/>
<path stroke-width="1" stroke="black" d="M 69 247 410 230"/>
<path stroke-width="1" stroke="black" d="M 69 247 65 136"/>
<path stroke-width="1" stroke="black" d="M 69 247 420 159"/>
<path stroke-width="1" stroke="black" d="M 69 247 338 104"/>
<path stroke-width="1" stroke="black" d="M 69 247 291 234"/>
<path stroke-width="1" stroke="black" d="M 420 159 126 20"/>
<path stroke-width="1" stroke="black" d="M 420 159 287 320"/>
<path stroke-width="1" stroke="black" d="M 420 159 276 183"/>
<path stroke-width="1" stroke="black" d="M 420 159 410 230"/>
<path stroke-width="1" stroke="black" d="M 69 247 20 204"/>
<path stroke-width="1" stroke="black" d="M 126 20 410 230"/>
<circle cx="291" cy="234" r="7.0" style="fill:orange;stroke:black;stroke-width:1.0"/>
<circle cx="338" cy="104" r="7.0" style="fill:green;stroke:black;stroke-width:1.0"/>
<circle cx="420" cy="159" r="7.0" style="fill:red;stroke:black;stroke-width:1.0"/>
<circle cx="69" cy="247" r="7.0" style="fill:blue;stroke:black;stroke-width:1.0"/>
<circle cx="65" cy="136" r="7.0" style="fill:blue;stroke:black;stroke-width:1.0"/>
<circle cx="20" cy="204" r="7.0" style="fill:blue;stroke:black;stroke-width:1.0"/>
<circle cx="410" cy="230" r="7.0" style="fill:red;stroke:black;stroke-width:1.0"/>
<circle cx="276" cy="183" r="7.0" style="fill:green;stroke:black;stroke-width:1.0"/>
<circle cx="287" cy="320" r="7.0" style="fill:orange;stroke:black;stroke-width:1.0"/>
<circle cx="126" cy="20" r="7.0" style="fill:blue;stroke:black;stroke-width:1.0"/>
</svg>
