<svg width="440" height="340" xmlns="http://www.w3.org/2000/svg">
<path stroke-width="5.375" stroke="black" d="M 420 142 249 102"/>
<path stroke-width="5.375" stroke="black" d="M 20 102 381 47"/>
<path stroke-width="5.375" stroke="black" d="M 20 102 177 20"/>
<path stroke-width="5.375" stroke="black" d="M 20 102 277 234"/>
<path stroke-width="5.375" stroke="black" d="M 20 102 28 217"/>
<path stroke-width="5.375" stroke="black" d="M 20 102 401 218"/>
<path stroke-width="20.0" stroke="black" d="M 20 102 130 160"/>
<path stroke-width="5.375" stroke="black" d="M 20 102 249 102"/>
<path stroke-width="5.375" stroke="black" d="M 20 102 420 142"/>
<path stroke-width="5.375" stroke="black" d="M 277 234 195 320"/>
<path stroke-width="5.375" stroke="black" d="M 277 234 381 47"/>
<path stroke-width="5.375" stroke="black" d="M 277 234 177 20"/>
<path stroke-width="5.375" stroke="black" d="M 277 234 20 102"/>
<path stroke-width="5.375" stroke="black" d="M 277 234 28 217"/>
<path stroke-width="20.0" stroke="black" d="M 277 234 401 218"/>
<path stroke-width="5.375" stroke="black" d="M 277 234 130 160"/>
<path stroke-width="5.375" stroke="black" d="M 277 234 249 102"/>
<path stroke-width="5.375" stroke="black" d="M 277 234 420 142"/>
<path stroke-width="0.5" stroke="black" d="M 20 102 195 320"/>
<path stroke-width="5.375" stroke="black" d="M 177 20 420 142"/>
<path stroke-width="20.0" stroke="black" d="M 177 20 249 102"/>
<path stroke-width="5.375" stroke="black" d="M 177 20 130 160"/>
<path stroke-width="5.375" stroke="black" d="M 195 320 28 217"/>
<path stroke-width="5.375" stroke="black" d="M 195 320 401 218"/>
<path stroke-width="5.375" stroke="black" d="M 195 320 130 160"/>
<path stroke-width="5.375" stroke="black" d="M 195 320 249 102"/>
<path stroke-width="5.375" stroke="black" d="M 195 320 420 142"/>
<path stroke-width="5.375" stroke="black" d="M 381 47 177 20"/>
<path stroke-width="5.375" stroke="black" d="M 381 47 20 102"/>
<path stroke-width="5.375" stroke="black" d="M 381 47 277 234"/>
<path stroke-width="5.375" stroke="black" d="M 28 217 195 320"/>
<path stroke-width="5.375" stroke="black" d="M 381 47 28 217"/>
<path stroke-width="5.375" stroke="black" d="M 381 47 130 160"/>
<path stroke-width="5.375" stroke="black" d="M 381 47 249 102"/>
<path stroke-width="20.0" stroke="black" d="M 381 47 420 142"/>
<path stroke-width="5.375" stroke="black" d="M 177 20 381 47"/>
<path stroke-width="5.375" stroke="black" d="M 177 20 20 102"/>
<path stroke-width="5.375" stroke="black" d="M 177 20 277 234"/>
<path stroke-width="5.375" stroke="black" d="M 177 20 28 217"/>
<path stroke-width="5.375" stroke="black" d="M 177 20 401 218"/>
<path stroke-width="5.375" stroke="black" d="M 381 47 401 218"/>
<path stroke-width="5.375" stroke="black" d="M 28 217 381 47"/>
<path stroke-width="5.375" stroke="black" d="M 28 217 177 20"/>
<path stroke-width="5.375" stroke="black" d="M 28 217 20 102"/>
<path stroke-width="5.375" stroke="black" d="M 130 160 420 142"/>
<path stroke-width="5.375" stroke="black" d="M 249 102 195 320"/>
<path stroke-width="5.375" stroke="black" d="M 249 102 381 47"/>
<path stroke-width="20.0" stroke="black" d="M 249 102 177 20"/>
<path stroke-width="5.375" stroke="black" d="M 249 102 20 102"/>
<path stroke-width="5.375" stroke="black" d="M 249 102 277 234"/>
<path stroke-width="5.375" stroke="black" d="M 249 102 28 217"/>
<path stroke-width="5.375" stroke="black" d="M 249 102 401 218"/>
<path stroke-width="5.375" stroke="black" d="M 130 160 249 102"/>
<path stroke-width="5.375" stroke="black" d="M 249 102 130 160"/>
<path stroke-width="5.375" stroke="black" d="M 420 142 195 320"/>
<path stroke-width="20.0" stroke="black" d="M 420 142 381 47"/>
<path stroke-width="5.375" stroke="black" d="M 420 142 177 20"/>
<path stroke-width="5.375" stroke="black" d="M 420 142 20 102"/>
<path stroke-width="5.375" stroke="black" d="M 420 142 277 234"/>
<path stroke-width="5.375" stroke="black" d="M 420 142 28 217"/>
<path stroke-width="5.375" stroke="black" d="M 420 142 401 218"/>
<path stroke-width="5.375" stroke="black" d="M 420 142 130 160"/>
<path stroke-width="5.375" stroke="black" d="M 249 102 420 142"/>
<path stroke-width="5.375" stroke="black" d="M 195 320 277 234"/>
<path stroke-width="5.375" stroke="black" d="M 130 160 401 218"/>
<path stroke-width="5.375" stroke="black" d="M 130 160 277 234"/>
<path stroke-width="5.375" stroke="black" d="M 28 217 277 234"/>
<path stroke-width="5.375" stroke="black" d="M 28 217 401 218"/>
<path stroke-width="5.375" stroke="black" d="M 28 217 130 160"/>
<path stroke-width="5.375" stroke="black" d="M 28 217 249 102"/>
<path stroke-width="5.375" stroke="black" d="M 28 217 420 142"/>
<path stroke-width="5.375" stroke="black" d="M 401 218 195 320"/>
<path stroke-width="5.375" stroke="black" d="M 401 218 381 47"/>
<path stroke-width="5.375" stroke="black" d="M 401 218 177 20"/>
<path stroke-width="5.375" stroke="black" d="M 130 160 28 217"/>
<path stroke-width="5.375" stroke="black" d="M 401 218 20 102"/>
<path stroke-width="5.375" stroke="black" d="M 401 218 28 217"/>
<path stroke-width="5.375" stroke="black" d="M 401 218 130 160"/>
<path stroke-width="5.375" stroke="black" d="M 401 218 249 102"/>
<path stroke-width="5.375" stroke="black" d="M 401 218 420 142"/>
<path stroke-width="5.375" stroke="black" d="M 130 160 195 320"/>
<path stroke-width="5.375" stroke="black" d="M 130 160 381 47"/>
<path stroke-width="5.375" stroke="black" d="M 130 160 177 20"/>
<path stroke-width="20.0" stroke="black" d="M 130 160 20 102"/>
<path stroke-width="20.0" stroke="black" d="M 401 218 277 234"/>
<path stroke-width="0.5" stroke="black" d="M 195 320 20 102"/>
<circle cx="420" cy="142" r="7.0" style="fill:orange;stroke:black;stroke-width:1.0"/>
<circle cx="249" cy="102" r="7.0" style="fill:green;stroke:black;stroke-width:1.0"/>
<circle cx="130" cy="160" r="7.0" style="fill:red;stroke:black;stroke-width:1.0"/>
<circle cx="401" cy="218" r="7.0" style="fill:blue;stroke:black;stroke-width:1.0"/>
<circle cx="28" cy="217" r="7.0" style="fill:blue;stroke:black;stroke-width:1.0"/>
<circle cx="277" cy="234" r="7.0" style="fill:blue;stroke:black;stroke-width:1.0"/>
<circle cx="20" cy="102" r="7.0" style="fill:red;stroke:black;stroke-width:1.0"/>
<circle cx="177" cy="20" r="7.0" style="fill:green;stroke:black;stroke-width:1.0"/>
<circle cx="381" cy="47" r="7.0" style="fill:orange;stroke:black;stroke-width:1.0"/>
<circle cx="195" cy="320" r="7.0" style="fill:blue;stroke:black;stroke-width:1.0"/>
</svg>
