<svg width="440" height="340" xmlns="http://www.w3.org/2000/svg">
<path stroke-width="1" stroke="black" d="M 277 71 174 146"/>
<path stroke-width="1" stroke="black" d="M 420 158 405 27"/>
<path stroke-width="1" stroke="black" d="M 420 158 20 66"/>
<path stroke-width="1" stroke="black" d="M 420 158 37 192"/>
<path stroke-width="1" stroke="black" d="M 420 158 128 20"/>
<path stroke-width="1" stroke="black" d="M 420 158 202 253"/>
<path stroke-width="1" stroke="black" d="M 420 158 353 244"/>
<path stroke-width="1" stroke="black" d="M 420 158 174 146"/>
<path stroke-width="1" stroke="black" d="M 420 158 277 71"/>
<path stroke-width="1" stroke="black" d="M 37 192 38 320"/>
<path stroke-width="1" stroke="black" d="M 37 192 405 27"/>
<path stroke-width="1" stroke="black" d="M 37 192 20 66"/>
<path stroke-width="1" stroke="black" d="M 37 192 420 158"/>
<path stroke-width="1" stroke="black" d="M 37 192 128 20"/>
<path stroke-width="1" stroke="black" d="M 37 192 202 253"/>
<path stroke-width="1" stroke="black" d="M 37 192 353 244"/>
<path stroke-width="1" stroke="black" d="M 37 192 174 146"/>
<path stroke-width="1" stroke="black" d="M 37 192 277 71"/>
<path stroke-width="1" stroke="black" d="M 420 158 38 320"/>
<path stroke-width="1" stroke="black" d="M 20 66 277 71"/>
<path stroke-width="1" stroke="black" d="M 20 66 174 146"/>
<path stroke-width="1" stroke="black" d="M 20 66 353 244"/>
<path stroke-width="1" stroke="black" d="M 38 320 128 20"/>
<path stroke-width="1" stroke="black" d="M 38 320 202 253"/>
<path stroke-width="1" stroke="black" d="M 38 320 353 244"/>
<path stroke-width="1" stroke="black" d="M 38 320 174 146"/>
<path stroke-width="1" stroke="black" d="M 38 320 277 71"/>
<path stroke-width="1" stroke="black" d="M 405 27 20 66"/>
<path stroke-width="1" stroke="black" d="M 405 27 420 158"/>
<path stroke-width="1" stroke="black" d="M 405 27 37 192"/>
<path stroke-width="1" stroke="black" d="M 128 20 38 320"/>
<path stroke-width="1" stroke="black" d="M 405 27 128 20"/>
<path stroke-width="1" stroke="black" d="M 405 27 353 244"/>
<path stroke-width="1" stroke="black" d="M 405 27 174 146"/>
<path stroke-width="1" stroke="black" d="M 405 27 277 71"/>
<path stroke-width="1" stroke="black" d="M 20 66 405 27"/>
<path stroke-width="1" stroke="black" d="M 20 66 420 158"/>
<path stroke-width="1" stroke="black" d="M 20 66 37 192"/>
<path stroke-width="1" stroke="black" d="M 20 66 128 20"/>
<path stroke-width="1" stroke="black" d="M 20 66 202 253"/>
<path stroke-width="1" stroke="black" d="M 405 27 202 253"/>
<path stroke-width="1" stroke="black" d="M 128 20 405 27"/>
<path stroke-width="1" stroke="black" d="M 128 20 20 66"/>
<path stroke-width="1" stroke="black" d="M 128 20 420 158"/>
<path stroke-width="1" stroke="black" d="M 353 244 277 71"/>
<path stroke-width="1" stroke="black" d="M 174 146 38 320"/>
<path stroke-width="1" stroke="black" d="M 174 146 405 27"/>
<path stroke-width="1" stroke="black" d="M 174 146 20 66"/>
<path stroke-width="1" stroke="black" d="M 174 146 420 158"/>
<path stroke-width="1" stroke="black" d="M 174 146 37 192"/>
<path stroke-width="1" stroke="black" d="M 174 146 128 20"/>
<path stroke-width="1" stroke="black" d="M 174 146 202 253"/>
<path stroke-width="1" stroke="black" d="M 353 244 174 146"/>
<path stroke-width="1" stroke="black" d="M 174 146 353 244"/>
<path stroke-width="1" stroke="black" d="M 277 71 38 320"/>
<path stroke-width="1" stroke="black" d="M 277 71 405 27"/>
<path stroke-width="1" stroke="black" d="M 277 71 20 66"/>
<path stroke-width="1" stroke="black" d="M 277 71 420 158"/>
<path stroke-width="1" stroke="black" d="M 277 71 37 192"/>
<path stroke-width="1" stroke="black" d="M 277 71 128 20"/>
<path stroke-width="1" stroke="black" d="M 277 71 202 253"/>
<path stroke-width="1" stroke="black" d="M 277 71 353 244"/>
<path stroke-width="1" stroke="black" d="M 174 146 277 71"/>
<path stroke-width="1" stroke="black" d="M 38 320 37 192"/>
<path stroke-width="1" stroke="black" d="M 353 244 202 253"/>
<path stroke-width="1" stroke="black" d="M 353 244 37 192"/>
<path stroke-width="1" stroke="black" d="M 128 20 37 192"/>
<path stroke-width="1" stroke="black" d="M 128 20 202 253"/>
<path stroke-width="1" stroke="black" d="M 128 20 353 244"/>
<path stroke-width="1" stroke="black" d="M 128 20 174 146"/>
<path stroke-width="1" stroke="black" d="M 128 20 277 71"/>
<path stroke-width="1" stroke="black" d="M 202 253 38 320"/>
<path stroke-width="1" stroke="black" d="M 202 253 405 27"/>
<path stroke-width="1" stroke="black" d="M 202 253 20 66"/>
<path stroke-width="1" stroke="black" d="M 353 244 128 20"/>
<path stroke-width="1" stroke="black" d="M 202 253 420 158"/>
<path stroke-width="1" stroke="black" d="M 202 253 128 20"/>
<path stroke-width="1" stroke="black" d="M 202 253 353 244"/>
<path stroke-width="1" stroke="black" d="M 202 253 174 146"/>
<path stroke-width="1" stroke="black" d="M 202 253 277 71"/>
<path stroke-width="1" stroke="black" d="M 353 244 38 320"/>
<path stroke-width="1" stroke="black" d="M 353 244 405 27"/>
<path stroke-width="1" stroke="black" d="M 353 244 20 66"/>
<path stroke-width="1" stroke="black" d="M 353 244 420 158"/>
<path stroke-width="1" stroke="black" d="M 202 253 37 192"/>
<path stroke-width="1" stroke="black" d="M 38 320 420 158"/>
<circle cx="277" cy="71" r="7.0" style="fill:gray;stroke:black;stroke-width:1.0"/>
<circle cx="174" cy="146" r="7.0" style="fill:gray;stroke:black;stroke-width:1.0"/>
<circle cx="353" cy="244" r="7.0" style="fill:gray;stroke:black;stroke-width:1.0"/>
<circle cx="202" cy="253" r="7.0" style="fill:gray;stroke:black;stroke-width:1.0"/>
<circle cx="128" cy="20" r="7.0" style="fill:gray;stroke:black;stroke-width:1.0"/>
<circle cx="37" cy="192" r="7.0" style="fill:gray;stroke:black;stroke-width:1.0"/>
<circle cx="420" cy="158" r="7.0" style="fill:gray;stroke:black;stroke-width:1.0"/>
<circle cx="20" cy="66" r="7.0" style="fill:gray;stroke:black;stroke-width:1.0"/>
<circle cx="405" cy="27" r="7.0" style="fill:gray;stroke:black;stroke-width:1.0"/>
<circle cx="38" cy="320" r="7.0" style="fill:gray;stroke:black;stroke-width:1.0"/>
</svg>
