<svg width="440" height="340" xmlns="http://www.w3.org/2000/svg">
<path stroke-width="0.5635407432254355" stroke="black" d="M 276 216 420 212"/>
<path stroke-width="0.7859333445144596" stroke="black" d="M 265 206 192 208"/>
<path stroke-width="0.5" stroke="black" d="M 265 206 20 320"/>
<path stroke-width="0.6270814864508709" stroke="black" d="M 265 206 350 231"/>
<path stroke-width="0.5079425929031794" stroke="black" d="M 265 206 420 212"/>
<path stroke-width="0.793875937417639" stroke="black" d="M 265 206 276 216"/>
<path stroke-width="0.7859333445144596" stroke="black" d="M 192 208 265 206"/>
<path stroke-width="0.5476555574190766" stroke="black" d="M 192 208 20 320"/>
<path stroke-width="20.0" stroke="black" d="M 192 208 350 231"/>
<path stroke-width="0.5397129645158971" stroke="black" d="M 192 208 420 212"/>
<path stroke-width="1.350791863334691" stroke="black" d="M 192 208 276 216"/>
<path stroke-width="0.5" stroke="black" d="M 20 320 265 206"/>
<path stroke-width="0.5476555574190766" stroke="black" d="M 20 320 192 208"/>
<path stroke-width="0.6191388935476915" stroke="black" d="M 20 320 350 231"/>
<path stroke-width="0.5" stroke="black" d="M 20 320 420 212"/>
<path stroke-width="0.5158851858063589" stroke="black" d="M 20 320 276 216"/>
<path stroke-width="0.5079425929031794" stroke="black" d="M 350 231 93 20"/>
<path stroke-width="0.6270814864508709" stroke="black" d="M 350 231 265 206"/>
<path stroke-width="0.6191388935476915" stroke="black" d="M 276 216 350 231"/>
<path stroke-width="0.5158851858063589" stroke="black" d="M 276 216 20 320"/>
<path stroke-width="1.350791863334691" stroke="black" d="M 276 216 192 208"/>
<path stroke-width="0.793875937417639" stroke="black" d="M 276 216 265 206"/>
<path stroke-width="0.5635407432254355" stroke="black" d="M 420 212 276 216"/>
<path stroke-width="0.7462203799985624" stroke="black" d="M 420 212 350 231"/>
<path stroke-width="0.5" stroke="black" d="M 93 20 420 212"/>
<path stroke-width="0.5" stroke="black" d="M 420 212 20 320"/>
<path stroke-width="0.5079425929031794" stroke="black" d="M 420 212 265 206"/>
<path stroke-width="0.5" stroke="black" d="M 420 212 93 20"/>
<path stroke-width="0.6191388935476915" stroke="black" d="M 350 231 276 216"/>
<path stroke-width="0.7462203799985624" stroke="black" d="M 350 231 420 212"/>
<path stroke-width="0.6191388935476915" stroke="black" d="M 350 231 20 320"/>
<path stroke-width="20.0" stroke="black" d="M 350 231 192 208"/>
<path stroke-width="0.5397129645158971" stroke="black" d="M 420 212 192 208"/>
<path stroke-width="0.5079425929031794" stroke="black" d="M 93 20 350 231"/>
<circle cx="276" cy="216" r="7.0" style="fill:gray;stroke:black;stroke-width:1.0"/>
<circle cx="420" cy="212" r="7.0" style="fill:gray;stroke:black;stroke-width:1.0"/>
<circle cx="350" cy="231" r="7.0" style="fill:gray;stroke:black;stroke-width:1.0"/>
<circle cx="20" cy="320" r="7.0" style="fill:gray;stroke:black;stroke-width:1.0"/>
<circle cx="192" cy="208" r="7.0" style="fill:gray;stroke:black;stroke-width:1.0"/>
<circle cx="265" cy="206" r="7.0" style="fill:gray;stroke:black;stroke-width:1.0"/>
<circle cx="93" cy="20" r="7.0" style="fill:gray;stroke:black;stroke-width:1.0"/>
</svg>
