<svg width="440" height="340" xmlns="http://www.w3.org/2000/svg">
<path stroke-width="1" stroke="black" d="M 400 95 20 131"/>
<path stroke-width="1" stroke="black" d="M 195 320 20 131"/>
<path stroke-width="1" stroke="black" d="M 195 320 400 95"/>
<path stroke-width="1" stroke="black" d="M 420 20 195 320"/>
<path stroke-width="1" stroke="black" d="M 420 20 290 263"/>
<path stroke-width="1" stroke="black" d="M 420 20 20 131"/>
<path stroke-width="1" stroke="black" d="M 420 20 400 95"/>
<path stroke-width="1" stroke="black" d="M 290 263 195 320"/>
<path stroke-width="1" stroke="black" d="M 290 263 420 20"/>
<path stroke-width="1" stroke="black" d="M 290 263 20 131"/>
<path stroke-width="1" stroke="black" d="M 290 263 400 95"/>
<path stroke-width="1" stroke="black" d="M 20 131 195 320"/>
<path stroke-width="1" stroke="black" d="M 20 131 420 20"/>
<path stroke-width="1" stroke="black" d="M 20 131 290 263"/>
<path stroke-width="1" stroke="black" d="M 20 131 400 95"/>
<path stroke-width="1" stroke="black" d="M 400 95 195 320"/>
<path stroke-width="1" stroke="black" d="M 400 95 420 20"/>
<path stroke-width="1" stroke="black" d="M 400 95 290 263"/>
<path stroke-width="1" stroke="black" d="M 195 320 290 263"/>
<path stroke-width="1" stroke="black" d="M 195 320 420 20"/>
<circle cx="400" cy="95" r="7.0" style="fill:gray;stroke:black;stroke-width:1.0"/>
<circle cx="20" cy="131" r="7.0" style="fill:gray;stroke:black;stroke-width:1.0"/>
<circle cx="290" cy="263" r="7.0" style="fill:gray;stroke:black;stroke-width:1.0"/>
<circle cx="420" cy="20" r="7.0" style="fill:gray;stroke:black;stroke-width:1.0"/>
<circle cx="195" cy="320" r="7.0" style="fill:gray;stroke:black;stroke-width:1.0"/>
</svg>
