<svg width="440" height="340" xmlns="http://www.w3.org/2000/svg">
<path stroke-width="20.0" stroke="black" d="M 277 224 420 98"/>
<path stroke-width="0.5" stroke="black" d="M 106 320 420 98"/>
<path stroke-width="20.0" stroke="black" d="M 106 320 277 224"/>
<path stroke-width="0.5" stroke="black" d="M 20 146 106 320"/>
<path stroke-width="0.5" stroke="black" d="M 20 146 223 20"/>
<path stroke-width="0.5" stroke="black" d="M 20 146 420 98"/>
<path stroke-width="19.025" stroke="black" d="M 20 146 277 224"/>
<path stroke-width="0.5" stroke="black" d="M 223 20 106 320"/>
<path stroke-width="0.5" stroke="black" d="M 223 20 20 146"/>
<path stroke-width="0.5" stroke="black" d="M 223 20 420 98"/>
<path stroke-width="20.0" stroke="black" d="M 223 20 277 224"/>
<path stroke-width="0.5" stroke="black" d="M 420 98 106 320"/>
<path stroke-width="0.5" stroke="black" d="M 420 98 20 146"/>
<path stroke-width="0.5" stroke="black" d="M 420 98 223 20"/>
<path stroke-width="20.0" stroke="black" d="M 420 98 277 224"/>
<path stroke-width="20.0" stroke="black" d="M 277 224 106 320"/>
<path stroke-width="19.025" stroke="black" d="M 277 224 20 146"/>
<path stroke-width="20.0" stroke="black" d="M 277 224 223 20"/>
<path stroke-width="0.5" stroke="black" d="M 106 320 223 20"/>
<path stroke-width="0.5" stroke="black" d="M 106 320 20 146"/>
<circle cx="277" cy="224" r="7.0" style="fill:gray;stroke:black;stroke-width:1.0"/>
<circle cx="420" cy="98" r="7.0" style="fill:gray;stroke:black;stroke-width:1.0"/>
<circle cx="223" cy="20" r="7.0" style="fill:gray;stroke:black;stroke-width:1.0"/>
<circle cx="20" cy="146" r="7.0" style="fill:gray;stroke:black;stroke-width:1.0"/>
<circle cx="106" cy="320" r="7.0" style="fill:gray;stroke:black;stroke-width:1.0"/>
</svg>
