<svg width="440" height="340" xmlns="http://www.w3.org/2000/svg">
<path stroke-width="1" stroke="black" d="M 69 169 75 168"/>
<path stroke-width="1" stroke="black" d="M 66 148 74 177"/>
<path stroke-width="1" stroke="black" d="M 66 148 72 41"/>
<path stroke-width="1" stroke="black" d="M 104 197 70 176"/>
<path stroke-width="1" stroke="black" d="M 70 176 75 168"/>
<path stroke-width="1" stroke="black" d="M 70 176 59 171"/>
<path stroke-width="1" stroke="black" d="M 70 176 51 191"/>
<path stroke-width="1" stroke="black" d="M 66 148 70 176"/>
<path stroke-width="1" stroke="black" d="M 70 176 81 170"/>
<path stroke-width="1" stroke="black" d="M 70 176 54 128"/>
<path stroke-width="1" stroke="black" d="M 70 176 132 145"/>
<path stroke-width="1" stroke="black" d="M 70 176 66 148"/>
<path stroke-width="1" stroke="black" d="M 70 176 104 197"/>
<path stroke-width="1" stroke="black" d="M 70 176 74 177"/>
<path stroke-width="1" stroke="black" d="M 70 176 72 41"/>
<path stroke-width="1" stroke="black" d="M 70 176 145 198"/>
<path stroke-width="1" stroke="black" d="M 71 178 74 177"/>
<path stroke-width="1" stroke="black" d="M 66 148 87 94"/>
<path stroke-width="1" stroke="black" d="M 66 148 54 128"/>
<path stroke-width="1" stroke="black" d="M 132 145 81 170"/>
<path stroke-width="1" stroke="black" d="M 132 145 145 198"/>
<path stroke-width="1" stroke="black" d="M 132 145 54 128"/>
<path stroke-width="1" stroke="black" d="M 132 145 216 117"/>
<path stroke-width="1" stroke="black" d="M 132 145 66 148"/>
<path stroke-width="1" stroke="black" d="M 132 145 70 176"/>
<path stroke-width="1" stroke="black" d="M 66 148 132 145"/>
<path stroke-width="1" stroke="black" d="M 132 145 74 177"/>
<path stroke-width="1" stroke="black" d="M 87 94 66 148"/>
<path stroke-width="1" stroke="black" d="M 66 148 75 168"/>
<path stroke-width="1" stroke="black" d="M 66 148 59 171"/>
<path stroke-width="1" stroke="black" d="M 66 148 51 191"/>
<path stroke-width="1" stroke="black" d="M 66 148 81 170"/>
<path stroke-width="1" stroke="black" d="M 66 148 145 198"/>
<path stroke-width="1" stroke="black" d="M 132 145 72 41"/>
<path stroke-width="1" stroke="black" d="M 132 145 51 191"/>
<path stroke-width="1" stroke="black" d="M 74 177 75 168"/>
<path stroke-width="1" stroke="black" d="M 74 177 51 191"/>
<path stroke-width="1" stroke="black" d="M 420 320 340 245"/>
<path stroke-width="1" stroke="black" d="M 340 245 145 198"/>
<path stroke-width="1" stroke="black" d="M 340 245 245 99"/>
<path stroke-width="1" stroke="black" d="M 340 245 420 320"/>
<path stroke-width="1" stroke="black" d="M 340 245 91 125"/>
<path stroke-width="1" stroke="black" d="M 20 118 91 125"/>
<path stroke-width="1" stroke="black" d="M 245 99 340 245"/>
<path stroke-width="1" stroke="black" d="M 91 125 54 128"/>
<path stroke-width="1" stroke="black" d="M 91 125 20 118"/>
<path stroke-width="1" stroke="black" d="M 91 125 72 41"/>
<path stroke-width="1" stroke="black" d="M 112 20 72 41"/>
<path stroke-width="1" stroke="black" d="M 72 41 132 145"/>
<path stroke-width="1" stroke="black" d="M 72 41 66 148"/>
<path stroke-width="1" stroke="black" d="M 72 41 70 176"/>
<path stroke-width="1" stroke="black" d="M 91 125 340 245"/>
<path stroke-width="1" stroke="black" d="M 74 177 59 171"/>
<path stroke-width="1" stroke="black" d="M 245 99 195 67"/>
<path stroke-width="1" stroke="black" d="M 245 99 81 170"/>
<path stroke-width="1" stroke="black" d="M 74 177 81 170"/>
<path stroke-width="1" stroke="black" d="M 74 177 145 198"/>
<path stroke-width="1" stroke="black" d="M 74 177 54 128"/>
<path stroke-width="1" stroke="black" d="M 74 177 132 145"/>
<path stroke-width="1" stroke="black" d="M 74 177 66 148"/>
<path stroke-width="1" stroke="black" d="M 74 177 70 176"/>
<path stroke-width="1" stroke="black" d="M 245 99 217 189"/>
<path stroke-width="1" stroke="black" d="M 74 177 71 178"/>
<path stroke-width="1" stroke="black" d="M 286 184 217 189"/>
<path stroke-width="1" stroke="black" d="M 217 189 51 191"/>
<path stroke-width="1" stroke="black" d="M 217 189 74 177"/>
<path stroke-width="1" stroke="black" d="M 217 189 286 184"/>
<path stroke-width="1" stroke="black" d="M 217 189 245 99"/>
<path stroke-width="1" stroke="black" d="M 195 67 245 99"/>
<path stroke-width="1" stroke="black" d="M 74 177 217 189"/>
<path stroke-width="1" stroke="black" d="M 132 145 59 171"/>
<path stroke-width="1" stroke="black" d="M 132 145 75 168"/>
<path stroke-width="1" stroke="black" d="M 216 117 132 145"/>
<path stroke-width="1" stroke="black" d="M 59 171 66 148"/>
<path stroke-width="1" stroke="black" d="M 59 171 70 176"/>
<path stroke-width="1" stroke="black" d="M 59 171 74 177"/>
<path stroke-width="1" stroke="black" d="M 36 200 51 191"/>
<path stroke-width="1" stroke="black" d="M 51 191 75 168"/>
<path stroke-width="1" stroke="black" d="M 51 191 59 171"/>
<path stroke-width="1" stroke="black" d="M 59 171 132 145"/>
<path stroke-width="1" stroke="black" d="M 51 191 36 200"/>
<path stroke-width="1" stroke="black" d="M 51 191 145 198"/>
<path stroke-width="1" stroke="black" d="M 51 191 54 128"/>
<path stroke-width="1" stroke="black" d="M 51 191 132 145"/>
<path stroke-width="1" stroke="black" d="M 51 191 66 148"/>
<path stroke-width="1" stroke="black" d="M 51 191 70 176"/>
<path stroke-width="1" stroke="black" d="M 51 191 74 177"/>
<path stroke-width="1" stroke="black" d="M 51 191 81 170"/>
<path stroke-width="1" stroke="black" d="M 51 191 217 189"/>
<path stroke-width="1" stroke="black" d="M 59 171 54 128"/>
<path stroke-width="1" stroke="black" d="M 59 171 81 170"/>
<path stroke-width="1" stroke="black" d="M 75 168 69 169"/>
<path stroke-width="1" stroke="black" d="M 75 168 59 171"/>
<path stroke-width="1" stroke="black" d="M 75 168 51 191"/>
<path stroke-width="1" stroke="black" d="M 75 168 81 170"/>
<path stroke-width="1" stroke="black" d="M 75 168 145 198"/>
<path stroke-width="1" stroke="black" d="M 75 168 54 128"/>
<path stroke-width="1" stroke="black" d="M 59 171 145 198"/>
<path stroke-width="1" stroke="black" d="M 75 168 132 145"/>
<path stroke-width="1" stroke="black" d="M 75 168 70 176"/>
<path stroke-width="1" stroke="black" d="M 75 168 74 177"/>
<path stroke-width="1" stroke="black" d="M 49 172 59 171"/>
<path stroke-width="1" stroke="black" d="M 59 171 75 168"/>
<path stroke-width="1" stroke="black" d="M 59 171 49 172"/>
<path stroke-width="1" stroke="black" d="M 59 171 51 191"/>
<path stroke-width="1" stroke="black" d="M 75 168 66 148"/>
<path stroke-width="1" stroke="black" d="M 73 178 81 170"/>
<path stroke-width="1" stroke="black" d="M 81 170 75 168"/>
<path stroke-width="1" stroke="black" d="M 81 170 59 171"/>
<path stroke-width="1" stroke="black" d="M 145 198 74 177"/>
<path stroke-width="1" stroke="black" d="M 145 198 340 245"/>
<path stroke-width="1" stroke="black" d="M 39 93 54 128"/>
<path stroke-width="1" stroke="black" d="M 54 128 75 168"/>
<path stroke-width="1" stroke="black" d="M 54 128 59 171"/>
<path stroke-width="1" stroke="black" d="M 54 128 51 191"/>
<path stroke-width="1" stroke="black" d="M 145 198 70 176"/>
<path stroke-width="1" stroke="black" d="M 54 128 81 170"/>
<path stroke-width="1" stroke="black" d="M 54 128 39 93"/>
<path stroke-width="1" stroke="black" d="M 54 128 132 145"/>
<path stroke-width="1" stroke="black" d="M 54 128 66 148"/>
<path stroke-width="1" stroke="black" d="M 54 128 70 176"/>
<path stroke-width="1" stroke="black" d="M 54 128 74 177"/>
<path stroke-width="1" stroke="black" d="M 54 128 91 125"/>
<path stroke-width="1" stroke="black" d="M 54 128 145 198"/>
<path stroke-width="1" stroke="black" d="M 145 198 66 148"/>
<path stroke-width="1" stroke="black" d="M 145 198 132 145"/>
<path stroke-width="1" stroke="black" d="M 145 198 54 128"/>
<path stroke-width="1" stroke="black" d="M 81 170 51 191"/>
<path stroke-width="1" stroke="black" d="M 81 170 73 178"/>
<path stroke-width="1" stroke="black" d="M 81 170 145 198"/>
<path stroke-width="1" stroke="black" d="M 81 170 54 128"/>
<path stroke-width="1" stroke="black" d="M 81 170 132 145"/>
<path stroke-width="1" stroke="black" d="M 81 170 66 148"/>
<path stroke-width="1" stroke="black" d="M 81 170 70 176"/>
<path stroke-width="1" stroke="black" d="M 81 170 74 177"/>
<path stroke-width="1" stroke="black" d="M 81 170 245 99"/>
<path stroke-width="1" stroke="black" d="M 182 212 145 198"/>
<path stroke-width="1" stroke="black" d="M 145 198 75 168"/>
<path stroke-width="1" stroke="black" d="M 145 198 59 171"/>
<path stroke-width="1" stroke="black" d="M 145 198 51 191"/>
<path stroke-width="1" stroke="black" d="M 145 198 81 170"/>
<path stroke-width="1" stroke="black" d="M 145 198 182 212"/>
<path stroke-width="1" stroke="black" d="M 72 41 91 125"/>
<path stroke-width="1" stroke="black" d="M 72 41 112 20"/>
<circle cx="69" cy="169" r="20.0" style="fill:orange;stroke:black;stroke-width:1.0"/>
<circle cx="75" cy="168" r="20.0" style="fill:orange;stroke:black;stroke-width:1.0"/>
<circle cx="49" cy="172" r="20.0" style="fill:orange;stroke:black;stroke-width:1.0"/>
<circle cx="59" cy="171" r="20.0" style="fill:orange;stroke:black;stroke-width:1.0"/>
<circle cx="36" cy="200" r="20.0" style="fill:orange;stroke:black;stroke-width:1.0"/>
<circle cx="51" cy="191" r="20.0" style="fill:orange;stroke:black;stroke-width:1.0"/>
<circle cx="73" cy="178" r="20.0" style="fill:red;stroke:black;stroke-width:1.0"/>
<circle cx="81" cy="170" r="20.0" style="fill:red;stroke:black;stroke-width:1.0"/>
<circle cx="182" cy="212" r="20.0" style="fill:yellow;stroke:black;stroke-width:1.0"/>
<circle cx="145" cy="198" r="20.0" style="fill:yellow;stroke:black;stroke-width:1.0"/>
<circle cx="39" cy="93" r="20.0" style="fill:green;stroke:black;stroke-width:1.0"/>
<circle cx="54" cy="128" r="20.0" style="fill:green;stroke:black;stroke-width:1.0"/>
<circle cx="216" cy="117" r="20.0" style="fill:purple;stroke:black;stroke-width:1.0"/>
<circle cx="132" cy="145" r="20.0" style="fill:purple;stroke:black;stroke-width:1.0"/>
<circle cx="87" cy="94" r="20.0" style="fill:orange;stroke:black;stroke-width:1.0"/>
<circle cx="66" cy="148" r="20.0" style="fill:orange;stroke:black;stroke-width:1.0"/>
<circle cx="104" cy="197" r="20.0" style="fill:purple;stroke:black;stroke-width:1.0"/>
<circle cx="70" cy="176" r="20.0" style="fill:purple;stroke:black;stroke-width:1.0"/>
<circle cx="71" cy="178" r="20.0" style="fill:blue;stroke:black;stroke-width:1.0"/>
<circle cx="74" cy="177" r="20.0" style="fill:blue;stroke:black;stroke-width:1.0"/>
<circle cx="286" cy="184" r="20.0" style="fill:fuchsia;stroke:black;stroke-width:1.0"/>
<circle cx="217" cy="189" r="20.0" style="fill:fuchsia;stroke:black;stroke-width:1.0"/>
<circle cx="195" cy="67" r="20.0" style="fill:red;stroke:black;stroke-width:1.0"/>
<circle cx="245" cy="99" r="20.0" style="fill:red;stroke:black;stroke-width:1.0"/>
<circle cx="420" cy="320" r="20.0" style="fill:red;stroke:black;stroke-width:1.0"/>
<circle cx="340" cy="245" r="20.0" style="fill:red;stroke:black;stroke-width:1.0"/>
<circle cx="20" cy="118" r="20.0" style="fill:purple;stroke:black;stroke-width:1.0"/>
<circle cx="91" cy="125" r="20.0" style="fill:purple;stroke:black;stroke-width:1.0"/>
<circle cx="112" cy="20" r="20.0" style="fill:purple;stroke:black;stroke-width:1.0"/>
<circle cx="72" cy="41" r="20.0" style="fill:purple;stroke:black;stroke-width:1.0"/>
</svg>
