<svg width="440" height="340" xmlns="http://www.w3.org/2000/svg">
<path stroke-width="1" stroke="black" d="M 243 201 238 203"/>
<path stroke-width="1" stroke="black" d="M 197 184 251 199"/>
<path stroke-width="1" stroke="black" d="M 197 184 302 225"/>
<path stroke-width="1" stroke="black" d="M 159 285 229 218"/>
<path stroke-width="1" stroke="black" d="M 229 218 238 203"/>
<path stroke-width="1" stroke="black" d="M 229 218 247 204"/>
<path stroke-width="1" stroke="black" d="M 229 218 238 195"/>
<path stroke-width="1" stroke="black" d="M 197 184 229 218"/>
<path stroke-width="1" stroke="black" d="M 229 218 301 201"/>
<path stroke-width="1" stroke="black" d="M 229 218 239 206"/>
<path stroke-width="1" stroke="black" d="M 229 218 223 243"/>
<path stroke-width="1" stroke="black" d="M 229 218 197 184"/>
<path stroke-width="1" stroke="black" d="M 229 218 159 285"/>
<path stroke-width="1" stroke="black" d="M 229 218 251 199"/>
<path stroke-width="1" stroke="black" d="M 229 218 302 225"/>
<path stroke-width="1" stroke="black" d="M 229 218 245 151"/>
<path stroke-width="1" stroke="black" d="M 254 198 251 199"/>
<path stroke-width="1" stroke="black" d="M 197 184 82 150"/>
<path stroke-width="1" stroke="black" d="M 197 184 239 206"/>
<path stroke-width="1" stroke="black" d="M 223 243 301 201"/>
<path stroke-width="1" stroke="black" d="M 223 243 245 151"/>
<path stroke-width="1" stroke="black" d="M 223 243 239 206"/>
<path stroke-width="1" stroke="black" d="M 223 243 186 296"/>
<path stroke-width="1" stroke="black" d="M 223 243 197 184"/>
<path stroke-width="1" stroke="black" d="M 223 243 229 218"/>
<path stroke-width="1" stroke="black" d="M 197 184 223 243"/>
<path stroke-width="1" stroke="black" d="M 223 243 251 199"/>
<path stroke-width="1" stroke="black" d="M 82 150 197 184"/>
<path stroke-width="1" stroke="black" d="M 197 184 238 203"/>
<path stroke-width="1" stroke="black" d="M 197 184 247 204"/>
<path stroke-width="1" stroke="black" d="M 197 184 238 195"/>
<path stroke-width="1" stroke="black" d="M 197 184 301 201"/>
<path stroke-width="1" stroke="black" d="M 197 184 245 151"/>
<path stroke-width="1" stroke="black" d="M 223 243 302 225"/>
<path stroke-width="1" stroke="black" d="M 223 243 238 195"/>
<path stroke-width="1" stroke="black" d="M 251 199 238 203"/>
<path stroke-width="1" stroke="black" d="M 251 199 238 195"/>
<path stroke-width="1" stroke="black" d="M 20 20 116 81"/>
<path stroke-width="1" stroke="black" d="M 116 81 245 151"/>
<path stroke-width="1" stroke="black" d="M 116 81 226 219"/>
<path stroke-width="1" stroke="black" d="M 116 81 20 20"/>
<path stroke-width="1" stroke="black" d="M 116 81 365 194"/>
<path stroke-width="1" stroke="black" d="M 420 181 365 194"/>
<path stroke-width="1" stroke="black" d="M 226 219 116 81"/>
<path stroke-width="1" stroke="black" d="M 365 194 239 206"/>
<path stroke-width="1" stroke="black" d="M 365 194 420 181"/>
<path stroke-width="1" stroke="black" d="M 365 194 302 225"/>
<path stroke-width="1" stroke="black" d="M 346 214 302 225"/>
<path stroke-width="1" stroke="black" d="M 302 225 223 243"/>
<path stroke-width="1" stroke="black" d="M 302 225 197 184"/>
<path stroke-width="1" stroke="black" d="M 302 225 229 218"/>
<path stroke-width="1" stroke="black" d="M 365 194 116 81"/>
<path stroke-width="1" stroke="black" d="M 251 199 247 204"/>
<path stroke-width="1" stroke="black" d="M 226 219 274 198"/>
<path stroke-width="1" stroke="black" d="M 226 219 301 201"/>
<path stroke-width="1" stroke="black" d="M 251 199 301 201"/>
<path stroke-width="1" stroke="black" d="M 251 199 245 151"/>
<path stroke-width="1" stroke="black" d="M 251 199 239 206"/>
<path stroke-width="1" stroke="black" d="M 251 199 223 243"/>
<path stroke-width="1" stroke="black" d="M 251 199 197 184"/>
<path stroke-width="1" stroke="black" d="M 251 199 229 218"/>
<path stroke-width="1" stroke="black" d="M 226 219 155 306"/>
<path stroke-width="1" stroke="black" d="M 251 199 254 198"/>
<path stroke-width="1" stroke="black" d="M 176 320 155 306"/>
<path stroke-width="1" stroke="black" d="M 155 306 238 195"/>
<path stroke-width="1" stroke="black" d="M 155 306 251 199"/>
<path stroke-width="1" stroke="black" d="M 155 306 176 320"/>
<path stroke-width="1" stroke="black" d="M 155 306 226 219"/>
<path stroke-width="1" stroke="black" d="M 274 198 226 219"/>
<path stroke-width="1" stroke="black" d="M 251 199 155 306"/>
<path stroke-width="1" stroke="black" d="M 223 243 247 204"/>
<path stroke-width="1" stroke="black" d="M 223 243 238 203"/>
<path stroke-width="1" stroke="black" d="M 186 296 223 243"/>
<path stroke-width="1" stroke="black" d="M 247 204 197 184"/>
<path stroke-width="1" stroke="black" d="M 247 204 229 218"/>
<path stroke-width="1" stroke="black" d="M 247 204 251 199"/>
<path stroke-width="1" stroke="black" d="M 242 187 238 195"/>
<path stroke-width="1" stroke="black" d="M 238 195 238 203"/>
<path stroke-width="1" stroke="black" d="M 238 195 247 204"/>
<path stroke-width="1" stroke="black" d="M 247 204 223 243"/>
<path stroke-width="1" stroke="black" d="M 238 195 242 187"/>
<path stroke-width="1" stroke="black" d="M 238 195 245 151"/>
<path stroke-width="1" stroke="black" d="M 238 195 239 206"/>
<path stroke-width="1" stroke="black" d="M 238 195 223 243"/>
<path stroke-width="1" stroke="black" d="M 238 195 197 184"/>
<path stroke-width="1" stroke="black" d="M 238 195 229 218"/>
<path stroke-width="1" stroke="black" d="M 238 195 251 199"/>
<path stroke-width="1" stroke="black" d="M 238 195 301 201"/>
<path stroke-width="1" stroke="black" d="M 238 195 155 306"/>
<path stroke-width="1" stroke="black" d="M 247 204 239 206"/>
<path stroke-width="1" stroke="black" d="M 247 204 301 201"/>
<path stroke-width="1" stroke="black" d="M 238 203 243 201"/>
<path stroke-width="1" stroke="black" d="M 238 203 247 204"/>
<path stroke-width="1" stroke="black" d="M 238 203 238 195"/>
<path stroke-width="1" stroke="black" d="M 238 203 301 201"/>
<path stroke-width="1" stroke="black" d="M 238 203 245 151"/>
<path stroke-width="1" stroke="black" d="M 238 203 239 206"/>
<path stroke-width="1" stroke="black" d="M 247 204 245 151"/>
<path stroke-width="1" stroke="black" d="M 238 203 223 243"/>
<path stroke-width="1" stroke="black" d="M 238 203 229 218"/>
<path stroke-width="1" stroke="black" d="M 238 203 251 199"/>
<path stroke-width="1" stroke="black" d="M 256 203 247 204"/>
<path stroke-width="1" stroke="black" d="M 247 204 238 203"/>
<path stroke-width="1" stroke="black" d="M 247 204 256 203"/>
<path stroke-width="1" stroke="black" d="M 247 204 238 195"/>
<path stroke-width="1" stroke="black" d="M 238 203 197 184"/>
<path stroke-width="1" stroke="black" d="M 333 200 301 201"/>
<path stroke-width="1" stroke="black" d="M 301 201 238 203"/>
<path stroke-width="1" stroke="black" d="M 301 201 247 204"/>
<path stroke-width="1" stroke="black" d="M 245 151 251 199"/>
<path stroke-width="1" stroke="black" d="M 245 151 116 81"/>
<path stroke-width="1" stroke="black" d="M 216 199 239 206"/>
<path stroke-width="1" stroke="black" d="M 239 206 238 203"/>
<path stroke-width="1" stroke="black" d="M 239 206 247 204"/>
<path stroke-width="1" stroke="black" d="M 239 206 238 195"/>
<path stroke-width="1" stroke="black" d="M 245 151 229 218"/>
<path stroke-width="1" stroke="black" d="M 239 206 301 201"/>
<path stroke-width="1" stroke="black" d="M 239 206 216 199"/>
<path stroke-width="1" stroke="black" d="M 239 206 223 243"/>
<path stroke-width="1" stroke="black" d="M 239 206 197 184"/>
<path stroke-width="1" stroke="black" d="M 239 206 229 218"/>
<path stroke-width="1" stroke="black" d="M 239 206 251 199"/>
<path stroke-width="1" stroke="black" d="M 239 206 365 194"/>
<path stroke-width="1" stroke="black" d="M 239 206 245 151"/>
<path stroke-width="1" stroke="black" d="M 245 151 197 184"/>
<path stroke-width="1" stroke="black" d="M 245 151 223 243"/>
<path stroke-width="1" stroke="black" d="M 245 151 239 206"/>
<path stroke-width="1" stroke="black" d="M 301 201 238 195"/>
<path stroke-width="1" stroke="black" d="M 301 201 333 200"/>
<path stroke-width="1" stroke="black" d="M 301 201 245 151"/>
<path stroke-width="1" stroke="black" d="M 301 201 239 206"/>
<path stroke-width="1" stroke="black" d="M 301 201 223 243"/>
<path stroke-width="1" stroke="black" d="M 301 201 197 184"/>
<path stroke-width="1" stroke="black" d="M 301 201 229 218"/>
<path stroke-width="1" stroke="black" d="M 301 201 251 199"/>
<path stroke-width="1" stroke="black" d="M 301 201 226 219"/>
<path stroke-width="1" stroke="black" d="M 249 123 245 151"/>
<path stroke-width="1" stroke="black" d="M 245 151 238 203"/>
<path stroke-width="1" stroke="black" d="M 245 151 247 204"/>
<path stroke-width="1" stroke="black" d="M 245 151 238 195"/>
<path stroke-width="1" stroke="black" d="M 245 151 301 201"/>
<path stroke-width="1" stroke="black" d="M 245 151 249 123"/>
<path stroke-width="1" stroke="black" d="M 302 225 365 194"/>
<path stroke-width="1" stroke="black" d="M 302 225 346 214"/>
<circle cx="243" cy="201" r="7.0" style="fill:purple;stroke:black;stroke-width:1.0"/>
<circle cx="238" cy="203" r="7.0" style="fill:purple;stroke:black;stroke-width:1.0"/>
<circle cx="256" cy="203" r="7.0" style="fill:purple;stroke:black;stroke-width:1.0"/>
<circle cx="247" cy="204" r="7.0" style="fill:purple;stroke:black;stroke-width:1.0"/>
<circle cx="242" cy="187" r="7.0" style="fill:green;stroke:black;stroke-width:1.0"/>
<circle cx="238" cy="195" r="7.0" style="fill:green;stroke:black;stroke-width:1.0"/>
<circle cx="333" cy="200" r="7.0" style="fill:red;stroke:black;stroke-width:1.0"/>
<circle cx="301" cy="201" r="7.0" style="fill:red;stroke:black;stroke-width:1.0"/>
<circle cx="249" cy="123" r="7.0" style="fill:orange;stroke:black;stroke-width:1.0"/>
<circle cx="245" cy="151" r="7.0" style="fill:orange;stroke:black;stroke-width:1.0"/>
<circle cx="216" cy="199" r="7.0" style="fill:blue;stroke:black;stroke-width:1.0"/>
<circle cx="239" cy="206" r="7.0" style="fill:yellow;stroke:black;stroke-width:1.0"/>
<circle cx="186" cy="296" r="7.0" style="fill:yellow;stroke:black;stroke-width:1.0"/>
<circle cx="223" cy="243" r="7.0" style="fill:yellow;stroke:black;stroke-width:1.0"/>
<circle cx="82" cy="150" r="7.0" style="fill:purple;stroke:black;stroke-width:1.0"/>
<circle cx="197" cy="184" r="7.0" style="fill:purple;stroke:black;stroke-width:1.0"/>
<circle cx="159" cy="285" r="7.0" style="fill:purple;stroke:black;stroke-width:1.0"/>
<circle cx="229" cy="218" r="7.0" style="fill:blue;stroke:black;stroke-width:1.0"/>
<circle cx="254" cy="198" r="7.0" style="fill:purple;stroke:black;stroke-width:1.0"/>
<circle cx="251" cy="199" r="7.0" style="fill:green;stroke:black;stroke-width:1.0"/>
<circle cx="176" cy="320" r="7.0" style="fill:fuchsia;stroke:black;stroke-width:1.0"/>
<circle cx="155" cy="306" r="7.0" style="fill:fuchsia;stroke:black;stroke-width:1.0"/>
<circle cx="274" cy="198" r="7.0" style="fill:red;stroke:black;stroke-width:1.0"/>
<circle cx="226" cy="219" r="7.0" style="fill:red;stroke:black;stroke-width:1.0"/>
<circle cx="20" cy="20" r="7.0" style="fill:red;stroke:black;stroke-width:1.0"/>
<circle cx="116" cy="81" r="7.0" style="fill:red;stroke:black;stroke-width:1.0"/>
<circle cx="420" cy="181" r="7.0" style="fill:blue;stroke:black;stroke-width:1.0"/>
<circle cx="365" cy="194" r="7.0" style="fill:blue;stroke:black;stroke-width:1.0"/>
<circle cx="346" cy="214" r="7.0" style="fill:blue;stroke:black;stroke-width:1.0"/>
<circle cx="302" cy="225" r="7.0" style="fill:blue;stroke:black;stroke-width:1.0"/>
</svg>
