<svg width="440" height="340" xmlns="http://www.w3.org/2000/svg">
<path stroke-width="10.216264905207172" stroke="black" d="M 179 170 187 168"/>
<path stroke-width="0.5094792828343485" stroke="black" d="M 174 130 170 167"/>
<path stroke-width="0.5" stroke="black" d="M 174 130 69 123"/>
<path stroke-width="0.5864287552543536" stroke="black" d="M 418 146 233 161"/>
<path stroke-width="1.097194818563953" stroke="black" d="M 233 161 187 168"/>
<path stroke-width="0.7938577678648022" stroke="black" d="M 233 161 184 165"/>
<path stroke-width="0.6421892425152269" stroke="black" d="M 233 161 193 158"/>
<path stroke-width="0.5094792828343485" stroke="black" d="M 174 130 233 161"/>
<path stroke-width="0.5663549798404393" stroke="black" d="M 233 161 210 165"/>
<path stroke-width="0.5094792828343485" stroke="black" d="M 233 161 135 239"/>
<path stroke-width="0.5" stroke="black" d="M 233 161 283 175"/>
<path stroke-width="0.5094792828343485" stroke="black" d="M 233 161 174 130"/>
<path stroke-width="0.5864287552543536" stroke="black" d="M 233 161 418 146"/>
<path stroke-width="0.5" stroke="black" d="M 233 161 170 167"/>
<path stroke-width="0.5" stroke="black" d="M 233 161 69 123"/>
<path stroke-width="0.5284378485030454" stroke="black" d="M 233 161 94 141"/>
<path stroke-width="20.0" stroke="black" d="M 166 167 170 167"/>
<path stroke-width="0.6042721111778331" stroke="black" d="M 174 130 172 45"/>
<path stroke-width="0.5" stroke="black" d="M 174 130 135 239"/>
<path stroke-width="0.5094792828343485" stroke="black" d="M 283 175 210 165"/>
<path stroke-width="0.5" stroke="black" d="M 283 175 94 141"/>
<path stroke-width="0.5" stroke="black" d="M 283 175 135 239"/>
<path stroke-width="0.6611478081839238" stroke="black" d="M 283 175 420 184"/>
<path stroke-width="0.5" stroke="black" d="M 283 175 174 130"/>
<path stroke-width="0.5" stroke="black" d="M 283 175 233 161"/>
<path stroke-width="0.5" stroke="black" d="M 174 130 283 175"/>
<path stroke-width="0.5284378485030454" stroke="black" d="M 283 175 170 167"/>
<path stroke-width="0.6042721111778331" stroke="black" d="M 172 45 174 130"/>
<path stroke-width="0.7938577678648022" stroke="black" d="M 174 130 187 168"/>
<path stroke-width="0.6421892425152269" stroke="black" d="M 174 130 184 165"/>
<path stroke-width="0.5663549798404393" stroke="black" d="M 174 130 193 158"/>
<path stroke-width="0.5284378485030454" stroke="black" d="M 174 130 210 165"/>
<path stroke-width="0.5094792828343485" stroke="black" d="M 174 130 94 141"/>
<path stroke-width="0.5" stroke="black" d="M 283 175 69 123"/>
<path stroke-width="0.5284378485030454" stroke="black" d="M 283 175 193 158"/>
<path stroke-width="2.926696405593206" stroke="black" d="M 170 167 187 168"/>
<path stroke-width="1.097194818563953" stroke="black" d="M 170 167 193 158"/>
<path stroke-width="0.606502530668268" stroke="black" d="M 20 261 46 196"/>
<path stroke-width="0.5" stroke="black" d="M 46 196 94 141"/>
<path stroke-width="0.5094792828343485" stroke="black" d="M 46 196 195 252"/>
<path stroke-width="0.606502530668268" stroke="black" d="M 46 196 20 261"/>
<path stroke-width="0.5094792828343485" stroke="black" d="M 46 196 138 59"/>
<path stroke-width="0.606502530668268" stroke="black" d="M 83 20 138 59"/>
<path stroke-width="0.5094792828343485" stroke="black" d="M 195 252 46 196"/>
<path stroke-width="0.5" stroke="black" d="M 138 59 135 239"/>
<path stroke-width="0.606502530668268" stroke="black" d="M 138 59 83 20"/>
<path stroke-width="0.5094792828343485" stroke="black" d="M 138 59 69 123"/>
<path stroke-width="0.6444196620056618" stroke="black" d="M 99 102 69 123"/>
<path stroke-width="0.5" stroke="black" d="M 69 123 283 175"/>
<path stroke-width="0.5" stroke="black" d="M 69 123 174 130"/>
<path stroke-width="0.5" stroke="black" d="M 69 123 233 161"/>
<path stroke-width="0.5094792828343485" stroke="black" d="M 138 59 46 196"/>
<path stroke-width="1.7228274856309513" stroke="black" d="M 170 167 184 165"/>
<path stroke-width="0.606502530668268" stroke="black" d="M 195 252 198 320"/>
<path stroke-width="0.5" stroke="black" d="M 195 252 210 165"/>
<path stroke-width="0.7938577678648022" stroke="black" d="M 170 167 210 165"/>
<path stroke-width="0.6421892425152269" stroke="black" d="M 170 167 94 141"/>
<path stroke-width="0.5663549798404393" stroke="black" d="M 170 167 135 239"/>
<path stroke-width="0.5284378485030454" stroke="black" d="M 170 167 283 175"/>
<path stroke-width="0.5094792828343485" stroke="black" d="M 170 167 174 130"/>
<path stroke-width="0.5" stroke="black" d="M 170 167 233 161"/>
<path stroke-width="0.5094792828343485" stroke="black" d="M 195 252 69 130"/>
<path stroke-width="20.0" stroke="black" d="M 170 167 166 167"/>
<path stroke-width="0.606502530668268" stroke="black" d="M 112 76 69 130"/>
<path stroke-width="0.5" stroke="black" d="M 69 130 193 158"/>
<path stroke-width="0.5094792828343485" stroke="black" d="M 69 130 170 167"/>
<path stroke-width="0.606502530668268" stroke="black" d="M 69 130 112 76"/>
<path stroke-width="0.5094792828343485" stroke="black" d="M 69 130 195 252"/>
<path stroke-width="0.606502530668268" stroke="black" d="M 198 320 195 252"/>
<path stroke-width="0.5094792828343485" stroke="black" d="M 170 167 69 130"/>
<path stroke-width="0.5663549798404393" stroke="black" d="M 283 175 184 165"/>
<path stroke-width="0.6421892425152269" stroke="black" d="M 283 175 187 168"/>
<path stroke-width="0.6611478081839238" stroke="black" d="M 420 184 283 175"/>
<path stroke-width="0.6421892425152269" stroke="black" d="M 184 165 174 130"/>
<path stroke-width="0.7938577678648022" stroke="black" d="M 184 165 233 161"/>
<path stroke-width="1.7228274856309513" stroke="black" d="M 184 165 170 167"/>
<path stroke-width="2.936175688427554" stroke="black" d="M 201 152 193 158"/>
<path stroke-width="0.5" stroke="black" d="M 193 158 187 168"/>
<path stroke-width="0.5" stroke="black" d="M 193 158 184 165"/>
<path stroke-width="0.5663549798404393" stroke="black" d="M 184 165 283 175"/>
<path stroke-width="2.936175688427554" stroke="black" d="M 193 158 201 152"/>
<path stroke-width="0.5" stroke="black" d="M 193 158 94 141"/>
<path stroke-width="0.5094792828343485" stroke="black" d="M 193 158 135 239"/>
<path stroke-width="0.5284378485030454" stroke="black" d="M 193 158 283 175"/>
<path stroke-width="0.5663549798404393" stroke="black" d="M 193 158 174 130"/>
<path stroke-width="0.6421892425152269" stroke="black" d="M 193 158 233 161"/>
<path stroke-width="1.097194818563953" stroke="black" d="M 193 158 170 167"/>
<path stroke-width="0.5" stroke="black" d="M 193 158 210 165"/>
<path stroke-width="0.5" stroke="black" d="M 193 158 69 130"/>
<path stroke-width="0.5284378485030454" stroke="black" d="M 184 165 135 239"/>
<path stroke-width="0.5" stroke="black" d="M 184 165 210 165"/>
<path stroke-width="10.216264905207172" stroke="black" d="M 187 168 179 170"/>
<path stroke-width="0.5" stroke="black" d="M 187 168 184 165"/>
<path stroke-width="0.5" stroke="black" d="M 187 168 193 158"/>
<path stroke-width="0.5094792828343485" stroke="black" d="M 187 168 210 165"/>
<path stroke-width="0.5284378485030454" stroke="black" d="M 187 168 94 141"/>
<path stroke-width="0.5663549798404393" stroke="black" d="M 187 168 135 239"/>
<path stroke-width="0.5094792828343485" stroke="black" d="M 184 165 94 141"/>
<path stroke-width="0.6421892425152269" stroke="black" d="M 187 168 283 175"/>
<path stroke-width="1.097194818563953" stroke="black" d="M 187 168 233 161"/>
<path stroke-width="2.926696405593206" stroke="black" d="M 187 168 170 167"/>
<path stroke-width="5.36287209402076" stroke="black" d="M 175 163 184 165"/>
<path stroke-width="0.5" stroke="black" d="M 184 165 187 168"/>
<path stroke-width="5.36287209402076" stroke="black" d="M 184 165 175 163"/>
<path stroke-width="0.5" stroke="black" d="M 184 165 193 158"/>
<path stroke-width="0.7938577678648022" stroke="black" d="M 187 168 174 130"/>
<path stroke-width="1.7228274856309513" stroke="black" d="M 230 163 210 165"/>
<path stroke-width="0.5094792828343485" stroke="black" d="M 210 165 187 168"/>
<path stroke-width="0.5" stroke="black" d="M 210 165 184 165"/>
<path stroke-width="0.6421892425152269" stroke="black" d="M 94 141 170 167"/>
<path stroke-width="0.5" stroke="black" d="M 94 141 46 196"/>
<path stroke-width="0.8128163335334992" stroke="black" d="M 106 302 135 239"/>
<path stroke-width="0.5663549798404393" stroke="black" d="M 135 239 187 168"/>
<path stroke-width="0.5284378485030454" stroke="black" d="M 135 239 184 165"/>
<path stroke-width="0.5094792828343485" stroke="black" d="M 135 239 193 158"/>
<path stroke-width="0.5284378485030454" stroke="black" d="M 94 141 233 161"/>
<path stroke-width="0.5" stroke="black" d="M 135 239 210 165"/>
<path stroke-width="0.8128163335334992" stroke="black" d="M 135 239 106 302"/>
<path stroke-width="0.5" stroke="black" d="M 135 239 283 175"/>
<path stroke-width="0.5" stroke="black" d="M 135 239 174 130"/>
<path stroke-width="0.5094792828343485" stroke="black" d="M 135 239 233 161"/>
<path stroke-width="0.5663549798404393" stroke="black" d="M 135 239 170 167"/>
<path stroke-width="0.5" stroke="black" d="M 135 239 138 59"/>
<path stroke-width="0.5" stroke="black" d="M 135 239 94 141"/>
<path stroke-width="0.5094792828343485" stroke="black" d="M 94 141 174 130"/>
<path stroke-width="0.5" stroke="black" d="M 94 141 283 175"/>
<path stroke-width="0.5" stroke="black" d="M 94 141 135 239"/>
<path stroke-width="0.5" stroke="black" d="M 210 165 193 158"/>
<path stroke-width="1.7228274856309513" stroke="black" d="M 210 165 230 163"/>
<path stroke-width="0.5" stroke="black" d="M 210 165 94 141"/>
<path stroke-width="0.5" stroke="black" d="M 210 165 135 239"/>
<path stroke-width="0.5094792828343485" stroke="black" d="M 210 165 283 175"/>
<path stroke-width="0.5284378485030454" stroke="black" d="M 210 165 174 130"/>
<path stroke-width="0.5663549798404393" stroke="black" d="M 210 165 233 161"/>
<path stroke-width="0.7938577678648022" stroke="black" d="M 210 165 170 167"/>
<path stroke-width="0.5" stroke="black" d="M 210 165 195 252"/>
<path stroke-width="1.1161533842326499" stroke="black" d="M 44 125 94 141"/>
<path stroke-width="0.5284378485030454" stroke="black" d="M 94 141 187 168"/>
<path stroke-width="0.5094792828343485" stroke="black" d="M 94 141 184 165"/>
<path stroke-width="0.5" stroke="black" d="M 94 141 193 158"/>
<path stroke-width="0.5" stroke="black" d="M 94 141 210 165"/>
<path stroke-width="1.1161533842326499" stroke="black" d="M 94 141 44 125"/>
<path stroke-width="0.5094792828343485" stroke="black" d="M 69 123 138 59"/>
<path stroke-width="0.6444196620056618" stroke="black" d="M 69 123 99 102"/>
<circle cx="179" cy="170" r="20.0" style="fill:gray;stroke:black;stroke-width:1.0"/>
<circle cx="187" cy="168" r="20.0" style="fill:gray;stroke:black;stroke-width:1.0"/>
<circle cx="175" cy="163" r="20.0" style="fill:gray;stroke:black;stroke-width:1.0"/>
<circle cx="184" cy="165" r="20.0" style="fill:gray;stroke:black;stroke-width:1.0"/>
<circle cx="201" cy="152" r="20.0" style="fill:gray;stroke:black;stroke-width:1.0"/>
<circle cx="193" cy="158" r="20.0" style="fill:gray;stroke:black;stroke-width:1.0"/>
<circle cx="230" cy="163" r="20.0" style="fill:gray;stroke:black;stroke-width:1.0"/>
<circle cx="210" cy="165" r="20.0" style="fill:gray;stroke:black;stroke-width:1.0"/>
<circle cx="44" cy="125" r="20.0" style="fill:gray;stroke:black;stroke-width:1.0"/>
<circle cx="94" cy="141" r="20.0" style="fill:gray;stroke:black;stroke-width:1.0"/>
<circle cx="106" cy="302" r="20.0" style="fill:gray;stroke:black;stroke-width:1.0"/>
<circle cx="135" cy="239" r="20.0" style="fill:gray;stroke:black;stroke-width:1.0"/>
<circle cx="420" cy="184" r="20.0" style="fill:gray;stroke:black;stroke-width:1.0"/>
<circle cx="283" cy="175" r="20.0" style="fill:gray;stroke:black;stroke-width:1.0"/>
<circle cx="172" cy="45" r="20.0" style="fill:gray;stroke:black;stroke-width:1.0"/>
<circle cx="174" cy="130" r="20.0" style="fill:gray;stroke:black;stroke-width:1.0"/>
<circle cx="418" cy="146" r="20.0" style="fill:gray;stroke:black;stroke-width:1.0"/>
<circle cx="233" cy="161" r="20.0" style="fill:gray;stroke:black;stroke-width:1.0"/>
<circle cx="166" cy="167" r="20.0" style="fill:gray;stroke:black;stroke-width:1.0"/>
<circle cx="170" cy="167" r="20.0" style="fill:gray;stroke:black;stroke-width:1.0"/>
<circle cx="112" cy="76" r="20.0" style="fill:gray;stroke:black;stroke-width:1.0"/>
<circle cx="69" cy="130" r="20.0" style="fill:gray;stroke:black;stroke-width:1.0"/>
<circle cx="198" cy="320" r="20.0" style="fill:gray;stroke:black;stroke-width:1.0"/>
<circle cx="195" cy="252" r="20.0" style="fill:gray;stroke:black;stroke-width:1.0"/>
<circle cx="20" cy="261" r="20.0" style="fill:gray;stroke:black;stroke-width:1.0"/>
<circle cx="46" cy="196" r="20.0" style="fill:gray;stroke:black;stroke-width:1.0"/>
<circle cx="83" cy="20" r="20.0" style="fill:gray;stroke:black;stroke-width:1.0"/>
<circle cx="138" cy="59" r="20.0" style="fill:gray;stroke:black;stroke-width:1.0"/>
<circle cx="99" cy="102" r="20.0" style="fill:gray;stroke:black;stroke-width:1.0"/>
<circle cx="69" cy="123" r="20.0" style="fill:gray;stroke:black;stroke-width:1.0"/>
</svg>
