<svg width="440" height="340" xmlns="http://www.w3.org/2000/svg">
<path stroke-width="1" stroke="black" d="M 308 264 306 260"/>
<path stroke-width="1" stroke="black" d="M 279 273 304 267"/>
<path stroke-width="1" stroke="black" d="M 279 273 145 229"/>
<path stroke-width="1" stroke="black" d="M 288 180 296 249"/>
<path stroke-width="1" stroke="black" d="M 296 249 306 260"/>
<path stroke-width="1" stroke="black" d="M 296 249 310 267"/>
<path stroke-width="1" stroke="black" d="M 296 249 286 264"/>
<path stroke-width="1" stroke="black" d="M 279 273 296 249"/>
<path stroke-width="1" stroke="black" d="M 296 249 258 276"/>
<path stroke-width="1" stroke="black" d="M 296 249 369 227"/>
<path stroke-width="1" stroke="black" d="M 296 249 293 219"/>
<path stroke-width="1" stroke="black" d="M 296 249 279 273"/>
<path stroke-width="1" stroke="black" d="M 296 249 288 180"/>
<path stroke-width="1" stroke="black" d="M 296 249 304 267"/>
<path stroke-width="1" stroke="black" d="M 296 249 145 229"/>
<path stroke-width="1" stroke="black" d="M 296 249 339 297"/>
<path stroke-width="1" stroke="black" d="M 304 270 304 267"/>
<path stroke-width="1" stroke="black" d="M 279 273 223 286"/>
<path stroke-width="1" stroke="black" d="M 279 273 369 227"/>
<path stroke-width="1" stroke="black" d="M 293 219 258 276"/>
<path stroke-width="1" stroke="black" d="M 293 219 339 297"/>
<path stroke-width="1" stroke="black" d="M 293 219 369 227"/>
<path stroke-width="1" stroke="black" d="M 293 219 292 160"/>
<path stroke-width="1" stroke="black" d="M 293 219 279 273"/>
<path stroke-width="1" stroke="black" d="M 293 219 296 249"/>
<path stroke-width="1" stroke="black" d="M 279 273 293 219"/>
<path stroke-width="1" stroke="black" d="M 293 219 304 267"/>
<path stroke-width="1" stroke="black" d="M 223 286 279 273"/>
<path stroke-width="1" stroke="black" d="M 279 273 306 260"/>
<path stroke-width="1" stroke="black" d="M 279 273 310 267"/>
<path stroke-width="1" stroke="black" d="M 279 273 286 264"/>
<path stroke-width="1" stroke="black" d="M 279 273 258 276"/>
<path stroke-width="1" stroke="black" d="M 279 273 339 297"/>
<path stroke-width="1" stroke="black" d="M 293 219 145 229"/>
<path stroke-width="1" stroke="black" d="M 293 219 286 264"/>
<path stroke-width="1" stroke="black" d="M 304 267 306 260"/>
<path stroke-width="1" stroke="black" d="M 304 267 286 264"/>
<path stroke-width="1" stroke="black" d="M 22 159 100 176"/>
<path stroke-width="1" stroke="black" d="M 100 176 339 297"/>
<path stroke-width="1" stroke="black" d="M 100 176 94 80"/>
<path stroke-width="1" stroke="black" d="M 100 176 22 159"/>
<path stroke-width="1" stroke="black" d="M 100 176 248 257"/>
<path stroke-width="1" stroke="black" d="M 313 264 248 257"/>
<path stroke-width="1" stroke="black" d="M 94 80 100 176"/>
<path stroke-width="1" stroke="black" d="M 248 257 369 227"/>
<path stroke-width="1" stroke="black" d="M 248 257 313 264"/>
<path stroke-width="1" stroke="black" d="M 248 257 145 229"/>
<path stroke-width="1" stroke="black" d="M 88 234 145 229"/>
<path stroke-width="1" stroke="black" d="M 145 229 293 219"/>
<path stroke-width="1" stroke="black" d="M 145 229 279 273"/>
<path stroke-width="1" stroke="black" d="M 145 229 296 249"/>
<path stroke-width="1" stroke="black" d="M 248 257 100 176"/>
<path stroke-width="1" stroke="black" d="M 304 267 310 267"/>
<path stroke-width="1" stroke="black" d="M 94 80 20 20"/>
<path stroke-width="1" stroke="black" d="M 94 80 258 276"/>
<path stroke-width="1" stroke="black" d="M 304 267 258 276"/>
<path stroke-width="1" stroke="black" d="M 304 267 339 297"/>
<path stroke-width="1" stroke="black" d="M 304 267 369 227"/>
<path stroke-width="1" stroke="black" d="M 304 267 293 219"/>
<path stroke-width="1" stroke="black" d="M 304 267 279 273"/>
<path stroke-width="1" stroke="black" d="M 304 267 296 249"/>
<path stroke-width="1" stroke="black" d="M 94 80 303 186"/>
<path stroke-width="1" stroke="black" d="M 304 267 304 270"/>
<path stroke-width="1" stroke="black" d="M 376 213 303 186"/>
<path stroke-width="1" stroke="black" d="M 303 186 286 264"/>
<path stroke-width="1" stroke="black" d="M 303 186 304 267"/>
<path stroke-width="1" stroke="black" d="M 303 186 376 213"/>
<path stroke-width="1" stroke="black" d="M 303 186 94 80"/>
<path stroke-width="1" stroke="black" d="M 20 20 94 80"/>
<path stroke-width="1" stroke="black" d="M 304 267 303 186"/>
<path stroke-width="1" stroke="black" d="M 293 219 310 267"/>
<path stroke-width="1" stroke="black" d="M 293 219 306 260"/>
<path stroke-width="1" stroke="black" d="M 292 160 293 219"/>
<path stroke-width="1" stroke="black" d="M 310 267 279 273"/>
<path stroke-width="1" stroke="black" d="M 310 267 296 249"/>
<path stroke-width="1" stroke="black" d="M 310 267 304 267"/>
<path stroke-width="1" stroke="black" d="M 277 268 286 264"/>
<path stroke-width="1" stroke="black" d="M 286 264 306 260"/>
<path stroke-width="1" stroke="black" d="M 286 264 310 267"/>
<path stroke-width="1" stroke="black" d="M 310 267 293 219"/>
<path stroke-width="1" stroke="black" d="M 286 264 277 268"/>
<path stroke-width="1" stroke="black" d="M 286 264 339 297"/>
<path stroke-width="1" stroke="black" d="M 286 264 369 227"/>
<path stroke-width="1" stroke="black" d="M 286 264 293 219"/>
<path stroke-width="1" stroke="black" d="M 286 264 279 273"/>
<path stroke-width="1" stroke="black" d="M 286 264 296 249"/>
<path stroke-width="1" stroke="black" d="M 286 264 304 267"/>
<path stroke-width="1" stroke="black" d="M 286 264 258 276"/>
<path stroke-width="1" stroke="black" d="M 286 264 303 186"/>
<path stroke-width="1" stroke="black" d="M 310 267 369 227"/>
<path stroke-width="1" stroke="black" d="M 310 267 258 276"/>
<path stroke-width="1" stroke="black" d="M 306 260 308 264"/>
<path stroke-width="1" stroke="black" d="M 306 260 310 267"/>
<path stroke-width="1" stroke="black" d="M 306 260 286 264"/>
<path stroke-width="1" stroke="black" d="M 306 260 258 276"/>
<path stroke-width="1" stroke="black" d="M 306 260 339 297"/>
<path stroke-width="1" stroke="black" d="M 306 260 369 227"/>
<path stroke-width="1" stroke="black" d="M 310 267 339 297"/>
<path stroke-width="1" stroke="black" d="M 306 260 293 219"/>
<path stroke-width="1" stroke="black" d="M 306 260 296 249"/>
<path stroke-width="1" stroke="black" d="M 306 260 304 267"/>
<path stroke-width="1" stroke="black" d="M 313 273 310 267"/>
<path stroke-width="1" stroke="black" d="M 310 267 306 260"/>
<path stroke-width="1" stroke="black" d="M 310 267 313 273"/>
<path stroke-width="1" stroke="black" d="M 310 267 286 264"/>
<path stroke-width="1" stroke="black" d="M 306 260 279 273"/>
<path stroke-width="1" stroke="black" d="M 243 293 258 276"/>
<path stroke-width="1" stroke="black" d="M 258 276 306 260"/>
<path stroke-width="1" stroke="black" d="M 258 276 310 267"/>
<path stroke-width="1" stroke="black" d="M 339 297 304 267"/>
<path stroke-width="1" stroke="black" d="M 339 297 100 176"/>
<path stroke-width="1" stroke="black" d="M 420 198 369 227"/>
<path stroke-width="1" stroke="black" d="M 369 227 306 260"/>
<path stroke-width="1" stroke="black" d="M 369 227 310 267"/>
<path stroke-width="1" stroke="black" d="M 369 227 286 264"/>
<path stroke-width="1" stroke="black" d="M 339 297 296 249"/>
<path stroke-width="1" stroke="black" d="M 369 227 258 276"/>
<path stroke-width="1" stroke="black" d="M 369 227 420 198"/>
<path stroke-width="1" stroke="black" d="M 369 227 293 219"/>
<path stroke-width="1" stroke="black" d="M 369 227 279 273"/>
<path stroke-width="1" stroke="black" d="M 369 227 296 249"/>
<path stroke-width="1" stroke="black" d="M 369 227 304 267"/>
<path stroke-width="1" stroke="black" d="M 369 227 248 257"/>
<path stroke-width="1" stroke="black" d="M 369 227 339 297"/>
<path stroke-width="1" stroke="black" d="M 339 297 279 273"/>
<path stroke-width="1" stroke="black" d="M 339 297 293 219"/>
<path stroke-width="1" stroke="black" d="M 339 297 369 227"/>
<path stroke-width="1" stroke="black" d="M 258 276 286 264"/>
<path stroke-width="1" stroke="black" d="M 258 276 243 293"/>
<path stroke-width="1" stroke="black" d="M 258 276 339 297"/>
<path stroke-width="1" stroke="black" d="M 258 276 369 227"/>
<path stroke-width="1" stroke="black" d="M 258 276 293 219"/>
<path stroke-width="1" stroke="black" d="M 258 276 279 273"/>
<path stroke-width="1" stroke="black" d="M 258 276 296 249"/>
<path stroke-width="1" stroke="black" d="M 258 276 304 267"/>
<path stroke-width="1" stroke="black" d="M 258 276 94 80"/>
<path stroke-width="1" stroke="black" d="M 369 320 339 297"/>
<path stroke-width="1" stroke="black" d="M 339 297 306 260"/>
<path stroke-width="1" stroke="black" d="M 339 297 310 267"/>
<path stroke-width="1" stroke="black" d="M 339 297 286 264"/>
<path stroke-width="1" stroke="black" d="M 339 297 258 276"/>
<path stroke-width="1" stroke="black" d="M 339 297 369 320"/>
<path stroke-width="1" stroke="black" d="M 145 229 248 257"/>
<path stroke-width="1" stroke="black" d="M 145 229 88 234"/>
<circle cx="308" cy="264" r="7.0" style="fill:gray;stroke:black;stroke-width:1.0"/>
<circle cx="306" cy="260" r="7.0" style="fill:gray;stroke:black;stroke-width:1.0"/>
<circle cx="313" cy="273" r="7.0" style="fill:gray;stroke:black;stroke-width:1.0"/>
<circle cx="310" cy="267" r="7.0" style="fill:gray;stroke:black;stroke-width:1.0"/>
<circle cx="277" cy="268" r="7.0" style="fill:gray;stroke:black;stroke-width:1.0"/>
<circle cx="286" cy="264" r="7.0" style="fill:gray;stroke:black;stroke-width:1.0"/>
<circle cx="243" cy="293" r="7.0" style="fill:gray;stroke:black;stroke-width:1.0"/>
<circle cx="258" cy="276" r="7.0" style="fill:gray;stroke:black;stroke-width:1.0"/>
<circle cx="369" cy="320" r="7.0" style="fill:gray;stroke:black;stroke-width:1.0"/>
<circle cx="339" cy="297" r="7.0" style="fill:gray;stroke:black;stroke-width:1.0"/>
<circle cx="420" cy="198" r="7.0" style="fill:gray;stroke:black;stroke-width:1.0"/>
<circle cx="369" cy="227" r="7.0" style="fill:gray;stroke:black;stroke-width:1.0"/>
<circle cx="292" cy="160" r="7.0" style="fill:gray;stroke:black;stroke-width:1.0"/>
<circle cx="293" cy="219" r="7.0" style="fill:gray;stroke:black;stroke-width:1.0"/>
<circle cx="223" cy="286" r="7.0" style="fill:gray;stroke:black;stroke-width:1.0"/>
<circle cx="279" cy="273" r="7.0" style="fill:gray;stroke:black;stroke-width:1.0"/>
<circle cx="288" cy="180" r="7.0" style="fill:gray;stroke:black;stroke-width:1.0"/>
<circle cx="296" cy="249" r="7.0" style="fill:gray;stroke:black;stroke-width:1.0"/>
<circle cx="304" cy="270" r="7.0" style="fill:gray;stroke:black;stroke-width:1.0"/>
<circle cx="304" cy="267" r="7.0" style="fill:gray;stroke:black;stroke-width:1.0"/>
<circle cx="376" cy="213" r="7.0" style="fill:gray;stroke:black;stroke-width:1.0"/>
<circle cx="303" cy="186" r="7.0" style="fill:gray;stroke:black;stroke-width:1.0"/>
<circle cx="20" cy="20" r="7.0" style="fill:gray;stroke:black;stroke-width:1.0"/>
<circle cx="94" cy="80" r="7.0" style="fill:gray;stroke:black;stroke-width:1.0"/>
<circle cx="22" cy="159" r="7.0" style="fill:gray;stroke:black;stroke-width:1.0"/>
<circle cx="100" cy="176" r="7.0" style="fill:gray;stroke:black;stroke-width:1.0"/>
<circle cx="313" cy="264" r="7.0" style="fill:gray;stroke:black;stroke-width:1.0"/>
<circle cx="248" cy="257" r="7.0" style="fill:gray;stroke:black;stroke-width:1.0"/>
<circle cx="88" cy="234" r="7.0" style="fill:gray;stroke:black;stroke-width:1.0"/>
<circle cx="145" cy="229" r="7.0" style="fill:gray;stroke:black;stroke-width:1.0"/>
</svg>
