<svg width="440" height="340" xmlns="http://www.w3.org/2000/svg">
<path stroke-width="1" stroke="black" d="M 395 176 377 185"/>
<path stroke-width="1" stroke="black" d="M 97 52 148 43"/>
<path stroke-width="1" stroke="black" d="M 97 52 39 48"/>
<path stroke-width="1" stroke="black" d="M 420 184 377 185"/>
<path stroke-width="1" stroke="black" d="M 420 184 395 176"/>
<path stroke-width="1" stroke="black" d="M 53 22 20 34"/>
<path stroke-width="1" stroke="black" d="M 53 22 113 20"/>
<path stroke-width="1" stroke="black" d="M 20 34 53 22"/>
<path stroke-width="1" stroke="black" d="M 20 34 39 48"/>
<path stroke-width="1" stroke="black" d="M 113 20 156 30"/>
<path stroke-width="1" stroke="black" d="M 113 20 53 22"/>
<path stroke-width="1" stroke="black" d="M 377 185 420 184"/>
<path stroke-width="1" stroke="black" d="M 377 185 395 176"/>
<path stroke-width="1" stroke="black" d="M 148 43 156 30"/>
<path stroke-width="1" stroke="black" d="M 148 43 97 52"/>
<path stroke-width="1" stroke="black" d="M 39 48 97 52"/>
<path stroke-width="1" stroke="black" d="M 39 48 20 34"/>
<path stroke-width="1" stroke="black" d="M 395 176 420 184"/>
<path stroke-width="1" stroke="black" d="M 156 30 148 43"/>
<path stroke-width="1" stroke="black" d="M 156 30 113 20"/>
<circle cx="331" cy="320" r="20.0" style="fill:orange;stroke:black;stroke-width:1.0"/>
<circle cx="395" cy="176" r="20.0" style="fill:red;stroke:black;stroke-width:1.0"/>
<circle cx="39" cy="48" r="20.0" style="fill:blue;stroke:black;stroke-width:1.0"/>
<circle cx="148" cy="43" r="20.0" style="fill:blue;stroke:black;stroke-width:1.0"/>
<circle cx="377" cy="185" r="20.0" style="fill:red;stroke:black;stroke-width:1.0"/>
<circle cx="113" cy="20" r="20.0" style="fill:green;stroke:black;stroke-width:1.0"/>
<circle cx="20" cy="34" r="20.0" style="fill:blue;stroke:black;stroke-width:1.0"/>
<circle cx="53" cy="22" r="20.0" style="fill:green;stroke:black;stroke-width:1.0"/>
<circle cx="420" cy="184" r="20.0" style="fill:red;stroke:black;stroke-width:1.0"/>
<circle cx="97" cy="52" r="20.0" style="fill:blue;stroke:black;stroke-width:1.0"/>
<circle cx="156" cy="30" r="20.0" style="fill:green;stroke:black;stroke-width:1.0"/>
</svg>
