<svg width="440" height="340" xmlns="http://www.w3.org/2000/svg">
<path stroke-width="1" stroke="black" d="M 383 320 394 311"/>
<path stroke-width="1" stroke="black" d="M 124 210 123 222"/>
<path stroke-width="1" stroke="black" d="M 124 210 88 202"/>
<path stroke-width="1" stroke="black" d="M 420 317 394 311"/>
<path stroke-width="1" stroke="black" d="M 420 317 383 320"/>
<path stroke-width="1" stroke="black" d="M 20 216 41 205"/>
<path stroke-width="1" stroke="black" d="M 20 216 39 227"/>
<path stroke-width="1" stroke="black" d="M 41 205 20 216"/>
<path stroke-width="1" stroke="black" d="M 41 205 88 202"/>
<path stroke-width="1" stroke="black" d="M 39 227 85 229"/>
<path stroke-width="1" stroke="black" d="M 39 227 20 216"/>
<path stroke-width="1" stroke="black" d="M 394 311 420 317"/>
<path stroke-width="1" stroke="black" d="M 394 311 383 320"/>
<path stroke-width="1" stroke="black" d="M 123 222 85 229"/>
<path stroke-width="1" stroke="black" d="M 123 222 124 210"/>
<path stroke-width="1" stroke="black" d="M 88 202 124 210"/>
<path stroke-width="1" stroke="black" d="M 88 202 41 205"/>
<path stroke-width="1" stroke="black" d="M 383 320 420 317"/>
<path stroke-width="1" stroke="black" d="M 85 229 123 222"/>
<path stroke-width="1" stroke="black" d="M 85 229 39 227"/>
<circle cx="27" cy="20" r="7.0" style="fill:gray;stroke:black;stroke-width:1.0"/>
<circle cx="383" cy="320" r="7.0" style="fill:gray;stroke:black;stroke-width:1.0"/>
<circle cx="88" cy="202" r="7.0" style="fill:gray;stroke:black;stroke-width:1.0"/>
<circle cx="123" cy="222" r="7.0" style="fill:gray;stroke:black;stroke-width:1.0"/>
<circle cx="394" cy="311" r="7.0" style="fill:gray;stroke:black;stroke-width:1.0"/>
<circle cx="39" cy="227" r="7.0" style="fill:gray;stroke:black;stroke-width:1.0"/>
<circle cx="41" cy="205" r="7.0" style="fill:gray;stroke:black;stroke-width:1.0"/>
<circle cx="20" cy="216" r="7.0" style="fill:gray;stroke:black;stroke-width:1.0"/>
<circle cx="420" cy="317" r="7.0" style="fill:gray;stroke:black;stroke-width:1.0"/>
<circle cx="124" cy="210" r="7.0" style="fill:gray;stroke:black;stroke-width:1.0"/>
<circle cx="85" cy="229" r="7.0" style="fill:gray;stroke:black;stroke-width:1.0"/>
</svg>
