<svg width="440" height="340" xmlns="http://www.w3.org/2000/svg">
<path stroke-width="1" stroke="black" d="M 304 22 292 29"/>
<path stroke-width="1" stroke="black" d="M 30 315 20 302"/>
<path stroke-width="1" stroke="black" d="M 30 315 55 320"/>
<path stroke-width="1" stroke="black" d="M 287 20 292 29"/>
<path stroke-width="1" stroke="black" d="M 287 20 304 22"/>
<path stroke-width="1" stroke="black" d="M 77 296 76 311"/>
<path stroke-width="1" stroke="black" d="M 77 296 58 286"/>
<path stroke-width="1" stroke="black" d="M 76 311 77 296"/>
<path stroke-width="1" stroke="black" d="M 76 311 55 320"/>
<path stroke-width="1" stroke="black" d="M 58 286 32 288"/>
<path stroke-width="1" stroke="black" d="M 58 286 77 296"/>
<path stroke-width="1" stroke="black" d="M 292 29 287 20"/>
<path stroke-width="1" stroke="black" d="M 292 29 304 22"/>
<path stroke-width="1" stroke="black" d="M 20 302 32 288"/>
<path stroke-width="1" stroke="black" d="M 20 302 30 315"/>
<path stroke-width="1" stroke="black" d="M 55 320 30 315"/>
<path stroke-width="1" stroke="black" d="M 55 320 76 311"/>
<path stroke-width="1" stroke="black" d="M 304 22 287 20"/>
<path stroke-width="1" stroke="black" d="M 32 288 20 302"/>
<path stroke-width="1" stroke="black" d="M 32 288 58 286"/>
<circle cx="420" cy="282" r="20.0" style="fill:gray;stroke:black;stroke-width:1.0"/>
<circle cx="304" cy="22" r="20.0" style="fill:gray;stroke:black;stroke-width:1.0"/>
<circle cx="55" cy="320" r="20.0" style="fill:gray;stroke:black;stroke-width:1.0"/>
<circle cx="20" cy="302" r="20.0" style="fill:gray;stroke:black;stroke-width:1.0"/>
<circle cx="292" cy="29" r="20.0" style="fill:gray;stroke:black;stroke-width:1.0"/>
<circle cx="58" cy="286" r="20.0" style="fill:gray;stroke:black;stroke-width:1.0"/>
<circle cx="76" cy="311" r="20.0" style="fill:gray;stroke:black;stroke-width:1.0"/>
<circle cx="77" cy="296" r="20.0" style="fill:gray;stroke:black;stroke-width:1.0"/>
<circle cx="287" cy="20" r="20.0" style="fill:gray;stroke:black;stroke-width:1.0"/>
<circle cx="30" cy="315" r="20.0" style="fill:gray;stroke:black;stroke-width:1.0"/>
<circle cx="32" cy="288" r="20.0" style="fill:gray;stroke:black;stroke-width:1.0"/>
</svg>
