<svg width="440" height="340" xmlns="http://www.w3.org/2000/svg">
<path stroke-width="1" stroke="black" d="M 268 314 238 314"/>
<path stroke-width="1" stroke="black" d="M 88 182 125 176"/>
<path stroke-width="1" stroke="black" d="M 88 182 42 180"/>
<path stroke-width="1" stroke="black" d="M 253 320 238 314"/>
<path stroke-width="1" stroke="black" d="M 253 320 268 314"/>
<path stroke-width="1" stroke="black" d="M 42 163 20 172"/>
<path stroke-width="1" stroke="black" d="M 42 163 89 161"/>
<path stroke-width="1" stroke="black" d="M 20 172 42 163"/>
<path stroke-width="1" stroke="black" d="M 20 172 42 180"/>
<path stroke-width="1" stroke="black" d="M 89 161 126 167"/>
<path stroke-width="1" stroke="black" d="M 89 161 42 163"/>
<path stroke-width="1" stroke="black" d="M 238 314 253 320"/>
<path stroke-width="1" stroke="black" d="M 238 314 268 314"/>
<path stroke-width="1" stroke="black" d="M 125 176 126 167"/>
<path stroke-width="1" stroke="black" d="M 125 176 88 182"/>
<path stroke-width="1" stroke="black" d="M 42 180 88 182"/>
<path stroke-width="1" stroke="black" d="M 42 180 20 172"/>
<path stroke-width="1" stroke="black" d="M 268 314 253 320"/>
<path stroke-width="1" stroke="black" d="M 126 167 125 176"/>
<path stroke-width="1" stroke="black" d="M 126 167 89 161"/>
<circle cx="420" cy="20" r="20.0" style="fill:gray;stroke:black;stroke-width:1.0"/>
<circle cx="268" cy="314" r="20.0" style="fill:gray;stroke:black;stroke-width:1.0"/>
<circle cx="42" cy="180" r="20.0" style="fill:gray;stroke:black;stroke-width:1.0"/>
<circle cx="125" cy="176" r="20.0" style="fill:gray;stroke:black;stroke-width:1.0"/>
<circle cx="238" cy="314" r="20.0" style="fill:gray;stroke:black;stroke-width:1.0"/>
<circle cx="89" cy="161" r="20.0" style="fill:gray;stroke:black;stroke-width:1.0"/>
<circle cx="20" cy="172" r="20.0" style="fill:gray;stroke:black;stroke-width:1.0"/>
<circle cx="42" cy="163" r="20.0" style="fill:gray;stroke:black;stroke-width:1.0"/>
<circle cx="253" cy="320" r="20.0" style="fill:gray;stroke:black;stroke-width:1.0"/>
<circle cx="88" cy="182" r="20.0" style="fill:gray;stroke:black;stroke-width:1.0"/>
<circle cx="126" cy="167" r="20.0" style="fill:gray;stroke:black;stroke-width:1.0"/>
</svg>
