<svg width="440" height="340" xmlns="http://www.w3.org/2000/svg">
<path stroke-width="1" stroke="black" d="M 408 301 420 312"/>
<path stroke-width="1" stroke="black" d="M 276 20 259 20"/>
<path stroke-width="1" stroke="black" d="M 276 20 287 37"/>
<path stroke-width="1" stroke="black" d="M 407 320 420 312"/>
<path stroke-width="1" stroke="black" d="M 407 320 408 301"/>
<path stroke-width="1" stroke="black" d="M 268 71 283 60"/>
<path stroke-width="1" stroke="black" d="M 268 71 253 62"/>
<path stroke-width="1" stroke="black" d="M 283 60 268 71"/>
<path stroke-width="1" stroke="black" d="M 283 60 287 37"/>
<path stroke-width="1" stroke="black" d="M 253 62 249 39"/>
<path stroke-width="1" stroke="black" d="M 253 62 268 71"/>
<path stroke-width="1" stroke="black" d="M 420 312 407 320"/>
<path stroke-width="1" stroke="black" d="M 420 312 408 301"/>
<path stroke-width="1" stroke="black" d="M 259 20 249 39"/>
<path stroke-width="1" stroke="black" d="M 259 20 276 20"/>
<path stroke-width="1" stroke="black" d="M 287 37 276 20"/>
<path stroke-width="1" stroke="black" d="M 287 37 283 60"/>
<path stroke-width="1" stroke="black" d="M 408 301 407 320"/>
<path stroke-width="1" stroke="black" d="M 249 39 259 20"/>
<path stroke-width="1" stroke="black" d="M 249 39 253 62"/>
<circle cx="20" cy="84" r="7.0" style="fill:gray;stroke:black;stroke-width:1.0"/>
<circle cx="408" cy="301" r="7.0" style="fill:gray;stroke:black;stroke-width:1.0"/>
<circle cx="287" cy="37" r="7.0" style="fill:gray;stroke:black;stroke-width:1.0"/>
<circle cx="259" cy="20" r="7.0" style="fill:gray;stroke:black;stroke-width:1.0"/>
<circle cx="420" cy="312" r="7.0" style="fill:gray;stroke:black;stroke-width:1.0"/>
<circle cx="253" cy="62" r="7.0" style="fill:gray;stroke:black;stroke-width:1.0"/>
<circle cx="283" cy="60" r="7.0" style="fill:gray;stroke:black;stroke-width:1.0"/>
<circle cx="268" cy="71" r="7.0" style="fill:gray;stroke:black;stroke-width:1.0"/>
<circle cx="407" cy="320" r="7.0" style="fill:gray;stroke:black;stroke-width:1.0"/>
<circle cx="276" cy="20" r="7.0" style="fill:gray;stroke:black;stroke-width:1.0"/>
<circle cx="249" cy="39" r="7.0" style="fill:gray;stroke:black;stroke-width:1.0"/>
</svg>
