<svg width="440" height="340" xmlns="http://www.w3.org/2000/svg">
<path stroke-width="1" stroke="black" d="M 33 313 20 320"/>
<path stroke-width="1" stroke="black" d="M 130 149 98 154"/>
<path stroke-width="1" stroke="black" d="M 130 149 137 136"/>
<path stroke-width="1" stroke="black" d="M 46 319 20 320"/>
<path stroke-width="1" stroke="black" d="M 46 319 33 313"/>
<path stroke-width="1" stroke="black" d="M 74 128 112 127"/>
<path stroke-width="1" stroke="black" d="M 74 128 53 138"/>
<path stroke-width="1" stroke="black" d="M 112 127 74 128"/>
<path stroke-width="1" stroke="black" d="M 112 127 137 136"/>
<path stroke-width="1" stroke="black" d="M 53 138 63 150"/>
<path stroke-width="1" stroke="black" d="M 53 138 74 128"/>
<path stroke-width="1" stroke="black" d="M 20 320 46 319"/>
<path stroke-width="1" stroke="black" d="M 20 320 33 313"/>
<path stroke-width="1" stroke="black" d="M 98 154 63 150"/>
<path stroke-width="1" stroke="black" d="M 98 154 130 149"/>
<path stroke-width="1" stroke="black" d="M 137 136 130 149"/>
<path stroke-width="1" stroke="black" d="M 137 136 112 127"/>
<path stroke-width="1" stroke="black" d="M 33 313 46 319"/>
<path stroke-width="1" stroke="black" d="M 63 150 98 154"/>
<path stroke-width="1" stroke="black" d="M 63 150 53 138"/>
<circle cx="420" cy="20" r="7.0" style="fill:gray;stroke:black;stroke-width:1.0"/>
<circle cx="33" cy="313" r="7.0" style="fill:gray;stroke:black;stroke-width:1.0"/>
<circle cx="137" cy="136" r="7.0" style="fill:gray;stroke:black;stroke-width:1.0"/>
<circle cx="98" cy="154" r="7.0" style="fill:gray;stroke:black;stroke-width:1.0"/>
<circle cx="20" cy="320" r="7.0" style="fill:gray;stroke:black;stroke-width:1.0"/>
<circle cx="53" cy="138" r="7.0" style="fill:gray;stroke:black;stroke-width:1.0"/>
<circle cx="112" cy="127" r="7.0" style="fill:gray;stroke:black;stroke-width:1.0"/>
<circle cx="74" cy="128" r="7.0" style="fill:gray;stroke:black;stroke-width:1.0"/>
<circle cx="46" cy="319" r="7.0" style="fill:gray;stroke:black;stroke-width:1.0"/>
<circle cx="130" cy="149" r="7.0" style="fill:gray;stroke:black;stroke-width:1.0"/>
<circle cx="63" cy="150" r="7.0" style="fill:gray;stroke:black;stroke-width:1.0"/>
</svg>
