<svg width="440" height="340" xmlns="http://www.w3.org/2000/svg">
<path stroke-width="1" stroke="black" d="M 20 238 128 188"/>
<path stroke-width="1" stroke="black" d="M 96 156 311 139"/>
<path stroke-width="1" stroke="black" d="M 96 156 285 205"/>
<path stroke-width="1" stroke="black" d="M 96 156 20 150"/>
<path stroke-width="1" stroke="black" d="M 96 156 280 122"/>
<path stroke-width="1" stroke="black" d="M 96 156 146 117"/>
<path stroke-width="1" stroke="black" d="M 96 156 218 163"/>
<path stroke-width="1" stroke="black" d="M 96 156 138 151"/>
<path stroke-width="1" stroke="black" d="M 96 156 247 212"/>
<path stroke-width="1" stroke="black" d="M 335 49 280 122"/>
<path stroke-width="1" stroke="black" d="M 280 122 128 188"/>
<path stroke-width="1" stroke="black" d="M 280 122 237 105"/>
<path stroke-width="1" stroke="black" d="M 280 122 193 113"/>
<path stroke-width="1" stroke="black" d="M 96 156 198 212"/>
<path stroke-width="1" stroke="black" d="M 280 122 161 203"/>
<path stroke-width="1" stroke="black" d="M 280 122 327 159"/>
<path stroke-width="1" stroke="black" d="M 280 122 198 212"/>
<path stroke-width="1" stroke="black" d="M 280 122 311 139"/>
<path stroke-width="1" stroke="black" d="M 280 122 285 205"/>
<path stroke-width="1" stroke="black" d="M 280 122 96 156"/>
<path stroke-width="1" stroke="black" d="M 280 122 335 49"/>
<path stroke-width="1" stroke="black" d="M 280 122 146 117"/>
<path stroke-width="1" stroke="black" d="M 280 122 218 163"/>
<path stroke-width="1" stroke="black" d="M 280 122 138 151"/>
<path stroke-width="1" stroke="black" d="M 280 122 247 212"/>
<path stroke-width="1" stroke="black" d="M 89 58 146 117"/>
<path stroke-width="1" stroke="black" d="M 146 117 128 188"/>
<path stroke-width="1" stroke="black" d="M 280 122 320 184"/>
<path stroke-width="1" stroke="black" d="M 146 117 237 105"/>
<path stroke-width="1" stroke="black" d="M 96 156 327 159"/>
<path stroke-width="1" stroke="black" d="M 96 156 161 203"/>
<path stroke-width="1" stroke="black" d="M 311 139 96 156"/>
<path stroke-width="1" stroke="black" d="M 311 139 280 122"/>
<path stroke-width="1" stroke="black" d="M 311 139 146 117"/>
<path stroke-width="1" stroke="black" d="M 311 139 218 163"/>
<path stroke-width="1" stroke="black" d="M 311 139 138 151"/>
<path stroke-width="1" stroke="black" d="M 311 139 247 212"/>
<path stroke-width="1" stroke="black" d="M 344 267 285 205"/>
<path stroke-width="1" stroke="black" d="M 285 205 128 188"/>
<path stroke-width="1" stroke="black" d="M 285 205 237 105"/>
<path stroke-width="1" stroke="black" d="M 285 205 193 113"/>
<path stroke-width="1" stroke="black" d="M 285 205 161 203"/>
<path stroke-width="1" stroke="black" d="M 285 205 320 184"/>
<path stroke-width="1" stroke="black" d="M 96 156 320 184"/>
<path stroke-width="1" stroke="black" d="M 285 205 327 159"/>
<path stroke-width="1" stroke="black" d="M 285 205 311 139"/>
<path stroke-width="1" stroke="black" d="M 285 205 344 267"/>
<path stroke-width="1" stroke="black" d="M 285 205 96 156"/>
<path stroke-width="1" stroke="black" d="M 285 205 280 122"/>
<path stroke-width="1" stroke="black" d="M 285 205 146 117"/>
<path stroke-width="1" stroke="black" d="M 285 205 218 163"/>
<path stroke-width="1" stroke="black" d="M 285 205 138 151"/>
<path stroke-width="1" stroke="black" d="M 285 205 247 212"/>
<path stroke-width="1" stroke="black" d="M 20 150 96 156"/>
<path stroke-width="1" stroke="black" d="M 96 156 128 188"/>
<path stroke-width="1" stroke="black" d="M 96 156 237 105"/>
<path stroke-width="1" stroke="black" d="M 96 156 193 113"/>
<path stroke-width="1" stroke="black" d="M 285 205 198 212"/>
<path stroke-width="1" stroke="black" d="M 311 139 285 205"/>
<path stroke-width="1" stroke="black" d="M 146 117 193 113"/>
<path stroke-width="1" stroke="black" d="M 146 117 320 184"/>
<path stroke-width="1" stroke="black" d="M 138 151 161 203"/>
<path stroke-width="1" stroke="black" d="M 138 151 320 184"/>
<path stroke-width="1" stroke="black" d="M 138 151 327 159"/>
<path stroke-width="1" stroke="black" d="M 138 151 198 212"/>
<path stroke-width="1" stroke="black" d="M 138 151 311 139"/>
<path stroke-width="1" stroke="black" d="M 138 151 285 205"/>
<path stroke-width="1" stroke="black" d="M 138 151 96 156"/>
<path stroke-width="1" stroke="black" d="M 138 151 280 122"/>
<path stroke-width="1" stroke="black" d="M 138 151 146 117"/>
<path stroke-width="1" stroke="black" d="M 138 151 218 163"/>
<path stroke-width="1" stroke="black" d="M 138 151 56 134"/>
<path stroke-width="1" stroke="black" d="M 138 151 247 212"/>
<path stroke-width="1" stroke="black" d="M 138 151 193 113"/>
<path stroke-width="1" stroke="black" d="M 282 320 247 212"/>
<path stroke-width="1" stroke="black" d="M 247 212 237 105"/>
<path stroke-width="1" stroke="black" d="M 247 212 193 113"/>
<path stroke-width="1" stroke="black" d="M 247 212 161 203"/>
<path stroke-width="1" stroke="black" d="M 247 212 320 184"/>
<path stroke-width="1" stroke="black" d="M 247 212 327 159"/>
<path stroke-width="1" stroke="black" d="M 247 212 198 212"/>
<path stroke-width="1" stroke="black" d="M 247 212 311 139"/>
<path stroke-width="1" stroke="black" d="M 247 212 285 205"/>
<path stroke-width="1" stroke="black" d="M 247 212 96 156"/>
<path stroke-width="1" stroke="black" d="M 247 212 280 122"/>
<path stroke-width="1" stroke="black" d="M 247 212 146 117"/>
<path stroke-width="1" stroke="black" d="M 247 212 218 163"/>
<path stroke-width="1" stroke="black" d="M 247 212 128 188"/>
<path stroke-width="1" stroke="black" d="M 146 117 161 203"/>
<path stroke-width="1" stroke="black" d="M 138 151 237 105"/>
<path stroke-width="1" stroke="black" d="M 56 134 138 151"/>
<path stroke-width="1" stroke="black" d="M 146 117 327 159"/>
<path stroke-width="1" stroke="black" d="M 146 117 198 212"/>
<path stroke-width="1" stroke="black" d="M 146 117 311 139"/>
<path stroke-width="1" stroke="black" d="M 146 117 285 205"/>
<path stroke-width="1" stroke="black" d="M 146 117 96 156"/>
<path stroke-width="1" stroke="black" d="M 146 117 280 122"/>
<path stroke-width="1" stroke="black" d="M 146 117 89 58"/>
<path stroke-width="1" stroke="black" d="M 146 117 218 163"/>
<path stroke-width="1" stroke="black" d="M 146 117 138 151"/>
<path stroke-width="1" stroke="black" d="M 146 117 247 212"/>
<path stroke-width="1" stroke="black" d="M 263 171 218 163"/>
<path stroke-width="1" stroke="black" d="M 218 163 128 188"/>
<path stroke-width="1" stroke="black" d="M 138 151 128 188"/>
<path stroke-width="1" stroke="black" d="M 218 163 237 105"/>
<path stroke-width="1" stroke="black" d="M 218 163 161 203"/>
<path stroke-width="1" stroke="black" d="M 218 163 320 184"/>
<path stroke-width="1" stroke="black" d="M 218 163 327 159"/>
<path stroke-width="1" stroke="black" d="M 218 163 198 212"/>
<path stroke-width="1" stroke="black" d="M 218 163 311 139"/>
<path stroke-width="1" stroke="black" d="M 218 163 285 205"/>
<path stroke-width="1" stroke="black" d="M 218 163 96 156"/>
<path stroke-width="1" stroke="black" d="M 218 163 280 122"/>
<path stroke-width="1" stroke="black" d="M 218 163 146 117"/>
<path stroke-width="1" stroke="black" d="M 218 163 263 171"/>
<path stroke-width="1" stroke="black" d="M 218 163 138 151"/>
<path stroke-width="1" stroke="black" d="M 218 163 247 212"/>
<path stroke-width="1" stroke="black" d="M 218 163 193 113"/>
<path stroke-width="1" stroke="black" d="M 311 139 395 95"/>
<path stroke-width="1" stroke="black" d="M 311 139 198 212"/>
<path stroke-width="1" stroke="black" d="M 311 139 327 159"/>
<path stroke-width="1" stroke="black" d="M 237 105 247 212"/>
<path stroke-width="1" stroke="black" d="M 172 37 193 113"/>
<path stroke-width="1" stroke="black" d="M 193 113 128 188"/>
<path stroke-width="1" stroke="black" d="M 193 113 237 105"/>
<path stroke-width="1" stroke="black" d="M 193 113 172 37"/>
<path stroke-width="1" stroke="black" d="M 193 113 161 203"/>
<path stroke-width="1" stroke="black" d="M 193 113 320 184"/>
<path stroke-width="1" stroke="black" d="M 193 113 327 159"/>
<path stroke-width="1" stroke="black" d="M 193 113 198 212"/>
<path stroke-width="1" stroke="black" d="M 193 113 311 139"/>
<path stroke-width="1" stroke="black" d="M 193 113 285 205"/>
<path stroke-width="1" stroke="black" d="M 193 113 96 156"/>
<path stroke-width="1" stroke="black" d="M 237 105 138 151"/>
<path stroke-width="1" stroke="black" d="M 193 113 280 122"/>
<path stroke-width="1" stroke="black" d="M 193 113 218 163"/>
<path stroke-width="1" stroke="black" d="M 193 113 138 151"/>
<path stroke-width="1" stroke="black" d="M 193 113 247 212"/>
<path stroke-width="1" stroke="black" d="M 105 267 161 203"/>
<path stroke-width="1" stroke="black" d="M 161 203 128 188"/>
<path stroke-width="1" stroke="black" d="M 161 203 237 105"/>
<path stroke-width="1" stroke="black" d="M 161 203 193 113"/>
<path stroke-width="1" stroke="black" d="M 161 203 105 267"/>
<path stroke-width="1" stroke="black" d="M 161 203 320 184"/>
<path stroke-width="1" stroke="black" d="M 161 203 327 159"/>
<path stroke-width="1" stroke="black" d="M 161 203 198 212"/>
<path stroke-width="1" stroke="black" d="M 161 203 311 139"/>
<path stroke-width="1" stroke="black" d="M 193 113 146 117"/>
<path stroke-width="1" stroke="black" d="M 161 203 285 205"/>
<path stroke-width="1" stroke="black" d="M 237 105 218 163"/>
<path stroke-width="1" stroke="black" d="M 237 105 280 122"/>
<path stroke-width="1" stroke="black" d="M 128 188 20 238"/>
<path stroke-width="1" stroke="black" d="M 128 188 237 105"/>
<path stroke-width="1" stroke="black" d="M 128 188 193 113"/>
<path stroke-width="1" stroke="black" d="M 128 188 161 203"/>
<path stroke-width="1" stroke="black" d="M 128 188 320 184"/>
<path stroke-width="1" stroke="black" d="M 128 188 327 159"/>
<path stroke-width="1" stroke="black" d="M 128 188 198 212"/>
<path stroke-width="1" stroke="black" d="M 128 188 311 139"/>
<path stroke-width="1" stroke="black" d="M 128 188 285 205"/>
<path stroke-width="1" stroke="black" d="M 128 188 96 156"/>
<path stroke-width="1" stroke="black" d="M 128 188 280 122"/>
<path stroke-width="1" stroke="black" d="M 128 188 146 117"/>
<path stroke-width="1" stroke="black" d="M 237 105 146 117"/>
<path stroke-width="1" stroke="black" d="M 128 188 218 163"/>
<path stroke-width="1" stroke="black" d="M 128 188 247 212"/>
<path stroke-width="1" stroke="black" d="M 251 20 237 105"/>
<path stroke-width="1" stroke="black" d="M 237 105 128 188"/>
<path stroke-width="1" stroke="black" d="M 237 105 251 20"/>
<path stroke-width="1" stroke="black" d="M 237 105 193 113"/>
<path stroke-width="1" stroke="black" d="M 237 105 161 203"/>
<path stroke-width="1" stroke="black" d="M 237 105 320 184"/>
<path stroke-width="1" stroke="black" d="M 237 105 327 159"/>
<path stroke-width="1" stroke="black" d="M 237 105 198 212"/>
<path stroke-width="1" stroke="black" d="M 237 105 311 139"/>
<path stroke-width="1" stroke="black" d="M 237 105 285 205"/>
<path stroke-width="1" stroke="black" d="M 237 105 96 156"/>
<path stroke-width="1" stroke="black" d="M 128 188 138 151"/>
<path stroke-width="1" stroke="black" d="M 161 203 96 156"/>
<path stroke-width="1" stroke="black" d="M 161 203 280 122"/>
<path stroke-width="1" stroke="black" d="M 161 203 146 117"/>
<path stroke-width="1" stroke="black" d="M 327 159 146 117"/>
<path stroke-width="1" stroke="black" d="M 327 159 218 163"/>
<path stroke-width="1" stroke="black" d="M 327 159 138 151"/>
<path stroke-width="1" stroke="black" d="M 327 159 247 212"/>
<path stroke-width="1" stroke="black" d="M 178 304 198 212"/>
<path stroke-width="1" stroke="black" d="M 198 212 128 188"/>
<path stroke-width="1" stroke="black" d="M 198 212 237 105"/>
<path stroke-width="1" stroke="black" d="M 198 212 193 113"/>
<path stroke-width="1" stroke="black" d="M 198 212 161 203"/>
<path stroke-width="1" stroke="black" d="M 198 212 320 184"/>
<path stroke-width="1" stroke="black" d="M 198 212 327 159"/>
<path stroke-width="1" stroke="black" d="M 198 212 178 304"/>
<path stroke-width="1" stroke="black" d="M 327 159 280 122"/>
<path stroke-width="1" stroke="black" d="M 198 212 311 139"/>
<path stroke-width="1" stroke="black" d="M 198 212 96 156"/>
<path stroke-width="1" stroke="black" d="M 198 212 280 122"/>
<path stroke-width="1" stroke="black" d="M 198 212 146 117"/>
<path stroke-width="1" stroke="black" d="M 198 212 218 163"/>
<path stroke-width="1" stroke="black" d="M 198 212 138 151"/>
<path stroke-width="1" stroke="black" d="M 198 212 247 212"/>
<path stroke-width="1" stroke="black" d="M 395 95 311 139"/>
<path stroke-width="1" stroke="black" d="M 311 139 128 188"/>
<path stroke-width="1" stroke="black" d="M 311 139 237 105"/>
<path stroke-width="1" stroke="black" d="M 311 139 193 113"/>
<path stroke-width="1" stroke="black" d="M 311 139 161 203"/>
<path stroke-width="1" stroke="black" d="M 311 139 320 184"/>
<path stroke-width="1" stroke="black" d="M 198 212 285 205"/>
<path stroke-width="1" stroke="black" d="M 327 159 96 156"/>
<path stroke-width="1" stroke="black" d="M 327 159 285 205"/>
<path stroke-width="1" stroke="black" d="M 327 159 311 139"/>
<path stroke-width="1" stroke="black" d="M 161 203 218 163"/>
<path stroke-width="1" stroke="black" d="M 161 203 138 151"/>
<path stroke-width="1" stroke="black" d="M 161 203 247 212"/>
<path stroke-width="1" stroke="black" d="M 405 216 320 184"/>
<path stroke-width="1" stroke="black" d="M 320 184 128 188"/>
<path stroke-width="1" stroke="black" d="M 320 184 237 105"/>
<path stroke-width="1" stroke="black" d="M 320 184 193 113"/>
<path stroke-width="1" stroke="black" d="M 320 184 161 203"/>
<path stroke-width="1" stroke="black" d="M 320 184 405 216"/>
<path stroke-width="1" stroke="black" d="M 320 184 327 159"/>
<path stroke-width="1" stroke="black" d="M 320 184 198 212"/>
<path stroke-width="1" stroke="black" d="M 320 184 311 139"/>
<path stroke-width="1" stroke="black" d="M 320 184 285 205"/>
<path stroke-width="1" stroke="black" d="M 320 184 96 156"/>
<path stroke-width="1" stroke="black" d="M 320 184 280 122"/>
<path stroke-width="1" stroke="black" d="M 320 184 146 117"/>
<path stroke-width="1" stroke="black" d="M 320 184 218 163"/>
<path stroke-width="1" stroke="black" d="M 320 184 138 151"/>
<path stroke-width="1" stroke="black" d="M 320 184 247 212"/>
<path stroke-width="1" stroke="black" d="M 420 154 327 159"/>
<path stroke-width="1" stroke="black" d="M 327 159 128 188"/>
<path stroke-width="1" stroke="black" d="M 327 159 237 105"/>
<path stroke-width="1" stroke="black" d="M 327 159 193 113"/>
<path stroke-width="1" stroke="black" d="M 327 159 161 203"/>
<path stroke-width="1" stroke="black" d="M 327 159 320 184"/>
<path stroke-width="1" stroke="black" d="M 327 159 420 154"/>
<path stroke-width="1" stroke="black" d="M 327 159 198 212"/>
<path stroke-width="1" stroke="black" d="M 247 212 138 151"/>
<path stroke-width="1" stroke="black" d="M 247 212 282 320"/>
<circle cx="20" cy="238" r="7.0" style="fill:fuchsia;stroke:black;stroke-width:1.0"/>
<circle cx="128" cy="188" r="7.0" style="fill:fuchsia;stroke:black;stroke-width:1.0"/>
<circle cx="251" cy="20" r="7.0" style="fill:fuchsia;stroke:black;stroke-width:1.0"/>
<circle cx="237" cy="105" r="7.0" style="fill:fuchsia;stroke:black;stroke-width:1.0"/>
<circle cx="172" cy="37" r="7.0" style="fill:blue;stroke:black;stroke-width:1.0"/>
<circle cx="193" cy="113" r="7.0" style="fill:blue;stroke:black;stroke-width:1.0"/>
<circle cx="105" cy="267" r="7.0" style="fill:fuchsia;stroke:black;stroke-width:1.0"/>
<circle cx="161" cy="203" r="7.0" style="fill:fuchsia;stroke:black;stroke-width:1.0"/>
<circle cx="405" cy="216" r="7.0" style="fill:red;stroke:black;stroke-width:1.0"/>
<circle cx="320" cy="184" r="7.0" style="fill:red;stroke:black;stroke-width:1.0"/>
<circle cx="420" cy="154" r="7.0" style="fill:purple;stroke:black;stroke-width:1.0"/>
<circle cx="327" cy="159" r="7.0" style="fill:purple;stroke:black;stroke-width:1.0"/>
<circle cx="178" cy="304" r="7.0" style="fill:orange;stroke:black;stroke-width:1.0"/>
<circle cx="198" cy="212" r="7.0" style="fill:orange;stroke:black;stroke-width:1.0"/>
<circle cx="395" cy="95" r="7.0" style="fill:fuchsia;stroke:black;stroke-width:1.0"/>
<circle cx="311" cy="139" r="7.0" style="fill:fuchsia;stroke:black;stroke-width:1.0"/>
<circle cx="344" cy="267" r="7.0" style="fill:fuchsia;stroke:black;stroke-width:1.0"/>
<circle cx="285" cy="205" r="7.0" style="fill:fuchsia;stroke:black;stroke-width:1.0"/>
<circle cx="20" cy="150" r="7.0" style="fill:yellow;stroke:black;stroke-width:1.0"/>
<circle cx="96" cy="156" r="7.0" style="fill:yellow;stroke:black;stroke-width:1.0"/>
<circle cx="335" cy="49" r="7.0" style="fill:fuchsia;stroke:black;stroke-width:1.0"/>
<circle cx="280" cy="122" r="7.0" style="fill:fuchsia;stroke:black;stroke-width:1.0"/>
<circle cx="89" cy="58" r="7.0" style="fill:fuchsia;stroke:black;stroke-width:1.0"/>
<circle cx="146" cy="117" r="7.0" style="fill:fuchsia;stroke:black;stroke-width:1.0"/>
<circle cx="263" cy="171" r="7.0" style="fill:green;stroke:black;stroke-width:1.0"/>
<circle cx="218" cy="163" r="7.0" style="fill:green;stroke:black;stroke-width:1.0"/>
<circle cx="56" cy="134" r="7.0" style="fill:fuchsia;stroke:black;stroke-width:1.0"/>
<circle cx="138" cy="151" r="7.0" style="fill:fuchsia;stroke:black;stroke-width:1.0"/>
<circle cx="282" cy="320" r="7.0" style="fill:fuchsia;stroke:black;stroke-width:1.0"/>
<circle cx="247" cy="212" r="7.0" style="fill:fuchsia;stroke:black;stroke-width:1.0"/>
</svg>
