<svg width="440" height="340" xmlns="http://www.w3.org/2000/svg">
<path stroke-width="1" stroke="black" d="M 117 20 175 123"/>
<path stroke-width="1" stroke="black" d="M 252 219 156 146"/>
<path stroke-width="1" stroke="black" d="M 252 219 207 223"/>
<path stroke-width="1" stroke="black" d="M 252 219 264 320"/>
<path stroke-width="1" stroke="black" d="M 252 219 227 176"/>
<path stroke-width="1" stroke="black" d="M 252 219 250 118"/>
<path stroke-width="1" stroke="black" d="M 252 219 304 127"/>
<path stroke-width="1" stroke="black" d="M 252 219 213 121"/>
<path stroke-width="1" stroke="black" d="M 252 219 127 159"/>
<path stroke-width="1" stroke="black" d="M 209 210 227 176"/>
<path stroke-width="1" stroke="black" d="M 227 176 175 123"/>
<path stroke-width="1" stroke="black" d="M 227 176 287 205"/>
<path stroke-width="1" stroke="black" d="M 227 176 283 145"/>
<path stroke-width="1" stroke="black" d="M 252 219 141 197"/>
<path stroke-width="1" stroke="black" d="M 227 176 337 173"/>
<path stroke-width="1" stroke="black" d="M 227 176 321 184"/>
<path stroke-width="1" stroke="black" d="M 227 176 141 197"/>
<path stroke-width="1" stroke="black" d="M 227 176 156 146"/>
<path stroke-width="1" stroke="black" d="M 227 176 207 223"/>
<path stroke-width="1" stroke="black" d="M 227 176 252 219"/>
<path stroke-width="1" stroke="black" d="M 227 176 209 210"/>
<path stroke-width="1" stroke="black" d="M 227 176 250 118"/>
<path stroke-width="1" stroke="black" d="M 227 176 304 127"/>
<path stroke-width="1" stroke="black" d="M 227 176 213 121"/>
<path stroke-width="1" stroke="black" d="M 227 176 127 159"/>
<path stroke-width="1" stroke="black" d="M 265 23 250 118"/>
<path stroke-width="1" stroke="black" d="M 250 118 175 123"/>
<path stroke-width="1" stroke="black" d="M 227 176 172 203"/>
<path stroke-width="1" stroke="black" d="M 250 118 287 205"/>
<path stroke-width="1" stroke="black" d="M 252 219 321 184"/>
<path stroke-width="1" stroke="black" d="M 252 219 337 173"/>
<path stroke-width="1" stroke="black" d="M 156 146 252 219"/>
<path stroke-width="1" stroke="black" d="M 156 146 227 176"/>
<path stroke-width="1" stroke="black" d="M 156 146 250 118"/>
<path stroke-width="1" stroke="black" d="M 156 146 304 127"/>
<path stroke-width="1" stroke="black" d="M 156 146 213 121"/>
<path stroke-width="1" stroke="black" d="M 156 146 127 159"/>
<path stroke-width="1" stroke="black" d="M 189 313 207 223"/>
<path stroke-width="1" stroke="black" d="M 207 223 175 123"/>
<path stroke-width="1" stroke="black" d="M 207 223 287 205"/>
<path stroke-width="1" stroke="black" d="M 207 223 283 145"/>
<path stroke-width="1" stroke="black" d="M 207 223 337 173"/>
<path stroke-width="1" stroke="black" d="M 207 223 172 203"/>
<path stroke-width="1" stroke="black" d="M 252 219 172 203"/>
<path stroke-width="1" stroke="black" d="M 207 223 321 184"/>
<path stroke-width="1" stroke="black" d="M 207 223 156 146"/>
<path stroke-width="1" stroke="black" d="M 207 223 189 313"/>
<path stroke-width="1" stroke="black" d="M 207 223 252 219"/>
<path stroke-width="1" stroke="black" d="M 207 223 227 176"/>
<path stroke-width="1" stroke="black" d="M 207 223 250 118"/>
<path stroke-width="1" stroke="black" d="M 207 223 304 127"/>
<path stroke-width="1" stroke="black" d="M 207 223 213 121"/>
<path stroke-width="1" stroke="black" d="M 207 223 127 159"/>
<path stroke-width="1" stroke="black" d="M 264 320 252 219"/>
<path stroke-width="1" stroke="black" d="M 252 219 175 123"/>
<path stroke-width="1" stroke="black" d="M 252 219 287 205"/>
<path stroke-width="1" stroke="black" d="M 252 219 283 145"/>
<path stroke-width="1" stroke="black" d="M 207 223 141 197"/>
<path stroke-width="1" stroke="black" d="M 156 146 207 223"/>
<path stroke-width="1" stroke="black" d="M 250 118 283 145"/>
<path stroke-width="1" stroke="black" d="M 250 118 172 203"/>
<path stroke-width="1" stroke="black" d="M 213 121 337 173"/>
<path stroke-width="1" stroke="black" d="M 213 121 172 203"/>
<path stroke-width="1" stroke="black" d="M 213 121 321 184"/>
<path stroke-width="1" stroke="black" d="M 213 121 141 197"/>
<path stroke-width="1" stroke="black" d="M 213 121 156 146"/>
<path stroke-width="1" stroke="black" d="M 213 121 207 223"/>
<path stroke-width="1" stroke="black" d="M 213 121 252 219"/>
<path stroke-width="1" stroke="black" d="M 213 121 227 176"/>
<path stroke-width="1" stroke="black" d="M 213 121 250 118"/>
<path stroke-width="1" stroke="black" d="M 213 121 304 127"/>
<path stroke-width="1" stroke="black" d="M 213 121 196 29"/>
<path stroke-width="1" stroke="black" d="M 213 121 127 159"/>
<path stroke-width="1" stroke="black" d="M 213 121 283 145"/>
<path stroke-width="1" stroke="black" d="M 20 117 127 159"/>
<path stroke-width="1" stroke="black" d="M 127 159 287 205"/>
<path stroke-width="1" stroke="black" d="M 127 159 283 145"/>
<path stroke-width="1" stroke="black" d="M 127 159 337 173"/>
<path stroke-width="1" stroke="black" d="M 127 159 172 203"/>
<path stroke-width="1" stroke="black" d="M 127 159 321 184"/>
<path stroke-width="1" stroke="black" d="M 127 159 141 197"/>
<path stroke-width="1" stroke="black" d="M 127 159 156 146"/>
<path stroke-width="1" stroke="black" d="M 127 159 207 223"/>
<path stroke-width="1" stroke="black" d="M 127 159 252 219"/>
<path stroke-width="1" stroke="black" d="M 127 159 227 176"/>
<path stroke-width="1" stroke="black" d="M 127 159 250 118"/>
<path stroke-width="1" stroke="black" d="M 127 159 304 127"/>
<path stroke-width="1" stroke="black" d="M 127 159 175 123"/>
<path stroke-width="1" stroke="black" d="M 250 118 337 173"/>
<path stroke-width="1" stroke="black" d="M 213 121 287 205"/>
<path stroke-width="1" stroke="black" d="M 196 29 213 121"/>
<path stroke-width="1" stroke="black" d="M 250 118 321 184"/>
<path stroke-width="1" stroke="black" d="M 250 118 141 197"/>
<path stroke-width="1" stroke="black" d="M 250 118 156 146"/>
<path stroke-width="1" stroke="black" d="M 250 118 207 223"/>
<path stroke-width="1" stroke="black" d="M 250 118 252 219"/>
<path stroke-width="1" stroke="black" d="M 250 118 227 176"/>
<path stroke-width="1" stroke="black" d="M 250 118 265 23"/>
<path stroke-width="1" stroke="black" d="M 250 118 304 127"/>
<path stroke-width="1" stroke="black" d="M 250 118 213 121"/>
<path stroke-width="1" stroke="black" d="M 250 118 127 159"/>
<path stroke-width="1" stroke="black" d="M 352 42 304 127"/>
<path stroke-width="1" stroke="black" d="M 304 127 175 123"/>
<path stroke-width="1" stroke="black" d="M 213 121 175 123"/>
<path stroke-width="1" stroke="black" d="M 304 127 287 205"/>
<path stroke-width="1" stroke="black" d="M 304 127 337 173"/>
<path stroke-width="1" stroke="black" d="M 304 127 172 203"/>
<path stroke-width="1" stroke="black" d="M 304 127 321 184"/>
<path stroke-width="1" stroke="black" d="M 304 127 141 197"/>
<path stroke-width="1" stroke="black" d="M 304 127 156 146"/>
<path stroke-width="1" stroke="black" d="M 304 127 207 223"/>
<path stroke-width="1" stroke="black" d="M 304 127 252 219"/>
<path stroke-width="1" stroke="black" d="M 304 127 227 176"/>
<path stroke-width="1" stroke="black" d="M 304 127 250 118"/>
<path stroke-width="1" stroke="black" d="M 304 127 352 42"/>
<path stroke-width="1" stroke="black" d="M 304 127 213 121"/>
<path stroke-width="1" stroke="black" d="M 304 127 127 159"/>
<path stroke-width="1" stroke="black" d="M 304 127 283 145"/>
<path stroke-width="1" stroke="black" d="M 156 146 90 82"/>
<path stroke-width="1" stroke="black" d="M 156 146 141 197"/>
<path stroke-width="1" stroke="black" d="M 156 146 321 184"/>
<path stroke-width="1" stroke="black" d="M 287 205 127 159"/>
<path stroke-width="1" stroke="black" d="M 344 82 283 145"/>
<path stroke-width="1" stroke="black" d="M 283 145 175 123"/>
<path stroke-width="1" stroke="black" d="M 283 145 287 205"/>
<path stroke-width="1" stroke="black" d="M 283 145 344 82"/>
<path stroke-width="1" stroke="black" d="M 283 145 337 173"/>
<path stroke-width="1" stroke="black" d="M 283 145 172 203"/>
<path stroke-width="1" stroke="black" d="M 283 145 321 184"/>
<path stroke-width="1" stroke="black" d="M 283 145 141 197"/>
<path stroke-width="1" stroke="black" d="M 283 145 156 146"/>
<path stroke-width="1" stroke="black" d="M 283 145 207 223"/>
<path stroke-width="1" stroke="black" d="M 283 145 252 219"/>
<path stroke-width="1" stroke="black" d="M 287 205 213 121"/>
<path stroke-width="1" stroke="black" d="M 283 145 227 176"/>
<path stroke-width="1" stroke="black" d="M 283 145 304 127"/>
<path stroke-width="1" stroke="black" d="M 283 145 213 121"/>
<path stroke-width="1" stroke="black" d="M 283 145 127 159"/>
<path stroke-width="1" stroke="black" d="M 420 143 337 173"/>
<path stroke-width="1" stroke="black" d="M 337 173 175 123"/>
<path stroke-width="1" stroke="black" d="M 337 173 287 205"/>
<path stroke-width="1" stroke="black" d="M 337 173 283 145"/>
<path stroke-width="1" stroke="black" d="M 337 173 420 143"/>
<path stroke-width="1" stroke="black" d="M 337 173 172 203"/>
<path stroke-width="1" stroke="black" d="M 337 173 321 184"/>
<path stroke-width="1" stroke="black" d="M 337 173 141 197"/>
<path stroke-width="1" stroke="black" d="M 337 173 156 146"/>
<path stroke-width="1" stroke="black" d="M 283 145 250 118"/>
<path stroke-width="1" stroke="black" d="M 337 173 207 223"/>
<path stroke-width="1" stroke="black" d="M 287 205 304 127"/>
<path stroke-width="1" stroke="black" d="M 287 205 227 176"/>
<path stroke-width="1" stroke="black" d="M 175 123 117 20"/>
<path stroke-width="1" stroke="black" d="M 175 123 287 205"/>
<path stroke-width="1" stroke="black" d="M 175 123 283 145"/>
<path stroke-width="1" stroke="black" d="M 175 123 337 173"/>
<path stroke-width="1" stroke="black" d="M 175 123 172 203"/>
<path stroke-width="1" stroke="black" d="M 175 123 321 184"/>
<path stroke-width="1" stroke="black" d="M 175 123 141 197"/>
<path stroke-width="1" stroke="black" d="M 175 123 156 146"/>
<path stroke-width="1" stroke="black" d="M 175 123 207 223"/>
<path stroke-width="1" stroke="black" d="M 175 123 252 219"/>
<path stroke-width="1" stroke="black" d="M 175 123 227 176"/>
<path stroke-width="1" stroke="black" d="M 175 123 250 118"/>
<path stroke-width="1" stroke="black" d="M 287 205 250 118"/>
<path stroke-width="1" stroke="black" d="M 175 123 304 127"/>
<path stroke-width="1" stroke="black" d="M 175 123 127 159"/>
<path stroke-width="1" stroke="black" d="M 326 295 287 205"/>
<path stroke-width="1" stroke="black" d="M 287 205 175 123"/>
<path stroke-width="1" stroke="black" d="M 287 205 326 295"/>
<path stroke-width="1" stroke="black" d="M 287 205 283 145"/>
<path stroke-width="1" stroke="black" d="M 287 205 337 173"/>
<path stroke-width="1" stroke="black" d="M 287 205 172 203"/>
<path stroke-width="1" stroke="black" d="M 287 205 321 184"/>
<path stroke-width="1" stroke="black" d="M 287 205 141 197"/>
<path stroke-width="1" stroke="black" d="M 287 205 156 146"/>
<path stroke-width="1" stroke="black" d="M 287 205 207 223"/>
<path stroke-width="1" stroke="black" d="M 287 205 252 219"/>
<path stroke-width="1" stroke="black" d="M 175 123 213 121"/>
<path stroke-width="1" stroke="black" d="M 337 173 252 219"/>
<path stroke-width="1" stroke="black" d="M 337 173 227 176"/>
<path stroke-width="1" stroke="black" d="M 337 173 250 118"/>
<path stroke-width="1" stroke="black" d="M 321 184 250 118"/>
<path stroke-width="1" stroke="black" d="M 321 184 304 127"/>
<path stroke-width="1" stroke="black" d="M 321 184 213 121"/>
<path stroke-width="1" stroke="black" d="M 321 184 127 159"/>
<path stroke-width="1" stroke="black" d="M 84 274 141 197"/>
<path stroke-width="1" stroke="black" d="M 141 197 175 123"/>
<path stroke-width="1" stroke="black" d="M 141 197 287 205"/>
<path stroke-width="1" stroke="black" d="M 141 197 283 145"/>
<path stroke-width="1" stroke="black" d="M 141 197 337 173"/>
<path stroke-width="1" stroke="black" d="M 141 197 172 203"/>
<path stroke-width="1" stroke="black" d="M 141 197 321 184"/>
<path stroke-width="1" stroke="black" d="M 141 197 84 274"/>
<path stroke-width="1" stroke="black" d="M 321 184 227 176"/>
<path stroke-width="1" stroke="black" d="M 141 197 156 146"/>
<path stroke-width="1" stroke="black" d="M 141 197 252 219"/>
<path stroke-width="1" stroke="black" d="M 141 197 227 176"/>
<path stroke-width="1" stroke="black" d="M 141 197 250 118"/>
<path stroke-width="1" stroke="black" d="M 141 197 304 127"/>
<path stroke-width="1" stroke="black" d="M 141 197 213 121"/>
<path stroke-width="1" stroke="black" d="M 141 197 127 159"/>
<path stroke-width="1" stroke="black" d="M 90 82 156 146"/>
<path stroke-width="1" stroke="black" d="M 156 146 175 123"/>
<path stroke-width="1" stroke="black" d="M 156 146 287 205"/>
<path stroke-width="1" stroke="black" d="M 156 146 283 145"/>
<path stroke-width="1" stroke="black" d="M 156 146 337 173"/>
<path stroke-width="1" stroke="black" d="M 156 146 172 203"/>
<path stroke-width="1" stroke="black" d="M 141 197 207 223"/>
<path stroke-width="1" stroke="black" d="M 321 184 252 219"/>
<path stroke-width="1" stroke="black" d="M 321 184 207 223"/>
<path stroke-width="1" stroke="black" d="M 321 184 156 146"/>
<path stroke-width="1" stroke="black" d="M 337 173 304 127"/>
<path stroke-width="1" stroke="black" d="M 337 173 213 121"/>
<path stroke-width="1" stroke="black" d="M 337 173 127 159"/>
<path stroke-width="1" stroke="black" d="M 127 282 172 203"/>
<path stroke-width="1" stroke="black" d="M 172 203 175 123"/>
<path stroke-width="1" stroke="black" d="M 172 203 287 205"/>
<path stroke-width="1" stroke="black" d="M 172 203 283 145"/>
<path stroke-width="1" stroke="black" d="M 172 203 337 173"/>
<path stroke-width="1" stroke="black" d="M 172 203 127 282"/>
<path stroke-width="1" stroke="black" d="M 172 203 321 184"/>
<path stroke-width="1" stroke="black" d="M 172 203 141 197"/>
<path stroke-width="1" stroke="black" d="M 172 203 156 146"/>
<path stroke-width="1" stroke="black" d="M 172 203 207 223"/>
<path stroke-width="1" stroke="black" d="M 172 203 252 219"/>
<path stroke-width="1" stroke="black" d="M 172 203 227 176"/>
<path stroke-width="1" stroke="black" d="M 172 203 250 118"/>
<path stroke-width="1" stroke="black" d="M 172 203 304 127"/>
<path stroke-width="1" stroke="black" d="M 172 203 213 121"/>
<path stroke-width="1" stroke="black" d="M 172 203 127 159"/>
<path stroke-width="1" stroke="black" d="M 392 260 321 184"/>
<path stroke-width="1" stroke="black" d="M 321 184 175 123"/>
<path stroke-width="1" stroke="black" d="M 321 184 287 205"/>
<path stroke-width="1" stroke="black" d="M 321 184 283 145"/>
<path stroke-width="1" stroke="black" d="M 321 184 337 173"/>
<path stroke-width="1" stroke="black" d="M 321 184 172 203"/>
<path stroke-width="1" stroke="black" d="M 321 184 392 260"/>
<path stroke-width="1" stroke="black" d="M 321 184 141 197"/>
<path stroke-width="1" stroke="black" d="M 127 159 213 121"/>
<path stroke-width="1" stroke="black" d="M 127 159 20 117"/>
<circle cx="117" cy="20" r="20.0" style="fill:gray;stroke:black;stroke-width:1.0"/>
<circle cx="175" cy="123" r="20.0" style="fill:gray;stroke:black;stroke-width:1.0"/>
<circle cx="326" cy="295" r="20.0" style="fill:gray;stroke:black;stroke-width:1.0"/>
<circle cx="287" cy="205" r="20.0" style="fill:gray;stroke:black;stroke-width:1.0"/>
<circle cx="344" cy="82" r="20.0" style="fill:gray;stroke:black;stroke-width:1.0"/>
<circle cx="283" cy="145" r="20.0" style="fill:gray;stroke:black;stroke-width:1.0"/>
<circle cx="420" cy="143" r="20.0" style="fill:gray;stroke:black;stroke-width:1.0"/>
<circle cx="337" cy="173" r="20.0" style="fill:gray;stroke:black;stroke-width:1.0"/>
<circle cx="127" cy="282" r="20.0" style="fill:gray;stroke:black;stroke-width:1.0"/>
<circle cx="172" cy="203" r="20.0" style="fill:gray;stroke:black;stroke-width:1.0"/>
<circle cx="392" cy="260" r="20.0" style="fill:gray;stroke:black;stroke-width:1.0"/>
<circle cx="321" cy="184" r="20.0" style="fill:gray;stroke:black;stroke-width:1.0"/>
<circle cx="84" cy="274" r="20.0" style="fill:gray;stroke:black;stroke-width:1.0"/>
<circle cx="141" cy="197" r="20.0" style="fill:gray;stroke:black;stroke-width:1.0"/>
<circle cx="90" cy="82" r="20.0" style="fill:gray;stroke:black;stroke-width:1.0"/>
<circle cx="156" cy="146" r="20.0" style="fill:gray;stroke:black;stroke-width:1.0"/>
<circle cx="189" cy="313" r="20.0" style="fill:gray;stroke:black;stroke-width:1.0"/>
<circle cx="207" cy="223" r="20.0" style="fill:gray;stroke:black;stroke-width:1.0"/>
<circle cx="264" cy="320" r="20.0" style="fill:gray;stroke:black;stroke-width:1.0"/>
<circle cx="252" cy="219" r="20.0" style="fill:gray;stroke:black;stroke-width:1.0"/>
<circle cx="209" cy="210" r="20.0" style="fill:gray;stroke:black;stroke-width:1.0"/>
<circle cx="227" cy="176" r="20.0" style="fill:gray;stroke:black;stroke-width:1.0"/>
<circle cx="265" cy="23" r="20.0" style="fill:gray;stroke:black;stroke-width:1.0"/>
<circle cx="250" cy="118" r="20.0" style="fill:gray;stroke:black;stroke-width:1.0"/>
<circle cx="352" cy="42" r="20.0" style="fill:gray;stroke:black;stroke-width:1.0"/>
<circle cx="304" cy="127" r="20.0" style="fill:gray;stroke:black;stroke-width:1.0"/>
<circle cx="196" cy="29" r="20.0" style="fill:gray;stroke:black;stroke-width:1.0"/>
<circle cx="213" cy="121" r="20.0" style="fill:gray;stroke:black;stroke-width:1.0"/>
<circle cx="20" cy="117" r="20.0" style="fill:gray;stroke:black;stroke-width:1.0"/>
<circle cx="127" cy="159" r="20.0" style="fill:gray;stroke:black;stroke-width:1.0"/>
</svg>
