<svg width="440" height="340" xmlns="http://www.w3.org/2000/svg">
<path stroke-width="1" stroke="black" d="M 286 20 255 111"/>
<path stroke-width="1" stroke="black" d="M 345 169 232 168"/>
<path stroke-width="1" stroke="black" d="M 345 169 299 163"/>
<path stroke-width="1" stroke="black" d="M 345 169 420 157"/>
<path stroke-width="1" stroke="black" d="M 345 169 158 239"/>
<path stroke-width="1" stroke="black" d="M 345 169 210 112"/>
<path stroke-width="1" stroke="black" d="M 345 169 274 251"/>
<path stroke-width="1" stroke="black" d="M 345 169 329 211"/>
<path stroke-width="1" stroke="black" d="M 345 169 122 181"/>
<path stroke-width="1" stroke="black" d="M 118 294 158 239"/>
<path stroke-width="1" stroke="black" d="M 158 239 255 111"/>
<path stroke-width="1" stroke="black" d="M 158 239 217 249"/>
<path stroke-width="1" stroke="black" d="M 158 239 301 123"/>
<path stroke-width="1" stroke="black" d="M 345 169 152 203"/>
<path stroke-width="1" stroke="black" d="M 158 239 293 223"/>
<path stroke-width="1" stroke="black" d="M 158 239 169 124"/>
<path stroke-width="1" stroke="black" d="M 158 239 152 203"/>
<path stroke-width="1" stroke="black" d="M 158 239 232 168"/>
<path stroke-width="1" stroke="black" d="M 158 239 299 163"/>
<path stroke-width="1" stroke="black" d="M 158 239 345 169"/>
<path stroke-width="1" stroke="black" d="M 158 239 118 294"/>
<path stroke-width="1" stroke="black" d="M 158 239 210 112"/>
<path stroke-width="1" stroke="black" d="M 158 239 274 251"/>
<path stroke-width="1" stroke="black" d="M 158 239 329 211"/>
<path stroke-width="1" stroke="black" d="M 158 239 122 181"/>
<path stroke-width="1" stroke="black" d="M 194 45 210 112"/>
<path stroke-width="1" stroke="black" d="M 210 112 255 111"/>
<path stroke-width="1" stroke="black" d="M 158 239 139 150"/>
<path stroke-width="1" stroke="black" d="M 210 112 217 249"/>
<path stroke-width="1" stroke="black" d="M 345 169 169 124"/>
<path stroke-width="1" stroke="black" d="M 345 169 293 223"/>
<path stroke-width="1" stroke="black" d="M 232 168 345 169"/>
<path stroke-width="1" stroke="black" d="M 232 168 158 239"/>
<path stroke-width="1" stroke="black" d="M 232 168 210 112"/>
<path stroke-width="1" stroke="black" d="M 232 168 274 251"/>
<path stroke-width="1" stroke="black" d="M 232 168 329 211"/>
<path stroke-width="1" stroke="black" d="M 232 168 122 181"/>
<path stroke-width="1" stroke="black" d="M 377 136 299 163"/>
<path stroke-width="1" stroke="black" d="M 299 163 255 111"/>
<path stroke-width="1" stroke="black" d="M 299 163 217 249"/>
<path stroke-width="1" stroke="black" d="M 299 163 301 123"/>
<path stroke-width="1" stroke="black" d="M 299 163 293 223"/>
<path stroke-width="1" stroke="black" d="M 299 163 139 150"/>
<path stroke-width="1" stroke="black" d="M 345 169 139 150"/>
<path stroke-width="1" stroke="black" d="M 299 163 169 124"/>
<path stroke-width="1" stroke="black" d="M 299 163 232 168"/>
<path stroke-width="1" stroke="black" d="M 299 163 377 136"/>
<path stroke-width="1" stroke="black" d="M 299 163 345 169"/>
<path stroke-width="1" stroke="black" d="M 299 163 158 239"/>
<path stroke-width="1" stroke="black" d="M 299 163 210 112"/>
<path stroke-width="1" stroke="black" d="M 299 163 274 251"/>
<path stroke-width="1" stroke="black" d="M 299 163 329 211"/>
<path stroke-width="1" stroke="black" d="M 299 163 122 181"/>
<path stroke-width="1" stroke="black" d="M 420 157 345 169"/>
<path stroke-width="1" stroke="black" d="M 345 169 255 111"/>
<path stroke-width="1" stroke="black" d="M 345 169 217 249"/>
<path stroke-width="1" stroke="black" d="M 345 169 301 123"/>
<path stroke-width="1" stroke="black" d="M 299 163 152 203"/>
<path stroke-width="1" stroke="black" d="M 232 168 299 163"/>
<path stroke-width="1" stroke="black" d="M 210 112 301 123"/>
<path stroke-width="1" stroke="black" d="M 210 112 139 150"/>
<path stroke-width="1" stroke="black" d="M 329 211 293 223"/>
<path stroke-width="1" stroke="black" d="M 329 211 139 150"/>
<path stroke-width="1" stroke="black" d="M 329 211 169 124"/>
<path stroke-width="1" stroke="black" d="M 329 211 152 203"/>
<path stroke-width="1" stroke="black" d="M 329 211 232 168"/>
<path stroke-width="1" stroke="black" d="M 329 211 299 163"/>
<path stroke-width="1" stroke="black" d="M 329 211 345 169"/>
<path stroke-width="1" stroke="black" d="M 329 211 158 239"/>
<path stroke-width="1" stroke="black" d="M 329 211 210 112"/>
<path stroke-width="1" stroke="black" d="M 329 211 274 251"/>
<path stroke-width="1" stroke="black" d="M 329 211 396 250"/>
<path stroke-width="1" stroke="black" d="M 329 211 122 181"/>
<path stroke-width="1" stroke="black" d="M 329 211 301 123"/>
<path stroke-width="1" stroke="black" d="M 20 184 122 181"/>
<path stroke-width="1" stroke="black" d="M 122 181 217 249"/>
<path stroke-width="1" stroke="black" d="M 122 181 301 123"/>
<path stroke-width="1" stroke="black" d="M 122 181 293 223"/>
<path stroke-width="1" stroke="black" d="M 122 181 139 150"/>
<path stroke-width="1" stroke="black" d="M 122 181 169 124"/>
<path stroke-width="1" stroke="black" d="M 122 181 152 203"/>
<path stroke-width="1" stroke="black" d="M 122 181 232 168"/>
<path stroke-width="1" stroke="black" d="M 122 181 299 163"/>
<path stroke-width="1" stroke="black" d="M 122 181 345 169"/>
<path stroke-width="1" stroke="black" d="M 122 181 158 239"/>
<path stroke-width="1" stroke="black" d="M 122 181 210 112"/>
<path stroke-width="1" stroke="black" d="M 122 181 274 251"/>
<path stroke-width="1" stroke="black" d="M 122 181 255 111"/>
<path stroke-width="1" stroke="black" d="M 210 112 293 223"/>
<path stroke-width="1" stroke="black" d="M 329 211 217 249"/>
<path stroke-width="1" stroke="black" d="M 396 250 329 211"/>
<path stroke-width="1" stroke="black" d="M 210 112 169 124"/>
<path stroke-width="1" stroke="black" d="M 210 112 152 203"/>
<path stroke-width="1" stroke="black" d="M 210 112 232 168"/>
<path stroke-width="1" stroke="black" d="M 210 112 299 163"/>
<path stroke-width="1" stroke="black" d="M 210 112 345 169"/>
<path stroke-width="1" stroke="black" d="M 210 112 158 239"/>
<path stroke-width="1" stroke="black" d="M 210 112 194 45"/>
<path stroke-width="1" stroke="black" d="M 210 112 274 251"/>
<path stroke-width="1" stroke="black" d="M 210 112 329 211"/>
<path stroke-width="1" stroke="black" d="M 210 112 122 181"/>
<path stroke-width="1" stroke="black" d="M 293 319 274 251"/>
<path stroke-width="1" stroke="black" d="M 274 251 255 111"/>
<path stroke-width="1" stroke="black" d="M 329 211 255 111"/>
<path stroke-width="1" stroke="black" d="M 274 251 217 249"/>
<path stroke-width="1" stroke="black" d="M 274 251 293 223"/>
<path stroke-width="1" stroke="black" d="M 274 251 139 150"/>
<path stroke-width="1" stroke="black" d="M 274 251 169 124"/>
<path stroke-width="1" stroke="black" d="M 274 251 152 203"/>
<path stroke-width="1" stroke="black" d="M 274 251 232 168"/>
<path stroke-width="1" stroke="black" d="M 274 251 299 163"/>
<path stroke-width="1" stroke="black" d="M 274 251 345 169"/>
<path stroke-width="1" stroke="black" d="M 274 251 158 239"/>
<path stroke-width="1" stroke="black" d="M 274 251 210 112"/>
<path stroke-width="1" stroke="black" d="M 274 251 293 319"/>
<path stroke-width="1" stroke="black" d="M 274 251 329 211"/>
<path stroke-width="1" stroke="black" d="M 274 251 122 181"/>
<path stroke-width="1" stroke="black" d="M 274 251 301 123"/>
<path stroke-width="1" stroke="black" d="M 232 168 210 194"/>
<path stroke-width="1" stroke="black" d="M 232 168 152 203"/>
<path stroke-width="1" stroke="black" d="M 232 168 169 124"/>
<path stroke-width="1" stroke="black" d="M 217 249 122 181"/>
<path stroke-width="1" stroke="black" d="M 343 65 301 123"/>
<path stroke-width="1" stroke="black" d="M 301 123 255 111"/>
<path stroke-width="1" stroke="black" d="M 301 123 217 249"/>
<path stroke-width="1" stroke="black" d="M 301 123 343 65"/>
<path stroke-width="1" stroke="black" d="M 301 123 293 223"/>
<path stroke-width="1" stroke="black" d="M 301 123 139 150"/>
<path stroke-width="1" stroke="black" d="M 301 123 169 124"/>
<path stroke-width="1" stroke="black" d="M 301 123 152 203"/>
<path stroke-width="1" stroke="black" d="M 301 123 232 168"/>
<path stroke-width="1" stroke="black" d="M 301 123 299 163"/>
<path stroke-width="1" stroke="black" d="M 301 123 345 169"/>
<path stroke-width="1" stroke="black" d="M 217 249 329 211"/>
<path stroke-width="1" stroke="black" d="M 301 123 158 239"/>
<path stroke-width="1" stroke="black" d="M 301 123 274 251"/>
<path stroke-width="1" stroke="black" d="M 301 123 329 211"/>
<path stroke-width="1" stroke="black" d="M 301 123 122 181"/>
<path stroke-width="1" stroke="black" d="M 334 280 293 223"/>
<path stroke-width="1" stroke="black" d="M 293 223 255 111"/>
<path stroke-width="1" stroke="black" d="M 293 223 217 249"/>
<path stroke-width="1" stroke="black" d="M 293 223 301 123"/>
<path stroke-width="1" stroke="black" d="M 293 223 334 280"/>
<path stroke-width="1" stroke="black" d="M 293 223 139 150"/>
<path stroke-width="1" stroke="black" d="M 293 223 169 124"/>
<path stroke-width="1" stroke="black" d="M 293 223 152 203"/>
<path stroke-width="1" stroke="black" d="M 293 223 232 168"/>
<path stroke-width="1" stroke="black" d="M 301 123 210 112"/>
<path stroke-width="1" stroke="black" d="M 293 223 299 163"/>
<path stroke-width="1" stroke="black" d="M 217 249 274 251"/>
<path stroke-width="1" stroke="black" d="M 217 249 158 239"/>
<path stroke-width="1" stroke="black" d="M 255 111 286 20"/>
<path stroke-width="1" stroke="black" d="M 255 111 217 249"/>
<path stroke-width="1" stroke="black" d="M 255 111 301 123"/>
<path stroke-width="1" stroke="black" d="M 255 111 293 223"/>
<path stroke-width="1" stroke="black" d="M 255 111 139 150"/>
<path stroke-width="1" stroke="black" d="M 255 111 169 124"/>
<path stroke-width="1" stroke="black" d="M 255 111 152 203"/>
<path stroke-width="1" stroke="black" d="M 255 111 232 168"/>
<path stroke-width="1" stroke="black" d="M 255 111 299 163"/>
<path stroke-width="1" stroke="black" d="M 255 111 345 169"/>
<path stroke-width="1" stroke="black" d="M 255 111 158 239"/>
<path stroke-width="1" stroke="black" d="M 255 111 210 112"/>
<path stroke-width="1" stroke="black" d="M 217 249 210 112"/>
<path stroke-width="1" stroke="black" d="M 255 111 274 251"/>
<path stroke-width="1" stroke="black" d="M 255 111 122 181"/>
<path stroke-width="1" stroke="black" d="M 208 320 217 249"/>
<path stroke-width="1" stroke="black" d="M 217 249 255 111"/>
<path stroke-width="1" stroke="black" d="M 217 249 208 320"/>
<path stroke-width="1" stroke="black" d="M 217 249 301 123"/>
<path stroke-width="1" stroke="black" d="M 217 249 293 223"/>
<path stroke-width="1" stroke="black" d="M 217 249 139 150"/>
<path stroke-width="1" stroke="black" d="M 217 249 169 124"/>
<path stroke-width="1" stroke="black" d="M 217 249 152 203"/>
<path stroke-width="1" stroke="black" d="M 217 249 232 168"/>
<path stroke-width="1" stroke="black" d="M 217 249 299 163"/>
<path stroke-width="1" stroke="black" d="M 217 249 345 169"/>
<path stroke-width="1" stroke="black" d="M 255 111 329 211"/>
<path stroke-width="1" stroke="black" d="M 293 223 345 169"/>
<path stroke-width="1" stroke="black" d="M 293 223 158 239"/>
<path stroke-width="1" stroke="black" d="M 293 223 210 112"/>
<path stroke-width="1" stroke="black" d="M 169 124 210 112"/>
<path stroke-width="1" stroke="black" d="M 169 124 274 251"/>
<path stroke-width="1" stroke="black" d="M 169 124 329 211"/>
<path stroke-width="1" stroke="black" d="M 169 124 122 181"/>
<path stroke-width="1" stroke="black" d="M 78 232 152 203"/>
<path stroke-width="1" stroke="black" d="M 152 203 255 111"/>
<path stroke-width="1" stroke="black" d="M 152 203 217 249"/>
<path stroke-width="1" stroke="black" d="M 152 203 301 123"/>
<path stroke-width="1" stroke="black" d="M 152 203 293 223"/>
<path stroke-width="1" stroke="black" d="M 152 203 139 150"/>
<path stroke-width="1" stroke="black" d="M 152 203 169 124"/>
<path stroke-width="1" stroke="black" d="M 152 203 78 232"/>
<path stroke-width="1" stroke="black" d="M 169 124 158 239"/>
<path stroke-width="1" stroke="black" d="M 152 203 232 168"/>
<path stroke-width="1" stroke="black" d="M 152 203 345 169"/>
<path stroke-width="1" stroke="black" d="M 152 203 158 239"/>
<path stroke-width="1" stroke="black" d="M 152 203 210 112"/>
<path stroke-width="1" stroke="black" d="M 152 203 274 251"/>
<path stroke-width="1" stroke="black" d="M 152 203 329 211"/>
<path stroke-width="1" stroke="black" d="M 152 203 122 181"/>
<path stroke-width="1" stroke="black" d="M 210 194 232 168"/>
<path stroke-width="1" stroke="black" d="M 232 168 255 111"/>
<path stroke-width="1" stroke="black" d="M 232 168 217 249"/>
<path stroke-width="1" stroke="black" d="M 232 168 301 123"/>
<path stroke-width="1" stroke="black" d="M 232 168 293 223"/>
<path stroke-width="1" stroke="black" d="M 232 168 139 150"/>
<path stroke-width="1" stroke="black" d="M 152 203 299 163"/>
<path stroke-width="1" stroke="black" d="M 169 124 345 169"/>
<path stroke-width="1" stroke="black" d="M 169 124 299 163"/>
<path stroke-width="1" stroke="black" d="M 169 124 232 168"/>
<path stroke-width="1" stroke="black" d="M 293 223 274 251"/>
<path stroke-width="1" stroke="black" d="M 293 223 329 211"/>
<path stroke-width="1" stroke="black" d="M 293 223 122 181"/>
<path stroke-width="1" stroke="black" d="M 73 116 139 150"/>
<path stroke-width="1" stroke="black" d="M 139 150 255 111"/>
<path stroke-width="1" stroke="black" d="M 139 150 217 249"/>
<path stroke-width="1" stroke="black" d="M 139 150 301 123"/>
<path stroke-width="1" stroke="black" d="M 139 150 293 223"/>
<path stroke-width="1" stroke="black" d="M 139 150 73 116"/>
<path stroke-width="1" stroke="black" d="M 139 150 169 124"/>
<path stroke-width="1" stroke="black" d="M 139 150 152 203"/>
<path stroke-width="1" stroke="black" d="M 139 150 232 168"/>
<path stroke-width="1" stroke="black" d="M 139 150 299 163"/>
<path stroke-width="1" stroke="black" d="M 139 150 345 169"/>
<path stroke-width="1" stroke="black" d="M 139 150 158 239"/>
<path stroke-width="1" stroke="black" d="M 139 150 210 112"/>
<path stroke-width="1" stroke="black" d="M 139 150 274 251"/>
<path stroke-width="1" stroke="black" d="M 139 150 329 211"/>
<path stroke-width="1" stroke="black" d="M 139 150 122 181"/>
<path stroke-width="1" stroke="black" d="M 122 67 169 124"/>
<path stroke-width="1" stroke="black" d="M 169 124 255 111"/>
<path stroke-width="1" stroke="black" d="M 169 124 217 249"/>
<path stroke-width="1" stroke="black" d="M 169 124 301 123"/>
<path stroke-width="1" stroke="black" d="M 169 124 293 223"/>
<path stroke-width="1" stroke="black" d="M 169 124 139 150"/>
<path stroke-width="1" stroke="black" d="M 169 124 122 67"/>
<path stroke-width="1" stroke="black" d="M 169 124 152 203"/>
<path stroke-width="1" stroke="black" d="M 122 181 329 211"/>
<path stroke-width="1" stroke="black" d="M 122 181 20 184"/>
<circle cx="286" cy="20" r="7.0" style="fill:gray;stroke:black;stroke-width:1.0"/>
<circle cx="255" cy="111" r="7.0" style="fill:gray;stroke:black;stroke-width:1.0"/>
<circle cx="208" cy="320" r="7.0" style="fill:gray;stroke:black;stroke-width:1.0"/>
<circle cx="217" cy="249" r="7.0" style="fill:gray;stroke:black;stroke-width:1.0"/>
<circle cx="343" cy="65" r="7.0" style="fill:gray;stroke:black;stroke-width:1.0"/>
<circle cx="301" cy="123" r="7.0" style="fill:gray;stroke:black;stroke-width:1.0"/>
<circle cx="334" cy="280" r="7.0" style="fill:gray;stroke:black;stroke-width:1.0"/>
<circle cx="293" cy="223" r="7.0" style="fill:gray;stroke:black;stroke-width:1.0"/>
<circle cx="73" cy="116" r="7.0" style="fill:gray;stroke:black;stroke-width:1.0"/>
<circle cx="139" cy="150" r="7.0" style="fill:gray;stroke:black;stroke-width:1.0"/>
<circle cx="122" cy="67" r="7.0" style="fill:gray;stroke:black;stroke-width:1.0"/>
<circle cx="169" cy="124" r="7.0" style="fill:gray;stroke:black;stroke-width:1.0"/>
<circle cx="78" cy="232" r="7.0" style="fill:gray;stroke:black;stroke-width:1.0"/>
<circle cx="152" cy="203" r="7.0" style="fill:gray;stroke:black;stroke-width:1.0"/>
<circle cx="210" cy="194" r="7.0" style="fill:gray;stroke:black;stroke-width:1.0"/>
<circle cx="232" cy="168" r="7.0" style="fill:gray;stroke:black;stroke-width:1.0"/>
<circle cx="377" cy="136" r="7.0" style="fill:gray;stroke:black;stroke-width:1.0"/>
<circle cx="299" cy="163" r="7.0" style="fill:gray;stroke:black;stroke-width:1.0"/>
<circle cx="420" cy="157" r="7.0" style="fill:gray;stroke:black;stroke-width:1.0"/>
<circle cx="345" cy="169" r="7.0" style="fill:gray;stroke:black;stroke-width:1.0"/>
<circle cx="118" cy="294" r="7.0" style="fill:gray;stroke:black;stroke-width:1.0"/>
<circle cx="158" cy="239" r="7.0" style="fill:gray;stroke:black;stroke-width:1.0"/>
<circle cx="194" cy="45" r="7.0" style="fill:gray;stroke:black;stroke-width:1.0"/>
<circle cx="210" cy="112" r="7.0" style="fill:gray;stroke:black;stroke-width:1.0"/>
<circle cx="293" cy="319" r="7.0" style="fill:gray;stroke:black;stroke-width:1.0"/>
<circle cx="274" cy="251" r="7.0" style="fill:gray;stroke:black;stroke-width:1.0"/>
<circle cx="396" cy="250" r="7.0" style="fill:gray;stroke:black;stroke-width:1.0"/>
<circle cx="329" cy="211" r="7.0" style="fill:gray;stroke:black;stroke-width:1.0"/>
<circle cx="20" cy="184" r="7.0" style="fill:gray;stroke:black;stroke-width:1.0"/>
<circle cx="122" cy="181" r="7.0" style="fill:gray;stroke:black;stroke-width:1.0"/>
</svg>
