<svg width="440" height="340" xmlns="http://www.w3.org/2000/svg">
<path stroke-width="11.333333333333334" stroke="black" d="M 320 320 264 245"/>
<path stroke-width="0.5" stroke="black" d="M 175 115 148 165"/>
<path stroke-width="0.5" stroke="black" d="M 175 115 219 243"/>
<path stroke-width="20.0" stroke="black" d="M 175 115 102 74"/>
<path stroke-width="0.5" stroke="black" d="M 175 115 293 224"/>
<path stroke-width="0.5" stroke="black" d="M 175 115 329 198"/>
<path stroke-width="0.5" stroke="black" d="M 175 115 245 80"/>
<path stroke-width="0.5" stroke="black" d="M 175 115 329 144"/>
<path stroke-width="0.5" stroke="black" d="M 175 115 139 133"/>
<path stroke-width="20.0" stroke="black" d="M 359 260 293 224"/>
<path stroke-width="0.5" stroke="black" d="M 293 224 264 245"/>
<path stroke-width="0.5" stroke="black" d="M 293 224 145 199"/>
<path stroke-width="0.5" stroke="black" d="M 293 224 304 113"/>
<path stroke-width="0.5" stroke="black" d="M 175 115 269 101"/>
<path stroke-width="0.5" stroke="black" d="M 293 224 226 171"/>
<path stroke-width="0.5" stroke="black" d="M 293 224 200 86"/>
<path stroke-width="0.5" stroke="black" d="M 293 224 269 101"/>
<path stroke-width="0.5" stroke="black" d="M 293 224 148 165"/>
<path stroke-width="0.5" stroke="black" d="M 293 224 219 243"/>
<path stroke-width="0.5" stroke="black" d="M 293 224 175 115"/>
<path stroke-width="20.0" stroke="black" d="M 293 224 359 260"/>
<path stroke-width="0.5" stroke="black" d="M 293 224 329 198"/>
<path stroke-width="0.5" stroke="black" d="M 293 224 245 80"/>
<path stroke-width="0.5" stroke="black" d="M 293 224 329 144"/>
<path stroke-width="0.5" stroke="black" d="M 293 224 139 133"/>
<path stroke-width="20.0" stroke="black" d="M 414 217 329 198"/>
<path stroke-width="0.5" stroke="black" d="M 329 198 264 245"/>
<path stroke-width="0.5" stroke="black" d="M 293 224 170 230"/>
<path stroke-width="0.5" stroke="black" d="M 329 198 145 199"/>
<path stroke-width="0.5" stroke="black" d="M 175 115 200 86"/>
<path stroke-width="0.5" stroke="black" d="M 175 115 226 171"/>
<path stroke-width="0.5" stroke="black" d="M 148 165 175 115"/>
<path stroke-width="0.5" stroke="black" d="M 148 165 293 224"/>
<path stroke-width="0.5" stroke="black" d="M 148 165 329 198"/>
<path stroke-width="0.5" stroke="black" d="M 148 165 245 80"/>
<path stroke-width="0.5" stroke="black" d="M 148 165 329 144"/>
<path stroke-width="0.5" stroke="black" d="M 148 165 139 133"/>
<path stroke-width="20.0" stroke="black" d="M 214 308 219 243"/>
<path stroke-width="0.5" stroke="black" d="M 219 243 264 245"/>
<path stroke-width="0.5" stroke="black" d="M 219 243 145 199"/>
<path stroke-width="0.5" stroke="black" d="M 219 243 304 113"/>
<path stroke-width="0.5" stroke="black" d="M 219 243 226 171"/>
<path stroke-width="0.5" stroke="black" d="M 219 243 170 230"/>
<path stroke-width="0.5" stroke="black" d="M 175 115 170 230"/>
<path stroke-width="0.5" stroke="black" d="M 219 243 200 86"/>
<path stroke-width="0.5" stroke="black" d="M 219 243 148 165"/>
<path stroke-width="20.0" stroke="black" d="M 219 243 214 308"/>
<path stroke-width="0.5" stroke="black" d="M 219 243 175 115"/>
<path stroke-width="0.5" stroke="black" d="M 219 243 293 224"/>
<path stroke-width="0.5" stroke="black" d="M 219 243 329 198"/>
<path stroke-width="0.5" stroke="black" d="M 219 243 245 80"/>
<path stroke-width="0.5" stroke="black" d="M 219 243 329 144"/>
<path stroke-width="0.5" stroke="black" d="M 219 243 139 133"/>
<path stroke-width="20.0" stroke="black" d="M 102 74 175 115"/>
<path stroke-width="0.5" stroke="black" d="M 175 115 264 245"/>
<path stroke-width="0.5" stroke="black" d="M 175 115 145 199"/>
<path stroke-width="0.5" stroke="black" d="M 175 115 304 113"/>
<path stroke-width="0.5" stroke="black" d="M 219 243 269 101"/>
<path stroke-width="0.5" stroke="black" d="M 148 165 219 243"/>
<path stroke-width="0.5" stroke="black" d="M 329 198 304 113"/>
<path stroke-width="0.5" stroke="black" d="M 329 198 170 230"/>
<path stroke-width="0.5" stroke="black" d="M 329 144 226 171"/>
<path stroke-width="0.5" stroke="black" d="M 329 144 170 230"/>
<path stroke-width="0.5" stroke="black" d="M 329 144 200 86"/>
<path stroke-width="0.5" stroke="black" d="M 329 144 269 101"/>
<path stroke-width="0.5" stroke="black" d="M 329 144 148 165"/>
<path stroke-width="0.5" stroke="black" d="M 329 144 219 243"/>
<path stroke-width="0.5" stroke="black" d="M 329 144 175 115"/>
<path stroke-width="0.5" stroke="black" d="M 329 144 293 224"/>
<path stroke-width="0.5" stroke="black" d="M 329 144 329 198"/>
<path stroke-width="0.5" stroke="black" d="M 329 144 245 80"/>
<path stroke-width="20.0" stroke="black" d="M 329 144 420 128"/>
<path stroke-width="0.5" stroke="black" d="M 329 144 139 133"/>
<path stroke-width="0.5" stroke="black" d="M 329 144 304 113"/>
<path stroke-width="11.333333333333334" stroke="black" d="M 20 102 139 133"/>
<path stroke-width="0.5" stroke="black" d="M 139 133 145 199"/>
<path stroke-width="0.5" stroke="black" d="M 139 133 304 113"/>
<path stroke-width="0.5" stroke="black" d="M 139 133 226 171"/>
<path stroke-width="0.5" stroke="black" d="M 139 133 170 230"/>
<path stroke-width="0.5" stroke="black" d="M 139 133 200 86"/>
<path stroke-width="0.5" stroke="black" d="M 139 133 269 101"/>
<path stroke-width="0.5" stroke="black" d="M 139 133 148 165"/>
<path stroke-width="0.5" stroke="black" d="M 139 133 219 243"/>
<path stroke-width="0.5" stroke="black" d="M 139 133 175 115"/>
<path stroke-width="0.5" stroke="black" d="M 139 133 293 224"/>
<path stroke-width="0.5" stroke="black" d="M 139 133 329 198"/>
<path stroke-width="0.5" stroke="black" d="M 139 133 245 80"/>
<path stroke-width="0.5" stroke="black" d="M 139 133 264 245"/>
<path stroke-width="0.5" stroke="black" d="M 329 198 226 171"/>
<path stroke-width="0.5" stroke="black" d="M 329 144 145 199"/>
<path stroke-width="20.0" stroke="black" d="M 420 128 329 144"/>
<path stroke-width="0.5" stroke="black" d="M 329 198 200 86"/>
<path stroke-width="0.5" stroke="black" d="M 329 198 269 101"/>
<path stroke-width="0.5" stroke="black" d="M 329 198 148 165"/>
<path stroke-width="0.5" stroke="black" d="M 329 198 219 243"/>
<path stroke-width="0.5" stroke="black" d="M 329 198 175 115"/>
<path stroke-width="0.5" stroke="black" d="M 329 198 293 224"/>
<path stroke-width="20.0" stroke="black" d="M 329 198 414 217"/>
<path stroke-width="0.5" stroke="black" d="M 329 198 245 80"/>
<path stroke-width="0.5" stroke="black" d="M 329 198 329 144"/>
<path stroke-width="0.5" stroke="black" d="M 329 198 139 133"/>
<path stroke-width="20.0" stroke="black" d="M 254 20 245 80"/>
<path stroke-width="0.5" stroke="black" d="M 245 80 264 245"/>
<path stroke-width="0.5" stroke="black" d="M 329 144 264 245"/>
<path stroke-width="0.5" stroke="black" d="M 245 80 145 199"/>
<path stroke-width="0.5" stroke="black" d="M 245 80 226 171"/>
<path stroke-width="0.5" stroke="black" d="M 245 80 170 230"/>
<path stroke-width="0.5" stroke="black" d="M 245 80 200 86"/>
<path stroke-width="0.5" stroke="black" d="M 245 80 269 101"/>
<path stroke-width="0.5" stroke="black" d="M 245 80 148 165"/>
<path stroke-width="0.5" stroke="black" d="M 245 80 219 243"/>
<path stroke-width="0.5" stroke="black" d="M 245 80 175 115"/>
<path stroke-width="0.5" stroke="black" d="M 245 80 293 224"/>
<path stroke-width="0.5" stroke="black" d="M 245 80 329 198"/>
<path stroke-width="20.0" stroke="black" d="M 245 80 254 20"/>
<path stroke-width="0.5" stroke="black" d="M 245 80 329 144"/>
<path stroke-width="0.5" stroke="black" d="M 245 80 139 133"/>
<path stroke-width="0.5" stroke="black" d="M 245 80 304 113"/>
<path stroke-width="20.0" stroke="black" d="M 148 165 58 158"/>
<path stroke-width="0.5" stroke="black" d="M 148 165 269 101"/>
<path stroke-width="0.5" stroke="black" d="M 148 165 200 86"/>
<path stroke-width="0.5" stroke="black" d="M 145 199 139 133"/>
<path stroke-width="20.0" stroke="black" d="M 373 76 304 113"/>
<path stroke-width="0.5" stroke="black" d="M 304 113 264 245"/>
<path stroke-width="0.5" stroke="black" d="M 304 113 145 199"/>
<path stroke-width="20.0" stroke="black" d="M 304 113 373 76"/>
<path stroke-width="0.5" stroke="black" d="M 304 113 226 171"/>
<path stroke-width="0.5" stroke="black" d="M 304 113 170 230"/>
<path stroke-width="0.5" stroke="black" d="M 304 113 200 86"/>
<path stroke-width="0.5" stroke="black" d="M 304 113 269 101"/>
<path stroke-width="0.5" stroke="black" d="M 304 113 148 165"/>
<path stroke-width="0.5" stroke="black" d="M 304 113 219 243"/>
<path stroke-width="0.5" stroke="black" d="M 304 113 175 115"/>
<path stroke-width="0.5" stroke="black" d="M 145 199 329 144"/>
<path stroke-width="0.5" stroke="black" d="M 304 113 293 224"/>
<path stroke-width="0.5" stroke="black" d="M 304 113 245 80"/>
<path stroke-width="0.5" stroke="black" d="M 304 113 329 144"/>
<path stroke-width="0.5" stroke="black" d="M 304 113 139 133"/>
<path stroke-width="20.0" stroke="black" d="M 269 187 226 171"/>
<path stroke-width="0.5" stroke="black" d="M 226 171 264 245"/>
<path stroke-width="0.5" stroke="black" d="M 226 171 145 199"/>
<path stroke-width="0.5" stroke="black" d="M 226 171 304 113"/>
<path stroke-width="20.0" stroke="black" d="M 226 171 269 187"/>
<path stroke-width="0.5" stroke="black" d="M 226 171 170 230"/>
<path stroke-width="0.5" stroke="black" d="M 226 171 200 86"/>
<path stroke-width="0.5" stroke="black" d="M 226 171 269 101"/>
<path stroke-width="0.5" stroke="black" d="M 226 171 148 165"/>
<path stroke-width="0.5" stroke="black" d="M 304 113 329 198"/>
<path stroke-width="0.5" stroke="black" d="M 226 171 219 243"/>
<path stroke-width="0.5" stroke="black" d="M 145 199 245 80"/>
<path stroke-width="0.5" stroke="black" d="M 145 199 293 224"/>
<path stroke-width="11.333333333333334" stroke="black" d="M 264 245 320 320"/>
<path stroke-width="0.5" stroke="black" d="M 264 245 145 199"/>
<path stroke-width="0.5" stroke="black" d="M 264 245 304 113"/>
<path stroke-width="0.5" stroke="black" d="M 264 245 226 171"/>
<path stroke-width="0.5" stroke="black" d="M 264 245 170 230"/>
<path stroke-width="0.5" stroke="black" d="M 264 245 200 86"/>
<path stroke-width="0.5" stroke="black" d="M 264 245 269 101"/>
<path stroke-width="0.5" stroke="black" d="M 264 245 148 165"/>
<path stroke-width="0.5" stroke="black" d="M 264 245 219 243"/>
<path stroke-width="0.5" stroke="black" d="M 264 245 175 115"/>
<path stroke-width="0.5" stroke="black" d="M 264 245 293 224"/>
<path stroke-width="0.5" stroke="black" d="M 264 245 329 198"/>
<path stroke-width="0.5" stroke="black" d="M 145 199 329 198"/>
<path stroke-width="0.5" stroke="black" d="M 264 245 245 80"/>
<path stroke-width="0.5" stroke="black" d="M 264 245 139 133"/>
<path stroke-width="20.0" stroke="black" d="M 61 223 145 199"/>
<path stroke-width="0.5" stroke="black" d="M 145 199 264 245"/>
<path stroke-width="20.0" stroke="black" d="M 145 199 61 223"/>
<path stroke-width="0.5" stroke="black" d="M 145 199 304 113"/>
<path stroke-width="0.5" stroke="black" d="M 145 199 226 171"/>
<path stroke-width="0.5" stroke="black" d="M 145 199 170 230"/>
<path stroke-width="0.5" stroke="black" d="M 145 199 200 86"/>
<path stroke-width="0.5" stroke="black" d="M 145 199 269 101"/>
<path stroke-width="0.5" stroke="black" d="M 145 199 148 165"/>
<path stroke-width="0.5" stroke="black" d="M 145 199 219 243"/>
<path stroke-width="0.5" stroke="black" d="M 145 199 175 115"/>
<path stroke-width="0.5" stroke="black" d="M 264 245 329 144"/>
<path stroke-width="0.5" stroke="black" d="M 226 171 175 115"/>
<path stroke-width="0.5" stroke="black" d="M 226 171 293 224"/>
<path stroke-width="0.5" stroke="black" d="M 226 171 329 198"/>
<path stroke-width="0.5" stroke="black" d="M 200 86 329 198"/>
<path stroke-width="0.5" stroke="black" d="M 200 86 245 80"/>
<path stroke-width="0.5" stroke="black" d="M 200 86 329 144"/>
<path stroke-width="0.5" stroke="black" d="M 200 86 139 133"/>
<path stroke-width="20.0" stroke="black" d="M 312 46 269 101"/>
<path stroke-width="0.5" stroke="black" d="M 269 101 264 245"/>
<path stroke-width="0.5" stroke="black" d="M 269 101 145 199"/>
<path stroke-width="0.5" stroke="black" d="M 269 101 304 113"/>
<path stroke-width="0.5" stroke="black" d="M 269 101 226 171"/>
<path stroke-width="0.5" stroke="black" d="M 269 101 170 230"/>
<path stroke-width="0.5" stroke="black" d="M 269 101 200 86"/>
<path stroke-width="20.0" stroke="black" d="M 269 101 312 46"/>
<path stroke-width="0.5" stroke="black" d="M 200 86 293 224"/>
<path stroke-width="0.5" stroke="black" d="M 269 101 148 165"/>
<path stroke-width="0.5" stroke="black" d="M 269 101 175 115"/>
<path stroke-width="0.5" stroke="black" d="M 269 101 293 224"/>
<path stroke-width="0.5" stroke="black" d="M 269 101 329 198"/>
<path stroke-width="0.5" stroke="black" d="M 269 101 245 80"/>
<path stroke-width="0.5" stroke="black" d="M 269 101 329 144"/>
<path stroke-width="0.5" stroke="black" d="M 269 101 139 133"/>
<path stroke-width="20.0" stroke="black" d="M 58 158 148 165"/>
<path stroke-width="0.5" stroke="black" d="M 148 165 264 245"/>
<path stroke-width="0.5" stroke="black" d="M 148 165 145 199"/>
<path stroke-width="0.5" stroke="black" d="M 148 165 304 113"/>
<path stroke-width="0.5" stroke="black" d="M 148 165 226 171"/>
<path stroke-width="0.5" stroke="black" d="M 148 165 170 230"/>
<path stroke-width="0.5" stroke="black" d="M 269 101 219 243"/>
<path stroke-width="0.5" stroke="black" d="M 200 86 175 115"/>
<path stroke-width="0.5" stroke="black" d="M 200 86 219 243"/>
<path stroke-width="0.5" stroke="black" d="M 200 86 148 165"/>
<path stroke-width="0.5" stroke="black" d="M 226 171 245 80"/>
<path stroke-width="0.5" stroke="black" d="M 226 171 329 144"/>
<path stroke-width="0.5" stroke="black" d="M 226 171 139 133"/>
<path stroke-width="20.0" stroke="black" d="M 109 279 170 230"/>
<path stroke-width="0.5" stroke="black" d="M 170 230 264 245"/>
<path stroke-width="0.5" stroke="black" d="M 170 230 145 199"/>
<path stroke-width="0.5" stroke="black" d="M 170 230 304 113"/>
<path stroke-width="0.5" stroke="black" d="M 170 230 226 171"/>
<path stroke-width="20.0" stroke="black" d="M 170 230 109 279"/>
<path stroke-width="0.5" stroke="black" d="M 170 230 200 86"/>
<path stroke-width="0.5" stroke="black" d="M 170 230 269 101"/>
<path stroke-width="0.5" stroke="black" d="M 170 230 148 165"/>
<path stroke-width="0.5" stroke="black" d="M 170 230 219 243"/>
<path stroke-width="0.5" stroke="black" d="M 170 230 175 115"/>
<path stroke-width="0.5" stroke="black" d="M 170 230 293 224"/>
<path stroke-width="0.5" stroke="black" d="M 170 230 329 198"/>
<path stroke-width="0.5" stroke="black" d="M 170 230 245 80"/>
<path stroke-width="0.5" stroke="black" d="M 170 230 329 144"/>
<path stroke-width="0.5" stroke="black" d="M 170 230 139 133"/>
<path stroke-width="20.0" stroke="black" d="M 164 27 200 86"/>
<path stroke-width="0.5" stroke="black" d="M 200 86 264 245"/>
<path stroke-width="0.5" stroke="black" d="M 200 86 145 199"/>
<path stroke-width="0.5" stroke="black" d="M 200 86 304 113"/>
<path stroke-width="0.5" stroke="black" d="M 200 86 226 171"/>
<path stroke-width="0.5" stroke="black" d="M 200 86 170 230"/>
<path stroke-width="20.0" stroke="black" d="M 200 86 164 27"/>
<path stroke-width="0.5" stroke="black" d="M 200 86 269 101"/>
<path stroke-width="0.5" stroke="black" d="M 139 133 329 144"/>
<path stroke-width="11.333333333333334" stroke="black" d="M 139 133 20 102"/>
<circle cx="320" cy="320" r="7.0" style="fill:fuchsia;stroke:black;stroke-width:1.0"/>
<circle cx="264" cy="245" r="7.0" style="fill:fuchsia;stroke:black;stroke-width:1.0"/>
<circle cx="61" cy="223" r="7.0" style="fill:fuchsia;stroke:black;stroke-width:1.0"/>
<circle cx="145" cy="199" r="7.0" style="fill:fuchsia;stroke:black;stroke-width:1.0"/>
<circle cx="373" cy="76" r="7.0" style="fill:blue;stroke:black;stroke-width:1.0"/>
<circle cx="304" cy="113" r="7.0" style="fill:blue;stroke:black;stroke-width:1.0"/>
<circle cx="269" cy="187" r="7.0" style="fill:fuchsia;stroke:black;stroke-width:1.0"/>
<circle cx="226" cy="171" r="7.0" style="fill:fuchsia;stroke:black;stroke-width:1.0"/>
<circle cx="109" cy="279" r="7.0" style="fill:red;stroke:black;stroke-width:1.0"/>
<circle cx="170" cy="230" r="7.0" style="fill:red;stroke:black;stroke-width:1.0"/>
<circle cx="164" cy="27" r="7.0" style="fill:purple;stroke:black;stroke-width:1.0"/>
<circle cx="200" cy="86" r="7.0" style="fill:purple;stroke:black;stroke-width:1.0"/>
<circle cx="312" cy="46" r="7.0" style="fill:orange;stroke:black;stroke-width:1.0"/>
<circle cx="269" cy="101" r="7.0" style="fill:orange;stroke:black;stroke-width:1.0"/>
<circle cx="58" cy="158" r="7.0" style="fill:fuchsia;stroke:black;stroke-width:1.0"/>
<circle cx="148" cy="165" r="7.0" style="fill:fuchsia;stroke:black;stroke-width:1.0"/>
<circle cx="214" cy="308" r="7.0" style="fill:fuchsia;stroke:black;stroke-width:1.0"/>
<circle cx="219" cy="243" r="7.0" style="fill:fuchsia;stroke:black;stroke-width:1.0"/>
<circle cx="102" cy="74" r="7.0" style="fill:yellow;stroke:black;stroke-width:1.0"/>
<circle cx="175" cy="115" r="7.0" style="fill:yellow;stroke:black;stroke-width:1.0"/>
<circle cx="359" cy="260" r="7.0" style="fill:fuchsia;stroke:black;stroke-width:1.0"/>
<circle cx="293" cy="224" r="7.0" style="fill:fuchsia;stroke:black;stroke-width:1.0"/>
<circle cx="414" cy="217" r="7.0" style="fill:fuchsia;stroke:black;stroke-width:1.0"/>
<circle cx="329" cy="198" r="7.0" style="fill:fuchsia;stroke:black;stroke-width:1.0"/>
<circle cx="254" cy="20" r="7.0" style="fill:green;stroke:black;stroke-width:1.0"/>
<circle cx="245" cy="80" r="7.0" style="fill:green;stroke:black;stroke-width:1.0"/>
<circle cx="420" cy="128" r="7.0" style="fill:fuchsia;stroke:black;stroke-width:1.0"/>
<circle cx="329" cy="144" r="7.0" style="fill:fuchsia;stroke:black;stroke-width:1.0"/>
<circle cx="20" cy="102" r="7.0" style="fill:fuchsia;stroke:black;stroke-width:1.0"/>
<circle cx="139" cy="133" r="7.0" style="fill:fuchsia;stroke:black;stroke-width:1.0"/>
</svg>
