<svg width="440" height="340" xmlns="http://www.w3.org/2000/svg">
<path stroke-width="1" stroke="black" d="M 20 168 138 164"/>
<path stroke-width="1" stroke="black" d="M 154 209 155 133"/>
<path stroke-width="1" stroke="black" d="M 154 209 294 127"/>
<path stroke-width="1" stroke="black" d="M 154 209 72 231"/>
<path stroke-width="1" stroke="black" d="M 154 209 250 81"/>
<path stroke-width="1" stroke="black" d="M 154 209 173 104"/>
<path stroke-width="1" stroke="black" d="M 154 209 270 92"/>
<path stroke-width="1" stroke="black" d="M 154 209 255 175"/>
<path stroke-width="1" stroke="black" d="M 154 209 303 172"/>
<path stroke-width="1" stroke="black" d="M 276 20 250 81"/>
<path stroke-width="1" stroke="black" d="M 250 81 138 164"/>
<path stroke-width="1" stroke="black" d="M 250 81 205 166"/>
<path stroke-width="1" stroke="black" d="M 250 81 277 215"/>
<path stroke-width="1" stroke="black" d="M 154 209 206 249"/>
<path stroke-width="1" stroke="black" d="M 250 81 176 234"/>
<path stroke-width="1" stroke="black" d="M 250 81 259 234"/>
<path stroke-width="1" stroke="black" d="M 250 81 206 249"/>
<path stroke-width="1" stroke="black" d="M 250 81 155 133"/>
<path stroke-width="1" stroke="black" d="M 250 81 294 127"/>
<path stroke-width="1" stroke="black" d="M 250 81 154 209"/>
<path stroke-width="1" stroke="black" d="M 250 81 276 20"/>
<path stroke-width="1" stroke="black" d="M 250 81 173 104"/>
<path stroke-width="1" stroke="black" d="M 250 81 270 92"/>
<path stroke-width="1" stroke="black" d="M 250 81 255 175"/>
<path stroke-width="1" stroke="black" d="M 250 81 303 172"/>
<path stroke-width="1" stroke="black" d="M 97 63 173 104"/>
<path stroke-width="1" stroke="black" d="M 173 104 138 164"/>
<path stroke-width="1" stroke="black" d="M 250 81 196 87"/>
<path stroke-width="1" stroke="black" d="M 173 104 205 166"/>
<path stroke-width="1" stroke="black" d="M 154 209 259 234"/>
<path stroke-width="1" stroke="black" d="M 154 209 176 234"/>
<path stroke-width="1" stroke="black" d="M 155 133 154 209"/>
<path stroke-width="1" stroke="black" d="M 155 133 250 81"/>
<path stroke-width="1" stroke="black" d="M 155 133 173 104"/>
<path stroke-width="1" stroke="black" d="M 155 133 270 92"/>
<path stroke-width="1" stroke="black" d="M 155 133 255 175"/>
<path stroke-width="1" stroke="black" d="M 155 133 303 172"/>
<path stroke-width="1" stroke="black" d="M 385 124 294 127"/>
<path stroke-width="1" stroke="black" d="M 294 127 138 164"/>
<path stroke-width="1" stroke="black" d="M 294 127 205 166"/>
<path stroke-width="1" stroke="black" d="M 294 127 277 215"/>
<path stroke-width="1" stroke="black" d="M 294 127 176 234"/>
<path stroke-width="1" stroke="black" d="M 294 127 196 87"/>
<path stroke-width="1" stroke="black" d="M 154 209 196 87"/>
<path stroke-width="1" stroke="black" d="M 294 127 259 234"/>
<path stroke-width="1" stroke="black" d="M 294 127 155 133"/>
<path stroke-width="1" stroke="black" d="M 294 127 385 124"/>
<path stroke-width="1" stroke="black" d="M 294 127 154 209"/>
<path stroke-width="1" stroke="black" d="M 294 127 250 81"/>
<path stroke-width="1" stroke="black" d="M 294 127 173 104"/>
<path stroke-width="1" stroke="black" d="M 294 127 270 92"/>
<path stroke-width="1" stroke="black" d="M 294 127 255 175"/>
<path stroke-width="1" stroke="black" d="M 294 127 303 172"/>
<path stroke-width="1" stroke="black" d="M 72 231 154 209"/>
<path stroke-width="1" stroke="black" d="M 154 209 138 164"/>
<path stroke-width="1" stroke="black" d="M 154 209 205 166"/>
<path stroke-width="1" stroke="black" d="M 154 209 277 215"/>
<path stroke-width="1" stroke="black" d="M 294 127 206 249"/>
<path stroke-width="1" stroke="black" d="M 155 133 294 127"/>
<path stroke-width="1" stroke="black" d="M 173 104 277 215"/>
<path stroke-width="1" stroke="black" d="M 173 104 196 87"/>
<path stroke-width="1" stroke="black" d="M 255 175 176 234"/>
<path stroke-width="1" stroke="black" d="M 255 175 196 87"/>
<path stroke-width="1" stroke="black" d="M 255 175 259 234"/>
<path stroke-width="1" stroke="black" d="M 255 175 206 249"/>
<path stroke-width="1" stroke="black" d="M 255 175 155 133"/>
<path stroke-width="1" stroke="black" d="M 255 175 294 127"/>
<path stroke-width="1" stroke="black" d="M 255 175 154 209"/>
<path stroke-width="1" stroke="black" d="M 255 175 250 81"/>
<path stroke-width="1" stroke="black" d="M 255 175 173 104"/>
<path stroke-width="1" stroke="black" d="M 255 175 270 92"/>
<path stroke-width="1" stroke="black" d="M 255 175 299 219"/>
<path stroke-width="1" stroke="black" d="M 255 175 303 172"/>
<path stroke-width="1" stroke="black" d="M 255 175 277 215"/>
<path stroke-width="1" stroke="black" d="M 420 198 303 172"/>
<path stroke-width="1" stroke="black" d="M 303 172 205 166"/>
<path stroke-width="1" stroke="black" d="M 303 172 277 215"/>
<path stroke-width="1" stroke="black" d="M 303 172 176 234"/>
<path stroke-width="1" stroke="black" d="M 303 172 196 87"/>
<path stroke-width="1" stroke="black" d="M 303 172 259 234"/>
<path stroke-width="1" stroke="black" d="M 303 172 206 249"/>
<path stroke-width="1" stroke="black" d="M 303 172 155 133"/>
<path stroke-width="1" stroke="black" d="M 303 172 294 127"/>
<path stroke-width="1" stroke="black" d="M 303 172 154 209"/>
<path stroke-width="1" stroke="black" d="M 303 172 250 81"/>
<path stroke-width="1" stroke="black" d="M 303 172 173 104"/>
<path stroke-width="1" stroke="black" d="M 303 172 270 92"/>
<path stroke-width="1" stroke="black" d="M 303 172 138 164"/>
<path stroke-width="1" stroke="black" d="M 173 104 176 234"/>
<path stroke-width="1" stroke="black" d="M 255 175 205 166"/>
<path stroke-width="1" stroke="black" d="M 299 219 255 175"/>
<path stroke-width="1" stroke="black" d="M 173 104 259 234"/>
<path stroke-width="1" stroke="black" d="M 173 104 206 249"/>
<path stroke-width="1" stroke="black" d="M 173 104 155 133"/>
<path stroke-width="1" stroke="black" d="M 173 104 294 127"/>
<path stroke-width="1" stroke="black" d="M 173 104 154 209"/>
<path stroke-width="1" stroke="black" d="M 173 104 250 81"/>
<path stroke-width="1" stroke="black" d="M 173 104 97 63"/>
<path stroke-width="1" stroke="black" d="M 173 104 270 92"/>
<path stroke-width="1" stroke="black" d="M 173 104 255 175"/>
<path stroke-width="1" stroke="black" d="M 173 104 303 172"/>
<path stroke-width="1" stroke="black" d="M 341 63 270 92"/>
<path stroke-width="1" stroke="black" d="M 270 92 138 164"/>
<path stroke-width="1" stroke="black" d="M 255 175 138 164"/>
<path stroke-width="1" stroke="black" d="M 270 92 205 166"/>
<path stroke-width="1" stroke="black" d="M 270 92 176 234"/>
<path stroke-width="1" stroke="black" d="M 270 92 196 87"/>
<path stroke-width="1" stroke="black" d="M 270 92 259 234"/>
<path stroke-width="1" stroke="black" d="M 270 92 206 249"/>
<path stroke-width="1" stroke="black" d="M 270 92 155 133"/>
<path stroke-width="1" stroke="black" d="M 270 92 294 127"/>
<path stroke-width="1" stroke="black" d="M 270 92 154 209"/>
<path stroke-width="1" stroke="black" d="M 270 92 250 81"/>
<path stroke-width="1" stroke="black" d="M 270 92 173 104"/>
<path stroke-width="1" stroke="black" d="M 270 92 341 63"/>
<path stroke-width="1" stroke="black" d="M 270 92 255 175"/>
<path stroke-width="1" stroke="black" d="M 270 92 303 172"/>
<path stroke-width="1" stroke="black" d="M 270 92 277 215"/>
<path stroke-width="1" stroke="black" d="M 155 133 64 111"/>
<path stroke-width="1" stroke="black" d="M 155 133 206 249"/>
<path stroke-width="1" stroke="black" d="M 155 133 259 234"/>
<path stroke-width="1" stroke="black" d="M 205 166 303 172"/>
<path stroke-width="1" stroke="black" d="M 365 250 277 215"/>
<path stroke-width="1" stroke="black" d="M 277 215 138 164"/>
<path stroke-width="1" stroke="black" d="M 277 215 205 166"/>
<path stroke-width="1" stroke="black" d="M 277 215 365 250"/>
<path stroke-width="1" stroke="black" d="M 277 215 176 234"/>
<path stroke-width="1" stroke="black" d="M 277 215 196 87"/>
<path stroke-width="1" stroke="black" d="M 277 215 259 234"/>
<path stroke-width="1" stroke="black" d="M 277 215 206 249"/>
<path stroke-width="1" stroke="black" d="M 277 215 155 133"/>
<path stroke-width="1" stroke="black" d="M 277 215 294 127"/>
<path stroke-width="1" stroke="black" d="M 277 215 154 209"/>
<path stroke-width="1" stroke="black" d="M 205 166 255 175"/>
<path stroke-width="1" stroke="black" d="M 277 215 250 81"/>
<path stroke-width="1" stroke="black" d="M 277 215 270 92"/>
<path stroke-width="1" stroke="black" d="M 277 215 255 175"/>
<path stroke-width="1" stroke="black" d="M 277 215 303 172"/>
<path stroke-width="1" stroke="black" d="M 105 279 176 234"/>
<path stroke-width="1" stroke="black" d="M 176 234 138 164"/>
<path stroke-width="1" stroke="black" d="M 176 234 205 166"/>
<path stroke-width="1" stroke="black" d="M 176 234 277 215"/>
<path stroke-width="1" stroke="black" d="M 176 234 105 279"/>
<path stroke-width="1" stroke="black" d="M 176 234 196 87"/>
<path stroke-width="1" stroke="black" d="M 176 234 259 234"/>
<path stroke-width="1" stroke="black" d="M 176 234 206 249"/>
<path stroke-width="1" stroke="black" d="M 176 234 155 133"/>
<path stroke-width="1" stroke="black" d="M 277 215 173 104"/>
<path stroke-width="1" stroke="black" d="M 176 234 294 127"/>
<path stroke-width="1" stroke="black" d="M 205 166 270 92"/>
<path stroke-width="1" stroke="black" d="M 205 166 250 81"/>
<path stroke-width="1" stroke="black" d="M 138 164 20 168"/>
<path stroke-width="1" stroke="black" d="M 138 164 205 166"/>
<path stroke-width="1" stroke="black" d="M 138 164 277 215"/>
<path stroke-width="1" stroke="black" d="M 138 164 176 234"/>
<path stroke-width="1" stroke="black" d="M 138 164 196 87"/>
<path stroke-width="1" stroke="black" d="M 138 164 259 234"/>
<path stroke-width="1" stroke="black" d="M 138 164 206 249"/>
<path stroke-width="1" stroke="black" d="M 138 164 155 133"/>
<path stroke-width="1" stroke="black" d="M 138 164 294 127"/>
<path stroke-width="1" stroke="black" d="M 138 164 154 209"/>
<path stroke-width="1" stroke="black" d="M 138 164 250 81"/>
<path stroke-width="1" stroke="black" d="M 138 164 173 104"/>
<path stroke-width="1" stroke="black" d="M 205 166 173 104"/>
<path stroke-width="1" stroke="black" d="M 138 164 270 92"/>
<path stroke-width="1" stroke="black" d="M 138 164 303 172"/>
<path stroke-width="1" stroke="black" d="M 158 172 205 166"/>
<path stroke-width="1" stroke="black" d="M 205 166 138 164"/>
<path stroke-width="1" stroke="black" d="M 205 166 158 172"/>
<path stroke-width="1" stroke="black" d="M 205 166 277 215"/>
<path stroke-width="1" stroke="black" d="M 205 166 176 234"/>
<path stroke-width="1" stroke="black" d="M 205 166 196 87"/>
<path stroke-width="1" stroke="black" d="M 205 166 259 234"/>
<path stroke-width="1" stroke="black" d="M 205 166 206 249"/>
<path stroke-width="1" stroke="black" d="M 205 166 155 133"/>
<path stroke-width="1" stroke="black" d="M 205 166 294 127"/>
<path stroke-width="1" stroke="black" d="M 205 166 154 209"/>
<path stroke-width="1" stroke="black" d="M 138 164 255 175"/>
<path stroke-width="1" stroke="black" d="M 176 234 154 209"/>
<path stroke-width="1" stroke="black" d="M 176 234 250 81"/>
<path stroke-width="1" stroke="black" d="M 176 234 173 104"/>
<path stroke-width="1" stroke="black" d="M 259 234 173 104"/>
<path stroke-width="1" stroke="black" d="M 259 234 270 92"/>
<path stroke-width="1" stroke="black" d="M 259 234 255 175"/>
<path stroke-width="1" stroke="black" d="M 259 234 303 172"/>
<path stroke-width="1" stroke="black" d="M 198 320 206 249"/>
<path stroke-width="1" stroke="black" d="M 206 249 138 164"/>
<path stroke-width="1" stroke="black" d="M 206 249 205 166"/>
<path stroke-width="1" stroke="black" d="M 206 249 277 215"/>
<path stroke-width="1" stroke="black" d="M 206 249 176 234"/>
<path stroke-width="1" stroke="black" d="M 206 249 196 87"/>
<path stroke-width="1" stroke="black" d="M 206 249 259 234"/>
<path stroke-width="1" stroke="black" d="M 206 249 198 320"/>
<path stroke-width="1" stroke="black" d="M 259 234 250 81"/>
<path stroke-width="1" stroke="black" d="M 206 249 155 133"/>
<path stroke-width="1" stroke="black" d="M 206 249 154 209"/>
<path stroke-width="1" stroke="black" d="M 206 249 250 81"/>
<path stroke-width="1" stroke="black" d="M 206 249 173 104"/>
<path stroke-width="1" stroke="black" d="M 206 249 270 92"/>
<path stroke-width="1" stroke="black" d="M 206 249 255 175"/>
<path stroke-width="1" stroke="black" d="M 206 249 303 172"/>
<path stroke-width="1" stroke="black" d="M 64 111 155 133"/>
<path stroke-width="1" stroke="black" d="M 155 133 138 164"/>
<path stroke-width="1" stroke="black" d="M 155 133 205 166"/>
<path stroke-width="1" stroke="black" d="M 155 133 277 215"/>
<path stroke-width="1" stroke="black" d="M 155 133 176 234"/>
<path stroke-width="1" stroke="black" d="M 155 133 196 87"/>
<path stroke-width="1" stroke="black" d="M 206 249 294 127"/>
<path stroke-width="1" stroke="black" d="M 259 234 154 209"/>
<path stroke-width="1" stroke="black" d="M 259 234 294 127"/>
<path stroke-width="1" stroke="black" d="M 259 234 155 133"/>
<path stroke-width="1" stroke="black" d="M 176 234 270 92"/>
<path stroke-width="1" stroke="black" d="M 176 234 255 175"/>
<path stroke-width="1" stroke="black" d="M 176 234 303 172"/>
<path stroke-width="1" stroke="black" d="M 161 20 196 87"/>
<path stroke-width="1" stroke="black" d="M 196 87 138 164"/>
<path stroke-width="1" stroke="black" d="M 196 87 205 166"/>
<path stroke-width="1" stroke="black" d="M 196 87 277 215"/>
<path stroke-width="1" stroke="black" d="M 196 87 176 234"/>
<path stroke-width="1" stroke="black" d="M 196 87 161 20"/>
<path stroke-width="1" stroke="black" d="M 196 87 259 234"/>
<path stroke-width="1" stroke="black" d="M 196 87 206 249"/>
<path stroke-width="1" stroke="black" d="M 196 87 155 133"/>
<path stroke-width="1" stroke="black" d="M 196 87 294 127"/>
<path stroke-width="1" stroke="black" d="M 196 87 154 209"/>
<path stroke-width="1" stroke="black" d="M 196 87 250 81"/>
<path stroke-width="1" stroke="black" d="M 196 87 173 104"/>
<path stroke-width="1" stroke="black" d="M 196 87 270 92"/>
<path stroke-width="1" stroke="black" d="M 196 87 255 175"/>
<path stroke-width="1" stroke="black" d="M 196 87 303 172"/>
<path stroke-width="1" stroke="black" d="M 315 295 259 234"/>
<path stroke-width="1" stroke="black" d="M 259 234 138 164"/>
<path stroke-width="1" stroke="black" d="M 259 234 205 166"/>
<path stroke-width="1" stroke="black" d="M 259 234 277 215"/>
<path stroke-width="1" stroke="black" d="M 259 234 176 234"/>
<path stroke-width="1" stroke="black" d="M 259 234 196 87"/>
<path stroke-width="1" stroke="black" d="M 259 234 315 295"/>
<path stroke-width="1" stroke="black" d="M 259 234 206 249"/>
<path stroke-width="1" stroke="black" d="M 303 172 255 175"/>
<path stroke-width="1" stroke="black" d="M 303 172 420 198"/>
<circle cx="20" cy="168" r="7.0" style="fill:gray;stroke:black;stroke-width:1.0"/>
<circle cx="138" cy="164" r="7.0" style="fill:gray;stroke:black;stroke-width:1.0"/>
<circle cx="158" cy="172" r="7.0" style="fill:gray;stroke:black;stroke-width:1.0"/>
<circle cx="205" cy="166" r="7.0" style="fill:gray;stroke:black;stroke-width:1.0"/>
<circle cx="365" cy="250" r="7.0" style="fill:gray;stroke:black;stroke-width:1.0"/>
<circle cx="277" cy="215" r="7.0" style="fill:gray;stroke:black;stroke-width:1.0"/>
<circle cx="105" cy="279" r="7.0" style="fill:gray;stroke:black;stroke-width:1.0"/>
<circle cx="176" cy="234" r="7.0" style="fill:gray;stroke:black;stroke-width:1.0"/>
<circle cx="161" cy="20" r="7.0" style="fill:gray;stroke:black;stroke-width:1.0"/>
<circle cx="196" cy="87" r="7.0" style="fill:gray;stroke:black;stroke-width:1.0"/>
<circle cx="315" cy="295" r="7.0" style="fill:gray;stroke:black;stroke-width:1.0"/>
<circle cx="259" cy="234" r="7.0" style="fill:gray;stroke:black;stroke-width:1.0"/>
<circle cx="198" cy="320" r="7.0" style="fill:gray;stroke:black;stroke-width:1.0"/>
<circle cx="206" cy="249" r="7.0" style="fill:gray;stroke:black;stroke-width:1.0"/>
<circle cx="64" cy="111" r="7.0" style="fill:gray;stroke:black;stroke-width:1.0"/>
<circle cx="155" cy="133" r="7.0" style="fill:gray;stroke:black;stroke-width:1.0"/>
<circle cx="385" cy="124" r="7.0" style="fill:gray;stroke:black;stroke-width:1.0"/>
<circle cx="294" cy="127" r="7.0" style="fill:gray;stroke:black;stroke-width:1.0"/>
<circle cx="72" cy="231" r="7.0" style="fill:gray;stroke:black;stroke-width:1.0"/>
<circle cx="154" cy="209" r="7.0" style="fill:gray;stroke:black;stroke-width:1.0"/>
<circle cx="276" cy="20" r="7.0" style="fill:gray;stroke:black;stroke-width:1.0"/>
<circle cx="250" cy="81" r="7.0" style="fill:gray;stroke:black;stroke-width:1.0"/>
<circle cx="97" cy="63" r="7.0" style="fill:gray;stroke:black;stroke-width:1.0"/>
<circle cx="173" cy="104" r="7.0" style="fill:gray;stroke:black;stroke-width:1.0"/>
<circle cx="341" cy="63" r="7.0" style="fill:gray;stroke:black;stroke-width:1.0"/>
<circle cx="270" cy="92" r="7.0" style="fill:gray;stroke:black;stroke-width:1.0"/>
<circle cx="299" cy="219" r="7.0" style="fill:gray;stroke:black;stroke-width:1.0"/>
<circle cx="255" cy="175" r="7.0" style="fill:gray;stroke:black;stroke-width:1.0"/>
<circle cx="420" cy="198" r="7.0" style="fill:gray;stroke:black;stroke-width:1.0"/>
<circle cx="303" cy="172" r="7.0" style="fill:gray;stroke:black;stroke-width:1.0"/>
</svg>
