<svg width="440" height="340" xmlns="http://www.w3.org/2000/svg">
<path stroke-width="1" stroke="black" d="M 217 20 217 127"/>
<path stroke-width="1" stroke="black" d="M 221 199 259 154"/>
<path stroke-width="1" stroke="black" d="M 221 199 90 222"/>
<path stroke-width="1" stroke="black" d="M 221 199 242 212"/>
<path stroke-width="1" stroke="black" d="M 221 199 311 275"/>
<path stroke-width="1" stroke="black" d="M 221 199 266 241"/>
<path stroke-width="1" stroke="black" d="M 221 199 97 191"/>
<path stroke-width="1" stroke="black" d="M 221 199 339 227"/>
<path stroke-width="1" stroke="black" d="M 221 199 333 198"/>
<path stroke-width="1" stroke="black" d="M 321 272 311 275"/>
<path stroke-width="1" stroke="black" d="M 311 275 217 127"/>
<path stroke-width="1" stroke="black" d="M 311 275 298 166"/>
<path stroke-width="1" stroke="black" d="M 311 275 189 140"/>
<path stroke-width="1" stroke="black" d="M 221 199 132 149"/>
<path stroke-width="1" stroke="black" d="M 311 275 169 263"/>
<path stroke-width="1" stroke="black" d="M 311 275 185 247"/>
<path stroke-width="1" stroke="black" d="M 311 275 132 149"/>
<path stroke-width="1" stroke="black" d="M 311 275 259 154"/>
<path stroke-width="1" stroke="black" d="M 311 275 90 222"/>
<path stroke-width="1" stroke="black" d="M 311 275 221 199"/>
<path stroke-width="1" stroke="black" d="M 311 275 321 272"/>
<path stroke-width="1" stroke="black" d="M 311 275 266 241"/>
<path stroke-width="1" stroke="black" d="M 311 275 97 191"/>
<path stroke-width="1" stroke="black" d="M 311 275 339 227"/>
<path stroke-width="1" stroke="black" d="M 311 275 333 198"/>
<path stroke-width="1" stroke="black" d="M 280 270 266 241"/>
<path stroke-width="1" stroke="black" d="M 266 241 217 127"/>
<path stroke-width="1" stroke="black" d="M 311 275 117 244"/>
<path stroke-width="1" stroke="black" d="M 266 241 298 166"/>
<path stroke-width="1" stroke="black" d="M 221 199 185 247"/>
<path stroke-width="1" stroke="black" d="M 221 199 169 263"/>
<path stroke-width="1" stroke="black" d="M 259 154 221 199"/>
<path stroke-width="1" stroke="black" d="M 259 154 311 275"/>
<path stroke-width="1" stroke="black" d="M 259 154 266 241"/>
<path stroke-width="1" stroke="black" d="M 259 154 97 191"/>
<path stroke-width="1" stroke="black" d="M 259 154 339 227"/>
<path stroke-width="1" stroke="black" d="M 259 154 333 198"/>
<path stroke-width="1" stroke="black" d="M 20 238 90 222"/>
<path stroke-width="1" stroke="black" d="M 90 222 217 127"/>
<path stroke-width="1" stroke="black" d="M 90 222 298 166"/>
<path stroke-width="1" stroke="black" d="M 90 222 189 140"/>
<path stroke-width="1" stroke="black" d="M 90 222 169 263"/>
<path stroke-width="1" stroke="black" d="M 90 222 117 244"/>
<path stroke-width="1" stroke="black" d="M 221 199 117 244"/>
<path stroke-width="1" stroke="black" d="M 90 222 185 247"/>
<path stroke-width="1" stroke="black" d="M 90 222 259 154"/>
<path stroke-width="1" stroke="black" d="M 90 222 20 238"/>
<path stroke-width="1" stroke="black" d="M 90 222 221 199"/>
<path stroke-width="1" stroke="black" d="M 90 222 311 275"/>
<path stroke-width="1" stroke="black" d="M 90 222 266 241"/>
<path stroke-width="1" stroke="black" d="M 90 222 97 191"/>
<path stroke-width="1" stroke="black" d="M 90 222 339 227"/>
<path stroke-width="1" stroke="black" d="M 90 222 333 198"/>
<path stroke-width="1" stroke="black" d="M 242 212 221 199"/>
<path stroke-width="1" stroke="black" d="M 221 199 217 127"/>
<path stroke-width="1" stroke="black" d="M 221 199 298 166"/>
<path stroke-width="1" stroke="black" d="M 221 199 189 140"/>
<path stroke-width="1" stroke="black" d="M 90 222 132 149"/>
<path stroke-width="1" stroke="black" d="M 259 154 90 222"/>
<path stroke-width="1" stroke="black" d="M 266 241 189 140"/>
<path stroke-width="1" stroke="black" d="M 266 241 117 244"/>
<path stroke-width="1" stroke="black" d="M 339 227 169 263"/>
<path stroke-width="1" stroke="black" d="M 339 227 117 244"/>
<path stroke-width="1" stroke="black" d="M 339 227 185 247"/>
<path stroke-width="1" stroke="black" d="M 339 227 132 149"/>
<path stroke-width="1" stroke="black" d="M 339 227 259 154"/>
<path stroke-width="1" stroke="black" d="M 339 227 90 222"/>
<path stroke-width="1" stroke="black" d="M 339 227 221 199"/>
<path stroke-width="1" stroke="black" d="M 339 227 311 275"/>
<path stroke-width="1" stroke="black" d="M 339 227 266 241"/>
<path stroke-width="1" stroke="black" d="M 339 227 97 191"/>
<path stroke-width="1" stroke="black" d="M 339 227 391 234"/>
<path stroke-width="1" stroke="black" d="M 339 227 333 198"/>
<path stroke-width="1" stroke="black" d="M 339 227 189 140"/>
<path stroke-width="1" stroke="black" d="M 394 197 333 198"/>
<path stroke-width="1" stroke="black" d="M 333 198 298 166"/>
<path stroke-width="1" stroke="black" d="M 333 198 189 140"/>
<path stroke-width="1" stroke="black" d="M 333 198 169 263"/>
<path stroke-width="1" stroke="black" d="M 333 198 117 244"/>
<path stroke-width="1" stroke="black" d="M 333 198 185 247"/>
<path stroke-width="1" stroke="black" d="M 333 198 132 149"/>
<path stroke-width="1" stroke="black" d="M 333 198 259 154"/>
<path stroke-width="1" stroke="black" d="M 333 198 90 222"/>
<path stroke-width="1" stroke="black" d="M 333 198 221 199"/>
<path stroke-width="1" stroke="black" d="M 333 198 311 275"/>
<path stroke-width="1" stroke="black" d="M 333 198 266 241"/>
<path stroke-width="1" stroke="black" d="M 333 198 97 191"/>
<path stroke-width="1" stroke="black" d="M 333 198 217 127"/>
<path stroke-width="1" stroke="black" d="M 266 241 169 263"/>
<path stroke-width="1" stroke="black" d="M 339 227 298 166"/>
<path stroke-width="1" stroke="black" d="M 391 234 339 227"/>
<path stroke-width="1" stroke="black" d="M 266 241 185 247"/>
<path stroke-width="1" stroke="black" d="M 266 241 132 149"/>
<path stroke-width="1" stroke="black" d="M 266 241 259 154"/>
<path stroke-width="1" stroke="black" d="M 266 241 90 222"/>
<path stroke-width="1" stroke="black" d="M 266 241 221 199"/>
<path stroke-width="1" stroke="black" d="M 266 241 311 275"/>
<path stroke-width="1" stroke="black" d="M 266 241 280 270"/>
<path stroke-width="1" stroke="black" d="M 266 241 97 191"/>
<path stroke-width="1" stroke="black" d="M 266 241 339 227"/>
<path stroke-width="1" stroke="black" d="M 266 241 333 198"/>
<path stroke-width="1" stroke="black" d="M 31 188 97 191"/>
<path stroke-width="1" stroke="black" d="M 97 191 217 127"/>
<path stroke-width="1" stroke="black" d="M 339 227 217 127"/>
<path stroke-width="1" stroke="black" d="M 97 191 298 166"/>
<path stroke-width="1" stroke="black" d="M 97 191 169 263"/>
<path stroke-width="1" stroke="black" d="M 97 191 117 244"/>
<path stroke-width="1" stroke="black" d="M 97 191 185 247"/>
<path stroke-width="1" stroke="black" d="M 97 191 132 149"/>
<path stroke-width="1" stroke="black" d="M 97 191 259 154"/>
<path stroke-width="1" stroke="black" d="M 97 191 90 222"/>
<path stroke-width="1" stroke="black" d="M 97 191 221 199"/>
<path stroke-width="1" stroke="black" d="M 97 191 311 275"/>
<path stroke-width="1" stroke="black" d="M 97 191 266 241"/>
<path stroke-width="1" stroke="black" d="M 97 191 31 188"/>
<path stroke-width="1" stroke="black" d="M 97 191 339 227"/>
<path stroke-width="1" stroke="black" d="M 97 191 333 198"/>
<path stroke-width="1" stroke="black" d="M 97 191 189 140"/>
<path stroke-width="1" stroke="black" d="M 259 154 311 125"/>
<path stroke-width="1" stroke="black" d="M 259 154 132 149"/>
<path stroke-width="1" stroke="black" d="M 259 154 185 247"/>
<path stroke-width="1" stroke="black" d="M 298 166 333 198"/>
<path stroke-width="1" stroke="black" d="M 177 71 189 140"/>
<path stroke-width="1" stroke="black" d="M 189 140 217 127"/>
<path stroke-width="1" stroke="black" d="M 189 140 298 166"/>
<path stroke-width="1" stroke="black" d="M 189 140 177 71"/>
<path stroke-width="1" stroke="black" d="M 189 140 169 263"/>
<path stroke-width="1" stroke="black" d="M 189 140 117 244"/>
<path stroke-width="1" stroke="black" d="M 189 140 185 247"/>
<path stroke-width="1" stroke="black" d="M 189 140 132 149"/>
<path stroke-width="1" stroke="black" d="M 189 140 259 154"/>
<path stroke-width="1" stroke="black" d="M 189 140 90 222"/>
<path stroke-width="1" stroke="black" d="M 189 140 221 199"/>
<path stroke-width="1" stroke="black" d="M 298 166 339 227"/>
<path stroke-width="1" stroke="black" d="M 189 140 311 275"/>
<path stroke-width="1" stroke="black" d="M 189 140 97 191"/>
<path stroke-width="1" stroke="black" d="M 189 140 339 227"/>
<path stroke-width="1" stroke="black" d="M 189 140 333 198"/>
<path stroke-width="1" stroke="black" d="M 132 320 169 263"/>
<path stroke-width="1" stroke="black" d="M 169 263 217 127"/>
<path stroke-width="1" stroke="black" d="M 169 263 298 166"/>
<path stroke-width="1" stroke="black" d="M 169 263 189 140"/>
<path stroke-width="1" stroke="black" d="M 169 263 132 320"/>
<path stroke-width="1" stroke="black" d="M 169 263 117 244"/>
<path stroke-width="1" stroke="black" d="M 169 263 185 247"/>
<path stroke-width="1" stroke="black" d="M 169 263 132 149"/>
<path stroke-width="1" stroke="black" d="M 169 263 259 154"/>
<path stroke-width="1" stroke="black" d="M 189 140 266 241"/>
<path stroke-width="1" stroke="black" d="M 169 263 90 222"/>
<path stroke-width="1" stroke="black" d="M 298 166 97 191"/>
<path stroke-width="1" stroke="black" d="M 298 166 311 275"/>
<path stroke-width="1" stroke="black" d="M 217 127 217 20"/>
<path stroke-width="1" stroke="black" d="M 217 127 298 166"/>
<path stroke-width="1" stroke="black" d="M 217 127 189 140"/>
<path stroke-width="1" stroke="black" d="M 217 127 169 263"/>
<path stroke-width="1" stroke="black" d="M 217 127 117 244"/>
<path stroke-width="1" stroke="black" d="M 217 127 185 247"/>
<path stroke-width="1" stroke="black" d="M 217 127 132 149"/>
<path stroke-width="1" stroke="black" d="M 217 127 259 154"/>
<path stroke-width="1" stroke="black" d="M 217 127 90 222"/>
<path stroke-width="1" stroke="black" d="M 217 127 221 199"/>
<path stroke-width="1" stroke="black" d="M 217 127 311 275"/>
<path stroke-width="1" stroke="black" d="M 217 127 266 241"/>
<path stroke-width="1" stroke="black" d="M 298 166 266 241"/>
<path stroke-width="1" stroke="black" d="M 217 127 97 191"/>
<path stroke-width="1" stroke="black" d="M 217 127 333 198"/>
<path stroke-width="1" stroke="black" d="M 420 115 298 166"/>
<path stroke-width="1" stroke="black" d="M 298 166 217 127"/>
<path stroke-width="1" stroke="black" d="M 298 166 420 115"/>
<path stroke-width="1" stroke="black" d="M 298 166 189 140"/>
<path stroke-width="1" stroke="black" d="M 298 166 169 263"/>
<path stroke-width="1" stroke="black" d="M 298 166 117 244"/>
<path stroke-width="1" stroke="black" d="M 298 166 185 247"/>
<path stroke-width="1" stroke="black" d="M 298 166 132 149"/>
<path stroke-width="1" stroke="black" d="M 298 166 259 154"/>
<path stroke-width="1" stroke="black" d="M 298 166 90 222"/>
<path stroke-width="1" stroke="black" d="M 298 166 221 199"/>
<path stroke-width="1" stroke="black" d="M 217 127 339 227"/>
<path stroke-width="1" stroke="black" d="M 169 263 221 199"/>
<path stroke-width="1" stroke="black" d="M 169 263 311 275"/>
<path stroke-width="1" stroke="black" d="M 169 263 266 241"/>
<path stroke-width="1" stroke="black" d="M 185 247 266 241"/>
<path stroke-width="1" stroke="black" d="M 185 247 97 191"/>
<path stroke-width="1" stroke="black" d="M 185 247 339 227"/>
<path stroke-width="1" stroke="black" d="M 185 247 333 198"/>
<path stroke-width="1" stroke="black" d="M 78 128 132 149"/>
<path stroke-width="1" stroke="black" d="M 132 149 217 127"/>
<path stroke-width="1" stroke="black" d="M 132 149 298 166"/>
<path stroke-width="1" stroke="black" d="M 132 149 189 140"/>
<path stroke-width="1" stroke="black" d="M 132 149 169 263"/>
<path stroke-width="1" stroke="black" d="M 132 149 117 244"/>
<path stroke-width="1" stroke="black" d="M 132 149 185 247"/>
<path stroke-width="1" stroke="black" d="M 132 149 78 128"/>
<path stroke-width="1" stroke="black" d="M 185 247 311 275"/>
<path stroke-width="1" stroke="black" d="M 132 149 259 154"/>
<path stroke-width="1" stroke="black" d="M 132 149 221 199"/>
<path stroke-width="1" stroke="black" d="M 132 149 311 275"/>
<path stroke-width="1" stroke="black" d="M 132 149 266 241"/>
<path stroke-width="1" stroke="black" d="M 132 149 97 191"/>
<path stroke-width="1" stroke="black" d="M 132 149 339 227"/>
<path stroke-width="1" stroke="black" d="M 132 149 333 198"/>
<path stroke-width="1" stroke="black" d="M 311 125 259 154"/>
<path stroke-width="1" stroke="black" d="M 259 154 217 127"/>
<path stroke-width="1" stroke="black" d="M 259 154 298 166"/>
<path stroke-width="1" stroke="black" d="M 259 154 189 140"/>
<path stroke-width="1" stroke="black" d="M 259 154 169 263"/>
<path stroke-width="1" stroke="black" d="M 259 154 117 244"/>
<path stroke-width="1" stroke="black" d="M 132 149 90 222"/>
<path stroke-width="1" stroke="black" d="M 185 247 221 199"/>
<path stroke-width="1" stroke="black" d="M 185 247 90 222"/>
<path stroke-width="1" stroke="black" d="M 185 247 259 154"/>
<path stroke-width="1" stroke="black" d="M 169 263 97 191"/>
<path stroke-width="1" stroke="black" d="M 169 263 339 227"/>
<path stroke-width="1" stroke="black" d="M 169 263 333 198"/>
<path stroke-width="1" stroke="black" d="M 49 284 117 244"/>
<path stroke-width="1" stroke="black" d="M 117 244 217 127"/>
<path stroke-width="1" stroke="black" d="M 117 244 298 166"/>
<path stroke-width="1" stroke="black" d="M 117 244 189 140"/>
<path stroke-width="1" stroke="black" d="M 117 244 169 263"/>
<path stroke-width="1" stroke="black" d="M 117 244 49 284"/>
<path stroke-width="1" stroke="black" d="M 117 244 185 247"/>
<path stroke-width="1" stroke="black" d="M 117 244 132 149"/>
<path stroke-width="1" stroke="black" d="M 117 244 259 154"/>
<path stroke-width="1" stroke="black" d="M 117 244 90 222"/>
<path stroke-width="1" stroke="black" d="M 117 244 221 199"/>
<path stroke-width="1" stroke="black" d="M 117 244 311 275"/>
<path stroke-width="1" stroke="black" d="M 117 244 266 241"/>
<path stroke-width="1" stroke="black" d="M 117 244 97 191"/>
<path stroke-width="1" stroke="black" d="M 117 244 339 227"/>
<path stroke-width="1" stroke="black" d="M 117 244 333 198"/>
<path stroke-width="1" stroke="black" d="M 171 292 185 247"/>
<path stroke-width="1" stroke="black" d="M 185 247 217 127"/>
<path stroke-width="1" stroke="black" d="M 185 247 298 166"/>
<path stroke-width="1" stroke="black" d="M 185 247 189 140"/>
<path stroke-width="1" stroke="black" d="M 185 247 169 263"/>
<path stroke-width="1" stroke="black" d="M 185 247 117 244"/>
<path stroke-width="1" stroke="black" d="M 185 247 171 292"/>
<path stroke-width="1" stroke="black" d="M 185 247 132 149"/>
<path stroke-width="1" stroke="black" d="M 333 198 339 227"/>
<path stroke-width="1" stroke="black" d="M 333 198 394 197"/>
<circle cx="217" cy="20" r="7.0" style="fill:gray;stroke:black;stroke-width:1.0"/>
<circle cx="217" cy="127" r="7.0" style="fill:gray;stroke:black;stroke-width:1.0"/>
<circle cx="420" cy="115" r="7.0" style="fill:gray;stroke:black;stroke-width:1.0"/>
<circle cx="298" cy="166" r="7.0" style="fill:gray;stroke:black;stroke-width:1.0"/>
<circle cx="177" cy="71" r="7.0" style="fill:gray;stroke:black;stroke-width:1.0"/>
<circle cx="189" cy="140" r="7.0" style="fill:gray;stroke:black;stroke-width:1.0"/>
<circle cx="132" cy="320" r="7.0" style="fill:gray;stroke:black;stroke-width:1.0"/>
<circle cx="169" cy="263" r="7.0" style="fill:gray;stroke:black;stroke-width:1.0"/>
<circle cx="49" cy="284" r="7.0" style="fill:gray;stroke:black;stroke-width:1.0"/>
<circle cx="117" cy="244" r="7.0" style="fill:gray;stroke:black;stroke-width:1.0"/>
<circle cx="171" cy="292" r="7.0" style="fill:gray;stroke:black;stroke-width:1.0"/>
<circle cx="185" cy="247" r="7.0" style="fill:gray;stroke:black;stroke-width:1.0"/>
<circle cx="78" cy="128" r="7.0" style="fill:gray;stroke:black;stroke-width:1.0"/>
<circle cx="132" cy="149" r="7.0" style="fill:gray;stroke:black;stroke-width:1.0"/>
<circle cx="311" cy="125" r="7.0" style="fill:gray;stroke:black;stroke-width:1.0"/>
<circle cx="259" cy="154" r="7.0" style="fill:gray;stroke:black;stroke-width:1.0"/>
<circle cx="20" cy="238" r="7.0" style="fill:gray;stroke:black;stroke-width:1.0"/>
<circle cx="90" cy="222" r="7.0" style="fill:gray;stroke:black;stroke-width:1.0"/>
<circle cx="242" cy="212" r="7.0" style="fill:gray;stroke:black;stroke-width:1.0"/>
<circle cx="221" cy="199" r="7.0" style="fill:gray;stroke:black;stroke-width:1.0"/>
<circle cx="321" cy="272" r="7.0" style="fill:gray;stroke:black;stroke-width:1.0"/>
<circle cx="311" cy="275" r="7.0" style="fill:gray;stroke:black;stroke-width:1.0"/>
<circle cx="280" cy="270" r="7.0" style="fill:gray;stroke:black;stroke-width:1.0"/>
<circle cx="266" cy="241" r="7.0" style="fill:gray;stroke:black;stroke-width:1.0"/>
<circle cx="31" cy="188" r="7.0" style="fill:gray;stroke:black;stroke-width:1.0"/>
<circle cx="97" cy="191" r="7.0" style="fill:gray;stroke:black;stroke-width:1.0"/>
<circle cx="391" cy="234" r="7.0" style="fill:gray;stroke:black;stroke-width:1.0"/>
<circle cx="339" cy="227" r="7.0" style="fill:gray;stroke:black;stroke-width:1.0"/>
<circle cx="394" cy="197" r="7.0" style="fill:gray;stroke:black;stroke-width:1.0"/>
<circle cx="333" cy="198" r="7.0" style="fill:gray;stroke:black;stroke-width:1.0"/>
</svg>
