<svg width="440" height="340" xmlns="http://www.w3.org/2000/svg">
<path stroke-width="2.2105263157894735" stroke="black" d="M 20 39 123 124"/>
<path stroke-width="0.5" stroke="black" d="M 214 185 201 95"/>
<path stroke-width="0.5" stroke="black" d="M 214 185 260 188"/>
<path stroke-width="13.842105263157896" stroke="black" d="M 214 185 192 216"/>
<path stroke-width="0.5" stroke="black" d="M 214 185 146 275"/>
<path stroke-width="0.5" stroke="black" d="M 214 185 83 191"/>
<path stroke-width="0.5" stroke="black" d="M 214 185 246 119"/>
<path stroke-width="0.5" stroke="black" d="M 214 185 129 209"/>
<path stroke-width="0.5" stroke="black" d="M 214 185 215 280"/>
<path stroke-width="15.210526315789474" stroke="black" d="M 117 320 146 275"/>
<path stroke-width="0.5" stroke="black" d="M 146 275 123 124"/>
<path stroke-width="0.5" stroke="black" d="M 146 275 291 154"/>
<path stroke-width="0.5" stroke="black" d="M 146 275 171 121"/>
<path stroke-width="0.5" stroke="black" d="M 214 185 128 176"/>
<path stroke-width="0.5" stroke="black" d="M 146 275 259 262"/>
<path stroke-width="0.5" stroke="black" d="M 146 275 104 240"/>
<path stroke-width="0.5" stroke="black" d="M 146 275 128 176"/>
<path stroke-width="0.5" stroke="black" d="M 146 275 201 95"/>
<path stroke-width="0.5" stroke="black" d="M 146 275 260 188"/>
<path stroke-width="0.5" stroke="black" d="M 146 275 214 185"/>
<path stroke-width="15.210526315789474" stroke="black" d="M 146 275 117 320"/>
<path stroke-width="0.5" stroke="black" d="M 146 275 83 191"/>
<path stroke-width="0.5" stroke="black" d="M 146 275 246 119"/>
<path stroke-width="0.5" stroke="black" d="M 146 275 129 209"/>
<path stroke-width="0.5" stroke="black" d="M 146 275 215 280"/>
<path stroke-width="16.57894736842105" stroke="black" d="M 45 174 83 191"/>
<path stroke-width="0.5" stroke="black" d="M 83 191 123 124"/>
<path stroke-width="0.5" stroke="black" d="M 146 275 286 206"/>
<path stroke-width="0.5" stroke="black" d="M 83 191 291 154"/>
<path stroke-width="0.5" stroke="black" d="M 214 185 104 240"/>
<path stroke-width="0.5" stroke="black" d="M 214 185 259 262"/>
<path stroke-width="0.5" stroke="black" d="M 201 95 214 185"/>
<path stroke-width="0.5" stroke="black" d="M 201 95 146 275"/>
<path stroke-width="0.5" stroke="black" d="M 201 95 83 191"/>
<path stroke-width="0.5" stroke="black" d="M 201 95 246 119"/>
<path stroke-width="0.5" stroke="black" d="M 201 95 129 209"/>
<path stroke-width="0.5" stroke="black" d="M 201 95 215 280"/>
<path stroke-width="12.473684210526315" stroke="black" d="M 316 175 260 188"/>
<path stroke-width="0.5" stroke="black" d="M 260 188 123 124"/>
<path stroke-width="0.5" stroke="black" d="M 260 188 291 154"/>
<path stroke-width="0.5" stroke="black" d="M 260 188 171 121"/>
<path stroke-width="0.5" stroke="black" d="M 260 188 259 262"/>
<path stroke-width="0.5" stroke="black" d="M 260 188 286 206"/>
<path stroke-width="0.5" stroke="black" d="M 214 185 286 206"/>
<path stroke-width="0.5" stroke="black" d="M 260 188 104 240"/>
<path stroke-width="0.5" stroke="black" d="M 260 188 201 95"/>
<path stroke-width="12.473684210526315" stroke="black" d="M 260 188 316 175"/>
<path stroke-width="0.5" stroke="black" d="M 260 188 214 185"/>
<path stroke-width="0.5" stroke="black" d="M 260 188 146 275"/>
<path stroke-width="0.5" stroke="black" d="M 260 188 83 191"/>
<path stroke-width="0.5" stroke="black" d="M 260 188 246 119"/>
<path stroke-width="0.5" stroke="black" d="M 260 188 129 209"/>
<path stroke-width="0.5" stroke="black" d="M 260 188 215 280"/>
<path stroke-width="13.842105263157896" stroke="black" d="M 192 216 214 185"/>
<path stroke-width="0.5" stroke="black" d="M 214 185 123 124"/>
<path stroke-width="0.5" stroke="black" d="M 214 185 291 154"/>
<path stroke-width="0.5" stroke="black" d="M 214 185 171 121"/>
<path stroke-width="0.5" stroke="black" d="M 260 188 128 176"/>
<path stroke-width="0.5" stroke="black" d="M 201 95 260 188"/>
<path stroke-width="0.5" stroke="black" d="M 83 191 171 121"/>
<path stroke-width="0.5" stroke="black" d="M 83 191 286 206"/>
<path stroke-width="0.5" stroke="black" d="M 129 209 259 262"/>
<path stroke-width="0.5" stroke="black" d="M 129 209 286 206"/>
<path stroke-width="0.5" stroke="black" d="M 129 209 104 240"/>
<path stroke-width="0.5" stroke="black" d="M 129 209 128 176"/>
<path stroke-width="0.5" stroke="black" d="M 129 209 201 95"/>
<path stroke-width="0.5" stroke="black" d="M 129 209 260 188"/>
<path stroke-width="0.5" stroke="black" d="M 129 209 214 185"/>
<path stroke-width="0.5" stroke="black" d="M 129 209 146 275"/>
<path stroke-width="0.5" stroke="black" d="M 129 209 83 191"/>
<path stroke-width="0.5" stroke="black" d="M 129 209 246 119"/>
<path stroke-width="18.63157894736842" stroke="black" d="M 129 209 92 242"/>
<path stroke-width="0.5" stroke="black" d="M 129 209 215 280"/>
<path stroke-width="0.5" stroke="black" d="M 129 209 171 121"/>
<path stroke-width="20.0" stroke="black" d="M 222 308 215 280"/>
<path stroke-width="0.5" stroke="black" d="M 215 280 291 154"/>
<path stroke-width="0.5" stroke="black" d="M 215 280 171 121"/>
<path stroke-width="0.5" stroke="black" d="M 215 280 259 262"/>
<path stroke-width="0.5" stroke="black" d="M 215 280 286 206"/>
<path stroke-width="0.5" stroke="black" d="M 215 280 104 240"/>
<path stroke-width="0.5" stroke="black" d="M 215 280 128 176"/>
<path stroke-width="0.5" stroke="black" d="M 215 280 201 95"/>
<path stroke-width="0.5" stroke="black" d="M 215 280 260 188"/>
<path stroke-width="0.5" stroke="black" d="M 215 280 214 185"/>
<path stroke-width="0.5" stroke="black" d="M 215 280 146 275"/>
<path stroke-width="0.5" stroke="black" d="M 215 280 83 191"/>
<path stroke-width="0.5" stroke="black" d="M 215 280 246 119"/>
<path stroke-width="0.5" stroke="black" d="M 215 280 123 124"/>
<path stroke-width="0.5" stroke="black" d="M 83 191 259 262"/>
<path stroke-width="0.5" stroke="black" d="M 129 209 291 154"/>
<path stroke-width="18.63157894736842" stroke="black" d="M 92 242 129 209"/>
<path stroke-width="0.5" stroke="black" d="M 83 191 104 240"/>
<path stroke-width="0.5" stroke="black" d="M 83 191 128 176"/>
<path stroke-width="0.5" stroke="black" d="M 83 191 201 95"/>
<path stroke-width="0.5" stroke="black" d="M 83 191 260 188"/>
<path stroke-width="0.5" stroke="black" d="M 83 191 214 185"/>
<path stroke-width="0.5" stroke="black" d="M 83 191 146 275"/>
<path stroke-width="16.57894736842105" stroke="black" d="M 83 191 45 174"/>
<path stroke-width="0.5" stroke="black" d="M 83 191 246 119"/>
<path stroke-width="0.5" stroke="black" d="M 83 191 129 209"/>
<path stroke-width="0.5" stroke="black" d="M 83 191 215 280"/>
<path stroke-width="17.94736842105263" stroke="black" d="M 276 86 246 119"/>
<path stroke-width="0.5" stroke="black" d="M 246 119 123 124"/>
<path stroke-width="0.5" stroke="black" d="M 129 209 123 124"/>
<path stroke-width="0.5" stroke="black" d="M 246 119 291 154"/>
<path stroke-width="0.5" stroke="black" d="M 246 119 259 262"/>
<path stroke-width="0.5" stroke="black" d="M 246 119 286 206"/>
<path stroke-width="0.5" stroke="black" d="M 246 119 104 240"/>
<path stroke-width="0.5" stroke="black" d="M 246 119 128 176"/>
<path stroke-width="0.5" stroke="black" d="M 246 119 201 95"/>
<path stroke-width="0.5" stroke="black" d="M 246 119 260 188"/>
<path stroke-width="0.5" stroke="black" d="M 246 119 214 185"/>
<path stroke-width="0.5" stroke="black" d="M 246 119 146 275"/>
<path stroke-width="0.5" stroke="black" d="M 246 119 83 191"/>
<path stroke-width="17.94736842105263" stroke="black" d="M 246 119 276 86"/>
<path stroke-width="0.5" stroke="black" d="M 246 119 129 209"/>
<path stroke-width="0.5" stroke="black" d="M 246 119 215 280"/>
<path stroke-width="0.5" stroke="black" d="M 246 119 171 121"/>
<path stroke-width="11.105263157894736" stroke="black" d="M 201 95 207 40"/>
<path stroke-width="0.5" stroke="black" d="M 201 95 128 176"/>
<path stroke-width="0.5" stroke="black" d="M 201 95 104 240"/>
<path stroke-width="0.5" stroke="black" d="M 291 154 215 280"/>
<path stroke-width="4.2631578947368425" stroke="black" d="M 142 20 171 121"/>
<path stroke-width="0.5" stroke="black" d="M 171 121 123 124"/>
<path stroke-width="0.5" stroke="black" d="M 171 121 291 154"/>
<path stroke-width="4.2631578947368425" stroke="black" d="M 171 121 142 20"/>
<path stroke-width="0.5" stroke="black" d="M 171 121 259 262"/>
<path stroke-width="0.5" stroke="black" d="M 171 121 286 206"/>
<path stroke-width="0.5" stroke="black" d="M 171 121 104 240"/>
<path stroke-width="0.5" stroke="black" d="M 171 121 128 176"/>
<path stroke-width="0.5" stroke="black" d="M 171 121 201 95"/>
<path stroke-width="0.5" stroke="black" d="M 171 121 260 188"/>
<path stroke-width="0.5" stroke="black" d="M 171 121 214 185"/>
<path stroke-width="0.5" stroke="black" d="M 291 154 129 209"/>
<path stroke-width="0.5" stroke="black" d="M 171 121 146 275"/>
<path stroke-width="0.5" stroke="black" d="M 171 121 246 119"/>
<path stroke-width="0.5" stroke="black" d="M 171 121 129 209"/>
<path stroke-width="0.5" stroke="black" d="M 171 121 215 280"/>
<path stroke-width="5.631578947368421" stroke="black" d="M 323 306 259 262"/>
<path stroke-width="0.5" stroke="black" d="M 259 262 123 124"/>
<path stroke-width="0.5" stroke="black" d="M 259 262 291 154"/>
<path stroke-width="0.5" stroke="black" d="M 259 262 171 121"/>
<path stroke-width="5.631578947368421" stroke="black" d="M 259 262 323 306"/>
<path stroke-width="0.5" stroke="black" d="M 259 262 286 206"/>
<path stroke-width="0.5" stroke="black" d="M 259 262 104 240"/>
<path stroke-width="0.5" stroke="black" d="M 259 262 128 176"/>
<path stroke-width="0.5" stroke="black" d="M 259 262 201 95"/>
<path stroke-width="0.5" stroke="black" d="M 171 121 83 191"/>
<path stroke-width="0.5" stroke="black" d="M 259 262 260 188"/>
<path stroke-width="0.5" stroke="black" d="M 291 154 246 119"/>
<path stroke-width="0.5" stroke="black" d="M 291 154 146 275"/>
<path stroke-width="2.2105263157894735" stroke="black" d="M 123 124 20 39"/>
<path stroke-width="0.5" stroke="black" d="M 123 124 291 154"/>
<path stroke-width="0.5" stroke="black" d="M 123 124 171 121"/>
<path stroke-width="0.5" stroke="black" d="M 123 124 259 262"/>
<path stroke-width="0.5" stroke="black" d="M 123 124 286 206"/>
<path stroke-width="0.5" stroke="black" d="M 123 124 104 240"/>
<path stroke-width="0.5" stroke="black" d="M 123 124 128 176"/>
<path stroke-width="0.5" stroke="black" d="M 123 124 201 95"/>
<path stroke-width="0.5" stroke="black" d="M 123 124 260 188"/>
<path stroke-width="0.5" stroke="black" d="M 123 124 214 185"/>
<path stroke-width="0.5" stroke="black" d="M 123 124 146 275"/>
<path stroke-width="0.5" stroke="black" d="M 123 124 83 191"/>
<path stroke-width="0.5" stroke="black" d="M 291 154 83 191"/>
<path stroke-width="0.5" stroke="black" d="M 123 124 246 119"/>
<path stroke-width="0.5" stroke="black" d="M 123 124 215 280"/>
<path stroke-width="2.8947368421052633" stroke="black" d="M 420 125 291 154"/>
<path stroke-width="0.5" stroke="black" d="M 291 154 123 124"/>
<path stroke-width="2.8947368421052633" stroke="black" d="M 291 154 420 125"/>
<path stroke-width="0.5" stroke="black" d="M 291 154 171 121"/>
<path stroke-width="0.5" stroke="black" d="M 291 154 259 262"/>
<path stroke-width="0.5" stroke="black" d="M 291 154 286 206"/>
<path stroke-width="0.5" stroke="black" d="M 291 154 104 240"/>
<path stroke-width="0.5" stroke="black" d="M 291 154 128 176"/>
<path stroke-width="0.5" stroke="black" d="M 291 154 201 95"/>
<path stroke-width="0.5" stroke="black" d="M 291 154 260 188"/>
<path stroke-width="0.5" stroke="black" d="M 291 154 214 185"/>
<path stroke-width="0.5" stroke="black" d="M 123 124 129 209"/>
<path stroke-width="0.5" stroke="black" d="M 259 262 214 185"/>
<path stroke-width="0.5" stroke="black" d="M 259 262 146 275"/>
<path stroke-width="0.5" stroke="black" d="M 259 262 83 191"/>
<path stroke-width="0.5" stroke="black" d="M 104 240 83 191"/>
<path stroke-width="0.5" stroke="black" d="M 104 240 246 119"/>
<path stroke-width="0.5" stroke="black" d="M 104 240 129 209"/>
<path stroke-width="0.5" stroke="black" d="M 104 240 215 280"/>
<path stroke-width="9.736842105263158" stroke="black" d="M 71 97 128 176"/>
<path stroke-width="0.5" stroke="black" d="M 128 176 123 124"/>
<path stroke-width="0.5" stroke="black" d="M 128 176 291 154"/>
<path stroke-width="0.5" stroke="black" d="M 128 176 171 121"/>
<path stroke-width="0.5" stroke="black" d="M 128 176 259 262"/>
<path stroke-width="0.5" stroke="black" d="M 128 176 286 206"/>
<path stroke-width="0.5" stroke="black" d="M 128 176 104 240"/>
<path stroke-width="9.736842105263158" stroke="black" d="M 128 176 71 97"/>
<path stroke-width="0.5" stroke="black" d="M 104 240 146 275"/>
<path stroke-width="0.5" stroke="black" d="M 128 176 201 95"/>
<path stroke-width="0.5" stroke="black" d="M 128 176 214 185"/>
<path stroke-width="0.5" stroke="black" d="M 128 176 146 275"/>
<path stroke-width="0.5" stroke="black" d="M 128 176 83 191"/>
<path stroke-width="0.5" stroke="black" d="M 128 176 246 119"/>
<path stroke-width="0.5" stroke="black" d="M 128 176 129 209"/>
<path stroke-width="0.5" stroke="black" d="M 128 176 215 280"/>
<path stroke-width="11.105263157894736" stroke="black" d="M 207 40 201 95"/>
<path stroke-width="0.5" stroke="black" d="M 201 95 123 124"/>
<path stroke-width="0.5" stroke="black" d="M 201 95 291 154"/>
<path stroke-width="0.5" stroke="black" d="M 201 95 171 121"/>
<path stroke-width="0.5" stroke="black" d="M 201 95 259 262"/>
<path stroke-width="0.5" stroke="black" d="M 201 95 286 206"/>
<path stroke-width="0.5" stroke="black" d="M 128 176 260 188"/>
<path stroke-width="0.5" stroke="black" d="M 104 240 214 185"/>
<path stroke-width="0.5" stroke="black" d="M 104 240 260 188"/>
<path stroke-width="0.5" stroke="black" d="M 104 240 201 95"/>
<path stroke-width="0.5" stroke="black" d="M 259 262 246 119"/>
<path stroke-width="0.5" stroke="black" d="M 259 262 129 209"/>
<path stroke-width="0.5" stroke="black" d="M 259 262 215 280"/>
<path stroke-width="7.0" stroke="black" d="M 366 237 286 206"/>
<path stroke-width="0.5" stroke="black" d="M 286 206 123 124"/>
<path stroke-width="0.5" stroke="black" d="M 286 206 291 154"/>
<path stroke-width="0.5" stroke="black" d="M 286 206 171 121"/>
<path stroke-width="0.5" stroke="black" d="M 286 206 259 262"/>
<path stroke-width="7.0" stroke="black" d="M 286 206 366 237"/>
<path stroke-width="0.5" stroke="black" d="M 286 206 104 240"/>
<path stroke-width="0.5" stroke="black" d="M 286 206 128 176"/>
<path stroke-width="0.5" stroke="black" d="M 286 206 201 95"/>
<path stroke-width="0.5" stroke="black" d="M 286 206 260 188"/>
<path stroke-width="0.5" stroke="black" d="M 286 206 214 185"/>
<path stroke-width="0.5" stroke="black" d="M 286 206 146 275"/>
<path stroke-width="0.5" stroke="black" d="M 286 206 83 191"/>
<path stroke-width="0.5" stroke="black" d="M 286 206 246 119"/>
<path stroke-width="0.5" stroke="black" d="M 286 206 129 209"/>
<path stroke-width="0.5" stroke="black" d="M 286 206 215 280"/>
<path stroke-width="8.368421052631579" stroke="black" d="M 43 287 104 240"/>
<path stroke-width="0.5" stroke="black" d="M 104 240 123 124"/>
<path stroke-width="0.5" stroke="black" d="M 104 240 291 154"/>
<path stroke-width="0.5" stroke="black" d="M 104 240 171 121"/>
<path stroke-width="0.5" stroke="black" d="M 104 240 259 262"/>
<path stroke-width="0.5" stroke="black" d="M 104 240 286 206"/>
<path stroke-width="8.368421052631579" stroke="black" d="M 104 240 43 287"/>
<path stroke-width="0.5" stroke="black" d="M 104 240 128 176"/>
<path stroke-width="0.5" stroke="black" d="M 215 280 129 209"/>
<path stroke-width="20.0" stroke="black" d="M 215 280 222 308"/>
<circle cx="20" cy="39" r="7.0" style="fill:blue;stroke:black;stroke-width:1.0"/>
<circle cx="123" cy="124" r="7.0" style="fill:blue;stroke:black;stroke-width:1.0"/>
<circle cx="420" cy="125" r="7.0" style="fill:blue;stroke:black;stroke-width:1.0"/>
<circle cx="291" cy="154" r="7.0" style="fill:blue;stroke:black;stroke-width:1.0"/>
<circle cx="142" cy="20" r="7.0" style="fill:blue;stroke:black;stroke-width:1.0"/>
<circle cx="171" cy="121" r="7.0" style="fill:blue;stroke:black;stroke-width:1.0"/>
<circle cx="323" cy="306" r="7.0" style="fill:red;stroke:black;stroke-width:1.0"/>
<circle cx="259" cy="262" r="7.0" style="fill:red;stroke:black;stroke-width:1.0"/>
<circle cx="366" cy="237" r="7.0" style="fill:green;stroke:black;stroke-width:1.0"/>
<circle cx="286" cy="206" r="7.0" style="fill:green;stroke:black;stroke-width:1.0"/>
<circle cx="43" cy="287" r="7.0" style="fill:orange;stroke:black;stroke-width:1.0"/>
<circle cx="104" cy="240" r="7.0" style="fill:orange;stroke:black;stroke-width:1.0"/>
<circle cx="71" cy="97" r="7.0" style="fill:purple;stroke:black;stroke-width:1.0"/>
<circle cx="128" cy="176" r="7.0" style="fill:purple;stroke:black;stroke-width:1.0"/>
<circle cx="207" cy="40" r="7.0" style="fill:yellow;stroke:black;stroke-width:1.0"/>
<circle cx="201" cy="95" r="7.0" style="fill:yellow;stroke:black;stroke-width:1.0"/>
<circle cx="316" cy="175" r="7.0" style="fill:fuchsia;stroke:black;stroke-width:1.0"/>
<circle cx="260" cy="188" r="7.0" style="fill:fuchsia;stroke:black;stroke-width:1.0"/>
<circle cx="192" cy="216" r="7.0" style="fill:olive;stroke:black;stroke-width:1.0"/>
<circle cx="214" cy="185" r="7.0" style="fill:olive;stroke:black;stroke-width:1.0"/>
<circle cx="117" cy="320" r="7.0" style="fill:aqua;stroke:black;stroke-width:1.0"/>
<circle cx="146" cy="275" r="7.0" style="fill:aqua;stroke:black;stroke-width:1.0"/>
<circle cx="45" cy="174" r="7.0" style="fill:brown;stroke:black;stroke-width:1.0"/>
<circle cx="83" cy="191" r="7.0" style="fill:brown;stroke:black;stroke-width:1.0"/>
<circle cx="276" cy="86" r="7.0" style="fill:blue;stroke:black;stroke-width:1.0"/>
<circle cx="246" cy="119" r="7.0" style="fill:blue;stroke:black;stroke-width:1.0"/>
<circle cx="92" cy="242" r="7.0" style="fill:red;stroke:black;stroke-width:1.0"/>
<circle cx="129" cy="209" r="7.0" style="fill:red;stroke:black;stroke-width:1.0"/>
<circle cx="222" cy="308" r="7.0" style="fill:green;stroke:black;stroke-width:1.0"/>
<circle cx="215" cy="280" r="7.0" style="fill:green;stroke:black;stroke-width:1.0"/>
</svg>
