<svg width="440" height="340" xmlns="http://www.w3.org/2000/svg">
<path stroke-width="1" stroke="black" d="M 263 20 232 114"/>
<path stroke-width="1" stroke="black" d="M 179 121 283 126"/>
<path stroke-width="1" stroke="black" d="M 179 121 232 114"/>
<path stroke-width="1" stroke="black" d="M 122 84 179 121"/>
<path stroke-width="1" stroke="black" d="M 137 235 213 215"/>
<path stroke-width="1" stroke="black" d="M 137 235 192 270"/>
<path stroke-width="1" stroke="black" d="M 137 235 179 121"/>
<path stroke-width="1" stroke="black" d="M 137 235 56 257"/>
<path stroke-width="1" stroke="black" d="M 137 235 310 169"/>
<path stroke-width="1" stroke="black" d="M 137 235 288 264"/>
<path stroke-width="1" stroke="black" d="M 137 235 113 162"/>
<path stroke-width="1" stroke="black" d="M 137 235 325 219"/>
<path stroke-width="1" stroke="black" d="M 137 235 283 126"/>
<path stroke-width="1" stroke="black" d="M 137 235 232 114"/>
<path stroke-width="1" stroke="black" d="M 56 257 137 235"/>
<path stroke-width="1" stroke="black" d="M 310 169 213 215"/>
<path stroke-width="1" stroke="black" d="M 310 169 192 270"/>
<path stroke-width="1" stroke="black" d="M 310 169 179 121"/>
<path stroke-width="1" stroke="black" d="M 310 169 137 235"/>
<path stroke-width="1" stroke="black" d="M 310 169 378 154"/>
<path stroke-width="1" stroke="black" d="M 310 169 288 264"/>
<path stroke-width="1" stroke="black" d="M 310 169 113 162"/>
<path stroke-width="1" stroke="black" d="M 310 169 325 219"/>
<path stroke-width="1" stroke="black" d="M 310 169 283 126"/>
<path stroke-width="1" stroke="black" d="M 179 121 325 219"/>
<path stroke-width="1" stroke="black" d="M 179 121 113 162"/>
<path stroke-width="1" stroke="black" d="M 179 121 288 264"/>
<path stroke-width="1" stroke="black" d="M 179 121 310 169"/>
<path stroke-width="1" stroke="black" d="M 213 215 179 121"/>
<path stroke-width="1" stroke="black" d="M 213 215 137 235"/>
<path stroke-width="1" stroke="black" d="M 213 215 310 169"/>
<path stroke-width="1" stroke="black" d="M 213 215 288 264"/>
<path stroke-width="1" stroke="black" d="M 213 215 113 162"/>
<path stroke-width="1" stroke="black" d="M 213 215 325 219"/>
<path stroke-width="1" stroke="black" d="M 213 215 283 126"/>
<path stroke-width="1" stroke="black" d="M 213 215 232 114"/>
<path stroke-width="1" stroke="black" d="M 188 206 213 215"/>
<path stroke-width="1" stroke="black" d="M 192 270 213 215"/>
<path stroke-width="1" stroke="black" d="M 192 270 157 320"/>
<path stroke-width="1" stroke="black" d="M 310 169 232 114"/>
<path stroke-width="1" stroke="black" d="M 192 270 179 121"/>
<path stroke-width="1" stroke="black" d="M 192 270 310 169"/>
<path stroke-width="1" stroke="black" d="M 192 270 288 264"/>
<path stroke-width="1" stroke="black" d="M 192 270 113 162"/>
<path stroke-width="1" stroke="black" d="M 192 270 325 219"/>
<path stroke-width="1" stroke="black" d="M 192 270 283 126"/>
<path stroke-width="1" stroke="black" d="M 192 270 232 114"/>
<path stroke-width="1" stroke="black" d="M 157 320 192 270"/>
<path stroke-width="1" stroke="black" d="M 179 121 213 215"/>
<path stroke-width="1" stroke="black" d="M 179 121 192 270"/>
<path stroke-width="1" stroke="black" d="M 179 121 122 84"/>
<path stroke-width="1" stroke="black" d="M 179 121 137 235"/>
<path stroke-width="1" stroke="black" d="M 192 270 137 235"/>
<path stroke-width="1" stroke="black" d="M 378 154 310 169"/>
<path stroke-width="1" stroke="black" d="M 288 264 213 215"/>
<path stroke-width="1" stroke="black" d="M 288 264 192 270"/>
<path stroke-width="1" stroke="black" d="M 325 219 283 126"/>
<path stroke-width="1" stroke="black" d="M 325 219 232 114"/>
<path stroke-width="1" stroke="black" d="M 420 242 325 219"/>
<path stroke-width="1" stroke="black" d="M 283 126 213 215"/>
<path stroke-width="1" stroke="black" d="M 283 126 192 270"/>
<path stroke-width="1" stroke="black" d="M 283 126 179 121"/>
<path stroke-width="1" stroke="black" d="M 283 126 137 235"/>
<path stroke-width="1" stroke="black" d="M 283 126 310 169"/>
<path stroke-width="1" stroke="black" d="M 283 126 288 264"/>
<path stroke-width="1" stroke="black" d="M 283 126 113 162"/>
<path stroke-width="1" stroke="black" d="M 283 126 325 219"/>
<path stroke-width="1" stroke="black" d="M 325 219 420 242"/>
<path stroke-width="1" stroke="black" d="M 283 126 355 55"/>
<path stroke-width="1" stroke="black" d="M 355 55 283 126"/>
<path stroke-width="1" stroke="black" d="M 232 114 213 215"/>
<path stroke-width="1" stroke="black" d="M 232 114 192 270"/>
<path stroke-width="1" stroke="black" d="M 232 114 179 121"/>
<path stroke-width="1" stroke="black" d="M 232 114 137 235"/>
<path stroke-width="1" stroke="black" d="M 232 114 310 169"/>
<path stroke-width="1" stroke="black" d="M 232 114 288 264"/>
<path stroke-width="1" stroke="black" d="M 232 114 113 162"/>
<path stroke-width="1" stroke="black" d="M 232 114 325 219"/>
<path stroke-width="1" stroke="black" d="M 232 114 283 126"/>
<path stroke-width="1" stroke="black" d="M 232 114 263 20"/>
<path stroke-width="1" stroke="black" d="M 283 126 232 114"/>
<path stroke-width="1" stroke="black" d="M 213 215 192 270"/>
<path stroke-width="1" stroke="black" d="M 325 219 113 162"/>
<path stroke-width="1" stroke="black" d="M 325 219 310 169"/>
<path stroke-width="1" stroke="black" d="M 288 264 179 121"/>
<path stroke-width="1" stroke="black" d="M 288 264 137 235"/>
<path stroke-width="1" stroke="black" d="M 288 264 310 169"/>
<path stroke-width="1" stroke="black" d="M 288 264 323 312"/>
<path stroke-width="1" stroke="black" d="M 288 264 113 162"/>
<path stroke-width="1" stroke="black" d="M 288 264 325 219"/>
<path stroke-width="1" stroke="black" d="M 288 264 283 126"/>
<path stroke-width="1" stroke="black" d="M 288 264 232 114"/>
<path stroke-width="1" stroke="black" d="M 323 312 288 264"/>
<path stroke-width="1" stroke="black" d="M 113 162 213 215"/>
<path stroke-width="1" stroke="black" d="M 113 162 192 270"/>
<path stroke-width="1" stroke="black" d="M 325 219 288 264"/>
<path stroke-width="1" stroke="black" d="M 113 162 179 121"/>
<path stroke-width="1" stroke="black" d="M 113 162 310 169"/>
<path stroke-width="1" stroke="black" d="M 113 162 288 264"/>
<path stroke-width="1" stroke="black" d="M 113 162 20 155"/>
<path stroke-width="1" stroke="black" d="M 113 162 325 219"/>
<path stroke-width="1" stroke="black" d="M 113 162 283 126"/>
<path stroke-width="1" stroke="black" d="M 113 162 232 114"/>
<path stroke-width="1" stroke="black" d="M 20 155 113 162"/>
<path stroke-width="1" stroke="black" d="M 325 219 213 215"/>
<path stroke-width="1" stroke="black" d="M 325 219 192 270"/>
<path stroke-width="1" stroke="black" d="M 325 219 179 121"/>
<path stroke-width="1" stroke="black" d="M 325 219 137 235"/>
<path stroke-width="1" stroke="black" d="M 113 162 137 235"/>
<path stroke-width="1" stroke="black" d="M 213 215 188 206"/>
<circle cx="263" cy="20" r="20.0" style="fill:blue;stroke:black;stroke-width:1.0"/>
<circle cx="232" cy="114" r="20.0" style="fill:blue;stroke:black;stroke-width:1.0"/>
<circle cx="355" cy="55" r="20.0" style="fill:blue;stroke:black;stroke-width:1.0"/>
<circle cx="283" cy="126" r="20.0" style="fill:blue;stroke:black;stroke-width:1.0"/>
<circle cx="420" cy="242" r="20.0" style="fill:red;stroke:black;stroke-width:1.0"/>
<circle cx="325" cy="219" r="20.0" style="fill:red;stroke:black;stroke-width:1.0"/>
<circle cx="20" cy="155" r="20.0" style="fill:green;stroke:black;stroke-width:1.0"/>
<circle cx="113" cy="162" r="20.0" style="fill:green;stroke:black;stroke-width:1.0"/>
<circle cx="323" cy="312" r="20.0" style="fill:orange;stroke:black;stroke-width:1.0"/>
<circle cx="288" cy="264" r="20.0" style="fill:orange;stroke:black;stroke-width:1.0"/>
<circle cx="378" cy="154" r="20.0" style="fill:purple;stroke:black;stroke-width:1.0"/>
<circle cx="310" cy="169" r="20.0" style="fill:purple;stroke:black;stroke-width:1.0"/>
<circle cx="56" cy="257" r="20.0" style="fill:yellow;stroke:black;stroke-width:1.0"/>
<circle cx="137" cy="235" r="20.0" style="fill:yellow;stroke:black;stroke-width:1.0"/>
<circle cx="122" cy="84" r="20.0" style="fill:fuchsia;stroke:black;stroke-width:1.0"/>
<circle cx="179" cy="121" r="20.0" style="fill:fuchsia;stroke:black;stroke-width:1.0"/>
<circle cx="157" cy="320" r="20.0" style="fill:olive;stroke:black;stroke-width:1.0"/>
<circle cx="192" cy="270" r="20.0" style="fill:olive;stroke:black;stroke-width:1.0"/>
<circle cx="188" cy="206" r="20.0" style="fill:aqua;stroke:black;stroke-width:1.0"/>
<circle cx="213" cy="215" r="20.0" style="fill:aqua;stroke:black;stroke-width:1.0"/>
</svg>
