<svg width="440" height="340" xmlns="http://www.w3.org/2000/svg">
<path stroke-width="3.135135135135135" stroke="black" d="M 390 20 312 97"/>
<path stroke-width="0.5" stroke="black" d="M 255 134 153 247"/>
<path stroke-width="0.5" stroke="black" d="M 255 134 312 97"/>
<path stroke-width="16.83783783783784" stroke="black" d="M 268 68 255 134"/>
<path stroke-width="0.5" stroke="black" d="M 243 277 122 137"/>
<path stroke-width="0.5" stroke="black" d="M 243 277 233 182"/>
<path stroke-width="0.5" stroke="black" d="M 243 277 255 134"/>
<path stroke-width="14.72972972972973" stroke="black" d="M 243 277 249 320"/>
<path stroke-width="0.5" stroke="black" d="M 243 277 324 231"/>
<path stroke-width="0.5" stroke="black" d="M 243 277 182 104"/>
<path stroke-width="0.5" stroke="black" d="M 243 277 356 169"/>
<path stroke-width="0.5" stroke="black" d="M 243 277 113 195"/>
<path stroke-width="0.5" stroke="black" d="M 243 277 153 247"/>
<path stroke-width="0.5" stroke="black" d="M 243 277 312 97"/>
<path stroke-width="14.72972972972973" stroke="black" d="M 249 320 243 277"/>
<path stroke-width="0.5" stroke="black" d="M 324 231 122 137"/>
<path stroke-width="0.5" stroke="black" d="M 324 231 233 182"/>
<path stroke-width="0.5" stroke="black" d="M 324 231 255 134"/>
<path stroke-width="0.5" stroke="black" d="M 324 231 243 277"/>
<path stroke-width="12.621621621621621" stroke="black" d="M 324 231 383 263"/>
<path stroke-width="0.5" stroke="black" d="M 324 231 182 104"/>
<path stroke-width="0.5" stroke="black" d="M 324 231 356 169"/>
<path stroke-width="0.5" stroke="black" d="M 324 231 113 195"/>
<path stroke-width="0.5" stroke="black" d="M 324 231 153 247"/>
<path stroke-width="0.5" stroke="black" d="M 255 134 113 195"/>
<path stroke-width="0.5" stroke="black" d="M 255 134 356 169"/>
<path stroke-width="0.5" stroke="black" d="M 255 134 182 104"/>
<path stroke-width="0.5" stroke="black" d="M 255 134 324 231"/>
<path stroke-width="0.5" stroke="black" d="M 122 137 255 134"/>
<path stroke-width="0.5" stroke="black" d="M 122 137 243 277"/>
<path stroke-width="0.5" stroke="black" d="M 122 137 324 231"/>
<path stroke-width="0.5" stroke="black" d="M 122 137 182 104"/>
<path stroke-width="0.5" stroke="black" d="M 122 137 356 169"/>
<path stroke-width="0.5" stroke="black" d="M 122 137 113 195"/>
<path stroke-width="0.5" stroke="black" d="M 122 137 153 247"/>
<path stroke-width="0.5" stroke="black" d="M 122 137 312 97"/>
<path stroke-width="20.0" stroke="black" d="M 56 115 122 137"/>
<path stroke-width="0.5" stroke="black" d="M 233 182 122 137"/>
<path stroke-width="17.89189189189189" stroke="black" d="M 233 182 208 200"/>
<path stroke-width="0.5" stroke="black" d="M 324 231 312 97"/>
<path stroke-width="0.5" stroke="black" d="M 233 182 255 134"/>
<path stroke-width="0.5" stroke="black" d="M 233 182 324 231"/>
<path stroke-width="0.5" stroke="black" d="M 233 182 182 104"/>
<path stroke-width="0.5" stroke="black" d="M 233 182 356 169"/>
<path stroke-width="0.5" stroke="black" d="M 233 182 113 195"/>
<path stroke-width="0.5" stroke="black" d="M 233 182 153 247"/>
<path stroke-width="0.5" stroke="black" d="M 233 182 312 97"/>
<path stroke-width="17.89189189189189" stroke="black" d="M 208 200 233 182"/>
<path stroke-width="0.5" stroke="black" d="M 255 134 122 137"/>
<path stroke-width="0.5" stroke="black" d="M 255 134 233 182"/>
<path stroke-width="16.83783783783784" stroke="black" d="M 255 134 268 68"/>
<path stroke-width="0.5" stroke="black" d="M 255 134 243 277"/>
<path stroke-width="0.5" stroke="black" d="M 233 182 243 277"/>
<path stroke-width="12.621621621621621" stroke="black" d="M 383 263 324 231"/>
<path stroke-width="0.5" stroke="black" d="M 182 104 122 137"/>
<path stroke-width="0.5" stroke="black" d="M 182 104 233 182"/>
<path stroke-width="0.5" stroke="black" d="M 113 195 153 247"/>
<path stroke-width="0.5" stroke="black" d="M 113 195 312 97"/>
<path stroke-width="6.297297297297297" stroke="black" d="M 20 205 113 195"/>
<path stroke-width="0.5" stroke="black" d="M 153 247 122 137"/>
<path stroke-width="0.5" stroke="black" d="M 153 247 233 182"/>
<path stroke-width="0.5" stroke="black" d="M 153 247 255 134"/>
<path stroke-width="0.5" stroke="black" d="M 153 247 243 277"/>
<path stroke-width="0.5" stroke="black" d="M 153 247 324 231"/>
<path stroke-width="0.5" stroke="black" d="M 153 247 182 104"/>
<path stroke-width="0.5" stroke="black" d="M 153 247 356 169"/>
<path stroke-width="0.5" stroke="black" d="M 153 247 113 195"/>
<path stroke-width="6.297297297297297" stroke="black" d="M 113 195 20 205"/>
<path stroke-width="4.1891891891891895" stroke="black" d="M 153 247 72 299"/>
<path stroke-width="4.1891891891891895" stroke="black" d="M 72 299 153 247"/>
<path stroke-width="0.5" stroke="black" d="M 312 97 122 137"/>
<path stroke-width="0.5" stroke="black" d="M 312 97 233 182"/>
<path stroke-width="0.5" stroke="black" d="M 312 97 255 134"/>
<path stroke-width="0.5" stroke="black" d="M 312 97 243 277"/>
<path stroke-width="0.5" stroke="black" d="M 312 97 324 231"/>
<path stroke-width="0.5" stroke="black" d="M 312 97 182 104"/>
<path stroke-width="0.5" stroke="black" d="M 312 97 356 169"/>
<path stroke-width="0.5" stroke="black" d="M 312 97 113 195"/>
<path stroke-width="0.5" stroke="black" d="M 312 97 153 247"/>
<path stroke-width="3.135135135135135" stroke="black" d="M 312 97 390 20"/>
<path stroke-width="0.5" stroke="black" d="M 153 247 312 97"/>
<path stroke-width="0.5" stroke="black" d="M 122 137 233 182"/>
<path stroke-width="0.5" stroke="black" d="M 113 195 356 169"/>
<path stroke-width="0.5" stroke="black" d="M 113 195 324 231"/>
<path stroke-width="0.5" stroke="black" d="M 182 104 255 134"/>
<path stroke-width="0.5" stroke="black" d="M 182 104 243 277"/>
<path stroke-width="0.5" stroke="black" d="M 182 104 324 231"/>
<path stroke-width="10.513513513513514" stroke="black" d="M 182 104 146 22"/>
<path stroke-width="0.5" stroke="black" d="M 182 104 356 169"/>
<path stroke-width="0.5" stroke="black" d="M 182 104 113 195"/>
<path stroke-width="0.5" stroke="black" d="M 182 104 153 247"/>
<path stroke-width="0.5" stroke="black" d="M 182 104 312 97"/>
<path stroke-width="10.513513513513514" stroke="black" d="M 146 22 182 104"/>
<path stroke-width="0.5" stroke="black" d="M 356 169 122 137"/>
<path stroke-width="0.5" stroke="black" d="M 356 169 233 182"/>
<path stroke-width="0.5" stroke="black" d="M 113 195 182 104"/>
<path stroke-width="0.5" stroke="black" d="M 356 169 255 134"/>
<path stroke-width="0.5" stroke="black" d="M 356 169 324 231"/>
<path stroke-width="0.5" stroke="black" d="M 356 169 182 104"/>
<path stroke-width="8.405405405405405" stroke="black" d="M 356 169 420 163"/>
<path stroke-width="0.5" stroke="black" d="M 356 169 113 195"/>
<path stroke-width="0.5" stroke="black" d="M 356 169 153 247"/>
<path stroke-width="0.5" stroke="black" d="M 356 169 312 97"/>
<path stroke-width="8.405405405405405" stroke="black" d="M 420 163 356 169"/>
<path stroke-width="0.5" stroke="black" d="M 113 195 122 137"/>
<path stroke-width="0.5" stroke="black" d="M 113 195 233 182"/>
<path stroke-width="0.5" stroke="black" d="M 113 195 255 134"/>
<path stroke-width="0.5" stroke="black" d="M 113 195 243 277"/>
<path stroke-width="0.5" stroke="black" d="M 356 169 243 277"/>
<path stroke-width="20.0" stroke="black" d="M 122 137 56 115"/>
<circle cx="390" cy="20" r="20.0" style="fill:gray;stroke:black;stroke-width:1.0"/>
<circle cx="312" cy="97" r="20.0" style="fill:gray;stroke:black;stroke-width:1.0"/>
<circle cx="72" cy="299" r="20.0" style="fill:gray;stroke:black;stroke-width:1.0"/>
<circle cx="153" cy="247" r="20.0" style="fill:gray;stroke:black;stroke-width:1.0"/>
<circle cx="20" cy="205" r="20.0" style="fill:gray;stroke:black;stroke-width:1.0"/>
<circle cx="113" cy="195" r="20.0" style="fill:gray;stroke:black;stroke-width:1.0"/>
<circle cx="420" cy="163" r="20.0" style="fill:gray;stroke:black;stroke-width:1.0"/>
<circle cx="356" cy="169" r="20.0" style="fill:gray;stroke:black;stroke-width:1.0"/>
<circle cx="146" cy="22" r="20.0" style="fill:gray;stroke:black;stroke-width:1.0"/>
<circle cx="182" cy="104" r="20.0" style="fill:gray;stroke:black;stroke-width:1.0"/>
<circle cx="383" cy="263" r="20.0" style="fill:gray;stroke:black;stroke-width:1.0"/>
<circle cx="324" cy="231" r="20.0" style="fill:gray;stroke:black;stroke-width:1.0"/>
<circle cx="249" cy="320" r="20.0" style="fill:gray;stroke:black;stroke-width:1.0"/>
<circle cx="243" cy="277" r="20.0" style="fill:gray;stroke:black;stroke-width:1.0"/>
<circle cx="268" cy="68" r="20.0" style="fill:gray;stroke:black;stroke-width:1.0"/>
<circle cx="255" cy="134" r="20.0" style="fill:gray;stroke:black;stroke-width:1.0"/>
<circle cx="208" cy="200" r="20.0" style="fill:gray;stroke:black;stroke-width:1.0"/>
<circle cx="233" cy="182" r="20.0" style="fill:gray;stroke:black;stroke-width:1.0"/>
<circle cx="56" cy="115" r="20.0" style="fill:gray;stroke:black;stroke-width:1.0"/>
<circle cx="122" cy="137" r="20.0" style="fill:gray;stroke:black;stroke-width:1.0"/>
</svg>
