<svg width="440" height="340" xmlns="http://www.w3.org/2000/svg">
<path stroke-width="8.3" stroke="black" d="M 20 148 44 135"/>
<path stroke-width="0.5" stroke="black" d="M 370 298 352 268"/>
<path stroke-width="0.5" stroke="black" d="M 370 298 399 269"/>
<path stroke-width="20.0" stroke="black" d="M 83 181 96 164"/>
<path stroke-width="0.5" stroke="black" d="M 96 164 44 135"/>
<path stroke-width="0.5" stroke="black" d="M 96 164 160 164"/>
<path stroke-width="20.0" stroke="black" d="M 96 164 83 181"/>
<path stroke-width="20.0" stroke="black" d="M 333 260 352 268"/>
<path stroke-width="8.3" stroke="black" d="M 370 298 363 320"/>
<path stroke-width="0.5" stroke="black" d="M 352 268 370 298"/>
<path stroke-width="0.5" stroke="black" d="M 352 268 399 269"/>
<path stroke-width="20.0" stroke="black" d="M 216 117 203 113"/>
<path stroke-width="0.5" stroke="black" d="M 203 113 160 164"/>
<path stroke-width="0.5" stroke="black" d="M 203 113 178 59"/>
<path stroke-width="20.0" stroke="black" d="M 203 113 216 117"/>
<path stroke-width="20.0" stroke="black" d="M 420 261 399 269"/>
<path stroke-width="0.5" stroke="black" d="M 399 269 370 298"/>
<path stroke-width="20.0" stroke="black" d="M 352 268 333 260"/>
<path stroke-width="8.3" stroke="black" d="M 363 320 370 298"/>
<path stroke-width="0.5" stroke="black" d="M 178 59 203 113"/>
<path stroke-width="20.0" stroke="black" d="M 178 59 203 42"/>
<path stroke-width="8.3" stroke="black" d="M 44 135 20 148"/>
<path stroke-width="0.5" stroke="black" d="M 44 135 58 76"/>
<path stroke-width="0.5" stroke="black" d="M 44 135 96 164"/>
<path stroke-width="20.0" stroke="black" d="M 40 70 58 76"/>
<path stroke-width="0.5" stroke="black" d="M 58 76 44 135"/>
<path stroke-width="20.0" stroke="black" d="M 58 76 40 70"/>
<path stroke-width="0.5" stroke="black" d="M 58 76 115 43"/>
<path stroke-width="8.3" stroke="black" d="M 167 189 160 164"/>
<path stroke-width="8.3" stroke="black" d="M 160 164 167 189"/>
<path stroke-width="0.5" stroke="black" d="M 160 164 96 164"/>
<path stroke-width="0.5" stroke="black" d="M 160 164 203 113"/>
<path stroke-width="20.0" stroke="black" d="M 109 20 115 43"/>
<path stroke-width="0.5" stroke="black" d="M 115 43 58 76"/>
<path stroke-width="20.0" stroke="black" d="M 115 43 109 20"/>
<path stroke-width="0.5" stroke="black" d="M 115 43 178 59"/>
<path stroke-width="20.0" stroke="black" d="M 203 42 178 59"/>
<path stroke-width="0.5" stroke="black" d="M 178 59 115 43"/>
<path stroke-width="0.5" stroke="black" d="M 399 269 352 268"/>
<path stroke-width="20.0" stroke="black" d="M 399 269 420 261"/>
<circle cx="20" cy="148" r="7.0" style="fill:gray;stroke:black;stroke-width:1.0"/>
<circle cx="44" cy="135" r="7.0" style="fill:gray;stroke:black;stroke-width:1.0"/>
<circle cx="40" cy="70" r="7.0" style="fill:gray;stroke:black;stroke-width:1.0"/>
<circle cx="58" cy="76" r="7.0" style="fill:gray;stroke:black;stroke-width:1.0"/>
<circle cx="167" cy="189" r="7.0" style="fill:gray;stroke:black;stroke-width:1.0"/>
<circle cx="160" cy="164" r="7.0" style="fill:gray;stroke:black;stroke-width:1.0"/>
<circle cx="109" cy="20" r="7.0" style="fill:gray;stroke:black;stroke-width:1.0"/>
<circle cx="115" cy="43" r="7.0" style="fill:gray;stroke:black;stroke-width:1.0"/>
<circle cx="203" cy="42" r="7.0" style="fill:gray;stroke:black;stroke-width:1.0"/>
<circle cx="178" cy="59" r="7.0" style="fill:gray;stroke:black;stroke-width:1.0"/>
<circle cx="363" cy="320" r="7.0" style="fill:gray;stroke:black;stroke-width:1.0"/>
<circle cx="370" cy="298" r="7.0" style="fill:gray;stroke:black;stroke-width:1.0"/>
<circle cx="83" cy="181" r="7.0" style="fill:gray;stroke:black;stroke-width:1.0"/>
<circle cx="96" cy="164" r="7.0" style="fill:gray;stroke:black;stroke-width:1.0"/>
<circle cx="333" cy="260" r="7.0" style="fill:gray;stroke:black;stroke-width:1.0"/>
<circle cx="352" cy="268" r="7.0" style="fill:gray;stroke:black;stroke-width:1.0"/>
<circle cx="216" cy="117" r="7.0" style="fill:gray;stroke:black;stroke-width:1.0"/>
<circle cx="203" cy="113" r="7.0" style="fill:gray;stroke:black;stroke-width:1.0"/>
<circle cx="420" cy="261" r="7.0" style="fill:gray;stroke:black;stroke-width:1.0"/>
<circle cx="399" cy="269" r="7.0" style="fill:gray;stroke:black;stroke-width:1.0"/>
</svg>
