<svg width="440" height="340" xmlns="http://www.w3.org/2000/svg">
<path stroke-width="1" stroke="black" d="M 190 220 174 237"/>
<path stroke-width="1" stroke="black" d="M 398 60 358 48"/>
<path stroke-width="1" stroke="black" d="M 398 60 389 33"/>
<path stroke-width="1" stroke="black" d="M 96 226 109 237"/>
<path stroke-width="1" stroke="black" d="M 109 237 174 237"/>
<path stroke-width="1" stroke="black" d="M 109 237 50 252"/>
<path stroke-width="1" stroke="black" d="M 109 237 96 226"/>
<path stroke-width="1" stroke="black" d="M 339 46 358 48"/>
<path stroke-width="1" stroke="black" d="M 398 60 420 72"/>
<path stroke-width="1" stroke="black" d="M 358 48 398 60"/>
<path stroke-width="1" stroke="black" d="M 358 48 389 33"/>
<path stroke-width="1" stroke="black" d="M 52 300 74 291"/>
<path stroke-width="1" stroke="black" d="M 74 291 50 252"/>
<path stroke-width="1" stroke="black" d="M 74 291 143 304"/>
<path stroke-width="1" stroke="black" d="M 74 291 52 300"/>
<path stroke-width="1" stroke="black" d="M 395 20 389 33"/>
<path stroke-width="1" stroke="black" d="M 389 33 398 60"/>
<path stroke-width="1" stroke="black" d="M 358 48 339 46"/>
<path stroke-width="1" stroke="black" d="M 420 72 398 60"/>
<path stroke-width="1" stroke="black" d="M 143 304 74 291"/>
<path stroke-width="1" stroke="black" d="M 143 304 142 320"/>
<path stroke-width="1" stroke="black" d="M 174 237 190 220"/>
<path stroke-width="1" stroke="black" d="M 174 237 237 253"/>
<path stroke-width="1" stroke="black" d="M 174 237 109 237"/>
<path stroke-width="1" stroke="black" d="M 254 254 237 253"/>
<path stroke-width="1" stroke="black" d="M 237 253 174 237"/>
<path stroke-width="1" stroke="black" d="M 237 253 254 254"/>
<path stroke-width="1" stroke="black" d="M 237 253 211 294"/>
<path stroke-width="1" stroke="black" d="M 20 244 50 252"/>
<path stroke-width="1" stroke="black" d="M 50 252 20 244"/>
<path stroke-width="1" stroke="black" d="M 50 252 109 237"/>
<path stroke-width="1" stroke="black" d="M 50 252 74 291"/>
<path stroke-width="1" stroke="black" d="M 233 300 211 294"/>
<path stroke-width="1" stroke="black" d="M 211 294 237 253"/>
<path stroke-width="1" stroke="black" d="M 211 294 233 300"/>
<path stroke-width="1" stroke="black" d="M 211 294 143 304"/>
<path stroke-width="1" stroke="black" d="M 142 320 143 304"/>
<path stroke-width="1" stroke="black" d="M 143 304 211 294"/>
<path stroke-width="1" stroke="black" d="M 389 33 358 48"/>
<path stroke-width="1" stroke="black" d="M 389 33 395 20"/>
<circle cx="190" cy="220" r="7.0" style="fill:blue;stroke:black;stroke-width:1.0"/>
<circle cx="174" cy="237" r="7.0" style="fill:blue;stroke:black;stroke-width:1.0"/>
<circle cx="254" cy="254" r="7.0" style="fill:blue;stroke:black;stroke-width:1.0"/>
<circle cx="237" cy="253" r="7.0" style="fill:blue;stroke:black;stroke-width:1.0"/>
<circle cx="20" cy="244" r="7.0" style="fill:red;stroke:black;stroke-width:1.0"/>
<circle cx="50" cy="252" r="7.0" style="fill:red;stroke:black;stroke-width:1.0"/>
<circle cx="233" cy="300" r="7.0" style="fill:orange;stroke:black;stroke-width:1.0"/>
<circle cx="211" cy="294" r="7.0" style="fill:orange;stroke:black;stroke-width:1.0"/>
<circle cx="142" cy="320" r="7.0" style="fill:purple;stroke:black;stroke-width:1.0"/>
<circle cx="143" cy="304" r="7.0" style="fill:purple;stroke:black;stroke-width:1.0"/>
<circle cx="420" cy="72" r="7.0" style="fill:green;stroke:black;stroke-width:1.0"/>
<circle cx="398" cy="60" r="7.0" style="fill:green;stroke:black;stroke-width:1.0"/>
<circle cx="96" cy="226" r="7.0" style="fill:yellow;stroke:black;stroke-width:1.0"/>
<circle cx="109" cy="237" r="7.0" style="fill:yellow;stroke:black;stroke-width:1.0"/>
<circle cx="339" cy="46" r="7.0" style="fill:fuchsia;stroke:black;stroke-width:1.0"/>
<circle cx="358" cy="48" r="7.0" style="fill:fuchsia;stroke:black;stroke-width:1.0"/>
<circle cx="52" cy="300" r="7.0" style="fill:red;stroke:black;stroke-width:1.0"/>
<circle cx="74" cy="291" r="7.0" style="fill:red;stroke:black;stroke-width:1.0"/>
<circle cx="395" cy="20" r="7.0" style="fill:green;stroke:black;stroke-width:1.0"/>
<circle cx="389" cy="33" r="7.0" style="fill:green;stroke:black;stroke-width:1.0"/>
</svg>
