<svg width="440" height="340" xmlns="http://www.w3.org/2000/svg">
<path stroke-width="8.3" stroke="black" d="M 247 281 221 286"/>
<path stroke-width="0.5" stroke="black" d="M 402 36 372 32"/>
<path stroke-width="0.5" stroke="black" d="M 402 36 397 24"/>
<path stroke-width="20.0" stroke="black" d="M 231 304 209 302"/>
<path stroke-width="0.5" stroke="black" d="M 209 302 221 286"/>
<path stroke-width="0.5" stroke="black" d="M 209 302 139 306"/>
<path stroke-width="20.0" stroke="black" d="M 209 302 231 304"/>
<path stroke-width="20.0" stroke="black" d="M 352 35 372 32"/>
<path stroke-width="8.3" stroke="black" d="M 402 36 420 42"/>
<path stroke-width="0.5" stroke="black" d="M 372 32 402 36"/>
<path stroke-width="0.5" stroke="black" d="M 372 32 397 24"/>
<path stroke-width="20.0" stroke="black" d="M 40 300 63 303"/>
<path stroke-width="0.5" stroke="black" d="M 63 303 139 306"/>
<path stroke-width="0.5" stroke="black" d="M 63 303 34 317"/>
<path stroke-width="20.0" stroke="black" d="M 63 303 40 300"/>
<path stroke-width="20.0" stroke="black" d="M 415 20 397 24"/>
<path stroke-width="0.5" stroke="black" d="M 397 24 402 36"/>
<path stroke-width="20.0" stroke="black" d="M 372 32 352 35"/>
<path stroke-width="8.3" stroke="black" d="M 420 42 402 36"/>
<path stroke-width="0.5" stroke="black" d="M 34 317 63 303"/>
<path stroke-width="20.0" stroke="black" d="M 34 317 20 320"/>
<path stroke-width="8.3" stroke="black" d="M 221 286 247 281"/>
<path stroke-width="0.5" stroke="black" d="M 221 286 157 294"/>
<path stroke-width="0.5" stroke="black" d="M 221 286 209 302"/>
<path stroke-width="20.0" stroke="black" d="M 160 285 157 294"/>
<path stroke-width="0.5" stroke="black" d="M 157 294 221 286"/>
<path stroke-width="20.0" stroke="black" d="M 157 294 160 285"/>
<path stroke-width="0.5" stroke="black" d="M 157 294 97 307"/>
<path stroke-width="8.3" stroke="black" d="M 149 314 139 306"/>
<path stroke-width="8.3" stroke="black" d="M 139 306 149 314"/>
<path stroke-width="0.5" stroke="black" d="M 139 306 209 302"/>
<path stroke-width="0.5" stroke="black" d="M 139 306 63 303"/>
<path stroke-width="20.0" stroke="black" d="M 93 315 97 307"/>
<path stroke-width="0.5" stroke="black" d="M 97 307 157 294"/>
<path stroke-width="20.0" stroke="black" d="M 97 307 93 315"/>
<path stroke-width="0.5" stroke="black" d="M 97 307 34 317"/>
<path stroke-width="20.0" stroke="black" d="M 20 320 34 317"/>
<path stroke-width="0.5" stroke="black" d="M 34 317 97 307"/>
<path stroke-width="0.5" stroke="black" d="M 397 24 372 32"/>
<path stroke-width="20.0" stroke="black" d="M 397 24 415 20"/>
<circle cx="247" cy="281" r="7.0" style="fill:gray;stroke:black;stroke-width:1.0"/>
<circle cx="221" cy="286" r="7.0" style="fill:gray;stroke:black;stroke-width:1.0"/>
<circle cx="160" cy="285" r="7.0" style="fill:gray;stroke:black;stroke-width:1.0"/>
<circle cx="157" cy="294" r="7.0" style="fill:gray;stroke:black;stroke-width:1.0"/>
<circle cx="149" cy="314" r="7.0" style="fill:gray;stroke:black;stroke-width:1.0"/>
<circle cx="139" cy="306" r="7.0" style="fill:gray;stroke:black;stroke-width:1.0"/>
<circle cx="93" cy="315" r="7.0" style="fill:gray;stroke:black;stroke-width:1.0"/>
<circle cx="97" cy="307" r="7.0" style="fill:gray;stroke:black;stroke-width:1.0"/>
<circle cx="20" cy="320" r="7.0" style="fill:gray;stroke:black;stroke-width:1.0"/>
<circle cx="34" cy="317" r="7.0" style="fill:gray;stroke:black;stroke-width:1.0"/>
<circle cx="420" cy="42" r="7.0" style="fill:gray;stroke:black;stroke-width:1.0"/>
<circle cx="402" cy="36" r="7.0" style="fill:gray;stroke:black;stroke-width:1.0"/>
<circle cx="231" cy="304" r="7.0" style="fill:gray;stroke:black;stroke-width:1.0"/>
<circle cx="209" cy="302" r="7.0" style="fill:gray;stroke:black;stroke-width:1.0"/>
<circle cx="352" cy="35" r="7.0" style="fill:gray;stroke:black;stroke-width:1.0"/>
<circle cx="372" cy="32" r="7.0" style="fill:gray;stroke:black;stroke-width:1.0"/>
<circle cx="40" cy="300" r="7.0" style="fill:gray;stroke:black;stroke-width:1.0"/>
<circle cx="63" cy="303" r="7.0" style="fill:gray;stroke:black;stroke-width:1.0"/>
<circle cx="415" cy="20" r="7.0" style="fill:gray;stroke:black;stroke-width:1.0"/>
<circle cx="397" cy="24" r="7.0" style="fill:gray;stroke:black;stroke-width:1.0"/>
</svg>
