<svg width="440" height="340" xmlns="http://www.w3.org/2000/svg">
<path stroke-width="20.0" stroke="black" d="M 169 222 185 218"/>
<path stroke-width="0.5" stroke="black" d="M 186 270 390 248"/>
<path stroke-width="0.5" stroke="black" d="M 186 270 108 285"/>
<path stroke-width="0.5" stroke="black" d="M 186 270 163 318"/>
<path stroke-width="0.5" stroke="black" d="M 186 270 416 220"/>
<path stroke-width="0.5" stroke="black" d="M 186 270 241 201"/>
<path stroke-width="8.857142857142858" stroke="black" d="M 205 20 169 222"/>
<path stroke-width="3.2857142857142856" stroke="black" d="M 205 20 185 218"/>
<path stroke-width="0.5" stroke="black" d="M 205 20 420 135"/>
<path stroke-width="0.5" stroke="black" d="M 205 20 329 53"/>
<path stroke-width="0.5" stroke="black" d="M 205 20 315 225"/>
<path stroke-width="4.678571428571429" stroke="black" d="M 205 20 357 63"/>
<path stroke-width="0.5" stroke="black" d="M 205 20 155 110"/>
<path stroke-width="0.5" stroke="black" d="M 205 20 65 80"/>
<path stroke-width="0.5" stroke="black" d="M 205 20 257 304"/>
<path stroke-width="0.5" stroke="black" d="M 205 20 398 136"/>
<path stroke-width="0.5" stroke="black" d="M 205 20 85 194"/>
<path stroke-width="0.5" stroke="black" d="M 205 20 73 250"/>
<path stroke-width="0.5" stroke="black" d="M 186 270 20 184"/>
<path stroke-width="0.5" stroke="black" d="M 186 270 72 158"/>
<path stroke-width="0.5" stroke="black" d="M 186 270 206 24"/>
<path stroke-width="0.5" stroke="black" d="M 186 270 205 20"/>
<path stroke-width="4.678571428571429" stroke="black" d="M 355 284 241 201"/>
<path stroke-width="8.857142857142858" stroke="black" d="M 186 270 169 222"/>
<path stroke-width="3.2857142857142856" stroke="black" d="M 186 270 185 218"/>
<path stroke-width="0.5" stroke="black" d="M 186 270 420 135"/>
<path stroke-width="0.5" stroke="black" d="M 186 270 329 53"/>
<path stroke-width="0.5" stroke="black" d="M 186 270 315 225"/>
<path stroke-width="0.5" stroke="black" d="M 186 270 357 63"/>
<path stroke-width="4.678571428571429" stroke="black" d="M 186 270 155 110"/>
<path stroke-width="0.5" stroke="black" d="M 205 20 50 231"/>
<path stroke-width="0.5" stroke="black" d="M 186 270 65 80"/>
<path stroke-width="0.5" stroke="black" d="M 186 270 398 136"/>
<path stroke-width="0.5" stroke="black" d="M 186 270 85 194"/>
<path stroke-width="0.5" stroke="black" d="M 186 270 73 250"/>
<path stroke-width="0.5" stroke="black" d="M 186 270 50 231"/>
<path stroke-width="0.5" stroke="black" d="M 186 270 256 90"/>
<path stroke-width="0.5" stroke="black" d="M 186 270 272 320"/>
<path stroke-width="0.5" stroke="black" d="M 186 270 74 68"/>
<path stroke-width="0.5" stroke="black" d="M 186 270 355 284"/>
<path stroke-width="0.5" stroke="black" d="M 186 270 257 304"/>
<path stroke-width="0.5" stroke="black" d="M 205 20 256 90"/>
<path stroke-width="0.5" stroke="black" d="M 205 20 272 320"/>
<path stroke-width="0.5" stroke="black" d="M 205 20 74 68"/>
<path stroke-width="0.5" stroke="black" d="M 206 24 50 231"/>
<path stroke-width="0.5" stroke="black" d="M 206 24 256 90"/>
<path stroke-width="0.5" stroke="black" d="M 206 24 272 320"/>
<path stroke-width="0.5" stroke="black" d="M 206 24 74 68"/>
<path stroke-width="0.5" stroke="black" d="M 206 24 355 284"/>
<path stroke-width="0.5" stroke="black" d="M 206 24 186 270"/>
<path stroke-width="0.5" stroke="black" d="M 206 24 205 20"/>
<path stroke-width="0.5" stroke="black" d="M 206 24 72 158"/>
<path stroke-width="0.5" stroke="black" d="M 206 24 73 250"/>
<path stroke-width="0.5" stroke="black" d="M 206 24 20 184"/>
<path stroke-width="0.5" stroke="black" d="M 206 24 108 285"/>
<path stroke-width="0.5" stroke="black" d="M 206 24 163 318"/>
<path stroke-width="0.5" stroke="black" d="M 206 24 416 220"/>
<path stroke-width="0.5" stroke="black" d="M 206 24 241 201"/>
<path stroke-width="8.857142857142858" stroke="black" d="M 72 158 169 222"/>
<path stroke-width="3.2857142857142856" stroke="black" d="M 72 158 185 218"/>
<path stroke-width="0.5" stroke="black" d="M 72 158 420 135"/>
<path stroke-width="4.678571428571429" stroke="black" d="M 72 158 329 53"/>
<path stroke-width="0.5" stroke="black" d="M 206 24 390 248"/>
<path stroke-width="0.5" stroke="black" d="M 355 284 416 220"/>
<path stroke-width="0.5" stroke="black" d="M 206 24 85 194"/>
<path stroke-width="0.5" stroke="black" d="M 206 24 257 304"/>
<path stroke-width="0.5" stroke="black" d="M 205 20 355 284"/>
<path stroke-width="0.5" stroke="black" d="M 205 20 186 270"/>
<path stroke-width="0.5" stroke="black" d="M 205 20 206 24"/>
<path stroke-width="0.5" stroke="black" d="M 205 20 72 158"/>
<path stroke-width="0.5" stroke="black" d="M 205 20 20 184"/>
<path stroke-width="0.5" stroke="black" d="M 205 20 390 248"/>
<path stroke-width="0.5" stroke="black" d="M 205 20 108 285"/>
<path stroke-width="0.5" stroke="black" d="M 205 20 163 318"/>
<path stroke-width="0.5" stroke="black" d="M 206 24 398 136"/>
<path stroke-width="0.5" stroke="black" d="M 205 20 416 220"/>
<path stroke-width="8.857142857142858" stroke="black" d="M 206 24 169 222"/>
<path stroke-width="3.2857142857142856" stroke="black" d="M 206 24 185 218"/>
<path stroke-width="0.5" stroke="black" d="M 206 24 420 135"/>
<path stroke-width="0.5" stroke="black" d="M 206 24 329 53"/>
<path stroke-width="4.678571428571429" stroke="black" d="M 206 24 315 225"/>
<path stroke-width="0.5" stroke="black" d="M 206 24 357 63"/>
<path stroke-width="0.5" stroke="black" d="M 206 24 155 110"/>
<path stroke-width="0.5" stroke="black" d="M 206 24 65 80"/>
<path stroke-width="0.5" stroke="black" d="M 205 20 241 201"/>
<path stroke-width="0.5" stroke="black" d="M 355 284 163 318"/>
<path stroke-width="0.5" stroke="black" d="M 355 284 108 285"/>
<path stroke-width="0.5" stroke="black" d="M 355 284 390 248"/>
<path stroke-width="0.5" stroke="black" d="M 272 320 73 250"/>
<path stroke-width="0.5" stroke="black" d="M 272 320 50 231"/>
<path stroke-width="0.5" stroke="black" d="M 272 320 256 90"/>
<path stroke-width="0.5" stroke="black" d="M 272 320 74 68"/>
<path stroke-width="0.5" stroke="black" d="M 272 320 355 284"/>
<path stroke-width="0.5" stroke="black" d="M 272 320 186 270"/>
<path stroke-width="0.5" stroke="black" d="M 272 320 205 20"/>
<path stroke-width="0.5" stroke="black" d="M 272 320 206 24"/>
<path stroke-width="0.5" stroke="black" d="M 272 320 85 194"/>
<path stroke-width="0.5" stroke="black" d="M 272 320 72 158"/>
<path stroke-width="0.5" stroke="black" d="M 272 320 390 248"/>
<path stroke-width="0.5" stroke="black" d="M 272 320 108 285"/>
<path stroke-width="0.5" stroke="black" d="M 272 320 163 318"/>
<path stroke-width="0.5" stroke="black" d="M 272 320 416 220"/>
<path stroke-width="0.5" stroke="black" d="M 272 320 241 201"/>
<path stroke-width="8.857142857142858" stroke="black" d="M 74 68 169 222"/>
<path stroke-width="3.2857142857142856" stroke="black" d="M 74 68 185 218"/>
<path stroke-width="0.5" stroke="black" d="M 74 68 420 135"/>
<path stroke-width="0.5" stroke="black" d="M 272 320 20 184"/>
<path stroke-width="0.5" stroke="black" d="M 74 68 329 53"/>
<path stroke-width="0.5" stroke="black" d="M 272 320 398 136"/>
<path stroke-width="0.5" stroke="black" d="M 272 320 65 80"/>
<path stroke-width="0.5" stroke="black" d="M 256 90 355 284"/>
<path stroke-width="0.5" stroke="black" d="M 256 90 186 270"/>
<path stroke-width="0.5" stroke="black" d="M 256 90 205 20"/>
<path stroke-width="0.5" stroke="black" d="M 256 90 206 24"/>
<path stroke-width="0.5" stroke="black" d="M 256 90 72 158"/>
<path stroke-width="0.5" stroke="black" d="M 256 90 20 184"/>
<path stroke-width="0.5" stroke="black" d="M 256 90 390 248"/>
<path stroke-width="0.5" stroke="black" d="M 256 90 108 285"/>
<path stroke-width="4.678571428571429" stroke="black" d="M 272 320 257 304"/>
<path stroke-width="0.5" stroke="black" d="M 256 90 163 318"/>
<path stroke-width="0.5" stroke="black" d="M 256 90 241 201"/>
<path stroke-width="8.857142857142858" stroke="black" d="M 272 320 169 222"/>
<path stroke-width="3.2857142857142856" stroke="black" d="M 272 320 185 218"/>
<path stroke-width="0.5" stroke="black" d="M 272 320 420 135"/>
<path stroke-width="0.5" stroke="black" d="M 272 320 329 53"/>
<path stroke-width="0.5" stroke="black" d="M 272 320 315 225"/>
<path stroke-width="0.5" stroke="black" d="M 272 320 357 63"/>
<path stroke-width="0.5" stroke="black" d="M 272 320 155 110"/>
<path stroke-width="0.5" stroke="black" d="M 256 90 416 220"/>
<path stroke-width="0.5" stroke="black" d="M 72 158 315 225"/>
<path stroke-width="0.5" stroke="black" d="M 74 68 315 225"/>
<path stroke-width="0.5" stroke="black" d="M 74 68 155 110"/>
<path stroke-width="0.5" stroke="black" d="M 355 284 329 53"/>
<path stroke-width="0.5" stroke="black" d="M 355 284 315 225"/>
<path stroke-width="0.5" stroke="black" d="M 355 284 357 63"/>
<path stroke-width="0.5" stroke="black" d="M 355 284 155 110"/>
<path stroke-width="0.5" stroke="black" d="M 355 284 65 80"/>
<path stroke-width="0.5" stroke="black" d="M 355 284 257 304"/>
<path stroke-width="0.5" stroke="black" d="M 355 284 398 136"/>
<path stroke-width="0.5" stroke="black" d="M 355 284 85 194"/>
<path stroke-width="0.5" stroke="black" d="M 355 284 420 135"/>
<path stroke-width="0.5" stroke="black" d="M 355 284 73 250"/>
<path stroke-width="0.5" stroke="black" d="M 355 284 256 90"/>
<path stroke-width="0.5" stroke="black" d="M 355 284 272 320"/>
<path stroke-width="0.5" stroke="black" d="M 355 284 74 68"/>
<path stroke-width="0.5" stroke="black" d="M 355 284 186 270"/>
<path stroke-width="0.5" stroke="black" d="M 355 284 205 20"/>
<path stroke-width="0.5" stroke="black" d="M 355 284 206 24"/>
<path stroke-width="0.5" stroke="black" d="M 355 284 72 158"/>
<path stroke-width="0.5" stroke="black" d="M 355 284 20 184"/>
<path stroke-width="0.5" stroke="black" d="M 355 284 50 231"/>
<path stroke-width="0.5" stroke="black" d="M 74 68 357 63"/>
<path stroke-width="3.2857142857142856" stroke="black" d="M 355 284 185 218"/>
<path stroke-width="0.5" stroke="black" d="M 74 68 241 201"/>
<path stroke-width="4.678571428571429" stroke="black" d="M 74 68 65 80"/>
<path stroke-width="0.5" stroke="black" d="M 74 68 257 304"/>
<path stroke-width="0.5" stroke="black" d="M 74 68 398 136"/>
<path stroke-width="0.5" stroke="black" d="M 74 68 85 194"/>
<path stroke-width="0.5" stroke="black" d="M 74 68 73 250"/>
<path stroke-width="0.5" stroke="black" d="M 74 68 50 231"/>
<path stroke-width="0.5" stroke="black" d="M 74 68 256 90"/>
<path stroke-width="0.5" stroke="black" d="M 74 68 272 320"/>
<path stroke-width="8.857142857142858" stroke="black" d="M 355 284 169 222"/>
<path stroke-width="0.5" stroke="black" d="M 74 68 355 284"/>
<path stroke-width="0.5" stroke="black" d="M 74 68 205 20"/>
<path stroke-width="0.5" stroke="black" d="M 74 68 206 24"/>
<path stroke-width="0.5" stroke="black" d="M 74 68 72 158"/>
<path stroke-width="0.5" stroke="black" d="M 74 68 20 184"/>
<path stroke-width="0.5" stroke="black" d="M 74 68 390 248"/>
<path stroke-width="0.5" stroke="black" d="M 74 68 108 285"/>
<path stroke-width="0.5" stroke="black" d="M 74 68 163 318"/>
<path stroke-width="0.5" stroke="black" d="M 74 68 416 220"/>
<path stroke-width="0.5" stroke="black" d="M 74 68 186 270"/>
<path stroke-width="0.5" stroke="black" d="M 72 158 357 63"/>
<path stroke-width="0.5" stroke="black" d="M 72 158 155 110"/>
<path stroke-width="0.5" stroke="black" d="M 72 158 65 80"/>
<path stroke-width="0.5" stroke="black" d="M 163 318 272 320"/>
<path stroke-width="0.5" stroke="black" d="M 163 318 74 68"/>
<path stroke-width="0.5" stroke="black" d="M 163 318 355 284"/>
<path stroke-width="0.5" stroke="black" d="M 163 318 186 270"/>
<path stroke-width="0.5" stroke="black" d="M 163 318 205 20"/>
<path stroke-width="0.5" stroke="black" d="M 163 318 206 24"/>
<path stroke-width="0.5" stroke="black" d="M 163 318 72 158"/>
<path stroke-width="0.5" stroke="black" d="M 163 318 20 184"/>
<path stroke-width="0.5" stroke="black" d="M 163 318 256 90"/>
<path stroke-width="0.5" stroke="black" d="M 163 318 390 248"/>
<path stroke-width="0.5" stroke="black" d="M 163 318 416 220"/>
<path stroke-width="0.5" stroke="black" d="M 163 318 241 201"/>
<path stroke-width="8.857142857142858" stroke="black" d="M 416 220 169 222"/>
<path stroke-width="3.2857142857142856" stroke="black" d="M 416 220 185 218"/>
<path stroke-width="0.5" stroke="black" d="M 416 220 420 135"/>
<path stroke-width="0.5" stroke="black" d="M 416 220 329 53"/>
<path stroke-width="0.5" stroke="black" d="M 416 220 315 225"/>
<path stroke-width="0.5" stroke="black" d="M 416 220 357 63"/>
<path stroke-width="0.5" stroke="black" d="M 163 318 108 285"/>
<path stroke-width="0.5" stroke="black" d="M 416 220 155 110"/>
<path stroke-width="0.5" stroke="black" d="M 163 318 50 231"/>
<path stroke-width="0.5" stroke="black" d="M 163 318 85 194"/>
<path stroke-width="0.5" stroke="black" d="M 108 285 205 20"/>
<path stroke-width="0.5" stroke="black" d="M 108 285 206 24"/>
<path stroke-width="0.5" stroke="black" d="M 108 285 72 158"/>
<path stroke-width="0.5" stroke="black" d="M 108 285 20 184"/>
<path stroke-width="0.5" stroke="black" d="M 108 285 390 248"/>
<path stroke-width="0.5" stroke="black" d="M 108 285 163 318"/>
<path stroke-width="0.5" stroke="black" d="M 108 285 416 220"/>
<path stroke-width="0.5" stroke="black" d="M 108 285 241 201"/>
<path stroke-width="0.5" stroke="black" d="M 163 318 73 250"/>
<path stroke-width="7.464285714285714" stroke="black" d="M 163 318 169 222"/>
<path stroke-width="0.5" stroke="black" d="M 163 318 420 135"/>
<path stroke-width="0.5" stroke="black" d="M 163 318 329 53"/>
<path stroke-width="0.5" stroke="black" d="M 163 318 315 225"/>
<path stroke-width="0.5" stroke="black" d="M 163 318 357 63"/>
<path stroke-width="0.5" stroke="black" d="M 163 318 155 110"/>
<path stroke-width="0.5" stroke="black" d="M 163 318 65 80"/>
<path stroke-width="0.5" stroke="black" d="M 163 318 257 304"/>
<path stroke-width="0.5" stroke="black" d="M 163 318 398 136"/>
<path stroke-width="3.2857142857142856" stroke="black" d="M 163 318 185 218"/>
<path stroke-width="0.5" stroke="black" d="M 108 285 186 270"/>
<path stroke-width="0.5" stroke="black" d="M 416 220 65 80"/>
<path stroke-width="4.678571428571429" stroke="black" d="M 416 220 398 136"/>
<path stroke-width="0.5" stroke="black" d="M 241 201 155 110"/>
<path stroke-width="0.5" stroke="black" d="M 241 201 65 80"/>
<path stroke-width="0.5" stroke="black" d="M 241 201 257 304"/>
<path stroke-width="0.5" stroke="black" d="M 241 201 398 136"/>
<path stroke-width="0.5" stroke="black" d="M 241 201 85 194"/>
<path stroke-width="0.5" stroke="black" d="M 241 201 73 250"/>
<path stroke-width="0.5" stroke="black" d="M 241 201 50 231"/>
<path stroke-width="0.5" stroke="black" d="M 241 201 256 90"/>
<path stroke-width="0.5" stroke="black" d="M 241 201 357 63"/>
<path stroke-width="0.5" stroke="black" d="M 241 201 272 320"/>
<path stroke-width="4.678571428571429" stroke="black" d="M 241 201 355 284"/>
<path stroke-width="0.5" stroke="black" d="M 241 201 186 270"/>
<path stroke-width="0.5" stroke="black" d="M 241 201 205 20"/>
<path stroke-width="0.5" stroke="black" d="M 241 201 206 24"/>
<path stroke-width="0.5" stroke="black" d="M 241 201 72 158"/>
<path stroke-width="0.5" stroke="black" d="M 241 201 20 184"/>
<path stroke-width="0.5" stroke="black" d="M 241 201 390 248"/>
<path stroke-width="0.5" stroke="black" d="M 241 201 108 285"/>
<path stroke-width="0.5" stroke="black" d="M 241 201 74 68"/>
<path stroke-width="0.5" stroke="black" d="M 416 220 257 304"/>
<path stroke-width="0.5" stroke="black" d="M 241 201 315 225"/>
<path stroke-width="0.5" stroke="black" d="M 241 201 420 135"/>
<path stroke-width="0.5" stroke="black" d="M 416 220 85 194"/>
<path stroke-width="0.5" stroke="black" d="M 416 220 73 250"/>
<path stroke-width="0.5" stroke="black" d="M 416 220 50 231"/>
<path stroke-width="0.5" stroke="black" d="M 416 220 256 90"/>
<path stroke-width="0.5" stroke="black" d="M 416 220 272 320"/>
<path stroke-width="0.5" stroke="black" d="M 416 220 74 68"/>
<path stroke-width="0.5" stroke="black" d="M 416 220 355 284"/>
<path stroke-width="0.5" stroke="black" d="M 416 220 186 270"/>
<path stroke-width="0.5" stroke="black" d="M 241 201 329 53"/>
<path stroke-width="0.5" stroke="black" d="M 416 220 205 20"/>
<path stroke-width="0.5" stroke="black" d="M 416 220 72 158"/>
<path stroke-width="0.5" stroke="black" d="M 416 220 20 184"/>
<path stroke-width="0.5" stroke="black" d="M 416 220 390 248"/>
<path stroke-width="0.5" stroke="black" d="M 416 220 108 285"/>
<path stroke-width="0.5" stroke="black" d="M 416 220 163 318"/>
<path stroke-width="0.5" stroke="black" d="M 416 220 241 201"/>
<path stroke-width="8.857142857142858" stroke="black" d="M 241 201 169 222"/>
<path stroke-width="3.2857142857142856" stroke="black" d="M 241 201 185 218"/>
<path stroke-width="0.5" stroke="black" d="M 416 220 206 24"/>
<path stroke-width="0.5" stroke="black" d="M 256 90 74 68"/>
<path stroke-width="0.5" stroke="black" d="M 108 285 355 284"/>
<path stroke-width="0.5" stroke="black" d="M 108 285 272 320"/>
<path stroke-width="0.5" stroke="black" d="M 20 184 315 225"/>
<path stroke-width="0.5" stroke="black" d="M 20 184 357 63"/>
<path stroke-width="0.5" stroke="black" d="M 20 184 155 110"/>
<path stroke-width="0.5" stroke="black" d="M 20 184 65 80"/>
<path stroke-width="0.5" stroke="black" d="M 20 184 257 304"/>
<path stroke-width="0.5" stroke="black" d="M 20 184 398 136"/>
<path stroke-width="0.5" stroke="black" d="M 20 184 85 194"/>
<path stroke-width="0.5" stroke="black" d="M 20 184 73 250"/>
<path stroke-width="0.5" stroke="black" d="M 20 184 329 53"/>
<path stroke-width="0.5" stroke="black" d="M 20 184 50 231"/>
<path stroke-width="0.5" stroke="black" d="M 20 184 272 320"/>
<path stroke-width="0.5" stroke="black" d="M 20 184 74 68"/>
<path stroke-width="0.5" stroke="black" d="M 20 184 355 284"/>
<path stroke-width="0.5" stroke="black" d="M 20 184 186 270"/>
<path stroke-width="0.5" stroke="black" d="M 20 184 205 20"/>
<path stroke-width="0.5" stroke="black" d="M 20 184 206 24"/>
<path stroke-width="0.5" stroke="black" d="M 20 184 72 158"/>
<path stroke-width="0.5" stroke="black" d="M 20 184 390 248"/>
<path stroke-width="0.5" stroke="black" d="M 20 184 256 90"/>
<path stroke-width="0.5" stroke="black" d="M 20 184 108 285"/>
<path stroke-width="0.5" stroke="black" d="M 20 184 420 135"/>
<path stroke-width="13.035714285714286" stroke="black" d="M 20 184 169 222"/>
<path stroke-width="0.5" stroke="black" d="M 72 158 257 304"/>
<path stroke-width="0.5" stroke="black" d="M 72 158 398 136"/>
<path stroke-width="0.5" stroke="black" d="M 72 158 85 194"/>
<path stroke-width="0.5" stroke="black" d="M 72 158 73 250"/>
<path stroke-width="0.5" stroke="black" d="M 72 158 50 231"/>
<path stroke-width="0.5" stroke="black" d="M 72 158 256 90"/>
<path stroke-width="0.5" stroke="black" d="M 72 158 272 320"/>
<path stroke-width="0.5" stroke="black" d="M 72 158 74 68"/>
<path stroke-width="3.2857142857142856" stroke="black" d="M 20 184 185 218"/>
<path stroke-width="0.5" stroke="black" d="M 72 158 355 284"/>
<path stroke-width="0.5" stroke="black" d="M 72 158 205 20"/>
<path stroke-width="0.5" stroke="black" d="M 72 158 206 24"/>
<path stroke-width="0.5" stroke="black" d="M 72 158 20 184"/>
<path stroke-width="0.5" stroke="black" d="M 72 158 390 248"/>
<path stroke-width="0.5" stroke="black" d="M 72 158 108 285"/>
<path stroke-width="0.5" stroke="black" d="M 72 158 163 318"/>
<path stroke-width="0.5" stroke="black" d="M 72 158 416 220"/>
<path stroke-width="0.5" stroke="black" d="M 72 158 241 201"/>
<path stroke-width="0.5" stroke="black" d="M 72 158 186 270"/>
<path stroke-width="0.5" stroke="black" d="M 108 285 74 68"/>
<path stroke-width="0.5" stroke="black" d="M 20 184 163 318"/>
<path stroke-width="0.5" stroke="black" d="M 20 184 241 201"/>
<path stroke-width="0.5" stroke="black" d="M 390 248 108 285"/>
<path stroke-width="0.5" stroke="black" d="M 390 248 163 318"/>
<path stroke-width="0.5" stroke="black" d="M 390 248 416 220"/>
<path stroke-width="0.5" stroke="black" d="M 390 248 241 201"/>
<path stroke-width="6.071428571428571" stroke="black" d="M 108 285 169 222"/>
<path stroke-width="7.464285714285714" stroke="black" d="M 108 285 185 218"/>
<path stroke-width="0.5" stroke="black" d="M 108 285 420 135"/>
<path stroke-width="0.5" stroke="black" d="M 108 285 329 53"/>
<path stroke-width="0.5" stroke="black" d="M 390 248 20 184"/>
<path stroke-width="0.5" stroke="black" d="M 108 285 315 225"/>
<path stroke-width="0.5" stroke="black" d="M 108 285 155 110"/>
<path stroke-width="0.5" stroke="black" d="M 108 285 65 80"/>
<path stroke-width="0.5" stroke="black" d="M 108 285 257 304"/>
<path stroke-width="0.5" stroke="black" d="M 108 285 398 136"/>
<path stroke-width="0.5" stroke="black" d="M 108 285 85 194"/>
<path stroke-width="0.5" stroke="black" d="M 108 285 73 250"/>
<path stroke-width="0.5" stroke="black" d="M 108 285 50 231"/>
<path stroke-width="0.5" stroke="black" d="M 108 285 256 90"/>
<path stroke-width="0.5" stroke="black" d="M 108 285 357 63"/>
<path stroke-width="0.5" stroke="black" d="M 20 184 416 220"/>
<path stroke-width="0.5" stroke="black" d="M 390 248 72 158"/>
<path stroke-width="0.5" stroke="black" d="M 390 248 205 20"/>
<path stroke-width="8.857142857142858" stroke="black" d="M 390 248 169 222"/>
<path stroke-width="7.464285714285714" stroke="black" d="M 390 248 185 218"/>
<path stroke-width="0.5" stroke="black" d="M 390 248 420 135"/>
<path stroke-width="0.5" stroke="black" d="M 390 248 329 53"/>
<path stroke-width="0.5" stroke="black" d="M 390 248 315 225"/>
<path stroke-width="0.5" stroke="black" d="M 390 248 357 63"/>
<path stroke-width="0.5" stroke="black" d="M 390 248 155 110"/>
<path stroke-width="0.5" stroke="black" d="M 390 248 65 80"/>
<path stroke-width="0.5" stroke="black" d="M 390 248 206 24"/>
<path stroke-width="0.5" stroke="black" d="M 390 248 257 304"/>
<path stroke-width="0.5" stroke="black" d="M 390 248 85 194"/>
<path stroke-width="0.5" stroke="black" d="M 390 248 73 250"/>
<path stroke-width="0.5" stroke="black" d="M 390 248 50 231"/>
<path stroke-width="0.5" stroke="black" d="M 390 248 256 90"/>
<path stroke-width="0.5" stroke="black" d="M 390 248 272 320"/>
<path stroke-width="0.5" stroke="black" d="M 390 248 74 68"/>
<path stroke-width="0.5" stroke="black" d="M 390 248 355 284"/>
<path stroke-width="0.5" stroke="black" d="M 390 248 186 270"/>
<path stroke-width="0.5" stroke="black" d="M 390 248 398 136"/>
<path stroke-width="0.5" stroke="black" d="M 256 90 272 320"/>
<path stroke-width="0.5" stroke="black" d="M 256 90 50 231"/>
<path stroke-width="0.5" stroke="black" d="M 256 90 73 250"/>
<path stroke-width="0.5" stroke="black" d="M 315 225 257 304"/>
<path stroke-width="0.5" stroke="black" d="M 315 225 398 136"/>
<path stroke-width="0.5" stroke="black" d="M 315 225 85 194"/>
<path stroke-width="0.5" stroke="black" d="M 315 225 73 250"/>
<path stroke-width="0.5" stroke="black" d="M 315 225 50 231"/>
<path stroke-width="0.5" stroke="black" d="M 315 225 256 90"/>
<path stroke-width="0.5" stroke="black" d="M 315 225 272 320"/>
<path stroke-width="0.5" stroke="black" d="M 315 225 74 68"/>
<path stroke-width="0.5" stroke="black" d="M 315 225 65 80"/>
<path stroke-width="0.5" stroke="black" d="M 315 225 355 284"/>
<path stroke-width="0.5" stroke="black" d="M 315 225 205 20"/>
<path stroke-width="4.678571428571429" stroke="black" d="M 315 225 206 24"/>
<path stroke-width="0.5" stroke="black" d="M 315 225 72 158"/>
<path stroke-width="0.5" stroke="black" d="M 315 225 20 184"/>
<path stroke-width="0.5" stroke="black" d="M 315 225 390 248"/>
<path stroke-width="0.5" stroke="black" d="M 315 225 108 285"/>
<path stroke-width="0.5" stroke="black" d="M 315 225 163 318"/>
<path stroke-width="0.5" stroke="black" d="M 315 225 416 220"/>
<path stroke-width="0.5" stroke="black" d="M 315 225 186 270"/>
<path stroke-width="0.5" stroke="black" d="M 315 225 241 201"/>
<path stroke-width="0.5" stroke="black" d="M 315 225 155 110"/>
<path stroke-width="0.5" stroke="black" d="M 315 225 329 53"/>
<path stroke-width="0.5" stroke="black" d="M 329 53 50 231"/>
<path stroke-width="0.5" stroke="black" d="M 329 53 256 90"/>
<path stroke-width="0.5" stroke="black" d="M 329 53 272 320"/>
<path stroke-width="0.5" stroke="black" d="M 329 53 74 68"/>
<path stroke-width="0.5" stroke="black" d="M 329 53 355 284"/>
<path stroke-width="0.5" stroke="black" d="M 329 53 186 270"/>
<path stroke-width="0.5" stroke="black" d="M 329 53 205 20"/>
<path stroke-width="0.5" stroke="black" d="M 329 53 206 24"/>
<path stroke-width="0.5" stroke="black" d="M 315 225 357 63"/>
<path stroke-width="4.678571428571429" stroke="black" d="M 329 53 72 158"/>
<path stroke-width="0.5" stroke="black" d="M 329 53 390 248"/>
<path stroke-width="0.5" stroke="black" d="M 329 53 108 285"/>
<path stroke-width="0.5" stroke="black" d="M 329 53 163 318"/>
<path stroke-width="0.5" stroke="black" d="M 329 53 416 220"/>
<path stroke-width="0.5" stroke="black" d="M 329 53 241 201"/>
<path stroke-width="8.857142857142858" stroke="black" d="M 315 225 169 222"/>
<path stroke-width="3.2857142857142856" stroke="black" d="M 315 225 185 218"/>
<path stroke-width="0.5" stroke="black" d="M 315 225 420 135"/>
<path stroke-width="0.5" stroke="black" d="M 329 53 20 184"/>
<path stroke-width="0.5" stroke="black" d="M 329 53 73 250"/>
<path stroke-width="8.857142857142858" stroke="black" d="M 357 63 169 222"/>
<path stroke-width="0.5" stroke="black" d="M 357 63 420 135"/>
<path stroke-width="0.5" stroke="black" d="M 357 63 241 201"/>
<path stroke-width="8.857142857142858" stroke="black" d="M 155 110 169 222"/>
<path stroke-width="3.2857142857142856" stroke="black" d="M 155 110 185 218"/>
<path stroke-width="0.5" stroke="black" d="M 155 110 420 135"/>
<path stroke-width="0.5" stroke="black" d="M 155 110 329 53"/>
<path stroke-width="0.5" stroke="black" d="M 155 110 315 225"/>
<path stroke-width="0.5" stroke="black" d="M 155 110 357 63"/>
<path stroke-width="0.5" stroke="black" d="M 155 110 65 80"/>
<path stroke-width="0.5" stroke="black" d="M 357 63 416 220"/>
<path stroke-width="0.5" stroke="black" d="M 155 110 257 304"/>
<path stroke-width="0.5" stroke="black" d="M 155 110 85 194"/>
<path stroke-width="0.5" stroke="black" d="M 155 110 73 250"/>
<path stroke-width="0.5" stroke="black" d="M 155 110 50 231"/>
<path stroke-width="0.5" stroke="black" d="M 155 110 256 90"/>
<path stroke-width="0.5" stroke="black" d="M 155 110 272 320"/>
<path stroke-width="0.5" stroke="black" d="M 155 110 74 68"/>
<path stroke-width="0.5" stroke="black" d="M 155 110 355 284"/>
<path stroke-width="4.678571428571429" stroke="black" d="M 155 110 186 270"/>
<path stroke-width="0.5" stroke="black" d="M 155 110 398 136"/>
<path stroke-width="3.2857142857142856" stroke="black" d="M 357 63 185 218"/>
<path stroke-width="0.5" stroke="black" d="M 357 63 163 318"/>
<path stroke-width="0.5" stroke="black" d="M 357 63 390 248"/>
<path stroke-width="0.5" stroke="black" d="M 357 63 329 53"/>
<path stroke-width="0.5" stroke="black" d="M 357 63 315 225"/>
<path stroke-width="0.5" stroke="black" d="M 357 63 155 110"/>
<path stroke-width="0.5" stroke="black" d="M 357 63 65 80"/>
<path stroke-width="0.5" stroke="black" d="M 357 63 257 304"/>
<path stroke-width="0.5" stroke="black" d="M 357 63 398 136"/>
<path stroke-width="0.5" stroke="black" d="M 357 63 85 194"/>
<path stroke-width="0.5" stroke="black" d="M 357 63 73 250"/>
<path stroke-width="0.5" stroke="black" d="M 357 63 108 285"/>
<path stroke-width="0.5" stroke="black" d="M 357 63 50 231"/>
<path stroke-width="0.5" stroke="black" d="M 357 63 272 320"/>
<path stroke-width="0.5" stroke="black" d="M 357 63 74 68"/>
<path stroke-width="0.5" stroke="black" d="M 357 63 355 284"/>
<path stroke-width="0.5" stroke="black" d="M 357 63 186 270"/>
<path stroke-width="4.678571428571429" stroke="black" d="M 357 63 205 20"/>
<path stroke-width="0.5" stroke="black" d="M 357 63 206 24"/>
<path stroke-width="0.5" stroke="black" d="M 357 63 72 158"/>
<path stroke-width="0.5" stroke="black" d="M 357 63 20 184"/>
<path stroke-width="0.5" stroke="black" d="M 357 63 256 90"/>
<path stroke-width="0.5" stroke="black" d="M 155 110 205 20"/>
<path stroke-width="0.5" stroke="black" d="M 329 53 85 194"/>
<path stroke-width="0.5" stroke="black" d="M 329 53 257 304"/>
<path stroke-width="7.464285714285714" stroke="black" d="M 169 222 163 318"/>
<path stroke-width="8.857142857142858" stroke="black" d="M 169 222 416 220"/>
<path stroke-width="8.857142857142858" stroke="black" d="M 169 222 241 201"/>
<path stroke-width="20.0" stroke="black" d="M 185 218 169 222"/>
<path stroke-width="0.5" stroke="black" d="M 185 218 420 135"/>
<path stroke-width="3.2857142857142856" stroke="black" d="M 185 218 329 53"/>
<path stroke-width="3.2857142857142856" stroke="black" d="M 185 218 315 225"/>
<path stroke-width="3.2857142857142856" stroke="black" d="M 185 218 357 63"/>
<path stroke-width="6.071428571428571" stroke="black" d="M 169 222 108 285"/>
<path stroke-width="3.2857142857142856" stroke="black" d="M 185 218 155 110"/>
<path stroke-width="3.2857142857142856" stroke="black" d="M 185 218 257 304"/>
<path stroke-width="3.2857142857142856" stroke="black" d="M 185 218 398 136"/>
<path stroke-width="3.2857142857142856" stroke="black" d="M 185 218 85 194"/>
<path stroke-width="3.2857142857142856" stroke="black" d="M 185 218 73 250"/>
<path stroke-width="3.2857142857142856" stroke="black" d="M 185 218 50 231"/>
<path stroke-width="3.2857142857142856" stroke="black" d="M 185 218 256 90"/>
<path stroke-width="3.2857142857142856" stroke="black" d="M 185 218 272 320"/>
<path stroke-width="3.2857142857142856" stroke="black" d="M 185 218 74 68"/>
<path stroke-width="3.2857142857142856" stroke="black" d="M 185 218 65 80"/>
<path stroke-width="3.2857142857142856" stroke="black" d="M 185 218 355 284"/>
<path stroke-width="8.857142857142858" stroke="black" d="M 169 222 390 248"/>
<path stroke-width="8.857142857142858" stroke="black" d="M 169 222 72 158"/>
<path stroke-width="7.464285714285714" stroke="black" d="M 169 222 420 135"/>
<path stroke-width="8.857142857142858" stroke="black" d="M 169 222 329 53"/>
<path stroke-width="8.857142857142858" stroke="black" d="M 169 222 315 225"/>
<path stroke-width="8.857142857142858" stroke="black" d="M 169 222 357 63"/>
<path stroke-width="8.857142857142858" stroke="black" d="M 169 222 155 110"/>
<path stroke-width="8.857142857142858" stroke="black" d="M 169 222 65 80"/>
<path stroke-width="8.857142857142858" stroke="black" d="M 169 222 257 304"/>
<path stroke-width="8.857142857142858" stroke="black" d="M 169 222 398 136"/>
<path stroke-width="13.035714285714286" stroke="black" d="M 169 222 20 184"/>
<path stroke-width="8.857142857142858" stroke="black" d="M 169 222 85 194"/>
<path stroke-width="8.857142857142858" stroke="black" d="M 169 222 50 231"/>
<path stroke-width="8.857142857142858" stroke="black" d="M 169 222 256 90"/>
<path stroke-width="8.857142857142858" stroke="black" d="M 169 222 272 320"/>
<path stroke-width="8.857142857142858" stroke="black" d="M 169 222 74 68"/>
<path stroke-width="8.857142857142858" stroke="black" d="M 169 222 355 284"/>
<path stroke-width="8.857142857142858" stroke="black" d="M 169 222 186 270"/>
<path stroke-width="8.857142857142858" stroke="black" d="M 169 222 205 20"/>
<path stroke-width="8.857142857142858" stroke="black" d="M 169 222 206 24"/>
<path stroke-width="8.857142857142858" stroke="black" d="M 169 222 73 250"/>
<path stroke-width="0.5" stroke="black" d="M 329 53 398 136"/>
<path stroke-width="3.2857142857142856" stroke="black" d="M 185 218 186 270"/>
<path stroke-width="3.2857142857142856" stroke="black" d="M 185 218 206 24"/>
<path stroke-width="0.5" stroke="black" d="M 420 135 355 284"/>
<path stroke-width="0.5" stroke="black" d="M 420 135 186 270"/>
<path stroke-width="0.5" stroke="black" d="M 420 135 205 20"/>
<path stroke-width="0.5" stroke="black" d="M 420 135 206 24"/>
<path stroke-width="0.5" stroke="black" d="M 420 135 72 158"/>
<path stroke-width="0.5" stroke="black" d="M 420 135 20 184"/>
<path stroke-width="0.5" stroke="black" d="M 420 135 390 248"/>
<path stroke-width="0.5" stroke="black" d="M 420 135 108 285"/>
<path stroke-width="0.5" stroke="black" d="M 420 135 74 68"/>
<path stroke-width="0.5" stroke="black" d="M 420 135 163 318"/>
<path stroke-width="0.5" stroke="black" d="M 420 135 241 201"/>
<path stroke-width="8.857142857142858" stroke="black" d="M 329 53 169 222"/>
<path stroke-width="3.2857142857142856" stroke="black" d="M 329 53 185 218"/>
<path stroke-width="0.5" stroke="black" d="M 329 53 420 135"/>
<path stroke-width="0.5" stroke="black" d="M 329 53 315 225"/>
<path stroke-width="0.5" stroke="black" d="M 329 53 357 63"/>
<path stroke-width="0.5" stroke="black" d="M 329 53 155 110"/>
<path stroke-width="0.5" stroke="black" d="M 329 53 65 80"/>
<path stroke-width="0.5" stroke="black" d="M 420 135 416 220"/>
<path stroke-width="3.2857142857142856" stroke="black" d="M 185 218 205 20"/>
<path stroke-width="0.5" stroke="black" d="M 420 135 272 320"/>
<path stroke-width="0.5" stroke="black" d="M 420 135 50 231"/>
<path stroke-width="3.2857142857142856" stroke="black" d="M 185 218 72 158"/>
<path stroke-width="3.2857142857142856" stroke="black" d="M 185 218 20 184"/>
<path stroke-width="7.464285714285714" stroke="black" d="M 185 218 390 248"/>
<path stroke-width="7.464285714285714" stroke="black" d="M 185 218 108 285"/>
<path stroke-width="3.2857142857142856" stroke="black" d="M 185 218 163 318"/>
<path stroke-width="3.2857142857142856" stroke="black" d="M 185 218 416 220"/>
<path stroke-width="3.2857142857142856" stroke="black" d="M 185 218 241 201"/>
<path stroke-width="7.464285714285714" stroke="black" d="M 420 135 169 222"/>
<path stroke-width="0.5" stroke="black" d="M 420 135 256 90"/>
<path stroke-width="0.5" stroke="black" d="M 420 135 185 218"/>
<path stroke-width="0.5" stroke="black" d="M 420 135 315 225"/>
<path stroke-width="0.5" stroke="black" d="M 420 135 357 63"/>
<path stroke-width="0.5" stroke="black" d="M 420 135 155 110"/>
<path stroke-width="0.5" stroke="black" d="M 420 135 65 80"/>
<path stroke-width="0.5" stroke="black" d="M 420 135 257 304"/>
<path stroke-width="0.5" stroke="black" d="M 420 135 398 136"/>
<path stroke-width="0.5" stroke="black" d="M 420 135 85 194"/>
<path stroke-width="0.5" stroke="black" d="M 420 135 73 250"/>
<path stroke-width="0.5" stroke="black" d="M 420 135 329 53"/>
<path stroke-width="0.5" stroke="black" d="M 241 201 163 318"/>
<path stroke-width="0.5" stroke="black" d="M 155 110 206 24"/>
<path stroke-width="0.5" stroke="black" d="M 155 110 20 184"/>
<path stroke-width="3.2857142857142856" stroke="black" d="M 73 250 185 218"/>
<path stroke-width="0.5" stroke="black" d="M 73 250 420 135"/>
<path stroke-width="0.5" stroke="black" d="M 73 250 329 53"/>
<path stroke-width="0.5" stroke="black" d="M 73 250 315 225"/>
<path stroke-width="0.5" stroke="black" d="M 73 250 357 63"/>
<path stroke-width="0.5" stroke="black" d="M 73 250 155 110"/>
<path stroke-width="0.5" stroke="black" d="M 73 250 65 80"/>
<path stroke-width="0.5" stroke="black" d="M 73 250 257 304"/>
<path stroke-width="8.857142857142858" stroke="black" d="M 73 250 169 222"/>
<path stroke-width="0.5" stroke="black" d="M 73 250 398 136"/>
<path stroke-width="4.678571428571429" stroke="black" d="M 73 250 50 231"/>
<path stroke-width="0.5" stroke="black" d="M 73 250 256 90"/>
<path stroke-width="0.5" stroke="black" d="M 73 250 272 320"/>
<path stroke-width="0.5" stroke="black" d="M 73 250 74 68"/>
<path stroke-width="0.5" stroke="black" d="M 73 250 355 284"/>
<path stroke-width="0.5" stroke="black" d="M 73 250 186 270"/>
<path stroke-width="0.5" stroke="black" d="M 73 250 205 20"/>
<path stroke-width="0.5" stroke="black" d="M 73 250 206 24"/>
<path stroke-width="0.5" stroke="black" d="M 73 250 85 194"/>
<path stroke-width="0.5" stroke="black" d="M 73 250 72 158"/>
<path stroke-width="0.5" stroke="black" d="M 85 194 241 201"/>
<path stroke-width="0.5" stroke="black" d="M 85 194 163 318"/>
<path stroke-width="0.5" stroke="black" d="M 85 194 357 63"/>
<path stroke-width="0.5" stroke="black" d="M 85 194 155 110"/>
<path stroke-width="0.5" stroke="black" d="M 85 194 65 80"/>
<path stroke-width="0.5" stroke="black" d="M 85 194 257 304"/>
<path stroke-width="0.5" stroke="black" d="M 85 194 398 136"/>
<path stroke-width="0.5" stroke="black" d="M 85 194 73 250"/>
<path stroke-width="0.5" stroke="black" d="M 85 194 50 231"/>
<path stroke-width="4.678571428571429" stroke="black" d="M 85 194 256 90"/>
<path stroke-width="0.5" stroke="black" d="M 85 194 416 220"/>
<path stroke-width="0.5" stroke="black" d="M 85 194 272 320"/>
<path stroke-width="0.5" stroke="black" d="M 85 194 355 284"/>
<path stroke-width="0.5" stroke="black" d="M 85 194 186 270"/>
<path stroke-width="0.5" stroke="black" d="M 85 194 205 20"/>
<path stroke-width="0.5" stroke="black" d="M 85 194 206 24"/>
<path stroke-width="0.5" stroke="black" d="M 85 194 72 158"/>
<path stroke-width="0.5" stroke="black" d="M 85 194 20 184"/>
<path stroke-width="0.5" stroke="black" d="M 85 194 390 248"/>
<path stroke-width="0.5" stroke="black" d="M 85 194 108 285"/>
<path stroke-width="0.5" stroke="black" d="M 85 194 74 68"/>
<path stroke-width="0.5" stroke="black" d="M 85 194 315 225"/>
<path stroke-width="0.5" stroke="black" d="M 73 250 20 184"/>
<path stroke-width="0.5" stroke="black" d="M 73 250 108 285"/>
<path stroke-width="0.5" stroke="black" d="M 50 231 72 158"/>
<path stroke-width="0.5" stroke="black" d="M 50 231 20 184"/>
<path stroke-width="0.5" stroke="black" d="M 50 231 390 248"/>
<path stroke-width="0.5" stroke="black" d="M 50 231 108 285"/>
<path stroke-width="0.5" stroke="black" d="M 50 231 163 318"/>
<path stroke-width="0.5" stroke="black" d="M 50 231 416 220"/>
<path stroke-width="0.5" stroke="black" d="M 50 231 241 201"/>
<path stroke-width="8.857142857142858" stroke="black" d="M 256 90 169 222"/>
<path stroke-width="0.5" stroke="black" d="M 50 231 206 24"/>
<path stroke-width="3.2857142857142856" stroke="black" d="M 256 90 185 218"/>
<path stroke-width="0.5" stroke="black" d="M 256 90 329 53"/>
<path stroke-width="0.5" stroke="black" d="M 256 90 315 225"/>
<path stroke-width="0.5" stroke="black" d="M 256 90 357 63"/>
<path stroke-width="0.5" stroke="black" d="M 256 90 155 110"/>
<path stroke-width="0.5" stroke="black" d="M 256 90 65 80"/>
<path stroke-width="0.5" stroke="black" d="M 256 90 257 304"/>
<path stroke-width="0.5" stroke="black" d="M 256 90 398 136"/>
<path stroke-width="4.678571428571429" stroke="black" d="M 256 90 85 194"/>
<path stroke-width="0.5" stroke="black" d="M 256 90 420 135"/>
<path stroke-width="0.5" stroke="black" d="M 73 250 390 248"/>
<path stroke-width="0.5" stroke="black" d="M 50 231 205 20"/>
<path stroke-width="0.5" stroke="black" d="M 50 231 355 284"/>
<path stroke-width="0.5" stroke="black" d="M 73 250 163 318"/>
<path stroke-width="0.5" stroke="black" d="M 73 250 416 220"/>
<path stroke-width="0.5" stroke="black" d="M 73 250 241 201"/>
<path stroke-width="8.857142857142858" stroke="black" d="M 50 231 169 222"/>
<path stroke-width="3.2857142857142856" stroke="black" d="M 50 231 185 218"/>
<path stroke-width="0.5" stroke="black" d="M 50 231 420 135"/>
<path stroke-width="0.5" stroke="black" d="M 50 231 329 53"/>
<path stroke-width="0.5" stroke="black" d="M 50 231 315 225"/>
<path stroke-width="0.5" stroke="black" d="M 50 231 186 270"/>
<path stroke-width="0.5" stroke="black" d="M 50 231 357 63"/>
<path stroke-width="0.5" stroke="black" d="M 50 231 65 80"/>
<path stroke-width="0.5" stroke="black" d="M 50 231 257 304"/>
<path stroke-width="0.5" stroke="black" d="M 50 231 398 136"/>
<path stroke-width="0.5" stroke="black" d="M 50 231 85 194"/>
<path stroke-width="4.678571428571429" stroke="black" d="M 50 231 73 250"/>
<path stroke-width="0.5" stroke="black" d="M 50 231 256 90"/>
<path stroke-width="0.5" stroke="black" d="M 50 231 272 320"/>
<path stroke-width="0.5" stroke="black" d="M 50 231 74 68"/>
<path stroke-width="0.5" stroke="black" d="M 50 231 155 110"/>
<path stroke-width="0.5" stroke="black" d="M 155 110 72 158"/>
<path stroke-width="0.5" stroke="black" d="M 85 194 329 53"/>
<path stroke-width="3.2857142857142856" stroke="black" d="M 85 194 185 218"/>
<path stroke-width="0.5" stroke="black" d="M 65 80 205 20"/>
<path stroke-width="0.5" stroke="black" d="M 65 80 206 24"/>
<path stroke-width="0.5" stroke="black" d="M 65 80 72 158"/>
<path stroke-width="0.5" stroke="black" d="M 65 80 20 184"/>
<path stroke-width="0.5" stroke="black" d="M 65 80 390 248"/>
<path stroke-width="0.5" stroke="black" d="M 65 80 108 285"/>
<path stroke-width="0.5" stroke="black" d="M 65 80 163 318"/>
<path stroke-width="0.5" stroke="black" d="M 65 80 416 220"/>
<path stroke-width="0.5" stroke="black" d="M 65 80 186 270"/>
<path stroke-width="0.5" stroke="black" d="M 65 80 241 201"/>
<path stroke-width="3.2857142857142856" stroke="black" d="M 257 304 185 218"/>
<path stroke-width="0.5" stroke="black" d="M 257 304 420 135"/>
<path stroke-width="0.5" stroke="black" d="M 257 304 329 53"/>
<path stroke-width="0.5" stroke="black" d="M 257 304 315 225"/>
<path stroke-width="0.5" stroke="black" d="M 257 304 357 63"/>
<path stroke-width="0.5" stroke="black" d="M 257 304 155 110"/>
<path stroke-width="0.5" stroke="black" d="M 257 304 65 80"/>
<path stroke-width="0.5" stroke="black" d="M 257 304 398 136"/>
<path stroke-width="8.857142857142858" stroke="black" d="M 257 304 169 222"/>
<path stroke-width="0.5" stroke="black" d="M 257 304 85 194"/>
<path stroke-width="0.5" stroke="black" d="M 65 80 355 284"/>
<path stroke-width="0.5" stroke="black" d="M 65 80 272 320"/>
<path stroke-width="0.5" stroke="black" d="M 155 110 390 248"/>
<path stroke-width="0.5" stroke="black" d="M 155 110 108 285"/>
<path stroke-width="0.5" stroke="black" d="M 155 110 163 318"/>
<path stroke-width="0.5" stroke="black" d="M 155 110 416 220"/>
<path stroke-width="0.5" stroke="black" d="M 155 110 241 201"/>
<path stroke-width="8.857142857142858" stroke="black" d="M 65 80 169 222"/>
<path stroke-width="3.2857142857142856" stroke="black" d="M 65 80 185 218"/>
<path stroke-width="0.5" stroke="black" d="M 65 80 420 135"/>
<path stroke-width="4.678571428571429" stroke="black" d="M 65 80 74 68"/>
<path stroke-width="0.5" stroke="black" d="M 65 80 329 53"/>
<path stroke-width="0.5" stroke="black" d="M 65 80 357 63"/>
<path stroke-width="0.5" stroke="black" d="M 65 80 155 110"/>
<path stroke-width="0.5" stroke="black" d="M 65 80 257 304"/>
<path stroke-width="0.5" stroke="black" d="M 65 80 398 136"/>
<path stroke-width="0.5" stroke="black" d="M 65 80 85 194"/>
<path stroke-width="0.5" stroke="black" d="M 65 80 73 250"/>
<path stroke-width="0.5" stroke="black" d="M 65 80 50 231"/>
<path stroke-width="0.5" stroke="black" d="M 65 80 256 90"/>
<path stroke-width="0.5" stroke="black" d="M 65 80 315 225"/>
<path stroke-width="0.5" stroke="black" d="M 85 194 420 135"/>
<path stroke-width="0.5" stroke="black" d="M 257 304 73 250"/>
<path stroke-width="0.5" stroke="black" d="M 257 304 256 90"/>
<path stroke-width="0.5" stroke="black" d="M 398 136 85 194"/>
<path stroke-width="0.5" stroke="black" d="M 398 136 73 250"/>
<path stroke-width="0.5" stroke="black" d="M 398 136 50 231"/>
<path stroke-width="0.5" stroke="black" d="M 398 136 256 90"/>
<path stroke-width="0.5" stroke="black" d="M 398 136 272 320"/>
<path stroke-width="0.5" stroke="black" d="M 398 136 74 68"/>
<path stroke-width="0.5" stroke="black" d="M 398 136 355 284"/>
<path stroke-width="0.5" stroke="black" d="M 398 136 186 270"/>
<path stroke-width="0.5" stroke="black" d="M 398 136 257 304"/>
<path stroke-width="0.5" stroke="black" d="M 398 136 205 20"/>
<path stroke-width="0.5" stroke="black" d="M 398 136 72 158"/>
<path stroke-width="0.5" stroke="black" d="M 398 136 20 184"/>
<path stroke-width="0.5" stroke="black" d="M 398 136 390 248"/>
<path stroke-width="0.5" stroke="black" d="M 398 136 108 285"/>
<path stroke-width="0.5" stroke="black" d="M 398 136 163 318"/>
<path stroke-width="4.678571428571429" stroke="black" d="M 398 136 416 220"/>
<path stroke-width="0.5" stroke="black" d="M 398 136 241 201"/>
<path stroke-width="8.857142857142858" stroke="black" d="M 85 194 169 222"/>
<path stroke-width="0.5" stroke="black" d="M 398 136 206 24"/>
<path stroke-width="0.5" stroke="black" d="M 257 304 50 231"/>
<path stroke-width="0.5" stroke="black" d="M 398 136 65 80"/>
<path stroke-width="0.5" stroke="black" d="M 398 136 357 63"/>
<path stroke-width="4.678571428571429" stroke="black" d="M 257 304 272 320"/>
<path stroke-width="0.5" stroke="black" d="M 257 304 74 68"/>
<path stroke-width="0.5" stroke="black" d="M 257 304 355 284"/>
<path stroke-width="0.5" stroke="black" d="M 257 304 186 270"/>
<path stroke-width="0.5" stroke="black" d="M 257 304 205 20"/>
<path stroke-width="0.5" stroke="black" d="M 257 304 206 24"/>
<path stroke-width="0.5" stroke="black" d="M 257 304 72 158"/>
<path stroke-width="0.5" stroke="black" d="M 257 304 20 184"/>
<path stroke-width="0.5" stroke="black" d="M 398 136 155 110"/>
<path stroke-width="0.5" stroke="black" d="M 257 304 390 248"/>
<path stroke-width="0.5" stroke="black" d="M 257 304 163 318"/>
<path stroke-width="0.5" stroke="black" d="M 257 304 416 220"/>
<path stroke-width="0.5" stroke="black" d="M 257 304 241 201"/>
<path stroke-width="8.857142857142858" stroke="black" d="M 398 136 169 222"/>
<path stroke-width="3.2857142857142856" stroke="black" d="M 398 136 185 218"/>
<path stroke-width="0.5" stroke="black" d="M 398 136 420 135"/>
<path stroke-width="0.5" stroke="black" d="M 398 136 329 53"/>
<path stroke-width="0.5" stroke="black" d="M 398 136 315 225"/>
<path stroke-width="0.5" stroke="black" d="M 257 304 108 285"/>
<path stroke-width="0.5" stroke="black" d="M 241 201 416 220"/>
<circle cx="169" cy="222" r="7.0" style="fill:blue;stroke:black;stroke-width:1.0"/>
<circle cx="185" cy="218" r="7.0" style="fill:blue;stroke:black;stroke-width:1.0"/>
<circle cx="420" cy="135" r="7.0" style="fill:blue;stroke:black;stroke-width:1.0"/>
<circle cx="329" cy="53" r="7.0" style="fill:green;stroke:black;stroke-width:1.0"/>
<circle cx="315" cy="225" r="7.0" style="fill:red;stroke:black;stroke-width:1.0"/>
<circle cx="357" cy="63" r="7.0" style="fill:blue;stroke:black;stroke-width:1.0"/>
<circle cx="155" cy="110" r="7.0" style="fill:blue;stroke:black;stroke-width:1.0"/>
<circle cx="65" cy="80" r="7.0" style="fill:blue;stroke:black;stroke-width:1.0"/>
<circle cx="257" cy="304" r="7.0" style="fill:blue;stroke:black;stroke-width:1.0"/>
<circle cx="398" cy="136" r="7.0" style="fill:orange;stroke:black;stroke-width:1.0"/>
<circle cx="85" cy="194" r="7.0" style="fill:blue;stroke:black;stroke-width:1.0"/>
<circle cx="73" cy="250" r="7.0" style="fill:blue;stroke:black;stroke-width:1.0"/>
<circle cx="50" cy="231" r="7.0" style="fill:blue;stroke:black;stroke-width:1.0"/>
<circle cx="256" cy="90" r="7.0" style="fill:blue;stroke:black;stroke-width:1.0"/>
<circle cx="272" cy="320" r="7.0" style="fill:blue;stroke:black;stroke-width:1.0"/>
<circle cx="74" cy="68" r="7.0" style="fill:blue;stroke:black;stroke-width:1.0"/>
<circle cx="355" cy="284" r="7.0" style="fill:purple;stroke:black;stroke-width:1.0"/>
<circle cx="186" cy="270" r="7.0" style="fill:blue;stroke:black;stroke-width:1.0"/>
<circle cx="205" cy="20" r="7.0" style="fill:blue;stroke:black;stroke-width:1.0"/>
<circle cx="206" cy="24" r="7.0" style="fill:red;stroke:black;stroke-width:1.0"/>
<circle cx="72" cy="158" r="7.0" style="fill:green;stroke:black;stroke-width:1.0"/>
<circle cx="20" cy="184" r="7.0" style="fill:blue;stroke:black;stroke-width:1.0"/>
<circle cx="390" cy="248" r="7.0" style="fill:blue;stroke:black;stroke-width:1.0"/>
<circle cx="108" cy="285" r="7.0" style="fill:blue;stroke:black;stroke-width:1.0"/>
<circle cx="163" cy="318" r="7.0" style="fill:blue;stroke:black;stroke-width:1.0"/>
<circle cx="416" cy="220" r="7.0" style="fill:orange;stroke:black;stroke-width:1.0"/>
<circle cx="241" cy="201" r="7.0" style="fill:purple;stroke:black;stroke-width:1.0"/>
</svg>
