<svg width="440" height="340" xmlns="http://www.w3.org/2000/svg">
<path stroke-width="20.0" stroke="black" d="M 212 236 217 201"/>
<path stroke-width="0.5" stroke="black" d="M 273 320 87 234"/>
<path stroke-width="0.5" stroke="black" d="M 273 320 42 255"/>
<path stroke-width="0.5" stroke="black" d="M 273 320 20 167"/>
<path stroke-width="0.5" stroke="black" d="M 273 320 237 20"/>
<path stroke-width="0.5" stroke="black" d="M 273 320 308 260"/>
<path stroke-width="8.857142857142858" stroke="black" d="M 380 63 212 236"/>
<path stroke-width="3.2857142857142856" stroke="black" d="M 380 63 217 201"/>
<path stroke-width="0.5" stroke="black" d="M 380 63 416 259"/>
<path stroke-width="0.5" stroke="black" d="M 380 63 270 129"/>
<path stroke-width="0.5" stroke="black" d="M 380 63 30 178"/>
<path stroke-width="4.678571428571429" stroke="black" d="M 380 63 399 232"/>
<path stroke-width="0.5" stroke="black" d="M 380 63 375 209"/>
<path stroke-width="0.5" stroke="black" d="M 380 63 155 36"/>
<path stroke-width="0.5" stroke="black" d="M 380 63 316 305"/>
<path stroke-width="0.5" stroke="black" d="M 380 63 76 89"/>
<path stroke-width="0.5" stroke="black" d="M 380 63 375 63"/>
<path stroke-width="0.5" stroke="black" d="M 380 63 180 261"/>
<path stroke-width="0.5" stroke="black" d="M 273 320 168 128"/>
<path stroke-width="0.5" stroke="black" d="M 273 320 130 194"/>
<path stroke-width="0.5" stroke="black" d="M 273 320 200 280"/>
<path stroke-width="0.5" stroke="black" d="M 273 320 380 63"/>
<path stroke-width="4.678571428571429" stroke="black" d="M 292 32 308 260"/>
<path stroke-width="8.857142857142858" stroke="black" d="M 273 320 212 236"/>
<path stroke-width="3.2857142857142856" stroke="black" d="M 273 320 217 201"/>
<path stroke-width="0.5" stroke="black" d="M 273 320 416 259"/>
<path stroke-width="0.5" stroke="black" d="M 273 320 270 129"/>
<path stroke-width="0.5" stroke="black" d="M 273 320 30 178"/>
<path stroke-width="0.5" stroke="black" d="M 273 320 399 232"/>
<path stroke-width="4.678571428571429" stroke="black" d="M 273 320 375 209"/>
<path stroke-width="0.5" stroke="black" d="M 380 63 181 57"/>
<path stroke-width="0.5" stroke="black" d="M 273 320 155 36"/>
<path stroke-width="0.5" stroke="black" d="M 273 320 76 89"/>
<path stroke-width="0.5" stroke="black" d="M 273 320 375 63"/>
<path stroke-width="0.5" stroke="black" d="M 273 320 180 261"/>
<path stroke-width="0.5" stroke="black" d="M 273 320 181 57"/>
<path stroke-width="0.5" stroke="black" d="M 273 320 420 155"/>
<path stroke-width="0.5" stroke="black" d="M 273 320 134 302"/>
<path stroke-width="0.5" stroke="black" d="M 273 320 68 89"/>
<path stroke-width="0.5" stroke="black" d="M 273 320 292 32"/>
<path stroke-width="0.5" stroke="black" d="M 273 320 316 305"/>
<path stroke-width="0.5" stroke="black" d="M 380 63 420 155"/>
<path stroke-width="0.5" stroke="black" d="M 380 63 134 302"/>
<path stroke-width="0.5" stroke="black" d="M 380 63 68 89"/>
<path stroke-width="0.5" stroke="black" d="M 200 280 181 57"/>
<path stroke-width="0.5" stroke="black" d="M 200 280 420 155"/>
<path stroke-width="0.5" stroke="black" d="M 200 280 134 302"/>
<path stroke-width="0.5" stroke="black" d="M 200 280 68 89"/>
<path stroke-width="0.5" stroke="black" d="M 200 280 292 32"/>
<path stroke-width="0.5" stroke="black" d="M 200 280 273 320"/>
<path stroke-width="0.5" stroke="black" d="M 200 280 380 63"/>
<path stroke-width="0.5" stroke="black" d="M 200 280 130 194"/>
<path stroke-width="0.5" stroke="black" d="M 200 280 180 261"/>
<path stroke-width="0.5" stroke="black" d="M 200 280 168 128"/>
<path stroke-width="0.5" stroke="black" d="M 200 280 42 255"/>
<path stroke-width="0.5" stroke="black" d="M 200 280 20 167"/>
<path stroke-width="0.5" stroke="black" d="M 200 280 237 20"/>
<path stroke-width="0.5" stroke="black" d="M 200 280 308 260"/>
<path stroke-width="8.857142857142858" stroke="black" d="M 130 194 212 236"/>
<path stroke-width="3.2857142857142856" stroke="black" d="M 130 194 217 201"/>
<path stroke-width="0.5" stroke="black" d="M 130 194 416 259"/>
<path stroke-width="4.678571428571429" stroke="black" d="M 130 194 270 129"/>
<path stroke-width="0.5" stroke="black" d="M 200 280 87 234"/>
<path stroke-width="0.5" stroke="black" d="M 292 32 237 20"/>
<path stroke-width="0.5" stroke="black" d="M 200 280 375 63"/>
<path stroke-width="0.5" stroke="black" d="M 200 280 316 305"/>
<path stroke-width="0.5" stroke="black" d="M 380 63 292 32"/>
<path stroke-width="0.5" stroke="black" d="M 380 63 273 320"/>
<path stroke-width="0.5" stroke="black" d="M 380 63 200 280"/>
<path stroke-width="0.5" stroke="black" d="M 380 63 130 194"/>
<path stroke-width="0.5" stroke="black" d="M 380 63 168 128"/>
<path stroke-width="0.5" stroke="black" d="M 380 63 87 234"/>
<path stroke-width="0.5" stroke="black" d="M 380 63 42 255"/>
<path stroke-width="0.5" stroke="black" d="M 380 63 20 167"/>
<path stroke-width="0.5" stroke="black" d="M 200 280 76 89"/>
<path stroke-width="0.5" stroke="black" d="M 380 63 237 20"/>
<path stroke-width="8.857142857142858" stroke="black" d="M 200 280 212 236"/>
<path stroke-width="3.2857142857142856" stroke="black" d="M 200 280 217 201"/>
<path stroke-width="0.5" stroke="black" d="M 200 280 416 259"/>
<path stroke-width="0.5" stroke="black" d="M 200 280 270 129"/>
<path stroke-width="4.678571428571429" stroke="black" d="M 200 280 30 178"/>
<path stroke-width="0.5" stroke="black" d="M 200 280 399 232"/>
<path stroke-width="0.5" stroke="black" d="M 200 280 375 209"/>
<path stroke-width="0.5" stroke="black" d="M 200 280 155 36"/>
<path stroke-width="0.5" stroke="black" d="M 380 63 308 260"/>
<path stroke-width="0.5" stroke="black" d="M 292 32 20 167"/>
<path stroke-width="0.5" stroke="black" d="M 292 32 42 255"/>
<path stroke-width="0.5" stroke="black" d="M 292 32 87 234"/>
<path stroke-width="0.5" stroke="black" d="M 134 302 180 261"/>
<path stroke-width="0.5" stroke="black" d="M 134 302 181 57"/>
<path stroke-width="0.5" stroke="black" d="M 134 302 420 155"/>
<path stroke-width="0.5" stroke="black" d="M 134 302 68 89"/>
<path stroke-width="0.5" stroke="black" d="M 134 302 292 32"/>
<path stroke-width="0.5" stroke="black" d="M 134 302 273 320"/>
<path stroke-width="0.5" stroke="black" d="M 134 302 380 63"/>
<path stroke-width="0.5" stroke="black" d="M 134 302 200 280"/>
<path stroke-width="0.5" stroke="black" d="M 134 302 375 63"/>
<path stroke-width="0.5" stroke="black" d="M 134 302 130 194"/>
<path stroke-width="0.5" stroke="black" d="M 134 302 87 234"/>
<path stroke-width="0.5" stroke="black" d="M 134 302 42 255"/>
<path stroke-width="0.5" stroke="black" d="M 134 302 20 167"/>
<path stroke-width="0.5" stroke="black" d="M 134 302 237 20"/>
<path stroke-width="0.5" stroke="black" d="M 134 302 308 260"/>
<path stroke-width="8.857142857142858" stroke="black" d="M 68 89 212 236"/>
<path stroke-width="3.2857142857142856" stroke="black" d="M 68 89 217 201"/>
<path stroke-width="0.5" stroke="black" d="M 68 89 416 259"/>
<path stroke-width="0.5" stroke="black" d="M 134 302 168 128"/>
<path stroke-width="0.5" stroke="black" d="M 68 89 270 129"/>
<path stroke-width="0.5" stroke="black" d="M 134 302 76 89"/>
<path stroke-width="0.5" stroke="black" d="M 134 302 155 36"/>
<path stroke-width="0.5" stroke="black" d="M 420 155 292 32"/>
<path stroke-width="0.5" stroke="black" d="M 420 155 273 320"/>
<path stroke-width="0.5" stroke="black" d="M 420 155 380 63"/>
<path stroke-width="0.5" stroke="black" d="M 420 155 200 280"/>
<path stroke-width="0.5" stroke="black" d="M 420 155 130 194"/>
<path stroke-width="0.5" stroke="black" d="M 420 155 168 128"/>
<path stroke-width="0.5" stroke="black" d="M 420 155 87 234"/>
<path stroke-width="0.5" stroke="black" d="M 420 155 42 255"/>
<path stroke-width="4.678571428571429" stroke="black" d="M 134 302 316 305"/>
<path stroke-width="0.5" stroke="black" d="M 420 155 20 167"/>
<path stroke-width="0.5" stroke="black" d="M 420 155 308 260"/>
<path stroke-width="8.857142857142858" stroke="black" d="M 134 302 212 236"/>
<path stroke-width="3.2857142857142856" stroke="black" d="M 134 302 217 201"/>
<path stroke-width="0.5" stroke="black" d="M 134 302 416 259"/>
<path stroke-width="0.5" stroke="black" d="M 134 302 270 129"/>
<path stroke-width="0.5" stroke="black" d="M 134 302 30 178"/>
<path stroke-width="0.5" stroke="black" d="M 134 302 399 232"/>
<path stroke-width="0.5" stroke="black" d="M 134 302 375 209"/>
<path stroke-width="0.5" stroke="black" d="M 420 155 237 20"/>
<path stroke-width="0.5" stroke="black" d="M 130 194 30 178"/>
<path stroke-width="0.5" stroke="black" d="M 68 89 30 178"/>
<path stroke-width="0.5" stroke="black" d="M 68 89 375 209"/>
<path stroke-width="0.5" stroke="black" d="M 292 32 270 129"/>
<path stroke-width="0.5" stroke="black" d="M 292 32 30 178"/>
<path stroke-width="0.5" stroke="black" d="M 292 32 399 232"/>
<path stroke-width="0.5" stroke="black" d="M 292 32 375 209"/>
<path stroke-width="0.5" stroke="black" d="M 292 32 155 36"/>
<path stroke-width="0.5" stroke="black" d="M 292 32 316 305"/>
<path stroke-width="0.5" stroke="black" d="M 292 32 76 89"/>
<path stroke-width="0.5" stroke="black" d="M 292 32 375 63"/>
<path stroke-width="0.5" stroke="black" d="M 292 32 416 259"/>
<path stroke-width="0.5" stroke="black" d="M 292 32 180 261"/>
<path stroke-width="0.5" stroke="black" d="M 292 32 420 155"/>
<path stroke-width="0.5" stroke="black" d="M 292 32 134 302"/>
<path stroke-width="0.5" stroke="black" d="M 292 32 68 89"/>
<path stroke-width="0.5" stroke="black" d="M 292 32 273 320"/>
<path stroke-width="0.5" stroke="black" d="M 292 32 380 63"/>
<path stroke-width="0.5" stroke="black" d="M 292 32 200 280"/>
<path stroke-width="0.5" stroke="black" d="M 292 32 130 194"/>
<path stroke-width="0.5" stroke="black" d="M 292 32 168 128"/>
<path stroke-width="0.5" stroke="black" d="M 292 32 181 57"/>
<path stroke-width="0.5" stroke="black" d="M 68 89 399 232"/>
<path stroke-width="3.2857142857142856" stroke="black" d="M 292 32 217 201"/>
<path stroke-width="0.5" stroke="black" d="M 68 89 308 260"/>
<path stroke-width="4.678571428571429" stroke="black" d="M 68 89 155 36"/>
<path stroke-width="0.5" stroke="black" d="M 68 89 316 305"/>
<path stroke-width="0.5" stroke="black" d="M 68 89 76 89"/>
<path stroke-width="0.5" stroke="black" d="M 68 89 375 63"/>
<path stroke-width="0.5" stroke="black" d="M 68 89 180 261"/>
<path stroke-width="0.5" stroke="black" d="M 68 89 181 57"/>
<path stroke-width="0.5" stroke="black" d="M 68 89 420 155"/>
<path stroke-width="0.5" stroke="black" d="M 68 89 134 302"/>
<path stroke-width="8.857142857142858" stroke="black" d="M 292 32 212 236"/>
<path stroke-width="0.5" stroke="black" d="M 68 89 292 32"/>
<path stroke-width="0.5" stroke="black" d="M 68 89 380 63"/>
<path stroke-width="0.5" stroke="black" d="M 68 89 200 280"/>
<path stroke-width="0.5" stroke="black" d="M 68 89 130 194"/>
<path stroke-width="0.5" stroke="black" d="M 68 89 168 128"/>
<path stroke-width="0.5" stroke="black" d="M 68 89 87 234"/>
<path stroke-width="0.5" stroke="black" d="M 68 89 42 255"/>
<path stroke-width="0.5" stroke="black" d="M 68 89 20 167"/>
<path stroke-width="0.5" stroke="black" d="M 68 89 237 20"/>
<path stroke-width="0.5" stroke="black" d="M 68 89 273 320"/>
<path stroke-width="0.5" stroke="black" d="M 130 194 399 232"/>
<path stroke-width="0.5" stroke="black" d="M 130 194 375 209"/>
<path stroke-width="0.5" stroke="black" d="M 130 194 155 36"/>
<path stroke-width="0.5" stroke="black" d="M 20 167 134 302"/>
<path stroke-width="0.5" stroke="black" d="M 20 167 68 89"/>
<path stroke-width="0.5" stroke="black" d="M 20 167 292 32"/>
<path stroke-width="0.5" stroke="black" d="M 20 167 273 320"/>
<path stroke-width="0.5" stroke="black" d="M 20 167 380 63"/>
<path stroke-width="0.5" stroke="black" d="M 20 167 200 280"/>
<path stroke-width="0.5" stroke="black" d="M 20 167 130 194"/>
<path stroke-width="0.5" stroke="black" d="M 20 167 168 128"/>
<path stroke-width="0.5" stroke="black" d="M 20 167 420 155"/>
<path stroke-width="0.5" stroke="black" d="M 20 167 87 234"/>
<path stroke-width="0.5" stroke="black" d="M 20 167 237 20"/>
<path stroke-width="0.5" stroke="black" d="M 20 167 308 260"/>
<path stroke-width="8.857142857142858" stroke="black" d="M 237 20 212 236"/>
<path stroke-width="3.2857142857142856" stroke="black" d="M 237 20 217 201"/>
<path stroke-width="0.5" stroke="black" d="M 237 20 416 259"/>
<path stroke-width="0.5" stroke="black" d="M 237 20 270 129"/>
<path stroke-width="0.5" stroke="black" d="M 237 20 30 178"/>
<path stroke-width="0.5" stroke="black" d="M 237 20 399 232"/>
<path stroke-width="0.5" stroke="black" d="M 20 167 42 255"/>
<path stroke-width="0.5" stroke="black" d="M 237 20 375 209"/>
<path stroke-width="0.5" stroke="black" d="M 20 167 181 57"/>
<path stroke-width="0.5" stroke="black" d="M 20 167 375 63"/>
<path stroke-width="0.5" stroke="black" d="M 42 255 380 63"/>
<path stroke-width="0.5" stroke="black" d="M 42 255 200 280"/>
<path stroke-width="0.5" stroke="black" d="M 42 255 130 194"/>
<path stroke-width="0.5" stroke="black" d="M 42 255 168 128"/>
<path stroke-width="0.5" stroke="black" d="M 42 255 87 234"/>
<path stroke-width="0.5" stroke="black" d="M 42 255 20 167"/>
<path stroke-width="0.5" stroke="black" d="M 42 255 237 20"/>
<path stroke-width="0.5" stroke="black" d="M 42 255 308 260"/>
<path stroke-width="0.5" stroke="black" d="M 20 167 180 261"/>
<path stroke-width="7.464285714285714" stroke="black" d="M 20 167 212 236"/>
<path stroke-width="0.5" stroke="black" d="M 20 167 416 259"/>
<path stroke-width="0.5" stroke="black" d="M 20 167 270 129"/>
<path stroke-width="0.5" stroke="black" d="M 20 167 30 178"/>
<path stroke-width="0.5" stroke="black" d="M 20 167 399 232"/>
<path stroke-width="0.5" stroke="black" d="M 20 167 375 209"/>
<path stroke-width="0.5" stroke="black" d="M 20 167 155 36"/>
<path stroke-width="0.5" stroke="black" d="M 20 167 316 305"/>
<path stroke-width="0.5" stroke="black" d="M 20 167 76 89"/>
<path stroke-width="3.2857142857142856" stroke="black" d="M 20 167 217 201"/>
<path stroke-width="0.5" stroke="black" d="M 42 255 273 320"/>
<path stroke-width="0.5" stroke="black" d="M 237 20 155 36"/>
<path stroke-width="4.678571428571429" stroke="black" d="M 237 20 76 89"/>
<path stroke-width="0.5" stroke="black" d="M 308 260 375 209"/>
<path stroke-width="0.5" stroke="black" d="M 308 260 155 36"/>
<path stroke-width="0.5" stroke="black" d="M 308 260 316 305"/>
<path stroke-width="0.5" stroke="black" d="M 308 260 76 89"/>
<path stroke-width="0.5" stroke="black" d="M 308 260 375 63"/>
<path stroke-width="0.5" stroke="black" d="M 308 260 180 261"/>
<path stroke-width="0.5" stroke="black" d="M 308 260 181 57"/>
<path stroke-width="0.5" stroke="black" d="M 308 260 420 155"/>
<path stroke-width="0.5" stroke="black" d="M 308 260 399 232"/>
<path stroke-width="0.5" stroke="black" d="M 308 260 134 302"/>
<path stroke-width="4.678571428571429" stroke="black" d="M 308 260 292 32"/>
<path stroke-width="0.5" stroke="black" d="M 308 260 273 320"/>
<path stroke-width="0.5" stroke="black" d="M 308 260 380 63"/>
<path stroke-width="0.5" stroke="black" d="M 308 260 200 280"/>
<path stroke-width="0.5" stroke="black" d="M 308 260 130 194"/>
<path stroke-width="0.5" stroke="black" d="M 308 260 168 128"/>
<path stroke-width="0.5" stroke="black" d="M 308 260 87 234"/>
<path stroke-width="0.5" stroke="black" d="M 308 260 42 255"/>
<path stroke-width="0.5" stroke="black" d="M 308 260 68 89"/>
<path stroke-width="0.5" stroke="black" d="M 237 20 316 305"/>
<path stroke-width="0.5" stroke="black" d="M 308 260 30 178"/>
<path stroke-width="0.5" stroke="black" d="M 308 260 416 259"/>
<path stroke-width="0.5" stroke="black" d="M 237 20 375 63"/>
<path stroke-width="0.5" stroke="black" d="M 237 20 180 261"/>
<path stroke-width="0.5" stroke="black" d="M 237 20 181 57"/>
<path stroke-width="0.5" stroke="black" d="M 237 20 420 155"/>
<path stroke-width="0.5" stroke="black" d="M 237 20 134 302"/>
<path stroke-width="0.5" stroke="black" d="M 237 20 68 89"/>
<path stroke-width="0.5" stroke="black" d="M 237 20 292 32"/>
<path stroke-width="0.5" stroke="black" d="M 237 20 273 320"/>
<path stroke-width="0.5" stroke="black" d="M 308 260 270 129"/>
<path stroke-width="0.5" stroke="black" d="M 237 20 380 63"/>
<path stroke-width="0.5" stroke="black" d="M 237 20 130 194"/>
<path stroke-width="0.5" stroke="black" d="M 237 20 168 128"/>
<path stroke-width="0.5" stroke="black" d="M 237 20 87 234"/>
<path stroke-width="0.5" stroke="black" d="M 237 20 42 255"/>
<path stroke-width="0.5" stroke="black" d="M 237 20 20 167"/>
<path stroke-width="0.5" stroke="black" d="M 237 20 308 260"/>
<path stroke-width="8.857142857142858" stroke="black" d="M 308 260 212 236"/>
<path stroke-width="3.2857142857142856" stroke="black" d="M 308 260 217 201"/>
<path stroke-width="0.5" stroke="black" d="M 237 20 200 280"/>
<path stroke-width="0.5" stroke="black" d="M 420 155 68 89"/>
<path stroke-width="0.5" stroke="black" d="M 42 255 292 32"/>
<path stroke-width="0.5" stroke="black" d="M 42 255 134 302"/>
<path stroke-width="0.5" stroke="black" d="M 168 128 30 178"/>
<path stroke-width="0.5" stroke="black" d="M 168 128 399 232"/>
<path stroke-width="0.5" stroke="black" d="M 168 128 375 209"/>
<path stroke-width="0.5" stroke="black" d="M 168 128 155 36"/>
<path stroke-width="0.5" stroke="black" d="M 168 128 316 305"/>
<path stroke-width="0.5" stroke="black" d="M 168 128 76 89"/>
<path stroke-width="0.5" stroke="black" d="M 168 128 375 63"/>
<path stroke-width="0.5" stroke="black" d="M 168 128 180 261"/>
<path stroke-width="0.5" stroke="black" d="M 168 128 270 129"/>
<path stroke-width="0.5" stroke="black" d="M 168 128 181 57"/>
<path stroke-width="0.5" stroke="black" d="M 168 128 134 302"/>
<path stroke-width="0.5" stroke="black" d="M 168 128 68 89"/>
<path stroke-width="0.5" stroke="black" d="M 168 128 292 32"/>
<path stroke-width="0.5" stroke="black" d="M 168 128 273 320"/>
<path stroke-width="0.5" stroke="black" d="M 168 128 380 63"/>
<path stroke-width="0.5" stroke="black" d="M 168 128 200 280"/>
<path stroke-width="0.5" stroke="black" d="M 168 128 130 194"/>
<path stroke-width="0.5" stroke="black" d="M 168 128 87 234"/>
<path stroke-width="0.5" stroke="black" d="M 168 128 420 155"/>
<path stroke-width="0.5" stroke="black" d="M 168 128 42 255"/>
<path stroke-width="0.5" stroke="black" d="M 168 128 416 259"/>
<path stroke-width="13.035714285714286" stroke="black" d="M 168 128 212 236"/>
<path stroke-width="0.5" stroke="black" d="M 130 194 316 305"/>
<path stroke-width="0.5" stroke="black" d="M 130 194 76 89"/>
<path stroke-width="0.5" stroke="black" d="M 130 194 375 63"/>
<path stroke-width="0.5" stroke="black" d="M 130 194 180 261"/>
<path stroke-width="0.5" stroke="black" d="M 130 194 181 57"/>
<path stroke-width="0.5" stroke="black" d="M 130 194 420 155"/>
<path stroke-width="0.5" stroke="black" d="M 130 194 134 302"/>
<path stroke-width="0.5" stroke="black" d="M 130 194 68 89"/>
<path stroke-width="3.2857142857142856" stroke="black" d="M 168 128 217 201"/>
<path stroke-width="0.5" stroke="black" d="M 130 194 292 32"/>
<path stroke-width="0.5" stroke="black" d="M 130 194 380 63"/>
<path stroke-width="0.5" stroke="black" d="M 130 194 200 280"/>
<path stroke-width="0.5" stroke="black" d="M 130 194 168 128"/>
<path stroke-width="0.5" stroke="black" d="M 130 194 87 234"/>
<path stroke-width="0.5" stroke="black" d="M 130 194 42 255"/>
<path stroke-width="0.5" stroke="black" d="M 130 194 20 167"/>
<path stroke-width="0.5" stroke="black" d="M 130 194 237 20"/>
<path stroke-width="0.5" stroke="black" d="M 130 194 308 260"/>
<path stroke-width="0.5" stroke="black" d="M 130 194 273 320"/>
<path stroke-width="0.5" stroke="black" d="M 42 255 68 89"/>
<path stroke-width="0.5" stroke="black" d="M 168 128 20 167"/>
<path stroke-width="0.5" stroke="black" d="M 168 128 308 260"/>
<path stroke-width="0.5" stroke="black" d="M 87 234 42 255"/>
<path stroke-width="0.5" stroke="black" d="M 87 234 20 167"/>
<path stroke-width="0.5" stroke="black" d="M 87 234 237 20"/>
<path stroke-width="0.5" stroke="black" d="M 87 234 308 260"/>
<path stroke-width="6.071428571428571" stroke="black" d="M 42 255 212 236"/>
<path stroke-width="7.464285714285714" stroke="black" d="M 42 255 217 201"/>
<path stroke-width="0.5" stroke="black" d="M 42 255 416 259"/>
<path stroke-width="0.5" stroke="black" d="M 42 255 270 129"/>
<path stroke-width="0.5" stroke="black" d="M 87 234 168 128"/>
<path stroke-width="0.5" stroke="black" d="M 42 255 30 178"/>
<path stroke-width="0.5" stroke="black" d="M 42 255 375 209"/>
<path stroke-width="0.5" stroke="black" d="M 42 255 155 36"/>
<path stroke-width="0.5" stroke="black" d="M 42 255 316 305"/>
<path stroke-width="0.5" stroke="black" d="M 42 255 76 89"/>
<path stroke-width="0.5" stroke="black" d="M 42 255 375 63"/>
<path stroke-width="0.5" stroke="black" d="M 42 255 180 261"/>
<path stroke-width="0.5" stroke="black" d="M 42 255 181 57"/>
<path stroke-width="0.5" stroke="black" d="M 42 255 420 155"/>
<path stroke-width="0.5" stroke="black" d="M 42 255 399 232"/>
<path stroke-width="0.5" stroke="black" d="M 168 128 237 20"/>
<path stroke-width="0.5" stroke="black" d="M 87 234 130 194"/>
<path stroke-width="0.5" stroke="black" d="M 87 234 380 63"/>
<path stroke-width="8.857142857142858" stroke="black" d="M 87 234 212 236"/>
<path stroke-width="7.464285714285714" stroke="black" d="M 87 234 217 201"/>
<path stroke-width="0.5" stroke="black" d="M 87 234 416 259"/>
<path stroke-width="0.5" stroke="black" d="M 87 234 270 129"/>
<path stroke-width="0.5" stroke="black" d="M 87 234 30 178"/>
<path stroke-width="0.5" stroke="black" d="M 87 234 399 232"/>
<path stroke-width="0.5" stroke="black" d="M 87 234 375 209"/>
<path stroke-width="0.5" stroke="black" d="M 87 234 155 36"/>
<path stroke-width="0.5" stroke="black" d="M 87 234 200 280"/>
<path stroke-width="0.5" stroke="black" d="M 87 234 316 305"/>
<path stroke-width="0.5" stroke="black" d="M 87 234 375 63"/>
<path stroke-width="0.5" stroke="black" d="M 87 234 180 261"/>
<path stroke-width="0.5" stroke="black" d="M 87 234 181 57"/>
<path stroke-width="0.5" stroke="black" d="M 87 234 420 155"/>
<path stroke-width="0.5" stroke="black" d="M 87 234 134 302"/>
<path stroke-width="0.5" stroke="black" d="M 87 234 68 89"/>
<path stroke-width="0.5" stroke="black" d="M 87 234 292 32"/>
<path stroke-width="0.5" stroke="black" d="M 87 234 273 320"/>
<path stroke-width="0.5" stroke="black" d="M 87 234 76 89"/>
<path stroke-width="0.5" stroke="black" d="M 420 155 134 302"/>
<path stroke-width="0.5" stroke="black" d="M 420 155 181 57"/>
<path stroke-width="0.5" stroke="black" d="M 420 155 180 261"/>
<path stroke-width="0.5" stroke="black" d="M 30 178 316 305"/>
<path stroke-width="0.5" stroke="black" d="M 30 178 76 89"/>
<path stroke-width="0.5" stroke="black" d="M 30 178 375 63"/>
<path stroke-width="0.5" stroke="black" d="M 30 178 180 261"/>
<path stroke-width="0.5" stroke="black" d="M 30 178 181 57"/>
<path stroke-width="0.5" stroke="black" d="M 30 178 420 155"/>
<path stroke-width="0.5" stroke="black" d="M 30 178 134 302"/>
<path stroke-width="0.5" stroke="black" d="M 30 178 68 89"/>
<path stroke-width="0.5" stroke="black" d="M 30 178 155 36"/>
<path stroke-width="0.5" stroke="black" d="M 30 178 292 32"/>
<path stroke-width="0.5" stroke="black" d="M 30 178 380 63"/>
<path stroke-width="4.678571428571429" stroke="black" d="M 30 178 200 280"/>
<path stroke-width="0.5" stroke="black" d="M 30 178 130 194"/>
<path stroke-width="0.5" stroke="black" d="M 30 178 168 128"/>
<path stroke-width="0.5" stroke="black" d="M 30 178 87 234"/>
<path stroke-width="0.5" stroke="black" d="M 30 178 42 255"/>
<path stroke-width="0.5" stroke="black" d="M 30 178 20 167"/>
<path stroke-width="0.5" stroke="black" d="M 30 178 237 20"/>
<path stroke-width="0.5" stroke="black" d="M 30 178 273 320"/>
<path stroke-width="0.5" stroke="black" d="M 30 178 308 260"/>
<path stroke-width="0.5" stroke="black" d="M 30 178 375 209"/>
<path stroke-width="0.5" stroke="black" d="M 30 178 270 129"/>
<path stroke-width="0.5" stroke="black" d="M 270 129 181 57"/>
<path stroke-width="0.5" stroke="black" d="M 270 129 420 155"/>
<path stroke-width="0.5" stroke="black" d="M 270 129 134 302"/>
<path stroke-width="0.5" stroke="black" d="M 270 129 68 89"/>
<path stroke-width="0.5" stroke="black" d="M 270 129 292 32"/>
<path stroke-width="0.5" stroke="black" d="M 270 129 273 320"/>
<path stroke-width="0.5" stroke="black" d="M 270 129 380 63"/>
<path stroke-width="0.5" stroke="black" d="M 270 129 200 280"/>
<path stroke-width="0.5" stroke="black" d="M 30 178 399 232"/>
<path stroke-width="4.678571428571429" stroke="black" d="M 270 129 130 194"/>
<path stroke-width="0.5" stroke="black" d="M 270 129 87 234"/>
<path stroke-width="0.5" stroke="black" d="M 270 129 42 255"/>
<path stroke-width="0.5" stroke="black" d="M 270 129 20 167"/>
<path stroke-width="0.5" stroke="black" d="M 270 129 237 20"/>
<path stroke-width="0.5" stroke="black" d="M 270 129 308 260"/>
<path stroke-width="8.857142857142858" stroke="black" d="M 30 178 212 236"/>
<path stroke-width="3.2857142857142856" stroke="black" d="M 30 178 217 201"/>
<path stroke-width="0.5" stroke="black" d="M 30 178 416 259"/>
<path stroke-width="0.5" stroke="black" d="M 270 129 168 128"/>
<path stroke-width="0.5" stroke="black" d="M 270 129 180 261"/>
<path stroke-width="8.857142857142858" stroke="black" d="M 399 232 212 236"/>
<path stroke-width="0.5" stroke="black" d="M 399 232 416 259"/>
<path stroke-width="0.5" stroke="black" d="M 399 232 308 260"/>
<path stroke-width="8.857142857142858" stroke="black" d="M 375 209 212 236"/>
<path stroke-width="3.2857142857142856" stroke="black" d="M 375 209 217 201"/>
<path stroke-width="0.5" stroke="black" d="M 375 209 416 259"/>
<path stroke-width="0.5" stroke="black" d="M 375 209 270 129"/>
<path stroke-width="0.5" stroke="black" d="M 375 209 30 178"/>
<path stroke-width="0.5" stroke="black" d="M 375 209 399 232"/>
<path stroke-width="0.5" stroke="black" d="M 375 209 155 36"/>
<path stroke-width="0.5" stroke="black" d="M 399 232 237 20"/>
<path stroke-width="0.5" stroke="black" d="M 375 209 316 305"/>
<path stroke-width="0.5" stroke="black" d="M 375 209 375 63"/>
<path stroke-width="0.5" stroke="black" d="M 375 209 180 261"/>
<path stroke-width="0.5" stroke="black" d="M 375 209 181 57"/>
<path stroke-width="0.5" stroke="black" d="M 375 209 420 155"/>
<path stroke-width="0.5" stroke="black" d="M 375 209 134 302"/>
<path stroke-width="0.5" stroke="black" d="M 375 209 68 89"/>
<path stroke-width="0.5" stroke="black" d="M 375 209 292 32"/>
<path stroke-width="4.678571428571429" stroke="black" d="M 375 209 273 320"/>
<path stroke-width="0.5" stroke="black" d="M 375 209 76 89"/>
<path stroke-width="3.2857142857142856" stroke="black" d="M 399 232 217 201"/>
<path stroke-width="0.5" stroke="black" d="M 399 232 20 167"/>
<path stroke-width="0.5" stroke="black" d="M 399 232 87 234"/>
<path stroke-width="0.5" stroke="black" d="M 399 232 270 129"/>
<path stroke-width="0.5" stroke="black" d="M 399 232 30 178"/>
<path stroke-width="0.5" stroke="black" d="M 399 232 375 209"/>
<path stroke-width="0.5" stroke="black" d="M 399 232 155 36"/>
<path stroke-width="0.5" stroke="black" d="M 399 232 316 305"/>
<path stroke-width="0.5" stroke="black" d="M 399 232 76 89"/>
<path stroke-width="0.5" stroke="black" d="M 399 232 375 63"/>
<path stroke-width="0.5" stroke="black" d="M 399 232 180 261"/>
<path stroke-width="0.5" stroke="black" d="M 399 232 42 255"/>
<path stroke-width="0.5" stroke="black" d="M 399 232 181 57"/>
<path stroke-width="0.5" stroke="black" d="M 399 232 134 302"/>
<path stroke-width="0.5" stroke="black" d="M 399 232 68 89"/>
<path stroke-width="0.5" stroke="black" d="M 399 232 292 32"/>
<path stroke-width="0.5" stroke="black" d="M 399 232 273 320"/>
<path stroke-width="4.678571428571429" stroke="black" d="M 399 232 380 63"/>
<path stroke-width="0.5" stroke="black" d="M 399 232 200 280"/>
<path stroke-width="0.5" stroke="black" d="M 399 232 130 194"/>
<path stroke-width="0.5" stroke="black" d="M 399 232 168 128"/>
<path stroke-width="0.5" stroke="black" d="M 399 232 420 155"/>
<path stroke-width="0.5" stroke="black" d="M 375 209 380 63"/>
<path stroke-width="0.5" stroke="black" d="M 270 129 375 63"/>
<path stroke-width="0.5" stroke="black" d="M 270 129 316 305"/>
<path stroke-width="7.464285714285714" stroke="black" d="M 212 236 20 167"/>
<path stroke-width="8.857142857142858" stroke="black" d="M 212 236 237 20"/>
<path stroke-width="8.857142857142858" stroke="black" d="M 212 236 308 260"/>
<path stroke-width="20.0" stroke="black" d="M 217 201 212 236"/>
<path stroke-width="0.5" stroke="black" d="M 217 201 416 259"/>
<path stroke-width="3.2857142857142856" stroke="black" d="M 217 201 270 129"/>
<path stroke-width="3.2857142857142856" stroke="black" d="M 217 201 30 178"/>
<path stroke-width="3.2857142857142856" stroke="black" d="M 217 201 399 232"/>
<path stroke-width="6.071428571428571" stroke="black" d="M 212 236 42 255"/>
<path stroke-width="3.2857142857142856" stroke="black" d="M 217 201 375 209"/>
<path stroke-width="3.2857142857142856" stroke="black" d="M 217 201 316 305"/>
<path stroke-width="3.2857142857142856" stroke="black" d="M 217 201 76 89"/>
<path stroke-width="3.2857142857142856" stroke="black" d="M 217 201 375 63"/>
<path stroke-width="3.2857142857142856" stroke="black" d="M 217 201 180 261"/>
<path stroke-width="3.2857142857142856" stroke="black" d="M 217 201 181 57"/>
<path stroke-width="3.2857142857142856" stroke="black" d="M 217 201 420 155"/>
<path stroke-width="3.2857142857142856" stroke="black" d="M 217 201 134 302"/>
<path stroke-width="3.2857142857142856" stroke="black" d="M 217 201 68 89"/>
<path stroke-width="3.2857142857142856" stroke="black" d="M 217 201 155 36"/>
<path stroke-width="3.2857142857142856" stroke="black" d="M 217 201 292 32"/>
<path stroke-width="8.857142857142858" stroke="black" d="M 212 236 87 234"/>
<path stroke-width="8.857142857142858" stroke="black" d="M 212 236 130 194"/>
<path stroke-width="7.464285714285714" stroke="black" d="M 212 236 416 259"/>
<path stroke-width="8.857142857142858" stroke="black" d="M 212 236 270 129"/>
<path stroke-width="8.857142857142858" stroke="black" d="M 212 236 30 178"/>
<path stroke-width="8.857142857142858" stroke="black" d="M 212 236 399 232"/>
<path stroke-width="8.857142857142858" stroke="black" d="M 212 236 375 209"/>
<path stroke-width="8.857142857142858" stroke="black" d="M 212 236 155 36"/>
<path stroke-width="8.857142857142858" stroke="black" d="M 212 236 316 305"/>
<path stroke-width="8.857142857142858" stroke="black" d="M 212 236 76 89"/>
<path stroke-width="13.035714285714286" stroke="black" d="M 212 236 168 128"/>
<path stroke-width="8.857142857142858" stroke="black" d="M 212 236 375 63"/>
<path stroke-width="8.857142857142858" stroke="black" d="M 212 236 181 57"/>
<path stroke-width="8.857142857142858" stroke="black" d="M 212 236 420 155"/>
<path stroke-width="8.857142857142858" stroke="black" d="M 212 236 134 302"/>
<path stroke-width="8.857142857142858" stroke="black" d="M 212 236 68 89"/>
<path stroke-width="8.857142857142858" stroke="black" d="M 212 236 292 32"/>
<path stroke-width="8.857142857142858" stroke="black" d="M 212 236 273 320"/>
<path stroke-width="8.857142857142858" stroke="black" d="M 212 236 380 63"/>
<path stroke-width="8.857142857142858" stroke="black" d="M 212 236 200 280"/>
<path stroke-width="8.857142857142858" stroke="black" d="M 212 236 180 261"/>
<path stroke-width="0.5" stroke="black" d="M 270 129 76 89"/>
<path stroke-width="3.2857142857142856" stroke="black" d="M 217 201 273 320"/>
<path stroke-width="3.2857142857142856" stroke="black" d="M 217 201 200 280"/>
<path stroke-width="0.5" stroke="black" d="M 416 259 292 32"/>
<path stroke-width="0.5" stroke="black" d="M 416 259 273 320"/>
<path stroke-width="0.5" stroke="black" d="M 416 259 380 63"/>
<path stroke-width="0.5" stroke="black" d="M 416 259 200 280"/>
<path stroke-width="0.5" stroke="black" d="M 416 259 130 194"/>
<path stroke-width="0.5" stroke="black" d="M 416 259 168 128"/>
<path stroke-width="0.5" stroke="black" d="M 416 259 87 234"/>
<path stroke-width="0.5" stroke="black" d="M 416 259 42 255"/>
<path stroke-width="0.5" stroke="black" d="M 416 259 68 89"/>
<path stroke-width="0.5" stroke="black" d="M 416 259 20 167"/>
<path stroke-width="0.5" stroke="black" d="M 416 259 308 260"/>
<path stroke-width="8.857142857142858" stroke="black" d="M 270 129 212 236"/>
<path stroke-width="3.2857142857142856" stroke="black" d="M 270 129 217 201"/>
<path stroke-width="0.5" stroke="black" d="M 270 129 416 259"/>
<path stroke-width="0.5" stroke="black" d="M 270 129 30 178"/>
<path stroke-width="0.5" stroke="black" d="M 270 129 399 232"/>
<path stroke-width="0.5" stroke="black" d="M 270 129 375 209"/>
<path stroke-width="0.5" stroke="black" d="M 270 129 155 36"/>
<path stroke-width="0.5" stroke="black" d="M 416 259 237 20"/>
<path stroke-width="3.2857142857142856" stroke="black" d="M 217 201 380 63"/>
<path stroke-width="0.5" stroke="black" d="M 416 259 134 302"/>
<path stroke-width="0.5" stroke="black" d="M 416 259 181 57"/>
<path stroke-width="3.2857142857142856" stroke="black" d="M 217 201 130 194"/>
<path stroke-width="3.2857142857142856" stroke="black" d="M 217 201 168 128"/>
<path stroke-width="7.464285714285714" stroke="black" d="M 217 201 87 234"/>
<path stroke-width="7.464285714285714" stroke="black" d="M 217 201 42 255"/>
<path stroke-width="3.2857142857142856" stroke="black" d="M 217 201 20 167"/>
<path stroke-width="3.2857142857142856" stroke="black" d="M 217 201 237 20"/>
<path stroke-width="3.2857142857142856" stroke="black" d="M 217 201 308 260"/>
<path stroke-width="7.464285714285714" stroke="black" d="M 416 259 212 236"/>
<path stroke-width="0.5" stroke="black" d="M 416 259 420 155"/>
<path stroke-width="0.5" stroke="black" d="M 416 259 217 201"/>
<path stroke-width="0.5" stroke="black" d="M 416 259 30 178"/>
<path stroke-width="0.5" stroke="black" d="M 416 259 399 232"/>
<path stroke-width="0.5" stroke="black" d="M 416 259 375 209"/>
<path stroke-width="0.5" stroke="black" d="M 416 259 155 36"/>
<path stroke-width="0.5" stroke="black" d="M 416 259 316 305"/>
<path stroke-width="0.5" stroke="black" d="M 416 259 76 89"/>
<path stroke-width="0.5" stroke="black" d="M 416 259 375 63"/>
<path stroke-width="0.5" stroke="black" d="M 416 259 180 261"/>
<path stroke-width="0.5" stroke="black" d="M 416 259 270 129"/>
<path stroke-width="0.5" stroke="black" d="M 308 260 20 167"/>
<path stroke-width="0.5" stroke="black" d="M 375 209 200 280"/>
<path stroke-width="0.5" stroke="black" d="M 375 209 168 128"/>
<path stroke-width="3.2857142857142856" stroke="black" d="M 180 261 217 201"/>
<path stroke-width="0.5" stroke="black" d="M 180 261 416 259"/>
<path stroke-width="0.5" stroke="black" d="M 180 261 270 129"/>
<path stroke-width="0.5" stroke="black" d="M 180 261 30 178"/>
<path stroke-width="0.5" stroke="black" d="M 180 261 399 232"/>
<path stroke-width="0.5" stroke="black" d="M 180 261 375 209"/>
<path stroke-width="0.5" stroke="black" d="M 180 261 155 36"/>
<path stroke-width="0.5" stroke="black" d="M 180 261 316 305"/>
<path stroke-width="8.857142857142858" stroke="black" d="M 180 261 212 236"/>
<path stroke-width="0.5" stroke="black" d="M 180 261 76 89"/>
<path stroke-width="4.678571428571429" stroke="black" d="M 180 261 181 57"/>
<path stroke-width="0.5" stroke="black" d="M 180 261 420 155"/>
<path stroke-width="0.5" stroke="black" d="M 180 261 134 302"/>
<path stroke-width="0.5" stroke="black" d="M 180 261 68 89"/>
<path stroke-width="0.5" stroke="black" d="M 180 261 292 32"/>
<path stroke-width="0.5" stroke="black" d="M 180 261 273 320"/>
<path stroke-width="0.5" stroke="black" d="M 180 261 380 63"/>
<path stroke-width="0.5" stroke="black" d="M 180 261 200 280"/>
<path stroke-width="0.5" stroke="black" d="M 180 261 375 63"/>
<path stroke-width="0.5" stroke="black" d="M 180 261 130 194"/>
<path stroke-width="0.5" stroke="black" d="M 375 63 308 260"/>
<path stroke-width="0.5" stroke="black" d="M 375 63 20 167"/>
<path stroke-width="0.5" stroke="black" d="M 375 63 399 232"/>
<path stroke-width="0.5" stroke="black" d="M 375 63 375 209"/>
<path stroke-width="0.5" stroke="black" d="M 375 63 155 36"/>
<path stroke-width="0.5" stroke="black" d="M 375 63 316 305"/>
<path stroke-width="0.5" stroke="black" d="M 375 63 76 89"/>
<path stroke-width="0.5" stroke="black" d="M 375 63 180 261"/>
<path stroke-width="0.5" stroke="black" d="M 375 63 181 57"/>
<path stroke-width="4.678571428571429" stroke="black" d="M 375 63 420 155"/>
<path stroke-width="0.5" stroke="black" d="M 375 63 237 20"/>
<path stroke-width="0.5" stroke="black" d="M 375 63 134 302"/>
<path stroke-width="0.5" stroke="black" d="M 375 63 292 32"/>
<path stroke-width="0.5" stroke="black" d="M 375 63 273 320"/>
<path stroke-width="0.5" stroke="black" d="M 375 63 380 63"/>
<path stroke-width="0.5" stroke="black" d="M 375 63 200 280"/>
<path stroke-width="0.5" stroke="black" d="M 375 63 130 194"/>
<path stroke-width="0.5" stroke="black" d="M 375 63 168 128"/>
<path stroke-width="0.5" stroke="black" d="M 375 63 87 234"/>
<path stroke-width="0.5" stroke="black" d="M 375 63 42 255"/>
<path stroke-width="0.5" stroke="black" d="M 375 63 68 89"/>
<path stroke-width="0.5" stroke="black" d="M 375 63 30 178"/>
<path stroke-width="0.5" stroke="black" d="M 180 261 168 128"/>
<path stroke-width="0.5" stroke="black" d="M 180 261 42 255"/>
<path stroke-width="0.5" stroke="black" d="M 181 57 130 194"/>
<path stroke-width="0.5" stroke="black" d="M 181 57 168 128"/>
<path stroke-width="0.5" stroke="black" d="M 181 57 87 234"/>
<path stroke-width="0.5" stroke="black" d="M 181 57 42 255"/>
<path stroke-width="0.5" stroke="black" d="M 181 57 20 167"/>
<path stroke-width="0.5" stroke="black" d="M 181 57 237 20"/>
<path stroke-width="0.5" stroke="black" d="M 181 57 308 260"/>
<path stroke-width="8.857142857142858" stroke="black" d="M 420 155 212 236"/>
<path stroke-width="0.5" stroke="black" d="M 181 57 200 280"/>
<path stroke-width="3.2857142857142856" stroke="black" d="M 420 155 217 201"/>
<path stroke-width="0.5" stroke="black" d="M 420 155 270 129"/>
<path stroke-width="0.5" stroke="black" d="M 420 155 30 178"/>
<path stroke-width="0.5" stroke="black" d="M 420 155 399 232"/>
<path stroke-width="0.5" stroke="black" d="M 420 155 375 209"/>
<path stroke-width="0.5" stroke="black" d="M 420 155 155 36"/>
<path stroke-width="0.5" stroke="black" d="M 420 155 316 305"/>
<path stroke-width="0.5" stroke="black" d="M 420 155 76 89"/>
<path stroke-width="4.678571428571429" stroke="black" d="M 420 155 375 63"/>
<path stroke-width="0.5" stroke="black" d="M 420 155 416 259"/>
<path stroke-width="0.5" stroke="black" d="M 180 261 87 234"/>
<path stroke-width="0.5" stroke="black" d="M 181 57 380 63"/>
<path stroke-width="0.5" stroke="black" d="M 181 57 292 32"/>
<path stroke-width="0.5" stroke="black" d="M 180 261 20 167"/>
<path stroke-width="0.5" stroke="black" d="M 180 261 237 20"/>
<path stroke-width="0.5" stroke="black" d="M 180 261 308 260"/>
<path stroke-width="8.857142857142858" stroke="black" d="M 181 57 212 236"/>
<path stroke-width="3.2857142857142856" stroke="black" d="M 181 57 217 201"/>
<path stroke-width="0.5" stroke="black" d="M 181 57 416 259"/>
<path stroke-width="0.5" stroke="black" d="M 181 57 270 129"/>
<path stroke-width="0.5" stroke="black" d="M 181 57 30 178"/>
<path stroke-width="0.5" stroke="black" d="M 181 57 273 320"/>
<path stroke-width="0.5" stroke="black" d="M 181 57 399 232"/>
<path stroke-width="0.5" stroke="black" d="M 181 57 155 36"/>
<path stroke-width="0.5" stroke="black" d="M 181 57 316 305"/>
<path stroke-width="0.5" stroke="black" d="M 181 57 76 89"/>
<path stroke-width="0.5" stroke="black" d="M 181 57 375 63"/>
<path stroke-width="4.678571428571429" stroke="black" d="M 181 57 180 261"/>
<path stroke-width="0.5" stroke="black" d="M 181 57 420 155"/>
<path stroke-width="0.5" stroke="black" d="M 181 57 134 302"/>
<path stroke-width="0.5" stroke="black" d="M 181 57 68 89"/>
<path stroke-width="0.5" stroke="black" d="M 181 57 375 209"/>
<path stroke-width="0.5" stroke="black" d="M 375 209 130 194"/>
<path stroke-width="0.5" stroke="black" d="M 375 63 270 129"/>
<path stroke-width="3.2857142857142856" stroke="black" d="M 375 63 217 201"/>
<path stroke-width="0.5" stroke="black" d="M 155 36 380 63"/>
<path stroke-width="0.5" stroke="black" d="M 155 36 200 280"/>
<path stroke-width="0.5" stroke="black" d="M 155 36 130 194"/>
<path stroke-width="0.5" stroke="black" d="M 155 36 168 128"/>
<path stroke-width="0.5" stroke="black" d="M 155 36 87 234"/>
<path stroke-width="0.5" stroke="black" d="M 155 36 42 255"/>
<path stroke-width="0.5" stroke="black" d="M 155 36 20 167"/>
<path stroke-width="0.5" stroke="black" d="M 155 36 237 20"/>
<path stroke-width="0.5" stroke="black" d="M 155 36 273 320"/>
<path stroke-width="0.5" stroke="black" d="M 155 36 308 260"/>
<path stroke-width="3.2857142857142856" stroke="black" d="M 316 305 217 201"/>
<path stroke-width="0.5" stroke="black" d="M 316 305 416 259"/>
<path stroke-width="0.5" stroke="black" d="M 316 305 270 129"/>
<path stroke-width="0.5" stroke="black" d="M 316 305 30 178"/>
<path stroke-width="0.5" stroke="black" d="M 316 305 399 232"/>
<path stroke-width="0.5" stroke="black" d="M 316 305 375 209"/>
<path stroke-width="0.5" stroke="black" d="M 316 305 155 36"/>
<path stroke-width="0.5" stroke="black" d="M 316 305 76 89"/>
<path stroke-width="8.857142857142858" stroke="black" d="M 316 305 212 236"/>
<path stroke-width="0.5" stroke="black" d="M 316 305 375 63"/>
<path stroke-width="0.5" stroke="black" d="M 155 36 292 32"/>
<path stroke-width="0.5" stroke="black" d="M 155 36 134 302"/>
<path stroke-width="0.5" stroke="black" d="M 375 209 87 234"/>
<path stroke-width="0.5" stroke="black" d="M 375 209 42 255"/>
<path stroke-width="0.5" stroke="black" d="M 375 209 20 167"/>
<path stroke-width="0.5" stroke="black" d="M 375 209 237 20"/>
<path stroke-width="0.5" stroke="black" d="M 375 209 308 260"/>
<path stroke-width="8.857142857142858" stroke="black" d="M 155 36 212 236"/>
<path stroke-width="3.2857142857142856" stroke="black" d="M 155 36 217 201"/>
<path stroke-width="0.5" stroke="black" d="M 155 36 416 259"/>
<path stroke-width="4.678571428571429" stroke="black" d="M 155 36 68 89"/>
<path stroke-width="0.5" stroke="black" d="M 155 36 270 129"/>
<path stroke-width="0.5" stroke="black" d="M 155 36 399 232"/>
<path stroke-width="0.5" stroke="black" d="M 155 36 375 209"/>
<path stroke-width="0.5" stroke="black" d="M 155 36 316 305"/>
<path stroke-width="0.5" stroke="black" d="M 155 36 76 89"/>
<path stroke-width="0.5" stroke="black" d="M 155 36 375 63"/>
<path stroke-width="0.5" stroke="black" d="M 155 36 180 261"/>
<path stroke-width="0.5" stroke="black" d="M 155 36 181 57"/>
<path stroke-width="0.5" stroke="black" d="M 155 36 420 155"/>
<path stroke-width="0.5" stroke="black" d="M 155 36 30 178"/>
<path stroke-width="0.5" stroke="black" d="M 375 63 416 259"/>
<path stroke-width="0.5" stroke="black" d="M 316 305 180 261"/>
<path stroke-width="0.5" stroke="black" d="M 316 305 420 155"/>
<path stroke-width="0.5" stroke="black" d="M 76 89 375 63"/>
<path stroke-width="0.5" stroke="black" d="M 76 89 180 261"/>
<path stroke-width="0.5" stroke="black" d="M 76 89 181 57"/>
<path stroke-width="0.5" stroke="black" d="M 76 89 420 155"/>
<path stroke-width="0.5" stroke="black" d="M 76 89 134 302"/>
<path stroke-width="0.5" stroke="black" d="M 76 89 68 89"/>
<path stroke-width="0.5" stroke="black" d="M 76 89 292 32"/>
<path stroke-width="0.5" stroke="black" d="M 76 89 273 320"/>
<path stroke-width="0.5" stroke="black" d="M 76 89 316 305"/>
<path stroke-width="0.5" stroke="black" d="M 76 89 380 63"/>
<path stroke-width="0.5" stroke="black" d="M 76 89 130 194"/>
<path stroke-width="0.5" stroke="black" d="M 76 89 168 128"/>
<path stroke-width="0.5" stroke="black" d="M 76 89 87 234"/>
<path stroke-width="0.5" stroke="black" d="M 76 89 42 255"/>
<path stroke-width="0.5" stroke="black" d="M 76 89 20 167"/>
<path stroke-width="4.678571428571429" stroke="black" d="M 76 89 237 20"/>
<path stroke-width="0.5" stroke="black" d="M 76 89 308 260"/>
<path stroke-width="8.857142857142858" stroke="black" d="M 375 63 212 236"/>
<path stroke-width="0.5" stroke="black" d="M 76 89 200 280"/>
<path stroke-width="0.5" stroke="black" d="M 316 305 181 57"/>
<path stroke-width="0.5" stroke="black" d="M 76 89 155 36"/>
<path stroke-width="0.5" stroke="black" d="M 76 89 399 232"/>
<path stroke-width="4.678571428571429" stroke="black" d="M 316 305 134 302"/>
<path stroke-width="0.5" stroke="black" d="M 316 305 68 89"/>
<path stroke-width="0.5" stroke="black" d="M 316 305 292 32"/>
<path stroke-width="0.5" stroke="black" d="M 316 305 273 320"/>
<path stroke-width="0.5" stroke="black" d="M 316 305 380 63"/>
<path stroke-width="0.5" stroke="black" d="M 316 305 200 280"/>
<path stroke-width="0.5" stroke="black" d="M 316 305 130 194"/>
<path stroke-width="0.5" stroke="black" d="M 316 305 168 128"/>
<path stroke-width="0.5" stroke="black" d="M 76 89 375 209"/>
<path stroke-width="0.5" stroke="black" d="M 316 305 87 234"/>
<path stroke-width="0.5" stroke="black" d="M 316 305 20 167"/>
<path stroke-width="0.5" stroke="black" d="M 316 305 237 20"/>
<path stroke-width="0.5" stroke="black" d="M 316 305 308 260"/>
<path stroke-width="8.857142857142858" stroke="black" d="M 76 89 212 236"/>
<path stroke-width="3.2857142857142856" stroke="black" d="M 76 89 217 201"/>
<path stroke-width="0.5" stroke="black" d="M 76 89 416 259"/>
<path stroke-width="0.5" stroke="black" d="M 76 89 270 129"/>
<path stroke-width="0.5" stroke="black" d="M 76 89 30 178"/>
<path stroke-width="0.5" stroke="black" d="M 316 305 42 255"/>
<path stroke-width="0.5" stroke="black" d="M 308 260 237 20"/>
<circle cx="212" cy="236" r="7.0" style="fill:blue;stroke:black;stroke-width:1.0"/>
<circle cx="217" cy="201" r="7.0" style="fill:blue;stroke:black;stroke-width:1.0"/>
<circle cx="416" cy="259" r="7.0" style="fill:blue;stroke:black;stroke-width:1.0"/>
<circle cx="270" cy="129" r="7.0" style="fill:green;stroke:black;stroke-width:1.0"/>
<circle cx="30" cy="178" r="7.0" style="fill:red;stroke:black;stroke-width:1.0"/>
<circle cx="399" cy="232" r="7.0" style="fill:blue;stroke:black;stroke-width:1.0"/>
<circle cx="375" cy="209" r="7.0" style="fill:blue;stroke:black;stroke-width:1.0"/>
<circle cx="155" cy="36" r="7.0" style="fill:blue;stroke:black;stroke-width:1.0"/>
<circle cx="316" cy="305" r="7.0" style="fill:blue;stroke:black;stroke-width:1.0"/>
<circle cx="76" cy="89" r="7.0" style="fill:orange;stroke:black;stroke-width:1.0"/>
<circle cx="375" cy="63" r="7.0" style="fill:blue;stroke:black;stroke-width:1.0"/>
<circle cx="180" cy="261" r="7.0" style="fill:blue;stroke:black;stroke-width:1.0"/>
<circle cx="181" cy="57" r="7.0" style="fill:blue;stroke:black;stroke-width:1.0"/>
<circle cx="420" cy="155" r="7.0" style="fill:blue;stroke:black;stroke-width:1.0"/>
<circle cx="134" cy="302" r="7.0" style="fill:blue;stroke:black;stroke-width:1.0"/>
<circle cx="68" cy="89" r="7.0" style="fill:blue;stroke:black;stroke-width:1.0"/>
<circle cx="292" cy="32" r="7.0" style="fill:purple;stroke:black;stroke-width:1.0"/>
<circle cx="273" cy="320" r="7.0" style="fill:blue;stroke:black;stroke-width:1.0"/>
<circle cx="380" cy="63" r="7.0" style="fill:blue;stroke:black;stroke-width:1.0"/>
<circle cx="200" cy="280" r="7.0" style="fill:red;stroke:black;stroke-width:1.0"/>
<circle cx="130" cy="194" r="7.0" style="fill:green;stroke:black;stroke-width:1.0"/>
<circle cx="168" cy="128" r="7.0" style="fill:blue;stroke:black;stroke-width:1.0"/>
<circle cx="87" cy="234" r="7.0" style="fill:blue;stroke:black;stroke-width:1.0"/>
<circle cx="42" cy="255" r="7.0" style="fill:blue;stroke:black;stroke-width:1.0"/>
<circle cx="20" cy="167" r="7.0" style="fill:blue;stroke:black;stroke-width:1.0"/>
<circle cx="237" cy="20" r="7.0" style="fill:orange;stroke:black;stroke-width:1.0"/>
<circle cx="308" cy="260" r="7.0" style="fill:purple;stroke:black;stroke-width:1.0"/>
</svg>
