<svg width="440" height="340" xmlns="http://www.w3.org/2000/svg">
<path stroke-width="1" stroke="black" d="M 291 167 235 157"/>
<path stroke-width="1" stroke="black" d="M 362 89 106 71"/>
<path stroke-width="1" stroke="black" d="M 362 89 40 135"/>
<path stroke-width="1" stroke="black" d="M 362 89 251 246"/>
<path stroke-width="1" stroke="black" d="M 362 89 204 34"/>
<path stroke-width="1" stroke="black" d="M 362 89 298 44"/>
<path stroke-width="1" stroke="black" d="M 20 234 291 167"/>
<path stroke-width="1" stroke="black" d="M 20 234 235 157"/>
<path stroke-width="1" stroke="black" d="M 20 234 206 20"/>
<path stroke-width="1" stroke="black" d="M 20 234 208 320"/>
<path stroke-width="1" stroke="black" d="M 20 234 331 302"/>
<path stroke-width="1" stroke="black" d="M 20 234 33 169"/>
<path stroke-width="1" stroke="black" d="M 20 234 247 91"/>
<path stroke-width="1" stroke="black" d="M 20 234 72 277"/>
<path stroke-width="1" stroke="black" d="M 20 234 374 268"/>
<path stroke-width="1" stroke="black" d="M 20 234 300 39"/>
<path stroke-width="1" stroke="black" d="M 20 234 350 183"/>
<path stroke-width="1" stroke="black" d="M 20 234 420 220"/>
<path stroke-width="1" stroke="black" d="M 362 89 413 188"/>
<path stroke-width="1" stroke="black" d="M 362 89 358 289"/>
<path stroke-width="1" stroke="black" d="M 362 89 86 289"/>
<path stroke-width="1" stroke="black" d="M 362 89 20 234"/>
<path stroke-width="1" stroke="black" d="M 116 66 298 44"/>
<path stroke-width="1" stroke="black" d="M 362 89 291 167"/>
<path stroke-width="1" stroke="black" d="M 362 89 235 157"/>
<path stroke-width="1" stroke="black" d="M 362 89 206 20"/>
<path stroke-width="1" stroke="black" d="M 362 89 208 320"/>
<path stroke-width="1" stroke="black" d="M 362 89 331 302"/>
<path stroke-width="1" stroke="black" d="M 362 89 33 169"/>
<path stroke-width="1" stroke="black" d="M 362 89 247 91"/>
<path stroke-width="1" stroke="black" d="M 20 234 219 313"/>
<path stroke-width="1" stroke="black" d="M 362 89 72 277"/>
<path stroke-width="1" stroke="black" d="M 362 89 300 39"/>
<path stroke-width="1" stroke="black" d="M 362 89 350 183"/>
<path stroke-width="1" stroke="black" d="M 362 89 420 220"/>
<path stroke-width="1" stroke="black" d="M 362 89 219 313"/>
<path stroke-width="1" stroke="black" d="M 362 89 157 180"/>
<path stroke-width="1" stroke="black" d="M 362 89 355 122"/>
<path stroke-width="1" stroke="black" d="M 362 89 49 158"/>
<path stroke-width="1" stroke="black" d="M 362 89 116 66"/>
<path stroke-width="1" stroke="black" d="M 362 89 374 268"/>
<path stroke-width="1" stroke="black" d="M 20 234 157 180"/>
<path stroke-width="1" stroke="black" d="M 20 234 355 122"/>
<path stroke-width="1" stroke="black" d="M 20 234 49 158"/>
<path stroke-width="1" stroke="black" d="M 86 289 219 313"/>
<path stroke-width="1" stroke="black" d="M 86 289 157 180"/>
<path stroke-width="1" stroke="black" d="M 86 289 355 122"/>
<path stroke-width="1" stroke="black" d="M 86 289 49 158"/>
<path stroke-width="1" stroke="black" d="M 86 289 116 66"/>
<path stroke-width="1" stroke="black" d="M 86 289 362 89"/>
<path stroke-width="1" stroke="black" d="M 86 289 20 234"/>
<path stroke-width="1" stroke="black" d="M 86 289 358 289"/>
<path stroke-width="1" stroke="black" d="M 86 289 420 220"/>
<path stroke-width="1" stroke="black" d="M 86 289 413 188"/>
<path stroke-width="1" stroke="black" d="M 86 289 40 135"/>
<path stroke-width="1" stroke="black" d="M 86 289 251 246"/>
<path stroke-width="1" stroke="black" d="M 86 289 204 34"/>
<path stroke-width="1" stroke="black" d="M 86 289 298 44"/>
<path stroke-width="1" stroke="black" d="M 358 289 291 167"/>
<path stroke-width="1" stroke="black" d="M 358 289 235 157"/>
<path stroke-width="1" stroke="black" d="M 358 289 206 20"/>
<path stroke-width="1" stroke="black" d="M 358 289 208 320"/>
<path stroke-width="1" stroke="black" d="M 86 289 106 71"/>
<path stroke-width="1" stroke="black" d="M 116 66 204 34"/>
<path stroke-width="1" stroke="black" d="M 86 289 350 183"/>
<path stroke-width="1" stroke="black" d="M 86 289 374 268"/>
<path stroke-width="1" stroke="black" d="M 20 234 116 66"/>
<path stroke-width="1" stroke="black" d="M 20 234 362 89"/>
<path stroke-width="1" stroke="black" d="M 20 234 86 289"/>
<path stroke-width="1" stroke="black" d="M 20 234 358 289"/>
<path stroke-width="1" stroke="black" d="M 20 234 413 188"/>
<path stroke-width="1" stroke="black" d="M 20 234 106 71"/>
<path stroke-width="1" stroke="black" d="M 20 234 40 135"/>
<path stroke-width="1" stroke="black" d="M 20 234 251 246"/>
<path stroke-width="1" stroke="black" d="M 86 289 300 39"/>
<path stroke-width="1" stroke="black" d="M 20 234 204 34"/>
<path stroke-width="1" stroke="black" d="M 86 289 291 167"/>
<path stroke-width="1" stroke="black" d="M 86 289 235 157"/>
<path stroke-width="1" stroke="black" d="M 86 289 206 20"/>
<path stroke-width="1" stroke="black" d="M 86 289 208 320"/>
<path stroke-width="1" stroke="black" d="M 86 289 331 302"/>
<path stroke-width="1" stroke="black" d="M 86 289 33 169"/>
<path stroke-width="1" stroke="black" d="M 86 289 247 91"/>
<path stroke-width="1" stroke="black" d="M 86 289 72 277"/>
<path stroke-width="1" stroke="black" d="M 20 234 298 44"/>
<path stroke-width="1" stroke="black" d="M 116 66 251 246"/>
<path stroke-width="1" stroke="black" d="M 116 66 40 135"/>
<path stroke-width="1" stroke="black" d="M 116 66 106 71"/>
<path stroke-width="1" stroke="black" d="M 355 122 420 220"/>
<path stroke-width="1" stroke="black" d="M 355 122 219 313"/>
<path stroke-width="1" stroke="black" d="M 355 122 157 180"/>
<path stroke-width="1" stroke="black" d="M 355 122 49 158"/>
<path stroke-width="1" stroke="black" d="M 355 122 116 66"/>
<path stroke-width="1" stroke="black" d="M 355 122 362 89"/>
<path stroke-width="1" stroke="black" d="M 355 122 20 234"/>
<path stroke-width="1" stroke="black" d="M 355 122 86 289"/>
<path stroke-width="1" stroke="black" d="M 355 122 350 183"/>
<path stroke-width="1" stroke="black" d="M 355 122 358 289"/>
<path stroke-width="1" stroke="black" d="M 355 122 106 71"/>
<path stroke-width="1" stroke="black" d="M 355 122 40 135"/>
<path stroke-width="1" stroke="black" d="M 355 122 251 246"/>
<path stroke-width="1" stroke="black" d="M 355 122 204 34"/>
<path stroke-width="1" stroke="black" d="M 355 122 298 44"/>
<path stroke-width="1" stroke="black" d="M 49 158 291 167"/>
<path stroke-width="1" stroke="black" d="M 49 158 235 157"/>
<path stroke-width="1" stroke="black" d="M 49 158 206 20"/>
<path stroke-width="1" stroke="black" d="M 355 122 413 188"/>
<path stroke-width="1" stroke="black" d="M 49 158 208 320"/>
<path stroke-width="1" stroke="black" d="M 355 122 300 39"/>
<path stroke-width="1" stroke="black" d="M 355 122 72 277"/>
<path stroke-width="1" stroke="black" d="M 157 180 116 66"/>
<path stroke-width="1" stroke="black" d="M 157 180 362 89"/>
<path stroke-width="1" stroke="black" d="M 157 180 20 234"/>
<path stroke-width="1" stroke="black" d="M 157 180 86 289"/>
<path stroke-width="1" stroke="black" d="M 157 180 358 289"/>
<path stroke-width="1" stroke="black" d="M 157 180 413 188"/>
<path stroke-width="1" stroke="black" d="M 157 180 106 71"/>
<path stroke-width="1" stroke="black" d="M 157 180 40 135"/>
<path stroke-width="1" stroke="black" d="M 355 122 374 268"/>
<path stroke-width="1" stroke="black" d="M 157 180 251 246"/>
<path stroke-width="1" stroke="black" d="M 157 180 298 44"/>
<path stroke-width="1" stroke="black" d="M 355 122 291 167"/>
<path stroke-width="1" stroke="black" d="M 355 122 235 157"/>
<path stroke-width="1" stroke="black" d="M 355 122 206 20"/>
<path stroke-width="1" stroke="black" d="M 355 122 208 320"/>
<path stroke-width="1" stroke="black" d="M 355 122 331 302"/>
<path stroke-width="1" stroke="black" d="M 355 122 33 169"/>
<path stroke-width="1" stroke="black" d="M 355 122 247 91"/>
<path stroke-width="1" stroke="black" d="M 157 180 204 34"/>
<path stroke-width="1" stroke="black" d="M 358 289 331 302"/>
<path stroke-width="1" stroke="black" d="M 49 158 331 302"/>
<path stroke-width="1" stroke="black" d="M 49 158 247 91"/>
<path stroke-width="1" stroke="black" d="M 116 66 208 320"/>
<path stroke-width="1" stroke="black" d="M 116 66 331 302"/>
<path stroke-width="1" stroke="black" d="M 116 66 33 169"/>
<path stroke-width="1" stroke="black" d="M 116 66 247 91"/>
<path stroke-width="1" stroke="black" d="M 116 66 72 277"/>
<path stroke-width="1" stroke="black" d="M 116 66 374 268"/>
<path stroke-width="1" stroke="black" d="M 116 66 300 39"/>
<path stroke-width="1" stroke="black" d="M 116 66 350 183"/>
<path stroke-width="1" stroke="black" d="M 116 66 206 20"/>
<path stroke-width="1" stroke="black" d="M 116 66 420 220"/>
<path stroke-width="1" stroke="black" d="M 116 66 157 180"/>
<path stroke-width="1" stroke="black" d="M 116 66 355 122"/>
<path stroke-width="1" stroke="black" d="M 116 66 49 158"/>
<path stroke-width="1" stroke="black" d="M 116 66 362 89"/>
<path stroke-width="1" stroke="black" d="M 116 66 20 234"/>
<path stroke-width="1" stroke="black" d="M 116 66 86 289"/>
<path stroke-width="1" stroke="black" d="M 116 66 358 289"/>
<path stroke-width="1" stroke="black" d="M 116 66 413 188"/>
<path stroke-width="1" stroke="black" d="M 116 66 219 313"/>
<path stroke-width="1" stroke="black" d="M 49 158 33 169"/>
<path stroke-width="1" stroke="black" d="M 116 66 235 157"/>
<path stroke-width="1" stroke="black" d="M 49 158 298 44"/>
<path stroke-width="1" stroke="black" d="M 49 158 72 277"/>
<path stroke-width="1" stroke="black" d="M 49 158 374 268"/>
<path stroke-width="1" stroke="black" d="M 49 158 300 39"/>
<path stroke-width="1" stroke="black" d="M 49 158 350 183"/>
<path stroke-width="1" stroke="black" d="M 49 158 420 220"/>
<path stroke-width="1" stroke="black" d="M 49 158 219 313"/>
<path stroke-width="1" stroke="black" d="M 49 158 157 180"/>
<path stroke-width="1" stroke="black" d="M 49 158 355 122"/>
<path stroke-width="1" stroke="black" d="M 116 66 291 167"/>
<path stroke-width="1" stroke="black" d="M 49 158 116 66"/>
<path stroke-width="1" stroke="black" d="M 49 158 20 234"/>
<path stroke-width="1" stroke="black" d="M 49 158 86 289"/>
<path stroke-width="1" stroke="black" d="M 49 158 358 289"/>
<path stroke-width="1" stroke="black" d="M 49 158 413 188"/>
<path stroke-width="1" stroke="black" d="M 49 158 106 71"/>
<path stroke-width="1" stroke="black" d="M 49 158 40 135"/>
<path stroke-width="1" stroke="black" d="M 49 158 251 246"/>
<path stroke-width="1" stroke="black" d="M 49 158 204 34"/>
<path stroke-width="1" stroke="black" d="M 49 158 362 89"/>
<path stroke-width="1" stroke="black" d="M 358 289 33 169"/>
<path stroke-width="1" stroke="black" d="M 358 289 247 91"/>
<path stroke-width="1" stroke="black" d="M 358 289 72 277"/>
<path stroke-width="1" stroke="black" d="M 251 246 355 122"/>
<path stroke-width="1" stroke="black" d="M 251 246 49 158"/>
<path stroke-width="1" stroke="black" d="M 251 246 116 66"/>
<path stroke-width="1" stroke="black" d="M 251 246 362 89"/>
<path stroke-width="1" stroke="black" d="M 251 246 20 234"/>
<path stroke-width="1" stroke="black" d="M 251 246 86 289"/>
<path stroke-width="1" stroke="black" d="M 251 246 358 289"/>
<path stroke-width="1" stroke="black" d="M 251 246 413 188"/>
<path stroke-width="1" stroke="black" d="M 251 246 157 180"/>
<path stroke-width="1" stroke="black" d="M 251 246 106 71"/>
<path stroke-width="1" stroke="black" d="M 251 246 204 34"/>
<path stroke-width="1" stroke="black" d="M 251 246 298 44"/>
<path stroke-width="1" stroke="black" d="M 204 34 291 167"/>
<path stroke-width="1" stroke="black" d="M 204 34 235 157"/>
<path stroke-width="1" stroke="black" d="M 204 34 206 20"/>
<path stroke-width="1" stroke="black" d="M 204 34 208 320"/>
<path stroke-width="1" stroke="black" d="M 204 34 331 302"/>
<path stroke-width="1" stroke="black" d="M 204 34 33 169"/>
<path stroke-width="1" stroke="black" d="M 251 246 40 135"/>
<path stroke-width="1" stroke="black" d="M 204 34 247 91"/>
<path stroke-width="1" stroke="black" d="M 251 246 219 313"/>
<path stroke-width="1" stroke="black" d="M 251 246 350 183"/>
<path stroke-width="1" stroke="black" d="M 40 135 20 234"/>
<path stroke-width="1" stroke="black" d="M 40 135 86 289"/>
<path stroke-width="1" stroke="black" d="M 40 135 358 289"/>
<path stroke-width="1" stroke="black" d="M 40 135 413 188"/>
<path stroke-width="1" stroke="black" d="M 40 135 106 71"/>
<path stroke-width="1" stroke="black" d="M 40 135 251 246"/>
<path stroke-width="1" stroke="black" d="M 40 135 204 34"/>
<path stroke-width="1" stroke="black" d="M 40 135 298 44"/>
<path stroke-width="1" stroke="black" d="M 251 246 420 220"/>
<path stroke-width="1" stroke="black" d="M 251 246 291 167"/>
<path stroke-width="1" stroke="black" d="M 251 246 206 20"/>
<path stroke-width="1" stroke="black" d="M 251 246 208 320"/>
<path stroke-width="1" stroke="black" d="M 251 246 331 302"/>
<path stroke-width="1" stroke="black" d="M 251 246 33 169"/>
<path stroke-width="1" stroke="black" d="M 251 246 247 91"/>
<path stroke-width="1" stroke="black" d="M 251 246 72 277"/>
<path stroke-width="1" stroke="black" d="M 251 246 374 268"/>
<path stroke-width="1" stroke="black" d="M 251 246 300 39"/>
<path stroke-width="1" stroke="black" d="M 251 246 235 157"/>
<path stroke-width="1" stroke="black" d="M 40 135 362 89"/>
<path stroke-width="1" stroke="black" d="M 204 34 72 277"/>
<path stroke-width="1" stroke="black" d="M 204 34 300 39"/>
<path stroke-width="1" stroke="black" d="M 298 44 247 91"/>
<path stroke-width="1" stroke="black" d="M 298 44 72 277"/>
<path stroke-width="1" stroke="black" d="M 298 44 374 268"/>
<path stroke-width="1" stroke="black" d="M 298 44 300 39"/>
<path stroke-width="1" stroke="black" d="M 298 44 350 183"/>
<path stroke-width="1" stroke="black" d="M 298 44 420 220"/>
<path stroke-width="1" stroke="black" d="M 298 44 219 313"/>
<path stroke-width="1" stroke="black" d="M 298 44 157 180"/>
<path stroke-width="1" stroke="black" d="M 298 44 33 169"/>
<path stroke-width="1" stroke="black" d="M 298 44 355 122"/>
<path stroke-width="1" stroke="black" d="M 298 44 116 66"/>
<path stroke-width="1" stroke="black" d="M 298 44 362 89"/>
<path stroke-width="1" stroke="black" d="M 298 44 20 234"/>
<path stroke-width="1" stroke="black" d="M 298 44 86 289"/>
<path stroke-width="1" stroke="black" d="M 298 44 358 289"/>
<path stroke-width="1" stroke="black" d="M 298 44 413 188"/>
<path stroke-width="1" stroke="black" d="M 298 44 106 71"/>
<path stroke-width="1" stroke="black" d="M 298 44 40 135"/>
<path stroke-width="1" stroke="black" d="M 298 44 49 158"/>
<path stroke-width="1" stroke="black" d="M 204 34 374 268"/>
<path stroke-width="1" stroke="black" d="M 298 44 331 302"/>
<path stroke-width="1" stroke="black" d="M 298 44 206 20"/>
<path stroke-width="1" stroke="black" d="M 204 34 350 183"/>
<path stroke-width="1" stroke="black" d="M 204 34 420 220"/>
<path stroke-width="1" stroke="black" d="M 204 34 219 313"/>
<path stroke-width="1" stroke="black" d="M 204 34 157 180"/>
<path stroke-width="1" stroke="black" d="M 204 34 355 122"/>
<path stroke-width="1" stroke="black" d="M 204 34 49 158"/>
<path stroke-width="1" stroke="black" d="M 204 34 116 66"/>
<path stroke-width="1" stroke="black" d="M 204 34 362 89"/>
<path stroke-width="1" stroke="black" d="M 298 44 208 320"/>
<path stroke-width="1" stroke="black" d="M 204 34 20 234"/>
<path stroke-width="1" stroke="black" d="M 204 34 358 289"/>
<path stroke-width="1" stroke="black" d="M 204 34 413 188"/>
<path stroke-width="1" stroke="black" d="M 204 34 106 71"/>
<path stroke-width="1" stroke="black" d="M 204 34 40 135"/>
<path stroke-width="1" stroke="black" d="M 204 34 251 246"/>
<path stroke-width="1" stroke="black" d="M 204 34 298 44"/>
<path stroke-width="1" stroke="black" d="M 298 44 291 167"/>
<path stroke-width="1" stroke="black" d="M 298 44 235 157"/>
<path stroke-width="1" stroke="black" d="M 204 34 86 289"/>
<path stroke-width="1" stroke="black" d="M 157 180 49 158"/>
<path stroke-width="1" stroke="black" d="M 40 135 116 66"/>
<path stroke-width="1" stroke="black" d="M 40 135 355 122"/>
<path stroke-width="1" stroke="black" d="M 413 188 331 302"/>
<path stroke-width="1" stroke="black" d="M 413 188 33 169"/>
<path stroke-width="1" stroke="black" d="M 413 188 247 91"/>
<path stroke-width="1" stroke="black" d="M 413 188 72 277"/>
<path stroke-width="1" stroke="black" d="M 413 188 374 268"/>
<path stroke-width="1" stroke="black" d="M 413 188 300 39"/>
<path stroke-width="1" stroke="black" d="M 413 188 350 183"/>
<path stroke-width="1" stroke="black" d="M 413 188 420 220"/>
<path stroke-width="1" stroke="black" d="M 413 188 208 320"/>
<path stroke-width="1" stroke="black" d="M 413 188 219 313"/>
<path stroke-width="1" stroke="black" d="M 413 188 355 122"/>
<path stroke-width="1" stroke="black" d="M 413 188 49 158"/>
<path stroke-width="1" stroke="black" d="M 413 188 116 66"/>
<path stroke-width="1" stroke="black" d="M 413 188 362 89"/>
<path stroke-width="1" stroke="black" d="M 413 188 20 234"/>
<path stroke-width="1" stroke="black" d="M 413 188 86 289"/>
<path stroke-width="1" stroke="black" d="M 413 188 358 289"/>
<path stroke-width="1" stroke="black" d="M 413 188 106 71"/>
<path stroke-width="1" stroke="black" d="M 413 188 157 180"/>
<path stroke-width="1" stroke="black" d="M 413 188 40 135"/>
<path stroke-width="1" stroke="black" d="M 413 188 206 20"/>
<path stroke-width="1" stroke="black" d="M 413 188 291 167"/>
<path stroke-width="1" stroke="black" d="M 358 289 374 268"/>
<path stroke-width="1" stroke="black" d="M 358 289 300 39"/>
<path stroke-width="1" stroke="black" d="M 358 289 350 183"/>
<path stroke-width="1" stroke="black" d="M 358 289 420 220"/>
<path stroke-width="1" stroke="black" d="M 358 289 219 313"/>
<path stroke-width="1" stroke="black" d="M 358 289 157 180"/>
<path stroke-width="1" stroke="black" d="M 358 289 355 122"/>
<path stroke-width="1" stroke="black" d="M 358 289 49 158"/>
<path stroke-width="1" stroke="black" d="M 413 188 235 157"/>
<path stroke-width="1" stroke="black" d="M 358 289 116 66"/>
<path stroke-width="1" stroke="black" d="M 358 289 20 234"/>
<path stroke-width="1" stroke="black" d="M 358 289 86 289"/>
<path stroke-width="1" stroke="black" d="M 358 289 413 188"/>
<path stroke-width="1" stroke="black" d="M 358 289 106 71"/>
<path stroke-width="1" stroke="black" d="M 358 289 40 135"/>
<path stroke-width="1" stroke="black" d="M 358 289 251 246"/>
<path stroke-width="1" stroke="black" d="M 358 289 204 34"/>
<path stroke-width="1" stroke="black" d="M 358 289 298 44"/>
<path stroke-width="1" stroke="black" d="M 358 289 362 89"/>
<path stroke-width="1" stroke="black" d="M 40 135 49 158"/>
<path stroke-width="1" stroke="black" d="M 413 188 251 246"/>
<path stroke-width="1" stroke="black" d="M 413 188 298 44"/>
<path stroke-width="1" stroke="black" d="M 106 71 40 135"/>
<path stroke-width="1" stroke="black" d="M 106 71 251 246"/>
<path stroke-width="1" stroke="black" d="M 106 71 204 34"/>
<path stroke-width="1" stroke="black" d="M 106 71 298 44"/>
<path stroke-width="1" stroke="black" d="M 40 135 291 167"/>
<path stroke-width="1" stroke="black" d="M 40 135 235 157"/>
<path stroke-width="1" stroke="black" d="M 40 135 206 20"/>
<path stroke-width="1" stroke="black" d="M 40 135 208 320"/>
<path stroke-width="1" stroke="black" d="M 106 71 413 188"/>
<path stroke-width="1" stroke="black" d="M 40 135 331 302"/>
<path stroke-width="1" stroke="black" d="M 40 135 247 91"/>
<path stroke-width="1" stroke="black" d="M 40 135 72 277"/>
<path stroke-width="1" stroke="black" d="M 40 135 374 268"/>
<path stroke-width="1" stroke="black" d="M 40 135 300 39"/>
<path stroke-width="1" stroke="black" d="M 40 135 350 183"/>
<path stroke-width="1" stroke="black" d="M 40 135 420 220"/>
<path stroke-width="1" stroke="black" d="M 40 135 219 313"/>
<path stroke-width="1" stroke="black" d="M 40 135 157 180"/>
<path stroke-width="1" stroke="black" d="M 40 135 33 169"/>
<path stroke-width="1" stroke="black" d="M 413 188 204 34"/>
<path stroke-width="1" stroke="black" d="M 106 71 358 289"/>
<path stroke-width="1" stroke="black" d="M 106 71 20 234"/>
<path stroke-width="1" stroke="black" d="M 106 71 291 167"/>
<path stroke-width="1" stroke="black" d="M 106 71 235 157"/>
<path stroke-width="1" stroke="black" d="M 106 71 206 20"/>
<path stroke-width="1" stroke="black" d="M 106 71 208 320"/>
<path stroke-width="1" stroke="black" d="M 106 71 331 302"/>
<path stroke-width="1" stroke="black" d="M 106 71 33 169"/>
<path stroke-width="1" stroke="black" d="M 106 71 247 91"/>
<path stroke-width="1" stroke="black" d="M 106 71 72 277"/>
<path stroke-width="1" stroke="black" d="M 106 71 86 289"/>
<path stroke-width="1" stroke="black" d="M 106 71 374 268"/>
<path stroke-width="1" stroke="black" d="M 106 71 350 183"/>
<path stroke-width="1" stroke="black" d="M 106 71 420 220"/>
<path stroke-width="1" stroke="black" d="M 106 71 219 313"/>
<path stroke-width="1" stroke="black" d="M 106 71 157 180"/>
<path stroke-width="1" stroke="black" d="M 106 71 355 122"/>
<path stroke-width="1" stroke="black" d="M 106 71 49 158"/>
<path stroke-width="1" stroke="black" d="M 106 71 116 66"/>
<path stroke-width="1" stroke="black" d="M 106 71 362 89"/>
<path stroke-width="1" stroke="black" d="M 106 71 300 39"/>
<path stroke-width="1" stroke="black" d="M 157 180 355 122"/>
<path stroke-width="1" stroke="black" d="M 157 180 219 313"/>
<path stroke-width="1" stroke="black" d="M 157 180 420 220"/>
<path stroke-width="1" stroke="black" d="M 331 302 374 268"/>
<path stroke-width="1" stroke="black" d="M 331 302 300 39"/>
<path stroke-width="1" stroke="black" d="M 331 302 350 183"/>
<path stroke-width="1" stroke="black" d="M 331 302 420 220"/>
<path stroke-width="1" stroke="black" d="M 331 302 219 313"/>
<path stroke-width="1" stroke="black" d="M 331 302 157 180"/>
<path stroke-width="1" stroke="black" d="M 331 302 355 122"/>
<path stroke-width="1" stroke="black" d="M 331 302 49 158"/>
<path stroke-width="1" stroke="black" d="M 331 302 72 277"/>
<path stroke-width="1" stroke="black" d="M 331 302 116 66"/>
<path stroke-width="1" stroke="black" d="M 331 302 20 234"/>
<path stroke-width="1" stroke="black" d="M 331 302 86 289"/>
<path stroke-width="1" stroke="black" d="M 331 302 358 289"/>
<path stroke-width="1" stroke="black" d="M 331 302 413 188"/>
<path stroke-width="1" stroke="black" d="M 331 302 106 71"/>
<path stroke-width="1" stroke="black" d="M 331 302 40 135"/>
<path stroke-width="1" stroke="black" d="M 331 302 251 246"/>
<path stroke-width="1" stroke="black" d="M 331 302 204 34"/>
<path stroke-width="1" stroke="black" d="M 331 302 362 89"/>
<path stroke-width="1" stroke="black" d="M 331 302 298 44"/>
<path stroke-width="1" stroke="black" d="M 331 302 247 91"/>
<path stroke-width="1" stroke="black" d="M 331 302 208 320"/>
<path stroke-width="1" stroke="black" d="M 208 320 219 313"/>
<path stroke-width="1" stroke="black" d="M 208 320 157 180"/>
<path stroke-width="1" stroke="black" d="M 208 320 355 122"/>
<path stroke-width="1" stroke="black" d="M 208 320 49 158"/>
<path stroke-width="1" stroke="black" d="M 208 320 116 66"/>
<path stroke-width="1" stroke="black" d="M 208 320 362 89"/>
<path stroke-width="1" stroke="black" d="M 208 320 20 234"/>
<path stroke-width="1" stroke="black" d="M 208 320 86 289"/>
<path stroke-width="1" stroke="black" d="M 331 302 33 169"/>
<path stroke-width="1" stroke="black" d="M 208 320 358 289"/>
<path stroke-width="1" stroke="black" d="M 208 320 106 71"/>
<path stroke-width="1" stroke="black" d="M 208 320 40 135"/>
<path stroke-width="1" stroke="black" d="M 208 320 251 246"/>
<path stroke-width="1" stroke="black" d="M 208 320 204 34"/>
<path stroke-width="1" stroke="black" d="M 208 320 298 44"/>
<path stroke-width="1" stroke="black" d="M 331 302 291 167"/>
<path stroke-width="1" stroke="black" d="M 331 302 235 157"/>
<path stroke-width="1" stroke="black" d="M 331 302 206 20"/>
<path stroke-width="1" stroke="black" d="M 208 320 413 188"/>
<path stroke-width="1" stroke="black" d="M 208 320 420 220"/>
<path stroke-width="1" stroke="black" d="M 33 169 291 167"/>
<path stroke-width="1" stroke="black" d="M 33 169 206 20"/>
<path stroke-width="1" stroke="black" d="M 33 169 298 44"/>
<path stroke-width="1" stroke="black" d="M 247 91 291 167"/>
<path stroke-width="1" stroke="black" d="M 247 91 235 157"/>
<path stroke-width="1" stroke="black" d="M 247 91 206 20"/>
<path stroke-width="1" stroke="black" d="M 247 91 208 320"/>
<path stroke-width="1" stroke="black" d="M 247 91 331 302"/>
<path stroke-width="1" stroke="black" d="M 247 91 33 169"/>
<path stroke-width="1" stroke="black" d="M 247 91 72 277"/>
<path stroke-width="1" stroke="black" d="M 33 169 204 34"/>
<path stroke-width="1" stroke="black" d="M 247 91 374 268"/>
<path stroke-width="1" stroke="black" d="M 247 91 350 183"/>
<path stroke-width="1" stroke="black" d="M 247 91 420 220"/>
<path stroke-width="1" stroke="black" d="M 247 91 219 313"/>
<path stroke-width="1" stroke="black" d="M 247 91 157 180"/>
<path stroke-width="1" stroke="black" d="M 247 91 355 122"/>
<path stroke-width="1" stroke="black" d="M 247 91 49 158"/>
<path stroke-width="1" stroke="black" d="M 247 91 116 66"/>
<path stroke-width="1" stroke="black" d="M 247 91 362 89"/>
<path stroke-width="1" stroke="black" d="M 247 91 300 39"/>
<path stroke-width="1" stroke="black" d="M 33 169 235 157"/>
<path stroke-width="1" stroke="black" d="M 33 169 251 246"/>
<path stroke-width="1" stroke="black" d="M 33 169 106 71"/>
<path stroke-width="1" stroke="black" d="M 33 169 208 320"/>
<path stroke-width="1" stroke="black" d="M 33 169 331 302"/>
<path stroke-width="1" stroke="black" d="M 33 169 247 91"/>
<path stroke-width="1" stroke="black" d="M 33 169 72 277"/>
<path stroke-width="1" stroke="black" d="M 33 169 374 268"/>
<path stroke-width="1" stroke="black" d="M 33 169 300 39"/>
<path stroke-width="1" stroke="black" d="M 33 169 350 183"/>
<path stroke-width="1" stroke="black" d="M 33 169 420 220"/>
<path stroke-width="1" stroke="black" d="M 33 169 40 135"/>
<path stroke-width="1" stroke="black" d="M 33 169 219 313"/>
<path stroke-width="1" stroke="black" d="M 33 169 355 122"/>
<path stroke-width="1" stroke="black" d="M 33 169 49 158"/>
<path stroke-width="1" stroke="black" d="M 33 169 116 66"/>
<path stroke-width="1" stroke="black" d="M 33 169 362 89"/>
<path stroke-width="1" stroke="black" d="M 33 169 20 234"/>
<path stroke-width="1" stroke="black" d="M 33 169 86 289"/>
<path stroke-width="1" stroke="black" d="M 33 169 358 289"/>
<path stroke-width="1" stroke="black" d="M 33 169 413 188"/>
<path stroke-width="1" stroke="black" d="M 33 169 157 180"/>
<path stroke-width="1" stroke="black" d="M 247 91 20 234"/>
<path stroke-width="1" stroke="black" d="M 208 320 350 183"/>
<path stroke-width="1" stroke="black" d="M 208 320 374 268"/>
<path stroke-width="1" stroke="black" d="M 291 167 251 246"/>
<path stroke-width="1" stroke="black" d="M 291 167 204 34"/>
<path stroke-width="1" stroke="black" d="M 291 167 298 44"/>
<path stroke-width="1" stroke="black" d="M 235 157 291 167"/>
<path stroke-width="1" stroke="black" d="M 235 157 206 20"/>
<path stroke-width="1" stroke="black" d="M 235 157 208 320"/>
<path stroke-width="1" stroke="black" d="M 235 157 331 302"/>
<path stroke-width="1" stroke="black" d="M 235 157 33 169"/>
<path stroke-width="1" stroke="black" d="M 291 167 40 135"/>
<path stroke-width="1" stroke="black" d="M 235 157 247 91"/>
<path stroke-width="1" stroke="black" d="M 235 157 374 268"/>
<path stroke-width="1" stroke="black" d="M 235 157 300 39"/>
<path stroke-width="1" stroke="black" d="M 235 157 350 183"/>
<path stroke-width="1" stroke="black" d="M 235 157 420 220"/>
<path stroke-width="1" stroke="black" d="M 235 157 219 313"/>
<path stroke-width="1" stroke="black" d="M 235 157 157 180"/>
<path stroke-width="1" stroke="black" d="M 235 157 355 122"/>
<path stroke-width="1" stroke="black" d="M 235 157 49 158"/>
<path stroke-width="1" stroke="black" d="M 235 157 72 277"/>
<path stroke-width="1" stroke="black" d="M 235 157 116 66"/>
<path stroke-width="1" stroke="black" d="M 291 167 106 71"/>
<path stroke-width="1" stroke="black" d="M 291 167 358 289"/>
<path stroke-width="1" stroke="black" d="M 291 167 206 20"/>
<path stroke-width="1" stroke="black" d="M 291 167 208 320"/>
<path stroke-width="1" stroke="black" d="M 291 167 331 302"/>
<path stroke-width="1" stroke="black" d="M 291 167 33 169"/>
<path stroke-width="1" stroke="black" d="M 291 167 247 91"/>
<path stroke-width="1" stroke="black" d="M 291 167 72 277"/>
<path stroke-width="1" stroke="black" d="M 291 167 374 268"/>
<path stroke-width="1" stroke="black" d="M 291 167 300 39"/>
<path stroke-width="1" stroke="black" d="M 291 167 413 188"/>
<path stroke-width="1" stroke="black" d="M 291 167 350 183"/>
<path stroke-width="1" stroke="black" d="M 291 167 219 313"/>
<path stroke-width="1" stroke="black" d="M 291 167 157 180"/>
<path stroke-width="1" stroke="black" d="M 291 167 355 122"/>
<path stroke-width="1" stroke="black" d="M 291 167 49 158"/>
<path stroke-width="1" stroke="black" d="M 291 167 116 66"/>
<path stroke-width="1" stroke="black" d="M 291 167 362 89"/>
<path stroke-width="1" stroke="black" d="M 291 167 20 234"/>
<path stroke-width="1" stroke="black" d="M 291 167 86 289"/>
<path stroke-width="1" stroke="black" d="M 291 167 420 220"/>
<path stroke-width="1" stroke="black" d="M 208 320 300 39"/>
<path stroke-width="1" stroke="black" d="M 235 157 362 89"/>
<path stroke-width="1" stroke="black" d="M 235 157 86 289"/>
<path stroke-width="1" stroke="black" d="M 206 20 116 66"/>
<path stroke-width="1" stroke="black" d="M 206 20 362 89"/>
<path stroke-width="1" stroke="black" d="M 206 20 20 234"/>
<path stroke-width="1" stroke="black" d="M 206 20 86 289"/>
<path stroke-width="1" stroke="black" d="M 206 20 358 289"/>
<path stroke-width="1" stroke="black" d="M 206 20 413 188"/>
<path stroke-width="1" stroke="black" d="M 206 20 106 71"/>
<path stroke-width="1" stroke="black" d="M 206 20 40 135"/>
<path stroke-width="1" stroke="black" d="M 206 20 49 158"/>
<path stroke-width="1" stroke="black" d="M 206 20 251 246"/>
<path stroke-width="1" stroke="black" d="M 206 20 298 44"/>
<path stroke-width="1" stroke="black" d="M 208 320 291 167"/>
<path stroke-width="1" stroke="black" d="M 208 320 235 157"/>
<path stroke-width="1" stroke="black" d="M 208 320 206 20"/>
<path stroke-width="1" stroke="black" d="M 208 320 331 302"/>
<path stroke-width="1" stroke="black" d="M 208 320 33 169"/>
<path stroke-width="1" stroke="black" d="M 208 320 247 91"/>
<path stroke-width="1" stroke="black" d="M 208 320 72 277"/>
<path stroke-width="1" stroke="black" d="M 206 20 204 34"/>
<path stroke-width="1" stroke="black" d="M 235 157 20 234"/>
<path stroke-width="1" stroke="black" d="M 206 20 355 122"/>
<path stroke-width="1" stroke="black" d="M 206 20 219 313"/>
<path stroke-width="1" stroke="black" d="M 235 157 358 289"/>
<path stroke-width="1" stroke="black" d="M 235 157 413 188"/>
<path stroke-width="1" stroke="black" d="M 235 157 106 71"/>
<path stroke-width="1" stroke="black" d="M 235 157 40 135"/>
<path stroke-width="1" stroke="black" d="M 235 157 251 246"/>
<path stroke-width="1" stroke="black" d="M 235 157 204 34"/>
<path stroke-width="1" stroke="black" d="M 235 157 298 44"/>
<path stroke-width="1" stroke="black" d="M 206 20 291 167"/>
<path stroke-width="1" stroke="black" d="M 206 20 157 180"/>
<path stroke-width="1" stroke="black" d="M 206 20 235 157"/>
<path stroke-width="1" stroke="black" d="M 206 20 331 302"/>
<path stroke-width="1" stroke="black" d="M 206 20 33 169"/>
<path stroke-width="1" stroke="black" d="M 206 20 247 91"/>
<path stroke-width="1" stroke="black" d="M 206 20 72 277"/>
<path stroke-width="1" stroke="black" d="M 206 20 374 268"/>
<path stroke-width="1" stroke="black" d="M 206 20 300 39"/>
<path stroke-width="1" stroke="black" d="M 206 20 350 183"/>
<path stroke-width="1" stroke="black" d="M 206 20 420 220"/>
<path stroke-width="1" stroke="black" d="M 206 20 208 320"/>
<path stroke-width="1" stroke="black" d="M 298 44 251 246"/>
<path stroke-width="1" stroke="black" d="M 247 91 86 289"/>
<path stroke-width="1" stroke="black" d="M 247 91 413 188"/>
<path stroke-width="1" stroke="black" d="M 420 220 235 157"/>
<path stroke-width="1" stroke="black" d="M 420 220 206 20"/>
<path stroke-width="1" stroke="black" d="M 420 220 208 320"/>
<path stroke-width="1" stroke="black" d="M 420 220 331 302"/>
<path stroke-width="1" stroke="black" d="M 420 220 33 169"/>
<path stroke-width="1" stroke="black" d="M 420 220 247 91"/>
<path stroke-width="1" stroke="black" d="M 420 220 72 277"/>
<path stroke-width="1" stroke="black" d="M 420 220 374 268"/>
<path stroke-width="1" stroke="black" d="M 420 220 291 167"/>
<path stroke-width="1" stroke="black" d="M 420 220 300 39"/>
<path stroke-width="1" stroke="black" d="M 420 220 219 313"/>
<path stroke-width="1" stroke="black" d="M 420 220 157 180"/>
<path stroke-width="1" stroke="black" d="M 420 220 355 122"/>
<path stroke-width="1" stroke="black" d="M 420 220 49 158"/>
<path stroke-width="1" stroke="black" d="M 420 220 116 66"/>
<path stroke-width="1" stroke="black" d="M 420 220 362 89"/>
<path stroke-width="1" stroke="black" d="M 420 220 20 234"/>
<path stroke-width="1" stroke="black" d="M 420 220 86 289"/>
<path stroke-width="1" stroke="black" d="M 420 220 350 183"/>
<path stroke-width="1" stroke="black" d="M 420 220 358 289"/>
<path stroke-width="1" stroke="black" d="M 350 183 298 44"/>
<path stroke-width="1" stroke="black" d="M 350 183 251 246"/>
<path stroke-width="1" stroke="black" d="M 350 183 33 169"/>
<path stroke-width="1" stroke="black" d="M 350 183 247 91"/>
<path stroke-width="1" stroke="black" d="M 350 183 72 277"/>
<path stroke-width="1" stroke="black" d="M 350 183 374 268"/>
<path stroke-width="1" stroke="black" d="M 350 183 300 39"/>
<path stroke-width="1" stroke="black" d="M 350 183 420 220"/>
<path stroke-width="1" stroke="black" d="M 350 183 219 313"/>
<path stroke-width="1" stroke="black" d="M 350 183 157 180"/>
<path stroke-width="1" stroke="black" d="M 350 183 204 34"/>
<path stroke-width="1" stroke="black" d="M 350 183 355 122"/>
<path stroke-width="1" stroke="black" d="M 350 183 116 66"/>
<path stroke-width="1" stroke="black" d="M 350 183 362 89"/>
<path stroke-width="1" stroke="black" d="M 350 183 20 234"/>
<path stroke-width="1" stroke="black" d="M 350 183 86 289"/>
<path stroke-width="1" stroke="black" d="M 350 183 358 289"/>
<path stroke-width="1" stroke="black" d="M 350 183 413 188"/>
<path stroke-width="1" stroke="black" d="M 350 183 106 71"/>
<path stroke-width="1" stroke="black" d="M 350 183 40 135"/>
<path stroke-width="1" stroke="black" d="M 350 183 49 158"/>
<path stroke-width="1" stroke="black" d="M 350 183 331 302"/>
<path stroke-width="1" stroke="black" d="M 420 220 413 188"/>
<path stroke-width="1" stroke="black" d="M 420 220 40 135"/>
<path stroke-width="1" stroke="black" d="M 219 313 358 289"/>
<path stroke-width="1" stroke="black" d="M 219 313 413 188"/>
<path stroke-width="1" stroke="black" d="M 219 313 106 71"/>
<path stroke-width="1" stroke="black" d="M 219 313 40 135"/>
<path stroke-width="1" stroke="black" d="M 219 313 251 246"/>
<path stroke-width="1" stroke="black" d="M 219 313 204 34"/>
<path stroke-width="1" stroke="black" d="M 219 313 298 44"/>
<path stroke-width="1" stroke="black" d="M 157 180 291 167"/>
<path stroke-width="1" stroke="black" d="M 219 313 86 289"/>
<path stroke-width="1" stroke="black" d="M 157 180 235 157"/>
<path stroke-width="1" stroke="black" d="M 157 180 208 320"/>
<path stroke-width="1" stroke="black" d="M 157 180 331 302"/>
<path stroke-width="1" stroke="black" d="M 157 180 33 169"/>
<path stroke-width="1" stroke="black" d="M 157 180 247 91"/>
<path stroke-width="1" stroke="black" d="M 157 180 72 277"/>
<path stroke-width="1" stroke="black" d="M 157 180 374 268"/>
<path stroke-width="1" stroke="black" d="M 157 180 300 39"/>
<path stroke-width="1" stroke="black" d="M 157 180 350 183"/>
<path stroke-width="1" stroke="black" d="M 157 180 206 20"/>
<path stroke-width="1" stroke="black" d="M 420 220 106 71"/>
<path stroke-width="1" stroke="black" d="M 219 313 20 234"/>
<path stroke-width="1" stroke="black" d="M 219 313 116 66"/>
<path stroke-width="1" stroke="black" d="M 420 220 251 246"/>
<path stroke-width="1" stroke="black" d="M 420 220 204 34"/>
<path stroke-width="1" stroke="black" d="M 420 220 298 44"/>
<path stroke-width="1" stroke="black" d="M 219 313 291 167"/>
<path stroke-width="1" stroke="black" d="M 219 313 235 157"/>
<path stroke-width="1" stroke="black" d="M 219 313 206 20"/>
<path stroke-width="1" stroke="black" d="M 219 313 208 320"/>
<path stroke-width="1" stroke="black" d="M 219 313 331 302"/>
<path stroke-width="1" stroke="black" d="M 219 313 362 89"/>
<path stroke-width="1" stroke="black" d="M 219 313 33 169"/>
<path stroke-width="1" stroke="black" d="M 219 313 72 277"/>
<path stroke-width="1" stroke="black" d="M 219 313 374 268"/>
<path stroke-width="1" stroke="black" d="M 219 313 300 39"/>
<path stroke-width="1" stroke="black" d="M 219 313 350 183"/>
<path stroke-width="1" stroke="black" d="M 219 313 420 220"/>
<path stroke-width="1" stroke="black" d="M 219 313 157 180"/>
<path stroke-width="1" stroke="black" d="M 219 313 355 122"/>
<path stroke-width="1" stroke="black" d="M 219 313 49 158"/>
<path stroke-width="1" stroke="black" d="M 219 313 247 91"/>
<path stroke-width="1" stroke="black" d="M 247 91 358 289"/>
<path stroke-width="1" stroke="black" d="M 350 183 208 320"/>
<path stroke-width="1" stroke="black" d="M 350 183 235 157"/>
<path stroke-width="1" stroke="black" d="M 72 277 20 234"/>
<path stroke-width="1" stroke="black" d="M 72 277 86 289"/>
<path stroke-width="1" stroke="black" d="M 72 277 358 289"/>
<path stroke-width="1" stroke="black" d="M 72 277 413 188"/>
<path stroke-width="1" stroke="black" d="M 72 277 106 71"/>
<path stroke-width="1" stroke="black" d="M 72 277 40 135"/>
<path stroke-width="1" stroke="black" d="M 72 277 251 246"/>
<path stroke-width="1" stroke="black" d="M 72 277 204 34"/>
<path stroke-width="1" stroke="black" d="M 72 277 362 89"/>
<path stroke-width="1" stroke="black" d="M 72 277 298 44"/>
<path stroke-width="1" stroke="black" d="M 374 268 235 157"/>
<path stroke-width="1" stroke="black" d="M 374 268 206 20"/>
<path stroke-width="1" stroke="black" d="M 374 268 208 320"/>
<path stroke-width="1" stroke="black" d="M 374 268 331 302"/>
<path stroke-width="1" stroke="black" d="M 374 268 33 169"/>
<path stroke-width="1" stroke="black" d="M 374 268 247 91"/>
<path stroke-width="1" stroke="black" d="M 374 268 72 277"/>
<path stroke-width="1" stroke="black" d="M 374 268 300 39"/>
<path stroke-width="1" stroke="black" d="M 374 268 291 167"/>
<path stroke-width="1" stroke="black" d="M 374 268 350 183"/>
<path stroke-width="1" stroke="black" d="M 72 277 116 66"/>
<path stroke-width="1" stroke="black" d="M 72 277 355 122"/>
<path stroke-width="1" stroke="black" d="M 247 91 106 71"/>
<path stroke-width="1" stroke="black" d="M 247 91 40 135"/>
<path stroke-width="1" stroke="black" d="M 247 91 251 246"/>
<path stroke-width="1" stroke="black" d="M 247 91 204 34"/>
<path stroke-width="1" stroke="black" d="M 247 91 298 44"/>
<path stroke-width="1" stroke="black" d="M 72 277 291 167"/>
<path stroke-width="1" stroke="black" d="M 72 277 235 157"/>
<path stroke-width="1" stroke="black" d="M 72 277 206 20"/>
<path stroke-width="1" stroke="black" d="M 72 277 49 158"/>
<path stroke-width="1" stroke="black" d="M 72 277 208 320"/>
<path stroke-width="1" stroke="black" d="M 72 277 33 169"/>
<path stroke-width="1" stroke="black" d="M 72 277 247 91"/>
<path stroke-width="1" stroke="black" d="M 72 277 374 268"/>
<path stroke-width="1" stroke="black" d="M 72 277 300 39"/>
<path stroke-width="1" stroke="black" d="M 72 277 350 183"/>
<path stroke-width="1" stroke="black" d="M 72 277 420 220"/>
<path stroke-width="1" stroke="black" d="M 72 277 219 313"/>
<path stroke-width="1" stroke="black" d="M 72 277 157 180"/>
<path stroke-width="1" stroke="black" d="M 72 277 331 302"/>
<path stroke-width="1" stroke="black" d="M 350 183 206 20"/>
<path stroke-width="1" stroke="black" d="M 374 268 420 220"/>
<path stroke-width="1" stroke="black" d="M 374 268 157 180"/>
<path stroke-width="1" stroke="black" d="M 300 39 350 183"/>
<path stroke-width="1" stroke="black" d="M 300 39 420 220"/>
<path stroke-width="1" stroke="black" d="M 300 39 219 313"/>
<path stroke-width="1" stroke="black" d="M 300 39 157 180"/>
<path stroke-width="1" stroke="black" d="M 300 39 355 122"/>
<path stroke-width="1" stroke="black" d="M 300 39 49 158"/>
<path stroke-width="1" stroke="black" d="M 300 39 116 66"/>
<path stroke-width="1" stroke="black" d="M 300 39 362 89"/>
<path stroke-width="1" stroke="black" d="M 300 39 374 268"/>
<path stroke-width="1" stroke="black" d="M 300 39 20 234"/>
<path stroke-width="1" stroke="black" d="M 300 39 358 289"/>
<path stroke-width="1" stroke="black" d="M 300 39 413 188"/>
<path stroke-width="1" stroke="black" d="M 300 39 106 71"/>
<path stroke-width="1" stroke="black" d="M 300 39 40 135"/>
<path stroke-width="1" stroke="black" d="M 300 39 251 246"/>
<path stroke-width="1" stroke="black" d="M 300 39 204 34"/>
<path stroke-width="1" stroke="black" d="M 300 39 298 44"/>
<path stroke-width="1" stroke="black" d="M 350 183 291 167"/>
<path stroke-width="1" stroke="black" d="M 300 39 86 289"/>
<path stroke-width="1" stroke="black" d="M 374 268 219 313"/>
<path stroke-width="1" stroke="black" d="M 300 39 72 277"/>
<path stroke-width="1" stroke="black" d="M 300 39 33 169"/>
<path stroke-width="1" stroke="black" d="M 374 268 355 122"/>
<path stroke-width="1" stroke="black" d="M 374 268 49 158"/>
<path stroke-width="1" stroke="black" d="M 374 268 116 66"/>
<path stroke-width="1" stroke="black" d="M 374 268 362 89"/>
<path stroke-width="1" stroke="black" d="M 374 268 20 234"/>
<path stroke-width="1" stroke="black" d="M 374 268 86 289"/>
<path stroke-width="1" stroke="black" d="M 374 268 358 289"/>
<path stroke-width="1" stroke="black" d="M 374 268 413 188"/>
<path stroke-width="1" stroke="black" d="M 300 39 247 91"/>
<path stroke-width="1" stroke="black" d="M 374 268 106 71"/>
<path stroke-width="1" stroke="black" d="M 374 268 251 246"/>
<path stroke-width="1" stroke="black" d="M 374 268 204 34"/>
<path stroke-width="1" stroke="black" d="M 374 268 298 44"/>
<path stroke-width="1" stroke="black" d="M 300 39 291 167"/>
<path stroke-width="1" stroke="black" d="M 300 39 235 157"/>
<path stroke-width="1" stroke="black" d="M 300 39 206 20"/>
<path stroke-width="1" stroke="black" d="M 300 39 208 320"/>
<path stroke-width="1" stroke="black" d="M 300 39 331 302"/>
<path stroke-width="1" stroke="black" d="M 374 268 40 135"/>
<path stroke-width="1" stroke="black" d="M 298 44 204 34"/>
<circle cx="291" cy="167" r="7.0" style="fill:gray;stroke:black;stroke-width:1.0"/>
<circle cx="235" cy="157" r="7.0" style="fill:gray;stroke:black;stroke-width:1.0"/>
<circle cx="206" cy="20" r="7.0" style="fill:gray;stroke:black;stroke-width:1.0"/>
<circle cx="208" cy="320" r="7.0" style="fill:gray;stroke:black;stroke-width:1.0"/>
<circle cx="331" cy="302" r="7.0" style="fill:gray;stroke:black;stroke-width:1.0"/>
<circle cx="33" cy="169" r="7.0" style="fill:gray;stroke:black;stroke-width:1.0"/>
<circle cx="247" cy="91" r="7.0" style="fill:gray;stroke:black;stroke-width:1.0"/>
<circle cx="72" cy="277" r="7.0" style="fill:gray;stroke:black;stroke-width:1.0"/>
<circle cx="374" cy="268" r="7.0" style="fill:gray;stroke:black;stroke-width:1.0"/>
<circle cx="300" cy="39" r="7.0" style="fill:gray;stroke:black;stroke-width:1.0"/>
<circle cx="350" cy="183" r="7.0" style="fill:gray;stroke:black;stroke-width:1.0"/>
<circle cx="420" cy="220" r="7.0" style="fill:gray;stroke:black;stroke-width:1.0"/>
<circle cx="219" cy="313" r="7.0" style="fill:gray;stroke:black;stroke-width:1.0"/>
<circle cx="157" cy="180" r="7.0" style="fill:gray;stroke:black;stroke-width:1.0"/>
<circle cx="355" cy="122" r="7.0" style="fill:gray;stroke:black;stroke-width:1.0"/>
<circle cx="49" cy="158" r="7.0" style="fill:gray;stroke:black;stroke-width:1.0"/>
<circle cx="116" cy="66" r="7.0" style="fill:gray;stroke:black;stroke-width:1.0"/>
<circle cx="362" cy="89" r="7.0" style="fill:gray;stroke:black;stroke-width:1.0"/>
<circle cx="20" cy="234" r="7.0" style="fill:gray;stroke:black;stroke-width:1.0"/>
<circle cx="86" cy="289" r="7.0" style="fill:gray;stroke:black;stroke-width:1.0"/>
<circle cx="358" cy="289" r="7.0" style="fill:gray;stroke:black;stroke-width:1.0"/>
<circle cx="413" cy="188" r="7.0" style="fill:gray;stroke:black;stroke-width:1.0"/>
<circle cx="106" cy="71" r="7.0" style="fill:gray;stroke:black;stroke-width:1.0"/>
<circle cx="40" cy="135" r="7.0" style="fill:gray;stroke:black;stroke-width:1.0"/>
<circle cx="251" cy="246" r="7.0" style="fill:gray;stroke:black;stroke-width:1.0"/>
<circle cx="204" cy="34" r="7.0" style="fill:gray;stroke:black;stroke-width:1.0"/>
<circle cx="298" cy="44" r="7.0" style="fill:gray;stroke:black;stroke-width:1.0"/>
</svg>
