<svg width="440" height="340" xmlns="http://www.w3.org/2000/svg">
<path stroke-width="1" stroke="black" d="M 231 187 286 164"/>
<path stroke-width="1" stroke="black" d="M 132 92 262 320"/>
<path stroke-width="1" stroke="black" d="M 132 92 174 23"/>
<path stroke-width="1" stroke="black" d="M 132 92 379 319"/>
<path stroke-width="1" stroke="black" d="M 132 92 52 183"/>
<path stroke-width="1" stroke="black" d="M 132 92 367 90"/>
<path stroke-width="1" stroke="black" d="M 96 95 231 187"/>
<path stroke-width="1" stroke="black" d="M 96 95 286 164"/>
<path stroke-width="1" stroke="black" d="M 96 95 20 271"/>
<path stroke-width="1" stroke="black" d="M 96 95 50 173"/>
<path stroke-width="1" stroke="black" d="M 96 95 364 85"/>
<path stroke-width="1" stroke="black" d="M 96 95 112 236"/>
<path stroke-width="1" stroke="black" d="M 96 95 358 108"/>
<path stroke-width="1" stroke="black" d="M 96 95 190 30"/>
<path stroke-width="1" stroke="black" d="M 96 95 283 54"/>
<path stroke-width="1" stroke="black" d="M 96 95 245 316"/>
<path stroke-width="1" stroke="black" d="M 96 95 387 274"/>
<path stroke-width="1" stroke="black" d="M 96 95 188 119"/>
<path stroke-width="1" stroke="black" d="M 132 92 320 150"/>
<path stroke-width="1" stroke="black" d="M 132 92 134 231"/>
<path stroke-width="1" stroke="black" d="M 132 92 274 20"/>
<path stroke-width="1" stroke="black" d="M 132 92 96 95"/>
<path stroke-width="1" stroke="black" d="M 274 22 367 90"/>
<path stroke-width="1" stroke="black" d="M 132 92 231 187"/>
<path stroke-width="1" stroke="black" d="M 132 92 286 164"/>
<path stroke-width="1" stroke="black" d="M 132 92 20 271"/>
<path stroke-width="1" stroke="black" d="M 132 92 50 173"/>
<path stroke-width="1" stroke="black" d="M 132 92 364 85"/>
<path stroke-width="1" stroke="black" d="M 132 92 112 236"/>
<path stroke-width="1" stroke="black" d="M 132 92 358 108"/>
<path stroke-width="1" stroke="black" d="M 96 95 404 224"/>
<path stroke-width="1" stroke="black" d="M 132 92 190 30"/>
<path stroke-width="1" stroke="black" d="M 132 92 245 316"/>
<path stroke-width="1" stroke="black" d="M 132 92 387 274"/>
<path stroke-width="1" stroke="black" d="M 132 92 188 119"/>
<path stroke-width="1" stroke="black" d="M 132 92 404 224"/>
<path stroke-width="1" stroke="black" d="M 132 92 75 318"/>
<path stroke-width="1" stroke="black" d="M 132 92 420 221"/>
<path stroke-width="1" stroke="black" d="M 132 92 290 228"/>
<path stroke-width="1" stroke="black" d="M 132 92 274 22"/>
<path stroke-width="1" stroke="black" d="M 132 92 283 54"/>
<path stroke-width="1" stroke="black" d="M 96 95 75 318"/>
<path stroke-width="1" stroke="black" d="M 96 95 420 221"/>
<path stroke-width="1" stroke="black" d="M 96 95 290 228"/>
<path stroke-width="1" stroke="black" d="M 274 20 404 224"/>
<path stroke-width="1" stroke="black" d="M 274 20 75 318"/>
<path stroke-width="1" stroke="black" d="M 274 20 420 221"/>
<path stroke-width="1" stroke="black" d="M 274 20 290 228"/>
<path stroke-width="1" stroke="black" d="M 274 20 274 22"/>
<path stroke-width="1" stroke="black" d="M 274 20 132 92"/>
<path stroke-width="1" stroke="black" d="M 274 20 96 95"/>
<path stroke-width="1" stroke="black" d="M 274 20 134 231"/>
<path stroke-width="1" stroke="black" d="M 274 20 188 119"/>
<path stroke-width="1" stroke="black" d="M 274 20 320 150"/>
<path stroke-width="1" stroke="black" d="M 274 20 174 23"/>
<path stroke-width="1" stroke="black" d="M 274 20 379 319"/>
<path stroke-width="1" stroke="black" d="M 274 20 52 183"/>
<path stroke-width="1" stroke="black" d="M 274 20 367 90"/>
<path stroke-width="1" stroke="black" d="M 134 231 231 187"/>
<path stroke-width="1" stroke="black" d="M 134 231 286 164"/>
<path stroke-width="1" stroke="black" d="M 134 231 20 271"/>
<path stroke-width="1" stroke="black" d="M 134 231 50 173"/>
<path stroke-width="1" stroke="black" d="M 274 20 262 320"/>
<path stroke-width="1" stroke="black" d="M 274 22 52 183"/>
<path stroke-width="1" stroke="black" d="M 274 20 387 274"/>
<path stroke-width="1" stroke="black" d="M 274 20 283 54"/>
<path stroke-width="1" stroke="black" d="M 96 95 274 22"/>
<path stroke-width="1" stroke="black" d="M 96 95 132 92"/>
<path stroke-width="1" stroke="black" d="M 96 95 274 20"/>
<path stroke-width="1" stroke="black" d="M 96 95 134 231"/>
<path stroke-width="1" stroke="black" d="M 96 95 320 150"/>
<path stroke-width="1" stroke="black" d="M 96 95 262 320"/>
<path stroke-width="1" stroke="black" d="M 96 95 174 23"/>
<path stroke-width="1" stroke="black" d="M 96 95 379 319"/>
<path stroke-width="1" stroke="black" d="M 274 20 245 316"/>
<path stroke-width="1" stroke="black" d="M 96 95 52 183"/>
<path stroke-width="1" stroke="black" d="M 274 20 231 187"/>
<path stroke-width="1" stroke="black" d="M 274 20 286 164"/>
<path stroke-width="1" stroke="black" d="M 274 20 20 271"/>
<path stroke-width="1" stroke="black" d="M 274 20 50 173"/>
<path stroke-width="1" stroke="black" d="M 274 20 364 85"/>
<path stroke-width="1" stroke="black" d="M 274 20 112 236"/>
<path stroke-width="1" stroke="black" d="M 274 20 358 108"/>
<path stroke-width="1" stroke="black" d="M 274 20 190 30"/>
<path stroke-width="1" stroke="black" d="M 96 95 367 90"/>
<path stroke-width="1" stroke="black" d="M 274 22 379 319"/>
<path stroke-width="1" stroke="black" d="M 274 22 174 23"/>
<path stroke-width="1" stroke="black" d="M 274 22 262 320"/>
<path stroke-width="1" stroke="black" d="M 420 221 188 119"/>
<path stroke-width="1" stroke="black" d="M 420 221 404 224"/>
<path stroke-width="1" stroke="black" d="M 420 221 75 318"/>
<path stroke-width="1" stroke="black" d="M 420 221 290 228"/>
<path stroke-width="1" stroke="black" d="M 420 221 274 22"/>
<path stroke-width="1" stroke="black" d="M 420 221 132 92"/>
<path stroke-width="1" stroke="black" d="M 420 221 96 95"/>
<path stroke-width="1" stroke="black" d="M 420 221 274 20"/>
<path stroke-width="1" stroke="black" d="M 420 221 387 274"/>
<path stroke-width="1" stroke="black" d="M 420 221 134 231"/>
<path stroke-width="1" stroke="black" d="M 420 221 262 320"/>
<path stroke-width="1" stroke="black" d="M 420 221 174 23"/>
<path stroke-width="1" stroke="black" d="M 420 221 379 319"/>
<path stroke-width="1" stroke="black" d="M 420 221 52 183"/>
<path stroke-width="1" stroke="black" d="M 420 221 367 90"/>
<path stroke-width="1" stroke="black" d="M 290 228 231 187"/>
<path stroke-width="1" stroke="black" d="M 290 228 286 164"/>
<path stroke-width="1" stroke="black" d="M 290 228 20 271"/>
<path stroke-width="1" stroke="black" d="M 420 221 320 150"/>
<path stroke-width="1" stroke="black" d="M 290 228 50 173"/>
<path stroke-width="1" stroke="black" d="M 420 221 245 316"/>
<path stroke-width="1" stroke="black" d="M 420 221 190 30"/>
<path stroke-width="1" stroke="black" d="M 75 318 274 22"/>
<path stroke-width="1" stroke="black" d="M 75 318 132 92"/>
<path stroke-width="1" stroke="black" d="M 75 318 96 95"/>
<path stroke-width="1" stroke="black" d="M 75 318 274 20"/>
<path stroke-width="1" stroke="black" d="M 75 318 134 231"/>
<path stroke-width="1" stroke="black" d="M 75 318 320 150"/>
<path stroke-width="1" stroke="black" d="M 75 318 262 320"/>
<path stroke-width="1" stroke="black" d="M 75 318 174 23"/>
<path stroke-width="1" stroke="black" d="M 420 221 283 54"/>
<path stroke-width="1" stroke="black" d="M 75 318 379 319"/>
<path stroke-width="1" stroke="black" d="M 75 318 367 90"/>
<path stroke-width="1" stroke="black" d="M 420 221 231 187"/>
<path stroke-width="1" stroke="black" d="M 420 221 286 164"/>
<path stroke-width="1" stroke="black" d="M 420 221 20 271"/>
<path stroke-width="1" stroke="black" d="M 420 221 50 173"/>
<path stroke-width="1" stroke="black" d="M 420 221 364 85"/>
<path stroke-width="1" stroke="black" d="M 420 221 112 236"/>
<path stroke-width="1" stroke="black" d="M 420 221 358 108"/>
<path stroke-width="1" stroke="black" d="M 75 318 52 183"/>
<path stroke-width="1" stroke="black" d="M 134 231 364 85"/>
<path stroke-width="1" stroke="black" d="M 290 228 364 85"/>
<path stroke-width="1" stroke="black" d="M 290 228 358 108"/>
<path stroke-width="1" stroke="black" d="M 274 22 50 173"/>
<path stroke-width="1" stroke="black" d="M 274 22 364 85"/>
<path stroke-width="1" stroke="black" d="M 274 22 112 236"/>
<path stroke-width="1" stroke="black" d="M 274 22 358 108"/>
<path stroke-width="1" stroke="black" d="M 274 22 190 30"/>
<path stroke-width="1" stroke="black" d="M 274 22 283 54"/>
<path stroke-width="1" stroke="black" d="M 274 22 245 316"/>
<path stroke-width="1" stroke="black" d="M 274 22 387 274"/>
<path stroke-width="1" stroke="black" d="M 274 22 20 271"/>
<path stroke-width="1" stroke="black" d="M 274 22 188 119"/>
<path stroke-width="1" stroke="black" d="M 274 22 75 318"/>
<path stroke-width="1" stroke="black" d="M 274 22 420 221"/>
<path stroke-width="1" stroke="black" d="M 274 22 290 228"/>
<path stroke-width="1" stroke="black" d="M 274 22 132 92"/>
<path stroke-width="1" stroke="black" d="M 274 22 96 95"/>
<path stroke-width="1" stroke="black" d="M 274 22 274 20"/>
<path stroke-width="1" stroke="black" d="M 274 22 134 231"/>
<path stroke-width="1" stroke="black" d="M 274 22 320 150"/>
<path stroke-width="1" stroke="black" d="M 274 22 404 224"/>
<path stroke-width="1" stroke="black" d="M 290 228 112 236"/>
<path stroke-width="1" stroke="black" d="M 274 22 286 164"/>
<path stroke-width="1" stroke="black" d="M 290 228 367 90"/>
<path stroke-width="1" stroke="black" d="M 290 228 190 30"/>
<path stroke-width="1" stroke="black" d="M 290 228 283 54"/>
<path stroke-width="1" stroke="black" d="M 290 228 245 316"/>
<path stroke-width="1" stroke="black" d="M 290 228 387 274"/>
<path stroke-width="1" stroke="black" d="M 290 228 188 119"/>
<path stroke-width="1" stroke="black" d="M 290 228 404 224"/>
<path stroke-width="1" stroke="black" d="M 290 228 75 318"/>
<path stroke-width="1" stroke="black" d="M 290 228 420 221"/>
<path stroke-width="1" stroke="black" d="M 274 22 231 187"/>
<path stroke-width="1" stroke="black" d="M 290 228 274 22"/>
<path stroke-width="1" stroke="black" d="M 290 228 96 95"/>
<path stroke-width="1" stroke="black" d="M 290 228 274 20"/>
<path stroke-width="1" stroke="black" d="M 290 228 134 231"/>
<path stroke-width="1" stroke="black" d="M 290 228 320 150"/>
<path stroke-width="1" stroke="black" d="M 290 228 262 320"/>
<path stroke-width="1" stroke="black" d="M 290 228 174 23"/>
<path stroke-width="1" stroke="black" d="M 290 228 379 319"/>
<path stroke-width="1" stroke="black" d="M 290 228 52 183"/>
<path stroke-width="1" stroke="black" d="M 290 228 132 92"/>
<path stroke-width="1" stroke="black" d="M 134 231 112 236"/>
<path stroke-width="1" stroke="black" d="M 134 231 358 108"/>
<path stroke-width="1" stroke="black" d="M 134 231 190 30"/>
<path stroke-width="1" stroke="black" d="M 379 319 420 221"/>
<path stroke-width="1" stroke="black" d="M 379 319 290 228"/>
<path stroke-width="1" stroke="black" d="M 379 319 274 22"/>
<path stroke-width="1" stroke="black" d="M 379 319 132 92"/>
<path stroke-width="1" stroke="black" d="M 379 319 96 95"/>
<path stroke-width="1" stroke="black" d="M 379 319 274 20"/>
<path stroke-width="1" stroke="black" d="M 379 319 134 231"/>
<path stroke-width="1" stroke="black" d="M 379 319 320 150"/>
<path stroke-width="1" stroke="black" d="M 379 319 75 318"/>
<path stroke-width="1" stroke="black" d="M 379 319 262 320"/>
<path stroke-width="1" stroke="black" d="M 379 319 52 183"/>
<path stroke-width="1" stroke="black" d="M 379 319 367 90"/>
<path stroke-width="1" stroke="black" d="M 52 183 231 187"/>
<path stroke-width="1" stroke="black" d="M 52 183 286 164"/>
<path stroke-width="1" stroke="black" d="M 52 183 20 271"/>
<path stroke-width="1" stroke="black" d="M 52 183 50 173"/>
<path stroke-width="1" stroke="black" d="M 52 183 364 85"/>
<path stroke-width="1" stroke="black" d="M 52 183 112 236"/>
<path stroke-width="1" stroke="black" d="M 379 319 174 23"/>
<path stroke-width="1" stroke="black" d="M 52 183 358 108"/>
<path stroke-width="1" stroke="black" d="M 379 319 404 224"/>
<path stroke-width="1" stroke="black" d="M 379 319 387 274"/>
<path stroke-width="1" stroke="black" d="M 174 23 96 95"/>
<path stroke-width="1" stroke="black" d="M 174 23 274 20"/>
<path stroke-width="1" stroke="black" d="M 174 23 134 231"/>
<path stroke-width="1" stroke="black" d="M 174 23 320 150"/>
<path stroke-width="1" stroke="black" d="M 174 23 262 320"/>
<path stroke-width="1" stroke="black" d="M 174 23 379 319"/>
<path stroke-width="1" stroke="black" d="M 174 23 52 183"/>
<path stroke-width="1" stroke="black" d="M 174 23 367 90"/>
<path stroke-width="1" stroke="black" d="M 379 319 188 119"/>
<path stroke-width="1" stroke="black" d="M 379 319 231 187"/>
<path stroke-width="1" stroke="black" d="M 379 319 20 271"/>
<path stroke-width="1" stroke="black" d="M 379 319 50 173"/>
<path stroke-width="1" stroke="black" d="M 379 319 364 85"/>
<path stroke-width="1" stroke="black" d="M 379 319 112 236"/>
<path stroke-width="1" stroke="black" d="M 379 319 358 108"/>
<path stroke-width="1" stroke="black" d="M 379 319 190 30"/>
<path stroke-width="1" stroke="black" d="M 379 319 283 54"/>
<path stroke-width="1" stroke="black" d="M 379 319 245 316"/>
<path stroke-width="1" stroke="black" d="M 379 319 286 164"/>
<path stroke-width="1" stroke="black" d="M 174 23 132 92"/>
<path stroke-width="1" stroke="black" d="M 52 183 190 30"/>
<path stroke-width="1" stroke="black" d="M 52 183 245 316"/>
<path stroke-width="1" stroke="black" d="M 367 90 358 108"/>
<path stroke-width="1" stroke="black" d="M 367 90 190 30"/>
<path stroke-width="1" stroke="black" d="M 367 90 283 54"/>
<path stroke-width="1" stroke="black" d="M 367 90 245 316"/>
<path stroke-width="1" stroke="black" d="M 367 90 387 274"/>
<path stroke-width="1" stroke="black" d="M 367 90 188 119"/>
<path stroke-width="1" stroke="black" d="M 367 90 404 224"/>
<path stroke-width="1" stroke="black" d="M 367 90 75 318"/>
<path stroke-width="1" stroke="black" d="M 367 90 112 236"/>
<path stroke-width="1" stroke="black" d="M 367 90 420 221"/>
<path stroke-width="1" stroke="black" d="M 367 90 274 22"/>
<path stroke-width="1" stroke="black" d="M 367 90 132 92"/>
<path stroke-width="1" stroke="black" d="M 367 90 96 95"/>
<path stroke-width="1" stroke="black" d="M 367 90 274 20"/>
<path stroke-width="1" stroke="black" d="M 367 90 134 231"/>
<path stroke-width="1" stroke="black" d="M 367 90 320 150"/>
<path stroke-width="1" stroke="black" d="M 367 90 262 320"/>
<path stroke-width="1" stroke="black" d="M 367 90 174 23"/>
<path stroke-width="1" stroke="black" d="M 367 90 290 228"/>
<path stroke-width="1" stroke="black" d="M 52 183 283 54"/>
<path stroke-width="1" stroke="black" d="M 367 90 364 85"/>
<path stroke-width="1" stroke="black" d="M 367 90 20 271"/>
<path stroke-width="1" stroke="black" d="M 52 183 387 274"/>
<path stroke-width="1" stroke="black" d="M 52 183 188 119"/>
<path stroke-width="1" stroke="black" d="M 52 183 404 224"/>
<path stroke-width="1" stroke="black" d="M 52 183 75 318"/>
<path stroke-width="1" stroke="black" d="M 52 183 420 221"/>
<path stroke-width="1" stroke="black" d="M 52 183 290 228"/>
<path stroke-width="1" stroke="black" d="M 52 183 274 22"/>
<path stroke-width="1" stroke="black" d="M 52 183 132 92"/>
<path stroke-width="1" stroke="black" d="M 367 90 50 173"/>
<path stroke-width="1" stroke="black" d="M 52 183 96 95"/>
<path stroke-width="1" stroke="black" d="M 52 183 134 231"/>
<path stroke-width="1" stroke="black" d="M 52 183 320 150"/>
<path stroke-width="1" stroke="black" d="M 52 183 262 320"/>
<path stroke-width="1" stroke="black" d="M 52 183 174 23"/>
<path stroke-width="1" stroke="black" d="M 52 183 379 319"/>
<path stroke-width="1" stroke="black" d="M 52 183 367 90"/>
<path stroke-width="1" stroke="black" d="M 367 90 231 187"/>
<path stroke-width="1" stroke="black" d="M 367 90 286 164"/>
<path stroke-width="1" stroke="black" d="M 52 183 274 20"/>
<path stroke-width="1" stroke="black" d="M 75 318 290 228"/>
<path stroke-width="1" stroke="black" d="M 174 23 274 22"/>
<path stroke-width="1" stroke="black" d="M 174 23 420 221"/>
<path stroke-width="1" stroke="black" d="M 320 150 364 85"/>
<path stroke-width="1" stroke="black" d="M 320 150 112 236"/>
<path stroke-width="1" stroke="black" d="M 320 150 358 108"/>
<path stroke-width="1" stroke="black" d="M 320 150 190 30"/>
<path stroke-width="1" stroke="black" d="M 320 150 283 54"/>
<path stroke-width="1" stroke="black" d="M 320 150 245 316"/>
<path stroke-width="1" stroke="black" d="M 320 150 387 274"/>
<path stroke-width="1" stroke="black" d="M 320 150 188 119"/>
<path stroke-width="1" stroke="black" d="M 320 150 50 173"/>
<path stroke-width="1" stroke="black" d="M 320 150 404 224"/>
<path stroke-width="1" stroke="black" d="M 320 150 420 221"/>
<path stroke-width="1" stroke="black" d="M 320 150 290 228"/>
<path stroke-width="1" stroke="black" d="M 320 150 274 22"/>
<path stroke-width="1" stroke="black" d="M 320 150 132 92"/>
<path stroke-width="1" stroke="black" d="M 320 150 96 95"/>
<path stroke-width="1" stroke="black" d="M 320 150 274 20"/>
<path stroke-width="1" stroke="black" d="M 320 150 134 231"/>
<path stroke-width="1" stroke="black" d="M 320 150 262 320"/>
<path stroke-width="1" stroke="black" d="M 320 150 75 318"/>
<path stroke-width="1" stroke="black" d="M 320 150 174 23"/>
<path stroke-width="1" stroke="black" d="M 320 150 20 271"/>
<path stroke-width="1" stroke="black" d="M 320 150 231 187"/>
<path stroke-width="1" stroke="black" d="M 134 231 283 54"/>
<path stroke-width="1" stroke="black" d="M 134 231 245 316"/>
<path stroke-width="1" stroke="black" d="M 134 231 387 274"/>
<path stroke-width="1" stroke="black" d="M 134 231 188 119"/>
<path stroke-width="1" stroke="black" d="M 134 231 404 224"/>
<path stroke-width="1" stroke="black" d="M 134 231 75 318"/>
<path stroke-width="1" stroke="black" d="M 134 231 420 221"/>
<path stroke-width="1" stroke="black" d="M 134 231 290 228"/>
<path stroke-width="1" stroke="black" d="M 320 150 286 164"/>
<path stroke-width="1" stroke="black" d="M 134 231 274 22"/>
<path stroke-width="1" stroke="black" d="M 134 231 96 95"/>
<path stroke-width="1" stroke="black" d="M 134 231 274 20"/>
<path stroke-width="1" stroke="black" d="M 134 231 320 150"/>
<path stroke-width="1" stroke="black" d="M 134 231 262 320"/>
<path stroke-width="1" stroke="black" d="M 134 231 174 23"/>
<path stroke-width="1" stroke="black" d="M 134 231 379 319"/>
<path stroke-width="1" stroke="black" d="M 134 231 52 183"/>
<path stroke-width="1" stroke="black" d="M 134 231 367 90"/>
<path stroke-width="1" stroke="black" d="M 134 231 132 92"/>
<path stroke-width="1" stroke="black" d="M 174 23 290 228"/>
<path stroke-width="1" stroke="black" d="M 320 150 379 319"/>
<path stroke-width="1" stroke="black" d="M 320 150 367 90"/>
<path stroke-width="1" stroke="black" d="M 262 320 174 23"/>
<path stroke-width="1" stroke="black" d="M 262 320 379 319"/>
<path stroke-width="1" stroke="black" d="M 262 320 52 183"/>
<path stroke-width="1" stroke="black" d="M 262 320 367 90"/>
<path stroke-width="1" stroke="black" d="M 174 23 231 187"/>
<path stroke-width="1" stroke="black" d="M 174 23 286 164"/>
<path stroke-width="1" stroke="black" d="M 174 23 20 271"/>
<path stroke-width="1" stroke="black" d="M 174 23 50 173"/>
<path stroke-width="1" stroke="black" d="M 262 320 320 150"/>
<path stroke-width="1" stroke="black" d="M 174 23 364 85"/>
<path stroke-width="1" stroke="black" d="M 174 23 358 108"/>
<path stroke-width="1" stroke="black" d="M 174 23 190 30"/>
<path stroke-width="1" stroke="black" d="M 174 23 283 54"/>
<path stroke-width="1" stroke="black" d="M 174 23 245 316"/>
<path stroke-width="1" stroke="black" d="M 174 23 387 274"/>
<path stroke-width="1" stroke="black" d="M 174 23 188 119"/>
<path stroke-width="1" stroke="black" d="M 174 23 404 224"/>
<path stroke-width="1" stroke="black" d="M 174 23 75 318"/>
<path stroke-width="1" stroke="black" d="M 174 23 112 236"/>
<path stroke-width="1" stroke="black" d="M 320 150 52 183"/>
<path stroke-width="1" stroke="black" d="M 262 320 134 231"/>
<path stroke-width="1" stroke="black" d="M 262 320 96 95"/>
<path stroke-width="1" stroke="black" d="M 262 320 231 187"/>
<path stroke-width="1" stroke="black" d="M 262 320 286 164"/>
<path stroke-width="1" stroke="black" d="M 262 320 20 271"/>
<path stroke-width="1" stroke="black" d="M 262 320 50 173"/>
<path stroke-width="1" stroke="black" d="M 262 320 364 85"/>
<path stroke-width="1" stroke="black" d="M 262 320 112 236"/>
<path stroke-width="1" stroke="black" d="M 262 320 358 108"/>
<path stroke-width="1" stroke="black" d="M 262 320 190 30"/>
<path stroke-width="1" stroke="black" d="M 262 320 274 20"/>
<path stroke-width="1" stroke="black" d="M 262 320 283 54"/>
<path stroke-width="1" stroke="black" d="M 262 320 387 274"/>
<path stroke-width="1" stroke="black" d="M 262 320 188 119"/>
<path stroke-width="1" stroke="black" d="M 262 320 404 224"/>
<path stroke-width="1" stroke="black" d="M 262 320 75 318"/>
<path stroke-width="1" stroke="black" d="M 262 320 420 221"/>
<path stroke-width="1" stroke="black" d="M 262 320 290 228"/>
<path stroke-width="1" stroke="black" d="M 262 320 274 22"/>
<path stroke-width="1" stroke="black" d="M 262 320 132 92"/>
<path stroke-width="1" stroke="black" d="M 262 320 245 316"/>
<path stroke-width="1" stroke="black" d="M 75 318 420 221"/>
<path stroke-width="1" stroke="black" d="M 75 318 404 224"/>
<path stroke-width="1" stroke="black" d="M 75 318 188 119"/>
<path stroke-width="1" stroke="black" d="M 364 85 283 54"/>
<path stroke-width="1" stroke="black" d="M 364 85 245 316"/>
<path stroke-width="1" stroke="black" d="M 364 85 387 274"/>
<path stroke-width="1" stroke="black" d="M 364 85 188 119"/>
<path stroke-width="1" stroke="black" d="M 364 85 404 224"/>
<path stroke-width="1" stroke="black" d="M 364 85 75 318"/>
<path stroke-width="1" stroke="black" d="M 364 85 420 221"/>
<path stroke-width="1" stroke="black" d="M 364 85 290 228"/>
<path stroke-width="1" stroke="black" d="M 364 85 190 30"/>
<path stroke-width="1" stroke="black" d="M 364 85 274 22"/>
<path stroke-width="1" stroke="black" d="M 364 85 96 95"/>
<path stroke-width="1" stroke="black" d="M 364 85 274 20"/>
<path stroke-width="1" stroke="black" d="M 364 85 134 231"/>
<path stroke-width="1" stroke="black" d="M 364 85 320 150"/>
<path stroke-width="1" stroke="black" d="M 364 85 262 320"/>
<path stroke-width="1" stroke="black" d="M 364 85 174 23"/>
<path stroke-width="1" stroke="black" d="M 364 85 379 319"/>
<path stroke-width="1" stroke="black" d="M 364 85 52 183"/>
<path stroke-width="1" stroke="black" d="M 364 85 132 92"/>
<path stroke-width="1" stroke="black" d="M 364 85 367 90"/>
<path stroke-width="1" stroke="black" d="M 364 85 358 108"/>
<path stroke-width="1" stroke="black" d="M 364 85 50 173"/>
<path stroke-width="1" stroke="black" d="M 50 173 404 224"/>
<path stroke-width="1" stroke="black" d="M 50 173 75 318"/>
<path stroke-width="1" stroke="black" d="M 50 173 420 221"/>
<path stroke-width="1" stroke="black" d="M 50 173 290 228"/>
<path stroke-width="1" stroke="black" d="M 50 173 274 22"/>
<path stroke-width="1" stroke="black" d="M 50 173 132 92"/>
<path stroke-width="1" stroke="black" d="M 50 173 96 95"/>
<path stroke-width="1" stroke="black" d="M 50 173 274 20"/>
<path stroke-width="1" stroke="black" d="M 364 85 112 236"/>
<path stroke-width="1" stroke="black" d="M 50 173 134 231"/>
<path stroke-width="1" stroke="black" d="M 50 173 262 320"/>
<path stroke-width="1" stroke="black" d="M 50 173 174 23"/>
<path stroke-width="1" stroke="black" d="M 50 173 379 319"/>
<path stroke-width="1" stroke="black" d="M 50 173 52 183"/>
<path stroke-width="1" stroke="black" d="M 50 173 367 90"/>
<path stroke-width="1" stroke="black" d="M 364 85 231 187"/>
<path stroke-width="1" stroke="black" d="M 364 85 286 164"/>
<path stroke-width="1" stroke="black" d="M 364 85 20 271"/>
<path stroke-width="1" stroke="black" d="M 50 173 320 150"/>
<path stroke-width="1" stroke="black" d="M 50 173 188 119"/>
<path stroke-width="1" stroke="black" d="M 112 236 231 187"/>
<path stroke-width="1" stroke="black" d="M 112 236 20 271"/>
<path stroke-width="1" stroke="black" d="M 112 236 367 90"/>
<path stroke-width="1" stroke="black" d="M 358 108 231 187"/>
<path stroke-width="1" stroke="black" d="M 358 108 286 164"/>
<path stroke-width="1" stroke="black" d="M 358 108 20 271"/>
<path stroke-width="1" stroke="black" d="M 358 108 50 173"/>
<path stroke-width="1" stroke="black" d="M 358 108 364 85"/>
<path stroke-width="1" stroke="black" d="M 358 108 112 236"/>
<path stroke-width="1" stroke="black" d="M 358 108 190 30"/>
<path stroke-width="1" stroke="black" d="M 112 236 52 183"/>
<path stroke-width="1" stroke="black" d="M 358 108 283 54"/>
<path stroke-width="1" stroke="black" d="M 358 108 387 274"/>
<path stroke-width="1" stroke="black" d="M 358 108 188 119"/>
<path stroke-width="1" stroke="black" d="M 358 108 404 224"/>
<path stroke-width="1" stroke="black" d="M 358 108 75 318"/>
<path stroke-width="1" stroke="black" d="M 358 108 420 221"/>
<path stroke-width="1" stroke="black" d="M 358 108 290 228"/>
<path stroke-width="1" stroke="black" d="M 358 108 274 22"/>
<path stroke-width="1" stroke="black" d="M 358 108 132 92"/>
<path stroke-width="1" stroke="black" d="M 358 108 245 316"/>
<path stroke-width="1" stroke="black" d="M 112 236 286 164"/>
<path stroke-width="1" stroke="black" d="M 112 236 379 319"/>
<path stroke-width="1" stroke="black" d="M 112 236 262 320"/>
<path stroke-width="1" stroke="black" d="M 112 236 50 173"/>
<path stroke-width="1" stroke="black" d="M 112 236 364 85"/>
<path stroke-width="1" stroke="black" d="M 112 236 358 108"/>
<path stroke-width="1" stroke="black" d="M 112 236 190 30"/>
<path stroke-width="1" stroke="black" d="M 112 236 283 54"/>
<path stroke-width="1" stroke="black" d="M 112 236 245 316"/>
<path stroke-width="1" stroke="black" d="M 112 236 387 274"/>
<path stroke-width="1" stroke="black" d="M 112 236 188 119"/>
<path stroke-width="1" stroke="black" d="M 112 236 174 23"/>
<path stroke-width="1" stroke="black" d="M 112 236 404 224"/>
<path stroke-width="1" stroke="black" d="M 112 236 420 221"/>
<path stroke-width="1" stroke="black" d="M 112 236 290 228"/>
<path stroke-width="1" stroke="black" d="M 112 236 274 22"/>
<path stroke-width="1" stroke="black" d="M 112 236 132 92"/>
<path stroke-width="1" stroke="black" d="M 112 236 96 95"/>
<path stroke-width="1" stroke="black" d="M 112 236 274 20"/>
<path stroke-width="1" stroke="black" d="M 112 236 134 231"/>
<path stroke-width="1" stroke="black" d="M 112 236 320 150"/>
<path stroke-width="1" stroke="black" d="M 112 236 75 318"/>
<path stroke-width="1" stroke="black" d="M 358 108 96 95"/>
<path stroke-width="1" stroke="black" d="M 50 173 387 274"/>
<path stroke-width="1" stroke="black" d="M 50 173 283 54"/>
<path stroke-width="1" stroke="black" d="M 231 187 379 319"/>
<path stroke-width="1" stroke="black" d="M 231 187 52 183"/>
<path stroke-width="1" stroke="black" d="M 231 187 367 90"/>
<path stroke-width="1" stroke="black" d="M 286 164 231 187"/>
<path stroke-width="1" stroke="black" d="M 286 164 20 271"/>
<path stroke-width="1" stroke="black" d="M 286 164 50 173"/>
<path stroke-width="1" stroke="black" d="M 286 164 364 85"/>
<path stroke-width="1" stroke="black" d="M 286 164 112 236"/>
<path stroke-width="1" stroke="black" d="M 231 187 174 23"/>
<path stroke-width="1" stroke="black" d="M 286 164 358 108"/>
<path stroke-width="1" stroke="black" d="M 286 164 283 54"/>
<path stroke-width="1" stroke="black" d="M 286 164 245 316"/>
<path stroke-width="1" stroke="black" d="M 286 164 387 274"/>
<path stroke-width="1" stroke="black" d="M 286 164 188 119"/>
<path stroke-width="1" stroke="black" d="M 286 164 404 224"/>
<path stroke-width="1" stroke="black" d="M 286 164 75 318"/>
<path stroke-width="1" stroke="black" d="M 286 164 420 221"/>
<path stroke-width="1" stroke="black" d="M 286 164 290 228"/>
<path stroke-width="1" stroke="black" d="M 286 164 190 30"/>
<path stroke-width="1" stroke="black" d="M 286 164 274 22"/>
<path stroke-width="1" stroke="black" d="M 231 187 262 320"/>
<path stroke-width="1" stroke="black" d="M 231 187 134 231"/>
<path stroke-width="1" stroke="black" d="M 231 187 20 271"/>
<path stroke-width="1" stroke="black" d="M 231 187 50 173"/>
<path stroke-width="1" stroke="black" d="M 231 187 364 85"/>
<path stroke-width="1" stroke="black" d="M 231 187 112 236"/>
<path stroke-width="1" stroke="black" d="M 231 187 358 108"/>
<path stroke-width="1" stroke="black" d="M 231 187 190 30"/>
<path stroke-width="1" stroke="black" d="M 231 187 283 54"/>
<path stroke-width="1" stroke="black" d="M 231 187 245 316"/>
<path stroke-width="1" stroke="black" d="M 231 187 320 150"/>
<path stroke-width="1" stroke="black" d="M 231 187 387 274"/>
<path stroke-width="1" stroke="black" d="M 231 187 404 224"/>
<path stroke-width="1" stroke="black" d="M 231 187 75 318"/>
<path stroke-width="1" stroke="black" d="M 231 187 420 221"/>
<path stroke-width="1" stroke="black" d="M 231 187 290 228"/>
<path stroke-width="1" stroke="black" d="M 231 187 274 22"/>
<path stroke-width="1" stroke="black" d="M 231 187 132 92"/>
<path stroke-width="1" stroke="black" d="M 231 187 96 95"/>
<path stroke-width="1" stroke="black" d="M 231 187 274 20"/>
<path stroke-width="1" stroke="black" d="M 231 187 188 119"/>
<path stroke-width="1" stroke="black" d="M 50 173 245 316"/>
<path stroke-width="1" stroke="black" d="M 286 164 132 92"/>
<path stroke-width="1" stroke="black" d="M 286 164 274 20"/>
<path stroke-width="1" stroke="black" d="M 20 271 274 22"/>
<path stroke-width="1" stroke="black" d="M 20 271 132 92"/>
<path stroke-width="1" stroke="black" d="M 20 271 96 95"/>
<path stroke-width="1" stroke="black" d="M 20 271 274 20"/>
<path stroke-width="1" stroke="black" d="M 20 271 134 231"/>
<path stroke-width="1" stroke="black" d="M 20 271 320 150"/>
<path stroke-width="1" stroke="black" d="M 20 271 262 320"/>
<path stroke-width="1" stroke="black" d="M 20 271 174 23"/>
<path stroke-width="1" stroke="black" d="M 20 271 290 228"/>
<path stroke-width="1" stroke="black" d="M 20 271 379 319"/>
<path stroke-width="1" stroke="black" d="M 20 271 367 90"/>
<path stroke-width="1" stroke="black" d="M 50 173 231 187"/>
<path stroke-width="1" stroke="black" d="M 50 173 286 164"/>
<path stroke-width="1" stroke="black" d="M 50 173 20 271"/>
<path stroke-width="1" stroke="black" d="M 50 173 364 85"/>
<path stroke-width="1" stroke="black" d="M 50 173 112 236"/>
<path stroke-width="1" stroke="black" d="M 50 173 358 108"/>
<path stroke-width="1" stroke="black" d="M 50 173 190 30"/>
<path stroke-width="1" stroke="black" d="M 20 271 52 183"/>
<path stroke-width="1" stroke="black" d="M 286 164 96 95"/>
<path stroke-width="1" stroke="black" d="M 20 271 420 221"/>
<path stroke-width="1" stroke="black" d="M 20 271 404 224"/>
<path stroke-width="1" stroke="black" d="M 286 164 134 231"/>
<path stroke-width="1" stroke="black" d="M 286 164 320 150"/>
<path stroke-width="1" stroke="black" d="M 286 164 262 320"/>
<path stroke-width="1" stroke="black" d="M 286 164 174 23"/>
<path stroke-width="1" stroke="black" d="M 286 164 379 319"/>
<path stroke-width="1" stroke="black" d="M 286 164 52 183"/>
<path stroke-width="1" stroke="black" d="M 286 164 367 90"/>
<path stroke-width="1" stroke="black" d="M 20 271 231 187"/>
<path stroke-width="1" stroke="black" d="M 20 271 75 318"/>
<path stroke-width="1" stroke="black" d="M 20 271 286 164"/>
<path stroke-width="1" stroke="black" d="M 20 271 364 85"/>
<path stroke-width="1" stroke="black" d="M 20 271 112 236"/>
<path stroke-width="1" stroke="black" d="M 20 271 358 108"/>
<path stroke-width="1" stroke="black" d="M 20 271 190 30"/>
<path stroke-width="1" stroke="black" d="M 20 271 283 54"/>
<path stroke-width="1" stroke="black" d="M 20 271 245 316"/>
<path stroke-width="1" stroke="black" d="M 20 271 387 274"/>
<path stroke-width="1" stroke="black" d="M 20 271 188 119"/>
<path stroke-width="1" stroke="black" d="M 20 271 50 173"/>
<path stroke-width="1" stroke="black" d="M 367 90 379 319"/>
<path stroke-width="1" stroke="black" d="M 358 108 274 20"/>
<path stroke-width="1" stroke="black" d="M 358 108 320 150"/>
<path stroke-width="1" stroke="black" d="M 188 119 286 164"/>
<path stroke-width="1" stroke="black" d="M 188 119 20 271"/>
<path stroke-width="1" stroke="black" d="M 188 119 50 173"/>
<path stroke-width="1" stroke="black" d="M 188 119 364 85"/>
<path stroke-width="1" stroke="black" d="M 188 119 112 236"/>
<path stroke-width="1" stroke="black" d="M 188 119 358 108"/>
<path stroke-width="1" stroke="black" d="M 188 119 190 30"/>
<path stroke-width="1" stroke="black" d="M 188 119 283 54"/>
<path stroke-width="1" stroke="black" d="M 188 119 231 187"/>
<path stroke-width="1" stroke="black" d="M 188 119 245 316"/>
<path stroke-width="1" stroke="black" d="M 188 119 404 224"/>
<path stroke-width="1" stroke="black" d="M 188 119 75 318"/>
<path stroke-width="1" stroke="black" d="M 188 119 420 221"/>
<path stroke-width="1" stroke="black" d="M 188 119 290 228"/>
<path stroke-width="1" stroke="black" d="M 188 119 274 22"/>
<path stroke-width="1" stroke="black" d="M 188 119 132 92"/>
<path stroke-width="1" stroke="black" d="M 188 119 96 95"/>
<path stroke-width="1" stroke="black" d="M 188 119 274 20"/>
<path stroke-width="1" stroke="black" d="M 188 119 387 274"/>
<path stroke-width="1" stroke="black" d="M 188 119 134 231"/>
<path stroke-width="1" stroke="black" d="M 387 274 367 90"/>
<path stroke-width="1" stroke="black" d="M 387 274 379 319"/>
<path stroke-width="1" stroke="black" d="M 387 274 112 236"/>
<path stroke-width="1" stroke="black" d="M 387 274 358 108"/>
<path stroke-width="1" stroke="black" d="M 387 274 190 30"/>
<path stroke-width="1" stroke="black" d="M 387 274 283 54"/>
<path stroke-width="1" stroke="black" d="M 387 274 245 316"/>
<path stroke-width="1" stroke="black" d="M 387 274 188 119"/>
<path stroke-width="1" stroke="black" d="M 387 274 404 224"/>
<path stroke-width="1" stroke="black" d="M 387 274 75 318"/>
<path stroke-width="1" stroke="black" d="M 387 274 52 183"/>
<path stroke-width="1" stroke="black" d="M 387 274 420 221"/>
<path stroke-width="1" stroke="black" d="M 387 274 274 22"/>
<path stroke-width="1" stroke="black" d="M 387 274 132 92"/>
<path stroke-width="1" stroke="black" d="M 387 274 96 95"/>
<path stroke-width="1" stroke="black" d="M 387 274 274 20"/>
<path stroke-width="1" stroke="black" d="M 387 274 134 231"/>
<path stroke-width="1" stroke="black" d="M 387 274 320 150"/>
<path stroke-width="1" stroke="black" d="M 387 274 262 320"/>
<path stroke-width="1" stroke="black" d="M 387 274 174 23"/>
<path stroke-width="1" stroke="black" d="M 387 274 290 228"/>
<path stroke-width="1" stroke="black" d="M 387 274 364 85"/>
<path stroke-width="1" stroke="black" d="M 188 119 320 150"/>
<path stroke-width="1" stroke="black" d="M 188 119 174 23"/>
<path stroke-width="1" stroke="black" d="M 404 224 134 231"/>
<path stroke-width="1" stroke="black" d="M 404 224 320 150"/>
<path stroke-width="1" stroke="black" d="M 404 224 262 320"/>
<path stroke-width="1" stroke="black" d="M 404 224 174 23"/>
<path stroke-width="1" stroke="black" d="M 404 224 379 319"/>
<path stroke-width="1" stroke="black" d="M 404 224 52 183"/>
<path stroke-width="1" stroke="black" d="M 404 224 367 90"/>
<path stroke-width="1" stroke="black" d="M 75 318 231 187"/>
<path stroke-width="1" stroke="black" d="M 404 224 274 20"/>
<path stroke-width="1" stroke="black" d="M 75 318 286 164"/>
<path stroke-width="1" stroke="black" d="M 75 318 50 173"/>
<path stroke-width="1" stroke="black" d="M 75 318 364 85"/>
<path stroke-width="1" stroke="black" d="M 75 318 112 236"/>
<path stroke-width="1" stroke="black" d="M 75 318 358 108"/>
<path stroke-width="1" stroke="black" d="M 75 318 190 30"/>
<path stroke-width="1" stroke="black" d="M 75 318 283 54"/>
<path stroke-width="1" stroke="black" d="M 75 318 245 316"/>
<path stroke-width="1" stroke="black" d="M 75 318 387 274"/>
<path stroke-width="1" stroke="black" d="M 75 318 20 271"/>
<path stroke-width="1" stroke="black" d="M 188 119 262 320"/>
<path stroke-width="1" stroke="black" d="M 404 224 96 95"/>
<path stroke-width="1" stroke="black" d="M 404 224 274 22"/>
<path stroke-width="1" stroke="black" d="M 188 119 379 319"/>
<path stroke-width="1" stroke="black" d="M 188 119 52 183"/>
<path stroke-width="1" stroke="black" d="M 188 119 367 90"/>
<path stroke-width="1" stroke="black" d="M 404 224 231 187"/>
<path stroke-width="1" stroke="black" d="M 404 224 286 164"/>
<path stroke-width="1" stroke="black" d="M 404 224 20 271"/>
<path stroke-width="1" stroke="black" d="M 404 224 50 173"/>
<path stroke-width="1" stroke="black" d="M 404 224 364 85"/>
<path stroke-width="1" stroke="black" d="M 404 224 132 92"/>
<path stroke-width="1" stroke="black" d="M 404 224 112 236"/>
<path stroke-width="1" stroke="black" d="M 404 224 190 30"/>
<path stroke-width="1" stroke="black" d="M 404 224 283 54"/>
<path stroke-width="1" stroke="black" d="M 404 224 245 316"/>
<path stroke-width="1" stroke="black" d="M 404 224 387 274"/>
<path stroke-width="1" stroke="black" d="M 404 224 188 119"/>
<path stroke-width="1" stroke="black" d="M 404 224 75 318"/>
<path stroke-width="1" stroke="black" d="M 404 224 420 221"/>
<path stroke-width="1" stroke="black" d="M 404 224 290 228"/>
<path stroke-width="1" stroke="black" d="M 404 224 358 108"/>
<path stroke-width="1" stroke="black" d="M 358 108 134 231"/>
<path stroke-width="1" stroke="black" d="M 387 274 50 173"/>
<path stroke-width="1" stroke="black" d="M 387 274 286 164"/>
<path stroke-width="1" stroke="black" d="M 190 30 96 95"/>
<path stroke-width="1" stroke="black" d="M 190 30 274 20"/>
<path stroke-width="1" stroke="black" d="M 190 30 134 231"/>
<path stroke-width="1" stroke="black" d="M 190 30 320 150"/>
<path stroke-width="1" stroke="black" d="M 190 30 262 320"/>
<path stroke-width="1" stroke="black" d="M 190 30 174 23"/>
<path stroke-width="1" stroke="black" d="M 190 30 379 319"/>
<path stroke-width="1" stroke="black" d="M 190 30 52 183"/>
<path stroke-width="1" stroke="black" d="M 190 30 132 92"/>
<path stroke-width="1" stroke="black" d="M 190 30 367 90"/>
<path stroke-width="1" stroke="black" d="M 283 54 286 164"/>
<path stroke-width="1" stroke="black" d="M 283 54 20 271"/>
<path stroke-width="1" stroke="black" d="M 283 54 50 173"/>
<path stroke-width="1" stroke="black" d="M 283 54 364 85"/>
<path stroke-width="1" stroke="black" d="M 283 54 112 236"/>
<path stroke-width="1" stroke="black" d="M 283 54 358 108"/>
<path stroke-width="1" stroke="black" d="M 283 54 190 30"/>
<path stroke-width="1" stroke="black" d="M 283 54 245 316"/>
<path stroke-width="1" stroke="black" d="M 283 54 231 187"/>
<path stroke-width="1" stroke="black" d="M 283 54 387 274"/>
<path stroke-width="1" stroke="black" d="M 190 30 274 22"/>
<path stroke-width="1" stroke="black" d="M 190 30 420 221"/>
<path stroke-width="1" stroke="black" d="M 358 108 262 320"/>
<path stroke-width="1" stroke="black" d="M 358 108 174 23"/>
<path stroke-width="1" stroke="black" d="M 358 108 379 319"/>
<path stroke-width="1" stroke="black" d="M 358 108 52 183"/>
<path stroke-width="1" stroke="black" d="M 358 108 367 90"/>
<path stroke-width="1" stroke="black" d="M 190 30 231 187"/>
<path stroke-width="1" stroke="black" d="M 190 30 286 164"/>
<path stroke-width="1" stroke="black" d="M 190 30 20 271"/>
<path stroke-width="1" stroke="black" d="M 190 30 290 228"/>
<path stroke-width="1" stroke="black" d="M 190 30 50 173"/>
<path stroke-width="1" stroke="black" d="M 190 30 112 236"/>
<path stroke-width="1" stroke="black" d="M 190 30 358 108"/>
<path stroke-width="1" stroke="black" d="M 190 30 283 54"/>
<path stroke-width="1" stroke="black" d="M 190 30 245 316"/>
<path stroke-width="1" stroke="black" d="M 190 30 387 274"/>
<path stroke-width="1" stroke="black" d="M 190 30 188 119"/>
<path stroke-width="1" stroke="black" d="M 190 30 404 224"/>
<path stroke-width="1" stroke="black" d="M 190 30 75 318"/>
<path stroke-width="1" stroke="black" d="M 190 30 364 85"/>
<path stroke-width="1" stroke="black" d="M 387 274 20 271"/>
<path stroke-width="1" stroke="black" d="M 283 54 188 119"/>
<path stroke-width="1" stroke="black" d="M 283 54 75 318"/>
<path stroke-width="1" stroke="black" d="M 245 316 387 274"/>
<path stroke-width="1" stroke="black" d="M 245 316 188 119"/>
<path stroke-width="1" stroke="black" d="M 245 316 404 224"/>
<path stroke-width="1" stroke="black" d="M 245 316 75 318"/>
<path stroke-width="1" stroke="black" d="M 245 316 420 221"/>
<path stroke-width="1" stroke="black" d="M 245 316 290 228"/>
<path stroke-width="1" stroke="black" d="M 245 316 274 22"/>
<path stroke-width="1" stroke="black" d="M 245 316 132 92"/>
<path stroke-width="1" stroke="black" d="M 245 316 283 54"/>
<path stroke-width="1" stroke="black" d="M 245 316 96 95"/>
<path stroke-width="1" stroke="black" d="M 245 316 134 231"/>
<path stroke-width="1" stroke="black" d="M 245 316 320 150"/>
<path stroke-width="1" stroke="black" d="M 245 316 262 320"/>
<path stroke-width="1" stroke="black" d="M 245 316 174 23"/>
<path stroke-width="1" stroke="black" d="M 245 316 379 319"/>
<path stroke-width="1" stroke="black" d="M 245 316 52 183"/>
<path stroke-width="1" stroke="black" d="M 245 316 367 90"/>
<path stroke-width="1" stroke="black" d="M 387 274 231 187"/>
<path stroke-width="1" stroke="black" d="M 245 316 274 20"/>
<path stroke-width="1" stroke="black" d="M 283 54 404 224"/>
<path stroke-width="1" stroke="black" d="M 245 316 190 30"/>
<path stroke-width="1" stroke="black" d="M 245 316 112 236"/>
<path stroke-width="1" stroke="black" d="M 283 54 420 221"/>
<path stroke-width="1" stroke="black" d="M 283 54 290 228"/>
<path stroke-width="1" stroke="black" d="M 283 54 274 22"/>
<path stroke-width="1" stroke="black" d="M 283 54 132 92"/>
<path stroke-width="1" stroke="black" d="M 283 54 96 95"/>
<path stroke-width="1" stroke="black" d="M 283 54 274 20"/>
<path stroke-width="1" stroke="black" d="M 283 54 134 231"/>
<path stroke-width="1" stroke="black" d="M 283 54 320 150"/>
<path stroke-width="1" stroke="black" d="M 245 316 358 108"/>
<path stroke-width="1" stroke="black" d="M 283 54 262 320"/>
<path stroke-width="1" stroke="black" d="M 283 54 379 319"/>
<path stroke-width="1" stroke="black" d="M 283 54 52 183"/>
<path stroke-width="1" stroke="black" d="M 283 54 367 90"/>
<path stroke-width="1" stroke="black" d="M 245 316 231 187"/>
<path stroke-width="1" stroke="black" d="M 245 316 286 164"/>
<path stroke-width="1" stroke="black" d="M 245 316 20 271"/>
<path stroke-width="1" stroke="black" d="M 245 316 50 173"/>
<path stroke-width="1" stroke="black" d="M 245 316 364 85"/>
<path stroke-width="1" stroke="black" d="M 283 54 174 23"/>
<path stroke-width="1" stroke="black" d="M 367 90 52 183"/>
<circle cx="231" cy="187" r="7.0" style="fill:gray;stroke:black;stroke-width:1.0"/>
<circle cx="286" cy="164" r="7.0" style="fill:gray;stroke:black;stroke-width:1.0"/>
<circle cx="20" cy="271" r="7.0" style="fill:gray;stroke:black;stroke-width:1.0"/>
<circle cx="50" cy="173" r="7.0" style="fill:gray;stroke:black;stroke-width:1.0"/>
<circle cx="364" cy="85" r="7.0" style="fill:gray;stroke:black;stroke-width:1.0"/>
<circle cx="112" cy="236" r="7.0" style="fill:gray;stroke:black;stroke-width:1.0"/>
<circle cx="358" cy="108" r="7.0" style="fill:gray;stroke:black;stroke-width:1.0"/>
<circle cx="190" cy="30" r="7.0" style="fill:gray;stroke:black;stroke-width:1.0"/>
<circle cx="283" cy="54" r="7.0" style="fill:gray;stroke:black;stroke-width:1.0"/>
<circle cx="245" cy="316" r="7.0" style="fill:gray;stroke:black;stroke-width:1.0"/>
<circle cx="387" cy="274" r="7.0" style="fill:gray;stroke:black;stroke-width:1.0"/>
<circle cx="188" cy="119" r="7.0" style="fill:gray;stroke:black;stroke-width:1.0"/>
<circle cx="404" cy="224" r="7.0" style="fill:gray;stroke:black;stroke-width:1.0"/>
<circle cx="75" cy="318" r="7.0" style="fill:gray;stroke:black;stroke-width:1.0"/>
<circle cx="420" cy="221" r="7.0" style="fill:gray;stroke:black;stroke-width:1.0"/>
<circle cx="290" cy="228" r="7.0" style="fill:gray;stroke:black;stroke-width:1.0"/>
<circle cx="274" cy="22" r="7.0" style="fill:gray;stroke:black;stroke-width:1.0"/>
<circle cx="132" cy="92" r="7.0" style="fill:gray;stroke:black;stroke-width:1.0"/>
<circle cx="96" cy="95" r="7.0" style="fill:gray;stroke:black;stroke-width:1.0"/>
<circle cx="274" cy="20" r="7.0" style="fill:gray;stroke:black;stroke-width:1.0"/>
<circle cx="134" cy="231" r="7.0" style="fill:gray;stroke:black;stroke-width:1.0"/>
<circle cx="320" cy="150" r="7.0" style="fill:gray;stroke:black;stroke-width:1.0"/>
<circle cx="262" cy="320" r="7.0" style="fill:gray;stroke:black;stroke-width:1.0"/>
<circle cx="174" cy="23" r="7.0" style="fill:gray;stroke:black;stroke-width:1.0"/>
<circle cx="379" cy="319" r="7.0" style="fill:gray;stroke:black;stroke-width:1.0"/>
<circle cx="52" cy="183" r="7.0" style="fill:gray;stroke:black;stroke-width:1.0"/>
<circle cx="367" cy="90" r="7.0" style="fill:gray;stroke:black;stroke-width:1.0"/>
</svg>
