<svg width="440" height="340" xmlns="http://www.w3.org/2000/svg">
<path stroke-width="20.0" stroke="black" d="M 269 161 298 170"/>
<path stroke-width="0.5" stroke="black" d="M 228 73 313 295"/>
<path stroke-width="0.5" stroke="black" d="M 228 73 364 93"/>
<path stroke-width="0.5" stroke="black" d="M 228 73 420 189"/>
<path stroke-width="0.5" stroke="black" d="M 228 73 295 309"/>
<path stroke-width="0.5" stroke="black" d="M 228 73 93 78"/>
<path stroke-width="8.857142857142858" stroke="black" d="M 20 188 269 161"/>
<path stroke-width="3.2857142857142856" stroke="black" d="M 20 188 298 170"/>
<path stroke-width="0.5" stroke="black" d="M 20 188 125 23"/>
<path stroke-width="0.5" stroke="black" d="M 20 188 160 320"/>
<path stroke-width="0.5" stroke="black" d="M 20 188 242 20"/>
<path stroke-width="4.678571428571429" stroke="black" d="M 20 188 260 259"/>
<path stroke-width="0.5" stroke="black" d="M 20 188 223 278"/>
<path stroke-width="0.5" stroke="black" d="M 20 188 24 120"/>
<path stroke-width="0.5" stroke="black" d="M 20 188 87 242"/>
<path stroke-width="0.5" stroke="black" d="M 20 188 391 255"/>
<path stroke-width="0.5" stroke="black" d="M 20 188 337 73"/>
<path stroke-width="0.5" stroke="black" d="M 20 188 307 143"/>
<path stroke-width="0.5" stroke="black" d="M 228 73 134 142"/>
<path stroke-width="0.5" stroke="black" d="M 228 73 64 270"/>
<path stroke-width="0.5" stroke="black" d="M 228 73 334 70"/>
<path stroke-width="0.5" stroke="black" d="M 228 73 20 188"/>
<path stroke-width="4.678571428571429" stroke="black" d="M 390 173 93 78"/>
<path stroke-width="8.857142857142858" stroke="black" d="M 228 73 269 161"/>
<path stroke-width="3.2857142857142856" stroke="black" d="M 228 73 298 170"/>
<path stroke-width="0.5" stroke="black" d="M 228 73 125 23"/>
<path stroke-width="0.5" stroke="black" d="M 228 73 160 320"/>
<path stroke-width="0.5" stroke="black" d="M 228 73 242 20"/>
<path stroke-width="0.5" stroke="black" d="M 228 73 260 259"/>
<path stroke-width="4.678571428571429" stroke="black" d="M 228 73 223 278"/>
<path stroke-width="0.5" stroke="black" d="M 20 188 27 167"/>
<path stroke-width="0.5" stroke="black" d="M 228 73 24 120"/>
<path stroke-width="0.5" stroke="black" d="M 228 73 391 255"/>
<path stroke-width="0.5" stroke="black" d="M 228 73 337 73"/>
<path stroke-width="0.5" stroke="black" d="M 228 73 307 143"/>
<path stroke-width="0.5" stroke="black" d="M 228 73 27 167"/>
<path stroke-width="0.5" stroke="black" d="M 228 73 243 20"/>
<path stroke-width="0.5" stroke="black" d="M 228 73 132 84"/>
<path stroke-width="0.5" stroke="black" d="M 228 73 98 242"/>
<path stroke-width="0.5" stroke="black" d="M 228 73 390 173"/>
<path stroke-width="0.5" stroke="black" d="M 228 73 87 242"/>
<path stroke-width="0.5" stroke="black" d="M 20 188 243 20"/>
<path stroke-width="0.5" stroke="black" d="M 20 188 132 84"/>
<path stroke-width="0.5" stroke="black" d="M 20 188 98 242"/>
<path stroke-width="0.5" stroke="black" d="M 334 70 27 167"/>
<path stroke-width="0.5" stroke="black" d="M 334 70 243 20"/>
<path stroke-width="0.5" stroke="black" d="M 334 70 132 84"/>
<path stroke-width="0.5" stroke="black" d="M 334 70 98 242"/>
<path stroke-width="0.5" stroke="black" d="M 334 70 390 173"/>
<path stroke-width="0.5" stroke="black" d="M 334 70 228 73"/>
<path stroke-width="0.5" stroke="black" d="M 334 70 20 188"/>
<path stroke-width="0.5" stroke="black" d="M 334 70 64 270"/>
<path stroke-width="0.5" stroke="black" d="M 334 70 307 143"/>
<path stroke-width="0.5" stroke="black" d="M 334 70 134 142"/>
<path stroke-width="0.5" stroke="black" d="M 334 70 364 93"/>
<path stroke-width="0.5" stroke="black" d="M 334 70 420 189"/>
<path stroke-width="0.5" stroke="black" d="M 334 70 295 309"/>
<path stroke-width="0.5" stroke="black" d="M 334 70 93 78"/>
<path stroke-width="8.857142857142858" stroke="black" d="M 64 270 269 161"/>
<path stroke-width="3.2857142857142856" stroke="black" d="M 64 270 298 170"/>
<path stroke-width="0.5" stroke="black" d="M 64 270 125 23"/>
<path stroke-width="4.678571428571429" stroke="black" d="M 64 270 160 320"/>
<path stroke-width="0.5" stroke="black" d="M 334 70 313 295"/>
<path stroke-width="0.5" stroke="black" d="M 390 173 295 309"/>
<path stroke-width="0.5" stroke="black" d="M 334 70 337 73"/>
<path stroke-width="0.5" stroke="black" d="M 334 70 87 242"/>
<path stroke-width="0.5" stroke="black" d="M 20 188 390 173"/>
<path stroke-width="0.5" stroke="black" d="M 20 188 228 73"/>
<path stroke-width="0.5" stroke="black" d="M 20 188 334 70"/>
<path stroke-width="0.5" stroke="black" d="M 20 188 64 270"/>
<path stroke-width="0.5" stroke="black" d="M 20 188 134 142"/>
<path stroke-width="0.5" stroke="black" d="M 20 188 313 295"/>
<path stroke-width="0.5" stroke="black" d="M 20 188 364 93"/>
<path stroke-width="0.5" stroke="black" d="M 20 188 420 189"/>
<path stroke-width="0.5" stroke="black" d="M 334 70 391 255"/>
<path stroke-width="0.5" stroke="black" d="M 20 188 295 309"/>
<path stroke-width="8.857142857142858" stroke="black" d="M 334 70 269 161"/>
<path stroke-width="3.2857142857142856" stroke="black" d="M 334 70 298 170"/>
<path stroke-width="0.5" stroke="black" d="M 334 70 125 23"/>
<path stroke-width="0.5" stroke="black" d="M 334 70 160 320"/>
<path stroke-width="4.678571428571429" stroke="black" d="M 334 70 242 20"/>
<path stroke-width="0.5" stroke="black" d="M 334 70 260 259"/>
<path stroke-width="0.5" stroke="black" d="M 334 70 223 278"/>
<path stroke-width="0.5" stroke="black" d="M 334 70 24 120"/>
<path stroke-width="0.5" stroke="black" d="M 20 188 93 78"/>
<path stroke-width="0.5" stroke="black" d="M 390 173 420 189"/>
<path stroke-width="0.5" stroke="black" d="M 390 173 364 93"/>
<path stroke-width="0.5" stroke="black" d="M 390 173 313 295"/>
<path stroke-width="0.5" stroke="black" d="M 132 84 307 143"/>
<path stroke-width="0.5" stroke="black" d="M 132 84 27 167"/>
<path stroke-width="0.5" stroke="black" d="M 132 84 243 20"/>
<path stroke-width="0.5" stroke="black" d="M 132 84 98 242"/>
<path stroke-width="0.5" stroke="black" d="M 132 84 390 173"/>
<path stroke-width="0.5" stroke="black" d="M 132 84 228 73"/>
<path stroke-width="0.5" stroke="black" d="M 132 84 20 188"/>
<path stroke-width="0.5" stroke="black" d="M 132 84 334 70"/>
<path stroke-width="0.5" stroke="black" d="M 132 84 337 73"/>
<path stroke-width="0.5" stroke="black" d="M 132 84 64 270"/>
<path stroke-width="0.5" stroke="black" d="M 132 84 313 295"/>
<path stroke-width="0.5" stroke="black" d="M 132 84 364 93"/>
<path stroke-width="0.5" stroke="black" d="M 132 84 420 189"/>
<path stroke-width="0.5" stroke="black" d="M 132 84 295 309"/>
<path stroke-width="0.5" stroke="black" d="M 132 84 93 78"/>
<path stroke-width="8.857142857142858" stroke="black" d="M 98 242 269 161"/>
<path stroke-width="3.2857142857142856" stroke="black" d="M 98 242 298 170"/>
<path stroke-width="0.5" stroke="black" d="M 98 242 125 23"/>
<path stroke-width="0.5" stroke="black" d="M 132 84 134 142"/>
<path stroke-width="0.5" stroke="black" d="M 98 242 160 320"/>
<path stroke-width="0.5" stroke="black" d="M 132 84 391 255"/>
<path stroke-width="0.5" stroke="black" d="M 132 84 24 120"/>
<path stroke-width="0.5" stroke="black" d="M 243 20 390 173"/>
<path stroke-width="0.5" stroke="black" d="M 243 20 228 73"/>
<path stroke-width="0.5" stroke="black" d="M 243 20 20 188"/>
<path stroke-width="0.5" stroke="black" d="M 243 20 334 70"/>
<path stroke-width="0.5" stroke="black" d="M 243 20 64 270"/>
<path stroke-width="0.5" stroke="black" d="M 243 20 134 142"/>
<path stroke-width="0.5" stroke="black" d="M 243 20 313 295"/>
<path stroke-width="0.5" stroke="black" d="M 243 20 364 93"/>
<path stroke-width="4.678571428571429" stroke="black" d="M 132 84 87 242"/>
<path stroke-width="0.5" stroke="black" d="M 243 20 420 189"/>
<path stroke-width="0.5" stroke="black" d="M 243 20 93 78"/>
<path stroke-width="8.857142857142858" stroke="black" d="M 132 84 269 161"/>
<path stroke-width="3.2857142857142856" stroke="black" d="M 132 84 298 170"/>
<path stroke-width="0.5" stroke="black" d="M 132 84 125 23"/>
<path stroke-width="0.5" stroke="black" d="M 132 84 160 320"/>
<path stroke-width="0.5" stroke="black" d="M 132 84 242 20"/>
<path stroke-width="0.5" stroke="black" d="M 132 84 260 259"/>
<path stroke-width="0.5" stroke="black" d="M 132 84 223 278"/>
<path stroke-width="0.5" stroke="black" d="M 243 20 295 309"/>
<path stroke-width="0.5" stroke="black" d="M 64 270 242 20"/>
<path stroke-width="0.5" stroke="black" d="M 98 242 242 20"/>
<path stroke-width="0.5" stroke="black" d="M 98 242 223 278"/>
<path stroke-width="0.5" stroke="black" d="M 390 173 160 320"/>
<path stroke-width="0.5" stroke="black" d="M 390 173 242 20"/>
<path stroke-width="0.5" stroke="black" d="M 390 173 260 259"/>
<path stroke-width="0.5" stroke="black" d="M 390 173 223 278"/>
<path stroke-width="0.5" stroke="black" d="M 390 173 24 120"/>
<path stroke-width="0.5" stroke="black" d="M 390 173 87 242"/>
<path stroke-width="0.5" stroke="black" d="M 390 173 391 255"/>
<path stroke-width="0.5" stroke="black" d="M 390 173 337 73"/>
<path stroke-width="0.5" stroke="black" d="M 390 173 125 23"/>
<path stroke-width="0.5" stroke="black" d="M 390 173 307 143"/>
<path stroke-width="0.5" stroke="black" d="M 390 173 243 20"/>
<path stroke-width="0.5" stroke="black" d="M 390 173 132 84"/>
<path stroke-width="0.5" stroke="black" d="M 390 173 98 242"/>
<path stroke-width="0.5" stroke="black" d="M 390 173 228 73"/>
<path stroke-width="0.5" stroke="black" d="M 390 173 20 188"/>
<path stroke-width="0.5" stroke="black" d="M 390 173 334 70"/>
<path stroke-width="0.5" stroke="black" d="M 390 173 64 270"/>
<path stroke-width="0.5" stroke="black" d="M 390 173 134 142"/>
<path stroke-width="0.5" stroke="black" d="M 390 173 27 167"/>
<path stroke-width="0.5" stroke="black" d="M 98 242 260 259"/>
<path stroke-width="3.2857142857142856" stroke="black" d="M 390 173 298 170"/>
<path stroke-width="0.5" stroke="black" d="M 98 242 93 78"/>
<path stroke-width="4.678571428571429" stroke="black" d="M 98 242 24 120"/>
<path stroke-width="0.5" stroke="black" d="M 98 242 87 242"/>
<path stroke-width="0.5" stroke="black" d="M 98 242 391 255"/>
<path stroke-width="0.5" stroke="black" d="M 98 242 337 73"/>
<path stroke-width="0.5" stroke="black" d="M 98 242 307 143"/>
<path stroke-width="0.5" stroke="black" d="M 98 242 27 167"/>
<path stroke-width="0.5" stroke="black" d="M 98 242 243 20"/>
<path stroke-width="0.5" stroke="black" d="M 98 242 132 84"/>
<path stroke-width="8.857142857142858" stroke="black" d="M 390 173 269 161"/>
<path stroke-width="0.5" stroke="black" d="M 98 242 390 173"/>
<path stroke-width="0.5" stroke="black" d="M 98 242 20 188"/>
<path stroke-width="0.5" stroke="black" d="M 98 242 334 70"/>
<path stroke-width="0.5" stroke="black" d="M 98 242 64 270"/>
<path stroke-width="0.5" stroke="black" d="M 98 242 134 142"/>
<path stroke-width="0.5" stroke="black" d="M 98 242 313 295"/>
<path stroke-width="0.5" stroke="black" d="M 98 242 364 93"/>
<path stroke-width="0.5" stroke="black" d="M 98 242 420 189"/>
<path stroke-width="0.5" stroke="black" d="M 98 242 295 309"/>
<path stroke-width="0.5" stroke="black" d="M 98 242 228 73"/>
<path stroke-width="0.5" stroke="black" d="M 64 270 260 259"/>
<path stroke-width="0.5" stroke="black" d="M 64 270 223 278"/>
<path stroke-width="0.5" stroke="black" d="M 64 270 24 120"/>
<path stroke-width="0.5" stroke="black" d="M 420 189 132 84"/>
<path stroke-width="0.5" stroke="black" d="M 420 189 98 242"/>
<path stroke-width="0.5" stroke="black" d="M 420 189 390 173"/>
<path stroke-width="0.5" stroke="black" d="M 420 189 228 73"/>
<path stroke-width="0.5" stroke="black" d="M 420 189 20 188"/>
<path stroke-width="0.5" stroke="black" d="M 420 189 334 70"/>
<path stroke-width="0.5" stroke="black" d="M 420 189 64 270"/>
<path stroke-width="0.5" stroke="black" d="M 420 189 134 142"/>
<path stroke-width="0.5" stroke="black" d="M 420 189 243 20"/>
<path stroke-width="0.5" stroke="black" d="M 420 189 313 295"/>
<path stroke-width="0.5" stroke="black" d="M 420 189 295 309"/>
<path stroke-width="0.5" stroke="black" d="M 420 189 93 78"/>
<path stroke-width="8.857142857142858" stroke="black" d="M 295 309 269 161"/>
<path stroke-width="3.2857142857142856" stroke="black" d="M 295 309 298 170"/>
<path stroke-width="0.5" stroke="black" d="M 295 309 125 23"/>
<path stroke-width="0.5" stroke="black" d="M 295 309 160 320"/>
<path stroke-width="0.5" stroke="black" d="M 295 309 242 20"/>
<path stroke-width="0.5" stroke="black" d="M 295 309 260 259"/>
<path stroke-width="0.5" stroke="black" d="M 420 189 364 93"/>
<path stroke-width="0.5" stroke="black" d="M 295 309 223 278"/>
<path stroke-width="0.5" stroke="black" d="M 420 189 27 167"/>
<path stroke-width="0.5" stroke="black" d="M 420 189 337 73"/>
<path stroke-width="0.5" stroke="black" d="M 364 93 20 188"/>
<path stroke-width="0.5" stroke="black" d="M 364 93 334 70"/>
<path stroke-width="0.5" stroke="black" d="M 364 93 64 270"/>
<path stroke-width="0.5" stroke="black" d="M 364 93 134 142"/>
<path stroke-width="0.5" stroke="black" d="M 364 93 313 295"/>
<path stroke-width="0.5" stroke="black" d="M 364 93 420 189"/>
<path stroke-width="0.5" stroke="black" d="M 364 93 295 309"/>
<path stroke-width="0.5" stroke="black" d="M 364 93 93 78"/>
<path stroke-width="0.5" stroke="black" d="M 420 189 307 143"/>
<path stroke-width="7.464285714285714" stroke="black" d="M 420 189 269 161"/>
<path stroke-width="0.5" stroke="black" d="M 420 189 125 23"/>
<path stroke-width="0.5" stroke="black" d="M 420 189 160 320"/>
<path stroke-width="0.5" stroke="black" d="M 420 189 242 20"/>
<path stroke-width="0.5" stroke="black" d="M 420 189 260 259"/>
<path stroke-width="0.5" stroke="black" d="M 420 189 223 278"/>
<path stroke-width="0.5" stroke="black" d="M 420 189 24 120"/>
<path stroke-width="0.5" stroke="black" d="M 420 189 87 242"/>
<path stroke-width="0.5" stroke="black" d="M 420 189 391 255"/>
<path stroke-width="3.2857142857142856" stroke="black" d="M 420 189 298 170"/>
<path stroke-width="0.5" stroke="black" d="M 364 93 228 73"/>
<path stroke-width="0.5" stroke="black" d="M 295 309 24 120"/>
<path stroke-width="4.678571428571429" stroke="black" d="M 295 309 391 255"/>
<path stroke-width="0.5" stroke="black" d="M 93 78 223 278"/>
<path stroke-width="0.5" stroke="black" d="M 93 78 24 120"/>
<path stroke-width="0.5" stroke="black" d="M 93 78 87 242"/>
<path stroke-width="0.5" stroke="black" d="M 93 78 391 255"/>
<path stroke-width="0.5" stroke="black" d="M 93 78 337 73"/>
<path stroke-width="0.5" stroke="black" d="M 93 78 307 143"/>
<path stroke-width="0.5" stroke="black" d="M 93 78 27 167"/>
<path stroke-width="0.5" stroke="black" d="M 93 78 243 20"/>
<path stroke-width="0.5" stroke="black" d="M 93 78 260 259"/>
<path stroke-width="0.5" stroke="black" d="M 93 78 132 84"/>
<path stroke-width="4.678571428571429" stroke="black" d="M 93 78 390 173"/>
<path stroke-width="0.5" stroke="black" d="M 93 78 228 73"/>
<path stroke-width="0.5" stroke="black" d="M 93 78 20 188"/>
<path stroke-width="0.5" stroke="black" d="M 93 78 334 70"/>
<path stroke-width="0.5" stroke="black" d="M 93 78 64 270"/>
<path stroke-width="0.5" stroke="black" d="M 93 78 134 142"/>
<path stroke-width="0.5" stroke="black" d="M 93 78 313 295"/>
<path stroke-width="0.5" stroke="black" d="M 93 78 364 93"/>
<path stroke-width="0.5" stroke="black" d="M 93 78 98 242"/>
<path stroke-width="0.5" stroke="black" d="M 295 309 87 242"/>
<path stroke-width="0.5" stroke="black" d="M 93 78 242 20"/>
<path stroke-width="0.5" stroke="black" d="M 93 78 125 23"/>
<path stroke-width="0.5" stroke="black" d="M 295 309 337 73"/>
<path stroke-width="0.5" stroke="black" d="M 295 309 307 143"/>
<path stroke-width="0.5" stroke="black" d="M 295 309 27 167"/>
<path stroke-width="0.5" stroke="black" d="M 295 309 243 20"/>
<path stroke-width="0.5" stroke="black" d="M 295 309 132 84"/>
<path stroke-width="0.5" stroke="black" d="M 295 309 98 242"/>
<path stroke-width="0.5" stroke="black" d="M 295 309 390 173"/>
<path stroke-width="0.5" stroke="black" d="M 295 309 228 73"/>
<path stroke-width="0.5" stroke="black" d="M 93 78 160 320"/>
<path stroke-width="0.5" stroke="black" d="M 295 309 20 188"/>
<path stroke-width="0.5" stroke="black" d="M 295 309 64 270"/>
<path stroke-width="0.5" stroke="black" d="M 295 309 134 142"/>
<path stroke-width="0.5" stroke="black" d="M 295 309 313 295"/>
<path stroke-width="0.5" stroke="black" d="M 295 309 364 93"/>
<path stroke-width="0.5" stroke="black" d="M 295 309 420 189"/>
<path stroke-width="0.5" stroke="black" d="M 295 309 93 78"/>
<path stroke-width="8.857142857142858" stroke="black" d="M 93 78 269 161"/>
<path stroke-width="3.2857142857142856" stroke="black" d="M 93 78 298 170"/>
<path stroke-width="0.5" stroke="black" d="M 295 309 334 70"/>
<path stroke-width="0.5" stroke="black" d="M 243 20 98 242"/>
<path stroke-width="0.5" stroke="black" d="M 364 93 390 173"/>
<path stroke-width="0.5" stroke="black" d="M 364 93 132 84"/>
<path stroke-width="0.5" stroke="black" d="M 134 142 242 20"/>
<path stroke-width="0.5" stroke="black" d="M 134 142 260 259"/>
<path stroke-width="0.5" stroke="black" d="M 134 142 223 278"/>
<path stroke-width="0.5" stroke="black" d="M 134 142 24 120"/>
<path stroke-width="0.5" stroke="black" d="M 134 142 87 242"/>
<path stroke-width="0.5" stroke="black" d="M 134 142 391 255"/>
<path stroke-width="0.5" stroke="black" d="M 134 142 337 73"/>
<path stroke-width="0.5" stroke="black" d="M 134 142 307 143"/>
<path stroke-width="0.5" stroke="black" d="M 134 142 160 320"/>
<path stroke-width="0.5" stroke="black" d="M 134 142 27 167"/>
<path stroke-width="0.5" stroke="black" d="M 134 142 132 84"/>
<path stroke-width="0.5" stroke="black" d="M 134 142 98 242"/>
<path stroke-width="0.5" stroke="black" d="M 134 142 390 173"/>
<path stroke-width="0.5" stroke="black" d="M 134 142 228 73"/>
<path stroke-width="0.5" stroke="black" d="M 134 142 20 188"/>
<path stroke-width="0.5" stroke="black" d="M 134 142 334 70"/>
<path stroke-width="0.5" stroke="black" d="M 134 142 64 270"/>
<path stroke-width="0.5" stroke="black" d="M 134 142 313 295"/>
<path stroke-width="0.5" stroke="black" d="M 134 142 243 20"/>
<path stroke-width="0.5" stroke="black" d="M 134 142 364 93"/>
<path stroke-width="0.5" stroke="black" d="M 134 142 125 23"/>
<path stroke-width="13.035714285714286" stroke="black" d="M 134 142 269 161"/>
<path stroke-width="0.5" stroke="black" d="M 64 270 87 242"/>
<path stroke-width="0.5" stroke="black" d="M 64 270 391 255"/>
<path stroke-width="0.5" stroke="black" d="M 64 270 337 73"/>
<path stroke-width="0.5" stroke="black" d="M 64 270 307 143"/>
<path stroke-width="0.5" stroke="black" d="M 64 270 27 167"/>
<path stroke-width="0.5" stroke="black" d="M 64 270 243 20"/>
<path stroke-width="0.5" stroke="black" d="M 64 270 132 84"/>
<path stroke-width="0.5" stroke="black" d="M 64 270 98 242"/>
<path stroke-width="3.2857142857142856" stroke="black" d="M 134 142 298 170"/>
<path stroke-width="0.5" stroke="black" d="M 64 270 390 173"/>
<path stroke-width="0.5" stroke="black" d="M 64 270 20 188"/>
<path stroke-width="0.5" stroke="black" d="M 64 270 334 70"/>
<path stroke-width="0.5" stroke="black" d="M 64 270 134 142"/>
<path stroke-width="0.5" stroke="black" d="M 64 270 313 295"/>
<path stroke-width="0.5" stroke="black" d="M 64 270 364 93"/>
<path stroke-width="0.5" stroke="black" d="M 64 270 420 189"/>
<path stroke-width="0.5" stroke="black" d="M 64 270 295 309"/>
<path stroke-width="0.5" stroke="black" d="M 64 270 93 78"/>
<path stroke-width="0.5" stroke="black" d="M 64 270 228 73"/>
<path stroke-width="0.5" stroke="black" d="M 364 93 98 242"/>
<path stroke-width="0.5" stroke="black" d="M 134 142 420 189"/>
<path stroke-width="0.5" stroke="black" d="M 134 142 93 78"/>
<path stroke-width="0.5" stroke="black" d="M 313 295 364 93"/>
<path stroke-width="0.5" stroke="black" d="M 313 295 420 189"/>
<path stroke-width="0.5" stroke="black" d="M 313 295 295 309"/>
<path stroke-width="0.5" stroke="black" d="M 313 295 93 78"/>
<path stroke-width="6.071428571428571" stroke="black" d="M 364 93 269 161"/>
<path stroke-width="7.464285714285714" stroke="black" d="M 364 93 298 170"/>
<path stroke-width="0.5" stroke="black" d="M 364 93 125 23"/>
<path stroke-width="0.5" stroke="black" d="M 364 93 160 320"/>
<path stroke-width="0.5" stroke="black" d="M 313 295 134 142"/>
<path stroke-width="0.5" stroke="black" d="M 364 93 242 20"/>
<path stroke-width="0.5" stroke="black" d="M 364 93 223 278"/>
<path stroke-width="0.5" stroke="black" d="M 364 93 24 120"/>
<path stroke-width="0.5" stroke="black" d="M 364 93 87 242"/>
<path stroke-width="0.5" stroke="black" d="M 364 93 391 255"/>
<path stroke-width="0.5" stroke="black" d="M 364 93 337 73"/>
<path stroke-width="0.5" stroke="black" d="M 364 93 307 143"/>
<path stroke-width="0.5" stroke="black" d="M 364 93 27 167"/>
<path stroke-width="0.5" stroke="black" d="M 364 93 243 20"/>
<path stroke-width="0.5" stroke="black" d="M 364 93 260 259"/>
<path stroke-width="0.5" stroke="black" d="M 134 142 295 309"/>
<path stroke-width="0.5" stroke="black" d="M 313 295 64 270"/>
<path stroke-width="0.5" stroke="black" d="M 313 295 20 188"/>
<path stroke-width="8.857142857142858" stroke="black" d="M 313 295 269 161"/>
<path stroke-width="7.464285714285714" stroke="black" d="M 313 295 298 170"/>
<path stroke-width="0.5" stroke="black" d="M 313 295 125 23"/>
<path stroke-width="0.5" stroke="black" d="M 313 295 160 320"/>
<path stroke-width="0.5" stroke="black" d="M 313 295 242 20"/>
<path stroke-width="0.5" stroke="black" d="M 313 295 260 259"/>
<path stroke-width="0.5" stroke="black" d="M 313 295 223 278"/>
<path stroke-width="0.5" stroke="black" d="M 313 295 24 120"/>
<path stroke-width="0.5" stroke="black" d="M 313 295 334 70"/>
<path stroke-width="0.5" stroke="black" d="M 313 295 87 242"/>
<path stroke-width="0.5" stroke="black" d="M 313 295 337 73"/>
<path stroke-width="0.5" stroke="black" d="M 313 295 307 143"/>
<path stroke-width="0.5" stroke="black" d="M 313 295 27 167"/>
<path stroke-width="0.5" stroke="black" d="M 313 295 243 20"/>
<path stroke-width="0.5" stroke="black" d="M 313 295 132 84"/>
<path stroke-width="0.5" stroke="black" d="M 313 295 98 242"/>
<path stroke-width="0.5" stroke="black" d="M 313 295 390 173"/>
<path stroke-width="0.5" stroke="black" d="M 313 295 228 73"/>
<path stroke-width="0.5" stroke="black" d="M 313 295 391 255"/>
<path stroke-width="0.5" stroke="black" d="M 243 20 132 84"/>
<path stroke-width="0.5" stroke="black" d="M 243 20 27 167"/>
<path stroke-width="0.5" stroke="black" d="M 243 20 307 143"/>
<path stroke-width="0.5" stroke="black" d="M 242 20 87 242"/>
<path stroke-width="0.5" stroke="black" d="M 242 20 391 255"/>
<path stroke-width="0.5" stroke="black" d="M 242 20 337 73"/>
<path stroke-width="0.5" stroke="black" d="M 242 20 307 143"/>
<path stroke-width="0.5" stroke="black" d="M 242 20 27 167"/>
<path stroke-width="0.5" stroke="black" d="M 242 20 243 20"/>
<path stroke-width="0.5" stroke="black" d="M 242 20 132 84"/>
<path stroke-width="0.5" stroke="black" d="M 242 20 98 242"/>
<path stroke-width="0.5" stroke="black" d="M 242 20 24 120"/>
<path stroke-width="0.5" stroke="black" d="M 242 20 390 173"/>
<path stroke-width="0.5" stroke="black" d="M 242 20 20 188"/>
<path stroke-width="4.678571428571429" stroke="black" d="M 242 20 334 70"/>
<path stroke-width="0.5" stroke="black" d="M 242 20 64 270"/>
<path stroke-width="0.5" stroke="black" d="M 242 20 134 142"/>
<path stroke-width="0.5" stroke="black" d="M 242 20 313 295"/>
<path stroke-width="0.5" stroke="black" d="M 242 20 364 93"/>
<path stroke-width="0.5" stroke="black" d="M 242 20 420 189"/>
<path stroke-width="0.5" stroke="black" d="M 242 20 295 309"/>
<path stroke-width="0.5" stroke="black" d="M 242 20 228 73"/>
<path stroke-width="0.5" stroke="black" d="M 242 20 93 78"/>
<path stroke-width="0.5" stroke="black" d="M 242 20 223 278"/>
<path stroke-width="0.5" stroke="black" d="M 242 20 160 320"/>
<path stroke-width="0.5" stroke="black" d="M 160 320 27 167"/>
<path stroke-width="0.5" stroke="black" d="M 160 320 243 20"/>
<path stroke-width="0.5" stroke="black" d="M 160 320 132 84"/>
<path stroke-width="0.5" stroke="black" d="M 160 320 98 242"/>
<path stroke-width="0.5" stroke="black" d="M 160 320 390 173"/>
<path stroke-width="0.5" stroke="black" d="M 160 320 228 73"/>
<path stroke-width="0.5" stroke="black" d="M 160 320 20 188"/>
<path stroke-width="0.5" stroke="black" d="M 160 320 334 70"/>
<path stroke-width="0.5" stroke="black" d="M 242 20 260 259"/>
<path stroke-width="4.678571428571429" stroke="black" d="M 160 320 64 270"/>
<path stroke-width="0.5" stroke="black" d="M 160 320 313 295"/>
<path stroke-width="0.5" stroke="black" d="M 160 320 364 93"/>
<path stroke-width="0.5" stroke="black" d="M 160 320 420 189"/>
<path stroke-width="0.5" stroke="black" d="M 160 320 295 309"/>
<path stroke-width="0.5" stroke="black" d="M 160 320 93 78"/>
<path stroke-width="8.857142857142858" stroke="black" d="M 242 20 269 161"/>
<path stroke-width="3.2857142857142856" stroke="black" d="M 242 20 298 170"/>
<path stroke-width="0.5" stroke="black" d="M 242 20 125 23"/>
<path stroke-width="0.5" stroke="black" d="M 160 320 134 142"/>
<path stroke-width="0.5" stroke="black" d="M 160 320 307 143"/>
<path stroke-width="8.857142857142858" stroke="black" d="M 260 259 269 161"/>
<path stroke-width="0.5" stroke="black" d="M 260 259 125 23"/>
<path stroke-width="0.5" stroke="black" d="M 260 259 93 78"/>
<path stroke-width="8.857142857142858" stroke="black" d="M 223 278 269 161"/>
<path stroke-width="3.2857142857142856" stroke="black" d="M 223 278 298 170"/>
<path stroke-width="0.5" stroke="black" d="M 223 278 125 23"/>
<path stroke-width="0.5" stroke="black" d="M 223 278 160 320"/>
<path stroke-width="0.5" stroke="black" d="M 223 278 242 20"/>
<path stroke-width="0.5" stroke="black" d="M 223 278 260 259"/>
<path stroke-width="0.5" stroke="black" d="M 223 278 24 120"/>
<path stroke-width="0.5" stroke="black" d="M 260 259 295 309"/>
<path stroke-width="0.5" stroke="black" d="M 223 278 87 242"/>
<path stroke-width="0.5" stroke="black" d="M 223 278 337 73"/>
<path stroke-width="0.5" stroke="black" d="M 223 278 307 143"/>
<path stroke-width="0.5" stroke="black" d="M 223 278 27 167"/>
<path stroke-width="0.5" stroke="black" d="M 223 278 243 20"/>
<path stroke-width="0.5" stroke="black" d="M 223 278 132 84"/>
<path stroke-width="0.5" stroke="black" d="M 223 278 98 242"/>
<path stroke-width="0.5" stroke="black" d="M 223 278 390 173"/>
<path stroke-width="4.678571428571429" stroke="black" d="M 223 278 228 73"/>
<path stroke-width="0.5" stroke="black" d="M 223 278 391 255"/>
<path stroke-width="3.2857142857142856" stroke="black" d="M 260 259 298 170"/>
<path stroke-width="0.5" stroke="black" d="M 260 259 420 189"/>
<path stroke-width="0.5" stroke="black" d="M 260 259 313 295"/>
<path stroke-width="0.5" stroke="black" d="M 260 259 160 320"/>
<path stroke-width="0.5" stroke="black" d="M 260 259 242 20"/>
<path stroke-width="0.5" stroke="black" d="M 260 259 223 278"/>
<path stroke-width="0.5" stroke="black" d="M 260 259 24 120"/>
<path stroke-width="0.5" stroke="black" d="M 260 259 87 242"/>
<path stroke-width="0.5" stroke="black" d="M 260 259 391 255"/>
<path stroke-width="0.5" stroke="black" d="M 260 259 337 73"/>
<path stroke-width="0.5" stroke="black" d="M 260 259 307 143"/>
<path stroke-width="0.5" stroke="black" d="M 260 259 364 93"/>
<path stroke-width="0.5" stroke="black" d="M 260 259 27 167"/>
<path stroke-width="0.5" stroke="black" d="M 260 259 132 84"/>
<path stroke-width="0.5" stroke="black" d="M 260 259 98 242"/>
<path stroke-width="0.5" stroke="black" d="M 260 259 390 173"/>
<path stroke-width="0.5" stroke="black" d="M 260 259 228 73"/>
<path stroke-width="4.678571428571429" stroke="black" d="M 260 259 20 188"/>
<path stroke-width="0.5" stroke="black" d="M 260 259 334 70"/>
<path stroke-width="0.5" stroke="black" d="M 260 259 64 270"/>
<path stroke-width="0.5" stroke="black" d="M 260 259 134 142"/>
<path stroke-width="0.5" stroke="black" d="M 260 259 243 20"/>
<path stroke-width="0.5" stroke="black" d="M 223 278 20 188"/>
<path stroke-width="0.5" stroke="black" d="M 160 320 337 73"/>
<path stroke-width="0.5" stroke="black" d="M 160 320 87 242"/>
<path stroke-width="7.464285714285714" stroke="black" d="M 269 161 420 189"/>
<path stroke-width="8.857142857142858" stroke="black" d="M 269 161 295 309"/>
<path stroke-width="8.857142857142858" stroke="black" d="M 269 161 93 78"/>
<path stroke-width="20.0" stroke="black" d="M 298 170 269 161"/>
<path stroke-width="0.5" stroke="black" d="M 298 170 125 23"/>
<path stroke-width="3.2857142857142856" stroke="black" d="M 298 170 160 320"/>
<path stroke-width="3.2857142857142856" stroke="black" d="M 298 170 242 20"/>
<path stroke-width="3.2857142857142856" stroke="black" d="M 298 170 260 259"/>
<path stroke-width="6.071428571428571" stroke="black" d="M 269 161 364 93"/>
<path stroke-width="3.2857142857142856" stroke="black" d="M 298 170 223 278"/>
<path stroke-width="3.2857142857142856" stroke="black" d="M 298 170 87 242"/>
<path stroke-width="3.2857142857142856" stroke="black" d="M 298 170 391 255"/>
<path stroke-width="3.2857142857142856" stroke="black" d="M 298 170 337 73"/>
<path stroke-width="3.2857142857142856" stroke="black" d="M 298 170 307 143"/>
<path stroke-width="3.2857142857142856" stroke="black" d="M 298 170 27 167"/>
<path stroke-width="3.2857142857142856" stroke="black" d="M 298 170 243 20"/>
<path stroke-width="3.2857142857142856" stroke="black" d="M 298 170 132 84"/>
<path stroke-width="3.2857142857142856" stroke="black" d="M 298 170 98 242"/>
<path stroke-width="3.2857142857142856" stroke="black" d="M 298 170 24 120"/>
<path stroke-width="3.2857142857142856" stroke="black" d="M 298 170 390 173"/>
<path stroke-width="8.857142857142858" stroke="black" d="M 269 161 313 295"/>
<path stroke-width="8.857142857142858" stroke="black" d="M 269 161 64 270"/>
<path stroke-width="7.464285714285714" stroke="black" d="M 269 161 125 23"/>
<path stroke-width="8.857142857142858" stroke="black" d="M 269 161 160 320"/>
<path stroke-width="8.857142857142858" stroke="black" d="M 269 161 242 20"/>
<path stroke-width="8.857142857142858" stroke="black" d="M 269 161 260 259"/>
<path stroke-width="8.857142857142858" stroke="black" d="M 269 161 223 278"/>
<path stroke-width="8.857142857142858" stroke="black" d="M 269 161 24 120"/>
<path stroke-width="8.857142857142858" stroke="black" d="M 269 161 87 242"/>
<path stroke-width="8.857142857142858" stroke="black" d="M 269 161 391 255"/>
<path stroke-width="13.035714285714286" stroke="black" d="M 269 161 134 142"/>
<path stroke-width="8.857142857142858" stroke="black" d="M 269 161 337 73"/>
<path stroke-width="8.857142857142858" stroke="black" d="M 269 161 27 167"/>
<path stroke-width="8.857142857142858" stroke="black" d="M 269 161 243 20"/>
<path stroke-width="8.857142857142858" stroke="black" d="M 269 161 132 84"/>
<path stroke-width="8.857142857142858" stroke="black" d="M 269 161 98 242"/>
<path stroke-width="8.857142857142858" stroke="black" d="M 269 161 390 173"/>
<path stroke-width="8.857142857142858" stroke="black" d="M 269 161 228 73"/>
<path stroke-width="8.857142857142858" stroke="black" d="M 269 161 20 188"/>
<path stroke-width="8.857142857142858" stroke="black" d="M 269 161 334 70"/>
<path stroke-width="8.857142857142858" stroke="black" d="M 269 161 307 143"/>
<path stroke-width="0.5" stroke="black" d="M 160 320 391 255"/>
<path stroke-width="3.2857142857142856" stroke="black" d="M 298 170 228 73"/>
<path stroke-width="3.2857142857142856" stroke="black" d="M 298 170 334 70"/>
<path stroke-width="0.5" stroke="black" d="M 125 23 390 173"/>
<path stroke-width="0.5" stroke="black" d="M 125 23 228 73"/>
<path stroke-width="0.5" stroke="black" d="M 125 23 20 188"/>
<path stroke-width="0.5" stroke="black" d="M 125 23 334 70"/>
<path stroke-width="0.5" stroke="black" d="M 125 23 64 270"/>
<path stroke-width="0.5" stroke="black" d="M 125 23 134 142"/>
<path stroke-width="0.5" stroke="black" d="M 125 23 313 295"/>
<path stroke-width="0.5" stroke="black" d="M 125 23 364 93"/>
<path stroke-width="0.5" stroke="black" d="M 125 23 98 242"/>
<path stroke-width="0.5" stroke="black" d="M 125 23 420 189"/>
<path stroke-width="0.5" stroke="black" d="M 125 23 93 78"/>
<path stroke-width="8.857142857142858" stroke="black" d="M 160 320 269 161"/>
<path stroke-width="3.2857142857142856" stroke="black" d="M 160 320 298 170"/>
<path stroke-width="0.5" stroke="black" d="M 160 320 125 23"/>
<path stroke-width="0.5" stroke="black" d="M 160 320 242 20"/>
<path stroke-width="0.5" stroke="black" d="M 160 320 260 259"/>
<path stroke-width="0.5" stroke="black" d="M 160 320 223 278"/>
<path stroke-width="0.5" stroke="black" d="M 160 320 24 120"/>
<path stroke-width="0.5" stroke="black" d="M 125 23 295 309"/>
<path stroke-width="3.2857142857142856" stroke="black" d="M 298 170 20 188"/>
<path stroke-width="0.5" stroke="black" d="M 125 23 132 84"/>
<path stroke-width="0.5" stroke="black" d="M 125 23 27 167"/>
<path stroke-width="3.2857142857142856" stroke="black" d="M 298 170 64 270"/>
<path stroke-width="3.2857142857142856" stroke="black" d="M 298 170 134 142"/>
<path stroke-width="7.464285714285714" stroke="black" d="M 298 170 313 295"/>
<path stroke-width="7.464285714285714" stroke="black" d="M 298 170 364 93"/>
<path stroke-width="3.2857142857142856" stroke="black" d="M 298 170 420 189"/>
<path stroke-width="3.2857142857142856" stroke="black" d="M 298 170 295 309"/>
<path stroke-width="3.2857142857142856" stroke="black" d="M 298 170 93 78"/>
<path stroke-width="7.464285714285714" stroke="black" d="M 125 23 269 161"/>
<path stroke-width="0.5" stroke="black" d="M 125 23 243 20"/>
<path stroke-width="0.5" stroke="black" d="M 125 23 298 170"/>
<path stroke-width="0.5" stroke="black" d="M 125 23 242 20"/>
<path stroke-width="0.5" stroke="black" d="M 125 23 260 259"/>
<path stroke-width="0.5" stroke="black" d="M 125 23 223 278"/>
<path stroke-width="0.5" stroke="black" d="M 125 23 24 120"/>
<path stroke-width="0.5" stroke="black" d="M 125 23 87 242"/>
<path stroke-width="0.5" stroke="black" d="M 125 23 391 255"/>
<path stroke-width="0.5" stroke="black" d="M 125 23 337 73"/>
<path stroke-width="0.5" stroke="black" d="M 125 23 307 143"/>
<path stroke-width="0.5" stroke="black" d="M 125 23 160 320"/>
<path stroke-width="0.5" stroke="black" d="M 93 78 420 189"/>
<path stroke-width="0.5" stroke="black" d="M 223 278 334 70"/>
<path stroke-width="0.5" stroke="black" d="M 223 278 134 142"/>
<path stroke-width="3.2857142857142856" stroke="black" d="M 307 143 298 170"/>
<path stroke-width="0.5" stroke="black" d="M 307 143 125 23"/>
<path stroke-width="0.5" stroke="black" d="M 307 143 160 320"/>
<path stroke-width="0.5" stroke="black" d="M 307 143 242 20"/>
<path stroke-width="0.5" stroke="black" d="M 307 143 260 259"/>
<path stroke-width="0.5" stroke="black" d="M 307 143 223 278"/>
<path stroke-width="0.5" stroke="black" d="M 307 143 24 120"/>
<path stroke-width="0.5" stroke="black" d="M 307 143 87 242"/>
<path stroke-width="8.857142857142858" stroke="black" d="M 307 143 269 161"/>
<path stroke-width="0.5" stroke="black" d="M 307 143 391 255"/>
<path stroke-width="4.678571428571429" stroke="black" d="M 307 143 27 167"/>
<path stroke-width="0.5" stroke="black" d="M 307 143 243 20"/>
<path stroke-width="0.5" stroke="black" d="M 307 143 132 84"/>
<path stroke-width="0.5" stroke="black" d="M 307 143 98 242"/>
<path stroke-width="0.5" stroke="black" d="M 307 143 390 173"/>
<path stroke-width="0.5" stroke="black" d="M 307 143 228 73"/>
<path stroke-width="0.5" stroke="black" d="M 307 143 20 188"/>
<path stroke-width="0.5" stroke="black" d="M 307 143 334 70"/>
<path stroke-width="0.5" stroke="black" d="M 307 143 337 73"/>
<path stroke-width="0.5" stroke="black" d="M 307 143 64 270"/>
<path stroke-width="0.5" stroke="black" d="M 337 73 93 78"/>
<path stroke-width="0.5" stroke="black" d="M 337 73 420 189"/>
<path stroke-width="0.5" stroke="black" d="M 337 73 260 259"/>
<path stroke-width="0.5" stroke="black" d="M 337 73 223 278"/>
<path stroke-width="0.5" stroke="black" d="M 337 73 24 120"/>
<path stroke-width="0.5" stroke="black" d="M 337 73 87 242"/>
<path stroke-width="0.5" stroke="black" d="M 337 73 391 255"/>
<path stroke-width="0.5" stroke="black" d="M 337 73 307 143"/>
<path stroke-width="0.5" stroke="black" d="M 337 73 27 167"/>
<path stroke-width="4.678571428571429" stroke="black" d="M 337 73 243 20"/>
<path stroke-width="0.5" stroke="black" d="M 337 73 295 309"/>
<path stroke-width="0.5" stroke="black" d="M 337 73 132 84"/>
<path stroke-width="0.5" stroke="black" d="M 337 73 390 173"/>
<path stroke-width="0.5" stroke="black" d="M 337 73 228 73"/>
<path stroke-width="0.5" stroke="black" d="M 337 73 20 188"/>
<path stroke-width="0.5" stroke="black" d="M 337 73 334 70"/>
<path stroke-width="0.5" stroke="black" d="M 337 73 64 270"/>
<path stroke-width="0.5" stroke="black" d="M 337 73 134 142"/>
<path stroke-width="0.5" stroke="black" d="M 337 73 313 295"/>
<path stroke-width="0.5" stroke="black" d="M 337 73 364 93"/>
<path stroke-width="0.5" stroke="black" d="M 337 73 98 242"/>
<path stroke-width="0.5" stroke="black" d="M 337 73 242 20"/>
<path stroke-width="0.5" stroke="black" d="M 307 143 134 142"/>
<path stroke-width="0.5" stroke="black" d="M 307 143 364 93"/>
<path stroke-width="0.5" stroke="black" d="M 27 167 64 270"/>
<path stroke-width="0.5" stroke="black" d="M 27 167 134 142"/>
<path stroke-width="0.5" stroke="black" d="M 27 167 313 295"/>
<path stroke-width="0.5" stroke="black" d="M 27 167 364 93"/>
<path stroke-width="0.5" stroke="black" d="M 27 167 420 189"/>
<path stroke-width="0.5" stroke="black" d="M 27 167 295 309"/>
<path stroke-width="0.5" stroke="black" d="M 27 167 93 78"/>
<path stroke-width="8.857142857142858" stroke="black" d="M 243 20 269 161"/>
<path stroke-width="0.5" stroke="black" d="M 27 167 334 70"/>
<path stroke-width="3.2857142857142856" stroke="black" d="M 243 20 298 170"/>
<path stroke-width="0.5" stroke="black" d="M 243 20 160 320"/>
<path stroke-width="0.5" stroke="black" d="M 243 20 242 20"/>
<path stroke-width="0.5" stroke="black" d="M 243 20 260 259"/>
<path stroke-width="0.5" stroke="black" d="M 243 20 223 278"/>
<path stroke-width="0.5" stroke="black" d="M 243 20 24 120"/>
<path stroke-width="0.5" stroke="black" d="M 243 20 87 242"/>
<path stroke-width="0.5" stroke="black" d="M 243 20 391 255"/>
<path stroke-width="4.678571428571429" stroke="black" d="M 243 20 337 73"/>
<path stroke-width="0.5" stroke="black" d="M 243 20 125 23"/>
<path stroke-width="0.5" stroke="black" d="M 307 143 313 295"/>
<path stroke-width="0.5" stroke="black" d="M 27 167 20 188"/>
<path stroke-width="0.5" stroke="black" d="M 27 167 390 173"/>
<path stroke-width="0.5" stroke="black" d="M 307 143 420 189"/>
<path stroke-width="0.5" stroke="black" d="M 307 143 295 309"/>
<path stroke-width="0.5" stroke="black" d="M 307 143 93 78"/>
<path stroke-width="8.857142857142858" stroke="black" d="M 27 167 269 161"/>
<path stroke-width="3.2857142857142856" stroke="black" d="M 27 167 298 170"/>
<path stroke-width="0.5" stroke="black" d="M 27 167 125 23"/>
<path stroke-width="0.5" stroke="black" d="M 27 167 160 320"/>
<path stroke-width="0.5" stroke="black" d="M 27 167 242 20"/>
<path stroke-width="0.5" stroke="black" d="M 27 167 228 73"/>
<path stroke-width="0.5" stroke="black" d="M 27 167 260 259"/>
<path stroke-width="0.5" stroke="black" d="M 27 167 24 120"/>
<path stroke-width="0.5" stroke="black" d="M 27 167 87 242"/>
<path stroke-width="0.5" stroke="black" d="M 27 167 391 255"/>
<path stroke-width="0.5" stroke="black" d="M 27 167 337 73"/>
<path stroke-width="4.678571428571429" stroke="black" d="M 27 167 307 143"/>
<path stroke-width="0.5" stroke="black" d="M 27 167 243 20"/>
<path stroke-width="0.5" stroke="black" d="M 27 167 132 84"/>
<path stroke-width="0.5" stroke="black" d="M 27 167 98 242"/>
<path stroke-width="0.5" stroke="black" d="M 27 167 223 278"/>
<path stroke-width="0.5" stroke="black" d="M 223 278 64 270"/>
<path stroke-width="0.5" stroke="black" d="M 337 73 160 320"/>
<path stroke-width="3.2857142857142856" stroke="black" d="M 337 73 298 170"/>
<path stroke-width="0.5" stroke="black" d="M 24 120 20 188"/>
<path stroke-width="0.5" stroke="black" d="M 24 120 334 70"/>
<path stroke-width="0.5" stroke="black" d="M 24 120 64 270"/>
<path stroke-width="0.5" stroke="black" d="M 24 120 134 142"/>
<path stroke-width="0.5" stroke="black" d="M 24 120 313 295"/>
<path stroke-width="0.5" stroke="black" d="M 24 120 364 93"/>
<path stroke-width="0.5" stroke="black" d="M 24 120 420 189"/>
<path stroke-width="0.5" stroke="black" d="M 24 120 295 309"/>
<path stroke-width="0.5" stroke="black" d="M 24 120 228 73"/>
<path stroke-width="0.5" stroke="black" d="M 24 120 93 78"/>
<path stroke-width="3.2857142857142856" stroke="black" d="M 87 242 298 170"/>
<path stroke-width="0.5" stroke="black" d="M 87 242 125 23"/>
<path stroke-width="0.5" stroke="black" d="M 87 242 160 320"/>
<path stroke-width="0.5" stroke="black" d="M 87 242 242 20"/>
<path stroke-width="0.5" stroke="black" d="M 87 242 260 259"/>
<path stroke-width="0.5" stroke="black" d="M 87 242 223 278"/>
<path stroke-width="0.5" stroke="black" d="M 87 242 24 120"/>
<path stroke-width="0.5" stroke="black" d="M 87 242 391 255"/>
<path stroke-width="8.857142857142858" stroke="black" d="M 87 242 269 161"/>
<path stroke-width="0.5" stroke="black" d="M 87 242 337 73"/>
<path stroke-width="0.5" stroke="black" d="M 24 120 390 173"/>
<path stroke-width="0.5" stroke="black" d="M 24 120 132 84"/>
<path stroke-width="0.5" stroke="black" d="M 223 278 313 295"/>
<path stroke-width="0.5" stroke="black" d="M 223 278 364 93"/>
<path stroke-width="0.5" stroke="black" d="M 223 278 420 189"/>
<path stroke-width="0.5" stroke="black" d="M 223 278 295 309"/>
<path stroke-width="0.5" stroke="black" d="M 223 278 93 78"/>
<path stroke-width="8.857142857142858" stroke="black" d="M 24 120 269 161"/>
<path stroke-width="3.2857142857142856" stroke="black" d="M 24 120 298 170"/>
<path stroke-width="0.5" stroke="black" d="M 24 120 125 23"/>
<path stroke-width="4.678571428571429" stroke="black" d="M 24 120 98 242"/>
<path stroke-width="0.5" stroke="black" d="M 24 120 160 320"/>
<path stroke-width="0.5" stroke="black" d="M 24 120 260 259"/>
<path stroke-width="0.5" stroke="black" d="M 24 120 223 278"/>
<path stroke-width="0.5" stroke="black" d="M 24 120 87 242"/>
<path stroke-width="0.5" stroke="black" d="M 24 120 391 255"/>
<path stroke-width="0.5" stroke="black" d="M 24 120 337 73"/>
<path stroke-width="0.5" stroke="black" d="M 24 120 307 143"/>
<path stroke-width="0.5" stroke="black" d="M 24 120 27 167"/>
<path stroke-width="0.5" stroke="black" d="M 24 120 243 20"/>
<path stroke-width="0.5" stroke="black" d="M 24 120 242 20"/>
<path stroke-width="0.5" stroke="black" d="M 337 73 125 23"/>
<path stroke-width="0.5" stroke="black" d="M 87 242 307 143"/>
<path stroke-width="0.5" stroke="black" d="M 87 242 243 20"/>
<path stroke-width="0.5" stroke="black" d="M 391 255 337 73"/>
<path stroke-width="0.5" stroke="black" d="M 391 255 307 143"/>
<path stroke-width="0.5" stroke="black" d="M 391 255 27 167"/>
<path stroke-width="0.5" stroke="black" d="M 391 255 243 20"/>
<path stroke-width="0.5" stroke="black" d="M 391 255 132 84"/>
<path stroke-width="0.5" stroke="black" d="M 391 255 98 242"/>
<path stroke-width="0.5" stroke="black" d="M 391 255 390 173"/>
<path stroke-width="0.5" stroke="black" d="M 391 255 228 73"/>
<path stroke-width="0.5" stroke="black" d="M 391 255 87 242"/>
<path stroke-width="0.5" stroke="black" d="M 391 255 20 188"/>
<path stroke-width="0.5" stroke="black" d="M 391 255 64 270"/>
<path stroke-width="0.5" stroke="black" d="M 391 255 134 142"/>
<path stroke-width="0.5" stroke="black" d="M 391 255 313 295"/>
<path stroke-width="0.5" stroke="black" d="M 391 255 364 93"/>
<path stroke-width="0.5" stroke="black" d="M 391 255 420 189"/>
<path stroke-width="4.678571428571429" stroke="black" d="M 391 255 295 309"/>
<path stroke-width="0.5" stroke="black" d="M 391 255 93 78"/>
<path stroke-width="8.857142857142858" stroke="black" d="M 337 73 269 161"/>
<path stroke-width="0.5" stroke="black" d="M 391 255 334 70"/>
<path stroke-width="0.5" stroke="black" d="M 87 242 27 167"/>
<path stroke-width="0.5" stroke="black" d="M 391 255 24 120"/>
<path stroke-width="0.5" stroke="black" d="M 391 255 260 259"/>
<path stroke-width="4.678571428571429" stroke="black" d="M 87 242 132 84"/>
<path stroke-width="0.5" stroke="black" d="M 87 242 98 242"/>
<path stroke-width="0.5" stroke="black" d="M 87 242 390 173"/>
<path stroke-width="0.5" stroke="black" d="M 87 242 228 73"/>
<path stroke-width="0.5" stroke="black" d="M 87 242 20 188"/>
<path stroke-width="0.5" stroke="black" d="M 87 242 334 70"/>
<path stroke-width="0.5" stroke="black" d="M 87 242 64 270"/>
<path stroke-width="0.5" stroke="black" d="M 87 242 134 142"/>
<path stroke-width="0.5" stroke="black" d="M 391 255 223 278"/>
<path stroke-width="0.5" stroke="black" d="M 87 242 313 295"/>
<path stroke-width="0.5" stroke="black" d="M 87 242 420 189"/>
<path stroke-width="0.5" stroke="black" d="M 87 242 295 309"/>
<path stroke-width="0.5" stroke="black" d="M 87 242 93 78"/>
<path stroke-width="8.857142857142858" stroke="black" d="M 391 255 269 161"/>
<path stroke-width="3.2857142857142856" stroke="black" d="M 391 255 298 170"/>
<path stroke-width="0.5" stroke="black" d="M 391 255 125 23"/>
<path stroke-width="0.5" stroke="black" d="M 391 255 160 320"/>
<path stroke-width="0.5" stroke="black" d="M 391 255 242 20"/>
<path stroke-width="0.5" stroke="black" d="M 87 242 364 93"/>
<path stroke-width="0.5" stroke="black" d="M 93 78 295 309"/>
<circle cx="269" cy="161" r="7.0" style="fill:gray;stroke:black;stroke-width:1.0"/>
<circle cx="298" cy="170" r="7.0" style="fill:gray;stroke:black;stroke-width:1.0"/>
<circle cx="125" cy="23" r="7.0" style="fill:gray;stroke:black;stroke-width:1.0"/>
<circle cx="160" cy="320" r="7.0" style="fill:gray;stroke:black;stroke-width:1.0"/>
<circle cx="242" cy="20" r="7.0" style="fill:gray;stroke:black;stroke-width:1.0"/>
<circle cx="260" cy="259" r="7.0" style="fill:gray;stroke:black;stroke-width:1.0"/>
<circle cx="223" cy="278" r="7.0" style="fill:gray;stroke:black;stroke-width:1.0"/>
<circle cx="24" cy="120" r="7.0" style="fill:gray;stroke:black;stroke-width:1.0"/>
<circle cx="87" cy="242" r="7.0" style="fill:gray;stroke:black;stroke-width:1.0"/>
<circle cx="391" cy="255" r="7.0" style="fill:gray;stroke:black;stroke-width:1.0"/>
<circle cx="337" cy="73" r="7.0" style="fill:gray;stroke:black;stroke-width:1.0"/>
<circle cx="307" cy="143" r="7.0" style="fill:gray;stroke:black;stroke-width:1.0"/>
<circle cx="27" cy="167" r="7.0" style="fill:gray;stroke:black;stroke-width:1.0"/>
<circle cx="243" cy="20" r="7.0" style="fill:gray;stroke:black;stroke-width:1.0"/>
<circle cx="132" cy="84" r="7.0" style="fill:gray;stroke:black;stroke-width:1.0"/>
<circle cx="98" cy="242" r="7.0" style="fill:gray;stroke:black;stroke-width:1.0"/>
<circle cx="390" cy="173" r="7.0" style="fill:gray;stroke:black;stroke-width:1.0"/>
<circle cx="228" cy="73" r="7.0" style="fill:gray;stroke:black;stroke-width:1.0"/>
<circle cx="20" cy="188" r="7.0" style="fill:gray;stroke:black;stroke-width:1.0"/>
<circle cx="334" cy="70" r="7.0" style="fill:gray;stroke:black;stroke-width:1.0"/>
<circle cx="64" cy="270" r="7.0" style="fill:gray;stroke:black;stroke-width:1.0"/>
<circle cx="134" cy="142" r="7.0" style="fill:gray;stroke:black;stroke-width:1.0"/>
<circle cx="313" cy="295" r="7.0" style="fill:gray;stroke:black;stroke-width:1.0"/>
<circle cx="364" cy="93" r="7.0" style="fill:gray;stroke:black;stroke-width:1.0"/>
<circle cx="420" cy="189" r="7.0" style="fill:gray;stroke:black;stroke-width:1.0"/>
<circle cx="295" cy="309" r="7.0" style="fill:gray;stroke:black;stroke-width:1.0"/>
<circle cx="93" cy="78" r="7.0" style="fill:gray;stroke:black;stroke-width:1.0"/>
</svg>
