<svg width="440" height="340" xmlns="http://www.w3.org/2000/svg">
<path stroke-width="20.0" stroke="black" d="M 250 286 230 173"/>
<path stroke-width="0.5" stroke="black" d="M 279 320 53 112"/>
<path stroke-width="0.5" stroke="black" d="M 279 320 326 37"/>
<path stroke-width="0.5" stroke="black" d="M 279 320 223 20"/>
<path stroke-width="0.5" stroke="black" d="M 279 320 20 189"/>
<path stroke-width="0.5" stroke="black" d="M 279 320 349 89"/>
<path stroke-width="8.857142857142858" stroke="black" d="M 241 275 250 286"/>
<path stroke-width="3.2857142857142856" stroke="black" d="M 241 275 230 173"/>
<path stroke-width="0.5" stroke="black" d="M 241 275 141 305"/>
<path stroke-width="0.5" stroke="black" d="M 241 275 218 104"/>
<path stroke-width="0.5" stroke="black" d="M 241 275 376 84"/>
<path stroke-width="4.678571428571429" stroke="black" d="M 241 275 406 192"/>
<path stroke-width="0.5" stroke="black" d="M 241 275 348 290"/>
<path stroke-width="0.5" stroke="black" d="M 241 275 80 271"/>
<path stroke-width="0.5" stroke="black" d="M 241 275 374 276"/>
<path stroke-width="0.5" stroke="black" d="M 241 275 26 201"/>
<path stroke-width="0.5" stroke="black" d="M 241 275 117 183"/>
<path stroke-width="0.5" stroke="black" d="M 241 275 105 83"/>
<path stroke-width="0.5" stroke="black" d="M 279 320 198 270"/>
<path stroke-width="0.5" stroke="black" d="M 279 320 216 107"/>
<path stroke-width="0.5" stroke="black" d="M 279 320 187 29"/>
<path stroke-width="0.5" stroke="black" d="M 279 320 241 275"/>
<path stroke-width="4.678571428571429" stroke="black" d="M 254 197 349 89"/>
<path stroke-width="8.857142857142858" stroke="black" d="M 279 320 250 286"/>
<path stroke-width="3.2857142857142856" stroke="black" d="M 279 320 230 173"/>
<path stroke-width="0.5" stroke="black" d="M 279 320 141 305"/>
<path stroke-width="0.5" stroke="black" d="M 279 320 218 104"/>
<path stroke-width="0.5" stroke="black" d="M 279 320 376 84"/>
<path stroke-width="0.5" stroke="black" d="M 279 320 406 192"/>
<path stroke-width="4.678571428571429" stroke="black" d="M 279 320 348 290"/>
<path stroke-width="0.5" stroke="black" d="M 241 275 362 189"/>
<path stroke-width="0.5" stroke="black" d="M 279 320 80 271"/>
<path stroke-width="0.5" stroke="black" d="M 279 320 26 201"/>
<path stroke-width="0.5" stroke="black" d="M 279 320 117 183"/>
<path stroke-width="0.5" stroke="black" d="M 279 320 105 83"/>
<path stroke-width="0.5" stroke="black" d="M 279 320 362 189"/>
<path stroke-width="0.5" stroke="black" d="M 279 320 57 102"/>
<path stroke-width="0.5" stroke="black" d="M 279 320 420 247"/>
<path stroke-width="0.5" stroke="black" d="M 279 320 39 215"/>
<path stroke-width="0.5" stroke="black" d="M 279 320 254 197"/>
<path stroke-width="0.5" stroke="black" d="M 279 320 374 276"/>
<path stroke-width="0.5" stroke="black" d="M 241 275 57 102"/>
<path stroke-width="0.5" stroke="black" d="M 241 275 420 247"/>
<path stroke-width="0.5" stroke="black" d="M 241 275 39 215"/>
<path stroke-width="0.5" stroke="black" d="M 187 29 362 189"/>
<path stroke-width="0.5" stroke="black" d="M 187 29 57 102"/>
<path stroke-width="0.5" stroke="black" d="M 187 29 420 247"/>
<path stroke-width="0.5" stroke="black" d="M 187 29 39 215"/>
<path stroke-width="0.5" stroke="black" d="M 187 29 254 197"/>
<path stroke-width="0.5" stroke="black" d="M 187 29 279 320"/>
<path stroke-width="0.5" stroke="black" d="M 187 29 241 275"/>
<path stroke-width="0.5" stroke="black" d="M 187 29 216 107"/>
<path stroke-width="0.5" stroke="black" d="M 187 29 105 83"/>
<path stroke-width="0.5" stroke="black" d="M 187 29 198 270"/>
<path stroke-width="0.5" stroke="black" d="M 187 29 326 37"/>
<path stroke-width="0.5" stroke="black" d="M 187 29 223 20"/>
<path stroke-width="0.5" stroke="black" d="M 187 29 20 189"/>
<path stroke-width="0.5" stroke="black" d="M 187 29 349 89"/>
<path stroke-width="8.857142857142858" stroke="black" d="M 216 107 250 286"/>
<path stroke-width="3.2857142857142856" stroke="black" d="M 216 107 230 173"/>
<path stroke-width="0.5" stroke="black" d="M 216 107 141 305"/>
<path stroke-width="4.678571428571429" stroke="black" d="M 216 107 218 104"/>
<path stroke-width="0.5" stroke="black" d="M 187 29 53 112"/>
<path stroke-width="0.5" stroke="black" d="M 254 197 20 189"/>
<path stroke-width="0.5" stroke="black" d="M 187 29 117 183"/>
<path stroke-width="0.5" stroke="black" d="M 187 29 374 276"/>
<path stroke-width="0.5" stroke="black" d="M 241 275 254 197"/>
<path stroke-width="0.5" stroke="black" d="M 241 275 279 320"/>
<path stroke-width="0.5" stroke="black" d="M 241 275 187 29"/>
<path stroke-width="0.5" stroke="black" d="M 241 275 216 107"/>
<path stroke-width="0.5" stroke="black" d="M 241 275 198 270"/>
<path stroke-width="0.5" stroke="black" d="M 241 275 53 112"/>
<path stroke-width="0.5" stroke="black" d="M 241 275 326 37"/>
<path stroke-width="0.5" stroke="black" d="M 241 275 223 20"/>
<path stroke-width="0.5" stroke="black" d="M 187 29 26 201"/>
<path stroke-width="0.5" stroke="black" d="M 241 275 20 189"/>
<path stroke-width="8.857142857142858" stroke="black" d="M 187 29 250 286"/>
<path stroke-width="3.2857142857142856" stroke="black" d="M 187 29 230 173"/>
<path stroke-width="0.5" stroke="black" d="M 187 29 141 305"/>
<path stroke-width="0.5" stroke="black" d="M 187 29 218 104"/>
<path stroke-width="4.678571428571429" stroke="black" d="M 187 29 376 84"/>
<path stroke-width="0.5" stroke="black" d="M 187 29 406 192"/>
<path stroke-width="0.5" stroke="black" d="M 187 29 348 290"/>
<path stroke-width="0.5" stroke="black" d="M 187 29 80 271"/>
<path stroke-width="0.5" stroke="black" d="M 241 275 349 89"/>
<path stroke-width="0.5" stroke="black" d="M 254 197 223 20"/>
<path stroke-width="0.5" stroke="black" d="M 254 197 326 37"/>
<path stroke-width="0.5" stroke="black" d="M 254 197 53 112"/>
<path stroke-width="0.5" stroke="black" d="M 420 247 105 83"/>
<path stroke-width="0.5" stroke="black" d="M 420 247 362 189"/>
<path stroke-width="0.5" stroke="black" d="M 420 247 57 102"/>
<path stroke-width="0.5" stroke="black" d="M 420 247 39 215"/>
<path stroke-width="0.5" stroke="black" d="M 420 247 254 197"/>
<path stroke-width="0.5" stroke="black" d="M 420 247 279 320"/>
<path stroke-width="0.5" stroke="black" d="M 420 247 241 275"/>
<path stroke-width="0.5" stroke="black" d="M 420 247 187 29"/>
<path stroke-width="0.5" stroke="black" d="M 420 247 117 183"/>
<path stroke-width="0.5" stroke="black" d="M 420 247 216 107"/>
<path stroke-width="0.5" stroke="black" d="M 420 247 53 112"/>
<path stroke-width="0.5" stroke="black" d="M 420 247 326 37"/>
<path stroke-width="0.5" stroke="black" d="M 420 247 223 20"/>
<path stroke-width="0.5" stroke="black" d="M 420 247 20 189"/>
<path stroke-width="0.5" stroke="black" d="M 420 247 349 89"/>
<path stroke-width="8.857142857142858" stroke="black" d="M 39 215 250 286"/>
<path stroke-width="3.2857142857142856" stroke="black" d="M 39 215 230 173"/>
<path stroke-width="0.5" stroke="black" d="M 39 215 141 305"/>
<path stroke-width="0.5" stroke="black" d="M 420 247 198 270"/>
<path stroke-width="0.5" stroke="black" d="M 39 215 218 104"/>
<path stroke-width="0.5" stroke="black" d="M 420 247 26 201"/>
<path stroke-width="0.5" stroke="black" d="M 420 247 80 271"/>
<path stroke-width="0.5" stroke="black" d="M 57 102 254 197"/>
<path stroke-width="0.5" stroke="black" d="M 57 102 279 320"/>
<path stroke-width="0.5" stroke="black" d="M 57 102 241 275"/>
<path stroke-width="0.5" stroke="black" d="M 57 102 187 29"/>
<path stroke-width="0.5" stroke="black" d="M 57 102 216 107"/>
<path stroke-width="0.5" stroke="black" d="M 57 102 198 270"/>
<path stroke-width="0.5" stroke="black" d="M 57 102 53 112"/>
<path stroke-width="0.5" stroke="black" d="M 57 102 326 37"/>
<path stroke-width="4.678571428571429" stroke="black" d="M 420 247 374 276"/>
<path stroke-width="0.5" stroke="black" d="M 57 102 223 20"/>
<path stroke-width="0.5" stroke="black" d="M 57 102 349 89"/>
<path stroke-width="8.857142857142858" stroke="black" d="M 420 247 250 286"/>
<path stroke-width="3.2857142857142856" stroke="black" d="M 420 247 230 173"/>
<path stroke-width="0.5" stroke="black" d="M 420 247 141 305"/>
<path stroke-width="0.5" stroke="black" d="M 420 247 218 104"/>
<path stroke-width="0.5" stroke="black" d="M 420 247 376 84"/>
<path stroke-width="0.5" stroke="black" d="M 420 247 406 192"/>
<path stroke-width="0.5" stroke="black" d="M 420 247 348 290"/>
<path stroke-width="0.5" stroke="black" d="M 57 102 20 189"/>
<path stroke-width="0.5" stroke="black" d="M 216 107 376 84"/>
<path stroke-width="0.5" stroke="black" d="M 39 215 376 84"/>
<path stroke-width="0.5" stroke="black" d="M 39 215 348 290"/>
<path stroke-width="0.5" stroke="black" d="M 254 197 218 104"/>
<path stroke-width="0.5" stroke="black" d="M 254 197 376 84"/>
<path stroke-width="0.5" stroke="black" d="M 254 197 406 192"/>
<path stroke-width="0.5" stroke="black" d="M 254 197 348 290"/>
<path stroke-width="0.5" stroke="black" d="M 254 197 80 271"/>
<path stroke-width="0.5" stroke="black" d="M 254 197 374 276"/>
<path stroke-width="0.5" stroke="black" d="M 254 197 26 201"/>
<path stroke-width="0.5" stroke="black" d="M 254 197 117 183"/>
<path stroke-width="0.5" stroke="black" d="M 254 197 141 305"/>
<path stroke-width="0.5" stroke="black" d="M 254 197 105 83"/>
<path stroke-width="0.5" stroke="black" d="M 254 197 57 102"/>
<path stroke-width="0.5" stroke="black" d="M 254 197 420 247"/>
<path stroke-width="0.5" stroke="black" d="M 254 197 39 215"/>
<path stroke-width="0.5" stroke="black" d="M 254 197 279 320"/>
<path stroke-width="0.5" stroke="black" d="M 254 197 241 275"/>
<path stroke-width="0.5" stroke="black" d="M 254 197 187 29"/>
<path stroke-width="0.5" stroke="black" d="M 254 197 216 107"/>
<path stroke-width="0.5" stroke="black" d="M 254 197 198 270"/>
<path stroke-width="0.5" stroke="black" d="M 254 197 362 189"/>
<path stroke-width="0.5" stroke="black" d="M 39 215 406 192"/>
<path stroke-width="3.2857142857142856" stroke="black" d="M 254 197 230 173"/>
<path stroke-width="0.5" stroke="black" d="M 39 215 349 89"/>
<path stroke-width="4.678571428571429" stroke="black" d="M 39 215 80 271"/>
<path stroke-width="0.5" stroke="black" d="M 39 215 374 276"/>
<path stroke-width="0.5" stroke="black" d="M 39 215 26 201"/>
<path stroke-width="0.5" stroke="black" d="M 39 215 117 183"/>
<path stroke-width="0.5" stroke="black" d="M 39 215 105 83"/>
<path stroke-width="0.5" stroke="black" d="M 39 215 362 189"/>
<path stroke-width="0.5" stroke="black" d="M 39 215 57 102"/>
<path stroke-width="0.5" stroke="black" d="M 39 215 420 247"/>
<path stroke-width="8.857142857142858" stroke="black" d="M 254 197 250 286"/>
<path stroke-width="0.5" stroke="black" d="M 39 215 254 197"/>
<path stroke-width="0.5" stroke="black" d="M 39 215 241 275"/>
<path stroke-width="0.5" stroke="black" d="M 39 215 187 29"/>
<path stroke-width="0.5" stroke="black" d="M 39 215 216 107"/>
<path stroke-width="0.5" stroke="black" d="M 39 215 198 270"/>
<path stroke-width="0.5" stroke="black" d="M 39 215 53 112"/>
<path stroke-width="0.5" stroke="black" d="M 39 215 326 37"/>
<path stroke-width="0.5" stroke="black" d="M 39 215 223 20"/>
<path stroke-width="0.5" stroke="black" d="M 39 215 20 189"/>
<path stroke-width="0.5" stroke="black" d="M 39 215 279 320"/>
<path stroke-width="0.5" stroke="black" d="M 216 107 406 192"/>
<path stroke-width="0.5" stroke="black" d="M 216 107 348 290"/>
<path stroke-width="0.5" stroke="black" d="M 216 107 80 271"/>
<path stroke-width="0.5" stroke="black" d="M 223 20 420 247"/>
<path stroke-width="0.5" stroke="black" d="M 223 20 39 215"/>
<path stroke-width="0.5" stroke="black" d="M 223 20 254 197"/>
<path stroke-width="0.5" stroke="black" d="M 223 20 279 320"/>
<path stroke-width="0.5" stroke="black" d="M 223 20 241 275"/>
<path stroke-width="0.5" stroke="black" d="M 223 20 187 29"/>
<path stroke-width="0.5" stroke="black" d="M 223 20 216 107"/>
<path stroke-width="0.5" stroke="black" d="M 223 20 198 270"/>
<path stroke-width="0.5" stroke="black" d="M 223 20 57 102"/>
<path stroke-width="0.5" stroke="black" d="M 223 20 53 112"/>
<path stroke-width="0.5" stroke="black" d="M 223 20 20 189"/>
<path stroke-width="0.5" stroke="black" d="M 223 20 349 89"/>
<path stroke-width="8.857142857142858" stroke="black" d="M 20 189 250 286"/>
<path stroke-width="3.2857142857142856" stroke="black" d="M 20 189 230 173"/>
<path stroke-width="0.5" stroke="black" d="M 20 189 141 305"/>
<path stroke-width="0.5" stroke="black" d="M 20 189 218 104"/>
<path stroke-width="0.5" stroke="black" d="M 20 189 376 84"/>
<path stroke-width="0.5" stroke="black" d="M 20 189 406 192"/>
<path stroke-width="0.5" stroke="black" d="M 223 20 326 37"/>
<path stroke-width="0.5" stroke="black" d="M 20 189 348 290"/>
<path stroke-width="0.5" stroke="black" d="M 223 20 362 189"/>
<path stroke-width="0.5" stroke="black" d="M 223 20 117 183"/>
<path stroke-width="0.5" stroke="black" d="M 326 37 241 275"/>
<path stroke-width="0.5" stroke="black" d="M 326 37 187 29"/>
<path stroke-width="0.5" stroke="black" d="M 326 37 216 107"/>
<path stroke-width="0.5" stroke="black" d="M 326 37 198 270"/>
<path stroke-width="0.5" stroke="black" d="M 326 37 53 112"/>
<path stroke-width="0.5" stroke="black" d="M 326 37 223 20"/>
<path stroke-width="0.5" stroke="black" d="M 326 37 20 189"/>
<path stroke-width="0.5" stroke="black" d="M 326 37 349 89"/>
<path stroke-width="0.5" stroke="black" d="M 223 20 105 83"/>
<path stroke-width="7.464285714285714" stroke="black" d="M 223 20 250 286"/>
<path stroke-width="0.5" stroke="black" d="M 223 20 141 305"/>
<path stroke-width="0.5" stroke="black" d="M 223 20 218 104"/>
<path stroke-width="0.5" stroke="black" d="M 223 20 376 84"/>
<path stroke-width="0.5" stroke="black" d="M 223 20 406 192"/>
<path stroke-width="0.5" stroke="black" d="M 223 20 348 290"/>
<path stroke-width="0.5" stroke="black" d="M 223 20 80 271"/>
<path stroke-width="0.5" stroke="black" d="M 223 20 374 276"/>
<path stroke-width="0.5" stroke="black" d="M 223 20 26 201"/>
<path stroke-width="3.2857142857142856" stroke="black" d="M 223 20 230 173"/>
<path stroke-width="0.5" stroke="black" d="M 326 37 279 320"/>
<path stroke-width="0.5" stroke="black" d="M 20 189 80 271"/>
<path stroke-width="4.678571428571429" stroke="black" d="M 20 189 26 201"/>
<path stroke-width="0.5" stroke="black" d="M 349 89 348 290"/>
<path stroke-width="0.5" stroke="black" d="M 349 89 80 271"/>
<path stroke-width="0.5" stroke="black" d="M 349 89 374 276"/>
<path stroke-width="0.5" stroke="black" d="M 349 89 26 201"/>
<path stroke-width="0.5" stroke="black" d="M 349 89 117 183"/>
<path stroke-width="0.5" stroke="black" d="M 349 89 105 83"/>
<path stroke-width="0.5" stroke="black" d="M 349 89 362 189"/>
<path stroke-width="0.5" stroke="black" d="M 349 89 57 102"/>
<path stroke-width="0.5" stroke="black" d="M 349 89 406 192"/>
<path stroke-width="0.5" stroke="black" d="M 349 89 420 247"/>
<path stroke-width="4.678571428571429" stroke="black" d="M 349 89 254 197"/>
<path stroke-width="0.5" stroke="black" d="M 349 89 279 320"/>
<path stroke-width="0.5" stroke="black" d="M 349 89 241 275"/>
<path stroke-width="0.5" stroke="black" d="M 349 89 187 29"/>
<path stroke-width="0.5" stroke="black" d="M 349 89 216 107"/>
<path stroke-width="0.5" stroke="black" d="M 349 89 198 270"/>
<path stroke-width="0.5" stroke="black" d="M 349 89 53 112"/>
<path stroke-width="0.5" stroke="black" d="M 349 89 326 37"/>
<path stroke-width="0.5" stroke="black" d="M 349 89 39 215"/>
<path stroke-width="0.5" stroke="black" d="M 20 189 374 276"/>
<path stroke-width="0.5" stroke="black" d="M 349 89 376 84"/>
<path stroke-width="0.5" stroke="black" d="M 349 89 141 305"/>
<path stroke-width="0.5" stroke="black" d="M 20 189 117 183"/>
<path stroke-width="0.5" stroke="black" d="M 20 189 105 83"/>
<path stroke-width="0.5" stroke="black" d="M 20 189 362 189"/>
<path stroke-width="0.5" stroke="black" d="M 20 189 57 102"/>
<path stroke-width="0.5" stroke="black" d="M 20 189 420 247"/>
<path stroke-width="0.5" stroke="black" d="M 20 189 39 215"/>
<path stroke-width="0.5" stroke="black" d="M 20 189 254 197"/>
<path stroke-width="0.5" stroke="black" d="M 20 189 279 320"/>
<path stroke-width="0.5" stroke="black" d="M 349 89 218 104"/>
<path stroke-width="0.5" stroke="black" d="M 20 189 241 275"/>
<path stroke-width="0.5" stroke="black" d="M 20 189 216 107"/>
<path stroke-width="0.5" stroke="black" d="M 20 189 198 270"/>
<path stroke-width="0.5" stroke="black" d="M 20 189 53 112"/>
<path stroke-width="0.5" stroke="black" d="M 20 189 326 37"/>
<path stroke-width="0.5" stroke="black" d="M 20 189 223 20"/>
<path stroke-width="0.5" stroke="black" d="M 20 189 349 89"/>
<path stroke-width="8.857142857142858" stroke="black" d="M 349 89 250 286"/>
<path stroke-width="3.2857142857142856" stroke="black" d="M 349 89 230 173"/>
<path stroke-width="0.5" stroke="black" d="M 20 189 187 29"/>
<path stroke-width="0.5" stroke="black" d="M 57 102 39 215"/>
<path stroke-width="0.5" stroke="black" d="M 326 37 254 197"/>
<path stroke-width="0.5" stroke="black" d="M 326 37 420 247"/>
<path stroke-width="0.5" stroke="black" d="M 198 270 376 84"/>
<path stroke-width="0.5" stroke="black" d="M 198 270 406 192"/>
<path stroke-width="0.5" stroke="black" d="M 198 270 348 290"/>
<path stroke-width="0.5" stroke="black" d="M 198 270 80 271"/>
<path stroke-width="0.5" stroke="black" d="M 198 270 374 276"/>
<path stroke-width="0.5" stroke="black" d="M 198 270 26 201"/>
<path stroke-width="0.5" stroke="black" d="M 198 270 117 183"/>
<path stroke-width="0.5" stroke="black" d="M 198 270 105 83"/>
<path stroke-width="0.5" stroke="black" d="M 198 270 218 104"/>
<path stroke-width="0.5" stroke="black" d="M 198 270 362 189"/>
<path stroke-width="0.5" stroke="black" d="M 198 270 420 247"/>
<path stroke-width="0.5" stroke="black" d="M 198 270 39 215"/>
<path stroke-width="0.5" stroke="black" d="M 198 270 254 197"/>
<path stroke-width="0.5" stroke="black" d="M 198 270 279 320"/>
<path stroke-width="0.5" stroke="black" d="M 198 270 241 275"/>
<path stroke-width="0.5" stroke="black" d="M 198 270 187 29"/>
<path stroke-width="0.5" stroke="black" d="M 198 270 216 107"/>
<path stroke-width="0.5" stroke="black" d="M 198 270 53 112"/>
<path stroke-width="0.5" stroke="black" d="M 198 270 57 102"/>
<path stroke-width="0.5" stroke="black" d="M 198 270 326 37"/>
<path stroke-width="0.5" stroke="black" d="M 198 270 141 305"/>
<path stroke-width="13.035714285714286" stroke="black" d="M 198 270 250 286"/>
<path stroke-width="0.5" stroke="black" d="M 216 107 374 276"/>
<path stroke-width="0.5" stroke="black" d="M 216 107 26 201"/>
<path stroke-width="0.5" stroke="black" d="M 216 107 117 183"/>
<path stroke-width="0.5" stroke="black" d="M 216 107 105 83"/>
<path stroke-width="0.5" stroke="black" d="M 216 107 362 189"/>
<path stroke-width="0.5" stroke="black" d="M 216 107 57 102"/>
<path stroke-width="0.5" stroke="black" d="M 216 107 420 247"/>
<path stroke-width="0.5" stroke="black" d="M 216 107 39 215"/>
<path stroke-width="3.2857142857142856" stroke="black" d="M 198 270 230 173"/>
<path stroke-width="0.5" stroke="black" d="M 216 107 254 197"/>
<path stroke-width="0.5" stroke="black" d="M 216 107 241 275"/>
<path stroke-width="0.5" stroke="black" d="M 216 107 187 29"/>
<path stroke-width="0.5" stroke="black" d="M 216 107 198 270"/>
<path stroke-width="0.5" stroke="black" d="M 216 107 53 112"/>
<path stroke-width="0.5" stroke="black" d="M 216 107 326 37"/>
<path stroke-width="0.5" stroke="black" d="M 216 107 223 20"/>
<path stroke-width="0.5" stroke="black" d="M 216 107 20 189"/>
<path stroke-width="0.5" stroke="black" d="M 216 107 349 89"/>
<path stroke-width="0.5" stroke="black" d="M 216 107 279 320"/>
<path stroke-width="0.5" stroke="black" d="M 326 37 39 215"/>
<path stroke-width="0.5" stroke="black" d="M 198 270 223 20"/>
<path stroke-width="0.5" stroke="black" d="M 198 270 349 89"/>
<path stroke-width="0.5" stroke="black" d="M 53 112 326 37"/>
<path stroke-width="0.5" stroke="black" d="M 53 112 223 20"/>
<path stroke-width="0.5" stroke="black" d="M 53 112 20 189"/>
<path stroke-width="0.5" stroke="black" d="M 53 112 349 89"/>
<path stroke-width="6.071428571428571" stroke="black" d="M 326 37 250 286"/>
<path stroke-width="7.464285714285714" stroke="black" d="M 326 37 230 173"/>
<path stroke-width="0.5" stroke="black" d="M 326 37 141 305"/>
<path stroke-width="0.5" stroke="black" d="M 326 37 218 104"/>
<path stroke-width="0.5" stroke="black" d="M 53 112 198 270"/>
<path stroke-width="0.5" stroke="black" d="M 326 37 376 84"/>
<path stroke-width="0.5" stroke="black" d="M 326 37 348 290"/>
<path stroke-width="0.5" stroke="black" d="M 326 37 80 271"/>
<path stroke-width="0.5" stroke="black" d="M 326 37 374 276"/>
<path stroke-width="0.5" stroke="black" d="M 326 37 26 201"/>
<path stroke-width="0.5" stroke="black" d="M 326 37 117 183"/>
<path stroke-width="0.5" stroke="black" d="M 326 37 105 83"/>
<path stroke-width="0.5" stroke="black" d="M 326 37 362 189"/>
<path stroke-width="0.5" stroke="black" d="M 326 37 57 102"/>
<path stroke-width="0.5" stroke="black" d="M 326 37 406 192"/>
<path stroke-width="0.5" stroke="black" d="M 198 270 20 189"/>
<path stroke-width="0.5" stroke="black" d="M 53 112 216 107"/>
<path stroke-width="0.5" stroke="black" d="M 53 112 241 275"/>
<path stroke-width="8.857142857142858" stroke="black" d="M 53 112 250 286"/>
<path stroke-width="7.464285714285714" stroke="black" d="M 53 112 230 173"/>
<path stroke-width="0.5" stroke="black" d="M 53 112 141 305"/>
<path stroke-width="0.5" stroke="black" d="M 53 112 218 104"/>
<path stroke-width="0.5" stroke="black" d="M 53 112 376 84"/>
<path stroke-width="0.5" stroke="black" d="M 53 112 406 192"/>
<path stroke-width="0.5" stroke="black" d="M 53 112 348 290"/>
<path stroke-width="0.5" stroke="black" d="M 53 112 80 271"/>
<path stroke-width="0.5" stroke="black" d="M 53 112 187 29"/>
<path stroke-width="0.5" stroke="black" d="M 53 112 374 276"/>
<path stroke-width="0.5" stroke="black" d="M 53 112 117 183"/>
<path stroke-width="0.5" stroke="black" d="M 53 112 105 83"/>
<path stroke-width="0.5" stroke="black" d="M 53 112 362 189"/>
<path stroke-width="0.5" stroke="black" d="M 53 112 57 102"/>
<path stroke-width="0.5" stroke="black" d="M 53 112 420 247"/>
<path stroke-width="0.5" stroke="black" d="M 53 112 39 215"/>
<path stroke-width="0.5" stroke="black" d="M 53 112 254 197"/>
<path stroke-width="0.5" stroke="black" d="M 53 112 279 320"/>
<path stroke-width="0.5" stroke="black" d="M 53 112 26 201"/>
<path stroke-width="0.5" stroke="black" d="M 57 102 420 247"/>
<path stroke-width="0.5" stroke="black" d="M 57 102 362 189"/>
<path stroke-width="0.5" stroke="black" d="M 57 102 105 83"/>
<path stroke-width="0.5" stroke="black" d="M 376 84 374 276"/>
<path stroke-width="0.5" stroke="black" d="M 376 84 26 201"/>
<path stroke-width="0.5" stroke="black" d="M 376 84 117 183"/>
<path stroke-width="0.5" stroke="black" d="M 376 84 105 83"/>
<path stroke-width="0.5" stroke="black" d="M 376 84 362 189"/>
<path stroke-width="0.5" stroke="black" d="M 376 84 57 102"/>
<path stroke-width="0.5" stroke="black" d="M 376 84 420 247"/>
<path stroke-width="0.5" stroke="black" d="M 376 84 39 215"/>
<path stroke-width="0.5" stroke="black" d="M 376 84 80 271"/>
<path stroke-width="0.5" stroke="black" d="M 376 84 254 197"/>
<path stroke-width="0.5" stroke="black" d="M 376 84 241 275"/>
<path stroke-width="4.678571428571429" stroke="black" d="M 376 84 187 29"/>
<path stroke-width="0.5" stroke="black" d="M 376 84 216 107"/>
<path stroke-width="0.5" stroke="black" d="M 376 84 198 270"/>
<path stroke-width="0.5" stroke="black" d="M 376 84 53 112"/>
<path stroke-width="0.5" stroke="black" d="M 376 84 326 37"/>
<path stroke-width="0.5" stroke="black" d="M 376 84 223 20"/>
<path stroke-width="0.5" stroke="black" d="M 376 84 20 189"/>
<path stroke-width="0.5" stroke="black" d="M 376 84 279 320"/>
<path stroke-width="0.5" stroke="black" d="M 376 84 349 89"/>
<path stroke-width="0.5" stroke="black" d="M 376 84 348 290"/>
<path stroke-width="0.5" stroke="black" d="M 376 84 218 104"/>
<path stroke-width="0.5" stroke="black" d="M 218 104 362 189"/>
<path stroke-width="0.5" stroke="black" d="M 218 104 57 102"/>
<path stroke-width="0.5" stroke="black" d="M 218 104 420 247"/>
<path stroke-width="0.5" stroke="black" d="M 218 104 39 215"/>
<path stroke-width="0.5" stroke="black" d="M 218 104 254 197"/>
<path stroke-width="0.5" stroke="black" d="M 218 104 279 320"/>
<path stroke-width="0.5" stroke="black" d="M 218 104 241 275"/>
<path stroke-width="0.5" stroke="black" d="M 218 104 187 29"/>
<path stroke-width="0.5" stroke="black" d="M 376 84 406 192"/>
<path stroke-width="4.678571428571429" stroke="black" d="M 218 104 216 107"/>
<path stroke-width="0.5" stroke="black" d="M 218 104 53 112"/>
<path stroke-width="0.5" stroke="black" d="M 218 104 326 37"/>
<path stroke-width="0.5" stroke="black" d="M 218 104 223 20"/>
<path stroke-width="0.5" stroke="black" d="M 218 104 20 189"/>
<path stroke-width="0.5" stroke="black" d="M 218 104 349 89"/>
<path stroke-width="8.857142857142858" stroke="black" d="M 376 84 250 286"/>
<path stroke-width="3.2857142857142856" stroke="black" d="M 376 84 230 173"/>
<path stroke-width="0.5" stroke="black" d="M 376 84 141 305"/>
<path stroke-width="0.5" stroke="black" d="M 218 104 198 270"/>
<path stroke-width="0.5" stroke="black" d="M 218 104 105 83"/>
<path stroke-width="8.857142857142858" stroke="black" d="M 406 192 250 286"/>
<path stroke-width="0.5" stroke="black" d="M 406 192 141 305"/>
<path stroke-width="0.5" stroke="black" d="M 406 192 349 89"/>
<path stroke-width="8.857142857142858" stroke="black" d="M 348 290 250 286"/>
<path stroke-width="3.2857142857142856" stroke="black" d="M 348 290 230 173"/>
<path stroke-width="0.5" stroke="black" d="M 348 290 141 305"/>
<path stroke-width="0.5" stroke="black" d="M 348 290 218 104"/>
<path stroke-width="0.5" stroke="black" d="M 348 290 376 84"/>
<path stroke-width="0.5" stroke="black" d="M 348 290 406 192"/>
<path stroke-width="0.5" stroke="black" d="M 348 290 80 271"/>
<path stroke-width="0.5" stroke="black" d="M 406 192 20 189"/>
<path stroke-width="0.5" stroke="black" d="M 348 290 374 276"/>
<path stroke-width="0.5" stroke="black" d="M 348 290 117 183"/>
<path stroke-width="0.5" stroke="black" d="M 348 290 105 83"/>
<path stroke-width="0.5" stroke="black" d="M 348 290 362 189"/>
<path stroke-width="0.5" stroke="black" d="M 348 290 57 102"/>
<path stroke-width="0.5" stroke="black" d="M 348 290 420 247"/>
<path stroke-width="0.5" stroke="black" d="M 348 290 39 215"/>
<path stroke-width="0.5" stroke="black" d="M 348 290 254 197"/>
<path stroke-width="4.678571428571429" stroke="black" d="M 348 290 279 320"/>
<path stroke-width="0.5" stroke="black" d="M 348 290 26 201"/>
<path stroke-width="3.2857142857142856" stroke="black" d="M 406 192 230 173"/>
<path stroke-width="0.5" stroke="black" d="M 406 192 223 20"/>
<path stroke-width="0.5" stroke="black" d="M 406 192 53 112"/>
<path stroke-width="0.5" stroke="black" d="M 406 192 218 104"/>
<path stroke-width="0.5" stroke="black" d="M 406 192 376 84"/>
<path stroke-width="0.5" stroke="black" d="M 406 192 348 290"/>
<path stroke-width="0.5" stroke="black" d="M 406 192 80 271"/>
<path stroke-width="0.5" stroke="black" d="M 406 192 374 276"/>
<path stroke-width="0.5" stroke="black" d="M 406 192 26 201"/>
<path stroke-width="0.5" stroke="black" d="M 406 192 117 183"/>
<path stroke-width="0.5" stroke="black" d="M 406 192 105 83"/>
<path stroke-width="0.5" stroke="black" d="M 406 192 326 37"/>
<path stroke-width="0.5" stroke="black" d="M 406 192 362 189"/>
<path stroke-width="0.5" stroke="black" d="M 406 192 420 247"/>
<path stroke-width="0.5" stroke="black" d="M 406 192 39 215"/>
<path stroke-width="0.5" stroke="black" d="M 406 192 254 197"/>
<path stroke-width="0.5" stroke="black" d="M 406 192 279 320"/>
<path stroke-width="4.678571428571429" stroke="black" d="M 406 192 241 275"/>
<path stroke-width="0.5" stroke="black" d="M 406 192 187 29"/>
<path stroke-width="0.5" stroke="black" d="M 406 192 216 107"/>
<path stroke-width="0.5" stroke="black" d="M 406 192 198 270"/>
<path stroke-width="0.5" stroke="black" d="M 406 192 57 102"/>
<path stroke-width="0.5" stroke="black" d="M 348 290 241 275"/>
<path stroke-width="0.5" stroke="black" d="M 218 104 117 183"/>
<path stroke-width="0.5" stroke="black" d="M 218 104 374 276"/>
<path stroke-width="7.464285714285714" stroke="black" d="M 250 286 223 20"/>
<path stroke-width="8.857142857142858" stroke="black" d="M 250 286 20 189"/>
<path stroke-width="8.857142857142858" stroke="black" d="M 250 286 349 89"/>
<path stroke-width="20.0" stroke="black" d="M 230 173 250 286"/>
<path stroke-width="0.5" stroke="black" d="M 230 173 141 305"/>
<path stroke-width="3.2857142857142856" stroke="black" d="M 230 173 218 104"/>
<path stroke-width="3.2857142857142856" stroke="black" d="M 230 173 376 84"/>
<path stroke-width="3.2857142857142856" stroke="black" d="M 230 173 406 192"/>
<path stroke-width="6.071428571428571" stroke="black" d="M 250 286 326 37"/>
<path stroke-width="3.2857142857142856" stroke="black" d="M 230 173 348 290"/>
<path stroke-width="3.2857142857142856" stroke="black" d="M 230 173 374 276"/>
<path stroke-width="3.2857142857142856" stroke="black" d="M 230 173 26 201"/>
<path stroke-width="3.2857142857142856" stroke="black" d="M 230 173 117 183"/>
<path stroke-width="3.2857142857142856" stroke="black" d="M 230 173 105 83"/>
<path stroke-width="3.2857142857142856" stroke="black" d="M 230 173 362 189"/>
<path stroke-width="3.2857142857142856" stroke="black" d="M 230 173 57 102"/>
<path stroke-width="3.2857142857142856" stroke="black" d="M 230 173 420 247"/>
<path stroke-width="3.2857142857142856" stroke="black" d="M 230 173 39 215"/>
<path stroke-width="3.2857142857142856" stroke="black" d="M 230 173 80 271"/>
<path stroke-width="3.2857142857142856" stroke="black" d="M 230 173 254 197"/>
<path stroke-width="8.857142857142858" stroke="black" d="M 250 286 53 112"/>
<path stroke-width="8.857142857142858" stroke="black" d="M 250 286 216 107"/>
<path stroke-width="7.464285714285714" stroke="black" d="M 250 286 141 305"/>
<path stroke-width="8.857142857142858" stroke="black" d="M 250 286 218 104"/>
<path stroke-width="8.857142857142858" stroke="black" d="M 250 286 376 84"/>
<path stroke-width="8.857142857142858" stroke="black" d="M 250 286 406 192"/>
<path stroke-width="8.857142857142858" stroke="black" d="M 250 286 348 290"/>
<path stroke-width="8.857142857142858" stroke="black" d="M 250 286 80 271"/>
<path stroke-width="8.857142857142858" stroke="black" d="M 250 286 374 276"/>
<path stroke-width="8.857142857142858" stroke="black" d="M 250 286 26 201"/>
<path stroke-width="13.035714285714286" stroke="black" d="M 250 286 198 270"/>
<path stroke-width="8.857142857142858" stroke="black" d="M 250 286 117 183"/>
<path stroke-width="8.857142857142858" stroke="black" d="M 250 286 362 189"/>
<path stroke-width="8.857142857142858" stroke="black" d="M 250 286 57 102"/>
<path stroke-width="8.857142857142858" stroke="black" d="M 250 286 420 247"/>
<path stroke-width="8.857142857142858" stroke="black" d="M 250 286 39 215"/>
<path stroke-width="8.857142857142858" stroke="black" d="M 250 286 254 197"/>
<path stroke-width="8.857142857142858" stroke="black" d="M 250 286 279 320"/>
<path stroke-width="8.857142857142858" stroke="black" d="M 250 286 241 275"/>
<path stroke-width="8.857142857142858" stroke="black" d="M 250 286 187 29"/>
<path stroke-width="8.857142857142858" stroke="black" d="M 250 286 105 83"/>
<path stroke-width="0.5" stroke="black" d="M 218 104 26 201"/>
<path stroke-width="3.2857142857142856" stroke="black" d="M 230 173 279 320"/>
<path stroke-width="3.2857142857142856" stroke="black" d="M 230 173 187 29"/>
<path stroke-width="0.5" stroke="black" d="M 141 305 254 197"/>
<path stroke-width="0.5" stroke="black" d="M 141 305 279 320"/>
<path stroke-width="0.5" stroke="black" d="M 141 305 241 275"/>
<path stroke-width="0.5" stroke="black" d="M 141 305 187 29"/>
<path stroke-width="0.5" stroke="black" d="M 141 305 216 107"/>
<path stroke-width="0.5" stroke="black" d="M 141 305 198 270"/>
<path stroke-width="0.5" stroke="black" d="M 141 305 53 112"/>
<path stroke-width="0.5" stroke="black" d="M 141 305 326 37"/>
<path stroke-width="0.5" stroke="black" d="M 141 305 39 215"/>
<path stroke-width="0.5" stroke="black" d="M 141 305 223 20"/>
<path stroke-width="0.5" stroke="black" d="M 141 305 349 89"/>
<path stroke-width="8.857142857142858" stroke="black" d="M 218 104 250 286"/>
<path stroke-width="3.2857142857142856" stroke="black" d="M 218 104 230 173"/>
<path stroke-width="0.5" stroke="black" d="M 218 104 141 305"/>
<path stroke-width="0.5" stroke="black" d="M 218 104 376 84"/>
<path stroke-width="0.5" stroke="black" d="M 218 104 406 192"/>
<path stroke-width="0.5" stroke="black" d="M 218 104 348 290"/>
<path stroke-width="0.5" stroke="black" d="M 218 104 80 271"/>
<path stroke-width="0.5" stroke="black" d="M 141 305 20 189"/>
<path stroke-width="3.2857142857142856" stroke="black" d="M 230 173 241 275"/>
<path stroke-width="0.5" stroke="black" d="M 141 305 420 247"/>
<path stroke-width="0.5" stroke="black" d="M 141 305 362 189"/>
<path stroke-width="3.2857142857142856" stroke="black" d="M 230 173 216 107"/>
<path stroke-width="3.2857142857142856" stroke="black" d="M 230 173 198 270"/>
<path stroke-width="7.464285714285714" stroke="black" d="M 230 173 53 112"/>
<path stroke-width="7.464285714285714" stroke="black" d="M 230 173 326 37"/>
<path stroke-width="3.2857142857142856" stroke="black" d="M 230 173 223 20"/>
<path stroke-width="3.2857142857142856" stroke="black" d="M 230 173 20 189"/>
<path stroke-width="3.2857142857142856" stroke="black" d="M 230 173 349 89"/>
<path stroke-width="7.464285714285714" stroke="black" d="M 141 305 250 286"/>
<path stroke-width="0.5" stroke="black" d="M 141 305 57 102"/>
<path stroke-width="0.5" stroke="black" d="M 141 305 230 173"/>
<path stroke-width="0.5" stroke="black" d="M 141 305 376 84"/>
<path stroke-width="0.5" stroke="black" d="M 141 305 406 192"/>
<path stroke-width="0.5" stroke="black" d="M 141 305 348 290"/>
<path stroke-width="0.5" stroke="black" d="M 141 305 80 271"/>
<path stroke-width="0.5" stroke="black" d="M 141 305 374 276"/>
<path stroke-width="0.5" stroke="black" d="M 141 305 26 201"/>
<path stroke-width="0.5" stroke="black" d="M 141 305 117 183"/>
<path stroke-width="0.5" stroke="black" d="M 141 305 105 83"/>
<path stroke-width="0.5" stroke="black" d="M 141 305 218 104"/>
<path stroke-width="0.5" stroke="black" d="M 349 89 223 20"/>
<path stroke-width="0.5" stroke="black" d="M 348 290 187 29"/>
<path stroke-width="0.5" stroke="black" d="M 348 290 198 270"/>
<path stroke-width="3.2857142857142856" stroke="black" d="M 105 83 230 173"/>
<path stroke-width="0.5" stroke="black" d="M 105 83 141 305"/>
<path stroke-width="0.5" stroke="black" d="M 105 83 218 104"/>
<path stroke-width="0.5" stroke="black" d="M 105 83 376 84"/>
<path stroke-width="0.5" stroke="black" d="M 105 83 406 192"/>
<path stroke-width="0.5" stroke="black" d="M 105 83 348 290"/>
<path stroke-width="0.5" stroke="black" d="M 105 83 80 271"/>
<path stroke-width="0.5" stroke="black" d="M 105 83 374 276"/>
<path stroke-width="8.857142857142858" stroke="black" d="M 105 83 250 286"/>
<path stroke-width="0.5" stroke="black" d="M 105 83 26 201"/>
<path stroke-width="4.678571428571429" stroke="black" d="M 105 83 362 189"/>
<path stroke-width="0.5" stroke="black" d="M 105 83 57 102"/>
<path stroke-width="0.5" stroke="black" d="M 105 83 420 247"/>
<path stroke-width="0.5" stroke="black" d="M 105 83 39 215"/>
<path stroke-width="0.5" stroke="black" d="M 105 83 254 197"/>
<path stroke-width="0.5" stroke="black" d="M 105 83 279 320"/>
<path stroke-width="0.5" stroke="black" d="M 105 83 241 275"/>
<path stroke-width="0.5" stroke="black" d="M 105 83 187 29"/>
<path stroke-width="0.5" stroke="black" d="M 105 83 117 183"/>
<path stroke-width="0.5" stroke="black" d="M 105 83 216 107"/>
<path stroke-width="0.5" stroke="black" d="M 117 183 349 89"/>
<path stroke-width="0.5" stroke="black" d="M 117 183 223 20"/>
<path stroke-width="0.5" stroke="black" d="M 117 183 406 192"/>
<path stroke-width="0.5" stroke="black" d="M 117 183 348 290"/>
<path stroke-width="0.5" stroke="black" d="M 117 183 80 271"/>
<path stroke-width="0.5" stroke="black" d="M 117 183 374 276"/>
<path stroke-width="0.5" stroke="black" d="M 117 183 26 201"/>
<path stroke-width="0.5" stroke="black" d="M 117 183 105 83"/>
<path stroke-width="0.5" stroke="black" d="M 117 183 362 189"/>
<path stroke-width="4.678571428571429" stroke="black" d="M 117 183 57 102"/>
<path stroke-width="0.5" stroke="black" d="M 117 183 20 189"/>
<path stroke-width="0.5" stroke="black" d="M 117 183 420 247"/>
<path stroke-width="0.5" stroke="black" d="M 117 183 254 197"/>
<path stroke-width="0.5" stroke="black" d="M 117 183 279 320"/>
<path stroke-width="0.5" stroke="black" d="M 117 183 241 275"/>
<path stroke-width="0.5" stroke="black" d="M 117 183 187 29"/>
<path stroke-width="0.5" stroke="black" d="M 117 183 216 107"/>
<path stroke-width="0.5" stroke="black" d="M 117 183 198 270"/>
<path stroke-width="0.5" stroke="black" d="M 117 183 53 112"/>
<path stroke-width="0.5" stroke="black" d="M 117 183 326 37"/>
<path stroke-width="0.5" stroke="black" d="M 117 183 39 215"/>
<path stroke-width="0.5" stroke="black" d="M 117 183 376 84"/>
<path stroke-width="0.5" stroke="black" d="M 105 83 198 270"/>
<path stroke-width="0.5" stroke="black" d="M 105 83 326 37"/>
<path stroke-width="0.5" stroke="black" d="M 362 189 216 107"/>
<path stroke-width="0.5" stroke="black" d="M 362 189 198 270"/>
<path stroke-width="0.5" stroke="black" d="M 362 189 53 112"/>
<path stroke-width="0.5" stroke="black" d="M 362 189 326 37"/>
<path stroke-width="0.5" stroke="black" d="M 362 189 223 20"/>
<path stroke-width="0.5" stroke="black" d="M 362 189 20 189"/>
<path stroke-width="0.5" stroke="black" d="M 362 189 349 89"/>
<path stroke-width="8.857142857142858" stroke="black" d="M 57 102 250 286"/>
<path stroke-width="0.5" stroke="black" d="M 362 189 187 29"/>
<path stroke-width="3.2857142857142856" stroke="black" d="M 57 102 230 173"/>
<path stroke-width="0.5" stroke="black" d="M 57 102 218 104"/>
<path stroke-width="0.5" stroke="black" d="M 57 102 376 84"/>
<path stroke-width="0.5" stroke="black" d="M 57 102 406 192"/>
<path stroke-width="0.5" stroke="black" d="M 57 102 348 290"/>
<path stroke-width="0.5" stroke="black" d="M 57 102 80 271"/>
<path stroke-width="0.5" stroke="black" d="M 57 102 374 276"/>
<path stroke-width="0.5" stroke="black" d="M 57 102 26 201"/>
<path stroke-width="4.678571428571429" stroke="black" d="M 57 102 117 183"/>
<path stroke-width="0.5" stroke="black" d="M 57 102 141 305"/>
<path stroke-width="0.5" stroke="black" d="M 105 83 53 112"/>
<path stroke-width="0.5" stroke="black" d="M 362 189 241 275"/>
<path stroke-width="0.5" stroke="black" d="M 362 189 254 197"/>
<path stroke-width="0.5" stroke="black" d="M 105 83 223 20"/>
<path stroke-width="0.5" stroke="black" d="M 105 83 20 189"/>
<path stroke-width="0.5" stroke="black" d="M 105 83 349 89"/>
<path stroke-width="8.857142857142858" stroke="black" d="M 362 189 250 286"/>
<path stroke-width="3.2857142857142856" stroke="black" d="M 362 189 230 173"/>
<path stroke-width="0.5" stroke="black" d="M 362 189 141 305"/>
<path stroke-width="0.5" stroke="black" d="M 362 189 218 104"/>
<path stroke-width="0.5" stroke="black" d="M 362 189 376 84"/>
<path stroke-width="0.5" stroke="black" d="M 362 189 279 320"/>
<path stroke-width="0.5" stroke="black" d="M 362 189 406 192"/>
<path stroke-width="0.5" stroke="black" d="M 362 189 80 271"/>
<path stroke-width="0.5" stroke="black" d="M 362 189 374 276"/>
<path stroke-width="0.5" stroke="black" d="M 362 189 26 201"/>
<path stroke-width="0.5" stroke="black" d="M 362 189 117 183"/>
<path stroke-width="4.678571428571429" stroke="black" d="M 362 189 105 83"/>
<path stroke-width="0.5" stroke="black" d="M 362 189 57 102"/>
<path stroke-width="0.5" stroke="black" d="M 362 189 420 247"/>
<path stroke-width="0.5" stroke="black" d="M 362 189 39 215"/>
<path stroke-width="0.5" stroke="black" d="M 362 189 348 290"/>
<path stroke-width="0.5" stroke="black" d="M 348 290 216 107"/>
<path stroke-width="0.5" stroke="black" d="M 117 183 218 104"/>
<path stroke-width="3.2857142857142856" stroke="black" d="M 117 183 230 173"/>
<path stroke-width="0.5" stroke="black" d="M 80 271 241 275"/>
<path stroke-width="0.5" stroke="black" d="M 80 271 187 29"/>
<path stroke-width="0.5" stroke="black" d="M 80 271 216 107"/>
<path stroke-width="0.5" stroke="black" d="M 80 271 198 270"/>
<path stroke-width="0.5" stroke="black" d="M 80 271 53 112"/>
<path stroke-width="0.5" stroke="black" d="M 80 271 326 37"/>
<path stroke-width="0.5" stroke="black" d="M 80 271 223 20"/>
<path stroke-width="0.5" stroke="black" d="M 80 271 20 189"/>
<path stroke-width="0.5" stroke="black" d="M 80 271 279 320"/>
<path stroke-width="0.5" stroke="black" d="M 80 271 349 89"/>
<path stroke-width="3.2857142857142856" stroke="black" d="M 374 276 230 173"/>
<path stroke-width="0.5" stroke="black" d="M 374 276 141 305"/>
<path stroke-width="0.5" stroke="black" d="M 374 276 218 104"/>
<path stroke-width="0.5" stroke="black" d="M 374 276 376 84"/>
<path stroke-width="0.5" stroke="black" d="M 374 276 406 192"/>
<path stroke-width="0.5" stroke="black" d="M 374 276 348 290"/>
<path stroke-width="0.5" stroke="black" d="M 374 276 80 271"/>
<path stroke-width="0.5" stroke="black" d="M 374 276 26 201"/>
<path stroke-width="8.857142857142858" stroke="black" d="M 374 276 250 286"/>
<path stroke-width="0.5" stroke="black" d="M 374 276 117 183"/>
<path stroke-width="0.5" stroke="black" d="M 80 271 254 197"/>
<path stroke-width="0.5" stroke="black" d="M 80 271 420 247"/>
<path stroke-width="0.5" stroke="black" d="M 348 290 53 112"/>
<path stroke-width="0.5" stroke="black" d="M 348 290 326 37"/>
<path stroke-width="0.5" stroke="black" d="M 348 290 223 20"/>
<path stroke-width="0.5" stroke="black" d="M 348 290 20 189"/>
<path stroke-width="0.5" stroke="black" d="M 348 290 349 89"/>
<path stroke-width="8.857142857142858" stroke="black" d="M 80 271 250 286"/>
<path stroke-width="3.2857142857142856" stroke="black" d="M 80 271 230 173"/>
<path stroke-width="0.5" stroke="black" d="M 80 271 141 305"/>
<path stroke-width="4.678571428571429" stroke="black" d="M 80 271 39 215"/>
<path stroke-width="0.5" stroke="black" d="M 80 271 218 104"/>
<path stroke-width="0.5" stroke="black" d="M 80 271 406 192"/>
<path stroke-width="0.5" stroke="black" d="M 80 271 348 290"/>
<path stroke-width="0.5" stroke="black" d="M 80 271 374 276"/>
<path stroke-width="0.5" stroke="black" d="M 80 271 26 201"/>
<path stroke-width="0.5" stroke="black" d="M 80 271 117 183"/>
<path stroke-width="0.5" stroke="black" d="M 80 271 105 83"/>
<path stroke-width="0.5" stroke="black" d="M 80 271 362 189"/>
<path stroke-width="0.5" stroke="black" d="M 80 271 57 102"/>
<path stroke-width="0.5" stroke="black" d="M 80 271 376 84"/>
<path stroke-width="0.5" stroke="black" d="M 117 183 141 305"/>
<path stroke-width="0.5" stroke="black" d="M 374 276 105 83"/>
<path stroke-width="0.5" stroke="black" d="M 374 276 57 102"/>
<path stroke-width="0.5" stroke="black" d="M 26 201 117 183"/>
<path stroke-width="0.5" stroke="black" d="M 26 201 105 83"/>
<path stroke-width="0.5" stroke="black" d="M 26 201 362 189"/>
<path stroke-width="0.5" stroke="black" d="M 26 201 57 102"/>
<path stroke-width="0.5" stroke="black" d="M 26 201 420 247"/>
<path stroke-width="0.5" stroke="black" d="M 26 201 39 215"/>
<path stroke-width="0.5" stroke="black" d="M 26 201 254 197"/>
<path stroke-width="0.5" stroke="black" d="M 26 201 279 320"/>
<path stroke-width="0.5" stroke="black" d="M 26 201 374 276"/>
<path stroke-width="0.5" stroke="black" d="M 26 201 241 275"/>
<path stroke-width="0.5" stroke="black" d="M 26 201 216 107"/>
<path stroke-width="0.5" stroke="black" d="M 26 201 198 270"/>
<path stroke-width="0.5" stroke="black" d="M 26 201 53 112"/>
<path stroke-width="0.5" stroke="black" d="M 26 201 326 37"/>
<path stroke-width="0.5" stroke="black" d="M 26 201 223 20"/>
<path stroke-width="4.678571428571429" stroke="black" d="M 26 201 20 189"/>
<path stroke-width="0.5" stroke="black" d="M 26 201 349 89"/>
<path stroke-width="8.857142857142858" stroke="black" d="M 117 183 250 286"/>
<path stroke-width="0.5" stroke="black" d="M 26 201 187 29"/>
<path stroke-width="0.5" stroke="black" d="M 374 276 362 189"/>
<path stroke-width="0.5" stroke="black" d="M 26 201 80 271"/>
<path stroke-width="0.5" stroke="black" d="M 26 201 406 192"/>
<path stroke-width="4.678571428571429" stroke="black" d="M 374 276 420 247"/>
<path stroke-width="0.5" stroke="black" d="M 374 276 39 215"/>
<path stroke-width="0.5" stroke="black" d="M 374 276 254 197"/>
<path stroke-width="0.5" stroke="black" d="M 374 276 279 320"/>
<path stroke-width="0.5" stroke="black" d="M 374 276 241 275"/>
<path stroke-width="0.5" stroke="black" d="M 374 276 187 29"/>
<path stroke-width="0.5" stroke="black" d="M 374 276 216 107"/>
<path stroke-width="0.5" stroke="black" d="M 374 276 198 270"/>
<path stroke-width="0.5" stroke="black" d="M 26 201 348 290"/>
<path stroke-width="0.5" stroke="black" d="M 374 276 53 112"/>
<path stroke-width="0.5" stroke="black" d="M 374 276 223 20"/>
<path stroke-width="0.5" stroke="black" d="M 374 276 20 189"/>
<path stroke-width="0.5" stroke="black" d="M 374 276 349 89"/>
<path stroke-width="8.857142857142858" stroke="black" d="M 26 201 250 286"/>
<path stroke-width="3.2857142857142856" stroke="black" d="M 26 201 230 173"/>
<path stroke-width="0.5" stroke="black" d="M 26 201 141 305"/>
<path stroke-width="0.5" stroke="black" d="M 26 201 218 104"/>
<path stroke-width="0.5" stroke="black" d="M 26 201 376 84"/>
<path stroke-width="0.5" stroke="black" d="M 374 276 326 37"/>
<path stroke-width="0.5" stroke="black" d="M 349 89 20 189"/>
<circle cx="250" cy="286" r="7.0" style="fill:gray;stroke:black;stroke-width:1.0"/>
<circle cx="230" cy="173" r="7.0" style="fill:gray;stroke:black;stroke-width:1.0"/>
<circle cx="141" cy="305" r="7.0" style="fill:gray;stroke:black;stroke-width:1.0"/>
<circle cx="218" cy="104" r="7.0" style="fill:gray;stroke:black;stroke-width:1.0"/>
<circle cx="376" cy="84" r="7.0" style="fill:gray;stroke:black;stroke-width:1.0"/>
<circle cx="406" cy="192" r="7.0" style="fill:gray;stroke:black;stroke-width:1.0"/>
<circle cx="348" cy="290" r="7.0" style="fill:gray;stroke:black;stroke-width:1.0"/>
<circle cx="80" cy="271" r="7.0" style="fill:gray;stroke:black;stroke-width:1.0"/>
<circle cx="374" cy="276" r="7.0" style="fill:gray;stroke:black;stroke-width:1.0"/>
<circle cx="26" cy="201" r="7.0" style="fill:gray;stroke:black;stroke-width:1.0"/>
<circle cx="117" cy="183" r="7.0" style="fill:gray;stroke:black;stroke-width:1.0"/>
<circle cx="105" cy="83" r="7.0" style="fill:gray;stroke:black;stroke-width:1.0"/>
<circle cx="362" cy="189" r="7.0" style="fill:gray;stroke:black;stroke-width:1.0"/>
<circle cx="57" cy="102" r="7.0" style="fill:gray;stroke:black;stroke-width:1.0"/>
<circle cx="420" cy="247" r="7.0" style="fill:gray;stroke:black;stroke-width:1.0"/>
<circle cx="39" cy="215" r="7.0" style="fill:gray;stroke:black;stroke-width:1.0"/>
<circle cx="254" cy="197" r="7.0" style="fill:gray;stroke:black;stroke-width:1.0"/>
<circle cx="279" cy="320" r="7.0" style="fill:gray;stroke:black;stroke-width:1.0"/>
<circle cx="241" cy="275" r="7.0" style="fill:gray;stroke:black;stroke-width:1.0"/>
<circle cx="187" cy="29" r="7.0" style="fill:gray;stroke:black;stroke-width:1.0"/>
<circle cx="216" cy="107" r="7.0" style="fill:gray;stroke:black;stroke-width:1.0"/>
<circle cx="198" cy="270" r="7.0" style="fill:gray;stroke:black;stroke-width:1.0"/>
<circle cx="53" cy="112" r="7.0" style="fill:gray;stroke:black;stroke-width:1.0"/>
<circle cx="326" cy="37" r="7.0" style="fill:gray;stroke:black;stroke-width:1.0"/>
<circle cx="223" cy="20" r="7.0" style="fill:gray;stroke:black;stroke-width:1.0"/>
<circle cx="20" cy="189" r="7.0" style="fill:gray;stroke:black;stroke-width:1.0"/>
<circle cx="349" cy="89" r="7.0" style="fill:gray;stroke:black;stroke-width:1.0"/>
</svg>
