<svg width="440" height="340" xmlns="http://www.w3.org/2000/svg">
<path stroke-width="20.0" stroke="black" d="M 138 172 198 174"/>
<path stroke-width="0.5" stroke="black" d="M 215 76 350 129"/>
<path stroke-width="0.5" stroke="black" d="M 215 76 420 189"/>
<path stroke-width="0.5" stroke="black" d="M 215 76 20 199"/>
<path stroke-width="0.5" stroke="black" d="M 215 76 233 203"/>
<path stroke-width="0.5" stroke="black" d="M 215 76 330 150"/>
<path stroke-width="8.857142857142858" stroke="black" d="M 320 68 138 172"/>
<path stroke-width="3.2857142857142856" stroke="black" d="M 320 68 198 174"/>
<path stroke-width="0.5" stroke="black" d="M 320 68 37 108"/>
<path stroke-width="0.5" stroke="black" d="M 320 68 305 63"/>
<path stroke-width="0.5" stroke="black" d="M 320 68 97 85"/>
<path stroke-width="4.678571428571429" stroke="black" d="M 320 68 197 20"/>
<path stroke-width="0.5" stroke="black" d="M 320 68 393 211"/>
<path stroke-width="0.5" stroke="black" d="M 320 68 103 54"/>
<path stroke-width="0.5" stroke="black" d="M 320 68 99 308"/>
<path stroke-width="0.5" stroke="black" d="M 320 68 31 231"/>
<path stroke-width="0.5" stroke="black" d="M 320 68 217 304"/>
<path stroke-width="0.5" stroke="black" d="M 320 68 107 315"/>
<path stroke-width="0.5" stroke="black" d="M 215 76 71 215"/>
<path stroke-width="0.5" stroke="black" d="M 215 76 106 129"/>
<path stroke-width="0.5" stroke="black" d="M 215 76 187 307"/>
<path stroke-width="0.5" stroke="black" d="M 215 76 320 68"/>
<path stroke-width="4.678571428571429" stroke="black" d="M 228 320 330 150"/>
<path stroke-width="8.857142857142858" stroke="black" d="M 215 76 138 172"/>
<path stroke-width="3.2857142857142856" stroke="black" d="M 215 76 198 174"/>
<path stroke-width="0.5" stroke="black" d="M 215 76 37 108"/>
<path stroke-width="0.5" stroke="black" d="M 215 76 305 63"/>
<path stroke-width="0.5" stroke="black" d="M 215 76 97 85"/>
<path stroke-width="0.5" stroke="black" d="M 215 76 197 20"/>
<path stroke-width="4.678571428571429" stroke="black" d="M 215 76 393 211"/>
<path stroke-width="0.5" stroke="black" d="M 320 68 349 296"/>
<path stroke-width="0.5" stroke="black" d="M 215 76 103 54"/>
<path stroke-width="0.5" stroke="black" d="M 215 76 31 231"/>
<path stroke-width="0.5" stroke="black" d="M 215 76 217 304"/>
<path stroke-width="0.5" stroke="black" d="M 215 76 107 315"/>
<path stroke-width="0.5" stroke="black" d="M 215 76 349 296"/>
<path stroke-width="0.5" stroke="black" d="M 215 76 206 67"/>
<path stroke-width="0.5" stroke="black" d="M 215 76 354 278"/>
<path stroke-width="0.5" stroke="black" d="M 215 76 73 219"/>
<path stroke-width="0.5" stroke="black" d="M 215 76 228 320"/>
<path stroke-width="0.5" stroke="black" d="M 215 76 99 308"/>
<path stroke-width="0.5" stroke="black" d="M 320 68 206 67"/>
<path stroke-width="0.5" stroke="black" d="M 320 68 354 278"/>
<path stroke-width="0.5" stroke="black" d="M 320 68 73 219"/>
<path stroke-width="0.5" stroke="black" d="M 187 307 349 296"/>
<path stroke-width="0.5" stroke="black" d="M 187 307 206 67"/>
<path stroke-width="0.5" stroke="black" d="M 187 307 354 278"/>
<path stroke-width="0.5" stroke="black" d="M 187 307 73 219"/>
<path stroke-width="0.5" stroke="black" d="M 187 307 228 320"/>
<path stroke-width="0.5" stroke="black" d="M 187 307 215 76"/>
<path stroke-width="0.5" stroke="black" d="M 187 307 320 68"/>
<path stroke-width="0.5" stroke="black" d="M 187 307 106 129"/>
<path stroke-width="0.5" stroke="black" d="M 187 307 107 315"/>
<path stroke-width="0.5" stroke="black" d="M 187 307 71 215"/>
<path stroke-width="0.5" stroke="black" d="M 187 307 420 189"/>
<path stroke-width="0.5" stroke="black" d="M 187 307 20 199"/>
<path stroke-width="0.5" stroke="black" d="M 187 307 233 203"/>
<path stroke-width="0.5" stroke="black" d="M 187 307 330 150"/>
<path stroke-width="8.857142857142858" stroke="black" d="M 106 129 138 172"/>
<path stroke-width="3.2857142857142856" stroke="black" d="M 106 129 198 174"/>
<path stroke-width="0.5" stroke="black" d="M 106 129 37 108"/>
<path stroke-width="4.678571428571429" stroke="black" d="M 106 129 305 63"/>
<path stroke-width="0.5" stroke="black" d="M 187 307 350 129"/>
<path stroke-width="0.5" stroke="black" d="M 228 320 233 203"/>
<path stroke-width="0.5" stroke="black" d="M 187 307 217 304"/>
<path stroke-width="0.5" stroke="black" d="M 187 307 99 308"/>
<path stroke-width="0.5" stroke="black" d="M 320 68 228 320"/>
<path stroke-width="0.5" stroke="black" d="M 320 68 215 76"/>
<path stroke-width="0.5" stroke="black" d="M 320 68 187 307"/>
<path stroke-width="0.5" stroke="black" d="M 320 68 106 129"/>
<path stroke-width="0.5" stroke="black" d="M 320 68 71 215"/>
<path stroke-width="0.5" stroke="black" d="M 320 68 350 129"/>
<path stroke-width="0.5" stroke="black" d="M 320 68 420 189"/>
<path stroke-width="0.5" stroke="black" d="M 320 68 20 199"/>
<path stroke-width="0.5" stroke="black" d="M 187 307 31 231"/>
<path stroke-width="0.5" stroke="black" d="M 320 68 233 203"/>
<path stroke-width="8.857142857142858" stroke="black" d="M 187 307 138 172"/>
<path stroke-width="3.2857142857142856" stroke="black" d="M 187 307 198 174"/>
<path stroke-width="0.5" stroke="black" d="M 187 307 37 108"/>
<path stroke-width="0.5" stroke="black" d="M 187 307 305 63"/>
<path stroke-width="4.678571428571429" stroke="black" d="M 187 307 97 85"/>
<path stroke-width="0.5" stroke="black" d="M 187 307 197 20"/>
<path stroke-width="0.5" stroke="black" d="M 187 307 393 211"/>
<path stroke-width="0.5" stroke="black" d="M 187 307 103 54"/>
<path stroke-width="0.5" stroke="black" d="M 320 68 330 150"/>
<path stroke-width="0.5" stroke="black" d="M 228 320 20 199"/>
<path stroke-width="0.5" stroke="black" d="M 228 320 420 189"/>
<path stroke-width="0.5" stroke="black" d="M 228 320 350 129"/>
<path stroke-width="0.5" stroke="black" d="M 354 278 107 315"/>
<path stroke-width="0.5" stroke="black" d="M 354 278 349 296"/>
<path stroke-width="0.5" stroke="black" d="M 354 278 206 67"/>
<path stroke-width="0.5" stroke="black" d="M 354 278 73 219"/>
<path stroke-width="0.5" stroke="black" d="M 354 278 228 320"/>
<path stroke-width="0.5" stroke="black" d="M 354 278 215 76"/>
<path stroke-width="0.5" stroke="black" d="M 354 278 320 68"/>
<path stroke-width="0.5" stroke="black" d="M 354 278 187 307"/>
<path stroke-width="0.5" stroke="black" d="M 354 278 217 304"/>
<path stroke-width="0.5" stroke="black" d="M 354 278 106 129"/>
<path stroke-width="0.5" stroke="black" d="M 354 278 350 129"/>
<path stroke-width="0.5" stroke="black" d="M 354 278 420 189"/>
<path stroke-width="0.5" stroke="black" d="M 354 278 20 199"/>
<path stroke-width="0.5" stroke="black" d="M 354 278 233 203"/>
<path stroke-width="0.5" stroke="black" d="M 354 278 330 150"/>
<path stroke-width="8.857142857142858" stroke="black" d="M 73 219 138 172"/>
<path stroke-width="3.2857142857142856" stroke="black" d="M 73 219 198 174"/>
<path stroke-width="0.5" stroke="black" d="M 73 219 37 108"/>
<path stroke-width="0.5" stroke="black" d="M 354 278 71 215"/>
<path stroke-width="0.5" stroke="black" d="M 73 219 305 63"/>
<path stroke-width="0.5" stroke="black" d="M 354 278 31 231"/>
<path stroke-width="0.5" stroke="black" d="M 354 278 103 54"/>
<path stroke-width="0.5" stroke="black" d="M 206 67 228 320"/>
<path stroke-width="0.5" stroke="black" d="M 206 67 215 76"/>
<path stroke-width="0.5" stroke="black" d="M 206 67 320 68"/>
<path stroke-width="0.5" stroke="black" d="M 206 67 187 307"/>
<path stroke-width="0.5" stroke="black" d="M 206 67 106 129"/>
<path stroke-width="0.5" stroke="black" d="M 206 67 71 215"/>
<path stroke-width="0.5" stroke="black" d="M 206 67 350 129"/>
<path stroke-width="0.5" stroke="black" d="M 206 67 420 189"/>
<path stroke-width="4.678571428571429" stroke="black" d="M 354 278 99 308"/>
<path stroke-width="0.5" stroke="black" d="M 206 67 20 199"/>
<path stroke-width="0.5" stroke="black" d="M 206 67 330 150"/>
<path stroke-width="8.857142857142858" stroke="black" d="M 354 278 138 172"/>
<path stroke-width="3.2857142857142856" stroke="black" d="M 354 278 198 174"/>
<path stroke-width="0.5" stroke="black" d="M 354 278 37 108"/>
<path stroke-width="0.5" stroke="black" d="M 354 278 305 63"/>
<path stroke-width="0.5" stroke="black" d="M 354 278 97 85"/>
<path stroke-width="0.5" stroke="black" d="M 354 278 197 20"/>
<path stroke-width="0.5" stroke="black" d="M 354 278 393 211"/>
<path stroke-width="0.5" stroke="black" d="M 206 67 233 203"/>
<path stroke-width="0.5" stroke="black" d="M 106 129 97 85"/>
<path stroke-width="0.5" stroke="black" d="M 73 219 97 85"/>
<path stroke-width="0.5" stroke="black" d="M 73 219 393 211"/>
<path stroke-width="0.5" stroke="black" d="M 228 320 305 63"/>
<path stroke-width="0.5" stroke="black" d="M 228 320 97 85"/>
<path stroke-width="0.5" stroke="black" d="M 228 320 197 20"/>
<path stroke-width="0.5" stroke="black" d="M 228 320 393 211"/>
<path stroke-width="0.5" stroke="black" d="M 228 320 103 54"/>
<path stroke-width="0.5" stroke="black" d="M 228 320 99 308"/>
<path stroke-width="0.5" stroke="black" d="M 228 320 31 231"/>
<path stroke-width="0.5" stroke="black" d="M 228 320 217 304"/>
<path stroke-width="0.5" stroke="black" d="M 228 320 37 108"/>
<path stroke-width="0.5" stroke="black" d="M 228 320 107 315"/>
<path stroke-width="0.5" stroke="black" d="M 228 320 206 67"/>
<path stroke-width="0.5" stroke="black" d="M 228 320 354 278"/>
<path stroke-width="0.5" stroke="black" d="M 228 320 73 219"/>
<path stroke-width="0.5" stroke="black" d="M 228 320 215 76"/>
<path stroke-width="0.5" stroke="black" d="M 228 320 320 68"/>
<path stroke-width="0.5" stroke="black" d="M 228 320 187 307"/>
<path stroke-width="0.5" stroke="black" d="M 228 320 106 129"/>
<path stroke-width="0.5" stroke="black" d="M 228 320 71 215"/>
<path stroke-width="0.5" stroke="black" d="M 228 320 349 296"/>
<path stroke-width="0.5" stroke="black" d="M 73 219 197 20"/>
<path stroke-width="3.2857142857142856" stroke="black" d="M 228 320 198 174"/>
<path stroke-width="0.5" stroke="black" d="M 73 219 330 150"/>
<path stroke-width="4.678571428571429" stroke="black" d="M 73 219 103 54"/>
<path stroke-width="0.5" stroke="black" d="M 73 219 99 308"/>
<path stroke-width="0.5" stroke="black" d="M 73 219 31 231"/>
<path stroke-width="0.5" stroke="black" d="M 73 219 217 304"/>
<path stroke-width="0.5" stroke="black" d="M 73 219 107 315"/>
<path stroke-width="0.5" stroke="black" d="M 73 219 349 296"/>
<path stroke-width="0.5" stroke="black" d="M 73 219 206 67"/>
<path stroke-width="0.5" stroke="black" d="M 73 219 354 278"/>
<path stroke-width="8.857142857142858" stroke="black" d="M 228 320 138 172"/>
<path stroke-width="0.5" stroke="black" d="M 73 219 228 320"/>
<path stroke-width="0.5" stroke="black" d="M 73 219 320 68"/>
<path stroke-width="0.5" stroke="black" d="M 73 219 187 307"/>
<path stroke-width="0.5" stroke="black" d="M 73 219 106 129"/>
<path stroke-width="0.5" stroke="black" d="M 73 219 71 215"/>
<path stroke-width="0.5" stroke="black" d="M 73 219 350 129"/>
<path stroke-width="0.5" stroke="black" d="M 73 219 420 189"/>
<path stroke-width="0.5" stroke="black" d="M 73 219 20 199"/>
<path stroke-width="0.5" stroke="black" d="M 73 219 233 203"/>
<path stroke-width="0.5" stroke="black" d="M 73 219 215 76"/>
<path stroke-width="0.5" stroke="black" d="M 106 129 197 20"/>
<path stroke-width="0.5" stroke="black" d="M 106 129 393 211"/>
<path stroke-width="0.5" stroke="black" d="M 106 129 103 54"/>
<path stroke-width="0.5" stroke="black" d="M 20 199 354 278"/>
<path stroke-width="0.5" stroke="black" d="M 20 199 73 219"/>
<path stroke-width="0.5" stroke="black" d="M 20 199 228 320"/>
<path stroke-width="0.5" stroke="black" d="M 20 199 215 76"/>
<path stroke-width="0.5" stroke="black" d="M 20 199 320 68"/>
<path stroke-width="0.5" stroke="black" d="M 20 199 187 307"/>
<path stroke-width="0.5" stroke="black" d="M 20 199 106 129"/>
<path stroke-width="0.5" stroke="black" d="M 20 199 71 215"/>
<path stroke-width="0.5" stroke="black" d="M 20 199 206 67"/>
<path stroke-width="0.5" stroke="black" d="M 20 199 350 129"/>
<path stroke-width="0.5" stroke="black" d="M 20 199 233 203"/>
<path stroke-width="0.5" stroke="black" d="M 20 199 330 150"/>
<path stroke-width="8.857142857142858" stroke="black" d="M 233 203 138 172"/>
<path stroke-width="3.2857142857142856" stroke="black" d="M 233 203 198 174"/>
<path stroke-width="0.5" stroke="black" d="M 233 203 37 108"/>
<path stroke-width="0.5" stroke="black" d="M 233 203 305 63"/>
<path stroke-width="0.5" stroke="black" d="M 233 203 97 85"/>
<path stroke-width="0.5" stroke="black" d="M 233 203 197 20"/>
<path stroke-width="0.5" stroke="black" d="M 20 199 420 189"/>
<path stroke-width="0.5" stroke="black" d="M 233 203 393 211"/>
<path stroke-width="0.5" stroke="black" d="M 20 199 349 296"/>
<path stroke-width="0.5" stroke="black" d="M 20 199 217 304"/>
<path stroke-width="0.5" stroke="black" d="M 420 189 320 68"/>
<path stroke-width="0.5" stroke="black" d="M 420 189 187 307"/>
<path stroke-width="0.5" stroke="black" d="M 420 189 106 129"/>
<path stroke-width="0.5" stroke="black" d="M 420 189 71 215"/>
<path stroke-width="0.5" stroke="black" d="M 420 189 350 129"/>
<path stroke-width="0.5" stroke="black" d="M 420 189 20 199"/>
<path stroke-width="0.5" stroke="black" d="M 420 189 233 203"/>
<path stroke-width="0.5" stroke="black" d="M 420 189 330 150"/>
<path stroke-width="0.5" stroke="black" d="M 20 199 107 315"/>
<path stroke-width="7.464285714285714" stroke="black" d="M 20 199 138 172"/>
<path stroke-width="0.5" stroke="black" d="M 20 199 37 108"/>
<path stroke-width="0.5" stroke="black" d="M 20 199 305 63"/>
<path stroke-width="0.5" stroke="black" d="M 20 199 97 85"/>
<path stroke-width="0.5" stroke="black" d="M 20 199 197 20"/>
<path stroke-width="0.5" stroke="black" d="M 20 199 393 211"/>
<path stroke-width="0.5" stroke="black" d="M 20 199 103 54"/>
<path stroke-width="0.5" stroke="black" d="M 20 199 99 308"/>
<path stroke-width="0.5" stroke="black" d="M 20 199 31 231"/>
<path stroke-width="3.2857142857142856" stroke="black" d="M 20 199 198 174"/>
<path stroke-width="0.5" stroke="black" d="M 420 189 215 76"/>
<path stroke-width="0.5" stroke="black" d="M 233 203 103 54"/>
<path stroke-width="4.678571428571429" stroke="black" d="M 233 203 31 231"/>
<path stroke-width="0.5" stroke="black" d="M 330 150 393 211"/>
<path stroke-width="0.5" stroke="black" d="M 330 150 103 54"/>
<path stroke-width="0.5" stroke="black" d="M 330 150 99 308"/>
<path stroke-width="0.5" stroke="black" d="M 330 150 31 231"/>
<path stroke-width="0.5" stroke="black" d="M 330 150 217 304"/>
<path stroke-width="0.5" stroke="black" d="M 330 150 107 315"/>
<path stroke-width="0.5" stroke="black" d="M 330 150 349 296"/>
<path stroke-width="0.5" stroke="black" d="M 330 150 206 67"/>
<path stroke-width="0.5" stroke="black" d="M 330 150 197 20"/>
<path stroke-width="0.5" stroke="black" d="M 330 150 354 278"/>
<path stroke-width="4.678571428571429" stroke="black" d="M 330 150 228 320"/>
<path stroke-width="0.5" stroke="black" d="M 330 150 215 76"/>
<path stroke-width="0.5" stroke="black" d="M 330 150 320 68"/>
<path stroke-width="0.5" stroke="black" d="M 330 150 187 307"/>
<path stroke-width="0.5" stroke="black" d="M 330 150 106 129"/>
<path stroke-width="0.5" stroke="black" d="M 330 150 71 215"/>
<path stroke-width="0.5" stroke="black" d="M 330 150 350 129"/>
<path stroke-width="0.5" stroke="black" d="M 330 150 420 189"/>
<path stroke-width="0.5" stroke="black" d="M 330 150 73 219"/>
<path stroke-width="0.5" stroke="black" d="M 233 203 99 308"/>
<path stroke-width="0.5" stroke="black" d="M 330 150 97 85"/>
<path stroke-width="0.5" stroke="black" d="M 330 150 37 108"/>
<path stroke-width="0.5" stroke="black" d="M 233 203 217 304"/>
<path stroke-width="0.5" stroke="black" d="M 233 203 107 315"/>
<path stroke-width="0.5" stroke="black" d="M 233 203 349 296"/>
<path stroke-width="0.5" stroke="black" d="M 233 203 206 67"/>
<path stroke-width="0.5" stroke="black" d="M 233 203 354 278"/>
<path stroke-width="0.5" stroke="black" d="M 233 203 73 219"/>
<path stroke-width="0.5" stroke="black" d="M 233 203 228 320"/>
<path stroke-width="0.5" stroke="black" d="M 233 203 215 76"/>
<path stroke-width="0.5" stroke="black" d="M 330 150 305 63"/>
<path stroke-width="0.5" stroke="black" d="M 233 203 320 68"/>
<path stroke-width="0.5" stroke="black" d="M 233 203 106 129"/>
<path stroke-width="0.5" stroke="black" d="M 233 203 71 215"/>
<path stroke-width="0.5" stroke="black" d="M 233 203 350 129"/>
<path stroke-width="0.5" stroke="black" d="M 233 203 420 189"/>
<path stroke-width="0.5" stroke="black" d="M 233 203 20 199"/>
<path stroke-width="0.5" stroke="black" d="M 233 203 330 150"/>
<path stroke-width="8.857142857142858" stroke="black" d="M 330 150 138 172"/>
<path stroke-width="3.2857142857142856" stroke="black" d="M 330 150 198 174"/>
<path stroke-width="0.5" stroke="black" d="M 233 203 187 307"/>
<path stroke-width="0.5" stroke="black" d="M 206 67 73 219"/>
<path stroke-width="0.5" stroke="black" d="M 420 189 228 320"/>
<path stroke-width="0.5" stroke="black" d="M 420 189 354 278"/>
<path stroke-width="0.5" stroke="black" d="M 71 215 97 85"/>
<path stroke-width="0.5" stroke="black" d="M 71 215 197 20"/>
<path stroke-width="0.5" stroke="black" d="M 71 215 393 211"/>
<path stroke-width="0.5" stroke="black" d="M 71 215 103 54"/>
<path stroke-width="0.5" stroke="black" d="M 71 215 99 308"/>
<path stroke-width="0.5" stroke="black" d="M 71 215 31 231"/>
<path stroke-width="0.5" stroke="black" d="M 71 215 217 304"/>
<path stroke-width="0.5" stroke="black" d="M 71 215 107 315"/>
<path stroke-width="0.5" stroke="black" d="M 71 215 305 63"/>
<path stroke-width="0.5" stroke="black" d="M 71 215 349 296"/>
<path stroke-width="0.5" stroke="black" d="M 71 215 354 278"/>
<path stroke-width="0.5" stroke="black" d="M 71 215 73 219"/>
<path stroke-width="0.5" stroke="black" d="M 71 215 228 320"/>
<path stroke-width="0.5" stroke="black" d="M 71 215 215 76"/>
<path stroke-width="0.5" stroke="black" d="M 71 215 320 68"/>
<path stroke-width="0.5" stroke="black" d="M 71 215 187 307"/>
<path stroke-width="0.5" stroke="black" d="M 71 215 106 129"/>
<path stroke-width="0.5" stroke="black" d="M 71 215 350 129"/>
<path stroke-width="0.5" stroke="black" d="M 71 215 206 67"/>
<path stroke-width="0.5" stroke="black" d="M 71 215 420 189"/>
<path stroke-width="0.5" stroke="black" d="M 71 215 37 108"/>
<path stroke-width="13.035714285714286" stroke="black" d="M 71 215 138 172"/>
<path stroke-width="0.5" stroke="black" d="M 106 129 99 308"/>
<path stroke-width="0.5" stroke="black" d="M 106 129 31 231"/>
<path stroke-width="0.5" stroke="black" d="M 106 129 217 304"/>
<path stroke-width="0.5" stroke="black" d="M 106 129 107 315"/>
<path stroke-width="0.5" stroke="black" d="M 106 129 349 296"/>
<path stroke-width="0.5" stroke="black" d="M 106 129 206 67"/>
<path stroke-width="0.5" stroke="black" d="M 106 129 354 278"/>
<path stroke-width="0.5" stroke="black" d="M 106 129 73 219"/>
<path stroke-width="3.2857142857142856" stroke="black" d="M 71 215 198 174"/>
<path stroke-width="0.5" stroke="black" d="M 106 129 228 320"/>
<path stroke-width="0.5" stroke="black" d="M 106 129 320 68"/>
<path stroke-width="0.5" stroke="black" d="M 106 129 187 307"/>
<path stroke-width="0.5" stroke="black" d="M 106 129 71 215"/>
<path stroke-width="0.5" stroke="black" d="M 106 129 350 129"/>
<path stroke-width="0.5" stroke="black" d="M 106 129 420 189"/>
<path stroke-width="0.5" stroke="black" d="M 106 129 20 199"/>
<path stroke-width="0.5" stroke="black" d="M 106 129 233 203"/>
<path stroke-width="0.5" stroke="black" d="M 106 129 330 150"/>
<path stroke-width="0.5" stroke="black" d="M 106 129 215 76"/>
<path stroke-width="0.5" stroke="black" d="M 420 189 73 219"/>
<path stroke-width="0.5" stroke="black" d="M 71 215 20 199"/>
<path stroke-width="0.5" stroke="black" d="M 71 215 330 150"/>
<path stroke-width="0.5" stroke="black" d="M 350 129 420 189"/>
<path stroke-width="0.5" stroke="black" d="M 350 129 20 199"/>
<path stroke-width="0.5" stroke="black" d="M 350 129 233 203"/>
<path stroke-width="0.5" stroke="black" d="M 350 129 330 150"/>
<path stroke-width="6.071428571428571" stroke="black" d="M 420 189 138 172"/>
<path stroke-width="7.464285714285714" stroke="black" d="M 420 189 198 174"/>
<path stroke-width="0.5" stroke="black" d="M 420 189 37 108"/>
<path stroke-width="0.5" stroke="black" d="M 420 189 305 63"/>
<path stroke-width="0.5" stroke="black" d="M 350 129 71 215"/>
<path stroke-width="0.5" stroke="black" d="M 420 189 97 85"/>
<path stroke-width="0.5" stroke="black" d="M 420 189 393 211"/>
<path stroke-width="0.5" stroke="black" d="M 420 189 103 54"/>
<path stroke-width="0.5" stroke="black" d="M 420 189 99 308"/>
<path stroke-width="0.5" stroke="black" d="M 420 189 31 231"/>
<path stroke-width="0.5" stroke="black" d="M 420 189 217 304"/>
<path stroke-width="0.5" stroke="black" d="M 420 189 107 315"/>
<path stroke-width="0.5" stroke="black" d="M 420 189 349 296"/>
<path stroke-width="0.5" stroke="black" d="M 420 189 206 67"/>
<path stroke-width="0.5" stroke="black" d="M 420 189 197 20"/>
<path stroke-width="0.5" stroke="black" d="M 71 215 233 203"/>
<path stroke-width="0.5" stroke="black" d="M 350 129 106 129"/>
<path stroke-width="0.5" stroke="black" d="M 350 129 320 68"/>
<path stroke-width="8.857142857142858" stroke="black" d="M 350 129 138 172"/>
<path stroke-width="7.464285714285714" stroke="black" d="M 350 129 198 174"/>
<path stroke-width="0.5" stroke="black" d="M 350 129 37 108"/>
<path stroke-width="0.5" stroke="black" d="M 350 129 305 63"/>
<path stroke-width="0.5" stroke="black" d="M 350 129 97 85"/>
<path stroke-width="0.5" stroke="black" d="M 350 129 197 20"/>
<path stroke-width="0.5" stroke="black" d="M 350 129 393 211"/>
<path stroke-width="0.5" stroke="black" d="M 350 129 103 54"/>
<path stroke-width="0.5" stroke="black" d="M 350 129 187 307"/>
<path stroke-width="0.5" stroke="black" d="M 350 129 99 308"/>
<path stroke-width="0.5" stroke="black" d="M 350 129 217 304"/>
<path stroke-width="0.5" stroke="black" d="M 350 129 107 315"/>
<path stroke-width="0.5" stroke="black" d="M 350 129 349 296"/>
<path stroke-width="0.5" stroke="black" d="M 350 129 206 67"/>
<path stroke-width="0.5" stroke="black" d="M 350 129 354 278"/>
<path stroke-width="0.5" stroke="black" d="M 350 129 73 219"/>
<path stroke-width="0.5" stroke="black" d="M 350 129 228 320"/>
<path stroke-width="0.5" stroke="black" d="M 350 129 215 76"/>
<path stroke-width="0.5" stroke="black" d="M 350 129 31 231"/>
<path stroke-width="0.5" stroke="black" d="M 206 67 354 278"/>
<path stroke-width="0.5" stroke="black" d="M 206 67 349 296"/>
<path stroke-width="0.5" stroke="black" d="M 206 67 107 315"/>
<path stroke-width="0.5" stroke="black" d="M 97 85 99 308"/>
<path stroke-width="0.5" stroke="black" d="M 97 85 31 231"/>
<path stroke-width="0.5" stroke="black" d="M 97 85 217 304"/>
<path stroke-width="0.5" stroke="black" d="M 97 85 107 315"/>
<path stroke-width="0.5" stroke="black" d="M 97 85 349 296"/>
<path stroke-width="0.5" stroke="black" d="M 97 85 206 67"/>
<path stroke-width="0.5" stroke="black" d="M 97 85 354 278"/>
<path stroke-width="0.5" stroke="black" d="M 97 85 73 219"/>
<path stroke-width="0.5" stroke="black" d="M 97 85 103 54"/>
<path stroke-width="0.5" stroke="black" d="M 97 85 228 320"/>
<path stroke-width="0.5" stroke="black" d="M 97 85 320 68"/>
<path stroke-width="4.678571428571429" stroke="black" d="M 97 85 187 307"/>
<path stroke-width="0.5" stroke="black" d="M 97 85 106 129"/>
<path stroke-width="0.5" stroke="black" d="M 97 85 71 215"/>
<path stroke-width="0.5" stroke="black" d="M 97 85 350 129"/>
<path stroke-width="0.5" stroke="black" d="M 97 85 420 189"/>
<path stroke-width="0.5" stroke="black" d="M 97 85 20 199"/>
<path stroke-width="0.5" stroke="black" d="M 97 85 233 203"/>
<path stroke-width="0.5" stroke="black" d="M 97 85 215 76"/>
<path stroke-width="0.5" stroke="black" d="M 97 85 330 150"/>
<path stroke-width="0.5" stroke="black" d="M 97 85 393 211"/>
<path stroke-width="0.5" stroke="black" d="M 97 85 305 63"/>
<path stroke-width="0.5" stroke="black" d="M 305 63 349 296"/>
<path stroke-width="0.5" stroke="black" d="M 305 63 206 67"/>
<path stroke-width="0.5" stroke="black" d="M 305 63 354 278"/>
<path stroke-width="0.5" stroke="black" d="M 305 63 73 219"/>
<path stroke-width="0.5" stroke="black" d="M 305 63 228 320"/>
<path stroke-width="0.5" stroke="black" d="M 305 63 215 76"/>
<path stroke-width="0.5" stroke="black" d="M 305 63 320 68"/>
<path stroke-width="0.5" stroke="black" d="M 305 63 187 307"/>
<path stroke-width="0.5" stroke="black" d="M 97 85 197 20"/>
<path stroke-width="4.678571428571429" stroke="black" d="M 305 63 106 129"/>
<path stroke-width="0.5" stroke="black" d="M 305 63 350 129"/>
<path stroke-width="0.5" stroke="black" d="M 305 63 420 189"/>
<path stroke-width="0.5" stroke="black" d="M 305 63 20 199"/>
<path stroke-width="0.5" stroke="black" d="M 305 63 233 203"/>
<path stroke-width="0.5" stroke="black" d="M 305 63 330 150"/>
<path stroke-width="8.857142857142858" stroke="black" d="M 97 85 138 172"/>
<path stroke-width="3.2857142857142856" stroke="black" d="M 97 85 198 174"/>
<path stroke-width="0.5" stroke="black" d="M 97 85 37 108"/>
<path stroke-width="0.5" stroke="black" d="M 305 63 71 215"/>
<path stroke-width="0.5" stroke="black" d="M 305 63 107 315"/>
<path stroke-width="8.857142857142858" stroke="black" d="M 197 20 138 172"/>
<path stroke-width="0.5" stroke="black" d="M 197 20 37 108"/>
<path stroke-width="0.5" stroke="black" d="M 197 20 330 150"/>
<path stroke-width="8.857142857142858" stroke="black" d="M 393 211 138 172"/>
<path stroke-width="3.2857142857142856" stroke="black" d="M 393 211 198 174"/>
<path stroke-width="0.5" stroke="black" d="M 393 211 37 108"/>
<path stroke-width="0.5" stroke="black" d="M 393 211 305 63"/>
<path stroke-width="0.5" stroke="black" d="M 393 211 97 85"/>
<path stroke-width="0.5" stroke="black" d="M 393 211 197 20"/>
<path stroke-width="0.5" stroke="black" d="M 393 211 103 54"/>
<path stroke-width="0.5" stroke="black" d="M 197 20 233 203"/>
<path stroke-width="0.5" stroke="black" d="M 393 211 99 308"/>
<path stroke-width="0.5" stroke="black" d="M 393 211 217 304"/>
<path stroke-width="0.5" stroke="black" d="M 393 211 107 315"/>
<path stroke-width="0.5" stroke="black" d="M 393 211 349 296"/>
<path stroke-width="0.5" stroke="black" d="M 393 211 206 67"/>
<path stroke-width="0.5" stroke="black" d="M 393 211 354 278"/>
<path stroke-width="0.5" stroke="black" d="M 393 211 73 219"/>
<path stroke-width="0.5" stroke="black" d="M 393 211 228 320"/>
<path stroke-width="4.678571428571429" stroke="black" d="M 393 211 215 76"/>
<path stroke-width="0.5" stroke="black" d="M 393 211 31 231"/>
<path stroke-width="3.2857142857142856" stroke="black" d="M 197 20 198 174"/>
<path stroke-width="0.5" stroke="black" d="M 197 20 20 199"/>
<path stroke-width="0.5" stroke="black" d="M 197 20 350 129"/>
<path stroke-width="0.5" stroke="black" d="M 197 20 305 63"/>
<path stroke-width="0.5" stroke="black" d="M 197 20 97 85"/>
<path stroke-width="0.5" stroke="black" d="M 197 20 393 211"/>
<path stroke-width="0.5" stroke="black" d="M 197 20 103 54"/>
<path stroke-width="0.5" stroke="black" d="M 197 20 99 308"/>
<path stroke-width="0.5" stroke="black" d="M 197 20 31 231"/>
<path stroke-width="0.5" stroke="black" d="M 197 20 217 304"/>
<path stroke-width="0.5" stroke="black" d="M 197 20 107 315"/>
<path stroke-width="0.5" stroke="black" d="M 197 20 420 189"/>
<path stroke-width="0.5" stroke="black" d="M 197 20 349 296"/>
<path stroke-width="0.5" stroke="black" d="M 197 20 354 278"/>
<path stroke-width="0.5" stroke="black" d="M 197 20 73 219"/>
<path stroke-width="0.5" stroke="black" d="M 197 20 228 320"/>
<path stroke-width="0.5" stroke="black" d="M 197 20 215 76"/>
<path stroke-width="4.678571428571429" stroke="black" d="M 197 20 320 68"/>
<path stroke-width="0.5" stroke="black" d="M 197 20 187 307"/>
<path stroke-width="0.5" stroke="black" d="M 197 20 106 129"/>
<path stroke-width="0.5" stroke="black" d="M 197 20 71 215"/>
<path stroke-width="0.5" stroke="black" d="M 197 20 206 67"/>
<path stroke-width="0.5" stroke="black" d="M 393 211 320 68"/>
<path stroke-width="0.5" stroke="black" d="M 305 63 217 304"/>
<path stroke-width="0.5" stroke="black" d="M 305 63 99 308"/>
<path stroke-width="7.464285714285714" stroke="black" d="M 138 172 20 199"/>
<path stroke-width="8.857142857142858" stroke="black" d="M 138 172 233 203"/>
<path stroke-width="8.857142857142858" stroke="black" d="M 138 172 330 150"/>
<path stroke-width="20.0" stroke="black" d="M 198 174 138 172"/>
<path stroke-width="0.5" stroke="black" d="M 198 174 37 108"/>
<path stroke-width="3.2857142857142856" stroke="black" d="M 198 174 305 63"/>
<path stroke-width="3.2857142857142856" stroke="black" d="M 198 174 97 85"/>
<path stroke-width="3.2857142857142856" stroke="black" d="M 198 174 197 20"/>
<path stroke-width="6.071428571428571" stroke="black" d="M 138 172 420 189"/>
<path stroke-width="3.2857142857142856" stroke="black" d="M 198 174 393 211"/>
<path stroke-width="3.2857142857142856" stroke="black" d="M 198 174 99 308"/>
<path stroke-width="3.2857142857142856" stroke="black" d="M 198 174 31 231"/>
<path stroke-width="3.2857142857142856" stroke="black" d="M 198 174 217 304"/>
<path stroke-width="3.2857142857142856" stroke="black" d="M 198 174 107 315"/>
<path stroke-width="3.2857142857142856" stroke="black" d="M 198 174 349 296"/>
<path stroke-width="3.2857142857142856" stroke="black" d="M 198 174 206 67"/>
<path stroke-width="3.2857142857142856" stroke="black" d="M 198 174 354 278"/>
<path stroke-width="3.2857142857142856" stroke="black" d="M 198 174 73 219"/>
<path stroke-width="3.2857142857142856" stroke="black" d="M 198 174 103 54"/>
<path stroke-width="3.2857142857142856" stroke="black" d="M 198 174 228 320"/>
<path stroke-width="8.857142857142858" stroke="black" d="M 138 172 350 129"/>
<path stroke-width="8.857142857142858" stroke="black" d="M 138 172 106 129"/>
<path stroke-width="7.464285714285714" stroke="black" d="M 138 172 37 108"/>
<path stroke-width="8.857142857142858" stroke="black" d="M 138 172 305 63"/>
<path stroke-width="8.857142857142858" stroke="black" d="M 138 172 97 85"/>
<path stroke-width="8.857142857142858" stroke="black" d="M 138 172 197 20"/>
<path stroke-width="8.857142857142858" stroke="black" d="M 138 172 393 211"/>
<path stroke-width="8.857142857142858" stroke="black" d="M 138 172 103 54"/>
<path stroke-width="8.857142857142858" stroke="black" d="M 138 172 99 308"/>
<path stroke-width="8.857142857142858" stroke="black" d="M 138 172 31 231"/>
<path stroke-width="13.035714285714286" stroke="black" d="M 138 172 71 215"/>
<path stroke-width="8.857142857142858" stroke="black" d="M 138 172 217 304"/>
<path stroke-width="8.857142857142858" stroke="black" d="M 138 172 349 296"/>
<path stroke-width="8.857142857142858" stroke="black" d="M 138 172 206 67"/>
<path stroke-width="8.857142857142858" stroke="black" d="M 138 172 354 278"/>
<path stroke-width="8.857142857142858" stroke="black" d="M 138 172 73 219"/>
<path stroke-width="8.857142857142858" stroke="black" d="M 138 172 228 320"/>
<path stroke-width="8.857142857142858" stroke="black" d="M 138 172 215 76"/>
<path stroke-width="8.857142857142858" stroke="black" d="M 138 172 320 68"/>
<path stroke-width="8.857142857142858" stroke="black" d="M 138 172 187 307"/>
<path stroke-width="8.857142857142858" stroke="black" d="M 138 172 107 315"/>
<path stroke-width="0.5" stroke="black" d="M 305 63 31 231"/>
<path stroke-width="3.2857142857142856" stroke="black" d="M 198 174 215 76"/>
<path stroke-width="3.2857142857142856" stroke="black" d="M 198 174 187 307"/>
<path stroke-width="0.5" stroke="black" d="M 37 108 228 320"/>
<path stroke-width="0.5" stroke="black" d="M 37 108 215 76"/>
<path stroke-width="0.5" stroke="black" d="M 37 108 320 68"/>
<path stroke-width="0.5" stroke="black" d="M 37 108 187 307"/>
<path stroke-width="0.5" stroke="black" d="M 37 108 106 129"/>
<path stroke-width="0.5" stroke="black" d="M 37 108 71 215"/>
<path stroke-width="0.5" stroke="black" d="M 37 108 350 129"/>
<path stroke-width="0.5" stroke="black" d="M 37 108 420 189"/>
<path stroke-width="0.5" stroke="black" d="M 37 108 73 219"/>
<path stroke-width="0.5" stroke="black" d="M 37 108 20 199"/>
<path stroke-width="0.5" stroke="black" d="M 37 108 330 150"/>
<path stroke-width="8.857142857142858" stroke="black" d="M 305 63 138 172"/>
<path stroke-width="3.2857142857142856" stroke="black" d="M 305 63 198 174"/>
<path stroke-width="0.5" stroke="black" d="M 305 63 37 108"/>
<path stroke-width="0.5" stroke="black" d="M 305 63 97 85"/>
<path stroke-width="0.5" stroke="black" d="M 305 63 197 20"/>
<path stroke-width="0.5" stroke="black" d="M 305 63 393 211"/>
<path stroke-width="0.5" stroke="black" d="M 305 63 103 54"/>
<path stroke-width="0.5" stroke="black" d="M 37 108 233 203"/>
<path stroke-width="3.2857142857142856" stroke="black" d="M 198 174 320 68"/>
<path stroke-width="0.5" stroke="black" d="M 37 108 354 278"/>
<path stroke-width="0.5" stroke="black" d="M 37 108 349 296"/>
<path stroke-width="3.2857142857142856" stroke="black" d="M 198 174 106 129"/>
<path stroke-width="3.2857142857142856" stroke="black" d="M 198 174 71 215"/>
<path stroke-width="7.464285714285714" stroke="black" d="M 198 174 350 129"/>
<path stroke-width="7.464285714285714" stroke="black" d="M 198 174 420 189"/>
<path stroke-width="3.2857142857142856" stroke="black" d="M 198 174 20 199"/>
<path stroke-width="3.2857142857142856" stroke="black" d="M 198 174 233 203"/>
<path stroke-width="3.2857142857142856" stroke="black" d="M 198 174 330 150"/>
<path stroke-width="7.464285714285714" stroke="black" d="M 37 108 138 172"/>
<path stroke-width="0.5" stroke="black" d="M 37 108 206 67"/>
<path stroke-width="0.5" stroke="black" d="M 37 108 198 174"/>
<path stroke-width="0.5" stroke="black" d="M 37 108 97 85"/>
<path stroke-width="0.5" stroke="black" d="M 37 108 197 20"/>
<path stroke-width="0.5" stroke="black" d="M 37 108 393 211"/>
<path stroke-width="0.5" stroke="black" d="M 37 108 103 54"/>
<path stroke-width="0.5" stroke="black" d="M 37 108 99 308"/>
<path stroke-width="0.5" stroke="black" d="M 37 108 31 231"/>
<path stroke-width="0.5" stroke="black" d="M 37 108 217 304"/>
<path stroke-width="0.5" stroke="black" d="M 37 108 107 315"/>
<path stroke-width="0.5" stroke="black" d="M 37 108 305 63"/>
<path stroke-width="0.5" stroke="black" d="M 330 150 20 199"/>
<path stroke-width="0.5" stroke="black" d="M 393 211 187 307"/>
<path stroke-width="0.5" stroke="black" d="M 393 211 71 215"/>
<path stroke-width="3.2857142857142856" stroke="black" d="M 107 315 198 174"/>
<path stroke-width="0.5" stroke="black" d="M 107 315 37 108"/>
<path stroke-width="0.5" stroke="black" d="M 107 315 305 63"/>
<path stroke-width="0.5" stroke="black" d="M 107 315 97 85"/>
<path stroke-width="0.5" stroke="black" d="M 107 315 197 20"/>
<path stroke-width="0.5" stroke="black" d="M 107 315 393 211"/>
<path stroke-width="0.5" stroke="black" d="M 107 315 103 54"/>
<path stroke-width="0.5" stroke="black" d="M 107 315 99 308"/>
<path stroke-width="8.857142857142858" stroke="black" d="M 107 315 138 172"/>
<path stroke-width="0.5" stroke="black" d="M 107 315 31 231"/>
<path stroke-width="4.678571428571429" stroke="black" d="M 107 315 349 296"/>
<path stroke-width="0.5" stroke="black" d="M 107 315 206 67"/>
<path stroke-width="0.5" stroke="black" d="M 107 315 354 278"/>
<path stroke-width="0.5" stroke="black" d="M 107 315 73 219"/>
<path stroke-width="0.5" stroke="black" d="M 107 315 228 320"/>
<path stroke-width="0.5" stroke="black" d="M 107 315 215 76"/>
<path stroke-width="0.5" stroke="black" d="M 107 315 320 68"/>
<path stroke-width="0.5" stroke="black" d="M 107 315 187 307"/>
<path stroke-width="0.5" stroke="black" d="M 107 315 217 304"/>
<path stroke-width="0.5" stroke="black" d="M 107 315 106 129"/>
<path stroke-width="0.5" stroke="black" d="M 217 304 330 150"/>
<path stroke-width="0.5" stroke="black" d="M 217 304 20 199"/>
<path stroke-width="0.5" stroke="black" d="M 217 304 197 20"/>
<path stroke-width="0.5" stroke="black" d="M 217 304 393 211"/>
<path stroke-width="0.5" stroke="black" d="M 217 304 103 54"/>
<path stroke-width="0.5" stroke="black" d="M 217 304 99 308"/>
<path stroke-width="0.5" stroke="black" d="M 217 304 31 231"/>
<path stroke-width="0.5" stroke="black" d="M 217 304 107 315"/>
<path stroke-width="0.5" stroke="black" d="M 217 304 349 296"/>
<path stroke-width="4.678571428571429" stroke="black" d="M 217 304 206 67"/>
<path stroke-width="0.5" stroke="black" d="M 217 304 233 203"/>
<path stroke-width="0.5" stroke="black" d="M 217 304 354 278"/>
<path stroke-width="0.5" stroke="black" d="M 217 304 228 320"/>
<path stroke-width="0.5" stroke="black" d="M 217 304 215 76"/>
<path stroke-width="0.5" stroke="black" d="M 217 304 320 68"/>
<path stroke-width="0.5" stroke="black" d="M 217 304 187 307"/>
<path stroke-width="0.5" stroke="black" d="M 217 304 106 129"/>
<path stroke-width="0.5" stroke="black" d="M 217 304 71 215"/>
<path stroke-width="0.5" stroke="black" d="M 217 304 350 129"/>
<path stroke-width="0.5" stroke="black" d="M 217 304 420 189"/>
<path stroke-width="0.5" stroke="black" d="M 217 304 73 219"/>
<path stroke-width="0.5" stroke="black" d="M 217 304 97 85"/>
<path stroke-width="0.5" stroke="black" d="M 107 315 71 215"/>
<path stroke-width="0.5" stroke="black" d="M 107 315 420 189"/>
<path stroke-width="0.5" stroke="black" d="M 349 296 106 129"/>
<path stroke-width="0.5" stroke="black" d="M 349 296 71 215"/>
<path stroke-width="0.5" stroke="black" d="M 349 296 350 129"/>
<path stroke-width="0.5" stroke="black" d="M 349 296 420 189"/>
<path stroke-width="0.5" stroke="black" d="M 349 296 20 199"/>
<path stroke-width="0.5" stroke="black" d="M 349 296 233 203"/>
<path stroke-width="0.5" stroke="black" d="M 349 296 330 150"/>
<path stroke-width="8.857142857142858" stroke="black" d="M 206 67 138 172"/>
<path stroke-width="0.5" stroke="black" d="M 349 296 187 307"/>
<path stroke-width="3.2857142857142856" stroke="black" d="M 206 67 198 174"/>
<path stroke-width="0.5" stroke="black" d="M 206 67 305 63"/>
<path stroke-width="0.5" stroke="black" d="M 206 67 97 85"/>
<path stroke-width="0.5" stroke="black" d="M 206 67 197 20"/>
<path stroke-width="0.5" stroke="black" d="M 206 67 393 211"/>
<path stroke-width="0.5" stroke="black" d="M 206 67 103 54"/>
<path stroke-width="0.5" stroke="black" d="M 206 67 99 308"/>
<path stroke-width="0.5" stroke="black" d="M 206 67 31 231"/>
<path stroke-width="4.678571428571429" stroke="black" d="M 206 67 217 304"/>
<path stroke-width="0.5" stroke="black" d="M 206 67 37 108"/>
<path stroke-width="0.5" stroke="black" d="M 107 315 350 129"/>
<path stroke-width="0.5" stroke="black" d="M 349 296 320 68"/>
<path stroke-width="0.5" stroke="black" d="M 349 296 228 320"/>
<path stroke-width="0.5" stroke="black" d="M 107 315 20 199"/>
<path stroke-width="0.5" stroke="black" d="M 107 315 233 203"/>
<path stroke-width="0.5" stroke="black" d="M 107 315 330 150"/>
<path stroke-width="8.857142857142858" stroke="black" d="M 349 296 138 172"/>
<path stroke-width="3.2857142857142856" stroke="black" d="M 349 296 198 174"/>
<path stroke-width="0.5" stroke="black" d="M 349 296 37 108"/>
<path stroke-width="0.5" stroke="black" d="M 349 296 305 63"/>
<path stroke-width="0.5" stroke="black" d="M 349 296 97 85"/>
<path stroke-width="0.5" stroke="black" d="M 349 296 215 76"/>
<path stroke-width="0.5" stroke="black" d="M 349 296 197 20"/>
<path stroke-width="0.5" stroke="black" d="M 349 296 103 54"/>
<path stroke-width="0.5" stroke="black" d="M 349 296 99 308"/>
<path stroke-width="0.5" stroke="black" d="M 349 296 31 231"/>
<path stroke-width="0.5" stroke="black" d="M 349 296 217 304"/>
<path stroke-width="4.678571428571429" stroke="black" d="M 349 296 107 315"/>
<path stroke-width="0.5" stroke="black" d="M 349 296 206 67"/>
<path stroke-width="0.5" stroke="black" d="M 349 296 354 278"/>
<path stroke-width="0.5" stroke="black" d="M 349 296 73 219"/>
<path stroke-width="0.5" stroke="black" d="M 349 296 393 211"/>
<path stroke-width="0.5" stroke="black" d="M 393 211 106 129"/>
<path stroke-width="0.5" stroke="black" d="M 217 304 305 63"/>
<path stroke-width="3.2857142857142856" stroke="black" d="M 217 304 198 174"/>
<path stroke-width="0.5" stroke="black" d="M 103 54 320 68"/>
<path stroke-width="0.5" stroke="black" d="M 103 54 187 307"/>
<path stroke-width="0.5" stroke="black" d="M 103 54 106 129"/>
<path stroke-width="0.5" stroke="black" d="M 103 54 71 215"/>
<path stroke-width="0.5" stroke="black" d="M 103 54 350 129"/>
<path stroke-width="0.5" stroke="black" d="M 103 54 420 189"/>
<path stroke-width="0.5" stroke="black" d="M 103 54 20 199"/>
<path stroke-width="0.5" stroke="black" d="M 103 54 233 203"/>
<path stroke-width="0.5" stroke="black" d="M 103 54 215 76"/>
<path stroke-width="0.5" stroke="black" d="M 103 54 330 150"/>
<path stroke-width="3.2857142857142856" stroke="black" d="M 99 308 198 174"/>
<path stroke-width="0.5" stroke="black" d="M 99 308 37 108"/>
<path stroke-width="0.5" stroke="black" d="M 99 308 305 63"/>
<path stroke-width="0.5" stroke="black" d="M 99 308 97 85"/>
<path stroke-width="0.5" stroke="black" d="M 99 308 197 20"/>
<path stroke-width="0.5" stroke="black" d="M 99 308 393 211"/>
<path stroke-width="0.5" stroke="black" d="M 99 308 103 54"/>
<path stroke-width="0.5" stroke="black" d="M 99 308 31 231"/>
<path stroke-width="8.857142857142858" stroke="black" d="M 99 308 138 172"/>
<path stroke-width="0.5" stroke="black" d="M 99 308 217 304"/>
<path stroke-width="0.5" stroke="black" d="M 103 54 228 320"/>
<path stroke-width="0.5" stroke="black" d="M 103 54 354 278"/>
<path stroke-width="0.5" stroke="black" d="M 393 211 350 129"/>
<path stroke-width="0.5" stroke="black" d="M 393 211 420 189"/>
<path stroke-width="0.5" stroke="black" d="M 393 211 20 199"/>
<path stroke-width="0.5" stroke="black" d="M 393 211 233 203"/>
<path stroke-width="0.5" stroke="black" d="M 393 211 330 150"/>
<path stroke-width="8.857142857142858" stroke="black" d="M 103 54 138 172"/>
<path stroke-width="3.2857142857142856" stroke="black" d="M 103 54 198 174"/>
<path stroke-width="0.5" stroke="black" d="M 103 54 37 108"/>
<path stroke-width="4.678571428571429" stroke="black" d="M 103 54 73 219"/>
<path stroke-width="0.5" stroke="black" d="M 103 54 305 63"/>
<path stroke-width="0.5" stroke="black" d="M 103 54 197 20"/>
<path stroke-width="0.5" stroke="black" d="M 103 54 393 211"/>
<path stroke-width="0.5" stroke="black" d="M 103 54 99 308"/>
<path stroke-width="0.5" stroke="black" d="M 103 54 31 231"/>
<path stroke-width="0.5" stroke="black" d="M 103 54 217 304"/>
<path stroke-width="0.5" stroke="black" d="M 103 54 107 315"/>
<path stroke-width="0.5" stroke="black" d="M 103 54 349 296"/>
<path stroke-width="0.5" stroke="black" d="M 103 54 206 67"/>
<path stroke-width="0.5" stroke="black" d="M 103 54 97 85"/>
<path stroke-width="0.5" stroke="black" d="M 217 304 37 108"/>
<path stroke-width="0.5" stroke="black" d="M 99 308 107 315"/>
<path stroke-width="0.5" stroke="black" d="M 99 308 206 67"/>
<path stroke-width="0.5" stroke="black" d="M 31 231 217 304"/>
<path stroke-width="0.5" stroke="black" d="M 31 231 107 315"/>
<path stroke-width="0.5" stroke="black" d="M 31 231 349 296"/>
<path stroke-width="0.5" stroke="black" d="M 31 231 206 67"/>
<path stroke-width="0.5" stroke="black" d="M 31 231 354 278"/>
<path stroke-width="0.5" stroke="black" d="M 31 231 73 219"/>
<path stroke-width="0.5" stroke="black" d="M 31 231 228 320"/>
<path stroke-width="0.5" stroke="black" d="M 31 231 215 76"/>
<path stroke-width="0.5" stroke="black" d="M 31 231 99 308"/>
<path stroke-width="0.5" stroke="black" d="M 31 231 320 68"/>
<path stroke-width="0.5" stroke="black" d="M 31 231 106 129"/>
<path stroke-width="0.5" stroke="black" d="M 31 231 71 215"/>
<path stroke-width="0.5" stroke="black" d="M 31 231 350 129"/>
<path stroke-width="0.5" stroke="black" d="M 31 231 420 189"/>
<path stroke-width="0.5" stroke="black" d="M 31 231 20 199"/>
<path stroke-width="4.678571428571429" stroke="black" d="M 31 231 233 203"/>
<path stroke-width="0.5" stroke="black" d="M 31 231 330 150"/>
<path stroke-width="8.857142857142858" stroke="black" d="M 217 304 138 172"/>
<path stroke-width="0.5" stroke="black" d="M 31 231 187 307"/>
<path stroke-width="0.5" stroke="black" d="M 99 308 349 296"/>
<path stroke-width="0.5" stroke="black" d="M 31 231 103 54"/>
<path stroke-width="0.5" stroke="black" d="M 31 231 197 20"/>
<path stroke-width="4.678571428571429" stroke="black" d="M 99 308 354 278"/>
<path stroke-width="0.5" stroke="black" d="M 99 308 73 219"/>
<path stroke-width="0.5" stroke="black" d="M 99 308 228 320"/>
<path stroke-width="0.5" stroke="black" d="M 99 308 215 76"/>
<path stroke-width="0.5" stroke="black" d="M 99 308 320 68"/>
<path stroke-width="0.5" stroke="black" d="M 99 308 187 307"/>
<path stroke-width="0.5" stroke="black" d="M 99 308 106 129"/>
<path stroke-width="0.5" stroke="black" d="M 99 308 71 215"/>
<path stroke-width="0.5" stroke="black" d="M 31 231 393 211"/>
<path stroke-width="0.5" stroke="black" d="M 99 308 350 129"/>
<path stroke-width="0.5" stroke="black" d="M 99 308 20 199"/>
<path stroke-width="0.5" stroke="black" d="M 99 308 233 203"/>
<path stroke-width="0.5" stroke="black" d="M 99 308 330 150"/>
<path stroke-width="8.857142857142858" stroke="black" d="M 31 231 138 172"/>
<path stroke-width="3.2857142857142856" stroke="black" d="M 31 231 198 174"/>
<path stroke-width="0.5" stroke="black" d="M 31 231 37 108"/>
<path stroke-width="0.5" stroke="black" d="M 31 231 305 63"/>
<path stroke-width="0.5" stroke="black" d="M 31 231 97 85"/>
<path stroke-width="0.5" stroke="black" d="M 99 308 420 189"/>
<path stroke-width="0.5" stroke="black" d="M 330 150 233 203"/>
<circle cx="138" cy="172" r="20.0" style="fill:blue;stroke:black;stroke-width:1.0"/>
<circle cx="198" cy="174" r="20.0" style="fill:blue;stroke:black;stroke-width:1.0"/>
<circle cx="37" cy="108" r="20.0" style="fill:blue;stroke:black;stroke-width:1.0"/>
<circle cx="305" cy="63" r="20.0" style="fill:green;stroke:black;stroke-width:1.0"/>
<circle cx="97" cy="85" r="20.0" style="fill:red;stroke:black;stroke-width:1.0"/>
<circle cx="197" cy="20" r="20.0" style="fill:blue;stroke:black;stroke-width:1.0"/>
<circle cx="393" cy="211" r="20.0" style="fill:blue;stroke:black;stroke-width:1.0"/>
<circle cx="103" cy="54" r="20.0" style="fill:blue;stroke:black;stroke-width:1.0"/>
<circle cx="99" cy="308" r="20.0" style="fill:blue;stroke:black;stroke-width:1.0"/>
<circle cx="31" cy="231" r="20.0" style="fill:orange;stroke:black;stroke-width:1.0"/>
<circle cx="217" cy="304" r="20.0" style="fill:blue;stroke:black;stroke-width:1.0"/>
<circle cx="107" cy="315" r="20.0" style="fill:blue;stroke:black;stroke-width:1.0"/>
<circle cx="349" cy="296" r="20.0" style="fill:blue;stroke:black;stroke-width:1.0"/>
<circle cx="206" cy="67" r="20.0" style="fill:blue;stroke:black;stroke-width:1.0"/>
<circle cx="354" cy="278" r="20.0" style="fill:blue;stroke:black;stroke-width:1.0"/>
<circle cx="73" cy="219" r="20.0" style="fill:blue;stroke:black;stroke-width:1.0"/>
<circle cx="228" cy="320" r="20.0" style="fill:purple;stroke:black;stroke-width:1.0"/>
<circle cx="215" cy="76" r="20.0" style="fill:blue;stroke:black;stroke-width:1.0"/>
<circle cx="320" cy="68" r="20.0" style="fill:blue;stroke:black;stroke-width:1.0"/>
<circle cx="187" cy="307" r="20.0" style="fill:red;stroke:black;stroke-width:1.0"/>
<circle cx="106" cy="129" r="20.0" style="fill:green;stroke:black;stroke-width:1.0"/>
<circle cx="71" cy="215" r="20.0" style="fill:blue;stroke:black;stroke-width:1.0"/>
<circle cx="350" cy="129" r="20.0" style="fill:blue;stroke:black;stroke-width:1.0"/>
<circle cx="420" cy="189" r="20.0" style="fill:blue;stroke:black;stroke-width:1.0"/>
<circle cx="20" cy="199" r="20.0" style="fill:blue;stroke:black;stroke-width:1.0"/>
<circle cx="233" cy="203" r="20.0" style="fill:orange;stroke:black;stroke-width:1.0"/>
<circle cx="330" cy="150" r="20.0" style="fill:purple;stroke:black;stroke-width:1.0"/>
</svg>
